<?xml version="1.0" encoding="UTF-8"?>
<svg id="uuid-50d436ea-bcb8-4827-8c01-c31774d4351c" data-name="ed0aa071-1ac9-456e-836d-bc8233cdf7eb" xmlns="http://www.w3.org/2000/svg" width="335" height="335" xmlns:xlink="http://www.w3.org/1999/xlink" viewBox="0 0 335 335">
  <defs>
    <linearGradient id="uuid-c556212e-8b56-4863-89d6-6ba33881c2ba" x1="0" y1="336" x2="335" y2="1" gradientTransform="translate(0 336) scale(1 -1)" gradientUnits="userSpaceOnUse">
      <stop offset="0" stop-color="#39b54a"/>
      <stop offset="1" stop-color="#009444"/>
    </linearGradient>
    <clipPath id="uuid-ab013735-2fe4-4ab0-9528-b03046e84638">
      <rect width="335" height="360.54" fill="none"/>
    </clipPath>
  </defs>
  <g>
    <rect width="335" height="335" fill="url(#uuid-c556212e-8b56-4863-89d6-6ba33881c2ba)"/>
    <g clip-path="url(#uuid-ab013735-2fe4-4ab0-9528-b03046e84638)">
      <g>
        <path d="M57.4,268.5c2.5-3.6,4.7-7.4,8.1-10.1,1.19-1.01,2.26-2.15,3.2-3.4,1.1-1.3,2.3-2.3,4.1-1.7s1.5-.3,2.1-.9c4.7-4.8,8.83-10.14,12.3-15.9,5.2-8.5,12.6-14.8,20.4-20.4,6.57-4.4,11.25-11.11,13.1-18.8,2.03-9.33,5.23-18.36,9.5-26.9,1.23-2.08,1.79-4.49,1.6-6.9-.05-1.93,.67-3.8,2-5.2,1.69-1.89,2.09-4.61,1-6.9-.3-.7-.5-1.4-.8-2-4.6-8.6-3.8-17.4-.7-26.2,2.1-5.8,5.5-10.7,9.1-15.7s6.4-8.1,8.4-13.2c.62-1.02,.31-2.36-.7-3-2.82-2.54-4.83-5.84-5.8-9.5-1.6-6.1-4.8-11.3-7.5-16.7-3.35-6.4-6-13.13-7.9-20.1-1.6-6.4-.6-8.9,5-11.7,8.3-4.3,16.9-6.8,26.2-6.5,3.6,0,3.8-.3,3.4-4s1-3.6,2.9-2.6,3.9,.5,5.7-.4c4.2-2.1,8.74-3.45,13.4-4,6.2-.73,12.41,1.28,17,5.5l2.2,1.9c1,.8,1.9,2.5,2.9,2s.8-2.5,1-3.9c1.4-9.4,4.4-17.9,13.3-22.2,8.9-4.3,21.4-2,26.9,5.1,3.7,4.8,5.5,10.5,7,16.3,.2,1.2,.4,2.3,1.7,2.9s.7,1.4,.7,2.3c.1,2.4-1.1,4.5-1.5,6.7-.4,2.2-.9,1-1.6,.9s-1.7,1-2,2.1,.5,1.7,1.2,2.2c6.3,4.5,6.8,4.7,3.5,12.6-1.8,4.2-2.7,7.1,.9,10.9,3.6,3.8,3.8,8.4,5,12.9,.24,1.28-.01,2.6-.7,3.7-2.5,5.4-5.1,10.7-7.7,16.1-1.6,3.5-4.5,5.2-8,5.9-2.49,.52-4.43,2.5-4.9,5-1.3,5.3-2.6,10.7-4.4,15.9-.4,1.1-.1,1.6,.9,2,5,2.2,9.8,4.9,15.6,4.4,3-.17,5.92-1.06,8.5-2.6,4.1-2.5,7.1-2.8,10.6,.4,3.5,3.2,4.8,4.8,2.4,10.9-1.5,3.8-4.1,4.9-7.4,5.3-7.15,.72-14.34,.78-21.5,.2-3.8-.2-7.6-.3-11.2,1.5-2.31,1.11-4.96,1.29-7.4,.5-2.98-.91-5.83-2.19-8.5-3.8-4-2.4-5.9-6.5-7.6-10.7-.6-1.7,.3-3.1,1.5-4.2s3.5-3.2,5.8-5.1c-3.8,0-5-1.7-3.3-5.5-3.15,1.93-5.9,4.44-8.1,7.4-3.13,4.43-6.01,9.04-8.6,13.8-1.7,2.9-3.7,5.3-6.9,6-.5,.1-1,.2-1.1,.7s.5,.8,.9,1.2c3.1,3.1,6,6.4,4.7,11.6-.2,.8,.3,1.3,.8,1.8,6.7,7,10,16,12,25.6,.48,1.83-.06,3.77-1.4,5.1-.41,.26-.72,.65-.9,1.1-1.3,6.1-6.2,7.6-10.8,9.2-8.51,2.92-16.75,6.6-24.6,11-4.51,2.43-9.32,4.28-14.3,5.5-3.29,.78-6.24,2.6-8.4,5.2-3.8,4.5-7.5,9-10.9,13.8-2,2.7-4.2,5.1-7.4,5.8-1.01,.33-1.73,1.24-1.8,2.3-1,4.6-3.4,8.7-5.1,13-1.7,4.3-5.5,5-8.6,1.9-.39-.41-.64-.94-.7-1.5-.1-.6-.2-1.4-.6-1.7-2.1-1.8-2.8-4.1-3.1-6.8s-.9-1.5-2-.7c-6.92,4.55-13.27,9.92-18.9,16-1,.93-1.58,2.23-1.6,3.6-.1,1.76-.77,3.45-1.9,4.8-1.2,1.3-1,2.5-.4,3.9s2.5,4.2,3.3,6.6,1.4,1,2.2,1.4,3.2,1.8,3.5,4,0,1.8-1.2,2.1c-5.4,1-10.7,1.8-16.2,2.3-1.4,.1-2.3-.7-3.2-1.8-2.09-2.85-4.62-5.35-7.5-7.4-2-1.5-3.2-4.3-5.8-5.3-.25-.27-.4-.63-.4-1-.1-1.5-.6-2.3-2-2.4s-1.4-1-2-1.5v-2Z" fill="#fff" isolation="isolate" opacity=".1"/>
        <polygon points="0 335 0 222.3 335 166 335 335 0 335" fill="#fff"/>
        <polygon points="0 335 0 227.3 335 171.2 335 335 0 335" fill="#010101"/>
        <g>
          <path d="M291.3,272.7c-43.05,5.99-82.81-24.05-88.8-67.1-5.99-43.05,24.05-82.81,67.1-88.8,43.05-5.99,82.8,24.05,88.8,67.1,5.94,43.04-24.08,82.76-67.1,88.8Zm-21.4-153c-41.46,5.81-70.35,44.13-64.54,85.59,5.81,41.46,44.13,70.35,85.59,64.54,41.43-5.81,70.32-44.09,64.55-85.53-5.83-41.46-44.13-70.36-85.6-64.6h0Z" fill="#ffcd05"/>
          <circle cx="280.4" cy="194.8" r="71.6" fill="#fff"/>
        </g>
      </g>
    </g>
  </g>
  <g>
    <g>
      <path d="M32.2,17.2c.02,.38-.13,.74-.4,1l-4.6,4.6-4.9-2.8v-2.8c0-.79,.61-1.45,1.4-1.5,.83,0,1.5,.67,1.5,1.5h0v3.5l4.6-4.6c.57-.51,1.43-.51,2,0,.28,.3,.42,.69,.4,1.1" fill="#fff"/>
      <path d="M30.8,30.5h-.6l-.4-.3-4.6-4.6v3.4c0,.83-.67,1.5-1.5,1.5h0c-.77,0-1.4-.62-1.4-1.4,0-.03,0-.07,0-.1v-2.7l4.9-2.9,4.6,4.6c.55,.62,.51,1.56-.11,2.12-.25,.22-.56,.36-.89,.38" fill="#fff"/>
      <path d="M27,23c0-.1-.1-.1-.1-.2h-.1l-1.2-.7-3.3-1.9-2.8-1.6c-.2-.1-.4-.1-.5,.1h0v8.6c0,.17,.13,.3,.3,.3h.2l2.8-1.6,4.5-2.6h.1c0-.1,.1-.1,.1-.2h0v-.2Zm-1.1,.2h-.1l-3.6,2.1-2.2,1.3c-.1,.1-.2,.1-.3-.1h0v-6.7c0-.1,.1-.3,.2-.3,.06,0,.1,.04,.1,.1h0l2.2,1.2,3.6,2.1c.1,0,.1,.2,.1,.3Z" fill="#fff"/>
      <path d="M24.9,23.2c-.06,0-.1,.04-.1,.1h0l-2.7,1.5-1.6,1h-.3v-5c0-.11,.09-.2,.2-.2h0c.06,0,.1,.04,.1,.1h0l1.6,.9,2.7,1.5c0,.06,.04,.1,.1,.1h0v.2" fill="#fff"/>
    </g>
    <g>
      <path d="M56.3,22.9h-.1l-4.1-2.1-2.5-1.2c-.2-.1-.4,0-.4,.2v6.8c0,.2,.3,.3,.5,.2l2.5-1.3,4-2.2h.1v-.4Zm-1,.2h-.1l-3.1,1.6-1.9,1.1c-.2,0-.4-.1-.4-.2v-5.1c0-.2,.1-.3,.2-.3,.06,0,.1,.04,.1,.1l2,.9,3.1,1.6h.1v.3Z" fill="#fff"/>
      <path d="M54.4,23.1h0l-2.4,1.3-1.4,.8h-.3v-4.1c0-.08,.04-.15,.1-.2q.1,0,.1,.1l1.5,.7,2.4,1.2h0" fill="#fff"/>
      <path d="M35.2,19.6h3.5c1.7,0,3,1,3,2.4s-1.2,2.4-2.9,2.4h-1.9v2.3h-1.6l-.1-7.1Zm3.4,3.3c.8,0,1.4-.4,1.4-1s-.6-1-1.4-1h-1.7v2h1.7Z" fill="#fff"/>
      <path d="M48.3,25.3v1.3h-5.5v-7h1.7v5.6l3.8,.1Z" fill="#fff"/>
      <path d="M58.1,24l-3.1-4.5h2l1.9,3.1,2-3.1h1.9l-3,4.6v2.5h-1.7v-2.6Z" fill="#fff"/>
      <path d="M63.9,19.9h.9v3.9l3.9-4h1.3l-3.3,3.3,3.6,3.8h-1.2l-3-3.3-1.2,1.2v2.1h-.9l-.1-7Z" fill="#fff"/>
      <path d="M70.7,23.3c.16-2.08,1.92-3.66,4-3.6,2.06-.11,3.84,1.44,4,3.5,.03,2.21-1.74,4.02-3.95,4.05-2.21,.03-4.02-1.74-4.05-3.95Zm7.1-.1c-.11-1.62-1.48-2.86-3.1-2.8-1.64,0-2.99,1.27-3.1,2.9,.03,1.71,1.44,3.08,3.15,3.05,1.71-.03,3.08-1.44,3.05-3.15Z" fill="#fff"/>
      <path d="M79.9,25.9l.5-.7c.71,.65,1.64,1.01,2.6,1,1.2,0,1.8-.6,1.8-1.2s-.7-1.1-2.1-1.4-2.6-.7-2.6-1.9,1.1-2,2.6-2c1.01-.06,2.01,.26,2.8,.9l-.6,.7c-.58-.58-1.38-.9-2.2-.9-1,0-1.7,.6-1.7,1.2s.8,1,2.1,1.3,2.6,.7,2.6,2-.9,2-2.7,2c-1.12,.02-2.21-.33-3.1-1Z" fill="#fff"/>
      <path d="M87.3,19.9h.9l3,4.9,2.9-5h.9v7h-.9v-5.3l-2.9,5-2.9-4.9v5.3h-.9l-.1-7Z" fill="#fff"/>
      <path d="M96.7,23.3c-.1-1.9,1.8-3.6,3.9-3.6,2.09-.17,3.93,1.38,4.1,3.48v.02c-.11,2.11-1.88,3.76-4,3.7-2.04,.17-3.82-1.35-3.99-3.39,0-.07,0-.14-.01-.21Zm7.1-.1c-.16-1.63-1.56-2.86-3.2-2.8-1.6,.03-2.88,1.35-2.85,2.95,.03,1.6,1.35,2.88,2.95,2.85,1.67,0,3.05-1.33,3.1-3Z" fill="#fff"/>
      <path d="M105.8,25.9l.6-.7c.71,.65,1.64,1.01,2.6,1,1.2,0,1.8-.6,1.8-1.2s-.8-1.1-2.1-1.4-2.6-.7-2.6-1.9,1.1-2,2.6-2c.98-.07,1.96,.25,2.7,.9l-.5,.7c-.63-.57-1.45-.89-2.3-.9-.76-.07-1.45,.45-1.6,1.2,0,.8,.7,1,2.1,1.3s2.6,.7,2.6,2-.9,2-2.8,2c-1.11,0-2.2-.34-3.1-1Z" fill="#fff"/>
    </g>
  </g>
  <g>
    <g>
      <path d="M270.6,75.7c-.01-.14,.02-.28,.1-.4,.1-.22,.23-.42,.4-.6l.3-.5,.4-.5,.3-.5,.4-.5,.3-.6,.5-.6c.03-.15,.1-.29,.2-.4l.4-.5,.3-.5,.4-.6,.3-.5,.2-.3,.3-.4,.4-.6,.3-.5c.2-.1,.2-.2,.3-.3l.3-.6c.2-.1,.2-.3,.4-.5l.3-.5,.3-.4h.2c.2-.1,.2-.3,.2-.5v-.2h.1l.5-.7,.3-.5h0c.18-.12,.33-.29,.4-.5s.22-.38,.4-.5l.3-.5,.4-.6,.3-.5c.17-.18,.3-.38,.4-.6,.23-.28,.44-.58,.6-.9l.3-.4,.5-.7c.02-.18,.14-.33,.3-.4l.2-.5,.3-.4c.22-.23,.39-.5,.5-.8,.2-.1,.2-.3,.4-.5s.2-.2,.2-.3l.4-.5c0-.07,.1-.17,.3-.3h4.9c.2,.2,.4,.1,.6,.2s.6,.1,.8,.3h.5c.59,.14,1.16,.34,1.7,.6,.44,.06,.85,.23,1.2,.5h.5l.8,.4h.4l1,.5,.7,.4,1.1,.5,1.3,.8,1.2,.8,.5,.3,.8,.6h.1l.5,.3c.12,.18,.29,.33,.5,.4,.32,.24,.62,.51,.9,.8,.1,.2,.4,.3,.5,.4l.6,.6,.5,.4,.2,.2,.6,.6,.6,.6c0,.1,.2,.2,.3,.3l.3,.3c.07,.08,.11,.19,.1,.3,.3,.1,.4,.4,.6,.6,.06,0,.1,.04,.1,.1h.1l.6,.8c.25,.22,.46,.49,.6,.8l.3,.3c.1,.3,.4,.4,.5,.7l.3,.4v1.1l.3,.4c.1,.11,.17,.25,.2,.4,0,.1,.1,.1,.1,.2s.2,.2,.3,.3c.04,.2,.15,.37,.3,.5h0c.1,.4,.5,.7,.6,1.1v.2c.06,.2,.02,.43-.1,.6l-.9,1.3-.9,1.4-1.1,1.7-.9,1.2c-.33,.59-.7,1.16-1.1,1.7l-.6,.9-.6,.9-.7,1.1-.4,.2c-.1,0-.1,.1-.1,.2,.08,.07,.09,.2,.02,.28l-.02,.02-1,1.4c-.23,.42-.5,.82-.8,1.2-.41,.71-.88,1.37-1.4,2l-.5,.9-1,1.9-.6,.9-.9,1.3-.5,.8c-.07,.21-.3,.32-.51,.25-.03-.01-.06-.03-.09-.05h-2.6c-.1,0-.2-.1-.3,0h-.5l-1.1-.3h-.5l-.8-.2h-1l-.8-.3h-.1l-.7-.3h-.1l-.7-.3-.6-.2h-.4l-.7-.3-.9-.4-.6-.3-.4-.2-.6-.3-.6-.3-1.1-.7-.6-.4-1-.6-.8-.6-.7-.5-.7-.6-.2-1.4c-.24-.11-.45-.28-.6-.5l-.4-.3-.8-.7-.5-.4-.5-.6c-.1-.2-.3-.2-.4-.3l-.8-1c-.18-.08-.32-.22-.4-.4h-.2c0-.1-.1-.2-.2-.3l-.2-.2-.5-.7-.2-.2c-.2-.2-.3-.5-.6-.7h0c-.1-.1-.1-.3-.3-.4h-.1l-.3-.4h-.1c-.1-.3-.4-.6-.5-.9l-.6-.8c-.1-.11-.17-.25-.2-.4l-.2-.3c-.17-.15-.28-.37-.3-.6l-.2-.3c-.28,0-.5-.22-.5-.5,0-.16,.07-.31,.2-.4Zm17.6-2.5h.3l.6,.4c.2,.1,.5,.2,.6,.4s.1,.3,0,.4-.3,.4-.4,.6-.1,.3,.1,.4c.12,.18,.29,.33,.5,.4l.5-.2c0-.2,.1-.3,.2-.5,.15-.17,.4-.21,.6-.1l1,.7c.19,.11,.25,.36,.14,.55-.01,.02-.02,.03-.04,.05l-.4,.6c-.1,.1-.1,.2,.1,.3s.4,.2,.5,.4h.3l.3-.5,.4-.3c0-.1,.2-.1,.3,0h0l1.1,.7c.15,.12,.19,.33,.1,.5,0,.3-.2,.4-.4,.6s-.1,.3,.1,.4l.5,.4h.3c.15-.22,.29-.45,.4-.7,.1-.2,.4-.2,.6-.1l.8,.5,.3,.2c.1,.1,.2,.5,.1,.6-.17,.21-.31,.45-.4,.7q-.1,.1,0,.2l.4,.3c.3,.2,.4,.2,.6-.1l.3-.4c.17-.22,.48-.27,.7-.1h0l1,.6c.17,.15,.21,.4,.1,.6-.17,.21-.31,.45-.4,.7-.08,.07-.09,.2-.02,.28l.02,.02,.6,.3c.1,.1,.2,.1,.3-.1h.1l.2-.2c0-.2,.2-.3,.4-.4h.3l.6,.3h.4c0-.1,.2-.2,.2-.4l.3-.2,.2-.2v-.5c.1-.1,.2-.2,.2-.3,.08-.07,.09-.2,.02-.28l-.02-.02c-.1-.2-.4-.2-.6-.4s-.4-.3-.2-.6l.3-.5c.11,.03,.22-.04,.25-.15,.03-.11-.04-.22-.15-.25l-.6-.4h-.3l-.3,.5c-.2,.4-.6,.3-.9,.1l-.9-.6c-.11,0-.2-.09-.2-.2h0c.1-.2,.1-.4,.3-.5l.3-.5c0-.11-.03-.22-.1-.3l-.6-.4h-.3l-.5,.7c-.2,.1-.3,.2-.5,0h-.1c-.39-.14-.74-.38-1-.7-.1,0-.2-.1-.1-.2s0-.4,.2-.5c.14-.14,.24-.31,.3-.5q0-.1-.1-.2l-.6-.4h-.2l-.4,.6c-.07,.2-.17,.3-.3,.3-.2,0-.4,0-.5-.2h-.4l-.5-.4c-.2,0-.3-.4-.2-.5,.07-.21,.22-.38,.4-.5,.1-.2,.2-.4-.1-.6l-.4-.3c-.2-.1-.3,0-.4,.1l-.3,.5c-.2,.2-.3,.3-.5,.2l-.7-.3-.3-.3c0-.1-.1-.1-.2-.1-.11,.03-.22-.04-.25-.15-.03-.11,.04-.22,.15-.25q0-.1,.1-.1c.1,0,.2-.4,.3-.6s.1-.3,0-.4-.3-.3-.6-.4h-.1c-.2,0-.2,.2-.3,.3s-.2,.5-.5,.6-.2,.1-.2,0l-.5-.3c-.21-.07-.38-.22-.5-.4-.2,0-.3-.1-.3-.2s-.2-.3-.1-.4,.2-.5,.4-.7c.11-.03,.18-.14,.15-.25-.03-.11-.14-.18-.25-.15h0l-.3-.2c-.2-.2-.5-.1-.6,.2h0v.2c-.08,.14-.24,.22-.4,.2-.3,.1-.5-.2-.7-.3l-.6-.4c-.22-.17-.27-.48-.1-.7l.4-.5c0-.1,.1-.2,0-.3l-.6-.4h-.3l-.3,.3c0,.2-.2,.3-.3,.5h-.2l-.9-.4-.6-.4c-.1-.1-.2-.2-.1-.2s.1-.4,.2-.5l.3-.5c.1,0,.1-.1,0-.1l-.6-.5q-.2-.1-.3,.1l-.5,.6c-.1,.1-.3,.2-.4,.1s-.4-.1-.5-.3l-.4-.2h-.1l-.3,.4-.4,.3c-.1,0-.1,.1-.1,.2s0,.2-.1,.3l-.3,.5c-.1,.1,0,.2,.1,.3l.5,.3c.27,.19,.34,.56,.15,.83-.02,.02-.03,.04-.05,.07l-.3,.5v.2l.7,.4h.3l.3-.5c.2-.4,.4-.4,.7-.2l1,.7c.3,.1,.3,.4,.1,.6h-.1c0,.08-.04,.15-.1,.2-.1,.11-.17,.25-.2,.4-.1,0,0,.1,0,.1l.5,.4c.2,.1,.4,.1,.5-.1l.3-.5c.2-.2,.3-.2,.6-.1s.3,.2,.5,.3l.7,.5c.06,0,.1,.04,.1,.1h0c0,.18-.08,.36-.2,.5l-.3,.4c-.1,.2-.1,.4,.1,.5s.3,.1,.5,.3c0,.06,.04,.1,.1,.1s.1-.04,.1-.1l.4-.5c.1-.14,.24-.25,.4-.3Z" fill="#fff"/>
      <path d="M317.9,83.1c.09,.77,.23,1.54,.4,2.3v1.1c-.09,.22-.09,.48,0,.7v.6c-.07,.08-.11,.19-.1,.3,.08,.24,.04,.49-.1,.7v.3c.03,.17,0,.35-.1,.5h0l-.3,.8-.3,.6h-.3c0,.1-.1,.2-.1,.3s-.1,.2-.2,.3l-.5,.4c0,.06-.04,.1-.1,.1h0v.2l-.6,.4h-.1l-.5,.2-.3,.2c-.33,.05-.64,.19-.9,.4l-.5,.2-.8,.2c-.2,.2-.5,.1-.8,.3,0,.06-.04,.1-.1,.1h0l-3.4,.6c-.3,.05-.6,.05-.9,0h-2.7c-.2,0-.2-.2-.2-.4l.4-.5,.9-1.4,.8-1.2,.8-1,.9-1.4c.21-.41,.48-.78,.8-1.1l.6-.9c.11-.25,.25-.48,.4-.7h.3c.1-.1,.2-.1,.1-.3-.01-.14,.02-.28,.1-.4l.6-.8c.29-.42,.56-.85,.8-1.3l.6-.8,1-1.5c.43-.69,.9-1.36,1.4-2,.3-.5,.7-1,1-1.6l.2-.2c.3-.1,.4,0,.5,.4,.07,.08,.11,.19,.1,.3l.3,.9c.11,.18,.18,.39,.2,.6l.3,.9c.1,1.1,.2,1.9,.4,2.6Z" fill="#fff"/>
      <path d="M266.9,66c-.11-.36-.18-.73-.2-1.1-.1-.5-.1-1.1-.2-1.6s0-.4,0-.6-.1-.6-.1-.9c0-.17,.03-.34,.1-.5v-.2c-.02-.34,.01-.67,.1-1,0-.1,.1-.1,0-.2,0-.11,.03-.22,.1-.3,.08-.19,.11-.39,.1-.6h0c.18-.31,.31-.65,.4-1,.1-.2,.2-.2,.4-.2h.1c.1-.1,0-.1,0-.2v-.3l.6-.6,.3-.2h0c.2-.4,.6-.4,.8-.7l.4-.2c.2-.04,.37-.15,.5-.3h.2c.36-.04,.71-.18,1-.4l.7-.2h.4l1.8-.5,.9-.2h.9l1.6-.2h1.3c.29,.1,.61,.1,.9,0h.2c.3,.1,.3,.2,.2,.4l-.5,.7c-.13,.34-.33,.65-.6,.9l-.6,.9-.5,.7c-.11,.25-.25,.48-.4,.7l-.8,1.1-.9,1.4-.5,.7c-.2,.28-.37,.58-.5,.9-.1,.1-.3,.2-.3,.3s-.1,.1-.2,.2-.2,.1-.2,.3,0,.2-.1,.2l-.8,1.2-.6,1c-.5,.7-1,1.4-1.4,2.1l-.9,1.3-.6,.9-.3,.4-.6,.9c0,.08-.04,.15-.1,.2-.1,.3-.4,.3-.6,.1-.21-.26-.35-.57-.4-.9-.07-.39-.21-.76-.4-1.1l-.3-1c-.19-.76-.32-1.52-.4-2.3Z" fill="#fff"/>
    </g>
    <path d="M280.5,91.4c7.17,4.62,15.47,7.18,24,7.4,3.34,.11,6.68-.29,9.9-1.2,2.7-.8,4.8-2,5.9-3.7s1.4-4.1,1.2-7c-.3-3.37-1.11-6.67-2.4-9.8-3.05-8.07-8.45-15.03-15.5-20-6.92-4.84-15.15-7.46-23.6-7.5-7.2,0-13.1,1.9-15.5,5.3-1.26,2.18-1.82,4.69-1.6,7.2,.22,3.36,.96,6.67,2.2,9.8,3.04,7.91,8.41,14.71,15.4,19.5Zm1-1.4c-6.76-4.54-11.93-11.08-14.8-18.7-1.2-2.96-1.91-6.11-2.1-9.3-.21-2.12,.25-4.25,1.3-6.1,1.7-2.5,7.2-4.6,14.1-4.6,8.09,.03,15.98,2.55,22.6,7.2,6.79,4.75,11.99,11.44,14.9,19.2,1.25,3,2.03,6.17,2.3,9.4,.27,2.04-.04,4.13-.9,6-.7,1.1-2.5,2.2-5,2.9-3.02,.88-6.16,1.25-9.3,1.1-8.2-.23-16.18-2.69-23.1-7.1Z" fill="#fff"/>
  </g>
  <g>
    <polygon points="310.2 24.2 301.2 20.8 309.2 13.5 309.2 13.5 310.2 24.2" fill="#ffcd05"/>
    <polygon points="314.8 24.2 305.7 20.8 313.7 13.5 313.7 13.5 314.8 24.2" fill="#ffcd05"/>
  </g>
  <rect x="12" y="148" width="103.5" height="25.17" fill="#ffcd05"/>
  <rect x="119.6" y="148" width="82.8" height="25.17" fill="#010101"/>
  <rect x="12" y="186.1" width="112.81" height="12.97" fill="#ffcd05"/>
  <g>
    <rect x="12" y="229.7" width="1.5" height="6.33" fill="#fff"/>
    <rect x="12" y="248.6" width="1.5" height="6.33" fill="#fff"/>
    <g>
      <path d="M12,277v-3.4c.03-.34,.17-.65,.4-.9,.63-.47,1.34-.81,2.1-1l2.1-.4,1.6-.2h4.6c.98,.07,1.95,.24,2.9,.5,.82,.15,1.6,.46,2.3,.9l.5,.5c.18,.19,.25,.45,.2,.7v6.7q0,.3-.2,.3h-6q-.2,0-.2-.3v-5.9q0-.2-.3-.2c-.93-.05-1.87-.05-2.8,0h-.6c-.2,0-.2,.1-.2,.2v6c0,.1,0,.2-.2,.2h-6q-.2,0-.2-.3v-3.4Zm5.1,1.4h0v-.8q0-.2-.2-.2h-.9q-.1,0-.1,.1v1.6q0,.1,.1,.1h1q.1,0,.1-.1v-.7Zm6.5,0h0v.8q0,.1,.1,.1h1q.1,0,.1-.1v-1.6q0-.1-.1-.1h-.9q-.2,0-.2,.2v.7Zm-9.1,.1v-.7q0-.2-.2-.2h-.8c-.1,.1-.2,.1-.2,.2v1.4c0,.1,.1,.1,.2,.1h.9q.1,0,.1-.1v-.7Zm11.7-.1v.8q0,.1,.2,.1h.8q.2,0,.2-.1v-1.3c0-.2,0-.3-.3-.3h-.8c-.1-.1-.1,0-.1,.1v.7Zm-1.4-3.1v-.7c0-.1,0-.2-.1-.2h-1c-.1,0-.1,.1-.1,.2v1.3q0,.2,.2,.2h.9c.06,0,.1-.04,.1-.1h0v-.7Zm-7.7-.1v-.6q0-.2-.2-.2h-.9q-.1,0-.1,.1v1.5q0,.1,.1,.1h1c.1,0,.1-.1,.1-.2v-.7Zm-2.6,.3v-.6c0-.1,0-.2-.1-.1l-.9,.2c-.2,0-.2,.1-.2,.2v.9q0,.2,.3,.2h.9v-.8Zm11.7,0v.6h1c.1,0,.2,0,.2-.1v-1.1h-.1l-1-.2c-.1-.1-.1,0-.1,.1v.7Z" fill="#fff"/>
      <path d="M19.3,268.4c.41,.03,.82,.13,1.2,.3,.41,.19,.85,.3,1.3,.3h.4q0-.1,.1,0c-.06,0-.1,.04-.1,.1h0c-.21,.3-.54,.52-.9,.6h-2.1l-.6,.3h-.2c-.1,0,0-.1,0-.2v-1.4c0-.1,0-.2,.1-.2l.8,.2Z" fill="#fff"/>
      <path d="M23.5,270v-.7c0-.11,.09-.2,.2-.2h0c.56-.02,1.11,.2,1.5,.6l1,.7h.5c-.18,.2-.43,.31-.7,.3-.48-.05-.94-.15-1.4-.3-.31-.03-.63,.04-.9,.2-.1,.1-.2,.1-.2-.1v-.5Z" fill="#fff"/>
      <path d="M13.9,270.5v-.7c0-.1,0-.2,.1-.2,.47-.12,.96-.09,1.4,.1l.5,.2c.34,.17,.72,.24,1.1,.2,0-.1,.1-.1,.1,0h0c-.27,.39-.72,.62-1.2,.6h-1c-.32,.07-.6,.25-.8,.5h-.2v-.7Z" fill="#fff"/>
    </g>
    <rect x="35.8" y="288.1" width="83.7" height=".47" fill="#fff"/>
  </g>
  <polygon points="239.4 297.8 234 306.1 239.4 314.3 335 314.3 335 297.8 239.4 297.8" fill="#ffcd05"/>
  <g>
    <polygon points="240.8 119.8 232 115.8 240.5 109 240.5 109 240.8 119.8" fill="#ffcd05"/>
    <polygon points="245.3 120.1 236.6 116.1 245 109.3 245 109.3 245.3 120.1" fill="#ffcd05"/>
  </g>
  <g>
    <polygon points="225.8 328.3 217 324.2 225.4 317.5 225.4 317.5 225.8 328.3" fill="#fff"/>
    <polygon points="230.3 328.6 221.5 324.5 229.9 317.8 229.9 317.8 230.3 328.6" fill="#fff"/>
  </g>
</svg>