<svg id="b89ea3ad-8bcb-4e9c-a3ff-45327d57c81c" data-name="Layer 1" xmlns="http://www.w3.org/2000/svg"
  width="335" height="335" viewBox="0 0 335 335">
  <defs>
    <clipPath id="af4ae1bf-14fa-4a24-8b34-20128ed680f4">
      <rect width="335" height="335" fill="none"/>
    </clipPath>
    <radialGradient id="f0192be0-1728-4906-851c-f5bb2a176eb8" cx="167.5" cy="167.5" r="167.5">
      <stop offset="0" stop-color="#fff"/>
      <stop offset="1" stop-color="#f1f2f2"/>
    </radialGradient>
  </defs>
  <g clip-path="url(#af4ae1bf-14fa-4a24-8b34-20128ed680f4)">
    <g>
      <rect width="335" height="335" fill="url(#f0192be0-1728-4906-851c-f5bb2a176eb8)"/>
      <rect width="76.8" height="335" fill="#ed1c24"/>
      <g>
        <path d="M95.9,191.4c4,3.1,4.2,4.9.5,10.3-1.4,2.2-.5,2.3,1.3,3,4.4,1.6,8.4.7,12.6-.6,8-2.7,16-2.4,24.1-.1a6.7,6.7,0,0,1,3.6,1.9,7.4,7.4,0,0,0,5.1,2.5c2,0,2.6,1.2,1.4,3s-1.7,2.7-2.8,4.4c1.5-.4,2-1.4,2.9-2s1.7-2.1,2.6-.9,3,3.2,1.2,4.6c-4.6,3.6-3.8,8.9-4.6,13.8,1-1.3,1.9-2.7,2.8-4.1s1.7-2.8,2.7-4.2,1.3-2.2,3-1.4,2.2,1.4,1.4,3.1c-1.7,3.5-3.2,7.1-5,11.1,2.7-.8,3.4-3.4,5.5-4.1.7.8.4,1.6.3,2.3-.3,3-1.2,5.9.1,9.1a5.2,5.2,0,0,1-2.5,6.8,2.7,2.7,0,0,0-1.3,3.5c.5,1.7-.3,2.5-1.7,1.4-3.9-2.9-7.6-1.1-11.4-.3a5,5,0,0,0-2.8,2.1l-3.4,4.8c-2.9,3.9-2.7,5.6,1.5,8.4,2.4,1.6,5,2.8,7.6,4.2s1.8.1,2.4-.9a9.5,9.5,0,0,1,4-4.2c1.8-.8.7-2.5-.3-3.4s-1.9-5.1-1.3-7.9.9-2,2.3-.9l17.1,12.8c2,1.5,1.9,3.8,2.3,5.8s1.1,3.7,3.6,4.4,6.5,5.8,7.2,9.5c-1.5.4-2.6-1.1-4.1-.9s.2,1.8.8,1.8c2.6.3,2.9,4.3,6.1,3.4.1,0,.3.4.4.6a8.4,8.4,0,0,1-8.3,11.7,30.7,30.7,0,0,0-8.6.7c-8.9,2-17.7,1.2-26.5.3s-16.7-1.8-25.1-2.2c-2.1-.1-3.4.2-2.6,2.6s-.2,2.5-1.2,3.4a27.1,27.1,0,0,0-4.8,5.3l6.1-2.7-9.6,9.7.7.7,10.6-4.8.4.6-4.9,8.9,4.7-2.7c-.1,2-1.7,3.1-2.2,4.8,4.6.8,3.9,4.8,5,7.8.4.9-.2,1.5-1.2,1.5H22c-4.3,0-4.5-.1-3.2-4,.8-2,.6-4.8,3.9-5.2.9-.1.3-.9.1-1.4s-1.6-1.9-1.8-3.3c1.8,0,2.6,1.6,4.5,2l-4.7-8.6.4-.5,9.6,4.3.4-.5-9.4-8.7.6-.6c2.4.2,4.3,2,7.5,2.8l-5.4-5.3c-1.2-1-1.9-2.1-1.4-3.8s-.4-2.5-2.3-2.4c-8.5.3-16.9,1.4-25.4,2.2s-18.6,1.7-27.9-.6a18.3,18.3,0,0,0-6.6-.4c-6.8.5-11.1-5.1-8.9-11.4.1-.3.4-.9.6-.8,3.3.6,3.6-3.5,6.3-3.9.3,0,.4-.8.6-1.2l-.7-.2c-1.3,0-2.7,1.7-3.5.7s.7-2.5,1.3-3.6c1.7-2.7,3.6-5.2,6.9-6.1a2.8,2.8,0,0,0,2.1-2.9c.4-4.5,2.8-7.4,6.5-9.9s8.6-6.3,12.8-9.5c1.8-1.4,2.4-1.1,2.8,1s.8,5.5-1.6,7.9-1.3,2.8.9,3.6,2.1,2.2,3,3.4,1.1,1.9,2.3,1.1c3.7-2.2,8.1-3.3,10.8-7.1.8-1.2,1-2.2.1-3.4s-3.3-4.6-5.1-6.9-9.2-4.2-13.1-2.3c-.8.4-1.6,1.2-2.4.8s-.3-1.6-.2-2.3a2.6,2.6,0,0,0-1.6-2.9,5.4,5.4,0,0,1-2.3-7.2c1.3-2.9.3-5.4.2-8.1-.1-1-.7-1.9.2-3,2,.9,3,3,5.6,4.5l-4.9-10.9c-.6-1.3-1.5-2.5.5-3.4s2.7-.3,3.7,1.2a74.3,74.3,0,0,0,5.6,8.2c-1-4.5.3-9.7-4.3-13.1-1.4-1.1-.8-4.4.6-5.4s1.3,0,1.8.4l1.9,1.5a3.4,3.4,0,0,0,1.9.9c-.9-1.3-1.7-2.7-2.7-4.1s-.5-3,1.6-3.1,3-.9,4.3-2c3.5-3,7.9-3.5,12.3-3.9a43.5,43.5,0,0,1,19.9,2.8c3.5,1.3,6.5-.2,9.6-1s.7-1.3.2-2-2-4.2-2.9-6.3a2.5,2.5,0,0,1,1.1-3.3L36,192c.9-.3,1.9-.9,2.6.4,1.6,3,3.2,6,3.8,9.6l-5.6-3.8c.7,2.1,2.3,2.5,3.4,3.4s3.8,2,4.6,4c3.1,7.6,10.4,12.2,14.2,19.2a1.3,1.3,0,0,0,.7.6,23.6,23.6,0,0,0,12.1.3c2.5-.6,2.7-2.9,3.9-4.5a6.3,6.3,0,0,1,1.7-1.9,21.7,21.7,0,0,0,5.6-6.1c1.5-2.1,3.5-4.1,4.3-6.6s3.6-2.8,3.2-6.1,2.2-5.3,3.5-7.9a2,2,0,0,1,1.9-1.2ZM-32.6,286.1c3.2.5,6,.3,8.4,1.6s5.7,2.8,8.6,4.3,5,2.7,8.1,1c.7-.4,1.7-.1,2.6-.1,7.6.7,15.1,1.6,22.3,4.1,2.2.8,4.4,1.3,6.6,1.9a3.4,3.4,0,0,0,4.3-3.4c.1-3.2,4.9-7.7,8.2-7.8a21.6,21.6,0,0,1,12.8,3.5c.8.5,2.1.9,2.7,0s-.8-1.5-1.6-1.9c-5.3-2.6-11.3-2.8-17-3.7-.9-.2-2.3.8-2.5-.7s.7-2.2,2.1-2.4c6.5-1,12.8-3.8,19.6-1.5a1.6,1.6,0,0,0,2.2-1c.4-1.2-.6-1.6-1.5-1.7-4.4-.6-8.8-1.7-13.2.1a14.6,14.6,0,0,1-6.1,1.3c-.7-.1-1.6.2-1.8-.7a1.3,1.3,0,0,1,.8-1.7c3.5-1.1,6.3-3.7,10.3-3.7s7.9-.6,11.9.4c1.6.4,3.3-.5,3.4-2s-1.8-1.2-2.8-1.2c-5.8.5-11.9-1.3-17.3,2a1.3,1.3,0,0,1-1.9-.2c-.6-.8.1-1.4.8-1.9,2.3-1.5,4.1-3.6,7.4-3.9s4.7-1,7.2-.1a2.3,2.3,0,0,0,3.2-1.4c.3-1.2-1.3-1-2.2-1.4s-.7-.3-.6-.8c6.4-3.1,23.6-3,28.4.3l-1.1.5c-.7.4-2.1.2-1.8,1.5s1.4,1.2,2.5,1.2h1.5c5.4-1,9.9.7,13.8,4.3.5.5,1.4,1.1.7,1.9s-1.5.4-2.2,0-2.9-1.8-4.7-1.8c-4.3.2-8.6-.6-12.9-.1-.8.1-2.1-.3-2.2.9s1,2,2.1,2.2a4.5,4.5,0,0,0,2.3-.2c4.3-1.1,8.6-.4,12.8.2s5.7,2.2,8.5,3.5a1.7,1.7,0,0,1,.9,1.7c-.2.9-1,.6-1.7.6a12.8,12.8,0,0,1-5.8-1.1c-4.5-2.1-9-1-13.6-.4-1,.2-2.1.5-1.7,1.9a1.6,1.6,0,0,0,2.4.8c3.6-1.7,7.1-.6,10.6-.2a70,70,0,0,1,9.1,1.9,2.4,2.4,0,0,1,1.9,2.3c0,.8-.7,1-1.3.9-3.3-.9-6.3.8-9.4,1a19.9,19.9,0,0,0-9.7,2.9c-.5.3-1.4.6-1,1.5s1.2.8,2,.5l1.6-.9A21.4,21.4,0,0,1,97,287.7c3,.1,7.6,4.6,7.6,7.6a3.6,3.6,0,0,0,4.8,3.4c4.3-1.1,8.6-2.7,13-3.5,6.8-1.3,13.7-3.3,20.9-1.4a2.5,2.5,0,0,0,1.7-.1c6.7-2.7,12.5-7.6,21-7.5l-3.6-3.1c-1.2-1-1.1-1.7.4-2.3s1.9-.2,1.7-1.3-1.3-1.1-2.1-1.4a5.5,5.5,0,0,0-3.8.6l-24.8,10.2c-4.4,1.8-8.7.3-13.8.3a7.2,7.2,0,0,1,4.2-1.6c2.8-.6,5.6-.7,8.1-2s3.4-2,.5-4.1-7.6-4.6-8.7-9.3c-.2-1-.3-3-2.2-2.4s-3.4,1.3-3.6,3.4a5,5,0,0,0-.1,1.7c.5,4.1-1.3,7.6-2.8,11.2a2.4,2.4,0,0,1-1.9,1.7,6.4,6.4,0,0,1-7.7-3.9c-.7-1.4-1-3-1.8-4.3-3.2-5.9-6.1-12-13.3-14.6a23.8,23.8,0,0,1-8.8-4.9c-4.4-4.3-10.1-4.6-15.6-4.8s-9.1.2-12.6,2.9-9.7,6-14.9,8.6a8.9,8.9,0,0,0-3.8,3.1c-3.1,4.4-6,8.7-7.6,13.9-.9,2.9-3.3,4-6.5,4.1s-3.3-2.1-4.2-4a20.2,20.2,0,0,1-1.9-9.9c.3-2.7-1.9-3.7-3.8-4.2s-1.9,1.7-2.2,2.8a13.7,13.7,0,0,1-5.9,7.1c-1.7,1.2-5,2-4.5,4s3.9,2.6,6.4,3.1l4.7.9a5.2,5.2,0,0,1,3.4,1.6c-5.1-.2-9.4,1.5-14-.5-8.2-3.6-16.5-6.8-24.8-10.2a4.6,4.6,0,0,0-4.8.2c-.6.4-1.4,1.1-.3,1.5,4.7,1.5,1.4,2.8,0,4.2S-31.8,285.3-32.6,286.1Zm153.8-62.3c-1-1.1-.7-1.9-.8-2.7s.5-2.2-.6-2.6-1.8.7-2.4,1.4c-3.3,3.3-7.4,4.4-11.9,4.3l-3.9.3c-2.6.4-6.6,6.4-5.8,8.9a1.4,1.4,0,0,0,.7.8c2.6.9,5.1,2.6,8,1.7l19.8-6.5c1.1-.3,2.1-.9,2.1-2.2v-9.7h-.6ZM6.7,217.3l-.7.2c0,2.8.1,5.6,0,8.3s.8,3.2,2.8,3.9l19,6.1c3.1,1.1,5.6-.9,8.3-1.6a.8.8,0,0,0,.6-1.1c-.7-2.7-1.3-5.4-2.9-7.6s-3.3-1.2-5-1.2c-5.5,0-10.5-.7-14.4-4.9-.5-.5-1.1-1.2-1.8-.9s-.4,1.4-.5,2.1.4,2.2-1,3.1Zm71.4,92.3c2.8.4,3.2-1.8,4.2-3.1s.7-2.2-1.1-2.6a61.7,61.7,0,0,0-29.9.1c-.5.1-1.2,0-1.3.8s3.2,5.2,5.3,4.7c4.4-1,8.9-.9,13.4-.9A45.9,45.9,0,0,1,78.1,309.6Zm-9.5-13c-1.6-1.2-2.7-2.5-.6-4.1l.3-.5c-3.2-1.4.7-4.2-1.2-6.1s.6-1.9,1.2-2.8c-3.1-1.7.4-4.4-1.2-6.6s1.5-3.4,0-5.2c-.1-.1.3-.7.6-.9s1.1-.5.2-1.1-1.2-1.9-.2-3,0-.8-.4-1.1-1.4-.1-2.1.3,0,.7.3,1,.1,2.1-.6,3.2,2,1.8.6,3.3l-.5.3c-.3.2-.6.5-.1.9,3,2-.9,5.1,1,7.4.1.1-.4.7-.7,1.1s-.9.5-.3.8c3.1,1.9-1.4,4.9,1.1,6.8.1.1-.6.8-.6,1.2.1,1.9,1.2,3.7-.4,5.5.1,0,.2,0,.2.1C66.5,299,67.4,297.2,68.6,296.6Z"/>
        <path d="M36,192l-1.3.6c-2.6-.9-2.8-3.1-1.7-4.9a8,8,0,0,0,1.1-5.6,21.4,21.4,0,0,1,1.6-9.7c2.5-5.7,5.1-11.2,10.1-15.6,7.8-6.8,16.7-7.7,26.5-6.7,7.2.8,12.5,4.2,17,9.2a34.2,34.2,0,0,1,8.6,16.9c.5,2.7,1.4,5.3.4,8.1-.4,1.1.4,1.8,1,2.6a4.2,4.2,0,0,1,.7,3.6c-.8,3.2-2.6,1.1-4.1.9h0c1-2.4-.5-2.4-2.3-2.4H40.9C38.7,189,35.8,188.2,36,192Zm58.1-7v-1H68.7a7.1,7.1,0,0,1,3.1-1.4c4.1-1.2,7.5-3.3,8.9-7.5s-1-11.5-6.2-14.8a14.4,14.4,0,0,0-17.3.7c-4.3,3.6-6.7,8.1-5.3,13.7s6,7.2,10.9,8.4c.6.1,1.5-.2,1.6,1.1H38.1v.8Zm-56.4-2.9c5.8-4.4,4.1-10.7,5.4-16.1A28.3,28.3,0,0,0,37.7,182.1Zm57.1-.1c.4-5-2-12.1-5.9-17.2a30.2,30.2,0,0,1,1.7,9.4C90.8,177.4,92.6,179.6,94.8,182Z"/>
        <path d="M66.5,190.7H90.4c2.6,0,3,.7,1.8,2.9s-3.4,6.5-5,9.9a4.6,4.6,0,0,1-3.7,2.6,102.4,102.4,0,0,1-33.6.1c-2.2-.4-3.8-1.3-4.7-3.4a97.6,97.6,0,0,0-4.7-9.1c-1.2-2.2-.7-3,1.8-3Z"/>
        <path d="M60.3,219.6l3.5.6c2.2.3,2.3,1.9,2.1,3.5s-1.7,1.3-3,1.2a4.5,4.5,0,0,1-4.3-3.4c-1.1-3.6-4.5-6.2-5.1-10.3s-.4-3.2,2.6-2.9l7.4.9c1,.1,2.2.2,2.3,1.5s.1,5,0,7.5-1,1.3-2,1.2S61.5,218.8,60.3,219.6Z"/>
        <path d="M72.3,219.7c-5.3-.6-5.3-.6-5.3-6s0-4.4,4.3-4.8l6.3-.6c1.6-.2,2.3.5,1.8,2s-1.2,5.7-3.6,7.9-1.5,2.5-2,3.9a3.6,3.6,0,0,1-3.4,2.7c-1.3.1-2.9,1.2-3.3-1.1s.1-3.5,2.6-3.6Z"/>
      </g>
    </g>
    <g>
      <g>
        <path d="M320.7,11c-.2,0-.3-.2-.3-.4a.3.3,0,0,1,.3-.3c.2,0,.4.1.4.3A.4.4,0,0,1,320.7,11Z"/>
        <path d="M320.6,13.2a.4.4,0,0,1-.3-.4c0-.2.2-.3.4-.3s.3.2.3.4A.4.4,0,0,1,320.6,13.2Z"/>
        <path d="M320.6,15.4c-.2,0-.4-.1-.4-.3a.4.4,0,0,1,.4-.4c.2,0,.3.2.3.4A.3.3,0,0,1,320.6,15.4Z"/>
        <path d="M320.5,17.7c-.2,0-.3-.2-.3-.4a.3.3,0,0,1,.3-.3c.2,0,.4.1.4.3A.4.4,0,0,1,320.5,17.7Z"/>
        <path d="M320.5,19.9a.4.4,0,0,1-.4-.4c0-.2.2-.3.4-.3s.3.2.3.4A.5.5,0,0,1,320.5,19.9Z"/>
        <path d="M320.4,22.1c-.2,0-.4-.1-.4-.3s.2-.4.4-.4.4.2.3.4A.3.3,0,0,1,320.4,22.1Z"/>
        <path d="M320.3,24.4c-.2,0-.3-.2-.3-.4a.3.3,0,0,1,.3-.3c.2,0,.4.1.4.3A.4.4,0,0,1,320.3,24.4Z"/>
        <path d="M320.3,26.6a.4.4,0,0,1-.4-.4c0-.2.2-.3.4-.3s.3.2.3.4A.3.3,0,0,1,320.3,26.6Z"/>
        <path d="M320.2,28.8c-.2,0-.4-.1-.3-.3s.1-.4.3-.4a.4.4,0,0,1,.4.4C320.5,28.7,320.4,28.8,320.2,28.8Z"/>
        <path d="M320.1,31.1c-.2,0-.3-.2-.3-.4a.3.3,0,0,1,.3-.3c.2,0,.4.1.4.3A.4.4,0,0,1,320.1,31.1Z"/>
        <path d="M320.1,33.3a.4.4,0,0,1-.4-.4c0-.2.2-.3.4-.3s.3.2.3.4A.3.3,0,0,1,320.1,33.3Z"/>
        <path d="M320,35.5a.3.3,0,0,1-.3-.3c0-.2.1-.4.3-.4a.4.4,0,0,1,.4.4C320.4,35.4,320.2,35.5,320,35.5Z"/>
        <path d="M319.1,10.9a.5.5,0,0,1-.3-.3.4.4,0,0,1,.4-.4c.2,0,.3.2.3.4S319.3,10.9,319.1,10.9Z"/>
        <path d="M319.1,13.1c-.2,0-.4-.1-.4-.3a.4.4,0,0,1,.4-.4c.2.1.4.2.3.4S319.3,13.2,319.1,13.1Z"/>
        <path d="M319,15.4c-.2,0-.3-.2-.3-.4a.3.3,0,0,1,.3-.3c.2,0,.4.1.4.3A.4.4,0,0,1,319,15.4Z"/>
        <path d="M319,17.6a.4.4,0,0,1-.4-.3.4.4,0,0,1,.4-.4c.2,0,.3.2.3.4A.3.3,0,0,1,319,17.6Z"/>
        <path d="M318.9,19.8c-.2,0-.4-.1-.4-.3s.2-.4.4-.4.4.2.4.4S319.1,19.9,318.9,19.8Z"/>
        <path d="M318.8,22.1c-.2,0-.3-.2-.3-.4a.3.3,0,0,1,.3-.3c.2,0,.4.1.4.3A.4.4,0,0,1,318.8,22.1Z"/>
        <path d="M318.8,24.3a.4.4,0,0,1-.4-.3.4.4,0,0,1,.4-.4c.2,0,.3.2.3.4A.3.3,0,0,1,318.8,24.3Z"/>
        <path d="M318.7,26.5c-.2,0-.4-.1-.3-.3s.1-.4.3-.4.4.2.4.4S318.9,26.6,318.7,26.5Z"/>
        <path d="M318.6,28.8c-.2,0-.3-.2-.3-.4s.2-.3.4-.3a.3.3,0,0,1,.3.3A.4.4,0,0,1,318.6,28.8Z"/>
        <path d="M318.6,31a.4.4,0,0,1-.4-.3.4.4,0,0,1,.4-.4c.2,0,.3.2.3.4A.3.3,0,0,1,318.6,31Z"/>
        <path d="M318.5,33.2a.3.3,0,0,1-.3-.3c0-.2.1-.4.3-.4s.4.2.4.4S318.7,33.3,318.5,33.2Z"/>
        <circle cx="318.4" cy="35.1" r="0.4" transform="translate(214.3 338.1) rotate(-77.3)"/>
        <path d="M317.6,10.9a.4.4,0,0,1-.4-.4c.1-.2.2-.3.4-.3s.4.1.3.3S317.8,10.9,317.6,10.9Z"/>
        <path d="M317.5,13.1c-.2,0-.3-.2-.3-.4a.3.3,0,0,1,.3-.3.4.4,0,0,1,.4.4C317.9,13,317.7,13.1,317.5,13.1Z"/>
        <path d="M317.5,15.3c-.2,0-.4-.1-.4-.3a.4.4,0,0,1,.4-.4c.2,0,.3.2.3.4A.3.3,0,0,1,317.5,15.3Z"/>
        <path d="M317.4,17.6c-.2,0-.4-.2-.3-.4a.3.3,0,0,1,.3-.3c.2,0,.4.1.4.3S317.6,17.6,317.4,17.6Z"/>
        <path d="M317.3,19.8c-.2,0-.3-.2-.3-.4a.3.3,0,0,1,.3-.3.4.4,0,0,1,.4.4C317.7,19.7,317.5,19.8,317.3,19.8Z"/>
        <path d="M317.3,22c-.2,0-.4-.1-.4-.3a.4.4,0,0,1,.4-.4c.2,0,.3.2.3.4A.3.3,0,0,1,317.3,22Z"/>
        <path d="M317.2,24.3c-.2,0-.3-.2-.3-.4a.3.3,0,0,1,.3-.3c.2,0,.4.1.4.3A.4.4,0,0,1,317.2,24.3Z"/>
        <path d="M317.1,26.5c-.2,0-.3-.2-.3-.4s.2-.3.4-.3a.4.4,0,0,1,.3.4C317.5,26.4,317.3,26.5,317.1,26.5Z"/>
        <path d="M317.1,28.7c-.2,0-.4-.1-.4-.3a.4.4,0,0,1,.4-.4c.2,0,.3.2.3.4A.3.3,0,0,1,317.1,28.7Z"/>
        <path d="M317,31c-.2,0-.3-.2-.3-.4a.3.3,0,0,1,.3-.3c.2,0,.4.1.4.3A.4.4,0,0,1,317,31Z"/>
        <path d="M316.9,33.2c-.2,0-.3-.2-.3-.4s.2-.3.4-.3.3.2.3.4S317.1,33.2,316.9,33.2Z"/>
        <path d="M316.9,35.4c-.2,0-.4-.1-.4-.3a.4.4,0,0,1,.4-.4c.2,0,.3.2.3.4A.3.3,0,0,1,316.9,35.4Z"/>
        <path d="M316,10.8a.3.3,0,0,1-.3-.3c0-.2.1-.4.3-.4a.4.4,0,0,1,.4.4C316.4,10.7,316.2,10.8,316,10.8Z"/>
        <path d="M316,13.1a.4.4,0,0,1-.4-.4c0-.2.2-.3.4-.3a.3.3,0,0,1,.3.3C316.3,12.9,316.2,13.1,316,13.1Z"/>
        <path d="M315.9,15.3c-.2,0-.4-.2-.3-.4a.3.3,0,0,1,.3-.3.4.4,0,0,1,.4.4C316.2,15.1,316.1,15.3,315.9,15.3Z"/>
        <path d="M315.8,17.5a.3.3,0,0,1-.3-.3.4.4,0,0,1,.3-.4.4.4,0,0,1,.4.4C316.2,17.4,316,17.5,315.8,17.5Z"/>
        <path d="M315.8,19.8a.4.4,0,0,1-.4-.4c0-.2.2-.4.4-.3a.3.3,0,0,1,.3.3C316.1,19.6,316,19.8,315.8,19.8Z"/>
        <path d="M315.7,22c-.2,0-.3-.2-.3-.4a.3.3,0,0,1,.3-.3.4.4,0,0,1,.4.4A.4.4,0,0,1,315.7,22Z"/>
        <path d="M315.6,24.2a.3.3,0,0,1-.3-.3.4.4,0,0,1,.4-.4.4.4,0,0,1,.3.4C316,24.1,315.8,24.2,315.6,24.2Z"/>
        <path d="M315.6,26.5a.4.4,0,0,1-.4-.4c0-.2.2-.4.4-.3a.3.3,0,0,1,.3.3C315.9,26.3,315.8,26.5,315.6,26.5Z"/>
        <path d="M315.5,28.7c-.2,0-.3-.2-.3-.4a.3.3,0,0,1,.3-.3.4.4,0,0,1,.4.3A.4.4,0,0,1,315.5,28.7Z"/>
        <path d="M315.4,30.9a.3.3,0,0,1-.3-.3.4.4,0,0,1,.4-.4c.2,0,.3.2.3.4S315.6,30.9,315.4,30.9Z"/>
        <path d="M315.4,33.2a.4.4,0,0,1-.4-.4c0-.2.2-.4.4-.3a.3.3,0,0,1,.3.3C315.7,33,315.6,33.2,315.4,33.2Z"/>
        <path d="M315.3,35.4c-.2,0-.3-.2-.3-.4a.3.3,0,0,1,.3-.3.4.4,0,0,1,.4.3A.4.4,0,0,1,315.3,35.4Z"/>
        <path d="M314.5,10.8a.4.4,0,0,1-.4-.4c0-.2.2-.3.4-.3a.3.3,0,0,1,.3.3C314.8,10.6,314.7,10.8,314.5,10.8Z"/>
        <path d="M314.4,13c-.2,0-.4-.2-.3-.3s.1-.4.3-.4a.4.4,0,0,1,.4.4C314.8,12.9,314.6,13,314.4,13Z"/>
        <path d="M314.3,15.2a.3.3,0,0,1-.3-.3.4.4,0,0,1,.4-.4.4.4,0,0,1,.3.4C314.7,15.1,314.5,15.3,314.3,15.2Z"/>
        <path d="M314.3,17.5a.4.4,0,0,1-.4-.4c0-.2.2-.3.4-.3a.3.3,0,0,1,.3.3C314.6,17.3,314.5,17.5,314.3,17.5Z"/>
        <path d="M314.2,19.7a.3.3,0,0,1-.3-.3c0-.2.1-.4.3-.4a.4.4,0,0,1,.4.4C314.6,19.6,314.4,19.7,314.2,19.7Z"/>
        <path d="M314.1,21.9a.3.3,0,0,1-.3-.3.4.4,0,0,1,.4-.4.4.4,0,0,1,.3.4C314.5,21.8,314.3,22,314.1,21.9Z"/>
        <path d="M314.1,24.2a.4.4,0,0,1-.4-.4c0-.2.2-.3.4-.3a.3.3,0,0,1,.3.3C314.4,24,314.3,24.2,314.1,24.2Z"/>
        <path d="M314,26.4a.3.3,0,0,1-.3-.3c0-.2.1-.4.3-.4a.4.4,0,0,1,.4.4C314.4,26.3,314.2,26.4,314,26.4Z"/>
        <path d="M313.9,28.6a.3.3,0,0,1-.3-.3.4.4,0,0,1,.4-.4c.2,0,.3.2.3.4S314.1,28.7,313.9,28.6Z"/>
        <path d="M313.9,30.9a.4.4,0,0,1-.4-.4c0-.2.2-.3.4-.3a.3.3,0,0,1,.3.3C314.2,30.7,314.1,30.9,313.9,30.9Z"/>
        <path d="M313.8,33.1a.3.3,0,0,1-.3-.3c0-.2.1-.4.3-.4a.4.4,0,0,1,.4.4C314.2,33,314,33.1,313.8,33.1Z"/>
        <circle cx="313.8" cy="35" r="0.4" transform="translate(210.8 333.4) rotate(-77.3)"/>
        <path d="M312.9,10.7a.3.3,0,0,1-.3-.3c0-.2.1-.4.3-.4a.4.4,0,0,1,.4.4C313.3,10.6,313.1,10.7,312.9,10.7Z"/>
        <path d="M312.8,13c-.2,0-.3-.2-.3-.4s.2-.3.4-.3a.3.3,0,0,1,.3.3A.4.4,0,0,1,312.8,13Z"/>
        <path d="M312.8,15.2a.4.4,0,0,1-.4-.4c0-.2.2-.3.4-.3s.3.2.3.4A.3.3,0,0,1,312.8,15.2Z"/>
        <path d="M312.7,17.4a.3.3,0,0,1-.3-.3c0-.2.1-.4.3-.4a.4.4,0,0,1,.4.4C313.1,17.3,312.9,17.4,312.7,17.4Z"/>
        <path d="M312.6,19.7c-.2,0-.3-.2-.3-.4s.2-.3.4-.3a.3.3,0,0,1,.3.3A.4.4,0,0,1,312.6,19.7Z"/>
        <path d="M312.6,21.9a.4.4,0,0,1-.4-.4c0-.2.2-.3.4-.3s.3.2.3.4A.3.3,0,0,1,312.6,21.9Z"/>
        <path d="M312.5,24.1a.3.3,0,0,1-.3-.3c0-.2.1-.4.3-.4a.4.4,0,0,1,.4.4C312.9,24,312.7,24.1,312.5,24.1Z"/>
        <path d="M312.4,26.4c-.2,0-.3-.2-.3-.4s.2-.3.4-.3a.3.3,0,0,1,.3.3A.4.4,0,0,1,312.4,26.4Z"/>
        <path d="M312.4,28.6a.4.4,0,0,1-.4-.4c0-.2.2-.3.4-.3s.3.2.3.4A.3.3,0,0,1,312.4,28.6Z"/>
        <path d="M312.3,30.8a.3.3,0,0,1-.3-.3c0-.2.1-.4.3-.4a.4.4,0,0,1,.4.4C312.7,30.7,312.5,30.8,312.3,30.8Z"/>
        <path d="M312.2,33.1a.4.4,0,0,1-.3-.4c0-.2.2-.3.4-.3a.3.3,0,0,1,.3.3A.4.4,0,0,1,312.2,33.1Z"/>
        <path d="M312.2,35.3a.4.4,0,0,1-.4-.4c0-.2.2-.3.4-.3s.3.2.3.4A.3.3,0,0,1,312.2,35.3Z"/>
        <path d="M311.3,10.7c-.2,0-.3-.2-.3-.4s.2-.3.4-.3a.5.5,0,0,1,.3.3A.4.4,0,0,1,311.3,10.7Z"/>
        <path d="M311.3,12.9c-.2,0-.4-.1-.4-.3a.4.4,0,0,1,.4-.4c.2,0,.3.2.3.4A.3.3,0,0,1,311.3,12.9Z"/>
        <path d="M311.2,15.2c-.2-.1-.3-.2-.3-.4s.1-.4.3-.3.4.1.4.3A.4.4,0,0,1,311.2,15.2Z"/>
        <path d="M311.1,17.4c-.2,0-.3-.2-.3-.4s.2-.3.4-.3a.3.3,0,0,1,.3.3A.4.4,0,0,1,311.1,17.4Z"/>
        <path d="M311.1,19.6c-.2,0-.4-.1-.4-.3a.4.4,0,0,1,.4-.4c.2,0,.3.2.3.4A.3.3,0,0,1,311.1,19.6Z"/>
        <path d="M311,21.9c-.2-.1-.3-.2-.3-.4s.1-.4.3-.3.4.1.4.3A.4.4,0,0,1,311,21.9Z"/>
        <path d="M310.9,24.1c-.2,0-.3-.2-.3-.4s.2-.3.4-.3a.3.3,0,0,1,.3.3A.4.4,0,0,1,310.9,24.1Z"/>
        <path d="M310.9,26.3c-.2,0-.4-.1-.4-.3a.4.4,0,0,1,.4-.4c.2,0,.3.2.3.4A.3.3,0,0,1,310.9,26.3Z"/>
        <path d="M310.8,28.6c-.2-.1-.3-.2-.3-.4s.1-.4.3-.3.4.1.4.3A.4.4,0,0,1,310.8,28.6Z"/>
        <path d="M310.7,30.8a.4.4,0,0,1-.3-.4c0-.2.2-.3.4-.3a.3.3,0,0,1,.3.3A.4.4,0,0,1,310.7,30.8Z"/>
        <path d="M310.7,33c-.2,0-.4-.1-.4-.3a.4.4,0,0,1,.4-.4c.2,0,.4.2.3.4A.3.3,0,0,1,310.7,33Z"/>
        <path d="M310.6,35.3c-.2-.1-.3-.2-.3-.4s.1-.4.3-.3.4.1.4.3A.4.4,0,0,1,310.6,35.3Z"/>
        <path d="M309.8,10.6c-.2,0-.4-.1-.4-.3a.4.4,0,0,1,.4-.4c.2,0,.3.2.3.4A.3.3,0,0,1,309.8,10.6Z"/>
        <path d="M309.7,12.9c-.2,0-.3-.2-.3-.4a.3.3,0,0,1,.3-.3c.2,0,.4.1.4.3A.4.4,0,0,1,309.7,12.9Z"/>
        <path d="M309.6,15.1c-.2,0-.3-.2-.3-.4a.4.4,0,0,1,.4-.3c.2,0,.3.2.3.4S309.8,15.1,309.6,15.1Z"/>
        <path d="M309.6,17.3c-.2,0-.4-.1-.4-.3a.4.4,0,0,1,.4-.4c.2,0,.3.2.3.4A.3.3,0,0,1,309.6,17.3Z"/>
        <path d="M309.5,19.6c-.2,0-.3-.2-.3-.4a.3.3,0,0,1,.3-.3c.2,0,.4.1.4.3A.4.4,0,0,1,309.5,19.6Z"/>
        <path d="M309.4,21.8a.4.4,0,0,1,.1-.7c.2,0,.3.2.3.4S309.6,21.8,309.4,21.8Z"/>
        <path d="M309.4,24c-.2,0-.4-.1-.4-.3a.4.4,0,0,1,.4-.4c.2,0,.3.2.3.4A.3.3,0,0,1,309.4,24Z"/>
        <circle cx="309.3" cy="25.9" r="0.4" transform="translate(216.1 322) rotate(-77.3)"/>
        <path d="M309.3,28.5a.4.4,0,0,1-.4-.4.4.4,0,0,1,.4-.3c.2,0,.3.2.3.4A.3.3,0,0,1,309.3,28.5Z"/>
        <path d="M309.2,30.7c-.2,0-.4-.1-.4-.3s.2-.4.4-.4.4.2.3.4A.3.3,0,0,1,309.2,30.7Z"/>
        <path d="M309.1,33c-.2,0-.3-.2-.3-.4a.3.3,0,0,1,.3-.3c.2,0,.4.1.4.3A.4.4,0,0,1,309.1,33Z"/>
        <path d="M309.1,35.2a.4.4,0,0,1-.4-.4.4.4,0,0,1,.4-.3c.2,0,.3.2.3.4A.3.3,0,0,1,309.1,35.2Z"/>
        <path d="M308.2,10.6c-.2,0-.3-.2-.3-.4a.3.3,0,0,1,.3-.3.4.4,0,0,1,.4.4C308.6,10.5,308.4,10.6,308.2,10.6Z"/>
        <path d="M308.1,12.8a.3.3,0,0,1-.3-.3.4.4,0,0,1,.4-.4c.2,0,.3.2.3.4S308.3,12.8,308.1,12.8Z"/>
        <path d="M308.1,15.1a.4.4,0,0,1-.4-.4c0-.2.2-.3.4-.3a.3.3,0,0,1,.3.3C308.4,14.9,308.3,15.1,308.1,15.1Z"/>
        <path d="M308,17.3c-.2,0-.3-.2-.3-.4a.3.3,0,0,1,.3-.3.4.4,0,0,1,.4.4C308.4,17.2,308.2,17.3,308,17.3Z"/>
        <path d="M307.9,19.5a.3.3,0,0,1-.3-.3.4.4,0,0,1,.4-.4c.2,0,.3.2.3.4S308.1,19.5,307.9,19.5Z"/>
        <path d="M307.9,21.8a.4.4,0,0,1-.4-.4c0-.2.2-.3.4-.3a.3.3,0,0,1,.3.3C308.2,21.6,308.1,21.8,307.9,21.8Z"/>
        <path d="M307.8,24c-.2,0-.3-.2-.3-.4a.3.3,0,0,1,.3-.3.4.4,0,0,1,.4.4A.4.4,0,0,1,307.8,24Z"/>
        <circle cx="307.8" cy="25.9" r="0.4" transform="translate(205.4 317.3) rotate(-75.4)"/>
        <path d="M307.7,28.5a.4.4,0,0,1-.4-.4c.1-.2.2-.3.4-.3s.4.1.3.3S307.9,28.5,307.7,28.5Z"/>
        <path d="M307.6,30.7c-.2,0-.3-.2-.3-.4a.3.3,0,0,1,.3-.3.4.4,0,0,1,.4.4A.4.4,0,0,1,307.6,30.7Z"/>
        <path d="M307.6,32.9c-.2,0-.4-.1-.4-.3a.4.4,0,0,1,.4-.4c.2,0,.3.2.3.4A.3.3,0,0,1,307.6,32.9Z"/>
        <path d="M307.5,35.2c-.2,0-.4-.2-.3-.4a.3.3,0,0,1,.3-.3c.2,0,.4.1.4.3S307.7,35.2,307.5,35.2Z"/>
        <path d="M306.6,10.6c-.2-.1-.3-.2-.3-.4a.4.4,0,0,1,.4-.4c.2.1.3.2.3.4A.4.4,0,0,1,306.6,10.6Z"/>
        <path d="M306.6,12.8a.4.4,0,0,1-.4-.4c0-.2.2-.3.4-.3a.3.3,0,0,1,.3.3C306.9,12.6,306.8,12.8,306.6,12.8Z"/>
        <path d="M306.5,15a.3.3,0,0,1-.3-.3c0-.2.1-.4.3-.4a.4.4,0,0,1,.4.4C306.9,14.9,306.7,15,306.5,15Z"/>
        <path d="M306.4,17.3c-.1-.1-.3-.2-.3-.4a.4.4,0,0,1,.4-.4c.2.1.3.2.3.4A.4.4,0,0,1,306.4,17.3Z"/>
        <path d="M306.4,19.5a.4.4,0,0,1-.4-.4c0-.2.2-.3.4-.3s.4.2.3.3S306.6,19.5,306.4,19.5Z"/>
        <path d="M306.3,21.7a.3.3,0,0,1-.3-.3c0-.2.1-.4.3-.4a.4.4,0,0,1,.4.4C306.7,21.6,306.5,21.7,306.3,21.7Z"/>
        <path d="M306.3,24c-.2-.1-.4-.2-.4-.4a.4.4,0,0,1,.4-.4c.2.1.3.2.3.4A.4.4,0,0,1,306.3,24Z"/>
        <path d="M306.2,26.2a.4.4,0,0,1-.4-.4c.1-.2.2-.3.4-.3s.4.2.3.3S306.4,26.2,306.2,26.2Z"/>
        <path d="M306.1,28.4a.3.3,0,0,1-.3-.3.4.4,0,0,1,.3-.4.4.4,0,0,1,.4.4C306.5,28.3,306.3,28.4,306.1,28.4Z"/>
        <path d="M306.1,30.7c-.2-.1-.4-.2-.4-.4a.4.4,0,0,1,.4-.4c.2.1.3.2.3.4S306.3,30.7,306.1,30.7Z"/>
        <path d="M306,32.9c-.2,0-.4-.2-.3-.4a.3.3,0,0,1,.3-.3c.2,0,.4.1.4.3S306.2,32.9,306,32.9Z"/>
        <path d="M305.9,35.1a.3.3,0,0,1-.3-.3.4.4,0,0,1,.3-.4.4.4,0,0,1,.4.4C306.3,35,306.1,35.1,305.9,35.1Z"/>
        <path d="M305.1,10.5a.4.4,0,0,1-.4-.4.4.4,0,0,1,.4-.3c.2,0,.3.2.3.4A.3.3,0,0,1,305.1,10.5Z"/>
        <path d="M305,12.7a.3.3,0,0,1-.3-.3c0-.2.1-.4.3-.4a.4.4,0,0,1,.4.4C305.4,12.6,305.2,12.7,305,12.7Z"/>
        <path d="M305,15a.4.4,0,0,1-.4-.4c0-.2.2-.3.4-.3a.3.3,0,0,1,.3.3A.4.4,0,0,1,305,15Z"/>
        <path d="M304.9,17.2a.4.4,0,0,1-.4-.4c.1-.1.2-.3.4-.3s.4.2.3.4A.3.3,0,0,1,304.9,17.2Z"/>
        <path d="M304.8,19.4a.3.3,0,0,1-.3-.3c0-.2.1-.4.3-.4a.4.4,0,0,1,.4.4C305.2,19.3,305,19.4,304.8,19.4Z"/>
        <path d="M304.8,21.7a.4.4,0,0,1-.4-.4c0-.2.2-.3.4-.3a.3.3,0,0,1,.3.3A.4.4,0,0,1,304.8,21.7Z"/>
        <path d="M304.7,23.9a.4.4,0,0,1-.4-.4c.1-.1.2-.3.4-.3a.4.4,0,0,1,.4.4C305,23.8,304.9,23.9,304.7,23.9Z"/>
        <path d="M304.6,26.1a.3.3,0,0,1-.3-.3.4.4,0,0,1,.3-.4.4.4,0,0,1,.4.4C305,26,304.8,26.1,304.6,26.1Z"/>
        <path d="M304.6,28.4a.4.4,0,0,1-.4-.4c0-.2.2-.3.4-.3a.3.3,0,0,1,.3.3C304.9,28.2,304.8,28.4,304.6,28.4Z"/>
        <path d="M304.5,30.6c-.2,0-.4-.2-.3-.4a.3.3,0,0,1,.3-.3.4.4,0,0,1,.4.4C304.9,30.5,304.7,30.6,304.5,30.6Z"/>
        <path d="M304.4,32.8a.3.3,0,0,1-.3-.3.4.4,0,0,1,.4-.4.4.4,0,0,1,.3.4C304.8,32.7,304.6,32.8,304.4,32.8Z"/>
        <path d="M304.4,35.1a.4.4,0,0,1-.4-.4c0-.2.2-.3.4-.3a.3.3,0,0,1,.3.3C304.7,34.9,304.6,35.1,304.4,35.1Z"/>
        <path d="M303.5,10.5c-.2,0-.3-.2-.3-.4a.3.3,0,0,1,.3-.3c.2,0,.4.1.4.3A.4.4,0,0,1,303.5,10.5Z"/>
        <path d="M303.5,12.7a.4.4,0,0,1-.4-.4c0-.2.2-.3.4-.3s.3.2.3.4A.5.5,0,0,1,303.5,12.7Z"/>
        <path d="M303.4,14.9c-.2,0-.4-.1-.4-.3s.2-.4.4-.4.4.2.3.4A.3.3,0,0,1,303.4,14.9Z"/>
        <path d="M303.3,17.2c-.2,0-.3-.2-.3-.4a.3.3,0,0,1,.3-.3c.2,0,.4.1.4.3A.4.4,0,0,1,303.3,17.2Z"/>
        <path d="M303.3,19.4a.4.4,0,0,1-.4-.4c0-.2.2-.3.4-.3s.3.2.3.4A.3.3,0,0,1,303.3,19.4Z"/>
        <path d="M303.2,21.6c-.2,0-.4-.1-.3-.3s.1-.4.3-.4a.4.4,0,0,1,.4.4C303.5,21.5,303.4,21.6,303.2,21.6Z"/>
        <path d="M303.1,23.9c-.2,0-.3-.2-.3-.4a.3.3,0,0,1,.3-.3c.2,0,.4.1.4.3A.4.4,0,0,1,303.1,23.9Z"/>
        <path d="M303.1,26.1a.4.4,0,0,1-.4-.4c0-.2.2-.3.4-.3s.3.2.3.4A.3.3,0,0,1,303.1,26.1Z"/>
        <path d="M303,28.3a.3.3,0,0,1-.3-.3c0-.2.1-.4.3-.4a.4.4,0,0,1,.4.4C303.4,28.2,303.2,28.3,303,28.3Z"/>
        <path d="M302.9,30.6c-.2,0-.3-.2-.3-.4s.2-.3.4-.3a.3.3,0,0,1,.3.3A.4.4,0,0,1,302.9,30.6Z"/>
        <path d="M302.9,32.8a.4.4,0,0,1-.4-.4c0-.2.2-.3.4-.3s.3.2.3.4A.3.3,0,0,1,302.9,32.8Z"/>
        <path d="M302.8,35a.3.3,0,0,1-.3-.3c0-.2.1-.4.3-.4a.4.4,0,0,1,.4.4C303.2,34.9,303,35,302.8,35Z"/>
        <circle cx="302" cy="10.1" r="0.4" transform="translate(219.6 300.7) rotate(-76.1)"/>
        <path d="M301.9,12.6c-.2,0-.4-.1-.4-.3s.2-.4.4-.4.4.2.3.4S302.1,12.7,301.9,12.6Z"/>
        <path d="M301.8,14.9c-.2,0-.3-.2-.3-.4a.3.3,0,0,1,.3-.3c.2,0,.4.1.4.3A.4.4,0,0,1,301.8,14.9Z"/>
        <path d="M301.8,17.1a.4.4,0,0,1-.4-.3.4.4,0,0,1,.4-.4c.2,0,.3.2.3.4A.3.3,0,0,1,301.8,17.1Z"/>
        <path d="M301.7,19.3c-.2,0-.4-.1-.3-.3s.1-.4.3-.4.4.2.4.4S301.9,19.4,301.7,19.3Z"/>
        <path d="M301.6,21.6c-.2,0-.3-.2-.3-.4a.3.3,0,0,1,.3-.3c.2,0,.4.1.4.3A.4.4,0,0,1,301.6,21.6Z"/>
        <path d="M301.6,23.8a.4.4,0,0,1-.4-.3.4.4,0,0,1,.4-.4c.2,0,.3.2.3.4A.3.3,0,0,1,301.6,23.8Z"/>
        <path d="M301.5,26a.3.3,0,0,1-.3-.3c0-.2.1-.4.3-.4s.4.2.4.4S301.7,26.1,301.5,26Z"/>
        <path d="M301.4,28.3c-.2,0-.3-.2-.3-.4s.2-.3.4-.3a.3.3,0,0,1,.3.3A.4.4,0,0,1,301.4,28.3Z"/>
        <path d="M301.4,30.5a.4.4,0,0,1-.4-.3.4.4,0,0,1,.4-.4c.2,0,.3.2.3.4A.3.3,0,0,1,301.4,30.5Z"/>
        <path d="M301.3,32.7a.3.3,0,0,1-.3-.3c0-.2.1-.4.3-.4s.4.2.4.4S301.5,32.8,301.3,32.7Z"/>
        <path d="M301.2,35c-.2,0-.3-.2-.3-.4s.2-.3.4-.3a.3.3,0,0,1,.3.3A.4.4,0,0,1,301.2,35Z"/>
        <path d="M300.4,10.4a.4.4,0,0,1-.4-.4c.1-.2.2-.3.4-.3s.4.1.4.3S300.6,10.4,300.4,10.4Z"/>
        <path d="M300.3,12.6c-.2,0-.3-.2-.3-.4a.3.3,0,0,1,.3-.3.4.4,0,0,1,.4.4C300.7,12.5,300.5,12.6,300.3,12.6Z"/>
        <path d="M300.3,14.8c-.2,0-.4-.1-.4-.3a.4.4,0,0,1,.4-.4c.2,0,.3.2.3.4A.3.3,0,0,1,300.3,14.8Z"/>
        <path d="M300.2,17.1c-.2,0-.4-.2-.3-.4a.3.3,0,0,1,.3-.3c.2,0,.4.1.4.3A.4.4,0,0,1,300.2,17.1Z"/>
        <path d="M300.1,19.3c-.2,0-.3-.2-.3-.4s.2-.3.4-.3a.4.4,0,0,1,.3.4C300.5,19.2,300.3,19.3,300.1,19.3Z"/>
        <path d="M300.1,21.5c-.2,0-.4-.1-.4-.3a.4.4,0,0,1,.4-.4c.2,0,.3.2.3.4A.3.3,0,0,1,300.1,21.5Z"/>
        <path d="M300,23.8c-.2,0-.3-.2-.3-.4a.3.3,0,0,1,.3-.3c.2,0,.4.1.4.3A.4.4,0,0,1,300,23.8Z"/>
        <path d="M299.9,26c-.2,0-.3-.2-.3-.4s.2-.3.4-.3a.4.4,0,0,1,.3.4C300.3,25.9,300.1,26,299.9,26Z"/>
        <path d="M299.9,28.2c-.2,0-.4-.1-.4-.3a.4.4,0,0,1,.4-.4c.2,0,.3.2.3.4A.3.3,0,0,1,299.9,28.2Z"/>
        <path d="M299.8,30.5c-.2,0-.3-.2-.3-.4a.3.3,0,0,1,.3-.3c.2,0,.4.1.4.3A.4.4,0,0,1,299.8,30.5Z"/>
        <path d="M299.7,32.7c-.2,0-.3-.2-.3-.4s.2-.3.4-.3.3.2.3.4S299.9,32.7,299.7,32.7Z"/>
        <path d="M299.7,34.9c-.2,0-.4-.1-.4-.3a.4.4,0,0,1,.4-.4c.2,0,.3.2.3.4A.3.3,0,0,1,299.7,34.9Z"/>
      </g>
      <g>
        <path d="M165.2,317.7a.4.4,0,0,1-.4-.4c0-.2.2-.3.4-.3a.3.3,0,0,1,.3.3C165.5,317.5,165.4,317.7,165.2,317.7Z" fill="#ed1c24"/>
        <path d="M165.1,319.9a.3.3,0,0,1-.3-.3c0-.2.1-.4.3-.4a.4.4,0,0,1,.4.4C165.5,319.8,165.3,319.9,165.1,319.9Z" fill="#ed1c24"/>
        <path d="M165.1,322.1c-.2,0-.4-.1-.4-.3a.4.4,0,0,1,.4-.4c.2.1.3.2.3.4S165.2,322.2,165.1,322.1Z" fill="#ed1c24"/>
        <path d="M165,324.4a.4.4,0,0,1-.4-.4c.1-.2.2-.3.4-.3s.4.1.3.3S165.2,324.4,165,324.4Z" fill="#ed1c24"/>
        <path d="M164.9,326.6a.3.3,0,0,1-.3-.3c0-.2.1-.4.3-.4a.4.4,0,0,1,.4.4C165.3,326.5,165.1,326.6,164.9,326.6Z" fill="#ed1c24"/>
        <path d="M164.9,328.8c-.2,0-.4-.1-.4-.3a.4.4,0,0,1,.4-.4c.2.1.3.2.3.4S165.1,328.9,164.9,328.8Z" fill="#ed1c24"/>
        <path d="M164.8,331.1c-.2,0-.4-.2-.3-.4a.3.3,0,0,1,.3-.3c.2,0,.4.1.4.3S165,331.1,164.8,331.1Z" fill="#ed1c24"/>
        <path d="M164.7,333.3a.3.3,0,0,1-.3-.3.4.4,0,0,1,.3-.4.4.4,0,0,1,.4.4C165.1,333.2,164.9,333.3,164.7,333.3Z" fill="#ed1c24"/>
        <path d="M164.7,335.5c-.2,0-.4-.1-.4-.3a.4.4,0,0,1,.4-.4c.2.1.3.2.3.4S164.9,335.6,164.7,335.5Z" fill="#ed1c24"/>
        <path d="M163.6,317.6a.3.3,0,0,1-.3-.3c0-.2.1-.4.3-.4a.4.4,0,0,1,.4.4C164,317.5,163.8,317.6,163.6,317.6Z" fill="#ed1c24"/>
        <path d="M163.6,319.9a.4.4,0,0,1-.4-.4c0-.2.2-.3.4-.3a.3.3,0,0,1,.3.3A.4.4,0,0,1,163.6,319.9Z" fill="#ed1c24"/>
        <path d="M163.5,322.1a.4.4,0,0,1-.4-.4c.1-.2.2-.3.4-.3s.4.2.3.4A.3.3,0,0,1,163.5,322.1Z" fill="#ed1c24"/>
        <path d="M163.4,324.3a.3.3,0,0,1-.3-.3.4.4,0,0,1,.3-.4.4.4,0,0,1,.4.4C163.8,324.2,163.6,324.3,163.4,324.3Z" fill="#ed1c24"/>
        <path d="M163.4,326.6a.4.4,0,0,1-.4-.4c0-.2.2-.3.4-.3a.3.3,0,0,1,.3.3C163.7,326.4,163.6,326.6,163.4,326.6Z" fill="#ed1c24"/>
        <path d="M163.3,328.8c-.2,0-.4-.2-.3-.4a.3.3,0,0,1,.3-.3.4.4,0,0,1,.4.4C163.6,328.7,163.5,328.8,163.3,328.8Z" fill="#ed1c24"/>
        <path d="M163.2,331a.3.3,0,0,1-.3-.3.4.4,0,0,1,.3-.4.4.4,0,0,1,.4.4C163.6,330.9,163.4,331,163.2,331Z" fill="#ed1c24"/>
        <path d="M163.2,333.3a.4.4,0,0,1-.4-.4c0-.2.2-.3.4-.3a.3.3,0,0,1,.3.3C163.5,333.1,163.4,333.3,163.2,333.3Z" fill="#ed1c24"/>
        <path d="M163.1,335.5c-.2,0-.3-.2-.3-.4a.3.3,0,0,1,.3-.3.4.4,0,0,1,.4.4C163.5,335.4,163.3,335.5,163.1,335.5Z" fill="#ed1c24"/>
        <path d="M162.1,317.6a.4.4,0,0,1-.4-.4c0-.2.2-.3.4-.3s.3.2.3.4A.5.5,0,0,1,162.1,317.6Z" fill="#ed1c24"/>
        <path d="M162,319.8c-.2,0-.4-.1-.4-.3s.2-.4.4-.4a.4.4,0,0,1,.4.4C162.3,319.7,162.2,319.8,162,319.8Z" fill="#ed1c24"/>
        <path d="M161.9,322.1c-.2,0-.3-.2-.3-.4a.3.3,0,0,1,.3-.3c.2,0,.4.1.4.3A.4.4,0,0,1,161.9,322.1Z" fill="#ed1c24"/>
        <path d="M161.9,324.3a.4.4,0,0,1-.4-.4c0-.2.2-.3.4-.3s.3.2.3.4A.3.3,0,0,1,161.9,324.3Z" fill="#ed1c24"/>
        <path d="M161.8,326.5c-.2,0-.4-.1-.3-.3s.1-.4.3-.4a.4.4,0,0,1,.4.4C162.2,326.4,162,326.5,161.8,326.5Z" fill="#ed1c24"/>
        <path d="M161.7,328.8c-.2,0-.3-.2-.3-.4s.2-.3.4-.3a.3.3,0,0,1,.3.3A.4.4,0,0,1,161.7,328.8Z" fill="#ed1c24"/>
        <path d="M161.7,331a.4.4,0,0,1-.4-.4c0-.2.2-.3.4-.3s.3.2.3.4A.3.3,0,0,1,161.7,331Z" fill="#ed1c24"/>
        <path d="M161.6,333.2a.3.3,0,0,1-.3-.3c0-.2.1-.4.3-.4a.4.4,0,0,1,.4.4C162,333.1,161.8,333.2,161.6,333.2Z" fill="#ed1c24"/>
        <path d="M161.5,335.5c-.2,0-.3-.2-.3-.4s.2-.3.4-.3a.3.3,0,0,1,.3.3A.4.4,0,0,1,161.5,335.5Z" fill="#ed1c24"/>
        <path d="M160.5,317.5c-.2,0-.4-.1-.3-.3s.1-.4.3-.4.4.2.4.4S160.7,317.6,160.5,317.5Z" fill="#ed1c24"/>
        <path d="M160.4,319.8c-.2,0-.3-.2-.3-.4a.3.3,0,0,1,.3-.3c.2,0,.4.1.4.3A.4.4,0,0,1,160.4,319.8Z" fill="#ed1c24"/>
        <path d="M160.4,322a.4.4,0,0,1-.4-.3.4.4,0,0,1,.4-.4c.2,0,.3.2.3.4A.3.3,0,0,1,160.4,322Z" fill="#ed1c24"/>
        <path d="M160.3,324.2a.3.3,0,0,1-.3-.3c0-.2.1-.4.3-.4s.4.2.4.4S160.5,324.3,160.3,324.2Z" fill="#ed1c24"/>
        <path d="M160.2,326.5c-.2,0-.3-.2-.3-.4s.2-.3.4-.3a.3.3,0,0,1,.3.3A.4.4,0,0,1,160.2,326.5Z" fill="#ed1c24"/>
        <path d="M160.2,328.7a.4.4,0,0,1-.4-.3.4.4,0,0,1,.4-.4c.2,0,.3.2.3.4A.3.3,0,0,1,160.2,328.7Z" fill="#ed1c24"/>
        <path d="M160.1,330.9a.3.3,0,0,1-.3-.3c0-.2.1-.4.3-.4s.4.2.4.4S160.3,331,160.1,330.9Z" fill="#ed1c24"/>
        <path d="M160,333.2c-.2,0-.3-.2-.3-.4s.2-.3.4-.3a.3.3,0,0,1,.3.3A.4.4,0,0,1,160,333.2Z" fill="#ed1c24"/>
        <path d="M160,335.4a.4.4,0,0,1-.4-.3.4.4,0,0,1,.4-.4c.2,0,.3.2.3.4A.3.3,0,0,1,160,335.4Z" fill="#ed1c24"/>
        <path d="M158.9,317.5c-.2,0-.3-.2-.3-.4a.3.3,0,0,1,.3-.3.4.4,0,0,1,.4.4C159.3,317.4,159.1,317.5,158.9,317.5Z" fill="#ed1c24"/>
        <path d="M158.9,319.7c-.2,0-.4-.1-.4-.3a.4.4,0,0,1,.4-.4c.2,0,.3.2.3.4A.3.3,0,0,1,158.9,319.7Z" fill="#ed1c24"/>
        <path d="M158.8,322c-.2,0-.3-.2-.3-.4a.3.3,0,0,1,.3-.3c.2,0,.4.1.4.3A.4.4,0,0,1,158.8,322Z" fill="#ed1c24"/>
        <path d="M158.7,324.2c-.2,0-.3-.2-.3-.4s.2-.3.4-.3a.4.4,0,0,1,.3.4C159.1,324.1,158.9,324.2,158.7,324.2Z" fill="#ed1c24"/>
        <path d="M158.7,326.4c-.2,0-.4-.1-.4-.3a.4.4,0,0,1,.4-.4c.2,0,.3.2.3.4A.3.3,0,0,1,158.7,326.4Z" fill="#ed1c24"/>
        <path d="M158.6,328.7c-.2,0-.3-.2-.3-.4a.3.3,0,0,1,.3-.3c.2,0,.4.1.4.3A.4.4,0,0,1,158.6,328.7Z" fill="#ed1c24"/>
        <path d="M158.5,330.9c-.2,0-.3-.2-.3-.4s.2-.3.4-.3.3.2.3.4S158.7,330.9,158.5,330.9Z" fill="#ed1c24"/>
        <path d="M158.5,333.1c-.2,0-.4-.1-.4-.3a.4.4,0,0,1,.4-.4c.2,0,.3.2.3.4A.3.3,0,0,1,158.5,333.1Z" fill="#ed1c24"/>
        <path d="M158.4,335.4c-.2,0-.3-.2-.3-.4a.3.3,0,0,1,.3-.3c.2,0,.4.1.4.3A.4.4,0,0,1,158.4,335.4Z" fill="#ed1c24"/>
        <path d="M157.4,317.5a.4.4,0,0,1-.4-.4c0-.2.2-.4.4-.3a.3.3,0,0,1,.3.3C157.7,317.3,157.6,317.5,157.4,317.5Z" fill="#ed1c24"/>
        <path d="M157.3,319.7c-.2,0-.3-.2-.3-.4a.3.3,0,0,1,.3-.3.4.4,0,0,1,.4.3A.4.4,0,0,1,157.3,319.7Z" fill="#ed1c24"/>
        <path d="M157.2,321.9a.3.3,0,0,1-.3-.3.4.4,0,0,1,.4-.4.4.4,0,0,1,.3.4C157.6,321.8,157.4,321.9,157.2,321.9Z" fill="#ed1c24"/>
        <path d="M157.2,324.2a.4.4,0,0,1-.4-.4c0-.2.2-.4.4-.3a.3.3,0,0,1,.3.3C157.5,324,157.4,324.2,157.2,324.2Z" fill="#ed1c24"/>
        <path d="M157.1,326.4c-.2,0-.3-.2-.3-.4a.3.3,0,0,1,.3-.3.4.4,0,0,1,.4.3A.4.4,0,0,1,157.1,326.4Z" fill="#ed1c24"/>
        <path d="M157,328.6a.3.3,0,0,1-.3-.3.4.4,0,0,1,.4-.4c.2,0,.3.2.3.4S157.2,328.6,157,328.6Z" fill="#ed1c24"/>
        <path d="M157,330.9c-.2-.1-.4-.2-.4-.4s.2-.4.4-.3a.3.3,0,0,1,.3.3C157.3,330.7,157.2,330.9,157,330.9Z" fill="#ed1c24"/>
        <path d="M156.9,333.1c-.2,0-.3-.2-.3-.4a.3.3,0,0,1,.3-.3.4.4,0,0,1,.4.3A.4.4,0,0,1,156.9,333.1Z" fill="#ed1c24"/>
        <path d="M156.8,335.3a.3.3,0,0,1-.3-.3.4.4,0,0,1,.4-.4c.2,0,.3.2.3.4S157,335.3,156.8,335.3Z" fill="#ed1c24"/>
        <path d="M155.8,317.4c-.2,0-.3-.2-.3-.4a.3.3,0,0,1,.3-.3.4.4,0,0,1,.4.4C156.2,317.3,156,317.4,155.8,317.4Z" fill="#ed1c24"/>
        <path d="M155.7,319.6a.3.3,0,0,1-.3-.3.4.4,0,0,1,.4-.4c.2,0,.3.2.3.4S155.9,319.6,155.7,319.6Z" fill="#ed1c24"/>
        <path d="M155.7,321.9a.4.4,0,0,1-.4-.4c0-.2.2-.3.4-.3a.3.3,0,0,1,.3.3C156,321.7,155.9,321.9,155.7,321.9Z" fill="#ed1c24"/>
        <path d="M155.6,324.1c-.2,0-.3-.2-.3-.4a.3.3,0,0,1,.3-.3.4.4,0,0,1,.4.4C156,324,155.8,324.1,155.6,324.1Z" fill="#ed1c24"/>
        <path d="M155.5,326.3a.3.3,0,0,1-.3-.3.4.4,0,0,1,.4-.4c.2,0,.3.2.3.4S155.7,326.3,155.5,326.3Z" fill="#ed1c24"/>
        <path d="M155.5,328.6a.4.4,0,0,1-.4-.4c0-.2.2-.3.4-.3a.3.3,0,0,1,.3.3C155.8,328.4,155.7,328.6,155.5,328.6Z" fill="#ed1c24"/>
        <path d="M155.4,330.8c-.2,0-.3-.2-.3-.4a.3.3,0,0,1,.3-.3.4.4,0,0,1,.4.4C155.8,330.7,155.6,330.8,155.4,330.8Z" fill="#ed1c24"/>
        <path d="M155.3,333a.3.3,0,0,1-.3-.3.4.4,0,0,1,.4-.4c.2,0,.3.2.3.4S155.5,333,155.3,333Z" fill="#ed1c24"/>
        <path d="M155.3,335.3a.4.4,0,0,1-.4-.4c0-.2.2-.3.4-.3a.3.3,0,0,1,.3.3C155.6,335.1,155.5,335.3,155.3,335.3Z" fill="#ed1c24"/>
        <path d="M154.2,317.4c-.2,0-.3-.2-.3-.4s.2-.3.4-.3a.3.3,0,0,1,.3.3A.4.4,0,0,1,154.2,317.4Z" fill="#ed1c24"/>
        <path d="M154.2,319.6a.4.4,0,0,1-.4-.4c0-.2.2-.3.4-.3s.3.2.3.4A.3.3,0,0,1,154.2,319.6Z" fill="#ed1c24"/>
        <path d="M154.1,321.8a.3.3,0,0,1-.3-.3c0-.2.1-.4.3-.4a.4.4,0,0,1,.4.4C154.5,321.7,154.3,321.8,154.1,321.8Z" fill="#ed1c24"/>
        <path d="M154,324.1a.4.4,0,0,1-.3-.4c0-.2.2-.3.4-.3a.3.3,0,0,1,.3.3A.4.4,0,0,1,154,324.1Z" fill="#ed1c24"/>
        <path d="M154,326.3a.4.4,0,0,1-.4-.4c0-.2.2-.3.4-.3s.3.2.3.4A.3.3,0,0,1,154,326.3Z" fill="#ed1c24"/>
        <path d="M153.9,328.5a.3.3,0,0,1-.3-.3c0-.2.1-.4.3-.4a.4.4,0,0,1,.4.4C154.3,328.4,154.1,328.5,153.9,328.5Z" fill="#ed1c24"/>
        <path d="M153.8,330.8a.4.4,0,0,1-.3-.4c0-.2.2-.3.4-.3a.3.3,0,0,1,.3.3A.4.4,0,0,1,153.8,330.8Z" fill="#ed1c24"/>
        <circle cx="153.8" cy="332.6" r="0.4" transform="translate(-204.5 409.7) rotate(-77.3)" fill="#ed1c24"/>
        <path d="M153.7,335.2a.3.3,0,0,1-.3-.3c0-.2.1-.4.3-.4a.4.4,0,0,1,.4.4C154.1,335.1,153.9,335.2,153.7,335.2Z" fill="#ed1c24"/>
        <path d="M152.7,317.3c-.2,0-.4-.1-.4-.3a.4.4,0,0,1,.4-.4c.2,0,.3.2.3.4A.3.3,0,0,1,152.7,317.3Z" fill="#ed1c24"/>
        <path d="M152.6,319.6c-.2-.1-.3-.2-.3-.4s.1-.4.3-.3.4.1.4.3A.4.4,0,0,1,152.6,319.6Z" fill="#ed1c24"/>
        <path d="M152.5,321.8a.4.4,0,0,1-.3-.4c0-.2.2-.3.4-.3a.3.3,0,0,1,.3.3A.4.4,0,0,1,152.5,321.8Z" fill="#ed1c24"/>
        <path d="M152.5,324c-.2,0-.4-.1-.4-.3a.4.4,0,0,1,.4-.4c.2,0,.3.2.3.4A.3.3,0,0,1,152.5,324Z" fill="#ed1c24"/>
        <path d="M152.4,326.3c-.2-.1-.3-.2-.3-.4s.1-.4.3-.3.4.1.4.3A.4.4,0,0,1,152.4,326.3Z" fill="#ed1c24"/>
        <path d="M152.4,328.5a.4.4,0,0,1-.4-.4c0-.2.2-.3.4-.3a.3.3,0,0,1,.3.3A.4.4,0,0,1,152.4,328.5Z" fill="#ed1c24"/>
        <path d="M152.3,330.7c-.2,0-.4-.1-.4-.3s.2-.4.4-.4.4.2.3.4A.3.3,0,0,1,152.3,330.7Z" fill="#ed1c24"/>
        <circle cx="152.2" cy="332.6" r="0.4" transform="translate(-208 396.4) rotate(-75.4)" fill="#ed1c24"/>
        <path d="M152.2,335.2a.4.4,0,0,1-.4-.4c0-.2.2-.3.4-.3a.3.3,0,0,1,.3.3A.4.4,0,0,1,152.2,335.2Z" fill="#ed1c24"/>
        <path d="M151.1,317.3c-.2,0-.3-.2-.3-.4a.3.3,0,0,1,.3-.3c.2,0,.4.1.4.3A.4.4,0,0,1,151.1,317.3Z" fill="#ed1c24"/>
        <path d="M151,319.5a.4.4,0,0,1,.1-.7c.2,0,.3.2.3.4S151.2,319.5,151,319.5Z" fill="#ed1c24"/>
        <path d="M151,321.7c-.2,0-.4-.1-.4-.3a.4.4,0,0,1,.4-.4c.2,0,.3.2.3.4A.3.3,0,0,1,151,321.7Z" fill="#ed1c24"/>
        <path d="M150.9,324c-.2,0-.3-.2-.3-.4a.3.3,0,0,1,.3-.3c.2,0,.4.1.4.3A.4.4,0,0,1,150.9,324Z" fill="#ed1c24"/>
        <path d="M150.9,326.2a.4.4,0,0,1-.4-.4.4.4,0,0,1,.4-.3c.2,0,.3.2.3.4A.3.3,0,0,1,150.9,326.2Z" fill="#ed1c24"/>
        <path d="M150.8,328.4c-.2,0-.4-.1-.4-.3s.2-.4.4-.4.4.2.3.4A.3.3,0,0,1,150.8,328.4Z" fill="#ed1c24"/>
        <path d="M150.7,330.7c-.2,0-.3-.2-.3-.4a.3.3,0,0,1,.3-.3c.2,0,.4.1.4.3A.4.4,0,0,1,150.7,330.7Z" fill="#ed1c24"/>
        <path d="M150.7,332.9a.4.4,0,0,1-.4-.4.4.4,0,0,1,.4-.3c.2,0,.3.2.3.4A.3.3,0,0,1,150.7,332.9Z" fill="#ed1c24"/>
        <path d="M150.6,335.1c-.2,0-.4-.1-.3-.3s.1-.4.3-.4a.4.4,0,0,1,.4.4C150.9,335,150.8,335.1,150.6,335.1Z" fill="#ed1c24"/>
        <path d="M149.5,317.2a.3.3,0,0,1-.3-.3.4.4,0,0,1,.4-.4c.2,0,.3.2.3.4S149.7,317.2,149.5,317.2Z" fill="#ed1c24"/>
        <path d="M149.5,319.5a.4.4,0,0,1-.4-.4c0-.2.2-.3.4-.3s.4.1.3.3S149.7,319.5,149.5,319.5Z" fill="#ed1c24"/>
        <path d="M149.4,321.7c-.2,0-.3-.2-.3-.4a.3.3,0,0,1,.3-.3.4.4,0,0,1,.4.4A.4.4,0,0,1,149.4,321.7Z" fill="#ed1c24"/>
        <path d="M149.4,323.9c-.2,0-.4-.1-.4-.3a.4.4,0,0,1,.4-.4c.2,0,.3.2.3.4A.3.3,0,0,1,149.4,323.9Z" fill="#ed1c24"/>
        <path d="M149.3,326.2a.4.4,0,0,1-.4-.4c.1-.2.2-.3.4-.3s.4.1.4.3S149.5,326.2,149.3,326.2Z" fill="#ed1c24"/>
        <path d="M149.2,328.4c-.2,0-.3-.2-.3-.4a.3.3,0,0,1,.3-.3.4.4,0,0,1,.4.4A.4.4,0,0,1,149.2,328.4Z" fill="#ed1c24"/>
        <path d="M149.2,330.6c-.2,0-.4-.1-.4-.3a.4.4,0,0,1,.4-.4c.2,0,.3.2.3.4A.3.3,0,0,1,149.2,330.6Z" fill="#ed1c24"/>
        <path d="M149.1,332.9c-.2,0-.4-.2-.3-.4a.3.3,0,0,1,.3-.3c.2,0,.4.1.4.3S149.3,332.9,149.1,332.9Z" fill="#ed1c24"/>
        <path d="M149,335.1c-.2,0-.3-.2-.3-.4a.3.3,0,0,1,.3-.3.4.4,0,0,1,.4.4A.4.4,0,0,1,149,335.1Z" fill="#ed1c24"/>
        <path d="M148,317.2a.4.4,0,0,1-.4-.4c.1-.2.2-.3.4-.3s.4.1.3.3S148.2,317.2,148,317.2Z" fill="#ed1c24"/>
        <path d="M147.9,319.4a.3.3,0,0,1-.3-.3c0-.2.1-.4.3-.4a.4.4,0,0,1,.4.4C148.3,319.3,148.1,319.4,147.9,319.4Z" fill="#ed1c24"/>
        <path d="M147.9,321.6c-.2,0-.4-.1-.4-.3a.4.4,0,0,1,.4-.4c.2.1.3.2.3.4S148,321.7,147.9,321.6Z" fill="#ed1c24"/>
        <path d="M147.8,323.9a.4.4,0,0,1-.4-.4c.1-.2.2-.3.4-.3s.4.1.4.3S148,323.9,147.8,323.9Z" fill="#ed1c24"/>
        <path d="M147.7,326.1a.3.3,0,0,1-.3-.3.4.4,0,0,1,.3-.4.4.4,0,0,1,.4.4C148.1,326,147.9,326.1,147.7,326.1Z" fill="#ed1c24"/>
        <path d="M147.7,328.3c-.2,0-.4-.1-.4-.3a.4.4,0,0,1,.4-.4c.2.1.3.2.3.4S147.9,328.4,147.7,328.3Z" fill="#ed1c24"/>
        <path d="M147.6,330.6c-.2,0-.4-.2-.3-.4a.3.3,0,0,1,.3-.3c.2,0,.4.1.4.3A.4.4,0,0,1,147.6,330.6Z" fill="#ed1c24"/>
        <path d="M147.5,332.8a.3.3,0,0,1-.3-.3.4.4,0,0,1,.4-.4.4.4,0,0,1,.3.4C147.9,332.7,147.7,332.8,147.5,332.8Z" fill="#ed1c24"/>
        <path d="M147.5,335c-.2,0-.4-.1-.4-.3a.4.4,0,0,1,.4-.4c.2.1.3.2.3.4S147.7,335.1,147.5,335Z" fill="#ed1c24"/>
        <circle cx="146.4" cy="316.8" r="0.4" transform="translate(-196.3 382.7) rotate(-76.1)" fill="#ed1c24"/>
        <path d="M146.4,319.4a.4.4,0,0,1-.4-.4c0-.2.2-.3.4-.3a.3.3,0,0,1,.3.3C146.7,319.2,146.6,319.4,146.4,319.4Z" fill="#ed1c24"/>
        <path d="M146.3,321.6c-.2,0-.4-.2-.3-.4a.3.3,0,0,1,.3-.3.4.4,0,0,1,.4.4C146.6,321.5,146.5,321.6,146.3,321.6Z" fill="#ed1c24"/>
        <path d="M146.2,323.8a.3.3,0,0,1-.3-.3.4.4,0,0,1,.3-.4.4.4,0,0,1,.4.4C146.6,323.7,146.4,323.8,146.2,323.8Z" fill="#ed1c24"/>
        <path d="M146.2,326.1a.4.4,0,0,1-.4-.4c0-.2.2-.3.4-.3a.3.3,0,0,1,.3.3C146.5,325.9,146.4,326.1,146.2,326.1Z" fill="#ed1c24"/>
        <path d="M146.1,328.3c-.2,0-.3-.2-.3-.4a.3.3,0,0,1,.3-.3.4.4,0,0,1,.4.4C146.5,328.2,146.3,328.3,146.1,328.3Z" fill="#ed1c24"/>
        <path d="M146,330.5a.3.3,0,0,1-.3-.3.4.4,0,0,1,.4-.4.4.4,0,0,1,.3.4C146.4,330.4,146.2,330.5,146,330.5Z" fill="#ed1c24"/>
        <path d="M146,332.8a.4.4,0,0,1-.4-.4c0-.2.2-.3.4-.3a.3.3,0,0,1,.3.3C146.3,332.6,146.2,332.8,146,332.8Z" fill="#ed1c24"/>
        <path d="M145.9,335c-.2,0-.3-.2-.3-.4a.3.3,0,0,1,.3-.3.4.4,0,0,1,.4.4C146.3,334.9,146.1,335,145.9,335Z" fill="#ed1c24"/>
        <path d="M144.9,317.1a.4.4,0,0,1-.4-.4c0-.2.2-.3.4-.3s.3.2.3.4A.3.3,0,0,1,144.9,317.1Z" fill="#ed1c24"/>
        <path d="M144.8,319.3c-.2,0-.4-.1-.3-.3s.1-.4.3-.4a.4.4,0,0,1,.4.4C145.1,319.2,145,319.3,144.8,319.3Z" fill="#ed1c24"/>
        <path d="M144.7,321.6c-.2,0-.3-.2-.3-.4a.3.3,0,0,1,.3-.3c.2,0,.4.1.4.3A.4.4,0,0,1,144.7,321.6Z" fill="#ed1c24"/>
        <path d="M144.7,323.8a.4.4,0,0,1-.4-.4c0-.2.2-.3.4-.3s.3.2.3.4A.3.3,0,0,1,144.7,323.8Z" fill="#ed1c24"/>
        <path d="M144.6,326a.3.3,0,0,1-.3-.3c0-.2.1-.4.3-.4a.4.4,0,0,1,.4.4C145,325.9,144.8,326,144.6,326Z" fill="#ed1c24"/>
        <path d="M144.5,328.3c-.2,0-.3-.2-.3-.4s.2-.3.4-.3a.3.3,0,0,1,.3.3A.4.4,0,0,1,144.5,328.3Z" fill="#ed1c24"/>
        <path d="M144.5,330.5a.4.4,0,0,1-.4-.4c0-.2.2-.3.4-.3s.3.2.3.4A.3.3,0,0,1,144.5,330.5Z" fill="#ed1c24"/>
        <path d="M144.4,332.7a.3.3,0,0,1-.3-.3c0-.2.1-.4.3-.4a.4.4,0,0,1,.4.4C144.8,332.6,144.6,332.7,144.4,332.7Z" fill="#ed1c24"/>
        <path d="M144.3,335c-.2,0-.3-.2-.3-.4s.2-.3.4-.3a.3.3,0,0,1,.3.3A.4.4,0,0,1,144.3,335Z" fill="#ed1c24"/>
      </g>
      <g>
        <polygon points="110.1 188.2 108.4 189.9 106.7 188.2 104.9 190 106.6 191.7 104.8 193.4 106.6 195.3 108.4 193.5 110.1 195.3 111.9 193.5 110.2 191.8 111.9 190 110.1 188.2" fill="#ed1c24"/>
        <polygon points="117.6 180.8 115.9 182.5 114.2 180.8 112.4 182.6 114.1 184.3 112.4 186 114.2 187.8 115.9 186.1 117.6 187.8 119.4 186.1 117.7 184.3 119.4 182.6 117.6 180.8"/>
      </g>
    </g>
  </g>
  <g>
    <path d="M309,312.7a13.9,13.9,0,0,1,9.9-3.7l2.4.2c.7.2.5.2.9.7s.7.5.7,1.3a17.1,17.1,0,0,1-1.2,6.9,11.1,11.1,0,0,1-3.4,4.8,15.8,15.8,0,0,1-6.8,3.4c-1.5.3-5.8.1-6-.2l-.4-.5a3.4,3.4,0,0,1-.6-1.5,15.6,15.6,0,0,1,1.2-6.8,14.4,14.4,0,0,1,3.3-4.6Z"/>
    <g>
      <path d="M305.6,317.6a10.5,10.5,0,0,0-.8,2.3c.1.2.2.4.3.4l.2.2a.3.3,0,0,0,.1.2l2.6,3.1,1.3,1.4h.1l1.2-.3,1-.4c0-.1-.1-.2-.1-.3a23.8,23.8,0,0,1-2.9-3.1c-1-1.1-2.4-2.6-2.4-2.7s-.1-.2-.1-.2h-.2l-.3-.5Z" fill="#fff"/>
      <path d="M314.7,309.5h.4c.2.1.2.1.3.3s.1.1.1.1h.3l2.6,2.6c1,1,2.5,2.9,2.6,3h.2a5.8,5.8,0,0,0,.5-1.1,1.6,1.6,0,0,0,.3-.8v-.2c-.1,0-1.1-1.3-1.8-2.1l-2.1-2a.6.6,0,0,0-.4-.2v-.2l-.4-.2a13.8,13.8,0,0,0-2.5.5Z" fill="#fff"/>
    </g>
    <g>
      <path d="M306.8,318.5c-.1,0-.2,0-.1-.2s.5-2,3.3-4.6,4.9-3.2,5.2-3.2.2.1.1.3.2.9-.1,1.2l-.4.5a.5.5,0,0,0-.1-.5c-.2-.3-1.9.5-4.1,2.4s-2.6,2.8-2.5,3.1.6,0,.6,0a1.5,1.5,0,0,1-.3.5,6.4,6.4,0,0,1-1.6.5Z" fill="none" stroke="#010101" stroke-width="0.08" stroke-dasharray="0.62 0.08" opacity="0.34" style="isolation: isolate"/>
      <path d="M306,317.3c0,.1-.1.3.1.2a16.7,16.7,0,0,1,3.5-4.2,21.3,21.3,0,0,1,4.7-3.4c.2-.1,0-.1-.3-.1a14.1,14.1,0,0,0-4.8,3c-2.4,2.3-3,3.7-3.2,4.5Z" fill="none" stroke="#010101" stroke-width="0.08" stroke-dasharray="0.62 0.08" opacity="0.34" style="isolation: isolate"/>
    </g>
    <g>
      <path d="M306.7,316.8c-.1-.1-.1-.2.1-.4a2.1,2.1,0,0,1,.4-.6l.3-.3.4-.5c.1-.2.4-.4.4-.5s.2-.2.4-.5l.5-.4c.1,0,.1-.2.4-.4s.4-.3.5-.4l.4-.5.6-.3.4-.5.6-.2.4-.4.8-.4h.3c.1.1-.1.2-.2.3l-.5.3-.4.4-.6.3-.5.4-.6.4c0,.1-.3.4-.4.5l-.4.3-.5.5-.5.4a1,1,0,0,1-.4.5l-.4.5-.4.5-.4.5-.3.4c-.1.2-.1.2-.2.2s-.2-.2-.2-.2Z" fill="#eeedee" stroke="#b9b9b9" stroke-width="0.02"/>
      <g>
        <path d="M306.6,316.6c-.1-.1-.1-.1,0-.3s.2-.2.2-.2l.4.5.4.4a.4.4,0,0,1,.1.3h-.1a.5.5,0,0,1-.4-.2l-.5-.5Z" fill="#fff" stroke="#b9b9b9" stroke-width="0.02"/>
        <path d="M307.3,315.6v-.3h.2a.1.1,0,0,1,.1.1c.1,0,.1.2.3.4l.4.3.2.2v.2H308l-.5-.5-.2-.2Z" fill="#fff" stroke="#b9b9b9" stroke-width="0.02"/>
        <path d="M309.7,312.8a.3.3,0,0,1,.1-.2c.1,0,.1-.2.2-.2s.1.2.3.3l.5.6c.2,0,.2.1.2.2v.2h-.4l-.6-.5a.7.7,0,0,0-.3-.3Z" fill="#fff" stroke="#b9b9b9" stroke-width="0.02"/>
        <path d="M310.9,311.7c.1-.1.2,0,.3.1l.6.6c.1.1.2.1.2.2v.2h-.4c-.1-.2-.5-.6-.6-.6l-.2-.2c-.1-.1-.1-.1,0-.2Z" fill="#fff" stroke="#b9b9b9" stroke-width="0.02"/>
        <path d="M312,311h.3l.6.6c.1,0,.2.2.2.3l-.3.2c-.1-.1-.2-.1-.3-.3s-.4-.5-.5-.5h-.2c-.1-.1-.1-.1,0-.2Z" fill="#fff" stroke="#b9b9b9" stroke-width="0.02"/>
        <path d="M309.1,313.3c.1-.1.1.1.2.1l.6.6c.2.2.2.2.2.4h-.3l-.5-.5-.3-.4c-.1-.1-.1-.1,0-.2Z" fill="#fff" stroke="#b9b9b9" stroke-width="0.02"/>
        <path d="M313,310.4h.3c.1.1.7.5.7.7s.2.2.1.3,0,.2-.2.1l-.4-.3c-.1-.1-.2-.4-.4-.5h-.2v-.2Z" fill="#fff" stroke="#b9b9b9" stroke-width="0.02"/>
        <path d="M308.2,314.2h.2l.3.3.3.3c.1.1.2.1.2.2s.1.1,0,.2-.2.2-.4,0l-.7-.7a.1.1,0,0,1,0-.2v-.2Z" fill="#fff" stroke="#b9b9b9" stroke-width="0.02"/>
      </g>
    </g>
  </g>
  <rect x="8.9" y="36.9" width="59.1" height="59.06"/>
  <g>
    <path d="M223,313.5l-2-2.2a1.2,1.2,0,0,0-1.8.1l-1.9,2.1a4.5,4.5,0,0,0-.8,2.3v4.5a1.3,1.3,0,0,0,1.3,1.3h4.7a1.3,1.3,0,0,0,1.3-1.3v-4.5A4.5,4.5,0,0,0,223,313.5Zm-2.8,1.2a1.5,1.5,0,1,1,0-2.9,1.5,1.5,0,0,1,1.4,1.4A1.5,1.5,0,0,1,220.2,314.7Z" fill="#ed1c24"/>
    <rect x="221.4" y="308.3" width="0.5" height="5.3" rx="0.2" transform="translate(155.2 -65.1) rotate(25.5)" fill="#ed1c24"/>
  </g>
  <g>
    <path d="M42.5,117.1a31.1,31.1,0,0,1,7,9.8A29.9,29.9,0,0,1,52,141.1a6.5,6.5,0,0,1-1.1,3.3,7.6,7.6,0,0,0-.9.9c-.5.8-9.5,1.1-12.8.4a32.1,32.1,0,0,1-14.4-7.1c-2.5-2.3-4.4-3.8-7.1-10s-2.5-13.3-2.5-14.7.5-1.8,1.4-2.8.5-1.1,2-1.4a32.2,32.2,0,0,1,5-.5,29.6,29.6,0,0,1,20.9,7.9Z"/>
    <g>
      <path d="M49.8,127.4c0,.1,0,.2-.1.2l-.6,1c-.3.4-.4.2-.4.2a1,1,0,0,1-.2.6l-5,5.7c-2,2.3-5.9,6.4-6.1,6.6a.5.5,0,0,0-.3.4l2.1.9,2.4.7.4-.2,2.6-2.9,5.6-6.5a.9.9,0,0,0,.3-.6.8.8,0,0,0,.4-.3l.5-1a19.3,19.3,0,0,0-1.6-4.8Z" fill="#fff"/>
      <path d="M30.5,110.2a42.5,42.5,0,0,0-5.2-1,2.4,2.4,0,0,0-1,.5c-.2.1-.2.4-.2.4a1.1,1.1,0,0,0-.7.3l-4.5,4.4c-1.5,1.6-3.7,4.3-3.8,4.4s-.1.2-.1.4a8.2,8.2,0,0,0,.6,1.6l1.2,2.5.4-.3a80.2,80.2,0,0,1,5.5-6.4c2.1-2.2,5.4-5.4,5.5-5.5l.7-.2c-.1,0-.2,0,0-.3l.7-.5.9-.3Z" fill="#fff"/>
    </g>
    <g>
      <path d="M47.2,129.4a10.9,10.9,0,0,1-3.3-1.1,3.4,3.4,0,0,1-.8-1s1.3.3,1.4-.2-.8-2.2-5.4-6.4-8.1-5.7-8.6-5.2a1,1,0,0,0-.2,1l-.9-.9c-.5-.7-.2-2.2-.3-2.6s-.2-.7.4-.6,5.1,1.5,10.9,6.8,6.8,9.2,7,9.6.1.5-.2.6Z" fill="none" stroke="#010101" stroke-width="0.16" stroke-dasharray="1.32 0.16" opacity="0.34" style="isolation: isolate"/>
      <path d="M48.9,126.7c-.5-1.6-1.7-4.5-6.7-9.4-2.9-3-8.2-6-10.3-6.3-.4-.1-1,0-.6.2s4.2,1.7,10,7a34.9,34.9,0,0,1,7.4,9c.3.3.2-.2.2-.5Z" fill="none" stroke="#010101" stroke-width="0.16" stroke-dasharray="1.32 0.16" opacity="0.34" style="isolation: isolate"/>
    </g>
    <g>
      <path d="M47.4,125.6h0l-.4.5c-.1.1-.2,0-.4-.3a4.6,4.6,0,0,0-.7-1l-.9-1a8.6,8.6,0,0,0-.7-1c-.2-.4-.7-.7-1-1l-.8-1.2-1-.8-1-1-.9-.8-.9-1-1.3-.7c-.4-.4-.6-.8-1-1l-1.2-.6a3.6,3.6,0,0,1-.9-.8l-1-.7c-.3-.2-.7-.3-.5-.5s.4-.2.6-.3a8.5,8.5,0,0,1,1.7.8,3.4,3.4,0,0,0,.9.8c.3.3.7.3,1.2.6a2.5,2.5,0,0,1,.9.9,7.6,7.6,0,0,1,1.3.8c.7.5.6.6.9.9l1.1.9.7.9,1.1.8A8,8,0,0,1,44,121c.1.2.6.5.9.9s.6.9.8,1.1l.7.7a3.8,3.8,0,0,1,.9,1.2c.3.4.2.5.1.7Z" fill="#eeedee" stroke="#b9b9b9" stroke-width="0.04"/>
      <g>
        <path d="M47.7,125.2l-.4.4-.9,1a1.3,1.3,0,0,1-.8.3c-.2.1-.2,0-.2-.2a.7.7,0,0,1,.1-.5,4.5,4.5,0,0,0,.9-1l.8-.9c0-.1.2,0,.4.3s.2.5.1.6Z" fill="#fff" stroke="#b9b9b9" stroke-width="0.04"/>
        <path d="M46.1,123.1l-.4.6-1,.9a.7.7,0,0,1-.8.2c-.1,0-.1-.2-.2-.3s.2-.3.4-.5l.8-.7.6-.8c.1-.1.1-.2.2-.2s.2.1.4.3a.4.4,0,0,1,0,.5Z" fill="#fff" stroke="#b9b9b9" stroke-width="0.04"/>
        <path d="M41,117.3l-.5.5a8.5,8.5,0,0,1-1.4,1.1.8.8,0,0,1-.7.2.6.6,0,0,1-.1-.4c0-.2.1-.3.4-.5l1.2-1.1c.3-.3.4-.6.5-.6s.3.3.5.4a.6.6,0,0,1,.1.4Z" fill="#fff" stroke="#b9b9b9" stroke-width="0.04"/>
        <path d="M38.5,114.8l.4.4c.2.2,0,.2-.1.3l-.5.4L37,117.2c-.2.3-.5.2-.7.1s-.1-.2-.1-.4.3-.3.5-.5L38,115c.1-.1.3-.3.5-.2Z" fill="#fff" stroke="#b9b9b9" stroke-width="0.04"/>
        <path d="M36.1,113.4l.5.3c.2.1.2.2,0,.4s-.3-.1-.4.1-1,.8-1.1,1.2-.5.4-.7.5-.4-.2-.4-.3.1-.6.2-.7l1.3-1.2c.3-.3.4-.3.6-.3Z" fill="#fff" stroke="#b9b9b9" stroke-width="0.04"/>
        <path d="M42.3,118.3l.3.3c.2.1.2.2.1.4l-.9.8c-.3.3-.6.8-1,1s-.4.2-.5-.2,0-.4.3-.8l1.3-1.2c.2-.1.2-.4.4-.3Z" fill="#fff" stroke="#b9b9b9" stroke-width="0.04"/>
        <path d="M34.1,112.2h.1s.2.2.1.3l-.5.2c-.3.2-.5.8-.7,1s-.5.4-.9.7-.4,0-.5-.2.1-.5.2-.7a19.2,19.2,0,0,1,1.5-1.4.8.8,0,0,1,.7,0Z" fill="#fff" stroke="#b9b9b9" stroke-width="0.04"/>
        <path d="M44.2,120.3l.3.3c.1,0,.1.2,0,.4L43,122.5c-.4.4-.8.4-.9.1s-.1-.2,0-.4l.5-.5c.3-.3.4-.2.7-.6l.6-.7c.2-.2.2-.2.3-.1Z" fill="#fff" stroke="#b9b9b9" stroke-width="0.04"/>
      </g>
    </g>
  </g>
  <g>
    <g>
      <path d="M99.6,17.1a1.6,1.6,0,0,1-.5,1.1l-4.9,4.9L88.9,20V17.1a1.6,1.6,0,0,1,1.6-1.6A1.5,1.5,0,0,1,92,17.1h0v3.7L96.9,16a1.6,1.6,0,0,1,2.2,0,1.6,1.6,0,0,1,.5,1.1"/>
      <path d="M98,31.3h-.6l-.5-.3L92,26v3.8a1.5,1.5,0,0,1-1.5,1.5,1.6,1.6,0,0,1-1.6-1.5v-3l5.3-3.1,4.9,5A1.5,1.5,0,0,1,98,31.3"/>
      <path d="M94,23.3l-.2-.2h0l-1.3-.8-3.6-2-3-1.7a.2.2,0,0,0-.4.1c-.1,0-.1.1-.1.2V28a.4.4,0,0,0,.4.3h.1l3-1.8,4.9-2.8h.1v-.2h0Zm-1.2.2a.1.1,0,0,1-.1.1l-3.8,2.2-2.4,1.4h-.3c0-.1-.1-.1-.1-.2v-7a.3.3,0,0,1,.3-.3h.1L88.9,21l3.8,2.2c.1,0,.1.2.1.3Z"/>
      <path d="M91.7,23.5a.1.1,0,0,1-.1.1l-2.8,1.6-1.8,1c-.1.1-.2.1-.2,0h-.1V20.8c0-.2.1-.2.2-.2H87l1.8,1,2.8,1.6v.2h0"/>
    </g>
    <g>
      <path d="M125.3,23.2h-.2l-4.3-2.2-2.7-1.4a.4.4,0,0,0-.5.3V27c0,.2.3.3.5.2l2.6-1.4,4.3-2.3a.1.1,0,0,0,.1-.1C125.3,23.3,125.3,23.3,125.3,23.2Zm-1.1.2h-.1l-3.3,1.8-2.1,1.1c-.1,0-.3-.1-.3-.2V20.6c0-.2.1-.3.3-.2h0l2.1,1,3.4,1.7h.1v.2Z"/>
      <path d="M123.3,23.4c-.1,0-.1,0-.1.1l-2.5,1.3-1.6.8c0,.1-.2,0-.2-.1h0V21.3a.2.2,0,0,1,.2-.2h.1l1.5.8,2.6,1.3h.1"/>
      <path d="M102.7,19.7h3.8c1.8,0,3.2,1,3.2,2.5s-1.3,2.6-3.1,2.6h-2v2.4h-1.8Zm3.6,3.5c.9,0,1.5-.4,1.5-1.1s-.6-1-1.5-1h-1.8v2.1Z"/>
      <path d="M116.8,25.7v1.5h-6V19.8h1.8v6.1Z"/>
      <path d="M127.2,24.4l-3.3-4.8H126l2.1,3.2,2.1-3.3h2L129,24.3V27h-1.8Z"/>
      <path d="M133.4,20h.9v4.1l4.2-4.2h1.2l-3.4,3.5,3.8,4h-1.3L135.7,24l-1.3,1.2v2.3h-.9Z"/>
      <path d="M140.6,23.7a4.3,4.3,0,0,1,4.3-4,4.1,4.1,0,0,1,4.3,3.9,4.1,4.1,0,0,1-4.2,3.9C142.6,27.5,140.6,25.8,140.6,23.7Zm7.6-.1a3.2,3.2,0,0,0-3.3-3.1,3.3,3.3,0,0,0-3.3,3.1,3.3,3.3,0,0,0,6.6,0Z"/>
      <path d="M150.4,26.3l.6-.6a4.1,4.1,0,0,0,2.8,1c1.3,0,1.9-.6,1.9-1.3s-.8-1.1-2.3-1.4-2.7-.8-2.7-2.1,1.1-2.1,2.7-2.2a4.6,4.6,0,0,1,3,1.1l-.6.6a3.6,3.6,0,0,0-2.4-.9c-1,0-1.8.6-1.8,1.3s.9,1.1,2.3,1.4,2.7.8,2.7,2.1-.9,2.2-2.9,2.2A4.8,4.8,0,0,1,150.4,26.3Z"/>
      <path d="M158.4,20h.9l3.2,5.2,3.1-5.3h.9v7.5h-1V21.7L162.5,27l-3.1-5.2v5.7h-.9Z"/>
      <path d="M168.3,23.7a4.4,4.4,0,0,1,4.3-4,4.1,4.1,0,0,1,4.3,3.9,4.1,4.1,0,0,1-4.2,3.9A4.2,4.2,0,0,1,168.3,23.7Zm7.6-.1a3.2,3.2,0,0,0-3.3-3.1,3.3,3.3,0,0,0-3.3,3.1,3.3,3.3,0,0,0,3.4,3.1,3.1,3.1,0,0,0,3.2-3.1Z"/>
      <path d="M178.1,26.3l.6-.6a4.1,4.1,0,0,0,2.8,1c1.3,0,1.9-.6,1.9-1.3s-.8-1.1-2.3-1.4-2.7-.8-2.7-2.1,1.1-2.1,2.7-2.2a4.6,4.6,0,0,1,3,1.1l-.6.6a3.6,3.6,0,0,0-2.4-.9c-1,0-1.8.6-1.8,1.3s.9,1.1,2.3,1.4,2.7.8,2.8,2.1-1,2.2-3,2.2A4.8,4.8,0,0,1,178.1,26.3Z"/>
    </g>
  </g>
  <rect x="133.6" y="147.1" width="145.2" height="15.35"/>
  <rect x="133.6" y="122.7" width="145.2" height="15.35"/>
  <path d="M237.7,179.1a1.4,1.4,0,0,0,1.1-.4,1.5,1.5,0,0,0,0-2.2,1.4,1.4,0,0,0-1.1-.5,1.6,1.6,0,0,0-1.1.5,1.5,1.5,0,0,0,1.1,2.6Zm0,7.8a28.6,28.6,0,0,1-4.6-4.9,7.7,7.7,0,0,1-1.6-4.3,6.3,6.3,0,0,1,1.9-4.6,6.4,6.4,0,0,1,8.7,0,6.2,6.2,0,0,1,1.8,4.6,8.3,8.3,0,0,1-1.5,4.3A26,26,0,0,1,237.7,186.9Z" fill="#ed1c24"/>
  <rect x="179.2" y="221.9" width="117" height="0.5" fill="#ed1c24"/>
  <rect x="197.6" y="243.8" width="81.7" height="0.5"/>
  <rect x="205.5" y="274.5" width="69.8" height="9.27"/>
</svg>
