<svg xmlns="http://www.w3.org/2000/svg" viewBox="0 0 335 335" xmlns:v="https://vecta.io/nano"><defs><radialGradient id="A" cx="167.5" cy="168.4" fx="167.5" fy="168.4" r="167.5" gradientTransform="translate(0 335.89) scale(1 -1)" gradientUnits="userSpaceOnUse"><stop offset="0" stop-color="#231f20"/><stop offset="1" stop-opacity=".9"/></radialGradient></defs><path d="M0,0H335V335H0V0Z" fill="url(#A)"/><g fill="#ffde17"><path d="M315.5 247c-.5-.2-.7-.2-1 .1s-.4.6-.1.8c.2.2.6.2.8 0s.3-.2.4-.1c.3.2.3.5 0 .8s-.5.3-1.5 0c-.7-.2-.8-.2-.8-.5 0-.2 0-.4-.3-.6-.2-.2-.3-.3-1.4-.3-.6 0-1.2 0-1.3-.1-.1 0-1-.1-2.2-.2q-2 0-2 .1c0 .1 0 .2.5.3.4 0 1 .3 2.3 1 2 1 2.6 1.3 3.5 1.5s1 .2 1.7 0c1-.2 2-.8 2-1.7 0-.5-.2-1-.7-1h.1zm-.4.5c-.1.2-.5.3-.5.1s.4-.4.5-.4v.3h0zm-.4 1.7c-.7.3-2 .2-2.8-.1-.2 0-.4-.2-.4-.2s-.8-.3-1.6-.7l-1.6-.7c-.1 0-.2 0-.2-.1h1.7c-.4.1-.4.2.2.3.3 0 .7.1 1 .2.2 0 .4.1.5.1s.1 0 0-.2c-.3-.2-.2-.2.4-.3q.5 0 .6.2c0 .2.1.4 0 .5v.1s.2-.1.2-.3c0-.1 0-.2.1-.2.2.1.1.5-.1.6-.3.2-.2.3.3.2.3 0 .7 0 1.2.1q.7.2.5.3h.1zm-9.7.4c0 .4 1.2 0 1.5-.5.5-1-.8-2.3-2.2-2-1.8.3-2.4 2-1 2.7.3.2.5.2.6 0 .1 0 .1-.1 0-.3-.2-.4.6-.8 1-.4.1.1.1.2 0 .3 0 0-.1.2-.1.3h.1zm-.5-1c-.6 0-1 .2-1 .6 0 .3-.1.3-.4 0-.1-.1-.2-.3-.2-.6 0-.7.7-1.3 1.6-1.3s1 .2 1.3.6.3.8 0 1-.5.3-.5 0-.4-.6-1-.6l.1.2z"/><path d="M305.5 248c.2.2.3.2.3 0s-.3-.4-.8-.6c-.3-.1-.5-.1-.8 0-.6.2-.6.3 0 .2.5 0 1 0 1.3.4h0zm14 .3c.2-.2.2-.5 0-1-.3-.4-.6-.6-1.2-.6-1 0-1.4.4-1.4 1.2s.4 1.3 1 1.5h.4c0-.1.2-.1.6 0h.6v-1.2zm-.6 0c.1.1.2.3.2.4q0 .2-.3.2c-.2 0-.4-.1-.4-.2 0 0-.1-.1-.2-.1 0 0-.2.1-.2.3v.3l-.4-.3c-.2-.2-.3-.4-.3-.6 0-.3.1-1 .4-1 .3-.2.3-.1.1.2s0 .3.2.1c.3-.2.8-.3 1-.2.3.1.2.5 0 .5s-.2 0-.2.1 0 .2.2.3h-.1zm-34.2-.5l1.8 1c.1 0 1.6.6 2 .7 1.2.3 2.7-.2 3.2-1 .4-.6.3-1.5-.3-1.8-.8-.4-1.7.2-1.2.8.2.3.4.3.7 0 .4-.3.6-.2.6.2s0 .4-.3.5q-.3.2-.7 0c-.2 0-.7-.2-1-.2q-.5-.1-.5-.5c0-.6-.4-.8-1.6-.8s-1.2 0-1.4-.1c-.3 0-.6-.1-1 0h-1.3c-.8-.1-1.7 0-1.7.1s.2.2.5.2c.4 0 1 .3 2.2 1h-.1zm6-.7c-.3.3-.4.3-.5.2 0-.1.2-.4.5-.4s.2 0 0 .3v-.1zm-6.2-.2h.7c-.2.1 0 .3.3.3s.6 0 1 .2c.6.2.7.2.5 0s0-.3.5-.3.5 0 .6.3v.5c0 .3.2.2.3-.1.1.1 0 .3 0 .4-.1 0-.2.2-.2.2h.8c1.4 0 2 .3 1.3.5-.7.1-1.8 0-2.5-.2a38 38 0 0 1-4-1.9h.8 0zm12.8 2.3c.3 0 1.3-.6 2.3-1s2-1 2.4-1 .6-.2.6-.3c0-.2-4-.1-4.3 0-.2 0-.5.1-1 0-1-.1-1.6.2-1.6.8s0 .4-.2.4-.5 0-.8.2c-.7.2-1.2.2-1.4-.2-.2-.2-.2-.3 0-.5.1-.3.3-.3.6 0 .4.3.8.2 1-.2s0-.7-.4-.8c-.8-.3-1.5.3-1.5 1s.6 1.3 1.6 1.6c.4.1 2.4 0 3-.2l-.1.3zM294 247c0-.1.5 0 .5.3 0 0 0 .2-.1.2-.2 0-.4-.3-.3-.4v-.1zm.3 2c0-.2 1.4-.5 2-.4.4 0 .5 0 .3-.3 0 0-.2-.2-.2-.3 0-.2.7-.4 1-.3h.3s-.2-.1-.5-.1h-.6l.2-.1h2c.6-.2 1-.2 1.6-.1h.8l-.4.2c-.3.1-.6.2-.7.1-.3 0-1 .1-1 .3s.1 0 .4 0 .3 0-.3.3c-1.3.6-2 1-2.7 1h-.7c-.3 0-.4 0-1-.1-.3 0-.5 0-.5-.1h.1zm-40.5-2.4h-2c-1 0-1.7 0-2 .2-.2 0-.5.1-1 0-1-.1-1.8.2-1.8 1q0 .3-.7.5c-1 .3-1.3.2-1.6 0-.5-.5 0-1 .5-.6.2.2.4.2.6.1.2 0 .3-.2.3-.5s0-.4-.2-.5c-.7-.5-1.7.2-1.7 1s.5 1 1.2 1.4c.5.2.6.2 1.6.2 1.2 0 2-.3 3.3-1 1.2-.7 2.2-1 3-1.4.7-.2.8-.4.3-.4h0zm-8.2.4c.1 0 .2.1.3.2 0 .2-.2.2-.4 0s-.1-.3.1-.3h0zm2.4.3s.1 0 0 .1c0 0-.1.1-.2.1s0 0 0-.1 0-.1.2-.1zm3.4 0c-.6 0-1 .2-1 .4s.1 0 .3 0c.5 0-1.3.8-2.2 1-.5.2-1 .2-1.6.2-1 0-1.2 0-1.2-.2s1.4-.4 1.8-.4.6 0 .3-.2c-.1 0-.2-.2-.2-.2 0-.2.7-.4 1-.4s.4 0 .2-.2c0 0 0-.1.3-.1s.6 0 .8-.1c.4-.1 2.3-.2 2.3-.1s-.5.3-1 .3l.2-.1zm5.5 2c.6-.1 1-.6 1-1.2s0-.5-.5-1c-.5-.5-1-.7-1.5-.7s-1.3.4-1.7.7c-.3.3-.4.5-.4 1s0 .5.3.8c.2.1.4.3.6.4.6.2.8.1.6-.3-.1-.2 0-.3 0-.4.3-.2.6-.2.8 0 .2.1.2.2 0 .4-.2.3 0 .4.5.3h.2zm-1-1.3c-.4 0-.8.4-.8.7s-.2.3-.4 0c-.3-.4-.2-1 .2-1.3.7-.7 2-.6 2.7.2.3.4.2 1 0 1.2-.3.3-.4.2-.5-.2 0-.3-.5-.5-1-.5l-.2-.1z"/><path d="M256.8 247.8c.2.2.4.3.4 0s-1-.8-1.4-.7c-.4 0-.7.2-.6.3h.4c.4-.1 1 0 1.3.3l-.1.1zm10.3 1c.5-.5.6-1 .4-1.5-.3-.6-1-1-1.6-.6-.3.2-.3.6 0 1 .2.3.4.2.8 0 .3-.3.6-.3.6.2 0 .6-.5.8-1.3.6-.3 0-.6-.2-.8-.2q-.3 0-.4-.4c-.1-.7-.7-1-1.8-.8h-1c-.4-.2-4.2-.3-4.3-.1q0 .2.6.3c.4 0 1.2.4 2.5 1q2.2 1 3 1.3c1.4.3 2.6.1 3.3-.6v-.2zm-.6-1.6c-.3.3-.4.3-.4.2 0-.3.2-.4.4-.4h.3l-.2.3-.1-.1zm-5.2.8l-1.7-.8c-.2 0-.1-.1.7-.1h.8c-.3 0-.2.2.1.2s.6 0 1 .2c.6.2 1 .2.6 0q-.2-.1 0-.2h.6c.3 0 .4 0 .4.3v.4c0 .3.2.2.3 0 .1.2 0 .3 0 .4-.3.2-.1.3.3.2.4 0 1.8.1 2 .3 0 0 0 .1-.3.2-.2 0-.8.1-1.2.1-1 0-1.6-.2-3.5-1h.1zm8.3-.5c.3.4 1 .2 1-.3s-.3-.7-.8-.7-.5 0-.8.4c-.4.4-.5 1-.2 1.4s1 1 1.6 1c.6.1 2 0 2.7-.2.3-.1 1.3-.6 2.3-1s2-1 2.4-1c.6-.2.8-.4.3-.4h-3c-.2 0-.6 0-1 .1-.5.1-.7.2-1 .1-1-.1-1.6.2-1.6.8s0 .3-1 .5c-.5.1-1 .2-1 .2-.4 0-.6-.5-.5-.8 0-.2.5-.3.7 0zm.5-.5v.3c-.1.1-.4 0-.4-.3s.4-.2.5 0h-.1zm2.2.2c.2 0 1-.1.8 0h-.8zm-2.3 1.5c0-.2 1.4-.3 1.8-.3s.5 0 .3-.3c-.4-.4 0-.6 1-.6s.4 0 .4-.2c0-.1 0-.2.3-.2.2 0 .5 0 .8-.2.5-.2 2.2-.2 2.2 0s-.5.2-1 .3c-.5 0-1 .2-1 .4s.1 0 .3 0h.3l-2 1c-.6.2-1 .3-1.6.4h-1s-.2 0-.4-.1c-.2 0-.3-.1-.2-.2l-.3.1zm10.8.4s-.1.1-.1.2 0 .2.5.1c.4 0 .6-.1.8-.4.3-.3.3-.4.3-.8-.1-1.2-1.8-2-3-1.3-.4.2-1 .8-1 1.2-.1.5.3 1.2 1 1.4h.4q.2 0 .2-.3c0-.3 0-.4.2-.5.5-.2 1.2.2.8.5v-.1zm-1.3-.7c-.1.1-.2.3-.2.4 0 .3-.2.2-.4 0-.4-.4-.3-1 .2-1.4.7-.7 1.8-.7 2.5 0 .4.4.4 1 0 1.3-.3.3-.5.3-.5 0 0-.5-1.3-.8-1.7-.3h.1z"/><path d="M281.5 248s-.2-.3-.4-.4c-.4-.3-1-.4-1.5-.2s-.2.3.5.2c.6 0 .7 0 1 .2.3.3.5.3.5.1l-.1.1zm-39.8-1.2c-.6.2-1 1.2-.6 1.3.1 0 .1.1 0 .6 0 .3-.1.5 0 .6 0 0 .7 0 1-.1 0 0 .1 0 .1.1 0 .4 1 0 1.3-.4s.3-1.2 0-1.6c-.4-.6-1-.8-1.8-.5h0zm1.4 1c0-.1-.2-.2-.3-.2s-.1 0 0 .1c0 0 .2.3.3.6.1.4.1.5 0 .6-.3.3-.5.2-.5 0v-.3l-.4.3c-.7.5-1 .2-.5-.5.2-.2.2-.4.1-.4h-.3c-.1 0-.1-.1.1-.4s.4-.3.7-.3c.5 0 .7.1 1 .5.2.3 0 .4-.1.1v-.1zm75.3-8c-.6-1-1-2.3-1.2-2.6s-.2-.5-.3-.5c-.2 0-.1 4 0 4.2 0 .2.1.5 0 1-.1 1 .2 1.7 1 1.7h.3s0 .4.2 1c.2 1 .2 1.4-.3 1.5s-.8-.3-.4-.7c.1-.1.2-.3.2-.3 0-.3-.3-.5-.6-.5-.4 0-.7.3-.7.8s.2.8.7 1c.2 0 .4.1.5.1h.3c.2 0 1-.7 1-1 .3-.6.4-1.7.2-2.7-.1-.6-.4-1.3-1.2-3l.3.1zm-1 5.4c-.2.2-.4.3-.4 0s.3-.5.4-.4v.4zm0-2.4s-.1-.3-.1-.6v.5l.1.1zm1.6 2c-.1.1-.2.1-.3-.7v-1c0-.5 0-.6-.3-.3s-.5.2-.5-.6c0-.5 0-.6-.2-.6 0 0-.1 0-.1-.3s0-.5-.2-.8c-.1-.3-.2-.8-.1-1.4 0-.8 0-1 .2-.7 0 .1.2.5.2.8s0 .6.2.8q.1.2.3 0c.1-.2.2-.1.4.3.8 1.8 1 2 1 3 0 .7 0 1-.1 1.2l-.4.1zm-75.6-8.5l-.2.5c0 .5-.2 1-1.4 3.2-1 1.8-1 2.2-1 3.3 0 .8 0 1 .1 1.5.2.6.6 1 1 1.3s.6.2 1 0c.6-.3 1-1.2.4-1.6-.3-.3-.6-.3-.8 0-.3.2-.2.6 0 .7.3.2.2.6-.2.6-.6 0-.8-.5-.5-1.4 0-.3.2-.6.2-.8s.1-.3.4-.3c.5 0 .7-.2.8-.8v-2c.1-.3.2-.7.2-1.4v-1.3l-.1-1.6h.1zm-.5 8.3c.2 0 .4.2.4.4s-.1.2-.3 0-.2-.4 0-.4h-.1zm.3-5.6v.7c0-.5-.2-.3-.2.2 0 .2 0 .6-.2.8-.3.6-.3 1 0 .6q.2-.2.3 0v.6q0 .4-.2.3h-.2s0 .2-.3.2-.2 0-.2.2c0 0 .2.2.3.2s.2 0 .2.1c-.1.2-.5.1-.6-.1q-.3-.3-.3.2c0 .3 0 .7-.1 1.2 0 .4-.2.7-.2.7-.1 0-.2-.5-.2-1.5s0-1.2.3-2c.4-1 1.7-3.7 1.7-3.6v1h-.1zM315 245v-14.7l.2-86.4v-4.6h-37c-3.3 0-10 0-14.7-.1h-10c-.6 0-2.7 0-4.6-.1h-3.4V172l-.2 62v11h44l25 .2h.5v-.2zm-3-.2h-3l-43-.2h-20.6v-11l.2-58.3.1-36h4.5l51 .4H315v35l-.1 36.3v34H312h0z"/><path d="M314.7 140s-11.8 0-26-.1h-26l-15.2-.2h-1.3v25.8l-.2 67.2v7.8 4h19.7l35.2.2h13.6v-15.4l.1-44.6.1-36.8v-7.7l.1-.2zm-.1 3.7l-.1 27.3-.1 48.6v24.8h-4.6c-2.5 0-8.2 0-12.7-.1-4.5 0-17.8 0-29.6-.1H246V242l.2-9.7.1-14 .1-42.5v-36h4l10.6.1h12.3 41.3v3.7zm4.7 90.4c.3.2.4.2.4-.1s-.4-1-.6-1.2c-.6-.4-1.6 0-2 .8-.4 1-.3 2 .4 2.6.4.4.5.4 1 .4.7 0 1.3-.6 1.3-1.3s0-.4-.4-.2c-.4.1-.5 0-.5-.5 0-.4.2-.6.5-.5h0zm-.8 1c0 .1.3.3.5.4l.4.2-.3.2c-.4.3-.7.3-1.2 0-.7-.4-1-1.5-.4-2.3.1-.2.4-.5.5-.6.3-.2.8-.1 1 0 .3.2.2.5 0 .5s-.7 1-.4 1.5l-.1.1z"/><path d="M318 233.4c-.3 0-.8.8-.8 1.2s0 .3.2.5c0 .2.2.4.3.4s0 0 0-.2v-.7c0-.4 0-.6.3-.8.3-.3.3-.4.1-.4h-.1zm-76 3c1 0 1.6-1 1.6-2s-1.2-2.4-2.2-2c-.5.2-.8 1-.6 1.3 0 .1.1.2.3 0 .2 0 .3 0 .4.1.2.2.2.6 0 1 0 .1-.4 0-.5 0-.1-.2-.3 0-.3.4s0 .5.3.8.4.4.8.4h.2zm-.6-1s.3-.1.4-.2c.2-.2.3-.3.3-.7 0-.5-.2-1-.5-1s-.3-.4.1-.6c1-.4 2 1 1.5 2.2 0 .2-.3.5-.4.6-.4.4-.7.4-1 .2-.4-.3-.5-.6-.3-.6z"/><path d="M242.8 235.4c.3-.4.5-1 .3-1.4-.2-.6-.3-.4-.3.3s0 .7-.2 1c-.1.1-.3.3-.3.4-.1.3.2.1.5-.2zm74.7-12.4c-1 .4-1 2 0 1.8.3 0 .4 0 .5-.3 0-.2 0-.3-.1-.5-.4-.5-.1-.8.4-.6.4.2.4.5.3 1 0 .3-.2.6-.2 1q0 .4-.4.4c-.7 0-1 1-1 1.8v1c-.1.3-.2 1-.2 2.3v2c.1.2.3 0 .4-.5 0-.4.3-1 1-2.5 1-2.2 1.4-3 1.4-4.2 0-1.8-1-3-2.2-2.5h-.1zm0 1.3c0 .2-.4 0-.4-.2s0-.2.3 0c0 0 .1.2.1.3v-.1zm1.7 1c0 1.2 0 1.7-1 3.8l-.8 1.7c0 .1 0 .2-.2.2q-.2.1-.1 0v-1c0-.6 0-.7.1-.5s.1.2.2-.3c0-.3.2-.8.3-1 .2-.5 0-.7-.1-.4q-.1.2-.2-.1v-.6q0-.3.6-.4c.5 0 .5-.2.1-.3-.3-.1-.3-.2-.1-.2.1 0 .3 0 .4.2.3.3.4.2.3-.3V225c.3-1 .4-1 .5.4l.1-.1zm-76.6-2.4c-.5 0-.6 0-1 .4-.6.6-.8 1.4-.7 2.6 0 1.2.5 2.2 1.8 4.6.2.4.5 1.2.6 1.6 0 .3.2.5.2.4v-5.2c0-.8 0-1-.2-1.3-.2-.4-.5-.5-.8-.4q-.2 0-.3-.4c0-.2-.1-.5-.2-.6-.2-.3-.1-1 0-1.3.2-.2.6-.3.8 0 .1.1 0 .2 0 .5-.3.4-.3.7 0 1 .2.2.4.2.7 0 .2-.2.3-.3.3-.7s0-.5-.3-.8-.4-.3-.8-.3h-.1zm-.4 3.4c0-.1.2-.2.2-.2.2 0 .4.6.3 1v.5c.1.1.3-.5.2-1v.7c0 .5 0 1 .1 1.2s.2.8.2 1.4v1c-.1 0-.3-.6-.3-1 0-.3 0-.7-.1-.8q-.1-.2-.3 0c-.1.2-.1.1-.3-.2l-.6-1.3c-.3-1-.4-1-.3-2 0-.5 0-1 .1-1.2.2-.3.5 1 .4 1.6 0 .6 0 .8.3.4h.1zm1-2c-.2.2-.3.2-.3 0 0-.1.2-.5.4-.5s.1.4 0 .5h-.1zm74.3-2c.4.2.7.2.7 0 0-.1.2-.1.5 0 .2 0 .5.1.5.1.2.1.3 0 .2-.6v-.6c.2-.1 0-.8-.2-1-.3-.3-.4-.3-1-.3s-.8 0-1 .3c-.5.6-.2 2 .5 2.2h0zm0-2s.2 0 .3-.1v.2c-.3.3-.3.5 0 .3.1 0 .4-.2.6-.3h.6c.3.2.2.6 0 .5-.3-.1-.3.1 0 .5.1.2.3.4.3.5 0 .2-.5.2-.8 0s-.5-.2-.5.1-.1.3-.4 0c-.4-.5-.4-1.4 0-1.6l-.1-.1zm-76.3 2s.4-.1.6-.2c.3 0 .4 0 .5.1 0 .2.1.2.6 0 .6-.2 1-.7 1-1.4s-.4-1.3-1.3-1.3c-.6 0-.7 0-1 .3-.4.4-.6 1-.3 1 .2.1.2.2 0 1v.2s0 .1.2 0h-.2zm.6-2.2c.4-.3 1-.3 1.2 0s.3.4 0 .3h-.2v.1c.1 0 .3.8.3 1l-.3.3c-.2.1-.3 0-.3-.1 0-.4-.1-.4-.4-.1-.2.1-.4.3-.5.3q-.2 0-.1-.3c0-.2.1-.4.2-.5.2-.2.2-.3 0-.3s-.3-.4.1-.6h0zm77.4-3.2h-.6c-.2.2-.3.1-.3 0 0-.3-.7 0-1 .3-.3.3-.3.4-.3 1s.2 1 .6 1.3c.3.1 1 .1 1.4 0 .6-.2 1-1 .6-1.3-.1 0-.1-.2 0-.6q.2-.7-.2-.7h-.1zm-.3 1.5c.3 0 .3.2 0 .5-.3.2-.8.3-1 .2s-.5-.4-.2-.4.2 0 0-.2c0-.1-.2-.4-.2-.6 0-.3 0-.4.2-.5.3-.2.4-.2.4.1s.1.3.5 0c.6-.4 1 0 .4.5-.3.3-.3.4 0 .4h0zm-76.6-1.7c0 .1-.2.1-.7 0-.3 0-.6-.1-.6 0v1.2c-.2.1-.2.2 0 .5.2.5.3.6.7.8.2 0 .6.1 1 .1.8 0 1-.3 1.2-1.2q0-.6-.3-1c-.4-.4-1-.6-1-.4h-.1zm.7 2c-.2.2-.4.3-.4.3v-.2c.2-.2.3-.4.1-.4s-.1 0-.2.1c-.2.2-.8.3-1 .1s-.2-.5 0-.5.3-.1 0-.4c-.1-.1-.2-.3-.2-.5q0-.3.3-.2c.1 0 .3.1.4.2.2.2.4.2.4 0 0-.3.3-.3.6.1.3.5.3 1 0 1.3v.1zm75.3-9.3l-1-2.4c-.1-.4-.3-.8-.3-.7-.2 0-.1 4 0 4.2 0 .1.1.5.1 1 0 1 0 1.2.2 1.5.2.2.4.3.6.3.3 0 .4 0 .4.3 0 .2 0 .4.1.6.3 1 0 1.7-.6 1.6-.4 0-.4-.3 0-.7q.3-.3.1-.6c0-.2-.3-.3-.4-.3-.7 0-1 1-.4 1.6.3.3.4.4.8.4s1-.3 1.4-1c.3-.5.3-.6.3-1.6 0-1.3-.2-1.8-1.3-4v-.1zm-.8 5.5c-.1.2-.4.3-.4 0s.3-.4.4-.3v.3zm1.7-1.4c0 .7 0 1-.1 1.2h-.2c-.1-.2-.3-1.4-.2-1.8 0-.5 0-.6-.4-.2l-.2.2v-.3c-.2-.2-.3-.6-.3-.8 0-.6-.2-.5-.3.2v-.4c0-.6 0-1-.1-1.2s-.2-.6-.1-1.3v-1c.1 0 .3.6.3.8s.1 1 .3 1h.2l.1-.1.6 1.3c.5 1.2.5 1.3.5 2.3h-.1zm-77.2 2.3h.6c.8 0 1.5-1 1-1.6-.3-.3-.6-.4-1-.2s-.3.5 0 .8.2.6-.2.6c-.6 0-.8-.6-.5-1.5 0-.2.2-.6.2-.7q0-.2.3-.2c.4 0 .8-.3 1-.8v-2c.1-.2.2-.8.2-2.3l-.1-2c-.1 0-.2.2-.2.5s-.2.8-.4 1c-2 4-2 4.2-2 5.5 0 .8 0 1 .2 1.5.3.6.6 1 1 1v.2zm1-1.4c.1 0 .4 0 .5.2.1.3-.1.3-.3 0-.1-.1-.2-.3-.1-.3l-.1.1zm-1.6-1.8c.1-.8.4-1.5 1.2-3l.7-1.5s.1-.2.2-.2 0 0 0 .2v.8c0 .5 0 .6-.1.6s-.2 0-.2.4c0 .3-.2.7-.3 1l-.2.5c0 .2.2.1.4 0 .1-.1.1 0 .2.4v.6h-.5c-.5 0-.6.3-.1.4q.3 0 .1.1c-.1 0-.3 0-.4-.1-.3-.3-.4-.3-.3.3v1c0 .2-.1.5-.2.7 0 .4-.2.4-.3 0-.1-.8-.1-1 0-1.6l-.2-.3zm78-8.5c.1.2.3 0 .3-.4s0-.5-.3-.8-.4-.4-.8-.4c-1.2 0-2 1.5-1.5 3 0 .2.3.6.6.8.4.3.6.4 1 .4.6 0 1-.5 1.2-1 0-.5 0-.7-.3-.5-.3.3-.6-.3-.5-.8.1-.3.4-.4.6-.2l-.2.1zm-.4 1.3c.3 0 .3.2 0 .4-.5.5-1.3.2-1.7-.6-.2-.5-.3-1 0-1.4.4-1 1-1.2 1.4-1 .3.1.5.4.5.6s0 0-.2 0c-.4 0-.6.4-.6 1s.2 1 .6 1v.1z"/><path d="M318 203.2c-.5.4-.6 1-.4 1.6.2.4.3.3.2-.3 0-.5 0-.6.3-1 .3-.5.3-.7-.1-.3zm-76.6.4c.4 0 .6.2.5.6 0 .3-.3.5-.6.3-.2-.1-.3 0-.3.3s.3 1 .7 1.2c1 .7 2.5-1 2-2.5-.1-.5-.7-1.2-1-1.4-.6-.3-1.4.2-1.6 1-.1.5 0 .6.4.6h-.1zm.3-1c.3-.2.7-.2 1 0 1 .6 1 2 .2 2.8-.4.4-.8.4-1.2.1-.3-.2-.4-.5-.1-.5s.7-.5.7-1-.3-1-.6-1-.3-.3 0-.5h-.1z"/><path d="M243 205c.4-.5.4-1.2.1-1.5q-.2-.2-.1.3c0 .3 0 .5-.2 1-.1.3-.3.5-.3.5v.2c0 .2.2.1.6-.3h-.1zm75.3-12.2q-.5 0-1 .3c-.3.3-.4.4-.4.8 0 .8.5 1.2 1 .8.3-.2.3-.5 0-.8-.1 0-.2-.3-.2-.4q0-.2.3-.2c.6 0 1 .6.6 1.3 0 .2-.2.6-.2.8 0 .3-.1.3-.5.4-.3 0-.5.1-.6.4-.2.3-.2.4-.2 1.2v1.2c0 .3-.1 1-.1 2.3 0 1.6 0 2 .1 2s.2 0 .2-.2c0-.4.4-1.3 1.2-3 1.2-2.4 1.3-2.7 1.3-4 0-1 0-1.2-.2-1.6-.4-.7-.8-1-1.4-1v-.1zm-.4 1.4c0 .2-.3.2-.4 0h0c.1-.1.4 0 .4.2zm1.6 1.6c0 1-.3 1.7-1 3-.3.5-.6 1-.7 1.5-.1.3-.3.6-.3.6v-1.4s.1-.3.1-.6.2-.7.3-1c.2-.3.2-.4 0-.4 0 0-.2 0-.2.1q-.1.2-.2 0v-.6q0-.4.3-.5h.5s.1 0 0-.1c0-.1-.2-.2-.3-.3q-.2 0 0-.1c.1 0 .3 0 .4.2s.3.2.3.2v-.8c0-.8.2-1.5.3-1.5.2 0 .3.7.2 1.6h.3zm-76-3c-.3-.3-.4-.3-.8-.3-.6 0-1 .4-1.4 1-.2.4-.3.6-.3 1.5 0 1.2.2 2 1 3.2s1.4 2.7 1.6 3.4c.1.4.3.6.3.6.1 0 0-4 0-4.2 0-.2-.1-.7 0-1.2q0-1-.2-1.2c-.1-.1-.4-.3-.6-.3q-.3 0-.5-.7c-.3-1-.2-1.5 0-1.7.6-.4 1 0 .6.6-.3.4-.2.7.2 1q.3 0 .6-.2c.4-.4.3-1-.2-1.3l-.2-.2zm-.3 3.5h0zm-1-.4c.2-.2.5-.3.4 0v.8c0 .5 0 .6.2.5.1 0 .2 0 .2.2s0 .4.2.7c.1.3.2.8.1 1.4 0 1 0 1-.2.7 0-.2-.2-.6-.2-1s0-.6-.2-.8q-.1-.2-.3 0c-.1.2-.2 0-.5-.7l-.6-1.3c-.2-.7-.2-2.8.1-2.6.2 0 .3 1.4.3 1.8q0 .5.4.2h.1zm1-2c-.2.1-.4.1-.4 0s.1-.2.2-.3l.2-.2v.5zm75.6-8a24 24 0 0 1-1.6-3.3c-.1-.4-.3-.7-.3-.8-.2 0 0 4 0 4.2 0 .2.1.5 0 1 0 1 .2 1.7 1 1.7q.3 0 .4.3c0 .2.1.6.2 1 .2.8 0 1.2-.5 1.3-.4 0-.5-.2-.2-.6q.3-.4 0-.8c-.2-.2-.3-.3-.4-.2-.4.1-.6.4-.6 1s0 .5.4.8c.3.3.5.3.8.3s.5 0 1-.5c.6-.6.8-1.4.7-2.5 0-1-.4-2-.8-2.8h.1zm-1.3 4.5c-.1.3-.5.3-.4 0 0-.2.4-.4.5-.3v.3h-.1zm0-2.7h0zm1.8 1.6c0 .4-.1.8-.2 1-.2.2-.4-.7-.4-1.5q0-1-.2-.6c0 .1-.2.2-.3.2-.2 0-.4-.5-.4-1s0-.5-.2-.4c-.1 0-.2 0-.2-.3s0-.5-.2-.7c-.2-.4-.2-2 0-2s.4.6.3.7v.6c.1.5.2.5.4.5s.3 0 .7 1c.5 1.2.7 2 .6 2.8h.1zm-76.7-.8c.2 0 .4 0 .6-.3.2-.2.3-.4.3-1.3 0-.6 0-1.2.1-1.4 0-.2.1-1 .1-1.5v-1.3c0-.7 0-1.3-.2-1.2 0 0-.1.2-.2.3 0 .5-.3 1-1.2 2.8-1 2.2-1.4 3-1.4 4 0 1 0 1 .3 1.6.2.4.4.7.6.8s.5.2.8.2c.4 0 .6 0 .8-.3.2-.2.3-.4.3-.8 0-.5-.2-.8-.6-.8s-.4 0-.5.3q-.2.3.1.6c.2.2.3.3.2.5-.2.3-.6.3-.8 0s-.2-.7 0-1.7c.1-.5.2-.5.5-.5l.2-.1zm.4 1.3c.1-.1.4.1.4.4s-.2.2-.4 0c-.1-.1-.1-.3 0-.3h0zm-.5-1.7s-.1 0-.1-.1 0 0 .1 0c0 0 .1 0 .1.1s0 0-.1 0zm-.3-.4h-.2c-.1 0-.2 0-.1.4 0 .3 0 .8-.1 1.2 0 .4-.2.7-.2.7l-.2-.6V188c.1-1 .2-1 1-3l.8-1.7.2-.4v.7c0 .5-.1.8-.2 1 0 0-.2.3-.2.5s0 .5-.2.8c-.3.6-.3 1 0 .5l.2-.2c.1.1.2 1 0 1 0 0-.3.2-.5.1h-.4v.3zm77-7.2c-.4.2-.7-.3-.5-1 0-.2.5-.2.6 0h.2c.2-.3 0-.8-.3-1.2-.5-.6-1-.6-1.7 0-.8.7-1 1.7-.5 2.6.2.5.5.8 1 1 .2.1.8 0 1-.2.2-.1.6-.8.6-1s-.2-.3-.4-.2h-.1zm0 .6v.2s-.1.1-.3.2c-.2 0-.4.2-.5.2-.3 0-.8-.5-1-.8-.4-.8-.1-2 .6-2.3.4-.2.6-.2 1 0 .3.3.4.5 0 .5s-.3.1-.4.3c-.2.2-.2.4-.2.8 0 .6.2.8.6.8s.3 0 .2.2v-.1z"/><path d="M317.7 179.5c-.2.4-.2 1 0 1.3.2.2.3.2.2-.1-.1-.4 0-1 .3-1.4l.2-.4c-.1-.1-.5.2-.7.6h0zm-76 2.3c.4.2 1 0 1.4-.3s.6-.8.7-1.3c0-.3-.2-1.4-.4-1.7-.4-.6-1.4-1-2-.5-.3.2-.5.6-.6 1q0 .3.3.3c.3 0 .4 0 .5.3v.6c-.2.3-.3.3-.5 0q-.1-.2-.2 0v.7c.2.5.3.7.6.8l.1.1zm0-1c.4-.1.6-.5.6-1 0-.6-.1-.8-.6-1-.4 0-.4-.2 0-.5.3-.3.8-.3 1.3.1.8.6.8 2 0 2.6-.4.4-1 .4-1.2.1-.2-.2-.2-.4 0-.5l-.1.1z"/><path d="M243.2 180.5c.2-.4.2-1 0-1.2-.2-.4-.3-.3-.2.3 0 .6 0 1-.4 1.3-.1 0-.2.2-.1.3.1.2.5-.2.7-.6v-.1zm74-2c.1.2.3-.1.4-.6 0-.3.4-1.2 1-2.6 1.2-2.4 1.4-3.2 1.3-4.5s-.8-2.2-1.7-2.2-.5 0-.8.4c-.3.3-.4.4-.4.8s0 .5.2.6c.3.3.7.2 1-.2q.1-.3 0-.5c-.4-.4-.2-.8.3-.7.1 0 .3.2.4.4.1.3 0 .4 0 1l-.2.8s-.1.2-.3.2c-.7.2-1 .7-1 1.7v1c-.1.3-.3 4-.1 4.2l-.2.1zm.4-8.4c-.1-.1-.2-.4 0-.4s.4.3.4.4-.2.1-.4 0zm0 6.5V175c0 .4.2.3.2-.1s0-.6.2-1c.2-.6.2-.8 0-.6-.1.1-.2 0-.2-.4s0-.5.1-.6c.1 0 .3-.1.4 0 .2 0 .3 0 .3-.2 0-.1 0-.2 0 0 0 0 0 .1.2.1.1 0 .1-.1 0-.5 0-.4 0-.7.1-1.2.2-.8.4-.6.4.4 0 1-.1 1.7-1 3.4l-1 1.8c-.2.6-.4.7-.3.3h.4zm-74.6-8.3c-.4 0-.5 0-1 .3-.3.2-.5.6-.7 1-.3.6-.3.7-.2 1.7 0 1 .1 1.3.4 2l.4 1c.2.2 1.3 2.5 1.4 3 0 .2.2.6.3.8.2.6.3.2.2-1v-1.6c0-.4 0-.7-.2-1.6v-1c.1-1-.3-1.6-1-1.6s-.3 0-.3-.2c0 0 0-.5-.2-1-.1-.6-.2-.8 0-1 .1-.2.2-.3.5-.3.5 0 .5.2.2.7-.2.3-.2.4-.1.6.2.3.6.4 1 0 .5-.6 0-1.6-1-1.7v-.1zm-.5 3.4l.2-.2c.2 0 .3.8.3 1s0 .4.1.3q.2 0 .2.3c0 .2 0 .6.2.8 0 .3.1.7.1 1.2v.8l-.3-.7c0-.2-.1-1-.3-1h-.2c-.1 0-.2 0-.5-.8-.6-1.4-.7-1.8-.7-3 0-.8.1-1 .2-1 .2.2.4 1.3.3 1.7 0 .5 0 .6.3.3l.1.2zm1.2-2c0 .3-.5.3-.5 0 0-.2.4-.4.5-.3v.3zm74-1.8c.4.2.7.3 1 0h.4c.2 0 .4 0 .6.1h.3v-.5c-.1-.4 0-.6 0-.7.3-.4-.1-1.2-.8-1.4-1.2-.4-2.2.3-2 1.4 0 .5.2.7.6 1v.1zm.1-2q.2 0 .2.1c0 .2 0 .3.3 0 0 0 .3-.2.5-.2.3 0 .4 0 .5.2.2.3.1.4-.1.4s-.3.2 0 .5c.5.4 0 1-.4.5-.4-.3-.5-.3-.5 0s-.2.3-.4 0c-.4-.5-.4-1.4 0-1.5h-.1zm-74.8 1.8c.8-.2 1.2-.8 1-1.6 0-.6-.4-1-1-1-1-.2-1.5.2-1.7 1v.5c.1 0 .1.2 0 .6v.6h.6c.4-.1.5 0 .6 0 0 .1.2.1.4 0v.1zm-.5-.7c-.3.2-.6.4-.7.2 0-.1 0-.5.3-.8v-.2c-.4-.2-.4-.4 0-.7.4-.2 1-.2 1.2 0l.2.2h-.2q-.2 0 0 .3c0 .1.2.3.2.4s0 .2.1.3c0 0 0 .2-.1.3-.3.3-.4.2-.5 0 0-.3-.1-.3-.4 0h-.1zm77-4.6c-.4.1-.8.1-.8 0s-.2-.1-.4-.1c-.3 0-.5 0-.8.4-.4.4-.4.5-.4 1 0 .8.3 1.2 1 1.4.3 0 1 0 1.2-.2.4-.2.8-1 .5-1.2v-.6c.1-.6 0-.8-.3-.6h0zm-.3 2c-.4.3-1 .4-1.3.1q-.2-.2 0-.2.2 0 0-.3c0-.1-.2-.4-.2-.7q0-.4.1-.5c.3-.2.3-.1.4.1 0 .3.2.3.5 0 0-.1.3-.2.4-.2.3 0 .3.4 0 .7-.2.3-.2.5.1.5s.2.1-.1.5h.1zm-76-2.4c-.3-.1-.4-.1-.6 0s-.3.1-.7 0h-.6v.5c.1.3.1.5 0 .6-.2.4-.1.8.2 1 .2.2.4.3.5.4.3.1 1.3 0 1.6-.2.8-.7.5-2-.4-2.4h0zm.3 1.8c-.3.4-.6.6-.4.2.2-.3 0-.4-.2-.2-.1 0-.4.2-.6.2-.3 0-.4 0-.5-.2-.2-.3-.1-.4.1-.4s.3-.2 0-.4c-.1-.1-.2-.3-.2-.5s0-.2.3-.2c.2 0 .4.2.5.3l.3.2v-.3c0-.3.3-.3.6 0 .3.4.3.8 0 1l.1.2zm75-9l-1-2.3c-.1-.4-.3-.8-.4-.8s-.1.4 0 2v1c0 .5 0 .7.1 1.2.1.3.2.7.2.7v.7c0 .5 0 .7.2 1s.3.4.6.4q.4 0 .4.4c0 .2.1.7.2 1 .1.5.1.6 0 1-.1.2-.2.3-.5.2-.4 0-.5-.3-.2-.7.2-.3.2-.4.1-.6 0-.2-.2-.3-.5-.3-.4 0-.7.3-.7.7s.2 1 .6 1c.3.2 1 .2 1.3 0 .7-.5 1-1.7 1-3-.1-1-.4-1.7-1.3-3.6h-.1zm-.8 5.4c0 .1 0 .2-.2.2 0 0-.1 0-.1-.1s0-.2.2-.2c0 0 .1 0 .1.1zm1.6 0s-.1 0-.2-.2c0-.2-.1-.5-.2-.7V158s-.2 0-.3.2l-.2.2c-.1 0-.3-.7-.3-1 0-.2 0-.3-.1-.3 0 0-.2-.1-.2-.4 0-.2-.1-.5-.2-.7-.1-.3-.2-2 0-2 .1 0 .3.3.3.8s.2 1 .3 1 .1 0 .1-.1c0-.3.2 0 .7 1q.5 1.2.5 2.3l-.1 1.3h-.1zm-75.5-8.8c-.2-.1-.2 0-.3.6 0 .3-.3 1-.7 1.8l-1 2c-.5 1-.7 1.8-.7 2.8 0 1.2.4 2 1 2.5.8.5 2 0 2-1s0-.6-.4-.8c-.2-.1-.3-.1-.5 0-.4.2-.5.5-.1 1s0 .8-.5.5c-.3-.2-.4-.6-.2-1.3 0-.3.2-.7.2-.8 0-.2.1-.3.4-.3.7 0 1-.8 1-1.7-.1-.6 0-1 .1-1.2.1-.2.2-4 0-4h-.1zm-.6 8.4c.2 0 .4.2.4.4s-.2.2-.4 0-.2-.4 0-.4zm.1-5s-.2.2-.3.7c0 .4-.2.7-.2.8-.1.1-.1.5 0 .5s.1 0 .2-.2c0-.1.1 0 .2.4 0 .6 0 1-.6.8-.3 0-.4.2 0 .3.1 0 .2.1.1.2 0 0-.2 0-.4-.2-.3-.3-.4-.2-.3.4v1c0 .3-.2.6-.2.7-.1.1-.3-.6-.3-1.3 0-1 .2-1.6 1-3.5.4-1 .8-1.7 1-2 0-.2.1-.1.1.5s0 .8-.1.8l-.2-.1zm76-4.3q-.4 0-.4-.4c0-.5.2-.8.5-.5q.2.2.3 0c.1-.3 0-1-.4-1.2-.6-.6-1.5-.4-2 .4-.4.6-.5 1-.4 1.6.2 1 .4 1.2 1 1.6.4.2.5.2.8 0 .4-.2.7-.5 1-1 .1-.5 0-.6-.4-.6h0zm-.2 1c-.5.3-1.2 0-1.5-.5q0-.2.1-.1.2 0 .2-.4c0-.5 0-1 .4-1.4q.2-.2 0-.2c-.1 0-.7.4-.8.7 0 0 0 .1-.1 0s.4-1 .7-1c.4-.2.7-.2 1 0 .3.3.4.5 0 .5s-.7.3-.7 1 .2 1 .6 1c.3 0 .3.2 0 .5l.1.1zm-77.3-3.7c-.5.2-.8.6-.8 1v.4h.3c.3-.1.4-.1.5 0 .2.3.1.6 0 .8q-.2.2-.4 0-.2-.1-.3 0c-.2.4.3 1.3.7 1.5.6.2 1.2 0 1.8-.8s.5-2-.3-2.7c-.5-.5-1-.6-1.4-.4v.1zm1.2 3c-.4.5-.8.6-1.2.3-.3-.2-.4-.5 0-.5.5 0 1-1.2.4-1.6-.1-.1-.3-.2-.4-.2-.3 0-.3-.2-.1-.4.3-.3.7-.4 1-.1 1 .5 1 1.8.4 2.7l-.2-.2z"/><path d="M243 149c.2.3 0 1-.3 1.3-.1.2-.3.3-.3.4 0 .3.6-.3.8-.8.1-.4 0-1.2-.3-1.2s-.2 0 0 .3h.1zm75.6-10.7c-.8-.3-1.6.2-1.6 1s.8 1 1 .5q.1-.3-.1-.6c-.4-.5-.2-.8.4-.6.4.2.5.6.3 1.2 0 .3-.2.7-.2 1s-.1.3-.3.3c-.7 0-1 .6-1 1.8v1.2c-.1.3-.2 1-.2 2.3 0 1.4 0 1.8.1 1.8s.2-.2.3-.6c.1-.5 1.3-3 1.7-3.6.2-.3.8-2 .8-2.7.1-1.4-.4-2.6-1.3-3h-.1zm-.8 1.3c0 .2-.2.2-.4 0-.1-.1-.2-.5 0-.5.1 0 .4.4.4.5zm1.4 0c.1 0 .2.5.2 1.3 0 1-.2 1.5-1.2 3.6l-.8 1.7s0 .1-.1.1 0 0 0-.2v-1.4c.1.3.2.1.2-.2s.1-.6.2-1c.2-.6.2-1 0-.5-.2.3-.3.1-.3-.4s.2-.7.7-.7c.1 0 .2 0 .2-.1s-.1-.2-.3-.2-.3 0-.2-.1c.1-.2.4-.1.6.1.3.3.4.2.3-.4 0-.6.1-1.6.3-1.6l.2-.1zm-76.6-1.7c-1 .1-1.7 1.4-1.6 3 0 1 .3 1.7 1.3 3.6.4 1 1 2 1 2.4.2.4.3.8.4.7.1 0 0-4 0-4.2 0-.2-.1-.7 0-1.2 0-1-.2-1.4-.8-1.5-.3 0-.4 0-.5-.8-.2-1-.2-1.2 0-1.5s.6-.3.8 0v.4c-.3.4-.3.8 0 1 .2.2.3.2.6 0 1-.5.1-2-1-2h-.3zm-.4 3.5c.3-.5.6 0 .6.8v.5c.1 0 .2-.7.2-1v-.2s.1.3 0 .8v1c.1.3.2.7.2 1.4v1c-.1 0-.3-.7-.3-1s-.2-1-.4-1-.1 0 0 .1v.1c-.3 0-1-2.2-1.2-3 0-.7 0-1.7.2-1.7s.5 1.4.4 1.7c-.1.4 0 .6.2.3h.1zm1.3-2.3c0 .2-.1.2-.3.3q-.3 0 0-.3.3-.3.3 0zm71.7-4c-.5-.2-.7-.3-1.5-.3-1.2 0-2 .3-4 1.2l-3 1.3c-.3 0-.4.2-.3.3s.2 0 .3 0h2l2-.1c.2-.1.5-.1 1 0 .8 0 1 0 1.2-.2s.3-.4.3-.6 0-.4.2-.4.4 0 .7-.2c.6-.2 1-.2 1.4 0s.3.3.2.5c-.2.3-.3.3-.7 0s-.8-.2-1 .3c0 .7.7 1 1.3.5 1-.7.7-1.8-.6-2.4h.2zm-.8.6c-.5.1-.8.2-1.2.1h-.6l.2.2c.1.1.2.3.2.4 0 .2-.8.4-1 .3-.2 0-.4 0-.3.2h1q.2 0 0 0c-.3.1-.5.1-.8 0h-1c-.6.2-2.3.3-2.3 0s1-.4 1-.3 1-.1 1-.3c0 0 0-.1-.1-.2-.2 0 1.2-.8 2-1 .7-.2 2-.2 2.5 0h.3l-.7.3v.4zm.6 1.6c-.2-.1-.2-.4 0-.4s.2 0 .3.2c.2.2 0 .4-.2.2h-.1zm2.6.3c.3.1.5.2.8.1.6 0 .8-.2 1-.7s.3-.7 0-.7-.1 0 0-.4c0-.2.1-.5.2-.6.2-.3 0-.4-.6-.2q-.5.1-.6 0c0-.3-.3-.2-.8 0s-.7.7-.7 1.4c0 .6.2 1 .6 1.2v-.1zm0-.8c.2.2.3 0 .1-.2-.3-.4-.3-.8-.1-1 .2-.3.5-.3.5 0s.2.4.4.2.6-.4.7-.3c.2.1.1.4-.1.7s-.2.5.1.5.2 0 0 .2c0 .1-.2.3-.4.4-.6.3-1.4 0-1.4-.3s0-.1.2 0v-.2zm-48 .7c.6.3 1.3 0 1.3-.5s-.6-.7-1-.3c-.5.4-.8-.1-.4-.6.3-.3.6-.3 1.3-.1.3 0 .6.2.8.2s.3 0 .2.2c0 .3 0 .7.5 1 .3.1.5.2 1.2.1h1.2c.3.1 2.4.2 3.7.2.6 0 .6-.3 0-.3-.4 0-1-.3-2.5-1-2.3-1.2-3.2-1.5-4.4-1.5-.7 0-1 0-1.5.3-.7.3-1 .8-1 1.4s.3 1 .6 1l.1-.1zm.5-.5c.3-.3.4-.3.4 0 0 .2-.1.2-.3.3h-.3l.3-.2h-.1zm1.2-2c1-.1 2 .2 3.8 1a12 12 0 0 0 1.8.8h.2c0 .1 0 .2-.2.2h-1.6c.4-.1.4-.2-.2-.3-.3 0-.8-.2-1-.3-.4-.2-.6 0-.3.2.1.1 0 .1-.4.2h-.6v-1c0-.1-.3.3-.3.4s0 .2-.1.2c-.2 0-.1-.4.1-.6.3-.3.3-.4-.2-.3-.4 0-2-.2-2-.4s.3-.2 1-.3h-.1zm8.7 2.4c1.5.4 3-1 2.4-2-.2-.4-.4-.5-1-.8-.2 0-.3-.2-.3-.3s0-.1-.1-.1 0 .5.1.7c.2.2 0 .5-.1.6-.5.3-1 0-.8-.4.3-.5-.6-.5-1.2 0-.3.3-.4.4-.4.8 0 .7.6 1.3 1.4 1.6v-.1zm-.7-2.2l.3-.3v.3c.2.5.5.6 1 .6s1-.2 1-.6.2-.4.5 0c.4.6.2 1.2-.6 1.6-.2 0-.6.2-.8.2-1.3 0-2-1.2-1.3-1.8z"/><path d="M280.2 137h.8c.1 0 .2 0 .3-.1.2-.1.1-.1-.4-.1s-.7 0-1-.3c-.2-.2-.4-.3-.4-.2 0 .2.4.6.8.7h-.1zm2.2.6a32 32 0 0 0 4.3-.1c.2 0 .6-.1 1 0 1 0 1.7-.2 1.7-.8q0-.3.8-.5c1-.2 1.2-.2 1.5 0s.3.6 0 .8c-.1 0-.2 0-.4-.1-.5-.5-1.2 0-.8.6.1.3.2.3.7.3s1-.3 1.2-.8c.2-.7-.3-1.4-1.3-1.8-.3-.1-.7-.2-1.5-.1l-1.4.1c-.2 0-1 .5-2 1l-2.6 1.2-1 .4-.3-.1zm8.8-.2c0 .2-.2.1-.4 0s-.3-.5 0-.5c.2 0 .6.4.5.5h-.1zm-2.6-.4c-.1 0-1 .2-1 0 0 0 .3 0 .6-.1h.4-.1zm-3.4 0c.6 0 1-.2 1-.4h-.3c-.2 0 0 0 .2-.2 1.8-1 3.2-1.2 4.2-1 .3 0 .6.2.6.2s-.4.2-1 .3-1 .2-1 0c-.4-.1-.5 0-.2.3.2.2.3.5 0 .6q0-.1-.2 0h-.7c-.3 0-.4 0-.4.1 0 0-.2.2-.5.3-.6.1-2.8.3-2.8.2s.6-.3 1-.3h.1zm9 .7c.6 0 .8-.2.8-.6 0-.6-.5-.8-1-.4-.2.2-.5.3-.6 0-.3-.7.6-1 1.5-.7.2 0 .5.2.6.2.2 0 .3 0 .3.3s.1.4.3.6l.3.3h1c.7-.1 1-.1 1.3 0 .5.2 4.2.2 4 0 0 0-.3-.2-.7-.2s-1.3-.5-2.4-1c-2.3-1.2-3-1.4-4.2-1.4-.8 0-1 0-1.5.3-.7.4-1 .8-1 1.5s0 .5.3.8c.2.2.4.3.8.3v.1zm.4-.8c.1 0 0 .3-.1.5-.2.2-.4.2-.4 0s.4-.5.5-.5zm.4-1.6c1.2-.2 2.3 0 5 1.3l1.5.7h-1c-1 0-1 0-.7-.1.4-.1.3-.3-.3-.3-.2 0-.5 0-.7-.2s-.5-.2-.6-.2c-.2 0-.1 0 0 .2l.2.2h-.6c-.6.1-.7.1-.7 0v-.7s-.1.1-.2.3c0 .3-.2.3-.2 0s0-.3.2-.4c.3-.2.2-.3-.3-.2-.5 0-2-.2-2-.4s.3-.1.6-.2h-.1zm8.6 2c.4.3.6.3 1.2.3s.8 0 1.2-.3c.6-.4.8-.7.8-1.3 0-.7-.6-1.2-1.2-1.2s-.5.1-.3.3c.1 0 .1.4 0 .5-.2.1-.7 0-1 0q-.2-.2 0-.4c.2-.2.1-.3-.3-.3-.7 0-1.3.6-1.3 1.2 0 .4.4 1 1 1.3l-.1-.1zm-.2-1.8c.3-.3.5-.3.5 0s.1.3.3.4c.6.4 1.5 0 1.5-.5s0-.2.4 0c.2.1.2.3.2.6 0 .5-.3 1-1 1.2-.7.3-1.5.1-2-.4-.4-.5-.4-1 0-1.3zm1 1.5c.4.2 1.4 0 1.4-.2s0-.1-.4 0-1 0-1.3-.3c-.2-.2-.4-.3-.4-.1s.4.5.7.6h0zm-46 .4h.3 3 .7c.3 0 1-.2 1.2-.1h1c.4 0 .8-.4.8-.8s0-.3.7-.5c1.2-.3 1.6-.2 1.8.2.2.5-.2.8-.6.5-.5-.4-1-.2-1 .3s1 .8 1.5.3c.4-.3.5-1 .3-1.5-.2-.4-1-1-1.6-1l-2.8.2c-.3.1-1.3.6-2.2 1l-2.3 1c-1 .3-.8.3-.7.4v.1zm8.6-.2c-.2 0-.5-.4-.3-.5.1 0 .5.2.5.4s0 0-.2 0v.1zm-2.4-.4c-.1 0-1 .2-1 0 0 0 .3 0 .6-.1h.4l-.1.1zm-3.5 0c.3 0 1-.2 1-.4 0 0 0-.1-.2 0-.2 0-.3 0 0-.2 2.2-1 2.5-1 3.2-1 .8 0 1.6 0 1.7.2 0 .2-1.3.4-1.8.3-.5 0-.6 0-.3.3.1.1.2.2.2.3s-.5.3-1 .3-.4 0-.4.1-.3.2-.6.3c-.7.2-2.7.3-2.7.2s.8-.4 1-.3h-.1zm-15.6.5c.4.2.5.2 1 0 .2 0 .4-.2.4-.4.2-.6-.5-1-1-.5-.3.3-.6.2-.5-.2 0-.5.6-.7 1-.6.2 0 .6.2 1 .2q.5.1.5.5c0 .4.3.7.7.8h2c.5.2 4.2.3 4.3 0 0 0 0-.1-.2-.1-.4 0-1.3-.4-3.4-1.4-2.3-1.2-3.2-1.4-4.4-1.2s-1.8.7-2 1.5c0 .5.2 1 .6 1.2l-.1.2zm1-.7v.3c-.1.2-.5.3-.5.1 0-.1.4-.5.5-.4h0zm.2-1.5c.2 0 .5 0 .7-.1.3 0 1.4.1 2 .3l3.8 1.8h-1.7c.3 0 .3-.2 0-.2s-.6 0-1-.2c-.6-.2-1-.2-.6 0 .2.1.1.1-.4.2h-.7v-.5c0-.5-.2-.6-.4-.1-.1-.2 0-.3 0-.4.3-.2.2-.3-.3-.2-.5 0-2-.2-2-.4 0 0 .2-.1.4-.1v-.1zm9 2.2c.5.2 1.3.1 1.8-.1.6-.3 1-.7 1-1.2 0-.7-.5-1.4-1.3-1.4s-.3 0-.2.4v.4h-.4c-.3 0-.5 0-.6-.2v-.2s.1-.1.1-.2-.1-.1-.4-.1-.5 0-.8.4c-.4.4-.5.7-.3 1.3.1.4.7.8 1 1l.1-.1zm-.6-2c.3-.3.5-.3.4 0 0 0 0 .3.2.4.5.5 1.7.3 1.7-.4s.3-.2.5 0c.4.6 0 1.5-1 1.7-.6.2-.8.2-1.3 0-.8-.4-1-1.2-.6-1.7h0z"/><path d="M255.7 136.7c.4.2.8.2 1.2 0 .5-.2.4-.3-.2-.2-.6 0-1 0-1.3-.4 0-.1-.2-.2-.2-.1-.1.1.2.6.5.7h0zm-12.3-2h-1c-.6 0-1 0-1 .1v1c-.2.2-.2.3 0 .8.1.3.3.5.5.6.2 0 .6.1 1 .1.8 0 1-.3 1.2-1.2q0-.6-.3-1l-.4-.4h.1zm.1 2c-.2.3-.3.3-.2 0 0-.2 0-.3-.3 0-.2.2-1 .2-1 0s-.1-.4.1-.4.3-.1 0-.4-.3-.7 0-.7.3 0 .5.2c.3.2.5.2.5 0s.3-.2.5.1c.3.3.3 1 0 1.3v-.1z"/></g><path d="M313.2 145.6l-.1 26.2v46.6 23.8h-4.4c-2.4 0-7.8 0-12.2-.1-4.3 0-17 0-28.4-.1h-20.6v-2a688 688 0 0 1 .2-9.3l.1-13.4.1-40.8v-34.6h3.8l10.2.1h11.8 39.7v3.4l-.1.2z" fill="#ee2a7b"/><g fill="#fff"><path d="M39 22.6c0 .4-.1.7-.4 1L34.4 28l-4.6-2.7v-2.6c0-.8.6-1.4 1.4-1.4s1.4.6 1.4 1.4V26l4.3-4.3c.5-.5 1.4-.5 2 0 .3.3.4.6.4 1M37.7 35c-.2 0-.4 0-.5-.1-.2 0-.3-.2-.4-.3l-4.3-4.3v3.3c0 .8-.6 1.4-1.4 1.4s-1.4-.6-1.4-1.4V31l4.6-2.7 4.3 4.3c1 1 .2 2.3-1 2.3M34 28s0-.1-.1-.2l-1.2-.7-3-1.8L27 24c-.1 0-.3 0-.4.1v8.2c0 .2.1.3.3.3h.2l2.6-1.5 4.3-2.5V28zm-1 .2s0 .1-.1.1l-3.3 2-2 1.2h-.3v-6.3c0-.1.1-.2.2-.2h.1l2 1.2 3.3 2s.1.2.1.3v-.1z"/><path d="M32.2 28.2v.1l-2.5 1.4-1.5 1H28V26s0-.2.2-.2l1.5 1 2.5 1.4v.2m29.4-.4s0-.1-.1-.1l-3.8-2-2.3-1.2c-.2 0-.4 0-.4.2v6.3c0 .2.3.3.5.2l2.3-1.2 3.7-2s.1 0 .1-.1h0zm-1 .1v.1l-3 1.6-1.8 1c-.1 0-.3 0-.3-.2v-5c0-.1 0-.2.2-.2l1.8 1 3 1.5h0z"/><path d="M59.8 28l-2.2 1.2-1.4.7H56v-3.7s0-.2.1-.1l1.4.7 2.2 1m-18-3H45c1.6 0 2.8.8 2.8 2s-1 2.2-2.7 2.3h-1.7v2.2H42V25h-.2zm3 3c.8 0 1.3-.4 1.3-1s-.5-1-1.3-1h-1.6v2H45h0zm9.2 2.2v1.3H49V25h1.5v5.3H54v-.1zm9.2-1.2l-3-4.2h1.8l2 2.8 2-3h1.8L65 29v2.4h-1.6V29h-.1zm5.4-3.8h.8v3.6l3.7-3.7h1l-3 3 3.3 3.5h-1l-2.8-3-1 1v2h-.8v-6.5zm6.3 3.2c0-1.8 1.7-3.4 3.7-3.4s3.8 1.5 3.8 3.4c0 1.8-1.7 3.4-3.7 3.5S75 30.4 75 28.5v-.1zm6.7 0c0-1.5-1.4-2.7-3-2.7s-3 1.3-3 2.7 1.4 2.7 3 2.7c1.6 0 3-1.3 3-2.8v.1zm2 2.3l.5-.6c.6.5 1.4 1 2.4 1 1 0 1.7-.6 1.7-1.2 0-.7-.7-1-2-1.2-1.5-.3-2.4-.7-2.4-1.8s1-2 2.4-2c1 0 2 .3 2.6 1l-.5.6c-.6-.5-1.3-.8-2-.8-1 0-1.6.6-1.6 1.2 0 .7.7 1 2 1.2 1.4.3 2.4.7 2.4 2 0 1-1 2-2.6 2-1.2 0-2.2-.4-3-1l.1-.1zm7-5.5h.8l2.8 4.5L97 25h.8v6.6H97v-5l-2.7 4.6-2.8-4.6v5h-.8v-6.5zm8.7 3.2c0-1.8 1.7-3.4 3.7-3.4s3.8 1.5 3.8 3.4-1.7 3.4-3.7 3.5-3.8-1.5-3.8-3.4v-.1zm6.7 0c0-1.5-1.4-2.7-3-2.7s-3 1.3-3 2.7c0 1.5 1.4 2.7 3 2.7s3-1.3 3-2.8v.1zm2 2.3l.5-.6c.6.5 1.4 1 2.4 1 1 0 1.7-.6 1.7-1.2 0-.7-.7-1-2-1.2-1.5-.3-2.4-.7-2.4-1.8s1-2 2.4-2c1 0 2 .3 2.6 1l-.5.6c-.6-.5-1.3-.8-2-.8-1 0-1.6.6-1.6 1.2 0 .7.7 1 2 1.2 1.4.3 2.4.7 2.4 2 0 1-1 2-2.6 2-1.2 0-2.2-.4-3-1l.1-.1z"/></g><g fill="#ffde17"><path d="M313 69.2c1.5 4 2.3 8.3 2.3 12.8 0 20-16.3 36.2-36.2 36.2S242.8 102 242.8 82s.8-8.8 2.3-12.8h-.7c-1.5 4-2.3 8.3-2.3 12.8a36 36 0 0 0 10.8 26c7 7 16 11 26 11a36 36 0 0 0 26-10.8c7-7 11-16.2 11-26.2s-.8-8.7-2.3-12.8h-.7zm-34-22.8l1.4 2.8 3 .4-2.2 2.2.5 3-2.7-1.4-2.7 1.4.5-3-2.2-2.2 3-.4 1.4-2.8h0zm8.7 3.8l.7 1.5 1.7.2-1 1 .3 1.6-1.5-.7-1.5.7.3-1.6-1.2-1.2 1.7-.2.7-1.5zm-17.8 0l.7 1.5 1.7.2-1.3 1 .3 1.6-1.5-.7-1.5.7.3-1.6-1.2-1.2 1.7-.2.7-1.5zm-7 54.8l.5 1h1l-.7.7.2 1-1-.4-1 .4.2-1-.7-.7h1l.4-1zm33-.3l.4 1 1 .2-.8.7.2 1-1-.5-1 .5v-1l-.7-.7 1-.2.5-1h0zM312.5 66l.5 1h1l-.7.7.1 1-1-.5-1 .5.2-1-.8-.7h1l.4-1h0zm-67 0l.4 1h1l-.8.7.2 1-1-.5-1 .5.2-1-.7-.7h1l.5-1z"/><circle cx="279.3" cy="41.6" r=".6"/><path d="M277.5 41c-.4 0-.6.3-.6.7s.3.6.7.6.6-.3.6-.7-.3-.6-.7-.6zm-1 .6c0-.3-.3-.6-.7-.6-.3 0-.6.3-.6.7 0 .3.3.6.7.6.3 0 .6-.3.6-.7zm-1.7.2c0-.3-.4-.6-.7-.5s-.6.4-.5.7c0 .3.4.6.7.5.3 0 .6-.4.5-.7zm-1.8.2c0-.3-.4-.6-.7-.5-.3 0-.6.4-.5.7 0 .3.4.6.7.5.3 0 .6-.4.5-.7zm-1.7.3c0-.3-.4-.6-.8-.5s-.6.4-.5.8c0 .3.4.6.8.5.3 0 .6-.4.5-.8zm-1.7.4c0-.3-.4-.5-.8-.4-.3 0-.5.4-.4.8 0 .3.4.5.8.4.3 0 .5-.4.4-.8zm-1.7.5c-.1-.3-.5-.5-.8-.4s-.5.5-.4.8.5.5.8.4.5-.5.4-.8zm-1.7.5c-.1-.3-.5-.5-.8-.4s-.5.5-.4.8.5.5.8.4.5-.5.4-.8zm-1.7.6c-.1-.3-.5-.5-.8-.3-.3.1-.5.5-.3.8.1.3.5.5.8.3.3-.1.5-.5.3-.8zm-1.6.7c-.1-.3-.5-.5-.8-.3-.3.1-.5.5-.3.8.1.3.5.5.8.3.3-.1.5-.5.3-.8zm-1.6.7c-.2-.3-.5-.4-1-.3-.3.2-.4.5-.3 1 .2.3.5.4 1 .3.3-.2.4-.5.3-1zm-1.5.8c-.2-.3-.6-.4-1-.2s-.4.6-.2 1 .6.4 1 .2.4-.6.2-1zm-1.8 1.8c.3-.2.4-.6.2-1s-.6-.4-1-.2-.4.6-.2 1 .6.4 1 .2zm-1.4 1c.3-.2.4-.6.2-1s-.6-.4-1-.2-.4.6-.2 1 .6.4 1 .2h0zm-1.4 1c.3-.2.3-.6.1-1s-.6-.3-1-.1-.3.6-.1 1 .6.3 1 .1zm-1.4 1c.3-.2.3-.6 0-1-.2-.3-.6-.3-1 0-.3.2-.3.6 0 1 .2.3.6.3 1 0zm-1.3 1c.3-.2.3-.6 0-1-.2-.3-.6-.3-1 0-.3.2-.3.6 0 1 .2.3.6.3 1 0zm-1.3 1.2c.2-.2.2-.7 0-1s-.7-.2-1 0-.2.7 0 1 .7.2 1 0zM250 55c.2-.3.2-.7 0-1-.3-.2-.7-.2-1 0-.2.3-.2.7 0 1 .3.2.7.2 1 0zm-2 1.3c.3.2.7.2 1 0 .2-.3.2-.7 0-1-.3-.2-.7-.2-1 0-.2.3-.2.7 0 1zm-1 1.4c.3.2.7.2 1-.1s.2-.7-.1-1-.7-.2-1 .1-.2.7.1 1zm-1 1.4c.3.2.7.1 1-.2s.1-.7-.2-1-.7-.1-1 .2-.1.7.2 1zm-1 1.5c.3.2.7.1 1-.2s.1-.7-.2-1-.7-.1-1 .2-.1.7.2 1zm-1 1.5c.3.2.7 0 1-.2.2-.3 0-.7-.2-1-.3-.2-.7 0-1 .2-.2.3 0 .7.2 1zm-.8 1.6c.3.2.7 0 1-.3s0-.7-.3-1-.7 0-1 .3 0 .7.3 1zm-.8 1.6c.3.1.7 0 .8-.3s0-.7-.3-.8-.7 0-.8.3 0 .7.3.8zm-.7 1.6c.3.1.7 0 .8-.3s0-.7-.3-.8-.7 0-.8.3 0 .7.3.8zm-.6 1.6c.3.1.7 0 .8-.4.1-.3 0-.7-.4-.8-.3-.1-.7 0-.8.4-.1.3 0 .7.4.8zm-.6 1.7c.3.1.7 0 .8-.4.1-.3 0-.7-.4-.8-.3-.1-.7 0-.8.4-.1.3 0 .7.4.8zm-.5 1.7c.3 0 .7-.1.8-.4 0-.3-.1-.7-.4-.8-.3 0-.7.1-.8.4 0 .3.1.7.4.8zm-.4 1.7c.3 0 .7-.1.8-.5 0-.3-.1-.7-.5-.8-.3 0-.7.1-.8.5 0 .3.1.7.5.8zm-.3 1.7c.3 0 .7-.2.7-.5s-.2-.7-.5-.7-.7.2-.7.5.2.7.5.7zM239 77c.3 0 .7-.2.7-.5s-.2-.7-.5-.7-.7.2-.7.5.2.7.5.7zm-.1 1.7c.3 0 .7-.2.7-.6s-.2-.7-.6-.7c-.3 0-.7.2-.7.6 0 .3.2.7.6.7zm-.1 1.8c.4 0 .6-.3.7-.6s-.3-.6-.6-.7-.6.3-.7.6c0 .4.3.6.6.7z"/><circle cx="238.6" cy="81.6" r=".6"/><path d="M238.7 84c.4 0 .6-.3.6-.7s-.3-.6-.7-.6-.6.3-.6.7.3.6.7.6z"/><circle cx="238.8" cy="85.1" r=".6"/><path d="M239 87.5c.3 0 .6-.4.5-.7 0-.3-.4-.6-.7-.5-.3 0-.6.4-.5.7 0 .3.4.6.7.5zm.3 1.8c.3 0 .6-.4.5-.7 0-.3-.4-.6-.7-.5-.3 0-.6.4-.5.7 0 .3.4.6.7.5zm.4 1.7c.3 0 .6-.4.5-.8 0-.3-.4-.6-.8-.5s-.6.4-.5.8c0 .3.4.6.8.5zm.4 1.7c.3 0 .5-.4.4-.8 0-.3-.4-.5-.8-.4-.3 0-.5.4-.4.8 0 .3.4.5.8.4zm.5 1.7c.3-.1.5-.5.4-.8s-.5-.5-.8-.4-.5.5-.4.8.5.5.8.4zm.6 1.6c.3-.1.5-.5.4-.8s-.5-.5-.8-.4-.5.5-.4.8.5.5.8.4zm1 .8c-.1-.3-.5-.5-.8-.3-.3.1-.5.5-.3.8.1.3.5.5.8.3.3-.1.5-.5.3-.8zm.7 1.6c-.1-.3-.5-.5-.8-.3-.3.1-.5.5-.3.8.1.3.5.5.8.3.3-.1.5-.5.3-.8zm.7 1.6c-.2-.3-.5-.4-1-.3s-.4.5-.3 1c.2.3.5.4 1 .3.3-.2.4-.5.3-1zm.8 1.5c-.2-.3-.6-.4-1-.2s-.4.6-.2 1 .6.4 1 .2.4-.6.2-1zm1 1.5c-.2-.3-.6-.4-1-.2s-.4.6-.2 1 .6.4 1 .2.4-.6.2-1zm1 1.5c-.2-.3-.6-.4-1-.2s-.4.6-.2 1 .6.4 1 .2.4-.6.2-1zm1 1.4c-.2-.3-.6-.3-1-.1s-.3.6-.1 1 .6.3 1 .1.3-.6.1-1zm1 1.3c-.2-.3-.6-.3-1 0s-.3.6 0 1c.2.3.6.3 1 0 .3-.2.3-.6 0-1zm1 1.3c-.2-.3-.6-.3-1 0-.3.2-.3.6 0 1 .2.3.6.3 1 0 .3-.2.3-.6 0-1zm1.2 1.3c-.2-.2-.7-.2-1 0s-.2.7 0 1 .7.2 1 0 .2-.7 0-1z"/><circle cx="251.5" cy="111.5" r=".6"/><path d="M253.2 112.2c-.3-.2-.7-.2-1 0-.2.3-.2.7 0 1 .3.2.7.2 1 0 .2-.3.2-.7 0-1zm1.4 1c-.3-.2-.7-.2-1 .1s-.2.7.1 1 .7.2 1-.1.2-.7-.1-1zm1.4 1c-.3-.2-.7-.1-1 .2s-.1.7.2 1 .7.1 1-.2.1-.7-.2-1zm1.4 1c-.3-.2-.7-.1-1 .2s-.1.7.2 1 .7.1 1-.2.1-.7-.2-1zm1.5 1c-.3-.2-.7 0-1 .2-.2.3 0 .7.2 1 .3.2.7 0 1-.2.2-.3 0-.7-.2-1zm1.5.8c-.3-.2-.7 0-1 .3s0 .7.3 1 .7 0 1-.3 0-.7-.3-1zm1.5.8c-.3-.1-.7 0-.8.3s0 .7.3.8.7 0 .8-.3 0-.7-.3-.8zm1.6.7c-.3-.1-.7 0-.8.3s0 .7.3.8.7 0 .8-.3 0-.7-.3-.8zm1.6.7c-.3-.1-.7 0-.8.4-.1.3 0 .7.4.8.3.1.7 0 .8-.4.1-.3 0-.7-.4-.8zm1.7.5c-.3-.1-.7 0-.8.4-.1.3 0 .7.4.8.3.1.7 0 .8-.4.1-.3 0-.7-.4-.8zm1.6.5c-.3 0-.7.1-.8.4 0 .3.1.7.4.8.3 0 .7-.1.8-.4 0-.3-.1-.7-.4-.8zm1.7.4c-.3 0-.7.1-.8.5 0 .3.1.7.5.8.3 0 .7-.1.8-.5 0-.3-.1-.7-.5-.8zm1.7.4c-.3 0-.7.2-.7.5s.2.7.5.7.7-.2.7-.5-.2-.7-.5-.7z"/><circle cx="273.4" cy="121.9" r=".6"/><path d="M275.2 121.5c-.3 0-.7.2-.7.6 0 .3.2.7.6.7.3 0 .7-.2.7-.6 0-.3-.2-.7-.6-.7zm1.8.1c-.4 0-.6.3-.7.6 0 .4.3.6.6.7.4 0 .6-.3.7-.6 0-.4-.3-.6-.6-.7z"/><circle cx="278.7" cy="122.3" r=".6"/><path d="M280.4 121.6c-.4 0-.6.3-.6.7s.3.6.7.6.6-.3.6-.7-.3-.6-.7-.6z"/><circle cx="282.2" cy="122.2" r=".6"/><path d="M284 121.4c-.3 0-.6.4-.5.7 0 .3.4.6.7.5.3 0 .6-.4.5-.7 0-.3-.4-.6-.7-.5zm1.7-.3c-.3 0-.6.4-.5.7 0 .3.4.6.7.5.3 0 .6-.4.5-.7 0-.3-.4-.6-.7-.5zm1.7-.3c-.3 0-.6.4-.5.8 0 .3.4.6.8.5s.6-.4.5-.8c0-.3-.4-.6-.8-.5zm1.7-.4c-.3 0-.5.4-.4.8 0 .3.4.5.8.4.3 0 .5-.4.4-.8 0-.3-.4-.5-.8-.4zm1.6-.5c-.3.1-.5.5-.4.8s.5.5.8.4.5-.5.4-.8-.5-.5-.8-.4zm1.7-.5c-.3.1-.5.5-.4.8s.5.5.8.4.5-.5.4-.8-.5-.5-.8-.4zm1.6-.6c-.3.1-.5.5-.3.8.1.3.5.5.8.3.3-.1.5-.5.3-.8-.1-.3-.5-.5-.8-.3zm1.6-.7c-.3.1-.5.5-.3.8.1.3.5.5.8.3.3-.1.5-.5.3-.8-.1-.3-.5-.5-.8-.3zm1.6-.8c-.3.2-.4.5-.3 1s.5.4 1 .3.4-.5.3-1c-.2-.3-.5-.4-1-.3zm1.5-.8c-.3.2-.4.6-.2 1s.6.4 1 .2.4-.6.2-1-.6-.4-1-.2zm1.5-1c-.3.2-.4.6-.2 1s.6.4 1 .2.4-.6.2-1-.6-.4-1-.2zm1.4-1c-.3.2-.4.6-.2 1s.6.4 1 .2.4-.6.2-1-.6-.4-1-.2zm1.4-1c-.3.2-.3.6-.1 1s.6.3 1 .1.3-.6.1-1-.6-.3-1-.1zm1.4-1c-.3.2-.3.6 0 1 .2.3.6.3 1 0 .3-.2.3-.6 0-1-.2-.3-.6-.3-1 0zm1.3-1.2c-.3.2-.3.6 0 1 .2.3.6.3 1 0 .3-.2.3-.6 0-1-.2-.3-.6-.3-1 0zm1.3-1.2c-.2.2-.2.7 0 1s.7.2 1 0 .2-.7 0-1-.7-.2-1 0zm1.2-1.2c-.2.3-.2.7 0 1 .3.2.7.2 1 0 .2-.3.2-.7 0-1-.3-.2-.7-.2-1 0zm2-1.4c-.3-.2-.7-.2-1 0-.2.3-.2.7 0 1 .3.2.7.2 1 0 .2-.3.2-.7 0-1zm1-1.3c-.3-.2-.7-.2-1 .1s-.2.7.1 1 .7.2 1-.1.2-.7-.1-1zm1-1.5c-.3-.2-.7-.1-1 .2s-.1.7.2 1 .7.1 1-.2.1-.7-.2-1zm1-1.4c-.3-.2-.7-.1-1 .2s-.1.7.2 1 .7.1 1-.2.1-.7-.2-1zm1-1.6c-.3-.2-.7 0-1 .2-.2.3 0 .7.2 1 .3.2.7 0 1-.2.2-.3 0-.7-.2-1zm1-1.5c-.3-.2-.7 0-1 .3s0 .7.3 1 .7 0 1-.3 0-.7-.3-1zm.7-1.6c-.3-.1-.7 0-.8.3s0 .7.3.8.7 0 .8-.3 0-.7-.3-.8zm.7-1.6c-.3-.1-.7 0-.8.3s0 .7.3.8.7 0 .8-.3 0-.7-.3-.8zm.6-1.7c-.3-.1-.7 0-.8.4-.1.3 0 .7.4.8.3.1.7 0 .8-.4.1-.3 0-.7-.4-.8zm.6-1.6c-.3-.1-.7 0-.8.4-.1.3 0 .7.4.8.3.1.7 0 .8-.4.1-.3 0-.7-.4-.8zm.5-1.7c-.3 0-.7.1-.8.4 0 .3.1.7.4.8s.7-.1.8-.4c0-.3-.1-.7-.4-.8zm.4-1.7c-.3 0-.7.1-.8.5 0 .3.1.7.5.8.3 0 .7-.1.8-.5 0-.3-.1-.7-.5-.8zm.3-1.8c-.3 0-.7.2-.7.5s.2.7.5.7.7-.2.7-.5-.2-.7-.5-.7zm.3-1.7c-.3 0-.7.2-.7.5s.2.7.5.7.7-.2.7-.5-.2-.7-.5-.7zm.1-1.8c-.3 0-.7.2-.7.6 0 .3.2.7.6.7.3 0 .7-.2.7-.6 0-.3-.2-.7-.6-.7zm.1-1.7c-.4 0-.6.3-.7.6s.3.6.6.7c.4 0 .6-.3.7-.6 0-.4-.3-.6-.6-.7z"/><circle cx="319.4" cy="82.3" r=".6"/><path d="M319.3 80c-.4 0-.6.3-.6.7s.3.6.7.6.6-.3.6-.7-.3-.6-.7-.6zm-.1-1.8c-.3 0-.6.3-.6.7 0 .3.3.6.7.6.3 0 .6-.3.6-.7 0-.3-.3-.6-.7-.6zm-.2-1.7c-.3 0-.6.4-.5.7 0 .3.4.6.7.5.3 0 .6-.4.5-.7 0-.3-.4-.6-.7-.5zm-.3-1.8c-.3 0-.6.4-.5.7 0 .3.4.6.7.5.3 0 .6-.4.5-.7 0-.3-.4-.6-.7-.5zm-.4-1.7c-.3 0-.6.4-.5.8 0 .3.4.6.8.5s.6-.4.5-.8c0-.3-.4-.6-.8-.5zm-.4-1.7c-.3 0-.5.4-.4.8 0 .3.4.5.8.4.3 0 .5-.4.4-.8 0-.3-.4-.5-.8-.4zm-.5-1.7c-.3.1-.5.5-.4.8s.5.5.8.4.5-.5.4-.8-.5-.5-.8-.4zm-.6-1.7c-.3.1-.5.5-.4.8s.5.5.8.4.5-.5.4-.8-.5-.5-.8-.4zm-1-.8c.1.3.5.5.8.3.3-.1.5-.5.3-.8-.1-.3-.5-.5-.8-.3-.3.1-.5.5-.3.8zm-.7-1.6c.1.3.5.5.8.3.3-.1.5-.5.3-.8-.1-.3-.5-.5-.8-.3-.3.1-.5.5-.3.8zm-.7-1.5c.2.3.5.4 1 .3.3-.2.4-.5.3-1s-.5-.4-1-.3c-.3.2-.4.5-.3 1zm-.8-1.6c.2.3.6.4 1 .2s.4-.6.2-1-.6-.4-1-.2-.4.6-.2 1zm-1-1.4c.2.3.6.4 1 .2s.4-.6.2-1-.6-.4-1-.2-.4.6-.2 1zm-1-1.5c.2.3.6.4 1 .2s.4-.6.2-1-.6-.4-1-.2-.4.6-.2 1zm-1-1.4c.2.3.6.3 1 .1s.3-.6.1-1-.6-.3-1-.1-.3.6-.1 1z"/><circle cx="310.1" cy="56.2" r=".6"/><path d="M308.5 55.3c.2.3.6.3 1 0 .3-.2.3-.6 0-1-.2-.3-.6-.3-1 0-.3.2-.3.6 0 1zm-1.2-1.2c.2.2.7.2 1 0s.2-.7 0-1-.7-.2-1 0-.2.7 0 1zm-.3-1.3c.2-.3.2-.7 0-1-.3-.2-.7-.2-1 0-.2.3-.2.7 0 1 .3.2.7.2 1 0zm-2.2-1c.3.2.7.2 1 0 .2-.3.2-.7 0-1-.3-.2-.7-.2-1 0s-.2.7 0 1zm-1.4-1c.3.2.7.2 1-.1s.2-.7-.1-1-.7-.2-1 .1-.2.7.1 1zm-1.3-1c.3.2.7.1 1-.2s.1-.7-.2-1-.7-.1-1 .2-.1.7.2 1zm-1.5-1c.3.2.7.1 1-.2s.1-.7-.2-1-.7-.1-1 .2-.1.7.2 1zm-1.5-1c.3.2.7 0 1-.2.2-.3 0-.7-.2-1-.3-.2-.7 0-1 .2-.2.3 0 .7.2 1zm-1.5-1c.3.2.7 0 1-.3s0-.7-.3-1-.7 0-1 .3 0 .7.3 1zM296 46c.3.1.7 0 .8-.3s0-.7-.3-.8-.7 0-.8.3 0 .7.3.8zm-1.6-.7c.3.1.7 0 .8-.3s0-.7-.3-.8-.7 0-.8.3 0 .7.3.8zm-1.6-.7c.3.1.7 0 .8-.4.1-.3 0-.7-.4-.8-.3-.1-.7 0-.8.4-.1.3 0 .7.4.8zm-1.6-.6c.3.1.7 0 .8-.4s0-.7-.4-.8c-.3-.1-.7 0-.8.4-.1.3 0 .7.4.8zm-1-1c0-.3-.1-.7-.4-.8-.3 0-.7.1-.8.4 0 .3.1.7.4.8.3 0 .7-.1.8-.4zm-2.2-1.2c-.3 0-.7.1-.8.5 0 .3.1.7.5.8s.7-.1.8-.5c0-.3-.1-.7-.5-.8zm-1.8-.4c-.3 0-.7.2-.7.5s.2.7.5.7.7-.2.7-.5-.2-.7-.5-.7zm-1.7-.3c-.3 0-.7.2-.7.5s.2.7.5.7.7-.2.7-.5-.2-.7-.5-.7zM283 41c-.3 0-.7.2-.7.6 0 .3.2.7.6.7.3 0 .7-.2.7-.6 0-.3-.2-.7-.6-.7zM281 41c-.4 0-.6.3-.7.6 0 .4.3.6.6.7.4 0 .6-.3.7-.6 0-.4-.3-.6-.6-.7z"/></g><path d="M180 130.8h12l-6 6.2 5.5 6.2H168l2-9.7 10.2-2.7h0z" fill="#fcd21f"/><path d="M180 140.2l-12 3v-4.5l12 1.5z" fill="#1a222c"/><path d="M27 130.8H15l6 6.5-6 6h23.6l-2-8.4-9.6-4z" fill="#fcd21f"/><path d="M27 140.2c.7 0 11.6 3 11.6 3v-4L27 140v.1z" fill="#1a222c"/><path d="M27 127H180v13.3H27V127z" fill="#ffde17"/><path d="M180 160.8h12l-6 6.2 5.5 6.2H168l2-9.7 10.2-2.7h0z" fill="#fcd21f"/><path d="M180 170.2l-12 3v-4.5l12 1.5z" fill="#1a222c"/><path d="M27 160.8H15l6 6.5-6 6h23.6l-2-8.4-9.6-4z" fill="#fcd21f"/><path d="M27 170.2c.7 0 11.6 3 11.6 3v-4L27 170v.1z" fill="#1a222c"/><path d="M27 157h153v13.3H27V157zm-10 44.4l-2 3 .2 1 1-.2 2-3-.6-.3c-.2-.1-.4-.3-.6-.4h.1zm8-1c0-.1 0-.2.1-.3v-.4c.2-1-.1-2.2-.8-3.3l1-1.5c1 .1 2-.1 2.6-1 .8-1.3-.2-3.4-2.2-4.7s-4.4-1.4-5.2-.1c-.5.7-.3 1.7.3 2.7l-1 1.5c-1.2-.2-2.4 0-3.3.6-.1 0-.2.2-.3.2l-.2.2c0 .1-.2.2-.3.3-1.2 2-.2 4.8 2.3 6.4s5.5 1.4 6.8-.5c0-.1.1-.2.2-.4v.2zm-.7-8.8c-.8-.5-1.2-1.3-1-1.8s1.2-.5 2 0 1.2 1.3 1 1.8-1.2.5-2 0zm-4.4 53c-2.6 0-4.7 2-4.7 4.7s2 4.7 4.7 4.7 4.7-2 4.7-4.7-2-4.7-4.7-4.7zm2 7.8l-2-1-2 1 .4-2.2-1.6-1.6 2.2-.3 1-2 1 2 2.2.3-1.6 1.6.4 2.2zm-2-32.2c-2.6 0-4.7 2-4.7 4.7s2 4.7 4.7 4.7 4.7-2 4.7-4.7-2-4.7-4.7-4.7zm2 7.8l-2-1-2 1 .4-2.2-1.6-1.6 2.2-.3 1-2 1 2 2.2.3-1.6 1.6.4 2.2zm210 45.7c0-1 .6-2.4 3.5-2.4s3 .3 4.2.8 2 1 2 1.6h.8c0-1-1-1.7-2.5-2.4-1.4-.5-3-.8-4.5-.8s-2.7.3-3.4 1c-.6.5-1 1.3-1 2.3h.8z" fill="#ffde17"/><path d="M314 265.3h-65c-.8 0-1.6.3-2.3 1l-6.5 5.4c-1.4 1-1.4 3.2 0 4.3l6.5 5.4c.7.6 1.5 1 2.3 1h65c.8 0 1.5-.7 1.5-1.5V267c0-.8-.7-1.5-1.5-1.5v-.2zm-72.2 9.6c-.7 0-1.2-.5-1.2-1.2s.5-1.2 1.2-1.2 1.2.5 1.2 1.2-.5 1.2-1.2 1.2z" fill="#ed1c24"/><g fill="#ffde17"><path d="M231.8 276c.7.6 2 1 3.4 1s3.2-.3 4.5-.8c1.7-.6 2.5-1.5 2.5-2.4h-.8c0 .5-.8 1-2 1.6a13 13 0 0 1-4.2.8c-2.8 0-3.5-1.3-3.5-2.4h-.8a3 3 0 0 0 .9 2.3h0zM322 30c0-.2.1-1 0-1h-1v1h1m-8.4 4v-1c-.8 0-1-.2-1 .6s.7.4 1 .4M325 18c.8 0 .8-1.2 0-1.2s-.8 1.2 0 1.2m-6.5 8.5l-.7-.7c-.8.8-.8.7 0 1.5l.8-.8m-10-2l-.7-.7c-.8.8-1 .7 0 1.5l.8-.8m14.4 14c1 0 .8-1.4 0-1.2-.8.1-.5 1.3 0 1.2M309 12.8c.7 0 .8-1 .1-1.2-.8-.1-1 1.2-.1 1.2m-1.6-1.8c.8 0 .8-1.3 0-1.3s-.8 1.2 0 1.3m4.8 20.7l-.7-.7-.8.8c.7.7 1 .7 1.5 0M324 15.4v-1c-.8 0-1-.2-1 .6 0 .6.7.4 1 .4m-9.4 23c.7 0 .8-1 .1-1.2-.8-.1-1 1.2-.1 1.2m-8-.5v-1c-.8 0-1-.2-1 .6 0 .6.7.4 1 .4m3-24c-.8-.8-.7-.7-1.5 0l.7.7.8-.8"/><path d="M321.8 29.5c0-.2.1-1 0-1h-1v1c.1.1 1 0 1 0m-8.5 3.8v-1c-.8 0-1-.2-1 .6 0 .6.7.4 1 .4m11.4-16c1 0 .8-1.4 0-1.2-.8.1-.5 1.3 0 1.2m-6.2 8.5c-.8-.8-.7-.7-1.5 0l.7.7.8-.8m-10-2c-.8-.7-.7-.7-1.5 0l.7.7c.3-.2.5-.5.8-.7m1.3-2.4c.2-1.6 0-2.8 1.4-3.8.5-.3 1-.6 1.6-.7 1-.1.8 0 .8-1-3.2.2-4.6 2.8-4 5.6m1.3 2c.5-1.3 4.5-1.2 4.5.3 1-.6-.3-1.7-1-1.8-1.6-.4-3 0-3.5 1.5"/><path d="M315.6 24.2c-1 2-5.3.8-5-1.6.7 2 4.2 2.3 5.3.6-.1.3-.3.8-.4 1m-5-2.3c0-1.4 3.8-2.7 4.3-1.3 1-1-1-1.4-1.6-1.4-1.7.1-2.6 1-2.8 2.6"/><path d="M315 21.2c0 1-1.4 1.5-2.2 1.7-1.3.5-2.6-.2-3-1.6 1.3 1.4 5 1 5.2-1.3v1m3.6 9c-.8-1.8-2.4-1.7-4-2.2-2-.6-3-2-3.7-3.7-.2 2 1.4 4 3.3 4.6 1.8.6 4.3.6 4.5 3V30m4.3 8c.8 0 .8-1.2 0-1.2s-.8 1.2 0 1.2m-14.4-25.7c1 0 .8-1.4 0-1.2-.8.1-.5 1.3 0 1.2m-1.5-1.8c.8 0 .8-1.2 0-1.2-1 0-.7 1.4 0 1.2m5 20.7l-.7-.7c-.8.8-.8.7 0 1.5l.8-.8M323.6 15v-1c-.8 0-1-.2-1 .6s.7.4 1 .4m-23.2-2.6c-.8-.8-.7-.7-1.5 0 .7.7.8.8 1.5 0m21.4-2.2c-.8-.8-.7-.7-1.5 0 .7.7.8.8 1.5 0m-19.4 17.6c.2-1.4 0-2.8 1.3-3.7.5-.3 1-.8 1.7-.8 1 0 .8-.2.8-1-3 .3-4.8 2.7-4 5.6m1.2 2c.5-1.3 4.6-1.2 4.5.3 1-.5-.2-1.6-1-1.8-1.6-.5-3 0-3.6 1.5"/><path d="M308 30.7c-1.3 2-5.2.8-5-1.6.7 2 4 2.3 5.3.6-.1.3-.3.7-.4 1m-5-2.4c0-1.4 3.8-2.7 4.3-1.3 1-1-.8-1.4-1.5-1.4-1.5 0-3 1-2.8 2.6"/><path d="M307.5 27.6c-.3 2.4-4.5 2.4-5.2.2 1.5 1.5 4.6.8 5.2-1.2v1m3.6 8.8c-.3-1.8-2.6-1.8-4-2.2-2-.5-3.2-1.8-4-3.7-.1 2 1.5 4.2 3.5 4.7s3.8.6 4.3 3v-1.7m17.3-4.5c.2 2-.6 4-3 4 0 .3 0 .6.1 1 2.5-.6 4-2.5 2.8-5m-1-1.6c-.2 1.2-3.6 1.3-3.8 0-1 .5.3 1.3 1 1.5 1.2.3 2.7-.2 3-1.5"/><path d="M323.2 30c1.2-1.6 4.2-1 4.3 1-1-1.4-3.8-2-4.6-.1 0-.3.2-.7.2-1m4.5 1.6c.3 1.3-3 2.5-3.6 1.4-.5.7.6 1 1.2 1 1.3-.1 2.6-1 2.4-2.5"/><path d="M323.8 32.6c.4-2 3.8-2.6 4.4-.5-1.3-1-4.2-.4-4.3 1.5 0-.3 0-.7-.1-1m-3.7-7.3c.7 1.3 1.8 1.3 3 1.5 2 .3 3.2 1.2 4 3 0-2-1.5-3.3-3.3-3.7-1.5-.3-3.4-.2-3.8-2.2 0 .5.2 1 .1 1.5m2.5-7.7c0 1.2.2 2.2-.7 3-.6.6-1.4 1-2.2 1v1c2.5-.6 4-2.5 3-5m-1-1.7c-.2 1.3-3.6 1.4-3.8 0-1 .5.3 1.3 1 1.5 1.2.3 2.7-.2 3-1.5"/><path d="M317.7 15.6c1-1.5 4.5-1 4.3 1-.7-1.8-3.7-1.6-4.6-.2 0-.3.2-.6.3-1m4.3 1.6c.3 1.3-3 2.5-3.5 1.4-.6.8.8 1 1.3 1 1-.1 2.7-1.2 2.2-2.5"/><path d="M318.2 18.2c.4-2 3.8-2.6 4.4-.5-1.3-1.3-4-.2-4.3 1.5v-1m-3.7-7.3c.6 1.3 1.8 1.3 3 1.5 2 .3 3.2 1.2 4 3 0-2-1.6-3.4-3.5-3.8-1.5-.3-3.2-.2-3.6-2.2 0 .5 0 1 .1 1.5m-8 4.7c.2 2-.6 4-3 4v1c2.6-.6 4-2.5 3-5m-1-1.6c-.2 1.3-3.6 1.4-3.8 0-1 .5.3 1.3 1 1.5 1.2.3 2.7-.2 3-1.5"/><path d="M301.6 13.5c1.2-1.5 4.5-1.2 4.3 1-.6-1.7-3.8-1.7-4.5-.2 0-.3.2-.7.2-1"/><path d="M306 15.2c.3 1.3-3 2.5-3.6 1.4-.6.8.8 1 1.3 1 1.3-.1 2.5-1 2.2-2.5" vector-effect="non-scaling-stroke"/><path d="M302.2 16c.5-2 3.6-2.4 4.4-.5-1.3-1-4.2-.4-4.3 1.5 0-.3 0-.7-.1-1m-3.7-7.3c.7 1.3 1.8 1.3 3 1.5 2 .3 3 1.2 4 3 0-2-1.5-3.3-3.3-3.7-1.5-.3-3.4-.2-3.8-2.2 0 .5.2 1 .1 1.5M314.3 38c1 0 .8-1.4 0-1.2-.8.1-.5 1.3 0 1.2m-8.2-.5v-1c-.8 0-1-.2-1 .6s.7.4 1 .4"/></g></svg>