<?xml version="1.0" encoding="UTF-8"?>
<svg id="uuid-5d4c7c06-7549-42d8-900b-44bafec30b8a" data-name="Layer 1" xmlns="http://www.w3.org/2000/svg" width="335" height="335" xmlns:xlink="http://www.w3.org/1999/xlink" viewBox="0 0 335 335">
  <defs>
    <radialGradient id="uuid-5f9fe7d2-a66f-4a2b-bd72-95e60a040058" cx="167.5" cy="-338.39" fx="167.5" fy="-338.39" r="167.5" gradientTransform="translate(0 -170.89) scale(1 -1)" gradientUnits="userSpaceOnUse">
      <stop offset="0" stop-color="#231f20"/>
      <stop offset="1" stop-color="#000" stop-opacity=".9"/>
    </radialGradient>
  </defs>
  <path d="M0,0H335V335H0V0Z" fill="url(#uuid-5f9fe7d2-a66f-4a2b-bd72-95e60a040058)"/>
  <g>
    <g>
      <path d="M39.1,22.6c0,.4,0,.7-.4,1l-4.3,4.3-4.6-2.7v-2.6c0-.8,.6-1.4,1.4-1.4s1.4,.6,1.4,1.4v3.3l4.3-4.3c.5-.5,1.4-.5,1.9,0s.4,.6,.4,1m-1.5,12.5h-.5c-.2,0-.3-.2-.4-.3l-4.3-4.3v3.3c0,.8-.6,1.4-1.4,1.4s-1.4-.6-1.4-1.4v-2.6l4.6-2.7,4.3,4.3c.9,.9,.2,2.3-1,2.3m-3.5-7v-.2l-1.2-.7-3.1-1.8-2.6-1.5c-.1,0-.3,0-.4,.1v8.2c0,.2,.1,.3,.3,.3h.2l2.6-1.5,4.3-2.5v-.3l-.1-.1Zm-1,.1v.1l-3.3,1.9-2,1.2h-.3v-6.3c0-.1,.1-.2,.2-.2h.1l2,1.2,3.3,1.9v.2Z" fill="#fff"/>
      <path d="M32.2,28.2l-2.5,1.5-1.5,.9h-.2v-4.7s0-.2,.2-.2l1.5,.9,2.5,1.4v.2" fill="#fff"/>
      <g>
        <path d="M61.6,28v-.1l-3.8-1.9-2.3-1.2c-.2,0-.4,0-.4,.2v6.3c0,.2,.3,.3,.5,.2l2.3-1.2,3.7-2v-.3Zm-.9,.1l-2.9,1.7-1.8,1s-.3,0-.3-.2v-4.9c0-.1,0-.2,.2-.2l1.8,.9,3,1.5v.2Z" fill="#fff"/>
        <path d="M59.8,28.1l-2.2,1.2-1.4,.7h-.2v-3.8l1.4,.7,2.2,1.1m-17.8-3.1h3.3c1.6,0,2.8,.8,2.8,2.1s-1.1,2.2-2.7,2.3h-1.7v2.2h-1.5v-6.6h-.2Zm3.1,3.1c.8,0,1.3-.4,1.3-.9s-.5-.9-1.3-.9h-1.6v1.9h1.6v-.1Zm9.2,2.2v1.3h-5.2v-6.5h1.5v5.3h3.7v-.1Zm9.2-1.2l-2.9-4.2h1.8l1.9,2.8,1.9-2.9h1.8l-2.8,4.2v2.4h-1.6v-2.4h-.1v.1Zm5.4-3.8h.8v3.6l3.7-3.7h1.1l-3.1,3,3.3,3.5h-1.1l-2.8-3-1.1,1.1v2h-.8v-6.5Zm6.3,3.2c0-1.8,1.7-3.4,3.7-3.4s3.8,1.5,3.8,3.4-1.7,3.4-3.7,3.5c-2,.1-3.8-1.5-3.8-3.4v-.1Zm6.7-.1c0-1.5-1.4-2.7-2.9-2.7s-2.9,1.3-2.9,2.7,1.4,2.7,2.9,2.7,2.9-1.3,2.9-2.8v.1Zm1.9,2.4l.5-.6c.6,.5,1.4,.9,2.4,.9s1.7-.6,1.7-1.2-.7-1-2-1.2c-1.5-.3-2.4-.7-2.4-1.8s1-1.9,2.4-1.9,1.9,.3,2.6,.9l-.5,.6c-.6-.5-1.3-.8-2.1-.8s-1.6,.6-1.6,1.2,.7,.9,2,1.2c1.4,.3,2.4,.7,2.4,1.9s-.9,1.9-2.6,1.9-2.2-.4-2.9-1l.1-.1Zm7-5.5h.8l2.8,4.5,2.7-4.6h.8v6.6h-.8v-5l-2.7,4.6-2.8-4.6v5h-.8v-6.5Zm8.7,3.2c0-1.8,1.7-3.4,3.7-3.4s3.8,1.5,3.8,3.4-1.7,3.4-3.7,3.5c-2,.1-3.8-1.5-3.8-3.4v-.1Zm6.7-.1c0-1.5-1.4-2.7-2.9-2.7s-2.9,1.3-2.9,2.7,1.4,2.7,2.9,2.7,2.9-1.3,2.9-2.8v.1Zm1.9,2.4l.5-.6c.6,.5,1.4,.9,2.4,.9s1.7-.6,1.7-1.2-.7-1-2-1.2c-1.5-.3-2.4-.7-2.4-1.8s1-1.9,2.4-1.9,1.9,.3,2.6,.9l-.5,.6c-.6-.5-1.3-.8-2.1-.8s-1.6,.6-1.6,1.2,.7,.9,2,1.2c1.4,.3,2.4,.7,2.4,1.9s-.9,1.9-2.6,1.9-2.2-.4-2.9-1l.1-.1Z" fill="#fff"/>
      </g>
    </g>
    <g>
      <path d="M312.9,205.2c1.5,4,2.3,8.3,2.3,12.8,0,20-16.3,36.2-36.2,36.2s-36.2-16.3-36.2-36.2,.8-8.8,2.3-12.8h-.7c-1.5,4-2.3,8.3-2.3,12.8,0,9.9,3.8,19.1,10.8,26.1,7,7,16.2,10.8,26.1,10.8s19.1-3.8,26.1-10.8,10.8-16.2,10.8-26.1-.8-8.7-2.3-12.8h-.7Zm-33.9-22.8l1.4,2.8,3,.5-2.2,2.1,.5,3.1-2.7-1.5-2.7,1.5,.5-3.1-2.2-2.1,3-.5,1.4-2.8h0Zm8.7,3.9l.7,1.4,1.7,.3-1.2,1.1,.3,1.7-1.5-.8-1.5,.8,.3-1.7-1.2-1.1,1.7-.3,.7-1.4Zm-17.8,0l.7,1.4,1.7,.3-1.2,1.1,.3,1.7-1.5-.8-1.5,.8,.3-1.7-1.2-1.1,1.7-.3,.7-1.4Z" fill="#ffde17"/>
      <path d="M262.9,241.1l.5,.9,1,.1-.7,.8,.2,1-1-.5-.9,.5,.2-1-.7-.8,1-.1,.4-.9Zm32.9-.4l.4,1,1.1,.1-.8,.7,.2,1.1-.9-.5-.9,.5,.1-1.1-.7-.7,1-.1,.5-1h0Zm16.7-38.7l.5,.9,1,.2-.7,.7,.1,1-.9-.4-.9,.4,.2-1-.8-.7,1.1-.2,.4-.9h0Zm-66.9,0l.4,.9,1.1,.2-.8,.7,.2,1-.9-.4-1,.4,.2-1-.7-.7,1-.2,.5-.9Z" fill="#ffde17"/>
      <g>
        <circle cx="279.3" cy="177.6" r=".6" fill="#ffde17"/>
        <path d="M277.5,177c-.4,0-.6,.3-.6,.7s.3,.6,.7,.6,.6-.3,.6-.7-.3-.6-.7-.6Zm-1.1,.7c0-.3-.3-.6-.7-.6s-.6,.3-.6,.7,.3,.6,.7,.6,.6-.3,.6-.7Zm-1.7,.1c0-.3-.4-.6-.7-.5s-.6,.4-.5,.7c0,.3,.4,.6,.7,.5,.3,0,.6-.4,.5-.7Zm-1.8,.3c0-.3-.4-.6-.7-.5-.3,0-.6,.4-.5,.7,0,.3,.4,.6,.7,.5,.3,0,.6-.4,.5-.7Zm-1.7,.3c0-.3-.4-.6-.8-.5s-.6,.4-.5,.8c0,.3,.4,.6,.8,.5,.3,0,.6-.4,.5-.8Zm-1.7,.3c0-.3-.4-.5-.8-.4-.3,0-.5,.4-.4,.8,0,.3,.4,.5,.8,.4,.3,0,.5-.4,.4-.8Zm-1.7,.5c-.1-.3-.5-.5-.8-.4s-.5,.5-.4,.8,.5,.5,.8,.4,.5-.5,.4-.8Zm-1.7,.5c-.1-.3-.5-.5-.8-.4s-.5,.5-.4,.8,.5,.5,.8,.4,.5-.5,.4-.8Zm-1.7,.6c-.1-.3-.5-.5-.8-.3-.3,.1-.5,.5-.3,.8,.1,.3,.5,.5,.8,.3,.3-.1,.5-.5,.3-.8Zm-1.6,.7c-.1-.3-.5-.5-.8-.3-.3,.1-.5,.5-.3,.8,.1,.3,.5,.5,.8,.3,.3-.1,.5-.5,.3-.8Zm-1.6,.7c-.2-.3-.5-.4-.9-.3-.3,.2-.4,.5-.3,.9,.2,.3,.5,.4,.9,.3,.3-.2,.4-.5,.3-.9Zm-1.5,.8c-.2-.3-.6-.4-.9-.2s-.4,.6-.2,.9c.2,.3,.6,.4,.9,.2s.4-.6,.2-.9Zm-1.8,1.8c.3-.2,.4-.6,.2-.9-.2-.3-.6-.4-.9-.2s-.4,.6-.2,.9c.2,.3,.6,.4,.9,.2Zm-1.4,.9c.3-.2,.4-.6,.2-.9-.2-.3-.6-.4-.9-.2-.3,.2-.4,.6-.2,.9,.2,.3,.6,.4,.9,.2h0Zm-1.4,1.1c.3-.2,.3-.6,.1-.9s-.6-.3-.9-.1c-.3,.2-.3,.6-.1,.9,.2,.3,.6,.3,.9,.1Zm-1.4,1c.3-.2,.3-.6,0-.9-.2-.3-.6-.3-.9,0-.3,.2-.3,.6,0,.9,.2,.3,.6,.3,.9,0Zm-1.3,1.2c.3-.2,.3-.6,0-.9-.2-.3-.6-.3-.9,0-.3,.2-.3,.6,0,.9,.2,.3,.6,.3,.9,0Zm-1.3,1.2c.2-.2,.2-.7,0-.9s-.7-.2-.9,0-.2,.7,0,.9,.7,.2,.9,0Zm-1.2,1.2c.2-.3,.2-.7,0-.9-.3-.2-.7-.2-.9,0-.2,.3-.2,.7,0,.9,.3,.2,.7,.2,.9,0Zm-2,1.4c.3,.2,.7,.2,.9,0,.2-.3,.2-.7,0-.9-.3-.2-.7-.2-.9,0-.2,.3-.2,.7,0,.9Zm-1.1,1.3c.3,.2,.7,.2,.9-.1s.2-.7-.1-.9-.7-.2-.9,.1-.2,.7,.1,.9Zm-1,1.5c.3,.2,.7,.1,.9-.2s.1-.7-.2-.9-.7-.1-.9,.2-.1,.7,.2,.9Zm-1,1.4c.3,.2,.7,.1,.9-.2s.1-.7-.2-.9-.7-.1-.9,.2-.1,.7,.2,.9Zm-.9,1.6c.3,.2,.7,0,.9-.2,.2-.3,0-.7-.2-.9-.3-.2-.7,0-.9,.2-.2,.3,0,.7,.2,.9Zm-.8,1.5c.3,.2,.7,0,.9-.3s0-.7-.3-.9-.7,0-.9,.3,0,.7,.3,.9Zm-.8,1.6c.3,.1,.7,0,.8-.3s0-.7-.3-.8-.7,0-.8,.3,0,.7,.3,.8Zm-.7,1.6c.3,.1,.7,0,.8-.3s0-.7-.3-.8-.7,0-.8,.3,0,.7,.3,.8Zm-.6,1.7c.3,.1,.7,0,.8-.4,.1-.3,0-.7-.4-.8-.3-.1-.7,0-.8,.4-.1,.3,0,.7,.4,.8Zm-.6,1.6c.3,.1,.7,0,.8-.4,.1-.3,0-.7-.4-.8-.3-.1-.7,0-.8,.4-.1,.3,0,.7,.4,.8Zm-.5,1.7c.3,0,.7-.1,.8-.4,0-.3-.1-.7-.4-.8-.3,0-.7,.1-.8,.4,0,.3,.1,.7,.4,.8Zm-.4,1.7c.3,0,.7-.1,.8-.5,0-.3-.1-.7-.5-.8-.3,0-.7,.1-.8,.5,0,.3,.1,.7,.5,.8Zm-.3,1.8c.3,0,.7-.2,.7-.5s-.2-.7-.5-.7-.7,.2-.7,.5,.2,.7,.5,.7Zm-.3,1.7c.3,0,.7-.2,.7-.5s-.2-.7-.5-.7-.7,.2-.7,.5,.2,.7,.5,.7Zm-.1,1.8c.3,0,.7-.2,.7-.6s-.2-.7-.6-.7-.7,.2-.7,.6,.2,.7,.6,.7Zm-.1,1.7c.4,0,.6-.3,.7-.6s-.3-.6-.6-.7-.6,.3-.7,.6c0,.4,.3,.6,.6,.7Z" fill="#ffde17"/>
        <circle cx="238.6" cy="217.6" r=".6" fill="#ffde17"/>
        <path d="M238.7,220c.4,0,.6-.3,.6-.7s-.3-.6-.7-.6-.6,.3-.6,.7,.3,.6,.7,.6Z" fill="#ffde17"/>
        <circle cx="238.8" cy="221.2" r=".6" fill="#ffde17"/>
        <path d="M239,223.5c.3,0,.6-.4,.5-.7,0-.3-.4-.6-.7-.5-.3,0-.6,.4-.5,.7,0,.3,.4,.6,.7,.5Zm.3,1.8c.3,0,.6-.4,.5-.7,0-.3-.4-.6-.7-.5-.3,0-.6,.4-.5,.7,0,.3,.4,.6,.7,.5Zm.4,1.7c.3,0,.6-.4,.5-.8,0-.3-.4-.6-.8-.5s-.6,.4-.5,.8c0,.3,.4,.6,.8,.5Zm.4,1.7c.3,0,.5-.4,.4-.8,0-.3-.4-.5-.8-.4-.3,0-.5,.4-.4,.8,0,.3,.4,.5,.8,.4Zm.5,1.7c.3-.1,.5-.5,.4-.8s-.5-.5-.8-.4-.5,.5-.4,.8,.5,.5,.8,.4Zm.6,1.7c.3-.1,.5-.5,.4-.8s-.5-.5-.8-.4-.5,.5-.4,.8,.5,.5,.8,.4Zm1,.8c-.1-.3-.5-.5-.8-.3-.3,.1-.5,.5-.3,.8,.1,.3,.5,.5,.8,.3,.3-.1,.5-.5,.3-.8Zm.7,1.6c-.1-.3-.5-.5-.8-.3-.3,.1-.5,.5-.3,.8,.1,.3,.5,.5,.8,.3,.3-.1,.5-.5,.3-.8Zm.7,1.5c-.2-.3-.5-.4-.9-.3s-.4,.5-.3,.9c.2,.3,.5,.4,.9,.3,.3-.2,.4-.5,.3-.9Zm.8,1.6c-.2-.3-.6-.4-.9-.2-.3,.2-.4,.6-.2,.9,.2,.3,.6,.4,.9,.2,.3-.2,.4-.6,.2-.9Zm.9,1.4c-.2-.3-.6-.4-.9-.2-.3,.2-.4,.6-.2,.9,.2,.3,.6,.4,.9,.2,.3-.2,.4-.6,.2-.9Zm1,1.5c-.2-.3-.6-.4-.9-.2-.3,.2-.4,.6-.2,.9,.2,.3,.6,.4,.9,.2,.3-.2,.4-.6,.2-.9Zm1,1.4c-.2-.3-.6-.3-.9-.1-.3,.2-.3,.6-.1,.9,.2,.3,.6,.3,.9,.1,.3-.2,.3-.6,.1-.9Zm1.1,1.4c-.2-.3-.6-.3-.9,0s-.3,.6,0,.9c.2,.3,.6,.3,.9,0,.3-.2,.3-.6,0-.9Zm1.1,1.3c-.2-.3-.6-.3-.9,0-.3,.2-.3,.6,0,.9,.2,.3,.6,.3,.9,0,.3-.2,.3-.6,0-.9Zm1.2,1.2c-.2-.2-.7-.2-.9,0s-.2,.7,0,.9,.7,.2,.9,0,.2-.7,0-.9Z" fill="#ffde17"/>
        <circle cx="251.5" cy="247.5" r=".6" fill="#ffde17"/>
        <path d="M253.2,248.2c-.3-.2-.7-.2-.9,0-.2,.3-.2,.7,0,.9,.3,.2,.7,.2,.9,0,.2-.3,.2-.7,0-.9Zm1.4,1.1c-.3-.2-.7-.2-.9,.1s-.2,.7,.1,.9,.7,.2,.9-.1,.2-.7-.1-.9Zm1.4,1c-.3-.2-.7-.1-.9,.2s-.1,.7,.2,.9,.7,.1,.9-.2c.2-.3,.1-.7-.2-.9Zm1.4,1c-.3-.2-.7-.1-.9,.2s-.1,.7,.2,.9c.3,.2,.7,.1,.9-.2,.2-.3,.1-.7-.2-.9Zm1.5,.9c-.3-.2-.7,0-.9,.2-.2,.3,0,.7,.2,.9,.3,.2,.7,0,.9-.2,.2-.3,0-.7-.2-.9Zm1.5,.9c-.3-.2-.7,0-.9,.3-.2,.3,0,.7,.3,.9s.7,0,.9-.3c.2-.3,0-.7-.3-.9Zm1.5,.7c-.3-.1-.7,0-.8,.3-.1,.3,0,.7,.3,.8s.7,0,.8-.3c.1-.3,0-.7-.3-.8Zm1.6,.7c-.3-.1-.7,0-.8,.3-.1,.3,0,.7,.3,.8s.7,0,.8-.3c.1-.3,0-.7-.3-.8Zm1.6,.7c-.3-.1-.7,0-.8,.4-.1,.3,0,.7,.4,.8,.3,.1,.7,0,.8-.4,.1-.3,0-.7-.4-.8h0Zm1.7,.6c-.3-.1-.7,0-.8,.4-.1,.3,0,.7,.4,.8,.3,.1,.7,0,.8-.4,.1-.3,0-.7-.4-.8h0Zm1.6,.5c-.3,0-.7,.1-.8,.4,0,.3,.1,.7,.4,.8,.3,0,.7-.1,.8-.4,0-.3-.1-.7-.4-.8Zm1.7,.4c-.3,0-.7,.1-.8,.5,0,.3,.1,.7,.5,.8,.3,0,.7-.1,.8-.5,0-.3-.1-.7-.5-.8Zm1.7,.3c-.3,0-.7,.2-.7,.5s.2,.7,.5,.7,.7-.2,.7-.5-.2-.7-.5-.7Z" fill="#ffde17"/>
        <circle cx="273.4" cy="257.9" r=".6" fill="#ffde17"/>
        <path d="M275.2,257.5c-.3,0-.7,.2-.7,.6s.2,.7,.6,.7,.7-.2,.7-.6-.2-.7-.6-.7Zm1.8,.1c-.4,0-.6,.3-.7,.6,0,.4,.3,.6,.6,.7,.4,0,.6-.3,.7-.6,0-.4-.3-.6-.6-.7Z" fill="#ffde17"/>
        <circle cx="278.7" cy="258.3" r=".6" fill="#ffde17"/>
        <path d="M280.4,257.7c-.4,0-.6,.3-.6,.7s.3,.6,.7,.6,.6-.3,.6-.7-.3-.6-.7-.6Z" fill="#ffde17"/>
        <circle cx="282.2" cy="258.2" r=".6" fill="#ffde17"/>
        <path d="M283.9,257.4c-.3,0-.6,.4-.5,.7,0,.3,.4,.6,.7,.5,.3,0,.6-.4,.5-.7,0-.3-.4-.6-.7-.5Zm1.7-.3c-.3,0-.6,.4-.5,.7,0,.3,.4,.6,.7,.5,.3,0,.6-.4,.5-.7,0-.3-.4-.6-.7-.5Zm1.7-.3c-.3,0-.6,.4-.5,.8,0,.3,.4,.6,.8,.5s.6-.4,.5-.8c0-.3-.4-.6-.8-.5Zm1.7-.4c-.3,0-.5,.4-.4,.8,0,.3,.4,.5,.8,.4,.3,0,.5-.4,.4-.8,0-.3-.4-.5-.8-.4Zm1.6-.5c-.3,.1-.5,.5-.4,.8s.5,.5,.8,.4,.5-.5,.4-.8-.5-.5-.8-.4Zm1.7-.5c-.3,.1-.5,.5-.4,.8s.5,.5,.8,.4,.5-.5,.4-.8-.5-.5-.8-.4h0Zm1.6-.6c-.3,.1-.5,.5-.3,.8,.1,.3,.5,.5,.8,.3,.3-.1,.5-.5,.3-.8-.1-.3-.5-.5-.8-.3Zm1.6-.7c-.3,.1-.5,.5-.3,.8,.1,.3,.5,.5,.8,.3,.3-.1,.5-.5,.3-.8-.1-.3-.5-.5-.8-.3Zm1.6-.7c-.3,.2-.4,.5-.3,.9s.5,.4,.9,.3,.4-.5,.3-.9c-.2-.3-.5-.4-.9-.3Zm1.5-.9c-.3,.2-.4,.6-.2,.9s.6,.4,.9,.2,.4-.6,.2-.9c-.2-.3-.6-.4-.9-.2Zm1.5-.9c-.3,.2-.4,.6-.2,.9,.2,.3,.6,.4,.9,.2s.4-.6,.2-.9c-.2-.3-.6-.4-.9-.2Zm1.4-.9c-.3,.2-.4,.6-.2,.9,.2,.3,.6,.4,.9,.2s.4-.6,.2-.9c-.2-.3-.6-.4-.9-.2Zm1.4-1c-.3,.2-.3,.6-.1,.9,.2,.3,.6,.3,.9,.1s.3-.6,.1-.9c-.2-.3-.6-.3-.9-.1Zm1.4-1.1c-.3,.2-.3,.6,0,.9,.2,.3,.6,.3,.9,0,.3-.2,.3-.6,0-.9-.2-.3-.6-.3-.9,0Zm1.3-1.1c-.3,.2-.3,.6,0,.9,.2,.3,.6,.3,.9,0,.3-.2,.3-.6,0-.9-.2-.3-.6-.3-.9,0Zm1.3-1.2c-.2,.2-.2,.7,0,.9s.7,.2,.9,0c.2-.2,.2-.7,0-.9s-.7-.2-.9,0Zm1.2-1.3c-.2,.3-.2,.7,0,.9,.3,.2,.7,.2,.9,0,.2-.3,.2-.7,0-.9-.3-.2-.7-.2-.9,0Zm2-1.3c-.3-.2-.7-.2-.9,0-.2,.3-.2,.7,0,.9,.3,.2,.7,.2,.9,0,.2-.3,.2-.7,0-.9Zm1.1-1.4c-.3-.2-.7-.2-.9,.1-.2,.3-.2,.7,.1,.9,.3,.2,.7,.2,.9-.1,.2-.3,.2-.7-.1-.9Zm1-1.4c-.3-.2-.7-.1-.9,.2-.2,.3-.1,.7,.2,.9,.3,.2,.7,.1,.9-.2,.2-.3,.1-.7-.2-.9Zm1-1.5c-.3-.2-.7-.1-.9,.2-.2,.3-.1,.7,.2,.9s.7,.1,.9-.2c.2-.3,.1-.7-.2-.9Zm.9-1.5c-.3-.2-.7,0-.9,.2-.2,.3,0,.7,.2,.9,.3,.2,.7,0,.9-.2,.2-.3,0-.7-.2-.9Zm.9-1.6c-.3-.2-.7,0-.9,.3-.2,.3,0,.7,.3,.9s.7,0,.9-.3c.2-.3,0-.7-.3-.9Zm.7-1.6c-.3-.1-.7,0-.8,.3-.1,.3,0,.7,.3,.8s.7,0,.8-.3c.1-.3,0-.7-.3-.8Zm.7-1.6c-.3-.1-.7,0-.8,.3-.1,.3,0,.7,.3,.8s.7,0,.8-.3c.1-.3,0-.7-.3-.8Zm.6-1.6c-.3-.1-.7,0-.8,.4-.1,.3,0,.7,.4,.8,.3,.1,.7,0,.8-.4,.1-.3,0-.7-.4-.8Zm.6-1.7c-.3-.1-.7,0-.8,.4-.1,.3,0,.7,.4,.8,.3,.1,.7,0,.8-.4,.1-.3,0-.7-.4-.8Zm.5-1.7c-.3,0-.7,.1-.8,.4,0,.3,.1,.7,.4,.8s.7-.1,.8-.4c0-.3-.1-.7-.4-.8Zm.4-1.7c-.3,0-.7,.1-.8,.5,0,.3,.1,.7,.5,.8,.3,0,.7-.1,.8-.5,0-.3-.1-.7-.5-.8Zm.3-1.7c-.3,0-.7,.2-.7,.5s.2,.7,.5,.7,.7-.2,.7-.5-.2-.7-.5-.7Zm.3-1.8c-.3,0-.7,.2-.7,.5s.2,.7,.5,.7,.7-.2,.7-.5-.2-.7-.5-.7Zm.1-1.7c-.3,0-.7,.2-.7,.6s.2,.7,.6,.7,.7-.2,.7-.6-.2-.7-.6-.7Zm.1-1.8c-.4,0-.6,.3-.7,.6s.3,.6,.6,.7c.4,0,.6-.3,.7-.6,0-.4-.3-.6-.6-.7Z" fill="#ffde17"/>
        <circle cx="319.4" cy="218.3" r=".6" fill="#ffde17"/>
        <path d="M319.3,215.9c-.4,0-.6,.3-.6,.7s.3,.6,.7,.6,.6-.3,.6-.7-.3-.6-.7-.6Zm-.1-1.8c-.3,0-.6,.3-.6,.7s.3,.6,.7,.6,.6-.3,.6-.7-.3-.6-.7-.6Zm-.2-1.7c-.3,0-.6,.4-.5,.7,0,.3,.4,.6,.7,.5,.3,0,.6-.4,.5-.7,0-.3-.4-.6-.7-.5Zm-.3-1.8c-.3,0-.6,.4-.5,.7,0,.3,.4,.6,.7,.5,.3,0,.6-.4,.5-.7,0-.3-.4-.6-.7-.5Zm-.4-1.7c-.3,0-.6,.4-.5,.8,0,.3,.4,.6,.8,.5s.6-.4,.5-.8c0-.3-.4-.6-.8-.5Zm-.4-1.7c-.3,0-.5,.4-.4,.8,0,.3,.4,.5,.8,.4,.3,0,.5-.4,.4-.8,0-.3-.4-.5-.8-.4Zm-.5-1.7c-.3,.1-.5,.5-.4,.8s.5,.5,.8,.4,.5-.5,.4-.8-.5-.5-.8-.4Zm-.6-1.6c-.3,.1-.5,.5-.4,.8s.5,.5,.8,.4,.5-.5,.4-.8-.5-.5-.8-.4Zm-1-.8c.1,.3,.5,.5,.8,.3,.3-.1,.5-.5,.3-.8-.1-.3-.5-.5-.8-.3-.3,.1-.5,.5-.3,.8Zm-.7-1.6c.1,.3,.5,.5,.8,.3,.3-.1,.5-.5,.3-.8-.1-.3-.5-.5-.8-.3-.3,.1-.5,.5-.3,.8Zm-.7-1.6c.2,.3,.5,.4,.9,.3,.3-.2,.4-.5,.3-.9s-.5-.4-.9-.3c-.3,.2-.4,.5-.3,.9Zm-.8-1.5c.2,.3,.6,.4,.9,.2s.4-.6,.2-.9c-.2-.3-.6-.4-.9-.2s-.4,.6-.2,.9Zm-.9-1.5c.2,.3,.6,.4,.9,.2s.4-.6,.2-.9-.6-.4-.9-.2-.4,.6-.2,.9Zm-1-1.5c.2,.3,.6,.4,.9,.2s.4-.6,.2-.9c-.2-.3-.6-.4-.9-.2s-.4,.6-.2,.9Zm-1-1.4c.2,.3,.6,.3,.9,.1s.3-.6,.1-.9c-.2-.3-.6-.3-.9-.1s-.3,.6-.1,.9Z" fill="#ffde17"/>
        <circle cx="310.1" cy="192.3" r=".6" fill="#ffde17"/>
        <path d="M308.5,191.4c.2,.3,.6,.3,.9,0,.3-.2,.3-.6,0-.9-.2-.3-.6-.3-.9,0-.3,.2-.3,.6,0,.9Zm-1.2-1.3c.2,.2,.7,.2,.9,0s.2-.7,0-.9-.7-.2-.9,0c-.2,.2-.2,.7,0,.9Zm-.3-1.2c.2-.3,.2-.7,0-.9-.3-.2-.7-.2-.9,0-.2,.3-.2,.7,0,.9,.3,.2,.7,.2,.9,0Zm-2.2-1.2c.3,.2,.7,.2,.9,0,.2-.3,.2-.7,0-.9-.3-.2-.7-.2-.9,0s-.2,.7,0,.9Zm-1.4-1.1c.3,.2,.7,.2,.9-.1s.2-.7-.1-.9c-.3-.2-.7-.2-.9,.1-.2,.3-.2,.7,.1,.9Zm-1.3-1c.3,.2,.7,.1,.9-.2,.2-.3,.1-.7-.2-.9-.3-.2-.7-.1-.9,.2-.2,.3-.1,.7,.2,.9Zm-1.5-1c.3,.2,.7,.1,.9-.2,.2-.3,.1-.7-.2-.9-.3-.2-.7-.1-.9,.2-.2,.3-.1,.7,.2,.9Zm-1.5-.9c.3,.2,.7,0,.9-.2,.2-.3,0-.7-.2-.9-.3-.2-.7,0-.9,.2-.2,.3,0,.7,.2,.9Zm-1.5-.8c.3,.2,.7,0,.9-.3,.2-.3,0-.7-.3-.9s-.7,0-.9,.3,0,.7,.3,.9Zm-1.5-.8c.3,.1,.7,0,.8-.3,.1-.3,0-.7-.3-.8s-.7,0-.8,.3c-.1,.3,0,.7,.3,.8Zm-1.6-.7c.3,.1,.7,0,.8-.3,.1-.3,0-.7-.3-.8s-.7,0-.8,.3c-.1,.3,0,.7,.3,.8Zm-1.6-.7c.3,.1,.7,0,.8-.4,.1-.3,0-.7-.4-.8-.3-.1-.7,0-.8,.4-.1,.3,0,.7,.4,.8Zm-1.6-.5c.3,.1,.7,0,.8-.4s0-.7-.4-.8c-.3-.1-.7,0-.8,.4-.1,.3,0,.7,.4,.8Zm-.9-1c0-.3-.1-.7-.4-.8-.3,0-.7,.1-.8,.4,0,.3,.1,.7,.4,.8,.3,0,.7-.1,.8-.4Zm-2.2-1.2c-.3,0-.7,.1-.8,.5,0,.3,.1,.7,.5,.8s.7-.1,.8-.5c0-.3-.1-.7-.5-.8Zm-1.8-.3c-.3,0-.7,.2-.7,.5s.2,.7,.5,.7,.7-.2,.7-.5-.2-.7-.5-.7Zm-1.7-.3c-.3,0-.7,.2-.7,.5s.2,.7,.5,.7,.7-.2,.7-.5-.2-.7-.5-.7Zm-1.8-.2c-.3,0-.7,.2-.7,.6s.2,.7,.6,.7,.7-.2,.7-.6-.2-.7-.6-.7Zm-1.8-.2c-.4,0-.6,.3-.7,.6,0,.4,.3,.6,.6,.7,.4,0,.6-.3,.7-.6,0-.4-.3-.6-.6-.7Z" fill="#ffde17"/>
      </g>
    </g>
    <path d="M244,130.8h12.1l-6.1,6.2,5.5,6.2h-23.5l1.9-9.7,10.1-2.7Z" fill="#fcd21f"/>
    <path d="M244,140.2l-12,3v-4.5l12,1.5Z" fill="#1a222c"/>
    <path d="M90.8,130.8h-11.9l6,6.5-6,5.9h23.6l-2-8.4-9.7-4Z" fill="#fcd21f"/>
    <path d="M90.8,140.2c.7,0,11.6,3,11.6,3v-4l-11.6,.9v.1Z" fill="#1a222c"/>
    <path d="M90.8,126.9H244v13.3H90.8v-13.3Z" fill="#ffde17"/>
    <g>
      <path d="M244,160.8h12.1l-6.1,6.2,5.5,6.2h-23.5l1.9-9.7,10.1-2.7Z" fill="#fcd21f"/>
      <path d="M244,170.2l-12,3v-4.5l12,1.5Z" fill="#1a222c"/>
      <path d="M90.8,160.8h-11.9l6,6.5-6,5.9h23.6l-2-8.4-9.7-4Z" fill="#fcd21f"/>
      <path d="M90.8,170.2c.7,0,11.6,3,11.6,3v-4l-11.6,.9v.1Z" fill="#1a222c"/>
      <path d="M90.8,156.9H244v13.3H90.8v-13.3Z" fill="#ffde17"/>
    </g>
    <path d="M16.9,201.4l-1.9,2.9,.2,.9,.9-.2,1.9-2.9-.6-.3c-.2-.1-.4-.3-.6-.4h.1Zm7.9-1c0-.1,0-.2,.1-.3v-.4c.2-1.1-.1-2.2-.8-3.3l1-1.5c1.1,.1,2.1-.1,2.6-.9,.8-1.3-.2-3.4-2.2-4.7s-4.4-1.4-5.2-.1c-.5,.7-.3,1.7,.3,2.7l-1,1.5c-1.2-.2-2.4,0-3.3,.6-.1,0-.2,.2-.3,.2l-.2,.2c0,.1-.2,.2-.3,.3-1.2,1.9-.2,4.8,2.3,6.4,2.5,1.6,5.5,1.4,6.8-.5,0-.1,.1-.2,.2-.4v.2Zm-.7-8.8c-.8-.5-1.2-1.3-.9-1.8,.3-.5,1.2-.5,2,0s1.2,1.3,.9,1.8c-.3,.5-1.2,.5-2,0Zm-4.4,53.1c-2.6,0-4.7,2.1-4.7,4.7s2.1,4.7,4.7,4.7,4.7-2.1,4.7-4.7-2.1-4.7-4.7-4.7Zm2,7.8l-2-1-2,1,.4-2.2-1.6-1.6,2.2-.3,1-2,1,2,2.2,.3-1.6,1.6,.4,2.2Zm-2-32.2c-2.6,0-4.7,2.1-4.7,4.7s2.1,4.7,4.7,4.7,4.7-2.1,4.7-4.7-2.1-4.7-4.7-4.7Zm2,7.8l-2-1-2,1,.4-2.2-1.6-1.6,2.2-.3,1-2,1,2,2.2,.3-1.6,1.6,.4,2.2Z" fill="#ffde17"/>
    <g>
      <path d="M231.8,273.7c0-1.1,.6-2.4,3.5-2.4s3,.3,4.2,.8,2,1.1,2,1.6h.8c0-.9-.9-1.7-2.5-2.4-1.4-.5-3.1-.8-4.5-.8s-2.7,.3-3.4,.9c-.6,.5-.9,1.3-.9,2.3h.8Z" fill="#ffde17"/>
      <path d="M314,265.3h-65.1c-.8,0-1.6,.3-2.3,.9l-6.5,5.4c-1.4,1.1-1.4,3.2,0,4.3l6.5,5.4c.7,.6,1.5,.9,2.3,.9h65.1c.8,0,1.5-.7,1.5-1.5v-13.7c0-.8-.7-1.5-1.5-1.5v-.2h0Zm-72.2,9.6c-.7,0-1.2-.5-1.2-1.2s.5-1.2,1.2-1.2,1.2,.5,1.2,1.2-.5,1.2-1.2,1.2Z" fill="#ed1c24"/>
      <path d="M231.8,276c.7,.6,2,.9,3.4,.9s3.2-.3,4.5-.8c1.7-.6,2.5-1.5,2.5-2.4h-.8c0,.5-.8,1.1-2,1.6-1.3,.5-2.9,.8-4.2,.8-2.8,0-3.5-1.3-3.5-2.4h-.8c0,1,.3,1.7,.9,2.3h0Z" fill="#ffde17"/>
    </g>
    <g>
      <path d="M322,29.9c0-.2,.1-.9,0-1h-1.1v1h1m-8.4,3.9v-1c-.8,0-1.1-.2-1.1,.6s.7,.4,1.1,.4m11.4-15.9c.8,0,.8-1.2,0-1.2s-.8,1.2,0,1.2m-6.5,8.5l-.7-.7c-.8,.8-.8,.7,0,1.5l.8-.8m-10-2.1l-.7-.7c-.8,.8-.9,.7,0,1.5l.8-.8m14.4,14.1c.9,0,.8-1.4,0-1.2-.8,0-.5,1.3,0,1.2m-14.2-25.7c.7,0,.8-1.1,.1-1.2-.8-.1-1,1.2-.1,1.2m-1.6-1.8c.8,0,.8-1.3,0-1.3s-.8,1.2,0,1.3m4.8,20.7l-.7-.7-.8,.8c.7,.7,.9,.7,1.5,0m11.8-16.4v-1c-.8,0-1.1-.2-1.1,.6s.7,.4,1.1,.4m-9.4,23.1c.7,0,.8-1.1,.1-1.2-.8,0-1,1.2-.1,1.2m-8.1-.5v-1c-.8,0-1.1-.2-1.1,.6s.7,.4,1.1,.4m3.1-24c-.8-.8-.7-.7-1.5,0l.7,.7,.8-.8" fill="#ffde17"/>
      <path d="M321.8,29.5c0-.2,.1-.9,0-1h-1.1v1c.1,.1,.9,0,1.1,0m-8.5,3.8v-1c-.8,0-1.1-.2-1.1,.6s.7,.4,1.1,.4m11.4-16c.9,0,.8-1.4,0-1.2-.8,.1-.5,1.3,0,1.2m-6.2,8.5c-.8-.8-.7-.7-1.5,0l.7,.7,.8-.8m-9.9-2c-.8-.7-.7-.7-1.5,0l.7,.7c.3-.2,.5-.5,.8-.7m1.3-2.4c.2-1.6,0-2.8,1.4-3.8,.5-.3,1-.6,1.6-.7,.9-.1,.8,0,.8-1.1-3.2,.2-4.6,2.8-3.9,5.6m1.3,2c.5-1.3,4.5-1.2,4.5,.3,1.1-.6-.3-1.7-1-1.8-1.6-.4-2.9,0-3.5,1.5" fill="#ffde17"/>
      <path d="M315.6,24.2c-1.1,2-5.3,.8-4.9-1.6,.7,2.1,4.2,2.3,5.3,.6-.1,.3-.3,.8-.4,1m-5-2.3c0-1.4,3.8-2.7,4.3-1.3,.9-.9-.9-1.4-1.6-1.4-1.7,.1-2.6,1.1-2.8,2.6" fill="#ffde17"/>
      <path d="M315.1,21.2c0,1-1.4,1.5-2.2,1.7-1.3,.5-2.6-.2-3-1.6,1.3,1.4,4.9,.9,5.2-1.3v1.1m3.6,9c-.8-1.8-2.4-1.7-4.1-2.2-1.9-.6-3.1-1.9-3.7-3.7-.2,2.1,1.4,4,3.3,4.6,1.8,.6,4.3,.6,4.5,3.1v-1.8m4.3,7.8c.8,0,.8-1.2,0-1.2s-.8,1.2,0,1.2m-14.4-25.7c.9,0,.8-1.4,0-1.2-.8,.1-.5,1.3,0,1.2m-1.5-1.8c.8,0,.8-1.2,0-1.2s-.7,1.4,0,1.2m5,20.7l-.7-.7c-.8,.8-.8,.7,0,1.5l.8-.8m11.4-16.3v-1c-.8,0-1.1-.2-1.1,.6s.7,.4,1.1,.4" fill="#ffde17"/>
      <path d="M300.4,12.3c-.8-.8-.7-.7-1.5,0,.7,.7,.8,.8,1.5,0m21.4-2.2c-.8-.8-.7-.7-1.5,0,.7,.7,.8,.8,1.5,0" fill="#ffde17"/>
      <path d="M302.4,27.7c.2-1.4,0-2.8,1.3-3.7,.5-.3,1.1-.8,1.7-.8,.9,0,.8-.2,.8-1.1-3.1,.3-4.8,2.7-3.9,5.6m1.2,2c.5-1.3,4.6-1.2,4.5,.3,1.1-.5-.2-1.6-.9-1.8-1.6-.5-3,0-3.6,1.5" fill="#ffde17"/>
      <path d="M308,30.7c-1.3,1.9-5.2,.8-4.9-1.6,.7,2.1,4.1,2.3,5.3,.6-.1,.3-.3,.7-.4,1m-5-2.4c0-1.4,3.8-2.7,4.3-1.3,.9-.9-.8-1.4-1.5-1.4-1.5,0-2.9,1-2.8,2.6" fill="#ffde17"/>
      <path d="M307.5,27.6c-.3,2.4-4.5,2.4-5.2,.2,1.5,1.5,4.6,.8,5.2-1.2v1.1m3.6,8.8c-.3-1.8-2.6-1.8-3.9-2.2-2-.5-3.2-1.8-3.9-3.7-.1,2.1,1.5,4.2,3.5,4.7,1.9,.5,3.8,.6,4.3,2.9v-1.7" fill="#ffde17"/>
      <path d="M328.2,32.1c.2,2-.6,4.1-2.9,4.1,0,.3,0,.6,.1,.9,2.5-.6,4-2.5,2.8-5m-1.1-1.6c-.2,1.2-3.6,1.3-3.8,0-.9,.5,.3,1.3,.9,1.5,1.2,.3,2.7-.2,2.9-1.5" fill="#ffde17"/>
      <path d="M323.2,30c1.2-1.6,4.2-1.1,4.3,1.1-.9-1.4-3.8-1.9-4.6-.1,0-.3,.2-.7,.2-.9m4.5,1.6c.3,1.3-2.9,2.5-3.6,1.4-.5,.7,.6,1.1,1.2,1.1,1.3,0,2.6-1,2.4-2.5" fill="#ffde17"/>
      <path d="M323.8,32.6c.4-1.9,3.8-2.6,4.4-.5-1.3-1.1-4.2-.4-4.3,1.5,0-.3,0-.7-.1-1m-3.7-7.3c.7,1.3,1.8,1.3,3.1,1.5,1.9,.3,3.2,1.2,3.9,2.9,0-1.9-1.5-3.3-3.3-3.7-1.5-.3-3.4-.2-3.8-2.2,0,.5,.2,1.1,.1,1.5" fill="#ffde17"/>
      <path d="M322.6,17.7c0,1.2,.2,2.2-.7,3.1-.6,.6-1.4,1-2.2,1v.9c2.5-.6,4-2.5,2.9-5m-1.1-1.7c-.2,1.3-3.6,1.4-3.8,0-.9,.5,.3,1.3,.9,1.5,1.2,.3,2.7-.2,2.9-1.5" fill="#ffde17"/>
      <path d="M317.7,15.6c1.1-1.5,4.5-1.1,4.3,1.1-.7-1.8-3.7-1.6-4.6-.2,0-.3,.2-.6,.3-.9m4.3,1.6c.3,1.3-2.9,2.5-3.5,1.4-.6,.8,.8,1.1,1.3,1.1,1.1-.1,2.7-1.2,2.2-2.5" fill="#ffde17"/>
      <path d="M318.2,18.2c.4-1.9,3.8-2.6,4.4-.5-1.3-1.3-4.1-.2-4.3,1.5v-1m-3.7-7.3c.6,1.3,1.8,1.3,3.1,1.5,1.9,.3,3.2,1.2,4,2.9,0-2-1.6-3.4-3.5-3.8-1.5-.3-3.2-.2-3.6-2.2,0,.5,0,1,.1,1.5" fill="#ffde17"/>
      <path d="M306.6,15.6c.2,2-.6,4.1-2.9,4.1v.9c2.6-.6,4.1-2.5,2.9-5m-1.1-1.6c-.2,1.3-3.6,1.4-3.8,0-.9,.5,.3,1.3,.9,1.5,1.2,.3,2.7-.2,2.9-1.5" fill="#ffde17"/>
      <path d="M301.6,13.5c1.2-1.5,4.5-1.2,4.3,1.1-.6-1.7-3.8-1.7-4.5-.2,0-.3,.2-.7,.2-.9" fill="#ffde17"/>
      <path d="M306,15.2c.3,1.3-2.9,2.5-3.6,1.4-.6,.8,.8,1.1,1.3,1.1,1.3-.1,2.5-1.1,2.2-2.5" vector-effect="non-scaling-stroke" fill="#ffde17"/>
      <path d="M302.2,16.1c.5-2,3.6-2.4,4.4-.5-1.3-1.1-4.2-.4-4.3,1.5,0-.3,0-.7-.1-1m-3.7-7.3c.7,1.3,1.8,1.3,3.1,1.5,1.9,.3,3.1,1.2,3.9,2.9,0-1.9-1.5-3.3-3.3-3.7-1.5-.3-3.4-.2-3.8-2.2,0,.5,.2,1.1,.1,1.5" fill="#ffde17"/>
      <path d="M314.3,37.9c.9,0,.8-1.4,0-1.2-.8,0-.5,1.3,0,1.2m-8.2-.5v-1c-.8,0-1.1-.2-1.1,.6s.7,.4,1.1,.4" fill="#ffde17"/>
    </g>
  </g>
</svg>