<svg id="b7e55b36-7041-4f9b-87eb-6c4d1fa28c2e" data-name="Layer 1" xmlns="http://www.w3.org/2000/svg"
  width="335" height="335" viewBox="0 0 335 335">
  <defs>
    <clipPath id="a8e07af2-7be6-48f9-961c-b8e888c5999e">
      <rect width="335" height="335" fill="none"/>
    </clipPath>
    <clipPath id="b3a9dcc4-831a-4af4-a5b1-31d59f394297">
      <rect y="-0.1" width="335" height="335" fill="none"/>
    </clipPath>
  </defs>
  <g clip-path="url(#a8e07af2-7be6-48f9-961c-b8e888c5999e)">
    <g>
      <g clip-path="url(#b3a9dcc4-831a-4af4-a5b1-31d59f394297)">
        <rect y="-0.1" width="335" height="335" fill="#282560"/>
      </g>
      <g id="ba11f205-9e90-475f-90e1-0396330a2a26" opacity="0.05">
        <circle cx="167.5" cy="167.5" r="165.1" fill="#7cd2ee"/>
        <path d="M167.5,335A167.5,167.5,0,1,1,335,167.5h0A167.6,167.6,0,0,1,167.5,335Zm0-330.2a162.7,162.7,0,0,0,0,325.4c89.8.1,162.7-72.8,162.7-162.7h0A162.9,162.9,0,0,0,167.5,4.8Z" fill="#0f4068"/>
        <circle cx="167.5" cy="167.5" r="136.8" fill="#fff"/>
        <path d="M167.5,306.7A139.2,139.2,0,1,1,306.7,167.5,139.2,139.2,0,0,1,167.5,306.7Zm0-273.6A134.4,134.4,0,1,0,301.9,167.5h0A134.6,134.6,0,0,0,167.5,33.1Z" fill="#0f4068"/>
        <circle cx="167.5" cy="167.5" r="101.6" fill="#7cd2ee"/>
        <path d="M167.5,271.5A104,104,0,1,1,271.4,167.4h0A104.1,104.1,0,0,1,167.5,271.5Zm0-203.1a99.2,99.2,0,1,0,99.1,99.3v-.2a99.4,99.4,0,0,0-99.1-99.2Z" fill="#0f4068"/>
        <circle cx="167.5" cy="167.5" r="69.5" fill="#fff"/>
        <path d="M167.5,239.4a71.9,71.9,0,1,1,71.9-71.9h0A72,72,0,0,1,167.5,239.4Zm0-139a67.1,67.1,0,1,0,67.1,67.1h0A67.3,67.3,0,0,0,167.5,100.4Z" fill="#0f4068"/>
        <circle cx="167.5" cy="167.5" r="38.5" fill="#7cd2ee"/>
        <path d="M167.5,208.4a40.9,40.9,0,1,1,40.9-40.9h0A40.9,40.9,0,0,1,167.5,208.4Zm0-77a36.1,36.1,0,1,0,36.1,36.1h0a36.1,36.1,0,0,0-36.1-36.1Z" fill="#0f4068"/>
      </g>
    </g>
    <g id="f0bac235-f78d-4ef2-9c6f-eba362bdc91e">
      <rect x="27.3" y="323.3" width="27.1" height="1.14" fill="#465b65"/>
      <polygon points="28.4 324.5 15.1 321.9 15.1 320.7 28.4 323.3 28.4 324.5" fill="#465b65"/>
      <polygon points="58.7 348.3 60.7 348.3 49.3 290 44.1 290 58.7 348.3" fill="#465b65"/>
      <path d="M49.3,290H44.1l3.1,12.3a24.7,24.7,0,0,0,4.2-1.7Z" fill="#384850"/>
      <polygon points="22.4 348.3 20.3 348.3 34.9 290 40.1 290 22.4 348.3" fill="#465b65"/>
      <path d="M34.9,290l-3.1,12.4a31.5,31.5,0,0,0,4.2.9L40.1,290Z" fill="#384850"/>
      <polygon points="5.2 348.3 3.1 348.3 28.2 286.8 33.4 286.8 5.2 348.3" fill="#465b65"/>
      <path d="M23.5,298.5a25,25,0,0,0,3.5,2.1l6.4-13.8H28.2Z" fill="#384850"/>
      <ellipse cx="34.6" cy="268.5" rx="27.6" ry="32.6" transform="translate(-97.6 32.3) rotate(-21.9)" fill="#ffc82b"/>
      <polygon points="35.9 236.2 29.4 236.7 40.1 300.4 46.7 299.9 35.9 236.2" fill="#ffc82b"/>
      <g>
        <ellipse cx="34.6" cy="268.5" rx="27.6" ry="32.6" transform="translate(-97.6 32.3) rotate(-21.9)" fill="#231f20"/>
        <polygon points="35.9 236.2 29.4 236.7 40.1 300.4 46.7 299.9 35.9 236.2" fill="#010101"/>
      </g>
      <ellipse cx="40.7" cy="268.1" rx="27.6" ry="32.6" transform="translate(-97 34.5) rotate(-21.9)" fill="#414042"/>
      <ellipse cx="40.7" cy="268.1" rx="21.5" ry="25.4" transform="translate(-97 34.5) rotate(-21.9)" fill="#fff"/>
      <ellipse cx="40.7" cy="268.1" rx="15.5" ry="18.3" transform="translate(-97 34.5) rotate(-21.9)" fill="#ed1c24"/>
      <ellipse cx="40.7" cy="268.1" rx="9.5" ry="11.2" transform="translate(-97 34.5) rotate(-21.9)" fill="#fff"/>
      <path d="M36.4,267.5a5.3,5.3,0,0,0,4.3,5.4c2.4.3,4.3-1.6,4.3-4.3a5.4,5.4,0,0,0-4.3-5.4C38.3,262.9,36.4,264.9,36.4,267.5Z" fill="#262262"/>
    </g>
    <g>
      <g>
        <path d="M34.1,19.3a1.6,1.6,0,0,1-.5,1.1l-4.8,4.9-5.2-3v-3a1.5,1.5,0,0,1,1.5-1.5,1.5,1.5,0,0,1,1.5,1.5h0v3.8l4.8-4.9a1.6,1.6,0,0,1,2.2,0,1.6,1.6,0,0,1,.5,1.1" fill="#fff"/>
        <path d="M32.5,33.4h-.6l-.5-.3-4.8-4.8v3.7a1.5,1.5,0,0,1-1.5,1.5,1.5,1.5,0,0,1-1.5-1.5v-3l5.2-3,4.8,4.9a1.5,1.5,0,0,1-1.1,2.6" fill="#fff"/>
        <path d="M28.5,25.5c0-.1,0-.1-.1-.2h0l-1.3-.8-3.5-2-3-1.7a.4.4,0,0,0-.5.1v9.2a.3.3,0,0,0,.3.3h.2l3-1.7,4.8-2.8h0c.1-.1.1-.1.1-.2h0Zm-1.1.2h-.2L23.5,28l-2.3,1.3a.2.2,0,0,1-.4-.1h0v-7a.3.3,0,0,1,.3-.3h.1l2.3,1.3,3.7,2.2c.1,0,.2.2.2.3Z" fill="#fff"/>
        <path d="M26.3,25.7a.1.1,0,0,1-.1.1l-2.8,1.6-1.7,1c-.1.1-.2,0-.3-.1h0V23a.2.2,0,0,1,.2-.2h.1l1.7,1,2.8,1.6h.1v.2" fill="#fff"/>
      </g>
      <g>
        <path d="M59.5,25.4h-.2L55,23.1l-2.6-1.3c-.2-.1-.5,0-.5.2v7.1a.3.3,0,0,0,.5.3L55.1,28l4.2-2.3h.2Zm-1.1.2h-.1L55,27.4l-2,1.1c-.1.1-.3,0-.3-.2V22.8a.2.2,0,0,1,.2-.2h.1l2.1,1,3.3,1.7h.1v.2Z" fill="#fff"/>
        <path d="M57.5,25.6h-.1L55,27l-1.6.8c-.1,0-.2,0-.2-.1h0V23.5a.2.2,0,0,1,.2-.2h.1l1.5.8,2.5,1.3c.1,0,.1,0,.1.1h0" fill="#fff"/>
        <path d="M37.2,21.9h3.7c1.8,0,3.2,1,3.2,2.5s-1.3,2.5-3.1,2.6H39v2.4H37.3Zm3.6,3.5c.9,0,1.5-.4,1.4-1.1s-.6-1-1.5-1H39v2.1Z" fill="#fff"/>
        <path d="M51.1,27.9v1.4H45.2V22h1.8v6Z" fill="#fff"/>
        <path d="M61.4,26.5l-3.3-4.7h2.1L62.3,25l2.1-3.2h2l-3.2,4.8v2.7H61.4Z" fill="#fff"/>
        <path d="M67.5,22.2h1v4.1l4.2-4.1h1.2l-3.4,3.5,3.7,4H73l-3.2-3.4-1.3,1.2v2.2h-1Z" fill="#fff"/>
        <path d="M74.7,25.9a4.3,4.3,0,0,1,8.5-.2A4.1,4.1,0,0,1,79,29.6,4,4,0,0,1,74.7,25.9Zm7.5-.1a3.2,3.2,0,0,0-3.3-3.1,3.4,3.4,0,0,0-3.3,3.1A3.4,3.4,0,0,0,79,28.9a3.3,3.3,0,0,0,3.2-3.1Z" fill="#fff"/>
        <path d="M84.4,28.5l.5-.7a3.9,3.9,0,0,0,2.8,1.1c1.2,0,1.9-.7,1.9-1.3s-.8-1.1-2.3-1.4-2.7-.8-2.7-2.1S85.8,22,87.3,22a4.2,4.2,0,0,1,3,1l-.6.7a3.7,3.7,0,0,0-2.4-1c-1,0-1.8.7-1.7,1.3s.8,1.1,2.2,1.4,2.7.8,2.7,2.1-.9,2.1-2.9,2.1A4.3,4.3,0,0,1,84.4,28.5Z" fill="#fff"/>
        <path d="M92.3,22.2h.9l3.1,5.1,3-5.2h1v7.4h-1V24l-3,5.2L93.2,24v5.6h-1Z" fill="#fff"/>
        <path d="M102.1,25.9a4.3,4.3,0,0,1,8.5-.2,4.1,4.1,0,0,1-4.2,3.9A4,4,0,0,1,102.1,25.9Zm7.5-.1a3.2,3.2,0,0,0-3.3-3.1,3.4,3.4,0,0,0-3.3,3.1,3.4,3.4,0,0,0,3.4,3.1,3.3,3.3,0,0,0,3.2-3.1Z" fill="#fff"/>
        <path d="M111.8,28.5l.6-.7a3.5,3.5,0,0,0,2.7,1.1c1.3,0,1.9-.7,1.9-1.3s-.8-1.1-2.3-1.4-2.7-.8-2.7-2.1,1.2-2.1,2.8-2.1a4,4,0,0,1,2.9,1l-.6.7a3.7,3.7,0,0,0-2.4-1A1.6,1.6,0,0,0,113,24c0,.8.8,1.1,2.2,1.4s2.7.8,2.7,2.1-.9,2.1-2.9,2.1A4.3,4.3,0,0,1,111.8,28.5Z" fill="#fff"/>
      </g>
    </g>
    <polygon points="223.7 0 223.7 12.7 232.9 25.7 335.4 25.7 335.4 0 223.7 0" fill="#eb2127"/>
    <rect x="136.1" y="281.1" width="134.4" height="13.78" rx="4.1" fill="#fff"/>
    <path d="M170.7,294.9H70a3.6,3.6,0,0,1-3.6-3.6v-6.5a3.7,3.7,0,0,1,3.6-3.7H170.6l.3.3v13.4Z" fill="#ed2224"/>
    <rect x="110.7" y="253" width="115.5" height="13.12" rx="5" fill="#fff200"/>
    <polygon points="174.7 164.4 167.5 159 160.3 164.4 167.5 149.9 167.5 149.9 174.7 164.4" fill="#fff"/>
    <g>
      <rect x="277.9" y="267.7" width="73.3" height="0.8" transform="matrix(0.2, -0.98, 0.98, 0.2, -10.12, 523.9)" fill="#fff"/>
      <polygon points="319.3 229.7 319.4 229.8 321.2 232.6 322.6 225.8 320.7 222.8 319.3 229.7" fill="#ed1c24"/>
      <path d="M326.2,223.9l-2.8,2-1.4,6.8a17.3,17.3,0,0,1,2.8-1.9Z" fill="#ed1c24"/>
      <polygon points="305.1 301.6 307.5 303.2 310.3 302.6 306.5 308.3 305.1 301.6" fill="#273339"/>
      <rect x="314.1" y="237.7" width="0.8" height="73.31" transform="translate(-25.5 32.4) rotate(-5.7)" fill="#fff"/>
      <polygon points="307.9 236.2 308 236.3 310.5 238.3 309.8 231.4 307.2 229.2 307.9 236.2" fill="#ed1c24"/>
      <path d="M312.7,228.6l-2.1,2.8.7,6.9a13.9,13.9,0,0,1,2.1-2.7Z" fill="#ed1c24"/>
      <polygon points="315.2 309 318 309.9 320.6 308.5 318.5 315.1 315.2 309" fill="#273339"/>
      <rect x="266.4" y="269.3" width="73.3" height="0.8" transform="translate(27.4 567.3) rotate(-88.9)" fill="#fff"/>
      <polygon points="300.9 231 301 231.1 303.3 233.5 303.4 226.5 301 224 300.9 231" fill="#ed1c24"/>
      <path d="M306.6,224.1l-2.4,2.4v7a13.6,13.6,0,0,1,2.4-2.4Z" fill="#ed1c24"/>
      <polygon points="299.6 304.2 302.2 305.4 304.9 304.3 302.1 310.6 299.6 304.2" fill="#273339"/>
      <rect x="305" y="242.4" width="0.8" height="73.31" transform="translate(-30.5 37.6) rotate(-6.7)" fill="#fff"/>
      <polygon points="298.1 241 298.3 241.1 300.8 243.1 300 236.2 297.3 234.1 298.1 241" fill="#ed1c24"/>
      <path d="M302.9,233.4l-2.1,2.8.8,6.8a17.8,17.8,0,0,1,2.1-2.7Z" fill="#ed1c24"/>
      <polygon points="306.8 313.7 309.6 314.5 312.1 313.1 310.2 319.7 306.8 313.7" fill="#384850"/>
      <rect x="276.4" y="280.6" width="73.3" height="0.8" transform="translate(9.4 572.2) rotate(-85.7)" fill="#fff"/>
      <polygon points="313.1 242.3 313.2 242.4 315.4 244.9 315.9 238 313.6 235.3 313.1 242.3" fill="#ed1c24"/>
      <path d="M319.2,235.7l-2.5,2.3-.6,7a13.8,13.8,0,0,1,2.6-2.3Z" fill="#ed1c24"/>
      <polygon points="307.8 315.4 310.4 316.7 313.1 315.8 310 321.9 307.8 315.4" fill="#384850"/>
      <rect x="310" y="246.3" width="0.8" height="73.31" transform="matrix(1, -0.07, 0.07, 1, -18.84, 22.17)" fill="#fff"/>
      <polygon points="304.9 244.6 305.1 244.7 307.5 246.9 307 239.9 304.4 237.6 304.9 244.6" fill="#ed1c24"/>
      <path d="M310,237.2l-2.2,2.7.5,6.9a17.8,17.8,0,0,1,2.2-2.6Z" fill="#ed1c24"/>
      <polygon points="310.2 317.7 312.9 318.6 315.5 317.3 313.3 323.8 310.2 317.7" fill="#384850"/>
      <rect x="297.7" y="250.2" width="24.5" height="79.17" fill="#fff200"/>
      <path d="M321.5,253.6c-3-.2-5.9-.2-8.8-.2l-8.7.2-5,.2h0l8.8.2h8.7a41.9,41.9,0,0,0,5-.3h.1A.3.3,0,0,0,321.5,253.6Z" fill="#273339"/>
      <path d="M321.5,255.9c-3-.2-5.9-.2-8.8-.2l-8.7.2a41,41,0,0,0-5,.2h0c2.9.2,5.8.2,8.8.2s5.8,0,8.7,0l5-.2a.3.3,0,0,0,.1-.2Z" fill="#273339"/>
    </g>
  </g>
</svg>
