<svg xmlns="http://www.w3.org/2000/svg" xmlns:xlink="http://www.w3.org/1999/xlink" width="335" height="335" xmlns:v="https://vecta.io/nano"><style><![CDATA[.B{fill:#fff}.C{fill:#ed1c24}.D{fill:#384850}.E{fill:#0f4068}.F{fill:#273339}.G{fill:#7cd2ee}.H{fill:#465b65}]]></style><defs><clipPath id="A"><path fill="none" d="M0 0h335v335H0z"/></clipPath><clipPath id="B"><path fill="none" d="M0-.1h335v335H0z"/></clipPath><path id="C" d="M74.7 25.9a4.3 4.3 0 0 1 8.5-.2 4.1 4.1 0 0 1-4.2 3.9 4 4 0 0 1-4.3-3.7zm7.5-.1a3.2 3.2 0 0 0-3.3-3.1 3.4 3.4 0 0 0-3.3 3.1 3.4 3.4 0 0 0 3.4 3.1 3.3 3.3 0 0 0 3.2-3.1z"/></defs><g clip-path="url(#A)"><g clip-path="url(#B)"><path fill="#282560" d="M0-.1h335v335H0z"/></g><g opacity=".05"><circle cx="167.5" cy="167.5" r="165.1" class="G"/><path d="M167.5,335A167.5,167.5,0,1,1,335,167.5h0A167.6,167.6,0,0,1,167.5,335Zm0-330.2a162.7,162.7,0,0,0,0,325.4c89.8.1,162.7-72.8,162.7-162.7h0A162.9,162.9,0,0,0,167.5,4.8Z" class="E"/><circle cx="167.5" cy="167.5" r="136.8" class="B"/><path d="M167.5,306.7A139.2,139.2,0,1,1,306.7,167.5,139.2,139.2,0,0,1,167.5,306.7Zm0-273.6A134.4,134.4,0,1,0,301.9,167.5h0A134.6,134.6,0,0,0,167.5,33.1Z" class="E"/><circle cx="167.5" cy="167.5" r="101.6" class="G"/><path d="M167.5,271.5A104,104,0,1,1,271.4,167.4h0A104.1,104.1,0,0,1,167.5,271.5Zm0-203.1a99.2,99.2,0,1,0,99.1,99.3v-.2a99.4,99.4,0,0,0-99.1-99.2Z" class="E"/><circle cx="167.5" cy="167.5" r="69.5" class="B"/><path d="M167.5 239.4a71.9 71.9 0 1 1 71.9-71.9h0a72 72 0 0 1-71.9 71.9zm0-139a67.1 67.1 0 1 0 67.1 67.1h0a67.3 67.3 0 0 0-67.1-67.1z" class="E"/><circle cx="167.5" cy="167.5" r="38.5" class="G"/><path d="M167.5 208.4a40.9 40.9 0 1 1 40.9-40.9h0a40.9 40.9 0 0 1-40.9 40.9zm0-77a36.1 36.1 0 1 0 36.1 36.1h0a36.1 36.1 0 0 0-36.1-36.1z" class="E"/></g><g class="H"><path d="M27.3 323.3h27.1v1.14H27.3z"/><path d="M28.4 324.5l-13.3-2.6v-1.2l13.3 2.6v1.2zm30.3 23.8h2L49.3 290h-5.2l14.6 58.3z"/></g><path d="M49.3,290H44.1l3.1,12.3a24.7,24.7,0,0,0,4.2-1.7Z" class="D"/><path d="M22.4 348.3h-2.1L34.9 290h5.2l-17.7 58.3z" class="H"/><path d="M34.9,290l-3.1,12.4a31.5,31.5,0,0,0,4.2.9L40.1,290Z" class="D"/><path d="M5.2 348.3H3.1l25.1-61.5h5.2L5.2 348.3z" class="H"/><path d="M23.5,298.5a25,25,0,0,0,3.5,2.1l6.4-13.8H28.2Z" class="D"/><g fill="#ffc82b"><ellipse cx="34.6" cy="268.5" rx="27.6" ry="32.6" transform="matrix(.927836 -.372988 .372988 .927836 -97.6 32.3)"/><path d="M35.9 236.2l-6.5.5 10.7 63.7 6.6-.5-10.8-63.7z"/></g><ellipse cx="34.6" cy="268.5" rx="27.6" ry="32.6" transform="matrix(.927836 -.372988 .372988 .927836 -97.6 32.3)" fill="#231f20"/><path fill="#010101" d="M35.9 236.2l-6.5.5 10.7 63.7 6.6-.5-10.8-63.7z"/><g transform="matrix(.927836 -.372988 .372988 .927836 -97 34.5)"><ellipse cx="40.7" cy="268.1" rx="27.6" ry="32.6" fill="#414042"/><ellipse cx="40.7" cy="268.1" rx="21.5" ry="25.4" class="B"/><ellipse cx="40.7" cy="268.1" rx="15.5" ry="18.3" class="C"/><ellipse cx="40.7" cy="268.1" rx="9.5" ry="11.2" class="B"/></g><path d="M36.4 267.5a5.3 5.3 0 0 0 4.3 5.4c2.4.3 4.3-1.6 4.3-4.3a5.4 5.4 0 0 0-4.3-5.4c-2.4-.3-4.3 1.7-4.3 4.3z" fill="#262262"/><g class="B"><path d="M34.1 19.3a1.6 1.6 0 0 1-.5 1.1l-4.8 4.9-5.2-3v-3a1.5 1.5 0 1 1 3 0h0v3.8l4.8-4.9a1.6 1.6 0 0 1 2.7 1.1m-1.6 14.1h-.6l-.5-.3-4.8-4.8V32a1.5 1.5 0 1 1-3 0v-3l5.2-3 4.8 4.9a1.5 1.5 0 0 1-1.1 2.6m-4-8c0-.1 0-.1-.1-.2h0l-1.3-.8-3.5-2-3-1.7a.4.4 0 0 0-.5.1v9.2a.3.3 0 0 0 .3.3h.2l3-1.7 4.8-2.8h0c.1-.1.1-.1.1-.2h0zm-1.1.2h-.2L23.5 28l-2.3 1.3a.206.206 0 0 1-.4-.1h0v-7a.3.3 0 0 1 .3-.3h.1l2.3 1.3 3.7 2.2c.1 0 .2.2.2.3zm-1.1 0a.1.1 0 0 1-.1.1l-2.8 1.6-1.7 1c-.1.1-.2 0-.3-.1h0V23a.2.2 0 0 1 .2-.2h.1l1.7 1 2.8 1.6h.1v.2m33.2-.2h-.2L55 23.1l-2.6-1.3c-.2-.1-.5 0-.5.2v7.1a.3.3 0 0 0 .5.3l2.7-1.4 4.2-2.3h.2zm-1.1.2h-.1L55 27.4l-2 1.1c-.1.1-.3 0-.3-.2v-5.5a.2.2 0 0 1 .2-.2h.1l2.1 1 3.3 1.7h.1v.2z"/><path d="M57.5 25.6h-.1L55 27l-1.6.8c-.1 0-.2 0-.2-.1h0v-4.2a.2.2 0 0 1 .2-.2h.1l1.5.8 2.5 1.3c.1 0 .1 0 .1.1h0m-20.4-3.6h3.7c1.8 0 3.2 1 3.2 2.5S42.8 26.9 41 27h-2v2.4h-1.7zm3.6 3.5c.9 0 1.5-.4 1.4-1.1s-.6-1-1.5-1H39v2.1z"/><path d="M51.1 27.9v1.4h-5.9V22H47v6zm10.3-1.4l-3.3-4.7h2.1l2.1 3.2 2.1-3.2h2l-3.2 4.8v2.7h-1.8zm6.1-4.3h1v4.1l4.2-4.1h1.2l-3.4 3.5 3.7 4H73l-3.2-3.4-1.3 1.2v2.2h-1z"/><use xlink:href="#C"/><path d="M84.4 28.5l.5-.7a3.9 3.9 0 0 0 2.8 1.1c1.2 0 1.9-.7 1.9-1.3s-.8-1.1-2.3-1.4-2.7-.8-2.7-2.1 1.2-2.1 2.7-2.1a4.2 4.2 0 0 1 3 1l-.6.7a3.7 3.7 0 0 0-2.4-1c-1 0-1.8.7-1.7 1.3s.8 1.1 2.2 1.4 2.7.8 2.7 2.1-.9 2.1-2.9 2.1a4.3 4.3 0 0 1-3.2-1.1zm7.9-6.3h.9l3.1 5.1 3-5.2h1v7.4h-1V24l-3 5.2-3.1-5.2v5.6h-1zm9.8 3.7a4.3 4.3 0 0 1 8.5-.2 4.1 4.1 0 0 1-4.2 3.9 4 4 0 0 1-4.3-3.7zm7.5-.1a3.2 3.2 0 0 0-3.3-3.1 3.4 3.4 0 0 0-3.3 3.1 3.4 3.4 0 0 0 3.4 3.1 3.3 3.3 0 0 0 3.2-3.1zm2.2 2.7l.6-.7a3.5 3.5 0 0 0 2.7 1.1c1.3 0 1.9-.7 1.9-1.3s-.8-1.1-2.3-1.4-2.7-.8-2.7-2.1 1.2-2.1 2.8-2.1a4 4 0 0 1 2.9 1l-.6.7a3.7 3.7 0 0 0-2.4-1A1.6 1.6 0 0 0 113 24c0 .8.8 1.1 2.2 1.4s2.7.8 2.7 2.1-.9 2.1-2.9 2.1a4.3 4.3 0 0 1-3.2-1.1z"/></g><path fill="#eb2127" d="M223.7 0v12.7l9.2 13h102.5V0H223.7z"/><rect x="136.1" y="281.1" width="134.4" height="13.78" rx="4.1" class="B"/><path d="M170.7,294.9H70a3.6,3.6,0,0,1-3.6-3.6v-6.5a3.7,3.7,0,0,1,3.6-3.7H170.6l.3.3v13.4Z" fill="#ed2224"/><rect x="110.7" y="253" width="115.5" height="13.12" rx="5" fill="#fff200"/><g class="B"><path d="M174.7 164.4l-7.2-5.4-7.2 5.4 7.2-14.5h0l7.2 14.5zm133.106 140.698l14.66-71.834.784.16-14.66 71.834z"/></g><g class="C"><path d="M319.3 229.7l.1.1 1.8 2.8 1.4-6.8-1.9-3-1.4 6.9zm6.9-5.8l-2.8 2-1.4 6.8a17.3 17.3 0 0 1 2.8-1.9z"/></g><path d="M305.1 301.6l2.4 1.6 2.8-.6-3.8 5.7-1.4-6.7z" class="F"/><path d="M310.655 237.728l.796-.079 7.281 72.948-.796.079z" class="B"/><g class="C"><path d="M307.9 236.2l.1.1 2.5 2-.7-6.9-2.6-2.2.7 7zm4.8-7.6l-2.1 2.8.7 6.9a13.9 13.9 0 0 1 2.1-2.7z"/></g><path d="M315.2 309l2.8.9 2.6-1.4-2.1 6.6-3.3-6.1z" class="F"/><path d="M301.765 306.119l1.407-73.286.8.015-1.407 73.286z" class="B"/><g class="C"><path d="M300.9 231l.1.1 2.3 2.4.1-7-2.4-2.5-.1 7zm5.7-6.9l-2.4 2.4v7a13.6 13.6 0 0 1 2.4-2.4z"/></g><path d="M299.6 304.2l2.6 1.2 2.7-1.1-2.8 6.3-2.5-6.4z" class="F"/><path d="M300.698 242.76l.795-.093 8.553 72.809-.795.093z" class="B"/><g class="C"><path d="M298.1 241l.2.1 2.5 2-.8-6.9-2.7-2.1.8 6.9zm4.8-7.6l-2.1 2.8.8 6.8a17.8 17.8 0 0 1 2.1-2.7z"/></g><path d="M306.8 313.7l2.8.8 2.5-1.4-1.9 6.6-3.4-6z" class="D"/><path d="M309.934 317.617l5.496-73.094.798.06-5.496 73.094z" class="B"/><g class="C"><path d="M313.1 242.3l.1.1 2.2 2.5.5-6.9-2.3-2.7-.5 7zm6.1-6.6l-2.5 2.3-.6 7a13.8 13.8 0 0 1 2.6-2.3z"/></g><path d="M307.8 315.4l2.6 1.3 2.7-.9-3.1 6.1-2.2-6.5z" class="D"/><path d="M308.401 246.77l.8-.056 5.132 73.31-.8.056z" class="B"/><g class="C"><path d="M304.9 244.6l.2.1 2.4 2.2-.5-7-2.6-2.3.5 7zm5.1-7.4l-2.2 2.7.5 6.9a17.8 17.8 0 0 1 2.2-2.6z"/></g><path d="M310.2 317.7l2.7.9 2.6-1.3-2.2 6.5-3.1-6.1z" class="D"/><path fill="#fff200" d="M297.7 250.2h24.5v79.17h-24.5z"/><g class="F"><path d="M321.5 253.6l-8.8-.2-8.7.2-5 .2h0l8.8.2h8.7a41.9 41.9 0 0 0 5-.3h.1a.3.3 0 0 0-.1-.1zm0 2.3l-8.8-.2-8.7.2a41 41 0 0 0-5 .2h0l8.8.2h8.7l5-.2a.3.3 0 0 0 .1-.2z"/></g></g></svg>
