<svg xmlns="http://www.w3.org/2000/svg" width="335" height="335" data-name="Layer 1"><defs><filter id="a" data-name="drop-shadow-3" filterUnits="userSpaceOnUse"><feOffset dy="5"/><feGaussianBlur result="uuid-1cc70224-cd18-4a66-a6cc-b784531c3510" stdDeviation="3"/><feFlood flood-color="#000" flood-opacity=".8"/><feComposite in2="uuid-1cc70224-cd18-4a66-a6cc-b784531c3510" operator="in"/><feComposite in="SourceGraphic"/></filter></defs><path fill="#ad5a6a" d="M0 0h335v335H0z"/><path fill="#d68949" d="m323.3 33.7-28.9.2v5.7c0 2.1 1.4 4.3 4.2 5.9 5.6 3.3 14.8 3.3 20.4 0 2.8-1.6 4.2-3.8 4.2-5.9v-5.9Z"/><path fill="#bf7634" d="M308.3 33.8h-14v5.8c0 2.1 1.4 4.3 4.2 5.9 2.7 1.6 6.2 2.4 9.7 2.4V33.8Z"/><path fill="#e29a64" d="M323.3 33.7h-8.1v13.4c1.4-.4 2.7-.9 3.9-1.6 2.8-1.6 4.2-3.8 4.2-5.9v-5.9Z"/><path fill="#ffd392" d="M319 39.9c-5.6 3.3-14.8 3.3-20.4 0-5.6-3.3-5.6-8.5 0-11.8 5.6-3.3 14.8-3.3 20.4 0 5.6 3.3 5.6 8.5 0 11.8Z"/><path fill="#1a1a1e" d="m125.8 206.6-28.9.2v5.7c0 2.1 1.4 4.3 4.2 5.9 5.6 3.3 14.8 3.3 20.4 0 2.8-1.6 4.2-3.8 4.2-5.9v-5.9Z"/><path fill="#0f0f11" d="M110.9 206.7h-14v5.8c0 2.1 1.4 4.3 4.2 5.9 2.7 1.6 6.2 2.4 9.7 2.4v-14.1Z"/><path fill="#222228" d="M125.8 206.6h-8.1V220c1.4-.4 2.7-.9 3.9-1.6 2.8-1.6 4.2-3.8 4.2-5.9v-5.9Z"/><path fill="#2c2c33" d="M121.6 212.8c-5.6 3.3-14.8 3.3-20.4 0-5.6-3.3-5.6-8.5 0-11.8 5.6-3.3 14.8-3.3 20.4 0 5.6 3.3 5.6 8.5 0 11.8ZM11.4 254.3 0 265.1v-2.4l11.4-8.4z"/><path fill="#7c505e" d="M23.9 258.8 0 281.4v-5l23.9-17.6z"/><path fill="#2c2c33" d="M36.3 263.4 0 297.8v-7.7l36.3-26.7z"/><path fill="#7c505e" d="M48.7 268 0 314.1v-10.3L48.7 268z"/><path fill="#2c2c33" d="M61.2 272.6 0 330.4v-12.9l61.2-44.9z"/><path fill="#7c505e" d="M46.5 299.5 12.1 335H0v-3.7l46.5-31.8z"/><path fill="#2c2c33" d="M93.1 283.7 39.6 335H24.2l68.9-51.3z"/><path fill="#7c505e" d="M105.5 288.3 56.8 335H42.7l62.8-46.7z"/><path fill="#2c2c33" d="M117.9 292.9 74 335H61.3l56.6-42.1z"/><path fill="#7c505e" d="M130.3 297.4 91.2 335H79.9l50.4-37.6z"/><path fill="#2c2c33" d="m142.8 302-34.5 33h-9.9l44.4-33z"/><path fill="#7c505e" d="m128.4 329.5-5.3 5.5h-2.7l8-5.5z"/><path fill="#fff" d="M167.5 199.4c-3.8 0-6.9 3.1-6.9 6.9s.5 2.9 1.3 4.1l5.6 9.7 5.6-9.7c.8-1.1 1.3-2.6 1.3-4.1 0-3.8-3.1-6.9-6.9-6.9Zm0 10.1c-1.7 0-3-1.4-3-3s1.4-3 3-3 3 1.4 3 3-1.4 3-3 3Z"/><g fill="#fff" data-name="PRINT"><path d="M30.5 13.8c0 .6-.2 1.1-.6 1.5l-6.8 6.8-7.2-4.2v-4.1c0-1.2 1-2.1 2.1-2.1s2.1 1 2.1 2.1V19l6.7-6.7c.8-.8 2.2-.8 3 0 .4.4.6 1 .6 1.5ZM29.9 32.8c-.4.4-.9.6-1.5.6s-.6 0-.8-.2c-.3-.1-.5-.3-.7-.5l-2.3-2.3-4.4-4.4v5.2c0 1.2-1 2.1-2.1 2.1s-2.1-1-2.1-2.1v-4.1l7.2-4.2 4.5 4.5 2.3 2.3c.8.8.8 2.2 0 3ZM22.8 22.4c0-.1-.1-.2-.2-.3l-1.8-1-4.9-2.8-4.1-2.4c-.2-.1-.5 0-.7.2v12.7c0 .3.2.5.5.5h.2l4.1-2.4 6.7-3.9s.1-.1.1-.2v-.3Zm-10.2-5 3.2 1.8 5.2 3s.1 0 .1.1v.3s0 .2-.2.2l-5.2 3-3.2 1.9c-.2 0-.4 0-.5-.1V17.7c0-.2.2-.4.4-.4h.2Z"/><path d="M19.8 22.6s0 .1-.1.2l-3.9 2.3-2.4 1.4c-.1 0-.3 0-.4-.1V19c0-.2.1-.3.3-.3h.1l2.4 1.4 3.9 2.3s.1 0 .1.2v.2ZM65.6 22.1l-6-3-3.7-1.8c-.2-.1-.5 0-.6.2v10.1c.1.2.4.4.6.4h.4l3.4-1.9 2.1-1.1 3.8-2s.2-.1.2-.2v-.2c0-.1-.1-.2-.2-.2Zm-6 3-2.8 1.5c-.2 0-.4 0-.5-.1v-7.8c0-.2 0-.3.3-.3h.1l2.9 1.4 1 .5 3.6 1.8s.1 0 .2.2v.2s0 .1-.1.2l-4.6 2.4Z"/><path d="M63.1 22.5s0 .1-.1.1l-3.4 1.8-2.1 1.1h-.3V19.6c0-.1 0-.2.2-.2h.1l2.1 1.1 3.5 1.7.1.1v.1ZM40.1 17.3h-5.2v10.4h2.6v-3.4h2.7c2.5 0 4.3-1.5 4.3-3.6 0-2-1.9-3.5-4.4-3.4Zm-.2 4.9h-2.4v-2.9h2.4c1.2 0 2.1.5 2.1 1.4 0 .9-.8 1.5-2 1.5ZM54.2 27.7l-8.2.1-.2-10.3h2.5l.1 8.3 5.7-.1.1 2zM71 23.8v3.7l-2.5.1v-3.8l-4.6-6.5h2.9l2.9 4.5 2.9-4.6h2.8L71 23.8zM86.3 28l-1.7.1-4.4-4.8-1.8 1.7v3.1h-1.3L77 17.8h1.3l.1 5.7 5.7-5.7 1.8-.1-4.8 4.8 5.2 5.5zM92.8 17.5c-3.2 0-5.9 2.5-5.8 5.4 0 2.9 2.8 5.3 6 5.3s5.8-2.5 5.8-5.4c0-2.9-2.8-5.3-5.9-5.2Zm.4 9.6c-2.5.2-4.7-1.7-4.9-4.2.1-2.3 1.9-4.1 4.2-4.3 2.5-.2 4.7 1.7 4.9 4.2-.1 2.3-1.9 4.1-4.2 4.3ZM109 25.1c0 1.6-1.3 3-4 3-1.7 0-3.3-.5-4.5-1.6l.8-.9c1 .9 2.4 1.5 3.8 1.4 1.8 0 2.7-.9 2.7-1.8 0-1.1-1.1-1.5-3.1-1.9-2.3-.5-3.8-1.1-3.8-2.9 0-1.6 1.6-3 3.8-3 1.5 0 2.9.5 4 1.4l-.8.9c-.9-.8-2.1-1.3-3.3-1.3-1.4 0-2.4.9-2.4 1.8 0 1.1 1.1 1.4 3.1 1.8 2.2.4 3.8 1.1 3.8 2.9ZM122.6 28h-1.3l-.1-7.7-4.2 7.2-4.3-7.1.1 7.7-1.3.1-.1-10.4h1.3L117 25l4.2-7.3h1.3l.1 10.3zM130.8 17.5c-3.2 0-5.9 2.5-5.8 5.4 0 2.9 2.8 5.3 6 5.3s5.8-2.5 5.8-5.4c0-2.9-2.8-5.3-5.9-5.2Zm.4 9.6c-2.5.2-4.7-1.7-4.9-4.2.1-2.3 1.9-4.1 4.2-4.3 2.5-.2 4.7 1.7 4.9 4.2-.1 2.3-1.9 4.1-4.2 4.3ZM147 25.1c0 1.6-1.3 3-4 3-1.7 0-3.3-.5-4.5-1.6l.8-.9c1 .9 2.4 1.5 3.8 1.4 1.8 0 2.7-.9 2.7-1.8 0-1.1-1.1-1.5-3.1-1.9-2.3-.5-3.8-1.1-3.8-2.9 0-1.6 1.6-3 3.8-3 1.5 0 2.9.5 4 1.4l-.8.9c-.9-.8-2.1-1.3-3.3-1.3-1.4 0-2.5.9-2.4 1.8 0 1.1 1.2 1.4 3.1 1.8 2.2.4 3.8 1.1 3.8 2.9Z"/></g><path fill="#4f2a37" d="M238.8 1.3H335v22.1h-96.2z"/><g fill="#4f2a37"><path d="M265.6 253.9V151.6h4.4v102.3zM276.6 253.9V151.6h4.4v102.3z"/></g><g fill="#4f2a37"><path d="M6.7 136.5h235.5v22.1H6.7zM6.7 161.6h235.5v22.1H6.7z"/></g><circle cx="273.3" cy="160.1" r="61" fill="#4f2a37"/><circle cx="273.3" cy="160.1" r="56.5" fill="#ad5a6a"/><g fill="#fff" opacity=".9"><path d="M280 195.2v6.1c0 1.5-1.3 2.8-2.8 2.8h-13.7c-1.5 0-2.8-1.3-2.8-2.8v-13.7c0-1.5 1.3-2.8 2.8-2.8h6.2c.4 0 .8.3.8.8s-.3.8-.8.8h-5.9c-.9 0-1.7.8-1.7 1.7v13c0 .9.8 1.7 1.7 1.7h12.9c.9 0 1.7-.8 1.7-1.7v-5.8c0-.4.3-.8.8-.8.4 0 .8.3.8.8ZM280.5 188.7l-4.5-4.5.3-.3c1.2-1.2 3.3-1.2 4.5 0 1.2 1.2 1.2 3.3 0 4.5l-.3.3Z"/><path d="m279.7 189.6-6.8 6.8h-.3l-4.4.6c-.2 0-.5-.2-.5-.5l.6-4.4v-.3l6.8-6.8 4.5 4.5Z"/></g><g filter="url(#a)"><path fill="#d3b8a5" d="m307.1 275.4-22.5-13-52.5 30.3 22.5 13 22.5 13 52.6-30.3-22.6-13z"/><path fill="#e5c6ba" d="m234.6 291.3 51.9-30 22.3 12.8-51.9 30-22.3-12.8z"/><path fill="#d3aca1" d="M285.4 274.5c-.9.5-2.2.5-3.1 0-.9-.5-.9-1.2 0-1.7s2.2-.5 3.1 0c.9.5.9 1.2 0 1.7ZM248.1 292.2c-.9.5-2.2.5-3.1 0-.9-.5-.9-1.2 0-1.7s2.2-.5 3.1 0c.9.5.9 1.2 0 1.7ZM289.7 272.2c-.9.5-2.2.5-3.1 0s-.9-1.2 0-1.7 2.2-.5 3.1 0c.9.5.9 1.2 0 1.7ZM281.1 277.2c-.9.5-2.2.5-3.1 0-.9-.5-.9-1.2 0-1.7s2.2-.5 3.1 0c.9.5.9 1.2 0 1.7ZM293.8 269.8c-.9.5-2.2.5-3.1 0-.9-.5-.9-1.2 0-1.7s2.2-.5 3.1 0 .9 1.2 0 1.7Z"/><path fill="none" d="m290 264.4.9-.6-1.1.5.2.1zM296.9 268.4l.9-.6-1.1.5.2.1zM293.4 266.4l.9-.6-1 .5.1.1zM300.4 270.4l.8-.6-1 .5.2.1zM303.8 272.4l.9-.6-1.1.5.2.1z"/><path fill="#d1a193" d="m286.5 262.4-1.8 1 .2.1 1.6-1.1zM289.8 264.3l-1.9.9.5.3 1.6-1.1-.2-.1zM303.6 272.3l-1.9.9.6.3 1.5-1.1-.2-.1zM300.2 270.3l-1.9.9.4.3 1.7-1.1-.2-.1zM306.4 274.6l-1.3.6.3.2c.3-.3.7-.5 1-.7ZM296.7 268.3l-1.9.9.5.3 1.6-1.1-.2-.1zM293.3 266.3l-1.9.9.4.3 1.6-1.1-.1-.1z"/><path fill="#2c2c33" d="m291.5 281.4 13.6-6.3-2.8-1.6-10.8 7.9zM307 274.2c-.2.1-.4.3-.6.4l1.8-.8-3.5-2-.9.6 3.1 1.8Z"/><path fill="#1d1d23" d="m307 274.2-3.1-1.8-1.6 1.1 2.8 1.6 1.3-.6c.2-.1.4-.3.6-.4Z"/><path fill="#7c505e" d="m282.4 282.7 19.3-9.5-3-1.7-16.3 11.2zM303.6 272.3l1.1-.5-3.5-2-.8.6 3.2 1.9z"/><path fill="#663c4c" d="m300.4 270.4-1.7 1.1 3 1.7 1.9-.9-3.2-1.9z"/><path fill="#2c2c33" d="m300.2 270.3 1-.5-3.4-2-.9.6 3.3 1.9zM278.9 280.7l19.4-9.5-3-1.7-16.4 11.2z"/><path fill="#1d1d23" d="m296.9 268.4-1.6 1.1 3 1.7 1.9-.9-3.3-1.9z"/><path fill="#7c505e" d="m275.4 278.7 19.4-9.5-3-1.7-16.4 11.2zM296.7 268.3l1.1-.5-3.5-2-.9.6 3.3 1.9z"/><path fill="#663c4c" d="m293.4 266.4-1.6 1.1 3 1.7 1.9-.9-3.3-1.9z"/><path fill="#2c2c33" d="m293.3 266.3 1-.5-3.4-2-.9.6 3.3 1.9zM272 276.7l19.4-9.5-3-1.7-16.4 11.2z"/><path fill="#1d1d23" d="m290 264.4-1.6 1.1 3 1.7 1.9-.9-3.3-1.9z"/><path fill="#7c505e" d="m268.5 274.7 19.4-9.5-3-1.7-16.4 11.2zM290.9 263.8l-3.5-2-.9.6 3.3 1.9 1.1-.5z"/><path fill="#663c4c" d="m286.5 262.4-1.6 1.1 3 1.7 1.9-.9-3.3-1.9z"/><path fill="#d3aca1" d="M255 288.1c-.9.5-2.2.5-3.1 0-.9-.5-.9-1.2 0-1.7s2.2-.5 3.1 0c.9.5.9 1.2 0 1.7ZM251.6 290.2c-.9.5-2.2.5-3.1 0-.9-.5-.9-1.2 0-1.7s2.2-.5 3.1 0c.9.5.9 1.2 0 1.7Z"/><path fill="#2c2c33" d="m238.9 293.8-3.4-2 25.8-12.9-22.4 14.9z"/><path fill="#7c505e" d="m242.4 295.8-3.5-2 25.8-12.9-22.3 14.9z"/><path fill="#2c2c33" d="m245.8 297.8-3.4-2 25.8-12.9-22.4 14.9z"/><path fill="#7c505e" d="m249.3 299.7-3.5-1.9 25.9-12.9-22.4 14.8z"/><path fill="#2c2c33" d="m252.7 301.7-3.4-2 25.8-12.8-22.4 14.8z"/><path fill="#7c505e" d="m256.2 303.7-3.5-2 16.7-7.6-13.2 9.6z"/><path fill="#1a1a1e" d="M249 290.5h-3.9v.8c0 .3.2.6.6.8.8.4 2 .4 2.8 0 .4-.2.6-.5.6-.8v-.8Z"/><path fill="#0f0f11" d="M247 290.5h-1.9v.8c0 .3.2.6.6.8.4.2.8.3 1.3.3v-1.9Z"/><path fill="#222228" d="M249 290.5h-1.1v1.8c.2 0 .4-.1.5-.2.4-.2.6-.5.6-.8v-.8Z"/><path fill="#2c2c33" d="M248.4 291.3c-.8.4-2 .4-2.8 0-.8-.4-.8-1.2 0-1.6.8-.4 2-.4 2.8 0 .8.4.8 1.2 0 1.6Z"/><path fill="#ad5a6a" d="m286.5 259.4-50 28.9v3l50-28.9v-3z"/><path fill="#994a5d" d="m307.2 271.3-20.7-11.9v3l20.7 11.9v-3z"/><path fill="#1a1a1e" d="M245.9 292.4H242v.8c0 .3.2.6.6.8.8.4 2 .4 2.8 0 .4-.2.6-.5.6-.8v-.8Z"/><path fill="#0f0f11" d="M243.9 292.4H242v.8c0 .3.2.6.6.8.4.2.8.3 1.3.3v-1.9Z"/><path fill="#222228" d="M245.9 292.4h-1.1v1.8c.2 0 .4-.1.5-.2.4-.2.6-.5.6-.8v-.8Z"/><path fill="#2c2c33" d="M245.3 293.2c-.8.4-2 .4-2.8 0-.8-.4-.8-1.2 0-1.6.8-.4 2-.4 2.8 0 .8.4.8 1.2 0 1.6Z"/><path fill="none" d="m306.1 270.7-19.5-11.3-49.3 28.5c-.3.2-.3.5 0 .7l19.1 11c.4.2.8.2 1.2 0l48.6-28.1c.3-.2.3-.7 0-.9Z"/><path fill="#ce7683" d="m286.5 258.2-52 30 22.3 12.9 52-30-22.3-12.9Zm19.5 13.3-48.6 28.1c-.4.2-.8.2-1.2 0l-19.1-11c-.3-.2-.3-.5 0-.7l48.9-28.2c.3-.2.7-.2 1 0l19 11c.3.2.3.7 0 .9Z"/><path fill="#ad5a6a" d="M256.9 301.1v3l51.9-30v-3l-51.9 30z"/><path fill="#994a5d" d="M234.6 288.2v3.1l22.3 12.8v-3l-22.3-12.9z"/><path fill="#e5c6ba" d="m257.4 304.4 51.9-30 22.3 12.9-51.9 30-22.3-12.9z"/><path fill="#d3aca1" d="M315 288c-.9.5-2.2.5-3.1 0-.9-.5-.9-1.2 0-1.7s2.2-.5 3.1 0c.9.5.9 1.2 0 1.7ZM319.2 285.5c-.9.5-2.2.5-3.1 0-.9-.5-.9-1.2 0-1.7s2.2-.5 3.1 0c.9.5.9 1.2 0 1.7Z"/><path fill="none" d="m319.6 281.5 1-.6-1.1.5.1.1zM312.7 277.5l1-.6-1.1.5.1.1zM326.6 285.5l.9-.6-1.1.5.2.1zM323.1 283.5l.9-.6-1.1.5.2.1zM316.2 279.5l.9-.6-1.1.5.2.1z"/><path fill="#d1a193" d="m322.9 283.4-1.9.9.5.3 1.6-1.1-.2-.1zM326.6 285.5l-.2-.1-1.9.9.5.4 1.6-1.2zM319.5 281.4l-2 .9.5.3 1.6-1.1-.1-.1zM308.5 275.1l-1.3-.7c-.5.4-1.1.7-1.6 1.1l1.6 1 .4.2 1.6-1.1-.8-.5ZM312.6 277.4l-2 .9.5.3 1.6-1.1-.1-.1zM316 279.4l-1.9.9.4.3 1.7-1.1-.2-.1z"/><path fill="#2c2c33" d="M329.1 286.9c-.6.3-1.1.7-1.6 1.1l-2.4-1.4-10.7 7.8 16.6-7.6-3.5-2-.9.6 2.5 1.4Z"/><path fill="#1e1e23" d="m329.1 286.9-2.5-1.4-1.6 1.1 2.4 1.4c.5-.4 1-.8 1.6-1.1Z"/><path fill="#7c505e" d="m326.4 285.4 1.1-.5-3.5-2-.9.6 3.3 1.9zM304.8 295.8l19.7-9.5-3-1.7-16.7 11.2z"/><path fill="#663c4c" d="m323.1 283.5-1.6 1.1 3 1.7 1.9-.9-3.3-1.9z"/><path fill="#2c2c33" d="m301.3 293.8 19.7-9.5-3-1.7-16.7 11.2zM322.9 283.4l1.1-.5-3.4-2-1 .6 3.3 1.9z"/><path fill="#1e1e23" d="m319.6 281.5-1.6 1.1 3 1.7 1.9-.9-3.3-1.9z"/><path fill="#7c505e" d="m297.9 291.8 19.6-9.5-3-1.7-16.6 11.2zM319.5 281.4l1.1-.5-3.5-2-.9.6 3.3 1.9z"/><path fill="#663c4c" d="m316.2 279.5-1.7 1.1 3 1.7 2-.9-3.3-1.9z"/><path fill="#2c2c33" d="m294.4 289.8 19.7-9.5-3-1.7-16.7 11.2zM316 279.4l1.1-.5-3.4-2-1 .6 3.3 1.9z"/><path fill="#1e1e23" d="m312.7 277.5-1.6 1.1 3 1.7 1.9-.9-3.3-1.9z"/><path fill="#7c505e" d="m290.9 287.8 19.7-9.5-3-1.7-16.7 11.2zM313.7 276.9l-3.5-2-.9.6 3.3 1.9 1.1-.5z"/><path fill="#663c4c" d="m309.3 275.5-1.7 1.1 3 1.7 2-.9-3.3-1.9z"/><path fill="#d3aca1" d="M274.5 307.4c-.9.5-2.2.5-3.1 0-.9-.5-.9-1.2 0-1.7s2.2-.5 3.1 0c.9.5.9 1.2 0 1.7ZM278.2 309.1c-.9.5-2.2.5-3.1 0-.9-.5-.9-1.2 0-1.7s2.2-.5 3.1 0c.9.5.9 1.2 0 1.7ZM278.7 304.9c-.9.5-2.2.5-3.1 0-.9-.5-.9-1.2 0-1.7s2.2-.5 3.1 0c.9.5.9 1.2 0 1.7Z"/><path fill="#2c2c33" d="m261.7 306.9-3.5-2 25.8-13.1-22.3 15.1z"/><path fill="#7c505e" d="m265.2 308.9-3.5-2 25.8-13.1-22.3 15.1z"/><path fill="#2c2c33" d="m268.6 310.9-3.4-2 25.7-13.1-22.3 15.1z"/><path fill="#7c505e" d="m272.1 312.9-3.5-2 25.8-13.1-22.3 15.1z"/><path fill="#2c2c33" d="m275.5 314.9-3.4-2 25.8-13.1-22.4 15.1z"/><path fill="#7c505e" d="m279 316.9-3.5-2 16.7-7.6-13.2 9.6z"/><path fill="#ad5a6a" d="m309.3 272.5-50.1 28.9v3.1l50.1-28.9v-3.1z"/><path fill="#d68949" d="M271.8 307.7h-3.9v.8c0 .3.2.6.6.8.8.4 2 .4 2.8 0 .4-.2.6-.5.6-.8v-.8Z"/><path fill="#bf7634" d="M269.8 307.7h-1.9v.8c0 .3.2.6.6.8.4.2.8.3 1.3.3v-1.9Z"/><path fill="#e29a64" d="M271.8 307.7h-1.1v1.8c.2 0 .4-.1.5-.2.4-.2.6-.5.6-.8v-.8Z"/><path fill="#ffd392" d="M271.2 308.5c-.8.4-2 .4-2.8 0-.8-.4-.8-1.2 0-1.6.8-.4 2-.4 2.8 0 .8.4.8 1.2 0 1.6Z"/><path fill="#d68949" d="M275.4 305.7h-3.9v.8c0 .3.2.6.6.8.8.4 2 .4 2.8 0 .4-.2.6-.5.6-.8v-.8Z"/><path fill="#bf7634" d="M273.4 305.7h-1.9v.8c0 .3.2.6.6.8.4.2.8.3 1.3.3v-1.9Z"/><path fill="#e29a64" d="M275.4 305.7h-1.1v1.8c.2 0 .4-.1.5-.2.4-.2.6-.5.6-.8v-.8Z"/><path fill="#ffd392" d="M274.9 306.5c-.8.4-2 .4-2.8 0-.8-.4-.8-1.2 0-1.6.8-.4 2-.4 2.8 0 .8.4.8 1.2 0 1.6Z"/><path fill="#d68949" d="M279.6 303.2h-3.9v.8c0 .3.2.6.6.8.8.4 2 .4 2.8 0 .4-.2.6-.5.6-.8v-.8Z"/><path fill="#bf7634" d="M277.5 303.2h-1.9v.8c0 .3.2.6.6.8.4.2.8.3 1.3.3v-1.9Z"/><path fill="#e29a64" d="M279.6 303.2h-1.1v1.8c.2 0 .4-.1.5-.2.4-.2.6-.5.6-.8v-.8Z"/><path fill="#ffd392" d="M279 304c-.8.4-2 .4-2.8 0-.8-.4-.8-1.2 0-1.6s2-.4 2.8 0c.8.4.8 1.2 0 1.6Z"/><path fill="#d68949" d="M315.9 286.2H312v.8c0 .3.2.6.6.8.8.4 2 .4 2.8 0 .4-.2.6-.5.6-.8v-.8Z"/><path fill="#bf7634" d="M313.9 286.3H312v.8c0 .3.2.6.6.8.4.2.8.3 1.3.3v-1.9Z"/><path fill="#e29a64" d="M315.9 286.2h-1.1v1.8c.2 0 .4-.1.5-.2.4-.2.6-.5.6-.8v-.8Z"/><path fill="#ffd392" d="M315.4 287.1c-.8.4-2 .4-2.8 0-.8-.4-.8-1.2 0-1.6.8-.4 2-.4 2.8 0 .8.4.8 1.2 0 1.6Z"/><path fill="#d68949" d="M320.1 283.8h-3.9v.8c0 .3.2.6.6.8.8.4 2 .4 2.8 0 .4-.2.6-.5.6-.8v-.8Z"/><path fill="#bf7634" d="M318.1 283.8h-1.9v.8c0 .3.2.6.6.8.4.2.8.3 1.3.3v-1.9Z"/><path fill="#e29a64" d="M320.1 283.8H319v1.8c.2 0 .4-.1.5-.2.4-.2.6-.5.6-.8v-.8Z"/><path fill="#ffd392" d="M319.5 284.6c-.8.4-2 .4-2.8 0-.8-.4-.8-1.2 0-1.6.8-.4 2-.4 2.8 0 .8.4.8 1.2 0 1.6Z"/><path fill="#d68949" d="M286.3 272.8h-3.9v.8c0 .3.2.6.6.8.8.4 2 .4 2.8 0 .4-.2.6-.5.6-.8v-.8Z"/><path fill="#bf7634" d="M284.2 272.8h-1.9v.8c0 .3.2.6.6.8.4.2.8.3 1.3.3v-1.9Z"/><path fill="#e29a64" d="M286.3 272.8h-1.1v1.8c.2 0 .4-.1.5-.2.4-.2.6-.5.6-.8v-.8Z"/><path fill="#ffd392" d="M285.7 273.6c-.8.4-2 .4-2.8 0s-.8-1.2 0-1.6 2-.4 2.8 0c.8.4.8 1.2 0 1.6Z"/><path fill="#d68949" d="M282 275.4h-3.9v.8c0 .3.2.6.6.8.8.4 2 .4 2.8 0 .4-.2.6-.5.6-.8v-.8Z"/><path fill="#bf7634" d="M280 275.4h-1.9v.8c0 .3.2.6.6.8.4.2.8.3 1.3.3v-1.9Z"/><path fill="#e29a64" d="M282 275.4h-1.1v1.8c.2 0 .4-.1.5-.2.4-.2.6-.5.6-.8v-.8Z"/><path fill="#ffd392" d="M281.5 276.3c-.8.4-2 .4-2.8 0-.8-.4-.8-1.2 0-1.6s2-.4 2.8 0 .8 1.2 0 1.6Z"/><path fill="#d68949" d="M290.6 270.4h-3.9v.8c0 .3.2.6.6.8.8.4 2 .4 2.8 0 .4-.2.6-.5.6-.8v-.8Z"/><path fill="#bf7634" d="M288.6 270.4h-1.9v.8c0 .3.2.6.6.8.4.2.8.3 1.3.3v-1.9Z"/><path fill="#e29a64" d="M290.6 270.4h-1.1v1.8c.2 0 .4-.1.5-.2.4-.2.6-.5.6-.8v-.8Z"/><path fill="#ffd392" d="M290.1 271.3c-.8.4-2 .4-2.8 0s-.8-1.2 0-1.6 2-.4 2.8 0c.8.4.8 1.2 0 1.6Z"/><path fill="#d68949" d="M294.8 268.1h-3.9v.8c0 .3.2.6.6.8.8.4 2 .4 2.8 0 .4-.2.6-.5.6-.8v-.8Z"/><path fill="#bf7634" d="M292.7 268.1h-1.9v.8c0 .3.2.6.6.8.4.2.8.3 1.3.3v-1.9Z"/><path fill="#e29a64" d="M294.8 268.1h-1.1v1.8c.2 0 .4-.1.5-.2.4-.2.6-.5.6-.8v-.8Z"/><path fill="#ffd392" d="M294.2 268.9c-.8.4-2 .4-2.8 0-.8-.4-.8-1.2 0-1.6s2-.4 2.8 0c.8.4.8 1.2 0 1.6Z"/><path fill="#1a1a1e" d="M275.8 309.5h-3.9v.8c0 .3.2.6.6.8.8.4 2 .4 2.8 0 .4-.2.6-.5.6-.8v-.8Z"/><path fill="#0f0f11" d="M273.8 309.5h-1.9v.8c0 .3.2.6.6.8.4.2.8.3 1.3.3v-1.9Z"/><path fill="#222228" d="M275.8 309.5h-1.1v1.8c.2 0 .4-.1.5-.2.4-.2.6-.5.6-.8v-.8Z"/><path fill="#2c2c33" d="M275.2 310.3c-.8.4-2 .4-2.8 0s-.8-1.2 0-1.6 2-.4 2.8 0c.8.4.8 1.2 0 1.6Z"/><path fill="#1a1a1e" d="M252.5 288.5h-3.9v.8c0 .3.2.6.6.8.8.4 2 .4 2.8 0 .4-.2.6-.5.6-.8v-.8Z"/><path fill="#0f0f11" d="M250.5 288.5h-1.9v.8c0 .3.2.6.6.8.4.2.8.3 1.3.3v-1.9Z"/><path fill="#222228" d="M252.5 288.5h-1.1v1.8c.2 0 .4-.1.5-.2.4-.2.6-.5.6-.8v-.8Z"/><path fill="#2c2c33" d="M251.9 289.3c-.8.4-2 .4-2.8 0s-.8-1.2 0-1.6 2-.4 2.8 0c.8.4.8 1.2 0 1.6Z"/><path fill="#1a1a1e" d="M255.9 286.4H252v.8c0 .3.2.6.6.8.8.4 2 .4 2.8 0 .4-.2.6-.5.6-.8v-.8Z"/><path fill="#0f0f11" d="M253.9 286.4H252v.8c0 .3.2.6.6.8.4.2.8.3 1.3.3v-1.9Z"/><path fill="#222228" d="M255.9 286.4h-1.1v1.8c.2 0 .4-.1.5-.2.4-.2.6-.5.6-.8v-.8Z"/><path fill="#2c2c33" d="M255.4 287.2c-.8.4-2 .4-2.8 0s-.8-1.2 0-1.6 2-.4 2.8 0c.8.4.8 1.2 0 1.6Z"/><path fill="#1a1a1e" d="M279.1 307.4h-3.9v.8c0 .3.2.6.6.8.8.4 2 .4 2.8 0 .4-.2.6-.5.6-.8v-.8Z"/><path fill="#0f0f11" d="M277.1 307.4h-1.9v.8c0 .3.2.6.6.8.4.2.8.3 1.3.3v-1.9Z"/><path fill="#222228" d="M279.1 307.4H278v1.8c.2 0 .4-.1.5-.2.4-.2.6-.5.6-.8v-.8Z"/><path fill="#2c2c33" d="M278.6 308.2c-.8.4-2 .4-2.8 0-.8-.4-.8-1.2 0-1.6.8-.4 2-.4 2.8 0s.8 1.2 0 1.6Z"/><path fill="#994a5d" d="m329.9 284.4-20.6-11.9v3.1l20.6 11.9v-3.1z"/><path fill="none" d="m328.8 283.8-19.5-11.3L260 301c-.3.2-.3.5 0 .7l19.1 11c.4.2.8.2 1.2 0l48.6-28.1c.3-.2.3-.7 0-.9Z"/><path fill="#ce7683" d="m309.3 271.3-52 30 22.3 12.9 52-30-22.3-12.9Zm19.5 13.3-48.6 28.1c-.4.2-.8.2-1.2 0l-19.1-11c-.3-.2-.3-.5 0-.7l48.9-28.2c.3-.2.7-.2 1 0l19 11c.3.2.3.7 0 .9Z"/><path fill="#ad5a6a" d="M279.7 314.2v3.1l51.9-30v-3.1l-51.9 30z"/><path fill="#994a5d" d="M257.4 301.3v3.1l22.3 12.9v-3.1l-22.3-12.9z"/><path fill="#2c2c33" d="m262.4 296.7 5.8-3.3 2.5 1.4-5.8 3.4-2.5-1.5z"/><path fill="#1d1d23" d="M264.9 298.2v3l5.8-3.4v-3l-5.8 3.4z"/><path fill="#2c2c33" d="m296.2 277.2 5.9-3.4 2.5 1.5-5.9 3.3-2.5-1.4z"/><path fill="#1d1d23" d="M298.7 278.6v3.1l5.9-3.4v-3l-5.9 3.3z"/><path fill="#fff" d="m269.1 280.1-1.7-1 1.7-1 1.7 1-1.7 1z"/><path fill="#d1a193" d="m268.4 282.5-1.7-1 1.7-1 1.8 1-1.8 1zM272.9 283.4l-1.7-1 1.7-1 1.7 1-1.7 1z"/><g fill="#2c2c33"><path d="M269.3 278.4h-.3v.2h.3v-.2ZM268.3 279h-.3v.2h.3v-.2ZM270 279.2h.3v-.2h-.3v.2ZM269.3 279.6h-.3v.2h.3v-.2ZM269.3 279h-.3c-.1 0 0 .1 0 .2h.3v-.2Z"/></g><path fill="#fce5de" d="m270.8 281.1-1.7 1v-2l1.7-1v2z"/><g fill="#2c2c33"><path d="M269.5 280.1s-.2.2-.2.3 0 .2.2 0c0 0 .2-.2.2-.3s0-.2-.2 0ZM269.5 281.3s-.2.2-.2.3 0 .2.2 0c0 0 .2-.2.2-.3s0-.2-.2 0ZM270.5 279.9s.2-.2.2-.3 0-.2-.2 0c0 0-.2.2-.2.3s0 .2.2 0ZM270.5 280.7s-.2.2-.2.3 0 .2.2 0c0 0 .2-.2.2-.3s0-.2-.2 0Z"/></g><path fill="#e8cfc8" d="m267.4 281.1 1.7 1v-2l-1.7-1v2z"/><g fill="#2c2c33"><path d="M268.8 280.1s.2.2.2.3 0 .2-.2 0c0 0-.2-.2-.2-.3s0-.2.2 0ZM268.8 281.3s.2.2.2.3 0 .2-.2 0c0 0-.2-.2-.2-.3s0-.2.2 0ZM268.8 280.7s.2.2.2.3 0 .2-.2 0c0 0-.2-.2-.2-.3s0-.2.2 0ZM267.7 279.9s-.2-.2-.2-.3 0-.2.2 0c0 0 .2.2.2.3s0 .2-.2 0ZM267.7 280.7s.2.2.2.3 0 .2-.2 0c0 0-.2-.2-.2-.3s0-.2.2 0ZM267.7 280.1s.2.2.2.3 0 .2-.2 0c0 0-.2-.2-.2-.3s0-.2.2 0Z"/></g><path fill="#fff" d="m273.6 281-1.7-1 1.7-1 1.7 1-1.7 1z"/><g fill="#2c2c33"><path d="M272.8 279.9h-.3v.2h.3v-.2ZM274.4 280.1h.3v-.2h-.3v.2ZM273.8 279.9h-.3v.2h.3v-.2Z"/></g><path fill="#fce5de" d="m275.3 282-1.7 1v-2l1.7-1v2z"/><path fill="#2c2c33" d="M274.5 281.3s-.2.2-.2.3 0 .2.2 0c0 0 .2-.2.2-.3s0-.2-.2 0Z"/><path fill="#e8cfc8" d="m271.9 282 1.7 1v-2l-1.7-1v2z"/><g fill="#2c2c33"><path d="M273.2 281s.2.2.2.3 0 .2-.2 0c0 0-.2-.2-.2-.3s0-.2.2 0ZM273.2 282.1s.2.2.2.3 0 .2-.2 0c0 0-.2-.2-.2-.3s0-.2.2 0ZM272.2 280.8s-.2-.2-.2-.3 0-.2.2 0c0 0 .2.2.2.3s0 .2-.2 0ZM272.2 281.5s.2.2.2.3 0 .2-.2 0c0 0-.2-.2-.2-.3s0-.2.2 0ZM272.7 281.3s.2.2.2.3 0 .2-.2 0c0 0-.2-.2-.2-.3s0-.2.2 0Z"/></g></g></svg>