<?xml version="1.0" encoding="UTF-8"?>
<svg id="uuid-29c9a3e1-c4e0-4354-bd78-491a8d1999e8" data-name="Layer 1" xmlns="http://www.w3.org/2000/svg" width="335" height="335"
  viewBox="0 0 335 335">
  <defs>
    <linearGradient id="uuid-27a61f6b-8e0f-446b-a1d2-eb9ecc88b366" x1="-6.4" y1="314.4" x2="307.9" y2="48.4" gradientTransform="translate(0 335) scale(1 -1)" gradientUnits="userSpaceOnUse">
      <stop offset="0" stop-color="#192a33"/>
      <stop offset="1" stop-color="#060b10"/>
    </linearGradient>
    <linearGradient id="uuid-b959af99-8645-4f29-a31e-007f78c6cc91" x1="176.2" y1="333.1" x2="264.4" y2="414.7" gradientTransform="translate(-19.5 413.5) rotate(5.1) scale(1 -1)" gradientUnits="userSpaceOnUse">
      <stop offset="0" stop-color="#0d4051"/>
      <stop offset="1" stop-color="#227681"/>
    </linearGradient>
    <linearGradient id="uuid-1a9b159b-1dc6-4bed-8aef-3a47b23c2f51" x1="250.8" y1="35.1" x2="334.6" y2="35.1" gradientTransform="translate(0 335) scale(1 -1)" gradientUnits="userSpaceOnUse">
      <stop offset="0" stop-color="#0d4051"/>
      <stop offset="1" stop-color="#227681"/>
    </linearGradient>
  </defs>
  <path d="M258.2,0H-.4V335H334.6V0h-65.9c-3.5,.6-7,.8-10.5,0Z" fill="url(#uuid-27a61f6b-8e0f-446b-a1d2-eb9ecc88b366)"/>
  <path d="M167.5,199.4c-2.7,0-4.9,2.2-4.9,4.9s.4,2.1,.9,2.9h0l3.9,6.8,3.9-6.8c.6-.8,.9-1.8,.9-2.9,0-2.7-2.2-4.9-4.9-4.9h0Zm0,7.1c-1.2,0-2.1-1-2.1-2.1s1-2.1,2.1-2.1,2.1,1,2.1,2.1-1,2.1-2.1,2.1Z" fill="#fff"/>
  <g>
    <path d="M335.6,111.9c-.4,.2-.7,.5-1,.7-1.4,.9-2.8,1.9-4.2,2.8-.1,0-.4,.1-.6,.2-.2,.2-.5,.3-.7,.5-.2,.1-.4,.2-.5,.4,0,0,0,.2-.2,.3-2.2,1.5-4.5,3-6.8,4.5-.2,.1-.4,.3-.6,.4-.9,.6-1.9,1.3-2.8,1.9,0,0-.2,.1-.3,.2-1.3,.9-2.6,1.8-4,2.7,0,0-.1,0-.2,.1-.1,0-.3,.1-.5,.2-.3,.2-.6,.4-1,.7-.1,.2-.2,.3-.4,.4-2.4,1.6-4.7,3.2-7.1,4.8-2.4,1.6-4.7,3.2-7.1,4.9-.1,.1-.4,.1-.6,.2-1.2,.8-2.4,1.6-3.6,2.4,0,.2,0,.4,0,.7h0c.1,1.9,.2,3.9,.4,5.8,0,.3,.2,.6,.3,.8,.4-.2,.8-.4,1.1-.7,13-8.8,26.1-17.6,39.1-26.5v-7c.4-.2,.8-.5,1.1-.8,0-.2,0-.5,0-.7h0Z" fill="#010001"/>
    <path d="M147.1-1.4h0c-.6,.4-1.2,.9-1.9,1.3h-11.2c-13.6,9.2-27.2,18.4-40.8,27.6,0,0,0,0,0,0-.2,.2-.5,.3-.7,.5-.2,.1-.3,.2-.5,.3h.9c1.2,0,2.3,0,3.5,0,2.5-.1,4.9-.3,7.4-.4l.3-.2c0,0,.2-.1,.3-.2,.9-.6,1.7-1.2,2.6-1.7,2.5-1.7,5-3.4,7.6-5,2.5-1.7,5-3.4,7.5-5.1,.4-.3,.8-.5,1.1-.8,.6-.4,1.3-.9,1.9-1.3,1.3-.9,2.5-1.7,3.8-2.6,.2-.1,.4-.3,.6-.4,.4-.3,.8-.5,1.2-.8,.4-.3,.9-.6,1.3-.9,2.1-1.4,4.2-2.8,6.2-4.3,.5-.2,.9-.5,1.4-.7h0c0-.1,.1-.2,.2-.3,1.8-1.2,3.6-2.4,5.4-3.6,.6-.4,1.2-.8,1.8-1.2,0,0,0,0,0,0h0c0,0-.1,0-.2,0h0Z" fill="#010001"/>
    <path d="M293.5,140.2c.1,2.1,.3,4.3,.4,6.5,0,.3,.2,.6,.3,.9-.5-.2-1-.4-1.4-.6-.6-.3-1.3-.6-1.9-.9-23.2-13.8-46.4-27.6-69.7-41.3,2-1.3,3.9-2.7,5.9-4,7.4,4.5,14.9,9,22.3,13.4,10.9,6.5,21.7,13.1,32.6,19.6,3.8,2.2,7.6,4.4,11.4,6.6h0Z" fill="#010001"/>
    <path d="M335.4,108.6l-.8-.6c-21.3-15.7-42.6-31.3-63.9-47,0,0,0,0,0,0,.5,.2,1,.5,1.5,.8,9.1,4.3,18.2,8.7,27.3,13,8.5,4.1,17.1,8.1,25.6,12.2,3.1,1.5,6.2,3,9.3,4.4v-5.9c-1.1-.1-2.1-.2-3.2-.4-1-.3-2.2-.5-3.1-.9-3.2-1.5-4.8-3.7-4.5-6.2,.1-1.2-.8-1.8-1.7-2.5-.1,0-.3-.2-.5-.2-2.2,.3-4.3,.4-6.5,0-.6-.1-1.2-.3-1.9-.4-.1,0-.2-.1-.3-.2-1.2-.6-2.6-1-3.5-1.7-2.7-2.2-3.4-4.6-1.9-7.2,.3-.5,.3-.8-.4-1.1-2.8,1-5.7,1.2-8.8,.6-.2,0-.4,0-.7,0-.3,0-.6-.2-.9-.3-.5-.2-.9-.3-1.4-.4-.1,0-.2-.1-.3-.2-1.1-.7-2.5-1.2-3.3-2-2.5-2.6-2.5-5.3,0-7.8,.6-.6,.4-.9-.3-1.3-.7-.5-1.3-.9-2-1.4-.1,0-.1-.3-.2-.4-.5-.4-1.1-.7-1.6-1.1-.2-.1-.4-.2-.5-.4,0,0,0,0,.1,0,.2,.1,.4,.2,.6,.3,1.9,.9,3.8,1.8,5.7,2.8,1.7-.5,3.3-1.3,5.1-1.6,5.9-1,11.8,1,13.8,4.7,.9,1.7,.9,3.4,0,5-.1,.2,0,.4,0,.7,.4,0,.8,0,1.2,0,3.7-1,7.3-1,10.7,.3,4.1,1.6,6.1,4,5.7,7.1,0,.3,0,.7,0,1.1,.7,.4,1.4,.7,2.1,1.1,.9,0,1.8,0,2.6-.1v-9.2c-.2-.1-.3-.2-.5-.3-5.1-3.8-10.3-7.6-15.5-11.4-4.9-3.6-9.8-7.2-14.8-10.9-.2-.1-.3-.3-.2-.5,.5,.3,1,.6,1.5,.9l12.3,5.8c5.7,2.7,11.4,5.5,17.1,8.2v-15.1c-1.6-1.2-3.2-2.3-4.8-3.5-2.2-1.6-4.3-3.2-6.4-4.8-.5-.4-.9-.8-1.4-1.2-.3-.2-.6-.5-1-.7-.4-.2-.8-.5-1.2-.7,0,0,.1,0,.2-.1,.5,.2,.9,.5,1.4,.7,4.4,2.1,8.8,4.2,13.2,6.3V2.7c-1.5-.9-3.1-1.8-4.7-2.8h-55.7c1.9,1.4,3.8,2.9,5.7,4.4-.7-.3-1.3-.7-2-1-2.4-1.1-4.7-2.2-7-3.3h-2.2c-3.5,.8-7,.9-10.5,0h-15.5c2.2,1.6,4.3,3.2,6.5,4.8,2.2,1.7,4.4,3.3,6.7,4.9,1.7,1.3,3.5,2.5,5.3,3.8,.2,.2,.4,.4,.5,.6,.4,.2,.8,.4,1.1,.7,.3,.2,.7,.3,1,.5,0,0-.1,.1-.2,.2-.3-.2-.7-.3-1-.5-5.1-2.4-10.3-4.9-15.4-7.3-4.5-2.1-9-4.3-13.4-6.4-.9-.4-1.8-.8-2.6-1.2h-19.5c3.7,2.7,7.3,5.4,11,8.1,6.2,4.5,12.4,9.1,18.5,13.6,1.6,1.2,3.1,2.4,4.6,3.5l.5,.3c.4,.2,.8,.5,1.2,.7,0,0,0,0-.1,.1-.5-.2-.9-.4-1.4-.6-10.4-5-20.8-9.9-31.2-14.9-7.6-3.6-15.2-7.3-22.9-10.9h-11.3c0,.1,.2,.2,.2,.3,.4,.5,1,1.1,1.6,1.5,1.4,1,2.8,2,4.3,3,1.5,.2,3,.3,4.5,.4,.2,0,.4,0,.6,.1,.3,0,.6,.2,.9,.3,.2,0,.5,.2,.7,.2,.1,0,.2,.1,.3,.2,1,.5,2.1,.9,2.9,1.5,2,1.6,2.8,3.5,2.4,5.6,0,.4,.2,1,.6,1.3,2.1,1.6,4.4,3.2,6.6,4.8,2.7,2,5.4,4,8.1,6,2.2,1.6,4.4,3.2,6.6,4.8,2.6,1.9,5.2,3.8,7.7,5.7,0,0,0,.2,0,.3,.4,.3,.9,.6,1.3,.8,.3,.2,.6,.4,.9,.6,0,0,0,0-.1,0l-.9-.5c-4.1-1.9-8.2-3.9-12.3-5.8-5.3-2.5-10.5-5-15.8-7.5-3.2-1.5-6.5-3.1-9.7-4.7-.3,0-.6,0-.8,0-3.4,.7-6.7,.5-9.8-.7-.3-.1-.7-.1-1-.2,2.3,1.9,3.1,3.9,2.4,6.2,0,.3,.1,.6,.4,.9,.7,.6,1.6,1,2.4,1.6,2.8-.6,5.7-.7,8.5,.1,.5,.1,.9,.3,1.4,.4,.1,0,.2,.1,.4,.2,1.7,.5,2.8,1.3,3.7,2.3,2.1,2.2,2.4,4.5,.7,6.8-.4,.6-.2,1,.4,1.5,4,2.9,8,5.8,12,8.8,.1,0,.1,.2,.2,.3,0,.1,.2,.2,.2,.3,0,0,.1,0,.2-.1l1.4,.9c0,0-.1,0-.2,0-.5-.3-1-.6-1.4-.9,0,0,0,0,0,0-.2,0-.3-.1-.5-.2-.1,0-.2-.2-.4-.2-4.7-2.2-9.5-4.4-14.2-6.6-.6-.3-1.1-.6-1.7-.8-3.8,1.5-7.8,1.7-11.8,.5-4.6-1.4-7.1-4.7-6.2-7.8,.1-.4,.2-.7,.3-1.1-1-.5-1.9-.9-2.9-1.4-.4,0-.7,0-1.1,0-7.6,1.2-14.4-2.1-14.7-7,0-.2,0-.4-.1-.6-1.9-.9-3.8-1.8-5.7-2.7-.4,0-.8-.1-1.2-.1-4.9-.2-8.8-2-10.5-4.9-.2-.3-.6-.6-.9-.9-3-1.4-6-2.8-9-4.3-.2-.1-.5-.3-.7-.4,0,0,0,0-.1,0-1,.7-2.1,1.4-3.1,2.1,0,0,0,0,0,0h0c.4,.3,.8,.6,1.2,.9,12.6,7.5,25.3,15,37.9,22.5,9.1,5.4,18.1,10.9,27.1,16.3,6.2,3.7,12.4,7.4,18.6,11.1,.3,.2,.6,.5,1,.7,5.9,3.5,11.9,7,17.8,10.5,.3,.2,.6,.4,.8,.6,.5,.2,1,.4,1.4,.7,5.8,3.4,11.5,6.8,17.2,10.2,7.4,4.5,14.9,9,22.3,13.4,10.9,6.5,21.7,13.1,32.6,19.6,3.6,2.1,7.3,4.2,10.9,6.3,.2,0,.3,.2,.5,.3,0,0,.2-.1,.3-.2,1.1-.7,2.2-1.5,3.3-2.2-.1-.1-.3-.2-.4-.3-1.8-1.3-3.5-2.6-5.4-3.9-.6-.4-1.5-.7-2.4-1.1-.7-.3-1.5-.5-2.2-.8-.1,0-.2-.1-.3-.2-1-.5-2.4-.9-3.1-1.6-1-1-1.7-2.1-2.1-3.2-.3-.8-1.1-1.3-1.9-1.9-1.2-1-2.6-1.9-3.9-2.8-1.6-.1-3.3-.3-4.9-.4-2.8-.4-4.6-1.6-6-3-1.5-1.5-2.1-3.1-1.6-4.8,.2-.6,0-1-.7-1.4-1-.5-1.8-1.2-2.7-1.7-2.5,.6-5,.5-7.5,0-1-.3-2.2-.5-3-.9-4.6-2.3-5.9-5.5-3.7-9,.3-.4,.2-.7-.3-1.1-4.1-2.9-8.1-5.9-12.1-8.8-.6-.4-1-.9-1.6-1.4-.3-.2-.6-.4-1-.6-.3-.2-.7-.3-1-.5,0,0,.1-.1,.2-.2l1,.5c6.3,3,12.6,6,18.9,9,3.5-1.3,7.1-1.6,10.9-.6,5.1,1.4,7.8,4.6,6.9,8.1,0,.3-.2,.6-.3,.9,1.2,.6,2.4,1.2,3.6,1.8,3.1-.5,6.1-.5,9,.5,3.8,1.3,5.9,3.3,6.3,6.1v.8c2.2,1,4.2,2,6.3,3,2,.4,4.2,.6,6.1,1.2,2.4,.7,4,2.1,5,3.6,.2,.3,.4,.5,.7,.8,1.1,.5,2.2,1,3.4,1.5,.7,.3,1.5,.7,2.2,1,.3,.1,.6,.3,.9,.4,0-.6,0-1.2-.1-1.8h0ZM225.2,40.5c-2.1,1.5-4.2,2.9-6.4,4.3-.9,.6-1.5,.6-2.5,0-2.2-1.3-4.5-2.7-6.7-4-.9-.6-1-.9,0-1.5,1.1-.7,2.1-1.4,3.2-2.2,1-.7,2.1-1.4,3.1-2.1,.9-.6,1.6-.6,2.5,0,2.3,1.3,4.6,2.7,6.8,4,.8,.5,.9,1,0,1.5Zm22.7,5.3c-2,1.4-4,2.7-6,4-1,.7-1.6,.7-2.7,0-1.1-.6-2.1-1.2-3.1-1.9-1.1-.6-2.2-1.3-3.2-1.9-1-.6-1-1-.1-1.6,2.1-1.4,4.1-2.8,6.1-4.2,.9-.6,1.5-.6,2.6,0,2.2,1.3,4.3,2.5,6.5,3.8,1,.6,1,1,0,1.7h0Z" fill="url(#uuid-b959af99-8645-4f29-a31e-007f78c6cc91)"/>
    <path d="M330,0h4.7V2.7c-1.5-.9-3.1-1.8-4.7-2.8Z" fill="#0f1b24"/>
    <path d="M334.6,98.9v9.2c-21.3-15.7-42.6-31.3-63.9-47,0,0,0,0,0,0,.5,.2,1,.5,1.5,.8,.3,.3,.6,.6,1,.8,20.4,12.1,40.8,24.2,61.2,36.3Z" fill="#67868e"/>
    <path d="M306.3,40.6c9.4,5.6,18.9,11.2,28.3,16.8v4.5c-.2-.1-.3-.2-.5-.3-5.1-3.8-10.3-7.6-15.5-11.4-4.9-3.6-9.8-7.2-14.8-10.8-.2-.1-.3-.3-.2-.5,.5,.3,1,.6,1.5,.9,.4,.3,.7,.6,1.1,.8h0Z" fill="#67868e"/>
    <path d="M317.5,45.6c5.7,2.7,11.4,5.5,17.1,8.2v3.7c-9.4-5.6-18.9-11.2-28.3-16.8-.4-.2-.7-.6-1.1-.8l12.3,5.8Z" fill="#6b8a91"/>
    <path d="M334.6,91.4v7.4c-20.4-12.1-40.8-24.2-61.2-36.3-.4-.2-.7-.5-1-.8,9.1,4.3,18.2,8.7,27.3,13,8.5,4.1,17.1,8.1,25.6,12.2,3.1,1.5,6.2,3,9.3,4.4h0Z" fill="#6b8a91"/>
    <path d="M323.1,29.8c3.8,2.3,7.6,4.5,11.5,6.8v2.1c-1.6-1.2-3.2-2.3-4.8-3.5-2.2-1.6-4.3-3.2-6.4-4.8-.5-.4-.9-.8-1.4-1.2,.4,.2,.8,.3,1.1,.5Z" fill="#0e262c"/>
    <path d="M274.5,81.4c3.5-1.3,7.1-1.6,10.9-.6,5.1,1.4,7.8,4.6,6.9,8.1,0,.3-.2,.6-.3,.9-.8,.9-1.6,1.9-2.5,2.9,.2,.1,.6,.4,1,.6,.2,0,.7,.1,.9,0,1.4-.6,2.9-1.2,4.3-1.7,3.1-.5,6.1-.5,9,.5,3.8,1.3,5.9,3.3,6.3,6.1,0,.2,0,.5,.1,.8-.5,1-.8,2-1.4,2.9-.4,.6-1.1,1.2-1.7,1.8,1.1,.8,1.1,.8,2.2,.1,.5-.3,1.1-.6,1.8-.8,1.7-.4,3.5-.7,5.3-1.1,2,.4,4.2,.6,6.1,1.2,2.4,.7,4,2,5,3.6,.2,.3,.5,.5,.7,.8,0,.1-.1,.2-.1,.3,.7,2.3,0,4.4-2.5,6.3-.1,.1,0,.5,.1,.6,1,.7,2.1,1.3,3.2,1.9-2.4,1.6-4.7,3.2-7.1,4.9-.1,0-.4,.1-.6,.2-1.9-1.4-3.8-2.9-5.8-4.2-.6-.4-1.5-.7-2.4-1.1-.7-.3-1.5-.5-2.2-.8,.2,0,.5,0,.8,.2,1.8,.6,3.7,.9,5.8,.8,4.5-.2,8.5-2.2,9.7-4.9,1.2-2.5-.2-5.7-4.2-7.5-4.6-2.1-10.5-1.6-14.3,1-3.4,2.4-3.7,5.6-1.1,8.2,.8,.8,2,1.4,3,2.1-1-.5-2.4-.9-3.1-1.6-1-1-1.7-2.1-2.1-3.2-.3-.8-1.1-1.3-1.8-1.9-1.2-1-2.6-1.9-3.9-2.8,.3,0,.6-.2,.9-.2,2.8-.3,5-1.2,6.7-2.6,3.5-3,2.8-6.9-1.6-9.3-4.8-2.6-11.4-1.9-15.1,.7-3.7,2.6-3.6,7,.5,9.3,1.1,.6,2.5,1.2,3.7,1.7-2.8-.4-4.6-1.6-6-3-1.5-1.5-2.1-3.1-1.6-4.8,.2-.6,0-1-.7-1.4-1-.6-1.8-1.2-2.7-1.7,2-.7,4-1.4,5.4-2.8,3.4-3.3,1.8-7.8-3.9-9.8-4.5-1.6-10.2-.7-13.3,1.5-3.6,2.5-3.6,7,.5,9.3,1.1,.6,2.5,1.1,3.8,1.7-1-.3-2.2-.5-3-.9-4.6-2.3-5.9-5.5-3.7-9,.3-.4,.2-.7-.3-1.1-4.1-2.9-8.1-5.9-12.1-8.8-.6-.4-1-.9-1.6-1.4,.4,.2,.8,.4,1.1,.6,4.6,2.7,9.2,5.5,13.8,8.2l1.1,.6,2.1-1.2h0Z" fill="#0e262c"/>
    <path d="M332,71.3c.9,0,1.8,0,2.6-.1v.8c-3.3,.1-6.4,1.1-8.3,3-2.9,2.7-2.4,6.7,1.9,8.9,1,.5,2.1,.9,3.2,1.4-1-.3-2.2-.5-3.1-.9-3.2-1.5-4.8-3.7-4.5-6.2,.1-1.2-.8-1.8-1.7-2.5-.1,0-.3-.2-.5-.2,.2,0,.3-.2,.5-.2,2.1-.5,3.8-1.3,5.1-2.5,3.1-2.6,2.6-6.5-1.1-8.8-4.5-2.8-11.6-2.5-15.6,.2-3.6,2.4-4.1,7,.5,9.6,.6,.4,1.3,.7,1.9,1.1-1.2-.6-2.6-1-3.5-1.7-2.7-2.2-3.4-4.6-1.9-7.2,.3-.5,.3-.8-.4-1.1,.3-.2,.6-.3,.8-.4,1-.6,2.1-1.2,2.8-1.9,2.4-2.7,2.2-5.4-.9-7.9-3.5-2.9-11-3.6-15.9-.6-3.9,2.4-4.3,6-1.3,8.8,.7,.6,1.6,1.2,2.4,1.8-1.1-.7-2.5-1.2-3.3-2-2.5-2.6-2.5-5.3,0-7.8,.6-.6,.4-.9-.3-1.3-.7-.5-1.3-.9-2-1.4-.1,0-.1-.3-.2-.4,1.1,.6,2.1,1.2,3.2,1.8,.6,.3,.9,.2,1.1-.2,1.7-.5,3.3-1.3,5.1-1.6,5.9-1,11.8,1,13.8,4.7,.9,1.7,.9,3.4,0,5-.1,.2,0,.4,0,.7,.4,0,.8,0,1.2,0,3.7-1,7.3-1,10.7,.3,4.1,1.6,6.1,4,5.7,7.1,0,.3,0,.7,0,1.1h0c-.6,.8-1.2,1.5-1.9,2.4,1.5-.5,2.7-.9,4-1.3h0Z" fill="#0e262c"/>
    <path d="M335.5,110.4c-.3-.1-.6-.3-.9-.4-.7-.3-1.5-.7-2.2-1-1.1-.5-2.2-1-3.4-1.5,0,.1-.1,.2-.1,.3,.6,2.3,0,4.4-2.5,6.3-.1,.1,0,.5,.1,.6,.8,.5,1.7,1,2.5,1.5,.2,.1,.5,.3,.7,.4,1.6-1.1,3.2-2.1,4.8-3.2,.4-.2,.8-.5,1.1-.8,0-.7-.1-1.5-.2-2.2h0Z" fill="#0e262c"/>
    <path d="M103.9,27.1c.4,.3,.8,.7,1.3,1,12.6,7.5,25.3,15,37.9,22.5,9.1,5.4,18.1,10.9,27.1,16.3-2,1.3-3.9,2.7-5.9,4-23.2-13.8-46.4-27.6-69.7-41.3-.7-.5-1.3-.9-2-1.4-.3-.2-.5-.4-.7-.6,1.5,0,3,0,4.4,0,2.5-.1,4.9-.3,7.4-.4h0Z" fill="#010001"/>
    <path d="M245.9,25.2c-.4-.1-.8-.2-1.1-.4C230.9,16.5,216.9,8.2,203,0h8.7c3.7,2.7,7.3,5.4,11,8.1,6.2,4.5,12.4,9.1,18.5,13.6,1.6,1.2,3.1,2.4,4.6,3.5Z" fill="#67868e"/>
    <path d="M262.9,14.8c0,0-.1,.1-.2,.2-5.1-2.4-10.3-4.9-15.4-7.3-4.5-2.1-9-4.3-13.4-6.4-.9-.4-1.8-.8-2.6-1.2h6.5c7.6,4.5,15.1,9,22.7,13.4,.4,.3,.9,.5,1.4,.7,.4,.2,.8,.4,1.1,.7Z" fill="#0e262c"/>
    <path d="M246.4,25.5c0,0-.2,.1-.3,.2-10.4-5-20.8-9.9-31.2-14.9-7.6-3.6-15.2-7.3-22.9-10.9h10.9c13.9,8.3,27.9,16.6,41.8,24.8,.3,.2,.7,.3,1.1,.4l.5,.3h0Z" fill="#6b8a91"/>
    <path d="M261.7,14.1c-.5-.2-.9-.5-1.4-.7-7.6-4.5-15.1-9-22.7-13.4h5.1c2.2,1.6,4.3,3.2,6.5,4.8,2.2,1.7,4.4,3.3,6.7,4.9,1.7,1.3,3.5,2.5,5.2,3.8,.2,.2,.4,.4,.5,.6Z" fill="#0e262c"/>
    <path d="M228.8,35.7c-2.6-1.9-5.1-3.8-7.7-5.7-2.2-1.6-4.4-3.2-6.6-4.8-2.7-2-5.4-4-8.1-6-2.2-1.6-4.4-3.2-6.6-4.8-.4-.3-.7-.9-.6-1.3,.4-2.1-.4-3.9-2.4-5.6-.7-.6-1.9-1-2.9-1.5,.9,.6,1.8,1.2,2.6,1.9,2.6,2.2,2.3,5.6-.3,7.9-3.1,2.8-10.3,3.5-14.8,1.5-5.2-2.3-6.2-7.5-1.7-10.3,1.9-1.2,4-1.9,6.6-2.2,.2,0,.4,0,.6-.1-1.4-1-2.9-2-4.3-3-.6-.5-1.2-1-1.6-1.5,0-.1-.2-.2-.2-.3-.2-.3-.5-.7-.7-1.1-.1,0-.3,0-.4,0,.2,.4,.3,.7,.4,1.1,.9,3.7-3.2,7.6-9.7,7.9-4.4,.2-8.6-1.1-10.7-3.8-1-1.3-1.3-2.8-1-4.1h-.6c-.2,.7-.3,1.4-.1,2.1,0,.2,0,.4,0,.6,.9,1.2,1.7,2.4,2.6,3.6,.6,.4,1.3,.8,1.9,1.2,.4,0,.8,.2,1.2,.3,1.8,.7,3.8,1,5.9,1,.4,0,.8,0,1.3,.1,.8-.2,1.6-.3,2.4-.6,1.3-.4,2.6-.9,3.9-1.4,.4-.2,.8-.4,1.2-.5,.2,0,.6,.2,.8,.4,.1,.1,.1,.4,0,.5-1.5,1-2.4,2.2-2.8,3.6,0,.1-.2,.3-.4,.4,0,.4,.2,.9,.2,1.3,0,1.7,1.4,3.1,2.6,4.5,.6,.4,1.3,.8,1.9,1.2,.3,0,.7,.1,1,.2,3.1,1.2,6.4,1.4,9.8,.7,.2,0,.5,0,.8,0,1.2-.6,2.5-1.2,3.8-1.8,.2,0,.6,0,.8,0,.3,.1,.5,.3,.8,.5,10,5.9,20,11.9,30.1,17.8,.3,.2,.8,.3,1.1,.5,0,0,0-.2,0-.3h0Z" fill="#0e262c"/>
    <path d="M280,4.3c-.7-.3-1.3-.7-2-1-.2-.2-.4-.4-.6-.6-1.5-.9-3.1-1.8-4.6-2.7h1.5c1.9,1.4,3.8,2.9,5.7,4.4Z" fill="#6b8a91"/>
    <path d="M213.1,47.2c-.1,0-.2,.1-.3,.2-.1,0-.2-.2-.4-.2-.2-.2-.4-.4-.6-.5-4.2-2.5-8.5-5-12.8-7.6-.2-.1-.4-.2-.7-.3-.6,.3-1.2,.7-1.9,1-3.8,1.5-7.8,1.7-11.8,.5-4.6-1.4-7.1-4.7-6.2-7.8,.1-.4,.2-.7,.3-1.1,.7-.7,1.4-1.5,2.2-2.2,.4-.4,.2-.6-.3-.8-.2,0-.7-.1-.9,0-1.3,.5-2.6,1.1-3.9,1.7-.4,0-.7,0-1.1,0-7.6,1.2-14.4-2.1-14.7-7,0-.2,0-.4-.1-.6,.5-.9,.8-1.9,1.4-2.8,.4-.6,1.1-1.1,1.7-1.7-1.1-.8-1.1-.8-2.2-.1-.8,.4-1.8,.8-2.8,1.1-1.2,.3-2.6,.5-3.8,.8-.4,0-.8-.1-1.2-.1-4.9-.2-8.8-2-10.5-4.9-.2-.3-.6-.6-.9-.9,.1-.3,.4-.6,.3-.9-.3-1.7,.4-3.2,1.8-4.7,.3-.3,.7-.6,1.1-1-1.8-1.1-3.6-2.1-5.3-3.1,0,0-.1,0-.2,0,1.9-1.3,3.8-2.6,5.6-3.9,.6-.4,1.2-.9,1.9-1.3,0,0,0,0,.1,0,.5,.3,1,.6,1.4,.9,.1,.1,.3,.2,.4,.3,2.3,1.7,4.6,3.3,6.8,5-.4,0-.8,0-1.1,0-3.1-.2-5.9,.4-8.2,1.6-5.6,3.1-4.8,8.4,.9,10.8,5.5,2.4,12.5,1.1,15.5-2.3,2.4-2.7,1.6-6.3-2.3-8.4-.4-.2-.6-.5-.8-.7,.2,0,.4,.1,.7,.2,.6,.4,1.3,.8,1.9,1.2,1.5,1.1,2.3,2.4,2.6,3.8,0,.3,.2,.7,.5,1,1.5,1.2,3.1,2.3,4.7,3.5-.2,0-.4,.2-.6,.2-2.5,.2-4.3,1.1-6.1,2.2-4.2,2.7-3.4,7.8,1.6,10,4.5,2,10.9,1.5,14.4-.9,3.7-2.5,3.6-7.1-.5-9.4-.8-.4-1.5-.9-2.2-1.3,.6,.2,1.1,.4,1.7,.6,.6,.4,1.3,.8,1.9,1.2,2.3,1.9,3.1,3.9,2.4,6.2,0,.3,.1,.6,.4,.9,.7,.6,1.6,1,2.4,1.6-.2,.1-.5,.3-.8,.4-2,.6-3.5,1.5-4.6,2.7-2.7,2.8-1.5,7.1,3.5,9.2,5,2.1,12.1,1,15.1-2.2,2.6-2.8,1.8-6.5-2.1-8.5-.4-.2-.7-.5-1-.8,1.7,.5,2.8,1.3,3.7,2.3,2.1,2.2,2.4,4.5,.7,6.8-.4,.6-.2,1,.4,1.5,4,2.9,8,5.8,12,8.8,.1,0,.1,.2,.2,.3h0Z" fill="#6b8a91"/>
    <path d="M139.6,3.8l5.5,3.2c-.4,.3-.8,.7-1.1,1-1.4,1.4-2.1,3-1.8,4.7,0,.3-.2,.6-.3,.9-3-1.4-6-2.8-9-4.3-.3-.1-.5-.3-.8-.5,2.5-1.7,5.1-3.4,7.6-5.1h0Z" fill="#6b8a91"/>
    <path d="M158.4-.6c-2.6,0-5.2-.1-7.8-.3,.6,.3,1.3,.6,1.9,.9,1.4,.7,2.9,1.4,4.3,2.1,.4,.2,.8,.4,1.2,.6,0-.2,0-.4,0-.6-.1-.7,0-1.4,.1-2.1,0-.2,.1-.4,.2-.6h0Z" fill="#0e262c"/>
    <path d="M156.8,2c-1.4-.7-2.9-1.4-4.3-2.1-.6-.3-1.3-.6-1.9-.9-.9,0-1.8-.1-2.6-.2-.3,0-.6,0-.8-.1h0s0,0,.1,0c.5,.3,1,.6,1.4,.9,.1,.1,.3,.2,.4,.3,2.3,1.7,4.6,3.3,6.8,5,.5,0,.9,.2,1.4,.3,.7,.2,1.5,.4,2.2,.6,.1,0,.2,.1,.4,.2,.2,0,.4,.1,.7,.2-.9-1.2-1.7-2.4-2.6-3.6-.4-.2-.8-.4-1.2-.6h0Z" fill="#332b2a"/>
    <path d="M208.5,89.8c.5,.2,1,.4,1.4,.7,5.8,3.4,11.5,6.8,17.2,10.2-2,1.3-3.9,2.7-5.9,4-6.2-3.7-12.4-7.3-18.6-11,1.9-1.3,3.9-2.6,5.8-3.8h0Z" fill="#010001"/>
    <path d="M208.5,89.8c-1.9,1.3-3.9,2.6-5.8,3.8l-19.7-11.7,5.9-3.9c.3,.2,.6,.4,1,.7,5.9,3.5,11.9,7,17.8,10.6,.3,.2,.6,.4,.8,.6h0Z" fill="#b9c7c8"/>
    <path d="M188.9,77.9l-5.9,3.9c-6.2-3.7-12.4-7.3-18.6-11,2-1.3,3.9-2.7,5.9-4,6.2,3.7,12.4,7.4,18.6,11.1Z" fill="#010001"/>
    <g>
      <path d="M235.4,106c19.4,11.6,38.8,23.2,58.2,34.8,7-4.7,14-9.4,20.9-14-18.7-11.2-37.4-22.4-56.1-33.6-.7-.4-1.4-.8-2.1-1.3-7,4.7-13.9,9.4-20.9,14.1h0Z" fill="#14252d"/>
      <path d="M256.3,92c.7,.4,1.4,.8,2.1,1.3,18.7,11.2,37.4,22.4,56.1,33.6,1.4-1,2.9-1.9,4.3-2.9-62.7-37.5-125.4-75-188.1-112.5-.4-.3-.8-.6-1.1-.9-1.5,1-3,2-4.4,3,.6,.4,1.2,.7,1.8,1.1,18.9,11.3,37.8,22.6,56.6,33.9,.3,.1,.7,.2,1,.4,5.1,3,10.1,6,15.1,9,.3,.2,.4,.4,.7,.6,.7,.4,1.4,.8,2.1,1.3,12.3,7.4,24.6,14.7,36.9,22.1,.4,.2,.8,.3,1.2,.5,5,3,9.9,5.9,14.9,8.9,.3,.2,.6,.5,.9,.7h0Z" fill="#0f1b24"/>
      <path d="M183.6,48.5c-18.9-11.3-37.8-22.6-56.6-33.9-.6-.4-1.2-.7-1.8-1.1-7,4.7-14,9.4-21.1,14.1,1,.5,2,1,2.9,1.6,18.5,11.1,37.1,22.2,55.7,33.3,7-4.7,14-9.4,20.9-14h0Z" fill="#14252d"/>
      <path d="M256.3,92c-.3-.2-.5-.5-.9-.7-4.9-3-9.9-5.9-14.9-8.9-.3-.2-.8-.3-1.2-.5-7,4.7-13.9,9.3-20.9,14,2.6,1.6,5.2,3.1,7.8,4.7,.4,.2,.6,.5,.9,.8,2.4,1.4,4.7,2.8,7.1,4.2,.3,.2,.7,.3,1.1,.5,7-4.7,13.9-9.4,20.9-14Z" fill="#0f1b24"/>
      <path d="M183.6,48.5c-7,4.7-14,9.4-20.9,14,.3,.2,.5,.5,.8,.6,2.4,1.4,4.7,2.9,7.1,4.3,.4,.1,.8,.2,1.1,.4,2.6,1.6,5.2,3.1,7.9,4.7,7-4.7,13.9-9.3,20.9-14-.2-.2-.4-.4-.7-.6-5-3-10.1-6-15.1-9-.3-.2-.6-.3-1-.4h0Z" fill="#0f1b24"/>
      <path d="M200.3,58.5c-7,4.7-13.9,9.4-20.9,14,3.2,1.9,6.5,3.9,9.8,5.8,6.6,3.9,13.1,7.9,19.7,11.8,3.2,1.9,6.4,3.8,9.6,5.7,7-4.7,13.9-9.3,20.9-14-12.3-7.4-24.6-14.7-36.9-22.1-.7-.4-1.4-.8-2.1-1.3h0Z" fill="#14252d"/>
    </g>
    <path d="M197.1,28.3c-.4-.2-.7-.5-1-.8-.1,0-.2-.1-.4-.2-.5-.1-.9-.3-1.4-.4-2.8-.8-5.6-.8-8.5-.1-.2,.1-.5,.3-.8,.4-2,.6-3.5,1.5-4.6,2.7-2.7,2.8-1.5,7.1,3.5,9.2,5,2.1,12.1,1,15.1-2.2,2.6-2.8,1.8-6.5-2.1-8.5Zm-17.1,5.8s0,0,0,0c0,0,0,0,0,0,0,0,0,.2,0,.3,0,0,0,0-.1,0,0,0,0-.2,0-.3,0,0,0,0,0,0Zm0,.9s0,0,0,0c0,0,0,0,.1,0,0,0,0,0-.1,0Zm15.6-6.3c-1.7-.8-3.7-1.2-5.8-1.1-2.6,0-4.9,.6-6.7,1.8-1.9,1.2-2.8,2.6-2.9,4.3-1.1-1.3,.1-3.4,3-5.3,2.8-1.8,7.8-2.2,11.6-.9,3.2,1.1,5.6,3.6,5,5.3-.6-1.7-1.9-3.2-4.1-4.2Z" fill="#f0f3f4"/>
    <path d="M286.1,81.9c-4.5-1.6-10.2-.7-13.3,1.5-3.6,2.5-3.6,7,.5,9.3,1.1,.6,2.5,1.1,3.8,1.7,2.5,.6,5,.6,7.5,0,2-.7,4-1.4,5.4-2.8,3.4-3.3,1.8-7.8-3.9-9.8Zm4.9,5.1h0c0,0,0,0-.1,0,0,0,0,0,0,0h.1Zm-3.5,5.9c-2.9,1.6-7.6,2.1-11.5,.7-3.2-1.2-5.6-3.8-4.9-5.4,1.3,3.8,5.7,5.4,10,5.4,4.2,0,8.8-1.8,9.7-5.8,.8,.8-.1,3.3-3.4,5.1h0Z" fill="#49616b"/>
    <path d="M196.6,8c-.8-.7-1.7-1.3-2.6-1.9-.1,0-.2-.1-.3-.2-.2,0-.5-.2-.7-.2-.3,0-.6-.2-.9-.3-.2,0-.4,0-.6-.1-1.5-.2-3-.3-4.5-.4-.2,0-.4,.1-.6,.1-2.6,.2-4.7,1-6.6,2.2-4.5,2.8-3.6,7.9,1.7,10.3,4.6,2,11.8,1.3,14.8-1.5,2.6-2.3,2.9-5.7,.3-7.9Zm1.1,4.1s0,0,0,0c-.4-.8-.7-1.6-1.2-2.4-2.2-3.2-9-4.5-13.7-2.7-3.2,1.2-5,3-4.9,5.4,0,0,0,.2,0,.2,0,0,0,0-.2,.2-.1-.1-.3-.2-.3-.3-.5-3.4,3.2-6.6,8.5-7.1,3.7-.3,6.9,.4,9.4,2.1,1.6,1.1,2.4,2.5,2.6,4.1,0,.1-.1,.3-.2,.4h0Z" fill="#49616b"/>
    <path d="M177.9,13.5s0,0,0-.1c0,0,.1,0,.2,0,0,0,0,0,0,.1,0,0-.1,0-.2,0Z" fill="#49616b"/>
    <path d="M309.9,54.4c-3.5-2.9-11-3.6-15.9-.6-3.9,2.4-4.3,6-1.3,8.8,.7,.6,1.6,1.2,2.4,1.8,.1,0,.2,.1,.3,.2,.5,.1,.9,.3,1.4,.4,.3,0,.6,.2,.9,.3,.2,0,.4,0,.7,0,3.1,.7,6,.4,8.8-.6,.3-.2,.6-.3,.8-.4,1-.6,2.1-1.2,2.8-1.9,2.4-2.7,2.2-5.4-.9-7.9h0Zm-18.9,3.6c.3,0,.7,0,1,0,0,.4,0,.8,0,1.2-.3,0-.7,0-1,0,0-.4,0-.8,0-1.2Zm5.2,6.2c-2.4-.9-3.8-2.3-4.6-4-.1-.2,0-.4,.1-.7,.5,.6,.9,1.3,1.5,1.9,3.4,3.6,11.9,3.9,16.1,.5,1.2-1,1.8-2.2,1.9-3.4,0-.2,.1-.4,.2-.6,0,0,0,0,0,0,0,0,0,0,0,0,0,0,0,0,0,0,0,.6,.3,1.2,.1,1.8-1.3,4.9-9.7,6.7-15.4,4.5h0Z" fill="#49616b"/>
    <path d="M327.7,82.3c.1,.1,.3,.2,.4,.3,.1,.1,.3,.2,.5,.3,.2,.1,.4,.2,.5,.3,.4,.2,.8,.4,1.2,.5,.2,0,.3,.1,.5,.2,.3,0,.5,.2,.8,.2s.3,0,.5,0c.3,0,.6,0,.9,.1,.2,0,.5,0,.8,0s.5,0,.8,0v-12.5c-3.3,.1-6.4,1.1-8.3,3-2.9,2.7-2.4,6.7,1.9,8.9,1,.5,2.1,.9,3.2,1.4,1.1,.1,2.1,.2,3.2,.4v-.4c-.2,0-.4,0-.6,0-.4,0-.8,0-1.1-.2-.2,0-.4,0-.6,0-.8-.2-1.5-.4-2.2-.6-2.7-1-4.2-2.4-4.6-4.4,.6,.9,1.4,1.7,2.2,2.4h0Zm-2.4-4.3c0,0,0,.2,0,.3h-.1c0,0,0-.2,0-.3h0Zm.2,1.6c-.2,0-.5,0-.8,0,0-.2,0-.4,0-.6,.2,0,.4,0,.7,0,0,0,.1,.2,.1,.3,0,.1,0,.2,0,.3Z" fill="#49616b"/>
    <path d="M306.4,93.7c-4.8-2.5-11.4-1.9-15.1,.7-3.7,2.6-3.6,7,.5,9.3,1.1,.6,2.5,1.2,3.7,1.7,1.6,.2,3.3,.3,4.9,.4,.3,0,.6-.2,.9-.2,2.8-.3,5-1.2,6.7-2.6,3.6-3,2.8-6.9-1.6-9.3h0Zm-17,4.2s.1,0,.2,0c0,0,.1,0,0,.1,0,0-.1,0-.2,0,0,0,0,0,0-.1Zm16.2,6.2c-4,1.8-8.6,1.8-12.4,0-2.4-1.1-4.3-3.5-3.6-4.9,1.4,3.6,4.8,5.5,10.5,5.3,5.5-.2,8.2-2.4,9.2-5.7,.8,1.5-1.2,4.1-3.8,5.3h0Z" fill="#49616b"/>
    <path d="M179.7-1.1c-.2,0-.4,0-.6,0,0,0,0,0,0,0,0,.1,.1,.2,.2,.4,0,.2,.1,.4,.2,.6,0,0,0,0,0,0,0,0,0,.2,0,.2,0,.2,0,.5,0,.7,0,0,0,0,0,.1,0,.2,0,.3-.1,.5,0-.2-.2-.3-.2-.5,0-.2,0-.4,0-.6,0-.2,0-.4-.2-.6,0,0,0,0,0,0V-.4c-.2-.2-.3-.3-.4-.5,0,0,0-.1-.1-.2,0,0,0,0,0,0-6.1,.2-12.1,.4-18.1,.4,0,0,0,0,0,0,0,.2-.1,.3-.2,.4,0,0,0,0,0,0,0,.2-.2,.4-.2,.7,0,.3-.2,.5-.3,.8h0c0,0,0,0,0,0,0-.1,0-.2,0-.4,0-.2,0-.4,0-.6,0-.2,0-.4,0-.5,0,0,0-.2,0-.2,0,0,0-.2,0-.3,0,0,0,0,0,0h-.7c0,.2-.2,.4-.2,.6-.4,1.4,0,2.8,1,4.1,2.1,2.7,6.3,4,10.7,3.8,6.5-.3,10.7-4.2,9.7-7.9,0-.4-.2-.7-.4-1.1h0Z" fill="#49616b"/>
    <path d="M328.3,67.8h0s0,0,0,0c0,0,0,0,0,0Zm0,0h0s0,0,0,0c0,0,0,0,0,0Zm0,0h0s0,0,0,0c0,0,0,0,0,0Zm0,0h0s0,0,0,0Zm-2.2-3.9c-4.5-2.8-11.6-2.5-15.6,.2-3.6,2.4-4.1,7,.5,9.6,.6,.4,1.3,.7,1.9,1.1,.1,0,.2,.1,.3,.2,.6,.1,1.2,.3,1.9,.4,2.1,.4,4.3,.4,6.5,0,.2,0,.3-.2,.5-.2,2.1-.5,3.8-1.3,5.1-2.5,3.1-2.6,2.6-6.5-1.1-8.8h0Zm2.1,3.8h0c0-.1,0-.2,0-.3,0,0,.1,.1,.2,.2h0s0,0,0,0,0,0,0,0h0s0,0,0,0c0,0,0,0,0,0h0c0,0,0,.1,.1,.2,0,0,0,0,0,0,0,0-.1,0-.1,0,0,0,0-.1-.2-.4h0Zm-3,5.8c-3,1.9-7.2,2.2-11,1.1-4.1-1.1-6.3-3.9-5.8-5.6,2.9,4.3,5.5,5.5,11.5,5.3,4-.2,6.7-2.1,8.3-5.9,1,1.1-.2,3.3-3.1,5.1Zm3-5.8h0s0,0,0,0c0,0,0,0,0,0Zm0,0h0s0,0,0,0c0,0,0,0,0,0Zm0,0h0s0,0,0,0c0,0,0,0,0,0Zm0,0h0s0,0,0,0c0,0,0,0,0,0Z" fill="#49616b"/>
    <path d="M323.8,104.1c-4.6-2.1-10.5-1.6-14.3,1-3.4,2.4-3.7,5.6-1.1,8.2,.8,.8,2,1.4,2.9,2.1,.1,0,.2,.1,.3,.2,.2,0,.5,0,.8,.2,1.8,.6,3.7,.9,5.8,.8,4.5-.2,8.5-2.2,9.7-4.9,1.2-2.5-.2-5.7-4.2-7.5h0Zm.3,10.6c-4.2,2-8.5,2-12.6,.2-2.8-1.2-4.8-4.3-3.9-6.1,.8,4.3,4.3,6.8,11.3,6.4,2.6-.1,4.8-.9,6.4-2.3,1.5-1.3,2.3-2.8,2.1-4.5,1,2-.4,4.7-3.3,6.1h0Z" fill="#49616b"/>
    <path d="M334.6,34.8v1.8c-3.8-2.3-7.6-4.5-11.5-6.8-.3-.2-.8-.4-1.1-.5-.3-.2-.6-.5-1-.7,.1,0,.2,0,.3-.1,4.4,2.1,8.8,4.2,13.2,6.4Z" fill="#0e262c"/>
    <path d="M192.3,19c1.2-.6,2.5-1.2,3.8-1.8,.2,0,.6,0,.8,0,.3,.1,.5,.3,.8,.5,10,5.9,20,11.9,30.1,17.8,.3,.2,.8,.3,1.1,.5,.4,.3,.9,.6,1.3,.8l-.2,.2c-4.1-1.9-8.2-3.9-12.3-5.8-5.3-2.5-10.5-5-15.8-7.5-3.2-1.5-6.5-3.1-9.7-4.7h0Z" fill="#0e262c"/>
    <path d="M225.1,39c-2.2-1.3-4.5-2.7-6.8-4-.9-.5-1.6-.5-2.5,0-1,.7-2.1,1.4-3.1,2.1-1.1,.7-2.1,1.4-3.2,2.2-.9,.6-.9,1,0,1.5,2.2,1.3,4.5,2.7,6.7,4,.9,.6,1.6,.6,2.5,0,2.1-1.4,4.3-2.9,6.4-4.3,.8-.5,.8-1,0-1.5Zm-10.7,1.7c-.6,.4-1.6,.5-2.3,0-.7-.4-.8-1-.2-1.4,.6-.4,1.6-.5,2.2-.1,.7,.4,.8,1,.2,1.4Zm1.8-4.1c.6-.4,1.5-.5,2.2,0,.7,.4,.7,1,.1,1.4-.6,.4-1.6,.4-2.3,0-.7-.4-.7-1,0-1.4Zm0,2.6c.6-.4,1.7-.4,2.3,0,.6,.4,.6,1,0,1.4-.6,.4-1.6,.4-2.2,0-.6-.4-.7-1,0-1.4h0Zm2.4,4c-.6,.4-1.7,.4-2.3,0-.6-.4-.6-1,0-1.4,.6-.4,1.6-.4,2.2,0,.6,.4,.7,1,.1,1.4Zm4.1-2.8c-.6,.4-1.6,.4-2.3,0-.6-.4-.7-1-.1-1.4,.6-.4,1.6-.5,2.2,0,.7,.4,.8,1,.1,1.4Z" fill="#f8f5f1"/>
    <path d="M247.9,44.1c-2.1-1.3-4.3-2.6-6.5-3.8-1-.6-1.6-.6-2.6,0-2.1,1.4-4.1,2.8-6.1,4.2-.9,.6-.9,1,.1,1.6,1.1,.7,2.2,1.3,3.2,1.9,1.1,.6,2.1,1.2,3.1,1.9,1.1,.7,1.7,.7,2.7,0,2-1.3,4-2.7,6-4,1-.7,.9-1.1,0-1.7h0Zm-10.4,1.9c-.7,.5-1.7,.5-2.5,0-.7-.4-.8-1.1-.1-1.6,.7-.5,1.8-.5,2.6,0,.7,.4,.7,1.1,0,1.6Zm1.5-4.3c.7-.4,1.8-.5,2.5,0,.7,.4,.8,1.2,0,1.6-.7,.4-1.8,.4-2.5,0-.7-.4-.7-1.1,0-1.6Zm2.6,6.7c-.6,.4-1.8,.5-2.5,0s-.8-1.1-.1-1.6c.6-.5,1.9-.5,2.6,0,.7,.4,.7,1.2,0,1.6h0Zm4.1-2.8c-.6,.4-1.8,.5-2.5,0-.7-.4-.8-1.1-.2-1.6,.6-.5,1.9-.5,2.6,0,.7,.4,.7,1.1,0,1.6h0Z" fill="#f8f5f1"/>
    <path d="M274.5,81.4l-2.1,1.2-1.1-.6c-4.6-2.7-9.2-5.5-13.8-8.2-.4-.2-.7-.4-1.1-.6-.3-.2-.7-.4-1-.6,0,0,.1-.1,.2-.2,6.3,3,12.6,6,18.9,9h0Z" fill="#0e262c"/>
    <path d="M317.3,101.9c-1.8,.4-3.6,.7-5.3,1.1-.6,.2-1.2,.4-1.8,.8-1.2,.7-1.2,.7-2.2-.1,.6-.6,1.3-1.1,1.7-1.8,.6-.9,1-1.9,1.4-2.9l6.2,3h0Z" fill="#0e262c"/>
    <path d="M196.5,39.7c.6-.3,1.2-.6,1.9-1,.3,.1,.5,.2,.7,.3,4.2,2.5,8.5,5,12.8,7.6,.2,.2,.4,.3,.6,.5-4.7-2.2-9.4-4.4-14.2-6.6-.6-.3-1.1-.5-1.7-.8Z" fill="#6b8a91"/>
    <path d="M277.4,2.7c-1.5-.9-3.1-1.8-4.6-2.7-.4-.2-.8-.5-1.2-.7-.4,.1-.9,.2-1.3,.4,.2,.1,.5,.2,.8,.4,2.3,1.1,4.7,2.2,7,3.3-.2-.2-.4-.4-.6-.6h0Z" fill="#6b8a91"/>
    <path d="M154.3,19.6c1.3-.2,2.6-.4,3.8-.8,1-.3,2-.6,2.8-1.1,1.2-.6,1.2-.7,2.2,.1-.6,.5-1.3,1.1-1.7,1.7-.6,.9-1,1.8-1.4,2.8-1.9-.9-3.8-1.8-5.8-2.8h0Z" fill="#6b8a91"/>
    <path d="M295.6,91.6c-1.4,.6-2.8,1.2-4.3,1.7-.2,0-.7,0-.9,0-.4-.2-.8-.4-1-.6,.9-1,1.7-2,2.5-2.9,1.2,.6,2.4,1.2,3.6,1.8h0Z" fill="#0e262c"/>
    <path d="M175.9,29.9c1.3-.6,2.6-1.2,3.9-1.7,.2,0,.6,0,.9,0,.5,.2,.6,.5,.3,.8-.7,.7-1.5,1.5-2.2,2.2-1-.5-1.9-.9-2.9-1.4h0Z" fill="#6b8a91"/>
    <path d="M332,71.3l-4,1.3c.7-.9,1.3-1.6,1.9-2.4,.7,.3,1.4,.7,2.1,1.1Z" fill="#0e262c"/>
    <path d="M293.6,52.9c-.2,.4-.5,.5-1.1,.2-1-.6-2.1-1.2-3.2-1.8-.5-.4-1.1-.7-1.6-1.1,0,0,.1,0,.1,0,1.9,.9,3.8,1.8,5.7,2.8h0Z" fill="#0e262c"/>
    <path d="M214.7,48.5l-1.4-.9,.3-.2,1.4,.9h-.2Z" fill="#67868e"/>
    <path d="M321.4,28.5h-.3c-.4-.1-.8-.4-1.2-.6h.2l1.4,.6Z" fill="#745f58"/>
    <path d="M246.1,25.7l.3-.2,1.2,.7h-.1l-1.4-.5Z" fill="#67868e"/>
    <path d="M313.3,74.9c.6,.1,1.2,.3,1.9,.4-.6-.1-1.2-.3-1.9-.4Z" fill="#756059"/>
    <path d="M195.7,27.4l-1.4-.4,1.4,.4Z" fill="#b8afa8"/>
    <path d="M262.7,15c0,0,.1-.1,.2-.2,.3,.2,.7,.3,1,.5l-.2,.2-1-.5h0Z" fill="#745f58"/>
    <path d="M295.4,64.5l1.4,.4-1.4-.4Z" fill="#756059"/>
    <path d="M255.6,72.4c0,0-.1,.1-.2,.2-.3-.2-.7-.3-1-.5l.2-.2,1,.5h0Z" fill="#756059"/>
    <path d="M230,37l.2-.2c.3,.2,.6,.4,.9,.6h-.1l-.9-.4h0Z" fill="#745f58"/>
    <path d="M193.6,5.9c-.2,0-.5-.2-.7-.2,.2,0,.5,.2,.7,.2Z" fill="#745f58"/>
    <path d="M297.7,65.2h0Z" fill="#756059"/>
    <path d="M212.8,47.4c.1,0,.2-.1,.3-.2,0,.1,.2,.2,.2,.3l-.5-.2h0Z" fill="#ded7ce"/>
    <path d="M287.9,50.2s-.1,0-.1,0l-.5-.4h.1l.6,.3Z" fill="#756059"/>
    <path d="M192.1,5.4c-.2,0-.4,0-.6-.1,.2,0,.4,0,.6,.1Z" fill="#745f58"/>
    <path d="M170.4,15.6c-1.6-1.1-3.2-2.3-4.7-3.5-.3-.2-.5-.6-.6-1-.4-1.4-1.2-2.7-2.6-3.8,.4,0,.8,.2,1.2,.3,1.8,.7,3.8,1,5.9,1,.4,0,.8,0,1.3,.1,.4,.1,.7,.3,1.1,.4,1.3,.6,2.6,1.3,4,2,0,.4,.2,.9,.2,1.4,0,1.7,1.4,3.1,2.6,4.4l-1.7-.6c-2.1-.8-4.3-.9-6.7-.8h0Z" fill="#332b2a"/>
    <path d="M175.9,11.2c-1.3-.7-2.6-1.3-4-2-.3-.2-.7-.3-1.1-.4,.8-.2,1.6-.3,2.4-.6,1.3-.4,2.6-.9,3.9-1.4,.4-.2,.8-.4,1.2-.5,.2,0,.6,.2,.8,.3,.1,.1,.1,.4,0,.5-1.5,1-2.4,2.2-2.8,3.6,0,.1-.2,.3-.4,.4h0Z" fill="#0e262c"/>
    <path d="M179.2,17.7c-.8-.4-1.5-.9-2.2-1.3-2.1-.8-4.3-.9-6.7-.8-.2,0-.4,.2-.6,.2-2.5,.2-4.3,1.1-6.1,2.2-4.2,2.7-3.4,7.8,1.6,10,4.5,2,10.9,1.5,14.4-.9,3.7-2.5,3.6-7.1-.5-9.4h0Zm-1.6,.3c-1.7-.8-3.7-1.3-5.8-1.2-2.8,0-5.2,.7-7.2,2-2,1.3-2.7,2.9-2.6,4.8-1.1-1.1,0-3.8,1.7-5.1,3.3-2.6,8.8-3,12.6-1.7,3.9,1.3,5.9,3.8,5.4,6.1-.3-2-1.6-3.6-4.1-4.8h0Zm4.1,5.5h0s0,0-.1,0c0,0,0,0,0,0Z" fill="#f0f3f4"/>
    <path d="M160.7,6.7c-.4-.2-.6-.5-.8-.7-.1,0-.2-.1-.4-.2-.7-.2-1.5-.4-2.2-.6-.5,0-.9-.2-1.4-.3-.4,0-.8,0-1.1,0-3.1-.2-5.9,.4-8.2,1.6-5.6,3.1-4.8,8.4,.9,10.8,5.5,2.4,12.5,1.1,15.5-2.3,2.4-2.7,1.6-6.3-2.3-8.4h0Zm1.2,2.4c-3.1-3.5-11.3-4.1-15.5-1.1-1.4,1-2.4,2.1-2.5,3.5,0,.3-.2,.6-.3,.9,0,0,0,.1,0,.2h0c0,0,0,0,0,0s0,0,0,0v-.2c-.6-1.2,0-2.3,.7-3.3,2.5-3.2,7.9-4.6,13.2-3.2,4,1,6,3.2,6.3,5.7,0,.2-.1,.3-.2,.5l.2,.5c-.1,0-.2,0-.4,0v-.5c-.4-1-.7-2-1.5-2.9h0Z" fill="#f0f3f4"/>
    <path d="M159.5,5.8c-.7-.2-1.5-.4-2.2-.6,.7,.2,1.5,.4,2.2,.6Z" fill="#b8afa8"/>
    <path d="M199.8,32.9c-.6-1.7-1.9-3.2-4.1-4.2-1.7-.8-3.7-1.2-5.8-1.1-2.6,0-4.9,.6-6.7,1.8-1.9,1.2-2.8,2.6-2.9,4.4-1.1-1.3,.1-3.4,3-5.3,2.8-1.8,7.8-2.2,11.6-.9,3.2,1.1,5.6,3.6,5,5.3h0Z" fill="#b9c7c8"/>
    <path d="M180,34.2v.3h0v-.3h0Z" fill="#f8f5f1"/>
    <path d="M180.2,35s0,0-.1,0c0,0,0,0,0,0h.1Z" fill="#f8f5f1"/>
    <path d="M180,34.2h0c0,0,0,0,0,0,0,0,0,0,0,0h0Z" fill="#f8f5f1"/>
    <path d="M271.1,88.2c1.3,3.8,5.7,5.4,10,5.4,4.2,0,8.8-1.8,9.7-5.8,.8,.8-.1,3.3-3.4,5.1-2.9,1.6-7.6,2.1-11.5,.7-3.2-1.2-5.6-3.8-4.9-5.4h0Z" fill="#001319"/>
    <path d="M290.9,87h0Z" fill="#c9afa6"/>
    <path d="M197.7,12c-.4-.8-.7-1.6-1.2-2.4-2.2-3.2-9-4.5-13.7-2.7-3.2,1.2-5,3-4.9,5.4,0,0,0,.1,0,.2,0,0,0,0-.2,.2-.1-.1-.3-.2-.3-.3-.5-3.4,3.2-6.6,8.5-7.1,3.7-.3,6.9,.4,9.4,2.1,1.6,1.1,2.4,2.5,2.6,4.1,0,.1-.1,.3-.2,.4h0Z" fill="#001319"/>
    <path d="M177.9,13.5s0,0,0-.1c0,0,.1,0,.2,0,0,0,0,0,0,.1,0,0-.1,0-.2,0h0Z" fill="#c9afa6"/>
    <path d="M311.5,57.9c0,.6,.3,1.2,.1,1.8-1.3,4.9-9.7,6.7-15.4,4.5-2.4-.9-3.8-2.3-4.6-4,0-.2,0-.4,.1-.7,.5,.6,.9,1.3,1.5,1.9,3.4,3.6,11.9,3.9,16.1,.5,1.2-1,1.8-2.2,1.9-3.4,0-.2,.1-.4,.2-.7h0Z" fill="#001319"/>
    <path d="M291.1,59.3v-1.2h1v1.2h-1Z" fill="#001319"/>
    <path d="M311.5,57.9h0c0,0,0,0,0,0,0,0,0,0,0,0h0Z" fill="#c9afa6"/>
    <path d="M334.6,84.4v.8c-.2,0-.4,0-.6,0-.4,0-.8,0-1.1-.2-.2,0-.4,0-.6,0-.8-.2-1.5-.4-2.2-.6-2.7-1-4.2-2.4-4.6-4.4,.6,.9,1.4,1.7,2.2,2.4,.1,.1,.3,.2,.4,.3,.1,.1,.3,.2,.5,.3,.2,.1,.4,.2,.5,.3,.4,.2,.8,.4,1.2,.5,.2,0,.3,.1,.5,.2,.3,0,.5,.2,.8,.2s.3,0,.5,0c.3,0,.6,0,.9,.1,.2,0,.5,0,.8,0,.2,0,.5,0,.8,0Z" fill="#001319"/>
    <path d="M325.5,78.9c0,0,.1,.2,.1,.3,0,.1,0,.2,0,.3h-.8v-.6h.7Z" fill="#c9afa6"/>
    <path d="M325.3,77.9v.3h0v-.3h0Z" fill="#c9afa6"/>
    <path d="M325.3,77.9h0Z" fill="#c9afa6"/>
    <path d="M309.4,98.8c.8,1.5-1.2,4.1-3.8,5.3-4,1.8-8.6,1.8-12.4,0-2.4-1.1-4.3-3.5-3.6-4.9,1.4,3.6,4.8,5.5,10.5,5.3,5.5-.2,8.2-2.4,9.2-5.7h0Z" fill="#001319"/>
    <path d="M289.5,98s0,0,0-.1c0,0,.1,0,.2,0,0,0,0,0,0,.1,0,0-.1,0-.2,0Z" fill="#c9afa6"/>
    <path d="M308.5,69.1c2.9,4.3,5.5,5.5,11.5,5.3,4-.2,6.7-2.1,8.3-5.9,1,1.1-.2,3.3-3.1,5.1-3,1.9-7.2,2.2-11,1.1-4.1-1.1-6.3-3.9-5.8-5.6Z" fill="#001319"/>
    <path d="M328.3,67.8v-.4c0,0,.1,.1,.2,.2,0,0,0,0-.2,.2h0Z" fill="#c9afa6"/>
    <path d="M328.2,67.7l.3,.4h-.1s0-.1-.2-.4h0Z" fill="#c9afa6"/>
    <path d="M327.5,108.6c1,2-.4,4.7-3.3,6.1-4.2,2-8.5,2-12.6,.2-2.8-1.2-4.8-4.3-3.9-6.1,.8,4.3,4.3,6.8,11.3,6.4,2.6-.1,4.8-.9,6.4-2.3,1.5-1.3,2.3-2.8,2.1-4.5h0Z" fill="#001319"/>
    <path d="M216.2,41.8c.6-.4,1.6-.4,2.2,0,.6,.4,.7,1,.1,1.4-.6,.4-1.7,.4-2.3,0-.6-.4-.6-1,0-1.4Z" fill="#331b17"/>
    <path d="M218.5,40.6c-.6,.4-1.6,.4-2.3,0-.6-.4-.7-1,0-1.4,.6-.4,1.7-.4,2.3,0,.6,.4,.6,1,0,1.4h0Z" fill="#331b17"/>
    <path d="M220.4,40.5c-.6-.4-.7-1-.1-1.4,.6-.4,1.6-.4,2.2,0,.7,.4,.8,1,.1,1.4-.6,.4-1.6,.4-2.3,0Z" fill="#331b17"/>
    <path d="M214.4,40.7c-.6,.4-1.6,.5-2.3,0-.7-.4-.8-1-.2-1.4,.6-.4,1.6-.5,2.2-.1,.7,.4,.8,1,.2,1.4Z" fill="#331b17"/>
    <path d="M218.5,37.9c-.6,.4-1.6,.4-2.3,0-.7-.4-.7-1,0-1.4,.6-.4,1.5-.5,2.2,0,.7,.4,.7,1,.1,1.4h0Z" fill="#331b17"/>
    <path d="M239.2,48.5c-.7-.4-.8-1.1-.1-1.6,.6-.5,1.9-.5,2.6,0,.7,.4,.7,1.2,0,1.6-.6,.4-1.8,.5-2.5,0h0Z" fill="#331b17"/>
    <path d="M245.8,45.7c-.6,.4-1.8,.5-2.5,0-.7-.4-.8-1.1-.2-1.6,.6-.5,1.9-.5,2.6,0,.7,.4,.7,1.1,0,1.6h0Z" fill="#331b17"/>
    <path d="M239.1,43.3c-.7-.4-.7-1.1,0-1.6s1.8-.5,2.5,0c.7,.4,.8,1.2,0,1.6-.7,.4-1.8,.5-2.5,0h0Z" fill="#331b17"/>
    <path d="M237.5,46c-.7,.5-1.7,.5-2.4,0-.7-.4-.8-1.1-.1-1.6,.7-.5,1.9-.5,2.6,0,.7,.4,.7,1.1,0,1.6Z" fill="#331b17"/>
    <path d="M181.7,22.9c-.3-2-1.6-3.6-4.1-4.8-1.7-.8-3.7-1.2-5.8-1.2-2.8,0-5.2,.7-7.2,2-2,1.3-2.7,2.9-2.6,4.8-1.1-1.1,0-3.8,1.7-5.1,3.3-2.6,8.8-3,12.6-1.7,3.9,1.3,5.9,3.8,5.4,6.1h0Z" fill="#b9c7c8"/>
    <path d="M181.7,23.6h0Z" fill="#f8f5f1"/>
    <path d="M143.6,12.4c-.6-1.2,0-2.3,.7-3.3,2.5-3.2,7.9-4.6,13.2-3.2,4,1,6,3.2,6.3,5.7,0,.2-.1,.3-.2,.5h0c-.5-1-.8-2-1.6-2.9-3.1-3.5-11.3-4.1-15.5-1.1-1.4,1-2.4,2.1-2.5,3.5,0,.3-.2,.6-.3,.9h0Z" fill="#b9c7c8"/>
    <path d="M163.6,12l.2,.5h-.4v-.5h.1Z" fill="#f8f5f1"/>
    <path d="M143.6,12.6h0c0,0,0,0,0,0,0,0,0,0,0,0h0Z" fill="#f8f5f1"/>
  </g>
  <g id="uuid-d9767778-5b5a-4d1f-a4a3-7f1b45f1c1c1">
    <g>
      <g>
        <path d="M30.5,13.8c0,.6-.2,1.1-.6,1.5l-6.8,6.8-7.2-4.2v-4.1c0-1.2,1-2.1,2.1-2.1s2.1,1,2.1,2.1h0v5.2l6.7-6.7c.8-.8,2.2-.8,3,0,.4,.4,.6,.9,.6,1.5h0Z" fill="#fff"/>
        <path d="M29.9,32.8c-.4,.4-.9,.6-1.5,.6s-.6,0-.8-.2c-.3-.1-.5-.3-.7-.5l-2.3-2.3-4.4-4.4v5.2c0,1.2-1,2.1-2.1,2.1s-2.1-1-2.1-2.1v-4.1l7.2-4.2,4.5,4.5,2.3,2.3c.8,.8,.8,2.2,0,3Z" fill="#fff"/>
        <path d="M22.8,22.4c0-.1-.1-.2-.2-.3,0,0,0,0,0,0l-1.8-1-4.9-2.8-4.1-2.4c-.2-.1-.5,0-.7,.2,0,0,0,.2,0,.2v12.5c0,.3,.2,.5,.5,.5s.2,0,.2,0l4.1-2.4,6.7-3.9s0,0,0,0c0,0,.1-.1,.1-.2,0-.1,0-.2,0-.3Zm-10.2-5l3.2,1.9,5.2,3c0,0,.1,0,.1,.1h0c0,.1,0,.2,0,.3,0,0,0,.2-.2,.2l-5.2,3-3.2,1.9c-.2,.1-.4,0-.5-.1,0,0,0-.1,0-.2v-9.7c0-.2,.2-.4,.4-.4s.1,0,.2,0Z" fill="#fff"/>
        <path d="M19.8,22.6c0,0,0,.1-.1,.2l-3.9,2.2-2.4,1.4c-.1,0-.3,0-.4-.1,0,0,0,0,0-.1v-7.3c0-.2,.1-.3,.3-.3s.1,0,.1,0l2.4,1.4,3.9,2.2c0,0,.1,0,.1,.2,0,0,0,.1,0,.2h0Z" fill="#fff"/>
      </g>
      <g>
        <path d="M65.6,22l-6-3-3.7-1.8c-.2-.1-.5,0-.6,.2,0,0,0,.1,0,.2v9.9c.1,.2,.4,.4,.6,.4,0,0,.1,0,.2,0h.2l3.4-1.9,2.1-1.1,3.8-2c0,0,.2-.1,.2-.2,0,0,0-.1,0-.2,0-.1-.1-.2-.2-.2Zm-6,3l-2.8,1.5c-.2,.1-.4,0-.5-.1,0,0,0,0,0-.1v-7.7c0-.2,0-.3,.3-.3,0,0,0,0,.1,0l2.8,1.4,1,.5,3.6,1.8c0,0,.1,0,.2,.2,0,0,0,.1,0,.2h0s0,0,0,0c0,0,0,.1-.1,.1l-4.6,2.4Z" fill="#fff"/>
        <path d="M63.1,22.5c0,0,0,.1-.1,.1l-3.4,1.8-2.1,1.1c-.1,0-.3,0-.3,0,0,0,0,0,0-.1v-5.8c0-.1,0-.2,.2-.2,0,0,0,0,0,0l2.1,1.1,3.5,1.8c0,0,0,0,.1,.1,0,0,0,0,0,.1h0Z" fill="#fff"/>
        <path d="M40,17.3h-5.2v10.4h2.6v-3.4h2.7c2.5,0,4.3-1.5,4.3-3.6,0-2-1.9-3.5-4.4-3.4Zm-.2,4.9h-2.4v-2.9h2.4c1.2,0,2.1,.5,2.1,1.4,0,.9-.8,1.5-2,1.5Z" fill="#fff"/>
        <polygon points="54.2 27.7 46 27.8 45.8 17.5 48.3 17.5 48.4 25.8 54.1 25.7 54.2 27.7" fill="#fff"/>
        <polygon points="71 23.8 71 27.5 68.5 27.5 68.5 23.8 63.9 17.3 66.8 17.3 69.7 21.8 72.6 17.2 75.4 17.2 71 23.8" fill="#fff"/>
        <polygon points="86.3 28 84.6 28 80.2 23.3 78.4 25 78.4 28.1 77.1 28.1 77 17.8 78.3 17.8 78.4 23.5 84.1 17.8 85.8 17.7 81.1 22.5 86.3 28" fill="#fff"/>
        <path d="M92.8,17.5c-3.2,0-5.9,2.5-5.8,5.4,0,2.9,2.8,5.3,6,5.3,3.2,0,5.8-2.5,5.8-5.4,0-2.9-2.8-5.3-5.9-5.2Zm.4,9.6c-2.5,.2-4.7-1.7-4.9-4.2,.1-2.3,1.9-4.1,4.2-4.3,2.5-.2,4.7,1.7,4.9,4.2-.1,2.3-1.9,4.1-4.2,4.3Z" fill="#fff"/>
        <path d="M108.9,25.1c0,1.6-1.3,3-4,3-1.7,0-3.3-.5-4.5-1.6l.8-.9c1,1,2.4,1.5,3.8,1.4,1.8,0,2.7-.9,2.7-1.8,0-1.1-1.1-1.5-3.1-1.9-2.3-.5-3.8-1.1-3.8-2.9,0-1.6,1.6-3,3.8-3,1.5,0,2.9,.5,4.1,1.4l-.8,.9c-.9-.8-2.1-1.3-3.3-1.3-1.4,0-2.4,.9-2.4,1.8,0,1.1,1.2,1.4,3.1,1.8,2.2,.4,3.8,1.1,3.8,2.9Z" fill="#fff"/>
        <polygon points="122.6 28 121.3 28 121.2 20.2 117 27.5 112.7 20.4 112.8 28.1 111.5 28.1 111.3 17.8 112.7 17.8 117 25 121.2 17.7 122.5 17.7 122.6 28" fill="#fff"/>
        <path d="M130.8,17.5c-3.2,0-5.9,2.5-5.8,5.4,0,2.9,2.8,5.3,6,5.3,3.2,0,5.9-2.5,5.8-5.4,0-2.9-2.8-5.3-5.9-5.2Zm.4,9.6c-2.5,.2-4.7-1.7-4.9-4.2,.1-2.3,1.9-4.1,4.2-4.3,2.5-.2,4.7,1.7,4.9,4.2-.1,2.3-1.9,4.1-4.2,4.3Z" fill="#fff"/>
        <path d="M147,25.1c0,1.6-1.3,3-4,3-1.7,0-3.3-.5-4.6-1.6l.8-.9c1,1,2.4,1.5,3.8,1.4,1.8,0,2.7-.9,2.6-1.8,0-1.1-1.1-1.5-3.1-1.9-2.3-.5-3.8-1.1-3.8-2.9,0-1.6,1.6-3,3.8-3,1.5,0,2.9,.5,4.1,1.4l-.8,.9c-.9-.8-2.1-1.3-3.3-1.3-1.4,0-2.4,.9-2.4,1.8,0,1.1,1.2,1.4,3.1,1.8,2.2,.4,3.8,1.1,3.8,2.9h0Z" fill="#fff"/>
      </g>
    </g>
  </g>
  <polygon points="334.6 264.7 334.6 335 250.8 335 334.6 264.7" fill="url(#uuid-1a9b159b-1dc6-4bed-8aef-3a47b23c2f51)"/>
  <g>
    <g>
      <path d="M68.8,306.4c0,.5,.2,1,.3,1.5,.1,.5,.2,1,.1,1.6,0,1.3-.4,2.5-1.2,3.4-.4,.5-.9,1-1.5,1.3-.7,.4-1.5,.8-2.2,1.2l-3.1,1.8c-.7,.4-1.4,.8-2,1.1-.5,.3-1,.5-1.4,.8-1.1,.6-2.2,1.1-3.4,1.3-.3,0-.7,.1-1,.1,0,0-.2,0-.3,0h0c.2-.6,.5-1.1,.7-1.6,.2-.5,.4-.9,.6-1.4,0,0,0,0,.1,.1,.3,.3,.8,.4,1.2,.5,0,0,.2,0,.3,0,0,0,.1,0,.2,0,.3,0,.6-.1,.9-.3,.4-.2,.7-.4,1.1-.6,.2-.1,.5-.3,.7-.4,.5-.3,.9-.5,1.4-.8,.3-.1,.5-.3,.8-.4,.5-.3,1-.6,1.5-.9,.5-.3,.9-.5,1.4-.8,.5-.3,1-.6,1.5-.8,.4-.2,.8-.5,1.1-.8,.5-.5,.9-1,1.2-1.7,.1-.4,.2-.7,.3-1.1,0-.3,0-.6,0-.9-.1-.5-.2-1.1-.3-1.7,0,0,0-.2-.1-.3,0,0-.2,0-.3,0-.2,0-.4,0-.5,0-.4,0-.8,.1-1.2,.1h-.3c0-.1,0-.2,0-.2-.6-.2-1.2-.1-1.7,.4h0c-.1,0-.3,0-.4,0-.1,0-.3,0-.4,0h-3.6c0,0-.2,0-.3,0-.2,0-.4,0-.6,0,0,0-.2,0-.2,0-.3,0-.6,0-.9,0l-.2-.2h0v-.2h-.1c0-.2-.2-.3-.3-.4h0c0,0,0-.1,0-.1-.6-.3-1.1-.3-1.7,0-.2,.1-.3,.2-.5,.4-.3,0-.5-.1-.8-.2-.5-.2-1-.3-1.5-.5-.2,0-.4-.2-.6-.2,0,0-.2-.1-.3,0,0,0,0,0,0,0-.2-.8-.4-1.5-.6-2.3,0-.4-.2-.7-.2-1.1,0-.5,0-1.1,.2-1.5,.2-.5,.6-.9,1.2-1.1,.4-.2,.8-.4,1.3-.5,.4-.2,.9-.4,1.3-.6,.4-.2,.8-.3,1.1-.5,.4-.2,.9-.4,1.3-.5,.2-.1,.5-.2,.8-.4,0,0,.2,0,.2,0,.2,0,.4-.2,.6-.3,.6-.3,1.2-.5,1.8-.8,1-.4,1.9-.8,2.9-1.2,.4-.2,.8-.3,1.2-.1,.2,0,.5,.2,.7,.4,.4,.3,.7,.8,.8,1.3,.1,.4,.2,.7,.3,1.1,0,.4,.2,.9,.3,1.3,0,.5,.2,1,.3,1.5,.2,.8,.3,1.5,.5,2.3,.2,.8,.3,1.6,.5,2.4,.1,.5,.2,1.1,.3,1.6,0,0,0,.2,0,.3,.2,0,.3,0,.4,0,.3,0,.5-.1,.8-.1h0Zm-13-3.4c0-.6-.2-1.2-.7-1.6-.5-.5-1.3-.6-2-.2-.3,.2-.6,.5-.8,.8-.3,.6-.4,1.1-.2,1.8,0,.3,.2,.5,.3,.8,.7,1,2,.9,2.7,.1,.4-.5,.6-1,.6-1.6Zm4.2-3.8c0,.4,0,.8,.3,1.1s.5,.6,.9,.8c.7,.2,1.3,0,1.8-.4,.8-.7,1-2,.3-3-.5-.8-1.5-1-2.3-.4-.6,.5-.9,1.1-.9,1.9Zm4.9,4.5c0-.5-.2-1-.5-1.4-.5-.6-1.5-.8-2.2-.3-1,.7-1.3,2.2-.6,3.2,.5,.7,1.5,1,2.4,.3,.5-.5,.8-1,.8-1.9h0Z" fill="#bdbdbd"/>
      <path d="M57.2,296.8c-.2,.2-.5,.2-.8,.4-.4,.2-.8,.4-1.3,.5-.4,.2-.8,.3-1.1,.5-.4,.2-.9,.4-1.3,.6-.4,.2-.8,.4-1.3,.5-.5,.2-.9,.6-1.2,1.1-.2,.5-.3,1-.2,1.5,0,.4,0,.7,.2,1.1,.2,.8,.4,1.5,.6,2.3,0,0,0,0,0,0,0,.1,0,.2,0,.3,0,.4,.2,.8,.3,1.1,0,.3,.2,.5,.2,.8,0,0-.1,0-.1,.2-.2,.5-.5,1.1-.7,1.6,0,0,0,.2-.1,.3,0,.2-.2,.5-.4,.7h-.2c0,0,0-.1,0-.2-.3-1-.5-2-.8-3,0-.3-.2-.6-.2-.9-.1-.5-.3-1-.4-1.5-.2-.7-.4-1.4-.7-2-.3-.6-.7-1.1-1.3-1.5-.4-.3-.9-.6-1.5-.6-.2,0-.5,0-.7-.1h-.6c-.2,0-.3,0-.5-.1-.2,0-.3,0-.5,0h-.7c-.3-.1-.7-.2-1-.2h0c-.2,0-.3,0-.5,0-.2,0-.3,0-.5,0h0c-.1,0-.3,0-.4,0-.2,0-.4,0-.6,0h-.7c-.1,0-.2,0-.3,0,0,0-.1,.2-.1,.3,0,.5,0,1,.2,1.4,0,0,0,0,0,.1,0,.3,.2,.5,.2,.8,0,.3,.2,.6,.3,.9,.2,.6,.4,1.3,.5,1.9l.9,3.1c.2,.7,.4,1.4,.6,2.1,.2,.9,.5,1.8,.8,2.6,0,.3,.2,.5,.2,.8,0,.1,0,.3,.1,.5,.1,.4,.3,.7,.6,1,.2,.4,.5,.6,.9,.9,.5,.4,1.1,.6,1.7,.8,.3,.1,.7,.2,1,.4,0,.1,0,.2,0,.3-.1,.3-.3,.6-.3,.9-.2,0-.4-.1-.6-.2-.8-.2-1.5-.7-2.1-1.1-.5-.3-1-.9-1.3-1.4-.3-.5-.5-.9-.6-1.4,0-.2-.1-.5-.2-.7-.2-.8-.5-1.5-.7-2.3-.3-.9-.5-1.9-.8-2.8-.2-.9-.5-1.8-.8-2.6-.2-.9-.5-1.7-.7-2.6-.2-.7-.4-1.4-.6-2.1,0-.3-.1-.6-.1-.9,0-.3,0-.5,0-.8,0-.5,.1-1.1,.3-1.6,.3-.6,.7-1.1,1.3-1.4,.5-.2,1-.4,1.5-.6,.6-.2,1.2-.5,1.8-.7,1.1-.5,2.2-.9,3.3-1.3,.7-.3,1.4-.6,2.1-.9,.9-.4,1.7-.7,2.6-1,.2,0,.5-.2,.7-.3,.7-.3,1.4-.5,2.1-.6,.8-.2,1.7-.1,2.5-.1h.1c.4,.1,.9,0,1.3,0,.2,0,.4,0,.6,0,0,0,.2,0,.2,0h1c.2,0,.4,0,.5,0,0,0,.2,0,.2,0h.8c0,0,.2,0,.2,0,.4,.1,.8,0,1.2,0,.1,0,.2,0,.3,0l-.2,.5h-1c0,0-.2,0-.2,0-.4-.1-.8,0-1.1,0-.1,0-.2,0-.3,0-.2,0-.4,0-.6,0h-1c0,0-.2,0-.3,0-.2,0-.3,0-.5,0h-.8c0,0-.2,0-.2,0-.2,0-.4,0-.6,0-.4,0-.8,0-1.2,0-.4,0-.9,0-1.3,.2-.6,.1-1.2,.2-1.7,.4-.8,.2-1.6,.6-2.3,.9-.4,.2-.8,.3-1.2,.5-.6,.2-1.2,.5-1.8,.7-.8,.3-1.5,.6-2.3,.9-.6,.2-1.2,.5-1.8,.7-.6,.3-1.3,.5-1.9,.8-.2,0-.4,.2-.5,.4,0,.2,.2,.3,.4,.3,.4,0,.9,.1,1.3,.2,.3,0,.5,0,.8,0,.3,0,.6,0,.9,.1,.2,0,.5,0,.8,0,.3,0,.7,0,1,.1,.2,0,.5,0,.7,0,.1,0,.3,0,.4,0h1.8c0,0,.2,0,.3,0,.1,0,.3,0,.4,0,.2,0,.4,0,.6,0,.2,0,.3,0,.5,0,.2,0,.3,0,.5,0,.5,0,1-.2,1.4-.3,.5-.1,1.1-.4,1.6-.6,.7-.3,1.4-.6,2.1-.9s.9-.4,1.4-.6l1.1-.5c.3-.1,.7-.3,1-.5,.2,0,.5-.2,.7-.3,0,0,0,.2,0,.3-.3,.7-.6,1.4-1,2,0,.1,0,.2,0,.3h0Z" fill="#e6e6e6"/>
      <path d="M68.8,306.4c-.3,0-.5,0-.8,.1-.1,0-.3,0-.4,0,0,0,0-.2,0-.3-.1-.5-.2-1.1-.3-1.6-.2-.8-.3-1.6-.5-2.4-.2-.8-.3-1.5-.5-2.3-.1-.5-.2-1-.3-1.5,0-.4-.2-.9-.3-1.3,0-.4-.2-.7-.3-1.1-.2-.5-.4-.9-.8-1.3-.2-.2-.4-.3-.7-.4,0,0,0-.1,0-.1,0,0,.1-.1,.1-.2,.1-.3,.2-.6,.4-.9,0-.1,.1-.3,.2-.4,0-.2,.2-.2,.4-.2,.3,.2,.5,.6,.8,.9,.4,.7,.7,1.5,.9,2.3,.2,.8,.3,1.6,.5,2.5,.2,1,.4,2,.6,3,.2,1.1,.5,2.3,.7,3.4,.1,.5,.2,1,.3,1.6,0,0,0,.1,0,.1h0Z" fill="#cbcbcb"/>
      <path d="M54.4,317.4c-.2,.5-.4,.9-.6,1.4-.2,.5-.5,1-.7,1.6h0c0,.2,.2,.1,.3,.1,0,0,0,0-.1,0-.4,0-.8,0-1.3,0-.7,0-1.4-.2-2.1-.5,0,0,0,0-.1,0,0-.2,0-.4,0-.6,0-.2,.2-.5,.2-.7,.2,0,.4,.1,.7,.2,.2,0,.5,0,.7,0,.1,0,.3,0,.3-.2,.1-.2,.2-.4,.2-.6,0-.2,0-.4,0-.6l-.6-2.1c0-.2-.1-.4-.1-.7,.2,0,.2-.1,.3-.2,.3-.7,.6-1.4,1-2.1,0,0,0-.2,0-.3,0,0,0-.1,.2-.2,0,.1,.1,.2,.1,.4,.1,.4,.2,.8,.3,1.2,.2,.8,.4,1.6,.6,2.4,0,.3,.1,.5,.3,.8,.1,.2,.2,.4,.4,.5h0Z" fill="#cbcbcb"/>
      <path d="M65.1,292.6c-.2,0-.3,0-.4,.2,0,.1-.1,.3-.2,.4-.1,.3-.2,.6-.4,.9,0,0,0,.1-.2,.2h0c-.4,0-.8,.1-1.2,.3-1,.4-1.9,.8-2.9,1.2-.6,.2-1.2,.5-1.8,.8-.2,0-.4,.2-.6,.3,0,0-.1,0-.2,0,0-.1,0-.2,0-.3,.3-.7,.6-1.4,1-2,0,0,0-.2,0-.3,.3-.1,.7-.3,1-.5,.6-.2,1.2-.5,1.8-.7,.5-.2,.9-.4,1.4-.6,.1,0,.2-.1,.3-.2,.1,0,0-.3,0-.3,0,0-.2,0-.3,0-.2,0-.4,0-.6,0-.1,0-.3,0-.4,0l.2-.5c.4,0,.7,0,1.1,0h0c.3,0,.6,.1,.8,.2,.6,.2,1.1,.5,1.5,1h0Z" fill="#d4d4d4"/>
      <path d="M50.1,318.8c0,.3,0,.5-.2,.7,0,.2-.1,.4,0,.6l-1.2-.4c-1.2-.4-2.3-.8-3.5-1.1,0-.3,.2-.6,.3-.9,0-.1,.1-.2,0-.3,.1,0,.3,0,.4,0,.8,.3,1.7,.6,2.5,.9,.5,.2,1,.4,1.6,.5h0Z" fill="#d4d4d4"/>
      <path d="M62.7,291.3h0Z" fill="#e6e6e6"/>
      <path d="M54.4,317.4c-.1-.2-.3-.4-.4-.5-.2-.2-.2-.5-.3-.8-.2-.8-.4-1.6-.6-2.4-.1-.4-.2-.8-.3-1.2,0-.1,0-.3-.1-.4,0,0,0-.1,0-.2,0-.4-.2-.8-.3-1.2-.2-.9-.5-1.8-.7-2.6,0-.2,0-.4-.2-.6,0-.3-.1-.5-.2-.8,0-.4-.2-.8-.3-1.1,0,0,0-.2,0-.3,.1-.1,.2,0,.3,0,.2,0,.4,.2,.6,.2,.5,.2,1,.4,1.5,.5,.3,0,.5,.1,.8,.2h0c0,.1-.1,.2-.2,.3-.5,.8-.5,1.9,0,2.7,.2,.3,.5,.5,.8,.6,.7,.2,1.3,0,1.8-.4,.5-.5,.7-1,.8-1.7,0-.3,0-.6-.1-.9,.3,0,.6,0,.9,0,0,0,.2,0,.2,0,.2,0,.4,0,.6,0,0,0,.2,0,.3,0h3.6c.1,0,.3,0,.4,0,.1,0,.3,0,.4,0h0c-.5,.6-.7,1.3-.6,2,0,.5,.3,.9,.6,1.2,.4,.4,.9,.5,1.5,.4,.6-.2,1-.6,1.2-1.1,.3-.6,.3-1.1,.1-1.7-.1-.4-.4-.8-.7-1,.4,0,.8,0,1.2-.1,.2,0,.4,0,.5,0,0,0,.2,0,.3,0,0,.1,0,.2,.1,.3,.1,.6,.2,1.1,.3,1.7,0,.3,.1,.6,0,.9,0,.4-.1,.7-.3,1.1-.3,.7-.7,1.2-1.2,1.7-.3,.3-.7,.6-1.1,.8-.5,.3-1,.6-1.5,.8-.5,.3-.9,.5-1.4,.8-.5,.3-1,.6-1.5,.9-.3,.1-.5,.3-.8,.4-.5,.3-.9,.5-1.4,.8-.2,.1-.5,.3-.7,.4-.4,.2-.7,.4-1.1,.6-.3,.1-.6,.2-.9,.3,0,0-.1,0-.2,0,0,0-.2,0-.3,0-.5,0-.9-.1-1.2-.5,0,0,0,0-.1-.1h0Zm4.3-4.7c0-.5-.1-1-.4-1.4-.4-.6-1-.8-1.7-.6-.4,.1-.8,.4-1,.7-.4,.5-.5,1-.5,1.6,0,.6,.2,1.2,.7,1.6,.3,.3,.6,.4,1,.4,.6,0,1-.2,1.4-.7,.4-.5,.6-1,.6-1.6h0Z" fill="#b2b2b2"/>
      <path d="M55.9,302.9c0,.6-.2,1.2-.6,1.6-.7,.8-1.9,.9-2.7-.1-.2-.2-.3-.5-.3-.8-.1-.6,0-1.2,.2-1.8,.2-.3,.5-.6,.8-.8,.6-.4,1.4-.3,2,.2,.5,.4,.7,1,.7,1.6Z" fill="#3c3c3c"/>
      <path d="M60,299.1c0-.8,.3-1.4,.9-1.9,.8-.6,1.8-.4,2.3,.4,.7,.9,.5,2.3-.3,3-.5,.5-1.1,.6-1.8,.4-.4-.1-.7-.4-.9-.8-.2-.3-.3-.7-.3-1.1Z" fill="#3c3c3c"/>
      <path d="M65,303.6c0,.8-.3,1.4-.8,1.9-.9,.7-1.9,.4-2.4-.3-.7-1-.5-2.5,.6-3.2,.7-.5,1.6-.4,2.2,.3,.3,.4,.5,.9,.5,1.4h0Z" fill="#3c3c3c"/>
      <path d="M65.6,306.8c.3,.3,.6,.6,.7,1,.2,.6,.2,1.2-.1,1.7-.3,.5-.6,.9-1.2,1.1-.6,.1-1.1,0-1.5-.4-.4-.3-.6-.8-.6-1.2,0-.7,0-1.4,.6-2h.1c.4-.1,.9-.1,1.3-.2,.2,0,.3,0,.4-.2h.3Z" fill="#1a1a1a"/>
      <path d="M57.1,307c0,.3,.2,.6,.1,.9,0,.7-.2,1.2-.8,1.7-.5,.5-1.1,.6-1.8,.4-.3-.1-.6-.3-.8-.6-.5-.8-.6-1.9,0-2.7,0,0,.1-.1,.2-.2,.2,0,.3,0,.5,0,.7,.2,1.3,.3,2,.4,0,0,.1,0,.1-.1s0-.1-.1-.2c0,0,0,0,0,0,0,0,0,0,0,0h0v.2h.1l.2,.4h0Z" fill="#1a1a1a"/>
      <path d="M56.8,306.4s0,0,0,0c0,0,0,0,0,0,0,0,0,.1,.1,.2,0,0,0,.2-.1,.1-.7-.1-1.3-.2-2-.4-.2,0-.3,0-.5,0h0c.2-.2,.3-.3,.5-.4,.6-.3,1.1-.3,1.7,0,0,0,0,0,0,0,0,0-.1,0-.1,0,0,0,0,0,.1,0,0,0,0,0,0,0,.1,0,.2,.2,.3,.3h0Zm-1-.5h0s0,0,0,0c0,0,0,0,0,0h0Z" fill="#3c3c3c"/>
      <path d="M65.3,306.7c0,.2-.3,.2-.4,.2-.4,0-.9,0-1.3,0,.5-.5,1-.6,1.7-.4,0,0,0,0,0,0h0Z" fill="#3c3c3c"/>
      <path d="M56.5,306.1s0,0,0,0c0,0-.1,0-.1,0,0,0,0,0,.1,0h0Z" fill="#1a1a1a"/>
      <path d="M57,306.7h0Z" fill="#3c3c3c"/>
      <path d="M56.9,306.6h0Z" fill="#3c3c3c"/>
      <path d="M65.5,306.8h0Z" fill="#3c3c3c"/>
      <path d="M39.8,299.8c.2,0,.3,0,.5,0,.2,0,.3,0,.5,0h0c.3,0,.7,.1,1,.1h.7c.2,.1,.3,.1,.5,.2,.2,0,.3,0,.5,0h.6c.2,.1,.5,.2,.7,.2,.5,0,1,.3,1.5,.6,.6,.4,.9,1,1.3,1.5,.3,.6,.5,1.3,.7,2,.1,.5,.3,1,.4,1.5,0,.3,.2,.6,.2,.9-.2,0-.2,0-.3,.2-.2,.5-.5,.8-.8,1.2-.2,.3-.4,.6-.7,.8-.2,.2-.4,.4-.6,.6-.2,.2-.5,.5-.7,.6-.3,.2-.6,.5-1,.7-.2,.1-.4,.3-.6,.3-.2,0-.3-.1-.5-.2-.2,0-.3-.1-.5-.1-.3,0-.5,.1-.6,.4,0,0,0,.2,0,.3,0,.2,0,.4,0,.6-.2,0-.3,0-.4,0-.4,.1-.7,.3-1.1,.4-.2-.9-.5-1.8-.8-2.6-.2-.7-.4-1.4-.6-2.1l-.9-3.1c-.2-.6-.4-1.3-.5-1.9,0-.3-.2-.6-.3-.9,0-.3-.2-.5-.2-.8,0,0,0,0,0-.1-.2-.4-.2-.9-.2-1.4,0-.1,0-.2,.1-.3,0,0,.2-.1,.3-.1h.7c.2,0,.4,0,.6,.1,.1,0,.3,0,.4,0h0Zm7.1,6.5c0-.1,0-.3,0-.4-.2-.8-.6-1.5-1.2-2.1-.2-.2-.5-.4-.7-.5-.2-.1-.4-.2-.7-.3-.5,0-.8,.1-.9,.6,0,.2,0,.5,0,.8,.2,1.1,.9,2,1.8,2.6,.2,.2,.5,.3,.8,.3,.4,0,.8-.1,.9-.5,0-.1,0-.3,0-.4h0Z" fill="#bdbdbd"/>
      <path d="M41.1,312.9c.4,0,.8-.2,1.1-.4,.1,0,.3,0,.4,0s0,0,0,0c0,.1,0,.2,0,.4,.3,.9,.8,1.6,1.5,2.2,.1,.1,.3,.2,.4,.2,.2,0,.3,.2,.5,.2,.5,0,.8-.2,.9-.7,0-.2,0-.5,0-.7-.2-1-.8-1.8-1.6-2.4,0,0,0,0-.1,0,0,0,0,0,0,0,.2,0,.4-.2,.6-.3,.3-.2,.7-.4,1-.7,.3-.2,.5-.4,.7-.6,.2-.2,.4-.4,.6-.6,.2-.2,.5-.5,.7-.8,.3-.4,.6-.8,.8-1.2,0-.1,.1-.2,.3-.2,.3,1,.5,2,.8,3,0,0,0,.1,0,.2h0c.2,.7,.3,1.3,.5,1.9,.1,.5,.3,.9,.4,1.4,0,.4,.2,.7,.3,1.1,0,.1,0,.2,.1,.3,0,.2,0,.5,.1,.7,.2,.7,.4,1.4,.6,2.1,0,.2,0,.4,0,.6,0,.2,0,.4-.2,.6,0,.1-.2,.2-.3,.2-.2,0-.5,0-.7,0-.2,0-.4-.1-.7-.2-.5-.2-1-.4-1.6-.5-.8-.3-1.7-.6-2.5-.9-.1,0-.3,0-.4,0-.3-.1-.7-.2-1-.4-.6-.2-1.2-.5-1.7-.8-.3-.3-.7-.5-.9-.9-.2-.3-.5-.7-.6-1,0-.1,0-.3-.1-.5,0-.3-.2-.5-.2-.8h0Z" fill="#b2b2b2"/>
      <path d="M61.4,291.7c.1,0,.3,0,.4,0,.2,0,.4,0,.6,0,.1,0,.2,0,.3,0,.1,0,.2,.2,0,.3,0,0-.2,.2-.3,.2-.5,.2-.9,.4-1.4,.6-.6,.2-1.2,.5-1.8,.7-.3,.1-.7,.3-1,.5-.2,0-.5,.2-.7,.3-.3,.1-.7,.3-1,.5l-1.1,.5c-.5,.2-.9,.4-1.4,.6-.7,.3-1.4,.6-2.1,.9-.5,.2-1,.5-1.6,.6-.5,.1-.9,.3-1.4,.3-.2,0-.3,0-.5,0-.2,0-.3,0-.5,0,0,0,0-.2,0-.2,0-.2,0-.4,0-.5,0,0,.2,0,.2,0,0,0,0,0,.2,0h.1c0,0,.2,0,.3,0h.1c0,0,.1,0,.2,0h.4c0,0,.1,0,.2-.1h0c0,0,.1,0,.2,0,.1,0,.2,0,.3-.1,.2-.1,.5-.2,.8-.4,0,0,.2-.1,.3-.2,0-.1,0-.2,0-.3-.1,0-.2,0-.4,0-.5,0-.9,0-1.3,.2-.4,.1-.9,.3-1.3,.4-.2-.1-.2-.3-.2-.4v-1.9c0-.2,0-.5,.1-.7,0,0,0-.1,0-.2,.8-.3,1.5-.6,2.3-.9,.6-.2,1.1-.3,1.7-.4,.4,0,.9-.1,1.3-.2,.4,0,.8,0,1.2,0,.2,0,.4,0,.6,0,0,0,.2,0,.2,0h.8c.2,0,.3,0,.5,0,0,0,.2,0,.3,0h1c.2,0,.4,0,.6,0,0,0,.2,0,.3,0,.4,0,.8,0,1.1,0,0,0,.2,0,.2,0h1Zm-11.9,2.2s0,0,.1,0h.5s0,0,.1,0h.2c0,0,.2,0,.3,0,0,0,.2,0,.3,0,.5-.1,.9-.2,1.3-.5,.2-.1,.4-.2,.6-.4,0,0,.2-.1,.2-.2,0,0,0-.2,0-.2,0,0-.2,0-.3,0-.2,0-.3,0-.4,0-.9,.1-1.7,.3-2.5,.7-.2,0-.3,.2-.5,.3,0,0-.2,.1-.2,.3,0,.1,.2,.1,.2,.2h0Zm5.4,0c0,.1,.1,.1,.2,.2,.1,0,.2,0,.3,0,.4,0,.8,0,1.2-.1,.6-.1,1.2-.3,1.7-.6,.2-.1,.3-.2,.5-.4,.1-.1,0-.2,0-.3,0,0-.2,0-.2,0-.2,0-.4,0-.5,0-.8,.1-1.5,.3-2.3,.6-.2,0-.4,.2-.5,.3-.1,0-.2,.2-.2,.3h0Z" fill="#f4f4f4"/>
      <path d="M48.1,293c0,0,0,.1,0,.2-.1,.2-.1,.5-.1,.7v1.9c0,.2,0,.3,.2,.4-.2,0-.3,.2-.5,.3-.1,0-.2,.2-.3,.3,0,.1,0,.2,0,.3,0,0,.2,0,.3,0h.7s0,0-.2,0c0,0-.2,0-.2,0,0,.2,0,.4,0,.5,0,0,0,.2,0,.2-.2,0-.4,0-.6,0-.2,0-.3,0-.4,0,0,0-.2,0-.3,0h-1.8c-.1,0-.3,0-.4,0-.2,0-.5,0-.7,0-.3,0-.7,0-1-.1-.2,0-.5,0-.8,0-.3,0-.6,0-.9-.1-.3,0-.5,0-.8,0-.4,0-.9-.1-1.3-.2-.2,0-.3-.1-.4-.3,0-.2,.3-.3,.5-.4,.6-.3,1.3-.5,1.9-.8,.6-.2,1.2-.5,1.8-.7,.8-.3,1.5-.6,2.3-.9,.6-.2,1.2-.5,1.8-.7,.4-.2,.8-.3,1.2-.5h0Zm-5.2,3.7c.5,0,.9-.1,1.3-.2,.6-.1,1.1-.3,1.6-.6,.2,0,.3-.2,.4-.3,.1-.1,0-.2,0-.3-.2,0-.4,0-.6,0-.9,0-1.7,.3-2.5,.7-.2,0-.3,.2-.5,.3,0,0-.2,.1-.2,.2,0,.1,0,.2,0,.3,.2,0,.3,0,.4,0h0Z" fill="#f0f0f0"/>
      <path d="M51.2,315c0-.1-.1-.2-.1-.3,0-.4-.2-.7-.3-1.1-.1-.5-.3-.9-.4-1.4-.2-.6-.3-1.2-.5-1.8h.2c.2-.3,.3-.6,.4-.8,0,0,0-.2,.1-.3,.2-.5,.5-1,.7-1.6,0,0,0-.1,.1-.2,.2,.2,.2,.4,.2,.6,.2,.9,.5,1.8,.7,2.6,0,.4,.2,.8,.3,1.2,0,0,0,.1,0,.2,0,0-.1,.1-.2,.2s0,.2,0,.3c-.3,.7-.6,1.4-1,2.1,0,.1-.1,.2-.3,.2h0Z" fill="#d4d4d4"/>
      <path d="M38.7,299.6h0Z" fill="#d4d4d4"/>
      <path d="M39.8,299.8h0Z" fill="#d4d4d4"/>
      <path d="M40.9,299.9h0Z" fill="#d4d4d4"/>
      <path d="M42,300.1h0Z" fill="#d4d4d4"/>
      <path d="M42.6,300.1h0Z" fill="#d4d4d4"/>
      <path d="M43.7,300.3h0Z" fill="#d4d4d4"/>
      <path d="M58.7,312.8c0,.6-.2,1.1-.6,1.6-.4,.4-.8,.7-1.4,.7s-.7-.1-1-.4c-.5-.4-.7-1-.7-1.6,0-.6,.2-1.1,.5-1.6,.3-.3,.6-.6,1-.7,.7-.2,1.3,0,1.7,.6,.3,.4,.4,.9,.4,1.4h0Z" fill="#1a1a1a"/>
      <path d="M55.7,305.9h0s0,0,0,0c0,0,0,0,0,0h0Z" fill="#1a1a1a"/>
      <path d="M47,306.2c0,.1,0,.2,0,.4-.1,.4-.5,.6-.9,.5-.3,0-.5-.1-.8-.3-.9-.6-1.5-1.5-1.8-2.6,0-.2,0-.5,0-.8,.1-.4,.5-.6,.9-.6,.2,0,.5,.1,.7,.3,.2,.2,.5,.3,.7,.5,.6,.6,1,1.3,1.2,2.1,0,.1,0,.3,0,.4h0Z" fill="#3c3c3c"/>
      <path d="M44.4,311.5s0,0,0,0c-.1,0-.3,.1-.4,.2-.4,.2-.8,.4-1.2,.5,0,0-.1,0-.2,.2,0,0,0,0,0,0,0-.2,0-.4,0-.6,0,0,0-.2,0-.3,.1-.2,.3-.4,.6-.4s.4,0,.5,.1c.2,0,.3,.1,.5,.2h0Z" fill="#3c3c3c"/>
      <path d="M42.7,312.5c0,0,0-.1,.2-.2,.4-.1,.8-.3,1.2-.5,.1,0,.3-.1,.4-.2,0,0,0,0,.1,0,.8,.6,1.3,1.4,1.6,2.4,0,.2,0,.5,0,.7,0,.5-.4,.8-.9,.7-.2,0-.4,0-.5-.2-.1,0-.3-.2-.4-.2-.7-.6-1.3-1.3-1.5-2.2,0-.1,0-.2,0-.4h0Z" fill="#1a1a1a"/>
      <path d="M54.8,294c0-.2,.1-.3,.2-.3,.2-.1,.3-.2,.5-.3,.7-.3,1.5-.5,2.3-.6,.2,0,.4,0,.5,0,0,0,.2,0,.2,0,.1,0,.2,.2,0,.3-.2,.1-.3,.3-.5,.4-.5,.3-1.1,.5-1.7,.6-.4,0-.8,.2-1.2,.1-.1,0-.2,0-.3,0,0,0-.2,0-.2-.2h0Z" fill="#3c3c3c"/>
      <path d="M48.4,297.1c-.2,0-.4,0-.7,0-.1,0-.2,0-.3,0-.1,0-.2-.2,0-.3,0-.1,.2-.2,.3-.3,.2-.1,.3-.2,.5-.3,.4-.1,.9-.3,1.3-.4,.4-.1,.9-.2,1.3-.2,.1,0,.2,0,.4,0,.1,0,.2,.2,0,.3,0,0-.2,.2-.3,.2-.2,.1-.5,.2-.8,.4h-.3l-.2,.2h-.5v.2h-.4c0,0-.2,0-.3,.1h-.1Z" fill="#3c3c3c"/>
      <path d="M50.4,293.9h-1c0,0-.2,0-.2-.2,0-.1,0-.2,.2-.3,.2-.1,.3-.2,.5-.3,.8-.4,1.6-.6,2.5-.7,.1,0,.3,0,.4,0,.1,0,.2,0,.3,0,0,0,.1,.2,0,.2,0,0-.1,.1-.2,.2-.2,.1-.4,.2-.6,.4-.4,.2-.9,.3-1.3,.5,0,0-.2,0-.3,0,0,0-.2,0-.3,0h0Z" fill="#3c3c3c"/>
      <path d="M49.4,293.9h.8s0,0-.1,0h-.5s0,0-.1,0h0Z" fill="#f0f0f0"/>
      <path d="M48.5,297c0,0,.2,0,.3,0,0,0-.2,0-.3,0Z" fill="#f0f0f0"/>
      <path d="M50.4,293.9c0,0,.2,0,.3,0,0,0-.2,0-.3,0Z" fill="#f0f0f0"/>
      <path d="M49.7,296.8h.2s0,0-.2,0Z" fill="#f0f0f0"/>
      <path d="M49.5,296.8h.2s-.1,0-.2,0Z" fill="#f0f0f0"/>
      <path d="M49.2,296.9h0Z" fill="#f0f0f0"/>
      <path d="M48.9,297h.2s-.1,0-.2,0Z" fill="#f0f0f0"/>
      <path d="M43,296.7c0,0-.2,0-.4,0-.1,0-.2-.2,0-.3,0,0,.2-.2,.2-.2,.2-.1,.3-.2,.5-.3,.8-.4,1.6-.6,2.5-.7,.2,0,.4,0,.6,0,.1,0,.2,.2,0,.3-.1,.1-.3,.2-.4,.3-.5,.3-1.1,.5-1.6,.6-.4,.1-.8,.2-1.3,.2h0Z" fill="#3c3c3c"/>
    </g>
    <g>
      <path d="M24.4,300.2c-.3-.2-.5-.4-.8-.6-.5-.4-1-.8-1.4-1.1-.3-.3-.6-.5-1-.8-.3-.2-.6-.5-.9-.7-.2-.2-.4-.4-.6-.5-.3-.2-.6-.5-.9-.7-.4-.3-.7-.6-1-.9-.3-.2-.6-.5-.9-.7-.2-.2-.4-.3-.6-.5s-.4-.3-.6-.5c0,0-.1-.1-.2-.2l-.7-.7c-.5-.5-.9-1-1.2-1.6-.1-.2-.2-.4-.2-.6-.3-.8-.6-1.7-.9-2.5l-1-2.9c0-.2-.2-.4-.2-.6s-.1-.4-.1-.7c0,0,0-.1,0-.2,0,0,0-.1,0-.2,0-.8,.2-1.5,.6-2.1,.2-.2,.4-.5,.7-.7,0,0,.1,0,.1-.1,.4-.4,.9-.8,1.3-1.2,.3-.3,.7-.6,1-.9,0,0,0,0,0,0,.4-.3,.7-.7,1.1-1,.4-.4,.8-.7,1.1-1.1,.3-.2,.5-.5,.8-.7,.4-.3,.7-.7,1.1-1,0,0,0,0,0,0,.4-.4,.9-.8,1.3-1.2,.4-.3,.8-.8,1.2-1.1,0,0,0,0,0,0,.4-.4,.8-.8,1.2-1.1,.3-.3,.7-.6,1-.9,0,0,.2-.1,.3-.2v1c0,.1,0,.2,0,.4,0,0,0,.2-.1,.2-.1,0-.2,.1-.3,.2-.4,.4-.8,.7-1.1,1.1,0,0,0,0,0,0-.2,.1-.4,.3-.5,.5-.2,.2-.4,.3-.6,.5-.4,.4-.9,.8-1.3,1.2,0,0,0,0,0,0-.2,.1-.4,.4-.6,.6s-.4,.4-.6,.6c-.4,.4-.9,.8-1.3,1.2,0,0,0,0,0,0-.3,.3-.6,.5-.9,.8-.5,.5-1.1,1-1.6,1.5-.3,.3-.6,.6-.9,.8-.3,.2-.4,.5-.6,.9-.2,.3-.2,.6-.2,1,0,.5,.2,.8,.6,1.1,.1,.1,.3,.2,.4,.3,.6,.4,1.1,.9,1.7,1.3,.8,.6,1.6,1.2,2.3,1.8,.3,.2,.5,.4,.8,.6,.3,.2,.6,.5,.9,.7,.5,.4,1,.7,1.4,1.1,.6,.5,1.2,1,1.9,1.4,.5,.4,.9,.8,1.5,1,0,0,0,0,0,0,0,.2,0,.4,0,.6v2.8c0,.1,0,.3-.1,.4,0,0,0,0,0-.1-.2-.4-.4-.7-.6-1.1-.3-.5-.7-1-1.1-1.5-.3-.3-.6-.6-.9-.9-.3-.2-.6-.4-.8-.6-1.6-1.2-3.3-2.5-4.9-3.7-1.1-.8-2.2-1.7-3.3-2.5,0,0-.2-.1-.3-.1h0c-.1,.2,0,.3,0,.4,.1,.4,.3,.8,.4,1.2l.9,2.4c.2,.7,.5,1.4,.7,2,0,.1,.1,.3,.2,.4,.4,.7,.9,1.2,1.4,1.8,.3,.3,.6,.6,1,.8,.4,.3,.7,.6,1.1,.9,.4,.3,.8,.6,1.2,1l1.4,1.1c.5,.4,.9,.8,1.4,1.1,.4,.3,.7,.6,1,.9,.2,.2,.5,.4,.7,.6,0,0,.1,.1,.2,.2,.2,.1,.4,.3,.6,.4v.7h0Z" fill="#e6e6e6"/>
      <path d="M39.6,277c.4,.2,.6,.5,.9,.8,.9,1.1,1.4,2.4,1.7,3.8,0,.5,.2,1,.2,1.5,0,.3,0,.6,.1,.9,0,.2,0,.5,0,.8,0,.5,0,1,.2,1.6,0,.5,.2,1.1,.2,1.6,0,.6,.1,1.1,0,1.7,0,.5-.2,1-.4,1.4-.2,.5-.5,1-.9,1.3-.5,.5-1,1-1.6,1.4,0,0,0,0,0,0l-1.3,1.2c-.6,.5-1.2,1-1.7,1.6-.5,.5-1,.9-1.5,1.4-.1,.1-.3,.2-.4,.3-.2,.1-.3,.3-.5,.4-.2,.3-.5,.5-.8,.8-.2,0-.3,0-.4-.2,0,0-.2-.1-.3-.1,0,0,0-.1,.1-.2,.1-.1,.2-.2,.3-.3,.4-.4,.8-.8,1.2-1.1,0,0,0,0,0,0,.4-.2,.6-.6,1-.9,.2-.2,.5-.4,.7-.6,.3-.2,.6-.5,.9-.8,.2-.2,.4-.4,.7-.6,.3-.2,.5-.5,.8-.8,.2-.2,.5-.4,.7-.6,.5-.4,.9-.8,1.4-1.3,.4-.4,.7-.8,.9-1.3,.2-.4,.3-.8,.2-1.2,0-.3,0-.5-.1-.8,0-.2,0-.4,0-.6,0-.3,0-.5,0-.8,0-.3,0-.6-.1-.9,0-.3,0-.5,0-.8,0-.3,0-.5-.1-.8,0-.2,0-.4,0-.5,0-.4,0-.7-.1-1,0-.3,0-.5,0-.8,0-.3-.1-.7-.3-1,0-.2-.3-.3-.5-.3-.2,0-.4,0-.6,.2-.2,.1-.3,.2-.4,.3-.3,.3-.6,.6-1,.9-.3,.3-.6,.6-1,.9-.4,.3-.7,.7-1,1-.3,.2-.5,.6-.9,.8-.5,.5-1,.9-1.5,1.4-.4,.4-.8,.8-1.2,1.2,0,0,0,0,0,0,0-.1,0-.2,0-.4v-1.9c0-.2,.3-.3,.4-.4,.3-.3,.6-.6,1-.9,.4-.4,.8-.8,1.2-1.1,.4-.3,.7-.7,1.1-1,.6-.5,1.2-1.1,1.8-1.7,.5-.5,.6-1.1,.5-1.7,0-.4-.2-.7-.4-1,0,0,0,0,0-.1,.2,0,.3-.2,.4-.2,.2,0,.3-.1,.4-.2,.2-.1,.3-.2,.5-.2h0Z" fill="#bdbdbd"/>
      <path d="M24.5,294.9c.1-.1,.1-.2,.1-.4v-2.8c0-.2,0-.4,0-.6,.4,0,.7,0,1.1,0,.4,0,.8,0,1.1-.3,.2-.1,.4-.3,.6-.5,.2-.2,.5-.5,.7-.7,.1-.1,.2-.2,.4-.3v1.7c0,0,0,.2,0,.2,0,.1,0,.3,0,.4,0,0,0,.1-.1,.2-.2,.2-.4,.5-.6,.8-.3,.5-.5,1.1-.5,1.7s0,.5,.1,.8c.3,.8,.6,1.7,.9,2.5,0,0,0,.2,0,.3-.1,0-.1,.2,0,.3,0,.2,0,.4,0,.5v3.9c-.6,0-1.2-.3-1.8-.6-.4-.3-.8-.6-1.2-.9-.4-.3-.7-.6-1.1-.9v-.7c.2,.1,.4,.3,.6,.5,.3,.2,.5,.5,.9,.5s.3,0,.4-.2c0-.1,0-.3,0-.5-.2-.5-.3-1-.5-1.5-.2-.7-.4-1.5-.7-2.2-.2-.4-.3-.8-.5-1.2h0Z" fill="#d4d4d4"/>
      <path d="M39.6,277c-.2,0-.3,0-.5,.2-.1,0-.3,.2-.4,.2-.2,0-.2,.2-.4,.2-.1,0-.2-.2-.3-.2-1.7-1.1-3.4-2.3-5.1-3.5-.5-.3-.9-.6-1.4-.9,0-.1,0-.3,0-.4,0-.2,0-.4,0-.6,0-.1,0-.3,.2-.4,.1,0,.2,.1,.3,.2,.6,.4,1.3,.9,1.9,1.3,1.7,1.1,3.4,2.3,5.1,3.4,.2,.1,.4,.3,.7,.5h0Z" fill="#cbcbcb"/>
      <path d="M31.6,271.6c-.1,0-.2,.2-.2,.4,0,.2,0,.4,0,.6,0,.1,0,.3,0,.4,0,0-.2-.1-.3-.2-1-.6-1.9-1.3-2.9-2-.3-.2-.6-.4-.9-.6-.7-.4-1.5-.5-2.2-.2-.3,.1-.5,.2-.7,.5,0,0-.2,.2-.3,.2,0-.1,0-.2,0-.4v-1c.4-.3,.9-.4,1.4-.5,0,0,.2,0,.2,0,.1,0,.3,0,.4,0,0,0,.1,0,.1,0,.6,0,1.2,.2,1.8,.5,0,0,0,0,0,0,.3,.3,.7,.4,1,.6s.7,.5,1,.7c.5,.3,.9,.6,1.4,.9,0,0,.1,.1,.2,.1h0Z" fill="#d4d4d4"/>
      <path d="M28.4,302.7v-3.9c0-.2,0-.4,0-.5,0-.1,0-.2,0-.3,0,.1,.1,.2,.1,.3,.2,.5,.4,1.1,.5,1.6,.1,.5,.5,.8,.9,1.1,.2,.1,.5,.2,.8,.2,.5,0,.8-.3,1.2-.6,.4-.4,.8-.7,1.2-1.1,0,0,0,0,0,0,.1,0,.2,0,.3,.1,0,.1,.2,.2,.4,.2,0,.1-.2,.2-.3,.3-.2,.2-.4,.4-.6,.6-.6,.5-1.1,1.1-1.7,1.5-.5,.3-1,.5-1.5,.7,0,0-.2,0-.3,0h0c-.3,0-.6,0-1,0h0Z" fill="#cbcbcb"/>
      <path d="M29.4,302.7h0Z" fill="#d4d4d4"/>
      <path d="M24.1,270.7c.1,0,.2-.1,.3-.2,.2-.2,.5-.4,.7-.5,.8-.3,1.5-.2,2.2,.2,.3,.2,.6,.4,.9,.6,1,.6,1.9,1.3,2.9,2,0,0,.2,.1,.3,.2l1.4,.9c1.7,1.1,3.4,2.3,5.1,3.5,.1,0,.2,.2,.3,.2,0,0,0,0,0,.1,.2,.3,.3,.7,.4,1,0,.6,0,1.2-.5,1.7-.6,.6-1.2,1.2-1.8,1.7-.4,.3-.7,.7-1.1,1-.4,.4-.8,.8-1.2,1.1-.3,.3-.7,.6-1,.9-.1,.1-.3,.2-.4,.4,0,0,0,0-.2,.1-.3,.3-.6,.6-1,.9-.6,.6-1.3,1.2-1.9,1.8,0,0-.1,.2-.2,.2-.3,.2-.5,.5-.8,.8-.1,0-.3,.2-.4,.3-.2,.2-.5,.5-.7,.7-.2,.2-.4,.4-.6,.5-.3,.2-.7,.3-1.1,.3,0-.1,0-.3,0-.5v-2.3c0-.1,0-.2,0-.3h.4c0-.2,.2-.2,.3-.2,.4-.1,.7-.3,1-.5,.8-.7,.8-1.8,0-2.5-.4-.3-.8-.5-1.3-.6h-.4v-.9c0-.3,0-.5,0-.8h.4c.1-.2,.2-.2,.3-.2,.5-.1,.9-.3,1.2-.6,.2-.2,.4-.5,.4-.8,.1-.6,0-1.1-.4-1.5-.2-.2-.4-.4-.7-.5-.7-.3-1.3-.4-2-.2-.4,.1-.8,.3-1.1,.6-.2,.3-.4,.6-.5,.9,0,.2,0,.4,0,.6h0c0,.2,0,.3,0,.3h0c0,.3-.2,.3-.3,.3,0,0-.1,0-.2,0-.2-.1-.3-.1-.5-.1h-.5c-.2,0-.4,0-.6,0,0-.3,0-.6-.3-.9-.3-.4-.7-.7-1.1-.9-.2,0-.5-.1-.7-.2-.2,0-.3,0-.6,0-.5,0-1,.2-1.4,.5,0,0-.1,0-.1,0,0-.1,0-.2,0-.4v-1.9c0-.1,0-.2,0-.3,0-.1,0-.3,0-.4,0,0,0,0,0,0,.4-.4,.9-.8,1.3-1.2,.2-.2,.4-.4,.6-.6s.4-.4,.6-.6c0,0,0,0,0,0,.4-.4,.9-.8,1.3-1.2,.2-.2,.4-.3,.6-.5,.2-.2,.3-.4,.5-.5,0,0,0,0,0,0,.4-.4,.8-.7,1.1-1.1,0,0,.2-.2,.3-.2,0,0,.1-.1,.1-.2h0Zm6.7,9.6c0,.2,.2,.3,.3,.4,.9,.7,2.4,.8,3.3,0,.3-.2,.5-.5,.6-.8,.1-.3,.2-.6,0-.9,0-.2,0-.4-.2-.5-.2-.3-.4-.5-.6-.6-.4-.2-.8-.4-1.2-.4-.7,0-1.4,.1-1.9,.5-.2,.2-.5,.5-.6,.8-.2,.5-.2,1.1,.2,1.5h0Zm-4.6-3.5c.4,0,.8,0,1.2-.2,.4-.2,.6-.4,.9-.7,.4-.6,.4-1.4,0-1.9-.2-.2-.4-.4-.7-.6-.9-.5-1.8-.5-2.7,0-.3,.2-.6,.4-.8,.7-.3,.6-.3,1.1,0,1.7,.2,.3,.5,.6,.8,.7,.4,.2,.8,.3,1.3,.3h0Z" fill="#f4f4f4"/>
      <path d="M21.6,281.2c.2,0,.4,0,.6,0h.5c.2,0,.4,0,.5,.1,0,0,.1,0,.2,0,.1,0,.3,0,.3-.1h0c.4,.6,1,.9,1.7,1,.2,0,.5,0,.8,0h-.4c0,.4,0,.7,0,.9v.8c-.2,0-.3,0-.5,0-.3,0-.6,.1-.9,.2-.3,.2-.6,.4-.8,.7-.3,.4-.4,.8-.2,1.3,0,.4,.3,.6,.5,.9,.4,.4,.9,.6,1.5,.6,.2,0,.5,0,.7,0h-.4c0,.2,0,.3,0,.4v2.3c0,.2,0,.3,0,.5-.4,0-.7,0-1.1,0,0,0,0,0,0,0-.6-.2-1-.6-1.5-1-.6-.5-1.3-1-1.9-1.4-.5-.4-1-.7-1.4-1.1-.3-.2-.6-.5-.9-.7-.3-.2-.5-.4-.8-.6-.8-.6-1.5-1.2-2.3-1.8-.6-.4-1.1-.9-1.7-1.3-.1-.1-.3-.2-.4-.3-.4-.3-.6-.6-.6-1.1,0-.4,0-.7,.2-1,.2-.3,.3-.6,.6-.9,.3-.2,.6-.6,.9-.8,.5-.5,1.1-1,1.6-1.5,.3-.3,.6-.5,.9-.8,0,.1,0,.3,0,.4,0,.1,0,.2,0,.3v1.9c0,.1,0,.2,0,.4,0,0,0,0,.1,0,0,0-.1,.2-.2,.2-.2,.3-.4,.6-.4,.9,0,.4,0,.8,.3,1.2,.2,.3,.5,.5,.9,.7,.7,.3,1.5,.4,2.2,0,.6-.2,1.1-.7,1.2-1.4,0,0,0-.1,0-.2h0v-.2Z" fill="#f0f0f0"/>
      <path d="M24.5,294.9c.2,.4,.3,.8,.5,1.2,.3,.7,.5,1.4,.7,2.2,.2,.5,.3,1,.5,1.5,0,.2,0,.3,0,.5,0,.1-.2,.2-.4,.2-.4,0-.6-.3-.9-.5l-.6-.5c-.2-.1-.3-.3-.6-.4,0,0-.1-.1-.2-.2-.2-.2-.5-.4-.7-.6-.4-.3-.7-.6-1-.9-.5-.4-.9-.7-1.4-1.1l-1.4-1.1c-.4-.3-.8-.6-1.2-1-.4-.3-.7-.6-1.1-.9-.3-.3-.7-.5-1-.8-.5-.5-1.1-1.1-1.4-1.8,0-.1-.1-.2-.2-.4-.2-.7-.5-1.4-.7-2l-.9-2.4c-.1-.4-.3-.8-.4-1.2,0-.1,0-.2,0-.3h0c.1,0,.2,0,.3,0,1.1,.8,2.2,1.7,3.3,2.5,1.6,1.2,3.3,2.5,4.9,3.7,.3,.2,.6,.4,.8,.6,.3,.3,.6,.6,.9,.9,.4,.5,.8,1,1.1,1.5,.2,.4,.4,.7,.6,1.1,0,0,0,0,0,.1h0Zm-1.8-1.5s0-.1,0-.2c0-.2-.1-.3-.2-.5-.4-.5-.8-1-1.4-1.4-.1-.1-.3-.2-.5-.3,0,0-.1,0-.2,0-.1,0-.3,0-.3,.2,0,.1,0,.2,0,.3,.4,.9,1.1,1.6,2,2,0,0,.2,0,.3,0,.2,0,.3,0,.3-.3h0Zm-7.5-2.5c0,.1,0,.2,.1,.5,.4,.8,1,1.4,1.7,1.8,.1,0,.3,.1,.4,.2,.2,0,.3,0,.3-.3,0,0,0-.1,0-.2,0-.2-.1-.3-.2-.5-.3-.4-.6-.8-1-1.1-.2-.2-.4-.3-.6-.4-.1,0-.2-.1-.3-.1-.2,0-.3,0-.3,.2h0Zm4.9,2.2s0-.1,0-.2c0-.2-.1-.3-.2-.5-.3-.5-.8-1-1.3-1.3-.1-.1-.3-.2-.4-.2,0,0-.1,0-.2,0-.2,0-.3,0-.3,.3,0,0,0,.1,0,.2,0,.2,.1,.3,.2,.5,.4,.5,.8,1,1.4,1.4,.2,.1,.4,.2,.6,.3,.2,0,.3,0,.3-.3h0Z" fill="#b2b2b2"/>
      <path d="M12.4,284.3h0Z" fill="#d4d4d4"/>
      <path d="M33.2,299.3s0,0,0,0c-.4,.4-.8,.7-1.2,1.1-.3,.3-.7,.5-1.2,.6-.3,0-.5,0-.8-.2-.4-.2-.7-.6-.9-1.1-.2-.5-.4-1.1-.5-1.6,0-.1-.1-.2-.1-.3,0-.1,0-.2,0-.3-.3-.8-.6-1.7-.9-2.5,0-.2-.1-.5-.1-.8,0-.6,.2-1.2,.5-1.7,.2-.3,.4-.5,.6-.8,0,0,0-.1,.1-.2,.1-.1,.2-.2,.4-.3,.2-.2,.5-.4,.7-.6,.3-.3,.6-.6,1-.9,.5-.5,1.1-1,1.6-1.5,.2-.1,.3-.3,.5-.4,0,0,0,0,0,0,.4-.4,.8-.8,1.2-1.2,.5-.5,1-.9,1.5-1.4,.3-.2,.6-.5,.9-.8,.4-.3,.7-.7,1-1,.3-.3,.6-.6,1-.9,.3-.3,.7-.6,1-.9,.1-.1,.3-.2,.4-.3,.2-.1,.4-.2,.6-.2,.2,0,.4,.1,.5,.3,.2,.3,.3,.6,.3,1,0,.3,0,.5,0,.8,0,.4,.1,.7,.1,1,0,.2,0,.4,0,.5,0,.3,0,.5,.1,.8,0,.3,0,.5,0,.8,0,.3,0,.6,.1,.9,0,.3,0,.5,0,.8,0,.2,0,.4,0,.6,0,.3,0,.5,.1,.8,0,.4,0,.8-.2,1.2-.2,.5-.5,1-.9,1.3-.4,.4-.9,.9-1.4,1.3-.2,.2-.5,.4-.7,.6-.3,.2-.5,.5-.8,.8-.2,.2-.4,.4-.7,.6-.3,.2-.6,.5-.9,.8-.2,.2-.5,.5-.7,.6-.4,.3-.6,.6-1,.9,0,0,0,0,0,0-.4,.4-.8,.8-1.2,1.1-.1,.1-.2,.2-.3,.3,0,0,0,.1-.1,.2h0Zm.3-6.4c0,.5,.2,.7,.7,.7,0,0,.1,0,.2,0,.3,0,.5-.2,.7-.3,.8-.5,1.3-1.2,1.8-2,0-.2,.2-.4,.2-.6,0-.1,0-.3,0-.5,0-.3-.2-.4-.5-.5-.2,0-.3,0-.5,0-.2,0-.4,.1-.5,.2-.8,.5-1.5,1.2-1.9,2.1-.1,.3-.2,.5-.2,.8h0Z" fill="#b2b2b2"/>
      <path d="M32.8,287.9c-.2,.1-.3,.3-.5,.4-.5,.5-1,1-1.6,1.5-.3,.3-.6,.6-1,.9-.2,.2-.5,.4-.7,.6-.1,.1-.2,.2-.4,.3,0-.1,0-.2,0-.4,0,0,0-.1,0-.2v-1.7c.2-.3,.5-.5,.8-.8,0,0,.2-.1,.2-.2,.6-.6,1.2-1.2,1.9-1.8,.3-.3,.6-.6,1-.9,0,0,0,0,.2-.1v1.9c0,.1,0,.3,0,.4h0Z" fill="#cbcbcb"/>
      <path d="M26.2,288c-.2,0-.5,0-.7,0-.6,0-1.1-.2-1.5-.6-.3-.2-.5-.5-.5-.9-.1-.5,0-.9,.2-1.3,.2-.3,.5-.5,.8-.7,.3-.1,.6-.2,.9-.2,.2,0,.3,0,.5,0h.4c.5,.1,.9,.3,1.3,.6,.8,.7,.8,1.8,0,2.5-.3,.3-.6,.4-1,.5,0,0-.2,0-.3,0h0Z" fill="#1a1a1a"/>
      <path d="M26.1,276.8c-.5,0-.9-.1-1.3-.3-.3-.2-.6-.4-.8-.7-.3-.5-.3-1.1,0-1.7,.2-.3,.4-.6,.8-.7,.9-.5,1.8-.5,2.7,0,.3,.1,.5,.3,.7,.6,.4,.5,.5,1.3,0,1.9-.2,.3-.5,.5-.9,.7-.4,.2-.8,.2-1.2,.2h0Z" fill="#3c3c3c"/>
      <path d="M23.5,281c0-.2,0-.4,0-.6,0-.4,.2-.7,.5-.9,.3-.3,.6-.5,1.1-.6,.7-.2,1.4-.1,2,.2,.3,.1,.5,.3,.7,.5,.4,.4,.5,.9,.4,1.5-.1,0-.3,0-.4,0-.2,0-.5,0-.8,.1-.3,0-.6,0-.9,.1-.4,0-.8,.1-1.2,0,0,0,0,0-.1,0-.1,0-.3,0-.4,0h-.8v-.2h0v-.2h0Z" fill="#3c3c3c"/>
      <path d="M30.8,280.3c-.4-.5-.4-1-.2-1.5,.1-.3,.3-.5,.6-.8,.6-.5,1.2-.6,1.9-.5,.4,0,.9,.2,1.2,.4,.2,.2,.5,.4,.6,.6,0,.2,.2,.3,.2,.5-.4,.1-.8,.3-1.2,.4-.7,.2-1.5,.5-2.2,.7-.3,0-.6,.2-.9,.2h0Z" fill="#3c3c3c"/>
      <path d="M21.6,281.2h0c0,.1,0,.2,0,.2-.1,0-.3,0-.4,0-.2,0-.5,0-.7,0-.5,0-1-.1-1.5,0,0,0,0,0-.1,0-.1,0-.3,0-.4,0-.3,0-.6,0-.9-.1-.2,0-.4,0-.6,0,0-.4,.2-.7,.4-.9,0,0,.1-.2,.2-.2,.4-.3,.9-.5,1.4-.5h.6c.2,0,.5,.1,.7,.2,.5,.2,.9,.5,1.1,.9,.2,.3,.2,.6,.3,.9h0Z" fill="#3c3c3c"/>
      <path d="M30.8,280.3c.3,0,.6,0,.9-.2,.7-.2,1.5-.4,2.2-.7,.4-.1,.8-.3,1.2-.4,.1,.3,0,.6,0,.9-.1,.3-.3,.6-.6,.8-.9,.7-2.4,.7-3.3,0-.1-.1-.3-.2-.3-.4h0Z" fill="#1a1a1a"/>
      <path d="M23.8,281.3h.7c.1,0,.3,0,.4,0,0,0,0,0,.1,0,.4,0,.8,0,1.2,0,.3,0,.6,0,.9-.1,.2,0,.5,0,.8-.1,.1,0,.3,0,.4,0,0,.3-.2,.6-.4,.8-.3,.3-.7,.5-1.2,.6-.1,0-.2,0-.3,0-.2,0-.5,0-.8,0-.7-.1-1.3-.4-1.7-1h0Z" fill="#1a1a1a"/>
      <path d="M19.6,279.3h-.6c.2,0,.4,0,.6,0Z" fill="#f0f0f0"/>
      <path d="M23.5,281h0Z" fill="#cbcbcb"/>
      <path d="M23.6,281.1h0c0,.1,0,0,0,0Z" fill="#bdbdbd"/>
      <path d="M23.8,281.3h0Z" fill="#bdbdbd"/>
      <path d="M16.9,281c.2,0,.4,0,.6,0,.3,0,.6,0,.9,.1,.1,0,.3,0,.4,0,0,0,0,0,.1,0,.5,0,1,.1,1.5,0,.2,0,.5,0,.7,0,.1,0,.3,0,.4,0h0c-.2,.8-.6,1.3-1.2,1.5-.8,.3-1.5,.3-2.2,0-.3-.1-.6-.4-.9-.7-.2-.4-.4-.7-.3-1.2h0Z" fill="#1a1a1a"/>
      <path d="M21.6,281.5h0c0-.1,0-.1,0-.2,0,0,0,.1,0,.2h0Z" fill="#cbcbcb"/>
      <path d="M22.8,293.4c0,.2-.1,.3-.3,.3-.1,0-.2,0-.3,0-.9-.5-1.5-1.1-2-2,0,0,0-.2,0-.3,0-.1,.1-.3,.3-.2,0,0,.1,0,.2,0,.2,0,.3,.1,.5,.3,.5,.4,1,.8,1.4,1.4,.1,.1,.2,.3,.2,.5,0,0,0,.2,0,.2h0Z" fill="#1a1a1a"/>
      <path d="M15.3,290.9c0-.2,.1-.3,.3-.2,.1,0,.2,0,.3,.1,.2,.1,.4,.3,.6,.4,.4,.3,.7,.7,1,1.1,.1,.1,.2,.3,.2,.5,0,0,0,.1,0,.2,0,.2-.1,.3-.3,.3-.1,0-.3,0-.4-.2-.7-.4-1.3-1-1.7-1.8-.1-.2-.1-.3-.1-.5h0Z" fill="#1a1a1a"/>
      <path d="M20.2,293.1c0,.2-.1,.3-.3,.3-.2,0-.4-.1-.6-.3-.5-.4-1-.8-1.4-1.4-.1-.1-.2-.3-.2-.5,0,0,0-.1,0-.2,0-.2,.1-.3,.3-.3,0,0,.1,0,.2,0,.1,0,.3,.2,.4,.2,.5,.4,.9,.8,1.3,1.3,.1,.1,.2,.3,.2,.5,0,0,0,.2,0,.2h0Z" fill="#1a1a1a"/>
      <path d="M33.5,292.8c0-.3,0-.5,.2-.8,.4-.9,1.1-1.6,1.9-2.1,.2-.1,.3-.2,.5-.2,.2,0,.3,0,.5,0,.3,0,.5,.2,.5,.5,0,.1,0,.3,0,.5,0,.2-.1,.4-.2,.6-.4,.8-1,1.5-1.8,2-.2,.1-.5,.3-.7,.3,0,0-.1,0-.2,0-.5,0-.7-.2-.7-.7h0Z" fill="#1a1a1a"/>
    </g>
  </g>
  <g>
    <g>
      <path d="M249.1,43.5l.2,.8c0,.3,0,.6,0,.9,0,.7-.2,1.4-.7,2-.2,.3-.5,.5-.9,.7-.4,.2-.8,.5-1.3,.7l-1.8,1c-.4,.2-.8,.4-1.2,.7-.3,.2-.6,.3-.8,.5-.6,.3-1.3,.6-2,.8-.2,0-.4,0-.6,0,0,0-.1,0-.1,0h0c.1-.3,.3-.6,.4-.9,.1-.3,.2-.5,.3-.8,0,0,0,0,0,0,.2,.2,.4,.2,.7,.3,0,0,.1,0,.2,0,0,0,0,0,.1,0,.2,0,.4,0,.5-.2,.2-.1,.4-.2,.6-.3,.1,0,.3-.2,.4-.2,.3-.2,.5-.3,.8-.5,.1,0,.3-.2,.5-.3,.3-.2,.6-.3,.9-.5,.3-.2,.5-.3,.8-.4,.3-.2,.6-.3,.8-.5,.2-.1,.4-.3,.6-.5,.3-.3,.5-.6,.7-1,0-.2,.1-.4,.1-.6,0-.2,0-.4,0-.5,0-.3-.1-.6-.2-1,0,0,0,0,0-.2,0,0-.1,0-.2,0-.1,0-.2,0-.3,0-.2,0-.4,0-.7,0h-.1c0,0,0,0,0-.1-.4-.1-.7,0-1,.2h0c0,0-.2,0-.2,0,0,0-.1,0-.2,0h-2.2c-.1,0-.2,0-.3,0s-.1,0-.1,0c-.2,0-.3,0-.5,0h0v-.2h-.1c0-.2,0-.2-.2-.3h0s0,0,0,0c-.3-.2-.7-.2-1,0-.1,0-.2,.1-.3,.2-.1,0-.3,0-.5-.1-.3,0-.6-.2-.9-.3-.1,0-.2,0-.4-.2,0,0-.1,0-.2,0,0,0,0,0,0,0l-.4-1.3c0-.2,0-.4-.1-.6,0-.3,0-.6,.1-.9,.1-.3,.4-.5,.7-.6,.2,0,.5-.2,.7-.3,.2-.1,.5-.2,.8-.3,.2,0,.4-.2,.7-.3,.2,0,.5-.2,.7-.3,.1,0,.3-.1,.4-.2,0,0,0,0,.1,0,.1,0,.2,0,.4-.2,.3-.2,.7-.3,1-.4,.6-.2,1.1-.5,1.7-.7,.2,0,.4-.2,.7,0,.1,0,.3,0,.4,.2,.2,.2,.4,.4,.5,.7,0,.2,.1,.4,.2,.6,0,.2,.1,.5,.1,.7,0,.3,.1,.6,.2,.9,.1,.4,.2,.9,.3,1.3,.1,.5,.2,.9,.3,1.4,0,.3,.1,.6,.2,.9,0,0,0,0,0,.2,0,0,.2,0,.2,0,.1,0,.3,0,.5,0h0Zm-7.5-2c0-.4-.1-.7-.4-.9-.3-.3-.8-.3-1.1-.1-.2,.1-.3,.3-.4,.5-.2,.3-.2,.7-.1,1,0,.2,.1,.3,.2,.4,.4,.6,1.2,.5,1.6,0,.2-.3,.4-.6,.4-.9Zm2.4-2.2c0,.2,0,.5,.2,.7s.3,.4,.5,.4c.4,.1,.7,0,1-.2,.4-.4,.6-1.2,.2-1.7-.3-.4-.9-.6-1.4-.2-.3,.3-.5,.6-.5,1.1h0Zm2.9,2.6c0-.3-.1-.6-.3-.8-.3-.4-.8-.4-1.2-.2-.6,.4-.7,1.3-.3,1.8,.3,.4,.9,.6,1.4,.2,.3-.3,.5-.6,.5-1.1h0Z" fill="#bdbdbd"/>
      <path d="M242.4,38c-.1,0-.3,.1-.4,.2-.2,.1-.5,.2-.7,.3-.2,0-.4,.2-.7,.3-.2,.1-.5,.2-.8,.3-.2,0-.5,.2-.7,.3-.3,.1-.5,.3-.7,.6-.1,.3-.2,.6-.1,.9,0,.2,0,.4,.1,.6,.1,.4,.2,.9,.4,1.3,0,0,0,0,0,0,0,0,0,.1,0,.2,0,.2,.1,.4,.2,.7,0,.2,.1,.3,.1,.5,0,0,0,0,0,0-.1,.3-.3,.6-.4,.9,0,0,0,0,0,.2,0,.1-.1,.3-.2,.4h-.1s0,0,0,0c-.2-.6-.3-1.2-.5-1.8,0-.2,0-.3-.1-.5,0-.3-.2-.6-.2-.9-.1-.4-.2-.8-.4-1.1-.2-.3-.4-.7-.7-.9-.2-.2-.5-.3-.8-.4-.1,0-.3,0-.4,0h-.4c-.1,0-.2,0-.3,0-.1,0-.2,0-.3,0h-.4c-.2,0-.4-.1-.6-.1h0c-.1,0-.2,0-.3,0-.1,0-.2,0-.3,0h0c0,0-.2,0-.2,0-.1,0-.2,0-.3,0h-.4c0,0-.1,0-.1,0,0,0,0,0,0,.2,0,.3,0,.5,.1,.8,0,0,0,0,0,0,0,.2,0,.3,.1,.5,0,.2,.1,.3,.2,.5,.1,.4,.2,.7,.3,1.1,.2,.6,.3,1.2,.5,1.8,.1,.4,.2,.8,.4,1.2,.1,.5,.3,1,.4,1.5,0,.2,0,.3,.1,.5,0,0,0,.2,0,.3,0,.2,.2,.4,.3,.6,.1,.2,.3,.4,.5,.5,.3,.2,.6,.4,1,.5,.2,0,.4,.1,.6,.2,0,0,0,.1,0,.2,0,.2-.1,.3-.2,.5-.1,0-.2,0-.3-.1-.4-.1-.8-.4-1.2-.7-.3-.2-.6-.5-.8-.8-.2-.3-.3-.5-.4-.8,0-.1,0-.3-.1-.4-.1-.4-.3-.9-.4-1.3-.1-.5-.3-1.1-.5-1.6-.1-.5-.3-1-.4-1.5-.1-.5-.3-1-.4-1.5-.1-.4-.2-.8-.3-1.2,0-.2,0-.3,0-.5,0-.2,0-.3,0-.5,0-.3,0-.6,.2-.9,.2-.3,.4-.7,.8-.8,.3-.1,.6-.2,.9-.4,.4-.1,.7-.3,1.1-.4,.6-.3,1.3-.5,1.9-.8,.4-.2,.8-.3,1.2-.5,.5-.2,1-.4,1.5-.6,.1,0,.3-.1,.4-.2,.4-.2,.8-.3,1.2-.3,.5,0,1,0,1.4,0h0c.3,0,.5,0,.8,0,.1,0,.2,0,.3,0,0,0,.1,0,.1,0h.6c.1,0,.2,0,.3,0,0,0,.1,0,.1,0h.6c.2,0,.5,0,.7,0,0,0,.1,0,.2,0v.3h-.8c-.2,0-.4,0-.6,0h-.2c-.1,0-.2,0-.4,0h-.6c0,0-.1,0-.2,0-.1,0-.2,0-.3,0h-.6c-.1,0-.2,0-.3,0-.2,0-.5,0-.7,0-.2,0-.5,0-.8,0-.3,0-.7,.1-1,.2-.5,.1-.9,.3-1.4,.5-.2,0-.5,.2-.7,.3-.3,.1-.7,.3-1,.4-.4,.2-.9,.3-1.3,.5-.4,.1-.7,.3-1.1,.4-.4,.2-.7,.3-1.1,.5-.1,0-.2,0-.3,.2,0,0,.1,.2,.2,.2,.2,0,.5,0,.7,.1,.1,0,.3,0,.5,0,.2,0,.4,0,.5,0,.1,0,.3,0,.4,0,.2,0,.4,0,.6,0,.1,0,.3,0,.4,0,0,0,.1,0,.2,0h1c0,0,.1,0,.2,0,0,0,.2,0,.2,0s.2,0,.3,0c.1,0,.2,0,.3,0,0,0,.2,0,.3,0,.3,0,.6-.1,.8-.2,.3,0,.6-.2,.9-.3l1.2-.5c.3-.1,.5-.2,.8-.3,.2,0,.4-.2,.6-.3,.2,0,.4-.2,.6-.3l.4-.2s0,.1,0,.2c-.2,.4-.4,.8-.6,1.2,0,0,0,.1,0,.2h0Z" fill="#e6e6e6"/>
      <path d="M249.1,43.5c-.2,0-.3,0-.5,0,0,0-.1,0-.2,0v-.2c-.1-.3-.2-.6-.2-.9,0-.5-.2-.9-.3-1.4-.1-.4-.2-.9-.3-1.3,0-.3-.1-.6-.2-.9,0-.2-.1-.5-.1-.7,0-.2-.1-.4-.2-.6,0-.3-.2-.5-.5-.7-.1,0-.2-.2-.4-.2,0,0,0,0,0,0,0,0,0,0,0-.1,0-.2,.1-.3,.2-.5,0,0,0-.2,.1-.2,0,0,.1-.1,.2-.1,.2,.1,.3,.3,.4,.5,.2,.4,.4,.9,.5,1.3s.2,1,.3,1.4c.1,.6,.2,1.1,.4,1.7,.1,.7,.3,1.3,.4,2,0,.3,.1,.6,.2,.9h0Z" fill="#cbcbcb"/>
      <path d="M240.8,49.9c0,.3-.2,.5-.3,.8-.1,.3-.3,.6-.4,.9h0c0,.1,.1,0,.1,0,0,0,0,0,0,0-.2,0-.5,0-.7,0-.4,0-.8-.1-1.2-.3,0,0,0,0,0,0,0-.1,0-.2,0-.3,0-.1,.1-.3,.1-.4,.1,0,.2,0,.4,.1,.1,0,.3,0,.4,0s.2,0,.2,0c0,0,.1-.2,.1-.3,0-.1,0-.2,0-.3-.1-.4-.2-.8-.3-1.2,0-.1,0-.2,0-.4,0,0,.1,0,.2-.1,.2-.4,.4-.8,.6-1.2,0,0,0,0,0-.2,0,0,0,0,0-.1,0,0,0,.1,0,.2,0,.2,.1,.5,.2,.7,.1,.5,.2,.9,.4,1.4,0,.2,0,.3,.2,.5,0,.1,.1,.2,.2,.3h0Z" fill="#cbcbcb"/>
      <path d="M246.9,35.6c-.1,0-.2,0-.2,.1,0,0,0,.2-.1,.2,0,.2-.1,.3-.2,.5,0,0,0,0,0,.1,0,0,0,0,0,0-.2,0-.5,0-.7,0-.6,.2-1.1,.5-1.7,.7-.3,.2-.7,.3-1,.4-.1,0-.2,0-.4,.2,0,0,0,0-.1,0,0,0,0-.1,0-.2,.2-.4,.4-.8,.6-1.2,0,0,0-.1,0-.2,.2,0,.4-.2,.6-.3,.3-.1,.7-.3,1-.4,.3-.1,.5-.2,.8-.4,0,0,.1,0,.2-.1,0,0,0-.2,0-.2,0,0-.1,0-.2,0-.1,0-.2,0-.4,0,0,0-.1,0-.2,0v-.3h.8c.2,0,.3,0,.5,.1,.3,.1,.6,.3,.9,.6,0,0,0,0,0,0h0Z" fill="#d4d4d4"/>
      <path d="M238.3,50.7c0,.2,0,.3-.1,.4,0,.1,0,.2,0,.3-.2,0-.4-.2-.7-.2-.7-.2-1.3-.4-2-.7,0-.2,.1-.3,.2-.5,0,0,0-.1,0-.2,0,0,.1,0,.2,0,.5,.2,1,.3,1.5,.5l.9,.3h0Z" fill="#d4d4d4"/>
      <path d="M245.6,34.9h0Z" fill="#e6e6e6"/>
      <path d="M240.8,49.9c0,0-.1-.2-.2-.3,0-.1-.1-.3-.2-.5-.1-.5-.2-.9-.4-1.4,0-.2-.1-.5-.2-.7,0,0,0-.2,0-.2,0,0,0,0,0-.1,0-.2-.1-.5-.2-.7-.1-.5-.3-1-.4-1.5,0-.1,0-.2-.1-.3,0-.2,0-.3-.1-.5,0-.2-.1-.4-.2-.7,0,0,0-.1,0-.2,0,0,.1,0,.2,0,.1,0,.2,.1,.4,.2,.3,0,.6,.2,.9,.3,.1,0,.3,0,.5,.1h0c0,0,0,.1-.1,.2-.3,.5-.3,1.1,0,1.5,.1,.2,.3,.3,.4,.3,.4,.1,.7,0,1-.2,.3-.3,.4-.6,.4-1,0-.2,0-.4,0-.5,.2,0,.3,0,.5,0,0,0,.1,0,.1,0,.1,0,.2,0,.3,0,0,0,.1,0,.2,0h2.1c0,0,.1,0,.2,0s.2,0,.2,0c0,0,0,0,0,0-.3,.3-.4,.7-.4,1.1,0,.3,.1,.5,.4,.7,.2,.2,.5,.3,.9,.2,.4,0,.6-.3,.7-.6,.2-.3,.2-.7,0-1,0-.2-.2-.4-.4-.6,.2,0,.4,0,.7,0,.1,0,.2,0,.3,0,0,0,.1,0,.2,0,0,0,0,.1,0,.2,0,.3,.1,.7,.2,1,0,.2,0,.4,0,.5,0,.2,0,.4-.1,.6-.1,.4-.4,.7-.7,1-.2,.2-.4,.3-.6,.5-.3,.2-.6,.3-.8,.5-.3,.2-.5,.3-.8,.4-.3,.2-.6,.3-.9,.5-.1,0-.3,.2-.5,.3-.3,.2-.5,.3-.8,.5-.1,0-.3,.2-.4,.2-.2,.1-.4,.2-.6,.3-.2,0-.3,.1-.5,.2,0,0,0,0-.1,0,0,0-.1,0-.2,0-.3,0-.5,0-.7-.3,0,0,0,0,0,0h0Zm2.5-2.7c0-.3,0-.6-.3-.8-.3-.3-.6-.5-1-.4-.2,0-.4,.2-.6,.4-.2,.3-.3,.6-.3,.9,0,.4,.1,.7,.4,.9,.2,.2,.4,.2,.6,.2,.3,0,.6-.1,.8-.4,.2-.3,.3-.6,.3-.9h0Z" fill="#b2b2b2"/>
      <path d="M241.6,41.5c0,.4-.1,.7-.4,.9-.4,.5-1.1,.5-1.6,0-.1-.1-.2-.3-.2-.4,0-.4,0-.7,.1-1,.1-.2,.3-.3,.4-.5,.4-.2,.8-.2,1.1,.1,.3,.2,.4,.6,.4,.9Z" fill="#3c3c3c"/>
      <path d="M244,39.4c0-.4,.1-.8,.5-1.1,.5-.4,1.1-.2,1.4,.2,.4,.5,.3,1.3-.2,1.7-.3,.3-.6,.4-1,.2-.2,0-.4-.2-.5-.4-.1-.2-.2-.4-.2-.7h0Z" fill="#3c3c3c"/>
      <path d="M246.9,42c0,.5-.1,.8-.5,1.1-.5,.4-1.1,.2-1.4-.2-.4-.6-.3-1.4,.3-1.8,.4-.3,.9-.2,1.2,.2,.2,.2,.3,.5,.3,.8h0Z" fill="#3c3c3c"/>
      <path d="M247.2,43.8c.2,.2,.3,.3,.4,.6,.1,.3,0,.7,0,1-.1,.3-.4,.5-.7,.6-.3,0-.6,0-.9-.2-.2-.2-.3-.4-.4-.7,0-.4,0-.8,.4-1.1,0,0,0,0,0,0h0c.3,0,.5,0,.8,0,0,0,.2,0,.2-.1h.1Z" fill="#1a1a1a"/>
      <path d="M242.4,43.9c0,.2,0,.3,0,.5,0,.4-.1,.7-.4,1-.3,.3-.6,.3-1,.2-.2,0-.3-.2-.4-.3-.3-.4-.3-1.1,0-1.5,0,0,0,0,.1-.1,.1,0,.2,0,.3,0,.4,0,.8,.2,1.2,.2,0,0,0,0,0,0h0c0-.1,0-.1,0-.1s0,0,0,0h0v.2h.1Z" fill="#1a1a1a"/>
      <path d="M242.1,43.6s0,0,0,0c0,0,0,0,0,0,0,0,0,0,0,.1,0,0,0,0,0,0-.4,0-.8-.1-1.2-.2-.1,0-.2,0-.3,0h0c0-.1,.2-.2,.3-.2,.3-.2,.6-.2,1,0,0,0,0,0,0,0,0,0,0,0,0,0,0,0,0,0,0,0,0,0,0,0,0,0,0,0,.1,0,.2,.2h0Zm-.6-.3h0s0,0,0,0h0Z" fill="#3c3c3c"/>
      <path d="M247.1,43.7c0,.1-.2,.1-.2,.1-.2,0-.5,0-.8,0,.3-.3,.6-.3,1-.2,0,0,0,0,0,0h0Z" fill="#3c3c3c"/>
      <path d="M242,43.4h0s0,0,0,0c0,0,0,0,0,0h0Z" fill="#1a1a1a"/>
      <path d="M242.3,43.7h0Z" fill="#3c3c3c"/>
      <path d="M242.2,43.7h0Z" fill="#3c3c3c"/>
      <path d="M247.2,43.8h0Z" fill="#3c3c3c"/>
      <path d="M232.4,39.7c.1,0,.2,0,.3,0,0,0,.2,0,.3,0h0c.2,0,.4,0,.6,0h.4c.1,0,.2,0,.3,.1,0,0,.2,0,.3,0h.4c.1,0,.3,.1,.4,.1,.3,0,.6,.2,.8,.4,.3,.2,.5,.5,.7,.9,.2,.4,.3,.8,.4,1.1,0,.3,.2,.6,.2,.9,0,.2,0,.3,.1,.5,0,0-.1,0-.2,.1-.1,.3-.3,.5-.4,.7-.1,.2-.2,.3-.4,.5l-.3,.3c-.1,.1-.3,.3-.4,.4-.2,.1-.4,.3-.6,.4-.1,0-.2,.2-.4,.2h-.3c-.1-.2-.2-.2-.3-.2-.2,0-.3,0-.3,.2,0,0,0,0,0,.2v.4c-.1,0-.2,0-.3,0-.2,0-.4,.2-.6,.2-.1-.5-.3-1-.4-1.5-.1-.4-.2-.8-.4-1.2-.2-.6-.3-1.2-.5-1.8-.1-.4-.2-.7-.3-1.1,0-.2-.1-.3-.2-.5,0-.2-.1-.3-.1-.5,0,0,0,0,0,0-.1-.3-.1-.5-.1-.8,0,0,0-.1,0-.2,0,0,0,0,.1,0h.4c.1,0,.2,0,.3,0,0,0,.2,0,.2,0h0Zm4.1,3.7c0,0,0-.2,0-.2,0-.5-.3-.9-.7-1.2-.1-.1-.3-.2-.4-.3-.1,0-.2-.1-.4-.2-.3,0-.4,0-.5,.3,0,.2,0,.3,0,.4,.1,.6,.5,1.1,1,1.5,.1,0,.3,.2,.4,.2,.2,0,.4,0,.5-.3,0,0,0-.2,0-.2h0Z" fill="#bdbdbd"/>
      <path d="M233.1,47.3c.2,0,.4-.1,.6-.2,0,0,.2,0,.2,0s0,0,0,0c0,0,0,.1,0,.2,.2,.5,.5,.9,.9,1.3,0,0,.1,0,.2,.2,.1,0,.2,0,.3,0,.3,0,.5-.1,.5-.4,0-.1,0-.3,0-.4-.1-.6-.5-1-.9-1.4,0,0,0,0,0,0h0c.1,0,.2-.1,.4-.2,.2-.1,.4-.2,.6-.4,.1-.1,.3-.2,.4-.4l.3-.3c.1-.1,.3-.3,.4-.5,.2-.2,.3-.5,.4-.7,0,0,0-.1,.2-.1,.2,.6,.3,1.2,.5,1.8,0,0,0,0,0,0h0c.1,.4,.2,.8,.3,1.1,0,.3,.1,.5,.2,.8,0,.2,.1,.4,.2,.6,0,0,0,.1,0,.2,0,.1,0,.3,0,.4,.1,.4,.2,.8,.3,1.2,0,.1,0,.2,0,.3,0,.1,0,.2-.1,.3,0,0-.1,0-.2,0-.1,0-.3,0-.4,0-.1,0-.2,0-.4-.1l-.9-.3c-.5-.2-1-.3-1.5-.5,0,0-.1,0-.2,0l-.6-.2c-.4-.1-.7-.3-1-.5-.2-.2-.4-.3-.5-.5-.1-.2-.3-.4-.3-.6,0,0,0-.2,0-.3,0-.2,0-.3-.1-.5h0Z" fill="#b2b2b2"/>
      <path d="M244.8,35.1c0,0,.1,0,.2,0,.1,0,.2,0,.4,0,0,0,.1,0,.2,0,0,0,.1,.1,0,.2,0,0-.1,0-.2,.1-.3,.1-.5,.2-.8,.4-.3,.2-.7,.3-1,.4-.2,0-.4,.2-.6,.3l-.4,.2c-.2,0-.4,.2-.6,.3-.2,0-.4,.2-.6,.3-.3,.1-.5,.2-.8,.3l-1.2,.5c-.3,.1-.6,.3-.9,.3-.3,0-.5,.2-.8,.2,0,0-.2,0-.3,0-.1,0-.2,0-.3,0,0,0,0,0,0-.1,0,0,0-.2,0-.3,0,0,.1,0,.1,0,0,0,0,0,0,0h0c0,0,.1,0,.1,0h0s0,0,.1,0h.2s0,0,.1,0h0s0,0,.1,0c0,0,.1,0,.2,0,.1,0,.3-.1,.4-.2,0,0,.1,0,.2-.1,0,0,0-.1,0-.2,0,0-.1,0-.2,0-.3,0-.5,0-.8,.1-.3,0-.5,.2-.8,.2,0,0-.1-.2-.1-.3v-1.1c0-.1,0-.3,0-.4,0,0,0,0,0,0,.4-.2,.9-.4,1.4-.5,.3,0,.7-.2,1-.2,.2,0,.5,0,.8,0,.2,0,.5,0,.7,0s.2,0,.3,0c0,0,.1,0,.1,0h.5c.1,0,.2,0,.3,0,0,0,.1,0,.2,0h.6c.1,0,.2,0,.4,0,0,0,.1,0,.2,0,.2,0,.4,0,.6,0,0,0,0,0,.1,0h.5Zm-6.9,1.3s0,0,0,0h.3s0,0,0,0h.1c0,0,.1,0,.1,0,0,0,.1,0,.2,0,.3,0,.5-.1,.8-.3,.1,0,.2-.1,.4-.2,0,0,0,0,.1-.1,0,0,0-.1,0-.1s-.1,0-.2,0h-.2c-.5,0-1,.2-1.4,.4-.1,0-.2,.1-.3,.2,0,0-.1,0,0,.2,0,0,0,0,.1,0h0Zm3.1,0c0,0,0,0,.1,0,0,0,.1,0,.2,0,.2,0,.4,0,.7,0,.3,0,.7-.2,1-.3,.1,0,.2-.1,.3-.2,0,0,0-.1,0-.2,0,0,0,0-.1,0h-.3c-.5,0-.9,.2-1.3,.4-.1,0-.2,.1-.3,.2,0,0-.1,0-.1,.2h0Z" fill="#f4f4f4"/>
      <path d="M237.1,35.8s0,0,0,0c0,.1,0,.3,0,.4v1.1c0,0,0,.2,.1,.3-.1,0-.2,0-.3,.2,0,0-.1,0-.2,.2,0,0,0,.1,0,.2,0,0,.1,0,.2,0h.4s0,0,0,0c0,0,0,0-.1,0,0,.1,0,.2,0,.3,0,0,0,0,0,.1-.1,0-.2,0-.3,0,0,0-.2,0-.2,0,0,0-.1,0-.2,0h-1c0,0-.1,0-.2,0-.1,0-.3,0-.4,0-.2,0-.4,0-.6,0-.1,0-.3,0-.4,0-.2,0-.4,0-.5,0-.1,0-.3,0-.5,0-.2,0-.5,0-.7-.1-.1,0-.2,0-.2-.2,0-.1,.2-.2,.3-.2,.4-.2,.7-.3,1.1-.5,.4-.1,.7-.3,1.1-.4,.4-.2,.9-.3,1.3-.5,.3-.1,.7-.3,1-.4,.2,0,.5-.2,.7-.3h0Zm-3,2.1c.3,0,.5,0,.8-.1,.3,0,.6-.2,.9-.3,0,0,.2-.1,.2-.2,0,0,0-.1,0-.2-.1,0-.2,0-.3,0-.5,0-1,.2-1.4,.4-.1,0-.2,0-.3,.2,0,0-.1,0-.1,.1,0,0,0,.1,0,.2,0,0,.2,0,.2,0h0Z" fill="#f0f0f0"/>
      <path d="M238.9,48.5c0,0,0-.1,0-.2,0-.2-.1-.4-.2-.6,0-.3-.1-.5-.2-.8-.1-.3-.2-.7-.3-1h.1c0-.2,.1-.3,.2-.5,0,0,0,0,0-.2,.1-.3,.3-.6,.4-.9,0,0,0,0,0,0,0,0,0,.2,.1,.3,.1,.5,.3,1,.4,1.5,0,.2,.1,.4,.2,.7,0,0,0,0,0,.1,0,0,0,0,0,.1s0,.1,0,.2c-.2,.4-.4,.8-.6,1.2,0,0,0,.1-.2,.1h0Z" fill="#d4d4d4"/>
      <path d="M231.7,39.6h0Z" fill="#d4d4d4"/>
      <path d="M232.4,39.7h0Z" fill="#d4d4d4"/>
      <path d="M233,39.8h0Z" fill="#d4d4d4"/>
      <path d="M233.6,39.9h0Z" fill="#d4d4d4"/>
      <path d="M234,39.9h0Z" fill="#d4d4d4"/>
      <path d="M234.6,40h0Z" fill="#d4d4d4"/>
      <path d="M243.3,47.2c0,.3-.1,.7-.3,.9-.2,.2-.5,.4-.8,.4s-.4,0-.6-.2c-.3-.2-.4-.6-.4-.9,0-.3,0-.6,.3-.9,.1-.2,.3-.3,.6-.4,.4,0,.8,0,1,.4,.2,.2,.2,.5,.3,.8h0Z" fill="#1a1a1a"/>
      <path d="M241.6,43.3h0s0,0,0,0c0,0,0,0,0,0h0Z" fill="#1a1a1a"/>
      <path d="M236.5,43.4c0,0,0,.2,0,.2,0,.2-.3,.3-.5,.3-.2,0-.3,0-.4-.2-.5-.4-.9-.9-1-1.5,0-.1,0-.3,0-.4,0-.2,.3-.4,.5-.3,.1,0,.3,0,.4,.2,.1,0,.3,.2,.4,.3,.3,.3,.6,.7,.7,1.2,0,0,0,.2,0,.2h0Z" fill="#3c3c3c"/>
      <path d="M235,46.5h0c0,0-.1,0-.2,.1-.2,.1-.4,.2-.7,.3,0,0,0,0,0,0,0,0,0,0,0,0,0-.1,0-.2,0-.4,0,0,0-.1,0-.2,0-.1,.2-.2,.3-.2,.1,0,.2,0,.3,0h.3Z" fill="#3c3c3c"/>
      <path d="M234,47s0,0,0,0c.2,0,.4-.2,.7-.3,0,0,.1,0,.2-.1,0,0,0,0,0,0,.5,.4,.8,.8,.9,1.4,0,.1,0,.3,0,.4,0,.3-.2,.5-.5,.4-.1,0-.2,0-.3,0,0,0-.2,0-.2-.2-.4-.3-.7-.8-.9-1.3,0,0,0-.1,0-.2h0Z" fill="#1a1a1a"/>
      <path d="M241,36.4c0,0,0-.2,.1-.2,.1,0,.2-.1,.3-.2,.4-.2,.9-.3,1.3-.4,.1,0,.2,0,.3,0s.1,0,.1,0c0,0,.1,.1,0,.2,0,0-.2,.2-.3,.2-.3,.2-.6,.3-1,.3-.2,0-.4,0-.7,0s-.1,0-.2,0c0,0-.1,0-.1,0h0Z" fill="#3c3c3c"/>
      <path d="M237.3,38.2h-.4c0,0-.1,0-.2,0,0,0-.1,0,0-.2s.1-.1,.2-.2c0,0,.2-.1,.3-.2,.2,0,.5-.2,.8-.2,.2,0,.5-.1,.8-.1,0,0,.1,0,.2,0,0,0,.1,.1,0,.2,0,0-.1,0-.2,.1-.1,0-.3,.2-.4,.2s-.1,0-.2,0h-.5v.2h-.2c0,0-.1,0-.1,0h0Z" fill="#3c3c3c"/>
      <path d="M238.5,36.3h-.6s-.1,0-.1,0,0-.1,0-.2c0,0,.2-.1,.3-.2,.4-.2,.9-.3,1.4-.4,0,0,.2,0,.2,0,0,0,.1,0,.2,0s0,0,0,.1c0,0,0,0-.1,.1-.1,0-.2,.1-.4,.2-.2,.1-.5,.2-.8,.3,0,0-.1,0-.2,0,0,0-.1,0-.1,0h0Z" fill="#3c3c3c"/>
      <path d="M237.9,36.3h.5s0,0,0,0h-.3s0,0,0,0h0Z" fill="#f0f0f0"/>
      <path d="M237.4,38.2s.1,0,.1,0c0,0-.1,0-.1,0Z" fill="#f0f0f0"/>
      <path d="M238.5,36.3s.1,0,.1,0c0,0-.1,0-.1,0Z" fill="#f0f0f0"/>
      <path d="M238.1,38h.1s0,0-.1,0Z" fill="#f0f0f0"/>
      <path d="M237.9,38h.1s0,0-.1,0Z" fill="#f0f0f0"/>
      <path d="M237.8,38.1h0Z" fill="#f0f0f0"/>
      <path d="M237.6,38.1h.1s0,0-.1,0Z" fill="#f0f0f0"/>
      <path d="M234.2,37.9c0,0-.1,0-.2,0,0,0-.1,0,0-.2,0,0,0,0,.1-.1,0,0,.2-.1,.3-.2,.5-.2,.9-.3,1.4-.4,.1,0,.2,0,.3,0,0,0,.1,.1,0,.2,0,0-.2,.1-.2,.2-.3,.2-.6,.3-.9,.3-.2,0-.5,0-.8,.1h0Z" fill="#3c3c3c"/>
    </g>
    <g>
      <path d="M215.5,46.2c-.2,0-.3-.2-.5-.4-.3-.2-.6-.4-.8-.7-.2-.2-.4-.3-.6-.5-.2-.1-.3-.3-.5-.4-.1,0-.2-.2-.4-.3-.2-.1-.3-.3-.5-.4-.2-.2-.4-.3-.6-.5-.2-.1-.3-.3-.5-.4-.1,0-.2-.2-.4-.3-.1,0-.2-.2-.4-.3,0,0,0,0-.1-.1-.1-.1-.3-.3-.4-.4-.3-.3-.5-.6-.7-.9,0,0-.1-.2-.1-.3-.2-.5-.3-1-.5-1.5-.2-.5-.4-1.1-.6-1.6,0-.1-.1-.2-.1-.4s0-.2,0-.4c0,0,0,0,0-.1,0,0,0,0,0-.1,0-.4,.1-.9,.4-1.2,.1-.2,.3-.3,.4-.4,0,0,0,0,0,0,.2-.2,.5-.5,.8-.7,.2-.2,.4-.3,.6-.5h0c.2-.2,.4-.4,.6-.6,.2-.2,.4-.4,.7-.6,.2-.1,.3-.3,.5-.4,.2-.2,.4-.4,.6-.6,0,0,0,0,0,0,.2-.2,.5-.5,.8-.7,.2-.2,.4-.4,.7-.6,0,0,0,0,0,0,.2-.2,.5-.5,.7-.7,.2-.2,.4-.4,.6-.5,0,0,.1,0,.2-.1v.6c0,0,0,.1,0,.2,0,0,0,0,0,.1,0,0-.1,0-.2,.1-.2,.2-.4,.4-.7,.6,0,0,0,0,0,0-.1,0-.2,.2-.3,.3s-.2,.2-.3,.3c-.2,.2-.5,.5-.8,.7,0,0,0,0,0,0-.1,0-.2,.2-.4,.3s-.2,.2-.4,.3c-.2,.2-.5,.5-.7,.7h0c-.2,.2-.4,.3-.5,.5-.3,.3-.6,.6-.9,.8-.2,.2-.3,.3-.5,.5-.2,.1-.2,.3-.4,.5-.1,.2-.1,.4-.1,.6,0,.3,.1,.5,.3,.6,0,0,.2,.1,.2,.2,.3,.2,.6,.5,1,.8,.4,.3,.9,.7,1.3,1,.2,.1,.3,.2,.5,.4,.2,.1,.4,.3,.5,.4,.3,.2,.6,.4,.8,.6,.4,.3,.7,.5,1.1,.8,.3,.2,.5,.4,.9,.6,0,0,0,0,0,0,0,.1,0,.2,0,.3v1.6c0,0,0,.2,0,.2,0,0,0,0,0,0-.1-.2-.2-.4-.4-.6-.2-.3-.4-.6-.6-.8-.2-.2-.3-.3-.5-.5-.1-.1-.3-.2-.5-.4-.9-.7-1.9-1.4-2.8-2.1l-1.9-1.4c0,0-.1,0-.2,0h0c0,0,0,.2,0,.2,0,.2,.2,.5,.2,.7,.2,.5,.3,.9,.5,1.4l.4,1.2c0,0,0,.2,.1,.2,.2,.4,.5,.7,.8,1,.2,.2,.4,.3,.6,.5,.2,.2,.4,.3,.6,.5,.2,.2,.5,.4,.7,.5,.3,.2,.5,.4,.8,.6,.3,.2,.5,.4,.8,.7,.2,.2,.4,.3,.6,.5,.1,.1,.3,.2,.4,.3,0,0,0,0,.1,0,.1,0,.2,.2,.3,.2v.4h0Z" fill="#e6e6e6"/>
      <path d="M224.3,32.9c.2,.1,.4,.3,.5,.5,.5,.6,.8,1.4,1,2.2,0,.3,0,.6,.1,.9,0,.2,0,.4,0,.5,0,.2,0,.3,0,.4v.9c.1,.3,.2,.6,.2,.9,0,.3,0,.7,0,1,0,.3-.1,.5-.2,.8-.1,.3-.3,.6-.5,.8-.3,.3-.6,.5-.9,.8h0c-.2,.3-.5,.5-.7,.7-.3,.3-.7,.6-1,.9-.3,.3-.6,.5-.9,.8,0,0-.2,.1-.2,.2-.1,0-.2,.2-.3,.2-.1,.2-.3,.3-.5,.4,0,0-.2,0-.2-.1,0,0-.1,0-.2,0,0,0,0,0,0,0,0,0,.1,0,.2-.2,.2-.2,.5-.4,.7-.7,0,0,0,0,0,0,.2-.1,.4-.3,.6-.5,.1,0,.3-.2,.4-.4,.2-.1,.3-.3,.5-.5,.1-.1,.2-.2,.4-.3,.2-.1,.3-.3,.5-.4,.1-.1,.3-.2,.4-.4,.3-.2,.5-.5,.8-.7,.2-.2,.4-.5,.5-.8,.1-.2,.1-.5,.1-.7,0-.2,0-.3,0-.5,0-.1,0-.2,0-.4,0-.2,0-.3,0-.5,0-.2,0-.3,0-.5,0-.2,0-.3,0-.5,0-.2,0-.3,0-.5,0,0,0-.2,0-.3,0-.2,0-.4,0-.6,0-.2,0-.3,0-.5,0-.2,0-.4-.2-.6,0-.1-.2-.2-.3-.2-.1,0-.2,0-.4,0,0,0-.2,.1-.2,.2-.2,.2-.4,.4-.6,.5-.2,.2-.4,.4-.6,.5-.2,.2-.4,.4-.6,.6-.2,.1-.3,.3-.5,.5-.3,.3-.6,.5-.8,.8-.2,.2-.5,.5-.7,.7h0s0-.1,0-.2v-1.1c0-.1,.2-.2,.2-.2,.2-.2,.4-.3,.6-.5,.2-.2,.5-.4,.7-.7,.2-.2,.4-.4,.6-.6,.4-.3,.7-.7,1-1,.3-.3,.3-.6,.3-1,0-.2,0-.4-.2-.6,0,0,0,0,0,0,.1,0,.1,0,.2-.1,0,0,.2,0,.2-.1,0,0,.2-.1,.3-.1h0Z" fill="#bdbdbd"/>
      <path d="M215.6,43.2c0,0,0-.1,0-.2v-1.6c0-.1,0-.2,0-.3,.2,0,.4,0,.6,0,.2,0,.4,0,.6-.2,.1,0,.2-.2,.4-.3,.1-.1,.3-.3,.4-.4,0,0,.1-.1,.2-.2v1s0,0,0,.1c0,0,0,.2,0,.2,0,0,0,0,0,0-.1,.1-.2,.3-.4,.4-.2,.3-.3,.6-.3,1s0,.3,0,.5c.2,.5,.3,1,.5,1.4,0,0,0,.1,0,.2,0,0,0,.1,0,.2,0,0,0,.2,0,.3v2.3c-.4,0-.7-.2-1-.4-.2-.2-.4-.4-.7-.5s-.4-.4-.6-.5v-.4c.1,0,.2,.2,.3,.3,.1,.1,.3,.3,.5,.3s.2,0,.2,0c0,0,0-.2,0-.3,0-.3-.2-.6-.3-.9-.1-.4-.3-.8-.4-1.2-.1-.2-.2-.5-.3-.7h0Z" fill="#d4d4d4"/>
      <path d="M224.3,32.9c-.1,0-.2,0-.3,.1,0,0-.1,0-.2,.1,0,0-.1,.1-.2,.1,0,0-.1,0-.2-.1-1-.7-2-1.3-3-2-.3-.2-.5-.4-.8-.5,0,0,0-.1,0-.2,0-.1,0-.2,0-.3,0,0,0-.2,.1-.2,0,0,.1,0,.2,.1,.4,.2,.7,.5,1.1,.7,1,.7,2,1.3,2.9,2,.1,0,.2,.2,.4,.3h0Z" fill="#cbcbcb"/>
      <path d="M219.7,29.8c0,0-.1,.1-.1,.2,0,.1,0,.2,0,.3,0,0,0,.1,0,.2,0,0-.1,0-.2-.1-.6-.4-1.1-.8-1.7-1.1-.2-.1-.3-.2-.5-.3-.4-.2-.9-.3-1.3-.1-.2,0-.3,.1-.4,.3,0,0,0,.1-.2,.1,0,0,0-.1,0-.2v-.6c.2-.1,.5-.2,.8-.3,0,0,.1,0,.1,0,0,0,.1,0,.2,0,0,0,0,0,0,0,.4,0,.7,.1,1,.3,0,0,0,0,0,0,.2,.2,.4,.2,.6,.4,.2,.1,.4,.3,.6,.4,.3,.2,.5,.4,.8,.5,0,0,0,0,0,0h0Z" fill="#d4d4d4"/>
      <path d="M217.9,47.7v-2.3c0,0,0-.2,0-.3,0,0,0-.1,0-.2,0,0,0,.1,0,.2,.1,.3,.2,.6,.3,.9,0,.3,.3,.5,.5,.6,.1,0,.3,.1,.4,0,.3,0,.5-.2,.7-.4,.2-.2,.4-.4,.7-.6,0,0,0,0,0,0,0,0,.1,0,.2,0,0,0,.1,0,.2,.1,0,0-.1,.1-.2,.2-.1,.1-.2,.2-.4,.3-.3,.3-.6,.6-1,.9-.3,.2-.6,.3-.9,.4,0,0-.1,0-.2,0h0c-.2,0-.4,0-.6,0h0Z" fill="#cbcbcb"/>
      <path d="M218.4,47.7h0Z" fill="#d4d4d4"/>
      <path d="M215.4,29.2c0,0,.1,0,.2-.1,.1-.1,.3-.2,.4-.3,.4-.2,.9-.1,1.3,.1,.2,.1,.3,.2,.5,.3,.6,.4,1.1,.8,1.7,1.1,0,0,.1,0,.2,.1,.3,.2,.5,.4,.8,.5,1,.7,2,1.3,3,2,0,0,.1,0,.2,.1,0,0,0,0,0,0,.1,.2,.2,.4,.2,.6,0,.4,0,.7-.3,1-.3,.3-.7,.7-1,1-.2,.2-.4,.4-.6,.6-.2,.2-.5,.4-.7,.7-.2,.2-.4,.3-.6,.5,0,0-.2,.1-.2,.2,0,0,0,0,0,0-.2,.2-.4,.3-.6,.5-.4,.3-.7,.7-1.1,1,0,0,0,0-.1,.1-.2,.1-.3,.3-.4,.4,0,0-.1,0-.2,.2-.1,.1-.3,.3-.4,.4-.1,0-.2,.2-.4,.3-.2,.1-.4,.2-.6,.2,0,0,0-.2,0-.3v-1.3c0,0,0-.1,0-.2h.2c0,0,.1,0,.2-.1,.2,0,.4-.2,.6-.3,.5-.4,.5-1.1,0-1.5-.2-.2-.5-.3-.7-.3h-.2v-.5c0-.2,0-.3,0-.5h.2c0,0,.1,0,.2-.1,.3,0,.5-.2,.7-.4,.1-.1,.2-.3,.2-.5,0-.3,0-.6-.2-.9-.1-.1-.2-.2-.4-.3-.4-.2-.8-.2-1.2,0-.2,0-.4,.2-.6,.4-.1,.2-.2,.3-.3,.5,0,.1,0,.2,0,.4h0c0,0,0,.2,0,.2h0c0,.2-.1,.2-.2,.2,0,0,0,0,0,0,0,0-.2,0-.3,0h-.3c-.1,0-.2,0-.3,0,0-.2,0-.3-.1-.5-.2-.2-.4-.4-.6-.5-.1,0-.3,0-.4,0-.1,0-.2,0-.3,0-.3,0-.6,.1-.8,.3,0,0,0,0,0,0,0,0,0-.1,0-.2v-1.1c0,0,0-.1,0-.2,0,0,0-.2,0-.2,0,0,0,0,0,0,.2-.2,.5-.5,.7-.7,.1-.1,.2-.2,.4-.3s.2-.2,.4-.3c0,0,0,0,0,0,.2-.2,.5-.5,.8-.7,.1-.1,.2-.2,.3-.3,.1,0,.2-.2,.3-.3,0,0,0,0,0,0,.2-.2,.4-.4,.7-.6,0,0,.1,0,.2-.1,0,0,0,0,0-.1h0Zm3.8,5.5c0,0,.1,.2,.2,.2,.5,.4,1.4,.4,1.9,0,.1-.1,.3-.3,.3-.4,0-.2,.1-.3,0-.5,0-.1,0-.2-.1-.3,0-.2-.2-.3-.4-.4-.2-.1-.5-.2-.7-.2-.4,0-.8,0-1.1,.3-.1,.1-.3,.3-.3,.4-.1,.3,0,.6,.1,.9h0Zm-2.7-2c.2,0,.5,0,.7-.1,.2,0,.4-.2,.5-.4,.2-.3,.2-.8,0-1.1-.1-.1-.2-.2-.4-.3-.5-.3-1.1-.3-1.6,0-.2,.1-.3,.2-.4,.4-.2,.3-.2,.6,0,1,.1,.2,.3,.3,.5,.4,.2,.1,.5,.2,.8,.2h0Z" fill="#f4f4f4"/>
      <path d="M213.9,35.3c.1,0,.2,0,.3,0h.3c.1,0,.2,0,.3,0s0,0,0,0c0,0,.1,0,.2,0h0c.2,.3,.6,.5,1,.6,.1,0,.3,0,.4,0h-.2c0,.2,0,.4,0,.5v.5c0,0-.2,0-.3,0-.2,0-.3,0-.5,.1-.2,0-.4,.2-.5,.4-.1,.2-.2,.5-.1,.7,0,.2,.2,.4,.3,.5,.2,.2,.5,.3,.9,.4h.2c0,.1,0,.2,0,.2v1.3c0,0,0,.2,0,.3-.2,0-.4,0-.6,0,0,0,0,0,0,0-.3-.1-.6-.4-.9-.6-.4-.3-.7-.5-1.1-.8-.3-.2-.6-.4-.8-.6-.2-.1-.4-.3-.5-.4-.2-.1-.3-.2-.5-.4-.4-.3-.9-.7-1.3-1-.3-.2-.6-.5-1-.8,0,0-.2-.1-.2-.2-.2-.2-.3-.3-.3-.6,0-.2,0-.4,.1-.6,.1-.2,.2-.4,.4-.5,.2-.1,.4-.3,.5-.5,.3-.3,.6-.5,.9-.8,.2-.2,.4-.3,.5-.5,0,0,0,.2,0,.2,0,0,0,.1,0,.2v1.1c0,0,0,.1,0,.2,0,0,0,0,0,0,0,0,0,0-.1,.1-.1,.2-.2,.3-.2,.5,0,.2,0,.5,.2,.7,.1,.2,.3,.3,.5,.4,.4,.2,.9,.2,1.3,0,.4-.2,.6-.4,.7-.8,0,0,0,0,0,0h0Z" fill="#f0f0f0"/>
      <path d="M215.6,43.2c.1,.2,.2,.5,.3,.7,.2,.4,.3,.8,.4,1.2,0,.3,.2,.6,.3,.9,0,0,0,.2,0,.3,0,0-.1,.1-.2,0-.2,0-.3-.2-.5-.3-.1,0-.2-.2-.3-.3-.1,0-.2-.2-.3-.2,0,0,0,0-.1,0-.1-.1-.3-.2-.4-.3-.2-.2-.4-.3-.6-.5-.3-.2-.5-.4-.8-.7-.3-.2-.5-.4-.8-.6-.2-.2-.5-.4-.7-.5-.2-.2-.4-.3-.6-.5-.2-.2-.4-.3-.6-.5-.3-.3-.6-.7-.8-1,0,0,0-.2-.1-.2l-.4-1.2c-.2-.5-.3-.9-.5-1.4,0-.2-.2-.5-.2-.7,0,0,0-.1,0-.2h0c0,0,.1,0,.2,0l1.9,1.4c.9,.7,1.9,1.4,2.8,2.1,.2,.1,.3,.2,.5,.4,.2,.2,.4,.3,.5,.5,.2,.3,.5,.5,.6,.8,.1,.2,.2,.4,.4,.6,0,0,0,0,0,0h0Zm-1-.9s0,0,0-.1c0,0,0-.2-.1-.3-.2-.3-.5-.6-.8-.8,0,0-.2,0-.3-.2,0,0,0,0-.1,0,0,0-.1,0-.1,.1s0,.1,0,.2c.2,.5,.6,.9,1.1,1.2,0,0,.1,0,.2,0,0,0,.1,0,.1-.2h0Zm-4.3-1.4c0,0,0,.1,0,.3,.2,.4,.6,.8,1,1,0,0,.1,0,.2,0,.1,0,.2,0,.2-.2,0,0,0,0,0-.1,0,0,0-.2-.1-.3-.2-.2-.4-.5-.6-.6-.1,0-.2-.2-.4-.2s-.1,0-.2,0c-.1,0-.2,0-.2,.1h0Zm2.8,1.2s0,0,0-.1c0,0,0-.2-.1-.3-.2-.3-.4-.6-.7-.8,0,0-.2,0-.3-.2,0,0,0,0-.1,0-.1,0-.2,0-.2,.2,0,0,0,0,0,.1,0,0,0,.2,.1,.3,.2,.3,.5,.6,.8,.8,.1,0,.2,.1,.4,.2,.1,0,.2,0,.2-.2h0Z" fill="#b2b2b2"/>
      <path d="M208.6,37.1h0Z" fill="#d4d4d4"/>
      <path d="M220.6,45.7s0,0,0,0c-.2,.2-.4,.4-.7,.6-.2,.2-.4,.3-.7,.4-.2,0-.3,0-.4,0-.2-.1-.4-.3-.5-.6-.1-.3-.2-.6-.3-.9,0,0,0-.1,0-.2,0,0,0-.1,0-.2-.2-.5-.3-1-.5-1.4,0-.2,0-.3,0-.5,0-.4,.1-.7,.3-1,.1-.2,.2-.3,.4-.4,0,0,0,0,0,0,0,0,.1-.1,.2-.2,.1-.1,.3-.2,.4-.3,.2-.2,.4-.4,.6-.5,.3-.3,.6-.6,.9-.9,0,0,.2-.2,.3-.3,0,0,0,0,0,0,.2-.2,.5-.5,.7-.7,.3-.3,.6-.5,.8-.8,.2-.1,.3-.3,.5-.5,.2-.2,.4-.4,.6-.6,.2-.2,.4-.4,.6-.5,.2-.2,.4-.3,.6-.5,0,0,.2-.1,.2-.2,.1,0,.2,0,.4,0,.1,0,.2,0,.3,.2,.1,.2,.1,.4,.2,.6,0,.2,0,.3,0,.5,0,.2,0,.4,0,.6,0,0,0,.2,0,.3,0,.2,0,.3,0,.5,0,.2,0,.3,0,.5,0,.2,0,.3,0,.5,0,.2,0,.3,0,.5,0,.1,0,.2,0,.4,0,.2,0,.3,0,.5,0,.2,0,.5-.1,.7-.1,.3-.3,.5-.5,.8-.2,.2-.5,.5-.8,.7-.1,.1-.3,.2-.4,.4-.2,.1-.3,.3-.5,.4-.1,.1-.2,.2-.4,.3-.2,.1-.3,.3-.5,.5-.1,.1-.3,.3-.4,.4-.2,.2-.4,.4-.6,.5,0,0,0,0,0,0-.2,.2-.5,.4-.7,.7,0,0-.1,0-.2,.2,0,0,0,0,0,0h0Zm.2-3.7c0,.3,.1,.4,.4,.4,0,0,0,0,.1,0,.1,0,.3-.1,.4-.2,.4-.3,.8-.7,1-1.1,0-.1,.1-.2,.1-.4,0,0,0-.2,0-.3,0-.2-.1-.2-.3-.3,0,0-.2,0-.3,0-.1,0-.2,0-.3,.1-.5,.3-.9,.7-1.1,1.2,0,.2-.1,.3-.1,.5h0Z" fill="#b2b2b2"/>
      <path d="M220.4,39.1c0,0-.2,.2-.3,.3-.3,.3-.6,.6-.9,.9-.2,.2-.4,.4-.6,.5-.1,.1-.3,.2-.4,.3,0,0-.1,.1-.2,.2,0,0,0-.2,0-.2,0,0,0,0,0-.1v-1c.1-.2,.3-.3,.4-.4,0,0,0,0,.1-.1,.4-.3,.7-.7,1.1-1,.2-.2,.4-.3,.6-.5,0,0,0,0,0,0v1.1c0,0,0,.2,0,.2h0Z" fill="#cbcbcb"/>
      <path d="M216.6,39.2h-.4c-.3,0-.6-.1-.9-.4-.1-.1-.3-.3-.3-.5,0-.3,0-.5,.1-.7,.1-.2,.3-.3,.5-.4,.2,0,.3-.1,.5-.1,0,0,.2,0,.3,0h.2c.3,0,.5,.2,.7,.4,.5,.4,.5,1,0,1.5-.2,.2-.4,.2-.6,.3,0,0-.1,0-.2,0h0Z" fill="#1a1a1a"/>
      <path d="M216.5,32.8c-.3,0-.5,0-.8-.2-.2,0-.4-.2-.5-.4-.2-.3-.2-.6,0-1,.1-.2,.2-.3,.4-.4,.5-.3,1.1-.3,1.6,0,.1,0,.3,.2,.4,.3,.2,.3,.3,.8,0,1.1-.1,.2-.3,.3-.5,.4-.2,0-.4,.1-.7,.1h0Z" fill="#3c3c3c"/>
      <path d="M215,35.2c0-.1,0-.2,0-.4,0-.2,.1-.4,.3-.5,.2-.2,.4-.3,.6-.4,.4-.1,.8,0,1.2,0,.1,0,.3,.2,.4,.3,.2,.2,.3,.5,.2,.9,0,0-.1,0-.2,0-.1,0-.3,0-.4,0-.2,0-.3,0-.5,0-.2,0-.5,0-.7,0,0,0,0,0,0,0,0,0-.1,0-.2,0h-.5v-.2h0Z" fill="#3c3c3c"/>
      <path d="M219.2,34.8c-.2-.3-.3-.6-.1-.9,0-.2,.2-.3,.3-.4,.3-.3,.7-.3,1.1-.3,.3,0,.5,0,.7,.2,.1,0,.3,.2,.4,.4,0,0,.1,.2,.1,.3-.2,0-.4,.2-.7,.2-.4,.1-.8,.3-1.3,.4-.2,0-.4,.1-.5,0h0Z" fill="#3c3c3c"/>
      <path d="M213.9,35.3h0c0,0-.2,0-.2,0-.1,0-.3,0-.4,0-.3,0-.6,0-.9,0h0c0,0-.1,0-.2,0-.2,0-.4,0-.5,0-.1,0-.2,0-.3,0,0-.2,.1-.4,.2-.5,0,0,0,0,.1-.1,.2-.2,.5-.3,.8-.3h.3c.1,0,.3,0,.4,0,.3,0,.5,.3,.6,.5,.1,.2,.1,.3,.1,.5h0Z" fill="#3c3c3c"/>
      <path d="M219.2,34.8c.2,0,.4,0,.5,0,.4-.1,.8-.3,1.3-.4,.2,0,.4-.2,.7-.2,0,.2,0,.4,0,.5,0,.2-.2,.3-.3,.4-.5,.4-1.4,.4-1.9,0,0,0-.2-.1-.2-.2h0Z" fill="#1a1a1a"/>
      <path d="M215.2,35.4h.4c0,0,.1,0,.2,0,0,0,0,0,0,0,.2,0,.5,0,.7,0,.2,0,.3,0,.5,0,.1,0,.3,0,.4,0,0,0,.1,0,.2,0,0,.2-.1,.3-.2,.5-.2,.2-.4,.3-.7,.4,0,0-.1,0-.2,0-.1,0-.3,0-.4,0-.4,0-.7-.2-1-.6h0Z" fill="#1a1a1a"/>
      <path d="M212.8,34.2h-.3c.1,0,.2,0,.3,0Z" fill="#f0f0f0"/>
      <path d="M215,35.2h0Z" fill="#cbcbcb"/>
      <path d="M215.1,35.3h0c0,0,0,0,0,0Z" fill="#bdbdbd"/>
      <path d="M215.2,35.4h0Z" fill="#bdbdbd"/>
      <path d="M211.2,35.2c.1,0,.2,0,.3,0,.2,0,.4,0,.5,0,0,0,.1,0,.2,0,0,0,0,0,0,0,.3,0,.6,0,.9,0,.1,0,.3,0,.4,0,0,0,.2,0,.2,0h0c0,.5-.4,.7-.7,.9-.4,.2-.9,.2-1.3,0-.2,0-.4-.2-.5-.4-.1-.2-.2-.4-.2-.7h0Z" fill="#1a1a1a"/>
      <path d="M213.9,35.5h0c0,0,0,0,0,0h0Z" fill="#cbcbcb"/>
      <path d="M214.6,42.3c0,.1,0,.2-.1,.2,0,0-.1,0-.2,0-.5-.3-.9-.7-1.1-1.2,0,0,0-.1,0-.2,0,0,0-.2,.1-.1,0,0,0,0,.1,0,0,0,.2,0,.3,.2,.3,.2,.6,.5,.8,.8,0,0,.1,.2,.1,.3,0,0,0,0,0,.1h0Z" fill="#1a1a1a"/>
      <path d="M210.3,40.9c0,0,0-.2,.2-.1,0,0,.1,0,.2,0,.1,0,.2,.2,.4,.2,.2,.2,.4,.4,.6,.6,0,0,.1,.2,.1,.3,0,0,0,0,0,.1,0,.1,0,.2-.2,.2,0,0-.2,0-.2,0-.4-.3-.8-.6-1-1,0-.1,0-.2,0-.3h0Z" fill="#1a1a1a"/>
      <path d="M213.1,42.2c0,.1,0,.2-.2,.2-.1,0-.2,0-.4-.2-.3-.2-.6-.5-.8-.8,0,0-.1-.2-.1-.3,0,0,0,0,0-.1,0-.1,0-.2,.2-.2,0,0,0,0,.1,0,0,0,.2,0,.3,.2,.3,.2,.5,.5,.7,.8,0,0,.1,.2,.1,.3,0,0,0,0,0,.1h0Z" fill="#1a1a1a"/>
      <path d="M220.8,42c0-.2,0-.3,.1-.5,.2-.5,.6-.9,1.1-1.2,0,0,.2-.1,.3-.1,0,0,.2,0,.3,0,.2,0,.3,0,.3,.3,0,0,0,.2,0,.3,0,.1,0,.2-.1,.4-.2,.5-.6,.8-1,1.1-.1,0-.3,.2-.4,.2,0,0,0,0-.1,0-.3,0-.4,0-.4-.4h0Z" fill="#1a1a1a"/>
    </g>
  </g>
</svg>