<?xml version="1.0" encoding="UTF-8"?>
<svg id="uuid-127734d1-2db9-48c0-908c-7c6696037039" data-name="Layer 1" xmlns="http://www.w3.org/2000/svg" width="335" height="335"
  viewBox="0 0 335 335">
  <defs>
    <filter id="uuid-430d6bb6-5ff8-4e8f-8438-0ff9e18af4aa">
      <feOffset dx="5" dy="5"/>
      <feGaussianBlur result="uuid-586ec31e-e1fa-42ed-85f8-76f03f4f75c5" stdDeviation="3"/>
      <feFlood flood-color="#000" flood-opacity=".75"/>
      <feComposite in2="uuid-586ec31e-e1fa-42ed-85f8-76f03f4f75c5" operator="in"/>
      <feComposite in="SourceGraphic"/>
    </filter>
  </defs>
  <rect y=".78497" width="335.02" height="334.21239" fill="#e6e6e6"/>
  <path d="M298.58002,319.5H-.28998v-52c.13-1.38,.26001-2.75,.38995-4.13,96.27002-.02002,192.54004-.04999,288.81-.08002,.57001,1.60004,1.10004,3.20001,1.59003,4.78003,4.03998,13,5.48999,25.08997,6.76001,34.94,.77002,5.94995,1.15997,11.47998,1.32001,16.48999Z" opacity=".75"/>
  <path d="M298.34998,334.9599c.19-3.05896,.32001-6.57929,.31-10.5108-.00995-6.21825-.37-13.45951-1.39996-21.44288-1.27002-9.84889-2.72003-21.93431-6.76001-34.93245-3.66998-11.84473-9.51001-24.45171-19.33002-36.80795-25.46997-32.05395-63.09998-47.10811-81.51996-54.47976-14.82001-5.92735-13.79004-3.8613-31.52002-10.89192-27.91003-11.07245-53.19-21.09182-72.83002-41.77245-4.79999-5.05486-8.73999-10.18991-11.97998-15.21466-9.94-15.40516-13.35999-29.7472-15.19-37.44978-3.97003-16.65883-3.92999-35.27348-3.51001-50.30755,.08002-2.72797,.16998-5.34563,.25-7.80285,.17999-5.27548,.44-9.62827,.65002-12.56688,93.15997,.02008,186.32001,.03012,279.47998,.04016V21.89186c0,29.0051,.01001,58.01013,.01001,87.01517,0,75.361,0,150.722,.01001,226.09297-12.22003-.00998-24.45001-.02002-36.67004-.0401Z" fill="#bf0606"/>
  <path d="M335.02002,21.82996V108.58997H73.32001c-9.94-15.35999-13.35999-29.65997-15.19-37.33997-3.97003-16.60999-3.92999-35.17004-3.51001-50.16003,93.46002,.23999,186.91998,.5,280.38,.73999h.02002Z" opacity=".75"/>
  <rect x="1.38207" y="7.40301" width="164.88009" height="26.66441" stroke="red" stroke-miterlimit="1"/>
  <g filter="url(#uuid-430d6bb6-5ff8-4e8f-8438-0ff9e18af4aa)">
    <path d="M288.94606,198.0984c-3.63829-1.61307-7.29991-3.17583-10.90855-4.85267-4.01658-1.86639-7.98485-3.83662-11.97407-5.7613,.19739-.32464,.39468-.64965,.59193-.97466,.76879,.04027,1.5376,.08054,2.30639,.12083l.11229-1.00414c-1.16958-.37708-2.33917-.75416-3.50875-1.13122-.27276-.19112-.52335-.43122-.82149-.56624-7.9545-3.60206-15.89828-7.22843-23.88029-10.76861-3.06344-1.35872-6.21597-2.51666-9.32791-3.76609l.01741-.05162c-.14714-.19047-.29447-.38076-.44177-.57107-.00842-.34685-.01687-.69368-.02525-1.04055,1.64339,.72673,3.2549,1.53959,4.9368,2.16211,3.39015,1.25484,6.81861,2.40613,10.2313,3.60011l1.03262,.50312,.52412,.51572c4.51752,1.93368,9.01935,3.90554,13.56202,5.77816,1.38957,.57282,2.89147,.8732,4.34191,1.29835l-.0089,.16525,.9941,.54406c.99107,.60213,1.98214,1.20424,3.1187,1.89472,.59633-1.16934,1.01687-1.99391,1.58941-3.11663-1.33295-.64495-2.53665-1.22735-3.74034-1.80977l-32.34918-19.90913c.14162-.19197,.28325-.38393,.42516-.57542,.50483,.11098,1.07728,.10372,1.50387,.34956,6.76282,3.89757,13.47756,7.87931,20.26732,11.72894,3.51768,1.99442,7.16059,3.76804,10.74691,5.64142l-.03064,.05535,.89141,.63569c1.0418,.70818,2.08359,1.41635,3.09029,2.10068,3.01492-3.63447,3.00271-3.74259-.48691-6.06143-.14299-.09502-.30604-.15979-.45975-.23865-.19627-.27678-.34185-.61659-.59621-.82112-5.97105-4.80097-11.92628-9.62221-17.94464-14.36335-3.63711-2.86528-7.37538-5.60212-11.06822-8.39666,.48325-.34125,.96646-.68251,1.4497-1.02365,.2081,.27136,.36764,.60775,.6314,.80426,5.41036,4.0316,10.80739,8.08183,16.26056,12.05495,4.24779,3.09489,8.56833,6.08989,12.85658,9.12928,1.13094,1.00342,2.26188,2.00684,3.36639,2.98679,3.12753-2.83649,3.12118-3.08298,.07461-5.22479-.1377-.09679-.24786-.23278-.37086-.35052-.16391-.29842-.27467-.64616-.49931-.88817-8.32121-8.96423-16.65304-17.91865-24.9834-26.87441l.50008-1.02757c7.46634,7.45068,14.91352,14.92079,22.41595,22.33493,1.42445,1.40768,3.0681,2.59347,4.61064,3.88164,.81945,1.22856,1.6389,2.45714,2.50658,3.75802l3.69705-3.27697c-1.11331-1.19395-2.03354-2.18086-2.9538-3.16776l-19.31151-25.0907c-1.20587-1.5718-2.41173-3.14361-3.61763-4.71539,.33215-.36098,.66427-.72197,.99652-1.08264,.45952,.7287,.85296,1.51007,1.38878,2.17705,4.32877,5.38867,8.66334,10.77299,13.03869,16.12383,3.1662,3.87206,6.39735,7.69096,9.59955,11.53356,1.62959,3.19431,2.09581,3.31435,4.86025,.94423-.75954-.96871-1.53107-1.95273-2.3026-2.93675l-.49421-.54508-.11242,.02353c-.09868-.49207-.07387-1.057-.31471-1.4652-3.13167-5.30817-6.30109-10.59407-9.46098-15.88559l-.52026-1.01453-.02736-.02705c-.3393-.51364-.67856-1.02729-1.01782-1.54093l-.02573-.02578c-.33537-.77909-.61859-1.58587-1.01505-2.33255-1.89236-3.56407-3.81552-7.11181-5.72772-10.66533,.35766,.10895,.71535,.21791,1.07282,.32789,.16525,.39827,.28226,.82497,.50324,1.18844,3.89475,6.40601,7.75667,12.83268,11.72357,19.19383,2.44916,3.92735,5.06242,7.75234,7.60175,11.62314,.58409,1.06762,1.16844,2.1354,1.75281,3.20319l.90821-.4167-.59321-2.24989,1.09829-.0469c4.35016,6.95008,8.7003,13.90018,13.04989,20.85041-.34089,.38897-.68127,.77781-1.02165,1.16664-1.4204-3.20488-3.41894-6.00646-5.4073-8.81518l-.91965,.60533c1.91398,2.88741,3.82796,5.7748,5.74194,8.66219l-1.41894,1.12591c-1.65184-2.41475-3.35329-4.79756-4.93645-7.25652-.91379-1.41932-1.59748-1.26786-2.41603,.03764l6.1933,8.35789c-1.24785,1.34586-2.49571,2.69171-3.74353,4.03757-2.4498-2.78665-4.89963-5.5733-7.34946-8.35993l-1.41349,.72296c0,.72723-.30496,1.84161,.04853,2.12011,2.69134,2.12047,5.51139,4.07761,8.29134,6.08563-.7158,.85313-1.43159,1.70627-2.14739,2.55942-2.79624-2.29445-5.59244-4.58888-8.59272-7.05073-.59283,.91924-1.02069,1.58264-1.57921,2.44868,3.43191,1.82503,6.55852,3.48768,9.68512,5.15034l-.98489,1.50787-.66539,.54872c-2.58186-1.54297-5.13703-3.13446-7.76999-4.58466-.47993-.26433-1.27735,.04796-1.92823,.09408,.33904,.56095,.54347,1.38515,1.0396,1.63895,2.67377,1.36768,5.41995,2.59379,8.14117,3.86875-.34574,.53107-.69147,1.06212-1.03724,1.59317-3.25136-1.46493-6.50275-2.92988-9.75411-4.39483l-.35479,.7918c3.0812,1.64309,6.16244,3.28618,9.24364,4.92927l-.27059,.8311Zm7.9705-14.70149l-.47148-.56646c-1.26925-1.82828-2.49836-3.68721-3.84683-5.45507-.22767-.29848-.97-.20434-1.47454-.29159,.04923,.50668-.09858,1.21959,.1802,1.48599,1.60363,1.53234,3.3083,2.95893,4.98205,4.4181l.61227,.42774,.326,.24702c-.10253-.08861-.20504-.17724-.30767-.26573Zm-20.34256-6.38183c-2.8586,3.18039-2.84033,3.26177,.53971,5.15536,1.57861,.88436,3.1347,1.80896,4.80373,2.77477,.53034-.80331,.99075-1.50069,1.59582-2.41721-2.39585-1.90337-4.67476-3.71388-6.93926-5.51292Zm5.84125-7.0414c1.85375,1.91493,3.48838,3.59026,5.1075,5.28051,1.24438,1.29905,2.22181,.96838,3.1896-.58944-1.79311-2.35645-3.59423-4.72339-5.53464-7.2734-1.09188,1.02067-1.90065,1.77671-2.76247,2.58233Zm-4.55287,4.68092c2.57299,1.9493,4.93808,3.74109,7.24626,5.48976,1.46278-.96001,1.80029-1.7993,.58042-3.02936-1.69871-1.71292-3.26625-3.55595-5.0183-5.48464l-2.80838,3.02424Zm8.81817-8.55928c2.02739,2.61342,3.85464,4.96886,5.82359,7.50691l1.84703-1.5596c-1.74934-2.64967-3.37825-5.11698-5.06934-7.67841-.94395,.62818-1.5728,1.04669-2.60127,1.7311Zm-15.13702,18.86915c2.44323,1.1798,4.50017,2.09277,6.4775,3.15405,1.50269,.80653,2.2483,.40597,2.56662-1.3551-2.40028-1.45305-4.83178-2.925-7.49194-4.53538l-1.55217,2.73643Zm24.44815-13.97315l.61569-.38985c-.74532-3.47844-3.901-7.78486-6.07062-7.76181,1.8973,2.83526,3.6761,5.49346,5.45493,8.15166Zm-25.63457,15.37469c.61498,2.37757,6.32877,5.20542,8.6204,4.29141-2.97341-1.48022-5.64096-2.80819-8.6204-4.29141Z" fill="#d4bc9d"/>
    <path d="M250.44282,140.02588c8.33036,8.95576,16.66219,17.91018,24.9834,26.87441,.22465,.24201,.33541,.58975,.49992,.88784-1.6374-.59753-3.2754-1.19473-5.28624-1.92788,.84569,1.72413,1.53059,3.12043,2.21549,4.51672-4.28825-3.03939-8.60879-6.03439-12.85658-9.12928-5.45318-3.97312-10.85021-8.02335-16.26056-12.05495-.26377-.19651-.42331-.5329-.6314-.80426,.33515-.25279,.65318-.69735,1.00807-.72908,4.69845-.42006,5.68238-3.87921,6.32791-7.63352Z" fill="#e1e3d6"/>
    <path d="M309.91974,183.36143c3.901,1.90865,6.88499,4.69455,8.45132,8.83716-.19184,.55092-.46042,1.08706-.56327,1.6533-1.10155,6.06572-6.42926,10.44555-13.26344,7.92725-2.70231-.99577-5.0921-2.83979-7.62432-4.29724,.00768-.16993,.01779-.34004,.0301-.51002,.63651-.80941,1.20567-1.68457,1.9209-2.41716,3.6622-3.7513,7.36202-7.46588,11.04871-11.19328Z" fill="#e3e2e2"/>
    <path d="M261.90782,137.4375c6.43717,8.36355,12.87434,16.72712,19.31167,25.09051-1.27113-.3205-2.54239-.64082-3.99091-1.00581,.28334,1.41219,.51213,2.55243,.74092,3.69269-1.54255-1.28817-3.18619-2.47396-4.61064-3.88164-7.50243-7.41414-14.94961-14.88425-22.41595-22.33493,2.07604-.68559,4.15208-1.37116,6.22859-2.05712,1.57905,.16517,3.15769,.33075,4.73633,.49631Z" fill="#e1e3d6"/>
    <path d="M241.65714,149.41213c3.69284,2.79454,7.43111,5.53138,11.06822,8.39666,6.01836,4.74113,11.97359,9.56238,17.94464,14.36335,.25436,.20453,.39994,.54433,.59662,.8208-1.53646-.1846-3.0733-.36892-4.61013-.55323-7.04922-1.50326-13.01858-5.44349-19.26078-8.71128-2.95265-1.54575-6.46985-2.90166-6.91857-7.06029l1.18001-7.25601Z" fill="#e1e3d6"/>
    <path d="M283.31373,161.47389c-3.2022-3.8426-6.43334-7.6615-9.59955-11.53356-4.37535-5.35083-8.70992-10.73516-13.03869-16.12383-.53582-.66698-.92925-1.44835-1.38878-2.17705,1.88162-.17062,3.7634-.34092,5.6461-.511,1.76576,1.3778,3.58785,2.68934,5.27706,4.15415,1.31513,1.14043,2.46482,2.47167,3.68803,3.71812l.02576,.02546c.3393,.51356,.67856,1.0274,1.01782,1.54125l.02732,.02675c.17341,.3381,.34682,.67647,.52026,1.01484,3.15989,5.29153,6.32931,10.57742,9.46098,15.88559,.24084,.4082,.21604,.97313,.31593,1.46437-.55575-.15506-1.11267-.30926-1.95224-.5417v3.05661Z" fill="#cfcdcd"/>
    <path d="M265.71477,181.58863c-1.45044-.42515-2.95233-.72552-4.34191-1.29835-4.54267-1.87262-9.0445-3.84448-13.56198-5.77807l-.52415-.51581c-.34421-.16772-.68841-.33542-1.03271-.50328-.64868-.41477-1.32052-.79746-1.94191-1.24945-3.05346-2.22087-6.09351-4.46016-9.1383-6.69294,.04805-2.06449,.09606-4.12898,.14443-6.19353,10.78338,6.6363,21.56644,13.27267,32.34941,19.90873-.77083,.2382-1.54153,.47674-2.4418,.75538l.48892,1.56732Z" fill="#cfcdcd"/>
    <path d="M296.92016,197.48158c2.53209,1.45777,4.92188,3.30179,7.62419,4.29756,6.83417,2.5183,12.16189-1.86152,13.26344-7.92725,.10285-.56624,.37143-1.10238,.56327-1.6533,3.01332,5.02262,1.03641,12.77343-5.13056,16.15272-7.00459,3.83828-15.84166,.48394-19.59574-5.72664,1.09252-1.71475,2.18396-3.42892,3.2754-5.1431Z" fill="#c9c7bc"/>
    <path d="M288.05679,158.33629c-2.53961-3.87096-5.15287-7.69595-7.60203-11.6233-3.9669-6.36116-7.82882-12.78782-11.72357-19.19383-.22098-.36347-.33799-.79016-.50324-1.18844,.80172,.00768,1.60325,.01636,2.40558,.02529,.59283,.48048,1.22707,.91758,1.76933,1.44864,1.99072,1.94965,4.48375,3.62439,5.82327,5.95663,4.11659,7.16735,7.77972,14.59412,9.8336,22.68446-.00096,.63019-.00194,1.26039-.00293,1.89057Z" fill="#c9c7bc"/>
    <path d="M231.53562,169.39431c3.11194,1.24943,6.26446,2.40737,9.32791,3.76609,7.98201,3.54018,15.9258,7.16655,23.88029,10.76861,.29813,.13502,.54873,.37512,.82149,.56574-.62037-.00505-1.24078-.0096-1.86115-.01414-1.45092-.15436-2.94991-.12673-4.34423-.49525-5.40373-1.42825-10.82027-2.83775-16.14285-4.5341-4.56716-1.45562-8.88235-3.46831-11.1067-8.19883l-.57475-1.85813Z" fill="#c9c7bc"/>
    <path d="M309.91974,183.36143c-3.68669,3.7274-7.38651,7.44198-11.04871,11.19328-.71522,.73259-1.28439,1.60775-1.92103,2.41743-1.54943-1.39651-3.09871-2.7933-4.64801-4.19009l.98489-1.50788,.48685-.54827c.71577-.85314,1.43156-1.70629,2.14733-2.55942l.42311-.56874c1.24782-1.34589,2.49568-2.69174,3.74315-4.03796,.38629-.37979,.77293-.75921,1.15957-1.13865,.47298-.37531,.94596-.75062,1.41881-1.12588l.58514-.45236c.34038-.38884,.68076-.77769,1.02168-1.16666,1.88277,1.22831,3.76499,2.45676,5.64721,3.6852Z" fill="#bf0606"/>
    <path d="M288.05972,156.44572c-2.05388-8.09034-5.717-15.51711-9.8336-22.68446-1.33952-2.33223-3.83255-4.00697-5.82327-5.95663-.54226-.53106-1.1765-.96816-1.76933-1.44864,.14248-.56654,.28576-1.13284,.50591-2.00298,3.86816,2.18499,7.05729,4.95419,8.99489,8.57097,3.13177,5.84568,5.71933,11.99021,8.38431,18.07528,1.10378,2.52025,1.81428,5.21275,2.70384,7.82673-.36595,.01546-.73209,.0311-1.09829,.04649-.68822-.80909-1.37634-1.61793-2.06447-2.42676Z" fill="#a2a2a2"/>
    <path d="M232.11036,171.25244c2.22436,4.73052,6.53955,6.74321,11.1067,8.19883,5.32258,1.69636,10.73913,3.10585,16.14285,4.5341,1.39432,.36852,2.89332,.34089,4.34242,.49496,.9831,.67629,1.96808,1.35285,2.95303,2.02945-.19726,.32501-.39455,.65002-.59193,.97466-7.4007-1.80764-14.84944-3.44153-22.18621-5.47871-5.56378-1.54484-9.98912-5.04771-14.24982-9.58689,1.06048-.49816,1.77172-.83228,2.48296-1.1664Z" fill="#a2a2a2"/>
    <path d="M240.47714,156.66814c.44872,4.15863,3.96591,5.51455,6.91857,7.06029,6.24221,3.26779,12.21156,7.20802,19.26037,8.7112,.53496,1.35395,1.07033,2.70797,1.60574,4.06199-3.58632-1.87338-7.22923-3.647-10.74691-5.64142-6.78976-3.84963-13.5045-7.83137-20.26732-11.72894-.42659-.24584-.99904-.23858-1.50387-.34956,1.57762-.70484,3.15552-1.40921,4.73343-2.11356Z" fill="#cfcdcd"/>
    <path d="M292.30199,192.78205c1.54931,1.39679,3.09858,2.79358,4.64801,4.19009-.01218,.16971-.02229,.33982-.02997,.50975-1.09131,1.71386-2.18275,3.42803-3.27527,5.14278-1.56694-1.50847-3.13276-3.01752-4.69864-4.52643,.09013-.27688,.18033-.5539,.27036-.83173,.28835-.44236,.57688-.88391,.86542-1.32545,.34577-.53105,.6915-1.06211,1.03727-1.59322l.51742-1.01707,.66539-.54872Z" fill="#9b0505"/>
    <path d="M235.17381,165.55074c3.04479,2.23278,6.08483,4.47207,9.1383,6.69294,.62139,.45199,1.29322,.83468,1.94191,1.24945-3.41259-1.19382-6.84106-2.34511-10.2312-3.59995-1.68191-.62252-3.29341-1.43537-4.9368-2.16212,1.36254-.72677,2.72517-1.45355,4.0878-2.18031Z" fill="#c9c7bc"/>
    <path d="M273.8979,139.00072c-1.22321-1.24645-2.3729-2.57769-3.68803-3.71812-1.68921-1.4648-3.5113-2.77635-5.27706-4.15414,.74009-1.70894,1.48111-3.41768,2.22222-5.12602,1.91229,3.55393,3.83545,7.10167,5.72781,10.66573,.39646,.74668,.67967,1.55346,1.01505,2.33255Z" fill="#c9c7bc"/>
    <path d="M261.90782,137.43748c-1.57864-.16555-3.15727-.33113-4.73633-.4963,.37245-1.4061,.74535-2.8126,1.11848-4.21911,1.20612,1.5718,2.41199,3.14361,3.61785,4.7154Z" fill="#cfcdcd"/>
    <path d="M231.11126,168.77162c.1473,.19031,.29463,.3806,.44177,.57107-.14739-.19024-.2946-.38065-.44177-.57107Z" fill="#c9c7bc"/>
    <path d="M274.94148,140.56743c-.33926-.51385-.67853-1.02769-1.01782-1.54123,.33923,.51395,.67849,1.02759,1.01782,1.54123Z" fill="#c9c7bc"/>
    <path d="M268.23117,176.55697c.29756,.21164,.59515,.4233,.89204,.63532-.29778-.21153-.5949-.42342-.89204-.63532Z" fill="#cfcdcd"/>
    <path d="M275.48906,141.60902c-.17344-.33837-.34685-.67674-.52026-1.01484,.17341,.33848,.34685,.67666,.52026,1.01484Z" fill="#c9c7bc"/>
    <path d="M265.70587,181.75388c.33097,.18152,.66192,.36303,.9935,.5443-.33075-.1816-.66214-.36295-.9935-.5443Z" fill="#cfcdcd"/>
    <path d="M285.87139,159.48136c-.16458-.18203-.32919-.36407-.49399-.54559,.16451,.18219,.32925,.36389,.49399,.54559Z" fill="#cfcdcd"/>
    <path d="M296.91666,183.39678l.30757,.26586c-.10866-.08234-.21734-.16469-.32571-.24729l.01814-.01857Z" fill="#fefefe"/>
    <path d="M296.44508,182.83045c.15715,.18883,.3143,.37764,.47151,.5664l-.01808,.01851c-.20437-.14232-.40845-.2849-.61422-.42583l.16078-.15908Z" fill="#fefefe"/>
    <path d="M247.28673,173.99641l.52415,.51581c-.17475-.17201-.34943-.34392-.52415-.51581Z" fill="#c9c7bc"/>
  </g>
  <g id="uuid-695d19db-9c63-4fb3-8b36-4fb97fa0cae4">
    <g>
      <g>
        <path d="M29.78181,11.90935c-.0007,.56287-.22773,1.1018-.63,1.4955l-6.7578,6.7577-7.2222-4.1713v-4.0975c0-1.17985,.95645-2.1363,2.1363-2.1363s2.1363,.95645,2.1363,2.1363h0v5.174l6.6848-6.6851c.83604-.83541,2.19101-.8349,3.02642,.00114,.40414,.40445,.62963,.95381,.62618,1.52556h0Z" fill="#fff"/>
        <path d="M29.15002,30.83022c-.40002,.39996-.94,.63-1.51001,.63-.28003,0-.56-.06-.82001-.16003-.26001-.10999-.48999-.26996-.69-.46997l-2.27002-2.27002-4.41998-4.40997v5.17999c0,1.17999-.95001,2.13-2.13,2.13s-2.14001-.95001-2.14001-2.13v-4.09003l7.23999-4.16998,4.47003,4.46997,2.27002,2.27002c.83997,.84003,.82996,2.19,0,3.02002Z" fill="#fff"/>
        <path d="M22.08002,20.47023c-.03003-.10004-.10004-.20001-.19-.26001-.01001,0-.02002-.01001-.03003-.02002l-1.82001-1.04999-4.87-2.81-4.12-2.38c-.23999-.14001-.52997-.06-.65997,.16998-.04999,.08002-.07001,.16003-.07001,.25v12.47998c0,.27002,.21997,.48004,.47998,.48004,.09003,0,.16998-.02002,.25-.06l4.12-2.38,6.69-3.85999c.02002-.02002,.04999-.03003,.07001-.05005,.06-.04999,.10004-.10999,.13-.17999,.03998-.09998,.04999-.21997,.02002-.32996Zm-10.19-5.03003l3.20001,1.84998,5.19,2.99005c.06,.03998,.10999,.07996,.13995,.13995v.01001c.04999,.09003,.06,.19,.03003,.28003-.02002,.08997-.09003,.16998-.16998,.21997l-5.19,3-3.20001,1.85004c-.17999,.09998-.41003,.03998-.51001-.14001-.03998-.04999-.04999-.12-.04999-.19V15.76021c0-.21002,.15997-.37,.37-.37,.07001,0,.13,.01001,.19,.04999Z" fill="#fff"/>
        <path d="M18.99531,20.68535c-.01916,.07061-.06604,.13048-.13,.166l-3.9035,2.2543-2.4039,1.3892c-.13446,.07804-.30673,.0323-.38477-.10217-.02499-.04305-.03811-.09196-.03803-.14173v-7.2869c.00028-.15619,.12713-.28257,.28331-.28229,.04892,.00009,.09698,.01287,.13949,.03709l2.4074,1.3905,3.9042,2.2543c.06349,.03546,.11026,.09472,.13,.1647,.0143,.05136,.0143,.10564,0,.157h-.0042Z" fill="#fff"/>
      </g>
      <g>
        <path d="M64.85999,20.1202l-5.95996-2.98999-3.67004-1.84003c-.20996-.12-.46997-.03998-.57996,.16003-.03003,.06-.05005,.12-.06,.17999l.12,9.90002c.02997,.22998,.23999,.40997,.47998,.37994,.06-.00995,.12-.02997,.16998-.06l.23004-.12,3.39996-1.81,2.09003-1.12,3.77997-2.01001c.09003-.04999,.16003-.13,.19-.22998,.03003-.07001,.03003-.15002,.01001-.21997-.03998-.10004-.10999-.18005-.20001-.22003Zm-5.95996,3.03003l-2.81,1.5c-.16003,.09998-.37006,.04999-.46002-.11005-.02002-.03998-.03998-.08997-.03998-.13995l-.10004-7.67999c.02002-.18005,.17999-.32001,.35999-.30005,.05005,0,.09003,.02002,.14001,.04004l2.85004,1.42999,1.01996,.51001,3.60004,1.81c.07001,.02997,.13,.08997,.15997,.16998,.01001,.04999,.01001,.10999-.01001,.15997h.01001c0,.01001-.01001,.02002-.02002,.03003-.01996,.07001-.06995,.12-.13,.15002l-4.56995,2.42999Z" fill="#fff"/>
        <path d="M62.32231,20.54035c-.01928,.05676-.06033,.10352-.1141,.13l-3.4321,1.83-2.1168,1.1271c-.11872,.0705-.27211,.03141-.34261-.08731-.01829-.0308-.02975-.06518-.0336-.10079l-.07-5.7784c.01014-.1372,.12958-.24021,.26678-.23007,.03664,.00271,.07224,.01349,.10422,.03157l2.144,1.0766,3.4762,1.7472c.05506,.02553,.09724,.07251,.1167,.13,.01417,.04218,.01417,.08782,0,.13l.0013-.0059Z" fill="#fff"/>
        <path d="M39.28998,15.3802l-2.27997,.02997-2.89001,.04004,.03003,2.82001,.08997,7.47998,2.46002-.02997-.04004-3.34003,2.71002-.03998c2.5-.03003,4.32001-1.49005,4.29999-3.53003-.02997-2.03998-1.88995-3.46002-4.38-3.42999Zm-.20996,4.94l-2.44,.02997-.04004-2.90997,2.45001-.03003c1.22003-.00995,2.06,.55005,2.07001,1.43005,.01001,.88995-.82001,1.46997-2.03998,1.47998Z" fill="#fff"/>
        <polygon points="53.40997 25.80019 45.20001 25.90022 45.08002 15.60018 47.56 15.57021 47.65997 23.8802 53.38 23.80019 53.40997 25.80019" fill="#fff"/>
        <polygon points="70.21997 21.8702 70.26001 25.59023 67.77002 25.6202 67.72998 21.90022 63.14001 15.3702 66.02002 15.34023 68.94 19.82021 71.87 15.27022 74.63 15.23018 70.21997 21.8702" fill="#fff"/>
        <polygon points="85.53003 26.10018 83.84998 26.1202 79.41998 21.3802 77.63 23.11019 77.66998 26.20021 76.35999 26.21022 76.23999 15.91017 77.53998 15.90022 77.60999 21.60018 83.37 15.82021 85.09003 15.80019 80.31 20.57021 85.53003 26.10018" fill="#fff"/>
        <path d="M92,15.55019c-3.17999,.04004-5.85999,2.5-5.83002,5.40002,.04004,2.89001,2.76001,5.31,5.96002,5.27002,3.20001-.04004,5.84998-2.52002,5.81-5.42004-.03003-2.89001-2.76001-5.28998-5.94-5.25Zm.41998,9.57001c-2.51001,.20001-4.71997-1.66998-4.91998-4.19,.13-2.27002,1.90997-4.08997,4.17999-4.28998,2.52002-.21002,4.72998,1.65997,4.94,4.17999-.13,2.27997-1.91998,4.12-4.20001,4.29999Z" fill="#fff"/>
        <path d="M108.19,23.20021c.02002,1.64001-1.33002,2.98999-4.02002,3.02002-1.65997,.06-3.27997-.5-4.53998-1.58002l.81-.92999c1.02997,.94995,2.38,1.46997,3.77997,1.44,1.78003-.02002,2.67004-.91003,2.66003-1.83002-.01001-1.09998-1.10999-1.52002-3.12-1.91003-2.32001-.45996-3.78003-1.07996-3.79999-2.87-.02002-1.64996,1.59998-2.95996,3.81-2.97998,1.47998-.03998,2.91998,.47003,4.04999,1.41998l-.78998,.92004c-.91003-.81-2.09003-1.27002-3.31006-1.28003-1.42999,.02002-2.44995,.87-2.43994,1.82001,.00995,1.07001,1.14996,1.42999,3.10999,1.82001,2.20996,.44,3.77997,1.13,3.79999,2.94Z" fill="#fff"/>
        <polygon points="121.85999 26.08022 120.56 26.10018 120.46002 18.32021 116.28003 25.55019 111.92999 18.42018 112.02002 26.20021 110.71002 26.22023 110.59003 15.91017 111.89001 15.90022 116.25 23.03023 120.42999 15.79018 121.72998 15.78023 121.85999 26.08022" fill="#fff"/>
        <path d="M130.07001,15.55019c-3.17999,.04004-5.85999,2.5-5.83002,5.40002,.04004,2.89001,2.76001,5.31,5.96002,5.27002,3.20001-.04004,5.84998-2.52002,5.81-5.42004-.04004-2.89001-2.76001-5.28998-5.94-5.25Zm.41998,9.57001c-2.52002,.20001-4.71997-1.66998-4.92999-4.19,.14001-2.27002,1.91998-4.09998,4.19-4.28998,2.51001-.21002,4.71997,1.65997,4.94,4.17999-.13,2.27997-1.91998,4.12-4.20001,4.29999Z" fill="#fff"/>
        <path d="M146.26001,23.20021c.02002,1.64001-1.34003,2.98999-4.02002,3.02002-1.65997,.06-3.27997-.51001-4.54999-1.58002l.81-.92999c1.03003,.94995,2.39001,1.46997,3.78998,1.44,1.77002-.02002,2.67004-.91003,2.65002-1.83002-.01001-1.09998-1.09998-1.52002-3.12-1.91003-2.31-.45996-3.78003-1.07996-3.79999-2.87-.02002-1.64996,1.60999-2.95996,3.82001-2.97998,1.46997-.03998,2.90997,.47003,4.04999,1.41998l-.79004,.92004c-.91998-.81-2.08997-1.27002-3.31995-1.28003-1.42004,.02002-2.45001,.87-2.44,1.82001,.01996,1.07001,1.15997,1.42999,3.12,1.82001,2.19995,.44,3.77997,1.13,3.79999,2.94Z" fill="#fff"/>
      </g>
    </g>
  </g>
  <rect x="221.42566" y="262.44724" width="107.87049" height="58.30091" fill="none" stroke="#fff" stroke-miterlimit="1" stroke-width="3"/>
  <rect x="229.04449" y="269.00268" width="92.63281" height="46.92858" fill="red"/>
  <polygon points="233.39395 232.94374 233.39395 248.16875 121.14787 248.16875 121.14787 232.94374 127.99415 232.94374 127.99415 233.54375 122.81404 233.54375 122.81404 247.57375 231.73604 247.57375 231.73604 233.54375 226.19299 233.54375 226.19299 232.94374 233.39395 232.94374" fill="none" stroke="red" stroke-miterlimit="1"/>
  <polygon points="115.932 232.94374 115.932 248.16875 3.68592 248.16875 3.68592 232.94374 10.53219 232.94374 10.53219 233.54375 5.35209 233.54375 5.35209 247.57375 114.27409 247.57375 114.27409 233.54375 108.73104 233.54375 108.73104 232.94374 115.932 232.94374" fill="none" stroke="red" stroke-miterlimit="1"/>
  <path d="M14.74237,189.54509c-1.85939,0-3.36696,1.50695-3.36696,3.36634,0,.74437,.24144,1.43231,.65157,1.98982l.00063,.00126,2.71477,4.70208,2.71539-4.70333c.4095-.55751,.65094-1.24545,.65094-1.98982,0-1.85939-1.50758-3.36634-3.36633-3.36634Zm0,4.90903c-.81838,0-1.48186-.66286-1.48186-1.48123,0-.81776,.66348-1.48124,1.48186-1.48124,.81775,0,1.48124,.66348,1.48124,1.48124,0,.81837-.66348,1.48123-1.48124,1.48123Z"/>
  <rect x="-.61793" y="123.975" width="187.08439" height="15.05119" opacity=".75"/>
  <rect x="-.61793" y="153.06675" width="187.08439" height="15.05119" opacity=".75"/>
</svg>