<svg id="aa7fa8ba-309e-413f-a232-fd6809fa7d79" data-name="Layer 1" xmlns="http://www.w3.org/2000/svg" xmlns:xlink="http://www.w3.org/1999/xlink" width="335" height="335" viewBox="0 0 335 335">
  <defs>
    <linearGradient id="f170a9b7-605e-4d58-8c34-8e2800c56635" x1="167.5" x2="167.5" y2="335" gradientUnits="userSpaceOnUse">
      <stop offset="0" stop-color="#262262"/>
      <stop offset="0.24" stop-color="#292262"/>
      <stop offset="0.39" stop-color="#312263"/>
      <stop offset="0.51" stop-color="#3f2365"/>
      <stop offset="0.62" stop-color="#542468"/>
      <stop offset="0.72" stop-color="#6e256b"/>
      <stop offset="0.81" stop-color="#8e266f"/>
      <stop offset="0.9" stop-color="#b52874"/>
      <stop offset="0.98" stop-color="#e02979"/>
      <stop offset="1" stop-color="#ee2a7b"/>
    </linearGradient>
    <linearGradient id="a2092ecf-c33c-410b-9a4d-557984af8c5f" data-name="New Gradient Swatch 3" x1="166.68" y1="317.8" x2="166.68" y2="56.97" gradientUnits="userSpaceOnUse">
      <stop offset="0" stop-color="#262262"/>
      <stop offset="0.13" stop-color="#2a2263"/>
      <stop offset="0.27" stop-color="#372364"/>
      <stop offset="0.42" stop-color="#4c2467"/>
      <stop offset="0.57" stop-color="#6a256a"/>
      <stop offset="0.72" stop-color="#90266f"/>
      <stop offset="0.87" stop-color="#be2875"/>
      <stop offset="1" stop-color="#ee2a7b"/>
    </linearGradient>
    <linearGradient id="aa6b88de-8fcc-47ca-8663-3f8fe1adbf03" x1="247.1" y1="30.98" x2="247.1" y2="17.2" xlink:href="#a2092ecf-c33c-410b-9a4d-557984af8c5f"/>
    <linearGradient id="bada5c88-ad62-41c3-8d4d-c4931a1db716" x1="241.16" y1="28.8" x2="241.16" y2="21.83" xlink:href="#a2092ecf-c33c-410b-9a4d-557984af8c5f"/>
    <linearGradient id="be56d934-ef9e-48a2-9c55-42d24ea90ee5" x1="240.79" y1="28.48" x2="240.79" y2="28.48" xlink:href="#a2092ecf-c33c-410b-9a4d-557984af8c5f"/>
    <linearGradient id="f1410d71-450e-4b1a-9848-41edc4756ceb" x1="236.91" y1="28.34" x2="236.91" y2="24.07" xlink:href="#a2092ecf-c33c-410b-9a4d-557984af8c5f"/>
    <linearGradient id="f2429362-839e-4353-9649-983248743d8e" x1="239.04" y1="23.9" x2="239.04" y2="23.81" xlink:href="#a2092ecf-c33c-410b-9a4d-557984af8c5f"/>
    <linearGradient id="aedd77ad-e517-4f9a-b281-dc69d1b86a2a" x1="241.61" y1="29.05" x2="241.61" y2="27.83" xlink:href="#a2092ecf-c33c-410b-9a4d-557984af8c5f"/>
    <linearGradient id="b7b13afa-b2ed-40c5-b4a0-d2d3677af431" x1="241.35" y1="27.7" x2="241.35" y2="26.72" xlink:href="#a2092ecf-c33c-410b-9a4d-557984af8c5f"/>
    <linearGradient id="a7471fdd-160c-4b9a-bd34-f06ee391ead2" x1="241.22" y1="27.05" x2="241.22" y2="25" xlink:href="#a2092ecf-c33c-410b-9a4d-557984af8c5f"/>
    <linearGradient id="b63208d1-1b4a-4b73-b477-d0cfebcfa7bd" x1="241.16" y1="26.05" x2="241.16" y2="23.6" xlink:href="#a2092ecf-c33c-410b-9a4d-557984af8c5f"/>
    <linearGradient id="f360faa5-dc3f-49f1-a371-4c0c1e99833b" x1="240.9" y1="25.62" x2="240.9" y2="22.52" xlink:href="#a2092ecf-c33c-410b-9a4d-557984af8c5f"/>
    <linearGradient id="b98dbd89-230e-4f74-9f65-4743be0aefbe" x1="240.79" y1="24.75" x2="240.79" y2="21.05" xlink:href="#a2092ecf-c33c-410b-9a4d-557984af8c5f"/>
  </defs>
  <rect width="335" height="335" fill="url(#f170a9b7-605e-4d58-8c34-8e2800c56635)"/>
  <g id="be6011e6-ef46-421a-a001-3f86e3d1b22a" data-name="layer1" opacity="0.36">
    <path d="M247,57h-.5a5.3,5.3,0,0,0-3.9,1.4l-1.6.9-.8.5a.5.5,0,0,1-.5.3,6.9,6.9,0,0,0-2.2,1.3,6.7,6.7,0,0,1-1.9.9,11.3,11.3,0,0,0-1.5.7l-.7.2a2.2,2.2,0,0,0-1,.3l-1.4.3h-.2c-.5,0-.7-.1-1.2-.6a5.9,5.9,0,0,1-1.3-1.4.7.7,0,0,0-.3-.5c-.2-.2-.4-.4-.4-.5a7,7,0,0,0-1.2-1.4l-1.2-1.1h-1.1c-1.1,0-1.2,0-1.7.7a3.1,3.1,0,0,0,.5,3.2,2.2,2.2,0,0,1,.5.8,4.7,4.7,0,0,0,.9,1.2,5.4,5.4,0,0,1,1,1.6,6.4,6.4,0,0,1,.6,1.1l.3.7a1.8,1.8,0,0,1,.3,1.1,7,7,0,0,0,.9,3,2.8,2.8,0,0,1,.5.8c.3.5.3.6,0,1l-.4.7-1.1,1.4-1.6,1.7-1.5,1.5-1.5,1.5-1.1,1-1.5,1.4L217.5,84a30.9,30.9,0,0,0-2.9,2.1l-3.1,2.2-1.3,1-1,.6a6.8,6.8,0,0,0-2,1.8l-1.5,1.6a17,17,0,0,0-3.1,4.5,12.4,12.4,0,0,1-2.9,3.7l-1.3.8a12,12,0,0,0-3.1,3l-2.2,3c-1,1.2-1.8,2.4-1.9,2.5a2.4,2.4,0,0,1-.9.8c-.9.6-1,.7-1.1,1.3a3,3,0,0,1-.7,1c-.4.5-.6.6-1.1.6a2.5,2.5,0,0,0-2,.9,1.5,1.5,0,0,1-.8.5,1.3,1.3,0,0,0-.7.4l-.5.5a.9.9,0,0,0-.6.4l-.6.4c-.4,0-4.6,3.3-5.8,4.6s-2.9,3.1-3,3.1h0l.5-1.1.8-1.4c.9-1.7,1.3-3.6,1.4-6.8v-2l-.8-1.8a11.8,11.8,0,0,1-.7-2.1,4.5,4.5,0,0,0-.7-1.5c-.6-1.1-.6-1.3-.5-1.8a13.8,13.8,0,0,0-.6-5c-.4-.7-1.3-1.5-1.6-1.5h0c-.1,0,0-.2.1-.5a7.4,7.4,0,0,0,.5-3.7c-.1-1.7-.2-2.4-.6-2.4h0c-.2,0-.5.3-.9.7a14.1,14.1,0,0,1-2.1,1.6,5,5,0,0,1-2.4,1.1,14.1,14.1,0,0,0-2.7.5l-2.5.8a12,12,0,0,0-2.1.9l-2.1,1.1c-1.8.9-4.3,2.6-4.7,3.4a2.3,2.3,0,0,1-.7.9,4,4,0,0,0-1.1,2l-.8,1.8a7.1,7.1,0,0,0-.8,1.8l-.6,2.1c-.6,1.6-.6,3.1,0,5.7s1.2,4.4,3.1,6.3a13.1,13.1,0,0,1,1.8,2,6,6,0,0,0,.9,1.3,4.1,4.1,0,0,1,.9,2.3,11.7,11.7,0,0,0,.4,1.6c.5,1.2.5,1.3.2,1.7a1.6,1.6,0,0,0-.2,1.2c0,1.2,0,1.2-.6,1.5a1.2,1.2,0,0,0-.7.7c-.1.5-.2.6-1.1.7s-2.3.3-2.4.6a.5.5,0,0,1-.5.3h-.7l-1.4.2h-.9l-.5-.2-1.2-.4h-.3c-.9,0-1.5.5-2.1,1.6s-1.7,2.6-2.4,2.9a14.5,14.5,0,0,0-3.3,2.2l-1,1-1.1.7-1.3.7a.9.9,0,0,0-.7.5l-.8.5c-.5.1-1.2.7-1.2,1a.9.9,0,0,1-.3.5,7.3,7.3,0,0,1-3.2,1.2c-.8,0-1.8.4-1.8.7l-1,.3-2,.9-1.3.7h0l-1.2-.8a3.1,3.1,0,0,0-1.2-.7h0a15.8,15.8,0,0,1-2.8-1.5l-1.4-.7-1.6-.6-1-.2-1.1-.4-2-1.1a14.2,14.2,0,0,1-3.6-2.6c-.5-.5-1.4-1.1-1.9-1.5a8.5,8.5,0,0,1-1.9-1.4,14.6,14.6,0,0,0-1.9-1.6,10.3,10.3,0,0,1-1.5-1.4c-.4-.5-.7-.7-1.1-.7h0l-.7.2h-.1c-.1,0-.1-.3-.1-1.2a9.8,9.8,0,0,0-.3-2.6c-.3-1.1-.3-1.2,0-1.7h0l-.6-.3h0l3-4.3c5.7-8.4,6.4-9.5,6.3-9.6s-.2-.2,1.1-1.5a30.3,30.3,0,0,1,7.5-5.5c1.8-.9,5.4-2.5,7.2-3.2l1.5-.7,1-.6a28.7,28.7,0,0,0,10.5-7.7,41.6,41.6,0,0,0,4.7-7.1c2.6-5.2,3.4-10.4,2.5-14.9a14.2,14.2,0,0,0-3.1-6.4,16.2,16.2,0,0,0-3.7-2.9,15.2,15.2,0,0,0-5.7-1.1,15.8,15.8,0,0,0-3.8.4,24.4,24.4,0,0,0-11.5,7.4,45.7,45.7,0,0,0-5.6,8.2,28.4,28.4,0,0,0-2.8,11.4c0,.6-.1,1.2-.1,1.3s-.1,1.1-.1,2.2c-.2,8-.7,11.3-2.7,16-.6,1.6-.7,2-.9,2h-.1l-.3-.2-6.5,9.6-3.2,4.7h0L88.8,128h0a1.5,1.5,0,0,0-1,.3c-.4.3-.5.5-.5,1.3s0,.9-.4,1a5.2,5.2,0,0,0-2.1,2.1l-.6,1.4a1.6,1.6,0,0,1-.5.9,1.5,1.5,0,0,0-.5,1.4,2.1,2.1,0,0,0,.6,1.7,2.4,2.4,0,0,1,.5,1.3,1.4,1.4,0,0,0,.5,1.1,5.9,5.9,0,0,0,2.3,1.4h0a.7.7,0,0,1,.5.3,6.6,6.6,0,0,0,2.3,1.5c.8.2,1.3.6,4,3.2l4.3,4.1,3.5,3.4a22.7,22.7,0,0,0,2.5,2.3h0l.8.5,1.5,1.3,1.3,1,.6.5a4.1,4.1,0,0,1,1.2.9,7.2,7.2,0,0,0,1.5,1.1l1.6.9a45.5,45.5,0,0,0,5.9,2.9l2.3,1,1.4.7h2.3l8.7.4,8.6.2h3.2l.7,1.7.7,1.7.2,3.3c.1,3.3.3,4.5.8,5.1a3.5,3.5,0,0,1,.2,1.3,3.2,3.2,0,0,0,.6,2,.8.8,0,0,1,.3,1.1l-.8.6c-.5.2-.5.4-.6,1.3a4.4,4.4,0,0,0,.1,2c.1.6.1.9-.1,1.1a5.5,5.5,0,0,0-.9,2.5c-.1.9-.1,1-.7,1.3l-.7.4v1.3c0,1-.1,1.2-.4,1.6s-2,2.8-1.3,3.9a2.3,2.3,0,0,1,.4.9,3.7,3.7,0,0,1-1.1,1,25.1,25.1,0,0,0-2.1,2.3c-1.5,1.8-1.6,2.2-1.7,6.6,0,2.7,0,3.3.2,3.9a1.1,1.1,0,0,1,0,1.3,4.3,4.3,0,0,1-.4,1.1,11.7,11.7,0,0,0-1,3,2.3,2.3,0,0,1-.4.9,1.4,1.4,0,0,0-.3.9.8.8,0,0,1-.2.6c-.4.1-.8,1.3-1,2.4s-.2,1.1-.3,1.5a20,20,0,0,0-.4,2.1,9.4,9.4,0,0,1-.3,2,4.4,4.4,0,0,0-.2,1,3,3,0,0,1-.3,1.2,4.1,4.1,0,0,0-.3,1.6,1.3,1.3,0,0,1-.3,1,1.5,1.5,0,0,0-.3.8,12.4,12.4,0,0,1-.4,1.6,10,10,0,0,0-.2,1.6,2.8,2.8,0,0,1-.4,1.2,1.6,1.6,0,0,0,.3,2.1c.3.2.3.3.2,1.3a7.8,7.8,0,0,1-.3,1.4c0,.1-.1,1.9-.1,3.8a36.8,36.8,0,0,1-.3,4.3,8,8,0,0,0-.4,1.8,5.2,5.2,0,0,1-1,2.6,24.6,24.6,0,0,0-1.6,3c-.6,1.2-1.1,1.7-1.8,1.7a3.5,3.5,0,0,0-1.4.7l-1.3.7a12.1,12.1,0,0,0-3.6,3.1l-.4.8a6.6,6.6,0,0,0-1.1,2.1c-1.1,2.2-1.1,2.3-1.3,2.6a6.9,6.9,0,0,0-.6,1.4c-.5,1.6-.7,2.2-.9,2.2s-.5.3-.8.6l-3.2,4.2a10.1,10.1,0,0,1-1.9,2.3,11.1,11.1,0,0,0-1.6,1.7c-.5,1.2-1.3,3.3-1.9,5.3s-.9,2.6-1.3,3.6a13.4,13.4,0,0,0-.9,3.1c-.1.7-.4,2-.6,2.9a11.4,11.4,0,0,0-.3,2.1,5,5,0,0,1-.3,1.6,39.9,39.9,0,0,0-.8,8.6,4.2,4.2,0,0,0,1,2.8l1,1.4,4.5.6,4.4.6,2.2-.5,2.1-.6,1.1-1.6a13.1,13.1,0,0,0,1.2-2.2,89.4,89.4,0,0,0-.2-10.3,17.1,17.1,0,0,1,.4-8.2,3.1,3.1,0,0,0,.2-.8,2.4,2.4,0,0,1,.7-1.3,4.3,4.3,0,0,0,.4-1.1,1.9,1.9,0,0,1,.2-1,2.6,2.6,0,0,0,.4-1.3,5,5,0,0,1,.3-1.4,1.1,1.1,0,0,0,.2-.6.8.8,0,0,1,.4-.6l.5-.6a3,3,0,0,1,.8-.9,5.7,5.7,0,0,0,1.1-1.1.8.8,0,0,1,.5-.5l1.1-.6,1.1-.6,1.3-1.1,1.5-1.3a7.6,7.6,0,0,0,2.2-1.4,5.4,5.4,0,0,0,1.1-1.3,3.5,3.5,0,0,1,2.3-2,8.5,8.5,0,0,0,2.2-1.6l1.4-1.2c.4,0,3.5-3.2,3.7-3.8s.2-.5.3-.5.3-.3.5-.6a36.3,36.3,0,0,1,2.1-3.9.7.7,0,0,0,.1-.5,1.3,1.3,0,0,1,.3-.7,4.9,4.9,0,0,0,.4-1.1,38.9,38.9,0,0,1,1.7-4.1,6.6,6.6,0,0,0,.5-1.5,5,5,0,0,1,.5-1.3c.1-.3.4-1.3.6-2.2a15.6,15.6,0,0,1,1.3-4l.3-.7h2.2c1.8,0,2.3,0,2.9-.3a5.3,5.3,0,0,1,1.8-.4c1.2,0,1.5-.2,1.6-1.2a2.3,2.3,0,0,1,.4-1,4.1,4.1,0,0,0,.3-1,4.9,4.9,0,0,1,.3-1.4,2,2,0,0,0,.3-.8l.2-.4a.7.7,0,0,0,.3-.6,3.9,3.9,0,0,1,.8-1.9.9.9,0,0,0,.4-.5c0-.2,0-.3.1-.3a3.3,3.3,0,0,0,.7-1.1l.7-1.2a3,3,0,0,0,.3-1.1c.2-.6.3-1,.4-1h0c.1,0,.2.2.2.4s.2.6.3.6a.8.8,0,0,1,.2.5,1.1,1.1,0,0,0,.3.8,8,8,0,0,1,.9,2.6,2.8,2.8,0,0,0,.4.8c.3.4.3.6.3,2.1a4.5,4.5,0,0,0,.3,2.2,4.5,4.5,0,0,1,.2.8,1.3,1.3,0,0,0,.4.7,1.9,1.9,0,0,1,.3.9c0,.4.3.7,1.9,2.4a4.8,4.8,0,0,0,3.3,1.7h0c.4,0,.6.1.8.6a22,22,0,0,1,1.5,6,14.4,14.4,0,0,0,.4,2.3,2.4,2.4,0,0,1,.3,1.2,35.1,35.1,0,0,0,1,5.8,6.9,6.9,0,0,1,.2,1.3c0,.6-.1.7-1,1.3a6.9,6.9,0,0,0-1.5,1.4,29.3,29.3,0,0,1-2.2,3,7.9,7.9,0,0,0-.8,1.3,4.9,4.9,0,0,1-1,1.6,4.5,4.5,0,0,0-.5.8,4.2,4.2,0,0,1-.5,1,9.6,9.6,0,0,0-1.1,3.9,2.3,2.3,0,0,1-.7,1.6,4,4,0,0,0-1.1,1.7.9.9,0,0,1-.3.5.5.5,0,0,0-.3.5,16.3,16.3,0,0,1-1.9,3.7l-.7.3-.6.2-.8.5a1.8,1.8,0,0,0-1.4,2.1,11.7,11.7,0,0,1-.5,2l-.7,2a17.8,17.8,0,0,1-1.3,3.7,5.3,5.3,0,0,0-.3,2.4c0,2.1.3,2.8,1.2,3.5l1.3,1.2,1,.8h0l.5.3a2.7,2.7,0,0,0,1.2.6l1,.5a4.9,4.9,0,0,0,2.5.4h3.5c.3,0,1.1,1.8,1.1,2.5a2.1,2.1,0,0,0,.4,1.1l.5.7a30.2,30.2,0,0,0,3.4,1.6l3.3,1.5h8.8l.8-1.6.7-1.6-.5-2.1c-.4-1.9-.5-2.2-1-2.6l-.6-.5h0c-.1,0-.2-.2-.3-.4a3.8,3.8,0,0,0-1.7-1.6c-.1,0-.3-.2-.4-.5a2.6,2.6,0,0,0-1.5-1.6,2.1,2.1,0,0,1-1-.8,1.8,1.8,0,0,0-1-.9c-.5-.3-.7-.5-.7-.8s-.2-.7-.7-.8-.7-.4-.7-1.1a.8.8,0,0,0-.4-.8c-.4-.2-.4-.2.3-.6s1-.9.6-1.8-.9-.8-2.1-.8H180c-.7,0-.7-.1-1-.6s-.3-1.4,1.3-3.1a8.8,8.8,0,0,0,1.5-1.8c0-.1.4-.4.8-.6l1.2-1,2.1-1.9.9-.9a15,15,0,0,1,2.4-2.2l.7-.5c0-.1,1-1.5,2.5-3.5a5.2,5.2,0,0,0,.7-1.1,2.9,2.9,0,0,1,.4-.8c.2-.1.4-.7.6-1.2a16.7,16.7,0,0,1,1.5-4,7.3,7.3,0,0,0,.7-2.4,2.8,2.8,0,0,1,.3-1.4,15.1,15.1,0,0,0,.2-3.1,23.9,23.9,0,0,1,.3-3.3,8.5,8.5,0,0,0,.4-2.6c.1-1.2.2-3,.3-4a43.2,43.2,0,0,0-.2-9.8c-.4-1.5-.4-5.7,0-6.5a1.6,1.6,0,0,0,.3-.8,16.1,16.1,0,0,0-1.5-3.3,1.9,1.9,0,0,1-.3-1.3,7.9,7.9,0,0,0-.2-1.7,4.4,4.4,0,0,1-.3-1.9c0-1.1-.1-1.3-.4-1.6a1.9,1.9,0,0,1-.3-1.2,3.3,3.3,0,0,0-.3-1.5c-.5-.8-.8-3.3-.8-5.1a8.8,8.8,0,0,1,.7-3.6,6.5,6.5,0,0,0,0-3.4,14.8,14.8,0,0,1-.9-3.3.9.9,0,0,0-.3-.5.8.8,0,0,1-.4-.6,2.2,2.2,0,0,0-.3-1,5,5,0,0,1-.2-1.2,2.1,2.1,0,0,0-.4-1,1.1,1.1,0,0,1-.3-.6l-.4-.4a1.9,1.9,0,0,1-.3-1.2,6.3,6.3,0,0,0-.9-3c-.4-.5-.6-1.3-.3-1.4a3.3,3.3,0,0,1,1.4-.2c1.3,0,2.1-.4,2.3-1a16.8,16.8,0,0,0-.4-5.1,15.5,15.5,0,0,1-.4-1.5,10.1,10.1,0,0,0-.6-3,2.9,2.9,0,0,1-.3-1,3.7,3.7,0,0,0-.4-1.5,7.1,7.1,0,0,1-.5-2.2c-.1-.9-.3-2.2-.4-2.9s-.2-1.5,0-1.9a14.9,14.9,0,0,0,.2-3.9,43.4,43.4,0,0,1,.6-6.9,22.8,22.8,0,0,0,.2-3.5,18.9,18.9,0,0,0-.4-4.2c-.5-2-.8-3.9-.6-4s.6-1.2.7-3.5a12.4,12.4,0,0,0-.3-3.7,11.8,11.8,0,0,1-.4-3.4c-.1-2.8.3-3.9,2.2-6.8a35.9,35.9,0,0,0,1.7-3.2l.6-.9a1.5,1.5,0,0,0,.3-.7,8.8,8.8,0,0,1,.7-1.2,2.1,2.1,0,0,1,1.3-1l1.3-.7c.5-.4.5-.5.6-2.2a7.2,7.2,0,0,1,.3-2.1,10.9,10.9,0,0,0,.3-1.7,5,5,0,0,1,1.1-3.1,2.8,2.8,0,0,0,.5-.9,2.6,2.6,0,0,1,.5-.9,1.1,1.1,0,0,0,.3-.6l.6-1.3.8-1.7.5-.9a18.8,18.8,0,0,0,.9-1.9c.5-.8,1.2-2,1.6-2.5s1.7-2,1.7-2.2a.3.3,0,0,1,.3-.3,17.6,17.6,0,0,0,2.5-3.5c.4-.9.3-.8,3.2-3.5l1.7-1.5a50.8,50.8,0,0,0,3.8-3.6l1.3-1.5A2.8,2.8,0,0,1,222,95a7.3,7.3,0,0,0,1.7-2.3,17.7,17.7,0,0,1,1.4-1.7,9.4,9.4,0,0,0,1.4-1.6,13.4,13.4,0,0,1,1.1-1.4,23.7,23.7,0,0,0,2.3-3,5.5,5.5,0,0,1,2-2.4,3.6,3.6,0,0,0,2.1-2.1,2.6,2.6,0,0,1,.5-.9,2.8,2.8,0,0,0,.5-.9c.1-.5.5-1.2,1.8-3l1-1.7a3.2,3.2,0,0,1,1.8-1,1.5,1.5,0,0,0,.8-.5,1.2,1.2,0,0,0,.5-1.2c0-.7,0-.7.6-.7a2.7,2.7,0,0,0,1.3-.5l1.2-.5,1.3-.5a3.4,3.4,0,0,1,1.4-.5c1.5,0,3-1.2,3-2.4s-.1-.7-.7-1.2-.7-.5-1.1-.5h-.3a13.7,13.7,0,0,0-2.9.7h-.1l.3-.3a8.4,8.4,0,0,1,3.4-1.2l1.4-.4c.3-.1.5-1.1.4-1.8s-.7-1-1.8-1.2-.9-.1-.7-.2,1.2-1.4,1.2-1.9a1.4,1.4,0,0,0-.5-.9c-.3-.3-.5-.4-1.3-.4ZM125.8,69.1h0c.1.1-.1.2-.2.5s-.2.2-.3.2H125l-.3-.3Zm2-.2a12.1,12.1,0,0,1,3.3.5c.1.1-.1.4-.9,1.6l-1.1,1.4-1.5-1-1.5-1,.4-.7.4-.7h.9Zm-4.3.9.7.3.7.5-1.1,1.6-1.1,1.6-1.5-1.1c-1.4-.9-1.5-1-1.4-1.2a16.7,16.7,0,0,1,3.1-1.6Zm-5.8,3.1h0l-.6,1c-.5.7-.6.9-.8.9h-.2l-.2-.3A11.9,11.9,0,0,1,117.7,72.9ZM132,69.7l.5.2.6.3,1.6,1.1.5.4L134,73.4l-1.1,1.7L131.3,74l-1.5-1,1.1-1.7ZM125.5,71l1.6,1.1,1.6,1.1-1.1,1.5-1.1,1.6L125,75.2l-1.5-1,1-1.6Zm-6.3,1.3,1.6,1.1,1.5,1-1,1.5-1.1,1.6-1.5-1.1-1.5-1,1-1.5Zm16.7.2h0l.8,1.1.9,1.6.3.7-.6.9-.6.9-1.5-1.1-1.6-1,1.1-1.6C135.5,72.9,135.8,72.5,135.9,72.5Zm-20.7,2.7.3.2.4.2-1.1,1.6-1,1.5-.6-.4-.6-.4.3-.4C114.5,75.7,114.9,75.2,115.2,75.2Zm22.9,1.9h.1l.2.8a3.9,3.9,0,0,1,.1.9h0l-.6-.3-.5-.4.4-.5A1.4,1.4,0,0,1,138.1,77.1Zm-8.7-3.5,1.5,1.1,1.5,1-1,1.6-1.1,1.6-1.6-1.1-1.5-1,1.1-1.6ZM123,74.8l1.5,1.1L126,77l-1,1.6-1,1.5L122.4,79l-1.5-1.1,1-1.5Zm-6.4,1.4,1.6,1,1.5,1-1.1,1.6-1,1.5-1.5-1.1-1.6-1,1.1-1.5Zm16.6,0,1.5,1.1,1.6,1-1.1,1.6-1.1,1.6-1.5-1L131,79.4l1.1-1.6Zm-21.1,2.3.6.4.6.4-1,1.6-1.1,1.6-.6-.4-.5-.4,1-1.6Zm14.7-1,1.5,1,1.5,1-1,1.6-1.1,1.5-1.5-1-1.5-1.1,1-1.5Zm-6.5,1.2,1.6,1.1,1.6,1-1,1.6-1.1,1.5-1.6-1.1-1.5-1.1,1-1.5Zm16.6.1.9.6.8.6v.9c0,1.8-.1,2.3-.4,2.7l-.3.4-1.5-1-1.6-1.1,1.1-1.6Zm-22.8,1.1,1.5,1,1.6,1-1.1,1.6L115,85.1l-1.5-1L111.9,83l1.1-1.6Zm16.5.2,1.5,1,1.5,1-1,1.6-1,1.5-1.6-1-1.5-1.1,1-1.5Zm-20.9,2.4.5.3.5.4-1,1.5-1,1.5-.3-.2c-.3-.2-.2-.5.5-2a6.4,6.4,0,0,1,.6-1.2C109.6,82.6,109.6,82.5,109.7,82.5Zm14.5-1.2,1.5,1,1.5,1.1-1,1.5-1.1,1.5-1.5-1-1.5-1.1,1-1.5Zm-6.4,1.2c.2,0,.6.3,1.6,1l1.5,1.1-1.1,1.5-1,1.5-1.5-1-1.6-1.1,1-1.4a6.7,6.7,0,0,1,1.1-1.5Zm16.5.1,1.5,1.1,1.6,1.1-1,1.5-1,1.5-1.6-1.1-1.6-1,1.1-1.6Zm-26.4,4.2a.1.1,0,0,0,.1.1c.1.1,0,.2-.3.6l-.4.6v-.5C107.6,87.1,107.7,86.8,107.9,86.8Zm3.6-3.1,1.5,1,1.6,1.1-1.1,1.5-1,1.5-1.6-1-1.5-1.1,1.1-1.5Zm26.6,1.6v.6l-.5,1.7c-.2.7-.4,1.2-.4,1.2h0l-.6-.2-.5-.3,1.1-1.5ZM128,83.9l1.5,1L131,86l-1,1.5L129,89l-1.6-1-1.5-1.1,1-1.5ZM121.6,85l1.6,1,1.5,1.1-1.1,1.6-1.1,1.5-1.5-1-1.5-1,1.1-1.6Zm-6.4,1.2,1.6,1.1,1.6,1.1-1.1,1.5-1,1.5-1.6-1.1-1.6-1,1.1-1.6Zm16.5.2,1.6,1.1,1.6,1.1-1.1,1.5-1,1.4-1.6-1-1.6-1,1.1-1.6Zm-22.8,1.1,1.5,1,1.6,1.1-1.1,1.5-1,1.5-1.6-1-1.5-1,1.1-1.6Zm16.6.1,1.5,1,1.5,1.1-1.1,1.6-1,1.5-1.6-1-1.5-1,1.1-1.6Zm10,1.4.6.4.6.4-.4.8-.8,1.7-.5.8-.8-.5-.8-.5,1.1-1.6ZM119,88.8l1.6,1.1,1.5,1L121,92.4,120,94l-1.5-1.1-1.5-1,1-1.6ZM112.6,90l1.6,1.1,1.6,1.1-1.1,1.5-1,1.5-1.6-1.1-1.6-1,1.1-1.5Zm16.6.3c.2,0,.6.2,1.6.9l1.4,1.1-1,1.5-1,1.6-1.6-1.1-1.5-1,.9-1.5c.6-.7,1-1.4,1.1-1.5Zm-22.7,1.1,1.5.9,1.4,1-1,1.5-1.1,1.6-.5-.4-.5-.4V94.4c0-1.2.2-2.9.2-3Zm16.4,0,1.5,1.1,1.5,1-1,1.5-1.1,1.6-1.5-1.1-1.5-1,1-1.6ZM133,92.7l.8.6.7.6-.4.8L133,96.2l-.7.7-.7-.5-.8-.5,1.1-1.6Zm-26.4,4.1h.1c0,.1.1.3,0,.4a.1.1,0,0,1-.1.1s-.1,0-.1-.2S106.5,96.8,106.6,96.8Zm9.8-4.2,1.6,1.1,1.5,1-1.1,1.6-1,1.5-1.5-1.1-1.6-1,1.1-1.5Zm-6.3,1.3a7.5,7.5,0,0,1,1.6,1l1.5,1-1,1.5-1,1.6-1.6-1.1L108,96.8l1-1.4a4.7,4.7,0,0,1,1.1-1.5Zm16.5,0,1.5,1.1,1.5,1.1-.9,1.5-1,1.6-1.6-1.1L124.5,97l1-1.5Zm3.8,2.7.7.4c.7.5.7.5.5.8a17.5,17.5,0,0,1-1.8,2l-.5.5-.5-.4-.5-.3,1-1.5Zm-10.1-1.4,1.5,1.1,1.5,1-1,1.6-1.1,1.5-1.5-1.1-1.5-1,1-1.5Zm-6.4,1.2,1.5,1,1.6,1-1.1,1.6-1,1.5-1.6-1.1-1.5-1,1.1-1.5Zm-6.4,1.2,1.6,1,1.5,1-.9,1.5a8,8,0,0,1-1.1,1.4h0a9.7,9.7,0,0,1-1.6-2.9c-.3-.9-.3-1,.1-1.5l.4-.5Zm20.3,2.8.4.2.3.3a26.2,26.2,0,0,1-2.1,1.7h0c-.1,0,.2-.5.6-1.1ZM124,97.8l1.5,1,1.6,1.1-1,1.5-1.1,1.5-1.5-1-1.6-1.1,1-1.5ZM117.7,99l1.6,1,1.5,1-1.1,1.6-1,1.5-1.5-1-1.6-1.1,1.1-1.5Zm-6.3,1.2,1.5,1,1.5,1-1.1,1.6-1.2,1.7-.5-.3a5.5,5.5,0,0,1-1.8-1.3l-.6-.6,1-1.5a8.2,8.2,0,0,1,1.2-1.6Zm10.1,1.4a16.1,16.1,0,0,1,3,2.1c0,.2-1,.7-2.6,1.4l-1.1.4-.7-.5-.7-.5.9-1.4a9.8,9.8,0,0,1,1.2-1.5Zm-2.6,3.7c.2,0,.8.4.7.5s-.3.1-.7.2h-.6l.2-.4.4-.4Zm-3.7-2.6,1.5,1,1.5,1.1-.5.7-.5.8h-.9a11.8,11.8,0,0,1-2.7-.3l-.6-.2,1.1-1.5Zm-9.2-.2h0l.5.8a9.2,9.2,0,0,0,3.1,3.1,9.1,9.1,0,0,0,4.9,1.9,4.4,4.4,0,0,1-1.4.8,31.3,31.3,0,0,0-5.1,3c-1.3,1-3.9,3.3-4.9,4.3l-.8.7h0l.2-.6a43.5,43.5,0,0,0,2.2-5.9,33.9,33.9,0,0,0,1.2-7C105.9,103,105.9,102.5,106,102.5Z" fill="url(#a2092ecf-c33c-410b-9a4d-557984af8c5f)"/>
    <path d="M251.6,30.7l-1.9.3-2-.3-1.3-.3-.7-.3a18.9,18.9,0,0,1-1.9-1.4c-.1,0,0-.1.2-.2h.3c.1-.1,0-.3-.5-.7s-.5-.5-.5-.6.1-.2.3-.3.4-.2-.2-.7l-.4-.5s0-.1.2-.1.3-.1.2-.3,0-.2-.3-.4-.5-.5-.4-.7l.2-.2c.4-.3.3-.4-.2-.8l-.3-.2h0a.1.1,0,0,0,.1-.1l.6-.7c.1-.1,0-.2-.2-.3s-.3-.1.2-.6a17.3,17.3,0,0,1,1.9-1.8l.5-.5,1.1-.4,2.9-1.2h.2a6.3,6.3,0,0,1-.4.9v.2c.2,0,.2.1.2.3l-.4.4-.3.4c0,.2.1.3.6.5l.3.2h0l-.8,1.2-.3.4.9,1.3.3.4h0l-.3.5c-.2.4-.3.5-.3.6s.2.4.7.7.6.5.6.8a.5.5,0,0,1-.2.6c-.1.2-.2.2-.1.4l.4.5q.6.3.6.6c0,.1-.1.3-.2.3s-.1.1-.1.2l-.2.2a.4.4,0,0,0-.1.3h-.1l.3.3.9.8v.2Z" fill="url(#aa6b88de-8fcc-47ca-8663-3f8fe1adbf03)"/>
    <path d="M241.6,22.8h.2a.4.4,0,0,1-.1.3c0,.1,0,.1-.1.2l-1.4.8h-.3V24a.7.7,0,0,1,.1-.5h.1l.4-.2h.4Zm.2,1h.1v.3c0,.2-.3.4-.4.4l-.6.3h0l-.8.3H240c-.1-.1-.1-.1-.1-.2h0c0-.2,0-.3.1-.3l.5-.2,1.3-.5Zm-.3,1.2h.4c.1.1.1.1.1.2s-.1.4-.3.4l-.4.2h-.2l-.7.3h-.3a1.3,1.3,0,0,1-.1-.6l.3-.3h0l-.6.2.6-.2h1.2Zm.6-3.2h0V22h0c-.1.2-.2.3-.2.4l.3-.2-.3.2h0a.1.1,0,0,1-.1-.1h0l-.6.3-.9.5h0l-.5.3h-.1l.4-.2h-.1l-.3.2h0v.7h-.3l-.2.2h.2a.1.1,0,0,1,.1-.1c.1,0,.1,0,.1.1h.1v.3h-.2c0,.1-.1.1-.2.2h.3c.1,0,.1,0,.1.1h.1V26a.3.3,0,0,0,.1.2h0c0,.2-.1.2-.2.3h.3v.2a.4.4,0,0,1,.1.3h.4V27a1.3,1.3,0,0,1-.1-.5h.4l1-.2h.4c.2,0,.1.1.2.4v.4a.1.1,0,0,0-.1.1h-2.2l-.5.2h.8c.2.2.2.4.1.5H240c.4,0,.7.1.7.3h.4l1.3.3c.2,0,.2-.1.1-.2h-1l-1.3-.2h0l2.2.3c-.2-.2-.5-.3-1.2-.3h-.5a.8.8,0,0,1-.2-.5c.1,0,.1,0,.1-.1h2.1l-1.7.2h.5a1.1,1.1,0,0,1,.9.3,1.1,1.1,0,0,1,.2.5v.2c0,.1.1.2.1.3h.5v-.2h0a5,5,0,0,0-.4-1.3v-.3l-.3-1v-.3a3.6,3.6,0,0,1-.2-1v-.2h0a1.3,1.3,0,0,1-.1-.6V21.9Z" fill="url(#bada5c88-ad62-41c3-8d4d-c4931a1db716)"/>
    <path d="M240.8,28.5Z" fill="url(#be56d934-ef9e-48a2-9c55-42d24ea90ee5)"/>
    <path d="M238.6,28.1a11.6,11.6,0,0,1-2.3.2h-.4a2.1,2.1,0,0,1-.7-3.2c.4-.5,1-.7,2.2-.8h1.1v.5c0,.3.1.9.1,1.2s.2,1.3.3,1.8a1.8,1.8,0,0,1,.1.5Z" fill="url(#f1410d71-450e-4b1a-9848-41edc4756ceb)"/>
    <path d="M239,23.9h0Z" fill="url(#f2429362-839e-4353-9649-983248743d8e)"/>
    <path d="M245.3,28.7l-7.2-.9-.2.2c0,.1.1.1.2.1l7.2,1v-.4" fill="url(#aedd77ad-e517-4f9a-b281-dc69d1b86a2a)"/>
    <path d="M244.9,26.7l-7,.7a.2.2,0,0,0-.2.2h.2L245,27v-.3" fill="url(#b7b13afa-b2ed-40c5-b4a0-d2d3677af431)"/>
    <path d="M244.7,25l-6.9,1.7v.2c0,.1.1.2.2.1l6.9-1.7V25" fill="url(#a7471fdd-160c-4b9a-bd34-f06ee391ead2)"/>
    <path d="M244.2,23.6l-6.1,2.2c-.1,0-.1.1-.1.2s.1.1.2,0l6.1-2.1v-.3" fill="url(#b63208d1-1b4a-4b73-b477-d0cfebcfa7bd)"/>
    <path d="M243.8,22.5l-5.9,2.8c0,.1-.1.1,0,.2s.1.1.2.1l5.9-2.8-.2-.3" fill="url(#f360faa5-dc3f-49f1-a371-4c0c1e99833b)"/>
    <path d="M243.5,21.1,238,24.5c-.1,0-.1.1-.1.2h.2l5.6-3.4-.2-.2Z" fill="url(#b98dbd89-230e-4f74-9f65-4743be0aefbe)"/>
  </g>
  <g>
    <circle cx="64.6" cy="202" r="45.5" fill="#fff200"/>
    <g>
      <path d="M64.6,152.7A49.3,49.3,0,1,0,113.9,202,49.3,49.3,0,0,0,64.6,152.7Zm0,97.3a48,48,0,1,1,48-48A48,48,0,0,1,64.6,250Z" fill="#fff"/>
      <path d="M64.6,147.4A54.6,54.6,0,1,0,119.2,202,54.7,54.7,0,0,0,64.6,147.4Zm0,106.5A51.9,51.9,0,1,1,116.5,202,51.9,51.9,0,0,1,64.6,253.9Z" fill="#fff"/>
    </g>
  </g>
  <g>
    <g>
      <path d="M32.9,21.4a1.3,1.3,0,0,1-.4,1l-4.4,4.4-4.7-2.7V21.4a1.4,1.4,0,0,1,2.8,0h0v3.4l4.3-4.4a1.5,1.5,0,0,1,2,0,1.4,1.4,0,0,1,.4,1" fill="#fff"/>
      <path d="M31.5,34.1H31c-.2,0-.3-.1-.5-.3l-4.3-4.3v3.3a1.4,1.4,0,1,1-2.8,0V30.1l4.7-2.7,4.4,4.4a1.3,1.3,0,0,1-1,2.3" fill="#fff"/>
      <path d="M27.9,27c0-.1-.1-.1-.1-.2h0l-1.2-.7-3.2-1.8-2.7-1.6a.4.4,0,0,0-.4.2h0v8.1c0,.2.1.3.3.4h.1l2.7-1.5,4.4-2.6h.1Zm-1.1.1c0,.1,0,.2-.1.2l-3.3,1.9-2.1,1.2a.3.3,0,0,1-.4,0V23.9c0-.1.1-.2.3-.2h.1l2.1,1.2,3.3,2c.1,0,.2.1.1.2Z" fill="#fff"/>
      <path d="M25.9,27.1h-.1l-2.5,1.5-1.6.9c-.1.1-.2,0-.2-.1s-.1,0-.1-.1V24.7a.2.2,0,0,1,.2-.2c.1,0,.1,0,.1.1l1.6.9,2.5,1.4a.1.1,0,0,1,.1.1h0" fill="#fff"/>
    </g>
    <g>
      <path d="M55.8,26.9h-.1l-3.9-2-2.4-1.2c-.1-.1-.4.1-.4.2v6.5a.3.3,0,0,0,.4.2l2.4-1.3,3.8-2c.1,0,.1-.1.1-.2S55.9,26.9,55.8,26.9Zm-.9.1c0,.1,0,.1-.1.2l-3,1.5-1.8,1c-.1.1-.3,0-.3-.2V24.6c0-.2.1-.3.3-.2h0l1.9.9,3,1.5h.1Z" fill="#fff"/>
      <path d="M54.1,27H54l-2.2,1.2-1.4.7c-.1.1-.2.1-.2,0a.1.1,0,0,1-.1-.1V25.2l.2-.2h0l1.4.7L54,26.9h.1" fill="#fff"/>
      <path d="M35.7,23.7h3.4c1.6,0,2.8.9,2.8,2.2s-1.1,2.3-2.8,2.3H37.4v2.2H35.8ZM39,26.9c.7,0,1.3-.4,1.3-1s-.6-.9-1.4-.9H37.3v1.9Z" fill="#fff"/>
      <path d="M48.3,29.2v1.3H42.9V23.8h1.6v5.4Z" fill="#fff"/>
      <path d="M57.6,27.9l-3-4.2h1.9l1.9,2.9,1.9-3h1.8l-2.9,4.3v2.4H57.6Z" fill="#fff"/>
      <path d="M63.1,24H64v3.7L67.7,24h1.2l-3.1,3.1,3.3,3.6h-1l-2.9-3.1L64,28.7v2h-.8Z" fill="#fff"/>
      <path d="M69.6,27.3a3.6,3.6,0,0,1,3.8-3.5,3.7,3.7,0,0,1,3.8,3.4,3.8,3.8,0,0,1-7.6.1Zm6.8-.1a3,3,0,0,0-6,.1,2.9,2.9,0,0,0,3,2.7,3,3,0,0,0,3-2.8Z" fill="#fff"/>
      <path d="M78.3,29.7l.5-.6a3.7,3.7,0,0,0,2.5.9c1.1,0,1.7-.6,1.7-1.2s-.7-.9-2-1.2-2.5-.7-2.5-1.9A2.3,2.3,0,0,1,81,23.8a3.9,3.9,0,0,1,2.6.9l-.5.6a3.4,3.4,0,0,0-2.1-.8c-1,0-1.6.6-1.6,1.2s.7.9,2,1.2,2.5.7,2.5,1.9-.9,1.9-2.6,1.9A4.2,4.2,0,0,1,78.3,29.7Z" fill="#fff"/>
      <path d="M85.4,24h.9l2.8,4.7,2.7-4.8h.9v6.7h-.9v-5l-2.8,4.7-2.8-4.6v5h-.9Z" fill="#fff"/>
      <path d="M94.3,27.3a3.7,3.7,0,0,1,3.8-3.5,3.8,3.8,0,0,1,3.9,3.4,3.9,3.9,0,0,1-7.7.1Zm6.8-.1a3,3,0,0,0-5.9.1,3,3,0,0,0,5.9-.1Z" fill="#fff"/>
      <path d="M103.1,29.7l.5-.6a3.2,3.2,0,0,0,2.4.9c1.2,0,1.8-.6,1.8-1.2s-.8-.9-2.1-1.2-2.4-.7-2.4-1.9a2.2,2.2,0,0,1,2.4-1.9,4.4,4.4,0,0,1,2.7.9l-.5.6a3.7,3.7,0,0,0-2.2-.8,1.5,1.5,0,0,0-1.6,1.2c0,.7.8.9,2,1.2s2.5.7,2.5,1.9-.9,1.9-2.6,1.9A3.9,3.9,0,0,1,103.1,29.7Z" fill="#fff"/>
    </g>
  </g>
  <rect x="13.8" y="117.6" width="236.3" height="24.55" fill="#fff200"/>
  <g>
    <path d="M259,66.9l-1.9-1.4,2.7-1.5,17.8-.5,2.9,1.4Z" fill="#fff" stroke="#262262" stroke-width="0.24"/>
    <path d="M297.7,86.9s10.1-13.1,10-13.4l.4.7L297.6,87.8Z" fill="#fff" stroke="#262262" stroke-width="0.24"/>
    <path d="M277.5,102l-3.2-.9v-5L287,84.5h5.4l-.9,4.3Z" fill="#fff" stroke="#262262" stroke-width="0.24"/>
    <path d="M261,71.5l-3.1-1.4,1.1-3.2,19.9-2h2.9l-1.6,3.7Z" fill="#fff" stroke="#262262" stroke-width="0.24"/>
    <path d="M283.2,105.6l-4.6-.2.2-4.5,13-12.4,3.8-.6Z" fill="#fff" stroke="#262262" stroke-width="0.24"/>
    <path d="M265.2,81.7l-2.7-2.1.4-3.2,19.6-5.1,2.9-.3-1.2,3.8Z" fill="#fff" stroke="#262262" stroke-width="0.24"/>
    <path d="M263.2,76.8l-2.7-2.1.5-3.2,19.5-5.1,2.9-.2L282.3,70Z" fill="#fff" stroke="#262262" stroke-width="0.24"/>
    <path d="M269.4,88.8l-4.3-2.4V81.9l18-7.1,3.6.4-.7,4.5Z" fill="#fff" stroke="#262262" stroke-width="0.24"/>
    <path d="M288.6,86.3l1.2-5.3L285,79.6l-15.6,9.1v4.7l5.2,2.3Z" fill="#fff" stroke="#262262" stroke-width="0.24"/>
    <path d="M282.2,107.5l4.3-3.3,10.4-14.5,1.8-5.2-13.6,18.4Z" fill="#fff" stroke="#262262" stroke-width="0.24"/>
    <path d="M264,69.7l-4.3-2.1,2-3.8,23.6-.5Z" fill="#fff" stroke="#262262" stroke-width="0.24"/>
    <path d="M310,73.6c4.3-2.3,6.5-5.1,6.2-8.4a3.3,3.3,0,0,0-.2-1.7,10,10,0,0,0-1-2.1,10.3,10.3,0,0,0-2.8-3c-2.4-1.6-6.3-1.3-10.5,1.4l.2.3,7.8,13.2.3.3Z" fill="#fff" stroke="#262262" stroke-width="0.24"/>
    <path d="M285,63.3s15.4-2.2,15.3-2.5-.1.5-.1.5l-15.1,2.6Z" fill="#fff" stroke="#262262" stroke-width="0.24"/>
    <path d="M303,62.2a27,27,0,0,1,4.4-3.5,8.1,8.1,0,0,1,3.3-1" fill="none" stroke="#262262" stroke-width="0.24"/>
    <path d="M289.3,71.2s14.2-5.7,14.1-5.9l.4.7-14.6,6.1Z" fill="#fff" stroke="#262262" stroke-width="0.24"/>
    <path d="M292.7,77.4s12.9-8.6,12.7-8.9l.5.7-13.3,9Z" fill="#fff" stroke="#262262" stroke-width="0.24"/>
    <path d="M295.7,80.8s10.8-10.1,10.7-10.3l.4.6L295.6,81.7Z" fill="#fff" stroke="#262262" stroke-width="0.24"/>
    <path d="M287.7,67.1s14.3-3.9,14.2-4.2.4.7.4.7L287.6,68Z" fill="#fff" stroke="#262262" stroke-width="0.24"/>
    <path d="M307.4,75.2c1.1-.9-2-6-3.3-8.2s-2.4-5.5-4.9-5.9l2.3-1.3c1.4-.7,3.2,3.1,5,6s4.2,7,3.5,8Z" fill="#262262" stroke="#262262" stroke-miterlimit="10" stroke-width="0.14"/>
    <path d="M307.8,68.6a9.2,9.2,0,0,1,1.6,2.9,1.8,1.8,0,0,1-1.7,1.1c-.7-.9-.9-1.9-1.7-3.1a2.4,2.4,0,0,1,1.8-.9Z" fill="#fff" stroke="#262262" stroke-width="0.24"/>
    <path d="M265.3,72.9l-2.5-2.8,2.3-2.8,20.3-3.8,2,.6-.9,3.3Z" fill="#fff" stroke="#262262" stroke-width="0.24"/>
    <path d="M268.3,77.7l-2.7-2.1.5-3.3,19.5-5.1,2.9-.2-1.1,3.8Z" fill="#fff" stroke="#262262" stroke-width="0.24"/>
    <path d="M272.9,84.8l-4.3-2.5V77.9l17.9-7.2,3.7.4-.8,4.5Z" fill="#fff" stroke="#262262" stroke-width="0.24"/>
    <path d="M293.3,82.1l1.1-5.3-4.8-1.4-15.5,9v4.8l5.2,2.3Z" fill="#fff" stroke="#262262" stroke-width="0.24"/>
    <path d="M281.7,97.9l-3.2-.9V92l12.6-11.6h5.4l-.9,4.2Z" fill="#fff" stroke="#262262" stroke-width="0.24"/>
    <path d="M285.1,103.1l-3.5-.9.2-4.6,13-12.4,3.8-.6-1.2,3.3Z" fill="#fff" stroke="#262262" stroke-width="0.24"/>
    <path d="M299.4,85.4l.7-.9A42.5,42.5,0,0,0,287.6,63h-1a48.3,48.3,0,0,1,12.8,22.3Zm3.7-4.8.5-.6A52,52,0,0,0,293,62.2l-.9.2a54.8,54.8,0,0,1,11,18.2Z" fill="#fff" stroke="#262262" stroke-width="0.24"/>
  </g>
  <g>
    <g>
      <circle cx="126.9" cy="180.7" r="4" fill="#fff"/>
      <circle cx="223.5" cy="180.7" r="4" fill="#fff"/>
    </g>
    <g>
      <circle cx="126.9" cy="206" r="4" fill="#fff"/>
      <circle cx="225.1" cy="206" r="4" fill="#fff"/>
    </g>
    <circle cx="126.9" cy="228.4" r="4" fill="#fff"/>
    <rect x="231.9" y="220.2" width="92.2" height="16.45" fill="#fff200"/>
  </g>
  <g>
    <path d="M47.2,268.9a6.3,6.3,0,0,1,1.1-3.8,6.7,6.7,0,0,1,4.8-3.2,6.9,6.9,0,0,1,7.7,4.5,7.2,7.2,0,0,1,.5,2.1,7.1,7.1,0,0,1-1.3,4.4l-2,3.3c-.6,1.2-1.3,2.3-1.9,3.4l-1.8,3h-.1c0,.1-.1,0-.1-.1l-2.9-4.9c-.7-1.4-1.5-2.8-2.3-4.1l-.8-1.3a6.9,6.9,0,0,1-.9-3Zm7,4a4.2,4.2,0,0,0,4.2-4.2,4.1,4.1,0,0,0-4.2-4.1,4,4,0,0,0-4.1,4.2A4.1,4.1,0,0,0,54.2,272.9Z" fill="#fff"/>
    <path d="M52.6,282.3h-.2l-.9.4c-.4.4-.4.8,0,1.1a.9.9,0,0,0,.6.3,5.9,5.9,0,0,0,2.6.4l1.8-.4a1,1,0,0,0,.5-.4.6.6,0,0,0,0-.9l-1-.5h.5a6.4,6.4,0,0,1,1.8.6l.4.4c.4.3.3.7,0,1.1a3.1,3.1,0,0,1-1.3.6,8.9,8.9,0,0,1-3.6.4,8.6,8.6,0,0,1-2.8-.4,2.9,2.9,0,0,1-1.2-.7.7.7,0,0,1,0-1.1l.9-.5a6.1,6.1,0,0,1,1.8-.5Z" fill="#fff"/>
    <path d="M54.2,283.8a4,4,0,0,1-1.5-.3c-.1-.1-.3-.2-.3-.3s.2-.3.3-.4l1-.3c.1,0,.1.1.1.2l.3.5c.1.1.1.1.2,0l.3-.5c.1-.1.1-.2.2-.1l.9.2h.1a.4.4,0,0,1,0,.7,2.8,2.8,0,0,1-1.3.3Z" fill="#fff"/>
  </g>
  <rect x="102.6" y="293.8" width="129.8" height="1.6" fill="#fff200"/>
  <g>
    <polygon points="327.4 324.5 327.4 328 325 326.3 327.4 324.5" fill="#fff200"/>
    <polygon points="319.3 324.5 319.3 328 316.9 326.3 319.3 324.5" fill="#fff200"/>
    <polygon points="311.2 324.5 311.2 328 308.8 326.3 311.2 324.5" fill="#fff200"/>
    <polygon points="303.1 324.5 303.1 328 300.7 326.3 303.1 324.5" fill="#fff200"/>
    <polygon points="294.9 324.5 294.9 328 292.6 326.3 294.9 324.5" fill="#fff200"/>
    <polygon points="286.8 324.5 286.8 328 284.4 326.3 286.8 324.5" fill="#fff200"/>
    <polygon points="278.7 324.5 278.7 328 276.3 326.3 278.7 324.5" fill="#fff200"/>
    <polygon points="270.6 324.5 270.6 328 268.2 326.3 270.6 324.5" fill="#fff200"/>
    <polygon points="262.5 324.5 262.5 328 260.1 326.3 262.5 324.5" fill="#fff200"/>
  </g>
  <g>
    <polygon points="317.8 25 317.8 27.9 315.8 26.4 317.8 25" fill="#fff200"/>
    <polygon points="311 25 311 27.9 309 26.4 311 25" fill="#fff200"/>
    <polygon points="304.2 25 304.2 27.9 302.2 26.4 304.2 25" fill="#fff200"/>
    <polygon points="297.5 25 297.5 27.9 295.5 26.4 297.5 25" fill="#fff200"/>
    <polygon points="290.7 25 290.7 27.9 288.7 26.4 290.7 25" fill="#fff200"/>
    <polygon points="283.9 25 283.9 27.9 282 26.4 283.9 25" fill="#fff200"/>
    <polygon points="277.2 25 277.2 27.9 275.2 26.4 277.2 25" fill="#fff200"/>
    <polygon points="270.4 25 270.4 27.9 268.4 26.4 270.4 25" fill="#fff200"/>
    <polygon points="263.6 25 263.6 27.9 261.7 26.4 263.6 25" fill="#fff200"/>
  </g>
  <g>
    <polygon points="6.4 238.6 2 238.6 4.2 235.7 6.4 238.6" fill="#fff200"/>
    <polygon points="6.4 228.6 2 228.6 4.2 225.7 6.4 228.6" fill="#fff200"/>
    <polygon points="6.4 218.6 2 218.6 4.2 215.7 6.4 218.6" fill="#fff200"/>
    <polygon points="6.4 208.7 2 208.7 4.2 205.7 6.4 208.7" fill="#fff200"/>
    <polygon points="6.4 198.7 2 198.7 4.2 195.8 6.4 198.7" fill="#fff200"/>
    <polygon points="6.4 188.7 2 188.7 4.2 185.8 6.4 188.7" fill="#fff200"/>
    <polygon points="6.4 178.7 2 178.7 4.2 175.8 6.4 178.7" fill="#fff200"/>
    <polygon points="6.4 168.8 2 168.8 4.2 165.8 6.4 168.8" fill="#fff200"/>
    <polygon points="6.4 158.8 2 158.8 4.2 155.9 6.4 158.8" fill="#fff200"/>
  </g>
</svg>
