<svg xmlns="http://www.w3.org/2000/svg" width="335" height="335" data-name="Layer 1">
  <defs>
    <filter id="b" data-name="drop-shadow-5" filterUnits="userSpaceOnUse">
      <feOffset dx="-5" dy="5"/>
      <feGaussianBlur result="uuid-1db328d5-bacc-45e0-8fd0-0345220f3ecd" stdDeviation="5"/>
      <feFlood flood-color="#000" flood-opacity=".8"/>
      <feComposite in2="uuid-1db328d5-bacc-45e0-8fd0-0345220f3ecd" operator="in"/>
      <feComposite in="SourceGraphic"/>
    </filter>
    <filter id="c" data-name="drop-shadow-6" filterUnits="userSpaceOnUse">
      <feOffset dx="-5" dy="5"/>
      <feGaussianBlur result="uuid-0b85f91f-7b0b-4ce6-a69f-47ff95694773" stdDeviation="5"/>
      <feFlood flood-color="#000" flood-opacity=".8"/>
      <feComposite in2="uuid-0b85f91f-7b0b-4ce6-a69f-47ff95694773" operator="in"/>
      <feComposite in="SourceGraphic"/>
    </filter>
    <linearGradient id="a" x1="316.7" x2="7.9" y1="-4.1" y2="351.3" gradientUnits="userSpaceOnUse">
      <stop offset="0" stop-color="#26252b"/>
      <stop offset="1" stop-color="#1c1b1f"/>
    </linearGradient>
  </defs>
  <path fill="url(#a)" d="M334.9-.5v336.4H0v-114l.1-6.7v-22.7c0-2.2 0-4.4-.2-6.5l-.1-2.7V-.5h335.1Z"/>
  <path fill="#fff" d="M51.7 256.3h78.7V335H51.7z"/>
  <g fill="#e42a29">
    <path d="M79.8 308.7v6.1c0 1.5-1.3 2.8-2.8 2.8H63.3a2.9 2.9 0 0 1-2.8-2.8v-13.7c0-1.5 1.3-2.8 2.8-2.8h6.2c.4 0 .8.3.8.8s-.3.8-.8.8h-5.9c-.9 0-1.7.8-1.7 1.7v13c0 .9.8 1.7 1.7 1.7h13c.9 0 1.7-.8 1.7-1.7v-5.8c0-.4.3-.8.8-.8.4 0 .8.3.8.8Zm.9-11.3a3.2 3.2 0 0 1 0 4.5l-.3.4-4.6-4.6.4-.3a3.2 3.2 0 0 1 4.5 0Z"/>
    <path d="m79.6 303.1-6.8 6.8h-.3l-4.4.6c-.2 0-.5-.2-.5-.5l.6-4.4v-.3l6.8-6.8 4.5 4.5Z"/>
  </g>
  <g fill="#fff" data-name="PRINT">
    <path d="M30.5 12.9a2 2 0 0 1-.6 1.5l-6.8 6.8-7.2-4.2v-4.1c0-1.2 1-2.1 2.1-2.1s2.1 1 2.1 2.1v5.2l6.7-6.7c.8-.8 2.2-.8 3 0 .4.4.6.9.6 1.5Zm-.7 18.9c-.4.4-.9.6-1.5.6s-.6 0-.8-.2l-.7-.5-2.3-2.3-4.4-4.4v5.2c0 1.2-1 2.1-2.1 2.1s-2.1-1-2.1-2.1v-4.1l7.2-4.2 4.5 4.5 2.3 2.3c.8.8.8 2.2 0 3Zm-7-10.3-.2-.3-1.8-1-4.9-2.8-4.1-2.4c-.2-.1-.5 0-.7.2v12.7c0 .3.2.5.5.5h.2l4.1-2.4 6.7-3.9.1-.2v-.3Zm-10.2-5 3.2 1.9 5.2 3 .1.1v.3s0 .2-.2.2l-5.2 3-3.2 1.9c-.2.1-.4 0-.5-.1v-9.9c0-.2.2-.4.4-.4h.2Z"/>
    <path d="m19.7 21.7-.1.2-3.9 2.2-2.4 1.4-.4-.1V18c0-.2.1-.3.3-.3h.1l2.4 1.4 3.9 2.2.1.2v.2Zm45.8-.6-6-3-3.7-1.8a.5.5 0 0 0-.6.2v10.1c.1.2.4.4.6.4h.4l3.4-1.9 2.1-1.1 3.8-2 .2-.2v-.2l-.2-.2Zm-6 3-2.8 1.5c-.2.1-.4 0-.5-.1v-7.8c0-.2 0-.3.3-.3h.1l2.8 1.4 1 .5 3.6 1.8.2.2v.2l-.1.1-4.6 2.4Z"/>
    <path d="m63 21.5-.1.1-3.4 1.8-2.1 1.1h-.3v-5.9c0-.1 0-.2.2-.2l2.1 1.1 3.5 1.8.1.1v.1Zm-23-5.1h-5.2v10.4h2.6v-3.4h2.7c2.5 0 4.3-1.5 4.3-3.6 0-2-1.9-3.5-4.4-3.4Zm-.2 4.9h-2.4v-2.9h2.4c1.2 0 2.1.5 2.1 1.4 0 .9-.8 1.5-2 1.5Zm14.3 5.5-8.2.1-.1-10.3h2.4l.1 8.3 5.8-.1v2zm16.8-3.9v3.7h-2.4l-.1-3.7-4.6-6.5 2.9-.1 2.9 4.5 3-4.5 2.7-.1-4.4 6.7zm15.3 4.2h-1.7l-4.4-4.7-1.8 1.7.1 3.1H77l-.1-10.3h1.3l.1 5.7 5.8-5.8h1.7L81 21.6l5.2 5.5zm6.5-10.5c-3.2 0-5.9 2.5-5.8 5.4 0 2.9 2.8 5.3 6 5.3s5.8-2.5 5.8-5.4c0-2.9-2.8-5.3-5.9-5.2Zm.4 9.6a4.6 4.6 0 0 1-4.9-4.2 4.5 4.5 0 0 1 4.2-4.3 4.6 4.6 0 0 1 4.9 4.2 4.5 4.5 0 0 1-4.2 4.3Zm15.8-2c0 1.6-1.3 3-4 3-1.7 0-3.3-.5-4.5-1.6l.8-.9c1 1 2.4 1.5 3.8 1.4 1.8 0 2.7-.9 2.7-1.8 0-1.1-1.1-1.5-3.1-1.9-2.3-.5-3.8-1.1-3.8-2.9 0-1.6 1.6-3 3.8-3 1.5 0 2.9.5 4.1 1.4l-.8.9a5 5 0 0 0-3.3-1.3c-1.4 0-2.4.9-2.4 1.8 0 1.1 1.2 1.4 3.1 1.8 2.2.4 3.8 1.1 3.8 2.9Zm13.6 2.9h-1.3l-.1-7.8-4.1 7.3-4.4-7.2.1 7.8h-1.3l-.1-10.3h1.3l4.3 7.1 4.2-7.2h1.3l.1 10.3zm8.3-10.5c-3.2 0-5.9 2.5-5.8 5.4 0 2.9 2.8 5.3 6 5.3s5.9-2.5 5.8-5.4c0-2.9-2.8-5.3-5.9-5.2Zm.4 9.6a4.6 4.6 0 0 1-4.9-4.2 4.5 4.5 0 0 1 4.2-4.3 4.6 4.6 0 0 1 4.9 4.2 4.5 4.5 0 0 1-4.2 4.3Zm15.7-2c0 1.6-1.3 3-4 3a7 7 0 0 1-4.6-1.6l.8-.9c1 1 2.4 1.5 3.8 1.4 1.8 0 2.7-.9 2.6-1.8 0-1.1-1.1-1.5-3.1-1.9-2.3-.5-3.8-1.1-3.8-2.9 0-1.6 1.6-3 3.8-3 1.5 0 2.9.5 4.1 1.4l-.8.9a5 5 0 0 0-3.3-1.3c-1.4 0-2.4.9-2.4 1.8 0 1.1 1.2 1.4 3.1 1.8 2.2.4 3.8 1.1 3.8 2.9Z"/>
  </g>
  <path fill="#fcf5e3" d="M227.7 151.6c-4 0-7.2 3.2-7.2 7.2s.5 3.1 1.4 4.2l5.8 10 5.8-10a7.2 7.2 0 0 0-5.8-11.4Zm0 10.5c-1.7 0-3.2-1.4-3.2-3.2s1.4-3.2 3.2-3.2 3.2 1.4 3.2 3.2-1.4 3.2-3.2 3.2Z"/>
  <rect width="96.1" height="28.1" x="185.4" y="287.8" fill="#e42a29" rx="13.7" ry="13.7"/>
  <path fill="#fefefe" d="M127.6 173.3a75 75 0 0 1-3.3 22.2l-1.9 5.4a74.4 74.4 0 0 1-69 46.7h-2.1a60.6 60.6 0 0 1-15.4-2.1l-5.6-1.6A75 75 0 0 1 .2 225.1v-3.2l.1-6.7v-22.7c0-2.2 0-4.4-.2-6.5l-.1-2.7v-61.8a74.5 74.5 0 0 1 121.2 21.4l2.2 5.3a66.1 66.1 0 0 1 3.9 17.1c.3 2.6.4 5.3.4 8Z"/>
  <g fill="#b8b8b8">
    <circle cx="37.9" cy="177.7" r="8"/>
    <path d="M67.3 177.9c0 4.4-3.6 8-8 8s-8-3.6-8-8 3.6-8 8-8 8 3.6 8 8Z"/>
    <circle cx="80.3" cy="177.7" r="8"/>
    <path d="M78.2 197.3c0 4.4-3.6 8-8 8s-8-3.6-8-8 3.6-8 8-8 8 3.6 8 8Z"/>
    <ellipse cx="58.3" cy="214.7" rx="7.8" ry="6.7"/>
    <path d="M63.2 239.4c0 1.7-2.8 3.1-6.2 3.1s-6.2-1.4-6.2-3.1 2.8-3.1 6.2-3.1 6.2 1.4 6.2 3.1Zm-10 7c-.2 1.1-2.7 1.6-5.7 1.2-3-.4-5.3-1.7-5.1-2.8.2-1.1 2.7-1.6 5.7-1.2 3 .4 5.3 1.7 5.1 2.8Zm-15.4-1.5c-.3.9-2.9.9-5.7-.1-2.9-1-4.9-2.5-4.6-3.4.3-.9 2.9-.9 5.7.1 2.9 1 4.9 2.5 4.6 3.4Zm33.1-1.7c.2 1.3-2.1 2.7-5.1 3.1-3 .5-5.6-.2-5.8-1.5-.2-1.3 2.1-2.7 5.1-3.1 3-.5 5.6.2 5.8 1.5Zm-25.1-27.8c0 3.7-3.5 6.7-7.8 6.7s-7.8-3-7.8-6.7 3.5-6.7 7.8-6.7 7.8 3 7.8 6.7Z"/>
    <ellipse cx="48.8" cy="229.2" rx="7.8" ry="6"/>
    <path d="M46.2 240.4c-.6 1.8-3.7 2.4-7 1.4-3.3-1.1-5.4-3.4-4.9-5.2.6-1.8 3.7-2.4 7-1.4 3.3 1.1 5.4 3.4 4.9 5.2Zm26.7-11c0 3.4-3.1 6.1-6.8 6.1s-6.8-2.7-6.8-6.1 3.1-6.1 6.8-6.1 6.8 2.7 6.8 6.1Zm10.7-12.5c-1.2 3.8-4.9 6-8.2 4.9-3.3-1.1-5.1-5-3.9-8.8 1.2-3.8 4.9-6 8.2-4.9 3.3 1.1 5.1 5 3.9 8.8Z"/>
    <circle cx="49.2" cy="199" r="8"/>
    <path d="M37.4 197.3c0 4.4-3.6 8-8 8s-8-3.6-8-8 3.6-8 8-8 8 3.6 8 8Zm80.3-21c0 4-2.2 7.2-4.9 7.2s-4.9-3.2-4.9-7.2 2.2-7.2 4.9-7.2 4.9 3.2 4.9 7.2ZM7.4 178.9c0 4-2.7 7.2-6 7.2s-1 0-1.4-.2l-.1-2.7v-11.3c.5-.2 1-.3 1.6-.3 3.3 0 6 3.2 6 7.2Zm.1 36.1c-1.9 1.2-5.2-.5-7.3-3.8v-8.3c1.9-.7 4.9 1 6.8 4.1 2.1 3.3 2.3 7 .4 8.2Zm119.7-39.5c-.2 3.3-1.7 6.3-3.5 6.7s-3-1.9-2.8-5.2 1.7-6.3 3.5-6.7c1.7-.4 3 1.9 2.8 5.2Zm-6.8 16.9c-.8 3.4-2.9 6.1-4.7 6.2-1.8 0-2.6-2.6-1.8-5.9.8-3.4 2.9-6.1 4.7-6.2 1.8 0 2.6 2.6 1.8 5.9Zm5.6-1.1c-.5 2.6-1.8 4.8-3 4.8s-1.7-2.1-1.3-4.7c.5-2.6 1.8-4.8 3-4.8s1.7 2.1 1.3 4.7ZM24.5 177.9c0 4.2-2.9 7.6-6.4 7.6s-6.4-3.4-6.4-7.6 2.9-7.6 6.4-7.6 6.4 3.4 6.4 7.6Zm-7.4 17.2c0 4.2-2.9 7.6-6.4 7.6s-6.4-3.4-6.4-7.6 2.9-7.6 6.4-7.6 6.4 3.4 6.4 7.6Zm7.6 15.1c2.4 3.1 2.2 7.2-.3 9.2-2.6 2-6.6 1-9-2.1-2.4-3.1-2.2-7.2.3-9.2 2.6-2 6.6-1 9 2.1Zm6.3 11.4c3.5 1.7 5.2 5.5 3.7 8.4-1.4 2.9-5.5 3.8-9 2.1-3.5-1.7-5.2-5.5-3.7-8.4s5.5-3.8 9-2.1Zm52.4.2c-3.2 1.7-4.8 5.3-3.6 7.9 1.2 2.7 4.8 3.4 8 1.7s4.8-5.3 3.6-7.9c-1.2-2.7-4.8-3.4-8-1.7Zm15.5-3.6c-2.8 1.7-4.7 5.1-4.3 7.5.4 2.4 3 3 5.8 1.2 2.8-1.7 4.7-5.1 4.3-7.5-.4-2.4-3-3-5.8-1.2Zm-94.5 3.9c-.3 1.6-2.3 1.5-4.3-.2l.1-6.7 1 .7c2.1 1.8 3.6 4.5 3.2 6.1Zm6.5 5.9c2.4 1.4 4.4 3.7 4.4 5.2s-1.9 1.6-4.3.2-4.4-3.7-4.4-5.2 1.9-1.6 4.3-.2Zm12.1 4.1c3.1 1.4 5.8 3.9 6 5.6.3 1.7-2 2-5.1.7-3.1-1.4-5.8-3.9-6-5.6s2-2 5.1-.7Zm67.4-.7c-3.1 1.4-5.8 3.9-6 5.6s2 2 5.1.7c3.1-1.4 5.8-3.9 6-5.6s-2-2-5.1-.7Zm-14.2 3.4c-3.2.7-6.2 2.5-6.8 4.1-.6 1.6 1.5 2.3 4.7 1.7 3.2-.7 6.2-2.5 6.8-4.1.6-1.6-1.5-2.3-4.7-1.7Zm-60.8-13.7c2.8 2.1 4.1 5.3 2.7 7-1.3 1.7-4.7 1.4-7.5-.7-2.8-2.1-4.1-5.3-2.7-7 1.3-1.7 4.7-1.4 7.5.7Zm89.9-13.5c-1.4 2.8-.8 5.7 1.4 6.6 2.1.9 4.9-.7 6.3-3.4 1.4-2.8.8-5.7-1.4-6.6s-4.9.7-6.3 3.4Zm10.8-4.5c-.8 2.8-.2 5.1 1.4 5.2 1.6 0 3.6-2.1 4.4-4.9.8-2.8.2-5.1-1.4-5.2-1.6 0-3.6 2.1-4.4 4.9Zm-11.8-25.4c0 4.2-2.9 7.6-6.4 7.6s-6.4-3.4-6.4-7.6 2.9-7.6 6.4-7.6 6.4 3.4 6.4 7.6Zm-8.4 20.6c-1.3 4-5 6.4-8.4 5.4s-5-5.2-3.8-9.2c1.3-4 5-6.4 8.4-5.4 3.4 1.1 5 5.2 3.8 9.2Zm3.9 15.8c-1.8 3.5-5.4 5.2-8.1 3.9-2.7-1.4-3.4-5.3-1.6-8.8 1.8-3.5 5.4-5.2 8.1-3.9 2.7 1.4 3.4 5.3 1.6 8.8Zm10.2-17.2c-1.2 3.9-4.6 6.3-7.5 5.4-2.9-.9-4.3-4.8-3.1-8.7 1.2-3.9 4.6-6.3 7.5-5.4 2.9.9 4.3 4.8 3.1 8.7Z"/>
    <circle cx="49.6" cy="159.7" r="8"/>
    <circle cx="69" cy="158.5" r="8"/>
    <circle cx="88.9" cy="157.5" r="7.6"/>
    <path d="M7 146c-1 3.8-3.9 6.4-6.6 5.7l-.5-.2v-12.3c1.2-1.1 2.7-1.7 4.1-1.3 2.7.7 4 4.3 3 8.1Zm17.9-1.7c-1.4 3.9-5.2 6.1-8.5 4.8-3.3-1.2-4.8-5.3-3.3-9.2s5.2-6.1 8.5-4.8c3.3 1.2 4.8 5.3 3.3 9.2Zm80.6 2.1c1 3.6 4 6.1 6.6 5.5 2.6-.6 3.9-4.1 2.9-7.7-1-3.6-4-6.1-6.6-5.5-2.6.6-3.9 4.1-2.9 7.7Zm17.6.1c-.5-2.8-2.2-4.6-3.7-4.1s-2.4 3.2-1.8 6c.5 2.8 2.2 4.6 3.7 4.1s2.4-3.2 1.8-6Zm4.1 15.4c-.4-2.5-1.5-4.1-2.5-3.6-1 .5-1.6 2.8-1.2 5.3.4 2.5 1.5 4.1 2.5 3.6 1-.5 1.6-2.8 1.2-5.3ZM91 143.2c1.5 4.1 5.2 6.7 8.2 5.8 3-.9 4.3-4.9 2.8-9s-5.2-6.7-8.2-5.8c-3 .9-4.3 4.9-2.8 9Zm22.9 18.5c0 3.8 1.8 6.8 4 6.8s4-3.1 4-6.8-1.8-6.8-4-6.8-4 3.1-4 6.8Zm-2.5-1.6c0 4-2.6 7.2-5.9 7.2s-5.9-3.2-5.9-7.2 2.6-7.2 5.9-7.2 5.9 3.2 5.9 7.2Zm-96.8.4c0 4.2-2.9 7.6-6.4 7.6s-6.4-3.4-6.4-7.6 2.9-7.6 6.4-7.6 6.4 3.4 6.4 7.6Z"/>
    <circle cx="28.9" cy="160.2" r="8"/>
    <circle cx="39.6" cy="141.9" r="8"/>
    <path d="M67.6 141.1c0 4.4-3.6 8-8 8s-8-3.6-8-8 3.6-8 8-8 8 3.6 8 8Zm-11.8-15.7c0 3.4-3.1 6.2-6.9 6.2s-6.9-2.8-6.9-6.2 3.1-6.2 6.9-6.2 6.9 2.8 6.9 6.2Zm6.7-13.4c0 2.4-3.1 4.3-6.9 4.3s-6.9-1.9-6.9-4.3 3.1-4.3 6.9-4.3 6.9 1.9 6.9 4.3Zm-28.1 9.8c-2.5-2.1-6.4-1.4-8.8 1.5-2.4 2.9-2.3 7 .1 9.1 2.5 2.1 6.4 1.4 8.8-1.5 2.4-2.9 2.3-7-.1-9.1Zm-18 2.6c-1.2-2-4.1-1.5-6.6 1.1s-3.6 6.4-2.4 8.5c1.2 2 4.1 1.5 6.6-1.1s3.6-6.4 2.4-8.5ZM.8 133.9l-.9.9v-8.2c1.8-1.4 3.3-1.6 3.8-.2.6 1.7-.7 5-2.9 7.5ZM14.6 116c-.2-1.6-2.3-1.5-4.7.2-2.3 1.6-4 4.2-3.8 5.8.2 1.6 2.3 1.5 4.7-.2 2.3-1.6 4-4.2 3.8-5.8Zm13.4-3.1c-.3-1.6-2.7-1.5-5.4.2-2.7 1.6-4.7 4.2-4.4 5.8.3 1.6 2.7 1.5 5.4-.2 2.7-1.6 4.7-4.2 4.4-5.8Zm9.7-7.6c.4-1.5-1.6-2.3-4.4-1.7-2.8.6-5.4 2.3-5.7 3.8-.4 1.5 1.6 2.3 4.4 1.7s5.4-2.3 5.7-3.8Zm15.5-.6c.8-1.3-.8-2.6-3.7-2.9-2.8-.3-5.8.6-6.6 1.9-.8 1.3.8 2.6 3.7 2.9 2.8.3 5.8-.6 6.6-1.9Zm-6.9 9.9c1-2.3-1.2-4.7-4.8-5.3-3.7-.6-7.4.8-8.4 3.1s1.2 4.7 4.8 5.3 7.4-.8 8.4-3.1Zm32.5 1.4c1.5-2 0-4.9-3.5-6.3-3.4-1.5-7.4-1-8.9 1s0 4.9 3.5 6.3c3.4 1.5 7.4 1 8.9-1Zm-10.2-9.4c1.3-1.2 0-3.1-2.8-4.3-2.8-1.2-6.2-1.2-7.4 0-1.3 1.2 0 3.1 2.8 4.3 2.8 1.2 6.2 1.2 7.4 0Zm16.3 3c1.3-1 .1-2.8-2.6-4.1-2.8-1.3-6.1-1.6-7.4-.6-1.3 1-.1 2.8 2.6 4.1 2.8 1.3 6.1 1.6 7.4.6Zm21.9 15.6c1.5-.3 1-2.4-1.2-4.5-2.2-2.2-5.1-3.6-6.6-3.3-1.5.3-1 2.4 1.2 4.5 2.2 2.2 5.1 3.6 6.6 3.3ZM93.1 121c1.6-.5 1.2-2.7-.9-4.9s-5.1-3.6-6.7-3.1c-1.6.5-1.2 2.7.9 4.9s5.1 3.6 6.7 3.1Zm3.4-5.6c1.2 0 .3-1.4-2-3.4a16 16 0 0 0-6.3-3.7c-1.2 0-.3 1.4 2 3.4a16 16 0 0 0 6.3 3.7ZM62.7 120c2.6-2 6.8-1.2 9.4 1.7 2.6 2.9 2.6 6.9 0 8.9s-6.8 1.2-9.4-1.7c-2.6-2.9-2.6-6.9 0-8.9Zm17.1 1.2c2.6-2 6.8-1.2 9.4 1.7 2.6 2.9 2.6 6.9 0 8.9s-6.8 1.2-9.4-1.7c-2.6-2.9-2.6-6.9 0-8.9Zm17.1 3.5c2.2-1.2 5.6-.1 7.6 2.4s1.8 5.5-.4 6.7c-2.2 1.2-5.6.1-7.6-2.4s-1.8-5.5.4-6.7Zm13.7 4.7c1.9 0 4.1 2.1 5 4.6.8 2.5 0 4.5-1.9 4.4-1.9 0-4.1-2.1-5-4.6-.8-2.5 0-4.5 1.9-4.4Zm-24.4 11.7c0 4.4-3.6 8-8 8s-8-3.6-8-8 3.6-8 8-8 8 3.6 8 8Z"/>
  </g>
  <path fill="none" stroke="#e42a29" stroke-miterlimit="10" stroke-width="2" d="M1.6 112H98v28H1.6zm.3 89h96v27h-96z"/>
  <circle cx="248.8" cy="44.4" r="21.2" fill="#fefefe"/>
  <g fill="#b8b8b8">
    <circle cx="244.5" cy="45.7" r="2.3"/>
    <path d="M252.8 45.7c0 1.3-1 2.3-2.3 2.3s-2.3-1-2.3-2.3 1-2.3 2.3-2.3 2.3 1 2.3 2.3Z"/>
    <circle cx="256.5" cy="45.7" r="2.3"/>
    <path d="M255.9 51.2c0 1.3-1 2.3-2.3 2.3s-2.3-1-2.3-2.3 1-2.3 2.3-2.3 2.3 1 2.3 2.3Z"/>
    <ellipse cx="250.3" cy="56.2" rx="2.2" ry="1.9"/>
    <path d="M251.7 63.2c0 .5-.8.9-1.8.9s-1.8-.4-1.8-.9.8-.9 1.8-.9 1.8.4 1.8.9Zm-2.9 2c0 .3-.8.5-1.6.3-.9-.1-1.5-.5-1.5-.8 0-.3.8-.5 1.6-.3.9.1 1.5.5 1.5.8Zm-4.4-.4c0 .3-.8.2-1.6 0-.8-.3-1.4-.7-1.3-1 0-.3.8-.2 1.6 0 .8.3 1.4.7 1.3 1Zm9.5-.5c0 .4-.6.8-1.4.9s-1.6 0-1.6-.4.6-.8 1.4-.9c.9-.1 1.6 0 1.6.4Zm-7.2-7.9c0 1.1-1 1.9-2.2 1.9s-2.2-.9-2.2-1.9 1-1.9 2.2-1.9 2.2.9 2.2 1.9Z"/>
    <ellipse cx="247.6" cy="60.3" rx="2.2" ry="1.7"/>
    <path d="M246.8 63.5c-.2.5-1.1.7-2 .4-.9-.3-1.6-1-1.4-1.5.2-.5 1.1-.7 2-.4.9.3 1.6 1 1.4 1.5Zm7.6-3.1c0 1-.9 1.7-1.9 1.7s-1.9-.8-1.9-1.7.9-1.7 1.9-1.7 1.9.8 1.9 1.7Zm3.1-3.6c-.3 1.1-1.4 1.7-2.3 1.4-.9-.3-1.4-1.4-1.1-2.5.3-1.1 1.4-1.7 2.3-1.4s1.4 1.4 1.1 2.5Z"/>
    <circle cx="247.7" cy="51.7" r="2.3"/>
    <path d="M244.3 51.2c0 1.3-1 2.3-2.3 2.3s-2.3-1-2.3-2.3 1-2.3 2.3-2.3 2.3 1 2.3 2.3Zm22.9-5.9c0 1.1-.6 2.1-1.4 2.1s-1.4-.9-1.4-2.1.6-2.1 1.4-2.1 1.4.9 1.4 2.1Z"/>
    <ellipse cx="234.1" cy="46" rx="1.7" ry="2.1"/>
    <path d="M229.2 45.8c.1 1.1.7 2 1.3 1.9.6 0 .9-1 .8-2.2-.1-1.1-.7-2-1.3-1.9-.6 0-.9 1-.8 2.2Zm2.1 4.5c.2 1.1.9 1.9 1.5 1.8.6-.1.9-1.1.6-2.2-.2-1.1-.9-1.9-1.5-1.8-.6.1-.9 1.1-.6 2.2Zm2.4 4.9c.6.9 1.5 1.4 2.1 1.1.5-.3.5-1.4-.1-2.3s-1.5-1.4-2.1-1.1c-.5.3-.5 1.4.1 2.3Zm-5.1-5.7c.2.8.6 1.3 1 1.3s.6-.8.5-1.6c-.2-.8-.6-1.3-1-1.3s-.6.8-.5 1.6Zm2.1 4.2c.2.8.7 1.3 1.1 1.2.4-.1.4-.8.2-1.6s-.7-1.3-1.1-1.2c-.4.1-.4.8-.2 1.6Zm-2.5-8c0 .9.3 1.6.5 1.6s.3-.7.3-1.6-.3-1.6-.5-1.6-.3.7-.3 1.6Zm41.7-.7c0 .9-.5 1.8-1 1.9s-.9-.5-.8-1.5.5-1.8 1-1.9c.5-.1.9.5.8 1.5Zm-1.9 4.8c-.2 1-.8 1.7-1.3 1.8-.5 0-.7-.7-.5-1.7.2-1 .8-1.7 1.3-1.8.5 0 .7.7.5 1.7Zm1.5-.3c-.1.7-.5 1.4-.8 1.4-.3 0-.5-.6-.4-1.3.1-.7.5-1.4.8-1.4.3 0 .5.6.4 1.3Zm-28.8-3.8c0 1.2-.8 2.2-1.8 2.2s-1.8-1-1.8-2.2.8-2.2 1.8-2.2 1.8 1 1.8 2.2Zm-2.2 4.9c0 1.2-.8 2.2-1.8 2.2s-1.8-1-1.8-2.2.8-2.2 1.8-2.2 1.8 1 1.8 2.2Zm2.2 4.3c.7.9.6 2.1 0 2.6-.7.6-1.9.3-2.6-.6-.7-.9-.6-2.1 0-2.6.7-.6 1.9-.3 2.6.6Zm1.8 3.3c1 .5 1.5 1.6 1.1 2.4-.4.8-1.6 1.1-2.6.6-1-.5-1.5-1.6-1.1-2.4s1.6-1.1 2.6-.6Zm14.9 0c-.9.5-1.4 1.5-1 2.3.3.8 1.4 1 2.3.5.9-.5 1.4-1.5 1-2.3-.3-.8-1.4-1-2.3-.5Zm4.4-1c-.8.5-1.4 1.5-1.2 2.1.1.7.9.8 1.7.3s1.4-1.5 1.2-2.1c-.1-.7-.9-.8-1.7-.3Zm-27.8-.6c.6.5 1 1.3.9 1.7s-.7.4-1.3 0c-.6-.5-1-1.3-.9-1.7 0-.5.7-.4 1.3 0Zm2.8 3.4c.7.4 1.2 1.1 1.2 1.5 0 .4-.5.5-1.2 0s-1.2-1.1-1.2-1.5c0-.4.5-.5 1.2 0Zm3.4 1.1c.9.4 1.6 1.1 1.7 1.6 0 .5-.6.6-1.4.2-.9-.4-1.6-1.1-1.7-1.6s.6-.6 1.4-.2Zm19.2-.2c-.9.4-1.6 1.1-1.7 1.6s.6.6 1.4.2c.9-.4 1.6-1.1 1.7-1.6s-.6-.6-1.4-.2Zm-4 1c-.9.2-1.8.7-1.9 1.2-.2.5.4.7 1.3.5.9-.2 1.8-.7 1.9-1.2.2-.5-.4-.7-1.3-.5ZM238 58c.8.6 1.2 1.5.8 2-.4.5-1.3.4-2.1-.2-.8-.6-1.2-1.5-.8-2 .4-.5 1.3-.4 2.1.2Zm25.7-3.8c-.4.8-.2 1.6.4 1.9.6.3 1.4-.2 1.8-1 .4-.8.2-1.6-.4-1.9s-1.4.2-1.8 1Zm3-1.3c-.2.8 0 1.4.4 1.5.5 0 1-.6 1.2-1.4.2-.8 0-1.4-.4-1.5-.5 0-1 .6-1.2 1.4Zm-3.3-7.2c0 1.2-.8 2.2-1.8 2.2s-1.8-1-1.8-2.2.8-2.2 1.8-2.2 1.8 1 1.8 2.2Zm-2.4 5.8c-.4 1.1-1.4 1.8-2.4 1.5s-1.4-1.5-1.1-2.6c.4-1.1 1.4-1.8 2.4-1.5s1.4 1.5 1.1 2.6Zm1.1 4.5c-.5 1-1.5 1.5-2.3 1.1-.8-.4-1-1.5-.5-2.5s1.5-1.5 2.3-1.1c.8.4 1 1.5.5 2.5Zm2.9-4.9c-.4 1.1-1.3 1.8-2.1 1.5-.8-.3-1.2-1.4-.9-2.5.4-1.1 1.3-1.8 2.1-1.5.8.3 1.2 1.4.9 2.5Z"/>
    <circle cx="247.8" cy="40.5" r="2.3"/>
    <circle cx="253.3" cy="40.2" r="2.3"/>
    <circle cx="259" cy="39.9" r="2.2"/>
    <ellipse cx="232.1" cy="41" rx="1.4" ry="2"/>
    <path d="M235.7 36.6c-.3 1.1-1.1 1.8-1.9 1.6-.8-.2-1.1-1.2-.9-2.3.3-1.1 1.1-1.8 1.9-1.6.8.2 1.1 1.2.9 2.3Zm5.1-.4c-.4 1.1-1.5 1.7-2.4 1.4-.9-.3-1.4-1.5-.9-2.6s1.5-1.7 2.4-1.4c.9.3 1.4 1.5.9 2.6Zm22.9.5c.3 1 1.1 1.7 1.9 1.6.7-.2 1.1-1.2.8-2.2-.3-1-1.1-1.7-1.9-1.6-.7.2-1.1 1.2-.8 2.2Zm5 .1c-.2-.8-.6-1.3-1.1-1.2-.4.2-.7.9-.5 1.7.2.8.6 1.3 1.1 1.2.4-.2.7-.9.5-1.7Zm1.2 4.4c-.1-.7-.4-1.2-.7-1-.3.1-.4.8-.3 1.5.1.7.4 1.2.7 1 .3-.1.4-.8.3-1.5Zm-10.3-5.4c.4 1.2 1.5 1.9 2.3 1.7.9-.3 1.2-1.4.8-2.6-.4-1.2-1.5-1.9-2.3-1.7-.9.3-1.2 1.4-.8 2.6Zm6.5 5.3c0 1.1.5 1.9 1.1 1.9s1.1-.9 1.1-1.9-.5-1.9-1.1-1.9-1.1.9-1.1 1.9Zm-.7-.5c0 1.1-.7 2.1-1.7 2.1s-1.7-.9-1.7-2.1.7-2.1 1.7-2.1 1.7.9 1.7 2.1Zm-36.5.5c-.1.8 0 1.5.4 1.6.3 0 .7-.6.8-1.4.1-.8 0-1.5-.4-1.6-.3 0-.7.6-.8 1.4Zm1.4-4.5c-.3.9-.2 1.7.2 1.8s1-.4 1.3-1.3c.3-.9.2-1.7-.2-1.8-.4-.1-1 .4-1.3 1.3Zm7.5 4.1c0 1.2-.8 2.2-1.8 2.2s-1.8-1-1.8-2.2.8-2.2 1.8-2.2 1.8 1 1.8 2.2Z"/>
    <circle cx="241.9" cy="40.7" r="2.3"/>
    <circle cx="245" cy="35.5" r="2.3"/>
    <path d="M252.9 35.2c0 1.3-1 2.3-2.3 2.3s-2.3-1-2.3-2.3 1-2.3 2.3-2.3 2.3 1 2.3 2.3Zm-3.4-4.4c0 1-.9 1.8-2 1.8s-2-.8-2-1.8.9-1.8 2-1.8 2 .8 2 1.8Zm2-3.9c0 .7-.9 1.2-2 1.2s-2-.5-2-1.2.9-1.2 2-1.2 2 .5 2 1.2Zm-8 2.8c-.7-.6-1.8-.4-2.5.4s-.7 2 0 2.6c.7.6 1.8.4 2.5-.4s.7-2 0-2.6Zm-5.2.8c-.3-.6-1.2-.4-1.9.3-.7.8-1 1.8-.7 2.4.3.6 1.2.4 1.9-.3.7-.8 1-1.8.7-2.4Zm-3.6.5c-.2-.5-.8-.3-1.5.4s-1 1.7-.8 2.1.8.3 1.5-.4c.6-.7 1-1.7.8-2.1Zm3.1-2.9c0-.4-.7-.4-1.3 0-.7.5-1.1 1.2-1.1 1.6 0 .4.7.4 1.3 0 .7-.5 1.1-1.2 1.1-1.6Zm3.8-.9c0-.4-.8-.4-1.6 0-.8.5-1.3 1.2-1.3 1.6 0 .4.8.4 1.6 0 .8-.5 1.3-1.2 1.3-1.6Zm2.8-2.2c.1-.4-.4-.6-1.2-.5s-1.5.7-1.6 1.1c-.1.4.4.6 1.2.5s1.5-.7 1.6-1.1Zm4.4-.1c.2-.4-.2-.8-1-.8s-1.7.2-1.9.6c-.2.4.2.8 1 .8s1.7-.2 1.9-.6Zm-1.9 2.8c.3-.7-.3-1.3-1.4-1.5-1-.2-2.1.2-2.4.9-.3.7.3 1.3 1.4 1.5s2.1-.2 2.4-.9Zm9.2.4c.4-.6 0-1.4-1-1.8-1-.4-2.1-.3-2.5.3-.4.6 0 1.4 1 1.8 1 .4 2.1.3 2.5-.3Zm-2.9-2.7c.4-.3 0-.9-.8-1.2-.8-.3-1.8-.3-2.1 0-.4.3 0 .9.8 1.2.8.3 1.8.3 2.1 0Zm4.6.9c.4-.3 0-.8-.7-1.2-.8-.4-1.7-.5-2.1-.2-.4.3 0 .8.7 1.2.8.4 1.7.5 2.1.2Zm6.3 4.4c.4 0 .3-.7-.3-1.3-.6-.6-1.5-1-1.9-.9-.4 0-.3.7.3 1.3.6.6 1.5 1 1.9.9Zm-3.9-1.2c.5-.1.3-.8-.3-1.4s-1.5-1-1.9-.9c-.5.1-.3.8.3 1.4.6.6 1.5 1 1.9.9Zm.9-1.6c.3 0 0-.4-.6-1-.7-.6-1.5-1-1.8-1.1-.3 0 0 .4.6 1 .7.6 1.5 1 1.8 1.1Zm-9.6 1.3c.7-.6 1.9-.3 2.7.5.7.8.7 2 0 2.5-.7.6-1.9.3-2.7-.5-.7-.8-.7-2 0-2.5Zm4.9.4c.7-.6 1.9-.3 2.7.5.7.8.7 2 0 2.5-.7.6-1.9.3-2.7-.5-.7-.8-.7-2 0-2.5Zm4.9 1c.6-.3 1.6 0 2.2.7.6.7.5 1.6-.1 1.9-.6.3-1.6 0-2.2-.7-.6-.7-.5-1.6.1-1.9Zm3.9 1.3c.5 0 1.2.6 1.4 1.3.2.7 0 1.3-.5 1.3s-1.2-.6-1.4-1.3c-.2-.7 0-1.3.5-1.3Zm-7 3.3c0 1.3-1 2.3-2.3 2.3s-2.3-1-2.3-2.3 1-2.3 2.3-2.3 2.3 1 2.3 2.3Z"/>
  </g>
  <path fill="#e42a29" d="M116.6 106.2h218.3v18.9H116.6z" filter="url(#b)"/>
  <path fill="#e42a29" d="M117 132.3h218.3v18.9H117z" filter="url(#c)"/>
  <path fill="#af0303" d="m281.3 59.5 3-.5c.6.2 1.1 0 1.4-.4.2-.1.3-.2.5-.1l1 .5-1.4.6c-3.5 1.2-7.2 1.5-10.9 1.9-1.1.1-2.2-.2-3.3-.3l-2.1-.3-3-.4c-4.6-.7-8.8-2.8-13.2-4.2L239 51.4h-2l12.7 4.9c4.8 1.8 9.5 3.9 14.4 5.3 2.5.7 5.1 1.3 7.7 1.2h4.8c4.7 0 9-1.5 13.1-3.8 3.7-2.1 6.2-5.3 8.9-8.4l.5-.7c.3-.6-.1-.9-.5-1.3l.4-1.1 4.1-6.4 1.1-1.4.8.6c.2 1 .9 1.6 1.7 1.9 2.2.9 4.3 1.9 6.8 1.9l-2.6 4.3-.4.9-1 1.5c-.5-.2-1-.4-1.3.2-.4.7-.6 1.5-.9 2.2-.6.3-.6.9-.6 1.4v.4c-.8 0-1.3.4-1.7 1.1l-4.2 6.6a92.8 92.8 0 0 1-4.4 6c-1.4 1.8-3.4 3.1-5.3 4.5a38 38 0 0 1-16.4 5.5c-5.2-.2-10.4.6-15.6-.5h-1.5c-2.4-.2-4.8-.3-7.2-.7l-15.3-2.8c-.8-.1-1.6-.3-2.2.5l-3.7-.6-3-.7-.6-.6a79.5 79.5 0 0 1 5.5-25.3l1.2.1 8.1 2.5 21.6 7.8a34.5 34.5 0 0 0 17.2 1.9l.9-.2 1-.4Z"/>
  <path fill="#ccb4aa" d="m327.4-.6-6.9 14-5.3 11.2-.5 1.4c1.3.9 2.6 1.8 4.2 1.8.8-.4 1-1.2 1.4-1.9l5.5-11.1L333 .3l-5.7-.9Z"/>
  <path fill="#af7034" d="M217.2 45.4c4-.3 7.7.7 11.5 1.7l2.6.7a93.6 93.6 0 0 0-3.7 11.7 57 57 0 0 0-1.8 13.6l-4.7-1.3-1.3-.6a35.4 35.4 0 0 1-7.3-5.4l-1.7-3.2-.7-5.6c.7-1.2.6-2.5.7-3.8l3.5-6.3 2.8-1.5Z"/>
  <path fill="#efdac9" d="M326-.7c-.4 0-.8 0-1.2-.2l-.4.7c0 .2 0 .5-.2.8l-2.1 4.2-.1.2c-.5 1.1-1 2.2-1.9 3.2l-6.4 12.7-.7.9-.7 3.6h.1c.2 0 .4.3.6.5h1.7l.5-1.4 5.3-11.2 6.9-14-1.4-.1Z"/>
  <path fill="#92928f" d="m333 .3-7.2 14.5-5.5 11.1c-.4.7-.5 1.5-1.4 1.9l1.3 1.7.8.8 2.9-5.5 1.7-3.2 2.4-4.7c0-1.5.7-2.8 1.8-3.8l.8-1.7c.1-1.4.9-2.5 1.7-3.7l.6-1 .6-1.4 1.2-2.8c0-.5 0-1.1.6-1.3 0-.2.2-.4.3-.5l-2.7-.3Z"/>
  <path fill="#7a2002" d="m288.2 77.4-2.5 1a54.9 54.9 0 0 1-11.3 2.1c-5.1-.1-10.2.2-15.3-.6-2.4-.3-4.8-.4-7.2-.8-4-.7-8.1-1.5-12.1-2.4l-6.6-1.7c.6-.8 1.4-.7 2.2-.5l15.3 2.8c2.4.4 4.8.5 7.2.7h1.5c5.2 1.1 10.4.3 15.6.5 5.7-1 11.5-2 16.4-5.5 1.9-1.3 3.8-2.6 5.3-4.5l4.4-6c1.5-2.1 2.8-4.4 4.2-6.6.4-.6.9-1 1.7-1.1l-.7 1.9-1.1 2.3c-.8.4-1.1 1-1.1 1.9-.5.6-1 1.1-1.4 1.8a42.3 42.3 0 0 1-7.9 10.3c-.4.1-.9.1-1.1.4-1.5 1.8-3.5 2.8-5.5 4Z"/>
  <path fill="#af7034" d="m320.2 29.4.8.8-5.5 10.9-.2.4-1.3 1.9c-2.8-.6-5.4-1.5-7.8-3 .4-.7 1-1.3 1.3-2l4.2-7.9c.6-1.1 1.1-2.4 2.4-3a14 14 0 0 0 5.9 1.8Z"/>
  <path fill="#bd3406" d="M298.9 48.6c.4.3.8.7.5 1.3l-.5.7c-2.7 3.1-5.2 6.3-8.9 8.4a26.5 26.5 0 0 1-13.1 3.8h-4.8c-2.6 0-5.2-.5-7.7-1.2-5-1.3-9.6-3.4-14.4-5.3l-12.7-4.9h2l14.3 4.9c4.4 1.4 8.6 3.5 13.2 4.2l3 .4 2.1.3c1.1.1 2.2.4 3.3.3 3.7-.4 7.4-.7 10.9-1.9l1.4-.6-1-.5c4.1-1.8 7.6-4.4 10.5-7.8l.7-.5c.8-.2 1.5-.5 1.5-1.5Z"/>
  <path fill="#d39d4e" d="M314.3 27.7c-1.3.6-1.8 1.8-2.4 3l-4.2 7.9-1.3 2-1.1-.2-.8-.6.6-1.7.5-1.2.9-1.8 4.3-8.2c.3-.6.5-1.4 1.4-1.4h.1l.6.5 1.3 1.7Z"/>
  <path fill="#af0303" d="M298.9 48.7c0 1-.7 1.3-1.5 1.5v-.5l1.4-1Z"/>
  <path fill="#bd3406" d="M285.7 58.6c-.4.5-.9.6-1.4.4l1.4-.4Zm19.5-18.3 1.1.2c2.4 1.6 5 2.5 7.8 3l-.4.6c-2.4 0-4.6-1-6.8-1.9-.8-.3-1.5-.9-1.7-1.9Zm4.6 10.4c-.3 1.3-.9 2.5-2.1 3.2v-.8c.3-.7.5-1.5.9-2.2.3-.6.8-.5 1.3-.2Z"/>
  <path fill="#7a2002" d="M307.6 53.1v.8l-.7.6c0-.6 0-1.1.6-1.4Z"/>
  <path fill="#bd3406" d="m311.1 48.3-.4.9.4-.9Zm-31.8 11.8.9-.2-.9.2Z"/>
  <path fill="#f6f4ec" d="M314.3 27.7 313 26h1.7c1.3.9 2.6 1.8 4.2 1.8l1.3 1.7a12 12 0 0 1-5.9-1.8ZM313 26l-.6-.6.6.6Z"/>
  <path fill="none" stroke="#e42a29" stroke-miterlimit="10" stroke-width="2" d="M2 150.5h96v40H2z"/>
</svg>
