<?xml version="1.0" encoding="UTF-8"?>
<svg id="uuid-f3b8ff65-caa8-4d6a-8524-952ce376cc64" data-name="Layer 1" xmlns="http://www.w3.org/2000/svg" width="335" height="335" xmlns:xlink="http://www.w3.org/1999/xlink" viewBox="0 0 335 335">
  <defs>
    <radialGradient id="uuid-c34acce8-b584-4e67-bd5c-b4669223e38d" data-name="New Gradient Swatch 4" cx="167.5" cy="237.83" fx="167.5" fy="237.83" r="205.5" gradientTransform="translate(0 .1) scale(1 .71)" gradientUnits="userSpaceOnUse">
      <stop offset="0" stop-color="#e6e7e8"/>
      <stop offset="1" stop-color="#f1f1f2"/>
    </radialGradient>
    <linearGradient id="uuid-46a792a1-2f8d-41a1-a8b8-71af4ec23c5c" data-name="New Gradient Swatch 3" x1="-8.46" y1="112.81" x2="352.05" y2="112.81" gradientTransform="matrix(1, 0, 0, 1, 0, 0)" gradientUnits="userSpaceOnUse">
      <stop offset="0" stop-color="#0d72b9"/>
      <stop offset="1" stop-color="#000"/>
    </linearGradient>
  </defs>
  <rect y=".33" width="335" height="335" fill="url(#uuid-c34acce8-b584-4e67-bd5c-b4669223e38d)"/>
  <g>
    <path d="M131.1,150.31c3.03-1.67,3.29-3.28,.99-5.94-1.41-1.63-2.37-3.83-2.96-5.94-1.09-3.87-4.45-3.86-7.29-4.74-1.24-.38-1.99,.41-2.03,1.63-.17,6.02-2.99,11.66-2.51,17.78,.1,1.22-.12,2.46,1,3.28,3.38,2.51,6.8,4.99,10.2,7.48,1.56-1.91,.6-3.62-.16-4.63-3.32-4.43-.87-6.91,2.76-8.92Z" fill="none"/>
    <path d="M130.37,155.9c2.23,1.16,3.86-2.04,5.62-1.06,2.63,1.47-.67,3.6,.22,5.79,4.88-.91,9.01-3.31,13.01-6.38-10.23-6.46-14.07-6.1-18.85,1.65Z" fill="none"/>
    <path d="M85.66,128.24c-3.04,2.99-7.22,2.61-11.29,1.74-1.51-.33-3.82-.94-4.62,1.03-.61,1.52,1.08,2.77,2.13,3.86,2.76,2.85,5.51,5.72,8.43,8.4,3.41,3.11,7.18,2.67,8.59-1.51,2.09-6.2,5.54-11.3,11.33-16.05-5.89-.33-10.44-1.54-14.58,2.52Z" fill="none"/>
    <path d="M104.26,119.13c-.53-4.7-.36-10.25,2.76-14.55,1.38-1.9,1.22-3.36,.49-5.2-2.48-6.26-5.44-12.27-8.9-18.04-1.11-1.85-2.52-3.18-4.63-3.86-3.4-1.09-5.85-2.02-5.88,3.58-.03,6.47-4.77,11.04-10.77,12.16-6.89,1.28-11.61-1.53-16.35-10.35-2,6.03-3.05,11.31-2.01,16.92,.62,3.38,1.08,6.81,1.23,10.24,.34,8.01,.24,7.97,8.16,5.28,5.42-1.84,11-2.63,16.76-2.56,3.96,.05,6.04,1.84,5.53,5.63-.62,4.6,1.67,5.26,5.33,4.95,1.71-.15,3.44-.03,5.16-.03,2.97,0,3.56-.41,3.14-4.15Z" fill="none"/>
    <path d="M114.87,169.78c-3.21,3.01-6.99,4.93-11.22,6.08-2.14,.58-2.21,1.92-.84,3.43,1.62,1.78,3.26,3.54,4.96,5.24,2.12,2.13,5.13,3.5,5.46,7.11,.07,.76,1.23,1.84,2.05,2.02,1.19,.26,1.55-1.11,1.95-2.02,1.75-4.11,3.46-8.23,5.13-12.24-.84-4.1-3.3-6.99-5.68-9.89-.49-.6-1.28-.23-1.81,.27Z" fill="none"/>
    <path d="M136.01,125.52c-.33,.41-.66,.83-.99,1.24,3.28,2.91,7.99,5.22,9.54,8.86,3.18,7.45,8.23,5.46,13.51,4.5,.67-.12,1.33-.29,2.93-.65-5.09-4.7-9.71-8.78-14.12-13.09-2.86-2.8-7.21-.55-10.88-.87Z" fill="none"/>
    <path d="M187.07,168.22c-8.29,4.47-17.09,7.66-26.02,10.78,11.53-1.01,23.07-2.01,36.01-3.14-2.84-2.97-4.8-5-6.74-7.04-.95-1-2.05-1.25-3.25-.6Z" fill="none"/>
    <path d="M149.8,98.12c3.35-.38,6.44-2.37,8.9-5.43,.66-.82,1.15-1.77,.6-2.84-.73-1.4-1.94-1.14-3.14-.79-3.15,.92-6.33,1.47-9.63,1.41-1.29-.02-3.01-.61-3.78,.81-.83,1.54,.38,2.96,1.14,4.26,1.16,1.98,3.08,2.61,5.91,2.58Z" fill="none"/>
    <path d="M104.18,132.49c-.14,.65-.02,1.36-.02,2.05,.02,1.99-.45,4.03,2.28,5.05,1.25,.47,1.87,2.4,3.06,3.3,1.41,1.06-.14,4.33,2.29,3.8,2.25-.5,1.96-3.36,2.15-5.31,.26-2.72,.09-5.47,.16-8.21,.11-4.1-2.3-6.95-5.85-7.2-3.91-.28-3.49,3.83-4.08,6.54Z" fill="none"/>
    <path d="M59.7,121.46c-1.17-2.75-11.58-4.63-14.07-2.79-.37,.28-.71,.75-.84,1.2-1.48,5.18,5.67,13.29,10.98,12.3,3.15-.59,6.45-.87,9.73-3.06-2.56-2.47-4.55-4.7-5.8-7.64Z" fill="none"/>
    <path d="M133.94,90.46c1.68-.66,4.16-1.23,3.59-3.63-.49-2.03-2.59-3.03-4.7-3.44-.49-.1-1.03,.02-1.54,.05-5.43,.28-10.86,.57-17.31,.9,1.21,1.38,1.62,1.9,2.09,2.38q7.66,7.72,17.87,3.74Z" fill="none"/>
    <path d="M54.76,116.07c2.03-.14,1.14-2.55,.67-3.89-2.35-6.62-4.21-13.38-5.87-20.95-2.49,3.02-3.66,5.6-3.05,8.41,.77,3.51-3.9,4.59-3.08,8.29,.52,2.34-1.23,5.57,1.27,7.15,2.95,1.87,6.73,1.21,10.06,.98Z" fill="none"/>
    <path d="M75.85,82.88c3.99-.9,4.65-4.64,5.16-7.68,0-.8,.02-1.15,0-1.49-.07-1.3-.46-2.65-1.96-2.54-4.09,.31-8.3,.39-12.18,1.53-1.69,.5-.29,3.26,.6,4.55,2.02,2.93,4.05,6.61,8.38,5.63Z" fill="none"/>
    <path d="M130.78,116.44c-1.47,.77-2.36,2.73-2.11,4.44,.31,2.09,2.33,2.24,4.05,2.35,1.36,.09,2.74,.02,4.11,.02v.03c.17,0,.34,.02,.51,0,1.82-.23,4.54,.87,5.26-.76,.96-2.18-1.49-4-2.9-5.52-2.61-2.83-5.98-2.1-8.93-.56Z" fill="none"/>
    <path d="M84.96,123.22c2.9-.11,3.97-1.86,4.03-4.35,.07-2.64-1.46-4.43-4.07-4.34-7.25,.26-14.39,1.26-21.03,4.52-2.01,.99-2.35,2.4-1.16,4.18,.66,.99,1.42,1.97,2.33,2.73,4.3,3.61,16.13,3.4,21.04-.53-2.04-1.71-4.43-.06-6.2-1.61,1.66-1.07,3.42-.54,5.06-.6Z" fill="none"/>
    <path d="M335,171c-2.89,.54-5.78,1.07-8.67,1.6l1.78,.72,5.56-1.15,1.34-.1v-1.06Z" fill="#ec1c24"/>
    <path d="M249.76,184.83c-4.29,.54-7.3-1.64-10.27-3.89-1.69-1.28-2-3.66-1.73-5.73,.23-1.74,1.97-1.61,3.32-1.79,10.59-1.41,21.21-2.64,31.76-4.26,20.78-3.18,41.59-6.15,62.16-10.6v-2.07c-.68,.06-1.38,.05-2.05,.18-30.71,5.6-61.52,10.53-92.5,14.38-2.43,.3-4.31,.64-5.35-2.28-5.83-16.4-15.2-30.51-27.86-42.45-.73-.69-1.86-1.36-1.54-2.5,.42-1.47,1.91-1.24,3.06-1.3,7.75-.4,15.51-.6,23.25-1.16,15.81-1.15,31.63-2.32,47.42-3.78,18.54-1.71,37.04-3.74,55.57-5.64v-2.07c-2.22,.31-4.43,.66-6.65,.92-21.57,2.52-43.16,4.93-64.82,6.6-19.42,1.49-38.83,3.12-58.3,3.8-2.32,.08-4.46-.24-6.25-1.89-1.13-1.03-2.78-1.89-2.05-3.75,.62-1.59,2.31-1.22,3.64-1.29,12.23-.66,24.46-1.32,36.69-1.94,32.74-1.66,65.31-5,97.75-9.71v-2.07c-8.03,.93-16.06,1.85-24.09,2.8-19.85,2.35-39.73,4.45-59.68,5.64-17.38,1.04-34.77,1.75-52.15,2.67-2.79,.15-4.44-.95-5.66-3.46-4.97-10.27-12.95-17.28-23.59-21.29-1.43-.54-3.3-.87-3.07-2.89,.24-2.12,2.18-1.9,3.68-1.93,17.06-.35,34.05-1.95,51.06-3.13,20.11-1.39,40.16-3.48,60.18-5.8,17.8-2.06,35.55-4.52,53.32-6.8v-2.07c-35.99,5.37-72.07,9.92-108.39,12.48-17.37,1.22-34.72,2.58-52.08,3.87-4.25,.32-7.69,.6-8.8-5.51-1.35-7.46-8.63-11.66-16.5-11.17-7.21,.44-13.35,5.81-14.31,13.36-.47,3.7-2.03,4.6-5.31,4.53-5.35-.12-10.7,0-16.06,.01-.52,0-1.09,.11-1.54-.06-9.34-3.59-18.08-8.77-28.69-10.4,4.01,.15,4.39-1.98,4.37-4.6-.06-6.24-1.72-11.7-7.69-14.75-5.24-2.67-10.39-2.21-15.05,1.45-5.32,4.19-5.76,9.87-4.56,15.97,.13,.67,.71,1.38,.57,1.96-.58,2.42,4.9,.52,2.61,3.51-1,1.31-3.38,1.51-5.08,2.33-12.21,5.9-16.4,17.05-18.97,29.19-1.08,5.1-.99,10.24-.21,15.44,1.41,9.33,7.11,13.85,16.53,12.01,4.35-.85,6.89-.18,8.93,4.08,1.76,3.67,4.61,6.85,7.15,10.11,1.44,1.86,2.9,4.01,5.93,3.19,.54-.15,1.52,.14,1.86,.57,5.11,6.61,12.35,11.67,14.79,20.24,.36,1.26,.16,2.39-.23,3.53-4.14,11.9-8.19,23.84-13.47,35.3-.92,1.99-1.85,3.57-2.86,4.79l1.71,1.03c1.43-1.81,2.71-4.25,3.95-7.36,4.32-10.85,8.52-21.75,12.77-32.63,.21,0,.42,.01,.63,.02,0,.48,.12,1-.02,1.43-3.83,12.01-7.58,24.05-11.59,36l3.76-2.28c2.71-9.7,6.17-19.19,9.21-28.79,.91-2.88,1.75-3.74,4.4-1.2,4.16,3.99,7.29,8.71,10.65,13.28,1.21,1.64,1.03,3.14,.22,4.82-1.46,3.04-2.91,6.09-4.35,9.14l2.33-1.14c1.24-2.48,2.6-4.9,4.18-7.21-1.07,2.22-2.01,4.51-2.89,6.82l3.49,.25c.45-1.03,.9-2.07,1.35-3.1,.46-1.05,.57-2.64,2.07-2.65,1.37,0,1.81,1.42,2.39,2.45,.61,1.08,.93,2.19,1.09,3.33l1.44-.03,.67-.89c-.24-.99-.67-1.91-1.33-2.67-5.54-6.36-1.57-11.59,1.26-17.73,1.6,2.47,.73,5.74,2.91,6.89,3.65,1.92,4.81,5.18,5.51,8.48l2.71,.36,4.69-4.39c-4.02-2.33-7.45-5.3-10.38-8.85-1.19-1.45-3.56-3.65-1.24-5.09,2.06-1.28,4.95-2.38,7.76,.63,3.31,3.55,4.28,8.1,6.15,12.27l4.16-1.64,5.29-3.49,5.6,.04,5.44-.13,1.21-.69c-2.73-1.34-2.83-4.84-3.29-7.35-.58-3.19,3.15-2.49,5.05-2.73,5.29-.67,10.7-.51,15.94-1.38,10.89-1.8,21.06-1.76,28.43,8.01l3.93,.44,5.99,1.17,5.97,1.14,5.91,1.69,5.97,1.81,6.17-2.31,6.09,2.11,4.69-2.74c-1.47-1.19-2.91-2.5-4.4-3.84,1.47-1.22,2.89-1.17,4.24-1.37,10.74-1.57,21.51-3.04,32.23-4.76,.22-.04,.44-.07,.66-.11l1.32-1.88c-13.39,2.19-26.82,4.2-40.29,5.91Zm-107.01-93.55c.77-1.43,2.48-.84,3.78-.81,3.3,.06,6.49-.49,9.63-1.41,1.2-.35,2.41-.61,3.14,.79,.55,1.07,.06,2.02-.6,2.84-2.46,3.06-5.55,5.05-8.9,5.43-2.83,.03-4.75-.6-5.91-2.58-.76-1.3-1.97-2.72-1.14-4.26Zm-3.03,25.71c1.41,1.52,3.86,3.34,2.9,5.52-.72,1.63-3.45,.54-5.26,.76-.17,.02-.34,0-.51,0v-.03c-1.37,0-2.75,.07-4.11-.02-1.72-.12-3.75-.26-4.05-2.35-.25-1.72,.64-3.67,2.11-4.44,2.95-1.54,6.32-2.27,8.93,.56Zm-8.43-33.56c.51-.03,1.05-.14,1.54-.05,2.11,.41,4.21,1.41,4.7,3.44,.58,2.4-1.9,2.97-3.59,3.63q-10.2,4-17.87-3.74c-.47-.47-.88-1-2.09-2.38,6.45-.34,11.88-.62,17.31-.9Zm-17.18,49.72c-.07,2.74,.1,5.49-.16,8.21-.19,1.95,.1,4.82-2.15,5.31-2.43,.54-.88-2.74-2.29-3.8-1.19-.89-1.81-2.83-3.06-3.3-2.73-1.02-2.27-3.06-2.28-5.05,0-.68-.12-1.39,.02-2.05,.58-2.71,.17-6.81,4.08-6.54,3.55,.25,5.95,3.1,5.85,7.2Zm-47.23-60.46c3.88-1.14,8.09-1.22,12.18-1.53,1.5-.11,1.89,1.24,1.96,2.54,.02,.34,0,.69,0,1.49-.52,3.04-1.17,6.78-5.16,7.68-4.33,.97-6.37-2.71-8.38-5.63-.89-1.28-2.28-4.05-.6-4.55Zm-23.44,35.23c-.82-3.7,3.84-4.79,3.08-8.29-.61-2.81,.55-5.39,3.05-8.41,1.67,7.57,3.53,14.33,5.87,20.95,.48,1.34,1.36,3.75-.67,3.89-3.33,.23-7.11,.89-10.06-.98-2.5-1.59-.76-4.81-1.27-7.15Zm12.34,24.23c-5.31,.99-12.46-7.11-10.98-12.3,.13-.45,.46-.92,.84-1.2,2.49-1.84,12.9,.04,14.07,2.79,1.25,2.94,3.25,5.17,5.8,7.64-3.28,2.19-6.58,2.47-9.73,3.06Zm30.33-6.73c-4.91,3.93-16.74,4.14-21.04,.53-.91-.76-1.66-1.74-2.33-2.73-1.18-1.77-.85-3.19,1.16-4.18,6.64-3.26,13.78-4.26,21.03-4.52,2.61-.09,4.14,1.7,4.07,4.34-.07,2.49-1.13,4.24-4.03,4.35-1.65,.06-3.41-.46-5.06,.6,1.77,1.55,4.17-.1,6.2,1.61Zm2.82,16.33c-1.41,4.17-5.18,4.62-8.59,1.51-2.93-2.67-5.67-5.55-8.43-8.4-1.06-1.09-2.75-2.34-2.13-3.86,.79-1.97,3.11-1.36,4.62-1.03,4.06,.87,8.24,1.25,11.29-1.74,4.14-4.07,8.69-2.85,14.58-2.52-5.79,4.75-9.23,9.85-11.33,16.05Zm7.05-18.46c-3.66,.32-5.95-.35-5.33-4.95,.51-3.78-1.57-5.58-5.53-5.63-5.76-.07-11.33,.72-16.76,2.56-7.92,2.69-7.81,2.73-8.16-5.28-.15-3.43-.6-6.86-1.23-10.24-1.04-5.61,0-10.89,2.01-16.92,4.74,8.82,9.45,11.63,16.35,10.35,6-1.12,10.74-5.69,10.77-12.16,.03-5.6,2.49-4.67,5.88-3.58,2.1,.68,3.52,2,4.63,3.86,3.46,5.77,6.42,11.79,8.9,18.04,.73,1.83,.88,3.3-.49,5.2-3.12,4.3-3.29,9.85-2.76,14.55,.42,3.74-.16,4.16-3.14,4.15-1.72,0-3.46-.12-5.16,.03Zm21.27,68.34c-.39,.92-.75,2.29-1.95,2.02-.82-.18-1.98-1.26-2.05-2.02-.33-3.61-3.34-4.98-5.46-7.11-1.7-1.7-3.34-3.47-4.96-5.24-1.38-1.51-1.31-2.85,.84-3.43,4.23-1.15,8.01-3.07,11.22-6.08,.53-.5,1.32-.87,1.81-.27,2.39,2.9,4.85,5.79,5.68,9.89-1.68,4.01-3.38,8.13-5.13,12.24Zm11.1-32.41c.76,1.01,1.72,2.72,.16,4.63-3.4-2.49-6.81-4.96-10.2-7.48-1.11-.83-.9-2.07-1-3.28-.48-6.12,2.34-11.76,2.51-17.78,.03-1.23,.79-2.02,2.03-1.63,2.84,.88,6.2,.88,7.29,4.74,.6,2.11,1.56,4.31,2.96,5.94,2.29,2.66,2.03,4.27-.99,5.94-3.64,2.01-6.09,4.49-2.76,8.92Zm7.86,1.39c-.89-2.19,2.41-4.31-.22-5.79-1.75-.98-3.39,2.22-5.62,1.06,4.77-7.75,8.62-8.11,18.85-1.65-4,3.07-8.14,5.47-13.01,6.38Zm21.86-20.5c-5.28,.96-10.33,2.95-13.51-4.5-1.56-3.65-6.26-5.95-9.54-8.86,.33-.41,.66-.83,.99-1.24,3.67,.31,8.01-1.94,10.88,.87,4.4,4.31,9.03,8.39,14.12,13.09-1.61,.36-2.27,.53-2.93,.65Zm2.99,38.88c8.92-3.12,17.72-6.32,26.02-10.78,1.21-.65,2.3-.4,3.25,.6,1.94,2.05,3.9,4.08,6.74,7.04-12.94,1.13-24.47,2.13-36.01,3.14Z" fill="#ec1c24"/>
    <path d="M58.44,214.34c-1.53-.77-2.86-.91-3.91,.27l2.88,1.14,5.7,2.23,2.16-.5c-.09-.03-.17-.06-.26-.09-2.26-.83-4.42-1.96-6.57-3.04Z" fill="#ec1c24"/>
    <path d="M202.92,190.73l2.04-1.11c-1.58,.11-3.15,.21-4.73,.32l2.69,.79Z" fill="#ec1c24"/>
  </g>
  <polygon points="0 225.29 9.89 221.87 13.35 216.04 19.74 217.28 24.87 217.46 29.99 213.74 35.64 211.85 40.57 218.48 46.21 217.6 51.78 213.52 57.41 215.75 63.11 217.98 68.67 216.68 74.02 213.37 80 216.95 85.34 214.25 90.52 211.11 95.84 209.37 101.39 208.94 107.36 210.13 112.5 207.62 118.42 208.05 124.75 207.89 129.6 201.42 136.48 202.35 141.41 197.73 147.62 195.28 152.91 191.79 158.51 191.83 163.94 191.7 169.16 188.74 174.72 188.66 180.25 187.28 185.84 188.54 191.39 187.78 196.98 188.98 202.92 190.73 209.15 187.33 215.22 188.01 221.2 189.17 227.17 190.31 233.08 192 239.05 193.81 245.22 191.5 251.31 193.61 257.08 190.24 263.46 190.35 269.71 190.36 275.74 189.17 281.3 186.54 286.65 183.75 290.26 178.63 295.24 174.96 301.38 174.04 306.81 175.05 311.99 170.1 317.35 172.42 322.85 171.2 328.1 173.32 335 172.07 334.94 154.72 335 .33 0 .33 0 193.07 0 225.29" fill="url(#uuid-46a792a1-2f8d-41a1-a8b8-71af4ec23c5c)" opacity=".9"/>
  <path d="M335,142.38c-.92-.14-1.84-.36-2.75-.7-3.22-1.19-5.52-3.43-7.15-6.4-1.04-1.89-1.78-3.9-2.38-5.96-.01-.04,0-.08,0-.23,.23,.3,.42,.52,.58,.77,2.46,3.81,5.83,6.42,10.26,7.49,.48,.12,.96,.19,1.43,.27v-1.02h-.01c-.33-.06-.46-.17-.42-.5,.02-.17,0-.35,0-.47h.43v-9.68c-.25-.01-.5-.01-.75-.03l-.1-1.63h.84v-1.08h-.88v-7.68h.88v-1.04c-.16,0-.32,0-.48,0-.35,0-.43-.11-.44-.45-.07-2.65-.15-5.3-.24-7.95,0-.07,0-.14,0-.25h1.16v-13.66c-.74-.02-1.49-.02-2.23-.05-.43-.02-.86-.15-1.27-.28-.13-.04-.29-.26-.28-.39,0-.13,.19-.29,.33-.36,.16-.08,.37-.11,.56-.12,.97-.03,1.93-.06,2.9-.08v-9.84c-.72,.04-1.45,.09-2.17,.13-.52,.03-.98-.12-1.38-.44-.31-.25-.61-.45-1.06-.39-.35,.05-.61-.27-.57-.57,.21-.09,.4-.17,.58-.25,1.46-.67,3.02-.92,4.6-1.05v-1.06c-.19,.02-.38,.04-.58,.06-1.4,.12-2.78,.33-4.11,.81-.11,.04-.3,0-.4-.07-.4-.28-.79-.59-1.18-.89h-.58c-.55,.2-1.12,.37-1.65,.62-.37,.17-.73,.41-1.01,.69-1.98,2.03-3.87,4.14-5.61,6.38-1.09,1.4-1.49,3-1.61,4.68-.04,.59-.23,1.1-.38,1.64-.04,.14-.22,.26-.36,.35-.61,.4-1.24,.76-1.83,1.18-.34,.23-.37,.59-.35,.99,.03,.84,.03,1.69-.03,2.54-.02,.26-.26,.51-.39,.76v.25c.35,.74,.08,1.49,0,2.23v1.4c.08,.47,.14,.95,.25,1.41,.08,.35,.16,.72,.35,1,.31,.47,.35,.96,.33,1.49-.11,2.17,.25,4.31,.52,6.45,.38,3.04,.84,6.07,1.28,9.1,.03,.2,.09,.4,.17,.59,.75,1.65,1.5,3.3,2.26,4.94,.07,.16,.16,.33,.29,.44,.5,.44,.68,1.02,.84,1.65,.83,3.31,2.08,6.43,4.2,9.15,2.46,3.17,5.65,5.04,9.57,5.55v-.44Zm-12.02-16.93c-.04-.06-.05-.16-.05-.23,0-.81,0-1.61,0-2.47,.55,.13,1.07,.24,1.58,.37,.09,.02,.2,.11,.23,.2,.36,1.02,.7,2.04,1.04,3.06-.99,.43-2.21-.09-2.81-.92Zm2.33-10.36c2.61,.14,5.15,.28,7.72,.42v7.71c-2.5-.3-4.95-.59-7.43-.88-.1-2.47-.19-4.85-.29-7.25Zm.19,15.62c.25,.15,.46,.24,.62,.39,.51,.46,.97,.97,1.5,1.4,.39,.31,.61,.68,.69,1.15-.78-.29-2.51-2.07-2.82-2.94Zm8.02,5.22c-.01,.09-.02,.18-.04,.31-1.17-.31-2.24-.78-3.29-1.31-.37-.19-.48-.47-.55-.85,.65,.27,1.25,.56,1.87,.78,.49,.17,1,.33,1.51,.39,.47,.06,.57,.27,.51,.67Zm-.31-10.07c-.75-.08-1.47-.14-2.18-.25-.54-.08-1.08-.21-1.61-.35-.99-.26-1.84-.02-2.65,.68-.29-.84-.57-1.65-.85-2.47,2.4,.27,4.77,.53,7.18,.79,.03,.5,.07,1.01,.11,1.6Zm-.43-20.05c.09,2.85,.18,5.69,.27,8.65-2.6-.14-5.17-.28-7.78-.43-.09-2.7-.19-5.35-.28-8.07,2.63-.05,5.18-.1,7.79-.14Zm-11.01-19.66c.93-1.76,2.28-3.19,3.57-4.67,.46-.54,1.01-.91,1.67-1.17,.72-.28,1.19-.14,1.64,.47,.68,.93,.75,2.03,.9,3.11,.02,.14-.08,.32-.18,.44-.54,.69-1.06,1.41-1.66,2.05-.57,.62-1.21,1.2-1.84,1.76-.62,.55-1.21,1.12-1.6,1.87-.04,.07-.09,.16-.15,.18-.54,.18-1.07,.36-1.62,.5-.26,.07-.55,.1-.82,.09-.33-.02-.69-.05-.99-.17-.14-.06-.19-.34-.24-.45,.19-1.5,.67-2.77,1.32-4Zm1.31,5.29c-.51,.13-1.01,.2-1.51-.11h1.5v.11Zm-4.84,11.45c0,.06-.04,.14-.08,.17-.3,.21-1.18-.21-1.21-.57-.02-.21-.02-.41-.03-.54,.02-1.05-.16-.98,.92-1.2,.12-.02,.24-.05,.36-.07,.21-.03,.31,.07,.28,.29-.08,.64-.16,1.28-.24,1.92Zm-.39-7.09c-.68-.18-1-.61-1.01-1.31,0-.29,.33-.64,.73-.75,1.66-.46,3.35-.61,5.07-.45,.86,.08,1.72,.2,2.58,.3,.33,.04,.52,.21,.58,.54,.06,.33,.13,.65,.2,.97,.08,.35-.05,.57-.4,.63-.68,.11-1.36,.23-2.04,.29-.85,.08-1.7,.1-2.55,.15v-.04c-.7-.05-1.4-.08-2.1-.14-.35-.03-.71-.09-1.05-.18Zm6.37,18.07c-.45-.05-.85-.09-1.28-.13-.14-2.57-.29-5.1-.43-7.67,.45-.02,.91-.05,1.44-.08,.09,2.63,.18,5.22,.27,7.88Zm-3.83-12.08c0,.3,0,.6,0,.9-.01,.37-.23,.47-.8,.4-.36-.04-.21-.27-.18-.46,.07-.56,.14-1.11,.19-1.67,.03-.32,.15-.47,.48-.47,.35,0,.31,.25,.32,.46,.01,.27,0,.55,0,.82Zm.28,4.29c.15,2.5,.29,4.91,.44,7.39-.52-.11-.94-.19-1.37-.28-.23-2.26-.46-4.48-.7-6.79,.53-.1,1.04-.21,1.63-.32Zm-.36,17.86c-.2-.43-.4-.87-.63-1.37,.85,.22,.51,.9,.72,1.33l-.09,.04Zm.99-4.2c-.02,.12-.07,.23-.08,.26l-.83-.13c-.18-1.83-.36-3.67-.54-5.57,.44,.08,.79,.13,1.13,.21,.09,.02,.21,.15,.22,.23,.16,1.66,.43,3.33,.09,5Zm1.2,.99c.15-1.95,.36-3.9,.56-5.91,.27,.03,.63,.04,.98,.12,.1,.02,.21,.22,.22,.35,.08,1.63,.14,3.27,.19,4.91,.02,.6,0,1.2,0,1.84-.51-.13-1.05-.25-1.57-.42-.41-.14-.41-.59-.38-.87Z"/>
  <g>
    <g>
      <path d="M31.75,16.12c0,.37-.15,.73-.42,.99l-4.47,4.47-4.78-2.76v-2.71c0-.78,.63-1.41,1.41-1.41s1.41,.63,1.41,1.41h0v3.43l4.43-4.43c.55-.55,1.45-.55,2,0,.27,.27,.42,.63,.41,1.01" fill="#fff"/>
      <path d="M30.33,29.07c-.19,0-.37-.04-.54-.11-.17-.07-.33-.18-.46-.31l-4.43-4.42v3.43c0,.78-.63,1.41-1.41,1.41s-1.41-.63-1.41-1.41v-2.7l4.79-2.77,4.47,4.47c.89,.89,.26,2.42-1,2.42" fill="#fff"/>
      <path d="M26.65,21.79c-.02-.07-.07-.13-.13-.17h-.02l-1.21-.71-3.22-1.86-2.73-1.58c-.15-.09-.35-.04-.44,.12-.03,.05-.04,.1-.04,.16v8.27c0,.18,.14,.32,.32,.32,.06,0,.11-.01,.16-.04l2.73-1.58,4.43-2.56s.03-.02,.04-.03c.04-.03,.07-.07,.09-.12,0-.01,0-.02,.01-.04,.02-.06,.02-.12,0-.18Zm-1.08,.16c-.02,.06-.06,.11-.11,.15l-3.44,1.98-2.12,1.22c-.12,.07-.27,.03-.34-.09-.02-.04-.03-.08-.03-.13v-6.42c0-.14,.11-.25,.25-.25,.04,0,.09,.01,.12,.03l2.12,1.22,3.44,1.98c.1,.06,.15,.17,.11,.28h0Z" fill="#fff"/>
      <path d="M24.61,21.94s-.04,.09-.09,.11l-2.59,1.49-1.59,.92c-.09,.05-.2,.02-.25-.07-.02-.03-.03-.06-.03-.09v-4.83c0-.1,.08-.19,.19-.19,.03,0,.06,0,.09,.02l1.59,.92,2.59,1.49s.07,.06,.09,.11c0,.03,0,.07,0,.1" fill="#fff"/>
    </g>
    <g>
      <path d="M55.11,21.71c-.02-.06-.07-.12-.13-.15l-3.94-1.98-2.43-1.22c-.19-.1-.42,.03-.42,.23l.08,6.56c0,.19,.24,.31,.43,.21l2.4-1.28,3.88-2.08c.06-.03,.11-.09,.13-.15,.02-.05,.02-.1,0-.15Zm-.95,.14c-.02,.05-.05,.09-.1,.12l-3.02,1.61-1.86,.99c-.15,.08-.33-.01-.33-.17l-.06-5.09c.01-.12,.12-.21,.24-.2,.03,0,.06,.01,.09,.03l1.89,.94,3.06,1.54s.08,.06,.1,.11c0,.04,0,.07,0,.11h0Z" fill="#fff"/>
      <path d="M53.3,21.84s-.04,.07-.08,.09l-2.27,1.21-1.4,.75c-.08,.05-.18,.02-.23-.06-.01-.02-.02-.04-.02-.07l-.05-3.83c0-.09,.09-.16,.18-.15,.02,0,.05,0,.07,.02l1.42,.71,2.3,1.16s.06,.05,.08,.09c0,.03,0,.06,0,.09" fill="#fff"/>
      <path d="M34.62,18.47l3.43-.04c1.65-.02,2.88,.92,2.9,2.27s-1.19,2.32-2.84,2.34l-1.8,.02,.03,2.22-1.63,.02-.08-6.82Zm3.29,3.23c.81,0,1.36-.39,1.35-.98s-.57-.96-1.37-.94l-1.62,.02,.02,1.93,1.62-.02Z" fill="#fff"/>
      <path d="M47.38,24l.02,1.32-5.43,.07-.08-6.82,1.64-.02,.07,5.5,3.79-.05Z" fill="#fff"/>
      <path d="M56.88,22.74l-3.03-4.32,1.91-.02,1.93,2.97,1.94-3.01,1.83-.02-2.92,4.4,.03,2.46-1.65,.02-.03-2.46Z" fill="#fff"/>
      <path d="M62.51,18.77h.86l.05,3.76,3.81-3.82h1.14l-3.17,3.14,3.46,3.66h-1.12l-2.93-3.13-1.18,1.15,.02,2.05h-.86l-.09-6.81Z" fill="#fff"/>
      <path d="M69.09,22.11c-.02-1.92,1.75-3.55,3.86-3.57s3.91,1.56,3.93,3.48-1.73,3.56-3.85,3.58-3.92-1.57-3.94-3.49Zm6.92-.09c-.02-1.52-1.41-2.79-3.05-2.77s-3.01,1.33-2.99,2.85,1.42,2.8,3.06,2.78,3-1.33,2.98-2.86h0Z" fill="#fff"/>
      <path d="M78,24.55l.54-.61c.65,.57,1.44,.97,2.51,.95,1.17-.01,1.77-.6,1.76-1.21,0-.72-.73-1-2.07-1.27-1.53-.3-2.5-.71-2.52-1.9-.01-1.09,1.06-1.96,2.53-1.98,.98-.02,1.93,.31,2.68,.94l-.52,.61c-.64-.54-1.4-.86-2.19-.85-.94,.01-1.62,.58-1.61,1.2,0,.71,.77,.94,2.06,1.21,1.46,.29,2.5,.74,2.52,1.95,.01,1.08-.89,1.98-2.66,2-1.24,.01-2.24-.38-3.01-1.05Z" fill="#fff"/>
      <path d="M85.26,18.77h.86l2.88,4.71,2.77-4.79h.86l.09,6.81h-.86l-.06-5.14-2.77,4.79-2.88-4.72,.06,5.15h-.86l-.09-6.81Z" fill="#fff"/>
      <path d="M94.3,22.11c-.02-1.92,1.75-3.55,3.86-3.57s3.91,1.56,3.93,3.48c.02,1.92-1.73,3.56-3.85,3.58s-3.92-1.57-3.94-3.49Zm6.92-.09c-.02-1.52-1.41-2.79-3.05-2.77s-3.01,1.33-2.99,2.85,1.42,2.8,3.06,2.78,3-1.33,2.98-2.86h0Z" fill="#fff"/>
      <path d="M103.21,24.55l.54-.61c.65,.57,1.44,.97,2.51,.95,1.17-.01,1.77-.6,1.76-1.21,0-.73-.73-1-2.07-1.27-1.53-.3-2.5-.71-2.52-1.9-.01-1.09,1.06-1.96,2.53-1.98,.98-.02,1.93,.31,2.68,.94l-.52,.61c-.64-.54-1.4-.86-2.19-.85-.94,.01-1.62,.58-1.62,1.2,0,.71,.77,.94,2.06,1.21,1.46,.29,2.5,.74,2.52,1.95,.01,1.08-.88,1.98-2.66,2-1.24,.01-2.24-.38-3.01-1.05Z" fill="#fff"/>
    </g>
  </g>
  <rect x="292.36" width="20.58" height="25.34" fill="#ec2024"/>
  <rect x="18.8" y="90.55" width="74.93" height="1.33" fill="#ec1c24"/>
  <g>
    <g>
      <rect x="9.91" y="142.61" width="150" height="18.37" rx="6.45" ry="6.45" fill="#ec2024"/>
      <rect x="7.22" y="140.14" width="155.39" height="23.3" rx="7.4" ry="7.4" fill="none" stroke="#ec2024" stroke-miterlimit="10" stroke-width="2.22"/>
    </g>
    <g>
      <rect x="171.83" y="142.61" width="150" height="18.37" rx="6.45" ry="6.45" fill="#ec2024"/>
      <rect x="169.14" y="140.14" width="155.39" height="23.3" rx="7.4" ry="7.4" fill="none" stroke="#ec2024" stroke-miterlimit="10" stroke-width="2.22"/>
    </g>
  </g>
  <path d="M98.38,185.66c0,2.72-4.01,4.94-8.9,4.94H24.45c-4.9,0-8.9-2.22-8.9-4.94v-5.89c0-2.72,4.01-4.94,8.9-4.94H89.48c4.9,0,8.9,2.22,8.9,4.94v5.89Z" fill="#fff"/>
  <path d="M22.76,308.65c-2.5,.83-4.99,1.66-7.72,2.56,.05-2.09,.1-3.92,.16-6.18l7.57,2.65v.98Z" fill="#231f20"/>
  <path d="M22.76,236.8c-2.5,.83-4.99,1.66-7.72,2.56,.05-2.09,.1-3.92,.16-6.18l7.57,2.65v.98Z" fill="#231f20"/>
  <path d="M139.13,308.65c-2.5,.83-4.99,1.66-7.72,2.56,.05-2.09,.1-3.92,.16-6.18l7.57,2.65v.98Z" fill="#231f20"/>
  <path d="M22.77,264.53c-2.5,.83-5,1.66-7.73,2.57,.05-2.1,.1-3.92,.16-6.19l7.58,2.65v.98Z" fill="#231f20"/>
  <path d="M22.77,286.59c-2.5,.83-5,1.66-7.73,2.57,.05-2.1,.1-3.92,.16-6.19l7.58,2.65v.98Z" fill="#231f20"/>
  <g>
    <rect x="274.59" y="288.9" width="33.01" height="46.1" fill="#ec2024"/>
    <circle cx="291.1" cy="285.79" r="37.11" fill="#ec2024"/>
    <rect x="269.36" y="280.26" width="43.47" height=".53" fill="#fff"/>
  </g>
</svg>