<?xml version="1.0" encoding="UTF-8"?>
<svg id="uuid-6d79bea7-1edf-4e25-8a4e-53ece60740fb" data-name="Layer 1" xmlns="http://www.w3.org/2000/svg" width="335" height="335" xmlns:xlink="http://www.w3.org/1999/xlink" viewBox="0 0 335 335">
  <defs>
    <linearGradient id="uuid-984dd395-1939-4210-bc2b-910ca519f74b" x1="316.7" y1="-4.1" x2="7.95" y2="351.29" gradientTransform="matrix(1, 0, 0, 1, 0, 0)" gradientUnits="userSpaceOnUse">
      <stop offset="0" stop-color="#414449"/>
      <stop offset="1" stop-color="#000"/>
    </linearGradient>
    <linearGradient id="uuid-19fdef7d-4711-4e50-acde-49f1158d846f" x1="316.55" y1="-3.62" x2="8.11" y2="351.42" gradientTransform="matrix(1, 0, 0, 1, 0, 0)" gradientUnits="userSpaceOnUse">
      <stop offset="0" stop-color="#26252b"/>
      <stop offset="1" stop-color="#1c1b1f"/>
    </linearGradient>
    <filter id="uuid-86633a10-3a2d-4225-b6f9-40ea58071fca" filterUnits="userSpaceOnUse">
      <feOffset dx="5" dy="5"/>
      <feGaussianBlur result="uuid-0c128275-57fd-49f8-81b8-e9225fa25a97" stdDeviation="5"/>
      <feFlood flood-color="#000" flood-opacity=".75"/>
      <feComposite in2="uuid-0c128275-57fd-49f8-81b8-e9225fa25a97" operator="in"/>
      <feComposite in="SourceGraphic"/>
    </filter>
    <filter id="uuid-b36340a9-6830-4ab6-bef6-df9ce8f9eecd" filterUnits="userSpaceOnUse">
      <feOffset dx="-5" dy="5"/>
      <feGaussianBlur result="uuid-5e8e80ef-3a3c-4730-8153-262286c113a6" stdDeviation="5"/>
      <feFlood flood-color="#000" flood-opacity=".75"/>
      <feComposite in2="uuid-5e8e80ef-3a3c-4730-8153-262286c113a6" operator="in"/>
      <feComposite in="SourceGraphic"/>
    </filter>
    <filter id="uuid-f94e8ed5-90d8-428b-a348-aaaac4683376" filterUnits="userSpaceOnUse">
      <feOffset dx="-5" dy="5"/>
      <feGaussianBlur result="uuid-e856ed4f-e144-4e0c-bf45-4b732545e6d3" stdDeviation="5"/>
      <feFlood flood-color="#000" flood-opacity=".75"/>
      <feComposite in2="uuid-e856ed4f-e144-4e0c-bf45-4b732545e6d3" operator="in"/>
      <feComposite in="SourceGraphic"/>
    </filter>
  </defs>
  <path d="M-.08-.46V183.26c.84,15.64,.12,31.38,0,47.02v105.63H334.92V-.46H-.08Z" fill="url(#uuid-984dd395-1939-4210-bc2b-910ca519f74b)"/>
  <g>
    <circle cx="152.36" cy="194.16" r="115.45" fill="#f62c00"/>
    <path d="M153.4,310.94c-64,0-116.06-52.06-116.06-116.06s52.06-116.06,116.06-116.06,116.06,52.06,116.06,116.06-52.06,116.06-116.06,116.06Zm0-228.31c-61.9,0-112.25,50.36-112.25,112.25s50.36,112.25,112.25,112.25,112.25-50.36,112.25-112.25-50.36-112.25-112.25-112.25Z" fill="#ff5321"/>
    <g>
      <g>
        <circle cx="128.55" cy="201.08" r="12.47" fill="#ff5321"/>
        <path d="M174.28,201.39c0,6.89-5.58,12.47-12.47,12.47s-12.47-5.58-12.47-12.47,5.58-12.47,12.47-12.47,12.47,5.58,12.47,12.47Z" fill="#ff5321"/>
        <circle cx="194.45" cy="201.08" r="12.47" fill="#ff5321"/>
        <path d="M191.14,231.51c0,6.89-5.58,12.47-12.47,12.47s-12.47-5.58-12.47-12.47,5.58-12.47,12.47-12.47,12.47,5.58,12.47,12.47Z" fill="#ff5321"/>
        <ellipse cx="160.17" cy="258.54" rx="12.12" ry="10.38" fill="#ff5321"/>
        <path d="M167.82,296.78c0,2.7-4.33,4.89-9.67,4.89s-9.67-2.19-9.67-4.89,4.33-4.89,9.67-4.89,9.67,2.19,9.67,4.89Z" fill="#ff5321"/>
        <path d="M152.35,307.68c-.26,1.7-4.23,2.52-8.87,1.82-4.64-.7-8.2-2.64-7.95-4.34,.26-1.7,4.23-2.52,8.87-1.82,4.64,.7,8.2,2.64,7.95,4.34Z" fill="#ff5321"/>
        <path d="M128.37,305.38c-.49,1.42-4.49,1.33-8.93-.21-4.44-1.54-7.64-3.93-7.15-5.35,.49-1.42,4.49-1.33,8.93,.21,4.44,1.54,7.64,3.93,7.15,5.35Z" fill="#ff5321"/>
        <path d="M179.85,302.73c.3,1.97-3.22,4.15-7.86,4.85-4.64,.71-8.65-.32-8.95-2.29-.3-1.97,3.22-4.15,7.86-4.85,4.64-.71,8.65,.32,8.95,2.29Z" fill="#ff5321"/>
        <path d="M140.82,259.61c0,5.73-5.43,10.38-12.12,10.38s-12.12-4.65-12.12-10.38,5.43-10.38,12.12-10.38,12.12,4.65,12.12,10.38Z" fill="#ff5321"/>
        <ellipse cx="145.5" cy="281.08" rx="12.12" ry="9.32" fill="#ff5321"/>
        <path d="M141.52,298.42c-.92,2.82-5.78,3.78-10.86,2.13-5.08-1.65-8.46-5.27-7.54-8.1,.92-2.82,5.78-3.78,10.86-2.13,5.08,1.65,8.46,5.27,7.54,8.1Z" fill="#ff5321"/>
        <path d="M182.92,281.26c0,5.26-4.76,9.53-10.63,9.53s-10.63-4.27-10.63-9.53,4.76-9.53,10.63-9.53,10.63,4.27,10.63,9.53Z" fill="#ff5321"/>
        <path d="M199.46,261.92c-1.87,5.88-7.59,9.32-12.77,7.67-5.18-1.65-7.86-7.75-5.99-13.64,1.87-5.88,7.59-9.32,12.77-7.67,5.18,1.65,7.86,7.75,5.99,13.64Z" fill="#ff5321"/>
        <circle cx="146.14" cy="234.06" r="12.47" fill="#ff5321"/>
        <path d="M127.78,231.51c0,6.89-5.58,12.47-12.47,12.47s-12.47-5.58-12.47-12.47,5.58-12.47,12.47-12.47,12.47,5.58,12.47,12.47Z" fill="#ff5321"/>
        <path d="M252.49,198.92c0,6.21-3.38,11.24-7.54,11.24s-7.54-5.03-7.54-11.24,3.38-11.24,7.54-11.24,7.54,5.03,7.54,11.24Z" fill="#ff5321"/>
        <ellipse cx="72.04" cy="202.93" rx="9.24" ry="11.24" fill="#ff5321"/>
        <path d="M45.61,201.99c.79,6.07,4.04,10.65,7.24,10.23,3.2-.42,5.16-5.68,4.36-11.75-.79-6.07-4.04-10.65-7.24-10.23-3.2,.42-5.16,5.68-4.36,11.75Z" fill="#ff5321"/>
        <path d="M56.74,226.65c1.24,6,4.8,10.33,7.97,9.68,3.16-.65,4.73-6.04,3.49-12.04-1.24-6-4.8-10.33-7.97-9.68-3.16,.65-4.73,6.04-3.49,12.04Z" fill="#ff5321"/>
        <path d="M70.14,252.93c3.29,5.16,8.34,7.83,11.28,5.96,2.94-1.87,2.66-7.58-.63-12.74-3.29-5.16-8.34-7.83-11.28-5.96-2.94,1.87-2.66,7.58,.63,12.74Z" fill="#ff5321"/>
        <path d="M42.05,222.01c.88,4.25,3.41,7.33,5.65,6.87,2.25-.46,3.36-4.29,2.48-8.54-.88-4.25-3.41-7.33-5.65-6.87-2.25,.46-3.36,4.29-2.48,8.54Z" fill="#ff5321"/>
        <path d="M53.74,244.68c1.32,4.14,3.95,7,5.87,6.39,1.93-.61,2.42-4.46,1.1-8.6-1.32-4.14-3.94-7-5.87-6.39-1.93,.61-2.42,4.46-1.1,8.6Z" fill="#ff5321"/>
        <path d="M39.68,201.29c.34,4.83,1.5,8.69,2.6,8.61,1.1-.08,1.71-4.06,1.37-8.89-.34-4.83-1.5-8.69-2.6-8.61-1.1,.08-1.71,4.06-1.37,8.89Z" fill="#ff5321"/>
        <path d="M267.24,197.58c-.27,5.09-2.67,9.74-5.36,10.39-2.69,.65-4.65-2.95-4.38-8.04s2.67-9.74,5.36-10.39c2.69-.65,4.65,2.95,4.38,8.04Z" fill="#ff5321"/>
        <path d="M256.71,223.83c-1.24,5.2-4.5,9.51-7.28,9.61-2.78,.11-4.03-4.03-2.79-9.23,1.24-5.2,4.5-9.51,7.28-9.61,2.78-.11,4.03,4.03,2.79,9.23Z" fill="#ff5321"/>
        <path d="M265.34,222.24c-.74,4.09-2.81,7.44-4.62,7.48-1.81,.05-2.68-3.23-1.94-7.32,.74-4.09,2.81-7.44,4.62-7.48,1.81-.05,2.68,3.23,1.94,7.32Z" fill="#ff5321"/>
        <path d="M107.84,201.39c0,6.55-4.43,11.86-9.89,11.86s-9.89-5.31-9.89-11.86,4.43-11.86,9.89-11.86,9.89,5.31,9.89,11.86Z" fill="#ff5321"/>
        <path d="M96.28,228.1c0,6.55-4.43,11.86-9.89,11.86s-9.89-5.31-9.89-11.86,4.43-11.86,9.89-11.86,9.89,5.31,9.89,11.86Z" fill="#ff5321"/>
        <path d="M108.08,251.48c3.7,4.83,3.47,11.23-.52,14.29-3.99,3.06-10.23,1.62-13.93-3.21-3.7-4.83-3.47-11.23,.52-14.29,3.99-3.06,10.23-1.62,13.93,3.21Z" fill="#ff5321"/>
        <path d="M117.87,269.28c5.45,2.71,8.06,8.56,5.82,13.06-2.24,4.5-8.47,5.96-13.92,3.25-5.45-2.71-8.06-8.56-5.82-13.06s8.47-5.96,13.92-3.25Z" fill="#ff5321"/>
        <path d="M199.26,269.5c-4.95,2.66-7.43,8.18-5.53,12.32,1.9,4.15,7.45,5.35,12.4,2.69,4.95-2.66,7.43-8.18,5.53-12.32-1.9-4.15-7.45-5.35-12.4-2.69Z" fill="#ff5321"/>
        <path d="M223.28,263.97c-4.35,2.71-7.37,7.95-6.74,11.7,.63,3.75,4.67,4.6,9.02,1.89,4.35-2.71,7.37-7.95,6.74-11.7-.63-3.75-4.67-4.6-9.02-1.89Z" fill="#ff5321"/>
        <path d="M71.5,260.5c3.29,2.74,5.52,7,5,9.5s-3.62,2.32-6.9-.42c-3.29-2.74-5.52-7-5-9.5,.53-2.51,3.62-2.32,6.9,.42Z" fill="#ff5321"/>
        <path d="M86.6,279.09c3.71,2.12,6.77,5.74,6.81,8.07,.05,2.33-2.92,2.5-6.64,.38-3.71-2.12-6.77-5.74-6.81-8.07-.05-2.33,2.92-2.5,6.64-.38Z" fill="#ff5321"/>
        <path d="M105.51,285.52c4.76,2.11,8.94,6,9.35,8.68,.4,2.68-3.13,3.15-7.88,1.03-4.76-2.11-8.94-6-9.35-8.68-.4-2.68,3.13-3.15,7.88-1.03Z" fill="#ff5321"/>
        <path d="M210.09,284.46c-4.76,2.11-8.94,6-9.35,8.68s3.13,3.15,7.88,1.03c4.76-2.11,8.94-6,9.35-8.68s-3.13-3.15-7.88-1.03Z" fill="#ff5321"/>
        <path d="M188.12,289.67c-4.93,1.04-9.69,3.87-10.62,6.33-.93,2.46,2.31,3.61,7.24,2.58,4.93-1.04,9.69-3.87,10.62-6.33,.93-2.46-2.31-3.61-7.24-2.58Z" fill="#ff5321"/>
        <path d="M93.59,268.48c4.38,3.3,6.29,8.17,4.26,10.86-2.03,2.69-7.23,2.2-11.61-1.11-4.38-3.3-6.29-8.17-4.26-10.86,2.03-2.69,7.23-2.2,11.61,1.11Z" fill="#ff5321"/>
        <path d="M233.26,247.55c-2.12,4.32-1.17,8.92,2.13,10.29,3.29,1.36,7.68-1.03,9.79-5.35,2.12-4.32,1.17-8.92-2.12-10.29-3.29-1.36-7.68,1.03-9.79,5.35Z" fill="#ff5321"/>
        <path d="M249.99,240.52c-1.27,4.31-.28,7.9,2.21,8.02,2.49,.12,5.54-3.27,6.81-7.58,1.27-4.31,.28-7.9-2.21-8.02-2.49-.12-5.54,3.27-6.81,7.58Z" fill="#ff5321"/>
        <path d="M231.62,201.08c0,6.55-4.43,11.86-9.89,11.86s-9.89-5.31-9.89-11.86,4.43-11.86,9.89-11.86,9.89,5.31,9.89,11.86Z" fill="#ff5321"/>
        <path d="M218.62,232.98c-1.98,6.24-7.8,9.97-13.01,8.32s-7.83-8.05-5.85-14.29c1.98-6.24,7.8-9.97,13.01-8.32,5.21,1.65,7.83,8.05,5.85,14.29Z" fill="#ff5321"/>
        <path d="M224.67,257.51c-2.76,5.44-8.39,8.12-12.55,6-4.17-2.12-5.31-8.25-2.54-13.68,2.77-5.44,8.39-8.12,12.56-6,4.17,2.12,5.31,8.25,2.54,13.68Z" fill="#ff5321"/>
        <path d="M240.59,230.82c-1.92,6.05-7.16,9.79-11.71,8.35-4.55-1.44-6.69-7.51-4.77-13.57,1.92-6.05,7.16-9.79,11.71-8.35,4.55,1.44,6.69,7.51,4.77,13.57Z" fill="#ff5321"/>
      </g>
      <g>
        <circle cx="146.72" cy="173.06" r="12.47" fill="#ff5321"/>
        <circle cx="176.89" cy="171.21" r="12.47" fill="#ff5321"/>
        <circle cx="207.69" cy="169.67" r="11.86" fill="#ff5321"/>
        <ellipse cx="60.96" cy="175.68" rx="7.7" ry="11.09" fill="#ff5321"/>
        <path d="M80.64,151.86c-1.53,5.93-6.1,9.88-10.22,8.82-4.12-1.06-6.22-6.73-4.69-12.66,1.53-5.93,6.1-9.88,10.22-8.82,4.12,1.06,6.22,6.73,4.69,12.66Z" fill="#ff5321"/>
        <path d="M108.34,149.25c-2.23,6.03-8.15,9.39-13.22,7.52-5.07-1.88-7.38-8.28-5.15-14.31,2.23-6.03,8.15-9.39,13.22-7.52,5.07,1.88,7.38,8.28,5.15,14.31Z" fill="#ff5321"/>
        <path d="M233.48,152.47c1.6,5.64,6.21,9.44,10.3,8.49,4.09-.95,6.11-6.29,4.5-11.94-1.6-5.64-6.21-9.44-10.3-8.49-4.09,.95-6.11,6.29-4.51,11.94Z" fill="#ff5321"/>
        <path d="M260.81,152.66c-.83-4.32-3.43-7.15-5.82-6.33-2.39,.82-3.65,4.98-2.82,9.3,.83,4.32,3.43,7.15,5.82,6.33,2.39-.82,3.65-4.98,2.82-9.3Z" fill="#ff5321"/>
        <path d="M267.25,176.59c-.55-3.82-2.28-6.33-3.86-5.61-1.58,.73-2.42,4.41-1.87,8.24,.55,3.82,2.28,6.33,3.86,5.61,1.58-.73,2.42-4.41,1.87-8.24Z" fill="#ff5321"/>
        <path d="M211.02,147.46c2.33,6.38,8.06,10.45,12.8,9.08,4.73-1.37,6.68-7.66,4.35-14.04-2.33-6.38-8.06-10.45-12.8-9.08-4.73,1.37-6.68,7.66-4.35,14.04Z" fill="#ff5321"/>
        <path d="M246.64,176.14c0,5.87,2.76,10.62,6.16,10.62s6.16-4.76,6.16-10.62-2.76-10.62-6.16-10.62-6.16,4.76-6.16,10.62Z" fill="#ff5321"/>
        <path d="M242.64,173.67c0,6.21-4.07,11.24-9.08,11.24s-9.08-5.03-9.08-11.24,4.07-11.24,9.08-11.24,9.08,5.03,9.08,11.24Z" fill="#ff5321"/>
        <path d="M43.8,175.98c-.68,4.55,.19,8.44,1.93,8.7,1.74,.26,3.71-3.22,4.38-7.76,.68-4.55-.19-8.44-1.93-8.7-1.74-.26-3.71,3.22-4.38,7.76Z" fill="#ff5321"/>
        <path d="M51.36,151.71c-1.6,4.66-1.13,9.04,1.06,9.79,2.18,.75,5.25-2.42,6.85-7.07,1.6-4.66,1.13-9.04-1.06-9.79-2.18-.75-5.25,2.42-6.85,7.07Z" fill="#ff5321"/>
        <path d="M92.44,174.29c0,6.55-4.43,11.86-9.89,11.86s-9.89-5.31-9.89-11.86,4.43-11.86,9.89-11.86,9.89,5.31,9.89,11.86Z" fill="#ff5321"/>
        <circle cx="114.54" cy="173.83" r="12.47" fill="#ff5321"/>
        <circle cx="131.27" cy="145.52" r="12.47" fill="#ff5321"/>
        <path d="M174.62,144.23c0,6.89-5.58,12.47-12.47,12.47s-12.47-5.58-12.47-12.47,5.58-12.47,12.47-12.47,12.47,5.58,12.47,12.47Z" fill="#ff5321"/>
        <path d="M156.31,119.89c0,5.29-4.78,9.58-10.68,9.58s-10.68-4.29-10.68-9.58,4.78-9.58,10.68-9.58,10.68,4.29,10.68,9.58Z" fill="#ff5321"/>
        <path d="M166.74,99c0,3.68-4.78,6.66-10.68,6.66s-10.68-2.98-10.68-6.66,4.78-6.66,10.68-6.66,10.68,2.98,10.68,6.66Z" fill="#ff5321"/>
        <path d="M123.17,114.28c-3.81-3.22-9.91-2.15-13.62,2.4-3.71,4.54-3.62,10.84,.2,14.06,3.81,3.22,9.91,2.15,13.62-2.4,3.71-4.54,3.62-10.84-.2-14.06Z" fill="#ff5321"/>
        <path d="M95.15,118.33c-1.81-3.14-6.42-2.36-10.3,1.75-3.88,4.11-5.56,9.98-3.75,13.12,1.81,3.14,6.42,2.36,10.3-1.75,3.88-4.11,5.56-9.98,3.75-13.12Z" fill="#ff5321"/>
        <path d="M75.53,121.4c-.95-2.59-4.5-1.58-7.92,2.26-3.42,3.83-5.43,9.03-4.47,11.62s4.5,1.58,7.92-2.26c3.42-3.83,5.43-9.03,4.47-11.62Z" fill="#ff5321"/>
        <path d="M92.36,105.28c-.37-2.41-3.62-2.3-7.24,.25-3.63,2.55-6.26,6.57-5.89,8.98,.37,2.41,3.62,2.3,7.24-.25,3.63-2.55,6.26-6.57,5.89-8.98Z" fill="#ff5321"/>
        <path d="M113.24,100.37c-.44-2.41-4.22-2.3-8.46,.25-4.23,2.55-7.31,6.57-6.88,8.98,.44,2.41,4.22,2.3,8.46-.25,4.23-2.55,7.31-6.57,6.88-8.98Z" fill="#ff5321"/>
        <path d="M128.19,88.59c.59-2.36-2.44-3.52-6.77-2.59-4.33,.93-8.33,3.61-8.92,5.97-.59,2.36,2.44,3.52,6.77,2.59s8.33-3.61,8.92-5.97Z" fill="#ff5321"/>
        <path d="M152.39,87.77c1.28-2.07-1.26-4.1-5.67-4.51-4.41-.42-9.03,.93-10.31,3-1.28,2.07,1.26,4.1,5.67,4.51,4.41,.42,9.03-.93,10.31-3Z" fill="#ff5321"/>
        <path d="M141.61,103.11c1.54-3.61-1.83-7.32-7.52-8.3-5.69-.97-11.55,1.17-13.09,4.78-1.54,3.61,1.83,7.32,7.52,8.3s11.55-1.17,13.09-4.78Z" fill="#ff5321"/>
        <path d="M192.05,105.23c2.34-3.15-.07-7.55-5.37-9.82-5.31-2.28-11.5-1.57-13.84,1.58-2.34,3.15,.07,7.55,5.37,9.82,5.31,2.28,11.5,1.57,13.84-1.58Z" fill="#ff5321"/>
        <path d="M176.19,90.68c1.98-1.83,0-4.8-4.4-6.64-4.41-1.83-9.58-1.84-11.56,0-1.98,1.83,0,4.8,4.4,6.64,4.41,1.83,9.58,1.84,11.56,0Z" fill="#ff5321"/>
        <path d="M201.52,95.31c2.04-1.5,.22-4.36-4.08-6.39-4.3-2.03-9.44-2.47-11.48-.97-2.04,1.5-.22,4.36,4.08,6.39,4.3,2.03,9.44,2.47,11.48,.97Z" fill="#ff5321"/>
        <path d="M235.53,119.56c2.33-.54,1.5-3.68-1.86-7.02-3.36-3.34-7.98-5.61-10.32-5.07-2.33,.54-1.5,3.68,1.86,7.02,3.36,3.34,7.98,5.61,10.32,5.07Z" fill="#ff5321"/>
        <path d="M214.23,112.99c2.49-.77,1.85-4.18-1.44-7.63-3.29-3.44-7.98-5.62-10.47-4.85-2.49,.77-1.85,4.18,1.44,7.63,3.29,3.44,7.98,5.62,10.47,4.85Z" fill="#ff5321"/>
        <path d="M219.5,104.39c1.87,.13,.48-2.22-3.1-5.26-3.58-3.03-7.99-5.6-9.86-5.73-1.87-.13-.48,2.22,3.1,5.26,3.58,3.03,7.99,5.6,9.86,5.73Z" fill="#ff5321"/>
        <path d="M167.07,111.41c3.98-3.08,10.49-1.89,14.53,2.67,4.04,4.55,4.09,10.74,.1,13.82-3.98,3.08-10.49,1.89-14.53-2.67-4.04-4.55-4.09-10.74-.1-13.82Z" fill="#ff5321"/>
        <path d="M193.66,113.34c3.98-3.08,10.49-1.89,14.53,2.67,4.04,4.55,4.09,10.74,.1,13.82-3.98,3.08-10.49,1.89-14.53-2.67-4.04-4.55-4.09-10.74-.1-13.82Z" fill="#ff5321"/>
        <path d="M220.19,118.8c3.43-1.85,8.72-.21,11.81,3.68,3.09,3.89,2.81,8.54-.63,10.39-3.43,1.85-8.72,.21-11.81-3.68-3.09-3.89-2.81-8.54,.63-10.39Z" fill="#ff5321"/>
        <path d="M241.45,126.08c2.95,.1,6.4,3.31,7.71,7.17,1.31,3.86-.02,6.92-2.97,6.82-2.95-.1-6.4-3.31-7.71-7.17-1.31-3.86,.02-6.92,2.97-6.82Z" fill="#ff5321"/>
        <path d="M203.57,144.23c0,6.89-5.58,12.47-12.47,12.47s-12.47-5.58-12.47-12.47,5.58-12.47,12.47-12.47,12.47,5.58,12.47,12.47Z" fill="#ff5321"/>
      </g>
    </g>
  </g>
  <g>
    <path d="M216.16,266.61c3.06-.48,6.12-.95,9.19-1.43,1.7,.47,3.21,.28,4.31-1.28,.46-.41,.99-.55,1.58-.39,.85,.41,1.69,.82,3.17,1.53-1.98,.94-3.04,1.58-4.18,1.96-10.73,3.59-21.96,4.5-33.09,5.8-3.23,.38-6.62-.53-9.93-.88-2.11-.22-4.22-.48-6.32-.77-2.99-.42-5.99-.85-8.97-1.33-13.95-2.25-26.63-8.44-39.89-12.83-14.45-4.78-28.78-9.9-43.19-14.78-1.19-.4-2.64-.05-6.17-.05,14.27,5.54,26.41,10.31,38.6,14.96,14.48,5.52,28.66,11.85,43.66,15.94,7.64,2.08,15.3,3.87,23.32,3.62,4.88-.15,9.76,.02,14.65-.04,14.3-.17,27.25-4.65,39.68-11.6,11.23-6.28,18.84-16.08,26.99-25.45,.59-.68,1.13-1.45,1.51-2.27,.83-1.75-.35-2.82-1.5-3.86,.39-1.08,.6-2.28,1.2-3.24,4.11-6.53,8.27-13.02,12.48-19.48,.95-1.46,2.18-2.75,3.28-4.12,.76,.58,1.52,1.17,2.27,1.75,.52,2.99,2.7,4.7,5.16,5.72,6.57,2.71,13.11,5.72,20.46,5.68-2.58,4.32-5.15,8.64-7.73,12.96l-1.16,2.59c-1.02,1.5-2.03,2.99-3.05,4.49-1.47-.75-3.04-1.1-3.91,.65-1.06,2.15-1.8,4.47-2.67,6.72-1.7,1.01-1.91,2.62-1.73,4.38,.14,.45,.05,.84-.27,1.18-2.34,.1-3.93,1.28-5.16,3.24-4.2,6.69-8.32,13.44-12.78,19.95-4.26,6.21-8.75,12.28-13.43,18.19-4.39,5.54-10.28,9.47-15.97,13.51-14.82,10.54-32.21,13.63-49.58,16.7-15.78-.67-31.66,1.78-47.35-1.61-1.46-.32-3.05-.05-4.56-.19-7.24-.69-14.54-1.04-21.69-2.24-15.51-2.61-30.94-5.71-46.42-8.5-2.32-.42-4.93-.94-6.63,1.63-3.75-.57-7.51-1.14-11.26-1.7-3.05-.73-6.1-1.45-9.15-2.18l-1.77-1.75c.05-13.98,2.17-27.68,5.54-41.2,3-12.03,6.43-23.94,11.08-35.46,1.2,.1,2.46-.02,3.59,.32,8.16,2.47,16.39,4.77,24.42,7.62,21.82,7.73,43.52,15.82,65.35,23.52,6,2.12,12.27,3.53,18.49,5,11.15,2.63,22.44,1.72,33.7,.91l2.87-.7c.99-.39,1.98-.79,2.97-1.18Z" fill="#af0303"/>
    <path d="M336.2,141.68c.24-5.99,.21-11.95,.24-17.89-.48,.98-.97,1.97-1.45,2.95-5.51,11.22-10.76,22.57-16.08,33.88-.64,1.37-1.01,2.86-1.51,4.3,3.94,2.62,7.83,5.39,12.87,5.4,2.54-1.08,3.12-3.64,4.19-5.76,.31-.62,.62-1.24,.93-1.86-.16-7.07,.55-14.27,.82-21.02Z" fill="#ccb4aa"/>
    <path d="M22.02,223.76c12.02-.94,23.46,2.01,34.86,5.25,2.63,.75,5.27,1.41,7.91,2.12-4.66,11.52-8.09,23.42-11.08,35.46-3.37,13.53-5.49,27.23-5.54,41.2-4.7-1.32-9.41-2.64-14.12-3.97-1.32-.6-2.64-1.2-3.95-1.8-8.04-4.52-15.35-10.02-21.98-16.43-1.74-3.27-3.49-6.53-5.23-9.8-.69-5.64-1.39-11.29-2.08-16.93,2.03-3.59,1.9-7.58,2.12-11.5l10.75-19.09c2.79-1.5,5.57-3,8.36-4.5Z" fill="#af7034"/>
    <path d="M337.11,106.01c-.98,1.75-2.12,3.42-3.52,4.97-6.37,12.87-12.79,25.72-19.25,38.54-.53,1.04-1.48,1.87-2.24,2.8-.74,3.66-1.48,7.31-2.21,10.96l.41-.35c.64,.64,1.28,1.28,1.92,1.92,1.73,.02,3.46,.04,5.18,.06,.49-1.43,.86-2.93,1.5-4.3,5.32-11.31,10.57-22.66,16.08-33.88,.48-.98,.97-1.97,1.45-2.95,.04-5.94,.16-11.87,.66-17.78Z" fill="#efdac9"/>
    <path d="M335.38,162.7c-.31,.62-.62,1.24-.93,1.86-1.07,2.12-1.64,4.68-4.19,5.76,1.29,1.71,2.57,3.42,3.86,5.12,.83,.81,1.66,1.62,2.49,2.43,.22-.43,.44-.85,.67-1.28-1.29-4.46-1.79-9.15-1.89-13.9Z" fill="#92928f"/>
    <path d="M237.17,320.76l-7.67,3.12c-11.2,3.53-22.75,5.1-34.38,6.22-15.47-.4-30.98,.48-46.39-1.77-7.2-1.05-14.53-1.21-21.69-2.45-12.24-2.11-24.42-4.6-36.57-7.21-6.77-1.46-13.42-3.49-20.12-5.27,1.7-2.57,4.31-2.05,6.63-1.64,15.48,2.79,30.91,5.89,46.42,8.5,7.15,1.2,14.45,1.55,21.69,2.24,1.51,.14,3.09-.12,4.56,.19,15.69,3.39,31.57,.95,47.35,1.61,17.37-3.07,34.75-6.16,49.58-16.7,5.69-4.05,11.59-7.97,15.97-13.51,4.67-5.91,9.17-11.97,13.43-18.19,4.46-6.51,8.58-13.27,12.78-19.95,1.23-1.96,2.82-3.14,5.16-3.24-.71,1.89-1.34,3.82-2.15,5.67-1.05,2.39-2.25,4.71-3.38,7.07-2.44,1.1-3.3,3.15-3.4,5.66-1.4,1.81-3.12,3.46-4.15,5.46-5.84,11.26-14.25,20.48-22.88,29.56-.4,.42-.64,1-.95,1.5-1.1,.34-2.63,.32-3.23,1.06-4.49,5.49-10.68,8.57-16.6,12.05Z" fill="#7a2002"/>
    <path d="M334.12,175.45c.83,.81,1.66,1.62,2.48,2.44-5.55,11.02-11.11,22.04-16.67,33.06-.28,.34-.46,.73-.56,1.16-1.27,1.96-2.53,3.93-3.8,5.89-8.36-1.7-16.33-4.42-23.51-9.16,1.36-1.99,2.89-3.88,4.04-5.97,4.35-7.91,8.59-15.89,12.84-23.86,1.84-3.46,3.37-7.14,7.24-8.94,5.65,2.87,11.39,5.46,17.93,5.39Z" fill="#af7034"/>
    <path d="M269.58,233.45c1.14,1.04,2.32,2.11,1.5,3.86-.38,.81-.92,1.59-1.51,2.27-8.15,9.37-15.76,19.17-26.99,25.45-12.43,6.95-25.38,11.43-39.68,11.6-4.88,.06-9.77-.11-14.65,.04-8.01,.25-15.68-1.53-23.32-3.62-15-4.09-29.18-10.42-43.66-15.94-12.19-4.65-24.32-9.42-38.6-14.96,3.53,0,4.98-.35,6.17,.05,14.41,4.87,28.75,10,43.19,14.78,13.26,4.39,25.95,10.58,39.89,12.83,2.98,.48,5.98,.91,8.97,1.33,2.1,.29,4.21,.54,6.32,.77,3.31,.35,6.7,1.26,9.93,.88,11.13-1.3,22.35-2.21,33.09-5.8,1.14-.38,2.2-1.02,4.18-1.96-1.48-.71-2.32-1.12-3.17-1.53,12.4-5.48,23.05-13.29,31.77-23.69,.56-.67,1.43-1.08,2.16-1.61,2.4-.6,4.58-1.42,4.44-4.52l-.03-.24Z" fill="#bd3406"/>
    <path d="M316.19,170.06c-3.87,1.8-5.4,5.49-7.24,8.94-4.25,7.97-8.49,15.94-12.84,23.86-1.15,2.1-2.68,3.99-4.04,5.97-1.09-.16-2.18-.31-3.27-.46-.76-.58-1.52-1.17-2.27-1.75,.62-1.68,1.23-3.36,1.84-5.03,.55-1.2,1.09-2.4,1.64-3.6,.86-1.85,1.72-3.7,2.58-5.55,4.37-8.31,8.71-16.62,13.12-24.91,.95-1.79,1.41-4.18,4.16-4.25,0,0,.41-.34,.41-.34,.65,.65,1.3,1.3,1.95,1.94l-.1-.03c1.35,1.74,2.7,3.47,4.06,5.21Z" fill="#d39d4e"/>
    <path d="M269.61,233.68c.14,3.1-2.03,3.92-4.44,4.52-.08-.49-.06-.98,.07-1.46,1.46-1.02,2.91-2.04,4.37-3.05Z" fill="#af0303"/>
    <path d="M229.66,263.9c-1.1,1.56-2.61,1.76-4.31,1.28,1.44-.43,2.87-.85,4.31-1.28Z" fill="#bd3406"/>
    <path d="M288.81,208.37c1.09,.15,2.18,.31,3.27,.46,7.18,4.73,15.14,7.46,23.51,9.16-.39,.59-.77,1.19-1.16,1.78-7.35,.04-13.89-2.96-20.46-5.68-2.46-1.02-4.64-2.73-5.16-5.72Z" fill="#bd3406"/>
    <path d="M302.5,239.81c-1.04,3.96-2.7,7.52-6.31,9.84-.09-.82-.18-1.64-.27-2.47,.88-2.25,1.61-4.56,2.67-6.72,.87-1.76,2.44-1.4,3.91-.65Z" fill="#bd3406"/>
    <path d="M295.91,247.18c.09,.82,.18,1.65,.27,2.47-.67,.64-1.34,1.27-2.01,1.91-.18-1.76,.03-3.36,1.73-4.38Z" fill="#7a2002"/>
    <path d="M306.7,232.73c-.39,.86-.77,1.73-1.16,2.59,.39-.86,.77-1.73,1.16-2.59Z" fill="#bd3406"/>
    <path d="M210.33,268.49c.96-.23,1.91-.46,2.87-.7-.96,.23-1.91,.46-2.87,.7Z" fill="#bd3406"/>
    <path d="M316.19,170.06c-1.35-1.74-2.7-3.47-4.06-5.21,1.76,.02,3.51,.04,5.26,.07,3.94,2.62,7.82,5.39,12.86,5.41,1.28,1.71,2.57,3.42,3.86,5.13-6.53,.07-12.27-2.52-17.93-5.39Z" fill="#f6f4ec"/>
    <path d="M312.24,164.88c-.65-.65-1.3-1.29-1.95-1.94,.65,.65,1.3,1.29,1.95,1.94Z" fill="#f6f4ec"/>
  </g>
  <path d="M-.08,.16V183.55c.84,15.61,.12,31.32,0,46.93v105.44H334.92V.16H-.08Z" fill="url(#uuid-19fdef7d-4711-4e50-acde-49f1158d846f)" opacity=".95"/>
  <g>
    <path d="M255.1,30.84c.88-.11,1.76-.23,2.64-.34-.01,.57,.23,.94,.77,1.16,.48,.19,.91,.08,1.26-.19,.38-.3,.68-.71,1.01-1.07,1.72-.03,3.4,.19,5.03,.74,.51,.17,.99,.44,1.48,.66-.02,.38-.1,.77-.06,1.14,.07,.68,.85,1.43,1.52,1.55,.83,.15,1.32-.11,1.85-.95,.99,.27,1.67,.96,2.36,1.66-.3,.12-.61,.21-.9,.36-.24,.12-.5,.26-.66,.46-.66,.84-.33,2.18,.62,2.72,1.07,.6,2.2,.02,2.29-1.16,.02-.33,0-.67,0-1,.77,.29,.9,1.09,1.32,1.66,.02,.23,.04,.46,.07,.68-.03,.78-.06,1.56-.08,2.33-.36,.29-.29,.68-.25,1.06l-.17,.56c-.62,.13-.9,.6-1.07,1.14-.17,.54,.11,.94,.49,1.29,.01,.11,.03,.22,.05,.32-.24,.77-.48,1.55-.73,2.32-.22,.66-.46,1.32-.69,1.98-.22,.22-.52,.4-.64,.67-.27,.57-.45,1.19-.66,1.79-.45,.45-.9,.9-1.35,1.35-.06-.72,.12-1.45-.23-2.15-.39-.78-1.14-1.27-2.04-1.21-.92,.06-1.59,.48-1.94,1.36-.35,.89-.18,1.58,.59,2.25,.72,.63,1.5,.98,2.46,.51,.14-.07,.33-.06,.49-.09,0,.61-.47,.93-.83,1.32-.35,.39-.85,.68-.88,1.29l-.67,.06c-.24-.28-.57-.33-.9-.26-1.23,.24-1.71,.88-1.8,2.31-.02,.1-.05,.2-.08,.3-.38,.22-.75,.45-1.14,.64-.69,.34-1.31,.84-2.15,.76,.39-.66,.44-1.38,.33-2.1-.21-1.34-1.84-2.14-3.11-1.32-.81,.53-1.12,1.4-.89,2.33,.2,.8,1.04,1.41,2,1.44,.44,.01,.89,0,1.33-.02-.54,.64-1.35,.67-2.05,.96-.32,.13-.61,.24-.69,.61l-1.6,.17-.82-.15c.06-.26,.05-.43,.13-.57,.55-.97,.14-1.74-.56-2.39-.5-.46-1.12-.76-1.84-.59-1.43,.34-2.06,1.87-1.3,3.16,.13,.22,.27,.44,.51,.86-2.19-.18-4.22,.36-6.11-.55-.09-.35-.14-.63-.24-.89-.22-.56-.69-.85-1.2-1.1-.42-.21-.76-.02-1.11,.16-.92-.95-1.71-1.96-1.71-3.38,.64-.6,.45-1.31,.22-1.98-.24-.69-.81-1-1.52-1.07-.1-.44-.2-.88-.3-1.32,1.19-.56,1.4-.88,1.32-1.96-.07-.9-.39-1.19-1.64-1.49,0-.89-.19-1.8,.31-2.64,.81,.04,1.47-.3,1.6-1.09,.13-.81,.41-1.79-.67-2.3-.02-.75,.24-1.43,.59-2.08,.21-.4,.43-.76,.86-.99,.84-.45,1.35-1.11,1.37-2.14,.01-.56,.25-1.11,.93-1.24,.15,.08,.28,.19,.44,.23,1.64,.42,2.89-.79,2.49-2.4-.07-.27-.15-.53-.23-.79,1.29-.91,2.61-1.75,4.07-2.36,0,.22-.02,.45,0,.67,.09,1.23,.62,1.69,1.82,1.67,.7-.01,1.15-.39,1.55-.88,.4-.49,.42-1.02,.06-1.55-.22-.32-.48-.62-.72-.92Zm6.89,5.03c-1.19,0-2.13,.92-2.17,2.11-.04,1.26,.93,2.26,2.19,2.25,1.19,0,2.13-.92,2.17-2.11,.04-1.26-.93-2.26-2.19-2.25Zm1.53,7.04c-.02,1.35,.87,2.38,2.05,2.37,1.03-.01,2.22-1.11,2.28-2.1,.05-.77-1.08-2.3-2.1-2.26-1.24,.05-2.21,.86-2.23,1.99Zm-5.26,8.79c1.06,.13,2.16-1.38,2.16-2.18,0-.81-1.1-2.26-2.16-2.19-1.19,.07-2.11,.92-2.16,2.11-.05,1.25,.9,2.25,2.16,2.27Zm-4.4-4.38c1.27,.02,2.19-.96,2.24-2.23,.03-.9-1.22-2-2.13-2.08-1.01-.09-2.27,1.24-2.23,2.33,.03,1.07,.99,1.96,2.12,1.98Zm1.8-10.11c-1.2-.04-2.25,.9-2.24,2.03,0,1.04,1.12,2.24,2.12,2.29,.89,.04,2.16-1.08,2.22-1.98,.1-1.26-.84-2.3-2.1-2.35Zm.24,19.55c1.21,0,2.23-.97,2.19-2.08-.04-1.04-1.21-2.27-2.17-2.24-.78,.02-2.28,1.08-2.19,2.2,.09,1.2,.97,2.12,2.17,2.13Zm9.99-8.31c-.01-1.21-.95-2.17-2.09-2.11-.89,.05-1.97,.73-1.98,2.27,0,1.16,.89,2.04,2.14,2.07,1.13,.03,1.94-.92,1.93-2.24Zm5.14,.57c1.21,.02,2.16-.78,2.21-1.83,.06-1.28-.86-2.21-2.22-2.24-1.18-.03-2.07,.88-2.1,2.15-.02,1.08,.88,1.9,2.1,1.92Zm-11.16-3.38c1.31,.02,2.12-.72,2.18-1.97,.05-1.17-.82-2.04-2.11-2.09-1.24-.05-2.08,.79-2.18,2-.08,1.02,1.06,2.27,2.11,2.07Zm4.67,8.24c0-1.31-.77-2.1-1.97-2.2-1.08-.09-2.19,1.05-2.11,2.09,.1,1.3,.82,2.17,2.02,2.2,1.23,.03,2.06-.82,2.07-2.09Zm-18.24-7.42c0,1.17,.86,2.17,1.87,2.14,.82-.02,2.26-1.11,2.19-2.17-.08-1.25-.91-2.17-2.07-2.15-1.22,.01-1.99,.86-1.99,2.18Zm3.14-3.88c1.11,.16,2.16-1.35,2.21-2.14,.05-.88-1.07-2.07-2.02-2.17-.93-.1-2.23,1.12-2.25,2.11-.03,1.2,.86,2.15,2.06,2.2Zm3.28,13.85c0-1.36-.9-2.38-2.08-2.34-1.05,.04-1.94,.98-1.97,2.11-.03,1.19,.9,2.22,2.02,2.23,1.09,0,2.03-.92,2.03-2Zm1.69-5.75c0-1.17-.84-2.01-2-2.02-1.18-.01-1.98,.81-2.08,1.96-.1,1.1,1.05,2.21,2.11,2.13,1.15-.1,1.98-.88,1.98-2.06Zm-8.39-.3c-1.29-.05-2.39,1.51-1.88,2.71,.34,.8,.83,1.55,1.77,1.59,.97,.05,1.46-.72,1.83-1.5,.57-1.19-.41-2.76-1.72-2.81Zm19.19-17.4c0-1.19-.66-1.84-1.86-1.85-.88,0-1.82,.95-1.82,1.85,0,.9,.94,1.86,1.82,1.85,1.2,0,1.85-.66,1.85-1.85Zm-6.98,2.86c.8,.03,1.48-.63,1.52-1.46,.03-.53-.81-1.44-1.39-1.5-.77-.08-1.57,.75-1.56,1.63,0,.73,.63,1.31,1.44,1.33Zm12.9,4.12c-.71-.03-1.45,.7-1.52,1.51-.06,.78,.62,1.45,1.48,1.46,.77,0,1.47-.72,1.47-1.51,0-.54-.88-1.43-1.44-1.46Zm-4.92-2.58c0,.79,.56,1.43,1.28,1.47,.78,.04,1.42-.65,1.42-1.51,0-.78-.58-1.43-1.29-1.47-.78-.04-1.42,.64-1.41,1.51Zm-14.7-.18c.87,.01,1.55-.62,1.52-1.4-.03-.72-.68-1.29-1.46-1.3-.87,0-1.55,.62-1.51,1.41,.03,.72,.66,1.29,1.46,1.3Zm-3.84,24c-.05,.88,.54,1.61,1.32,1.62,.74,0,1.33-.61,1.36-1.41,.03-.79-.58-1.57-1.21-1.54-.75,.03-1.43,.64-1.47,1.34Zm-1.37-18.06c.02-.89-.61-1.57-1.4-1.53-.59,.03-1.16,.68-1.22,1.4-.07,.72,.73,1.57,1.46,1.55,.58,0,1.15-.71,1.17-1.42Zm.34,14.43c0-.74-.41-1.14-1.15-1.15-.8,0-1.54,.63-1.48,1.28,.07,.75,.61,1.38,1.22,1.41,.8,.04,1.42-.63,1.4-1.54Zm-1.37-8.78c.09-.8-.15-1.29-.68-1.59-.21-.12-.57-.16-.78-.07-.66,.29-1.04,1.39-.74,2.02,.2,.42,.51,.74,1,.8,.41,.05,.96-.37,1.13-.86,.06-.16,.07-.32,.07-.31Z" fill="#fefefe"/>
    <path d="M268.23,57.03c.03-.61,.53-.9,.88-1.29,.35-.39,.82-.71,.83-1.32h0l.35-.34h-.01l.35-.34h-.01c.45-.44,.9-.89,1.35-1.34,.48,.11,.96,.28,1.45,.33,.72,.08,1.35-.37,1.54-1.01,.18-.63-.15-1.27-.87-1.61-.25-.11-.54-.12-.81-.17,.23-.66,.47-1.32,.69-1.98,.25-.77,.49-1.55,.73-2.32,.43,.29,.91,.38,1.42,.38,.85,0,1.31-.47,1.66-1.16,.34-.67,.01-1.18-.36-1.67-.5-.67-1.15-1.04-2.02-.85-.04-.38-.11-.77,.25-1.06,.63,.4,1.34,.37,2.04,.34,1.05,1.56,1.35,3.37,1.68,5.16,.12,.65,.2,1.31,.29,1.97,.04,.33,.09,.67,.05,1-.23,1.7-.28,3.42-.74,5.08-.1,.36-.38,.66-.58,.99,0-.33,.02-.67-.02-1-.09-.77-.55-1.26-1.23-1.37-.99-.16-1.57,.09-1.91,.92-.14,.35-.23,.75-.21,1.12,.07,1.22,1.35,1.9,2.4,1.29,.33-.19,.63-.45,.95-.67-.26,1.57-.9,2.95-2.02,4.09-.1-.43-.14-.89-.32-1.28-.33-.72-1.11-.97-1.83-.66-.62,.27-1.24,1.29-1.16,1.9,.1,.76,.73,1.51,1.44,1.67,.27,.06,.56,.01,.83,.01-1.71,2.17-3.69,4.01-6.24,5.17-.25,.11-.53,.17-.79,.25-.01-.28,0-.56-.05-.84-.09-.55-.45-.91-.94-1.09-.78-.3-1.88,.11-2.37,.84-.45,.67-.39,1.03,.34,1.94,.07,.08,.18,.13,.28,.19-.81,.63-1.76,.7-2.73,.64,.01-.34,.07-.68,.03-1.01-.15-1.22-1.57-1.94-2.65-1.36-.97,.52-1.17,.99-.88,2.05,.06,.22,.13,.43,.2,.64-1.08,.08-2.11-.09-3.06-.61,.12-.19,.26-.37,.37-.56,.36-.63,.35-.89-.05-1.35-.15-.17-.3-.33-.48-.47-1.15-.9-2.65-.29-2.88,1.17-.03,.16-.01,.34-.01,.5-.41-.12-.84-.2-1.21-.38-.2-.1-.31-.38-.46-.58,.56-.64,.53-1.38,.12-2-.43-.64-1.17-.81-1.94-.72-.62,.08-.96,.51-1.25,1-.25-.11-.56-.15-.74-.33-1.12-1.08-2.22-2.18-3.29-3.3-.18-.18-.22-.49-.33-.74,.35-.18,.69-.36,1.11-.16,.52,.25,.99,.54,1.2,1.1,.1,.26,.15,.54,.24,.89,1.9,.9,3.92,.36,6.11,.55-.25-.42-.38-.64-.51-.86-.76-1.29-.13-2.82,1.3-3.16,.72-.17,1.34,.13,1.84,.59,.7,.65,1.11,1.41,.56,2.39-.08,.13-.07,.31-.13,.57,.29,.05,.56,.1,.82,.14-.05,.27-.04,.57-.16,.81-.39,.76,0,1.25,.51,1.74,.41,.38,.83,.5,1.36,.25,.53-.25,.92-.56,.96-1.22,.06-.86-.49-1.3-1.07-1.75,.08-.37,.37-.48,.69-.61,.7-.29,1.52-.33,2.05-.96h-.01l.35-.34h-.01c.83,.09,1.46-.41,2.15-.75,.39-.19,.76-.43,1.14-.64,.15,.71,.59,1.16,1.22,1.47,.53,.26,1.04,.32,1.6,.08,1.07-.47,1.59-1.63,1.19-2.76-.15-.42-.37-.8-.56-1.2Zm3.74,5.93c-.02-1.08-.74-1.81-1.77-1.77-.93,.03-1.88,.93-1.92,1.8-.04,.96,.92,1.9,1.95,1.9,1.22,0,1.75-.59,1.73-1.93Zm7.1-13.64c-.01-.3,0-.52-.04-.74-.11-.72-.7-1.24-1.36-1.23-.58,.01-1.2,.5-1.29,1.11-.07,.49-.07,1.01,0,1.5,.09,.61,.74,1.08,1.32,1.07,.51-.01,1.09-.43,1.25-.95,.08-.26,.08-.55,.11-.75Zm-14.2,13.98c-.02-.82-.49-1.18-1.5-1.13-.9,.04-1.23,.43-1.21,1.43,.02,.88,.38,1.28,1.18,1.29,.96,0,1.56-.62,1.53-1.58Zm6.89-5.15c.76,.01,1.41-.58,1.44-1.33,.03-.71-.64-1.38-1.38-1.39-.88,0-1.56,.62-1.53,1.41,.03,.73,.66,1.29,1.47,1.3Z" fill="#dcdcdc"/>
    <path d="M278.36,56.08c-.32,.23-.62,.48-.95,.67-1.05,.61-2.33-.07-2.4-1.29-.02-.37,.07-.78,.21-1.12,.33-.83,.91-1.08,1.91-.92,.68,.11,1.13,.6,1.23,1.37,.04,.33,.01,.67,.02,1,0,.1-.01,.19-.01,.29Z" fill="#b8b8b8"/>
    <path d="M274.33,36.58c0,.33,.02,.67,0,1-.08,1.18-1.22,1.75-2.29,1.16-.96-.53-1.28-1.87-.62-2.72,.16-.2,.42-.34,.66-.46,.29-.15,.6-.24,.9-.36,.58,.34,1.04,.78,1.35,1.38Z" fill="#dcdcdc"/>
    <path d="M275.31,61.82c-.28,0-.57,.05-.83-.01-.72-.16-1.34-.91-1.44-1.67-.08-.62,.54-1.63,1.16-1.9,.72-.31,1.51-.06,1.83,.66,.18,.39,.22,.85,.32,1.28-.34,.55-.69,1.1-1.03,1.65Z" fill="#b8b8b8"/>
    <path d="M255.1,30.84c.24,.31,.5,.6,.72,.92,.36,.53,.35,1.06-.06,1.55-.4,.49-.85,.87-1.55,.88-1.2,.02-1.73-.44-1.82-1.67-.02-.22,0-.45,0-.67,.9-.33,1.81-.67,2.71-1Z" fill="#dcdcdc"/>
    <path d="M259.5,69.23c-.07-.21-.14-.42-.2-.64-.29-1.06-.08-1.53,.88-2.05,1.08-.58,2.5,.14,2.65,1.36,.04,.33-.01,.67-.03,1.01-1.11,.02-2.18,.51-3.31,.32Z" fill="#b8b8b8"/>
    <path d="M265.54,68.27c-.09-.06-.21-.1-.28-.19-.73-.91-.79-1.27-.34-1.94,.49-.73,1.59-1.14,2.37-.84,.49,.19,.85,.54,.94,1.09,.04,.28,.03,.56,.05,.84-.86,.47-1.71,.99-2.74,1.03Z" fill="#b8b8b8"/>
    <path d="M253.37,67.91c0-.17-.01-.34,.01-.5,.23-1.46,1.73-2.07,2.88-1.17,.18,.14,.33,.3,.48,.47,.4,.47,.41,.73,.05,1.35-.11,.19-.24,.37-.37,.56-1.09,.05-2.09-.27-3.06-.71Z" fill="#b8b8b8"/>
    <path d="M248.63,65.23c.3-.49,.64-.92,1.25-1,.77-.1,1.51,.08,1.94,.72,.42,.62,.44,1.36-.12,2-1.28-.12-2.22-.84-3.07-1.72Z" fill="#b8b8b8"/>
    <path d="M270.62,33.54c-.52,.84-1.02,1.1-1.85,.95-.68-.12-1.45-.86-1.52-1.55-.04-.37,.03-.76,.06-1.14,1.32,.17,2.36,.87,3.31,1.74Z" fill="#dcdcdc"/>
    <path d="M248.32,34.2c.08,.26,.17,.53,.23,.79,.4,1.61-.85,2.82-2.49,2.4-.16-.04-.29-.15-.44-.23,.11-.25,.15-.55,.33-.73,.77-.77,1.58-1.5,2.37-2.24Z" fill="#dcdcdc"/>
    <path d="M240.62,49.65c1.25,.3,1.57,.6,1.64,1.49,.09,1.09-.13,1.41-1.32,1.96-.25-1.14-.51-2.28-.33-3.46Z" fill="#dcdcdc"/>
    <path d="M241.86,43.62c1.08,.51,.8,1.48,.67,2.3-.13,.8-.79,1.13-1.6,1.09-.14-.96,.21-1.86,.42-2.77,.06-.24,.33-.42,.51-.63Z" fill="#dcdcdc"/>
    <path d="M277.68,41.6c-.71,.03-1.41,.06-2.04-.34,.03-.78,.06-1.56,.08-2.33,.1,0,.21-.01,.31-.03,1.01,.62,1.36,1.64,1.65,2.7Z" fill="#b8b8b8"/>
    <path d="M260.79,30.4c-.33,.36-.63,.77-1.01,1.07-.35,.27-.78,.38-1.26,.19-.54-.22-.78-.6-.77-1.16,.43-.09,.86-.21,1.29-.28,.59-.09,1.21-.24,1.75,.17Z" fill="#dcdcdc"/>
    <path d="M241.25,54.42c.71,.07,1.29,.38,1.52,1.07,.23,.67,.42,1.38-.22,1.98-.18-.11-.47-.19-.52-.35-.29-.89-.52-1.8-.78-2.7Z" fill="#dcdcdc"/>
    <path d="M276.03,38.9c-.1,.01-.21,.02-.31,.03-.02-.23-.04-.46-.07-.68,.13,.22,.25,.44,.38,.66Z" fill="#cfcfcf"/>
    <path d="M261.99,35.88c1.26,0,2.23,1,2.19,2.25-.04,1.19-.98,2.1-2.17,2.11-1.26,0-2.23-1-2.19-2.25,.04-1.19,.98-2.1,2.17-2.11Z" fill="#dcdcdc"/>
    <path d="M269.93,54.42c-.17,.03-.35,.02-.49,.09-.96,.47-1.74,.12-2.46-.51-.77-.67-.94-1.36-.59-2.25,.34-.88,1.02-1.31,1.94-1.36,.89-.05,1.64,.43,2.04,1.21,.35,.7,.18,1.43,.23,2.15h.01l-.35,.34h.01l-.35,.34h0Z" fill="#dcdcdc"/>
    <path d="M263.52,42.92c.02-1.13,.99-1.95,2.23-1.99,1.01-.04,2.14,1.49,2.1,2.26-.06,.99-1.25,2.09-2.28,2.1-1.18,.01-2.07-1.01-2.05-2.37Z" fill="#dcdcdc"/>
    <path d="M258.26,51.71c-1.26-.02-2.21-1.02-2.16-2.27,.05-1.18,.97-2.03,2.16-2.11,1.06-.07,2.16,1.38,2.16,2.19,0,.8-1.1,2.31-2.16,2.18Z" fill="#dcdcdc"/>
    <path d="M253.87,47.33c-1.13-.02-2.09-.91-2.12-1.98-.03-1.1,1.22-2.43,2.23-2.33,.9,.08,2.16,1.19,2.13,2.08-.04,1.27-.97,2.25-2.24,2.23Z" fill="#dcdcdc"/>
    <path d="M255.67,37.23c1.26,.04,2.2,1.09,2.1,2.35-.07,.89-1.33,2.02-2.22,1.98-1-.05-2.11-1.25-2.12-2.29,0-1.13,1.04-2.07,2.24-2.03Z" fill="#dcdcdc"/>
    <path d="M255.9,56.78c-1.2,0-2.08-.92-2.17-2.13-.09-1.12,1.41-2.18,2.19-2.2,.96-.03,2.13,1.2,2.17,2.24,.04,1.12-.98,2.09-2.19,2.08Z" fill="#dcdcdc"/>
    <path d="M265.9,48.47c.02,1.32-.8,2.26-1.93,2.24-1.25-.03-2.15-.91-2.14-2.07,0-1.54,1.09-2.22,1.98-2.27,1.14-.06,2.07,.89,2.09,2.11Z" fill="#dcdcdc"/>
    <path d="M271.03,49.04c-1.23-.02-2.13-.84-2.1-1.92,.03-1.27,.91-2.17,2.1-2.15,1.36,.03,2.28,.96,2.22,2.24-.05,1.05-1.01,1.85-2.21,1.83Z" fill="#dcdcdc"/>
    <path d="M259.87,45.66c-1.05,.2-2.19-1.05-2.11-2.07,.1-1.2,.94-2.05,2.18-2,1.29,.05,2.16,.92,2.11,2.09-.06,1.26-.87,1.99-2.18,1.97Z" fill="#dcdcdc"/>
    <path d="M264.54,53.9c0,1.27-.84,2.12-2.07,2.09-1.2-.03-1.92-.9-2.02-2.2-.08-1.04,1.04-2.18,2.11-2.09,1.2,.1,1.98,.89,1.97,2.2Z" fill="#dcdcdc"/>
    <path d="M246.3,46.48c0-1.32,.77-2.17,1.99-2.18,1.16-.01,1.99,.91,2.07,2.15,.07,1.06-1.37,2.15-2.19,2.17-1.01,.02-1.87-.98-1.87-2.14Z" fill="#dcdcdc"/>
    <path d="M249.44,42.61c-1.2-.05-2.09-1-2.06-2.2,.02-.99,1.32-2.21,2.25-2.11,.95,.1,2.07,1.29,2.02,2.17-.05,.79-1.1,2.3-2.21,2.14Z" fill="#dcdcdc"/>
    <path d="M252.73,56.45c0,1.08-.94,2-2.03,2-1.11,0-2.05-1.03-2.02-2.23,.03-1.12,.91-2.07,1.97-2.11,1.18-.04,2.08,.98,2.08,2.34Z" fill="#dcdcdc"/>
    <path d="M261.16,61.17c-.44,0-.89,.03-1.33,.02-.97-.03-1.8-.64-2-1.44-.23-.92,.07-1.8,.89-2.33,1.26-.82,2.9-.02,3.11,1.32,.11,.72,.06,1.44-.33,2.1h.01l-.35,.34h.01Z" fill="#dcdcdc"/>
    <path d="M254.42,50.7c0,1.18-.82,1.96-1.98,2.06-1.05,.09-2.2-1.02-2.11-2.13,.1-1.15,.9-1.97,2.08-1.96,1.16,.01,2,.85,2,2.02Z" fill="#dcdcdc"/>
    <path d="M246.03,50.4c1.31,.05,2.29,1.62,1.72,2.81-.37,.78-.86,1.54-1.83,1.5-.94-.05-1.43-.8-1.77-1.59-.51-1.2,.59-2.76,1.88-2.71Z" fill="#dcdcdc"/>
    <path d="M265.22,33c0,1.19-.65,1.84-1.85,1.85-.88,0-1.82-.95-1.82-1.85,0-.9,.94-1.86,1.82-1.85,1.2,0,1.86,.66,1.86,1.85Z" fill="#dcdcdc"/>
    <path d="M268.23,57.03c.19,.4,.41,.79,.56,1.2,.4,1.13-.12,2.29-1.19,2.76-.56,.25-1.07,.18-1.6-.08-.64-.31-1.08-.76-1.22-1.47,.03-.1,.06-.2,.08-.3,.99-.4,2-1.17,2.7-2.05l.67-.06Z" fill="#b8b8b8"/>
    <path d="M275.39,42.32c.87-.19,1.52,.18,2.02,.85,.37,.49,.7,1,.36,1.67-.36,.69-.82,1.17-1.66,1.16-.52,0-.99-.09-1.42-.38-.02-.11-.03-.21-.04-.32,.55-.73,.47-1.6,.58-2.43l.17-.56Z" fill="#b8b8b8"/>
    <path d="M258.42,62.74c.57,.45,1.12,.89,1.07,1.75-.04,.66-.44,.96-.96,1.22-.53,.25-.95,.13-1.36-.25-.52-.48-.89-.98-.51-1.74,.12-.24,.11-.54,.16-.81,.53-.06,1.07-.11,1.6-.17Z" fill="#b8b8b8"/>
    <path d="M258.23,35.86c-.81-.03-1.43-.6-1.44-1.33,0-.87,.79-1.71,1.56-1.63,.58,.06,1.42,.97,1.39,1.5-.04,.83-.72,1.49-1.52,1.46Z" fill="#dcdcdc"/>
    <path d="M271.14,39.98c.56,.03,1.43,.91,1.44,1.46,0,.79-.7,1.52-1.47,1.51-.86,0-1.55-.68-1.48-1.46,.07-.81,.8-1.54,1.52-1.51Z" fill="#dcdcdc"/>
    <path d="M266.21,37.4c0-.87,.63-1.55,1.41-1.51,.71,.04,1.28,.69,1.29,1.47,0,.86-.64,1.55-1.42,1.51-.72-.04-1.28-.68-1.28-1.47Z" fill="#dcdcdc"/>
    <path d="M251.51,37.22c-.79,0-1.42-.57-1.46-1.3-.04-.78,.65-1.42,1.51-1.41,.78,0,1.43,.58,1.46,1.3,.04,.78-.65,1.41-1.52,1.4Z" fill="#dcdcdc"/>
    <path d="M247.68,61.22c.04-.7,.72-1.32,1.47-1.34,.63-.02,1.24,.76,1.21,1.54-.03,.8-.63,1.42-1.36,1.41-.78,0-1.38-.73-1.32-1.62Z" fill="#dcdcdc"/>
    <path d="M246.3,43.16c-.02,.71-.59,1.41-1.17,1.42-.73,.01-1.52-.83-1.46-1.55,.07-.72,.64-1.37,1.22-1.4,.8-.04,1.42,.65,1.4,1.53Z" fill="#dcdcdc"/>
    <path d="M273.25,49.94c.27,.05,.57,.06,.81,.17,.72,.33,1.05,.97,.87,1.61-.18,.64-.81,1.09-1.54,1.01-.49-.05-.97-.22-1.45-.33,.22-.6,.4-1.21,.66-1.79,.12-.26,.42-.45,.64-.67Z" fill="#b8b8b8"/>
    <path d="M246.64,57.59c.01,.9-.6,1.58-1.4,1.54-.61-.03-1.15-.66-1.22-1.41-.06-.65,.67-1.29,1.48-1.28,.74,0,1.14,.41,1.15,1.15Z" fill="#dcdcdc"/>
    <path d="M245.27,48.81s-.01,.16-.07,.31c-.17,.48-.72,.9-1.13,.86-.49-.06-.8-.39-1-.8-.31-.64,.07-1.73,.74-2.02,.21-.09,.57-.05,.78,.07,.53,.3,.77,.79,.68,1.59Z" fill="#dcdcdc"/>
    <path d="M267.56,57.08c-.71,.88-1.72,1.65-2.7,2.05,.09-1.44,.58-2.07,1.8-2.31,.33-.07,.66-.02,.9,.26Z" fill="#dcdcdc"/>
    <path d="M275.21,42.88c-.11,.83-.04,1.71-.58,2.43-.38-.35-.66-.75-.49-1.29,.17-.54,.45-1.01,1.07-1.14Z" fill="#dcdcdc"/>
    <path d="M271.97,62.96c.02,1.34-.52,1.94-1.73,1.93-1.02,0-1.98-.94-1.95-1.9,.03-.87,.99-1.77,1.92-1.8,1.02-.04,1.75,.69,1.77,1.77Z" fill="#b8b8b8"/>
    <path d="M279.07,49.32c-.03,.2-.03,.49-.11,.75-.16,.52-.74,.94-1.25,.95-.58,.01-1.23-.46-1.32-1.07-.07-.49-.07-1.01,0-1.5,.09-.62,.7-1.1,1.29-1.11,.66-.02,1.25,.51,1.36,1.23,.03,.22,.02,.44,.04,.74Z" fill="#b8b8b8"/>
    <path d="M264.87,63.3c.03,.97-.58,1.59-1.53,1.58-.79,0-1.16-.41-1.18-1.29-.02-1,.31-1.39,1.21-1.43,1.01-.04,1.48,.31,1.5,1.13Z" fill="#b8b8b8"/>
    <path d="M271.76,58.15c-.81-.01-1.44-.57-1.47-1.3-.03-.79,.65-1.42,1.53-1.41,.74,0,1.41,.68,1.38,1.39-.03,.75-.67,1.34-1.44,1.33Z" fill="#b8b8b8"/>
    <path d="M270.26,54.09l.35-.35-.35,.35Z" fill="#fefefe"/>
    <path d="M269.92,54.43l.35-.35-.35,.35Z" fill="#fefefe"/>
    <path d="M261.15,61.18l.35-.35-.35,.35Z" fill="#fefefe"/>
  </g>
  <g>
    <path d="M281.26,59.53c1.01-.16,2.02-.31,3.03-.47,.56,.16,1.06,.09,1.42-.42,.15-.14,.33-.18,.52-.13,.28,.14,.56,.27,1.05,.5-.65,.31-1,.52-1.38,.65-3.54,1.18-7.25,1.49-10.92,1.91-1.07,.12-2.19-.18-3.28-.29-.7-.07-1.39-.16-2.09-.25-.99-.14-1.98-.28-2.96-.44-4.6-.74-8.79-2.79-13.17-4.23-4.77-1.58-9.5-3.27-14.25-4.88-.39-.13-.87-.02-2.04-.02,4.71,1.83,8.72,3.4,12.74,4.94,4.78,1.82,9.46,3.91,14.41,5.26,2.52,.69,5.05,1.28,7.7,1.19,1.61-.05,3.22,0,4.83-.01,4.72-.06,9-1.54,13.1-3.83,3.71-2.07,6.22-5.31,8.91-8.4,.2-.22,.37-.48,.5-.75,.27-.58-.12-.93-.49-1.28,.13-.36,.2-.75,.4-1.07,1.36-2.15,2.73-4.3,4.12-6.43,.31-.48,.72-.91,1.08-1.36,.25,.19,.5,.39,.75,.58,.17,.99,.89,1.55,1.7,1.89,2.17,.9,4.33,1.89,6.75,1.87-.85,1.43-1.7,2.85-2.55,4.28l-.38,.86c-.34,.49-.67,.99-1.01,1.48-.49-.25-1-.36-1.29,.22-.35,.71-.59,1.48-.88,2.22-.56,.33-.63,.86-.57,1.44,.05,.15,.02,.28-.09,.39-.77,.03-1.3,.42-1.7,1.07-1.39,2.21-2.75,4.44-4.22,6.59-1.4,2.05-2.89,4.05-4.43,6-1.45,1.83-3.39,3.12-5.27,4.46-4.89,3.48-10.63,4.5-16.36,5.51-5.21-.22-10.45,.59-15.63-.53-.48-.1-1.01-.02-1.5-.06-2.39-.23-4.8-.34-7.16-.74-5.12-.86-10.21-1.89-15.32-2.81-.76-.14-1.63-.31-2.19,.54-1.24-.19-2.48-.38-3.72-.56-1.01-.24-2.01-.48-3.02-.72l-.59-.58c.02-4.61,.72-9.13,1.83-13.6,.99-3.97,2.12-7.9,3.66-11.7,.4,.03,.81,0,1.18,.11,2.69,.82,5.41,1.58,8.06,2.52,7.2,2.55,14.36,5.22,21.57,7.76,1.98,.7,4.05,1.17,6.1,1.65,3.68,.87,7.4,.57,11.12,.3l.95-.23,.98-.39Z" fill="#af0303"/>
    <path d="M327.36-.6c-2.3,4.65-4.6,9.31-6.88,13.97-1.82,3.7-3.55,7.45-5.31,11.18-.21,.45-.33,.94-.5,1.42,1.3,.87,2.58,1.78,4.25,1.78,.84-.36,1.03-1.2,1.38-1.9,1.86-3.69,3.71-7.39,5.54-11.09,2.39-4.84,4.78-9.67,7.18-14.5-1.91-.28-3.82-.65-5.66-.85Z" fill="#ccb4aa"/>
    <path d="M217.18,45.38c3.97-.31,7.74,.66,11.5,1.73,.87,.25,1.74,.47,2.61,.7-1.54,3.8-2.67,7.73-3.66,11.7-1.11,4.46-1.81,8.99-1.83,13.6-1.55-.44-3.11-.87-4.66-1.31-.44-.2-.87-.4-1.3-.59-2.65-1.49-5.07-3.31-7.25-5.42-.58-1.08-1.15-2.16-1.73-3.23-.23-1.86-.46-3.73-.69-5.59,.67-1.19,.63-2.5,.7-3.8l3.55-6.3,2.76-1.49Z" fill="#af7034"/>
    <path d="M325.96-.72c-.43-.02-.82-.09-1.19-.2-.01,.02-.02,.05-.04,.07-.12,.2-.25,.43-.4,.67,.02,.24-.03,.5-.18,.79-.75,1.38-1.43,2.81-2.14,4.22-.03,.06-.07,.11-.1,.16-.47,1.14-1.03,2.22-1.89,3.17-2.1,4.25-4.22,8.49-6.35,12.72-.17,.34-.49,.62-.74,.92-.24,1.21-.49,2.41-.73,3.62l.14-.11c.21,.21,.42,.42,.64,.63,.57,0,1.14,.01,1.71,.02,.16-.47,.28-.97,.5-1.42,1.76-3.73,3.49-7.48,5.31-11.18,2.29-4.66,4.59-9.31,6.88-13.97-.47-.05-.94-.09-1.4-.12Z" fill="#efdac9"/>
    <path d="M333.02,.25c-2.4,4.83-4.79,9.66-7.18,14.5-1.83,3.71-3.68,7.4-5.54,11.09-.35,.7-.54,1.55-1.38,1.9,.42,.56,.85,1.13,1.27,1.69,.27,.27,.55,.54,.82,.8,.96-1.85,1.93-3.69,2.89-5.54l1.7-3.15c.82-1.58,1.63-3.16,2.45-4.73,.04-1.52,.69-2.76,1.78-3.79,.27-.57,.54-1.14,.81-1.71,.13-1.42,.95-2.52,1.69-3.65,.2-.35,.4-.7,.6-1.04,.2-.48,.4-.95,.6-1.43,.41-.93,.83-1.86,1.24-2.78,.07-.51,.01-1.08,.62-1.34,.09-.18,.18-.35,.27-.53-.88-.05-1.77-.16-2.65-.29Z" fill="#92928f"/>
    <path d="M288.19,77.4l-2.53,1.03c-3.7,1.16-7.51,1.68-11.35,2.05-5.11-.13-10.22,.16-15.31-.58-2.38-.35-4.8-.4-7.16-.81-4.04-.7-8.06-1.52-12.07-2.38-2.24-.48-4.43-1.15-6.64-1.74,.56-.85,1.42-.68,2.19-.54,5.11,.92,10.2,1.94,15.32,2.81,2.36,.4,4.77,.51,7.16,.74,.5,.05,1.02-.04,1.5,.06,5.18,1.12,10.42,.31,15.63,.53,5.73-1.01,11.47-2.03,16.36-5.51,1.88-1.34,3.82-2.63,5.27-4.46,1.54-1.95,3.03-3.95,4.43-6,1.47-2.15,2.83-4.38,4.22-6.59,.41-.65,.93-1.04,1.7-1.07-.23,.62-.44,1.26-.71,1.87-.35,.79-.74,1.56-1.12,2.33-.8,.36-1.09,1.04-1.12,1.87-.46,.6-1.03,1.14-1.37,1.8-1.93,3.72-4.7,6.76-7.55,9.76-.13,.14-.21,.33-.31,.5-.36,.11-.87,.11-1.07,.35-1.48,1.81-3.52,2.83-5.48,3.98Z" fill="#7a2002"/>
    <path d="M320.19,29.44l.82,.8c-1.83,3.64-3.67,7.27-5.5,10.91-.09,.11-.15,.24-.18,.38-.42,.65-.84,1.3-1.25,1.95-2.76-.56-5.39-1.46-7.76-3.02,.45-.66,.95-1.28,1.33-1.97,1.43-2.61,2.83-5.24,4.24-7.87,.61-1.14,1.11-2.36,2.39-2.95,1.87,.95,3.76,1.8,5.92,1.78Z" fill="#af7034"/>
    <path d="M298.89,48.58c.38,.34,.77,.7,.49,1.28-.13,.27-.3,.52-.5,.75-2.69,3.09-5.2,6.33-8.91,8.4-4.1,2.29-8.38,3.77-13.1,3.83-1.61,.02-3.22-.04-4.83,.01-2.65,.08-5.17-.51-7.7-1.19-4.95-1.35-9.63-3.44-14.41-5.26-4.02-1.53-8.03-3.11-12.74-4.94,1.17,0,1.64-.12,2.04,.02,4.76,1.61,9.49,3.3,14.25,4.88,4.38,1.45,8.56,3.49,13.17,4.23,.98,.16,1.97,.3,2.96,.44,.69,.1,1.39,.18,2.09,.25,1.09,.12,2.21,.42,3.28,.29,3.67-.43,7.38-.73,10.92-1.91,.38-.13,.73-.34,1.38-.65-.49-.23-.77-.37-1.05-.5,4.09-1.81,7.61-4.38,10.49-7.82,.19-.22,.47-.36,.71-.53,.79-.2,1.51-.47,1.46-1.49v-.08Z" fill="#bd3406"/>
    <path d="M314.27,27.66c-1.28,.59-1.78,1.81-2.39,2.95-1.4,2.63-2.8,5.26-4.24,7.87-.38,.69-.89,1.32-1.33,1.97-.36-.05-.72-.1-1.08-.15-.25-.19-.5-.39-.75-.58,.2-.55,.41-1.11,.61-1.66,.18-.4,.36-.79,.54-1.19,.28-.61,.57-1.22,.85-1.83,1.44-2.74,2.87-5.49,4.33-8.22,.31-.59,.46-1.38,1.37-1.4l.13-.11c.21,.21,.43,.43,.64,.64h-.03c.45,.56,.89,1.14,1.34,1.71Z" fill="#d39d4e"/>
    <path d="M298.9,48.66c.05,1.02-.67,1.29-1.46,1.49-.03-.16-.02-.32,.02-.48,.48-.34,.96-.67,1.44-1.01Z" fill="#af0303"/>
    <path d="M285.71,58.63c-.36,.51-.86,.58-1.42,.42,.47-.14,.95-.28,1.42-.42Z" fill="#bd3406"/>
    <path d="M305.24,40.31c.36,.05,.72,.1,1.08,.15,2.37,1.56,5,2.46,7.76,3.02-.13,.2-.25,.39-.38,.59-2.43,.01-4.58-.98-6.75-1.87-.81-.34-1.53-.9-1.7-1.89Z" fill="#bd3406"/>
    <path d="M309.75,50.68c-.34,1.31-.89,2.48-2.08,3.25-.03-.27-.06-.54-.09-.81,.29-.74,.53-1.51,.88-2.22,.29-.58,.81-.46,1.29-.22Z" fill="#bd3406"/>
    <path d="M307.58,53.11c.03,.27,.06,.54,.09,.81-.22,.21-.44,.42-.66,.63-.06-.58,.01-1.11,.57-1.44Z" fill="#7a2002"/>
    <path d="M311.14,48.34c-.13,.29-.25,.57-.38,.86,.13-.29,.25-.57,.38-.86Z" fill="#bd3406"/>
    <path d="M279.33,60.15c.32-.08,.63-.15,.95-.23-.32,.08-.63,.15-.95,.23Z" fill="#bd3406"/>
    <path d="M314.27,27.66c-.45-.57-.89-1.15-1.34-1.72,.58,0,1.16,.01,1.74,.02,1.3,.87,2.58,1.78,4.24,1.78,.42,.56,.85,1.13,1.27,1.69-2.16,.02-4.05-.83-5.92-1.78Z" fill="#f6f4ec"/>
    <path d="M312.97,25.95c-.21-.21-.43-.43-.64-.64l.64,.64Z" fill="#f6f4ec"/>
  </g>
  <g filter="url(#uuid-86633a10-3a2d-4225-b6f9-40ea58071fca)">
    <path d="M100.84,130.33c-1.63-2.16-2.1-5.24-5.06-6.35,0,1.28,.06,2.56-.03,3.84-.31,4.51-4.66,6.7-8.74,4.42-3.66-2.04-4.89-7.16-2.38-10.4,.61-.78,1.62-1.3,2.54-1.76,1.1-.56,2.3-.93,3.45-1.38-2.6-2.69-5.22-5.35-9.01-6.37-2,3.22-3.89,4.2-7.06,3.64-2.58-.46-5.53-3.31-5.82-5.91-.16-1.43,.13-2.92,.21-4.38-1.89-.85-3.72-1.86-5.68-2.52-6.24-2.09-12.68-2.93-19.25-2.83-1.28,1.39-2.41,2.96-3.88,4.11-1.34,1.04-3,1.46-4.82,.72-2.07-.84-2.99-2.28-2.94-4.44-3.37,.44-6.74,.88-10.12,1.32,.93,1.17,1.92,2.3,2.77,3.53,1.4,2.02,1.32,4.04-.23,5.92-1.53,1.86-3.26,3.31-5.94,3.35-4.59,.07-6.62-1.68-6.97-6.4-.06-.86,0-1.72,0-2.58-4.3,1.78-8.29,4.1-12.14,6.66-.06,5.71-.27,11.4-.6,17.09,0,.25,0,.5-.02,.75,.01,.15,.02,.31,.03,.46,.75-.26,1.49-.38,2.17-.31,3.62,.39,7.92,4.95,7.72,8.31-.18,3.02-4.19,8.8-8.45,8.2-.21,0-.41-.03-.61-.05,.07,2.53,.12,5.06,.15,7.6,2.29,1.38,3.78,4,4,7.19,.16,2.45-1.76,4.91-4,6.52-.08,8.49-.26,16.99-.34,25.46,1.38-1.58,3.31-2.62,5.42-2.69,4.51-.15,7.97,3.74,7.95,8.94-.02,4.12-3.61,7.65-7.76,7.64-2.22,0-4.24-1.1-5.66-2.78-.05,2.8-.24,5.57-.77,8.3,.17-.02,.34-.05,.52-.05,2.41-.08,4.76,2.9,4.64,5.91-.12,2.99-2.28,5.29-4.99,5.39,0,.48,.01,.96,0,1.44,4.71,.27,9.63-.35,14.79,.08-.96-1.59-1.47-2.43-1.97-3.28-2.89-4.94-.5-10.79,4.98-12.08,2.77-.65,5.14,.49,7.05,2.27,2.68,2.48,4.24,5.41,2.14,9.13-.29,.51-.28,1.19-.49,2.17,1.12,.2,2.14,.38,3.15,.56,2.04-.22,4.09-.43,6.13-.65,.32-1.43,1.43-1.83,2.66-2.33,2.67-1.1,5.81-1.25,7.85-3.68-1.7,.02-3.4,.11-5.1,.06-3.69-.12-6.9-2.46-7.67-5.5-.88-3.52,.28-6.88,3.39-8.89,4.83-3.13,11.08-.07,11.88,5.05,.43,2.74,.25,5.52-1.26,8.03,3.19,.31,5.59-1.62,8.21-2.9,1.5-.73,2.91-1.63,4.37-2.46,.14-.37,.24-.75,.31-1.14,.35-5.5,2.2-7.92,6.89-8.85,1.27-.25,2.51-.08,3.44,1,.85-.07,1.7-.15,2.55-.22,.11-2.33,2.01-3.44,3.35-4.93,1.35-1.5,3.13-2.72,3.16-5.04-.63,.11-1.33,.08-1.88,.36-3.66,1.82-6.65,.46-9.4-1.93-2.93-2.55-3.58-5.2-2.25-8.61,1.32-3.38,3.9-5,7.4-5.22,3.41-.21,6.28,1.65,7.79,4.63,1.34,2.66,.68,5.47,.9,8.22,1.72-1.73,3.45-3.45,5.17-5.18,.83-2.29,1.51-4.65,2.54-6.84,.47-1.01,1.61-1.71,2.45-2.55,.88-2.53,1.79-5.05,2.63-7.59,.97-2.95,1.87-5.92,2.8-8.88-.07-.41-.13-.82-.17-1.23-1.44-1.35-2.51-2.88-1.86-4.95,.65-2.06,1.72-3.85,4.09-4.35,.22-.71,.44-1.42,.67-2.14-.16-1.47-.42-2.95,.94-4.07,.11-2.98,.21-5.95,.32-8.93-.08-.87-.17-1.75-.25-2.62Zm-23.07,12.42c.25-3.1,3.07-5.91,5.8-5.78,2.14,.1,5.48,3.49,5.49,5.58,.02,3.04-2.67,5.8-5.62,5.78-3.3-.03-5.92-2.6-5.68-5.57Zm-23.93-39.55c4.58,.03,7.1,2.53,7.1,7.07,0,4.56-2.49,7.05-7.09,7.08-3.36,.02-6.96-3.64-6.95-7.07,0-3.45,3.59-7.1,6.95-7.08Zm-5.25,18.09c4.81-.02,8.53,3.81,8.37,8.62-.15,4.56-3.73,8.04-8.28,8.06-4.81,.02-8.53-3.81-8.37-8.62,.15-4.55,3.73-8.04,8.28-8.06Zm-7.84,21.87c4.92,.2,8.28,3.53,8.08,8.01-.21,4.81-3.33,7.63-8.34,7.54-4.02,.76-8.38-4.01-8.07-7.92,.37-4.6,3.59-7.83,8.33-7.64Zm-6.04-33.26c2.21,.23,5.43,3.69,5.33,5.73-.16,3.18-2.76,5.69-5.8,5.59-3.08-.1-5.47-2.31-5.5-5.1-.04-3.34,3.03-6.54,5.98-6.22Zm-10.3,16.55c4.81,.16,8.4,4.17,8.03,8.97-.26,3.41-5.1,7.71-8.5,7.55-3.83-.18-8.08-4.77-8.1-8.76-.02-4.31,3.96-7.92,8.57-7.77Zm1.66,30.12c-.16,4.87-3.71,8.62-8.56,8.53-4.33-.08-7.99-3.5-8.12-7.58-.13-4.2,4.66-9.28,8.54-8.92,3.45,.32,8.25,4.55,8.13,7.97Zm-17.56-30.14c-3.03-.04-5.45-2.18-5.57-4.95-.14-2.99,2.48-5.42,5.79-5.38,3,.03,5.45,2.22,5.58,4.97,.14,2.99-2.48,5.41-5.8,5.37Zm3.57,59.43c-4.03,.34-8.43-3.91-8.05-8.13,.4-4.39,3.44-7.52,7.96-7.49,4.45,.04,7.63,3.26,7.65,7.73,.01,4.51-3.15,7.51-7.56,7.88Zm13.23,15.38c-4.58-.04-7.94-3.53-8.29-8.14-.33-4.28,5.38-8.32,8.37-8.4,3.67-.1,8.14,4.58,8.29,8.57,.16,4.27-3.76,8.01-8.37,7.97Zm9.03-19.4c-4.8-.08-8.43-3.89-8.25-8.66,.17-4.53,3.71-7.78,8.26-8.07,4.05-.25,8.26,5.29,8.26,8.39,0,3.07-4.2,8.83-8.26,8.33Zm16.12,16.38c-4.59-.11-7.35-3.44-7.73-8.42-.29-3.96,3.96-8.32,8.08-7.98,4.6,.38,7.56,3.4,7.55,8.42,0,4.86-3.21,8.1-7.9,7.98Zm5.7-20.22c-4.78-.11-8.2-3.47-8.19-7.92,.02-5.91,4.17-8.5,7.57-8.68,4.37-.24,7.93,3.41,7.99,8.05,.06,5.05-3.05,8.66-7.37,8.55Zm6.11-20.73c-4.52,.05-7.91-3.87-7.83-9.05,.07-4.33,3.79-7.44,8.53-7.62,3.87-.15,8.19,5.71,8.02,8.65-.22,3.8-4.77,7.99-8.71,8.03Zm7.38-24.53c-2.76-.15-4.89-2.59-4.91-5.62-.02-3.32,2.43-5.92,5.41-5.76,2.73,.15,4.91,2.64,4.93,5.62,.02,3.29-2.46,5.92-5.42,5.76Zm13.53,38.89c-4.69-.07-8.13-3.21-8.04-7.35,.11-4.84,3.5-8.31,8.01-8.2,5.19,.12,8.71,3.66,8.49,8.56-.18,4.03-3.85,7.06-8.46,6.99Z" fill="#fefefe"/>
    <path d="M116.12,170.42c-.31-2.51-.63-5.03-1.09-7.52-1.28-6.86-2.44-13.76-6.44-19.73-2.7,.13-5.39,.23-7.82-1.3-1.36,1.11-1.1,2.6-.94,4.07,3.34-.72,5.82,.7,7.73,3.27,1.4,1.89,2.68,3.83,1.36,6.4-1.36,2.66-3.13,4.46-6.36,4.45-1.98,0-3.79-.35-5.45-1.44-.93,2.96-1.83,5.93-2.8,8.88-.84,2.54-1.75,5.06-2.63,7.59,1.04,.21,2.17,.23,3.11,.66,2.76,1.27,4.02,3.73,3.33,6.14-.71,2.46-3.11,4.17-5.87,3.86-1.87-.21-3.7-.83-5.54-1.27-1.72,1.73-3.45,3.45-5.17,5.18l.05-.05c-.45,.45-.9,.9-1.35,1.35l.06-.06c-.43,.43-.87,.87-1.3,1.3-.03,2.32-1.81,3.54-3.16,5.04-1.34,1.49-3.24,2.6-3.35,4.93,.72,1.53,1.58,3.02,2.14,4.6,1.54,4.3-.47,8.74-4.56,10.55-2.13,.94-4.08,.69-6.1-.3-2.44-1.19-4.12-2.92-4.68-5.64-1.45,.82-2.87,1.73-4.37,2.46-2.62,1.28-5.02,3.21-8.21,2.9-.44,.44-.87,.87-1.31,1.31l.05-.05c-2.05,2.43-5.18,2.58-7.85,3.68-1.23,.5-2.33,.91-2.66,2.33,2.2,1.71,4.3,3.39,4.07,6.68-.17,2.52-1.68,3.68-3.69,4.65-2.01,.97-3.63,.5-5.18-.95-1.97-1.85-3.41-3.75-1.94-6.65,.46-.9,.42-2.05,.6-3.09-1.01-.18-2.02-.36-3.15-.55,.21-.98,.21-1.65,.49-2.17,2.09-3.72,.53-6.65-2.14-9.13-1.92-1.78-4.28-2.92-7.05-2.27-5.48,1.29-7.87,7.14-4.98,12.08,.5,.85,1.01,1.69,1.97,3.28-5.16-.43-10.08,.18-14.79-.08-.01,1.87-.06,3.74-.08,5.6,.84-.88,1.85-1.54,3.23-1.71,2.94-.37,5.77,.32,7.4,2.75,1.6,2.38,1.7,5.22-.45,7.65,.57,.77,.98,1.85,1.75,2.23,1.44,.71,3.08,1,4.64,1.46,.01-.64-.05-1.3,.05-1.93,.88-5.59,6.61-7.92,11.02-4.48,.67,.52,1.27,1.15,1.83,1.8,1.55,1.78,1.58,2.78,.21,5.18-.42,.74-.93,1.43-1.41,2.14,3.66,2,7.6,2.64,11.72,2.34-.26-.81-.55-1.62-.78-2.44-1.11-4.06-.32-5.86,3.38-7.84,4.14-2.21,9.57,.53,10.15,5.21,.16,1.26-.06,2.56-.1,3.85,3.72,.19,7.34-.06,10.46-2.46-.36-.24-.8-.4-1.06-.72-2.8-3.49-3.03-4.84-1.31-7.41,1.87-2.8,6.08-4.36,9.07-3.21,1.89,.73,3.27,2.08,3.6,4.19,.16,1.05,.13,2.14,.18,3.21,1.01-.31,2.07-.51,3.03-.95,9.75-4.42,17.32-11.48,23.87-19.77-1.07,0-2.17,.17-3.19-.05-2.74-.6-5.13-3.46-5.53-6.39-.32-2.35,2.05-6.25,4.43-7.28,2.74-1.19,5.76-.23,7,2.51,.68,1.51,.84,3.25,1.23,4.89,4.28-4.37,6.73-9.65,7.72-15.64-1.21,.86-2.36,1.83-3.64,2.57-4.02,2.32-8.91-.27-9.18-4.94-.08-1.42,.27-2.97,.8-4.3,1.27-3.16,3.49-4.13,7.29-3.51,2.6,.43,4.33,2.3,4.69,5.25,.15,1.26,.06,2.55,.07,3.82,.76-1.25,1.83-2.42,2.21-3.78,1.79-6.34,1.96-12.94,2.84-19.43,.17-1.24-.03-2.55-.19-3.81Zm-62.38,61.8c-3.04-.02-4.44-1.55-4.51-4.93-.08-3.81,1.19-5.31,4.64-5.46,3.85-.17,5.65,1.19,5.74,4.33,.11,3.71-2.2,6.09-5.86,6.06Zm26.4,.02c-3.92-.02-7.58-3.6-7.45-7.27,.12-3.33,3.77-6.76,7.33-6.89,3.91-.14,6.69,2.64,6.75,6.78,.08,5.11-1.99,7.41-6.63,7.38Zm5.82-25.79c-3.09-.06-5.51-2.19-5.63-4.98-.13-3.03,2.47-5.43,5.85-5.4,2.84,.02,5.39,2.58,5.28,5.31-.11,2.85-2.58,5.13-5.51,5.08Zm27.54-30.87c-.6,2-2.82,3.6-4.78,3.65-2.24,.05-4.7-1.74-5.05-4.08-.28-1.87-.28-3.85-.01-5.72,.33-2.36,2.69-4.2,4.92-4.25,2.52-.06,4.79,1.96,5.2,4.7,.13,.84,.09,1.7,.14,2.83-.11,.78-.12,1.87-.42,2.88Z" fill="#dcdcdc"/>
    <path d="M111.21,198.55c-1.21,.86-2.36,1.83-3.64,2.57-4.02,2.32-8.91-.27-9.18-4.94-.08-1.42,.27-2.97,.81-4.3,1.27-3.16,3.49-4.13,7.29-3.51,2.6,.43,4.33,2.3,4.69,5.25,.15,1.26,.06,2.55,.07,3.82-.03,.37-.05,.74-.05,1.11Z" fill="#b8b8b8"/>
    <path d="M95.78,123.98c0,1.28,.06,2.56-.03,3.84-.31,4.51-4.66,6.7-8.74,4.42-3.66-2.04-4.89-7.16-2.38-10.4,.61-.78,1.62-1.3,2.54-1.76,1.1-.56,2.3-.93,3.45-1.38,2.21,1.28,3.98,2.99,5.16,5.28Z" fill="#dcdcdc"/>
    <path d="M99.54,220.51c-1.07,0-2.17,.17-3.19-.05-2.74-.6-5.13-3.46-5.53-6.39-.32-2.35,2.05-6.25,4.43-7.28,2.74-1.19,5.76-.23,7,2.51,.68,1.51,.84,3.25,1.23,4.89-1.32,2.11-2.64,4.21-3.95,6.31Z" fill="#b8b8b8"/>
    <path d="M22.25,102.04c.93,1.17,1.92,2.3,2.77,3.53,1.4,2.02,1.32,4.04-.23,5.92-1.53,1.86-3.26,3.31-5.94,3.35-4.59,.07-6.62-1.68-6.97-6.4-.06-.86,0-1.72,0-2.58,3.46-1.27,6.92-2.55,10.38-3.83Z" fill="#dcdcdc"/>
    <path d="M39.06,248.86c-.26-.81-.55-1.62-.78-2.44-1.11-4.06-.32-5.86,3.38-7.84,4.14-2.21,9.57,.53,10.15,5.21,.16,1.26-.06,2.56-.1,3.85-4.25,.06-8.32,1.96-12.65,1.22Z" fill="#b8b8b8"/>
    <path d="M62.16,245.18c-.36-.24-.8-.4-1.06-.72-2.8-3.49-3.03-4.84-1.31-7.41,1.87-2.8,6.08-4.36,9.07-3.21,1.89,.73,3.27,2.08,3.6,4.19,.16,1.05,.13,2.14,.18,3.21-3.31,1.81-6.55,3.79-10.48,3.95Z" fill="#b8b8b8"/>
    <path d="M15.64,243.8c.01-.64-.05-1.3,.05-1.93,.88-5.59,6.61-7.92,11.02-4.48,.67,.52,1.27,1.15,1.83,1.8,1.55,1.78,1.58,2.78,.21,5.18-.42,.74-.93,1.43-1.41,2.14-4.16,.2-7.99-1.03-11.71-2.72Z" fill="#b8b8b8"/>
    <path d="M9.7,232.46c-1.63-2.43-4.47-3.12-7.4-2.75-1.38,.17-2.4,.83-3.23,1.71,0,.51-.02,1.02-.02,1.53v2.08c2.87,2.65,6.07,4.7,10.21,5.08,2.15-2.43,2.04-5.27,.45-7.65Z" fill="#b8b8b8"/>
    <path d="M81.61,112.33c-2,3.22-3.89,4.2-7.06,3.64-2.58-.46-5.53-3.31-5.82-5.91-.16-1.43,.13-2.92,.21-4.38,5.06,.63,9.03,3.32,12.67,6.65Z" fill="#dcdcdc"/>
    <path d="M108.59,143.17c-2.7,.13-5.39,.23-7.82-1.3,.1-2.98,.21-5.95,.31-8.93,.4-.02,.8-.05,1.2-.11,3.88,2.36,5.21,6.27,6.3,10.33Z" fill="#b8b8b8"/>
    <path d="M44.01,100.33c-1.28,1.39-2.41,2.96-3.88,4.11-1.34,1.04-3,1.46-4.82,.72-2.07-.84-2.99-2.28-2.94-4.44,1.65-.36,3.28-.8,4.94-1.05,2.27-.35,4.61-.92,6.7,.67Z" fill="#dcdcdc"/>
    <path d="M102.29,132.84c-.4,.05-.8,.09-1.2,.11-.08-.87-.17-1.75-.25-2.62,.48,.84,.96,1.68,1.45,2.51Z" fill="#cfcfcf"/>
    <path d="M48.6,121.29c4.81-.02,8.53,3.81,8.37,8.62-.15,4.56-3.73,8.04-8.28,8.06-4.81,.02-8.53-3.81-8.37-8.62,.15-4.55,3.73-8.04,8.28-8.06Z" fill="#dcdcdc"/>
    <path d="M78.98,192.2c-.63,.11-1.33,.08-1.88,.36-3.66,1.82-6.65,.46-9.4-1.93-2.93-2.55-3.58-5.2-2.25-8.61,1.32-3.38,3.9-5,7.4-5.22,3.41-.21,6.28,1.65,7.79,4.63,1.34,2.66,.68,5.47,.9,8.22l.05-.05-1.35,1.35,.06-.06c-.45,.45-.89,.89-1.34,1.34l.04-.04Z" fill="#dcdcdc"/>
    <path d="M54.45,148.21c.07-4.33,3.79-7.44,8.53-7.62,3.87-.15,8.19,5.71,8.02,8.65-.22,3.8-4.77,7.99-8.71,8.03-4.52,.05-7.91-3.87-7.83-9.05Z" fill="#dcdcdc"/>
    <path d="M34.35,181.84c-4.8-.08-8.43-3.89-8.25-8.66,.17-4.53,3.71-7.78,8.26-8.07,4.05-.25,8.26,5.29,8.26,8.39,0,3.07-4.2,8.83-8.26,8.33Z" fill="#dcdcdc"/>
    <path d="M17.52,165.1c-4.33-.08-7.99-3.5-8.12-7.58-.13-4.2,4.66-9.28,8.54-8.92,3.45,.32,8.25,4.55,8.13,7.97-.16,4.87-3.71,8.62-8.56,8.53Z" fill="#dcdcdc"/>
    <path d="M24.42,126.45c4.81,.16,8.4,4.17,8.03,8.97-.26,3.41-5.1,7.71-8.5,7.55-3.83-.18-8.08-4.77-8.1-8.76-.02-4.31,3.96-7.92,8.57-7.77Z" fill="#dcdcdc"/>
    <path d="M25.32,201.24c-4.58-.04-7.94-3.53-8.29-8.14-.33-4.28,5.38-8.32,8.37-8.4,3.67-.1,8.14,4.58,8.29,8.57,.16,4.27-3.76,8.01-8.37,7.97Z" fill="#dcdcdc"/>
    <path d="M63.53,169.44c.06,5.05-3.05,8.66-7.37,8.55-4.78-.11-8.2-3.47-8.19-7.92,.02-5.91,4.17-8.5,7.57-8.68,4.37-.24,7.93,3.41,7.99,8.05Z" fill="#dcdcdc"/>
    <path d="M83.18,171.62c-4.69-.07-8.13-3.21-8.04-7.35,.11-4.84,3.5-8.31,8.01-8.2,5.19,.12,8.71,3.66,8.49,8.56-.18,4.03-3.85,7.06-8.46,6.99Z" fill="#dcdcdc"/>
    <path d="M40.49,158.71c-4.02,.76-8.38-4.01-8.07-7.92,.37-4.6,3.59-7.83,8.33-7.64,4.92,.2,8.28,3.53,8.08,8.01-.22,4.81-3.33,7.63-8.34,7.54Z" fill="#dcdcdc"/>
    <path d="M58.36,190.23c0,4.86-3.21,8.1-7.9,7.98-4.59-.11-7.35-3.44-7.73-8.42-.29-3.96,3.96-8.32,8.08-7.98,4.6,.38,7.56,3.4,7.55,8.42Z" fill="#dcdcdc"/>
    <path d="M.14,154.56c.05,4.57,.04,9.13,0,13.7,2.24-1.6,4.16-4.07,4-6.52-.22-3.19-1.71-5.81-4-7.19Z" fill="#dcdcdc"/>
    <path d="M1.32,130.51c-.69-.07-1.43,.05-2.17,.31,.43,5.37,.69,10.75,.84,16.15,.2,.02,.4,.05,.61,.05,4.25,.6,8.27-5.18,8.45-8.2,.2-3.36-4.1-7.92-7.72-8.31Z" fill="#dcdcdc"/>
    <path d="M5.22,191.04c-2.11,.07-4.04,1.11-5.42,2.69-.02,2.34-.04,4.68-.04,7.01,0,.38-.04,.72-.11,1.05,.07,.34,.11,.71,.11,1.09,0,.65,0,1.3-.02,1.95,1.42,1.68,3.44,2.77,5.66,2.78,4.16,.01,7.75-3.52,7.76-7.64,.02-5.2-3.44-9.09-7.95-8.94Z" fill="#dcdcdc"/>
    <path d="M45.43,218c-1.7,.02-3.4,.11-5.1,.06-3.69-.12-6.9-2.46-7.67-5.5-.88-3.52,.28-6.88,3.39-8.89,4.83-3.13,11.08-.07,11.88,5.05,.43,2.74,.25,5.52-1.26,8.03l.04-.03c-.45,.45-.89,.89-1.34,1.34l.05-.05Z" fill="#dcdcdc"/>
    <path d="M19.65,177.98c.01,4.51-3.15,7.51-7.56,7.88-4.03,.34-8.43-3.91-8.05-8.13,.4-4.39,3.44-7.52,7.96-7.49,4.45,.04,7.63,3.26,7.65,7.73Z" fill="#dcdcdc"/>
    <path d="M60.94,110.27c0,4.56-2.49,7.05-7.09,7.08-3.36,.02-6.96-3.64-6.95-7.07,0-3.45,3.59-7.1,6.95-7.08,4.58,.03,7.1,2.53,7.1,7.07Z" fill="#dcdcdc"/>
    <path d="M72.47,202.17c.72,1.53,1.58,3.02,2.14,4.6,1.54,4.3-.47,8.74-4.56,10.55-2.13,.94-4.08,.69-6.1-.3-2.44-1.19-4.12-2.92-4.68-5.64,.13-.37,.24-.75,.31-1.14,3.77-1.54,7.63-4.47,10.34-7.85,.85-.07,1.7-.15,2.55-.22Z" fill="#b8b8b8"/>
    <path d="M99.84,145.94c3.34-.72,5.82,.7,7.73,3.27,1.4,1.89,2.68,3.83,1.36,6.4-1.36,2.66-3.13,4.46-6.36,4.45-1.98,0-3.79-.35-5.45-1.44-.07-.41-.12-.82-.17-1.24,2.1-2.78,1.81-6.12,2.23-9.3,.22-.71,.44-1.42,.67-2.14Z" fill="#b8b8b8"/>
    <path d="M34.93,224.01c2.2,1.71,4.3,3.39,4.07,6.68-.17,2.52-1.68,3.68-3.69,4.65-2.01,.97-3.63,.5-5.18-.95-1.97-1.85-3.41-3.75-1.94-6.65,.46-.9,.42-2.05,.6-3.09,2.05-.21,4.09-.43,6.13-.64Z" fill="#b8b8b8"/>
    <path d="M34.24,121.22c-3.08-.1-5.47-2.31-5.5-5.1-.04-3.34,3.03-6.54,5.98-6.22,2.21,.23,5.43,3.69,5.33,5.73-.16,3.18-2.76,5.69-5.8,5.59Z" fill="#dcdcdc"/>
    <path d="M83.58,136.97c2.14,.1,5.48,3.49,5.49,5.58,.02,3.04-2.67,5.8-5.62,5.78-3.3-.03-5.92-2.6-5.68-5.57,.25-3.1,3.07-5.91,5.8-5.78Z" fill="#dcdcdc"/>
    <path d="M64.74,127.11c-.02-3.32,2.43-5.92,5.41-5.76,2.73,.15,4.91,2.64,4.93,5.62,.02,3.29-2.46,5.92-5.42,5.76-2.76-.15-4.89-2.59-4.91-5.62Z" fill="#dcdcdc"/>
    <path d="M8.52,126.43c-3.03-.04-5.45-2.18-5.57-4.95-.14-2.99,2.48-5.42,5.79-5.38,3,.03,5.45,2.22,5.58,4.97,.14,2.99-2.48,5.41-5.8,5.37Z" fill="#dcdcdc"/>
    <path d="M-.52,213.08c-.17,0-.35,.03-.52,.05-.15,.78-.34,1.55-.56,2.33,.55,2.93,.71,5.92,.73,8.91,2.71-.09,4.87-2.39,4.99-5.39,.12-3.01-2.23-5.99-4.64-5.91Z" fill="#dcdcdc"/>
    <path d="M91.68,175.08c1.04,.21,2.17,.23,3.11,.66,2.76,1.27,4.02,3.73,3.33,6.14-.71,2.46-3.11,4.17-5.87,3.86-1.87-.21-3.7-.83-5.54-1.27,.82-2.29,1.51-4.65,2.54-6.84,.47-1.01,1.61-1.71,2.45-2.55Z" fill="#b8b8b8"/>
    <path d="M69.92,202.39c-2.71,3.38-6.56,6.31-10.34,7.85,.35-5.5,2.2-7.92,6.89-8.85,1.27-.25,2.51-.08,3.44,1Z" fill="#dcdcdc"/>
    <path d="M99.17,148.07c-.42,3.18-.13,6.53-2.23,9.3-1.44-1.34-2.51-2.88-1.86-4.95,.65-2.06,1.72-3.85,4.09-4.35Z" fill="#dcdcdc"/>
    <path d="M86.78,224.86c.08,5.11-1.99,7.41-6.63,7.38-3.92-.02-7.58-3.6-7.45-7.27,.12-3.33,3.77-6.76,7.33-6.89,3.91-.14,6.69,2.64,6.75,6.78Z" fill="#b8b8b8"/>
    <path d="M113.92,172.71c-.11,.78-.12,1.87-.42,2.88-.6,2-2.82,3.6-4.78,3.65-2.24,.05-4.7-1.74-5.05-4.08-.28-1.87-.28-3.85-.01-5.72,.33-2.36,2.69-4.2,4.92-4.25,2.52-.06,4.79,1.96,5.2,4.7,.13,.84,.09,1.7,.14,2.83Z" fill="#b8b8b8"/>
    <path d="M59.6,226.17c.11,3.71-2.2,6.09-5.86,6.06-3.04-.02-4.44-1.55-4.51-4.93-.08-3.81,1.19-5.31,4.64-5.46,3.85-.17,5.65,1.19,5.74,4.33Z" fill="#b8b8b8"/>
    <path d="M85.96,206.46c-3.09-.06-5.51-2.19-5.63-4.98-.13-3.03,2.47-5.43,5.85-5.4,2.84,.02,5.39,2.58,5.28,5.31-.11,2.85-2.58,5.13-5.51,5.08Z" fill="#b8b8b8"/>
    <path d="M80.23,190.95c.45-.45,.9-.9,1.35-1.35-.45,.45-.9,.9-1.35,1.35Z" fill="#fefefe"/>
    <path d="M78.94,192.24c.45-.45,.89-.89,1.34-1.34-.45,.45-.89,.89-1.34,1.34Z" fill="#fefefe"/>
    <path d="M45.39,218.05c.45-.45,.89-.89,1.34-1.34-.45,.45-.89,.89-1.34,1.34Z" fill="#fefefe"/>
  </g>
  <rect x="1.65" y="120.99" width="80" height="19" fill="none" stroke="#e42a29" stroke-miterlimit="10" stroke-width="2"/>
  <rect x="1.93" y="201.05" width="88" height="27" fill="none" stroke="#e42a29" stroke-miterlimit="10" stroke-width="2"/>
  <rect x="2" y="150.54" width="96" height="40" fill="none" stroke="#e42a29" stroke-miterlimit="10" stroke-width="2"/>
  <rect x="116.58" y="106.19" width="218.34" height="18.88" fill="#e42a29" filter="url(#uuid-b36340a9-6830-4ab6-bef6-df9ce8f9eecd)"/>
  <rect x="117.01" y="132.27" width="218.34" height="18.88" fill="#e42a29" filter="url(#uuid-f94e8ed5-90d8-428b-a348-aaaac4683376)"/>
  <g id="uuid-5cc11b67-e612-4fc0-94f6-27e47ac5e1d6">
    <g>
      <g>
        <path d="M30.46,12.92c0,.56-.23,1.1-.63,1.5l-6.76,6.76-7.22-4.17v-4.1c0-1.18,.96-2.14,2.14-2.14s2.14,.96,2.14,2.14h0v5.17l6.68-6.69c.84-.84,2.19-.83,3.03,0,.4,.4,.63,.95,.63,1.53h-.01Z" fill="#fff"/>
        <path d="M29.83,31.84c-.4,.4-.94,.63-1.51,.63-.28,0-.56-.06-.82-.16-.26-.11-.49-.27-.69-.47l-2.27-2.27-4.42-4.41v5.18c0,1.18-.95,2.13-2.13,2.13s-2.14-.95-2.14-2.13v-4.09l7.24-4.17,4.47,4.47,2.27,2.27c.84,.84,.83,2.19,0,3.02Z" fill="#fff"/>
        <path d="M22.76,21.48c-.03-.1-.1-.2-.19-.26-.01,0-.02-.01-.03-.02l-1.82-1.05-4.87-2.81-4.12-2.38c-.24-.14-.53-.06-.66,.17-.05,.08-.07,.16-.07,.25v12.48c0,.27,.22,.48,.48,.48,.09,0,.17-.02,.25-.06l4.12-2.38,6.69-3.86s.05-.03,.07-.05c.06-.05,.1-.11,.13-.18,.04-.1,.05-.22,.02-.33Zm-10.19-5.03l3.2,1.85,5.19,2.99c.06,.04,.11,.08,.14,.14h0c.05,.1,.06,.2,.03,.29-.02,.09-.09,.17-.17,.22l-5.19,3-3.2,1.85c-.18,.1-.41,.04-.51-.14-.04-.05-.05-.12-.05-.19v-9.69c0-.21,.16-.37,.37-.37,.07,0,.13,.01,.19,.05Z" fill="#fff"/>
        <path d="M19.68,21.7c-.02,.07-.07,.13-.13,.17l-3.9,2.25-2.4,1.39c-.13,.08-.31,.03-.38-.1-.02-.04-.04-.09-.04-.14v-7.29c0-.16,.13-.28,.28-.28,.05,0,.1,.01,.14,.04l2.41,1.39,3.9,2.25c.06,.04,.11,.09,.13,.16,.01,.05,.01,.11,0,.16h-.01Z" fill="#fff"/>
      </g>
      <g>
        <path d="M65.54,21.13l-5.96-2.99-3.67-1.84c-.21-.12-.47-.04-.58,.16-.03,.06-.05,.12-.06,.18l.12,9.9c.03,.23,.24,.41,.48,.38,.06,0,.12-.03,.17-.06l.23-.12,3.4-1.81,2.09-1.12,3.78-2.01c.09-.05,.16-.13,.19-.23,.03-.07,.03-.15,.01-.22-.04-.1-.11-.18-.2-.22Zm-5.96,3.03l-2.81,1.5c-.16,.1-.37,.05-.46-.11-.02-.04-.04-.09-.04-.14l-.1-7.68c.02-.18,.18-.32,.36-.3,.05,0,.09,.02,.14,.04l2.85,1.43,1.02,.51,3.6,1.81c.07,.03,.13,.09,.16,.17,.01,.05,.01,.11-.01,.16h.01s-.01,.02-.02,.03c-.02,.07-.07,.12-.13,.15l-4.57,2.43Z" fill="#fff"/>
        <path d="M63,21.55c-.02,.06-.06,.1-.11,.13l-3.43,1.83-2.12,1.13c-.12,.07-.27,.03-.34-.09-.02-.03-.03-.07-.03-.1l-.07-5.78c0-.14,.13-.24,.27-.23,.04,0,.07,.01,.1,.03l2.14,1.08,3.48,1.75c.06,.03,.1,.07,.12,.13,0,.04,0,.09,0,.13h0Z" fill="#fff"/>
        <path d="M39.97,16.39l-2.28,.03-2.89,.04,.03,2.82,.09,7.48,2.46-.03-.04-3.34,2.71-.04c2.5-.03,4.32-1.49,4.3-3.53-.03-2.04-1.89-3.46-4.38-3.43Zm-.21,4.94l-2.44,.03-.04-2.91,2.45-.03c1.22,0,2.06,.55,2.07,1.43,0,.89-.82,1.47-2.04,1.48Z" fill="#fff"/>
        <polygon points="54.09 26.81 45.88 26.91 45.76 16.61 48.24 16.58 48.34 24.89 54.06 24.81 54.09 26.81" fill="#fff"/>
        <polygon points="70.9 22.88 70.94 26.6 68.45 26.63 68.41 22.91 63.82 16.38 66.7 16.35 69.62 20.83 72.55 16.28 75.31 16.24 70.9 22.88" fill="#fff"/>
        <polygon points="86.21 27.11 84.53 27.13 80.1 22.39 78.31 24.12 78.35 27.21 77.04 27.22 76.92 16.92 78.22 16.91 78.29 22.61 84.05 16.83 85.77 16.81 80.99 21.58 86.21 27.11" fill="#fff"/>
        <path d="M92.68,16.56c-3.18,.04-5.86,2.5-5.83,5.4,.04,2.89,2.76,5.31,5.96,5.27,3.2-.04,5.85-2.52,5.81-5.42-.03-2.89-2.76-5.29-5.94-5.25Zm.42,9.57c-2.51,.2-4.72-1.67-4.92-4.19,.13-2.27,1.91-4.09,4.18-4.29,2.52-.21,4.73,1.66,4.94,4.18-.13,2.28-1.92,4.12-4.2,4.3Z" fill="#fff"/>
        <path d="M108.87,24.21c.02,1.64-1.33,2.99-4.02,3.02-1.66,.06-3.28-.5-4.54-1.58l.81-.93c1.03,.95,2.38,1.47,3.78,1.44,1.78-.02,2.67-.91,2.66-1.83-.01-1.1-1.11-1.52-3.12-1.91-2.32-.46-3.78-1.08-3.8-2.87-.02-1.65,1.6-2.96,3.81-2.98,1.48-.04,2.92,.47,4.05,1.42l-.79,.92c-.91-.81-2.09-1.27-3.31-1.28-1.43,.02-2.45,.87-2.44,1.82,0,1.07,1.15,1.43,3.11,1.82,2.21,.44,3.78,1.13,3.8,2.94Z" fill="#fff"/>
        <polygon points="122.54 27.09 121.24 27.11 121.14 19.33 116.96 26.56 112.61 19.43 112.7 27.21 111.39 27.23 111.27 16.92 112.57 16.91 116.93 24.04 121.11 16.8 122.41 16.79 122.54 27.09" fill="#fff"/>
        <path d="M130.75,16.56c-3.18,.04-5.86,2.5-5.83,5.4,.04,2.89,2.76,5.31,5.96,5.27,3.2-.04,5.85-2.52,5.81-5.42-.04-2.89-2.76-5.29-5.94-5.25Zm.42,9.57c-2.52,.2-4.72-1.67-4.93-4.19,.14-2.27,1.92-4.1,4.19-4.29,2.51-.21,4.72,1.66,4.94,4.18-.13,2.28-1.92,4.12-4.2,4.3Z" fill="#fff"/>
        <path d="M146.94,24.21c.02,1.64-1.34,2.99-4.02,3.02-1.66,.06-3.28-.51-4.55-1.58l.81-.93c1.03,.95,2.39,1.47,3.79,1.44,1.77-.02,2.67-.91,2.65-1.83,0-1.1-1.1-1.52-3.12-1.91-2.31-.46-3.78-1.08-3.8-2.87-.02-1.65,1.61-2.96,3.82-2.98,1.47-.04,2.91,.47,4.05,1.42l-.79,.92c-.92-.81-2.09-1.27-3.32-1.28-1.42,.02-2.45,.87-2.44,1.82,.02,1.07,1.16,1.43,3.12,1.82,2.2,.44,3.78,1.13,3.8,2.94h0Z" fill="#fff"/>
      </g>
    </g>
  </g>
  <path d="M227.66,151.64c-3.96,0-7.18,3.21-7.18,7.18,0,1.59,.51,3.05,1.39,4.24h0l5.79,10.03,5.79-10.03c.87-1.19,1.39-2.66,1.39-4.24,0-3.96-3.21-7.18-7.18-7.18Zm0,10.47c-1.74,0-3.16-1.41-3.16-3.16s1.41-3.16,3.16-3.16,3.16,1.41,3.16,3.16-1.41,3.16-3.16,3.16Z" fill="#fcf5e3"/>
  <rect x="185.43" y="287.81" width="96.12" height="28.15" rx="13.72" ry="13.72" fill="#e42a29"/>
  <rect x="47.51" y="252.07" width="82.93" height="82.93" fill="#fff"/>
</svg>