<svg xmlns="http://www.w3.org/2000/svg" width="335.7" height="335.9"><defs><linearGradient id="a" x1="0" x2="335" y1="732.1" y2="732.1" gradientTransform="translate(0 -601)" gradientUnits="userSpaceOnUse"><stop offset="0" stop-color="#ee3032"/><stop offset=".4" stop-color="#b92328"/><stop offset=".8" stop-color="#8e1921"/><stop offset="1" stop-color="#7e141f"/></linearGradient></defs><path fill="url(#a)" d="M0 0h335v262.2H0V0Z"/><path fill="#fff" d="M0 322.5h335V335H0v-12.5Z"/><path fill="#fcee23" d="M33.8 172.3h266.7v2.4H33.8v-2.4Z"/><path fill="#292662" d="M110.2 335.7c-3.5-.4-6.8-1.5-10.2-2-3.6-.6-7.2-1.2-10.7-2-.9-.2-2 0-3 0-1.5 0-1.8-.4-1.5-1.8v-.9c0-.4-.2-.8 0-1.1.8-1.5.3-3.2.8-4.8 0-.3 0-.6.3-.9a6 6 0 0 0 1-4.3c0-.5.2-1.2.6-1.4.8-.3.8-.8.7-1.4-.8-3.5-.6-7.1-1.8-10.6-1.4-4.1-3.3-8-4.6-12.2-1.3-4.1-2-8.3-1.9-12.6 0-.7-.5-.7-.6-1.1 1.1-1.5 2.7-2.1 4.4-2.6a86 86 0 0 1 8.8-1.9c.6 0 .9-.4.9-1V270c0-1.1-.3-1.3-1.4-1-2 .5-3.8 1.3-5.7 2.1-1.5.6-3 1-4.4 1.8-2.2 1.3-2.6 1.9-2.4 4.5 0 .4.2.8 0 1.2-.9-.6-.8-1.6-.7-2.5 0-.6 0-.9-.8-.9s-1.4-.7-1.4-1.7-.2-1.7-1.6-1.3c-1.3.5-2.3-.2-2.9-1.4q0-.3.3-.3a3 3 0 0 0 2.9.7H77c.5.1.9.3.6 1-.2.5 0 1.1 0 1.9.6-1.3 1.8-1.6 2.9-2 2.9-1.2 5.9-2.3 8.8-3.6 1.1-.4 2.1-.9 3.3-1 .7 0 .9-.5.8-1.1-.4-1.9-.7-3.9-1.5-5.7a5.1 5.1 0 0 0-1.9-2.2c-2.7-1.9-5.4-3.7-7.8-6l-.9-.8c-1.9-3.1-5-4.9-7.9-6.9-2.2-1.5-4.7-2.7-6.9-4.3-1.5-1.1-3-2.3-4.8-3.2-.3 0-.5-.4-.7-.7-.2-.5-.4-1-1.2-.5-.4.3-.6 0-.7-.5v-1.4c-.7 2.3-2.6 3-4.2 4.1a21.1 21.1 0 0 1-6 3c-.5.2-1 .3-1.4.6a32.6 32.6 0 0 1-11.2 4.3c-2.3.4-4.6 1-6.9.4a29 29 0 0 1-8.4-3.4l-.8-.6c-.3-.3-.6-.6-.4-1s.7-.2 1 0c1.7.4 3.1 1.4 4.7 2 1.9.7 3.6 1.7 5.7 1.6-1.5-.8-2.8-1.7-4.1-2.8-.6-.5-.9-.7-1.5 0-.8 1.1-2.4.8-3.4-.6-.4-.5-.8-.9-1.3-1.2 0 0-.2 0-.3-.2-.8-.8-1.4-1.7-.7-3 .3-.5 0-.9-.4-1.3-.9-.9-1-2-.4-3.2.3-.6 1.3-1.2 0-1.9-1.5 1.1-1.9 2.9-1 4.4l.3.5c.1.4.2.7-.1 1-.4.3-.7 0-.9-.3-.8-.9-1.2-2-1.5-3.2-.1-.4 0-1.2-.7-1.2s-1.6.2-1.9 1.2c-.2.8 0 1.4.4 2 1 1.7 1.2 3.7 2.2 5.4.2.3.2.7-.2.9-.4.2-.5-.2-.6-.5 0 0 .3-.4-.1 0-.8.6-1.2.4-1.4-.5a6.8 6.8 0 0 1-.2-3.5c-.4.6-.2 1.8-1.4 1.1-.4-.2-.5.2-.6.6 0 1.1-.5 1.5-1.6 1.4-.9 0-1.2.3-1 1.1.1.7-.1 1.2-.9 1.2s-.9.3-1 .8c-.3.9-.8 1.5-1.6 2-.6.4-.6.8-.2 1.3l1.7 2.2c.2.3.5.7 0 1s-.6 0-.9-.3c-.6-.4-.8-1.4-1.6-1.2-.6.2-.8 1-1.4 1.5-.7.6-.8 1.7-1.9 1.8v-1.2c.2-.5.4-1 .8-1.5.8-.9 1.4-1.8 1.2-3.1 0-.6.4-1.1 1-1.4.9-.4 1.6-.9 1.6-2s.2-.6.4-.8a3 3 0 0 0 1.2-1.9c.2-.7.8-1.1 1.5-1.1s1-.3 1.2-1c0-.2.1-.4.3-.5 1.5-1 1.7-2.5 1.9-4.2.2-1.5.9-2.1 2.4-2.3.7 0 1-.5 1.3-1 .9-1.7 1.1-3.1-.7-4.4-.9-.6-1-1.8-.9-2.9.2-1.9.9-3.6 1.9-5.2s1.8-3.4 3.5-4.5c.3-.2.3-.5.3-.9-.4-4.3.6-8.4 1.5-12.6l.4-2.1c.3-1.4.2-1.4-1.2-1.2-1.4.2-2.7.5-4-.5-.5-.4-1.2-.2-1.9-.2-2.7 0-4.4-1.3-5.1-3.8l-2.4-8.5a23 23 0 0 1 0-10.1c.8-4.1 1.3-8.2 1.3-12.4s.2-2.7.4-4.1c.1-1.2.1-2.4-.2-3.7-.6-2.2.3-4.1 1.2-6 .5-1 1.2-1.9 2.1-2.8s1.1-1.4.8-2.5c-.4-1.3 0-2.2 1.3-2.9a8 8 0 0 0 2.1-1.5c1.2-1 2.5-1.7 4.2-1.4.7.1 1.3-.2 1.9-.5h1.2c2.3.8 3.1 2.6 3.2 4.9 0 0 0 .3.2.4 1 1.9.4 3.3-1 4.9-1.6 1.9-3.6 3.4-5.5 4.9-2.3 1.8-2.9 4.3-2.7 7 .3 4.1 1.5 8.1 1.7 12.2.1 2 1.2 3.7 1.4 5.7l.2 1.7c1.2-.5 2.4-.7 3.6-1 .6 0 1.1-.5 1.4-1l.5-.7c2.6-3.8 5.6-5 10-3.9h.2c2.3 1.3 3.9 0 5.6-1.4 1.2-.9 1.5-1.8 1.4-3.3a26 26 0 0 1 .2-5.6c0-.3 0-.5-.3-.6a2 2 0 0 1-.6-2.3c.6-1.2 0-2.5.7-3.7v-.3a10.5 10.5 0 0 1 9.7-11.7c1.9-.2 3.9-.2 5.7.4 4.7 1.4 8.6 4.8 8.2 10.3 0 .6.2.8.6 1 1 .5 1.9 1.2 2.6 2.1.6.7 1.1 1.6.6 2.5-.5 1-1.4 1.3-2.4 1.2-.9 0-1.8-.2-2.7-.4-.6-.1-1-.2-.8.7.2 1 0 2.1-.3 3.1-1.1 2.7-1.9 5.4-3.8 7.7.9.4 1.6 1 2.2 1.7.5.7 1.1 1.1 1.9 1.3.9.2 1.8.4 2.1 1.5 0 .3.4 0 .6 0 1.4 0 2.5.6 2.9 2 0 .6.6.5.9.5 6 0 9.8 3.8 13.1 8.1 1.3 1.7 1.8 3.9 3 5.7a13 13 0 0 0 3 3.2c.9-2.1 2.1-3.8 3.3-5.6.4-.6.2-1.4.8-2 1-1 2.3-1.4 3.5-1.8 1.8-.5 3.7-.4 5.6 0 1.5.3 2.8.9 3.6 2.3l.3.3c3.6 2.5 4.9 6.6 6.3 10.4a3 3 0 0 1 0 1.9c-.2 2.2.4 4.2 1.1 6.3.4 1.1 0 2.2 0 3.4s-.3.6-.7.6c-1.2 0-2.2.6-3.3 1a9.8 9.8 0 0 0-3.7 2.7 12.9 12.9 0 0 1-7.5 4.2l-4 .7c-.9 0-1.6 0-2.5-.6a29 29 0 0 1-5.8-5.8c-.8-1-1.6-1.9-3-1.9s-1-.7-1.3-1.3c-.2-.3-.2-.8-.7-.9-1.6-.2-2.5-1.4-3.2-2.6-.5-.7-.8-1.1-1.9-.9-1.6.3-2.9-.5-4.2-1.5-.5-.4-.9-.5-1.4 0-.4.5-1.1.7-1.6 1-.8.3-1.1.9-.9 1.7a6 6 0 0 1-.7 4.7c-.6 1-.3 2.3-.8 3.5-.6 1.4-1.1 2.9-2.3 4l-.4.6a8.4 8.4 0 0 1-1.7 3.4l-.3.6c1 1.1.7 2.7 1.3 4a7 7 0 0 1 .7 5.1c-.5 1.9-2 2.5-3.8 1.7-.3 0-.6-.4-1.1-.3 0 .7.4 1.3 1.2 1.4l.4.3c1.6 2.1 4.1 3.1 6.2 4.6 2.8 2 5.9 3.4 8.8 5.3a18 18 0 0 1 4 3.8c1.2 1.6 2.7 3 4.3 4.2l6 4.1c1.2.8 2.1 1.9 2.6 3.2.6 1.6 1 3.2 1.4 4.8.2.9.2 1.8-.2 2.6-.2.3 0 .7 0 1 .2 2.2.6 4.4.5 6.7 0 1.7.6 3.5.9 5.3.8 5.2.9 10.4 1.4 15.6.4 4.5.3 8.9.7 13.4 0 .9.3 1.7.5 2.6 0 .6.4 1 .9 1.5.6.6 1.2 1.3 1.5 2.1.7 1.7 2.1 2.6 3.6 3.5l2.8 1.7c.4.3.9.6 1.1 1.1.5 1.4 1.6 2 2.9 2.5 2.8 1 5.4 2.2 7.3 4.5.9 1 1.5 2.2 1.5 3.6s-.5 2-1.6 2.3c-1.3.3-2.6.6-3.9.7-1.3.1-2.6.2-3.9 0l-1.1.6Z"/><path fill="#fff" d="m18.8 233.3-.1.4c-.4.9-1.1 1.7.3 2.5.7.4 1.1 1.1.5 2-.4.6-.3 1.1.2 1.6.2.2.6.5.5.9-.3.3-.6 0-.9 0l1.1.8c0-.3-.3-.5-.2-.7.7.2 1.4.4 1.7 1.2l.8.8c1.1.8 1.7.5 2.9-1.4 1.8 1.6 3.7 3.2 6.1 4.3-2.5.4-4.5-.5-6.5-1.3s-3.8-2-6-2.4c0 .5.3.7.6.9a21 21 0 0 0 10 3.9c3.6.2 7.2-.6 10.7-1.8 2.7-1 5.1-2.5 7.7-3.5 2.2-1 4.4-2 6.4-3.4 1.6-1.1 3.5-2 3.7-4.5.6.7.5 1.3.5 1.9s-.2.6 0 .8c.3.2.5 0 .7-.3.4-.6.8-.2.8 0 0 1 .8 1.4 1.5 1.6 1.8.7 3.1 2.1 4.6 3.2l5.5 3.4a75.9 75.9 0 0 1 7.2 5.3 26 26 0 0 0 8.7 7.8c3.3 1.9 4.4 4.8 5 8.2 0 .3 0 .6.2.9.2 1.3 0 1.5-1.2 1.6-1 0-2 .5-2.9.9l-10 4c-.9.4-1.7.9-1.6 2.1-.9-1.1-1.1-2.5-.3-3a5 5 0 0 0-2.9-.3c-1.2.3-1.8-.3-2.4-1-.7-.8-1.7-1.2-2.1-2.2.5-.6 1.3-.6 2.2-.8l-1.8.2c-.6 0-.4.3-.4.6-.2.3-.5 0-.8.2-.2 0-.4 0-.5-.2-3-1.1-6-2-9-3.3l-1.1-.5c-.2-.1-.5-.2-.4-.5 0-.4.5 0 .6-.2.3 0 0-.2 0 0-2.1-.2-4.1-1.2-6.1-1.5-.2 0-.5 0-.5-.4s.3-.5.6-.5c.7-.2 1.3 0 2 0H47c-.5 0-1.1-.2-1.1-.7s.6-.5.9-.6l2.1-.7c-.9 0-1.6.3-2.5.4-.4 0-.9.2-1-.3 0-.4.3-.6.6-.8 2.5-1.6 5.1-3 8-3.8l6.3-1.5c-4.1.7-8.9 1.6-13.1 4.2-.9.6-2 1.1-3 1.5l-.8.2c-.3 0-.6 0-.7-.3 0-.3.2-.5.4-.6 1.6-1.2 3.3-2.1 5-3l1.7-.9-1.8 1c-3 1.6-5.9 3.2-9 4.4-.5.2-1.1.7-1.4 0-.4-.7.4-.9.9-1.2 1.4-.7 2.7-1.7 3.6-2.5-1.2 1.1-3 2.1-4.9 2.7-2.2.7-4.3 1.5-6.5 2-3.6.8-7.2 1.9-10.8 2.8-2.9.8-6 1.1-9 1.5-2.1.3-3.7 1.1-4.8 2.9-.6.9-1.3 1.5-2.4 1.5s-.8.3-.6.9c.2.7-.2 1.2-.8 1.3-.7.2-1.3.8-2.1.6v-2.9c.8-.4.5-.8 0-1.2v-16.3l3.4-4.1c.8.7 1.2 1.8 2.3 2.4 0-.6-.4-.9-.6-1.3l-1.2-1.5q-.9-1.2.3-2c.7-.4 1.2-1 1.4-1.9.2-1.2 1.2-.8 2-1v-.8c-.2-1.2 0-1.6 1.3-1.5.9 0 1.6 0 1.3-1.1 0-.5.2-.9.7-1.1.6-.2.3.6.8.7.4-.3.3-.6.3-1v-1.2c.5.6.7 1 .6 1.7-.1.9 0 1.8.2 2.7 0 .3 0 .9.6.9s.3-.6.6-.8l.5 1c.4 0 .4-.3.3-.5-1-1.9-1.2-4.1-2.5-5.9-.6-.9-.3-1.8 0-2.7.5-1 1.5-.4 2.2-.8.3-.2.4.4.5.7.2 1 .5 1.9.9 2.8.3.6.6 1.2 1.4 1.5.3-.7-.1-1.2-.5-1.6-.8-.8-.8-1.6-.3-2.5l1.1-2.1c.2-.4.4-.5.7 0 .5.7.3 1.5 0 2.2h.3Z"/><path fill="#292662" d="M48.5 255.5c-1.8 1.2-3.8 2.1-5.6 3.6a6 6 0 0 0 2.7-.7c2.6-1.4 5.1-3 8-3.7a39 39 0 0 1 8.3-1.4c-5.7 1.6-11.6 2.5-16.4 6.4 1.5 0 2.9-.7 4.7-.5-1.4.9-2.8 1.2-4.1 1.6.3.4.7.5 1.2.5h6.2c.7 0 1.4 0 2 .5-1.2.3-2.4 0-3.5.5 2.5.5 4.8 1.5 7.1 2h-1c1.5.9 3 1.5 4.6 2 2 .7 4 1.2 5.8 2.4-4.1-.5-7.9-2.1-11.6-3.5a48 48 0 0 0-6.5-1.8c-2-.4-4-.8-5.8-1.7a7.8 7.8 0 0 0-3.3-.9h-.7c-6.2 1.7-12.2 3.9-18.2 6.1-7.7 2.5-14.9 5.8-22.1 9.1v-3.4c.7-.3 1.3-.8 2-.9.8-.1.9-.6.6-1.2-.5-.9-.3-1.2.7-1 1.1.2 1.8-.2 2.3-1.2 1.2-2.2 3.2-3 5.6-3.2 6-.5 11.7-2.4 17.5-3.8 2.2-.5 4.4-1.5 6.6-2 2.6-.6 4.7-2 6.9-3.3.3-.2.5-.4.8-.3-1.6 1.8-3.6 3-5.6 4.3 3.8-1 7-3.1 10.5-4.6.3 0 .3 0 .3.2Z"/><path fill="#4e4777" d="M.3 268.5h.2c.4.2 1 .3.9.8 0 .5-.7.3-1.1.4v-1.2Z"/><path fill="#8a82a2" d="M110.2 335.7h3.9v.2h-3.8v-.2Z"/><path fill="#574f7d" d="M68.9 268.8c.2-.3.5-.2.8-.2.9.5 1.6 1.2 2.1 2.1l-.2.2c-.8-.9-1.4-1.9-2.7-2.2Z"/><path fill="#fff" d="M81.9 199.2c.2 2 0 4-.5 5.9-.3.9 0 1.7 1.1 2.5-1.3-.3-1.9-.9-2.3-1.8l-.8-1.7a12.9 12.9 0 0 0-6.6-7.5c-1.2-.6-2.2-1.5-3.5-2.1-.6-.3-1.3-.6-1.7 0-.4.7.3 1.1.8 1.6.2-.4-.3-.7 0-1.2 4 1.8 7 4.8 9.1 8.8-1.6 0-2.9-.2-4-1.1a7.3 7.3 0 0 0-4.4-1.7c-1.1 0-1.6-.7-1.8-1.7-.2-.7-.4-1.5-1-2-.2.4.4.8 0 1.2a18 18 0 0 0-8.3.5c1 1 2 1 3.1 1 1.7 0 3.4 0 4.9.7.4.2 1 .3 1.1.8 0 .6-.5.9-.9 1-1.1.4-.5.9 0 1.3 1.2 1.4 2.1 2.9 2 4.8-.5 0-.2-.9-.8-.8l-.2.5c0 .2-.3.2-.4 0-.6-1.6-1.6-3-2.7-4.3-1.2-1.4-2.8-2.1-4.4-3.1a5.3 5.3 0 0 0-3.7-.9l.6.3c1.5.6 2.9 1.3 3.9 2.7.6.8 1.5 1.4 2.6 1.5.9 0 1.1 1 1.2 1.7v2c0 .7.4.9 1 .2 0 2.1-.3 3.9-1.1 5.7-.4 1-.4 2.1-.4 3.2s0 2-.8 2.8c-.5-.8-.3-1.6-.3-2.4.2-3.5-1.6-6-4.2-8-1.4-1.1-2.9-1.9-4.4-2.9l-.7-.4c0 .5.5.6.6.9.2.3 0 .6 0 .9v11.1c-.4.6-.8.2-1.1 0-1-.6-2-1.3-2.9-2.2a25 25 0 0 0 6.1 6.9c1.1.9 2.1 2 3 3.1.3.4.7.8 1.2 1a24 24 0 0 0-3.3-10.1c.7.9.4 2.1.6 3.1 0 .4 0 .6-.6.6-.8 0-2.8-1.4-3.1-2.2v-11.1c0-.8.6-.4.9-.2 2.8 2 5 4.4 6 7.8.3 1 .5 2.1 1.4 2.8.4.3.3 1 .7 1.4-.5 1.1-1.2.4-1.9.2-.4 0-.6-.6-1.1-.6-.3 2 1.1 7 2.5 8.8 0-1.1-.5-2-.8-2.9s-.7-1.8-.7-2.8c2 1.8 3.2 8 1.9 9.7-5.6-5.3-11.7-10-17.3-15.3-1.6-1.5-3.1-3.3-4.5-4.9a17 17 0 0 0-3.7-3.4c-.6-.4-.3-.7-.3-1.1.3-3.7 1.6-7.1 2.6-10.7.5-1.9 1.2-3.7 1.6-5.6a9 9 0 0 1 6.6-6.7c2.9-.9 5.8-1.5 8.5-2.8a16 16 0 0 0 7.6-6.9c.4-.8.8-.3.9 0 .3.8.9.9 1.5 1 1 .3 2.1.6 2.4 1.9 0 .5.9.6 1.4.6 5.7.2 9.1 3.8 11.8 8.2 1.9 3.1 4.2 5.9 6.8 8.5.5.5.6 1 .4 1.6 0 .2 0 .5-.4.4-1.2 0-1.7.7-2.1 1.6l-.7 2c-.3 1.3-.6 2.6-1.2 3.9-.2.4-.4.9 0 1.5 2.5-2.2 1.5-6 3.8-8.3-.6 2-.6 3.9 1.5 5.2-2 1.4-3.8 2.8-6 3.7-.7.3-1 0-1.1-.6 0-1.1-.4-2.2-.2-3.3 0-.7 0-1.5-.2-2.3 0-.3-.6-.8.3-1.1.2 0-.3-.8-.9-.8-.3-2.6 0-5.3 0-7.9 0-.8.4-.6.8-.4l1.8 1.2c-2.3-1.7-4.5-4.2-7.3-5.1 1.2.6 2.5 1.8 4 2.7.5.3.8.7.6 1.3v8.4h.3Z"/><path fill="#fff" d="M25.2 226.7c.1-.5.2-1 0-1.5-.3-.6-.3-1.3-.3-2v-43.1c0-.8.1-1.7.3-2.5 1.9-5.2 6.9-7.2 12.5-4.8a7 7 0 0 0-3.3 3.5c-.4.9-.6 1.8-.4 2.8l1.2 5.9c.3 1.2-.4 2.5-.9 3.6l-2.6 4.9a16.2 16.2 0 0 0-2.3 6.8c-.2 2.7-.8 5.4-.8 8.2 0 4.1.2 8.2.6 12.3.4 3.7.6 7.5.8 11.2l.2 2.1a29 29 0 0 1-2.4-4.1c-.3-.6-.6-1.2-1.3-1.5-.2 0-.5-.2-.7 0-.2.3 0 .4.2.6 1.2 1.4 2 3.1 3.4 4.3.5.5.1 1 0 1.4 0 .4-.6.9.2 1.2.7.2 1-.3 1.2-.9 0-.2 0-.4.2-.7.6.6 1 1.2.3 1.9-.2.2-.3.4-.1.7.2.3.5.3.7.2.6-.2.8 0 1.1.4.7.8 1.8.7 2.7.8 2.5 0 5 .2 7.5 0 1.5 0 2.9-.9 4.3-1.4.2 0 .4-.3.9 0-.9.7-1.6 1.4-2.6 1.8-1.3.5-2.7.9-4.2.9s-1.5 0-2.2.3c-1.2.3-2.3.3-3.5-.2-1.3-.5-2.6-.8-4.1-.8s-3.2-.6-4.2-2.3c1.1.2 1.8 1 3.1 1.3a9 9 0 0 0-2.6-2.3c-.7-.3-1.2-.6-1.2-1.5-.1-.2 0-.3.2-.3.4 0 .6.6 1.1.6.2-.4-.2-.7-.4-.9l-2.5-3.3c-.3-.4-.5-.9-.5-1.4s-.2-1.5.3-2.1Z"/><path fill="#fff" d="M37 173.3c.3.8-.3 1.7.3 1.9s.9-.8 1.2-1.4c1-2.1 2.7-3.4 4.9-4.6-.2 1.1-.8 1.7-1.4 2.3-3.8 3.3-3.8 5.9-1.9 11.1a3 3 0 0 1 0 2.6l-6.5 14.6a34.9 34.9 0 0 0-2 10.2c-.2 1.5-.2 3-.1 4.5.2 2 .8 3.9 2.1 5.5.5.7.9 1.4.8 2.2-.4 3.7 1.2 6.9 2.3 10.3.5 1.5 1.1 2.9.8 4.5 0 .3 0 .5-.3.7-.9.3-2.4 0-3-.8-.5-.6-1.2-.9-1.6-1.5l2.1.9c0-.7-.3-1.1-.8-1.4l-1-.5c-1.7-.6-2.3-1.7-2.4-3.5l-1.1-15.3c-.3-4.8-.2-9.7.5-14.5a20 20 0 0 1 2.3-7.4l2.8-5.3a8.4 8.4 0 0 0 .5-6.6c-.8-2.8-.9-5.7 1.3-8.1l.3-.6v.2Zm10.7-14c0-.5-.3-1.1-.2-1.6 0-1.8 1.1-3.1 2.5-4.1l.7-.2c1 0 1.9.2 2.9.3-.3.4-.9.3-1.1.9.8 0 1.5.2 2.1.9l-1.4.6c-.7.3-.7.9 0 1.3.9.6 2.1.5 3.1.7.3-1.2 1.6-.4 2.2-1 .5-.5 1-.5.9.5-.2 1.3.3 2.6.6 3.9.2.7 0 1.3-.5 1.7-.5.4-.8.7.2.6.3 0 .3.6.9.6-.4-.9 0-1.8-.2-2.7 0-.6 0-1.4.4-1.4.9 0 1.9-.4 2.7.3.3.3 0 .8 0 1.3-.7 2.4-1.9 4.6-3.2 6.7-.8 1.3-1.7 2.6-2.5 4.4a2.3 2.3 0 0 0-2.1-1.7 4 4 0 0 0-2.8.9c-.4.4-.6.3-1 0a8 8 0 0 1-1.7-1.5c-.6-.8-1.2-1.7-1.9-2.4a6.6 6.6 0 0 1-2.1-5.7c0-.6 0-.9-.8-1.2a3.6 3.6 0 0 1-2.4-2.9c-.2-1.2.3-2.5 1.3-3.4.3-.2.7-.7 1.3-.3.7.4 1 1.1.9 1.7-.3 1.6.6 3 1 4.4a54.6 54.6 0 0 1 3.5 6.9v.2h.2a87.5 87.5 0 0 1-3-8.6h-.3Z"/><path fill="#fff" d="m36.2 218.5-2.3-1a2.6 2.6 0 0 1-1.5-2.2c0-.4-.2-1 .3-1.2.4-.2.7.2 1.1.3.7.3 1 1.1 1.8 1.3.2-.7-.2-1.1-.5-1.6a13.1 13.1 0 0 1-2.4-5.7c0-.7 0-1.4.2-2.1.4.6.8 1.3 1.7 1.6-.8-1.5-1.7-2.9-1.3-4.6h.4c.4.3.7.7 1.2.3.4-.4.2-.9 0-1.3-.8-1.5-.4-2.9.3-4.3 2-3.9 3.5-8 5.2-12.1.3-.8.5-1.6.3-2.5s.2-1.3 1-1.7c3.6-1.7 7.3-3.3 11.2-4.3 1.1-.3 2.1-.7 3.1-1.2a5 5 0 0 0 2.5-3.2c.2-.6.2-1.4.9-1.5s1.2.5 1.7 1l1.1 1.3c.4.4.5.5.8.3s.6-.3.8 0c.3.3 0 .6-.2.8a16.4 16.4 0 0 1-10.2 7.4l-5.8 1.7a9.9 9.9 0 0 0-6.8 6.5c-1.6 5.1-3.6 10.1-4.4 15.4-.6 4.1-.4 8.2-.3 12.5h.1Zm-11.4 6.2a23.8 23.8 0 0 1-4.1-10.5c-.7-3.5-.3-7 .3-10.5.8-4.1 1.4-8.3 2.3-12.3 0-.6-.1-1.2.1-1.8-.2.4 0 .9-.4 1.3v.4c-.7 0-.6-.6-.6-1v-11.7c0-.4 0-.8.4-1.1l1.5-.6c0 .7-.1 1.3.2 1.8h.1c.7.2.3.7.3 1.1v43.6c0 .4.3.9-.3 1.1l.2.2Zm82.5-16.3c-1.9-1-3.8 0-5.6-.6-2.2-.8-4.5-.5-6.8-.3h-1.3c-.5 0-.9-.2-1.1-.6s.2-.7.4-1l.9-.9c.2-.2.3-.8.8-.5.4.2.5.7.5 1.1s-.4 1 0 1.5c.7 0 1-.6 1-1.1 0-1.4.8-1 1.5-1 2.4 0 4.7.9 7 1.3s4-.5 6.1-1.5c-.7-.4-1.3-.4-1.8-.3-2.6.8-5.2 0-7.7 0-1.8-.2-3.7-.3-5.5-.9-1.6-.5-2.1-1.2-1.7-2.5.4-1.4 2.1-2.6 3.3-2.3 3.7.8 7.3 1.3 11.1 1.4 1.1 0 2.1.5 3 1.1 1 .7.8 1.8.6 2.7-.3 1.5 0 2 1.2 2.9.6.4.2.9 0 1.4-.2.6-.5 1.2.4 1.6l-2.2.3c-.6 0-1.1.3-1.5.7-.6.5-1.4.3-1.6-.5-.3-1.4-.4-1.4-1.5-.5-.2 0-.3.3-.5 0 0 0-.3-.3-.3-.5 0-.3.2-.2.4-.3.3 0 .6-.3 1-.5v-.3Z"/><path fill="#fefefe" d="M38.2 215c1.1 1 1.9 2.1 2.6 3.4a19 19 0 0 0 6.1 6.5c1.8 1.2 3.3 2.6 5 4 .8.6 1.6 1.2 3 1.3-2.1-1.9-4-3.8-6-5.3-3.5-2.5-6-5.9-8.9-9-.7-.8-1.4-1.6-2.5-2-.5-.2-.6-.5-.6-1v-3.4c1.5.9 2.5 1.9 3.3 3.2 2.9 4.2 6.5 7.7 10.2 11.2l9 8.7c-5.7.5-8.5-3.6-12.1-6.6-.2.9.2 1.4.6 1.8 1.7 1.5 3.4 3.1 5.5 4.2 0 0 .2.2 0 .3-.7 0-1.4-.3-2.1 0-.3 0-.5 0-.8-.2-1.6-2.2-4.1-3.3-6.1-5-2-1.6-4-3.2-6.2-4.5q-1.3-.8-1.1-2.6c1.6 1.5 3.3 2.8 5.2 3.7-1.5-1.6-3.1-3.2-4.5-5-.5-.8-.4-1.7-.3-2.6 0-.3 0-.7.5-.7l.2-.4Z"/><path fill="#fff" d="M12.1 145c.7.9 1 2 1.4 3 .4 1.1.3 2.2-.7 3-.9.7-.8 1.7-.8 2.6v1.5c.5 0 .6-.7 1.2-.6.3 1.1 0 2.1-.3 3.1-.7 2.1-1.1 4.2-1.2 6.3-.2 3.7-1.1 7.3-2 10.9-.6 2.6-.8 5.2 0 7.8.6 1.9 1 3.9-.3 5.9-1.4-4.4-3.2-8.6-2.1-13.4a99.8 99.8 0 0 0 2.1-17.2c.1-2.1.4-4.1 0-6.2-.3-1.5.3-3.2 1.2-4.5l1.7-2.3h-.2Zm4 36.5c.8-1.7 2.6-2.2 4-3.1.7-.5 1.6-.6 2.5-.8.2.5.1 1 .1 1.5v11.3c0 .4.3.9-.3 1.1l-1.6-3.4c-.2.9.1 1.5.4 2 .5 1.3.9 2.6.8 4.1 0 .7-.3.8-.9.9-1.3.3-2.1-.2-2.8-1.2-1-1.4-1.8-2.8-2.6-4.3-.3-.6-.3-1.3-.2-1.9 0-.8 0-1.5-.2-2.3-1.2-1.3-.8-2.9 1-4.1l-.2.2Z"/><path fill="#fefeff" d="M25.2 226.7v2.6c-.5 0-.7-.4-.9-.7-.7-1.2-1.4-2.3-1.6-3.2.4 1.1.8 2.7 1.7 4.2.3.6.8 1.1.9 1.8 0 .3 0 .5-.3.7-1.5-1.1-3.4-1.8-4.9-2.9a16.2 16.2 0 0 1-4.7-4.7 3.7 3.7 0 0 1-.1-3.4c.8-2.2 2.1-4.2 3.3-6.2.3-.4.8-1.1 1.2-.8.4.3.7 1.2.1 1.7-1.9 2-1.8 4.2-.4 6.4.3.5.4 1.1 1 1.6-.3-2.4-2.1-4.7 0-7.1.5 3.4 2.5 6.2 3.7 9.2.1.4.2 1 .9.7Z"/><path fill="#fefefe" d="m79 278.7-.3-1.8c-.2-2.1.6-3.1 2.5-4.1 3.5-1.7 7.1-2.8 10.8-4.1.9-.3 1.3-.2 1.3.9v4.3c0 .5 0 .6-.6.7a52 52 0 0 0-10.4 2.2 8.5 8.5 0 0 0-3.4 2Z"/><path fill="#fff" d="M96.7 194.4c.2-.7.7-.8 1.3-.7 2.5.4 4.9-.2 7.4 0 1.3 0 2.7 0 3.8 1.1a9 9 0 0 1 2.9 5.7c-2.1-1-4.2-1.5-6.4-2.1-1.6-.5-3.2 0-4.8 0h-2.3c-.7 0-1.3-.3-.7-1.2.3-.5.4-1 0-1.8l-.6 2c-.2.9-.5.6-.8 0-.2-1 .2-2.1 0-3.1Z"/><path fill="#fefefe" d="M53.5 232.1c.5 0 .9.2 1.5.4-1.2.7-1.9 1.6-2.8 2.4-1.2 1.1-2.6 1.1-4.1.5-2.3-.8-4.5-1.7-6.9-1.8-.6 0-1.3 0-2 .3 0-1.6.3-3.2-.3-4.7 2.5 1.4 5.6.7 8.2 2.5-.7-1.9-2.2-2.4-3.6-3.1l-4.4-1.9c-1-.5-1.5-1-1.5-2.1s0-.7-.2-1.2c1.9 2.9 5.1 3.7 7.7 5.3 1.6 1 3.6 1.5 4.6 3.5-.9.3-1.9-.2-3 0a3 3 0 0 0 1.8 1.2c1.7.3 3.3 0 4.9-.7.3 0 0-.3 0-.4Zm.8-55.9-4.9 1.3c-.3 0-.7.3-1 0-.8-.6-1.7-.7-2.6-.8-2.5-.4-4-1.6-2.8-4.7l.3-1c.4.8 0 1.5 0 2.1s-.3.9.2 1c.5 0 .6-.5.7-.9a3 3 0 0 0 0-2.1c-.4-2.5-.5-5.1-.3-7.6 0-1 0-2.2 1.6-1.7-1 2-.8 3.8.7 5.6l1.6 2.1c1.1 1 1.1 2.2.7 3.5l-.2.8c-.2 1.5.4 2.1 1.9 1.9.8 0 1.5 0 2.2-.4 1-.4 1.4 0 1.7.9Z"/><path fill="#fff" d="M14.9 140.1c0-2.2 3.2-3.7 5.5-2.9.6.2.7 1.1 1.5 1.2.6 0 1.3.2 1.8.8-1.5.9-1.6 1.4-.5 2.7.4.5.5 1 .3 1.5-.5 1-1.4 1.8-2.6 1.9-1.6.2-3.3.8-4.4-.9-.5-.8-.9-1.6-1.6-2.2-.5-.7-.4-1.5 0-2.2Z"/><path fill="#fefefe" d="M110.7 194.6c-1-.8-1.9-.8-2.7-1.8-.7-.9-2.3-.8-3.6-.4l-1.7.5c-1.1 0-2.3.7-2.7-1.2-.2-.8-1.1-1.4-1.9-2.4 0 .9.5 1.3.8 1.7s.6.9.6 1.4 0 .6-.3.8c-.4.2-.6 0-.8-.3-.8-.7-1.6-1.4-1.6-2.7s.7-2.2 1.9-2.1c2.7.2 5.3.4 7.9 1 .6 0 .9.6 1.3 1 1.2 1.2 1.8 2.7 2.8 4.4Zm-18 125.6c0-2.8 1-4.5 3.2-5.1.7-.2 1.5 0 2.2-.3.2 0 .3 0 .4.2.4.8.9 1.7 1.6 2.4s0 .6-.2 1a10.5 10.5 0 0 1-4.2 3l-1.9.8c-.9.5-1.1.2-1.1-.7v-1.2Z"/><path fill="#fcfcfd" d="m100 325.8 4.4 2v.3a11 11 0 0 0-6.9 2.8c-.5.4-1.1.3-1.6.2-.4 0-.7-.3-.4-.8.6-1.1 0-1.8-.9-2.2l-4.3-2.4-1.2-.8c-.2-.2-.8-.3-.3-.8.4-.4.5 0 .8.2 2.9 1.4 5.8 3.1 9.1 3.2q1.6 0 1.4-1.7Z"/><path fill="#fbfbfc" d="M90.5 202.1c-1.4-1.4-1.4-2.7-.8-4.4.5-1.2.7-2.6 1.3-3.8.5-1.1.8-2.2 1.6-3l-2.1 5.3c1.5-.5 2.6-1.1 3.9-1.1s.8-.4.9.2c0 .5.2 1-.5 1.3l-2 1.1c-1.9 1.1-2.5 2.2-2.3 4.4Z"/><path fill="#fcfcfd" d="M22.1 240.6c.1-.3.1-.5.3-.7a18 18 0 0 0 1.8-3.7c.4-1.1 1.1-.7 1.8-.4.8.4.9.9.5 1.7a27 27 0 0 0-1.9 3.8c-.2.5 0 1.4-1.1 1.1-1-.3-1.2-1-1.4-1.8Z"/><path fill="#fbfbfc" d="M92.6 203.7c-2.1 3.4-5.1 4.7-8.5 5.6-.4 0-.4-.2-.6-.4-.3-.4 0-.6.3-.7l3.5-1.9a9.6 9.6 0 0 0 2.9-2.4c.7-.9 1.5 0 2.4-.2Z"/><path fill="#fafafb" d="M14.7 186.7c-.7 1.9-.2 3.6 1 5.1.9 1.1 1.4 2.5 2.5 3.6-.9 0-1.4-.3-1.9-.9a34.6 34.6 0 0 1-3.2-5.2 4 4 0 0 1-.1-3.7c.5-1.3.7-2.7 1.9-3.6-.7 1.5 0 3.1-.2 4.6Z"/><path fill="#fdfcfd" d="M94.7 214.7c0-.6.3-1 .8-1.4.8-.6 1.7-1.2 2.2-2.2 0-.2.2-.3.5-.2.9.5 1.7 0 2.5-.2s.8-.2 1.2 0c.4.2.7.7.2 1-2.2 1.5-4.4 3.3-7.3 2.9Z"/><path fill="#f7f6f8" d="M52.6 142.6c4-.6 7.6.4 10.6 3.3 1.9 1.8 2.6 4 2.3 6.7-.6 0-.9-.3-1-1 0-.8-.4-1.5-.6-2.3a8.8 8.8 0 0 0-5.4-5.6c-1.9-.8-3.8-1-5.8-.9h-.1Z"/><path fill="#faf9fb" d="M100.5 332.2c1.3-.3 2.7-.4 3.9.1 3 1.3 6.1 1.5 9.3 1.4.2 0 .6-.3.7 0 .2.4 0 .7-.4.9-.6.5-1.4.4-2.1.2-1.5-.3-3-.3-4.5-.5-1.1-.2-2.2-.5-3.3-1-1.2-.5-2.3-1.2-3.7-1.2Z"/><path fill="#edecf0" d="M49.8 151.2c3.5 0 6.8-.3 10.1.3s6.1 2.3 8.7 4.4c.7.5 1.2 1.2.9 2.5-.6-1.8-1.9-2.7-3.3-3.5-2.7-1.5-5.4-3.2-8.7-3h-6.2c-.5 0-1 0-1.6-.5v-.2Z"/><path fill="#faf9fb" d="M24.2 235c-.7 1.9-2.7 3.1-2.8 5.4-1.5-.3-2-1.2-1-2.6.6-1 1.3-1.9 1.7-3 .3-.7.6-1 1.2-.3l.9.6Z"/><path fill="#b3aec3" d="M24.8 224.6c.3-.4.2-.8.2-1.3v-43.5c0-.4.2-.9-.2-1.2 0-.4.1-.7.4-1v47.6l-.4-.6Z"/><path fill="#edecf0" d="M18.3 178.4c.2-3.2-1.1-6.1-1.6-9-.4-2.5-.4-5-.5-7.5.7 2.8 1.3 5.6 1.4 8.5 0 1.6.7 3 1.1 4.5.2.8.4 1.6.4 2.4s0 .9-.8 1.2Z"/><path fill="#f8f7f9" d="M25 234.4c-3.2-.6-4.9-3.1-6.7-5.4 2.5 1.2 4.7 2.8 6.8 4.6.2.2.2.5 0 .7Z"/><path fill="#f8f8fa" d="M100.6 318.4s.2 0 .3.2c1.5 1.2 3.2 2 4.9 3l1 .7c.3.3.5.4.3.7s-.5.1-.8 0l-2.8-1.4c-1-.6-2.1-.9-3.2-1.3-.3-.1-1 0-.9-.5 0-.6.6-.9 1.1-1.2v-.2Z"/><path fill="#f8f7f9" d="M118.5 331.3c0 .5-.3.5-.7.4-.9-.2-1.5-.8-2-1.5-.8-1-1.7-1.7-3.1-1.7s-.6-.1-.8-.4c-.3-.3-.8-.7-.5-1.1.3-.5.7 0 1.1 0a12 12 0 0 1 5.8 3.9l.3.4h-.1Z"/><path fill="#f6f5f7" d="M38.4 232.1c-2.2-1.1-2.2-3.4-3-5.2 0-.2 0-.6.3-.5.7.2 1.7 0 1.8 1.2 0 1.5 1.1 2.8.9 4.4Z"/><path fill="#f3f2f5" d="M91.1 323.8c-1-.5-1.4-1-1.7-1.7-.4-.9-.6-1.8-1.6-2.2-.4-.2-.4-2.2-.2-2.5.2-.3.4-.1.6 0 .6.2.9.6 1 1.1l1.9 5.4Z"/><path fill="#fafafb" d="M104.5 187.4c-2.6.4-5.3-.7-7.7 1-.7-1.3-.3-2.1 1.3-2.1s3.8 0 5.6.7c.3 0 .7 0 .8.5Z"/><path fill="#f6f5f8" d="M104.4 210.3c-.8-.2-1.3-.9-2.3 0-1.2.9-4.4-.3-5.1-1.8 2.2 0 4.4.6 6.6.6s.5.8.8 1.3Z"/><path fill="#f2f0f4" d="M91.7 331.3c-.7.2-1.1 0-1.4 0-1-.3-1.9-.6-2.9 0-.4.2-.9 0-1.4 0s-.8-.2-.5-.8c.4-.7-.3-1.5 0-2.4 1.8 1.6 4.1 2.1 6.4 3.4v-.2Z"/><path fill="#363168" d="M47.8 159.3c.5.4.6 1 .8 1.6l2.1 5.8c0 .4.4.9.2 1.5-.9-2.4-2.6-4.4-3.2-6.9.4-.6 0-1.3.2-2Z"/><path fill="#f9f9fa" d="M50.2 237c-.4 1.9-.5 3.7-2.8 3.9 0-1.6.8-2.7 2.8-3.9Z"/><path fill="#f9f8fa" d="M17.2 228.8c.8 1 1.1 1.9 0 2.8-.5.4-.7 1.2-1 1.9-.6-.8-.3-2.5 1-4.7Z"/><path fill="#edecf0" d="M15.7 144.5c-.5-.4-1-.5-1.5-.4-.6.1-.9.4-.7 1.1l.5 2c-.9-.9-1.1-1.8-1.4-2.8-.2-.7.5-1 1-1.3.6-.3 1.2 0 1.6.4.2.2.4.6.4 1Z"/><path fill="#efeef2" d="M40.8 235.6c1.5.2 3.1.2 4.6.8-1.8 1-3.4 1.4-4.6-.8Z"/><path fill="#d4d1dc" d="M38.2 215c-.4 1.1 0 2.2-.2 3.3-1.4-1.1-1.1-2.6-1.1-4.2.6.2.9.6 1.3.9Z"/><path fill="#b3adc3" d="M22.4 191.5c.4-.4.2-.8.2-1.2v-12.7s.1-.2.3-.2v13.1c0 .3 0 .6.2.8l-.3 1.1c-.4-.2-.4-.6-.4-.9Z"/><path fill="#eae8ee" d="M52.6 142.6v.2c-2.5.5-4.4 2.3-6.6 3.4a9 9 0 0 1 6.6-3.6Z"/><path fill="#f1f0f3" d="M50.1 239.9c0-.8.4-1.5.3-2.3 0-.5.2-.7.6-.7s.8-.3 1 0c.3.3 0 .7 0 1-.4.8-.5 1.9-1.8 2.1Z"/><path fill="#ebe9ee" d="M36.6 222.2c-.8-.8-1.7-1.2-2.1-2 0-.3-.4-.8.2-.8s1.3-.7 1.6.3c.2.7.2 1.6.3 2.6Z"/><path fill="#f4f3f6" d="M24.7 138.7c-.6-.7-1.1-1-1.9-.9h-.5c-.5-.2-.9-.7-.8-1.2 0-.5.8-.3 1.1-.2 1.1.3 2 .7 2.1 2.3Z"/><path fill="#e5e2e9" d="M35.7 240.5c-1.9 2.7-2.1 3.8-.7 4.6-.4.4-1.1.5-1.4.2-.4-.3-.4-1.1-.2-1.6.3-1.2 1.1-2.3 1.8-3.3h.5Z"/><path fill="#e7e5eb" d="M17 145.5c.8.8 1.5.9 2.3.8l2.3-.2c-.9 1-3.6 1.3-4.6.5-.4-.3 0-.6 0-1.1Z"/><path fill="#f2f0f4" d="M54.6 237.3c.4-.9-.2-2.1.7-2.9.2-.2.4-.6.8-.4.2 0 .2.5 0 .8-.4.9-.7 1.9-1.6 2.4Z"/><path fill="#edebf0" d="M38.2 244.5c.7-1 1.5-1.9 1.8-3.1 0-.5.5-.5.8-.4.4.2 0 .5 0 .7-.5.7-.7 1.7-1.4 2.3-.3.3-.6.8-1.2.5Z"/><path fill="#e9e7ed" d="M25 144.1c-.2-1.5 0-2.9-1.3-3.7-.2 0 0-.3.1-.4.3-.2.6 0 .8.2.8.7 1 2.6.4 4Z"/><path fill="#ebe9ee" d="M93.7 189c.2-1 .3-1.9 1.2-2.3.3 0 .7-.5.8.2 0 .4.5 1-.3 1.2-.7 0-1.1.6-1.7 1Z"/><path fill="#bfbacc" d="M66.5 208.3h.4a14 14 0 0 1-1.1 7.2c0-2.5 1.4-4.8.7-7.2Z"/><path fill="#534c7a" d="M14.7 186.7c0-.8 0-1.5-.3-2.2-.5-1 .4-1.6.5-2.4.2-.5.3-1.4 1.2-.6 0 0 0 .3-.2.4-1.3 1-1.4 2.3-.8 3.7-.3.3 0 .9-.4 1.2Z"/><path fill="#dbd8e1" d="M37 225.4c-.6-.4-1-.9-1.2-1.5 0-.3-.4-.7.2-.8.4 0 .9 0 .9.6s0 1.1.2 1.7H37Z"/><path fill="#b3adc3" d="M81.9 199.2v-8.9c.2 0 .3 0 .2.3v8.4l-.2.3Z"/><path fill="#a49eb7" d="M96.7 194.4c.4 1 .5 2.1 0 3.1-.8-1 0-2.1 0-3.1Z"/><path fill="#e2dfe7" d="M56.2 236.4c.4-.8.7-1.5.3-2.3-.2-.5.2-.4.4-.5.2 0 .4-.2.6.2.2.5-.6 2.3-1.3 2.6Z"/><path fill="#685f89" d="M14.9 140.1v2.2l-.3.3c-.4-.3-.5-.8-.4-1.3 0-.4-.1-1.2.7-1.2Z"/><path fill="#dfdce4" d="M14.4 139.1c-.3 1-.8 1.7-1.4 2.4-.4-1-.2-1.4 1.4-2.4Z"/><path fill="#c5c0d1" d="M25 232.1v-.7a4 4 0 0 1 2.1 2.7l-.2.2-1.9-2.1Z"/><path fill="#bcb7ca" d="M18.8 233.3v-2.2c1.3.7.7 1.4 0 2.2Z"/><path fill="#dedce4" d="M61.5 159.1c0 .3 0 .6-.4.5-.4 0-.6-.4-.7-.7 0-.4.2-.5.5-.5s.8 0 .6.6Z"/><path fill="#c3bfcf" d="M25 234.4v-.7c.7.2 1.2.6 1.9 1.3-.8 0-1.4-.2-1.9-.5Z"/><path fill="#cfcbd8" d="m39 236.5 1.1.8c-.4.4-.9.5-1.2.3-.4-.2 0-.6.1-1.1Z"/><path fill="#aba4bc" d="M53.4 156.6c.6 0 1.1 0 1.3.5v.3c-.6 0-.9-.3-1.2-.8Z"/><path fill="#a9a2bb" d="M112.9 204.7c0 .5.3.9-.2 1.1-.2 0-.5 0-.5-.4 0-.6.5-.3.7-.7Z"/><path fill="#746b91" d="M23.1 190.8c-.1-.5.2-1 .3-1.5.1.7.3 1.3 0 2l-.3-.5Z"/><path fill="#efedf1" d="M56.5 175.2c-.3-.9.2-1.1.9-1.1a2 2 0 0 1-.9 1.1Z"/><path fill="#b9b4c7" d="M38.1 234.5c-.3-.6-.6-.9-.4-1.3h.3c.5.3.2.7 0 1.4Z"/><path fill="#bbb5c9" d="M15.6 144.5c.6.3.9.6.6 1.4-.4-.4-.7-.8-.6-1.4Z"/><path fill="#2c2863" d="M37.1 258.3c0-.7.6-1.2 1.2-1.5a41 41 0 0 0 10.2-7.9c1.4-1.5 3.2-2.5 5.1-3.5v.3c-3.3 2.2-5.9 5.2-8.7 7.9-2.1 2-4.7 3.2-7 4.7-.2 0-.4.2-.7 0Z"/><path fill="#2b2863" d="M12.6 244.8c.4 0 .7 0 1 .2 2.1 1.3 4.4 1.5 6.8 1.5s3.9.4 5.6 1.4c.4.2.7.5.9.9-4.9 0-11.4-1.8-14.3-4.1Z"/><path fill="#2c2863" d="M51.9 240.9c-2.3 1.9-5 3.2-7.5 4.8-2.4 1.5-5 2.5-7.4 4.1-.3.2-.6.5-.9 0-.4-.5 0-.7.4-.9 1.1-1 2.4-1.5 3.7-2.1 4-1.8 7.8-4 11.6-6.1.3 0 .3 0 .2.2h-.1Zm-22.1 10.4c0 .6-.4.5-.7.5a27 27 0 0 1-9.4-.3c-.5 0-1-.3-1.5-1 4 .9 7.8 0 11.6.8Z"/><path fill="#2c2963" d="M47.8 247.6a19.8 19.8 0 0 1-6.1 5.8c-1.3.7-2.5 1.7-3.9 2.4-.2 0-.5.4-.7 0-.2-.3 0-.5.2-.8.5-.9 1.3-1.3 2.1-1.7 3.3-1.3 5.9-3.5 8.4-5.8Z"/><path fill="#2e2b65" d="M48.7 245.4a29.1 29.1 0 0 1-12.1 8.4c4-2.8 8.6-4.9 12.1-8.4Z"/><path fill="#2d2a64" d="M14.6 235.9c1.2 2.1 3 3.6 4.6 5.5a5.8 5.8 0 0 1-4.6-5.5Z"/><path fill="#302c65" d="M33.2 254.6h-.9c-.5 0-1.3.2-1.4-.3 0-.7.8-.7 1.4-.8 1-.2 1.9-.5 2.9 0 .2 0 .5-.2.6.2 0 .3-.2.5-.4.7-.8.4-1.6.3-2.2.3Z"/><path fill="#353068" d="M50.3 243.4c-2 2.3-4.8 3.6-7.4 5.1l-.2-.3 7.2-4.8h.4Z"/><path fill="#302c65" d="M16 241.2c2.6.5 3.9 1.6 4.2 3.4-1.5-1-3-1.8-4.2-3.4Z"/><path fill="#343068" d="M29.8 251.4c.9-1.6 2.1-2.1 4.4-1.4-1.6.8-2.9 1.5-4.4 1.4Z"/><path fill="#363169" d="M14.1 247a11 11 0 0 1-5-2.9 12 12 0 0 1 5 2.9Z"/><path fill="#474173" d="M71.3 269.2c1.3-.3 2.3.2 3.5 0-.9 1-2 1-3.5 0Z"/><path fill="#3b366b" d="M69.7 268.6c0-.4-.7-.1-.6-.6 0-.3.5-.4.8-.4l2.2.1-2.4.8Z"/><path fill="#3f396e" d="M20.2 240.7c.1.5.8.6.9 1.3-1.2-.2-1.7-1.1-2.6-1.9.8 0 1.1.7 1.7.7Z"/><path fill="#353068" d="M33.7 252c0-.8.3-1.2 1-1.4.2 0 .3 0 .3.3-.2.6-.5 1-1.2 1.2Z"/><path fill="#4e4777" d="m48.5 255.5-.3-.2c.7-.5 1.5-.9 2.4-1.1-.6.7-1.4 1-2.1 1.4Z"/><path fill="#615984" d="M50.3 243.4h-.4c.5-.8 1.3-1.1 2.2-1.3l-1.8 1.3Z"/><path fill="#514a79" d="M17 243.4c.8 0 1.4.5 1.9 1.2-.8 0-1.4-.6-1.9-1.2Z"/><path fill="#665e87" d="m51.9 240.9-.2-.2c.6-.6 1.4-.8 2.2-1l-2 1.2Z"/><path fill="#2a2662" d="M54.1 219.8c1 .7 2.1 1.2 3.3 1.8-.2-1.6 0-3.2-1.1-4.5.4-.2.5 0 .7.3 1.8 2.8 3.2 5.7 3.3 9.1 0 .8.8 1.3.7 2.2-.9-.3-1.5-.7-2-1.4-1.3-1.8-3.1-3.1-4.7-4.6-2-1.8-3.8-3.8-4.9-6.4 1.5 1 2.7 2.2 4.3 3 .2 0 .3.3.5.4Z"/><path fill="#2a2762" d="M62.9 220c-.7-1-1.9-1.6-2.1-2.8-.6-3.4-2.5-6-5.1-8.1l-1.7-1.3c0-.2-.4-.4-.2-.7 0-.3-.5-.7.2-.8l4.5 3c2.8 2.1 4.7 4.7 4.3 8.4v2.4Z"/><path fill="#2b2863" d="M42.8 189.7a8 8 0 0 1 4.9-3.6c4.6-1.4 9.2-2.4 14.1-2.4s1.8 0 2.7.3a49.7 49.7 0 0 0-21.7 5.7Z"/><path fill="#302c65" d="m82.1 190.5-.2-.3a70.2 70.2 0 0 0-5.6-3.9c2.1-.2 6.7 3.4 9.6 6.6l-3.8-2.4Z"/><path fill="#2f2b65" d="M63.9 209.7c-1 .9-.2 2-.3 3 0 0 0 .3-.2.4-.2 0-.4 0-.4-.3a11 11 0 0 0-1.6-3.7c-.2-.3.5-1.1.9-1 .3 0 .6 1.1 1 0l.2.2.5 1.3h-.1Z"/><path fill="#b2acc2" d="m54.1 219.8-.5-.4c.4-.4.2-.8.2-1.2v-9.1c0-.4-.2-.9.3-1.2v12Z"/><path fill="#bbb5c9" d="M54 206.4c-.6 0 .4.6-.2.8h-.2c-.4-.3-1-.5-.5-1.1.4-.5.7.2 1 .4Z"/><path fill="#2c2963" d="m27.1 234-2.1-2.7c-1.1-2.1-2.4-4.2-2.7-7 1.2 1.8 1.7 3.6 2.9 5 .7 1.5 1.9 2.6 2.9 3.9l.3.4c.3.4.7 1 .3 1.4-.5.4-.8-.2-1.1-.5-.2 0-.3-.3-.4-.4Z"/><path fill="#322e67" d="m32 231.7 2.5 1.1c.4 0 .7.5 1 .8.2.2.2.6 0 .9-.3.4-.6 0-.8-.2-.8-.9-2.1-1.4-2.7-2.6Z"/><path fill="#3b366c" d="M44.2 157.4c.2-.7 1.3-1.1.8-2.1.7.6.8 1.3.4 2.1 0 .3-.4.6-.3 1 0 .3.6.8 0 1-.5.2-.9-.2-1-.7-.2-.4-.2-.8 0-1.3Zm8.5 5.9c.7-1.7 2.5-1.4 3.3-2.5.4.4-.5 1.1.4 1.2.4 0 .9 0 1.1.7-.8-.3-1.6.4-2.2-.6 0-.2-.8.3-1.3.5l-1.3.8Z"/><path fill="#373269" d="M55 168.9c1.1-.3 1.9 0 2.6.5.3.2.5.6.2 1s-.5 0-.8 0l-2.1-1.3Z"/><path fill="#38336a" d="M56.4 166.1c-1 0-2-.6-3-.2-.2 0-.6-.1-.6-.4s.3-.4.6-.5c1.1-.2 2.1.3 3.1.8v.2Z"/><path fill="#4d4777" d="M44.2 157.4v1.3c-.9.3-1-.3-.9-.9 0-.8.5-1.4 1.1-2.2 0 1.1-.9 1.8-.5 2.8l.4-1Z"/><path fill="#5e5682" d="M56.4 166.1v-.3c1.3.2 2.5.6 3.3 1.7-1-.7-2.1-1.1-3.3-1.5Z"/><path fill="#4e4777" d="M59.3 162.9c-.4.2-.7.6-1.2.4-.2 0-.2-.3 0-.4.4-.3.8-.6 1.2 0Z"/><path fill="#474072" d="M96.7 200c-.7.7-.6 1.5-.4 2.3 0 .3 0 .7-.4.8-.4 0-.6-.3-.6-.6 0-1.1 0-2 1.3-2.4Z"/><path fill="#3d386d" d="M80.2 274.3c2.2-1.7 4.8-2.2 7.4-2.6-2.4 1.2-5.1 1.2-7.4 2.6Z"/><path fill="#4a4374" d="M83.9 274.4c-1.2.8-2.6 1.1-4.3 1.4 1.3-1.3 2.9-1 4.3-1.4Z"/><path fill="#312d66" d="M98.9 328.3c-.2.6-.6.7-.9.9-.2.1-.5.6-.8.3-.3-.4-.7-.8-.8-1.2 0-.3.3-.3.5-.3l2 .3Z"/><path fill="#292562" d="M0 262.2h335v60.3H0v-60.3Z"/><path fill="#fff" d="m316.1 280 .5-.2-.4 2.7c0 .7.4 1 .3 1.3l-.1.2 1.4-.3c.3-.3.6-.5.6-.3h.4c-.2 0-.3-.1-.5-.3-.2-.7-.3-1.5 0-2.2 0-.9.3-1.8.7-2.7.3-.4.9-.5.9.2s-.6 2.8-.6 3.7l.1 1.1h1.7c-.3 0-.5-.6-.6-1.1-.3-.8-.3-1.7 0-2.6.6-1.3 1.4-2.5 2.4-3.6.5-.4.4.6.3 1.3 0 .8-.8 2.2-.9 3.1-.2.9.5 1.9.3 2.4l-.1.2 1.5.3h.7c-.2-.8-.3-1.7-.3-2.5-.1-.7 0-1.4.2-2 .2-.7.6-1.3 1.1-1.8.6-.5 2.1-1.3 2.2-1 0 .3-1.3 1.3-1.7 2.4-.4 1.1-.6 2.3-.7 3.5v1.5h.7c.6 0 1 .7 1.5.8h.4c-.2-1.1-.3-2.3-.2-3.4 0-.9.4-1.8.9-2.6.3-.7.8-1.4 1.5-1.8.2 0-.2.9-.3 2.1l-.3 5c0 .5-.1.7-.2.7l1.5.4.9.3c-.2-1-.3-2-.1-3 0-1.4.4-2.8.9-4.1.5-.7 1.2-.6 1.4 0 .2.6-.4 1.8-.5 2.8v3.4c0 .8.2 1 0 1.2h.4v.2c-.1.2-.3.3-.6.3l-1.1-.4h-.2c-.5.9-2.4 3.3-3.1 4.6-.8 1.2-.9 1.5-1.3 2.3-.5.8-.3-1.1-.3-1.6s-.7-.5-.3-1.2a10 10 0 0 1 4.1-4.2h-.2l-1.8-.7h-1.1l-.9.9c-.6.6-1.1 1.3-1.5 2-.7.9-1.7 3.2-2.1 3.6-.4.3-.4-1-.4-1.6s.2-1.3.6-1.8c.6-.8 1.2-1.5 2-2.2.5-.5 1.1-.8 1.7-1-.5-.2-1.1-.6-1.6-.7l-.8-.1h-.7c-.4.6-1.5 1.7-2 2.7-.7 1.1-1.2 3.3-1.6 3.9-.4.5-.4-.6-.4-.9-.2-.5-.2-1.1 0-1.6.3-.8.7-1.5 1.2-2.2.6-.7 1.3-1.4 2.2-1.8l.2-.1-1-.2-.4.2h-1.1l-.3.8-1.3 2.2c-.6.9-1.4 3.1-1.8 3.4-.4.2-.5-1.4-.5-2.1s.4-1 .9-1.6c.5-.8 1.1-1.6 1.8-2.3s.4-.3.6-.4h-.3c-.5-.1-.9-.2-1.4 0l-.4.2-1.4 1.9a4 4 0 0 0-.9 2.1c-.2.7-.3 2.1-.5 2.4-.2.2-.6-.6-.7-.9-.3-.4-.3-1 0-1.4.2-.7.5-1.4.9-2s.9-1.1 1.5-1.4l.3-.3h-.3c-.3.1-.6.1-.8 0-.2.2-.5.3-.8.3-.3-.5-.4-1.1-.4-1.7s0-1 .2-1.5a24 24 0 0 0-1.3 2.1v.4l.2 1.6.5-.2c.3-.3.9-.6.9-.3-.5.5-.9 1-1.2 1.6l-.8 2.8-.4 1.8c-.2.2-.3-.4-.4-.8-.3-.6-.3-1.3-.2-1.9a8.8 8.8 0 0 1 1.2-2.5l-.5.2c-.2 0-.4-.3-.5-.7l-1 2 .1.3.4-.4c.3-.5.8-.8 1.2-1.1l-1.4 1.7h-.1v.2l-1 1.1-.3.7-.2.3c-.6 1.3-1.1 2.7-1.5 4.1l.2 1c0 .2-.4.3-.6 0a55.3 55.3 0 0 0 2.4 39.8h24.1v-47.2l-1.4 1.6c-.6 1-1.5 3.3-2 3.7-.5.3-.4-1-.4-1.6s.2-1.3.6-1.8c.5-.8 1.2-1.6 1.9-2.3l1.3-.8v-23.2c-7.6 4-14 9.6-18.9 16.5h-.7Z"/><path fill="#292562" d="M305.8 312.1a54 54 0 0 0 5 22.9h-.9a54.4 54.4 0 0 1-2.1-42.2v.2c0 .7.1 1.5.4 2.2h.1a56.5 56.5 0 0 0-2.6 17h.1Zm4.3-23.1.1.2.8-.9.2-.5c-.2 0-.3-.1-.4-.3l-.2-1.1-1 2.1.4-.4v.9h.1Zm-.9 1.4-.1-.8v-.2l-.7 1.8c.3-.4.8-1 .8-.8Zm2.2-4c0 .2 0 .5.2.7l1-2-.2-.5-.1-1.4-.8 1.4-.2 1.8h.1Zm1.6-4.4.9-.4-.1 1.2 1.3-2.1.2-.5.6-.7a54.6 54.6 0 0 1 18.9-16.5v-1.2a57 57 0 0 0-21.9 20v.2h.1Zm-2.6 7.3.1.2.3-.7-.3.3v.2h-.1Zm-.9 1.4s-.2 0-.2-.2h-.1l-.6 2.5c0 .3 0 .7.2 1l1.5-4.1a3 3 0 0 1-.8.8Zm22.4-5.6h.2l1.1.5.6-.3v-.2h-.4c-.3 0-1 .2-1.5 0Zm-4-1v.2h1l1.8.7h.2l.7-.3-.9-.4-1.5-.4h-.3c-.1 0-.6.4-.9.2h-.1Zm-11.7-.4h1.1l.4-.4-1.4.3h-.1Zm2.3-.3h1.7c.3-.2.5-.2.7-.2v.2h1.1c.4 0 .2-.2.4-.2l1 .2.6-.4h-.3l-1.5-.3c-.3.3-1 .4-1.3.3h-2.3l-.4.1-.2.2.4-.2v.3Zm6.3.2.8.1c.5 0 1.1.5 1.6.7l.7-.2h-.4c-.5-.1-.9-.8-1.5-.9h-.7l-.4.4h-.1Zm-.6-.4-.1.2h.5v-.4h-.3v.2h-.1Zm-14.9 7.3v.2h.1v-.2h-.1Zm2.2-2.6-.3.4h-.1l-.8 1 .1.2v-.2l.4-.3 1-1.1h-.3Zm.5-.2 1.4-1.7c-.5.3-.9.7-1.2 1.1l-.4.4v.3h.2Zm19.7-3.1v-.2l-.7.3a11.3 11.3 0 0 0-4.1 4.2c-.4.8.3.8.3 1.2s-.2 2.4.3 1.6l1.3-2.3c.8-1.2 2.7-3.7 3.1-4.6l-.3-.3h.1Zm-3.8-.6-.7.2c-.6.2-1.2.6-1.7 1-.8.6-1.4 1.4-2 2.2-.4.5-.6 1.2-.6 1.8s0 1.9.4 1.6c.4-.4 1.4-2.7 2.1-3.6.4-.7.9-1.4 1.5-2l.9-.9.1-.2Zm-4.5-.8c-.8.4-1.6 1.1-2.2 1.8-.5.6-1 1.4-1.2 2.2-.1.5 0 1.1 0 1.6s0 1.4.4.9c.4-.6.9-2.8 1.6-3.9.6-1 1.6-2.2 2-2.7l.1-.2v-.2h-.1c-.2 0-.4.2-.6.4l-.2.1h.2Zm-2.4-.3c-.1 0-.4 0-.7.2a2 2 0 0 0-.6.4 13 13 0 0 0-1.8 2.3c-.5.6-.9.9-.9 1.6s0 2.3.5 2.1c.4-.3 1.2-2.5 1.8-3.4a20.3 20.3 0 0 0 1.6-3v-.2h.1Zm-3.9.9c-.6.4-1.1.9-1.5 1.4a4 4 0 0 0-.9 2c-.2.5-.2 1 0 1.4 0 .4.5 1.1.7.9.2-.3.3-1.7.5-2.4.2-.8.5-1.5.9-2.1l1.4-1.9.2-.2c0-.3-.3 0-.6.2l-.4.3-.3.3Zm-3.4 1.8-.2.3c-.5.7-.8 1.4-1 2.2-.1.6 0 1.3.2 1.9 0 .4.2.9.4.8 0-.6.2-1.2.4-1.8.2-1 .4-1.9.8-2.8l1.2-1.6c0-.3-.6 0-.9.3-.2 0-.3.2-.5.3l-.4.5Zm-2.3 2.6c-.5.7-.9 1.5-1 2.4 0 .8.3 1.6.6 2.4.2.3.4 0 .4-.3v-1.9l.7-2.1c0-.5-.3-.8-.5-.5h-.2Zm-3 6.5h.1c.2.3.5.3.6.1l-.2-1-.2-1c0-.7.5-1.9.6-2.4v-.2c0-.2-.5.4-.8.8l-.1.2-.4 1.1v.2c0 .7.1 1.5.4 2.2Zm13.9-12.2.1-.2c.2-.5-.5-1.4-.3-2.4.2-.9.9-2.4.9-3.1s.2-1.7-.3-1.3c-.9 1.1-1.7 2.3-2.4 3.6-.3.8-.3 1.7 0 2.6 0 .6.3 1 .6 1.1.3 0 1 0 1.3-.3Zm2.4.7h.1l.4-.4v-1.5c0-1.2.3-2.4.7-3.5.4-1 1.8-2.1 1.7-2.4 0-.3-1.6.6-2.2 1-.5.5-.9 1.1-1.1 1.8-.2.6-.3 1.3-.2 2 0 .9.1 1.7.3 2.5v.3l.1.1h.2Zm3.2.9h.1c.3.2.8-.1.9-.1h.3s.2-.2.2-.7l.3-5c.1-1.2.5-2.1.3-2.1-.7.4-1.2 1.1-1.5 1.8-.5.8-.8 1.7-.9 2.6a13 13 0 0 0 .2 3.4h.1Zm3.8 1c0 .1.1.2.3.2.4.2 1.2.1 1.5 0 .2-.2 0-.4 0-1.2s-.2-2.4 0-3.4c0-1 .7-2.3.5-2.8-.2-.6-.9-.7-1.4 0a9.8 9.8 0 0 0-.9 4.1c-.2 1-.1 2 .1 3v.2h-.1Zm-12.4-2-.1-1.1c0-.7.6-3 .6-3.7s-.7-.6-.9-.2c-.4.8-.6 1.7-.7 2.7-.2.7-.1 1.5 0 2.2l.5.3h.6v-.2Zm-4.2-.7c0 .6 0 1.2.4 1.7.3 0 .6-.1.8-.3v-.2c.1-.3-.3-.7-.2-1.3 0-.7.4-2.4.4-2.7s-.2 0-.5.2l-.6.7-.2.5c-.2.5-.2 1-.2 1.5h.1Zm-2.6 2.1c0 .2 0 .3.2.5.1.3.3.6.5.7l.5-.2.4-.5c0-.6 0-1.2-.2-1.7v-.4c0-.5.2-1.1.1-1.2 0-.1-.5.1-.9.4l-.4.3c-.2.2-.3 0-.3.5v.4l.1 1.4v-.2Zm-1.2 3.1h.5v-.3l-.1-.3-.2-.7c0-.6 0-1.2.2-1.8-.2 0-.4.3-.7.5-.2.1-.3.3-.3.6v.7l.2 1.1.4.3Zm-2 2.5c0 .2.1.3.2.3l.8-.8.2-.2-.1-.3-.1-.2-.1-.2v-.9l-.4.4-.4.5-.1.5v.2l.1.7h-.1Zm22.6-.9c-.4.5-.6 1.2-.6 1.8s0 1.9.4 1.6c.5-.4 1.4-2.7 2-3.7l1.4-1.6v-1.1l-1.3.8c-.7.7-1.4 1.4-1.9 2.3Z"/><path fill="#fff" d="M316.1 81.6c.2-.2.5-.3.5 0l-.4 2.7c0 .7.4 1 .3 1.4l1.4-.4h.2l.3-.2h.2l-.4-.4c-.2-.7-.3-1.5 0-2.2 0-.9.3-1.7.7-2.6.3-.5.9-.6.9 0s-.6 3-.6 3.8l.1 1 1.7.2c-.4-.3-.6-.7-.5-1.2-.3-.8-.3-1.7 0-2.6.6-1.3 1.4-2.4 2.4-3.5.5-.4.4.5.3 1.2s-.8 2.3-.9 3.2c-.2.9.5 1.8.3 2.4l1.5.5h.7c-.2-.9-.4-1.8-.3-2.7-.2-1.4.3-2.8 1.3-3.7.6-.6 2.1-1.3 2.2-1.1s-1.3 1.4-1.7 2.5c-.4 1.1-.6 2.3-.7 3.4 0 .5-.1 1.1 0 1.6h.7c.6.2 1 .8 1.5.9h.4c-.3-1.2-.3-2.3-.2-3.5 0-.9.4-1.7.9-2.5.3-.8 1.3-1.9 1.5-1.8.2 0-.2.8-.3 2l-.3 5.1-.1.6 1.5.5.9.3c-.2-1-.3-2-.1-3 .1-1.4.4-2.8.9-4.1.5-.7 1.2-.6 1.4 0 .2.6-.4 1.8-.5 2.8v3.4c0 .7.2 1.1 0 1.3h.3s-.3.3-.6.3h-.4c-.3 0-.6 0-.9-.3-.5.9-2.4 3.3-3.1 4.6-.8 1.2-1.1 2.2-1.3 2.4s-.3-1.2-.3-1.7-.7-.5-.3-1.1a10 10 0 0 1 2.4-3c.5-.6 1.2-1.1 1.9-1.4h-.4l-1.8-.7h-1l-.9 1a9 9 0 0 0-1.5 1.9c-.7.9-1.7 3.2-2.1 3.7-.4.3-.4-1-.4-1.6s.2-1.3.6-1.8c.6-.8 1.2-1.6 2-2.3l1.8-1-1.7-.8h-1.5c-.8.9-1.5 1.8-2.1 2.8-.7 1.1-1.2 3.3-1.6 3.9-.4.4-.4-.7-.4-1-.2-.5-.2-1.1 0-1.6.3-.8.7-1.5 1.2-2.2.6-.7 1.4-1.3 2.2-1.8.1 0 .2 0 .3-.2l-1.1-.2c-.2 0 0 .2-.4.2h-1.1l-.4.9-1.3 2.2c-.6.9-1.4 3.2-1.8 3.4-.4.2-.5-1.5-.5-2.1s.4-.9.9-1.5a13 13 0 0 1 1.8-2.3c.3-.3.5-.5.8-.6h-2.3l-1.4 2.1a4 4 0 0 0-.9 2l-.5 2.4c-.2.2-.6-.5-.7-.9-.3-.5-.3-1 0-1.5.1-.7.5-1.4.9-1.9.4-.6.9-1.2 1.5-1.5l.7-.6-.7.3h-.7c-.2.3-.6.4-.9.3-.4-.5-.5-1-.4-1.6 0-.5 0-1.1.2-1.6a24 24 0 0 0-1.3 2.1v.4c0 .6.3 1.2.2 1.6v.2l.4-.3c.3-.3.9-.6.9-.4 0 .3-.9.9-1.2 1.7a29.4 29.4 0 0 0-1.2 4.5c-.2.2-.3-.4-.4-.8-.3-.6-.3-1.3-.2-1.9.2-.8.6-1.5 1-2.2l.2-.3-.5.2c-.2 0-.4-.3-.5-.6l-1.1 2.1.1.3.4-.5 1.2-1.1-1.4 1.8h-.1v.2l-1 1.2-.2.6v.2l-.2.2c-.6 1.3-1.1 2.7-1.5 4.1l.2 1c0 .2-.4.3-.6 0a54.7 54.7 0 0 0-2.6 16.8 52.5 52.5 0 0 0 29.2 47.6V89.6l-1.4 1.6-2 3.7c-.5.3-.4-1.1-.4-1.7s.2-1.2.6-1.7c.5-.9 1.1-1.6 1.9-2.3l1.3-.8V65.1c-7.6 4-14 9.6-18.9 16.4h-.7Z"/><path fill="#292562" d="m311.6 86.7.8-1.4.1 1.4c0 .2 0 .3.2.5l-1.1 2.1c-.2-.8-.2-1.7 0-2.5Zm-5.8 26.9c0-5.9.9-11.5 2.6-16.8v-.2c-.4-.7-.5-1.4-.5-2.2v-.2a55.5 55.5 0 0 0 27.1 67.9v-1a52.7 52.7 0 0 1-29.2-47.6Zm3.5-21.1v.2c-.4.8-.6 1.5-.7 2.3 0 .3 0 .7.2 1l1.5-4.1-.8.8s-.2 0-.2-.2Zm.8-1.5.1.2.7-.8.3-.6c-.2 0-.3-.2-.4-.3l-.2-1.1-1 2.1.4-.3v.9h.1Zm-.9 1.2-.1-.7v-.2l-.7 1.8c.3-.5.8-1.1.8-.9Zm1.1-1v.2l.2-.6-.2.2h-.1v.2h.1Zm2.8-7.1c.4-.2.9-.5 1-.4v1.1l1.3-2.1.2-.4a53.5 53.5 0 0 1 19.6-17.2V64a56.8 56.8 0 0 0-22 20.1h-.1Zm5.5 1h3.5c.4 0 .2-.2.4-.2l1.1.2c.1 0 .3 0 .4-.2h-.2l-1.5-.4c-.3.5-1 .5-1.4.4l-1.7-.2v.2h-.9l-.1.3h.4Zm14.2 1.8h.4c.3 0 .6 0 .6-.2h-.3l-.7.2Zm-15.7-1.6.7-.3.3-.3h-.2l-1.4.5h.6Zm11.9.5s-.2 0-.3.2h.3l1.8.6h.9l-.9-.3-1.5-.5h-.3Zm-4-.7h.6l1.7.9.5-.2h-.4c-.5 0-.9-.8-1.5-1h-.7l-.3.3Zm-.8-.1h.5v-.2h-.3v.2h-.2Zm-14.9 7.2Zm2.1-2.6-.3.4-.2.2-.7.8v.2h.2l.2-.4 1-1.2h-.2Zm.5-.2 1.4-1.8-1.2 1.1-.4.5.1.3h.1Zm19.2-3.2c-.7.3-1.4.8-1.9 1.4-1 .9-1.8 1.9-2.4 3-.4.7.3.7.3 1.1s0 1.9.3 1.7.6-1.1 1.3-2.4c.8-1.2 2.7-3.7 3.1-4.6s-.2 0-.2-.2v-.3c-.2 0-.3 0-.5.2Zm-3.2-.6c-.2 0-.3 0-.5.2-.6.3-1.3.6-1.8 1a11 11 0 0 0-2 2.3c-.4.5-.6 1.2-.6 1.8s0 1.9.4 1.6c.4-.5 1.4-2.8 2.1-3.7l1.5-1.9.9-1h.1v-.2h-.1Zm-4.5-.8c-.8.5-1.5 1.1-2.2 1.8-.5.6-1 1.4-1.2 2.2-.1.5 0 1.1 0 1.6s0 1.4.4 1c.4-.6.9-2.8 1.6-3.9l2.1-2.9v-.2h-.2l-.4.2c-.1 0-.2 0-.3.2h.2Zm-2.8-.2c-.2 0-.5.3-.8.6a13 13 0 0 0-1.8 2.3c-.5.6-.9.9-.9 1.5s0 2.3.5 2.1c.4-.2 1.2-2.5 1.8-3.4l1.3-2.2.4-.9h-.5Zm-3.4.8c-.6.4-1.2.9-1.5 1.5-.5.5-.8 1.2-.9 1.9a2 2 0 0 0 0 1.5c0 .4.5 1 .7.9l.5-2.4c.2-.7.5-1.4.9-2l1.4-2.1v-.2h-.2l-.3.4-.7.6h.1Zm-3.4 1.4-.2.3c-.5.7-.8 1.4-1 2.2-.1.6 0 1.3.2 1.9 0 .4.2.9.4.8 0-.6.2-1.1.4-1.7.2-1 .4-1.9.8-2.8s1.1-1.4 1.2-1.7c0-.2-.6 0-.9.4-.2 0-.3.2-.5.3 0 .2-.2.3-.4.4Zm-2.3 2.7c-.5.7-.9 1.4-1 2.3 0 .8.3 1.6.6 2.4.2.4.4 0 .4-.3v-1.8c.1-.7.3-1.4.7-2.1 0-.6-.3-.9-.5-.5h-.2Zm-3 6.5v.2c.3.3.6.3.7 0l-.2-1-.2-1c.1-.8.3-1.5.6-2.3v-.2c0-.3-.5.4-.8.9v.2c-.3.3-.5.7-.5 1.1v.2c0 .7.1 1.5.4 2.2V96Zm14-12.2c.2-.7-.5-1.5-.3-2.5.2-.9.9-2.5.9-3.2s.2-1.6-.3-1.2c-.9 1.1-1.7 2.2-2.4 3.5-.3.8-.3 1.7 0 2.6 0 .5.2.9.5 1.2.4 0 1.1 0 1.4-.4h.2Zm2.3.7c.1.2.2 0 .4 0l.3-.3v-1.6c0-1.2.3-2.3.7-3.4.4-1 1.8-2.3 1.7-2.5s-1.6.6-2.2 1.1c-1 .9-1.5 2.3-1.3 3.7l.3 2.7v.2h.1Zm3.4 1h.6c.1 0 .3 0 .3-.2h.3l.1-.6.3-5.1c.1-1.2.5-1.9.3-2-.2 0-1.2 1-1.5 1.8-.5.7-.8 1.6-.9 2.5-.1 1.2 0 2.4.2 3.5v.2h.3Zm3.7.7.2.2.9.2c.3 0 .6 0 .7-.2v-1.3c0-.7-.2-2.4 0-3.4 0-1 .7-2.3.5-2.8-.2-.6-.9-.7-1.4 0-.5 1.3-.8 2.7-.9 4.1-.2 1-.1 2 .1 3v.3h-.1Zm-12.4-2.1v-.2l-.1-1c0-.6.6-3.1.6-3.8s-.7-.6-.9 0c-.4.8-.6 1.7-.7 2.6-.2.7-.1 1.5 0 2.2l.4.3h.7Zm-4.2-.8c-.1.6 0 1.2.4 1.6.3 0 .7 0 .9-.3h.1c0-.5-.4-.9-.3-1.5 0-.7.4-2.4.4-2.7s-.2 0-.5 0l-.7.8-.2.4c-.2.5-.3 1-.2 1.6h.1Zm-2.6 2.3c0 .2 0 .3.2.5.1.3.3.6.5.6s.3 0 .5-.2l.4-.4v-.2c.1-.4-.1-1-.1-1.6v-1.5l-1 .4c-.2 0-.3.2-.3.2-.2.2-.3 0-.3.5v.3l.1 1.4Zm-1.2 3.2h.5l-.1-.3-.1-.3c-.2-.8-.2-1.7 0-2.5-.2 0-.4.4-.7.5-.3.2-.3 0-.3.5v.7l.2 1.1.4.3h.1Zm-2 2.6.2.2.8-.8.2-.2v-1.7c-.3 0-.5.2-.6.3l-.4.5-.1.5v.2l.1.7-.2.3Zm22.6-.9c-.4.5-.6 1.1-.6 1.7s0 2 .4 1.7l2-3.7 1.4-1.6v-1.1l-1.3.8c-.8.6-1.4 1.4-1.9 2.3Z"/><g fill="#262262"><path d="M28.6 16.5c0 .4-.2.8-.5 1.1l-4.8 4.8-5.2-3v-2.9c0-.8.7-1.5 1.5-1.5s1.5.7 1.5 1.5v3.7l4.8-4.8c.6-.6 1.6-.6 2.2 0 .3.3.5.7.4 1.1m-1.4 14.1-.6-.1c-.2 0-.4-.2-.5-.3l-4.8-4.8v3.7c0 .8-.7 1.5-1.5 1.5s-1.5-.7-1.5-1.5v-2.9l5.2-3 4.8 4.8c1 1 .3 2.6-1.1 2.6m-4-7.9-.1-.2-1.3-.8-3.5-2-3-1.7-.5.1v9.2c0 .2.2.3.3.3h.2l3-1.7 4.8-2.8v-.3Zm-1.2 0-.1.2-3.7 2.1-2.3 1.3h-.4v-7.1c0-.1.1-.3.3-.3h.1l2.3 1.3 3.7 2.1c.1 0 .2.2.1.3Z"/><path d="m20.9 22.8-2.8 1.7-1.7 1h-.3v-5.3c0-.1 0-.2.2-.2h.1l1.7 1 2.8 1.6v.2m33-.2v-.2l-4.3-2.1L47 19c-.2-.1-.5 0-.5.2v7.1c0 .2.3.3.6.2l2.6-1.4 4.2-2.2v-.4Zm-1 .3-3.3 1.8-2 1.1c-.2 0-.4 0-.4-.2v-5.5c0-.1 0-.2.2-.2l2 1 3.3 1.7v.2h.2Z"/><path d="M52 22.7 49.5 24l-1.5.8h-.2v-4.3l1.5.8 2.5 1.3m-20.1-3.5h3.7c1.8 0 3.1.9 3.1 2.4S37.2 24 35.4 24h-1.9v2.4h-1.7V19Zm3.5 3.7c.9 0 1.5-.4 1.5-1.1s-.6-1-1.5-1h-1.8v2.1h1.8Zm10.3 2.4v1.4h-5.9v-7.3h1.7v5.9h4.2Zm10.3-1.4-3.3-4.7h2.1l2.1 3.2 2.1-3.3h2l-3.2 4.7v2.7h-1.8v-2.6Zm6.1-4.3h.9v4.1l4.2-4.1h1.2l-3.4 3.4 3.7 4h-1.2l-3.2-3.4-1.3 1.2v2.2h-.9v-7.4Zm7.2 3.6c0-2.1 1.9-3.8 4.2-3.9s4.2 1.7 4.3 3.8-1.9 3.9-4.2 3.9-4.2-1.7-4.3-3.8Zm7.5 0c0-1.6-1.5-3-3.3-3s-3.3 1.4-3.2 3.1 1.5 3 3.3 3 3.2-1.4 3.2-3.1Zm2.1 2.7.6-.7c.7.6 1.6 1 2.7 1s1.9-.7 1.9-1.3-.8-1.1-2.2-1.4c-1.7-.3-2.7-.8-2.7-2.1s1.2-2.1 2.7-2.1 2.1.3 2.9 1l-.6.7c-.7-.6-1.5-.9-2.4-.9s-1.8.6-1.7 1.3c0 .8.8 1 2.2 1.3 1.6.3 2.7.8 2.7 2.1s-1 2.1-2.9 2.2c-1.3 0-2.4-.4-3.3-1.1h.1Zm7.9-6.3h.9l3.1 5.1 3-5.2h.9v7.4h-.8v-5.6l-3.1 5.2-3.1-5.1v5.6h-.9v-7.4Zm9.8 3.6c0-2.1 1.9-3.8 4.2-3.9s4.2 1.7 4.3 3.8-1.9 3.9-4.2 3.9-4.2-1.7-4.3-3.8Zm7.5 0c0-1.6-1.5-3-3.3-3s-3.3 1.4-3.2 3.1 1.5 3 3.3 3 3.2-1.4 3.2-3.1Zm2.1 2.7.6-.7c.7.6 1.6 1 2.7 1s1.9-.7 1.9-1.3-.8-1.1-2.2-1.4c-1.7-.3-2.7-.8-2.7-2.1s1.2-2.1 2.7-2.1 2.1.3 2.9 1l-.6.7c-.7-.6-1.5-.9-2.4-.9s-1.8.6-1.7 1.3c0 .8.8 1 2.2 1.3 1.6.3 2.7.8 2.7 2.1s-1 2.1-2.9 2.2c-1.3 0-2.4-.4-3.3-1.1h.1Z"/></g><rect width="110.5" height="13.3" x="120.2" y="201.8" fill="#fff200" rx="3.7" ry="3.7"/><path fill="#fff200" d="M228.7 298.3h70.6v18.6h-70.6v-18.6Z"/><circle cx="15.7" cy="306.9" r="4" fill="#fff"/><circle cx="15.7" cy="281.7" r="4" fill="#fff"/><circle cx="232.6" cy="183.8" r="4" fill="#fff"/><circle cx="89" cy="230.7" r="4" fill="#fff"/><circle cx="89" cy="141.7" r="4" fill="#fff"/><circle cx="89" cy="162.5" r="4" fill="#fff"/><circle cx="138.1" cy="208.4" r="4" fill="#fff"/><circle cx="123.8" cy="183.9" r="4" fill="#fff"/></svg>
