
<svg xmlns="http://www.w3.org/2000/svg" width="335" height="335">
    <defs>
        <clipPath id="a">
            <path fill="none" d="M0 0h335v335H0z"/>
        </clipPath>
    </defs>
    <g clip-path="url(#a)">
        <path fill="#192e35" d="M0 0h335v335H0z"/>
        <g fill="#f47c20">
            <path d="M4.4 182.9v.3c1 0 1.9-.2 2.8-.3v-.3c-1 .1-1.9.2-2.8.3ZM219.7 129.5v.5c1.3-.2 2.6-.4 3.8-.6v-.5c-1.3.2-2.5.4-3.8.5ZM30.7 178.6v.2c1.3-.1 2.5-.2 3.7-.4v-.3c-1.3.2-2.5.3-3.7.5ZM22.9 180v.2c2.2-.3 4.5-.5 6.7-.8v-.4c-2.3.3-4.5.7-6.7 1Z"/>
            <path d="M6.8 180.9c1.4.1 2.7.3 4 .4v.2c-.9 0-1.8.2-2.7.3v.3c1.8-.3 3.6-.6 5.6-.9-1-.1-1.6-.2-2.2-.2v-.5c.8 0 1.6 0 2.4-.1 1.6-.2 3.2-.6 4.8-.8 1.7-.2 3.5-.1 5.2-.3 1.6-.2 3.2-.7 4.8-.9 2.1-.3 4.2-.6 6.3-.7 1.9-.2 3.8-.1 5.7-.3.9 0 1.8-.5 2.7-.6 3.7-.4 7.3-.6 11-1s7.4-.9 11.2-1.3c5.6-.7 11.2-1.3 16.7-2l20.1-2.4c2.6-.3 5.2-.6 7.7-.9 1-.1 2.1-.4 3.1-.3 1 .1 2 .6 3.1 1-.1-.5-.2-.8-.4-1.3.4 0 .8-.1 1.2-.2 3.1-.3 6.1-.7 9.2-1 6.1-.7 12.2-1.4 18.3-2.2 3.6-.4 7.3-1 10.9-1.4 4.5-.6 9-1.1 13.6-1.6 2.4-.2 4.9-.2 7.3-.5 2-.2 3.9-.7 5.9-1 1.9-.3 3.8-.5 5.7-.6 1.6-.1 3.1 0 4.7-.3 1.7-.2 3.4-.5 5.1-.7 2.3-.3 4.7-.4 7-1.1 3.3-1.1 6.6-1.9 10-2 1 0 2.1-.3 3.3-.5-.7-.6-.7-1 0-1.2.2 0 .5 0 .7-.1 1.3-.9 2.6-1.8 3.7-2.6h-.8v-.4c.9 0 1.8 0 2.7-.1.5-.3 1.2-.8 1.8-.8 4.2-.2 8.2-1.5 12.2-2.8.9-.3 2-.6 2.4-1.9-1.8.2-3.5.4-5.1.5v-.7c-.8.1-1.5.2-2.2.3v-.2c1.9-.6 3.7-1.3 5.4-1.8-1.6-.2-3.3.6-5.1 0-.8-.3-1.9.1-2.9.2l4.4-1.6v-.2h-5c-.4-1 .3-1.2.9-1.4 1.9-.8 3.9-1.4 5.7-2.4 1.1-.6 2.1-1.2 3.3-1.4.6 0 1.2 0 1.9-.1 1 0 2.1 0 3.1-.1v-.2c-.5-.2-.9-.4-1.5-.7h-2.3c.4-1.5 0-2-1.4-2.1h-1.9v-.2c1-.3 2-.6 3-1-.2-.2-.5-.3-.8-.5 1.6-.6 3.2-1.1 4.7-1.6v-.2c-2.8.2-5.6.5-8.3.7.2-.6.5-.9.9-1.1.3-.2.7-.3.8-.3h-6.6c-.3-.4-.7-.6-1-.6-2.4.2-4.7 1.5-7.3 1.1-.2 0-.3.2-.5.3-.3.1-.6.4-1 .4-2.6.2-5.1.3-7.7.5-1.4 0-2.8.2-4.1.4v-.2c.3-.1.7-.2 1.1-.4v-.4c-1.8.2-3.6.3-5.6.5.6-.5.9-.8 1.2-1-1.3-.1-2.5 0-3.6.2-1 .2-1.9-.4-3 .3-1.3.7-3.1.5-4.7.7-5.6.7-11.1 1.5-16.7 2-4.2.4-8.3 1.5-12.5 1-2.2-.3-4.4.3-6.6.5-1.4 0-2.8 0-4.1.2-.4 0-.8.2-1.2.3-.5.2-1 .4-1.4.5-2.4.3-4.8.6-7.2.8l-12 1.2c-2 .2-4 .3-6 .5-.6 0-1.7-.4-1.8-.1-.5.9-1.3.6-2 .7-5.1.5-10.2 1-15.2 1.4-2.3.2-4.7.2-7 .4-1.1.1-2.1.7-3.2.8-2 .2-4.1.1-6.1.3-3.8.4-7.5.9-11.3 1.4-.2 0-.4-.1-.6-.2-.9-.3-1.8-.9-2.8-.3h1.4l.3 1c-.5.1-.9.1-1.3 0-.5 0-.9-.3-1.3-.6-1.1-.4-2.9.1-3.3.9-.6 0-1.2 0-1.7-.1l.8.4c-1 .1-1.7.3-2.4.3-2.7.2-5.5.4-8.2.6-.5 0-1 .2-1.5.3-1 .1-2 .2-3.1.2-.1 0-.2 0-.3.1-2.6.3-5.3.7-7.9 1-1.7.2-3.5.1-5.2.4-1.5.2-3 .6-4.6.8-1.8.3-3.6.5-5.3.6-.9 0-1.8.3-2.6.2-.8-.2-1.5-.8-2.3-1.2l-.3.3c.3.4.6.8.8 1.1-9.7 1.1-19.5 2.2-29.2 3.5v28.7c1.7-.2 3.5-.4 5.2-.6.9-.1 1.6 0 1.6.9Z"/>
            <path d="M182.3 161v.4c1.3-.2 2.5-.4 3.8-.6v-.2l-3.8.4ZM206 158.8v-.2l1.6-.4-.2-.5c-1.3.5-2.7 1-4 1.5v.2c1.8-.2 3.7-.3 5.5-.5v-.3c-1 0-2 .2-2.9.3ZM210 159.2v.3l2.7-.3v-.4c-.9.1-1.8.3-2.7.4ZM79.1 143.2c-.1-.4-.2-.7-.3-1h-1.4c-.3.1-.6.2-1 .4.4.3.8.5 1.3.6H79Z"/>
        </g>
        <path d="M189.7 151.3c-7.8-15.2-1.3-33.6 14.6-41 15.8-7.5 35-1.2 42.8 14 7.8 15.2 1.3 33.6-14.6 41-15.8 7.5-35 1.2-42.8-13.9" fill="#f47c20" stroke="#010101" stroke-width=".8"/>
        <g fill="none" stroke="#192e35" stroke-width=".7">
            <path d="M186.8 134.7c5-11.7 60.9-.2 63.3 6.1"/>
            <path d="M226.1 107.7c26.9 9.1 14.4 57.4-10.8 60.4"/>
            <path d="M205.1 109.9c15.3 1.2 25.4 23.3 41.7 15.3M191 154c22 3.2 51.2-26.1 53.1 2.1"/>
        </g>
        <path d="M332.6 108.2c-2.1 1.3-2.5 2.7-2 4.9 1 4.4 1.9 8.8 2.8 13.2.1.5.4.9.7 1.3.1.1.2.3.4.4 0-1 .3-2 .5-2.9v-18.4l-1.2.6c-.4.2-.8.5-1.2.8ZM326.7 255c-.9.1-1.8 0-2.7 0-3.1-.2-5.5-1.5-6.7-4.6-.9-2.4-1.9-4.8-4.8-6.3 0 1.6-.4 3.1 0 4.3 1.3 3.4 2.9 6.7 4.5 10 .1.3.3.5.4.7.3.3.7.5 1.2.4.3 0 .5-.2.9-.4.7-.4 2.1-.4 2.8 0 2.8 1.8 5.8 3.5 7.5 6.5.8 1.4 1.8 2.6 2.8 3.6.5.5 1.1.9 1.6 1.2.2.1.4.2.6.4v-14.1c-2.5-1.3-5.2-2-8.3-1.6ZM330.1 227.1l-1.5.9-.6-.5c.3-.5.5-.9.8-1.4.1-.2.3-.5.4-.7s.3-.4.5-.6c1-1 1.6-2.1 1.5-3.3 0-.4 0-.8-.2-1.2-.7-2.2-1.7-4.3-2.6-6.4 0 0 0-.1-.1-.2-1.9-2.1-10.9-3.3-13.3-1.8-.7.4-1.2.9-1.4 1.6 0 .3-.1.5-.1.8v.5c0 .3 0 .6.1.9.1.9.2 1.7.4 2.7.2-.1.3-.2.3-.2.3-1.8.7-2.9 1.5-3.4.3-.2.7-.3 1.1-.4s.3 0 .5 0c.6 0 1.4 0 2.4.2h.4c1.3.3 2.4.6 3.1 1s.7.4.9.7c.4.4.6.8.7 1.3v1c-.1.6-.4 1.2-.8 1.9-.3.5-.6 1-1 1.5-1.9 2.7-2.9 5.5-3 8.5v1.8c0 .3 0 .6.1.9.1.9.4 1.8.7 2.7 0 .2.2.4.3.6.7 1.4 2.1 2.6 3.3 3.7.9.8 1.7.4 2-.9.3-1.1.7-2 1.2-2.7.3-.4.6-.7.9-1 .2-.1.3-.3.5-.4.7-.5 1.5-.8 2.4-1 1-.2 2.2-.1 3.4.1v-10l-1.5.9c-1.1.7-2.3 1.4-3.4 2.1ZM289.3 184c-3.4-1.2-6.3-3.1-9-5.5-.4-.4-.9-.6-1.5-.7-.4 0-.8-.2-1.2-.2s-.9-.1-1.3-.2c-.2 0-.4-.1-.6-.2-.6-.2-1.3-.4-2-.6-1.1-.3-2.2-.7-2.9-1.4-1.4-1.5-2.1-3.7-3-5.6-.2-.4-.4-.9-.6-1.3-.4-.9-.7-1.8-1.1-2.7-.2-.4-.4-.9-.6-1.3-1.1-2-2.4-4-4.1-5.4-1-.9-2.2-1.6-3.6-2.1h-.2c-.2-.1-.4-.3-.6-.5 0 0 0-.1-.1-.3 0-.1 0-.3-.2-.4.9-.3 1.9-.6 2.8-1 .9-.3 1.9-.7 2.7-1.1 1-.4 2.2-1.1 2.7-1.9 3.2-5.9 2.8-12 .4-18.1 0 0 0-.1-.1-.2-.1-.2-.3-.3-.6-.5 0 0-.2 0-.2-.1-.1 0-.3-.1-.4-.2-.1 0-.2-.1-.3-.2-.1 0-.2-.2-.3-.3-.1-.1-.2-.2-.3-.4v-.4c.1-.2.4-.5.6-.6.5 0 .9-.2 1.3-.4 2.9-1.2 4.7-3.8 7.3-5.4.1 0 .3-.2.4-.3l.2-.2s.1 0 .2-.1c.2 0 .5-.2.8-.2.3 0 .5 0 .8-.2 0 .5 0 1.1-.3 1.5-.3.6-.8 1.2-1.1 1.7.1.2.2.3.3.5.7-.3 1.4-.5 2-1 2.4-1.8 3.1-4.5 3.3-7.3.2-2.4.3-4.7.4-7.4-2.7.4-5.1.8-7.4 1.2-8.3 1.3-14.2 8.4-13.8 16.9.1 2.4.4 4.9.5 7.3 0 .5-.1 1.1-.2 2l-.7-.4c-.5-.3-.9-.5-1.4-.7-.2-.1-.5-.3-.7-.4-1.8 2.3-2.3 4.9-2.4 7.6 0 1.9.1 3.7.3 5.6 0 .6 0 1.2.1 1.9v.8c-.1.8-.3 1.5-.3 2.3 0 1.3 0 3 .7 4 .9 1.3 1.9 2.5 2.8 3.8 2.8 3.8 5.7 7.5 8.8 11.2 1.8 2.2 4.3 3.9 6.6 5.6 2.9 2.3 4.5 5.4 5.8 8.7.6 1.5 1.7 2.7 2.5 4.1 1.5 2.7 2.9 5.4 4.4 8.1.3.6 1.1.8 1.7 1.3 0-.8.5-1.7.2-2.3-1.8-2.8-3.7-5.4-5.6-8.1-.7-1-1.3-2.1-1.9-3.2l.8-.6c3.3 2.2 4.5 6.3 7.3 9 .2 0 .4-.2.5-.2-.3-.8-.5-1.7-1-2.4l-6-9c-.6-.8-1-1.8-1.4-2.7.1-.2.2-.3.4-.5.7.4 1.5.8 2.1 1.3 1.9 1.8 4.2 2.5 6.7 2.5.7 0 1.5-.7 2.2-1.1-.5-.5-.9-1.3-1.5-1.5ZM291.7 86.1h.1c0-.1-.2-.2-.2-.4 0 .1 0 .3.1.4Z" fill="#fff"/>
        <path d="M301.2 99.5h1c1.3-.2 2.2-1.2 3.7-3.6.2-.2.4-.5.6-.7 1.1 2.6 0 5.2-2.3 6.1-1.2.5-1.9.7-2.3 1.1-.2.2-.3.4-.3.6 0 .5.2 1.1.7 2.1 0 .2.2.4.3.6.6 1.2 1.4 2.5-.3 3.5-.9-.8-1.8-1.7-2.7-2.4-.4-.4-.9-.7-1.4-1.1-.5-.4-1.1-.8-1.8-1.4 0 1-.1 1.6 0 2.1 1.3 4 4.3 6.6 7.2 9.3.1.1.3.2.5.2h1.1c.4 0 .7-.1 1-.3 1.2-.7 2.5-1.3 3.7-2.1 1.2-.7 2.4-1.5 3.6-2.2.7-.4 1-1.4 1.1-2.4 0-.5 0-1-.2-1.5 0-.2-.1-.4-.2-.6-.1-.2-.2-.4-.4-.5-.4-.4-.6-1.2-.7-1.8v-1.7c0-.3 0-.6.1-.8v-3c0-.3-.1-.6-.3-.9 0-.1-.1-.3-.2-.4-.3-.5.6-1.8 1-2.8l-1.7-1.1c1.2-.5 2.5 1.6 3-.3v-.7c0-.4-.2-.8-.4-1.2 0-.2-.2-.4-.3-.6-.1-.2-.2-.5-.3-.7-.6 1-1.3 1.6-2 2l-.9.3c-.5.1-1 .2-1.5.2h-3.1s-.2-.1-.3-.2c0-.1-.2-.3-.3-.4-.1-.2-.3-.4-.4-.6h3.8c2.1-.1 3.1-1.8 4-3.2.3-.5-.6-2.2-1.3-2.8-1.3-1-2.8-.8-4 .4-.3.4-.6.9-.8 1.3-.6 1.2-8.7 9-9.6 8.3 0-.4.4-1.2 1-2.3 1-1.6 2.5-3.7 3.7-5.5.8-1.2 1.5-2.3 1.9-3 .2-.4.3-.6.3-.8h-.5c0-.2.3-.5.4-.7 0-.2.2-.4.2-.6v-.2c-.2-.5-.3-1.2-.4-1.8v-1c-.2-1.6-.5-3.1-2.8-3.6-1.3-.3-2.6-.8-3.9-1-3-.6-5.5.9-5.5 3.9 0 2.9-2.1 3.7-3.5 5.2-.2.2-.4.4-.7.6-.2.2-.5.4-.8.7.8.2 1.4.4 2.1.5.6.2 1.3.3 1.9.5l.7-1.1c.1 0 .2.1.3.2 0 0-.2-.1-.3-.2 1.7.4 1.4.6.7.8.9 1.2 3.1 1.3 1.9 1.9-1.1.6-5.8 2.1-6.9 2.8l.3.6c.9.2 1.8.4 2.6.6v.5c-.6 0-1.1 0-1.7.2-.5.1-1 .4-1.5.6.5.3.9.6 1.4.9.1 0 .3.1.5.2.2 0 .4.1.8.3-.7.3-1.2.5-1.5.8-.4.4-1 1.2-.9 1.3.3.6 1 1.1 1.6 1.3h.2c.3 0 .6 0 .8-.2.2 0 .4-.1.7-.1 2.5.2 5.2 0 7.6.8 1.5.5 2.5.8 3.4.9Zm6.7-12c.6-1.6 1.8-1.6 2.9-1.3.4 0 .9 1 .8 1.2-.8 1.2-1.4 2.9-3.8 2.3.7-.7 1.1-1.3 1.7-1.9-.5 0-1-.2-1.7-.3Zm-7.8-8.7c-1.7-.4-3.4-.8-5.5-1.3 2.1-1.2 4.1-.8 5.5 1.3Zm-7.7 10.4 2.1 3.5c-2.1-.2-2.5-1.4-2.1-3.5Zm3.6-8.8v.6c-.4.4-.9.8-1.3 1.2-.4-.4-1.1-1.1-1-1.2.6-.8 1.3-1.9 2.1-2.1 1.2-.2 1 1.4 1.5 3.3-1.2-.3-.5-1.6-1.3-1.8ZM332 175.3c-.2-.5-.3-1.1-.3-1.7 0-.9.3-1.8.9-2.8-1.6-.2-2.6-.5-3.7-.5h-.8c-.3 0-.5.2-.7.3-1.3 1.1-1.8 5-.8 6.5.4.7.8 1.3 1.3 1.9.4.6.9 1.3 1.4 1.9.3.3.5.7.6 1 .4 1 .3 2.1-.4 3.1-2.2 3-1.9 5.9-.4 9.1 1.6 3.2 2.9 6.6 4.3 10 .4.9.7 1.9 1.2 3.3-4.1-2.4-8.3-2.8-12.4-3.5-4.2-.7-8.2.3-12.1 1.7-1.8.7-2.1.3-2-1.6 0-2.3.1-4.7.1-7v-13c0-1-.3-1.9-.5-2.8 0-.3-.2-.6-.2-.9h-.9c-.2 4.9-.4 9.7-.5 14.6s-.4 9.8-.5 14.8c1-.1 2.1-.1 3.1-.4 2-.5 4-1.1 5.9-1.8 3.3-1.3 6.6-.9 9.9-.4 3.8.5 7.3 1.7 10.4 3.6v-16.8c-.3-.6-.6-1.3-.7-1.9-.6-2.2-.3-4.3.3-6.5.1-.4.3-.9.4-1.3v-4.5c-.3-.7-.8-1.3-1.4-1.9-.8-.7-1.3-1.5-1.6-2.3ZM303.5 157.8c3.9.6 4.5.2 3.7-3.8-.2-1.2-.5-2.4-.9-3.6-.7-2.3-1.6-4.6-2.9-6.6-.6-1-1.4-2-2.2-3-.9-1.1-1.5-2.4-2.4-3.7 1.7-1.2 3.4-.9 5.1-.5 1.2.3 2.3.7 3.5 1 .7.1 1.2.2 1.6.2.4 0 .8-.1 1.1-.3.6-.4.8-1.2 1-2.5v-2.3H296c-.3 0-.8.2-1 .5-1.2 1.5-.7 6.2.7 7.5 4.6 4.1 6.5 9.3 6.1 15.3 0 1.3.3 1.7 1.5 1.9Z" fill="#fff"/>
        <path d="M293.8 117.4c.8.6 1.7 1.1 2.7 1.6 2.2 1 4.3 2.2 6.3 3.5 1.1.7 2 .6 2.8.1.3-.2.6-.4.8-.6.4-.4.9-.7 1.3-1.1 1.3-1.1 2.7-2.2 4.1-3.2 1.1-.8 2.5-1.3 3.8-1.8 2.8-.9 5-3.8 4.7-6.8 0-.3-.3-.7-.7-1-.2-.2-.4-.3-.6-.3-.4 0-.8 0-1.2.1-.4.1-.8.3-1.1.5-.2.1-.3.4-.4.8 0 .3-.2.7-.3 1 0 .2-.1.4-.2.5-.6 1.1-1.5 1.8-2.8 2.5-3.1 1.6-5.9 3.6-8.8 5.4-1.4-.7-2.9-1.2-4.2-1.9-.5-.2-.9-.5-1.3-.7-.5-.3-.9-.6-1.4-1l-2.7-2.1c-.4-.4-.9-.7-1.3-1.1 0 0-.2-.1-.2-.2-.2-.1-.3-.3-.5-.4s-.3-.3-.5-.4c-.6-.5-1.2-.9-2-.9h-.3c-.4 0-.8.1-1.2.3 1.2 3 2.8 5.5 5.2 7.3ZM272.7 134.8c.2.3.4.7.6 1 .6 1 1.2 1.9 1.9 3 2.4-1.1 4.1-2.9 5.4-4.9 3.6-5.3 4.2-11.2 4-17.4 0-.6 0-1.2-.1-1.9 0-1.2-.1-2-.4-2.4 0 0 0-.1-.1-.2 0-.1-.2-.2-.4-.3-.5-.2-1.4 0-2.7.3.2 1.1.3 2.2.4 3.3.1 1.6.1 3.2 0 4.8 0 1-.2 2-.5 3-.1.5-.2 1-.4 1.5-.3 1-.7 1.9-1.1 2.8-1.4 2.7-3.5 5.2-6.6 7.3ZM329.2 119.5c-.5-2.9-.8-5.9-1-8.8-.2-2.5-.1-2.5-2.9-2.3-.2 10.7 2.6 20.6 7.7 29.8.8-1.4 1.2-2.3 1.4-3.1v-.8c0-.3 0-.5-.1-.7 0-.3-.2-.5-.3-.8-.2-.4-.5-.9-.9-1.5-.1-.2-.3-.4-.4-.6-.1-.2-.2-.3-.3-.5-.6-1-1.1-2-1.4-3-.2-.6-.4-1.3-.6-1.9-.5-1.9-.8-3.8-1.2-5.8ZM319 152.1c-1.7 2.8-3.5 5.6-5.2 8.3-.9 1.4-1.8 2.8-.6 4.8 1.1-1.5 1.9-3.1 3-4.3.4-.4.7-.8 1.1-1.2l2.1-2.4c.3-.4.7-.8 1-1.2 1.3-1.7 2.3-3.5 3-5.6.4-1.1.7-2.2 1.1-3.2.4-1.1.7-2.2 1.1-3.2.7-2.2 1.4-4.3 2.1-6.5.4-1.4.2-2.9.3-4.1-1.2 3.3-2.2 6.8-3.8 10.1-.7 1.5-1.6 2.9-2.5 4.3-.5.7-.9 1.4-1.4 2.1-.5.7-.9 1.4-1.4 2.1ZM329.9 161.8h-.5c-.5 0-1 .2-1.7.4l.4-1.1c.3-.7.5-1.4.7-2l.3-.9-.3-.2h-.2c-1.2 1.3-2.5 2.6-3.7 3.9-.7.8-1.3 1.7-1.9 2.6-.5 1 .7 3 1.2 4.8 1.1-.6 2-1.1 3-1.6.9-.5 1.8-1 2.7-1.4-.4-1.2-.8-2.3-1.2-3.3l.5-.3c.2.4.5.7.7 1s.5.7.7 1.1c.3.6.7 1 1.1 1 .3 0 .6-.1 1-.4-.6-1.8-1.2-3.4-3-3.6ZM313.1 170.4c-1.7.3-3.3.5-4.9.8-1.6.3-3.2.5-4.8.8.3 1.2.5 2.3.8 3.5 0 .3.5.7.7.7 3-.4 6.1-.8 9.1-1.2.2 0 .4-.3.7-.5-.5-1.1-.9-2.2-1.3-3.1l-.4-.9ZM284.1 144.1c0 .2 0 .4.1.6.1.3.3.5.6.8l.4.4c.3.5.5 1.3.9 2.2.5-.9.9-1.4 1-2 .6-5.5 4.4-9.7 6.2-14.7l2.1-6.3-.4-.2-.2.2c-.1.1-.3.3-.3.4 0 0 0 .1-.1.2-1.8 5.7-5.3 10.4-8.7 15.2-.4.6-.8 1.1-1.1 1.8-.2.5-.4.9-.4 1.4ZM294.3 146.2c.2-1.4.3-2.8.2-4.3-.9 2.2-1.7 4.3-2.5 6.4-.8 2.1-1.6 4.1-2.5 6.1-.4 1-.9 1.9-1.3 2.9-.5.9-1 1.9-1.5 2.8-.6 1.2-.2 1.9 1.2 2.7 1.6-3.8 3.6-7.4 5-11.3.5-1.3.9-2.6 1.2-3.9 0-.5.2-.9.3-1.4ZM321.7 161.5c-2.2 2.3-4.3 4.6-6.5 6.8.7 1.7 1.2 2.8 1.8 3.4.3.3.6.4 1 .5s.8 0 1.4-.3c.4-.1.8-.3 1.2-.6.5-.2 1-.5 1.5-.8-2.1-2.9-2.1-6-.5-9.1ZM316.7 148c-.5.7-.8 1-1 1.4-.4.6-.7 1.3-1 1.9-1 1.9-2 3.8-3.2 5.7-.7 1.1-1.6 2.2-2.4 3.2-.3.3-.6.7-.8 1.1-.4.6-.8 1.1-1.2 1.7-.4.6-.8 1.2-1.1 1.8 0 .1-.1.3-.1.5 0 .5.1 1.1.2 1.8 2.2-1.2 10.4-15.8 10.7-19ZM301.5 209.1c-.1.3-.3.5-.4.7l-4.2 9c-.6 1.3-.6 2.5.6 3.6 1.3-1 2.9-4.7 3.8-8.4.4-1.8.7-3.7.7-5.1v-.8c-.2.4-.4.7-.5 1ZM296.3 176.8c1.5.4 3.2 0 4.8 0 .2-.3.3-.5.5-.8-.3-.7-.5-1.7-.8-2.4 0-.1-.1-.3-.2-.4-.1-.2-.3-.4-.5-.5-1.2-.4-3.1-.2-4.1.5-.5.4-.1 3.5.4 3.6ZM305.6 128.1c4.5-1.3 7.1-4.9 10.2-8 .7-.7 1.4-1.4 2.2-2l-.5-.6c-4.1 3.3-8.3 6.5-12.4 9.8l.5.7ZM301.7 193.9c0-.2 0-.5-.1-.8 0 0-.2-.1-.4-.4-.5 1.3-.9 2.5-1.5 3.7-.9 1.8-2 3.4-3 5.2-.4.7-.7 1.4-.9 2.1 0 .1 0 .3.2.5l.4.4c.2.1.8 0 1-.3 1.9-3.3 4.1-6.5 4.4-10.4ZM292.5 174.3c0-.3-.3-.6-.5-.8-.2-.2-.5-.3-.9-.3h-.8c-.3 0-.7 0-1.1.1.1 3.8 1 4.9 3.3 4.2 0-1 .1-1.8 0-2.4 0-.3 0-.6-.1-.8ZM278.9 196.9c-.4-.4-.7-.8-1.1-1.2-.5-.6-1-1.3-1.8-2.3.7 3 6.3 10.7 8.2 10.9-.8-1.5-1.4-2.7-2.2-3.8-1-1.3-2.1-2.4-3.1-3.6ZM329.9 143.1c-.7 3.2-1.4 6.2-2.1 9.3.7-.6 1.4-1.4 1.9-2.3.4-.7.7-1.4.9-2.1 0-.2.1-.5.2-.7.2-.7.2-1.4.2-2 0-.4 0-.8-.2-1.1-.2-.5-.5-.9-.9-1.1ZM272.8 195.8c1.1 1.7 2.1 3.5 3.2 5.2l.9-.5-3.4-5.1-.7.4ZM294.7 173.5c-.1-.2-.4-.3-.6-.3-.2 0-.5.5-.5.7.2 1.2.4 2.4.6 3.7h.8c0-1.2-.1-2.4-.3-3.7v-.2ZM313.6 169.3c.8 1.5 1.5 3 2.3 4.5l1-.6-2.7-4.2-.6.3ZM301.7 172.3l.2 1c.2 1 .5 2 .7 3h.8c-.3-1.5-.5-2.8-.8-4.1l-.9.2Z" fill="#fff"/>
        <path d="M318.9 106.1c-.8 0-1.7-.2-2.5-.5-1.4-.4-2.1-1.2-2.2-2.8-.2-3.7.6-7 2.6-9.9-.4-.3-.6-.8-.6-1.3 0-1 .8-1.7 1.7-1.7s.8.2 1.1.4c.4-.4.7-.8 1-1.2-.9-.1-1.5-.8-1.5-1.7s.8-1.7 1.7-1.7.9.2 1.2.5c.2-.7.3-1.4.4-2.1h-.4c-1 0-1.7-.8-1.7-1.7s.8-1.7 1.7-1.7c-.2-.6-.4-1.2-.7-1.7-.3.3-.8.6-1.3.6-1 0-1.7-.8-1.7-1.7s.5-1.4 1.2-1.7c-.4-.5-.8-1-1.3-1.4-.2.8-.9 1.3-1.7 1.3s-1.7-.8-1.7-1.7.4-1.2.9-1.5c-.3-.2-.6-.3-.9-.5-.2.8-.9 1.4-1.7 1.4s-1.7-.8-1.7-1.7 0-.6.2-.8c-.5-.1-1-.2-1.6-.3-.3.6-.9 1-1.6 1s-1.5-.6-1.7-1.4h-1.2c-.1.8-.9 1.4-1.7 1.4s-1.6-.7-1.7-1.5h-1.2c-.1.9-.8 1.5-1.7 1.5s-1.7-.7-1.7-1.6h-.8v.3c0 1-.8 1.7-1.7 1.7s-1.7-.7-1.7-1.7c-.3.3-.6.6-.8 1.2.5.3.8.8.8 1.5s-.6 1.6-1.4 1.7c-.3 1.7-.6 3.5-1.2 5.1-.5 1.3-1.7 2.4-2.8 3.3-2.2 1.8-2.4 2.4-1.1 4.8.2.4.4 1.1.2 1.3-2 3-1 6.3-.7 9.4.1 1.7 1.7 2.8 3.5 2.7 2.1 0 2.7 1.4 3 3.1.3 1.7-1.3 2-2.4 2.3-3.1.8-6.3 1.4-9.4 2.1-4.4 1-8.8 2.1-13.1 3.1-5.6 1.4-8.2 5.6-9.9 10.7-.9 2.6-1.2 5.4-2.1 8-1.1 3.1-2.8 6-4 9.1-2.2 5.4-3.6 10.9-2.4 16.8.2 1.2 0 2.4-.1 3.7-.8 5.9 1.2 10.5 6.1 13.9 2 1.4 4 2.7 6.1 4.1 2 1.3 3.2 3.2 3.2 5.6 0 1.6.5 2.9 1.9 3.8.5.4 1.1 1 1.3 1.7 1.6 4.9 5 8.7 7.9 12.8.7 1.1 1.9 1.8 3.2 1 1.2-.7 1.7-.2 2.3.7 1.6 2.3 2.4 2.7 4.1 2 4.2-1.8 4.5-2.2 3.8-5.3 0-.4-.2-1.1 0-1.3 1.8-1.7.8-3.5 0-5.1-.6-1.2-1.3-2.2-2-3.3-.4-.7-.8-1.4-1.3-2.2 3.7-.4 4.4-.1 5.2 3 .6 2.4 1.2 5 1.1 7.4-.5 6.2 1.4 12.1 2.3 18.2.5 3.4 1.4 6.8 2.5 10.1 1.7 5.4 1.4 10.7-.2 16-.2.6-.4 1.2-.5 1.9-.3 1.6 0 2.8 1.9 3.1 1.6.3 3.2.9 5.5 1.5-.4-1.3-.5-2.4-1-3-2.3-3-2.4-4.9 0-7.6 1.6-1.9 5.2-2.9 7.5-2 .6.2 1.1.7 1.5 1.5-1.3 0-2.7 0-4 .3-3.7.5-4.8 3-2.7 6.1 3.4 4.9 6.6 9.9 10.2 14.6 1.6 2.2 3.9 3.9 5.8 5.9 2.4 2.4 5.3 4.5 7 7.4 2.1 3.6 4.8 5.3 7.9 5.8V271c-.2-.1-.4-.2-.6-.4-.6-.4-1.1-.8-1.6-1.2-1-.9-2-2.1-2.8-3.6-1.8-3-4.7-4.8-7.5-6.5-.7-.4-2.2-.5-2.8 0-.3.2-.6.3-.9.4-.5.1-.9 0-1.2-.4-.2-.2-.3-.4-.4-.7-1.6-3.3-3.2-6.6-4.5-10-.5-1.2 0-2.6 0-4.3 2.9 1.5 3.9 3.9 4.8 6.3 1.2 3.1 3.6 4.4 6.7 4.6.9 0 1.8.1 2.7 0 3.1-.4 5.8.3 8.3 1.6v-11c-3.4.8-6.9 1.5-10.4 1.7-2.4.1-5.1-.8-7.2-2.1-2.2-1.4-3.6-3.8-4.2-6.5-1-4.3-2.6-8.5-3.3-12.9-.6-3.5-.4-7-.5-10.6 0-.6.5-1.2.7-1.9h.5c0 .7 0 1.5.1 2.2.4 3.8.6 7.6 1.5 11.3.6 2.8 2 5.5 3 8.3.5 1.3 1 2.7 1.3 4 .9 4.2 4 5.3 7.3 5.6 1.8.1 3.8-.1 5.5-.7 1.9-.6 3.8-1.1 5.7-1.6v-8.4c-1.2-.3-2.3-.3-3.4-.1-.9.2-1.7.5-2.4 1-.2.1-.3.3-.5.4-.3.3-.6.6-.9 1-.5.8-.9 1.7-1.2 2.7-.3 1.3-1.2 1.7-2 .9-1.2-1.1-2.6-2.3-3.3-3.7l-.3-.6c-.3-.9-.5-1.8-.7-2.7 0-.3 0-.6-.1-.9v-1.8c0-3 1.1-5.8 3-8.5.4-.5.7-1 1-1.5.4-.7.7-1.3.8-1.9v-1c0-.5-.3-.9-.7-1.3-.2-.2-.6-.5-.9-.7-.8-.4-1.8-.7-3.1-1h-.4c-1-.2-1.7-.2-2.4-.2h-.5c-.4 0-.8.2-1.1.4-.8.5-1.2 1.6-1.5 3.4 0 0-.2.1-.3.2-.1-1-.3-1.9-.4-2.7 0-.3 0-.6-.1-.9v-.5c0-.3 0-.6.1-.8.2-.6.7-1.1 1.4-1.6 2.4-1.5 11.4-.3 13.3 1.8 0 0 0 .1.1.2.9 2.1 1.9 4.2 2.6 6.4.1.4.2.8.2 1.2 0 1.2-.5 2.3-1.5 3.3-.2.2-.3.4-.5.6s-.3.4-.4.7c-.3.5-.5 1-.8 1.4l.6.5 1.5-.9c1.1-.7 2.3-1.4 3.4-2.1l1.5-.9v-13.8c-3.1-1.9-6.5-3.1-10.4-3.6-3.4-.5-6.6-.9-9.9.4-1.9.7-3.9 1.3-5.9 1.8-1.1.3-2.2.3-3.1.4.2-5 .4-9.9.5-14.8.2-4.9.4-9.7.5-14.5h.9c0 .3.1.6.2.9.2.9.5 1.9.5 2.8v13c0 2.3 0 4.7-.1 7 0 1.9.2 2.2 2 1.6 3.9-1.4 7.9-2.4 12.1-1.7 4.1.7 8.3 1.1 12.4 3.5-.5-1.4-.8-2.3-1.2-3.3-1.4-3.3-2.7-6.7-4.3-10-1.6-3.2-1.8-6.1.4-9.1.7-1 .8-2 .4-3.1-.1-.3-.4-.7-.6-1-.5-.6-.9-1.2-1.4-1.9-.4-.6-.9-1.3-1.3-1.9-.9-1.4-.4-5.4.8-6.5.2-.1.4-.3.7-.3h.8c1.1 0 2.2.3 3.7.5-.6 1-.9 2-.9 2.8 0 .6 0 1.2.3 1.7.3.8.8 1.6 1.6 2.3.6.6 1.1 1.2 1.4 1.9v-16.4c-1.5-2.5-2.1-5.3-1.6-8.5.5-3.1.2-6.4.8-9.4.2-1 .5-2 .8-3v-16.9c-.2.9-.4 1.9-.5 2.9l-.4-.4c-.3-.4-.6-.9-.7-1.3-1-4.4-1.9-8.8-2.8-13.2-.5-2.1 0-3.5 2-4.9.4-.3.8-.5 1.2-.8l1.2-.6v-2.4c-.3 0-.7.2-1 .3-5 1.6-10 1.6-15.1 1.4Zm5.4 37.5c1.6-3.3 2.6-6.9 3.8-10.1 0 1.2 0 2.7-.3 4.1-.7 2.2-1.4 4.3-2.1 6.5-.4 1.1-.7 2.2-1.1 3.2-.4 1.1-.7 2.2-1.1 3.2-.7 2.1-1.8 3.9-3 5.6-.3.4-.6.8-1 1.2l-2.1 2.4c-.4.4-.7.8-1.1 1.2-1.1 1.2-1.9 2.7-3 4.3-1.2-2-.4-3.4.6-4.8 1.8-2.8 3.5-5.5 5.2-8.3.4-.7.9-1.4 1.4-2.1.5-.7.9-1.4 1.4-2.1.9-1.4 1.8-2.8 2.5-4.3Zm6.8 1.6c0 .6 0 1.3-.2 2 0 .2-.1.5-.2.7-.2.7-.5 1.4-.9 2.1-.5.9-1.2 1.7-1.9 2.3.7-3.1 1.4-6.1 2.1-9.3.4.2.7.6.9 1.1.1.3.2.7.2 1.1Zm-35.2-4.6c-1.5-1.3-1.9-6-.7-7.5.2-.3.7-.5 1-.5h15.1v2.3c-.1 1.3-.4 2.1-1 2.5-.3.2-.6.3-1.1.3-.4 0-1 0-1.6-.2-1.2-.2-2.3-.7-3.5-1-1.7-.4-3.4-.8-5.1.5.8 1.3 1.5 2.6 2.4 3.7.8 1 1.5 2 2.2 3 1.3 2.1 2.2 4.3 2.9 6.6l.9 3.6c.7 3.9.2 4.4-3.7 3.8-1.2-.2-1.6-.6-1.5-1.9.4-6.1-1.5-11.3-6.1-15.3Zm22.2-22.5c-.8.6-1.5 1.3-2.2 2-3.1 3.1-5.7 6.7-10.2 8l-.5-.7c4.1-3.3 8.3-6.5 12.4-9.8l.5.6ZM306 164.8c.3-.6.7-1.2 1.1-1.8.4-.6.8-1.2 1.2-1.7.3-.4.5-.7.8-1.1.8-1 1.7-2.1 2.4-3.2 1.1-1.9 2.1-3.8 3.2-5.7.3-.6.7-1.3 1-1.9.2-.4.5-.7 1-1.4-.3 3.3-8.5 17.8-10.7 19 0-.6-.2-1.3-.2-1.8 0-.2 0-.3.1-.5Zm-15.7-67c-.2 0-.4 0-.7.1-.3 0-.6.2-.8.2h-.2c-.6-.2-1.2-.7-1.6-1.3-.1-.2.5-1 .9-1.3.3-.3.8-.4 1.5-.8-.3-.1-.6-.2-.8-.3-.2 0-.3-.1-.5-.2-.5-.3-.9-.6-1.4-.9.5-.2 1-.5 1.5-.6.5-.1 1.1-.2 1.7-.2V92c-.9-.2-1.8-.4-2.6-.6l-.3-.6c1-.8 5.7-2.3 6.9-2.8 1.2-.6-1.1-.7-1.9-1.9h-.1c-.5.1-1.2.2-1.3.3-.7-.2-1.3-.3-1.9-.5-.6-.2-1.3-.3-2.1-.5.3-.3.6-.5.8-.7.2-.2.5-.4.7-.6 1.4-1.6 3.5-2.4 3.5-5.2 0-3 2.4-4.5 5.5-3.9 1.3.3 2.6.8 3.9 1 2.3.5 2.6 2 2.8 3.6v1c0 .6.1 1.3.4 1.8v.2c0 .2 0 .4-.2.6-.1.3-.3.6-.4.8h.5s0 .4-.3.7c-.4.7-1.1 1.8-1.9 3-1.2 1.8-2.7 3.9-3.7 5.5-.7 1.1-1.1 1.9-1 2.3.9.6 9.1-7.1 9.6-8.3.2-.5.4-1 .8-1.3 1.2-1.2 2.8-1.4 4-.4.8.6 1.7 2.3 1.3 2.8-.9 1.4-1.9 3.1-4 3.2h-3.8c.1.2.3.4.4.6 0 .1.2.3.3.4 0 .1.2.2.3.2h.1c1 0 2 .1 3 0s1 0 1.5-.2c.3 0 .6-.2.9-.3.7-.4 1.4-1 2-2 .1.2.2.5.3.7 0 .2.2.4.3.6.2.4.3.8.4 1.2v.7c-.4 1.9-1.8-.2-3 .3l1.7 1.1c-.4 1-1.3 2.2-1 2.8 0 .1.2.3.2.4l.3.9c.1.6.1 1.1 0 1.7v1.3c0 .3 0 .6-.1.8v1.7c0 .6.3 1.4.7 1.8.1.1.3.3.4.5.1.2.2.4.2.6.1.5.2 1 .2 1.5 0 1-.4 2-1.1 2.4-1.2.8-2.4 1.5-3.6 2.2-1.2.7-2.4 1.4-3.7 2.1-.2.1-.6.2-1 .3h-1.1c-.2 0-.4-.1-.5-.2-2.9-2.7-5.9-5.3-7.2-9.3-.2-.5 0-1.1 0-2.1.7.5 1.3 1 1.8 1.4.5.4 1 .8 1.4 1.1l2.7 2.4c1.7-1 .8-2.3.3-3.5 0-.2-.2-.4-.3-.6-.5-1-.8-1.7-.7-2.1 0-.2.1-.4.3-.6.4-.3 1.1-.6 2.3-1.1 2.4-.9 3.4-3.5 2.3-6.1-.2.3-.4.5-.6.7-1.5 2.3-2.4 3.4-3.7 3.6h-1c-.9 0-1.9-.4-3.4-.9-2.4-.8-5-.6-7.6-.8Zm-.5 11.9h.3c.8 0 1.4.4 2 .9.2.1.3.3.5.4s.3.3.5.4c0 0 .2.1.2.2.4.4.9.7 1.3 1.1.9.7 1.8 1.5 2.7 2.1.5.3.9.7 1.4 1 .4.3.9.5 1.3.7 1.4.7 2.8 1.2 4.2 1.9 2.9-1.8 5.8-3.8 8.8-5.4 1.3-.6 2.2-1.3 2.8-2.5s.2-.3.2-.5c.1-.3.2-.7.3-1 0-.3.2-.6.4-.8.3-.2.7-.4 1.1-.5.4-.1.8-.1 1.2-.1.2 0 .4.1.6.3.3.3.6.7.7 1 .3 2.9-1.8 5.8-4.7 6.8-1.3.4-2.7 1-3.8 1.8-1.4 1-2.8 2.1-4.1 3.2s-.9.7-1.3 1.1c-.3.2-.6.4-.8.6-.8.5-1.7.6-2.8-.1-2-1.3-4.1-2.5-6.3-3.5-1-.5-1.9-1-2.7-1.6-2.4-1.8-4-4.3-5.2-7.3.4-.2.8-.3 1.2-.3Zm4.5 16s0-.2.1-.2c0-.1.2-.3.3-.4l.2-.2.4.2-2.1 6.3c-1.8 5-5.5 9.2-6.2 14.7 0 .6-.5 1.1-1 2-.4-.9-.6-1.7-.9-2.2-.1-.2-.2-.3-.4-.4-.3-.3-.5-.5-.6-.8 0-.2-.1-.4-.1-.6 0-.5.2-.9.4-1.4.3-.6.7-1.2 1.1-1.8 3.4-4.8 6.8-9.5 8.7-15.2ZM271.7 136c1.1 2.3 2.1 4.6 3.2 6.9.4.9.9 1.8 1.3 2.8.8 1.6 1.9 3.2 2.4 4.9 1.2 4 1.2 8.5 4.3 11.8.3.3.3.8.5 1.3 1.1 3.2 2.3 6.4 3.2 9.7.7 2.5 1 5.1 1.5 7.7l-.5.3c-.7-.4-1.4-.9-2-1.3-2.5-1.5-4.9-3.6-7.6-4.2-3.7-.9-6.2-2.6-7.7-6-1.6-3.8-3.3-7.5-4.7-11.4-.4-1.1-.2-2.6.3-3.7 2.4-5 3.5-10.3 4.2-15.8.1-1 .5-1.9.8-2.8h.8Zm8.7-11.5c.1-.5.3-1 .4-1.5.2-1 .4-2 .5-3 .1-1.6.1-3.2 0-4.8s-.2-2.2-.4-3.3c1.4-.3 2.2-.5 2.7-.3.1 0 .3.1.4.3 0 0 0 .1.1.2.2.4.3 1.2.4 2.3 0 .7 0 1.3.1 1.9.2 6.1-.5 12.1-4 17.4-1.4 2-3 3.8-5.4 4.9-.6-1-1.2-2-1.9-3l-.6-1c3.1-2.1 5.2-4.6 6.6-7.3.5-.9.8-1.8 1.1-2.8Zm-4.5 76.4-3.2-5.2.7-.4 3.4 5.1-.9.5Zm0-7.7c.8 1.1 1.3 1.7 1.8 2.3.3.4.7.8 1.1 1.2 1.1 1.2 2.2 2.3 3.1 3.6.8 1 1.4 2.3 2.2 3.8-1.9-.2-7.5-7.8-8.2-10.9Zm12.6-6.7c-2.5 0-4.8-.7-6.7-2.5-.6-.5-1.4-.9-2.1-1.3-.1.2-.2.3-.4.5.5.9.9 1.8 1.4 2.7l6 9c.5.7.7 1.6 1 2.4-.2 0-.4.2-.5.2-2.8-2.6-4-6.8-7.3-9l-.8.6c.6 1.1 1.2 2.1 1.9 3.2 1.8 2.7 3.8 5.4 5.6 8.1.3.5 0 1.5-.2 2.3-.6-.4-1.3-.7-1.7-1.3-1.5-2.7-2.9-5.4-4.4-8.1-.8-1.4-1.9-2.6-2.5-4.1-1.3-3.3-2.9-6.5-5.8-8.7-2.3-1.8-4.8-3.5-6.6-5.6-3.1-3.6-6-7.4-8.8-11.2s-1.9-2.5-2.8-3.8c-.7-1-.6-2.6-.7-4 0-.8.2-1.5.3-2.3v-.8c0-.6 0-1.2-.1-1.9-.1-1.9-.3-3.7-.3-5.6.1-2.7.6-5.3 2.4-7.6.2.1.5.3.7.4.5.2.9.5 1.4.7l.7.4c.1-.9.3-1.4.2-2-.2-2.4-.4-4.9-.5-7.3-.4-8.5 5.5-15.6 13.8-16.9 2.3-.4 4.7-.7 7.4-1.2-.1 2.7-.2 5-.4 7.4-.2 2.8-.9 5.5-3.3 7.3-.6.4-1.3.7-2 1-.1-.2-.2-.3-.3-.5.4-.6.9-1.1 1.1-1.7.2-.5.2-1 .3-1.5-.3 0-.5.1-.8.2-.3 0-.5.1-.8.2 0 0-.1 0-.2.1l-.2.2c-.1.1-.2.2-.4.3-2.6 1.6-4.4 4.2-7.3 5.4-.4.2-.8.3-1.3.4-.2 0-.5.3-.6.6v.4c0 .1.2.2.3.4.1 0 .2.2.3.3 0 0 .2.1.3.2.1 0 .3.1.4.2 0 0 .2 0 .2.1.2.1.4.3.6.5 0 0 0 .1.1.2 2.4 6.1 2.8 12.2-.4 18.1-.5.9-1.7 1.5-2.7 1.9-.9.4-1.8.7-2.7 1.1-.9.3-1.9.6-2.8 1 0 .2.1.3.2.4 0 .1 0 .2.1.3.2.2.4.3.6.5h.2c1.4.5 2.6 1.2 3.6 2.1 1.7 1.5 3 3.4 4.1 5.4.2.4.4.8.6 1.3.4.9.8 1.8 1.1 2.7.2.4.4.9.6 1.3.9 1.9 1.6 4.1 3 5.6.7.7 1.8 1.1 2.9 1.4.7.2 1.3.4 2 .6.2 0 .4.1.6.2.4 0 .8.2 1.3.2s.8.1 1.2.2c.6.1 1.1.4 1.5.7 2.7 2.4 5.6 4.3 9 5.5.6.2 1 1 1.5 1.5-.7.4-1.5 1.1-2.2 1.1Zm4-9.1c-2.3.7-3.2-.4-3.3-4.2.4 0 .8 0 1.1-.1h.8c.4 0 .7.1.9.3.2.2.4.4.5.8 0 .2.1.5.1.8v2.4Zm-4.7-14.7c-1.4-.8-1.8-1.5-1.2-2.7.5-.9 1-1.9 1.5-2.8.5-.9.9-1.9 1.3-2.9.8-2 1.7-4.1 2.5-6.1.8-2.1 1.7-4.2 2.5-6.4 0 1.5 0 2.9-.2 4.3 0 .5-.2.9-.3 1.4-.3 1.4-.7 2.7-1.2 3.9-1.4 3.8-3.4 7.5-5 11.3Zm6.3 14.5c-.2-1.2-.5-2.4-.6-3.7 0-.2.3-.6.5-.7.2 0 .5.1.6.3v.2c.1 1.2.2 2.4.3 3.7h-.8Zm1.7-4.2c1-.7 2.9-1 4.1-.5.2 0 .4.2.5.5 0 .1.1.2.2.4.3.7.5 1.7.8 2.4-.2.3-.3.5-.5.8-1.6 0-3.3.5-4.8 0-.5-.1-.9-3.2-.4-3.6Zm.4 31.4c-.1 0-.3-.2-.4-.4s-.2-.4-.2-.5c.2-.7.5-1.4.9-2.1 1-1.7 2.1-3.4 3-5.2.6-1.2 1-2.4 1.5-3.7.3.2.4.3.4.4 0 .2.1.5.1.8-.4 3.9-2.5 7.1-4.4 10.4-.1.2-.7.4-1 .3Zm5.2 9.4c-.9 3.7-2.5 7.5-3.8 8.4-1.2-1.1-1.2-2.3-.6-3.6l4.2-9c.1-.2.2-.4.4-.7.1-.3.3-.6.5-1v.8c0 1.4-.2 3.3-.7 5.1Zm1.2-37.7c-.2-1-.5-2-.7-3l-.2-1c.3 0 .6-.1.9-.2.3 1.3.5 2.6.8 4h-.8Zm11.5-1.3c-3 .4-6.1.8-9.1 1.2-.2 0-.7-.4-.7-.7-.3-1.1-.5-2.3-.8-3.5 1.7-.3 3.2-.5 4.8-.8 1.6-.3 3.2-.5 4.9-.8l.4.9c.4.9.8 2 1.3 3.1-.3.2-.5.5-.7.5Zm1.7-1.1c-.8-1.5-1.5-3-2.3-4.5l.6-.3 2.7 4.2-1 .6Zm4.9-2.5c-.5.2-.9.4-1.2.6-.5.2-1 .3-1.4.3-.4 0-.7-.2-1-.5-.6-.6-1.1-1.7-1.8-3.4 2.1-2.3 4.3-4.5 6.5-6.8-1.6 3.1-1.5 6.1.5 9.1-.6.3-1.1.6-1.5.8Zm11.2-5.6c-.5 0-.8-.4-1.1-1-.2-.4-.4-.7-.7-1.1s-.5-.7-.7-1l-.5.3 1.2 3.3c-.9.5-1.8 1-2.7 1.4-.9.5-1.9 1-3 1.6-.5-1.8-1.8-3.8-1.2-4.8.5-.9 1.2-1.8 1.9-2.6 1.2-1.4 2.5-2.7 3.7-4.1h.2l.3.3-.3.9c-.2.6-.5 1.3-.7 2l-.4 1.1c.6-.3 1.2-.4 1.7-.4h.5c1.7.1 2.4 1.8 3 3.6-.4.3-.7.4-1 .4ZM331 127c.4 1 .9 2 1.4 3 0 .2.2.3.3.5.1.2.3.4.4.6.4.6.7 1.1.9 1.5.1.3.3.5.3.8 0 .3.1.5.1.7v.8c-.2.8-.6 1.7-1.4 3.1-5.1-9.3-7.9-19.1-7.7-29.8 2.8-.2 2.7-.2 2.9 2.3.3 3 .5 5.9 1 8.8.3 1.9.6 3.9 1.2 5.8.2.7.4 1.3.6 1.9Z" fill="#192e35"/>
        <path fill="#f47c20" d="M0 245h335v89.5H0z"/>
    </g>
    <g fill="#fff">
        <path d="M34.3 16.7c0 .4-.1.7-.4.9l-4.3 4.3-4.6-2.6v-2.6c0-.7.6-1.3 1.3-1.3s1.3.6 1.3 1.3V20l4.2-4.2c.5-.5 1.4-.5 1.9 0 .3.3.4.6.4 1M32.9 29.1c-.2 0-.4 0-.5-.1-.2 0-.3-.2-.4-.3l-4.2-4.2v3.3c0 .7-.6 1.3-1.3 1.3s-1.3-.6-1.3-1.3v-2.6l4.6-2.6 4.3 4.3c.9.9.2 2.3-1 2.3M29.4 22.1s0-.1-.1-.2l-1.2-.7-3.1-1.8-2.6-1.5c-.1 0-.3 0-.4.1v8.1c0 .2.1.3.3.3h.2l2.6-1.5 4.2-2.4V22.2Zm-1 .2s0 .1-.1.1L25 24.3l-2 1.2h-.3V19.3c0-.1.1-.2.2-.2h.1l2 1.2 3.3 1.9s.1.2.1.3Z"/>
        <path d="M27.5 22.3v.1L25 23.8l-1.5.9h-.2v-4.6s0-.2.2-.2l1.5.9 2.5 1.4v.1M56.6 22.1s0-.1-.1-.1l-3.8-1.9-2.3-1.2c-.2 0-.4 0-.4.2v6.3c0 .2.3.3.5.2l2.3-1.2 3.7-2s.1 0 .1-.1v-.1Zm-.9.1v.1l-2.9 1.5-1.8.9c-.1 0-.3 0-.3-.2v-4.9c0-.1 0-.2.2-.2l1.8.9 2.9 1.5v.2Z"/>
        <path d="m54.8 22.2-2.2 1.2-1.3.7h-.2v-3.7s0-.2.1-.1l1.4.7 2.2 1.1M37 19h3.3c1.6 0 2.7.8 2.8 2.1s-1.1 2.2-2.7 2.2h-1.7v2.1h-1.5v-6.5Zm3.1 3.1c.8 0 1.3-.4 1.3-.9s-.5-.9-1.3-.9h-1.5v1.9h1.6ZM49.2 24.3v1.3H44v-6.4h1.5v5.2h3.7ZM58.2 23l-2.9-4.1h1.8l1.8 2.8 1.8-2.9h1.7L59.6 23v2.3h-1.5V23ZM63.6 19.3h.8v3.6l3.7-3.6h1.1l-3 3 3.3 3.5h-1.1l-2.8-3-1.1 1.1v2h-.8v-6.5ZM69.9 22.4c0-1.8 1.7-3.4 3.7-3.4s3.7 1.5 3.8 3.3-1.7 3.4-3.7 3.4-3.7-1.5-3.8-3.3Zm6.6 0c0-1.4-1.3-2.7-2.9-2.6s-2.9 1.3-2.9 2.7 1.4 2.7 2.9 2.7 2.9-1.3 2.8-2.7ZM78.4 24.8l.5-.6c.6.5 1.4.9 2.4.9 1.1 0 1.7-.6 1.7-1.2 0-.7-.7-1-2-1.2-1.5-.3-2.4-.7-2.4-1.8 0-1 1-1.9 2.4-1.9.9 0 1.8.3 2.6.9l-.5.6c-.6-.5-1.3-.8-2.1-.8-.9 0-1.5.5-1.5 1.1 0 .7.7.9 2 1.2 1.4.3 2.4.7 2.4 1.9 0 1-.8 1.9-2.5 1.9-1.2 0-2.1-.4-2.9-1ZM85.3 19.3h.8l2.8 4.5 2.6-4.6h.8v6.5h-.7v-4.9l-2.7 4.6-2.8-4.5v4.9h-.8v-6.5ZM93.9 22.4c0-1.8 1.7-3.4 3.7-3.4s3.7 1.5 3.8 3.3-1.7 3.4-3.7 3.4-3.7-1.5-3.8-3.3Zm6.6 0c0-1.4-1.3-2.7-2.9-2.6s-2.9 1.3-2.9 2.7 1.4 2.7 2.9 2.7 2.9-1.3 2.8-2.7ZM102.4 24.8l.5-.6c.6.5 1.4.9 2.4.9 1.1 0 1.7-.6 1.7-1.2 0-.7-.7-1-2-1.2-1.5-.3-2.4-.7-2.4-1.8 0-1 1-1.9 2.4-1.9.9 0 1.8.3 2.6.9l-.5.6c-.6-.5-1.3-.8-2.1-.8-.9 0-1.5.5-1.5 1.1 0 .7.7.9 2 1.2 1.4.3 2.4.7 2.4 1.9 0 1-.8 1.9-2.5 1.9-1.2 0-2.1-.4-2.9-1Z"/>
    </g>
    <path fill="#fff" d="M12.9 105.1v-6.8h.8v6.8zM12.9 125.8V119h.8v6.8zM0 222.8h335V245H0z"/>
    <path fill="#192e35" d="M11.1 236.6v-6.1h.8v6.1z"/>
    <path fill="#2c3f5d" d="M103.7 236.6v-6.1h.8v6.1z"/>
    <path d="M15.9 265c.2 0 .4 0 .5-.2.1-.1.2-.3.2-.5s0-.4-.2-.5c-.1-.1-.3-.2-.5-.2s-.4 0-.5.2c-.1.1-.2.3-.2.5s0 .4.2.5c.1.1.3.2.5.2Zm0 3.8c-1-.9-1.8-1.7-2.3-2.4-.5-.7-.8-1.4-.8-2.1 0-.9.3-1.7.9-2.3.6-.6 1.3-.8 2.1-.8s1.5.3 2.1.8c.6.6.9 1.3.9 2.3s-.3 1.3-.8 2.1c-.5.7-1.3 1.5-2.3 2.4ZM12.8 299.2v-5.9h.7v5.9zM12.8 317.9V312h.7v5.9z" fill="#192e35"/>
    <path fill="#fff" d="M207.6 304.7H335v22.9H207.6z"/>
</svg>
