<svg id="ea1234c1-1b00-4345-94f4-0def64b061b7" data-name="af3f2329-c510-4f2d-814e-73ffa1eb491f" xmlns="http://www.w3.org/2000/svg" xmlns:xlink="http://www.w3.org/1999/xlink" width="335" height="335" viewBox="0 0 335 335">
  <defs>
    <radialGradient id="b004d557-f7f7-48b9-8246-2f32d45683f0" cx="118.64" cy="203.35" r="141.45" gradientTransform="matrix(1.3, 0, 0, -1.09, 12.4, 388.78)" gradientUnits="userSpaceOnUse">
      <stop offset="0" stop-color="#fff"/>
      <stop offset="1" stop-color="#f1f2f2"/>
    </radialGradient>
    <linearGradient id="f1e6c85f-141d-4010-b423-05573ef9fc7d" y1="70.64" x2="328.2" y2="70.64" gradientTransform="matrix(1, 0, 0, -1, 0, 336)" gradientUnits="userSpaceOnUse">
      <stop offset="0" stop-color="#f7941d"/>
      <stop offset="1" stop-color="#ed1c24"/>
    </linearGradient>
    <clipPath id="f74ed97f-2960-4e1b-87c6-998f4943305c">
      <polygon points="335 335 142.1 335 142.1 48.4 334.6 48.4 335 335" fill="none"/>
    </clipPath>
    <linearGradient id="ba98a386-8c70-4cd5-ad12-d5d35db5fdeb" x1="209.61" y1="102.15" x2="372.33" y2="102.15" xlink:href="#f1e6c85f-141d-4010-b423-05573ef9fc7d"/>
    <linearGradient id="fd56a0f0-7167-4f39-a973-fdf16392cc62" x1="236.59" y1="662.24" x2="258.37" y2="662.24" gradientTransform="translate(48 -586.4) rotate(-1.7)" xlink:href="#f1e6c85f-141d-4010-b423-05573ef9fc7d"/>
    <linearGradient id="bb8c6757-8977-46a8-a599-f6431e37b7a3" x1="240.26" y1="671.61" x2="261.81" y2="671.61" gradientTransform="translate(48 -586.4) rotate(-1.7)" xlink:href="#f1e6c85f-141d-4010-b423-05573ef9fc7d"/>
    <linearGradient id="a0200a87-a878-4b71-8d26-f6d6073078db" x1="214.72" y1="678.5" x2="243.34" y2="678.5" gradientTransform="translate(48 -586.4) rotate(-1.7)" xlink:href="#f1e6c85f-141d-4010-b423-05573ef9fc7d"/>
    <linearGradient id="ecc8adfc-280f-4d84-be68-dcd6f4db19a1" x1="215.23" y1="678.94" x2="232.43" y2="678.94" gradientTransform="translate(48 -586.4) rotate(-1.7)" xlink:href="#f1e6c85f-141d-4010-b423-05573ef9fc7d"/>
    <linearGradient id="bd7c66f8-2658-4f82-9ab8-bee9864a3ec7" x1="23.24" y1="183.81" x2="31.2" y2="183.81" gradientTransform="matrix(0.71, 0.71, 0.71, -0.71, -138.26, 266.34)" xlink:href="#f1e6c85f-141d-4010-b423-05573ef9fc7d"/>
    <linearGradient id="aa3c6a65-43c3-4f3d-96c9-0eddefac6ee8" x1="23.13" y1="177.8" x2="31.09" y2="177.8" gradientTransform="matrix(0.71, 0.71, 0.71, -0.71, -134.1, 268.17)" xlink:href="#f1e6c85f-141d-4010-b423-05573ef9fc7d"/>
    <radialGradient id="bc6e5490-3195-4cf3-8f4d-4ac557c5d369" cx="319.74" cy="35.92" r="8.63" gradientTransform="matrix(0.71, 0.71, 0.71, -0.71, 68.28, 99.43)" xlink:href="#b004d557-f7f7-48b9-8246-2f32d45683f0"/>
    <linearGradient id="bb0347b4-c6de-4b14-95b2-1b56eb1f804a" x1="311.1" y1="28.47" x2="328.37" y2="28.47" gradientTransform="matrix(0.71, 0.71, 0.71, -0.71, 73.52, 101.66)" xlink:href="#f1e6c85f-141d-4010-b423-05573ef9fc7d"/>
    <radialGradient id="be18ee56-d872-47a4-a2e8-0a2f829f3c2b" cx="319.48" cy="22.36" r="8.65" gradientTransform="matrix(0.71, 0.71, 0.71, -0.71, 77.79, 103.51)" xlink:href="#b004d557-f7f7-48b9-8246-2f32d45683f0"/>
    <linearGradient id="be0ea582-5b3b-4bd4-950e-35f66bdb23a1" x1="310.84" y1="15.39" x2="328.11" y2="15.39" gradientTransform="matrix(0.71, 0.71, 0.71, -0.71, 82.74, 105.56)" xlink:href="#f1e6c85f-141d-4010-b423-05573ef9fc7d"/>
    <linearGradient id="aa90edcf-3327-4a20-9141-a63a84745b33" x1="181.57" y1="601.74" x2="194.87" y2="601.74" gradientTransform="matrix(0.71, 0.71, 0.71, -0.71, -240.19, 309.5)" xlink:href="#f1e6c85f-141d-4010-b423-05573ef9fc7d"/>
    <linearGradient id="b3378729-80c4-48bc-8e8c-9d4e81fa6ce3" x1="181.38" y1="591.77" x2="194.67" y2="591.77" gradientTransform="matrix(0.71, 0.71, 0.71, -0.71, -240.19, 309.5)" xlink:href="#f1e6c85f-141d-4010-b423-05573ef9fc7d"/>
    <linearGradient id="a2f48fc8-b3b4-4d3f-b034-6454c4c533e1" x1="16.46" y1="242.31" x2="23.08" y2="242.31" xlink:href="#f1e6c85f-141d-4010-b423-05573ef9fc7d"/>
    <linearGradient id="adbbd9df-5265-468e-b4b6-7c5fc948ebbb" x1="15.64" y1="243.15" x2="21.44" y2="243.15" xlink:href="#f1e6c85f-141d-4010-b423-05573ef9fc7d"/>
    <linearGradient id="bbfd6a13-82ed-461a-9b3d-b1cb8cf12933" x1="17.38" y1="240.7" x2="23.17" y2="240.7" xlink:href="#f1e6c85f-141d-4010-b423-05573ef9fc7d"/>
    <linearGradient id="fec53938-0bb3-4c67-bf0f-ea2cafe73735" x1="14.64" y1="243.71" x2="17.59" y2="243.71" xlink:href="#f1e6c85f-141d-4010-b423-05573ef9fc7d"/>
    <linearGradient id="bd523fe4-ddc3-4a9f-bccf-ff8dee673eb0" x1="17.25" y1="238.15" x2="22.08" y2="238.15" xlink:href="#f1e6c85f-141d-4010-b423-05573ef9fc7d"/>
    <linearGradient id="b0b0a6f9-1591-44a8-ba8b-86dd3dd27c3f" x1="15.44" y1="238.3" x2="18.29" y2="238.3" xlink:href="#f1e6c85f-141d-4010-b423-05573ef9fc7d"/>
    <linearGradient id="e44a5572-8415-4fb0-ab79-a8e36241f50c" x1="14.07" y1="239.59" x2="16.05" y2="239.59" xlink:href="#f1e6c85f-141d-4010-b423-05573ef9fc7d"/>
    <linearGradient id="f4beaf7f-25bf-490d-9239-12964fcc04b1" x1="13.91" y1="242.21" x2="15.25" y2="242.21" xlink:href="#f1e6c85f-141d-4010-b423-05573ef9fc7d"/>
    <linearGradient id="f4d332f5-3bf2-4eac-b20d-d29718936758" x1="16.46" y1="217.9" x2="23.08" y2="217.9" xlink:href="#f1e6c85f-141d-4010-b423-05573ef9fc7d"/>
    <linearGradient id="bd635d1e-9e82-4321-a16b-54cc7fbb7526" x1="15.64" y1="218.9" x2="21.44" y2="218.9" xlink:href="#f1e6c85f-141d-4010-b423-05573ef9fc7d"/>
    <linearGradient id="ff10bb8f-2b28-428f-b9e6-3b53da367492" x1="17.38" y1="216.18" x2="23.17" y2="216.18" xlink:href="#f1e6c85f-141d-4010-b423-05573ef9fc7d"/>
    <linearGradient id="a0a0ea30-5559-4aaa-b376-53455f8c0c08" x1="14.64" y1="219.25" x2="17.59" y2="219.25" xlink:href="#f1e6c85f-141d-4010-b423-05573ef9fc7d"/>
    <linearGradient id="be66f117-ad87-43e3-957b-3e42824cd6ff" x1="17.25" y1="213.75" x2="22.08" y2="213.75" xlink:href="#f1e6c85f-141d-4010-b423-05573ef9fc7d"/>
    <linearGradient id="a729570c-c8d2-4d8d-91ab-2b7f6c8a6c4a" x1="15.44" y1="213.8" x2="18.29" y2="213.8" xlink:href="#f1e6c85f-141d-4010-b423-05573ef9fc7d"/>
    <linearGradient id="b6017c48-6644-4a5e-a0f8-efb7ab09ca9e" x1="14.07" y1="215.05" x2="16.05" y2="215.05" xlink:href="#f1e6c85f-141d-4010-b423-05573ef9fc7d"/>
    <linearGradient id="b317b68b-eaa9-4a83-9042-165c1cff1e41" x1="13.91" y1="217.77" x2="15.25" y2="217.77" xlink:href="#f1e6c85f-141d-4010-b423-05573ef9fc7d"/>
    <linearGradient id="a7994111-219c-4cf8-a3dc-eabc5dd9e2a7" x1="16.48" y1="148.05" x2="23.15" y2="148.05" xlink:href="#f1e6c85f-141d-4010-b423-05573ef9fc7d"/>
    <linearGradient id="a08ec705-826a-4f25-8630-b659c084892a" x1="15.66" y1="149.1" x2="21.5" y2="149.1" xlink:href="#f1e6c85f-141d-4010-b423-05573ef9fc7d"/>
    <linearGradient id="ff4842f6-9043-4350-bd2a-598f3abc5e95" x1="17.41" y1="146.3" x2="23.24" y2="146.3" xlink:href="#f1e6c85f-141d-4010-b423-05573ef9fc7d"/>
    <linearGradient id="b6ab9b77-d8b5-4dd7-a8d6-c616faf4467f" x1="14.64" y1="149.45" x2="17.62" y2="149.45" xlink:href="#f1e6c85f-141d-4010-b423-05573ef9fc7d"/>
    <linearGradient id="ec7f9d92-8b37-48f8-86a9-ed82b2feda85" x1="17.28" y1="143.85" x2="22.14" y2="143.85" xlink:href="#f1e6c85f-141d-4010-b423-05573ef9fc7d"/>
    <linearGradient id="bc3abd20-06be-42e9-980f-18df13841823" x1="15.45" y1="144.15" x2="18.32" y2="144.15" xlink:href="#f1e6c85f-141d-4010-b423-05573ef9fc7d"/>
    <linearGradient id="b6d926d8-40f2-46f6-8db4-8cd358d471b2" x1="14.07" y1="145.2" x2="16.07" y2="145.2" xlink:href="#f1e6c85f-141d-4010-b423-05573ef9fc7d"/>
    <linearGradient id="e0a8eebf-db81-4f9b-8be5-fb4a2673e2cc" x1="13.91" y1="147.97" x2="15.26" y2="147.97" xlink:href="#f1e6c85f-141d-4010-b423-05573ef9fc7d"/>
    <linearGradient id="abebda86-7be0-46d1-81e1-15fd84341fcb" x1="124.31" y1="148.05" x2="130.97" y2="148.05" xlink:href="#f1e6c85f-141d-4010-b423-05573ef9fc7d"/>
    <linearGradient id="f113c6c0-ac1f-4098-a8ab-0f7c0a608083" x1="123.48" y1="149.1" x2="129.32" y2="149.1" xlink:href="#f1e6c85f-141d-4010-b423-05573ef9fc7d"/>
    <linearGradient id="ea27867a-410f-442f-90de-321937e00eaf" x1="125.24" y1="146.3" x2="131.07" y2="146.3" xlink:href="#f1e6c85f-141d-4010-b423-05573ef9fc7d"/>
    <linearGradient id="e475f061-7494-4e7b-8f48-d82a8201346d" x1="122.47" y1="149.45" x2="125.45" y2="149.45" xlink:href="#f1e6c85f-141d-4010-b423-05573ef9fc7d"/>
    <linearGradient id="e9f3e740-1ce6-4bef-b7f1-099e9d3fcaab" x1="125.11" y1="143.85" x2="129.97" y2="143.85" xlink:href="#f1e6c85f-141d-4010-b423-05573ef9fc7d"/>
    <linearGradient id="a814bd50-6676-4222-81a7-b29d60ff372d" x1="123.28" y1="144" x2="126.15" y2="144" xlink:href="#f1e6c85f-141d-4010-b423-05573ef9fc7d"/>
    <linearGradient id="a76f7f30-d21e-438b-8082-c3a179aca953" x1="121.9" y1="145.2" x2="123.89" y2="145.2" xlink:href="#f1e6c85f-141d-4010-b423-05573ef9fc7d"/>
    <linearGradient id="e89e2af3-e5b5-4902-b520-086a162318b1" x1="121.74" y1="147.97" x2="123.08" y2="147.97" xlink:href="#f1e6c85f-141d-4010-b423-05573ef9fc7d"/>
    <linearGradient id="abef76c2-cb35-4019-9561-13d2371b607d" x1="16.48" y1="123.65" x2="23.15" y2="123.65" xlink:href="#f1e6c85f-141d-4010-b423-05573ef9fc7d"/>
    <linearGradient id="feec9d7b-645f-4085-88c1-38c9684fc133" x1="15.66" y1="124.35" x2="21.5" y2="124.35" xlink:href="#f1e6c85f-141d-4010-b423-05573ef9fc7d"/>
    <linearGradient id="aa02c0eb-2d71-4814-856d-2af4f0fb8292" x1="17.41" y1="121.8" x2="23.24" y2="121.8" xlink:href="#f1e6c85f-141d-4010-b423-05573ef9fc7d"/>
    <linearGradient id="bbe47268-ef83-4d32-b57f-5b9e2ca34630" x1="14.64" y1="124.9" x2="17.62" y2="124.9" xlink:href="#f1e6c85f-141d-4010-b423-05573ef9fc7d"/>
    <linearGradient id="bfa1ba9c-e922-4ce3-b4fe-bc64f09204cc" x1="17.28" y1="119.45" x2="22.14" y2="119.45" xlink:href="#f1e6c85f-141d-4010-b423-05573ef9fc7d"/>
    <linearGradient id="a856d38e-0702-4e5c-9825-7f597e0ddbca" x1="15.45" y1="119.6" x2="18.32" y2="119.6" xlink:href="#f1e6c85f-141d-4010-b423-05573ef9fc7d"/>
    <linearGradient id="f2d7a8b4-3ad4-4d6e-b055-ce28499bcc8d" x1="14.07" y1="120.8" x2="16.07" y2="120.8" xlink:href="#f1e6c85f-141d-4010-b423-05573ef9fc7d"/>
    <linearGradient id="b09b67db-f3dc-460f-82b4-a3799b29c338" x1="13.91" y1="123.34" x2="15.26" y2="123.34" xlink:href="#f1e6c85f-141d-4010-b423-05573ef9fc7d"/>
  </defs>
  <g>
    <g>
      <polygon points="335 335 0 335 0 0 334.4 0 335 335" fill="url(#b004d557-f7f7-48b9-8246-2f32d45683f0)"/>
      <g>
        <rect y="221.6" width="328.2" height="87.51" fill="url(#f1e6c85f-141d-4010-b423-05573ef9fc7d)"/>
        <rect y="288.3" width="334.9" height="16.27" fill="#151310"/>
        <g clip-path="url(#f74ed97f-2960-4e1b-87c6-998f4943305c)">
          <g>
            <path d="M286.5,341.2c3.7-17-3-34.7-12.9-49s-23-25.9-34.3-39.1-21.2-28.7-22.6-46,6.2-35.1,18.4-47.7,28.7-20.6,45.8-24.8c31.5-7.8,69-1.2,88.5,24.9l2.1,182Z" fill="#feef89"/>
            <path d="M373.3,343.2l-89-.3.5-2.1c4.2-19.5-6.1-38.2-12.7-47.6s-13.9-17.1-21.3-25c-4.3-4.5-8.7-9.2-12.9-14-14.2-16.6-21.7-32-23-47-1.4-17,5.7-35.4,19-49.1,11.5-11.8,27.6-20.6,46.6-25.2,29.9-7.4,69.5-2.4,90.3,25.5l.3.5Zm-84.7-3.8,81.1.3-2.1-179.6c-19.9-26.2-57.6-30.9-86.3-23.8-18.3,4.5-33.9,12.9-44.9,24.3-12.6,12.9-19.3,30.3-18,46.3,1.2,14.3,8.5,29,22.2,45,4.1,4.8,8.5,9.4,12.7,13.9,7.5,8,15.3,16.2,21.7,25.4,11.4,16.3,16.1,33.3,13.6,48.2Z" fill="#151310"/>
            <path d="M370.6,343.4h0l-87.4-.3a1.6,1.6,0,0,1-1.3-.6,1.7,1.7,0,0,1-.4-1.5c4.4-20.1-6.2-39.3-13-48.9s-14.3-17.6-21.9-25.7c-4.4-4.6-8.9-9.4-13.2-14.4-14.6-17.1-22.3-32.8-23.6-48.2-1.5-17.6,5.8-36.4,19.4-50.4,11.8-12.2,28.4-21.2,47.9-26,30.7-7.5,71.3-2.4,92.7,26.3a1.7,1.7,0,0,1,.3,1l2.2,186.9a1.3,1.3,0,0,1-.5,1.3A1.7,1.7,0,0,1,370.6,343.4Zm-85.2-3.8,83.4.3-2.2-184.6c-20.5-26.9-59.2-31.7-88.7-24.4-18.8,4.6-34.8,13.2-46.2,24.9-12.9,13.3-19.8,31.2-18.4,47.7,1.2,14.6,8.7,29.7,22.8,46.2,4.2,4.9,8.7,9.7,13,14.3,7.8,8.2,15.7,16.7,22.3,26.1,11.7,16.7,16.6,34.2,14,49.5Z" fill="url(#ba98a386-8c70-4cd5-ad12-d5d35db5fdeb)"/>
          </g>
        </g>
      </g>
      <g>
        <g>
          <g>
            <path d="M307.2,95.8c2.8-.6,5-3,7-5a69.4,69.4,0,0,0,7.2-8.1,41.8,41.8,0,0,0,5-8.7,40.9,40.9,0,0,0,2.8-9.2,32.8,32.8,0,0,0,1-6.9L328,62.4s4.9-13.1-3-25.3c0,0,2.4,13.3-4.8,19.6l2.8-.9c-.3.1-.9,1.2-1.1,1.5s-2,2.3-3,3.3a25.4,25.4,0,0,1-14.3,7.6c-3.5.4-6.9-.2-10.3,0a14.2,14.2,0,0,0-9.1,4.1,19,19,0,0,0-5.6,13.5c.1,6,5,12.7,11.4,12.6,1,0-2.3-2.7-1.3-3.1s2.1-.8,1.6-2.3,6.2,1.2,9.3,1.8l5.5,1A2.1,2.1,0,0,0,307.2,95.8Z" fill="#151310"/>
            <path d="M310.4,83.7c-.1-.2,2-2.1,2.1-2.4a71.6,71.6,0,0,0,4.8-6.1A43.6,43.6,0,0,0,323.8,61c.4-1.6.7-3.3,1.1-5s.5-2.1.8-3.1c-.6,1.3-1.5,2.6-2.2,3.8s-2.9,4.5-4.5,6.7a41.4,41.4,0,0,1-13.1,10.8c-.4.3-1.4.3-1.4.8s.7.8.9,1l1.8,2.5c.2.3,4-3.6,7.9-7.6a61.9,61.9,0,0,0,7.7-10,55.1,55.1,0,0,1-13.5,18.9Z" stroke="#fff" stroke-miterlimit="10" stroke-width="0.07" fill="url(#fd56a0f0-7167-4f39-a973-fdf16392cc62)"/>
            <path d="M319.6,61.3s-6.7,9.6-13.8,11.9L302,71.4S311.4,71.1,319.6,61.3Z" fill="#fff" stroke="#aeadae" stroke-miterlimit="10" stroke-width="0.15"/>
            <path d="M328,47c0,1.7.1,3.4,0,5.1a46,46,0,0,1-.6,5.2,81.3,81.3,0,0,1-2.1,9.8,43.4,43.4,0,0,1-3.6,8.6,63.4,63.4,0,0,1-6.2,9.1,36.5,36.5,0,0,1-6.7,6.9l-.6.4,1.2-5.2c.1-.5,1.5-1.4,1.8-1.7A51.4,51.4,0,0,0,315,81a47.2,47.2,0,0,0,6.2-9.1,54.6,54.6,0,0,0,3.9-9.7,61.8,61.8,0,0,0,2.1-10.4c.2-1.3.2-2.5.4-3.8a6.8,6.8,0,0,1,.2-1.4c0-.2,0-.5.1-.6A3.4,3.4,0,0,1,328,47Z" fill="#fff" stroke="#aeadae" stroke-miterlimit="10" stroke-width="0.15"/>
            <path d="M329.4,60.8a46.8,46.8,0,0,1-2,8.4,48.3,48.3,0,0,1-3.5,8.1,50.2,50.2,0,0,1-5.3,7.7l-2,2.4h-.2a12.9,12.9,0,0,1-1.6,1.7c-.5.5-5.8,5.7-6.1,5.4l2.3-4,.5-.4,1.4-1.1a51.7,51.7,0,0,0,11.2-14.7c.8-1.8,1.6-3.6,2.3-5.5A36.6,36.6,0,0,0,329.4,60.8Z" fill="url(#bb8c6757-8977-46a8-a599-f6431e37b7a3)"/>
          </g>
          <g>
            <circle cx="297.3" cy="85.2" r="15.4" fill="#151310" stroke="#fff" stroke-miterlimit="10" stroke-width="0.53"/>
            <circle cx="297.3" cy="85.2" r="14.3" fill="url(#a0200a87-a878-4b71-8d26-f6d6073078db)"/>
            <path d="M291.2,72.7a5,5,0,0,1,2.1-.2,19.7,19.7,0,0,1,4.2.1,17.8,17.8,0,0,1,7.3,2.9,16,16,0,0,1,5,5.9,8.1,8.1,0,0,1,1.1,2.7,14.8,14.8,0,0,0-1.3-5.1,13.6,13.6,0,0,0-5.3-5.6A14.1,14.1,0,0,0,291.2,72.7Z" fill="#f2f0f0"/>
            <path d="M298.4,72.7a11.6,11.6,0,0,0-8.2.8,13.8,13.8,0,0,0-6.7,12.3,14.2,14.2,0,0,0,6.9,11.4,22.8,22.8,0,0,0,3.6,1.5,6.3,6.3,0,0,0,1.9.3h1.8a7.4,7.4,0,0,0,3.3-.5c-.1.1-.9-.6-1.1-.7l-1.2-.7-2.4-1.6a17.9,17.9,0,0,1-3.9-4.8,12.7,12.7,0,0,1,.1-11.4,26,26,0,0,1,2.7-3.8l1.7-1.7C297.1,73.6,298,72.6,298.4,72.7Z" fill="url(#ecc8adfc-280f-4d84-be68-dcd6f4db19a1)"/>
            <path d="M308.9,76.3c-4.2.1-8.5,2.2-12,4.4a39.7,39.7,0,0,0-7,5.2,40.5,40.5,0,0,0-5.7,6l-.2.4c.2-.1,0,.2.2,0l.3.3c1-1.1,2-2.2,3.1-3.2l3.4-3a66.1,66.1,0,0,1,7.4-5.3,51.2,51.2,0,0,1,5.7-3A14,14,0,0,1,308.9,76.3Z" fill="#151310"/>
            <path d="M311.3,82.2l-.5-.4-.9-.7c-2.5-1.4-4.3.2-6.2,1.9s-8.9,15.5-9,16.3.7,1.5,1.5.1,6.1-13,8-15.1,2.3-3.4,4.4-3.1a4.9,4.9,0,0,1,2.7,1.5l.7.3v-.7Z" fill="#151310"/>
            <path d="M304.3,72.3c-.2.6-1.1,1-1.6,1.3l-2.2,1c-2.7.9-5.5.2-8.2.5a16.9,16.9,0,0,0-7.3,2.3l-1.3,1,1.8-.6,2.3-.9c2.9-.7,5.8-.5,8.7-.8S303.2,75.2,304.3,72.3Z" fill="#151310"/>
            <path d="M298.7,71.8a6.6,6.6,0,0,0-1.9-.9s.2,0,.8.5c2.8,2.6,5.5,5,7.5,8.3a25.5,25.5,0,0,1,2,4.8c.2,1.1.4,2.3.5,3.4s.1,1.2.2,1.8v.8c0,.2-.2,4.9-.3,5l.5-.3h.5c.1-.2.1-.5.2-.7v-.7a11,11,0,0,0,.2-1.8,13.1,13.1,0,0,0,0-2.8,17,17,0,0,0-.4-2.2,42.1,42.1,0,0,0-1.2-4.8,13.9,13.9,0,0,0-1.2-2.8,23.7,23.7,0,0,0-5.6-6.2l-1.1-.8A1.3,1.3,0,0,0,298.7,71.8Z" fill="#151310"/>
          </g>
        </g>
        <g>
          <rect x="8.2" y="149.5" width="5.6" height="5.63" transform="translate(-104.1 52) rotate(-44.8)" fill="#151310"/>
          <rect x="8.2" y="152.8" width="5.6" height="5.63" transform="translate(-106.5 52.9) rotate(-44.8)" fill="url(#bd7c66f8-2658-4f82-9ab8-bee9864a3ec7)"/>
          <rect x="8.1" y="155.7" width="5.6" height="5.63" transform="translate(-108.5 53.7) rotate(-44.8)" fill="#151310"/>
          <rect x="8" y="158.8" width="5.6" height="5.63" transform="translate(-110.8 54.6) rotate(-44.8)" fill="url(#aa3c6a65-43c3-4f3d-96c9-0eddefac6ee8)"/>
        </g>
        <g>
          <rect x="313.7" y="294" width="12.2" height="12.22" transform="translate(-118.6 314) rotate(-45)" fill="url(#bc6e5490-3195-4cf3-8f4d-4ac557c5d369)"/>
          <rect x="313.6" y="301.5" width="12.2" height="12.22" transform="translate(-123.9 316.2) rotate(-45)" fill="url(#bb0347b4-c6de-4b14-95b2-1b56eb1f804a)"/>
          <rect x="313.4" y="307.5" width="12.2" height="12.22" transform="translate(-128.2 317.8) rotate(-45)" fill="url(#be18ee56-d872-47a4-a2e8-0a2f829f3c2b)"/>
          <rect x="313.4" y="314.5" width="12.2" height="12.22" transform="translate(-133.1 319.8) rotate(-45)" fill="url(#be0ea582-5b3b-4bd4-950e-35f66bdb23a1)"/>
        </g>
        <g>
          <rect x="317.8" y="8.3" width="9.4" height="9.4" fill="#151310"/>
          <rect x="313.7" y="12.4" width="9.4" height="9.4" fill="url(#aa90edcf-3327-4a20-9141-a63a84745b33)"/>
          <rect x="310.3" y="15.6" width="9.4" height="9.4" fill="#151310"/>
          <rect x="306.5" y="19.3" width="9.4" height="9.4" fill="url(#b3378729-80c4-48bc-8e8c-9d4e81fa6ce3)"/>
        </g>
      </g>
    </g>
    <g>
      <g>
        <path d="M32.2,16.7a1.3,1.3,0,0,1-.4,1l-4.1,4.1-4.5-2.6V16.7a1.3,1.3,0,0,1,1.3-1.3h.1a1.3,1.3,0,0,1,1.3,1.3h0v3.2L30,15.8a1.3,1.3,0,0,1,1.8,0,1.1,1.1,0,0,1,.4.9" fill="#151310"/>
        <path d="M30.9,28.7h-.5l-.4-.2-4.1-4.1v3.1a1.4,1.4,0,0,1-2.7.1h0V24.9l4.5-2.5,4.1,4.1a1.3,1.3,0,0,1,0,1.8,1.2,1.2,0,0,1-.9.4" fill="#151310"/>
        <path d="M27.5,22c0-.1-.1-.1-.1-.2h0l-1.2-.6-3-1.8L20.7,18c-.1-.1-.3,0-.4.1h0v7.7a.3.3,0,0,0,.3.3h.1l2.5-1.5,4.2-2.4h.1Zm-1,.1c0,.1-.1.1-.1.2l-3.2,1.8-2,1.2h-.3v-6a.2.2,0,0,1,.2-.2h.1l2,1.1,3.2,1.9c.1,0,.1.1.1.2Z" fill="#151310"/>
        <path d="M25.6,22.1h-.1l-2.4,1.4-1.5.9h-.2V19.8c0-.1,0-.1.1-.1h.1l1.5.8,2.4,1.4h.1" fill="#151310"/>
      </g>
      <g>
        <path d="M53.9,21.9h-.1L50.1,20l-2.2-1.1c-.2-.1-.4,0-.4.2v6.1c0,.2.2.3.4.2h0l2.3-1.2,3.6-1.9v-.4ZM53,22c0,.1,0,.1-.1.1l-2.8,1.5-1.7,1c-.2,0-.3,0-.3-.2V19.7l.2-.2h.1l1.8.9L53,21.8h0Z" fill="#151310"/>
        <path d="M52.2,22c0,.1,0,.1-.1.1L50,23.2l-1.3.7c0,.1-.1.1-.2,0h0V20.3c0-.1,0-.2.1-.2h.1l1.3.7,2.1,1.1c.1,0,.1,0,.1.1h0" fill="#151310"/>
        <path d="M34.9,18.9h3.2a2.3,2.3,0,0,1,2.6,1.8V21c.1,1.2-1.1,2.1-2.6,2.1H36.4v2H35Zm3,3c.8,0,1.3-.4,1.3-.9s-.5-.9-1.3-.9H36.4v1.8Z" fill="#151310"/>
        <path d="M46.7,24v1.3h-5V19h1.5v5.1Z" fill="#151310"/>
        <path d="M55.5,22.9l-2.8-4h1.8l1.8,2.8,1.8-2.8h1.7L57.1,23v2.2H55.6Z" fill="#151310"/>
        <path d="M60.8,19.2h.8v3.5l3.5-3.6h1.1l-2.9,3,3.2,3.4H65.4l-2.7-2.9-1.1,1v1.9h-.8Z" fill="#151310"/>
        <path d="M66.9,22.3A3.4,3.4,0,0,1,70.4,19h0a3.4,3.4,0,0,1,3.7,3.1h0a3.6,3.6,0,0,1-3.5,3.6A3.5,3.5,0,0,1,66.9,22.3Zm6.4-.1a2.8,2.8,0,0,0-2.8-2.6,2.8,2.8,0,0,0-2.8,2.7,2.8,2.8,0,0,0,2.8,2.6A2.8,2.8,0,0,0,73.3,22.2Z" fill="#151310"/>
        <path d="M75.1,24.6l.5-.6a3.6,3.6,0,0,0,2.4.9c1,0,1.6-.6,1.6-1.2s-.7-.9-1.9-1.1-2.4-.7-2.4-1.8,1-1.8,2.4-1.8a4.4,4.4,0,0,1,2.5.8l-.5.6a3.2,3.2,0,0,0-2.1-.8c-.8,0-1.5.6-1.5,1.1s.8.9,2,1.2,2.3.7,2.3,1.8-.8,1.8-2.5,1.8A4.7,4.7,0,0,1,75.1,24.6Z" fill="#151310"/>
        <path d="M81.9,19.2h.8l2.6,4.4,2.6-4.5h.8v6.3H88V20.7l-2.5,4.4-2.7-4.4v4.8H82Z" fill="#151310"/>
        <path d="M90.3,22.3A3.4,3.4,0,0,1,93.8,19h0a3.4,3.4,0,0,1,3.7,3.1h0A3.6,3.6,0,0,1,94,25.8,3.5,3.5,0,0,1,90.3,22.3Zm6.4-.1a2.8,2.8,0,0,0-2.9-2.6,2.8,2.8,0,0,0-2.7,2.7,2.8,2.8,0,0,0,2.8,2.6A2.8,2.8,0,0,0,96.7,22.2Z" fill="#151310"/>
        <path d="M98.5,24.6,99,24a3.3,3.3,0,0,0,2.3.9c1.1,0,1.7-.6,1.7-1.2s-.7-.9-1.9-1.1-2.4-.7-2.4-1.8,1-1.8,2.4-1.8a4.4,4.4,0,0,1,2.5.8l-.5.6a3.2,3.2,0,0,0-2.1-.8c-.8,0-1.5.6-1.5,1.1s.7.9,1.9,1.2,2.4.7,2.4,1.8-.8,1.8-2.5,1.8A4.7,4.7,0,0,1,98.5,24.6Z" fill="#151310"/>
      </g>
    </g>
    <g>
      <path d="M13.8,94.3a4.3,4.3,0,0,1,.7-2.5l.2-.3a5.7,5.7,0,0,1,1.1-1.1,4.6,4.6,0,0,1,1.9-.8h.9a4.4,4.4,0,0,1,2.9,1.1,3.4,3.4,0,0,1,1.3,1.6,4.2,4.2,0,0,1,.4,1v.2a3.4,3.4,0,0,1,.1,1,4.3,4.3,0,0,1-.6,2.2l-.3.4c-.1.1-.1.2-.2.2A4.6,4.6,0,0,1,19.4,99h-.6a5.9,5.9,0,0,1-2.3-.4l-1.1-.8h-.2A5.1,5.1,0,0,1,14,95.5c-.1-.1-.1-.1-.1-.2a4.3,4.3,0,0,1-.1-.5Z" fill="#151310"/>
      <g>
        <path d="M23.1,93.3h0l-.3-.7a3,3,0,0,0-1.2-1.7h-.1l-1.1.7-1.7,1.7-1.2,1.3-1,1.4h0l.6.4h.1a.8.8,0,0,1,.4-.4l.9-.5a4.9,4.9,0,0,1,1.7-.6l1.6-.5.8-.3.5-.6Z" fill="url(#a2f48fc8-b3b4-4d3f-b034-6454c4c533e1)"/>
        <path d="M21.4,90.7h0l-1.6-.8H17.9l-.5.3a2.1,2.1,0,0,0-.6,1,10.5,10.5,0,0,0-.4,1.7l-.3,1.3a4.2,4.2,0,0,1-.4,1c-.1,0-.1,0,0,.1l.5.5h.1a2.2,2.2,0,0,1,.5-.8l1.6-1.8,1-1,1.2-.9.8-.5Z" fill="url(#adbbd9df-5265-468e-b4b6-7c5fc948ebbb)"/>
        <path d="M23.1,93.6h0l-.5.5-.9.4L20,95l-1.2.4-1,.5-.4.4h0a9.5,9.5,0,0,0,2.9.7h2a2,2,0,0,0,.4-.8,4.6,4.6,0,0,0,.5-2.3A.4.4,0,0,0,23.1,93.6Z" fill="url(#bbfd6a13-82ed-461a-9b3d-b1cb8cf12933)"/>
        <path d="M17.6,89.7h0l-1.3.5a5.3,5.3,0,0,0-1.4,1.2l-.2.3a1.3,1.3,0,0,1-.1.6c0,.4.1.7.1,1a10.1,10.1,0,0,0,.7,1.5c0,.1.1.1.1,0a.8.8,0,0,0,.2-.5,6.5,6.5,0,0,0,.4-1.3,10.5,10.5,0,0,1,.4-1.7l.4-.9.6-.6Z" fill="url(#fec53938-0bb3-4c67-bf0f-ea2cafe73735)"/>
        <path d="M22.1,97.3h-3a6.1,6.1,0,0,1-1.8-.5h0c0,.2-.1.3,0,.4a1.9,1.9,0,0,0,.2.7,2.7,2.7,0,0,0,1.1,1h.5a4.4,4.4,0,0,0,1.5-.5,4.1,4.1,0,0,0,1.1-.7Z" fill="url(#bd523fe4-ddc3-4a9f-bccf-ff8dee673eb0)"/>
        <path d="M18.3,98.9h-.2a2,2,0,0,1-.9-.9,1.7,1.7,0,0,1-.2-1.2h0l-.7-.4h0l-.3.4-.5,1c-.1.1-.1.1,0,.2a4.1,4.1,0,0,0,2.1,1Z" fill="url(#b0b0a6f9-1591-44a8-ba8b-86dd3dd27c3f)"/>
        <path d="M14.1,95.5h0a5.3,5.3,0,0,0,.8,1.7l.4.3h.1L16,96c.1,0,.1,0,0-.1l-.5-.5c-.1-.1-.1-.1-.1,0l-.3.2a.7.7,0,0,1-.6.1Z" fill="url(#e44a5572-8415-4fb0-ab79-a8e36241f50c)"/>
        <path d="M14.5,92.1a.5.5,0,0,0-.2.4,4.2,4.2,0,0,0-.4,1.6,2.2,2.2,0,0,0,.1.8c0,.2,0,.3.1.4s.6.3.8.1l.3-.2c.1-.1.1-.1,0-.1l-.6-1.2a5,5,0,0,1-.2-1.2A1.3,1.3,0,0,1,14.5,92.1Z" fill="url(#f4beaf7f-25bf-490d-9239-12964fcc04b1)"/>
      </g>
    </g>
    <g>
      <path d="M13.8,118.7a4,4,0,0,1,.7-2.4l.2-.3a5.7,5.7,0,0,1,1.1-1.1,4.6,4.6,0,0,1,1.9-.8h.9a5.1,5.1,0,0,1,2.9,1,3.7,3.7,0,0,1,1.3,1.7,3,3,0,0,1,.4,1v.2a3.4,3.4,0,0,1,.1,1,4.3,4.3,0,0,1-.6,2.2l-.3.4-.2.2a4.6,4.6,0,0,1-2.8,1.7h-.6a4.6,4.6,0,0,1-2.3-.5,4.1,4.1,0,0,1-1.1-.7h-.2a4.8,4.8,0,0,1-1.2-2.2h-.1c0-.2-.1-.3-.1-.5Z" fill="#151310"/>
      <g>
        <path d="M23.1,117.8h0l-.3-.7a3,3,0,0,0-1.2-1.7h-.1l-1.1.7-1.7,1.7L17.5,119l-1,1.3c0,.1-.1.1,0,.1l.6.4h.1l.4-.5.9-.5,1.7-.5,1.6-.5.8-.4.5-.5Z" fill="url(#f4d332f5-3bf2-4eac-b20d-d29718936758)"/>
        <path d="M21.4,115.1h0a4.8,4.8,0,0,0-1.6-.8l-.9-.2h-1a1,1,0,0,0-.5.4,2.1,2.1,0,0,0-.6,1,10.5,10.5,0,0,0-.4,1.7l-.3,1.3a3.6,3.6,0,0,1-.4.9c-.1.1-.1.1,0,.1l.5.6h.1a2.2,2.2,0,0,1,.5-.8,9.3,9.3,0,0,1,1.6-1.8l1-1.1,1.2-.8Z" fill="url(#bd635d1e-9e82-4321-a16b-54cc7fbb7526)"/>
        <path d="M23.1,118.1h0c-.1.3-.3.4-.5.6l-.9.4-1.7.5-1.2.4-1,.5-.4.4h0a7.2,7.2,0,0,0,2.9.6h1.8l.2-.2a1.6,1.6,0,0,0,.4-.7,4.6,4.6,0,0,0,.5-2.3Z" fill="url(#ff10bb8f-2b28-428f-b9e6-3b53da367492)"/>
        <path d="M17.6,114.2h0l-1.3.5a5.3,5.3,0,0,0-1.4,1.2l-.2.3a1.3,1.3,0,0,1-.1.6c0,.3.1.7.1,1a10.1,10.1,0,0,0,.7,1.5h.1c.1-.2.2-.3.2-.5a6.5,6.5,0,0,0,.4-1.3,11.6,11.6,0,0,1,.4-1.8c.1-.3.3-.5.4-.8l.6-.6Z" fill="url(#a0a0ea30-5559-4aaa-b376-53455f8c0c08)"/>
        <path d="M22.1,121.7h-3l-1.8-.5h0c0,.1-.1.3,0,.4a1.9,1.9,0,0,0,.2.7,2.4,2.4,0,0,0,1.1.9h.5l1.5-.5a4.1,4.1,0,0,0,1.1-.7Z" fill="url(#be66f117-ad87-43e3-957b-3e42824cd6ff)"/>
        <path d="M18.3,123.4h-.2a2,2,0,0,1-.9-.9,1.7,1.7,0,0,1-.2-1.2h0l-.7-.4h0l-.3.4a3.1,3.1,0,0,0-.5,1c-.1.1-.1.1,0,.1a4.3,4.3,0,0,0,2.1,1.1Z" fill="url(#a729570c-c8d2-4d8d-91ab-2b7f6c8a6c4a)"/>
        <path d="M14.1,120h0a4.8,4.8,0,0,0,.8,1.6.8.8,0,0,0,.4.4h.1a3.5,3.5,0,0,1,.6-1.4c.1,0,.1,0,0-.1a1,1,0,0,1-.5-.6h-.1l-.3.3h-.6Z" fill="url(#b6017c48-6644-4a5e-a0f8-efb7ab09ca9e)"/>
        <path d="M14.5,116.5c-.1.2-.2.3-.2.5a4.2,4.2,0,0,0-.4,1.6,2.2,2.2,0,0,0,.1.8c0,.2,0,.3.1.4a.8.8,0,0,0,.8.1l.3-.3c.1,0,.1,0,0-.1l-.6-1.1a5,5,0,0,1-.2-1.2A1.7,1.7,0,0,1,14.5,116.5Z" fill="url(#b317b68b-eaa9-4a83-9042-165c1cff1e41)"/>
      </g>
    </g>
    <g>
      <g>
        <g>
          <path d="M13.8,188.6a4.3,4.3,0,0,1,.7-2.5l.2-.3a3.4,3.4,0,0,1,1.2-1.2,4,4,0,0,1,1.8-.7h.9a4.7,4.7,0,0,1,3,1,7,7,0,0,1,1.3,1.7,1.9,1.9,0,0,1,.3,1v.2c0,.3.1.6.1,1a5.7,5.7,0,0,1-.7,2.2l-.3.5h-.1a4.7,4.7,0,0,1-2.9,1.8h-.5a5.1,5.1,0,0,1-2.4-.4l-1.1-.7h-.2a4.8,4.8,0,0,1-1.2-2.2v-.2c0-.2-.1-.3-.1-.5Z" fill="#151310"/>
          <g>
            <path d="M23.1,187.6h0a1.9,1.9,0,0,0-.2-.7,6.6,6.6,0,0,0-1.2-1.7h-.2l-1,.7-1.8,1.7-1.2,1.3-1,1.4h0l.6.4h.1l.4-.4.9-.5,1.7-.6,1.7-.5.8-.4a.7.7,0,0,0,.4-.5Z" fill="url(#a7994111-219c-4cf8-a3dc-eabc5dd9e2a7)"/>
            <path d="M21.5,184.9h0a3.5,3.5,0,0,0-1.6-.8l-1-.2h-1a1,1,0,0,0-.5.4,2.1,2.1,0,0,0-.6,1c-.1.6-.3,1.1-.4,1.7l-.3,1.3a3.6,3.6,0,0,1-.4.9c-.1.1,0,.1,0,.2l.5.5h.1a3.5,3.5,0,0,1,.5-.8l1.6-1.8,1.1-1.1,1.1-.9.9-.5Z" fill="url(#a08ec705-826a-4f25-8630-b659c084892a)"/>
            <path d="M23.2,187.9h0c-.1.3-.3.4-.5.6l-1,.4-1.7.5-1.2.4-1,.5-.4.4c0,.1,0,.1.1.1a9.5,9.5,0,0,0,2.9.7h2l.4-.8a3.7,3.7,0,0,0,.4-2.3Z" fill="url(#ff4842f6-9043-4350-bd2a-598f3abc5e95)"/>
            <path d="M17.6,184h0a2.9,2.9,0,0,0-1.3.5,5.3,5.3,0,0,0-1.4,1.2l-.2.3a1.3,1.3,0,0,1-.1.6c0,.3.1.7.1,1a10.1,10.1,0,0,0,.7,1.5h.1a.8.8,0,0,0,.2-.5,6.5,6.5,0,0,0,.4-1.3,12.1,12.1,0,0,1,.5-1.8,2,2,0,0,1,.4-.8,1.8,1.8,0,0,1,.5-.7Z" fill="url(#b6ab9b77-d8b5-4dd7-a8d6-c616faf4467f)"/>
            <path d="M22.1,191.6h-3a4.8,4.8,0,0,1-1.7-.5h-.1v.4a.9.9,0,0,0,.3.7,2.4,2.4,0,0,0,1,1h.6a4.4,4.4,0,0,0,1.5-.5l1-.7Z" fill="url(#ec7f9d92-8b37-48f8-86a9-ed82b2feda85)"/>
            <path d="M18.3,193.2h-.2a2,2,0,0,1-.9-.9A5.9,5.9,0,0,1,17,191c.1,0,0-.1,0-.1l-.7-.4h0l-.3.4a3.1,3.1,0,0,0-.5,1c-.1.1-.1.1,0,.2a4.4,4.4,0,0,0,2.2,1Z" fill="url(#bc3abd20-06be-42e9-980f-18df13841823)"/>
            <path d="M14.1,189.8h0a5.3,5.3,0,0,0,.8,1.7l.4.3h.1l.6-1.4c.1,0,.1,0,0-.1l-.5-.5h-.1l-.3.2a.7.7,0,0,1-.6.1Z" fill="url(#b6d926d8-40f2-46f6-8db4-8cd358d471b2)"/>
            <path d="M14.5,186.3c-.1.2-.2.3-.2.5a4.2,4.2,0,0,0-.4,1.6,2.2,2.2,0,0,0,.1.8c0,.2,0,.3.1.4a.8.8,0,0,0,.8.1l.3-.3h0l-.6-1.2a5,5,0,0,1-.2-1.2A1.7,1.7,0,0,1,14.5,186.3Z" fill="url(#e0a8eebf-db81-4f9b-8be5-fb4a2673e2cc)"/>
          </g>
        </g>
        <g>
          <path d="M121.6,188.6a5.5,5.5,0,0,1,.7-2.5l.2-.3a3.4,3.4,0,0,1,1.2-1.2,4.4,4.4,0,0,1,1.9-.7h.8a4.7,4.7,0,0,1,3,1,7,7,0,0,1,1.3,1.7,3,3,0,0,1,.4,1v.2a3.4,3.4,0,0,1,.1,1,4.4,4.4,0,0,1-.7,2.2c0,.2-.1.3-.2.5h-.2a4.7,4.7,0,0,1-2.9,1.8h-.5a4.5,4.5,0,0,1-2.3-.4l-1.1-.7h-.2a5,5,0,0,1-1.3-2.2v-.2a.9.9,0,0,1-.1-.5A1.7,1.7,0,0,1,121.6,188.6Z" fill="#151310"/>
          <g>
            <path d="M131,187.6h-.1a1.9,1.9,0,0,0-.2-.7,3,3,0,0,0-1.2-1.7h-.1a4.1,4.1,0,0,0-1.1.7l-1.8,1.7a6.9,6.9,0,0,0-1.1,1.3,7.6,7.6,0,0,0-1.1,1.4h0l.6.4h.1l.4-.4a1.9,1.9,0,0,1,1-.5l1.6-.6,1.7-.5.8-.4.5-.5Z" fill="url(#abebda86-7be0-46d1-81e1-15fd84341fcb)"/>
            <path d="M129.3,184.9h0a3.5,3.5,0,0,0-1.6-.8l-.9-.2h-1.1a1,1,0,0,0-.5.4,3.1,3.1,0,0,0-.5,1l-.5,1.7-.3,1.3a3.6,3.6,0,0,1-.4.9v.2l.5.5h.1l.6-.8,1.5-1.8,1.1-1.1,1.1-.9.9-.5Z" fill="url(#f113c6c0-ac1f-4098-a8ab-0f7c0a608083)"/>
            <path d="M131,187.9h0c-.1.3-.3.4-.5.6l-1,.4-1.6.5-1.3.4-.9.5-.4.4c-.1.1-.1.1,0,.1a9.5,9.5,0,0,0,2.9.7h2a2,2,0,0,0,.4-.8,4.6,4.6,0,0,0,.5-2.3Z" fill="url(#ea27867a-410f-442f-90de-321937e00eaf)"/>
            <path d="M125.4,184h0l-1.2.5a4.4,4.4,0,0,0-1.5,1.2.4.4,0,0,0-.1.3,1.3,1.3,0,0,0-.1.6,3.4,3.4,0,0,0,.1,1,2.6,2.6,0,0,0,.7,1.5h0l.3-.5.3-1.3a12.1,12.1,0,0,1,.5-1.8,2,2,0,0,1,.4-.8A1.3,1.3,0,0,1,125.4,184Z" fill="url(#e475f061-7494-4e7b-8f48-d82a8201346d)"/>
            <path d="M130,191.6h-3a6.1,6.1,0,0,1-1.8-.5h-.1v.4l.3.7a1.8,1.8,0,0,0,1.1,1h.5a4.4,4.4,0,0,0,1.5-.5l1.1-.7Z" fill="url(#e9f3e740-1ce6-4bef-b7f1-099e9d3fcaab)"/>
            <path d="M126.1,193.2H126a2,2,0,0,1-.9-.9,1.7,1.7,0,0,1-.2-1.2h-.1l-.6-.4h-.1l-.3.4a3.1,3.1,0,0,0-.5,1v.2a4.4,4.4,0,0,0,2.2,1Z" fill="url(#a814bd50-6676-4222-81a7-b29d60ff372d)"/>
            <path d="M121.9,189.8h0a8.9,8.9,0,0,0,.8,1.7l.4.3h.1a6.1,6.1,0,0,1,.7-1.4h0l-.6-.5h-.1l-.2.2a.9.9,0,0,1-.7.1Z" fill="url(#a76f7f30-d21e-438b-8082-c3a179aca953)"/>
            <path d="M122.3,186.3l-.2.5a9.4,9.4,0,0,0-.4,1.6,2.2,2.2,0,0,0,.1.8c0,.2,0,.3.2.4a.8.8,0,0,0,.8.1l.3-.3h0a3.4,3.4,0,0,1-.6-1.2,2.5,2.5,0,0,1-.2-1.2Z" fill="url(#e89e2af3-e5b5-4902-b520-086a162318b1)"/>
          </g>
        </g>
      </g>
      <g>
        <path d="M13.8,213.1a4.3,4.3,0,0,1,.7-2.5l.2-.3a4.3,4.3,0,0,1,1.2-1.1,3.7,3.7,0,0,1,1.8-.8h.9a4.6,4.6,0,0,1,3,1.1,5.1,5.1,0,0,1,1.3,1.6l.3,1c0,.1,0,.2.1.2s.1.7.1,1a6.2,6.2,0,0,1-.7,2.3l-.3.4v.2a4.8,4.8,0,0,1-2.9,1.7H19a4.9,4.9,0,0,1-2.4-.5l-1.1-.7h-.2a4.8,4.8,0,0,1-1.2-2.2H14c0-.2-.1-.4-.1-.6Z" fill="#151310"/>
        <g>
          <path d="M23.1,212.2V212a1.9,1.9,0,0,0-.2-.7,6.6,6.6,0,0,0-1.2-1.7h-.2l-1,.7L18.7,212l-1.2,1.3-1,1.4h0l.6.4h.1a1,1,0,0,1,.4-.5l.9-.5,1.7-.5,1.7-.5.8-.4c.2-.2.4-.3.4-.6Z" fill="url(#abef76c2-cb35-4019-9561-13d2371b607d)"/>
          <path d="M21.5,209.5h0l-1.6-.8h-2l-.5.3a2.4,2.4,0,0,0-.6,1.1l-.4,1.6-.3,1.3a3,3,0,0,1-.4,1c-.1,0,0,.1,0,.1l.5.5h.1a3.5,3.5,0,0,0,.5-.8l1.6-1.8,1.1-1,1.1-.9.9-.5Z" fill="url(#feec9d7b-645f-4085-88c1-38c9684fc133)"/>
          <path d="M23.2,212.5h0l-.5.5-1,.5L20,214l-1.2.4-1,.5c-.1.1-.3.2-.4.4h.1a7.2,7.2,0,0,0,2.9.6h2l.4-.7a4,4,0,0,0,.4-2.4Z" fill="url(#aa02c0eb-2d71-4814-856d-2af4f0fb8292)"/>
          <path d="M17.6,208.5h0l-1.3.5a4.4,4.4,0,0,0-1.4,1.3l-.2.2a1.3,1.3,0,0,1-.1.6c0,.4.1.7.1,1.1a10.1,10.1,0,0,0,.7,1.5h.1a1.4,1.4,0,0,0,.2-.6,5.6,5.6,0,0,0,.4-1.2,12.1,12.1,0,0,1,.5-1.8,3.6,3.6,0,0,1,.4-.9l.5-.6Z" fill="url(#bbe47268-ef83-4d32-b57f-5b9e2ca34630)"/>
          <path d="M22.1,216.1h-3a4.9,4.9,0,0,1-1.7-.6h-.1v.4a.9.9,0,0,0,.3.7,2.2,2.2,0,0,0,1,.9h.6a4.2,4.2,0,0,0,1.5-.4,3.9,3.9,0,0,0,1-.8Z" fill="url(#bfa1ba9c-e922-4ce3-b4fe-bc64f09204cc)"/>
          <path d="M18.3,217.8c0-.1-.1-.1-.2-.1a2,2,0,0,1-.9-.9,5.9,5.9,0,0,1-.2-1.3h0l-.7-.5h0l-.3.4a3.7,3.7,0,0,0-.5,1.1c-.1.1-.1.1,0,.1a3.9,3.9,0,0,0,2.2,1.1Z" fill="url(#a856d38e-0702-4e5c-9825-7f597e0ddbca)"/>
          <path d="M14.1,214.3h0a4.8,4.8,0,0,0,.8,1.6l.4.4h0c0-.1.1-.1.1-.2l.6-1.3c.1-.1.1-.1,0-.1l-.5-.6h-.1l-.3.2-.6.2Z" fill="url(#f2d7a8b4-3ad4-4d6e-b055-ce28499bcc8d)"/>
          <path d="M14.5,210.9a.8.8,0,0,0-.2.4,4.2,4.2,0,0,0-.4,1.6,2.8,2.8,0,0,0,.1.9c-.1.3.1.5.4.6a.4.4,0,0,0,.5-.2l.3-.2c.1,0,.1-.1,0-.1l-.6-1.1a5.9,5.9,0,0,1-.2-1.3A1.3,1.3,0,0,1,14.5,210.9Z" fill="url(#b09b67db-f3dc-460f-82b4-a3799b29c338)"/>
        </g>
      </g>
    </g>
    <rect x="251.6" y="104.6" width="83.4" height="16.35" fill="#151310"/>
  </g>
</svg>
