<svg xmlns="http://www.w3.org/2000/svg" xmlns:xlink="http://www.w3.org/1999/xlink" width="335" height="335" data-name="Layer 1"><defs><linearGradient id="c" x1="77.5" x2="275.8" y1="201.6" y2="-24.7" gradientUnits="userSpaceOnUse"><stop offset="0" stop-color="#08abc6"/><stop offset=".5" stop-color="#0b9cbe"/><stop offset=".6" stop-color="#0a95b7"/><stop offset=".7" stop-color="#0882a6"/><stop offset=".9" stop-color="#04638a"/><stop offset="1" stop-color="#01466f"/></linearGradient><linearGradient id="a" x1="119.7" x2="127.4" y1="-139.6" y2="-139.6" gradientTransform="rotate(65.7 -48.82 -77.65)" gradientUnits="userSpaceOnUse"><stop offset="0" stop-color="#c71919"/><stop offset=".5" stop-color="#f84646"/><stop offset=".7" stop-color="#d52626"/><stop offset="1" stop-color="#c71919"/></linearGradient><linearGradient xlink:href="#a" id="d" x1="118.3" x2="126" y1="-44" y2="-44" gradientTransform="rotate(42.4 -39.37 -87.35)"/><linearGradient xlink:href="#a" id="e" x1="83.5" x2="91.2" y1="79.1" y2="79.1" gradientTransform="rotate(12.1 195.3 -227.74)"/><linearGradient id="b" x1="60.4" x2="68.1" y1="59.9" y2="59.9" gradientUnits="userSpaceOnUse"><stop offset="0" stop-color="#2f80cd"/><stop offset=".5" stop-color="#74d5fa"/><stop offset=".7" stop-color="#4398da"/><stop offset="1" stop-color="#246fc3"/></linearGradient><linearGradient xlink:href="#b" id="f" x1="-29.7" x2="-22" y1="52.3" y2="52.3" gradientTransform="rotate(-25 18.5 -83.45)"/><linearGradient xlink:href="#b" id="g" x1="-34.1" x2="-26.4" y1="-61.1" y2="-61.1" gradientTransform="rotate(-76 109.97 -76.92)"/></defs><path fill="#fff" d="M335 197.8v16.4L0 126.7v-16.4l335 87.5z"/><path fill="#b71c22" d="M335 214.2V335H0V126.7l335 87.5z"/><path fill="url(#c)" d="M335 0v197.8L0 110.3V0h335z"/><path fill="#58261a" d="M72.5 44c.1.4 0 .9 0 1.4 0 .9.5 1.7 1.1 2.3.5.7 1.2 1.3 1.6 2.1.4.7.5 1.5.5 2.3-.2-.7-.7-1.3-1.3-1.7.2.3 0 .6-.1.8-.3.6-.8 1.2-1.3 1.8-.3.3-.7.6-1.1.8-.5.3-1.1.4-1.6.5-1.1.3-2.2.6-3.2 1-.3 0-.5.2-.7.4"/><g fill="#7e331f"><path d="M73.1 47.9c0 .3.1.5.3.8s.3.4.5.6.4.3.5.5.2.2.2.4.1.3.2.4.2 0 .2 0 0-.3-.1-.4-.1-.2-.2-.4-.3-.4-.5-.6-.4-.3-.5-.5-.3-.5-.4-.8-.2 0-.2 0ZM72.7 48.9c.3.4.6.9.5 1.5s-.1.5-.2.7-.1.2-.2.3-.1.2-.2.3 0 .1.1.1c.2 0 .4-.4.5-.6s.2-.5.2-.8c0-.6-.3-1.1-.6-1.6s-.3 0-.2.1ZM71.6 51.2s.2-.1.2-.2.1-.2.2-.3 0-.2.1-.3 0-.1 0-.2V50c0-.1 0 0-.1 0s0 0 0 .1v.1s0 .2-.1.3 0 .2-.2.3-.1.2-.2.3ZM72.1 49.8V48.6c0-.1 0-.3-.2-.3h-.1v1.6c0 .1 0 0 .1 0ZM70.1 50.8c.2-.1.3-.4.4-.6s.2-.5.3-.7.2-.5.2-.7V48c0-.1-.1-.1-.2 0s0 .2 0 .3v.4c0 .2-.1.5-.2.7s-.2.5-.3.7-.3.4-.3.6Z"/></g><path fill="#ba6348" d="m71.3 48-.2.2-.7 1-.9 1.2s-2.7-1.7-1.8-2 1.1-1.8 1.1-1.8l.9.5 1.6.9Z"/><path fill="#a9533d" d="m71.1 48.2-.7 1-.8-2.1c.1.2.7.8 1.4 1.1Z"/><path fill="#ba6348" d="M70.4 56.5c.4-.6 0-1.3 0-2-.3-1.6-.5-3.2-.4-4.9v-.3l-1.2-1.5s-4 1.7-5.4 4.8c-1.4 3-1.6 8.7-1.6 8.7s-.2 3.4 3.6 3.7c3.8.3 3.7-7.9 3.7-7.9s.7 0 1.6-.6Z"/><path fill="#464c31" d="M66.7 54.9c-1-.8-.6-2.4 0-3.3.7-1 1.8-1.5 3-1.4-.2-.1-.4-.2-.7-.2-1.6 0-3.1 2-3.8 2.5-.6.5-1.2 0-1.5-.6l-.3.6c-1.4 3-1.6 8.7-1.6 8.7s-.2 3.4 3.6 3.7c3.8.3 3.7-7.9 3.7-7.9s.7 0 1.6-.6c.3-.6 0-1.3 0-2v-.3c-.9.7-2.5 1.6-3.6.7Z"/><path fill="#343723" d="M66.7 54.9c-1-.8-.6-2.4 0-3.3.7-1 1.8-1.5 3-1.4-.2-.1-.4-.2-.7-.2-1.6 0-3.1 2-3.8 2.5-.2.1-.3.2-.5.2-.3.4-.5.8-.7 1.2-.2.7-.4 1.4-.7 2-.3.7-.4 1.5-.6 2.3-.2.8-.2 1.6-.2 2.5 0 .7-.2 1.4-.2 2.1 0 .3.2.6.2.9.5.6 1.4 1.1 2.7 1.2 3.8.3 3.7-7.9 3.7-7.9s.7 0 1.6-.6c.3-.6 0-1.3 0-2v-.3c-.9.7-2.5 1.6-3.6.7Z" opacity=".5"/><path fill="#a9533d" d="M69 53.1c0 .9.3 1.8.2 2.8v1.2c.3 0 .8-.2 1.3-.6.4-.6 0-1.3 0-2-.2-.9-.3-1.8-.4-2.7-.5.3-.8.7-1 1.3Z"/><path fill="#343723" d="M69 55c-.2.6-.8 1.1-1.5 1.4-.5.2-1 .3-1.5.4-.4 0-.8.1-.9.6v.7c0 .1-.1.2-.2.4v.6c0 .2 0 .4-.1.5-.3.6-.7 1.1-1 1.7-.4.8-.6 1.7-.2 2.5l.6.9c.3.1.7.2 1.1.2 3.8.3 3.7-7.9 3.7-7.9s.7 0 1.6-.6c.3-.6 0-1.3 0-2v-.3c-.3.3-.8.6-1.3.8Z"/><path fill="url(#a)" d="m84.4 55.6-8.5 3.3-.4-.4c-.6-.7-.7-1.1-1.3-2.5-.6-1.4-.9-1.8-1-2.7v-.5l8-4.2c-.2.3.2 1.9 1 3.7s1.7 3.2 2.1 3.3Z"/><path fill="#490d0d" d="M84.4 55.6c-.4 0-1.3-1.4-2.1-3.3s-1.3-3.4-1-3.7c.3-.1 1.3 1.3 2.2 3.3s1.3 3.6 1 3.8Z"/><path fill="#ba6348" d="m68.5 53.7 6.6 5 7.4-1.4s1.3-1.4 0-1.1c-1.2.2-6.6 0-6.6 0s-5.1-6.6-6.7-6c-1.6.6-1.7 2.7-.8 3.5Z"/><g fill="#ba6348"><path d="m81.6 56.4 1.1-.3c.2 0 .5-.2.7-.2.6 0 1.1.3 1.7.3 0 .2-.3.3-.5.3H84c-.4 0-.7.2-1.1.3"/><path d="M83.2 56.6c.4 0 .7 0 1 .2.1 0 .3.1.4.1h1.6c-.2.2-.5.3-.7.4h-.9c-.4 0-.8 0-1.1-.1a3 3 0 0 1-1.1-.6"/><path d="M81.8 57.3h.4c.5 0 1 .3 1.5.3s1 0 1.5-.1c.2 0 .4-.2.4-.4-.8 0-1.6-.2-2.4-.4h-.4c-.3 0-.7.1-1 .2"/></g><path fill="#fd802e" d="m75.8 44.3-3.3-.2 1.4-.5 1.2.1.5.2.1.3"/><path fill="#ba6348" d="M73.3 46.5c0 .4-.1.8-.3 1.1-.2.4-.4.6-.7.7-1.8 0-2.9-.9-2.9-.9-.7-.9-1.4-1.9-1.2-3.1 0-.7.5-1.3 1-1.7.5-.4 1.2-.6 1.9-.6.4 0 .8 0 1.1.3.4.2.6.6.8 1 .2.5.4 1 .4 1.5v1.6Z"/><path fill="#6b3020" d="M72 44.8c-.3-.2-.6-.3-.9-.3-.3 0-.6.1-.9.3h1.7M72.5 44.8c.2-.2.5-.3.7-.3v.2c-.2 0-.5 0-.7.1"/><path fill="#f5f1e2" d="m72 45.5-.1.1s-.2.1-.4.1h-.1c-.5 0-.7-.3-.7-.3s.3-.2.6-.2h.4l.1.1ZM73.2 45.4v.2s-.1.1-.2.1c-.2 0-.2-.3-.2-.3l.2-.1h.2Z"/><path fill="#6b3020" d="M71.9 45.5v.1s-.2.1-.4.1h-.1v-.2c0-.1 0-.2.1-.3h.3v.2ZM73.2 45.5s-.1.1-.2.1v-.2c0-.1 0-.2.1-.2v.3Z"/><path fill="none" stroke="#9f4337" stroke-linecap="round" stroke-linejoin="round" stroke-width=".2" d="M70.6 45.5s.3.2.8.3c.4 0 .5-.2.5-.2s0-.1-.2-.2h-.5c-.4 0-.6.2-.6.2ZM72.6 45.4s0 .3.3.3.3-.3.3-.3 0 0 0 0h-.4c-.1 0-.2.1-.2.1Z"/><path fill="none" stroke="#9f4337" stroke-linecap="round" stroke-linejoin="round" stroke-width=".2" d="M72 45.4s0-.3-.5-.4c-.5 0-.9.4-.9.4M73.2 45.2s0-.2-.3-.2-.4.3-.4.3"/><path fill="#eb9393" d="M72.9 47.2s.1.4-.4.4-.7-.4-.7-.4h1.1Z"/><path fill="#d77777" d="M73 47.1h-.2l-.1.1s-.2-.2-.3-.2c-.1 0-.7.2-.7.2h.9c.4 0 .4-.1.4-.2Z"/><path fill="none" stroke="#bb5151" stroke-linecap="round" stroke-linejoin="round" stroke-width=".2" d="M72.9 47.2s-.4.1-1.2 0"/><path fill="#ba6348" d="M72.5 44.9s-.1 1.5.5 1.5c.1 0 0 .2 0 .2h-.3"/><path fill="none" stroke="#9f4337" stroke-linecap="round" stroke-linejoin="round" stroke-width=".3" d="M72.5 44.9s-.1 1.5.5 1.5c.1 0 0 .2 0 .2h-.3M72.3 46.5s-.2 0-.2.2.1.1.1.1"/><path fill="#6b3020" d="M70.3 44c.4 1.8-.2 3.5-1.6 4.9-1.4 1.5-3.8 1.8-5.6 4.3-.3-2.4 2.8-4.4 3.5-5.2.7-.8 1.8-3.7 1.7-4.8"/><g fill="#7e331f"><path d="M63.4 52.3c.2-.4.4-.8.8-1.1s.7-.6 1-.9.7-.6 1-.9l.5-.5c.2-.2.3-.4.3-.6s0-.2-.2 0c-.2.1-.3.4-.5.5s-.3.3-.5.5c-.4.3-.7.6-1.1.9-.6.6-1.4 1.3-1.5 2.1s0 .1.1 0ZM67.2 47.9c.2-.2.3-.4.4-.6l.3-.6c.2-.4.4-.9.5-1.4s-.2-.2-.2 0c-.2.4-.3.9-.5 1.3l-.3.6-.3.6c-.1.2 0 0 0 0Z"/><path d="M64.3 51.4c.4-.3.9-.6 1.3-.9s.9-.6 1.3-.9.7-.6 1.1-.9.3-.3.4-.5.3-.4.3-.6-.1-.2-.2-.1c-.2.2-.3.4-.4.5s-.3.4-.5.6c-.3.3-.7.6-1.1.9-.8.6-1.7 1.1-2.4 1.8Z"/><path d="M66.5 49.3c.2-.1.5-.3.6-.5s.4-.4.6-.6.3-.4.5-.7.3-.5.4-.7 0-.2-.2 0-.3.4-.4.7-.3.5-.5.7-.3.4-.5.6-.4.4-.5.6ZM68.7 46.4c.2-.2.3-.5.5-.7s.1-.3.1-.4v-.4h-.1c-.1 0 0 .1 0 .2v.2c0 .1 0 .3-.1.4 0 .3-.2.5-.3.8ZM69.1 47.2c.2-.3.4-.6.5-1s.1-.3.1-.5.1-.4 0-.5 0 0-.1 0c-.1.1-.1.3-.1.5s0 .3-.1.5c-.1.3-.2.6-.3 1s0 .1.1 0ZM68.6 44.8s0-.1.1-.2 0-.1 0-.2v-.5c0-.1-.1 0-.2 0s0 .1 0 .2v.6c0 .1 0 0 0 0Z"/></g><path fill="#ff992c" d="M72.8 43.4c.8 0 1.6 0 2.4.2.2 0 .4 0 .5.2s.2.4 0 .5c-.3-.4-.9-.5-1.3-.4-.5.1-.9.4-1.4.4h-.8c-1.2 0-2.4-.1-3.6-.3H68v-.2l3.6-1 1.1.6Z"/><path fill="#ff992c" d="M72.8 42.9v.2c-.3 0-.6-.1-.9 0h-.3c-.4.1-.8.2-1.1.4h-.1c-.3.2-.6.3-.9.4-.6.2-1.2.2-1.2.2v-1c0-.3.2-.5.4-.7.4-.5 1-.7 1.6-.8h.8c.3 0 .6 0 .9.2.5.2.8.6 1 1.1Z"/><path fill="#ff992c" d="M72.9 42.8c.1.3.1.6.1.6l-.4.4h-1.9s-.3-.2-.5-.3c-.1 0-.3-.2-.4-.3-.1-.1-.3-.2-.3-.2s-1.1-1.4 1.1-1.4c1.3 0 1.9.7 2.1 1.3Z"/><path fill="#fd802e" d="M72.9 42.8c.1.3.1.6.1.6h-.6c-.5.2-1.1.3-1.6.4-.5 0-1 .1-1.5.1h-1.2v-.8h1.8c.6 0 1.3-.1 1.8-.2.3 0 .6 0 .9-.1h.2Z"/><path fill="#e38c67" d="m42.2 60.7.3-1v-.1c1.1-3.7.7-10.9.5-11.5v-.5h-.2l-1.3-2s-1.4-.2-2.7 1.3c-1.3 1.5-3.6 9.9-2.6 13 1 3.1 3 3.6 3 3.6 1.3-.3 2.4-1.3 3-2.6Z"/><path fill="#d2aa80" d="M43.3 50.6v1.1-1.4.3Z"/><path fill="none" d="M41.8 53c.5-.6.6-1.5.7-2.2.1-.7.2-1.4.1-2.1-.1-1.2-.6-2.5-1.7-2.9-1 1.2-1.4 2.7-1.6 4.2-.2 1.1-.4 2.2-.5 3.3 1 .5 2.3.7 3-.2Z"/><path fill="#d2aa80" d="M36.3 60s0-.2-.1-.3c0 0 0 .2.1.3ZM36.5 60.6v-.2.2ZM36 56.1V56v.1ZM36.6 60.8v-.1.1ZM36.4 60.3v-.2.2ZM36 58.2V58v.2ZM36 56.6ZM36 59.1V59v.1ZM36 57.1ZM36 58.7v-.2.2ZM35.9 57.7v-.1.1ZM36.1 59.4v-.1.1ZM36.8 61v-.1.1ZM37.5 62.1V62v.1ZM37.4 62v-.1.1ZM37.9 62.5h-.1.1ZM37.8 62.4l-.1-.1.1.1ZM37.7 62.3v-.1.1ZM37 61.4v-.1.1ZM36.9 61.2v-.1.1ZM37.1 61.6v-.1.1ZM37.3 61.8v-.1.1ZM40.8 45.6ZM36.2 55ZM38 62.6h-.1.1ZM42.6 48.7c0 .7 0 1.4-.1 2.1-.1.7-.2 1.6-.7 2.2-.7.9-2 .7-3 .2v2.1c0 1 .2 1.9.1 2.9 0 1.1-.2 2.2-.4 3.3 0 .4-.2.9-.3 1.3h-.1c.7.5 1.2.7 1.2.7 1.3-.3 2.4-1.3 3-2.6l.3-1v-.1c.6-1.9.8-4.6.8-7l-.1-.1c-.6-.7-.4-1.6-.4-2.4 0-.9 0-2.3-.5-3.2l-.5-.7c-.2-.2-.5-.4-.8-.5l-.2.2c1.1.4 1.6 1.7 1.7 2.9ZM40.6 45.6ZM36.9 51.4zM36.3 54.4ZM40.4 45.7ZM36.1 55.5v-.1ZM36.8 52Z"/><path fill="#ba6348" d="M37.1 61.5ZM38.1 62.6ZM40.6 45.6h.2-.2ZM36.8 61.1ZM36.9 61.3ZM41.2 45.5h-.3.2v-.1ZM37.2 61.7ZM37.8 62.4ZM37.7 62.3ZM37.9 62.5ZM39.1 49.1c.3-1.3.9-2.3 1.8-3.3h-.5c-.5.2-1 .5-1.6 1.1-.5.6-1.3 2.5-1.9 4.6.2.4.4.7.7 1 .5-1.1 1.1-2.2 1.4-3.4ZM37.6 62.2ZM37.3 61.9ZM37.4 62ZM36.2 54.9v-.5.5ZM36 58.1v-.3.3ZM35.9 57.6v-.5.5ZM36.1 56v-.4.4ZM36 58.5v-.3.3ZM36 57.1v-.5.5ZM36.1 55.4V55v.4ZM36 56.5v-.4.4ZM36.7 60.9ZM36 58.9v-.3.3ZM36.5 60.4v-.1.1ZM36.6 60.7v-.1.1ZM36.3 60.1ZM36.3 54.3c.1-.8.3-1.6.5-2.3-.2.8-.4 1.5-.5 2.3ZM40.4 45.7h.2-.2ZM36.2 59.8v-.3.3ZM36.1 59.3v-.2.2ZM36.8 52c0-.2 0-.4.1-.6 0 .2 0 .4-.1.6ZM41.1 45.6H40.5c.2 0 .4 0 .5.1l.2-.2Z"/><path fill="#c29a75" d="m38 62.6.1.1c.1-.4.2-.8.3-1.3.2-1.1.3-2.2.4-3.3 0-1 0-1.9-.1-2.9v-2.1c-.4-.2-.7-.4-1-.6-.4-.4-.7-.8-.9-1.2 0 .2 0 .4-.1.6-.2.8-.4 1.5-.5 2.3V59.3s0 .2.1.3v1.7l.1.1.1.1.1.1Z"/><path fill="#fd802e" d="M41 62.4c-.2.2-.4.3-.6.5-.3.2-.7.3-1.1.4 0 0-.5-.1-1.2-.6-.6-.5-1.4-1.4-1.9-2.9-.2-.7-.3-1.7-.2-2.8.6.2 1.2.2 1.9.3h1.8c.2 0 .3.2.5.3.1 0 .2.1.3.2h.1c.7.4 1.4.8 2.1 1.1 0 .2-.1.4-.2.5v.1c0 .3-.2.7-.3 1-.1.3-.2.5-.4.7 0 0-.1.2-.2.3-.2.3-.4.5-.6.7Z"/><path fill="#e38c67" d="m44.7 45.6-1.1 1.9-.5.8H43l-3.4-.8 3-4.4 2.1 2.5z"/><path fill="#ba6348" d="m43.6 47.5-.5.8H43c-.5-.6-.8-1.4-.5-2.6 0 0 .1 1.1 1.1 1.8Z"/><path fill="#eb5d1f" d="M36.3 59.7s.2-.2.4-.3c-.2.1-.3.2-.4.3Z"/><path fill="#ba6348" d="M41.1 46.4c.3.2.5.4.7.7s.3.6.3 1v1.3c0 .5 0 .4-.1.7s-.1.4 0 .6.3.2.4 0c.2-.2.2-.4.3-.7s0-.5.1-.7v-1.5c0-.5-.5-1.7-1.3-1.8s-.4.2-.2.4Z"/><path fill="url(#d)" d="m56.7 52.7-6.5 6.4c-.1 0-.3-.1-.5-.2-.8-.4-1.1-.8-2.2-1.8s-1.5-1.3-2-2.1c-.1-.2-.2-.3-.2-.4l5.7-7c0 .4 1 1.7 2.4 3s2.9 2.3 3.2 2.2Z"/><path fill="#490d0d" d="M56.7 52.7c-.4.1-1.8-.8-3.2-2.2s-2.5-2.6-2.4-3c.2-.3 1.7.7 3.3 2.1s2.7 2.8 2.4 3.1Z"/><g fill="#e38c67"><path d="M42.9 50.1c1.3 1.8 2.5 3.6 3.8 5.4.2.2.3.5.3.8 0 .5-.5.7-.9 1-.1 0-.3.2-.5.2-.3 0-.6-.1-.9-.3-1.7-1.2-2.8-3.1-3.9-4.9-.6-.9-1.8-4.3-1.2-4.7 1.2-.8 3.2 2.5 3.2 2.5Z"/><path d="m45.3 55.7.8-.7 7.8.7-1.3.9-7.1.8-.2-1.7z"/></g><path fill="#e38c67" d="M52.4 55.6c.8 0 1.6 0 2.4.1h.3s.2.2.2.3l.7 1.1v.1c-.3.2-.6.4-.9.5v-.3s.1-.2.2-.3v-.5s0-.2-.1-.2c-.1-.1-.3 0-.5 0-.9.2-1.8.2-2.6-.1"/><path fill="#e38c67" d="m55 55.8 1.2.5h.1c.1.2.2.4.4.6.2.2.4.4.6.4-.2.2-.5.2-.8 0-.2-.1-.4-.4-.6-.6-.2-.2-.5-.4-.7-.5M47.7 43.1c-.1 1-.6 1-.6 1.7s-.2 1.1-.8 2c-.6.9-.9 1.1-1.7 1.1-.8 0-2.1-2.2-3.2-3.4-.6-2.3.6-4.9 3.4-4.2 2.8.7 2.9 2.9 2.9 2.9Z"/><path fill="#ba6348" d="M45.5 46.1h.2c.1 0 .2 0 .2-.1s.2 0 .3-.1.2-.2 0-.3-.2 0-.3-.1v-1.1c0-.2.3-.4.4-.5s0-.3-.1-.2c-.2.1-.4.3-.5.5s0 .3 0 .5v.8c0 .3 0 0 0 0h.2s-.1 0-.2.1-.1 0-.1 0l-.1-.1h-.3c-.1 0 0 .3.2.2Z"/><path fill="#632d1e" d="M46.6 44h.2c.1-.2.2-.2.4-.3h.4v.3c-.1 0-.1 0-.2.1H46.6M45.9 44v-.3c0-.1 0-.2-.2-.3 0 0-.2 0-.3-.1-.5-.1-1-.2-1.5 0l1.5.5c.2 0 .3.1.4.2"/><path fill="#f5f1e2" d="M45.4 44.6h-.7c-.3 0-.4-.2-.5-.4.3 0 .5-.2.8-.1h.1c.3.1.4.4.4.5ZM46.8 44.8h-.4c-.1 0-.3-.2-.3-.3.1 0 .3-.2.4-.2h.1s0 .2.1.3Z"/><path fill="#763823" d="M45.4 44.6H45c-.1 0-.2-.2-.2-.3s0-.2.1-.3h.1c.3.1.4.4.4.5ZM46.8 44.7v.2h-.2s-.1-.1-.1-.3 0-.2.1-.2c0 0 .1.1.1.3Z"/><path fill="#ba6348" d="M44.1 44.3c.1 0 .3-.1.4-.1h.5c.2 0 .1 0 .1.1v.1c0-.1 0 0 0 0h-.5c-.2 0-.3 0-.4-.2s-.2-.2-.3-.3v.2h-.2v-.2.2c0 .1.1 0 .2 0s0-.1 0-.2h-.2v.1c0 .1 0 0 0 0 0 .1.2.2.3.3.3.1.5.1.8.1h.3c.1 0 0-.1 0-.2 0-.2-.2-.4-.5-.5s-.4 0-.6 0-.3 0-.4.1 0 .3 0 .2ZM46.2 44.7c.1 0 .2-.1.3-.1 0 0 0-.1-.2 0s-.1 0 0 .2c0 .2.2.3.3.4s.3 0 .5 0 .2 0 .2-.2v-.2s0-.2-.1-.2h-.3c-.2 0-.4 0-.5.2s0 .1 0 .2.1 0 .2 0ZM44.8 46.6l.5-.2H45.6v.2c-.4 0-.7 0-1.1-.1M44.8 46.6c.2.2.5.4.8.4.1 0 .3 0 .3-.2"/><path fill="#a44a3a" d="M44.8 46.7h1c.1 0 .3-.1.1-.2s-.2 0-.3 0h-.8c-.2 0-.2.2 0 .2Z"/><path fill="#632d1e" d="m41.5 45 1.4-2 1.1-.9.5.2s.8-.7 1-.5c.2.2.7.9 1.4 1 .7.2.6-.5.6-.5s-.4-1.6-2.7-2.1c-2.4-.5-3.2 1-3.4 1.8-.2.8-.2 1.4-.3 1.5l-.2.2h.2v.5c0 .5.3.6 0 .9-.2.3.2-.1.2-.1Z"/><path fill="#ba6348" d="M42.5 43.3c0-.2-.3-.4-.5-.3-.2 0-.3.1-.4.3s-.1.3-.2.5v.8c0 .3.3.5.6.5"/><path fill="#632d1e" d="M43 42.1c-.2.6-.5 1.2-.7 1.8v.3c.2 0 .5-.2.6-.3.2-.2.3-.4.4-.6 0-.1.2-.3.3-.4h.6c.5 0 1-.4 1.1-.9 0-.2-.2-.6-.2-.6h-.9l-1.3.8Z"/><path fill="#632d1e" d="M46.1 46.7c0-.2-.1-.4-.3-.5h-.6c-.4 0-.8 0-1.1.3-.4-.5-.8-1.1-1-1.8-.1-.3-.2-.6 0-1l-.3-.2-.3.5c0 .2-.2.3-.2.5-.1.4 0 .8 0 1.2 0 .1 0 .3.1.4 0 .2.2.4.3.5l.3.5c.1.2.3.5.5.6v-.2c.2.4.6.7 1.1.7H45.4v.2c.3 0 .6-.3.7-.6s.2-.6.4-.9c0-.1.3-.6.4-.7l-.6.6Zm-.6.5V47h-.2l-.2.2c-.2 0-.4 0-.5-.2 0-.1.1-.3.3-.4h.2c.4 0 .7 0 .9.1v.4h-.3Z"/><path fill="#763823" d="M18 49.2s-3.5.5-2.6-1c.9-1.5.5-3.2.5-3.2l2.2.8v3.4Z"/><path fill="url(#e)" d="m30.1 45.9-2.4 8.8h-.6c-.9 0-1.3-.1-2.8-.4-1.5-.3-2-.4-2.8-.8-.2 0-.3-.2-.4-.3l1.4-8.9c.1.4 1.7 1 3.6 1.4s3.6.5 3.9.2Z"/><path fill="#490d0d" d="M30.1 45.8c-.3.3-1.9.2-3.9-.2s-3.5-1-3.6-1.4c0-.4 1.8-.3 3.9.2s3.7 1.1 3.6 1.5Z"/><g fill="#763823"><path d="M29 48.6c-.1 0-.2.1-.3.2-.2 0-.5.1-.8.3l.5.5.9-.5-.2-.4Z"/><path d="M29.2 49.7c.3 0 .9-.2.9-.3 0-.1-.8 0-1.2-.2 0 0-.1-.2-.5-.3-.3 0-.6.2-.8.4 0 .3.2.6.2.6h.2c.3.7 2 1 2 .8 0-.2-.4-.2-.6-.3.3 0 1 0 1-.1 0-.2-.6 0-.9-.2 0-.1 1 0 1-.2s-.9-.2-1.3-.2Z"/></g><path fill="#2b2b2b" d="M18.2 43.1c0-.3-.2-.5-.4-.7s-.8-.2-1 0-.3.5-.3.8 0 .6.1.9.4.7.8.8.3 0 .4 0 .2-.2.2-.3c0-.2 0-.6-.3-.6 0 0 .1 0 0 0V43.4s0 .1 0 0h-.2c.1 0 0 0 0 0s0 .1 0 0v.2c0 .3.4.4.6.3s.4-.3.3-.6Z"/><path fill="#763823" d="M18 47.2c0 2.2 1.8 4.2 1.8 4.2s-.4.5-1 .5c1.2 2.5.4 4.8.8 7.1v.4s-.1.1-.2.1c-1 .4-2 1-2.8 1.7-.6-.9-.7-2.1-.4-3.1.2-.9.7-1.7.6-2.6-.1-.7-.6-1.3-1.1-1.8-.4-.5-.8-1.1-1.2-1.6-.3-.5-.6-1-.7-1.6-.1-.9.3-1.7.8-2.4.3-.4.7-.8 1.2-.9"/><path fill="#6b3020" d="M18.4 60c-.4-.8-.1-1.7 0-2.5.1-.6 0-1.2-.3-1.7-.2-.3-.4-.7-.4-1.1 0-.3 0-.6.3-.8.4-.4.9 0 1.4-.2-.1-.6-.3-1.2-.6-1.8.6 0 1-.5 1-.5s-.2-.2-.4-.5c-.8.1-1.5.2-2.3.2-1 0-2.1 0-3.1-.4s0 0-.1 0c.1.5.4.9.6 1.4.4.6.7 1.1 1.2 1.6.4.5 1 1.1 1.1 1.8.1.9-.4 1.7-.6 2.6-.3 1-.1 2.2.4 3.1l1.8-1.2Z"/><path fill="#464c31" d="M18.9 52c-.5 0-1-.2-1.5-.3-.5-.1-1-.1-1.6-.1h-.4c-.4 0-.7 0-1.1.1 0-.1-.1-.3-.2-.4.4-.1.9-.2 1.3-.4h.2c.5-.2 1-.4 1.3-.9v-.1c.2-.9-.5-2.1-1.4-2.4.1 0 .2-.1.4-.2.2.2.4.5.6.7.4.4.7.9 1.2 1.3.3.2.6.4 1 .5.5 1 1.2 1.8 1.2 1.8s-.4.5-1 .5Z"/><path fill="#343723" d="M18.9 52c-.5 0-1-.2-1.5-.3-.5-.1-1-.1-1.6-.1h-.4c0-.2.1-.5.2-.8.5-.2 1-.4 1.3-.9 1.1 1.5 3 1.6 3 1.6s-.4.5-1 .5Z"/><path fill="#464c31" d="M16.7 61.2c-.6-.9-.7-2.1-.4-3.1 0-.3.2-.5.3-.8a3.82 3.82 0 0 0 1.9.8h1.3c0 .3.1.6.2.9v.4s-.1.1-.2.1c-.6.3-1.2.6-1.8 1-.4.2-.7.5-1 .7Z"/><path fill="#343723" d="M16.7 61.2c-.6-.9-.7-2.1-.4-3.1 0-.3.2-.5.3-.8a3.82 3.82 0 0 0 1.9.8c0 .1-.1.6 0 1 0 .2-.2.8-.6 1.4-.4.2-.7.5-1 .7Z"/><path fill="#763823" d="M14.4 48.8c-.5.5-.4 1.3.1 1.8s1.2.6 1.8.7c.9 0 1.8 0 2.7-.2.7-.2 1.5-.4 2.2-.3.4 0 .9.2 1.3.2.6 0 1.1-.2 1.7-.3 1.3-.4 2.7-.7 4.1-.8l-.3-.6c-1.2-.3-2.5-.5-3.7-.2-.7.2-1.3.5-2 .5s-1.4-.3-2.1-.4c-1.3-.4-2.6-.5-3.9-.3"/><path fill="#6b3020" d="M27.9 49.8c-.1 0-.2-.1-.4-.1-.4 0-.7 0-1.1.1-.7.1-1.5.3-2.2.4h-2.1c-.9-.1-1.8-.1-2.6 0-1.2.1-2.4.4-3.6.3-.7 0-1.5-.2-1.8-.9 0 .4.2.7.4 1 .5.5 1.2.6 1.8.7.9 0 1.8 0 2.7-.2.7-.2 1.5-.4 2.2-.3.4 0 .9.2 1.3.2.6 0 1.1-.2 1.7-.3 1.2-.4 2.5-.6 3.7-.8ZM18 47.8c-1-1.1-1.1-2.3-1.1-2.3l1.2.5v1.8Z"/><path fill="#763823" d="M20.5 42.4c0 .6.4 1.7.6 1.8.2.1.5.2.6.3s-.1.2-1.2.3"/><path fill="#2b2b2b" d="m20.2 44 .2-.2h-.1.3-.1l-.6-.5v.6-.2h.1v-.2h.5H19.6c-.1 0-.2.1-.3.2v.4c0 .1.1.2.2.3s.3 0 .4 0h-.1.2-.1.2-.1c.1 0 .3.1.5 0s0 0 .1 0h.1c.1 0 0 0 0-.1V43.4s0-.1-.1-.1h-.5c-.1 0-.3.1-.4.2l-.3.3c-.1.1-.1.2-.1.4v.2s0 .1.1.2c0 0 .2.2.4.1s.3 0 .4-.1Z"/><path fill="#763823" d="M20.8 44.4c.2.5.1 1.1 0 1.5 0 .2-.2.4-.4.5-.3.2-.7.1-1.1 0-.1 0-.3 0-.4-.1-.4-.2-.7-.5-.9-.8"/><path fill="#763823" d="M15.1 42.7c.1-.3.3-.6.5-.8.5-.7 1.1-1.4 2-1.6 1.2-.3 2.6.2 3 1.3.3.9 0 2.3.2 3.6-.2.3-.5.6-.8.9h-1.2l-1.5.3V46c0-.2-.2-.3-.3-.4-.3-.3-.6-.4-.9-.6-.6-.5-1.1-1.3-.8-2.1Z"/><path fill="#f5f1e2" d="M19.5 43.8h.1c0-.2 0-.3.2-.3.1-.1.3-.2.5-.3v.6h-.8"/><path fill="#341a1a" d="M20.1 43.3c0 .2 0 .4.1.5h.1v-.4h-.2Z"/><path fill="#572719" d="M20.4 43.7h-1c-.1 0 0 .1 0 .2h.9c.3 0 .1 0 0-.2s0-.1-.2 0Z"/><path fill="#572719" d="M19.7 43.8c.1-.1.2-.3.3-.4h.1s.1 0 0-.2 0-.1-.2 0c-.2 0-.3.1-.5.3s-.2.3-.4.4 0 .1 0 .2.1 0 .2 0Z"/><path fill="#763823" d="m20.4 43 .1.4-1.2.4v-.5l1-.4Z"/><path fill="#572719" d="M20.5 43.2c0-.1 0-.2-.1-.4s0-.1-.2 0-.1 0 0 .2c0 .1 0 .2.1.4 0 0 .1 0 0-.2Z"/><path fill="#572719" d="M20.4 43.4c-.3 0-.7.2-1 .3s0 .1 0 .2.1 0 .2 0l.9-.3c.3-.1.1 0 0-.2s0 0-.2 0Z"/><path fill="#61221d" d="M20.1 44.6v-.4s-.2 0-.3-.1h-.2s-.1 0-.2.1c0 0-.2.2-.2.3v.1c0 .1.2.3.3.3.2 0 .5 0 .6-.3Z" opacity=".6"/><path fill="#61221d" d="M20.9 45.1v.2h-.2c-.2 0-.3 0-.5-.2h.6"/><path fill="#571e1a" d="m20.3 45.2.2-.2s.2-.1.4 0v.2h-.4"/><path fill="#471915" d="M20.3 45.3h.6c.2 0 .1 0 0-.2s0-.1-.2 0 0 0-.1 0h-.3c-.1 0-.1 0-.1.1s0 .1.1.1Z"/><g fill="#572719"><path d="M20.6 44.6ZM20.6 44.6Z"/></g><path fill="#311818" d="m14.4 42.2.6 2.2c0 .2 0 .3.2.5.3.3.9.8 1.2 1 .3.2.6.4.7.5.2-.5.1-1 .2-1.5 0-.4.3-.8.6-1l-.2-2-.8-1-1.9.3c-.3.2-.6.5-.7.9Z"/><path fill="#6b3020" d="M17.7 43.4c-.2-.1-.4-.1-.5 0-.2 0-.3.3-.3.5s0 .4.2.5c0 0 .1 0 .2.1.2 0 .4.2.5 0"/><path fill="#311818" d="M19.3 42.7c.2 0 .3-.2.5-.2h.6v.2l-1.3.2.2-.2ZM17.7 43.6c0-.3 0-.6-.2-.9l1.4-1.3v.5c-.1.3-.3.6-.5.8V43c0 .6 0 1.3-.5 1.6v-1.2Z"/><path fill="#311818" d="M18.7 44.1v-.2c0-.4-.1-.9-.2-1.3.3.2.6.3 1 .2l-.8-.8c.4 0 2.1-.3 1.9-.4.4 0 .8-.2 1.2-.4 0 0 .1 0 .1-.1 0 0 0-.2-.2-.2l-1.4-.4h.5c.1 0 .3-.2.3-.3 0-.2-.3-.3-.5-.3-.9-.1-1.8-.2-2.7-.1.1-.2.3-.4.4-.6-.8 0-1.7.4-2.2 1v-.9c-.4.6-.7 1.3-.8 2l2.9 1.9.3.9c.1 0 .2.1.3 0Z"/><path fill="#b71c22" d="M87.7 62.7c-.1 1.6-.5 3-1 4.4-.4 1-.9 1.9-1.5 2.8-.2.3-.4.6-.6.8-.3.4-.6.8-1 1.2L82.5 73c-2.9 2.5-6.8 3.9-11 3.5l-51.3-4.3a15.16 15.16 0 0 1-12-7.8c-.2-.3-.3-.6-.5-.9-.4-.9-.8-1.9-1-3-.3-1.4-.4-3-.3-4.5l81.3 6.8Z"/><path fill="#66c4d8" d="M86.7 67.1c-.4 1-.9 1.9-1.5 2.8L7.8 63.4c-.4-.9-.8-1.9-1-3l79.9 6.7Z"/><path fill="#fff" d="M84.6 70.7c-.3.4-.6.8-1 1.2L9 65.7c-.3-.4-.6-.9-.8-1.3l76.4 6.4Z"/><path fill="#9a3c2a" d="M72 60.6c-1.4 0-2.6.5-4 .7-1.1.1-2.3-.1-3.4-.4-1.1-.3-2.3-.7-3.2-1.5l-.3.7v.2l.7.8c.3.3.5.6.8.8 1.2 1.1 2.7 1.9 4.3 2.3s3.2.5 4.9.3"/><path fill="#fc542d" d="m71.6 60.5-1.5 3.7v-.3s.6-2.6 1.6-3.7"/><path fill="#a9533d" d="M70.9 59v.2l.3.7v.2s0-.2.1 0-.3 1-.3 1l2.2-1.4-.2-.5.8-1.4-1.9.6-1 .6Z"/><path fill="#3b363d" d="M66.1 69.7H66h.1Z"/><path fill="#a9533d" d="M69.8 58.3v-1.5c0-.1 0-.2.1-.4 0-.2.2-.3.3-.5.2-.4.3-.8.3-1.3 0 0 2.5-.8 3.6.2.9.8.7 2.3.7 2.6-.5.4-1.2.5-1.7.9-.3.2-.5.4-.8.6 0 0-.2.1-.2.2-.3.1-.6.1-.9 0-.3-.1-.7-.3-1-.5l-.1-.1v-.2Z"/><path fill="#833424" d="M70.6 57.6s-.1-.2-.2-.2h-.1c-.1 0 0 0 0 0v-.2c0-.1 0 0 0 0 .1 0 .2 0 .3-.1.4-.2.5-.8.4-1.2s-.3 0-.2 0v.7c0 .2-.1.2-.2.2s-.2 0-.3.1-.2 0-.2.2v.3c0 .1 0 .2.2.3s.1 0 .2 0c0 0 0 .1.2 0s0 0 0-.2Z"/><path fill="#341a1a" d="M70.7 55.7v-.4s0-.1-.2-.2v.2c-.1 0-.1 0 0 .1l.3.2M71.3 56.1l.1-.1h.4c.3.1.6.3.8.6l-.9-.3h-.3"/><path fill="#f5f1e2" d="m71.2 56.7.1.1s.2.2.4.2h.5c-.1-.2-.2-.3-.3-.4H71.3c-.1 0-.2.1-.2.1ZM70.2 56.1s.1.1.2.1h.3c0-.1 0-.2-.1-.3h-.1s-.1 0-.2.1Z"/><path fill="#763823" d="M71.3 56.8s.2.2.4.2.2-.2.2-.4H71.3v.2ZM70.3 56.2s.1.1.2.1c0 0 .1-.1.1-.2V56h-.1s-.1.1-.1.2v.1Z"/><path fill="#833424" d="M72.3 57c-.1-.2-.2-.3-.4-.4s-.4-.2-.7 0-.3.2-.2.3 0 .1.1.1c0 0 .2.1.2.2s.2.1.4.1h.4s.2 0 .2-.1 0-.2-.1-.1-.1 0-.1.1c0 0 0 .1.1.1s.1 0 .1-.1h-.1v-.1h-.4c-.1 0-.2 0-.2-.2 0 0 0 .1 0 0h.2c.1 0 .2 0 .3.2s0 0 0 .1v.1c0 .1.1 0 .2 0s0-.1 0-.2ZM70.9 56.3c0-.2-.3-.6-.6-.4s-.1 0-.1.1v.2c0 .1.2.2.3.3s.3 0 .4 0 0-.1 0-.2-.1 0-.2 0c0 .1 0 .2.2.2s.1 0 0-.2Z"/><path fill="#59241e" d="m70.7 58.1-.2-.3h-.2c.2.1.5.3.7.4"/><path fill="#81352d" d="M70.7 58.1c-.2 0-.5 0-.7-.1 0 0-.1-.2 0-.3"/><path fill="#4a1917" d="M70.7 58s-.1-.1-.2-.1-.1 0-.2-.1c0 0-.1-.1-.2-.1h-.2c-.1 0 0 .1 0 .2 0 0 .1 0 .2.1 0 0 .1 0 .2.1s.1 0 .2 0 0-.1 0-.2Z"/><path fill="#c75a51" d="M71.6 58.1h.3v-.2c0-.1 0-.2-.1-.3 0 0-.2-.1-.3-.2h-.3s-.2 0-.2.1v.3c0 .2.3.4.5.4ZM70 56.4c0 .1-.1.2-.1.4v.3c.1 0 .3-.1.4-.3v-.1s0-.1-.1-.2Z" opacity=".3"/><path fill="#341a1a" d="M73.4 54.1c.6 0 1.2.2 1.5.7.4.4.6 1 .6 1.6v.4c-.1.3-.4.5-.4.7 0 .2.1.4 0 .6 0 .2-.2.4-.3.6-.2.2-.5.4-.8.5s-.7.2-.9 0c0-.3.3-.7.4-.9.4-.8.3-1.8 0-2.7"/><path fill="#a9533d" d="M67.1 69.9v.1c.7 1 1.5 1.9 2.4 2.8.5.5 1.1.9 1.8 1h.5c.4 0 .8-.2 1.2-.4 1-.4 2.7-.9 2.9-1.3 0 0 .2-.7.3-1.5.1-.7.2-1.7.2-2.5v-1.9c0-.5 0-.9-.2-1.4v-.7c-.2-.9-.4-1.8-.8-2.6-.5-1-1.4-1.7-2.4-2.1l-1 .3c-.7.5-.9 1.3-1.4 1.9-.3.4-.7 1.4-.9 2.2 0 .3-.1.5-.2.7v.1c0 .5.4 1.2 1.1.8-.4.3-.6.8-.7 1.3v1.1l-.5.4-2.5 1.7Z"/><path fill="#fc542d" d="m69.6 68.3.5-.4v-.7c.1-.6.3-1.4.8-1.7-.7.3-1.1-.3-1.1-.8.3 0 .5.2.8.2.7 0 1.6-.2 2.2-.6.7-.5 1.1-1.1 1.5-1.8.3 1.3 1.2 2.7 2.5 3V68.1c0 .8-.1 1.7-.2 2.5s-.2 1.4-.3 1.5c-.3.4-2 1-2.9 1.3-.4.2-.8.3-1.2.4h-.5c-.7 0-1.3-.5-1.8-1-.9-.8-1.7-1.8-2.4-2.8v-.1l2.5-1.7Z"/><path fill="#de4225" d="M72.4 73.8c0-1.6.1-3.2.4-4.8 0-.7.2-1.4.4-2.2.1-.4.2-.7-.1-1-.2-.2-.4-.3-.6-.4-.2-.1-.5-.4-.2-.7 0 0 .2-.1.3-.2.4-.2.9-.4 1.1-.8.3-.4.3-1 .4-1.5v-.1s0 .1.1.2c.3 1.4 1.1 2.9 2.5 3.2V68.1c0 .8-.1 1.7-.2 2.5s-.2 1.4-.3 1.5c-.3.4-2 1-2.9 1.3l-.9.3Z"/><path fill="#9a3c2a" d="M72 64.6c-.1.1-.1.3 0 .5-.3 0-.7.2-1 .4-.2 0-.4.1-.6.2h-.2c.2-.3.6-.5.8-.8.4-.4.6-1 .8-1.4.1.4.2.8.5 1.1-.1 0-.2.1-.3.2Z"/><path fill="#a9533d" d="M73.6 64h.2c0 .1.2.3.3.4-.2-.1-.4-.3-.7-.4l.1.1Z"/><path fill="#fc542d" d="M73.8 65.1c-.4.1-.7.3-1.1.2-.3 0-.6-.2-.8-.3v-.2c.2-.5.5-.9.9-1.3s.9-.6 1.4-.7h.2l.1.1c.2.4.4.7.5 1.1v.3c-.2.4-.5.6-1 .8Z"/><path fill="#9a3c2a" d="M61.4 60.1c-.2-.3-.6-.5-.9-.7l-.7-.4c-.2-.1-.4-.3-.5-.5-.1-.3.1-.7 0-1.1.1 0 .3.1.3.3v.5c0 .2.3.2.5.2h.6c.2 0 .3.2.4.4v.5c0 .1.2.2.2.3 0 .1.1.3 0 .4"/><path fill="#fc542d" d="M70.9 65.5s.1-.2.1-.3c-.1-.5-.5-1-1.1-1.3-.1.3-.2.6-.2.8 0 .5.4 1.2 1.1.8Z"/><path fill="#9a3c2a" d="M61.3 60.1v-.4s0-.1-.1-.2c-.2-.2-.5 0-.7-.2-.3-.1-.4-.5-.7-.7h-.1c0 .2.1.4.2.6 0 .1.1.3.3.4h.3c.1 0 .2.1.3.2.3.3.6.4 1 .4"/><path fill="#9a3c2a" d="M61.6 59.5c-.2-.1-.2-.3-.2-.5v-.7h-.2c-.2 0-.3-.1-.4-.3v.4l.1.2c0 .1 0 .2-.1.3-.2.3 0 .9.3 1"/><path fill="#fc805f" d="M72.9 68.2h.2-.2Z"/><path fill="#de4225" d="M71.7 73.9h.2c.4 0 .8-.2 1.2-.4 1-.4 2.7-.9 2.9-1.3 0 0 .2-.7.3-1.5-.1-.2-.3-.3-.4-.4-.5-.5-1.1-.9-1.8-1.2-.2 0-.4-.2-.6-.2l-.6-.3c.3.2.4.6.6.9l.3 1.1c0 .6 0 1.2-.3 1.7-.2.4-.6.7-.9 1-.3.3-.7.5-1 .8Z"/><path fill="#fc542d" d="m73.4 59.6 1.1 3.6-1.1.1v-3.7z"/><path fill="#9a3c2a" d="M73.7 57.2s.6.3.2.9c-.4.6-1 .2-1 .2l.8-1.2Z"/><g fill="#341a1a"><path d="M73.7 54.1c-.7-.5-1.7-.7-2.5-.5-.3 0-.5.2-.7.4-.2.2-.3.5-.2.7 0 .2.2.3.3.4.2.2.4.3.6.4.1 0 .2.1.3 0 0-.2-.2-.4-.2-.7.2.2.3.5.6.7.2.2.5.4.8.4l-.2-.4c.2.3.5.4.8.6.3.2.6.3.8.7"/><path d="M73.1 55.8c0 .2-.1.4-.1.6v.5c0 .2.2.3.3.3h.4c.3 0 .7 0 .9.4 0 0 .4-1.2 0-1.6-.3-.4-1.5-.2-1.5-.2Z"/></g><path fill="#341a1a" d="M75.1 55.3c0-.2.2-.3.4-.5s.5-.3.7-.4h.4c.2 0 .3.2.4.3.1.2.3.5.2.7 0 .2-.2.3-.3.4-.1 0-.2.2-.4.2-.3 0-.6 0-.9-.2-.2 0-.4-.2-.5-.4"/><path fill="#9a3c2a" d="m70.9 59.2.3.7v.2h.1c.4 0 .7-.4 1-.8l.3-.6v-.2l-.2.1c-.3.2-1 .5-1.6.5ZM76.5 64.3c-.3-.2-1.1-.7-1.4-.6-.2.1 1.1 1.2 1.5 1.6l-.2-1Z"/><path fill="#fc542d" d="M73.3 68.6s-.1-.2-.2-.3c.4 0 2 .9 2 .9-.3 0-1.6-.3-1.6-.3 0-.1 0-.3-.2-.4Z"/><path fill="url(#b)" d="m68.1 55.1-.5 9c-.1 0-.3 0-.5.1-.7.2-1.2.2-2.6.3-2.1 0-2.7 0-3.2-.3-.2 0-.3-.2-.4-.2l-.5-8.9c.2.3 1.8.6 3.8.6s3.6-.3 3.8-.6Z"/><path fill="#216ba4" d="M68.1 55.1c-.2.3-1.8.6-3.8.6s-3.6-.3-3.8-.6c0-.4 1.7-.7 3.9-.7s3.9.3 3.9.7Z"/><g fill="#a9533d"><path d="M65.8 64v.2l-.7.9c-.1.1-.2.3-.1.5.3-.4.7-.7 1.1-.9l-.9 1.3s-.1.2 0 .3c.1 0 .2-.1.3-.2l.8-.9-.7 1.1v.2h.1l.8-1c0 .3-.2.7-.2 1 .3-.4.5-.9.6-1.5l-1-.9Z"/><path d="M67.7 64.3c-.8-.5-1.6-.9-2.5-1.3 0 .2.1.4.3.5.1.1.3.3.3.5v.4s.1.2.2.2l.5.4c.2-.2.4-.3.7-.2h.3v-.5Z"/></g><path fill="#a9533d" d="M66.8 64.7s.2.1.3.2c1 .7 2.1 1.3 3.1 2 .3.2.5.3.8.5.2.1.4.3.7.3.4 0 .7-.2 1.1-.4.6-.4 1.2-.7 1.8-1.1.6-.4 1.1-.9 1.6-1.4l.4-.4c-.2-.9-.4-1.8-.8-2.6-.7-.3-1.7-.4-1.6-.2.2.3.3.7 0 1.2-.7.8-1.7 1.3-2.5 2l-.2.2H71c-.3 0-.6-.2-1-.2-.7-.2-1.3-.3-2-.5h-.7c-.2 0-.4.4-.3.6Z"/><path fill="#5c291b" d="M34 62.2c1.7.7 3.6 1 5.4 1.3h.7c.1 0 .2-.2.3-.2l1.1-1c.8-.7 1.6-1.4 2.6-1.5.5 0 1.1.2 1.2.7.1.4-.1.8-.4 1.1-.3.4-.7.8-1.1 1.2-.7.7-1.5 1.4-2.5 1.6-.7.1-1.4 0-2-.1-.7-.2-1.3-.5-1.9-.8l-2.4-.9"/><path fill="#6b3020" d="M45 60c-.4-.2-1 0-1.3.5-.3.4-.4.9-.5 1.3-.1.5-.3 1-.6 1.3l-.2.2c-.1.2 0 .5 0 .8.2.2.4.4.6.5 0 0 .2.1.2.2v.4c0 .9.3 1.9 1 2.5.7.6 1.7.9 2.6.5.6-.2 1-.7 1.4-1.1a8 8 0 0 0 1.7-4.4V62c-.1-.5-.5-.8-.9-1.1-1.3-.9-2.9-1.3-4.4-1.1"/><path fill="#5c291b" d="M43.9 63.4h.2c.3-.1.4-.4.6-.6.2-.3.5-.5.8-.6-.6.7-.8 1.6-.8 2.5"/><path fill="#fc805f" d="M50.1 62.1c-.1-.5-.5-.8-.9-1.1 0 0-.1 0-.2-.1-.8.3-1.3 1.1-1.8 1.8-.2.3-.5.6-.9.7-.6.2-1.2 0-1.8.5h-.2c0-.5-.2-1-.4-1.5-.1-.3-.2-.5-.1-.8 0-.6.5-1.1 1-1.6-.3 0-.6.2-.8.5-.3.4-.4.9-.5 1.3s-.3 1-.6 1.3l-.2.2c-.1.2 0 .5 0 .8.2.2.4.4.6.5 0 0 .2.1.2.2v.4c0 .9.3 1.9 1 2.5.7.6 1.7.9 2.6.5.6-.2 1-.7 1.4-1.1a8 8 0 0 0 1.7-4.4V62Z"/><path fill="#fc805f" d="M47.8 67.2c.9 1.8.8 4.1-.3 5.8-.5.8-1.3 1.5-2.2 1.5-.5 0-.9-.2-1.3-.5a9.1 9.1 0 0 1-2.1-1.8c-.7-.9-1.3-2-1-3.1.3-1.1 1.4-1.8 2.4-2.2l1.5-.6c.7-.2 1.5-.4 2.1 0"/><path fill="#e66b50" d="M49.9 61.7h-.2c-.5.2-.9.4-1.2.7-.5.7-.6 1.7-1.2 2.4-.3.3-.7.5-1.1.5h-.7c-.2 0-.5-.1-.8-.1.6.9 1.5 1.5 1.5 2.7 0 .2-.1.3-.2.4.4 0 .7 0 1.1-.1.6-.2 1-.7 1.4-1.1a8 8 0 0 0 1.7-4.4V62c0-.1 0-.3-.2-.4Z"/><path fill="#e66b50" d="M47 66.5c-.4-.3-1-.3-1.5-.2.4.5.7 1 .7 1.7 0 .2-.1.3-.2.4v.5c0 .4-.3.7-.5 1-.5.7-1.3 1.1-2 1.6-.4.3-.7.6-.9.9 0 .1-.1.2-.2.3.5.5 1.1 1 1.7 1.4.4.2.9.5 1.3.5.9 0 1.7-.7 2.2-1.5 1-1.7 1.2-4 .3-5.8l-.8-.7Z"/><path fill="#6b3020" d="M47.8 60.9v.1c-.4.4-1 .7-1.6.7-.6 0-1.2-.4-1.4-.9 0-.4-.1-.8-.3-1.1-.1-.3-.3-.6-.5-.8 0 0-.2-.2-.2-.3.8-.2 1.6-.4 2.4-.4.1 1 1 1.7 1.6 2.6v.2Z"/><path fill="#5c291b" d="M45.1 59c-.2.3-.4.5-.6.7-.1-.3-.3-.6-.5-.8.4 0 .8-.2 1.2-.5 0 .2 0 .4-.1.6Z"/><path fill="#6b3020" d="m44.6 59-1.6-.2c-.2 0-.5 0-.6-.2-.2-.2-.2-.4-.2-.6 0-.8 0-1.7.4-2.5.2-.5.4-.9.8-1.2.6-.5 1.6-.4 2.3 0 .3.1.6.3.9.5.2.2.3.4.4.6.4.7.5 1.6.2 2.4-.3.8-1.1 1.3-1.9 1.2"/><path fill="#341a1a" d="M43.5 54.1c.2.2.5.3.8.4.2 0 .4.2.4.4s-.1.3-.2.4c0 .1-.2.3 0 .4 0 0 .1 0 .2.1.2.1.3.4.3.6s0 .5-.2.7c0 .1-.1.3 0 .4h.2c.2-.2.2-.7.5-.8 0 0-.3 1.8.8 1.9s1.4-2.4 1.1-3.2-1.7-1.4-2.3-1.5c-.6-.2-2-.2-1.6.3Z"/><path fill="#fc542d" d="M46.5 58.6h-.3l-1.3-3.1v-.3l-.8-1.6h1c.1 0 .2 0 .3.1.6.2.9.5.9.5v4.2Z"/><g fill="#f5f1e2"><path d="M44.7 54.3c.2 0 .2-.3 0-.3s-.2.3 0 .3ZM46.2 54.3c-.1 0-.2 0-.2.2 0 .1.2.2.3 0v-.3ZM45.4 54.8c.2 0 .2-.3 0-.3s-.2.3 0 .3ZM44.9 55.5v-.3h.1c0 .1 0 .3-.1.3ZM46.2 55.3h-.3s0 .2.1.3c.2 0 .3-.2.2-.3ZM45.6 56c.2 0 .2-.3 0-.3s-.2.3 0 .3ZM46.2 56.4c-.2 0-.2.2 0 .3h.2s0-.2-.1-.2ZM46.3 58.2c.2 0 .2-.3 0-.3s-.2.3 0 .3ZM45.5 53.8c-.1 0-.3 0-.3-.2.1 0 .2 0 .3.1Z"/></g><path fill="#f04221" d="M46.4 58.2c0-.3 0-.5-.1-.8s-.1-.5-.2-.8-.1-.5-.2-.8 0-.3 0-.4 0-.3-.1-.4-.3-.1-.3 0c-.1.3 0 .6 0 .8s.1.6.2.9.2.6.2.8.2.6.3.8.1 0 .1 0Z"/><path fill="#341a1a" d="M46.9 55.2c-.4-.5-.6-1.1-.4-1.7 0-.3.2-.5.4-.7.2-.2.5-.2.8-.3h.8c.3 0 .6.3.8.5.6.6.9 1.6.5 2.4-.3.8-1.3 1.3-2.1 1.1-.3 0-.5-.2-.7-.4"/><path fill="#6b3020" d="M42.4 55.9s-.1.6-.8.6h-.1v.2c.2.2.5.3.7.4"/><path fill="url(#f)" d="m37.1 52.4 3.4 8.4-.4.4c-.5.4-1 .7-2.3 1.4-1.9 1-2.4 1.1-3 1.1h-.4l-4.2-7.9c.3.2 1.9-.2 3.7-1.1s3.2-1.8 3.2-2.2Z"/><path fill="#216ba4" d="M37.1 52.4c0 .4-1.4 1.3-3.2 2.2s-3.4 1.3-3.7 1.1c-.2-.3 1.3-1.3 3.2-2.2s3.6-1.4 3.8-1Z"/><path fill="#6b3020" d="m36.5 61.9.4-.5V61c-.2-.4-.5-.6-.8-.9H36v.2c.1.2.4.4.3.7l-1-.7c-.3-.2-.8-.5-.9-.5 0 0 .5.6.8.8-.5-.3-1.5-.8-1.6-.7 0 0 .7.6 1.1.8-.3-.1-1-.4-1.1-.3 0 0 1.8.7 2.3 1.5M45.4 56.8c.1-.2.5-.2.6 0s.3.4.3.6v.3c0 .2-.2.3-.4.3-.1 0-.2.1-.3.1s-.2 0-.3-.1v-.3"/><path fill="#6b3020" d="M45.6 61.5c.9 0 1.9 0 2.8.1.4 0 .9 0 1.3.3.4.2.7.7.6 1.1 0 .4-.4.7-.8.9-.4.2-.9.3-1.4.3-.7 0-1.3-.3-2-.6-.6-.2-1.3-.3-2-.5-.3 0-.6-.1-.9-.1-.4 0-.8.1-1.1.1-.7 0-1.3-.1-2-.3-1.3-.4-2.6-.7-3.9-1.1 0-.3.2-.5.5-.5h.8c1.2 0 2.4-.7 3.6-.6 1 0 1.8.6 2.8.6.6 0 1.1-.2 1.6-.2s1.1.1 1.6.3l1.9.5"/><path fill="#f5f1e2" d="M43.7 56.5h-.8V56h.2c.1 0 .2.1.3.2l.2.2.1.1Z"/><path fill="#464c31" d="M43 56.4V56h.2c0 .2 0 .4-.1.4Z"/><path fill="#572719" d="M42.8 56.6h.8c.2 0 .1 0 0-.2s0-.1-.2 0h-1c-.1 0 0 .1 0 .2Z"/><path fill="#572719" d="M43.7 56.4c-.1-.1-.2-.3-.4-.4s-.3-.2-.4-.2h-.2c-.1 0 0 .1 0 .2s0 0 .1 0 .2.2.3.4.1 0 .2 0 0-.1 0-.2ZM43.1 55.8v-.5c0-.1-.1 0-.2 0v.3c0 .1 0 0 0 0h.2Z"/><path fill="#572719" d="M42.9 55.9s.1 0 .2.1l.1.1c.1.1.1 0 .2 0s0-.1 0-.2-.2-.2-.3-.3-.1 0-.2-.1-.2 0-.2 0-.1 0-.1.1 0 .1.1.1Z"/><path fill="#61221d" d="M43 57.1c0-.1 0-.3.1-.4h.5s.1 0 .2.1c0 0 .1.2.1.3v.1c0 .1-.2.2-.3.3-.1 0-.5 0-.5-.4Z" opacity=".6"/><path fill="#61221d" d="M42.2 57.6v.2h.2c.2 0 .3 0 .5-.1-.2 0-.4 0-.6-.1"/><path fill="#571e1a" d="M42.7 57.8s-.1-.2-.2-.2c0 0-.2-.1-.3-.1v.2h.4"/><path fill="#471915" d="M42.7 57.7H42.1c-.1 0 0 .1 0 .2.2 0 .4.1.6.1s.1 0 .1-.1 0-.1-.1-.1Z"/><path fill="#341a1a" d="M42.9 54.9c.6-1.1 1.8.1.8.7-.4.1-.6.4-.6.1v-.4c-.3.1-.5-.4-.2-.5Z"/><path fill="#8e3c27" d="M92.6 66.7c.4 0 .9-.1 1.3-.2.8-.2 1.5-.6 2.1-1.1l1-.7c0-.4.1-.8.2-1.3v-.7c0-1.3-.1-2.7-.6-3.9-.2.2-.4.5-.5.8-.8 1.3-1.8 2.4-2.8 3.5-.9 0-1.9.1-2.7.6-.8.5-1.5 1.3-2.5 1.3v.7c1.2.3 2.3.6 3.5.8h1.1Z"/><path fill="#8e3c27" d="m100 58.6-2.8 4.8-1 1.8c-2.3 1.2-2.2-1-2.9-2 1-1.1 2-2.3 2.8-3.5.2-.3.3-.5.5-.8.3-.3.5-.6.9-.8.8-.4 1.9-.2 2.5.6Z"/><path fill="#a74930" d="M95.5 71.1c8.8.4 9.4-.7 9.4-.7s-.3-2.7-.4-5.2v-2c0-.4 0-.9-.2-1.4 0-.1 0-.3-.1-.4-.6-2.2-1.8-4.2-2.6-4.5l-3.3-.5c-1 1.4-1.8 3.2-2.3 5.2l-.3 1.3v.5c0 .2 0 .4-.1.7v2c0 1.8 0 3.5.4 4.9Z"/><path fill="#8e3c27" d="M97 65.4c1.2 0 2.2.6 3.4.4-.3 0-.7 0-1-.2-.6-.2-1.1-.2-1.7-.3h-1.5 1Z"/><path fill="url(#g)" d="m87.7 58 8.6 2.7v.5c0 .7 0 1.3-.4 2.6-.4 2.1-.7 2.6-1.1 3l-.3.3-8.8-1.7c.4-.1 1-1.6 1.5-3.6s.6-3.6.4-3.9Z"/><path fill="#216ba4" d="M87.6 58c.3.3.1 1.9-.4 3.9s-1.1 3.5-1.5 3.6c-.4 0-.2-1.8.3-3.9s1.2-3.7 1.6-3.6Z"/><path fill="#8e3c27" d="M104.5 65.2v-2c0-.4 0-.9-.2-1.4 0-.1 0-.3-.1-.4-.5-2.1-1.7-4.1-2.5-4.5-.4.1-.8.2-1.2.4-.5.2-.9.7-1.1 1.2-.4.8-.6 1.7-.6 2.6 0 1.8.6 3.5 2 4.6.1 0 0 .3-.1.2-.7.3-1.4.1-2.1 0-.6-.1-1.2-.2-1.8-.2h-1.5v.8c.9.6 1.8 1.2 2.8 1.6 1.2.5 2.4.7 3.7.4 1.1-.2 2.1-.7 3-1.3 0-.6-.1-1.3-.2-2Z"/><g fill="#a74930"><path d="M96.2 65.7c-.2-.3-.7-.4-1-.4-.4 0-.7.2-1.1.3 0 0-.1 0-.2.1 0 0 0 .1-.1.2l-.6.9.6.3c.2 0 .5.2.7.1.2 0 .3-.3.5-.5.3-.4.8-.7 1.4-.8v-.4"/><path d="m95.4 65.4-.9-.2h-.4l-.1.1c-.3.2-.7.3-1.1.2.2.4.6.1.9.1h.8"/></g><path fill="#a74930" d="M95.8 51.1c.3-.2.7-.4 1.1-.5.4 0 .8.2 1.1.5.3.3.5.7.7 1 .4.6.7 1.3 1.1 1.9-.3.2-.5.6-.6.9 0 .1-.2.4-.2.7-.3.5-1.3 1.4-2.2 1.3-.4-.1-1.5-2-1.8-3.1 0-.3-.2-.5-.2-.8 0-.7.5-1.4 1-1.8Z"/><path fill="#a74930" d="M94.9 52.5c.4-.2.9-.4 1.3-.6.5.7.9 1.4 1.4 2 .1 0 .2 0 .3-.2-.2-.3-.3-.6-.5-.9l.5-.3c.1.3.2.5.3.8v.1l-1.1 2.5c.1.2.2.4.3.5v.6c0 .3 0 .5.5.6.9 0 2.9-1.5 2.9-1.5l-1.1-1.8h-.1c0-.1-.2-.4-.1-.5v-.7c0-.9 0-1.9-.9-2.4s-1.9 0-2.7.5c-.3.2-.7.4-1 .6-.2.2-.3.4-.4.6Z"/><path fill="#341a1a" d="m99.8 52.7.2 1.9-.7.2-1.2-1-.2-1.5 1.9.4z"/><path fill="#a74930" d="M95.8 55.6c-.2 0-.6.3-.8 0-.2-.2.2-.7 0-1.7v.2l.6.8"/><path fill="#f5f1e2" d="M96.3 54.3h-.4c-.2 0-.4 0-.5.1.1.2.2.3.3.5.2-.1.4-.3.6-.5"/><path fill="#48434c" d="M95.5 54.2c.1.1.3.2.2.4h-.1s-.2-.2-.2-.3l.2-.1Z"/><path fill="#863622" d="M95.7 54.8c.2-.1.4-.3.6-.5-.1.2-.3.4-.5.5 0 0 0 .1 0 0ZM96.3 54.2c-.3 0-.6-.1-.9 0 .3-.1.6 0 .9 0Z"/><path fill="#863622" d="M95.4 54.2c0-.1 0-.2-.1-.3 0 0-.1 0 0 0 0 .1 0 .2.1.3 0 0 .1 0 0 0Z"/><path fill="#863622" d="M95.3 54.2c.2-.1.5 0 .7 0h-.8Z"/><path fill="#8e3c27" d="M96 56.1s0 .2.1.2H96.4c.1-.1.2-.3.2-.5"/><path fill="#893722" d="M96.5 55.9h-.3c-.1 0-.2 0-.3.1h.1v.2h.4"/><path fill="#6b3020" d="M96.5 55.9c-.2.1-.3.2-.5.2.2 0 .3-.1.5-.3Z"/><path fill="#863622" d="M96.2 55.2c.1 0 .2 0 .2.2 0 0 0-.2-.1-.2h-.2Z"/><path fill="#341a1a" d="M99.9 51.1c-.1-.4-.4-.7-.8-.9-.4-.2-.8-.2-1.2-.2-.3 0-.7 0-.9.3-.2-.2-.4-.2-.6-.2-.2 0-.4.2-.5.4-.3 0-.6-.1-.8 0-.2.1-.4.4-.3.7h-.6c-.1 0-.2.1-.3.2v.3c0 .2.2.4.5.4h.1s.1.2.3.2h.7c.2 0 .4-.2.5-.3.1.1.4.1.6 0 0 .1.1.3.2.5v.5h1.6c.4-.2.9-.3 1.4-.2 0-.2.1-.4.1-.7V51ZM95 53.6v-.1l.5-.4h.1c.2 0 .5.1.7.3h-.5c-.2.1-.5.2-.7.3"/><path fill="#a74930" d="M99.8 56.6c.7-.7 2-.4 2.8.3 1.7 1.4 2.2 3.8 2.1 6 0 1.4-.3 2.8-1 4-.1.2-.3.5-.5.6h-.7c-2.4-.4-4.7-.8-7-1.4v-.7c.9 0 1.7-.8 2.5-1.3s1.8-.7 2.8-.6c-1.1-.8-1.9-2.1-2-3.4-.1-1.4.4-2.7 1.4-3.7"/><path fill="#8e3c27" d="M97.4 53c0-.2.2-.4.4-.4s.4.1.6.3c.1.2.2.4.2.7v.3c0 .2-.2.4-.4.4"/><path fill="#341a1a" d="M97.3 52.8c.2.3.3.6.5.9l-.3.2c0-.2-.1-.4-.2-.6 0-.2-.2-.4-.3-.6"/><path fill="#8e3c27" d="M97.6 56.7v.6l.3-.3c.9-1.1.4-2.2.4-2.3v.9c0 .6-.8 1-.9 1.1ZM99.2 58.5s.1-.1.1-.2v-.2c0-.1 0 0 0 0 0-.2.2-.4.3-.5s0-.1.1-.2l.2-.2.1-.1v-.3.2-.2c0-.1 0-.2-.1-.2h-.3.1c-.2 0-.3 0-.4.1l-.2.2c-.1.2-.3.3-.4.5s-.2.4-.2.5-.1.4 0 .6.2.2.3 0Z"/><path fill="#073c4e" d="M113.8 69.9c0 1.6-.2 3.1-.7 4.5-.3 1-.7 2-1.2 2.9-.2.3-.3.6-.5.9l-.9 1.2A15.05 15.05 0 0 1 98.8 85H47.3c-4.7 0-8.9-2.2-11.7-5.6l-.9-1.2c-.2-.3-.4-.6-.5-.9a16.3 16.3 0 0 1-1.9-7.4h81.5Z"/><path fill="#b71c22" d="M113.1 74.4c-.3 1-.7 2-1.2 2.9H34.1c-.5-.9-.9-1.9-1.2-2.9h80.2Z"/><path fill="#fff" d="m111.3 78.2-.9 1.2H35.6l-.9-1.2h76.6ZM20.2 185.5c-3.8 0-6.8-1.2-6.8-2.6v-7.3h-2.5v8.2c0 1.4 3 2.6 6.8 2.6h20.9v-.9H20.2Zm-6.8-21.9c0-1.4 3-2.6 6.8-2.6h18.4v-.9H17.7c-3.8 0-6.8 1.2-6.8 2.6v8.2h2.5v-7.3Zm93.2 12.1v7.3c0 1.4-3 2.6-6.8 2.6H81.1v.9h21.1c3.8 0 6.8-1.2 6.8-2.6v-8.2h-2.5Zm-4.3-15.6H81.1v.9h18.8c3.8 0 6.8 1.2 6.8 2.6v7.3h2.5v-8.2c0-1.4-3-2.6-6.8-2.6Z"/><path fill="#073c4e" d="M335 203.9v5.2L0 121.4v-5.2l335 87.7z"/><path fill="#fff" d="M167.5 200.3c-2.4 0-4.3 1.9-4.3 4.3s.3 1.8.8 2.5l3.4 6 3.4-6c.5-.7.8-1.6.8-2.5 0-2.4-1.9-4.3-4.3-4.3Zm0 6.2c-1 0-1.9-.8-1.9-1.9s.8-1.9 1.9-1.9 1.9.8 1.9 1.9-.8 1.9-1.9 1.9ZM240.6 139.1h82.1v82.1h-82.1z"/><g fill="#fff" data-name="PRINT"><path d="M29.8 11.9c0 .6-.2 1.1-.6 1.5l-6.8 6.8-7.2-4.2v-4.1c0-1.2 1-2.1 2.1-2.1s2.1 1 2.1 2.1v5.2l6.7-6.7c.8-.8 2.2-.8 3 0 .4.4.6 1 .6 1.5ZM29.2 30.8c-.4.4-.9.6-1.5.6s-.6 0-.8-.2c-.3-.1-.5-.3-.7-.5l-2.3-2.3-4.4-4.4v5.2c0 1.2-1 2.1-2.1 2.1s-2.1-1-2.1-2.1v-4.1l7.2-4.2 4.5 4.5 2.3 2.3c.8.8.8 2.2 0 3ZM22.1 20.5c0-.1-.1-.2-.2-.3l-1.8-1-4.9-2.8-4.1-2.4c-.2-.1-.5 0-.7.2v12.7c0 .3.2.5.5.5h.2l4.1-2.4 6.7-3.9s.1-.1.1-.2v-.3Zm-10.2-5 3.2 1.8 5.2 3s.1 0 .1.1v.3s0 .2-.2.2l-5.2 3-3.2 1.9c-.2 0-.4 0-.5-.1V15.8c0-.2.2-.4.4-.4h.2Z"/><path d="M19 20.7s0 .1-.1.2L15 23.2l-2.4 1.4c-.1 0-.3 0-.4-.1V17.1c0-.2.1-.3.3-.3h.1l2.4 1.4 3.9 2.3s.1 0 .1.2v.2ZM64.9 20.1l-6-3-3.7-1.8c-.2-.1-.5 0-.6.2v10.1c.1.2.4.4.6.4h.4l3.4-1.9 2.1-1.1 3.8-2s.2-.1.2-.2v-.2c0-.1-.1-.2-.2-.2Zm-6 3-2.8 1.5c-.2 0-.4 0-.5-.1v-7.8c0-.2 0-.3.3-.3h.1l2.9 1.4 1 .5 3.6 1.8s.1 0 .2.2v.2s0 .1-.1.2L59 23.1Z"/><path d="M62.3 20.5s0 .1-.1.1l-3.4 1.8-2.1 1.1h-.3V17.6c0-.1 0-.2.2-.2h.1l2.1 1.1 3.5 1.7.1.1v.1ZM39.3 15.4h-5.2v10.4h2.6v-3.4h2.7c2.5 0 4.3-1.5 4.3-3.6 0-2-1.9-3.5-4.4-3.4Zm-.2 4.9h-2.4v-2.9h2.4c1.2 0 2.1.5 2.1 1.4 0 .9-.8 1.5-2 1.5ZM53.4 25.8l-8.2.1-.1-10.3h2.5l.1 8.3 5.7-.1v2zM70.2 21.9l.1 3.7h-2.5l-.1-3.7-4.6-6.5 2.9-.1 2.9 4.5 3-4.5 2.7-.1-4.4 6.7zM85.5 26.1h-1.7l-4.4-4.7-1.8 1.7.1 3.1h-1.3l-.2-10.3h1.3l.1 5.7 5.8-5.8h1.7l-4.8 4.8 5.2 5.5zM92 15.6c-3.2 0-5.9 2.5-5.8 5.4 0 2.9 2.8 5.3 6 5.3s5.8-2.5 5.8-5.4c0-2.9-2.8-5.3-5.9-5.2Zm.4 9.6c-2.5.2-4.7-1.7-4.9-4.2.1-2.3 1.9-4.1 4.2-4.3 2.5-.2 4.7 1.7 4.9 4.2-.1 2.3-1.9 4.1-4.2 4.3ZM108.2 23.2c0 1.6-1.3 3-4 3-1.7 0-3.3-.5-4.5-1.6l.8-.9c1 .9 2.4 1.5 3.8 1.4 1.8 0 2.7-.9 2.7-1.8 0-1.1-1.1-1.5-3.1-1.9-2.3-.5-3.8-1.1-3.8-2.9 0-1.6 1.6-3 3.8-3 1.5 0 2.9.5 4 1.4l-.8.9c-.9-.8-2.1-1.3-3.3-1.3-1.4 0-2.4.9-2.4 1.8 0 1.1 1.1 1.4 3.1 1.8 2.2.4 3.8 1.1 3.8 2.9ZM121.9 26.1h-1.3l-.1-7.8-4.2 7.3-4.4-7.2.1 7.8h-1.3l-.1-10.3h1.3l4.4 7.1 4.1-7.2h1.3l.2 10.3zM130.1 15.6c-3.2 0-5.9 2.5-5.8 5.4 0 2.9 2.8 5.3 6 5.3s5.8-2.5 5.8-5.4c0-2.9-2.8-5.3-5.9-5.2Zm.4 9.6c-2.5.2-4.7-1.7-4.9-4.2.1-2.3 1.9-4.1 4.2-4.3 2.5-.2 4.7 1.7 4.9 4.2-.1 2.3-1.9 4.1-4.2 4.3ZM146.3 23.2c0 1.6-1.3 3-4 3-1.7 0-3.3-.5-4.5-1.6l.8-.9c1 .9 2.4 1.5 3.8 1.4 1.8 0 2.7-.9 2.7-1.8 0-1.1-1.1-1.5-3.1-1.9-2.3-.5-3.8-1.1-3.8-2.9 0-1.6 1.6-3 3.8-3 1.5 0 2.9.5 4 1.4l-.8.9c-.9-.8-2.1-1.3-3.3-1.3-1.4 0-2.5.9-2.4 1.8 0 1.1 1.2 1.4 3.1 1.8 2.2.4 3.8 1.1 3.8 2.9Z"/></g></svg>