<?xml version="1.0" encoding="UTF-8"?>
<svg id="uuid-519c0079-983c-4211-8b0c-f57d80b71486" data-name="Layer 1" xmlns="http://www.w3.org/2000/svg" width="335" height="335" xmlns:xlink="http://www.w3.org/1999/xlink" viewBox="0 0 335 335">
  <defs>
    <filter id="uuid-5f32ef8d-1287-4af2-a660-b8bcb9de5320" filterUnits="userSpaceOnUse">
      <feOffset dx="3" dy="3"/>
      <feGaussianBlur result="uuid-c28839ec-20c5-4dfb-8c32-80f3fe68d0d0" stdDeviation="5"/>
      <feFlood flood-color="#000" flood-opacity=".75"/>
      <feComposite in2="uuid-c28839ec-20c5-4dfb-8c32-80f3fe68d0d0" operator="in"/>
      <feComposite in="SourceGraphic"/>
    </filter>
    <filter id="uuid-1ed8f858-e164-4fab-aa20-ab69fa31eca1" filterUnits="userSpaceOnUse">
      <feOffset dx="3" dy="3"/>
      <feGaussianBlur result="uuid-429dfbe2-e5c7-4031-82c5-3fdf9dd578fc" stdDeviation="5"/>
      <feFlood flood-color="#000" flood-opacity=".75"/>
      <feComposite in2="uuid-429dfbe2-e5c7-4031-82c5-3fdf9dd578fc" operator="in"/>
      <feComposite in="SourceGraphic"/>
    </filter>
    <filter id="uuid-b27efc7a-387f-492a-873d-1a32ce3db895" filterUnits="userSpaceOnUse">
      <feOffset dx="3" dy="3"/>
      <feGaussianBlur result="uuid-f9536bf5-a9e4-42c9-9273-8015496b2e78" stdDeviation="5"/>
      <feFlood flood-color="#000" flood-opacity=".75"/>
      <feComposite in2="uuid-f9536bf5-a9e4-42c9-9273-8015496b2e78" operator="in"/>
      <feComposite in="SourceGraphic"/>
    </filter>
    <filter id="uuid-62b09199-137c-40e5-8c23-f90feec53afb" filterUnits="userSpaceOnUse">
      <feOffset dx="3" dy="3"/>
      <feGaussianBlur result="uuid-774d53cd-4901-491c-af19-a05f56313228" stdDeviation="5"/>
      <feFlood flood-color="#000" flood-opacity=".75"/>
      <feComposite in2="uuid-774d53cd-4901-491c-af19-a05f56313228" operator="in"/>
      <feComposite in="SourceGraphic"/>
    </filter>
  </defs>
  <polygon points="336.58 -.07 336.58 105.83 232.53 -.07 336.58 -.07" fill="#1b1464"/>
  <polygon points="129.25 96.13 1.15 202.12 1.15 -.07 34.73 -.07 129.25 96.13" fill="#1b1464"/>
  <polygon points="336.57 97.29 312.73 115.42 309.01 118.26 292.24 131.01 269.68 148.17 268.18 149.31 268.32 149.45 268.04 149.66 265.13 151.88 265.12 151.88 261.97 154.28 257.46 157.71 254.94 159.62 253.03 161.08 252.52 161.46 248 164.9 243.58 168.27 243.46 168.35 235.94 174.08 229.91 178.66 223.86 183.27 222.73 184.13 222.05 184.64 220.23 186.03 219.65 186.47 218.25 187.53 216.04 189.22 215.21 189.85 213.55 191.11 212.54 191.88 210.54 193.4 208.38 195.04 208.28 195.12 200.12 201.33 198.69 202.41 194.03 205.96 193.48 206.38 193.44 206.41 192.45 207.16 191.42 207.95 189.75 209.21 189.14 209.68 188.87 209.89 187.2 211.15 185.9 212.15 181.29 215.65 179.22 217.23 177.06 218.87 174.02 221.18 171.15 223.37 170.55 223.81 164.36 228.53 162.91 229.63 159.48 232.24 158.98 232.62 142.62 245.07 112.69 267.84 101.53 276.32 88.94 285.91 86.32 287.9 82.58 290.74 79.68 292.95 58.84 308.8 36.35 325.91 21.47 337.23 21.25 337.4 1.14 337.4 1.14 185.82 3.68 183.88 4.23 183.46 8.15 180.48 10.02 179.07 10.18 178.94 11.1 178.24 12.22 177.39 14.81 175.41 14.93 175.33 24.93 167.72 62.9 138.83 64.02 137.98 65.49 136.87 71.84 132.04 78.1 127.27 82.9 123.62 86.11 121.18 87.87 119.84 88.8 119.13 89.18 118.85 92.63 116.22 94.88 114.51 101.76 109.28 106.14 105.95 111.21 102.09 129.24 88.37 63.6 26.96 63.53 26.89 63.03 26.42 62.59 26.02 61.36 24.86 60.64 24.19 60.55 24.1 59.74 23.34 34.72 -.07 232.52 -.07 336.57 97.29" fill="#1b1464"/>
  <path d="M334.58,99.29L230.53,2.68H32.73L127.25,90.44-.57,186.92c-.06,.9-.16,1.81-.28,2.71v4.3c.8,.71,1.35,1.62,1.42,2.62,.47,6.58-.12,13.07-1.42,19.47v121.52H19.26l247.07-186.5-.14-.13,68.39-51.62Z" fill="#1b1464"/>
  <path d="M334.58,99.38L230.53,2.68H32.73L127.25,90.52-.57,187.1c-.06,.91-.16,1.81-.28,2.71v4.3c.8,.72,1.35,1.62,1.42,2.62,.47,6.59-.12,13.08-1.42,19.49v121.63H19.26l247.07-186.68-.14-.13,68.39-51.67Z" fill="#f1b40c"/>
  <g>
    <path d="M130.48,234.52c2.46,.85,4.91,1.7,7.37,2.54,.06-.41,.13-.81,.19-1.22,.45-.86,.88-1.73,1.36-2.57,.27-.48,.88-.88,.92-1.35,.14-1.6,.09-3.22,.11-4.83-.44-.52-.88-1.04-1.35-1.6,8.11-3.99,8.2-3.99,9.97,.86-.98,.87-2.02,1.8-3.06,2.73,4.86,1.35,9.71,2.7,13.88,3.86,.95-1.28,1.55-2.37,2.42-3.17,.8-.73,2.2-1.82,2.8-1.55,1.65,.74,3.06,2.05,4.45,3.27,.27,.24,.03,1.13-.09,1.69-.24,1.13-.49,2.26-.86,3.35-.46,1.33,1.4,3.46-1.37,4.08-.11,.02-.06,1.35,.15,1.99,.25,.74,.76,1.38,1.16,2.07,.35,.36,.7,.72,1.05,1.08-.47,.35-.93,.71-1.4,1.06l-.79-.02c-.5,.11-1,.22-2.46,.54,4.91,1.14,8.57,3.78,13.1,2.32,.46-.15,1.12-.21,1.5,.01,7.57,4.45,15.79,3.39,24,3.2,5.28-.12,10.58,.6,15.86,.94-1.52-1.06-3.08-2.05-4.52-3.21-.6-.48-.91-1.31-1.64-2.42-1.28-.45-3.23-1.13-5.19-1.81-2.88-1.62-5.77-3.23-8.65-4.87-1.04-.59-2.04-1.27-3.06-1.9-2.23-1.06-4.5-2.04-6.67-3.21-1.7-.92-3.27-2.07-4.89-3.12-5.95-2.44-11.9-4.88-17.85-7.33-7.02,.02-13.6-1.71-19.76-5.05-.8-.18-1.62-.28-2.39-.54-7.33-2.41-14.64-4.87-21.98-7.27-2.45-.8-4.95-1.44-7.48-2.18,1,1.17,1.81,2.14,2.63,3.1,.83,.5,1.6,1.22,2.5,1.48,3.88,1.11,7.83,1.95,11.66,3.19,1.06,.34,1.89,1.66,2.61,2.68,.18,.26-.35,1.28-.79,1.66-3.47,2.93-5.29,6.35-3.62,10.96,.06,.19,.11,.38,.14,.57Z" fill="#fbca95"/>
    <path d="M112.54,230c2.46,.85,4.91,1.7,7.37,2.54,.06-.41,.13-.81,.19-1.22,.45-.86,.88-1.73,1.36-2.57,.27-.48,.88-.88,.92-1.35,.14-1.6,.09-3.22,.11-4.83-.44-.52-.88-1.04-1.35-1.6,8.11-3.99,8.2-3.99,9.97,.86-.98,.87-2.02,1.8-3.06,2.73,4.86,1.35,9.71,2.7,13.88,3.86,.95-1.28,1.55-2.37,2.42-3.17,.8-.73,2.2-1.82,2.8-1.55,1.65,.74,3.06,2.05,4.45,3.27,.27,.24,.03,1.13-.09,1.69-.24,1.13-.49,2.26-.86,3.35-.46,1.33,1.4,3.46-1.37,4.08-.11,.02-.06,1.35,.15,1.99,.25,.74,.76,1.38,1.16,2.07,.35,.36,.7,.72,1.05,1.08-.47,.35-.93,.71-1.4,1.06l-.79-.02c-.5,.11-1,.22-2.46,.54,4.91,1.14,8.57,3.78,13.1,2.32,.46-.15,1.12-.21,1.5,.01,7.57,4.45,15.79,3.39,24,3.2,5.28-.12,10.58,.6,15.86,.94-1.52-1.06-3.08-2.05-4.52-3.21-.6-.48-.91-1.31-1.64-2.42-1.28-.45-3.23-1.13-5.19-1.81-2.88-1.62-5.77-3.23-8.65-4.87-1.04-.59-2.04-1.27-3.06-1.9-2.23-1.06-4.5-2.04-6.67-3.21-1.7-.92-3.27-2.07-4.89-3.12-5.95-2.44-11.9-4.88-17.85-7.33-7.02,.02-13.6-1.71-19.76-5.05-.8-.18-1.62-.28-2.39-.54-7.33-2.41-14.64-4.87-21.98-7.27-2.45-.8-4.95-1.44-7.48-2.18,1,1.17,1.81,2.14,2.63,3.1,.83,.5,1.6,1.22,2.5,1.48,3.88,1.11,7.83,1.95,11.66,3.19,1.06,.34,1.89,1.66,2.61,2.68,.18,.26-.35,1.28-.79,1.66-3.47,2.93-5.29,6.35-3.62,10.96,.06,.19,.11,.38,.14,.57Z" fill="#fbca95"/>
    <path d="M88.38,222.37c2.46,.85,4.91,1.7,7.37,2.54,.06-.41,.13-.81,.19-1.22,.45-.86,.88-1.73,1.36-2.57,.27-.48,.88-.88,.92-1.35,.14-1.6,.09-3.22,.11-4.83-.44-.52-.88-1.04-1.35-1.6,8.11-3.99,8.2-3.99,9.97,.86-.98,.87-2.02,1.8-3.06,2.73,4.86,1.35,9.71,2.7,13.88,3.86,.95-1.28,1.55-2.37,2.42-3.17,.8-.73,2.2-1.82,2.8-1.55,1.65,.74,3.06,2.05,4.45,3.27,.27,.24,.03,1.13-.09,1.69-.24,1.13-.49,2.26-.86,3.35-.46,1.33,1.4,3.46-1.37,4.08-.11,.02-.06,1.35,.15,1.99,.25,.74,.76,1.38,1.16,2.07,.35,.36,.7,.72,1.05,1.08-.47,.35-.93,.71-1.4,1.06l-.79-.02c-.5,.11-1,.22-2.46,.54,4.91,1.14,8.57,3.78,13.1,2.32,.46-.15,1.12-.21,1.5,.01,7.57,4.45,15.79,3.39,24,3.2,5.28-.12,10.58,.6,15.86,.94-1.52-1.06-3.08-2.05-4.52-3.21-.6-.48-.91-1.31-1.64-2.42-1.28-.45-3.23-1.13-5.19-1.81-2.88-1.62-5.77-3.23-8.65-4.87-1.04-.59-2.04-1.27-3.06-1.9-2.23-1.06-4.5-2.04-6.67-3.21-1.7-.92-3.27-2.07-4.89-3.12-5.95-2.44-11.9-4.88-17.85-7.33-7.02,.02-13.6-1.71-19.76-5.05-.8-.18-1.62-.28-2.39-.54-7.33-2.41-14.64-4.87-21.98-7.27-2.45-.8-4.95-1.44-7.48-2.18,1,1.17,1.81,2.14,2.63,3.1,.83,.5,1.6,1.22,2.5,1.48,3.88,1.11,7.83,1.95,11.66,3.19,1.06,.34,1.89,1.66,2.61,2.68,.18,.26-.35,1.28-.79,1.66-3.47,2.93-5.29,6.35-3.62,10.96,.06,.19,.11,.38,.14,.57Z" fill="#fbca95"/>
    <path d="M64.88,215.86c2.46,.85,4.91,1.7,7.37,2.54,.06-.41,.13-.81,.19-1.22,.45-.86,.88-1.73,1.36-2.57,.27-.48,.88-.88,.92-1.35,.14-1.6,.09-3.22,.11-4.83-.44-.52-.88-1.04-1.35-1.6,8.11-3.99,8.2-3.99,9.97,.86-.98,.87-2.02,1.8-3.06,2.73,4.86,1.35,9.71,2.7,13.88,3.86,.95-1.28,1.55-2.37,2.42-3.17,.8-.73,2.2-1.82,2.8-1.55,1.65,.74,3.06,2.05,4.45,3.27,.27,.24,.03,1.13-.09,1.69-.24,1.13-.49,2.26-.86,3.35-.46,1.33,1.4,3.46-1.37,4.08-.11,.02-.06,1.35,.15,1.99,.25,.74,.76,1.38,1.16,2.07,.35,.36,.7,.72,1.05,1.08-.47,.35-.93,.71-1.4,1.06l-.79-.02c-.5,.11-1,.22-2.46,.54,4.91,1.14,8.57,3.78,13.1,2.32,.46-.15,1.12-.21,1.5,.01,7.57,4.45,15.79,3.39,24,3.2,5.28-.12,10.58,.6,15.86,.94-1.52-1.06-3.08-2.05-4.52-3.21-.6-.48-.91-1.31-1.64-2.42-1.28-.45-3.23-1.13-5.19-1.81-2.88-1.62-5.77-3.23-8.65-4.87-1.04-.59-2.04-1.27-3.06-1.9-2.23-1.06-4.5-2.04-6.67-3.21-1.7-.92-3.27-2.07-4.89-3.12-5.95-2.44-11.9-4.88-17.85-7.33-7.02,.02-13.6-1.71-19.76-5.05-.8-.18-1.62-.28-2.39-.54-7.33-2.41-14.64-4.87-21.98-7.27-2.45-.8-4.95-1.44-7.48-2.18,1,1.17,1.81,2.14,2.63,3.1,.83,.5,1.6,1.22,2.5,1.48,3.88,1.11,7.83,1.95,11.66,3.19,1.06,.34,1.89,1.66,2.61,2.68,.18,.26-.35,1.28-.79,1.66-3.47,2.93-5.29,6.35-3.62,10.96,.06,.19,.11,.38,.14,.57Z" fill="#fbca95"/>
    <path d="M36.18,203.93c2.46,.85,4.91,1.7,7.37,2.54,.06-.41,.13-.81,.19-1.22,.45-.86,.88-1.73,1.36-2.57,.27-.48,.88-.88,.92-1.35,.14-1.6,.09-3.22,.11-4.83-.44-.52-.88-1.04-1.35-1.6,8.11-3.99,8.2-3.99,9.97,.86-.98,.87-2.02,1.8-3.06,2.73,4.86,1.35,9.71,2.7,13.88,3.86,.95-1.28,1.55-2.37,2.42-3.17,.8-.73,2.2-1.82,2.8-1.55,1.65,.74,3.06,2.05,4.45,3.27,.27,.24,.03,1.13-.09,1.69-.24,1.13-.49,2.26-.86,3.35-.46,1.33,1.4,3.46-1.37,4.08-.11,.02-.06,1.35,.15,1.99,.25,.74,.76,1.38,1.16,2.07,.35,.36,.7,.72,1.05,1.08-.47,.35-.93,.71-1.4,1.06l-.79-.02c-.5,.11-1,.22-2.46,.54,4.91,1.14,8.57,3.78,13.1,2.32,.46-.15,1.12-.21,1.5,.01,7.57,4.45,15.79,3.39,24,3.2,5.28-.12,10.58,.6,15.86,.94-1.52-1.06-3.08-2.05-4.52-3.21-.6-.48-.91-1.31-1.64-2.42-1.28-.45-3.23-1.13-5.19-1.81-2.88-1.62-5.77-3.23-8.65-4.87-1.04-.59-2.04-1.27-3.06-1.9-2.23-1.06-4.5-2.04-6.67-3.21-1.7-.92-3.27-2.07-4.89-3.12-5.95-2.44-11.9-4.88-17.85-7.33-7.02,.02-13.6-1.71-19.76-5.05-.8-.18-1.62-.28-2.39-.54-7.33-2.41-14.64-4.87-21.98-7.27-2.45-.8-4.95-1.44-7.48-2.18,1,1.17,1.81,2.14,2.63,3.1,.83,.5,1.6,1.22,2.5,1.48,3.88,1.11,7.83,1.95,11.66,3.19,1.06,.34,1.89,1.66,2.61,2.68,.18,.26-.35,1.28-.79,1.66-3.47,2.93-5.29,6.35-3.62,10.96,.06,.19,.11,.38,.14,.57Z" fill="#fbca95"/>
    <path d="M90.79,213.82c-.22-.18-.4-.4-.59-.67h0c-.08-.14-.17-.28-.26-.43-.22-.38-.46-.82-.79-1.32-1.28-.45-3.23-1.13-5.19-1.81-.45-.25-.89-.5-1.34-.75-.09-.06-.18-.11-.28-.16-.76-.43-1.52-.86-2.29-1.28-1.19-.68-2.38-1.35-3.57-2.02-.39-.22-.78-.45-1.17-.67-.19-.11-.37-.21-.55-.33-.12-.06-.23-.13-.34-.21-.09-.04-.18-.1-.26-.15-.16-.1-.32-.2-.48-.3-.47-.31-.94-.61-1.42-.91-1.58-.75-3.18-1.46-4.76-2.23-.16-.08-.33-.17-.5-.25-.32-.16-.65-.33-.97-.5-.08-.04-.15-.08-.23-.12-.07-.04-.14-.07-.21-.11-.23-.12-.46-.25-.68-.39-1.45-.84-2.81-1.82-4.21-2.73-.97-.4-1.95-.8-2.92-1.2-1.27-.52-2.55-1.04-3.82-1.57-.52-.21-1.03-.42-1.55-.64-.24-.09-.47-.19-.71-.29-.02,0-.03-.01-.05-.01-.38-.16-.75-.32-1.13-.47h-.01c-1.42-.59-2.85-1.17-4.27-1.76-1.13-.46-2.26-.93-3.39-1.39-1.25,0-2.49-.05-3.71-.16-.93-.08-1.84-.19-2.75-.33-2.85-.45-5.63-1.2-8.32-2.26-1.69-.65-3.34-1.42-4.97-2.3-.8-.18-1.62-.29-2.39-.54-.67-.22-1.33-.44-2-.66l-1.35-.45c-.39-.13-.79-.26-1.19-.39-1.07-.35-2.14-.71-3.22-1.07-.37-.12-.74-.24-1.12-.37-.53-.17-1.07-.35-1.6-.53-2.82-.93-5.63-1.87-8.45-2.8-1.02-.33-2.03-.67-3.05-1-.09-.03-.17-.06-.26-.08v.45c.19,.9,.34,1.82,.48,2.73,3.01,.8,6.04,1.52,9,2.46l.09,.03s.1,.03,.15,.05c1,.41,1.77,1.66,2.46,2.63,.05,.07,.04,.21,0,.37-.11,.41-.48,1.01-.79,1.28-.93,.79-1.74,1.61-2.4,2.48-.36,.47-.66,.95-.92,1.45-1.06,2.03-1.28,4.33-.31,7.03,.06,.19,.11,.38,.15,.57,2.45,.85,4.91,1.7,7.36,2.55,.07-.41,.13-.82,.2-1.22,.45-.86,.87-1.73,1.36-2.57,.15-.27,.41-.51,.61-.76,0,0,0-.01,0,0,.15-.19,.28-.39,.3-.6,.13-1.6,.08-3.22,.11-4.83-.09-.11-.19-.22-.28-.34-.35-.41-.7-.82-1.07-1.26,3.58-1.77,5.61-2.75,6.89-2.88,.34-.03,.63,0,.88,.09,.97,.32,1.43,1.51,2.2,3.66-.54,.49-1.11,.99-1.68,1.5-.46,.41-.92,.82-1.38,1.23,4.58,1.27,9.14,2.54,13.14,3.65,.25,.07,.5,.14,.74,.21,.71-.95,1.22-1.8,1.79-2.5,.21-.24,.41-.47,.64-.67,.57-.52,1.44-1.22,2.11-1.49,.28-.11,.52-.15,.69-.07,1.61,.72,2.99,1.98,4.34,3.18,.04,.03,.07,.07,.11,.1,.17,.15,.13,.58,.05,1.02-.04,.23-.1,.47-.14,.67-.24,1.12-.49,2.26-.86,3.35-.01,.04-.02,.07-.03,.11-.33,1.33,1.36,3.37-1.34,3.97-.1,.02-.06,1.35,.15,1.99,.07,.21,.17,.41,.27,.61,.18,.34,.39,.66,.6,.98,.1,.16,.2,.31,.29,.47,.35,.36,.7,.72,1.06,1.08-.47,.36-.94,.71-1.4,1.07-.27-.01-.53-.02-.79-.02-.5,.11-1,.22-2.46,.54,1.51,.35,2.9,.84,4.23,1.31,.6,.22,1.2,.43,1.78,.61,2.34,.76,4.58,1.21,7.09,.4,.46-.15,1.12-.21,1.5,.01,3.24,1.9,6.61,2.8,10.04,3.18,.12,.01,.24,.03,.35,.04h.01c1.42,.14,2.85,.2,4.29,.21,.84,.02,1.68,.01,2.53-.02,.08,.01,.15,0,.23,0h.11c2.14-.05,4.29-.16,6.44-.21,.34-.01,.67-.01,1.01-.01,2.47-.01,4.95,.15,7.43,.35,2.39,.2,4.77,.43,7.16,.58,.09,.01,.17,.01,.26,.02-1.52-1.06-3.08-2.05-4.52-3.21Z" fill="#fbca95"/>
    <path d="M-.53,185.52c.11,.07,.21,.13,.32,.2,.82,.52,1.64,1.04,2.45,1.57,.41,.26,.82,.52,1.23,.79,.41,.25,.82,.52,1.23,.78,.62,.41,1.23,.85,1.84,1.28,.36,.27,.73,.54,1.1,.8,2.17,1.18,4.38,2.29,6.48,3.58,.61,.38,1.2,.79,1.79,1.22,0,0,0-.01,0,0,.98,.7,1.93,1.45,2.91,2.16,5.81,2.77,11.61,5.54,17.41,8.32,2.72,.14,5.35,.54,7.91,1.2,1.04,.26,2.06,.57,3.07,.93,2.93,.99,5.75,2.34,8.46,4.02,.79,.22,1.6,.37,2.36,.66,2.27,.89,4.54,1.79,6.81,2.69l.99,.39h.01c.55,.22,1.11,.44,1.66,.66,3.88,1.54,7.76,3.07,11.65,4.59,.14,.05,.28,.11,.42,.16,2.4,.93,4.86,1.72,7.35,2.59-.93-1.23-1.7-2.24-2.46-3.24-.7-.48-1.34-1.12-2.08-1.47-.11-.06-.22-.11-.33-.15-.74-.26-1.49-.5-2.23-.74-2.28-.74-4.57-1.43-6.82-2.21-.03-.01-.06-.02-.09-.04t-.02,0c-.77-.26-1.54-.54-2.3-.83h-.01c-1.04-.41-1.79-1.77-2.45-2.83-.17-.26,.41-1.26,.88-1.61,.96-.72,1.8-1.48,2.5-2.29,.02-.02,.04-.05,.06-.07,.96-1.14,1.64-2.39,1.94-3.79,.07-.32,.12-.65,.15-.98,0-.05,.01-.1,.01-.14,.05-.73,0-1.5-.15-2.31-.07-.37-.16-.76-.28-1.15-.05-.2-.09-.39-.11-.59-.01-.01-.03-.01-.04-.02-1.25-.51-2.5-1.01-3.75-1.53-1.04-.42-2.08-.85-3.12-1.27-.1-.05-.21-.09-.31-.13-.03,.17-.07,.34-.11,.51-.05,.24-.1,.47-.15,.7-.25,.43-.5,.86-.75,1.28-.05,.08-.1,.16-.14,.23-.11,.18-.21,.36-.33,.53-.09,.15-.18,.3-.28,.45-.08,.12-.18,.24-.29,.35-.29,.3-.62,.58-.69,.91-.01,.01-.01,.03-.01,.04-.16,1.11-.23,2.24-.3,3.36-.02,.49-.05,.97-.08,1.46,.41,.54,.82,1.09,1.25,1.67-8.32,3.53-8.41,3.52-9.91-1.42,1.03-.82,2.12-1.69,3.22-2.56-1.94-.66-3.89-1.32-5.78-1.96-1.89-.64-3.74-1.26-5.49-1.85-.55-.19-1.08-.37-1.61-.55-.26-.09-.52-.17-.77-.26-1.02,1.22-1.68,2.28-2.6,3.03-.84,.68-2.3,1.69-2.88,1.39-.92-.47-1.75-1.12-2.53-1.84-.6-.54-1.17-1.11-1.73-1.67-.25-.25,.03-1.13,.18-1.69,.26-.96,.54-1.93,.89-2.87,.05-.15,.1-.29,.16-.43,.27-.67-.06-1.59-.05-2.39,0-.75,.3-1.38,1.64-1.6,.11-.02,.14-1.35-.04-2-.08-.3-.21-.59-.35-.88-.22-.41-.47-.82-.69-1.24h0s-.07-.09-.11-.13c-.29-.33-.59-.67-.88-1.01,.48-.33,.97-.66,1.46-.98,.26,.02,.52,.04,.78,.06l.21-.03c.45-.09,1-.17,2.28-.38-4.08-1.19-7.22-3.4-10.87-3.33-.25,0-.51,.01-.77,.05-.39,.03-.79,.11-1.2,.21-.04,.01-.07,.02-.11,.03-.11,.03-.23,.05-.36,.06-.41,.06-.86,.03-1.14-.16-.39-.26-.78-.5-1.17-.72-.35-.21-.7-.4-1.05-.58-3.16-1.62-6.47-2.37-9.86-2.75-.03,0-.06-.01-.09-.01-3.63-.39-7.34-.34-11.04-.46-.19,0-.38,0-.57-.01-.88-.03-1.77-.09-2.66-.16,.54,2.76,.84,5.58,.92,8.4Z" fill="#fbca95"/>
    <path d="M144.05,176.67c-.09,.11-.19,.21-.28,.32,.11-.09,.22-.17,.34-.26,.12-.1,.24-.21,.37-.31-.14,.08-.29,.17-.43,.25Zm19.95-.61c-.31-.21-.63-.41-.94-.62-.31-.2-.62-.41-.93-.61-.42,.12-.88,.41-1.27,.34-5.14-.86-10.26-2.56-15.45-.25-.12,.09-.24,.19-.36,.29,.09-.13,.17-.26,.25-.39-.78-1-1.37-2.35-2.39-2.94-8.67-5.02-17.81-3.46-26.82-1.36-.4,.09-.79,.23-1.15,.39-.17,.08-.34,.16-.5,.26-.14,.07-.26,.15-.39,.23-.03,.02-.05,.03-.08,.06l-.09,.06s-.05,.04-.08,.06c-.23,.16-.44,.34-.65,.54-.08,.07-.15,.15-.22,.22-.07,.07-.13,.14-.19,.21l-.18,.21c-.09,.09-.17,.2-.24,.3-.09,.13-.18,.25-.26,.38-.09,.14-.18,.28-.25,.43-.04,.07-.08,.14-.12,.22-.04,.07-.08,.14-.1,.22-.07,.14-.13,.28-.19,.43-.11,.27-.2,.55-.27,.83-.04,.13-.06,.25-.09,.38-.01,.04-.02,.08-.02,.13-.03,.14-.05,.28-.06,.43-.01,.09-.02,.18-.02,.27-.03,.39-.02,.79,.04,1.18,.02,.17,.05,.34,.09,.5,.01,.07,.03,.14,.05,.21,.03,.12,.07,.23,.11,.35,.15,0,.3,.01,.45,.03,.1,0,.2,.01,.3,.02,.04,0,.09,.01,.13,.01,.14,.02,.29,.04,.44,.06,.06,.01,.11,.02,.16,.03,.26,.04,.51,.09,.76,.16,.33,.08,.65,.17,.97,.27,.14,.04,.28,.09,.42,.14,.49,.17,.97,.37,1.45,.6,.1,.04,.2,.09,.31,.15,.2,.09,.4,.19,.6,.3,.36,.18,.71,.38,1.06,.58,.29,.16,.57,.32,.85,.49,.64,.37,1.27,.76,1.9,1.13v-.04c.48,.2,.94,.39,1.41,.58,.72,.07,1.56-.08,2.16,.24,2,1.08,3.91,2.33,5.86,3.51,5.23,1.65,10.21,1.52,14.88-1.8,.04-.03,.09-.06,.14-.08,.04-.01,.07-.03,.11-.04,.1-.04,.22-.06,.35-.07,.05,0,.09,0,.14,0,.02-.01,.04-.01,.06-.01,.06-.01,.1-.01,.15,0,.02,0,.03,0,.04,.01,.01-.01,.01,0,.01,0,.11-.01,.21,0,.3,.02,.05,0,.11,.01,.16,.02,.05,0,.09,.01,.14,.03,.05,.01,.1,.02,.15,.04,.24,.06,.46,.15,.62,.27,.5,.37,.98,.75,1.46,1.15,.01,0,.01,.01,.01,.01,.48,.39,.95,.79,1.42,1.19l.02,.02c.09,.08,.19,.16,.28,.24,.33,.29,.67,.58,1,.88,.5,.44,1,.88,1.51,1.31h.48c.68,0,1.36,0,2.04,.02,1.81-1,3.64-1.96,5.43-2.99h.01s.01,0,.01-.01c.16-.09,.32-.19,.48-.28,.13-.08,.26-.15,.4-.22,.25-.14,.52-.27,.78-.41,.76-.41,1.47-.86,1.59-1.42,.03-.11,.05-.23,.07-.34,.19-.9,.29-1.83,.35-2.76,.03-.41,.05-.82,.07-1.23,.01-.1,.01-.2,.02-.31,.01-.29,.02-.58,.04-.87,.02-.58,.05-1.16,.09-1.74l.04,.02c-.44-.62-.87-1.24-1.31-1.86Z" fill="#90918c"/>
    <path d="M-.5,187.34c.9,.2,1.8,.39,2.71,.54,9.82,1.56,19.68,2.88,29.47,4.59,5.24,.92,10.41,2.3,15.54,3.75,2.94,.83,5.71,2.24,8.55,3.39,1.44,.06,2.87,.11,4.31,.17,.87,.21,1.75,.41,2.62,.62,1.34-.26,2.7-.82,4.01-.72,1.75,.13,3.46,.77,5.18,1.18-.85-.5-1.74-.94-2.53-1.53-1.53-1.15-3-2.39-4.99-4,1.65-.64,2.38-.93,3.12-1.22-1.92-.87-3.84-1.73-5.76-2.6-.52,2-1.66,3.36-3.87,2.88-3.69-.81-7.35-1.79-10.97-2.84-.46-.13-.65-1.16-.97-1.77l-.76-1.27c-4.98-.64-9.97-1.27-14.95-1.91-4.98-.46-9.95-.92-14.93-1.38-.37,0-.74,0-1.12,0-1.72-.14-3.44-.29-5.16-.43-1.1-.4-2.2-.8-3.11-1.13-1.12,.55-2.28,1.43-3.57,1.68-.94,.18-1.89,.31-2.84,.41,.01,.53,.03,1.06,.02,1.59Z" fill="#fbca95"/>
    <path d="M14.16,185.22c.37,0,.74,0,1.12,0,.62-2.22,1.24-4.43,1.85-6.65l.5,.14c-.14,1.89-.28,3.78-.42,5.67l.5,.1c.4-.65,.81-1.29,1.27-2.04,3.03,2.63,2.88-.6,3.78-1.95-.37-.55-1.11-1.15-1.06-1.65,.64-5.75,1.36-11.5,2.16-17.23,.38-2.75,.86-5.5,1.5-8.19,.87-3.67,1.95-7.29,2.93-10.93-1.79-.49-3.58-.98-5.37-1.47-1.28,3.88-2.63,7.73-3.83,11.64-.67,2.17-1.06,4.43-1.61,6.64-1.57,6.35-3.15,12.69-4.73,19.03-.1,.16-.26,.26-.45,.28h-.06c.64,2.21,1.27,4.41,1.91,6.61Z" fill="#8b6f17"/>
    <path d="M187.89,213.94c-.96-1.65-1.6-3.63-2.93-4.9-3.96-3.79-8.09-7.42-12.35-10.86-2.27-1.83-4.94-3.16-7.44-4.71-1.43-.43-2.87-.85-4.3-1.28-1.85,.08-3.69,.16-5.54,.24-.4,.43-.71,1.1-1.2,1.27-2.55,.91-3.49,2.72-3.28,5.29,2.73,1.3,5.45,2.59,8.18,3.89,.57-.4,1.19-.75,1.71-1.22,3.45-3.07,7-3.28,11.22-.46-3.92-.63-7.52-.96-9.29,3.36l.67,.77,2.06,1.14c.15,0,.29,0,.43,.04,3.31,1.27,6.62,2.53,9.93,3.8l8.81,3.1,3.32,.52Z" fill="#90918c"/>
    <path d="M196.36,239.59c1.02,.64,2.01,1.31,3.06,1.9,2.87,1.64,5.76,3.25,8.65,4.87,3.03-2.33,2.41-6.35,4.34-9.31,2.6-3.98,4.42-8.46,6.52-12.75,.43-.88,.64-1.88,.94-2.83-2.05-1.45-4.1-2.91-6.15-4.36-2.01,2.71-4.02,5.42-6.03,8.14,2.39,1.56,4.78,3.12,7.87,5.14-3.94,.32-6.14-1.62-8.38-3.45-2.15,2.75-4.3,5.5-6.45,8.25,.8,.16,1.71,.12,2.38,.51,.94,.55,1.69,1.42,2.52,2.16-.78,.58-1.56,1.15-2.23,1.65-1.11-1.77-1.9-3.02-2.68-4.28-.8,.18-1.61,.35-2.41,.53-.65,1.27-1.3,2.55-1.94,3.82Z" fill="#8b6f17"/>
    <path d="M250.38,179.88c-.03,.56-.05,1.12-.11,2.4,5.53-8.4,5.19-21.94-.93-31.21,3.96-.54,7.6-1.4,11.25-1.42,3-.01,6.01,1.01,9.03,1.47,.23,.04,.59-.78,.9-1.19-.64-.26-1.41-.38-1.91-.81-5.15-4.43-11.02-5.67-17.56-4.16-1.2,.64-2.41,1.29-3.61,1.93,.38,2.1,1.59,4.53,.92,6.2-.82,2.02,.04,3.01,.71,4.4,3.47,7.28,3.52,14.77,1.32,22.39Z" fill="#4ba043"/>
    <path d="M200.73,155.56c.3,.25,.79,.76,.86,.71,5.22-3.97,10.61-7.76,17.05-9.36,4.93-1.23,9.99-3.15,15.15-.68,.74-.34,1.45-1.91,2.26-.06,.59-.13,1.18-.27,1.92-.43l-1.83-1.99c-1.27-.62-2.5-1.38-3.83-1.83-13.36-4.58-26.29,2.51-31.58,13.65Z" fill="#4ba043"/>
    <path d="M71.21,181.67c-2.68,1.08-5.37,2.17-8.05,3.25-.18,1.6-.37,3.2-.55,4.81,.36,.26,1.02,.76,1.03,.75,2.52-3.24,5.41-1.66,8.25-.67,.64-.44,1.28-.88,1.92-1.32-.52-1.24-1.05-2.47-1.69-3.99,7.05,.36,13.6,.64,20.15,1.05,4.63,.29,9.24,.75,13.86,1.14,.18-.05,.36-.09,.54-.13,.27-.52,.55-1.04,.87-1.66-4.33-1.56-9.37-.02-13.24-3.19-2.61-.19-5.23-.37-7.84-.56-3.19,.07-6.38,.14-9.58,.17-.08,0-.16-.55-.24-.84-1.81,.39-3.62,.79-5.43,1.18Z" fill="#90918c"/>
    <path d="M150.32,136.74l.87,1.9c-9.22-3.99-15.87,.39-22.13,5.58-3.4,2.82-4.69,10.33-2.83,13.78,.03,.06,.19,.12,.21,.1,.14-.14,.25-.3,.37-.45-.8-10.31,10.23-19.79,21.63-17.64,1.17-2.16,2.84-.71,4.33-.6l.04-.04c-.03-3.14-.06-6.28-.09-9.42-1.03-1.35-2.09-2.67-3.07-4.04-4.52-6.3-11.61-6.3-16.73-2.56,.88,.11,1.82,.49,2.62,.29,4.22-1.05,7.7,.44,10.68,3.18,2.84,2.62,5.72,5.38,4.09,9.91Z" fill="#317528"/>
    <path d="M111.22,179.02c-1.15-3.18,.98-7.6,4.86-8.5,9.01-2.1,18.15-3.67,26.83,1.36,1.02,.59,1.61,1.94,2.39,2.94l.1,.1c5.19-2.3,10.31-.61,15.46,.26,.39,.07,.84-.22,1.27-.35-.83-.62-1.67-1.24-2.5-1.86-1.63-.42-3.27-.83-4.9-1.25-1.45,0-2.9-.09-4.34,0-2.73,.16-4.94-.37-7.34-2.19-4.63-3.53-10.44-3.89-15.99-3.26-5.23,.6-10.82,.59-15.22,4.24-1.04,.86-2.36,2.22-2.36,3.36,0,3.35-1.78,3.72-4.39,3.46-.92-.09-1.86,.08-2.78,.13,.89,.35,1.76,.84,2.69,1.02,.93,.18,2.51-.32,2.79,.12,1.11,1.76,2.28,.65,3.45,.43Z" fill="#cfd0ca"/>
    <path d="M200.73,155.56c5.29-11.14,18.22-18.23,31.58-13.65,1.33,.46,2.56,1.21,3.83,1.83,.36-.26,.75-.78,1.09-.74,.74,.07,1.45,.42,2.17,.66-1.9-3.8-5.48-5.76-9.22-6.03-7.19-.51-14.79-1.07-21.07,3.32-4.85,3.38-9,7.79-8.37,14.61Z" fill="#317528"/>
    <path d="M246.05,133.07c-1.79-4.29-2.98-8.98-5.53-12.75-2.91-4.29-10.74-6.38-16.34-4.06-.21,.09-.28,.49-.42,.74,10.28,.29,16.92,7.4,18.44,16.54,.33,2.01,.09,4.61-2.88,5.24,.33,1.1,.76,2.18,.95,3.3,.09,.56-.25,1.2-.4,1.8,.68,.52,1.35,1.03,2.16,1.65,.48-2.03,.43-4.48,1.26-4.83,2.54-1.07,1.71-3.02,2.01-4.73,.17-.98,.49-1.93,.74-2.89Z" fill="#317528"/>
    <path d="M71.21,181.67c1.81-.39,3.62-.79,5.43-1.18,1.72-5.13,3.86-10.18,5.04-15.43,1.34-5.98,1.83-12.16,2.68-18.25-.21-.37-.41-.74-.62-1.11-.34-.33-.68-.65-1.03-.97l-1.4,1.31c1.07,4.3,.09,8.45-1.3,12.44-2.58,7.44-4.21,15.26-8.64,21.98-.2,.31-.12,.81-.17,1.22Z" fill="#8b6f17"/>
    <path d="M220,220.86c.69-.6,1.61-1.08,2.04-1.83,1.79-3.14,3.51-6.33,5.08-9.59,.6-1.24,.69-2.73,1.01-4.1-1.92-1.06-3.83-2.12-5.75-3.19-2.1,3.59-4.2,7.18-6.31,10.76-.71,1.2-1.44,2.39-2.16,3.59,2.03,1.45,4.06,2.91,6.09,4.36Z" fill="#8b6f17"/>
    <path d="M237.45,182.4c.39-.67,.96-1.29,1.13-2.01,1.58-7.01,4.46-13.79,3.97-21.2-.02-.35,.33-.73,.51-1.09-.09-.58-.18-1.17-.26-1.75-.62-.5-1.25-1-1.87-1.5-.99,.67-1.98,1.35-2.97,2.02-.46,7.18-1.52,14.22-4.68,20.8-.3,.61-.23,1.4-.33,2.11,1.5,.87,3.01,1.75,4.51,2.62Z" fill="#8b6f17"/>
    <path d="M236.04,146.17c-.8-1.85-1.51-.28-2.26,.06-2.92,2.39-6.24,4.43-8.67,7.25-3.19,3.7-4.83,8.35-5.53,13.23-.28,1.98-.5,3.98-.73,5.97,0,.08,.08,.17,.12,.26,.1-.06,.21-.13,.31-.19,2.75-7.18,7.44-13.04,12.46-18.73,2.08-2.35,4.24-4.16,7.54-4.09,.8-2.87-2.16-2.51-3.24-3.76Z" fill="#317528"/>
    <path d="M28.44,141.35c1.11-3.32,2.26-6.63,3.34-9.97,1.71-5.28,4.61-9.9,7.84-14.35-.03-1.06-.05-2.12-.08-3.19-1.12,.17-2.24,.34-3.36,.51l-.04,.13c-.3,.82-.39,1.82-.92,2.44-5.55,6.53-8.18,14.58-11.68,22.18-.2,.44-.13,1.01-.19,1.51,1.8-.44,3.62-1.1,5.1,.73Z" fill="#8b6f17"/>
    <path d="M239.28,149.93c-3.29-.07-5.46,1.74-7.54,4.09-5.02,5.68-9.71,11.55-12.46,18.73,2.07-1.71,4.17-3.4,6.22-5.15,4.16-3.56,8.3-7.16,12.45-10.73,.99-.67,1.98-1.35,2.98-2.02-.55-1.64-1.1-3.27-1.65-4.91Z" fill="#4ba043"/>
    <path d="M239.28,149.93c.55,1.64,1.1,3.28,1.65,4.91,.62,.5,1.24,1,1.87,1.5,.28-.06,.55-.12,.83-.17h-.01c.81-1.62,3.33-2.49,1.74-5.23-.41-.71,1.34-2.66,2.09-4.05,1.2-.64,2.41-1.29,3.61-1.93-.98-.36-1.97-.73-2.63-.98,.12-1.29,.21-2.38,.31-3.46,.59-1,1.17-2.01,1.76-3.01l.59-2.49h0c-2.48,.9-3.55-.65-4.43-2.54-.2,.19-.4,.38-.6,.58-.25,.96-.57,1.92-.74,2.89-.3,1.71,.53,3.66-2.01,4.73-.83,.35-.78,2.8-1.26,4.83-.81-.62-1.48-1.13-2.16-1.65-.13-.15-.29-.22-.48-.21-.72-.24-1.43-.59-2.17-.66-.34-.03-.72,.48-1.09,.74,.53,.58,1.06,1.16,1.83,1.99-.74,.17-1.33,.3-1.92,.43,1.08,1.25,4.03,.89,3.24,3.76Z" fill="#1d5716"/>
    <path d="M47.61,97.09c.34-6.42-5.9-13.94-10.71-14.43-.13-.01-.3,.49-.46,.76,3.69,2.37,4.68,6.26,5.48,10.15,.17,.86-.7,1.93-1.09,2.9v4.4c-2.45-1.77-4.6-3.44-6.86-4.94-2.13-1.41-7.43-.98-9.25,.62-.02,.02,.39,.53,.59,.81,.53-.27,1.1-.82,1.59-.76,5.42,.72,9.86,3.05,12.64,7.97,1.57-1.96,3.14-3.92,4.85-6.04l1.34,.83,1.89-2.28Z" fill="#317528"/>
    <path d="M243.62,156.17c-.27,.06-.55,.11-.83,.17,.09,.58,.17,1.17,.26,1.75,.8,1.43,1.93,2.78,2.33,4.31,.85,3.29,1.13,6.74,2.02,10.02,.7,2.56,1.96,4.97,2.98,7.45,2.2-7.62,2.14-15.11-1.32-22.39-.66-1.39-1.53-2.38-.71-4.4,.68-1.67-.54-4.11-.92-6.2-.75,1.38-2.5,3.34-2.09,4.05,1.59,2.74-.93,3.62-1.74,5.24l.15,.26-.14-.27Z" fill="#317528"/>
    <path d="M111.22,179.02c-1.17,.22-2.34,1.33-3.45-.43-.28-.44-1.86,.06-2.79-.12-.93-.18-1.79-.67-2.69-1.02-3.61-.27-7.22-.63-10.84-.78-1.29-.05-4.41,3-5.01,4.48,2.61,.19,5.23,.37,7.84,.56,1.35-.35,2.69-.87,4.07-1.02,2.01-.22,4.09-.45,6.07-.18,2.05,.28,4.01,1.15,6.01,1.78,.25,.08,.65,.2,.7,.37,.66,2.51,2.74,2.19,4.43,1.96,1.86-.25,3.65-1.07,5.47-1.64-3.07-1.81-6.05-3.84-9.81-3.96Z" fill="#accc40"/>
    <path d="M251.08,135.03c-.2,.83-.39,1.66-.59,2.49,2.96-2.44,5.84-5,8.91-7.3,3.45-2.59,7.38-3.76,11.74-3.18l1.72-.17c-7.83-3.92-12-3.17-18.46-.63-2.95,1.16-5.19,4.12-7.75,6.26,.88,1.89,1.95,3.44,4.43,2.54l.26-.15-.26,.15Z" fill="#317528"/>
    <path d="M62.61,189.73c.18-1.6,.37-3.2,.55-4.81-.02-3.32-4.84-5.1-7.93-3.83-.44,.18-.99,.06-1.49,.09v.07l-.86,.08c.34,.31,.71,.64,1.08,.97-.04,.78-.08,1.57-.12,2.35-.4-.31-.81-.61-1.21-.92-.41-.04-.81-.07-1.22-.11-.34,.37-.69,.74-1.03,1.12-.29-.31-.58-.62-.87-.93,.2-1.04,.41-2.08,.62-3.13-2.32-.61-2.47-.54-3.91,2.19,2.12,.97,4.16,2.27,6.39,2.82,2.8,.7,3.18-2.9,5.25-3.81,1.02,2.83,.99,2.79-1.27,4.82-.33,.29-.39,1.15-.24,1.65,.3,1,.84,1.92,1.28,2.87-.23,.34-.47,.69-.7,1.03-2.86-.8-5.7-1.63-8.58-2.37-.77-.2-1.62-.08-2.43-.11,.32,.61,.51,1.64,.97,1.77,3.63,1.05,7.28,2.03,10.97,2.84,2.2,.49,3.35-.88,3.87-2.88,.3-.6,.59-1.19,.89-1.79Z" fill="#a66f37"/>
    <path d="M36.14,114.49l.03-.13c.84-1.68,1.78-3.33,2.5-5.06,.46-1.1,.6-2.33,.89-3.5l-3.56,1.91c-8.29,2.69-13.52,8.33-16.05,16.7,5.45-3.34,10.82-6.62,16.18-9.91Z" fill="#3b8534"/>
    <path d="M88.07,137.09c-.04-.54-.34-1.36-.09-1.58,2.6-2.35,5.29-4.6,8.01-6.93-5.04-1.55-8.84,.58-11.7,3.8-2.06-2.01-3.87-4.49-6.3-5.9-1.54-.89-4.01-.17-6.12,.28,4.77,2.64,8.14,6.06,9.35,11.3,0,.24,.01,.47,.02,.71,.48,.5,.96,1,1.68,1.76,.34-2.39,.61-4.22,.87-6.06l.63-.32c.58,.93,1.16,1.86,1.74,2.78,.63,.05,1.26,.1,1.89,.15Z" fill="#3b8534"/>
    <path d="M158.47,134.35c.35-5.18,4.39-8.01,7.34-11.53,1.26-1.5,2.48-3.03,4.08-4.98-2.69,.53-5.5,.63-7.92,1.65-3.9,1.65-7.55,3.91-8.57,8.59,.23,.94,.47,1.88,.72,2.89l2.45-1.2v4.62l1.9-.03Z" fill="#3b8534"/>
    <path d="M154.72,171.72c1.63,.42,3.27,.83,4.9,1.25-.22-4.74-.31-9.49-.71-14.21-.3-3.53-.99-7.02-1.51-10.52-.29-.23-.58-.46-.88-.69-.58-.28-1.15-.56-1.73-.84l-1.9,2.48c2.34,6.54,2.82,13.26,2.02,20.11-.09,.81-.13,1.62-.19,2.43Z" fill="#8b6f17"/>
    <path d="M166.96,225.93c5.95,2.44,11.9,4.88,17.84,7.32,.91,.05,1.83,.02,2.73,.15,2.48,.37,4.18-.82,4.57-3.31l-2.52-3.67c-3.15-.68-6.34-1.98-9.11,1.04-.32,.35-1.24,.37-1.79,.22-3.04-.78-6.06-1.65-9.08-2.49-.88,.24-1.76,.49-2.64,.73Z" fill="#3e3932"/>
    <path d="M239.32,138.77c2.96-.64,3.21-3.23,2.88-5.24-1.52-9.13-8.15-16.25-18.44-16.54,8.48,4.9,13.11,12.56,15.56,21.78Z" fill="#4ba043"/>
    <path d="M47.58,113.21c1.8,1.22,3.96,2.14,5.33,3.73,4.06,4.73,6.26,10.42,7.45,16.52,.2,1.05,.64,1.19,1.64,.67,.04-2.93,.55-5.94,.03-8.77-1.58-8.63-6.95-13.68-15.6-15.21,0,.41-.01,.83-.02,1.24,.39,.61,.78,1.21,1.16,1.82Z" fill="#4ba043"/>
    <path d="M148.45,140c-11.4-2.14-22.43,7.33-21.63,17.64,3.61-3.85,6.92-8.07,10.94-11.43,2.86-2.39,6.38-4.43,10.56-4.05,.45-.31,.89-.62,1.34-.94l-1.21-1.22Z" fill="#4ba043"/>
    <path d="M168.77,159.33c-.12-6.59-2.77-11.96-7.72-16.3-.36-.31-.13-2.11,.32-2.38,3.85-2.29,7.86-4.25,12.51-4.27-.73-.45-1.41-1.06-2.21-1.31-4.64-1.47-8.92-.09-13.1,1.85l-1.33,3.68c.87,1.41,1.48,3.1,2.66,4.18,3.87,3.57,6.2,7.89,7.29,12.99,.13,.6,1.04,1.04,1.58,1.56Z" fill="#4ba043"/>
    <path d="M187.89,213.94c-1.11-.17-2.21-.35-3.32-.52-3.3-.59-6.6-1.17-9.9-1.76l.08-.94,1.01-.4c-3.31-1.27-6.62-2.53-9.93-3.8-.31,.72-.62,1.43-.89,2.06,2.43,1.42,4.79,2.8,7.15,4.18,4.36,1.87,8.73,3.73,13.09,5.6,1.21,0,2.43,0,3.64,0,.74-.8,1.48-1.6,2.38-2.57-1.05-.59-2.18-1.22-3.32-1.86Z" fill="#bf8852"/>
    <path d="M46.44,110.16c8.65,1.53,14.02,6.58,15.6,15.21,.52,2.83,0,5.84-.03,8.77,4.37-4.46,3.27-13.52-1.56-18.75-1.82-1.96-3.8-3.83-5.95-5.41-2.35-1.74-5.1-2.49-8.07-1.63,0,.6,0,1.21,.01,1.81Z" fill="#317528"/>
    <path d="M45.26,108.23c1.08-.99,2.17-1.98,3.25-2.97-.14-.5-.5-1.05-.4-1.49,.69-2.95,3.36-3.7,5.65-4.7,3.76-1.63,10.71-1.6,13.79,2.23-.47-1.12-.63-2.58-1.45-3.29-5.32-4.61-11.23-4.42-17.32,.31-.3,.23-.69,.35-1.04,.53-1.45,3.16-2.9,6.33-4.47,9.73l1.98-.35Z" fill="#317528"/>
    <path d="M83.74,145.7c.21,.37,.41,.74,.62,1.1,1.23,2.38,2.45,4.77,3.68,7.15,.45,.87,.91,1.74,1.49,2.84,1.8-5.42,.31-9.96-2.87-15.17,3.77-.51,7.01-.94,10.32-1.39l-1.73-1.48h-7.77c-1.37,1.3-4.36,1.78-2.29,4.82,.18,.26-.94,1.4-1.45,2.13Z" fill="#3b8534"/>
    <path d="M169.59,225.2c3.02,.84,6.04,1.72,9.08,2.49,.56,.14,1.48,.12,1.79-.22,2.77-3.02,5.96-1.71,9.11-1.04-1.02-1.18-2.04-2.36-3.06-3.54-1.46-.9-2.93-1.79-4.39-2.69-4.18,1.67-8.35,3.33-12.53,5Z" fill="#5e5b53"/>
    <path d="M45.26,108.23l-1.98,.35c1.56-3.41,3.01-6.57,4.47-9.73-.04-.59-.08-1.17-.13-1.76-.59,.71-1.17,1.41-1.89,2.28l-1.34-.83c-1.71,2.13-3.28,4.08-4.85,6.04,0,.4,.02,.81,.03,1.22-.29,1.17-.43,2.4-.89,3.5-.72,1.73-1.66,3.38-2.5,5.06,1.12-.17,2.24-.34,3.36-.51,1.26-.59,2.51-1.19,3.77-1.78,1.04-.22,2.08-.45,3.11-.67,0-.41,.01-.83,.02-1.24,0-.6,0-1.21-.01-1.81-.39-.04-.78-.08-1.17-.12Z" fill="#1d5716"/>
    <path d="M157.24,140.6c.44-1.23,.88-2.45,1.32-3.68-2,.2-2.14-1.05-2-2.54v-4.62l-2.45,1.2c-.25-1-.49-1.94-.72-2.89-.22,.62-.44,1.24-.66,1.86,.03,3.14,.06,6.28,.09,9.42,.08,.09,.16,.19,.24,.28l-.28-.24c-1.49-.12-3.16-1.57-4.33,.6,.4,.41,.81,.81,1.21,1.22,.63,.84,1.26,1.69,1.89,2.53,2.46-.53,2.44,1.66,3.25,2.95,.58,.28,1.15,.56,1.73,.84,.24-2.31,.48-4.63,.72-6.94Z" fill="#1d5716"/>
    <path d="M157.24,140.6c-.24,2.31-.48,4.63-.72,6.94,.29,.23,.59,.46,.88,.69,1.73,2.2,3.57,4.32,5.17,6.61,2.04,2.91,3.9,5.96,6.2,9.5,0-2.03,0-3.52,0-5.01-.55-.51-1.45-.95-1.58-1.56-1.09-5.11-3.42-9.42-7.29-12.99-1.17-1.08-1.79-2.77-2.66-4.18Z" fill="#317528"/>
    <path d="M43.3,112.07c-1.26,.59-2.51,1.19-3.77,1.78,.03,1.06,.05,2.12,.08,3.19,.63,3.16,1.39,6.31,1.85,9.5,.42,2.96,.52,5.96,.82,9.59,.56-1.03,.81-1.5,1.07-1.98,.1-1.01,.2-2.02,.31-3.03,.75-6.37,2.97-12.76-.36-19.05Z" fill="#4ba043"/>
    <path d="M45.92,189.78c.81,.03,1.66-.09,2.43,.11,2.87,.73,5.72,1.57,8.58,2.37,.23-.34,.47-.69,.7-1.03-.44-.95-.97-1.88-1.28-2.87-.15-.5-.09-1.36,.24-1.65,2.26-2.03,2.29-2,1.27-4.82-2.07,.91-2.45,4.5-5.25,3.81-2.22-.55-4.26-1.85-6.39-2.82-.35,1.88-.71,3.76-1.06,5.64,.25,.42,.51,.85,.76,1.27Z" fill="#bf8852"/>
    <path d="M154.8,146.7c-.81-1.29-.79-3.48-3.25-2.95-1,.97-2.33,1.76-2.93,2.94-2.9,5.69-4.63,11.71-4.52,18.17,2.93-5.23,5.87-10.45,8.8-15.68,.63-.83,1.27-1.65,1.9-2.48Z" fill="#4ba043"/>
    <path d="M144.1,164.86c-.11-6.46,1.62-12.49,4.52-18.17,.6-1.17,1.94-1.97,2.93-2.94-.63-.84-1.26-1.69-1.89-2.53-.45,.31-.9,.63-1.34,.94-5.09,3.62-6.37,8.92-6.13,14.68,.11,2.73,.94,5.44,1.46,8.15,0,.04,.17,.1,.23,.08,.09-.03,.15-.14,.22-.21Z" fill="#317528"/>
    <path d="M81.26,138.76l-.02-.71c-4.42-1.94-8.69-1.33-12.89,.71-3.15,1.54-5.2,5.04-4.81,8.23,.01,.1,0,.2,0,.31,.07-.03,.15-.07,.22-.1,2.45-7.72,10.35-10.16,15.68-7.5l-.7,.95c-4.38,3.56-5.81,8.28-5.35,14.21,.52-.78,.81-1.22,1.1-1.67,.68-4.72,3.48-8.17,6.77-11.32v-3.13Z" fill="#317528"/>
    <path d="M232.41,181.05c-1.68,3.32-3.36,6.64-5.04,9.96,2.08,1.01,4.16,2.02,6.24,3.04,1.05-2.89,2.11-5.79,3.16-8.68,.42-3.33-3.17-2.61-4.36-4.31Z" fill="#8b6f17"/>
    <path d="M43.3,112.07c3.33,6.29,1.11,12.68,.36,19.05-.12,1.01-.21,2.02-.31,3.03,4.83-6.28,7.41-13.02,4.23-20.93-.39-.61-.78-1.21-1.16-1.82-1.04,.22-2.08,.45-3.11,.67Z" fill="#317528"/>
    <path d="M248.72,140.53c-.1,1.08-.19,2.17-.31,3.46,.67,.25,1.65,.61,2.63,.98,6.54-1.52,12.42-.27,17.56,4.16,.5,.43,1.26,.55,1.91,.81-2.09-5.78-8.89-9.85-14.92-8.99-1.56,.22-3.15,.26-4.73,.38l-.25,.06h-.26l-.5-.39-1.14-.46Z" fill="#317528"/>
    <path d="M250.36,141.36h.26l.25-.05c3.53-5.27,8.7-8.25,14.41-10.61,2.1-.87,3.91-2.43,5.85-3.67-4.36-.58-8.29,.59-11.74,3.18-3.07,2.3-5.95,4.86-8.91,7.3-.59,1-1.18,2.01-1.76,3.01,.38,.15,.76,.3,1.14,.46,.17,.13,.33,.25,.5,.38Z" fill="#4ba043"/>
    <path d="M226.79,192.76c-1.42,2.95-2.84,5.9-4.26,8.85,1.1,.39,2.21,.75,3.29,1.19,.98,.4,1.92,.88,2.87,1.33,.73-.95,1.66-1.8,2.13-2.86,.86-1.91,1.45-3.93,2.16-5.91-2.35-.2-5.14,.67-6.2-2.59Z" fill="#8b6f17"/>
    <path d="M150.32,136.74c1.63-4.53-1.25-7.3-4.09-9.91-2.98-2.74-6.46-4.23-10.68-3.18-.8,.2-1.74-.18-2.62-.29-.04,.4-.13,1.14-.12,1.14,7.76,1.04,12.84,5.84,17,11.98,.1,.14,.34,.18,.52,.27Z" fill="#4ba043"/>
    <path d="M67.55,101.3c-3.09-3.84-10.03-3.86-13.79-2.23-2.29,.99-4.96,1.75-5.65,4.7-.1,.44,.25,.99,.4,1.49,6-3,12.22-4.9,19.04-3.95Z" fill="#4ba043"/>
    <path d="M160.87,192.19l4.3,1.28c.45-2.15,.89-4.3,1.35-6.45,.67-3.19,1.46-6.4-1.25-9.12-.17,2.43-.11,4.91-.64,7.25-.19,.85-1.76,1.46-2.77,2.05-1.95,1.14-3.95,2.19-5.93,3.28,1.65,.57,3.29,1.14,4.94,1.72Z" fill="#5e5b53"/>
    <path d="M22.76,180.51c-.89,1.35-.74,4.58-3.78,1.95-.46,.74-.87,1.39-1.27,2.04l-.5-.1c.14-1.89,.28-3.78,.42-5.67l-.5-.14c-.62,2.22-1.24,4.43-1.85,6.65,4.97,.46,9.95,.92,14.92,1.38,.72-.49,1.44-.97,2.1-1.42l-1.46-1.68,.04,.06-1.17,.08c-.35,.24-.69,.48-1.04,.72,.15-.4,.3-.8,.44-1.21-.27-.74-.54-1.48-1.1-3.02-.19,1.28-.26,1.78-.37,2.5-1.66-.72-3.28-1.43-4.89-2.13Z" fill="#7bba2f"/>
    <path d="M39.56,105.8c0-.41-.02-.81-.03-1.22-2.78-4.93-7.22-7.25-12.64-7.97-.49-.06-1.06,.49-1.59,.76,4.62,2.36,8.4,5.57,10.69,10.34,1.19-.64,2.37-1.27,3.56-1.91Z" fill="#4ba043"/>
    <path d="M192.09,230.1c-.39,2.48-2.08,3.68-4.57,3.31-.9-.13-1.82-.11-2.73-.15,1.63,1.05,3.2,2.2,4.9,3.12,2.17,1.17,4.44,2.15,6.67,3.21,.65-1.27,1.3-2.55,1.94-3.82,.16-.53,.32-1.06,.57-1.89l-2.8,.62c-.23-.76-.46-1.54-.75-2.55-.18,1.26-.32,2.28-.59,4.18-1.12-2.55-1.88-4.28-2.64-6.02Z" fill="#7bba2f"/>
    <path d="M156.57,134.38c-.14,1.48,0,2.74,2,2.54,4.18-1.94,8.46-3.32,13.1-1.85,.8,.25,1.48,.87,2.21,1.31,.34,.13,.68,.26,1.02,.39-.07-.43,.02-1.04-.23-1.28-2.56-2.44-5.44-4.36-9.16-3.55-2.41,.53-4.7,1.59-7.04,2.42l-1.9,.03Z" fill="#317528"/>
    <path d="M78.74,140.66l.7-.95c-5.33-2.66-13.24-.21-15.68,7.5,2.74-1.73,5.35-3.73,8.26-5.09,2.03-.95,4.47-1.01,6.73-1.46Z" fill="#4ba043"/>
    <path d="M81.26,141.89c-3.3,3.15-6.1,6.6-6.77,11.32,2.28-2.39,4.55-4.78,6.83-7.17,.47-.44,.93-.87,1.4-1.31-.48-.94-.97-1.89-1.45-2.84Z" fill="#4ba043"/>
    <path d="M40.83,96.47c.39-.97,1.26-2.04,1.09-2.9-.79-3.9-1.79-7.78-5.48-10.15,1.46,4.35,2.92,8.7,4.39,13.05Z" fill="#4ba043"/>
    <path d="M14.16,185.22c-.64-2.2-1.27-4.4-1.91-6.6-.3,1.37-.6,2.73-.94,4.3-1.38-1.15-2.6-2.15-4.25-3.52,.78,2.18,1.36,3.78,1.94,5.38,1.72,.14,3.44,.29,5.16,.43Z" fill="#7bba2f"/>
    <path d="M182.12,220.2c1.46,.9,2.93,1.79,4.39,2.69,.77-1.51,1.54-3.02,2.31-4.53-1.21,0-2.43,0-3.64,0-1.02,.61-2.04,1.23-3.07,1.84Z" fill="#90918c"/>
    <path d="M226.79,192.76c1.06,3.27,3.85,2.4,6.2,2.59,.21-.44,.41-.87,.62-1.31-2.08-1.01-4.16-2.02-6.24-3.04-.19,.58-.39,1.17-.58,1.75Z" fill="#64442d"/>
    <path d="M207.18,226.94c2.24,1.83,4.44,3.77,8.38,3.45-3.09-2.02-5.48-3.58-7.87-5.14-.17,.57-.34,1.13-.51,1.7Z" fill="#64442d"/>
    <path d="M87.48,138.76h7.77c-1.8-3.14-4.55-2.12-7.18-1.67-.63-.05-1.26-.1-1.89-.15-.18,.57-.37,1.13-.59,1.82h1.89Z" fill="#317528"/>
    <path d="M232.41,181.05c1.2,1.7,4.78,.98,4.36,4.31,.23-.99,.45-1.97,.68-2.96-1.5-.87-3.01-1.75-4.51-2.62l-.53,1.27Z" fill="#885022"/>
    <path d="M220,220.86c-2.03-1.45-4.06-2.9-6.09-4.36-.06,.2-.12,.4-.18,.61,2.05,1.45,4.1,2.91,6.15,4.36l.12-.61Z" fill="#64442d"/>
    <path d="M228.7,204.12c-.96-.45-1.9-.93-2.87-1.33-1.08-.44-2.19-.8-3.29-1.19-.09,.18-.14,.36-.16,.55,1.92,1.06,3.83,2.12,5.75,3.19l.58-1.22Z" fill="#885022"/>
    <path d="M28.44,141.35c-1.47-1.83-3.3-1.17-5.1-.73-.14,.14-.27,.27-.41,.41,1.79,.49,3.58,.98,5.37,1.47l.13-1.15Z" fill="#885022"/>
    <path d="M52.63,183.73c.4,.31,.81,.61,1.21,.92,.04-.78,.08-1.57,.12-2.35-.45,.48-.89,.95-1.34,1.43Z" fill="#bf8852"/>
    <path d="M49.5,183.81c.29,.31,.58,.62,.87,.93,.34-.37,.69-.74,1.03-1.12l-1.91,.18Z" fill="#bf8852"/>
    <path d="M164,176.06c.44,.62,.87,1.24,1.31,1.86-.44-.62-.87-1.24-1.31-1.86Z" fill="#5e5b53"/>
    <path d="M53.74,181.25v-.07c.07-.23,.15-.47,0,0,0-.46,0-.19,0,.08Z" fill="#bf8852"/>
    <path d="M30.84,183.5l.42,.07-.05-.37-.32,.36-.04-.06Z" fill="#7bba2f"/>
    <path d="M12.31,178.61c.2-.02,.35-.12,.45-.28-.19,.04-.34,.13-.45,.28Z" fill="#7bba2f"/>
    <path d="M102.77,220.48c4.03,2.19,8.06,4.38,12.09,6.56,1.03,.69,2.06,1.38,3.1,2.08,1.6-.04,3.21-.08,4.81-.11-.79-.46-1.57-.91-2.7-1.57l2.62-1.6c-2.31-1.18-4.36-2.52-6.6-3.3-5.07-1.77-5.11-1.66-5.38-3.82,4.86,1.39,9.47,2.71,14.08,4.03,.07-.12,.13-.24,.18-.38,.67-.84,1.35-1.68,2.16-2.7-3.22-1.05-6.49-2.02-9.69-3.2-.99-.37-1.76-1.31-2.63-1.99-2.37-.75-4.73-1.5-7.1-2.25,1.1,2.85-2.26,2.18-2.89,3.66-.68,1.53-1.36,3.07-2.04,4.6Z" fill="#fbca95"/>
    <path d="M90.54,212.46c4.03,2.19,8.06,4.38,12.09,6.56,1.03,.69,2.06,1.38,3.1,2.08,1.6-.04,3.21-.08,4.81-.11-.79-.46-1.57-.91-2.7-1.57l2.62-1.6c-2.31-1.18-4.36-2.52-6.6-3.3-5.07-1.77-5.11-1.66-5.38-3.82,4.86,1.39,9.47,2.71,14.08,4.03,.07-.12,.13-.24,.18-.38,.67-.84,1.35-1.68,2.16-2.7-3.22-1.05-6.49-2.02-9.69-3.2-.99-.37-1.76-1.31-2.63-1.99-2.37-.75-4.73-1.5-7.1-2.25,1.1,2.85-2.26,2.18-2.89,3.66-.68,1.53-1.36,3.07-2.04,4.6Z" fill="#fbca95"/>
    <path d="M161.31,242.58c-.63-.88-1.2-1.82-1.91-2.63-1.2-1.37-1.57-2.49,.93-3.22-4.55-1.73-8.76-3.34-13.34-5.09-.37,2.25-.68,4.08-.98,5.91,.1,.45,.21,.91,.31,1.36-.02,.49-.03,.98-.05,1.47,.94,.73,1.77,1.77,2.83,2.12,4.44,1.48,8.94,2.76,13.42,4.08,.65,.19,1.88,1.25,1.44-.75l-.04-.05c-.6-.23-1.19-.45-1.79-.68-.27-.84-.54-1.69-.81-2.53Z" fill="#fbca95"/>
    <path d="M82.44,204.62c-.28,1.47-.89,2.51-2.58,2.83-.64,.12-1.14,1.05-1.7,1.61,3.86,1.69,7.76,3.31,11.58,5.09,2.22,1.04,4.31,2.33,6.46,3.51,.61-.18,1.21-.36,1.82-.54,.1-.6,.19-1.2,.29-1.8l-.79-1.81c1.72-.88,3.33-1.7,4.93-2.51-4.41-1.27-8.83-2.47-13.21-3.83-2.31-.71-4.53-1.69-6.79-2.55Z" fill="#fbca95"/>
    <path d="M64.68,206.41l-.88,.85c.78,.44,1.55,.87,2.33,1.31,.47-.03,.93-.05,1.4-.08l.12-.14c-.68-.75-1.37-1.49-2.05-2.23-.3,.1-.61,.19-.91,.29Z" fill="#573924"/>
    <path d="M70.98,214.67c-.3,.6-.61,1.2-.91,1.8,.3-.6,.61-1.2,.91-1.8Z" fill="#573924"/>
    <path d="M146.31,240.74c-.47-.23-.95-.46-1.42-.69,.47,.23,.95,.46,1.42,.69Z" fill="#fbca95"/>
    <path d="M116.75,230.68c-.23,0-.46,0-.7-.01,.23,0,.46,0,.7,.01Z" fill="#885022"/>
    <path d="M166.46,246.38c.02-.19,.05-.38,.08-.56l-.13-.13c-.26,.05-.53,.11-.79,.16,.28,.18,.56,.35,.84,.53Z" fill="#3e3932"/>
    <path d="M182.12,220.2c1.02-.61,2.04-1.23,3.07-1.84-4.36-1.87-8.73-3.73-13.09-5.6-1.48-.39-3.07-.56-4.42-1.22-10.58-5.17-21.11-10.43-31.83-15.75,1.01-1.03,1.57-1.6,2.13-2.18-1.49-.66-2.97-1.32-4.46-1.98l-.63,.63c.02,.53,.05,1.06,.07,1.58l.58,.27c1.47,1.42,1.44,1.36-.1,2.22-.35,.19-.35,1.01-.52,1.53,6.98,3.53,13.91,7.17,20.97,10.55,4.73,2.27,8.87,5.97,14.47,6.23,.22-.16,.44-.32,.65-.48l.17,.24-.83,.24c1.31,.29,2.65,.48,3.91,.88,2.05,.66,4.05,1.46,6.07,2.2h0c.74,.21,1.48,.41,2.22,.61l.02,.84c-1.8,.75-3.61,1.51-5.41,2.26-2.67,.65-5.34,1.31-8.01,1.96-.25,.26-.52,.78-.74,.75-3.47-.42-6.92-.91-10.06-1.34,.75-.14,1.91-.36,3.07-.58l.04-.59c-5.19-2.24-10.38-4.49-15.57-6.73-.28-.78-6.69-4.01-9.9-4,.13-.56,.27-1.12,.41-1.68-2.41,2.16-3.8-.19-5.31-1-.79-.42-1.22-1.52-1.82-2.32-.39,1.03-.77,2.05-1.16,3.08,2.28,1.41,4.56,2.82,6.83,4.23,4.75,2.54,9.51,5.08,14.26,7.63,6.16,3.34,12.73,5.08,19.76,5.05,.88-.24,1.76-.49,2.64-.73,4.18-1.67,8.35-3.33,12.53-5Z" fill="#885022"/>
    <path d="M147.2,220.87c-4.75-2.54-9.51-5.08-14.26-7.62-6.68-2.2-13.36-4.4-20.04-6.61-3.4-.63-6.8-1.26-10.21-1.89h-.98c-.2,0-.4-.03-.58-.1-4.81-.73-9.69-1.18-14.41-2.31-2.84-.68-5.42-2.43-8.12-3.7-.54-.23-1.08-.46-1.63-.68-1.98-.51-3.99-.91-5.91-1.58-.68-.24-1.13-1.12-1.69-1.7,.06-.17,.06-.33-.02-.5-.62-.02-1.25-.05-1.87-.07-.74,.29-1.48,.58-3.12,1.22,2,1.61,3.46,2.85,4.99,4,.78,.59,1.68,1.02,2.53,1.53,.84,.28,1.68,.54,2.52,.84,2.68,.96,5.36,1.94,8.04,2.91,2.26,.86,4.49,1.83,6.79,2.55,4.38,1.35,8.81,2.56,13.21,3.83,1.75,.41,3.5,.82,5.26,1.23,2.37,.75,4.73,1.5,7.1,2.25,1.06-.16,2.12-.32,3.18-.48-.82-.96-1.64-1.93-2.63-3.1,2.54,.73,5.03,1.38,7.48,2.18,7.34,2.39,14.65,4.85,21.98,7.27,.77,.25,1.59,.36,2.39,.54Z" fill="#e0a76d"/>
    <path d="M168.55,244.67c-.03,.58-.06,1.17-.09,1.75,.38-.22,.76-.45,1.14-.67-.35-.36-.7-.72-1.05-1.08Z" fill="#3e3932"/>
    <path d="M169.6,245.75c-.38,.22-.76,.45-1.14,.67-.12,.11-.2,.24-.26,.39,.47-.35,.93-.71,1.4-1.06Z" fill="#fcb279"/>
    <path d="M119.38,184.48h0c-.03-.1-.05-.2-.08-.29-.03,.01-.05,.02-.08,.02-.16,.05-.33,.09-.49,.14-.07,.01-.14,.03-.21,.06-.07,.02-.15,.05-.23,.09-.04,.02,.12,.46,.18,.7,.34-.13,.67-.25,1-.38-.03-.11-.06-.23-.09-.34Zm11.08,2.8c-1.95-1.18-3.86-2.43-5.86-3.51-.6-.32-1.44-.17-2.16-.24-.47-.19-.93-.38-1.4-.58v.04c-.35,.11-.69,.22-1.03,.34-.36,.13-.72,.26-1.08,.38-.21,.07-.41,.14-.62,.21-.21,.08-.42,.14-.63,.21-.01,0-.03,.01-.04,.01-.23,.07-.46,.14-.69,.2-.04,0-.07,.02-.11,.03-.19,.05-.39,.09-.58,.13-.23,.05-.46,.09-.69,.12-.27,.03-.54,.07-.82,.1-.1,.01-.21,.02-.31,.03-.1,.01-.19,.01-.29,.01-.02,.01-.05,.01-.07,.01-.35,.01-.7-.01-1.04-.09-.28-.06-.55-.16-.79-.32-.12-.08-.24-.17-.35-.28-.08-.08-.16-.17-.23-.27-.08-.09-.15-.2-.21-.32-.07-.11-.12-.24-.17-.38-.03-.07-.06-.14-.08-.22-.02-.07-.04-.15-.07-.23-.05-.17-.44-.29-.7-.37-.18-.06-.36-.12-.55-.18-.42-.14-.84-.29-1.26-.43-.39-.14-.78-.28-1.17-.41-.03-.01-.07-.02-.1-.03-.2-.07-.39-.13-.59-.19-.27-.08-.54-.16-.81-.23-.16-.04-.33-.08-.49-.12-.1-.02-.21-.05-.31-.07-.24-.05-.48-.09-.72-.12-1.98-.27-4.06-.04-6.07,.19-1.38,.15-2.72,.66-4.07,1.01,3.87,3.18,8.91,1.63,13.24,3.2-.32,.61-.59,1.13-.87,1.65,.21,.04,.41,.08,.62,.11,1.41,.02,2.82,.03,4.23,.05,.31,0,.62,.01,.93,.01,.61,.05,1.22,.1,1.84,.14,.29,.02,.58,.04,.88,.06,.29,.02,.58,.04,.87,.07,.84,.07,1.67,.16,2.49,.31,.96,.18,1.92,.39,2.87,.63,0,0,.01-.01,.01,0,.39,.09,.78,.19,1.17,.29l1.17,.3c.78,.2,1.57,.4,2.35,.59,1.59,.03,3.18,.06,4.77,.09-.13-.64-.27-1.29-.41-1.93Z" fill="#7b9334"/>
    <path d="M130.46,187.28c.14,.64,.27,1.29,.41,1.93,.26,.6,.53,1.2,.79,1.8h-.01c.62,.2,1.25,.41,1.87,.63,1.49,.66,2.97,1.32,4.45,1.98,1.19,.35,2.39,.71,3.59,1.06,1.07-2.66,3.37-2.86,5.79-3.08,2.03-.19,4.03-.74,6.05-1.14-1.88-1.62-3.71-3.32-5.69-4.8-.56-.41-1.86-.55-2.37-.18-4.67,3.32-9.65,3.45-14.88,1.8Z" fill="#5e5b53"/>
    <path d="M153.4,190.46c-2.01,.39-4.01,.95-6.05,1.14-2.42,.23-4.73,.42-5.79,3.09,.21,.05,.43,.09,.64,.14,3.75-.82,7.5-1.64,11.25-2.47,.63,.03,1.25,.06,1.88,.09,1.85-.08,3.69-.16,5.54-.24-1.65-.57-3.3-1.14-4.94-1.72-.84,0-1.69-.01-2.53-.02Z" fill="#3e3932"/>
    <path d="M121.04,182.95c.46,.19,.93,.39,1.39,.58-.46-.19-.93-.39-1.39-.58Z" fill="#accc40"/>
    <path d="M145.3,174.82l-.25,.4c.12-.1,.24-.2,.35-.3l-.1-.1Z" fill="#cfd0ca"/>
    <path d="M144.1,176.73l.37-.31-.43,.25,.06,.06Z" fill="#cfd0ca"/>
    <path d="M144.05,176.67l-.28,.32c.11-.09,.23-.18,.34-.26l-.06-.06Z" fill="#cfd0ca"/>
    <path d="M64.68,206.41c.3-.1,.61-.19,.91-.29,1.91,.26,3.82,.52,5.21,.71,1.2-.89,2.2-1.62,3.68-2.71-4.09-1.29-7.94-2.51-11.79-3.73-.87-.21-1.75-.41-2.62-.62-.38,.89-.76,1.77-1.06,2.47,1.93,1.41,3.79,2.79,5.66,4.16Z" fill="#e0a76d"/>
    <path d="M67.49,194.12c.62,.02,1.25,.05,1.87,.07,.85-1.46,1.69-2.92,2.54-4.38-2.84-.99-5.73-2.57-8.25,.67,0,.01-.67-.49-1.03-.75-.29,.6-.59,1.19-.89,1.79,1.92,.87,3.84,1.73,5.76,2.6Z" fill="#5e5b53"/>
    <path d="M142.2,194.82c-.21-.05-.43-.09-.64-.14-1.2-.35-2.39-.71-3.59-1.06-.56,.57-1.12,1.15-2.13,2.18,10.71,5.32,21.25,10.58,31.83,15.75,1.35,.66,2.94,.82,4.42,1.22-2.36-1.38-4.72-2.76-7.15-4.18,.27-.63,.58-1.35,.89-2.06-.14-.03-.29-.04-.43-.04-.69-.38-1.37-.76-2.06-1.14-.22-.26-.44-.51-.67-.77-1.21-.56-2.43-1.12-3.64-1.69-2.73-1.3-5.45-2.59-8.18-3.89-1.43-.78-2.87-1.55-4.3-2.33-1.45-.62-2.9-1.23-4.35-1.85Z" fill="#a66f37"/>
    <path d="M159.03,202.89c1.21,.56,2.43,1.13,3.64,1.69,1.78-4.32,5.37-3.99,9.29-3.36-4.23-2.83-7.78-2.61-11.22,.46-.52,.46-1.14,.81-1.71,1.22Z" fill="#70747c"/>
    <path d="M146.56,196.67c1.43,.78,2.87,1.56,4.3,2.33-.21-2.57,.73-4.39,3.28-5.29,.49-.17,.8-.83,1.2-1.27-.63-.03-1.25-.06-1.88-.08-2.3,1.44-4.6,2.88-6.9,4.32Z" fill="#70747c"/>
    <path d="M175.77,210.32l-1.01,.4-.08,.94c3.3,.59,6.6,1.17,9.9,1.76-2.93-1.03-5.87-2.07-8.81-3.1Z" fill="#e0a76d"/>
    <path d="M163.34,205.35c.69,.38,1.37,.76,2.06,1.14-.69-.38-1.37-.76-2.06-1.14Z" fill="#bf8852"/>
    <path d="M200.72,235.23c.79,1.25,1.57,2.51,2.68,4.28,.67-.5,1.45-1.07,2.23-1.65-.83-.73-1.59-1.6-2.52-2.16-.66-.39-1.58-.36-2.38-.51v.04Z" fill="#885022"/>
    <path d="M101.12,204.65c.19,.07,.38,.1,.58,.08,.33,0,.66,0,.98,.01,3.4,.63,6.8,1.26,10.21,1.89,2.52-.02,5.03-.03,7.55-.05,.22-.65,.44-1.3,.66-1.95-11.61-1.1-14.76-1.35-18.83-11.68,3.02,0,6.17-.15,9.31,.04,3.16,.19,6.3,.73,9.45,1.11-.57-3.22,1.66-3.1,3.75-3.15-.55-.85-.6-2.27-2.39-1.16-1.01,.63-2.58,.61-3.87,.53-5.11-.32-10.22-.75-15.33-1.22-2.25-.21-4.49-.61-6.73-.92,1.3-.74,2.58-.65,3.84-.77,1.95-.17,3.88-.49,5.82-.74-4.62-.39-9.24-.85-13.86-1.14-6.54-.41-13.1-.69-20.15-1.05,.64,1.51,1.17,2.75,1.69,3.99,.85-.78,1.71-1.56,2.56-2.34,1.01-.25,2.03-.5,3.04-.75,.62,.2,1.23,.39,1.85,.59,7.29,1.25,10.96,9.59,11.79,14.96,2.6,.95,5.21,1.89,7.8,2.88,.17,.07,.19,.54,.28,.82Z" fill="#885022"/>
    <path d="M106.13,186.69c-1.94,.25-3.88,.57-5.82,.74-1.26,.11-2.54,.02-3.84,.77,2.24,.31,4.48,.72,6.73,.92,5.1,.47,10.21,.89,15.33,1.22,1.29,.08,2.85,.1,3.87-.53,1.78-1.11,1.84,.31,2.39,1.16,.43-.13,.87-.26,1.3-.39l-.03-1.42,.05-.04c-2.52-.61-5.02-1.34-7.57-1.81-2-.36-4.05-.4-6.08-.58-1.74,1.42-3.46,1.29-5.16-.05-.2-.04-.41-.07-.61-.11-.18,.04-.36,.08-.54,.13Z" fill="#a66f37"/>
    <path d="M76.38,186.15c-.85,.78-1.71,1.56-2.56,2.34-.64,.44-1.28,.88-1.92,1.32-.85,1.46-1.69,2.92-2.54,4.38,.08,.16,.08,.33,.02,.5,1.28,.46,2.56,.92,3.84,1.38,1.63-1.25,3.26-2.5,4.89-3.75-.21-1.77,.87-1.57,2-1.3-1.24-1.62-2.48-3.24-3.72-4.86Z" fill="#70747c"/>
    <path d="M87.48,138.76h-1.89c.23-.69,.41-1.26,.59-1.82-.58-.93-1.16-1.85-1.74-2.78l-.63,.32c-.26,1.83-.53,3.67-.87,6.06-.73-.76-1.21-1.26-1.68-1.76,0,1.04,0,2.08,0,3.13,.48,.95,.97,1.89,1.45,2.84,.34,.32,.68,.65,1.03,.97,.51-.73,1.63-1.87,1.45-2.13-2.07-3.04,.92-3.52,2.29-4.81Z" fill="#1d5716"/>
    <path d="M243.62,156.17l.14,.27-.15-.26h.01Z" fill="#1d5716"/>
    <path d="M251.08,135.03l.26-.15-.26,.15h0Z" fill="#1d5716"/>
    <path d="M152.78,139.4l.28,.24c-.08-.09-.16-.19-.24-.28l-.04,.04Z" fill="#317528"/>
    <path d="M250.36,141.36c-.17-.13-.33-.25-.5-.38,.17,.12,.33,.25,.5,.38Z" fill="#1d5716"/>
    <path d="M29.12,183.15c-.15,.4-.3,.8-.44,1.21,.35-.24,.69-.48,1.04-.72l-.59-.49Z" fill="#fefefe"/>
    <path d="M146.32,238.91c-.1-.45-.21-.91-.31-1.36-.16,.51-.32,1.02-.48,1.54l.79-.17Z" fill="#3e3932"/>
    <path d="M144.15,238.97l.22-.34c-.11,.07-.23,.14-.34,.21l.12,.12Z" fill="#3e3932"/>
    <path d="M166.55,245.81l.22-.34c-.11,.07-.23,.14-.34,.21l.13,.13Z" fill="#3e3932"/>
    <path d="M163.92,245.79c-.6-.23-1.19-.45-1.79-.68,.6,.23,1.19,.45,1.79,.68Z" fill="#fcb279"/>
    <path d="M67.53,208.49c.46,.36,.91,.71,1.37,1.07l.35-.65c-.54-.18-1.07-.37-1.61-.55l-.12,.14Z" fill="#573924"/>
    <path d="M71.62,208.63c-.39-.04-.66-.07-.92-.1,.1,.16,.18,.4,.32,.45,.11,.04,.3-.16,.6-.35Z" fill="#573924"/>
    <path d="M100.57,217.04c-.76-.58-1.51-1.15-2.27-1.73-.09,.6-.19,1.2-.28,1.8l.02,.03,2.53-.11Z" fill="#64442d"/>
    <path d="M178.32,217.74c-2.02-.74-4.02-1.55-6.07-2.2-1.27-.41-2.61-.6-3.91-.88h0c-5.6-.26-9.73-3.96-14.47-6.23-7.05-3.38-13.98-7.02-20.97-10.55-.65,1.04-1.3,2.08-1.95,3.11-1.41,.83-2.82,1.66-4.23,2.5-.35,.69-.69,1.38-1.14,2.27,.68,.08,1.18,.13,1.67,.19,.59,.79,1.03,1.89,1.82,2.32,1.52,.81,2.91,3.17,5.31,1-.14,.56-.27,1.12-.41,1.68,3.21,0,9.62,3.23,9.9,4,5.19,2.24,10.38,4.49,15.57,6.73l-.04,.59c-1.16,.22-2.32,.44-3.07,.58,3.14,.43,6.6,.92,10.06,1.34,.21,.03,.49-.49,.74-.75-1.1-.47-2.2-.93-2.66-1.13,1.76-.73,3.92-1.13,5.43-2.35,2.58-2.08,5.12-3.28,8.41-2.21Z" fill="#a66f37"/>
    <path d="M130.97,200.99c.65-1.04,1.3-2.08,1.95-3.11,.16-.53,.17-1.34,.52-1.53,1.54-.86,1.58-.79,.1-2.22-1.68,.61-3.35,1.22-5.03,1.83-3.39,.08-6.57,.8-9.18,3.16,1.39,.71,2.72,1.86,4.17,2.03,2.45,.28,4.98-.07,7.47-.15Z" fill="#5e5b53"/>
    <path d="M128.51,195.95c1.68-.61,3.35-1.22,5.03-1.83-.19-.09-.38-.18-.58-.26-1.19-.36-2.41-.64-3.53-1.14-.19-.09-.13-1.51,.07-1.57,.66-.22,1.43-.11,2.16-.13-.26-.6-.53-1.2-.79-1.8-1.59-.03-3.18-.06-4.77-.09l-.05,.04c.31,.13,.61,.25,.92,.38l-.89,1.04c-.43,.13-.87,.26-1.3,.39-2.09,.06-4.32-.07-3.75,3.15,1.07,0,2.13,0,3.2,.02,1.65,.04,3.61-.59,4.28,1.8Z" fill="#90918c"/>
    <path d="M178.32,217.74c-3.28-1.07-5.83,.13-8.41,2.21-1.5,1.21-3.66,1.62-5.43,2.35,.46,.19,1.56,.66,2.66,1.13,2.67-.65,5.34-1.31,8.01-1.96,1.06-1.24,2.11-2.48,3.17-3.72h0Z" fill="#bf8852"/>
    <path d="M120.44,206.59c-2.52,.02-5.03,.03-7.55,.05,6.68,2.2,13.36,4.4,20.04,6.61-2.28-1.41-4.56-2.82-6.83-4.23-1.63-.36-3.29-.66-4.88-1.13-.36-.11-.52-.85-.78-1.29Z" fill="#6d6844"/>
    <path d="M120.44,206.59c.25,.45,.42,1.19,.78,1.29,1.6,.48,3.25,.77,4.88,1.13,.39-1.03,.77-2.05,1.16-3.08-.5-.06-.99-.11-1.67-.19,.45-.89,.8-1.58,1.14-2.27-.88,.61-1.76,1.22-2.77,1.91-.65-.36-1.51-.84-2.36-1.31l-.51,.56c-.22,.65-.44,1.3-.66,1.95Z" fill="#7b9334"/>
    <path d="M131.66,191.01c-.73,.02-1.5-.09-2.16,.13-.2,.07-.26,1.49-.07,1.57,1.12,.5,2.34,.78,3.53,1.14-.02-.53-.05-1.06-.07-1.59-.42-.42-.83-.85-1.25-1.27h.01Z" fill="#7b9334"/>
    <path d="M178.33,217.74c-1.06,1.24-2.11,2.48-3.17,3.72,1.8-.76,3.61-1.51,5.41-2.26l-.02-.84c-.74-.2-1.48-.41-2.22-.61Z" fill="#a66f37"/>
    <path d="M131.65,191c.42,.42,.83,.85,1.25,1.27,.21-.21,.42-.42,.63-.63-.62-.21-1.25-.43-1.87-.64Z" fill="#90918c"/>
    <path d="M168.34,214.65l.83-.24-.17-.24c-.22,.16-.44,.32-.65,.48h0Z" fill="#a66f37"/>
    <path d="M101.12,204.65c-.09-.28-.11-.75-.28-.82-2.59-.99-5.19-1.93-7.8-2.88-2.07-.41-4.14-.82-6.21-1.23-2.68-.64-5.36-1.27-8.04-1.91l-.21,.83c2.7,1.27,5.28,3.02,8.12,3.7,4.72,1.13,9.6,1.57,14.41,2.31Z" fill="#573924"/>
    <path d="M78.59,198.65c.07-.28,.14-.56,.21-.83-.24-1.83-.47-3.66-.71-5.5-1.63,1.25-3.26,2.5-4.89,3.75,1.25,.63,2.51,1.27,3.76,1.9,.54,.23,1.08,.46,1.63,.68Z" fill="#5e5b53"/>
    <path d="M76.97,197.96c-1.25-.63-2.51-1.27-3.76-1.9-1.28-.46-2.56-.92-3.84-1.38,.56,.59,1.01,1.47,1.69,1.7,1.92,.67,3.93,1.07,5.91,1.58Z" fill="#3b8534"/>
    <path d="M102.69,204.75c-.33,0-.66,0-.98-.01,.33,0,.66,0,.98,.01Z" fill="#573924"/>
    <path d="M124.8,222.75c.28,.15,.56,.29,.84,.43,0,0,.13-.22,.12-.22-.26-.2-.53-.38-.79-.57-.04,.13-.1,.25-.17,.37Z" fill="#fbca95"/>
    <path d="M107.28,186.67c1.71,1.35,3.43,1.48,5.16,.05-1.72-.02-3.44-.04-5.16-.05Z" fill="#885022"/>
    <path d="M119.3,184.19c-.34,.09-.69,.16-1.01,.31-.04,.02,.12,.45,.18,.7,.33-.13,.67-.25,1-.38l-.17-.63Z" fill="#accc40"/>
    <path d="M146.56,196.67c2.3-1.44,4.6-2.88,6.9-4.32-3.75,.82-7.5,1.64-11.25,2.47,1.45,.62,2.9,1.23,4.35,1.85Z" fill="#5e5b53"/>
    <path d="M121.11,204.65c.17-.19,.34-.38,.51-.56-.94-1.41-1.89-2.82-2.79-4.26-.06-.1,.32-.47,.5-.71,2.61-2.36,5.79-3.08,9.18-3.16-.67-2.4-2.62-1.76-4.28-1.8-1.07-.03-2.13-.02-3.2-.02-3.15-.38-6.29-.92-9.45-1.11-3.13-.19-6.29-.04-9.31-.04,4.07,10.33,7.22,10.58,18.83,11.68Z" fill="#a66f37"/>
    <path d="M86.84,199.72c2.07,.41,4.14,.82,6.21,1.23-.83-5.37-4.49-13.71-11.79-14.96-.62-.2-1.23-.39-1.85-.59-1.01,.25-2.03,.5-3.04,.75,1.24,1.62,2.48,3.24,3.72,4.86,7.17,1.27,6.73-.4,6.77,7.16,0,.52-.01,1.04-.02,1.55Z" fill="#a5a8ad"/>
    <path d="M79.41,185.4c.62,.2,1.23,.39,1.85,.59-.62-.2-1.23-.39-1.85-.59Z" fill="#90918c"/>
    <path d="M126.08,190.58l.89-1.04c-.31-.13-.61-.25-.92-.38l.03,1.42Z" fill="#885022"/>
    <path d="M86.84,199.72c0-.52,.02-1.04,.02-1.55-.04-7.55,.4-5.89-6.77-7.16-1.12-.27-2.2-.47-2,1.3,.24,1.83,.47,3.66,.71,5.5,2.68,.64,5.36,1.27,8.04,1.91Z" fill="#90918c"/>
    <path d="M119.33,199.11c-.18,.24-.56,.61-.5,.71,.89,1.44,1.85,2.85,2.79,4.26,.85,.47,1.7,.95,2.36,1.31,1-.69,1.88-1.3,2.77-1.91,1.41-.83,2.82-1.66,4.23-2.5-2.5,.08-5.02,.43-7.47,.15-1.45-.16-2.78-1.32-4.17-2.03Z" fill="#573924"/>
  </g>
  <path d="M336.14-.07V335H-.53v-121.68c.34-1.82,.61-3.65,.81-5.48,.46-4.06,.59-8.16,.29-12.29-.06-.86-.48-1.64-1.1-2.3v-8.33c.03-.88,.03-1.76,0-2.65V-.07H336.14Z" fill="#0071b8" opacity=".8"/>
  <g id="uuid-06aadc11-600c-4fcc-b32d-3532adc4b9ac">
    <g>
      <g>
        <path d="M29.78,11.91c0,.56-.23,1.1-.63,1.5l-6.76,6.76-7.22-4.17v-4.1c0-1.18,.96-2.14,2.14-2.14s2.14,.96,2.14,2.14h0v5.17l6.68-6.69c.84-.84,2.19-.83,3.03,0,.4,.4,.63,.95,.63,1.53h0Z" fill="#fff"/>
        <path d="M29.15,30.83c-.4,.4-.94,.63-1.51,.63-.28,0-.56-.06-.82-.16-.26-.11-.49-.27-.69-.47l-2.27-2.27-4.42-4.41v5.18c0,1.18-.95,2.13-2.13,2.13s-2.14-.95-2.14-2.13v-4.09l7.24-4.17,4.47,4.47,2.27,2.27c.84,.84,.83,2.19,0,3.02Z" fill="#fff"/>
        <path d="M22.08,20.47c-.03-.1-.1-.2-.19-.26-.01,0-.02-.01-.03-.02l-1.82-1.05-4.87-2.81-4.12-2.38c-.24-.14-.53-.06-.66,.17-.05,.08-.07,.16-.07,.25v12.48c0,.27,.22,.48,.48,.48,.09,0,.17-.02,.25-.06l4.12-2.38,6.69-3.86s.05-.03,.07-.05c.06-.05,.1-.11,.13-.18,.04-.1,.05-.22,.02-.33Zm-10.19-5.03l3.2,1.85,5.19,2.99c.06,.04,.11,.08,.14,.14h0c.05,.1,.06,.2,.03,.29-.02,.09-.09,.17-.17,.22l-5.19,3-3.2,1.85c-.18,.1-.41,.04-.51-.14-.04-.05-.05-.12-.05-.19V15.76c0-.21,.16-.37,.37-.37,.07,0,.13,.01,.19,.05Z" fill="#fff"/>
        <path d="M19,20.69c-.02,.07-.07,.13-.13,.17l-3.9,2.25-2.4,1.39c-.13,.08-.31,.03-.38-.1-.02-.04-.04-.09-.04-.14v-7.29c0-.16,.13-.28,.28-.28,.05,0,.1,.01,.14,.04l2.41,1.39,3.9,2.25c.06,.04,.11,.09,.13,.16,.01,.05,.01,.11,0,.16h0Z" fill="#fff"/>
      </g>
      <g>
        <path d="M64.86,20.12l-5.96-2.99-3.67-1.84c-.21-.12-.47-.04-.58,.16-.03,.06-.05,.12-.06,.18l.12,9.9c.03,.23,.24,.41,.48,.38,.06,0,.12-.03,.17-.06l.23-.12,3.4-1.81,2.09-1.12,3.78-2.01c.09-.05,.16-.13,.19-.23,.03-.07,.03-.15,.01-.22-.04-.1-.11-.18-.2-.22Zm-5.96,3.03l-2.81,1.5c-.16,.1-.37,.05-.46-.11-.02-.04-.04-.09-.04-.14l-.1-7.68c.02-.18,.18-.32,.36-.3,.05,0,.09,.02,.14,.04l2.85,1.43,1.02,.51,3.6,1.81c.07,.03,.13,.09,.16,.17,.01,.05,.01,.11-.01,.16h.01s-.01,.02-.02,.03c-.02,.07-.07,.12-.13,.15l-4.57,2.43Z" fill="#fff"/>
        <path d="M62.32,20.54c-.02,.06-.06,.1-.11,.13l-3.43,1.83-2.12,1.13c-.12,.07-.27,.03-.34-.09-.02-.03-.03-.07-.03-.1l-.07-5.78c.01-.14,.13-.24,.27-.23,.04,0,.07,.01,.1,.03l2.14,1.08,3.48,1.75c.06,.03,.1,.07,.12,.13,.01,.04,.01,.09,0,.13h0Z" fill="#fff"/>
        <path d="M39.29,15.38l-2.28,.03-2.89,.04,.03,2.82,.09,7.48,2.46-.03-.04-3.34,2.71-.04c2.5-.03,4.32-1.49,4.3-3.53-.03-2.04-1.89-3.46-4.38-3.43Zm-.21,4.94l-2.44,.03-.04-2.91,2.45-.03c1.22,0,2.06,.55,2.07,1.43,.01,.89-.82,1.47-2.04,1.48Z" fill="#fff"/>
        <polygon points="53.41 25.8 45.2 25.9 45.08 15.6 47.56 15.57 47.66 23.88 53.38 23.8 53.41 25.8" fill="#fff"/>
        <polygon points="70.22 21.87 70.26 25.59 67.77 25.62 67.73 21.9 63.14 15.37 66.02 15.34 68.94 19.82 71.87 15.27 74.63 15.23 70.22 21.87" fill="#fff"/>
        <polygon points="85.53 26.1 83.85 26.12 79.42 21.38 77.63 23.11 77.67 26.2 76.36 26.21 76.24 15.91 77.54 15.9 77.61 21.6 83.37 15.82 85.09 15.8 80.31 20.57 85.53 26.1" fill="#fff"/>
        <path d="M92,15.55c-3.18,.04-5.86,2.5-5.83,5.4,.04,2.89,2.76,5.31,5.96,5.27,3.2-.04,5.85-2.52,5.81-5.42-.03-2.89-2.76-5.29-5.94-5.25Zm.42,9.57c-2.51,.2-4.72-1.67-4.92-4.19,.13-2.27,1.91-4.09,4.18-4.29,2.52-.21,4.73,1.66,4.94,4.18-.13,2.28-1.92,4.12-4.2,4.3Z" fill="#fff"/>
        <path d="M108.19,23.2c.02,1.64-1.33,2.99-4.02,3.02-1.66,.06-3.28-.5-4.54-1.58l.81-.93c1.03,.95,2.38,1.47,3.78,1.44,1.78-.02,2.67-.91,2.66-1.83-.01-1.1-1.11-1.52-3.12-1.91-2.32-.46-3.78-1.08-3.8-2.87-.02-1.65,1.6-2.96,3.81-2.98,1.48-.04,2.92,.47,4.05,1.42l-.79,.92c-.91-.81-2.09-1.27-3.31-1.28-1.43,.02-2.45,.87-2.44,1.82,0,1.07,1.15,1.43,3.11,1.82,2.21,.44,3.78,1.13,3.8,2.94Z" fill="#fff"/>
        <polygon points="121.86 26.08 120.56 26.1 120.46 18.32 116.28 25.55 111.93 18.42 112.02 26.2 110.71 26.22 110.59 15.91 111.89 15.9 116.25 23.03 120.43 15.79 121.73 15.78 121.86 26.08" fill="#fff"/>
        <path d="M130.07,15.55c-3.18,.04-5.86,2.5-5.83,5.4,.04,2.89,2.76,5.31,5.96,5.27,3.2-.04,5.85-2.52,5.81-5.42-.04-2.89-2.76-5.29-5.94-5.25Zm.42,9.57c-2.52,.2-4.72-1.67-4.93-4.19,.14-2.27,1.92-4.1,4.19-4.29,2.51-.21,4.72,1.66,4.94,4.18-.13,2.28-1.92,4.12-4.2,4.3Z" fill="#fff"/>
        <path d="M146.26,23.2c.02,1.64-1.34,2.99-4.02,3.02-1.66,.06-3.28-.51-4.55-1.58l.81-.93c1.03,.95,2.39,1.47,3.79,1.44,1.77-.02,2.67-.91,2.65-1.83-.01-1.1-1.1-1.52-3.12-1.91-2.31-.46-3.78-1.08-3.8-2.87-.02-1.65,1.61-2.96,3.82-2.98,1.47-.04,2.91,.47,4.05,1.42l-.79,.92c-.92-.81-2.09-1.27-3.32-1.28-1.42,.02-2.45,.87-2.44,1.82,.02,1.07,1.16,1.43,3.12,1.82,2.2,.44,3.78,1.13,3.8,2.94Z" fill="#fff"/>
      </g>
    </g>
  </g>
  <polygon points="334.58 85.15 334.58 337.57 19.26 337.57 19.48 337.39 34.36 325.49 56.85 307.5 77.68 290.86 77.69 290.85 80.59 288.52 84.33 285.53 86.95 283.44 99.54 273.37 110.7 264.44 140.63 240.51 156.99 227.42 157.49 227.02 160.92 224.27 162.37 223.12 168.56 218.16 169.16 217.69 172.03 215.4 175.07 212.97 177.23 211.24 179.3 209.58 183.91 205.9 185.2 204.86 185.21 204.85 186.88 203.52 187.15 203.31 187.16 203.31 187.42 203.09 187.76 202.81 189.43 201.48 190.46 200.66 191.45 199.87 191.49 199.83 192.04 199.4 196.7 195.66 198.13 194.53 206.29 188 206.39 187.91 208.55 186.19 210.55 184.59 211.56 183.78 213.22 182.46 214.05 181.79 216.26 180.02 217.66 178.91 217.67 178.9 218.24 178.44 220.06 176.98 220.74 176.44 221.87 175.54 227.92 170.69 233.95 165.88 241.47 159.86 241.48 159.85 246.01 156.23 250.53 152.61 251.04 152.21 252.95 150.68 255.47 148.67 259.98 145.06 263.13 142.53 263.14 142.53 266.05 140.2 266.33 139.98 266.19 139.84 267.69 138.64 307.02 107.19 310.74 104.21 334.58 85.15" fill="#0071b8"/>
  <g>
    <path d="M2.48,203.07c30.02,21.81,60.53,40.12,91.92,61.04,33.13,22.67,60.16,40.11,93.29,62.78,5.23,3.49,10.46,6.98,16.29,10.65" fill="none" stroke="#fff" stroke-miterlimit="1" stroke-width="3"/>
    <polyline points="148.56 339.56 145.74 337.57 145.5 337.4 139.42 333.1 135.57 330.38 112.94 314.4 97.95 303.8 91.81 299.47 83 293.25 73.33 286.42 71.92 285.42 67.69 282.44 45.7 266.9 39.7 262.66 39.62 262.6 26.06 253.02 4.98 238.13 4.84 238.04 -.94 233.96 -1.53 233.53" fill="none" stroke="#fff" stroke-miterlimit="1" stroke-width="3"/>
    <polyline points="-1.53 272.5 -.94 272.92 8.49 279.5 27.86 293.01 49.37 308.01 53.79 311.1 67.34 320.55 73.91 325.15 91.47 337.4 91.72 337.57" fill="none" stroke="#fff" stroke-miterlimit="1" stroke-width="3"/>
    <polyline points="46.78 337.57 46.53 337.4 29.76 325.7 13.35 314.25 -.94 304.28 -1.53 303.86" fill="none" stroke="#fff" stroke-miterlimit="1" stroke-width="3"/>
    <polyline points="1.83 337.57 1.58 337.4 -.94 335.64 -1.53 335.23" fill="none" stroke="#fff" stroke-miterlimit="1" stroke-width="3"/>
    <polyline points="44.71 323.93 45.59 322.7 65.95 293.88 86.8 264.37 97.18 249.67" fill="none" stroke="#fff" stroke-miterlimit="1" stroke-width="3"/>
    <polyline points="118.43 261.26 108.45 275.58 91.19 300.35 73.61 325.57 66.93 335.17" fill="none" stroke="#fff" stroke-miterlimit="1" stroke-width="3"/>
    <polyline points="70.01 231.31 54.17 254.5 21.98 301.62 7.25 323.17" fill="none" stroke="#fff" stroke-miterlimit="1" stroke-width="3"/>
    <polyline points="167.38 337.57 167.49 337.4 177.66 319.98 185.16 307.11" fill="none" stroke="#fff" stroke-miterlimit="1" stroke-width="3"/>
    <polyline points="47.4 220.83 44.14 225.73 41.78 229.3 33.66 241.55 32.29 243.64 31.34 245.06 26.06 253.02 8.49 279.5 -.94 293.73 -1.53 294.62" fill="none" stroke="#fff" stroke-miterlimit="1" stroke-width="3"/>
    <polyline points="133.56 271.29 128.41 282.06 126.58 285.89 126.48 286.09 126.48 286.09 125.83 287.46 112.94 314.4 112.65 315.02 101.96 337.4 101.87 337.57" fill="none" stroke="#fff" stroke-miterlimit="1" stroke-width="3"/>
    <polyline points="27.87 205.22 20.85 215.32 4.98 238.13 -.94 246.64 -1.53 247.5" fill="none" stroke="#fff" stroke-miterlimit="1" stroke-width="3"/>
    <polyline points="137.28 337.57 137.37 337.4 139.35 333.26 139.42 333.1 152.52 305.7 153.43 303.8 158.56 293.07" fill="none" stroke="#fff" stroke-miterlimit="1" stroke-width="3"/>
  </g>
  <rect x="2.7" y="116.25" width="98.26" height="38.62" rx="9.87" ry="9.87" fill="#f1b40c" filter="url(#uuid-5f32ef8d-1287-4af2-a660-b8bcb9de5320)"/>
  <rect x="129.3" y="117.4" width="202.26" height="36.42" rx="12" ry="12" fill="#f1b40c" filter="url(#uuid-1ed8f858-e164-4fab-aa20-ab69fa31eca1)" stroke="#fff" stroke-miterlimit="10"/>
  <path d="M130.46,123.33c-4,0-7.24,3.24-7.24,7.24,0,1.6,.52,3.08,1.4,4.28h0l5.84,10.12,5.84-10.12c.88-1.2,1.4-2.68,1.4-4.28,0-4-3.24-7.24-7.24-7.24Zm0,10.56c-1.76,0-3.19-1.43-3.19-3.19s1.43-3.19,3.19-3.19,3.19,1.43,3.19,3.19-1.43,3.19-3.19,3.19Z" fill="#fff" filter="url(#uuid-b27efc7a-387f-492a-873d-1a32ce3db895)"/>
  <g filter="url(#uuid-62b09199-137c-40e5-8c23-f90feec53afb)">
    <path d="M175.05,246.41c-4.09,8.01-9.82,15.04-16.74,20.66-5.45,1.95-12.44,3.53-20.56,3.28-5.44-.17-17.04-.69-28.04-8.8-4.99-3.68-8.45-7.88-10.81-11.48-1.71-2.61-2.84-4.9-3.56-6.44-.11-.24-.21-.47-.31-.67-3.12-6.87-3.79-12.58-4.56-19.24-1.35-11.63-.08-20.58,.33-23.15,1.43-9.12,4.35-17.37,5.54-20.54,.41-1.1,.79-2.21,1.14-3.33,1.39-4.39,2.41-8.9,3.75-13.3,.87-2.86,1.45-4.7,.65-6.52-.23-.52-.55-.99-.93-1.4,8.34-2.47,14.96-2.33,17.01-2.25,1.02,.04,2.06,.11,3.11,.22,.13,.89,.26,1.82,.38,2.78,1.09,8.19,1.38,13.65,1.63,16.63,.05,.59,.1,1.18,.17,1.77,1.47,14.22,6.17,26.46,8.63,32.14,1.65,3.8,3.37,7.16,5.11,10.17,3.69,6.37,7.5,11.18,11,15.38,.62,.74,1.22,1.46,1.82,2.17,2.38,2.82,5.7,6.47,11.09,9.13,2.07,1.02,6.13,2.97,11.74,2.93,.84,0,1.64-.05,2.41-.14Z" fill="#ff0"/>
    <path d="M158.3,267.07c-9.91,8.05-22.27,13.19-35.79,14.14h0c-3.98-.55-8.2-1.59-12.48-3.36-8.57-3.55-14.62-8.86-17.28-11.41-3.91-3.76-6.59-7.42-8.68-10.61-.63-.97-1.21-1.89-1.75-2.76-.72-1.15-1.38-2.27-1.98-3.35h0c-2.62-4.68-4.27-8.72-5.84-12.63-1.74-4.34-5.54-14.41-8.15-28.37-1.05-5.65-1.57-10.52-2.56-20.07h0c-.01-.16-.03-.31-.05-.47-.12-1.17-.24-2.31-.35-3.42,8.79-14.11,22.54-24.44,36.3-28.88,.43-.14,.85-.27,1.27-.39h0c.38,.41,.7,.88,.93,1.4,.8,1.82,.22,3.66-.65,6.52-1.34,4.4-2.36,8.91-3.75,13.3-.35,1.12-.73,2.23-1.14,3.33-1.19,3.17-4.11,11.43-5.54,20.54-.4,2.57-1.68,11.52-.33,23.15,.78,6.66,1.44,12.37,4.56,19.24,.09,.2,.2,.43,.31,.67,.72,1.54,1.85,3.83,3.56,6.44,2.36,3.6,5.82,7.8,10.81,11.48,11,8.11,22.59,8.63,28.04,8.8,8.12,.25,15.11-1.33,20.56-3.28Z" fill="#1b1464"/>
    <path d="M63.78,188.65h0c-1.24,1.78-2.17,3.53-2.98,5.08-.6,1.15-2.93,5.74-4.24,13.04-1.16,6.53-.93,11.98-.33,17.93,.68,6.77,1.68,12.73,2.59,17.29-3.18-7.6-4.93-15.94-4.93-24.69,0-12.11,3.65-23.16,9.5-32.54,.11,1.12,.23,2.26,.35,3.42,.02,.16,.03,.31,.05,.47Z" fill="#ff0"/>
    <path d="M122.51,281.21c-1.5,.11-3.02,.16-4.55,.16-18.52,0-35.21-7.86-46.91-20.43-1.85-1.99-3.57-4.09-5.15-6.29-2.81-3.91-5.19-8.15-7.07-12.65-.9-4.57-1.9-10.53-2.59-17.29-.6-5.95-.84-11.4,.33-17.93,1.3-7.3,3.63-11.89,4.24-13.04,.81-1.54,1.74-3.3,2.98-5.07,1,9.55,1.51,14.42,2.56,20.07,2.61,13.96,6.41,24.03,8.15,28.37,1.57,3.91,3.22,7.95,5.84,12.63h0c.6,1.08,1.26,2.2,1.98,3.35,.54,.87,1.12,1.79,1.75,2.76,2.09,3.19,4.77,6.85,8.68,10.61,2.66,2.55,8.71,7.87,17.28,11.41,4.28,1.77,8.5,2.82,12.48,3.36Z" fill="#fff"/>
    <path d="M180.17,202.36c-.28,1-.62,2.03-1.02,3.11-1.63,4.32-3.62,7.27-4.24,8.15-3.78,5.41-8.4,8.42-11.74,10.43-6.16,3.72-10.23,6.18-15.19,8.27-3.5-4.2-7.31-9.01-11-15.38,2.28-2.59,9.4-11.42,15.76-23.86,5.51-10.8,6.33-16.27,6.52-19.89,.02-.33,.03-.65,.04-.98,.02-.71,.02-1.41,0-2.1,.76,.63,1.5,1.29,2.24,1.96,8.61,7.83,15.5,17.99,18.64,30.29Z" fill="#1b1464"/>
    <path d="M182.03,217.31c0,10.48-2.52,20.38-6.98,29.11-.77,.08-1.57,.13-2.41,.14-5.6,.04-9.67-1.91-11.74-2.93-5.38-2.66-8.71-6.3-11.09-9.13-.6-.71-1.2-1.43-1.82-2.17,4.95-2.09,9.02-4.55,15.19-8.27,3.34-2.02,7.96-5.03,11.74-10.43,.61-.88,2.61-3.83,4.24-8.15,.4-1.07,.74-2.11,1.02-3.11,1.2,4.68,1.85,9.66,1.85,14.95Z" fill="#fff"/>
    <path d="M65.89,254.65c-1.27,.4-2.55,.79-3.85,1.18" fill="none"/>
    <path d="M159.3,172.21c0,.32-.02,.65-.04,.98-.19,3.62-1.01,9.09-6.52,19.89-6.36,12.45-13.48,21.27-15.76,23.86-1.74-3.01-3.46-6.37-5.11-10.17-2.46-5.68-7.17-17.92-8.63-32.14-.06-.59-.12-1.18-.17-1.77-.25-2.98-.54-8.43-1.63-16.63-.13-.95-.25-1.88-.38-2.78,12.38,1.24,26.63,6.95,38.24,16.66,.02,.69,.02,1.38,0,2.1Z" fill="#fff"/>
  </g>
  <path d="M182.29,274.84c-.03-.28-.03-.53-.09-.76-.1-.39-.23-.78-.36-1.16-.08-.26-.28-.36-.49-.38-.49-.05-.89,.08-1.09,.68,.1,.38,.19,.74,.27,1.06-.54,.96-.68,1.01-1.43,.5,.13-.44,.26-.89,.38-1.3-.23-.44-.5-.33-.77-.23-1.06,.37-2.13,.67-3.25,.75-.65,.05-1.3,.2-1.94,.31-.55,.1-1.09,.22-1.64,.28-.59,.07-1.15,.24-1.7,.53-.91,.5-1.84,.95-2.76,1.43-.38,.19-.77,.36-1.14,.57-.61,.34-1.15,.78-1.46,1.53-.06,.14-.17,.27-.28,.35-.07,.06-.21,.06-.29,.01-.07-.06-.12-.2-.15-.31,0-.07,.01-.17,.03-.24,.3-1.01,.73-1.9,1.52-2.46,.77-.55,1.52-1.17,2.5-1.01,.12,.02,.32-.16,.39-.31,.13-.25,.02-.75-.21-.98-.22-.08-.51-.19-.85-.31-.01-1.11-.84-.9-1.39-1.23-.1-.45-.24-.87-.59-1.23-.34-.37-.56-.93-.49-1.57,.02-.23-.01-.47-.02-.78-.42-.04-.78-.08-1.13-.12q-.4-1.18-.17-2.09c.23,.34,.43,.64,.65,.95,.8-.36,1.13-1.12,1.45-1.95-.17-.24-.32-.46-.48-.67-.27-.32-.54-.63-.77-.9-.14-.02-.22-.05-.28-.03-1.34,.41-2.67,.34-3.99-.12-.2-.07-.41-.06-.62-.06-.3-.01-.53,.13-.64,.5-.07,.23-.14,.49-.28,.64-.37,.42-.58,.84-.57,1.51,0,.49-.3,.98-.46,1.47,.17,.22,.34,.43,.16,.76-.14,.24-.33,.23-.55,.19-.34-.05-.68-.05-1.06-.07-.32-.75-.88-1.12-1.44-1.3-.24-.58-.43-1.06-.64-1.58,.17-.43,.44-.8,.78-1.16,1.24,.09,2.55,.38,3.47-1.1-.13-.94-.57-1.73-.65-2.62,.64-.51,.92-.65,1.54-.77,.27-.05,.55-.09,.82-.15,.25-.07,.44-.24,.53-.54,.1-.35,.28-.68,.1-1.15-.18-.14-.4-.34-.64-.49-.41-.27-.82-.26-1.14,.17-.7,.95-1.6,1.21-2.61,1.23-.89,.01-1.78,.12-2.72,.19-.02,.16-.04,.31-.05,.47,0,.2,0,.41,0,.55-.1,.11-.15,.18-.2,.22-.74,.55-.86,.87-.64,1.83,.09,.39,.21,.78,.33,1.2-.3,.21-.56,.4-.8,.57-.28,.83-.22,1.74-.57,2.62-.56-.54-.94-1.06-.83-1.92,.09-.74,.14-1.49,.24-2.22,.07-.45,.12-.95,.32-1.31,.51-.93,.54-1.83,.15-2.81-.14-.36-.1-.38,.08-1.15,.24,.34,.42,.65,.64,.89,.36,.4,1.32,.15,1.56-.37,.12-.24,.13-.49,0-.71-.17-.26-.38-.48-.55-.74-.15-.21-.27-.44-.44-.73,.34-.15,.59-.25,.84-.36,.23-.1,.3-.32,.3-.6s-.11-.47-.34-.55c-.49-.18-.99-.35-1.5-.53-.16,.1-.33,.25-.53,.32-.38,.14-.78-.11-.93-.54-.15-.44-.01-.97,.35-1.17,.22-.12,.46-.16,.77-.27,.1-.85,1.04-.96,1.24-1.86-.42-.99-1.08-1.7-1.85-2.25-.11-.44-.18-.84-.06-1.2,.4-.38,.77,.1,1.19-.07,.17-.15,.38-.34,.65-.58-.23-.4-.41-.75-.61-1.08-.23-.39-.33-.82-.29-1.3,.03-.32,.1-.65,.15-.97,.15-.83,.2-1.68-.14-2.45-.3-.68-.4-1.4-.45-2.15-.47-.02-.93-.03-1.4-.05,.11,.13,.22,.28,.34,.39,.72,.66,.88,1.5,.42,2.26-.43,.7-1.14,.81-1.84,.27-.13-.11-.26-.23-.42-.38-.44,.91-.63,1.94-1.51,2.46-.21-.56,.02-1.02,.06-1.48,.03-.31,.14-.54,.34-.74,.19-.18,.37-.37,.56-.55,.28-.26,.5-.54,.61-.98,.08-.33,.32-.61,.51-.95-.16-.1-.33-.21-.51-.31-.14-.11-.34-.18-.4-.33-.24-.55-.18-.97,.25-1.45,.48-.53,1.01-1.01,1.56-1.55-.05-.77,.01-1.55,.66-2.04,.64-.48,1.26-.19,1.81,.19,.3-.2,.54-.37,.79-.51s.51-.25,.77-.37c.29-.13,.58-.26,.87-.4,.25-.13,.5-.3,.76-.39,.25-.08,.51-.08,.8-.12-.05-.63-.08-1.2,.28-1.69,.34-.47,.83-.54,1.25-.65,.22-.87,.43-1.66,.63-2.43-.15-.25-.33-.46-.44-.71-.28-.66-.24-1.31,.15-1.87,.36-.52,.83-.74,1.39-.56,.2,.07,.39,.12,.58,.18,.39-.45,.8-.75,1.3-.85,.13-.02,.25-.12,.38-.19,.23-.13,.4-.34,.38-.67-.02-.27-.2-.44-.41-.51-.4-.14-.8-.26-1.2-.35-.36-.08-.67-.22-.88-.6-.09-.16-.19-.31-.31-.51-.44,.2-.82,.37-1.21,.55-.31,.15-.51,.41-.49,.85,.02,.35,.24,.47,.47,.58,.2,.1,.5,.13,.4,.64-.34,.09-.71,.18-1.07,.29-.67,.21-1.29,.42-1.67,1.29-.32,.76-.97,1.03-1.7,.82-.23-.07-.45-.18-.71-.28-.22-.54-.58-1.01-.69-1.59,.24-.57,.45-1.07,.66-1.56q-.69-.69-1.65-.37c-.06,.21-.11,.46-.19,.68-.1,.26-.21,.53-.37,.74-.65,.9-1.76,.99-2.52,.23-.77-.77-.91-2.08-.3-3.02,.2-.31,.45-.58,.7-.89-.68-.51-1.25-.22-1.82,.11-.07,.3-.12,.58-.19,.85-.22,.81-.68,1.34-1.35,1.61-.35,.15-.7,.32-1.05,.48-.47,.22-.89,.24-1.39,.04,.27-.22,.52-.41,.82-.66-.32-.4-.59-.76-.84-1.08-1.57,.09-2.82,.35-3.46,.71,.16,.23,.34,.43,.47,.67,.42,.76,.4,1.75-.04,2.46-.47,.74-1.22,1.03-1.94,.75-.74-.28-1.21-1-1.25-1.93-.02-.32-.01-.65-.01-1.06-.21,.04-.4,.06-.58,.09-.04,.38-.07,.69-.1,1.03-.19,.01-.33,.05-.46,.03-1.34-.19-2.67-.39-4.01-.59-.06-.01-.1-.1-.19-.18-.01-.54,.23-1,.46-1.46,.21-.42,.45-.84,.63-1.28,.09-.2,.06-.46,.09-.75-.76-.31-1.4-.17-2,.23-.14,.34-.24,.66-.41,.92-.41,.66-1.05,.81-1.67,.44-.61-.37-.89-1.24-.67-2.02,.21-.72,.83-1.18,1.49-1.04,.26,.06,.5,.25,.76,.37,.06,.02,.13,.01,.24,.02,.15-.16,.33-.34,.52-.53-.25-1.05-.88-.77-1.43-.65-.1-.26-.19-.46-.3-.73-.36,.17-.68,.31-1,.47-.66,.35-1.32,.71-1.98,1.09-.34,.19-.66,.44-.99,.65-.18,.12-.37,.28-.56,.3-.99,.08-1.87,.58-2.76,1.03-.8,.4-1.6,.79-2.48,.84-.09,.01-.18,.1-.26,.15-.33,1.52-1.04,1.86-2.07,.5-.34,.14-.69,.3-1.05,.43-.36,.14-.72,.29-1.09,.39-.37,.11-.75,.18-1.12,.25-.35,.06-.7,.28-1.1,.09,.18-.55,.5-.74,.88-.87,1.56-.52,3.13-1.03,4.68-1.58,1.69-.59,3.36-1.29,4.99-2.15,.03-.22,.04-.43,.08-.62,.04-.2,.12-.39,.18-.59,.05-.16,.27-.25,.18-.49-.21-.06-.4-.11-.66-.19,.52-.71,1.09-1.19,1.77-1.37,.62-.16,1.18-.47,1.74-.8,1.08-.66,2.16-1.31,3.23-1.98,.22-.13,.44-.26,.63-.44,.39-.36,.47-.98,.14-1.43-.24-.34-.57-.6-.85-.91-.14-.15-.27-.32-.42-.51,.34-.28,.62-.5,.94-.77-.43-.48-.87-.77-1.3-1.02-.28,.24-.48,.48-.73,.6-.2,.1-.47,.13-.69,.08-.49-.12-.78-.52-.87-1.11-.09-.52,.15-1.13,.53-1.39,.43-.28,.88-.27,1.27,.08,.19,.16,.3,.45,.46,.71,.43-.51,.85-.82,1-1.49-1.07-.44-2.13-.49-3.2-.66-.11-.42-.22-.81-.34-1.26-.27-.06-.54-.13-.8-.18-.24-.04-.49-.02-.72-.09-.44-.12-.58-.39-.64-1.12,.46-.3,.95-.61,1.43-.94,.32-.22,.53-.55,.51-1.01-.02-.3-.09-.59-.46-.56-.05,.14-.08,.3-.15,.44-.47,.91-1.14,.92-1.62,.03-.09-.16-.16-.34-.23-.48-.44,.05-.82,.13-1.19,.12-.79,0-1.5,.26-2.19,.67-.78,.45-1.57,.88-2.34,1.36-.75,.47-1.54,.72-2.38,.77-.26,.07-.53,.15-.79,.23h-.05c-.26,.09-.52,.17-.78,.25h-.05c-.4,.1-.8,.23-1.2,.26-.58,.04-1.17,.01-1.75,0-.61-.02-1.21-.07-1.77,.38-.32,.24-.72,.21-1.13,.17,.48-.63,.64-.75,1.42-.71,.32,.02,.51-.15,.74-.31,.39-.58,.97-.58,1.51-.65,.45-.06,.89-.09,1.38-.13,.01-.26,0-.46,.03-.66,.09-.55,.42-.75,.84-.49,.14,.09,.24,.27,.38,.44,.58-.46,1.19-.73,1.84-.86,.39-.07,.72-.28,.95-.69,.11-.21,.27-.38,.41-.57,1.52-2.06,3.16-3.97,5.07-5.52,.13-.11,.25-.26,.39-.4-.11-.34-.21-.64-.29-.9q.88-1.58,.68-2.52c-.69,.17-1.32,.48-1.94,.86-.82,.51-1.48,1.22-1.93,2.2-.1,.21-.22,.43-.35,.61-.13,.19-.43,.16-.54-.06-.09-.17-.18-.37-.19-.56-.02-.44,.15-.79,.47-1.04,.53-.44,.9-1.04,1.05-1.8,.03-.17-.02-.37-.03-.53-.41-.13-.67,.12-.95,.28-.52,.32-1.03,.67-1.56,.98-.34,.19-.7,.39-1.09,.13,.06-.32,.1-.65,.16-.96,.07-.31,.26-.46,.56-.4,.19,.05,.36,.21,.58,.04,.42-.33,.78-.69,.93-1.29,.02-.08,.06-.16,.06-.24-.02-.11-.05-.26-.11-.31-.07-.06-.23-.08-.28-.02-.58,.61-1.23,1.06-1.96,1.38-.45,.21-.88,.46-1.33,.68-.44,.22-.88,.45-1.38,.49-.47-1-.61-2.06-.71-3.16-.38-.04-.72-.07-1.12-.12v-1.12c-.17-.11-.28-.22-.41-.25-.39-.09-.62,.09-.67,.53-.09,.78-.12,1.58-.51,2.25-.35-.1-.63-.44-.77-.38-.49,.43-.78,.72-1.1,.94-.22,.15-.47,.13-.66-.13-.17-.22-.18-.49-.01-.79,.13-.25,.3-.47,.42-.72,.19-.39,.22-.78-.11-1.17-.87,.21-1.76,.41-2.52-.48,.16-.22,.31-.41,.5-.64-.16-.08-.29-.19-.32-.15-.2,.22-.41,.44-.55,.71-.12,.25-.17,.55-.24,.83-.07,.26-.21,.43-.44,.44-.19,.02-.35-.12-.37-.34-.08-.57-.52-.75-.78-1.11-.07-.09-.28-.12-.38-.06-.09,.06-.15,.25-.18,.4-.02,.16,.03,.32,.04,.49-.42,.42-.87,.73-1.4,.78-.4,.04-.76,.21-1.03,.55-.64,.8-1.45,1.08-2.33,1.2-.61,.09-1.22,.2-1.84,.3-.15,.25-.36,.23-.58,.21h-.04c-.52,.36-1.08,.45-1.66,.48-.38,0-.76-.1-1.15,.14-.03,.18-.05,.38-.08,.58,.02,.09,.05,.19,.07,.28,.26,.3,.54,.54,.94,.5,.14-.02,.29,.14,.43,.21l.05,.02h1.76l.06-.03c.13-.07,.26-.13,.39-.2,.55-.13,1.08-.29,1.63-.39,.49-.09,.6,.08,.57,.82-.17,.1-.36,.21-.55,.3-.97,.5-2.04,.73-2.96,1.43-.05,.04-.13,.03-.22,.04-.07-.11-.14-.24-.23-.41-.98-.08-1.91,.18-2.74,.84-.85,.68-1.76,.92-2.76,.86-.48-.04-.96-.02-1.44,.02-.29,.03-.52-.02-.79-.19-.66-.44-.88-.35-1.42,.35-.16,.21-.36,.37-.54,.56-.11,.12-.21,.25-.34,.42,.61,.43,1.22,.68,1.83,.64,1-.05,2.01-.07,2.97-.49,.16-.07,.34-.08,.51-.08,.48,.01,.96,.01,1.44,.06,.88,.1,1.71,.09,2.53-.43,.55-.35,.94-.12,1.4,.57-.1,.04-.2,.09-.3,.11-2.14,.51-4.31,.73-6.47,.97-1.04,.11-2.07,.19-3.1,.23-1.28,.05-2.56-.01-3.81,.41-.56,.19-1-.13-1.34-.61,.26-1.27,.74-2.21,1.74-2.69,.3-.14,.51-.43,.64-.86-.18-.91-.36-1.88-.55-2.82q.52-.35,.88-.23c.68,.22,.93,.1,1.25-.64,.26-.6,.34-1.26,.39-1.93,.04-.51,0-.97-.25-1.42-.17-.3-.24-.68-.35-1.02-.11-.35-.2-.71-.34-1.03-.26-.59-.55-1.16-.82-1.74-.07-.14-.16-.3-.16-.45,.02-.7,.02-1.41,.1-2.11,.05-.45,.36-.72,.75-.71,.3,0,.61,.08,.92,.12,.6,.09,1.18,.03,1.72-.32,.97-.65,1.92-1.32,2.47-2.58,.26-.61,.69-1.03,1.26-1.21,.75-.25,1.35-.79,1.95-1.37-.02-.45,0-.87-.06-1.28-.08-.64,.15-1.06,.59-1.33,.3-.18,.64-.28,.97-.38,.4-.12,.83-.14,1.21-.3,.38-.16,.69-.46,1.15-.38,.22,.05,.54-.17,.74-.38,.36-.38,.74-.78,.98-1.26,.83-1.63,1.9-2.97,3.12-4.15,.62-.6,1.09-1.27,1.09-2.21,.44-.49,.93-.68,1.41-.93,.41-.2,.82-.45,1.19-.74,.68-.5,1.31-1.09,1.99-1.57,1.24-.88,2.25-2.06,3.25-3.23,0-.94-.34-1.67-.75-2.34-.35-.56-.81-.64-1.23-.15-.35,.41-.66,.31-1.07,.17,.04-.29,.05-.53,.1-.77,.15-.69,.27-.83,.86-.82,.55,0,1.11,.05,1.66,.13,.7,.1,1.3-.08,1.78-.73,.09-.12,.15-.27,.21-.37,.33,.05,.57,.09,.85,.14,.27-.81,.95-.44,1.42-.68q.03-.75-.4-1.37c-.22,.06-.46,.1-.68,.2-.19,.08-.35,.25-.53,.37-.55,.37-.83,.41-1.49,.19,.4-.64,.89-1.15,1.34-1.7,.21-.25,.23-.45,.07-.77-.11-.21-.25-.4-.33-.63-.29-.74-.02-1.35,.65-1.41,.31-.03,.62,.03,.93,.04,.22,0,.45,0,.8,0-.41-.59-.82-.69-1.28-.62-.79,.12-1.58,.25-2.36,.37-.44,.07-.87,.13-1.33,.2,0,.46,.22,.68,.42,.89,.33,.33,.63,.71,.69,1.22,.06,.58,.32,.99,.61,1.41-.82,.52-1.12,.49-1.68-.14-.1-.11-.18-.25-.28-.37-.4-.43-.82-.42-1.19,.04-.25,.32-.37,.7-.34,1.14,.02,.37,.07,.74,.11,1.11-.16,.16-.28,.31-.42,.42-.42,.3-.83,.61-1.26,.88-1.18,.72-2.29,1.54-3.03,2.86-.57,.06-1.09,.12-1.6,.17-.2,.07-.39,.14-.58,.21l-.08,.03c-.18,.08-.37,.16-.55,.24l-.05,.02c-.12,.06-.24,.13-.36,.2-.02,.06-.06,.08-.11,.06l-.02,.07h-.06c-.06,.06-.13,.13-.19,.21-.09,.33-.18,.65-.27,.98,.11,.09,.2,.23,.32,.27,.12,.04,.28,.03,.4,0,1.05-.35,2.14-.5,3.14-1.05,.37-.2,.77-.32,1.15-.47,.34-.21,.8-.11,1.02-.7,.16-.41,.57-.37,1-.21-.1,.16-.15,.33-.24,.39-.25,.14-.51,.27-.78,.32-.28,.05-.37,.35-.56,.5-.1,.17-.2,.34-.3,.5-.3,.49-.5,.96-.2,1.59,.14,.28-.13,.6-.39,.47-.74-.38-1.41-.06-2.08,.25-.54,.26-1.05,.62-1.65,.64-.66,.39-1.36,.17-2.04,.18-.52,.73-1.06,1.44-1.8,1.85-.35,.19-.51,.54-.51,1-.01,.16-.05,.32-.08,.54-.47,.36-.96,.73-1.45,1.1-.26-.43-.11-.7,.08-.96,.15-.22,.36-.44,.21-.76-.17-.35-.47-.29-.74-.21-.3,.08-.63,.14-.88,.32-.98,.74-2.03,1.24-3.19,1.44-.15,.41-.28,.78-.43,1.19-.48,.14-.93,.02-1.42-.23,.16-.54,.42-.88,.84-1.03,.5-.17,1-.3,1.43-.67,.1-.1,.25-.13,.39-.15,.7-.12,1.3-.52,1.91-.92,.45-.3,.92-.57,1.39-.83,.56-.32,1.12-.63,1.58-1.17,.26-.3,.57-.45,.93-.46,.44-.02,.89-.09,1.34-.06,.36,.03,.58-.15,.78-.45,.27-.56,.54-1.13,.84-1.76-.78-.38-1.51-.47-2.27-.22-.29,.2-.58,.42-.87,.61-.24,.15-.53,.24-.73,.44-1.04,1.04-2.39,1.22-3.57,1.87-.06,.04-.2-.05-.25-.13-.04-.09-.06-.28,0-.34,.17-.24,.35-.51,.58-.66,.42-.28,.87-.49,1.31-.72,.19-.1,.38-.19,.56-.31,.23-.18,.36-.6,.27-.88-.1-.3-.31-.4-.57-.43-.44-.04-.88-.12-1.32-.18-.13-.07-.26-.15-.38-.22l-.05-.02c-.33-.01-.65-.01-.98-.02-.14,.17-.29,.33-.42,.51-.1,.15-.14,.38-.37,.31-.14-.53-.08-1.15-.4-1.61-.86,.04-1.64,.64-2.56,.42,.05-.24,.06-.45,.12-.63,.08-.22,.22-.42,.31-.64,.11-.29,.04-.62-.21-.73-.34-.17-.71-.26-1.06-.38-.19,0-.37-.01-.56-.01-.14,.42-.27,.85-.45,1.25-.18,.39-.41,.74-.64,1.15,.13,.06,.21,.12,.3,.15,.1,.02,.21,.01,.31,.03,.38,.1,.51,.41,.28,.82-.14,.27-.36,.49-.54,.73-.21,.28-.41,.57-.22,1.05,.16,.05,.35,.12,.55,.16,.24,.03,.48,0,.72,.06,.68,.14,.87,.54,.62,1.31-.18,.53-.38,1.06-.57,1.58,.04,.08,.09,.16,.13,.24,.05-.02,.08,0,.08,.06h.83c.09-.31,.17-.57,.25-.84,.16-.52,.48-.77,.93-.82,.52-.06,.94,.02,1.57,.35-.3,.44-.3,.45-1.53,1.01-.54,.25-1.09,.48-1.63,.72-.4,.24-.8,.49-1.2,.73-.24,.14-.54,.2-.74,.41-.62,.61-1.34,.83-2.09,1.04-.36,.11-.74,.19-1.1,.32-.33,.12-.73,.2-.95,.47-.63,.83-1.44,1.07-2.29,1.25-.07,.01-.14,.03-.2,.06-1.4,.74-2.84,1.28-4.3,1.8-.36,.13-.7,.34-1.06,.51l-.36,.18c-.09,.02-.18,.05-.26,.07-.45,.34-.94,.11-1.41,.18-.08,.02-.16,.05-.25,.07-.13,.05-.27,.11-.4,.16-.63,.16-1.27,.32-1.89,.48-.04-.16-.07-.24-.08-.32-.02-.12-.01-.25-.03-.37-.17-.98-.69-1.6-1.43-1.72-.67-.11-1.34,.36-1.69,1.17-.14,.32-.25,.65-.38,.96,.25,.42,.52,.79,.6,1.32-.64,.51-1.34,.66-2.07,.7-.63,.03-1.22,.14-1.8,.5-.49,.3-1.03,.4-1.62,.23,.06-.2,.12-.35,.16-.51,.03-.16,.08-.32,.08-.49,.02-.52-.43-.86-.78-.56-.33,.28-.59,.67-.88,1.03-.51-.08-1.05-.16-1.58-.25-.14-.02-.29-.06-.4-.15-.44-.37-.91-.3-1.4-.2-.26,.06-.53,.13-.78,.19-.79-1.83-1.59-2.48-2.68-2.21-.45,.12-.83,.39-1.14,.81-.41,.55-.5,.91-.6,2.56-.32,.26-.66,.07-1,.05-.26,0-.44,.24-.43,.57,.03,.53,.23,.91,.64,1,.34,.08,.69,.06,1.03,.05,.24,0,.48-.04,.72-.05,.22-.01,.45-.08,.69,.1-.75,.76-1.04,.93-1.79,.91-.97-.02-1.94-.09-2.9-.16-.1,0-.19-.08-.33-.16,.16-.38,.31-.74,.47-1.11-.31-.29-.61-.58-.91-.84-1.03-.88-2.9-.81-3.89,.18-.76,.76-1.64,1.16-2.57,1.52q-.21-1.81-1.17-2.97c.01-.3,.21-.66-.14-.87-.33-.2-.77-.17-.92,.22-.15,.4-.39,.53-.68,.66-1.25,.57-1.79,2.54-.82,3.94,.11,.17,.37,.27,.25,.66-.61,.25-1.15,.8-1.86,.91-.97,.16-1.88,.57-2.74,1.11-.18,.11-.37,.2-.58,.3-.14-.44-.25-.82-.38-1.22,.31-.32,.56-.71,.89-.9,.42-.24,.89-.32,1.38-.47-.1-.38-.23-.66-.5-.81-.3-.16-.6-.14-.91-.03-.87,.28-1.73,.56-2.6,.86-.26,.09-.54,.19-.77,.37-.31,.24-.6,.54-.86,.87-.1,.13-.17,.44-.11,.57,.34,.73,.01,1.57,.33,2.21-.33,.68-.62,1.27-.93,1.9-.6-.1-.97-.89-1.62-.92-.07,.56-.14,1.09-.2,1.59-.96,.02-1.53-.11-1.63-.38,.08-.23,.17-.49,.26-.74-.62-.49-.83-.43-.97,.28-.07,.31-.03,.67-.33,.87-.2-.17-.38-.36-.59-.5-.63-.41-1.33-.27-1.81,.33-.5,.62-.57,1.53-.16,2.29,.14,.28,.33,.52,.52,.83,.19,0,.39,.01,.6-.01,.2-.01,.41-.08,.61-.08,.18-.01,.39-.16,.55,.08-1.15,1.11-2.21,1.48-3.26,1.12-.06-.56-.01-1.13,.03-1.71,.03-.4-.05-.74-.28-1.03-.24-.3-.44-.65-.89-.77-.46,.29-.97,.62-1.35,1.23,.13,.43,.25,.85,.36,1.21-.05,.12-.05,.16-.08,.19-.76,.97-1.78,1.41-2.75,1.93-.25,.13-.45-.11-.45-.46,.2-.21,.55-.23,.55-.73-.16-.22-.34-.47-.53-.71-.12-.14-.25-.26-.36-.37-.48,.1-.65,.51-.81,.94,.11,.2,.23,.41,.34,.61q-.87,.65-1.24,1.86c-.27,.1-.56,.22-.86,.32-1.53,.54-3.01,1.2-4.48,1.91-1.76,.85-3.55,1.61-5.33,2.42-.17,.08-.34,.14-.52,.14v.98c.62,.66,1.04,1.44,1.1,2.3,.1,1.38,.15,2.76,.16,4.14,0,.48,0,.96-.01,1.44,0,.35,0,.7-.03,1.06,0,.38-.02,.77-.04,1.16-.01,.23-.02,.46-.04,.7-.02,.36-.04,.72-.07,1.08-.02,.26-.04,.52-.07,.78-.2,2.48-.54,4.95-1,7.41v121.68c68.58-.07,137.16-.14,205.74-.21-1.37-3.27-3.67-8.61-6.75-15.11-6.01-12.67-8.74-16.55-11.57-24.43-1.6-4.44-3.64-11.32-4.6-20.41Zm-18.46-10.51c.13-.02,.3,.14,.42,.26,.1,.09,.15,.24,.24,.39-.35,.14-.65,.2-.91-.07-.06-.29,.02-.54,.25-.58Zm-10.57-37.76c.87-.03,1.59,.83,1.59,1.88,.01,1.08-.69,1.91-1.57,1.89-.86-.02-1.53-.8-1.55-1.81-.03-1.04,.68-1.94,1.53-1.96Zm-26.53-17.04c.66-.01,1.17,.61,1.18,1.41,.01,.8-.5,1.43-1.17,1.43-.65,.01-1.18-.63-1.18-1.41,.01-.8,.51-1.42,1.17-1.43Zm-8.26,7.73c-.24,.12-.59-.09-.57-.3,.03-.3,.25-.36,.44-.4,.2-.03,.39,0,.59,0,.03,.08,.05,.17,.08,.26-.18,.15-.34,.33-.54,.44Zm5.29-15.08c.5,.06,.89,.58,.87,1.18-.02,.59-.46,1.1-.94,1.11-.52,0-1-.58-.98-1.2,.03-.63,.52-1.14,1.05-1.09Zm-1.75,5.63c.52-.02,1,.55,1,1.17,0,.58-.42,1.13-.89,1.16-.53,.04-1.03-.49-1.06-1.11-.02-.61,.44-1.21,.95-1.22Zm-1.26,5.77c.34,.17,.62,.65,.62,1.16-.04,.11-.08,.31-.16,.49-.11,.26-.24,.5-.35,.75-.26,.58-.34,.56-.71-.03-.16-.26-.4-.45-.55-.71-.22-.37-.18-.93,.04-1.29,.24-.39,.72-.55,1.11-.37Zm-1.8-13.12c.41,0,.74,.34,.77,.82,.03,.46-.28,.91-.66,.96-.43,.06-.81-.36-.82-.89-.01-.49,.31-.89,.71-.89Zm-1.56,5.61c.38,.04,.7,.45,.71,.9,.01,.52-.35,.98-.76,.97-.43-.01-.78-.46-.76-.97,.01-.52,.4-.95,.81-.9Zm-2.42,6.41c.07-.43,.34-.73,.74-.71,.55,.03,1.09,.07,1.78-.28-.45,.29-.74,.48-1.04,.68-.02,.37,.15,.8-.2,1.12-.31,.29-.65,.37-.95,.15-.26-.19-.39-.58-.33-.96Zm-1.31,5.01c.26-.19,.56-.32,.85-.38,.43-.1,.89,.06,1.7,.51-.36,.18-.57,.3-.79,.39-.34,.13-.58,.33-.76,.74-.26,.57-.8,.59-1.13,.15-.3-.41-.26-1.13,.13-1.41Zm8.52-28.23c.35-.05,.67,.28,.7,.7,.02,.43-.25,.8-.6,.81-.36,.01-.66-.34-.66-.76,.01-.38,.25-.71,.56-.75Zm-6.26,3.8c.25,0,.51,.32,.51,.64,0,.34-.23,.63-.52,.62-.28,0-.52-.29-.51-.62,0-.33,.26-.64,.52-.64Zm-3.05-7.35c.12,.03,.23,.19,.42,.37-.21,.16-.32,.33-.45,.35-.17,.02-.31-.14-.3-.37,.02-.23,.14-.4,.33-.35Zm-1.72,5.59c.17,.02,.32,.2,.57,.37-.22,.22-.34,.42-.5,.49-.18,.08-.39-.2-.37-.45,.01-.23,.14-.42,.3-.41Zm-1.46,5.66c.15,.1,.23,.32,.39,.58-.25,.14-.41,.29-.58,.3-.19,.02-.35-.27-.32-.51,.03-.29,.3-.52,.51-.37Zm-18.32-34.42c.25-.37,.56-.45,1.04-.24-.22,.58-.45,1.03-.78,1.39-.26,.28-.54,.34-.86-.02,.14-.43,.37-.78,.6-1.13Zm-2.77,1.94c.06-.28,.25-.23,.42-.2,.1,.02,.19,.08,.49,.21-.43,.2-.57,.31-.72,.33-.18,.02-.22-.18-.19-.34Zm-5.09,21.46c.13,.14,.21,.37,.07,.54-.1,.11-.3,.21-.44,.17-.66-.16-.91-.73-.66-1.69,.4,.38,.72,.67,1.03,.98Zm2.86-21.3c.22-.46,.54-.69,1.06-.57-.01,.4-.01,.76-.05,1.13-.03,.36,.18,.5,.39,.69-.22,.45-.44,.89-.69,1.41-.17,.08-.39,.19-.7,.34,.03-.41,.06-.76,.08-1.14-.13-.15-.28-.31-.48-.52,.19-.17,.37-.32,.58-.5-.06-.27-.13-.55-.19-.84Zm-3.98,.71c.7-.24,1.37-.57,1.97-1.09,.08-.07,.18-.13,.27-.17,.3-.14,.65,.01,.81,.35,.13,.27,.08,.68-.16,.9-.49,.47-1.04,.82-1.71,.71-.5-.08-1-.15-1.77-.27,.32-.24,.44-.39,.59-.43ZM2.22,193.47s-.18-.16-.17-.24c.01-.37,.27-.44,.5-.53,.25-.11,.47-.1,.6,.45-.35,.13-.64,.24-.93,.32Zm14.01-5.38c-.16,.26-.38,.52-.62,.64-.91,.49-1.78,1.14-2.84,1.06-.86,.4-1.68,.24-2.48-.25-.02-.01-.06,.02-.12,.04-.05,.07-.14,.15-.18,.25-.48,1.16-1.33,1.65-2.32,1.89-1.04,.24-2.09,.46-3.26,.72,.01-.19,0-.33,.03-.42,.05-.1,.14-.19,.23-.24,1.63-.79,3.26-1.57,4.9-2.36,.25-.12,.51-.24,.74-.42,.47-.39,.93-.64,1.54-.46,.23,.07,.58-.05,.76-.24,.36-.35,.76-.56,1.17-.77,.72-.36,1.27-.99,1.76-1.65,.11,0,.18-.02,.24,.01,.29,.12,.62,.21,.69,.65,.09,.56,.03,1.1-.24,1.55Zm7.71-5.45c.05-.25,.13-.51,.38-.49,.08,0,.25,.27,.22,.33-.07,.2-.22,.37-.42,.68-.09-.19-.14-.29-.18-.39-.01-.04-.01-.09,0-.13Zm-2.74,35.41q1.03-.83,1.51-.39c-.4,.43-.82,.68-1.51,.39Zm3.56-33.37c-.08,.17-.21,.34-.35,.41-.51,.24-1.03,.51-1.56,.63-.58,.14-1.1,.4-1.62,.73-.79,.51-1.61,.94-2.42,1.42-.39,.23-.77,.35-1.24-.01,.64-.55,1.22-1.06,1.81-1.54,.43-.36,.93-.54,1.46-.53,.38,0,.76,.04,1.19,.06,.09-.16,.22-.35,.32-.56,.13-.27,.31-.43,.56-.51,.59-.19,1.19-.39,1.86-.61,0,.23,.05,.41-.01,.51Zm.61,31.86c-.12-.25,.02-.39,.18-.46,.19-.09,.4-.09,.59-.17,.32-.12,.65-.25,.95-.44,.6-.36,.64-.38,1.42-.04-.59,.64-1.8,1.06-3.14,1.11Zm5.61-2.15c.09-.17,.14-.4,.25-.45,.26-.12,.46,.04,.57,.43-.24,.18-.49,.19-.82,.02Zm16.67-38.64c-.06,.02-.13,.01-.2,.03-.6,.14-1.2,.27-2.07,.48,.25-.41,.32-.67,.47-.76,.54-.31,1.84-.52,2.6-.49-.44,.59-.49,.64-.8,.74Zm6.62-4.65c.51-.28,1.05-.42,1.6-.28,.16,.04,.27,.31,.45,.52-.97,.99-2.03,1.23-3.24,1.09,.24-.72,.69-1.06,1.19-1.33Zm-2.05,3.56c.61-.46,1.27-.4,1.88-.55,.6-.15,1.22-.22,1.85-.32,.19,.32,.36,.61,.55,.94-2.09,.33-3.31,.32-4.28-.07Zm10.07-.28c-.12-.1-.28-.25-.45-.38-.44-.35-.72-.31-1.08,.17-.2,.27-.37,.59-.58,.86-.21,.27-.37,.23-.81-.17,.22-.57,.44-1.15,.73-1.89,.86-.19,1.74-.39,2.62-.57,.09-.02,.19,.02,.31,.04-.25,.65-.49,1.27-.74,1.94Zm4.2-1.26c.04,.28-.29,.41-.55,.43q-.48-.82-1.36-1.2c.36-.55,.8-.92,1.36-1.07,.24-.06,.37,.02,.81,.42,.02,.49-.36,.87-.26,1.42Zm1.49,.01c-.13-.11-.21-.13-.25-.2-.09-.17-.16-.36-.25-.56,.27-.66,.74-1.09,1.17-1.56,.14-.15,.36-.19,.56-.26,.04-.01,.11,.07,.2,.14-.41,.85-.68,1.8-1.43,2.44Zm11.46-3.87c-.38,.18-.78,.3-1.16,.44-.34-.24-.32-.66-.46-.98-.14-.33-.38-.48-.68-.39-.39,.11-.68,.45-.66,.82,.02,.39,.11,.74,.45,.91,.15,.07,.29,.16,.51,.29-.84,.37-1.58,.34-2.33,.03-.04-.11-.12-.21-.14-.33-.06-.38-.26-.56-.56-.62-.17-.03-.34-.07-.51-.12-.25-.07-.46-.31-.4-.46,.1-.25,.29-.34,.51-.34,.17,0,.34,0,.51,.02,.5,.02,.93-.08,1.34-.5,.27-.28,.67-.45,1.03-.53,1.02-.2,2.02-.49,2.93-1.21,.2,.22,.37,.41,.6,.65-.18,.57-.25,1.17,.19,1.69-.36,.42-.79,.46-1.17,.63Zm8.97,37.43c-.89,.1-1.79,.22-2.68,.28-.97,.06-1.93,.01-2.89,.27-.52,.14-1.04,.06-1.51-.26-.38-.25-.68-.61-.62-1.18,.05-.57,.39-.85,.79-1.05,.09-.05,.2-.07,.3-.07,.68,.01,1.29-.24,1.87-.66,.05-.03,.13,0,.26,0,.04,.56,.09,1.13,.13,1.69,.67,.67,1.37,.8,2.13,.31,.92-.6,1.7-.18,2.56,.45-.17,.12-.25,.21-.34,.22Zm9.47-12.86c-.13-.23-.26-.36-.3-.53-.04-.19,.16-.38,.33-.34,.2,.05,.29,.24,.25,.45-.02,.13-.15,.24-.28,.42Zm2.16,18.95c-.14-.13-.25-.18-.28-.26-.06-.19,.03-.34,.18-.36,.07-.01,.22,.1,.23,.16,0,.13-.07,.26-.13,.46Zm1.21-20.45c.18-.06,.38-.02,.57-.02,.04,.42-.18,.54-.41,.59-.1,.02-.28-.1-.3-.2-.03-.1,.06-.35,.14-.37Zm.39,33.41c-.04,.12-.15,.22-.28,.39-.11-.18-.24-.31-.24-.42,.01-.12,.13-.28,.23-.33,.15-.08,.35,.17,.29,.36Zm-.01-18.54c-.14-.19-.25-.29-.29-.42-.04-.19,.08-.34,.22-.33,.11,.02,.26,.16,.28,.27,.02,.11-.1,.26-.21,.48Zm4.7-17.52c.04-.08,.16-.16,.24-.15,.07,.01,.12,.14,.21,.24-.1,.1-.16,.2-.24,.23-.13,.03-.28-.21-.21-.32Zm-1.47,5.44c.09-.02,.21,.12,.39,.24-.16,.17-.25,.34-.34,.34-.1,0-.19-.17-.29-.26,.08-.11,.15-.29,.24-.32Zm-1.64,5.68c.09-.02,.2,.12,.39,.25-.16,.16-.25,.34-.34,.33-.1,0-.19-.16-.29-.26,.08-.11,.14-.29,.24-.32Zm-.38,38.56c-.11-.15-.21-.24-.24-.36-.02-.06,.09-.22,.17-.25,.15-.05,.26,.08,.26,.26-.01,.09-.1,.18-.19,.35Zm.16-18.94c-.18,.01-.29-.17-.29-.41,0-.2,.2-.42,.34-.35,.13,.07,.22,.23,.4,.42-.2,.16-.32,.34-.45,.34Zm1.4,13.27c-.2-.01-.28-.23-.22-.44,.04-.11,.21-.27,.28-.25,.13,.04,.23,.21,.42,.41-.23,.14-.36,.29-.48,.28Zm.28-18.87c-.2,.02-.46-.23-.4-.43,.06-.19,.22-.34,.3-.46,.31,.02,.46,.25,.43,.51-.02,.23-.14,.35-.33,.38Zm1.19,32.06c-.07,0-.18-.11-.2-.19-.05-.16,.1-.35,.22-.29,.08,.04,.13,.16,.21,.27-.09,.09-.16,.21-.23,.21Zm.24-18.74c-.22,.08-.46-.23-.43-.51,.02-.24,.22-.48,.41-.41,.16,.06,.29,.25,.5,.44-.2,.21-.32,.42-.48,.48Zm.21-18.95c-.17,.08-.39-.19-.42-.43-.03-.24,.15-.48,.36-.5,.22-.02,.41,.17,.43,.55-.09,.1-.21,.31-.37,.38Zm1.15,32.21c-.18-.03-.3-.16-.32-.4-.01-.23,.11-.38,.29-.44,.19-.06,.41,.15,.43,.39,.01,.25-.19,.48-.4,.45Zm.23-18.82c-.25,0-.43-.23-.43-.56s.16-.54,.42-.56c.26-.02,.47,.19,.49,.49,.03,.35-.19,.63-.48,.63Zm.62-19.47c-.05,.16-.2,.34-.33,.4-.17,.07-.36-.06-.41-.28-.05-.22-.05-.47-.07-.7h-.01v-.02c-.83-.03-1.61,.32-2.43,.37-.13,.01-.24,.14-.36,.22-.77,.54-1.21,.64-2.44,.53,.82-.84,1.69-1.02,2.64-.77,.69-.8,1.58-.81,2.48-1.03,.04,.24,.07,.47,.11,.68h.01v.02c.2,.03,.39,.02,.58,.09,.19,.06,.29,.29,.23,.49Zm39.31,17.94c.18-.05,.33,.03,.39,.27,.01,.03,0,.07-.01,.14-.08,.03-.18,.08-.27,.08-.14,0-.29-.05-.29-.26,.01-.08,.11-.21,.18-.23Zm.95,3.31c1.07,.05,1.78,.94,1.78,2.14,.01,1.19-.81,2.13-1.8,2.1-.98-.02-1.79-1.04-1.73-2.19,.05-1.12,.85-2.1,1.75-2.05Zm-1.62,5.91c.88,.01,1.59,.86,1.58,1.89,0,1.03-.72,1.88-1.59,1.88s-1.58-.86-1.57-1.89c0-1.04,.71-1.89,1.58-1.88Zm-3,7.56c0-.94,.63-1.68,1.38-1.66s1.38,.81,1.36,1.7c-.03,.84-.65,1.58-1.34,1.6-.76,.02-1.4-.74-1.4-1.64Zm.89,5.64c0,.78-.54,1.41-1.21,1.38-.64-.02-1.1-.6-1.11-1.36,0-.8,.55-1.45,1.2-1.42,.58,.03,1.11,.68,1.12,1.4Zm-.92-21.2c1.03,.02,1.83,.98,1.83,2.22,.01,1.29-.83,2.3-1.89,2.28-1.01-.02-1.84-1.02-1.86-2.23-.01-1.26,.86-2.29,1.92-2.27Zm-1.59,5.96c.79-.12,1.6,.97,1.54,2.03-.05,1.05-.73,1.88-1.59,1.89-.91,.01-1.67-.85-1.67-1.94,.01-1.11,.72-2.08,1.72-1.98Zm-1.73,5.91c.89,.04,1.45,.87,1.4,1.79-.06,.93-.66,1.63-1.44,1.6-.77-.03-1.34-.76-1.34-1.71,.01-.91,.64-1.71,1.38-1.68Zm-.45,7.37c0,.78-.55,1.43-1.19,1.43-.65-.01-1.17-.66-1.16-1.45,.01-.78,.55-1.43,1.18-1.42,.65,0,1.17,.66,1.17,1.44Zm-2.58-15.21c.87,.01,1.57,.86,1.56,1.92-.01,1.07-.72,1.9-1.6,1.88s-1.59-.88-1.57-1.92c.02-1.04,.74-1.89,1.61-1.88Zm-.22,5.13c-.08,.1-.17,.22-.27,.29-.02,0-.16-.15-.17-.23,0-.08,.11-.16,.19-.26,.1,.08,.18,.14,.25,.2Zm-.26-7.53q-.32,.97-1.36,.85c.27-.58,.37-.65,1.36-.85Zm-1.19,8.32c.77-.01,1.39,.73,1.39,1.64s-.64,1.67-1.38,1.67c-.75-.01-1.39-.77-1.39-1.65s.63-1.66,1.38-1.66Zm-.53,6.89c.18,.8-.14,1.52-.78,1.76-.6,.21-1.18-.15-1.41-.88-.23-.71,.09-1.51,.74-1.78,.33-.14,.73-.09,.96-.54,.04-.07,.3,.02,.48,.04-.16,.48-.15,.73,.01,1.4Zm-2.58-14.61c.83-.03,1.47,.68,1.5,1.66,.02,.97-.6,1.8-1.38,1.83-.78,.03-1.48-.75-1.52-1.69-.03-.95,.61-1.77,1.4-1.8Zm-1.6,5.85c.67-.02,1.26,.67,1.28,1.48,.02,.84-.5,1.54-1.19,1.59-.71,.06-1.35-.68-1.34-1.54,.01-.8,.59-1.52,1.25-1.53Zm-.52,7.22c-.01,.69-.48,1.26-1.05,1.28-.64,.02-1.15-.56-1.14-1.3,.01-.7,.47-1.27,1.05-1.29,.62-.02,1.15,.58,1.14,1.31Zm-3.14-14.64c.46-.3,.92-.27,1.36,.09,.54,.44,.7,1.26,.36,1.97-.15,.32-.38,.58-.61,.92-.37-.08-.65-.11-.91-.22-.51-.21-.81-.67-.84-1.3-.04-.61,.17-1.15,.64-1.46Zm-1.01,5.62c.61,.02,1.12,.63,1.12,1.35s-.5,1.36-1.1,1.38c-.63,.02-1.2-.66-1.17-1.41,.03-.72,.57-1.33,1.15-1.32Zm-17.68,25.89s-.08-.19-.06-.2c.07-.05,.15-.09,.23-.11,.01,0,.05,.13,.08,.25-.08,.02-.17,.07-.25,.06Zm.21-18.63c-.2-.05-.35-.28-.33-.54,.03-.3,.28-.57,.49-.45,.16,.09,.27,.31,.35,.41-.02,.41-.26,.63-.51,.58Zm.3-18.8c-.27-.01-.53-.31-.54-.63-.01-.38,.28-.7,.6-.66,.27,.03,.5,.35,.48,.68-.02,.32-.28,.61-.54,.61Zm1.27-13.24c.58-.28,1.17-.5,1.76-.72,.25-.09,.53,.14,.53,.44,0,.5,.03,.95,.25,1.41,.17,.35-.27,.95-.57,.79-.78-.41-1.63-.25-2.49-.52-.14-.71,.04-1.17,.52-1.4Zm2.52,14.71c-.14,.15-.2,.26-.27,.29-.15,.05-.29-.02-.29-.22,0-.09,.1-.24,.16-.24,.11,0,.22,.09,.4,.17Zm-1.58-7.85c.03,.36-.25,.72-.55,.73-.28,.01-.54-.23-.58-.55-.05-.36,.19-.74,.49-.79,.3-.05,.62,.26,.64,.61Zm-1.06,38.34c-.15,.03-.31-.25-.24-.42,.05-.13,.19-.3,.27-.28,.13,.03,.23,.19,.43,.37-.21,.16-.33,.31-.46,.33Zm.29-18.67c-.33,.01-.59-.32-.57-.69,.03-.35,.25-.6,.54-.61,.32-.01,.58,.31,.56,.7-.01,.33-.25,.6-.53,.6Zm.94-8.67c.1-.05,.24,0,.36,.02,.01,0,.04,.08,.03,.1-.08,.11-.15,.24-.25,.32-.07,.05-.18,.03-.52,.08,.21-.3,.28-.46,.38-.52Zm.06,2.35c.04-.42,.21-.66,.48-.72,.3-.06,.55,.06,.7,.39,.08,.18,.13,.37,.22,.63,1.19-.4,2.35-.77,3.51-1.18,1.75-.63,3.5-1.3,5.25-1.95,.49-.18,.99-.36,1.52-.28,.38,.06,.65,.28,.86,.64,.36,.63,.24,1.44-.29,1.86-.47,.39-1.12,.25-1.47-.33-.13-.23-.21-.51-.34-.84-.27,.09-.53,.16-.78,.26-2.03,.85-4.09,1.56-6.22,1.95-1.24,.23-2.48,.45-3.65,.4,.07-.13,.18-.28,.24-.46,.03-.1-.04-.25-.03-.37Zm11.01,4.01c-.04,.65-.49,1.15-1.03,1.12-.54-.04-.98-.6-.95-1.22,.04-.64,.5-1.14,1.03-1.12,.54,.03,.98,.59,.95,1.22Zm-10.57,15.5c-.23,.02-.46-.22-.48-.5-.03-.27,.18-.56,.41-.58,.23-.01,.47,.24,.48,.51,.02,.26-.19,.56-.41,.57Zm1.36,13.09c-.16,.03-.31-.26-.24-.43,.05-.12,.17-.2,.33-.37,.09,.25,.19,.41,.19,.56,0,.09-.18,.22-.28,.24Zm.2-18.59c-.31-.03-.55-.37-.53-.75,.02-.38,.31-.68,.61-.66,.31,.03,.55,.37,.53,.76-.02,.37-.31,.68-.61,.65Zm1.49,13.23c-.18-.24-.36-.38-.42-.57-.07-.27,.19-.56,.42-.55,.2,.01,.42,.26,.36,.5-.05,.2-.2,.36-.36,.62Zm.13-18.75c-.38-.03-.68-.48-.63-.93,.05-.42,.36-.76,.7-.75,.38,0,.72,.43,.69,.87-.03,.46-.39,.85-.76,.81Zm1.43,13.11c-.28-.03-.5-.33-.48-.67,.02-.35,.25-.62,.53-.62s.54,.28,.55,.61c.01,.38-.28,.71-.6,.68Zm.27-18.65c-.43-.01-.8-.46-.8-.96s.37-.95,.8-.95,.78,.41,.78,.95-.36,.97-.78,.96Zm1.25,31.67c-.16,.09-.34-.1-.36-.32-.01-.24,.1-.43,.28-.43,.13,.01,.26,.17,.48,.31-.18,.2-.27,.37-.4,.44Zm.25-18.54c-.39,.04-.7-.24-.75-.67-.05-.49,.25-.92,.65-.93,.37,0,.67,.32,.7,.75,.02,.43-.24,.81-.6,.85Zm1.33,13.06c-.26-.01-.45-.23-.45-.54-.01-.36,.23-.62,.52-.57,.25,.03,.42,.29,.4,.6-.01,.31-.2,.52-.47,.51Zm.17-18.52c-.43-.03-.77-.46-.78-.97-.01-.55,.4-1.06,.84-1.04,.46,.01,.84,.5,.83,1.05-.01,.58-.4,.99-.89,.96Zm1.24,31.44s-.14-.14-.13-.21c0-.08,.1-.15,.19-.27,.07,.15,.15,.25,.14,.32s-.13,.17-.2,.16Zm.31-18.38c-.36,.04-.68-.31-.69-.75,0-.43,.32-.8,.67-.76,.31,.03,.58,.37,.58,.74,.01,.37-.26,.73-.56,.77Zm1.36,12.98c-.21,0-.38-.21-.37-.46,.01-.24,.13-.38,.31-.42,.2-.04,.42,.17,.44,.41,.01,.24-.17,.47-.38,.47Zm.2-18.43c-.46-.02-.82-.52-.78-1.08,.04-.51,.43-.89,.86-.84,.42,.05,.77,.52,.74,1-.03,.5-.43,.95-.82,.92Zm1.4,12.98c-.28-.03-.52-.36-.5-.69,.02-.33,.29-.62,.56-.6,.28,.02,.5,.33,.48,.68-.01,.35-.27,.63-.54,.61Zm.22-18.42c-.53-.03-.97-.59-.94-1.22,.02-.65,.48-1.18,1-1.16,.52,.02,.96,.58,.94,1.22,0,.64-.47,1.18-1,1.16Zm1.26,31.35c-.09,0-.18-.16-.27-.24,.07-.11,.13-.28,.22-.31,.08-.02,.2,.11,.39,.22-.16,.16-.25,.33-.34,.33Zm.25-18.37c-.37,.03-.74-.35-.77-.8-.04-.45,.28-.89,.66-.92,.39-.03,.73,.32,.76,.79,.03,.47-.27,.89-.65,.93Zm1.71,12.54c-.05,.23-.19,.34-.38,.32-.21-.01-.38-.29-.29-.53,.06-.16,.21-.27,.29-.35,.3,.04,.44,.29,.38,.56Zm-.18-18c-.51-.04-.9-.59-.85-1.18,.06-.54,.48-1.01,.91-1,.49,.02,.92,.56,.89,1.14-.02,.61-.46,1.08-.95,1.04Zm1.42,12.91c-.28-.04-.49-.33-.5-.66-.01-.39,.26-.73,.56-.71,.32,.02,.57,.35,.55,.73-.01,.37-.3,.68-.61,.64Zm1.49,12.84c-.07-.06-.19-.11-.2-.19,0-.08,.07-.18,.15-.33,.09,.12,.19,.19,.19,.27,.01,.08-.09,.17-.14,.25Zm.13-18.27c-.37-.04-.7-.48-.68-.93,.02-.55,.38-.93,.82-.88,.39,.05,.72,.47,.7,.91-.02,.5-.43,.94-.84,.9Zm1.53,12.87c-.21,.02-.4-.15-.44-.41-.04-.29,.17-.62,.41-.55,.16,.05,.3,.25,.4,.34,.01,.37-.16,.6-.37,.62Zm.17-18.32c-.51-.01-.91-.47-.93-1.09-.02-.65,.42-1.18,.96-1.18,.53,.01,.97,.59,.94,1.22-.04,.59-.46,1.05-.97,1.05Zm1.42,12.88c-.31-.01-.58-.35-.57-.72s.29-.69,.6-.68c.3,.01,.58,.35,.57,.72-.01,.36-.3,.69-.6,.68Zm1.4,12.9c-.06-.15-.14-.25-.12-.33,.01-.08,.13-.19,.19-.18,.07,.02,.16,.16,.15,.24-.01,.08-.11,.15-.22,.27Zm.26-18.33c-.38,0-.73-.4-.78-.85-.05-.48,.3-.98,.72-1.03,.4-.04,.81,.4,.83,.91,.02,.5-.36,.98-.77,.97Zm1.44,12.8c-.21,.08-.39-.14-.4-.41-.01-.26,.16-.54,.35-.49,.17,.05,.31,.23,.54,.42-.21,.22-.33,.41-.49,.48Zm.23-18.26c-.56,.01-1.01-.5-1-1.16,.01-.65,.47-1.16,1.02-1.12,.52,.03,.9,.53,.89,1.15,0,.63-.4,1.11-.91,1.13Zm1.46,12.8c-.33,.05-.61-.23-.62-.61,0-.4,.24-.71,.57-.7,.28,.01,.5,.28,.51,.63,.02,.36-.17,.64-.46,.68Zm1.34,12.92s-.21-.16-.2-.2c.05-.12,.13-.24,.22-.33,.03,0,.15,.14,.28,.25-.12,.12-.2,.25-.3,.28Zm.22-18.31c-.38,0-.72-.41-.73-.88-.01-.49,.29-.9,.68-.93,.38-.03,.74,.34,.79,.81,.05,.49-.33,1-.74,1Zm1.44,12.81c-.18,.08-.41-.19-.36-.43,.03-.16,.18-.41,.27-.41,.16,0,.31,.17,.56,.33-.21,.23-.32,.44-.47,.51Zm.2-18.24c-.5,0-.91-.48-.93-1.09-.02-.64,.32-1.13,.84-1.18,.55-.05,1.02,.42,1.04,1.07,.03,.65-.41,1.2-.95,1.2Zm1.39,12.77c-.28-.02-.49-.32-.47-.67,.03-.35,.27-.61,.55-.57,.28,.04,.5,.35,.48,.67-.03,.33-.28,.59-.56,.57Zm1.7-5.47c-.41,.02-.71-.34-.7-.84,.01-.44,.29-.78,.65-.79,.4,0,.71,.36,.7,.85,0,.44-.28,.77-.65,.78Zm1.38,12.88c-.2,.03-.4-.3-.3-.49,.08-.14,.26-.29,.38-.27,.12,.01,.21,.23,.37,.43-.2,.15-.32,.3-.45,.33Zm.25-18.26c-.47,0-.86-.45-.89-1.01-.03-.65,.33-1.13,.86-1.15,.48-.02,.86,.41,.88,.99,.03,.64-.35,1.16-.85,1.17Zm.94,12.24c-.01-.3,.18-.57,.43-.6,.24-.02,.47,.22,.48,.53,.02,.29-.18,.58-.42,.6-.25,.01-.47-.23-.49-.53Zm1,10.19c-.07,.03-.16,.11-.23,.09-.2-.05-.31-.32-.26-.56,.02-.05,.09-.13,.13-.13,.22-.03,.43,.3,.36,.6Zm-1.04-28.21c-.33-.4-.44-1.1-.22-1.61,.22-.48,.71-.75,1.15-.64,.5,.14,.85,.63,.85,1.24,0,.2,0,.48-.1,.59-.3,.37,.02,.67,.03,1.02-.11,.02-.26,.09-.3,.04-.4-.46-1.02-.17-1.41-.64Zm1.52,12.43c-.04-.45,.2-.83,.56-.85,.36-.03,.68,.3,.7,.71,.02,.4-.3,.8-.63,.8-.31,0-.59-.3-.63-.66Zm2.24,17.26c-.67-.56-1.59-1.66-1.84-2.27-.1-.25-.21-.57-.17-.82,.15-.89,.23-1.82,.68-2.59,.06-.09,.15-.15,.29-.29,.17,.32,.1,.65,.15,.95,.05,.32,.1,.65,.15,.98,.17-.11,.33-.25,.51-.33,.06-.02,.2,.06,.25,.14,.04,.08,.05,.26,.01,.33-.14,.22-.31,.4-.46,.6,.11,.26,.24,.51,.34,.77,.05,.1,.06,.24,.07,.36,.04,.7,.07,1.4,.1,2.11,0,.02-.05,.04-.08,.06Zm1.42-10.19c.16,.05,.3,.23,.39,.32,.02,.37-.14,.59-.35,.6s-.39-.18-.39-.44c-.01-.25,.17-.53,.35-.48Zm.21,8.09c-.35-.11-.45-.37-.49-.66-.06-.42-.07-.83,.12-1.21,.21-.42,.62-.46,.85-.05,.22,.41,.42,.84,.51,1.42-.36,.18-.7,.35-.99,.5Zm.94-13.27c-.01-.36,.19-.64,.47-.66,.31-.03,.59,.29,.58,.67-.02,.34-.25,.61-.54,.6-.29,0-.51-.25-.51-.61Zm2.39,15c-.19-.13-.38-.37-.46-.62-.23-.72-.39-1.47-.44-2.26,.3-.19,.65-.2,.69,.17,.1,.97,.41,1.8,1.02,2.78-.43-.02-.66,.04-.81-.07Zm2.88,3.66s-.21-.17-.2-.19c.05-.13,.12-.25,.22-.33,.02-.02,.14,.11,.28,.22-.12,.13-.2,.25-.3,.3Zm3.04-8.89c-.06,.01-.18-.1-.18-.16,0-.08,.08-.21,.14-.23,.06-.01,.14,.09,.26,.17-.1,.11-.16,.22-.22,.22Zm1.56,1.49c.19,0,.28,.19,.25,.46h-.67c-.02-.44,.22-.47,.42-.46Zm9.75,4.26c-.06,.02-.22-.16-.26-.28-.06-.21,.16-.42,.39-.39,.11,.02,.21,.13,.42,.28-.25,.18-.39,.33-.55,.39ZM4.89,188.83c.76-.39,1.54-.74,2.31-1.1,1.22-.57,2.44-1.13,3.67-1.7,.22-.11,.22-.12,.46-.66-.25-.17-.52-.09-.78-.1-.28,0-.55-.02-.83-.02-.27,.01-.54,.05-.81,.02-.53-.05-1.04,.02-1.53,.24-1.1,.5-2.25,.87-3.05,2.02-.15,.21-.38,.36-.6,.48-.43,.23-.86,.28-1.27-.12-.15-.61,0-1.06,.48-1.34,.52-.31,1.06-.59,1.59-.88,.3-.17,.58-.21,.9-.04,.45,.23,.85,.04,1.07-.43,.21-.45,.49-.66,.86-.82,.26-.11,.49-.31,.74-.45,.52-.31,1.04-.64,1.58-.91,.39-.2,.75-.42,1.02-.82,.13-.19,.28-.37,.42-.55,.32-.03,.64-.04,.94-.1,.21-.05,.37-.21,.21-.59-.39-.02-.8-.03-1.21-.06-1.25-.11-2.48,0-3.69,.44-.6,.22-.74,.17-1.53-.27,.07-.39,.7-.33,.5-.98-.84-.32-1.59-.21-2.18,.71-.04,.07-.1,.12-.14,.19-.2,.33-.46,.45-.8,.46-.73,0-1.45,.05-2.18,.12-.41,.03-.78,.14-1.16-.25-.12-.13-.27-.19-.41-.18v1.13c.03,.89,.03,1.77,0,2.65v6.76c.58-.39,1.18-.72,1.8-1.01,1.23-.56,2.41-1.23,3.62-1.84Z" fill="#f1b40c"/>
</svg>