<svg xmlns="http://www.w3.org/2000/svg" width="335" height="335" xmlns:v="https://vecta.io/nano"><path fill="#3d2264" d="M0 109h335v226H0z"/><path d="M45 205.5c.1.1.1.2.1.3-.1.2-.1.3-.4.2s.1-.6.3-.5zm-4.4 4.3c-.3-.1-.5.4-.3.5s.6-.4.3-.5zM20 215c.2 1.2 2 1 1.7 0s-1-.4-1.7 0zm-6-2c-.3.2-.8.3-.7.7s.8-.3.7-.7h0zm8.7 1.7h0zm0 0c.3 1.3 2.3.6 2.5.1s-1.6-.1-2.5-.1zm5.6-.8c.1.4.8-.2.7-.6-.3.2-.8.2-.7.6zm1.6-.4c1.5-.4 1.4 0 2-.6s-2.5.3-2 .6zm14.2-8c-1.8.1-2.3.7-3.6.6.1 1.4 1.7 1 2 .2.6-.2 1.5-.3 1.5-.8zm26.7-2.8c.3-.2.8-.2.7-.6s-.8.2-.7.6zm-2.3.7c.3-.2.7-.2.7-.6s-.8.2-.7.6zm-2.2-4c0 .4.4.8.8.8.5-.1.8-.4.8-1-.6 0-1-.4-1.6.1zm-19.4 9c-.4 1 1.6.7 1.3 0-.4.2-1 .2-1.3 0zm72.8-33.4c.3.1.5-.4.3-.5s-.6.4-.3.5zm-68 32.8c0 .5 1.2-.3 1-.7h0c-.4.2-1 .2-1 .7zm96.7-40.8c-.3-.1-.3 0-.4.2 0 .1 0 .2.1.3.1.1.6-.4.3-.5zM63 200.7c.6-.5 2 .7 2-.6s-2-.4-2 .6zm-5 5.3c1-.4 1.4.2 2.2.2.4-1.7-2.2-1-2.2-.2zm-14.4 3.8c.1 1 1.5-.3 1.5-1h0c-.7-.3-1.6-.1-1.5 1zm184.6-65.6c-.8.4-2 .5-1.8 1.3s2-.4 1.8-1.3zm-11.4 3.4c-.5-.2-1 .6-.5 1 .3.1 1-.7.5-1zm-107 37.2c1.6-.6 3-1.3 4.5-2.2l2.3-.7c.5-.3 2-.1 1.8-1l-4.6 1.3c-1.7.1-1.8.7-4 1.2l-2.3.7c-.6.4-2.4.2-2.2 1s2.7.1 4.4-.4zm99-35.6c-.4-.3-1 .7-.6 1 .3.2 1-.6.6-1zm3.4-.5h0zm34.5-8.4c.2.1 1-.6.5-1s-1 .6-.5 1h0zm-.8-.5c-.5.3-1.4.4-1.2 1s1.3-.4 1.2-1zM11 213.8c.6-.5 1.6 1 1.6-.4s-1.8-.6-1.6.4zm-9.6-7c-.2 0-.7.1-1.4.3v-2l4.4-1.4c.1-1.5-1.3-.3-2-.3l-2.3.7v-1l3-.7c1.6-.3.7-.2.6-.6s-1.7-.6-1.5.4c-.7-.2-1.4-.1-2 .1v-2c.8-.2 1.6-.3 2.4-.3.2-.6 0-1.6.8-2l.7-.3c.5-.3 1-.6 1.6-.7v.2l7.8-2.2c1.4.6 3.4-.8 4.7-1.3s4.6-2.2 7-1.7 3-.6 3.4-1.4c2 1.7 3.5.2 6-.5.5 1.3 1.4.3.4 1.6 1-.3 2.2-.8 2.8-.4s-.5-1.5 0-1.8.4 1.2 1 1 .6-.6 1-.7c-.5.2-.5-.2-.8-.2l-.2-.8c2.3 0 3.6-1.7 5.2-.7s.5-1.3 1.7-1.3c.3.5 1 .6 1.4.4.7-.1.7-.7 1.4-.8s2.6-1.2 4.4-1c.3-.4.7-.6 1-.7.5.7 2-.3 2.6.5s.7-.8 1.4-1 3 .3 4.7.4c.2-.4.6-.7 1-.8.5.2 1.2.2 1.7 0 1-.6 2.4-.7 3.5-1s1.8-1 2.7-.8c.2-.4.6-.6 1-.7.3.5 1 .2.8-.2s-4 1.5-5 .1c1.2-.3-.1-2 1-2.4s.3-.5.7-.6l4.3-1.3c.2 1.3 1-1.3 1.2.1s-2 .8-2.5 1.6-2.4-.7-2.2 1 1.2-1 2.3-.7c1 .2 2-.3 2.6-1.2.3-.7 2 .1 1.6-.5-.3.2-.7.2-1-.1.7-.7 1.6-.3 2-1.5.5 1.6 1.4-1 2.2.2s-2 .2-1.4 1.2l2.7-.8c-.1-.4-.1-.7.2-1s1.6 1 1.6-.4v-.4l3.4-1c1.8-.7.1-1.3.8-1.6s.5 1 .8 1.5-1 .5-1 1l2.7-.8c-1-1.4 1-1.3 1.5-2.5s3.3-.6 3-2c-1-.6-.7.4-1.5.8s-1 0-1.6.1l-2 .6-1.7-.4c0 1.6-1.5.5-2.6.8-.7.2-.7.4-.7.4-.1-.1-.1-.1 0-.2-.7.3-1.3.5-2 .6-.1-.1-.2 0-.4.1a10 10 0 0 1-2.1.1c-.5 1.2-1.5 2-2.8 2-.6-.4-.3-.6-.3-1.2l-8.4 3.2c-2.8.8-5.2.1-7.3 2.2-.7-1.5-3.6 1-4.4-.2l-9 2.5H48c-1.7.5-3.4.8-5.2 1h-.3c-1.7 1-3.5 2-5.5 2.4l-.3.3v-.2l-4.8 1.5.2.2c-.1.8 1.5 1.4.5 2s-1-.7-1.2-1.3-2 .8-3 .8l-1 .4-3.6 1 .3.3H23c-.3.4-.2 1-1 1s-3 1.2-4 .7c-.1 1-2.2.8-3 1.4l-3 1c-.6-1-2.7 1-3.3.2l-3.5 1c0 .1.1.2.1.3l-.8.2c0-.1 0-.2-.1-.2L0 196.7V0h335v112.5c-.2 0-.5 0-.6.1-.4.2-.3.5-.3.5h-1c-.1 0-.3.5-.6.7s-.7-.3-1.3-.1c-4.8 1.3-10 3-16.3 4.8-1 0-.8.8-1.8 1-4.7 1.5-10.4 3-13.4 4.4-8.2 2-15.2 5-22 6.5H276l-1.8 1c-.6.2-.5-.4-.8.2s-3 .4-3.2.5c-1.2.6-2.4 1-3.7 1.5-1 .2-2 .5-3 1-1.6.7-3 .8-4.7 1.4s-1.5.3-1.7-.3c-1.2 1.4-2.6 1.5-4.6 1.7-3.2 2-8.3 1.8-11.2 3.3-1 .7-1-.2-2 .2-4.4 2-8.8 2-14.2 4.6h-.8c-1 0-2.2.3-3.2.7-.3-.6-1-.1-1.2.3s-.8-.7-1.2 0-1-.1-.6-.7a162 162 0 0 0-15.4 4.9c-1.3 1-2.6 1.6-4 2l-1 .6c-.1-.1 0-.2 0-.3h-.5a7 7 0 0 1-2.5-.1c0 .3-.4.7-.6.6v-.2c-.5.3-1 .4-1.7.3-1.2.6-2.5 1-3.8 1.5-.4 1.5-3.4-.2-4.3 2-2 .1-4.2.4-6.2 1v.2h-1.2l-1.5.7c0-.2.1-.3.1-.4l-1 .2c-.3.6-1 .7-1.8 1s.1-.3.2-.5l-3 1c-.2-.3-.4-.4-1-.2s.2-.5.2-1l-5.4 1.6-.4.4 5-1.5c.3 1.5-2.8 1-3.8 2l-4.7 1.3c-8.5 2.5-16.3 5-23.3 6.4h-.2l-2 .4v-.2l-1 .3c-.3.4-1 .5-1.7.8l-1 .3c-.2.1-.3.3-.5.3v-.2l-.4.2-.2.3c-2.7 1-5.5 1.7-8.3 2a12 12 0 0 1-3.7 1.5c-2.7 2.2-5.5 3-10.2 4.3-.4.1-.8.4-1 .7-.6.4-1-.3-1 .4s1-.6 2.4-.3 3-1.8 3.3-.2c-1.4.8-2 .1-3.2.6s-.2 2-2 1.8c-.1-.2-.2-.4-.5-.2s-.4-.8-.8-1.5c-2.2.5-2.6 1.2-4.3 1.2l-2.7.8c-.7 0-2 1.2-2.4.3-.6.6-1.3 1-2 1.5-1 .6-1.2-.3-2 .2s-.3.1-.3.1a2 2 0 0 1-1.3-.1c-1.8 1-3 .8-5 2-.8.4-1.8.1-2.3-.6-1 1.4-2.3.8-3.5 2.3-.8-.1-1.8.3-2.7.2.3-.3.6-.6.6-1-.5.2-1 .2-1.6 0 .5 1-2 .3-1.4 1.3 0 .1.1.1.1.2l-.2.3c-.5.2-1 .3-1.6.1-.1.8-2.2.5-2 1.4a98 98 0 0 0-13 3 114 114 0 0 0-14.2 3.7c-1 .7-1.2-.3-2 .2s-4 1.6-5.5 1.2-.6.8-1.4.8c-2.8 1-3.6.8-5.8 1.7-.6.1-1.4.6-1.7.1s-.6 1-1.8 1-3.8 1-6 .5c-4 1-9 3-12.5 3.2L4 206c.1.5.1 1-.5 1H1.4zM161 161.6c-.4 0-.8.2-1 .5h1c.1-.1.1-.2.1-.3zm51.2-23c.3.2.5-.4.3-.5s-.6.3-.3.5zm-111 31.7c1.8.4 1.8-1.5 3.5-1l5.4-1.6c1.6-.8 1.7-.6 3-1.3 1.2-.2 2.5-.3 3.7-.2.3-.5-.3-1.5.8-1.5a1 1 0 0 0 1.1.9h0c-.1-.6.8-.6 1.5-.8s.8-1 1.8-1l2-.2c.6 0 1 .5 2-.1a32 32 0 0 1 7.4-1.8c1.8-.3 1.8-1 3-1s1-1.4 2.5-1.6 2-.6 2.4-.3 1-.8 2-.6l3 .4c2.5-1 3.6-1 6.6-2 1.2-.1 1-1 2.2-1l8.2-2 12-3 2-.2c3.6-1 7-2 10-3l2.8-.4c.4-.1.4-.4.7-.6l3-1.3 6.2-1.8c1-.1.6-1 1.8-1l3.5-1c1.2-1.3 5.4-1 6-3-1.5 1-1.7.6-3.5 1-3 1-6.2 2-9 3.5-1 .5-1-.4-2 .2s-2 1-2 .2-1 1-1.8 1.3c-.8.3-1.6.4-2.4.3-.8-.3-1.7-.3-2.5-.1a22 22 0 0 1-3.6.6c-1.2.2-.5.7-1 .8s-.6.8-1.4.8c-3.4.5-7.5 2-10.7 2.3s-7 2.6-9.6 3l-15 3.5c-2.2 1.3-3.7.8-5.8 2-.4-.3-2.6-.1-2.7.8a3 3 0 0 0-2.9 0c-3 1.5-6.3 2.5-9.6 3-1.3.1-1 1-2 .5s-.3 1-1.4 1-.8-.5-1.4-.5-2 1-2 .2l-.6.3c-.1.7-.4 1-1 .8-.3.5-.8.8-1.3 1-.8.1.3-1.3-1.4-.4h-.3c-.1.5-.7.5-1 .3l-2 1.4c0-.2 0-.4-.1-.6h-.1c-.4-.8-1 1.7-1.4.6s-1.5.3-1.5 1-1-.3-1.3-.5-1 .7-1.5 1c0 .5-.4 1-1 1-1.3.6-4 .5-3.7 2zm-71.5 17l-.6.5c.4 0 .6-.1.6-.5zm48.6-13.5c-.2 0-.3.1-.3.3h.1c.1.1.5-.4.2-.5zm18-2.4c.1.4.5 1 .5.3s.2-.6-.5-.3zm2-1c.2.4.2 1 .7 1s1-.6.4-1.4l-1 .4zm-1.6.4c1 0 1.2-.7.4-1.8-1-.1-1.4 1.8-.4 1.8zm-5 3.2a4 4 0 0 0 2.4-2c-1.2-.6-2 1-2.4 2zm-6.7 1.5c.2.6 1.2.3 2-.1h0c.3-1.4-2.3-.5-2 .1zm-4.7 9.5c-.2-1-1-1-2-.7s1 .8 2 .7zm-3 0c.3.1.3 0 .4-.2 0-.1 0-.2-.1-.3-.2-.1-.6.4-.3.5zm-4-4c.1.7.6.8 1.4.4l-.2-.8-1.2.4zm.8 4.8c1.2-.7 1 .4 1.6 0s.6-.6.6-1l-3 1c-2.2.5-.3.8 1 .1zm-2 1.5c2 1 .6-1.5 0 0h0zm-1.8-.3c.1.4.8-.3.7-.6-.3.1-.8.2-.7.6zm-5.2 2.4c.4.8 3.6-.8 2.2-1l-1.5.4c.3-.6.2-1-.7-1s-.4 1 0 1.7zm-2 .1c.6.3.7-.2.6-.6-.5.2-.5-.6-1-.5s-.3.8.3 1zm-2.6-.1c.2.1.6-.3.3-.5-.1-.1-.5.4-.3.5zm-1.3-.4c.7 1 1.4-.5 1.3-1.3-.6.3-2 .2-1.3 1.3zm-9-1.2c.3.2.5-.4.3-.5s-.6.3-.3.5zm-2 .6c0 .4.8-.3.7-.7-.2.2-.7.3-.7.7zm-3.2 5.2c.2 1 1.4 0 2.4-.3S50 193 50 192h0c-1 0-2.2.3-3 1-.3-.1-2-.4-2 .6zm-2.3-.6c0 .4.8-.3.7-.6-.3.1-.7.2-.7.6zm-.8-.2c-.4-1.2-1.6 1 0 0h0zm-6.3 3c2 1 .6-1.5 0 0h0zm-2.5-3.5c.1.1.5-.4.2-.5s-.5.4-.2.5zm-.2 4.3c.1.5 1-.2 1-.7-.4.2-1 .2-1 .7zm-2 .6c.1.4.8-.2.7-.6-.3.2-.8.2-.7.6zm-13.8 1l-1.2.3c-.2.2-.7.3-.6.7l1-.4c.3-.2.8-.2.7-.6zm2.3 1c-.1-.1-.5.4-.3.5s.6-.3.3-.5zm3.5-1c.3 1 1.7-.3 2.4-.3s2.4.2 2.3-.7c-1 .6-1.5 0-2.4.3l-2.3.7zm-8.6-1.3l4.2-1.3 2.4-.6c.5-.4 2-.2 1.8-1-1-.1-1.5.4-2.3.7s-1-.2-1.3-.1-.1.4-.3.5-1-.3-2 .2-2.6-.2-2.5 1.6zm-4.5 4l2-.6c.5-.4 2-.1 1.8-1l-2 .6c-.5.4-2 .1-2 1zm-2 1.8c.7-.3 1 .2 1.6 0s-2-.6-1.6 0zM4 199.3c2 .5 3.7-1.4 5.2-1 0-1.6-1.7-.1-2.6-.1l-1.8.4c-.1.3-.4.4-.7.6s-.1.1-.1.2zm5 1.5c-1 .3-1.3-.4-2.5.3s-2.6.2-2.6 1.2c1.7-.8 4 .1 5-1.5zm220-56c.3.2 1-.6.5-1s-1 .7-.5 1zM3.4 216.5c.3-1.3-2-.6-1.7.1s1 .2 1.7-.1zM2 220c-.7.3 2 .6 1.7-.1-.8.3-1-.2-1.7.1zm6.6-5.4c.1.4.7-.2.7-.6-.3.2-.8.2-.7.6zm143-48.4h0c-.3.1-.8.2-.7.6s.8-.2.7-.6zm10.2-2.6c.2-.1.3-.5-.1-.4l-1.6.5-2.7.8c-.7.3-1-.2-1.6 0s-2.8.7-2.5 2c2.8-1 6.4-1.5 8.5-3zm13-2.6c-.3-.2-.5.4-.3.5s.6-.3.3-.5zM208 150h0zm-34.4 11.2c-.3.2-.8.2-.7.6s.8-.2.7-.6zm38.4-12.6c.2-1 2.8 0 3-1.7-1 .4-4.6 1-3 1.7zm-90.7 33c-.3-.5-1 1.4-2.5 1.6s-1.5.5-3.5 1c-4 .3-9 2.5-13.6 3.6-1 .4-.4 1.6-1.7 1.7-1.4-.1-2.8.5-3.7 1.6-.3-.7-1-.7-1.8-.4-6.4 2-13.3 5-20.5 6 0 1.7 2.4.7 3 0 .1 1 1.4-.2 2-.2l14.6-4.7c1-.5 1 .5 2-.2.8-.5 1.7-1 2.6-1.2 1-.4 1 .5 1.7.3s1 1 2.2.3 1-1 2.2-1 2-1.2 2.4-.3-1.6.7-2.2 1c-.2.2-.3.3-.3.3 0 0 0-.1-.1-.2l-1.6.5c-1 1-3.2 1.2-4.4 2s-5 .7-5.2 2.4c2.7-1 6-1.5 8-2.8 3.8.6 8-3.5 12.5-3.2 1-.1.6-1 1.8-1s2.4-.2 2.2-1c-.8 0-1.5-.4-2-1-.1-.8 3.5-1 2-1.5s-2 .8-2.8.4-2.8 1.6-3 0a26 26 0 0 0 6.7-1.5c2.4-1.2 4.8-.4 5.7-2-.5 0-1-.2-1.3-.5-.6.1-1.4.6-1.7.1zm-.7 5.7l.8-.2c2.2-.5-1-1-.8.2zM223 146.2c.5-.3 1.3-.4 1.2-1-.5.3-1.7 1.4-1.2 1zM73.3 188.5c.5.5 1.6.1 2.3-.5-.2 0-.4 0-.6-.1-.8-.3-1.2-.2-1.7.7zM84 175h.1c-.1-.6-.2.1-.1 0zm-1-1.2c-.2-.2-.5.4-.3.5.1.1.5-.3.3-.5zm-58.2 16.7c1.3-1.2 2.4.1 4.4-1 0-1.6-2 .4-2.6-.5l-2.3.7c.1.3.4.3.5.7zm60.5-18.3l-.1-.1c0 .1.1.1.1.1zM82 174c.5-.3 1.3-.4 1.2-1 0-.1 0-.2-.1-.2-.1 0-.2.1-.4.1-.4.2-.8.8-.7 1.2zm43.7 10.3c.4-.2 1-.2 1-.7s-1 .2-1 .7zm6.2-1.8c.1.5 1-.2 1-.7-.4.2-1 .2-1 .7zm-2.7.8c.4-.2 1-.3 1-.7s-1 .2-1 .7zm4-12c.1.1.6-.3.3-.5s-.5.4-.3.5zM318.2 123l-5.8 1.7c-3 2-8.7 2.4-11.8 4.3-11.3 3.6-23.8 6.5-34.3 10.6a26 26 0 0 0-8.6 2.1c-.6.2-1.2.7-2 1h-1.6c-1.5.3-3 .8-4.2 1.6-6.5.7-15 4.8-21.5 5.5-.7 1-3 1.2-4.5 1.8s-2.3.3-4 1c-1 1-2.3 1.7-3.6 2.3-1.7.6-3.4 1-5 1-4.3 2.2-10.5 3.2-14.4 5.6-2.4.3-3.3 1-6.2 1.8l-7 2c-1 .7-2 1-3 1.3-.7.3-.7-1-1.7-.3s-.6-.8-1.4-.5c-1 .2-1.8.4-2.7.8-1 .8-1.8 1.5-2.8 2l-3.5 1c-1.3-.8-1.8.5-3-.4-2.3.7-4 .5-6.6 1.5.1.8-1.3.6-1.4 1.3s-.3 1-1 1l-2 .6c-.8.2-.2 1.2-1.4 1.2s-1.3 1-2.6 1.2-2.4.2-1.7 1.4.8-1 1.2-.4c2-1.2 5.3-1.6 7-3 .2 1 1.4-.2 2-.2l2.4-.7 4.2-1.2 2.3-.7c.8-.8 1.8.6 1.6-.5l4.3-1.2 17.4-5c1-.2.6-1 1.8-1 2.7-.6 5.3-1.5 7.7-2.7a7 7 0 0 1 3.5-.6c5.6-2.7 13.6-4 19-6 7.3-1 16.5-5.2 23.8-6.2 1-.1.7-1 2-1l3.4-1 1.6-.5c.4.1.8.3.8-.2l43.7-12.8c1-.1.7-1 1.8-1 2.8-1 6-1.5 8-2.8 4-1 6.6-2.7 10.7-3.6 1 .2 2.3.3 3.4.3 3-1 6.5-1.6 8.8-3s1.2 1 2.5.1l1-.3v-5l-15 4.4c-1 .1-.7 1-2 1zm-178 57.5c.7-.5 2.7-.3 2.6-1.2s-2.2.4-2.6 1.2zm-76 1.5c-.3-.1-.5.4-.3.5s.6-.4.3-.5zm61.2-2.7l1-.3c.3-.2.8-.2.7-.6l-1 .3c-.3.2-.8.2-.7.6zm2.7 4.3h0c.1.1.5-.3.3-.5s-.6.4-.3.5zm-80.3-1h0l-3.5 1c.5 1.7 3.2-.4 3.5-1zm70.5 5.2c-.3-.1-.5.4-.3.5s.6-.4.3-.5zm-29.5 10l1.6-.5c-.1-.2-.2-.5-.2-.8-.7.3-2 .2-1.4 1.3zm55-18.3c.1.5 1-.3 1-.8-.4.2-1 .3-1 .8zm-107.2 8c.7 0 3-.8 1.5-1-1.2.3-2.8 1-3.6.7-.1 1.4 1.4.2 2 .2zm-5 1c-.6-.3-1.5 0-2-.3-.2 1.4 2 1.3 2 .3zm68.5.2c-.1-.4-.7.3-.6.7.2-.2.7-.3.6-.7zm54.8-34c-.2-.2-.5.4-.3.5.1.1.5-.3.3-.5zm-67.5 43c.1.1.5-.3.3-.5s-.6.4-.3.5zm-14 4c.7.2 1.4.1 2-.2.3-1.3-2.3-.4-2 .2zm49-17c-.3-2-2.4-.1-2.2 1 1.2 0 1-1 2.2-1zm-62.8-2.4c.8-.3-.1-.6-.2-.8l-1.2.3c.1.7.6.8 1.4.5zm8.3-3.3c-1 .6-2.8 1.6-4 1 .4 3 4.4 1 4-1zm-1 3.2c.5-.2 1-.3 1-.7s-1 .2-1 .7zm79.5-14.4h0c.4.2 1-.7 1-.8s-1.4.6-1 .8zm-43 13c-.1-.4-.7.2-.7.6.3-.1.8-.2.7-.6zM38.8 190c-.5.4.1.5 0 0h0zm.5-3c0-.5-.5-.4-.4.1 0 .2.4.4.4-.1zm3.6-.2l2.4-.7c.6-.5 2.3-.2 2.2-1s-2 .3-2.7.8h0c-.6-.6-1.8 0-2.5-.1-1 0-1.8.6-2.2 1.5-.2.8 2-.3 2.8-.4z" fill="#fff200"/><g fill="#3d2264"><path d="M16.6 131l1-1.3h-.3l-1.7.8 2-2-1 .5-2 1.2-1.8 1q-.1 0 0-.2h0l-.7.8-10 12-2 3.2v5.7A131 131 0 0 1 13.1 135c.5-1 1-1.8 1.8-2.6l1.7-1.6zm5-7.2c-.5-.1-1 0-1.4.1.5 0 1 0 1.5-.1h-.1zm-5-3.8l2-3 .8-1c-.7 1-1.3 2-1.8 3-.1.2-.2.5-.3.8h.7l.8-1h.1v-.1h.1l.6-.8v.5.5h.5l2-2c-.3.6-.5 1.2-.6 1.8h.1c.7-.7 1.3-1.4 1.8-2.2 0 .3-.1.6-.3 1h.1l4-4c-.4.4-1.3 1.7-3 3.7l3-2.7-4.5 5c.5.5 1 1 1.4 1.6l.6-.7 3.4-4.5.3-.4c-.2.5-.4 1-.7 1.3l3-3.5A28 28 0 0 1 28 118h.1l.7-.4-1.4 2 1.4-1-2 3v.2l1.3-.5.5-.3-2.6 3a2 2 0 0 1 0 .2l1.6-.7a18 18 0 0 0 2.4-2.3l-.7 1-3 3.4h1l1.7-2c-.4.7-.7 1.4-1 2h.6L30 124c0-.2.2-.4.4-.7-.3.8-.5 1.6-.6 2.4 1-1.2 2-2.5 2.7-4 .8-1.7 1.5-3.4 2-5.2l.3-1.2v.6c0 .4.1.7.3 1-.1 1-.2 2-.1 2.8.6-1 1-2.3 1.3-3.5 0 .4-.1 1-.2 1.3a27 27 0 0 0-.5 3.2 11 11 0 0 0-.7 3h.2c.8-.7 1.4-1.5 1.8-2.5l-1.4 4.3.4-1c0 .1 0 .2.1.2h0l.8-1 1-1c.6-.4 1-1 1-1.8.4-1 .7-2 .8-3 .1-1.5-.3-3-1-4.4l-1-2.5c0-.4-.1-.8-.1-1.3l-.3-1h.2l.6 1.7.8 3.3h.2c-.1-1.2-.1-3.2-.1-3.5s0-1.2.1-.6.3 1.2.5 2c.3 1.4.7 2.7 1.3 4 .2-1.5.1-3-.3-4.6l-.1-.6.3 1L42 115v-2.6l1 4.4v-5c0-.8-.2-1.7-.6-2.4h.2c.3.3.8 1.6 1.2 4l.7 5h.1a9 9 0 0 0 .1-4.3 9 9 0 0 0-1.2-4.5h.1c.2.4.4.7.7 1l1.4 3c.4.8.7 1.7.7 2.6l.4 2c.4-.3.5-1 .5-2l-.5-3.4.3 1.2c-.3-2.7-1.7-5-4-6.6v-.2l-1-.6.5.2c2.6 1.3 4.4 2.7 4.6 2.7s.2-.1.1-.1v-.2l-2-2.5c-1-.8-2-1.4-3.3-1.6h.7c1 0 2 .1 3 .4l-2-1c1 .2 2 .5 2.8 1-2.3-1.2-4.7-2-7.3-2.4-1.5-.4-3-.2-4.4.5-.1-.5-.3-1-.4-1.6-1-2.3-2.5-4.4-4-6.3l1.4 2.4c-.4-.7-1-1.3-1.3-2l1.2 3c.1.2.1.4.1.6h0v.2-.2c-1-1.5-1.7-2.5-2.5-2.8l-3-1.5v.2c1.4 1 2.6 2.4 3.6 3.8l.4.5-1-.7h-.1c-2-1.8-4.6-2.6-7.3-2.3H23l-3.3.2c-1 .2-1.7.6-1.8 1h5l3.3 1 1 .3c-1.5-.3-3-.4-4.5-.1a12 12 0 0 0-4.2 1.1v.5l5-.4a16 16 0 0 1 4.4.1h.1-.1c-1-.1-1.7 0-2.6.1l-4.6 1H25l-2.5.5 3.8.6c.4.1.8.1 1.2.2H27a14 14 0 0 0-4.5.7l4 .4H28l-3.4 1H30v.4h-2.4c-.8-.2-1.7-.2-2.5-.2-1.5-.5-3-.5-4.6 0a7 7 0 0 0-2.8 1.2c-.6.4-1.2 1-1.5 1.7-.2.4-.5.8-.8 1l-.8 1h.4l-.7.6 4-2.4c-1 .6-1.6 1.4-2 2.3l-.2.3a11 11 0 0 0 2.9-1.3l3-1.2.7-.2c-1 .5-2 1-2.7 1.8l2.6-.6h1.8l-1 .5a21 21 0 0 0-4.7 3.1c-1.3 1-2.4 2.2-3.2 3.6.8-.3 1.5-.7 2.2-1.2l-.5.7-2.5 3h.2c1-.7 2-1.5 3-2.3-.7.8-1.3 1.7-1.8 2.6l.3-.1a7 7 0 0 1 .8-.2zm24.4-13.4c0 .2.1.3.2.3H41v-.2c0-.1.2-.3.2-.1zm-1 2.4c0 .4.1.8.2 1.2-.1-.4-.3-.8-.5-1.2h.3zm-12-5.2h1c.1 0 .1.1.1.2-.4-.1-.7-.1-1-.2zM18.8 126h2 .1c.1-.2.3-.3.4-.5H21l-2.4.4v-.3l2.5-.8.4-.2-1.6.2-1.4.1-1 1h1z"/><path d="M20.3 124h-.6-.3-.2c.3 0 .5-.1.8-.1h.3zm-4.3-2.8l-1 .1c-.1.2-.2.3-.2.5-.1.1-.1.3-.1.6v.1c.2-.1.3-.2.5-.2l.8-1zm7.2-1.4h0 0 0zm-3.2-.2h0v.1-.1zm7.5.4l.2-.4-.2.2v.2zm-13 3h.2.1-.2 0zm8-1.2l-.4-.3-.3-.2v.1c.1.2.4.3.8.4zm1-.6h.2l-.5-.6-.3-.5-.2.3c.3.3.6.5.8 1z"/><path d="M8.2 158.7a98 98 0 0 0 5.6-10l5.2-10.4 2.6-4.6-1 3 1.7-3c-.4 1.3-1 2.6-1.6 3.8l.5-.4c-.3.6-.6 1.2-1 1.8h0l1-1-1 2.3v.2l.8-.5h.4l-1.6 2.5 1.2-.7c.6-.6 1-1.3 1.4-2h.2c-.2.2-.4.4-.5.7l-2.8 4.6.4-.4c.2-.1.4-.2.5-.1l2-3c-.4.8-.6 1.7-.8 2.6v.2a21 21 0 0 1 1.3-2.6c.1 0 .2-.2.3-.4l-.2 2a19 19 0 0 0 1.5-3.2c.5-1.3.8-2.7 1-4 0-.3 0-.7.1-1 0 .2 0 .4.1.6l.2.6h.2c0 .7 0 1.3.2 2 .3-1 .5-2 .7-3.2 0 .3 0 .7-.1 1l-.1 2.3c-.1.7-.1 1.5-.1 2.2h.1c.5-.4.8-1 1-1.5l-.4 2.7.3-.5v.2l.5-.7.5-1c.3-.4.6-1 .7-1.4.2-.7.3-1.5.2-2.2 0-1.2-.5-2.3-1.2-3.2l-1-1.8-.3-.8c-.1-.2-.2-.5-.2-.8h.2c.1.4.2.8.4 1a26 26 0 0 0 1.1 2.4c-.2-.8-.3-1.7-.3-2.5v-.2c.1.4.3.8.5 1l1.2 3c0-1-.1-2.2-.4-3.2l1.4 2.5c0-.6-.1-1.2-.2-1.8l-.1-.2v-.2c0 .1.1.3.1.4l1.2 2.8-.6-3.4c-.1-.6-.3-1.2-.4-1.6l1 2.8c.5 1 .8 2.4 1 3.6h.2c.2-1 .1-2.2-.2-3.2-.2-1-.6-2.2-1.3-3l.4.6 1.6 2.2c.3.6.6 1.2.8 1.8 0 .5.1 1 .3 1.4.2-.5.3-1 .2-1.5-.1-.8-.3-1.6-.7-2.3l.4.7c-.5-2-1.8-3.5-3.6-4.4h.1-.5c1.3.3 2.5.8 3.6 1.4.1 0 .2 0 .1-.2l-1.8-1.4c-.6-.6-1.4-1-2.2-1h2.5L31 126l2 .5c-1.4-.6-2.8-1-4.2-1h-.6-.7-1.2l-.1-1.3v-.2c-.1-.6-.4-1-.7-1.6l-1-1.2a27 27 0 0 0-1.4-1.6l-.7-.8.6 1h0 0l-1-1.2c.3.5.6 1 .8 1.5l.3.5.5.6h-.2c-.2-.3-.5-.6-.8-1-.4-.4-1-.7-1.4-1l-1-.3H20l-.6-.2h-.1v.3h-.1 0 .1l.7.5h0c.7.5 1.4 1 2 1.6.1.1.2.2.3.2l.4.3c-.4-.2-.6-.3-.7-.4v-.1h-.2c-1-.7-2-1-3.2-1.2h-.7-.8c-.3 0-.5.1-.8.2l-.3.1-1.3.5c-.7.2-1 .6-1 1l1.4-.4.4-.1 1-.1h.6l2.5.2.8.2h.2-.5 0c-1-.2-2 0-3 .3l-1.6.4c-.2.1-.3.2-.5.2-.4.2-.7.4-1 .6h.2.6.3l2.6-.6c1-.3 2-.4 3.2-.4l-1.8.3-3.3 1.2 3.2-.3-1.8.8H20h.6c.5-.1 1-.2 1.4-.1h.1c-.5.1-1 .1-1.5.1-.1 0-.2 0-.3.1-.2 0-.5 0-.7.1-.8.2-1.6.5-2.2 1H19h1.4l1.6-.2-.4.2-2.5.8v.3l2.4-.4h1.3c.1 0 .2.1.1.2H22l-1 .3H21h-2c-.4-.1-.8-.1-1 0-.7 0-1.4.3-2 .7-.7.3-1.3.7-1.8 1l.2 1c0 .3.1.5.1.7v-.1l-.2.2c0 .4-.1.6-.2.7s-.2 0-.2-.2a3 3 0 0 0-.4 1v.1q-.1.2 0 .2l1.8-1 2-1.2 1-.5-2 2 1.7-.8h1l.5-.3h.1l-1 .6c-.5.3-1 .7-1.3 1l-1.7 1.6a12 12 0 0 0-1.8 2.6c-.1.2-.2.3-.2.4l1.5-1-.4.4-1.4 2.4 2-2a12 12 0 0 0-1.6 3.2v.4c.1.3.1.5.2.6l2.5-4.7-.5 1.5c-.1.5-.2 1-.2 1.4h.2l1.3-2.6v.4c.1.4.1.7 0 1 .6-.8 1-1.6 1.6-2.4h.1c-.1.4-.2 1-.2 1.3l1-1.8c0 .3 0 .5-.1.8h.1a45 45 0 0 1 2-2.7l.5-.7h.1c-.2.2-.4.5-.6.8l-1.2 2 .7-.7-.2.4-3 3-2 3.7-4.5 8A83 83 0 0 1 0 165.6v3l1.5-1.2a51 51 0 0 0 6.7-8.6zm21.4-29.2v.2l-.1-.2h.1zm-1.3.2l.1.1v-.2h.1l.3.8-.5-.7zm-15-1.5c-.2.3-.4.5-.4.7l-.4 1-.2.3v.2H12l-.3.4h.2l-.3.4 1.8-1.4-.2-1c0-.2-.1-.4-.1-.5z"/><path d="M13.7 130c.2-.1.3-.4.3-.7v-.1-.7l-.2-1-.3-1.2.2.7c-.4-2-1.7-3.5-3.5-4.4v-.2l-.8-.3h.7a16 16 0 0 1 3.5 1.6v-.2l-1.8-1.6c-.6-.5-1.3-1-2-1 .8-.1 1.6-.2 2.4-.1l-1.6-.5 2 .4a22 22 0 0 0-5.7-1c-.4-.1-.7-.1-1 0 .1-1-.1-2.2-.7-3-.8-1-1.7-2-2.6-3l.2.4-1-1c.5.6 1 1.3 1 2l.3.5H3c-.5-.7-1.2-1.3-2-1.7l-.7-.2v.6c.4.3.7.6 1 1H1l.4.3h-.2l-.3-.3H.8a6 6 0 0 0-.8-.5v3.2h1 0-1v1h.3c-.1.1-.2.1-.3.2v.7h.6l1.3-.2v.2H1l-.8.3H0v6.3c.3-.3.6-.7 1-1L0 127v2.4l.8-1.5-.8 2v.4l1.5-2.3-1.5 3h0l.4-.4-.4.8v.8l.5-.4-.5 1v1h.3.2c-.2.3-.3.6-.5 1v1c.2-.1.3-.2.3-.3.6-.6 1-1.3 1.5-2l-.3.7-1.5 2.3v1c.7-.7 1.2-1.5 1.6-2.3-.4.8-.7 1.8-.8 2.7.3-1 .8-1.7 1.4-2.3v-.6.5.1a5 5 0 0 1-.2 1.2c1-1 1.5-2.2 1.8-3.5.4-1.3.6-2.6.8-4v-1c.1.2.1.4.2.5 0 .3.1.6.2.8h.3c-.1.7 0 1.4.2 2 .2-.8.4-1.7.4-2.6v3.2c-.2.8-.3 1.5-.3 2.3h.2c.5-.6.8-1.3 1-2-.3 1-.4 2.2-.5 3.3l.2-.4h.1l.3-.7.6-1c.4-.4.7-1 .8-1.4.2-.8.2-1.6.1-2.4 0-1-.4-2-1-3h.2l-.6-2c-.1-.3-.1-.6-.2-1l.8 1.8 1.3 2.7c.1-1-.1-2-.4-3L10 128c0-.6-.1-1.2-.2-1.8l-.1-.2v-.2c0 .1.1.3.1.4L11 129a22 22 0 0 1-.6-3.6c-.1-.3-.2-.7-.4-1 .4.7.8 1.5 1 2.3l1 3.6h.2v-.2c.1-1 0-2-.4-3-.2-1-.6-2-1.2-3-.1 0-.1 0-.1-.1h.1 0q.1 0 .1-.1l.4.7a11 11 0 0 1 1.5 2.2c.3.3.5.7.6 1.2.1.2.1.4.1.5.1.4.1.7.2 1v.2c0 .2.1.2.2.2zm-6.4-2.8l-1-1.7c0-.3-.1-.5-.2-.8s-.2-.5-.2-.8H6l.5 1.3.8 2zm.3-3.6l.3.2c.2.4.4.8.5 1.2-.2-.5-.5-1-.8-1.4zM306 126l-.5 1 .4 1 .4.4.1-.6-.4-1.6zm5.2-1.8l-.5.7c-.1.1-.2.2-.2.3v.3c.1-.3.3-.7.5-1 .1-.1.1-.3.2-.4zm-4.2 1.2v-.7l-.3.3c.1.1.2.3.3.4h.1zm7 7.8l-.6-3-.5 1.8c-.2-1-.2-2-.2-2.8-.1.3-.2.7-.2 1l-.2 2.3c-.1.8-.1 1.5-.1 2.3q-.1.1-.2-.1c-.1-.1-.2-.2-.2-.4l.3 2.2 3.3 15.3a64 64 0 0 0 5.4 13.7l3 4.7c2 3 3.5 4.4 4.4 3.8.5-.2 1-.7.8-1.3.1-.3 0-.7-.2-1l-5.4-7.6c-3-5.4-5.7-14.3-8.4-26.7l-.4-1.8c-.2-.5-.3-1-.4-1.6l-.1-.7zm-8.3-8.4l-.8-3-.2-1c.2 1 .6 2.2 1.2 3.2v.2c.2-.3.4-.5.6-.8l-.2-1h-.1v-.3h-.1v-.5l.3.4s.1 0 .1.1l.8-.2-.4-2.7c.3.6.6 1 1 1.6h.2c-.1-1-.3-2-.6-2.8.3.2.4.5.4 1h.2c-.4-2-.6-3.8-.7-5.7a50 50 0 0 1 1.2 4.5l-.2-4 1.2 6.8 1.7-.1-.1-.7-1.4-5.5c-.1-.1-.1-.2-.1-.5.2.4.4 1 .5 1.4-.4-2.5-.8-4-1-4.5a33 33 0 0 1 1.9 5.3h.1c0-.3-.2-1.6.1-.8s.5 1.7.8 2.7h.2a12 12 0 0 1 .1-1.9l1 3.4h.2c.1-.5.2-1 .4-1.3.1-.2.1-.4.1-.6l.6 3.5c.1 0 .2.1.3.2a4 4 0 0 0 .3-1.5c0-1-.1-2.2-.3-3.3l.3 1 .8 4.4.7-1h0a11 11 0 0 0-.6-2.6c.3.8.6 1.5 1 2.2l.5-.5-.5-2.2c-.1-.2-.2-.5-.2-.8a9 9 0 0 0 1.4 2c-.1-1.6-.6-3.2-1.3-4.6-.8-1.6-1.8-3.2-3-4.7l-.8-1c.2.1.4.2.5.4v-.2a3 3 0 0 0 1 .4h.5 0c.6.7 1.3 1.4 2 2-.5-1-1-2.2-2-3.2l1 1 2 2.3c.5 1 1.2 1.7 2 2.5v-.3c0-1-.3-2-1-3l2.6 3.7-.5-1h.3l-.3-1.3c-.1-.4-.1-.8-.1-1.2 0-.7-.3-1.4-.7-2-.6-1-1.2-1.8-2-2.6-1.2-1-2.6-1.6-4-1.8l-2.5-1-1-.7-1-.4h0l1.6.6 3.2 1.4-2.8-2-.4-.4 2 .8c1.2.6 2.6 1 4 1.4-1-1-2.4-2-3.8-2.5-.2-.2-.5-.3-.7-.5l1 .5 3.7 1-2-1.7 4 1.8-4-3c-.7-.5-1.4-.8-2.2-1h.2c1.4.3 2.7 1 4 1.6l4.4 2.6h.1c-.8-1.2-2-2.2-3.3-2.8-1.3-1-2.7-1.5-4.3-1.7h1.3l3.4.8c1 .2 1.7.6 2.4 1 .6.3 1.2.6 1.8.8 0-.4-.4-1-1.2-1.5-1-.7-2-1.3-3-1.7l1.2.4c-2.3-1.4-5-1.8-7.7-1h-.1l-1 .4.5-.2c2.6-1.3 5-2 5-2s0-.2-.1-.1c-1 .2-2 .2-3.2.1-.8 0-2 .6-3.4 1.6h-.1l.5-.7c.6-.8 1.4-1.5 2.3-2l-2 1c.5-.5 1-1 1.7-1.3a27 27 0 0 0-5.6 3.8c-1.3 1-2.2 2.3-2.4 3.8l-1.4-.7a38 38 0 0 0-7.6-.7l2.8.4h-2.3l3 1 .7.3h-.2c-1.3-.3-2.6-.3-3.8.2l-3 1.4h.1a23 23 0 0 1 5.3-.5h.5l-1 .3h-.1c-2.7.5-5 2-6.4 4.4l1-1c-.7.8-1.4 1.7-2 2.7-.4 1-.6 1.7-.4 2l1.2-1.5c.5-.8 1-1.5 1.6-2.2l2.8-2 1-.7c-1.2 1-2.2 2-3 3.4-.8 1.2-1.4 2.6-1.7 4h.2 0c.8-1.5 1.7-3 2.8-4.3a22 22 0 0 1 2.8-3.3h.2c-.6.7-1.2 1.4-1.6 2.2-.2.3-1 1.7-2 4.2l2.8-3.2c-.5.7-.8 1.5-1 2.3l2.8-2.6c.6-.6 1.2-1.3 1.7-2 .1-.1.1 0 .2.1-.6.5-1 1-1.5 1.7-1 1.2-1.8 2.5-2.3 4l2.8-3 1-1.2.4-.4-.4.4-1.3 3.3h.1l2.2-2.7 1-1.3h.5l-.6 1-.7 1c-.7.5-1.3 1.2-1.7 2-1.3.8-2.3 2-3 3.5-.5 1-.7 2-.8 3 0 .8.1 1.5.4 2.2.2.4.4.8.4 1.3l.3 1.3v-.3h.1c0 .2.1.5.1.8l.5-4.5c-.1 1 .1 2 .6 3v.2a11 11 0 0 0 .7-3.1l.8-3 .3-.7a11 11 0 0 0-.2 3.2 23 23 0 0 0 1-2.4h.2l.6-.8.3-.6-.3 1.3a26 26 0 0 0-.4 5.6c0 1.6.2 3.2.8 4.7a11 11 0 0 0 .4-2.5c.1.3.2.5.2.8a54 54 0 0 1 .8 3.9v-.3c.1-1.2.1-2.5 0-3.7l.8 2.8.3-.7c.1-.2.1-.3.2-.5zm6-24.8l1 .5c-.3-.1-.6-.2-1-.2v-.2zm-1.2-2h.1 0-.2q0-.1.1-.1z"/><path d="M311.5 123.7l.4-.5h-.1c-.1.2-.2.3-.3.5zm1 2l-.1-.3-1 1.5h-.2l1-2.5-.1-.3-.7 1.2-1 1.3.2 1.4c.3-.4.6-.8 1-1l.8-1.2zm-1.6-4.8h-.7.1.6z"/><path d="M309.7 120.8c.2 0 .4-.1.6-.1l-.6-.2v.1.1zm-3 8h.1l-.1-.4-.1.2.1.1zm.3-6.6c.2.2.4.3.5.5h0l-.1-.8-.4.3z"/><path d="M310.6 121c-.2.1-.4.2-.5.1l-.3.1v.2c.3-.1.6-.2.8-.3zm-.2 12.4h0l.4.8c.1.3.2.7.4 1h.1c0 .2.1.3.1.5v-2l-1-.4h0zm-4-11.4h-.1.1 0zm21.7 8.6v-.1.1h.1z"/><path d="M306.5 122h-.2v.3.3h.1l.5-.3.4-.3.5-.3-.5.1-.8.2zm9.5-96.7h.1v-.1c-.1 0-.1.1-.1.1zm-.6.2v.2l.3-.2c0-.1.1-.1.1-.2l-.4.2h-.1zm-.2 3.3v-.4l.3-.6h0l-.5.6c.1-.4.3-.7.5-1l-.3.3-.5.8-.5.8h-.1v.4l-2 6.3c0 .2 0 .5-.1.7h1.3a60 60 0 0 1 1.5-6.2l-.1-.2.1-.3v-.3l.3-1zm-.8-4.6h-.1.1 0zm2.2-.7h.1l-.3-.2-.1-.1v.1l.4.2z"/><path d="M310.8 17l.7-.3 1-.5 1.4-.2h.5c-.6.1-1.2.4-1.7.7-.6.3-1 .7-1.5 1.2h.1l2-1 1.7-.7h.1l-1 .5-1.6 1.2 1.7-.7-1 .7 1.6-.4 1-.4h.1l-1 .4c-.6.2-1.2.5-1.6 1l1.6-.6.4-.2-1 1h.1l1.4-.6h.6c-.1.1-.2.2-.4.2l-.4.3-1 .3c-.6.1-1.2.4-1.7.8-.4.3-.6.6-1 1-.2.3-.3.6-.3 1 0 .2 0 .4-.1.6-.1.1-.1.3-.1.5h.1c0 .1-.1.2-.1.4.3-.6.7-1 1-1.6-.2.4-.4.8-.5 1.2v.2l1-1 1-1 .2-.2a8 8 0 0 0-.7 1.2l1-.7h.1l.4-.2-.2.2c-.5.6-1 1.3-1.2 2-.4.6-.6 1.2-.6 2l.6-.8c0 .1-.1.2-.1.3h0l.3-.3h.1l.3-.2h0V23h0v.7l.2-.1h.3 0c.1-.1.1-.3.1-.4v.2l.1.2.4-.1c0-.1.1-.2.1-.3l-.2-.1h.2l.2-.6c0 .2 0 .4.1.6h0 .1c.1-.1.1-.3.2-.4h0 0c.1-.2.1-.4.2-.6v.5l1-2.3-.5 2c.3-.5.6-1 .8-1.5-.3.7-.5 1.4-.8 2.2l.7.3h0l.4-1.8c.2-.6.4-1.2.5-1.8l-.3 2.3h.1c0-.1.1-.2.2-.3l-.3 1.2h.1l.4-.7-.3 1.5h.1l.3-.3-.2.6h.1s.1.1.1.1h0l.5-1.3c0 .2-.1.3-.1.5 0 .1-.2.6-.3 1 0 0 0 0 0 0h.1l.2-.1c0-.2.1-.3.1-.5v.4h.4l.1-.2c0-.1 0-.2.1-.3 0 .2 0 .3 0 .5h.2c.2-.5.3-1 .2-1.5 0-.8 0-1.5-.1-2.3-.1-.1-.1-.3-.1-.5 0 .1.1.2.1.3.1.2.1.3.2.3h.1c.1.4.2.8.4 1 .1-.5 0-1-.1-1.6.1.2.1.4.2.6l.3 1.3c0 .4.1 1 .2 1.3h.1c.2-.4.3-1 .3-1.3l.2 2v-.4c.1-.1.1-.2.2-.5s.1-.4.2-.5c.1-.3.1-.6.1-1 0-.4-.1-1-.2-1.3-.3-.6-.7-1-1.2-1.5l-.7-.8-.3-.5-.2-.3.5.5 1 1.2h.1l-.7-1.4v-.2l.5.7 1.2 1.3c-.2-.5-.4-1-.7-1.4l1 1c-.1-.4-.2-.7-.4-1l1 1.5-1-2c-.1-.3-.3-.6-.6-.8h.1c.5.3 1 .8 1 1.3l1 2h.1c-.1-.6-.3-1.2-.7-1.7-.3-.6-.7-1-1.2-1.5h.1l.4.3 1 1 .6 1 .5.7c.1-.3.1-.6-.1-.8a6 6 0 0 0-.8-1.3l.4.4c-.6-1-1.6-1.6-2.6-2 .7 0 1.3.1 2 .3l-1.2-.6H321l.4-.2 1.2-.3h.3c-1-.1-2 0-3 .2-.7.1-1.3.5-1.7 1l-.4-.6a14 14 0 0 0-2.6-1.7c.4.2.7.4 1 .7l-.8-.5 1 1 .2.3h-.1c-.4-.3-1-.5-1.4-.6h-1.4c.7.2 1.4.4 2 .8l.2.2-.5-.2h-.1a4 4 0 0 0-3.2.4l.5-.2-1.2.6c-.4.3-.5.5-.5.7zm6.6 4.3c0-.1.1-.2.1-.3 0 .1 0 .2-.1.3z"/><path d="M313.8 24.4v-.1h0l-.4.2h-.1l-.2.2a9 9 0 0 1-.4 1.2h.1c.3-.4.5-.8.7-1.3l-.1.4h.3l.1-.5zm-.4 1.2l-.1.1v.2h.1l.1-.3h-.1z"/><path d="M313.5 25.5v.1-.1h0z"/><path d="M313.5 25.3c0-.1.1-.1.1-.2h.1c0-.1 0-.1.1-.2h0-.3-.1v.2c0 .1 0 .1 0 .2.1-.1.2-.1.2-.2z"/><path d="M313.4 25.6h.1 0v-.1l-.1.1zm5.8-1.3h-.4l-.1.1-.2.1h-.1l-.1-.2c0-.1 0-.1-.1-.1h-.1V24h-.1l-.7-.4h0l-.7-.3h0l-.4-.2.4.3-.6-.3h0 0l.5.4.1.1.1.1.3.2h-.1l-.4-.2h0l-.6-.2h-.1-.5l.2.1.8.3h-.2-.7c-.1 0-.2 0-.4.1h-.2 0-.3-.2 0 0l-.3.2h-.1l-.3.3-.1.1c-.3.2-.4.4-.3.5l.3-.2.2-.2h.1l.4-.2h.1l.4-.1h.1l.6-.2h.4c-.5.1-1 .4-1.3.7l-.4.4h-.1c0 .1-.1.1-.1.2s-.1.1-.2.2-.1.1-.1.2h.1s0-.1.1-.1c0 0 .1 0 .1-.1h0l1-.7c.3-.3.7-.5 1-.7l-.6.4c-.3.4-.7.7-1 1l1.2-.6-.6.6 1-.5h.1.2-.3c-.3.1-.6.4-.7.7l.5-.3.5-.3.4-.2-.2.2v.1l-.3.3-.4.2c-.3.1-.6.3-.7.6-.2.2-.4.4-.5.7.1.1.1.3.2.4v.2c.1.1.1.2.1.2-.1.2-.1.4-.1.7h.1l.5-.8.5-.8.3-.3c-.2.3-.4.6-.5 1l.5-.6h.4l-.1.2-.3.5-.3.6v.4l-.3 1v.6l.4-.6v.2c0 .5-.1 1-.1 1 .2-.3.4-.7.5-1-.1.5-.1 1-.1 1.5v.4c.1-.7.2-1.5.2-2.2 0 .3.1.5.1.7s0 .4.1.5h.1c.1-.4.1-.8.1-1.2l.2.4c.1-.4.2-.7.2-1h.1c.1.1.1.3.1.5.1-.2.1-.5.2-.8s.1.2.1.3l.4-1.8-.2 1.4c-.1.8.1-.3.2-.4v.2l-.3 1.6c-.1.6-.1 1.2-.1 1.8L317 36v.4h.8c0-.3 0-.5.1-.8-.1-1.4 0-2.7.1-4 .1-.8.1-1.5.2-2.2v.7l.2-1.5c.1.6.1 1.2 0 1.8.1 0 .1-.1.2-.3s-.1.6-.1 1h.1c.1-.2.1-.4.2-.6v1l.2-.3h.2c-.1.4-.2.8-.2 1.2l.3-.4c.1-.3.2-.7.2-1h.1c-.1 0-.1.2-.1.3l-.3 2.2q.1-.1.1-.2h.2c0-.3.1-.8.2-1.5 0 .4.1.7.2 1 0-.4 0-.8.1-1.2V31c0 .2.1.5.2.7.1-.5.1-1 0-1.5 0-.6-.1-1-.3-1.6-.1-.1-.1-.3-.1-.5 0 .1 0 .2.1.3v.2h.1c.1.3.2.5.4.7-.1-.4-.1-.8-.2-1.2s.1.3.1.5l.3.8.4 1c.1-.3.1-.6 0-1l.4 1.4v-.3h.1v-.4c0-.2 0-.3.1-.4V29c-.1-.8-.6-1.5-1.3-2l-.6-.5-.3-.3-.2-.2h.1l.3.3.8.7-.5-1 .3.4 1 .8c-.2-.4-.4-.8-.7-1l1 .7-.5-.8c.3.4.7.7 1 1l-1-1.2c-.1-.2-.2-.4-.4-.5.4.2.7.5 1 1l1 1.2c0-.5-.2-1-.6-1.2-.2-.4-.6-.8-1-1h.3l1 .7c0 .1.4.2.6.5l.4.5c0-.2 0-.4-.2-.6-.1-.3-.2-.5-.4-.6-.5-.6-1.2-1-2-1h1.6l-1-.2c-.2-.2-.4-.2-1-.1l.8-.4h-.6l.8-.2-1.3.2h-.6zM316 27h0 .1-.1zm.4-1.6h-.2l-.2.1.3-.2h.1l.3-.1-.2.3zm.3-.3h.2q.1 0 .1.1h-.3zm3.2 1v.2l-.3-.2h.1zm-6.3 3.2h0zm0 .2c.1 0 .1-.1.1-.1h0l-.1.1zm.2-1l-.1-.1v.2.4c0 .1.1.1.1.2h-.1v.1.1l.3-.5v-.2c0-.1-.1-.1-.1-.2z"/><path d="M305 26l-.8.6c-.2.1-.3.4-.3.6l.4-.4.8-.4 1-.3h.3l-1.2.7c-.4.2-.7.6-1 1l1.3-1 1.2-.6-.6.4h.1c-.2.1-.4.4-.6.6l1-.5.6-.4h.1l-.6.4c-.4.2-.8.5-1 1l1.2-.5.6-.4-.2.2-.8.7h.1l1-.5.4-.2h.1l-.3.2-.3.2-.7.4c-.5.1-1 .4-1.2.7-.2.2-.4.5-.5.8-.1.2-.2.4-.2.6v1l.6-1.2q0-.1.1-.2c-.2.4-.3.8-.3 1.2l.6-.8.5-.8.2-.2c-.2.3-.3.6-.4 1l.6-.6.3-.2h.1c-.1 0-.2.1-.2.3-.3.5-.5 1-.7 1.5-.2.5-.3 1-.3 1.5l.4-.7v.3c-.1.4-.2.7-.2 1 .2-.3.3-.6.4-1-.1.5-.1 1 0 1.4v.4h.1l.2-2.2v.7c0 .2.1.4.2.5.1-.4.1-.8.1-1.2q0 .1.1.1c.1.1.1.3.1.4h.1c.1-.3.1-.7.2-1 .1.2.1.4.1.6h.1c0-.3.1-.6.1-1s0 .2.1.2c.1-.6.3-1 .5-1.6-.2.4-.2 1-.2 1.4 0-.2 0-.3.1-.4L308 32v1.7c-.1 1-.1 2-.2 3h.7l.3-4.5.2-2c0 .4 0 1 .1 1.3l.2-1.4v1.7q0-.1.1-.2c.1-.1-.1.6-.1.8h.1c0-.1.1-.3.2-.4v1l.3-.2c0 .4-.1.7-.2 1h.1l.3-.5.3-1v.3l-.5 2.2h.1q.1-.1.1-.2c0-.1.1-.1.1-.2.3-.4.4-1 .4-1.4 0 .4 0 .8.1 1.2 0-.4 0-.8.1-1.2v-.2c.1.2.2.5.2.7a4 4 0 0 0 .2-1.5c-.1-.5-.2-1-.4-1.6 0-.2-.1-.3-.1-.4s.1.1.1.2l.2.3h.1c.1.3.2.6.4.8 0-.2 0-.4-.1-.6.2.2.3.5.4.8.1.3.2.6.2 1h.1c.1-.3.1-.7.1-1l.3 1.4v-.2h.1V32c0-.1.1-.3.1-.4.1-.2.1-.5 0-.7 0-.3-.1-.6-.3-1-.2-.4-.5-.7-1-1h.1l-.4-.5-.4-.4c-.1-.1-.2-.2-.2-.3l-.3-.2v-.1l.5.4.3.4v-.1l-.3-.3.7.6 1 .8c-.1-.4-.4-.8-.7-1l1 .7-.5-.8h.1l1 1-.8-1.3.4.4 1 1h0l.1.1h0 .1c0-.1 0-.1-.1-.1 0 0 0 0 0-.1 0 0 0 0 0-.1-.1-.3-.3-.6-.6-.8l-1-1 .3.2 1 .6.3.2.1.1c0 .1.1.1.1.2v.2.1h.1c0-.1 0-.1-.1-.2v-.2c-.1-.1-.1-.3-.2-.4l-.2-.3s.1.1.1.1c-.1-.1-.1-.1-.2-.2h0s0 0 0 0c-.5-.5-1.2-.8-2-.8h1.4l-1-.3c-.3-.1-.6-.1-1 0l1-.4h-.7l1-.2c-.8.1-1.6.2-2.4.5l-.4.2c-.1-.4-.4-.8-.8-1l-1.4-.7h0l-.6-.3c.3.1.5.4.7.6-.4-.2-.6-.3-1-.2h-1l1.6.5h-.2c-.7-.2-1.4-.1-2 .3zm6.3 4.5c0-.1-.1-.2-.1-.3.1.1.1.2.1.3zm-.2-3c.1.1.3.2.4.4l-.5-.4h.1z"/><path d="M311.3 28.8l-.3-.4v.2l.2.1zm3 .2h0v.2h0zm-7-4h.1-.1zM35 15.4c0 .3-.1.7-.4 1l-4 4-4-2.4v-2.4c0-.7.5-1.2 1.2-1.2s1.2.5 1.2 1.2h0v3l4-4c.5-.4 1.2-.4 1.7 0 .3.2.4.6.4 1m-1.4 11h-.5c-.2 0-.3-.1-.4-.2l-4-4v3c0 .7-.5 1.2-1.2 1.2s-1.2-.5-1.2-1.2h0V23l4-2.4 4 3.8c.5.4.5 1.2.1 1.7h0c-.2.3-.5.4-1 .4"/><path d="M30.5 20.3h-.2l-1-.6-2.8-1.7-2.4-1.3c0-.1-.1-.2-.2-.2h0c-.2.1-.2.2-.2.3h0V24c0 .2.1.3.3.3q.1 0 .1-.1h0l2.4-1.3 3.8-2.3h.2v-.3zm-1 .2q0 .1-.1.1h0l-3 1.7-1.8 1h-.3v-5.8c0-.1.1-.2.2-.2h.1l1.8 1 3 1.7c.1.1.1.2.1.3zm-.8 0h-.1l-2.2 1.3-1.4.8h-.2q-.1 0-.1-.1h0v-4.2c0-.1.1-.1.2-.1h.1l3.7 2m26.5.1c-.1-.1-.1-.2-.2-.2l-3.4-1.7-2-1c-.2 0-.4.1-.4.2v5.7c0 .2.2.3.4.2l2-1 3.4-1.8h.2v-.2zm-1 .1q0 .1-.1.1L51.6 22l-1.6.8c-.1.1-.2 0-.3-.1h0v-4.4c0-.1.1-.2.2-.2h0l1.7.8 2.6 1.4q.1 0 .1.1v.1z"/><path d="M53.6 20.4h-.1l-2 1-1.2.6H50v-3.4h.2l1.2.6 2 1h.1m-16-2.8h3c1.3-.2 2.4.7 2.6 2h0 0c-.2 1.2-1.3 2-2.5 2H39v2h-1.4v-6zm2.8 2.8c.7 0 1.2-.3 1.2-.8s-.5-.8-1.2-.8h-1.4v1.7l1.4-.1z"/><path d="M48.4 22.2v1.2h-4.7v-6H45v4.8l3.3-.1zm8.3-1L54 17.4h1.6l1.7 2.6 1.7-2.7h1.6L58 21v2.2h-1.4v-2zm5-3.5h.7V21l3.3-3.3h1l-2.8 2.8 3 3.2H66L63.4 21l-1 1v1.8h-.7l-.1-6zm5.7 3c0-1.8 1.5-3 3.3-3h0c1.8-.1 3.3 1.2 3.5 3 0 1.8-1.5 3-3.3 3h-.1c-1.8.1-3.3-1.2-3.4-3h0zm6-.1C73.2 19 72 18 70.6 18S68 19 68 20.5s1 2.5 2.5 2.5h.2c1.4-.1 2.5-1.2 2.5-2.6zm1.7 2.2l.5-.5c.6.5 1.4.8 2.2.8 1 0 1.5-.5 1.5-1s-.6-1-1.8-1-2.2-.7-2.2-1.7 1-1.7 2.2-1.7a4 4 0 0 1 2.3.8l-.4.6c-.5-.5-1.2-.8-2-.8-.7-.1-1.3.3-1.4 1h0 0c0 .6.6.8 1.8 1s2 .7 2 1.7-.7 1.7-2.3 1.7c-1 0-1.8-.2-2.6-.8zm6.3-5h.8l2.5 4 2.4-4.2h.7v6H87V19l-2.4 4-2.5-4v4.5h-.7l-.1-6zm8 3c0-1.8 1.5-3 3.3-3h0c1.7 0 3.2 1.3 3.4 3-.2 1.8-1.8 3-3.5 2.8h-.2-.2c-1.4-.2-2.5-1.3-2.8-2.7zm6-.1c-.3-1.5-1.7-2.4-3.2-2h0c-1 .3-2 1-2 2.2.1 1.4 1.3 2.5 2.7 2.4 1.4 0 2.5-1 2.6-2.5zm1.8 2.2l.5-.5c.6.5 1.3.8 2 .8 1 0 1.6-.5 1.6-1s-.7-1-1.8-1-2.2-.7-2.2-1.7 1-1.7 2.2-1.7a4 4 0 0 1 2.3.8l-.4.6c-.5-.5-1.3-.8-2-.8-.7-.1-1.3.3-1.4 1h0 0c.1.6.7.8 1.8 1s2.2.7 2.2 1.7-.7 1.7-2.3 1.7c-1 0-1.8-.2-2.6-.8z"/></g><g fill="#fff" fill-rule="evenodd" stroke="#3d2264" stroke-linejoin="round" stroke-width=".1"><path d="M84 85.2c-1.5.4-2.7 1.7-2.8 3.3 0 .3-.1.7.1 1s.5-.6.8-1c1-1 2-1.5 3.3-1.7.2-.2-.2-.5-.3-.7-.3-.4-.7-.7-1-1zm2 1.8c-.1.2.2.5.2.8.5 1.3.4 2.8-.3 4-.1.3.3.3.5.1a3 3 0 0 0 2-3.1c.2-.5 0-1-.3-1.4-.6-.4-1.4-.5-2-.5z"/><path d="M85.6 87a5 5 0 0 0-4.2 2.8c.5 1.5 2 2.6 3.6 2.6.3 0 .6-.2.8-.5a5 5 0 0 0-.1-4.9s0-.1-.1 0zm-.6-1.8c-.3-.1-.8 0-.5.3l1.2 1.3 2 .3c.4 0 0-.4-.1-.6-.6-.8-1.5-1.2-2.5-1.3zm-10.6 22.2c-1.6.3-2.7 1.7-2.7 3.3 0 .2-.2.6.1.8s.4-.6.7-1c1-1 2-1.5 3.3-1.7.3-.2-.2-.5-.3-.7-.3-.4-.7-.7-1-.8z"/><path d="M76.2 109c-.1.2.2.5.3.8.5 1.3.3 2.8-.3 4-.1.3.3.3.4.1 1.2-.5 2-1.7 2-3 .1-.5 0-1-.3-1.5-.7-.4-1.4-.5-2.2-.5z"/><path d="M76 109a5 5 0 0 0-4.2 2.8c.4 1.6 2 2.7 3.5 2.6.4 0 .7-.1.8-.5 1-1.5 1-3.4 0-5H76z"/><path d="M75.4 107.3c-.2-.1-.8 0-.4.3l1 1.3c.7 0 1.4.2 2 .4.3-.1 0-.5-.1-.7-.7-.7-1.6-1.2-2.6-1.3z"/></g><path fill="#854299" d="M79.2 123.6H256v78H79.2z"/><path d="M257.2 203H77.8v-80.8h179.4V203zm-176.7-2.7h174V125h-174v75.4z" fill="#fff"/><path fill="#fff200" d="M106.7 205.6h121.5v3.4H106.7z"/><g fill="#fff"><path d="M259.7 134.8h3.4v55.8h-3.4zm-188-.1h3.4v55.8h-3.4zm132.8 71.6c0 3.5-2 6.4-4.2 6.4h-65.8c-2.3 0-4.2-3-4.2-6.4v-1.5c0-3.5 2-6.4 4.2-6.4h65.8c2.3 0 4.2 3 4.2 6.4v1.5zm-36 113.3h0l-.5.3h.1c.1-.2.2-.3.4-.3zm-1 3.4c.1-.2.1-.4.2-.6 0-.1 0-.2.1-.3 0-.2.1-.5.2-.7h0c-.2.1-.3.3-.4.4l.3-.7q-.1.1-.1.2l-.4.5-.3.5h0v.3l-1.2 4c-.1.1-.1.3-.1.5h.8c.2-1.2.6-2.5 1-4h-.1z"/><path d="M167 319.2l.3-1v-.3c0 .4-.1.7-.1 1h0 .2c.1-.1.1-.3.1-.4h0c0-.1.1-.2.1-.3h0q.1.1.1.2h.1l.3-.8v.5h.1c.1-.2.1-.5.2-.7v.2h0l.6-1.4-.3 1.2.5-1-.6 1.8.5.2v-.2l.3-1.5h.1c0 .1 0 .3-.1.4.2-.7.4-1 .4-1.2 0 .5-.1 1-.2 1.5h0c0-.1.1-.1.2-.2-.1.2-.2.5-.2.7h0l.3-.5c-.1.4-.1.7-.2 1h.1c0-.2.1-.2.2-.3h.1l-.3.8c0 .1.1.1.1.2v-.3l.4-1v.3l-.3 1h.2c.1-.2.1-.4.2-.6v.5h.2c0-.2 0-.4.1-.5v-.2c0 .2 0 .4.1.6h.1a5 5 0 0 0 .2-1.2l-.1-1.5c0-.1 0-.2-.1-.3h.1l.2.2h0l.3.7c0-.3 0-.7-.1-1 .1.1.1.2.1.4l.3.8c0 .3 0 .5.1.8h0c.1-.2.2-.5.2-.8.1.4.1.8.1 1.2v-.3h.1c0-.1 0-.3.1-.4 0-.1.1-.2.1-.3.1-.1.1-.3.1-.5 0-.3-.1-.6-.1-1-.2-.4-.5-.7-.8-1-.2-.2-.3-.4-.5-.5s-.1-.2-.1-.3h-.2 0l.3.4.6.7h0c0-.2-.2-.4-.4-1h0l.4.5.7.8c-.1-.4-.3-.8-.6-1-.1-.2-.2-.4-.4-.5h.1l.4.5c.2.3.5.6.8.8l-.3-.7c.3.3.5.6.7 1l-.5-1.2-.4-.6h0l.8 1 .7 1.2h0c0-.4-.2-.8-.4-1-.2-.4-.5-.7-.8-1h0l.3.2.7.6.4.6.3.4c.1-.1.1-.4 0-.5l-.5-.8.2.3c-.4-.6-1-1-1.7-1.3h1.3l-.8-.3h-1l.8-.2h.2c-.7-.1-1.4 0-2 .2-.4.1-.8.3-1 .6l-.2-.3-1.7-1.2.6.5-.6-.4c.3.2.5.4.7.7h0c-.2-.3-.6-.4-1-.4h-1l1.4.5h-.3c-.7-.2-1.4-.1-2 .2h.3l-.8.3c-.2.2-.4.4-.4.5l.5-.2.7-.3 1-.2h.3l-1 .4c-.5.3-.8.5-1 .8h0c.4-.3.8-.5 1.2-.6l1-.5h.1l-.7.3-1 .8c0-.1.4-.2 1-.4-.3 0-.5.2-.6.4l1-.3.6-.3q.1 0 .1.1h0l-.6.2-1 .7 1-.4.6-.2h-.2l-.7.6h0l1-.4h.2l-.3.2-.7.2c-.4.1-.8.2-1 .5l-.6.6c-.1.2-.1.4-.2.6 0 .1 0 .3-.1.4 0 .1-.1.2-.1.3h.1v.2l.7-1c-.1.3-.2.5-.2.8h0l.5-.7.6-.6.2-.2c-.2.2-.4.5-.5.8l.6-.4h0l.3-.2q.1 0 .1-.1h0l-.2.3a6 6 0 0 0-.8 1.3c-.3.3-.4.8-.4 1.2l.4-.5q0 .1-.1.2l-.3 1h.1l.4-1c0 .3-.1.6-.1.8h.1q0-.1.1-.1h-.1zm1.6 1h0l-.5.3h0l.5-.5h.1l-.4.2-.3.2c0 .1-.1.2-.1.3h.3l.4-.5zm.2-1.5h-.1q-.1-.1-.1-.2h.2v.2z"/><path d="M167 320c0-.1 0-.3.1-.4h-.3v.2h.1q0 .2.1.2z"/><path d="M169.5 323.4c.1-.5.1-1 .1-1.4 0 .3.1.6.1.8.1-.3.1-.6.1-1v1q.1 0 .1-.1h0c0 .2 0 .4-.1.5h.1v-.4c-.1.2-.1.5-.1.7h.1c0-.1 0-.2.1-.2h.1c-.1.2-.1.5-.2.8l.3-.4c.1-.2.1-.4.1-.6h0v.2l-.2 1.5c0 .2 0-.1.1-.2h.1c.1-.3.1-.6.1-1 0 .3.1.5.1.7h.1v-1c.1.2.1.4.2.5.1-.3.1-.6 0-1 0-.4-.1-.7-.2-1 0-.1-.1-.2-.1-.3h.1v.2h.1v.4c0-.2 0-.5-.1-.7 0 .1.1.1.1.3l.2.5c.1.3.1.5.2.6h0c.1-.2.1-.5.1-.7.1.3.2.6.2 1v-.2h0q.1-.1.1-.2v-.3c.1-.1.1-.3 0-.4 0-.2-.1-.4-.1-.6l-.7-.7-.4-.3-.2-.2v-.2h0l.3.3.5.4h0l-.4-.6h0l.3.2.6.6-.5-.8.6.5c0-.2-.1-.4-.3-.5h.1l.6.6c-.3-.4-.4-.7-.5-.7l-.3-.4.6.6.6.8h.1l-.4-.8c-.2-.3-.4-.5-.7-.6h.2l.6.4.4.4v.3c.1-.1 0-.2-.1-.4l-.4-.5.2.2c-.3-.5-.8-.7-1.4-.7h1c.1 0 .1-.1 0-.1l-.6-.2h-.7l.6-.3H170v-.2q-.1-.1-.1-.2l-.3-.3-.4-.2-.5-.2h-.4l.4.2v.2h-1l.6.2h-.1c-.3-.1-.6 0-1 .1h-.2l-.2.2h-.2l-.3.3-.2.3.3-.2h.4q0-.1.1-.1l.6-.2h.3l-.8.5-.3.3h-.1l-.2.2h.2l.6-.4.8-.5-.4.3-.7.6.7-.4-.3.4.6-.3h.1l.5-.3h0l-.4.2h-.3l-.5.5.4-.2.3-.2.4-.2h-.1l-.5.5h0l.5-.3h.1l.3-.2h-.1l-.2.2h-.1l-.4.2h-.3l-.5.4-.3.5.2.2h0c.1.1.1.2.1.3h-.1c0 .1-.1.3 0 .4h0l.3-.5.4-.5v-.2l-.3.7.4-.4h.2q0-.1.1-.1h0l-.2.2-.3.7c-.1.1-.1.2-.1.3-.1.2-.1.4-.2.6v.3c.1 0 .2-.2.3-.3h-.1c0 .3 0 .6-.1.7l.3-.7v1h0v.2c0-.5 0-1 .1-1.5v.4c0 .1.1.2.1.4h.1v-.8h.1c0 .1.1.1.1.3.1-.3.1-.5.1-.8h.1c0 .2 0 .3.1.4v-.4h0l.3-1h0c-.1.3-.1.6-.1 1 0-.1 0-.2.1-.3v.2c-.1.4-.2.7-.2 1 0 .4 0 .7-.1 1l-.3 2.5h0 .5c0-.2 0-.4.1-.5.3-.7.5-1.4.5-2.2zm1.6-3c0-.1-.1-.1-.2-.2h.1q.1.1.1.2h0z"/><path d="M167 321.6v.6h0q0 .1-.1.1h.1v.2l.4-.6-.2-.2-.2-.1z"/><path d="M164 322.8v.8-1 1h0v.5h0l.2-.3v.7c0-.1.1-.1.1-.2h.1c0 .2-.1.4-.1.7h0l.2-.3c.1-.2.1-.4.2-.6v.2l-.3 1.4h.2c.1-.3.2-.6.2-1 0 .2 0 .5.1.7 0-.2 0-.5.1-.7v-.2c0 .2.1.3.1.5.1-.3.1-.7.1-1-.1-.3-.1-.7-.2-1-.1-.1-.1-.2-.1-.3q0 .1.1.1h0c0 .1.1.1.1.2h0l.3.5c0-.2-.1-.5-.2-.7h0l.2.4.2.5c.1.2.1.4.1.6h.1c.1-.1.1-.3 0-.6l.3 1h0v-.5c.1-.1.1-.3.1-.4 0-.2-.1-.5-.2-.7l-.6-.6h0l-.4-.6h0l.4.4.6.5-.4-.7.6.5-.3-.5h0l.7.6c-.2-.2-.4-.5-.5-.8l-.3-.2.5.5.7.7h0v-1l-.4-.5c-.2-.3-.4-.5-.7-.7h.3l.6.4v.3h.1l.2.2h.1c0-.1 0-.2-.1-.3h0l-.2-.2-.2-.3h.1c-.3-.4-.8-.6-1.3-.7h1l-.6-.2h-.6l.5-.3h-.4l.6-.2-1.6.4h-.2c-.1-.3-.3-.6-.6-.7l-1-.5h-.3l.5.3q0 .1.1.1h-.2-.7-.6l1 .3h-.1c-.4-.1-1 0-1.3.2l-.5.4c-.2.2-.2.3-.2.4l.3-.2c.1-.2.2-.3.4-.3l.7-.2h.2l-.8.5c-.3.2-.5.4-.5.6l.8-.6.7-.4-.4.3-.7.6.8-.4h0l-.4.4.7-.3.5-.3h0-.4c-.3.2-.5.4-.7.7l.8-.4.4-.2h-.2c-.2.2-.3.4-.5.5h.1l.6-.4h.1v.2l-.5.2c-.3.1-.5.3-.7.5-.2.1-.3.3-.4.5-.1.1-.1.3-.1.4v.5h0v.2l.4-1h.1c-.2.2-.2.5-.2.8h0l.4-.5c0-.2.2-.3.3-.5s.1-.1.1-.2c-.1.2-.2.4-.2.6.1 0 .2-.2.3-.4h.1c0-.1.1-.1.1-.2h.1v.2c-.2.3-.4.6-.5 1-.1.3-.2.6-.2 1l.3-.4v.2c-.1.2-.1.5-.2.7h.1c.1-.2.2-.5.2-.7v1.6h.1c0-.2.1-.6.2-1.4v.4c0 .1 0 .3.1.4h0c.1-.2.1-.5.1-.7h0c.1.1.1.2.1.3h.1c0-.2.1-.4.1-.7v.4h0c0-.2.1-.4.1-.6v.2l.4-1c-.1.1-.1.4-.2 1 .1-.1.1-.2.1-.3h0c0 .4-.1.7-.2 1 0 .4 0 .8-.1 1.2l-.1 2h.4l.2-3c0-.4 0-1 .1-1.3zm1.3-1.7l.3.2c-.1-.1-.2-.2-.4-.2h.1zm-.4.2l.2.2.5.5-.5-.3c0-.1-.1-.1-.1-.2v-.2h-.1z"/></g><g fill="#fff200"><path d="M168.7 295.7h0l-.5.3h.1l.4-.3zm-1 3.3c.1-.2.1-.4.2-.6 0-.1 0-.2.1-.3 0-.2.1-.5.2-.7h0l-.4.4.3-.7v.2l-.4.5-.3.5h0v.3l-1.2 4c-.1.1-.1.3-.1.5h.8c.2-1.2.6-2.5 1-4h-.2zm-.7-3.7l.3-1v-.3c0 .4-.1.7-.1 1h0 .2c.1-.1.1-.3.1-.4h0c0-.1.1-.2.1-.3h0v.2h.1l.3-.8v.5h.1c.1-.2.1-.5.2-.7v.2h0l.6-1.4-.3 1.2.5-1-.6 1.8.5.2v-.2l.3-1.5h.1c0 .1 0 .3-.1.4.2-.7.4-1 .4-1.2s-.1 1-.2 1.5h0c0-.1.1-.1.2-.2-.1.2-.2.5-.2.7h0l.3-.5c-.1.4-.1.7-.2 1h.1c0-.2.1-.3.2-.3h.1l-.3.8c0 .1.1.1.1.2l.2-.3.4-1v.3l-.3 1h.2c.1-.2.1-.4.2-.6v.5h.2c0-.2 0-.4.1-.5v-.2c0 .2 0 .4.1.6h.1c.1-.4.2-.8.2-1.2l-.1-1.5c0-.1 0-.2-.1-.3h.1c.1.1.1.2.2.2h0l.3.7c0-.3 0-.7-.1-1 .1.1.1.2.1.3l.3 1c0 .3 0 .5.1.8h0c.1-.2.2-.5.2-.8.1.4.1.8.1 1.2v-.3h.1c0-.1 0-.3.1-.4v-.3c.1-.1.1-.3.1-.5 0-.3-.1-.6-.1-1-.2-.4-.5-.7-.8-1l-.5-.5v-.3h-.2 0l.3.4.6.7h0c0-.2-.2-.4-.4-1h0l.4.5.7.8c-.1-.4-.3-.8-.6-1-.1-.2-.2-.4-.4-.5h.1l.4.5c.2.3.5.6.8.8l-.3-.7.7 1-.5-1.2-.4-.6h0l.8 1 .7 1.2h0c0-.4-.2-.8-.4-1-.2-.4-.5-.7-.8-1h0 .3l.7.6c.2.2.3.4.4.6l.3.4c.1-.1.1-.4 0-.5l-.5-.8v.3c-.4-.6-1-1-1.7-1.3h1.3l-.8-.3h-1 .8.2c-.7-.1-1.4 0-2 .2-.4.1-.8.3-1 .6l-.2-.3-1.7-1.2.6.5-.6-.4.7.7h0c-.2-.3-.6-.4-1-.4h-1l1.4.5h-.3c-.7-.2-1.4-.1-2 .2h.3l-.8.3-.4.5h.5l.7-.3 1-.2h.3l-1 .4c-.5.3-.8.5-1 .8h0c.4-.3.8-.5 1.2-.6l1-.5h.1l-.7.3-1 .8 1-.4c-.3 0-.5.2-.6.4l1-.3.6-.3h.1l-.6.2-1 .7 1-.4.6-.2h-.2l-.7.6h0l1-.4h.2l-.3.2-.7.2c-.4.1-.8.2-1 .5l-.6.6c-.1.2-.1.4-.2.6 0 .1 0 .3-.1.4v.3h.1v.2l.7-1c-.1.3-.2.5-.2.8h0l.5-.7.6-.6h.2c-.2.2-.4.5-.5.8l.6-.4h0l.3-.2q.1 0 .1-.1h0l-.2.3a6 6 0 0 0-.8 1.3c-.3.3-.4.8-.4 1.2l.4-.5v.2l-.3 1h.1l.4-1c0 .3-.1.6-.1.8h-.1z"/><path d="M168.6 296.3h0l-.5.3h0l.5-.5h.1l-.4.2-.3.2c0 .1-.1.2-.1.3h.3l.4-.5zm.2-1.5h-.1v-.2h.2l-.1.2zM167 296c0-.1 0-.3.1-.4h-.3v.2h.1q0 .2.1.2z"/><path d="M169.5 299.5c.1-.5.1-1 .1-1.4 0 .3.1.6.1.8.1-.3.1-.6.1-1v1q.1 0 .1-.1h0c0 .2 0 .4-.1.5h.1c0-.1.1-.2.2-.4-.1.2-.1.5-.1.7h.1c0-.1 0-.2.1-.2h.1c-.1.2-.1.5-.2.8l.3-.4c.1-.2.1-.4.1-.6h0v.2l-.2 1.5h0q0-.1.1-.1h0c.1-.3.1-.6.1-1 0 .3.1.5.1.7h.1v-1c.1.2.1.4.2.5.1-.3.1-.6 0-1 0-.4-.1-.7-.2-1 0-.1-.1-.2-.1-.3s0 .1.1.1h0v.2h.1l.2.4c0-.2 0-.5-.1-.7 0 .1.1.1.1.3s.2.3.2.5c0 .2.1.4.2.6h0c.1-.2.1-.5.1-.7.1.3.2.6.2 1v-.2h0v-.4c.1-.1.1-.3 0-.4 0-.2-.1-.4-.1-.6-.2-.3-.4-.5-.7-.7l-.4-.3-.2-.2v-.2h0l.3.3.5.4h0l-.4-.6h0l.3.2.6.6-.5-.8.6.5c0-.2-.1-.4-.3-.5h.1l.6.6c-.3-.4-.4-.7-.5-.7l-.3-.4.6.6.6.8h.1l-.4-.8c-.2-.3-.4-.5-.7-.6h.2l.6.4.4.4.2.3c.1-.1 0-.2-.1-.4l-.4-.5.2.2c-.3-.5-.8-.7-1.4-.7h1c.1 0 .1-.1 0-.1l-.6-.2h-.5l.6-.3H170q0-.1-.1-.2-.1-.1-.1-.2l-.3-.3-.4-.2-.5-.2h-.4l.4.2v.2h-1l.6.2h-.1c-.3-.1-.6 0-1 .1h-.2-.2-.2l-.3.3-.2.3.3-.2h.4q0-.1.1-.1l.6-.2h.3l-.8.5-.3.3q-.1 0-.1.1c0 .1-.2.1-.2.2h.2l.6-.4.8-.5-.4.3-.7.6.7-.4-.3.4.6-.3h.1l.5-.3h0l-.4.2h-.2l-.5.5.4-.2.3-.2.4-.2h-.1l-.5.5h0l.5-.3h.1l.3-.2h-.1c-.1.1-.2.1-.2.2h-.1l-.4.2h-.3l-.5.4-.3.5.2.2h0c.1.1.1.2.1.3h-.1c0 .1-.1.3 0 .4h0l.3-.5.4-.5v-.2l-.3.7.4-.4h.3l-.2.2-.3.7c-.1.1-.1.2-.1.3-.1.2-.1.4-.2.6v.3l.3-.3h-.1c0 .3 0 .6-.1.7l.3-.7v1h0 0c0-.5 0-1 .1-1.5v.4c0 .1.1.2.1.4h.1v-.4q.1 0 .1.1h0c0 .1.1.1.1.3.1-.3.1-.5.1-.8h.1c0 .2 0 .3.1.4v-.6q.1.1.1.2h0l.3-1h0c-.1.3-.1.6-.1 1 0-.1 0-.2.1-.3v.2c-.1.4-.2.7-.2 1 0 .4 0 .7-.1 1l-.3 2.5v.2h.5c0-.2 0-.4.1-.5l.4-3.2zm1.6-3c0-.1-.1-.1-.2-.2h.1q.1.1.1.2h0z"/><path d="M167,297.7v.6h0v.2l.4-.6-.2-.2h-.2Z"/><path d="M164 299v.8-1 1h0v.5h0l.2-.3v.7c0-.1.1-.1.1-.2h.1c0 .2-.1.4-.1.7h0c.1-.1.2-.2.2-.3l.2-.6v.2l-.3 1.4h.1q.1 0 .1-.1h0c.1-.3.2-.6.2-1 0 .2 0 .5.1.7 0-.2 0-.5.1-.7v-.2c0 .2.1.3.1.5.1-.3.1-.7.1-1-.1-.3-.1-.7-.2-1-.1-.1-.1-.2-.1-.3h.1c0 .1.1.1.1.2h0l.3.5c0-.2-.1-.5-.2-.7h0l.2.4c0 .2.1.3.2.5.1.2.1.4.1.6h.1c.1-.1.1-.3 0-.6l.3 1h0v-.5c.1-.1.1-.3.1-.4 0-.2-.1-.5-.2-.7l-.6-.6h0c0-.1-.2-.3-.4-.6v-.2c0-.1.2.3.4.4l.6.5-.4-.7.6.5-.3-.5h0l.7.6-.5-.8-.3-.2c.2.1.4.3.5.5l.7.7h0v-.2l-.4-.5c-.2-.3-.4-.5-.7-.7h.1c0 .1.1.1.2.1l.6.4v.3q.1 0 .1.1l.2.2h.1c0-.1 0-.2-.1-.3h0l-.2-.2-.2-.3h.1c-.3-.4-.8-.6-1.3-.7h-.2c.4-.1.7-.1 1 0h0l-.6-.2c-.2-.1-.4-.1-.6 0l.5-.3h-.4l.6-.2-1.6.4h-.2c-.1-.3-.3-.6-.6-.7l-1-.5q0 .1.1.1h0c-.2 0-.3-.1-.4-.2l.5.4h0l-.7-.2h-.6l1 .3h-.1c-.4-.1-1 0-1.3.2l-.5.4c-.2.2-.2.3-.2.4l.3-.2c.1-.2.2-.3.4-.3l.7-.2h.2l-.8.5c-.3.2-.5.4-.5.6l.8-.6.7-.4-.4.3-.7.6.8-.4h0l-.4.4.7-.3.5-.3h0l-.4.2c-.3.2-.5.4-.7.7l.8-.4h.4-.2l-.5.5h.1l.6-.4h.1l-.2.2-.5.2c-.3.1-.5.3-.7.5-.2.1-.3.3-.4.5-.1.1-.1.3-.1.4v.5h0v.2l.4-1h.1c-.2.2-.2.5-.2.8h0l.4-.5c0-.2.2-.3.3-.5v-.2c-.1.2-.2.4-.2.6.1 0 .2-.2.3-.4h.1c0-.1.1-.1.1-.2h.1v.2c-.2.3-.4.6-.5 1-.1.3-.2.6-.2 1l.3-.4h0c-.1.2-.1.5-.2.7h.1c.1-.2.2-.5.2-.7v1h.1c0-.2.1-.6.2-1.4v.4c0 .1 0 .3.1.4h0c.1-.2.1-.5.1-.7h0c.1.1.1.2.1.3h.1c0-.2.1-.4.1-.7s.1.3.1.4h0c0-.2.1-.4.1-.6v.2l.4-1c-.1.1-.1.4-.2 1 .1-.1.1-.2.1-.3h0c0 .4-.1.7-.2 1 0 .4 0 .8-.1 1.2l-.1 2h.4l.2-3c-.1-.5-.1-1 0-1.4zm1.3-1.7l.3.2c-.1-.1-.2-.2-.4-.2h.1zm-.4.2l.2.2.5.5-.5-.3c0-.1-.1-.1-.1-.2s-.1-.1-.1-.2h0z"/></g></svg>