<?xml version="1.0" encoding="UTF-8"?>
<svg id="Layer_1" data-name="Layer 1" xmlns="http://www.w3.org/2000/svg" width="335" height="335" xmlns:xlink="http://www.w3.org/1999/xlink" viewBox="0 0 335 335">
  <defs>
    <linearGradient id="linear-gradient" x1="401.7" y1="25.8" x2="-45.5" y2="296.3" gradientTransform="matrix(1, 0, 0, 1, 0, 0)" gradientUnits="userSpaceOnUse">
      <stop offset="0" stop-color="#000"/>
      <stop offset="0" stop-color="#0a0727"/>
      <stop offset=".2" stop-color="#1b1464"/>
      <stop offset=".2" stop-color="#191969"/>
      <stop offset=".3" stop-color="#0e3f8c"/>
      <stop offset=".4" stop-color="#065aa6"/>
      <stop offset=".5" stop-color="#016bb6"/>
      <stop offset=".6" stop-color="#0071bc"/>
      <stop offset=".7" stop-color="#025a9d"/>
      <stop offset=".8" stop-color="#07376e"/>
      <stop offset=".9" stop-color="#0a1e4d"/>
      <stop offset=".9" stop-color="#0c0f38"/>
      <stop offset="1" stop-color="#0d0a31"/>
    </linearGradient>
    <linearGradient id="linear-gradient-2" x1="167.8" y1="335.6" x2="167.8" y2="175.2" gradientTransform="matrix(1, 0, 0, 1, 0, 0)" gradientUnits="userSpaceOnUse">
      <stop offset=".4" stop-color="#fff"/>
      <stop offset=".4" stop-color="#f8f8f8" stop-opacity="1"/>
      <stop offset=".5" stop-color="#e7e7e7" stop-opacity=".9"/>
      <stop offset=".6" stop-color="#cbcaca" stop-opacity=".8"/>
      <stop offset=".7" stop-color="#a4a2a2" stop-opacity=".6"/>
      <stop offset=".8" stop-color="#716f6f" stop-opacity=".4"/>
      <stop offset="1" stop-color="#353132" stop-opacity="0"/>
      <stop offset="1" stop-color="#231f20" stop-opacity="0"/>
    </linearGradient>
    <mask id="mask" x="-.5" y="175.2" width="336.6" height="160.4" maskUnits="userSpaceOnUse">
      <rect x="-.5" y="175.2" width="336.6" height="160.4" fill="url(#linear-gradient-2)"/>
    </mask>
  </defs>
  <g>
    <rect width="335" height="335" fill="url(#linear-gradient)"/>
    <g>
      <g>
        <path d="M282.2,24.5v.7c3-.3,5.8-.7,8.7-1.1v-.7c-3,.4-5.8,.8-8.7,1.1Z" fill="#999"/>
        <path d="M256.5,26.4c0,.2,0,.4,0,.7,2.9,0,5.8-.2,8.7-.4v-.7c-2.9,.2-5.8,.3-8.7,.4Z" fill="#999"/>
        <path d="M333.4,15.2c.6-.2,1.1-.3,1.6-.5v-.7c-.6,.2-1.2,.4-1.8,.5,0,.2,.1,.4,.2,.7Z" fill="#999"/>
        <path d="M307.8,20.5v.7c3-.6,5.9-1.2,8.7-1.8l-.2-.7c-2.9,.6-5.7,1.2-8.6,1.8Z" fill="#999"/>
        <path d="M230.8,26.2v.7c2.8,.1,5.7,.2,8.6,.3,0-.2,0-.5,0-.7-2.9,0-5.8-.2-8.6-.3Z" fill="#999"/>
        <path d="M155.2,13.1l-.2,.7c2.8,.8,5.6,1.6,8.3,2.4l.2-.7c-2.8-.8-5.6-1.6-8.3-2.4Z" fill="#999"/>
        <path d="M180,19.5v.7h0c2.8,.6,5.6,1.2,8.4,1.7v-.7c-2.7-.5-5.5-1.1-8.3-1.7Z" fill="#999"/>
        <path d="M130.8,4.7l-.2,.6c2.7,1.1,5.4,2.1,8.2,3.1,0-.2,.2-.4,.2-.6-2.7-1-5.4-2-8.1-3.1Z" fill="#999"/>
        <path d="M205.3,23.9c0,.2,0,.5,0,.7,2.9,.4,5.7,.7,8.6,1v-.7c-2.8-.3-5.6-.6-8.5-1Z" fill="#999"/>
        <path d="M92,3.4c2.3,3.5,3.6,5.3,6,8.8,2-4.1,4.1-8.1,6.1-12.2h-20.4c-.7,1.1-1.3,2.3-2,3.4,4.1,0,6.2,0,10.2,0Z" fill="#f7941d"/>
        <path d="M116.6,15.3c2.6,3.3,3.9,5,6.7,8.2,2.4-6.1,4.8-12.1,7.3-18.2l.2-.6c.3-.8,.7-1.7,1-2.5-2-.8-3.7-1.5-5.3-2.1h-12.5c-2.5,5.4-5,10.8-7.5,16.2,4.1-.3,6.1-.5,10.1-.9Z" fill="#1ac9ff"/>
        <path d="M155.9,10.6c-6.5-2-9.7-3.1-16.1-5.4-.3,.8-.6,1.7-.9,2.5,0,.2-.2,.4-.2,.6-2.3,6.1-4.5,12.3-6.8,18.4,4-.7,6-1,10-1.8,2.9,3.1,4.3,4.6,7.3,7.6,1.9-6.3,3.8-12.6,5.8-18.8l.2-.7,.8-2.5Z" fill="#f7941d"/>
        <path d="M180.6,17c-6.6-1.4-9.9-2.2-16.4-4-.2,.8-.5,1.6-.7,2.5l-.2,.7c-1.7,6.3-3.5,12.7-5.2,19,3.9-1,5.9-1.5,9.7-2.6,3.1,2.8,4.7,4.2,7.9,7,1.4-6.4,2.8-12.9,4.2-19.3v-.7c.3-.8,.5-1.6,.7-2.5Z" fill="#1ac9ff"/>
        <path d="M281.9,21.8c-6.7,.8-10.1,1.1-16.9,1.5,0,.9,.1,1.7,.2,2.6v.7c.5,6.6,.9,13.1,1.3,19.7,3.4-2.2,5.1-3.4,8.4-5.7,3.9,1.7,5.8,2.5,9.8,4-.8-6.5-1.5-13-2.3-19.5v-.7c-.2-.9-.3-1.8-.4-2.7Z" fill="#1ac9ff"/>
        <path d="M307.2,17.7c-6.7,1.4-10.1,2-16.8,3l.4,2.7v.7c1.1,6.5,2,12.9,3,19.4,3.2-2.5,4.8-3.8,7.9-6.3,4,1.3,6,2,10.1,3.2-1.3-6.3-2.6-12.7-3.9-19v-.7c-.3-.9-.5-1.9-.7-2.8Z" fill="#f7941d"/>
        <path d="M333.2,14.5c-.3-1-.6-2-.9-3-6.6,1.9-9.9,2.8-16.6,4.4,.2,.9,.4,1.9,.7,2.8l.2,.7c1.5,6.3,3,12.6,4.4,18.9,3-2.8,4.5-4.2,7.4-7,2.7,.6,4.5,1.1,6.7,1.5v-12c-.5-1.9-1.1-3.7-1.6-5.6,0-.2-.1-.4-.2-.7Z" fill="#1ac9ff"/>
        <path d="M205.6,21.4c-6.7-.9-10-1.4-16.7-2.7l-.5,2.5v.7c-1.3,6.5-2.6,13-3.8,19.4,3.8-1.3,5.7-2,9.5-3.4,3.3,2.6,5,3.8,8.4,6.3,.9-6.5,1.7-13.1,2.6-19.6,0-.2,0-.5,0-.7,.1-.8,.2-1.6,.3-2.5Z" fill="#f7941d"/>
        <path d="M230.9,23.7c-6.7-.3-10.1-.6-16.8-1.3,0,.8-.2,1.7-.3,2.5v.7c-.7,6.6-1.4,13.1-2.1,19.7,3.7-1.6,5.5-2.5,9.2-4.2,3.5,2.3,5.3,3.4,8.9,5.6,.3-6.6,.6-13.2,.9-19.8v-.7c0-.8,.1-1.7,.2-2.5Z" fill="#1ac9ff"/>
        <path d="M256.4,23.8c-6.8,.2-10.1,.3-16.9,.1,0,.8,0,1.7,0,2.5,0,.2,0,.5,0,.7-.1,6.6-.3,13.2-.4,19.8,3.6-1.9,5.3-2.9,8.8-4.9,3.7,2,5.6,2.9,9.4,4.8-.2-6.6-.5-13.1-.7-19.7,0-.2,0-.4,0-.7,0-.9,0-1.7,0-2.6Z" fill="#f7941d"/>
      </g>
      <g mask="url(#mask)">
        <rect x="0" y="175.8" width="335" height="159.2" fill="#231f20"/>
      </g>
      <g>
        <g>
          <g>
            <path d="M305,284.7l-.6,.3c-7.9-16.2-5-28.3-5-28.4l.7,.2c0,.1-2.9,12,4.9,28Z" fill="#f7941d"/>
            <path d="M305.5,286.5c-11.3-15.6-22.7-20-22.8-20l.2-.7c.1,0,11.7,4.5,23.1,20.3l-.6,.4Z" fill="#f7941d"/>
            <path d="M306.6,288.2l-.7,.2c-3.6-11.3-16-28.4-16.1-28.6l.6-.4c.1,.2,12.6,17.3,16.2,28.8Z" fill="#f7941d"/>
          </g>
          <path d="M270.9,239.4c-10.4-6.2-22.9-4.5-27.8,3.8-4.9,8.3-.5,20,10,26.2,9.9,5.9,22.4,3.5,27.1-2.8l1.6,2.1s3.3-2.9,2.2-3.6c-.5-.3-1.5-.5-2.5-.6,3.1-7.3-.7-19.1-10.6-25Z" fill="#f7941d"/>
          <path d="M317.8,233.1c.2-12.1-7.5-22.1-17.2-22.2-9.6-.1-17.6,9.6-17.7,21.7-.1,11.6,8.1,21.1,16,22.1l-1,2.4s4.2,1.4,4.2,0c0-.5-.3-1.5-.7-2.5,7.9-.9,16.2-10.2,16.3-21.7Z" fill="#f7941d"/>
          <path d="M293.8,230.5c-5.9-10.6-17.6-15.3-26-10.6-8.4,4.7-10.4,17.1-4.5,27.7,5.7,10.1,17.6,14.2,24.9,11.1l.3,2.6s4.4-.9,3.7-2.1-1-1.1-1.8-1.8c6.3-4.7,8.9-16.9,3.3-26.9Z" fill="#009ee2"/>
          <g>
            <path d="M290.5,230.8c.6,.8,1.1,1.7,1.5,2.6-.3-1.5-.9-3-1.7-4.4-4.1-7.4-12.2-10.7-18-7.4s-1,.6-1.4,1c6.4-2.3,14.6,.9,19.6,8.2Z" fill="#e6e7e8"/>
            <path d="M293.5,234.8c.2,.4,0,.9-.3,1.2s-.9,0-1.2-.3,0-.9,.3-1.2,.9,0,1.2,.3Z" fill="#e6e7e8"/>
          </g>
          <g>
            <g>
              <path d="M314,230.5c0,1,0,2,0,3,.5-1.5,.8-3,.8-4.6,.2-8.4-5-15.4-11.7-15.6-.6,0-1.2,0-1.7,.1,6.7,1.3,12.1,8.3,12.7,17.1Z" fill="#e6e7e8"/>
              <path d="M314.6,235.5c0,.5-.4,.8-.9,.8-.5,0-.8-.4-.8-.9,0-.5,.4-.8,.9-.8,.5,0,.8,.4,.8,.9Z" fill="#e6e7e8"/>
            </g>
            <g>
              <path d="M252.8,264.8c.8,.6,1.7,1.1,2.6,1.5-1.5-.4-3-.9-4.4-1.7-7.3-4.2-10.5-12.3-7.2-18.1,.3-.5,.6-1,1-1.4-2.3,6.4,.8,14.6,8,19.7Z" fill="#e6e7e8"/>
              <path d="M256.8,268c.4,.2,.9,0,1.2-.3,.2-.4,0-.9-.3-1.2-.4-.2-.9,0-1.2,.3-.2,.4,0,.9,.3,1.2Z" fill="#e6e7e8"/>
            </g>
          </g>
        </g>
        <g>
          <g>
            <path d="M298.7,287.8h-.3c-3.7-7.5-2.4-13.2-2.4-13.3h.3c0,.1-1.3,5.7,2.3,13.3Z" fill="#f7941d"/>
            <path d="M298.9,288.7c-5.3-7.4-10.7-9.5-10.8-9.5v-.3c.2,0,5.7,2.1,11.1,9.6l-.3,.2Z" fill="#f7941d"/>
            <path d="M299.4,289.5h-.3c-1.7-5.3-7.6-13.3-7.6-13.4l.3-.2c0,0,6,8.2,7.7,13.6Z" fill="#f7941d"/>
          </g>
          <path d="M282.5,266.4c-4.9-2.9-10.8-2.1-13.1,1.8-2.3,3.9-.2,9.5,4.7,12.4,4.7,2.8,10.6,1.7,12.8-1.3l.8,1s1.6-1.4,1-1.7c-.2-.1-.7-.2-1.2-.3,1.5-3.4-.4-9-5-11.8Z" fill="#f7941d"/>
          <path d="M304.7,263.4c0-5.7-3.6-10.4-8.1-10.5-4.6,0-8.3,4.5-8.4,10.3,0,5.5,3.8,10,7.6,10.4l-.5,1.1s2,.7,2,0c0-.3-.2-.7-.3-1.2,3.7-.4,7.7-4.8,7.7-10.2Z" fill="#f7941d"/>
          <path d="M293.4,262.2c-2.8-5-8.3-7.3-12.3-5-4,2.2-4.9,8.1-2.1,13.1,2.7,4.8,8.3,6.7,11.8,5.3l.2,1.2s2.1-.4,1.8-1-.5-.5-.9-.8c3-2.2,4.2-8,1.6-12.7Z" fill="#009ee2"/>
          <g>
            <path d="M291.8,262.3c.3,.4,.5,.8,.7,1.2-.2-.7-.4-1.4-.8-2.1-2-3.5-5.8-5-8.5-3.5s-.5,.3-.7,.5c3-1.1,6.9,.4,9.3,3.9Z" fill="#e6e7e8"/>
            <path d="M293.2,264.2c.1,.2,0,.4-.2,.5s-.4,0-.5-.2,0-.4,.2-.5,.4,0,.5,.2Z" fill="#e6e7e8"/>
          </g>
          <g>
            <g>
              <path d="M302.9,262.2c0,.5,0,1,0,1.4,.2-.7,.4-1.4,.4-2.2,.1-4-2.4-7.3-5.5-7.4-.3,0-.6,0-.8,0,3.2,.6,5.7,3.9,6,8.1Z" fill="#e6e7e8"/>
              <path d="M303.2,264.6c0,.2-.2,.4-.4,.4-.2,0-.4-.2-.4-.4,0-.2,.2-.4,.4-.4,.2,0,.4,.2,.4,.4Z" fill="#e6e7e8"/>
            </g>
            <g>
              <path d="M274,278.5c.4,.3,.8,.5,1.2,.7-.7-.2-1.4-.4-2.1-.8-3.5-2-5-5.8-3.4-8.6,.1-.2,.3-.5,.5-.7-1.1,3,.4,6.9,3.8,9.3Z" fill="#e6e7e8"/>
              <path d="M275.9,279.9c.2,.1,.4,0,.5-.1,.1-.2,0-.4-.1-.5-.2-.1-.4,0-.5,.1-.1,.2,0,.4,.1,.5Z" fill="#e6e7e8"/>
            </g>
          </g>
        </g>
      </g>
      <g>
        <rect x="26" y="287.6" width="282" height="2" fill="#f7941d"/>
        <rect x="26.9" y="317.2" width="282" height="2" fill="#f7941d"/>
      </g>
    </g>
  </g>
  <g>
    <g>
      <path d="M31.5,18.5c0,.3-.1,.6-.3,.8l-3.7,3.7-4-2.3v-2.3c0-.6,.5-1.2,1.2-1.2s1.2,.5,1.2,1.2h0v2.8l3.7-3.7c.5-.5,1.2-.5,1.7,0,.2,.2,.3,.5,.3,.8" fill="#fff"/>
      <path d="M30.3,29.3c-.2,0-.3,0-.4,0-.1,0-.3-.1-.4-.3l-3.7-3.7v2.8c0,.6-.5,1.2-1.2,1.2s-1.2-.5-1.2-1.2v-2.2l4-2.3,3.7,3.7c.7,.7,.2,2-.8,2" fill="#fff"/>
      <path d="M27.3,23.2c0,0,0-.1-.1-.1h0l-1-.6-2.7-1.5-2.3-1.3c-.1,0-.3,0-.4,0,0,0,0,0,0,.1v6.9c0,.1,.1,.3,.3,.3,0,0,0,0,.1,0l2.3-1.3,3.7-2.1s0,0,0,0c0,0,0,0,0,0,0,0,0,0,0,0,0,0,0,0,0-.1Zm-.9,.1c0,0,0,0,0,.1l-2.8,1.6-1.8,1c0,0-.2,0-.3,0,0,0,0,0,0-.1v-5.3c0-.1,0-.2,.2-.2,0,0,0,0,.1,0l1.8,1,2.8,1.6c0,0,.1,.1,0,.2h0Z" fill="#fff"/>
      <path d="M25.6,23.4s0,0,0,0l-2.1,1.2-1.3,.8c0,0-.2,0-.2,0,0,0,0,0,0,0v-4c0,0,0-.2,.2-.2,0,0,0,0,0,0l1.3,.8,2.1,1.2s0,0,0,0c0,0,0,0,0,0" fill="#fff"/>
    </g>
    <g>
      <path d="M50.9,23.2c0,0,0,0-.1-.1l-3.3-1.6-2-1c-.2,0-.4,0-.3,.2v5.4c0,.2,.3,.3,.4,.2l2-1.1,3.2-1.7c0,0,0,0,.1-.1,0,0,0,0,0-.1Zm-.8,.1s0,0,0,0l-2.5,1.3-1.5,.8c-.1,0-.3,0-.3-.1v-4.2c0-.1,0-.2,.1-.2,0,0,0,0,0,0l1.6,.8,2.5,1.3s0,0,0,0c0,0,0,0,0,0h0Z" fill="#fff"/>
      <path d="M49.4,23.3s0,0,0,0l-1.9,1-1.2,.6c0,0-.1,0-.2,0,0,0,0,0,0,0v-3.2c0,0,0-.1,.1-.1,0,0,0,0,0,0l1.2,.6,1.9,1s0,0,0,0c0,0,0,0,0,0" fill="#fff"/>
      <path d="M33.9,20.5h2.8c1.4,0,2.4,.7,2.4,1.8s-1,1.9-2.4,1.9h-1.5v1.9h-1.3v-5.6Zm2.7,2.7c.7,0,1.1-.3,1.1-.8s-.5-.8-1.1-.8h-1.3v1.6h1.4Z" fill="#fff"/>
      <path d="M44.5,25.1v1.1h-4.5v-5.6h1.3v4.5h3.2Z" fill="#fff"/>
      <path d="M52.4,24l-2.5-3.6h1.6l1.6,2.4,1.6-2.5h1.5l-2.4,3.6v2h-1.3v-2Z" fill="#fff"/>
      <path d="M57,20.7h.7v3.1l3.2-3.2h.9l-2.6,2.6,2.9,3h-.9l-2.4-2.6-1,1v1.7h-.7v-5.6Z" fill="#fff"/>
      <path d="M62.5,23.5c0-1.6,1.5-2.9,3.2-3s3.2,1.3,3.3,2.9c0,1.6-1.4,3-3.2,3s-3.3-1.3-3.3-2.9Zm5.7,0c0-1.3-1.2-2.3-2.5-2.3s-2.5,1.1-2.5,2.4,1.2,2.3,2.5,2.3c1.4,0,2.5-1.1,2.5-2.4h0Z" fill="#fff"/>
      <path d="M69.9,25.5l.4-.5c.5,.5,1.2,.8,2.1,.8,1,0,1.5-.5,1.5-1,0-.6-.6-.8-1.7-1.1-1.3-.2-2.1-.6-2.1-1.6,0-.9,.9-1.6,2.1-1.6,.8,0,1.6,.3,2.2,.8l-.4,.5c-.5-.4-1.2-.7-1.8-.7-.8,0-1.3,.5-1.3,1,0,.6,.6,.8,1.7,1,1.2,.2,2.1,.6,2.1,1.6,0,.9-.7,1.6-2.2,1.7-1,0-1.9-.3-2.5-.9Z" fill="#fff"/>
      <path d="M75.9,20.7h.7l2.4,3.9,2.3-4h.7v5.7h-.6v-4.3l-2.3,4-2.4-3.9v4.3h-.7v-5.7Z" fill="#fff"/>
      <path d="M83.4,23.5c0-1.6,1.5-2.9,3.2-3s3.2,1.3,3.3,2.9-1.4,3-3.2,3-3.3-1.3-3.3-2.9Zm5.7,0c0-1.3-1.2-2.3-2.5-2.3s-2.5,1.1-2.5,2.4,1.2,2.3,2.5,2.3,2.5-1.1,2.5-2.4h0Z" fill="#fff"/>
      <path d="M90.8,25.5l.4-.5c.5,.5,1.2,.8,2.1,.8,1,0,1.5-.5,1.5-1,0-.6-.6-.8-1.7-1.1-1.3-.2-2.1-.6-2.1-1.6,0-.9,.9-1.6,2.1-1.6,.8,0,1.6,.3,2.2,.8l-.4,.5c-.5-.4-1.2-.7-1.8-.7-.8,0-1.3,.5-1.3,1,0,.6,.6,.8,1.7,1,1.2,.2,2.1,.6,2.1,1.6,0,.9-.7,1.6-2.2,1.7-1,0-1.9-.3-2.5-.9Z" fill="#fff"/>
    </g>
  </g>
  <g>
    <g>
      <rect x="93.8" y="102" width="147.3" height="2.1" fill="#f7941d"/>
      <rect x="93.8" y="155" width="147.3" height="2.1" fill="#f7941d"/>
    </g>
    <g>
      <circle cx="118.5" cy="303.4" r="4" fill="#f7941d"/>
      <circle cx="202.9" cy="303.4" r="4" fill="#f7941d"/>
    </g>
    <g>
      <path d="M30.4,193.2c0,.6-.5,1.1-1.1,1.1h-9.5c-.6,0-1.1-.5-1.1-1.1v-4.6h-1.1v4.6c0,1.2,1,2.2,2.3,2.2h9.5c1.2,0,2.2-1,2.2-2.2v-4.6h-1.1v4.6Zm-1.1-11.8h-9.5c-1.2,0-2.3,1-2.3,2.3v4.6h1.1v-4.6c0-.6,.5-1.1,1.1-1.1h9.5c.6,0,1.1,.5,1.1,1.1v4.6h1.1v-4.6c0-1.2-1-2.3-2.2-2.3Z" fill="#fff"/>
      <path d="M28.1,186.3c0-1.9-1.5-3.4-3.4-3.4s-3.4,1.5-3.4,3.4,.2,1.2,.5,1.7h0l3,6,3-6h0c.3-.5,.5-1.1,.5-1.7m-3.4,1.7c-.9,0-1.7-.8-1.7-1.7s.8-1.7,1.7-1.7,1.7,.8,1.7,1.7-.8,1.7-1.7,1.7" fill="#fff"/>
    </g>
    <rect x="242" y="186.1" width="71.9" height="18" fill="#f7941d"/>
  </g>
</svg>