<?xml version="1.0" encoding="UTF-8"?><svg id="Layer_1" xmlns="http://www.w3.org/2000/svg" width="335.1" height="335" xmlns:xlink="http://www.w3.org/1999/xlink" viewBox="0 0 335.1 335"><defs><linearGradient id="linear-gradient" x1="167.8" y1="841.6" x2="167.8" y2="681.2" gradientTransform="translate(0 -506)" gradientUnits="userSpaceOnUse"><stop offset=".4" stop-color="#fff"/><stop offset=".4" stop-color="#f8f8f8"/><stop offset=".5" stop-color="#e7e7e7" stop-opacity=".9"/><stop offset=".6" stop-color="#cbcaca" stop-opacity=".8"/><stop offset=".7" stop-color="#a4a2a2" stop-opacity=".6"/><stop offset=".8" stop-color="#716f6f" stop-opacity=".4"/><stop offset="1" stop-color="#353132" stop-opacity="0"/><stop offset="1" stop-color="#231f20" stop-opacity="0"/></linearGradient><mask id="mask" x="-.5" y="175.2" width="336.6" height="160.4" maskUnits="userSpaceOnUse"><g id="mask-2"><g id="mask-2"><rect x="-.5" y="175.2" width="336.6" height="160.4" fill="url(#linear-gradient)"/></g></g></mask></defs><g><rect width="335" height="335" fill="#0071bc"/><g><g><path d="M282.2,24.5v.7c3-.3,5.8-.7,8.7-1.1v-.7c-3,.4-5.8,.8-8.7,1.1Z" fill="#999"/><path d="M256.5,26.4v.7c2.9,0,5.8-.2,8.7-.4v-.7c-2.9,.2-5.8,.3-8.7,.4Z" fill="#999"/><path d="M333.4,15.2c.6-.2,1.1-.3,1.6-.5v-.7c-.6,.2-1.2,.4-1.8,.5,0,.2,.1,.4,.2,.7h0Z" fill="#999"/><path d="M307.8,20.5v.7c3-.6,5.9-1.2,8.7-1.8l-.2-.7c-2.9,.6-5.7,1.2-8.6,1.8h.1Z" fill="#999"/><path d="M230.8,26.2v.7c2.8,.1,5.7,.2,8.6,.3v-.7c-2.9,0-5.8-.2-8.6-.3Z" fill="#999"/><path d="M155.2,13.1l-.2,.7c2.8,.8,5.6,1.6,8.3,2.4l.2-.7c-2.8-.8-5.6-1.6-8.3-2.4Z" fill="#999"/><path d="M180,19.5v.7h0c2.8,.6,5.6,1.2,8.4,1.7v-.7c-2.7-.5-5.5-1.1-8.3-1.7h0Z" fill="#999"/><path d="M130.8,4.7l-.2,.6c2.7,1.1,5.4,2.1,8.2,3.1,0-.2,.2-.4,.2-.6-2.7-1-5.4-2-8.1-3.1h0Z" fill="#999"/><path d="M205.3,23.9v.7c2.9,.4,5.7,.7,8.6,1v-.7c-2.8-.3-5.6-.6-8.5-1h-.1Z" fill="#999"/><path d="M92,3.4c2.3,3.5,3.6,5.3,6,8.8,2-4.1,4.1-8.1,6.1-12.2h-20.4c-.7,1.1-1.3,2.3-2,3.4h10.3Z" fill="#f7941d"/><path d="M116.6,15.3c2.6,3.3,3.9,5,6.7,8.2,2.4-6.1,4.8-12.1,7.3-18.2l.2-.6c.3-.8,.7-1.7,1-2.5-2-.8-3.7-1.5-5.3-2.1h-12.5l-7.5,16.2c4.1-.3,6.1-.5,10.1-.9h0Z" fill="#1ac9ff"/><path d="M155.9,10.6c-6.5-2-9.7-3.1-16.1-5.4-.3,.8-.6,1.7-.9,2.5,0,.2-.2,.4-.2,.6-2.3,6.1-4.5,12.3-6.8,18.4,4-.7,6-1,10-1.8,2.9,3.1,4.3,4.6,7.3,7.6,1.9-6.3,3.8-12.6,5.8-18.8l.2-.7,.8-2.5h-.1Z" fill="#f7941d"/><path d="M180.6,17c-6.6-1.4-9.9-2.2-16.4-4-.2,.8-.5,1.6-.7,2.5l-.2,.7c-1.7,6.3-3.5,12.7-5.2,19,3.9-1,5.9-1.5,9.7-2.6,3.1,2.8,4.7,4.2,7.9,7,1.4-6.4,2.8-12.9,4.2-19.3v-.7c.3-.8,.5-1.6,.7-2.5h0Z" fill="#1ac9ff"/><path d="M281.9,21.8c-6.7,.8-10.1,1.1-16.9,1.5,0,.9,.1,1.7,.2,2.6v.7c.5,6.6,.9,13.1,1.3,19.7,3.4-2.2,5.1-3.4,8.4-5.7,3.9,1.7,5.8,2.5,9.8,4-.8-6.5-1.5-13-2.3-19.5v-.7c-.2-.9-.3-1.8-.4-2.7h-.1Z" fill="#1ac9ff"/><path d="M307.2,17.7c-6.7,1.4-10.1,2-16.8,3l.4,2.7v.7c1.1,6.5,2,12.9,3,19.4,3.2-2.5,4.8-3.8,7.9-6.3,4,1.3,6,2,10.1,3.2-1.3-6.3-2.6-12.7-3.9-19v-.7c-.3-.9-.5-1.9-.7-2.8v-.2Z" fill="#f7941d"/><path d="M333.2,14.5c-.3-1-.6-2-.9-3-6.6,1.9-9.9,2.8-16.6,4.4,.2,.9,.4,1.9,.7,2.8l.2,.7c1.5,6.3,3,12.6,4.4,18.9,3-2.8,4.5-4.2,7.4-7,2.7,.6,4.5,1.1,6.7,1.5v-12c-.5-1.9-1.1-3.7-1.6-5.6,0-.2-.1-.4-.2-.7h-.1Z" fill="#1ac9ff"/><path d="M205.6,21.4c-6.7-.9-10-1.4-16.7-2.7l-.5,2.5v.7c-1.3,6.5-2.6,13-3.8,19.4,3.8-1.3,5.7-2,9.5-3.4,3.3,2.6,5,3.8,8.4,6.3,.9-6.5,1.7-13.1,2.6-19.6v-.7c.1-.8,.2-1.6,.3-2.5h.2Z" fill="#f7941d"/><path d="M230.9,23.7c-6.7-.3-10.1-.6-16.8-1.3,0,.8-.2,1.7-.3,2.5v.7c-.7,6.6-1.4,13.1-2.1,19.7,3.7-1.6,5.5-2.5,9.2-4.2,3.5,2.3,5.3,3.4,8.9,5.6,.3-6.6,.6-13.2,.9-19.8v-.7c0-.8,.1-1.7,.2-2.5h0Z" fill="#1ac9ff"/><path d="M256.4,23.8c-6.8,.2-10.1,.3-16.9,.1v3.2c-.1,6.6-.3,13.2-.4,19.8,3.6-1.9,5.3-2.9,8.8-4.9,3.7,2,5.6,2.9,9.4,4.8-.2-6.6-.5-13.1-.7-19.7v-3.3h-.2Z" fill="#f7941d"/></g><g mask="url(#mask)"><rect y="175.8" width="335" height="159.2" fill="#231f20"/></g><g><g><g><path d="M305,284.7l-.6,.3c-7.9-16.2-5-28.3-5-28.4l.7,.2c0,.1-2.9,12,4.9,28h0Z" fill="#f7941d"/><path d="M305.5,286.5c-11.3-15.6-22.7-20-22.8-20l.2-.7c.1,0,11.7,4.5,23.1,20.3l-.6,.4h0Z" fill="#f7941d"/><path d="M306.6,288.2l-.7,.2c-3.6-11.3-16-28.4-16.1-28.6l.6-.4c.1,.2,12.6,17.3,16.2,28.8Z" fill="#f7941d"/></g><path d="M270.9,239.4c-10.4-6.2-22.9-4.5-27.8,3.8-4.9,8.3-.5,20,10,26.2,9.9,5.9,22.4,3.5,27.1-2.8l1.6,2.1s3.3-2.9,2.2-3.6c-.5-.3-1.5-.5-2.5-.6,3.1-7.3-.7-19.1-10.6-25h0Z" fill="#f7941d"/><path d="M317.8,233.1c.2-12.1-7.5-22.1-17.2-22.2-9.6-.1-17.6,9.6-17.7,21.7-.1,11.6,8.1,21.1,16,22.1l-1,2.4s4.2,1.4,4.2,0-.3-1.5-.7-2.5c7.9-.9,16.2-10.2,16.3-21.7v.2h.1Z" fill="#f7941d"/><path d="M293.8,230.5c-5.9-10.6-17.6-15.3-26-10.6s-10.4,17.1-4.5,27.7c5.7,10.1,17.6,14.2,24.9,11.1l.3,2.6s4.4-.9,3.7-2.1-1-1.1-1.8-1.8c6.3-4.7,8.9-16.9,3.3-26.9h.1Z" fill="#009ee2"/><g><path d="M290.5,230.8c.6,.8,1.1,1.7,1.5,2.6-.3-1.5-.9-3-1.7-4.4-4.1-7.4-12.2-10.7-18-7.4s-1,.6-1.4,1c6.4-2.3,14.6,.9,19.6,8.2h0Z" fill="#e6e7e8"/><path d="M293.5,234.8c.2,.4,0,.9-.3,1.2s-.9,0-1.2-.3,0-.9,.3-1.2,.9,0,1.2,.3Z" fill="#e6e7e8"/></g><g><g><path d="M314,230.5v3c.5-1.5,.8-3,.8-4.6,.2-8.4-5-15.4-11.7-15.6-.6,0-1.2,0-1.7,.1,6.7,1.3,12.1,8.3,12.7,17.1h0Z" fill="#e6e7e8"/><path d="M314.6,235.5c0,.5-.4,.8-.9,.8s-.8-.4-.8-.9,.4-.8,.9-.8,.8,.4,.8,.9Z" fill="#e6e7e8"/></g><g><path d="M252.8,264.8c.8,.6,1.7,1.1,2.6,1.5-1.5-.4-3-.9-4.4-1.7-7.3-4.2-10.5-12.3-7.2-18.1,.3-.5,.6-1,1-1.4-2.3,6.4,.8,14.6,8,19.7h0Z" fill="#e6e7e8"/><path d="M256.8,268c.4,.2,.9,0,1.2-.3,.2-.4,0-.9-.3-1.2-.4-.2-.9,0-1.2,.3-.2,.4,0,.9,.3,1.2Z" fill="#e6e7e8"/></g></g></g><g><g><path d="M298.7,287.8h-.3c-3.7-7.5-2.4-13.2-2.4-13.3h.3c0,.1-1.3,5.7,2.3,13.3h.1Z" fill="#f7941d"/><path d="M298.9,288.7c-5.3-7.4-10.7-9.5-10.8-9.5v-.3c.2,0,5.7,2.1,11.1,9.6l-.3,.2h0Z" fill="#f7941d"/><path d="M299.4,289.5h-.3c-1.7-5.3-7.6-13.3-7.6-13.4l.3-.2s6,8.2,7.7,13.6h-.1Z" fill="#f7941d"/></g><path d="M282.5,266.4c-4.9-2.9-10.8-2.1-13.1,1.8-2.3,3.9-.2,9.5,4.7,12.4,4.7,2.8,10.6,1.7,12.8-1.3l.8,1s1.6-1.4,1-1.7c-.2-.1-.7-.2-1.2-.3,1.5-3.4-.4-9-5-11.8h0Z" fill="#f7941d"/><path d="M304.7,263.4c0-5.7-3.6-10.4-8.1-10.5-4.6,0-8.3,4.5-8.4,10.3,0,5.5,3.8,10,7.6,10.4l-.5,1.1s2,.7,2,0-.2-.7-.3-1.2c3.7-.4,7.7-4.8,7.7-10.2h0Z" fill="#f7941d"/><path d="M293.4,262.2c-2.8-5-8.3-7.3-12.3-5-4,2.2-4.9,8.1-2.1,13.1,2.7,4.8,8.3,6.7,11.8,5.3l.2,1.2s2.1-.4,1.8-1-.5-.5-.9-.8c3-2.2,4.2-8,1.6-12.7h-.1Z" fill="#009ee2"/><g><path d="M291.8,262.3c.3,.4,.5,.8,.7,1.2-.2-.7-.4-1.4-.8-2.1-2-3.5-5.8-5-8.5-3.5s-.5,.3-.7,.5c3-1.1,6.9,.4,9.3,3.9Z" fill="#e6e7e8"/><path d="M293.2,264.2c.1,.2,0,.4-.2,.5s-.4,0-.5-.2,0-.4,.2-.5,.4,0,.5,.2Z" fill="#e6e7e8"/></g><g><g><path d="M302.9,262.2v1.4c.2-.7,.4-1.4,.4-2.2,.1-4-2.4-7.3-5.5-7.4h-.8c3.2,.6,5.7,3.9,6,8.1h-.1Z" fill="#e6e7e8"/><path d="M303.2,264.6c0,.2-.2,.4-.4,.4s-.4-.2-.4-.4,.2-.4,.4-.4,.4,.2,.4,.4Z" fill="#e6e7e8"/></g><g><path d="M274,278.5c.4,.3,.8,.5,1.2,.7-.7-.2-1.4-.4-2.1-.8-3.5-2-5-5.8-3.4-8.6,.1-.2,.3-.5,.5-.7-1.1,3,.4,6.9,3.8,9.3h0Z" fill="#e6e7e8"/><path d="M275.9,279.9c.2,.1,.4,0,.5-.1,.1-.2,0-.4-.1-.5-.2-.1-.4,0-.5,.1-.1,.2,0,.4,.1,.5Z" fill="#e6e7e8"/></g></g></g></g><g><rect x="26" y="287.6" width="282" height="2" fill="#f7941d"/><rect x="26.9" y="317.2" width="282" height="2" fill="#f7941d"/></g></g></g><g><g><path d="M31.5,18.5c0,.3-.1,.6-.3,.8l-3.7,3.7-4-2.3v-2.3c0-.6,.5-1.2,1.2-1.2s1.2,.5,1.2,1.2h0v2.8l3.7-3.7c.5-.5,1.2-.5,1.7,0s.3,.5,.3,.8" fill="#fff"/><path d="M30.3,29.3h-.4c-.1,0-.3-.1-.4-.3l-3.7-3.7v2.8c0,.6-.5,1.2-1.2,1.2s-1.2-.5-1.2-1.2v-2.2l4-2.3,3.7,3.7c.7,.7,.2,2-.8,2" fill="#fff"/><path d="M27.3,23.2s0-.1-.1-.1h0l-1-.6-2.7-1.5-2.3-1.3h-.4v7c0,.1,.1,.3,.3,.3h.1l2.3-1.3,3.7-2.1h0v-.4h.1Zm-.8,.1h0l-2.8,1.7-1.8,1h-.3v-5.4c0-.1,0-.2,.2-.2h.1l1.8,1,2.8,1.6s.1,.1,0,.2h0Z" fill="#fff"/><path d="M25.6,23.4h0l-2.1,1.2-1.3,.8h-.2v-4s0-.2,.2-.2h0l1.3,.8,2.1,1.2h0" fill="#fff"/></g><g><path d="M50.9,23.2h0l-3.3-1.7-2-1c-.2,0-.4,0-.3,.2v5.4c0,.2,.3,.3,.4,.2l2-1.1,3.2-1.7h0v-.2h0Zm-.8,0h0l-2.5,1.3-1.5,.8s-.3,0-.3-.1v-4.4h0l1.6,.8,2.5,1.3h0v.3h.2Z" fill="#fff"/><path d="M49.4,23.3h0l-1.9,1-1.2,.6h-.2v-3.2h0l1.2,.5,1.9,1h0" fill="#fff"/><path d="M33.9,20.5h2.8c1.4,0,2.4,.7,2.4,1.8s-1,1.9-2.4,1.9h-1.5v1.9h-1.3v-5.6Zm2.7,2.7c.7,0,1.1-.3,1.1-.8s-.5-.8-1.1-.8h-1.3v1.6h1.3Z" fill="#fff"/><path d="M44.5,25.1v1.1h-4.5v-5.6h1.3v4.5h3.2Z" fill="#fff"/><path d="M52.4,24l-2.5-3.6h1.6l1.6,2.4,1.6-2.5h1.5l-2.4,3.6v2h-1.3v-2h0Z" fill="#fff"/><path d="M57,20.7h.7v3.1l3.2-3.2h.9l-2.6,2.6,2.9,3h-.9l-2.4-2.6-1,1v1.7h-.7v-5.6h-.1Z" fill="#fff"/><path d="M62.5,23.5c0-1.6,1.5-2.9,3.2-3s3.2,1.3,3.3,2.9c0,1.6-1.4,3-3.2,3s-3.3-1.3-3.3-2.9Zm5.7,0c0-1.3-1.2-2.3-2.5-2.3s-2.5,1.1-2.5,2.4,1.2,2.3,2.5,2.3,2.5-1.1,2.5-2.4h0Z" fill="#fff"/><path d="M69.9,25.5l.4-.5c.5,.5,1.2,.8,2.1,.8s1.5-.5,1.5-1-.6-.8-1.7-1.1c-1.3-.2-2.1-.6-2.1-1.6s.9-1.6,2.1-1.6,1.6,.3,2.2,.8l-.4,.5c-.5-.4-1.2-.7-1.8-.7s-1.3,.5-1.3,1,.6,.8,1.7,1c1.2,.2,2.1,.6,2.1,1.6s-.7,1.6-2.2,1.7c-1,0-1.9-.3-2.5-.9h0Z" fill="#fff"/><path d="M75.9,20.7h.7l2.4,3.9,2.3-4h.7v5.7h-.6v-4.3l-2.3,4-2.4-3.9v4.3h-.7v-5.7h0Z" fill="#fff"/><path d="M83.4,23.5c0-1.6,1.5-2.9,3.2-3s3.2,1.3,3.3,2.9-1.4,3-3.2,3-3.3-1.3-3.3-2.9Zm5.7,0c0-1.3-1.2-2.3-2.5-2.3s-2.5,1.1-2.5,2.4,1.2,2.3,2.5,2.3,2.5-1.1,2.5-2.4h0Z" fill="#fff"/><path d="M90.8,25.5l.4-.5c.5,.5,1.2,.8,2.1,.8s1.5-.5,1.5-1-.6-.8-1.7-1.1c-1.3-.2-2.1-.6-2.1-1.6s.9-1.6,2.1-1.6,1.6,.3,2.2,.8l-.4,.5c-.5-.4-1.2-.7-1.8-.7s-1.3,.5-1.3,1,.6,.8,1.7,1c1.2,.2,2.1,.6,2.1,1.6s-.7,1.6-2.2,1.7c-1,0-1.9-.3-2.5-.9h0Z" fill="#fff"/></g></g><g><g><path d="M314.4,173.6h-72.6V62.7h72.6v110.9Zm-69.6-3h66.6V65.7h-66.6v104.9Z" fill="#fff"/><rect x="244.6" y="65.6" width="66.8" height="105.2" fill="#3eff66"/></g><path d="M318,62.2c.3,0,.6-.9,.3-1.2h-.7c.1,0,.2,0,.3,.3h-.4s0,.2-.3,0c-.3,0-.2,0-.2-.8h1c.4-.2,.2-.7-.3-.7s-.2,0-.2,0c0-.2,.2-.3,.5-.3s.5,0,.3-.2h0v-.3c0,0,0,0,0-.2,.1-.2,.1-.4,.2-.7,0-.3-.2-.5-.5-.5h-.9c0-.2-.4,0-.6,0,0,.3,0,.6-.2,.7-.2,.2-.3,.2-.3,0s-.3-.6-.6-.3l-.2,.2c0-.3-.5-.6-.9-.4h-.1c-.2,0-.4,.2-.3,.5h-.3s-.5-.3-.6-.3h-1.6c-.7,0-.9,0-1.5,.3-.5,.2-.7,.2-.8,0h-.2v.3c-.1,0,0,.2-.1,.3v.3h.4s0,.3-.1,.6c0,0,0,.3-.1,.3-.1,.2,0,.4,.2,.3h.1c0,.3,.4,.6,.7,.5h1c.3-.2,.5-.6,.3-.6s0,0,0,0c0,.2-.4,.3-.6,0s-.3,0-.5-.2q-.2,0,0,0h.4c.2,.2,.3,0,.5,0h-.1c-.6,.5-1.8-.8-1.3-1.4v.3c0,.3,0,.4,.1,.5v-.2c0-.1,0-.1,.1,0,.1,.2,0,.2,.1,.2s0,0,0,0h.5c.3,0,.1,0,.1,0h0s.1,.2,.1-.2,0-.3,.1-.4c.2,0,.2-.3,0-.2-.3,0-.4-.3-.2-.7,0-.2,.2-.2,.2,0s.3,.3,.5,.2,.3-.3,.1-.4c-.1,0-.1-.3,0-.4,.1-.1,.2-.1,.2,0,0,0,.2,.2,.3,0,.2-.2,.6-.2,1.1,0h.2s.2,.2,.3,.2,0,0,0,0h.2c.2,.2,.3,.5,0,.3h-.2c-.1,0-.4-.2-.4-.2h-.4v.3h-.4c0,.2-.4,.3-.4,0h-.1c-.2,.2-.1,.5,0,.6,0,0,.1,0,0,.2,0,.2,.1,.6,.3,.7h.6c.1,0,0-.2,0,0-.2,0-.3,0-.3-.3s0-.2,.1,0c0,.2,.3,.2,.4,0v-.2c-.1,0,0-.4,.4-.4h.2c-.3,.3-.4,.4-.5,.9-.1,.6,0,.6,.5,.6v-.2c0-.4,.4-1.2,.5-.9l.2,.2c.2,.2,.3,.6,.3,.8h.3c.1,0,0-.8-.1-1.1,0-.1,0-.2,.2-.2,.2,0,.3,0,.1,0s0,0-.1,.4c0,.3,0,.2,.1,0,0-.2,.1-.3,0,0-.2,.5,0,.8-.2,.8s0,0,0,0v.3h.7s.3,.2,.4,.3c.2,.2-.3,.5-.8,.6h-.5c.3,0,.2-.5-.1-.6-.6-.2-.8,.7-.2,1.2,.3,.2,1.3,0,1.7-.3,.2-.2,.2,0,.1,0,0,.3-.3,.5-.4,.3h-.2c-.2,0-.2,.3,0,.4,0,0,.1,0,0,0h-.2q-.2,0-.2-.3c0-.3-.2,0-.2,0-.1,.4,.2,.9,.6,.8h.2c0,.2,.6,0,.6,0h0c-.1,0-.1-.2,0-.4,0,0,.1-.2,.1-.3s0,0,.2,0c.3,0,.4-.3,.2-.4,0,0-.3-.5-.3-.7s.6,.6,.6,.8h0c.2,.3,.2,1.1,0,1.1s0,.5,.3,.3h.1c.4,.4,.2-1.1-.3-1.7-.1-.1-.1-.2,0-.2l.8,1h0Zm-7.9-1.3h0s-.4,0-.5-.4c0-.3-.1-.3-.2-.2h-.1c.2,0,.1-.6,.2,0,0,.2,.3,.6,.4,.6h.2Zm-.2-1.5h0s.1-.2,.1,0,0,0,0,0h-.1Zm1,1s-.4,0-.4-.2h-.2c0-.2-.1-.3,0-.3,0,0,0-.2,0,0h0v-.2c0-.2,.1-.4,.2-.5v.2c0,.3,.1,1,.3,.9h.1s.3,0,.2,.2h-.2Zm0-.5q.1,0,0,0h0c0,.2,0,0-.3,0-.3-.2-.4-.5-.3-.7,0-.2,0-.3,.1-.2s.4,0,.3,0h-.2c-.1,0-.2,0-.1,0h0c0,.3,.1,.6,.4,.6v.2h.1Zm.9-1.5c-.2,0-.2,.3-.1,.4,0,.1,0,.2,0,.3-.2,0-.4,0-.4-.3h-.2c-.2,.2-.2,0,0-.2s.3-.2,.3,0,0,.4,.2,.4,0,0,0,0c-.2,0,0-.5,.2-.7q0,0,0,0v.2h0Zm1.7-.1c-.4-.2-.8-.2-1.1,0h.4c.2,0,.7,.2,.8,.3h-.2v-.3h.1Zm-.6,1.9q0,.1,0,0v-.7h0v.6h0Zm1.8,2s.1-.2,.3-.3h.2s-.5,.2-.5,0h0v.3Zm.6,.7h-.1c-.2,0-.5-.4-.4-.5h0v.3h.3s0,.3,0,.2h.2Zm1.2,.9h-.5s0,0,.1,0h.4Zm1.1-4.1c-.2,0-.1,0,0,0,.2,0,.3,0,.1,0s0,0,0,0h-.3c.2,0,.3,0,.2,0h0Zm.2,.2v-.2c.1-.2,.4-.7,.4-.8s0,0,0,0c.1,0-.4,1-.5,1h.1Zm-.5-1.2h.2c.2-.2,.8-.3,.8-.3,.1,0-.2,1-.4,1-.8,0-.7,0-.6-.7Zm-.1,1.4s0,0,.2,0c.1,0,.1,0,0,.2-.2,.2-.3,.2-.2,0h0v-.2Zm-.1,.5h.2c.2-.3,.4-.2,.2,0-.1,0,0,0,0,0,.3,0,.6,0,.6,.2s0,0-.1,0c0-.2-.5-.2-1,0-.4,0-.6,.2-1,.3h-.2c.3,0,.8-.3,.9-.4h.4Zm-.7,.6q-.3,0,0,0c.3,0,.4-.2,.4,.2h-.4v-.2Zm.6-1.5h0s.1-.2,.2-.2,0,0,0,.2,0,.3,0,0h-.2Zm0,.2h0Zm0-1.4v.6h0v-.2c0-.2,.1-.4,.2-.4h-.2Zm0-.2c.1,0,0,0,0,0-.1,0,0,0,0,0Zm-.2,.3v.3h-.3l.3-.4h0Zm0,.9h-.1c0-.2,.2,0,.1,0Zm.1,.3c0,.5-.1,.8-.4,.9h-.4c-.1,0-.2-.1-.1-.4,.1-.7,.1-.6,.9-.6h0Zm-.8-.6h.1c.1,0,0,0-.1,.3-.2,.2-.3,.3-.1,.2v.2h0v-.5c.1-.3,0-.8,0-.9-.2-.3,.5-.3,.2,.6h-.1Zm-1.2-.3c.1,0,.2,0,0,0s-.1,.3,0,.5q0,.2,0,0c-.2-.3-.2-.7,0-.8h0v.3Zm-.4,0s0-.2,.1-.2c0,0-.1,.3-.1,.2Zm-.5,2.3h0s0,.3-.2,0c0,0,0-.3,.1-.3s.1,0,0,0h.1v.3Zm0,0c-.1,0-.2,0,0,0h0Zm.2-.4h0s0-.2,0,0h0Zm.1-.2q0,0,0,0h0Zm1.1,.8h0c-.3-.8-1.5-1.5-1.9-1,0,0-.2,0-.1,0,.1-.3,.7-.3,1.2,0,.3,.2,.1,0-.5-.3h.1c.3,0,.5,.2,.8,.5,.3,.4,.4,.5,.5,.9h-.1Zm.3-1.2c-.2,0-.4,0-.2-.2h.2v.2Zm-.2-.3h-.2c-.3,0-.4-.3-.2-.5,.3-.2-.2-.4,0-.4s.2,0,.3,.2c0,.1,0,.2,.1,.2v-.3c.3,.3,.3,.2,.3,.8h-.3Zm.7,3.4h-.2s.2,0,.3,0,0,0,0,0h0Zm.3,0h-.2l.2-.2v.2Zm.3-.2h-.3c.1,0,.2-.2,.2,0h0Zm.8,.6v.2s-.2-.3-.2-.4-.2-.5-.3-.6h0c.2,.5,.2,.9,0,1h-.3c.5-.5-.1-1.6-1.1-1.9h.4c.1,0,.4,.2,.4,.3,0,0,.1,0,.3,.2,.3,.2,.4,.3,.5,.6,0,0,0,.3,.1,.4l.2,.2Zm.3-1h-.4c-.2,0-.1,0,0,0h.4s0,.2-.2,.3h.2v-.3Zm.6,1.7v.2s-.1,0-.1-.2,0-.2,.1,0Zm-.1,.4h0v-.2s.1,0,0,0v.2Zm-78.9,104.9c-.1,0-.3,.3-.2,.4h.1c.3,0,.3-.3,0-.4h0Zm.1,.3h0Zm1.1,7.3h0v-.5s0,.6-.1,.6h.1Zm34.5-115.6h-30.7s-.2-.2-.4-.2-.2,0-.1,.3c0,0,.1,.2,.2,0h.2c0,.2-.2,.3-.4,0-.3-.2-.9,0-1.1,0-.1,.1-.3,.2-.4,.2h-.2s0,.3-.1,.4c-.3,.2-.3,.7-.1,1,.1,.2,.1,.4,0,.5s-.3,0-.2-.2c.1,0-.1-.3-.3,0s-.2,.4,0,.5h.1v4.9h0v36.5c0,20.2-.3,66.7,0,66.5,0,0,.1-67.3,.2-67.2h0c-.2-.2,0-31.1,.1-40.7h.2c.2,0,.4,0,.4-.2s0-.2,.1,0h.4c.2,0,.1-.5,0-.5s0,0,0,0c0,0,0-.2-.1-.2h-.2s.3,0,.5,.2c.1,.2,.2,.4,0,.6-.1,.3,0,.4,.3,0,.1,0,.2-.2,.3,0h0c-.2,0,0,.5,.1,.4v-.4s.2,0,.1,0,0,.2,.2,.3c.6,.2,.2-.2,.2-.4h-.3s0-.2,0,0,.4,0,.4,0c0,0-.2-.2-.3,0,0,0-.3,0-.1-.2s.2-.3,0-.3h-.5c-.3,0-.5-.4-.4-.5h.2c0,.2,.1,.2,.2,0h0c0,.3,.4,.3,.5,0,0-.1,0-.2,.2-.2s.2-.2,0-.2-.1-.2,0-.2c.2,0,.2-.3,.2-.5h6.4c.2-.2,40.7,0,40.7,0h20.5c0,.3,0,.7,.2,.7s.2,0,0,.2v.2s.1,0,.1,.2v.2s.3,0,.3-.2,0,0,.2,0h.1s0-.2,.2-.2v.3c-.2,.2-.5,.4-.7,.3-.2,0-.4,0-.2,0h0v.3s-.2,.2-.2,0,0,0-.2,0,0,.3,.2,.2c.1,0,.2,0,.1,0,0,0-.2,.2-.2,0s0,0,0,0v.3h.3c.3,0,0,0,.2-.3,.1,0,.2,0,.1,0,0,.2,0,.3,.2,.2v-.2h.3c.2,0,.3,0,.2-.3v-.4h0s.3-.5,.4-.4c0,0,0,.2-.1,.2s-.2,0-.1,.2h0c-.3,0-.3,.5,0,.5s.2,0,.2,0c0,0,.2,.2,.2,0s.1,0,.2,0c.1,.2,.2,0,.4,0,0,39-.2,48.8-.2,48.8v8.7h0v34.8s-.1,13.8-.1,16h-.1c-.3,0-.4,.2-.4,.4-.2-.2-.3-.2-.3,0h0c-.2,.1-.3,.1-.3,.2s.1,.3,.2,.2h0c0,.1,0,.2,.1,.2h0c-.3,0-.6-.5-.5-.8s0-.4-.2-.1v.2h-.2v-.5c-.1-.2-.2,0-.2,.2s0,.3-.2,.2h0c.1-.3,0-.1-.3-.3-.2-.1-.2,0,0,.2,.1,.2,0,.3,.1,.2h.2c0,.1,0,.3,0,.2-.1-.1-.4,0-.3,.1h.3v.2c-.2,.2-.1,.4,0,.3,.3-.2,.9,.1,.9,.4s-.2,.2-.2,0,0-.2-.2,0h-.2c0-.1-.4-.2-.4,0,0,0,0,.2-.2,.3-.1,0-.1,.2,0,.2,.2,0,.2,.1,0,.2-.2,.1-.3,.6,0,.8,.2,.2,.5,0,.5-.2s-.1-.2-.2-.1h-.2c0-.2,.2-.3,.6-.1,.4,.1,.8,0,.9-.2,0,0,.3-.2,.4-.1h0s0-.1-.1,0h-.1s.1-.2,.1-.1,0,0,0,0c0,0,0-.1,.2-.2,.3-.4,.3-.7,0-1.2,0-.2,0-.4,.1-.4s.2,.2,0,.3v.2c.3,0,.4-.4,.1-.5h-.1c0-3.8,0-5.4,.1-11.2,.1-19.6,0-83.3,.2-83.5h0v-13.6c.1,0,.3-.2,.2-.4,0-.2-.2-.3-.4-.2-.1,0-.2,.2,0,.2s.1,0,0,.2h-.3v-1.1c0-.3-.5-.6-.4-.8h0c-.1,0-.3,0-.4-.2-.2-.2-.6-.3-.9-.2h-.3c-.3,0-.5,0-.3-.2h.2c.1,.2,.2,0,.1-.3,0,0-.3-.2-.4,0h-37.3l.9-.3v.7Zm-30.9,0h0Zm-2.6,2.6h0c.1,0,0,.3,0,0Zm.6-1.2s0,.3,.1,.3h0s-.2,0-.3-.3c0,0,.1-.4,.2-.3h0v.3h0Zm.5,.5h0Zm-.3-1c-.1,0,.1,0,.1,0h-.1Zm1.1,1.1h.2c.1,0,.2,.2,.2,.2,0,0-.3,0-.4-.3h0Zm0-.1h.1s.1,0,0,0c0,.2,.2,0,.2,.3s0,0,0,0l-.3-.3h0Zm-.2,0v.2c0,0,0,0,0,0h0s-.2-.2-.2-.4h0l.2,.2Zm.2-1h0s0,.2,0,0h-.2s0,.4,0,.3h0c-.3-.4,.1-.8,.5-.6q.1,0,0,0l-.3,.2h0Zm70.1,1.6v.2s-.1,0,0,0h0c-.2,.2,0,.3-.3,.3s-.3-.2,0-.4h.2v-.2s.2,0,.1,0h0q0,0,0,0h0Zm-1.1,112.2h0Zm.3-1.6h0Zm.2,0c-.1,0-.2,0,0-.1,0,0,.2,0,.2,.2s0,0-.2,0h0Zm.4,0h0l-.4-.4c0,0-.1,0-.1,0v.2c.1,0,0,.2,0,0-.1,0-.2-.3,0-.4,0,0,.2,0,.3,.2,.1,.2,.2,.1,.2-.1s.1-.2,0,0c0,.1,0,.2,.1,.4v.2h-.1Zm-.6,.8h0v-.3c-.3-.3-.1-.4-.1-.2v.4h.1Zm.1,0l-.2-.2h.2v.2Zm.8,.4c-.2,.2-.5,0-.7-.2,0,0,0-.1,0,0s.5,.3,.5,.2,0,0,0,0h0c-.1,0-.1-.3,0-.1,.1,.1,.3,0,.4-.1l-.2-.3h0s.1,0,.3,.3c.1,.2,.1,.4,0,.6l-.3-.4h0Zm.3-1.7h.2c.1,.1,0,.1,0,0h-.2Zm.5,.9s-.5,.2-.6,.1c0,0,0-.2,.2-.2h0c0-.2,0-.1,.2-.1v-.2s-.1-.2,0-.2c.2,0,.3,.5,.2,.7h0Zm.4-1.4c0-.1,0-.2,.1-.1,.1,0,0,.2-.1,.3h0v-.2Zm.3-109.1h0c0,.2,0,.2-.1,0v-.2h.1v.2Zm-1.2,0s.1-.2,.2,0h-.2Zm.4,0h-.2c.1,0,.2,0,.1,0h0Zm-.1-1.4h.1s-.2,0-.1,0Zm.1,.4c.3,0,.5,.3,.3,.6q-.1,.1,0,0v-.2h0c0,.2-.2,.2-.2,0s0-.2-.1-.2c-.2,0-.1,0,0-.2h0Zm-1.1-.5c.2-.3,.6-.3,.7,0h-.4s.2-.2,.1-.2c0,0-.4,0-.4,.2s-.1,0,0,0h0Zm-.7-.7h.1q-.1,0,0,0h-.1Zm1.5,.4c-.1,0,0,0-.2-.2v-.2c0-.2-.1-.3-.2-.2-.1,.2,0,0,0,.3s.3,.4,.5,.5c.5,.2,1-.4,.6-.7h-.6c0,0-.1,0-.1,0h0c0,.2,.1,.3,.2,.3h-.2v.2Zm.4,0c.1-.2,.3,0,.2,.2h-.2v-.2Zm-75.1,53.3h0s.6,.5,.7,.7c.2,.3,.1,.7,0,.6-.1,0-.3,.2-.2,.2h0c-.1,0-.3,.3-.4,.3v.2c.2,.2,0,.2-.2,0s-.2-.5,0-.4c0,0,.2,0,.1-.2,0-.1,0-.2-.1-.2s0,0,0,0h.5c0-.2-.5-.3-.8-.2-.5,.2-.2,1.3,.3,1.3s.2,0,0,0-.1,.3,0,.5c.3,.3,.7,0,.5-.3,0-.2-.2-.2-.2,0s-.2,.2-.2,0c0,0,.1-.2,.4-.4,.8-.5,.7-1.6,0-2.4-.1,0-.5-.2-.5,0v.3h0Zm-.1,1.6h0v.4h0s-.2-.2-.2-.4,0-.5,.1-.5,0,0,0,0h0v.5h0Zm1.2,0c0,.2,0,.3-.2,.4h-.5s.1-.2,.4-.2c0,0,.1,0,.1-.2,0-.4,.1-.5,.1,0h0Zm-.6-29.6v1h0v19.4c-.2,.3,0-.6-.1-1v-19.9h0v.5h.1Zm4.3,91.7c.1,0,.1-.2,0-.3s-.2-.1-.2,0c0,.3-.9,.1-1.5-.3-.4-.3-.6-.6-.3-.4h.3c.3,0,.4,.5,.7,.3,.1,0,.1-.1,0-.2-.1-.1,0-.1,.1-.1h.3c.2-.2,.4-.2,.4-.1,0,.2,.2,0,.2-.3s0-.2-.1-.2-.1,0-.1-.3-.3-.7-.8-.6c-.2,0-.2,.2,0,.2,.3,0,.3,.2,.3,.5h0c-.1-.4-.3-.4-.4-.2v.2c.1,.2,0,.4-.4,.4s-.2,0,0-.2c.2-.3,.4-.6,.3-1.1v-.2c.1,0,0-.5-.4-.7-.5-.3-1.2,.2-.8,.6,0,0,.4,.1,.4,0s0-.2,.2,0c.3,.2,.3,0,.2,0s0,0,0,0h-.1c0-.1,0-.2,.2-.1,.3,.3,.3,.6,0,.5-.1,0-.2,.1-.2,.3,0,1-.9,.9-1-.2,0-.2-.3-.2-.3,0v.4s.1,.6,.2,.8h-.6v.4c-.1,.4-.1,.8,0,.9v.2c-.2,0-.3-.4-.2-.7,0-.2,0-.3,0-.1-.1,.2-.2-.1,0-.2,.1,0,.3-.3,.2-.3v-.2c.2-.3,.4-1.2,.3-1.4h0c.2,0,.1-.3,0-.3-.2,0-.1,0-.4-.1-.3,0-.5-.4-.5-.5,.1-.2,.9-.4,1.1-.3h.1c0,0,0,0,0,.2-.2,.1-.2,.3,0,.5,.3,.3,.8-.2,.7-.6-.1-.3-.8-.8-.8-.5s.1,.3,.2,.2h.2c.2,0,.4,.4,.3,.4h0c.2,.1-.1,.4-.3,.3-.1,0,0-.2,0-.2,.3,0,0-.3,0-.4h-.4c0,.1,0,0,0-.2v-.2c-.3,0-.9,0-1.3,.4-.2,.2-.2,.1-.1,0,0-.2,.3-.5,.4-.4,0,0,0,0,.2,0,.2,0,.2-.3,0-.4-.1-.1,0-.2,.1,0,.1,0,.2,0,.2,.2s.1,.2,.2,0c.2-.4-.4-1-.8-.8-.2,.1-.2,0-.2-.2h-.5c-.1,.1,0,.1,0,.2,0,0,0,0,0,.3-.1,.2-.2,.3-.2,.5s0,.1-.2,0h-.2c-.1,.1-.2,.3,0,.3s.2,.3,.3,.6q0,.1,0,0h-.1s-.2-.4-.3-.4c-.1-.1-.4-.6-.4-.9s0-.6,.2-.4c0,.1,0,0,0-.2s-.2-.2-.3-.2h-.2c0-.3,.5-.6,.6-.3,0,.2,.4,0,.4-.3s-.1-.4-.2-.4,0,0,.2-.1c.3,0,.5,0,.5,.2s0,.2,.3,.1c0,0,.1,0,.1-.1s0-.1,.1,0h.2c.2,0,.3,0,.2-.2-.1-.2,0-.2-.1-.4s.4,0-.3-.5h0c.1-.2,.6,.3,.5,.5v.3c.1,.1,.1,.2,.1,.4s-.2,.3-.3,.3h0c0,.2,.3,.1,.6-.1h.1c0-1.5,0-1.6-.3-1.8-.1,0-.2,0-.2-.3v-.2h-.2s-.1,.2-.6,.2h-.5v-.5c0-.1-.2-.2-.3,0,0,0-.2,.1-.2,0s0,0-.2,0c-.3,0-.5,.2-.3,.3,.1,0,.2,.3,.1,.4h0c0,.1-.2,.6-.4,.9v.2h0c0,.1-.2,1.3,0,1.4h0c-.1,0,0,1,.2,1.4,.1,.2,.2,.3,.3,.5,.1,.1,.1,.2,0,.2-.3,0-.7,.2-.5,.3h0c-.1,.4,0,.8,.3,.8s.2,0,0,0v-.2c0-.1,0-.1,.1,0,0,.1,.3,0,.3,0,0,0,0,0,.2,0,.3,0,.4,0,.4,.2v.7h-.2c-.3,0-.5,0-.6-.2,0-.2-.3,0-.3,.2s.1,.4,.4,.4,0,.5-.4,.5h-.3c0,.3,0,.5,.2,.5h.1c-.2,.4-.2,.5-.2,.8v.4c0,.2,1,.1,1.2,0s.2-.1,.2,0,0,.1,.5,.1v-.6s.1,0,.1-.1c.1-.2,.4,0,.3,0,0,.2,0,.5,.3,.5s.5-.3,.3-.4c-.1,0-.2-.3-.2-.5v-.2h.8c0,.3,0,.4-.2,.5-.1,0,0,.2,.1,.3,.2,.1,.2,.2,0,.2s-.2,0,0,0h0c-.2,0-.3-.1-.3-.3h0v.4c0,.2,.2,.2,.8,.2h.2c.2,0,.3-.3,.2-.5,0-.1,0-.1,.1,0l.2,.2h.1c.1,0,.2,0,.3,.1,.2,0,.3,.1,.7,.1h.4v-.2h0c0,0,0,0,0-.1,.1-.1,.2,0,.1,0h0v-.4h0Zm-.6-2.3c0,0,0,0,.1,0v.3h0v-.3h-.1Zm-1.3-1.2h0c0,.1,0,.2-.1,.3-.2,0-.2-.2,0-.3s.2-.1,.2,0h0Zm-2.2-2.3c.1,0,.5,.1,.5,.2h-.4c-.2,0-.3,0-.1-.1h0Zm0-1.7h-.1c0,.2-.1,.1-.1,0,0-.2-.1-.4-.3-.4h-.1c0-.2,.3,0,.6,.3s.4,.5,.1,.3v-.2h0Zm.8,.3c0,.2,0,.1,0-.1v-.5c0-.2-.1-.5-.4-.6-.1,0-.2-.1,0-.1,.5,0,1,.9,.7,1.4h-.3Zm-.9-1.9c.2,0,.4,0,.4-.1s0,0,0,0v.2h0c0,.1,.5,.4,.5,.6s0,.2,0,0c-.2-.3-.7-.6-1.1-.6s0,0,0,0h.2Zm-.8,.3c.1,0,.6,0,.7,.1h.1c0,.1,.2,.3,.2,.4,.1,.5-.3-.6-.7-.6h-.3c-.1,0-.1,0,0-.1v.2h0Zm-.2,.6v-.2h0c0-.1,.1-.1,.1,0h0c.2,0,.5,.1,0,0h-.1v.2Zm-.2-1.6v.2c0,.2,0,.2,0,.1v-.4h0Zm-.7,2.8c.1-.3,.5-.4,.7-.2h.1c.1-.1-.2-.3-.4-.3h-.2s.2-.3,.2-.2h.2c.2-.2,.3-.2,.1-.1h-.1c0,.1,0,.2,0,.1,.2,0,.4,.3,.2,.5h-.2c-.2-.1-.3-.1-.4,0-.1,.1-.2,.1-.2,0v.2h0Zm.2,3.2c-.1,.2-.2-.1,0-.1s.1,0,0,.1Zm0-.3q0,0,0,0c0-.1,.2-.2,.3-.2l-.2,.2h-.1Zm1.9-.7h0c.1,0,.3,0,.3-.1s.1,0,.2,0c0,.1,0,.2,0,0h0s-.5,.2-.6,.2h-.1s.2-.2,.3-.1h0Zm-.2,.2c.1,0,.2,0,0,0-.2,.2-.3,0,0,0Zm-.9-.4v-.2s0,.1,.1,.2c0,.3,.2,.6,.3,.7h0c-.2-.5-.2-.8-.1-1,.1-.2,.4-.4,.5-.3h-.2c-.2,0-.3,.6-.2,.8v.2c.1,.4,.8,.9,1.2,.9s.2,.2,0,0c-.1,0-.5,0-.6-.1,0,0-.5-.2-.5-.3s0,0,0,0h-.1s-.1,0,0,0c0,0,0-.1-.2-.2-.3-.3-.2-.4-.4-.8h.2Zm.4,1.9h0c.1,0,.2,.1,.1,.2,0,0-.3,.1-.1,0v-.2Zm-1.1-3.1h0c0,.2-.1,.2-.1,.1s0-.1,.2-.1h0Zm0,.9c-.2-.5-.2-.6-.2-.7s.1,0,.2,.4c0,.3,.2,.7,.4,1v.2h0c0-.2-.2-.3-.4-.8h0Zm.4,1.5c0,.1-.1,0-.1,0,0-.2,.6-.4,.7-.2,0,0,.7,.5,.2,.2-.3-.2-.7-.1-.7,0h0Zm-.4,.8h.1c0,.2,.6,.2,1.2,0,0,0,.2,0,.4-.1,.6-.2,.2-.1-.1,0h0c0-.2,0-.3,.1-.3,.1,0,.5,.1,.5,.2s0,0,.2,0c.4,0,.2,0-.1,.1h-.3c-.1,0-.2,.1-.3,.1h-.2s-.3,.1-.3,.2h0c-.1,0-.2,.1-.2,0h0c.1-.1,0-.3,0-.1-.2,.1-.6,0-.6-.2h-.4Zm1.3,2.1h0v-.7h0c0-.1,0-.3,0-.2h0v.9Zm-.8-.7h0c0-.1,.3-.5,.4-.5v.4c-.2,0-.5,0-.3,.1,.1,.1,0,0,0,0h-.2c-.1,0-.1,0,0-.1h.1Zm-.6,1.2s0-.7,.3-.9v-.2c.1-.1,.2-.1,.2,0s0,.2-.2,.3c-.2,.3-.3,.7-.3,.8h0Zm1.7-.2c0,.1-.5,.4-.6,.4-.2,0-.2,.1-.6,.2h-.2s.8-.2,.8-.3c0-.2-.3,.2-.8,.2h-.2v-.2c0-.2,.3-.8,.4-.8h.8v.4c0,.3,0,.4,.3,.2,.2-.1,.3-.1,.2,0h0Zm.1-.5c-.2,.1-.4,.2-.3,.1v-.2c0,0,0,0,.2-.1,.1,0,.1,0,0,.2h.1Zm-.1-.6c0-.1,0,0,.2,0h0c0,.1-.3,0-.3-.2v.2h.1Zm0-.1v-.8c.2-.1,.8-.3,.9-.2,0,0,0,.8-.2,1,0,0-.7,.1-.7,0Zm1.3,.4h0c0,.1,0,.2-.1,0h.1Zm1.2-.5c0,0,.1,0,.1-.1h0v-.5c0-.2,0-.3,.1-.3,.1,0,.2,.2,.1,.2h0c-.1,0,0,.4,0,.4h0v.2s-.1,.1-.2,.1c-.2,0-.1,0,0-.1h-.1Zm-.7,.1h0s-.2-.3-.2-.5c-.1-.3,0-.6,0-.2,.2,1,1.7,1.9,1.9,1.1,0-.1,.1-.1,.1,0,0,.3-.6,.5-1.1,.3-.2,0-.3,0-.2,0,.1,.1,.5,.3,.7,.3s0,0,0,0h0c0,.1,0,.2-.2,0,0,0-.1-.1-.2-.1-.3,0-1.1-.7-1.1-.9h.3Zm.3,1.4c-.1,.1-.2,.1-.2,0h.1c.2-.3,.2-.4,0-.7,0-.1-.1-.2-.1-.2h0v.3c.2,.3,.2,.5,0,.7h.2Zm2,.4c-.2,.1-.2,0-.4,0s-1-.4-1-.6h0c.4,.3,.8,.4,1.1,.4h.2v.2h0Zm-2.4-108.2c0,0,0,0,0-.2v-1.9h0c0-.6-1.1-1.3-1.2-.9,0,.1,0,.3,.2,.5,.4,.4,.5,.6,.3,.8-.2,.2-.5,.2-.5,0s-.2,0-.3,.3c0,.2,.2,.4,.3,.4s0,0,0,0c0,.3,.2,.4,.2,.3h.1c.2,0,.5-.3,.5-.4s0,0,0,0v.4c-.2,.5-.8,.7-1.1,.3h-.1s-.3,.2-.3,.3-.1,0-.2,0c-.2-.3,0-.8,.2-.6,.1,0,.2,0,.1,0-.2-.2-.6,0-.7,.3,0,.4,.3,1,.6,1s.3,.4,.3,.9,0,.3-.2,.2h-.3v.8h0v.8c0,.3,.1,.4,.2,.4s.2,0,.1,0c0,0-.1,12.2,0,12.3h0s0,.2,0-2.1,0-2.1,0-2.2v-8h.1c.1,0,.3-.2,.2-.4h-.2s-.2,.2-.3,.2-.2-.5-.1-.5v-.2h-.1v-.5s0-.2,.2,0h.3c.1,0,0-.3,0-.4-.1,0-.2,0-.2-.2,.2,0,.3-.7,.1-1v-.2h.8c.3-.2,.2-.2,.3,0,0,0,.2,.2,.4,0l.3-.4h0Zm-1.5-1.5l.3,.2s-.4-.2-.3-.2Zm.5,.3h0v-.2h.1v.2h-.1Zm-.8,2.7s.1-.2,.1,0-.1,0-.1,0Zm.9-1.7h-.5l-.2-.2h.2c.8,.4,1.5-.9,1.1-1.9-.1-.3-.2-.3-.1,0,0,.2,0,0-.1,0-.1-.3-.7-.6-.4-.6s.8,.5,.8,.7v.2c.3,.6,0,1.7-.6,1.9h-.2Zm.5,0h0Zm-1.4-3c0-.2,0-.4,.3-.3q.2,0,0,.3c-.1,0-.3,.2-.3,0Zm69.9-7.6c-.2,0-.2-.2,0-.2s.3,.2,.2,.4h-.2c.1,0,0,0,0,0h0v-.2Zm-66.1,2.1h0c-.2,0-.1,0,0,0h0Zm-3.8,58.2h-.2s.1,0,.3,.2c.4,.3,.9-.3,.7-.8,0-.2-.3-.5-.5-.5s-.2,0-.1-.2c0-.2,0-.4-.1-.5-.3-.2-.6,0-.5,.2,0,.3,.2,.3,.2,0s.5,0-.1,.3-.8,1.1-.5,1.7v.2s.2,.3,.2,.4,0,0,0,0h.5s0-.2-.2-.2h-.1v-.2c-.5-.4-.5-1.1-.1-1,.1,0,.2,0,.1-.2q0,0,0,0c.2,0,.5-.3,.3-.4-.1,0-.1-.2,0,0,.3,0,.3,.5,0,.5s-.1,.4,0,.4,.1,0,0,0h.1Zm-.7,.2v-.2h0s-.1,.3-.1,.2h.1Zm.4-.7h-.2c0-.2,.5-.4,.6-.3h-.3v.2h-.1Zm.3-.9h-.2q0,0,0,0h.2Zm.4,1.3c0-.4,.2-.3,0,0,0,0-.2,.3-.2,.2s.1-.2,.1-.3h0Zm-.7,42.7s0-13.7,.1-18.3v-16.3h0v-6.1c.1,0,0,40.9,0,41h0v-.3h-.1Zm0-48.6v-4.5c0-1.1,0-2.1,0-1.8v7.3c0,.2,0,0,0-.3v-.7Zm74-50.3s-.3,.4-.4,.4,.4-.5,.4-.4Zm-10.2-3.5h.6c.2,0,.6-.2,.6,0s.2,.2,.3,0c.1,0,.1-.2,0-.3-.2-.2,.3-.3,.8-.2,.3,0,.4,.1,.4,.4s.2,.6,.3,.7h0c-.1,0-.2,.2-.1,.4,0,0,.2,.2,.3,0h.7c.5,0,1.2,0,1.4-.2h.1c.3,0,.8-1,.6-1.1-.2,0-.6,0-.6,.3s-.4,.3-.5,.3c-.4,0-.5-.4-.2-.6q.1,0,0-.2c-.2-.2-.7,0-.7,.3s0,0-.2,0-.3,0-.2,.2v.2c0,.2,.2,.4,.4,.4s.1,0,0,0h-.4c-.5-.3-.7-.7-.3-1v-.2c.1,0,0-.3-.1-.3s0,0,0-.2c.3-.2,.5,0,.5,.2s0,.2,.1,0c0,0,0-.4-.1-.5-.3-.3-1.2,0-1.2,.5s0,.2-.2,0-.8-.2-.9,0h-.7v.3h0s-.5,.2-.6,0h-.6l-.2-.2s.2,0,.3-.2c.2,0,.1,0,0,0-.5,0-.5,.7,0,.7h.4v.3Zm3.1,1.1h-.1s-.1,0,0-.2c0,0,.2,0,.1,0h0v.2Zm1.6-.2h.2s.2,0,0,0h-.2q0,0,0,0Zm-.7-.9c0-.2,.3-.3,.3,0h-.1c-.1,.3-.2,.3,0,0h-.2Zm-1.1,0h0c0-.2,.3-.4,.2,0-.4,.7,.9,1.5,1.8,1.1,.2,0,.3-.2,.2-.2s0,0,0,0c.1,0,.7-.8,.5-.3,0,.2-.5,.6-.8,.7-.7,.3-2.1-.2-2-.7h0v-.4h0v-.2Zm-1.5-.3h0Zm-51.5,117.6c-.3,0-.3-.2-.4,0h-.7s0-.1-.1-.1c-.3,0-.4,.2-.2,.4s0,.2,0,.2c-.6,0-.7,0-.9-.2-.1,0-.1-.1-.1-.4s0-.3-.3-.7c.1-.1,.3-.2,.1-.5h-.2c-.1,0-.3,.1-.6,0-.8-.2-1.9,.1-2.1,.6h0c-.1,0-.3,.7,0,.7s.1,0,.4-.3c.2-.2,.5-.3,.7-.3,.3,.2,.3,.4,0,.6v.2h.3c.1,0,.4-.2,.4-.3s0-.1,.1,0c.2,0,.3,0,.2-.2v-.2c0-.1-.2-.4-.3-.4s-.2,0-.1-.1h.3c.6,.2,.9,.9,.4,1.1-.2,.1,0,.4,.1,.4s0,0,0,.2c-.2,.1-.5,.2-.6,0v-.3h-.2c-.1,.1,0,.4,.1,.5,.4,.3,1,0,1.2-.5,0-.1,0-.2,.2-.1,.2,.2,.7,.3,1,.1h.6c.2,0,.2-.3,0-.4h.6c0-.3,.5-.1,.6,0,0,.1,0,.2-.2,.2s-.2,.2,0,.2c.5,0,.4-.7,0-.7l-.3,.2h0Zm-3-.9c0-.2,.2,0,0,.1,0,0-.1,0,0-.1Zm-1.1,1.2c-.1,.1-.2,.1-.2,0h0s.1,0,.2-.2c0-.1,.1-.1,.1,0,0,0,0,.1-.1,.2Zm.1-.5h0c0,.1,0,.2,0,0s0,0,0,0c0,0,0-.1,0,0h0Zm1.1,.4h0c0,.2,0,.1-.1,.1h0c.5-.8-.6-1.6-1.7-1.4-.3,0-.6,.3-.3,.2h.1l-.2,.2s-.2,.1-.3,.2c-.2,.3-.3,.3-.3,.1,0-.8,1.8-1.2,2.5-.5s.5,.9,.3,.9v.2Zm1.7,.3h0s.1-.1,.1,0,0,0,0,0h-.1Zm29.8-118.1h16.4c4.7,0,4.6,0,4.6,0h-21Zm-38.3,113.3c0,.1,0,.1-.2,0s0-.2,0-.2c0,0,.1,0,.1,.1h0Zm3.7,4.8c.1,0,.2,.2,.1,.3h-.3c0-.2,0-.4,.2-.3Zm15.9-1.6h-5.4c-5.8,0-6.5-.2-6.7-.1h-.2c-.6,0-4.4,0-6.1-.1h.4c4.3,0,6.6,0,8.6,.2h5.5c3.7,0,3.8,0,3.8,.1h.1Zm15.9-115.8c.2,0,.1-.2,0-.2h-.1c0-.3,.3,0,.5,.3l.2,.3h.1s.5,.3,.7,.2h.5c.1,0,.5-.2,.5-.3,.2-.2,.5-.2,.4-.7,0-.2-.1-.3-.2,0,0,0-.5,.6-.7,.7-.3,.2-.7,0-.6,0,0,0-.1-.2-.2,0h-.1v-.2c-.1-.2-.3-.2-.4,0s-.2,0,0,0c.1-.2,.4-.3,.4,0s.4,.3,.4,0,.3,0,.1,.3v.2c.2,0,.4-.6,.2-.8-.4-.4-1.4-.2-1.3,.4h0c-.3-.2-.7,0-.7,.4s.2,.4,.5,.2l-.2-.3v-.5Zm.6-.5s.1,0,.2,.4v.2c-.1,0-.2-.5-.1-.6h-.1Zm0-.6h0Zm-1,.4c.2,0,0,0,0,.2h0v-.2Zm33.4,116.2h-28.8s-7.7,0-16.4-.1c-3.6,0-3.5,0-3.5,0h.7c1.9,0,40.6,.2,41.2,.1h2.3c4.4,0,4.7-.1,4.7,0h-.2Zm-2.7,2c0-.2-.3-.2-.3,0v.2c.2,.2,.4,0,.3-.2Zm-.2,.1h.1q0,0,0,0h-.1Zm-1.6-1.2c.2,0,.6,.2,.7,.3h-.2c-.2,0-.5-.2-.7-.3h.2Zm4.4,2.6h-.1c-.3,0-.6-.6-.3-.7,.1,0,.1-.1,0-.1-.2,0-.3,.4-.2,.6,0,0,0,.1,0,.1h-.3l-.2-.2c-.2,0-.2-.2,0-.2s0,0-.2,0h-.2c0-.1,0-.2,.2-.2h0c.1,.4,.4,.7,.5,.4,0-.2,.2-.3,.4-.2,.1,0,.1,.2,0,.3-.2,.1,0,.5,.2,.6h0c-.2-.3-.2-.4,0-.5,.1-.1,.1-.3,0-.4-.2-.1-.5,0-.5,.1s0,0-.2,0c-.1-.3,0-.5,0-.6,.1,0,.2,0,.1,0h0c.1,0,0-.2,0-.3-.3-.3-.3,0-.1,0h-.1c-.2,0-.4,.1-.4,.4s-.1,.3-.2,.2c0,0,.2-.7,.3-.7s.3-.2,.3-.3c0,0-.6,.4-.7,.5,0,.1,0,.7-.1,.6,0-.2-.1-.2-.1-.4v-.2h0c0-.1,.1,0,0,0,0,.1,0,0,.1-.1,0-.2,.2-.4,.3-.3h.2c.2-.2,.4-.2,.4,0s0,0,0,0v-.3h-.1c-.2,.1-.4,.2-.5,.1h-.1v.2c0,.1-.1,.2-.1,0s.4-.6,.6-.6c0,0,.2,0,.3-.1,.3-.2,.5-.2,.6,0,0,.2,.2,.2,.2,0,0-.7-1-.6-1.7-.6h-.1c-.2,.4-.1,.6-.3,.5-.2,0-.5,.1-.3,.3s.2,.8,.2,1h-.5v.2h0c-.1,.2-.1,.5,0,.6h.2c.1-.2,.4-.2,.5,0,.2,.1,.1,0,.5,.2,.3,.1,.7,.3,1.2,.3s.6,0,.6-.1c0,0,0-.1,0,0h-.3Zm-2.4-2.4c-.1-.2,0-.2,0-.1,0,0,.1,0,.2-.2,.1-.2,.3-.4,.4-.4s.1,0,0,.2c-.2,.2-.4,.6-.5,.9,0,.2,0,.3-.1,.3v-.7Zm.2,1.6h-.4s-.2,.1-.2,0c-.1-.1,.1-.3,.3-.2h.2s.3,0,.2,.1h-.1Zm.1-.3s-.1-.2-.1-.3,0-.1,0,0v.3h.1Zm.2-1.1c.3-.5,.8-.8,1.3-.6,.2,0,.2,.1,0,0h-.3s-.1,.1-.2,0c-.2,0-.7,.4-.7,.7s0,.1,0,.1v-.2h0Zm.2,1.6c0,0,0,0-.1,0-.3-.4-.4-.7-.3-.7s0,0,0,0c0,0,0,.2,.2,.5,0,.1,.1,.2,.1,0h-.2l.3,.2Zm.5,.3s-.3-.1-.3-.2c0,0,.2,.1,.3,.2h0Zm-35.3-119.4c.4-.6,1.2-.9,1.2-.4s0,0,.2,0h.2v.2c.2,.2,.2,0,.2,.2h.2c.1,0,.2,0,0,0-.1,.3-.5,.4-.5,0s0-.2-.2-.2-.2,0-.2,.2h-.1v-.5c-.4,0-.4,.8,0,1s1,0,1.1-.4c0,0,0-.2,.1,0,.2,.2,.6,0,.6-.5s-.3-.3-.5-.2c-.1,0-.2,.2,0,.2,0,0,.2,0,.1,.2,0,.2-.2,0-.4-.3-.3-.6-1.2-.8-1.8-.5-.5,.3-.7,.5-.7,.7,0,.3,.1,.4,.3,0h.2v.3Zm1.7,.6h-.6c-.2-.2-.1-.2,0,0h.6Zm-.2-1.2c.1,0,.3,.2,.4,.5,0,.1,0,.1-.2,0v-.4s-.1,0,0,0h-.2Zm31.6,118.2h0c0,.1,.1,.5,0,.5s0,0-.1-.1c0-.2-.3-.4-.4-.4h-.2c-.2-.2-.8-.3-.8-.4,0-.2-.8,0-1,.3s-.3,.7-.2,.9v.3s-.2-.1-.2,0,0,0,0,0v-.9c.3-.8,1.8-1,2.4-.3,0,0,.1,.1,.2,0s-.5-.5-1-.6h-1.5c-.1-.1-.3,0-.3,.2s.1,.2,.2,.2h0c-.5,.3-.2,1.8,.4,2h.5c.3-.1,.4-.4,.2-.6h0c0,.4-.2,.5-.5,.4s-.4-.3-.2-.3h.2c.1-.1,.1-.2,0-.2-.2,0-.3-.4-.2-.7,0-.2,.6-.6,.8-.6s0,.1,0,.2c0,0-.1,0-.2,.2-.2,.3-.4,.6,0,.6s.1,0,.2,.2v.2h.6v-.2c-.4-.6,.3-.8,.8-.2,.3,.3,.6,.3,.6,0s-.2-.6-.3-.4v-.3h0Zm-2.7-.5s0-.1,.1,0h-.1Zm1.5,1.2c-.1,.2-.4,0-.4-.3h-.1c0-.2,0-.3,.2-.2,.2,.1,.1,0,.1,.1h0c.1,.1,.1,.2,0,.3h.2Zm-32.7,.3h-9.6c-.2-.1-10-.2-11.2-.2h-.2s.2,0,4.7,.1c10.1,.2,16.3,.1,16.3,.2h0Zm30.8-.2c-.1,0-.7,.1-.7,0h-.2c-.1,0-.2-.1,0-.1v-.3c-.1-.1-.4,0-.4,0,0,0,0,0-.2,0-.1,0-.6-.1-.6-.2s-.2,0-.2,0h-.2c-.2,0-.4,.1-.4,.3,0,0-.3,.1-11.8,0-8.4,0-9.4,0-9.3,0h21.1c0,.1,0,.2,.1,.2h.2c-.1-.1-.2-.2-.2-.3,0-.2,.4-.3,.5-.2h.6c.2,0,.3,0,.2,.2-.2,.3,.3,.5,.4,.2,0-.1,.2-.2,.3,0,.2,.2,.8,.1,1,0,0-.1,0-.2,0-.1l-.2,.3h0Zm-1.3,.1s-.2-.1-.2-.2h.1v.2h.1Zm.3-.2c0,.1-.2,0-.1,0,0,0,.2,0,.1,0Zm-26.8-.2c.1,0,.2,.1,0,.2,0,0-.2,0-.4-.3-.3-.5-.4-.6-.9-.7-.3,0-1,.2-1.1,.3h-.1c-.2,0-.5,.6-.3,.8,0,0,.3-.2,.3-.3s.1-.2,.2-.2h.1s.8-.5,.8,0,.2,.2,.3,.1c.2-.1,0,0,.2,.3,0,0,.1,.1,.1,.2,0,0,.2,0,.2-.1s.2,0,0,.2c-.1,.2-.5,.2-.4,0,0-.1-.1-.2-.3-.1,0,0-.1,0-.1,.2s0,.3,.2,.2c0,0,.3,0,.3,.1h-.5c-.1,0-.2-.2-.1-.2s0,0,0-.1v-.3h0c0-.3-.4,.2-.4,.5s0,.2,.4,.3c.4,.2,1.1,0,1.1-.5s0-.2,.1,0c.2,.3,.6,0,.6-.4,0-.7-.9,0-.5,0l.2-.2h0Zm-.9-.1v-.3s.2,.4,.2,.5c0,.3-.2,0-.2-.2Zm4.3,.5c-.4,.6-1.4,.9-1.2,.4,0-.1-.1-.2-.3,0h0c0-.3-.3-.6-.4-.3h-.1c0-.1,.2-.3,.3-.3s.2,0,.2,.2h0c.1,.1,.3,.1,.3,0s.2,0,.1,.3v.3c.2,0,.4-.5,.3-.7-.3-.6-1.3-.5-1.4,.1v.2h-.1c-.3-.3-.6,0-.6,.4s.2,.3,.5,.2c.1,0,.1-.2,0-.2s-.1,0-.1-.1c0-.2,.2-.1,.4,.3,0,.2,.3,.4,.5,.5h1c.3,0,.7-.4,.9-.6v-.3c0-.2,0-.2-.3,0v-.3h0Zm-1.8-.7c.3-.1,.7,0,.7,.1h-.4c-.1,.1-.1-.1-.4,0h0Zm-.9,.3h0v.2h0c0-.2,0-.3,.2-.3h-.2Zm1,.9s-.2-.5-.1-.6c0,0,.2,.2,.2,.4v.2h-.1Zm.4,0h0s-.2-.1-.1-.1h.1Zm.1,.3h0Zm-39.1-10.3c.2-.4,.2-.8,.1-1.4v-.5c.1-.3-.2-.5-.3-.2h0c0,.1,0,0-.2,0-.2-.2-.4-.2-.6-.2-.4,0-.5-.5-.3-1,0-.2,0-.3,.1-.1,.1,.1,.3,0,.3,0v-.3c-.1,0-.1-.1,0-.2,0,0,.1-.6,.2-.7h0v-.2c0-.5-.7-.7-.7-.2s.1,.2,.2,0c0-.2,.2-.2,.3,0,.1,.1,.2,.5,.1,.5s0,.2,0,.3v.5c0,0,0,0-.2,0h-.3v.3c.1,0,.2,.2,0,.3-.2,.2-.1,.8,0,1,0,0,0,.1-.2,.2-.2,0-.5,.3-.6,.5v.6h0s.4,.2,.5,.2h0c-.1,0-.2-.1-.3-.2-.2-.3,.2-.7,.2-.8v.2c0,.1,0,.3,.2,.3h.1c0-.1,.3-.3,.4-.2,.2,0,.5,.2,.5,.3s0,0,0,0c0,0,.2,.5,.2,.6h-.1s-.2-.4-.4-.4h-.1c-.1-.2-.3,0-.2,.3,0,.1,.1,0,.1,0,0-.2,.3-.2,.3,0s0,.1,0,.1c0,0,0,.2-.1,0-.1,0-.2,0-.2,0,0,.1-.1,0-.4,0s-.2,0,0,0,.2,0,0-.1c0,0-.1,0-.2,.1-.2,.2-.1,.7,0,.6,.2-.1,.3-.2,.4-.1,.2,0,.3,.5,.1,.5s0,0,0,.1c0,0,0,.1-.1,.2-.1,0-.2,.3-.3,.3,0,0,0,.3,.1,.3,.4,0,.8-.2,1.1-.8l.3-.7h0Zm-1.1-3.9h0c0,.1-.1,.1-.1,0h.1Zm0,3.1h0s.3-.1,.3,0h-.3Zm1.1-1.3v.2h0c0-.2,0-.3,0-.2Zm-.7,2.5s.1-.1,.1-.2v-.2c0-.1,.2-.4,.2-.6s0-.1,0-.1c0,0,0,.4-.1,.6s0,.2,0,.2c.1,0,.3-.7,.3-1.2,0-.8-.9-1.4-1.3-.8h-.1c0-.3,.6-.4,.9-.3,.9,.4,.9,1.9,.1,2.6-.2,.1-.3,.2-.3,.2-.2,0-.1-.1,.2-.3h0Zm8.3-107.8c.3,0,.2,0,.6,.2h1.7s0-.3-.1-.3,0,0,0-.2c.2-.2,.2-.3,.2-.6s0-.3,.1-.2c.1,.2,.7,.2,1,0h.6c.1,0,.1-.2,0-.3l.2-.2h1s0,.2-.2,.3h-.2c0,.2,.4,0,.5,0h20.9c.2,0,.3,0,.1,0h-20.8s-.3-.4-.5-.3h-.4s-.4,0-.5,.2h-.7v.3c.2,.2-.6,.3-.9,0h-.2c0,0,0,0,0,0-.1-.7-1.4-.9-1.3,0,0,.2,.1,.3,.1,0s.3-.4,.7-.2c.2,0,.2,.2,0,.2s-.3,.4-.1,.4,.2,.2,.2,.3c0,.3-.5,.8-.8,.8s-.1,0,0,0c.3,0,.5-.9,.3-.8h-.3c0-.2-.1-.3-.4-.3s-.4,.2-.2,.3c.1,0,.1,.3,0,.4h-.4s-.2,0-.3-.2c-.4-.4-.6-.3-.6,0s.2,.6,.6,.8v-.6Zm4.1-1.5h0Zm-1.7,1.5h0c.2,0,0,0,0,0Zm-.9-1h-.2v-.3h0s.2,0,.2,.2h0Zm-.9,.9h.2c.4,0,0,0-.2,0s-.1,0,0,0h0Zm-.3,0s.2,0,.2,.2,0,0-.2,0-.1,0,0,0h0v-.2Zm-.6-.5s.5,.4,.5,.5c0,.2,.6,.4,1.1,.4s1.3-.6,1-1.1c0-.2,0-.3,0-.2,0,0,.1,.5,0,.6v.2c0,.3-.5,.6-.9,.7h-.5c-.6,0-1.6-.7-1.3-1h0Zm70.6,112.8h0v-1.2c0-.1,0-.4-.1-.5-.4-.7-.4-.9-.2-1.1,.2-.2,0-.3-.2-.3h-.6v.6s-.1,0-.5-.1c-.2,0-.4,0-.5-.1-.2-.1-.5,0-.3,.3h-.2c-.3,.2-.5,.6-.4,.8h0c-.2,.3,0,1.1,.3,1.2s.4,0,.2-.1c-.2,0-.2-.5,0-.6,0,0,.1,0,0-.2,0-.2,.4-.7,.6-.6,.1,0,0,0-.2,.2-.2,.1-.3,.2-.2,.3,.1,0,0,0,0,.3v.4h.5s.2,.2,.3,.2v-.2c0-.3,.3-.4,.6-.2,.2,.1,.3,.2,.1,.2s-.3,.3-.2,.5c.1,.2,.2,.2,.3,.1,.1-.1,.4,0,.5,0,0,.2,.2,.3,.1,.3v.2s.1,.2,0,.3v.2c0,.6-.4,.6-.2,.4,.1-.2,.1-.6,0-.8v-.2h0s-.2,0-.3,.1v.3c.3,.1,0,1.3-.6,1.7q-.1,.1,0,0c.2-.3,0-.4,.3-.5,.2,0,.2-.2,0-.4h-.2c-.1,.1,0-.2-.3-.4-.1-.1-.1-.3,0-.4,0,0,0-.2-.2-.2s-.2,0-.3,.2h-.3c-.4,0-.7,.4-.7,.7s0,.3,.1,.3h0c0-.2,0-.4,.1-.5h.3c-.1,0-.2,.2-.2,.3s.2,.2,.3,.1c.1-.2,.4,0,.4,.4s0,.2-.1,0-.6-.4-.9-.4h-.3c0,.3,0,.5,.2,.5,.2,0,.3,0,.4,.1,.1,0,.4,.3,.4,.3,0,0-.4,.4-.5,.4s-.4,.2-.5,.2-.1,0-.1,.1v.2c.3,0,.9,0,1.1-.2,.2,0,.4,0,.2,.1h0c0,.1,0,.3-.1,.1h-.3c-.2,0-.3,0-.2,0,.3,0,.2,.2-.1,0-.6-.1-.6,0-.5,.4,.2,.5,.2,.6,.3,.8,.1,.3,.1,.5,.3,.6,.2,0,.2,.4,0,.2,0,0-.1,0,0,.1,0,.3-.1,.7-.3,.5h0c.2,0,.2-.6,0-1-.1-.3-.3-.7-.3-1v-.6c0-.2,0-.3-.1-.3s-.1,0-.2,.2c0,.5-.3,.9-.5,.9s-.6-.9-.4-1.1c0,0,0-.2,.1-.3h.1c.2,.3,.5,.3,.5,0s0-.3-.1-.5c-.4-.4-1.1,0-1.1,.6v.6c0,.4,.2,.7,.4,1,.2,.2,0,.2-.3,0-.4-.2-.3-.3-.1-.4-.2-.2-.3-.4-.5-.2-.1,.1-.2,0,0-.1,0-.1,.1-.2,.2-.2h.1c0-.1-.5-.1-.7,0-.2,.2-.4,.6-.2,.7h0c-.2,.1-.2,.5,0,.7s.1,.1,.2-.1h.4c.2,.1,.3,.2,.4,.2h0v.3h.3s0-.1,.2-.2c0,0,.2,0,.4-.2,.3-.2,.1,0-.3,.4-.6,.5-1.3,.6-1.4,.3,0-.1-.1-.2-.2,0,0,0-.1,.3,0,.3h0v.2s1,0,1.2-.2c.3-.2,0,.1,.7-.5v.2c0,.3,.2,.5,.3,.3h0c.2,.2,.7,0,.8-.3,0-.1,0-.1-.1,0h-.3c.1,0,.1-.3,0-.3-.2,0-.1-.1,0-.5h.4v-1.1q0-.1,0,0v.9c0,0,0,0,.2,.1h.2v.2c0,.4-.1,.5-.3,.6h.1c.2,.4,.6,.2,.6-.2s.5-.1,.5,.3v.3h.6v-.3h0c.3,.3,1.4,.4,1.2,.2v-1.8h-.3c-.5,0-.8-.5-.3-.5s.6-.4,.3-.6h-.1s0,.1-.2,.1,0,0-.1,0h-.6v-.6c0-.4,.4-.5,.5-.2,0,.2,.3,.2,.3,0h0c0,.2,0,.3-.2,.3-.3,0-.2,.1,0,.1,.5,0,.5-.2,.5-1.1-.1,0-.2-.2-.4-.1-.1,0-.1,0,0-.2,.4-.4,.6-1.6,.4-1.8v.5h.1Zm-2.8-2c0-.1,.4-.4,.5-.4s.1,0,0-.1v-.2h0s0,.1,.2,.1,.2,0,0,.1c-.2,0-.6,.3-.7,.4-.1,.1-.2,.1-.1,0h.1Zm.3,.6s0,.2-.1,.3c0,0-.1,.2-.1,.3s0,.1-.1,0c-.3-1,1.3-1.8,1.9-1.1,.1,.1,0,.1-.2,0-.6-.3-1.3,0-1.4,.4h0Zm.4,.6s0-.2,.1-.3h0v-.2c.2-.2,1-.3,1,0s0,0,0,0c-.2-.1-.7,.1-.9,.4,0,.1-.2,.2-.2,.2h0Zm.4,0q0,0,0,0c0-.1-.1-.1-.2,0h0s.4-.5,.5-.6h.4s-.1,.2-.2,.1c-.2,0-.5,.2-.5,.4h0Zm.9-.2v.2c0,0,0,0-.1,0h-.4s0-.1,.1,0h.1c0-.2,.3-.2,.2,0v-.2h0Zm.2-.4h0c.1,.2,0,.1-.1,.1-.1-.1-.1-.2,0-.2h.1Zm.4,1.7h-.6c-.2-.2,0-.5,.3-.4,0,0,0,0,0-.2-.2-.2-.1-.3,0-.2,0,0,.1,0,0,0,0,0,0,.2,.1,.2s0,0,0,0h0c.1,.2,0,.2-.1,.1-.3-.1-.7,0-.5,.2h0c0-.2,.7-.2,.7,0h-.2l.3,.3h0Zm-1.6,1.1h-.6c.1,0,.2-.2,.3-.1h.2s.1,0,0,0h.1Zm-.7,1.2h-.1c-.1,0,0,0,0,0h.2c.3,0,.1,.3,0,.1h-.1Zm.6-.1h-.1s0-.1,.1-.1c0,0,.1,0,0,.1Zm-3.6,2.1v.4c0,.2,0,.3,0,0v-.6s.1,0,0,.1h0Zm1.2,2c-.3,.3-.9,.5-1.1,.5s-.4,.3-.4,0,0,0-.1,0-.2-.1-.2-.2h.1c0,.1,.9,0,1.3-.4,.2-.1,.3-.2,.2,0h.2Zm-.2-2.7c.2-.3,.6-.4,.8-.2,0,.2,0,.3-.1,.3h0c0-.4-.4-.1-.4-.1h0v.2c-.1,0-.1,0,0-.2h-.3Zm-.1,.3c0-.1,.2-.1,.3,0,0,.1,0,0-.3,0h0Zm.1,.9h0v-.2h0v-.2h0c0-.3,0-.2,0-.1v.2h0c.1,.1,.1,.5,.3,.7v.2c.1,0-.1,0,0,0h0s-.2-.2-.3-.4v-.2Zm.7,2.1s-.2-.2-.1-.2l.2,.2h-.1Zm.4-.4h-.2c-.1-.1-.2-.4,0-.5,0,0,0-.1,.1-.2,.1-.2,.2-.2,0,0-.2,.3-.2,.5,0,.6v.2h.1Zm-.1-1.5h0v.2h0s0-.1,0,0c-.2,.4-.3,.5-.6,.6-.2,0-.3,.1-.4,.1,0,0-.1,0-.1,.1h0c0-.1,0-.2,.4-.3,.2,0,.4-.2,.4-.2,.1-.1,0-.1-.2,0-.3,.2-.7,.1-.9,0-.2-.2-.1-.2,0,0,.5,.4,1.6-.2,1.7-.8,0-.1,0-.3,.1-.4h0s-.3,1.1-.4,1v-.3h0Zm3.5-1.9h-.1c0-.1,.2,0,.1,0Zm-.1-.4c.1,0,.2,0,0,.1h-.1s0-.1,.2-.1h-.1Zm-1.7-.4h0Zm0,1c-.4,.2,0,.1-.7,.3q-.1,0,0,0c.3-.1,.4-.2,.6-.3,.3-.2,.7-.9,.6-1.2v-.2h0c0-.1-.1-.2,0-.3,0,0,.2,.1,.3,.2v.8c0,.2-.1,.3,0,.2,0,0,.3-.5,.3-.7s0-.2,.1-.1c.1,.1-.2,.8-.5,1-.2,.2,0,.1-.3,.3h-.4Zm.5,.5v.2s-.3-.1-.2-.1h0c0-.1,0-.2,.1-.2s0,0,0,0v.2h.1Zm-1.1,1.1c0-.1-.2-.5-.2-.7v-.3h.4c.8,.2,.7,.2,.6,1h-.8Zm1,.1h-.5s.4-.1,.4,0h.1Zm-.1-.3q0,0,0,0v.2c.1,0-.1,0-.1-.2h.1Zm.5-.2c0,.1,.2,.2,.2,.3,0,.2-.3,0-.4-.1,0-.2,0-.3,.1-.1h0Zm-.3,1.1v.2s-.2-.2-.1-.2h.1Zm-.5-.2c-.2-.3-.2-.2,.2-.2,0,.4,0,.5-.2,.2Zm.3,.4q0,0,0,0l.8,.4h.1c.1,.2-.8-.2-1-.4h.1Zm1.4-.6s.2,.3,.1,.3c0,0-.2-.2-.1-.3Zm-.4-.6c.1,.1,.3,.4,.3,.5h-.1s0-.1-.1-.2c0-.1-.1-.3,0-.2h0Zm.2,.4v.2c.2,.2,.4,.8,.3,.8,0,0-.5,0-.8-.2h-.2v-.9h.7Zm.1-1.2c.2-.1,.3,0,.1,.1,0,.1-.4,.2-.7,0h-.1s.2,.1,.2,.2-.2,0-.3-.2c-.2-.2-.3-.3-.3-.2h-.3c-.4-.2-.2-.2-.1-.1h.6c.2,.2,.8,.2,1,0v.2h-.1Zm-.4-1.1c-.2-.2-.3-.2-.6,0-.3,.1-.3,.2-.2,0,.3-.4,1-.4,1,0s0,.1-.2,0h0Zm.1-7.9v-.5h0c0-.2-.4-.5-.6-.5s-.2,0-.1-.1c.2-.1,.3-.7,.2-1v-.4s.1-.2,0-.3h-.3s-.2,0-.2-.1c0-.2-.1-.3,0-.3s.1-.2,0-.2,0-.5,.1-.6c.1,0,.2,0,.2,.2s.1,.2,.1,0c0-.5-.4-.5-.7,0v.7h0c0,.1,.1,.4,.1,.5h-.1c-.3,.4-.1,.7,.2,.5,.3-.2,.4,.4,.2,.9v.2h-.4c-.3,0-.5,.1-.6,.3h-.2c0-.1-.2-.1-.3,0,0,0,0,.1,0,.3v.6c-.3,.4,.2,2,.8,2.2,.5,.2,.7-.1,.3-.6-.4-.4-.4-.6-.2-.8,.1-.1,.3-.1,.4,0,0,.1,.1,.1,.2,0,.1-.3,0-.6-.3-.6h0c0-.1,0-.3-.2-.2h-.1c-.1,0-.4,.2-.4,.3s0,0,0,0c0,0,0-.6,.2-.6s0,0,0,0h0c0-.2,.5-.1,.7,0h.1c0,.1,.2,0,.2-.2,0-.3,.3,0,.3,.4s-.1,.4-.3,.3c-.1,0-.2,0,0,.1,.1,.2,.5,0,.6-.3v-.2h0Zm-.7-2.5h0s-.1-.1,0-.2c0,0,.2,0,.1,.1h-.1Zm-.4,2.9s.4,.1,.4,.3,0,.1-.1,0c0,0,0-.1-.1-.1,0,0-.2-.1-.1-.1h0Zm-.9-1.2h-.2s.1-.2,.2-.1h0Zm.5,1.1c.1-.1,.1,.2,.2,0h0c0,.1-.2,.2-.2,0s-.2,0,0-.1h0Zm0,.4c.1,0,.2,0,0,0h0c0,.1,0,.2-.2,.1-.1,0,0-.3,.1-.3v.2h.1Zm.9-.9c-.7-.7-1.7,.7-1.2,1.7,.2,.3,.2,.2,0,0,0-.1-.1-.4,0,0,.3,.6,.7,.7,.5,.8,0,0-.2,0-.3-.2-1-.9-.7-2.5,.5-2.7h.4v.2q0,0,0,0v.2h.1Zm0,2.8v.2c.2,.2,.5,0,.3-.2,0-.1-.2-.1-.3,0Zm0,.2c0-.1,.1,0,.1,0,0,0-.1,.1-.1,0Zm-1.5,8.7s-.1,.2-.1,0,.1,0,.1,0ZM237.9,63.3c0,1.2,.1,2.1,.3,2.6v.2s.2,.3,.1,.4h0v.2c-.2,0,0,.3,.3,.3h.6s.1,0,0,0v-.5h0c.2,0,.7,0,.9,.2s.4,0,.3-.2h.1c.3,0,.6-.6,.5-.7v-1.1c-.3-.2-.6-.3-.7-.3,0,0,0,.2,.2,.2s.1,.4,0,.6v.2c-.1,.2-.4,.6-.6,.6s0,0,0-.2h.3v-.6h0s0-.3-.2-.2h-.3c-.2-.2-.3-.2-.2,0,0,.3-.5,.4-.7,.2,0,0,0-.2,0,0,0,0,.3-.2,.3-.3,0-.2,0-.3-.2-.4h-.2s-.2,.2-.3,.2-.3-.3-.3-.3c0,0-.1,0,0,0h.3c.1,0,0-.2,0-.3-.3-.3,0-1.1,.5-1.6,.2-.2,.3-.3,.2,0v.3s0,.2-.2,.2c-.2,.2-.2,.5,0,.4h.2c0,.2,.4,.7,.2,.7s-.1,0,0,.2,.4,0,.5,0h.2c.5,0,.9-.4,.7-.9,0-.2-.2,0-.1,0,0,.1-.1,.2-.3,.3q0,0,0,0c.2,0,.1-.3,0-.4h-.2c-.1,.2-.4,0-.4-.4s0-.2,0,0c.2,.3,.8,.5,1.2,.5h.1s.4,0,.6-.2c.4-.4,.3-.8,0-1s-.7,.2-.4,.5c0,0,.1,0,0,.2h0v.2h.1c0-.1,0-.2,.1-.3,.1,0,.1,0,0,.2-.2,.2-.7,.3-.5,0,.1-.2,0-.3-.2-.3-.3,0-.6,0-.8-.3h-.1l.2-.3c.4-.4,.9-.4,1-.4v-.3h-1c-.2,0-.3,0-.2,0v-.2h.8c-.2,0-.4-.2,0,0h.6c.1,.2,.3,0,.3-.2s.2-.6,.4-.8h.3v.5h0v.7h0c-.1-.4-.6-.3-.6,0,0,.8,1.2,.5,1.3-.3v-.2s-.2-1-.4-1.2-.1-.2,.1-.2c.3,0,.4,.2,.3,.4-.2,.2,.2,.4,.4,.3h.1c0,.2-.1,.3-.3,.3s-.1,0,0,.2c.5,0,1.2-.7,.8-.8h0c.2,0,.3-.4,0-.6h-.2c0,.3-.5,0-.7,0s0,0,0-.2,0-.2-.2-.2h-.2s-.2,.2-.4,.3h-.2c-.1,0,.2,0,.5,0h.3s-.2,.2-.3,.2c-.2,0-.6,.2-.6,.3s0,0,.2,0c.4-.2,1,0,1,.3h0c0-.2-.6-.3-.8,0-.2,0-.7,.3-1,.9h0s.2-.4,.2-.5,0,0,0,0c.1,0,0,0,0,0h0c0-.2,.1-.3,.1,0,0,0,.3-.3,.3-.4h0v-.2c.7-.6,1.7-1,1.8-.6,0,.1,0,.1,.2,0,0,0,.1,0,.1-.2h0c.3,0,.4,.2,.2,.4-.1,0,0,.3,0,.4,.2,.2,.4,0,.6,0h.2c.1,.3,0,.6-.2,.6s-.2,.2,0,.3q.1,0,0,.2v.2c0,.1,0,.1,.2,0h.4c.1,0,.2,0,.3-.2,.2-.3,.3-.3,.1,0-.1,.2-.3,.4-.5,.3h-.3c-.3,.2-.6,0-.6-.2s-.1,0-.2,0c0,.7,1.9,.9,2,.2h.2c.1,0,.3,0,.4-.2h-.1c-.2-.2-.4-1.2-.2-1.1h.4c-.2,0-.2,.2-.1,.4,.2,.2,.4,0,.3-.2h0c.1,0,.1-.3,0-.4h0c.1,0,0-.6,0-.7h-.2c-.2,.2-.4,0-1.3-.4-.2,0-.8-.2-1.5,0-1.3,0-1.4,0-2,.7v-.5h0c0-.2-.9-.2-1.1,0v.2c0,.1,0,.1-.2,0-.3-.2-.5,0-.6,.2,0,.4-.5,.2-.5-.3v-.3h-1.8v1h0v.3h0s-.1,0-.1,.3,.2,.4,.6,.4c.2,.3,.3,.5,.1,.5-.4,0-.7,.2-.5,.5,.1,.2,.2,.2,.3,0h.7v.4c0,.5-.2,.7-.5,.3-.1-.2-.2-.2-.3,0h-.1s0-.3,.2-.3h-.5s-.2,.6,0,.7v.4c.2,0,.2,.2,.4,.2s.2,0,0,.3-.4,.7-.4,1v-1.3Zm.7,2h0Zm2.5,.4s-.2,.4-.4,.4-.3,.2-.2,.2h0s-.1,.2-.1,0,0,0-.2,0h.1c.2,0,.5-.2,.7-.4,.1-.1,.2-.1,.2,0v-.2h-.1Zm-.9,.2c.3-.2,.4-.4,.4-.5,0-.3,.2-.2,.2-.5h0c.2,.4-.1,1-.6,1.2h-.7c-.5,0-.4-.2-.2,0h.9v-.2Zm-.3-1.1q0-.1,0,0h.1c0,0,0,.1-.3,.4-.4,.4-.2,0-.3,.2h-.3s.2-.2,.2,0c.2,0,.4-.2,.5-.4h.1v-.2Zm-.9,.3v-.2c0-.2,0,0,0,0h.2q.2,0,0,0c-.2,0-.1,0-.1,0h-.2s-.1,0,0,0h.1v.2Zm.1,.4h.4c.2,0,.4-.2,.7-.5,.1-.2,.1,0,0,.2,0,0-.1,.2,0,.2s0,0-.2,.2h-.4c-.1,0-.2,0-.1,0h-.3c-.3-.2-.2-.2,0,0h0Zm0-1.4s-.1,.2-.3,.2-.2,0,0,.2c.1,0,.1,.2,0,.2h0c0,.3-.1,.3,0,0v-.3h-.1c0-.2-.1,0-.1-.3s0,0,0,0h.5Zm-.7,0h.4c.2-.2,.3,0,.1,0-.4,.4-.9-.5-.5,0Zm-.2,.6h.1c-.1,0-.2,0,0,0h-.1Zm2-1.8h.4c-.3,.2-.2,0-.4,0h0Zm1.5-1.4h-.1c-.2,0-.3,0-.2-.2,.1,0,.4,0,.4,.3s0,0,0,0h0Zm-1.1,.2h.2s.1,0,0,.2h-.2s-.1,0,0,0h0v-.2Zm-.5-.3h0Zm3.6-2.3c0-.3,.1-.2,0,0,0,0,0,.2-.1,.3q-.1,.1,0,0c.2-.2,.1-.2,.1-.3Zm-1,1.4c-.1,.2-.2,.2-.2,.2h-.3c0,.2-.1,0-.3,0v-.2h.6v-.2q.2,0,0,.2h.2Zm.2-.3h-.2c.2,0,.3,0,.2,0h0Zm-.2-.3s.1,.2,0,.2,0-.2,0-.2Zm-.4-.9c.1,0,.4,.5,.3,.6v.2h0s0,.2-.1,0c0,0-.2-.3-.2-.4s0,0-.2-.2-.2-.3,0-.3h.2Zm4.9,0h0Zm-1.4,1.3h0Zm.9-.9v.3c.1,.2,0,.2-.1,0h0s-.4,.5-.5,.5,0,0,0-.2c.3-.2,.4-.5,.5-.8q0-.2,0,0v.2h.1Zm-.1-.5v.2c0,.2,0,.3,0,.2v-.4Zm0,.7s-.3,.4-.4,.5h-.3q0,0,0,0c.1,0,.4,0,.5-.3,0,0,.2-.2,.2,0h0v-.2Zm-.2-1v.4c0,.3-.3,.7-.3,.5s0,0-.1,0c0,0-.3,.2-.3,0,0,0,.1,0,.3-.2,.3-.2,.4-.4,.4-.6s.1-.3,.1-.2h0Zm-.2,.2c0,.1-.1,.3-.3,.5l-.3,.3h0v-.3s-.2,0,0,0,.3,0,.4-.4c0-.3,.2-.3,.2,0h0Zm-.3-.6c.2,0,.3,0,.2,.2h-.4s0,0,.2,0h0v-.2Zm-1.1-1c.3,0,.5,.5,.3,.7h0c.2,.2,.3-.3,.2-.5h0s.2,0,.4,.4c.1,.2,0,.2-.1,0h-.2s0,.2-.1,.2c-.3,0-.5,0-.3-.3,.1,0,.1-.3,0-.5q0,0,0,0h-.2Zm-.5,.3s0,.2,0,0h0Zm-1.1,0s.7-.2,.8-.2c.2,0,0,.2-.3,.2h-.5q-.1,0,0,0Zm-.2,.2h.2s-.1,0-.3,.2-.3,.2-.3,0c0,0,.2,0,.4-.3h0Zm-3.2,4.9c-.2-.2,.1-.3,.1-.2s0,0,0,0c-.1,0,0,0,0,0,.2,0,0,.2,0,0h-.1v.2Zm.2-1.4c.1,0,.2-.2,.3-.2s.9-.4,.9-.3h0c-.4,0-1.2,.6-1.2,.8v.6c0,.3-.1,.4-.1,0s0-.3,.1-.5c.3-.5,0-.2-.2,.4,0,.2,0,.3-.2,.3h0c0,.2-.2,0,0-.2l.2-.4c0-.3,.1-.4,.5-.7l-.3,.2Zm0-.7c0,.2-.1,.3-.2,.2h0c0-.2,.2-.5,.1,0h0v-.2Zm2.2-2.5c.2,0,.2,.4,0,.6-.3,.4-.2,.2-.1,0,.1-.2,0-.5,0-.6-.2,0,0-.2,.1,0Zm-.8-.2h.2c0-.2,0-.3,.2-.3s.1,0,0,0-.1,.3,0,.3,.2,.3,0,.4h-.7c0-.4-.1-.7,.1-.8l.2,.3h0Zm-.3-.1c0,0,0,0,0,.2,0,0-.1,.2,0,.3,0,.1,0,.1-.1,0,0-.2,0-.5,.2-.5h0Zm-.1,.8v.2c.1,.3,.4,.9,.4,1h0v-.2h.1c.1,0,.2,0,0,.2v.5c0,.4-.1,.4-.2,0,0-.3-.2-.8-.3-.9h0c.1,0,0-.4-.2-.4h0c0-.5,.1,0,.3,0v-.4Zm-.2,.7c.1,.2,.2,.4,.3,.9,0,.1,0,.2-.1,.2h-.2c-.2,0-.4,0-.7-.2,0-.3,0-.9,.1-.7h.6v-.2h0Zm-1.3,0h.1c.2,0,.3,0,0,0h-.1Zm0,.3l-.4-.3h.3v.4h0Zm.3-1.4s-.1,0,0,0h0Zm0,.9v.2h-.1s0-.2,.1-.2Zm.1,0v-.2h.1q.2,0,0,.2h-.1Zm.5-.3h0s0-.2,.1,0h-.1Zm0,0h-.4v-.5l.4,.4h0Zm-1-.8c.3,0,.4,.2,.6,.3,.2,.2,.1,.2-.2,0-.1,0-.3-.2-.4-.2-.2,0-.1,0,0,0h0Zm-.4,1.2h-.1s.2,0,.2,.2v-.2h0Zm-.5-.7c-.2-.5,0-.9,.1-.6h.2c.2,0,.5,0,.6,.2v.4c0,.5,0,.4-.4,.4s-.4,0-.5-.4h0Zm0,1.7c-.2,0-.3,0,0-.2h.7c-.2-.3,.2-.2,.2,0s.2,.2,.3,0h-1.2v.2Zm.3,1.1h.7l-.3,.3c-.3,0-.6,0-.6-.2s0,0,.1,0h.1Zm-.4,2.4h0c-.1,0,0-.3-.1-.2,0,0-.1,0,0-.3v-.2s0-.3,.1-.3,0,0,0,0v.9h0Zm76.9,2.5h0s.3,.3,.4,.3,0,0,0,.2,.1,.3,.2,.4c0-.1,.2-.2,.5-.3h.5v.4h0c0-.3-.2-.4-.4-.2-.1,.2,.1,.4,.3,.3h1c0,0,0,0,0-.2-.2,0-.1-.4,.1-.9,.3-.6,.5-1.5,.4-1.8h-.3c0,.3-.4,.3-.4,0s-.4,0-.4,.3,.1,.3,.2,.3,0,0,0,0c-.3,0-.6,0-.6-.2s0-.2-.3,0h-.2c-.2,0-.5,0-.3,.2,.1,.2,.2,.4,.1,.5,0,0,0,.2,.3,.3,.1,0,0,.2-.1,0-.2,0-.4-.3-.4-.5v-.3c-.2-.3-.1-.6,0-.7,.2,0,.1-.2,0-.2-.9,0-.5,1.4-.6,1.5h0v.5h0Zm1.4,1h0Zm.9-.2h0c0-.2,0-.3,0,0h0Zm.1-1.1h0Zm-.3-1.1s.2-.2,.3,0h.6s-.3,.3-.4,.3-.3,0-.3-.2,0,0,0,0c-.1,0,0,.5,.4,.3,.1,0,.2,0,0,0h0l-.3,.3h-.1v-.2s.1-.2,0-.2-.3-.2-.2-.4h0Zm.2,1.4c.2,0,0,.2,0,0h0Zm-.6,.6h-.2c.2-.4,.3-.2,.2,0Zm.4-1.1v.2c0,.2,0,.3-.1,.2v-.4h.1Zm-1-.2h0c.2,.2,.3,.4,.5,.4s.2,0,.2,.2-.5,0-.6-.2c0,0-.2-.2-.2-.3-.2-.2-.2-.3,0,0h.1Zm0,.4h0s-.1-.4,0-.4c0,0,.1,0,.2,.3,.2,.3,.3,.4,.6,.4s.3,0,.2,0h-.2s-.2,0-.1,0h-.2q0,0,0,0c-.2,0-.5-.2-.5-.3h0Zm-.8-.8h0v.6c0,.3,.3,.6,.6,.7,.3,0,0,.2-.3,0-.6-.3-.8-.8-.6-1.3h.3Zm.1,1.1c.2,.2,.5,.4,.8,.4s.2,0,.1,0h-.4c-.1,0-.2,0,0,0h0s-.4-.2-.5-.4c-.1-.2,0-.2,.2,0h-.2Zm2.1,51.2s.1-.2,.1-.4h0s0-.6-.1-.7h0c0-.2-.2-.5-.5-.8h-.3c-.3,0-.4,0-.1,.3,.6,.2,.9,1.2,.4,1.2s0,0,0,0h0c-.1,0-.3,.3-.4,.4h0c0,.2,0,.3-.1,.2-.1,0-.1-.3,0-.3,.2,0,.2-.4,0-.4s0,0,0,0h.5c-.6-.4-1.1-.3-1.1,.4v.3h0c0,.2,.4,.6,.5,.6h0c-.1,.2-.1,.4,.1,.6,.3,.3,.8,0,.5-.4-.1-.2-.2-.2-.2,0s-.2,.2-.2,0,.2-.3,.4-.4c.1,0,.2,0,.2-.2h0l.3-.3h0Zm-1.3-.7h0v.3q0,.1,0,0c0-.2,0-.5,.1-.6v.2h-.1Zm.6,1.7h0Zm.5-1.2v.2h0v-.2Zm0-.3h0c0,.2-.2,.2,0,0Zm-2.8,58.3c.2,0,.1-.2,0-.2s-.1,0-.1-.1,0-.2,0-.1c0,0,.2,0,.1,0,0,0,0-.2,.1-.2,0,0,.1,.2,0,.3h0c.2,.3,0,.7-.3,.7s-.1,0-.2-.2c-.3-.3-.2-.7,.3-1.1,.1-.1,.4,0,.1,.2-.5,.2-.7,1-.2,.9l.2-.2h0Zm1.9-107c.4-.3,0-.8-.3-.5-.6,.4-1,1.5-.8,1.9,0,.2-.1,0,0,.3v.9h.5c.1,0,.4,.2,.6,.2s.1,0,0,.2h0c.2-.2,.4,0,.5,0v.5c.1,0,0,.2,0,.5s0,.2-.2,0-.3,0-.3,0v.3c.1,0,.2,0,0,.2s-.1,1,0,1.1c.2,0-.1,41.1,0,41.2,.1,.2,.1-.3,.1-6.9,0-13.2,.2-34.3,0-34.5-.1,0-.1-.3,0-.7,0-.3,.1-.4,.2-.3h.3v-.6c0-.2,0-.5,.1-.5v-.5c-.1,0-.1-.2-.2-.3,0,0,0,0,0-.2,.1,0,.4-.2,.4-.3s0,0,0,0c.3-.4,0-1.1-.5-.9-.1,0,0,0,0,0,.3,0,.4,.3,.2,.6-.2,.2-.3,.3-.2,0v-.2h-.2c0,.3-.3,.4-.6,.3-.3-.2-.7-.9-.5-.9s0,0,0,0c0,.2,.1,.3,.4,.4s.4,0,.3,0q0-.1,0,0c.2,0,.3-.2,.3-.4,0-.3-.1-.4-.3-.2-.1,0-.5,.2-.5,0s0,0,0,0c-.1,0,0-.5,.3-.7h.4Zm.5,4.2h0Zm-1.4-2s-.2,0-.1,0c0,0,.2,0,.1,0Zm.6-.9c.2-.2,0-.2,.4-.2s.2,0,.1,0h-.5v.2Zm0-1.6c-.1,0-.2,.2-.2,.3s0,0,0,0c0,0-.2,.3-.2,.4s-.1,.2-.1,0,.1-.4,.2-.5,0-.2,0,0c-.2,.2-.3,1-.3,1.3,.1,.7,.9,1.1,1.3,.7,.3-.3,0,.2,0,.2h-.3c-.2,0-.6-.2-.8-.4-.4-.5-.3-1.7,.2-2.2,.4-.4,.7-.4,.3,0v.2h-.1Zm1,51.6s-.1,0-.1-.2c0,0-.2-.2-.3-.2h-.1v-.4c-.3-.4-.9-.2-.7,.3h.3c.2,0,.1,.2-.1,.3-.7,.4-1,1.4-.5,1.9h0c0,.2,.5,.7,.6,.7h.1s.1,31.6,0,31.7h0c0,.1-.1,9.4,0,9.4h0c0-.1,0-28.9,0-27.9v-13.4c-.3,0-.4-.5-.6-.7s0-.6,.1-.6,.2,0,.1-.2h0c.2,0,.1,0,.5-.4h-.1c0-.2,0-.3,0-.2,.3,0,.3,.5,0,.5s-.1,0-.1,0c0,0,0,.3,.2,.3s0,0,0,0h-.2c-.2,0-.3,0-.1,0,.6,.4,1.3-.4,.8-.9l.2-.3v.3Zm-1.3,.7h0Zm.3-.5h-.3c0-.2,.3-.3,.5-.3s.1,.2-.2,.2h0Zm.4-.8h0q0,.1,0,0h0Zm.5,1.4c-.1,.2-.2,0-.1,0v-.2s0-.4,.1-.4v.6Zm-72.8,57.9v-.4c-.1-.1,0-.2,0,0,.1,.1,.1,.3,0,.5,0,.1-.1,.2-.1,.1v-.2h.1Zm-.8-3.8c0,0,0,0,0-.2,.1-.1,0-.2-.2-.1h-.1s0-.1,.1,0c0,0,.1,0,0-.1,0-.2-.4-.1-.4,0s-.1,0-.1,0c0-.1-.2,0-.2,.2s0,.2-.2,0,.4-.7,.8-.5h.2s0-.2-.1-.3h-.1c0-.2,.3-.5,.3-.3s.1,.2,.2,0c.1-.2,0-.3-.3-.2-.1,0-.2,0,0-.1,0,0,.2-.1,.2,0s0,0,.1-.2v-.2h-.3c-.1,.1-.4,0-.2,.1,0,.1,0,.2-.2,.2s-.2,.1-.3,0c-.1-.2-.4-.2-.3,0,.2,.4-.3,1.2-.6,.9,0,0,0-.2,.2-.2s.1-.1,0-.2h0c.1-.2,0-.2-.2-.1-.2,0-.3,0-.2,0,0-.1,.2,0,.3,0h.3c-.2,.3-.3,.3-.1,.3s.3-.4,.1-.4h-.2c0-.2-.2-.3-.2-.1s-.2,.2-.2,0c-.2-.3-.9-.2-.8,.1,0,.2,.2,.4,.3,.3,.1,0,.1-.2,0-.2v-.2c.2-.2,.3,.3,.1,.5-.2,.3-.1,.7,.1,1,.1,.1,.2,.3,.2,.6,.2,0,.4,0,.5,.2,.3,.3,.5,.3,1.2,0,.2,0,.4,0,.3,.2h-.3v.4c.2,.2,.4,0,.4-.5s0-.5-.2-.4v-.5h0Zm-2.5-1.7s-.1-.3,0-.3v.3Zm1.9,.8h-.2c-.4,.3,0-.3,.2-.2h.1s-.1,.2-.2,.2h0Zm.3-.1q0,0,0,0t0,0Zm-.5-.6s-.1,.1-.1,0,.1,0,.1,0Zm-.2,.6c0-.1,.2-.4,.3-.4h.1c0-.2,.3-.3,.4-.1,0,0,0,.3-.2,.3-.2,.1-.3,.1,0,0,.1-.1,.1-.2,.1-.2h-.1c0,.1-.1,.1-.3,.3s-.3,.2-.2,0h-.1Zm-.7,1.1h.1c0,.1-.1,0-.1,0Zm.2-.5h-.5c-.1-.1,0-.4,0-.5,.1-.2,.2,0,0,0-.1,.2,0,.3,0,.4v-.2c.2-.4,.4-.3,.3-.2-.1,.1,0,.3,.2,.3s.1,0,.1,0h0v.2h-.1Zm.6,.8c-.2,.1-.5,0-.4-.2v-.4h0s.1,.2,.3,.4l-.2,.2h0c.1,0,.3-.1,.4-.2h0s-.1,.3-.3,.3h.2Zm.8,.4s-.2,0-.2-.2,0,0,.2,0,0,.2,0,.2Zm3.4,2.3h-.5c0-.2,.2-1,.2-1,.2,0,0-.3-.2-.3,0,0-.1,0-.2-.2-.1-.3-.4-.5-.7-.4h-.1c-.3-.3-1.1,.1-1.1,.5s0,.1,.2,0c0-.2,.3-.2,.5,0q.1,0,0,0h-.3c-.1,0-.2,0-.1,0h.7c.1,0,.5,.5,.6,.8v.2c0,.2-.2,.8-.3,.9v-.3c.3-.7,0-1.5-.5-1.4-.2,0-.1,.1,0,.1,.2,0,.4,.1,.5,.4,0,.2,0,.3,0,.1-.2-.3-.3-.4-.3-.3h-.5s-.1,.2,0,.3v.2c-.2,0-.2,.3,0,.3,.6,0,0,1.2,0,.7s-.4-.3-.6,0c0,.1,0,.2,0,.3,.1,.1,0,.5-.2,.5s0,0,0,0c0,.1,.3,0,.4-.2v-.3c-.1-.1,0-.2,0-.3,.1,0,.3,.1,.3,.3s0,.2,.1,.1l.3-.2h0q0,0,0,0c-.1,0,0,0,0,0h-.1s-.4,.4-.5,.4h-.4c-.1,0-.2,0-.1,.1,.3,.1,1.8,0,2-.3,0,0,.1,0,.3-.1h.5c0,.1,.2,.1,.3,0v-.4h0v-.4h-.2Zm-1.5-.1c0,.1-.2,0-.3,0,0,0-.1,0,0-.1s.4,0,.4,.2h0Zm-.3-.6h0Zm.4,0c0,.3-.1,.2-.2-.1,0-.3-.2-.4-.4-.4s-.2,0,0-.1c0,0,.1,0,0-.1h0s.5,.4,.5,.6h0Zm.2,.5v-.2c.2-.2,0-.8-.4-1l-.3-.3,.4,.2h.1c0-.1,.3,.2,.3,.4s0,.4,0,.2,0,.2-.1,.5c0,.1-.1,.2-.1,.2h.1Zm.2-1.9c-.1-.1-.1-.2,0-.2s.3,.1,.4,.4c.1,.2,.1,.3,.2,.2h.1v.2c-.1,.1,0,.1,0,.2s0,0,0,0c0,0-.1-.2-.1-.3s-.2-.4-.3-.6h-.3Zm.8,2.3h.1s0,.1,0,0h-.1Z" fill="#fff"/></g><rect x="17.6" y="118.2" width="130.2" height="1.9" fill="#f7941d"/><rect x="17.6" y="165" width="130.2" height="1.9" fill="#f7941d"/><g><circle cx="118.5" cy="303.4" r="4" fill="#f7941d"/><circle cx="202.9" cy="303.4" r="4" fill="#f7941d"/></g><g><path d="M30.4,193.2c0,.6-.5,1.1-1.1,1.1h-9.5c-.6,0-1.1-.5-1.1-1.1v-4.6h-1.1v4.6c0,1.2,1,2.2,2.3,2.2h9.5c1.2,0,2.2-1,2.2-2.2v-4.6h-1.1v4.6h0Zm-1.1-11.8h-9.5c-1.2,0-2.3,1-2.3,2.3v4.6h1.1v-4.6c0-.6,.5-1.1,1.1-1.1h9.5c.6,0,1.1,.5,1.1,1.1v4.6h1.1v-4.6c0-1.2-1-2.3-2.2-2.3h0Z" fill="#fff"/><path d="M28.1,186.3c0-1.9-1.5-3.4-3.4-3.4s-3.4,1.5-3.4,3.4,.2,1.2,.5,1.7h0l3,6,3-6h0c.3-.5,.5-1.1,.5-1.7m-3.4,1.7c-.9,0-1.7-.8-1.7-1.7s.8-1.7,1.7-1.7,1.7,.8,1.7,1.7-.8,1.7-1.7,1.7" fill="#fff"/></g><rect x="242" y="186.1" width="71.9" height="18" fill="#f7941d"/></svg>