<?xml version="1.0" encoding="UTF-8"?><svg id="Layer_1" xmlns="http://www.w3.org/2000/svg" width="335" height="335" xmlns:xlink="http://www.w3.org/1999/xlink" viewBox="0 0 335 335"><defs><radialGradient id="radial-gradient" cx="86.4" cy="276.75" fx="86.4" fy="276.75" r="161.16" gradientTransform="translate(52.8 335.89) scale(1.41 -1)" gradientUnits="userSpaceOnUse"><stop offset="0" stop-color="#262261"/><stop offset=".33" stop-color="#262261"/><stop offset=".66" stop-color="#282c76"/><stop offset=".98" stop-color="#2b388f"/></radialGradient><linearGradient id="linear-gradient" x1="5.3" y1="184.79" x2="8.25" y2="184.79" gradientTransform="translate(0 335.89) scale(1 -1)" gradientUnits="userSpaceOnUse"><stop offset="0" stop-color="#262261"/><stop offset=".98" stop-color="#1b75bb"/></linearGradient><linearGradient id="linear-gradient-2" x1=".5" y1="320.54" x2="334.9" y2="320.54" gradientTransform="translate(0 335.89) scale(1 -1)" gradientUnits="userSpaceOnUse"><stop offset="0" stop-color="#262261"/><stop offset=".98" stop-color="#9077f7"/></linearGradient><linearGradient id="linear-gradient-3" x1="9.6" y1="334.54" x2="297.5" y2="334.54" gradientTransform="translate(0 335.89) scale(1 -1)" gradientUnits="userSpaceOnUse"><stop offset="0" stop-color="#262261"/><stop offset="1" stop-color="#fff"/></linearGradient><linearGradient id="linear-gradient-4" x1="9.56" y1="330.94" x2="44.21" y2="330.94" xlink:href="#linear-gradient-3"/><linearGradient id="linear-gradient-5" x1="9.73" y1="328.69" x2="17.1" y2="328.69" xlink:href="#linear-gradient-3"/><linearGradient id="linear-gradient-6" x1="10.4" y1="320.24" x2="44.24" y2="320.24" xlink:href="#linear-gradient-3"/><linearGradient id="linear-gradient-7" x1="10.6" y1="318.44" x2="64.6" y2="318.44" xlink:href="#linear-gradient-3"/><linearGradient id="linear-gradient-8" x1="5.77" y1="322.94" x2="17.1" y2="322.94" xlink:href="#linear-gradient-3"/><linearGradient id="linear-gradient-9" x1="64.6" y1="319.44" x2="334.9" y2="319.44" gradientTransform="translate(0 335.89) scale(1 -1)" gradientUnits="userSpaceOnUse"><stop offset="0" stop-color="#fff"/><stop offset=".99" stop-color="#262261"/></linearGradient><linearGradient id="linear-gradient-10" x1="267.8" y1="328.04" y2="328.04" xlink:href="#linear-gradient-9"/><linearGradient id="linear-gradient-11" x1="71" y1="311.57" x2="71" y2="316.72" gradientTransform="translate(0 335.89) scale(1 -1)" gradientUnits="userSpaceOnUse"><stop offset="0" stop-color="#ffeadb"/><stop offset=".99" stop-color="#ec1c24"/></linearGradient><linearGradient id="linear-gradient-12" x1="105.25" y1="309.72" x2="105.25" y2="314.88" gradientTransform="translate(0 335.89) scale(1 -1)" gradientUnits="userSpaceOnUse"><stop offset="0" stop-color="#ffeadb"/><stop offset=".99" stop-color="#00a14b"/></linearGradient><linearGradient id="linear-gradient-13" x1="331" y1="320.74" x2="335" y2="320.74" xlink:href="#linear-gradient-2"/></defs><g><path d="M0,0H335V335H0V0Z" fill="url(#radial-gradient)"/><path d="M0,0H335V335H0V0Z" fill="url(#radial-gradient)" isolation="isolate" opacity=".25"/><path d="M5.3,27.7l1.1,246.8L8.2,27.7h-2.9Z" fill="url(#linear-gradient)"/><path d="M6.1,.4s-1.7,19.7,3.6,24.4c5.3,4.7,325.2,0,325.2,0V.4H6.1Z" fill="#fff" fill-rule="evenodd"/><path d="M.5,.4S3.2,25.2,7.3,27.7c4.1,2.5,327.6,2.6,327.6,2.6v-5.5S16.1,28.1,9.7,24.8C5,22.4,6.1,.4,6.1,.4H.5Z" fill="url(#linear-gradient-2)"/><path d="M9.6,.4s-.1,16,2.6,24.8c-1.35,.11-2.72-.06-4-.5C6.8,24,5.3,3.2,6.1,.4h3.5Z" fill="#2b388f"/><path d="M7.3,27.7l327.6,2.6s-284.3-.1-327.6-2.6Z" fill="#2e3191"/><path d="M9.6,.4H297.5L9.6,2.3V.4Z" fill="url(#linear-gradient-3)" isolation="isolate" opacity=".3"/><path d="M9.6,4.5H44.2l-34.6,.9v-.9Z" fill="url(#linear-gradient-4)" isolation="isolate" opacity=".3"/><path d="M9.7,6.9h7.4l-7.3,.6-.1-.6Z" fill="url(#linear-gradient-5)" isolation="isolate" opacity=".3"/><path d="M10.4,15.3H44.2l-33.8,.7v-.7Z" fill="url(#linear-gradient-6)" isolation="isolate" opacity=".3"/><path d="M10.6,17.3h54l-53.9,.3-.1-.3Z" fill="url(#linear-gradient-7)" isolation="isolate" opacity=".3"/><path d="M13.4,.4s-2.8,19,3.7,25.1c0,0-7.2,0-8.9-.8S5.1,4.7,6.1,.4h7.3Z" fill="url(#linear-gradient-8)" isolation="isolate" opacity=".3"/><path d="M334.9,15.3l-270.3,2,270.3,.3v-2.3Z" fill="url(#linear-gradient-9)" isolation="isolate" opacity=".3"/><path d="M334.9,7.5l-67.1,.4,67.1,.3v-.7Z" fill="url(#linear-gradient-10)" isolation="isolate" opacity=".3"/><path d="M68.4,19.9l-1.5-16.9,18.1-.5V19.2l-16.6,.7Z" fill="#ec1c24" fill-rule="evenodd"/><path d="M85,19.2l-12.4,5-15.6,.1,11.4-4.4,16.6-.7Z" fill="url(#linear-gradient-11)" fill-rule="evenodd" isolation="isolate" opacity=".5"/><path d="M102.6,21.8l-1.5-17,18.2-.4V21l-16.7,.8Z" fill="#00a14b" fill-rule="evenodd"/><path d="M119.3,21l-12.5,5-15.6,.2,11.4-4.4,16.7-.8Z" fill="url(#linear-gradient-12)" fill-rule="evenodd" isolation="isolate" opacity=".5"/><path d="M335,0h-4l3.8,30.3,.2-30.3Z" fill="url(#linear-gradient-13)"/></g><g><path d="M31.6,38.5c.02,.35-.13,.68-.4,.9l-3.7,3.7-3.9-2.3v-2.3c0-.61,.49-1.1,1.1-1.1,.03,0,.07,0,.1,0,.61,0,1.1,.49,1.1,1.1v2.9l3.7-3.7c.46-.41,1.14-.41,1.6,0,.27,.18,.42,.48,.4,.8m-1.2,10.7h-.4c-.16,0-.31-.07-.4-.2l-3.7-3.7v2.9c0,.61-.49,1.1-1.1,1.1-.6,.06-1.14-.39-1.2-1,0-.03,0-.07,0-.1v-2.4l3.9-2.2,3.7,3.6c.44,.49,.4,1.25-.09,1.69-.2,.18-.45,.29-.71,.31m-3-6c-.06,0-.1-.04-.1-.1h-.1l-1-.6-2.6-1.5-2.3-1.3c-.1-.1-.3-.1-.3,.1s-.1,0-.1,.1v6.8c0,.17,.13,.3,.3,.3,.06,0,.1-.04,.1-.1l2.3-1.3,3.6-2.1h.1c0-.06,.04-.1,.1-.1v-.2Zm-.9,.2h-.1l-2.9,1.6-1.7,1c-.07,.08-.2,.09-.28,.02l-.02-.02v-5.3c0-.2,.1-.3,.2-.3h.1l1.7,1,2.9,1.6c.07,.08,.11,.19,.1,.3v.1Z" fill="#fff"/><path d="M25.7,43.3c0,.06-.04,.1-.1,.1l-2.1,1.3-1.3,.7c-.1,.1-.2,0-.3,0v-4h.3l1.3,.7,2.1,1.3h.1" fill="#fff"/><g><path d="M50.9,43.2c0-.1-.1-.1-.1-.2l-3.3-1.6-2-1c-.2-.1-.4,0-.4,.2v5.4c0,.2,.2,.3,.4,.2l2-1.1,3.2-1.7h.1l.1-.2Zm-.8,.1c-.06,0-.1,.04-.1,.1l-2.5,1.3-1.5,.8c-.2,.1-.3,0-.3-.1v-4.2c0-.11,.09-.2,.2-.2h.1l1.6,.8,2.4,1.3c.06,0,.1,.04,.1,.1v.1Z" fill="#fff"/><path d="M49.4,43.3h-.1l-1.9,1-1.1,.7c-.1,0-.2,0-.2-.1v-3.2c0-.1,.1-.1,.2-.1l1.2,.6,1.9,.9h.1m-15.6-2.6h2.9c1.18-.12,2.24,.72,2.4,1.9,0,1.1-1,1.9-2.4,2h-1.5v1.8h-1.3l-.1-5.7Zm2.8,2.6c.6,0,1.1-.3,1.1-.8s-.5-.8-1.2-.7h-1.3v1.6l1.4-.1Zm7.8,2v1h-4.5v-5.5h1.4v4.6l3.1-.1Zm7.8-1.1l-2.5-3.6h1.6l1.6,2.5,1.6-2.5h1.5l-2.4,3.6v2h-1.3l-.1-2Zm4.7-3.3h.7v3.1l3.2-3.1h.9l-2.6,2.6,2.9,3h-.9l-2.5-2.6-.9,1v1.7h-.7l-.1-5.7Zm5.4,2.8c.29-1.8,1.98-3.03,3.78-2.74,1.37,.22,2.46,1.27,2.72,2.64-.15,1.67-1.53,2.96-3.2,3-1.71,.11-3.19-1.18-3.3-2.89h0Zm5.7-.11c-.05-1.32-1.17-2.35-2.5-2.3h0c-1.34,0-2.45,1.06-2.5,2.4,.15,1.32,1.27,2.31,2.6,2.3,1.33,0,2.4-1.07,2.4-2.4h0Zm1.7,2.1l.4-.5c.57,.53,1.32,.82,2.1,.8,1,0,1.5-.5,1.4-1s-.6-.8-1.7-1.1-2-.6-2-1.5,.8-1.6,2-1.7c.83,0,1.64,.29,2.3,.8l-.5,.5c-.5-.43-1.14-.68-1.8-.7-.8,0-1.3,.5-1.3,1s.6,.8,1.7,1,2.1,.6,2.1,1.6-.8,1.7-2.2,1.7c-.92,.06-1.83-.26-2.5-.9Zm6-4.8h.7l2.4,3.9,2.3-3.9h.7v5.6h-.7v-4.3l-2.3,4-2.4-3.9v4.3h-.8l.1-5.7Zm7.4,2.8c.15-1.67,1.53-2.96,3.2-3,1.71-.11,3.19,1.18,3.3,2.89h0c-.11,1.7-1.51,3.02-3.2,3.01-1.68,.01-3.1-1.24-3.3-2.9Zm5.8-.1c-.15-1.32-1.27-2.31-2.6-2.3-1.3-.24-2.55,.62-2.79,1.93-.24,1.3,.62,2.55,1.93,2.79,.32,.06,.65,.05,.97-.02,1.34,0,2.45-1.06,2.5-2.4Zm1.6,2.1l.4-.5c.57,.53,1.32,.82,2.1,.8,1,0,1.5-.5,1.5-1s-.6-.8-1.7-1.1-2.1-.6-2.1-1.5,.9-1.6,2.1-1.7c.8,0,1.58,.29,2.2,.8l-.4,.5c-.55-.42-1.21-.67-1.9-.7-.63-.06-1.2,.38-1.3,1,0,.6,.6,.8,1.7,1s2.1,.6,2.1,1.6-.7,1.7-2.2,1.7c-.92,.04-1.82-.28-2.5-.9Z" fill="#fff"/></g></g><path d="M6.7,206.5H334.9v34.96H6.7v-34.96ZM0,235.4l6.7,6.1v-35l-6.7-4.7v33.6Z" fill="#fff100"/><circle cx="259.4" cy="221.7" r="63.5" fill="#fff"/><circle cx="259.4" cy="221.7" r="60.1" fill="#231f20"/><circle cx="259.4" cy="221.7" r="67.7" fill="none" stroke="#fff100" stroke-miterlimit="10" stroke-width="2"/><circle cx="167.9" cy="117.5" r="4.8" fill="#fff100"/><circle cx="31.2" cy="143.3" r="5" fill="#fff100"/><path d="M37.4,145.1c-.19,.11-.44,.05-.55-.14-.03-.05-.05-.1-.05-.16v-2.9c0-.4,.3-.6,.6-.4l3.1,1.5c.3,.2,.3,.5,0,.6l-3.1,1.5Z" fill="#fff100"/><g><circle cx="142.6" cy="143.3" r="5" fill="#fff100"/><path d="M148.9,145.1c-.4,.2-.7,0-.7-.3v-2.9c0-.4,.3-.6,.7-.4l3,1.5c.3,.2,.3,.5,0,.6l-3,1.5Z" fill="#fff100"/></g><g><circle cx="31.2" cy="167.7" r="5" fill="#fff100"/><path d="M37.4,169.5c-.3,.2-.6,0-.6-.4v-2.9c.02-.22,.22-.38,.44-.35,.06,0,.11,.02,.16,.05l3.1,1.5c.3,.1,.3,.4,0,.6l-3.1,1.5Z" fill="#fff100"/></g><g><circle cx="31.6" cy="192.9" r="5.3" fill="#fff100"/><path d="M38.2,194.8c-.4,.2-.7,0-.7-.4v-3c0-.4,.3-.5,.7-.4l3.1,1.6c.4,.2,.4,.5,0,.7l-3.1,1.5Z" fill="#fff100"/></g><g><circle cx="31.6" cy="260.6" r="5.3" fill="#fff100"/><path d="M38.2,262.5c-.4,.2-.7,0-.7-.4v-3c0-.4,.3-.5,.7-.4l3.1,1.6c.4,.2,.4,.5,0,.7l-3.1,1.5Z" fill="#fff100"/></g><g><circle cx="31.6" cy="288.7" r="5.3" fill="#fff100"/><path d="M38.2,290.6c-.4,.1-.7,0-.7-.4v-3c0-.4,.3-.6,.7-.4l3.1,1.5c.4,.2,.4,.5,0,.7l-3.1,1.6Z" fill="#fff100"/></g><path d="M112.2,99.9h110.4v2.86H112.2v-2.86Z" fill="#fff"/><g><path d="M28,309h-1.6l-2,.7c-2,1.28-2.77,3.83-1.8,6,.51,1.18,1.22,2.26,2.1,3.2,.63,.74,1.33,1.41,2.1,2h.3c1.21-.95,2.29-2.06,3.2-3.3,.63-.86,1.08-1.85,1.3-2.9,.61-2.52-.94-5.06-3.47-5.67-.04-.01-.09-.02-.13-.03Zm-1.1,7.2c-1.38,0-2.5-1.12-2.5-2.5s1.12-2.5,2.5-2.5c1.32-.06,2.44,.97,2.5,2.3,0,.07,0,.14,0,.2,0,1.38-1.12,2.5-2.5,2.5Z" fill="#fff"/><path d="M28.5,313.7c0-.88-.72-1.6-1.6-1.6h0c-.84,.05-1.5,.75-1.5,1.6,.04,.83,.68,1.5,1.5,1.6,.88,0,1.6-.72,1.6-1.6h0Z" fill="#fff"/></g></svg>