<svg xmlns="http://www.w3.org/2000/svg" xmlns:xlink="http://www.w3.org/1999/xlink" width="335" height="335"><defs><linearGradient id="c" x1="711.1" x2="678.1" y1="241.4" y2="307.8" gradientTransform="matrix(-1 0 0 1 1026 0)" gradientUnits="userSpaceOnUse"><stop offset="0" stop-color="#eeb947"/><stop offset="1" stop-color="#dc8a1b"/></linearGradient><linearGradient id="b" x1="717" x2="709.6" y1="269.2" y2="288.2" gradientTransform="matrix(-1 0 0 1 1026 0)" gradientUnits="userSpaceOnUse"><stop offset="0" stop-color="#ebc2a1"/><stop offset="1" stop-color="#ef8259"/></linearGradient><linearGradient id="d" x1="742.6" x2="700.2" y1="271.3" y2="314.2" gradientTransform="matrix(-1 0 0 1 1026 0)" gradientUnits="userSpaceOnUse"><stop offset="0" stop-color="#29445f"/><stop offset="1" stop-color="#1e2338"/></linearGradient><linearGradient id="a" x1="718.8" x2="691.8" y1="235" y2="296.8" gradientTransform="matrix(-1 0 0 1 1026 0)" gradientUnits="userSpaceOnUse"><stop offset="0"/><stop offset="1" stop-opacity="0"/></linearGradient><linearGradient xlink:href="#a" id="g" x1="717.9" x2="691" y1="234.6" y2="296.4"/><linearGradient xlink:href="#b" id="h" x1="709.1" x2="700.3" y1="231" y2="240.2"/><linearGradient xlink:href="#c" id="i" x1="704" x2="686.1" y1="250.5" y2="271.3"/><linearGradient id="j" x1="740.3" x2="740.6" y1="227.4" y2="236.3" gradientTransform="matrix(-1 0 0 1 1026 0)" gradientUnits="userSpaceOnUse"><stop offset="0" stop-color="#eaddc4"/><stop offset="1" stop-color="#ddc7ae"/></linearGradient><linearGradient xlink:href="#c" id="k" x1="716.2" x2="683.3" y1="244" y2="310.4"/><linearGradient xlink:href="#b" id="l" x1="750.9" x2="749.3" y1="284.1" y2="299.4"/><linearGradient id="e" x1="764" x2="747.8" y1="288.5" y2="307.9" gradientTransform="matrix(-1 0 0 1 1026 0)" gradientUnits="userSpaceOnUse"><stop offset="0" stop-color="#74b554"/><stop offset="1" stop-color="#4a8d35"/></linearGradient><linearGradient xlink:href="#d" id="m" x1="757.3" x2="719.3" y1="257" y2="302.6"/><linearGradient xlink:href="#b" id="n" x1="746.4" x2="731" y1="244" y2="256.6"/><linearGradient xlink:href="#e" id="o" x1="739.5" x2="740.8" y1="233.7" y2="251.1"/><linearGradient xlink:href="#b" id="p" x1="775.8" x2="775.7" y1="280" y2="295.9"/><linearGradient xlink:href="#e" id="q" x1="788.5" x2="771.5" y1="287.6" y2="309.9"/><linearGradient xlink:href="#d" id="r" x1="766.1" x2="728" y1="264.4" y2="310"/><linearGradient xlink:href="#e" id="s" x1="731.2" x2="729" y1="237" y2="266.6"/><linearGradient xlink:href="#e" id="t" x1="727.9" x2="752.7" y1="232.1" y2="232.1"/><linearGradient xlink:href="#d" id="u" x1="715.4" x2="702.7" y1="213.3" y2="232.5"/><linearGradient xlink:href="#b" id="v" x1="716.8" x2="695.8" y1="221.1" y2="237.7"/><linearGradient xlink:href="#a" id="w" x1="721.8" x2="731.9" y1="259.1" y2="290.1"/><linearGradient xlink:href="#a" id="x" x1="739.7" x2="742.1" y1="239.4" y2="251.9"/><linearGradient xlink:href="#a" id="y" x1="702.1" x2="720.9" y1="198.1" y2="229.4"/><linearGradient xlink:href="#a" id="z" x1="709.4" x2="716.8" y1="210.6" y2="230.8"/><linearGradient xlink:href="#a" id="A" x1="709.6" x2="706.9" y1="226.2" y2="239.2"/><linearGradient xlink:href="#a" id="B" x1="711.2" x2="703.9" y1="262.1" y2="273.6"/><linearGradient xlink:href="#a" id="C" x1="728.2" x2="717.6" y1="261.5" y2="295.6"/><linearGradient xlink:href="#a" id="D" x1="751.7" x2="761.8" y1="249.3" y2="280.3"/><linearGradient xlink:href="#a" id="E" x1="726.5" x2="728.1" y1="240.6" y2="250.3"/><linearGradient id="F" x1="224.6" x2="240.7" y1="225.5" y2="225.5" gradientTransform="matrix(-1 0 0 1 466.6 0)" gradientUnits="userSpaceOnUse"><stop offset="0" stop-color="#7f2836"/><stop offset="1" stop-color="#6a1e2d"/></linearGradient><linearGradient xlink:href="#b" id="G" x1="236.7" x2="251" y1="239.8" y2="239.8" gradientTransform="matrix(-1 0 0 1 466.6 0)"/><linearGradient xlink:href="#a" id="H" x1="236.7" x2="245.8" y1="230.6" y2="230.6" gradientTransform="matrix(-1 0 0 1 466.6 0)"/><linearGradient xlink:href="#b" id="I" x1="225.3" x2="247.6" y1="222.1" y2="222.1" gradientTransform="matrix(-1 0 0 1 466.6 0)"/><linearGradient xlink:href="#a" id="J" x1="225.3" x2="237.3" y1="218.8" y2="218.8" gradientTransform="matrix(-1 0 0 1 466.6 0)"/><linearGradient xlink:href="#d" id="K" x1="308.9" x2="310.8" y1="227.4" y2="227.4"/><linearGradient xlink:href="#d" id="L" x1="309.2" x2="312.3" y1="229.5" y2="229.5"/><linearGradient xlink:href="#d" id="M" x1="310.1" x2="314.4" y1="218.6" y2="218.6"/><linearGradient xlink:href="#d" id="N" x1="303.4" x2="306.3" y1="220.8" y2="220.8"/><linearGradient xlink:href="#d" id="O" x1="304.8" x2="306.6" y1="223.7" y2="223.7"/><linearGradient xlink:href="#d" id="P" x1="311.3" x2="313.1" y1="221.3" y2="221.3"/><linearGradient xlink:href="#b" id="Q" x1="210.7" x2="222.6" y1="253.5" y2="253.5" gradientTransform="matrix(-1 0 0 1 466.6 0)"/><linearGradient xlink:href="#b" id="R" x1="234.5" x2="236.6" y1="278.3" y2="278.3" gradientTransform="matrix(-1 0 0 1 466.6 0)"/><linearGradient xlink:href="#a" id="S" x1="234.5" x2="236.6" y1="278.3" y2="278.3" gradientTransform="matrix(-1 0 0 1 466.6 0)"/><linearGradient xlink:href="#b" id="T" x1="235.5" x2="260.3" y1="274.8" y2="274.8" gradientTransform="matrix(-1 0 0 1 466.6 0)"/><linearGradient xlink:href="#a" id="U" x1="248.9" x2="260.3" y1="270.1" y2="270.1" gradientTransform="matrix(-1 0 0 1 466.6 0)"/><linearGradient xlink:href="#b" id="V" x1="248.2" x2="256.6" y1="294.1" y2="294.1" gradientTransform="matrix(-1 0 0 1 466.6 0)"/><linearGradient xlink:href="#a" id="W" x1="248.2" x2="258.2" y1="292.7" y2="292.7" gradientTransform="matrix(-1 0 0 1 466.6 0)"/><linearGradient xlink:href="#b" id="X" x1="223.4" x2="231.6" y1="293" y2="293" gradientTransform="matrix(-1 0 0 1 466.6 0)"/><filter id="f" data-name="drop-shadow-3" filterUnits="userSpaceOnUse"><feOffset dx="-3"/><feGaussianBlur result="uuid-59026a9e-bdb0-4ab8-bfcd-b02f59a0f88f" stdDeviation="5"/><feFlood flood-color="#000" flood-opacity=".8"/><feComposite in2="uuid-59026a9e-bdb0-4ab8-bfcd-b02f59a0f88f" operator="in"/><feComposite in="SourceGraphic"/></filter></defs><g data-name="Layer 1"><path fill="#fff" d="M337.3 1.5v206.9l-.8-.2-205.3-43.8-.5-.1L.9 136.6l-1.1-.2V1.5h337.5z"/><path fill="#ff3f4d" d="M157.7 8v24.5h-37.9L61.2 14V8h96.5z"/><path fill="#ff272e" d="M119.8 32.5H61.2V14l58.6 18.5z"/><path fill="#ff272e" d="M.2 8h61.2v24.5H.2z"/><g fill="#fff" data-name="PRINT"><path d="M29.8 12c0 .5-.2 1-.6 1.4l-6.8 6.8-7.2-4.2v-4.1a2.1 2.1 0 0 1 4.3 0v5.2l6.6-6.7a2.1 2.1 0 0 1 3.7 1.5ZM29.1 30.8a2.1 2.1 0 0 1-3 0L24 28.6 19.4 24v5.2c0 1.2-1 2.2-2 2.2s-2.2-1-2.2-2.2v-4l7.2-4.2 4.5 4.4 2.2 2.3c.9.8.9 2.2 0 3ZM22 20.5l-.1-.3-1.9-1-4.8-2.9L11 14a.5.5 0 0 0-.6.2V26.8c0 .3.1.5.4.5h.2l4.2-2.4 6.7-3.9.2-.2v-.3Zm-10.1-5 3.2 1.8 5.2 3 .1.1v.3l-.1.2-5.2 3-3.2 1.9c-.2 0-.4 0-.5-.2V15.8c0-.3 0-.4.3-.4h.2Z"/><path d="m19 20.7-.1.2-4 2.2-2.3 1.4-.4-.1V17c0-.2 0-.3.2-.3h.2l2.4 1.4 3.9 2.3.1.1v.2ZM64.9 20.1l-6-3-3.7-1.8a.4.4 0 0 0-.6.2v.1l.1 10c0 .2.2.3.5.3h.2l.2-.2L59 24l2-1.1 3.9-2 .1-.2v-.3l-.1-.2Zm-6 3-2.8 1.6c-.2 0-.4 0-.5-.2v-.1l-.1-7.7c0-.2.2-.3.3-.3h.2l2.8 1.5 1 .5 3.7 1.8.1.2v.1l-.1.2-4.6 2.5Z"/><path d="M62.3 20.5v.2l-3.5 1.8-2.1 1.1c-.2.1-.3 0-.4 0v-5.9c0-.2 0-.3.2-.3l2.2 1.1 3.5 1.8.1.1v.1ZM39.3 15.4H34v2.9l.1 7.4h2.5v-3.3h2.7c2.5 0 4.3-1.5 4.3-3.6 0-2-2-3.5-4.4-3.4Zm-.2 5h-2.5v-3h2.5c1.2 0 2 .6 2 1.4 0 1-.8 1.5-2 1.5ZM53.4 25.8l-8.2.1-.1-10.3h2.5l.1 8.3 5.7-.1v2zM70.2 21.9l.1 3.7h-2.5l-.1-3.7-4.6-6.5 2.9-.1 2.9 4.5 3-4.5 2.7-.1-4.4 6.7zM85.5 26.1h-1.6l-4.5-4.7-1.8 1.7.1 3.1h-1.3l-.2-10.3h1.3l.1 5.7 5.8-5.8h1.7l-4.8 4.8 5.2 5.5zM92 15.6c-3.2 0-5.9 2.5-5.8 5.4 0 2.8 2.7 5.3 6 5.2 3.1 0 5.8-2.5 5.7-5.4 0-2.9-2.7-5.3-5.9-5.2Zm.4 9.5a4.6 4.6 0 0 1-4.9-4.2 4.6 4.6 0 0 1 9.1 0c-.1 2.2-1.9 4-4.2 4.2ZM108.2 23.2c0 1.6-1.3 3-4 3-1.7 0-3.3-.5-4.6-1.6l.8-.9c1 1 2.4 1.5 3.8 1.5 1.8 0 2.7-1 2.7-1.9 0-1-1.1-1.5-3.1-1.9-2.4-.4-3.8-1-3.8-2.9 0-1.6 1.6-3 3.8-3a6 6 0 0 1 4 1.5l-.8.9a5 5 0 0 0-3.3-1.3c-1.4 0-2.4.9-2.4 1.8 0 1.1 1.1 1.5 3 1.9 2.3.4 3.9 1 3.9 2.9ZM121.9 26.1h-1.3l-.1-7.8-4.2 7.3-4.4-7.2.1 7.8h-1.3l-.1-10.3h1.3l4.4 7.1 4.1-7.2h1.3l.2 10.3zM130 15.6c-3.1 0-5.8 2.5-5.8 5.4 0 2.8 2.8 5.3 6 5.2 3.2 0 5.8-2.5 5.8-5.4 0-2.9-2.8-5.3-6-5.2Zm.5 9.5a4.6 4.6 0 0 1-5-4.2 4.6 4.6 0 0 1 9.2 0c-.1 2.2-2 4-4.2 4.2ZM146.3 23.2c0 1.6-1.4 3-4 3-1.7 0-3.3-.5-4.6-1.6l.8-.9c1 1 2.4 1.5 3.8 1.5 1.8 0 2.7-1 2.6-1.9 0-1-1-1.5-3-1.9-2.4-.4-3.9-1-3.9-2.9 0-1.6 1.6-3 3.8-3a6 6 0 0 1 4 1.5l-.7.9a5 5 0 0 0-3.3-1.3c-1.4 0-2.5.9-2.5 1.8 0 1.1 1.2 1.5 3.2 1.9 2.2.4 3.7 1 3.8 2.9Z"/></g><path fill="#ff3f4d" d="M303.2 80.4v19.4h-65.3L136.8 85.2v-4.8h166.4z"/><path fill="#ff272e" d="M237.9 99.8H136.8V85.2l101.1 14.6z"/><path fill="#ff272e" d="M31.8 80.5h105.4v19.3H31.8z"/><path fill="#ff3f4d" d="M336.5 191.8v143h-85.1L120 175.5l-.5-.6v-18.4l.5.1 216.5 35.2z"/><path fill="#ff272e" d="M255.6 334.8H130.1V174.9l125.5 159.9z"/><path fill="#ff272e" d="m137.3 159.4-6.7 175.8H-.2v-201l137.4 25.2Z"/><g filter="url(#f)"><path fill="#d4145a" d="M335.7 239.9h-95c0-26.7 11-50.8 28.6-68l35 35.8 31.4 32.2Z"/><path fill="#29abe2" d="M335.8 240v94.9h-.1a94.7 94.7 0 0 1-66.4-27l35-36 .5-.4 30.9-31.6Z"/><path fill="#f7931e" d="M335.8 144.8v95h-.1l-31-31.6-.4-.5-35-35.8a94.6 94.6 0 0 1 66.4-27Z"/><path fill="#0071bc" d="m335.7 239.9-31.4 32-35 36a94.7 94.7 0 0 1-28.6-68h95Z"/></g><path fill="none" d="M298.6 35.2v19l1.6 4.5V30.8l-1.6 4.4ZM301.6 28v33.4l1.6 2.6V25.5l-1.6 2.6ZM304.6 23.6v42.3l1.6 2V21.6l-1.6 2ZM307.6 20.2v49.1a26.2 26.2 0 0 0 1.6 1.5V18.7l-.7.6-1 .9ZM310.6 17.5V72l1.6 1.2v-57l-1.6 1.3ZM316.5 13.6v62.3l1.6.8V50.4a16 16 0 0 1 0-11.3V12.8l-1.6.8ZM319.5 12.2v24.1l1.6-2.2V11.5l-1.6.6ZM321 55.4l-1.5-2.2v24.1l1.6.7V55.3ZM322.5 11v21.7l1.6-1.3V10.6l-1.6.4ZM324 58l-1.5-1.2v21.7l1.6.4V58.1ZM325.4 10.2v20.3l1.7-.8V10c-.6 0-1.1.2-1.7.3ZM327 59.8l-1.6-.8v20.3l1.7.3V59.8ZM328.4 9.6v19.6l1.6-.5V9.4l-1.6.2ZM330 60.8l-1.6-.5V80l1.6.2V60.8Z"/><path fill="none" d="M317 44.7a16 16 0 0 0 7 13.4 17.8 17.8 0 0 0 10.4 3.2V28.1a16 16 0 0 0-4.4.6 14 14 0 0 0-3 1 18.7 18.7 0 0 0-4.5 3 18.3 18.3 0 0 0-3 3.6 15.8 15.8 0 0 0-2.4 8.4Z"/><path fill="none" d="M331.4 9.3v19l1.6-.1v-19h-1.6ZM333 61.3l-1.6-.2v19.1l1.6.1v-19Z"/><g fill="#d4145a"><path d="M309.2 18.6v52.2l1.3 1.2V17.5l-1.3 1.1ZM312.1 16.3v57l1.4.9V15.3l-1.4 1ZM315.1 14.3v60.9l1.4.7V13.6l-1.4.7ZM318.1 12.8V39c.4-1 .8-1.9 1.4-2.8V12.2c-.5.1-1 .3-1.4.6ZM319.5 53.2l-1.4-2.8v26.3l1.4.6V53.2ZM321 11.5v22.6l1.5-1.4V11l-1.4.5ZM322.5 56.8l-1.4-1.4V78l1.4.4V56.9ZM324 10.6v20.8l1.4-.9V10.2l-1.3.3ZM325.4 59l-1.3-1v21l1.3.3V58.9ZM327 9.8v20l1.4-.6V9.6l-1.3.2ZM328.4 60.3l-1.4-.5v19.8l1.4.3V60.3ZM330 9.4v19.3l1.4-.3V9.3H330ZM331.4 61c-.5 0-1 0-1.4-.2v19.3l1.4.1V61.1ZM333 9.2v19h1.4v-19H333ZM334.4 61.3H333v19h1.4v-19ZM306.2 21.6V68l1.4 1.4V20.2l-1.4 1.4ZM303.2 25.4V64l1.4 2V23.4l-1.4 2ZM300.2 30.8v27.8l1.4 2.8V28.1l-1.4 2.7ZM297.3 44.7c0 3.3.5 6.5 1.3 9.5v-19c-.8 3-1.3 6.3-1.3 9.5Z"/></g><path fill="none" d="M313.5 15.3v58.9l1.6 1V14.2l-1.6 1Z"/><path fill="#fcf6ea" d="M334 332.7H197.5a16 16 0 0 1-15.7-15.8v-2.3c0-8.5 7.3-14.9 15.7-14.9h136.7s-3.9 5.4-3.9 15.7c0 11.9 3.9 17.3 3.9 17.3Z"/><path fill="#e8e3d8" d="M335.7 333.3h-85.2v-33h85.2s-3.9 5.4-3.9 15.8c0 11.8 3.9 17.2 3.9 17.2Z"/><path fill="#333" d="M199.8 333.1c-9.5 0-16.8-7-16.8-15.8V315c0-4.4 1.8-8.4 5-11.4 3.2-2.9 7.4-4.5 11.9-4.5a1.2 1.2 0 0 1 0 2.3c-8.2 0-14.6 6-14.6 13.6v2.3c0 7.5 6.4 13.5 14.5 13.5a1.2 1.2 0 0 1 0 2.3Z"/><path fill="#0071bc" d="M336.8 334.6H197a18 18 0 0 1-17.6-17.7v-2.3c0-9.3 7.9-16.9 17.6-16.9h139.8v4H197c-7.5 0-13.7 5.8-13.7 12.9v2.3c0 7.3 6.4 13.8 13.7 13.8h139.8v4Z"/><path d="M322.2 280.1c-17-6.8-48.2-6.3-69.2-3-21 3.4-6.3 5.8-28.9 14.2-8.8 3.2-10.8 12.1 20.9 15.4 104.4 10.7 89.4-21.7 77.2-26.6Z" opacity=".1"/><path fill="url(#c)" d="M328.7 239c-3.6 1.5-15 21.7-16.5 23-.7.6.8 2 3 3.6-.7.8-1.4.2-3.2-1.5-2.9-2.5-10-8.3-10-9.4s-.5-3.4-.5-4.4l.2-2 6.6-3.6c.3-.1-1.5-3.2-3.6-6.7 3.2-1.7 7.8-4.2 8.6-4.4.7 1.8 1.5 3.5 2.2 3.9 4.5 1.4 9.1-3.5 8.1-4.4a4 4 0 0 1-.6-.9c3 1.3 10 5.3 11.4 8.8-.2-.3-2.2-3.6-5.7-2.1Z"/><path fill="url(#b)" d="m288 249.5.3-.2c.6-.2 2 .5 3.7 1.5.3.2.2-.4-.3-.7-.6-.4-4.8-2.4-4.6-3 .1-.6.8-.6 2.6 0l.1.1c2 .8 3.8 2.3 4.2 2 .5-.2-4-3.4-3.5-4 .6-.8 2.8.2 4.5 1.5 1.7 1.4 3.6 3 4.1 3h.3l2.3-1.4-.3 2c0 1 .5 3.3.5 4.4s7.2 6.9 10 9.5c1.9 1.6 2.6 2.2 3.3 1.4 2.5 1.8 5.9 3.8 8 5.3-1 2.2-3.4 6.3-6.4 6.6-4 .6-17.1-17.4-19.4-18.1s0 0-.1 0a45.5 45.5 0 0 0-9-9c-.3-.2-.4-.6-.3-1Z"/><path fill="url(#d)" d="M282.5 250.4a8.2 8.2 0 0 1 2.4-1c.9-.2 2 .2 3.3 1 2.7 1.7 6 5 9.1 8.9l.1.1c4.3 5.1 8.4 11 10.7 14.3l1.8 2.7c.7 3-1 7.1 1.3 13.2a11 11 0 0 0 7 7.1c-5 3.7-10.1 2.7-13.8.4a14 14 0 0 1-4.1-4c-3.1-4.8-12.3-24-12.5-22.1 0 1-1.9 6.3-3.5 11l-2.8 7.8s-.6.2-1.8 0c-.8 0-2-.3-3.2-.8-3.3-1.3-6.4-4.1-6-5.4.4-1.2.4-2.5 2.2-10.4l.5-1.6c2.2-7.7 3.6-12.8 5-16.1 1.2-2.6 2.5-4.1 4.3-5.1Z"/><path fill="url(#a)" d="m310 276.4-2-2.7a204 204 0 0 0-10.6-14.3c2.3.7 15.4 18.6 19.4 18.1 3-.3 5.4-4.4 6.5-6.7l1 .7c3.3 2.4 8-13.3 10.6-20.3-.4 7.9-1.7 18.6-3.7 26.4-3 12.2-10.5 19.6-11.6 19.5l-1.4-.4a11 11 0 0 1-7-7.1c-2.3-6-.6-10.2-1.3-13.2Z" opacity=".5"/><path fill="url(#g)" d="M325.5 242.1c-4.8 6.2-12 18.9-13.3 20-.7.5.8 2 3 3.5-.7.8-1.4.2-3.2-1.5-2-1.7-5.8-4.8-8-7a59.8 59.8 0 0 0 21.5-15Z" opacity=".5"/><path fill="none" d="M282 237.4Z"/><path fill="#beac83" stroke="#000" stroke-miterlimit="10" stroke-width=".8" d="M324.4 212Z"/><path fill="url(#h)" d="M315.5 237.5c-.7-.4-1.5-2-2.2-4l-.2-.7c2.7-.4 6-1.8 7.1-4.4l.4-1.7.9 2.4a30 30 0 0 0 2 4c1.1 1-3.5 5.8-8 4.4Z"/><path fill="url(#i)" d="m324.3 271.5-1-.7c-2.2-1.4-5.6-3.4-8-5.2-2.3-1.6-3.8-3-3.1-3.6 1.5-1.3 12.9-21.5 16.5-23 3.5-1.6 5.6 1.7 5.7 2 .8 2 .6 8.1.5 10.2-2.6 7-7.3 22.7-10.6 20.3Z"/><path fill="url(#j)" d="M275.1 228.7c.9-.6 2.2-1.5 2.9-1.6 1-.3 4.3 5.7 5.2 5.9.8.1 10.6-6.6 11.5-6.9.5-.1 1.2.3 1.7.7-2.7 1.7-13.8 9-14.9 9.1-1 .2-5.1-5.3-6.4-7.2Z"/><path fill="url(#k)" d="m310 276.4-2-2.7a204 204 0 0 0-10.6-14.3c2.3.7 15.4 18.6 19.4 18.1 3-.3 5.4-4.4 6.5-6.7l1 .7c3.3 2.4 8-13.3 10.6-20.3-.4 7.9-1.7 18.6-3.7 26.4-3 12.2-10.5 19.6-11.6 19.5l-1.4-.4a11 11 0 0 1-7-7.1c-2.3-6-.6-10.2-1.3-13.2Z"/><path fill="url(#l)" d="M271.6 287c.5.2 1.1.5 1.6 1 1.3.9-.2 2 1 2.8.6.3 3.7.3 4.7.6l.7-1.6a15 15 0 0 1-7.7-3.7l-.3.9Z"/><path fill="url(#e)" d="M274.2 290.8c.7.4 5 .3 5.1.8.1.4.7 9.4-1.5 10-2.2.5-6.7-.5-11.5-.1-4.8.3-8.7-.5-9.8-2-1.2-1.6-1.2-4.7.4-5 1.7-.2 10-3.9 11.1-4.6 1.1-.7.8-2.6 1.5-3 .9-.6 2.8.3 3.7 1 1.3 1-.2 2.1 1 2.9Z"/><path fill="url(#m)" d="M300.3 293c1 1.5 2.4 3 4.1 4.1-2 .6-5.1.8-9.7-1-3.2-1.2-7.2-7.8-10.4-14.2 1.6-4.7 3.4-10 3.5-11 .2-1.8 9.4 17.4 12.5 22.2Z"/><path fill="url(#n)" d="m288.1 249.1.2.2c-.1 0-.2 0-.2.2-.2.2 0 .6.1 1-1.2-.9-2.4-1.2-3.3-1a10.4 10.4 0 0 0-2.4.9c-.7-1.3-1.5-2.9-1.2-3.8.3-1.2.6-3.6.7-4.8l2 2.3c1.7 2.2 3.5 4.3 4.2 5Z"/><path fill="url(#o)" d="M281.9 237.5c1.5 1.9 4.6 6 7.8 9.7-1.8-.7-2.5-.7-2.6 0-.2.5 4 2.5 4.6 2.9.5.3.7.9.3.7-1.6-1-3.1-1.7-3.7-1.5l-.2-.2-4.2-5-2-2.4a13.6 13.6 0 0 1-2.6-4.2l1.1.3 1.5-.3Z"/><path fill="url(#p)" d="M247.4 287.6c-1.1-.7.3-1.9-1-2.8l-.7-.6c1-1 2-2 2.9-2.6 1.6 1.6 4.6 3.7 6.4 4.7a34.3 34.3 0 0 0-2.4 2.1c-.1-.4-4.5-.4-5.2-.8Z"/><path fill="url(#q)" d="M239.5 298.3c-4.8.3-8.7-.5-9.8-2-1.1-1.6-1.2-4.6.5-5 1.6-.2 10-3.8 11-4.5 1.2-.7.8-2.6 1.6-3.1.5-.4 1.7 0 2.8.6l.8.5c1.3 1-.1 2 1 2.8.7.4 5 .4 5.2.8 0 .5.6 9.4-1.5 10-2.2.6-6.8-.4-11.6 0Z"/><path fill="url(#r)" d="M247.6 280.2s19-21.2 22.8-23.5a12 12 0 0 1 7.9-1.2c-1.6 3.3-3 8.4-5.2 16a44 44 0 0 0-7 6.3c-5.5 6-9.5 9-10 9.1l-1.2-.6c-1.7-1-4.8-3.1-6.4-4.7l-1-1.3Z"/><path fill="url(#s)" d="m308.3 244.7-6.6 3.6-2.3 1.3-.3.2c-.4 0-2.4-1.7-4.1-3-1.7-1.4-4-2.4-4.4-1.7-.6.7 4 3.9 3.5 4.1-.5.3-2.4-1.2-4.3-2-3.3-3.8-6.4-7.8-8-9.7h.3l1.8-1c4.5-2.2 11.6-7.1 14.2-9 .8 1 4 6.1 6.6 10.5 2.1 3.5 3.9 6.6 3.6 6.7Z"/><path fill="url(#t)" d="M282 237.4h-.1c-.6.3-1 .4-1.5.4a2 2 0 0 1-1.1-.3c-.9-2-6-8.4-6-8.4s1-1.2 1.5-.9l.3.5c1.3 1.9 5.3 7.5 6.4 7.2 1.1-.2 12.2-7.4 14.9-9l.6-.5c.3 0 .8.5 1 .8l.1.2a129 129 0 0 1-16 10Z"/><path fill="none" d="M324.4 212Z"/><path fill="url(#u)" d="M296.5 217.6a7.4 7.4 0 0 1 3.6-5s-3.7-1-3-2.3c.8-1.3 5.4-1 6.8-1.5 1.3-.5.9-1.8 2.8-2.7 1.9-.8 6-.4 8.5.5 0 0-3.6-2.7-2.7-3.6 1-1 8.8.5 9.6 6 0 0 4.2-.5 4.2 2.3 0 1.8-1.6 1-1.9.8.3.1 1.6 1 2.1 4.1.5 3.3.2 4 .7 5s2 2.7-.9 4.3c-1.7 1-1.8 4.6-4.7 3.6l-1-2.4.2-2c1.5 0 2.6-1.3 2.4-2.7a2.4 2.4 0 0 0-2.8-2.2c-.3 1.3-.9 2.8-1.8 3.2-.5.1-1 .1-1.5-.3-2-1.9-1.6-6.3-1.6-6.3s-2 1.5-3 .5c-.9-1-.1-2.8-.1-2.8s-4.8 2.6-8.2 3.4l-1.4.5s.5 5 1.1 6.2c-1.7.1-3.2-2.5-2.9-5.4 0 0-4.8 1.3-4.5-1.2Z"/><path fill="url(#v)" d="M304.2 217.6c3.5-.9 8.2-3.4 8.2-3.4s-.8 1.8.2 2.7c.9 1 2.9-.5 2.9-.5s-.5 4.5 1.6 6.4c.5.3 1 .4 1.4.2 1-.3 1.6-1.8 1.9-3.1 1.4-.3 2.7.7 2.8 2.1.2 1.5-1 2.7-2.4 2.7 0 .9-.2 2.8-.6 3.7-1 2.6-4.4 4-7.1 4.4-1.4.2-2.7.1-3.3-.2-.9-.5-4.2-4.4-5.3-6.7l-.6-1.6c-.7-1.4-1.1-6.2-1.1-6.2l1.4-.5Z"/><path fill="url(#w)" d="M300.3 293c1 1.5 2.4 3 4.1 4.1-2 .6-5.1.8-9.7-1-3.2-1.2-7.2-7.8-10.4-14.2 1.6-4.7 3.4-10 3.5-11 .2-1.8 9.4 17.4 12.5 22.2Z" opacity=".5"/><path fill="url(#x)" d="m288.1 249.1.2.2c-.1 0-.2 0-.2.2-.2.2 0 .6.1 1-1.2-.9-2.4-1.2-3.3-1a10.4 10.4 0 0 0-2.4.9c-.7-1.3-1.5-2.9-1.2-3.8.3-1.2.6-3.6.7-4.8l2 2.3c1.7 2.2 3.5 4.3 4.2 5Z" opacity=".5"/><path fill="url(#y)" d="M296.5 217.6a7.4 7.4 0 0 1 3.6-5s-3.7-1-3-2.3c.8-1.3 5.4-1 6.8-1.5 1.3-.5.9-1.8 2.8-2.7 1-.4 2.4-.5 4-.4s-4 1.4-1.9 3.6c2.3 2.3 9.3 2.1 9.3 2.1s2.3 5.8 4.6 4.2c1.2-1 .2-2.5 0-2.7.3.3 2 2.5 3.8 3.4.5 3.2.2 3.9.7 4.9.6 1 2 2.7-.9 4.4-1.7 1-1.8 4.5-4.7 3.5l-1-2.4.2-2c1.5 0 2.6-1.3 2.4-2.7a2.4 2.4 0 0 0-2.8-2.2c-.3 1.3-.9 2.8-1.8 3.2-.5.2-1 .1-1.5-.3-2-1.9-1.6-6.3-1.6-6.3s-2 1.5-3 .5c-.9-1-.1-2.7-.1-2.7s-4.8 2.5-8.2 3.4l-1.4.5-1.8.7s-4.8 1.3-4.5-1.2Z" opacity=".5"/><path fill="url(#z)" d="M304.2 217.6c3.5-.9 8.2-3.4 8.2-3.4s-.8 1.8.2 2.7c.9 1 2.9-.5 2.9-.5s-.5 4.5 1.6 6.4c.5.3 1 .4 1.4.2 1-.3 1.6-1.8 1.9-3.1 1.4-.3 2.7.7 2.8 2.1.2 1.5-1 2.7-2.4 2.7 0 .9-.2 2.8-.6 3.7-.7 2-2.8 3.2-5 4 1.2-1.4 3.3-4.4 2.4-7.3-1.1-3.9-5.1-7.4-9.4-6a9.4 9.4 0 0 0-4.8 3.3c-.4-1.9-.6-4.3-.6-4.3l1.4-.5Z" opacity=".5"/><path fill="url(#A)" d="M314 235.3a21.5 21.5 0 0 1-1-2.5c2.8-.3 6.2-1.8 7.2-4.4l.4-1.7.9 2.4.7 1.5c-3 5-6.4 5-8.2 4.7Z" opacity=".5"/><path fill="url(#B)" d="M314.4 266c.3 0 .6-.1.8-.4 2.5 1.8 5.9 3.8 8 5.3-.5 1-1.3 2.5-2.3 3.9-3-3-5.4-7-6.5-8.9Z" opacity=".5"/><path fill="url(#C)" d="m303 266.6 5 7 2 2.8c.6 3-1.1 7.1 1.2 13.2a11 11 0 0 0 7 7.1c-5 3.7-10.1 2.7-13.8.4a14 14 0 0 1-4.1-4 132 132 0 0 1-4.7-8.5c5.7-2.9 7.1-13.2 7.5-18Z" opacity=".5"/><path fill="url(#D)" d="M266.4 269.8c-1.7-2-2.3-4.7-2.6-7 3-3 5.5-5.4 6.6-6.1a12 12 0 0 1 7.9-1.2c-1.6 3.3-3 8.4-5.2 16a44.2 44.2 0 0 0-5.5 4.7c.4-2.4.2-4.8-1.2-6.4Z" opacity=".5"/><path fill="#fff" d="M265.4 298.6c6.7-.1 10 .5 13.7.8-.3 1.1-.7 2-1.3 2.1-2.2.6-6.7-.4-11.5 0-4.8.3-8.7-.5-9.9-2-.4-.7-.7-1.5-.7-2.3 1.6.6 4.7 1.4 9.7 1.4ZM238.8 295.5c4.9-.5 10.3.7 13.6.5-.3 1.2-.7 2.2-1.3 2.4-2.2.6-6.8-.4-11.6 0-4.8.3-8.7-.6-9.8-2.1-.3-.5-.6-1.1-.7-1.8 1.7.6 5.5 1.5 9.8 1Z" opacity=".5"/><path fill="url(#E)" d="m301.7 248.3-2.3 1.3-.3.2c-.4 0-2.4-1.8-4.1-3a9.3 9.3 0 0 0-3.4-1.9l14.4 1-4.2 2.4Z" opacity=".5"/><path fill="#fff" d="M19 190.8a7 7 0 0 0-5.6 11.1l5.6 9.8 5.6-9.8a7 7 0 0 0-5.6-11.1Zm0 10.2a3 3 0 1 1 0-6.1 3 3 0 0 1 0 6.1Z"/><path fill="none" stroke="#fff" stroke-miterlimit="10" d="M7.7 174.3h189.7v106.5H7.7zM8.1 151.8H90v17.6H8.1z"/><path fill="#0071bc" d="M68.7 302.2a33.6 33.6 0 1 1-67.2 0 33.6 33.6 0 0 1 67.2 0Z"/><path fill="#fcf6ea" d="M106.2 330.1H68.7c-2.3 0-4.3-2-4.3-4.3v-.7c0-2.3 2-4 4.3-4h37.5s-1 1.4-1 4.3c0 3.2 1 4.7 1 4.7Z"/><path fill="#e8e3d8" d="M106.7 330.3H83.3v-9h23.4s-1.1 1.4-1.1 4.2c0 3.3 1 4.8 1 4.8Z"/><path fill="#333" d="M69.3 330.2c-2.6 0-4.6-1.9-4.6-4.3v-.6c0-1.2.5-2.4 1.4-3.2.9-.8 2-1.2 3.3-1.2.1 0 .3.1.3.3s-.2.3-.4.3c-2.2 0-4 1.7-4 3.8v.6c0 2 1.8 3.7 4 3.7.2 0 .4.1.4.3s-.2.3-.4.3Z"/><path fill="#b2e3d1" d="M107 330.6H68.6a5 5 0 0 1-4.9-4.8v-.7c0-2.5 2.2-4.6 4.9-4.6H107v1.1H68.6c-2.1 0-3.8 1.6-3.8 3.5v.7c0 2 1.8 3.7 3.8 3.7H107v1.1Z"/><path fill="#fcf6ea" d="M97.7 293.4H73.2A3.3 3.3 0 0 1 70 290v-.5c0-1.7 1.5-3 3.2-3h24.5s-.8 1.1-.8 3.2c0 2.5.8 3.6.8 3.6Z"/><path fill="#e8e3d8" d="M98 293.5H84.3v-6.8H98s-.8 1.1-.8 3.2c0 2.5.8 3.6.8 3.6Z"/><path fill="#333" d="M73.7 293.4c-2 0-3.5-1.4-3.5-3.2v-.5c0-.9.4-1.7 1-2.3.7-.6 1.6-1 2.5-1l.2.3s0 .2-.2.2c-1.7 0-3 1.2-3 2.8v.5c0 1.5 1.3 2.8 3 2.8.1 0 .2 0 .2.2s0 .2-.2.2Z"/><path fill="#998675" d="M98.3 293.8H73c-2 0-3.6-1.7-3.6-3.7v-.5c0-1.9 1.6-3.4 3.6-3.4h25.2v.8H73a2.7 2.7 0 0 0-2.8 2.6v.5c0 1.5 1.3 2.8 2.8 2.8h25.2v.9Z"/><path fill="#fcf6ea" d="M102.6 306h-24a3.4 3.4 0 0 1-3.4-3.3v-.5c0-1.8 1.5-3.1 3.3-3.1h24s-.7 1.1-.7 3.3c0 2.5.8 3.6.8 3.6Z"/><path fill="#333" d="M78.9 306.4c-2 0-3.5-1.6-3.5-3.6v-.5c0-2 1.6-3.5 3.6-3.5.2 0 .3.1.3.3s-.1.3-.3.3a3 3 0 0 0-3 2.9v.5a3 3 0 0 0 2.9 3c.2 0 .3.1.3.3s-.1.3-.3.3Z"/><path fill="#005c99" d="M103.2 306.5H78.5c-2 0-3.7-1.8-3.7-3.8v-.5c0-2 1.6-3.5 3.7-3.5h24.7v.7H78.5c-1.7 0-3 1.3-3 2.8v.5c0 1.6 1.4 3 3 3h24.7v.8Z"/><path fill="#fcf6ea" d="M71 320.1h10.1a3 3 0 0 0 3-3v-.4c0-1.6-1.4-2.8-3-2.8h-10s.7 1 .7 3c0 2.2-.7 3.3-.7 3.3Z"/><path fill="#9e005d" d="M81.4 320H97a3 3 0 0 0 3-3v-.4c0-1.6-1.4-2.8-3-2.8H81.5s1.6 1 1.6 3a4 4 0 0 1-1.6 3.3Z"/><path fill="#333" d="m81.2 320.3-.2-.1v-.3c.1 0 1.6-1 1.6-3.1 0-1.8-1.5-2.8-1.5-2.8a.2.2 0 0 1 0-.3c0-.1.1-.1.2 0 0 0 1.8 1 1.8 3.1 0 2.4-1.7 3.4-1.8 3.5h-.1Z"/><path fill="#9e005d" d="M97 320.5H70.5v-.7H97c1.4 0 2.5-1.3 2.5-2.7v-.5c0-1.3-1-2.3-2.5-2.3H70.5v-.8H97c1.9 0 3.3 1.3 3.3 3.1v.5c0 1.8-1.5 3.4-3.3 3.4Z"/><path fill="#fbb03b" d="M88.6 317c0-1.9-.9-3.5-.9-3.5H86s.9 1.6.9 3.6a6 6 0 0 1-1 3.4h1.8s1-1.2 1-3.4ZM96.8 317c0-1.9-1-3.5-1-3.5h-1.7s1 1.6 1 3.6a6 6 0 0 1-1 3.4H96s.9-1.2.9-3.4Z"/><path fill="#fcf6ea" d="M96.5 281.4H86.2c-1 0-2-1-2-2v-.4c0-1 1-1.9 2-1.9h10.3s-.5.7-.5 2c0 1.6.5 2.3.5 2.3Z"/><path fill="#d86060" d="M86 281.3H75.6c-1 0-2-1-2-2v-.3c0-1.1 1-1.9 2-1.9h10.6s-1.1.7-1.1 2c0 1.5 1 2.2 1 2.2Z"/><path fill="#333" d="M86.2 281.4h.1v-.2s-1-.7-1-2.1c0-1.2 1-1.9 1-1.9v-.2h-.2s-1.1.7-1.1 2c0 1.7 1 2.4 1.1 2.4h.1Z"/><path fill="#d86060" d="M75.5 281.5h21.3v-.4H75.5c-.9 0-1.7-.8-1.7-1.8v-.3c0-1 .8-1.6 1.7-1.6h21.3v-.5H75.5c-1.2 0-2.1.9-2.1 2v.4c0 1.2 1 2.2 2.1 2.2Z"/><path fill="#fcf6ea" d="M77.4 276.8H89c.8 0 1.4-.6 1.4-1.3v-.2c0-.7-.6-1.3-1.3-1.3H77.4s.3.5.3 1.4c0 1-.3 1.4-.3 1.4Z"/><path fill="#8ddfe3" d="M89.3 276.8h6.9c.7 0 1.4-.6 1.4-1.4v-.1c0-.8-.7-1.3-1.4-1.3h-7s.8.5.8 1.3c0 1-.7 1.4-.7 1.4Z"/><path fill="#333" d="M89.2 276.9H89c0-.1-.1-.1 0-.1 0 0 .7-.5.7-1.5 0-.8-.7-1.2-.7-1.2v-.1h.2s.7.4.7 1.3c0 1-.7 1.5-.8 1.6Z"/><path fill="#8ddfe3" d="M96.2 277H77v-.4h19c.7 0 1.2-.5 1.2-1.2v-.1c0-.6-.5-1-1.1-1H77v-.4h19c1 0 1.5.6 1.5 1.4v.1c0 .9-.6 1.5-1.4 1.5Z"/><path fill="#333" d="M68.3 306.5h36.3v7H68.3z"/><path fill="#fbb03b" d="M70.4 306.5h1.4v7h-1.4zM72.8 306.5h1.4v7h-1.4zM98.5 306.5h2.9v7h-2.9z"/><path fill="#394a42" d="M69.3 281.5h33.4v4.6H69.3z"/><path fill="#fbb03b" d="M99.7 281.5h1.4v4.6h-1.4z"/><circle cx="73.6" cy="283.9" r="1.3" fill="#fbb03b"/><path fill="#fcf6ea" d="M68.2 298.4H92c1.5 0 3-.6 3-2.1v-.4c0-1.6-1.5-2-3-2H68v4.5Z"/><path fill="#e8e3d8" d="M66.8 298.4h15.6V294H66.8s.4 1 .4 2.3-.4 2.3-.4 2.3Z"/><path fill="#c1272d" d="M92 298.7H66.4v-.4H92c1.8 0 2.7-.7 2.7-2v-.4c0-1.2-.8-1.7-2.7-1.7H66.4v-.5H92c1.3 0 3.1.3 3.1 2.2v.4c0 1-.5 2.4-3 2.4Z"/><path fill="url(#F)" d="M240.2 237.1c-2.7 3-9 7.4-14.3-.3l7.8-26.8s13 11.2 6.5 27.1Z"/><path fill="url(#G)" d="M223 223.8s-2.3 7-7.4 10.4c0 0 6 15.4 10.7 21.7 0 0 3.8-8 3.5-14.9 0 0-2.3-2.8-2.2-4.1s1.6-5 2.4-6l-7-7.1Z"/><path fill="url(#H)" d="M220.8 228.5c1.5-2.6 2.3-4.7 2.3-4.7l6.8 7c-.7 1.1-2.2 4.8-2.3 6l.1.7c-3.6-2-5.8-6.2-6.9-9Z" opacity=".5"/><path fill="none" d="M223 223.8s-2.3 7-7.4 10.4c0 0 6 15.4 10.7 21.7 0 0 3.8-8 3.5-14.9 0 0-2.3-2.8-2.2-4.1s1.6-5 2.4-6l-7-7.1Z"/><path fill="url(#I)" d="M237.8 211.8c2.2 2 5 5.7 2.6 11.8-2 5-3.2 7.3-4.3 8.5-1 1.1-3.3 3.4-4.7 3.3-1.4-.1-7.1-3.2-9-9.8-1.4-.4-4-3.3-3.2-5.8.5-1.7 2-.7 2-.7-.2-1.7.2-6 5.4-9.2 5.3-3 10 .7 11.2 1.9Z"/><path fill="url(#J)" d="m229.3 212.7 1.4-4c3.5 0 6.3 2.2 7.1 3 2.2 2.1 5 5.8 2.6 11.9l-2.3 5.4c-.7-9.4-5.3-15.2-8.8-16.3Z" opacity=".5"/><path fill="none" d="M237.8 211.8c2.2 2 5 5.7 2.6 11.8-2 5-3.2 7.3-4.3 8.5-1 1.1-3.3 3.4-4.7 3.3-1.4-.1-7.1-3.2-9-9.8-1.4-.4-4-3.3-3.2-5.8.5-1.7 2-.7 2-.7-.2-1.7.2-6 5.4-9.2 5.3-3 10 .7 11.2 1.9Z"/><path fill="#be2a34" d="M235.3 228.8c0 .4-.7 1-1.2.6-.6-.2-.8-1-.6-1 .2-.1 1.8.1 1.8.4Z" opacity=".7"/><path fill="none" stroke="#be2a34" stroke-miterlimit="10" d="M235.3 226.2c-.2.8 0 2 0 2.4 0 .4-.4.9-.8.9"/><path fill="#be2a34" d="M233.2 231.4a4 4 0 0 1-3-1.7M234 220.5c.2 0 .2.2.2.2 0 .1-.3.4-.6.4s-.5-.1-.7-.3c-.3-.2-1.4-.9-2-1-.3-.2-1.2-.1-1.1-.2 0-.1 1-.5 1.4-.4.6.2 1.8.6 2.8 1.3ZM240.8 222.5l-.2.4c-.5-.2-1.6-.2-1.9-.2-.2 0-.5 0-.6-.2a.7.7 0 0 1-.2-.5c0-.1.1-.2.3-.2 1 0 2 .3 2.5.5h.1v.2ZM230.4 222.6a1 1 0 1 0 1.7.5 1 1 0 0 0-1.7-.5Z"/><path fill="none" d="M232.3 223c-.1-.4-.4-1-1.2-1.3-1-.2-1.8.4-1.8.4"/><path fill="#be2a34" d="M237.7 225a1 1 0 1 0 1.7.5 1 1 0 0 0-1.7-.5Z"/><path fill="url(#K)" d="M309 227.3c0 .4.6.9 1.2.6.6-.3.7-1 .5-1-.2-.2-1.8 0-1.8.4Z"/><path fill="none" stroke="#333" stroke-miterlimit="10" d="M309 224.6v2.5c0 .3.3.8.7.8"/><path fill="url(#L)" d="M309.2 230.4a4 4 0 0 0 3.1-1.7"/><path fill="url(#M)" d="M310.2 219c-.1 0-.2.1-.1.2 0 0 .2.3.5.4.3 0 .5-.2.8-.3.2-.2 1.3-1 1.9-1.1.3-.1 1.2 0 1.1-.2 0 0-1-.4-1.4-.3-.6.1-1.8.5-2.8 1.2Z"/><path fill="url(#N)" d="m303.5 221 .1.3c.5-.2 1.6-.1 1.9-.1.3 0 .5 0 .7-.2l.1-.6-.3-.1c-1 0-2 .2-2.5.4v.2Z"/><path fill="url(#O)" d="M306.6 223.4a1 1 0 1 1-1.8.6 1 1 0 0 1 1.8-.6Z"/><path fill="url(#P)" d="M313.1 221a1 1 0 1 1-1.7.6 1 1 0 0 1 1.7-.6Z"/><path fill="none" d="M239.6 225.5c-.2-.6-.4-1.1-1.2-1.4-.9-.2-1.7.4-1.7.4"/><g fill="#be2a34"><path d="m222.2 220 .2.4c1.6.4 3.9-1.2 4.2-2.4-.8 3.3-2.3 6-3.7 4.6.2.4.6.7 1 .9 1.5.4 4.4-3.5 5.4-10.8 1.3-1.1 5.4-1 9.2 6.5 4 7.9 2.8 15.2 1.3 18.3 3.1-2.7 4.7-8.7 4.2-15-.7-8-4-14-9.1-16.2-5-2.3-8.6 0-10.4 2-4 .2-5.5 5-6.8 9.9a26.2 26.2 0 0 1-7.7 11.9c-3.3 3.2-4 9-3.9 9.5.1.4.2 2.7 6.2-1.3s10-12.7 10-12.7c-3.8-1.8-3.6-5.3-3-6.3.7-1 1.8-.2 1.8-.2.3 0 .5.3.7.5l.4.5Z"/><path d="M226.6 218c-.8 3.3-2.3 6-3.7 4.6M227.5 212.3c0 1.5-.3 3.7-.9 5.7"/><path d="M226.6 218c-.3 1.2-2.6 2.8-4.3 2.4M225.7 214.8s-.9 4.4-3.4 5.1M223.9 216s-.6 2.7-2 3.5"/><path d="M239.8 237.5c3.1-2.7 4.7-8.7 4.2-15-.7-8-4-14-9.1-16.2-5-2.3-8.6 0-10.4 2-4 .2-5.4 5-6.8 10a26.2 26.2 0 0 1-7.6 11.8c-3.4 3.3-4.1 9-4 9.5.1.4.2 2.7 6.2-1.3s10-12.7 10-12.7c-3.8-1.8-3.6-5.3-3-6.3.7-1 1.8-.2 1.8-.2.3 0 .5.3.7.5l.4.5.2.3c0 .1 0 1.3.5 2.2.2.4.6.7 1 .9 1.5.4 4.4-3.5 5.4-10.8 1.3-1.1 5.4-1 9.2 6.5 4 7.9 2.8 15.2 1.3 18.3"/><path d="M229.3 212.7s.9-3.1 5.3-2.5M229.2 212.5s-1.2-3 .6-4.8"/></g><path fill="#fc8cbe" d="m254 240.8-2.1 5 .5.5c.1-.4 1-2.4 1-2.8.2-.4.7-1.2.7-2.2v-.5Z"/><path fill="#dfd0f2" d="M264.5 225.5s-4 1-5.5 4.2h.2c1.5-1.3 3.4-2 4.8-2.4l.5-1.8ZM245.5 225.6c7.3.9 13.2 4 13.4 4s-5.2-4.3-12.6-5.8l-.8 1.8Z"/><path fill="#fff" d="m244.6 225.5-8.6 18.3s1 1 1 2.3l8.5-18.3 13.4 1.9c-.2-.1-6.1-3.2-13.4-4.1l-1-.1ZM264 227.3c-1.4.3-3.3 1-4.8 2.3l9.1-1.2-2.4-1.6-1.9.4Z"/><path fill="#fc8cbe" d="m259 229.7-3.5 8c.3 0 .5.1.4.5-.1.6-.2 2.3-.1 3 0 .8 0 1-.2 1.8l-.6 3.2c0 .7-.2 1.3-.3 2l4.2-1.4 10.3-18.5-.9.1-9.1 1.2h-.2Z"/><path fill="#fc8cbe" d="M251.3 248.9s-1.4-2.3-1.7-2.7l-2.4-1.2c-.8-.5-1.2-2-1-2.2s.8 0 1.4.5c.6.5 2 .9 2.6 1.1s.8.5 1.2 1l.5.4 2.2-5c0-.9.2-2 .6-2.6.2-.3.5-.5.8-.5l3.5-8h-.1l-13.4-1.9L237 246l-.3.7 7.6 1.3.8.2 2.7.5-2-1.4c-1.4-1-1.6-2.3-1.4-2.4.2-.2.6 0 1.2.5.6.4 1.9.9 2.3 1l1.4 1 2 1.5Z"/><path fill="url(#Q)" d="M249.3 255.9c-.7 2.6-3.4 4.1-5.2 6-.2 2.2 1 6.1 3.2 7.5 2.1-3.2 4.9-9.8 6.2-12.7.2-.5.4-.7.5-1.7.2-1 .5-5.9.7-6.6v-.3c.2-.6.3-1.2.3-2s.4-2.4.6-3.1c.2-.8.2-1 .2-1.8-.1-.7 0-2.4.1-3 .1-.4-.1-.5-.4-.5a1 1 0 0 0-.8.5c-.4.6-.6 1.7-.6 2.6v.5c0 1-.5 1.8-.6 2.2-.1.4-1 2.4-1 2.8-.3-.1-.4-.3-.6-.5l-.5-.4c-.4-.5-.6-.8-1.2-1s-2-.6-2.6-1c-.6-.5-1.1-1-1.4-.6s.2 1.7 1 2.2l2.4 1.3 1.7 2.6-2-1.6c-.6-.5-1-.7-1.4-.8-.4-.2-1.7-.7-2.3-1.1-.6-.4-1-.7-1.2-.6-.3.2 0 1.6 1.3 2.5l2.1 1.3 2 2.5-2.3-1.8c-.6-.4-2.3-1-2.4-1.1l-.8-.2s1.3 2 1.9 2.4l2.3 2.3c.3 1.3.2 2.1.8 3.2Z"/><path fill="#fecb42" d="M242.6 263.7c-.8 5.3 1.3 9.1 1.8 9 1-.2 3-2.3 3-2.4v-1c-2.2-1.3-3.5-5.2-3.3-7.3 0 0-.6.5-1.5 1.7Z"/><path fill="#fecb42" d="M242.7 261.6a98 98 0 0 1-6-10.5c-1.4-3.1-3.9-7-3.9-7l-2.9 15.6c1.2 1.7 7 8.7 7.4 9.4.4.7.7 2.4 1 2.7.4.4 1.5.3 1.9.4l3.2 1.3c.2 0 1-.7 1-.7-.5 0-2.6-3.8-1.8-9.2l1.5-1.7-.7-.4-.7.1Z"/><g fill="none"><path d="m251.9 245.8-.5-.4c-.5-.5-.7-.8-1.3-1s-2-.6-2.5-1c-.6-.5-1.1-1-1.4-.6s.1 1.7 1 2.2l2.4 1.2 1.7 2.7M253.5 247.3l-1-1c-.3-.1-.5-.3-.6-.5M249.9 251.1"/><path d="m252 249.3-.7-.4-2-1.6c-.6-.5-1-.7-1.4-.8-.4-.2-1.7-.7-2.3-1.1-.6-.4-1-.7-1.2-.6-.3.2 0 1.6 1.3 2.5l2.1 1.3 2.1 2.5"/><path d="m250.6 251.6-.7-.5-2.4-1.8c-.6-.4-2.3-1-2.4-1.1M268.4 228.5l.8-.2-10.3 18.5-4.2 1.3"/><path d="m247.8 248.7-2.7-.5-.8-.2-7.6-1.3.3-.6 8.5-18.3 13.4 1.9h.1l.2-.1 9.1-1.1M254.1 240.8l-2.2 5"/><path d="m255.5 237.7 3.5-8s-5.3-4.4-12.7-6l-.8 1.9M244.3 248s1.3 2 1.9 2.4a30.4 30.4 0 0 1 3 3.2"/><path d="M248.5 252.8c.3 1.2.2 2 .8 3 .2.4.5.7.9 1"/><path d="M249.3 255.9c-.7 2.6-3.4 4.1-5.2 6-.2 2.2 1 6.1 3.2 7.5 2.1-3.2 4.9-9.8 6.2-12.7.2-.5.4-.7.5-1.7.2-1 .5-5.9.7-6.6v-.3c.2-.6.3-1.2.3-2s.4-2.4.6-3.1c.2-.8.2-1 .2-1.8-.1-.7 0-2.4.1-3 .1-.4-.1-.5-.4-.5a1 1 0 0 0-.8.5c-.4.6-.6 1.7-.6 2.6v.5c0 1-.5 1.8-.6 2.2-.1.4-1 2.4-1 2.8"/><path d="M239.4 271.2c.6-3.5 2-6 3.2-7.5.9-1.2 1.5-1.7 1.5-1.7l-.7-.5-.8.1c-1 .3-3.1 1-5.7 2.7"/><path d="m247.3 269.4.1.8c0 .2-2 2.3-3 2.6-.5 0-2.7-3.8-1.8-9.1"/><path d="M244.4 272.8s-.8.7-1 .7l-3.2-1.3c-.4-.1-1.5 0-1.9-.4-.3-.3-.6-2-1-2.7-.5-.7-6.2-7.7-7.4-9.4l2.9-15.5s2.5 3.8 3.8 7a98 98 0 0 0 6 10.4M268.4 228.4l-2.5-1.5-1.9.4c-1.4.3-3.3 1-4.8 2.3M258.9 229.7a44 44 0 0 0-13.4-4.1l-1-.1-8.5 18.3s1 1 1 2.3"/><path d="m264 227.3.5-1.9s-4 1.1-5.5 4.3"/></g><path fill="#2e418f" d="M253 270.2c-6.9 1-11.6 2.5-16 3.8-4.3 1.4-12.2 3.5-12.2 3.5l-5.2 2.4v11.6h27s7.1-11.2 6.3-21.3Z"/><path fill="#959cb0" d="M229 245.5s-3.6 1-9.1-.8l6.4 15s2.6-8.2 2.8-14.2Z"/><path fill="#fecb42" d="M228.2 238.6s1.2 7.7-1.9 17.3l-6.4 10.9-.9 13.1s4 .6 7.3-2.6c-.7-4.2-.3-9.5 0-10.3s4-3.5 5-5.9c1-2.4 1.4-10.5 1.6-13.1s.2-3.4-.5-5-4.2-4.4-4.2-4.4Z"/><path fill="#feab47" d="m219 279.9.7-10.7 7.4-3.1a4 4 0 0 0-.8 1c-.3.7-.7 6 0 10.2-3.3 3.2-7.3 2.6-7.3 2.6Z"/><path fill="none" d="M228.2 238.6s1.2 7.7-1.9 17.3l-6.4 10.9-.9 13.1s4 .6 7.3-2.6c-.7-4.2-.3-9.5 0-10.3s4-3.5 5-5.9c1-2.4 1.4-10.5 1.6-13.1s.2-3.4-.5-5-4.2-4.4-4.2-4.4Z"/><path fill="#fecb42" d="M217.2 233s4.4 12.7 9.1 22.9c0 0-1.6 6.8-5.1 11-2 4.2-.7 12.3-.6 12.7s-6.7 2.2-13 1.6c-6.4-.6-9.5-.5-11.3.4-2 .9-5.8 3.3-5.8 3.3s2.2-7.2 7.4-14.4c.6-10 .4-17.2 1.7-25.2.3-1.7 3.6-4.6 6.4-6.2 5.1-2.9 11.2-6.1 11.2-6.1Z"/><path fill="#feab47" d="M217.2 233s1.8 5 4.3 11.3l-4 4-1.6-14.6 1.3-.7ZM214.9 281l-2.7.2c-4-.9-11.7-2.3-19.5-1.9 1.2-2.5 3-5.7 5.2-8.8.4-6.7.4-12 .8-17.2l11-2.4L215 281Z"/><path fill="none" d="M217.2 233s4.4 12.7 9.1 22.9c0 0-1.6 6.8-5.1 11-2 4.2-.7 12.3-.6 12.7s-6.7 2.2-13 1.6c-6.4-.6-9.5-.5-11.3.4-2 .9-5.8 3.3-5.8 3.3s2.2-7.2 7.4-14.4c.6-10 .4-17.2 1.7-25.2.3-1.7 3.6-4.6 6.4-6.2 5.1-2.9 11.2-6.1 11.2-6.1Z"/><path fill="#fecb42" d="m220.8 242.7-5.2 3.1-.5-11.6 3.4-2.5 2.3 11zM227.6 237.1l.8 7 2.6 2-1.8-6.6-1.6-2.4z"/><path fill="none" d="M197.1 270a24.7 24.7 0 0 1 8.8-6.3c.4 0 1.2 1.8 1.2 1.8s-1 .5-2.4 1.5c-2 1.5-5 4-7.1 7.3M205 264c-1.2.2-6.2 1-10 3.7M205.3 264h-.3M205 264s-2.6-1-5.2-.5"/><path fill="none" d="m207.1 265.5 2 .4.3.3s-1.6 2.3-2.4 4.8a12.1 12.1 0 0 0-.6 3.5s-.4.5-.8.5H203s-.5-4.4 1.7-8M215.2 237.1s-4.1 2-7.4 4.8c1.5 4.4 3 8.6 1.1 12.8l-3.3 7c0 .4.4 1.2.2 1.5l-.3.7"/><path fill="none" d="M203 275s-.6.6-1.1.6l-3.3-.3c-.4 0-2.2.5-2.8.3-.5-.2-.9-1.2-1.3-1.7-.5-.5-2.9-1.8-2.7-3.2.2-1.4 3.7-12 4.5-14.8.8-2.7 1.9-9.4 3.7-11.6.2-.3 1-1.5 1.4-1.8M209.4 266.2l12.7 1.3c1.2.3 1.9.3 2.6 1 .7.7 4 3.4 4.7 4.2.3.3.5.5.6.8l.4 1.6.7 3.1c.1.9-.1 1.8-.3 2.4-.2.5-.2 1.5-.2 2v.1c0 .4 0 .7-.3.7s-1-.5-1-.9"/><path fill="none" d="m228.2 275 1 3c.2.5.1 1 0 1.5l.1 2.4v.6h-.3c-.3 0-.8-.5-.8-1.3l-.5-2.2-1-2c-.3-.6-2.1-1-3.2-1.8-1-.7-1.7-1.9-2-2.8-6.7-.2-12 1.5-15.1 1.6"/><path fill="url(#R)" d="m230 273.5 1.9 3.8c.3.8.3 1.6.1 2.4l-.6 2.4-.1 1c-.2.1-.7-.3-.7-.4"/><path fill="url(#S)" d="m230 273.5.4 1.6.7 3.1c.1.9-.1 1.8-.3 2.4-.2.5-.2 1.5-.2 2v.1c0 .1.5.5.7.4.2 0 0-.5.1-1l.6-2.5c.2-.7.2-1.5-.1-2.3l-1.9-3.8Z" opacity=".5"/><path fill="#fecb42" d="m205.5 263.9.3-.7c.2-.3-.2-1.1-.2-1.4 0-.3 1.5-3 3.3-7.1s.4-8.4-1-12.9c-1.8-.1-6.1.4-8 2.5-1.7 2.1-2.8 8.9-3.6 11.6-.7 2.7-4.3 13.3-4.5 14.8-.2 1.4 2.2 2.7 2.7 3.2.4.5.8 1.5 1.3 1.7.6.2 2.3-.3 2.8-.3l3.3.3c.5 0 1-.6 1-.6s-.4-4.4 1.8-8l2.4-1.5s-.8-1.8-1.2-1.8l-.4.2Z"/><path fill="#feab47" d="m191.8 270.7.3-1.3c6.9-4.8 12.8-5.3 12.8-5.3-6.2 3.4-9 7.6-10.3 10l-.1-.2c-.5-.5-2.9-1.8-2.7-3.2ZM204.7 267c-2.2 3.7-1.7 8-1.7 8s-.6.6-1.2.6l-3.2-.3-2 .3a33 33 0 0 1 8.1-8.5Z"/><path fill="#fecb42" d="M204.7 267c-2.2 3.7-1.7 8-1.7 8h2.6c.4 0 .8-.5.8-.5v-.5c0-.5.1-1.5.6-3 .8-2.5 2.4-4.8 2.4-4.8l-.4-.3-1.9-.4s-1 .5-2.4 1.5Z"/><path fill="url(#T)" d="M229.2 282.5c0 .4.8.9 1 .9.3 0 .3-.3.4-.7v-.2c0-.4 0-1.3.2-2 .1-.5.4-1.4.2-2.2l-.6-3.2-.4-1.6-.6-.8c-.7-.7-4-3.4-4.7-4.2-.7-.7-1.3-.8-2.6-1l-12.7-1.3s-1.6 2.3-2.4 4.8c-.5 1.5-.6 2.5-.6 3 3 0 8.4-1.8 15-1.6.4 1 1 2.2 2 2.8 1.1.7 3 1.2 3.3 1.8l1 2c.2.6.4 1.4.4 2.2.1.8.6 1.3.9 1.4h.2Z"/><path fill="url(#U)" d="M206.4 274c0-.6.1-1.5.6-3 .8-2.5 2.4-4.8 2.4-4.8l2.1.2c1.8 3 4.6 5 6.2 6-4.9.4-8.8 1.5-11.3 1.6Z" opacity=".5"/><path fill="#feab47" d="M218.4 292.9a5 5 0 0 1-.8 3.1s.7-.6 1.7-.5c1 0 4.2.2 5.9-.4-2.7-.7-5-1.5-6.8-2.2ZM257.4 296.3c-.8-.9-1-2-1.1-3.3 0-1 0-2 .4-2.9-.8 2-1 2.3-3.1 2.4-2.2.1-5.6-.1-7-.3a5 5 0 0 1-2.7-1.3l-.7.4c-.7.7-1.1 2-1.1 3.5 0 1 .3 1.8.8 2.3.5.4 1.2.7 2 .7 0 0 .7-.7 1.6-1l8.4-1.2c1.1-.2 1.9.2 2.5.7Z"/><path fill="#fecb42" d="M216.4 297.3s0 .4 1.2.4h6.7c1.1 0 2.6-.5 3.5-1.3-.3-.3-.3-.6-.3-.6l-2.3-.7c-1.7.6-5 .5-6 .4-1 0-1.5.5-1.6.5-.4.6-.8 1-1.2 1.2ZM243.9 291a5 5 0 0 0 2.7 1.2c1.4.2 4.8.4 7 .3 2.2 0 2.3-.4 3-2.4a7 7 0 0 1 1.7-3c-1.7-.4-3.3-.5-4-.4a35 35 0 0 1-11 3.7s.2.3.6.5Z"/><path fill="#feab47" d="M257.4 287a32.5 32.5 0 0 1-10.8 5.3 5 5 0 0 1-2.7-1.4l-.6-.5c2.7-.4 6.8-1.5 11-3.7.6 0 1.8 0 3.1.2Z"/><path fill="#fecb42" d="M244.8 297.8H258.2a5 5 0 0 0 1.8-.3 4.1 4.1 0 0 1-2.7-1.2c-.5-.5-1.3-.9-2.4-.7-1.2 0-7.4 1-8.4 1.3-1 .2-1.6.8-1.7 1Z"/><path fill="#6476c4" d="M211.4 289.1c-4.3 2.4-5.1 7.1-2 8.6h1.1c-1.4-2 .2-5.8 3.2-7.2-.7-.4-1.3-.8-1.8-1.3h-.4Z"/><path fill="url(#V)" d="M213.7 290.5c-3 1.4-4.6 5.2-3.2 7.2h4.8l1-.5c.5-.2 1-.6 1.3-1.2.5-.7.8-1.8.8-3.1-1.9-.8-3.4-1.5-4.7-2.4Z"/><path fill="url(#W)" d="m211.4 289.1.4.1a28.8 28.8 0 0 0 6.5 3.7 5 5 0 0 1-.7 3.1l-.2.3c-2.4-.8-6-2.3-9-4.5.7-1 1.7-2 3-2.7Z" opacity=".5"/><path fill="#fff" d="M254.3 286.7c.7 0 2.3 0 4 .4 2 .5 4 1.6 4.7 3.6 1 3-.4 5.6-2.6 6.7 4.8-1 5.6-5.6 3.7-8.5-1.6-2.3-5.6-3.3-7.9-3.3l-1.9 1Z"/><path fill="#dfd0f2" d="m263.1 287.9-1.7.6c-.9-.7-2-1.1-3.1-1.4-1.7-.4-3.3-.5-4-.4l2-1.2c1.9 0 5 .8 6.8 2.4Z"/><path fill="#fff" d="M256.6 290.1c-.2 1-.4 2-.3 2.9 0 1.3.3 2.5 1 3.3.6.6 1.5 1 2.7 1.2l.3-.1c2.3-1 3.7-3.7 2.7-6.6-.6-2.1-2.7-3.2-4.8-3.7a7 7 0 0 0-1.6 3Z"/><path fill="url(#X)" d="M236.8 294.2c-.7 1.2-1.3 2-1.8 2.5 3.2.4 5.6.3 7.9.4a3 3 0 0 1-.8-2.2c0-1.6.4-3 1.1-3.6l-2.1-.7-3.4-1.7c.1 1 0 3.5-1 5.3Z"/><path fill="#6476c4" d="M233 292c-1.5 3.7-5.5 3.8-5.5 3.8s0 .4.3.6a52.8 52.8 0 0 0 4.2 1.2c.6.1 1.4.2 2 0l1-1c.5-.4 1.1-1.2 1.8-2.4 1-1.8 1-4.3 1-5.3l-.2-.4-3.3-2.2c-.3-.3-1 0-1 0s1.2 1.9-.4 5.8Z"/><path fill="#485cb3" d="m249.8 273.3-.7.2c-2.5 1-5.4 2.1-8 5.4a51.9 51.9 0 0 1-6.8 7.4l3.3 2.2v.4s1.7 1 3.5 1.7c.4 0 1.2 0 2.2-.2a35.2 35.2 0 0 0 13-4.9l.6-.4c6.6-4.4 6.5-6.5 6.5-7.2 0-.8-.7-5.3-2.7-6.7s-5.8-1.1-7.2-1c-1.4 0-1.6.5-2.1 1.2l-1.6 1.9ZM192.7 283.5s-1 2.5 0 6.3 4.8 7.9 9.5 7.9h7.2c-3.1-1.5-2.3-6.2 2-8.6l.4.1a28.8 28.8 0 0 0 6.5 3.7 65.2 65.2 0 0 0 9.2 2.9s4-.1 5.4-3.7c1.5-4 .4-5.9.4-5.9-3-1.7-10.8-8.1-14.5-10.7-3.7-2.7-6-4.7-9-4.7-2.6 0-8.6 3.5-13.7 10.8l-3.4 2Z"/><path fill="#2e418f" d="M209.4 297.7h-7.2c-4.7 0-8.5-4.1-9.5-8-1-3.7 0-6.2 0-6.2l1.5-.8c-.2.9.5 1 .5 1-.5 1 .3 2.3 1.9 2.5s4.3-.9 6-1.5 2.1.1 2.1.1c.7.6 1.4.5 1.4.5.3.1.8 0 1-.2.4-.3 1-.4 1-.2l.6 1c.4.5 2.5 0 3.1 0s.8.6 1 1 1.7 3 5 4.4c3.3 1.5 11.6 4 11.6 4l-1.6.5h-.3l-2.3-.6c-2.7-.8-5-1.5-6.8-2.3a28.8 28.8 0 0 1-6.6-3.7h-.4c-4.3 2.4-5.2 7-2 8.5Z"/><g fill="none"><path d="M233.3 286.3s.7-.3 1 0l3.3 2.2.1.4c.1 1 0 3.5-1 5.3-.6 1.2-1.2 2-1.7 2.5l-1 .8c-.6.3-1.4.2-2 .1a51.5 51.5 0 0 1-4.3-1.2l-.2-.6s4-.1 5.4-3.7c1.5-4 .4-5.8.4-5.8ZM195.8 282a45 45 0 0 0-2.7 4.5M233.3 286.3c-3-1.8-10.7-8.3-14.5-10.9-3.7-2.5-6-4.6-9-4.5-2.6 0-8.6 3.4-13.7 10.7l-.3.4"/><path d="m210.7 288.2-.2-.1c-3.2-3-4.3-8-4.3-8M227.5 295.8l-2.3-.7c-2.7-.7-5-1.5-6.8-2.2a28.8 28.8 0 0 1-7.7-4.7"/><path d="M211.9 289.2h-.4c-4.2-1.1-8.3-4.8-9-9.3"/><path d="M211.4 289.1c-4.3 2.4-5.1 7.1-2 8.6"/><path d="M213.7 290.5c-3 1.4-4.6 5.2-3.2 7.2h-8.3c-4.7 0-8.5-4.1-9.5-8-1-3.8 0-6.2 0-6.2l3.4-1.9M217.6 296c.5-.7.8-1.8.8-3.1M210.5 297.7h4.8c.2 0 .6-.1 1-.4.5-.3 1-.7 1.3-1.3M216.4 297.3s0 .4 1.2.4h6.7c1.1 0 2.6-.5 3.5-1.3M217.6 296s.7-.6 1.7-.5c1 0 4.2.2 5.9-.3M237.7 288.9s1.6 1 3.4 1.7l2.1.7"/><path d="M241 290.6c.5 0 1.3 0 2.3-.2a35.2 35.2 0 0 0 13-4.9l.6-.4c6.6-4.4 6.5-6.5 6.5-7.2 0-.8-.7-5.3-2.7-6.7s-5.8-1.1-7.2-1c-1.4 0-1.6.5-2.1 1.2l-1.6 1.9"/><path d="M253.9 271.2s-2 1.2-4.2 2l-.6.3c-2.5 1-5.4 2.1-8 5.4a51.9 51.9 0 0 1-6.8 7.4M254.3 286.7c.7 0 2.3 0 4 .4 2 .5 4 1.6 4.7 3.6 1 3-.4 5.6-2.6 6.7l-.4.1c-.5.2-1.1.2-1.7.2h-13.5c-.7 0-1.4-.2-2-.6a3 3 0 0 1-.7-2.3c0-1.5.4-2.8 1.1-3.5l.7-.4"/><path d="M242.9 297c-2.3 0-4.7 0-7.9-.3M260 297.5a4.1 4.1 0 0 1-2.6-1.2c-.8-.9-1-2-1.1-3.3 0-1 0-2 .4-2.9a7 7 0 0 1 1.6-3M256.6 290.1c-.7 2-.8 2.3-3 2.4-2.2.1-5.6-.1-7-.3a5 5 0 0 1-2.7-1.3l-.6-.5M257.4 296.3c-.6-.5-1.4-.9-2.5-.7-1.2.1-7.4 1-8.4 1.3a3 3 0 0 0-1.5.8"/><path d="M256.3 285.6c2.3 0 6.2 1 7.8 3.3 1.9 2.9 1.1 7.4-3.7 8.5"/></g><path fill="none" d="M229.4 295.4s-8.3-2.6-11.6-4c-3.3-1.6-4.7-4-5-4.5s-.3-1.1-1-1-2.7.5-3 0l-.6-1c-.2-.2-.7 0-1 .2-.3.2-.8.3-1 .2M204.7 284.8s-.3-.7-2 0-4.6 1.7-6.1 1.5-2.4-1.5-2-2.5c0 0-.6-.2-.4-1"/><path fill="#fff" d="M253.9 296.3c0 .4.4.7.8.7.5 0 .7-.5.7-.9l-.7-4.5c0-.4-.4-.7-.8-.6-.4 0-.7.4-.6.8l.6 4.5ZM250.1 296.7c0 .4.4.7.8.7s.7-.4.7-.8l-.3-4.6c0-.4-.4-.7-.8-.7s-.7.4-.7.8l.3 4.6ZM246.7 296.6c0 .4.3.8.8.8.4 0 .7-.4.7-.8l-.1-4.6c0-.4-.4-.7-.8-.7s-.7.3-.7.8v4.5Z"/></g></svg>