<svg id="bd13021b-1988-45cf-9206-601b49cc70e0" data-name="ba618c9e-48be-4883-8055-d5da21351b6a" xmlns="http://www.w3.org/2000/svg" xmlns:xlink="http://www.w3.org/1999/xlink" width="335" height="335" viewBox="0 0 335 335">
  <defs>
    <clipPath id="b5e02c93-8f46-4675-9ca7-83de9618eaf9">
      <rect width="335" height="335" fill="none"/>
    </clipPath>
    <radialGradient id="b4be878c-5d21-4479-b7e3-245dcc919771" cx="358.61" cy="557.22" r="257.17" gradientTransform="translate(-119.4 -278.3) scale(0.8)" gradientUnits="userSpaceOnUse">
      <stop offset="0" stop-color="#c3f"/>
      <stop offset="1" stop-color="#0f171b"/>
    </radialGradient>
  </defs>
  <g>
    <g clip-path="url(#b5e02c93-8f46-4675-9ca7-83de9618eaf9)">
      <g>
        <g>
          <rect width="335" height="335" fill="url(#b4be878c-5d21-4479-b7e3-245dcc919771)"/>
          <g>
            <g>
              <rect x="280.3" y="-25.8" width="89.1" height="377.38" transform="translate(-32 94) rotate(-15.7)" fill="#c3f" opacity="0.33" style="isolation: isolate"/>
              <rect x="299.5" y="-31.3" width="89.4" height="378.42" transform="translate(-29.9 99) rotate(-15.7)" fill="#c3f" opacity="0.38" style="isolation: isolate"/>
              <rect x="282.5" y="-16.7" width="19" height="378.42" transform="translate(-35.8 85.5) rotate(-15.7)" fill="#ff0"/>
              <rect x="330.7" y="-33.7" width="19" height="100.77" transform="translate(8.2 92.7) rotate(-15.7)" fill="#ff0"/>
            </g>
            <path d="M285.3-22.1l-3,.9L313.1,88.6l3.1-.8Z" fill="#fff" fill-rule="evenodd"/>
          </g>
        </g>
        <g>
          <g id="b1a6fb72-3b0d-4706-9c2c-de74685e492e" data-name="f1d01dec-5683-4ebe-94fa-5e65d3b8ba7d">
            <g id="a0ea5b93-5fb3-4819-a035-660132b815e8" data-name="f7be8aa4-b5d6-4896-8615-d948c6c83c25">
              <g id="e7774aa3-af4c-4661-99bb-f115409312f2" data-name="f1d01901-9f07-4072-9f59-d75b80df9f59">
                <path d="M276.6,287.3c0-3.8,3.5-9,4.3-11.1a19.3,19.3,0,0,0,1.1-5.3,32.5,32.5,0,0,0-.4-8.8h0v-.6a3.4,3.4,0,0,1,3.7-3,3.3,3.3,0,0,1,3,2.6v1h0a32.5,32.5,0,0,0-.4,8.8,19.3,19.3,0,0,0,1.1,5.3c.8,2,4.3,7.3,4.3,11.1s-2.5,13-3.9,18.2h0a2.1,2.1,0,0,1-1.3,1.6,6.8,6.8,0,0,1-6.2,0,2.1,2.1,0,0,1-1.3-1.6h0C279.1,300.3,276.6,291,276.6,287.3Z" fill="#f5f5f5"/>
                <path d="M284.9,258.7a3,3,0,0,1,2.8,2.8.6.6,0,0,1-.1.4,35.7,35.7,0,0,0-.4,4.6,32.3,32.3,0,0,0,0,4.4,17.5,17.5,0,0,0,1.2,5.5,25.6,25.6,0,0,0,1.1,2.4c1.3,2.5,3.1,5.9,3.1,8.5s-1.3,8.7-3.9,18h0a1.5,1.5,0,0,1-1,1.2,6.1,6.1,0,0,1-5.6,0,1.7,1.7,0,0,1-1-1.2h0c-2.6-9.3-3.9-15.4-3.9-18.1s1.8-6,3.1-8.5a16.3,16.3,0,0,0,1.1-2.3,17.5,17.5,0,0,0,1.2-5.5,38.8,38.8,0,0,0-.4-9,2.6,2.6,0,0,1,2-3.1h.7m0-.6a3.4,3.4,0,0,0-3.4,3.4h0c0,.2.1.3.1.5a37.1,37.1,0,0,1,.4,8.8,16.3,16.3,0,0,1-1.2,5.4c-.8,2-4.2,7.3-4.2,11s2.4,13,3.9,18.2a2.1,2.1,0,0,0,1.2,1.7,7,7,0,0,0,6.3,0,2.1,2.1,0,0,0,1.3-1.7c1.4-5.1,3.9-14.5,3.9-18.2s-3.5-9-4.3-11a16.8,16.8,0,0,1-1.1-5.4,32.5,32.5,0,0,1,.4-8.8v-.5a3.5,3.5,0,0,0-3.3-3.4Z" fill="#e0e0e0"/>
                <path d="M282,271.3a1.8,1.8,0,0,0,.9,1.2,4.9,4.9,0,0,0,4.1,0,1.3,1.3,0,0,0,.8-1.2.3.3,0,0,0,0-.4v-1.5a1.4,1.4,0,0,1-.9,1.1,4.1,4.1,0,0,1-4,0,1.6,1.6,0,0,1-.8-1v1.4C282,271,282,271.1,282,271.3Z" fill="#be1e2d"/>
                <path d="M282.2,277.5a5.9,5.9,0,0,0,5.5,0,1.7,1.7,0,0,0,1-2h0c-.1-.5-.3-1-.4-1.5a1.5,1.5,0,0,1-1,1.5,5.5,5.5,0,0,1-4.7,0,1.8,1.8,0,0,1-1-1.5c-.2.5-.3.9-.5,1.5h0A1.7,1.7,0,0,0,282.2,277.5Z" fill="#be1e2d"/>
                <path d="M286.5,307.1c-1.6,0-2.8,0-4.5-7.3s-2.6-14.2-.1-20.7a27.1,27.1,0,0,0,1.6-14.9c-.4-3.3.3-6.5,3-5.7a3.4,3.4,0,0,0-4.5,1.3h0a3.4,3.4,0,0,0-.4,2.2,33.1,33.1,0,0,1,.4,8.9,16.2,16.2,0,0,1-1.1,5.3c-.8,2-4.3,7.3-4.3,11.1s2.5,13,3.9,18.2a2.3,2.3,0,0,0,1.3,1.6,7,7,0,0,0,6.3,0,2.2,2.2,0,0,0,1.2-1.6A2.8,2.8,0,0,1,286.5,307.1Z" opacity="0.15" style="isolation: isolate"/>
              </g>
              <g id="e294eeec-4e2c-423a-9d3d-9c886ea784a7" data-name="b535cabe-a83c-4df7-a66f-d3e898724efc">
                <path d="M261.8,292.3c0-3.8,3.5-9,4.3-11.1a19.3,19.3,0,0,0,1.1-5.3,33.1,33.1,0,0,0-.4-8.9h0v-.5a3.4,3.4,0,0,1,3.9-2.8,3.5,3.5,0,0,1,2.8,2.8.7.7,0,0,1-.1.5h0a34.2,34.2,0,0,0-.4,4.5,32.3,32.3,0,0,0,0,4.4,16.3,16.3,0,0,0,1.2,5.3c.8,2,4.2,7.3,4.2,11.1s-2.4,13-3.9,18.2h0a2.2,2.2,0,0,1-1.2,1.6,7,7,0,0,1-6.3,0,2.3,2.3,0,0,1-1.3-1.6h0C264.3,305.3,261.8,296,261.8,292.3Z" fill="#f5f5f5"/>
                <path d="M270.1,263.7a3,3,0,0,1,2.8,2.8h0v.4a35.9,35.9,0,0,0-.5,4.6,21.6,21.6,0,0,0,.1,4.4,17.4,17.4,0,0,0,1.1,5.5l1.2,2.4c1.3,2.5,3.1,5.9,3.1,8.5s-1.3,8.7-3.9,18h0a1.5,1.5,0,0,1-1,1.2,6.4,6.4,0,0,1-5.7,0,1.5,1.5,0,0,1-1-1.2h0c-2.5-9.3-3.8-15.4-3.8-18.1s1.7-6,3-8.5l1.2-2.3a20.7,20.7,0,0,0,1.1-5.5,32.3,32.3,0,0,0,.1-4.4,35.9,35.9,0,0,0-.5-4.6v-.4a2.7,2.7,0,0,1,2.6-2.8h.1m0-.6a3.5,3.5,0,0,0-3.3,3.4.9.9,0,0,0,.1.5,43.3,43.3,0,0,1,.4,8.8,16.3,16.3,0,0,1-1.2,5.4c-.8,2-4.3,7.3-4.3,11s2.5,13,3.9,18.3a2.3,2.3,0,0,0,1.3,1.6,7,7,0,0,0,6.3,0,2.6,2.6,0,0,0,1.3-1.6c1.4-5.2,3.8-14.5,3.8-18.3s-3.4-9-4.2-11a16.3,16.3,0,0,1-1.2-5.4c-.1-1.4-.1-2.9-.1-4.3a36.4,36.4,0,0,1,.5-4.5c.2-1.5.1-.3.1-.5a3.4,3.4,0,0,0-3.4-3.4Z" fill="#e0e0e0"/>
                <path d="M267.2,276.3a1.3,1.3,0,0,0,.8,1.2,5.1,5.1,0,0,0,4.2,0,1.3,1.3,0,0,0,.8-1.2v-1.9a1.4,1.4,0,0,1-.9,1.1,4.1,4.1,0,0,1-4,0,1.6,1.6,0,0,1-.8-1,6.6,6.6,0,0,1-.1,1.4Z" fill="#be1e2d"/>
                <path d="M267.4,282.5a5.9,5.9,0,0,0,5.5,0,1.6,1.6,0,0,0,1-1.9h0c-.1-.5-.3-.9-.4-1.4a1.5,1.5,0,0,1-1,1.4,5.1,5.1,0,0,1-4.8,0,1.8,1.8,0,0,1-1-1.5,8.3,8.3,0,0,1-.4,1.5h0A1.8,1.8,0,0,0,267.4,282.5Z" fill="#be1e2d"/>
                <path d="M271.6,312.1c-1.5,0-2.8-.1-4.5-7.3s-2.6-14.2-.1-20.8a27.6,27.6,0,0,0,1.7-14.8c-.5-3.8.3-6.5,2.9-5.7a3.4,3.4,0,0,0-4.5,1.4,4.2,4.2,0,0,0-.4,1.6c0,.2.1.4.1.6s.4,2.9.5,4.4a32.3,32.3,0,0,1-.1,4.4,16.3,16.3,0,0,1-1.2,5.3c-.8,2-4.2,7.4-4.2,11.1s2.4,13,3.9,18.2a2.3,2.3,0,0,0,1.3,1.7,7.5,7.5,0,0,0,6.2,0,2.3,2.3,0,0,0,1.3-1.7A2.9,2.9,0,0,1,271.6,312.1Z" opacity="0.15" style="isolation: isolate"/>
              </g>
              <g id="b501b25a-ebfa-4502-9516-9fdcd7017845" data-name="a25851b9-a18c-419b-a88f-8948aa82e143">
                <path d="M286.8,298.7c0-3.7,3.4-9,4.2-11a16.3,16.3,0,0,0,1.2-5.4,37.1,37.1,0,0,0-.4-8.8h0c0-.2-.1-.3-.1-.5a3.4,3.4,0,0,1,3.2-3.6h0a3.4,3.4,0,0,1,3.5,3.2v.9h0a32.5,32.5,0,0,0-.4,8.8,19.9,19.9,0,0,0,1.1,5.4c.8,2,4.3,7.3,4.3,11s-2.5,13-3.9,18.3h0a2.1,2.1,0,0,1-1.3,1.6,6.8,6.8,0,0,1-6.2,0,2.1,2.1,0,0,1-1.3-1.6h0C289.2,311.8,286.8,302.5,286.8,298.7Z" fill="#f5f5f5"/>
                <path d="M295,270.2a2.8,2.8,0,0,1,2.8,2.7h0v.5a23,23,0,0,0-.5,4.5,32.3,32.3,0,0,0,0,4.4,17.5,17.5,0,0,0,1.2,5.5c.4.8.7,1.6,1.2,2.4,1.3,2.5,3,5.9,3,8.5s-1.3,8.7-3.8,18.1h0a1.7,1.7,0,0,1-1,1.2,6.4,6.4,0,0,1-5.7,0,1.5,1.5,0,0,1-1-1.2h0c-2.6-9.3-3.9-15.4-3.9-18s1.8-6,3.1-8.5a25.6,25.6,0,0,0,1.1-2.4,17.5,17.5,0,0,0,1.2-5.5,32.3,32.3,0,0,0,.1-4.4,34.4,34.4,0,0,0-.5-4.5,2.7,2.7,0,0,1,2.1-3.2h.6m0-.6a3.3,3.3,0,0,0-3.3,3.3v.6a32.5,32.5,0,0,1,.4,8.8,19.3,19.3,0,0,1-1.1,5.3c-.8,2-4.3,7.4-4.3,11.1s2.5,13,3.9,18.2a2.1,2.1,0,0,0,1.3,1.7,6.8,6.8,0,0,0,6.2,0,2.1,2.1,0,0,0,1.3-1.7c1.5-5.2,3.9-14.5,3.9-18.2s-3.5-9-4.2-11.1a16.3,16.3,0,0,1-1.2-5.3,37.1,37.1,0,0,1,.4-8.8V273a3.3,3.3,0,0,0-3.3-3.3Z" fill="#e0e0e0"/>
                <path d="M292.1,282.8a1.4,1.4,0,0,0,.9,1.1,4.3,4.3,0,0,0,4.1,0,1.4,1.4,0,0,0,.9-1.1v-.5c0-.5-.1-1-.1-1.4a1.5,1.5,0,0,1-.8,1.1,4.7,4.7,0,0,1-4,0,1.2,1.2,0,0,1-.8-1.1,6.6,6.6,0,0,1-.1,1.4Z" fill="#be1e2d"/>
                <path d="M292.3,289a5.9,5.9,0,0,0,5.5,0,1.8,1.8,0,0,0,1.1-2h0a7.4,7.4,0,0,1-.4-1.4,2.1,2.1,0,0,1-1,1.4,5.1,5.1,0,0,1-4.8,0,1.5,1.5,0,0,1-1-1.5c-.1.5-.3,1-.4,1.5h0C291,287.7,291.4,288.4,292.3,289Z" fill="#be1e2d"/>
                <path d="M296.6,318.6c-1.5,0-2.8-.1-4.5-7.3s-2.6-14.2-.1-20.8a27.7,27.7,0,0,0,1.7-14.8c-.5-3.7.3-6.5,2.9-5.7a4.2,4.2,0,0,0-1.5-.4,3.4,3.4,0,0,0-3.4,3.4.9.9,0,0,0,.1.5,43.3,43.3,0,0,1,.4,8.8,16.3,16.3,0,0,1-1.2,5.4c-.8,2-4.3,7.3-4.3,11s2.5,13,3.9,18.2a2.3,2.3,0,0,0,1.3,1.7,7,7,0,0,0,6.3,0,2.7,2.7,0,0,0,1.3-1.7A3,3,0,0,1,296.6,318.6Z" opacity="0.15" style="isolation: isolate"/>
              </g>
            </g>
          </g>
          <g id="bc4705b5-611b-42d7-8ea2-bef5bfb0745d" data-name="b5753a2b-032f-48cf-98af-aa89e69af89c">
            <g id="bcdbe6a5-f4b8-4e69-a11c-3c0f76ed793b" data-name="a43d4c10-c174-4b6a-83a9-cb394f742c3f">
              <circle cx="246.5" cy="305.6" r="15.6" fill="#be1e2d"/>
              <path d="M230.9,305.6a15.8,15.8,0,0,1,9.6-14.5s-8.8,9.7-2.9,19.3,19.5,7,22.8,2.5a15.7,15.7,0,0,1-29.5-7.3Z" opacity="0.2" style="isolation: isolate"/>
              <path d="M241.2,296.5c.3.5,1.1.5,1.9.1a1.3,1.3,0,0,0,.8-1.6h0c-.2-.5-1.1-.5-1.8-.1S240.9,296,241.2,296.5Z" opacity="0.3" style="isolation: isolate"/>
              <path d="M235.8,297.2c.3.3,1.1.2,1.6-.3s.8-1.2.4-1.6-1-.2-1.6.3A1.2,1.2,0,0,0,235.8,297.2Z" opacity="0.3" style="isolation: isolate"/>
              <path d="M236.6,301.5a1.3,1.3,0,0,0,1.8-.3c.7-.6.8-1.4.4-1.8s-1.2-.3-1.8.4S236.3,301.2,236.6,301.5Z" opacity="0.3" style="isolation: isolate"/>
            </g>
            <g id="a588c3c2-4692-4a80-bd17-6dd493badcda" data-name="f67d22b5-6687-4b07-82de-f891553ce1bf">
              <circle cx="272" cy="316.2" r="15.6" fill="#ff0"/>
              <path d="M256.3,316.2a15.6,15.6,0,0,1,9.6-14.4S257,311.4,263,321s19.5,7,22.7,2.5a15.6,15.6,0,0,1-29.4-7.3Z" opacity="0.2" style="isolation: isolate"/>
              <path d="M277.1,307c-.2.5-1.1.5-1.8.1s-1.2-1.2-.9-1.7,1.2-.5,1.9-.1S277.4,306.5,277.1,307Z" fill="#263238"/>
              <path d="M282.6,307.7a1.1,1.1,0,0,1-1.5-.1H281c-.6-.5-.8-1.3-.5-1.6a1.3,1.3,0,0,1,1.6.2C282.7,306.6,282.9,307.3,282.6,307.7Z" fill="#263238"/>
              <path d="M281.7,312.1a1.3,1.3,0,0,1-1.8-.3c-.6-.7-.8-1.5-.4-1.8a1.3,1.3,0,0,1,1.8.3C282,310.9,282.1,311.7,281.7,312.1Z" fill="#263238"/>
            </g>
          </g>
        </g>
        <g>
          <circle cx="291.2" cy="167.5" r="82.6" fill="#db1e32"/>
          <circle cx="291.2" cy="167.5" r="77.5" fill="none" stroke="#ff0" stroke-miterlimit="10" stroke-width="2.62"/>
          <circle cx="291.2" cy="167.5" r="84.1" fill="none" stroke="#fff" stroke-miterlimit="10" stroke-width="4"/>
        </g>
        <g>
          <g>
            <circle cx="191.9" cy="111.1" r="11.2" fill="#ff0"/>
            <circle cx="190" cy="113" r="11.2" fill="none" stroke="#fff" stroke-miterlimit="10" stroke-width="2"/>
          </g>
          <g>
            <path d="M93.3,326.1H93a.5.5,0,0,1-.2-.4V320a.8.8,0,0,1,.2-.4h.5l4.8,2.8c.3.2.3.4.2.7h-.2L93.5,326Zm.4-5.3v4l3.5-2Z" fill="#ff0"/>
            <path d="M107.6,326.1h-.3a.5.5,0,0,1-.2-.4V320a.8.8,0,0,1,.2-.4h.5l4.8,2.8a.6.6,0,0,1,.2.7h-.2l-4.8,2.8Zm.4-5.3v4l3.5-2Z" fill="#ff0"/>
            <path d="M121.8,326.1h-.2a.5.5,0,0,1-.2-.4V320a.8.8,0,0,1,.2-.4h.5l4.8,2.8a.6.6,0,0,1,.2.7h-.2l-4.8,2.8Zm.5-5.3v4l3.5-2Z" fill="#ff0"/>
            <path d="M136.1,326.1c-.2,0-.4-.3-.4-.5V320a.8.8,0,0,1,.2-.4h.4l4.9,2.8a.8.8,0,0,1,.2.4c0,.2-.1.4-.2.4l-4.8,2.8Zm.5-5.3v4l3.5-2Z" fill="#ff0"/>
          </g>
          <g>
            <path d="M8.2,212.5h0l-.3.2H4.4l-.2-.2c-.1-.1-.1-.2,0-.2l1.7-3,.3-.2.2.2,1.7,3Zm-3.3-.3H7.4l-1.2-2.1Z" fill="#ff0"/>
            <path d="M8.2,203.7h0l-.3.2H4.4l-.2-.2a.2.2,0,0,1,0-.3h0l1.7-3h.5l1.7,3Zm-3.3-.3H7.4l-1.2-2.1Z" fill="#ff0"/>
            <path d="M8.2,194.9h0l-.3.2H4.4l-.2-.2a.2.2,0,0,1,0-.3h0l1.7-3h.5l1.7,3Zm-3.3-.3H7.4l-1.2-2.1Z" fill="#ff0"/>
            <path d="M8.2,186.1h0l-.3.2H4.4c-.1,0-.1-.1-.2-.2a.2.2,0,0,1,0-.3h0l1.7-3h.5l1.7,3Zm-3.3-.3H7.4l-1.2-2.1Z" fill="#ff0"/>
          </g>
          <g>
            <path d="M201.3-9.5a5.6,5.6,0,0,0,0-7.9h0a5.6,5.6,0,0,0-7.9,0L167.8,8.3a5.6,5.6,0,0,0-.1,7.9h.1a5.6,5.6,0,0,0,7.9,0Z" fill="#ff0"/>
            <path d="M207.5-8.3a5.6,5.6,0,0,0,0-7.9h0a5.6,5.6,0,0,0-7.9,0L173.9,9.5a5.6,5.6,0,0,0,0,7.9h0a5.6,5.6,0,0,0,7.9,0Z" fill="none" stroke="#fff" stroke-miterlimit="10" stroke-width="1.24"/>
          </g>
          <g>
            <path d="M233.3,242.7A1.7,1.7,0,1,1,235,241h0A1.8,1.8,0,0,1,233.3,242.7Zm0-2.7a.9.9,0,0,0-1,.8v.2a.9.9,0,0,0,1,1,1.1,1.1,0,0,0,1-1A.9.9,0,0,0,233.3,240Z" fill="#fff"/>
            <path d="M240.2,242.7a1.7,1.7,0,1,1,1.7-1.7,1.8,1.8,0,0,1-1.7,1.7Zm0-2.7a.9.9,0,0,0-1,1,1.1,1.1,0,0,0,1,1,.9.9,0,0,0,1-1,.9.9,0,0,0-.8-1Z" fill="#fff"/>
            <path d="M247.2,242.7a1.7,1.7,0,1,1,1.7-1.7,1.8,1.8,0,0,1-1.7,1.7Zm0-2.7a.9.9,0,0,0-1,.8v.2a.9.9,0,0,0,1,1,1.1,1.1,0,0,0,1-1A.9.9,0,0,0,247.2,240Z" fill="#fff"/>
            <path d="M254.1,242.7a1.7,1.7,0,1,1,1.7-1.7h0A1.8,1.8,0,0,1,254.1,242.7Zm0-2.7a.9.9,0,0,0-1,1,1.1,1.1,0,0,0,1,1,.9.9,0,0,0,1-1,.9.9,0,0,0-.8-1Z" fill="#fff"/>
            <path d="M233.3,249.1a1.6,1.6,0,0,1-1.7-1.5h0a1.6,1.6,0,0,1,1.5-1.7h.2a1.6,1.6,0,0,1,1.7,1.5h0A1.8,1.8,0,0,1,233.3,249.1Zm0-2.7a.9.9,0,0,0-1,1,.9.9,0,0,0,.8,1h.2a.9.9,0,0,0,1-1,1.1,1.1,0,0,0-1-1Z" fill="#fff"/>
            <path d="M240.2,249.1a1.8,1.8,0,0,1-1.7-1.7,1.6,1.6,0,0,1,1.6-1.6h.1a1.8,1.8,0,0,1,1.7,1.7h0a1.8,1.8,0,0,1-1.7,1.7Zm0-2.7a1.1,1.1,0,0,0-1,1,.9.9,0,0,0,1,1,.9.9,0,0,0,1-.8v-.2a.9.9,0,0,0-1-1Z" fill="#fff"/>
            <path d="M247.2,249.1a1.7,1.7,0,0,1-2.1-1.2,1.8,1.8,0,0,1,1.2-2.1,2.2,2.2,0,0,1,.8,0,1.8,1.8,0,0,1,1.8,1.6h0a1.7,1.7,0,0,1-1.7,1.6Zm0-2.7a.9.9,0,0,0-1,1,.9.9,0,0,0,.8,1h.2a.9.9,0,0,0,1-1,1.1,1.1,0,0,0-1-1Z" fill="#fff"/>
            <path d="M254.1,249.1a1.6,1.6,0,0,1-1.7-1.5h0a1.8,1.8,0,0,1,1.7-1.7,1.6,1.6,0,0,1,1.7,1.5h0A1.8,1.8,0,0,1,254.1,249.1Zm0-2.7a1.1,1.1,0,0,0-1,1,.9.9,0,0,0,1,1,.9.9,0,0,0,1-.8v-.2a.9.9,0,0,0-1-1Z" fill="#fff"/>
            <path d="M233.3,255.6a1.6,1.6,0,0,1-1.7-1.5v-.2a1.7,1.7,0,1,1,3.4,0h0A1.8,1.8,0,0,1,233.3,255.6Zm0-2.7a.9.9,0,0,0-1,1,.9.9,0,0,0,.8,1h.2a.9.9,0,0,0,1-1,1.1,1.1,0,0,0-1-1Z" fill="#fff"/>
            <path d="M240.2,255.6a1.7,1.7,0,1,1,1.7-1.7h0A1.8,1.8,0,0,1,240.2,255.6Zm0-2.7a1.1,1.1,0,0,0-1,1,.9.9,0,0,0,1,1,.9.9,0,0,0,1-.8v-.2a.9.9,0,0,0-1-1Z" fill="#fff"/>
            <path d="M247.2,255.6a1.6,1.6,0,0,1-1.7-1.5v-.2a1.6,1.6,0,0,1,1.5-1.7h.1a1.8,1.8,0,0,1,1.7,1.7h.1A1.8,1.8,0,0,1,247.2,255.6Zm0-2.7a.9.9,0,0,0-1,1,.9.9,0,0,0,.8,1h.2a.9.9,0,0,0,1-1,1.1,1.1,0,0,0-1-1Z" fill="#fff"/>
            <path d="M254.1,255.6a1.7,1.7,0,1,1,1.7-1.7h0A1.8,1.8,0,0,1,254.1,255.6Zm0-2.7a1.1,1.1,0,0,0-1,1,.9.9,0,0,0,1,1,.9.9,0,0,0,1-.8v-.2a.9.9,0,0,0-1-1Z" fill="#fff"/>
          </g>
          <g>
            <path d="M3.5,21.5a1.7,1.7,0,0,1,0-3.4,1.7,1.7,0,1,1,0,3.4Zm0-2.7a.9.9,0,0,0-1,.8v.2a.9.9,0,0,0,1,1,1.1,1.1,0,0,0,1-1A.9.9,0,0,0,3.5,18.8Z" fill="#fff"/>
            <path d="M10.4,21.5a1.7,1.7,0,0,1,0-3.4h0a1.6,1.6,0,0,1,1.7,1.5v.2a1.8,1.8,0,0,1-1.7,1.7Zm0-2.7a.9.9,0,0,0-1,1,1.1,1.1,0,0,0,1,1,.9.9,0,0,0,1-1,.9.9,0,0,0-.8-1Z" fill="#fff"/>
            <path d="M3.5,27.9a1.6,1.6,0,0,1-1.7-1.5v-.2a1.8,1.8,0,0,1,1.7-1.7h0a1.8,1.8,0,0,1,1.7,1.7h0a1.8,1.8,0,0,1-1.7,1.7Zm0-2.7a.9.9,0,0,0-1,1,.9.9,0,0,0,.8,1h.2a.9.9,0,0,0,1-1A1.1,1.1,0,0,0,3.5,25.2Z" fill="#fff"/>
            <path d="M10.4,27.9a1.8,1.8,0,0,1-1.7-1.7h0a1.7,1.7,0,1,1,3.4,0h0a1.6,1.6,0,0,1-1.5,1.7Zm0-2.7a1.1,1.1,0,0,0-1,1,.9.9,0,0,0,1,1,.9.9,0,0,0,1-.8v-.2A.9.9,0,0,0,10.4,25.2Z" fill="#fff"/>
            <path d="M3.5,34.4a1.8,1.8,0,0,1-1.7-1.7h0A1.6,1.6,0,0,1,3.3,31h.2a1.8,1.8,0,0,1,1.7,1.7h0A1.8,1.8,0,0,1,3.5,34.4Zm0-2.7a.9.9,0,0,0-1,.8v.2a.9.9,0,0,0,1,1,1.1,1.1,0,0,0,1-1A.9.9,0,0,0,3.5,31.7Z" fill="#fff"/>
            <path d="M10.4,34.4a1.7,1.7,0,1,1,1.7-1.7h0a1.8,1.8,0,0,1-1.7,1.7Zm0-2.7a.9.9,0,0,0-1,1,1.1,1.1,0,0,0,1,1,.9.9,0,0,0,1-1,.9.9,0,0,0-.8-1Z" fill="#fff"/>
          </g>
        </g>
      </g>
    </g>
    <g>
      <g>
        <path d="M31.9,23.7a1.1,1.1,0,0,1-.3.8L28,28.1l-3.8-2.2V23.7a1.2,1.2,0,0,1,1.2-1,1.4,1.4,0,0,1,1.1,1h0v2.8L30,22.9a1.2,1.2,0,0,1,1.6,0h0a1.1,1.1,0,0,1,.3.8" fill="#fff"/>
        <path d="M30.8,34h-.5l-.3-.2-3.5-3.5V33a1.1,1.1,0,0,1-1.2,1h0a1.1,1.1,0,0,1-1.1-1V30.8L28,28.6l3.6,3.5a1.2,1.2,0,0,1,0,1.6h-.1a.9.9,0,0,1-.7.3" fill="#fff"/>
        <path d="M27.8,28.2h-.1l-1-.5-2.5-1.5L22,24.8h-.4v6.6l.3.3H22l2.2-1.3,3.5-2h.1c.1,0,.1-.1.1-.2Zm-.8.2h-.1L24.2,30l-1.7,1h-.3V25.8a.2.2,0,0,1,.2-.2h.1l1.7,1,2.7,1.6C27,28.2,27,28.3,27,28.4Z" fill="#fff"/>
        <path d="M26.2,28.4h-.1l-2,1.1-1.2.8h-.2V26.4c0-.1,0-.2.1-.2h.1l1.2.8,2,1.2c.1,0,.1,0,.1.1h0" fill="#fff"/>
      </g>
      <g>
        <path d="M50.5,28.2h-.1l-3.2-1.6-1.9-1c-.1-.1-.2,0-.3.1h0v5.2c0,.1.1.2.3.2h0l1.9-1,3.1-1.7h.2C50.6,28.3,50.6,28.2,50.5,28.2Zm-.8.1h-.1l-2.4,1.3-1.5.8h-.2v-4a.2.2,0,0,1,.2-.2h0l1.5.8,2.5,1.2h0Z" fill="#fff"/>
        <path d="M49,28.3h-.1l-1.8,1L46,30h-.2V27l.2-.2h0l1.1.6,1.9.9h0" fill="#fff"/>
        <path d="M34.2,25.6h2.7c1.3,0,2.3.7,2.3,1.8s-1,1.8-2.3,1.9H35.5V31H34.2Zm2.6,2.6c.6,0,1.1-.3,1.1-.8a1,1,0,0,0-1.1-.8H35.5v1.6Z" fill="#fff"/>
        <path d="M44.3,30v1H40V25.7h1.3V30Z" fill="#fff"/>
        <path d="M51.9,29l-2.4-3.4H51l1.5,2.3L54,25.5h1.5L53.2,29v2H51.9Z" fill="#fff"/>
        <path d="M56.3,25.9H57v3l3-3h1l-2.5,2.4,2.7,2.9h-.9L58,28.7l-.9.9v1.7h-.7Z" fill="#fff"/>
        <path d="M61.6,28.5A3.1,3.1,0,0,1,65,25.7h0a3.3,3.3,0,0,1,2.8,2.7,3.2,3.2,0,0,1-3.5,2.8A3,3,0,0,1,61.6,28.5Zm5.5-.1a2.5,2.5,0,1,0-2.6,2.3h.2A2.4,2.4,0,0,0,67.1,28.4Z" fill="#fff"/>
        <path d="M68.6,30.4l.5-.4a2.9,2.9,0,0,0,2,.7c.9,0,1.4-.5,1.4-1s-.6-.8-1.7-1-2-.6-2-1.5a1.8,1.8,0,0,1,2-1.6h0a3.2,3.2,0,0,1,2.1.8l-.4.5a2.2,2.2,0,0,0-1.7-.7c-.8,0-1.3.4-1.3,1s.6.7,1.6,1,2,.6,2,1.5-.7,1.6-2.1,1.6A3.6,3.6,0,0,1,68.6,30.4Z" fill="#fff"/>
        <path d="M74.4,25.9h.7l2.3,3.7,2.2-3.8h.7v5.4h-.6V27.1l-2.2,3.8-2.3-3.7v4.1h-.7Z" fill="#fff"/>
        <path d="M81.6,28.5a3,3,0,0,1,3.2-2.8H85a3.1,3.1,0,0,1,2.8,2.7,3.3,3.3,0,0,1-3.4,2.9A3.2,3.2,0,0,1,81.6,28.5Zm5.5-.1a2.4,2.4,0,0,0-2.3-2.5,2.5,2.5,0,0,0-2.5,2.3,2.4,2.4,0,0,0,2.2,2.5h.2A2.4,2.4,0,0,0,87.1,28.4Z" fill="#fff"/>
        <path d="M88.7,30.4l.4-.4a3.1,3.1,0,0,0,2,.7c.9,0,1.4-.5,1.4-1s-.6-.8-1.7-1-2-.6-2-1.5a1.8,1.8,0,0,1,2-1.6h0a3.5,3.5,0,0,1,2.2.8l-.5.5a2.2,2.2,0,0,0-1.7-.7c-.7,0-1.3.4-1.3,1s.6.7,1.7,1,2,.6,2,1.5-.7,1.6-2.2,1.6A3.2,3.2,0,0,1,88.7,30.4Z" fill="#fff"/>
      </g>
    </g>
    <rect x="13.3" y="126.9" width="119.2" height="1.84" fill="#ff0"/>
    <g>
      <g>
        <path d="M22.7,176.5c0-.2-.1-.3-.2-.3h-.2v-4.2c0-.1,0-.2.2-.2s.2,0,.2-.2v-.3c0-.1,0-.2-.1-.2h-.1v-.6c0-.1,0-.1.1-.1s.1-.1.1-.2h0v-.3c0-.2,0-.3-.3-.3H19.5l.9-1.8a4.5,4.5,0,0,0,.3-1.6,2.6,2.6,0,0,0-3-2.3,2.8,2.8,0,0,0-2.4,3l.3.8.9,1.9h-3c-.2,0-.2.1-.3.2v.4l.2.2h0c.1,0,.1,0,.1.1v.6h-.1l-.2.2h0v.3c0,.1,0,.3.3.2s.1,0,.1.2V176h-.1c-.2,0-.2.1-.2.3v.2c0,.3,0,.3.3.3h9.1Zm-3.1-6.9h2.9v.3H19.2C19.2,169.7,19.4,169.6,19.6,169.6Zm2.7,1.2c0,.1,0,.2-.2.2H18.9c-.1,0-.2,0-.1-.2l.3-.5c.1-.2,0-.1.1-.1h2.9c.1,0,.2,0,.2.1Zm-6.5-3.5a2.4,2.4,0,0,1,1-3.2H17a2.6,2.6,0,0,1,3.3,1.3,2.3,2.3,0,0,1,0,2c-.7,1.4-1.4,2.8-2,4.2h-.5C17.1,170.1,16.4,168.7,15.8,167.3Zm-2,3c0-.1,0-.1.1-.1H17a1.4,1.4,0,0,0,.2.6c.1.2,0,.1,0,.1H13.8v-.5Zm-.3-.5c0-.1,0-.2.2-.2h2.8l.3.3H13.7C13.5,170,13.5,169.9,13.5,169.8Zm.8,6.2c0,.2,0,.2-.1.2s-.3,0-.3-.2v-4.1c0-.1,0-.2.2-.2s.2,0,.2.3Zm-.6-4.5c-.2,0-.2,0-.2-.2s0-.1.2-.1h3.6l.2.2H13.7Zm4.1,4.7H16.2v-3.4h1.7v3.4Zm2-.1H18.1v-3.4h1.7Zm.7.1h-.4v-3.4c0-.3,0-.3-.3-.3H16.2c-.2,0-.2,0-.2.3V176c0,.2,0,.2-.2.2h-.4V172c0-.1,0-.2.1-.2h5c.1,0,.2,0,.2.2v4.2c0,.1-.1.2-.2.1Zm0-4.7h-2c.1-.2.2-.2.3-.2h3.7c0,.1,0,.2-.1.2Zm1.5,4.7c-.3,0-.3,0-.3-.2v-4c0-.2,0-.2.2-.2s.3,0,.3.2v4.1Z" fill="#fff"/>
        <path d="M18,164.2a2,2,0,1,0,2,2A2,2,0,0,0,18,164.2Z" fill="#fff"/>
      </g>
      <path d="M15.1,174v2c0,.2,0,.2-.1.2a.4.4,0,0,1-.4-.4V172c0-.2,0-.2.2-.2s.3,0,.3.3Z" fill="#fff"/>
      <path d="M21.5,174v2.1h-.3c-.4,0-.3,0-.3-.3V172c0-.2,0-.2.2-.2s.4,0,.4.3Z" fill="#fff"/>
      <path d="M17.7,174.2v1c0,.1,0,.2-.2.2h-.9c-.2,0-.2,0-.2-.2v-2c0-.2,0-.2.2-.2h.9c.1,0,.2,0,.2.2Z" fill="#fff"/>
      <path d="M18.3,174.2v-1c0-.2,0-.2.2-.2h.9c.2,0,.2,0,.2.2v2c0,.1,0,.2-.2.2h-.9a.2.2,0,0,1-.2-.2Z" fill="#fff"/>
      <path d="M17.5,174.2v.8c0,.2-.1.1-.2.1h-.7v-1.7h.9Z" fill="#fff"/>
      <path d="M18.6,174.1v-.7c0-.2,0-.2.1-.2h.5c.2,0,.2,0,.2.1V175h-.8Z" fill="#fff"/>
    </g>
    <g>
      <circle cx="103.7" cy="272.6" r="2.6" fill="#ff0"/>
      <circle cx="15.9" cy="272.6" r="2.6" fill="#ff0"/>
    </g>
    <g>
      <rect x="128.5" y="245.6" width="25" height="1.77" fill="#ff0"/>
      <circle cx="161.1" cy="246.4" r="2.6" fill="#ff0"/>
      <g>
        <path d="M18.5,251.7a5.1,5.1,0,0,1-5.1-5.2,5.2,5.2,0,0,1,5.2-5.2,5.2,5.2,0,0,1,0,10.4Z" fill="#ff0"/>
        <path d="M23.9,251.6a5.9,5.9,0,0,0,2-8.2h0a6.4,6.4,0,0,0-2-2,6.4,6.4,0,0,1,1.8.6,3.3,3.3,0,0,1,1.5,1.1,5.3,5.3,0,0,1,.7,5.9A5.2,5.2,0,0,1,23.9,251.6Z" fill="#ff0"/>
        <path d="M21.6,241.3a5.2,5.2,0,0,1,3.8,2.6,5,5,0,0,1-.2,5.4,4.9,4.9,0,0,1-3.6,2.3,6.1,6.1,0,0,0,2-8.3A6.4,6.4,0,0,0,21.6,241.3Z" fill="#ff0"/>
      </g>
    </g>
  </g>
</svg>
