<?xml version="1.0" encoding="UTF-8"?>
<svg xmlns="http://www.w3.org/2000/svg" width="335" height="335" xmlns:xlink="http://www.w3.org/1999/xlink" viewBox="0 0 335 335">
  <defs>
    <linearGradient id="uuid-1f80a862-35bf-4bf6-a946-d8fa5cd87842" x1="76.5" y1="158.4" x2="335" y2="158.4" gradientTransform="matrix(1, 0, 0, 1, 0, 0)" gradientUnits="userSpaceOnUse">
      <stop offset="0" stop-color="#2548f4"/>
      <stop offset="1" stop-color="#2548f4"/>
    </linearGradient>
    <linearGradient id="uuid-adc0b6ea-17bc-453c-9cf3-cc603fd4caf5" x1="237.3" y1="286.7" y2="286.7" xlink:href="#uuid-1f80a862-35bf-4bf6-a946-d8fa5cd87842"/>
    <linearGradient id="uuid-68c4cd78-1257-4090-9cf8-da904aee1c68" x1="0" y1="250.2" x2="170.8" y2="250.2" xlink:href="#uuid-1f80a862-35bf-4bf6-a946-d8fa5cd87842"/>
    <linearGradient id="uuid-e35949e7-cd3b-46a3-99e7-98f4d6dab161" x1="0" y1="40" x2="78.9" y2="40" xlink:href="#uuid-1f80a862-35bf-4bf6-a946-d8fa5cd87842"/>
    <linearGradient id="uuid-a97a3d31-774b-44bf-a85c-ed648fb35c51" x1="63.8" y1="335.6" x2="63.8" y2="199.7" gradientTransform="matrix(1, 0, 0, 1, 0, 0)" gradientUnits="userSpaceOnUse">
      <stop offset="0" stop-color="#c6c6c6"/>
      <stop offset=".6" stop-color="#b1b1b1"/>
      <stop offset=".6" stop-color="#bebebe"/>
      <stop offset="1" stop-color="#b8b8b8"/>
    </linearGradient>
    <linearGradient id="uuid-f97f0aa2-835f-43d3-ac03-903ef4d1a6c4" x1="16.3" y1="228" x2="16.3" y2="165.6" xlink:href="#uuid-a97a3d31-774b-44bf-a85c-ed648fb35c51"/>
    <linearGradient id="uuid-bcf4323a-4a27-4ae2-8bc3-455216baa62c" x1="59.9" y1="140.3" x2="59.9" y2="111.5" xlink:href="#uuid-a97a3d31-774b-44bf-a85c-ed648fb35c51"/>
    <linearGradient id="uuid-5e8986bf-56ef-48ad-bea9-6c46b6e54d24" x1="274.6" y1="140.3" x2="274.6" y2="111.5" xlink:href="#uuid-a97a3d31-774b-44bf-a85c-ed648fb35c51"/>
    <linearGradient id="uuid-27ca08d9-ae6a-47a9-855e-bde0e690995b" x1="167.5" y1="169.1" x2="167.5" y2="140.3" xlink:href="#uuid-a97a3d31-774b-44bf-a85c-ed648fb35c51"/>
    <linearGradient id="uuid-24a42328-e32c-492d-84f3-f862b7c90e0a" x1="269.4" y1="200.6" x2="269.4" y2="171.8" xlink:href="#uuid-a97a3d31-774b-44bf-a85c-ed648fb35c51"/>
    <linearGradient id="uuid-c6afc020-c518-4a30-bd58-f4e775cba6b8" x1="223.7" y1="310.8" x2="223.7" y2="220.8" xlink:href="#uuid-a97a3d31-774b-44bf-a85c-ed648fb35c51"/>
    <linearGradient id="uuid-30ccc031-0bd7-4995-848d-313f6018a4f6" x1="277.9" y1="74.1" x2="277.9" y2="1.2" xlink:href="#uuid-a97a3d31-774b-44bf-a85c-ed648fb35c51"/>
    <linearGradient id="uuid-ce5c0e61-bb23-4d2c-878e-a02f01796173" x1="277.9" y1="74.1" x2="277.9" y2="1.2" gradientTransform="matrix(1, 0, 0, 1, 0, 0)" gradientUnits="userSpaceOnUse">
      <stop offset="0" stop-color="#a6a6a6"/>
      <stop offset=".5" stop-color="#838383"/>
      <stop offset=".5" stop-color="#898989"/>
      <stop offset=".7" stop-color="#999"/>
      <stop offset=".8" stop-color="#a3a3a3"/>
      <stop offset="1" stop-color="#a6a6a6"/>
    </linearGradient>
    <linearGradient id="uuid-152c3d4b-6133-4c36-988f-8086d4292559" x1="277.9" y1="1.2" x2="277.9" y2="74.1" gradientTransform="matrix(1, 0, 0, 1, 0, 0)" gradientUnits="userSpaceOnUse">
      <stop offset="0" stop-color="#fff" stop-opacity=".8"/>
      <stop offset=".2" stop-color="#fff" stop-opacity=".7"/>
      <stop offset=".3" stop-color="#fff" stop-opacity=".7"/>
      <stop offset=".3" stop-color="#fff" stop-opacity=".7"/>
      <stop offset=".4" stop-color="#fff" stop-opacity=".6"/>
      <stop offset=".4" stop-color="#fff" stop-opacity=".5"/>
      <stop offset=".4" stop-color="#fff" stop-opacity=".4"/>
      <stop offset=".5" stop-color="#fff" stop-opacity=".2"/>
      <stop offset=".5" stop-color="#fff" stop-opacity="0"/>
      <stop offset=".6" stop-color="#7d7d7d" stop-opacity="0"/>
      <stop offset="1" stop-color="#1b1b1b" stop-opacity=".2"/>
    </linearGradient>
    <linearGradient id="uuid-bd3aa497-8a19-43d3-ad0c-a9277dc42488" x1="66.7" y1="199.5" x2="66.7" y2="170.7" xlink:href="#uuid-a97a3d31-774b-44bf-a85c-ed648fb35c51"/>
  </defs>
  <g isolation="isolate">
    <g id="uuid-0b0834ed-a7a1-4483-980c-a93675ab9aa3" data-name="Layer 1">
      <rect y=".6" width="335" height="335" fill="#020d5e"/>
      <polygon points="335 .6 335 186.5 205.4 316.1 76.5 187.1 263 .6 335 .6" fill="url(#uuid-1f80a862-35bf-4bf6-a946-d8fa5cd87842)"/>
      <polygon points="335 237.9 335 335.6 237.3 335.6 335 237.9" fill="url(#uuid-adc0b6ea-17bc-453c-9cf3-cc603fd4caf5)"/>
      <polygon points="170.8 335.6 0 335.6 0 164.8 170.8 335.6" fill="url(#uuid-68c4cd78-1257-4090-9cf8-da904aee1c68)"/>
      <polygon points="78.9 .6 0 79.5 0 .6 78.9 .6" fill="url(#uuid-e35949e7-cd3b-46a3-99e7-98f4d6dab161)"/>
      <polygon points="127.6 293 85 335.6 0 335.6 0 234 34.3 199.7 127.6 293" fill="url(#uuid-a97a3d31-774b-44bf-a85c-ed648fb35c51)"/>
      <polygon points="31.9 196.8 .7 228 .7 165.6 31.9 196.8" fill="url(#uuid-f97f0aa2-835f-43d3-ac03-903ef4d1a6c4)"/>
      <g id="uuid-aee8679d-0baa-4343-9b84-bd8cb1f7f988" data-name="PRINT">
        <g>
          <g>
            <path d="M29.8,11.9c0,.6-.2,1.1-.6,1.5l-6.8,6.8-7.2-4.2v-4.1c0-1.2,1-2.1,2.1-2.1s2.1,1,2.1,2.1h0v5.2l6.7-6.7c.8-.8,2.2-.8,3,0,.4,.4,.6,1,.6,1.5h0Z" fill="#fff"/>
            <path d="M29.2,30.8c-.4,.4-.9,.6-1.5,.6s-.6,0-.8-.2c-.3-.1-.5-.3-.7-.5l-2.3-2.3-4.4-4.4v5.2c0,1.2-1,2.1-2.1,2.1s-2.1-1-2.1-2.1v-4.1l7.2-4.2,4.5,4.5,2.3,2.3c.8,.8,.8,2.2,0,3Z" fill="#fff"/>
            <path d="M22.1,20.5c0-.1-.1-.2-.2-.3,0,0,0,0,0,0l-1.8-1-4.9-2.8-4.1-2.4c-.2-.1-.5,0-.7,.2,0,0,0,.2,0,.2v12.5c0,.3,.2,.5,.5,.5s.2,0,.2,0l4.1-2.4,6.7-3.9s0,0,0,0c0,0,.1-.1,.1-.2,0,0,0-.2,0-.3Zm-10.2-5l3.2,1.8,5.2,3c0,0,.1,0,.1,.1h0c0,.1,0,.2,0,.3,0,0,0,.2-.2,.2l-5.2,3-3.2,1.9c-.2,0-.4,0-.5-.1,0,0,0-.1,0-.2V15.8c0-.2,.2-.4,.4-.4s.1,0,.2,0Z" fill="#fff"/>
            <path d="M19,20.7c0,0,0,.1-.1,.2l-3.9,2.3-2.4,1.4c-.1,0-.3,0-.4-.1,0,0,0,0,0-.1v-7.3c0-.2,.1-.3,.3-.3,0,0,0,0,.1,0l2.4,1.4,3.9,2.3c0,0,.1,0,.1,.2,0,0,0,.1,0,.2h0Z" fill="#fff"/>
          </g>
          <g>
            <path d="M64.9,20.1l-6-3-3.7-1.8c-.2-.1-.5,0-.6,.2,0,0,0,.1,0,.2v9.9c.1,.2,.4,.4,.6,.4,0,0,.1,0,.2,0h.2l3.4-1.9,2.1-1.1,3.8-2c0,0,.2-.1,.2-.2,0,0,0-.2,0-.2,0-.1-.1-.2-.2-.2Zm-6,3l-2.8,1.5c-.2,0-.4,0-.5-.1,0,0,0,0,0-.1v-7.7c0-.2,0-.3,.3-.3,0,0,0,0,.1,0l2.9,1.4,1,.5,3.6,1.8c0,0,.1,0,.2,.2,0,0,0,.1,0,.2h0s0,0,0,0c0,0,0,.1-.1,.2l-4.6,2.4Z" fill="#fff"/>
            <path d="M62.3,20.5c0,0,0,.1-.1,.1l-3.4,1.8-2.1,1.1c-.1,0-.3,0-.3,0,0,0,0,0,0-.1v-5.8c0-.1,0-.2,.2-.2,0,0,0,0,.1,0l2.1,1.1,3.5,1.7c0,0,0,0,.1,.1,0,0,0,0,0,.1h0Z" fill="#fff"/>
            <path d="M39.3,15.4h-5.2v10.4h2.6v-3.4h2.7c2.5,0,4.3-1.5,4.3-3.6,0-2-1.9-3.5-4.4-3.4Zm-.2,4.9h-2.4v-2.9h2.4c1.2,0,2.1,.5,2.1,1.4,0,.9-.8,1.5-2,1.5Z" fill="#fff"/>
            <polygon points="53.4 25.8 45.2 25.9 45.1 15.6 47.6 15.6 47.7 23.9 53.4 23.8 53.4 25.8" fill="#fff"/>
            <polygon points="70.2 21.9 70.3 25.6 67.8 25.6 67.7 21.9 63.1 15.4 66 15.3 68.9 19.8 71.9 15.3 74.6 15.2 70.2 21.9" fill="#fff"/>
            <polygon points="85.5 26.1 83.8 26.1 79.4 21.4 77.6 23.1 77.7 26.2 76.4 26.2 76.2 15.9 77.5 15.9 77.6 21.6 83.4 15.8 85.1 15.8 80.3 20.6 85.5 26.1" fill="#fff"/>
            <path d="M92,15.6c-3.2,0-5.9,2.5-5.8,5.4,0,2.9,2.8,5.3,6,5.3,3.2,0,5.8-2.5,5.8-5.4,0-2.9-2.8-5.3-5.9-5.2Zm.4,9.6c-2.5,.2-4.7-1.7-4.9-4.2,.1-2.3,1.9-4.1,4.2-4.3,2.5-.2,4.7,1.7,4.9,4.2-.1,2.3-1.9,4.1-4.2,4.3Z" fill="#fff"/>
            <path d="M108.2,23.2c0,1.6-1.3,3-4,3-1.7,0-3.3-.5-4.5-1.6l.8-.9c1,.9,2.4,1.5,3.8,1.4,1.8,0,2.7-.9,2.7-1.8,0-1.1-1.1-1.5-3.1-1.9-2.3-.5-3.8-1.1-3.8-2.9,0-1.6,1.6-3,3.8-3,1.5,0,2.9,.5,4,1.4l-.8,.9c-.9-.8-2.1-1.3-3.3-1.3-1.4,0-2.4,.9-2.4,1.8,0,1.1,1.1,1.4,3.1,1.8,2.2,.4,3.8,1.1,3.8,2.9Z" fill="#fff"/>
            <polygon points="121.9 26.1 120.6 26.1 120.5 18.3 116.3 25.6 111.9 18.4 112 26.2 110.7 26.2 110.6 15.9 111.9 15.9 116.3 23 120.4 15.8 121.7 15.8 121.9 26.1" fill="#fff"/>
            <path d="M130.1,15.6c-3.2,0-5.9,2.5-5.8,5.4,0,2.9,2.8,5.3,6,5.3,3.2,0,5.8-2.5,5.8-5.4,0-2.9-2.8-5.3-5.9-5.2Zm.4,9.6c-2.5,.2-4.7-1.7-4.9-4.2,.1-2.3,1.9-4.1,4.2-4.3,2.5-.2,4.7,1.7,4.9,4.2-.1,2.3-1.9,4.1-4.2,4.3Z" fill="#fff"/>
            <path d="M146.3,23.2c0,1.6-1.3,3-4,3-1.7,0-3.3-.5-4.5-1.6l.8-.9c1,.9,2.4,1.5,3.8,1.4,1.8,0,2.7-.9,2.7-1.8,0-1.1-1.1-1.5-3.1-1.9-2.3-.5-3.8-1.1-3.8-2.9,0-1.6,1.6-3,3.8-3,1.5,0,2.9,.5,4,1.4l-.8,.9c-.9-.8-2.1-1.3-3.3-1.3-1.4,0-2.5,.9-2.4,1.8,0,1.1,1.2,1.4,3.1,1.8,2.2,.4,3.8,1.1,3.8,2.9Z" fill="#fff"/>
          </g>
        </g>
      </g>
      <rect x="0" y="111.5" width="119.9" height="28.8" fill="url(#uuid-bcf4323a-4a27-4ae2-8bc3-455216baa62c)"/>
      <rect x="213.8" y="111.5" width="121.6" height="28.8" fill="url(#uuid-5e8986bf-56ef-48ad-bea9-6c46b6e54d24)"/>
      <rect x="140.1" y="140.3" width="54.9" height="28.8" fill="url(#uuid-27ca08d9-ae6a-47a9-855e-bde0e690995b)"/>
      <rect x="202.8" y="171.8" width="133.3" height="28.8" fill="url(#uuid-24a42328-e32c-492d-84f3-f862b7c90e0a)"/>
      <rect x="112" y="220.8" width="223.4" height="90" fill="url(#uuid-c6afc020-c518-4a30-bd58-f4e775cba6b8)"/>
      <path d="M120.8,245.8c-3.2,0-5.7,2.6-5.7,5.7s.4,2.4,1.1,3.4h0l4.6,8,4.6-8c.7-1,1.1-2.1,1.1-3.4,0-3.2-2.6-5.7-5.7-5.7Zm0,8.4c-1.4,0-2.5-1.1-2.5-2.5s1.1-2.5,2.5-2.5,2.5,1.1,2.5,2.5-1.1,2.5-2.5,2.5Z" fill="red"/>
      <g>
        <path d="M335.4,1.2V3.4l-22,27.5-.2,.3-.2,.2-.3,.3-.7,.9-.2,.3-.2,.2-.4,.4-2.4,3.1-.3,.3h0l-.3,.4h0l-.3,.4-2.3,2.9h0l-.4,.5-4.3,5.3-.6,.7h0l-.9,1.1-.7,.9-4.9,6.1-.5,.6-.5,.6-14.1,17.7L220.5,1.2h114.9Z" fill="url(#uuid-30ccc031-0bd7-4995-848d-313f6018a4f6)"/>
        <path d="M335.4,1.2V3.4l-22,27.5-.2,.3-.2,.2-.3,.3-.7,.9-.2,.3-.2,.2-.4,.4-2.4,3.1-.3,.3h0l-.3,.4h0l-.3,.4-2.3,2.9h0l-.4,.5-4.3,5.3-.6,.7h0l-.9,1.1-.7,.9-4.9,6.1-.5,.6-.5,.6-14.1,17.7L220.5,1.2h114.9Z" fill="url(#uuid-ce5c0e61-bb23-4d2c-878e-a02f01796173)" mix-blend-mode="screen" opacity=".5"/>
        <path d="M335.4,1.2V3.4l-22,27.5-.2,.3-.2,.2-.3,.3-.7,.9-.2,.3-.2,.2-.4,.4-2.4,3.1-.3,.3h0l-.3,.4h0l-.3,.4-2.3,2.9h0l-.4,.5-4.3,5.3-.6,.7h0l-.9,1.1-.7,.9-4.9,6.1-.5,.6-.5,.6-14.1,17.7L220.5,1.2h114.9Z" fill="url(#uuid-152c3d4b-6133-4c36-988f-8086d4292559)" mix-blend-mode="screen" opacity=".7"/>
        <path d="M335.4,1.2V3.4l-22,27.5-.2,.3-.2,.2-.3,.3-.7,.9-.2,.3-.2,.2-.4,.4-2.4,3.1-.3,.3h0l-.3,.4h0l-.3,.4-2.3,2.9h0l-.4,.5-4.3,5.3-.6,.7h0l-.9,1.1-.7,.9-4.9,6.1-.5,.6-.5,.6-14.1,17.7L220.5,1.2h114.9Z" fill="none" stroke="#ccc" stroke-miterlimit="1" stroke-width=".6"/>
        <g opacity=".6">
          <path d="M335.4,1.2c0,.8,.2,1.7-.2,2.3s-.9,1.1-1.3,1.6l-5.3,6.6-12.7,15.9c-4.8,6-9.6,12-14.4,18l-18.7,23.4-2.8,3.5c-.2,.2-1,1.5-1.2,1.5s-.8-1-1-1.1l-7.2-9-25.8-32.2-21.9-27.3-2.2-2.7s-.4-.4-.4-.5c0,.2,.1,.1,.3,.1,2.5,.2,5,0,7.5,0h35.7c14.4,0,28.9,0,43.3,0h16.7c-9.1-.1-18.3-.1-27.4-.1-11.1,0-22.1,0-33.2,0-9.6,0-19.2,0-28.8,0h-12.4c-.4,0-1.2-.2-1.5,0s-.1,0-.2,0c0,0,0,.1,0,.1l6.1,7.6,14.6,18.2,17.3,21.7,14.4,18,4.3,5.4c.2,.2,1.2,1.9,1.5,1.9s.5-.6,.6-.7l1.2-1.5,3.8-4.7,7.6-9.5,9.6-11.9c3.4-4.2,6.5-8.2,9.9-12.4s7.1-8.8,10.6-13.2l8.4-10.6,3.1-3.9c.5-.6,1.3-1.3,1.6-2s.1-1.6,.1-2.3,0,0,0,0Z" fill="#959595"/>
        </g>
      </g>
      <polygon points="77.4 269.5 77.1 269.5 76.3 269.6 75.2 269.7 75.2 269.5 74.7 264.3 74.6 263.2 74.6 263.2 74.6 263.1 74.6 263.1 74.6 262.8 74.5 261.7 74.3 259.5 74.2 258 71.5 228.7 68.9 199.9 68.2 192.2 67.4 183.2 66.4 171.8 68.6 171.8 68.9 174.3 69.7 183.3 70.4 191.1 72.9 219.8 76.4 258 76.4 258 76.4 258.9 76.7 261.3 76.8 262.5 76.8 263 76.9 263.7 76.9 263.9 77 264.5 77 264.9 77.2 267.3 77.4 269.5" fill="#e4e5e6"/>
      <polygon points="42.5 171.8 41 181.2 40.7 183.3 39.2 192.2 28.6 258.9 28.6 259 28.3 261 27.9 263.4 26.8 269.8 24.7 269.4 25.6 263.3 26 260.9 26.4 258.7 38.4 183.2 39.9 174.3 40.2 172.2 40.3 171.8 42.5 171.8" fill="#e4e5e6"/>
      <g>
        <path d="M108.4,306.9c0,.2,0,.5,0,.7,0,.6-.2,1.2-.3,1.8,0,.2-.1,.5-.2,.7,0,.1,0,.2,0,.4-.2,.6-.4,1.2-.6,1.8,0,.2-.2,.5-.3,.7,0,.1-.1,.2-.2,.4-.6,1.3-1.2,2.5-2.1,3.8h0s0,0,0,.1h0c-.4,.6-.8,1.2-1.3,1.8-5,6.3-13.4,9.3-20.5,9.8-3.6,.2-9.1-.2-13.1-2.2-1.9-.9-3.5-2.2-4.4-4-1.1-2-1.4-4.4-1-6.6,0,0,0-.1,0-.2,.1-.7,.4-1.4,.7-2.1,.3-.7,.7-1.3,1.1-1.8,.2-.3,.4-.5,.7-.7,0,0,.2-.2,.2-.3h0c0-.1,0-.1,0-.2,0,0,0,0,0,0h0s0,0,0,0c0,0,0,0,0,0,0,0,0,0,0,0,0,0,.1-.2,.2-.2h0s0,0,0,0c0,0,0-.1,.1-.2,0,0,0,0,0,0,0,0,0,0,0,0,0,0,0-.1,.1-.2,0,0,0,0,0,0,0,0,0-.1,.1-.2,0,0,0,0,0-.1,0,0,0-.1,0-.2,0,0,0,0,0-.1,0,0,0,0,0-.1,0,0,0-.2,0-.2,0,0,0-.2,0-.3,0,0,0,0,0,0,0,0,0-.2,0-.2,0-.1,0-.2,0-.3,0-.2,0-.4,.1-.6,0,0,0,0,0,0,0,0,0,0,0,0h0c0,0,0-.1,0-.1,0,0,0,0,0,0,0,0,0-.2,0-.3,0,0,0-.2,0-.3s0-.2,0-.3c0,0,0-.1,0-.2,0,0,0,0,0,0,0-.3,0-.7-.2-1,0-.3-.2-.6-.3-.9,0,0,0-.1,0-.2-.2-.4-.4-.7-.6-.9,0,0,0,0,0,0,0,0,0,0,0,0h0s0,0,0,0c0,0,0,0,0,0h0s0,0,0,0c0,0-.1,0-.2,0,0,0,0,0,0,0-.1,0-.2,0-.3,0,0,0,0,0-.1,0,0,0,0,0-.1,0,0,0,0,0,0,0,0,0,0,0,0,0,0,0,0,0-.1,0,0,0,0,0,0,0,0,0,0,0,0,0,0,0,0,0,0,0,0,0,0,0,0,0,0,0,0,0,0,0,0,0,0,0,0,0,0,0,0,0,0,0h0c0,.1,0,.2,0,.2,0,0,0,.1,0,.2,0,.1,0,.2,0,.3-.2,.9,0,2.1,.1,3.3,0,.2,0,.4,0,.6,0,0,0,.2,0,.3,0,.1,0,.2,0,.4,0,0,0,0,0,0,0,0,0,.1,0,.2,0,0,0,0,0,0,0,0,0,0,0,0,0,0,0,0,0,.1,0,0,0,0,0,.1,0,0,0,0,0,.1h0c0,.2,0,.3,0,.4,0,0,0,.1,0,.2,0,0,0,0,0,0h0c0,0,0,.1-.1,.2,0,0,0,0,0,0,0,0,0,0,0,0,0,0,0,0,0,0-.1,.1-.3,.2-.5,.3,0,0,0,0,0,0,0,0-.1,0-.2,0,0,0,0,0,0,0h-.2s0,0-.1,0c0,0,0,0-.1,0s0,0,0,0c-.1,0-.2,0-.3,0-.1,0-.2,0-.4,0,0,0-.2,0-.2,0,0,0-.2,0-.2,0,0,0-.2,0-.3,0,0,0-.2,0-.3,0,0,0-.2,0-.3,0,0,0-.2,0-.3,0,0,0-.1,0-.2,0h0c0,0-.1,0-.2,0,0,0,0,0,0,0-.2,0-.4,0-.5-.2-.2,0-.3-.1-.5-.2,0,0,0,0,0,0,0,0-.2,0-.3-.1-.2,0-.3-.2-.5-.2,0,0-.1,0-.2,0-.2,0-.3-.2-.5-.3-.3-.2-.5-.4-.8-.6,0,0-.1-.1-.2-.2,0,0-.1-.1-.2-.2,0,0,0,0-.1-.1,0,0-.1-.1-.2-.2,0,0,0,0-.1-.1,0,0-.1-.2-.2-.2,0,0,0-.1-.1-.2h0c-.2-.3-.4-.6-.6-.9,0-.1-.1-.2-.2-.3-.1-.3-.2-.5-.3-.8,0,0,0-.1,0-.2-.3-.9-.4-2-.4-3.3,0-.1,0-.2,0-.3,0-.2,0-.4,0-.7,0-.2,0-.5,0-.7,0-.1,0-.2,0-.4,0-.2,0-.4,.1-.7,0-.1,0-.2,0-.3h0c0-.2,.1-.4,.2-.7,0-.1,0-.3,.1-.4h0c0,0,0-.2,0-.3,0,0,0,0,0-.1,0-.3,.2-.6,.3-.8,0-.1,.1-.3,.2-.4,.2-.6,.5-1.1,.8-1.6,.1-.3,.3-.5,.5-.8,.2-.3,.3-.5,.5-.8,0-.1,.2-.2,.3-.4,.2-.2,.4-.5,.6-.7,.3-.4,.6-.7,.9-1,.2-.2,.4-.4,.6-.6,.1-.1,.2-.2,.3-.3,.2-.2,.5-.4,.7-.6,.1,0,.2-.2,.4-.3,.1,0,.2-.2,.4-.3,.2-.2,.5-.4,.7-.5,.1,0,.3-.2,.4-.3,.3-.2,.5-.3,.8-.5,.1,0,.3-.2,.4-.2,.3-.1,.6-.3,.8-.4,.3-.1,.5-.3,.8-.4,.2-.1,.3-.2,.5-.3,.2-.1,.3-.2,.4-.4,0,0,.2-.2,.2-.2,0,0,.2-.2,.2-.3,.2-.2,.3-.4,.5-.6,0-.1,.1-.2,.2-.3,.2-.3,.3-.6,.4-.9,0-.2,.1-.3,.2-.5,0,0,0-.2,0-.2,0,0,0-.2,0-.2,0-.1,0-.3,0-.4,0-.4,.1-.8,.1-1.2s0-.2,0-.3c0,0,0-.1,0-.2h0s0,0,0,0c0-.1,0-.3,0-.4,0,0,0-.1,0-.2,0,0,0,0,0,0,0,0,0,0,0,0,0,0,0-.1,0-.2h0c0,0,0-.2,0-.3,0,0,0,0,0,0,0,0,0,0,0,0,0,0,0,0,0,0,0,0,0,0,0,0h0s0,0,0,0c0,0,0,0,0,0,0,0,0,0,0,0,0,0,0,0,0,0h0c0,0,0,0,0-.1,0,0,0-.1,0-.2,0-.2-.2-.4-.3-.7-.2-.3-.5-.6-.7-.9,0,0-.1,0-.2-.1,0,0,0,0,0,0,0,0,0,0,0,0,0,0,0,0-.1,0,0,0,0,0-.1-.1h0c0,0-.1-.2-.2-.2,0,0,0,0-.1-.2h0c0-.2,0-.2-.1-.3h0c-.6-.9-1.1-2.3-1.4-3.8h0c0,0,0-.2,0-.3,0-.2,0-.3-.1-.5,0-.5-.2-.9-.2-1.4,0-.2,0-.3,0-.5,0,0,0,0,0,0,0-.2,0-.3,0-.5,0,0,0,0,0-.1,0-.1,0-.2,0-.3,0,0,0,0,0,0,0,0,0-.1,0-.2,0,0,0,0,0-.1,0-.3,0-.5,0-.8,0,0,0-.1,0-.2,0-.2,0-.5,0-.7h0c0-.2,0-.3,0-.4,0,0,0-.1,0-.2h0s0,0,0,0v-.2s0,0,0,0c0,0,0,0,0-.1h0c.3-1.4,1-2.5,2.1-3,0,0,2.1-1.1,5.3-2.3,.7-.2,1.4-.5,2.1-.7,0,0,0,0,0,0,.3,0,.6-.2,1-.2,1.1-.3,2.1-.5,2.9-.6,0,0,0,0,0,0h0s0,0,0,0h0s0,0,.1,0h0s0,0,.1,0h0c0,0,.2,0,.3,0,.1,0,.2,0,.4,.1h0s0,0,0,0c0,0,0,0,.1,0,0,0,0,0,0,0h0c0-.1,.1-.2,.2-.3,.3-.3,.7-.5,1.2-.7,3.7-.6,7.6-.7,11.2,.3,1,.3,1.7,1,2.1,1.9,.1,.3,.3,.7,.5,1.2,1.1,3,2.5,8.1,2.2,10.9-.4,4.2,4.2,13.7,7.7,19.8,0,0,0,0,0,0,0,0,0,0,0,0,0,0,0,.1,.1,.2,.3,.6,.6,1.1,1,1.8,.2,.4,.4,.9,.6,1.3,0,0,0,0,0,.1h0c0,0,0,.2,.1,.3,0,0,0,.2,.1,.3,0,.1,0,.2,.1,.3,.4,1,.7,2.1,1,3.2,.6,2.4,.8,5.1,.5,7.9Z" fill="red"/>
        <path d="M81.8,265.9c0,.5-.2,1-.5,1.4,0,.1-.2,.2-.2,.4-.2,.2-.3,.5-.5,.7h0c-.3,.4-.6,.8-1,1.2,0,0-.1,.1-.2,.2,0,0,0,0,0,0-.6,.5-1.2,.9-1.9,1.3-.4,.2-.8,.4-1.3,.6-.3,.1-.6,.3-1,.4-1.3,.5-2.5,.9-3.9,1.1-1.7,.2-3.5,0-5-.7-.2-.1-.4-.2-.6-.4-.1,0-.2-.2-.4-.3-.1-.1-.3-.2-.4-.4h0c-.4-1.5-.6-3.3-.5-4.8,0-.3,0-.6,0-.9h0c0-.3,0-.6,.1-.8,0,0,0,0,0,0,0,0,0,0,0-.1,.8-.2,1.7-.4,2.6-.6,.2,0,.5,0,.7-.1,2.4-.5,4.9-.9,7.4-1.1,.5,0,1,0,1.5,0,0,0,.1,0,.2,0,.3,0,.5,0,.8,0,.2,0,.3,0,.5,0,0,0,0,0,0,0,0,0,0,0,0,0,.4,0,.9,.2,1.3,.3,.2,0,.4,.2,.6,.3,.2,.1,.4,.2,.6,.4,.2,.2,.4,.4,.6,.6,.2,.3,.3,.6,.3,1Z" fill="#ed1c24" mix-blend-mode="multiply"/>
        <path d="M81.2,272.7s0,7.6-.5,10.2c-.5,2.5-.8,9.8,4.8,8.8,5.6-1.1,2.9-7.4,1.4-9-1.5-1.6-4.5-10.4-4.5-10.4l-1.2,.4Z" fill="#ed1c24"/>
        <g>
          <path d="M79.2,272.2c0,0-.2,0-.3,0-.2,0-.4,.2-.3,.4,0,0,0,.3,0,.8,0,.2,.2,.4,.4,.4,.2,0,.4-.2,.4-.4,0-.5,0-.8,0-.8,0-.1,0-.2-.2-.3Z" fill="#e17103"/>
          <path d="M81.1,294c-.4-.3-.8-.6-1.1-1,0,0,0,0,0,0-.1-.1-.3,0-.5,0-.2,.1-.2,.4,0,.6,.4,.5,.8,.8,1.3,1.1,.2,.1,.4,0,.5-.1,.1-.2,0-.4-.1-.5Zm4.5,1c0-.1,0-.2-.2-.3,0,0-.2,0-.3,0-.5,0-1.1,0-1.5,0-.2,0-.4,.2-.4,.4,0,.2,.2,.4,.4,.4,.5,0,1.1,0,1.7,0,.2,0,.4-.2,.3-.4Zm-6.7-4.3c0,0,0-.1,0-.2-.1-.4-.2-.8-.3-1.3,0-.1,0-.2-.2-.3,0,0-.2,0-.3,0-.2,0-.4,.2-.3,.4,0,0,0,0,0,.1,0,.5,.2,1,.3,1.5,0,.2,.3,.3,.5,.3,.2,0,.3-.3,.3-.5Zm10.8,2.8s0,0-.1-.1c-.1,0-.3-.1-.4,0-.2,.1-.3,.2-.5,.3-.3,.1-.5,.3-.8,.4-.2,0-.3,.3-.2,.5,0,.2,.3,.3,.5,.2,.4-.1,.7-.3,1-.4,.2,0,.4-.2,.5-.3,.2-.1,.2-.4,.1-.5Zm-11.3-9c0,0-.1,0-.2,0-.2,0-.4,.1-.4,.3,0,.5-.1,.9-.1,1.4,0,0,0,.1,0,.2,0,.2,.2,.4,.4,.4,.2,0,.4-.2,.4-.4,0,0,0,0,0,0,0-.5,0-1,.1-1.5,0-.1,0-.3-.2-.4Zm13.6,5.4s-.1,0-.2,0c-.2,0-.4,.1-.4,.3,0,.4-.2,.8-.3,1.2,0,0,0,.2-.1,.2-.1,.2,0,.4,.2,.5,.2,0,.3,0,.5,0,0,0,0,0,0,0,.3-.5,.4-1.1,.5-1.6,0-.1,0-.3-.2-.4Zm-12.8-9.7s-.1,0-.2,0c-.2,0-.4,.1-.4,.3,0,.5-.2,1.1-.3,1.5,0,.2,0,.4,.3,.5,.2,0,.4,0,.5-.3,.1-.5,.2-1,.3-1.6,0-.1,0-.3-.2-.4Zm12.7,7.1c-.1-.5-.3-1-.5-1.6,0,0,0-.1-.1-.2-.1,0-.2,0-.4,0-.2,0-.3,.3-.2,.5,.2,.5,.4,1,.5,1.5,0,.2,.3,.3,.5,.3,.2,0,.3-.3,.3-.5Zm-12.4-11.2c0-.1,0-.2-.2-.3,0,0-.1,0-.2,0-.2,0-.4,.2-.4,.4,0,.5,0,1.1,0,1.6,0,.2,.2,.4,.4,.4,.2,0,.4-.2,.4-.4,0-.5,0-1.1,0-1.6Zm10.6,7.1c-.3-.5-.5-.9-.8-1.4,0,0,0,0-.1-.1-.1,0-.3-.1-.4,0-.2,.1-.2,.4-.1,.5,.3,.5,.6,.9,.8,1.4,.1,.2,.3,.3,.5,.2,.2-.1,.3-.3,.2-.5Zm-2.4-3.8c-.3-.4-.5-.9-.8-1.4,0,0,0,0-.1-.1-.1,0-.3,0-.4,0-.2,.1-.3,.3-.2,.5,.3,.5,.5,.9,.8,1.4,.1,.2,.4,.2,.5,.1,.2-.1,.2-.4,.1-.5Zm-2-3.9c-.1-.3-.2-.5-.3-.8,0-.2-.2-.5-.2-.7,0,0,0-.2-.1-.2,0,0-.2,0-.4,0-.2,0-.3,.3-.3,.5,0,.2,.1,.4,.2,.7h0c.1,.3,.2,.6,.3,.9,0,.2,.3,.3,.5,.2,.2,0,.3-.3,.2-.5Z" fill="#e17103"/>
          <path d="M84.6,270.3c0,0-.1,0-.2,0-.2,0-.4,.1-.4,.4,0,.3,0,.5,0,.8,0,.2,.2,.4,.4,.4,.2,0,.4-.2,.4-.4,0-.3,0-.5,0-.7,0-.1,0-.3-.2-.4Z" fill="#e17103"/>
        </g>
        <path d="M93.9,257.5s-2.1-.4-2.1-.4c-2.8-.7-8.2-.9-10.9,.1-.5,.2-.9,.4-1.2,.7,0,0-.2,.2-.2,.3,0,0,0,0,0,0,0,0,0,0-.1,0,0,0,0,0,0,0h0c-.1,0-.2-.1-.4-.1,0,0-.2,0-.3,0h0s0,0-.1,0h0s0,0-.1,0h0s0,0,0,0h0s0,0,0,0c-.8,.2-1.8,.4-2.9,.6-.3,0-.6,.2-1,.2,0,0,0,0,0,0-.8,.2-1.5,.4-2.3,.6h-.3c-.2,.2-.5,.2-.7,.3-.2,0-.3,.1-.5,.2-.9,.3-1.8,.7-2.6,1,0,0,0,0-.1,0-.3,.1-.5,.2-.7,.4,0,0-.1,0-.2,0,0,0-.1,0-.2,.1,0,0-.1,0-.2,.1-.1,0-.3,.2-.4,.3,0,0-.1,0-.2,.1,0,0,0,0-.1,.1,0,0-.1,.1-.2,.2,0,0,0,0-.1,.1,0,0-.2,.2-.3,.3,0,0,0,0-.1,.1,0,0,0,0,0,0,0,0,0,0,0,.1,0,0,0,.1,0,.2-.5,1-.6,1.5-.3,1.7,0,0,0,0,.1,0,0,0,0,0,0,0h0c.5,.1,1.5-.3,2.6-.8,.8-.4,1.6-.8,2.3-1,1.1-.4,3-1.2,4.8-1.6,1-.2,1.9-.2,2.6,0,.3,0,.6,.2,.8,.4h0c.2,.2,.4,.4,.5,.7,0,0,0,.2,0,.3,0,0,0,0,0,0h0c0,0,0,.2,0,.3,0,0,0,.2,0,.2,0,.2,0,.4,.1,.6,.3,1.4,.7,3.2,1,5.3,0,.3,0,.6,.1,.9,.1,.9,.3,1.8,.4,2.8,0,.3,0,.5,0,.8,0,.2,0,.3,0,.5,0,.3,0,.6,0,.9,.2,2.7,.2,5.4-.4,7.7,0,.2,0,.4-.1,.6-.4,2.2-.9,5.1,.2,7.2,1.5,2.7,5.2,2.7,7.4,1.1,1.9-1.4,3.2-3.5,2.5-6-.4-1.3-1.2-2.5-2.1-3.6-1.8-2.1-3.1-4.7-4-7.3-.1-.4-.3-.8-.4-1.3,0-.2-.1-.4-.2-.5h0c0-.1,0-.2-.1-.4,0-.2-.1-.5-.2-.7-.7-2.7-1.1-5.3-1.3-7.3,0-.5,0-.9-.1-1.3,0-.2,0-.4,0-.6,0,0,0-.1,0-.2,0-.1,0-.2,0-.4h0c0,0,0-.2,0-.3,.2-.7,.9-1.3,1.7-1.3h10c.5,.1,.9,0,1.2-.3,1-.9,.8-2.7-.8-3.1Zm-6.8,31.6c-.5,1.2-1.4,1.8-2.5,1.8-.8,0-1.7-.3-2.3-1.1-1.2-1.5-1.1-3.7-.8-5.5,0-.4,.1-.7,.2-1.1,.5-2.1,.5-4.9,.4-7.9,0,0,0-.1,0-.2,0-.2,0-.4,0-.6,0,0,0-.1,0-.2,0,.3,.2,.6,.2,.9,0,0,0,0,0,.1,.9,3.1,1.9,5.9,2.9,7.4,1.1,1.7,2.6,4.3,1.8,6.4Z" fill="#fff"/>
        <path d="M82.3,275.3c-.1,0-.9-3.2-.9-3.5-.3-1.2-.6-2.3-.8-3.5-.3-1.6-.7-3.2-.9-4.9-.1-.7-.2-1.3-.3-2,0-.9-.3-1.7-.1-2.6,0-.2,0-.4,.2-.6-.4-.3-.8-.4-1.3-.3,0,0,0,0,0,0-.3,.7-.3,1.5-.2,2.2,0,.6,.2,1.1,0,1.7,0,0,0,.2-.1,.3-.5,1-1.8,1.3-2.9,1.5-2.1,.5-4,1.3-5.8,2.4-1.6,1-3.2,2.4-3.6,4.3-.3,1.8,.5,3.5,1.8,4.8,1.5,1.5,3.6,1.1,5.6,.9,2.5-.2,5-.5,7.5-.7,.6,0,1.1-.1,1.7-.2,0,0,0,0,0,0,0,0,.1,0,.2,0Z" fill="#ed1c24" mix-blend-mode="multiply"/>
        <path d="M89.4,272c1.2-2,1.5-6-.2-7.6-1.5-1.5-3.6-1.8-5.7-2-2-.2-3.8-.2-5.6,.7-.2,.1-.4,.2-.6,.4-.2,.2-.3,.5-.3,.8-.2,1,.3,2.1,.8,3,.8,1.6,1.8,3,2.9,4.4,.2,.3,.5,.6,.6,.9,.3,.8,0,1.8,.6,2.3,.2,.2,.6,.3,.9,.3,1.2,0,2.5-.4,3.6-.8,1.2-.5,2.3-1.3,3-2.4Z" fill="#ed1c24" mix-blend-mode="multiply"/>
        <path d="M89.2,270.9c-.3,1.2-2.4,2.1-5.3,2.9-.2,0-.4,0-.6,.1-.3,0-.6,.1-.9,.2,0,0,0,0-.1,0,0,0,0,0,0,0h0c0,0-.1,0-.2,0,0,0-.1,0-.2,0,0,0-.1,0-.2,0-.3,0-.7,.1-1,.2-1.1,.2-2.2,.4-3.4,.6-.7,.1-1.4,.2-2.1,.3-3,.4-5.7,.6-7.1,.7,0,0,0,0-.1,0-.1,0-.2,0-.4,0,0,0,0,0-.1,0-.3,0-.5-.1-.7-.2h0c-.3-.2-.6-.4-.8-.7-1.4-2.1-1.7-5.9-1.7-7.6,0-.3,0-.5,0-.6,0-.1,.1-.2,.3-.4,0,0,.2-.1,.3-.2h0c.6-.3,1.7-.6,3.1-.9h0c1.8-.4,4.2-.8,6.6-1.2,1-.2,1.9-.3,2.9-.5,.1,0,.3,0,.4,0,.2,0,.5,0,.7-.1,0,0,0,0,0,0,0,0,0,0,0,0,.4,0,.8-.1,1.2-.2h0c.4,0,.7-.1,1.1-.2,.3,0,.6-.1,.9-.2h.1c.6-.1,1.1-.2,1.6-.2,1.1,0,2,.1,2.7,.4,3,1.2,3.4,4.9,2.7,7.7Z" fill="#ed1c24"/>
        <path d="M88.7,270.5c-.3,1.2-2.4,2.1-5.3,2.9-.2,0-.4,0-.6,.1-.3,0-.6,.1-.9,.2,0,0,0,0-.1,0,0,0,0,0,0,0h0c0,0-.1,0-.2,0h-.2c0,0-.1,0-.2,0-.3,0-.7,.1-1,.2-1.1,.2-2.2,.4-3.4,.6-.7,.1-1.4,.2-2.1,.3-3,.4-5.7,.6-7.1,.7,0,0,0,0-.1,0-.1,0-.2,0-.4,0,0,0,0,0-.1,0-.3,0-.5-.1-.7-.2h0c-.3-.2-.6-.4-.8-.7-1.4-2.1-1.7-5.9-1.7-7.6,0-.3,0-.5,0-.6,0-.1,.1-.2,.3-.4,0,0,.2-.1,.3-.2h0c.6-.3,1.7-.6,3.1-.9h0c1.8-.4,4.2-.8,6.6-1.2,1-.2,1.9-.3,2.9-.5,.1,0,.3,0,.4,0,.2,0,.5,0,.7-.1,0,0,0,0,0,0,0,0,0,0,0,0,.4,0,.8-.1,1.2-.2h0c.4,0,.7-.1,1.1-.2,.3,0,.6-.1,.9-.2h.1c.6-.1,1.1-.2,1.6-.2,1.1,0,2,.1,2.7,.4,3,1.2,3.4,4.9,2.7,7.7Z" fill="red"/>
        <path d="M100.5,313.5c-2.2,1.9-4.2-.5-5.3-2.5-.6-1.1-1.5-2.1-2.6-2.8-.5-.3-1.1-.6-1.7-.8-9.8-3.6-20.5,2-24.1,4.1-.8,.5-1.2,.8-1.3,.8,0,0,.2-.2,.3-.3,0,0,.2-.2,.3-.3,0,0,.2-.1,.2-.2h0s0,0,0,0h0c0,0,0,0,0-.1,0,0,0,0,.1-.1,0,0,.2-.2,.2-.3,0,0,0,0,0,0,0,0,0,0,0,0,0,0,0-.1,.1-.2h0s0,0,0,0c0,0,.1-.2,.2-.2,0,0,0,0,0,0,0,0,0,0,0,0,0,0,0-.1,.1-.2,0,0,0,0,0,0,0,0,0,0,0,0,0,0,0-.1,.1-.2,0,0,0,0,0,0,0,0,0-.1,.1-.2,0,0,0,0,0-.1,0,0,0-.1,0-.2,0,0,0,0,0-.1,0,0,0,0,0-.1,0,0,0-.2,0-.2,0,0,0-.2,0-.3,0,0,0,0,0,0,0,0,0-.2,0-.2,0-.1,0-.2,0-.3,0-.2,0-.4,.1-.6,0,0,0,0,0-.1h0c0,0,0-.2,0-.2h0c.2-.2,.4-.3,.6-.5,6.2-4.9,17.6-7,25.5-7.1,3.7,0,6.6,.3,7.9,1,.3,.2,.5,.4,.7,.6,2,3.3,.7,9.4-2.7,12.4Z" fill="#ed1c24"/>
        <path d="M67.5,303s0,0,0,0c0,0,0,0,0,0h0s0,0,0,0c0,0,0,0-.1,0,0,0-.2,0-.3,0-.1,0-.2,0-.3,0,0,0-.1,0-.2,0-.2,0-.3,.2-.4,.3-.1,.1-.2,.3-.3,.4,0,0,0,.1,0,.2,0,.1,0,.2,0,.3-.2,.9,0,2.1,.1,3.3,0,.2,0,.4,0,.6,0,0,0,.2,0,.3,0,.1,0,.2,0,.4,0,0,0,0,0,0,0,.1,0,.2,0,.4-.3,.2-.5,.3-.8,.2-.5,0-.9-.4-1.4-.9-.5-.6-.8-1.3-1.3-1.9-.5-.6-1.3-.8-2-1.1,0-.4,.4-.6,.8-.7,.4-.1,.9-.4,.8-.8,0-.2-.2-.3-.3-.4-.5-.4-1-.7-1.5-1.1,0-.3,.3-.6,.6-.7,.3,0,.6,0,.9,0,.5,0,1,0,1.4-.3,.3-.2,.5-.4,.5-.8,0-.3,0-.6-.3-.9-.2-.3-.4-.5-.6-.7-.4-.5-.7-1.2-.3-1.7,.5,.2,1.1,.5,1.6,.8,1.7,1.1,3,2.7,3.8,4.5,0,.2,.1,.3,.2,.5Z" fill="red"/>
        <path d="M70.6,299.7s0,0,0,0c-.2-.1-.4,0-.5,.2l-.7,1.4c-.1,.2,0,.4,.2,.5,.2,.1,.4,0,.5-.2l.7-1.4c0-.2,0-.4-.1-.5Zm1.9-3.9s0,0,0,0c-.2,0-.4,0-.5,.2-.2,.5-.4,1-.6,1.4,0,.2,0,.4,.2,.5,.2,0,.4,0,.5-.2,.2-.4,.5-.9,.7-1.5,0-.2,0-.4-.1-.5Zm.6-4c0-.1,0-.2-.2-.3,0,0-.2,0-.3,0-.2,0-.4,.2-.4,.4,0,.5,0,1,0,1.5,0,.2,.2,.4,.4,.4,.2,0,.4-.2,.4-.4,0-.5,0-1,0-1.6Zm-.5-2.7c0-.2,0-.4-.1-.7,0-.3-.1-.6-.2-.9,0,0,0-.2-.2-.2,0,0-.2,0-.3,0-.2,0-.3,.3-.3,.5,0,.3,.1,.6,.2,.9,0,.2,0,.4,.1,.7,0,.2,.2,.3,.5,.3,.2,0,.3-.3,.3-.5Zm-1.4-4.2c-.3-.4-.6-.8-1-1,0,0-.2-.1-.2-.2-.2-.1-.4,0-.5,.1-.1,.2,0,.4,.1,.5,.4,.2,.7,.6,1,1,.1,.2,.4,.2,.5,.1,.2-.1,.2-.4,.1-.5Z" fill="#e17103"/>
        <path d="M107.3,308.5c-.6,2.8-1.4,4.8-2.7,6.2-1.7,2-4.2,2.9-6.4,2.3-1.6-.4-2.6-1.5-3.5-2.5-.4-.4-.8-.9-1.2-1.3-1-.9-2.4-1.8-4-2.4-.2,0-.5-.2-.8-.3-2.3-.8-4.7-1.1-7-1.1-2.9,0-5.6,.4-7.8,.9-1.9,.5-4.4,1.2-6.5,2.5-1.2,.8-2.2,1.7-3,2.8,0,.1-.2,.3-.3,.4-.1,.2-.2,.3-.3,.5h0c0,0,0-.1,0-.2,0-.4,0-.7,0-1.1,0-.1,0-.3,0-.4h0c.2-.3,.5-.6,.8-.9,0,0,0,0,0,0,.6-.6,1.3-1.2,2.1-1.6,2.2-1.4,4.8-2.1,6.7-2.6,2.4-.6,5.4-1.1,8.7-.9,2.1,0,4.4,.4,6.5,1.2,.4,.2,.9,.3,1.3,.5,1.4,.6,2.7,1.5,3.7,2.3,.5,.4,.9,.9,1.3,1.3,.9,1,1.7,1.9,3.1,2.3,1.8,.5,4.1-.3,5.6-2,1.2-1.4,2-3.3,2.6-5.9,.9-4.2,.8-8.6,.2-12.8,0,.1,0,.2,.1,.3,.4,1,.7,2.1,1,3.2,.2,3.1,0,6.3-.6,9.4Z" fill="#ed1c24"/>
        <path d="M108.4,306.9c0,.2,0,.5,0,.7,0,.6-.2,1.2-.3,1.8,0,.2-.1,.5-.2,.7,0,.1,0,.2,0,.4-.2,.6-.4,1.2-.6,1.8,0,.2-.2,.5-.3,.7,0,.1-.1,.2-.2,.4h0c-.4,.1-.7,.3-1,.5-.9,.8-1.4,2.1-1.1,3.3h0c0,0,0,0,0,.1,0,0,0,0,0,0h0c-1.3-.5-3,0-3.7,1.3-1-1.1-2.8-1.4-4.1-.7-.4-.8-.9-1.6-1.6-2.2-.7-.6-1.8-.8-2.5-.3-.6-2.2-2.9-3.8-5.1-3.8-.4,0-.8,0-1.1,.1-1.4-.8-2.9-1.5-4.4-1.5-1.6,0-3.2,1-3.6,2.6-.4-.4-.8-.7-1.3-1-.9-.4-1.9-.5-2.8-.3-1.5,.4-2.7,1.6-3.1,3-.4-1.1-2.1-1.1-2.8-.2-.7,.9-.6,2.2-.2,3.3-.5-.8-1-1.6-1.9-2-.6-.3-1.3-.2-1.8,.1-.1,0-.2,.2-.3,.3,0,.1-.2,.3-.2,.4,0,0,0,0,0,0,0,0,0,0,0-.1,0,0,0,0,0,0h0c0,0,0-.1,0-.2,0-.4,0-.7,0-1.1,0-.1,0-.3,0-.4h0c0-.3,.2-.6,.4-.9,.2-.3,.4-.6,.6-.9,.2-.2,.3-.4,.5-.6h0c0,0,.2-.2,.3-.3,0,0,.2-.2,.3-.3,0,0,.1-.1,.2-.2h0s0,0,0,0h0s0,0,0,0c0,0,0,0,0,0,0,0,0,0,.1-.1,0,0,.2-.2,.2-.3h0c0-.1,0-.1,0-.2,0,0,0,0,0,0h0s0,0,0,0c0,0,0,0,0,0,0,0,.1-.2,.2-.2h0s0,0,0,0c0,0,0-.1,.1-.2,0,0,0,0,0,0,0,0,0,0,0,0,0,0,0-.1,.1-.2,0,0,0,0,0,0,0,0,0-.1,.1-.2,0,0,0,0,0-.1,0,0,0-.1,0-.2,0,0,0,0,0-.1,0,0,0,0,0-.1,0,0,0-.2,0-.2,0,0,0-.2,0-.3,0,0,0,0,0,0,0,0,0-.2,0-.2,0-.1,0-.2,0-.3,0-.2,0-.4,.1-.6h0c.2-.2,.4-.4,.6-.5,.3-.3,.6-.5,1-.7,2.4-1.7,5.4-2.4,8.3-2.8,2-.3,4-.4,6-.3,3.5,.1,6.9,.9,9.9,2.5,.3,.2,.6,.4,1,.6,1.3,.8,2.6,1.8,4.1,1.7,1.8,0,3.1-1.7,3.5-3.5,.3-1.3,.1-2.6-.1-3.9,0-.5-.2-.9-.3-1.4,.2,.6,1.1,.4,1.3-.1,.2-.5,0-1.2-.3-1.7-.4-.8-.9-1.5-1.5-2.2-.2-.2,0-.5,.3-.4,.5,.3,1.1,.6,1.6,.9-.1-1.5,.2-3,.9-4.3h0s0,0,0,0c0,0,0,0,0,0,0,0,0,.1,.1,.2,.3,.6,.6,1.1,1,1.8,.2,.4,.4,.9,.6,1.3,0,0,0,0,0,.1h0c0,0,0,.2,.1,.3,0,0,0,.2,.1,.3,0,.1,0,.2,.1,.3,.4,1,.7,2.1,1,3.2,.6,2.4,.8,5.1,.5,7.9Z" fill="#ed1c24" mix-blend-mode="multiply" opacity=".8"/>
        <path d="M68.3,298.1c0,1.6-.1,3.2-.2,4.8,0,.3,0,.6,0,1-.2-.4-.4-.7-.6-.9,0,0,0,0,0,0,0,0,0,0,0,0h0s0,0,0,0c0,0,0,0-.1,0,0,0-.2,0-.3,0-.1,0-.2,0-.3,0,0,0-.1,0-.2,0-.2,0-.3,.2-.4,.3-.1,.1-.2,.3-.3,.4,0,0,0,.1,0,.2,0,.1,0,.2,0,.3-.2,.9,0,2.1,.1,3.3,0,.2,0,.4,0,.6,0,0,0,.2,0,.3,0,.1,0,.2,0,.4,0,0,0,0,0,0,0,.1,0,.2,0,.4,0,0,0,.1,0,.2,0,0,0,0,0,0,0,.1,0,.2,0,.3,0,0,0,.1,0,.2,0,0,0,0,0,0-.1-.1-.3-.3-.5-.5,0,0,0,0,0-.1-.9-1.3-1.4-3.1-1.8-4.6-.3-1.1-.4-2.2-.4-3.3,0-.6,.1-1.2,.3-1.7,.1-.5,.3-1,.5-1.4,0,0,0-.1,0-.2,.4-.8,1-1.5,1.2-2.4,.2-.7,.3-1.6,1-1.9,.3,0,.5,0,.8,0,.8,.2,1.4,1,1.6,1.8,.2,.8,.2,1.7,.2,2.5Z" fill="#ed1c24" mix-blend-mode="multiply" opacity=".8"/>
        <path d="M88.7,270.5c-.3,1.2-2.4,2.1-5.3,2.9-.2,0-.4,0-.6,.1-.3,0-.6,.1-.9,.2,0,0,0,0-.1,0,0,0,0,0,0,0h0c0,0-.1,0-.2,0h-.2c0,0-.1,0-.2,0-.3,0-.7,.1-1,.2-1.1,.2-2.2,.4-3.4,.6-.7,.1-1.4,.2-2.1,.3,.7-.2,1.5-.5,2.2-.7,.6-.2,1.3-.4,1.9-.6,.2,0,.3-.1,.5-.2,.3,0,.5-.2,.8-.2,.4-.1,.7-.2,1.1-.4h.1c0,0,.2,0,.3-.1h0c0,0,.2,0,.3,0,.2,0,.4-.1,.6-.2,.2,0,.4-.1,.6-.2,.2,0,.4-.1,.5-.2,.7-.2,1.5-.5,1.8-1.1,.3-.4,.2-1,.2-1.5-.2-1.5-1.1-2.9-2.3-3.7-.4-.3-.9-.6-1.4-.7-.1,0-.2,0-.4-.1-.2,0-.4-.1-.5-.2,0,0-.2,0-.2,0-.3,0-.6-.1-.9-.2-.4,0-.8-.1-1.2-.2-.5,0-.9,0-1.4,0,0,0-.1,0-.2,0-2,0-4,.3-6,.8-1.2,.3-2.3,.6-3.5,.9-1,.3-2.1,.5-3.1,.9h0c-.2,0-.4,.1-.6,.2,0-.3,0-.5,0-.6,0-.1,.1-.2,.3-.4,0,0,.2-.1,.3-.2h0c.6-.3,1.7-.6,3.1-.9h0c0,0,.1,0,.2,0,2.8-.8,5.8-1.6,8.7-1.8,.2,0,.4,0,.6,0,.2,0,.5,0,.7,0,.2,0,.3,0,.5,0,0,0,0,0,0,0,0,0,0,0,0,0,.4,0,.8-.1,1.2-.2h0c.4,0,.7-.1,1.1-.2,.3,0,.6-.1,.9-.2h.1c.6-.1,1.1-.2,1.6-.2,1.1,0,2,.1,2.7,.4,3,1.2,3.4,4.9,2.7,7.7Z" fill="#ed1c24" mix-blend-mode="multiply" opacity=".8"/>
        <path d="M67.6,265.1c-1,.3-2.1,.5-3.1,.9h0c-.1,0-.2,0-.3,.1,0,0,.2-.1,.3-.2h0c.6-.3,1.7-.6,3.1-.9Z" fill="#ed1c24" mix-blend-mode="multiply" opacity=".8"/>
        <path d="M88.7,270.5c1-3.9-.2-9.3-7.1-7.9-1,.2-2.2,.4-3.3,.6,1.1,0,2.2,.2,3.3,.4,1,.2,1.9,.6,2.7,1.2,1.9,1.3,3.4,4.4,1.7,6.5-.6,.7-1.5,1.2-2.4,1.6-.6,.3-1.3,.6-1.9,.9,3.7-.8,6.7-1.9,7.1-3.3Z" fill="#ed1c24" mix-blend-mode="multiply" opacity=".8"/>
        <path d="M70.2,274.7c-1.6,.2-2.8,0-3.8-1.4-.8-1.1-1.2-2.5-1.2-3.8,0-.4,0-.9,.4-1.1,.3-.2,.7-.2,1-.2,1.1,.2,2.2,.7,2.9,1.6,.6,.7,1.1,1.6,2,1.7,.3,0,.6,0,1,0,.8-.1,1.7,0,2.5,.4,.1,0,.3,.2,.3,.3,.1,.2,0,.4,0,.6-.3,.6-.9,.8-1.5,1-1.2,.4-2.3,.7-3.6,.8Z" fill="red"/>
        <path d="M80.7,328.5c-1.7,.2-5-.6-4.9-3,0-.8,.7-1.4,1.4-1.6,.7-.2,1.5-.2,2.3,0,.6,0,1.3,.1,1.9-.1,.4-.2,.8-.6,1.2-.8,1.4-.7,3.1,.4,4.6,0,.8-.2,1.4-.8,2.1-1.3,1.8-1.1,4.2-1.1,5.9,.2,.2,.2,.5,.4,.6,.7,.2,.7-.5,1.2-1.1,1.5-4.3,2.4-9.1,3.8-14,4.3Z" fill="red"/>
        <g mix-blend-mode="screen" opacity=".2">
          <path d="M65.7,286.6c-1.1,.5-2.2,1.2-3.2,1.9-4,2.9-6.6,7.3-7.1,12.2-.7,8.1,5.2,9.7,8.7,9.8,.2,0,.3,0,.5,0-.2,0-.5,.2-.8,.2,0,0,0,0-.1,0,0,0,0,0,0,0-1.2,0-2.7-.2-4.1-.8h0c-.2,0-.3-.1-.5-.2,0,0-.1,0-.2,0-.2,0-.3-.2-.5-.3-.3-.2-.5-.4-.8-.6-1.8-1.4-3-3.9-2.6-7.8,0-.5,.1-.9,.2-1.4,0-.5,.2-.9,.3-1.3h0c0-.3,.2-.6,.3-.9h0c0-.3,.2-.6,.3-.9,0-.1,.1-.3,.2-.4,.2-.6,.5-1.1,.8-1.6,.1-.3,.3-.5,.5-.8,.2-.3,.3-.5,.5-.8,0-.1,.2-.2,.3-.4,.2-.2,.4-.5,.6-.7,.3-.4,.6-.7,.9-1,.2-.2,.4-.4,.6-.6,.1-.1,.2-.2,.3-.3,.2-.2,.5-.4,.7-.6,.1,0,.2-.2,.4-.3,.1,0,.2-.2,.4-.3,.2-.2,.5-.4,.8-.5,.1,0,.3-.2,.4-.3,.3-.2,.5-.3,.8-.5,.1,0,.3-.2,.4-.2,.3-.1,.6-.3,.8-.4h0c.3-.1,.5-.3,.8-.4,.2-.1,.3-.2,.5-.3,.2-.1,.3-.2,.4-.4,.2-.2,.3-.3,.5-.5,.2-.2,.3-.4,.5-.6,0-.1,.2-.2,.2-.3,.2-.3,.3-.6,.5-.9,0-.2,.1-.3,.2-.5,0,0,0-.2,0-.2,.4-1.6,.3-3.2-.2-4.5h0c0-.2-.2-.5-.3-.7-.2-.3-.5-.6-.7-.9,0,0-.1,0-.2-.1,0,0,0,0-.1,0,0,0,0,0-.1,0,0,0,0,0-.1-.1h0c0,0-.1-.2-.2-.2,0,0,0-.1-.1-.2,0,0-.1-.2-.2-.3h0c.2,.1,.5,.2,.7,.2,0,0,0,0,.1,0h0c.2,.3,.4,.5,.6,.6,2.5,1.8,2.7,8.1-2.1,10.3Z" fill="#a23926"/>
        </g>
      </g>
      <g>
        <path d="M52.5,307.4s0,0,0,0c-.6,1-1.4,1.7-2.3,2.3-1.7,1-3.6,1.4-5.1,1.4,0,0-.2,0-.2,0-.1,0-.3,0-.4,0-.1,0-.2,0-.3,0,0,0,0,0,0,0,0,0,0,0,0,0-.3-.1-.6-.4-.7-.6-.1-.2-.2-.5-.3-.9-.3-2,.9-5.3-.8-6.2-.2-.1-.4-.1-.6-.1,0,0-.2,0-.3,0,0,0,0,0,0,0,0,0,0,0-.1,0,0,0-.2,.1-.2,.2-.2,.2-.4,.5-.6,.9,0,0,0,.1,0,.2-.4,1-.5,2-.4,3.1,0,.1,0,.2,0,.3,0,.1,0,.2,0,.3,0,.1,0,.2,0,.3,0,.1,0,.3,.1,.4,0,0,0,.2,0,.3,0,.2,.2,.4,.3,.6,0,.1,0,.2,.2,.3,0,0,.1,.2,.2,.3,.1,.2,.2,.4,.4,.6,0,0,.1,.2,.2,.3,0,0,.1,.2,.2,.3,0,0,.2,.2,.2,.3,.2,.2,.3,.3,.5,.5,.2,.2,.4,.4,.6,.5h0c.8,.8,1.3,1.6,1.5,2.4,0,0,0,.1,0,.2,0,0,0,.2,0,.2,0,.1,0,.2,0,.3,0,0,0,0,0,.1,0,.2,0,.4,0,.5s0,.2,0,.3c0,0,0,.1,0,.2,0,0,0,.2,0,.3,0,0,0,0,0,.1,0,.1,0,.2,0,.3-.6,2.9-3,5.4-5.2,7.4,0,0-.1,0-.2,.1h-.1c0,.2-.1,.2-.2,.3h0c-2.7,2.4-6.8,2.5-10.4,3-5.2,.7-10.5,0-15.2-2.3-2.7-1.3-5.1-3.1-7.1-5.3,0,0,0,0,0,0,0-.1-.2-.2-.3-.3-.1-.2-.3-.3-.4-.5-.5-.6-.9-1.2-1.3-1.8,0,0,0,0,0-.1-.9-1.3-1.6-2.5-2.1-3.8-1-2.2-1.6-4.3-1.8-6.3-.1-1-.2-1.9-.2-2.9,0-1.8,.2-3.6,.6-5.2h0c.3-1.3,.6-2.5,1.1-3.6,.5-1.4,1.1-2.7,1.8-3.8,0-.1,.1-.3,.2-.4,2.1-3.6,4.4-8.4,6-12.6,1.1-2.9,1.7-5.6,1.5-7.3-.2-2,.4-5.3,1.2-8.1,0,0,0,0,0,0,.3-1,.6-2,.8-2.8,.2-.5,.3-.9,.4-1.2,.4-.9,1.1-1.6,2.1-1.9,3.6-1.1,7.6-1,11.2-.5,.7,.3,1.2,.6,1.5,1,0,0,0,0,0,0,0,0,0,0,0,0,0,0,.1,0,.2,0,0,0,.1,0,.2,0,0,0,.1,0,.2,0,0,0,.1,0,.2,0,0,0,.1,0,.2,0,0,0,.1,0,.2,0,0,0,0,0,0,0,1,.2,2.4,.5,4,.8,4.4,1.4,7.4,2.9,7.4,2.9,1,.4,1.7,1.4,2.1,2.7,0,0,0,.2,0,.2,0,0,0,.1,0,.2,0,.3,.1,.5,.1,.8,0,0,0,0,0,0,0,.3,0,.6,0,.9,0,.3,0,.7,0,1.1,0,1.2-.2,2.5-.5,3.7-.3,1.5-.8,2.9-1.4,3.8,0,0,0,0,0,0,0,.1-.1,.2-.2,.3,0,0,0,.1-.1,.2,0,0-.1,.1-.2,.2,0,0,0,0,0,0,0,0-.1,.1-.2,.2,0,0-.1,0-.2,.1-2,1.4-2.5,5.8,0,8.6,.6,.7,1.4,1.3,2.3,1.7,.9,.4,1.7,.8,2.5,1.3,.3,.2,.5,.3,.8,.5,4,2.9,6.7,7.2,7.2,12.1,.3,2.7-.2,4.7-1.1,6.2Z" fill="red"/>
        <path d="M43,272.2c-.3,1.5-.8,2.9-1.4,3.8h0s0,0,0,0c0,.1-.1,.2-.2,.3,0,0,0,.1-.1,.2,0,0-.1,.1-.2,.2h0c0,0-.1,.1-.2,.2,0,0-.1,0-.2,.1-2,1.4-2.5,5.8,0,8.6-.4,0-.9-.1-1.3-.2-.9-.1-1.8-.4-2.3-1-.5-.5-.7-1.2-1.1-1.8-1.3-2-4.2-2.1-6-3.6,.8-.9,1.8-1.4,3-1.6,.8-.1,1.6,0,2.4-.1,.8-.1,1.6-.6,1.8-1.4,.2-1.1-.8-2-1.9-2.4-3-1.1-6.8-.6-8.9-2.9,2.4,.1,4.9,.3,7.3,.4,2.2,.1,4.6,.2,6.5-.8,1.6-.9,3.1-3.1,2.9-5,0,0,0,.2,0,.2,0,0,0,.1,0,.2,0,.3,.1,.5,.1,.8,0,0,0,0,0,0,0,.3,0,.6,0,.9,0,1.5,0,3.3-.4,4.8Z" fill="#ed1c24" mix-blend-mode="multiply" opacity=".8"/>
        <path d="M22,276.8c-1.9,0-3.9,0-5.7,.7-1.1,.4-2.1,1.1-3.2,1.6-1.1,.5-2.3,.6-3.6,.7,1.1-2.9,1.7-5.6,1.5-7.3-.2-2,.4-5.3,1.2-8.1,0,.8,0,1.6,.4,2.2,.6,.8,1.6,1,2.5,1.4,.2,0,.4,.2,.5,.3,.3,.4-.1,1-.6,1.1-.5,.2-1,.2-1.4,.4-.7,.4-.8,1.4-.5,2.1,.3,.7,1,1.2,1.7,1.6,2.3,1.2,5.3,1.3,7.1,3.2Z" fill="#ed1c24" mix-blend-mode="multiply" opacity=".8"/>
        <path d="M43.8,263.6c-.2-.6-.7-1.1-1.2-1.5-2.4-1.6-6.2-2.2-8.9-2.9-3.3-.9-6.7-1.6-10.2-1.8-2.5-.1-5.1,0-7.5,.6,0,0-2.1,.4-2.1,.4-1.4,.4-1.2,1.8-1.3,3,0,.2,0,.3,0,.4,.1,.1,.3,.2,.5,.2,.8,0,1.5,.1,2.3,.2,3.3,.3,6.6,.6,9.9,.7,6.1,.2,12.1,1.7,17.7,4,.3,.1,.7,.2,.8,0,.1-.2,0-.9,0-1.2,0-.5,.2-1,.1-1.6,0-.2,0-.4-.1-.6Z" fill="#fff"/>
        <path d="M45.5,288.6c-3.1,0-6.1-2.3-6.3-5.4,0-.4,0-.8-.1-1.2-.3-1.1-1.4-1.7-2.5-2.1-1.1-.4-2.2-.6-3.1-1.3-.4-.3-.7-.9-.4-1.3,.2-.3,.5-.4,.8-.4,.8-.1,1.7-.1,2.5-.5,.8-.3,1.5-1.1,1.4-1.9-3.1-1.9-7.1-1.6-10.5-2.9-.1,0-.3-.1-.4-.2-.3-.3,0-.8,.3-1,.3-.2,.8-.2,1.1-.1,3.8,.3,7.7,.3,11.5-.2,1.1-.1,2.2-.3,3-1.1,.2-.2,.4-.3,.6-.5,0,1.2-.2,2.5-.5,3.7-.3,1.5-.8,2.9-1.4,3.8h0s0,0,0,0c0,.1-.1,.2-.2,.3,0,0,0,.1-.1,.2,0,0-.1,.1-.2,.2h0c0,0-.1,.1-.2,.2,0,0-.1,0-.2,.1-2,1.4-2.5,5.8,0,8.6,.6,.7,1.4,1.3,2.3,1.7,.9,.4,1.7,.8,2.5,1.3Z" fill="#ed1c24" mix-blend-mode="multiply" opacity=".8"/>
        <path d="M50.1,309.8c-1.7,1-3.6,1.4-5.1,1.4,0,0-.2,0-.2,0-.1,0-.3,0-.4,0-.1,0-.2,0-.3,0,0,0,0,0,0,0,0,0,0,0,0,0h0c-.3-.1-.6-.4-.7-.6-.1-.2-.2-.5-.3-.9-.3-2,.9-5.3-.8-6.2-.2-.1-.4-.1-.6-.1,0,0-.2,0-.3,0,0,0,0,0,0,0,0,0,0,0-.1,0,0,0-.2,.1-.2,.2-.2,.2-.4,.5-.6,.9,0,0,0,.1,0,.2-.4,1-.5,2-.4,3.1,0,.1,0,.2,0,.3,0,.1,0,.2,0,.3,0,.1,0,.2,0,.3,0,.1,0,.3,.1,.4,0,0,0,.2,0,.3,0,.2,.2,.4,.3,.6,0,.1,0,.2,.2,.3,0,0,.1,.2,.2,.3,.1,.2,.2,.4,.4,.6,0,0,.1,.2,.2,.3,0,0,.1,.2,.2,.3,0,0,.2,.2,.2,.3,.2,.2,.3,.3,.5,.5,.2,.2,.4,.4,.6,.5h0c.8,.8,1.3,1.6,1.5,2.4,0,0,0,.1,0,.2,0,0,0,.2,0,.2,0,.1,0,.2,0,.3,0,0,0,0,0,.1,0,.2,0,.4,0,.5s0,.2,0,.2h0c0,0,0,.1,0,.2,0,0,0,.2,0,.3,0,0,0,0,0,.1-.5,2.9-3.1,5.8-5.3,7.7,0,0-.1,0-.2,.1h-.1c0,.2-.1,.3-.2,.3-2.7,2.4-6.8,2.5-10.4,2.9-5.2,.7-10.5,0-15.2-2.3-2.7-1.3-5.1-3.1-7.1-5.3,0,0,0,0,0,0,0-.1-.2-.2-.3-.3-.1-.2-.3-.3-.4-.5-.5-.6-.9-1.2-1.3-1.8,0,0,0,0,0-.1-.9-1.3-1.6-2.5-2.1-3.8-1-2.2-1.6-4.3-1.8-6.3-.1-1-.2-1.9-.2-2.9,0-1.8,.2-3.6,.6-5.2h0c.3,0,.7,0,.9,.3,.3,.3,.2,.8,.2,1.2-.2,3.7,.6,7.5,2.4,10.8,.8,1.5,2.3,3.1,4,2.6,.4-.1,.7-.3,1.1-.3,.3,0,.6,.2,.9,.4,1.7,1.2,2.7,3.2,4.6,3.9,1.6,.7,3.7,.2,4.8-1.2,.3-.3,.5-.7,.8-.9,.4-.2,.8-.2,1.2,0,1.6,.3,2.9,1.3,4.4,1.9,1.5,.7,3.3,1,4.6,0,1.3-.9,1.6-2.8,2-4.3,0-.3,.2-.7,.5-.9,1-.7,2.1,1.3,3.3,1.2,.8-.1,1.1-1,1.2-1.8,.4-3.6-1.7-7.2-.8-10.7,.6-2.5,3.9-5.6,6.6-5.4,.2,0,.3,0,.5,.1,.3,.2,.3,.5,.3,.8-.1,.8-.9,1.6-.7,2.4,.2,.8,1.2,1.1,2.1,1.1,.8,0,1.9,0,2.2,.7,.2,.4,0,.9-.2,1.2-.2,.4-.6,.6-.9,1-.7,.8-.9,1.8-.6,2.7,.2,.9,.9,1.8,1.7,2.2,.8,.4,1.6,.5,2.4,.5Z" fill="#ed1c24" mix-blend-mode="multiply" opacity=".8"/>
        <path d="M18.3,307c0,0,.2-.1,.2-.2,.3-.2,.7-.4,1-.3,.5,.2,.6,.8,.8,1.2,1.2,2.7,4.5,1.9,5.9,0,1-1.5,.9-3.7-.3-4.9s-3.4-1.6-4.9-.6c-.3-1.5-2.1-2.5-3.6-2-.4,.1-.8,.3-1.1,.2-.3-.1-.5-.5-.7-.8-.6-1.3-1.1-2.7-2.1-3.7-1.7-1.9-4.7-2.3-7-1.2-2.3,1.2-3.7,4.7-3.7,7.2,0,2.8,2,5.6,4.7,6.4,1,.3,2.1,.3,3-.3,.9-.5,1.5-1.5,2-2.4,.5-.7,1.9,1.6,2.8,2,.7,.3,1.5,.3,2.1,0,.2-.1,.4-.3,.6-.5Z" fill="red"/>
      </g>
      <rect x="0" y="170.7" width="133.3" height="28.8" fill="url(#uuid-bd3aa497-8a19-43d3-ad0c-a9277dc42488)"/>
    </g>
  </g>
</svg>