<svg id="b6c5f023-c56c-4b65-8c9d-4f0da43d0f24" data-name="b40e964c-2e8e-4b2b-90da-6a9d3c6c12fe" xmlns="http://www.w3.org/2000/svg" xmlns:xlink="http://www.w3.org/1999/xlink" width="335" height="335" viewBox="0 0 335 335">
  <defs>
    <clipPath id="ba6e0549-1a0c-4bb1-8223-ac735788219b">
      <rect width="335" height="335" fill="none"/>
    </clipPath>
    <radialGradient id="a3afbf81-f9a1-4ba0-b555-74f754232dcb" cx="114.95" cy="141.84" r="176.38" gradientTransform="matrix(1.16, 0, 0, -0.82, 34.66, 283.04)" gradientUnits="userSpaceOnUse">
      <stop offset="0" stop-color="#262262"/>
      <stop offset="1" stop-color="#262262"/>
    </radialGradient>
    <pattern id="e81d616a-dded-41f0-91bb-caac074745e2" data-name="a9874765-2a4e-4e70-848f-38d9f2a" width="38.9" height="57.81" patternTransform="matrix(1.16, 0, 0, -0.82, 2522.85, -12852.5)" patternUnits="userSpaceOnUse" viewBox="0 0 38.9 57.8">
      <rect width="38.9" height="57.81" fill="none"/>
      <rect width="38.9" height="57.81" fill="none"/>
      <polygon points="9.7 57.8 0 43.3 9.7 28.9 19.5 43.3 9.7 57.8" fill="#fff" opacity="0.03" style="isolation: isolate"/>
      <polygon points="29.2 57.8 19.5 43.3 29.2 28.9 38.9 43.3 29.2 57.8" fill="#fff" opacity="0.03" style="isolation: isolate"/>
      <polygon points="9.7 28.9 0 14.4 9.7 0 19.5 14.4 9.7 28.9" fill="#fff" opacity="0.03" style="isolation: isolate"/>
      <polygon points="29.2 28.9 19.5 14.4 29.2 0 38.9 14.4 29.2 28.9" fill="#fff" opacity="0.03" style="isolation: isolate"/>
    </pattern>
    <radialGradient id="b642184f-cb72-442d-b073-bf82e9cfc8be" cx="-338.6" cy="470.4" r="54.36" gradientTransform="matrix(-1, 0, 0, 1, -266.8, -313)" gradientUnits="userSpaceOnUse">
      <stop offset="0.94" stop-color="#2bace2" stop-opacity="0.2"/>
      <stop offset="1" stop-color="#231f20"/>
    </radialGradient>
    <linearGradient id="e606084d-48a1-4b5e-b788-6116b842b17f" x1="-393.17" y1="178.6" x2="-284.08" y2="178.6" gradientTransform="translate(-266.8 336) rotate(180)" gradientUnits="userSpaceOnUse">
      <stop offset="0" stop-color="#bea22f"/>
      <stop offset="1" stop-color="#fdd800"/>
    </linearGradient>
    <radialGradient id="e0f764b8-175f-4254-a621-64906afe338e" cx="308.49" cy="151.64" r="54.35" gradientTransform="matrix(1, 0, 0, -1, 0, 336)" xlink:href="#b642184f-cb72-442d-b073-bf82e9cfc8be"/>
    <linearGradient id="abe318d2-4cd2-4c51-b006-b9e19b8cb5fd" x1="-508.07" y1="185.4" x2="-398.98" y2="185.4" xlink:href="#e606084d-48a1-4b5e-b788-6116b842b17f"/>
  </defs>
  <g>
    <g clip-path="url(#ba6e0549-1a0c-4bb1-8223-ac735788219b)">
      <g>
        <g>
          <rect width="335" height="335" fill="url(#a3afbf81-f9a1-4ba0-b555-74f754232dcb)"/>
          <rect width="335" height="335" fill="url(#e81d616a-dded-41f0-91bb-caac074745e2)"/>
        </g>
        <g opacity="0.1">
          <g>
            <g>
              <path d="M74.6,119.8H74a3.1,3.1,0,0,0-1.3.6,2.4,2.4,0,0,1-1.1.6,2.8,2.8,0,0,0-.9,1l-.5,1a5.4,5.4,0,0,1-1,1.6,13,13,0,0,0-1.1,4.3c0,.9-.3,1.9-.6,1.9h0c-.1,0-.2.6-.2,1.6s0,1.8,1.5,3.3a7.5,7.5,0,0,1,.7,1.2c.4,3,.4,3.2.2,3.6l-.4.5-3.7.5-1.8.5a1.7,1.7,0,0,1-1,.3h0c-.8,0-4.6,2.2-5.9,3.3a13.3,13.3,0,0,0-2.9,2.9c-1.7,2.2-3.4,4.4-3.8,4.7l-1.9,2.3a11.2,11.2,0,0,1-1.8,2,.5.5,0,0,0-.3.5l-.3.3c-.4.2-.4,1.1,0,1.5s.2.4-.5,1a23.9,23.9,0,0,1-2.3,2.2,21,21,0,0,0-5.4,6.1l-1,1.7c-2.7,5.2-3.1,5.7-4.5,6.4s-4.1,2.7-4.2,3.3l-.4,1a5.6,5.6,0,0,0-.4,1.2,6.1,6.1,0,0,0,2.3,3.7h.3c.3,0,.5-.5.5-1.4a5,5,0,0,1,.2-1.2,1.1,1.1,0,0,0,.3-.8,1.4,1.4,0,0,1,1.6-1,2.4,2.4,0,0,1,1.4.5.4.4,0,0,0,.6.4h0a2.6,2.6,0,0,0,1.4-.9c1.7-1.6,1.7-1.6,1.7-4.6a1.7,1.7,0,0,1,.6-1.2,6,6,0,0,1,2.1-1.4h0l1.3-.8,1.2-.7h0a12.3,12.3,0,0,0,2.8-2.3,5.9,5.9,0,0,0,1.3-1.8,2.2,2.2,0,0,1,.5-.8h0c.1,0,.2-.1.2-.3a6.5,6.5,0,0,1,1.7-2.6c.6-.7.9-.9,1.5-.9h1.1l.8.2,1.9-1.6c2.7-2.1,2.7-2.1,3.7-2.6l1.2-.7.7-.3c.3,0,.5.1.5.3a5.3,5.3,0,0,1,.3,1.2,11.8,11.8,0,0,0,.9,3.7c.2.2.3.9.3,2.3a4.2,4.2,0,0,0,.5,2.5l.3.6a.9.9,0,0,0,.3.7,4,4,0,0,1,.2,2.4c0,1.9-.1,2.2-.9,3.1l-1,1.2-1.6,1.8a6.4,6.4,0,0,1-1,1.3l-.5.7a5.7,5.7,0,0,1-.8,1.3,2.7,2.7,0,0,0-.6,1.2,1.6,1.6,0,0,1-.4.7,1.1,1.1,0,0,0-.3.8c0,.2-.2.7-.3,1.3l-.4,1.1a1.9,1.9,0,0,1-.2.7c-.5.9-1,1.8-1.6,2.7l-.5,1-.6,1.1-1,1.9a10.9,10.9,0,0,1-.8,1.5.9.9,0,0,0-.3.6,2.2,2.2,0,0,1-.5.8,5.4,5.4,0,0,0-1.1,1.8l-.3.6-1.4,2.6-1.6,3.1a3.6,3.6,0,0,0-.4.9,1.4,1.4,0,0,1-.2.6,1.5,1.5,0,0,0,.1,1.8c.3.4.3.6.2,1.3a2.1,2.1,0,0,1-1,1.6,15.9,15.9,0,0,0-2.5,3.3l-.3.6-.6,1.1-.4,1a.9.9,0,0,0-.3.7,1.7,1.7,0,0,1-.3,1,26.4,26.4,0,0,0-1.2,4,3,3,0,0,1-.4,1,15.5,15.5,0,0,0-.4,2.1c-.2.9-.3,1.8-.4,2l-.3,1.6a6.3,6.3,0,0,1-.3,1.9,8.5,8.5,0,0,0-.4,2.3,4.6,4.6,0,0,1-.8,3l-1.1,1.9c-.4.6-.5.8-.5,2.9a5.9,5.9,0,0,1-.6,3.4,4.8,4.8,0,0,0-.6,3.3c0,.4.3.6.8.9s1.8.7,4.5.7h.2c2.9,0,3.2-.4,2.6-3a9.9,9.9,0,0,1-.2-1.7,4.7,4.7,0,0,0-.3-1.7c-.1-.7-.2-1,0-1.3a9.9,9.9,0,0,0,.3-2.4c.1-2.1.3-2.9,1.1-3.8a1.6,1.6,0,0,0,.4-.7,2.2,2.2,0,0,1,.5-.8l.3-.6c0-.2.1-.3.3-.4a1.6,1.6,0,0,0,.4-.7l.7-1.2,1.5-2.2a7.1,7.1,0,0,1,1-1.4.3.3,0,0,0,.3-.3h0a1,1,0,0,1,.4-.7l.4-.6a.5.5,0,0,1,.3-.5,6.4,6.4,0,0,0,1-1.3l1.2-1.4.8-1.3c1.1-2.1,1.1-2.2,1.2-3.8s.1-1.6.5-2a1.2,1.2,0,0,1,.8-.4l.8.3a9.3,9.3,0,0,0,2.9.5h.5c1.2-.2,2.4-1.5,3.5-3.9l.8-1.5a.9.9,0,0,0,.3-.7,13.4,13.4,0,0,1,.7-1.8l.8-1.6a5.9,5.9,0,0,1,1.3-1.8.5.5,0,0,1,.4-.2h.2c.1.1.1.3-.1,1a8.6,8.6,0,0,0-.5,2.7,11.5,11.5,0,0,1-.3,2.6,12.9,12.9,0,0,0-.4,4.4l.8.9a2.1,2.1,0,0,1,.6,1c0,.4-.1.7-.4.7l-.3-.2a3.9,3.9,0,0,0-1.5-.2H64a2.4,2.4,0,0,0-1.8.5c-1.1.7-1.5,1.7-1.7,3.5a5.7,5.7,0,0,1-.3,1.8,2.4,2.4,0,0,1-.2.8,6.8,6.8,0,0,1-1.3,2.7l-.4.4a7.5,7.5,0,0,1-.7,1.2,3.1,3.1,0,0,0-.5,1l-.6,1.1c-.3.8-.4,1-.4,3.4s0,2.5.4,3.3a4.2,4.2,0,0,0,.9,1.4c.4.5.5.6,1.7.6h.1a2.4,2.4,0,0,0,1.8-.5,5.2,5.2,0,0,0,1.8-3l.3-1.1a5.6,5.6,0,0,0,.4-1.2,8.8,8.8,0,0,1,.5-1.5,4.3,4.3,0,0,0,.2-1.1,5.6,5.6,0,0,1,.4-1.2l.4-1,.2-.2h0l.3-.5a5.5,5.5,0,0,1,2-1.7h0a2.7,2.7,0,0,1,1.1,1,2.8,2.8,0,0,0,.9,1c.9.8.9.9,1.9.9h0c.8,0,1.1-.1,1.4-.4l.9-.6a7,7,0,0,0,2.1-2.1,2.1,2.1,0,0,1,.4-.6,10.4,10.4,0,0,0,1.9-3.6c.2-.5.2-.5,1.4-.6h1.3a11.2,11.2,0,0,0,.9-3.6,28.5,28.5,0,0,1,1.2-5.8l.3-1.8a11.6,11.6,0,0,1,.4-1.8l.3-.8.2-.6a5.6,5.6,0,0,0,.4-1.2c.1-.5.3-1.1.5-1.2a3,3,0,0,0,.4-1l.3-1.1a9.4,9.4,0,0,0,.4-1.6,8.3,8.3,0,0,1,.4-1.5,4.7,4.7,0,0,0,.3-1.7,30.5,30.5,0,0,1,.5-5.2c0-.2.2-1,.3-1.9a18.5,18.5,0,0,1,.4-2.3c.2-.5.3-2.1.4-5.6a49,49,0,0,1,.4-5.4,6.5,6.5,0,0,0-.1-3.4,3.7,3.7,0,0,1,0-2.9,20.9,20.9,0,0,0,.8-5c-.1-.8.3-5.1.6-5.4s.2-.2.4-.2.5.2.9.8l1.1,1.9c.4,1.1.7,1.3,1.8,1.5a2.5,2.5,0,0,1,1.4,1.6,3.9,3.9,0,0,1-.5,2.8c-.3.7-.4,5.4-.2,9.4a25.8,25.8,0,0,1,0,6.8,1.8,1.8,0,0,1-.8,1.5,6.7,6.7,0,0,0-2.3,2.7c-.6,1.2-.6,1.3-.7,3.3s0,3.8.3,3.8h0c.2,0,.4-.4.4-.8a1.1,1.1,0,0,1,.3-.8l.4-1q.3-.6.6-.6c.3,0,.7.5.9,1.4s.4,1.1.1,1.6a3.9,3.9,0,0,1-1.4,1.7c-.8.8-1.1,1.1-1,1.3s.2.3,1.1.3h1.4a11.4,11.4,0,0,0,2.6-.2c2.2-1.8,2.2-1.9,2.2-6.2.1-2.8,0-3.5-.2-4.2s-.3-.8-.1-1.3a14.2,14.2,0,0,0,.4-2l.3-1.9a5.7,5.7,0,0,0,.3-1.8,11.6,11.6,0,0,1,.4-1.8,5.6,5.6,0,0,0,.4-1.2l.4-1.6a5.6,5.6,0,0,0,.4-1.2,1.7,1.7,0,0,1,.3-1,11.6,11.6,0,0,0,.4-1.8,4.2,4.2,0,0,1,.4-1.6c.6-.6.6-4.8,0-5.1a1.7,1.7,0,0,1-.3-1,12.1,12.1,0,0,0-.5-1.8,3.6,3.6,0,0,1-.4-1.1.9.9,0,0,0-.3-.7c-.2-.5-.2-.6.1-1.2a4.3,4.3,0,0,0-.5-3.8,18.9,18.9,0,0,1-1.1-2.5l-.6-1.2a.8.8,0,0,1-.2-.5l-.3-.6-.6-1.1-.7-1.2-.8-1.3a13.7,13.7,0,0,0-1.3-2,13.3,13.3,0,0,0-3.4-3.3l-1.1-.4L90,144l-.7-.3-.8-.3-1-.4-.6-.3c-.1-.2-.7-.3-1.2-.4l-1.4-.4a3.3,3.3,0,0,0-1.4-.4c-1.3-.3-2.4-.7-2.4-.9a2,2,0,0,0-.4-.8c-.7-.9-.5-1.5.7-2.8l1.2-1.7a3.1,3.1,0,0,0,.5-2.1,5,5,0,0,0-.1-2.1,8.6,8.6,0,0,1-.5-2.7,6.9,6.9,0,0,0-.4-2.5,1.5,1.5,0,0,1-.4-.9l-.3-.7c-.2-.1-.3-.2-.3-.4l-.4-.6a1.6,1.6,0,0,1-.4-.7.9.9,0,0,0-.3-.7l-.3-.5-.9-.7L77,120A6.5,6.5,0,0,0,74.6,119.8Z" fill="#fff200"/>
              <path d="M85.4,236.3l-2.3.4a9.1,9.1,0,0,0-4.5,3.2l-.6,1-.3.5c-.4.5-.4.7-.4,3.4v3L78,249a8.6,8.6,0,0,0,3.1,3.2c2.4,1.3,2.2,1.2,4.4,1.2h.3c1.7,0,1.9,0,2.7-.4l2.5-1.4c.2-.2.4-.3.4-.4a6.9,6.9,0,0,0,1.8-2.4,2.2,2.2,0,0,1,.5-1.1c.4-.5.4-5.1,0-5.5a4.2,4.2,0,0,1-.4-1,8.3,8.3,0,0,0-3-3.4l-1-.6-1.8-.6Z" fill="#fff200"/>
            </g>
            <circle cx="71.8" cy="157.4" r="54.3" stroke-miterlimit="10" stroke-width="0.49" fill="url(#b642184f-cb72-442d-b073-bf82e9cfc8be)" stroke="url(#e606084d-48a1-4b5e-b788-6116b842b17f)"/>
          </g>
          <g>
            <path d="M175.1,120c-1.4,0-1.7,0-1.8.3h-.4l-.6.3-.5.3h0l-.9.6-1.2.8-.5.2-.7.3a1.6,1.6,0,0,0-.8.6,2,2,0,0,0-.3,1.5,2.7,2.7,0,0,0,1.2,2.5c.5.5.5.5.5,1.4a6.3,6.3,0,0,0,.7,3c.1,0,.2.3.4.6a7.3,7.3,0,0,1,.8,2.5,1.8,1.8,0,0,1-.2,1c-.2.8-.2,1.2.3,1.3a4.4,4.4,0,0,1,1.7,1.6.8.8,0,0,1-.2.5,17.5,17.5,0,0,1-4.3,2.2l-.9.3a23.5,23.5,0,0,1-5.3.9h-1.4l-.5.6c-.5.5-.6.5-2.1.7h-.4l-1.2-.4c-1.4-.8-2-.9-6.3-.9s-4.4,0-5-1a34.1,34.1,0,0,0-3.8-3.8c-1.3-1-1.5-1.1-2.4-1.1h0a1.8,1.8,0,0,0-1.6.5c-1,.6-1.4,1-1.6,1.5l-.4.9a1.3,1.3,0,0,0-.3,1.2,1.7,1.7,0,0,0,1.4,1.7,2.4,2.4,0,0,1,1.1.6,10.3,10.3,0,0,0,5.6,2c.5,0,.8.2,2.2.9l1.9,1,1.3.8a6,6,0,0,1,1.5.9l1.3.6c1.1.3,1.1.3,4.6.3h3.6l.5.4.7.7c.2.5.4.6,1.9.6a3.7,3.7,0,0,1,1.8.2l.9.3,1.2.2a10.9,10.9,0,0,0,2.5.4h1.8l.4.7a8.3,8.3,0,0,1,.4,1.5,3.2,3.2,0,0,0,.3,1.4c.1.3.2,1.1.3,1.7a7.7,7.7,0,0,0,.2,1.5,2.9,2.9,0,0,1,.2.9,30.9,30.9,0,0,0,1.4,4.3.9.9,0,0,1,.3.7.8.8,0,0,0,.2.4l.3.7c.1.1.1.3.2.3s.3.4.5.9a6.1,6.1,0,0,1,.8,2.6c.2.9.4,1.9.5,2.2a2.7,2.7,0,0,1,.3,1.2,3.6,3.6,0,0,1,.2,1,20.7,20.7,0,0,1,.3,3.5c0,3,.1,3.4.3,4.1s.3.8,0,1.1a5.7,5.7,0,0,1-1.6,1.1l-.8.3-.8.3h0l-.7.4-.5.4h0l-.9.7-1,.9-.4.5-.4.5c-.1.1-.6.8-1.2,1.4l-1.2,1.4-.7,1-.8,1-1,1.3-.8,1.1a2.5,2.5,0,0,0-.6,1.6c.1.4-.1.8-.7,1.3a44,44,0,0,0-3.7,3.8c-.4.7-.4.7-.4,2.3a9.9,9.9,0,0,0,1,5.6,10.8,10.8,0,0,1,.8,1.9l.2.4,1.1,2.2,1.1,1.8.3.7a3.7,3.7,0,0,1,.5,1.1l.9,1.6c.3.6.5,1.1.6,1.1s.2.3.3.5a.9.9,0,0,0,.3.7,1.9,1.9,0,0,1,.2.7l.4.6a.6.6,0,0,1,.1.4l.4.7.3.7a.6.6,0,0,0,.1.4.9.9,0,0,1,.3.7l.4,1,.3,1.2.3.8c0,.2.2.6.2.9s.2.8.2,1a3.2,3.2,0,0,1,.3,1.4c.1.5.2,1.1.3,1.4a14.3,14.3,0,0,1,.4,3.3c.1,2.1,0,5.6-.4,6.4a.9.9,0,0,0-.3.7,20,20,0,0,1-1,2.1c-.2.2-.4.7-.6.9a1.1,1.1,0,0,0-.3.6H168c-.2,0-.2-.1-.4-.4a7,7,0,0,0-1.9-2.9,4.9,4.9,0,0,0-1.8-1.4l-1-.4-.9-.3-2.5-.2h-1.6l-.8.3a7,7,0,0,0-3.2,1.9,7.5,7.5,0,0,0-2.1,3.4,10.9,10.9,0,0,0-.3,2.6,8.4,8.4,0,0,0,.4,2.7,13.4,13.4,0,0,0,.7,1.8,12,12,0,0,0,2.8,2.7l.4.2c0,.1.3.2.5.3l.9.3a6.7,6.7,0,0,0,2.8.3l2.2-.2,1.1-.3.9-.6.7-.4a18,18,0,0,0,1.9-2l.9-1.2c.3-.3.4-.3,1.4-.3h.2a2.2,2.2,0,0,0,1.6-.3l.8-.3h0a7.7,7.7,0,0,0,1.8-1.8,18.6,18.6,0,0,1,2.1-2.8,21.8,21.8,0,0,1,4.2-3.3,19.9,19.9,0,0,0,3.3-2.4,1,1,0,0,0,.4-1,4.3,4.3,0,0,0-2.2-3.3,8,8,0,0,1-2.1-1.5l-.4-.7a4,4,0,0,1-.9-2.1l-.4-1.3-.3-1.3-.4-1.4a9.2,9.2,0,0,1,.1-3.3,31.1,31.1,0,0,0-.1-6.1,8.3,8.3,0,0,1-.3-2.2,16.1,16.1,0,0,0-.8-3.8,1.9,1.9,0,0,1-.2-.7c0-.1,0-.1-.1-.2s-.2-.2-.2-.3a17.1,17.1,0,0,0-1.7-3.9,10,10,0,0,0-1.9-2.2c-.4-.4-.5-.6-.5-.9s.6-.8,1.8-.9h.7c.3,0,.4,0,.6.2l.5.7.4.5.4.8a11.8,11.8,0,0,0,1.6,2.9l.3.3.7-.3.8-.4.5-.2,1-.7.8-.6h0c.1,0,.2-.2.3-.4s3.3-3.2,4-3.2h0c.2,0,.6.5,1,.9l1.1,1.3c.2.3.4.5.4.6a15.6,15.6,0,0,0,1.6,2,1.8,1.8,0,0,0,.5.7,22.6,22.6,0,0,0,2.5,2.9l.6.6a.9.9,0,0,0,.7.3,1.1,1.1,0,0,0,.9-.4l.3-.2.3.2.9.6.8.7h.3l.5.3,1.3.6,1.1.6,1.7.8a.5.5,0,0,1,.5.3h.3a19.4,19.4,0,0,1,3,1.3l1.1.5.4.2.7.2.5.3.4.4a9.1,9.1,0,0,1,2.2,1.1l1.8.9a27.4,27.4,0,0,1,4.6,2.9l1.1.8a16.3,16.3,0,0,1,3.6,3.8,7.6,7.6,0,0,0,1.1,1.4,6.4,6.4,0,0,1,1.5,2.5,40.3,40.3,0,0,1,1.1,5l.5,2.4c.4,2.2.5,2.4,1,2.5h1c.7-.1.9-.4,2.1-2.8l.3-.8c.1-.2.2-.7.3-1a14,14,0,0,0,.4-6.1c-.1-1.2-.1-1.3.2-1.8a2.9,2.9,0,0,0,.2-.9,3.2,3.2,0,0,1,.3-.9,14.2,14.2,0,0,0,.2-4.6c-.3-.9-2.3-1.5-5-1.6l-2.4-.3-1-.2c-.4-.1-.7-.4-1.8-1.5s-5.9-6.1-6.9-6.9l-1.2-1.1a20.9,20.9,0,0,0-2.2-2l-.6-.4a12.1,12.1,0,0,0-5.4-2.2,2.4,2.4,0,0,1-1.8-.9c-.4-.7-.4-.8.4-1.9a8,8,0,0,0,1.3-1.9l1.1-1.9c.4-.7.5-1.2.2-1.7a26,26,0,0,0-2.3-2.8l-.5-.6-.8-1.2a10.9,10.9,0,0,1-1.4-2.3l-.5-.9a3.9,3.9,0,0,1-.6-1.5.9.9,0,0,0-.3-.7c-.2-.5-.2-.5.1-1.3l.3-.9a2,2,0,0,0,.4-1.3l.3-.8a3.1,3.1,0,0,0,0-2.3l-.3-1.1a3.6,3.6,0,0,0-.4-1.1l-.2-.5c0-.2-.1-.3-.2-.3l-.3-.5a17.4,17.4,0,0,0-1.1-1.8c-.7-.8-1-1.1-1.1-1.5l-.2-.8c-.1-.3-.2-.9-.3-1.4a4.3,4.3,0,0,0-.2-1.1,2.3,2.3,0,0,1-.3-1.1l-.3-1.1a22.8,22.8,0,0,1-.4-5.2,11.2,11.2,0,0,1,.5-3.1,3.9,3.9,0,0,0,.2-1.5,10.5,10.5,0,0,1,.4-1.7c.2-.5.2-1,.2-4.7s0-4.2-.2-4.5a3.1,3.1,0,0,1-.3-1.3c-.1-1-.3-.8,2.5-1.1l5-.2h.7c2.2,0,2.4,0,2.9.2l.7.4.6.3,2.4,1.6,1.2.9.9.6.4.2.6.2,1.3.6,1.4.6.8.3.3.2.8.4.9.3.7.3,1,.3.6.2.7.3,1.1.5a15.5,15.5,0,0,1,3.6,1.9,7,7,0,0,1,1.1,2.3c.2.8.8,2.4,1.1,3.2l1.2,1.5c1,1.1,1.9,1.7,2.7,1.7a2.1,2.1,0,0,0,1.6-1,1,1,0,0,1,.6-.5c1.5-.4,1.8-1.1,1.5-3.7a8.7,8.7,0,0,0-1-3.1,10,10,0,0,0-2.1-2l-.6-.3a9,9,0,0,0-2.3-.8,4.4,4.4,0,0,1-2.4-1.1c-1.3-1.2-2.4-2-5.4-4.3l-3.1-2.3-1-.7-.8-.6-1.7-1.2-1.9-1.1a38.2,38.2,0,0,0-4.6-2.1l-1.4-.3c-.8-.2-1-.4-1.1-1.1a1.6,1.6,0,0,0-.3-.9l-.4-.6-1.2-.2a18.4,18.4,0,0,1-5.6-1.4l-1.9-.8a18.6,18.6,0,0,0-6.5-1.5h-5.8c-.7,0-.9-.2-1.5-.8a5.2,5.2,0,0,1-1.4-1.9c-.6-1.3-.7-1.6-.3-2.4a9.1,9.1,0,0,0,.4-4.9,8.2,8.2,0,0,0-2.1-4.5,6.9,6.9,0,0,0-2.4-1.8l-1.2-.6a7.1,7.1,0,0,0-2.5-.2Z" fill="#fff200"/>
            <circle cx="186.7" cy="150.6" r="54.3" stroke-miterlimit="10" stroke-width="0.49" fill="url(#e0f764b8-175f-4254-a621-64906afe338e)" stroke="url(#abe318d2-4cd2-4c51-b006-b9e19b8cb5fd)"/>
          </g>
        </g>
        <g>
          <path d="M186.5,37.7A128.9,128.9,0,0,0,315.4,166.6h.1a128.4,128.4,0,0,0,56.1-12.8V0H192.1A129.9,129.9,0,0,0,186.5,37.7Z" fill="#ed1c24"/>
          <g>
            <path d="M371.6,153.8a128.4,128.4,0,0,1-56.1,12.8,128.9,128.9,0,0,1-129-128.8h0A129.9,129.9,0,0,1,192.1,0H173.3a149.9,149.9,0,0,0-4.8,37.7,147.2,147.2,0,0,0,147.2,147,146.7,146.7,0,0,0,55.9-11.1Z" fill="#ffde17"/>
            <path d="M186.5,37.7A129.9,129.9,0,0,1,192.1,0H181.6a141.3,141.3,0,0,0,137,175.1,139.4,139.4,0,0,0,53-10.4V153.8a128.4,128.4,0,0,1-56.1,12.8,128.9,128.9,0,0,1-129-128.8Z" fill="#fff200"/>
          </g>
        </g>
      </g>
    </g>
    <g>
      <line x1="3.3" y1="163.1" x2="3.3" y2="180.8" fill="none" stroke="#fff200" stroke-linecap="round" stroke-linejoin="round"/>
      <line x1="3.3" y1="39.5" x2="3.3" y2="153.7" fill="none" stroke="#fff200" stroke-linecap="round" stroke-linejoin="round"/>
      <line x1="3.3" y1="186.6" x2="3.3" y2="220.9" fill="none" stroke="#fff200" stroke-linecap="round" stroke-linejoin="round"/>
    </g>
    <g>
      <g>
        <path d="M32.1,13.4a1.1,1.1,0,0,1-.4.9l-4,4-4.3-2.5V13.4a1.3,1.3,0,0,1,1.3-1.3,1.2,1.2,0,0,1,1.2,1.2h0v3.1l4-4a1.3,1.3,0,0,1,1.8,0,1.1,1.1,0,0,1,.4.9" fill="#fff"/>
        <path d="M30.8,25h-.5l-.4-.2-4-4v3.1A1.3,1.3,0,0,1,24.7,25a1.2,1.2,0,0,1-1.3-1.1h0V21.3l4.3-2.4,4,4a1.2,1.2,0,0,1-.9,2.1" fill="#fff"/>
        <path d="M27.5,18.5c0-.1,0-.1-.1-.1h0l-1.1-.6-2.9-1.6L21,14.6h-.4v7.6a.3.3,0,0,0,.3.3H21L23.4,21l4-2.3h.1Zm-1,.2c0,.1,0,.1-.1.1h0l-3,1.8-1.9,1.1h-.4v-6a.2.2,0,0,1,.2-.2h.2l1.9,1.1,3,1.8C26.5,18.5,26.6,18.6,26.5,18.7Z" fill="#fff"/>
        <path d="M25.7,18.6h-.1L23.3,20l-1.4.8h-.3V16.4h.3l1.4.8,2.3,1.3c0,.1,0,.1.1.1h0" fill="#fff"/>
      </g>
      <g>
        <path d="M53,18.4h-.1l-3.5-1.8-2.2-1.1c-.2-.1-.3,0-.4.2h0v5.9c0,.2.2.3.4.2l2.1-1.1,3.5-1.9H53C53.1,18.5,53.1,18.5,53,18.4Zm-.8.2h-.1L49.4,20l-1.7.9c-.1.1-.3,0-.3-.2V16.3a.2.2,0,0,1,.2-.2h.1l1.7.9,2.7,1.4c.1,0,.1,0,.1.1Z" fill="#fff"/>
        <path d="M51.4,18.6h0l-2.1,1.1-1.2.7h-.3V16.8H48l1.3.7,2.1,1h0" fill="#fff"/>
        <path d="M34.7,15.5h3c1.5,0,2.6.8,2.6,2a2.2,2.2,0,0,1-2.5,2.1H36.2v2H34.7Zm2.9,2.9c.7,0,1.2-.3,1.2-.9s-.5-.8-1.2-.8H36.1v1.7Z" fill="#fff"/>
        <path d="M46.1,20.5v1.2H41.3V15.6h1.5v4.9Z" fill="#fff"/>
        <path d="M54.6,19.4l-2.7-3.9h1.7l1.8,2.6,1.7-2.7h1.6l-2.6,3.9v2.3H54.7Z" fill="#fff"/>
        <path d="M59.7,15.8h.8v3.4l3.4-3.5H65l-2.9,2.9,3.1,3.3h-1L61.6,19l-1.1,1.1v1.8h-.7Z" fill="#fff"/>
        <path d="M65.6,18.8A3.6,3.6,0,0,1,69,15.2a3.6,3.6,0,0,1,3.6,3.5,3.4,3.4,0,0,1-3.5,3.2,3.3,3.3,0,0,1-3.5-3.1Zm6.2-.1a2.7,2.7,0,0,0-2.7-2.5,2.7,2.7,0,0,0-2.7,2.6,2.7,2.7,0,0,0,2.7,2.5A2.7,2.7,0,0,0,71.8,18.7Z" fill="#fff"/>
        <path d="M73.6,21l.5-.6a3.1,3.1,0,0,0,2.2.9c1.1,0,1.6-.5,1.6-1.1s-.7-.9-1.9-1.1-2.2-.7-2.2-1.7.9-1.8,2.3-1.8a4.1,4.1,0,0,1,2.4.8L78,17a3.2,3.2,0,0,0-2-.8,1.2,1.2,0,0,0-1.4,1.1c0,.6.7.9,1.8,1.1s2.3.7,2.3,1.7-.8,1.8-2.4,1.8A4.4,4.4,0,0,1,73.6,21Z" fill="#fff"/>
        <path d="M80.1,15.8h.8L83.5,20,86,15.7h.7v6.1H86V17.2l-2.5,4.3-2.6-4.2v4.6h-.8Z" fill="#fff"/>
        <path d="M88.2,18.8a3.4,3.4,0,0,1,3.5-3.2,3.3,3.3,0,0,1,3.5,3.1h0a3.3,3.3,0,0,1-3.4,3.2h0A3.5,3.5,0,0,1,88.2,18.8Zm6.2-.1A2.8,2.8,0,0,0,91.6,16,2.8,2.8,0,0,0,89,18.8h0a2.7,2.7,0,0,0,2.7,2.5A2.7,2.7,0,0,0,94.4,18.7Z" fill="#fff"/>
        <path d="M96.2,21l.5-.6a3.1,3.1,0,0,0,2.2.9c1.1,0,1.6-.5,1.6-1.1s-.6-.9-1.8-1.1-2.3-.7-2.3-1.7a2.2,2.2,0,0,1,2.3-1.8,4.1,4.1,0,0,1,2.4.8l-.5.6a3,3,0,0,0-2-.8,1.2,1.2,0,0,0-1.4,1.1c0,.6.7.9,1.8,1.1s2.3.7,2.3,1.7-.8,1.8-2.4,1.8A4.4,4.4,0,0,1,96.2,21Z" fill="#fff"/>
      </g>
    </g>
    <path d="M247.1,229.2H335V198.9H247.1c-11.9,0-21.5,6.8-21.5,15.2h0C225.6,222.4,235.2,229.2,247.1,229.2Z" fill="#fff"/>
    <g>
      <line x1="14.2" y1="214.7" x2="54.4" y2="214.7" fill="none" stroke="#fff200" stroke-linecap="round" stroke-linejoin="round" stroke-width="0.85"/>
      <line x1="59.2" y1="214.7" x2="81.6" y2="214.7" fill="none" stroke="#fff200" stroke-linecap="round" stroke-linejoin="round" stroke-width="0.85"/>
      <line x1="87.6" y1="214.7" x2="94.5" y2="214.7" fill="none" stroke="#fff200" stroke-linecap="round" stroke-linejoin="round" stroke-width="0.85"/>
    </g>
    <g>
      <line x1="127.4" y1="284.6" x2="167.6" y2="284.6" fill="none" stroke="#fff200" stroke-linecap="round" stroke-linejoin="round" stroke-width="0.85"/>
      <line x1="172.3" y1="284.6" x2="194.8" y2="284.6" fill="none" stroke="#fff200" stroke-linecap="round" stroke-linejoin="round" stroke-width="0.85"/>
      <line x1="200.8" y1="284.6" x2="207.6" y2="284.6" fill="none" stroke="#fff200" stroke-linecap="round" stroke-linejoin="round" stroke-width="0.85"/>
    </g>
    <g>
      <line x1="14.2" y1="169.8" x2="54.4" y2="169.8" fill="none" stroke="#fff200" stroke-linecap="round" stroke-linejoin="round" stroke-width="0.85"/>
      <line x1="59.2" y1="169.8" x2="81.6" y2="169.8" fill="none" stroke="#fff200" stroke-linecap="round" stroke-linejoin="round" stroke-width="0.85"/>
      <line x1="87.6" y1="169.8" x2="94.5" y2="169.8" fill="none" stroke="#fff200" stroke-linecap="round" stroke-linejoin="round" stroke-width="0.85"/>
    </g>
    <g>
      <polygon points="15.8 185.4 14.2 182.6 15.8 179.8 19 179.8 20.6 182.6 19 185.4 15.8 185.4" fill="#fff200"/>
      <polygon points="15.8 204.6 14.2 201.8 15.8 199.1 19 199.1 20.6 201.8 19 204.6 15.8 204.6" fill="#fff200"/>
    </g>
    <g>
      <polygon points="15.8 272.4 14.2 269.7 15.8 267 18.9 267 20.4 269.7 18.9 272.4 15.8 272.4" fill="#fff200"/>
      <polygon points="164 272.4 162.5 269.7 164 267 167.1 267 168.7 269.7 167.1 272.4 164 272.4" fill="#fff200"/>
    </g>
    <g>
      <path d="M20.3,229.2a5.7,5.7,0,0,1,2.9,1.1,5.1,5.1,0,0,1,2.1,3.7,8.6,8.6,0,0,1-.5,3.2,41.1,41.1,0,0,1-2.7,5.1l-1.8,3.1h0c-.1.2-.1.4-.3.4s-.2-.3-.3-.4-1.6-2.6-2.3-3.9a31.7,31.7,0,0,1-2.1-4.1,7.2,7.2,0,0,1-.5-4.1,4.7,4.7,0,0,1,1.3-2.4,5.5,5.5,0,0,1,2.4-1.5A5.5,5.5,0,0,1,20.3,229.2Zm1.6,5.1a1.9,1.9,0,0,0-1.8-1.8,1.7,1.7,0,0,0-1.9,1.5v.4a1.8,1.8,0,0,0,1.6,1.8h.1A2,2,0,0,0,21.9,234.3Z" fill="#fff200"/>
      <path d="M19.6,248.4a9,9,0,0,1-3.6-.8,2.6,2.6,0,0,1-1.6-1.3,1.7,1.7,0,0,1,.4-2.1,5.2,5.2,0,0,1,1.8-1,.5.5,0,0,1,.4.2l.5.8c.1.2,0,.3-.2.4a2.1,2.1,0,0,0-1.1.4H16c-.4.4-.4.6,0,.9a3.9,3.9,0,0,0,1.8.6,6.3,6.3,0,0,0,1.9.3,9.9,9.9,0,0,0,3.8-.7c.2,0,.3-.1.5-.3a.5.5,0,0,0,0-.8,2.9,2.9,0,0,0-1.3-.5c-.3-.1-.3-.1-.1-.4l.4-.8c.1-.2.2-.2.3-.2a3.2,3.2,0,0,1,2.1,1.3,1.7,1.7,0,0,1-.1,2.3,4,4,0,0,1-1.8,1,7.4,7.4,0,0,1-3.3.5Z" fill="#fff200"/>
    </g>
    <g>
      <polygon points="15.7 303.4 14.2 300.8 15.7 298.1 18.7 298.1 20.3 300.8 18.7 303.4 15.7 303.4" fill="#fff200"/>
      <polygon points="242.9 303.4 241.3 300.8 242.9 298.1 245.9 298.1 247.4 300.8 245.9 303.4 242.9 303.4" fill="#fff200"/>
      <polygon points="116.3 303.3 114.9 300.8 116.3 298.2 119.3 298.2 120.7 300.8 119.3 303.3 116.3 303.3" fill="#fff200"/>
    </g>
    <g>
      <line x1="199.6" y1="316.9" x2="166.2" y2="316.9" fill="none" stroke="#fff200" stroke-linecap="round" stroke-linejoin="round"/>
      <line x1="160.1" y1="316.9" x2="146.4" y2="316.9" fill="none" stroke="#fff200" stroke-linecap="round" stroke-linejoin="round"/>
      <line x1="140.6" y1="316.9" x2="135.4" y2="316.9" fill="none" stroke="#fff200" stroke-linecap="round" stroke-linejoin="round"/>
    </g>
  </g>
</svg>
