<svg id="b003afd7-1364-4e80-bce0-701ed09cb854" data-name="af219463-69fe-4da4-bb53-246476584f52" xmlns="http://www.w3.org/2000/svg" xmlns:xlink="http://www.w3.org/1999/xlink" width="335" height="335" viewBox="0 0 335 335">
  <defs>
    <clipPath id="b12c8f17-1c38-474c-9ecd-2ae1200ad0da">
      <rect y="0.7" width="335" height="334.27" fill="none"/>
    </clipPath>
    <clipPath id="afef95ad-3529-49f5-a0ef-65e5e5c531ac">
      <path d="M-1.5,67.3S13.9,84.9,19,87s7.1,1.7,9.9,2.7,6.4,4.2,9.3,6.1,12.9,4.8,12.9,4.8h3.8l5.5,3.2s-.9,4.2.1,5.3,8.1,4.5,8.9,5.6,2.1-2.4,4.7,1.4,3,4.5,4.1,5l15,6.9,12.2,10s4.2-.5,5.2.1l13.8,7.7,11.4.2c4.5.1,5.9,2.8,7,2.9h6.7s6.3-1.3,7.4.1,16.2-.8,17.4.3,7.8,2,7.8,2l10.8-3.6,7.3-2.3s10.4-.9,12-1.4,26.9-3.6,27.7-3.6a45.6,45.6,0,0,0,5.3-1.3l4.4-8h4.1l.9-5.1s4.6.4,5.1-.4,4.4-4.5,5.7-4.5l7-.2c1.1,0,9.3-9.7,12.2-11s6.9-3.1,8.2-3.9,1-1.1,3.6-4.5,7.7-6,8.6-7.3,5.1-13.1,5.3-14.1,6.4-4.7,6.9-5.5l2.4-4.3,6.5-4.2,11-4.6V-72H-1.5Z" fill="none"/>
    </clipPath>
    <radialGradient id="bebccb86-d6bb-45d1-9620-35c8bd9ee058" cx="230.1" cy="72.7" r="57.9" gradientUnits="userSpaceOnUse">
      <stop offset="0.94" stop-color="#2bace2" stop-opacity="0.2"/>
      <stop offset="1" stop-color="#231f20"/>
    </radialGradient>
    <radialGradient id="b2494715-d7cd-4ad9-b8bb-abf3256e688c" cx="107.6" cy="65.5" r="57.9" xlink:href="#bebccb86-d6bb-45d1-9620-35c8bd9ee058"/>
  </defs>
  <g>
    <g clip-path="url(#b12c8f17-1c38-474c-9ecd-2ae1200ad0da)">
      <g>
        <polygon points="-2.1 -58 336.5 -58 336.5 -58 -2.1 -58 -2.1 417 336.5 417 336.5 -58 -2.1 -58" fill="#272361" fill-rule="evenodd"/>
        <polygon points="293.8 314.8 32.4 314.8 41.2 274.5 302.6 274.5 293.8 314.8" fill="#f6eb16"/>
        <rect x="-1.5" y="-53.3" width="338.6" height="297.48" fill="none"/>
        <g clip-path="url(#afef95ad-3529-49f5-a0ef-65e5e5c531ac)">
          <g>
            <rect x="-23.8" y="-58" width="383.3" height="233.65" fill="#fff"/>
            <g opacity="0.08">
              <g>
                <g>
                  <path d="M227,32.6h.7a3.3,3.3,0,0,1,1.3.7,3.4,3.4,0,0,0,1.2.6c.3.1.6.4,1,1.1a3.4,3.4,0,0,1,.5,1.1,3.6,3.6,0,0,0,1.1,1.6,14.7,14.7,0,0,1,1.1,4.6c0,1,.4,2,.7,2h0a3.2,3.2,0,0,1,.2,1.7c0,1.9,0,2-1.6,3.6a2.9,2.9,0,0,0-.7,1.2c-.5,3.2-.5,3.4-.3,3.8l.5.6,3.9.6a4.1,4.1,0,0,1,1.9.5l1.1.3h0c.8,0,5,2.3,6.3,3.5a22.7,22.7,0,0,1,3.1,3.1c1.8,2.3,3.6,4.6,4,5l2,2.4a20.9,20.9,0,0,0,2,2.2.5.5,0,0,1,.3.5c0,.2.1.3.3.4a1.1,1.1,0,0,1,.1,1.5c-.3.3-.3.4.4,1.1a27.3,27.3,0,0,0,2.5,2.3,22.1,22.1,0,0,1,5.7,6.5l1.1,1.9c2.9,5.5,3.3,6,4.8,6.7s4.4,2.9,4.4,3.6a3.1,3.1,0,0,0,.5,1,6.5,6.5,0,0,1,.4,1.3,6.6,6.6,0,0,1-2.5,4h-.2c-.3,0-.5-.6-.5-1.5a2.8,2.8,0,0,0-.3-1.3,1.6,1.6,0,0,1-.3-.9,1.6,1.6,0,0,0-1.7-1,1.3,1.3,0,0,0-1.4.6.9.9,0,0,1-.7.3,2.6,2.6,0,0,1-1.6-.9c-1.8-1.7-1.7-1.7-1.8-5a1.4,1.4,0,0,0-.6-1.2,10.7,10.7,0,0,0-2.2-1.5h0l-1.4-.8-1.3-.8h0a16.8,16.8,0,0,1-2.9-2.4,13.3,13.3,0,0,1-1.4-1.9c-.3-.5-.5-1-.6-1h0a.2.2,0,0,1-.2-.2,7.5,7.5,0,0,0-1.8-2.8c-.7-.7-.9-.9-1.6-.9h-2l-2-1.6c-2.9-2.3-2.9-2.3-4-2.8l-1.3-.8a.8.8,0,0,0-.7-.2c-.3,0-.5,0-.6.2l-.3,1.4a10.2,10.2,0,0,1-1,3.8,10.7,10.7,0,0,0-.3,2.5c-.1,1.9-.1,2.2-.4,2.6a2,2,0,0,0-.4.8.9.9,0,0,1-.3.7,5.4,5.4,0,0,0-.3,2.5c0,2,.1,2.3,1,3.3l1.1,1.3a15.6,15.6,0,0,1,1.6,2l1.1,1.3.6.8a5.7,5.7,0,0,0,.8,1.3,5.4,5.4,0,0,1,.7,1.3,2,2,0,0,0,.4.8,1.1,1.1,0,0,1,.3.8,7.4,7.4,0,0,0,.4,1.4,2.7,2.7,0,0,1,.3,1.2.9.9,0,0,0,.3.7,27.5,27.5,0,0,0,1.7,2.9,3.1,3.1,0,0,1,.5,1l.6,1.2,1.2,2.1a10.9,10.9,0,0,0,.8,1.5l.3.7a2.2,2.2,0,0,0,.5.8,8.6,8.6,0,0,1,1.3,2,.9.9,0,0,0,.3.6l1.5,2.8,1.7,3.3a3.2,3.2,0,0,1,.3.9.9.9,0,0,0,.3.7,1.9,1.9,0,0,1-.1,1.9,1.3,1.3,0,0,0-.2,1.3c0,.7.2,1,1,1.8a29.7,29.7,0,0,1,2.7,3.5l.3.7.6,1.1a4.7,4.7,0,0,0,.5,1l.3.8a2,2,0,0,0,.3,1.1,22.5,22.5,0,0,1,1.3,4.2,5.6,5.6,0,0,0,.4,1.2,16,16,0,0,1,.5,2.1,17,17,0,0,0,.4,2.2,5.1,5.1,0,0,1,.3,1.7,6.9,6.9,0,0,0,.3,2,10.9,10.9,0,0,1,.4,2.5,4.6,4.6,0,0,0,.9,3.2l1.2,2c.4.6.4.8.5,3.1s.1,2.4.6,3.6a6.1,6.1,0,0,1,.7,3.5,1.3,1.3,0,0,1-.9,1c-.9.6-1.9.7-4.8.7h-.2c-3,0-3.4-.5-2.8-3.2.1-.7.2-1.5.2-1.8l.3-1.8a2.2,2.2,0,0,0,.1-1.4,10.7,10.7,0,0,1-.3-2.5c-.1-2.3-.4-3.1-1.3-4.1a3,3,0,0,1-.4-.8,2.2,2.2,0,0,0-.5-.8l-.3-.6a.5.5,0,0,0-.3-.5l-.5-.7a5.4,5.4,0,0,0-.7-1.3l-1.6-2.3-1.1-1.5a.5.5,0,0,1-.2-.4,1.8,1.8,0,0,0-.5-.7l-.4-.7-.4-.5-1.1-1.3c-.3-.5-.9-1.2-1.2-1.6a3.8,3.8,0,0,1-.9-1.3c-1.1-2.3-1.1-2.3-1.2-4s-.2-1.8-.5-2.2a1.8,1.8,0,0,0-.9-.4l-.9.3a10.5,10.5,0,0,1-3,.5h-.6c-1.3-.2-2.5-1.6-3.7-4.2a6,6,0,0,0-.9-1.5,1.1,1.1,0,0,1-.3-.8,10.8,10.8,0,0,0-.8-1.9L238,127a5,5,0,0,0-1.3-1.9l-.5-.3H236c-.2.2-.1.4.1,1.1a10.5,10.5,0,0,1,.5,3,8.4,8.4,0,0,0,.4,2.7c.3.8.6,4.2.3,4.7l-.8,1a2.3,2.3,0,0,0-.7,1c0,.5.2.7.5.7h.3a2.2,2.2,0,0,1,1.6-.3h.1a2.5,2.5,0,0,1,1.9.5c1.2.8,1.6,1.8,1.8,3.7a7.5,7.5,0,0,0,.3,1.9l.3.9a6.1,6.1,0,0,0,1.4,2.9c.1,0,.3.3.4.5a7.5,7.5,0,0,0,.7,1.2,2.4,2.4,0,0,1,.6,1.1l.6,1.2c.4.8.4,1.1.4,3.5s0,2.8-.4,3.6a3.8,3.8,0,0,1-.9,1.5c-.5.6-.6.6-1.9.6h0c-1.2,0-1.4-.1-1.9-.5a5.7,5.7,0,0,1-2-3.2l-.3-1.2a5.6,5.6,0,0,1-.4-1.2c-.1-.6-.4-1.3-.5-1.7a2,2,0,0,1-.3-1.1,5,5,0,0,0-.4-1.3l-.5-1c0-.1,0-.2-.1-.2h0c-.1,0-.3-.3-.4-.6a4.6,4.6,0,0,0-2.1-1.8h0c-.2,0-1.1.8-1.1,1.1l-1,1c-1,.9-1,.9-2.1,1h0a2,2,0,0,1-1.5-.4l-.9-.7a7.7,7.7,0,0,1-2.2-2.2c0-.2-.3-.5-.5-.7a13.8,13.8,0,0,1-2-3.8c-.2-.5-.2-.5-1.5-.6l-1.4-.2a11.8,11.8,0,0,1-.9-3.7,27.1,27.1,0,0,0-1.3-6.3l-.3-1.9a11.6,11.6,0,0,0-.4-1.8,1.6,1.6,0,0,1-.3-.9.9.9,0,0,0-.3-.7,6.5,6.5,0,0,1-.4-1.3,2.9,2.9,0,0,0-.5-1.3,3.1,3.1,0,0,1-.5-1,2.7,2.7,0,0,0-.3-1.2,10.5,10.5,0,0,1-.4-1.7,4.3,4.3,0,0,0-.5-1.6,11,11,0,0,1-.2-1.8,26,26,0,0,0-.6-5.6c0-.1-.2-1-.3-1.9a21.7,21.7,0,0,0-.4-2.5,40.5,40.5,0,0,1-.5-6c-.1-3.1-.2-5.5-.3-5.8a6.9,6.9,0,0,1,0-3.5,4.7,4.7,0,0,0,.1-3.1,19.1,19.1,0,0,1-1-5.3,22.8,22.8,0,0,0-.5-5.8c-.2-.2-.3-.3-.5-.3s-.6.3-1,.9L208,80.5c-.5,1.1-.8,1.4-1.9,1.6s-1.2.7-1.5,1.6a5.1,5.1,0,0,0,.4,3c.4.7.6,5.8.3,10.1s-.3,5.8,0,7.2a2.6,2.6,0,0,0,.9,1.6,7.6,7.6,0,0,1,3.2,6.3c.1,2.5,0,4.1-.4,4.1h0c-.2,0-.4-.3-.4-.9a.9.9,0,0,0-.3-.7l-.5-1.2q-.2-.6-.6-.6c-.3,0-.7.5-1,1.5s-.3,1.1-.1,1.7a6.5,6.5,0,0,0,1.5,1.8c.9.8,1.2,1.2,1.1,1.4s-.2.3-1.2.3h-1.4l-2.8-.3c-2.4-1.9-2.4-2-2.4-6.6,0-3,0-3.8.3-4.4a2.2,2.2,0,0,0,.1-1.4,8.5,8.5,0,0,1-.4-2.2,14.2,14.2,0,0,0-.4-2,6.9,6.9,0,0,1-.3-2,12.9,12.9,0,0,0-.4-1.9,2.9,2.9,0,0,1-.5-1.3l-.4-1.6a6.5,6.5,0,0,1-.4-1.3,2,2,0,0,0-.3-1.1,12.1,12.1,0,0,1-.5-1.8,5.8,5.8,0,0,0-.4-1.8c-.6-.6-.6-5.1,0-5.4s.3-.5.4-1.1a5.9,5.9,0,0,1,.5-1.9,5.6,5.6,0,0,0,.4-1.2,1.1,1.1,0,0,1,.3-.8c.2-.5.2-.5-.1-1.2a4.9,4.9,0,0,1,.5-4.1l1.2-2.6.7-1.3c0-.1.2-.3.2-.5l.3-.7.6-1.1.8-1.4.8-1.3a16.4,16.4,0,0,1,1.4-2.2,14.6,14.6,0,0,1,3.6-3.4l1.2-.5.5-.4.8-.3.8-.3,1.1-.5.6-.3a3.3,3.3,0,0,1,1.4-.4,3.4,3.4,0,0,0,1.4-.5l1.5-.4c1.4-.3,2.6-.7,2.6-.9a2,2,0,0,1,.4-.8c.7-1,.6-1.7-.8-3.1l-1.3-1.8c-.4-.6-.5-.9-.5-2.3a3.8,3.8,0,0,1,.2-2.1,9.2,9.2,0,0,0,.4-2.9,8.6,8.6,0,0,1,.5-2.7,1.5,1.5,0,0,0,.4-.9c.1-.4.2-.7.4-.8a.8.8,0,0,0,.2-.4,1,1,0,0,1,.5-.6,2,2,0,0,0,.4-.8,1.1,1.1,0,0,1,.3-.8c.2-.2.4-.4.4-.5s.4-.4.9-.7l1.3-.8A5.4,5.4,0,0,1,227,32.6Z" fill="#010101"/>
                  <path d="M215.5,156.8a10.9,10.9,0,0,1,2.5.4,10.1,10.1,0,0,1,4.8,3.3l.6,1.1.4.6c.4.5.4.7.4,3.6v3.1l-.8,1.3a10,10,0,0,1-3.3,3.5c-2.6,1.3-2.3,1.2-4.7,1.2h-.3c-1.8,0-2,0-2.9-.4a11.7,11.7,0,0,1-2.7-1.5l-.4-.4a8.3,8.3,0,0,1-1.9-2.6,3.1,3.1,0,0,0-.5-1.2c-.4-.4-.5-5.3,0-5.8l.5-1a7.3,7.3,0,0,1,3.1-3.6l1.1-.7a6,6,0,0,1,1.9-.6Z" fill="#010101"/>
                </g>
                <circle cx="230.1" cy="72.7" r="57.9" stroke="#231f20" stroke-miterlimit="10" stroke-width="0.52" fill="url(#bebccb86-d6bb-45d1-9620-35c8bd9ee058)"/>
              </g>
              <g>
                <path d="M119.9,32.8c1.6,0,1.9.1,2,.3l.4.2h0a.9.9,0,0,1,.7.3l.4.3h0l1.1.7,1.2.7c.2.1.4.3.6.3l.7.3a.8.8,0,0,1,.8.7c.4.5.4.7.4,1.6a3.2,3.2,0,0,1-1.3,2.6c-1.1,1.1-.5.5-.5,1.5a7.2,7.2,0,0,1-.8,3.2l-.4.6a6.5,6.5,0,0,0-.8,2.7,2.1,2.1,0,0,0,.1,1.1c.3.9.2,1.3-.3,1.4a4.6,4.6,0,0,0-1.7,1.7c-.1.1,0,.4.2.5a35.5,35.5,0,0,0,4.5,2.3l1,.4a26.2,26.2,0,0,0,5.6.9h1.5l.6.6c.5.6.6.6,2.2.8h.4c.4,0,.6-.1,1.3-.5s2.1-.9,6.7-.9,4.7,0,5.4-1a37.8,37.8,0,0,1,3.9-4.1c1.5-1.1,1.7-1.2,2.6-1.2h.1a2.3,2.3,0,0,1,1.6.6c1.2.7,1.6,1.1,1.8,1.6a3.6,3.6,0,0,0,.4.9c.3.4.3.6.3,1.3a1.7,1.7,0,0,1-1.5,1.8,2.6,2.6,0,0,0-1.1.7,13.1,13.1,0,0,1-6,2.1c-.5,0-.9.2-2.4,1l-2,1.1-1.4.8-1.6.9-1.4.6c-1.1.4-1.1.4-4.9.4h-3.8l-.5.4a3,3,0,0,0-.8.8c-.2.5-.4.6-2.1.6a3.7,3.7,0,0,0-1.8.2l-1,.3-1.3.3a12.4,12.4,0,0,1-2.7.3h-1.9l-.3.8a4.3,4.3,0,0,0-.5,1.6,4,4,0,0,1-.3,1.5l-.3,1.8a8.8,8.8,0,0,1-.2,1.6,1.6,1.6,0,0,0-.3.9,19.8,19.8,0,0,1-1.5,4.7l-.2.7c0,.1-.2.3-.3.5l-.3.6-.2.4c-.1,0-.3.4-.6.9a9,9,0,0,0-.8,2.8,10.5,10.5,0,0,1-.6,2.4l-.3,1.3a3.6,3.6,0,0,1-.2,1,24.2,24.2,0,0,0-.2,3.8,15.7,15.7,0,0,1-.4,4.3c-.3.8-.3.8-.1,1.2a5.4,5.4,0,0,0,1.8,1.1l.9.4.8.3h0l.7.4.6.4h0l.9.8,1.1,1c.1,0,.2.3.4.5l.5.5,1.2,1.5,1.3,1.5.8,1,.8,1.1,1,1.4.9,1.2a2.2,2.2,0,0,1,.7,1.7c-.1.4.1.9.7,1.4a36.8,36.8,0,0,1,3.9,4c.5.8.5.8.5,2.5a10.9,10.9,0,0,1-1.1,5.9l-.9,2.1a.5.5,0,0,1-.2.4,16.3,16.3,0,0,0-1.1,2.3,7.6,7.6,0,0,1-1.2,1.9l-.3.7-.6,1.2-.9,1.8a4.1,4.1,0,0,1-.7,1.1l-.2.6-.3.7a.9.9,0,0,0-.3.7,1.6,1.6,0,0,1-.4.7l-.2.4-.3.8-.3.7a.8.8,0,0,1-.2.4,1.1,1.1,0,0,0-.3.8l-.4,1.1a5.6,5.6,0,0,0-.4,1.2,2.9,2.9,0,0,1-.2.9l-.3,1c0,.3-.2.8-.2,1a4,4,0,0,0-.3,1.5,8.3,8.3,0,0,1-.4,1.5,20.7,20.7,0,0,0-.3,3.5c-.2,3.5,0,5.9.4,6.8a.9.9,0,0,1,.3.7,7,7,0,0,0,1.1,2.3l.6,1,.3.6h.6c.1,0,.2-.1.3-.4a6.6,6.6,0,0,1,2.1-3.1,5,5,0,0,1,2-1.5l1-.5.9-.2,2.7-.3,1.8.2.8.3a6.6,6.6,0,0,1,3.4,2,8.4,8.4,0,0,1,2.2,3.6,13.3,13.3,0,0,1,.3,2.8,5.7,5.7,0,0,1-.4,2.9,10.8,10.8,0,0,1-.8,1.9,12.8,12.8,0,0,1-2.9,2.8l-.5.3-.5.3-.9.3a8.2,8.2,0,0,1-3.1.3,5.8,5.8,0,0,1-2.3-.2l-1.1-.4-1.1-.5-.6-.5a10.4,10.4,0,0,1-2.1-2.1l-.9-1.2c-.4-.4-.5-.4-1.5-.4h-.2a2.9,2.9,0,0,1-1.8-.3l-.8-.3h0a6.1,6.1,0,0,1-1.9-2,23.7,23.7,0,0,0-2.3-3,37.5,37.5,0,0,0-4.4-3.5,28,28,0,0,1-3.5-2.5.9.9,0,0,1-.5-1,4.4,4.4,0,0,1,2.4-3.6l2.2-1.6.4-.7a3.7,3.7,0,0,0,1-2.3l.4-1.3c.1-.3.2-1,.3-1.4a8.3,8.3,0,0,1,.4-1.5,8.2,8.2,0,0,0-.1-3.5,28.3,28.3,0,0,1,.2-6.5c.1-.6.2-1.7.3-2.3a27.1,27.1,0,0,1,.9-4.1,2.4,2.4,0,0,0,.2-.8c0-.1,0-.2.1-.2l.2-.3a16.5,16.5,0,0,1,1.8-4.1,9.1,9.1,0,0,1,2-2.4c.5-.5.5-.6.5-1s-.6-.8-1.9-.9h-.7a.9.9,0,0,0-.7.3l-.5.7-.4.6-.5.8a11.7,11.7,0,0,1-1.7,3.1l-.3.3-.7-.3-.9-.4-.5-.3-1.1-.7-.9-.7h0l-.3-.3c-.7-1.2-3.5-3.5-4.2-3.5h0a4.7,4.7,0,0,0-1,1l-1.2,1.4c-.2.3-.4.5-.4.6l-1.7,2.2c-.1,0-.3.3-.6.7a20,20,0,0,1-2.7,3.1l-.6.6a.9.9,0,0,1-.7.3,1.3,1.3,0,0,1-1-.4h-.7l-.9.7-.9.7h-.3l-.5.3-1.4.7-1.2.6a5.6,5.6,0,0,1-1.7.9l-.6.2-.4.2-3.1,1.3-1.2.6-.5.2-.6.3a.7.7,0,0,0-.6.3l-.4.3-2.4,1.2-1.9,1.1a24.8,24.8,0,0,0-4.9,3l-1.1.9a14.8,14.8,0,0,0-3.9,4L68.7,153a4.7,4.7,0,0,0-1.6,2.7,24,24,0,0,0-1.2,5.3c-.1.4-.3,1.5-.5,2.5s-.6,2.6-1.2,2.7h-1c-.7-.1-1-.4-2.3-3l-.3-.8-.3-1.1a15.8,15.8,0,0,1-.4-6.5c.1-1.2.1-1.4-.2-2l-.3-.8a4.3,4.3,0,0,0-.2-1.1,19.4,19.4,0,0,1-.3-4.8c.4-1,2.4-1.6,5.4-1.8l2.5-.2a2,2,0,0,1,1.1-.3c.4-.1.7-.3,1.9-1.6a83.8,83.8,0,0,1,7.3-7.3l1.3-1.2a15.1,15.1,0,0,1,2.3-2.1l.7-.5a13.4,13.4,0,0,1,5.8-2.3,2.5,2.5,0,0,0,1.9-.9c.5-.8.4-.9-.4-2a13.7,13.7,0,0,1-1.5-2.1l-1.1-2a1.5,1.5,0,0,1-.2-1.8c.2-.4,1.8-2.3,2.4-3l.6-.7.9-1.3,1.5-2.4.4-.9a7.7,7.7,0,0,0,.7-1.6,1.1,1.1,0,0,1,.3-.8c.2-.5.2-.5,0-1.3l-.4-1.1a2.1,2.1,0,0,1-.5-1.3,1.1,1.1,0,0,0-.3-.8,3.6,3.6,0,0,1,0-2.5,5.6,5.6,0,0,0,.4-1.2,1.7,1.7,0,0,1,.4-1.2.8.8,0,0,0,.2-.5.5.5,0,0,1,.2-.4c.1,0,.2-.2.3-.5a5.7,5.7,0,0,1,1.2-1.8c.8-.9,1.1-1.3,1.1-1.6l.3-.9c.1-.4.2-1,.3-1.5a3.6,3.6,0,0,1,.2-1.1l.3-1.2a5.6,5.6,0,0,1,.4-1.2,35.2,35.2,0,0,0,.4-5.6,19.1,19.1,0,0,0-.6-3.3l-.2-1.5a5.8,5.8,0,0,0-.4-1.9c-.2-.5-.2-1-.2-4.9s0-4.5.2-4.9a2.8,2.8,0,0,0,.3-1.3c.1-1.1.4-.9-2.6-1.2-1.2-.2-3.5-.2-5.3-.3h-.8c-2.3,0-2.5.1-3,.3l-.9.4-.6.4L80.6,67l-1.3,1-.9.6-.5.2-.7.3-1.3.6-1.5.6-.8.3-.4.2-.8.4-.9.4-.8.3-1.1.3a.9.9,0,0,1-.6.3l-.8.3-1.2.5a19.8,19.8,0,0,0-3.8,2,4.4,4.4,0,0,0-1.1,2.4,36.2,36.2,0,0,1-1.3,3.5,6.1,6.1,0,0,1-1.2,1.6c-1.1,1.2-2.1,1.8-2.9,1.8A2.5,2.5,0,0,1,55,83.5l-.6-.5c-1.7-.5-2-1.2-1.6-4a9.2,9.2,0,0,1,1-3.2,8,8,0,0,1,2.3-2.2l.6-.3a10.6,10.6,0,0,1,2.5-.9,4.7,4.7,0,0,0,2.6-1.1,49.9,49.9,0,0,1,5.7-4.6,19.9,19.9,0,0,1,3.3-2.4,3.9,3.9,0,0,0,1-.8l.9-.6,1.8-1.3,2-1.2a30.6,30.6,0,0,1,4.9-2.2l1.5-.4c.8-.2,1-.4,1.1-1.1l.4-1,.4-.6c0-.1.6-.2,1.3-.2A30,30,0,0,0,92,53.4l2.1-.8a18.4,18.4,0,0,1,6.9-1.7h6.2c.8,0,.9-.2,1.6-.8a8,8,0,0,0,1.5-2.1c.7-1.3.7-1.6.3-2.5a9.3,9.3,0,0,1-.4-5.2c.6-2.5,1.1-3.7,2.2-4.8a7,7,0,0,1,2.6-1.9l1.3-.6c.3-.2.8-.2,2.7-.3Z" fill="#010101"/>
                <circle cx="107.6" cy="65.5" r="57.9" stroke="#231f20" stroke-miterlimit="10" stroke-width="0.52" fill="url(#b2494715-d7cd-4ad9-b8bb-abf3256e688c)"/>
              </g>
            </g>
          </g>
        </g>
      </g>
    </g>
    <g>
      <g>
        <path d="M33.2,19.1a1.6,1.6,0,0,1-.5,1.1l-5.1,5.1-5.4-3.1V19.1a1.6,1.6,0,1,1,3.2,0h0V23l5-5a1.6,1.6,0,0,1,2.1-.2l.2.2a1.6,1.6,0,0,1,.5,1.1" fill="#272361"/>
        <path d="M31.6,33.8H31l-.6-.3-5-5.1v3.9a1.6,1.6,0,0,1-3.2,0v-3L27.6,26l5.1,5.1a1.6,1.6,0,0,1-.1,2.3,1.5,1.5,0,0,1-1,.4" fill="#272361"/>
        <path d="M27.4,25.6c0-.1,0-.1-.1-.2h-.1l-1.3-.8-3.7-2.2-3.1-1.8a.4.4,0,0,0-.5.2c-.1,0-.1.1-.1.2v9.4c0,.2.2.3.4.3h.2l3.1-1.8,5-2.9c.1,0,.1,0,.1-.1h.1Zm-1.2.1c-.1.1-.1.2-.2.2l-3.9,2.3-2.4,1.4h-.4V22a.3.3,0,0,1,.3-.3c.1,0,.1,0,.1.1h0l2.4,1.4L26,25.4Z" fill="#272361"/>
        <path d="M25.1,25.7c0,.1-.1.1-.1.2l-3,1.7-1.8,1c-.1.1-.2,0-.3-.1h0V22.9l.2-.2h.1L22,23.8l3,1.7h.1" fill="#272361"/>
      </g>
      <g>
        <path d="M59.8,25.5a.2.2,0,0,0-.2-.2h0L55.2,23l-2.8-1.3c-.2-.1-.5,0-.5.2v7.5c0,.2.3.3.5.2l2.7-1.4,4.4-2.4.2-.2h.1Zm-1.1.1c0,.1-.1.1-.1.2l-3.4,1.8L53,28.7c-.1.1-.3,0-.3-.2V22.7c0-.1.1-.2.3-.2h0l2.1,1.1,3.5,1.8c.1,0,.1,0,.1.1Z" fill="#272361"/>
        <path d="M57.7,25.6h-.1L55.1,27l-1.6.8h-.3V23.4h.3l1.6.8,2.6,1.3c.1,0,.1,0,.1.1h0" fill="#272361"/>
        <path d="M36.5,21.8h3.9a3,3,0,0,1,3.3,2.6c0,1.6-1.4,2.7-3.3,2.7h-2v2.5H36.6Zm3.7,3.7c.9-.1,1.6-.5,1.6-1.2a1.2,1.2,0,0,0-1.5-1h-2v2.2Z" fill="#272361"/>
        <path d="M51,28.1v1.5H44.8V21.9h1.9v6.2Z" fill="#272361"/>
        <path d="M61.8,26.6l-3.5-4.9h2.2l2.2,3.4,2.2-3.5H67l-3.3,5v2.8H61.8Z" fill="#272361"/>
        <path d="M68.2,22.1h1v4.3l4.3-4.3h1.3l-3.6,3.6,3.9,4.2H74l-3.4-3.6-1.3,1.4V30h-1Z" fill="#272361"/>
        <path d="M75.7,25.9a4.2,4.2,0,0,1,4.4-4h0a4.2,4.2,0,0,1,4.5,3.9h0a4.5,4.5,0,0,1-8.9.1Zm7.9-.1a3.3,3.3,0,0,0-3.5-3.1h0a3.3,3.3,0,0,0-3.4,3.2h0a3.4,3.4,0,0,0,3.5,3.2A3.5,3.5,0,0,0,83.6,25.8Z" fill="#272361"/>
        <path d="M85.9,28.7l.6-.7a4.1,4.1,0,0,0,2.8,1.1c1.4,0,2-.7,2-1.4s-.8-1.1-2.3-1.4-2.9-.8-2.9-2.2,1.2-2.2,2.9-2.2a4.1,4.1,0,0,1,3,1l-.6.7a3.8,3.8,0,0,0-2.5-.9c-1,0-1.8.6-1.8,1.3s.9,1.1,2.3,1.4,2.9.9,2.9,2.2-1,2.3-3,2.3A4.7,4.7,0,0,1,85.9,28.7Z" fill="#272361"/>
        <path d="M94.1,22.1h1l3.3,5.4,3.1-5.5h1v7.8h-1V23.9l-3.2,5.5L95.1,24v5.9h-1Z" fill="#272361"/>
        <path d="M104.4,25.9a4.5,4.5,0,0,1,8.9-.1,4.5,4.5,0,0,1-8.9.1Zm7.9-.1a3.3,3.3,0,0,0-3.5-3.1h0a3.3,3.3,0,0,0-3.4,3.2h0a3.4,3.4,0,0,0,3.5,3.2A3.5,3.5,0,0,0,112.3,25.8Z" fill="#272361"/>
        <path d="M114.5,28.7l.7-.7a4.1,4.1,0,0,0,2.8,1.1c1.3,0,2-.7,2-1.4s-.8-1.1-2.3-1.4-2.9-.8-2.9-2.2,1.2-2.2,2.9-2.2a4.1,4.1,0,0,1,3,1l-.6.7a3.8,3.8,0,0,0-2.5-.9c-1,0-1.8.6-1.8,1.3s.9,1.1,2.3,1.4,2.9.9,2.9,2.2-1,2.3-3,2.3A5,5,0,0,1,114.5,28.7Z" fill="#272361"/>
      </g>
    </g>
    <rect x="214.1" y="18.1" width="120.9" height="15.14" fill="#272361"/>
    <path d="M98.6,99.2H242.4a7,7,0,0,1,7,7h0a7,7,0,0,1-7,7H98.6a7,7,0,0,1-7-7h0A7,7,0,0,1,98.6,99.2Z" fill="#f6eb16"/>
    <path d="M98.6,126.2H242.4a7,7,0,0,1,7,7h0a7,7,0,0,1-7,7H98.6a7,7,0,0,1-7-7h0A7,7,0,0,1,98.6,126.2Z" fill="#f6eb16"/>
    <rect x="123.4" y="153.2" width="88.2" height="12.37" rx="6" fill="#ed2224"/>
    <path d="M162.4,183.1a.7.7,0,0,0,.6-.2.9.9,0,0,0,.3-.7.9.9,0,0,0-.3-.6l-.6-.3a.9.9,0,0,0-.7.3,1.4,1.4,0,0,0-.2.6,1.9,1.9,0,0,0,.2.7A.8.8,0,0,0,162.4,183.1Zm0,4.6a15,15,0,0,1-2.7-2.9,3.9,3.9,0,0,1-1-2.5,3.6,3.6,0,0,1,3.5-3.7h.2a3.5,3.5,0,0,1,2.5,1,3.2,3.2,0,0,1,1.1,2.7,4.5,4.5,0,0,1-.9,2.5,15,15,0,0,1-2.7,2.9Z" fill="#f6eb16"/>
    <g>
      <g>
        <circle cx="196.5" cy="325.2" r="3" fill="#f6eb16"/>
        <circle cx="185.1" cy="325.2" r="3" fill="#f6eb16"/>
      </g>
      <g>
        <circle cx="173.2" cy="325.2" r="3" fill="#f6eb16"/>
        <circle cx="161.8" cy="325.2" r="3" fill="#f6eb16"/>
      </g>
      <g>
        <circle cx="149.9" cy="325.2" r="3" fill="#f6eb16"/>
        <circle cx="138.5" cy="325.2" r="3" fill="#f6eb16"/>
      </g>
    </g>
    <g>
      <circle cx="55.9" cy="257" r="3.3" fill="#f6eb16"/>
      <circle cx="185.4" cy="257" r="3.3" fill="#f6eb16"/>
    </g>
  </g>
</svg>
