<svg xmlns="http://www.w3.org/2000/svg" xmlns:xlink="http://www.w3.org/1999/xlink" width="335" height="335">
  <defs>
    <radialGradient id="b" cx="-26.6" cy="323.1" r="72.6" fx="-26.6" fy="323.1" gradientTransform="matrix(1 0 0 -1 0 335)" gradientUnits="userSpaceOnUse">
      <stop offset="0" stop-color="#fff"/>
      <stop offset="1" stop-color="#fff" stop-opacity="0"/>
    </radialGradient>
    <radialGradient id="a" cx="376.1" cy="1416.4" r="62.2" fx="376.1" fy="1416.4" gradientTransform="matrix(3.9 0 0 -.4 -1508.9 583.6)" gradientUnits="userSpaceOnUse">
      <stop offset="0" stop-color="#fff"/>
      <stop offset="0" stop-color="#fff"/>
      <stop offset="1" stop-color="#fff" stop-opacity="0"/>
    </radialGradient>
    <radialGradient xlink:href="#a" id="d" cx="283.4" cy="-65.9" r="62.2" fx="283.4" fy="-65.9" gradientTransform="rotate(45 562.97 -1361.3) scale(3.9 -.4)"/>
    <radialGradient xlink:href="#a" id="e" cx="325.3" cy="-1753.6" r="62.2" fx="325.3" fy="-1753.6" gradientTransform="matrix(0 3.9 .4 0 681.2 -1270.1)"/>
    <radialGradient xlink:href="#a" id="f" cx="337.5" cy="-1082.2" r="23.5" fx="337.5" fy="-1082.2" gradientTransform="rotate(71 1125.28 -974.94) scale(5 -.4)"/>
    <radialGradient xlink:href="#a" id="g" cx="502.5" cy="1848.4" r="23.5" fx="502.5" fy="1848.4" gradientTransform="rotate(-32.8 2528.12 3934.53) scale(5 -.4)"/>
    <radialGradient xlink:href="#b" id="j" cx="328.4" fx="328.4"/>
    <radialGradient xlink:href="#a" id="k" cx="466.2" fx="466.2"/>
    <radialGradient xlink:href="#a" id="l" cx="347.1" cy="556.1" r="62.2" fx="347.1" fy="556.1" gradientTransform="rotate(45 562.97 -1361.3) scale(3.9 -.4)"/>
    <radialGradient xlink:href="#a" id="m" cx="325.3" cy="-874" r="62.2" fx="325.3" fy="-874" gradientTransform="matrix(0 3.9 .4 0 681.2 -1270.1)"/>
    <radialGradient xlink:href="#a" id="n" cx="360.7" cy="-250.8" r="23.5" fx="360.7" fy="-250.8" gradientTransform="rotate(71 1125.28 -974.94) scale(5 -.4)"/>
    <radialGradient xlink:href="#a" id="o" cx="562.3" cy="1371.7" r="23.5" fx="562.3" fy="1371.7" gradientTransform="rotate(-32.8 2528.12 3934.53) scale(5 -.4)"/>
    <linearGradient id="h" x1="406.4" x2="112.2" y1="286.7" y2="139.9" gradientUnits="userSpaceOnUse">
      <stop offset="0" stop-color="#90e8ff"/>
      <stop offset=".7" stop-color="#5aa7ff"/>
      <stop offset="1" stop-color="#2686ff"/>
    </linearGradient>
    <linearGradient id="p" x1="355.4" x2="77.7" y1="71.3" y2="213.4" gradientTransform="matrix(1 0 0 -1 0 335)" gradientUnits="userSpaceOnUse">
      <stop offset="0" stop-color="#90e8ff"/>
      <stop offset=".4" stop-color="#5aa7ff"/>
      <stop offset="1" stop-color="#2686ff"/>
    </linearGradient>
    <clipPath id="c">
      <path fill="none" d="M-20 0v335h-335V0z"/>
    </clipPath>
    <clipPath id="i">
      <path fill="none" d="M335 0v335H0V0z"/>
    </clipPath>
  </defs>
  <g data-name="Layer 1">
    <g clip-path="url(#c)">
      <circle cx="-26.6" cy="11.9" r="72.6" fill="url(#b)"/>
      <ellipse cx="-26.6" cy="11.9" fill="url(#a)" rx="286.3" ry="29.3"/>
      <path fill="url(#d)" d="M175.8 214.3C164.4 225.7 64.4 144.4-47.4 32.6-159.2-79.2-240.5-179.1-229.1-190.5-217.6-202-117.7-120.6-5.9-8.8 105.9 103 187.3 202.9 175.8 214.3Z"/>
      <ellipse cx="-26.6" cy="11.9" fill="url(#e)" rx="29.3" ry="286.3"/>
      <path fill="url(#f)" d="M18.1 141.3C12.3 143.3-12.4 87-37 15.5c-24.8-71.4-40-131-34.3-133 5.8-2 30.5 54.3 55.1 125.8 24.8 71.4 40.1 131 34.3 133Z"/>
      <path fill="url(#g)" d="M88.4-62.3c3.3 5.1-45.5 42.5-109 83.5s-117.7 70-121 64.9c-3.3-5.1 45.5-42.5 109-83.5 63.6-41 117.7-70 121-64.9Z"/>
    </g>
    <path fill="url(#h)" d="M0 0h335v335H0z"/>
    <path fill="url(#h)" d="M0 0h335v335H0z" opacity=".8"/>
    <g clip-path="url(#i)">
      <circle cx="328.4" cy="11.9" r="72.6" fill="url(#j)"/>
      <ellipse cx="328.4" cy="11.9" fill="url(#k)" rx="286.3" ry="29.3"/>
      <path fill="url(#l)" d="M530.8 214.3c-11.4 11.4-111.4-69.9-223.2-181.7C195.9-79.2 114.5-179.1 126-190.5c11.4-11.4 111.4 69.9 223.2 181.7C461 103 542.3 202.9 530.9 214.3Z"/>
      <ellipse cx="328.4" cy="11.9" fill="url(#m)" rx="29.3" ry="286.3"/>
      <path fill="url(#n)" d="M373.1 141.3c-5.8 2-30.5-54.3-55.1-125.8-24.7-71.5-40-131-34.2-133 5.8-2 30.5 54.3 55.1 125.8 24.7 71.5 40 131 34.2 133Z"/>
      <path fill="url(#o)" d="M443.4-62.3c3.3 5.1-45.5 42.5-109 83.5s-117.7 70-121 64.9c-3.3-5.1 45.5-42.5 109-83.5s117.7-70 121-64.9Z"/>
    </g>
    <path fill="url(#p)" d="M0 0h335v335H0z" opacity=".8"/>
    <g fill="#fff" data-name="PRINT">
      <path d="M29.6 13.9c0 .5-.2 1-.6 1.4l-6.3 6.3-6.8-3.9v-3.8c0-1.1.9-2 2-2s2 .9 2 2v4.9l6.3-6.3c.8-.8 2.1-.8 2.8 0 .4.4.6.9.6 1.4ZM29 31.7c-.4.4-.9.6-1.4.6s-.5 0-.8-.2c-.2-.1-.5-.3-.6-.4l-2.1-2.1-4.1-4.1v4.9c0 1.1-.9 2-2 2s-2-.9-2-2v-3.8l6.8-3.9 4.2 4.2 2.1 2.1c.8.8.8 2.1 0 2.8ZM22.4 22s0-.2-.2-.2l-1.7-1-4.6-2.6L12 16c-.2-.1-.5 0-.6.2v11.9c0 .3.2.5.5.5h.2l3.9-2.2 6.3-3.6s0-.1.1-.2v-.3Zm-9.6-4.7 3 1.7 4.9 2.8s.1 0 .1.1v.3s0 .2-.2.2l-4.9 2.8-3 1.7c-.2 0-.4 0-.5-.1v-9.3c0-.2.2-.3.3-.3h.2Z"/>
      <path d="M19.5 22.2s0 .1-.1.2l-3.7 2.1-2.3 1.3H13v-6.9c0-.1.1-.3.3-.3h.1l2.3 1.3 3.7 2.1s.1 0 .1.2v.1Zm43-.6-5.6-2.8-3.4-1.7c-.2-.1-.4 0-.5.2v9.5c.1.2.3.4.6.4h.4l3.2-1.8 2-1.1 3.5-1.9s.2-.1.2-.2V22s-.1-.2-.2-.2Zm-5.6 2.8-2.6 1.4c-.2 0-.3 0-.4-.1v-7.3c0-.2 0-.3.2-.3h.1l2.7 1.3 1 .5 3.4 1.7s.1 0 .2.2v.2s0 .1-.1.1l-4.3 2.3Z"/>
      <path d="m60.1 22-.1.1-3.2 1.7-2 1.1h-.3v-5.4c0-.1 0-.2.2-.2l2 1 3.3 1.6.1.1v.1Zm-21.6-4.8h-4.9v9.7H36v-3.2h2.5c2.3 0 4.1-1.4 4-3.4 0-1.9-1.8-3.2-4.1-3.2Zm-.2 4.6H36v-2.7h2.3c1.1 0 1.9.5 1.9 1.3s-.8 1.4-1.9 1.4ZM51.8 27l-7.7.1-.2-9.7h2.4l.1 7.8 5.3-.1.1 1.9zm15.7-3.7.1 3.5h-2.4v-3.5l-4.3-6.1 2.7-.1 2.7 4.2 2.8-4.2 2.6-.1-4.2 6.3zm14.4 3.9-1.6.1-4.1-4.5-1.7 1.6v2.9h-1.2l-.1-9.6h1.2l.1 5.3 5.4-5.4h1.6L77 22.1l4.9 5.1zm6.1-9.9c-3 0-5.5 2.3-5.5 5.1 0 2.7 2.6 5 5.6 4.9 3 0 5.5-2.4 5.5-5.1 0-2.7-2.6-5-5.6-4.9Zm.4 9c-2.4.2-4.4-1.6-4.6-3.9a4.27 4.27 0 0 1 8.5-.1 4.2 4.2 0 0 1-3.9 4Zm14.8-1.8c0 1.5-1.2 2.8-3.8 2.8-1.6 0-3.1-.5-4.3-1.5l.8-.9c1 .9 2.2 1.4 3.5 1.4 1.7 0 2.5-.9 2.5-1.7 0-1-1-1.4-2.9-1.8-2.2-.4-3.5-1-3.6-2.7 0-1.5 1.5-2.8 3.6-2.8 1.4 0 2.7.4 3.8 1.3l-.7.9c-.9-.8-2-1.2-3.1-1.2-1.3 0-2.3.8-2.3 1.7 0 1 1.1 1.3 2.9 1.7 2.1.4 3.5 1.1 3.6 2.8Zm12.8 2.7h-1.2l-.1-7.3-3.9 6.8-4.1-6.7.1 7.3-1.3.1-.1-9.7h1.3l4 6.7 4-6.8h1.2l.1 9.6zm7.7-9.9c-3 0-5.5 2.3-5.5 5.1 0 2.7 2.6 5 5.6 4.9 3 0 5.5-2.4 5.5-5.1 0-2.7-2.6-5-5.6-4.9Zm.4 9c-2.4.2-4.4-1.6-4.6-3.9a4.27 4.27 0 0 1 8.5-.1 4.2 4.2 0 0 1-3.9 4Zm14.8-1.8c0 1.5-1.3 2.8-3.8 2.8-1.5 0-2.9-.4-4.1-1.3l-.2-.2.8-.9c.2.2.3.3.5.4.9.6 1.9 1 3 .9 1.7 0 2.5-.9 2.5-1.7 0-.8-.6-1.2-1.6-1.5-.3-.1-.7-.2-1.2-.3h-.2c-2.2-.4-3.5-1-3.6-2.7 0-1.5 1.5-2.8 3.6-2.8 1.4 0 2.7.4 3.8 1.3l-.7.9c-.9-.8-2-1.2-3.1-1.2-1.3 0-2.3.8-2.3 1.7 0 1 1.1 1.3 2.9 1.7.4 0 .8.2 1.1.3.4.1.7.2 1 .4.9.4 1.5 1.1 1.5 2.1Z"/>
    </g>
    <path fill="#fff" d="M167.5 150.2c-3.4 0-6.1 2.7-6.1 6.1s.4 2.6 1.2 3.6l4.9 8.5 4.9-8.5a6.06 6.06 0 0 0-4.9-9.7Zm0 8.8c-1.5 0-2.7-1.2-2.7-2.7s1.2-2.7 2.7-2.7 2.7 1.2 2.7 2.7-1.2 2.7-2.7 2.7Z"/>
    <path fill="none" d="M129.6 335H-.4v-12.3c30.4 2 60.7 7.2 91 9.6 12.8 1.3 26.2 2 39 2.7Zm205.8-88.5V335H129.6c10.8 0 21.5 0 32.2-.7 10.8 0 20.8-2 31.6-3.4 9.4-1.3 18.1-4.7 26.9-7.4 10.8-4 20.8-9.4 31.6-15.5 7.4-4.7 14.1-9.4 21.5-14.8 11.4-9.4 22.2-17.5 32.9-26.9 4.7-4.7 10.1-8.7 16.1-12.8 4.3-2.7 8.5-5 12.9-7.2Z"/>
    <path fill="#1b1464" d="M0 282.8h335v35.9H0z"/>
    <path fill="#ffa403" d="M133.4 291.6h91.1v17.9h-91.1z"/>
    <path fill="none" stroke="#ffa403" stroke-miterlimit="10" stroke-width="2" d="M224.5 289.2H315v23.1h-90.5z"/>
    <path fill="#0a61bf" d="M341 127.8h-6.1l-4.3-3.1v-.3l10.9.3-.5 3.1z"/>
    <path fill="#0d4c84" d="m341.5 124.8-.4 2.8h-6.2l-4.3-3.2.8-1 10.1 1.4z"/>
    <path fill="#0d4c84" d="m332.4 123.2.3.8-.2-.7h.7l.2.7-.2-.7h.6l.2.7-.2-.7h.6l.2.7-.2-.7h.6l.2.7-.2-.7h.6l.2.7-.2-.7h.6l.2.7h.1l-.3-.7h.6l.2.7h.1l-.3-.7h.6l.2.7h.1l-.2-.7h.5l.2.7h.1l-.2-.7h.5l.2.7h.1l-.2-.7h.5l.2.7h.1l-.2-.7h1.2v-.1h-8.1z"/>
    <path fill="#0a61bf" d="M341.8 126.5h-6.1l-4.3-3.1h10.9l-.5 3.1z"/>
    <path fill="#0a61bf" d="m333.7 122.8.2.8h.1l-.2-.8h.6l.2.8.1-.1-.2-.7h.5l.2.8.1-.1-.2-.7h.5l.2.8.1-.1-.2-.7h.5l.2.8.1-.1-.2-.7h.5l.2.8.1-.1-.2-.7h.5l.2.8.1-.1-.2-.7h.5l.2.8.1-.1-.2-.7h.5l.2.8.1-.1-.2-.7h.5l.2.8.1-.1-.2-.7h.5l.2.8.1-.1-.2-.7h.5l.2.8.1-.1-.2-.7h1.2-8z"/>
    <path fill="#a8a38e" d="m294.8 153.1-.4-.2c-1.3 1.5-.2 3.3-.2 3.3-.5-1.4.6-3 .6-3Z"/>
    <path fill="#991314" d="M292.1 142.3c1 1.7 1.6 4.9.9 6.8-1.3-1.7-2.6-2.6-3.2-5-1.6 4 4.6 5.7 4.7 9.5 0 .3.2.4.5.4.2 0 .3-.2.3-.5-.4-1.9-1.3-3.3-1.1-5.4.1-1.4.1-4.1-1.1-5-.5-.5-.5-.7-.9-.8Z"/>
    <path fill="#ff6473" d="M295 154h-.2s-.1 0-.2-.2v-1.3c0-.1-.1-.3-.2-.4-.2-.3-.4-.5-.6-.8-.4-.5-1-1.1-1.5-1.6l-.8-.8c-.3-.3-.5-.6-.7-.8-.2-.3-.4-.6-.5-.9v-2.6 2.6c.1.3.3.6.5.8s.4.5.7.8c.2.3.5.5.8.8l.8.8c.2.3.5.5.7.8s.4.6.6.8c0 .1.2.3.2.4v1.5c0 .1.2.2.3.2Zm-1.9-5.2v-3c0-.2 0-.4-.1-.6v-1.7c-.1-.2-.2-.3-.2-.4s0-.2-.1-.3c0-.2-.1-.3-.1-.3l.2.3s0 .2.2.3c0 .1.1.3.2.4s.1.3.2.5c0 .2.1.4.2.6v.6c0 .2 0 .4.1.6v3.1c0 .2-.1.3-.1.3v-.3Z"/>
    <path fill="#82490b" d="M288.9 140.7c.7-.1 1.4-.5 2.1-.6.9 1.5 2.7 3.6 2.4 5.5-.6.6-1.6 1.1-2.3 1.3-1.6-.8-1.9-4.7-2.1-6.2Z"/>
    <path fill="#f7941e" d="M288.9 140.7c.2 1.1.4 3.4 1.1 4.9l-.7-5c-.1 0-.3 0-.4.1Z"/>
    <path fill="#f7941e" d="m288.9 140.7.6 1.2 1.5-.3v-1.5c-.7 0-1.4.5-2.1.6Z"/>
    <path fill="#82490b" d="m289.3 140.6.4.9 1.1-.2v-1.1c-.5 0-1 .3-1.5.4Z"/>
    <path fill="#e5dfc5" d="M294.9 152.9s0-.2.1 0c.4.5.6 1 .6 1.6 0 1.1-.5 1.4-1.5 1.7.9-.9.9-1.9.8-3.2Z"/>
    <path fill="#5f5755" d="M288.3 138.1c.4 1 1.2 1.9 1.6 2.9.1.3.7.3.7 0 0-1.2-.6-2.4-1.1-3.5-.4-.8-.5-1.7-.1-2.6 1.1-2.3 3.6 1.4 4.3 2.2 5.2 6.2 11 12.6 19 14.9 3.6 1 9.5 1.6 10.9-3 .3-.9.3-1.9-.1-2.8-.5-1-1.3-1.7-2.1-2.5-1.8-1.6-3.6-3.3-5.4-4.9 1.2-.5 2.6 0 3.8.5 1.2.5 2.4 1.2 3.7 1.5 1 .2 2.2.2 3.1-.3 1-.5 1.4-1.6 1.7-2.6.1-.5.3-1.2.7-1.5.4-.3.9-.4 1.4-.4 1 0 2.1.3 3.1 0 .5-.2.9-.6 1.1-1 .3-.6.3-1.2.5-1.7.4-1.2 1.8-1.2 2.9-1 1.9.4 4.6 2 6.1-.1.2-.3-.2-.6-.5-.4-.9 1-2.5.7-3.6.3-1.2-.4-2.4-.8-3.6-.7-1.2.2-1.9.9-2.2 2-.1.6-.2 1.2-.7 1.6-.4.3-.9.3-1.3.3-1 0-2.1-.3-3.1 0-1.1.4-1.4 1.5-1.7 2.6-.3 1.1-.8 1.9-2 2.1-1.1.2-2.2-.1-3.2-.5-2.2-.9-4.9-2.7-7.2-1.1-.2.2-.3.5 0 .7 2.1 2 4.3 4 6.3 6 .8.8 1.5 1.6 1.4 2.8 0 1-.7 2-1.5 2.6-1.7 1.3-4.2 1.2-6.2.8-1.9-.3-3.8-1-5.5-1.8-3.6-1.8-6.8-4.4-9.6-7.2-1.5-1.5-2.8-3-4.2-4.6-.7-.8-1.3-1.6-1.9-2.4-.6-.8-1.2-1.6-2.2-2.1-.8-.4-1.9-.5-2.7.1-.7.5-1.1 1.4-1.2 2.3-.1 1 .1 1.8.5 2.7Z"/>
    <path fill="#e5d6d3" d="M333.6 134.8v-.4c0-.2 0-.5.2-.8v-.4c0-.2.1-.3.2-.5v-.2s.2-.1.2-.2c0 0 0-.1.2-.2l.2-.2c.1-.1.2-.2.4-.3.1 0 .2-.1.4-.2h.8-.4s-.2 0-.3.1h-.1l-.2.1c-.1 0-.2.2-.3.3l-.1.2s0 .1-.1.2c0 0 0 .1-.1.2v.2c-.1.1-.2.3-.2.4v.4c0 .1 0 .3-.1.4s0 .2-.2.4c0 .1-.1.2-.2.3v.1h-.1Zm-8.2 5.1h.3l.2-.1c.1 0 .2-.1.3-.2.1 0 .2-.2.3-.3 0 0 0-.1.2-.2 0 0 0-.1.1-.2 0 0 0-.2.1-.2 0 0 0-.2.1-.3 0-.2.1-.4.2-.5 0-.2.1-.4.2-.6 0-.2.1-.4.2-.5 0-.2.2-.3.3-.5l.2-.2.2-.2.3-.3h.4l-.2.1h-.1l-.1.1-.3.3s0 .1-.1.2c0 0 0 .1-.1.2 0 .1-.1.3-.2.5 0 .2-.1.3-.2.5l-.2.6c0 .2-.1.4-.2.6 0 .2-.2.4-.3.5 0 0-.1.2-.2.2l-.2.2-.2.2c-.1.1-.1 0-.2.1-.1 0-.3.1-.4.2h-.5Zm-4.1 10.3s.2-.2.3-.4c.1-.2.3-.4.4-.6s.3-.6.4-.9v-1.2c0-.4-.3-.8-.5-1.2s-.6-.7-1-1c-.4-.3-.7-.7-1.1-1-.4-.3-.7-.7-1.1-1-.4-.3-.7-.7-1-1-.3-.3-.7-.6-1-.9-.3-.3-.6-.6-.9-.8l-.7-.7-.3-.3h-.1c0-.2 0-.2-.1-.3v-.3s0-.2.1-.2v.6l.1.1.3.3c.2.2.5.4.8.7s.6.5.9.8c.3.3.7.6 1 .9.3.3.7.6 1.1 1s.7.7 1.1 1c.4.3.7.7 1.1 1 .3.3.7.7 1 1.1.3.4.5.8.6 1.3v.8c0 .2 0 .4-.1.6-.1.4-.3.7-.5.9-.2.3-.4.5-.5.6-.2.2-.3.3-.4.3l-.1.1.2-.2Zm-31.5-9.3s0-.2-.2-.3c0-.1-.2-.3-.3-.5-.1-.2-.3-.4-.4-.6s-.3-.5-.5-.7-.3-.6-.4-.9c-.1-.3-.3-.7-.3-1v-1.7c0-.2 0-.4.1-.5.1-.3.3-.7.5-1 .1-.1.2-.3.3-.4l.2-.2h.1c.3-.2.6-.3.9-.3h.8c.3 0 .4 0 .6.2.1 0 .3.1.3.2h.1-.1c-.1 0-.2 0-.3-.1s-.3 0-.6 0h-1.3s-.1 0-.2.2c0 .1-.2.2-.3.4-.2.3-.3.6-.4.9 0 .2 0 .3-.1.5v1.5c0 .2 0 .3.1.5s0 .3.2.5c.1.3.2.6.4.9.1.3.3.5.4.8.3.5.5.9.6 1.2v.5-.1Z"/>
    <path fill="#443c3b" d="M330.2 125.7c.7 1 1.8 1.6 2.8 2 1.4.5 3 .7 4.4 1 .7.1 1.4.3 2.1.6.7.3 1.3.7 2 1.1-.7-.8-2-1.2-3-1.4-1.2-.3-2.5-.5-3.8-.7-1.2-.2-2.4-.6-3.4-1.2-.5-.3-1-.8-1.4-1.3-.2-.4-.4-.9 0-1.3.2-.3.6-.3 1-.3-.4 0-1 0-1.2.5-.2.4 0 1 .3 1.3Z"/>
    <path fill="#333030" d="M306.1 152.3c1.8-3.7 3.3-4 3.3-4l-1.6-1.9c-2.2 2-3.2 4.9-3.2 4.9s0 .8-.1 1.6c.3-.1 1-.4 1.7-.6Zm-3.4 30.1-.3-.8s2.4-1.3 2.5-1.9l.9.7s-1.4 2.1-3.1 2Z"/>
    <path fill="#333030" d="M305.7 178.9c.3 0 .5.2.5.5s-.2.5-.5.5-.5-.2-.5-.5.2-.5.5-.5m0-.7c-.6 0-1.2.5-1.2 1.2s.5 1.2 1.2 1.2 1.2-.5 1.2-1.2-.5-1.2-1.2-1.2Z"/>
    <path fill="#333030" d="M307.4 177.5s-1 .5-1.7.7c-.1.2-.2.3-.2.3l.7.5c.6-.3.9-.9 1.2-1.5Zm-23.4 2.6-1.6-3.2c-.1-.2 0-.5.1-.6.6-.5 1.3-1 1.4-1.2l.8.6c0 .1-.5.5-.9.8-.2.1-.2.4-.1.6l.9 1.9c0 .2.3.3.5.3h.9v.9l-1.5.2c-.2 0-.4 0-.5-.3Z"/>
    <path fill="#655643" d="M311.6 174.8c-.7.7-1.7 1.4-2.7 2-.6.4-1.2.6-1.5.8 0 0-1.7.9-2.2.7 0 0-.7.3-.9.6v.1c-.2.3-1.4 2-2.5 2.2-.2 0-.4.2-.6.3-.8.8-3 3.1-3.4 3.1-.5 0-2.8-.5-4.2-1.3-.2-.1-.4-.1-.6 0h-.3c-.2.2-.4.1-.6 0l-.3-.3c-.2-.1-.4-.2-.6-.1-.5.1-1.5.4-2.1.5-.8.1-2.9-1.3-3.7-3.7 0-.2-.1-.4-.2-.6-.2-.4-.4-1.1-.4-1.7v-.6c-.2-.6-.7-2-1.1-2.3 0 0-.2-.4-.6-1 .8.9 2 2.4 3 4.1 1.5 2.4 2.5 2.5 3.2 3.4.7.9 2.6.7 3.6 1.1s3.7-.3 3.7-.3c4.4-1.4 7.4-7.1 7.4-7.3s.4-.2.9-1.9c.5-1.6-.1-2.8-.7-3.2-.6-.4-1.5-1.6-1.7-2.2-.2-.6.6-2.1.6-2.1h4.9c.3 0 .6 0 .8.2.6.5 1.8 1.4 2.2 2.3 0 0 1.2 1.7 1.4 2.4s.5 3.3-.6 4.5Z"/>
    <path fill="#d39e76" d="M310.9 167.9c-.5-.9-1.6-1.8-2.2-2.3-.2-.2-.5-.3-.8-.2h-2.2c-.7-.2-2.8 0-2.8 0 1.4-2.2 5.5-6.2 5.5-6.2s1 3 1.4 5.6c0 0 .7 2.1 1 3.2Z"/>
    <path fill="#bf4d28" d="m309.1 158.6-.6.5s-1.8 1.7-3.5 3.6c-.7.8-1.4 1.6-1.9 2.3 0 .1-.1.2-.2.3 0 0-.5.9-.6 1.5v.4c0 .2.2.5.4.8.3.4.7.9 1 1.2 0 0 .1.1.2.1.6.4 1.2 1.6.7 3.2s-.9 1.7-.9 1.9-1 2-2.7 3.9c-.7.8-1.5 1.5-2.4 2.1h-.1c-.7.5-1.4.9-2.2 1.1 0 0-2.6.7-3.7.3s-3-.2-3.6-1.1c-.7-.9-1.7-1.1-3.2-3.4-1.1-1.7-2.2-3.2-3-4.1-.7-1.1-1.9-2.7-3.3-3.6-.1 0-.2-.1-.3-.2-2.3-1.2-8.5-3.6-9.5-4.8s-.5 0-1.2-.1h-.6c-.5-.5-.9-1.3-1.2-2.4-.4-2 .6-2.9.6-2.9.4 0 .8 0 1.1-.2 1.2-.3 7.6-.6 9.8-.6.5 0 .9-.3 1.1-.7.2-.3.4-.8.7-1.2.2.9 1 2 1.1 2.2 0 0 0 .2.1.3 0 .2 0 .4.1.6v.3c0 .2.2.4.3.6.1.2.3.4.4.6.3.3.6.6.9 1 .5.6 1.1 1.2 1.4 1.5s.7.9 1 1.4c.4.7 1.2.9 1.9.6.4-.1.7-.3.9-.4.2 0 .4-.2.5-.4 1.4-1.5 2.3-3.9 2.7-5.1.2-.5.1-1.1-.1-1.5l-.2-.4s.2 0 .8-.7c.6-.7.5-3.6.4-3.8 0-.2-.9-.5-1-.5 0-.2 0-.4.1-.6 1.2.2 4.2.8 5.6 1.4.3.1.5.3.7.4s.5-.4.9-.2c0 0 .6-.3 1.2-.3.5 0 1.8-.6 3-.9.4 0 .8-.2 1.1-.2 0 0 1.7-.7 2.5-.7.3 0 .8-.2 1.5-.5-.4 3.1.5 6.2.5 6.2s.1.7.2.7Z"/>
    <path fill="#ffd4b0" d="M326.8 142.2s-3.5 5.8-6.1 8.2c-2.6 2.4-1.7 2.6-3.7 3.3-1.5.5-4.4 1.8-6.5 3-.7.4-1.3.8-1.7 1.2 0 0-.9-3.1-.5-6.2.5-.2 1.1-.5 1.7-.9 1.2-.7 2.6-1.7 4-3.1 3.1-3.1 4.5-3.5 5.4-4.4s5-3.5 5-3.5c1.1 2.1 2.4 2.3 2.4 2.3Z"/>
    <path fill="#7f7f7f" d="M310.5 156.7c-.7.4-1.3.8-1.7 1.2 0 0-.9-3.1-.5-6.2.5-.2 1.1-.5 1.7-.9-.4 1.2-.6 3.1.5 5.9Z" opacity=".4"/>
    <path fill="#ffd4b0" d="M245.3 155.6c.7-.8.3-1.9.3-2-.6-.3-1.4-.4-2.2-.6-.9-.2-2.2-1.3-3.1-2s-.8-1.7-1.2-1.8-.4 1-.4 1c-.7-.3-3.5-3.1-3.9-3.2s-.1.9-.1.9c-.6.2.2 1.2.2 1.2-.6.7 3.7 4 3.7 4-.2 0-1.9-.9-1.9-.9-.4.8 2.1 1.7 2.1 1.7s1.4 1 2.3 1.8 1.2.6 2.5.7c.2 0 .5 0 .8.2.3-.2.4-.5.9-1Zm22.6 9.2c-.8 0-1.7-.2-2.6-.2-1.2 0-2.4-.2-2.9 0-1.4.1-3 .4-3.8 0s-8.5-4.2-9.9-5.2c-.5-.4-1.1-.8-1.8-1.2s1.1 0 1.4-1c.2-.7.2-1.6.1-2.1.7.2 1.3.4 1.9.5 1.4.3 4.9 1.4 6.5 1.9.4.2.9.3 1.3.3.3 0 .6.1 1 .3 1 .4 3.7 1.4 4.3 1.4.3 0 .9 0 1.8.1h2.1s-1.1.9-.6 2.9c.2 1.1.7 1.9 1.2 2.4Z"/>
    <path fill="#7f7f7f" d="M267.9 164.8c-.8 0-1.7-.2-2.6-.2-1-2-.6-3.8 0-5.1h2.1s-1.1.9-.6 2.9c.2 1.1.7 1.9 1.2 2.4Z" opacity=".4"/>
    <path fill="#333030" d="M329 139.9c-.3.4-1.4 1.7-1.7 2.2-.1.2-.3.2-.5 0s-1.3-.2-2.4-2.3v-.4c0-.2 2.8-2 2.9-2.4 0 0-.4 1 .2 1.6s1.5 1 1.5 1v.3Z"/>
    <path fill="#ffd4b0" d="m335.8 131.1-.2-.2h-.2s-1.6 1.3-2.2 1.7c-.1 0-.2.2-.3.3l-.5.8v-.9c0-.3 0-.6.2-.8.3-.4.8-1.2 1.4-1.8.6-.6.5-1.1.3-1.3h-.2c-.3.4-1.1 1.3-1.5 1.7-.5.5-.7 1.2-.8 1.3v-.6c.1-.1.2-.3.3-.4.2-.2.6-.7 1.1-1.5.6-.8.4-1.1.2-1.3h-.4l-1.1 1c.3-.4-.1-1.4-.4-1.1-.2.3-1.3 1.4-1.8 1.9-.1.1-.2.3-.2.5-.1 1-.8 3.6-.8 3.6-.1-.9-.8-.8-1.1-.7-.1 0-.2.2-.1.3.2.5.2 1.7-.1 2.2-.3.6 0 1-.2 1.4 0 0-.4 1 .2 1.6s1.5 1 1.5 1 1.6-.9 2.1-1.4c.5-.4 2.1-3.7 2.4-4.2 0 0 0-.1.1-.2.3-.3 1.4-1.4 1.7-1.8.4-.4.4-.7.4-.9Zm-4.6-.6s0 .1-.1.2v1.1c0 .3 0 .7-.1 1v-2.2l.2-.2c.1-.1.2-.3.3-.4.2-.3.5-.5.7-.7-.2.3-.4.6-.6.8l-.3.4Z"/>
    <path fill="#ad8160" d="M328.9 134v1.2c.2 0 .3 0 .5.1.2 0 .3.2.4.3.1.1.3.3.3.4 0 .2.2.3.2.5 0-.2-.2-.3-.3-.4-.1-.1-.2-.2-.4-.3-.1 0-.3-.2-.4-.3-.1 0-.3-.2-.5-.2V134Z" opacity=".7"/>
    <path fill="#333030" d="M248.3 157c-.3 1.1-1.4 1-1.4 1-.8-.5-1.8-1.1-2.5-1.3.3-.2.4-.5.9-1 .7-.8.3-1.9.3-2h.1c.4.2 1.5.7 2.8 1.1 0 .5 0 1.4-.1 2.1Z"/>
    <path fill="#ad8160" d="M238.7 150.2c0 .3.1.6.3.8.1.3.3.5.5.7h.2l.2.3.3.3c.2.2.4.5.5.8 0 .1.1.3.2.4v.3c.1.3.3.5.5.7.2.2.4.3.7.3.1 0 .3 0 .4-.1.1 0 .3-.2.4-.2 0 .1-.2.2-.3.3-.1 0-.3.2-.4.2h-.5c-.2 0-.3-.1-.4-.2-.1-.1-.2-.2-.3-.4 0-.1-.2-.3-.2-.4v-.4c0-.1-.1-.3-.2-.4-.1-.3-.3-.5-.5-.7 0-.1-.2-.2-.3-.3 0 0-.1 0-.2-.1h-.1v-.2c-.2-.2-.4-.5-.5-.8 0-.3-.1-.6-.1-.9Zm-4-2.3c.4.3.7.6 1 .9.3.3.7.6 1 .9l1 .9c.3.3.7.6 1 .9-.4-.2-.7-.5-1.1-.8-.3-.3-.7-.6-1-.9-.3-.3-.7-.6-1-.9-.3-.3-.6-.6-.9-1Zm.2 1.3c.3.2.6.5.9.7.3.3.6.5.9.8.3.3.6.5.9.8.3.3.6.5.9.8l-1-.7c-.3-.2-.6-.5-.9-.8-.3-.3-.6-.5-.9-.8-.3-.3-.6-.6-.9-.8Z" opacity=".7"/>
    <path fill="#7f7f7f" d="M269.8 165s-.5 0-1.2-.1c-1.1-1.5-.8-3.7-.8-3.7.2 2.5 2.1 3.8 2.1 3.8Zm31.9 11.2c0 .7 0 1.4-.3 2.1l-.3.3c-.6.7-1.3 1.4-2.1 1.9.5-.4 1.5-1.5 1.6-3.7.1-3.1 1.1-2.1 1.1-.6Zm-9.4 5.9c.4 0-1.6-.9-4.1-3.1-2.5-2.1.2.8 1 1.4s2 1.4 3.1 1.6Zm10.8-17.1c0-.1 2.1-4.1 2.8-6-.2 1-.6 2.6-.9 3.7-.7.8-1.4 1.6-1.9 2.3Zm1.2-12.1s-1.5 1.9-2.3 4.2c0 0 .1-2.5 1.2-4 .4 0 .8-.2 1.1-.2Zm-5.5 1.4s-1.4 1.2-1.3 3.3c0 0-.6-1.6.4-2.7 0 0-2 .9-3 2.7 0 0 0-1.5 3.1-3s.5-.4.9-.2ZM281.4 165s-.5-2.8.1-4.7c0 .2.2.4.3.6-.2.8-.4 2.2-.4 4.1Zm1.3-2.1s1 6.1 2.3 7.7c0 0-1.3-1.3-2.1-4.7 0 0 0 3 .5 4.4 0 0-1.5-5-.7-7.5Zm14.1-5.1s-1 6.7.5 10.6c0 0-2.8-5.5-.5-10.6Zm5.3.8c-.2 1.5-.5 2.9-.9 4.3v.5l-.3.5-.3 1.1-.6 2.1c0 .2-.1.4-.2.5 0 .2-.2.4-.2.5-.1.3-.2.6-.4 1l-.3 1c0 .2 0 .3-.1.5v.7s.1 0 .2-.1c0-.2.1-.2.2-.3l.2-.2.2-.2c.5-.6.9-1.1 1.3-1.8-.3.7-.7 1.3-1.1 1.9-.2.3-.4.6-.7.9l-.2.2h-.3v-.5c0-.4 0-.7.1-1.1 0-.4.2-.7.3-1.1.1-.4.2-.7.4-1 0-.2.2-.3.2-.5s.1-.3.2-.5l.6-2.1.6-2.1c.4-1.4.8-2.8 1.2-4.3Zm6.8 18.2c-.6.4-1.2.6-1.5.8 0 0-1.7.9-2.2.7 0 0-.7.3-.9.6.3-.5 1.5-2 1.7-3v-.2c.2-1.1.1 1.2-.6 1.9.2-.1 3.3-2.8 2.5-6.6-.8-3.9-5.3-3.9-5.3-3.9s4-.5 5.5 2.8c1.5 3.4-.8 6.7-.8 6.7s4.1-1.8 2.8-6.9c0 0 1.8 3.3-1.3 6.9Zm-.4-9.3c-.9-2-3.5-2.2-3.8-2.2h2.8c.7.8.9 2.1.9 2.1Z" opacity=".4"/>
    <path fill="#333030" d="m299.2 183.9-.6-1c-.3-.4-.1-1 .3-1.3l.7 1.1c.2.4.7.6 1.2.4l3.3-1.3c.2.5 0 1-.5 1.2l-3.2 1.2c-.4.2-.9 0-1.2-.4Z"/>
    <path fill="#e6ac27" d="M282.9 171.6s7.3-.7 10.2-2.2c2.5-1.3 3.5-1.8 3.7-1.9h.2l.7-.3s.8 1.5.9 1.6c0 0-.9 1.2-2.3 1.9-1.5.7-2.9 1.5-3.7 1.6-.8.1-3.2.5-3.4.7-.2.2-4.1 1-4.8.3-.7-.7-1.6-1.7-1.6-1.7Z"/>
    <path fill="#7f7f7f" d="M297.2 154.1c0 .7-1.7.1-2.8.1-1.5 0-2.1 4.5-.5 8.4 1.7 3.9.5 10.9-2.9 10.3s-2.5-4-4.9-5.4c-1.7-.9-2.6-3.5-3-5.1.5.6 1.1 1.2 1.4 1.5.4.4.7.9 1 1.4.4.7 1.2.9 1.9.6.4-.1.7-.3.9-.4.2 0 .4-.2.5-.4 1.4-1.5 2.3-3.9 2.7-5.1.2-.5.1-1.1-.1-1.5l-.2-.4s.2 0 .8-.7c.6-.7.5-3.6.4-3.8 0-.2-.9-.5-1-.5 0-.2 0-.4.1-.6 1.2.2 4.2.8 5.6 1.4Z" opacity=".4"/>
    <path fill="#80bca3" d="M298.1 143.3c-2.9 1-3.7 4.5-3.7 4.5-.6.3-1.1-.2-1.1-.2.4-2 2-3.6 2.7-4.2.2-.2.4-.2.7-.2.3 0 .8.1 1.4 0Z"/>
    <path fill="#333030" d="M303.8 149.4h-.8l.4.7h-1.8c-.5 0-1 .3-1.5.6-.9.5-1.6 1.3-1.6 1.3l-.5-1.5s-1.2-.5-1.4-1c-.2-.4-2.2-1.8-2.2-1.8v-.3c.2-.7.8-2.1 2-3.2.5-.4 1-.8 1.7-1h.7c1.2 0 1.7 1.8 2 1.9s.6 1 .8 1 2.1 1.6 2.4 2-.2 1.2-.2 1.2Z"/>
    <path fill="#e6ac27" d="M303 149.5h.4c-.3-.4-1.1-1.3-2-1.2-.6 0-1 .4-1.4.8.5 0 1.1-.1 1.5 0 .2 0 .4 0 .6.2.2.2.5.6.7 1.1h.6l-.4-.7Zm-5.7-1.8c-1.1 1.2-2.8-.2-2.8-.2.2-.7.8-2.1 2-3.2.5.6 1.8 2.4.9 3.4Z"/>
    <path fill="#333030" d="M305.8 152.4c-.7.2-1.5.5-1.5.5-.4 0-.7 0-1.1.2-1.3.3-2.6.8-3 .9 0 0 1.5-1.7 4.1-2.1h.1c0 .1.6 0 1 0 .2.3.4.4.5.6Zm-6.8 1.8h-.2c-.4-.2-.9.2-.9.2-.1-.1-.4-.3-.7-.4-.7-.3-1.6-.6-2.6-.8.9-.6 3.3-.6 3.3-.6s.6.8 1.1 1.5Z"/>
    <path fill="#80bca3" d="M304.1 149.5h-.3c-.4-.2-.8 0-.8 0l.4.7h-1.8c-.3 0-.6.1-.9.2-1.1.5-2.2 1.6-2.2 1.6l-.6.6s.6.8 1.1 1.5c.2 0 .6-.2 1-.3 0 0 .6-.7 1.8-1.4.6-.3 1.4-.6 2.3-.8h.1c0 .1.6 0 1 0-.4-.5-.9-1.2-1.2-2.3Z"/>
    <path fill="#bf4d28" d="M302.8 150.2h-1.2c-1.4 0-3.1 1.9-3.1 1.9l-.5-1.5s.5-1.1 1.4-1.5c.6-.2 1.6-.3 2.1-.2.2 0 .4 0 .6.2.2.2.5.6.7 1.1Z"/>
    <path fill="#939393" d="M291.5 145.8c.1-.3 0-.6-.2-.7-1.1-.7-3-.9-3.8-1-.3 0-.5.1-.6.4v.3c.9.6 3.2 2.4 4.2 5.8 0 0 .2-1.1.2-1.4 0 0 .3.5.4 1.3.8-.9.5-2.1.5-2.1s0-.2.3-.7c.2-.4-.4-.9-.8-1.2-.3-.2-.4-.5-.2-.8Z"/>
    <path fill="#333030" d="M291.5 153.3c-.2 0-.5 0-.5.3 0 .2-.2 2.6-.2 2.6 0-1.1-.6-1.8-1-2.1-.2-.2-.4-.5-.4-.8v-.5c0-.5-.2-1.1-.6-1.4-.2-.2-.4-.3-.5-.4-.7-.4-1.4-.4-2.1-.3-1.2 0-2.6 1.9-2.6 1.9s-.5-.8-1.2-1.1-1.3.5-1.8 1c0 0 0 .1-.1.2-.3.7.1 2.2.1 2.2l.3 1.3c-.3-.2-1.6-1.4-1.9-3 0 0 .4.4.6.4 0 0-1.1-1.6-.1-3.2s2.8-3.9 2.9-4.4c0 0 .3.6.3.9 0 0 1-1.7 1-2.1 0 0 1.8.7 2.1 1.7 0 0-.1-1 0-1.1 0 0 .4.7.7.8 0 0 .1-1.2 0-1.5 0 0 3.5 1.6 4.9 6.1 0 0 .2-1.1.2-1.4 0 0 .9 1.4.2 3.9Z"/>
    <path fill="#e5b48f" d="m280.6 156 .7 3.3c0-.1 0-.3-.1-.3-.1-.3-1.4-2.2-1.1-2.9 0 0 0-.4.5 0Z"/>
    <path fill="#ffd4b0" d="M292.1 157.5c-.6.7-.8.7-.8.7l.2.4c.3.5.3 1 .1 1.5-.3 1.1-1.1 3-2.2 4.4-.2.2-.4.5-.6.7-.2.2-.3.3-.5.4-.2.1-.6.3-.9.4-.7.3-1.5 0-1.9-.6-.3-.5-.6-1-1-1.4-.2-.2-.3-.4-.6-.6-.6-.6-1.3-1.4-1.8-1.9-.4-.4-.7-1-.8-1.5 0-.2 0-.4-.1-.6l-.7-3.2c0-.1 0 0 0 0v-.7h-.2v-.7c-.1 0-.6-1.9-.1-2.4s1.1-1.3 1.8-1 1.2 1.1 1.2 1.1 1-1.3 2-1.8c.2 0 .4-.2.6-.2 1 0 1.9 0 2.7.7.4.4.6.9.6 1.4v.5c0 .3.1.6.4.8a3 3 0 0 1 1 2.1s.2-2.3.2-2.6c0-.2.3-.3.5-.3 0 0 .9.3 1 .5 0 .2.2 3.1-.4 3.8Z"/>
    <path fill="#7f7f7f" d="M292.1 157.5c-.6.7-.8.7-.8.7l.2.4c.3.5.3 1 .1 1.5-.3 1.1-1.1 3-2.2 4.4 1.3-2.3.3-3.8-.1-4.6-.4-.7-.5-.9.1-1.7.7-.8-.3-2.3-1.3-5.1-1-2.7-2.8-2.6-2.8-2.6.2-.1.4-.2.6-.2 1 0 1.9 0 2.7.7.4.4.6.9.6 1.4v.5c0 .3.1.6.4.8a3 3 0 0 1 1 2.1s.2-2.3.2-2.6c0-.2.3-.3.5-.3 0 0 .9.3 1 .5 0 .2.2 3.1-.4 3.8Zm-8.1 5.9c-.6-.6-1.3-1.4-1.8-1.9-.4-.4-.7-1-.8-1.5 0-.2 0-.4-.1-.6l-.7-3.2c.3 1.3.9 3.5 1.4 3.7.7.2.9.5.9 1.2 0 .6.4 1.4 1.1 2.4Z" opacity=".2"/>
    <path fill="#7f7f7f" d="M284.7 160.5s.4.9.9.9 1-1.4 1-1.4-.8.3-1 .4c-.2 0-.7.2-.7.1h-.2Z" opacity=".4"/>
    <path fill="#7f7f7f" d="M292 154.8v1.5s-.2 0-.4.2-.4.5-.4 1c0 0-.3-1.4-.2-2.1.1-.7.2-1.5.5-1.5s.5 0 .5 1Z" opacity=".8"/>
    <path fill="#7f7f7f" d="M291.6 156.4c-.2.2-.4.5-.4 1 0 0-.3-1.4-.2-2.1.3.1.7.4.6 1.1Z" opacity=".8"/>
    <path fill="#fff" d="M285.9 157.1v.5c0 .1 0 .2.2.2h.8c.2 0 .4 0 .5-.2.3-.2.7-.6.6-1 0-.4-.6-.5-1-.5-.1 0-.3 0-.4.1l-.6.5s-.1.2-.1.3Zm-2.1.9v-.2c0-.2 0-.4-.2-.5-.1-.1-1-.5-1.4-.3-.4.2-.5.7-.5.7s0 .4.5.5c.4.1 1 .2 1.5-.2Z"/>
    <path fill="#333030" d="M285.2 156.1s0-1 .9-1.7 1.4-.5 1.6-.3c0 0-.6-.3-.9.3s-1.2 1.6-1.6 1.7Zm-1.4.2s-.6-1.6-2.5-1.1c0 0 .8 0 1 .3.1.2 1.3.9 1.6.8Z"/>
    <path fill="#ad8160" d="m284.4 157.9.3.6v1.6h.2c0 .1 0 .1.1.1h.2c.2-.2.3-.3.5-.4 0 0 .2-.1.3-.2 0 0 .1 0 .2-.1v-.1s-.1-.2-.2-.2h.4s.1 0 .2.2v.3s0 .2-.1.2c0 0-.1.1-.2.1 0 0-.2.1-.3.2-.2.1-.4.3-.6.4-.1 0-.3.1-.5 0h-.3v-.2h-.1s0-.1-.1-.2v-.4c0-.2 0-.4-.1-.7v-1.3Z"/>
    <path fill="#fff" d="M287.8 161c-.4.5-1.1 1-1.5 1.1-.3.1-.7 0-1 0-.1 0-.3-.1-.3-.3v-.3c.3 0 .7.2.9.1.3-.1 1-.8 1.5-.8h.5Z"/>
    <path fill="#ad8160" d="M286.1 164h1.5s.1 0 .2-.1l.2-.2v.2s-.1.2-.2.3c0 0-.2.1-.3.2h-.9c-.2 0-.4-.2-.5-.3Z"/>
    <path fill="#ad8160" d="M286.1 158h1.3c.1 0 .3 0 .4-.1 0 .2-.2.3-.3.4-.2 0-.3.1-.5.1h-.5c-.2 0-.3-.1-.4-.2Zm-4.3.2c.1 0 .3 0 .4.1h1.2s-.1 0-.2.1h-.6c-.1 0-.3 0-.4-.2-.1 0-.2-.2-.3-.4Z" opacity=".4"/>
    <path fill="#fff" d="M288.5 162.1v.1c0 .2 0 .3-.2.5-.3.3-.9 1-1.2 1h-.7c-.2 0-.4 0-.5-.2-.2-.1-.4-.3-.6-.5 0 0 .1-.2.2-.3 0-.1.2-.2.3-.1s-.2.3-.1.4c.1 0 .9.7 1.5.2s.6-.7.7-.9c0 0 .1-.1.2-.1h.3Z"/>
    <path fill="#191919" d="M288.5 161.6c0-.2-.4-.5-.7-.7-.4.5-1.1 1-1.5 1.1-.3.1-.7 0-1 0-.1 0-.3-.1-.3-.3v-.3c-.2 0-.4 0-.4.3v.4c0 .1.4.5.7.8 0 0 .1-.2.2-.3 0-.1.2-.2.3-.1s-.2.3-.1.4c.1 0 .9.7 1.5.2s.6-.7.7-.9c0 0 .1-.1.2-.1h.3v-.5Z"/>
    <path fill="#a04747" d="M285.7 162.9c.1 0 .9.7 1.5.2.3-.3.5-.5.6-.7 0-.4-.9-.4-1.3-.2-.4.1-.7.4-.7.4s-.2.2-.1.3Z"/>
    <path fill="#ad8160" d="M286.5 159.1c.4.2.8.4 1.2.4h.6c.1 0 .2 0 .3.1h.2l.1.1c.3.3.5.7.6 1.1.1.4 0 .9 0 1.3v-1.3c0-.2-.2-.4-.3-.6-.1-.2-.2-.3-.4-.5l-.1-.1h-.1s-.2 0-.3-.1h-.6c-.4 0-.8-.3-1.2-.6Zm-2.3.4c-.2.3-.4.7-.5 1 0 .2-.1.4-.1.5v.5c.1.3.4.6.6.9.2.3.5.6.8.8-.3-.2-.6-.5-.9-.7l-.4-.4c-.1-.2-.2-.3-.3-.5v-.6c0-.2 0-.4.2-.6.2-.4.4-.7.6-1Z" opacity=".7"/>
    <path fill="#191919" d="M287.3 156.8c.1.2 0 .5-.3.7-.3.1-.6 0-.7-.2s0-.5.3-.7.6 0 .7.2Z"/>
    <path fill="#fff" d="M287.1 156.8c0 .1 0 .2-.1.3h-.3c0-.1 0-.2.1-.3h.3Z"/>
    <path fill="#191919" d="M282.3 157.3c-.1.2 0 .5.3.7.3.1.6 0 .7-.2s0-.5-.3-.7c-.3-.1-.6 0-.7.2Z"/>
    <path fill="#fff" d="M282.8 157.3s0 .2.1.3h.3s0-.2-.1-.3h-.3Z"/>
    <path fill="#191919" d="M285.9 157.6v-.7c0-.1.2-.2.2-.3 0 0 .2-.2.3-.2 0 0 .2-.1.3-.2h1.1-1s-.2.1-.3.2c0 0-.2.1-.3.2 0 0-.2.1-.2.2v.6Zm-2 .2c0-.1 0-.2-.1-.3v-.1h-.1c-.2 0-.4-.2-.6-.2h-.6c-.2 0-.4.2-.4.4 0-.1 0-.2.1-.3 0 0 .2-.2.3-.2h.8c.2 0 .4.2.6.3v.5Z"/>
    <path fill="#7f7f7f" d="M291.5 153.3c-.2 0-.5 0-.5.3 0 .2-.2 2.6-.2 2.6 0-1.1-.6-1.8-1-2.1-.2-.2-.4-.5-.4-.8v-.5c0-.5-.2-1.1-.6-1.4-.2-.2-.4-.3-.5-.4s.6-3.9-2-6.2c0 0 3.5 1.6 4.9 6.1 0 0 .2-1.1.2-1.4 0 0 .9 1.4.2 3.9Zm-11.2 1.3.3 1.3c-.3-.2-1.6-1.4-1.9-3 0 0 .4.4.6.4 0 0-1.1-1.6-.1-3.2s2.8-3.9 2.9-4.4c.2.9-1.3 3.4-1.9 4.4-.6 1 0 2.2 0 2.3-.3.7.1 2.2.1 2.2Z" opacity=".4"/>
    <path fill="#7f7f7f" d="M271.3 167.3Zm0-.1.1.1h-.1Zm.2.1Z"/>
    <path fill="#7f7f7f" d="M304.7 172.8c-.5 1.6-.9 1.7-.9 1.9s-.9 1.9-2.5 3.7l-.3.3c-.6.7-1.3 1.4-2.1 1.9 0 0-.2.1-.2.2h-.1c-.7.5-1.4.9-2.2 1.1 0 0-2.6.7-3.7.3s-3-.2-3.6-1.1c-.7-.9-1.7-1.1-3.2-3.4-1.1-1.7-2.2-3.2-3-4.1-.7-1.1-1.9-2.7-3.3-3.6.7.2 1.3.5 1.9.8.7.4 1.3 1 1.9 1.5 1.1 1 2.1 2.2 2.9 3.4.4.5.8 1.1 1.5 1.1s1.1-.7 1.5-1.2c1.3-1.4 3.6-1.4 5.5-1.1 1.9.3 3.9.8 5.8.2 2.1-.7 3.5-3 3.2-5.2 0 0 .1.1.2.1.6.4 1.2 1.6.7 3.2Z" opacity=".2"/>
    <path fill="#549678" d="M304.1 151.8c-.9.1-1.7.4-2.3.8l-1.1-2.1c.3-.1.6-.2.9-.2h1.8l.7 1.6Z"/>
  </g>
</svg>
