<?xml version="1.0" encoding="UTF-8"?>
<svg id="uuid-dfff21d0-f2de-4d45-9851-8611935eb2ed" data-name="Layer 1" xmlns="http://www.w3.org/2000/svg" width="335" height="335" xmlns:xlink="http://www.w3.org/1999/xlink" viewBox="0 0 335 335">
  <defs>
    <radialGradient id="uuid-cc7dd34e-39e1-4516-a4ba-5eab92699f04" cx="167.5" cy="289.3" fx="167.5" fy="289.3" r="122.77" gradientTransform="matrix(1, 0, 0, 1, 0, 0)" gradientUnits="userSpaceOnUse">
      <stop offset="0" stop-color="#135474"/>
      <stop offset="1" stop-color="#154172"/>
    </radialGradient>
    <linearGradient id="uuid-6eba7f47-8a27-4bbb-a1ad-623b5e46203d" x1="166.62" y1="22.67" x2="168.53" y2="238.1" gradientTransform="matrix(1, 0, 0, 1, 0, 0)" gradientUnits="userSpaceOnUse">
      <stop offset="0" stop-color="#3994a7"/>
      <stop offset="1" stop-color="#0b3158"/>
    </linearGradient>
    <linearGradient id="uuid-16d8122a-8306-4e09-b1e9-15c3d108033e" x1="165.14" y1="198.47" x2="165.78" y2="238.2" gradientTransform="matrix(1, 0, 0, 1, 0, 0)" gradientUnits="userSpaceOnUse">
      <stop offset="0" stop-color="#c3cfdb"/>
      <stop offset="1" stop-color="#a4b2c4"/>
    </linearGradient>
    <linearGradient id="uuid-c4f10060-9ee7-408d-a2ce-f4b6daa84c09" x1="92.86" y1="289.3" x2="235.9" y2="289.3" xlink:href="#uuid-16d8122a-8306-4e09-b1e9-15c3d108033e"/>
    <linearGradient id="uuid-0685ea88-7ee7-4eb3-ac32-942faa58c68b" x1="230.76" y1="198.66" x2="230.76" y2="238.4" xlink:href="#uuid-16d8122a-8306-4e09-b1e9-15c3d108033e"/>
    <linearGradient id="uuid-a3837075-c965-48cd-9ac2-df55b8e34696" x1="210.9" y1="289.3" x2="335" y2="289.3" xlink:href="#uuid-16d8122a-8306-4e09-b1e9-15c3d108033e"/>
    <linearGradient id="uuid-1c33579b-5344-462f-8bae-ba08f2fa0460" x1="100.05" y1="198.66" x2="100.06" y2="238.4" xlink:href="#uuid-16d8122a-8306-4e09-b1e9-15c3d108033e"/>
    <linearGradient id="uuid-271463b4-c47f-4be3-8e43-ba03033463a0" x1="0" y1="289.3" x2="119.92" y2="289.3" xlink:href="#uuid-16d8122a-8306-4e09-b1e9-15c3d108033e"/>
    <linearGradient id="uuid-d4d1fcf8-8ec8-49f3-b683-b9e820e1d651" x1="167.5" y1="259.93" x2="167.5" y2="277.61" gradientTransform="matrix(1, 0, 0, 1, 0, 0)" gradientUnits="userSpaceOnUse">
      <stop offset="0" stop-color="#fff"/>
      <stop offset=".4" stop-color="#f2f2f2"/>
      <stop offset="1" stop-color="#e4e4e4"/>
    </linearGradient>
  </defs>
  <g>
    <rect y="243.6" width="335" height="91.4" fill="url(#uuid-cc7dd34e-39e1-4516-a4ba-5eab92699f04)"/>
    <rect width="335" height="243.6" fill="url(#uuid-6eba7f47-8a27-4bbb-a1ad-623b5e46203d)"/>
  </g>
  <g>
    <rect x="145.01" y="122.31" width="39.74" height="121.3" fill="url(#uuid-16d8122a-8306-4e09-b1e9-15c3d108033e)"/>
    <path d="M235.9,335H92.86c17.39-30.47,34.77-60.93,52.15-91.39,.01,0,.01-.01,.01-.01h39.73c17.06,30.47,34.11,60.93,51.15,91.4Z" fill="url(#uuid-c4f10060-9ee7-408d-a2ce-f4b6daa84c09)"/>
    <polygon points="266.87 185.1 194.65 185.1 210.89 156.97 230.76 122.55 250.63 156.97 266.87 185.1" fill="#c3cfdb"/>
    <rect x="210.89" y="185.1" width="39.74" height="58.51" fill="#c3cfdb"/>
    <rect x="210.89" y="185.1" width="39.74" height="58.51" fill="url(#uuid-0685ea88-7ee7-4eb3-ac32-942faa58c68b)"/>
    <path d="M335,295.9v39.1h-47.61c-25.5-30.46-50.99-60.92-76.48-91.39h39.72c28.13,17.42,56.25,34.86,84.37,52.29Z" fill="url(#uuid-a3837075-c965-48cd-9ac2-df55b8e34696)"/>
    <rect x="80.18" y="185.1" width="39.74" height="58.51" fill="url(#uuid-1c33579b-5344-462f-8bae-ba08f2fa0460)"/>
    <path d="M119.92,243.6h-.01c-24.71,30.48-49.43,60.94-74.16,91.4H0v-44.88c26.73-15.51,53.46-31.01,80.18-46.51h39.74Z" fill="url(#uuid-271463b4-c47f-4be3-8e43-ba03033463a0)"/>
    <polygon points="200.47 122.31 128.25 122.31 164.36 59.76 200.47 122.31" fill="#c3cfdb"/>
    <polygon points="136.16 185.1 63.94 185.1 80.18 156.97 100.05 122.55 119.92 156.97 136.16 185.1" fill="#c3cfdb"/>
  </g>
  <g opacity=".9">
    <rect y="243.6" width="335" height="91.4" fill="url(#uuid-cc7dd34e-39e1-4516-a4ba-5eab92699f04)"/>
    <rect width="335" height="243.6" fill="url(#uuid-6eba7f47-8a27-4bbb-a1ad-623b5e46203d)"/>
  </g>
  <path d="M166.12,143.75c-1.96,0-3.55,1.59-3.55,3.55,0,.78,.25,1.51,.69,2.1h0l2.86,4.96,2.86-4.96c.43-.59,.69-1.31,.69-2.1,0-1.96-1.59-3.55-3.55-3.55Zm0,5.17c-.86,0-1.56-.7-1.56-1.56s.7-1.56,1.56-1.56,1.56,.7,1.56,1.56-.7,1.56-1.56,1.56Z" fill="#fff"/>
  <rect x="120.83" y="258.06" width="93.34" height="24.62" rx="12.31" ry="12.31" fill="url(#uuid-d4d1fcf8-8ec8-49f3-b683-b9e820e1d651)"/>
  <g id="uuid-d810b10a-dd0c-4fcf-bd99-5a4242156dce" data-name="PRINT">
    <g>
      <g>
        <path d="M29.59,13.92c0,.53-.21,1.03-.59,1.4l-6.34,6.34-6.78-3.92v-3.85c0-1.11,.9-2.01,2.01-2.01s2.01,.9,2.01,2.01h0v4.86l6.27-6.27c.78-.78,2.06-.78,2.84,0,.38,.38,.59,.9,.59,1.43h0Z" fill="#fff"/>
        <path d="M28.99,31.68c-.38,.38-.88,.59-1.42,.59-.26,0-.53-.06-.77-.15-.24-.1-.46-.25-.65-.44l-2.13-2.13-4.15-4.14v4.86c0,1.11-.89,2-2,2s-2.01-.89-2.01-2v-3.84l6.8-3.91,4.2,4.2,2.13,2.13c.79,.79,.78,2.06,0,2.83Z" fill="#fff"/>
        <path d="M22.36,21.96c-.03-.09-.09-.19-.18-.24,0,0-.02,0-.03-.02l-1.71-.99-4.57-2.64-3.87-2.23c-.23-.13-.5-.06-.62,.16-.05,.08-.07,.15-.07,.23v11.71c0,.25,.21,.45,.45,.45,.08,0,.16-.02,.23-.06l3.87-2.23,6.28-3.62s.05-.03,.07-.05c.06-.05,.09-.1,.12-.17,.04-.09,.05-.21,.02-.31Zm-9.56-4.72l3,1.74,4.87,2.81c.06,.04,.1,.08,.13,.13h0c.05,.09,.06,.19,.03,.27-.02,.08-.08,.16-.16,.21l-4.87,2.82-3,1.74c-.17,.09-.38,.04-.48-.13-.04-.05-.05-.11-.05-.18v-9.09c0-.2,.15-.35,.35-.35,.07,0,.12,0,.18,.05Z" fill="#fff"/>
        <path d="M19.46,22.16c-.02,.07-.06,.12-.12,.16l-3.66,2.12-2.26,1.3c-.13,.07-.29,.03-.36-.1-.02-.04-.04-.09-.04-.13v-6.84c0-.15,.12-.27,.27-.26,.05,0,.09,.01,.13,.03l2.26,1.31,3.66,2.12c.06,.03,.1,.09,.12,.15,.01,.05,.01,.1,0,.15h0Z" fill="#fff"/>
      </g>
      <g>
        <path d="M62.51,21.63l-5.59-2.81-3.44-1.73c-.2-.11-.44-.04-.54,.15-.03,.06-.05,.11-.06,.17l.11,9.29c.03,.22,.23,.38,.45,.36,.06,0,.11-.03,.16-.06l.22-.11,3.19-1.7,1.96-1.05,3.55-1.89c.08-.05,.15-.12,.18-.22,.03-.07,.03-.14,0-.21-.04-.09-.1-.17-.19-.21Zm-5.59,2.84l-2.64,1.41c-.15,.09-.35,.05-.43-.1-.02-.04-.04-.08-.04-.13l-.09-7.21c.02-.17,.17-.3,.34-.28,.05,0,.08,.02,.13,.04l2.67,1.34,.96,.48,3.38,1.7c.07,.03,.12,.08,.15,.16,0,.05,0,.1,0,.15h0s0,.02-.02,.03c-.02,.07-.07,.11-.12,.14l-4.29,2.28Z" fill="#fff"/>
        <path d="M60.13,22.02c-.02,.05-.06,.1-.11,.12l-3.22,1.72-1.99,1.06c-.11,.07-.26,.03-.32-.08-.02-.03-.03-.06-.03-.09l-.07-5.42c0-.13,.12-.23,.25-.22,.03,0,.07,.01,.1,.03l2.01,1.01,3.26,1.64c.05,.02,.09,.07,.11,.12,.01,.04,.01,.08,0,.12h0Z" fill="#fff"/>
        <path d="M38.51,17.18l-2.14,.03-2.71,.04,.03,2.65,.08,7.02,2.31-.03-.04-3.13,2.54-.04c2.35-.03,4.05-1.4,4.04-3.31-.03-1.91-1.77-3.25-4.11-3.22Zm-.2,4.64l-2.29,.03-.04-2.73,2.3-.03c1.15,0,1.93,.52,1.94,1.34,0,.84-.77,1.38-1.91,1.39Z" fill="#fff"/>
        <polygon points="51.76 26.96 44.06 27.06 43.94 17.39 46.27 17.36 46.37 25.16 51.74 25.08 51.76 26.96" fill="#fff"/>
        <polygon points="67.54 23.27 67.58 26.76 65.24 26.79 65.2 23.3 60.9 17.17 63.6 17.14 66.34 21.35 69.09 17.08 71.68 17.04 67.54 23.27" fill="#fff"/>
        <polygon points="81.91 27.24 80.33 27.26 76.18 22.81 74.5 24.44 74.53 27.34 73.3 27.35 73.19 17.68 74.41 17.67 74.48 23.02 79.88 17.59 81.5 17.58 77.01 22.05 81.91 27.24" fill="#fff"/>
        <path d="M87.98,17.34c-2.98,.04-5.5,2.35-5.47,5.07,.04,2.71,2.59,4.98,5.59,4.95,3-.04,5.49-2.37,5.45-5.09-.03-2.71-2.59-4.97-5.58-4.93Zm.39,8.98c-2.36,.19-4.43-1.57-4.62-3.93,.12-2.13,1.79-3.84,3.92-4.03,2.37-.2,4.44,1.56,4.64,3.92-.12,2.14-1.8,3.87-3.94,4.04Z" fill="#fff"/>
        <path d="M103.18,24.52c.02,1.54-1.25,2.81-3.77,2.83-1.56,.06-3.08-.47-4.26-1.48l.76-.87c.97,.89,2.23,1.38,3.55,1.35,1.67-.02,2.51-.85,2.5-1.72,0-1.03-1.04-1.43-2.93-1.79-2.18-.43-3.55-1.01-3.57-2.69-.02-1.55,1.5-2.78,3.58-2.8,1.39-.04,2.74,.44,3.8,1.33l-.74,.86c-.85-.76-1.96-1.19-3.11-1.2-1.34,.02-2.3,.82-2.29,1.71,0,1,1.08,1.34,2.92,1.71,2.07,.41,3.55,1.06,3.57,2.76Z" fill="#fff"/>
        <polygon points="116.01 27.22 114.79 27.24 114.69 19.94 110.77 26.73 106.69 20.03 106.77 27.34 105.54 27.36 105.43 17.68 106.65 17.67 110.74 24.36 114.67 17.57 115.89 17.56 116.01 27.22" fill="#fff"/>
        <path d="M123.71,17.34c-2.98,.04-5.5,2.35-5.47,5.07,.04,2.71,2.59,4.98,5.59,4.95,3-.04,5.49-2.37,5.45-5.09-.04-2.71-2.59-4.97-5.58-4.93Zm.39,8.98c-2.37,.19-4.43-1.57-4.63-3.93,.13-2.13,1.8-3.85,3.93-4.03,2.36-.2,4.43,1.56,4.64,3.92-.12,2.14-1.8,3.87-3.94,4.04Z" fill="#fff"/>
        <path d="M138.91,24.52c.02,1.54-1.26,2.81-3.77,2.83-1.47,.06-2.91-.42-4.06-1.32-.08-.05-.14-.1-.21-.16l.76-.87c.17,.15,.34,.29,.53,.41,.88,.63,1.94,.96,3.03,.94,1.66-.02,2.51-.85,2.49-1.72,0-.75-.55-1.16-1.58-1.47-.33-.1-.72-.2-1.15-.28-.07,0-.13-.03-.2-.04-2.17-.43-3.55-1.01-3.57-2.69-.02-1.55,1.51-2.78,3.59-2.8,1.38-.04,2.73,.44,3.8,1.33l-.74,.86c-.86-.76-1.96-1.19-3.12-1.2-1.33,.02-2.3,.82-2.29,1.71,.02,1,1.09,1.34,2.93,1.71,.38,.08,.75,.16,1.09,.26,.37,.1,.69,.23,.99,.38,.92,.43,1.48,1.08,1.49,2.12Z" fill="#fff"/>
      </g>
    </g>
  </g>
</svg>