<?xml version="1.0" encoding="UTF-8"?>
<svg id="uuid-e0c75d04-fbde-4daa-83c9-fadb75ffc765" data-name="Layer 1" xmlns="http://www.w3.org/2000/svg" width="335" height="335" xmlns:xlink="http://www.w3.org/1999/xlink" viewBox="0 0 335 335">
  <defs>
    <radialGradient id="uuid-77cc3d8b-147a-4d0c-8e4a-7ee740dd1887" cx="167.5" cy="289.3" fx="167.5" fy="289.3" r="122.8" gradientTransform="matrix(1, 0, 0, 1, 0, 0)" gradientUnits="userSpaceOnUse">
      <stop offset="0" stop-color="#135474"/>
      <stop offset="1" stop-color="#154172"/>
    </radialGradient>
    <linearGradient id="uuid-84482d77-1da7-47ed-9b73-d27209677b38" x1="166.6" y1="22.7" x2="168.5" y2="238.1" gradientTransform="matrix(1, 0, 0, 1, 0, 0)" gradientUnits="userSpaceOnUse">
      <stop offset="0" stop-color="#3994a7"/>
      <stop offset="1" stop-color="#0b3158"/>
    </linearGradient>
    <linearGradient id="uuid-e3c7dbfd-55b8-4344-924e-bf9424c5b677" x1="165.1" y1="198.5" x2="165.8" y2="238.2" gradientTransform="matrix(1, 0, 0, 1, 0, 0)" gradientUnits="userSpaceOnUse">
      <stop offset="0" stop-color="#c3cfdb"/>
      <stop offset="1" stop-color="#a4b2c4"/>
    </linearGradient>
    <linearGradient id="uuid-ee25c438-cb07-4cde-9667-8cd7aa2bd8bb" x1="92.9" y1="289.3" x2="235.9" y2="289.3" xlink:href="#uuid-e3c7dbfd-55b8-4344-924e-bf9424c5b677"/>
    <linearGradient id="uuid-d6eb652d-b220-4b55-bcdd-f6e826e6642b" x1="230.8" y1="198.7" x2="230.8" y2="238.4" xlink:href="#uuid-e3c7dbfd-55b8-4344-924e-bf9424c5b677"/>
    <linearGradient id="uuid-34ad3fa0-d037-4a83-bb71-b2ded56ad57d" x1="210.9" y1="289.3" x2="335" y2="289.3" xlink:href="#uuid-e3c7dbfd-55b8-4344-924e-bf9424c5b677"/>
    <linearGradient id="uuid-95eb7ea8-2cf4-4eb7-bb09-1d55cbe28e3a" x1="100.1" y1="198.7" x2="100.1" y2="238.4" xlink:href="#uuid-e3c7dbfd-55b8-4344-924e-bf9424c5b677"/>
    <linearGradient id="uuid-1eaa6d66-5162-489c-9909-cda2ab092db9" x1="0" y1="289.3" x2="119.9" y2="289.3" xlink:href="#uuid-e3c7dbfd-55b8-4344-924e-bf9424c5b677"/>
    <radialGradient id="uuid-4c111d9e-0692-4c74-8fd0-3e04a3a0bc64" cx="284.2" cy="52.4" fx="284.2" fy="52.4" r="41.4" xlink:href="#uuid-77cc3d8b-147a-4d0c-8e4a-7ee740dd1887"/>
    <linearGradient id="uuid-3906d367-8fe0-4bfe-b41e-e7dcb0558553" x1="167.5" y1="259.9" x2="167.5" y2="277.6" gradientTransform="matrix(1, 0, 0, 1, 0, 0)" gradientUnits="userSpaceOnUse">
      <stop offset="0" stop-color="#fff"/>
      <stop offset=".4" stop-color="#f2f2f2"/>
      <stop offset="1" stop-color="#e4e4e4"/>
    </linearGradient>
  </defs>
  <g>
    <rect y="243.6" width="335" height="91.4" fill="url(#uuid-77cc3d8b-147a-4d0c-8e4a-7ee740dd1887)"/>
    <rect width="335" height="243.6" fill="url(#uuid-84482d77-1da7-47ed-9b73-d27209677b38)"/>
  </g>
  <g>
    <rect x="145" y="122.3" width="39.7" height="121.3" fill="url(#uuid-e3c7dbfd-55b8-4344-924e-bf9424c5b677)"/>
    <path d="M235.9,335H92.9c17.4-30.5,34.8-60.9,52.2-91.4,0,0,0,0,0,0h39.7c17.1,30.5,34.1,60.9,51.2,91.4Z" fill="url(#uuid-ee25c438-cb07-4cde-9667-8cd7aa2bd8bb)"/>
    <polygon points="266.9 185.1 194.7 185.1 210.9 157 230.8 122.5 250.6 157 266.9 185.1" fill="#c3cfdb"/>
    <rect x="210.9" y="185.1" width="39.7" height="58.5" fill="#c3cfdb"/>
    <rect x="210.9" y="185.1" width="39.7" height="58.5" fill="url(#uuid-d6eb652d-b220-4b55-bcdd-f6e826e6642b)"/>
    <path d="M335,295.9v39.1h-47.6c-25.5-30.5-51-60.9-76.5-91.4h39.7c28.1,17.4,56.2,34.9,84.4,52.3Z" fill="url(#uuid-34ad3fa0-d037-4a83-bb71-b2ded56ad57d)"/>
    <rect x="80.2" y="185.1" width="39.7" height="58.5" fill="url(#uuid-95eb7ea8-2cf4-4eb7-bb09-1d55cbe28e3a)"/>
    <path d="M119.9,243.6h0c-24.7,30.5-49.4,60.9-74.2,91.4H0v-44.9c26.7-15.5,53.5-31,80.2-46.5h39.7Z" fill="url(#uuid-1eaa6d66-5162-489c-9909-cda2ab092db9)"/>
    <polygon points="200.5 122.3 128.3 122.3 164.4 59.8 200.5 122.3" fill="#c3cfdb"/>
    <polygon points="136.2 185.1 63.9 185.1 80.2 157 100.1 122.5 119.9 157 136.2 185.1" fill="#c3cfdb"/>
  </g>
  <g opacity=".9">
    <rect y="243.6" width="335" height="91.4" fill="url(#uuid-77cc3d8b-147a-4d0c-8e4a-7ee740dd1887)"/>
    <rect width="335" height="243.6" fill="url(#uuid-84482d77-1da7-47ed-9b73-d27209677b38)"/>
  </g>
  <rect x="240.3" y="8.5" width="87.8" height="87.8" fill="#fff"/>
  <rect x="265" y="1.6" width="38.4" height="101.8" fill="#fff"/>
  <rect x="265" y="1.6" width="38.4" height="101.8" transform="translate(336.6 -231.7) rotate(90)" fill="#fff"/>
  <rect x="242.8" y="11.1" width="82.7" height="82.7" fill="url(#uuid-4c111d9e-0692-4c74-8fd0-3e04a3a0bc64)"/>
  <g>
    <path d="M291.2,76.3v6.1c0,1.5-1.3,2.8-2.8,2.8h-13.7c-1.5,0-2.8-1.3-2.8-2.8v-13.7c0-1.5,1.3-2.8,2.8-2.8h6.2c.4,0,.8,.3,.8,.8h0c0,.5-.3,.8-.8,.8h-5.9c-.9,0-1.7,.8-1.7,1.7v13c0,.9,.8,1.7,1.7,1.7h13c.9,0,1.7-.8,1.7-1.7v-5.8c0-.4,.3-.8,.8-.8h0c.4,0,.8,.3,.8,.8Z" fill="#fff"/>
    <g>
      <path d="M290.8,64.5h0c1.8,0,3.2,1.4,3.2,3.2v.5h-6.4v-.5c0-1.8,1.4-3.2,3.2-3.2Z" transform="translate(132.1 -186.2) rotate(45)" fill="#fff"/>
      <path d="M291,70.7l-6.8,6.8h-.3l-4.4,.6c-.2,0-.5-.2-.5-.5l.6-4.4v-.3l6.8-6.8,4.5,4.5Z" fill="#fff"/>
    </g>
  </g>
  <path d="M166.1,143.7c-2,0-3.5,1.6-3.5,3.5s.3,1.5,.7,2.1h0l2.9,5,2.9-5c.4-.6,.7-1.3,.7-2.1,0-2-1.6-3.5-3.5-3.5Zm0,5.2c-.9,0-1.6-.7-1.6-1.6s.7-1.6,1.6-1.6,1.6,.7,1.6,1.6-.7,1.6-1.6,1.6Z" fill="#fff"/>
  <rect x="120.8" y="258.1" width="93.3" height="24.6" rx="12.3" ry="12.3" fill="url(#uuid-3906d367-8fe0-4bfe-b41e-e7dcb0558553)"/>
  <g id="uuid-0f2cea38-9a0d-4708-9835-f7bd0c41bd50" data-name="PRINT">
    <g>
      <g>
        <path d="M29.6,13.9c0,.5-.2,1-.6,1.4l-6.3,6.3-6.8-3.9v-3.8c0-1.1,.9-2,2-2s2,.9,2,2h0v4.9l6.3-6.3c.8-.8,2.1-.8,2.8,0,.4,.4,.6,.9,.6,1.4h0Z" fill="#fff"/>
        <path d="M29,31.7c-.4,.4-.9,.6-1.4,.6s-.5,0-.8-.2c-.2-.1-.5-.3-.6-.4l-2.1-2.1-4.1-4.1v4.9c0,1.1-.9,2-2,2s-2-.9-2-2v-3.8l6.8-3.9,4.2,4.2,2.1,2.1c.8,.8,.8,2.1,0,2.8Z" fill="#fff"/>
        <path d="M22.4,22c0,0,0-.2-.2-.2,0,0,0,0,0,0l-1.7-1-4.6-2.6-3.9-2.2c-.2-.1-.5,0-.6,.2,0,0,0,.2,0,.2v11.7c0,.3,.2,.5,.5,.5s.2,0,.2,0l3.9-2.2,6.3-3.6s0,0,0,0c0,0,0-.1,.1-.2,0,0,0-.2,0-.3Zm-9.6-4.7l3,1.7,4.9,2.8c0,0,.1,0,.1,.1h0c0,0,0,.2,0,.3,0,0,0,.2-.2,.2l-4.9,2.8-3,1.7c-.2,0-.4,0-.5-.1,0,0,0-.1,0-.2v-9.1c0-.2,.2-.3,.3-.3s.1,0,.2,0Z" fill="#fff"/>
        <path d="M19.5,22.2c0,0,0,.1-.1,.2l-3.7,2.1-2.3,1.3c-.1,0-.3,0-.4,0,0,0,0,0,0-.1v-6.8c0-.1,.1-.3,.3-.3,0,0,0,0,.1,0l2.3,1.3,3.7,2.1c0,0,.1,0,.1,.2,0,0,0,0,0,.1h0Z" fill="#fff"/>
      </g>
      <g>
        <path d="M62.5,21.6l-5.6-2.8-3.4-1.7c-.2-.1-.4,0-.5,.2,0,0,0,.1,0,.2v9.3c.1,.2,.3,.4,.6,.4,0,0,.1,0,.2,0h.2l3.2-1.8,2-1.1,3.5-1.9c0,0,.2-.1,.2-.2,0,0,0-.1,0-.2,0,0-.1-.2-.2-.2Zm-5.6,2.8l-2.6,1.4c-.2,0-.3,0-.4-.1,0,0,0,0,0-.1v-7.2c0-.2,0-.3,.2-.3,0,0,0,0,.1,0l2.7,1.3,1,.5,3.4,1.7c0,0,.1,0,.2,.2,0,0,0,.1,0,.2h0s0,0,0,0c0,0,0,.1-.1,.1l-4.3,2.3Z" fill="#fff"/>
        <path d="M60.1,22c0,0,0,0-.1,.1l-3.2,1.7-2,1.1c-.1,0-.3,0-.3,0,0,0,0,0,0,0v-5.4c0-.1,0-.2,.2-.2,0,0,0,0,0,0l2,1,3.3,1.6c0,0,0,0,.1,.1,0,0,0,0,0,.1h0Z" fill="#fff"/>
        <path d="M38.5,17.2h-4.9v9.7h2.4v-3.2h2.5c2.3,0,4.1-1.4,4-3.4,0-1.9-1.8-3.2-4.1-3.2Zm-.2,4.6h-2.3v-2.7h2.3c1.1,0,1.9,.5,1.9,1.3,0,.8-.8,1.4-1.9,1.4Z" fill="#fff"/>
        <polygon points="51.8 27 44.1 27.1 43.9 17.4 46.3 17.4 46.4 25.2 51.7 25.1 51.8 27" fill="#fff"/>
        <polygon points="67.5 23.3 67.6 26.8 65.2 26.8 65.2 23.3 60.9 17.2 63.6 17.1 66.3 21.3 69.1 17.1 71.7 17 67.5 23.3" fill="#fff"/>
        <polygon points="81.9 27.2 80.3 27.3 76.2 22.8 74.5 24.4 74.5 27.3 73.3 27.3 73.2 17.7 74.4 17.7 74.5 23 79.9 17.6 81.5 17.6 77 22.1 81.9 27.2" fill="#fff"/>
        <path d="M88,17.3c-3,0-5.5,2.3-5.5,5.1,0,2.7,2.6,5,5.6,4.9,3,0,5.5-2.4,5.5-5.1,0-2.7-2.6-5-5.6-4.9Zm.4,9c-2.4,.2-4.4-1.6-4.6-3.9,.1-2.1,1.8-3.8,3.9-4,2.4-.2,4.4,1.6,4.6,3.9-.1,2.1-1.8,3.9-3.9,4Z" fill="#fff"/>
        <path d="M103.2,24.5c0,1.5-1.2,2.8-3.8,2.8-1.6,0-3.1-.5-4.3-1.5l.8-.9c1,.9,2.2,1.4,3.5,1.4,1.7,0,2.5-.9,2.5-1.7,0-1-1-1.4-2.9-1.8-2.2-.4-3.5-1-3.6-2.7,0-1.5,1.5-2.8,3.6-2.8,1.4,0,2.7,.4,3.8,1.3l-.7,.9c-.9-.8-2-1.2-3.1-1.2-1.3,0-2.3,.8-2.3,1.7,0,1,1.1,1.3,2.9,1.7,2.1,.4,3.5,1.1,3.6,2.8Z" fill="#fff"/>
        <polygon points="116 27.2 114.8 27.2 114.7 19.9 110.8 26.7 106.7 20 106.8 27.3 105.5 27.4 105.4 17.7 106.7 17.7 110.7 24.4 114.7 17.6 115.9 17.6 116 27.2" fill="#fff"/>
        <path d="M123.7,17.3c-3,0-5.5,2.3-5.5,5.1,0,2.7,2.6,5,5.6,4.9,3,0,5.5-2.4,5.5-5.1,0-2.7-2.6-5-5.6-4.9Zm.4,9c-2.4,.2-4.4-1.6-4.6-3.9,.1-2.1,1.8-3.8,3.9-4,2.4-.2,4.4,1.6,4.6,3.9-.1,2.1-1.8,3.9-3.9,4Z" fill="#fff"/>
        <path d="M138.9,24.5c0,1.5-1.3,2.8-3.8,2.8-1.5,0-2.9-.4-4.1-1.3,0,0-.1-.1-.2-.2l.8-.9c.2,.2,.3,.3,.5,.4,.9,.6,1.9,1,3,.9,1.7,0,2.5-.9,2.5-1.7,0-.8-.6-1.2-1.6-1.5-.3-.1-.7-.2-1.2-.3,0,0-.1,0-.2,0-2.2-.4-3.5-1-3.6-2.7,0-1.5,1.5-2.8,3.6-2.8,1.4,0,2.7,.4,3.8,1.3l-.7,.9c-.9-.8-2-1.2-3.1-1.2-1.3,0-2.3,.8-2.3,1.7,0,1,1.1,1.3,2.9,1.7,.4,0,.8,.2,1.1,.3,.4,.1,.7,.2,1,.4,.9,.4,1.5,1.1,1.5,2.1Z" fill="#fff"/>
      </g>
    </g>
  </g>
</svg>