<svg xmlns="http://www.w3.org/2000/svg" xmlns:xlink="http://www.w3.org/1999/xlink" width="335" height="335">
  <defs>
    <linearGradient id="g" x1="85.59" x2="324.74" y1="263.42" y2="296.11" gradientUnits="userSpaceOnUse">
      <stop offset="0" stop-color="#53b5d9"/>
      <stop offset="1" stop-color="#2d79b5"/>
    </linearGradient>
    <linearGradient id="a" x1="99.64" x2="97.61" y1="308.29" y2="263.84" gradientUnits="userSpaceOnUse">
      <stop offset="0" stop-color="#3e825c"/>
      <stop offset="1" stop-color="#73ad4b"/>
    </linearGradient>
    <linearGradient xlink:href="#a" id="i" x1="306.67" x2="266.72" y1="305.77" y2="272.22"/>
    <linearGradient id="b" x1="271.09" x2="271.09" y1="338.2" y2="289.51" gradientUnits="userSpaceOnUse">
      <stop offset="0" stop-color="#4a9357"/>
      <stop offset="1" stop-color="#73ad4b"/>
    </linearGradient>
    <linearGradient xlink:href="#b" id="j" x1="173.71" x2="334.19" y1="313.79" y2="313.79"/>
    <linearGradient id="k" x1="272.37" x2="203.05" y1="313.26" y2="347.15" gradientUnits="userSpaceOnUse">
      <stop offset="0" stop-color="#98d366"/>
      <stop offset="1" stop-color="#73ad4b"/>
    </linearGradient>
    <linearGradient id="l" x1="278.51" x2="261.46" y1="286.93" y2="284.18" gradientUnits="userSpaceOnUse">
      <stop offset="0" stop-color="#f93"/>
      <stop offset="1" stop-color="#ff6a33"/>
    </linearGradient>
    <linearGradient id="c" x1="308.56" x2="316.18" y1="300.51" y2="300.51" gradientUnits="userSpaceOnUse">
      <stop offset="0" stop-color="#2a4d4b"/>
      <stop offset="1" stop-color="#3b6b68"/>
    </linearGradient>
    <linearGradient xlink:href="#c" id="m" x1="265.83" x2="265.83" y1="282.55" y2="304.31"/>
    <linearGradient id="n" x1="283.39" x2="298.27" y1="270.25" y2="299.05" gradientUnits="userSpaceOnUse">
      <stop offset="0" stop-color="#f93"/>
      <stop offset="1" stop-color="#ff6a33"/>
    </linearGradient>
    <linearGradient id="e" x1="257.95" x2="257.84" y1="317.81" y2="319.46" gradientUnits="userSpaceOnUse">
      <stop offset="0" stop-color="#a17052"/>
      <stop offset="1" stop-color="#855c44"/>
    </linearGradient>
    <linearGradient id="d" x1="300.52" x2="301.96" y1="450.71" y2="454.49" gradientTransform="rotate(-5.03 -1294.49 866.53)" gradientUnits="userSpaceOnUse">
      <stop offset="0" stop-color="#949494"/>
      <stop offset="1" stop-color="#525252"/>
    </linearGradient>
    <linearGradient xlink:href="#d" id="o" x1="251.81" x2="253.03" y1="313.26" y2="316.47"/>
    <linearGradient xlink:href="#d" id="p" x1="264.11" x2="265.01" y1="314.85" y2="317.23"/>
    <linearGradient xlink:href="#d" id="q" x1="262.9" x2="264.19" y1="316.65" y2="320.05"/>
    <linearGradient xlink:href="#d" id="r" x1="251.5" x2="251.06" y1="317.08" y2="320.4"/>
    <linearGradient xlink:href="#d" id="s" x1="258.02" x2="257.32" y1="318.29" y2="324.45"/>
    <linearGradient xlink:href="#e" id="t" x1="276.43" x2="303.22" y1="316.35" y2="316.35"/>
    <linearGradient xlink:href="#e" id="u" x1="343.1" x2="369.89" y1="312.52" y2="312.52" gradientTransform="matrix(-1 0 0 1 587.44 0)"/>
    <radialGradient id="f" cx="167.5" cy="167.5" r="211.11" data-name="Degradado sin nombre 10" fx="167.5" fy="167.5" gradientTransform="matrix(1 0 0 .98 0 2.91)" gradientUnits="userSpaceOnUse">
      <stop offset="0" stop-color="#ceeaee"/>
      <stop offset=".13" stop-color="#94e6e9"/>
      <stop offset=".29" stop-color="#55e1e5"/>
      <stop offset=".43" stop-color="#26dee1"/>
      <stop offset=".53" stop-color="#0adcdf"/>
      <stop offset=".59" stop-color="#00dcdf"/>
      <stop offset=".86" stop-color="#00b1b4"/>
      <stop offset="1" stop-color="#00a0a3"/>
    </radialGradient>
    <radialGradient id="h" cx="283.33" cy="252.67" r="167.5" fx="283.33" fy="252.67" gradientUnits="userSpaceOnUse">
      <stop offset="0" stop-color="#ceeaee"/>
      <stop offset=".04" stop-color="#94e6e9"/>
      <stop offset=".08" stop-color="#55e1e5"/>
      <stop offset=".12" stop-color="#26dee1"/>
      <stop offset=".15" stop-color="#0adcdf"/>
      <stop offset=".17" stop-color="#00dcdf"/>
      <stop offset=".71" stop-color="#00b1b4"/>
      <stop offset="1" stop-color="#00a0a3"/>
    </radialGradient>
  </defs>
  <g data-name="Layer 1">
    <path fill="url(#f)" d="M0 0h335v335H0z"/>
    <path fill="url(#g)" d="M335 232.77v83.59H-.8v-83.92l.8.11 6.53.91c1.19.16 2.39.33 3.59.48l1.79.24a876.52 876.52 0 0 0 8.34 1.07 1157.54 1157.54 0 0 0 31.52 3.49h.01a1096.07 1096.07 0 0 0 31.11 2.63c6.31.45 12.63.85 18.95 1.2l2.02.11h.01a927.54 927.54 0 0 0 16.49.77c1.06.04 2.13.09 3.2.12a1009.4 1009.4 0 0 0 23.52.65l5.3.08 5.73.06 3.02.03 5.75.02h1.46c2.52 0 5.05-.01 7.56-.03h.86l3.26-.03a852.9 852.9 0 0 0 13.61-.21l6.48-.15 2.14-.06a1168.86 1168.86 0 0 0 16.24-.57c7.57-.32 15.14-.71 22.71-1.17h.09l8.12-.52.5-.04c2.58-.17 5.16-.36 7.74-.55l.64-.05c2.46-.18 4.92-.38 7.37-.58l1.24-.1 7.23-.62.68-.06h.01l.03-.01c1.52-.13 3.04-.26 4.56-.41l1.42-.14s0 .01 0 0h.03c2.56-.23 5.13-.48 7.69-.74l5.7-.59 6.24-.68.66-.07 6.47-.74h.01c1.92-.22 3.85-.45 5.77-.69l5.4-.67 5.39-.7 5.4-.72 5.39-.74Z"/>
    <path fill="#c4e1f2" d="M69.98 245.88c2.03-.17 13.08.98 14.65.67.76-.15 6.64-.82 12.28-2.81.74.31.71.34 1.36.72 5.38.55 23.74 6.56 25.83 6.54 2.09-.02 10.73-1.55 13.55-2.4 2.82-.84 7.69-1.12 11.28-2.43 1.95-.71 10.76 1.21 17.96-1.76A1198.71 1198.71 0 0 1-.81 232.44v13.37s32.46 8.16 34.27 8.35 34.49-8.12 36.52-8.29ZM335 232.77v16.38a256.8 256.8 0 0 1-19.39-1.17c-5.77-.65-13.66-.49-19.7-.44l-.13.06-.32.13a178.33 178.33 0 0 1-5.96 2.42l-.58.2-.51.17-.79.23c-.97.26-1.98.49-3 .7l-.52.1c-1 .19-2 .36-2.98.52l-.52.08c-.95.16-1.86.31-2.73.47l-.52.1c-1 .19-1.92.39-2.72.63h-.01l-.49.14c-.79.21-1.82.46-2.98.71l-.51.11a335.32 335.32 0 0 1-3.82.75l-.48.1c-2.02.37-4.07.7-5.79.95l-.37.05h-.01c-1.51.22-2.74.35-3.42.35-2.76.03-26.77-9.15-33.87-9.88a15.45 15.45 0 0 0-3.66-1.53c-5.07-1.44-11.29-.92-16.98 0-6.06.99-11.52 2.43-14.33 2.46-1.96.02-8.46-1.03-16.4-2.46l-3.4-.62-.39-.07h.63l7.56-.03h.86l3.26-.03a852.9 852.9 0 0 0 13.61-.21l6.48-.15 2.14-.06 6.01-.19a1137.06 1137.06 0 0 0 32.94-1.55h.09l8.12-.52.5-.04c2.58-.17 5.16-.36 7.74-.55l.64-.05c2.45-.18 4.91-.38 7.37-.58l1.24-.1c2.41-.2 4.82-.4 7.23-.62l.68-.06h.01l.03-.01c1.52-.13 3.04-.26 4.56-.41l1.42-.13v-.01h.03c2.56-.23 5.13-.48 7.69-.74l5.7-.59 6.24-.68.66-.07 6.47-.74h.01c1.92-.22 3.85-.45 5.77-.69l5.4-.67a993 993 0 0 0 10.79-1.42l5.39-.74Z"/>
    <path fill="url(#h)" d="M0 0h335v335H0z" opacity=".9"/>
    <path fill="url(#a)" d="M200.49 307.79v27.7H174.1l.35-.49H0v-18.64h-.8v-38.73l.8.01c8.33.04 37.47.56 60.51 5.32 27.16 5.63 38.38 9.08 65.25 10.25 26.09 1.14 51.52 3.09 72.83 13.62.64.31 1.27.63 1.9.96Z"/>
    <path fill="url(#i)" d="M335 262.54V335h-.81v1.05H267.4a67.3 67.3 0 0 1-7.62-3.79h-.01c-6.43-3.69-10.3-7.42-12.59-10.29-.28-.34-.53-.67-.76-.98a15.93 15.93 0 0 1-2.35-4.22l.24-.41.66-1.11.62-1.04a120.67 120.67 0 0 1 5.8-8.54l.37-.5a22.85 22.85 0 0 1 .95-1.24l.34-.44c.47-.61.94-1.19 1.41-1.77a99.76 99.76 0 0 1 7.22-8 87.4 87.4 0 0 1 1.69-1.66l.03-.03.28-.27.17-.16.91-.85.74-.68a173.9 173.9 0 0 1 3.63-3.13 75.8 75.8 0 0 1 3.11-2.46c.11-.1.22-.18.33-.26.39-.31.79-.6 1.19-.89l.81-.59c1.1-.8 2.21-1.56 3.32-2.29.25-.18.5-.34.76-.51l1.86-1.17c.23-.16.47-.3.71-.44l1.29-.78.69-.4a56.85 56.85 0 0 1 2.73-1.53l.69-.37c.37-.2.74-.4 1.11-.58l.71-.37 1.43-.71.76-.37 2.2-1.02.86-.38a88.38 88.38 0 0 1 3.7-1.55h.01l.63-.25.9-.36c16.52-6.26 30.65-7.07 36.06-7.12Z"/>
    <path fill="url(#b)" d="M334.96 301.71V335H207.22v-34.87l2.27-.64 1.2-.33c5.8-1.56 12.46-3.06 19.68-4.35h.01c.66-.13 1.33-.24 2-.36l.62-.1.74-.13h.04a57.87 57.87 0 0 1 2.16-.35c.34-.07.69-.12 1.03-.17l.79-.12 2.23-.34.72-.1c2.58-.37 5.21-.71 7.87-1.01h.01c1.14-.14 2.29-.26 3.44-.38 1.14-.11 2.29-.23 3.44-.33l1.49-.13.88-.07c1.46-.12 2.92-.23 4.39-.32l1.55-.1.49-.02.08-.01.41-.02.75-.04 1.68-.08c.98-.05 1.97-.09 2.96-.12l.58-.02.22-.01 3.37-.08 1.65-.02h.38c1.46-.02 2.92-.01 4.37.01h.28c1.51.02 3.01.06 4.51.11l.27.01 2.17.09c.99.05 1.97.1 2.95.17l.21.01a160.5 160.5 0 0 1 12.2 1.24h.01a121.96 121.96 0 0 1 13.56 2.68h.01l.16.05.26.06.03.01.34.09.33.09 1.35.39 1.1.32.3.09.33.1a81.55 81.55 0 0 1 10.92 4.27c.34.17.67.33 1 .51l.66.34c.44.22.87.45 1.29.69Z"/>
    <path fill="url(#j)" d="M334.19 302.76v33.29H173.71l.39-.56.35-.49c2.08-2.91 4.3-5.86 6.48-8.76 2.16-2.87 4.74-6.3 7.89-9.88 2.78-3.15 6-6.42 9.77-9.53a70.92 70.92 0 0 1 8.64-6.11c.63-.38 1.37-.79 2.26-1.23.37-.18.76-.37 1.19-.56 3.63-1.63 9.36-3.5 19.01-4.95l3.07-.43a4.46 4.46 0 0 0 .54-.06h.01l.14-.02c1.1-.14 2.24-.27 3.43-.4l.71-.08s0-.01 0 0l.24-.02 1.32-.13h.01l1.5-.13c2.46-.22 5.09-.41 7.91-.58h.01a278.35 278.35 0 0 1 8.08-.36h.01c.22 0 .43 0 .66-.02 1.53-.05 3.12-.09 4.75-.12l1.6-.03h.16l1.66-.02c.59 0 1.18 0 1.79-.02l2.31-.01h.85l4.61-.01a7.49 7.49 0 0 1 .9 0l1.18-.01h3.83l4.78.02h.22l1.32.01 4 .05.16.01a329 329 0 0 1 6.67.17h.03c1.78.06 3.49.14 5.14.23h.01c3.91.22 7.43.55 10.6 1a70.11 70.11 0 0 1 3.9.68h.04l.05.01 1.19.25.67.16h.01l.23.06h.01l.52.14.06.01.09.02.64.17.33.1c.72.2 1.41.43 2.07.66h.01a27.05 27.05 0 0 1 4.16 1.86l.14.08.65.38h.01a19.22 19.22 0 0 1 4.22 3.54c.14.14.24.27.36.41.31.38.62.78.9 1.2Z"/>
    <path fill="url(#k)" d="M291.77 296.04c-15.72-1.37-42.72 1.9-50.39 4.45-7.67 2.54-7.07 5.11-15.41 6.89-8.33 1.78-22.11 8.1-17.11 14.74 5 6.65 31.09 10.28 58 10.21 26.91-.06 36.53-2.33 40.45-7.5 3.92-5.17 2.16-6.86 8.84-9.05 6.68-2.19 15.47-11.46 2.66-15.52-12.81-4.07-18.55-3.48-27.04-4.22Z"/>
    <path fill="#6f9849" d="M249.43 304.53s-2.74 1.3-2.8 1.67c-.06.38 3.32.56 6.51 1.04s26.51 2.4 28.68 2.53c2.17.13 3.09-.02 4.35-.55 1.26-.53 21.23-3.46 25.19-4.23 3.96-.77 5.62-.87 6.15-1.25.53-.38 1.18-.87-.57-1.13a61.2 61.2 0 0 0-5.84-.31s-50.13.6-61.68 2.23Z"/>
    <path fill="#664734" d="M239.95 300.69c.01-.13-.57-.17-1.23.21s-.81.72-.79.85l2.69 3.93s.38.12.55-.35c0 0-1-4.58-1.21-4.64Z"/>
    <path fill="#a37254" d="M240.72 305.82c.06 0 .12-.02.17-.05a28.61 28.61 0 0 0 6.03-5.87.28.28 0 0 0-.07-.39.28.28 0 0 0-.39.07c-.02.03-2.14 3.01-5.9 5.74a.28.28 0 0 0-.06.39c.05.07.14.11.22.12Z"/>
    <path fill="url(#l)" d="M300.05 270.16s-10.41 19.86-19.29 30.1c0 0-20.53 1.87-36.12 1.45 8.88-10.24 19.29-30.1 19.29-30.1l36.12-1.45Z"/>
    <path fill="#c2d1d0" d="m248.44 300.05-3.79 1.66 4.64.06-.85-1.72z"/>
    <path fill="#182b29" d="M249.29 303.97s13.66-21.59 16.1-29.32c3.34 10.32 8.47 29.02 8.47 29.02l-24.57.3Z"/>
    <path fill="#284745" d="m283.23 308.31 32.95-5.11v-6.56l-67.14 7.28v.98l34.19 3.41z"/>
    <path fill="url(#c)" d="M316.18 303.2v-6.56l-7.62 7.74 7.62-1.18z"/>
    <path fill="url(#m)" d="M265.39 274.65s-8.14 16.59-16.95 25.4v5.28l13.73 1.58 3.22-32.26.24 32.7 17.6.96v-8.05l-17.83-25.61Z"/>
    <path fill="#4f918d" d="m265.39 274.65-6.01 30.89 2.79 1.37 3.22-32.26z"/>
    <path fill="#4f918d" d="m265.39 274.65.24 32.7 3.33-1.08-3.57-31.62z"/>
    <path fill="#c2d1d0" d="m264.54 283.18.85-8.53.1 7.21c.82-1.18 1.62-2.4 2.38-3.65l-2.48-3.56s-8.14 16.59-16.95 25.4c0 0 8.78-6.88 16.1-16.87Z"/>
    <path fill="#664734" d="M290.49 308.48s1-4.58 1.21-4.64c.21-.06 2.02 1.06 2.02 1.06l-2.69 3.93s-.38.12-.55-.35Z"/>
    <path fill="#c98c67" d="M291.7 303.84c.03.26.38.66.89.94.51.28 1.11.26 1.13.13.02-.13-.13-.47-.79-.85s-1.25-.34-1.23-.21Z"/>
    <path fill="#664734" d="M323.19 303.44s.85-3.89 1.03-3.94c.18-.05 1.72.9 1.72.9l-2.28 3.34s-.32.1-.47-.3Z"/>
    <path fill="#c98c67" d="M324.22 299.5c.02.22.33.56.76.8s.94.22.96.11c.02-.11-.11-.4-.67-.72-.56-.33-1.06-.29-1.05-.18Z"/>
    <path fill="#a37254" d="M290.73 308.98a.4.4 0 0 1-.23-.08 38.88 38.88 0 0 1-8.01-8.18.38.38 0 0 1 .11-.53.38.38 0 0 1 .53.11c.03.04 2.81 4.15 7.83 7.99.17.13.2.37.07.54a.38.38 0 0 1-.3.15Zm32.86-5.14a.35.35 0 0 1-.25-.1c-4.81-4.24-7.88-7.44-7.91-7.47a.38.38 0 0 1 .01-.54c.15-.15.4-.14.54.01.03.03 3.08 3.21 7.86 7.43.16.14.17.38.03.54a.37.37 0 0 1-.29.13Z"/>
    <path fill="url(#n)" d="M299.99 270.16s7.19 16.46 17.54 26.84c0 0-8.24 2.36-34.34 4.7-10.35-10.39-19.25-30.1-19.25-30.1l36.05-1.45Z"/>
    <path fill="#fff" d="m294.23 285.97 2.38 3.82c1.75-.14 3.44-.3 4.8-.48a57.24 57.24 0 0 1-2.75-3.78c-1.51.16-3.01.31-4.43.44Zm-.46-.72 4.42-.44a45.74 45.74 0 0 1-2.1-3.58l-4.61.37 2.3 3.65Zm-.4.8c-2.25.21-4.22.37-5.59.48a74.4 74.4 0 0 0 2.75 3.71c1.54-.11 3.39-.23 5.22-.37-.74-1.21-1.58-2.54-2.37-3.81Zm-.45-.73-2.31-3.66-5.73.45c.77 1.24 1.58 2.48 2.4 3.68 1.3-.1 3.31-.26 5.64-.47Z"/>
    <path fill="#6f9849" d="M247.24 320.22c-.89.83-1.6 1.34-.83 1.63.77.29 2.49-.03 2.99.37s1.69.49 2.34.29c.65-.2.59.34 1.61.54s2.04 1.14 3.8 1.14 2.97-.26 3.93-.34 1.82-.74 2.08-1.3 2.55-.15 3.54-.45c.99-.3 2.46-1.41 2.01-2.16s-1.95-.61-1.79-1.05.7-1.97-1.05-1.84c-1.76.13-13.6-1.5-18.62 3.19Z"/>
    <path fill="url(#e)" d="M257.64 316.86c-1.22 0-4.84-.22-5.41.77-.57.99 1.44 2.76 4.89 2.77s5.43-.18 6.26-1.33c.83-1.15.22-2.12-1.63-2.21-1.85-.09-4.11 0-4.11 0Z"/>
    <path fill="url(#d)" d="M262.09 317.19c-.87.05-3.53-.01-4.17 0s-1.7.07-1.94-.45c-.24-.53-.53-2.17.68-3.15 1.22-.98 2.92-1.08 4.52-.61s1.92 1.61 1.83 2.61c-.08 1-.29 1.57-.93 1.61Z"/>
    <path fill="url(#o)" d="M256.31 315.48c-.37-.87-1.13-1.45-1.98-1.47s-1.36-.61-2.31-.44c-.95.17-2.32 1.13-2.55 2.04-.23.91.05 1.72 1.06 2.23s1.67.21 3.14 0c1.47-.21 2.55-.55 2.75-.99.19-.44.09-.91-.11-1.38Z"/>
    <path fill="#bfbfbf" d="M253.29 316.19a4.65 4.65 0 0 0-3.66.87c.18.31.48.58.9.79 1.01.51 1.67.21 3.14 0a7.84 7.84 0 0 0 2.35-.62c-.54-.25-1.15-.74-2.73-1.04Z"/>
    <path fill="url(#p)" d="M264.34 318.23c-1.17-.03-2.09-.43-1.87-1.04.21-.62.13-1.03.83-1.6.7-.57 1.64-.87 2.66-.42s1.43.64 1.32 1.53-.7 1.39-1.19 1.54-1.26.01-1.75 0Z"/>
    <path fill="url(#q)" d="M260.49 320.62c.02.44.49 1.34 1.89 1.06s1.85-.3 2.75-.25 2.38-.44 2.62-1.28c.23-.84-.32-2.24-.81-2.86-.49-.62-1.34-1.06-2.55-.81s-2.47 1.55-2.9 2.21c-.43.66-1.02 1.34-1 1.92Z"/>
    <path fill="#bfbfbf" d="M261.16 319.19c-.35.5-.68.99-.67 1.43.02.44.49 1.34 1.89 1.06l1.05-.19c-1.07-2.17-2.28-2.3-2.28-2.3Z"/>
    <path fill="url(#r)" d="M255.39 320.49c.04-.68-.47-2.17-1.09-2.64s-2.14-1.31-3.75-1.04c-1.6.26-3.39 1.64-3.66 2.55s-.24 1.79.47 2.05c.71.27 1.42.03 2.11.31s1.58.3 2.39 0 1.72-.15 2.41-.19 1.1-.53 1.13-1.04Z"/>
    <path fill="#bfbfbf" d="M254.27 321.53c.68-.04 1.1-.53 1.13-1.04a4.19 4.19 0 0 0-.51-1.87s-1.56 1.33-2.93 1.64c-1.21.27-2.67.35-3.2 1.32.24.02.49.05.72.14.68.28 1.58.3 2.39 0s1.72-.15 2.41-.19Z"/>
    <path fill="url(#s)" d="M257.5 317.65a4.23 4.23 0 0 0-3.65 2.37c-.53 1.26-.76 2.19-.14 2.57.62.38 1.17.04 1.83.3.65.26 2.04.59 3.13.37 1.09-.22 1.5-.43 2.05-.4.55.03 1.15-.44 1.19-1.2.04-.76-.21-3.93-4.42-4.01Z"/>
    <g fill="#fff" data-name="PRINT">
      <path d="M29.59 13.92c0 .53-.21 1.03-.59 1.4l-6.34 6.34-6.78-3.92v-3.85a2.01 2.01 0 0 1 4.02 0v4.86l6.27-6.27a2.02 2.02 0 0 1 3.43 1.43Zm-.6 17.76a1.99 1.99 0 0 1-2.84 0l-2.13-2.13-4.15-4.14v4.86a2 2 0 0 1-4.01 0v-3.84l6.8-3.91 4.2 4.2 2.13 2.13a2 2 0 0 1 0 2.83Zm-6.63-9.72a.43.43 0 0 0-.18-.24s-.02 0-.03-.02l-1.71-.99-4.57-2.64L12 15.84c-.23-.13-.5-.06-.62.16a.41.41 0 0 0-.07.23v11.71a.45.45 0 0 0 .68.39l3.87-2.23 6.28-3.62.07-.05a.4.4 0 0 0 .12-.17.47.47 0 0 0 .02-.31Zm-9.56-4.72 3 1.74 4.87 2.81c.06.04.1.08.13.13.05.09.06.19.03.27a.36.36 0 0 1-.16.21l-4.87 2.82-3 1.74a.36.36 0 0 1-.48-.13c-.04-.05-.05-.11-.05-.18v-9.09c0-.2.15-.35.35-.35.07 0 .12 0 .18.05Z"/>
      <path d="M19.46 22.16a.28.28 0 0 1-.12.16l-3.66 2.12-2.26 1.3a.26.26 0 0 1-.36-.1.33.33 0 0 1-.04-.13v-6.84c0-.15.12-.27.27-.26.05 0 .09.01.13.03l2.26 1.31 3.66 2.12c.06.03.1.09.12.15v.15Zm43.05-.53-5.59-2.81-3.44-1.73a.4.4 0 0 0-.54.15.58.58 0 0 0-.06.17l.11 9.29c.03.22.23.38.45.36.06 0 .11-.03.16-.06l.22-.11 3.19-1.7 1.96-1.05 3.55-1.89a.4.4 0 0 0 .18-.22.26.26 0 0 0 0-.21.4.4 0 0 0-.19-.21Zm-5.59 2.84-2.64 1.41c-.15.09-.35.05-.43-.1a.28.28 0 0 1-.04-.13l-.09-7.21c.02-.17.17-.3.34-.28.05 0 .08.02.13.04l2.67 1.34.96.48 3.38 1.7c.07.03.12.08.15.16v.15s0 .02-.02.03a.24.24 0 0 1-.12.14l-4.29 2.28Z"/>
      <path d="M60.13 22.02a.22.22 0 0 1-.11.12l-3.22 1.72-1.99 1.06a.23.23 0 0 1-.32-.08.16.16 0 0 1-.03-.09l-.07-5.42c0-.13.12-.23.25-.22a.2.2 0 0 1 .1.03l2.01 1.01 3.26 1.64c.05.02.09.07.11.12v.12Zm-21.62-4.84-2.14.03-2.71.04.03 2.65.08 7.02 2.31-.03-.04-3.13 2.54-.04c2.35-.03 4.05-1.4 4.04-3.31-.03-1.91-1.77-3.25-4.11-3.22Zm-.2 4.64-2.29.03-.04-2.73 2.3-.03c1.15 0 1.93.52 1.94 1.34 0 .84-.77 1.38-1.91 1.39Zm13.45 5.14-7.7.1-.12-9.67 2.33-.03.1 7.8 5.37-.08.02 1.88zm15.78-3.69.04 3.49-2.34.03-.04-3.49-4.3-6.13 2.7-.03 2.74 4.21 2.75-4.27 2.59-.04-4.14 6.23zm14.37 3.97-1.58.02-4.15-4.45-1.68 1.63.03 2.9-1.23.01-.11-9.67 1.22-.01.07 5.35 5.4-5.43 1.62-.01-4.49 4.47 4.9 5.19zm6.07-9.9c-2.98.04-5.5 2.35-5.47 5.07.04 2.71 2.59 4.98 5.59 4.95 3-.04 5.49-2.37 5.45-5.09-.03-2.71-2.59-4.97-5.58-4.93Zm.39 8.98a4.29 4.29 0 0 1-4.62-3.93 4.3 4.3 0 0 1 8.56-.11 4.3 4.3 0 0 1-3.94 4.04Zm14.81-1.8c.02 1.54-1.25 2.81-3.77 2.83a6.18 6.18 0 0 1-4.26-1.48l.76-.87a5.07 5.07 0 0 0 3.55 1.35c1.67-.02 2.51-.85 2.5-1.72 0-1.03-1.04-1.43-2.93-1.79-2.18-.43-3.55-1.01-3.57-2.69-.02-1.55 1.5-2.78 3.58-2.8a5.66 5.66 0 0 1 3.8 1.33l-.74.86a4.74 4.74 0 0 0-3.11-1.2c-1.34.02-2.3.82-2.29 1.71 0 1 1.08 1.34 2.92 1.71 2.07.41 3.55 1.06 3.57 2.76Zm12.83 2.7-1.22.02-.1-7.3-3.92 6.79-4.08-6.7.08 7.31-1.23.02-.11-9.68 1.22-.01 4.09 6.69 3.93-6.79 1.22-.01.12 9.66zm7.7-9.88c-2.98.04-5.5 2.35-5.47 5.07.04 2.71 2.59 4.98 5.59 4.95 3-.04 5.49-2.37 5.45-5.09-.04-2.71-2.59-4.97-5.58-4.93Zm.39 8.98a4.3 4.3 0 0 1-4.63-3.93 4.3 4.3 0 0 1 8.57-.11 4.3 4.3 0 0 1-3.94 4.04Zm14.81-1.8c.02 1.54-1.26 2.81-3.77 2.83a6.2 6.2 0 0 1-4.27-1.48l.76-.87a5.04 5.04 0 0 0 3.56 1.35c1.66-.02 2.51-.85 2.49-1.72 0-.75-.55-1.16-1.58-1.47-.33-.1-.72-.2-1.15-.28-.07 0-.13-.03-.2-.04-2.17-.43-3.55-1.01-3.57-2.69-.02-1.55 1.51-2.78 3.59-2.8a5.7 5.7 0 0 1 3.8 1.33l-.74.86a4.76 4.76 0 0 0-3.12-1.2c-1.33.02-2.3.82-2.29 1.71.02 1 1.09 1.34 2.93 1.71.38.08.75.16 1.09.26.37.1.69.23.99.38.92.43 1.48 1.08 1.49 2.12Z"/>
    </g>
    <path fill="#fff" d="M167.5 148.13a5.45 5.45 0 0 0-4.39 8.66l4.39 7.6 4.39-7.6a5.45 5.45 0 0 0-4.39-8.66Zm0 7.93a2.39 2.39 0 1 1 0-4.78 2.39 2.39 0 0 1 0 4.78Z"/>
    <rect width="104.05" height="21.73" x="115.47" y="266.76" fill="#ffb533" rx="10.87" ry="10.87"/>
    <path fill="#6f9849" d="M302.73 323.69c2.31.78.94 2.81-1.84 3.07-1.53.14-4.25-.44-6.72-1.37-2.47-.93-4.34-1.55-7.62-2.11s-5.71-2.14-7.75-2.86c-2.04-.72-3.79-.86-4.05-1.71-.26-.85 4.64-1.98 8-.95 3.36 1.03 14.83 4.2 19.97 5.94Z"/>
    <path fill="url(#t)" d="M300.24 325.4c-.79.3-1.48.12-2.66-.2-3.93-1.05-7.87-2.04-11.79-3.1-1.31-.35-2.68-.7-4.63-1.41-2.52-.92-3.79-1.4-4.3-2.35-.98-1.83.03-4.85.03-5.37a5.29 5.29 0 0 1 1.35-2.6 4.84 4.84 0 0 1 3.3-1.2c-.03-.07-.3-.74.1-1.38.31-.48.8-.62.91-.64l1.57 2.17c1.84.7 3.36 1.13 4.35 1.39 3.43.88 6.94 1.29 11.47 2.74.88.28 2.1.7 2.8 1.84.23.37.62 1.17.41 3.34-.18 1.8-.57 5.87-2.92 6.77Z"/>
    <path fill="#deb887" d="M303.21 319.4c-.07.8-.42 5.07-2.97 5.99-.27.1-1.05.38-1.71.03-1.33-.71-1.07-3.38-.85-5.68.25-2.6.43-4.23 1.72-5.04.69-.44 1.77-.68 2.59-.25 1.55.82 1.32 3.64 1.21 4.95Z"/>
    <path fill="#6f9849" d="M218.04 319.86c-2.31.78-.94 2.81 1.84 3.07 1.53.14 4.25-.44 6.72-1.37 2.47-.93 4.34-1.55 7.62-2.11s5.71-2.14 7.75-2.86c2.04-.72 3.79-.86 4.05-1.71.26-.85-4.64-1.98-8-.95-3.36 1.03-14.83 4.2-19.97 5.94Z"/>
    <path fill="url(#u)" d="M220.53 321.56c.79.3 1.48.12 2.66-.2 3.93-1.05 7.87-2.04 11.79-3.1 1.31-.35 2.68-.7 4.63-1.41 2.52-.92 3.79-1.4 4.3-2.35.98-1.83-.03-4.85-.03-5.37a5.29 5.29 0 0 0-1.35-2.6 4.84 4.84 0 0 0-3.3-1.2c.03-.07.3-.74-.1-1.38a1.5 1.5 0 0 0-.91-.64l-1.57 2.17c-1.84.7-3.36 1.13-4.35 1.39-3.43.88-6.94 1.29-11.47 2.74-.88.28-2.1.7-2.8 1.84-.23.37-.62 1.17-.41 3.34.18 1.8.57 5.87 2.92 6.77Z"/>
    <path fill="#deb887" d="M217.56 315.57c.07.8.42 5.07 2.97 5.99.27.1 1.05.38 1.71.03 1.33-.71 1.07-3.38.85-5.68-.25-2.6-.43-4.23-1.72-5.04-.69-.44-1.77-.68-2.59-.25-1.55.82-1.32 3.64-1.21 4.95Z"/>
  </g>
</svg>
