<svg xmlns="http://www.w3.org/2000/svg" width="335.5" height="335.2" xmlns:xlink="http://www.w3.org/1999/xlink" viewBox="0 0 335.5 335.2"><defs><linearGradient id="a" x1="322.5" y1="461.3" x2="326.8" y2="461.3" gradientTransform="rotate(-1.6 -16157.998 404.713)" gradientUnits="userSpaceOnUse"><stop offset="0" stop-color="#6cc0fa"/><stop offset=".5" stop-color="#0095d5"/><stop offset="1" stop-color="#0094c1"/></linearGradient><linearGradient id="j" x1="322.5" y1="461.3" x2="326.8" y2="461.3" xlink:href="#a"/><linearGradient id="k" x1="326.3" y1="465.2" x2="330.6" y2="465.2" xlink:href="#a"/><linearGradient id="l" x1="326.3" y1="465.8" x2="330.6" y2="465.8" xlink:href="#a"/><linearGradient id="m" x1="330.5" y1="470.3" x2="334.8" y2="470.3" xlink:href="#a"/><linearGradient id="n" x1="330.5" y1="470.8" x2="334.8" y2="470.8" xlink:href="#a"/><linearGradient id="o" x1="334.9" y1="474.9" x2="339.2" y2="474.9" xlink:href="#a"/><linearGradient id="p" x1="334.9" y1="475.7" x2="339.2" y2="475.7" xlink:href="#a"/><linearGradient id="b" x1="533.8" y1="360.2" x2="542.9" y2="360.2" gradientTransform="scale(-1 1) rotate(45.8 371.211 -758.415)" gradientUnits="userSpaceOnUse"><stop offset="0" stop-color="#7e246e"/><stop offset="1" stop-color="#472469"/></linearGradient><linearGradient id="q" x1="533.8" y1="366.6" x2="542.9" y2="366.6" xlink:href="#b"/><linearGradient id="r" x1="533.8" y1="391.7" x2="542.9" y2="391.7" xlink:href="#b"/><linearGradient id="s" x1="533.8" y1="356.3" x2="542.9" y2="356.3" xlink:href="#b"/><linearGradient id="c" x1="538.2" y1="362.2" x2="547.2" y2="362.2" gradientTransform="scale(-1 1) rotate(45.8 371.211 -758.415)" gradientUnits="userSpaceOnUse"><stop offset="0" stop-color="#a31d6c"/><stop offset="1" stop-color="#472469"/></linearGradient><linearGradient id="t" x1="538.2" y1="392" x2="547.2" y2="392" xlink:href="#c"/><linearGradient id="u" x1="538.2" y1="355.1" x2="547.2" y2="355.1" xlink:href="#c"/><linearGradient id="d" x1="577.3" y1="154.2" x2="586.1" y2="154.2" gradientTransform="scale(-1 1) rotate(71.9 116.58 -473.492)" gradientUnits="userSpaceOnUse"><stop offset="0" stop-color="#ffcb23"/><stop offset=".2" stop-color="#f9a023"/><stop offset=".5" stop-color="#f57923"/><stop offset=".7" stop-color="#f15d23"/><stop offset=".9" stop-color="#ef4c23"/><stop offset="1" stop-color="#ef4623"/></linearGradient><linearGradient id="v" x1="577.3" y1="151.2" x2="586.1" y2="151.2" xlink:href="#d"/><linearGradient id="w" x1="577.3" y1="126.5" x2="586.1" y2="126.5" xlink:href="#d"/><linearGradient id="x" x1="538.2" y1="391.9" x2="547.2" y2="391.9" xlink:href="#c"/><linearGradient id="y" x1="577.3" y1="154.3" x2="586.1" y2="154.3" xlink:href="#d"/><linearGradient id="z" x1="538.2" y1="389.5" x2="547.2" y2="389.5" xlink:href="#c"/><linearGradient id="A" x1="577.3" y1="152.2" x2="586.1" y2="152.2" xlink:href="#d"/><linearGradient id="B" x1="581.5" y1="133.3" x2="590.2" y2="133.3" xlink:href="#d"/><linearGradient id="C" x1="581.5" y1="154.2" x2="590.2" y2="154.2" xlink:href="#d"/><linearGradient id="e" x1="594.1" y1="374.1" x2="603.2" y2="374.1" gradientTransform="scale(-1 1) rotate(56.1 329.463 -608.794)" gradientUnits="userSpaceOnUse"><stop offset="0" stop-color="#0093c4"/><stop offset="0" stop-color="#018fc1"/><stop offset=".3" stop-color="#136ba9"/><stop offset=".6" stop-color="#1f5198"/><stop offset=".8" stop-color="#27418d"/><stop offset="1" stop-color="#2a3c8a"/></linearGradient><linearGradient id="D" y1="338.4" y2="338.4" xlink:href="#e"/><linearGradient id="E" y1="351" y2="351" xlink:href="#e"/><linearGradient id="F" x1="533.8" y1="375.5" x2="542.9" y2="375.5" xlink:href="#b"/><linearGradient id="G" y1="358.6" y2="358.6" xlink:href="#e"/><linearGradient id="H" x1="533.8" y1="366.2" x2="542.9" y2="366.2" xlink:href="#b"/><linearGradient id="I" x1="594.1" y1="349" x2="603.2" y2="349" xlink:href="#e"/><linearGradient id="J" x1="533.8" y1="361.4" x2="542.9" y2="361.4" xlink:href="#b"/><linearGradient id="K" y1="344" y2="344" xlink:href="#e"/><linearGradient id="L" x1="538.2" y1="367.4" x2="547.2" y2="367.4" xlink:href="#c"/><linearGradient id="M" y1="350" y2="350" xlink:href="#e"/><linearGradient id="N" x1="538.2" y1="376.6" x2="547.2" y2="376.6" xlink:href="#c"/><linearGradient id="O" x1="577.3" y1="140.3" x2="586.1" y2="140.3" xlink:href="#d"/><linearGradient id="P" y1="359.3" y2="359.3" xlink:href="#e"/><linearGradient id="Q" y1="371.8" y2="371.8" xlink:href="#e"/><linearGradient id="R" y1="360.7" y2="360.7" xlink:href="#e"/><linearGradient id="S" y1="348" y2="348" xlink:href="#e"/><linearGradient id="T" x1="598.4" y1="341" x2="607.5" y2="341" xlink:href="#e"/><linearGradient id="U" x1="598.4" y1="352.9" x2="607.5" y2="352.9" xlink:href="#e"/><linearGradient id="V" x1="533.8" y1="391.3" x2="542.9" y2="391.3" xlink:href="#b"/><linearGradient id="W" x1="598.4" y1="374" x2="607.5" y2="374" xlink:href="#e"/><linearGradient id="X" x1="538.2" y1="370.7" x2="547.2" y2="370.7" xlink:href="#c"/><linearGradient id="Y" x1="598.4" y1="352.9" x2="607.5" y2="352.9" xlink:href="#e"/><linearGradient id="Z" x1="538.2" y1="366.1" x2="547.2" y2="366.1" xlink:href="#c"/><linearGradient id="aa" x1="598.4" y1="348.1" x2="607.5" y2="348.1" xlink:href="#e"/><linearGradient id="ab" x1="538.2" y1="374" x2="547.2" y2="374" xlink:href="#c"/><linearGradient id="ac" x1="598.4" y1="356.3" x2="607.5" y2="356.3" xlink:href="#e"/><linearGradient id="ad" x1="577.3" y1="138.4" x2="586.1" y2="138.4" xlink:href="#d"/><linearGradient id="ae" x1="598.4" y1="358.6" x2="607.5" y2="358.6" xlink:href="#e"/><linearGradient id="af" x1="577.3" y1="125.3" x2="586.1" y2="125.3" xlink:href="#d"/><linearGradient id="ag" x1="598.4" y1="346" x2="607.5" y2="346" xlink:href="#e"/><linearGradient id="ah" x1="538.2" y1="372.7" x2="547.2" y2="372.7" xlink:href="#c"/><linearGradient id="ai" x1="577.3" y1="134.8" x2="586.1" y2="134.8" xlink:href="#d"/><linearGradient id="aj" x1="598.4" y1="354.7" x2="607.5" y2="354.7" xlink:href="#e"/><linearGradient id="ak" x1="538.2" y1="381.7" x2="547.2" y2="381.7" xlink:href="#c"/><linearGradient id="al" x1="577.3" y1="144.8" x2="586.1" y2="144.8" xlink:href="#d"/><linearGradient id="am" x1="598.4" y1="364.3" x2="607.5" y2="364.3" xlink:href="#e"/><linearGradient id="an" x1="538.2" y1="369.7" x2="547.2" y2="369.7" xlink:href="#c"/><linearGradient id="ao" x1="577.3" y1="132.1" x2="586.1" y2="132.1" xlink:href="#d"/><linearGradient id="ap" x1="598.4" y1="351.7" x2="607.5" y2="351.7" xlink:href="#e"/><linearGradient id="aq" x1="581.5" y1="144.5" x2="590.2" y2="144.5" xlink:href="#d"/><linearGradient id="ar" x1="598.4" y1="364.6" x2="607.5" y2="364.6" xlink:href="#e"/><linearGradient id="as" x1="598.4" y1="373.6" x2="607.5" y2="373.6" xlink:href="#e"/><linearGradient id="at" x1="598.4" y1="367.9" x2="607.5" y2="367.9" xlink:href="#e"/><linearGradient id="f" x1="25" y1="174.5" x2="31.7" y2="174.5" gradientTransform="matrix(1 0 0 -1 0 336.1)" gradientUnits="userSpaceOnUse"><stop offset="0" stop-color="#ddc600"/><stop offset=".5" stop-color="#e19c00"/><stop offset="1" stop-color="#e09300"/></linearGradient><linearGradient id="au" x1="28.2" y1="162.3" x2="34.9" y2="162.3" xlink:href="#f"/><linearGradient id="g" x1="25" y1="169.8" x2="34.9" y2="169.8" gradientTransform="matrix(1 0 0 -1 0 336.1)" gradientUnits="userSpaceOnUse"><stop offset="0" stop-color="#fff008"/><stop offset=".5" stop-color="#ffc200"/><stop offset="1" stop-color="#ffb400"/></linearGradient><linearGradient id="av" y1="174.1" y2="174.1" xlink:href="#f"/><linearGradient id="aw" x1="28.2" y1="166.8" x2="34.9" y2="166.8" xlink:href="#f"/><linearGradient id="ax" y1="166.8" x2="34.9" y2="166.8" xlink:href="#g"/><linearGradient id="ay" x1="23" y1="253.2" x2="29.7" y2="253.2" xlink:href="#f"/><linearGradient id="az" x1="23" y1="256.5" x2="29.7" y2="256.5" xlink:href="#f"/><linearGradient id="aA" x1="19.8" y1="263.9" x2="29.7" y2="263.9" xlink:href="#g"/><linearGradient id="aB" x1="23" y1="260.6" x2="29.7" y2="260.6" xlink:href="#f"/><linearGradient id="aC" x1="19.8" y1="260.6" x2="29.7" y2="260.6" xlink:href="#g"/><linearGradient id="aD" x1="26.3" y1="241.2" x2="32.9" y2="241.2" xlink:href="#f"/><linearGradient id="aE" x1="23" y1="248.4" x2="33" y2="248.4" xlink:href="#g"/><linearGradient id="aF" x1="23" y1="253.1" x2="29.7" y2="253.1" xlink:href="#f"/><linearGradient id="aG" x1="23" y1="253.1" x2="33" y2="253.1" xlink:href="#g"/><linearGradient id="aH" x1="26.3" y1="245.6" x2="32.9" y2="245.6" xlink:href="#f"/><linearGradient id="aI" x1="23" y1="245.6" x2="33" y2="245.6" xlink:href="#g"/><linearGradient id="h" x1="16" y1="280.5" x2="10.3" y2="280.5" gradientTransform="matrix(1 0 0 -1 0 336.1)" gradientUnits="userSpaceOnUse"><stop offset="0" stop-color="#1ab1d4"/><stop offset=".5" stop-color="#007bb1"/><stop offset="1" stop-color="#0066a2"/></linearGradient><linearGradient id="aJ" y1="283.8" y2="283.8" xlink:href="#h"/><linearGradient id="aK" x1="49.3" y1="1069" x2="61.6" y2="1069" gradientTransform="matrix(.7 0 0 .9 -27 -916.2)" xlink:href="#a"/><linearGradient id="aL" y1="286.8" y2="286.8" xlink:href="#h"/><linearGradient id="aM" x1="49.3" y1="1072.8" x2="61.6" y2="1072.8" gradientTransform="matrix(.7 0 0 .9 -27 -916.2)" xlink:href="#a"/><linearGradient id="aN" x1="18.8" y1="267.4" x2="13" y2="267.4" xlink:href="#h"/><linearGradient id="aO" x1="18.8" y1="270.8" x2="13" y2="270.8" xlink:href="#h"/><linearGradient id="aP" x1="53.2" y1="1084" x2="65.5" y2="1084" gradientTransform="matrix(.7 0 0 .9 -27 -916.2)" xlink:href="#a"/><linearGradient id="aQ" x1="16" y1="280.3" x2="10.3" y2="280.3" xlink:href="#h"/><linearGradient id="aR" x1="53.2" y1="1079.9" x2="65.5" y2="1079.9" gradientTransform="matrix(.7 0 0 .9 -27 -916.2)" xlink:href="#a"/><linearGradient id="aS" x1="16.1" y1="286.8" y2="286.8" gradientTransform="matrix(1 0 0 -1 2.7 348.9)" xlink:href="#h"/><linearGradient id="aT" x1="53.2" y1="1087" x2="65.5" y2="1087" gradientTransform="matrix(.7 0 0 .9 -27 -916.2)" xlink:href="#a"/><linearGradient id="aU" x1="21.6" y1="257.6" x2="15.8" y2="257.6" xlink:href="#h"/><linearGradient id="aV" x1="57.2" y1="1098.2" x2="69.5" y2="1098.2" gradientTransform="matrix(.7 0 0 .9 -27 -916.2)" xlink:href="#a"/><linearGradient id="aW" x1="18.8" y1="267.4" x2="13" y2="267.4" xlink:href="#h"/><linearGradient id="aX" x1="57.2" y1="1094.3" x2="69.5" y2="1094.3" gradientTransform="matrix(.7 0 0 .9 -27 -916.2)" xlink:href="#a"/><linearGradient id="aY" x1="16.1" y1="286.8" y2="286.8" gradientTransform="matrix(1 0 0 -1 5.5 361.9)" xlink:href="#h"/><linearGradient id="aZ" x1="57.2" y1="1101.4" x2="69.5" y2="1101.4" gradientTransform="matrix(.7 0 0 .9 -27 -916.2)" xlink:href="#a"/><linearGradient id="ba" x1="260.9" y1="404.3" x2="269" y2="404.3" gradientTransform="scale(-1 1) rotate(80.8 263.432 -13.994)" xlink:href="#b"/><linearGradient id="bb" x1="264.8" y1="404.2" x2="272.9" y2="404.2" gradientTransform="scale(-1 1) rotate(80.8 263.432 -13.994)" xlink:href="#c"/><linearGradient id="bc" x1="345.5" y1="285.7" x2="353.4" y2="285.7" gradientTransform="scale(1 -1) rotate(-73.2 14.627 245.999)" xlink:href="#d"/><linearGradient id="bd" x1="349.3" y1="285.8" x2="357.1" y2="285.8" gradientTransform="scale(1 -1) rotate(-73.2 14.627 245.999)" xlink:href="#d"/><linearGradient id="be" x1="65.8" y1="485.5" x2="74" y2="485.5" gradientTransform="scale(-1 1) rotate(32.3 728.784 -129.073)" xlink:href="#b"/><linearGradient id="bf" x1="69.8" y1="486.3" x2="77.8" y2="486.3" gradientTransform="scale(-1 1) rotate(32.3 728.784 -129.073)" xlink:href="#c"/><linearGradient id="bg" x1="206.6" y1="443.7" x2="214.4" y2="443.7" gradientTransform="scale(-1 1) rotate(58.4 387.045 -78.24)" xlink:href="#d"/><linearGradient id="bh" x1="210.3" y1="443.7" x2="218.2" y2="443.7" gradientTransform="scale(-1 1) rotate(58.4 387.045 -78.24)" xlink:href="#d"/><linearGradient id="bi" x1="309.1" y1="107" x2="317.3" y2="107" gradientTransform="rotate(80.8 280.632 6.216)" xlink:href="#b"/><linearGradient id="bj" x1="313" y1="106.9" x2="321.1" y2="106.9" gradientTransform="rotate(80.8 280.632 6.216)" xlink:href="#c"/><linearGradient id="bk" x1="258.6" y1="-2.5" x2="266.5" y2="-2.5" gradientTransform="rotate(106.8 199.945 1.948)" xlink:href="#d"/><linearGradient id="bl" x1="262.4" y1="-2.4" x2="270.2" y2="-2.4" gradientTransform="rotate(106.8 199.945 1.948)" xlink:href="#d"/><linearGradient id="bm" x1="320.4" y1="324.6" x2="328.5" y2="324.6" gradientTransform="rotate(32.3 746.034 -69.505)" xlink:href="#b"/><linearGradient id="bn" x1="324.3" y1="325.4" x2="332.4" y2="325.4" gradientTransform="rotate(32.3 746.034 -69.505)" xlink:href="#c"/><linearGradient id="bo" x1="364.2" y1="187.2" x2="372" y2="187.2" gradientTransform="rotate(58.4 404.295 -47.375)" xlink:href="#d"/><linearGradient id="bp" x1="368" y1="187.2" x2="375.8" y2="187.2" gradientTransform="rotate(58.4 404.295 -47.375)" xlink:href="#d"/><linearGradient id="br" x1="212.3" y1="719.1" x2="324.1" y2="719.1" gradientTransform="translate(0 -505.8)" xlink:href="#c"/><radialGradient id="i" cx="167.8" cy="673.5" fx="167.8" fy="673.5" r="167.5" gradientTransform="translate(0 -505.8)" gradientUnits="userSpaceOnUse"><stop offset="0" stop-color="#4c2777"/><stop offset="1" stop-color="#1f1753"/></radialGradient><radialGradient id="bq" cy="57.4" fy="57.4" r="16.3" gradientTransform="matrix(1 0 0 -1 0 336.1)" xlink:href="#i"/></defs><path d="M.3.2h335v335H.3V.2Z" fill="url(#i)"/><path d="M321.3 1.9c1 0 1.8-.7 2-1.7h-1c0 .7-.3 1.3-.8 1.7h-.2Zm5 3.8c.1-.8-.2-1.6-.8-2 .4.4.6 1 .6 1.4 0 1.2-1 2.2-2 2.2s-1-.2-1.4-.5c.3.3.7.6 1.2.6 1.2.2 2.3-.6 2.5-1.8v.2h-.1Zm.8 7.1c1 .2 2-.4 2.4-1.3-.3.2-.7.4-1.2.4-1.2 0-2.2-1-2.2-2s0-.6.2-1c-.5.3-.8.8-1 1.4-.2 1.2.6 2.3 1.8 2.5Zm3.6 5.2c1.2.2 2.3-.6 2.5-1.8h-.3c-1.2 0-2.2-1-2.2-2v-.4c-1 .2-1.6.8-1.7 1.8-.2 1.2.6 2.3 1.8 2.5Zm2 2.4c-.2 1.2.6 2.3 1.8 2.5h.7v-4.3c-1.2-.2-2.2.6-2.5 1.8Z" fill="#f18e20"/><path d="M317.9.2c0 1.2 1 2 2.2 2s1-.2 1.3-.5h-.4c-1-.1-1.6-.8-1.7-1.7h-1.4v.2Z" fill="url(#a)"/><path d="M320.9 1.9h.4c.5-.4.8-1 .8-1.7h-3c.2.8 1 1.5 1.7 1.7h.1Z" fill="#f18e20"/><path d="M320.9 1.9h.4c.5-.4.8-1 .8-1.7h-3c.2.8 1 1.5 1.7 1.7h.1Z" fill="url(#j)"/><path d="M322.1 5.1c.2-1.2 1.3-2 2.5-1.8.4 0 .7.2 1 .4-.4-.4-1-.7-1.6-.7-1.2 0-2 1-2 2.2s.3 1.2.8 1.6c-.5-.5-.7-1.2-.6-2v.3Z" fill="url(#k)"/><path d="M326.1 5.1c0-.6-.2-1-.6-1.4-.3-.2-.6-.4-1-.4-1.2-.2-2.3.6-2.5 1.8-.1.7.1 1.4.6 2 .4.3 1 .5 1.4.5 1.2 0 2-1 2-2.2v-.3h.1Z" fill="#f18e20"/><path d="M326.1 5.1c0-.6-.2-1-.6-1.4-.3-.2-.6-.4-1-.4-1.2-.2-2.3.6-2.5 1.8-.1.7.1 1.4.6 2 .4.3 1 .5 1.4.5 1.2 0 2-1 2-2.2v-.3h.1Z" fill="url(#l)"/><path d="M327.9 8.7c1.2.2 2 1.3 1.8 2.5 0 .2 0 .3-.1.5.6-.4 1-1 1-1.8 0-1.2-1-2-2.2-2s-1.6.6-2 1.3c.5-.3 1-.4 1.6-.4Z" fill="url(#m)"/><path d="M328.3 12.1c.4 0 .8-.1 1.2-.4 0-.1.1-.3.1-.5.2-1.2-.6-2.3-1.8-2.5-.6-.1-1 0-1.6.4-.1.3-.2.6-.2 1 0 1.2 1 2 2.2 2Z" fill="#f18e20"/><path d="M328.3 12.1c.4 0 .8-.1 1.2-.4 0-.1.1-.3.1-.5.2-1.2-.6-2.3-1.8-2.5-.6-.1-1 0-1.6.4-.1.3-.2.6-.2 1 0 1.2 1 2 2.2 2Z" fill="url(#n)"/><path d="M331.5 13.9c1.2.2 2 1.3 1.8 2.5 1-.2 1.8-1 1.8-2.2s-1-2-2.2-2-2 .8-2 1.8h.6Z" fill="url(#o)"/><path d="M332.9 16.4h.3c.2-1.2-.6-2.3-1.8-2.5h-.8v.4c0 1.2 1 2 2.2 2Z" fill="#f18e20"/><path d="M332.9 16.4h.3c.2-1.2-.6-2.3-1.8-2.5h-.8v.4c0 1.2 1 2 2.2 2Z" fill="url(#p)"/><path d="M41.3 3.5c1.7.3 3.3-1 3.6-2.6V.2h-6.2c0 1.6 1 3 2.6 3.3Zm-5 1c.3-1.7-1-3.3-2.6-3.6s-3.3 1-3.6 2.6 1 3.3 2.6 3.6c1.6.3 3.3-1 3.6-2.6Zm-8.7 3.2c.3-1.7-1-3.3-2.6-3.6s-3.3 1-3.6 2.6c-.3 1.6 1 3.3 2.6 3.6s3.3-1 3.6-2.6Zm-8.8 3c.5-1.6-.8-3.3-2.5-3.6s-3.3 1-3.6 2.6 1 3.3 2.6 3.6 3.3-1 3.6-2.6h-.1Zm-9 2.6c.3-1.7-1-3.3-2.6-3.6s-3.3 1-3.6 2.6 1 3.3 2.6 3.6c1.6.3 3.3-1 3.6-2.6Zm-9 2c.2-1 0-2-.8-2.6v4.4c.4-.4.7-1 .8-1.6v-.2Z" fill="#f18e20"/><path d="M314.1 142.1h-1.3l-.2.5 1.5-.5Z" fill="url(#b)"/><path d="m318.9 146.6-2 .2c.3 0 .6.1.8.2l1-.4h.2Z" fill="url(#q)"/><path d="M335 164.8c0 .2.2.4.2.6v-.8h-.1v.2h-.1Z" fill="url(#r)"/><path d="M311.3 145.5c.2 0 .4 0 .6.1v.4h.2l.2-.5 2.3.5-2.2-3.2v-.1h.1v-.6h-.3c-.3-.5-.5-1-.8-1.7-2.8-1.4-5.3-3-7-5.2 2 4.6 4.4 7.7 7 10v.3Z" fill="url(#s)"/><path d="m311.7 147.3.4-1s-.2-.1-.3-.2v1.3h-.1Z" fill="url(#c)"/><path d="M335 165.1c0 .1.2.3.3.5 0-.2-.2-.4-.2-.6v.2Z" fill="url(#t)"/><path d="m308.7 147.1.7-2 2 .4c-3-2.8-5.4-6.3-7-10.1.2 3.5.8 6.4 1.8 8.8l2.8.8-.2 2Z" fill="url(#u)"/><path d="m334.9 165.1.3.3c0-.1-.2-.2-.3-.4Z" fill="url(#d)"/><path d="M332.5 162.7c-.7-.4-1.5-.7-2.2-1 1.5.8 3 1.8 4.4 3.2 0-.1-.1-.2-.2-.4-.6-.7-1.3-1.3-2-1.9Z" fill="url(#v)"/><path d="m320.6 159.1 1.2-1.4-1.8 1.3-5.7-1.6 1-1.4-1.6 1.2-1.6-.6 2.3-2-3 1.7c-1-.4-1.7-1-2.6-1.4-.5-.3-.9-.7-1.4-1H306v2l-.5-2c-3.7.1-7 0-10-1.6 10 8.7 18.7 6.5 26.8 7-.6-.1-1.2-.3-1.8-.4v.2Z" fill="url(#w)"/><path d="M335 165.1c0 .1.2.2.3.4 0-.2-.2-.3-.3-.5Z" fill="url(#x)"/><path d="M335 165.1c0 .1.2.2.3.4 0-.2-.2-.3-.3-.5Z" fill="url(#y)"/><path d="M334.5 164.5c-.1-.3-.3-.6-.5-1-.5-.4-1-.7-1.5-1 .8.6 1.4 1.2 2 2Z" fill="url(#z)"/><path d="M334.5 164.5c-.1-.3-.3-.6-.5-1-.5-.4-1-.7-1.5-1 .8.6 1.4 1.2 2 2Z" fill="url(#A)"/><path d="M330.3 161.7c-2.4-1-5-1.5-8-2-8-.6-16.7 1.6-26.8-7 2.4 4.4 5 7.2 8 9l2.4-2.4-1.7 2.8c.5.3 1 .5 1.5.7l1.4-1.3-1 1.5c1.4.6 2.9 1 4.4 1.2l2.4-2.4-1.6 2.5c.5 0 1 .1 1.7.2l1.2-1.6-.7 1.6c2 .1 3.8 0 5.7 0l1.3-1.7-.7 1.6c5.5-.3 10.7-1 14.8 1 0-.1-.1-.2-.1-.3-1.5-1.4-3-2.4-4.4-3.2l.2-.2Z" fill="url(#B)"/><path d="M334.9 165.3c.1 0 .2.1.3.1l-.3-.3v.2Z" fill="url(#C)"/><path d="M335.3 156.1c-.6-4.4-2.4-7.8-4.8-10.7l-2.8 2.2 2.2-3c-2.7-3-6-5.5-9.2-7.8l-1.4 1.3 1-1.6-2.2-1.6-1.5 1.6 1-2c-3.2-2.5-6-5-7.3-8.2 3.3 19.6 18.4 20.3 23.2 32.8l1.6 4.7c0-.4.1-.7.1-1v-6.7Zm-.3 9v-.6l-.3-.3c0 .4.1.8.1 1v-.2h.2Z" fill="#ffdc00"/><path d="M312.5 142.3h1.6l-1.5.4h-.3v.3c.6 1.2 1.4 2.2 2.2 3.2.8.2 1.5.4 2.3.6l2-.2-1 .4 5.5 2-.8 3.3 1.6-3c4 2 7.3 5 9.6 10-4.8-12.4-20-13.2-23.2-32.8-1 5.4-.7 9.7.6 13.2l3.7-.3-3.4 1c.2.6.5 1.2.8 1.7h.4v.2Zm22.2 22c-.2-.2-.5-.4-.7-.6.2.3.3.6.5 1 0 .1.1.2.2.4 0 .1.1.2.1.3 0-.3 0-.7-.1-1Z" fill="#ffbc01"/><path d="M335.3 164.4s0 .1.1.2v-.7h-.1v.5Z" fill="url(#e)"/><path d="M310.3 150.5c-.2-.2-.5-.5-.7-.8l1.5-1-2 .6c-.4-.4-.7-1-1-1.4l3-1.8-3.3 1c-.7-1-1.2-2.1-1.6-3.2-2.6-.8-5-2-6.6-3.6 3.4 5 7 8 10.8 10v.2Z" fill="url(#D)"/><path d="M314.8 152.4c.2 0 .3.1.5.2l1.2-.7-1.7.6Z" fill="url(#E)"/><path d="M323.8 153.1s.2 0 .2.1l.7-.3-1 .2Z" fill="url(#F)"/><path d="M323.8 153.1s.2 0 .2.1l.7-.3-1 .2Z" fill="url(#G)"/><path d="m319.3 148.4-2 .5c-.5-.4-1-1-1.3-1.3l2-.6c-.3 0-.6-.1-.8-.2h-1.9c-.2 0-.4-.3-.6-.6-.8-.2-1.6-.3-2.3-.5v.5c2.2 2 4.6 3.2 7 4.4-.5-.4-1-.8-1.5-1.3l1.7-1h-.3Z" fill="url(#H)"/><path d="m319.3 148.4-2 .5c-.5-.4-1-1-1.3-1.3l2-.6c-.3 0-.6-.1-.8-.2h-1.9c-.2 0-.4-.3-.6-.6-.8-.2-1.6-.3-2.3-.5v.5c2.2 2 4.6 3.2 7 4.4-.5-.4-1-.8-1.5-1.3l1.7-1h-.3Z" fill="url(#I)"/><path d="M311.3 145.5c.2.2.4.3.5.5v-.4c-.2 0-.4 0-.5-.1Z" fill="url(#J)"/><path d="M311.3 145.5c.2.2.4.3.5.5v-.4c-.2 0-.4 0-.5-.1Z" fill="url(#K)"/><path d="m311.1 146.3-3 1.8 1 1.4 2-.6-1.5 1c.2.3.5.5.7.8 1.5.8 3 1.4 4.5 2l1.7-.6-1.2.7 4.5 1.4c.2 0 .5.1.8.2 1.7.2 3.4.7 5 1.5-.9-.6-1.8-1.3-2.7-2l1-.6s-.2 0-.2-.1l-1.4.3-3.4-2.7c-2.4-1.2-4.8-2.7-6.9-4.4l-.4 1v-1.3l-.4-.5-2-.4-.7 2 .2-2-2.8-.8c.4 1 1 2.2 1.6 3.2l3.3-1 .3-.3Z" fill="url(#L)"/><path d="m311.1 146.3-3 1.8 1 1.4 2-.6-1.5 1c.2.3.5.5.7.8 1.5.8 3 1.4 4.5 2l1.7-.6-1.2.7 4.5 1.4c.2 0 .5.1.8.2 1.7.2 3.4.7 5 1.5-.9-.6-1.8-1.3-2.7-2l1-.6s-.2 0-.2-.1l-1.4.3-3.4-2.7c-2.4-1.2-4.8-2.7-6.9-4.4l-.4 1v-1.3l-.4-.5-2-.4-.7 2 .2-2-2.8-.8c.4 1 1 2.2 1.6 3.2l3.3-1 .3-.3Z" fill="url(#M)"/><path d="M325.7 155.6c-1.6-.8-3.3-1.3-5-1.6 2 .7 4 1.3 6 2.2-.3-.2-.5-.4-.8-.6h-.2Z" fill="url(#N)"/><path d="M325.7 155.6c-1.6-.8-3.3-1.3-5-1.6 2 .7 4 1.3 6 2.2-.3-.2-.5-.4-.8-.6h-.2Z" fill="url(#O)"/><path d="M325.7 155.6c-1.6-.8-3.3-1.3-5-1.6 2 .7 4 1.3 6 2.2-.3-.2-.5-.4-.8-.6h-.2Z" fill="url(#P)"/><path d="M333.6 159.3c.5 1.4.9 2.8 1.1 4.3.1.2.3.4.4.6v-.3c-.4-1.8-1-3.3-1.6-4.7h.1Z" fill="#ffdc00"/><path d="M333.6 159.3c.5 1.4.9 2.8 1.1 4.3.1.2.3.4.4.6v-.3c-.4-1.8-1-3.3-1.6-4.7h.1Z" fill="url(#Q)"/><path d="m323.9 149.1-1.6 3 .8-3.3c-1.8-.8-3.6-1.4-5.5-2l-2 .6 1.3 1.3 2-.5-1.7 1 1.5 1.3 3.4 2.7 1.4-.3 1-.2-.7.3-1 .6c1 .7 1.8 1.3 2.7 2 .3.2.5.4.8.6 3 1.5 6 3.6 8.2 7.4-.2-1.5-.6-2.9-1.1-4.3-2.3-5-5.7-8-9.6-10h.1v-.2Z" fill="#ffbc01"/><path d="m323.9 149.1-1.6 3 .8-3.3c-1.8-.8-3.6-1.4-5.5-2l-2 .6 1.3 1.3 2-.5-1.7 1 1.5 1.3 3.4 2.7 1.4-.3 1-.2-.7.3-1 .6c1 .7 1.8 1.3 2.7 2 .3.2.5.4.8.6 3 1.5 6 3.6 8.2 7.4-.2-1.5-.6-2.9-1.1-4.3-2.3-5-5.7-8-9.6-10h.1v-.2Z" fill="url(#R)"/><path d="m316.9 146.8-2.3-.6c.2.2.4.5.6.7h1.7Z" fill="#ffbc01"/><path d="m316.9 146.8-2.3-.6c.2.2.4.5.6.7h1.7Z" fill="url(#S)"/><path d="M308.6 154.8s.1 0 .1.1v-1c1.8-.1 3.6-.2 5.4-.2 0 0-.1 0-.2-.1l1.4-1c-.2 0-.3-.1-.5-.2l-1.6.5-3-2.4c-3.8-2-7.5-4.8-10.8-10 1 5 3 8.6 5.5 11.2l3-1.7-2.5 2.3c.4.4 1 .8 1.3 1.2l1.7-1-1.4 1.2h1l.2 1h.4Z" fill="url(#T)"/><path d="M316.9 153.6h.1l.2-.2-.3.2Z" fill="url(#U)"/><path d="M335.1 164.3v.2h.1v-.2h-.1Z" fill="url(#V)"/><path d="M335.1 164.3v.2h.1v-.2h-.1Z" fill="url(#W)"/><path d="m316.9 153.6.3-.2-.2.2c1 0 2 .1 2.8.3-1.5-.4-3-1-4.5-1.4l-1.4 1s.1 0 .2.1h2.8Z" fill="url(#X)"/><path d="m316.9 153.6.3-.2-.2.2c1 0 2 .1 2.8.3-1.5-.4-3-1-4.5-1.4l-1.4 1s.1 0 .2.1h2.8Z" fill="url(#Y)"/><path d="m313.3 152.9 1.6-.5c-1.5-.5-3-1-4.5-2 1 1 2 1.7 3 2.4h-.1Z" fill="url(#Z)"/><path d="m313.3 152.9 1.6-.5c-1.5-.5-3-1-4.5-2 1 1 2 1.7 3 2.4h-.1Z" fill="url(#aa)"/><path d="m320.1 156.6.5-2.5c-.2 0-.5-.1-.8-.2v2.7h.3Z" fill="url(#ab)"/><path d="m320.1 156.6.5-2.5c-.2 0-.5-.1-.8-.2v2.7h.3Z" fill="url(#ac)"/><path d="m321.7 157.4 1.4-1.2-2 1c-.4-.2-.8-.3-1-.5-1.5-.5-2.9-1.2-4.2-2l1.2-1h-.1l-1.5.7c-.4-.2-1-.5-1.3-.8l-5.3.2v1c.8.5 1.6 1 2.5 1.4l3-1.7-2.3 2 1.6.6 1.6-1.2-1 1.4 5.7 1.6 1.8-1.3-1.2 1.4 1.8.4c2.7.2 5.3.8 8 2l2.2 1c-3-2.2-6.8-3.6-10.8-5.3v.3Z" fill="url(#ad)"/><path d="m321.7 157.4 1.4-1.2-2 1c-.4-.2-.8-.3-1-.5-1.5-.5-2.9-1.2-4.2-2l1.2-1h-.1l-1.5.7c-.4-.2-1-.5-1.3-.8l-5.3.2v1c.8.5 1.6 1 2.5 1.4l3-1.7-2.3 2 1.6.6 1.6-1.2-1 1.4 5.7 1.6 1.8-1.3-1.2 1.4 1.8.4c2.7.2 5.3.8 8 2l2.2 1c-3-2.2-6.8-3.6-10.8-5.3v.3Z" fill="url(#ae)"/><path d="M308.5 153.8h-1l1.3 1-.2-1Z" fill="url(#af)"/><path d="M308.5 153.8h-1l1.3 1-.2-1Z" fill="url(#ag)"/><path d="m315.9 154.6 4 2v-2.7l-3-.3-1.2 1h.2Z" fill="url(#ah)"/><path d="m315.9 154.6 4 2v-2.7l-3-.3-1.2 1h.2Z" fill="url(#ai)"/><path d="m315.9 154.6 4 2v-2.7l-3-.3-1.2 1h.2Z" fill="url(#aj)"/><path d="M326.5 156.1c-2-1-4-1.5-6-2l-.5 2.5 1 .5 2-1-1.4 1.2c4 1.7 8 3 10.8 5.3l1.5 1c-1.7-2.8-4.5-5-7.6-7.4h.2Z" fill="url(#ak)"/><path d="M326.5 156.1c-2-1-4-1.5-6-2l-.5 2.5 1 .5 2-1-1.4 1.2c4 1.7 8 3 10.8 5.3l1.5 1c-1.7-2.8-4.5-5-7.6-7.4h.2Z" fill="url(#al)"/><path d="M326.5 156.1c-2-1-4-1.5-6-2l-.5 2.5 1 .5 2-1-1.4 1.2c4 1.7 8 3 10.8 5.3l1.5 1c-1.7-2.8-4.5-5-7.6-7.4h.2Z" fill="url(#am)"/><path d="M316.9 153.6h-2.8l1.3.8 1.5-.7Z" fill="url(#an)"/><path d="M316.9 153.6h-2.8l1.3.8 1.5-.7Z" fill="url(#ao)"/><path d="M316.9 153.6h-2.8l1.3.8 1.5-.7Z" fill="url(#ap)"/><path d="M330.3 161.7c-2.6-1.3-5.2-2-8-2 2.8.6 5.5 1.2 8 2Z" fill="url(#aq)"/><path d="M330.3 161.7c-2.6-1.3-5.2-2-8-2 2.8.6 5.5 1.2 8 2Z" fill="url(#ar)"/><path d="M334.8 164.1c.1 0 .2.2.3.3v-.2c-.1-.2-.3-.4-.4-.6v.6h.1Z" fill="#ffdc00"/><path d="M334.8 164.1c.1 0 .2.2.3.3v-.2c-.1-.2-.3-.4-.4-.6v.6h.1Z" fill="url(#as)"/><path d="M326.5 156.1c3 2.3 6 4.6 7.6 7.4.2.2.5.4.7.6v-.6c-2.3-3.8-5-6-8.2-7.4h-.1Z" fill="#ffbc01"/><path d="M326.5 156.1c3 2.3 6 4.6 7.6 7.4.2.2.5.4.7.6v-.6c-2.3-3.8-5-6-8.2-7.4h-.1Z" fill="url(#at)"/><path d="M24.7 161.1c0 .4.1.8.2 1l-.2-1Z" fill="url(#f)"/><path d="M33.1 170.1c-.2.2-.5.4-.7.6l-1 1-1.2 1c-.2.1-.3.3-.5.4-1 1-1.6 1.8-1.6 3.2s.2 1 .5 1.6c.2-.7.6-1.2 1.2-1.7.5-.5 1-1 1.7-1.4l1-.8c.2-.2.5-.4.7-.6l.5-.5c.6-.6 1-1.4 1-2.3l-1-1s0 .1-.2.2c-.2.2-.3.4-.5.6v-.3Z" fill="url(#au)"/><path d="M34.8 169.9v.5c0-.7 0-1-.2-1.7-.5-1.2-.4-1.8-1.8-2.6-2.7-1.4-5-2-7-4-.2.2-.3.5-.4.8 0-.1-.1-.3-.2-.5.5 2 1.7 3.2 3.3 4 2.5 1.3 3.8 1.4 5.5 3l.6-1c.3.5.5 1 .5 1.7h-.2v-.2Z" fill="url(#g)"/><path d="M25.5 162.1c-.3-.3-.6-.6-.8-1 0 .5.1 1 .2 1.2 0 .2.1.3.2.5 0-.3.2-.6.4-.8Z" fill="url(#av)"/><path d="M34.7 170.4v-.5c0-.6-.2-1.2-.5-1.7 0 .4-.3.8-.6 1 .3.3.7.6 1 1v.2Z" fill="url(#aw)"/><path d="M34.7 170.4v-.5c0-.6-.2-1.2-.5-1.7 0 .4-.3.8-.6 1 .3.3.7.6 1 1v.2Z" fill="url(#ax)"/><path d="M22.7 82.4c0 .4.1.8.2 1l-.2-1Z" fill="url(#ay)"/><path d="M28.3 75.7s0 .2-.1.2c-.1.2-.3.4-.5.6s-.5.4-.7.6l-1 1-1.2 1c-.2 0-.3.3-.5.4-1 .8-1.6 1.8-1.6 3 .3.3.5.7.8 1 .2-.3.5-.7.8-1 .5-.5 1-1 1.7-1.4l1-.8c.2-.2.5-.4.7-.6s.4-.3.5-.5c.6-.6 1-1.4 1-2.3l-1-1h.1v-.2Z" fill="url(#az)"/><path d="M19.3 67.4c.3 2.6 1.6 4.3 3.6 5.4 2.5 1.3 3.8 1.4 5.4 3 .2-.3.4-.7.6-1 .3.5.5 1 .5 1.7v.5c0-.7 0-1-.2-1.7-.5-1.2-.4-1.8-1.8-2.6-3-1.6-5.7-2-8-5h-.1v-.3Z" fill="url(#aA)"/><path d="M29 74.5c-.1.4-.3.8-.6 1l1 1v-.4c0-.7-.2-1.2-.5-1.7h.1Z" fill="url(#aB)"/><path d="M29 74.5c-.1.4-.3.8-.6 1l1 1v-.4c0-.7-.2-1.2-.5-1.7h.1Z" fill="url(#aC)"/><path d="M31.7 90.6s0 .2-.1.2c-.1.2-.3.4-.5.6s-.5.4-.7.6l-1 1-1.2 1c-.2 0-.3.3-.5.4-1 1-1.6 1.8-1.6 3.2s.2 1 .5 1.6c.2-.7.6-1.2 1.2-1.7.5-.5 1-1 1.7-1.4l1-.8c.2-.2.5-.4.7-.6s.4-.3.5-.5c.6-.6 1-1.4 1-2.3l-1-1v-.3Z" fill="url(#aD)"/><path d="M22.9 83.6c.5 2 1.7 3.2 3.3 4 2.5 1.3 3.8 1.4 5.5 3 .2-.3.4-.7.6-1 .3.5.4 1 .5 1.7v.5c0-.7 0-1-.2-1.7-.5-1.2-.4-1.8-1.8-2.6-2.7-1.4-5-2-7-4-.2.2-.3.5-.4.8 0-.2-.1-.3-.2-.5H23v-.2Z" fill="url(#aE)"/><path d="M22.7 82.4c0 .4.1.8.2 1 0 .2.1.3.2.5 0-.3.2-.6.4-.8-.3-.3-.6-.6-.8-1v.3Z" fill="url(#aF)"/><path d="M22.7 82.4c0 .4.1.8.2 1 0 .2.1.3.2.5 0-.3.2-.6.4-.8-.3-.3-.6-.6-.8-1v.3Z" fill="url(#aG)"/><path d="M32.3 89.5c-.1.4-.3.8-.6 1l1 1v-.4c0-.7-.2-1.2-.5-1.7Z" fill="url(#aH)"/><path d="M32.3 89.5c-.1.4-.3.8-.6 1l1 1v-.4c0-.7-.2-1.2-.5-1.7Z" fill="url(#aI)"/><path d="M9.7 55.1c0 .4.1.7.2 1 0-.3-.2-.6-.2-1Z" fill="url(#h)"/><path d="M14.7 49.1v.2c-.2.2-.4.3-.5.5l-.6.5c-.3.3-.6.5-1 .8l-1 .8c-.1 0-.3.2-.4.3-.8.7-1.4 1.5-1.4 2.6.2.3.5.6.7.8.2-.3.4-.6.7-.8.4-.5 1-.8 1.5-1.2l1-.7c.2-.2.4-.3.6-.5s.3-.3.4-.5c.5-.6.8-1.2 1-2l-1-1h.1v.2Z" fill="url(#aJ)"/><path d="M10 46.7c2.2 1 3.3 1.2 4.7 2.5.2-.3.4-.6.5-1 .2.4.4 1 .4 1.4v.4c0-.6 0-1-.2-1.5-.4-1-.4-1.6-1.6-2.2-2.7-1.3-5-1.8-7-4.4.3 2.2 1.4 3.7 3 4.7h.2Z" fill="url(#aK)"/><path d="M15.3 48.3c-.1.4-.3.7-.5 1 .3.2.6.5 1 1v-.4c0-.6-.2-1-.4-1.4v-.2Z" fill="url(#aL)"/><path d="M15.3 48.3c-.1.4-.3.7-.5 1 .3.2.6.5 1 1v-.4c0-.6-.2-1-.4-1.4v-.2Z" fill="url(#aM)"/><path d="M12.5 68.1c0 .5.1 1 .4 1.3-.2-.4-.3-1-.3-1.5v.2Z" fill="url(#aN)"/><path d="M17.5 62.1v.2c-.2.2-.4.3-.5.5l-.6.5c-.3.3-.6.5-1 .8l-1 .8c-.1 0-.3.2-.4.3-.8.7-1.4 1.5-1.4 2.6.2.3.5.6.8.8.2-.3.4-.5.6-.8.4-.5 1-.8 1.5-1.2l1-.7c.2-.2.4-.3.6-.5l.4-.4c.5-.6.8-1.2 1-2l-1-1Z" fill="url(#aO)"/><path d="M9.9 56.1c.5 1.6 1.4 2.8 3 3.6 2.2 1 3.3 1.2 4.7 2.5.2-.3.4-.6.5-1 .2.4.4 1 .4 1.4v.4c0-.6 0-1-.2-1.5-.4-1-.4-1.6-1.6-2.2-2.4-1.2-4.4-1.7-6.4-3.5-.1.2-.3.4-.3.7 0 0-.1-.3-.2-.4h.1Z" fill="url(#aP)"/><path d="M9.7 55.1c0 .3.1.7.2 1 0 0 .1.3.2.4 0-.2.2-.5.3-.7-.3-.2-.5-.5-.7-.8Z" fill="url(#aQ)"/><path d="M9.7 55.1c0 .3.1.7.2 1 0 0 .1.3.2.4 0-.2.2-.5.3-.7-.3-.2-.5-.5-.7-.8Z" fill="url(#aR)"/><path d="M18 61.1c-.1.4-.3.7-.5 1 .3.2.6.5 1 1v-.4c0-.6-.2-1-.4-1.4v-.2Z" fill="url(#aS)"/><path d="M18 61.1c-.1.4-.3.7-.5 1 .3.2.6.5 1 1v-.4c0-.6-.2-1-.4-1.4v-.2Z" fill="url(#aT)"/><path d="M20.3 75.1c-.2.2-.4.3-.5.5l-.6.5c-.3.3-.6.5-1 .8l-1 .8c-.1 0-.3.2-.4.3-.8.7-1.4 1.6-1.4 2.7s.2 1 .4 1.4c.2-.6.6-1 1-1.5s1-.8 1.5-1.2l1-.7c.2-.2.4-.3.6-.5l.4-.4c.5-.6.8-1.2 1-2l-1-1v.3Z" fill="url(#aU)"/><path d="M12.9 69.3c.5 1.4 1.4 2.4 2.8 3.2 2.2 1 3.3 1.2 4.7 2.5.2-.3.4-.6.5-1 .2.4.4 1 .4 1.4v.4c0-.6 0-1-.2-1.5-.4-1-.4-1.6-1.6-2.2-2.3-1.2-4.4-1.7-6.2-3.5-.1.2-.3.5-.4.7Z" fill="url(#aV)"/><path d="M12.5 67.9c0 .5.2 1 .3 1.5 0-.3.2-.5.4-.7l-.8-.8h.1Z" fill="url(#aW)"/><path d="M12.5 67.9c0 .5.2 1 .3 1.5 0-.3.2-.5.4-.7l-.8-.8h.1Z" fill="url(#aX)"/><path d="M20.8 74.1c-.1.4-.3.7-.5 1 .3.2.6.5 1 1v-.4c0-.6-.2-1-.4-1.4v-.2Z" fill="url(#aY)"/><path d="M20.8 74.1c-.1.4-.3.7-.5 1 .3.2.6.5 1 1v-.4c0-.6-.2-1-.4-1.4v-.2Z" fill="url(#aZ)"/><path d="M129.9 53.3c2.8 1 6 .6 9.3 0l.6 1.8v-1.8c.6-.2 1.3-.3 2-.5l.5 1.5v-1.5l10-1.5.6 3 .2-3c5 0 10.2 2 15 8.3-12.7-9.4-22 4-38.2-6.2Z" fill="url(#ba)"/><path d="M168.1 59.5c-4-1.4-9 0-14 1l.4-1.6-1 1.7c-1.7.4-3.5.7-5.2.9l.4-1.6-1 1.6h-1.6l1-2.5-2 2.5c-1.4 0-2.8 0-4.2-.5l.6-1.5-1 1.4c-.5 0-1-.3-1.5-.5l1.2-2.8-2 2.5c-3-1.2-6-3.4-8.7-7 16.2 10 25.5-3.2 38.2 6.2l.2.2h.2Z" fill="url(#bb)"/><path d="M132.3 70.4c2.8-.3 5.4-2 8-4l1.3 1.3-1-1.5c.6-.4 1.2-1 1.7-1.4l1 1-.8-1.3c2.5-2 5-4 8-5.6l1.8 2.4-1-2.7c4.5-2 9.8-2.6 16.6.8-15-2.8-17.4 12.8-35.8 10.8l.2.2Z" fill="url(#bc)"/><path d="M168.1 59.5c-4 .5-7.8 3.7-11.8 7l-.3-1.6v2l-4.3 3-.3-1.5v1.7c-.5.3-1 .5-1.4.8v-2.8l-.7 3c-1.2.6-2.5 1-4 1.4v-1.4l-.4 1.7c-.5 0-1 .2-1.5.2v-3l-.7 3c-3 .2-6.5-.4-10.5-2.4 18.4 2 20.8-13.6 35.8-10.8v-.3Z" fill="url(#bd)"/><path d="M129 59.7c3 .5 6-.4 9-1.7l1 1.6-.5-1.8 2-1 .7 1.3-.4-1.5c3-1.3 6.3-2.7 9.7-3.3l1 3-.4-3c5-.8 10.5.2 16.3 5.5-14.2-7-21 7.8-38.8.7l.2.2h.2Z" fill="#dedee2"/><path d="M167.8 58.9c-4.3-.7-8.8 1.5-13.7 3.5v-1.7l-.5 2c-1.6.7-3.3 1.3-5 1.8v-1.6l-.4 1.7c-.5.2-1 .3-1.5.4l.6-2.7-1.4 2.8c-1.4.2-2.8.4-4.3.3l.4-1.6-.8 1.6c-.5 0-1 0-1.6-.2l.7-3-1.4 2.8c-3-.7-6.4-2.3-9.8-5.4 17.8 7 24.6-7.7 38.8-.7h-.1Z" fill="#bcbcbc"/><path d="M129.8 43.7c2.6 1.7 6 2.2 9.6 2.3l.2 2 .3-2h2.4v1.6l.4-1.6c3.5 0 7.3 0 10.8 1l-.2 3.3 1-3c5.2 1.4 10 4.7 13.5 12.4-10.8-13-23.7-1.4-38-16Z" fill="#ffdc00"/><path d="M167.8 59.6c-4-2.5-9.2-2.3-14.8-2.4l1-1.6-1.4 1.5c-1.9 0-3.7-.2-5.6-.4l.8-1.5-1.3 1.4c-.6 0-1-.2-1.7-.3l1.5-2.2-2.6 2c-1.5-.4-3-1-4.3-1.6l1-1.4-1.4 1.2c-.5-.3-1-.5-1.4-.8l2-2.6-2.6 2c-2.8-2-5.2-5-7.2-9.4 14.2 14.5 27.2 3 38 16Z" fill="#ffbc01"/><path d="M144.3 23.3c1 2.7 3.4 5 6.2 7l-1 1.6 1.3-1.3c.6.5 1.2 1 2 1.4l-.8 1.3 1-1c2.7 2 5.5 4 7.8 6.5l-2 2.4 2.4-2c3.3 4 5.2 9 3.8 16.8-1.1-15.9-17.2-13.9-20.4-32.9h-.2v.2Z" fill="url(#be)"/><path d="M165.1 56.1c-1.6-4-6-6.7-10-9.8l1.5-.7-2 .4-4-3.3 1.4-.7-1.8.4-1-1 2.6-1-3 .3c-1-1-1.8-2.2-2.5-3.5l1.6-.5h-1.8c-.2-.3-.4-.8-.6-1.3l3-1-3 .3c-1-3-1.4-6.6-.5-11 3.2 18.8 19.3 17 20.7 32.7l-.6-.3Z" fill="url(#bf)"/><path d="M133.3 36.3c2 2 5 2.8 8.3 3.4v1.8l.4-1.7c.7 0 1.4.3 2.2.4v1.5l.3-1.4 9.6 2.4-.6 3 1.2-2.6c4.5 2 8.4 5.6 10.4 13-8-13-21-4.6-31.8-19.6v-.2Z" fill="url(#bg)"/><path d="M165.1 56.1c-3-2.8-8-3.3-13-4.3l1-1.3-1.5 1.2c-1.7-.3-3.4-.7-5-1.2l1-1.2-1.4 1c-.5-.2-1-.3-1.4-.5l2-1.8-2.6 1.5c-1.3-.5-2.5-1.2-3.6-2l1-1-1.5 1c-.4-.3-.8-.6-1.2-1l2-2-2.6 1.5c-2.2-2.2-4-5.2-5.2-9.5 10.8 15 24 6.5 31.8 19.6h.2Z" fill="url(#bh)"/><path d="M139.1 26.8c1.6 2.5 4.3 4.2 7.3 5.7l-.6 1.8 1-1.5c.7.3 1.4.7 2 1l-.5 1.3.8-1.3c3 1.4 6.2 3 9 5l-1.4 2.7 2-2.3c4 3.3 6.8 8 6.7 16-4-15.2-19.7-10.5-26.2-28.5h-.1Z" fill="#dedee2"/><path d="M165.3 55.4c-2.3-3.7-7-5.6-11.7-8l1.4-1-1.8.8c-1.6-.8-3.2-1.6-4.7-2.6l1.3-1-1.7.7c-.4-.3-1-.6-1.3-1l2.5-1.2-3 .8c-1.1-.9-2.1-1.9-3.1-3l1.4-.8-1.7.5-1-1.3 2.7-1.5-3 .8c-1.6-2.8-2.5-6.3-2.5-11 6.5 18 22 13.3 26.2 28.5h.1v.3Z" fill="#bcbcbc"/><path d="M151.6 16.8c.5 3 2.4 6 4.6 8.7l-1.4 1.4 1.7-1c.5.6 1 1.2 1.6 2l-1 1.2 1.4-1 6.4 8.7-2.6 2 3-1.3c2.4 5 3.2 10.7-.3 18.3 2.5-16.6-14.7-18.7-13.2-39h-.2Z" fill="#ffdc00"/><path d="M164.8 55.8c-.7-4.5-4.4-8.4-8-12.7l1.7-.4h-2l-3.4-4.5 1.7-.4h-2l-1-1.5 3-.2-3.3-.5c-.7-1.3-1.3-2.7-1.7-4.2h1.7l-2-.4-.3-1.6 3.2-.3-3.3-.5c-.3-3.4.2-7.2 2.3-11.7-1.4 20.3 15.8 22.4 13.2 39h.2Z" fill="#ffbc01"/><path d="M205.7 53.3c-2.8 1-6 .6-9.3 0l-.6 1.8v-1.8c-.6-.2-1.3-.3-2-.5l-.5 1.5v-1.5c-3-.7-6.5-1.5-10-1.5l-.6 3-.2-3c-5 0-10.2 2-15 8.3 12.7-9.4 22 4 38.2-6.2Z" fill="url(#bi)"/><path d="M167.5 59.5c4-1.4 9 0 14 1l-.4-1.6 1 1.7 5.2 1-.4-1.6 1 1.6h1.6l-1-2.5 2 2.5c1.4 0 2.8 0 4.2-.5l-.6-1.5 1 1.4c.5 0 1-.3 1.5-.5l-1.2-2.8 2 2.5c3-1.2 6-3.4 8.7-7-16.2 10-25.5-3.2-38.2 6.2l-.2.2h-.2Z" fill="url(#bj)"/><path d="M203.3 70.4c-2.8-.3-5.4-2-8-4l-1.3 1.3 1-1.5c-.6-.4-1.2-1-1.7-1.4l-1 1 .8-1.3-8-5.6-1.8 2.4 1-2.7c-4.5-2-9.8-2.6-16.6.8 15-2.8 17.4 12.8 35.8 10.8l-.2.2Z" fill="url(#bk)"/><path d="M167.5 59.5c4 .5 7.8 3.7 11.8 7l.3-1.6v2c1.4 1 2.8 2 4.3 3l.3-1.5v1.7l1.4.8v-2.8l.7 3c1.2.6 2.5 1 4 1.4v-1.4l.4 1.7c.5 0 1 .2 1.5.2v-3l.7 3c3 .2 6.5-.4 10.5-2.4-18.4 2-20.8-13.6-35.8-10.8v-.3Z" fill="url(#bl)"/><path d="M206.6 59.7c-3 .5-6-.4-9-1.7l-1 1.6.5-1.8-2-1-.7 1.3.4-1.5c-3-1.3-6.3-2.7-9.7-3.3l-1 3 .4-3c-5-.8-10.5.2-16.3 5.5 14.2-7 21 7.8 38.8.7l-.2.2h-.2Z" fill="#dedee2"/><path d="M167.8 58.9c4.3-.7 8.8 1.5 13.7 3.5v-1.7l.5 2c1.6.7 3.3 1.3 5 1.8v-1.6l.4 1.7c.5.2 1 .3 1.5.4l-.6-2.9 1.4 2.8 4.3.3-.4-1.6.8 1.6c.5 0 1 0 1.6-.2l-.7-3 1.4 2.8c3-.7 6.4-2.3 9.8-5.4-17.8 7-24.6-7.7-38.8-.7h.1v.2Z" fill="#bcbcbc"/><path d="M205.8 43.7c-2.6 1.7-6 2.2-9.6 2.3l-.2 2-.3-2h-2.4v1.6l-.4-1.6c-3.5 0-7.3 0-10.8 1l.2 3.3-1-3c-5.2 1.4-10 4.7-13.5 12.4 10.8-13 23.7-1.4 38-16Z" fill="#ffdc00"/><path d="M167.8 59.6c4-2.5 9.2-2.3 14.8-2.4l-1-1.6 1.4 1.5c1.9 0 3.7-.2 5.6-.4l-.8-1.5 1.3 1.4c.6 0 1-.2 1.7-.3l-1.5-2.2 2.6 2c1.5-.4 3-1 4.3-1.6l-1-1.4 1.4 1.2 1.4-.8-2-2.6 2.6 2c2.8-2 5.2-5 7.2-9.4-14.2 14.5-27.2 3-38 16Z" fill="#ffbc01"/><path d="M191.3 23.3c-1 2.7-3.4 5-6.2 7l1 1.6-1.3-1.3c-.6.5-1.2 1-2 1.4l.8 1.3-1-1c-2.7 2-5.5 4-7.8 6.5l2 2.4-2.4-2c-3.3 4-5.2 9-3.8 16.8 1.1-15.9 17.2-13.9 20.4-32.9h.2v.2Z" fill="url(#bm)"/><path d="M170.5 56.1c1.6-4 6-6.7 10-9.8l-1.5-.7 2 .4c1.4-1 2.8-2 4-3.3l-1.4-.7 1.8.4c.4-.4.8-.7 1-1l-2.6-1 3 .3c1-1 1.8-2.2 2.5-3.5l-1.6-.5h1.8c.2-.3.4-.8.6-1.3l-3-1 3 .3c1-3 1.4-6.6.5-11-3.2 18.8-19.3 17-20.7 32.7l.6-.3Z" fill="url(#bn)"/><path d="M202.3 36.3c-2 2-5 2.8-8.3 3.4v1.8l-.4-1.7c-.7 0-1.4.3-2.2.4v1.5l-.3-1.4c-3.3.4-6.5 1.2-9.6 2.4l.6 3-1.2-2.6c-4.5 2-8.4 5.6-10.4 13 8-13 21-4.6 31.8-19.6v-.2Z" fill="url(#bo)"/><path d="M170.5 56.1c3-2.8 8-3.3 13-4.3l-1-1.3 1.5 1.2 5-1.2-1-1.2 1.4 1c.5-.2 1-.3 1.4-.5l-2-1.8 2.6 1.5c1.3-.5 2.5-1.2 3.6-2l-1-1 1.5 1c.4-.3.8-.6 1.2-1l-2-2 2.6 1.5c2.2-2.2 4-5.2 5.2-9.5-10.8 15-24 6.5-31.8 19.6h-.2Z" fill="url(#bp)"/><path d="M196.5 26.8c-1.6 2.5-4.3 4.2-7.3 5.7l.6 1.8-1-1.5-2 1 .5 1.4-.8-1.3c-3 1.4-6.2 3-9 5l1.4 2.7-2-2.3c-4 3.3-6.8 8-6.7 16 4-15.2 19.7-10.5 26.2-28.5h.1Z" fill="#dedee2"/><path d="M170.3 55.4c2.3-3.7 7-5.6 11.7-8l-1.4-1 1.8.8 4.7-2.6-1.3-1 1.7.7 1.3-1-2.5-1.2 3 .8c1.1-.9 2.1-1.9 3.1-3l-1.4-.8 1.7.5c.3-.4.6-.8 1-1.3l-2.7-1.5 3 .8c1.6-2.8 2.5-6.3 2.5-11-6.5 18-22 13.3-26.2 28.5h-.1v.3Z" fill="#bcbcbc"/><path d="M184 16.8c-.5 3-2.4 6-4.6 8.7l1.4 1.4-1.7-1-1.6 2 1 1.2-1.4-1c-2.3 2.7-4.7 5.5-6.4 8.7l2.6 2-3-1.3c-2.4 5-3.2 10.7.3 18.3-2.5-16.6 14.7-18.7 13.2-39h.2Z" fill="#ffdc00"/><path d="M170.8 55.8c.7-4.5 4.4-8.4 8-12.7l-1.7-.4h2l3.4-4.5-1.7-.4h2l1-1.5-3-.2 3.3-.5c.7-1.3 1.3-2.7 1.7-4.2h-1.7l2-.4.3-1.6-3.2-.3 3.3-.5c.3-3.4-.2-7.2-2.3-11.7 1.4 20.3-15.8 22.4-13.2 39h-.2Z" fill="#ffbc01"/><path d="M167.8 54.3v-39c2.2 3.2 3.8 6 4.8 8.7l-2.6 1.7 2.8-1c.2.7.5 1.4.6 2l-1.7 1.2 1.8-.8c.4 1.7.6 3.4.6 5.3l-3.4 2.2 3.4-1v1l-2 1 2-.5c-.1 2-.4 4.3-1 6.8v.5l-3 1.3 2.8-.5-1.2 6-1.7.7 1.6-.2c-.6 3-1.8 5.8-2 7v.3H168v-2.9h-.2v.2Z" fill="#d00"/><path d="M167.8 54.3v-39c-1.4 2-2.6 4-3.7 6.2l2.5 3-2.8-2.3-.8 2 2.2 2.2-2.4-1.7c-1.5 4.2-1.7 8.5-1 14.6l4.4 2-4.2-.5c0 .4.1.8.2 1.3l.8 4 3.7 1.6-2.6-.3 1.7 1.5-2.6-1.2 2.6 9v.3h1.6v-2.9l.3.2h.1Z" fill="red"/><path d="M164.3 63.8c1.2-.6 2.2-1.4 3.5-1.7 1.6-.4 3.2 0 4.8.5s3 1.3 4.6 1.7c2.8.6 5.8 0 8-1.5s4-4.2 4.3-7c.2-1.3 0-2.8-1-3.7-.8-.7-2-1-3-.8s-2 .5-3 1c-6.5 2.5-13.6 3-20.4 1.6-4.2-1-8.2-2.5-12.4-3.3-1-.2-2.2-.3-3 .3-.7.5-1 1.3-1 2.2s.3 1.7.6 2.4c1.2 2.8 3 5.3 5.5 7.2 1.8 1.4 4 2.4 6.2 2.4s1.8-.4 2.7-.5c1.2-.2 2.2 0 3.4-.6h-.1l.3-.2Z" fill="url(#bq)"/><path d="M187.6 51.4c-1.4.3-2.8.5-4.2.7-4.5.6-9.4 1.2-13 6.6 1.7 1.6 3.6 2.6 5.6 3s2.2 0 3.3-.2 2.2-.8 3.2-1.7c2-1.7 3.8-4.4 5-8.4ZM146 46.1c1.8 1 4.2 1.3 6.7 1.6 5 .6 10.7 1.3 15 7 4.4-5.8 10-6.5 15-7 2.5-.3 5-.6 6.7-1.6l4-2.3-.7 4.5c-1.2 7.3-4 12.2-7.4 15-1.5 1.2-3.2 2-5 2.5-1.7.4-3.5.6-5.2.3-2.7-.4-5.4-1.7-7.7-3.8-2.3 2-5 3.4-7.7 3.8-1.7.3-3.5.2-5.2-.3s-3.3-1.3-5-2.5c-3.4-2.8-6.2-7.7-7.4-15l-.7-4.5 4 2.3h.6Zm6.2 6-4.2-.7c1 4 3 6.8 5 8.4s2 1.4 3.2 1.7 2.2.3 3.3.2c2.1-.4 4.1-1.4 5.6-3-3.5-5.5-8.4-6-13-6.6Z" fill="#dedee2"/><path d="M252.3 292.5c.3.3.7.6.4 1.2.4.2.5.6.3 1 .3.3.6.6.4 1 .4.3.5.8.4 1.3.4.2.4.6.3 1 .3.2.5.6.4 1 .6.3.4.7.3 1 .4.3.5.7.3 1 .3.2.4.4.3.8.4.2.4.5.3.8.4.3.5.6.4 1 .5.2.5.8.5 1.4s.4.5.5.8v.8c.5.2.4.7.4 1 .6.4.6 1 .5 1.6.4.2.5.6.3 1 .4.4.7.8.5 1.4.6.2.4.8.4 1.2.5.3.6.7.4 1.2.3.3.7.6.4 1 .4.3.6.6.4 1l.3.8 58.4-20c-.4-.3-.6-.5-.4-1-.2-.2-.4-.4-.2-.7-.4-.2-.3-.6-.3-1-.4-.2-.2-.5-.3-.8-.4-.2-.3-.6-.3-1-.3-.2-.5-.5-.3-.8-.4-.2-.4-.6-.3-1-.4-.1-.2-.5-.2-.7-.3-.2-.2-.5-.3-.8-.5-.1-.3-.5-.3-.8-.4-.2-.4-.5-.3-.8-.3-.2-.3-.5-.3-.8-.5-.1-.3-.5-.3-.8-.5-.1-.3-.5-.2-.7-.3-.3-.6-.5-.4-1-.3-.2-.3-.5-.3-1-.5-.2-.3-.6-.3-1-.4-.2-.4-.5-.3-1-.3-.3-.4-.6-.3-1-.5-.4-.4-.8-.4-1.2-.4-.3-.4-.6-.4-1-.3-.2-.4-.5-.3-1-.4-.2-.3-.5-.3-.8-.3-.2-.2-.5-.3-.8-.4-.2-.4-.5-.3-.8-.3-.2-.3-.6-.3-1-.3-.2-.2-.6-.3-1-.3 0-.2-.4-.2-.7-.4-.1-.2-.4-.2-.6l-58.2 21.2" fill="#fff" fill-rule="evenodd"/><path d="m255.5 295.4 6.2 18.2c1.2-1 2.7 0 3 1l48.6-17c-.3-1.4.3-2.5 2-3l-6-17.6c-1.8.6-3 0-3.8-1.4l-48 16.5c.3 1.6-.3 2.6-2.3 3.2h-.1" fill="#f18e20" fill-rule="evenodd"/><path d="M255.7 282.9c.2.4.5.8 0 1.3.3.3.3.7 0 1 .2.4.4.7 0 1 .3.5.2 1 0 1.4.3.4.2.7 0 1 .2.3.3.7 0 1.2.5.5.1.7 0 1 .3.4.2.8 0 1 .3.3.3.6 0 .8.3.3.2.6 0 1 .3.4.3.8 0 1.2.4.4.2 1 0 1.4 0 .3.2.6.2 1s-.2.5-.2.8c.4.4 0 .8 0 1.2.4.6.2 1 0 1.7.3.4.2.7 0 1 .3.5.4 1 0 1.4.5.4.1 1 0 1.3.4.4.3 1 0 1.3.1.4.5.8 0 1.2.3.4.4.8 0 1.2v.8h61.6c-.2-.5-.4-1 0-1.2-.2-.2-.3-.5 0-.7-.4-.3-.1-.6 0-1-.3-.3 0-.5 0-.8-.3-.4-.1-.6 0-1-.2-.3-.3-.6 0-1-.3-.4-.2-.7 0-1-.4-.3 0-.5 0-.8-.2-.3 0-.5 0-.8-.5-.3-.2-.5 0-.8-.3-.3-.2-.6 0-1-.2-.3-.1-.6 0-1-.4-.3-.1-.5 0-.8-.4-.3-.1-.5 0-.8-.2-.3-.4-.7 0-1-.2-.3 0-.6 0-1-.4-.3 0-.6 0-1-.4-.3-.2-.6 0-1-.2-.4-.1-.7 0-1-.3-.5-.1-1 0-1.2-.3-.4-.2-.8 0-1-.2-.3-.2-.6 0-1-.3-.3-.1-.6 0-1-.3-.3 0-.6 0-1-.3-.3-.2-.5 0-.8-.2-.3 0-.7 0-1-.2-.3 0-.6 0-1-.2-.2 0-.5 0-.8-.3-.2 0-.4 0-.6l-61.6.3" fill="#fff" fill-rule="evenodd"/><path d="M257.8 286.6v19.3c1.5-.5 2.6.8 2.6 2l51.5-.4c.2-1.5 1-2.2 3-2.3v-18.5c-1.7 0-2.8-1-3-2.5h-50.6c-.2 1.8-1 2.5-3.2 2.4h-.1" fill="#f18e20" fill-rule="evenodd"/><path d="M.5 163.1h335v21.6H.5v-21.6Zm-.2 25h335v3.4H.3v-3.4Z" fill="#f18e20"/><circle cx="268.2" cy="213.3" r="58.6" fill="#ffbc01"/><circle cx="268.2" cy="213.3" r="55.9" fill="url(#br)"/><circle cx="268.2" cy="213.3" r="52.9" fill="#fff"/><circle cx="268.2" cy="213.3" r="49.9" fill="#8fff66"/><g fill="#fff"><path d="M29.8 19.8c0 .3-.1.6-.3.8l-3.7 3.7-4-2.3v-2.2c0-.6.5-1.2 1.2-1.2s1.2.5 1.2 1.2v2.8l3.6-3.6c.5-.5 1.2-.5 1.6 0 .2.2.3.5.3.8m-1.2 10.6c-.3 0-.6-.1-.8-.3l-3.4-3.6v2.8c0 .6-.5 1.2-1.2 1.2s-1.2-.5-1.2-1.2v-2.2l4-2.3 3.7 3.7c.7.7.2 2-.8 2m-3-6s0-.1-.1-.1l-1-.6-2.6-1.5-2.2-1.3h-.6v7c0 .1.1.3.3.3h.1l2.2-1.3 3.6-2v-.2h.1l.2-.3Zm-1 0-2.9 1.6-1.6 1H20v-5.4c0-.1 0-.2.2-.2h.1l1.7 1 2.8 1.6s.1.1 0 .2v.2Z"/><path d="m24 24.6-2 1.2-1.3.8h-.4v-4s0-.1.1-.1l1.3.8 2 1.2m25 0-3.2-1.7-2-1c-.2 0-.3 0-.3.2v5.4c0 .2.3.3.4.2l2-1 3.2-1.7v-.4h-.1Zm-1 0-2.5 1.4-1.5.8s-.3 0-.3-.1v-4.2c0-.1 0-.2.2-.2l1.5.8 2.5 1.3v.2Z"/><path d="m47.5 24.5-2 1-1.2.6v-3l1.2.5 2 1m-15.3-2.7H35c1.4 0 2.4.7 2.4 1.8s-1 2-2.3 2h-1.8v1.8H32v-5.6h.2Zm2.7 2.8c.7 0 1-.3 1-.8s-.5-.8-1-.8h-1.6v1.6h1.6Zm7.8 2v1h-4.5v-5.6h1.1v4.5h3.4Zm7.8-.9L48 22.3h1.3l1.6 2.4 1.6-2.5H54l-2.4 3.6v2h-1.3v-2h.2Zm4.6-3.3h.7v3l3.2-3h1l-2.6 2.6 2.8 3h-1l-2.6-2.9-1 1v1.7h-.7v-5.7l.2.3Zm5.3 2.7c0-1.6 1.4-3 3.2-3s3.2 1.3 3.2 3-1.4 3-3.2 3-3.2-1.3-3.2-3Zm5.7 0c0-1.2-1.2-2.3-2.5-2.3s-2.5 1-2.5 2.3 1 2 2.2 2 2.5-1 2.5-2.4l.3.4Zm1.6 2.3.4-.5c.5.5 1.2.8 2 .8s1.4-.5 1.4-1-.6-.8-1.7-1c-1.3-.2-2-.6-2-1.6s1-1.6 2-1.6 1.6.3 2.2.8l-.4.5c-.5-.4-1.2-.7-1.8-.7s-1.3.5-1.3 1 .6.8 1.7 1c1.2.2 2 .6 2 1.6s-.7 1.6-2.2 1.6-1.8-.3-2.5-1h.2Zm6-4.6h.7l2.4 4 2.3-4h.7v5.4h-.6v-4.2l-2.3 4-2.4-4v4.2h-.7v-5.6.2Zm7.3 2.8c0-1.6 1.4-3 3.2-3s3.2 1.3 3.2 3-1.4 3-3.2 3-3.2-1.3-3.2-3Zm5.7 0c0-1.2-1.2-2.3-2.5-2.3s-2.5 1-2.5 2.3 1.2 2.3 2.5 2.3 2.5-1 2.4-2.4Zm1.6 2.4.4-.5c.5.5 1.2.8 2 .8s1.4-.5 1.4-1-.6-.8-1.7-1c-1.3-.2-2-.6-2-1.6s1-1.6 2-1.6 1.6.3 2.2.8l-.4.5c-.5-.4-1.2-.7-1.8-.7s-1.3.5-1.3 1 .6.8 1.7 1c1.2.2 2 .6 2 1.6s-.7 1.6-2.2 1.6-1.8-.3-2.5-1h.2Z"/></g><path d="M279.8 45.1h39v8.4h-39v-8.4Z" fill="#f18e20"/><path d="M98.3 235.1v-14.7c.8 1.2 1.4 2.2 1.8 3.3l-1 .7 1-.4c0 .3.2.5.2.8l-.7.4.7-.3c.2.6.2 1.3.2 2l-1.3.8 1.3-.4v.4l-.8.4.8-.2c0 .8-.2 1.6-.3 2.6v.2l-1 .5 1-.2c0 .6-.3 1.4-.5 2.3l-.6.3h.6c-.2 1-.7 2-.8 2.5s0 0 0 .1h-.6v-1Z" fill="#d00"/><path d="M98.3 235.1v-14.7c-.6 1-1 1.6-1.4 2.4l1 1-1-1c0 .2-.2.5-.3.7l.8 1-1-.6c-.6 1.6-.7 3.2-.3 5.5l1.7.7-1.6-.2v.5c0 .3.2.8.3 1.5l1.4.6h-1l.7.4-1-.4c.3 1.4.8 3 1 3.4s0 0 0 .1h.6v-1h.1Z" fill="red"/><path d="M33 253.6c-.2 0-.4 0-.5-.1h-.8c-1.3.3-2.2 1.3-2.4 2.6v.6c0 .4.1.7.3 1 .3.5.6 1 1 1.6.6 1 1.2 2 1.6 3 0 .3.2.6.3 1 0-.3.2-.6.2-1 .3-1 1-2 1.5-3l1-2 .3-1c.2-1.6-.9-3-2.4-3.3h-.2v.6Zm-.6 4.3c-.6 0-1-.5-1-1s.5-1 1-1 1 .5 1 1-.5 1-1 1Z" fill="#fff"/></svg>