<svg data-name="Layer 1" xmlns="http://www.w3.org/2000/svg" width="335" height="335">
    <path d="M0 0h335v335H0V0Z" fill="#fff" opacity=".9"/>
    <path d="M28.8 31.7h277.3v57.7H28.8V31.7Z" fill="#ddb385"/>
    <g fill="#794026" data-name="PRINT">
        <path d="M29.8 11.9c0 .6-.2 1.1-.6 1.5l-6.8 6.8-7.2-4.2v-4.1c0-1.2 1-2.1 2.1-2.1s2.1 1 2.1 2.1v5.2l6.7-6.7c.8-.8 2.2-.8 3 0 .4.4.6 1 .6 1.5ZM29.2 30.8c-.4.4-.9.6-1.5.6s-.6 0-.8-.2c-.3-.1-.5-.3-.7-.5l-2.3-2.3-4.4-4.4v5.2c0 1.2-1 2.1-2.1 2.1s-2.1-1-2.1-2.1v-4.1l7.2-4.2 4.5 4.5 2.3 2.3c.8.8.8 2.2 0 3ZM22.1 20.5c0-.1-.1-.2-.2-.3l-1.8-1-4.9-2.8-4.1-2.4c-.2-.1-.5 0-.7.2v12.7c0 .3.2.5.5.5h.2l4.1-2.4 6.7-3.9s.1-.1.1-.2v-.3Zm-10.2-5 3.2 1.8 5.2 3s.1 0 .1.1v.3s0 .2-.2.2l-5.2 3-3.2 1.9c-.2 0-.4 0-.5-.1V15.8c0-.2.2-.4.4-.4h.2Z"/>
        <path d="M19 20.7s0 .1-.1.2L15 23.2l-2.4 1.4c-.1 0-.3 0-.4-.1V17.1c0-.2.1-.3.3-.3h.1l2.4 1.4 3.9 2.3s.1 0 .1.2v.2ZM64.9 20.1l-6-3-3.7-1.8c-.2-.1-.5 0-.6.2v10.1c.1.2.4.4.6.4h.4l3.4-1.9 2.1-1.1 3.8-2s.2-.1.2-.2v-.2c0-.1-.1-.2-.2-.2Zm-6 3-2.8 1.5c-.2 0-.4 0-.5-.1v-7.8c0-.2 0-.3.3-.3h.1l2.9 1.4 1 .5 3.6 1.8s.1 0 .2.2v.2s0 .1-.1.2L59 23.1Z"/>
        <path d="M62.3 20.5s0 .1-.1.1l-3.4 1.8-2.1 1.1h-.3V17.6c0-.1 0-.2.2-.2h.1l2.1 1.1 3.5 1.7.1.1v.1ZM39.3 15.4h-5.2v10.4h2.6v-3.4h2.7c2.5 0 4.3-1.5 4.3-3.6 0-2-1.9-3.5-4.4-3.4Zm-.2 4.9h-2.4v-2.9h2.4c1.2 0 2.1.5 2.1 1.4 0 .9-.8 1.5-2 1.5ZM53.4 25.8l-8.2.1-.1-10.3h2.5l.1 8.3 5.7-.1v2zM70.2 21.9l.1 3.7h-2.5l-.1-3.7-4.6-6.5 2.9-.1 2.9 4.5 3-4.5 2.7-.1-4.4 6.7zM85.5 26.1h-1.7l-4.4-4.7-1.8 1.7.1 3.1h-1.3l-.2-10.3h1.3l.1 5.7 5.8-5.8h1.7l-4.8 4.8 5.2 5.5zM92 15.6c-3.2 0-5.9 2.5-5.8 5.4 0 2.9 2.8 5.3 6 5.3s5.8-2.5 5.8-5.4c0-2.9-2.8-5.3-5.9-5.2Zm.4 9.6c-2.5.2-4.7-1.7-4.9-4.2.1-2.3 1.9-4.1 4.2-4.3 2.5-.2 4.7 1.7 4.9 4.2-.1 2.3-1.9 4.1-4.2 4.3ZM108.2 23.2c0 1.6-1.3 3-4 3-1.7 0-3.3-.5-4.5-1.6l.8-.9c1 .9 2.4 1.5 3.8 1.4 1.8 0 2.7-.9 2.7-1.8 0-1.1-1.1-1.5-3.1-1.9-2.3-.5-3.8-1.1-3.8-2.9 0-1.6 1.6-3 3.8-3 1.5 0 2.9.5 4 1.4l-.8.9c-.9-.8-2.1-1.3-3.3-1.3-1.4 0-2.4.9-2.4 1.8 0 1.1 1.1 1.4 3.1 1.8 2.2.4 3.8 1.1 3.8 2.9ZM121.9 26.1h-1.3l-.1-7.8-4.2 7.3-4.4-7.2.1 7.8h-1.3l-.1-10.3h1.3l4.4 7.1 4.1-7.2h1.3l.2 10.3zM130.1 15.6c-3.2 0-5.9 2.5-5.8 5.4 0 2.9 2.8 5.3 6 5.3s5.8-2.5 5.8-5.4c0-2.9-2.8-5.3-5.9-5.2Zm.4 9.6c-2.5.2-4.7-1.7-4.9-4.2.1-2.3 1.9-4.1 4.2-4.3 2.5-.2 4.7 1.7 4.9 4.2-.1 2.3-1.9 4.1-4.2 4.3ZM146.3 23.2c0 1.6-1.3 3-4 3-1.7 0-3.3-.5-4.5-1.6l.8-.9c1 .9 2.4 1.5 3.8 1.4 1.8 0 2.7-.9 2.7-1.8 0-1.1-1.1-1.5-3.1-1.9-2.3-.5-3.8-1.1-3.8-2.9 0-1.6 1.6-3 3.8-3 1.5 0 2.9.5 4 1.4l-.8.9c-.9-.8-2.1-1.3-3.3-1.3-1.4 0-2.5.9-2.4 1.8 0 1.1 1.2 1.4 3.1 1.8 2.2.4 3.8 1.1 3.8 2.9Z"/>
    </g>
    <path d="M-1.1 118h335v2.2h-335V118Zm0 6h335v2.2h-335V124Zm-.4 42.4h335v2.2h-335v-2.2Zm0 6h335v2.2h-335v-2.2Z" fill="#794026"/>
    <path d="M3.9 100.4h92.3v92.3H3.9v-92.3Z" fill="#794026"/>
    <path d="M89.3 107.4v78.3H10.9v-78.3h78.4Zm-71.1 75.5h68.2v-72.8H13.6v72.8h4.6Z" fill="#633836"/>
    <path d="M13.7 177.7v-62.2l.4.2c1.9.9 4.2.2 5.1-1.7.3-.5.4-1.1.4-1.7 0-.8-.3-1.4-.6-2.1h62.2l-.2.4c-.9 1.9-.2 4.2 1.7 5.1.5.3 1.1.4 1.7.4.8 0 1.4-.3 2.1-.6v62.2l-.4-.2c-1.9-.9-4.2-.2-5.1 1.7-.3.5-.4 1.1-.4 1.7 0 .8.3 1.4.6 2.1H19c0-.1 0-.2.2-.3 1-1.8.4-4-1.4-5-.6-.3-1.3-.5-2-.5s-1.4.3-2 .6h-.1Zm64.8-59.6h-.8l.3.4-3.7 3.7h-1.1c0-1.8-.8-2.5-2.5-2.5H29.2c-1.1 0-2 .9-2 2v.6h-.7c-.3 0-.4 0-.5-.2l-3.4-3.4-.2-.3.3-.3h-.8v.9l.4-.3 3.7 3.7v.2l-.2.8h-.5c-1.2 0-2 1-2 2.3v41.7c0 1.2.9 2 2.1 2.1h.4v.6c.1.2 0 .4-.1.5l-2.7 2.7-.9.9-.4-.3v.8h.8l-.3-.4 3.7-3.7H27c0 1.7.8 2.5 2.5 2.5H71c1.2 0 2-1 2-2.1v-.5h.6c.3-.1.4 0 .6.1l3.4 3.4.2.3-.2.3h.8v-.9l-.4.3-3.7-3.7v-.2c0-.3 0-.5.2-.8 1.8 0 2.6-1.1 2.6-2.7v-41.3c0-1.1-1-2-2.1-2h-.5v-1.2l3.1-3.1.4-.5.4.3v-.8Zm-38.9-4c-.6 0-1.1.5-1.1 1l.2.4.3-.3c0-.3.3-.6.6-.5.4 0 .5.3.5.6 0 .6.5 1 1.1 1s1.1-.4 1.1-1.1.2-.6.6-.6.5.2.6.6c0 .6.5 1 1.1 1.1.6 0 1.1-.4 1.2-1 0-.5.2-.7.6-.7s.5.3.6.7c0 .6.5 1 1.1 1s1-.4 1.1-1c0-.5.3-.7.6-.7s.5.3.6.6c0 .7.6 1.1 1.2 1.1s1-.4 1.1-1.1c0-.4.2-.6.6-.6s.5.2.6.6c0 .7.5 1.1 1.1 1.1s1.1-.4 1.1-1.1.2-.6.6-.6.5.3.6.6c0 .5.3.8.7 1 .7.3 1.4-.2 1.5-1 0-.3.2-.6.5-.6s.5.2.6.5l.3.3.2-.4c0-.5-.5-.9-1-1-.5 0-1 .3-1.2.8v.4c0 .3-.2.5-.5.5s-.5 0-.6-.4v-.2c0-.6-.5-1-1.1-1s-1 .4-1.2 1v.3c0 .2-.3.4-.5.4l-.6-.3v-.4c0-.5-.6-.9-1.1-1-.5 0-1 .4-1.2.9v.4c0 .3-.3.4-.6.4s-.5-.2-.5-.5v-.4c0-.5-.6-.9-1.1-.9s-1 .4-1.1 1v.3l-.5.4c-.2 0-.4-.2-.5-.4v-.3c0-.6-.5-1-1.1-1s-1 .4-1.2 1v.3c0 .3-.2.4-.5.5-.3 0-.5 0-.6-.4v-.4c0-.5-.6-.9-1.2-.9s-1 .4-1.1 1v.4c0 .3-.3.5-.6.4-.2 0-.4-.3-.5-.4v-.3c0-.5-.6-.9-1.1-.9l-.3-.2Zm-21.9 43c0 .5.4 1 .9 1.1.2 0 .4 0 .5-.2 0-.2-.1-.3-.3-.3-.3 0-.5-.3-.5-.6s.2-.5.5-.5c.7-.1 1.1-.5 1.1-1.1s-.4-1-1.2-1.1c-.3 0-.5-.2-.5-.6s.2-.5.5-.5c.7-.1 1.2-.5 1.2-1.1s-.4-1.1-1.1-1.2c-.3 0-.6-.2-.6-.6s.2-.5.6-.6h.5c.4-.3.7-.8.6-1.3 0-.5-.5-.9-1-1-.2 0-.5-.1-.6-.3-.3-.3 0-.8.5-.8.7-.1 1.1-.5 1.1-1.1s-.4-1.1-1.1-1.1-.6-.3-.6-.6.2-.5.6-.6c.7 0 1.1-.5 1.1-1.1s-.4-1.1-1.1-1.2c-.4 0-.6-.2-.6-.6s.2-.5.6-.6c.7 0 1.1-.5 1.1-1.1s-.4-1-1.1-1.1c-.3 0-.6-.2-.6-.5s.2-.5.5-.6l.3-.3-.4-.2c-.4 0-.7.3-.9.7-.3.7.2 1.5 1 1.6.3 0 .6.2.6.5s-.2.5-.6.6h-.2c-.5 0-1 .6-1 1.1s.4 1.1 1.1 1.1.6.2.6.6-.3.5-.6.6c-.2 0-.4 0-.6.2-.4.3-.5.7-.4 1.2s.5.8 1 .9c.4 0 .6.2.6.6s-.3.5-.6.6c-.3 0-.6.2-.8.4-.3.3-.4.7-.2 1.1.2.5.5.7 1 .7s.6.2.6.5-.2.5-.5.6c-.7.1-1.2.5-1.2 1.1s.4 1 1.1 1.2c.3 0 .5.2.5.6s-.2.5-.6.6c-.2 0-.4 0-.6.2-.4.2-.6.7-.5 1.2 0 .5.5.8 1 .9.3 0 .6 0 .7.4s-.1.7-.6.7c-.7.1-1.1.5-1.1 1.2l.3-.3Zm64.9-4.1s0-.3-.2-.5c-.2-.4-.6-.5-1-.6-.3 0-.5-.2-.5-.5s.2-.5.5-.6h.3c.5 0 1-.6 1-1.1s-.4-1-.9-1.1h-.3c-.3 0-.5-.3-.5-.6s.2-.5.5-.5h.4c.5-.1.9-.6.9-1.1s-.4-1-.9-1.1h-.3c-.3 0-.4-.3-.4-.5 0-.3 0-.5.4-.6h.2c.6 0 1-.5 1-1.1s-.4-1-1-1.2h-.3c-.2-.1-.4-.3-.4-.5l.3-.6h.3c.6 0 1-.6 1-1.1s-.4-1-1-1.1h-.3c-.3 0-.5-.3-.4-.6 0-.2.3-.4.4-.5h.4c.5-.1.9-.6.9-1.1s-.4-1-.9-1.1c-.2 0-.4 0-.5.2s0 .3.3.4c.3 0 .5.3.5.6s-.2.5-.6.5c-.7.1-1.1.5-1.1 1.2s.4 1 1.1 1.1c.3 0 .5.2.6.6 0 .3-.2.5-.6.6-.7 0-1.1.5-1.1 1.1s.4 1.1 1.1 1.1.6.2.6.6-.3.5-.6.6c-.6 0-1 .5-1 1.1s.4 1.1 1.1 1.1.6.2.6.6-.3.5-.6.6c-.7 0-1.1.6-1.1 1.1s.4 1.1 1.1 1.1.6.2.6.6-.2.5-.6.6c-.6 0-1.1.5-1.1 1.1s.4 1.1 1.1 1.1.6.2.6.6-.3.5-.6.6c-.7 0-1.2.7-1 1.3 0 .5.5.8 1.1.9.3 0 .5.2.6.5 0 .3 0 .5-.5.6-.2 0-.4.1-.3.4l.5.2c.5 0 .9-.5.9-1s-.3-1-.8-1.1h-.4c-.3 0-.6-.2-.6-.6s.2-.5.6-.6c.7 0 1.1-.5 1.1-1.3l-.2-.4Zm-21.9 26c.5 0 1-.4 1.1-.9 0-.2 0-.4-.2-.5s-.3 0-.4.3c0 .3-.3.5-.6.5s-.5-.2-.5-.6c0-.7-.5-1.1-1.2-1.1s-1 .4-1.1 1.1c0 .3-.2.5-.6.6-.3 0-.5-.2-.6-.6 0-.7-.5-1.1-1.1-1.1s-1.1.4-1.1 1.1-.2.6-.6.6-.5-.3-.6-.6c0-.6-.5-1-1.1-1s-1.1.4-1.1 1.1-.2.6-.6.6-.5-.3-.6-.6c0-.7-.6-1.1-1.1-1.1s-1.1.4-1.1 1.1-.2.6-.6.6-.5-.2-.6-.6c0-.6-.5-1.1-1.1-1.1s-1.1.4-1.1 1.1-.2.6-.6.6-.5-.3-.6-.6c0-.5-.3-1.1-.9-1.1-.2 0-.5 0-.6.1-.4.1-.7.5-.7 1 0 .3-.2.5-.5.6-.3 0-.5-.1-.6-.5 0-.2 0-.4-.4-.3l-.2.5c0 .5.6.9 1.1.9s1-.3 1.1-.8v-.4c0-.2.3-.4.5-.4.3 0 .5.1.6.4v.3c0 .6.5 1 1.1 1s1-.4 1.2-1v-.3c0-.3.2-.4.5-.5.3 0 .5.1.6.4v.3c0 .5.6 1 1.1 1s1-.4 1.1-.9v-.3c0-.3.3-.5.6-.5s.5.2.5.5v.4c0 .5.6.9 1.1.9s1-.4 1.1-.9v-.3c0-.3.2-.5.5-.5s.5.2.6.5v.2c0 .6.5 1 1.1 1s1-.4 1.2-1v-.3c0-.3.2-.4.5-.5.3 0 .5.1.6.4v.4c0 .5.6.9 1.1.9s1-.4 1.1-.9v-.4c0-.3.3-.5.6-.4.2 0 .4.3.5.4v.3c0 .5.6.9 1.1.9h.5Z" fill="#dcb284"/>
    <path d="M13.7 114.7v-4.5h4.5l.2.3c1.4 1.9.2 4.6-2.1 5-1 .2-1.8 0-2.6-.7Zm2.1-.9c.9 0 1.7-.7 1.7-1.7s-.7-1.7-1.7-1.7-1.6.7-1.7 1.6c0 .9.7 1.7 1.7 1.7Zm66.1-3.6h4.5v4.5l-.3.2c-1.9 1.4-4.6.2-5-2.1-.2-1 0-1.8.7-2.6h.1Zm2.4 3.8c.9 0 1.7-.7 1.7-1.7s-.8-1.7-1.7-1.7-1.6.7-1.6 1.7.7 1.7 1.7 1.7Zm2.2 64.4v4.5H82l-.2-.3c-1.3-1.9-.3-4.6 2-5 .9-.2 1.9 0 2.6.7Zm-3.8 2.5c0 .9.7 1.7 1.7 1.7s1.7-.8 1.7-1.7-.7-1.6-1.7-1.6-1.7.7-1.7 1.7Zm-64.5 2h-4.5v-4.5l.3-.2c1.9-1.3 4.6-.3 5 2 .2.9 0 1.9-.7 2.6Zm-.8-2c0-.9-.7-1.7-1.7-1.7s-1.7.8-1.7 1.7.7 1.6 1.7 1.6 1.7-.7 1.7-1.7Z" fill="#d9af82"/>
    <path d="M86.5 178.4c-1.4-1.1-3.4-.8-4.5.7-.8 1.1-.8 2.5-.1 3.6l.2.3h-.7c-.3-.6-.6-1.3-.6-2.1 0-2.8 3-4.7 5.5-3.4l.4.2v.7h-.2Zm-68.3 4.5c1.1-1.4.8-3.4-.7-4.5-1.1-.8-2.5-.8-3.6-.1l-.3.2v-.7c.6-.3 1.3-.6 2-.6 2.9 0 4.8 3 3.4 5.5l-.2.3h-.6Zm63.7-72.8c-.6.8-.9 1.6-.7 2.6.4 2.3 3 3.4 5 2.1l.3-.2v.7c-.6.3-1.3.6-2.1.6-2.8 0-4.7-3-3.4-5.5l.2-.4h.7Zm-68.2 4.6c.8.6 1.6.9 2.6.7 2.3-.4 3.4-3 2.1-5l-.2-.3h.7c.3.6.6 1.3.6 2.1 0 2.8-3 4.7-5.5 3.4l-.4-.2v-.7Z" fill="#3c1c18"/>
    <path d="M78.5 118.2v.8l-.4-.3-.4.5-3.1 3.1c-.2.2-.3.3 0 .5v.7h.5c1.1 0 2 .9 2.1 2v41.3c0 1.6-.8 2.8-2.6 2.7l-.2.8v.2l3.7 3.7.4-.3v.9h-.8l.2-.3-.2-.3-3.4-3.4c-.2-.2-.3-.3-.6-.1h-.6v.5c0 1.2-.9 2-2 2.1H29.5c-1.7 0-2.5-.7-2.5-2.5h-1.1l-3.7 3.7.3.4h-.8v-.8l.4.3.9-.9 2.7-2.7c.2-.2.2-.3.1-.5v-.6h-.4c-1.1 0-2-.8-2.1-1.9V125.9c0-1.3.8-2.3 2-2.3h.5l.2-.8v-.2l-3.7-3.7-.4.3v-.9h.8l-.3.3.2.3 3.4 3.4c.2.2.3.3.5.2h.7v-.5c0-1.1.9-2 2-2.1h41.5c1.7 0 2.5.7 2.5 2.4l.8.2h.3l3.7-3.8-.3-.4h.8Zm-45.3 13.7c0 1 .5 2 1.4 2.4s2 .2 2.6-.4v-.2l-9.7-9.6c-.2-.2-.3-.2-.5 0 .4.5.6 1 .6 1.6v41.5c0 .6-.1 1.1-.5 1.5h.3l9.9-9.8c-.7-.7-1.9-.8-2.8-.2-.8.5-1.3 1.5-1.1 2.3h.4l-.5.6-.6-.6h.4c.3-2 1.3-3.1 3-3 1.4 0 2.6 1.2 2.7 2.6 0 1.7-.9 2.7-2.9 3v.3l-.7-.6.6-.6v.5c1.1.1 2.1-.5 2.5-1.5.4-.9 0-2-.5-2.5l-9.9 9.9.2.3c.5-.5 1.1-.6 1.8-.6h40.8c.8 0 1.5 0 2.1.6.2-.2.2-.4 0-.6l-9.5-9.5-.2-.2c-.7.7-.8 1.9-.3 2.8.5.9 1.5 1.4 2.4 1.3v-.4l.6.5-.6.6v-.4c-1.7-.1-2.8-1-3-2.4-.2-1.3.5-2.7 1.7-3 2.4-.7 3.6.5 3.9 2.7h.3l-.5.6-.7-.6h.5c0-1-.5-2-1.4-2.5-.9-.4-2.1-.2-2.7.4l9.6 9.7c.2.2.3.2.5 0-.5-.5-.6-1.1-.6-1.8v-40.9c0-.7 0-1.4.6-1.9-.2-.3-.4-.2-.6 0l-9.4 9.4-.2.3c.6.7 1.8.8 2.7.4.9-.5 1.5-1.5 1.4-2.4h-.4l.5-.7.6.6h-.4c-.2 1.9-1.3 3-2.9 3-1.4 0-2.6-1.1-2.8-2.5 0-.7 0-1.4.5-2 .6-.8 1.4-1.2 2.4-1.2v-.3l.6.5-.5.6v-.4c-1.1 0-2.1.5-2.5 1.5-.4.9-.2 2 .4 2.6h.2l9.6-9.7c.2-.2.2-.3 0-.5-.5.5-1.2.6-1.9.6H30.2c-.8 0-1.6 0-2.2-.6-.3.3-.1.4 0 .6l9.4 9.4.3.3c.7-.6.8-1.8.4-2.7-.4-.9-1.4-1.5-2.4-1.4v.4l-.7-.6.6-.6v.4c2 .2 3 1.3 3 2.9s-1.1 2.6-2.5 2.7c-1.7.1-2.7-.9-3.1-3h-.3l.5-.6.6.6h-.4l-.2.5Zm-9.7-5.1v39.6c.5-.7 1.1-1.1 1.9-1.1s1.4.4 1.8 1v-39.6c-1.2 1.4-2.3 1.4-3.7 0Zm46.4 42.7H30.2c.7.5 1.1 1.1 1.1 1.9 0 .8-.4 1.5-1.1 1.8h39.7c-1-.7-1.3-2-.7-3 .2-.3.4-.5.7-.7Zm3-42.6v39.6c.5-.7 1.1-1.1 1.9-1.1.8 0 1.5.4 1.8 1.1v-39.7c-.8 1.3-2.6 1.5-3.7 0Zm-42.7-3h39.6c-1.4-1.3-1.4-2.2 0-3.7H30.3c1.4 1.5 1.4 2.4 0 3.7Zm40.6-.4c.9 0 1.5-.6 1.5-1.4s-.6-1.5-1.4-1.5-1.5.6-1.5 1.5.6 1.5 1.5 1.5Zm-41.7 0c.9 0 1.5-.6 1.5-1.4s-.6-1.5-1.5-1.5-1.5.6-1.5 1.5.6 1.5 1.4 1.5h.1ZM25.2 169c.9 0 1.5-.6 1.5-1.5s-.6-1.5-1.4-1.5-1.5.6-1.5 1.5.6 1.5 1.5 1.5h-.1Zm49.5 0c.9 0 1.5-.6 1.5-1.5s-.6-1.5-1.5-1.5-1.5.6-1.5 1.5.6 1.5 1.5 1.5Zm-1.5-43.1c0 .9.6 1.5 1.5 1.5s1.5-.6 1.5-1.5-.6-1.5-1.4-1.5-1.5.6-1.5 1.5Zm-46.5 0c0-.9-.6-1.5-1.5-1.5s-1.5.6-1.5 1.5.6 1.5 1.4 1.5 1.5-.6 1.5-1.5h.1ZM70.8 170c-.9 0-1.5.6-1.5 1.4s.6 1.5 1.5 1.5 1.5-.6 1.5-1.5-.6-1.5-1.5-1.5Zm-43.1 1.6c0 .9.6 1.5 1.5 1.5s1.5-.6 1.5-1.5-.6-1.5-1.5-1.5-1.5.6-1.5 1.5ZM74 123.5c0-.4-.3-.7-.7-.7s-.7.3-.7.7.3.7.7.7.7-.3.7-.7Zm-46.7 0c0-.4-.3-.7-.7-.7s-.7.3-.7.7.3.7.7.7.7-.3.7-.7Zm0 46.7c0-.4-.3-.7-.7-.7s-.7.3-.7.7.3.7.7.7.7-.4.7-.7Zm46.7 0c0-.4-.3-.7-.7-.7s-.7.3-.7.7.3.7.7.7.7-.3.7-.7Z" fill="#42211c"/>
    <path d="M39.6 114.1c.5 0 1 .4 1.1.9v.3c0 .2.3.4.5.4.3 0 .5 0 .6-.4v-.4c0-.5.6-.9 1.1-1 .5 0 1 .4 1.2.9v.4c0 .3.3.4.6.4s.5-.2.5-.5v-.3c0-.6.6-1 1.2-1s1 .4 1.1 1v.3l.5.4c.2 0 .4-.2.5-.4v-.3c0-.6.6-1 1.1-1s1 .3 1.1.9v.4c0 .3.2.4.5.5.3 0 .5 0 .6-.4v-.4c0-.5.6-.9 1.2-.9s1 .4 1.1 1v.4l.6.3c.2 0 .3-.2.5-.4v-.3c0-.6.6-1 1.2-1s1 .4 1.1 1v.2c0 .3.3.5.6.4.3 0 .5-.2.5-.5v-.4c.2-.5.7-.8 1.2-.8s1 .5 1 1l-.2.4-.3-.3c0-.3-.3-.5-.6-.5s-.5.3-.5.6c0 .8-.8 1.3-1.5 1-.5-.2-.7-.5-.7-1s-.2-.6-.6-.6-.5.2-.6.6c0 .7-.5 1.1-1.1 1.1s-1.1-.4-1.1-1.1-.2-.6-.6-.6-.5.2-.6.6c0 .7-.5 1.1-1.1 1.1s-1.1-.4-1.2-1.1c0-.4-.2-.6-.6-.6s-.5.2-.6.7c0 .6-.6 1-1.1 1s-1-.4-1.1-1c0-.4-.2-.6-.6-.7-.3 0-.5.2-.6.7 0 .6-.6 1.1-1.2 1-.6 0-1-.4-1.1-1.1 0-.4-.2-.6-.6-.6s-.5.3-.6.6c0 .6-.6 1.1-1.1 1.1s-1-.4-1.1-1c0-.3 0-.6-.5-.6s-.5.2-.6.5l-.3.3-.2-.4c0-.5.6-1 1.1-1l.3.2Zm-21.9 43c0-.6.4-1 1.1-1.2.5 0 .7-.4.6-.7s-.4-.4-.7-.4c-.5 0-.9-.4-1-.9 0-.5.1-1 .5-1.2l.6-.2c.3 0 .6-.2.6-.6s-.2-.5-.5-.6c-.7-.1-1.1-.5-1.1-1.2s.4-1 1.2-1.1c.3 0 .5-.2.5-.6s-.2-.5-.6-.5-.9-.3-1-.7c-.2-.4 0-.8.2-1.1l.8-.4c.4 0 .6-.2.6-.6s-.3-.5-.6-.6c-.5 0-.9-.4-1-.9s0-.9.4-1.2l.6-.2c.4 0 .6-.2.6-.6s-.3-.5-.6-.6c-.7 0-1.1-.6-1.1-1.1s.4-1 1-1.1h.2c.4 0 .6-.3.6-.6s-.2-.5-.6-.5c-.9-.1-1.3-.8-1-1.6.2-.4.5-.7.9-.7l.4.2-.3.3c-.3 0-.6.3-.5.6 0 .4.3.5.6.5.7 0 1.1.5 1.1 1.1s-.4 1.1-1.1 1.1-.6.2-.6.6.2.5.6.6c.7 0 1.1.6 1.1 1.2s-.4 1-1.1 1.1c-.4 0-.6.2-.6.6s.2.5.6.6c.7 0 1.1.5 1.1 1.1s-.4 1-1.1 1.1c-.5 0-.8.5-.5.8.1.2.4.3.6.3.5.1.9.5 1 1 0 .5-.2 1-.6 1.2h-.5c-.3.1-.6.3-.6.7s.2.5.6.6c.7.1 1.1.5 1.1 1.2s-.4 1-1.2 1.1c-.3 0-.5.2-.5.5s.2.5.5.6c.7.1 1.1.5 1.2 1.1 0 .6-.4 1-1.1 1.1-.3 0-.5.2-.5.5s.2.5.5.6c.2 0 .4.1.3.3l-.5.2c-.5 0-.9-.6-.9-1.1l-.3.3Zm64.8-4.1c0 .7-.4 1.2-1.1 1.3-.4 0-.6.2-.6.6s.2.5.6.6h.4c.5.2.8.6.8 1.1s-.4 1-.9 1-.4 0-.5-.2 0-.3.3-.4c.3 0 .5-.3.5-.6s-.2-.5-.6-.5c-.7-.1-1-.4-1.1-.9 0-.7.3-1.3 1-1.3s.6-.2.6-.6-.3-.5-.6-.6c-.6 0-1.1-.6-1.1-1.1s.4-1 1.1-1.1c.4 0 .6-.3.6-.6s-.3-.5-.6-.6c-.6 0-1.1-.5-1.1-1.1s.4-1.1 1.1-1.1.6-.2.6-.6-.3-.5-.6-.6c-.6 0-1.1-.5-1.1-1.1s.4-1 1-1.1c.4 0 .6-.2.6-.6s-.3-.5-.6-.6c-.7 0-1.1-.5-1.1-1.1s.4-1.1 1.1-1.1.6-.3.6-.6-.2-.5-.6-.6c-.7 0-1.1-.5-1.1-1.1s.4-1.1 1.1-1.2c.3 0 .5-.2.6-.5 0-.3-.2-.5-.5-.6-.2 0-.4-.1-.3-.4l.5-.2c.5 0 .9.6.9 1.1s-.3 1-.9 1.1h-.4c-.2.1-.4.3-.4.5 0 .3 0 .5.4.6h.3c.6 0 1 .6 1 1.1s-.4 1-1 1.1h-.3l-.3.6c0 .2.2.3.4.5h.3c.6.1 1 .6 1 1.2s-.4 1-1 1.1h-.2c-.3 0-.4.3-.4.6s.2.5.4.5h.3c.5.1.9.6.9 1.1s-.3 1-.9 1.1h-.4c-.3 0-.5.2-.5.5s.2.5.5.6h.3c.5 0 .9.6.9 1.1s-.4 1-1 1.1h-.3c-.3 0-.5.3-.5.6s.2.5.5.5.8.2 1 .6l.2.5.2.4Zm-21.9 26c-.5 0-1-.4-1.1-.9v-.3c0-.2-.3-.4-.5-.4-.3 0-.5.1-.6.4v.4c0 .5-.6.9-1.1.9s-1-.4-1.1-.9v-.4c0-.3-.3-.4-.6-.4s-.5.2-.5.5v.3c0 .6-.6 1-1.2 1s-1-.4-1.1-1v-.2c0-.3-.3-.5-.6-.5s-.5.2-.5.5v.3c0 .5-.6.9-1.1.9s-1-.3-1.1-.9v-.4c0-.3-.2-.5-.5-.5s-.5.2-.6.5v.3c0 .5-.6.9-1.1.9s-1-.4-1.1-1v-.3c0-.3-.3-.4-.6-.4s-.5.2-.5.5v.3c0 .6-.6 1-1.2 1s-1-.4-1.1-1v-.3c0-.3-.3-.5-.6-.4-.2 0-.4.3-.5.4v.4c0 .5-.6.8-1.1.8s-1-.4-1.1-.9c0-.2 0-.4.2-.5s.3.1.4.3c0 .3.3.5.6.5s.5-.2.5-.6.3-.9.7-1c.7-.3 1.4.2 1.5 1 0 .4.2.6.6.6s.5-.3.6-.6c0-.6.6-1.1 1.1-1.1s1 .4 1.1 1.1c0 .4.3.6.6.6s.5-.3.6-.6c0-.6.5-1.1 1.1-1.1s1.1.4 1.1 1.1.2.6.6.6.5-.3.6-.6c0-.6.5-1.1 1.1-1.1s1 .4 1.1 1c0 .4.2.6.6.6s.5-.3.6-.6c0-.7.5-1.1 1.1-1.1s1.1.4 1.1 1.1.3.6.6.6.5-.2.6-.6c0-.7.5-1.1 1.1-1.1s1.1.4 1.2 1.1c0 .3.2.5.5.6.3 0 .5-.2.6-.5 0-.2 0-.4.4-.3l.2.5c0 .5-.6.9-1.1.9h-.5Z" fill="#c02532"/>
    <path d="M15.8 113.9c-.9 0-1.7-.8-1.7-1.7s.8-1.6 1.7-1.6 1.7.7 1.7 1.7-.7 1.7-1.7 1.7Zm68.6 0c-.9 0-1.7-.7-1.7-1.7s.7-1.6 1.6-1.7c.9 0 1.7.7 1.7 1.7s-.7 1.7-1.7 1.7Zm-1.7 66.9c0-.9.7-1.7 1.7-1.7s1.6.7 1.7 1.6c0 .9-.7 1.7-1.7 1.7s-1.7-.7-1.7-1.7Zm-65.2 0c0 .9-.7 1.7-1.7 1.7s-1.6-.7-1.7-1.6c0-.9.7-1.7 1.7-1.7s1.7.7 1.7 1.7Z" fill="#371715"/>
    <path d="M33.2 131.9h.4l-.6-.6-.5.6h.3c.4 2.1 1.4 3.1 3.1 3 1.4-.1 2.5-1.3 2.5-2.7 0-1.6-1-2.7-3-2.9v-.4l-.7.6.6.6v-.4c1-.1 2.1.5 2.5 1.4s.2 2.1-.4 2.7l-.3-.3-9.4-9.4c-.2-.2-.4-.3 0-.6.6.6 1.4.6 2.2.6h40.6c.7 0 1.3 0 1.9-.6.2.2.2.3 0 .5l-9.6 9.6h-.2c-.6-.5-.8-1.6-.4-2.5.4-1 1.4-1.6 2.4-1.5v.4l.6-.6-.5-.5v.3c-1 0-1.9.4-2.5 1.2-.4.6-.6 1.2-.5 2 .1 1.5 1.3 2.6 2.8 2.5 1.6 0 2.7-1.1 2.9-3h.4l-.6-.7-.5.6h.4c.2 1-.4 2-1.4 2.5-.9.5-2.1.3-2.7-.4l.2-.3 9.4-9.4c.2-.2.4-.3.6 0-.5.5-.6 1.2-.6 1.9V167c0 .7 0 1.3.6 1.8-.2.2-.3.2-.5 0l-9.6-9.6c.6-.8 1.8-.9 2.7-.5.9.4 1.5 1.5 1.4 2.4h-.5l.7.6.5-.6h-.3c-.4-2.3-1.6-3.5-3.9-2.8-1.2.4-1.9 1.7-1.7 3 .2 1.4 1.3 2.2 2.9 2.4v.4l.6-.6-.6-.5v.4c-.9.2-1.9-.4-2.4-1.3s-.4-2.1.3-2.8l.2.2 9.5 9.5c.2.2.3.4 0 .6-.6-.6-1.3-.6-2.1-.6H29.5c-.6 0-1.2 0-1.8.6l-.2-.3 9.9-9.9c.6.5.8 1.6.5 2.5-.4 1-1.4 1.7-2.5 1.5v-.5l-.7.6.6.6v-.3c2.1-.3 3.1-1.4 3-3 0-1.4-1.2-2.5-2.7-2.6-1.6 0-2.7 1-3 3h-.4l.6.6.5-.6h-.4c-.2-.8.3-1.8 1.1-2.3.9-.6 2.1-.5 2.8.2l-9.9 9.9h-.3v-.2c.3-.4.5-.9.5-1.5v-41.5c0-.6-.2-1.1-.6-1.6.2-.2.3-.2.5 0l9.6 9.6v.2c-.5.7-1.6.8-2.5.4-.9-.4-1.5-1.4-1.4-2.4h.5Zm31.1 14.5c0-7.8-6.4-14.2-14.2-14.2s-14.2 6.4-14.2 14.2 6.4 14.2 14.2 14.2 14.2-6.4 14.2-14.2Z" fill="#dcb284"/>
    <path d="M23.5 126.8c1.4 1.3 2.5 1.3 3.7 0v39.6c-.5-.7-1.1-1.1-1.8-1-.8 0-1.4.3-1.9 1.1v-39.6Zm.9 17.9c0 .3 0 .6.2.6l1.7.6c0-.4-.1-.6-.4-.7l-1.5-.5Zm.1 1.2h-.1l.2.6 1.7.5h.1l-.2-.6-1.7-.5Zm-.1 1.1.2.6 1.7.5c0-.3 0-.5-.2-.6l-1.8-.6Zm0-3.3c0 .3 0 .6.2.6l1.7.5h.1c0-.3 0-.5-.2-.6l-1.8-.6Zm0 5.8c0 .3 0 .6.2.6l1.7.6c0-.3.1-.5-.2-.7l-1.7-.5Zm2-5.6c0-.3 0-.6-.2-.6l-1.7-.5c0 .3 0 .5.2.6l1.8.6Zm0 5.6c0-.3 0-.6-.2-.6l-1.7-.5c0 .3 0 .5.2.6l1.8.6ZM70 169.3c-1 .7-1.3 2-.7 3 .2.3.4.5.7.7H30.3c.7-.5 1.1-1 1.1-1.8s-.4-1.4-1.1-1.9H70ZM49.6 172h.5l.5-1.7c-.3 0-.6 0-.7.3l-.4 1.4h.1Zm3.4-1.7h-.5L52 172h.5l.5-1.7Zm-3.4 0h-.5l-.5 1.7c.3 0 .5.2.6-.2l.5-1.6Zm2.3.1h-.5l-.5 1.7c.4.1.6 0 .7-.4l.4-1.4h-.1Zm-5.6 1.8h.5l.5-1.7c-.3 0-.5-.2-.6.2l-.5 1.6Zm1.1 0c.3 0 .6 0 .6-.2l.5-1.7c-.2 0-.4 0-.5.2l-.5 1.7Zm5.7 0c.3 0 .6 0 .6-.2l.5-1.7c-.2 0-.4 0-.5.2l-.5 1.7ZM73 126.8c1.1 1.4 2.9 1.2 3.7 0v39.7c-.5-.7-1.1-1.1-1.8-1.1s-1.4.3-1.9 1.1v-39.6Zm2.7 18c0-.3 0-.5-.2-.6l-1.7-.5.2.6 1.6.5Zm0 1.2-.2-.6-1.7-.5v.6l1.8.5Zm-1.9 1.1c0 .3 0 .5.2.6l1.7.5-.2-.6-1.6-.5Zm0 2.2c0 .3 0 .6.2.6l1.7.5c0-.3 0-.6-.3-.6l-1.7-.5Zm0-3.4c0 .2 0 .5.2.6l1.7.5c0-.3 0-.5-.3-.6l-1.6-.5Zm1.9-2.3c0-.3 0-.6-.2-.6l-1.7-.5.2.6 1.8.6Zm-2 4.4c0 .3 0 .6.2.6l1.7.5c0-.3 0-.5-.2-.6l-1.8-.6h.1Zm-43.5-24.4c1.4-1.3 1.4-2.2 0-3.7h39.6c-1.4 1.5-1.4 2.4 0 3.7H30.3Zm18.1-1h.5l.5-1.8h-.5l-.5 1.8Zm1.1 0c.4.2.6 0 .7-.4l.4-1.4c-.2 0-.4 0-.5.2l-.5 1.6Zm2.3 0c.4 0 .6 0 .7-.3v-.5l.4-1h-.5l-.5 1.8Zm-4.6-1.8h-.5l-.5 1.7h.6l.5-1.7Zm0 1.7h.5l.5-1.7h-.5l-.5 1.7Zm4.6-1.9c-.3 0-.6 0-.6.2l-.5 1.7h.5l.6-1.9Zm1.1 1.9h.5l.5-1.7h-.5l-.5 1.8Z" fill="#dbb184"/>
    <path d="M70.9 123.3c-.8 0-1.5-.6-1.5-1.5s.6-1.5 1.5-1.5 1.5.6 1.4 1.5c0 .9-.6 1.4-1.5 1.4Zm-41.7 0c-.9 0-1.4-.6-1.4-1.5s.6-1.5 1.5-1.5 1.5.6 1.5 1.5-.6 1.4-1.5 1.4h-.1Zm-3.9 45.6c-.8 0-1.4-.6-1.5-1.5 0-.9.6-1.5 1.5-1.5s1.4.6 1.4 1.5-.6 1.5-1.5 1.5h.1Zm49.5 0c-.9 0-1.5-.6-1.5-1.5s.6-1.5 1.5-1.5 1.5.6 1.5 1.5-.6 1.5-1.5 1.5Zm-1.4-43.1c0-.9.6-1.5 1.5-1.5s1.4.6 1.4 1.5-.6 1.5-1.5 1.5-1.5-.6-1.5-1.5Zm-46.6 0c0 .9-.6 1.5-1.5 1.5s-1.4-.6-1.4-1.5.6-1.5 1.5-1.5 1.5.6 1.5 1.5h-.1Zm44.1 44.1c.9 0 1.5.6 1.5 1.5s-.6 1.5-1.5 1.5-1.5-.6-1.5-1.5.6-1.4 1.5-1.4Zm-43.1 1.4c0-.9.6-1.5 1.5-1.5s1.5.6 1.5 1.5-.6 1.5-1.5 1.5-1.5-.6-1.5-1.5Z" fill="#bc1e2d"/>
    <path d="M74.1 123.2c0 .4-.3.7-.7.7s-.7-.3-.7-.7.4-.7.7-.7.7.3.7.7Zm-46.7 0c0 .4-.3.7-.7.7s-.7-.3-.7-.7c0-.4.3-.7.7-.7s.7.4.7.7Zm0 46.7c0 .4-.3.7-.7.7s-.7-.3-.7-.7c0-.4.3-.7.7-.7s.7.3.7.7Zm46.7 0c0 .4-.3.7-.7.7s-.7-.4-.7-.7.3-.7.7-.7.7.3.7.7Z" fill="#d5ab7f"/>
    <path d="M64.3 146.6c0 7.8-6.4 14.2-14.2 14.2s-14.2-6.4-14.2-14.2 6.4-14.2 14.2-14.2 14.2 6.4 14.2 14.2Zm-14.2-13.9c-7.7 0-13.9 6.2-13.9 13.9.6 7.7 7.4 13.4 15.1 12.8 6.8-.6 12.2-5.9 12.8-12.7 0-7.7-6.2-13.9-13.9-13.9h-.1Z" fill="#43221d"/>
    <path d="m24.4 144.8 1.5.5c.3 0 .5.3.4.7-.6-.2-1.2-.3-1.7-.6l-.2-.6Zm.1 1.2 1.7.5.2.5h-.1c-.6 0-1.1-.2-1.7-.4l-.2-.5h.1Zm-.1 1 1.8.6.2.5c-.6 0-1.1-.2-1.7-.4l-.2-.6Zm0-3.5 1.8.6.2.5h-.1c-.6 0-1.1-.2-1.7-.4l-.2-.6Zm0 5.6 1.7.5c.4.1.2.4.2.7-.6-.2-1.2-.3-1.7-.6l-.2-.6Zm2-5.7-1.8-.6-.2-.5c.6 0 1.2.2 1.7.5l.2.6Zm0 5.7-1.8-.6-.2-.5c.6 0 1.2.2 1.7.5l.2.6Zm23.1 22.7.4-1.4c0-.3.3-.4.7-.3l-.5 1.6-.5.3v-.2Zm3.3-1.7-.5 1.6-.5.2.5-1.8.5-.2v.2Zm-3.4 0-.5 1.6c0 .4-.4.2-.6.2l.5-1.7.5-.2Zm2.3 0-.4 1.4c0 .4-.3.5-.7.4l.5-1.7.5-.2h.1Zm-5.7 1.8.5-1.6c0-.4.4-.2.6-.2l-.5 1.7-.5.2Zm1.1.1.5-1.7.5-.3-.5 1.8-.6.2Zm5.7 0 .5-1.7.5-.3-.5 1.8-.6.2Zm22.8-27.5L74 144l-.2-.5c.6 0 1.1.2 1.7.4l.2.5h-.2Zm.1 1.3-1.8-.5c-.2 0-.2-.1 0-.6l1.7.5.2.6Zm-1.9 1.1 1.6.5.2.5c-.6 0-1.1-.2-1.7-.4l-.2-.5h.2Zm0 2.2 1.7.5.3.5c-.6 0-1.2-.2-1.7-.4l-.2-.6Zm0-3.4 1.6.5.3.5c-.6 0-1.1-.2-1.7-.4l-.2-.5Zm1.9-2.4-1.8-.6-.2-.5c.6 0 1.2.2 1.7.4l.2.6Zm-2 4.6 1.8.6.2.5c-.6 0-1.2-.2-1.7-.5l-.2-.6h-.1Z" fill="#3d1d19"/>
    <path d="m48.4 122.7.5-1.7.5-.2-.5 1.8-.5.2Zm1.1-.1.5-1.6.5-.3-.4 1.5c0 .4-.3.5-.7.4Zm2.3 0 .5-1.7.5-.2c0 .4-.2.8-.3 1.1v.5c0 .4-.4.5-.8.3Zm-4.6-1.8-.5 1.6-.5.3.5-1.8.5-.2Zm0 1.9.5-1.6.5-.3-.5 1.8-.5.2Zm4.5-2-.6 1.8-.5.3.5-1.8.6-.2Zm1.1 1.8.5-1.7.5-.2-.5 1.8-.5.2Z" fill="#401f1a"/>
    <path d="M50.1 132.6c7.7 0 13.8 6.2 13.9 13.9 0 7.7-6.3 14-14 14s-14-6.3-14-14 6.3-14 14-14Zm0 .4c-7.5 0-13.7 6.1-13.7 13.6s6.1 13.7 13.6 13.7c7.6 0 13.7-6.1 13.7-13.7s-6.1-13.7-13.7-13.7Z" fill="#cca37a"/>
    <path d="M50.1 132.9c7.6 0 13.7 6.1 13.7 13.7s-6.1 13.7-13.7 13.7c-7.5 0-13.6-6.2-13.6-13.7 0-7.5 6.2-13.6 13.7-13.6Zm-7.8 20.5c0-.2.2-.2.2-.2l1.4-1.9-1-1.8c-.3-.6-.4-1.3-.6-1.9l-.2-.2-2.3-.4-.2.3-.2-.3-.2-.2-.9-.2-1.3-.2c0 3.6 1.3 6.6 3.8 9.1l1.1-1.5.4-.7Zm15.5 0 1.5 2.2c2.5-2.6 3.7-5.6 3.8-9.1l-2.3.4h-.2v.3l-.4-.3-2.2.4-.2.3c-.2 1.3-.7 2.4-1.4 3.5v.3l1.5 2ZM50 133.3c-3.6 0-6.6 1.3-9.1 3.7l4.1 3.1h.4c.8-.6 1.7-1.1 2.7-1.2.9-.1 1.1-.5 1.2-1.3l.7-4.3Zm.2 0v.2l.8 4.9.3.3 1.8.5 1.9 1 4.3-3.1c-2.5-2.4-5.7-3.7-9.1-3.8ZM37 146.2l5-.8.3-.3.4-1.4 1.2-2.4c-.5-.6-1.2-1.2-1.6-2-.4-.8-1-1.5-1.5-2.3-2.4 2.4-3.8 5.7-3.8 9.1h-.1Zm22.4-8.9-.3.3-1.8 2.5-1 1.3v.4c.7 1 1.2 2.2 1.4 3.4 0 .2 0 .3.4.4l3 .5 2.1.3c0-3.6-1.3-6.5-3.8-9.1Zm-14.2 15.3-2 1.5.2.5-.6-.2-2 1.4c2.6 2.4 5.6 3.7 9.1 3.8l-.4-2.5h-.8l.2-.2h.5c0-.8-.2-1.6-.4-2.4l-.2-.2c-1.3-.2-2.6-.8-3.7-1.6h.1Zm4.9 6.8c2.3.5 7.8-1.8 9-3.8l-1.9-1.4-.6.2.2-.5-2-1.5c-1.1.9-2.3 1.4-3.7 1.6l-.2.3-.2 1.4v.8h.6v.2h-.5l-.2.2-.4 2.3v.2Zm-5-7.3 4.8-3.5-1.5-.5-3.7 3.7.3.3h.1Zm10.3-10.9-3.7 3.7.5 1.5 3.5-4.8-.3-.3Zm-.3-.4-.3-.3L50 144l1.5.5 3.7-3.7h-.1Zm-10.6 10.6 3.7-3.7-.5-1.4-3.5 4.8.3.3Zm5.7-2.7 4.6 3.3.3-.3-3.8-3.8-1.1.8Zm-1.9-3.8-3.8-3.8-.3.3 3.3 4.6.8-1.1Zm3.4 2.7 3.8 3.8.3-.3-3.3-4.6-.8 1.1Zm-1.9-3.8-4.5-3.3-.4.3 3.8 3.8 1.1-.8Zm.3 5.1v4.9c.3 0 .6.2.7-.3l.5-3.4v-.4l-1.2-.8Zm7.5-2.7c0-.3.2-.6-.3-.7l-3.4-.5h-.3l-.9 1.2h4.9Zm-7.5-7.5q-.6 0-.7.5l-.5 3.1v.3l1.2.9v-4.9Zm-7.5 7.6q0 .7.5.8l3.1.5h.3l.9-1.2h-4.8Zm9.3-.1c0-1-.8-1.9-1.8-1.9s-1.9.8-1.9 1.8.8 1.9 1.9 1.9 1.9-.8 1.9-1.8h-.1Zm-7.8 4.6.7-1v-.3l-.7-1.8-.2-.2-1.3-.2c.2 1.4.7 2.5 1.5 3.6Zm0-9.2c-.8 1.1-1.3 2.3-1.5 3.6l1.2-.2.2-.2.7-1.8v-.3l-.7-1Zm11.9-.1-.8 1.1v.3l.7 1.7s0 .2.2.2l1.3.2c-.2-1.3-.7-2.5-1.5-3.6Zm-6.9 12.1-.2-1.2s0-.2-.3-.2l-1.8-.7h-.3l-1.1.8c1.1.8 2.2 1.3 3.6 1.5v-.2Zm5.7-1.5-1.1-.8h-.3l-1.7.7s-.2 0-.2.2l-.2 1.4c1.4-.2 2.5-.7 3.6-1.5Zm-9.1-11.9 1 .7h.3l1.8-.7.2-.2.2-1.3c-1.4.2-2.5.7-3.6 1.5Zm5.6-1.5.2 1.2.3.3 1.7.7h.3l1.1-.8c-1.1-.8-2.3-1.3-3.6-1.5Zm6.5 8.5-1.2.2-.2.2-.7 1.8v.3l.8 1.1c.8-1.1 1.3-2.3 1.5-3.6h-.2Zm.3-1.6v.6h3.6l-3.6-.6Zm-7.8-7.2v-3.5l-.6 3.6h.6Zm-7.8 7.7H39l3.6.6v-.6h-.1Zm7.8 11.3.6-3.6h-.6v3.6Zm-3.8-12.9-.8-1-.5 1.2 1.3-.2Zm2.2 5.3-1 .8 1.2.5-.2-1.3Zm5.3-5.3 1.3.2-.5-1.2-.8 1Zm-8.3 4.2.8-1-1.3-.2.5 1.2Zm9.1 0 .5-1.2-1.3.2.8 1Zm-1.9 1.9-1-.8-.2 1.3 1.2-.5Zm0-9.1-1.3-.5.2 1.3 1-.8Zm-4.2.8.2-1.3-1.2.5 1 .8Zm-5.2-3.4 1.4 1.5.3-.2-1.8-1.2Zm-.3.2 1.2 1.8.3-.3h-.2l-1.3-1.4Zm.3 13.8 1.7-1.2-.3-.3-1.4 1.4Zm-.4-.3c.5-.3 1-.8 1.5-1.3l-.3-.4-1.2 1.7Zm12.9-1.4 1.5 1.4-1.2-1.7-.3.3Zm-.7.6L57 153l-1.4-1.4-.3.2Zm1.7-13-1.7 1.2.3.2 1.4-1.4Zm-1.1 1.8.2.3 1.2-1.7-1.4 1.4Zm-.7 2.2H55c0 .6.4 1.1.5 1.6l.3.2-.7-1.8ZM55 149h.2l.7-1.7h-.2c-.5.2-.4.9-.7 1.3v.4Zm-10.4-1.8.7 1.9h.2c0-.6-.4-1.1-.5-1.6l-.3-.3Zm.7-4.3h-.2l-.7 1.7h.2c.5-.3.4-.9.8-1.4v-.4Zm3.5 8.9v-.2c-.2-.5-.9-.4-1.4-.8H47v.2l1.7.7Zm2.6 0 1.7-.6v-.2c-.7 0-1.1.4-1.6.5l-.2.3Zm1.8-10.4v-.2l-1.7-.7v.2c.3.5.9.4 1.4.7h.3Zm-4.3-.7v-.2l-1.9.7v.2c.6 0 1.1-.4 1.6-.5l.2-.3h.1Z" fill="#3d1d19"/>
    <path d="m50 133.4-.7 4.3c0 .8-.3 1.2-1.2 1.3-1 .1-1.9.6-2.7 1.2 0 0-.3.1-.4 0l-4.1-3c2.5-2.5 5.5-3.8 9.1-3.8Zm-3.5 3.4.6-.2v-.2h-.8v.3h.2Zm-2.4 1.1c-.6.4-.7.4-.5.7.5-.3.6-.5.5-.7Zm4.1-1.4.7-.3h-.8l.2.3h-.1Zm-2.5.7-.2-.2-.7.4v.2h.4l.4-.3Zm4.5-3.8c3.5 0 6.5 1.3 9.1 3.8l-4.3 3.1-1.9-1-1.8-.5-.3-.3-.8-4.9v-.2Zm5.1 3.9h-.2c-.2-.1-.3-.5-.6-.2l.4.4c0 .1.3.2.4-.1Zm-1.7-.6v-.2l-.6-.2v.2l.6.2Zm3.2 1.4-.8-.5v.2l.6.4.2-.2Zm-5.2-2.2-.3.2.2.2h.6l-.5-.3Z" fill="#dab183"/>
    <path d="M37 146.4c0-3.5 1.3-6.5 3.8-9.1.5.8 1.1 1.5 1.5 2.3s1.1 1.4 1.6 2l-1.2 2.4-.4 1.4-.3.3-5 .8Zm2.9-1.4v-.2c-.2 0-.3.1-.3.2v.5h.3v-.5Zm.3-1.8v.3c0 .2-.3.4 0 .6 0-.2.2-.3.3-.5v-.4h-.2Zm1.7-2.8h-.3l-.4.4v.2l.5-.6h.1Zm-1.1 1.2-.3.8h.2l.3-.7-.2-.2Zm18.6-4.2c2.4 2.5 3.7 5.5 3.8 9.1l-2.1-.3-3-.5c-.2 0-.3-.1-.4-.4-.2-1.2-.7-2.4-1.4-3.4v-.4l1-1.3 1.8-2.5.3-.3Zm.7 6.8.2-.3v-.5h-.4l.2.8Zm-.3-1.9c0-.2-.2-.4-.4-.6h-.2l.2.6h.4Zm-1.6-2 .5.7h.2v-.2c0-.2-.2-.3-.3-.5h-.4Zm2 4.7v.3c0 .2 0 .5.2.5v-.6c0-.2 0-.4-.3-.2Zm-14.9 7.7c1.1.9 2.3 1.4 3.7 1.6l.2.2.4 2.4h-.7l.2.2h.6l.4 2.5c-3.5 0-6.5-1.3-9.1-3.8l2-1.4.6.2-.2-.5 2-1.5Zm2.1 3.9h-.2c0 .2 0 .3.2.3h.7v-.2h-.7Zm-.9-.2c-.3-.1-.5-.3-.8-.4v.2l.7.3Zm-2.1-1.4v.3l.6.4v-.2l-.6-.4Zm13.4-1.7-1.5-2v-.3c.8-1 1.2-2.2 1.4-3.5l.2-.3 2.2-.4.3.3v-.2h.3l2.3-.5c0 3.5-1.3 6.5-3.8 9.1l-1.5-2.1.6-.7c-.3-.2-.7 0-.7.5h.2Zm2.3-4.5v.2c.2 0 .3 0 .3-.2v-.7h-.2v.6Zm-.6 2.7h-.4l-.3.5v.2l.5-.7h.1Zm.6-1.5h-.3l-.2.5v.2h.3l.3-.6Z" fill="#dab083"/>
    <path d="m50.2 159.6.4-2.3.2-.2h.5v-.2h-.7v-.8l.3-1.4.2-.3c1.4-.2 2.6-.7 3.7-1.6l2 1.5-.2.5.6-.2 1.9 1.4c-1.2 1.9-6.8 4.2-9 3.8v-.2Zm2.8-3.1h-.6v.3h.6v-.2Zm1.1-.1.6-.5h-.2l-.7.3.2.2h.1Zm2.3-1.3h-.3c-.2-.1-.4 0-.5.2v.2l.8-.4Z" fill="#dab183"/>
    <path d="m42.3 153.6-.4.7-1.1 1.5c-2.4-2.4-3.7-5.7-3.8-9.1l1.3.2c.3 0 .6 0 .9.2 0 0 .2 0 .2.2l.2.3.2-.3 2.3.4.2.2c.2.6.3 1.3.6 1.9l1 1.8-1.4 1.9h-.2l-.4-.5h-.2v.2l.5.5h.1Zm-2.1-4.8-.3-.7v.8l.3-.2Zm.2 1-.2.2.2.7h.2v-.2l-.3-.7Zm1.1 2.2-.4-.6h-.2v.2c0 .2.2.3.3.5h.3Z" fill="#dab083"/>
    <path d="m45.3 152.3-.3-.3 3.7-3.7 1.5.5-4.8 3.5h-.1Zm10.2-10.9.3.3-3.5 4.8-.5-1.5 3.7-3.7Zm-.3-.2-3.7 3.7-1.5-.5 4.8-3.5.3.3h.1Zm-10.6 10.6-.3-.3 3.5-4.8.5 1.4-3.7 3.7Zm5.7-2.7 1.1-.8 3.8 3.8-.3.3-4.6-3.3Zm-1.9-3.8-.8 1.1-3.3-4.6.3-.3 3.8 3.8Zm3.4 2.7.8-1.1 3.3 4.6-.3.3-3.8-3.8Zm-2-3.8-1.1.8-3.8-3.8.4-.3 4.5 3.3Z" fill="#d7ad81"/>
    <path d="m50.1 149.2 1.1.8v.4l-.4 3.4c0 .5-.4.2-.7.3v-4.9Zm7.5-2.7h-4.9l.9-1.2h.3l3.4.5c.5 0 .2.4.3.7Zm-7.5-7.4v4.9l-1.2-.9v-.3l.5-3.1q0-.6.7-.5Zm-7.5 7.3h4.8l-.9 1.2h-.3l-3.1-.5c-.6 0-.6-.1-.5-.8Z" fill="#d7ae81"/>
    <path d="M52 146.6c0 1-.8 1.8-1.9 1.8-1 0-1.8-.9-1.9-1.9 0-1 .9-1.8 1.9-1.8s1.8.8 1.8 1.9h.1Zm-.4 0c0-.8-.7-1.4-1.4-1.4s-1.4.7-1.4 1.4.7 1.4 1.4 1.4 1.4-.7 1.4-1.4Z" fill="#d5ab7f"/>
    <path d="M44.1 151.1c-.8-1.1-1.3-2.3-1.5-3.6l1.3.2.2.2.7 1.8v.3l-.7 1Zm0-9 .7 1v.3l-.7 1.8-.2.2c-.4 0-.8 0-1.2.2.2-1.3.7-2.5 1.5-3.6Zm11.9.1c.8 1.1 1.3 2.3 1.5 3.6l-1.3-.2-.2-.2-.7-1.7v-.3l.8-1.1Zm-6.9 11.9c-1.3-.2-2.5-.7-3.6-1.5l1.1-.8h.3l1.8.7.3.2.2 1.2v.2Zm5.5-1.5c-1.1.8-2.3 1.3-3.6 1.5l.2-1.4.2-.2 1.7-.7h.3l1.1.8Zm-9.2-11.9c1.1-.8 2.3-1.3 3.6-1.5l-.2 1.3-.2.2-1.8.7h-.3l-1-.7Zm5.6-1.5c1.4.2 2.5.7 3.6 1.5l-1.1.8h-.3l-1.7-.7-.3-.3c0-.4 0-.8-.2-1.2Zm6.4 8.3c-.2 1.3-.7 2.5-1.5 3.6l-.8-1.1v-.3l.7-1.8.2-.2c.4 0 .8 0 1.2-.2h.2Z" fill="#d8ae81"/>
    <path d="m57.9 145.9 3.6.6H58v-.6Zm-7.8-7.2h-.6l.6-3.5v3.5Zm-7.8 7.9v.6l-3.5-.6h3.5Zm7.8 11.3v-3.5h.6l-.6 3.5Z" fill="#cfa67c"/>
    <path d="m46.3 145-1.3.2.5-1.2.8 1Zm2.2 5.3.2 1.3-1.2-.5 1-.8Zm5.4-5.3.8-1 .5 1.2-1.3-.2Zm-8.3 4.1-.5-1.2 1.3.2-.8 1Zm9 0-.8-1 1.3-.2-.5 1.2Zm-1.9 2-1.2.5.2-1.3 1 .8Zm0-9.1-1 .8-.2-1.3 1.3.5Zm-4.2.8-1-.8 1.2-.5-.2 1.3Z" fill="#d2a97e"/>
    <path d="m43.3 139.4 1.8 1.2-.3.2-1.4-1.5Zm-.3.4 1.3 1.5h.2l-.3.2-1.2-1.7Zm.3 14 1.4-1.4.3.3-1.7 1.2Zm-.4-.5 1.2-1.7.3.4-1.5 1.4Zm12.9-1.5.3-.3 1.2 1.7-1.5-1.4Zm-.7.6.3-.2 1.4 1.4-1.7-1.2Zm1.7-13.1-1.4 1.4-.3-.2 1.7-1.2Zm-1 1.8 1.4-1.4-1.2 1.7-.2-.3Z" fill="#cea57b"/>
    <path d="m55.1 143.5.7 1.7h-.4c0-.6-.6-1-.5-1.6h.2Zm-.2 6v-.4c.3-.4.3-1.1.7-1.4h.2l-.7 1.9h-.2Zm-10.4-1.9.3.3c0 .5.6 1 .5 1.5h-.2l-.7-1.7h.1Zm.8-4.4v.4c-.3.4-.3 1.1-.8 1.5h-.2l.7-1.9h.3Zm3.4 8.8-1.7-.7v-.2s.3-.1.4 0c.4.3 1.1.3 1.5.8v.2h-.2Zm2.6-.3.2-.3c.6 0 1-.6 1.6-.5v.2l-1.7.7Zm1.9-10.5s-.3.1-.4 0c-.4-.3-1.1-.3-1.5-.7v-.2l1.9.7v.2Zm-4.3-.7-.2.3c-.5 0-1 .6-1.5.5v-.2l1.7-.7v.2Z" fill="#cca37a"/>
    <path d="m42.3 153.6-.5-.5v-.2h.2l.4.5v.2h-.1ZM46.5 136.9v-.3l.6-.2h.2v.3l-.6.2h-.1Zm-2.4 1c.1.1 0 .4-.5.7-.2-.2-.2-.3.5-.7Z" fill="#4b2a22"/>
    <path d="m48.2 136.5-.2-.2.6-.2h.2l-.7.4h.1Zm-2.5.7-.4.2h-.4l.7-.5.2.2Z" fill="#482720"/>
    <path d="M55.3 137.4c0 .3-.2.2-.4.1-.2 0-.3-.2-.4-.4.2-.2.4 0 .6.1h.2v.2Zm-1.6-.5-.6-.2v-.2s0-.1 0 0l.6.2v.2Zm3.1 1.4-.2.2-.6-.4v-.2l.8.5Z" fill="#4b2a22"/>
    <path d="m51.6 136 .5.3h-.6l-.2-.2.3-.2Z" fill="#482720"/>
    <path d="M39.9 145v.5h-.3v-.5l.2-.2v.2Z" fill="#4b2a22"/>
    <path d="M40.2 143.2v.4c0 .2-.2.3-.3.5-.3-.2 0-.4 0-.6v-.3h.3Z" fill="#482720"/>
    <path d="m41.8 140.4-.5.6v-.2l.4-.5h.2Z" fill="#43221d"/>
    <path d="m40.7 141.6.2.2-.3.7h-.2l.3-.8Zm19.4 2.4-.2-.7v-.2h.3v.9Zm-.3-1.8h-.3l-.2-.6h.2l.4.6h-.1Z" fill="#4b2a22"/>
    <path d="M58.3 140.2h.4l.3.5v.2h-.2l-.5-.7Zm2 4.7c.3-.2.3 0 .3.2v.6c-.3 0-.2-.3-.2-.5v-.3Zm-13 11.6h.6v.3h-.7l-.2-.2h.3Zm-.9-.2-.7-.3v-.2c.3 0 .5.2.8.3v.2Zm-2.1-1.4.6.4v.2c-.2 0-.4-.2-.6-.4v-.2Z" fill="#482720"/>
    <path d="M60.1 148.9v-.5h.3c0-.1 0 0 0 0v.5l-.2.2v-.2Zm-2.1 4.5c0-.5.4-.8.7-.6l-.6.6H58Zm1.5-2.1-.5.7v-.2c0-.2.2-.4.3-.5h.3Zm.6-1.4-.3.6h-.2v-.8h.4v.2Zm-7.1 6.5v.3h-.8v-.2h.7Z" fill="#4b2a22"/>
    <path d="m54 156.5-.2-.2.7-.4h.2l-.6.6H54Z" fill="#482720"/>
    <path d="m56.2 155.2-.8.4v-.2l.5-.3h.3ZM40.1 149l-.2.2-.2-.6v-.2l.4.7Zm.2.8c0 .3.2.5.3.7v.2h-.2l-.2-.7.2-.2Z" fill="#4b2a22"/>
    <path d="M41.4 152h-.3l-.3-.4v-.2h.2l.4.6Z" fill="#482720"/>
    <path d="M51.5 146.5c0 .8-.6 1.4-1.4 1.4s-1.4-.6-1.4-1.4.6-1.4 1.4-1.4 1.4.6 1.4 1.4Zm-1.4-.8c-.4 0-.8.4-.8.9s.4.9.9.9.8-.4.8-.9-.4-.9-.9-.9Z" fill="#3d1a17"/>
    <path d="M50.1 145.7c.5 0 .9.4.9.9s-.4.8-.8.9c-.5 0-.9-.4-.9-.9 0-.4.4-.8.8-.9Z" fill="#bc1e2d"/>
    <path d="M56.8 202.3c-6.6 0-12 5.4-12 12s.9 5.1 2.3 7.1l9.6 16.7 9.6-16.7c3.9-5.3 2.8-12.9-2.6-16.8-2.1-1.5-4.6-2.3-7.1-2.3h.2Zm0 17.4c-2.9 0-5.3-2.4-5.3-5.3s2.4-5.3 5.3-5.3 5.3 2.4 5.3 5.3-2.4 5.3-5.3 5.3Zm22.8 74h175.8v32.7H79.6v-32.7Z" fill="#794026"/>
    <path d="M235.3 4.9h90.9v17.2h-90.9V4.9Z" fill="#ddb385"/>
    <path d="M232.4 2.3h96.7v22.4h-96.7V2.3Z" fill="none" stroke="#794026" stroke-miterlimit="10" stroke-width="3"/>
    <path d="M165 106.2h170.9v32.7H165v-32.7Z" fill="#794026"/>
    <path d="M144.4 107.3h24.2V136h-24.2v-28.7Z" fill="#ddb385"/>
    <path d="M156.7 114.5c4.6 0 8.3 3.7 8.3 8.3s-3.7 8.3-8.3 8.3c-4.6 0-8.3-3.7-8.3-8.3 0-4.6 3.7-8.3 8.3-8.3ZM152 127v-.2l.9-1.2c-.5-.7-.8-1.4-1-2.2h-.1l-1.4-.3v.2c-.2 0-.2 0-.2-.2h-1.4c0 2.1.8 3.9 2.3 5.4l.7-.9.2-.4v-.2Zm9.4 0 .9 1.3c1.4-1.5 2.2-3.4 2.3-5.5l-1.4.2h-1.7v.3c-.2.8-.5 1.5-1 2.1v.2l.9 1.2v.2Zm-10.2-9.9 2.5 1.8h.2c.6-.4 1.3-.7 2.1-.8.1 0 .2 0 .2-.2l.4-2.7v-.3c-2.1 0-4 .8-5.5 2.3h.1Zm11.1-.1c-1.5-1.4-3.4-2.2-5.5-2.3l.5 3.1.2.2 1.1.3 1.1.6 2.6-1.9Zm-13.5 5.6h.2l2.8-.4q.2 0 .3-.2c.1-.7.4-1.4.8-2v-.3c-.2-.2-.4-.4-.5-.7l-.5-.6-.5-.7-.3-.4c-1.4 1.5-2.3 3.4-2.3 5.5v-.2Zm11.6-2.9c.5.7.8 1.4 1 2.2h.2l1.5.3 1.5.2c.3-1.4-1.1-4.7-2.3-5.5l-1.9 2.6v.2Zm-9.3 8.6c1.5 1.4 3.4 2.2 5.5 2.3l-.2-1.5-.2-1.5h-.2l-.9-.4-1.3-.7-1.2.8v.3h-.2l-1.2.7h-.1Zm5.9.6h-.1l-.2 1.6c1.5.3 4.8-1.1 5.5-2.3l-1.1-.8h-.4v-.2c-.2-.3-.6-.5-1-.8h-.2c-.6.5-1.3.8-2.1.9h-.2l-.2 1.5Zm-3.2-2.6 2.9-2.1-.9-.3-2.3 2.3.2.2h.1Zm6.2-6.7-2.3 2.3.3.9 2.1-2.9-.2-.2Zm-2.4 2 2.2-2.3-.2-.2-2.9 2.1.9.3Zm-2.2 1.1-2.1 2.9.2.2 2.3-2.3-.3-.9Zm4.5 3.4-2.3-2.3-.7.5 2.8 2 .2-.2Zm-6.6-6.2 2 2.8.5-.7-2.3-2.3-.2.2Zm7 5.8-2-2.8-.5.7 2.3 2.3.2-.2Zm-3.6-4.4-2.8-2-.2.2 2.3 2.3.7-.5Zm.2 6q.4 0 .4-.3l.3-1.9v-.2l-.7-.5v2.9Zm4.5-4.5q0-.4-.3-.5c-.6-.1-1.3-.2-1.9-.3h-.2l-.5.7h2.9Zm-4.5-4.4c-.2 0-.4 0-.4.2l-.3 2.1v.2l.7.5v-2.9Zm-4.5 4.5c0 .2-.1.4.2.4l2.1.3h.2l.5-.7h-3Zm5.7 0c0-.6-.5-1.1-1.1-1.1s-1.1.5-1.1 1.1.5 1.1 1.1 1.1 1.1-.5 1.1-1.1Zm3.4-.6c0-.6-.5-1.8-.9-2.1l-.4.6v.2l.4 1.1v.2h.9Zm-7.2 4.2c.7.5 1.4.8 2.2.9v-.7l-.2-.2-1.1-.5h-.2l-.6.5Zm2.2-8.1c-.8 0-1.5.4-2.2.9l.6.5h.2l1-.4h.2v-.9h.2Zm3.3.8c-.6-.5-1.3-.8-2.1-.9v.4c0 .3.1.5.5.6h.3c.5.5.9.3 1.2 0h.1Zm1.8 4.2h-.7s-.2 0-.2.3l-.4 1v.2l.5.6c.5-.6.8-1.4.9-2.2h-.1Zm-8.1 2.3.5-.6v-.2l-.5-1.1h-.1l-.8-.2c.1.8.4 1.5.9 2.2Zm6.4.7-.6-.5h-.2l-1 .4h-.2v.8c.7 0 1.4-.4 2.1-.9v.2Zm-6.5-6.4c-.5.7-.8 1.4-.9 2.2h.8v-.3l.5-1.1v-.2l-.5-.6Zm3.6-4.1-.3 2.2h.4v-2.2Zm4.7 6.9h2.1l-2.2-.4v.4Zm-4.7 4.7v2.1l.3-2.2h-.3Zm-6.9-4.6 2.2.4v-.4h-2.2Zm4.6.9h-.8l.3.6.5-.6Zm5.3 0h-.8l.5.8.3-.8Zm-.8-1.8h.8l-.3-.6-.5.6Zm-.7 3.7-.6-.5v.8l.6-.3Zm-2.4.3v-.8l-.8.5.8.3Zm-2.2-3.9h.8l-.5-.8-.3.8Zm4-1.5.6-.5-.8-.3v.8h.2Zm-1.6-.8-.7.3.6.5v-.8Zm-2.3 6.5-.9.9 1-.7-.2-.2Zm-.4-.4-.7.9.8-.8h-.1Zm.2-6.6-.9-.8.8 1 .2-.2h-.1Zm.4-.3-1.1-.7.9.9.2-.2Zm6.5 6.9.9.9-.7-1.1-.2.2Zm-.4.3 1 .7-.9-.9h-.2v.2Zm1.4-7.5-.9.9h.1l.7-.9Zm-1.1.6.8-.9-.9.7.2.2h-.1Zm.2 4.2h-.1c-.3.2-.3.6-.5.8v.2l.4-1h.2Zm-4.3 2.6-.2-.3-.7-.3h-.2l1 .5Zm2.7-.3h-.2l-.7.2v.2l.9-.4Zm1.2-4.9h-.1v.3l.3.7.2.2-.4-1.1Zm-6.5.9h.2l.3-.7v-.2h-.1l-.4 1Zm4.3-2.7.2.3.7.3h.2l-1-.5Zm-1.6-.1-1 .4c.3.2.6 0 .9-.2l.2-.2Zm-2.6 4.1h-.1l.5 1.2h.1c0-.4-.2-.6-.3-.9l-.2-.2Z" fill="#3d1d19"/>
    <path d="M165 154.8h170.9v32.7H165v-32.7ZM80.7 222h173.6v26H80.7v-26Zm0 38.9h173.6v26H80.7v-26Z" fill="#794026"/>
    <path d="M144.4 156.8h24.2v28.7h-24.2v-28.7Z" fill="#ddb385"/>
    <path d="M156.7 163.1c4.6 0 8.3 3.7 8.3 8.3s-3.7 8.3-8.3 8.3-8.3-3.7-8.3-8.3 3.7-8.3 8.3-8.3Zm-4.7 12.5v-.2l.9-1.2c-.5-.7-.8-1.4-1-2.2h-.1l-1.4-.3v.2c-.2 0-.2-.1-.2-.2h-1.4c0 2.1.8 3.9 2.3 5.4l.7-.9.2-.4v-.2Zm9.4 0 .9 1.3c1.4-1.5 2.2-3.4 2.3-5.5l-1.4.2h-1.7v.3c-.2.8-.5 1.5-1 2.1v.2l.9 1.2v.2Zm-10.2-9.9 2.5 1.8h.2c.6-.4 1.3-.7 2.1-.8.1 0 .2 0 .2-.2l.4-2.7v-.3c-2.1 0-4 .8-5.5 2.3h.1Zm11.1-.1c-1.5-1.4-3.4-2.2-5.5-2.3l.5 3.1.2.2 1.1.3 1.1.6 2.6-1.9Zm-13.5 5.6h.2l2.8-.4q.2 0 .3-.2c.1-.7.4-1.4.8-2v-.3c-.2-.2-.4-.4-.5-.7l-.5-.6-.5-.7-.3-.4c-1.4 1.5-2.3 3.4-2.3 5.5v-.2Zm11.6-2.9c.5.7.8 1.4 1 2.2h.2l1.5.3 1.5.2c.3-1.4-1.1-4.7-2.3-5.5l-1.9 2.6v.2Zm-9.3 8.6c1.5 1.4 3.4 2.2 5.5 2.3l-.2-1.5-.2-1.5h-.2l-.9-.4-1.3-.7-1.2.8v.3h-.2l-1.2.7h-.1Zm5.9.6h-.1l-.2 1.6c1.5.3 4.8-1.1 5.5-2.3l-1.1-.8h-.4v-.2c-.2-.3-.6-.5-1-.8h-.2c-.6.5-1.3.8-2.1.9h-.2l-.2 1.5Zm-3.2-2.6 2.9-2.1-.9-.3-2.3 2.3.2.2h.1Zm6.2-6.7-2.3 2.3.3.9 2.1-2.9-.2-.2Zm-2.4 2 2.2-2.3-.2-.2-2.9 2.1.9.3Zm-2.2 1.1-2.1 2.9.2.2 2.3-2.3-.3-.9Zm4.5 3.4-2.3-2.3-.7.5 2.8 2 .2-.2Zm-6.6-6.2 2 2.8.5-.7-2.3-2.3-.2.2Zm7 5.8-2-2.8-.5.7 2.3 2.3.2-.2Zm-3.6-4.4-2.8-2-.2.2 2.3 2.3.7-.5Zm.2 6q.4 0 .4-.3l.3-1.9v-.2l-.7-.5v2.9Zm4.5-4.5q0-.4-.3-.5c-.6-.1-1.3-.2-1.9-.3h-.2l-.5.7h2.9Zm-4.5-4.4c-.2 0-.4-.1-.4.2l-.3 2.1v.2l.7.5v-2.9Zm-4.5 4.5c0 .2-.1.4.2.4l2.1.3h.2l.5-.7h-3Zm5.7 0c0-.6-.5-1.1-1.1-1.1s-1.1.5-1.1 1.1.5 1.1 1.1 1.1 1.1-.5 1.1-1.1Zm3.4-.6c0-.6-.5-1.8-.9-2.1l-.4.6v.2l.4 1.1v.2h.9Zm-7.2 4.2c.7.5 1.4.8 2.2.9v-.7l-.2-.2-1.1-.5h-.2l-.6.5Zm2.2-8.1c-.8.1-1.5.4-2.2.9l.6.5h.2l1-.4h.2v-.9h.2Zm3.3.8c-.6-.5-1.3-.8-2.1-.9v.4c0 .3.1.5.5.6h.3c.5.5.9.3 1.2 0h.1Zm1.8 4.2h-.7c0 .1-.2.1-.2.3l-.4 1v.2l.5.6c.5-.6.8-1.4.9-2.2h-.1Zm-8.1 2.3.5-.6v-.2l-.5-1.1h-.1l-.8-.2c.1.8.4 1.5.9 2.2Zm6.4.7-.6-.5h-.2l-1 .4h-.2v.8c.7-.1 1.4-.4 2.1-.9v.2Zm-6.5-6.4c-.5.7-.8 1.4-.9 2.2h.8v-.3l.5-1.1v-.2l-.5-.6Zm3.6-4.1-.3 2.2h.4v-2.2Zm4.7 6.9h2.1l-2.2-.4v.4Zm-4.7 4.7v2.1l.3-2.2h-.3Zm-6.9-4.6 2.2.4v-.4h-2.2Zm4.6.9h-.8l.3.6.5-.6Zm5.3-.1h-.8l.5.8.3-.8Zm-.8-1.8h.8l-.3-.6-.5.6Zm-.7 3.7-.6-.5v.8l.6-.3Zm-2.4.3v-.8l-.8.5.8.3Zm-2.2-3.9h.8l-.5-.8-.3.8Zm4-1.5.6-.5-.8-.3v.8h.2Zm-1.6-.8-.7.3.6.5v-.8Zm-2.3 6.5-.9.9 1-.7-.2-.2Zm-.4-.4-.7.9.8-.8h-.1Zm.2-6.6-.9-.8.8 1 .2-.2h-.1Zm.4-.3-1.1-.7.9.9.2-.2Zm6.5 6.9.9.9-.7-1.1-.2.2Zm-.4.3 1 .7-.9-.9h-.2v.2Zm1.4-7.5-.9.9h.1l.7-.9Zm-1.1.6.8-.9-.9.7.2.2h-.1Zm.2 4.2h-.1c-.3.2-.3.6-.5.8v.2l.4-1h.2Zm-4.3 2.6-.2-.3-.7-.3h-.2l1 .5Zm2.7-.3h-.2l-.7.2v.2l.9-.4Zm1.2-4.9h-.1v.3l.3.7.2.2-.4-1.1Zm-6.5.9h.2l.3-.7v-.2h-.1l-.4 1Zm4.3-2.7.2.3.7.3h.2l-1-.5Zm-1.6-.1-1 .4c.3.2.6-.1.9-.2l.2-.2Zm-2.6 4.1h-.1l.5 1.2h.1c0-.4-.2-.6-.3-.9l-.2-.2Z" fill="#3d1d19"/>
    <path d="M253.9 295.7h73v28.7h-73v-28.7ZM7.8 295.7h72.3v28.7H7.8v-28.7Z" fill="#ddb385"/>
</svg>
