<?xml version="1.0" encoding="UTF-8"?>
<svg id="uuid-f696a75f-8da0-42cc-9de7-18f6c433eef6" data-name="uuid-2ba13461-e31d-4303-aa8d-3d9e022b2fbb" xmlns="http://www.w3.org/2000/svg" width="335" height="335" xmlns:xlink="http://www.w3.org/1999/xlink" viewBox="0 0 335 335">
  <defs>
    <clipPath id="uuid-350d27e7-c3a4-473d-827d-f48758268757">
      <rect width="335" height="335" fill="none"/>
    </clipPath>
    <linearGradient id="uuid-ce935a35-e57b-4da3-8703-ad4c054a8ea8" x1="0" y1="168" x2="335" y2="168" gradientTransform="translate(0 335.5) scale(1 -1)" gradientUnits="userSpaceOnUse">
      <stop offset="0" stop-color="#faaf40"/>
      <stop offset=".5" stop-color="#faaf40"/>
      <stop offset="1" stop-color="#faaf40"/>
    </linearGradient>
    <linearGradient id="uuid-bd322479-85ad-45d9-a401-da03005f0282" x1="-760.26" y1="239.65" x2="-419.39" y2="239.65" gradientTransform="translate(-461.36 -18.73) rotate(179.2) scale(1 -1)" gradientUnits="userSpaceOnUse">
      <stop offset="0" stop-color="#faaf40"/>
      <stop offset=".5" stop-color="#faaf40"/>
      <stop offset="1" stop-color="#faaf40"/>
    </linearGradient>
    <linearGradient id="uuid-6b66f713-0b5d-4c3c-a530-4f1e74ed926c" x1="10.73" y1="63.44" x2="29.73" y2="40.34" gradientTransform="translate(0 335.5) scale(1 -1)" gradientUnits="userSpaceOnUse">
      <stop offset="0" stop-color="#fff"/>
      <stop offset="1" stop-color="#bebebe"/>
    </linearGradient>
    <linearGradient id="uuid-28fa16e3-e534-470b-a293-acd819461d4d" x1="11.44" y1="64.03" x2="30.44" y2="40.93" gradientTransform="translate(0 335.5) scale(1 -1)" gradientUnits="userSpaceOnUse">
      <stop offset="0" stop-color="#fff"/>
      <stop offset="1" stop-color="#bebebe"/>
    </linearGradient>
    <linearGradient id="uuid-499e7268-f88a-4836-a528-0b217da08309" x1="8.05" y1="61.34" x2="27.05" y2="38.24" gradientTransform="translate(0 335.5) scale(1 -1)" gradientUnits="userSpaceOnUse">
      <stop offset="0" stop-color="#fff"/>
      <stop offset="1" stop-color="#bebebe"/>
    </linearGradient>
    <linearGradient id="uuid-6052d267-97f5-4cf8-acfc-24f23a3af794" x1="11.97" y1="64.48" x2="31.07" y2="41.38" gradientTransform="translate(0 335.5) scale(1 -1)" gradientUnits="userSpaceOnUse">
      <stop offset="0" stop-color="#fff"/>
      <stop offset="1" stop-color="#bebebe"/>
    </linearGradient>
    <linearGradient id="uuid-aa200fcd-f3b4-4ea0-988f-59f604283369" x1="12.58" y1="64.98" x2="31.68" y2="41.88" gradientTransform="translate(0 335.5) scale(1 -1)" gradientUnits="userSpaceOnUse">
      <stop offset="0" stop-color="#fff"/>
      <stop offset="1" stop-color="#bebebe"/>
    </linearGradient>
    <linearGradient id="uuid-8f1b155d-6a46-466e-9f7d-8b03b8625ee5" x1="10.29" y1="63.17" x2="29.39" y2="40.07" gradientTransform="translate(0 335.5) scale(1 -1)" gradientUnits="userSpaceOnUse">
      <stop offset="0" stop-color="#fff"/>
      <stop offset="1" stop-color="#bebebe"/>
    </linearGradient>
    <linearGradient id="uuid-281ce911-1173-40c6-94f5-5cf47e9cc31f" x1="7.33" y1="60.83" x2="26.43" y2="37.73" gradientTransform="translate(0 335.5) scale(1 -1)" gradientUnits="userSpaceOnUse">
      <stop offset="0" stop-color="#fff"/>
      <stop offset="1" stop-color="#bebebe"/>
    </linearGradient>
    <linearGradient id="uuid-155048f3-fa3a-4319-b2e7-690dafed4440" x1="8.61" y1="61.81" x2="27.71" y2="38.71" gradientTransform="translate(0 335.5) scale(1 -1)" gradientUnits="userSpaceOnUse">
      <stop offset="0" stop-color="#fff"/>
      <stop offset="1" stop-color="#bebebe"/>
    </linearGradient>
    <linearGradient id="uuid-628e3b28-cbd7-4b0e-ba55-a15d8a774ea2" x1="9.25" y1="62.34" x2="28.35" y2="39.24" gradientTransform="translate(0 335.5) scale(1 -1)" gradientUnits="userSpaceOnUse">
      <stop offset="0" stop-color="#fff"/>
      <stop offset="1" stop-color="#bebebe"/>
    </linearGradient>
    <linearGradient id="uuid-0e19754b-5d31-4242-a665-1a5e4d6abab9" x1="9.73" y1="62.72" x2="28.83" y2="39.62" gradientTransform="translate(0 335.5) scale(1 -1)" gradientUnits="userSpaceOnUse">
      <stop offset="0" stop-color="#fff"/>
      <stop offset="1" stop-color="#bebebe"/>
    </linearGradient>
  </defs>
  <g clip-path="url(#uuid-350d27e7-c3a4-473d-827d-f48758268757)">
    <g>
      <rect width="335" height="335" fill="url(#uuid-ce935a35-e57b-4da3-8703-ad4c054a8ea8)"/>
      <g>
        <polygon points="345.6 361.1 164.9 263.1 64.8 290.4 23.8 232.4 15.3 139.7 -44.7 43.4 -34.5 361.1 345.6 361.1" fill="#231f20"/>
        <polygon points="303.3 349.9 163.9 271.7 63.6 302.8 10.6 236 4.1 138.1 -40.6 76.4 -39.2 75.4 5.8 137.5 12.2 235.4 64.2 300.8 164.1 269.9 304.1 348.4 303.3 349.9" fill="url(#uuid-bd322479-85ad-45d9-a401-da03005f0282)"/>
      </g>
      <g>
        <path d="M28.9,275.8c-.3-.4-.7-.9-1-1.2l-21.8,8.6v1.6l22.7-9h.1Z" fill="url(#uuid-6b66f713-0b5d-4c3c-a530-4f1e74ed926c)"/>
        <path d="M27,273.7c-.5-.4-.9-.8-1.4-1.1l-19.1,7.5c-.1,.6-.3,1.2-.3,1.8l20.9-8.2h-.1Z" fill="url(#uuid-28fa16e3-e534-470b-a293-acd819461d4d)"/>
        <path d="M30.6,287.6l-17.4,6.9c.7,.3,1.4,.6,2.1,.8l14.4-5.7c.4-.6,.7-1.3,1-2h-.1Z" fill="url(#uuid-499e7268-f88a-4836-a528-0b217da08309)"/>
        <path d="M24.3,271.9c-.7-.3-1.4-.6-2.1-.8l-14.4,5.7c-.4,.6-.7,1.3-1,2l17.4-6.9h.1Z" fill="url(#uuid-6052d267-97f5-4cf8-acfc-24f23a3af794)"/>
        <path d="M9,275.1l11.2-4.4c-2-.3-4.2,0-6.2,.8h0c-2,.8-3.7,2.1-5.1,3.6h.1Z" fill="url(#uuid-aa200fcd-f3b4-4ea0-988f-59f604283369)"/>
        <path d="M30.3,278c-.2-.5-.5-.9-.7-1.4l-23.2,9.1c.1,.5,.2,1,.4,1.5l23.5-9.3v.1h0Z" fill="url(#uuid-8f1b155d-6a46-466e-9f7d-8b03b8625ee5)"/>
        <path d="M23.4,294.9c2-.8,3.7-2.1,5.1-3.6l-11.2,4.4c2,.3,4.2,0,6.2-.8h-.1Z" fill="url(#uuid-281ce911-1173-40c6-94f5-5cf47e9cc31f)"/>
        <path d="M31,286.2c.1-.6,.3-1.2,.3-1.8l-20.9,8.2c.5,.4,.9,.8,1.4,1.1l19.1-7.5h.1Z" fill="url(#uuid-155048f3-fa3a-4319-b2e7-690dafed4440)"/>
        <path d="M31.4,283.3v-1.6l-22.7,9c.3,.4,.7,.9,1,1.2l21.8-8.6h-.1Z" fill="url(#uuid-628e3b28-cbd7-4b0e-ba55-a15d8a774ea2)"/>
        <path d="M31.1,280.5c-.1-.5-.2-1-.4-1.5l-23.5,9.3c.2,.5,.5,.9,.7,1.4l23.2-9.1v-.1h0Z" fill="url(#uuid-0e19754b-5d31-4242-a665-1a5e4d6abab9)"/>
      </g>
      <path d="M293.3-22.9l-1.8,1.1,22.9,5.5,1.8-1.1-22.9-5.5Zm3.9-2.4l-1.8,1.1,22.9,5.5,1.8-1.1-22.9-5.5Zm-7.9,4.8l-1.8,1.1,22.9,5.5,1.8-1.1-22.9-5.5Zm-11.8,7.3l-1.8,1.1,22.9,5.5,1.8-1.1-22.9-5.5Zm7.9-4.8l-1.8,1.1,22.9,5.5,1.8-1.1-22.9-5.5Zm-3.9,2.4l-1.8,1.1,22.9,5.5,1.8-1.1-22.9-5.5Zm40.1-24.1c-.8,.2-1.7,.5-2.4,.9l11.2,2.7c-.5-.7-1.1-1.4-1.7-1.9l-7-1.7h-.1Zm-48,28.9l-1.8,1.1,22.9,5.5,1.8-1.1-22.9-5.5Zm31.6-19.4l-1.8,1.1,22.9,5.5,1.4-.9c.1,0,.2-.2,.4-.2l-22.9-5.5Zm11.8-7.3l-1.8,1.1,16.4,3.9c0-.5-.2-1.1-.3-1.6l-14.3-3.4h0Zm-7.9,4.8l-1.8,1.1,22.4,5.4c.3-.4,.7-.8,.9-1.3l-21.5-5.1v-.1Zm3.9-2.4l-1.8,1.1,20.1,4.8c0-.2,0-.3,.1-.5,0-.3,.1-.6,.2-1l-18.6-4.4h0Zm-11.8,7.3l-1.8,1.1,22.9,5.5,1.8-1.1-22.9-5.5ZM236.1,15v.3l19.2,4.6,1.8-1.1-20.6-4.9c-.1,.4-.3,.7-.3,1.1h-.1Zm2.2-4c-.4,.4-.7,.8-1.1,1.3l21.9,5.2,1.8-1.1-22.6-5.4h0Zm7.6-4.9l-1.8,1.1,22.9,5.5,1.8-1.1-22.9-5.5h0Zm-3.9,2.4l-1.8,1.1,22.9,5.5,1.8-1.1-22.9-5.5h0Zm-3.9,14.1l9.1,2.2c.5-.2,1-.4,1.4-.7l.6-.3-12.3-3c0,.2,.2,.4,.3,.6,.3,.5,.6,.9,1,1.3l-.1-.1Zm-2.2-5.4c0,.5,0,1,.2,1.6l15.2,3.6,1.8-1.1-17.2-4.1Zm25.9-20.8l-1.8,1.1,22.9,5.5,1.8-1.1-22.9-5.5Zm3.9-2.4l-1.8,1.1,22.9,5.5,1.8-1.1-22.9-5.5Zm3.9-2.4l-1.8,1.1,22.9,5.5,1.8-1.1-22.9-5.5Zm-19.7,12.1l-1.8,1.1,22.9,5.5,1.8-1.1-22.9-5.5h0Zm7.9-4.8L256,0l22.9,5.5,1.8-1.1-22.9-5.5h0Zm-3.9,2.4l-1.8,1.1,22.9,5.5,1.8-1.1-22.9-5.5Z" fill="#be1e2d"/>
      <g>
        <g>
          <path d="M321.4,15.2c-.8,0-1.5-.7-1.5-1.5s.7-1.5,1.5-1.5,1.5,.7,1.5,1.5-.7,1.5-1.5,1.5Z" fill="#231f20"/>
          <path d="M321.4,22.4c-.8,0-1.5-.7-1.5-1.5s.7-1.5,1.5-1.5,1.5,.7,1.5,1.5-.7,1.5-1.5,1.5Z" fill="#231f20"/>
          <path d="M321.4,29.6c-.8,0-1.5-.7-1.5-1.5s.7-1.5,1.5-1.5,1.5,.7,1.5,1.5-.7,1.5-1.5,1.5Z" fill="#231f20"/>
          <path d="M321.4,36.7c-.8,0-1.5-.7-1.5-1.5s.7-1.5,1.5-1.5,1.5,.7,1.5,1.5-.7,1.5-1.5,1.5Z" fill="#231f20"/>
          <circle cx="321.4" cy="42.5" r="1.5" fill="#231f20"/>
          <path d="M321.4,51.1c-.8,0-1.5-.7-1.5-1.5s.7-1.5,1.5-1.5,1.5,.7,1.5,1.5-.7,1.5-1.5,1.5Z" fill="#231f20"/>
        </g>
        <g>
          <path d="M314.1,15.2c-.8,0-1.5-.7-1.5-1.5s.7-1.5,1.5-1.5,1.5,.7,1.5,1.5-.7,1.5-1.5,1.5Z" fill="#231f20"/>
          <path d="M314.1,22.4c-.8,0-1.5-.7-1.5-1.5s.7-1.5,1.5-1.5,1.5,.7,1.5,1.5-.7,1.5-1.5,1.5Z" fill="#231f20"/>
          <path d="M314.1,29.6c-.8,0-1.5-.7-1.5-1.5s.7-1.5,1.5-1.5,1.5,.7,1.5,1.5-.7,1.5-1.5,1.5Z" fill="#231f20"/>
          <path d="M314.1,36.7c-.8,0-1.5-.7-1.5-1.5s.7-1.5,1.5-1.5,1.5,.7,1.5,1.5-.7,1.5-1.5,1.5Z" fill="#231f20"/>
          <path d="M314.1,43.9c-.8,0-1.5-.7-1.5-1.5s.7-1.5,1.5-1.5,1.5,.7,1.5,1.5-.7,1.5-1.5,1.5Z" fill="#231f20"/>
          <path d="M314.1,51.1c-.8,0-1.5-.7-1.5-1.5s.7-1.5,1.5-1.5,1.5,.7,1.5,1.5-.7,1.5-1.5,1.5Z" fill="#231f20"/>
        </g>
        <g>
          <path d="M306.8,15.2c-.8,0-1.5-.7-1.5-1.5s.7-1.5,1.5-1.5,1.5,.7,1.5,1.5-.7,1.5-1.5,1.5Z" fill="#231f20"/>
          <path d="M306.8,22.4c-.8,0-1.5-.7-1.5-1.5s.7-1.5,1.5-1.5,1.5,.7,1.5,1.5-.7,1.5-1.5,1.5Z" fill="#231f20"/>
          <path d="M306.8,29.6c-.8,0-1.5-.7-1.5-1.5s.7-1.5,1.5-1.5,1.5,.7,1.5,1.5-.7,1.5-1.5,1.5Z" fill="#231f20"/>
          <path d="M306.8,36.7c-.8,0-1.5-.7-1.5-1.5s.7-1.5,1.5-1.5,1.5,.7,1.5,1.5-.7,1.5-1.5,1.5Z" fill="#231f20"/>
          <path d="M306.8,43.9c-.8,0-1.5-.7-1.5-1.5s.7-1.5,1.5-1.5,1.5,.7,1.5,1.5-.7,1.5-1.5,1.5Z" fill="#231f20"/>
          <path d="M306.8,51.1c-.8,0-1.5-.7-1.5-1.5s.7-1.5,1.5-1.5,1.5,.7,1.5,1.5-.7,1.5-1.5,1.5Z" fill="#231f20"/>
        </g>
        <g>
          <path d="M299.5,15.2c-.8,0-1.5-.7-1.5-1.5s.7-1.5,1.5-1.5,1.5,.7,1.5,1.5-.7,1.5-1.5,1.5Z" fill="#231f20"/>
          <path d="M299.5,22.4c-.8,0-1.5-.7-1.5-1.5s.7-1.5,1.5-1.5,1.5,.7,1.5,1.5-.7,1.5-1.5,1.5Z" fill="#231f20"/>
          <path d="M299.5,29.6c-.8,0-1.5-.7-1.5-1.5s.7-1.5,1.5-1.5,1.5,.7,1.5,1.5-.7,1.5-1.5,1.5Z" fill="#231f20"/>
          <path d="M299.5,36.7c-.8,0-1.5-.7-1.5-1.5s.7-1.5,1.5-1.5,1.5,.7,1.5,1.5-.7,1.5-1.5,1.5Z" fill="#231f20"/>
          <circle cx="299.5" cy="42.5" r="1.5" fill="#231f20"/>
          <path d="M299.5,51.1c-.8,0-1.5-.7-1.5-1.5s.7-1.5,1.5-1.5,1.5,.7,1.5,1.5-.7,1.5-1.5,1.5Z" fill="#231f20"/>
        </g>
        <g>
          <path d="M292.2,15.2c-.8,0-1.5-.7-1.5-1.5s.7-1.5,1.5-1.5,1.5,.7,1.5,1.5-.7,1.5-1.5,1.5Z" fill="#231f20"/>
          <path d="M292.2,22.4c-.8,0-1.5-.7-1.5-1.5s.7-1.5,1.5-1.5,1.5,.7,1.5,1.5-.7,1.5-1.5,1.5Z" fill="#231f20"/>
          <path d="M292.2,29.6c-.8,0-1.5-.7-1.5-1.5s.7-1.5,1.5-1.5,1.5,.7,1.5,1.5-.7,1.5-1.5,1.5Z" fill="#231f20"/>
          <path d="M292.2,36.7c-.8,0-1.5-.7-1.5-1.5s.7-1.5,1.5-1.5,1.5,.7,1.5,1.5-.7,1.5-1.5,1.5Z" fill="#231f20"/>
          <path d="M292.2,43.9c-.8,0-1.5-.7-1.5-1.5s.7-1.5,1.5-1.5,1.5,.7,1.5,1.5-.7,1.5-1.5,1.5Z" fill="#231f20"/>
          <path d="M292.2,51.1c-.8,0-1.5-.7-1.5-1.5s.7-1.5,1.5-1.5,1.5,.7,1.5,1.5-.7,1.5-1.5,1.5Z" fill="#231f20"/>
        </g>
      </g>
      <g opacity=".03">
        <path d="M259.9,238.7V96.2c-11.8,0-21.4-9.6-21.4-21.4H96c0,11.8-9.6,21.4-21.4,21.4V238.7c11.8,0,21.4,9.6,21.4,21.4H238.5c0-11.8,9.6-21.4,21.5-21.4h-.1Zm-162.6,20.1c-.7-11.5-9.9-20.7-21.4-21.4V97.6c11.5-.7,20.7-9.9,21.4-21.4H237.2c.7,11.5,9.9,20.7,21.4,21.4V237.4c-11.5,.7-20.7,9.9-21.4,21.4H97.3Z" fill="#3e3b3f"/>
        <path d="M38.5,278.6c-9.9,0-17.9,8-17.9,17.9s8,17.9,17.9,17.9,17.9-8,17.9-17.9h0c0-9.9-8-17.8-17.9-17.9Zm0,33.7c-8.7,0-15.8-7.1-15.8-15.8s7.1-15.8,15.8-15.8,15.8,7.1,15.8,15.8h0c0,8.7-7.1,15.8-15.8,15.8Z" fill="#3e3b3f"/>
        <path d="M38.5,284.1c-6.8,0-12.3,5.5-12.3,12.3s5.5,12.3,12.3,12.3,12.3-5.5,12.3-12.3h0c0-6.8-5.5-12.3-12.3-12.3Zm0,23.7c-6.3,0-11.4-5.1-11.4-11.4s5.1-11.4,11.4-11.4,11.4,5.1,11.4,11.4h0c0,6.3-5.1,11.4-11.4,11.4Z" fill="#3e3b3f"/>
        <rect x="32.54" y="290.53" width="11.8" height="11.8" transform="translate(-198.35 114) rotate(-45)" fill="#3e3b3f"/>
        <path d="M38.5,56.4c9.9,0,17.9-8,17.9-17.9s-8-17.9-17.9-17.9-17.9,8-17.9,17.9h0c0,9.9,8,17.8,17.9,17.9Zm0-33.7c8.7,0,15.8,7.1,15.8,15.8s-7.1,15.8-15.8,15.8-15.8-7.1-15.8-15.8h0c0-8.7,7.1-15.8,15.8-15.8Z" fill="#3e3b3f"/>
        <path d="M38.5,50.9c6.8,0,12.3-5.5,12.3-12.3s-5.5-12.3-12.3-12.3-12.3,5.5-12.3,12.3h0c0,6.8,5.5,12.3,12.3,12.3Zm0-23.7c6.3,0,11.4,5.1,11.4,11.4s-5.1,11.4-11.4,11.4-11.4-5.1-11.4-11.4h0c0-6.3,5.1-11.4,11.4-11.4Z" fill="#3e3b3f"/>
        <rect x="32.51" y="32.5" width="11.8" height="11.8" transform="translate(-15.9 38.4) rotate(-45)" fill="#3e3b3f"/>
        <path d="M314.3,296.4c0-9.9-8-17.9-17.9-17.9s-17.9,8-17.9,17.9,8,17.9,17.9,17.9,17.8-8,17.9-17.9Zm-17.9,15.8c-8.7,0-15.8-7.1-15.8-15.8s7.1-15.8,15.8-15.8,15.8,7.1,15.8,15.8h0c0,8.7-7.1,15.8-15.8,15.8Z" fill="#3e3b3f"/>
        <path d="M296.4,284.1c-6.8,0-12.3,5.5-12.3,12.3s5.5,12.3,12.3,12.3,12.3-5.5,12.3-12.3h0c0-6.8-5.5-12.3-12.3-12.3Zm0,23.7c-6.3,0-11.4-5.1-11.4-11.4s5.1-11.4,11.4-11.4,11.4,5.1,11.4,11.4h0c0,6.3-5.1,11.4-11.4,11.4Z" fill="#3e3b3f"/>
        <rect x="290.5" y="290.47" width="11.8" height="11.8" transform="translate(-122.75 296.39) rotate(-45)" fill="#3e3b3f"/>
        <path d="M296.4,56.4c9.9,0,17.9-8,17.9-17.9s-8-17.9-17.9-17.9-17.9,8-17.9,17.9,8,17.8,17.9,17.9Zm0-33.7c8.7,0,15.8,7.1,15.8,15.8s-7.1,15.8-15.8,15.8-15.8-7.1-15.8-15.8,7.1-15.8,15.8-15.8Z" fill="#3e3b3f"/>
        <path d="M74.7,247.7c-6.9,0-12.6,5.6-12.6,12.6s5.6,12.6,12.6,12.6,12.6-5.6,12.6-12.6h0c0-6.9-5.6-12.6-12.6-12.6h0Zm0,24.2c-6.4,0-11.7-5.2-11.7-11.7s5.2-11.7,11.7-11.7,11.7,5.2,11.7,11.7h0c0,6.4-5.2,11.7-11.7,11.7Z" fill="#3e3b3f"/>
        <path d="M74.7,87.3c6.9,0,12.6-5.6,12.6-12.6s-5.6-12.6-12.6-12.6-12.6,5.6-12.6,12.6,5.6,12.6,12.6,12.6Zm0-24.2c6.4,0,11.7,5.2,11.7,11.7s-5.2,11.7-11.7,11.7-11.7-5.2-11.7-11.7,5.2-11.7,11.7-11.7Z" fill="#3e3b3f"/>
        <path d="M260.3,247.7c-6.9,0-12.6,5.6-12.6,12.6s5.6,12.6,12.6,12.6,12.6-5.6,12.6-12.6h0c0-6.9-5.6-12.6-12.6-12.6h0Zm0,24.2c-6.4,0-11.7-5.2-11.7-11.7s5.2-11.7,11.7-11.7,11.7,5.2,11.7,11.7h0c0,6.4-5.2,11.7-11.7,11.7Z" fill="#3e3b3f"/>
        <path d="M260.3,87.3c6.9,0,12.6-5.6,12.6-12.6s-5.6-12.6-12.6-12.6-12.6,5.6-12.6,12.6h0c0,6.9,5.6,12.6,12.6,12.6Zm0-24.2c6.4,0,11.7,5.2,11.7,11.7s-5.2,11.7-11.7,11.7-11.7-5.2-11.7-11.7h0c0-6.4,5.2-11.7,11.7-11.7Z" fill="#3e3b3f"/>
        <path d="M260.3,80c2.9,0,5.3-2.4,5.3-5.3s-2.4-5.3-5.3-5.3-5.3,2.4-5.3,5.3,2.4,5.3,5.3,5.3Zm0-9.7c2.4,0,4.4,2,4.4,4.4s-2,4.4-4.4,4.4-4.4-2-4.4-4.4,2-4.4,4.4-4.4h0Z" fill="#3e3b3f"/>
        <path d="M74.7,80c2.9,0,5.3-2.4,5.3-5.3s-2.4-5.3-5.3-5.3-5.3,2.4-5.3,5.3h0c0,2.9,2.4,5.3,5.3,5.3Zm0-9.7c2.4,0,4.4,2,4.4,4.4s-2,4.4-4.4,4.4-4.4-2-4.4-4.4h0c0-2.4,2-4.4,4.4-4.4h0Z" fill="#3e3b3f"/>
        <path d="M260.3,255c-2.9,0-5.3,2.4-5.3,5.3s2.4,5.3,5.3,5.3,5.3-2.4,5.3-5.3-2.4-5.3-5.3-5.3h0Zm0,9.7c-2.4,0-4.4-2-4.4-4.4s2-4.4,4.4-4.4,4.4,2,4.4,4.4-2,4.4-4.4,4.4Z" fill="#3e3b3f"/>
        <path d="M74.7,255c-2.9,0-5.3,2.4-5.3,5.3s2.4,5.3,5.3,5.3,5.3-2.4,5.3-5.3-2.4-5.3-5.3-5.3h0Zm0,9.7c-2.4,0-4.4-2-4.4-4.4s2-4.4,4.4-4.4,4.4,2,4.4,4.4-2,4.4-4.4,4.4Z" fill="#3e3b3f"/>
        <path d="M296.4,50.9c6.8,0,12.3-5.5,12.3-12.3s-5.5-12.3-12.3-12.3-12.3,5.5-12.3,12.3h0c0,6.8,5.5,12.3,12.3,12.3Zm0-23.7c6.3,0,11.4,5.1,11.4,11.4s-5.1,11.4-11.4,11.4-11.4-5.1-11.4-11.4,5.1-11.4,11.4-11.4Z" fill="#3e3b3f"/>
        <path d="M323.6,310.4V175.4l7.9-7.9-7.9-7.9V24.6c6.8-.5,11.9-6.4,11.4-13.2S328.6-.5,321.8,0c-6,.4-10.8,5.2-11.4,11.2H175.2l-7.9-7.9-7.9,7.9H24.6C24,4.4,18-.6,11.2,0S-.6,6.7,0,13.5c.5,5.8,5.1,10.5,10.9,11.1V159.6l-7.9,7.9,7.9,7.9v135.1c-6.8,.8-11.6,6.8-10.9,13.6s6.8,11.6,13.6,10.9c5.8-.6,10.4-5.3,10.9-11.1H159.4l7.9,7.9,7.9-7.9h135.3c.6,6.8,6.6,11.8,13.4,11.1,6.8-.6,11.8-6.6,11.1-13.4-.5-6-5.4-10.7-11.4-11.2h0Zm-131.2-13.1l-25.1,25.1-25.1-25.1h50.2Zm-61.4-2h-61.6c-1-16.1-13.8-29-30-30v-61.6h0v-72.7h0v-61.6c16.1-1,29-13.8,30-30h195.8c1,16.1,13.8,29,30,30v61.6h0v72.7h0v61.6c-16.1,1-29,13.8-30,30H131ZM24.1,91.4c-1.5-1-3.5-1-5,0v-2.4c0-1.4,1.1-2.5,2.5-2.5s2.5,1.1,2.5,2.5v2.4Zm0,3.8c0,1.4-1.1,2.5-2.5,2.5s-2.5-1.1-2.5-2.5,1.1-2.5,2.5-2.5,2.5,1.1,2.5,2.5h0Zm-5,3.8c1.5,1,3.5,1,5,0v47.5l-5,5v-52.5Zm18.3,93.6l-25.1-25.1,25.1-25.1v50.2h0ZM95.7,19.3c1.3,.4,2,1.8,1.6,3.1s-1.8,2-3.1,1.6-2-1.8-1.6-3.1c.2-.8,.9-1.4,1.6-1.6h1.5Zm-4.4,5h-2.5c-1.4,0-2.5-1.1-2.5-2.5s1.1-2.5,2.5-2.5h2.3c-1,1.5-.9,3.5,.2,5h0Zm7.5-5h52.4l-5,5h-47.6c1.1-1.5,1.1-3.4,.2-5h0Zm143.2,2.5c0,1.4-1.1,2.5-2.5,2.5s-2.5-1.1-2.5-2.5,1.1-2.5,2.5-2.5,2.5,1.1,2.5,2.5h0Zm1.3-2.5h2.4c1.4,0,2.5,1.1,2.5,2.5s-1.1,2.5-2.5,2.5h-2.4c1-1.5,1-3.5,0-5h0Zm-7.5,5h-47.5l-5-5h52.5c-1,1.5-1,3.5,0,5h0Zm-93.6,13.3l25.1-25.1,25.1,25.1h-50.2Zm173.3,54c-1.4-1.1-3.4-1.2-5-.3v-2.2c0-1.4,1.1-2.5,2.5-2.5s2.5,1.1,2.5,2.5v2.5Zm-5,2.5c.6-1.2,2.1-1.8,3.3-1.2,1.2,.6,1.8,2.1,1.2,3.3-.6,1.2-2.1,1.8-3.3,1.2-.5-.2-.9-.7-1.2-1.2v-2.1Zm0,5c1.6,.9,3.5,.8,5-.3v52.7l-5-5v-47.4Zm-13.3,43.2l25.1,25.1-25.1,25.1v-50.2h0Zm26.4,30.1h0l-26.4,26.4v-5l26.4-26.4-26.4-26.4v-5l31.4,31.4-5,5Zm-2-148.8c-5.5-.6-9.8-5-10.2-10.5h10.2v10.5Zm1.1-22.8c6.3,0,11.4,5.2,11.3,11.5,0,5.9-4.6,10.7-10.4,11.3V11.2h-12.3c.6-5.8,5.5-10.3,11.4-10.3h0v-.1Zm-12.3,12.3c.4,6,5.2,10.8,11.1,11.4V157.6l-4.1-4.1V89.1c0-2.5-2-4.5-4.5-4.5s-4.5,2-4.5,4.5v4.7c-.3,.9-.3,2,0,2.9v47.8l-11.4-11.4V67.8c-16.6,0-30-13.4-30-30h-65.3l-11.4-11.4h55.4c2.5,0,4.5-2,4.5-4.5s-2-4.5-4.5-4.5h-64.5l-4-4h133.2v-.3ZM167.3,6.2l5,5h0l6.1,6.1h0l9,9h0l11.3,11.3h-5l-26.4-26.4-26.4,26.4h-5l11.3-11.3h0l9-9h0l6.1-6.1h0l5-5h0ZM.9,12.3C.8,6,5.9,.8,12.2,.8s11,4.5,11.5,10.4H11v12.5C5.2,22.9,.9,18.1,.9,12.3Zm22.8,.9c-.5,5.7-5,10.1-10.7,10.5V13.2h10.7Zm-10.7,11.4c6.2-.4,11.1-5.2,11.6-11.4H157.3l-4,4h-57.3c-.7-.2-1.3-.2-2,0h-5.2c-2.5,0-4.5,2-4.5,4.5s2,4.5,4.5,4.5h55.4l-11.4,11.4H67.5c0,16.6-13.4,30-30,30v65.3l-11.4,11.4v-55.4c0-2.5-2-4.5-4.5-4.5s-4.5,2-4.5,4.5v64.5l-4.1,4.1V24.6ZM6,167.5l31.4-31.4v5l-26.4,26.4,26.4,26.4v5l-26.4-26.4h0l-5-5Zm7,143.8c5.7,.4,10.2,4.8,10.7,10.5H13v-10.5Zm-.7,22.8c-6.3,0-11.4-5.2-11.3-11.5,0-5.7,4.3-10.5,10-11.2v12.5h12.7c-.6,5.8-5.5,10.3-11.4,10.3v-.1h0Zm12.3-12.3c-.5-6.2-5.4-11-11.6-11.4V177.4l4.1,4.1v57.3c-.2,.7-.2,1.3,0,2v5.2c0,2.5,2,4.5,4.5,4.5s4.5-2,4.5-4.5v-55.4l11.4,11.4v65.3c16.6,0,30,13.4,30,30h65.3l11.4,11.4h-55.4c-2.5,0-4.5,2-4.5,4.5s2,4.5,4.5,4.5h64.5l4.1,4.1H24.6Zm-.5-85.7c-1.5-1-3.4-1.1-5-.2v-52.4l5,5v47.6h0Zm-5,3c.4-1.3,1.8-2,3.1-1.6,1.3,.4,2,1.8,1.6,3.1s-1.8,2-3.1,1.6c-.8-.2-1.4-.9-1.6-1.6v-1.5Zm0,4.6c1.5,1,3.5,.9,5-.2v2.5c0,1.4-1.1,2.5-2.5,2.5s-2.5-1.1-2.5-2.5v-2.3Zm73.4,69.6c0-1.4,1.1-2.5,2.5-2.5s2.5,1.1,2.5,2.5-1.1,2.5-2.5,2.5h0c-1.4,0-2.5-1.1-2.5-2.5h0Zm-1.3,2.5h-2.4c-1.4,0-2.5-1.1-2.5-2.5s1.1-2.5,2.5-2.5h2.4c-1,1.5-1,3.5,0,5h0Zm7.5-5h47.5l5,5h-52.5c1-1.5,1-3.5,0-5Zm68.5,18.1l-5-5-6.1-6.1-9-9-11.3-11.3h5l26.4,26.4,26.4-26.4h5l-11.3,11.3-9,9-6.1,6.1-5,5h0Zm71.5-13.1c-1.3-.4-2-1.8-1.6-3.1s1.8-2,3.1-1.6,2,1.8,1.6,3.1c-.2,.8-.9,1.4-1.6,1.6h-1.5Zm4.4-5h2.5c1.4,0,2.5,1.1,2.5,2.5s-1.1,2.5-2.5,2.5h-2.3c1-1.5,.9-3.5-.2-5h0Zm-7.5,5h-52.4l5-5h47.6c-1,1.5-1.1,3.4-.2,5h0Zm-54.5,2h57.3c.7,.2,1.3,.2,2,0h5.2c2.5,0,4.5-2,4.5-4.5s-2-4.5-4.5-4.5h-55.4l11.4-11.4h65.3c0-16.6,13.4-30,30-30h0v-65.3l11.4-11.4v47.5c-.5,1.1-.5,2.4,0,3.5v4.4c0,2.5,2,4.5,4.5,4.5s4.5-2,4.5-4.5v-64.5l4.1-4.1v133c-6,.6-10.7,5.4-11.1,11.4H177.2l4.1-4-.2-.1h0Zm134.2-81.4c-1.4-1.1-3.4-1.3-5-.5v-47.4l5-5v52.9Zm-5,2.2c.7-1.2,2.2-1.6,3.4-.9,1.2,.7,1.6,2.2,.9,3.4s-2.2,1.6-3.4,.9c-.4-.2-.6-.5-.9-.9v-2.5Zm0,5.3c1.6,.9,3.6,.7,5-.5v2.6c0,1.4-1.1,2.5-2.5,2.5s-2.5-1.1-2.5-2.5v-2.1Zm11.1,67.6v10.5h-10.2c.4-5.5,4.7-9.9,10.2-10.5h0Zm1.1,22.8c-5.9,0-10.8-4.4-11.4-10.3h12.3v-12.5c6.3,.6,10.9,6.1,10.4,12.4-.5,5.8-5.4,10.4-11.3,10.4Z" fill="#3e3b3f"/>
        <rect x="290.38" y="32.54" width="11.8" height="11.8" transform="translate(59.6 220.76) rotate(-45)" fill="#3e3b3f"/>
      </g>
      <g>
        <g>
          <path d="M304.7,296.3l-.8,.4-1.7-1c-1.2-.7-3.3-.7-4.5,0l-1.6,1-.8-.4,1.6-1c1.7-1,4.4-1,6.1,0l1.7,1h0Z" fill="#7a2929"/>
          <polygon points="299.8 300.5 299.8 303.1 299.7 301.7 299.8 299 299.8 300.5" fill="#1b191b"/>
          <path d="M312.2,309.7c.2,.1,.2,.4,0,.5s-.6,.1-.8,0-.2-.4,0-.5,.6-.1,.8,0Z" fill="#bc3121"/>
          <path d="M312.6,309.5c.5,.3,.5,.7,0,1s-1.2,.3-1.7,0l-9.4-5.4c-.5-.3-.5-.7,0-1s1.2-.3,1.7,0l9.4,5.4Zm-1.4,.8c.3,.2,.8,.2,1.1,0s.3-.5,0-.7l-9.4-5.4c-.3-.2-.8-.2-1.1,0s-.3,.5,0,.7l9.4,5.4" fill="#2e2b2f"/>
          <path d="M298.1,304.4c.2,.1,.2,.4,0,.5s-.6,.1-.8,0-.2-.4,0-.5,.6-.1,.8,0Z" fill="#bc3121"/>
          <path d="M298.6,304.1c.5,.3,.5,.7,0,1l-9.3,5.4c-.5,.3-1.2,.3-1.7,0s-.5-.7,0-1l9.3-5.4c.5-.3,1.2-.3,1.7,0Zm-9.6,6.2l9.3-5.4c.3-.2,.3-.5,0-.7s-.8-.2-1.1,0l-9.3,5.4c-.3,.2-.3,.5,0,.7s.8,.2,1.1,0" fill="#2e2b2f"/>
          <path d="M297.2,304.3c.3-.2,.8-.2,1.1,0s.3,.5,0,.7l-9.3,5.4c-.3,.2-.8,.2-1.1,0s-.3-.5,0-.7l9.3-5.4Zm1,.6c.2-.1,.2-.4,0-.5s-.6-.1-.8,0-.2,.4,0,.5,.6,.1,.8,0m-10.1,5.4c.2,.1,.6,.1,.8,0s.2-.4,0-.5-.6-.1-.8,0-.2,.4,0,.5" fill="#d09f40"/>
          <path d="M298.5,317.8c.3,.2,.3,.5,0,.7s-.8,.2-1.1,0l-9.4-5.4c-.3-.2-.3-.5,0-.7s.8-.2,1.1,0l9.4,5.4Zm-10.3-4.8c.2,.1,.6,.1,.8,0s.2-.4,0-.5-.6-.1-.8,0-.2,.4,0,.5m9.3,5.4c.2,.1,.6,.1,.8,0s.2-.4,0-.5-.6-.1-.8,0-.2,.4,0,.5" fill="#d09f40"/>
          <path d="M289,312.5c.2,.1,.2,.4,0,.5s-.6,.1-.8,0-.2-.4,0-.5,.6-.1,.8,0Z" fill="#bc3121"/>
          <path d="M301.8,322.6c-.4-.3-1-.4-1.6-.4v-8c.5,0,.9,.2,1.3,.4h.3v-.2c-1.1-.6-2.8-.6-3.8,0v.2h.3c.4-.2,.9-.4,1.4-.4v8c-.5,0-1.1,.2-1.5,.4-1,.6-1,1.5,0,2.1s2.6,.6,3.6,0,1-1.5,0-2.1h0Z" fill="#2e2b2f"/>
          <path d="M326.9,310l-24.7-14.3c-1.2-.7-3.3-.7-4.5,0l-1.6,1-21.2,12.3-1.6,1c-1.2,.7-1.2,1.9,0,2.6l1.7,1,21.3,12.3,1.7,1c1.3,.7,3.3,.7,4.5,0l24.5-14.3c1.2-.7,1.2-1.9,0-2.6h-.1Zm-14.3-.6c.5,.3,.5,.7,0,1s-1.2,.3-1.7,0l-9.4-5.4c-.5-.3-.5-.7,0-1s1.2-.3,1.7,0l9.4,5.4m-10.7,2.9c-1,.6-2.6,.6-3.6,0s-1-1.5,0-2.1,2.6-.6,3.6,0,1,1.5,0,2.1m-3.8-14.4c1-.6,2.6-.6,3.6,0s1,1.5,0,2.1c-.4,.3-1,.4-1.6,.4v8c.6,0,1.1-.2,1.5-.4h.3v.2c-1.1,.6-2.8,.6-3.8,0v-.2h.3c.4,.2,.9,.4,1.4,.4v-8c-.6,0-1.2-.2-1.6-.4-1-.6-1-1.5,0-2.1m-10.9,11.9c0-.1,.1-.3,.3-.4l9.3-5.4c.2-.1,.5-.2,.8-.2s.6,0,.8,.2c0,0,.1,0,.2,.1l.1,.1v.6l-.1,.1-.1,.1-9.3,5.4c-.5,.3-1.2,.3-1.7,0,0,0-.1,0-.2-.1l-.1-.1v-.4m-6.7,2.5c-1,.6-2.6,.6-3.6,0s-1-1.5,0-2.1,2.6-.6,3.6,0c.4,.3,.7,.6,.7,.9h13.9c0-.3-.3-.6-.7-.8v-.2h.3c1.1,.6,1.1,1.6,0,2.2h-.3v-.2c.4-.2,.6-.5,.7-.8h-13.9c0,.3-.3,.7-.7,.9m7.2,.8c-.5-.3-.5-.7,0-1s1.2-.3,1.7,0l9.4,5.4c.5,.3,.5,.7,0,1s-1.2,.3-1.7,0l-9.4-5.4m14.1,11.5c-1,.6-2.6,.6-3.6,0s-1-1.5,0-2.1c.4-.3,1-.4,1.6-.4v-8c-.6,0-1.1,.2-1.5,.4h-.3v-.2c1.1-.6,2.8-.6,3.8,0v.2h-.3c-.4-.2-.9-.4-1.4-.4v8c.6,0,1.2,.2,1.6,.4,1,.6,1,1.5,0,2.1m10.9-11.5l-9.3,5.4c-.5,.3-1.2,.3-1.7,0s-.5-.7,0-1l9.3-5.4c.5-.3,1.2-.3,1.7,0s.5,.7,0,1m10.3-.8c-1,.6-2.6,.6-3.6,0-.4-.3-.7-.6-.7-.9h-13.9c0,.3,.3,.6,.7,.8v.2h-.3c-1.1-.6-1.1-1.6,0-2.2h.3v.2c-.4,.2-.6,.5-.7,.8h13.9c0-.3,.3-.7,.7-.9,1-.6,2.6-.6,3.6,0s1,1.5,0,2.1" fill="#d09f40"/>
          <path d="M302.8,304.3c.2,.1,.2,.4,0,.5s-.6,.1-.8,0-.2-.4,0-.5,.6-.1,.8,0Z" fill="#bc3121"/>
          <path d="M301.8,298c-1-.6-2.6-.6-3.6,0s-1,1.5,0,2.1c.4,.3,1,.4,1.6,.4v8c-.5,0-.9-.2-1.3-.4h-.3v.2c1.1,.6,2.8,.6,3.8,0v-.2h-.3c-.4,.2-.9,.4-1.4,.4v-8c.5,0,1.1-.2,1.5-.4,1-.6,1-1.5,0-2.1h0Z" fill="#2e2b2f"/>
          <polygon points="325.9 308.6 325.2 309 303.9 296.7 304.7 296.3 325.9 308.6" fill="#90412f"/>
          <polygon points="296.1 296.7 274.8 309.1 274.1 308.6 295.3 296.3 296.1 296.7" fill="#90412f"/>
          <path d="M301.8,304.9c-.3-.2-.3-.5,0-.7s.8-.2,1.1,0l9.4,5.4c.3,.2,.3,.5,0,.7s-.8,.2-1.1,0l-9.4-5.4Zm1-.5c-.2-.1-.6-.1-.8,0s-.2,.4,0,.5,.6,.1,.8,0,.2-.4,0-.5m9.3,5.4c-.2-.1-.6-.1-.8,0s-.2,.4,0,.5,.6,.1,.8,0,.2-.4,0-.5" fill="#d09f40"/>
          <path d="M288.9,309.8c.2,.1,.2,.4,0,.5s-.6,.1-.8,0-.2-.4,0-.5,.6-.1,.8,0Z" fill="#bc3121"/>
          <polygon points="301.7 311 300.8 311.4 301.7 311.7 300.6 311.6 300.8 312.2 300.2 311.7 299.6 312.2 299.7 311.6 298.7 311.7 299.5 311.4 298.7 311 299.7 311.1 299.5 310.5 300.2 311 300.8 310.5 300.6 311.1 301.7 311" fill="#d0c9bf"/>
          <path d="M323.1,310.3c-1-.6-2.6-.6-3.6,0-.4,.3-.7,.6-.7,.9h-13.9c0-.3,.3-.6,.7-.8v-.2h-.3c-1.1,.6-1,1.6,0,2.2h.3v-.2c-.4-.2-.6-.5-.7-.8h13.9c0,.3,.3,.7,.7,.9,1,.6,2.6,.6,3.6,0s1-1.5,0-2.1v.1Z" fill="#2e2b2f"/>
          <path d="M294.8,310.2h-.3v.2c.4,.2,.6,.5,.7,.8h-13.9c0-.3-.3-.7-.7-.9-1-.6-2.6-.6-3.6,0s-1,1.5,0,2.1,2.6,.6,3.6,0c.4-.3,.7-.6,.7-.9h13.9c0,.3-.3,.6-.7,.8v.2h.3c1.1-.6,1-1.6,0-2.2v-.1Z" fill="#2e2b2f"/>
          <path d="M302,310.3c1,.6,1,1.5,0,2.1s-2.6,.6-3.6,0-1-1.5,0-2.1,2.6-.6,3.6,0Zm-1.1,1.9l-.2-.6h1.1l-.9-.3,.9-.4h-1.1l.2-.5-.6,.5-.6-.5,.2,.6h-1.1l.9,.3-.9,.4h1.1l-.2,.5,.6-.5,.6,.5" fill="#bc3121"/>
          <path d="M303.1,317.8c.2,.1,.2,.4,0,.5s-.6,.1-.8,0-.2-.4,0-.5,.6-.1,.8,0Z" fill="#bc3121"/>
          <path d="M312.8,312.2c.5,.3,.5,.7,0,1l-9.3,5.4c-.5,.3-1.2,.3-1.7,0s-.5-.7,0-1l9.3-5.4c.5-.3,1.2-.3,1.7,0Zm-9.6,6.2l9.3-5.4c.3-.2,.3-.5,0-.7s-.8-.2-1.1,0l-9.3,5.4c-.3,.2-.3,.5,0,.7s.8,.2,1.1,0" fill="#2e2b2f"/>
          <path d="M312.3,312.4c.2,.1,.2,.4,0,.5s-.6,.1-.8,0-.2-.4,0-.5,.6-.1,.8,0Z" fill="#bc3121"/>
          <path d="M329,311.4v.2h0v.2h0v.2h0v.2h-.1v.2h-.1v.2h-.2v.2h-.2v.2h-.2v.2h-.1l-1.6,1v2.7l1.6-1h.2v-.2h.2v-.2h.1v-.2h.2v-.2h.2v-.2h.1v-.2h0v-.2h0v-.2h0v-.3h0v-2.7h0l-.1,.1h0Z" fill="#6d2525"/>
          <polygon points="326.1 314.1 326.1 316.7 304.8 329.1 304.8 326.4 326.1 314.1" fill="#813a2a"/>
          <path d="M327.7,309.6c1.7,1,1.7,2.5,0,3.5l-1.6,1-.8-.4,1.6-1c1.2-.7,1.2-1.9,0-2.6l-1.8-1,.8-.4,1.8,1v-.1Z" fill="#7a2929"/>
          <path d="M274.8,309.1l-1.6,1c-1.2,.7-1.2,1.9,0,2.6l1.7,1-.8,.4-1.7-1c-1.7-1-1.7-2.5,0-3.5l1.6-1,.8,.4v.1Z" fill="#7a2929"/>
          <path d="M298.4,317.9c.2,.1,.2,.4,0,.5s-.6,.1-.8,0-.2-.4,0-.5,.6-.1,.8,0Z" fill="#bc3121"/>
          <path d="M303.2,318.4c-.3,.2-.8,.2-1.1,0s-.3-.5,0-.7l9.3-5.4c.3-.2,.8-.2,1.1,0s.3,.5,0,.7l-9.3,5.4Zm9.1-6c-.2-.1-.6-.1-.8,0s-.2,.4,0,.5,.6,.1,.8,0,.2-.4,0-.5m-10.1,5.4c-.2,.1-.2,.4,0,.5s.6,.1,.8,0,.2-.4,0-.5-.6-.1-.8,0" fill="#d09f40"/>
          <path d="M298.8,317.7c.5,.3,.5,.7,0,1s-1.2,.3-1.7,0l-9.4-5.4c-.5-.3-.5-.7,0-1s1.2-.3,1.7,0l9.4,5.4Zm-1.4,.8c.3,.2,.8,.2,1.1,0s.3-.5,0-.7l-9.4-5.4c-.3-.2-.8-.2-1.1,0s-.3,.5,0,.7l9.4,5.4" fill="#2e2b2f"/>
          <polygon points="274.8 313.6 296.1 325.9 295.4 326.4 274.1 314.1 274.8 313.6" fill="#90412f"/>
          <polygon points="295.4 326.4 295.4 329 274.1 316.7 274.1 314.1 295.4 326.4" fill="#5a281e"/>
          <polygon points="325.3 313.6 326.1 314.1 304.8 326.4 304.1 326 325.3 313.6" fill="#90412f"/>
          <path d="M272.4,313.1c-.2-.1-.4-.2-.6-.4h0v-.2h-.2v-.2c-.2-.1-.3-.2-.3-.3h0v-.7h0v2.7c0,.6,.4,1.3,1.3,1.8l1.7,1v-2.7l-1.6-1h-.3Z" fill="#491919"/>
          <path d="M303.2,327.4h-.2v.2h-.5v.2h-.4v.2h-.7l-.2,.2h-2.8v-.2h-.5v-.2h-.5v-.2h-.2l-.2-.2-1.7-1v2.7l1.7,1h.2v.2h.4v.2h.5v.2h.7l.2,.2h2.8v-.2h.4l.2-.2h.2v-.2h.3v-.2l1.8-1v-2.7l-1.6,.9,.1,.1h0Z" fill="#491919"/>
          <path d="M304.8,326.4l-1.6,1c-1.7,1-4.4,1-6.1,0l-1.7-1,.8-.4,1.7,1c1.2,.7,3.3,.7,4.5,0l1.6-1,.8,.4h0Z" fill="#7a2929"/>
        </g>
        <g>
          <path d="M306.7,301.9c3.5,2,3.5,5.3,0,7.3-3.4,2-9.1,2-12.5,0s-3.5-5.3,0-7.3,9.1-2,12.5,0Zm-9.3,5.4c1.7,1,4.4,1,6.1,0s1.7-2.6,0-3.6-4.4-1-6.1,0-1.7,2.6,0,3.6" fill="#414042"/>
          <path d="M308.4,300.9c4.4,2.5,4.4,6.7,0,9.2s-11.5,2.5-15.9,0-4.4-6.7,0-9.2,11.5-2.5,15.9,0Zm-14.5,8.4c3.7,2.1,9.6,2.1,13.2,0s3.6-5.6,0-7.7-9.6-2.1-13.2,0-3.6,5.6,0,7.7" fill="#414042"/>
          <path d="M303.5,303.8c1.7,1,1.7,2.6,0,3.6s-4.4,1-6.1,0-1.7-2.6,0-3.6,4.4-1,6.1,0Zm-5.8,3.4c1.5,.9,4,.9,5.5,0s1.5-2.3,0-3.2-4-.9-5.5,0-1.5,2.3,0,3.2" fill="#58595b"/>
          <path d="M303.2,304c1.5,.9,1.5,2.3,0,3.2-1.5,.9-4,.9-5.5,0s-1.5-2.3,0-3.2,4-.9,5.5,0Z" fill="#414042"/>
          <path d="M307,301.7c3.7,2.1,3.7,5.6,0,7.7-3.6,2.1-9.6,2.1-13.2,0s-3.7-5.6,0-7.7c3.6-2.1,9.6-2.1,13.2,0Zm-12.8,7.5c3.5,2,9.1,2,12.5,0s3.4-5.3,0-7.3-9.1-2-12.5,0-3.4,5.3,0,7.3" fill="#58595b"/>
          <path d="M311.7,305.6v4.1c0,1.7-1.1,3.3-3.3,4.6-4.4,2.5-11.5,2.5-15.9,0-2.2-1.3-3.3-3-3.3-4.6v-4.1c0,1.7,1.1,3.4,3.3,4.6,4.4,2.5,11.5,2.5,15.9,0,2.2-1.3,3.3-2.9,3.3-4.6Z" fill="none"/>
          <path d="M311.7,305.7v.6c0,.2-.1,.4-.2,.6,0,.2-.2,.4-.3,.6-.1,.2-.3,.5-.5,.7-.2,.3-.4,.5-.7,.8-.4,.4-.9,.8-1.4,1.1h-.1c-.8,.5-1.6,.9-2.5,1.2-.7,.2-1.4,.4-2.1,.5-.5,0-.9,.2-1.4,.2h-3.5c-.4,0-.7,0-1.1-.1-.4,0-.7-.1-1.1-.2-.4,0-.8-.2-1.2-.3-.5-.1-.9-.3-1.4-.5-.6-.2-1.1-.5-1.6-.8-2.2-1.3-3.3-3-3.3-4.6v4.1c0,1.7,1.1,3.4,3.3,4.6,.5,.3,1.1,.6,1.6,.8,.4,.2,.9,.3,1.4,.5,.4,.1,.8,.2,1.2,.3,.4,0,.8,.1,1.1,.2,.4,0,.7,0,1.1,.1h3.5c.5,0,1-.1,1.4-.2,.7-.1,1.4-.3,2.1-.5,.9-.3,1.7-.6,2.5-1.1h.1c.5-.4,1-.7,1.4-1.1,.3-.2,.5-.5,.7-.8,.2-.2,.3-.4,.5-.7l.3-.6c0-.2,.1-.4,.2-.6v-.6h0v-4.2h0Z" fill="#343435"/>
        </g>
        <g>
          <path d="M302.4,295.8c3.5,2,3.5,5.3,0,7.3-3.4,2-9.1,2-12.5,0-3.5-2-3.5-5.3,0-7.3,3.4-2,9.1-2,12.5,0Zm-9.3,5.4c1.7,1,4.4,1,6.1,0s1.7-2.6,0-3.6-4.4-1-6.1,0-1.7,2.6,0,3.6" fill="#d1d3d4"/>
          <path d="M304.1,294.8c4.4,2.5,4.4,6.7,0,9.2s-11.5,2.5-15.9,0-4.4-6.7,0-9.2,11.5-2.5,15.9,0Zm-14.5,8.4c3.7,2.1,9.6,2.1,13.2,0s3.6-5.6,0-7.7c-3.7-2.1-9.6-2.1-13.2,0s-3.6,5.6,0,7.7" fill="#d1d3d4"/>
          <path d="M299.2,297.6c1.7,1,1.7,2.6,0,3.6s-4.4,1-6.1,0-1.7-2.6,0-3.6,4.4-1,6.1,0Zm-5.8,3.4c1.5,.9,4,.9,5.5,0s1.5-2.3,0-3.2-4-.9-5.5,0-1.5,2.3,0,3.2" fill="#f1f2f2"/>
          <path d="M298.9,297.8c1.5,.9,1.5,2.3,0,3.2-1.5,.9-4,.9-5.5,0s-1.5-2.3,0-3.2c1.5-.9,4-.9,5.5,0Z" fill="#d1d3d4"/>
          <path d="M302.8,295.6c3.7,2.1,3.7,5.6,0,7.7-3.6,2.1-9.6,2.1-13.2,0-3.7-2.1-3.7-5.6,0-7.7,3.6-2.1,9.6-2.1,13.2,0Zm-12.8,7.5c3.5,2,9.1,2,12.5,0s3.4-5.3,0-7.3c-3.5-2-9.1-2-12.5,0s-3.4,5.3,0,7.3" fill="#f1f2f2"/>
          <path d="M307.4,299.4v4.1c0,1.7-1.1,3.3-3.3,4.6-4.4,2.5-11.5,2.5-15.9,0-2.2-1.3-3.3-3-3.3-4.6v-4.1c0,1.7,1.1,3.4,3.3,4.6,4.4,2.5,11.5,2.5,15.9,0,2.2-1.3,3.3-2.9,3.3-4.6Z" fill="none"/>
          <path d="M307.4,299.5v.6c0,.2-.1,.4-.2,.6,0,.2-.2,.4-.3,.6-.1,.2-.3,.5-.5,.7-.2,.3-.4,.5-.7,.8-.4,.4-.9,.8-1.4,1.1h-.1c-.8,.5-1.6,.9-2.5,1.2-.7,.2-1.4,.4-2.1,.5-.5,0-.9,.2-1.4,.2h-3.5c-.4,0-.7,0-1.1-.1-.4,0-.7-.1-1.1-.2-.4,0-.8-.2-1.2-.3-.5-.1-.9-.3-1.4-.5-.6-.2-1.1-.5-1.6-.8-2.2-1.3-3.3-3-3.3-4.6v4.1c0,1.7,1.1,3.4,3.3,4.6,.5,.3,1.1,.6,1.6,.8,.4,.2,.9,.3,1.4,.5,.4,.1,.8,.2,1.2,.3,.4,0,.8,.1,1.1,.2,.4,0,.7,0,1.1,.1h3.5c.5,0,1-.1,1.4-.2,.7-.1,1.4-.3,2.1-.5,.9-.3,1.7-.6,2.5-1.1h.1c.5-.4,1-.7,1.4-1.1,.3-.2,.5-.5,.7-.8,.2-.2,.3-.4,.5-.7l.3-.6c0-.2,.1-.4,.2-.6v-.6h0v-4.2h0Z" fill="#bcbec0"/>
        </g>
        <g>
          <path d="M306.9,290c-3.5-2-9.1-2-12.5,0s-3.4,5.3,0,7.3,9.1,2,12.5,0,3.4-5.3,0-7.3Zm-3.2,5.4c-1.7,1-4.4,1-6.1,0s-1.7-2.6,0-3.6,4.4-1,6.1,0,1.7,2.6,0,3.6Z" fill="#be1e2d"/>
          <path d="M308.6,289c-4.4-2.5-11.5-2.5-15.9,0s-4.3,6.7,0,9.2c4.4,2.5,11.5,2.5,15.9,0s4.3-6.7,0-9.2Zm-1.3,8.4c-3.6,2.1-9.6,2.1-13.2,0s-3.7-5.6,0-7.7,9.6-2.1,13.2,0,3.7,5.6,0,7.7Z" fill="#be1e2d"/>
          <path d="M303.4,292c-1.5-.9-4-.9-5.5,0s-1.5,2.3,0,3.2,4,.9,5.5,0,1.5-2.3,0-3.2Z" fill="#be1e2d"/>
          <path d="M303.7,291.9c-1.7-1-4.4-1-6.1,0s-1.7,2.6,0,3.6,4.4,1,6.1,0,1.7-2.6,0-3.6Zm-.3,3.4c-1.5,.9-4,.9-5.5,0s-1.5-2.3,0-3.2,4-.9,5.5,0,1.5,2.3,0,3.2Z" fill="#f9586b"/>
          <path d="M307.3,289.8c-3.7-2.1-9.6-2.1-13.2,0s-3.6,5.6,0,7.7c3.7,2.1,9.6,2.1,13.2,0s3.6-5.6,0-7.7Zm-.3,7.5c-3.4,2-9.1,2-12.5,0s-3.5-5.3,0-7.3c3.4-2,9.1-2,12.5,0,3.5,2,3.5,5.2,0,7.3h0Z" fill="#f9586b"/>
          <path d="M311.9,293.7v4.1c0,1.7-1.1,3.3-3.3,4.6-4.4,2.5-11.5,2.5-15.9,0-2.2-1.3-3.3-3-3.3-4.6v-4.1c0,1.7,1.1,3.4,3.3,4.6,4.4,2.5,11.5,2.5,15.9,0,2.2-1.3,3.3-2.9,3.3-4.6Z" fill="none"/>
          <path d="M311.9,293.8v.6c0,.2-.1,.4-.2,.6,0,.2-.2,.4-.3,.6-.1,.2-.3,.5-.5,.7-.2,.3-.4,.5-.7,.8-.4,.4-.9,.8-1.4,1.1h-.1c-.8,.5-1.6,.9-2.5,1.2-.7,.2-1.4,.4-2.1,.5-.5,0-.9,.2-1.4,.2h-3.5c-.4,0-.7,0-1.1-.1-.4,0-.7-.1-1.1-.2s-.8-.2-1.2-.3c-.5-.1-.9-.3-1.4-.5-.6-.2-1.1-.5-1.6-.8-2.2-1.3-3.3-3-3.3-4.6v4.1c0,1.7,1.1,3.4,3.3,4.6,.5,.3,1.1,.6,1.6,.8,.4,.2,.9,.3,1.4,.5,.4,.1,.8,.2,1.2,.3,.4,0,.8,.1,1.1,.2,.4,0,.7,0,1.1,.1h3.5c.5,0,1-.1,1.4-.2,.7-.1,1.4-.3,2.1-.5,.9-.3,1.7-.6,2.5-1.1h.1c.5-.4,1-.7,1.4-1.1,.3-.2,.5-.5,.7-.8,.2-.2,.3-.4,.5-.7l.3-.6c0-.2,.1-.4,.2-.6v-.6h0v-4.2h0Z" fill="#be1e2d"/>
        </g>
      </g>
    </g>
  </g>
  <g>
    <g>
      <path d="M29.4,16.4c0,.3-.1,.6-.3,.8l-3.6,3.6-3.8-2.2v-2.2c0-.6,.5-1.1,1.1-1.1s1.1,.5,1.1,1.1h0v2.7l3.5-3.5c.4-.4,1.2-.4,1.6,0,.2,.2,.3,.5,.3,.8" fill="#231f20"/>
      <path d="M28.2,26.7h-.4c-.1,0-.3-.1-.4-.2l-3.5-3.5v2.7c0,.6-.5,1.1-1.1,1.1s-1.1-.5-1.1-1.1v-2.1l3.8-2.2,3.6,3.6c.7,.7,.2,1.9-.8,1.9" fill="#231f20"/>
      <path d="M25.3,20.9s0-.1-.1-.1h0l-1-.6-2.6-1.5-2.2-1.3h-.3v6.7c0,.1,.1,.3,.3,.3h.1l2.2-1.3,3.5-2h0v-.1l.1-.1Zm-.9,.1v.1l-2.7,1.6-1.7,1h-.3v-5.1c0-.1,0-.2,.2-.2h0l1.7,1,2.7,1.6s.1,.1,0,.2h0l.1-.2Z" fill="#231f20"/>
      <path d="M23.7,21h0l-2.1,1.2-1.3,.7h-.2v-3.8s0-.1,.1-.1h0l1.3,.7,2.1,1.2h0" fill="#231f20"/>
    </g>
    <g>
      <path d="M47.9,20.8l-.1-.1-3.1-1.6-1.9-1c-.2,0-.3,0-.3,.2v5.2c0,.2,.3,.2,.4,.2l1.9-1,3.1-1.6,.1-.1v-.1l-.1-.1Zm-.8,.1h0l-2.4,1.3-1.5,.8c-.1,0-.3,0-.3-.1v-4s0-.2,.1-.2h0l1.5,.8,2.4,1.2h0l.2,.2Z" fill="#231f20"/>
      <path d="M46.5,20.9h0l-1.8,1-1.1,.6h-.2v-3s0-.1,.1-.1h0l1.1,.6,1.8,.9h0" fill="#231f20"/>
      <path d="M31.6,18.2h2.7c1.3,0,2.3,.7,2.3,1.8s-.9,1.8-2.3,1.9h-1.4v1.8h-1.3v-5.5Zm2.5,2.6c.6,0,1.1-.3,1.1-.8s-.4-.8-1.1-.8h-1.3v1.5h1.3v.1Z" fill="#231f20"/>
      <path d="M41.8,22.6v1.1h-4.3v-5.4h1.2v4.4h3.1v-.1Z" fill="#231f20"/>
      <path d="M49.3,21.6l-2.4-3.4h1.5l1.5,2.3,1.5-2.4h1.5l-2.3,3.5v2h-1.3v-2Z" fill="#231f20"/>
      <path d="M53.8,18.5h.7v3l3.1-3h.9l-2.5,2.5,2.8,2.9h-.9l-2.3-2.5-.9,.9v1.6h-.7v-5.4h-.2Z" fill="#231f20"/>
      <path d="M59,21.1c0-1.5,1.4-2.8,3.1-2.8s3.1,1.2,3.1,2.8-1.4,2.8-3.1,2.8-3.1-1.2-3.1-2.8Zm5.5,0c0-1.2-1.1-2.2-2.4-2.2s-2.4,1.1-2.4,2.3,1.1,2.2,2.4,2.2,2.4-1.1,2.4-2.3h0Z" fill="#231f20"/>
      <path d="M66.1,23.1l.4-.5c.5,.5,1.1,.8,2,.8s1.4-.5,1.4-1c0-.6-.6-.8-1.6-1-1.2-.2-2-.6-2-1.5s.8-1.6,2-1.6c.8,0,1.5,.2,2.1,.7l-.4,.5c-.5-.4-1.1-.7-1.7-.7-.8,0-1.3,.5-1.3,1,0,.6,.6,.8,1.6,1,1.2,.2,2,.6,2,1.5s-.7,1.6-2.1,1.6c-1,0-1.8-.3-2.4-.8Z" fill="#231f20"/>
      <path d="M71.9,18.5h.7l2.3,3.7,2.2-3.8h.7v5.4h-.6v-4.1l-2.3,3.8-2.3-3.8v4.1h-.6v-5.4l-.1,.1Z" fill="#231f20"/>
      <path d="M79.1,21.1c0-1.5,1.4-2.8,3.1-2.8s3.1,1.2,3.1,2.8-1.4,2.8-3.1,2.8-3.1-1.2-3.1-2.8Zm5.5,0c0-1.2-1.1-2.2-2.4-2.2s-2.4,1.1-2.4,2.3,1.1,2.2,2.4,2.2,2.4-1.1,2.4-2.3h0Z" fill="#231f20"/>
      <path d="M86.2,23.1l.4-.5c.5,.5,1.1,.8,2,.8s1.4-.5,1.4-1c0-.6-.6-.8-1.6-1-1.2-.2-2-.6-2-1.5s.8-1.6,2-1.6c.8,0,1.5,.2,2.1,.7l-.4,.5c-.5-.4-1.1-.7-1.7-.7-.8,0-1.3,.5-1.3,1,0,.6,.6,.8,1.6,1,1.2,.2,2,.6,2,1.5s-.7,1.6-2.1,1.6c-1,0-1.8-.3-2.4-.8Z" fill="#231f20"/>
    </g>
  </g>
  <g>
    <g>
      <path d="M18.7,86.2c-1.8,0-3.3,1.5-3.3,3.3s1.5,3.3,3.3,3.3,3.3-1.5,3.3-3.3-1.5-3.3-3.3-3.3Zm0,5.7c-1.3,0-2.4-1.1-2.4-2.4s1.1-2.4,2.4-2.4,2.4,1.1,2.4,2.4-1.1,2.4-2.4,2.4Z" fill="#be1e2d"/>
      <circle cx="18.7" cy="89.5" r="1.7" fill="#be1e2d"/>
    </g>
    <g>
      <path d="M18.7,107.8c-1.8,0-3.3,1.5-3.3,3.3s1.5,3.3,3.3,3.3,3.3-1.5,3.3-3.3-1.5-3.3-3.3-3.3Zm0,5.7c-1.3,0-2.4-1.1-2.4-2.4s1.1-2.4,2.4-2.4,2.4,1.1,2.4,2.4-1.1,2.4-2.4,2.4Z" fill="#be1e2d"/>
      <circle cx="18.7" cy="111.1" r="1.7" fill="#be1e2d"/>
    </g>
  </g>
  <g>
    <rect x="226.9" y="101.3" width="91.7" height="124.5" fill="#be1e2d"/>
    <rect x="230.1" y="105.7" width="85.2" height="115.7" fill="#fff"/>
    <rect x="232.9" y="109.5" width="79.7" height="108.2" fill="#33ac1d"/>
  </g>
  <g>
    <g>
      <path d="M58,256.5c-2.2,0-3.9,1.8-3.9,3.9s1.8,3.9,3.9,3.9,3.9-1.8,3.9-3.9-1.8-3.9-3.9-3.9Zm0,6.8c-1.6,0-2.9-1.3-2.9-2.9s1.3-2.9,2.9-2.9,2.9,1.3,2.9,2.9-1.3,2.9-2.9,2.9Z" fill="#be1e2d"/>
      <circle cx="58" cy="260.4" r="2" fill="#be1e2d"/>
    </g>
    <g>
      <g>
        <path d="M58,233.6c-2.2,0-3.9,1.8-3.9,3.9s1.8,3.9,3.9,3.9,3.9-1.8,3.9-3.9-1.8-3.9-3.9-3.9Zm0,6.8c-1.6,0-2.9-1.3-2.9-2.9s1.3-2.9,2.9-2.9,2.9,1.3,2.9,2.9-1.3,2.9-2.9,2.9Z" fill="#be1e2d"/>
        <circle cx="58" cy="237.5" r="2" fill="#be1e2d"/>
      </g>
      <g>
        <path d="M150.4,233.6c-2.2,0-3.9,1.8-3.9,3.9s1.8,3.9,3.9,3.9,3.9-1.8,3.9-3.9-1.8-3.9-3.9-3.9Zm0,6.8c-1.6,0-2.9-1.3-2.9-2.9s1.3-2.9,2.9-2.9,2.9,1.3,2.9,2.9-1.3,2.9-2.9,2.9Z" fill="#be1e2d"/>
        <circle cx="150.4" cy="237.5" r="2" fill="#be1e2d"/>
      </g>
    </g>
  </g>
  <g>
    <g>
      <path d="M28.6,149.8c0-2,1.3-3.8,3-4.4,1.9-.6,3.9,0,5.1,1.6,1.1,1.5,1.2,3.5,0,5.1-.5,.7-1.1,1.3-1.6,1.8-.7,.7-1.3,1.3-1.4,2.3,0,.3-.2,.6-.6,.6s-.6-.2-.6-.5c-.1-1.2-1-2-1.8-2.8-.9-.9-1.8-1.8-2-3.1v-.7l-.1,.1h0Zm4.5-1.1c-.6,.1-.9,.4-.9,1.1,0,.6,.4,.9,.9,.9,.6,0,1-.4,1-1s-.4-.9-1-1Z" fill="#be1e2d"/>
      <path d="M33.3,158.4c1.4,0,2.9-.1,4.4-.7,.3,0,.6-.2,.8-.4,.5-.3,.5-.7,0-1-.7-.4-1.6-.6-2.4-.8-.3,0-.8,.1-.7-.4,0-.4,.5-.9,.9-.8,1.4,.2,2.7,.5,3.7,1.6,.6,.7,.4,1.5-.4,2.2-.8,.7-1.8,1-2.9,1.2-2.8,.6-5.5,.5-8.2-.2-.7-.2-1.4-.5-2-1-.9-.7-.9-1.7,0-2.5s2.1-1.1,3.3-1.3c.5,0,.8,.4,1,.7,.2,.4-.2,.4-.4,.4-.9,.2-1.8,.4-2.6,.8-.2,.1-.5,.2-.6,.6,0,.4,.3,.5,.6,.6,1.7,.8,3.5,.9,5.5,.9v.1h0Z" fill="#be1e2d"/>
    </g>
    <g>
      <path d="M29.6,177.8c-2.1,0-3.7,1.7-3.7,3.7s1.7,3.7,3.7,3.7,3.7-1.7,3.7-3.7-1.7-3.7-3.7-3.7Zm0,6.5c-1.5,0-2.7-1.2-2.7-2.7s1.2-2.7,2.7-2.7,2.7,1.2,2.7,2.7-1.2,2.7-2.7,2.7Z" fill="#be1e2d"/>
      <circle cx="29.6" cy="181.5" r="1.9" fill="#be1e2d"/>
    </g>
    <g>
      <path d="M29.6,199.4c-2.1,0-3.7,1.7-3.7,3.7s1.7,3.7,3.7,3.7,3.7-1.7,3.7-3.7-1.7-3.7-3.7-3.7Zm0,6.5c-1.5,0-2.7-1.2-2.7-2.7s1.2-2.7,2.7-2.7,2.7,1.2,2.7,2.7-1.2,2.7-2.7,2.7Z" fill="#be1e2d"/>
      <circle cx="29.6" cy="203.1" r="1.9" fill="#be1e2d"/>
    </g>
  </g>
  <rect x="43.6" y="127.5" width="173.5" height=".9" fill="#231f20"/>
  <rect x="43.6" y="219.9" width="173.5" height=".9" fill="#231f20"/>
  <rect x="237.3" y="252.1" width="70.9" height="21.8" fill="#231f20"/>
</svg>