<svg xmlns="http://www.w3.org/2000/svg" xmlns:xlink="http://www.w3.org/1999/xlink" width="335" height="335" xmlns:v="https://vecta.io/nano"><defs><radialGradient id="A" cx="167.5" cy="168.4" fx="167.5" fy="168.4" r="167.5" gradientTransform="translate(0 335.89) scale(1 -1)" xlink:href="#h"><stop offset="0" stop-color="#fff"/><stop offset="1" stop-color="#f1f1f2"/></radialGradient><clipPath id="B"><path fill="none" d="M0 0h335v335H0z"/></clipPath><linearGradient id="C" x1="214.4" y1="167.5" x2="329.6" y2="167.5" xlink:href="#h"><stop offset="0" stop-color="#ec1c24"/><stop offset="1" stop-color="#b01117"/></linearGradient><linearGradient id="D" x1="215.8" y1="167.5" x2="328.2" y2="167.5" xlink:href="#h"><stop offset="0" stop-color="#ec1c24"/><stop offset="1" stop-color="#b01117"/></linearGradient><linearGradient id="E" x1="317.5" y1="65.4" x2="317.5" y2="47.5" xlink:href="#h"><stop offset="0" stop-color="#ffca05"/><stop offset="1" stop-color="#f9a51a"/></linearGradient><linearGradient id="F" x1="317.5" y1="288.2" x2="317.5" y2="270.7" gradientTransform="translate(-30.38 -184.13) rotate(76.02) scale(1 -1)" xlink:href="#h"><stop offset="0" stop-color="#ffca05"/><stop offset="1" stop-color="#f9a51a"/></linearGradient><linearGradient id="G" x1="317.5" y1="65" x2="317.5" y2="48" xlink:href="#h"><stop offset="0" stop-color="#ffca05"/><stop offset="1" stop-color="#f9a51a"/></linearGradient><linearGradient id="H" x1="317.5" y1="287.4" x2="317.5" y2="271.5" gradientTransform="translate(-22.24 -195.41) rotate(77.9) scale(1 -1)" xlink:href="#h"><stop offset="0" stop-color="#ffca05"/><stop offset="1" stop-color="#f9a51a"/></linearGradient><linearGradient id="I" x1="317.5" y1="62" x2="317.5" y2="50.9" xlink:href="#h"><stop offset="0" stop-color="#ffca05"/><stop offset="1" stop-color="#f9a51a"/></linearGradient><linearGradient id="J" x1="317.5" y1="52" x2="317.5" y2="60.9" xlink:href="#h"><stop offset="0" stop-color="#ffca05"/><stop offset="1" stop-color="#f9a51a"/></linearGradient><linearGradient id="K" x1="320.4" y1="37.5" x2="320.4" y2="19.6" xlink:href="#h"><stop offset="0" stop-color="#ec1c24"/><stop offset="1" stop-color="#b01117"/></linearGradient><linearGradient id="L" x1="320.4" y1="316.1" x2="320.4" y2="298.6" gradientTransform="translate(-52.38 -212.65) rotate(76.72) scale(1 -1)" xlink:href="#h"><stop offset="0" stop-color="#ec1c24"/><stop offset="1" stop-color="#b01117"/></linearGradient><linearGradient id="M" x1="320.4" y1="37" x2="320.4" y2="20" xlink:href="#h"><stop offset="0" stop-color="#ec1c24"/><stop offset="1" stop-color="#b01117"/></linearGradient><linearGradient id="N" x1="320.4" y1="315.3" x2="320.4" y2="299.3" gradientTransform="translate(-60.04 -200.29) rotate(74.84) scale(1 -1)" xlink:href="#h"><stop offset="0" stop-color="#ec1c24"/><stop offset="1" stop-color="#b01117"/></linearGradient><linearGradient id="O" x1="320.4" y1="34.1" x2="320.4" y2="23" xlink:href="#h"><stop offset="0" stop-color="#ec1c24"/><stop offset="1" stop-color="#b01117"/></linearGradient><linearGradient id="P" x1="320.4" y1="24.1" x2="320.4" y2="33" xlink:href="#h"><stop offset="0" stop-color="#ec1c24"/><stop offset="1" stop-color="#b01117"/></linearGradient><linearGradient id="Q" x1="-143.6" y1="966.9" x2="-143.6" y2="984.9" gradientTransform="translate(-102.52 -687) rotate(-180) scale(1 -1)" xlink:href="#h"><stop offset="0" stop-color="#ffca05"/><stop offset="1" stop-color="#f9a51a"/></linearGradient><linearGradient id="R" x1="-143.6" y1="984.7" x2="-143.6" y2="967.1" gradientTransform="translate(-102.53 -686.99) rotate(-180) scale(1 -1)" xlink:href="#h"><stop offset="0" stop-color="#ffca05"/><stop offset="1" stop-color="#f9a51a"/></linearGradient><linearGradient id="S" x1="-143.6" y1="967.4" x2="-143.6" y2="984.4" gradientTransform="translate(-102.54 -687.02) rotate(-180) scale(1 -1)" xlink:href="#h"><stop offset="0" stop-color="#ffca05"/><stop offset="1" stop-color="#f9a51a"/></linearGradient><linearGradient id="T" x1="-143.5" y1="983.9" x2="-143.5" y2="967.9" gradientTransform="translate(-102.52 -686.96) rotate(-180) scale(1 -1)" xlink:href="#h"><stop offset="0" stop-color="#ffca05"/><stop offset="1" stop-color="#f9a51a"/></linearGradient><linearGradient id="U" x1="-143.6" y1="970.3" x2="-143.6" y2="981.5" gradientTransform="translate(-102.52 -686.99) rotate(-180) scale(1 -1)" xlink:href="#h"><stop offset="0" stop-color="#ffca05"/><stop offset="1" stop-color="#f9a51a"/></linearGradient><linearGradient id="V" x1="-143.6" y1="980.4" x2="-143.6" y2="971.4" gradientTransform="translate(-102.52 -686.99) rotate(-180) scale(1 -1)" xlink:href="#h"><stop offset="0" stop-color="#ffca05"/><stop offset="1" stop-color="#f9a51a"/></linearGradient><linearGradient id="W" x1="-120.1" y1="974.8" x2="-120.1" y2="992.7" gradientTransform="translate(-102.53 -687) rotate(-180) scale(1 -1)" xlink:href="#h"><stop offset="0" stop-color="#ec1c24"/><stop offset="1" stop-color="#b01117"/></linearGradient><linearGradient id="X" x1="-120.1" y1="992.5" x2="-120.1" y2="975" gradientTransform="translate(947.45 -46.14) rotate(-103.28) scale(1 -1)" xlink:href="#h"><stop offset="0" stop-color="#ec1c24"/><stop offset="1" stop-color="#b01117"/></linearGradient><linearGradient id="Y" x1="-120.1" y1="975.3" x2="-120.1" y2="992.3" gradientTransform="translate(-102.52 -686.99) rotate(-180) scale(1 -1)" xlink:href="#h"><stop offset="0" stop-color="#ec1c24"/><stop offset="1" stop-color="#b01117"/></linearGradient><linearGradient id="Z" x1="-120.1" y1="991.7" x2="-120.1" y2="975.8" gradientTransform="translate(935.69 -76.43) rotate(-105.16) scale(1 -1)" xlink:href="#h"><stop offset="0" stop-color="#ec1c24"/><stop offset="1" stop-color="#b01117"/></linearGradient><linearGradient id="a" x1="-120.1" y1="978.2" x2="-120.1" y2="989.3" gradientTransform="translate(-102.52 -686.99) rotate(-180) scale(1 -1)" xlink:href="#h"><stop offset="0" stop-color="#ec1c24"/><stop offset="1" stop-color="#b01117"/></linearGradient><linearGradient id="b" x1="-120.1" y1="988.2" x2="-120.1" y2="979.3" gradientTransform="translate(-102.52 -686.99) rotate(-180) scale(1 -1)" xlink:href="#h"><stop offset="0" stop-color="#ec1c24"/><stop offset="1" stop-color="#b01117"/></linearGradient><path id="c" d="M327.4 261.3c.4 0 .7.3.7.7s-.3.7-.7.7-.7-.3-.7-.7.3-.7.7-.7z"/><path id="d" d="M233.3 20c0 .6-.4 1-1 1s-1-.4-1-1 .4-1 1-1 1 .4 1 1z"/><path id="e" d="M60.5 21.3c0-1.5 1.4-2.8 3-2.8s3 1.2 3 2.8-1.4 2.8-3 3-3-1.2-3-2.8h0zm5.5-.1c0-1.2-1-2.2-2.4-2.2s-2.4 1-2.4 2.3 1 2.2 2.4 2.2 2.4-1 2.4-2.3h0z"/><path id="f" d="M67.6 23.3l.4-.5c.5.4 1.2.8 2 .8 1 0 1.4-.5 1.4-1 0-.6-.6-.8-1.6-1-1.2-.2-2-.6-2-1.5 0-1 .8-1.6 2-1.6.8 0 1.5.3 2 .8l-.4.5c-.5-.4-1-.7-1.7-.7-.7 0-1.3.5-1.3 1 0 .6.6.8 1.6 1 1.2.2 2 .6 2 1.6 0 1-.7 1.6-2 1.6-1 0-1.8-.3-2.4-.8h0z"/><path id="g" d="M19 115.4c-1.4 0-2.4 1-2.4 2.4s1 2.4 2.4 2.4 2.4-1 2.4-2.4-1-2.4-2.4-2.4zm0 4.4c-1 0-2-1-2-2s1-2 2-2 2 1 2 2-1 2-2 2z"/><linearGradient id="h" gradientUnits="userSpaceOnUse"/></defs><path fill="url(#A)" d="M0 0h335v335H0z"/><g clip-path="url(#B)"><g fill="#dc8e36"><path d="M214.4 331.7l-2.8-9.7h-43v9.7h45.7zm89.6 0l-8.3-9.7h-42l5.6 9.7h45zm-179.3 0l2.8-9.7h-42l-5.6 9.7h45zm-45 0H35l-7 8h47.2l4.6-8zm184.2 8l-4.6-8h-44.8l2.3 8h47zm-96 0v-8h-43.3l-2.3 8H168z"/><path d="M43.3 322h-42l-11 9.7H35l8.3-9.7zM311 339.8h47.2l-9.3-8h-45l7 8z"/><path d="M85.4 322l4.6-8H50.3l-7 8h42zm83.4 0v-8h-39l-2.3 8h41.3zm169 0l-9.3-8h-39.7l7 8h42zm-84 0l-4.6-8h-39.8l2.3 8h42z"/></g><g fill="#231f20"><path d="M259.3 331.7l-5.6-9.7h-42l2.8 9.7h44.8zm-90.5 0V322h-41.3l-2.8 9.7h44zm95.2 8h47l-7-8h-45l4.6 8zM85.4 322h-42l-8.3 9.7h45l5.6-9.7zm131.3 17.8l-2.3-8H168v8h48.7z"/><path d="M124.7 331.7h-45l-4.6 8h47.2l2.3-8zM50.3 314H10.5l-9.3 8h42l7-8zM35 331.7h-45l-9.3 8H28l7-8zm176.6-9.7l-2.3-8h-40.5v8h43zm-84 0l2.3-8H90l-4.6 8h42zm168.3 0l-7-8H249l4.6 8h42zm8.2 9.7h45l-11-9.7h-42l8.3 9.7z"/></g><path fill="none" stroke="#28180d" stroke-linejoin="round" stroke-width="1.6" d="M406.4 381H-67.3l77.7-67 318 .3 77.8 66.7z"/></g><path fill="#231f20" d="M248.5 0h47v335h-47z"/><path d="M241.5 0h4v335h-4zm57 0h4v335h-4z" fill="#dc8e36"/><circle cx="272" cy="167.5" r="57.6" fill="url(#C)"/><circle cx="272" cy="167.5" r="56.2" fill="url(#D)"/><circle cx="272" cy="167.5" r="54.5" fill="#231f20"/><circle cx="272" cy="167.5" r="51.2" transform="matrix(.71 -.71 .71 .71 -38.78 241.41)" fill="#37b34a"/><g fill="#dc8e36"><use xlink:href="#c"/><use xlink:href="#c" y="4.1"/><use xlink:href="#c" y="8.3"/><use xlink:href="#c" y="12.5"/><use xlink:href="#c" y="16.7"/><use xlink:href="#c" y="20.7"/><use xlink:href="#c" y="25"/><use xlink:href="#c" y="29.2"/><use xlink:href="#c" y="33.3"/><use xlink:href="#c" y="37.5"/><use xlink:href="#c" x="-3.4"/><use xlink:href="#c" x="-3.4" y="4.1"/><use xlink:href="#c" x="-3.4" y="8.3"/><use xlink:href="#c" x="-3.4" y="12.5"/><use xlink:href="#c" x="-3.4" y="16.7"/><use xlink:href="#c" x="-3.4" y="20.7"/><use xlink:href="#c" x="-3.4" y="25"/><use xlink:href="#c" x="-3.4" y="29.2"/><use xlink:href="#c" x="-3.4" y="33.3"/><use xlink:href="#c" x="-3.4" y="37.5"/><use xlink:href="#c" x="-6.4"/><use xlink:href="#c" x="-6.4" y="4.1"/><use xlink:href="#c" x="-6.4" y="8.3"/><use xlink:href="#c" x="-6.4" y="12.5"/><use xlink:href="#c" x="-6.4" y="16.7"/><use xlink:href="#c" x="-6.4" y="20.7"/><use xlink:href="#c" x="-6.4" y="25"/><use xlink:href="#c" x="-6.4" y="29.2"/><use xlink:href="#c" x="-6.4" y="33.3"/><use xlink:href="#c" x="-6.4" y="37.5"/><use xlink:href="#c" x="-9.7"/><use xlink:href="#c" x="-9.7" y="4.1"/><use xlink:href="#c" x="-9.7" y="8.3"/><use xlink:href="#c" x="-9.7" y="12.5"/><use xlink:href="#c" x="-9.7" y="16.7"/><use xlink:href="#c" x="-9.7" y="20.7"/><use xlink:href="#c" x="-9.7" y="25"/><use xlink:href="#c" x="-9.7" y="29.2"/><use xlink:href="#c" x="-9.7" y="33.3"/><use xlink:href="#c" x="-9.7" y="37.5"/><use xlink:href="#c" x="-13"/><use xlink:href="#c" x="-13" y="4.1"/><use xlink:href="#c" x="-13" y="8.3"/><use xlink:href="#c" x="-13" y="12.5"/><use xlink:href="#c" x="-13" y="16.7"/><use xlink:href="#c" x="-13" y="20.7"/><use xlink:href="#c" x="-13" y="25"/><use xlink:href="#c" x="-13" y="29.2"/><use xlink:href="#c" x="-13" y="33.3"/><use xlink:href="#c" x="-13" y="37.5"/><use xlink:href="#d"/><use xlink:href="#d" x="-5.9"/><use xlink:href="#d" x="-11.7"/><use xlink:href="#d" x="-17.5"/><use xlink:href="#d" x="-23.3"/><use xlink:href="#d" x="-29.3"/><use xlink:href="#d" x="-35.1"/><use xlink:href="#d" x="-40.9"/><use xlink:href="#d" x="-46.8"/><use xlink:href="#d" x="-52.6"/><use xlink:href="#d" y="-9"/><use xlink:href="#d" x="-5.9" y="-9"/><use xlink:href="#d" x="-11.7" y="-9"/><use xlink:href="#d" x="-17.5" y="-9"/><use xlink:href="#d" x="-23.3" y="-9"/><use xlink:href="#d" x="-29.3" y="-9"/><use xlink:href="#d" x="-35.1" y="-9"/><use xlink:href="#d" x="-40.9" y="-9"/><use xlink:href="#d" x="-46.8" y="-9"/><use xlink:href="#d" x="-52.6" y="-9"/></g><g fill="#231f20"><path d="M30.8 16.6c0 .3-.1.6-.3.8L27 21l-4-2.3v-2.2a1 1 0 0 1 1-1c.5 0 1 .5 1 1h0v2.7l3.5-3.5c.4-.4 1-.4 1.6 0 .2.2.3.5.3.8M29.7 27c-.1 0-.3 0-.4-.1s-.3-.1-.4-.2L25.4 23v2.7a1 1 0 0 1-1 1c-.5 0-1-.5-1-1v-2l3.8-2.2 3.6 3.6c.7.7.2 2-.8 2m-3.3-6c0-.1-.1-.1-.1-.1h0l-1-.6L23 19l-2-1.3c-.1-.1-.3 0-.4.1v.1 6.6c0 .1.1.3.3.3h.1l2.2-1.2 3.5-2 .1-.1v-.1h0zm-1 .1l-.1.1L23 23l-1.7 1c-.1.1-.2 0-.3-.1v-.1-5c0-.1.1-.2.2-.2h.1l1.7 1 2.7 1.6c.1.1.1.1.1.2h0zm-.7.1s0 .1-.1.1l-2 1.2-1.3.7c-.1 0-.2 0-.2-.1h0v-3.8c0-.1.1-.1.1-.1h.1l1.3.7 2 1.2h.1v.1m24.4-.2h-.1l-3-1.6-2-1c-.1-.1-.3 0-.3.2v5.2c0 .1.2.3.3.2l2-1 3-1.6.1-.1h0 0zm-.8.1s0 .1-.1.1L46 22.5l-1.5.8c-.1.1-.3 0-.3-.1v-4c0-.1.1-.2.2-.2h.1l1.5.8 2.4 1.2h.1 0 0z"/><path d="M48 21s0 .1-.1.1L46 22l-1 .6c-.1 0-.1 0-.2-.1v-.1-3c0-.1.1-.1.1-.1l1 .6 1.8 1h.1 0m-15-2.7h2.7c1.3 0 2.3.7 2.3 1.8s-1 1.8-2.3 2h-1.4V24H33v-5.4h0zm2.6 2.6c.6 0 1-.3 1-.8s-.5-.8-1-.7h-1.3V21h1.3z"/><path d="M43.2 22.8v1H39v-5.4h1V23h3 0zm7.6-1l-2.4-3.4H50l1.5 2.4 1.5-2.4h1.5L52 21.8v2h-1.3v-2h0zm4.5-3h.7v3l3-3h1L57.4 21l2.8 3h-1L57 21.6l-1 1V24h-.7v-5.4h0z"/><use xlink:href="#e"/><use xlink:href="#f"/><path d="M73.3 18.7h.7l2.3 3.8 2.2-3.8h.7l.1 5.4h-.7v-4l-2.2 3.8L74 20v4h-.7l-.1-5.4z"/><use xlink:href="#e" x="20"/><use xlink:href="#f" x="20"/></g><circle cx="317.5" cy="56.4" r="9" fill="url(#E)"/><circle cx="317.5" cy="56.5" r="8.8" transform="matrix(.24 -.97 .97 .24 186.01 350.9)" fill="url(#F)"/><circle cx="317.5" cy="56.4" r="8.5" fill="url(#G)"/><circle cx="317.5" cy="56.5" r="8" transform="matrix(.21 -.98 .98 .21 195.76 355.08)" fill="url(#H)"/><path d="M323 56.4c0 3-2.5 5.6-5.6 5.6s-5.6-2.5-5.6-5.6 2.5-5.6 5.6-5.6 5.6 2.5 5.6 5.6z" fill="url(#I)"/><circle cx="317.5" cy="56.4" r="4.5" fill="url(#J)"/><path d="M310.8 52.7l1.6 1c.1 0 .2 0 .2 0s0-.2-.1-.2l-1.6-1c-.1 0-.2 0-.2 0s0 .2.1.2zm1 4.7c0-.1-.1-.1-.2-.1l-1.8.3c-.1 0-.1.1-.1.2 0 .1.1.1.2.1l1.8-.3c.1 0 .1-.1.1-.2zm-.2-1c.1 0 .1-.1.1-.1s-.1-.1-.1-.1h-1.8c-.1 0-.1.1-.1.1s.1.1.1.1h1.8zm2.2 4.3c-.1 0-.2 0-.2 0l-1.2 1.4c-.1.1 0 .2 0 .2s.2 0 .2 0l1.2-1.4c.1-.1 0-.2 0-.2zm-3.6-7l1.7.6c.1 0 .2 0 .2-.1s0-.2-.1-.2l-1.7-.6c-.1 0-.2 0-.2.1s0 .2.1.2zm2 4.5c0-.1-.1-.1-.2-.1l-1.7.6c-.1 0-.1.1-.1.2s.1.1.2.1l1.7-.6c.1 0 .1-.1.1-.2zm1 1.7c-.1-.1-.1-.1-.2 0l-1.4 1.2c-.1 0-.1.1 0 .2s.1.1.2 0l1.4-1.2c.1 0 .1-.1 0-.2zm-.6-.8c0-.1-.1-.1-.2 0l-1.6 1c-.1 0-.1.1-.1.2 0 .1.1.1.2 0l1.6-1c.1 0 .1-.1.1-.2zm-2.6-4l1.8.3c.1 0 .2 0 .2-.1s0-.2-.1-.2L310 55c-.1 0-.2 0-.2.1s0 .2.1.2zm12.6-1.7c0 .1.1.1.2 0l1.6-1c.1 0 .1-.1.1-.2 0-.1-.1-.1-.2 0l-1.6 1c-.1 0-.1.1-.1.2zm.4 1c0 .1.1.1.2.1l1.7-.6c.1 0 .1-.1.1-.2s-.1-.1-.2-.1l-1.7.6c-.1 0-.1.1-.1.2zm-1-1.7c.1.1.1.1.2 0l1.4-1.2c.1 0 .1-.1 0-.2s-.1-.1-.2 0l-1.4 1.2c-.1 0-.1.1 0 .2zm1.3 2.7c0 .1.1.1.2.1l1.8-.3c.1 0 .1-.1.1-.2 0-.1-.1-.1-.2-.1l-1.8.3c-.1 0-.1.1-.1.2zM313 52.8c.1 0 .2 0 .2 0s0-.2 0-.2l-1.4-1.2c-.1 0-.2 0-.2 0s0 .2 0 .2l1.4 1.2zm.7-.7c.1.1.1.1.2 0s.1-.1 0-.2l-1.2-1.4c-.1-.1-.1-.1-.2 0s-.1.1 0 .2l1.2 1.4zm7.6 0c.1 0 .2 0 .2 0l1.2-1.4c.1-.1 0-.2 0-.2s-.2 0-.2 0l-1.2 1.4c-.1.1 0 .2 0 .2zm-6.8-.6c0 .1.1.1.2 0 .1 0 .1-.1.1-.2l-1-1.6c0-.1-.1-.1-.2 0-.1 0-.1.1-.1.2l1 1.6zm.2 10c-.1 0-.2 0-.2 0l-1 1.6c0 .1 0 .2.1.2s.2 0 .2 0l1-1.6c0-.1 0-.2-.1-.2zm.7-10.5c0 .1.1.1.2.1s.1-.1.1-.2l-.6-1.7c0-.1-.1-.1-.2-.1s-.1.1-.1.2l.6 1.7zm6 10c-.1-.1-.1-.1-.2 0s-.1.1 0 .2l1.2 1.4c.1.1.1.1.2 0s.1-.1 0-.2l-1.2-1.4zm-.8.6c0-.1-.1-.1-.2 0-.1 0-.1.1-.1.2l1 1.6c0 .1.1.1.2 0 .1 0 .1-.1.1-.2l-1-1.6zm-.2-10c.1 0 .2 0 .2 0l1-1.6c0-.1 0-.2-.1-.2-.1 0-.2 0-.2 0l-1 1.6c0 .1 0 .2.1.2h0zm4.7 6.2l-1.8-.3c-.1 0-.2 0-.2.1s0 .2.1.2l1.8.3c.1 0 .2 0 .2-.1s0-.2-.1-.2zm-5.4 4.3c0-.1-.1-.1-.2-.1s-.1.1-.1.2l.6 1.7c0 .1.1.1.2.1s.1-.1.1-.2l-.6-1.7zm5.5-5.6h-1.8c-.1 0-.1.1-.1.1s.1.1.1.1h1.8c.1 0 .1-.1.1-.1s-.1-.1-.1-.1zm-.4 2.6l-1.7-.6c-.1 0-.2 0-.2.1s0 .2.1.2l1.7.6c.1 0 .2 0 .2-.1s0-.2-.1-.2zm-.5 1.2l-1.6-1c-.1 0-.2 0-.2 0s0 .2.1.2l1.6 1c.1 0 .2 0 .2-.1 0-.1 0-.2-.1-.2h0zm-2 0c-.1 0-.2 0-.2 0s0 .2 0 .2l1.4 1.2c.1 0 .2 0 .2 0 .1-.1 0-.2 0-.2L322 60zm-5.6 2c-.1 0-.2 0-.2.1L316 64c0 .1 0 .2.1.2s.2 0 .2-.1l.3-1.8c0-.1 0-.2-.1-.2zm0-11.3c.1 0 .1-.1.1-.2l-.3-1.8c0-.1-.1-.1-.2-.1s-.1.1-.1.2l.3 1.8c0 .1.1.1.2.1zm-1 11c-.1 0-.2 0-.2.1l-.6 1.7c0 .1 0 .2.1.2s.2 0 .2-.1l.6-1.7c0-.1 0-.2-.1-.2zm2-11c.1 0 .1-.1.1-.1v-1.8c0-.1-.1-.1-.1-.1s-.1.1-.1.1v1.8c0 .1.1.1.1.1zm1 11.4c-.1 0-.1.1-.1.2l.3 1.8c0 .1.1.1.2.1.1 0 .1-.1.1-.2l-.3-1.8c0-.1-.1-.1-.2-.1zm-1 .1c-.1 0-.1.1-.1.1V64c0 .1.1.2.1.2s.1-.1.1-.2v-1.8c0-.1-.1-.1-.1-.1zm2-11c.1 0 .2 0 .2-.1l.6-1.7c0-.1 0-.2-.1-.2s-.2 0-.2.1l-.6 1.7c0 .1 0 .2.1.2zm-1-.3c.1 0 .2 0 .2-.1l.3-1.8c0-.1 0-.2-.1-.2s-.2 0-.2.1l-.3 1.8c0 .1 0 .2.1.2z" opacity=".1"/><circle cx="320.4" cy="28.6" r="9" fill="url(#K)"/><circle cx="320.4" cy="28.5" r="8.8" transform="matrix(.23 -.97 .97 .23 218.98 333.77)" fill="url(#L)"/><circle cx="320.4" cy="28.5" r="8.5" fill="url(#M)"/><circle cx="320.4" cy="28.6" r="8" transform="matrix(.26 -.97 .97 .26 209.03 330.31)" fill="url(#N)"/><path d="M326 28.5c0 3-2.5 5.6-5.6 5.6s-5.6-2.5-5.6-5.6 2.5-5.6 5.6-5.6 5.6 2.5 5.6 5.6z" fill="url(#O)"/><circle cx="320.4" cy="28.5" r="4.5" fill="url(#P)"/><path d="M313.6 24.8l1.6 1c.1 0 .2 0 .2-.1s0-.2-.1-.2l-1.6-1c-.1 0-.2 0-.2.1s0 .2.1.2zm1 4.7c0-.1-.1-.1-.2-.1l-1.8.3c-.1 0-.1.1-.1.2 0 .1.1.1.2.1l1.8-.3c.1 0 .1-.1.1-.2zm-.2-1c.1 0 .1-.1.1-.1s-.1-.1-.1-.1h-1.8c-.1 0-.1.1-.1.1s.1.1.1.1h1.8zm2.2 4.3c-.1 0-.2 0-.2 0l-1.2 1.4c-.1.1 0 .2 0 .2s.2 0 .2 0l1.2-1.4c.1-.1 0-.2 0-.2zm-3.6-7l1.7.6c.1 0 .2 0 .2-.1s0-.2-.1-.2l-1.7-.6c-.1 0-.2 0-.2.1s0 .2.1.2zm2 4.5c0-.1-.1-.1-.2-.1l-1.7.6c-.1 0-.1.1-.1.2s.1.1.2.1l1.7-.6c.1 0 .1-.1.1-.2zm1 1.7c-.1-.1-.1-.1-.2 0l-1.4 1.2c-.1 0-.1.1 0 .2s.1.1.2 0l1.4-1.2c.1 0 .1-.1 0-.2zm-.6-.8c0-.1-.1-.1-.2-.1l-1.6 1c-.1 0-.1.1-.1.2 0 .1.1.1.2 0l1.6-1c.1 0 .1-.1.1-.2zm-2.6-4l1.8.3c.1 0 .2 0 .2-.1s0-.2-.1-.2l-1.8-.3c-.1 0-.2 0-.2.1s0 .2.1.2zm12.6-1.7c0 .1.1.1.2.1l1.6-1c.1 0 .1-.1.1-.2 0-.1-.1-.1-.2-.1l-1.6 1c-.1 0-.1.1-.1.2zm.4 1c0 .1.1.1.2.1l1.7-.6c.1 0 .1-.1.1-.2s-.1-.1-.2-.1l-1.7.6c-.1 0-.1.1-.1.2zm-1-1.7c.1.1.1.1.2 0l1.4-1.2c.1-.1.1-.1 0-.2s-.1-.1-.2 0l-1.4 1.2c-.1.1-.1.1 0 .2zm1.3 2.7c0 .1.1.1.2.1l1.8-.3c.1 0 .1-.1.1-.2 0-.1-.1-.1-.2-.1l-1.8.3c-.1 0-.1.1-.1.2zM315.8 25c.1.1.2 0 .2 0s0-.2 0-.2l-1.4-1.2c-.1-.1-.2 0-.2 0s0 .2 0 .2l1.4 1.2zm.7-.7c.1.1.1.1.2 0s.1-.1 0-.2l-1.2-1.4c-.1-.1-.1-.1-.2 0s-.1.1 0 .2l1.2 1.4zm7.6 0c.1.1.2 0 .2 0l1.2-1.4c.1-.1 0-.2 0-.2s-.2 0-.2 0L324 24c-.1.1 0 .2 0 .2zm-6.8-.6c0 .1.1.1.2.1.1 0 .1-.1.1-.2l-1-1.6c0-.1-.1-.1-.2-.1-.1 0-.1.1-.1.2l1 1.6zm.2 10c-.1 0-.2 0-.2 0l-1 1.6c0 .1 0 .2.1.2s.2 0 .2 0l1-1.6c0-.1 0-.2-.1-.2zm.7-10.5c0 .1.1.1.2.1s.1-.1.1-.2l-.6-1.7c0-.1-.1-.1-.2-.1s-.1.1-.1.2l.6 1.7zm6 10c-.1-.1-.1-.1-.2 0s-.1.1 0 .2l1.2 1.4c.1.1.1.1.2 0s.1-.1 0-.2l-1.2-1.4zm-.8.6c0-.1-.1-.1-.2 0-.1 0-.1.1-.1.2l1 1.6c0 .1.1.1.2 0 .1 0 .1-.1.1-.2l-1-1.6zm-.2-10c.1 0 .2 0 .2-.1l1-1.6c0-.1 0-.2-.1-.2-.1 0-.2 0-.2.1l-1 1.6c0 .1 0 .2.1.2h0zm4.7 6.2l-1.8-.3c-.1 0-.2 0-.2.1s0 .2.1.2l1.8.3c.1 0 .2 0 .2-.1s0-.2-.1-.2zm-5.4 4.3c0-.1-.1-.1-.2-.1s-.1.1-.1.2l.6 1.7c0 .1.1.1.2.1s.1-.1.1-.2l-.6-1.7zm5.5-5.6h-1.8c-.1 0-.1.1-.1.1s.1.1.1.1h1.8c.1 0 .1-.1.1-.1s-.1-.1-.1-.1zm-.4 2.6l-1.7-.6c-.1 0-.2 0-.2.1s0 .2.1.2l1.7.6c.1 0 .2 0 .2-.1s0-.2-.1-.2zm-.5 1.2l-1.6-1c-.1 0-.2 0-.2.1s0 .2.1.2l1.6 1c.1 0 .2 0 .2-.1 0-.1 0-.2-.1-.2h0zm-2 0c-.1 0-.2 0-.2 0s0 .2 0 .2l1.4 1.2c.1 0 .2 0 .2 0 .1-.1 0-.2 0-.2l-1.4-1.2zm-5.6 2c-.1 0-.2 0-.2.1L319 36c0 .1 0 .2.1.2s.2 0 .2-.1l.3-1.8c0-.1 0-.2-.1-.2zm0-11.3c.1 0 .1-.1.1-.2l-.3-1.8c0-.1-.1-.1-.2-.1s-.1.1-.1.2l.3 1.8c0 .1.1.1.2.1zm-1 11c-.1 0-.2 0-.2.1l-.6 1.7c0 .1 0 .2.1.2s.2 0 .2-.1l.6-1.7c0-.1 0-.2-.1-.2zm2-11c.1 0 .1-.1.1-.1v-1.8c0-.1-.1-.1-.1-.1s-.1.1-.1.1v1.8c0 .1.1.1.1.1zm1 11.4c-.1 0-.1.1-.1.2l.3 1.8c0 .1.1.1.2.1.1 0 .1-.1.1-.2l-.3-1.8c0-.1-.1-.1-.2-.1zm-1 .1c-.1 0-.1.1-.1.1v1.8c0 .1.1.1.1.1s.1-.1.1-.1v-1.8c0-.1-.1-.1-.1-.1zm2-11c.1 0 .2 0 .2-.1l.6-1.7c0-.1 0-.2-.1-.2s-.2 0-.2.1l-.6 1.7c0 .1 0 .2.1.2zm-1-.3c.1 0 .2 0 .2-.1l.3-1.8c0-.1 0-.2-.1-.2s-.2 0-.2.1l-.3 1.8c0 .1 0 .2.1.2z" opacity=".1"/><circle cx="41" cy="288.9" r="9" fill="url(#Q)"/><circle cx="41" cy="288.9" r="8.8" fill="url(#R)"/><circle cx="41" cy="288.9" r="8.5" fill="url(#S)"/><circle cx="41" cy="288.9" r="8" fill="url(#T)"/><path d="M35.5 289c0-3 2.5-5.6 5.6-5.6s5.6 2.5 5.6 5.6-2.5 5.6-5.6 5.6-5.6-2.5-5.6-5.6z" fill="url(#U)"/><circle cx="41" cy="288.9" r="4.5" fill="url(#V)"/><path d="M47.8 292.6l-1.6-1c-.1 0-.2 0-.2.1s0 .2 0 .2l1.6 1c.1 0 .2 0 .2-.1s0-.2 0-.2zm-1-4.7c0 .1.1.1.2.1l1.8-.3c.1 0 .1-.1.1-.2 0-.1-.1-.1-.2-.1l-1.8.3c-.1 0-.1.1-.1.2zm.2 1c-.1 0-.1.1-.1.1s.1.1.1.1h1.8c.1 0 .1-.1.1-.1s-.1-.1-.1-.1H47zm-2.2-4.2c.1.1.2 0 .2 0L46 283c0-.1 0-.2 0-.2s-.2 0-.2 0l-1.2 1.4c0 .1 0 .2 0 .2zm3.6 7l-1.7-.6c-.1 0-.2 0-.2.1s0 .2.1.2l1.7.6c.1 0 .2 0 .2-.1s0-.2-.1-.2zm-2-4.5c0 .1.1.1.2.1l1.7-.6c.1 0 .1-.1.1-.2s-.1-.1-.2-.1l-1.7.6c-.1 0-.1.1-.1.2zm-1-1.7c0 .1.1.1.2 0L47 284c.1-.1.1-.1 0-.2s-.1-.1-.2 0l-1.4 1.2c-.1.1-.1.1 0 .2zm.6.8c0 .1.1.1.2.1l1.6-1c.1 0 .1-.1 0-.2 0-.1-.1-.1-.2-.1l-1.6 1c-.1 0-.1.1 0 .2zm2.6 4l-1.8-.3c-.1 0-.2 0-.2.1s0 .2.1.2l1.8.3c.1 0 .2 0 .2-.1s0-.2-.1-.2zM36 291.8c0-.1-.1-.1-.2-.1l-1.6 1c-.1 0-.1.1 0 .2 0 .1.1.1.2.1l1.6-1c.1 0 .1-.1 0-.2zm-.4-1c0-.1-.1-.1-.2-.1l-1.7.6c-.1 0-.1.1-.1.2s.1.1.2.1l1.7-.6c.1 0 .1-.1.1-.2zm1 1.7c0-.1-.1-.1-.2 0l-1.4 1.2c-.1.1-.1.1 0 .2s.1.1.2 0l1.4-1.2c.1-.1.1-.1 0-.2zm-1.3-2.7c0-.1-.1-.1-.2-.1l-1.8.3c-.1 0-.1.1-.1.2 0 .1.1.1.2.1l1.8-.3c.1 0 .1-.1.1-.2zm10.3 2.7c-.1-.1-.2 0-.2 0s0 .2 0 .2l1.4 1.2c.1.1.2 0 .2 0s0-.2 0-.2l-1.4-1.2zm-.7.8c0-.1-.1-.1-.2 0s-.1.1 0 .2L46 295c0 .1.1.1.2 0s.1-.1 0-.2l-1.2-1.4zm-7.6 0c-.1-.1-.2 0-.2 0l-1.2 1.4c0 .1 0 .2 0 .2s.2 0 .2 0l1.2-1.4c0-.1 0-.2 0-.2zm6.8.6c0-.1-.1-.1-.2-.1-.1 0-.1.1 0 .2l1 1.6c0 .1.1.1.2.1.1 0 .1-.1 0-.2l-1-1.6zm-.2-10c.1 0 .2 0 .2-.1l1-1.6c0-.1 0-.2 0-.2s-.2 0-.2.1l-1 1.6c0 .1 0 .2 0 .2zm-.7 10.5c0-.1-.1-.1-.2-.1s-.1.1-.1.2l.6 1.7c0 .1.1.1.2.1s.1-.1.1-.2l-.6-1.7zm-6-10c0 .1.1.1.2 0s.1-.1 0-.2l-1.2-1.4c0-.1-.1-.1-.2 0s-.1.1 0 .2l1.2 1.4zm.8-.6c0 .1.1.1.2.1.1 0 .1-.1 0-.2l-1-1.6c0-.1-.1-.1-.2-.1-.1 0-.1.1 0 .2l1 1.6zm.2 10c-.1 0-.2 0-.2.1l-1 1.6c0 .1 0 .2.1.2.1 0 .2 0 .2-.1l1-1.6c0-.1 0-.2 0-.2h0zm-4.7-6.2l1.8.3c.1 0 .2 0 .2-.1s0-.2-.1-.2l-1.8-.3c-.1 0-.2 0-.2.1s0 .2.1.2zm5.5-4.3c0 .1.1.1.2.1s.1-.1.1-.2l-.6-1.7c0-.1-.1-.1-.2-.1s-.1.1-.1.2l.6 1.7zm-5.5 5.6H35c.1 0 .1-.1.1-.1s-.1-.1-.1-.1h-1.8c-.1 0-.1.1-.1.1s.1.1.1.1zm.4-2.6l1.7.6c.1 0 .2 0 .2-.1s0-.2-.1-.2l-1.7-.6c-.1 0-.2 0-.2.1s0 .2.1.2zm.5-1.2l1.6 1c.1 0 .2 0 .2-.1s0-.2 0-.2l-1.6-1c-.1 0-.2 0-.2.1 0 .1 0 .2 0 .2h0zm2 0c.1.1.2 0 .2 0s0-.2 0-.2l-1.4-1.2c-.1-.1-.2-.1-.2 0 0 .1 0 .2 0 .2l1.4 1.2zm5.6-2c.1 0 .2 0 .2-.1l.3-1.8c0-.1 0-.2-.1-.2s-.2 0-.2.1L42 283c0 .1 0 .2.1.2zm0 11.3c-.1 0-.1.1-.1.2l.3 1.8c0 .1.1.1.2.1s.1-.1.1-.2l-.3-1.8c0-.1-.1-.1-.2-.1zm1-11c.1 0 .2 0 .2-.1l.6-1.7c0-.1 0-.2-.1-.2s-.2 0-.2.1l-.6 1.7c0 .1 0 .2.1.2zm-2 11c-.1 0-.1.1-.1.1v1.8c0 .1.1.1.1.1s.1-.1.1-.1v-1.8c0-.1-.1-.1-.1-.1zm-1-11.4c.1 0 .1-.1.1-.2l-.3-1.8c0-.1-.1-.1-.2-.1-.1 0-.1.1-.1.2l.3 1.8c0 .1.1.1.2.1zm1-.1c.1 0 .1-.1.1-.1v-1.8c0-.1-.1-.1-.1-.1s-.1.1-.1.1v1.8c0 .1.1.1.1.1zm-2 11c-.1 0-.2 0-.2.1l-.6 1.7c0 .1 0 .2.1.2s.2 0 .2-.1l.6-1.7c0-.1 0-.2-.1-.2zm1 .3c-.1 0-.2 0-.2.1l-.3 1.8c0 .1 0 .2.1.2s.2 0 .2-.1l.3-1.8c0-.1 0-.2-.1-.2z" opacity=".1"/><circle cx="17.6" cy="296.8" r="9" fill="url(#W)"/><circle cx="17.6" cy="296.8" r="8.8" transform="matrix(.23 -.97 .97 .23 -275.26 245.71)" fill="url(#X)"/><circle cx="17.6" cy="296.8" r="8.5" fill="url(#Y)"/><circle cx="17.6" cy="296.8" r="8" transform="matrix(.26 -.97 .97 .26 -273.45 236.14)" fill="url(#Z)"/><path d="M12 296.8c0-3 2.5-5.6 5.6-5.6s5.6 2.5 5.6 5.6-2.5 5.6-5.6 5.6-5.6-2.5-5.6-5.6z" fill="url(#a)"/><circle cx="17.6" cy="296.8" r="4.5" fill="url(#b)"/><path d="M24.3 300.5l-1.6-1c-.1 0-.2 0-.2.1s0 .2.1.2l1.6 1c.1 0 .2 0 .2-.1s0-.2-.1-.2zm-1-4.7c0 .1.1.1.2.1l1.8-.3c.1 0 .1-.1.1-.2 0-.1-.1-.1-.2-.1l-1.8.3c-.1 0-.1.1-.1.2zm.2 1c-.1 0-.1.1-.1.1s.1.1.1.1h1.8c.1 0 .1-.1.1-.1s-.1-.1-.1-.1h-1.8zm-2.2-4.2c.1.1.2 0 .2 0l1.2-1.4c.1-.1 0-.2 0-.2s-.2 0-.2 0l-1.2 1.4c-.1.1 0 .2 0 .2zm3.6 7l-1.7-.6c-.1 0-.2 0-.2.1s0 .2.1.2l1.7.6c.1 0 .2 0 .2-.1s0-.2-.1-.2zm-2-4.5c0 .1.1.1.2.1l1.7-.6c.1 0 .1-.1.1-.2s-.1-.1-.2-.1l-1.7.6c-.1 0-.1.1-.1.2zm-1-1.7c.1.1.1.1.2 0l1.4-1.2c.1-.1.1-.1 0-.2s-.1-.1-.2 0L22 293c-.1.1-.1.1 0 .2zm.6.8c0 .1.1.1.2.1l1.6-1c.1 0 .1-.1.1-.2 0-.1-.1-.1-.2-.1l-1.6 1c-.1 0-.1.1-.1.2zm2.6 4l-1.8-.3c-.1 0-.2 0-.2.1s0 .2.1.2l1.8.3c.1 0 .2 0 .2-.1s0-.2-.1-.2zm-12.6 1.7c0-.1-.1-.1-.2-.1l-1.6 1c-.1 0-.1.1-.1.2 0 .1.1.1.2.1l1.6-1c.1 0 .1-.1.1-.2zm-.4-1c0-.1-.1-.1-.2-.1l-1.7.6c-.1 0-.1.1-.1.2s.1.1.2.1l1.7-.6c.1 0 .1-.1.1-.2zm1 1.7c-.1-.1-.2-.1-.2 0l-1.4 1.2c-.1.1-.1.1 0 .2s.2.1.2 0l1.4-1.2c.1-.1.1-.1 0-.2zm-1.3-2.7c0-.1-.1-.1-.2-.1l-1.8.3c-.1 0-.1.1-.1.2 0 .1.1.1.2.1l1.8-.3c.1 0 .1-.1.1-.2zm10.3 2.7c-.1-.1-.2 0-.2 0s0 .2 0 .2l1.4 1.2c.1.1.2 0 .2 0s0-.2 0-.2l-1.4-1.2zm-.7.8c-.1-.1-.1-.1-.2 0s-.1.1 0 .2l1.2 1.4c.1.1.1.1.2 0s.1-.1 0-.2l-1.2-1.4zm-7.6 0c-.1-.1-.2 0-.2 0l-1.2 1.4c-.1.1 0 .2 0 .2s.2 0 .2 0l1.2-1.4c.1-.1 0-.2 0-.2zm6.8.6c0-.1-.1-.1-.2-.1-.1 0-.1.1-.1.2l1 1.6c0 .1.1.1.2.1.1 0 .1-.1.1-.2l-1-1.6zm-.2-10c.1 0 .2 0 .2-.1l1-1.6c0-.1 0-.2-.1-.2s-.2 0-.2.1l-1 1.6c0 .1 0 .2.1.2zm-.7 10.5c0-.1-.1-.1-.2-.1s-.1.1-.1.2l.6 1.7c0 .1.1.1.2.1s.1-.1.1-.2l-.6-1.7zm-6-10c.1.1.2.1.2 0s.1-.1 0-.2l-1.2-1.4c-.1-.1-.2-.1-.2 0s-.1.1 0 .2l1.2 1.4zm.8-.6c0 .1.1.1.2.1.1 0 .1-.1.1-.2l-1-1.6c0-.1-.1-.1-.2-.1-.1 0-.1.1-.1.2l1 1.6zm.2 10c-.1 0-.2 0-.2.1l-1 1.6c0 .1 0 .2.1.2.1 0 .2 0 .2-.1l1-1.6c0-.1 0-.2-.1-.2h0zm-4.7-6.2l1.8.3c.1 0 .2 0 .2-.1s0-.2-.1-.2l-1.8-.3c-.1 0-.2 0-.2.1s0 .2.1.2zm5.4-4.3c0 .1.1.1.2.1s.1-.1.1-.2l-.6-1.7c0-.1-.1-.1-.2-.1s-.1.1-.1.2l.6 1.7zM10 297h1.8c.1 0 .2-.1.2-.1s-.1-.1-.2-.1H10c-.1 0-.2.1-.2.1s.1.1.2.1zm.4-2.6l1.7.6c.1 0 .2 0 .2-.1s0-.2-.1-.2l-1.7-.6c-.1 0-.2 0-.2.1s0 .2.1.2zm.5-1.2l1.6 1c.1 0 .2 0 .2-.1s0-.2-.1-.2l-1.6-1c-.1 0-.2 0-.2.1 0 .1 0 .2.1.2h0zm2 0c.1.1.2 0 .2 0s0-.2 0-.2l-1.4-1.2c-.1-.1-.2-.1-.2 0-.1.1 0 .2 0 .2L13 293zm5.6-2c.1 0 .2 0 .2-.1l.3-1.8c0-.1 0-.2-.1-.2s-.2 0-.2.1l-.3 1.8c0 .1 0 .2.1.2zm0 11.3c-.1 0-.1.1-.1.2l.3 1.8c0 .1.1.1.2.1s.1-.1.1-.2l-.3-1.8c0-.1-.1-.1-.2-.1zm1-11c.1 0 .2 0 .2-.1l.6-1.7c0-.1 0-.2-.1-.2s-.2 0-.2.1l-.6 1.7c0 .1 0 .2.1.2zm-2 11c-.1 0-.1.1-.1.1v1.8c0 .1.1.1.1.1s.1-.1.1-.1v-1.8c0-.1-.1-.1-.1-.1zm-1-11.4c.1 0 .1-.1.1-.2l-.3-1.8c0-.1-.1-.1-.2-.1-.1 0-.1.1-.1.2l.3 1.8c0 .1.1.1.2.1zm1-.1c.1 0 .1-.1.1-.1V289c0-.1-.1-.1-.1-.1s-.1.1-.1.1v1.8c0 .1.1.1.1.1zm-2 11c-.1 0-.2 0-.2.1l-.6 1.7c0 .1 0 .2.1.2s.2 0 .2-.1l.6-1.7c0-.1 0-.2-.1-.2zm1 .3c-.1 0-.2 0-.2.1l-.3 1.8c0 .1 0 .2.1.2s.2 0 .2-.1l.3-1.8c0-.1 0-.2-.1-.2z" opacity=".1"/><g fill="#231f20"><path d="M19 114c-2.2 0-4 1.8-4 4s1.8 4 4 4 4-1.8 4-4-1.8-4-4-4zm0 7.8c-2 0-3.8-1.7-3.8-3.8S17 114 19 114s3.8 1.7 3.8 3.8-1.7 3.8-3.8 3.8z"/><path d="M19 114c-2 0-3.7 1.7-3.7 3.7s1.7 3.7 3.7 3.7 3.7-1.7 3.7-3.7S21 114 19 114zm0 7.2c-2 0-3.5-1.6-3.5-3.5s1.6-3.5 3.5-3.5 3.5 1.6 3.5 3.5-1.6 3.5-3.5 3.5z"/><use xlink:href="#g"/><path d="M16 116.2l.7.4h.1v-.1l-.7-.4H16v.1zm.5 2s0-.1-.1 0l-.8.1s-.1 0-.1.1c0 0 0 .1.1 0l.8-.1s.1 0 .1-.1zm-.1-.4s.1 0 .1-.1 0-.1-.1-.1h-.8s-.1 0-.1.1c0 0 0 .1.1.1h.8zm1 2h-.1l-.5.6v.1h.1l.5-.6v-.1zm-1.6-3l.7.3h.1 0l-.7-.3h-.1v.1zm.8 2h-.1l-.7.3s-.1 0 0 .1.1 0 .1 0l.7-.3s.1 0 0-.1zm.4.8H17l-.6.5v.1h.1l.6-.5v-.1zm-.2-.4h-.1l-.7.4v.1h.1l.7-.4v-.1zm-1.2-1.8l.8.1h.1s0-.1-.1-.1l-.8-.1h-.1s0 .1.1.1zm5.5-.7h.1l.7-.4v-.1h-.1l-.7.4v.1zm.2.4h.1l.7-.3s.1 0 0-.1-.1 0-.1 0l-.7.3s-.1 0 0 .1zm-.4-.8h.1l.6-.5v-.1h-.1l-.6.5v.1h0zm.6 1.2s0 .1.1 0l.8-.1s.1 0 .1-.1c0 0 0-.1-.1 0l-.8.1s-.1 0-.1.1zm-4.5-1.2h.1v-.1l-.6-.5h-.1v.1l.6.5zm.3-.3h.1 0l-.5-.6h-.1v.1l.5.6zm3.3 0h.1l.5-.6v-.1H21l-.5.6h0zm-3-.3h.1v-.1l-.4-.7h-.1 0l.4.7zm.1 4.4h-.1l-.4.7v.1h.1l.4-.7v-.1zm.3-4.6h.1s.1 0 0-.1l-.3-.7h-.1s-.1 0 0 .1l.3.7zm2.6 4.3h-.1v.1l.5.6h.1v-.1l-.5-.6zm-.4.3H20v.1l.4.7h.1v-.1l-.4-.7zm-.1-4.4h.1l.4-.7h0-.1l-.4.7v.1zm2 2.7l-.8-.1h-.1s0 .1.1.1l.8.1h.1s0-.1-.1-.1zm-2.4 2h-.1s-.1 0 0 .1l.3.7h.1s.1 0 0-.1l-.3-.7zM22 118h-.8s-.1 0-.1.1 0 .1.1.1h.8s.1 0 .1-.1c0 0 0-.1-.1-.1zM22 119l-.7-.3H21v.1l.7.3h.1v-.1zm-.2.5l-.7-.4H21v.1l.7.4h.1v-.1h0zm-1 0h-.1v.1l.6.5h.1v-.1l-.6-.5h0zm-2.4 1h-.1l-.1.8s0 .1.1.1h.1l.1-.8s0-.1-.1-.1zm0-5s.1 0 .1-.1l-.1-.8s0-.1-.1 0c0 0-.1 0-.1.1l.1.8s0 .1.1 0zm-.4 4.8h-.1l-.3.7v.1h.1l.3-.7v-.1zm1-5s.1 0 .1-.1v-.8s0-.1-.1-.1-.1 0-.1.1v.8s0 .1.1.1zm.4 5s-.1 0-.1.1l.1.8s0 .1.1 0c0 0 .1 0 .1-.1l-.1-.8s0-.1-.1 0zm-.4 0s-.1 0-.1.1v.8s0 .1.1.1c0 0 .1 0 .1-.1v-.8s0-.1-.1-.1zm1-5h.1l.3-.7v-.1h-.1l-.3.7v.1zm-.4-.1h.1l.1-.8s0-.1-.1-.1h-.1l-.1.8s0 .1.1.1zm-.5 19a4 4 0 1 0 0 8 4 4 0 1 0 0-8zm0 7.8c-2 0-3.8-1.7-3.8-3.8s1.7-3.8 3.8-3.8 3.8 1.7 3.8 3.8S21 142 19 142z"/><path d="M19 134.6c-2 0-3.7 1.7-3.7 3.7S17 142 19 142s3.7-1.7 3.7-3.7-1.7-3.7-3.7-3.7zm0 7.2c-2 0-3.5-1.6-3.5-3.5s1.6-3.5 3.5-3.5 3.5 1.6 3.5 3.5-1.6 3.5-3.5 3.5z"/><use xlink:href="#g" y="20.6"/><path d="M16 136.7l.7.4h.1 0l-.7-.4H16v.1zm.5 2s0-.1-.1-.1l-.8.1s-.1 0-.1.1c0 0 0 .1.1.1l.8-.1s.1 0 .1-.1zm-.1-.4s.1 0 .1-.1 0-.1-.1-.1h-.8s-.1 0-.1.1c0 0 0 .1.1.1h.8zm1 2h-.1l-.5.6h0 .1l.5-.6v-.1zm-1.6-3l.7.3h.1v-.1l-.7-.3h-.1v.1zm.8 2s-.1-.1-.1 0l-.7.3s-.1.1 0 .1.1.1.1 0l.7-.3s.1-.1 0-.1zm.4.8H17l-.6.5v.1h.1l.6-.5v-.1zm-.2-.4h-.1l-.7.4v.1h.1l.7-.4v-.1zm-1.2-1.8h.8s.1 0 .1-.1c0 0 0-.1-.1-.1l-.8-.1s-.1 0-.1.1c0 0 0 .1.1.1zm5.5-.7h.1l.7-.4v-.1h-.1l-.7.4v.1zm.2.4s.1.1.1 0l.7-.3s.1-.1 0-.1-.1-.1-.1 0l-.7.3s-.1.1 0 .1zm-.4-.8h.1l.6-.5v-.1h-.1l-.6.5v.1h0zm.6 1.2s0 .1.1.1h.8s.1 0 .1-.1c0 0 0-.1-.1-.1l-.8.1s-.1 0-.1.1zm-4.5-1.2h.1v-.1l-.6-.5h-.1v.1l.6.5zm.3-.3h.1v-.1l-.5-.6h-.1v.1l.5.6zm3.3 0h.1l.5-.6v-.1H21l-.5.6v.1zm-3-.3h.1v-.1l-.4-.7h-.1v.1l.4.7zm.1 4.4h-.1l-.4.7v.1h.1l.4-.7v-.1zm.3-4.6s.1.1.1 0c0 0 .1-.1 0-.1l-.3-.7s-.1-.1-.1 0c0 0-.1.1 0 .1l.3.7zm2.6 4.3h-.1v.1l.5.6h.1 0l-.5-.6zm-.4.3H20v.1l.4.7h.1v-.1l-.4-.7zm-.1-4.4h.1l.4-.7v-.1h-.1l-.4.7v.1zm2 2.7l-.8-.1s-.1 0-.1.1c0 0 0 .1.1.1h.8s.1 0 .1-.1c0 0 0-.1-.1-.1zm-2.4 2s-.1-.1-.1 0c0 0-.1.1 0 .1l.3.7s.1.1.1 0c0 0 .1-.1 0-.1l-.3-.7zm2.4-2.5h-.8s-.1 0-.1.1 0 .1.1.1h.8s.1 0 .1-.1c0 0 0-.1-.1-.1zm-.2 1.2l-.7-.3H21v.1l.7.3h.1v-.1zm-.2.5l-.7-.4H21v.1l.7.4h.1v-.1h0zm-1 0h-.1v.1l.6.5h.1v-.1l-.6-.5h0zm-2.4 1s-.1 0-.1.1l-.1.8s0 .1.1.1c0 0 .1 0 .1-.1l.1-.8s0-.1-.1-.1zm0-5s.1 0 .1-.1l-.1-.8s0-.1-.1-.1c0 0-.1 0-.1.1l.1.8s0 .1.1.1zM18 141h-.1l-.3.7v.1h.1l.3-.7h0zm1-5s.1 0 .1-.1v-.8s0-.1-.1-.1-.1 0-.1.1v.8s0 .1.1.1zm.4 5s-.1 0-.1.1l.1.8s0 .1.1.1c0 0 .1 0 .1-.1l-.1-.8s0-.1-.1-.1zm-.4 0s-.1 0-.1.1v.8s0 .1.1.1c0 0 .1 0 .1-.1v-.8s0-.1-.1-.1zm1-5h.1l.3-.7v-.1h-.1l-.3.7v.1zm-.4-.1s.1 0 .1-.1l.1-.8s0-.1-.1-.1c0 0-.1 0-.1.1l-.1.8s0 .1.1.1zM15 234.4h73.6v12.4H15zm78.4 0H167v12.4H93.4z"/></g><path fill="#be1e2d" d="M15 261h81.3v12.4H15z"/><path d="M21.3 164.2a11 11 0 0 1 .8.8l.7.7v-.7c0-.6 0-.7 0-.8 0 0 .1-.1.1-.1s.3 0 1 0h1l.1.1h.1v4l.7.7.7.8c0 .1 0 .2-.1.3h-.1-1.3 0c-.1.2-.3.2-.4.1-.1-.1-.1-.1-.1-.3s0-.2.1-.3h.1 1l-.5-.5c-.3-.3-.5-.6-.5-.6v-2-2h-1.5v1c0 1 0 1-.1 1-.2.1-.1.1-1.2-1l-1-1h-.3l-2.4 2.4-2.4 2.4h.5c.5 0 .5 0 .5.1v.1 2.8 2.8h3.3 3.4c.1 0 .1.1.1.2 0 .1 0 .1-.1.2l-.1.1h-7l-.1-.1v-.1-5.7h-1.3-.1c-.1-.1-.1-.2-.1-.3 0 0 1.2-1.2 2.7-2.7 3-2.8 2.7-2.7 3-2.7.2 0 .4 0 .6.1zM19 170H19c0 0 0 .2 0 1.8v1.8h.1v.1h1.6 1.7c.1 0 .2-.1.2-.2 0-.1 0-.2-.1-.3-.1 0-.2 0-1.6 0h-1.5v-3h3v.3c0 .3 0 .4.1.4s.2 0 .3 0h.1v-.4c0-.5 0-.6-.1-.6-.1 0-3.6 0-3.6 0zm5.8.5c.7 0 1.4.5 1.7 1 .1.3.2.7.2 1-.1.6-.7 1.6-1.5 2.8-.2.3-.3.4-.4.4-.1 0-.2-.1-.4-.4-1-1.2-1.4-2.2-1.5-2.8-.1-.4.1-1 .3-1.3.3-.5.8-.7 1.4-.8.1 0 .2 0 .3 0zm-.1.5c-.7 0-1.2.4-1.4 1-.1.2 0 .5.1.7.2.5.6 1.2 1.2 2 .1.2.1.2.2.2 0 0 .2-.2.3-.5.6-1 1-1.7 1-2 .1-.4-.1-1-.5-1.2-.1-.1-.4-.3-.6-.3-.1 0-.2 0-.4 0zm.4.5c.2.1.4.2.5.4.1.2.2.3.1.6 0 .4-.2.7-.5.8-.1.1-.2.1-.4.1-.2 0-.4 0-.6-.2-.2-.1-.3-.3-.4-.5 0-.1 0-.2 0-.3 0-.2 0-.2.1-.4.1-.3.4-.5.7-.6.1 0 .4 0 .6 0zm-.7.6c-.2.2-.2.6.1.8.2.1.4.1.6-.1.2-.2.2-.6-.1-.7-.2-.1-.4-.1-.6.1z" fill="#231f20"/></svg>