<svg id="b579245a-172e-460f-986d-e46d4be2309b" data-name="Layer 1" xmlns="http://www.w3.org/2000/svg" xmlns:xlink="http://www.w3.org/1999/xlink" width="335" height="335" viewBox="0 0 335 335">
  <defs>
    <radialGradient id="adffb8e7-b6c4-4043-b7ab-d3c22f798547" cx="167.55" cy="219.71" r="142.83" gradientTransform="translate(0 145.2) scale(1 0.57)" gradientUnits="userSpaceOnUse">
      <stop offset="0" stop-color="#fff"/>
      <stop offset="1" stop-color="#f3f3f3"/>
    </radialGradient>
    <radialGradient id="a56e0d9f-366a-46cb-81c6-3f0dd7b933a6" cx="167.5" cy="-65.21" r="130" gradientTransform="matrix(1, 0, 0, -1.36, 0, 455.23)" xlink:href="#adffb8e7-b6c4-4043-b7ab-d3c22f798547"/>
    <clipPath id="a9082464-cea8-4c63-8455-c39a7ade8ea6">
      <rect width="334.9" height="473.81" fill="none"/>
    </clipPath>
    <clipPath id="a20444fc-c67c-4355-ac3a-2a7e32ccacd1">
      <path d="M340.3,90.4v1.5a2.8,2.8,0,0,1-1.9,2.6,9.8,9.8,0,0,1-9.1,0c-1.2-.7-1.9-1.6-1.8-2.6V90.4a3.3,3.3,0,0,0,1.8,2.6,10.4,10.4,0,0,0,9.1,0A2.8,2.8,0,0,0,340.3,90.4Z" fill="none"/>
    </clipPath>
    <clipPath id="e36ac308-5df9-4354-bf50-aa76743e8f31">
      <path d="M264.7,133.9v1.5a3.6,3.6,0,0,1-1.9,2.6,9.8,9.8,0,0,1-9.1,0,2.8,2.8,0,0,1-1.9-2.6v-1.6a3.2,3.2,0,0,0,1.9,2.7,10.4,10.4,0,0,0,9.1,0A3.6,3.6,0,0,0,264.7,133.9Z" fill="none"/>
    </clipPath>
    <clipPath id="e7ef9ee9-caee-4b4e-9102-2cf9fd3f803a">
      <path d="M279.9,142.7v1.5a2.8,2.8,0,0,1-1.9,2.6,9.6,9.6,0,0,1-9,0,2.8,2.8,0,0,1-1.9-2.6v-1.6a3.2,3.2,0,0,0,1.9,2.7,10.2,10.2,0,0,0,9,0A2.8,2.8,0,0,0,279.9,142.7Z" fill="none"/>
    </clipPath>
    <clipPath id="e1914b7a-31e8-41f3-a0a0-4ea05456e651">
      <path d="M295.2,151.5V153a3.2,3.2,0,0,1-1.9,2.6,9.8,9.8,0,0,1-9.1,0,2.8,2.8,0,0,1-1.9-2.6v-1.6a3.2,3.2,0,0,0,1.9,2.7,10.4,10.4,0,0,0,9.1,0A3.6,3.6,0,0,0,295.2,151.5Z" fill="none"/>
    </clipPath>
    <clipPath id="f24ddd49-c0f8-4468-b0b7-eb173d767e8b">
      <path d="M309.9,160v1.5a2.8,2.8,0,0,1-1.9,2.6,10.1,10.1,0,0,1-9.1.1,3.2,3.2,0,0,1-1.9-2.7v-1.6a2.8,2.8,0,0,0,1.8,2.7,10.4,10.4,0,0,0,9.1,0A3,3,0,0,0,309.9,160Z" fill="none"/>
    </clipPath>
    <clipPath id="b7c801c0-9fc8-45d8-b9bb-c79cfc3c46b7">
      <path d="M324.6,168.5V170a3.2,3.2,0,0,1-1.9,2.7,10.2,10.2,0,0,1-9,0,3.2,3.2,0,0,1-1.9-2.7v-1.5a2.8,2.8,0,0,0,1.9,2.6,9.8,9.8,0,0,0,9.1,0A3.3,3.3,0,0,0,324.6,168.5Z" fill="none"/>
    </clipPath>
    <clipPath id="a4ea673f-9364-474f-a432-bedff842ded6">
      <path d="M339.3,177v1.5a3.3,3.3,0,0,1-1.8,2.7,10.4,10.4,0,0,1-9.1,0,3.2,3.2,0,0,1-1.9-2.7V177a2.8,2.8,0,0,0,1.9,2.6,9.8,9.8,0,0,0,9.1,0A3.3,3.3,0,0,0,339.3,177Z" fill="none"/>
    </clipPath>
    <clipPath id="fb3db44d-3b9e-4fb7-a039-62e4ac594afc">
      <path d="M250.1,142.3v1.6a3.3,3.3,0,0,1-1.8,2.6,10.4,10.4,0,0,1-9.1,0,3.2,3.2,0,0,1-1.9-2.7v-1.5a2.8,2.8,0,0,0,1.9,2.6,9.8,9.8,0,0,0,9.1,0A3.3,3.3,0,0,0,250.1,142.3Z" fill="none"/>
    </clipPath>
    <clipPath id="f3fc1c3e-9166-4a23-865e-b52d2cb3044a">
      <path d="M265.4,151.1v1.6a2.8,2.8,0,0,1-1.9,2.6,10.4,10.4,0,0,1-9.1,0,3.2,3.2,0,0,1-1.9-2.7v-1.5a3.6,3.6,0,0,0,1.9,2.6,9.8,9.8,0,0,0,9.1,0A2.8,2.8,0,0,0,265.4,151.1Z" fill="none"/>
    </clipPath>
    <clipPath id="e5732d38-1fa2-4647-afa9-57262903154c">
      <path d="M280.6,159.9v1.6a3.3,3.3,0,0,1-1.8,2.6,10.4,10.4,0,0,1-9.1,0,3.2,3.2,0,0,1-1.9-2.7v-1.5a2.8,2.8,0,0,0,1.9,2.6,9.8,9.8,0,0,0,9.1,0A3.3,3.3,0,0,0,280.6,159.9Z" fill="none"/>
    </clipPath>
    <clipPath id="bdb601e1-ec96-429e-8f14-c4461f68674b">
      <path d="M295.4,168.4V170a3.6,3.6,0,0,1-1.9,2.6,10.4,10.4,0,0,1-9.1,0,3.2,3.2,0,0,1-1.9-2.7v-1.5a3.6,3.6,0,0,0,1.9,2.6,9.8,9.8,0,0,0,9.1,0A3.2,3.2,0,0,0,295.4,168.4Z" fill="none"/>
    </clipPath>
    <clipPath id="f2ce44b2-7303-418b-9391-a7e9d9d3cb7c">
      <path d="M310.1,176.9v1.6a2.8,2.8,0,0,1-1.9,2.6,10.4,10.4,0,0,1-9.1,0,3.3,3.3,0,0,1-1.8-2.7v-1.5a2.8,2.8,0,0,0,1.9,2.6,9.6,9.6,0,0,0,9,0A2.8,2.8,0,0,0,310.1,176.9Z" fill="none"/>
    </clipPath>
    <clipPath id="bc7157b3-72a8-4203-b6a5-a76c42a73d9a">
      <path d="M324.8,185.4V187a2.8,2.8,0,0,1-1.9,2.6,10.2,10.2,0,0,1-9,0A2.8,2.8,0,0,1,312,187v-1.6a2.8,2.8,0,0,0,1.9,2.6,9.8,9.8,0,0,0,9.1,0A3.3,3.3,0,0,0,324.8,185.4Z" fill="none"/>
    </clipPath>
    <clipPath id="e58e314e-6dbf-467f-a804-be5739f3bc3c">
      <path d="M339.5,193.9v1.6a3.3,3.3,0,0,1-1.8,2.6,10.4,10.4,0,0,1-9.1,0,2.8,2.8,0,0,1-1.9-2.6v-1.6a2.8,2.8,0,0,0,1.9,2.6,9.8,9.8,0,0,0,9.1,0A3.3,3.3,0,0,0,339.5,193.9Z" fill="none"/>
    </clipPath>
  </defs>
  <g>
    <g>
      <g>
        <rect x="0.2" y="206" width="334.7" height="129.03" fill="url(#adffb8e7-b6c4-4043-b7ab-d3c22f798547)"/>
        <g>
          <rect width="335" height="205.97" fill="url(#a56e0d9f-366a-46cb-81c6-3f0dd7b933a6)"/>
          <rect y="39.8" width="335" height="135.15" fill="#412312"/>
          <rect y="320.1" width="335" height="9.88" fill="#8b2829"/>
          <rect y="118.2" width="14.6" height="18.01" fill="#8b2829"/>
          <rect y="275.7" width="14.6" height="18.01" fill="#8b2829"/>
        </g>
      </g>
      <g clip-path="url(#a9082464-cea8-4c63-8455-c39a7ade8ea6)">
        <g>
          <polygon points="428.6 122.2 419.1 116.7 410.3 111.6 401.5 106.5 348.7 76 296.2 106.5 296.2 106.5 296.1 106.5 287.4 111.6 286.7 111.9 278.6 116.7 278 117 269.2 122.1 269.3 122.2 216.8 152.7 357.5 241.2 490 157.6 481.5 152.7 428.6 122.2" fill="#273339" opacity="0.1" style="isolation: isolate"/>
          <g>
            <g>
              <polygon points="243.5 135.2 243.5 143 228.6 151.6 228.6 143.8 243.5 135.2" fill="#411e14"/>
              <polygon points="258.4 126.5 258.4 134.3 243.5 143 243.5 135.2 258.4 126.5" fill="#411e14"/>
              <polygon points="258.5 143.8 258.5 151.6 243.5 143 243.5 135.2 258.5 143.8" fill="#ebc07d"/>
              <polygon points="258.5 143.8 258.5 151.6 243.6 160.3 243.6 152.5 258.5 143.8" fill="#6d311f"/>
              <polygon points="243.6 152.5 243.6 160.3 228.6 151.6 228.6 143.8 243.6 152.5" fill="#6d311f"/>
              <polygon points="258.6 161.1 258.6 168.9 243.6 160.3 243.6 152.5 258.6 161.1" fill="#ebc07d"/>
              <polygon points="273.4 135.2 273.4 143 258.4 134.3 258.4 126.5 273.4 135.2" fill="#6d311f"/>
              <polygon points="273.4 135.2 273.4 143 258.5 151.6 258.5 143.8 273.4 135.2" fill="#ebc07d"/>
              <polygon points="273.5 152.5 273.5 160.3 258.5 151.6 258.5 143.8 273.5 152.5" fill="#6d311f"/>
              <polygon points="273.5 152.5 273.5 160.3 258.6 168.9 258.6 161.1 273.5 152.5" fill="#ebc07d"/>
              <polygon points="273.6 169.8 273.6 177.6 258.6 168.9 258.6 161.1 273.6 169.8" fill="#6d311f"/>
              <polygon points="288.2 109.2 288.2 117 273.3 125.6 273.3 117.9 288.2 109.2" fill="#411e14"/>
              <polygon points="288.3 126.5 288.2 134.3 273.3 125.6 273.3 117.9 288.3 126.5" fill="#ebc07d"/>
              <polygon points="288.3 126.5 288.2 134.3 273.4 143 273.4 135.2 288.3 126.5" fill="#6d311f"/>
              <polygon points="288.4 143.8 288.3 151.6 273.4 143 273.4 135.2 288.4 143.8" fill="#ebc07d"/>
              <polygon points="288.4 143.8 288.3 151.6 273.5 160.3 273.5 152.5 288.4 143.8" fill="#6d311f"/>
              <polygon points="288.5 161.1 288.4 168.9 273.5 160.3 273.5 152.5 288.5 161.1" fill="#ebc07d"/>
              <polygon points="288.5 161.1 288.4 168.9 273.6 177.6 273.6 169.8 288.5 161.1" fill="#6d311f"/>
              <polygon points="288.6 178.5 288.5 186.2 273.6 177.6 273.6 169.8 288.6 178.5" fill="#ebc07d"/>
              <polygon points="303.1 100.6 303 108.3 288.2 117 288.2 109.2 303.1 100.6" fill="#411e14"/>
              <polygon points="303.2 117.9 303.1 125.6 288.2 117 288.2 109.2 303.2 117.9" fill="#6d311f"/>
              <polygon points="303.2 117.9 303.1 125.6 288.2 134.3 288.3 126.5 303.2 117.9" fill="#ebc07d"/>
              <polygon points="303.3 135.2 303.2 143 288.2 134.3 288.3 126.5 303.3 135.2" fill="#6d311f"/>
              <polygon points="303.3 135.2 303.2 143 288.3 151.6 288.4 143.8 303.3 135.2" fill="#ebc07d"/>
              <polygon points="303.4 152.5 303.3 160.3 288.3 151.6 288.4 143.8 303.4 152.5" fill="#6d311f"/>
              <polygon points="303.4 152.5 303.3 160.3 288.4 168.9 288.5 161.1 303.4 152.5" fill="#ebc07d"/>
              <polygon points="303.5 169.8 303.4 177.6 288.4 168.9 288.5 161.1 303.5 169.8" fill="#6d311f"/>
              <polygon points="303.5 169.8 303.4 177.6 288.5 186.2 288.6 178.5 303.5 169.8" fill="#ebc07d"/>
              <polygon points="318 91.9 317.9 99.7 303 108.3 303.1 100.6 318 91.9" fill="#411e14"/>
              <polygon points="318.1 109.2 318 117 303 108.3 303.1 100.6 318.1 109.2" fill="#ebc07d"/>
              <polygon points="318.1 109.2 318 117 303.1 125.6 303.2 117.9 318.1 109.2" fill="#6d311f"/>
              <polygon points="318.2 126.5 318.1 134.3 303.1 125.6 303.2 117.9 318.2 126.5" fill="#ebc07d"/>
              <polygon points="318.2 126.5 318.1 134.3 303.2 143 303.3 135.2 318.2 126.5" fill="#6d311f"/>
              <polygon points="318.2 143.8 318.2 151.6 303.2 143 303.3 135.2 318.2 143.8" fill="#ebc07d"/>
              <polygon points="318.2 143.8 318.2 151.6 303.3 160.3 303.4 152.5 318.2 143.8" fill="#6d311f"/>
              <polygon points="318.3 161.2 318.3 168.9 303.3 160.3 303.4 152.5 318.3 161.2" fill="#ebc07d"/>
              <polygon points="318.3 161.2 318.3 168.9 303.4 177.6 303.5 169.8 318.3 161.2" fill="#6d311f"/>
              <polygon points="318.4 178.5 318.4 186.2 303.4 177.6 303.5 169.8 318.4 178.5" fill="#ebc07d"/>
              <polygon points="318.4 178.5 318.4 186.2 303.5 194.9 303.6 187.1 318.4 178.5" fill="#6d311f"/>
              <polygon points="303.6 187.1 303.5 194.9 288.5 186.2 288.6 178.5 303.6 187.1" fill="#6d311f"/>
              <polygon points="332.9 83.3 332.8 91 317.9 99.7 318 91.9 332.9 83.3" fill="#411e14"/>
              <polygon points="332.9 100.6 332.9 108.3 317.9 99.7 318 91.9 332.9 100.6" fill="#6d311f"/>
              <polygon points="332.9 100.6 332.9 108.3 318 117 318.1 109.2 332.9 100.6" fill="#ebc07d"/>
              <polygon points="333 117.9 333 125.6 318 117 318.1 109.2 333 117.9" fill="#6d311f"/>
              <polygon points="333 117.9 333 125.6 318.1 134.3 318.2 126.5 333 117.9" fill="#ebc07d"/>
              <polygon points="333.1 135.2 333.1 142.9 318.1 134.3 318.2 126.5 333.1 135.2" fill="#6d311f"/>
              <polygon points="333.1 135.2 333.1 142.9 318.2 151.6 318.2 143.8 333.1 135.2" fill="#ebc07d"/>
              <polygon points="333.2 152.5 333.2 160.3 318.2 151.6 318.2 143.8 333.2 152.5" fill="#6d311f"/>
              <polygon points="333.2 152.5 333.2 160.3 318.3 168.9 318.3 161.2 333.2 152.5" fill="#ebc07d"/>
              <polygon points="333.3 169.8 333.3 177.6 318.3 168.9 318.3 161.2 333.3 169.8" fill="#6d311f"/>
              <polygon points="333.3 169.8 333.3 177.6 318.4 186.2 318.4 178.5 333.3 169.8" fill="#ebc07d"/>
              <polygon points="333.4 187.1 333.4 194.9 318.4 186.2 318.4 178.5 333.4 187.1" fill="#6d311f"/>
              <polygon points="333.4 187.1 333.4 194.9 318.5 203.5 318.5 195.8 333.4 187.1" fill="#ebc07d"/>
              <polygon points="318.5 195.8 318.5 203.5 303.5 194.9 303.6 187.1 318.5 195.8" fill="#ebc07d"/>
              <polygon points="347.8 91.9 347.8 99.7 332.8 91 332.9 83.3 347.8 91.9" fill="#ebc07d"/>
              <polygon points="347.8 91.9 347.8 99.7 332.9 108.3 332.9 100.6 347.8 91.9" fill="#6d311f"/>
              <polygon points="347.9 109.2 347.9 117 332.9 108.3 332.9 100.6 347.9 109.2" fill="#ebc07d"/>
              <polygon points="347.9 109.2 347.9 117 333 125.6 333 117.9 347.9 109.2" fill="#6d311f"/>
              <polygon points="348 126.5 348 134.3 333 125.6 333 117.9 348 126.5" fill="#ebc07d"/>
              <polygon points="348 126.5 348 134.3 333.1 142.9 333.1 135.2 348 126.5" fill="#6d311f"/>
              <polygon points="348.1 143.8 348.1 151.6 333.1 142.9 333.1 135.2 348.1 143.8" fill="#ebc07d"/>
              <polygon points="348.1 143.8 348.1 151.6 333.2 160.3 333.2 152.5 348.1 143.8" fill="#6d311f"/>
              <polygon points="348.2 161.2 348.2 168.9 333.2 160.3 333.2 152.5 348.2 161.2" fill="#ebc07d"/>
              <polygon points="348.2 161.2 348.2 168.9 333.3 177.6 333.3 169.8 348.2 161.2" fill="#6d311f"/>
              <polygon points="348.3 178.5 348.3 186.2 333.3 177.6 333.3 169.8 348.3 178.5" fill="#ebc07d"/>
              <polygon points="348.3 178.5 348.3 186.2 333.4 194.9 333.4 187.1 348.3 178.5" fill="#6d311f"/>
              <polygon points="348.4 195.8 348.4 203.5 333.4 194.9 333.4 187.1 348.4 195.8" fill="#ebc07d"/>
              <polygon points="348.4 195.8 348.4 203.5 333.5 212.2 333.5 204.4 348.4 195.8" fill="#6d311f"/>
              <polygon points="333.5 204.4 333.5 212.2 318.5 203.5 318.5 195.8 333.5 204.4" fill="#6d311f"/>
              <polygon points="348.5 213.1 348.5 220.8 333.5 212.2 333.5 204.4 348.5 213.1" fill="#ebc07d"/>
              <polygon points="348.5 215.3 348.5 223.1 224.8 151.6 224.8 143.8 348.5 215.3" fill="#411e14"/>
              <polygon points="228.6 143.8 243.5 135.2 258.4 126.5 263.2 129.3 273.3 123.4 273.3 117.9 288.2 109.2 303.1 100.6 318 91.9 318 91.9 332.9 83.3 332.9 83.3 332.9 83.3 337.6 86 347.7 80.2 347.7 72.4 224.8 143.8 224.8 151.6 228.6 149.4 228.6 143.8" fill="#2e1711"/>
              <polygon points="339.5 87.1 347.7 82.4 347.7 74.6 332.9 83.3 332.9 83.3 339.5 87.1" fill="#411e14"/>
              <polygon points="362.9 117.9 348 126.5 333 117.9 347.9 109.2 362.9 117.9" fill="#ebc07d"/>
              <polygon points="333 117.9 318.2 126.5 303.2 117.9 318.1 109.2 333 117.9" fill="#ebc07d"/>
              <polygon points="273.3 117.9 273.3 125.6 258.4 134.3 258.4 126.5 273.3 117.9" fill="#411e14"/>
              <polygon points="362.8 100.6 347.9 109.2 332.9 100.6 347.8 91.9 362.8 100.6" fill="#ebc07d"/>
              <polygon points="347.9 109.2 333 117.9 318.1 109.2 332.9 100.6 347.9 109.2" fill="#6d311f"/>
              <polygon points="303.2 117.9 288.3 126.5 273.3 117.9 288.2 109.2 303.2 117.9" fill="#ebc07d"/>
              <polygon points="348 126.5 333.1 135.2 318.2 126.5 333 117.9 348 126.5" fill="#6d311f"/>
              <polygon points="288.3 126.5 273.4 135.2 258.4 126.5 273.3 117.9 288.3 126.5" fill="#6d311f"/>
              <polygon points="363 135.2 348.1 143.8 333.1 135.2 348 126.5 363 135.2" fill="#ebc07d"/>
              <path d="M214.1,151.6v-7.8a2.9,2.9,0,0,0,1.7,2.4V154A3.2,3.2,0,0,1,214.1,151.6Z" fill="#2e1711"/>
              <polygon points="348.1 143.8 333.2 152.5 318.2 143.8 333.1 135.2 348.1 143.8" fill="#6d311f"/>
              <polygon points="318.2 143.8 303.4 152.5 288.4 143.8 303.3 135.2 318.2 143.8" fill="#6d311f"/>
              <polygon points="288.4 143.8 273.5 152.5 258.5 143.8 273.4 135.2 288.4 143.8" fill="#6d311f"/>
              <polygon points="258.5 143.8 243.6 152.5 228.6 143.8 243.5 135.2 258.5 143.8" fill="#6d311f"/>
              <polygon points="363.1 152.5 348.2 161.2 333.2 152.5 348.1 143.8 363.1 152.5" fill="#ebc07d"/>
              <polygon points="333.2 152.5 318.3 161.2 303.4 152.5 318.2 143.8 333.2 152.5" fill="#ebc07d"/>
              <polygon points="303.4 152.5 288.5 161.1 273.5 152.5 288.4 143.8 303.4 152.5" fill="#ebc07d"/>
              <polygon points="273.5 152.5 258.6 161.1 243.6 152.5 258.5 143.8 273.5 152.5" fill="#ebc07d"/>
              <polygon points="348.2 161.2 333.3 169.8 318.3 161.2 333.2 152.5 348.2 161.2" fill="#6d311f"/>
              <polygon points="318.3 161.2 303.5 169.8 288.5 161.1 303.4 152.5 318.3 161.2" fill="#6d311f"/>
              <polygon points="288.5 161.1 273.6 169.8 258.6 161.1 273.5 152.5 288.5 161.1" fill="#6d311f"/>
              <polygon points="363.2 169.8 348.3 178.5 333.3 169.8 348.2 161.2 363.2 169.8" fill="#ebc07d"/>
              <polygon points="303.5 169.8 288.6 178.5 273.6 169.8 288.5 161.1 303.5 169.8" fill="#ebc07d"/>
              <polygon points="348.3 178.5 333.4 187.1 318.4 178.5 333.3 169.8 348.3 178.5" fill="#6d311f"/>
              <polygon points="363.3 187.1 348.4 195.8 333.4 187.1 348.3 178.5 363.3 187.1" fill="#ebc07d"/>
              <polygon points="333.4 187.1 318.5 195.8 303.6 187.1 318.4 178.5 333.4 187.1" fill="#ebc07d"/>
              <polygon points="348.4 195.8 333.5 204.4 318.5 195.8 333.4 187.1 348.4 195.8" fill="#6d311f"/>
              <polygon points="363.4 204.4 348.5 213.1 333.5 204.4 348.4 195.8 363.4 204.4" fill="#ebc07d"/>
              <path d="M480.4,141.4,351.8,67.2a9.1,9.1,0,0,0-8.2,0L215.8,141.4c-2.3,1.4-2.3,3.5,0,4.8l128.6,74.3a9.3,9.3,0,0,0,8.3,0l127.7-74.3C482.7,144.9,482.7,142.8,480.4,141.4ZM348.5,215.3,224.8,143.8,347.7,72.4l123.8,71.4-123,71.5" fill="#2e1711"/>
              <path d="M348.5,215.3l123-71.5L347.7,72.4,224.8,143.8Zm-90.1-88.8,14.9-8.6,14.9-8.7,14.9-8.6L318,91.9l14.9-8.6,14.8-8.7,15,8.7,15,8.6,15,8.7,15,8.6,15,8.7,15,8.6,15,8.7,15,8.6h0l-14.9,8.7-14.9,8.7L423,169.8h0l-14.9,8.7-14.9,8.6-14.9,8.7h0l-14.9,8.6-14.9,8.7-15-8.7-15-8.6-14.9-8.7-15-8.6-15-8.7-15-8.7-15-8.6-15-8.7,14.9-8.6,14.9-8.7" fill="#411e14"/>
              <polygon points="347.8 91.9 362.7 83.3 347.7 74.6 332.9 83.3 347.8 91.9" fill="#ebc07d"/>
              <polygon points="347.8 91.9 332.9 100.6 318 91.9 332.9 83.3 347.8 91.9" fill="#6d311f"/>
              <polygon points="332.9 100.6 318.1 109.2 303.1 100.6 318 91.9 332.9 100.6" fill="#ebc07d"/>
              <polygon points="318.1 109.2 303.2 117.9 288.2 109.2 303.1 100.6 318.1 109.2" fill="#6d311f"/>
              <polygon points="318.2 126.5 303.3 135.2 288.3 126.5 303.2 117.9 318.2 126.5" fill="#6d311f"/>
              <polygon points="333.1 135.2 318.2 143.8 303.3 135.2 318.2 126.5 333.1 135.2" fill="#ebc07d"/>
              <polygon points="303.3 135.2 288.4 143.8 273.4 135.2 288.3 126.5 303.3 135.2" fill="#ebc07d"/>
              <polygon points="273.4 135.2 258.5 143.8 243.5 135.2 258.4 126.5 273.4 135.2" fill="#ebc07d"/>
              <polygon points="333.3 169.8 318.4 178.5 303.5 169.8 318.3 161.2 333.3 169.8" fill="#ebc07d"/>
              <polygon points="318.4 178.5 303.6 187.1 288.6 178.5 303.5 169.8 318.4 178.5" fill="#6d311f"/>
              <polygon points="344.4 220.5 344.4 228.2 215.8 154 215.8 146.2 344.4 220.5" fill="#2e1711"/>
            </g>
            <g>
              <g clip-path="url(#a20444fc-c67c-4355-ac3a-2a7e32ccacd1)">
                <path d="M340.3,90.4v1.5a2.8,2.8,0,0,1-1.9,2.6,9.8,9.8,0,0,1-9.1,0c-1.2-.7-1.9-1.6-1.8-2.6V90.4a3.3,3.3,0,0,0,1.8,2.6,10.4,10.4,0,0,0,9.1,0,2.8,2.8,0,0,0,1.9-2.6" fill="#191717"/>
              </g>
              <path d="M338.4,87.7c2.5,1.5,2.5,3.8,0,5.3a10.4,10.4,0,0,1-9.1,0c-2.5-1.5-2.5-3.8,0-5.3A10.4,10.4,0,0,1,338.4,87.7Z" fill="#231f20"/>
            </g>
            <g>
              <g>
                <g clip-path="url(#e36ac308-5df9-4354-bf50-aa76743e8f31)">
                  <path d="M264.7,133.9v1.5a3.6,3.6,0,0,1-1.9,2.6,9.8,9.8,0,0,1-9.1,0,2.8,2.8,0,0,1-1.9-2.6v-1.6a3.2,3.2,0,0,0,1.9,2.7,10.4,10.4,0,0,0,9.1,0,3.6,3.6,0,0,0,1.9-2.6" fill="#a1998a"/>
                </g>
                <path d="M262.8,131.2c2.5,1.5,2.5,3.8,0,5.3a10.4,10.4,0,0,1-9.1,0c-2.5-1.5-2.5-3.8,0-5.3A10.4,10.4,0,0,1,262.8,131.2Z" fill="#f3e6d0"/>
              </g>
              <g>
                <g clip-path="url(#e7ef9ee9-caee-4b4e-9102-2cf9fd3f803a)">
                  <path d="M279.9,142.7v1.5a2.8,2.8,0,0,1-1.9,2.6,9.6,9.6,0,0,1-9,0,2.8,2.8,0,0,1-1.9-2.6v-1.6a3.2,3.2,0,0,0,1.9,2.7,10.2,10.2,0,0,0,9,0,2.8,2.8,0,0,0,1.9-2.6" fill="#a1998a"/>
                </g>
                <path d="M278,140c2.5,1.5,2.5,3.8,0,5.3a10.2,10.2,0,0,1-9,0c-2.5-1.5-2.6-3.8-.1-5.3A10.4,10.4,0,0,1,278,140Z" fill="#f3e6d0"/>
              </g>
              <g>
                <g clip-path="url(#e1914b7a-31e8-41f3-a0a0-4ea05456e651)">
                  <path d="M295.2,151.5V153a3.2,3.2,0,0,1-1.9,2.6,9.8,9.8,0,0,1-9.1,0,2.8,2.8,0,0,1-1.9-2.6v-1.6a3.2,3.2,0,0,0,1.9,2.7,10.4,10.4,0,0,0,9.1,0,3.6,3.6,0,0,0,1.9-2.6" fill="#a1998a"/>
                </g>
                <path d="M293.3,148.8c2.5,1.5,2.5,3.8,0,5.3a10.4,10.4,0,0,1-9.1,0c-2.5-1.5-2.5-3.8,0-5.3A10.4,10.4,0,0,1,293.3,148.8Z" fill="#f3e6d0"/>
              </g>
              <g>
                <g clip-path="url(#f24ddd49-c0f8-4468-b0b7-eb173d767e8b)">
                  <path d="M309.9,160v1.5a2.8,2.8,0,0,1-1.9,2.6,10.1,10.1,0,0,1-9.1.1,3.2,3.2,0,0,1-1.9-2.7v-1.6a2.8,2.8,0,0,0,1.8,2.7,10.4,10.4,0,0,0,9.1,0,2.8,2.8,0,0,0,1.9-2.6" fill="#a1998a"/>
                </g>
                <path d="M308,157.3c2.5,1.5,2.5,3.8,0,5.3a10.4,10.4,0,0,1-9.1,0c-2.5-1.5-2.5-3.8,0-5.3A10.4,10.4,0,0,1,308,157.3Z" fill="#f3e6d0"/>
              </g>
              <g>
                <g clip-path="url(#b7c801c0-9fc8-45d8-b9bb-c79cfc3c46b7)">
                  <path d="M324.6,168.5V170a3.2,3.2,0,0,1-1.9,2.7,10.2,10.2,0,0,1-9,0,3.2,3.2,0,0,1-1.9-2.7v-1.5a2.8,2.8,0,0,0,1.9,2.6,9.8,9.8,0,0,0,9.1,0,3.3,3.3,0,0,0,1.8-2.6" fill="#a1998a"/>
                </g>
                <path d="M322.7,165.8c2.5,1.5,2.5,3.8.1,5.3a9.8,9.8,0,0,1-9.1,0c-2.5-1.4-2.5-3.8,0-5.3A10.2,10.2,0,0,1,322.7,165.8Z" fill="#f3e6d0"/>
              </g>
              <g>
                <g clip-path="url(#a4ea673f-9364-474f-a432-bedff842ded6)">
                  <path d="M339.3,177v1.5a3.3,3.3,0,0,1-1.8,2.7,10.4,10.4,0,0,1-9.1,0,3.2,3.2,0,0,1-1.9-2.7V177a2.8,2.8,0,0,0,1.9,2.6,9.8,9.8,0,0,0,9.1,0,3.3,3.3,0,0,0,1.8-2.6" fill="#a1998a"/>
                </g>
                <path d="M337.5,174.3c2.5,1.5,2.5,3.8,0,5.3a9.8,9.8,0,0,1-9.1,0c-2.5-1.4-2.5-3.8,0-5.3A10.4,10.4,0,0,1,337.5,174.3Z" fill="#f3e6d0"/>
              </g>
              <g>
                <g clip-path="url(#fb3db44d-3b9e-4fb7-a039-62e4ac594afc)">
                  <path d="M250.1,142.3v1.6a3.3,3.3,0,0,1-1.8,2.6,10.4,10.4,0,0,1-9.1,0,3.2,3.2,0,0,1-1.9-2.7v-1.5a2.8,2.8,0,0,0,1.9,2.6,9.8,9.8,0,0,0,9.1,0,3.3,3.3,0,0,0,1.8-2.6" fill="#a1998a"/>
                </g>
                <path d="M248.2,139.7c2.5,1.4,2.6,3.8.1,5.2a9.8,9.8,0,0,1-9.1,0c-2.5-1.4-2.5-3.8,0-5.2A9.6,9.6,0,0,1,248.2,139.7Z" fill="#f3e6d0"/>
              </g>
              <g>
                <g clip-path="url(#f3fc1c3e-9166-4a23-865e-b52d2cb3044a)">
                  <path d="M265.4,151.1v1.6a2.8,2.8,0,0,1-1.9,2.6,10.4,10.4,0,0,1-9.1,0,3.2,3.2,0,0,1-1.9-2.7v-1.5a3.6,3.6,0,0,0,1.9,2.6,9.8,9.8,0,0,0,9.1,0,2.8,2.8,0,0,0,1.9-2.6" fill="#a1998a"/>
                </g>
                <path d="M263.5,148.5c2.5,1.4,2.5,3.8,0,5.2a9.8,9.8,0,0,1-9.1,0c-2.5-1.4-2.5-3.8,0-5.2A9.8,9.8,0,0,1,263.5,148.5Z" fill="#f3e6d0"/>
              </g>
              <g>
                <g clip-path="url(#e5732d38-1fa2-4647-afa9-57262903154c)">
                  <path d="M280.6,159.9v1.6a3.3,3.3,0,0,1-1.8,2.6,10.4,10.4,0,0,1-9.1,0,3.2,3.2,0,0,1-1.9-2.7v-1.5a2.8,2.8,0,0,0,1.9,2.6,9.8,9.8,0,0,0,9.1,0,3.3,3.3,0,0,0,1.8-2.6" fill="#a1998a"/>
                </g>
                <path d="M278.7,157.3c2.6,1.4,2.6,3.8.1,5.2a9.8,9.8,0,0,1-9.1,0c-2.5-1.4-2.5-3.8,0-5.2A9.6,9.6,0,0,1,278.7,157.3Z" fill="#f3e6d0"/>
              </g>
              <g>
                <g clip-path="url(#bdb601e1-ec96-429e-8f14-c4461f68674b)">
                  <path d="M295.4,168.4V170a3.6,3.6,0,0,1-1.9,2.6,10.4,10.4,0,0,1-9.1,0,3.2,3.2,0,0,1-1.9-2.7v-1.5a3.6,3.6,0,0,0,1.9,2.6,9.8,9.8,0,0,0,9.1,0,3.2,3.2,0,0,0,1.9-2.6" fill="#a1998a"/>
                </g>
                <path d="M293.5,165.8c2.5,1.4,2.5,3.8,0,5.2a9.8,9.8,0,0,1-9.1,0c-2.5-1.4-2.5-3.8,0-5.2A9.8,9.8,0,0,1,293.5,165.8Z" fill="#f3e6d0"/>
              </g>
              <g>
                <g clip-path="url(#f2ce44b2-7303-418b-9391-a7e9d9d3cb7c)">
                  <path d="M310.1,176.9v1.6a2.8,2.8,0,0,1-1.9,2.6,10.4,10.4,0,0,1-9.1,0,3.3,3.3,0,0,1-1.8-2.7v-1.5a2.8,2.8,0,0,0,1.9,2.6,9.6,9.6,0,0,0,9,0,2.8,2.8,0,0,0,1.9-2.6" fill="#a1998a"/>
                </g>
                <path d="M308.2,174.3c2.5,1.4,2.5,3.8,0,5.2a9.6,9.6,0,0,1-9,0c-2.6-1.4-2.6-3.8-.1-5.2A9.8,9.8,0,0,1,308.2,174.3Z" fill="#f3e6d0"/>
              </g>
              <g>
                <g clip-path="url(#bc7157b3-72a8-4203-b6a5-a76c42a73d9a)">
                  <path d="M324.8,185.4V187a2.8,2.8,0,0,1-1.9,2.6,10.2,10.2,0,0,1-9,0A2.8,2.8,0,0,1,312,187v-1.6a2.8,2.8,0,0,0,1.9,2.6,9.8,9.8,0,0,0,9.1,0,3.3,3.3,0,0,0,1.8-2.6" fill="#a1998a"/>
                </g>
                <path d="M322.9,182.8c2.5,1.4,2.6,3.8.1,5.2a9.8,9.8,0,0,1-9.1,0c-2.5-1.4-2.5-3.8,0-5.2A9.6,9.6,0,0,1,322.9,182.8Z" fill="#f3e6d0"/>
              </g>
              <g>
                <g clip-path="url(#e58e314e-6dbf-467f-a804-be5739f3bc3c)">
                  <path d="M339.5,193.9v1.6a3.3,3.3,0,0,1-1.8,2.6,10.4,10.4,0,0,1-9.1,0,2.8,2.8,0,0,1-1.9-2.6v-1.6a2.8,2.8,0,0,0,1.9,2.6,9.8,9.8,0,0,0,9.1,0,3.3,3.3,0,0,0,1.8-2.6" fill="#a1998a"/>
                </g>
                <path d="M337.6,191.3c2.6,1.4,2.6,3.8.1,5.2a9.8,9.8,0,0,1-9.1,0c-2.5-1.4-2.5-3.8,0-5.2A9.6,9.6,0,0,1,337.6,191.3Z" fill="#f3e6d0"/>
              </g>
            </g>
          </g>
        </g>
      </g>
    </g>
    <g>
      <g>
        <path d="M30.3,16.4a1.5,1.5,0,0,1-.4,1.1l-5,4.9-5.2-3.1V16.4a1.4,1.4,0,0,1,1.4-1.6h.1a1.6,1.6,0,0,1,1.6,1.6h0v3.7l4.9-4.9a1.5,1.5,0,0,1,2-.1h.2a1.6,1.6,0,0,1,.4,1.2" fill="#8b2829"/>
        <path d="M28.8,30.7l-.6-.2c-.2-.1-.4-.1-.5-.3l-4.9-4.8v3.7a1.6,1.6,0,0,1-1.6,1.6,1.5,1.5,0,0,1-1.5-1.5h0V26.1L24.9,23l5,5a1.5,1.5,0,0,1,.1,2.1h-.1a1.6,1.6,0,0,1-1.1.5" fill="#8b2829"/>
        <path d="M24.7,22.6a.3.3,0,0,1-.1-.2h-.1l-1.3-.8-3.5-2-3-1.7h-.5c-.1,0-.1.1-.1.2v9.2c0,.1.2.4.3.4h.3l3-1.8,4.8-2.8h.2C24.8,22.7,24.8,22.7,24.7,22.6Zm-1.2.2V23l-3.8,2.2-2.4,1.3c-.1.1-.2,0-.3-.1h-.2V19.2l.3-.2h.1l2.4,1.3,3.8,2.3c.1,0,.2.1.1.3Z" fill="#8b2829"/>
        <path d="M22.5,22.8h-.1l-2.9,1.8-1.7,1c-.2.1-.3,0-.3-.1h0V20c0-.1,0-.1.1-.1h.2l1.7,1,2.9,1.7h.1" fill="#8b2829"/>
      </g>
      <g>
        <path d="M56.2,22.6c0-.1-.1-.2-.1-.3l-4.4-2.1-2.6-1.4c-.3-.1-.5,0-.5.3v7.2a.3.3,0,0,0,.3.3h.2l2.6-1.3L56,23v-.4Zm-1,0-.2.2-3.3,1.8-2,1.1c-.2,0-.4,0-.4-.2V19.9c0-.2.1-.3.2-.3h.2l2.1,1.1L55,22.4c.1.1.2.1.2.2Z" fill="#8b2829"/>
        <path d="M54.2,22.6c0,.1-.1.1-.1.2l-2.5,1.3-1.5.9c-.1,0-.2,0-.2-.1h-.1V20.6c0-.1,0-.2.1-.2H50l1.6.8,2.5,1.3h.1" fill="#8b2829"/>
        <path d="M33.5,18.9h3.9c1.8,0,3.1,1,3.1,2.5S39.3,24,37.4,24h-2v2.5H33.6Zm3.7,3.6c.9,0,1.5-.4,1.5-1s-.6-1.2-1.5-1.1H35.4v2.2Z" fill="#8b2829"/>
        <path d="M47.7,25v1.5h-6V19.1h1.8v6Z" fill="#8b2829"/>
        <path d="M58.2,23.7l-3.3-4.8h2l2.2,3.3,2.1-3.4h2l-3.2,5v2.7H58.2Z" fill="#8b2829"/>
        <path d="M64.4,19.3h1v4.1l4.2-4.2h1.3l-3.5,3.5,3.9,4.1H70l-3.3-3.5-1.2,1.3v2.3h-1Z" fill="#8b2829"/>
        <path d="M71.7,23A4.3,4.3,0,0,1,76,19a4.1,4.1,0,0,1,4.3,3.9,4.3,4.3,0,0,1-8.6.1Zm7.7-.1A3.4,3.4,0,1,0,76,26.1,3.5,3.5,0,0,0,79.4,22.9Z" fill="#8b2829"/>
        <path d="M81.6,25.7l.6-.7A4.1,4.1,0,0,0,85,26.1c1.2,0,1.9-.7,1.9-1.4s-.8-1.1-2.3-1.4-2.8-.8-2.8-2.1S83,19.1,84.6,19a4.6,4.6,0,0,1,3,1.1l-.6.6a5,5,0,0,0-2.4-.9c-1.1,0-1.8.6-1.8,1.3s.8,1.1,2.2,1.4,2.8.8,2.8,2.1-.9,2.2-2.9,2.3A5,5,0,0,1,81.6,25.7Z" fill="#8b2829"/>
        <path d="M89.7,19.3h.9l3.2,5.2,3-5.3h1v7.6h-1V21.1l-3.1,5.3-3.2-5.3v5.8h-.9Z" fill="#8b2829"/>
        <path d="M99.6,23a4.3,4.3,0,0,1,4.3-4,4.2,4.2,0,0,1,4.4,3.9,4.3,4.3,0,0,1-4.3,4A4.4,4.4,0,0,1,99.6,23Zm7.7-.1a3.3,3.3,0,0,0-3.9-2.8,3.3,3.3,0,0,0-2.8,2.9,3.4,3.4,0,0,0,6.7-.1Z" fill="#8b2829"/>
        <path d="M109.5,25.7l.6-.7a4.3,4.3,0,0,0,2.8,1.1c1.3,0,1.9-.7,1.9-1.4s-.8-1.1-2.3-1.4-2.8-.8-2.8-2.1,1.2-2.1,2.8-2.2a4.6,4.6,0,0,1,3,1.1l-.6.6a3.6,3.6,0,0,0-2.4-.9c-1,0-1.8.6-1.8,1.3s.8,1.1,2.3,1.4,2.8.8,2.8,2.1-1,2.2-3,2.3A5.5,5.5,0,0,1,109.5,25.7Z" fill="#8b2829"/>
      </g>
    </g>
    <rect x="23.1" y="133.1" width="2.1" height="8.13" fill="#fff"/>
    <rect x="23.1" y="154.3" width="2.1" height="8.13" fill="#fff"/>
    <g>
      <rect x="242.9" y="12.4" width="92.1" height="20.56" fill="#8b2829"/>
      <g>
        <path d="M251.1,19.2h-.5l-.6-1h0a1.1,1.1,0,0,1,.7-.3l.7.2,2.2.7h.2a1,1,0,0,1,.6.5l.4,1.1a33.1,33.1,0,0,1,1.5,3.3l.8,1.7c0,.2.1.2.1.4a.5.5,0,0,1-.2.6h-.3l-2,1-1.8.9-.6.4h-.6c-.2-.2-.3-.3-.3-.5s-.8-1.7-1.2-2.5l-.8-1.9-.6-1.6-.2-.4a1.2,1.2,0,0,1,.2-.8l.9-2.2c0-.1,0-.1.1-.1h0a2.2,2.2,0,0,1,.5.8c.1,0,.1.1.1.2a.6.6,0,0,0,.1.6.7.7,0,0,0,1,.4h0l.4-.4a.9.9,0,0,0-.2-1.1Z" fill="#fff"/>
        <path d="M249,19.8l-.2.5-.4.9a2.4,2.4,0,0,0,0,1.2l.6,1.3,1.4,3.3.6,1.1h-2.6a.6.6,0,0,1-.5-.6.6.6,0,0,1-.1-.4V21.4a1.1,1.1,0,0,1,.3-.8l.7-.7.2-.2Z" fill="#fff"/>
        <path d="M247.2,17.9a1,1,0,0,1,.7-.9,1.6,1.6,0,0,1,1,.2l.8.8a7.6,7.6,0,0,1,1.2,1.9c.1.2,0,.4-.1.4s-.2-.1-.2-.2l-.4-.8-1.1-1.5-.5-.4h-.7c-.3.1-.4.3-.3.5a.9.9,0,0,0,.3.7l.7.9c.1.1.1.1,0,.1s-.1.1-.1.2h-.1a4.9,4.9,0,0,1-1.1-1.4C247.3,18.3,247.2,18.1,247.2,17.9Z" fill="#fff"/>
        <path d="M251.7,20.1c0,.2-.1.3-.1.4h-.1v-.3a.6.6,0,0,0-.6-.5h0c.1-.1.2-.2.3-.1a.5.5,0,0,1,.5.5Z" fill="#fff"/>
        <path d="M251.9,23.2a.5.5,0,0,1-.4.5.5.5,0,0,1-.5-.5.5.5,0,0,1,.5-.4h0A.4.4,0,0,1,251.9,23.2Z" fill="#fff"/>
        <path d="M254.8,23.8a.4.4,0,0,1-.4.4h0c-.3,0-.5-.1-.5-.4s.2-.4.5-.4.3.1.4.3Z" fill="#fff"/>
      </g>
    </g>
    <rect x="23.1" y="284.1" width="0.9" height="6.7" fill="#8b2829"/>
    <rect x="23.1" y="303.8" width="0.9" height="6.7" fill="#8b2829"/>
    <g>
      <circle cx="27.2" cy="190.1" r="4.1" fill="#8b2829"/>
      <circle cx="32.4" cy="190.1" r="4.1" fill="#8b2829"/>
    </g>
    <g>
      <circle cx="27.2" cy="211.4" r="4.1" fill="#8b2829"/>
      <circle cx="32.4" cy="211.4" r="4.1" fill="#8b2829"/>
    </g>
    <g>
      <circle cx="27.2" cy="232.8" r="4.1" fill="#8b2829"/>
      <circle cx="32.4" cy="232.8" r="4.1" fill="#8b2829"/>
    </g>
    <g>
      <path d="M30.7,253.1h.8l1.1.3a3.8,3.8,0,0,1,1.2.9,4.2,4.2,0,0,1,1.3,3.2v.7a3,3,0,0,1-.3,1.1,4.7,4.7,0,0,1-.9,1.2,4.6,4.6,0,0,1-3.1,1.3,4,4,0,0,1-1.5-.3l-.7-.3-.9-.7-.7-.9-.3-.7a3.3,3.3,0,0,1-.3-1.5,3.7,3.7,0,0,1,.3-1.5l.3-.7.7-.9a4.6,4.6,0,0,1,3.1-1.3m.1-3.1h-1a8.2,8.2,0,0,0-5.1,2.9l-1,1.7-.3,1-.2,1q-.1,1.3,0,1.5a7.2,7.2,0,0,0,1.3,3.9l5.7,7.4a.9.9,0,0,0,.7.3c.2,0,.4-.2.6-.4l5.8-7.6a7.9,7.9,0,0,0,1.2-4.1,7.6,7.6,0,0,0-2.3-5.4A7.4,7.4,0,0,0,30.8,250Z" fill="#8b2829"/>
      <path d="M33.2,270.5c0,.3-1.1.6-2.4.6s-2.3-.3-2.3-.6,1-.6,2.3-.6S33.2,270.1,33.2,270.5Z" fill="#8b2829"/>
    </g>
  </g>
</svg>
