<svg data-name="Layer 1" xmlns="http://www.w3.org/2000/svg" width="335" height="335.2" xmlns:xlink="http://www.w3.org/1999/xlink" viewBox="0 0 335 335.2"><defs><radialGradient id="a" cx="167.5" cy="911.7" fx="167.5" fy="911.7" r="167.5" gradientTransform="translate(0 -744)" gradientUnits="userSpaceOnUse"><stop offset="0" stop-color="#400e6b" stop-opacity=".9"/><stop offset="1" stop-color="#231f20"/></radialGradient><radialGradient id="b" cx="288.3" cy="323.3" fx="288.3" fy="323.3" r=".5" gradientTransform="matrix(1 0 0 -1 0 336.4)" xlink:href="#a"/><radialGradient id="c" cx="287.3" cy="317" fx="287.3" fy="317" r=".5" gradientTransform="matrix(1 0 0 -1 0 336.4)" xlink:href="#a"/><radialGradient id="d" cx="286.4" cy="310.6" fx="286.4" fy="310.6" r=".5" gradientTransform="matrix(1 0 0 -1 0 336.4)" xlink:href="#a"/><radialGradient id="e" cx="285.4" cy="304.3" fx="285.4" fy="304.3" r=".5" gradientTransform="matrix(1 0 0 -1 0 336.4)" xlink:href="#a"/><radialGradient id="f" cx="294.6" cy="322.4" fx="294.6" fy="322.4" r=".5" gradientTransform="matrix(1 0 0 -1 0 336.4)" xlink:href="#a"/><radialGradient id="g" cx="293.6" cy="316" fx="293.6" fy="316" r=".5" gradientTransform="matrix(1 0 0 -1 0 336.4)" xlink:href="#a"/><radialGradient id="h" cx="292.6" cy="309.7" fx="292.6" fy="309.7" r=".5" gradientTransform="matrix(1 0 0 -1 0 336.4)" xlink:href="#a"/><radialGradient id="i" cx="291.7" cy="303.4" fx="291.7" fy="303.4" r=".5" gradientTransform="matrix(1 0 0 -1 0 336.4)" xlink:href="#a"/><radialGradient id="j" cx="300.8" cy="321.4" fx="300.8" fy="321.4" r=".5" gradientTransform="matrix(1 0 0 -1 0 336.4)" xlink:href="#a"/><radialGradient id="k" cx="299.9" cy="315.1" fx="299.9" fy="315.1" r=".5" gradientTransform="matrix(1 0 0 -1 0 336.4)" xlink:href="#a"/><radialGradient id="l" cx="298.9" cy="308.8" fx="298.9" fy="308.8" r=".5" gradientTransform="matrix(1 0 0 -1 0 336.4)" xlink:href="#a"/><radialGradient id="m" cx="298" cy="302.4" fx="298" fy="302.4" r=".5" gradientTransform="matrix(1 0 0 -1 0 336.4)" xlink:href="#a"/><radialGradient id="n" cx="307.1" cy="320.5" fx="307.1" fy="320.5" r=".5" gradientTransform="matrix(1 0 0 -1 0 336.4)" xlink:href="#a"/><radialGradient id="o" cx="306.2" cy="314.2" fx="306.2" fy="314.2" r=".5" gradientTransform="matrix(1 0 0 -1 0 336.4)" xlink:href="#a"/><radialGradient id="p" cx="305.2" cy="307.8" fx="305.2" fy="307.8" r=".5" gradientTransform="matrix(1 0 0 -1 0 336.4)" xlink:href="#a"/><radialGradient id="q" cx="304.3" cy="301.5" fx="304.3" fy="301.5" r=".5" gradientTransform="matrix(1 0 0 -1 0 336.4)" xlink:href="#a"/><radialGradient id="r" cx="263.1" cy="327.2" fx="263.1" fy="327.2" r=".5" gradientTransform="matrix(1 0 0 -1 0 336.4)" xlink:href="#a"/><radialGradient id="s" cx="262.2" cy="320.8" fx="262.2" fy="320.8" r=".5" gradientTransform="matrix(1 0 0 -1 0 336.4)" xlink:href="#a"/><radialGradient id="t" cx="261.2" cy="314.5" fx="261.2" fy="314.5" r=".5" gradientTransform="matrix(1 0 0 -1 0 336.4)" xlink:href="#a"/><radialGradient id="u" cx="260.3" cy="308.1" fx="260.3" fy="308.1" r=".5" gradientTransform="matrix(1 0 0 -1 0 336.4)" xlink:href="#a"/><radialGradient id="v" cx="269.4" cy="326.2" fx="269.4" fy="326.2" r=".5" gradientTransform="matrix(1 0 0 -1 0 336.4)" xlink:href="#a"/><radialGradient id="w" cx="268.5" cy="319.9" fx="268.5" fy="319.9" r=".5" gradientTransform="matrix(1 0 0 -1 0 336.4)" xlink:href="#a"/><radialGradient id="x" cx="267.5" cy="313.5" fx="267.5" fy="313.5" r=".5" gradientTransform="matrix(1 0 0 -1 0 336.4)" xlink:href="#a"/><radialGradient id="y" cx="266.5" cy="307.2" fx="266.5" fy="307.2" r=".5" gradientTransform="matrix(1 0 0 -1 0 336.4)" xlink:href="#a"/><radialGradient id="z" cx="275.7" cy="325.3" fx="275.7" fy="325.3" r=".5" gradientTransform="matrix(1 0 0 -1 0 336.4)" xlink:href="#a"/><radialGradient id="A" cx="274.7" cy="318.9" fx="274.7" fy="318.9" r=".5" gradientTransform="matrix(1 0 0 -1 0 336.4)" xlink:href="#a"/><radialGradient id="B" cx="273.8" cy="312.6" fx="273.8" fy="312.6" r=".5" gradientTransform="matrix(1 0 0 -1 0 336.4)" xlink:href="#a"/><radialGradient id="C" cx="272.8" cy="306.2" fx="272.8" fy="306.2" r=".5" gradientTransform="matrix(1 0 0 -1 0 336.4)" xlink:href="#a"/><radialGradient id="D" cx="282" cy="324.3" fx="282" fy="324.3" r=".5" gradientTransform="matrix(1 0 0 -1 0 336.4)" xlink:href="#a"/><radialGradient id="E" cx="281" cy="318" fx="281" fy="318" r=".5" gradientTransform="matrix(1 0 0 -1 0 336.4)" xlink:href="#a"/><radialGradient id="F" cx="280.1" cy="311.6" fx="280.1" fy="311.6" r=".5" gradientTransform="matrix(1 0 0 -1 0 336.4)" xlink:href="#a"/><radialGradient id="G" cx="279.1" cy="305.3" fx="279.1" fy="305.3" r=".5" gradientTransform="matrix(1 0 0 -1 0 336.4)" xlink:href="#a"/><radialGradient id="H" cx="21" cy="18.9" fx="21" fy="18.9" r="3.5" gradientTransform="matrix(1 0 0 -1 0 336.4)" xlink:href="#a"/><radialGradient id="I" cx="21" cy="25.1" fx="21" fy="25.1" r="3.5" gradientTransform="matrix(1 0 0 -1 0 336.4)" xlink:href="#a"/><radialGradient id="J" cx="17.5" cy="22" fx="17.5" fy="22" r="3.5" gradientTransform="matrix(1 0 0 -1 0 336.4)" xlink:href="#a"/><radialGradient id="K" cx="17.2" cy="22" fx="17.2" fy="22" r="2" gradientTransform="matrix(1 0 0 -1 0 336.4)" xlink:href="#a"/><radialGradient id="L" cx="41.5" cy="22" fx="41.5" fy="22" r="2.9" gradientTransform="matrix(1 0 0 -1 0 336.4)" xlink:href="#a"/><radialGradient id="M" cx="41.2" cy="22" fx="41.2" fy="22" r="1.7" gradientTransform="matrix(1 0 0 -1 0 336.4)" xlink:href="#a"/><radialGradient id="N" cx="30" cy="22" fx="30" fy="22" r="2.7" gradientTransform="matrix(1 0 0 -1 0 336.4)" xlink:href="#a"/><radialGradient id="O" cx="35.7" cy="22.1" fx="35.7" fy="22.1" r="2.6" gradientTransform="matrix(1 0 0 -1 0 336.4)" xlink:href="#a"/><radialGradient id="P" cx="46.5" cy="21.9" fx="46.5" fy="21.9" r="3" gradientTransform="matrix(1 0 0 -1 0 336.4)" xlink:href="#a"/><radialGradient id="Q" cx="53.1" cy="22.2" fx="53.1" fy="22.2" r="2.7" gradientTransform="matrix(1 0 0 -1 0 336.4)" xlink:href="#a"/><radialGradient id="R" cx="59.2" cy="22.2" fx="59.2" fy="22.2" r="3.1" gradientTransform="matrix(1 0 0 -1 0 336.4)" xlink:href="#a"/><radialGradient id="S" cx="65.7" cy="22.2" fx="65.7" fy="22.2" r="2.7" gradientTransform="matrix(1 0 0 -1 0 336.4)" xlink:href="#a"/><radialGradient id="T" cx="72.5" cy="22.2" fx="72.5" fy="22.2" r="3" gradientTransform="matrix(1 0 0 -1 0 336.4)" xlink:href="#a"/><radialGradient id="U" cx="80.1" cy="22.2" fx="80.1" fy="22.2" r="3.1" gradientTransform="matrix(1 0 0 -1 0 336.4)" xlink:href="#a"/><radialGradient id="V" cx="86.6" cy="22.2" fx="86.6" fy="22.2" r="2.7" gradientTransform="matrix(1 0 0 -1 0 336.4)" xlink:href="#a"/></defs><path d="M0 .2h335v335H0V.2Z" fill="url(#a)"/><path d="M83.7 321.3c.5 0 .4 1 .9 1s.5.3 1 .3.6-1.3 1-1.6c-.2 0-.3-.2-.6-.3-.5 0-.6.6-1.1.5-.5 0-.2-2.1-.7-2.1s-.7 1.4-1.1 1.7c.2.2.2.5.6.5Zm3.8 1.7c.5 0 .6-.5 1.1-.5s.6.4 1.1.4.7.2 1.2.1.2-1.5.7-1.6c.5 0 .8 1.6 1.3 1.5.5 0 .3-1.1.8-1.2.5 0 .4-.7.9-.8.5 0 .5-.3 1-.4s.8 1.2 1.3 1.1c.5 0 .3-1 .8-1.1s.8 1.2 1.3 1.1c.5 0 .2-1.5.7-1.6s.5-.2 1-.3c.5-.1.7.7 1.2.6.5 0 .3-1.1.8-1.2.5-.2.6.1 1.1 0 .5 0 .7 1.1 1.2 1 .5 0 .4-.7.9-.8.5 0 .6.4 1.1.3.5 0 .4-.5.9-.6s.3-1.1.8-1.2.8 1.2 1.3 1.1c.5 0 .4-.4.9-.5.5 0 .6.6 1.1.5.5 0 0-1.9.6-2 .5 0 .7 1 1.2.9s.6.2 1.1 0c.5 0 .4.1 1 0 .3 0 .5-.8.9-.8s.5-.8.9-.8h1c.3-.1.6-.6.9-.6s.9.6 1.2.6.4-1.6.7-1.6.8.1 1.1.1c.4-.1.9.5 1.2.5s.8.4 1.1.4.7-.3 1-.3.6-.5.9-.5.7-.3 1-.3.9.7 1.2.7.3-2.1.6-2.1.8.2 1.1.2c.3-.1.8.4 1.1.4s.8.2 1.1.2.4-1.3.7-1.3.8.2 1.1.2.4-1.4.7-1.4c.4-.1.7-.4 1-.4s1 1.1 1.3 1.1c.4-.2.8 0 1.1 0 .3-.1.7-.1 1-.1s.5-1 .8-1h1c.3 0 .6-.4.9-.4s.9.5 1.2.5.4-1.4.7-1.4c.4-.1 1 1.1 1.3 1.1.5 0 .6-1.6.7-1.7s.6-.4 1.1-.4.7 1.6 1.1 1.6.6-1.4.9-1.7c-.2 0-.5-.1-.7-.1-.4 0-.8-1.8-1.1-1.8s-.7 1.7-1 1.7-.9-1.6-1.2-1.6c-.5 0-1 .3-1.1.4s-.2 1.6-.7 1.7c-.3 0-.9-1.2-1.3-1.1-.3 0-.4 1.3-.7 1.4-.3 0-.8-.6-1.2-.6s-.6.4-1 .4h-1c-.3 0-.5.9-.8 1-.3 0-.7 0-1 .1-.3 0-.7-.2-1.1 0-.3 0-1-1.2-1.3-1.1-.3 0-.6.3-1 .4-.3 0-.4 1.3-.7 1.4-.3 0-.8-.3-1.1-.2-.3 0-.4 1.3-.7 1.4-.3 0-.8-.3-1.1-.3s-.8-.5-1.2-.4c-.3 0-.8-.3-1.1-.2-.3 0-.2 2-.6 2.1-.3 0-.9-.8-1.2-.7-.3 0-.6.3-1 .3s-.6.4-.9.5c-.3 0-.7.2-1 .3-.3 0-.8-.4-1.1-.4s-.9-.6-1.2-.6-.8-.2-1.1-.1c-.3 0-.3 1.6-.7 1.7-.3 0-.9-.7-1.2-.6-.3 0-.6.5-.9.6-.4 0-.7 0-1 .1-.4 0-.6.8-.9.8s-.6.8-.9.8h-1.1c-.5 0-.6-.2-1.1-.1s-.7-1-1.2-.9c-.5 0 0 1.9-.6 2-.5 0-.7-.6-1.2-.5-.5 0-.4.5-.9.6s-.8-1.2-1.3-1.1c-.5 0-.3 1.2-.8 1.3s-.4.5-.9.6-.6-.4-1.1-.3-.4.7-.9.9c-.5 0-.8-1.2-1.3-1.1s-.6-.2-1.1 0c-.5 0-.3 1.2-.8 1.3s-.7-.7-1.2-.6-.5.2-1 .3c-.5.1-.2 1.5-.7 1.6-.5 0-.8-1.3-1.3-1.1-.5.1-.3 1-.8 1.1-.5 0-.8-1.2-1.3-1.1s-.5.3-1 .4c-.5 0-.4.7-.9.8s-.3 1.1-.8 1.2c-.5 0-.8-1.6-1.4-1.5-.5 0-.2 1.5-.7 1.6s-.7 0-1.2 0H87c.2.5 0 1.9.5 1.9v-.2Zm63.2-12.8c.3 0 .6.2 1 .2s.6-.5 1-.5.6-.6 1-.6.6-1.1 1-1.1.7.5 1.1.5.6-.7 1-.7c-.2-.3-.4-.6-.7-.6s-.7-1.2-1.1-1.2-.7.7-1 .7-.7-.5-1.1-.5-.7 1.1-1 1.1-.7.6-1 .6-.7.5-1 .5h-.2c.3.3.6 1.6 1 1.6Zm183.6-21.7h-1c-.5 0-.4 1.6-.9 1.6s-.6-.6-1.1-.5c-.5 0-.5-.1-1 0-.5 0-.5.3-1 .4-.5 0-.5 1-1 1s-.6-1.5-1.1-1.5-.5.6-1 .6c0 0-.4 0-1.1-.1-.3 0-.5-1.3-.9-1.3s-.9 1.8-1.3 1.7c-.3 0-.5-1.3-.9-1.3s-.7.2-1.1.1c-.3 0-.8.6-1.1.5-.3 0-.5-1.5-.9-1.6-.3 0-.7.2-1.1.2s-.9 1.8-1.3 1.8-.6-.9-1-.9h-1.1c-.3 0-.6-1.1-.9-1.1s-.8.9-1.2.9h-1.1c-.3 0-.6-1.2-.9-1.3-.3 0-.9 1.3-1.2 1.3s-.7-.1-1-.1-.5-1.8-.9-1.8-.9 1.5-1.2 1.5-.5-1.8-.9-1.8-.8.9-1.2.9-.7-.3-1-.4c-.4 0-.7.2-1.1.2s-.6-.7-1-.8c-.4 0-.8.9-1.1.8-.4 0-.8.4-1.1.4h-1.1c-.4 0-.6-1.3-.9-1.3s-.8.7-1.1.6c-.4 0-.7-.2-1-.2s-.8.6-1.1.5c-.4 0-.5-2.1-.9-2.1s-.9 2-1.2 1.9c-.6 0-.7-.5-.8-.5s-.5 0-1.1.1c-.3 0-.6.5-1 .6h-1.1c-.3 0-.7-.6-1.1-.6s-.6.7-1 .8c-.3 0-.8-1.3-1.2-1.2-.3 0-.8-.6-1.1-.6s-.6.7-1 .7h-1c-.3 0-.7-.3-1.1-.3h-1c-.3 0-.6 1-.9 1s-.7-.3-1.1-.3-.7-.4-1.1-.3c-.3 0-.5 2.2-.8 2.3-.3 0-.9-1.6-1.2-1.6s-.5 1.8-.8 1.8h-1.1c-.3 0-.8-.9-1.1-.9s-.7-.3-1.1-.2c-.3 0-.5 1.5-.9 1.5s-.8-.5-1.1-.5-.6.5-1 .5-.8-1.4-1.2-1.3h-1c-.4 0-.7.4-1 .4s-.8-.6-1.1-.6-.6 1-.9 1-.7.4-1 .4-.8-.4-1.1-.3c-.4 0-.7.6-1 .6s-.8-.5-1.1-.4c-.7 0-.5 0-1 .2h-1.1c-.5.1-.7-.6-1.2-.5-.5.2-.2 1.1-.7 1.2-.5.2-.7-.5-1.2-.3s-.5 0-1 .2-.4.4-.9.5c-.5.2-.3.8-.8.9-.3.1-.7.2-1 .3-.5.2-.7-.4-1.2-.2s-.2 1.1-.7 1.2c-.5.2-.4.6-.9.7-.5.2-1.1-1.7-1.6-1.5s0 1.3-.6 1.5-.4.4-.9.6-.8-.9-1.3-.7c-.5.2-.6 0-1.1 0-.5.2 0 1.7-.5 1.9s-.3.7-.8.8c-.5.2-.6-.3-1.1-.2-.5.2-.7-.4-1.2-.2s-.9-1-1.4-.9c-.5.2-.3.9-.8 1.1s-.5.2-1 .3c-.5.2-.7-.4-1.2-.2s-.2 1.2-.7 1.4c-.5.2-.5 0-1 .2s-.7-.6-1.2-.5c-.5.2-.6-.3-1.1-.2-.5.2 0 1.6-.5 1.8-.5.2-.8-.9-1.3-.8-.5.2-.6-.2-1.1 0-.5.1 0 1.5-.7 1.6-.3 0-.5.9-.9.9s-.8-.6-1.2-.5c-.3 0-.9-1.1-1.3-1-.3 0-.3 1.7-.7 1.8-.3 0-.9-.8-1.2-.7-.3 0-.8-.7-1.2-.6-.3 0-.7-.1-1.1 0-.3 0-.4 1.6-.7 1.7-.3 0-.7-.1-1.1 0h-2.1c-.3 0-.8-.5-1.2-.5s-.7.2-1 .3c-.4 0-.3 1.9-.7 1.9s-.7 0-1 .2c-.4 0-1.1-1.8-1.4-1.8s-.7.3-1 .3c-.6 0-.7 1.2-.8 1.2s-.3.9-.9 1c-.3 0-.7-.3-1.1-.3s-.8-.4-1.1-.4-.6.9-.9 1c-.3 0-.8-.7-1.2-.6h-2.2c-.3 0-.7.2-1 .3-.3 0-.8-.7-1.2-.6-.3 0-.5 1.3-.9 1.3h-1.1c-.4 0-.8-.9-1.2-.9s-.6.9-.9 1c-.4 0-.7-.2-1.1 0-.4 0-.8-.5-1.1-.4h-1.1c-.4 0-.7.4-1 .5-.4 0-.5 1.2-.9 1.3-.4 0-.6.6-1 .7-.4 0-.9-1-1.2-1s-.7.6-1 .7c-.4 0-.9-1-1.2-.9-.7 0-.4 1.6-.9 1.6s-.5-1.5-1.1-1.5-.7-.2-1.1-.2-.6 1.9-1 1.9-.7-.8-1.1-.7c-.3 0-.7.5-1 .5s-.7-1.4-1.1-1.4-.7-.3-1.1-.3-.7 1.1-1 1.1-.7-.7-1.1-.7-.7.2-1.1.2-.7.6-1 .7c-.3 0-.7.9-1 .9h-1.1c-.3 0-.7-.2-1.1-.2s-.7-1.4-1.1-1.4h-1.1c-.4 0-.7.7-1 .8-.4 0-.7.5-1 .5s-.7-.4-1.1-.4h-1.1c-.4 0-.7 1.2-1 1.2s-.7-1-1.1-1-.7 1-1 1c.2.4.5.9.7.9.4 0 .8.8 1.1.8s.7-1 1-1 .8 1 1.1 1 .7-1.2 1-1.2h1c.3 0 .7.4 1 .4.3-.1.7-.5 1-.5s.7-.7 1-.7h1c.4 0 .8 1.4 1.1 1.4s.7.2 1 .2h1c.3 0 .7-.9 1-.9s.7-.6 1-.6.7-.2 1-.2.8.7 1.1.7.7-1.1 1-1.1.7.3 1 .3.8 1.4 1.1 1.4.7-.5 1-.5.8.7 1.1.7.7-1.8 1-1.8.7.2 1 .2c.7 0 .6 1.5 1.1 1.5s.2-1.6.9-1.6.8.9 1.2.9.6-.6 1-.6c.3-.1.8.9 1.2.9s.6-.7 1-.7.5-1.2.9-1.2.6-.5 1-.5h1.1c.3 0 .8.4 1.1.4.4-.1.8 0 1.1 0s.6-1 .9-1 .9.9 1.2.9h1.1c.4 0 .6-1.3.9-1.3.3-.1.8.6 1.1.6s.7-.3 1-.3h2.1c.3 0 .8.6 1.1.6s.6-.9.9-.9.8.4 1.1.4.8.3 1.1.3c.6-.1.8-1 .9-1s.2-1.1.8-1.2c.3 0 .6-.3 1-.3s1 1.8 1.4 1.8c.3-.1.6-.2 1-.2.4-.1.4-1.9.7-1.9s.7-.3 1-.3.8.5 1.1.5h2c.4-.1.8 0 1.1 0 .3-.1.4-1.7.7-1.7.4-.1.8 0 1.1 0 .4-.1.9.6 1.2.6s.9.7 1.2.7.4-1.8.7-1.8.9 1 1.2 1 .8.5 1.1.5.6-.9.9-.9c.6-.1.1-1.5.6-1.6.5-.2.6.2 1.1 0s.8.9 1.3.7c.5-.2 0-1.6.5-1.8.5 0 .6.4 1.1.2.5 0 .7.7 1.2.5s.5 0 1-.2c.4-.2 0-1.2.6-1.4.4-.2.6.4 1.1.2.3 0 .7 0 1-.3.4-.2.2-.9.7-1.1.4 0 .8 1.1 1.3.9.4-.2.6.4 1.1.2.5 0 .6.4 1.1.2.5 0 .3-.6.8-.8s0-1.7.5-1.9c.5 0 .6.2 1.1 0 .5 0 .8.9 1.3.7s.4-.4.9-.6c.5-.1.1-1.2.6-1.4.5 0 1 1.7 1.5 1.5.5 0 .4-.5.9-.7.5 0 .2-1 .7-1.2s.7.4 1.2.2c.3 0 .7-.1 1-.3.5 0 .3-.7.8-.9.5-.1.4-.3.9-.5s.5 0 1-.2.7.5 1.2.3c.5-.1.2-1 .7-1.2.5-.1.7.6 1.2.5s.5 0 1-.1c.5-.2.3-.2 1-.2s.7.4 1.1.4.6-.6 1-.6.7.3 1.1.3.6-.4 1-.4.6-1 .9-1 .8.6 1.1.6.7-.4 1-.4h1c.4-.1.9 1.3 1.2 1.3s.7-.5 1-.5.8.5 1.1.5c.4-.1.6-1.5.9-1.5s.8.2 1.1.2.8.9 1.1.9h1c.3 0 .5-1.8.8-1.8s.9 1.5 1.2 1.5.5-2.2.8-2.2.8.3 1.1.3.8.3 1.1.3.6-1 .9-1h1c.4 0 .8.3 1.1.3h1c.4 0 .7-.7 1-.7s.8.6 1.1.6.9 1.2 1.2 1.2.6-.8.9-.8.8.6 1.1.6h1c.4 0 .7-.6 1-.6.6-.1 1-.1 1.1-.1s.2.5.8.5.8-1.9 1.2-1.9.4 2.1.8 2.1c.3.1.7-.5 1.1-.5s.6.2 1 .2c.3.1.7-.6 1.1-.6s.5 1.3.9 1.3h1c.4 0 .7-.4 1.1-.4.3.1.8-.8 1.1-.8s.7.8 1 .8.8-.2 1.1-.2c.3.1.7.4 1 .4s.8-.9 1.1-.9.6 1.8.9 1.8.9-1.5 1.2-1.5.6 1.8.9 1.8.7.1 1 .1.9-1.3 1.2-1.3.6 1.2.9 1.2h1.1c.3 0 .8-.9 1.1-.9s.6 1.1.9 1.1h1.1c.3 0 .6.9.9.9s.9-1.7 1.2-1.7.8-.2 1.1-.2c.4.1.6 1.6.9 1.6s.8-.5 1.1-.5.8-.1 1.1-.1.6 1.3.9 1.3.9-1.7 1.2-1.7.6 1.3.9 1.3c.6.1 1 .1 1 .1.5 0 .5-.6 1-.6s.6 1.5 1.1 1.5.5-1 1-1 .5-.4 1-.4c.5-.1.5 0 1 0 .5-.1.6.5 1.1.5.5-.1.4-1.6.9-1.6h1c.5 0 .6 1.4 1.1 1.4s.4-1.7.9-1.7.2.1.3.3v-1.3c-.2-.4-.4-1.1-.7-1v.2ZM19.8 332.2c.5-.2.6.2 1.1.1.5-.2 0-1.5.6-1.6.5 0 .3-.8.8-.9.5-.2.6 0 1.1 0 .5-.1.3-.8.8-.9.5 0 1.1 1.8 1.6 1.7.4 0-.1-2.1.4-2.2.5 0 1 1.7 1.5 1.6s0-2 .5-2.1c.5-.2.8.9 1.3.8.5 0 .3-.7.8-.8.5-.2.3-.8.8-.9.5-.2.6 0 1.1 0 .5-.2.5-.1 1-.2.5-.2.4-.6.9-.7s.9 1.1 1.4 1c.5-.2.7.5 1.2.4.5-.2.2-1.1.7-1.2.5-.2.4-.4.9-.5.5-.2.4-.4.9-.5.5 0 .2-1 .7-1.1.5-.2 1 1.6 1.5 1.5.5-.2.4-.7.9-.8s.5-.3 1-.3.4.9.9.9c.5.1.6 0 1.1 0s.7-.7 1.2-.7c.5.1.4 1.2.9 1.2s.7-.9 1.2-.9.7-.7 1.2-.6.4.9.9.9.7 1 1.2.9.4-.7.9-.8.6.3 1.1.2c.5 0 .2-1.6.7-1.7s.9 1.9 1.4 1.7c.5-.2.2-1.7.7-1.8.5 0 .6.5 1.1.4s.6.4 1.1.3.3-1 .8-1.1c.5 0 .8 1.1 1.3 1 .3 0 .7 0 1-.2.5 0 .5-.2 1-.3.5 0 .4-.4.9-.5h1c.5-.1.2-1.4.7-1.5s.7.7 1.2.6c.5 0 .4-.4.9-.5s.4-.7.9-.8c.5 0 .8 1.3 1.3 1.3s.5.1 1 0c.5 0 .2-1.4.7-1.6s.4-.7.9-.8c.5-.1.8 1.2 1.3 1.1s.3-1.2.8-1.3c.5 0 .7.9 1.2.9s.6-1.2 1.1-1.2.4.6.9.6.4 1 .9 1c.5.1.6-.8 1.1-.8s.4 1 .9 1c.4.1.5-.3 1-.3s.5-.2.8-.4c-.2 0-.3-.2-.6-.2-.5 0-.4-1-.9-1.1-.5 0-.4-.6-.9-.7-.5 0-.6.6-1.1.6s-.6.4-1.1.3c-.5 0-.4-1-.9-1s-.6.9-1.1.8c-.5 0-.4-1-.9-1.1-.5 0-.4-.5-.9-.6-.5 0-.6 1.2-1.1 1.2s-.7-1.1-1.2-.9-.3 1.3-.8 1.4c-.5 0-.8-1.2-1.3-1.1s-.4.7-.9.8-.2 1.5-.7 1.6h-1c-.5 0-.8-1.4-1.3-1.3-.5 0-.4.7-.9.8s-.4.4-.9.5c-.5 0-.7-.7-1.2-.6s-.2 1.5-.7 1.6h-1c-.5.1-.4.4-.9.5s-.5.2-1 .3l-1 .2c-.5.1-.8-1.1-1.3-1s-.3 1-.8 1.1c-.5 0-.6-.4-1.1-.3-.5 0-.6-.5-1.1-.4s-.2 1.7-.7 1.8-.9-1.8-1.4-1.7-.2 1.6-.7 1.7-.6-.3-1.1-.2-.4.7-.9.8-.7-.9-1.2-.9-.4-.8-.9-.9c-.5 0-.7.7-1.2.6-.5 0-.7.9-1.2.9s-.4-1.1-.9-1.2c-.5 0-.7.8-1.2.8s-.6.1-1.1 0c-.5 0-.4-.9-.9-.9s-.5.2-1 .3-.4.6-.9.8c-.5 0-1-1.7-1.5-1.5-.5 0-.3 1-.8 1.2-.5 0-.5.3-1 .5-.5 0-.5.3-1 .5-.5 0-.2 1.1-.7 1.2-.5 0-.7-.6-1.2-.4-.5.1-.9-1.2-1.4-1-.5.1-.4.5-.9.7-.5.1-.5 0-1 .2-.5.1-.6-.2-1.1 0-.5.1-.3.8-.8.9-.5 0-.3.7-.9.8-.5 0-.8-1-1.3-.8-.5 0 0 2-.5 2.2-.5 0-1.1-1.7-1.6-1.6s0 2.1-.4 2.2c-.5.1-1.1-1.8-1.6-1.7-.5.1-.3.8-.8.9-.5 0-.6-.2-1.1 0-.5 0-.3.8-.8 1-.5 0-.1 1.4-.6 1.6.3 0 .5.4.9.3.5-.1.8 1 1.3.9Zm3.6 2.5c-.5.1-.7-.5-1.2-.3-.4 0-.4.6-.6.8h2.6c-.2-.3-.5-.6-.8-.5Zm-15.1-.9c.5-.1 1 1.4 1.5 1.3s.5-.3 1-.4c.5-.2.5-.3 1-.4s.6.3 1.1.2c.6-.1 0-1.6.6-1.7.5-.2.4-.7.9-.8.5-.1.8 1 1.3.9.5 0 .3-.9.8-1 .5 0 .3-.8.8-.9-.3 0-.4-.3-.8-.1-.5 0-.8-1-1.4-.9-.5.1-.7-.5-1.2-.3-.5.1-.3.8-.8.9-.5 0-.3.9-.8 1-.5 0-.9-1.1-1.4-.9-.5.1-.4.6-.9.8-.5.1 0 1.6-.6 1.7-.5.1-.6-.3-1.2-.2-.5.1-.5.2-1 .4-.5 0-.5.3-1 .4s-1-1.4-1.5-1.3 0 2-.5 2.1c-.5 0-1.1-1.9-1.6-1.7-.5 0 0 1.7-.6 1.8-.5 0-.5.2-1 .3-.4 0-.7-.6-1-.8v1h5.9c0-.5 0-.9.3-1 .3 0 .6.5.9 1h1c0-.6 0-1.3.3-1.4h-.1Z" fill="#fff"/><path d="M334.4 293.8c-.5 0-.4 2.2-.9 2.2s-.6-2.1-1.2-2c-.5 0-.4 1.6-.9 1.7-.5 0-.6-1.4-1.1-1.4h-1c-.5 0-.4 1.5-.9 1.5s-.5-.5-1-.5h-1c-.5 0-.5.3-1 .4-.5 0-.4 1-.9 1s-.6-1.5-1.1-1.4-.5.6-1 .6c0 0-.4 0-1-.1-.3 0-.5-1.2-.9-1.3-.3 0-.8 1.7-1.2 1.7s-.5-1.2-.9-1.3c-.3 0-.7.2-1 .1-.3 0-.7.5-1.1.5s-.5-1.5-.9-1.5-.7.2-1 .2-.9 1.8-1.2 1.7c-.3 0-.6-.9-.9-.9h-1c-.3 0-.6-1.1-.9-1.1s-.8.9-1.1.9-.7.1-1 0c-.3 0-.6-1.2-.9-1.2s-.8 1.3-1.2 1.3h-1c-.3 0-.5-1.7-.8-1.7s-.8 1.5-1.2 1.4c-.3 0-.5-1.7-.8-1.7s-.8.9-1.1.9-.7-.3-1-.3-.7.2-1 .2-.6-.7-.9-.8c-.3 0-.8.8-1.1.8s-.7.4-1.1.3h-1c-.3 0-.6-1.3-.9-1.3s-.8.6-1.1.6-.7-.2-1-.2-.8.6-1.1.5c-.4 0-.5-2-.8-2s-.9 1.9-1.2 1.9c-.6 0-.7-.5-.8-.5h-1.1c-.3 0-.6.5-1 .5h-1c-.3 0-.7-.6-1.1-.5-.3 0-.6.7-.9.7s-.8-1.2-1.1-1.2-.7-.6-1.1-.6-.6.7-.9.7h-1c-.3 0-.7-.3-1-.3h-1c-.3 0-.6 1-.9 1s-.7-.3-1-.3-.7-.4-1-.3c-.3 0-.4 2.2-.8 2.2s-.8-1.5-1.2-1.5-.5 1.7-.8 1.8h-1c-.3 0-.8-.9-1.1-.8-.3 0-.7-.2-1-.2s-.5 1.4-.9 1.5c-.3 0-.7-.5-1.1-.4-.3 0-.6.5-1 .5s-.8-1.3-1.1-1.3h-1c-.3 0-.6.4-1 .4s-.7-.6-1.1-.6-.6 1-.9 1-.6.4-1 .4-.7-.4-1-.3c-.4 0-.6.6-.9.6s-.8-.5-1.1-.4c-.6 0-.5 0-1 .2h-1c-.5.1-.7-.6-1.2-.5-.5.2-.2 1-.7 1.2s-.7-.5-1.2-.3-.5 0-1 .2-.4.4-.9.5c-.5.2-.3.7-.8.9s-.5.2-1 .3c-.5.2-.7-.4-1.1-.2-.5.2-.2 1-.7 1.2s-.4.5-.8.7c-.5.2-1-1.6-1.5-1.5-.5.2-.1 1.3-.6 1.4-.5.2-.4.4-.9.5-.5.2-.8-.8-1.3-.7-.5.2-.6 0-1 0-.5.2 0 1.7-.5 1.8-.5.2-.3.6-.8.8-.5.2-.6-.3-1.1-.2-.5.2-.6-.4-1.1-.2-.5.1-.8-1-1.3-.8s-.2.9-.7 1c-.3.1-.7.2-1 .3-.5.2-.6-.4-1.1-.2-.5.2-.2 1.2-.6 1.4-.5.2-.5 0-1 .2s-.7-.6-1.2-.5c-.5.2-.6-.3-1.1-.2-.5.2 0 1.6-.5 1.7-.5.2-.8-.9-1.3-.7s-.6-.2-1.1 0c-.5 0 0 1.4-.6 1.6-.3 0-.5.8-.8.9-.3 0-.8-.5-1.1-.5s-.9-1-1.2-1-.3 1.7-.7 1.8c-.3 0-.8-.8-1.2-.7-.3 0-.8-.6-1.1-.6h-1c-.3 0-.4 1.6-.7 1.7h-1c-.3 0-.7 0-1 .1h-1c-.3 0-.8-.5-1.1-.4-.3 0-.7.2-1 .3-.3 0-.3 1.8-.6 1.9-.3 0-.7 0-1 .2-.4 0-1.1-1.8-1.4-1.7-.4 0-.7.3-1 .3-.5 0-.7 1.1-.8 1.2-.1 0-.3.9-.9 1-.3 0-.7-.3-1.1-.3s-.7-.4-1.1-.4-.5.9-.9.9-.8-.7-1.1-.6h-2c-.3 0-.7.2-1 .3-.3 0-.8-.7-1.1-.6-.3 0-.5 1.2-.9 1.3h-1c-.3 0-.8-.9-1.2-.8-.3 0-.6.9-.9 1-.3 0-.7-.2-1.1-.1-.3 0-.8-.4-1.1-.4h-1c-.3 0-.6.4-1 .5-.3 0-.5 1.2-.9 1.2s-.6.6-.9.6-.8-1-1.2-.9c-.4 0-.6.6-.9.6s-.9-.9-1.2-.9c-.6 0-.3 1.5-.9 1.6-.5 0-.4-1.4-1.1-1.4s-.6-.2-1-.2-.6 1.8-1 1.8-.7-.7-1-.7-.7.5-1 .5-.7-1.4-1-1.4-.7-.3-1-.3-.7 1-1 1-.7-.7-1-.7-.7.2-1 .2-.7.6-1 .6-.7.9-1 .9h-1c-.3 0-.7-.2-1-.2s-.7-1.4-1-1.4h-1c-.3 0-.7.7-1 .7s-.7.4-1 .4-.7-.4-1-.4h-1c-.3 0-.7 1.2-1 1.2s-.7-1-1-1-.7 1-1 1-.7-.8-1-.8-.7-1.2-1-1.1c-.3 0-.7.7-1 .7s-.7-.5-1-.5-.7 1.1-1 1.1-.7.6-1 .6-.7.4-1 .5c-.4 0-.7-.2-1-.2s-.8-1.7-1.1-1.7-.6 1.6-.9 1.6-.8-1.6-1.1-1.5c-.5 0-.9.3-1.1.4-.2.1-.2 1.5-.7 1.6-.3 0-.9-1.2-1.3-1.1-.3 0-.4 1.3-.7 1.3s-.8-.6-1.1-.5c-.3 0-.6.4-.9.4h-1c-.3 0-.5.9-.8 1-.3 0-.7 0-1 .1-.3 0-.7-.2-1 0-.3 0-.9-1.2-1.3-1.1-.3 0-.6.3-.9.4-.3 0-.4 1.3-.7 1.4-.3 0-.8-.3-1.1-.2-.3 0-.4 1.2-.7 1.3-.3 0-.8-.3-1.1-.2-.3 0-.8-.5-1.1-.4-.3 0-.7-.2-1.1-.2s-.2 1.9-.6 2c-.3 0-.9-.7-1.2-.7s-.6.2-1 .3c-.3 0-.6.4-.9.5-.3 0-.6.2-1 .3-.3 0-.8-.4-1.1-.4s-.8-.6-1.1-.5c-.3 0-.7-.2-1.1 0-.3 0-.3 1.5-.7 1.6-.3 0-.9-.7-1.2-.6-.3 0-.6.5-.9.6-.3 0-.7 0-1 .1-.4 0-.5.7-.8.8-.4 0-.6.7-.8.8h-1c-.5 0-.6-.2-1.1-.1-.5 0-.7-.9-1.2-.8-.5 0 0 1.8-.6 1.9-.5 0-.6-.6-1.1-.5-.5 0-.4.4-.9.5-.5 0-.7-1.2-1.2-1.1-.5 0-.3 1.1-.8 1.2-.5 0-.4.5-.9.6-.5 0-.6-.4-1.1-.3-.5 0-.4.7-.8.8-.5 0-.7-1.1-1.2-1-.5 0-.5-.2-1 0-.5 0-.3 1.1-.8 1.2-.5 0-.6-.7-1.1-.6-.5 0-.5.2-1 .3-.5 0-.2 1.5-.7 1.6-.5 0-.8-1.2-1.2-1.1-.5 0-.3 1-.8 1.1-.5 0-.7-1.2-1.2-1.1-.5 0-.5.3-.9.4-.5 0-.4.7-.9.8-.5 0-.3 1-.8 1.1-.5 0-.8-1.6-1.3-1.5-.5 0-.2 1.5-.7 1.6-.5 0-.6-.1-1.1-.1s-.5-.3-1-.4c-.5 0-.6.5-1.1.5s-.2-2-.7-2.1c-.5 0-.7 1.8-1.2 1.7-.5 0-.5-.3-.9-.3s-.4-.9-.8-1c-.5 0-.4-.6-.9-.7-.5 0-.6.6-1.1.5-.5 0-.5.4-1 .3-.5 0-.4-.9-.8-1-.5 0-.6.8-1.1.8s-.4-1-.8-1-.4-.5-.9-.5-.6 1.1-1.1 1.2c-.5 0-.7-1-1.1-.9-.4 0-.3 1.2-.7 1.3-.4 0-.8-1.2-1.3-1.1s-.4.6-.9.7-.2 1.5-.7 1.6h-1c-.5 0-.8-1.4-1.3-1.3-.5 0-.4.7-.9.8s-.4.4-.9.5c-.5 0-.7-.7-1.1-.6s-.2 1.4-.7 1.5-.5 0-1 .1c-.5 0-.4.4-.9.5-.5 0-.5.2-1 .3s-.5 0-1 .2c-.5 0-.7-1.1-1.2-1-.5 0-.3 1-.8 1.1s-.6-.4-1.1-.3-.6-.5-1.1-.4c-.5 0-.2 1.6-.6 1.7-.4 0-.9-1.7-1.4-1.6s-.2 1.5-.7 1.7-.6-.3-1.1-.2-.4.7-.8.8c-.4 0-.7-.9-1.1-.9s-.3-.8-.9-.9c-.6 0-.6.7-1.1.6-.5 0-.7.9-1.2.8-.5 0-.4-1.1-.9-1.1s-.7.8-1.2.7c-.5 0-.5.1-1.1 0-.5 0-.4-.9-.9-.9s-.4.2-.9.3-.4.6-.8.7c-.5 0-1-1.6-1.5-1.5-.5 0-.2 1-.7 1.1s-.4.3-.9.5c-.5.1-.4.3-.9.5-.5.1-.2 1-.7 1.2-.5.1-.7-.5-1.2-.4-.5 0-.9-1.1-1.3-1-.5 0-.4.5-.9.6s-.5 0-1 .2c-.5.1-.6-.2-1.1 0-.5.1-.3.7-.8.9-.5 0-.3.7-.8.8s-.8-.9-1.3-.8c-.5 0 0 2-.4 2.1-.5.1-1-1.7-1.5-1.6-.5 0 0 2-.4 2.2-.5 0-1-1.8-1.5-1.6-.5.1-.3.7-.8.9-.5 0-.6-.2-1.1 0-.5 0-.3.8-.8.9-.4 0-.3.7-.4 1.2h309v-40.3c-.2-.5-.3-1.1-.6-1.1Z" fill="#e6e7e8"/><path d="M25.9 40.1c-.4.3-.7-.3-1.1 0h-.1c-.2.4.1 1.3-.3 1.5-.5.2-.3.5-.8.7-.5.3-.7-.2-1.2 0-.3.1-.6.3-.9.4-.4.3-.3.5-.8.7-.5.3-.9-.6-1.4-.4-.5.2 0 1-.5 1.2s-.4.3-.9.5c-.4.3-.3.5-.8.7-.4.3-.5 0-1 .3s-.3.5-.8.7c-.5.3-.5.2-1 .4s-.6 0-1.1.2-.8-.4-1.3-.2c-.3.3.4 1.8.3 2.3h.3c.5-.2.6 0 1.1-.2s.5 0 1-.4c.5-.2.3-.5.8-.7s.6 0 1-.3c.5-.2.4-.4.8-.7.5-.2.4-.3.9-.5s0-1 .5-1.2 1 .7 1.4.4c.5-.2.4-.4.8-.7.3-.1.6-.3.9-.4.5-.2.8.3 1.2 0 .5-.2.3-.5.8-.7s0-1.3.4-1.5c.5-.2.8.4 1.2 0 .5-.2 1 .7 1.4.5.5-.2-.2-2 .3-2.2-.3-.2-.6-.6-1-.4Zm-14.8 8.8h-.4c-.5.2-.1.9-.6 1.1-.3.2-.6.4-.9.5-.4.2-.6-.2-1.1 0-.6.3 0 .9-.6 1.2-.5.3-.8-.4-1.2 0-.4.3-.5 0-.9.4-.4.3-.6 0-1 .3-.3.3-.5.5-.8.7-.3.2 0 .8 0 1.3.2 0 .4 0 .7-.2.4-.3.5 0 1-.4.4-.3.8.4 1.2 0 .4-.3 0-.9.6-1.2.5-.2.7.2 1.2 0 .3-.1.6-.3.9-.5.5-.2.1-.9.6-1.1s.9.6 1.4.3c.5-.2-.4-1.9-.2-2.4ZM263.5.2h-.9c.2.1.4.4.7.3.1 0 .2-.2.2-.3ZM2.7 54.9c-.4.4-1.3-.7-1.7-.4-.4.3-.3.5-.7.8-.2.1-.3.3-.3.4v.7c.4 0 1.2.8 1.5.5.4-.3.6 0 1-.4.4-.3-.4-1.3 0-1.6 0 0 .2 0 .2-.2v.2Zm189.1-38.3c-.3.1-.5 1.7-.8 1.7s-.8-.8-1.1-.8h-1.1c-.3 0-.5 1.7-.8 1.7-.4.1-1-1.5-1.3-1.5-.3.1-.5 1.7-.8 1.7-.4.1-1-1.6-1.3-1.6s-.6.6-.9.6-.5 1.6-.8 1.6-.8-.6-1.1-.6-.6.9-.9.9-.8-.5-1.1-.5-.8-.6-1.1-.6-.6 1.1-.9 1.1-.9-1.2-1.2-1.2-.5 1.8-.8 1.8c-.3.1-.7 0-1 0-.6.1-.6-.6-1.1-.5s-.5-.2-1.1 0-.5.5-.9.6c-.3 0-.8-.1-1.1 0-.3 0-.8-.1-1.1 0-.3 0-.8-.1-1.1 0-.3 0-.5.5-.8.6-.3 0-.4.9-.7 1s-.3 1.2-.6 1.3c-.3.1-1.3-1.5-1.6-1.4-.3 0-.2 1.5-.5 1.6-.4 0-.7.2-1 .3-.4.1-.4 1-.7 1.1-.3.2-.7 0-1 .2-.4.1-1.4-1.6-1.7-1.5-.3.2 0 1.9-.3 2s-.6.4-.9.5c-.3.1-.6.3-.9.4-.4.2-1.4-1.4-1.7-1.3-.4.2-1 .8-1 .8s.4 1.2-.2 1.4c-.3 0-1-1.3-1.4-1.2-.3 0 0 1.8-.5 1.8s-.8-.4-1.1-.4c-.3.1-.4 1.2-.7 1.2-.3.1-1-1.1-1.3-1.1s-.4 1.4-.7 1.4c-.3.1-1-1.1-1.3-1.1s-.5.8-.8.8c-.3.1-.9-.6-1.2-.6s-.6.6-.9.6c-.4.1-.5 1.1-.8 1.1s-.6.4-.9.4-.9-.7-1.2-.7c-.3.1-.6.6-.9.6s-.7.3-1 .3-.7.2-1 .2-.5 1-.8 1-.9-.8-1.2-.8-.8-.2-1.1-.2-.6.7-.9.7-.4 1.6-.7 1.6h-1c-.3 0-.6.5-.9.5s-1.2-1.8-1.5-1.8-.4 1.5-.7 1.5-.9-.6-1.2-.6c-.3 0-.5.8-.8.8h-1c-.3 0-.3 1.6-.6 1.6s-.8-.4-1.1-.4c-.3 0-.8-.2-1.1-.2s-.4 1.2-.7 1.2c-.4 0-1.2-1.7-1.5-1.7-.3 0-.6.5-.9.5-.4 0-.5 1.1-.8 1.1s-.8-.2-1.1-.2c-.7.2-.4.3-.9.3s-.7.7-1.2.6c-.5-.2-.6 0-1.1 0-.5-.2-.4-.5-.9-.6-.5 0-.6.3-1.1.2-.3-.1-.7-.2-1-.3-.5-.2 0-1.5-.6-1.6-.5 0-.3-.8-.8-.9-.5-.2-.8 1-1.3.9-.5 0-.3-.9-.8-1h-1.1c-.5-.2-.2-1.2-.7-1.3-.5 0-.7.6-1.2.5-.5 0-.7.7-1.2.6-.6 0-.4-1.1-.9-1.1s-.5.2-1 .4c-.5 0-.3.5-.8.7-.5 0-.3.5-.8.7s-.7-.5-1.2-.3c-.4 0 0 1-.6 1.2-.4 0-1.1-1.9-1.6-1.7s-.5 0-1 .3c-.5 0-.3.7-.8.8-.5 0-.2.8-.7 1-.4.2-.7-.7-1.2-.5-.5 0-.2.8-.7 1-.5 0-.7-.5-1.2-.3-.5 0-.4.2-.9.4s-.3.7-.8.9-.4.3-.9.5-.6-.2-1.1 0-.5 0-1 .3c-.5 0-.4.3-.9.5-.3.1-.6.3-.9.4-.5.2-.5 0-1 .2s0 1.2-.6 1.4-1-1.3-1.5-1.4h-.2c-.5 0 .2 2-.3 2.2s-.8-.8-1.3-.6-.8-.8-1.3-.6 0 1.5-.5 1.7c-.5.3-.5 0-1 .3s-.5 0-1 .2c-.3 0-.7.2-1 .3-.5.2-.2 1-.7 1.2s-.9-1.2-1.4-1c-.5 0 0 1.3-.5 1.5-.4.2-.7-.7-1.2-.5h-1c-.5.2-.3.7-.8.9s-.3.6-.8.8-.5 0-1 .2-.8-.9-1.3-.7-.4.3-.9.5-.5-.5-1-.5-.2-.3-.7-.3-.8 2-1.3 2-.3-1.4-.8-1.4h-1c-.5 0-.7 1-1.2 1s0-2.4-.6-2.4-.7.9-1.2.9-.6.5-1.1.5-.2-1.8-.7-1.8-.7.8-1.2.8-.3-1.2-.8-1.2c-.4 0-.7 1.4-1.2 1.4s-.3-1.4-.8-1.4-.7 1.1-1.2 1.1-.4-.8-.9-.8-.6.3-1.1.3-.5-.4-1-.4-.3-1.2-.8-1.2-.8 1.6-1.3 1.6h-1c-.5 0-.2-2.2-.7-2.2s-.8 1.8-1.3 1.8-.4-.8-.9-.8h-1c-.5-.2-.5 0-1 0s-.3-1.3-.8-1.3-.6.8-1.1.8c-.5 0-.5-.4-1-.4s-.5-.4-1-.4-.4-.9-.9-.9h-1c-.5 0-.6.5-1.1.5s-.4-1-.9-1-.6.3-1.1.3-.5.2-1 .2-.4-.6-.9-.6-.6.6-1.1.6-.5-.3-1-.3-.6-1.1-1.1-1.1.2 1.9-.3 2.1h-.1c.3.3.4 1 .8 1s.5.2 1 .3c.5 0 .6-.7 1.1-.6.5 0 .4.6.9.7.5 0 .6-.2 1.1-.2s.6-.4 1.1-.3c.5 0 .4.9.9 1 .5 0 .6-.6 1.1-.5.5 0 .5-.2 1.1 0 .5 0 .4.8.9.9.5 0 .5.3 1 .4.5 0 .5.3 1 .4.5 0 .7-.9 1.2-.8.5 0 .3 1.2.8 1.3.5 0 .5-.2 1 0h1c.5 0 .4.7.9.8.5 0 .8-1.9 1.3-1.8.5 0 .2 2.2.7 2.2h1c.5 0 .8-1.7 1.3-1.6.5 0 .3 1.2.8 1.3.5 0 .5.3 1 .4.5 0 .6-.4 1.1-.3.5 0 .4.7.9.8.5 0 .7-1.2 1.2-1.1.5 0 .3 1.3.8 1.4.5 0 .8-1.5 1.3-1.5s.3 1.1.8 1.2c.5 0 .7-.9 1.2-.9s.2 1.8.7 1.9c.5 0 .6-.6 1.1-.5.5 0 .7-1 1.2-.9.5 0 0 2.3.7 2.4.5 0 .7-1.1 1.2-1.1h1c.5 0 .3 1.3.8 1.4.5 0 .9-2.1 1.4-2 .5 0 .2.4.7.3.5 0 .5.7 1 .5s.4-.3.9-.5.8.9 1.3.7.5 0 1-.2.3-.6.8-.8.3-.7.8-.9.5 0 1 0c.5-.2.8.7 1.3.5s0-1.4.5-1.5c.5-.2 1 1.2 1.4 1 .5-.2.2-1 .7-1.2.3-.1.7-.2 1-.3.5-.2.5 0 1-.2s.5 0 1-.3c.5-.2 0-1.5.5-1.7s.8.8 1.3.6.8.8 1.3.6-.2-2.1.3-2.3 1.1 1.6 1.6 1.5c.5-.2 0-1.2.6-1.4s.5 0 1-.2l1-.4c.5-.2.4-.4.9-.5.5-.2.5 0 1-.3s.6.2 1.1 0 .4-.3.9-.5.3-.7.8-.9.4-.3.9-.4c.5-.2.7.4 1.2.3.5-.2.2-.9.7-1 .5-.2.8.7 1.2.5.5-.2.2-.9.7-1.1.5-.2.3-.7.8-.8.5-.2.5 0 1-.3s1.2 1.9 1.7 1.7.2-1.1.6-1.3c.5-.2.7.5 1.2.3s.3-.6.8-.8.3-.6.8-.7c.5-.2.5-.4 1-.4s.4 1 .9 1.1c.5 0 .8-.7 1.3-.6.5 0 .7-.6 1.2-.5s.2 1.1.7 1.3h1.1c.5 0 .3.9.8 1 .5 0 .9-1.1 1.4-.9.5 0 .3.8.8.9.5 0 0 1.5.6 1.6s.5 0 1 .3c.5 0 .6-.4 1.2-.2.5 0 .4.4.9.6.5 0 .6-.2 1.1 0 .5 0 .7-.6 1.2-.6s.2 0 .9-.3c.3 0 .7.3 1.1.2.3 0 .4-1 .8-1.1.3 0 .6-.4.9-.5.3 0 1.1 1.8 1.5 1.8s.4-1.2.7-1.3c.3 0 .8.3 1.1.2.3 0 .8.5 1.1.4.3 0 .3-1.6.6-1.7h1c.3 0 .5-.7.9-.8.3 0 .9.7 1.2.7s.3-1.5.7-1.5 1.1 1.9 1.5 1.8c.3 0 .6-.5.9-.6h1c.3 0 .3-1.5.7-1.6.3 0 .5-.7.9-.7s.8.3 1.1.2c.3 0 .9.9 1.3.9s.5-.9.8-1c.3 0 .7-.2 1-.2s.6-.2 1-.3c.3 0 .6-.5.9-.6.3 0 .9.8 1.2.7.3 0 .6-.3.9-.4.3 0 .4-1 .8-1.1.3 0 .6-.6.9-.6s.9.7 1.2.6c.3 0 .5-.7.9-.8.3 0 1 1.2 1.3 1.1.3 0 .4-1.4.7-1.4s1 1.2 1.3 1.1c.3 0 .4-1.1.7-1.2.3 0 .8.5 1.2.4.4 0 .2-1.8.5-1.9.4 0 1.1 1.3 1.4 1.2.6-.2.2-1.4.2-1.4s.6-.6 1.1-.8c.3 0 1.3 1.5 1.7 1.3.3-.1.6-.3.9-.4s.6-.4.9-.5c.3 0 0-1.9.3-2 .3 0 1.4 1.6 1.7 1.5.3 0 .7 0 1-.2.3 0 .3-1 .7-1.1.3-.1.7-.2 1-.3.3-.1.2-1.5.5-1.6.3 0 1.3 1.5 1.6 1.4s.3-1.2.6-1.3c.3-.1.4-.9.7-1s.5-.5.9-.6c.3 0 .8.1 1.1 0h2.2c.4 0 .6-.5.9-.6.6-.2.6 0 1.1 0 .5-.1.5.6 1.1.5.3 0 .7.2 1.1 0 .3 0 .4-1.8.8-1.8s.9 1.3 1.2 1.2c.3 0 .5-1.1.9-1.1s.8.6 1.1.6.8.6 1.1.5c.3 0 .6-.9.9-.9s.8.7 1.1.7.5-1.6.8-1.6.6-.6 1-.7c.3 0 .9 1.7 1.3 1.6.3 0 .5-1.6.8-1.7.3 0 .9 1.6 1.3 1.6s.5-1.6.8-1.7c.3 0 .7.2 1.1 0 .3 0 .8.9 1.2.8.2 0 .4-1.1.7-1.5-.3-.1-1-1.9-1.3-1.9h.1ZM274.7.2Zm.5 0c.2 0 .4.2.6 0h-.6Zm-35.8 7.9h-.5c-.4.2-.3.9-.7.9s-.6-.3-1.1-.2c-.5.2-.5.1-1 .2-.5.2-.6 0-1.1 0s-.5 0-1 .2c-.5 0-.1 1.9-.6 2-.5 0-.6-1.1-1.2-1-.3 0-.7-.4-1.1-.4s-.3 2.2-.7 2.2-.8-1.2-1.2-1.5h-.1c-.4.2-.5 1.7-.8 1.7s-.9-1-1.2-1c-.3.1-.7 0-1 0s-.8-.2-1.1-.2-.5 1.2-.8 1.2-.8-.3-1.1-.3c-.3.1-.8-.5-1.1-.5s-.7.5-1 .5c-.3.1-.6.8-.9.8-.3.1-.7.1-1 .1s-.6 1-.9 1-.7-1.1-1.1-1.5c0 0-.1 0-.2-.2-.3.2-.5 1.4-.8 1.4s-.8-.6-1.1-.6h-1c-.4.1-.4 1.9-.7 1.9s-.9-.6-1.2-.6c-.4.1-.8 0-1.1 0s-.8-.4-1.1-.4c-.4.1-.5 1.2-.8 1.2-.5.1-.5 1-.7 1s-.9-1.2-1.4-1.1c-.3 0-.5.7-.9.7s-.5.9-.9.9c-.3.1-.8-.8-1.2-.8s-.8-.3-1.1-.3-.7.4-1 .4-.6.7-.9.7-.8-.4-1.1-.4-.6.8-.9.8-.5.5-.7.8c.3.3.9 1.8 1.2 1.8s.6-.9.9-.9.6-.7.9-.8c.3 0 .8.4 1.1.4s.6-.7.9-.7.7-.3 1-.4c.4 0 .8.3 1.1.3s.9.9 1.2.8c.4 0 .6-.9.9-.9s.6-.6.9-.7c.5-.1 1.3 1.2 1.4 1.1.2 0 .2-.9.7-1 .3 0 .4-1.1.8-1.2.3 0 .8.5 1.1.4.3 0 .7.2 1.1 0 .3 0 .8.7 1.2.7s.4-1.9.7-1.9h1.1c.3 0 .8.7 1.2.6.3 0 .5-1.3.8-1.4.3 0 1 1.8 1.3 1.7.3 0 .5-.9.9-1h1c.3 0 .6-.7.9-.8.3 0 .6-.5 1-.5s.8.6 1.1.5c.3 0 .8.3 1.1.3s.5-1.2.8-1.2.7.2 1.1.2h1.1c.4 0 .9 1 1.2 1s.4-1.6.8-1.7c.4 0 1 1.7 1.3 1.6.4 0 .4-2.2.7-2.3.4 0 .8.5 1.1.4.7-.1.7 1.1 1.2 1s.1-1.9.6-2l1-.2c.5 0 .6.2 1.1 0q.5 0 1-.2c.5 0 .6.3 1.1.2.4 0 .3-.7.7-.9-.5 0-.8-1.3-1.2-1.7ZM197 15.9c-.3 0-.5 1.3-.8 1.3-.3.1-.8-.6-1.1-.6s-.5 1.6-.8 1.6-.5.2-.7.3c.3.4.9 1.9 1.1 1.8.3 0 .6-.3 1-.4.3 0 .5-1.5.8-1.6.3 0 .8.7 1.1.6.2 0 .4-.8.6-1.2-.3 0-.7-1.2-1.1-1.6v-.2ZM269.7.4c-.5 0-.4.3-.9.5s-.4.5-.9.7c-.5.2-.5 0-1 .2-.4.2-1-1.5-1.5-1.3s0 1.4-.5 1.6-.7-.6-1.2-.4-.7-.6-1.2-.4c-.5.1 0 1.3-.5 1.5s-.3.7-.8.9-1.1-1.7-1.6-1.5c-.4.2.1 1.7-.4 1.9-.5.2-.8-.8-1.3-.6s-.6-.2-1.1 0c-.4 0 0 1-.6 1.2h-2c-.5 0 0 1.4-.5 1.6-.4.2-.7-.6-1.2-.4s-.7-.6-1.2-.5c-.5.2 0 1.6-.6 1.7-.5 0-.8-1.4-1.3-1.3s0 1.9-.6 2-.9-1.4-1.4-1.3h-1.1c-.5 0-.3 1.1-.8 1.2-.5 0-.4.8-.9.9-.5.1-.7-.6-1.2-.5-.5.2-.6-.2-1.1 0-.5 0-.3.9-.8 1-.4 0-.4.3-.7.5.5 0 1 1.9 1.5 1.8.5 0 .4-.5.9-.6s.3-.9.8-1 .6.3 1.1 0c.5 0 .7.6 1.2.5.5 0 .4-.8.9-.9.5-.1.3-1.1.8-1.3h1.1c.5 0 .9 1.5 1.4 1.3.5-.1 0-1.9.6-2 .5 0 .9 1.4 1.4 1.3.5-.1 0-1.6.7-1.7.5 0 .7.7 1.2.5s.8.6 1.2.4c.5-.2 0-1.5.5-1.7.5-.2.6 0 1.1 0 .5-.2.6 0 1.1 0 .5-.2.2-1.1.7-1.3s.6.2 1.1 0 .8.8 1.3.6 0-1.7.4-1.9c.5-.2 1.2 1.7 1.6 1.6.5-.2.3-.7.8-.9.5-.2 0-1.4.5-1.6s.8.6 1.2.4c.5-.2.7.6 1.2.4s0-1.4.5-1.6 1.1 1.5 1.6 1.3.5 0 1-.2.4-.5.9-.7.4-.4.9-.5c.5-.2.2-.9.7-1.1.3 0 .3-.3.4-.5h-3.2s-.1.2-.2.2Z" fill="#fff"/><path d="M1.1 53.7c.4-.3.2-.6.5-.9.4-.3.3-.4.7-.8.4-.3 1.3.8 1.7.4.4-.3.6 0 .9-.4.4-.3-.4-1.2 0-1.6.3-.2.5-.4.8-.7.4-.3.6 0 1-.3s.5 0 .9-.4c.4-.3.7.4 1.2 0 .5-.3 0-.9.5-1.1.4-.2.7.2 1.1 0 .4-.2.5-.2.9-.5.4-.2.1-.9.6-1.1.4-.2.9.6 1.3.3.4-.2-.6-2.2-.2-2.4.4-.2.8.4 1.2.2s.6 0 1.1 0c.4-.2.5 0 1-.3.4-.2.3-.5.8-.7.4-.2.6 0 1-.3.4-.2.4-.4.8-.6.4-.2.4-.3.9-.5.4-.2 0-1 .5-1.2.4-.2.9.7 1.4.4.4-.2.3-.4.8-.7.4-.2.5-.2.9-.4s.7.3 1.2 0h.1c.2-.2.2-.4.6-.6.4-.2 0-1.2.4-1.5.4-.2.8.4 1.2 0 .4-.2.9.7 1.4.5.4-.2-.2-2 .3-2.1.5 0 .6 1 1.1 1.1.5 0 .5.2 1 .3.5 0 .6-.7 1.1-.6.5 0 .4.6.9.6s.5-.2 1-.2.6-.4 1.1-.3c.5 0 .4.9.9 1 .5 0 .6-.6 1.1-.5.5 0 .5-.2 1 0 .5 0 .4.8.9.9.5 0 .5.3.9.4.5 0 .4.3.9.4.5 0 .6-.8 1.1-.8s.3 1.2.8 1.3c.5 0 .5-.2 1 0h1c.5 0 .4.7.9.8.5 0 .8-1.8 1.3-1.7.5 0 .2 2.1.7 2.2h1c.5 0 .8-1.6 1.3-1.6s.3 1.2.8 1.2.5.3.9.4c.5 0 .6-.4 1.1-.3.5 0 .4.7.9.7s.7-1.2 1.2-1.1c.5 0 .3 1.3.8 1.4.5 0 .7-1.5 1.2-1.4.5 0 .3 1.1.8 1.2.5 0 .6-.9 1.1-.8.5 0 .2 1.7.7 1.8.5 0 .6-.6 1.1-.5.5 0 .7-1 1.1-.9.5 0 0 2.3.6 2.3s.7-1.1 1.2-1h1c.5 0 .3 1.3.8 1.3s.8-2.1 1.3-2c.5 0 .2.4.7.3.5 0 .5.7 1 .5s.4-.3.9-.5.8.9 1.3.7.5 0 1-.2.3-.6.8-.8.3-.7.8-.9.5 0 1 0c.5-.2.8.7 1.2.5.5-.2 0-1.3.5-1.5s.9 1.2 1.4 1 .2-1 .7-1.2l.9-.3c.5-.2.5 0 1-.2s.5 0 1-.3c.5-.2 0-1.5.5-1.6.5-.2.8.8 1.3.6.4-.2.7.5 1.1.6h.2c.5-.2-.2-2 .3-2.2s1.1 1.6 1.5 1.4c.5-.2 0-1.2.6-1.3.5-.2.5 0 1-.2.3-.1.6-.3.9-.4.5-.2.4-.4.9-.5.5-.2.5 0 1-.3s.6.2 1.1 0 .4-.3.9-.5.3-.7.8-.8c.5-.2.4-.3.9-.4.5-.2.7.4 1.1.3.5-.2.2-.9.7-1 .5-.2.7.6 1.2.5.5-.2.2-.9.7-1s.3-.7.8-.8c.5-.2.5 0 1-.3s1.2 1.8 1.6 1.7c.5-.2.2-1.1.6-1.2.5-.2.7.4 1.1.3.4 0 .3-.6.8-.7.5-.2.3-.6.8-.7.5-.2.5-.4 1-.4s.3.9.8 1.1c.5.1.7-.7 1.2-.6.5 0 .7-.6 1.2-.5.5 0 .2 1.1.7 1.3.5 0 .6-.1 1.1 0 .5 0 .3.9.8 1 .5 0 .8-1.1 1.3-.9.5.1.3.8.8.9.5 0 0 1.4.6 1.6.3 0 .7.2 1 .3.5 0 .6-.3 1.1-.2.5 0 .4.4.9.6.5 0 .6-.2 1.1 0 .5 0 .7-.6 1.2-.6s.2 0 .9-.3c.3 0 .7.3 1.1.2.3 0 .4-1 .8-1.1.3 0 .6-.4.9-.5.3 0 1.1 1.8 1.4 1.7.3 0 .4-1.2.7-1.2s.7.3 1.1.2c.3 0 .8.5 1.1.4.3 0 .3-1.5.6-1.6h1c.3 0 .5-.7.8-.8.3 0 .8.7 1.2.6.3 0 .3-1.4.7-1.5.3 0 1.1 1.8 1.4 1.7.3 0 .6-.5.9-.5h1c.3 0 .3-1.5.7-1.5s.5-.6.8-.7c.3 0 .8.3 1.1.2.3 0 .9.9 1.2.8.3 0 .5-.9.8-1 .3 0 .6-.2 1-.2s.6-.2 1-.3c.3 0 .6-.5.9-.6.3 0 .9.8 1.2.7.3 0 .6-.3.9-.4.3 0 .4-1 .8-1.1.3 0 .5-.6.9-.6s.9.7 1.2.6c.3 0 .5-.7.8-.7s1 1.2 1.3 1.1c.3 0 .4-1.3.7-1.4.3 0 1 1.2 1.3 1.1.3 0 .4-1.1.7-1.2.3 0 .8.5 1.1.4.3 0 .2-1.7.5-1.8.4-.1 1.1 1.3 1.4 1.2.5-.2.2-1.4.2-1.4s.5-.6 1-.8c.3-.1 1.3 1.4 1.6 1.3s.6-.3.9-.4c.3 0 .6-.4.9-.5.3 0 0-1.8.3-1.9s1.3 1.6 1.6 1.5.7 0 1-.2c.3-.1.3-1 .7-1.1.3 0 .6-.2 1-.3.3 0 .2-1.4.5-1.6.3-.1 1.3 1.5 1.6 1.3.3 0 .3-1.2.6-1.3.3-.1.4-.9.7-1s.5-.5.8-.6c.3 0 .8.1 1.1 0h2c.4 0 .6-.5.8-.6.6-.2.6 0 1.1 0s.4.6 1.1.5h1c.3 0 .4-1.7.8-1.8.3 0 .8 1.3 1.2 1.2.3 0 .5-1.1.9-1.1s.8.6 1.1.6.7.6 1.1.5c.3 0 .6-.9.9-.9s.8.7 1.1.6c.3 0 .5-1.5.8-1.6.3 0 .6-.6.9-.6s.9 1.6 1.2 1.6.5-1.6.8-1.7c.3 0 .9 1.6 1.2 1.5.3 0 .5-1.6.8-1.6s.7.2 1 0c.3 0 .8.8 1.1.8s.5-1.6.8-1.6 1 1.9 1.3 1.9.6-.3 1-.4c.3 0 .5-1.5.8-1.5s.8.7 1.1.6c.3 0 .5-1.3.8-1.3s.8 1.2 1.1 1.7h.1c.3 0 .6-.8.9-.9.3 0 .6-.7.9-.8.3 0 .8.4 1.1.4s.6-.7.9-.7.6-.3 1-.4c.3 0 .7.3 1.1.3s.8.8 1.2.8.6-.8.9-.9c.4 0 .6-.6.9-.7.5-.1 1.3 1.1 1.4 1.1.2 0 .2-.9.7-1 .3 0 .4-1.1.8-1.2.3 0 .8.5 1.1.4.3 0 .7.2 1.1 0 .3 0 .8.7 1.1.6.3 0 .3-1.8.7-1.9h1c.3 0 .8.6 1.1.6s.5-1.3.8-1.3.7 1.1 1.1 1.5c0 .1.2.2.2.2.3 0 .5-.9.9-1h1c.3 0 .6-.7.9-.8.3 0 .6-.5.9-.5s.8.6 1.1.5c.3 0 .7.3 1.1.3s.5-1.2.8-1.2.7.2 1.1.2h1c.3 0 .9 1 1.2.9.3 0 .4-1.6.8-1.6s.8 1.2 1.2 1.5h.1c.4-.2.4-2.2.7-2.2s.8.5 1.1.4c.6 0 .7 1.1 1.2 1 .5 0 0-1.9.6-2 .3 0 .7 0 1-.2.5 0 .6.2 1.1 0q.5 0 1-.2c.5 0 .6.3 1.1.2.5 0 .3-.8.8-1 .4 0 .7 1.1 1.1 1.6 0 0 .2.2.3 0h.2c.3 0 .3-.4.7-.5.5 0 .3-.9.8-1s.6.2 1.1 0c.5 0 .7.6 1.2.5.5 0 .4-.8.9-.9s.3-1.1.8-1.2h1c.5 0 .8 1.4 1.3 1.3s.1-1.8.6-2c.5 0 .8 1.4 1.3 1.3.5 0 0-1.5.6-1.7.5 0 .7.7 1.2.5.5-.2.7.6 1.2.4s0-1.4.5-1.6c.5-.2.6 0 1 0 .5-.2.6 0 1 0 .5-.2.2-1.1.6-1.2.5-.2.6.2 1.1 0 .5-.2.8.8 1.3.6.5-.2 0-1.7.4-1.9.5-.2 1.1 1.7 1.6 1.5s.3-.7.8-.9c.3-.1.2-.6.3-1H0v54.8c.1 0 .3 0 .5-.3.4-.3.2-.6.6-.9Z" fill="#e6e7e8"/><path d="M288.2 322.8c.3 0 .5.1.6.4 0 .3-.1.5-.4.6s-.5-.1-.6-.4c0-.3.1-.5.4-.6Z" fill="url(#b)"/><path d="M287.2 316.5c.3 0 .5.1.6.4 0 .3-.1.5-.4.6-.3 0-.5-.1-.6-.4 0-.3.1-.5.4-.6Z" fill="url(#c)"/><path d="M286.3 310.2c.3 0 .5.1.6.4 0 .3-.1.5-.4.6-.3 0-.5-.1-.6-.4 0-.3.1-.5.4-.6Z" fill="url(#d)"/><path d="M285.3 303.8c.3 0 .5.1.6.4s-.1.5-.4.6-.5-.1-.6-.4c0-.3.1-.5.4-.6Z" fill="url(#e)"/><path d="M294.5 321.9c.3 0 .5.1.6.4s-.1.5-.4.6c-.3 0-.5-.1-.6-.4 0-.3.1-.5.4-.6Z" fill="url(#f)"/><path d="M293.5 315.6c.3 0 .5.1.6.4 0 .3-.1.5-.4.6s-.5-.1-.6-.4c0-.3.1-.5.4-.6Z" fill="url(#g)"/><path d="M292.6 309.2c.3 0 .5.1.6.4 0 .3-.1.5-.4.6-.3 0-.5-.1-.6-.4 0-.3.1-.5.4-.6Z" fill="url(#h)"/><path d="M291.6 302.9c.3 0 .5.1.6.4 0 .3-.1.5-.4.6-.3 0-.5-.1-.6-.4 0-.3.1-.5.4-.6Z" fill="url(#i)"/><path d="M300.8 321c.3 0 .5.1.6.4 0 .3-.1.5-.4.6-.3 0-.5-.1-.6-.4 0-.3.1-.5.4-.6Z" fill="url(#j)"/><path d="M299.8 314.6c.3 0 .5.1.6.4 0 .3-.1.5-.4.6-.3 0-.5-.1-.6-.4 0-.3.1-.5.4-.6Z" fill="url(#k)"/><path d="M298.9 308.3c.3 0 .5.1.6.4 0 .3-.1.5-.4.6-.3 0-.5-.1-.6-.4 0-.3.1-.5.4-.6Z" fill="url(#l)"/><path d="M297.9 301.9c.3 0 .5.1.6.4s-.1.5-.4.6c-.3 0-.5-.1-.6-.4s.1-.5.4-.6Z" fill="url(#m)"/><path d="M307.1 320c.3 0 .5.1.6.4s-.1.5-.4.6c-.3 0-.5-.1-.6-.4 0-.3.1-.5.4-.6Z" fill="url(#n)"/><path d="M306.1 313.7c.3 0 .5.1.6.4 0 .3-.1.5-.4.6-.3 0-.5-.1-.6-.4 0-.3.1-.5.4-.6Z" fill="url(#o)"/><path d="M305.1 307.3c.3 0 .5.1.6.4 0 .3-.1.5-.4.6-.3 0-.5-.1-.6-.4 0-.3.1-.5.4-.6Z" fill="url(#p)"/><path d="M304.2 301c.3 0 .5.1.6.4 0 .3-.1.5-.4.6-.3 0-.5-.1-.6-.4 0-.3.1-.5.4-.6Z" fill="url(#q)"/><path d="M263 326.7c.3 0 .5.1.6.4 0 .3-.1.5-.4.6-.3 0-.5-.1-.6-.4 0-.3.1-.5.4-.6Z" fill="url(#r)"/><path d="M262.1 320.3c.3 0 .5.1.6.4 0 .3-.1.5-.4.6-.3 0-.5-.1-.6-.4 0-.3.1-.5.4-.6Z" fill="url(#s)"/><path d="M261.1 314c.3 0 .5.1.6.4 0 .3-.1.5-.4.6-.3 0-.5-.1-.6-.4 0-.3.1-.5.4-.6Z" fill="url(#t)"/><path d="M260.2 307.7c.3 0 .5.1.6.4 0 .3-.1.5-.4.6-.3 0-.5-.1-.6-.4s.1-.5.4-.6Z" fill="url(#u)"/><path d="M269.3 325.7c.3 0 .5.1.6.4s-.1.5-.4.6c-.3 0-.5-.1-.6-.4 0-.3.1-.5.4-.6Z" fill="url(#v)"/><path d="M268.4 319.4c.3 0 .5.1.6.4 0 .3-.1.5-.4.6-.3 0-.5-.1-.6-.4 0-.3.1-.5.4-.6Z" fill="url(#w)"/><path d="M267.4 313.1c.3 0 .5.1.6.4 0 .3-.1.5-.4.6-.3 0-.5-.1-.6-.4 0-.3.1-.5.4-.6Z" fill="url(#x)"/><path d="M266.5 306.7c.3 0 .5.1.6.4 0 .3-.1.5-.4.6-.3 0-.5-.1-.6-.4 0-.3.1-.5.4-.6Z" fill="url(#y)"/><path d="M275.6 324.8c.3 0 .5.1.6.4 0 .3-.1.5-.4.6-.3 0-.5-.1-.6-.4 0-.3.1-.5.4-.6Z" fill="url(#z)"/><path d="M274.7 318.4c.3 0 .5.1.6.4 0 .3-.1.5-.4.6-.3 0-.5-.1-.6-.4 0-.3.1-.5.4-.6Z" fill="url(#A)"/><path d="M273.7 312.1c.3 0 .5.1.6.4 0 .3-.1.5-.4.6-.3 0-.5-.1-.6-.4 0-.3.1-.5.4-.6Z" fill="url(#B)"/><path d="M272.8 305.8c.3 0 .5.1.6.4 0 .3-.1.5-.4.6s-.5-.1-.6-.4.1-.5.4-.6Z" fill="url(#C)"/><path d="M281.9 323.8c.3 0 .5.1.6.4 0 .3-.1.5-.4.6-.3 0-.5-.1-.6-.4 0-.3.1-.5.4-.6Z" fill="url(#D)"/><path d="M281 317.5c.3 0 .5.1.6.4 0 .3-.1.5-.4.6-.3 0-.5-.1-.6-.4 0-.3.1-.5.4-.6Z" fill="url(#E)"/><path d="M280 311.2c.3 0 .5.1.6.4 0 .3-.1.5-.4.6s-.5-.1-.6-.4c0-.3.1-.5.4-.6Z" fill="url(#F)"/><path d="M279 304.8c.3 0 .5.1.6.4 0 .3-.1.5-.4.6s-.5-.1-.6-.4c0-.3.1-.5.4-.6Z" fill="url(#G)"/><path d="M5.6 117c0 .2-.2.4-.4.4s-.4-.2-.4-.4.2-.4.4-.4.4.2.4.4Zm5.4 0c0 .2-.2.4-.4.4s-.4-.2-.4-.4.2-.4.4-.4.4.2.4.4Zm5.4 0c0 .2-.2.4-.4.4s-.4-.2-.4-.4.2-.4.4-.4.4.2.4.4Zm5.4 0c0 .2-.2.4-.4.4s-.4-.2-.4-.4.2-.4.4-.4.4.2.4.4Zm-16.2 5.3c0 .2-.2.4-.4.4s-.4-.2-.4-.4.2-.4.4-.4.4.2.4.4Zm5.4 0c0 .2-.2.4-.4.4s-.4-.2-.4-.4.2-.4.4-.4.4.2.4.4Zm5.4 0c0 .2-.2.4-.4.4s-.4-.2-.4-.4.2-.4.4-.4.4.2.4.4Zm5.4 0c0 .2-.2.4-.4.4s-.4-.2-.4-.4.2-.4.4-.4.4.2.4.4Zm-16.2 5.4c0 .2-.2.4-.4.4s-.4-.2-.4-.4.2-.4.4-.4.4.2.4.4Zm5.4 0c0 .2-.2.4-.4.4s-.4-.2-.4-.4.2-.4.4-.4.4.2.4.4Zm5.4 0c0 .2-.2.4-.4.4s-.4-.2-.4-.4.2-.4.4-.4.4.2.4.4Zm5.4 0c0 .2-.2.4-.4.4s-.4-.2-.4-.4.2-.4.4-.4.4.2.4.4ZM5.6 133c0 .2-.2.4-.4.4s-.4-.2-.4-.4.2-.4.4-.4.4.2.4.4Zm5.4 0c0 .2-.2.4-.4.4s-.4-.2-.4-.4.2-.4.4-.4.4.2.4.4Zm5.4 0c0 .2-.2.4-.4.4s-.4-.2-.4-.4.2-.4.4-.4.4.2.4.4Zm5.4 0c0 .2-.2.4-.4.4s-.4-.2-.4-.4.2-.4.4-.4.4.2.4.4ZM5.6 95.6c0 .2-.2.4-.4.4s-.4-.2-.4-.4.2-.4.4-.4.4.2.4.4Zm5.4 0c0 .2-.2.4-.4.4s-.4-.2-.4-.4.2-.4.4-.4.4.2.4.4Zm5.4 0c0 .2-.2.4-.4.4s-.4-.2-.4-.4.2-.4.4-.4.4.2.4.4Zm5.4 0c0 .2-.2.4-.4.4s-.4-.2-.4-.4.2-.4.4-.4.4.2.4.4Zm-16.2 5.3c0 .2-.2.4-.4.4s-.4-.2-.4-.4.2-.4.4-.4.4.2.4.4Zm5.4 0c0 .2-.2.4-.4.4s-.4-.2-.4-.4.2-.4.4-.4.4.2.4.4Zm5.4 0c0 .2-.2.4-.4.4s-.4-.2-.4-.4.2-.4.4-.4.4.2.4.4Zm5.4 0c0 .2-.2.4-.4.4s-.4-.2-.4-.4.2-.4.4-.4.4.2.4.4Zm-16.2 5.4c0 .2-.2.4-.4.4s-.4-.2-.4-.4.2-.4.4-.4.4.2.4.4Zm5.4 0c0 .2-.2.4-.4.4s-.4-.2-.4-.4.2-.4.4-.4.4.2.4.4Zm5.4 0c0 .2-.2.4-.4.4s-.4-.2-.4-.4.2-.4.4-.4.4.2.4.4Zm5.4 0c0 .2-.2.4-.4.4s-.4-.2-.4-.4.2-.4.4-.4.4.2.4.4Zm-16.2 5.3c0 .2-.2.4-.4.4s-.4-.2-.4-.4.2-.4.4-.4.4.2.4.4Zm5.4 0c0 .2-.2.4-.4.4s-.4-.2-.4-.4.2-.4.4-.4.4.2.4.4Zm5.4 0c0 .2-.2.4-.4.4s-.4-.2-.4-.4.2-.4.4-.4.4.2.4.4Zm5.4 0c0 .2-.2.4-.4.4s-.4-.2-.4-.4.2-.4.4-.4.4.2.4.4Zm290.7 109.5c0 .2-.2.4-.4.4s-.4-.2-.4-.4.2-.4.4-.4.4.2.4.4Zm5.4 0c0 .2-.2.4-.4.4s-.4-.2-.4-.4.2-.4.4-.4.4.2.4.4Zm5.4 0c0 .2-.2.4-.4.4s-.4-.2-.4-.4.2-.4.4-.4.4.2.4.4Zm5.4 0c0 .2-.2.4-.4.4s-.4-.2-.4-.4.2-.4.4-.4.4.2.4.4Zm-16.2 5.3c0 .2-.2.4-.4.4s-.4-.2-.4-.4.2-.4.4-.4.4.2.4.4Zm5.4 0c0 .2-.2.4-.4.4s-.4-.2-.4-.4.2-.4.4-.4.4.2.4.4Zm5.4 0c0 .2-.2.4-.4.4s-.4-.2-.4-.4.2-.4.4-.4.4.2.4.4Zm5.4 0c0 .2-.2.4-.4.4s-.4-.2-.4-.4.2-.4.4-.4.4.2.4.4Zm-16.2 5.4c0 .2-.2.4-.4.4s-.4-.2-.4-.4.2-.4.4-.4.4.2.4.4Zm5.4 0c0 .2-.2.4-.4.4s-.4-.2-.4-.4.2-.4.4-.4.4.2.4.4Zm5.4 0c0 .2-.2.4-.4.4s-.4-.2-.4-.4.2-.4.4-.4.4.2.4.4Zm5.4 0c0 .2-.2.4-.4.4s-.4-.2-.4-.4.2-.4.4-.4.4.2.4.4Zm-16.2 5.3c0 .2-.2.4-.4.4s-.4-.2-.4-.4.2-.4.4-.4.4.2.4.4Zm5.4 0c0 .2-.2.4-.4.4s-.4-.2-.4-.4.2-.4.4-.4.4.2.4.4Zm5.4 0c0 .2-.2.4-.4.4s-.4-.2-.4-.4.2-.4.4-.4.4.2.4.4Zm5.4 0c0 .2-.2.4-.4.4s-.4-.2-.4-.4.2-.4.4-.4.4.2.4.4Zm-16.3-37.4c0 .2-.2.4-.4.4s-.4-.2-.4-.4.2-.4.4-.4.4.2.4.4Zm5.4 0c0 .2-.2.4-.4.4s-.4-.2-.4-.4.2-.4.4-.4.4.2.4.4Zm5.4 0c0 .2-.2.4-.4.4s-.4-.2-.4-.4.2-.4.4-.4.4.2.4.4Zm5.4 0c0 .2-.2.4-.4.4s-.4-.2-.4-.4.2-.4.4-.4.4.2.4.4Zm-16.2 5.3c0 .2-.2.4-.4.4s-.4-.2-.4-.4.2-.4.4-.4.4.2.4.4Zm5.4 0c0 .2-.2.4-.4.4s-.4-.2-.4-.4.2-.4.4-.4.4.2.4.4Zm5.4 0c0 .2-.2.4-.4.4s-.4-.2-.4-.4.2-.4.4-.4.4.2.4.4Zm5.4 0c0 .2-.2.4-.4.4s-.4-.2-.4-.4.2-.4.4-.4.4.2.4.4Zm-16.2 5.4c0 .2-.2.4-.4.4s-.4-.2-.4-.4.2-.4.4-.4.4.2.4.4Zm5.4 0c0 .2-.2.4-.4.4s-.4-.2-.4-.4.2-.4.4-.4.4.2.4.4Zm5.4 0c0 .2-.2.4-.4.4s-.4-.2-.4-.4.2-.4.4-.4.4.2.4.4Zm5.4 0c0 .2-.2.4-.4.4s-.4-.2-.4-.4.2-.4.4-.4.4.2.4.4Zm-16.2 5.3c0 .2-.2.4-.4.4s-.4-.2-.4-.4.2-.4.4-.4.4.2.4.4Zm5.4 0c0 .2-.2.4-.4.4s-.4-.2-.4-.4.2-.4.4-.4.4.2.4.4Zm5.4 0c0 .2-.2.4-.4.4s-.4-.2-.4-.4.2-.4.4-.4.4.2.4.4Zm5.4 0c0 .2-.2.4-.4.4s-.4-.2-.4-.4.2-.4.4-.4.4.2.4.4Z" fill="#fff"/><path d="M25 17.2c0 .3-.1.6-.3.8L21 21.7l-4-2.3v-2.3c0-.6.5-1.2 1.2-1.2s1.2.5 1.2 1.2v2.8l3.7-3.7c.5-.5 1.2-.5 1.7 0s.3.5.3.8" fill="url(#H)"/><path d="M23.8 28h-.4c-.1 0-.3-.1-.4-.3L19.3 24v2.8c0 .6-.5 1.2-1.2 1.2s-1.2-.5-1.2-1.2v-2.2l4-2.3 3.7 3.7c.7.7.2 2-.8 2" fill="url(#I)"/><path d="M20.8 21.9s0-.1-.1-.1l-1-.6-2.7-1.5-2.3-1.3h-.4v7c0 .1.1.3.3.3h.1l2.3-1.3 3.7-2.1v-.4h.1Zm-.8.1-2.8 1.7-1.8 1h-.3v-5.4c0-.1 0-.2.2-.2h.1l1.8 1 2.8 1.6s.1.1 0 .2Z" fill="url(#J)"/><path d="M19.1 22 17 23.2l-1.3.8h-.2v-4s0-.2.2-.2l1.3.8 2.1 1.2" fill="url(#K)"/><path d="m44.4 21.9-3.3-1.7-2-1c-.2 0-.4 0-.3.2v5.4c0 .2.3.3.4.2l2-1.1 3.2-1.7V22Zm-.8 0-2.5 1.3-1.5.8s-.3 0-.3-.1v-4.4l1.6.8 2.5 1.3v.3h.2Z" fill="url(#L)"/><path d="M42.9 22 41 23l-1.2.6h-.2v-3.3l1.2.6 1.9 1" fill="url(#M)"/><path d="M27.4 19.2h2.8c1.4 0 2.4.7 2.4 1.8s-1 1.9-2.4 1.9h-1.5v1.9h-1.3v-5.6Zm2.7 2.7c.7 0 1.1-.3 1.1-.8s-.5-.8-1.1-.8h-1.3v1.6h1.3Z" fill="url(#N)"/><path d="M38 23.8v1.1h-4.5v-5.6h1.3v4.5H38Z" fill="url(#O)"/><path d="m45.8 22.7-2.5-3.6h1.6l1.6 2.4 1.6-2.5h1.5l-2.4 3.6v2h-1.3v-2Z" fill="url(#P)"/><path d="M50.5 19.4h.7v3.1l3.2-3.2h.9l-2.6 2.6 2.9 3h-.9l-2.4-2.6-1 1V25h-.7v-5.6h-.1Z" fill="url(#Q)"/><path d="M56 22.2c0-1.6 1.5-2.9 3.2-3s3.2 1.3 3.3 2.9c0 1.6-1.4 3-3.2 3S56 23.8 56 22.2Zm5.7 0c0-1.3-1.2-2.3-2.5-2.3s-2.5 1.1-2.5 2.4 1.2 2.3 2.5 2.3 2.5-1.1 2.5-2.4Z" fill="url(#R)"/><path d="m63.4 24.2.4-.5c.5.5 1.2.8 2.1.8s1.5-.5 1.5-1-.6-.8-1.7-1.1c-1.3-.2-2.1-.6-2.1-1.6s.9-1.6 2.1-1.6 1.6.3 2.2.8l-.4.5c-.5-.4-1.2-.7-1.8-.7s-1.3.5-1.3 1 .6.8 1.7 1c1.2.2 2.1.6 2.1 1.6s-.7 1.6-2.2 1.7c-1 0-1.9-.3-2.5-.9Z" fill="url(#S)"/><path d="M69.4 19.4h.7l2.4 3.9 2.3-4h.7V25h-.6v-4.3l-2.3 4-2.4-3.9v4.3h-.7v-5.7Z" fill="url(#T)"/><path d="M76.9 22.2c0-1.6 1.5-2.9 3.2-3s3.2 1.3 3.3 2.9-1.4 3-3.2 3-3.3-1.3-3.3-2.9Zm5.7 0c0-1.3-1.2-2.3-2.5-2.3s-2.5 1.1-2.5 2.4 1.2 2.3 2.5 2.3 2.5-1.1 2.5-2.4Z" fill="url(#U)"/><path d="m84.3 24.2.4-.5c.5.5 1.2.8 2.1.8s1.5-.5 1.5-1-.6-.8-1.7-1.1c-1.3-.2-2.1-.6-2.1-1.6s.9-1.6 2.1-1.6 1.6.3 2.2.8l-.4.5c-.5-.4-1.2-.7-1.8-.7s-1.3.5-1.3 1 .6.8 1.7 1c1.2.2 2.1.6 2.1 1.6s-.7 1.6-2.2 1.7c-1 0-1.9-.3-2.5-.9Z" fill="url(#V)"/><g fill="#fff200"><path d="M173.2 172.8c0-2.9-2.5-5.2-5.7-5.2s-5.7 2.3-5.7 5.2.2 1.6.6 2.2v.2l3.9 7c.3.4.8.6 1.3.5.4 0 .7-.2.9-.5l3.8-6.7c.5-.8.8-1.7.8-2.7h.1Zm-5.7-3.1c1.9 0 3.4 1.4 3.4 3.1s-.2 1.2-.6 1.7l-.2.2c-.6.7-1.6 1.2-2.7 1.2-1.9 0-3.4-1.4-3.4-3.1s1.5-3.1 3.4-3.1Z"/><circle cx="126" cy="250.2" r="2.7"/><circle cx="143.9" cy="250.2" r="2.7"/><circle cx="161.8" cy="250.2" r="2.7"/><circle cx="179.7" cy="250.2" r="2.7"/><circle cx="197.7" cy="250.2" r="2.7"/><circle cx="215.6" cy="250.2" r="2.7"/><path d="M149.1 259.9h2.5V270h-2.5v-10.1Z"/></g></svg>