<svg data-name="Layer 1" xmlns="http://www.w3.org/2000/svg" width="335" height="335" xmlns:xlink="http://www.w3.org/1999/xlink" viewBox="0 0 335 335"><defs><linearGradient id="b" x1="167.5" y1="745" x2="167.5" y2="1080" gradientTransform="translate(0 -745)" gradientUnits="userSpaceOnUse"><stop offset="0" stop-color="#fa0000"/><stop offset="0" stop-color="#cb0000"/><stop offset=".2" stop-color="#950000"/><stop offset=".4" stop-color="#680000"/><stop offset=".5" stop-color="#420000"/><stop offset=".6" stop-color="#250000"/><stop offset=".8" stop-color="#100000"/><stop offset=".9" stop-color="#040000"/><stop offset="1"/></linearGradient><linearGradient id="a" x1="0" y1="1070.3" x2="335" y2="1070.3" gradientTransform="translate(0 -745)" gradientUnits="userSpaceOnUse"><stop offset="0" stop-color="#fedc0d"/><stop offset="1" stop-color="#fd9e04"/></linearGradient><linearGradient id="c" y1="1024.8" y2="1024.8" xlink:href="#a"/><linearGradient id="d" x1="219.6" y1="916" x2="326.8" y2="916" xlink:href="#a"/><linearGradient id="e" x1="16.2" y1="878.2" x2="30.3" y2="878.2" xlink:href="#a"/><linearGradient id="f" x1="16.2" y1="905.1" x2="30.3" y2="905.1" xlink:href="#a"/><linearGradient id="g" x1="245.9" y1="798.3" x2="290.8" y2="798.3" xlink:href="#a"/><linearGradient id="h" x1="281" y1="810" x2="326.7" y2="810" xlink:href="#a"/><linearGradient id="i" x1="53.4" y1="1398.7" x2="53.4" y2="1379.4" gradientTransform="rotate(-26.1 -1273.777 -91.354) scale(1 .5)" xlink:href="#a"/><linearGradient id="j" x1="324.1" y1="1047" x2="324.1" y2="1027.7" gradientTransform="rotate(7.2 4191.82 -66.652) scale(1 .5)" xlink:href="#a"/><linearGradient id="k" x1="471.9" y1="404.6" x2="471.9" y2="385.2" gradientTransform="rotate(44.5 581.736 -76.918) scale(1 .5)" xlink:href="#a"/><linearGradient id="l" x1="451.9" y1="415.8" x2="451.9" y2="396.5" gradientTransform="rotate(44.5 581.736 -76.918) scale(1 .5)" xlink:href="#a"/><linearGradient id="m" x1="-286.5" y1="1410.9" x2="-286.5" y2="1391.6" gradientTransform="rotate(-61.4 -579.276 -84.605) scale(1 .5)" xlink:href="#a"/><linearGradient id="n" x1="-699.2" y1="584.9" x2="-699.2" y2="565.6" gradientTransform="rotate(-125.9 -279.407 -65.854) scale(1 .5)" xlink:href="#a"/><linearGradient id="o" x1="-722.8" y1="346.8" x2="-722.8" y2="327.5" gradientTransform="rotate(-139.4 -245.382 -59.918) scale(1 .5)" xlink:href="#a"/><linearGradient id="p" x1="-303.6" y1="-543.8" x2="-303.6" y2="-563.1" gradientTransform="rotate(140.3 -57.623 14.181) scale(1 .5)" xlink:href="#a"/><linearGradient id="q" x1="-501.6" y1="-401.8" x2="-501.6" y2="-421.2" gradientTransform="rotate(165.5 -117.258 -5.67) scale(1 .5)" xlink:href="#a"/><linearGradient id="r" x1="-656.2" y1="-68.9" x2="-656.2" y2="-88.3" gradientTransform="rotate(-168.3 -175.846 -21.393) scale(1 .5)" xlink:href="#a"/></defs><path d="M0 0h335v335H0V0Z" fill="url(#b)"/><path d="M0 315.6h335V335H0v-19.4Z" fill="url(#a)"/><path d="M0 270.1h335v19.4H0v-19.4Z" fill="url(#c)"/><g fill="#fff"><path d="M31.1 19.1c0 .3-.1.6-.4.8l-3.8 3.8-4-2.3v-2.3c0-.6.5-1.2 1.2-1.2s1.2.5 1.2 1.2V22l3.7-3.7c.5-.5 1.2-.5 1.7 0s.4.5.4.9M29.9 30h-.5c-.2 0-.3-.1-.4-.3L25.3 26v2.9c0 .6-.5 1.2-1.2 1.2s-1.2-.5-1.2-1.2v-2.3l4-2.3 3.7 3.7c.8.8.2 2-.8 2m-3.1-6.1s0-.1-.1-.1l-1-.6-2.7-1.6-2.3-1.3c-.1 0-.3 0-.4.1v7c0 .1.1.3.3.3h.1l2.3-1.3 3.7-2.1v-.4Zm-.8.1s0 .1-.1.1l-2.9 1.7-1.8 1h-.3v-5.5c0-.1 0-.2.2-.2h.1l1.8 1 2.9 1.7s.1.1 0 .2Z"/><path d="m25.1 24-2.2 1.2-1.3.8h-.2v-4s0-.2.2-.2l1.3.8 2.2 1.2m25.6 0v-.1l-3.3-1.6-2-1c-.2 0-.3 0-.3.2v5.5c0 .2.3.3.4.2l2-1.1 3.2-1.7v-.4Zm-.8 0-2.5 1.5-1.6.8s-.3 0-.3-.1v-4.3c0-.1 0-.2.2-.2l1.6.8 2.6 1.3v.2Z"/><path d="m49.1 23.9-1.9 1-1.2.6h-.2v-3.3l1.2.6 1.9 1m-15.6-2.7h2.9c1.4 0 2.4.7 2.4 1.9s-1 1.9-2.4 2h-1.5v1.9h-1.3v-5.7h-.1Zm2.7 2.6c.7 0 1.1-.3 1.1-.8s-.5-.8-1.2-.8h-1.4v1.6H36Zm7.9 1.9v1.1h-4.5V21h1.3v4.6h3.2Zm8-1.1-2.5-3.6H51l1.6 2.5 1.6-2.5h1.5l-2.5 3.7v2.1h-1.4v-2.2Zm4.8-3.3h.7v3.1l3.2-3.2h1l-2.7 2.6 2.9 3.1h-.9l-2.5-2.6-1 1v1.7h-.7v-5.7Zm5.5 2.8c0-1.6 1.5-3 3.2-3s3.3 1.3 3.3 2.9-1.4 3-3.2 3-3.3-1.3-3.3-2.9Zm5.8 0c0-1.3-1.2-2.3-2.6-2.3s-2.5 1.1-2.5 2.4 1.2 2.4 2.6 2.3c1.4 0 2.5-1.1 2.5-2.4Zm1.7 2.1.4-.5c.5.5 1.2.8 2.1.8s1.5-.5 1.5-1-.6-.8-1.7-1.1c-1.3-.2-2.1-.6-2.1-1.6s.9-1.6 2.1-1.6 1.6.3 2.2.8l-.4.5c-.5-.5-1.2-.7-1.8-.7s-1.4.5-1.3 1c0 .6.6.8 1.7 1 1.2.2 2.1.6 2.1 1.6s-.7 1.6-2.2 1.7c-1 0-1.9-.3-2.5-.9Zm6.1-4.8h.7l2.4 4 2.3-4h.7V27h-.7v-4.3l-2.4 4-2.4-4V27h-.7v-5.7Zm7.6 2.8c0-1.6 1.5-3 3.2-3s3.3 1.3 3.3 2.9-1.4 3-3.2 3-3.3-1.3-3.3-2.9Zm5.8 0c0-1.3-1.2-2.3-2.6-2.3s-2.5 1.1-2.5 2.4 1.2 2.4 2.6 2.3 2.5-1.1 2.5-2.4Zm1.7 2.1.4-.5c.5.5 1.2.8 2.1.8s1.5-.5 1.5-1-.6-.8-1.7-1.1c-1.3-.2-2.1-.6-2.1-1.6s.9-1.6 2.1-1.6 1.6.3 2.2.8l-.4.5c-.5-.5-1.2-.7-1.8-.7s-1.4.5-1.3 1c0 .6.6.8 1.7 1 1.2.2 2.1.6 2.1 1.6s-.7 1.6-2.2 1.7c-1 0-1.9-.3-2.5-.9Z"/></g><path d="M273.2 117.4c-29.5 0-53.6 24-53.6 53.6s24 53.6 53.6 53.6 53.6-24 53.6-53.6-24-53.6-53.6-53.6Zm47.5 38c1.4 0 2.5 1.1 2.5 2.5s-1.1 2.5-2.5 2.5-2.5-1.1-2.5-2.5 1.1-2.5 2.5-2.5Zm-4.9-10.9c1.4 0 2.5 1.1 2.5 2.5s-1.1 2.5-2.5 2.5-2.5-1.1-2.5-2.5 1.1-2.5 2.5-2.5Zm-7.9-10.9c1.4 0 2.5 1.1 2.5 2.5s-1.1 2.5-2.5 2.5-2.5-1.1-2.5-2.5 1.1-2.5 2.5-2.5Zm-9.7-7.6c1.4 0 2.5 1.1 2.5 2.5s-1.1 2.5-2.5 2.5-2.5-1.1-2.5-2.5 1.1-2.5 2.5-2.5Zm-10.7-5c1.4 0 2.5 1.1 2.5 2.5s-1.1 2.5-2.5 2.5-2.5-1.1-2.5-2.5 1.1-2.5 2.5-2.5Zm-13.6-1.7c1.4 0 2.5 1.1 2.5 2.5s-1.1 2.5-2.5 2.5-2.5-1.1-2.5-2.5 1.1-2.5 2.5-2.5Zm-19.8 4.2c1.4 0 2.5 1.1 2.5 2.5s-1.1 2.5-2.5 2.5-2.5-1.1-2.5-2.5 1.1-2.5 2.5-2.5Zm-14.3 9.2c1.4 0 2.5 1.1 2.5 2.5s-1.1 2.5-2.5 2.5-2.5-1.1-2.5-2.5 1.1-2.5 2.5-2.5Zm-9.4 12.8c1.4 0 2.5 1.1 2.5 2.5s-1.1 2.5-2.5 2.5-2.5-1.1-2.5-2.5 1.1-2.5 2.5-2.5Zm-5 16.1c1.4 0 2.5 1.1 2.5 2.5s-1.1 2.5-2.5 2.5-2.5-1.1-2.5-2.5 1.1-2.5 2.5-2.5Zm0 21.1c-1.4 0-2.5-1.1-2.5-2.5s1.1-2.5 2.5-2.5 2.5 1.1 2.5 2.5-1.1 2.5-2.5 2.5Zm5 15.1c-1.4 0-2.5-1.1-2.5-2.5s1.1-2.5 2.5-2.5 2.5 1.1 2.5 2.5-1.1 2.5-2.5 2.5Zm9.4 11.1c-1.4 0-2.5-1.1-2.5-2.5s1.1-2.5 2.5-2.5 2.5 1.1 2.5 2.5-1.1 2.5-2.5 2.5Zm11.1 8.8c-1.4 0-2.5-1.1-2.5-2.5s1.1-2.5 2.5-2.5 2.5 1.1 2.5 2.5-1.1 2.5-2.5 2.5Zm15.4 4.4c-1.4 0-2.5-1.1-2.5-2.5s1.1-2.5 2.5-2.5 2.5 1.1 2.5 2.5-1.1 2.5-2.5 2.5Zm17.1 0c-1.4 0-2.5-1.1-2.5-2.5s1.1-2.5 2.5-2.5 2.5 1.1 2.5 2.5-1.1 2.5-2.5 2.5Zm14.6-6.2c-1.4 0-2.5-1.1-2.5-2.5s1.1-2.5 2.5-2.5 2.5 1.1 2.5 2.5-1.1 2.5-2.5 2.5Zm10.2-8.2c-1.4 0-2.5-1.1-2.5-2.5s1.1-2.5 2.5-2.5 2.5 1.1 2.5 2.5-1.1 2.5-2.5 2.5Zm-35.1 7.6c-24.4 0-44.2-19.8-44.2-44.2s19.8-44.2 44.2-44.2 44.2 19.8 44.2 44.2-19.8 44.2-44.2 44.2Zm43.1-19c-1.4 0-2.5-1.1-2.5-2.5s1.1-2.5 2.5-2.5 2.5 1.1 2.5 2.5-1.1 2.5-2.5 2.5Zm4.4-12.4c-1.4 0-2.5-1.1-2.5-2.5s1.1-2.5 2.5-2.5 2.5 1.1 2.5 2.5-1.1 2.5-2.5 2.5Zm1.5-12.4c-1.4 0-2.5-1.1-2.5-2.5s1.1-2.5 2.5-2.5 2.5 1.1 2.5 2.5-1.1 2.5-2.5 2.5Z" fill="url(#d)"/><circle cx="273.2" cy="170.9" r="41.9" fill="#fff"/><circle cx="273.2" cy="170.9" r="40" fill="#4ca4ff"/><path d="M22.5 138.9c-.4 0-.9-.1-1.2-.4-.4.2-.8.3-1.2.3-.9 0-1.8-.5-2.3-1.3h-.2c-.7 0-1.4-.6-1.4-1.3s0-.3.1-.5c-.6-.5-1-1.2-1-2 0-1.2.8-2.2 2-2.6 0-.7.6-1.3 1.4-1.3h.3c.6-.8 1.7-1.3 3-1.3h.6c.4-.4.9-.7 1.5-.7s1.4.4 1.8 1h.1c1.7 0 3 1.2 3.1 2.8.8.4 1.3 1.2 1.3 2.1s-1 2.2-2.3 2.4c-.6 1.2-2 1.9-3.5 1.9H24c-.3.5-1 .8-1.7.8h.2Zm-1.1-1.6.3.3c.2.2.5.3.8.3s.8-.2.9-.6v-.4h.6c.2.2.5.2.7.2 1.2 0 2.3-.6 2.7-1.6v-.3h.4c.9 0 1.6-.7 1.6-1.4s-.4-1-1-1.3H28v-.8c0-1-.9-1.8-2.1-1.8H25v-.4c-.2-.4-.6-.6-1-.6s-.7.2-.9.4l-.2.3h-.4c-.2-.1-.5-.2-.7-.2-1 0-2 .4-2.3 1.1l-.2.4-.4-.2h-.3c-.3 0-.4.2-.4.3l.4.8h-.7c-1 .3-1.7 1-1.7 1.9s.4 1.1.9 1.5l.8.4-.7.5s-.1 0-.1.2.1.2.4.2h.2l.5-.2.2.5c.3.6.9 1.1 1.5 1.1s.7-.1 1-.3l.4-.2h.1Z" fill="#fff"/><path d="M30.3 133.5c0-.8-.5-1.4-1.3-1.7v-.3c0-1.3-1.1-2.3-2.6-2.3H26c-.1-.6-.7-1-1.4-1s-1.1.3-1.3.7h-.8c-1.3 0-2.3.6-2.8 1.4-.1 0-.3-.1-.5-.1-.5 0-.9.4-.9.8s0 .3.1.4c-1.2.2-2.1 1.1-2.1 2.2s.5 1.5 1.2 1.9c-.2.1-.3.4-.3.6 0 .4.4.7.9.7s.3 0 .4-.1c.3.8 1.1 1.4 2 1.4s.9-.1 1.2-.4c.3.3.7.5 1.1.5.7 0 1.2-.4 1.4-.9h.8c1.5 0 2.7-.8 3.2-1.9 1.2 0 2.1-.9 2.1-1.9Z" fill="url(#e)"/><path d="M114.5 285c-.4 0-.8-.1-1.1-.3-1.2.6-2.6.2-3.3-.9h-.2c-.7 0-1.3-.5-1.3-1.2v-.5c-.6-.5-.9-1.2-.9-1.9 0-1.1.8-2.1 1.9-2.5 0-.7.6-1.3 1.4-1.3h.3c.6-.8 1.6-1.2 2.8-1.2h.6c.3-.4.9-.6 1.4-.6s1.4.4 1.7.9c1.6 0 2.9 1.2 2.9 2.6.8.4 1.2 1.1 1.2 2s-.9 2.1-2.2 2.3c-.6 1.1-1.9 1.8-3.3 1.8h-.5c-.3.5-.9.8-1.6.8Zm-1-1.6.3.3c.2.2.4.3.7.3s.8-.2.9-.5v-.4h.6c.2.1.5.2.7.2 1.1 0 2.2-.6 2.6-1.5v-.3h.4c.9 0 1.6-.6 1.6-1.3s-.4-1-.9-1.2h-.3v-.7c0-.9-.9-1.7-2-1.7h-.7v-.4c0-.3-.5-.6-1-.6s-.7.2-.8.4l-.2.3h-.3c-.2-.1-.5-.1-.7-.1-1 0-1.9.4-2.2 1l-.2.4-.4-.2h-.2c-.2 0-.4.1-.4.3l.4.7h-.7c-.9.3-1.6 1-1.6 1.8s.3 1.1.9 1.4l.7.4-.7.4c0 .2 0 .3.3.3h.2l.4-.2.2.5c.2.6.8 1 1.5 1s.6-.1.9-.3l.3-.2h-.3Z" fill="#fff"/><path d="M121.8 279.9c0-.7-.5-1.4-1.2-1.6v-.3c0-1.2-1.1-2.2-2.4-2.2h-.4c0-.5-.7-1-1.3-1s-1 .3-1.2.7h-.8c-1.2 0-2.2.5-2.6 1.3 0 0-.3-.1-.5-.1-.5 0-.9.4-.9.8v.4c-1.1.2-2 1.1-2 2.1s.5 1.5 1.1 1.8c-.2.1-.3.3-.3.6s.4.7.8.7.3 0 .4-.1c.3.8 1.1 1.3 1.9 1.3s.8-.1 1.2-.4c.2.3.6.5 1.1.5s1.2-.4 1.3-.9h.8c1.4 0 2.5-.8 3-1.8 1.1 0 2-.9 2-1.8Z" fill="#231f20"/><path d="M206.1 285c-.4 0-.8-.1-1.1-.3-1.2.6-2.6.2-3.3-.9h-.2c-.7 0-1.3-.5-1.3-1.2s0-.3.1-.5c-.6-.5-.9-1.2-.9-1.9 0-1.1.8-2.1 1.9-2.5 0-.7.6-1.3 1.4-1.3h.3c.6-.8 1.6-1.2 2.8-1.2h.6c.3-.4.9-.6 1.4-.6s1.4.4 1.7.9h.1c1.6 0 2.9 1.2 2.9 2.6.8.4 1.2 1.1 1.2 2s-.9 2.1-2.2 2.3c-.6 1.1-1.9 1.8-3.3 1.8h-.5c-.3.5-.9.8-1.6.8Zm-1-1.6.3.3c.2.2.4.3.7.3s.8-.2.9-.5v-.4h.6c.2.1.5.2.7.2 1.1 0 2.2-.6 2.6-1.5v-.3h.4c.9 0 1.6-.6 1.6-1.3s-.4-1-.9-1.2h-.4v-.7c0-.9-.9-1.7-2-1.7h-.8v-.4c-.1-.3-.5-.6-1-.6s-.7.2-.8.4l-.2.3h-.3c-.2-.1-.5-.1-.7-.1-1 0-1.9.4-2.2 1l-.2.4-.4-.2h-.2c-.2 0-.4.1-.4.3l.4.7h-.7c-.9.3-1.6 1-1.6 1.8s.3 1.1.9 1.4l.7.4-.7.4s-.1 0-.1.1.1.2.3.2h.2l.4-.2.2.5c.2.6.8 1 1.5 1s.6-.1.9-.3l.3-.2Z" fill="#fff"/><path d="M213.5 279.9c0-.7-.5-1.4-1.2-1.6v-.3c0-1.2-1.1-2.2-2.4-2.2h-.4c-.1-.5-.7-1-1.3-1s-1 .3-1.2.7h-.8c-1.2 0-2.2.5-2.6 1.3-.1 0-.3-.1-.5-.1-.5 0-.9.4-.9.8s0 .2.1.4c-1.1.2-2 1.1-2 2.1s.5 1.5 1.1 1.8c-.2.1-.3.3-.3.6s.4.7.8.7.3 0 .4-.1c.3.8 1.1 1.3 1.9 1.3s.8-.1 1.2-.4c.2.3.6.5 1.1.5s1.1-.4 1.3-.9h.8c1.4 0 2.5-.8 3-1.8 1.1 0 2-.9 2-1.8h-.1Z" fill="#231f20"/><path d="M22.5 165.8c-.4 0-.9-.1-1.2-.4-.4.2-.8.3-1.2.3-.9 0-1.8-.5-2.3-1.3h-.2c-.7 0-1.4-.6-1.4-1.3s0-.3.1-.5c-.6-.5-1-1.2-1-2 0-1.2.8-2.2 2-2.6 0-.7.6-1.3 1.4-1.3h.3c.6-.8 1.7-1.3 3-1.3h.6c.4-.4.9-.6 1.5-.6s1.4.4 1.8 1h.1c1.7 0 3 1.2 3.1 2.8.8.4 1.3 1.2 1.3 2.1s-1 2.2-2.3 2.4c-.6 1.2-2 1.9-3.5 1.9H24c-.3.5-1 .8-1.7.8h.2Zm-1.1-1.7.3.3c.2.2.5.3.8.3s.8-.2.9-.6v-.4h.6c.2.2.5.2.7.2 1.2 0 2.3-.6 2.7-1.6v-.3h.4c.9 0 1.6-.7 1.6-1.4s-.4-1-1-1.3H28v-.8c0-1-.9-1.8-2.1-1.8H25v-.4c-.2-.4-.6-.6-1-.6s-.7.2-.9.4l-.2.3h-.4c-.2-.1-.5-.2-.7-.2-1 0-2 .4-2.3 1.1l-.2.4-.4-.2h-.3c-.3 0-.4.2-.4.3l.4.8h-.7c-1 .3-1.7 1-1.7 1.9s.4 1.1.9 1.5l.8.4-.7.5s-.1 0-.1.2.1.2.4.2h.2l.5-.2.2.5c.3.6.9 1.1 1.5 1.1s.7-.1 1-.3l.4-.2h.1Z" fill="#fff"/><path d="M30.3 160.4c0-.8-.5-1.4-1.3-1.7v-.3c0-1.3-1.1-2.3-2.6-2.3H26c-.1-.6-.7-1-1.4-1s-1.1.3-1.3.7h-.8c-1.3 0-2.3.6-2.8 1.4-.1 0-.3-.1-.5-.1-.5 0-.9.4-.9.8s0 .3.1.4c-1.2.2-2.1 1.1-2.1 2.2s.5 1.5 1.2 1.9c-.2.1-.3.4-.3.6 0 .4.4.7.9.7s.3 0 .4-.1c.3.8 1.1 1.4 2 1.4s.9-.1 1.2-.4c.3.3.7.5 1.1.5.7 0 1.2-.4 1.4-.9h.8c1.5 0 2.7-.8 3.2-1.9 1.2 0 2.1-.9 2.1-1.9Z" fill="url(#f)"/><g fill="#fff"><path d="M25.5 186.7c3.1.1 5.5 1.5 7 4.3.5.9.7 1.9.8 2.9 0 1.2-.2 2.2-.7 3.3-.7 1.6-1.6 3.1-2.6 4.5-1.3 1.9-2.8 3.7-4.3 5.5q-.3.3-.6 0c-1.5-1.7-2.9-3.5-4.2-5.4-.9-1.2-1.7-2.5-2.3-3.8-.3-.6-.5-1.2-.8-1.8-.4-1.1-.4-2.2-.1-3.3.7-2.9 2.4-4.9 5.2-5.9.8-.3 1.6-.4 2.5-.4h.1Zm3.9 7.3c0-2.2-1.7-3.9-3.9-3.9s-3.9 1.7-3.9 3.9 1.6 3.9 3.9 3.9 3.9-1.9 3.9-3.9Z"/><path d="M25.4 210.2c1.9 0 3.6-.1 5.4-.5s1.7-.4 2.4-.9c.3-.2.7-.4.9-.7.3-.4.3-.8 0-1.2s-.7-.6-1.1-.9c-.8-.4-1.7-.7-2.6-.9l-1.8-.3h-.2s.2-.2.3-.2h.6c.8 0 1.6.2 2.4.3.8.2 1.7.4 2.4.8.5.2.8.6 1.1 1 .3.7.2 1.4-.2 2s-.9 1-1.5 1.4c-1.2.8-2.6 1.2-4 1.5-1 .2-2 .3-3 .4-2.3.1-4.6 0-6.8-.8-1.1-.4-2.2-.8-3.2-1.6-.4-.4-.8-.8-1-1.3-.3-.8 0-1.6.6-2.2.6-.5 1.2-.7 1.9-.9.9-.3 1.9-.4 2.8-.5H22c.1 0 .2 0 .2.2s-.1 0-.2 0c-1.5.2-3 .5-4.4 1.2-.4.2-.7.4-.9.7-.5.5-.5 1 0 1.5.4.4.9.6 1.4.9 1 .4 2 .6 3 .8 1.4.2 2.7.3 4 .3h.3Z"/></g><g fill-rule="evenodd"><path d="M280 47.1c-1.1 1-1.7 2.6-1.3 4.2.5 2.3 2.8 3.7 5.1 3.2 1.7-.4 3-1.8 3.3-3.6-.5 1.1-1.5 2-2.8 2.3-2.2.5-4.3-.9-4.8-3-.2-1.1 0-2.2.5-3m-23.5 5.4c.9.5 1.5 1.4 1.8 2.5.5 2.2-.9 4.3-3 4.8-1.3.3-2.5 0-3.5-.8 1 1.5 2.8 2.2 4.5 1.8 2.3-.5 3.7-2.8 3.2-5.1-.4-1.5-1.5-2.7-3-3.2m12.2 22.2.5-.5c1.1-1.2 2.9-1.6 4.4-1 1.1-1.2 2.9-1.6 4.4-1l.6.2-1.1-.7c-1.2-.8-2.8-.8-4-.2l-.3.2h-.3c-1.4 0-2.8.7-3.6 1.9l-.7 1.1h.1ZM261 63l1 1.6c2.5 4.1 6.9 5.8 10.6 4.2 4.1-.2 7.3-3.7 7.7-8.5l.2-1.9c-2.2 2.2-4.9 3.8-7.8 4.4l-1.4.3-1.4.3c-2.9.7-6 .5-8.9-.6m7.1-18.2c0 .5.1.9.2 1.4.3 2.7 1.6 5.1 3.6 6.9-1.5-2.4-2.9-5.1-3.8-8.3m-2.7.6c.5 3.3.5 6.3.1 9.1 1-2.5 1.1-5.2.3-7.8-.1-.4-.3-.9-.4-1.3m4.4 13 .9-.4c.6-.2.9-.8.9-1.4h.6l.4.2c.5.2 1.1 0 1.5-.2.4-.4.5-1 .3-1.5l-.2.3c-.1.3-.4.5-.7.6-.3 0-.6 0-.9-.2-.6-.5-1.4-.5-2 0-.4.2-.8.4-1.3.6h-1.4c-.7 0-1.5.3-1.8.9-.1.3-.4.5-.7.6-.3 0-.6 0-.9-.2l-.3-.2c0 .5.4 1 1 1.2s1.1 0 1.5-.4l.3-.3.5-.3c.2.6.8.9 1.4.9h.9v-.2Zm-8.4-12c-.5 1.8-2 3-3.9 3l.8.2c1.4.3 2.8-.3 3.5-1.5.4-.6.6-1.3.8-2 .3-1.1 1.3-1.9 2.5-1.9-1.7-.2-3.1.4-3.6 2.2M248.1 43l.8-.5c1.4-1 2.7-2.2 3.8-3.5l-.5.3c-1.5 1.1-2.8 2.3-4.1 3.7m15-8.2c0 .2 0 .4-.2.5s-.5.2-.7.2c-3.2-.3-6.6.9-8.5 3.1-1.2 1.4-2.6 2.8-4.2 4l-1.1.8c2-.8 3.9-1.8 5.3-3.2 2.1-2 5.4-3.2 8.6-3.2s.8-.2 1.1-.4.4-.6.2-.8l-.5-1Zm.5 7.4c-5.3-2.1-11.6 1.1-12.3 6.5 0-.3.2-.6.4-.8s.6-.3.9-.2c3.1.5 6.2-.9 8-3.5.5-.7 1.2-1.3 2-1.6l1-.4Zm9.3 1.3c-1.2-1.4-2.8-1.3-4.2-.4 1-.5 2.3-.2 3 .7.5.6 1 1 1.6 1.5 1.1.8 2.7.7 3.8-.2l.6-.5c-1.6.8-3.6.3-4.8-1m10.6-8.7c-1.7-.7-3.5-1.2-5.3-1.5h-.6c1.5.6 3.2 1.1 4.9 1.4h.9v.2h.1Zm-17.1-.9v1.2c0 .3.2.6.5.7h1.2c2.9-1.4 6.4-1.8 9.1-.9 1.9.6 4 .8 6.1.6l-1.3-.3c-2-.4-3.8-1-5.5-1.8-2.6-1.2-6.3-.8-9 .9-.2 0-.5.2-.7 0s-.4-.2-.4-.3m2.8 6.9h1c.9 0 1.7 0 2.5.5 2.7 1.5 6.1 1.4 8.7-.4.3-.2.6-.2.9-.2s.5.3.8.5c-2.9-4.6-10-4.7-13.9-.5m12-15.9c.2.6.4 1.1.7 1.7 1 2.5 1.7 5.2 2.1 7.9.4 2.5.4 5.2 1.8 6.9 3.9 4.6 6.6 9.9 4 15.6-2.5 5.5-4.5 11.1-5.9 16.9-.7 2.9-3.3 5.2-6.5 6.1-.7.2-1.4.3-2.1.3-.6.3-1.3.5-2 .7-3.3.7-6.6-.4-8.5-2.6-3.8-4.6-8-8.8-12.7-12.7-4.7-4-4.6-9.9-3.1-15.8.5-2.1-.6-4.5-1.4-7-.8-2.6-1.3-5.3-1.6-8v-1.8c10.9-5.7 22.7-8.4 35.2-8.1" fill="url(#g)"/><path d="M315.3 65.6c-1.5.4-2.7 1.5-3.1 3-.6 2.3.7 4.6 3 5.2 1.7.5 3.5-.2 4.6-1.6-1 .7-2.2 1-3.5.7-2.1-.6-3.4-2.8-2.8-4.9.3-1.1 1-1.9 1.9-2.5m-23.3-6.4c.5.9.7 2 .4 3.1-.6 2.1-2.8 3.4-4.9 2.8-1.2-.3-2.2-1.2-2.7-2.4.2 1.8 1.4 3.2 3.1 3.7 2.3.6 4.6-.7 5.2-3 .4-1.6 0-3.2-1.2-4.2m.3 25.3.6-.2c1.6-.5 3.3 0 4.4 1.2 1.6-.5 3.3 0 4.4 1.2l.5.5-.6-1.2c-.7-1.2-2-2-3.5-2h-.3l-.3-.2c-1.2-.7-2.8-.7-4 0l-1.1.7h-.1ZM291 70.3v1.9c.3 4.8 3.4 8.4 7.5 8.8 3.7 1.8 8.2.2 10.8-3.8l1-1.6c-3 .9-6.1 1-9 .2l-1.4-.4-1.4-.4c-2.9-.8-5.5-2.4-7.6-4.8m14.9-12.6c-.2.4-.3.9-.5 1.3-1 2.5-1 5.3 0 7.8-.2-2.9-.1-5.9.5-9.1m-2.7-.7c-1.1 3.1-2.5 5.8-4.2 8.1 2.1-1.7 3.5-4.1 3.9-6.7 0-.5.1-.9.2-1.4m-2.2 13.5h.9c.6 0 1.2-.2 1.4-.7l.5.4.2.3c.5.6 1.3.7 1.9.3.3-.2.5-.6.5-.9l-.3.2c-.3.2-.6.2-.9.2s-.6-.3-.7-.6c-.3-.7-1-1.1-1.8-1h-1.4c-.4 0-.9-.3-1.2-.6-.6-.4-1.4-.4-2 0-.3.2-.6.2-.9.2s-.6-.3-.7-.6v-.3c-.4.7-.1 1.5.5 1.8.3.2.7.2 1.1 0l.4-.2h.6c0 .6.3 1.1.8 1.4l.8.4.3-.3Zm-1.7-14.5c-1.2 1.3-3.2 1.7-4.8.8l.6.5c1 .9 2.6 1.1 3.8.3.6-.4 1.2-.8 1.6-1.4.8-.9 2-1.1 3.1-.5-1.4-.9-3-1.1-4.2.2m-10.3-9.1h.9c1.7-.3 3.4-.7 5-1.4h-.6c-1.8.4-3.6.8-5.3 1.4m17.1-.2c0 .2-.2.3-.4.3s-.5 0-.7-.2c-2.6-1.8-6.3-2.3-8.9-1.2-1.7.7-3.6 1.2-5.6 1.5l-1.3.2c2.1.3 4.3.2 6.1-.3 2.8-.8 6.3-.3 9.1 1.3.4.2.8.3 1.2.2.4 0 .6-.3.6-.7v-1.2h-.1Zm-3.1 6.9c-3.7-4.4-10.8-4.5-13.9 0 .2-.3.5-.5.8-.5s.6 0 .9.2c2.5 1.9 5.9 2.1 8.7.7.8-.4 1.6-.5 2.5-.5h1Zm7.6 5.8c-.4-1.8-1.8-2.4-3.5-2.3 1.2 0 2.1.9 2.4 2 .1.7.4 1.4.7 2 .6 1.2 2 1.9 3.4 1.6l.8-.2c-1.8 0-3.4-1.4-3.7-3.2m13.5-2.7c-1.2-1.4-2.5-2.7-3.9-3.9l-.5-.4c1 1.4 2.2 2.6 3.6 3.7l.8.6Zm-14.7-8.8-.6 1c-.1.3 0 .6.2.9s.7.4 1.1.5c3.2 0 6.4 1.4 8.5 3.5 1.4 1.4 3.1 2.6 5.1 3.4l-1-.9c-1.5-1.3-2.9-2.7-4-4.2-1.7-2.3-5.1-3.7-8.3-3.5-.2 0-.5 0-.7-.2s-.3-.4-.2-.5m-.8 7.4.9.4c.8.4 1.5.9 1.9 1.7 1.7 2.6 4.7 4.1 7.8 3.8.3 0 .6 0 .9.3.2.2.3.5.4.8-.4-5.4-6.6-8.9-12-7m18.1-8.4c0 .6-.1 1.2-.2 1.8-.3 2.7-1 5.4-1.9 7.9-.9 2.4-2.1 4.8-1.7 6.9 1.2 5.9 1.1 11.9-3.8 15.6-4.8 3.7-9.2 7.7-13.2 12.1-2 2.2-5.4 3.1-8.6 2.3-.7-.2-1.4-.4-2-.7-.7 0-1.4-.2-2.1-.4-3.2-.9-5.6-3.4-6.2-6.3-1.2-5.8-2.9-11.5-5.2-17.1-2.3-5.7.6-10.9 4.7-15.4 1.5-1.6 1.6-4.3 2.1-6.8.5-2.7 1.3-5.3 2.4-7.8l.7-1.7c12.5.2 24.1 3.3 35 9.6" fill="url(#h)"/></g><path d="M261.2 22.1c.3.5 0 1.2-.8 1.6s-1.5.2-1.7-.4l-3.6-7.4c-.3-.5 0-1.2.8-1.6.7-.3 1.5-.2 1.7.4l3.6 7.4Z" fill="url(#i)"/><path d="M283.7 20.8c0 .6-.8 1-1.5.9s-1.3-.6-1.2-1.2l1-8.1c0-.6.8-1 1.5-.9s1.3.6 1.2 1.2l-1 8.1Z" fill="url(#j)"/><path d="M318.1 36.6c-.4.4-1.2.3-1.7-.2s-.6-1.3-.2-1.7l5.8-5.9c.4-.4 1.2-.3 1.7.2s.6 1.3.2 1.7l-5.8 5.9Z" fill="url(#k)"/><path d="M299.6 26.9c-.4.4-1.2.3-1.7-.2s-.6-1.3-.2-1.7l5.8-5.9c.4-.4 1.2-.3 1.7.2s.6 1.3.2 1.7l-5.8 5.9Z" fill="url(#l)"/><path d="M243.4 28.9c.5.3.6 1.1.3 1.7s-1.1 1-1.6.7l-7.2-3.9c-.5-.3-.6-1.1-.3-1.7s1.1-1 1.6-.7l7.2 3.9Z" fill="url(#m)"/><path d="M245.9 70.4c.5-.3 1.2 0 1.7.5s.4 1.4 0 1.8l-6.6 4.8c-.5.3-1.2 0-1.7-.5s-.4-1.4 0-1.8l6.6-4.8Z" fill="url(#n)"/><path d="M259.8 82.1c.4-.4 1.2-.4 1.8 0s.7 1.3.4 1.7l-5.3 6.2c-.4.4-1.2.4-1.8 0s-.7-1.3-.4-1.7l5.3-6.2Z" fill="url(#o)"/><path d="M319.5 85.5c-.4-.4-.2-1.2.4-1.7s1.4-.5 1.8 0l5.2 6.3c.4.4.2 1.2-.4 1.7s-1.4.5-1.8 0l-5.2-6.3Z" fill="url(#p)"/><path d="M304.8 96.9c-.1-.6.3-1.2 1.1-1.4s1.5 0 1.6.7l2 7.9c.1.6-.3 1.2-1.1 1.4s-1.5 0-1.6-.7l-2-7.9Z" fill="url(#q)"/><path d="M288.6 98c.1-.6.8-.9 1.6-.8s1.3.8 1.1 1.3l-1.7 8c-.1.6-.8.9-1.6.8s-1.3-.8-1.1-1.3l1.7-8Z" fill="url(#r)"/></svg>