<svg xmlns="http://www.w3.org/2000/svg" xmlns:xlink="http://www.w3.org/1999/xlink" width="335" height="335">
  <defs>
    <linearGradient id="a" x1="-87.57" x2="-66.24" y1="13.2" y2="-351.82" gradientTransform="rotate(23.18 -1024.32 103.15)" gradientUnits="userSpaceOnUse">
      <stop offset="0" stop-color="#f0598a" stop-opacity="0"/>
      <stop offset=".16" stop-color="#f0598a" stop-opacity=".02"/>
      <stop offset=".32" stop-color="#f0598a" stop-opacity=".07"/>
      <stop offset=".48" stop-color="#f0598a" stop-opacity=".15"/>
      <stop offset=".64" stop-color="#f0598a" stop-opacity=".26"/>
      <stop offset=".8" stop-color="#f0598a" stop-opacity=".41"/>
      <stop offset=".96" stop-color="#f0598a" stop-opacity=".59"/>
      <stop offset="1" stop-color="#f0598a" stop-opacity=".65"/>
    </linearGradient>
    <linearGradient id="b" x1="-100.22" x2="-100.22" y1="439.15" y2="60.32" gradientTransform="rotate(-7.6 -675.92 171.35)" gradientUnits="userSpaceOnUse">
      <stop offset="0" stop-color="#00aac7" stop-opacity="0"/>
      <stop offset=".17" stop-color="#00aac7" stop-opacity=".02"/>
      <stop offset=".35" stop-color="#00aac7" stop-opacity=".08"/>
      <stop offset=".53" stop-color="#00aac7" stop-opacity=".19"/>
      <stop offset=".71" stop-color="#00aac7" stop-opacity=".34"/>
      <stop offset=".9" stop-color="#00aac7" stop-opacity=".52"/>
      <stop offset="1" stop-color="#00aac7" stop-opacity=".65"/>
    </linearGradient>
    <linearGradient xlink:href="#a" id="e" x1="-54.99" x2="-32.45" y1="158.38" y2="-227.3" gradientTransform="rotate(6.88 -1916.8 74.57)"/>
    <linearGradient xlink:href="#a" id="h" x1="238.77" x2="260.1" y1="-126.52" y2="-491.54"/>
    <linearGradient xlink:href="#b" id="i" x1="251.67" x2="251.67" y1="486.09" y2="107.26"/>
    <linearGradient xlink:href="#b" id="j" x1="12.64" x2="12.64" y1="85.2" y2="-303.24" gradientTransform="rotate(13.26 -1055.29 115.82) scale(1 .9)"/>
    <linearGradient xlink:href="#a" id="k" x1="297.45" x2="320" y1="115.85" y2="-269.83" gradientTransform="rotate(6.88 -1916.8 74.57)"/>
    <linearGradient xlink:href="#a" id="l" x1="81.39" x2="105.57" y1="957.67" y2="544" gradientTransform="rotate(-31.36 -940.24 488.43)"/>
    <linearGradient xlink:href="#a" id="m" x1="-44.88" x2="-24.98" y1="632.94" y2="292.48" gradientTransform="rotate(-21.03 -785.56 185.75)"/>
    <linearGradient xlink:href="#a" id="n" x1="-199.23" x2="-172" y1="-250.24" y2="-716.08" gradientTransform="rotate(41.65 -831.88 153.86)"/>
    <radialGradient id="c" cx="-191.42" cy="154.89" r="236.16" fx="-191.42" fy="154.89" gradientTransform="matrix(1 0 0 .72 6 0)" gradientUnits="userSpaceOnUse">
      <stop offset="0" stop-color="#00aac7" stop-opacity=".65"/>
      <stop offset=".06" stop-color="#00aac7" stop-opacity=".6"/>
      <stop offset=".37" stop-color="#00aac7" stop-opacity=".34"/>
      <stop offset=".64" stop-color="#00aac7" stop-opacity=".16"/>
      <stop offset=".86" stop-color="#00aac7" stop-opacity=".04"/>
      <stop offset="1" stop-color="#00aac7" stop-opacity="0"/>
    </radialGradient>
    <radialGradient xlink:href="#c" id="g" cx="162.25" fx="162.25"/>
    <clipPath id="d">
      <path fill="none" d="M-355 0h335v335h-335z"/>
    </clipPath>
    <clipPath id="f">
      <path fill="none" d="M0 0h335v335H0z"/>
    </clipPath>
  </defs>
  <g data-name="Layer 1">
    <g clip-path="url(#d)">
      <ellipse cx="-186.14" cy="111.41" fill="url(#c)" rx="237.04" ry="169.86"/>
      <path fill="url(#a)" d="m49.98 75.71 33.59 10.31-113.99 316.99-180.84-55.48L49.98 75.71z"/>
      <path fill="url(#b)" d="m-147.31-9.9 40.73-6.73L41.2 345.83l-223.27 21.35L-147.31-9.9z" opacity=".6"/>
      <path fill="url(#e)" d="m-23.17 2.09 41.53 3.59L35.2 380.3l-223.61-19.34L-23.17 2.09z" opacity=".4"/>
    </g>
    <path fill="#142b51" d="M0 0h334.97v334.98H0z"/>
    <g clip-path="url(#f)">
      <path fill="#006372" d="M334.04 298.18s-.42-5.8-.54-13.45c0 0-.68-1.71 0-4.61 0 0-1.87-14.75-2.81-21.58l1.02-.68-.12-1.59-1.56-.47s-.78-.18.18-1.28c0 0 1.02-3.12-.91-9.32 0 0-1.22-1.87-1.35-3.67 0 0-1.19-5.91-2.73-4.58 0 0-.46.02.47 2.64 0 0 .94 4.75-.45 3.95 0 0-.57.34-1.29-3.46 0 0-.62-6.46-2.33-5.44 0 0-.76-.18.43 7.85 0 0-.32 1.71-.87.25 0 0-.71-5.72-.72-7.84 0 0-1.13-2.05-1.92.99.02-.15.04-.29.07-.38 0 0-1.32-1.03-1.88 1.44 0 0-.68 4.7.61 8.06 0 0 .65 1.84-.87 1.31 0 0-1.18-4.74-3.77-3.69 0 0 .6 2.98 1.29 4.34 0 0 .63 1.44 5.54 5.72 0 0 2.24 2.15 1.74 3.44 0 0-1.14.57-1.07 1.63 0 0-.37.97 1.15 1.55 0 0 0 3.94-1.73 8.78 0 0-1.72 4.96-.55 14.8 0 0 .32.31-1.3 2.49 0 0-1.25 5.39-2.79 12.95-2.13-14.34-4.54-25.92-4.54-25.92.54-7.88 0-13.84 0-13.84-1.61-12.11-4.02-14.03-4.02-14.03-2.95-2.31-2.41.77-2.41.77 1.61 4.61.54 5 .54 5 0 2.69-1.61.77-1.61.77-2.68-1.73-5.36-11.34-5.36-11.34-3.22-3.27-1.88 4.03-1.88 4.03.8 3.07 1.88 6.15 1.88 6.15-.27 1.54-3.22-5-3.22-5-1.07-6.15-2.41-5.96-2.41-5.96-2.68.19-.8 7.3-.8 7.3.8 3.65 2.41 5.57 2.41 5.57.54 2.31-2.95-2.69-2.95-2.69l-2.15-6.15c-1.88-2.11-2.41.38-2.41.38 0 5.77 3.75 11.53 4.02 12.3.27.77.54 5.38.54 5.38-.54.58-4.02-.77-4.02-.77-4.83-2.88-9.12-1.73-9.12-1.73-3.22 1.73-.8 2.11-.8 2.11 1.34-.19 6.17 1.92 6.17 1.92a22.85 22.85 0 0 0 10.73 4.61c3.49.38 3.75 5.19 3.75 5.19.52 12.74-1.79 27.37-4.31 39.08-.24-1.82-.6-4.67-.72-5.88l.68-.2s.47-1-.23-3.11l-.86-.51s-.47-1.82-.37-5.92c0 0 .49-.38.07-3.67 0 0 1.25-3.62 1.29-7.92 0 0 .32-2.14.46-3.83 0 0 .13-1.17-2.67-11.36 0 0-1.72-1.55-2.51.44l1.04 6.77s.51 3.07-2.07 1.01c0 0-2.84-3.07-4.21-2.16 0 0-1.67.33-.46 2.16 0 0-1.94-.16-1.93.99l-2.98-3.58s-1.63-1.77-2.5-.08c0 0-.41.68.73 1.68l3.47 4.35s1.16 1.1 1.06 4.04c0 0 .34 2.99 1.74 8.35 0 0 .41.47.13 3.86 0 0-.19 4.32-.17 4.94l-1.38.29s-.42 1.21-.1 2.42c0 0 .36.27 1.34.66 0 0-1.85 9.17-3.88 18.66 2.81-36.58-5.94-45.14-5.94-45.14-.27-2.5-.27-9.22-.27-9.22l1.88-4.03c.27-2.69-1.34-.96-1.34-.96-.8.96-3.22 4.04-3.22 4.04-1.07-.96-2.68.19-2.68.19-1.88-.96-3.75-.19-3.75-.19l-.54-5c-1.61-2.88-2.41-.19-2.41-.19l-.18 8.65c.36 3.84-2.5-.26-2.5-.26-4.29-1.79-1.43 1.54-1.43 1.54 2.86 3.59 8.22 6.15 8.22 6.15 1.43 1.79 2.15 6.92 2.15 6.92.72 4.36 1.43 14.09 1.43 14.09a40.01 40.01 0 0 0-1.41 18.87l-1.06-2.15c-4.83-11.72-10.46-30.94-10.46-30.94.27-8.26-2.68-17.87-2.68-17.87-1.07-3.46-1.34-11.91-1.34-11.91-2.15-4.04-3.22-.19-3.22-.19.54 2.69.27 8.84.27 8.84-.54 2.69-1.61 1.35-1.61 1.35-1.61-2.69-4.56-11.53-4.56-11.53-3.22-3.07-3.49.58-3.49.58.27 2.88 4.29 11.53 4.29 11.53.8 2.69-2.15.58-2.15.58-5.09-1.15-2.41 2.88-2.41 2.88 1.07 3.07-.81 3.46-.81 3.46-3.1 2.59-1.91 6.19.15 9.24-.33.78-.55 1.45-.55 1.45-.28 1.49-1.47 2.98-1.47 2.98-2.2 5.04-1.65 7.68-1.65 7.68.69.96.04 1.07.04 1.07l-.52.12c.59-3.81.88-7.9.35-11.46 0 0 1.13-7.46.18-20.74 0 0 .33-.16 1.15-2.68 0 0 .62-2.64.14-8.53 0 0-.29-.62.98-3.7 0 0 1.69-4.8-.75-3.29 0 0-1.36 4.64-2.31 5.37 0 0-1.16 1.36-1.65-.4 0 0 .07-5.53-.06-7.32 0 0-.97-2.49-2.2-.19 0 0-.29 3-.66 5.55 0 0-.25 2.44-.94.79 0 0-1.25-2.5-1.34-3.01 0 0-.76-6.16-1.81-5.74 0 0-1.83-.42-1.02 5.8 0 0 1.25 2.5 1.28 3.47 0 0-.37 1-2.26-2.9 0 0-.59-5.76-2.33-4.31 0 0-1.17-.54.17 5.15 0 0 .44 1.51 1.97 3.05 0 0 1.64 7.34-.89 5.24 0 0-4.34-4.26-5.72-2.84 0 0-.05.78 4.7 5.26 0 0 3.17 2.69 4.74 3.45 0 0-.42 3.06-.97 7.82-1.16-.03-1.77 3.93-1.77 3.93-1.84 3.37-2.11 2.49-2.11 2.49.07-.85 1.28-3.01 1.28-3.01.99-5.43-.63-5.11-.63-5.11-.9-.39-1.85 4.99-1.85 4.99-.1.44-1.31 2.61-1.31 2.61-.68 1.43-.79-.72-.79-.72-.21-2.24-.33-4.88-.33-4.88-.97-2.05-1.93.12-1.93.12-.2 1.57-.38 6.42-.38 6.42-.51 1.54-1.46.31-1.46.31-.8-.66-1.78-4.76-1.78-4.76-2.07-1.38-.81 2.87-.81 2.87.97 2.73.69 3.27.69 3.27-.69 5.16-.27 7.48-.27 7.48.61 2.23.89 2.38.89 2.38-1.44 11.62-.78 18.18-.78 18.18a47.63 47.63 0 0 1-1.98 6.71l-1.49-2.7c1.4-11.86.56-30.78.56-30.78.91-11.63 1.22-23.3 1.22-23.3 1.86-2.89 1.73-4.32 1.73-4.32.08-2.22.7-6.09.7-6.09 1.86-5.6.11-4.09.11-4.09-1.89 2.04-3.2 4.71-3.2 4.71-2.07 1.72-1.55-9.46-1.55-9.46-1.16-2.53-2.19-.31-2.19-.31-.08 1.54-.78 8.99-.78 8.99-.46-2.59.33-10.22.33-10.22-2.06-1.6-3.42 4.81-3.42 4.81-.3.96-.27 4.53-.27 4.53-.64 1.08-.82-3.32-.82-3.32 1.49-5.66.75-5.16.75-5.16-2.22-1.84-3.78 5.44-3.78 5.44.18 2.36.68 5.2.68 5.2l-.41 1.74c.68 3.84-1.93-1.52-1.93-1.52-2.34-3.86-3.18-1.92-3.18-1.92.18 1 2.02 6.1 2.02 6.1a86.9 86.9 0 0 1 4.82 5.85c1.33 6.17-2.94 16.91-2.94 16.91a84.36 84.36 0 0 0-2.79 9.24s-2.6 8.32-4.53 17.02c.17-6.44.44-15.11.71-16.44l1.78-1.73-.45-1.49-2.01-.2-.63-2.23s3.18-4.12 3.57-7.03c0 0-.71-5.2-1.9-5.53 0 0-.94-.63-2.17-1.74 0 0-2.3-4.57-3.38-3.36 0 0-.28 1.47-.64.88 0 0-1.26-1.75-1.78-.5 0 0 1.1 4.24 1.17 5.65 0 0-.06 2.21-1 3.26 0 0-.15-3.47-2.32-2.88 0 0 .88 3.49 1.27 7.19 0 0 .65 2.75-.13 4.94l-.39 2.91s-1.12 1.08-.53 2.42l.74.66s-.18 8.17-.04 14.25a4.46 4.46 0 0 0-1.24-.9s-1.3-.04-1.28-2.15c0 0 .84-2.91-2.2-1.59 0 0-1.44 1.7-1.51-.13 0 0 .69-6.05.23-7.94 0 0-.98-2.33-2.38.02 0 0 .05 6.05-.4 7.97 0 0-.4.99-1.34-.69 0 0-1.24-3.2-1.67-5.15.03-1.35.01-2.59-.05-3.63l1.07-.64v-1.59l-1.52-.53s-.76-.21.28-1.27c0 0 1.26-3.08-.21-9.35 0 0-1.08-1.91-1.07-3.72 0 0-.75-5.95-2.38-4.68 0 0-.46 0 .27 2.66 0 0 .58 4.78-.75 3.93 0 0-.59.32-1.03-3.51 0 0-.13-6.48-1.91-5.52 0 0-.74-.21-.17 7.86 0 0-.45 1.7-.89.21 0 0-.28-5.74-.13-7.86 0 0-.98-2.1-1.99.91.03-.15.06-.29.1-.37 0 0-1.24-1.08-1.99 1.37 0 0-1.03 4.67 0 8.07 0 0 .51 1.86-.97 1.27 0 0-.82-4.78-3.49-3.83 0 0 .37 3 .96 4.38 0 0 .52 1.46 5.1 5.93 0 0 2.07 2.23 1.48 3.51 0 0-1.18.53-1.19 1.59 0 0-.45.96 1.03 1.6 0 0-.27 3.41-1.99 7.74-.79-1.02-1.35-1.66-1.35-1.66-3.57-17.42-10.01-37.79-10.01-37.79 1.43-.9 4.11-3.84 4.11-3.84 3.93-4.87 3.75-5.64 3.75-5.64-1.61-1.28-5.19 3.33-5.19 3.33-2.15 2.31-1.79-5.12-1.79-5.12a7.3 7.3 0 0 0 1.43-3.2c.36-5.76-.72-5.12-.72-5.12-1.97-1.28-1.56 4.48-1.56 4.48-1.21 4.04-1.74 3.07-1.74 3.07-.13-.96.67-3.55.67-3.55-.27-6.24-2.01-5.67-2.01-5.67-1.12-.32-.8 5.86-.8 5.86 0 .51-.8 3.11-.8 3.11-.4 1.7-1.07-.7-1.07-.7-.8-2.5-1.61-5.44-1.61-5.44-1.61-2.18-2.15.38-2.15.38.18 1.79 1.21 7.27 1.21 7.27-.18 1.79-1.56.55-1.56.55-1.07-.64-3.22-5.13-3.22-5.13-2.68-1.28-.18 3.33-.18 3.33 1.79 2.95 1.61 3.59 1.61 3.59.54 5.89 1.61 8.45 1.61 8.45 1.25 2.43 1.61 2.56 1.61 2.56l.14 1.3c-.19-.25-.81-.25-2.29.37 0 0-2.86 4.1-2.5.26l-.18-8.65s-.8-2.69-2.41.19l-.54 5s-1.88-.77-3.75.19c0 0-1.61-1.15-2.68-.19 0 0-2.41-3.07-3.22-4.04 0 0-1.61-1.73-1.34.96l1.88 4.04s0 6.73-.27 9.22c0 0-5.37 5.26-6.35 25.13a152.6 152.6 0 0 0-2.05-2.77c-2.15-2.56-1.79-2.95-1.79-2.95.54-11.91-1.97-17.81-1.97-17.81-2.5-5.76-2.86-10.5-2.86-10.5 1.79-.77 1.25-1.92 1.25-1.92 0-1.28-1.43-1.92-1.43-1.92-.72-1.54 1.79-4.23 1.79-4.23 5.54-5.38 6.17-7.14 6.17-7.14.71-1.66 1.17-5.28 1.17-5.28-3.22-1.15-4.22 4.61-4.22 4.61-1.79.71-1.17-1.54-1.17-1.54 1.25-4.1.02-9.73.02-9.73-.89-2.95-2.39-1.65-2.39-1.65.05.1.08.26.12.45-1.22-3.63-2.4-1.1-2.4-1.1.18 2.56-.18 9.48-.18 9.48-.54 1.79-1.07-.26-1.07-.26.72-9.74-.18-9.48-.18-9.48-2.15-1.15-2.32 6.66-2.32 6.66-.54 4.61-1.25 4.23-1.25 4.23-1.61 1.03-.9-4.74-.9-4.74.89-3.2.33-3.2.33-3.2-1.97-1.54-2.89 5.64-2.89 5.64 0 2.18-1.32 4.48-1.32 4.48-1.79 7.56-.31 11.27-.31 11.27 1.25 1.28.14 1.54.14 1.54l-2.09.64v1.92l1.54.77c-.33 5.12.49 14.24 1.12 20.42l-.76-1.72-3.08-.08-1.36-3.32s3.84-6.57 3.78-11.01c0 0-2.25-7.76-4.12-8.13 0 0-1.57-.84-3.68-2.37 0 0-4.48-6.63-5.85-4.69 0 0-.11 2.25-.78 1.4 0 0-2.28-2.5-2.8-.55 0 0 2.59 6.27 3.01 8.39 0 0 .4 3.34-.79 5.04 0 0-.99-5.23-4.13-4.08 0 0 2.09 5.17 3.51 10.7 0 0 1.59 4.07.89 7.48v.16c-1.3 1.33-2.22 2.64-2.22 2.64-2 1.29.1-8.11.1-8.11-.6-2.23-1.8-.43-1.8-.43-.3 1.29-2 7.54-2 7.54 0-2.23 1.8-8.62 1.8-8.62-1.5-1.51-3.61 3.81-3.61 3.81-.4.79-.9 3.81-.9 3.81-.7.86-.2-2.87-.2-2.87 2.1-4.67 1.4-4.31 1.4-4.31-1.6-1.72-4.01 4.31-4.01 4.31-.2 2.01-.2 4.45-.2 4.45l-.6 1.44c0 3.3-1.4-1.44-1.4-1.44-.58-1.42-1.09-1.98-1.49-2.16l.96-.63s4.16-5.22 4.77-6.28c0 0-.12-2.32-4.3 1.43 0 0-5.1 5.35-2.76 1.26l.28-2s1.74-3.02 2.92-5.58c0 0 1.31-8.34-1.9-6.79 0 0-.61-.7-1.33 5.84 0 0-2.03 4.8-2.29 3.48 0 0 1.52-3.91 1.59-5.04 0 0 1.17-7.34-1.76-6.03 0 0-2.31 8.57-3.89 11.32 0 0 2.33-8.35 2.88-10.06 0 0-.21-2.66-2.54-.12 0 0-4.08 12.41-5.64 10.08 0 0-.33-3.21-1.56-5.86 0 0-1.29-2.04-1.58 4.52 0 0-.93 4.4-1.76 6.86 0 0-.74 1.55.1 5.12l-.52 1.51c-.29-3.29-.45-5.77-.45-5.77 1.14-4.34.74-9.6.74-9.6-.15-1.89.73-6.37.73-6.37-.65-2.26-1.67-.3-1.67-.3-.04 1.45-.92 4.68-.92 4.68-.61 1.39-1.01.61-1.01.61-.52-1.52-1.02-6.37-1.02-6.37-1.33-1.82-1.91.09-1.91.09-.21 1.54.88 6.35.88 6.35.1 1.47-1.2.17-1.2.17-2.55-.92-1.62 1.37-1.62 1.37.2 1.69-.84 1.78-.84 1.78-4.05 2.44 1.14 8.36 1.14 8.36l-.25 2.99c-2.87 7.47-.52 22.02-.52 22.02.36.41.73.77 1.09 1.08l-.22.73c-3-3.09-6.34-5.98-9.61-8.25.74-3.6 1.59-8.11 2.21-12.4 0 0 .67-5.28.94-7.01l.67-.1s.67-.86.54-2.88l-.67-.58s0-1.73 1.07-5.48c0 0 .54-.29.94-3.36 0 0 2.01-3.17 3.08-7.11 0 0 .8-1.92 1.34-3.46 0 0 .4-1.06.27-10.76 0 0-1.21-1.63-2.41.1l-.67 6.34s-.27 2.88-2.15.67c0 0-1.88-3.17-3.35-2.5 0 0-1.61.1-.94 1.92 0 0-1.74-.38-2.01.67l-1.88-3.65s-1.07-1.82-2.28-.38c0 0-.54.58.27 1.63l2.15 4.42s.8 1.15 0 3.84c0 0-.4 2.79-.4 7.88 0 0 .27.48-.8 3.55 0 0-1.21 3.94-1.34 4.52l-1.34.1s-.67 1.06-.67 2.21c0 0 .27.29 1.07.77 0 0-2.13 9.84-3.72 16.13-.95-9.99-2.01-18.23-2.01-18.23 1.6-3.44 1.2-5.05 1.2-5.05-.3-2.52-.28-6.97-.28-6.97 1.12-6.52-.6-4.64-.6-4.64-1.78 2.48-2.8 5.62-2.8 5.62-2.04 2.13-3.42-10.58-3.42-10.58-1.76-2.76-2.53-.15-2.53-.15.18 1.75.7 10.26.7 10.26-.98-2.89-1.43-11.61-1.43-11.61-2.62-1.62-3.03 5.76-3.03 5.76-.17 1.12.49 5.15.49 5.15-.53 1.28-1.52-3.69-1.52-3.69.69-6.54-.06-5.92-.06-5.92-2.84-1.88-3.33 6.51-3.33 6.51A75.06 75.06 0 0 0 .77 258l-.15 2c1.45 4.3-2.45-1.55-2.45-1.55-3.33-4.17-3.95-1.89-3.95-1.89.38 1.12 3.37 6.73 3.37 6.73 3.93 3.47 6.5 6.19 6.5 6.19 2.59 6.87-.35 19.43-.35 19.43-5.96 29.07-3.81 49.62-3.81 49.62 6.23 5.83 11.42 6.24 15.26 4.93 2.54 4.21 5.52 6.98 8.87 6.98.48 0 .9-.07 1.31-.16 1.98.81 5.56.13 11.99-4.28 0 0 .78-1.01 1.98-2.91 10.08 1.22 21.9-1.62 21.9-1.62.42-.62.84-1.48 1.26-2.52a43.72 43.72 0 0 0 14.42 1.79l-.66.74c16.63 12.57 41.95.36 52.08-5.48 3.09 2.55 6.07 2.78 8.56 2.09 2.63 9.89 6.68 7.83 10.73 1.33.62 2.97 2.71 5.22 8.66 2.11 6.67.29 17.79.65 28.81.44 7.22 12.43 31.96 9.47 34.17 8.47 1.61-.73 1.16-4.56-.2-9.45 5.7.91 10.31 1.35 10.31 1.35 10.14 10.11 25.29.85 30.45-2.84 2.19.32 4.1-.03 5.72-.73.4 3.6 2.3 6.66 7.88 8.2 5.42 1.49 8.03.16 9.02-2.47 4.72-.04 10.11-.03 13.5.16l-.06-.79c4.29.61 9.47-.21 13.72-1.25.08.46.17.89.28 1.27 0 0 8.54 28.13 25.21-19.22 0 0-.69-18.24-1.07-26.52Zm-273.2.81a100.74 100.74 0 0 1-10.22 14.64c.9-4.78 1.49-10 1.55-15.62 0 0-.22-12.74 3.8-19.24 0 0 2.31-1.78 5.88-4.18.12 1.3.78 5.01.78 5.01a69.6 69.6 0 0 1 3.21 5.31c.2 5.31-5.01 14.07-5.01 14.07Zm17.1-21.38v.61s-.21.27-.41.7l.41-1.31Zm1.68 20.86a41.49 41.49 0 0 1-2.23 10.23c-.7 1.9-5.46 4.43-8.92 6.06 1.09-5.83 1.78-10.24 1.78-10.24 2.5-9.77 4.51-19.6 4.51-19.6 2-2.3 2.11-3.52 2.11-3.52.09-.44.23-.95.37-1.47-.08.59 0 1.28.43 2l1.27.92s1.49 7.14.68 15.63Zm16.96 15.23-.9-6.04c-1.86-12.46-3.77-25.93-3.68-27.64l2.18-2.64c.36 3.44.65 5.83.65 5.83 1.07 3.46 1.05 4.43 1.05 4.43.54 9.22 2.91 18.65 2.91 18.65.05 1.98-.81 4.56-2.21 7.41Zm31.14-12.69a34.88 34.88 0 0 0-2.05 9.3l-.72-1.29c.36-1.16 2.19-7.75.41-16.9 1.15 2.45 2.81 4.4 2.81 4.4l-.45 4.49Zm9.16-22.98c-.95 2.07-1.53.9-1.53.9-.75-2.29-1.36-9.58-1.36-9.58-1.94-2.75-2.87.11-2.87.11-.35 2.31 1.14 9.55 1.14 9.55.11 2.21-1.81.24-1.81.24-3.81-1.42-2.47 2.04-2.47 2.04.25 2.54-1.31 2.66-1.31 2.66a4.46 4.46 0 0 0-2.38 3.89l-.12-.42s.71-9.74 1.43-14.09c0 0 .71-5.12 2.15-6.92 0 0 5.36-2.56 8.22-6.15 0 0 .75-.87.9-1.49.54 4.81 1.21 8.76 1.82 11.78-.18.24-.3.45-.3.45-.1 2.18-1.51 7.02-1.51 7.02Zm1.62 21.68c-.15-2.59-.23-4.26-.23-4.26 1.82-6.51 1.36-14.4 1.36-14.4-.07-1.18.13-3.02.4-4.78.25.9.4 1.36.4 1.36.13 5.09-.3 11.6 1.61 16.33l-3.54 5.75Zm30.36 18.07-4.83 4.23c-.08-7.82 1.03-2.59 1.49-10.24 0 0-.02-.8.88-3.67 0 0 .64-5.32 1.08-11.1l.01.18s.22 6.55 2.22 11.86c0 0-.32.62-.85 8.75Zm52.19-16.87s-.63 1.06-1.35 2.55a406.7 406.7 0 0 0-.99-16.1c.87-.39 2.31-1.41 3.28-2.13a290.6 290.6 0 0 0-.94 15.68Zm1.2-18.62h-.01c-2.31 1.79-.54-4.61-.54-4.61.48-.45.85-.9 1.13-1.3-.19 1.86-.39 3.84-.57 5.9Zm9.99 16.89.11-.6.06.05c-.05.19-.11.37-.18.55Zm6.12-12.72c-.69.33-.61-.75-.4-1.76.32.4.65.78.97 1.14-.39.75-.57.62-.57.62Zm2.28 20.63c-.96-4.1-.58-7.36-.58-7.36 1.32-.41 1.1-1.23 1.1-1.23.17-.87-.72-1.41-.72-1.41-.29-1.1 1.77-2.77 1.77-2.77l.79-.59.14.97c-.61 4.12-.19 9.21.71 14.38l-3.21-2Z"/>
      <ellipse cx="168.86" cy="111.41" fill="url(#g)" rx="237.04" ry="169.86"/>
      <path fill="url(#h)" d="m404.98 75.71 33.59 10.31-113.99 316.99-180.84-55.48L404.98 75.71z"/>
      <path fill="url(#i)" d="m207.69-9.9 40.73-6.73L396.2 345.83l-223.27 21.35L207.69-9.9z" opacity=".6"/>
      <path fill="url(#j)" d="m92.86-9.51 40.72 6.87-29.13 336.68-219.24-37.01L92.86-9.51z" opacity=".5"/>
      <path fill="url(#k)" d="m331.83 2.09 41.53 3.59L390.2 380.3l-223.61-19.34L331.83 2.09z" opacity=".4"/>
      <path fill="url(#l)" d="m-103.83 37.13 35.72-15.6L268.7 308.29l-192.34 84-180.19-355.16z" opacity=".4"/>
      <path fill="url(#m)" d="m-103.92 33.65 34.1-9.39 226.71 284.19-183.62 50.58-77.19-325.38z"/>
      <path fill="url(#n)" d="m261.87-23.79 31.25 19.93L8.81 310.74l-168.29-107.27L261.87-23.79z"/>
    </g>
    <path fill="#00b5cc" d="M110.64 314.58c-.55 0-1-.24-1-.54v-43.97c0-.3.45-.54 1-.54s1 .24 1 .54v43.97c0 .3-.45.54-1 .54Zm113.72 0c-.55 0-1-.24-1-.54v-43.97c0-.3.45-.54 1-.54s1 .24 1 .54v43.97c0 .3-.45.54-1 .54ZM246.86-.59H335V24.4h-88.14z"/>
    <g fill="#00b5cc" data-name="PRINT">
      <path d="M29.59 13.92c0 .53-.21 1.03-.59 1.4l-6.34 6.34-6.78-3.92v-3.85a2.01 2.01 0 0 1 4.02 0v4.86l6.27-6.27a2.02 2.02 0 0 1 3.43 1.43Zm-.6 17.76a1.99 1.99 0 0 1-2.84 0l-2.13-2.13-4.15-4.14v4.86a2 2 0 0 1-4.01 0v-3.84l6.8-3.91 4.2 4.2 2.13 2.13a2 2 0 0 1 0 2.83Zm-6.63-9.72a.43.43 0 0 0-.18-.24s-.02 0-.03-.02l-1.71-.99-4.57-2.64L12 15.84c-.23-.13-.5-.06-.62.16a.41.41 0 0 0-.07.23v11.71a.45.45 0 0 0 .68.39l3.87-2.23 6.28-3.62.07-.05a.4.4 0 0 0 .12-.17.47.47 0 0 0 .02-.31Zm-9.56-4.72 3 1.74 4.87 2.81c.06.04.1.08.13.13.05.09.06.19.03.27a.36.36 0 0 1-.16.21l-4.87 2.82-3 1.74a.36.36 0 0 1-.48-.13c-.04-.05-.05-.11-.05-.18v-9.09c0-.2.15-.35.35-.35.07 0 .12 0 .18.05Z"/>
      <path d="M19.46 22.16a.28.28 0 0 1-.12.16l-3.66 2.12-2.26 1.3a.26.26 0 0 1-.36-.1.33.33 0 0 1-.04-.13v-6.84c0-.15.12-.27.27-.26.05 0 .09.01.13.03l2.26 1.31 3.66 2.12c.06.03.1.09.12.15v.15Zm43.05-.53-5.59-2.81-3.44-1.73a.4.4 0 0 0-.54.15.58.58 0 0 0-.06.17l.11 9.29c.03.22.23.38.45.36.06 0 .11-.03.16-.06l.22-.11 3.19-1.7 1.96-1.05 3.55-1.89a.4.4 0 0 0 .18-.22.26.26 0 0 0 0-.21.4.4 0 0 0-.19-.21Zm-5.59 2.84-2.64 1.41c-.15.09-.35.05-.43-.1a.28.28 0 0 1-.04-.13l-.09-7.21c.02-.17.17-.3.34-.28.05 0 .08.02.13.04l2.67 1.34.96.48 3.38 1.7c.07.03.12.08.15.16v.15s0 .02-.02.03a.24.24 0 0 1-.12.14l-4.29 2.28Z"/>
      <path d="M60.13 22.02a.22.22 0 0 1-.11.12l-3.22 1.72-1.99 1.06a.23.23 0 0 1-.32-.08.16.16 0 0 1-.03-.09l-.07-5.42c0-.13.12-.23.25-.22a.2.2 0 0 1 .1.03l2.01 1.01 3.26 1.64c.05.02.09.07.11.12v.12Zm-21.62-4.84-2.14.03-2.71.04.03 2.65.08 7.02 2.31-.03-.04-3.13 2.54-.04c2.35-.03 4.05-1.4 4.04-3.31-.03-1.91-1.77-3.25-4.11-3.22Zm-.2 4.64-2.29.03-.04-2.73 2.3-.03c1.15 0 1.93.52 1.94 1.34 0 .84-.77 1.38-1.91 1.39Zm13.45 5.14-7.7.1-.12-9.67 2.33-.03.1 7.8 5.37-.08.02 1.88zm15.78-3.69.04 3.49-2.34.03-.04-3.49-4.3-6.13 2.7-.03 2.74 4.21 2.75-4.27 2.59-.04-4.14 6.23zm14.37 3.97-1.58.02-4.15-4.45-1.68 1.63.03 2.9-1.23.01-.11-9.67 1.22-.01.07 5.35 5.4-5.43 1.62-.01-4.49 4.47 4.9 5.19zm6.07-9.9c-2.98.04-5.5 2.35-5.47 5.07.04 2.71 2.59 4.98 5.59 4.95 3-.04 5.49-2.37 5.45-5.09-.03-2.71-2.59-4.97-5.58-4.93Zm.39 8.98a4.29 4.29 0 0 1-4.62-3.93 4.3 4.3 0 0 1 8.56-.11 4.3 4.3 0 0 1-3.94 4.04Zm14.81-1.8c.02 1.54-1.25 2.81-3.77 2.83a6.18 6.18 0 0 1-4.26-1.48l.76-.87a5.07 5.07 0 0 0 3.55 1.35c1.67-.02 2.51-.85 2.5-1.72 0-1.03-1.04-1.43-2.93-1.79-2.18-.43-3.55-1.01-3.57-2.69-.02-1.55 1.5-2.78 3.58-2.8a5.66 5.66 0 0 1 3.8 1.33l-.74.86a4.74 4.74 0 0 0-3.11-1.2c-1.34.02-2.3.82-2.29 1.71 0 1 1.08 1.34 2.92 1.71 2.07.41 3.55 1.06 3.57 2.76Zm12.83 2.7-1.22.02-.1-7.3-3.92 6.79-4.08-6.7.08 7.31-1.23.02-.11-9.68 1.22-.01 4.09 6.69 3.93-6.79 1.22-.01.12 9.66zm7.7-9.88c-2.98.04-5.5 2.35-5.47 5.07.04 2.71 2.59 4.98 5.59 4.95 3-.04 5.49-2.37 5.45-5.09-.04-2.71-2.59-4.97-5.58-4.93Zm.39 8.98a4.3 4.3 0 0 1-4.63-3.93 4.3 4.3 0 0 1 8.57-.11 4.3 4.3 0 0 1-3.94 4.04Zm14.81-1.8c.02 1.54-1.26 2.81-3.77 2.83a6.2 6.2 0 0 1-4.27-1.48l.76-.87a5.04 5.04 0 0 0 3.56 1.35c1.66-.02 2.51-.85 2.49-1.72 0-.75-.55-1.16-1.58-1.47-.33-.1-.72-.2-1.15-.28-.07 0-.13-.03-.2-.04-2.17-.43-3.55-1.01-3.57-2.69-.02-1.55 1.51-2.78 3.59-2.8a5.7 5.7 0 0 1 3.8 1.33l-.74.86a4.76 4.76 0 0 0-3.12-1.2c-1.33.02-2.3.82-2.29 1.71.02 1 1.09 1.34 2.93 1.71.38.08.75.16 1.09.26.37.1.69.23.99.38.92.43 1.48 1.08 1.49 2.12Z"/>
    </g>
    <path fill="#00b5cc" d="M167.5 148.13a5.45 5.45 0 0 0-4.39 8.66l4.39 7.6 4.39-7.6a5.45 5.45 0 0 0-4.39-8.66Zm0 7.93a2.39 2.39 0 1 1 0-4.78 2.39 2.39 0 0 1 0 4.78Z"/>
  </g>
</svg>
