<svg xmlns="http://www.w3.org/2000/svg" xmlns:xlink="http://www.w3.org/1999/xlink" width="335" height="335">
  <defs>
    <linearGradient id="a" x1="-1.6" x2="19.7" y1="432.4" y2="67.3" gradientTransform="rotate(23.2 40.6 103)" gradientUnits="userSpaceOnUse">
      <stop offset="0" stop-color="#f0598a" stop-opacity="0"/>
      <stop offset=".2" stop-color="#f0598a" stop-opacity="0"/>
      <stop offset=".3" stop-color="#f0598a" stop-opacity=".1"/>
      <stop offset=".5" stop-color="#f0598a" stop-opacity=".1"/>
      <stop offset=".6" stop-color="#f0598a" stop-opacity=".3"/>
      <stop offset=".8" stop-color="#f0598a" stop-opacity=".4"/>
      <stop offset="1" stop-color="#f0598a" stop-opacity=".6"/>
      <stop offset="1" stop-color="#f0598a" stop-opacity=".7"/>
    </linearGradient>
    <linearGradient id="b" x1="-90.9" x2="-90.9" y1="298.4" y2="-80.5" gradientTransform="rotate(-7.6 388.6 171.2)" gradientUnits="userSpaceOnUse">
      <stop offset="0" stop-color="#00aac7" stop-opacity="0"/>
      <stop offset=".2" stop-color="#00aac7" stop-opacity="0"/>
      <stop offset=".3" stop-color="#00aac7" stop-opacity=".1"/>
      <stop offset=".5" stop-color="#00aac7" stop-opacity=".2"/>
      <stop offset=".7" stop-color="#00aac7" stop-opacity=".3"/>
      <stop offset=".9" stop-color="#00aac7" stop-opacity=".5"/>
      <stop offset="1" stop-color="#00aac7" stop-opacity=".7"/>
    </linearGradient>
    <linearGradient xlink:href="#a" id="e" x1="-47.3" x2="-24.8" y1="286" y2="-99.7" gradientTransform="rotate(6.9 -851.7 74.5)"/>
    <linearGradient xlink:href="#a" id="h" x1="324.8" x2="346.1" y1="292.6" y2="-72.4"/>
    <linearGradient xlink:href="#b" id="i" x1="261" x2="261" y1="345.3" y2="-33.5"/>
    <linearGradient xlink:href="#b" id="j" x1="41.1" x2="41.1" y1="357.3" y2="-31.2" gradientTransform="matrix(.97317887 .23004974 -.20704476 .87586099 26.8 1)"/>
    <linearGradient xlink:href="#a" id="k" x1="305.1" x2="327.7" y1="243.4" y2="-142.3" gradientTransform="rotate(6.9 -851.7 74.5)"/>
    <linearGradient xlink:href="#a" id="l" x1="237" x2="261.1" y1="403.4" y2="-10.2" gradientTransform="rotate(-31.4 124.7 488.4)"/>
    <linearGradient xlink:href="#a" id="m" x1="26" x2="45.9" y1="250.8" y2="-89.7" gradientTransform="rotate(-21 279.3 185.7)"/>
    <linearGradient xlink:href="#a" id="n" x1="70" x2="97.2" y1="457.6" y2="-8.3" gradientTransform="rotate(41.6 233.2 153.9)"/>
    <linearGradient id="o" x1="248.5" x2="327.7" y1="288" y2="288" gradientUnits="userSpaceOnUse">
      <stop offset="0" stop-color="#123b5f" stop-opacity=".7"/>
      <stop offset=".1" stop-color="#123b5f" stop-opacity=".7"/>
      <stop offset=".6" stop-color="#123b5f" stop-opacity=".9"/>
      <stop offset="1" stop-color="#123b5f"/>
    </linearGradient>
    <linearGradient xlink:href="#b" id="r" x1="386.6" x2="386.6" y1="266.6" y2="-121.9" gradientTransform="matrix(.97317887 .23004974 -.20704476 .87586099 26.8 1)"/>
    <linearGradient xlink:href="#a" id="s" x1="540.1" x2="564.3" y1="588.2" y2="174.5" gradientTransform="rotate(-31.4 124.7 488.4)"/>
    <linearGradient xlink:href="#a" id="t" x1="357.4" x2="377.3" y1="378.2" y2="37.7" gradientTransform="rotate(-21 279.3 185.7)"/>
    <linearGradient xlink:href="#a" id="u" x1="335.3" x2="362.5" y1="221.6" y2="-244.2" gradientTransform="rotate(41.6 233.2 153.9)"/>
    <radialGradient id="c" cx="-187.5" cy="154.9" r="236.2" fx="-187.5" fy="154.9" gradientTransform="matrix(1 0 0 .72 2 0)" gradientUnits="userSpaceOnUse">
      <stop offset="0" stop-color="#00aac7" stop-opacity=".7"/>
      <stop offset=".1" stop-color="#00aac7" stop-opacity=".6"/>
      <stop offset=".4" stop-color="#00aac7" stop-opacity=".3"/>
      <stop offset=".6" stop-color="#00aac7" stop-opacity=".2"/>
      <stop offset=".9" stop-color="#00aac7" stop-opacity="0"/>
      <stop offset="1" stop-color="#00aac7" stop-opacity="0"/>
    </radialGradient>
    <radialGradient xlink:href="#c" id="g" cx="166.2" r="236.2" fx="166.2"/>
    <radialGradient xlink:href="#c" id="q" cx="519.9" r="236.2" fx="519.9"/>
    <clipPath id="d">
      <path fill="none" d="M-355 0h335v335h-335z"/>
    </clipPath>
    <clipPath id="f">
      <path fill="none" d="M0 0h335v335H0z"/>
    </clipPath>
    <clipPath id="p">
      <path fill="none" d="M355 0h335v335H355z"/>
    </clipPath>
  </defs>
  <g data-name="Layer 1">
    <g clip-path="url(#d)">
      <ellipse cx="-186.1" cy="111.4" fill="url(#c)" rx="237" ry="169.9"/>
      <path fill="url(#a)" d="M50 75.7 83.6 86l-114 317-180.9-55.5L50 75.7z"/>
      <path fill="url(#b)" d="m-147.3-9.9 40.7-6.7L41.2 345.8l-223.3 21.4 34.8-377.1z" opacity=".6"/>
      <path fill="url(#e)" d="m-23.2 2.1 41.6 3.6 16.8 374.6-223.6-19.3L-23.2 2.1z" opacity=".4"/>
    </g>
    <path fill="#142b51" d="M0 0h335v335H0z"/>
    <g clip-path="url(#f)">
      <path fill="#006372" d="M334 298.2s-.4-5.8-.5-13.5c0 0-.7-1.7 0-4.6l-2.8-21.6 1-.6-.1-1.6-1.6-.5s-.8-.2.2-1.3c0 0 1-3.1-.9-9.3 0 0-1.2-1.9-1.4-3.7 0 0-1.1-5.9-2.7-4.5 0 0-.4 0 .5 2.6 0 0 1 4.7-.5 4 0 0-.5.3-1.3-3.5 0 0-.6-6.5-2.3-5.5 0 0-.7-.1.4 7.9 0 0-.3 1.7-.8.2 0 0-.7-5.7-.7-7.8 0 0-1.2-2-2 1l.1-.4s-1.3-1-1.9 1.5c0 0-.7 4.7.6 8 0 0 .7 1.9-.8 1.3 0 0-1.2-4.7-3.8-3.7 0 0 .6 3 1.3 4.4 0 0 .6 1.4 5.5 5.7 0 0 2.3 2.1 1.8 3.4 0 0-1.2.6-1.1 1.7 0 0-.4 1 1.1 1.5 0 0 0 4-1.7 8.8 0 0-1.7 5-.5 14.8 0 0 .3.3-1.3 2.5 0 0-1.3 5.4-2.8 13-2.2-14.4-4.6-26-4.6-26 .6-7.9 0-13.8 0-13.8-1.6-12.1-4-14-4-14-3-2.4-2.4.7-2.4.7 1.6 4.6.5 5 .5 5 0 2.7-1.6.8-1.6.8-2.6-1.7-5.3-11.4-5.3-11.4-3.2-3.2-1.9 4-1.9 4a90 90 0 0 0 1.9 6.2c-.3 1.6-3.2-5-3.2-5-1.1-6.1-2.5-6-2.5-6-2.6.3-.8 7.4-.8 7.4a13 13 0 0 0 2.5 5.5c.5 2.3-3-2.7-3-2.7l-2.1-6.1c-2-2.1-2.5.4-2.5.4 0 5.7 3.8 11.5 4 12.3.3.7.6 5.4.6 5.4-.5.5-4-.8-4-.8-4.8-2.9-9.1-1.7-9.1-1.7-3.3 1.7-.8 2-.8 2a27 27 0 0 1 6.1 2c5.1 4 10.8 4.6 10.8 4.6 3.5.4 3.7 5.2 3.7 5.2a165 165 0 0 1-4.3 39l-.7-5.8.7-.2s.4-1-.3-3.1l-.8-.5s-.5-1.9-.4-6c0 0 .5-.3 0-3.6 0 0 1.3-3.6 1.4-8l.4-3.8s.2-1.1-2.6-11.3c0 0-1.8-1.6-2.6.4l1 6.8s.6 3-2 1c0 0-2.8-3-4.2-2.2 0 0-1.7.3-.5 2.2 0 0-1.9-.2-1.9 1l-3-3.6s-1.6-1.8-2.5 0c0 0-.4.6.8 1.6l3.4 4.3s1.2 1.1 1.1 4c0 0 .3 3 1.7 8.4 0 0 .4.5.2 3.9l-.2 5-1.4.2s-.4 1.2 0 2.4c0 0 .3.3 1.3.7l-4 18.7c2.9-36.6-5.9-45.2-5.9-45.2-.2-2.5-.2-9.2-.2-9.2l1.8-4c.3-2.7-1.3-1-1.3-1l-3.2 4c-1-1-2.7.2-2.7.2-1.9-1-3.7-.1-3.7-.1l-.6-5c-1.6-3-2.4-.2-2.4-.2l-.2 8.6c.4 3.9-2.5-.2-2.5-.2-4.3-1.8-1.4 1.5-1.4 1.5 2.9 3.6 8.2 6.1 8.2 6.1 1.4 1.8 2.2 7 2.2 7 .7 4.3 1.4 14 1.4 14a40 40 0 0 0-1.4 19l-1-2.2c-4.9-11.7-10.5-31-10.5-31 .2-8.2-2.7-17.8-2.7-17.8-1-3.5-1.4-12-1.4-12-2.1-4-3.2-.1-3.2-.1.6 2.7.3 8.8.3 8.8-.5 2.7-1.6 1.4-1.6 1.4-1.6-2.7-4.6-11.6-4.6-11.6-3.2-3-3.5.6-3.5.6.3 2.9 4.3 11.5 4.3 11.5.8 2.7-2.1.6-2.1.6-5.1-1.1-2.4 2.9-2.4 2.9 1 3-.8 3.5-.8 3.5-3.1 2.5-2 6.1.1 9.2a21 21 0 0 0-.5 1.4c-.3 1.5-1.5 3-1.5 3-2.2 5-1.7 7.7-1.7 7.7.7 1 0 1 0 1l-.4.2c.5-3.8.8-8 .3-11.5 0 0 1.1-7.4.2-20.7 0 0 .3-.2 1.1-2.7 0 0 .7-2.6.2-8.5 0 0-.3-.6 1-3.7 0 0 1.6-4.8-.8-3.3 0 0-1.4 4.6-2.3 5.4 0 0-1.2 1.3-1.7-.4v-7.4s-1-2.4-2.2-.1l-.7 5.5s-.2 2.4-1 .8c0 0-1.2-2.5-1.3-3 0 0-.7-6.2-1.8-5.8 0 0-1.8-.4-1 5.8 0 0 1.3 2.5 1.3 3.5 0 0-.4 1-2.3-2.9 0 0-.6-5.7-2.3-4.3 0 0-1.2-.5.2 5.2a8 8 0 0 0 2 3s1.6 7.3-1 5.2c0 0-4.3-4.2-5.7-2.8a31.1 31.1 0 0 0 9.5 8.7l-1 7.8c-1.2 0-1.8 4-1.8 4-1.8 3.3-2 2.5-2 2.5 0-.9 1.2-3 1.2-3 1-5.5-.6-5.2-.6-5.2-1-.4-1.9 5-1.9 5 0 .5-1.3 2.6-1.3 2.6-.7 1.5-.8-.7-.8-.7l-.3-4.9c-1-2-2 .2-2 .2l-.3 6.4c-.5 1.5-1.5.3-1.5.3-.8-.7-1.8-4.8-1.8-4.8-2-1.4-.8 2.9-.8 2.9 1 2.7.7 3.3.7 3.3-.7 5.1-.2 7.4-.2 7.4.6 2.3.8 2.4.8 2.4-1.4 11.6-.7 18.2-.7 18.2-.4 2-1.2 4.3-2 6.7l-1.5-2.7c1.4-11.8.6-30.8.6-30.8.9-11.6 1.2-23.3 1.2-23.3 1.8-2.9 1.7-4.3 1.7-4.3 0-2.2.7-6 .7-6 1.9-5.7.1-4.2.1-4.2-1.9 2-3.2 4.7-3.2 4.7-2 1.8-1.5-9.4-1.5-9.4-1.2-2.5-2.2-.3-2.2-.3l-.8 9c-.5-2.6.3-10.3.3-10.3-2-1.6-3.4 4.9-3.4 4.9-.3 1-.3 4.5-.3 4.5-.6 1-.8-3.3-.8-3.3 1.5-5.7.8-5.2.8-5.2-2.3-1.8-3.8 5.4-3.8 5.4.2 2.4.7 5.2.7 5.2l-.4 1.8c.6 3.8-2-1.5-2-1.5-2.3-3.9-3.2-2-3.2-2 .2 1 2 6.1 2 6.1 3 3.3 4.9 5.9 4.9 5.9 1.3 6.2-3 16.9-3 16.9-1.1 3.2-2 6.3-2.7 9.2 0 0-2.6 8.4-4.6 17 .2-6.4.5-15 .7-16.4l1.8-1.7-.4-1.5-2-.2-.7-2.2s3.2-4.1 3.6-7c0 0-.7-5.3-1.9-5.6 0 0-1-.6-2.2-1.7 0 0-2.3-4.6-3.4-3.4 0 0-.2 1.5-.6.9 0 0-1.3-1.8-1.8-.5 0 0 1.1 4.2 1.2 5.6 0 0 0 2.3-1 3.3 0 0-.2-3.5-2.3-2.9a48.7 48.7 0 0 0 1.2 12.2l-.5 2.9s-1 1-.5 2.4l.7.6s-.1 8.2 0 14.3l-1.2-1s-1.3 0-1.3-2c0 0 .8-3-2.2-1.6 0 0-1.5 1.7-1.5-.2 0 0 .7-6 .2-8 0 0-1-2.2-2.4.1 0 0 0 6-.4 8 0 0-.4 1-1.3-.7 0 0-1.3-3.2-1.7-5.2v-3.6l1-.6v-1.6l-1.5-.6s-.8-.2.3-1.2c0 0 1.2-3.1-.2-9.4 0 0-1.1-1.9-1-3.7 0 0-.8-6-2.5-4.7 0 0-.4 0 .3 2.7 0 0 .6 4.8-.8 4 0 0-.5.2-1-3.6 0 0-.1-6.5-1.9-5.5 0 0-.7-.2-.2 7.8 0 0-.4 1.7-.9.3 0 0-.2-5.8 0-8 0 0-1-2-2 1v-.4s-1.2-1-2 1.4c0 0-1 4.7 0 8 0 0 .5 2-1 1.3 0 0-.8-4.7-3.4-3.8 0 0 .3 3 1 4.4 0 0 .5 1.5 5 6 0 0 2.1 2.2 1.5 3.4 0 0-1.2.6-1.2 1.6 0 0-.4 1 1 1.6 0 0-.2 3.4-2 7.8l-1.3-1.7c-3.6-17.4-10-37.8-10-37.8a34 34 0 0 0 4.1-3.8c4-4.9 3.8-5.7 3.8-5.7-1.6-1.2-5.2 3.4-5.2 3.4-2.2 2.3-1.8-5.2-1.8-5.2a7.3 7.3 0 0 0 1.4-3.2c.4-5.7-.7-5-.7-5-2-1.4-1.6 4.4-1.6 4.4-1.2 4-1.7 3-1.7 3-.1-.9.7-3.5.7-3.5-.3-6.2-2-5.6-2-5.6-1.2-.4-.8 5.8-.8 5.8 0 .5-.8 3.1-.8 3.1-.4 1.7-1.1-.7-1.1-.7l-1.6-5.4c-1.6-2.2-2.2.4-2.2.4l1.2 7.2c-.1 1.8-1.5.6-1.5.6-1-.7-3.2-5.1-3.2-5.1-2.7-1.3-.2 3.3-.2 3.3 1.8 3 1.6 3.6 1.6 3.6.5 5.9 1.6 8.4 1.6 8.4 1.2 2.5 1.6 2.6 1.6 2.6l.1 1.3c-.1-.3-.8-.3-2.2.4 0 0-2.9 4-2.5.2l-.2-8.6s-.8-2.7-2.4.2l-.6 5s-1.9-.8-3.7.1c0 0-1.6-1.1-2.7-.1l-3.2-4s-1.6-1.8-1.4.9l2 4s0 6.7-.4 9.2c0 0-5.3 5.3-6.3 25.2l-2-2.8c-2.2-2.6-1.8-3-1.8-3 .5-11.9-2-17.8-2-17.8a36.6 36.6 0 0 1-2.9-10.5c1.8-.7 1.3-1.9 1.3-1.9 0-1.3-1.5-2-1.5-2-.7-1.4 1.8-4.1 1.8-4.1 5.6-5.4 6.2-7.2 6.2-7.2.7-1.6 1.2-5.3 1.2-5.3-3.2-1.1-4.2 4.7-4.2 4.7-1.8.7-1.2-1.6-1.2-1.6 1.2-4 0-9.7 0-9.7-.9-3-2.4-1.7-2.4-1.7l.1.5c-1.2-3.6-2.4-1.1-2.4-1.1.2 2.5-.1 9.5-.1 9.5-.6 1.8-1.1-.3-1.1-.3.7-9.7-.2-9.5-.2-9.5-2.1-1.1-2.3 6.7-2.3 6.7-.6 4.6-1.3 4.2-1.3 4.2-1.6 1-.9-4.7-.9-4.7 1-3.2.4-3.2.4-3.2-2-1.6-3 5.6-3 5.6 0 2.2-1.2 4.5-1.2 4.5-1.8 7.6-.4 11.3-.4 11.3 1.3 1.2.2 1.5.2 1.5l-2.1.6v2l1.5.7c-.3 5.2.5 14.3 1.2 20.5l-.8-1.8h-3l-1.4-3.4s3.8-6.5 3.7-11c0 0-2.2-7.7-4-8.1 0 0-1.7-.8-3.8-2.4 0 0-4.4-6.6-5.8-4.7 0 0-.1 2.3-.8 1.4 0 0-2.3-2.5-2.8-.5 0 0 2.6 6.3 3 8.4 0 0 .4 3.3-.8 5 0 0-1-5.2-4.1-4 0 0 2 5.1 3.5 10.6 0 0 1.6 4.1.9 7.5v.2c-1.3 1.3-2.2 2.6-2.2 2.6-2 1.3 0-8.1 0-8.1-.5-2.2-1.7-.4-1.7-.4l-2 7.5c0-2.2 1.8-8.6 1.8-8.6-1.5-1.5-3.6 3.8-3.6 3.8-.4.8-1 3.8-1 3.8-.6.9-.1-2.9-.1-2.9 2-4.6 1.4-4.3 1.4-4.3-1.6-1.7-4 4.3-4 4.3-.2 2-.2 4.5-.2 4.5l-.6 1.4c0 3.3-1.4-1.4-1.4-1.4-.6-1.4-1.1-2-1.5-2.2l1-.6 4.7-6.3s-.1-2.3-4.3 1.5c0 0-5.1 5.3-2.8 1.2l.3-2s1.8-3 3-5.6c0 0 1.2-8.3-2-6.8 0 0-.6-.7-1.3 5.9 0 0-2 4.8-2.3 3.5 0 0 1.5-4 1.6-5 0 0 1.2-7.4-1.8-6.1 0 0-2.3 8.6-3.8 11.3l2.8-10s-.2-2.7-2.5-.2c0 0-4 12.4-5.6 10.1 0 0-.4-3.2-1.6-5.8 0 0-1.3-2-1.6 4.5l-1.7 6.8s-.8 1.6 0 5.2l-.5 1.5-.4-5.8c1.1-4.3.7-9.6.7-9.6-.1-1.9.8-6.4.8-6.4-.7-2.2-1.7-.3-1.7-.3 0 1.5-1 4.7-1 4.7-.5 1.4-1 .6-1 .6-.5-1.5-1-6.4-1-6.4-1.3-1.8-1.9.1-1.9.1-.2 1.6 1 6.4 1 6.4 0 1.5-1.3.2-1.3.2-2.5-1-1.6 1.3-1.6 1.3.2 1.7-.9 1.8-.9 1.8-4 2.4 1.2 8.4 1.2 8.4l-.3 3c-2.8 7.4-.5 22-.5 22l1.1 1-.2.8a73 73 0 0 0-9.6-8.3c.7-3.6 1.6-8 2.2-12.4l1-7h.6s.7-1 .5-3l-.6-.5s0-1.8 1-5.5c0 0 .6-.3 1-3.4 0 0 2-3.1 3-7l1.4-3.5s.4-1.1.3-10.8c0 0-1.2-1.6-2.4 0L35 244s-.3 3-2.2.7c0 0-1.8-3.2-3.3-2.5 0 0-1.6.1-1 2 0 0-1.7-.5-2 .6l-1.8-3.7s-1.1-1.8-2.3-.3c0 0-.6.5.2 1.6l2.2 4.4s.8 1.2 0 3.9c0 0-.4 2.7-.4 7.8 0 0 .3.5-.8 3.6l-1.3 4.5-1.4.1s-.7 1-.7 2.2l1.1.8s-2.1 9.8-3.7 16.1l-2-18.2c1.6-3.5 1.2-5 1.2-5-.3-2.6-.3-7-.3-7 1.1-6.6-.6-4.7-.6-4.7-1.8 2.5-2.8 5.6-2.8 5.6-2 2.2-3.4-10.5-3.4-10.5-1.8-2.8-2.5-.2-2.5-.2L8 256c-1-3-1.5-11.6-1.5-11.6-2.6-1.7-3 5.7-3 5.7-.2 1.1.5 5.2.5 5.2-.5 1.3-1.5-3.7-1.5-3.7.7-6.6 0-6 0-6-3-1.8-3.4 6.6-3.4 6.6.6 2.6 1.7 5.8 1.7 5.8l-.2 2c1.5 4.3-2.4-1.5-2.4-1.5-3.4-4.2-4-2-4-2 .4 1.2 3.4 6.8 3.4 6.8 4 3.5 6.5 6.2 6.5 6.2 2.6 6.9-.4 19.4-.4 19.4-6 29-3.8 49.6-3.8 49.6 6.3 5.9 11.4 6.3 15.3 5 2.5 4.2 5.5 7 8.9 7l1.3-.2c2 .8 5.5.1 12-4.3l2-3c10 1.3 21.8-1.5 21.8-1.5.5-.7.9-1.5 1.3-2.6 4.2 1.3 9.2 2.1 14.4 1.8l-.6.8c16.6 12.6 42 .3 52-5.5a9 9 0 0 0 8.6 2c2.6 10 6.7 8 10.7 1.4.6 3 2.7 5.2 8.7 2.1 6.7.3 17.8.7 28.8.5 7.2 12.4 32 9.4 34.2 8.4 1.6-.7 1.1-4.5-.2-9.4 5.7.9 10.3 1.3 10.3 1.3 10.1 10.2 25.3.9 30.4-2.8 2.2.3 4.1 0 5.7-.7.5 3.6 2.4 6.6 8 8.2 5.4 1.5 8 .1 9-2.5 4.7 0 10 0 13.4.2v-.8c4.3.6 9.5-.2 13.7-1.3 0 .5.2 1 .3 1.3 0 0 8.5 28.1 25.2-19.2l-1-26.6Zm-273.2.8c-2.8 5.1-6.4 10-10.2 14.6a84 84 0 0 0 1.6-15.6s-.2-12.7 3.8-19.2c0 0 2.3-1.8 5.9-4.2 0 1.3.7 5 .7 5 2 3 3.2 5.3 3.2 5.3.2 5.3-5 14-5 14ZM78 277.6v.6l-.4.7.4-1.3Zm1.7 20.9c-.3 3.3-1 6.8-2.2 10.2-.7 1.9-5.5 4.4-9 6 1.2-5.8 1.9-10.2 1.9-10.2 2.5-9.7 4.5-19.6 4.5-19.6 2-2.3 2-3.5 2-3.5l.4-1.5c0 .6 0 1.3.5 2l1.2 1s1.5 7 .7 15.6Zm17 15.2-1-6c-1.8-12.5-3.7-26-3.6-27.7l2.2-2.6.6 5.8c1.1 3.5 1 4.4 1 4.4.6 9.3 3 18.7 3 18.7 0 2-.8 4.6-2.2 7.4Zm31.1-12.7c-1 2.7-1.7 5.9-2 9.3l-.7-1.3c.3-1.1 2.1-7.7.4-16.9 1.1 2.5 2.8 4.4 2.8 4.4l-.5 4.5Zm9.2-23c-1 2.1-1.5 1-1.5 1-.8-2.4-1.4-9.6-1.4-9.6-2-2.8-2.9 0-2.9 0-.3 2.4 1.2 9.6 1.2 9.6 0 2.2-1.8.3-1.8.3-3.9-1.5-2.5 2-2.5 2 .2 2.5-1.3 2.7-1.3 2.7a4.5 4.5 0 0 0-2.4 3.8l-.1-.4s.7-9.7 1.4-14c0 0 .7-5.2 2.2-7 0 0 5.3-2.5 8.2-6.1l.9-1.5c.5 4.8 1.2 8.7 1.8 11.8l-.3.4c-.1 2.2-1.5 7-1.5 7Zm1.6 21.7-.2-4.2c1.8-6.6 1.3-14.4 1.3-14.4l.4-4.8.4 1.3c.2 5.1-.3 11.6 1.6 16.4l-3.5 5.7Zm30.4 18-5 4.3c0-7.8 1-2.6 1.5-10.2 0 0 0-.8.9-3.7 0 0 .6-5.3 1-11.1v.2s.3 6.5 2.3 11.8c0 0-.3.7-.8 8.8Zm52-16.7-1.4 2.6c-.4-9-1-16.1-1-16.1a23 23 0 0 0 3.3-2.2c-.4 5.1-.8 10.6-1 15.7Zm1.2-18.6c-2.4 1.8-.6-4.6-.6-4.6l1.1-1.3a401 401 0 0 0-.5 5.9Zm10 16.9v-.6h.1l-.2.6Zm6-12.7c-.6.3-.5-.8-.3-1.8l1 1.1c-.5.8-.6.7-.6.7Zm2.3 20.6c-1-4.1-.5-7.4-.5-7.4 1.3-.4 1-1.2 1-1.2.2-.9-.7-1.4-.7-1.4-.2-1.1 1.8-2.8 1.8-2.8l.8-.6.1 1c-.6 4.1-.1 9.2.8 14.4l-3.3-2Z"/>
      <ellipse cx="168.9" cy="111.4" fill="url(#g)" rx="237" ry="169.9"/>
      <path fill="url(#h)" d="M405 75.7 438.6 86l-114 317-180.9-55.5L405 75.7z"/>
      <path fill="url(#i)" d="m207.7-9.9 40.7-6.7 147.8 362.4-223.3 21.4L207.7-9.9z" opacity=".6"/>
      <path fill="url(#j)" d="m92.9-9.5 40.7 6.9L104.5 334l-219.3-37L92.9-9.5z" opacity=".5"/>
      <path fill="url(#k)" d="m331.8 2.1 41.6 3.6 16.8 374.6L166.6 361 331.8 2.1z" opacity=".4"/>
      <path fill="url(#l)" d="m-103.8 37.1 35.7-15.6 336.8 286.8-192.3 84-180.2-355.2z" opacity=".4"/>
      <path fill="url(#m)" d="m-103.9 33.7 34.1-9.4 226.7 284.2L-26.7 359l-77.2-325.3z"/>
      <path fill="url(#n)" d="m261.9-23.8 31.2 19.9L8.8 310.7l-168.3-107.2L261.9-23.8z"/>
    </g>
    <g fill="#00b5cc" data-name="PRINT">
      <path d="M29.6 14c0 .4-.2 1-.6 1.3l-6.3 6.4-6.8-4V14a2 2 0 0 1 4 0v4.9l6.3-6.3a2 2 0 0 1 3.4 1.4ZM29 31.7a2 2 0 0 1-2.8 0L24 29.6l-4-4.2v4.9c0 1-1 2-2 2s-2-1-2-2v-3.9l6.8-3.9 4.2 4.2 2 2.2c.9.7.9 2 0 2.8ZM22.4 22l-.2-.3-1.8-1-4.5-2.6-3.9-2.3c-.2 0-.5 0-.6.2v11.9a.5.5 0 0 0 .6.4l3.9-2.2 6.2-3.6h.1l.1-.2V22Zm-9.6-4.8 3 1.8 4.9 2.8.1.1v.3l-.1.2-4.9 2.8-3 1.8c-.2 0-.4 0-.5-.2v-9.2c0-.2.1-.4.3-.4h.2Z"/>
      <path d="m19.5 22.2-.2.1-3.6 2.1-2.3 1.3h-.3v-7c0-.2 0-.3.2-.3h.1l2.3 1.4 3.6 2 .2.2v.2Zm43-.6L57 18.8l-3.4-1.7a.4.4 0 0 0-.6.1v9.5c.1.2.3.4.5.4l.2-.1.2-.1 3.2-1.7 2-1 3.5-2c.1 0 .2 0 .2-.2v-.2l-.2-.2ZM57 24.5l-2.6 1.4-.4-.1v-.2l-.2-7.2c0-.1.2-.3.4-.2l2.8 1.3 1 .5 3.3 1.7.2.2v.1l-.2.2-4.3 2.3Z"/>
      <path d="M60.1 22v.1L56.7 24l-2 1h-.3v-.1l-.1-5.5.2-.2h.1l2 1 3.3 1.7.1.1v.1Zm-21.6-4.8h-4.8V27h2.4v-3.1h2.5c2.3-.1 4-1.5 4-3.4s-1.8-3.2-4-3.2Zm-.2 4.6H36v-2.7h2.3c1.1 0 2 .5 2 1.3 0 .9-.9 1.4-2 1.4ZM51.8 27l-7.7.1-.2-9.7h2.4l.1 7.8 5.3-.1.1 1.9zm15.7-3.7.1 3.5h-2.4v-3.5l-4.3-6.1 2.7-.1 2.7 4.3 2.8-4.3 2.6-.1-4.2 6.3zm14.4 3.9-1.6.1-4.1-4.5-1.7 1.6v2.9l-1.2.1-.1-9.7h1.2l.1 5.3 5.4-5.4h1.6L77 22.1l4.9 5.1zm6.1-9.9c-3 0-5.5 2.4-5.5 5.1 0 2.7 2.6 5 5.6 5 3 0 5.5-2.4 5.5-5.1 0-2.7-2.6-5-5.6-5Zm.4 9a4.3 4.3 0 0 1-4.7-4 4.3 4.3 0 0 1 8.6 0 4.3 4.3 0 0 1-4 4Zm14.8-1.8c0 1.6-1.3 2.8-3.8 2.8a6 6 0 0 1-4.2-1.4l.7-.9a5 5 0 0 0 3.6 1.4c1.6 0 2.5-.9 2.5-1.8 0-1-1-1.4-3-1.8-2.1-.4-3.5-1-3.5-2.6s1.5-2.8 3.5-2.8c1.4 0 2.8.4 3.8 1.3l-.7.8a5 5 0 0 0-3.1-1.2c-1.3 0-2.3.9-2.3 1.7 0 1 1 1.4 3 1.8 2 .4 3.5 1 3.5 2.7Zm12.8 2.7h-1.2l-.1-7.3-3.9 6.8-4.1-6.7.1 7.3-1.3.1-.1-9.7h1.3l4 6.7 4-6.8h1.2l.1 9.6zm7.7-9.9c-3 0-5.5 2.4-5.5 5.1 0 2.7 2.6 5 5.6 5 3 0 5.5-2.4 5.5-5.1 0-2.7-2.6-5-5.6-5Zm.4 9a4.3 4.3 0 0 1-4.6-4 4.3 4.3 0 0 1 8.5 0 4.3 4.3 0 0 1-3.9 4Zm14.9-1.8c0 1.6-1.4 2.8-3.9 2.8A6.2 6.2 0 0 1 131 26l.7-.9.6.4c.8.6 1.9 1 3 1 1.6 0 2.5-.9 2.5-1.8 0-.7-.6-1.1-1.6-1.4L135 23h-.2c-2.1-.5-3.5-1-3.5-2.7 0-1.6 1.5-2.8 3.6-2.8a6 6 0 0 1 3.8 1.3l-.8.8a5 5 0 0 0-3-1.2c-1.4 0-2.4.9-2.4 1.7 0 1 1.1 1.4 3 1.8a14.6 14.6 0 0 1 2 .6c1 .4 1.5 1 1.5 2.1Z"/>
    </g>
    <path fill="#00b5cc" d="M167.5 148.1a5.4 5.4 0 0 0-4.4 8.7l4.4 7.6 4.4-7.6c.6-1 1-2 1-3.2 0-3-2.4-5.5-5.4-5.5Zm0 8a2.4 2.4 0 1 1 0-4.8 2.4 2.4 0 0 1 0 4.8Zm-41.9 113.8c0-.6.4-1 1-1h81.8c.6 0 1 .4 1 1s-.4 1-1 1h-81.8a1 1 0 0 1-1-1Zm0 30.2c0-.5.4-1 1-1h81.8a1 1 0 0 1 0 2h-81.8a1 1 0 0 1-1-1Zm-114 0h88.1v25H11.6zm321.8 1.2c-.8 2.7-1.8 5.3-3 7.8v21h-21.1a46 46 0 0 1-7.8 3.2c-3 .8-6.1-.6-7.5-3.1h-11.8a6.4 6.4 0 0 1-7.4 3c-2.7-.7-5.4-1.8-7.8-3h-21v-21a47 47 0 0 1-3.2-7.9c-.9-3 .5-6 3.1-7.4V282a6.4 6.4 0 0 1-3-7.5c.7-2.7 1.8-5.3 3-7.8v-21h21a45.9 45.9 0 0 1 9.7-3.4c2.3 0 4.5 1.3 5.6 3.4H294c1.4-2.6 4.4-4 7.5-3.1 2.7.8 5.3 1.8 7.8 3h21v21.1a45.9 45.9 0 0 1 3.4 9.7c0 2.3-1.3 4.5-3.4 5.6v11.8c2.6 1.3 4 4.4 3.1 7.4Z"/>
    <path fill="url(#o)" d="M248.5 248.4h79.2v79.2h-79.2z"/>
    <g fill="#fff">
      <path d="M298 314.3v6c0 1.6-1.2 2.9-2.8 2.9h-13.7a2.8 2.8 0 0 1-2.8-2.8v-13.7c0-1.6 1.3-2.8 2.8-2.8h6.3c.4 0 .7.3.7.7 0 .5-.3.8-.8.8h-5.9c-.9 0-1.7.8-1.7 1.7v13c0 1 .8 1.7 1.7 1.7h13c1 0 1.7-.8 1.7-1.7v-5.8c0-.5.3-.8.8-.8.4 0 .7.4.7.8Zm.6-6.4-4.5-4.5.3-.4a3.2 3.2 0 0 1 4.5 0 3.2 3.2 0 0 1 0 4.5l-.3.4Z"/>
      <path d="m297.8 308.7-6.8 6.7h-.3l-4.3.7c-.3 0-.5-.3-.5-.5l.6-4.4v-.3l6.8-6.7 4.5 4.5Z"/>
    </g>
    <g clip-path="url(#p)">
      <ellipse cx="523.9" cy="111.4" fill="url(#q)" rx="237" ry="169.9"/>
      <path fill="url(#r)" d="m447.9-9.5 40.7 6.9L459.5 334l-219.3-37L447.9-9.5z" opacity=".5"/>
      <path fill="url(#s)" d="m251.2 37.1 35.7-15.6 336.8 286.8-192.3 84L251.2 37.1z" opacity=".4"/>
      <path fill="url(#t)" d="m251.1 33.7 34.1-9.4 226.7 284.2L328.3 359 251.1 33.7z"/>
      <path fill="url(#u)" d="m616.9-23.8 31.2 19.9-284.3 314.6-168.3-107.2L616.9-23.8z"/>
    </g>
  </g>
</svg>
