<?xml version="1.0" encoding="UTF-8"?>
<svg id="uuid-92bbd908-7890-40d1-810c-ae8a27248220" data-name="Layer 1" xmlns="http://www.w3.org/2000/svg" width="335" height="335" xmlns:xlink="http://www.w3.org/1999/xlink" viewBox="0 0 335 335">
  <defs>
    <linearGradient id="uuid-e5793148-e1e6-48e3-9ba9-760a53c0cfe9" x1="167.5" y1="1" x2="167.5" y2="336" gradientTransform="translate(0 336) scale(1 -1)" gradientUnits="userSpaceOnUse">
      <stop offset="0" stop-color="#0072ff"/>
      <stop offset="1" stop-color="#0e0068"/>
    </linearGradient>
    <linearGradient id="uuid-00024cc4-a0a0-4519-9c8f-d6a4f0f4de5d" x1="263.15" y1="135.6" x2="263.15" y2="175.9" gradientTransform="translate(0 336) scale(1 -1)" gradientUnits="userSpaceOnUse">
      <stop offset="0" stop-color="#524eff"/>
      <stop offset="1" stop-color="#1d2eb8"/>
    </linearGradient>
    <linearGradient id="uuid-45c67cdc-7ad3-4462-8cb7-610681870c97" x1="301.4" y1="159.1" x2="318.9" y2="159.1" gradientTransform="translate(0 336) scale(1 -1)" gradientUnits="userSpaceOnUse">
      <stop offset="0" stop-color="#ffd930"/>
      <stop offset="1" stop-color="#ffa015"/>
    </linearGradient>
    <linearGradient id="uuid-86932058-7c91-4d59-a830-fad3018e83e1" x1="301.4" y1="160.6" x2="318.9" y2="160.6" gradientTransform="translate(0 336) scale(1 -1)" gradientUnits="userSpaceOnUse">
      <stop offset="0" stop-color="#fdf8b6"/>
      <stop offset="1" stop-color="#ffdc52"/>
    </linearGradient>
    <linearGradient id="uuid-b1ec8f3c-35cf-4db5-8273-1d2afec6b1e4" x1="303" y1="160.7" x2="317.3" y2="160.7" gradientTransform="translate(0 336) scale(1 -1)" gradientUnits="userSpaceOnUse">
      <stop offset="0" stop-color="#ffe85e"/>
      <stop offset="1" stop-color="#ffbf24"/>
    </linearGradient>
    <linearGradient id="uuid-fb5137d5-daa3-4adc-9d9d-4d3b2e5e681a" x1="303" y1="161.75" x2="317.3" y2="161.75" gradientTransform="translate(0 336) scale(1 -1)" gradientUnits="userSpaceOnUse">
      <stop offset="0" stop-color="#ffd930"/>
      <stop offset="1" stop-color="#ffa015"/>
    </linearGradient>
    <linearGradient id="uuid-32c45588-bd1a-4c90-b5e6-816df847d400" x1="301.4" y1="159.1" x2="318.9" y2="159.1" gradientTransform="translate(-2.5 332.4) scale(1 -1)" gradientUnits="userSpaceOnUse">
      <stop offset="0" stop-color="#ffd930"/>
      <stop offset="1" stop-color="#ffa015"/>
    </linearGradient>
    <linearGradient id="uuid-2dbd745c-0621-48d8-850c-c8a4435aee94" x1="301.4" y1="160.6" x2="318.9" y2="160.6" gradientTransform="translate(-2.5 332.4) scale(1 -1)" gradientUnits="userSpaceOnUse">
      <stop offset="0" stop-color="#fdf8b6"/>
      <stop offset="1" stop-color="#ffdc52"/>
    </linearGradient>
    <linearGradient id="uuid-5b3a589d-6cbe-4cb4-b91a-45994dfc080a" x1="303" y1="160.7" x2="317.3" y2="160.7" gradientTransform="translate(-2.5 332.4) scale(1 -1)" gradientUnits="userSpaceOnUse">
      <stop offset="0" stop-color="#ffe85e"/>
      <stop offset="1" stop-color="#ffbf24"/>
    </linearGradient>
    <linearGradient id="uuid-fec53fab-86a9-408f-bf72-edb3937ccc3a" x1="302.9" y1="161.75" x2="317.2" y2="161.75" gradientTransform="translate(-2.4 332.4) scale(1 -1)" gradientUnits="userSpaceOnUse">
      <stop offset="0" stop-color="#ffd930"/>
      <stop offset="1" stop-color="#ffa015"/>
    </linearGradient>
    <linearGradient id="uuid-1e7f5023-dcb7-485f-8adc-906b6c54bcc0" x1="301.4" y1="159.1" x2="318.9" y2="159.1" gradientTransform="translate(0 328.8) scale(1 -1)" gradientUnits="userSpaceOnUse">
      <stop offset="0" stop-color="#ffd930"/>
      <stop offset="1" stop-color="#ffa015"/>
    </linearGradient>
    <linearGradient id="uuid-524df9b6-7164-441e-b998-230121aba052" x1="301.4" y1="160.6" x2="318.9" y2="160.6" gradientTransform="translate(0 328.8) scale(1 -1)" gradientUnits="userSpaceOnUse">
      <stop offset="0" stop-color="#fdf8b6"/>
      <stop offset="1" stop-color="#ffdc52"/>
    </linearGradient>
    <linearGradient id="uuid-fdeae392-452a-4bbe-a3ed-afe2603ffdc2" x1="303" y1="160.7" x2="317.3" y2="160.7" gradientTransform="translate(0 328.8) scale(1 -1)" gradientUnits="userSpaceOnUse">
      <stop offset="0" stop-color="#ffe85e"/>
      <stop offset="1" stop-color="#ffbf24"/>
    </linearGradient>
    <linearGradient id="uuid-6ea9c8d7-ceb1-4adc-ac51-f7e5a459def1" x1="303" y1="161.75" x2="317.3" y2="161.75" gradientTransform="translate(0 328.8) scale(1 -1)" gradientUnits="userSpaceOnUse">
      <stop offset="0" stop-color="#ffd930"/>
      <stop offset="1" stop-color="#ffa015"/>
    </linearGradient>
    <linearGradient id="uuid-2515ba35-9a9c-4ee7-95a6-7359f40f95ba" x1="301.4" y1="159.1" x2="318.9" y2="159.1" gradientTransform="translate(0 325.2) scale(1 -1)" gradientUnits="userSpaceOnUse">
      <stop offset="0" stop-color="#ffd930"/>
      <stop offset="1" stop-color="#ffa015"/>
    </linearGradient>
    <linearGradient id="uuid-ba54286a-3490-4f72-8a98-de554898bafd" x1="301.4" y1="160.6" x2="318.9" y2="160.6" gradientTransform="translate(0 325.2) scale(1 -1)" gradientUnits="userSpaceOnUse">
      <stop offset="0" stop-color="#fdf8b6"/>
      <stop offset="1" stop-color="#ffdc52"/>
    </linearGradient>
    <linearGradient id="uuid-f621380f-8b28-42ac-bfbb-74795d9b8fe7" x1="303" y1="160.7" x2="317.3" y2="160.7" gradientTransform="translate(0 325.2) scale(1 -1)" gradientUnits="userSpaceOnUse">
      <stop offset="0" stop-color="#ffe85e"/>
      <stop offset="1" stop-color="#ffbf24"/>
    </linearGradient>
    <linearGradient id="uuid-137fbbff-1aac-49ed-8a54-cebee3cb2504" x1="303" y1="161.75" x2="317.3" y2="161.75" gradientTransform="translate(0 325.1) scale(1 -1)" gradientUnits="userSpaceOnUse">
      <stop offset="0" stop-color="#ffd930"/>
      <stop offset="1" stop-color="#ffa015"/>
    </linearGradient>
    <linearGradient id="uuid-f3d675ad-d8d4-4385-8b27-656f59ce990a" x1="301.4" y1="159.1" x2="318.9" y2="159.1" gradientTransform="translate(.8 321.6) scale(1 -1)" gradientUnits="userSpaceOnUse">
      <stop offset="0" stop-color="#ffd930"/>
      <stop offset="1" stop-color="#ffa015"/>
    </linearGradient>
    <linearGradient id="uuid-aff0f37b-4cb3-49ae-84fc-b1d19e8517ad" x1="301.4" y1="160.6" x2="318.9" y2="160.6" gradientTransform="translate(.8 321.6) scale(1 -1)" gradientUnits="userSpaceOnUse">
      <stop offset="0" stop-color="#fdf8b6"/>
      <stop offset="1" stop-color="#ffdc52"/>
    </linearGradient>
    <linearGradient id="uuid-1eff6ca7-79ac-4c49-b07c-6cdad2da71bc" x1="303" y1="160.7" x2="317.3" y2="160.7" gradientTransform="translate(.8 321.6) scale(1 -1)" gradientUnits="userSpaceOnUse">
      <stop offset="0" stop-color="#ffe85e"/>
      <stop offset="1" stop-color="#ffbf24"/>
    </linearGradient>
    <linearGradient id="uuid-b9f2eea1-d4b2-4311-a096-2d1c7d1ce72c" x1="302.9" y1="161.75" x2="317.2" y2="161.75" gradientTransform="translate(.9 321.5) scale(1 -1)" gradientUnits="userSpaceOnUse">
      <stop offset="0" stop-color="#ffd930"/>
      <stop offset="1" stop-color="#ffa015"/>
    </linearGradient>
    <linearGradient id="uuid-40cbcbfb-bd4c-4af1-b6f9-942e1998ba8d" x1="301.3" y1="159.1" x2="318.9" y2="159.1" gradientTransform="translate(-.8 318) scale(1 -1)" gradientUnits="userSpaceOnUse">
      <stop offset="0" stop-color="#ffd930"/>
      <stop offset="1" stop-color="#ffa015"/>
    </linearGradient>
    <linearGradient id="uuid-b277b987-a63b-4105-bc39-2f739dec81f9" x1="301.3" y1="160.6" x2="318.9" y2="160.6" gradientTransform="translate(-.8 318) scale(1 -1)" gradientUnits="userSpaceOnUse">
      <stop offset="0" stop-color="#fdf8b6"/>
      <stop offset="1" stop-color="#ffdc52"/>
    </linearGradient>
    <linearGradient id="uuid-2960682c-08af-4501-8918-0c06cdbf1f70" x1="303" y1="160.7" x2="317.3" y2="160.7" gradientTransform="translate(-.8 318) scale(1 -1)" gradientUnits="userSpaceOnUse">
      <stop offset="0" stop-color="#ffe85e"/>
      <stop offset="1" stop-color="#ffbf24"/>
    </linearGradient>
    <linearGradient id="uuid-48ee9af6-d4ee-48aa-bc27-bd082013b8f5" x1="303" y1="161.75" x2="317.3" y2="161.75" gradientTransform="translate(-.8 317.9) scale(1 -1)" gradientUnits="userSpaceOnUse">
      <stop offset="0" stop-color="#ffd930"/>
      <stop offset="1" stop-color="#ffa015"/>
    </linearGradient>
    <linearGradient id="uuid-9fb2298b-2477-4363-b0be-4af37f8654fb" x1="301.3" y1="159.1" x2="318.9" y2="159.1" gradientTransform="translate(-18.9 346.5) scale(1 -1)" gradientUnits="userSpaceOnUse">
      <stop offset="0" stop-color="#ffd930"/>
      <stop offset="1" stop-color="#ffa015"/>
    </linearGradient>
    <linearGradient id="uuid-0712c42f-7ad5-4f22-8385-954f5e59ba2f" x1="301.3" y1="160.6" x2="318.9" y2="160.6" gradientTransform="translate(-18.9 346.5) scale(1 -1)" gradientUnits="userSpaceOnUse">
      <stop offset="0" stop-color="#fdf8b6"/>
      <stop offset="1" stop-color="#ffdc52"/>
    </linearGradient>
    <linearGradient id="uuid-d907e2b5-0da8-49cc-9697-e6b87f991325" x1="303.1" y1="160.7" x2="317.3" y2="160.7" gradientTransform="translate(-19 346.5) scale(1 -1)" gradientUnits="userSpaceOnUse">
      <stop offset="0" stop-color="#ffe85e"/>
      <stop offset="1" stop-color="#ffbf24"/>
    </linearGradient>
    <linearGradient id="uuid-f66cde68-8c81-4c53-912b-f551d882744c" x1="303" y1="161.75" x2="317.2" y2="161.75" gradientTransform="translate(-18.9 346.5) scale(1 -1)" gradientUnits="userSpaceOnUse">
      <stop offset="0" stop-color="#ffd930"/>
      <stop offset="1" stop-color="#ffa015"/>
    </linearGradient>
    <linearGradient id="uuid-20313471-531f-4198-978a-a6f6a7bb3e17" x1="301.4" y1="159.1" x2="318.9" y2="159.1" gradientTransform="translate(-18.1 342.9) scale(1 -1)" gradientUnits="userSpaceOnUse">
      <stop offset="0" stop-color="#ffd930"/>
      <stop offset="1" stop-color="#ffa015"/>
    </linearGradient>
    <linearGradient id="uuid-dea86ddb-dff6-4576-ac8a-5e5e8237b7b4" x1="301.4" y1="160.6" x2="318.9" y2="160.6" gradientTransform="translate(-18.1 342.9) scale(1 -1)" gradientUnits="userSpaceOnUse">
      <stop offset="0" stop-color="#fdf8b6"/>
      <stop offset="1" stop-color="#ffdc52"/>
    </linearGradient>
    <linearGradient id="uuid-ab038de8-a25c-4e4e-8ff6-97ee0ebc9028" x1="303" y1="160.7" x2="317.3" y2="160.7" gradientTransform="translate(-18.1 342.9) scale(1 -1)" gradientUnits="userSpaceOnUse">
      <stop offset="0" stop-color="#ffe85e"/>
      <stop offset="1" stop-color="#ffbf24"/>
    </linearGradient>
    <linearGradient id="uuid-39b1de28-479b-4551-a649-979838a0ea71" x1="303" y1="161.75" x2="317.3" y2="161.75" gradientTransform="translate(-18.1 342.9) scale(1 -1)" gradientUnits="userSpaceOnUse">
      <stop offset="0" stop-color="#ffd930"/>
      <stop offset="1" stop-color="#ffa015"/>
    </linearGradient>
    <linearGradient id="uuid-61e91fb9-44f1-4644-bc25-dd63fdc95903" x1="301.4" y1="159.1" x2="318.9" y2="159.1" gradientTransform="translate(7.1 343) scale(1 -1)" gradientUnits="userSpaceOnUse">
      <stop offset="0" stop-color="#ffd930"/>
      <stop offset="1" stop-color="#ffa015"/>
    </linearGradient>
    <linearGradient id="uuid-96d19697-edbe-4ff5-bd16-6e1d76700287" x1="301.4" y1="160.6" x2="318.9" y2="160.6" gradientTransform="translate(7.1 343) scale(1 -1)" gradientUnits="userSpaceOnUse">
      <stop offset="0" stop-color="#fdf8b6"/>
      <stop offset="1" stop-color="#ffdc52"/>
    </linearGradient>
    <linearGradient id="uuid-8e90ad6e-e102-41a4-bd22-dbc2456df7f2" x1="303" y1="160.7" x2="317.3" y2="160.7" gradientTransform="translate(7.1 343) scale(1 -1)" gradientUnits="userSpaceOnUse">
      <stop offset="0" stop-color="#ffe85e"/>
      <stop offset="1" stop-color="#ffbf24"/>
    </linearGradient>
    <linearGradient id="uuid-5e423bd4-ae20-4d26-95d4-34154bd694eb" x1="302.9" y1="161.75" x2="317.2" y2="161.75" gradientTransform="translate(7.2 343) scale(1 -1)" gradientUnits="userSpaceOnUse">
      <stop offset="0" stop-color="#ffd930"/>
      <stop offset="1" stop-color="#ffa015"/>
    </linearGradient>
    <linearGradient id="uuid-d3c924ff-8bb6-49b3-8753-23e4329ebb14" x1="200.8" y1="74.2" x2="200.8" y2="316.2" gradientTransform="translate(0 336) scale(1 -1)" gradientUnits="userSpaceOnUse">
      <stop offset=".4" stop-color="#fff" stop-opacity="0"/>
      <stop offset="1" stop-color="#fff"/>
    </linearGradient>
    <linearGradient id="uuid-9e5909d3-f7c9-4716-8202-d1ac5bbc4675" x1="320.65" y1="-.3" x2="320.65" y2="124.4" gradientTransform="translate(0 336) scale(1 -1)" gradientUnits="userSpaceOnUse">
      <stop offset=".2" stop-color="#fff" stop-opacity="0"/>
      <stop offset="1" stop-color="#fff"/>
    </linearGradient>
    <linearGradient id="uuid-a8c43934-ddef-41a4-a4f0-89edb15893aa" x1="275.95" y1="1" x2="275.95" y2="85.5" gradientTransform="translate(0 336) scale(1 -1)" gradientUnits="userSpaceOnUse">
      <stop offset="0" stop-color="#fff" stop-opacity="0"/>
      <stop offset="1" stop-color="#fff"/>
    </linearGradient>
  </defs>
  <path d="M0,0H335V335H0V0Z" fill="url(#uuid-e5793148-e1e6-48e3-9ba9-760a53c0cfe9)"/>
  <path d="M244.5,200.4l-51.2-27.9,88.5-12.4,51.2,27.9-88.5,12.4Z" fill="url(#uuid-00024cc4-a0a0-4519-9c8f-d6a4f0f4de5d)"/>
  <g opacity=".5">
    <path id="uuid-3671d055-edc9-432c-b919-3c0a64111b08" data-name="U" d="M318.9,175.4c0-1.7-3.9-3-8.8-3s-8.8,1.4-8.8,3v3c0,1.7,3.9,3,8.8,3s8.8-1.4,8.8-3v-3Z" fill="url(#uuid-45c67cdc-7ad3-4462-8cb7-610681870c97)"/>
    <path id="uuid-ddfed430-e1c7-4548-b5f1-f0ee04c311cc" data-name="V" d="M318.9,175.4c0,1.7-3.9,3-8.8,3s-8.8-1.4-8.8-3,3.9-3,8.8-3,8.8,1.4,8.8,3Z" fill="url(#uuid-86932058-7c91-4d59-a830-fad3018e83e1)"/>
    <path id="uuid-a57fb970-1583-4226-99fa-9ea7626ad5ce" data-name="W" d="M317.3,175.3c0,1.2-3.2,2.3-7.1,2.3s-7.1-1-7.1-2.3,3.2-2.3,7.1-2.3,7.1,1,7.1,2.3Z" fill="url(#uuid-b1ec8f3c-35cf-4db5-8273-1d2afec6b1e4)"/>
    <path id="uuid-947e0df5-8aa9-4ea0-acac-23b745a8af9a" data-name="X" d="M310.1,173.4c3.8,0,6.9,.9,7.1,2.1v-.2c0-1.2-3.2-2.3-7.1-2.3s-7.1,1-7.1,2.3v.2c.3-1.2,3.3-2.1,7.1-2.1Z" fill="url(#uuid-fb5137d5-daa3-4adc-9d9d-4d3b2e5e681a)"/>
    <path id="uuid-8ab3ae28-42c4-434c-8641-7436aa2da262" data-name="U" d="M316.4,171.8c0-1.7-3.9-3-8.8-3s-8.8,1.4-8.8,3v3c0,1.7,3.9,3,8.8,3s8.8-1.4,8.8-3v-3Z" fill="url(#uuid-32c45588-bd1a-4c90-b5e6-816df847d400)"/>
    <path id="uuid-7bb092e5-5061-4cd3-b8cb-301980686392" data-name="V" d="M316.4,171.8c0,1.7-3.9,3-8.8,3s-8.8-1.4-8.8-3,3.9-3,8.8-3,8.8,1.4,8.8,3Z" fill="url(#uuid-2dbd745c-0621-48d8-850c-c8a4435aee94)"/>
    <path id="uuid-5f72571b-b94f-4d82-b33d-51e2106c3f76" data-name="W" d="M314.8,171.7c0,1.2-3.2,2.3-7.1,2.3s-7.1-1-7.1-2.3,3.2-2.3,7.1-2.3,7.1,1,7.1,2.3Z" fill="url(#uuid-5b3a589d-6cbe-4cb4-b91a-45994dfc080a)"/>
    <path id="uuid-43c2c28c-f25a-417d-a65b-e035bfff0b12" data-name="X" d="M307.7,169.8c3.8,0,6.9,.9,7.1,2.1v-.2c0-1.2-3.2-2.3-7.1-2.3s-7.1,1-7.1,2.3v.2c.3-1.2,3.3-2.1,7.1-2.1Z" fill="url(#uuid-fec53fab-86a9-408f-bf72-edb3937ccc3a)"/>
    <path id="uuid-f8b08975-894d-4e9a-8d72-faa72fc4e685" data-name="U" d="M318.9,168.2c0-1.7-3.9-3-8.8-3s-8.8,1.4-8.8,3v3c0,1.7,3.9,3,8.8,3s8.8-1.4,8.8-3v-3Z" fill="url(#uuid-1e7f5023-dcb7-485f-8adc-906b6c54bcc0)"/>
    <path id="uuid-8438e7a6-c220-4f32-8a82-3ba4e400b652" data-name="V" d="M318.9,168.2c0,1.7-3.9,3-8.8,3s-8.8-1.4-8.8-3,3.9-3,8.8-3,8.8,1.4,8.8,3Z" fill="url(#uuid-524df9b6-7164-441e-b998-230121aba052)"/>
    <path id="uuid-f3cfe00a-4104-4018-9a6f-4c7910affa64" data-name="W" d="M317.3,168.1c0,1.2-3.2,2.3-7.1,2.3s-7.1-1-7.1-2.3,3.2-2.3,7.1-2.3,7.1,1,7.1,2.3Z" fill="url(#uuid-fdeae392-452a-4bbe-a3ed-afe2603ffdc2)"/>
    <path id="uuid-e9c7563f-6946-4d7b-9a89-3fe61cda6a87" data-name="X" d="M310.1,166.2c3.8,0,6.9,.9,7.1,2.1v-.2c0-1.2-3.2-2.3-7.1-2.3s-7.1,1-7.1,2.3v.2c.3-1.2,3.3-2.1,7.1-2.1Z" fill="url(#uuid-6ea9c8d7-ceb1-4adc-ac51-f7e5a459def1)"/>
    <path id="uuid-75fdde92-56a5-4db4-8b78-c32bf2b06d39" data-name="U" d="M318.9,164.6c0-1.7-3.9-3-8.8-3s-8.8,1.4-8.8,3v3c0,1.7,3.9,3,8.8,3s8.8-1.4,8.8-3v-3Z" fill="url(#uuid-2515ba35-9a9c-4ee7-95a6-7359f40f95ba)"/>
    <path id="uuid-94b0d55d-5222-4f61-a763-ea25d35a8944" data-name="V" d="M318.9,164.6c0,1.7-3.9,3-8.8,3s-8.8-1.4-8.8-3,3.9-3,8.8-3,8.8,1.4,8.8,3Z" fill="url(#uuid-ba54286a-3490-4f72-8a98-de554898bafd)"/>
    <path id="uuid-ff586b22-f03a-4b54-ab60-d515fb6d890f" data-name="W" d="M317.3,164.5c0,1.2-3.2,2.3-7.1,2.3s-7.1-1-7.1-2.3,3.2-2.3,7.1-2.3,7.1,1,7.1,2.3Z" fill="url(#uuid-f621380f-8b28-42ac-bfbb-74795d9b8fe7)"/>
    <path id="uuid-5d4cd8da-4818-45f9-a1af-0ae7dfff0f94" data-name="X" d="M310.1,162.5c3.8,0,6.9,.9,7.1,2.1v-.2c0-1.2-3.2-2.3-7.1-2.3s-7.1,1-7.1,2.3v.2c.3-1.2,3.3-2.1,7.1-2.1Z" fill="url(#uuid-137fbbff-1aac-49ed-8a54-cebee3cb2504)"/>
    <path id="uuid-c89873c6-7d5c-4318-b70f-2e39f7c7f454" data-name="U" d="M319.7,161c0-1.7-3.9-3-8.8-3s-8.8,1.4-8.8,3v3c0,1.7,3.9,3,8.8,3s8.8-1.4,8.8-3v-3Z" fill="url(#uuid-f3d675ad-d8d4-4385-8b27-656f59ce990a)"/>
    <path id="uuid-19422ecb-b541-4bb4-bf79-2abb8a20a191" data-name="V" d="M319.7,161c0,1.7-3.9,3-8.8,3s-8.8-1.4-8.8-3,3.9-3,8.8-3,8.8,1.4,8.8,3Z" fill="url(#uuid-aff0f37b-4cb3-49ae-84fc-b1d19e8517ad)"/>
    <path id="uuid-8ee8a42f-6b8f-4ed6-9629-9ac57e398ac0" data-name="W" d="M318.1,160.9c0,1.2-3.2,2.3-7.1,2.3s-7.1-1-7.1-2.3,3.2-2.3,7.1-2.3,7.1,1,7.1,2.3Z" fill="url(#uuid-1eff6ca7-79ac-4c49-b07c-6cdad2da71bc)"/>
    <path id="uuid-6a6acd57-0531-4997-ab17-36cc4fa3c80c" data-name="X" d="M311,158.9c3.8,0,6.9,.9,7.1,2.1v-.2c0-1.2-3.2-2.3-7.1-2.3s-7.1,1-7.1,2.3v.2c.3-1.2,3.3-2.1,7.1-2.1Z" fill="url(#uuid-b9f2eea1-d4b2-4311-a096-2d1c7d1ce72c)"/>
    <path id="uuid-7411ee88-9da2-476f-8e3c-ab0c7ef9556b" data-name="U" d="M318.1,157.4c0-1.7-3.9-3-8.8-3s-8.8,1.4-8.8,3v3c0,1.7,3.9,3,8.8,3s8.8-1.4,8.8-3v-3Z" fill="url(#uuid-40cbcbfb-bd4c-4af1-b6f9-942e1998ba8d)"/>
    <path id="uuid-1ba39062-7716-4981-991f-3210bbdcd3f3" data-name="V" d="M318.1,157.4c0,1.7-3.9,3-8.8,3s-8.8-1.4-8.8-3,3.9-3,8.8-3,8.8,1.4,8.8,3Z" fill="url(#uuid-b277b987-a63b-4105-bc39-2f739dec81f9)"/>
    <path id="uuid-ba6474fb-879b-4a30-9a8d-300d57d9560a" data-name="W" d="M316.5,157.3c0,1.2-3.2,2.3-7.1,2.3s-7.1-1-7.1-2.3,3.2-2.3,7.1-2.3,7.1,1,7.1,2.3Z" fill="url(#uuid-2960682c-08af-4501-8918-0c06cdbf1f70)"/>
    <path id="uuid-1974ad00-bbcb-41bf-bd4f-53a95a5e0b5a" data-name="X" d="M309.3,155.3c3.8,0,6.9,.9,7.1,2.1v-.2c0-1.2-3.2-2.3-7.1-2.3s-7.1,1-7.1,2.3v.2c.3-1.2,3.3-2.1,7.1-2.1Z" fill="url(#uuid-48ee9af6-d4ee-48aa-bc27-bd082013b8f5)"/>
    <path id="uuid-3a42ae13-05ea-4ede-81fe-c5722318fc6c" data-name="U" d="M300,185.9c0-1.7-3.9-3-8.8-3s-8.8,1.4-8.8,3v3c0,1.7,3.9,3,8.8,3s8.8-1.4,8.8-3v-3Z" fill="url(#uuid-9fb2298b-2477-4363-b0be-4af37f8654fb)"/>
    <path id="uuid-f30f8e81-3379-4a4f-96a6-71e05c3031cb" data-name="V" d="M300,185.9c0,1.7-3.9,3-8.8,3s-8.8-1.4-8.8-3,3.9-3,8.8-3,8.8,1.4,8.8,3Z" fill="url(#uuid-0712c42f-7ad5-4f22-8385-954f5e59ba2f)"/>
    <path id="uuid-9ea47012-ff9d-4505-8eb2-9c169f83e8b2" data-name="W" d="M298.3,185.8c0,1.2-3.2,2.3-7.1,2.3s-7.1-1-7.1-2.3,3.2-2.3,7.1-2.3,7.1,1,7.1,2.3Z" fill="url(#uuid-d907e2b5-0da8-49cc-9697-e6b87f991325)"/>
    <path id="uuid-3260f23d-dd54-4ccb-a626-c7c78c8e716d" data-name="X" d="M291.2,183.9c3.8,0,6.9,.9,7.1,2.1v-.2c0-1.2-3.2-2.3-7.1-2.3s-7.1,1-7.1,2.3v.2c.3-1.2,3.3-2.1,7.1-2.1Z" fill="url(#uuid-f66cde68-8c81-4c53-912b-f551d882744c)"/>
    <path id="uuid-7ee6def6-6151-4804-8f19-1b00ec48f3e9" data-name="U" d="M300.8,182.3c0-1.7-3.9-3-8.8-3s-8.8,1.4-8.8,3v3c0,1.7,3.9,3,8.8,3s8.8-1.4,8.8-3v-3Z" fill="url(#uuid-20313471-531f-4198-978a-a6f6a7bb3e17)"/>
    <path id="uuid-f11efdde-6791-4bec-b4c6-9a906785333d" data-name="V" d="M300.8,182.3c0,1.7-3.9,3-8.8,3s-8.8-1.4-8.8-3,3.9-3,8.8-3,8.8,1.4,8.8,3Z" fill="url(#uuid-dea86ddb-dff6-4576-ac8a-5e5e8237b7b4)"/>
    <path id="uuid-f6b81665-7352-452b-9c93-5bb3b09c9dde" data-name="W" d="M299.2,182.2c0,1.2-3.2,2.3-7.1,2.3s-7.1-1-7.1-2.3,3.2-2.3,7.1-2.3,7.1,1,7.1,2.3Z" fill="url(#uuid-ab038de8-a25c-4e4e-8ff6-97ee0ebc9028)"/>
    <path id="uuid-f4dcd49c-9134-4320-8437-bcdeff22e6a4" data-name="X" d="M292,180.3c3.8,0,6.9,.9,7.1,2.1v-.2c0-1.2-3.2-2.3-7.1-2.3s-7.1,1-7.1,2.3v.2c.3-1.2,3.3-2.1,7.1-2.1Z" fill="url(#uuid-39b1de28-479b-4551-a649-979838a0ea71)"/>
    <path id="uuid-31ba108f-4205-44f6-95a0-37cb40e65061" data-name="U" d="M326,182.4c0-1.7-3.9-3-8.8-3s-8.8,1.4-8.8,3v3c0,1.7,3.9,3,8.8,3s8.8-1.4,8.8-3v-3Z" fill="url(#uuid-61e91fb9-44f1-4644-bc25-dd63fdc95903)"/>
    <path id="uuid-2c316728-6120-4482-b1c8-88084233cfd3" data-name="V" d="M326,182.4c0,1.7-3.9,3-8.8,3s-8.8-1.4-8.8-3,3.9-3,8.8-3,8.8,1.4,8.8,3Z" fill="url(#uuid-96d19697-edbe-4ff5-bd16-6e1d76700287)"/>
    <path id="uuid-0f8bf7a2-ddbb-4069-b2db-4787f83cc185" data-name="W" d="M324.4,182.3c0,1.2-3.2,2.3-7.1,2.3s-7.1-1-7.1-2.3,3.2-2.3,7.1-2.3,7.1,1,7.1,2.3Z" fill="url(#uuid-8e90ad6e-e102-41a4-bd22-dbc2456df7f2)"/>
    <path id="uuid-8189b617-6d20-4e53-a2ce-93c5f33f73ac" data-name="X" d="M317.3,180.4c3.8,0,6.9,.9,7.1,2.1v-.2c0-1.2-3.2-2.3-7.1-2.3s-7.1,1-7.1,2.3v.2c.3-1.2,3.3-2.1,7.1-2.1Z" fill="url(#uuid-5e423bd4-ae20-4d26-95d4-34154bd694eb)"/>
  </g>
  <path d="M258,77l-57.2-57.2-57.2,57.2h30.5v184.8h55V77h28.9Z" fill="url(#uuid-d3c924ff-8bb6-49b3-8753-23e4329ebb14)" isolation="isolate" opacity=".2"/>
  <path d="M335,216.2l-5.4-4.6-23.3,28.8,12.4-2.3,.3,96.9h16v-118.8Z" fill="url(#uuid-9e5909d3-f7c9-4716-8202-d1ac5bbc4675)" isolation="isolate" opacity=".2"/>
  <path d="M295.7,288.7l.5,46.3h-38.4l-.6-39.3-21.2,4,39.8-49.2,40.1,34.4-20.2,3.8" fill="url(#uuid-a8c43934-ddef-41a4-a4f0-89edb15893aa)" isolation="isolate" opacity=".2"/>
  <rect x="255.88" y="38.36" width="69.6" height="43.9" rx="2.1" ry="2.1" transform="translate(54.14 239.71) rotate(-48.9)" fill="#fbb040"/>
  <g>
    <rect x="264.74" y="67.18" width="12.4" height="11.3" rx="2.4" ry="2.4" transform="translate(36.05 226.27) rotate(-48.2)" fill="#2b0000" stroke="#62605c" stroke-miterlimit="17.3" stroke-width=".2"/>
    <g>
      <path d="M264.4,71.3l8.4,7.5m-7.9-3.1l1.9-2.2m-.3,3.8l1.9-2.3m-.1,3.8l1.9-2.2m3.2-9.8l-2.6,3,5.7,5" fill="#2b0000" stroke="#5c5c5b" stroke-miterlimit="17.3" stroke-width=".2"/>
      <path d="M272.4,71.3l2.7-3.1m-.9,4.7l2.7-3m-10.5,2.3l3-3.4m3.4,8.9l2.6-3" fill="#2b0000" stroke="#5c5c5b" stroke-miterlimit="17.3" stroke-width=".2"/>
    </g>
  </g>
  <path d="M277.7,82.8l-1.1,1.3-.3-.2,.4-.5-1.7-1.5-.4,.5-.2-.2c.2-.2,.2-.3,.3-.5,0,0,0-.3-.2-.4l.2-.3,2.3,2.1,.4-.5,.3,.2h0Zm1.8-2.1l-1.4,1.6-.4-.3v-1.2c0-.4-.1-.7-.2-.9,0-.2-.2-.3-.3-.5s-.1,0-.2,0h-.4s-.1,0-.2,.2-.1,0-.1,.2c0,0,0,.2-.1,.2v.4l-.4-.3s0-.2,.2-.4,.2-.3,.3-.4c.2-.2,.4-.4,.7-.4s.5,0,.7,.3,.2,.2,.3,.3c0,0,.1,.2,.2,.3v2.1l1.1-1.3,.3,.3v-.2h-.1Zm-1.4-3.1s-.1,0-.1,.2c0,0,0,.2-.1,.2v.4l-.4-.3s0-.2,.2-.4c0-.2,.2-.3,.3-.4l.3-.3h.7c.1,0,.2,0,.3,.2s.2,.3,.3,.5v.5h.8c.1,0,.2,0,.3,.2l.3,.3s.1,.3,.1,.4v.4s-.1,.3-.3,.4-.2,.2-.4,.3-.3,.2-.4,.2l-.4-.3c.1,0,.3,0,.4-.2,.2,0,.3-.2,.4-.3s.1-.2,.2-.2v-.6s-.1-.2-.2-.2-.2,0-.3-.2h-.4l-.2,.2h-.4v-.2c.2-.2,.3-.3,.3-.5s0-.3-.2-.4-.1,0-.2,0h-.4s-.1,0-.2,.2h-.3v-.1Zm4-1.7l-.3,.3,.9,.8-.3,.3-.9-.8-1,1.2-.4-.3-.3-2.3,.3-.3,1.4,1.2,.3-.3,.3,.2h0Zm-.8,.4l-1-.9,.3,1.8,.8-.9h-.1Zm3.5-3.3c.1,0,.2,.2,.3,.4s.1,.3,.1,.4v.4s-.1,.3-.3,.4-.2,.2-.4,.3c-.1,0-.3,.2-.4,.2l-.4-.3h.6l.2-.2s.1,0,.1-.2v-.6s-.1-.2-.2-.2-.2,0-.3-.2h-.5s-.2,0-.2,.2-.2,.2-.2,.3-.1,.2-.2,.3l-1.3-1.2,1.2-1.4,.3,.3-1,1.1,.7,.6v-.2l.3-.3c.1,0,.2,0,.4-.2h.4c.1,0,.3,0,.4,.3h.4v-.2Zm1.7-2.1c.1,0,.2,.2,.3,.4,0,0,.1,.3,.1,.4v.4s-.1,.3-.2,.4l-.3,.3h-1c-.2,0-.4-.2-.7-.4s-.4-.4-.6-.6l-.3-.6v-.6c0-.2,.2-.4,.3-.6s.1,0,.2-.2h.1l.3,.2h-.2l-.2,.2c-.2,.2-.3,.5-.2,.7s.2,.5,.4,.8v-.4s.1-.2,.2-.3,.2-.2,.3-.2h.8c.2,0,.3,0,.5,.3l.2-.2h0Zm-.3,.4c-.1,0-.2-.2-.3-.2h-.5l-.2,.2c-.1,0-.1,.2-.2,.3v.3c.2,.2,.3,.3,.5,.3h.9c.1,0,.2-.3,.1-.5,0-.2-.1-.3-.3-.5v.1Zm.6-3.5l1.2,3.1-.3,.4-1.3-3.2-1.2,1.3-.3-.3,1.4-1.7,.4,.3,.1,.1Zm3.3,.9c-.1,0-.2,.2-.4,.3h-.8c-.1,0-.2,0-.4-.2s-.2-.3-.3-.5,0-.4,0-.6h-.5c-.1,0-.3,0-.4-.2-.2-.2-.3-.4-.3-.7s0-.5,.3-.7,.4-.4,.7-.4,.5,0,.7,.2,.2,.2,.3,.4v.5h.6c.2,0,.3,0,.5,.2s.3,.4,.3,.7,0,.6-.3,.8v.2h0Zm-.3-1.1c-.1,0-.2,0-.3-.2h-.9v.4s.1,.3,.3,.4,.3,.2,.5,.2,.3,0,.5-.2,.2-.3,.2-.5,0-.3-.2-.4v.2h-.1v.1Zm-1.4-.9h-.4c-.2,0-.3,0-.4,.2s-.2,.3-.2,.4,0,.3,.2,.4,.2,0,.3,0h.8v-.4s-.1-.2-.2-.3v-.2l-.1-.1Zm1.8-1.8c-.1,0-.2-.2-.3-.4,0,0-.1-.3-.1-.4v-.4s.1-.3,.2-.4l.3-.3h1c.2,0,.4,.2,.7,.4s.4,.4,.6,.6c.2,.2,.2,.4,.3,.6v.6c0,.2-.2,.4-.3,.6s0,0-.1,0h-.2l-.3-.3h.2l.2-.3c.2-.2,.3-.5,.2-.7,0-.3-.2-.5-.5-.8v.4s-.1,.2-.2,.3-.2,.2-.3,.2h-.8c-.2,0-.3,0-.5-.3v.6h-.1Zm1.2-1.1c-.2-.2-.3-.3-.5-.3h-.9c-.1,0-.2,.3-.1,.5,0,.2,.1,.3,.3,.5s.2,.2,.3,.2h.5s.1,0,.2-.2,.1-.2,.2-.3v-.4Zm2.4-2.2c.5,.4,.8,.8,.9,1.1s0,.6-.2,.9-.5,.4-.9,.3c-.3,0-.7-.3-1.2-.7s-.8-.8-.9-1.1,0-.6,.2-.9,.5-.4,.9-.3c.3,0,.7,.3,1.2,.7Zm.4,1.1s-.1-.2-.3-.4l-.4-.4c-.1,0-.3-.3-.5-.4-.1,0-.3-.2-.4-.2h-.3s-.2,0-.3,.2-.1,.2-.1,.3v.3s.1,.2,.3,.4l.4,.4c.1,0,.3,.3,.5,.4,.1,0,.3,.2,.4,.2h.3c.1,0,.2,0,.3-.2s.1-.2,.1-.3v-.3Zm2.5-1.8l-1.1,1.3-.3-.2,.4-.5-1.7-1.5-.4,.5-.2-.2c.2-.2,.2-.3,.3-.5,0,0,0-.3-.2-.4l.2-.3,2.3,2.1,.4-.5,.3,.2h0Zm1.9-2.1l-1.4,1.6-.4-.3v-1.2c0-.4-.1-.7-.2-.9,0-.2-.2-.3-.3-.5s-.1,0-.2,0h-.4s-.1,0-.2,.2-.1,0-.1,.2c0,0,0,.2-.1,.2v.4l-.4-.3s0-.2,.2-.4,.2-.3,.3-.4c.2-.2,.4-.4,.7-.4s.5,0,.7,.3,.2,.2,.3,.3c0,0,.1,.2,.2,.3v2.1l1.1-1.3,.3,.3v-.2h-.1Zm-.5-4.2s-.1,0-.1,.2c0,0,0,.2-.1,.2v.4l-.4-.3s0-.2,.2-.4c0-.2,.2-.3,.3-.4l.3-.3h.7c.1,0,.2,0,.3,.2s.2,.3,.3,.5v.5h.8c.1,0,.2,0,.3,.2l.3,.3s.1,.3,.1,.4v.4s-.1,.3-.3,.4-.2,.2-.4,.3-.3,.2-.4,.2l-.4-.3c.1,0,.3,0,.4-.2,.2,0,.3-.2,.4-.3s.1-.2,.2-.2v-.6s-.1-.2-.2-.2-.2,0-.3-.2h-.4l-.2,.2h-.4v-.2c.2-.2,.3-.3,.3-.5s0-.3-.2-.4-.1,0-.2,0h-.4s-.1,0-.2,.2h-.3v-.1Zm4-1.6l-.3,.3,.9,.8-.3,.3-.9-.8-1,1.2-.4-.3-.3-2.3,.3-.3,1.4,1.2,.3-.3,.3,.2Zm-.8,.4l-1-.9,.3,1.8,.8-.9h-.1Zm2.5-2.2c.1,0,.2,.2,.3,.4s.1,.3,.1,.4v.4s-.1,.3-.3,.4-.2,.2-.4,.3c-.1,0-.3,.2-.4,.2l-.4-.3h.6l.2-.2s.1,0,.1-.2v-.6s-.1-.2-.2-.2-.2,0-.3-.2h-.5s-.2,0-.2,.2-.2,.2-.2,.3-.1,.2-.2,.3l-1.3-1.2,1.2-1.4,.3,.3-1,1.1,.7,.6v-.2l.3-.3c.1,0,.2,0,.4-.2h.4c.1,0,.3,0,.4,.3h.4v-.2h0Zm1.8-2.1c.1,0,.2,.2,.3,.4,0,0,.1,.3,.1,.4v.4s-.1,.3-.2,.4l-.3,.3h-1c-.2,0-.4-.2-.7-.4s-.4-.4-.6-.6l-.3-.6v-.6c0-.2,.2-.4,.3-.6s.1,0,.2-.2,0,0,.1,0l.3,.3h-.2l-.2,.2c-.2,.2-.3,.5-.2,.7s.2,.5,.4,.8v-.4s.1-.2,.2-.3,.2-.2,.3-.2h.8c.2,0,.3,0,.5,.3l.2-.2v-.1Zm-.3,.2c-.1,0-.2-.2-.3-.2h-.5l-.2,.2c-.1,0-.1,.2-.2,.3v.3c.2,.2,.3,.3,.5,.3h.9c.1,0,.2-.3,.1-.5,0-.2-.1-.3-.3-.5v.1Z" fill="#fff"/>
  <path d="M300.6,33.6c1.3-.5,2.7-.3,3.7,.6,1,.8,1.6,2.2,1.4,3.5m-4.5-2.8c.8-.3,1.7-.2,2.3,.4s1,1.4,.9,2.2m-3-1.5c.5-.2,1,0,1.4,.2s.6,.8,.5,1.3" fill="none" isolation="isolate" opacity=".8" stroke="#fff" stroke-linecap="round" stroke-miterlimit="15.1" stroke-width=".8"/>
  <path d="M289.7,77.6v.2l-1.1-.8v.4h-.1v-.8l1.2,1Zm.8-.8v.2l-1.1-.8v.4h-.1v-.8l1.2,1Zm.3-.3l-1-1.5h.1l1,1.3h-.1v.2Zm1-1.5h.1l-.7,.9v-1.2s0-.2-.1-.2h-.4c-.1,0,0,0,0,.2s0,.2,.1,.2h-.2c-.1,0-.2,0-.2-.2s0-.2,.2-.4,.2-.2,.3-.2h.3v1.1h.1l.5-.5v.3h0Zm.8-1h.1l-.7,.9v-1.2s0-.2-.1-.2h-.4c-.1,0,0,0,0,.2s0,.2,.1,.2h-.2c-.1,0-.2,0-.2-.2s0-.2,.2-.4,.2-.2,.3-.2h.3v1.1h.1l.5-.5v.3h0Zm5.6-6.1v.2l-1.1-.8v.4h-.1v-.8l1.2,1Zm.7-.8v.2l-1.1-.8v.4h-.1v-.8l1.2,1Zm.3-.3l-1-1.5h.1l1,1.3h-.1v.2Zm1.1-1.5h.1l-.7,.9v-1.2s0-.2-.1-.2h-.4c-.1,0,0,0,0,.2s0,.2,.1,.2h-.2c-.1,0-.2,0-.2-.2s0-.2,.2-.4,.2-.2,.3-.2h.3v1.1h.1l.5-.5v.3h0Zm.8-1h.1l-.7,.9v-1.2s0-.2-.1-.2h-.4c-.1,0,0,0,0,.2s0,.2,.1,.2h-.2c-.1,0-.2,0-.2-.2s0-.2,.2-.4,.2-.2,.3-.2h.3v1.1h.1l.5-.5v.3h0Z"/>
  <g>
    <rect x="265.64" y="67.88" width="10.8" height="9.9" rx="2.1" ry="2.1" transform="translate(36.09 226.34) rotate(-48.2)" fill="#efbc61" stroke="#62605c" stroke-miterlimit="15.1" stroke-width=".1"/>
    <g>
      <path d="M265.2,71.5l7.4,6.6m-7-2.8l1.6-1.9m-.2,3.3l1.7-2m-.1,3.3l1.6-1.9m2.8-8.6l-2.3,2.6,5,4.4" fill="none" stroke="#5c5c5b" stroke-miterlimit="15.1" stroke-width=".2"/>
      <path d="M272.1,71.5l2.3-2.7m-.6,4l2.3-2.6m-9.2,2.1l2.6-3m3,7.8l2.3-2.6" fill="none" stroke="#5c5c5b" stroke-miterlimit="15.1" stroke-width=".2"/>
    </g>
  </g>
  <g>
    <path d="M287.1,76.5l-1-.4,.7,.2h.2l-.4-.8,.5,.8v.2h0Zm.3-.4l-.5-.9,1,.2h-.4l-.3,.3,.2,.3v.1Zm-.1,0l.2-.3h-.3s-.1-.2-.2-.2v.5h.3Zm.8-.7l-.7-.6,.7,.5,.3-.4-.4,.5h.1Zm.5-.6l-.7-.6,.7,.6Zm.2-.3l-.7-.6,.2-.3h.6s.1,0,.1,.2v.2l-.2,.4v.1Zm0,.1v-.2h.2v-.2h-.6v.3l.4,.5v-.4Zm.9-1.1l-.7-.6,.4-.5-.4,.5,.2,.2,.3-.3-.3,.4,.3,.3h.2Zm.6-.7l-.7-.6,.3-.3h.4c.1,0,0,0,0,.2v.2h.5v.2h-.5l.3,.4h-.3v-.1Zm-.3-.6l.2-.2h-.4l.2,.3v-.1Z" fill="#fff"/>
    <path id="uuid-0d25715d-7447-4785-a73a-7b00259b3796" data-name="Y" d="M290.5,71.8c-.1,0-.2-.2-.2-.4s0-.2,.1-.3,.1,0,.2,0h.4s.1,0,.2,.2v.2s0,.2-.1,.2h-.6v.1Zm0,.3h.5v-.3s0-.2-.2-.3-.1,0-.2,0h-.4v.2s0,.2,.2,.3v.2h.1v-.1Zm1.1-.8l-.7-.6h.8c0,.2,.1,.2,.1,.2l-.4-.7h.1l.7,.5-.6-.4,.4,.8-.8-.2,.6,.6-.2-.2Zm1.2-1.4l-1-.4,.7,.2h.2l-.4-.8,.5,.8v.2h0Z" fill="#fff"/>
    <path d="M293.1,69.6l-.5-.9,1,.2h-.4l-.3,.3,.2,.3v.1Zm-.1,0l.2-.3h-.3s-.1-.2-.2-.2v.5h.3Zm.8-.8l-.7-.6,.7,.5,.3-.4-.4,.5h.1Zm.5-.6l-.7-.6,.7,.6Zm.2-.3l-.7-.6,.2-.3h.6s.1,0,.1,.2v.2l-.2,.4v.1Zm0,.1v-.2h.2v-.2h-.6v.3l.4,.5v-.4Zm1.1-1.3l-.7-.6-.2,.2,.5-.7-.2,.3,.7,.6v.2h-.1Zm.4-.4l-.7-.6,.3,.2,.3-.4-.3-.3,.7,.6-.3-.2-.3,.4,.3,.3Zm.6-.8l-.7-.6,.3-.3h.4c.1,0,0,0,0,.2v.2h.5v.2h-.5l.3,.4h-.3v-.1Zm-.3-.6l.2-.2h-.4l.2,.3v-.1Zm.7-1.2l.4,.3,.2,.2v.4c-.2,.2-.2,0-.3,0h-.4l-.4-.4,.4,.3h.4v-.4l-.5-.4h.2Zm-9.9,12.8l-1-.4,.7,.2h.2l-.4-.8,.5,.8v.2h0Zm.3-.4l-.5-.9,1,.2h-.4l-.3,.3,.2,.3v.1Zm-.1,0l.2-.3h-.3s-.1-.2-.2-.2v.5h.3Zm.8-.7l-.7-.6,.7,.5,.3-.4-.4,.5h.1Zm.5-.6l-.7-.6,.7,.6Zm.2-.3l-.7-.6,.2-.3h.6s.1,0,.1,.2v.2l-.2,.4v.1Zm0,.1v-.2h.2v-.2h-.6v.3l.4,.5v-.4Zm.9-1.1l-.7-.6,.4-.5-.4,.5,.2,.2,.3-.3-.3,.4,.3,.3h.2Zm.6-.7l-.7-.6,.3-.3h.4c.1,0,0,0,0,.2v.2h.5v.2h-.5l.3,.4h-.3v-.1Zm-.3-.6l.2-.2h-.4l.2,.3v-.1Z" fill="#fff"/>
    <path id="uuid-3291206a-4930-40f7-b06c-9de86e5e12b0" data-name="Y" d="M290.5,71.8c-.1,0-.2-.2-.2-.4s0-.2,.1-.3,.1,0,.2,0h.4s.1,0,.2,.2v.2s0,.2-.1,.2h-.6v.1Zm0,.3h.5v-.3s0-.2-.2-.3-.1,0-.2,0h-.4v.2s0,.2,.2,.3v.2h.1v-.1Zm1.1-.8l-.7-.6h.8c0,.2,.1,.2,.1,.2l-.4-.7h.1l.7,.5-.6-.4,.4,.8-.8-.2,.6,.6-.2-.2Zm1.2-1.4l-1-.4,.7,.2h.2l-.4-.8,.5,.8v.2h0Z" fill="#fff"/>
    <path d="M293.1,69.6l-.5-.9,1,.2h-.4l-.3,.3,.2,.3v.1Zm-.1,0l.2-.3h-.3s-.1-.2-.2-.2v.5h.3Zm.8-.8l-.7-.6,.7,.5,.3-.4-.4,.5h.1Zm.5-.6l-.7-.6,.7,.6Zm.2-.3l-.7-.6,.2-.3h.6s.1,0,.1,.2v.2l-.2,.4v.1Zm0,.1v-.2h.2v-.2h-.6v.3l.4,.5v-.4Zm1.1-1.3l-.7-.6-.2,.2,.5-.7-.2,.3,.7,.6v.2h-.1Zm.4-.4l-.7-.6,.3,.2,.3-.4-.3-.3,.7,.6-.3-.2-.3,.4,.3,.3Zm.6-.8l-.7-.6,.3-.3h.4c.1,0,0,0,0,.2v.2h.5v.2h-.5l.3,.4h-.3v-.1Zm-.3-.6l.2-.2h-.4l.2,.3v-.1Zm.7-1.2l.4,.3,.2,.2v.4c-.2,.2-.2,0-.3,0h-.4l-.4-.4,.4,.3h.4v-.4l-.5-.4h.2Z" fill="#fff"/>
  </g>
  <rect x="241.51" y="29.49" width="69.6" height="43.9" rx="2.1" ry="2.1" transform="translate(114.12 280.97) rotate(-65.3)" fill="#be1e2d"/>
  <g>
    <rect x="254.42" y="63.13" width="12.4" height="11.3" rx="2.4" ry="2.4" transform="translate(87.06 275.01) rotate(-64.7)" fill="#2b0000" stroke="#62605c" stroke-miterlimit="17.3" stroke-width=".2"/>
    <g>
      <path d="M254.2,69.2l10.2,4.8m-8.6-.7l1.2-2.7m.9,3.8l1.2-2.7m.9,3.6l1.2-2.7m.3-10.3l-1.7,3.7,6.9,3.2" fill="#2b0000" stroke="#5c5c5b" stroke-miterlimit="17.3" stroke-width=".2"/>
      <path d="M261.8,66.9l1.7-3.7m.5,4.7l1.7-3.6m-9.4,5.2l1.9-4.2m5.8,7.7l1.7-3.6" fill="#2b0000" stroke="#5c5c5b" stroke-miterlimit="17.3" stroke-width=".2"/>
    </g>
  </g>
  <path d="M270.1,76.4l-.7,1.5h-.3l.3-.7-2.1-1-.3,.6h-.3c0-.3,.1-.5,.1-.7s-.1-.2-.3-.3l.2-.3,2.8,1.3,.3-.6h.3v.2Zm1.2-2.5l-.9,1.9-.4-.2c0-.2-.1-.4-.2-.6,0-.2-.1-.4-.2-.5l-.4-.8c-.1-.2-.3-.3-.4-.4s-.2,0-.2,0h-.4v.2c-.2,.2-.1,.2-.1,.2v.7l-.4-.2v-.4c0-.2,0-.3,.1-.5,.1-.3,.3-.5,.5-.6h.7c.1,0,.2,0,.3,.2,.1,.2,.2,.2,.2,.3,0,0,.1,.2,.2,.3l.2,.4c0,.2,.2,.4,.2,.6s.1,.4,.2,.6l.7-1.5,.4,.2h-.1v.1Zm-2.3-2.6v.9l-.4-.2v-.4c0-.2,0-.3,.1-.5s.1-.3,.2-.4c0,0,.2-.2,.3-.2h.7c.2,0,.3,.2,.4,.4v.5l.2-.2h.9c.2,0,.3,0,.4,.3,0,0,.2,.2,.2,.4v.4s0,.3-.1,.5-.2,.3-.3,.4l-.3,.3-.4-.2c.1,0,.2-.2,.3-.3,.1,0,.2-.3,.3-.4s0-.2,0-.3v-.3s0-.2-.1-.2c0,0-.1,0-.3-.2s-.2,0-.3,0h-.2s-.1,0-.2,.2c0,0-.1,.2-.1,.3v.2l-.4-.2c0-.3,.1-.5,0-.7,0-.2-.1-.3-.3-.4s-.2,0-.2,0h-.4v.3Zm3.4-2.7l-.2,.4,1.1,.5-.2,.4-1.1-.5-.6,1.4-.4-.2-1-2.2,.2-.4,1.7,.8,.2-.4,.3,.2Zm-.7,.6l-1.2-.6,.7,1.6,.5-1.1v.1Zm2.4-4.2c.2,0,.3,.2,.4,.3s.2,.2,.2,.4v.4s0,.3-.1,.5-.2,.3-.3,.4l-.3,.3-.4-.2h.1l.2-.3,.2-.2v-.2c.2-.2,.1-.2,.1-.3v-.3s0-.2-.2-.2c0,0-.2,0-.3-.2s-.2,0-.3,0h-.2s-.2,0-.2,.2c0,0-.1,.2-.2,.3s0,.2-.1,.4v.3l-1.6-.7,.8-1.7,.4,.2-.6,1.3,.8,.4v-.2c0-.3,.1-.4,.2-.5,0,0,.2-.2,.3-.2h.9l.2-.2h0Zm1.1-2.4c.2,0,.3,.2,.4,.3s.2,.2,.2,.4v.4s0,.3-.1,.4-.1,.3-.3,.4c-.1,0-.2,.2-.4,.2h-.6c-.2,0-.5,0-.7-.2s-.5-.3-.7-.4l-.5-.5c-.1-.2-.2-.4-.2-.6s0-.5,.2-.7,0,0,.1-.2,0,0,.1,0l.4,.2v.2s-.1,0-.2,.2c-.1,.3-.1,.5,0,.8s.3,.5,.7,.6v-.4s0-.2,.1-.4,.1-.2,.2-.3c0,0,.2-.2,.3-.2h1v-.2Zm-.2,.3h-.8v.2c-.2,.2-.1,.2-.1,.3v.3h.1c.2,0,.4,.2,.6,.2h.6s.1,0,.1-.2v-.5c0-.2-.2-.3-.5-.4v.1Zm-.4-3.4l2,2.6-.2,.4-2.1-2.7-.7,1.6-.4-.2,.9-2,.5,.2v.1Zm3.4-.1c0,.2-.2,.3-.3,.4-.1,0-.2,.2-.4,.2h-.8c-.1,0-.3-.2-.4-.4s-.2-.3-.2-.6c-.2,0-.3,.2-.5,.2h-.5c-.2,0-.4-.3-.5-.5v-.8c0-.3,.3-.5,.5-.6s.5,0,.7,0,.3,.2,.4,.3,.2,.3,.2,.5c.2,0,.3-.2,.5-.3h.5c.2,0,.4,.3,.5,.6v.9l.3,.2v-.1Zm-.6-1.2h-.3s-.2,0-.4,.2c0,0-.1,0-.2,.2l-.2,.2c0,.2,0,.3,.2,.4l.3,.3h.6c.2,0,.3-.2,.4-.3s0-.3,0-.5-.2-.3-.4-.4v-.1Zm-1.6-1h-.4c-.1,0-.2,.2-.3,.3s0,.3,0,.4,.1,.2,.3,.3,.2,0,.3,0h.3s.1,0,.2-.2c0,0,.2,0,.2-.2s0-.3-.2-.4-.2-.2-.3-.2h-.1Zm1.2-1.5c-.2,0-.3-.2-.4-.3s-.2-.2-.2-.4v-.8s.2-.3,.3-.4,.2-.2,.4-.2h.6c.2,0,.5,0,.8,.2s.5,.3,.7,.4c.2,.2,.4,.3,.5,.5s.2,.4,.2,.6,0,.4-.2,.7,0,0,0,.2v.2l-.5-.2v-.2s.1,0,.2-.2c.1-.3,.1-.5,0-.8-.1-.2-.3-.5-.7-.6v.4s0,.2-.1,.4-.1,.2-.2,.3c0,0-.2,.2-.3,.2h-1.1Zm1-1.5c-.2,0-.4-.2-.6-.2h-.6v.7c-.1,.2,.1,.3,.4,.4s.2,0,.4,0h.5c.1,0,0,0,.1-.2s0-.2,0-.3v-.3h-.2v-.1Zm1.6-2.6c.6,.3,.9,.5,1.1,.8s.2,.6,0,.9-.4,.5-.8,.6c-.3,0-.8,0-1.3-.3s-.9-.5-1.1-.8-.2-.6,0-.9,.4-.5,.8-.6c.3,0,.8,0,1.3,.3Zm.7,1s-.2-.2-.4-.3c-.2,0-.3-.2-.6-.3s-.4-.2-.6-.2h-.7s-.2,0-.2,.2v.3s0,.2,.2,.3c0,0,.2,.2,.4,.3,.2,0,.3,.2,.5,.3s.4,.2,.6,.2h.7s.2,0,.2-.3v-.3s0-.2-.2-.3h.1v.1Zm1.9-2.5l-.7,1.5h-.3l.3-.7-2.1-1-.3,.6h-.3c0-.3,.1-.5,.1-.7s-.1-.2-.3-.3l.2-.3,2.8,1.3,.3-.6h.3v.2Zm1.2-2.5l-.9,1.9-.4-.2c0-.2-.1-.4-.2-.6,0-.2-.1-.4-.2-.5l-.4-.8c-.1-.2-.3-.3-.4-.4s-.2,0-.2,0h-.4v.2c-.2,.2-.1,.2-.1,.2v.7l-.4-.2v-.4c0-.2,0-.3,.1-.5,.1-.3,.3-.5,.5-.6h.7c.1,0,.2,0,.3,.2,.1,.2,.2,.2,.2,.3,0,0,.1,.2,.2,.3l.2,.4c0,.2,.2,.4,.2,.6s.1,.4,.2,.6l.7-1.5,.4,.2h-.1v.1Zm-1.7-3.9v.9l-.4-.2v-.4c0-.2,0-.3,.1-.5s.1-.3,.2-.4c0,0,.2-.2,.3-.2h.7c.2,0,.3,.2,.4,.4v.5l.2-.2h.9c.2,0,.3,0,.4,.3,0,0,.2,.2,.2,.4v.4s0,.3-.1,.5-.2,.3-.3,.4l-.3,.3-.4-.2c.1,0,.2-.2,.3-.3,.1,0,.2-.3,.3-.4s0-.2,0-.3v-.3s0-.2-.1-.2c0,0-.1,0-.3-.2s-.2,0-.3,0h-.2s-.1,0-.2,.2c0,0-.1,.2-.1,.3v.2l-.4-.2c0-.3,.1-.5,0-.7,0-.2-.1-.3-.3-.4s-.2,0-.2,0h-.4v.3Zm3.4-2.8l-.2,.4,1.1,.5-.2,.4-1.1-.5-.6,1.4-.4-.2-1-2.2,.2-.4,1.7,.8,.2-.4,.3,.2Zm-.7,.6l-1.2-.6,.7,1.6,.5-1.1v.1Zm1.8-2.8c.2,0,.3,.2,.4,.3s.2,.2,.2,.4v.4s0,.3-.1,.5-.2,.3-.3,.4l-.3,.3-.4-.2h.1l.2-.3,.2-.2v-.2c.2-.2,.1-.2,.1-.3v-.3s0-.2-.2-.2c0,0-.2,0-.3-.2s-.2,0-.3,0h-.2s-.2,0-.2,.2c0,0-.1,.2-.2,.3s0,.2-.1,.4v.3l-1.6-.7,.8-1.7,.4,.2-.6,1.3,.8,.4v-.2c0-.3,.1-.4,.2-.5,0,0,.2-.2,.3-.2h.9l.2-.2Zm1.1-2.4c.2,0,.3,.2,.4,.3s.2,.2,.2,.4v.4s0,.3-.1,.4-.1,.3-.3,.4c-.1,0-.2,.2-.4,.2h-.6c-.2,0-.5,0-.7-.2s-.5-.3-.7-.4l-.5-.5c-.1-.2-.2-.4-.2-.6s0-.5,.2-.7,0,0,.1-.2,0,0,.1,0l.4,.2v.2s-.1,0-.2,.2c-.1,.3-.1,.5,0,.8s.3,.5,.7,.6v-.4s0-.2,.1-.4,.1-.2,.2-.3c0,0,.2-.2,.3-.2h1v-.2Zm-.2,.3h-.8v.2c-.2,.2-.1,.2-.1,.3v.3h.1c.2,0,.4,.2,.6,.2h.6s.1,0,.1-.2v-.5c0-.2-.2-.3-.5-.4v.1Z" fill="#fff"/>
  <path d="M278.2,22.7c1.1-.8,2.5-1,3.7-.5s2.1,1.7,2.3,3m-5.1-1.4c.7-.5,1.6-.6,2.4-.3s1.3,1,1.4,1.9m-3.3-.5c.4-.3,.9-.4,1.4-.2s.8,.6,.9,1.1" fill="none" isolation="isolate" opacity=".8" stroke="#fff" stroke-linecap="round" stroke-miterlimit="15.1" stroke-width=".8"/>
  <path d="M280.2,68.1v.2l-1.2-.5v.4h-.2v-.4s0-.2-.1-.3l1.5,.6h0Zm.5-1v.2l-1.2-.5v.4h-.2v-.4s0-.2-.1-.3l1.5,.6h0Zm.2-.4l-1.3-1.1,1.3,1v.1Zm.5-1.7h.2l-.5,1.1h-.1s-.1,0-.1-.2c0,0,0-.2-.1-.3,0-.2-.1-.4-.2-.5,0,0-.1-.2-.2-.2h-.2s-.1,0-.2,.2,0,.2,0,.2l.2,.2v.2c-.2,0-.3-.2-.4-.3v-.4c0-.2,.2-.2,.3-.3h.6v.2c.1,0,.1,.2,.2,.4v.3l.3-.6h.2Zm.6-1.2h.2l-.5,1.1h-.1s-.1,0-.1-.2c0,0,0-.2-.1-.3,0-.2-.1-.4-.2-.5,0,0-.1-.2-.2-.2h-.2s-.1,0-.2,.2c-.1,.2,0,.2,0,.2l.2,.2v.2c-.2,0-.3-.2-.4-.3v-.4c0-.2,.2-.2,.3-.3h.6v.2c.1,0,.1,.2,.2,.4v.3l.3-.6h.2Zm3.6-7.4v.2l-1.2-.5v.4h-.2v-.4s0-.2-.1-.3l1.5,.6h0Zm.5-1v.2l-1.2-.5v.4h-.2v-.4s0-.2-.1-.3l1.5,.6h0Zm.2-.4l-1.3-1.1,1.3,1v.1Zm.5-1.7h.2l-.5,1.1h-.1s-.1,0-.1-.2c0,0,0-.2-.1-.3,0-.2-.1-.4-.2-.5,0,0-.1-.2-.2-.2h-.2s-.1,0-.2,.2,0,.2,0,.2l.2,.2v.2c-.2,0-.3-.2-.4-.3v-.4c0-.2,.2-.2,.3-.3h.6v.2c.1,0,.1,.2,.2,.4v.3l.3-.6h.2Zm.5-1.2h.2l-.5,1.1h-.1s-.1,0-.1-.2c0,0,0-.2-.1-.3,0-.2-.1-.4-.2-.5,0,0-.1-.2-.2-.2h-.2s-.1,0-.2,.2,0,.2,0,.2l.2,.2v.2c-.2,0-.3-.2-.4-.3v-.4c0-.2,.2-.2,.3-.3h.6v.2c.1,0,.1,.2,.2,.4v.3l.3-.6h.2Z" fill="#fff"/>
  <g>
    <rect x="255.08" y="63.82" width="10.8" height="9.9" rx="2.1" ry="2.1" transform="translate(86.99 274.88) rotate(-64.7)" fill="#efbc61" stroke="#62605c" stroke-miterlimit="15.1" stroke-width=".1"/>
    <g>
      <path d="M255,69.2l8.9,4.2m-7.5-.7l1-2.3m.8,3.3l1-2.4m.9,3.2l1-2.3m.2-9.1l-1.5,3.2,6,2.8" fill="none" stroke="#5c5c5b" stroke-miterlimit="15.1" stroke-width=".2"/>
      <path d="M261.6,67.2l1.5-3.2m.5,4l1.5-3.1m-8.3,4.5l1.7-3.6m5.1,6.7l1.5-3.2" fill="none" stroke="#5c5c5b" stroke-miterlimit="15.1" stroke-width=".2"/>
    </g>
  </g>
  <g>
    <path d="M277.4,67.7h-1.1v-.2h.9l-.5-.6,.7,.6v.2Zm.1-.4l-.7-.8h.7l-.2,.4,.2,.2v.2Zm-.2-.3v-.3h-.3l.2,.2,.1,.1Zm.7-.6l-.9-.4,.8,.2,.2-.4h.1l-.3,.6h.1Zm.3-.7l-.9-.4,.9,.3v.1Z" fill="#fff"/>
    <path id="uuid-58a604d5-1839-4aed-adea-b03cbaad613e" data-name="Z" d="M278.4,65.4l-.9-.4v-.3c.1,0,.2,0,.2-.2h.8c.1,.2,0,0,0,.2v.6h-.1v.1Zm-.2,.2v-.2h.1v-.2h-.6v.3l.6,.3v-.2h-.1Zm.8-1.5l-.9-.4,.3-.6h.1l-.2,.5h.3l.2-.3h.1l-.2,.5,.4,.2-.1,.1Zm.4-.8l-.9-.4,.2-.4v-.2c.2-.2,.1,0,.2,0h.3v.2h.2s-.1,.2-.2,.2l.4,.3-.2,.2v.1Zm-.4,.1v0Zm.3-1.1c-.1,0-.2-.2-.3-.3v-.4c0-.2,0,0,.2-.2s.1,0,.2,0h.3s.2,0,.2,.2v.4s0,.2-.2,.2h-.4v.1Zm0,0h.3s.2,0,.2-.2v-.3s-.1-.2-.2-.2h-.5v.3s.1,.2,.2,.2v.2Zm.9-.8l-.9-.4v-.2h.9l-.5-.6v-.2l1,.4-.7-.2,.6,.6h-.9l.8,.4-.3,.2Zm.8-1.7h-1.1v-.2h.9l-.5-.6,.7,.6v.2Zm.2-.4l-.7-.8h.7l-.2,.4,.2,.2v.2Zm-.2-.3v-.3h-.3l.2,.2,.1,.1Zm.6-.6l-.9-.4,.8,.2,.2-.4h.1l-.3,.6h.1Zm.3-.7l-.9-.4,.9,.3v.1Z" fill="#fff"/>
    <path d="M282.1,57.5l-.9-.4v-.3c.1,0,.2,0,.2-.2h.8c.1,.2,0,0,0,.2v.6h-.1v.1Zm-.2,.2v-.2h.1v-.2h-.6v.3l.6,.3v-.2h-.1Zm.8-1.7l-.8-.4v.3h-.2l.3-.8h.1v.3l.7,.4v.2h-.1Zm.3-.5l-.9-.4h.4l.2-.4-.4-.2,.9,.3h-.5l-.2,.4,.4,.2h.1v.1Zm.4-.9l-.9-.4,.2-.4v-.2c.2-.2,.1,0,.2,0h.3v.2h.2s-.1,.2-.2,.2l.4,.3-.2,.2v.1Zm-.4,.1v0Zm.2-2h.6c0,.2,.2,.2,.2,.2v.4l-.1,.2h-.4l-.5-.2h.6c0,.2,.1,.2,.2,.2h.1v-.3l-.2-.2-.5-.2v-.1Zm-5.8,15h-1.1v-.2h.9l-.5-.6,.7,.6v.2Zm.1-.4l-.7-.8h.7l-.2,.4,.2,.2v.2Zm-.2-.3v-.3h-.3l.2,.2,.1,.1Zm.7-.6l-.9-.4,.8,.2,.2-.4h.1l-.3,.6h.1Zm.3-.7l-.9-.4,.9,.3v.1Z" fill="#fff"/>
    <path id="uuid-d1bee299-7e22-4125-84c8-bf73b07397b4" data-name="Z" d="M278.4,65.4l-.9-.4v-.3c.1,0,.2,0,.2-.2h.8c.1,.2,0,0,0,.2v.6h-.1v.1Zm-.2,.2v-.2h.1v-.2h-.6v.3l.6,.3v-.2h-.1Zm.8-1.5l-.9-.4,.3-.6h.1l-.2,.5h.3l.2-.3h.1l-.2,.5,.4,.2-.1,.1Zm.4-.8l-.9-.4,.2-.4v-.2c.2-.2,.1,0,.2,0h.3v.2h.2s-.1,.2-.2,.2l.4,.3-.2,.2v.1Zm-.4,.1v0Zm.3-1.1c-.1,0-.2-.2-.3-.3v-.4c0-.2,0,0,.2-.2s.1,0,.2,0h.3s.2,0,.2,.2v.4s0,.2-.2,.2h-.4v.1Zm0,0h.3s.2,0,.2-.2v-.3s-.1-.2-.2-.2h-.5v.3s.1,.2,.2,.2v.2Zm.9-.8l-.9-.4v-.2h.9l-.5-.6v-.2l1,.4-.7-.2,.6,.6h-.9l.8,.4-.3,.2Zm.8-1.7h-1.1v-.2h.9l-.5-.6,.7,.6v.2Zm.2-.4l-.7-.8h.7l-.2,.4,.2,.2v.2Zm-.2-.3v-.3h-.3l.2,.2,.1,.1Zm.6-.6l-.9-.4,.8,.2,.2-.4h.1l-.3,.6h.1Zm.3-.7l-.9-.4,.9,.3v.1Z" fill="#fff"/>
    <path d="M282.1,57.5l-.9-.4v-.3c.1,0,.2,0,.2-.2h.8c.1,.2,0,0,0,.2v.6h-.1v.1Zm-.2,.2v-.2h.1v-.2h-.6v.3l.6,.3v-.2h-.1Zm.8-1.7l-.8-.4v.3h-.2l.3-.8h.1v.3l.7,.4v.2h-.1Zm.3-.5l-.9-.4h.4l.2-.4-.4-.2,.9,.3h-.5l-.2,.4,.4,.2h.1v.1Zm.4-.9l-.9-.4,.2-.4v-.2c.2-.2,.1,0,.2,0h.3v.2h.2s-.1,.2-.2,.2l.4,.3-.2,.2v.1Zm-.4,.1v0Zm.2-2h.6c0,.2,.2,.2,.2,.2v.4l-.1,.2h-.4l-.5-.2h.6c0,.2,.1,.2,.2,.2h.1v-.3l-.2-.2-.5-.2v-.1Z" fill="#fff"/>
  </g>
  <rect x="219.38" y="27.09" width="69.6" height="43.9" rx="2.1" ry="2.1" transform="translate(168.11 293.19) rotate(-81.5)" fill="#231f20"/>
  <g>
    <rect x="237.63" y="64.4" width="12.4" height="11.3" rx="2.4" ry="2.4" transform="translate(136.1 299.73) rotate(-80.9)" fill="#2b0000" stroke="#62605c" stroke-miterlimit="17.3" stroke-width=".2"/>
    <g>
      <path d="M237.6,72.3l11.2,1.8m-8.4,1.7l.4-2.9m1.8,3.3l.4-3m2,3.3l.4-2.9m-2.7-10l-.6,4,7.5,1.1" fill="#2b0000" stroke="#5c5c5b" stroke-miterlimit="17.3" stroke-width=".2"/>
      <path d="M244.3,68l.6-4m1.8,4.3l.6-3.9m-7.5,7.6l.7-4.5m7.6,5.7l.6-3.9" fill="#2b0000" stroke="#5c5c5b" stroke-miterlimit="17.3" stroke-width=".2"/>
    </g>
  </g>
  <g>
    <path d="M255,74.8l-.2,1.7h-.3v-.7l-2.2-.3v.6h-.4v-.6s-.2-.2-.4-.2v-.4l3.1,.5v-.6h.4Zm.4-2.8l-.3,2.1h-.5l-.3-.6c-.1-.2-.2-.3-.4-.5-.2-.3-.5-.5-.6-.6-.2,0-.3-.2-.5-.2h-.5v1.4h-.6v-1c0-.3,.2-.6,.4-.7,.2-.2,.4-.2,.7-.2h.4c.1,0,.2,0,.3,.2,0,0,.2,.2,.3,.2l.3,.3c.1,.2,.3,.4,.4,.6s.3,.4,.3,.5l.3-1.7h.3v.2h0Z" fill="#fff"/>
    <path d="M252.5,70.2v1h-.5v-1c0-.2,0-.3,.1-.4,0,0,.1-.2,.2-.3,0,0,.2-.2,.3-.2h.4c.2,0,.3,0,.5,.3,.1,0,.2,.3,.2,.5v-.2l.3-.2h1.1c.1,0,.2,.2,.3,.3,0,0,.2,.2,.2,.4v.5c0,.2,0,.3-.1,.5s-.1,.3-.2,.4h-.5c0-.2,.2-.3,.3-.5,0-.2,.1-.3,.2-.5s0-.2,0-.3c0,0,0-.2-.1-.3l-.2-.2h-.8v.7h-.5v-.7s-.2-.2-.4-.3-.2,0-.2,0h-.2v.4h-.4v.1Zm2.5-3.6v.4l1.1,.2v.4l-1.2-.2-.2,1.5h-.5l-1.5-1.9v-.4l1.9,.3v-.4h.4v.1Zm-.5,1.1l-1.3-.2,1.2,1.4,.2-1.2h-.1Zm1.1-5h.4l.3,.3s.2,.2,.2,.4v.5c0,.2,0,.3-.1,.5,0,.2-.1,.3-.2,.4h-.5s0-.2,.1-.2,0,0,.1-.2c0,0,0-.2,.1-.2v-.5s0-.2-.1-.2l-.2-.2h-.8l-.2,.2v1l-1.8-.3,.3-1.9h.4l-.2,1.5h.9c0-.3,0-.4,.1-.5,0,0,.1-.2,.2-.3,.1,0,.2-.2,.4-.2h.6v-.1Zm.4-2.6c.2,0,.3,0,.5,.2,.1,0,.3,.2,.3,.3s.2,.2,.2,.4v.4s0,.3-.1,.4l-.3,.3c-.1,0-.3,.2-.5,.2h-.8c-.3,0-.6,0-.8-.2-.2,0-.4-.2-.6-.4-.2,0-.3-.3-.3-.5v-1.1h.4v.5c0,.3,0,.5,.2,.7s.4,.4,.8,.4c0,0-.1-.2-.1-.4v-.7s.1-.2,.2-.3c.1,0,.2-.2,.4-.2h.5Zm0,.5h-.7s-.1,0-.1,.2v.8h1.1l.2-.2v-.2c0-.2,0-.3-.1-.5-.1,0-.3-.2-.6-.3l.2,.2h0Zm-1.4-3.4l2.7,1.9v.5l-2.9-2-.3,1.8h-.4l.3-2.2h.6Zm3.2-1c0,.2,0,.3-.1,.5l-.3,.3c-.1,0-.2,0-.4,.2h-.4c-.1,0-.3,0-.5-.2s-.2-.3-.3-.5c-.1,.2-.2,.3-.4,.3h-.5c-.3,0-.5-.2-.6-.4s-.2-.5-.1-.8,.2-.5,.4-.7,.4-.2,.7-.2,.3,0,.4,.2c.1,0,.2,.3,.3,.4,0-.2,.3-.3,.4-.4h.5c.2,0,.5,.2,.7,.4s.2,.5,.2,.8v.1Zm-.9-.5h-.3s-.2,0-.3,.3v.2c-.1,0-.2,.2-.3,.3,0,0,.2,.3,.3,.3s.2,0,.4,.2,.4,0,.5,0c.2,0,.2-.3,.3-.4s0-.4-.1-.5-.2-.2-.4-.2v-.2h-.1Zm-1.8-.3h-.4c-.1,0-.2,.2-.2,.4v.4s.2,.2,.3,.2h.3s.2,0,.2-.2v-.4c.2,0,.1-.3,0-.3h-.2v-.1Zm.7-2.4c-.2,0-.3,0-.5-.2-.1,0-.3-.2-.3-.3s-.1-.2-.2-.4v-.4s0-.3,.1-.4l.3-.3c.1,0,.3-.2,.5-.2h.8c.3,0,.5,0,.8,.2,.2,0,.4,.2,.6,.4s.3,.3,.3,.5v1.1h-.4v-.5c0-.3,0-.6-.2-.8s-.4-.3-.8-.4c0,0,.1,.3,.1,.4v.7s-.1,.2-.2,.3-.2,.2-.4,.2h-.5v.1Zm.6-1.4h-1l-.2,.2v.2c0,.2,0,.3,.1,.5,.1,0,.3,.2,.6,.3s.3,0,.4,0h.3v-.2c.2-.2,.1,0,.1-.2v-.6h-.1l-.2-.2Zm.7-3.3c.6,0,1.1,.2,1.3,.5,.3,.2,.4,.5,.3,.9s-.2,.6-.6,.8c-.3,0-.8,.2-1.4,0s-1.1-.2-1.3-.5-.4-.5-.3-.9,.2-.6,.6-.8c.3,0,.8-.2,1.4,0h0Zm1,.7c-.1,0-.2,0-.4-.2h-1.6c-.1,0-.2,0-.3,.2s-.1,.2-.1,.3v.3s.1,.2,.2,.2,.3,0,.4,.2h1.9s.1-.2,.1-.3v-.3s-.1-.2-.2-.2v-.2h0Zm1.1-2.9l-.2,1.7h-.3v-.7l-2.2-.3v.6h-.4v-.6s-.2-.2-.4-.2v-.4l3.1,.5v-.6h.4Zm.4-2.7l-.3,2.1h-.5l-.3-.6c-.1-.2-.2-.3-.4-.5-.2-.3-.5-.5-.6-.6-.2,0-.3-.2-.5-.2h-.5v1.4h-.6v-1c0-.3,.2-.6,.4-.7,.2-.2,.4-.2,.7-.2h.4c.1,0,.2,0,.3,.2,0,0,.2,.2,.3,.2l.3,.3c.1,.2,.3,.4,.4,.6s.3,.4,.3,.5l.3-1.7h.3v.2h0Zm-2.7-3.3v1h-.5v-1c0-.2,0-.3,.1-.4,0,0,.1-.2,.2-.3,0,0,.2-.2,.3-.2h.4c.2,0,.3,0,.5,.3,.1,0,.2,.3,.2,.5v-.2l.3-.2h1.1c.1,0,.2,.2,.3,.3,0,0,.2,.2,.2,.4v.5c0,.2,0,.3-.1,.5s-.1,.3-.2,.4h-.5c0-.2,.2-.3,.3-.5,0-.2,.1-.3,.2-.5s0-.2,0-.3c0,0,0-.2-.1-.3l-.2-.2h-.8v.7h-.5v-.7s-.2-.2-.4-.3-.2,0-.2,0h-.2v.4h-.4v.1Zm2.5-3.6v.4l1.1,.2v.4l-1.2-.2-.2,1.5h-.5l-1.5-1.9v-.4l1.9,.3v-.4h.4v.1Zm-.5,1.1l-1.3-.2,1.2,1.4,.2-1.2h-.1Zm1-3.5h.4l.3,.3s.2,.2,.2,.4v.5c0,.2,0,.3-.1,.5,0,.2-.1,.3-.2,.4h-.5s0-.2,.1-.2,0,0,.1-.2c0,0,0-.2,.1-.2v-.5s0-.2-.1-.2l-.2-.2h-.8l-.2,.2v1l-1.8-.3,.3-1.9h.4l-.2,1.5h.9c0-.3,0-.4,.1-.5,0,0,.1-.2,.2-.3s.2-.2,.4-.2h.6v-.1Zm.4-2.7c.2,0,.3,0,.5,.2,.1,0,.3,.2,.3,.3s.2,.2,.2,.4v.4s0,.3-.1,.4l-.3,.3c-.1,0-.3,.2-.5,.2h-.8c-.3,0-.6,0-.8-.2-.2,0-.4-.2-.6-.4-.2,0-.3-.3-.3-.5v-1.1h.4v.5c0,.3,0,.5,.2,.7s.4,.4,.8,.4c0,0-.1-.2-.1-.4v-.7s.1-.2,.2-.3,.2-.2,.4-.2h.5Zm0,.5h-.4c-.1,0-.2,0-.3,.1,0,0-.1,0-.1,.2v.8h1.1l.2-.2v-.2c0-.2,0-.3-.1-.5-.1-.1-.3-.2-.6-.3l.2,.2v-.1Z" fill="#fff"/>
  </g>
  <path d="M247.7,21c.8-1.1,2.1-1.7,3.4-1.5,1.3,.1,2.5,1,3,2.3m-5.2,0c.5-.7,1.3-1.1,2.2-1s1.6,.6,1.9,1.4m-3.3,.4c.3-.4,.8-.6,1.3-.6s.9,.4,1.2,.9" fill="none" isolation="isolate" opacity=".8" stroke="#fff" stroke-linecap="round" stroke-miterlimit="15.1" stroke-width=".8"/>
  <path d="M262.3,63.9v.2l-1.3-.2v.2c.2,0,.1,.2,.1,.2h-.2s0-.3-.1-.3c0,0-.1-.2-.2-.2h1.7v.1Zm.2-1.1v.2l-1.3-.2v.2c.2,.2,.1,.2,.1,.2h-.2s0-.3-.1-.3c0,0-.1-.2-.2-.2h1.7v.1Zm.1-.4l-1.6-.7v-.2l1.6,.7v.2Zm0-1.8h.2l-.2,1.1h-.1s-.1,0-.2-.2c0,0-.1-.2-.2-.3-.1-.2-.2-.3-.3-.4h-.4s-.1,0-.1,.2v.2h.2v.2c-.2,0-.3,0-.4-.2v-.4c0-.2,0-.3,.2-.3h.5s.1,0,.2,.2c0,0,.1,.2,.2,.3,0,0,.1,.2,.2,.3v-.8h.2v.1Zm.2-1.2h.2l-.2,1.1h-.1s-.1,0-.2-.2c0,0-.1-.2-.2-.3-.1-.2-.2-.3-.3-.4h-.4s-.1,0-.1,.2v.2h.2v.2c-.2,0-.3,0-.4-.2v-.4c0-.2,0-.3,.2-.3h.5s.1,0,.2,.2c0,0,.1,.2,.2,.3,0,0,.1,.2,.2,.3v-.8h.2v.1Z" fill="#fff"/>
  <path d="M264.2,51.2v.2l-1.3-.2v.2c.2,.2,.1,.2,.1,.2h-.2s0-.3-.1-.3c0,0-.1-.2-.2-.2h1.7v.1Zm.2-1.1v.2l-1.3-.2v.2c.2,.2,.1,.2,.1,.2h-.2s0-.3-.1-.3c0,0-.1-.2-.2-.2h1.7v.1Zm.1-.4l-1.6-.7v-.2l1.6,.7v.2Zm0-1.8h.2l-.2,1.1h-.1s-.1,0-.2-.2c0,0-.1-.2-.2-.3-.1-.2-.2-.3-.3-.4h-.4s-.1,0-.1,.2v.2h.2v.2c-.2,0-.3,0-.4-.2v-.4c0-.2,0-.3,.2-.3h.5s.1,0,.2,.2c0,0,.1,.2,.2,.3,0,0,.1,.2,.2,.3v-.8h.2v.1Zm.2-1.3h.2l-.2,1.1h-.1s-.1,0-.2-.2c0,0-.1-.2-.2-.3-.1-.2-.2-.3-.3-.4h-.4s-.1,0-.1,.2v.2h.2v.2c-.2,0-.3,0-.4-.2v-.4c0-.2,0-.3,.2-.3h.5s.1,0,.2,.2c0,0,.1,.2,.2,.3,0,0,.1,.2,.2,.3v-.8h.2v.1Z" fill="#bcbbbc"/>
  <g>
    <rect x="238.31" y="65.1" width="10.8" height="9.9" rx="2.1" ry="2.1" transform="translate(136 299.61) rotate(-80.9)" fill="#efbc61" stroke="#62605c" stroke-miterlimit="15.1" stroke-width=".1"/>
    <g>
      <path d="M238.4,72l9.8,1.6m-7.4,1.5l.3-2.5m1.7,2.9l.3-2.6m1.7,2.8l.3-2.5m-2.3-8.7l-.5,3.5,6.5,1m-4.6-.7l.5-3.5m1.6,3.7l.6-3.4m-6.7,6.7l.6-4" fill="none" stroke="#5c5c5b" stroke-miterlimit="15.1" stroke-width=".2"/>
      <path d="M247.6,72.8l.5-3.4" fill="none" stroke="#5c5c5b" stroke-miterlimit="15.1" stroke-width=".2"/>
    </g>
  </g>
  <g>
    <path d="M259.5,64.4l-1,.2,.7-.3-.7-.4,.9,.4h.1v.1Zm.1-.4l-.9-.5,1-.4-.3,.2v.4l.2,.2v.1Zm-.4,0v0Zm.5-1h-1v-.3h.9v-.4h.2v.6h-.1v.1Zm.1-.8h-1v-.3h1v.3Zm.1-.4h-1v-.7h.7v.7h.3Zm-.1,0v-.4h-.6v.4h.6Zm.3-1.4h-1v-.8h.2v.5h.2v-.4h.2v.5h.4v.2h0Z" fill="#fff"/>
    <path id="uuid-ef91000d-f44b-4d09-b76f-c0b0a7db0323" data-name="a" d="M260.2,59.6h-1v-.6s0-.2,.1-.2h.5v.2h.1c0,.2-.1,.2-.1,.2l.4,.2v.2Zm-.5,0v-.3h-.1v.4h.1v-.1Zm.2-1c-.2,0-.3,0-.4-.2,0,0-.1-.2,0-.4s0-.2,.1-.2h.8l.2,.2c.1,0,0,.2,0,.2,0,0,0,.2-.1,.2h-.5v.2h-.1Zm-.1,0h.3s.1,0,.1-.2v-.3h-.7c-.1,0,0,0,0,.2v.2h.3v.1Zm.7-1h-1v-.3h.8s.1,0,.2-.2h-.1l-.6-.3v-.2h1v.3h-.8l.8,.3-.9,.3h.8v.2h-.2v-.1Zm.3-1.8l-1,.2,.7-.3-.7-.4,.9,.4h.1v.1Zm0-.4l-.9-.5,1-.4-.3,.2v.4l.2,.2v.1Zm-.4,0v0Zm.6-1h-1v-.3h.9v-.4h.2v.6h-.1v.1Zm.1-.8h-1v-.3h1v.3Zm.1-.4h-1v-.7h.7v.7h.3Zm-.1,0v-.4h-.6v.4h.6Zm.3-1.6h-.9v.2h-.2v-.8h.2v.3h.8v.3h.1Zm.1-.6h-1v-.3h.4v-.4h-.3v-.2h1v.3h-.5v.4h.4v.2Z" fill="#fff"/>
    <path d="M261.6,50.1h-1v-.6s0-.2,.1-.2h.5v.2h.1c0,.2-.1,.2-.1,.2l.4,.2v.2Zm-.5,0v-.3h-.1v.4h.1v-.1Zm-.2-1.8h.9v.5h-.1v-.4h-.8v-.1Zm-1.4,16.1l-1,.2,.7-.3-.7-.4,.9,.4h.1v.1Zm.1-.4l-.9-.5,1-.4-.3,.2v.4l.2,.2v.1Zm-.4,0v0Zm.5-1h-1v-.3h.9v-.4h.2v.6h-.1v.1Zm.1-.8h-1v-.3h1v.3Zm.1-.4h-1v-.7h.7v.7h.3Zm-.1,0v-.4h-.6v.4h.6Zm.3-1.4h-1v-.8h.2v.5h.2v-.4h.2v.5h.4v.2h0Z" fill="#fff"/>
    <path id="uuid-c5ca04fd-f811-437d-8399-2e6d8dbbe6a1" data-name="a" d="M260.2,59.6h-1v-.6s0-.2,.1-.2h.5v.2h.1c0,.2-.1,.2-.1,.2l.4,.2v.2Zm-.5,0v-.3h-.1v.4h.1v-.1Zm.2-1c-.2,0-.3,0-.4-.2,0,0-.1-.2,0-.4s0-.2,.1-.2h.8l.2,.2c.1,0,0,.2,0,.2,0,0,0,.2-.1,.2h-.5v.2h-.1Zm-.1,0h.3s.1,0,.1-.2v-.3h-.7c-.1,0,0,0,0,.2v.2h.3v.1Zm.7-1h-1v-.3h.8s.1,0,.2-.2h-.1l-.6-.3v-.2h1v.3h-.8l.8,.3-.9,.3h.8v.2h-.2v-.1Zm.3-1.8l-1,.2,.7-.3-.7-.4,.9,.4h.1v.1Zm0-.4l-.9-.5,1-.4-.3,.2v.4l.2,.2v.1Zm-.4,0v0Zm.6-1h-1v-.3h.9v-.4h.2v.6h-.1v.1Zm.1-.8h-1v-.3h1v.3Zm.1-.4h-1v-.7h.7v.7h.3Zm-.1,0v-.4h-.6v.4h.6Zm.3-1.6h-.9v.2h-.2v-.8h.2v.3h.8v.3h.1Zm.1-.6h-1v-.3h.4v-.4h-.3v-.2h1v.3h-.5v.4h.4v.2Z" fill="#fff"/>
    <path d="M261.6,50.1h-1v-.6s0-.2,.1-.2h.5v.2h.1c0,.2-.1,.2-.1,.2l.4,.2v.2Zm-.5,0v-.3h-.1v.4h.1v-.1Zm-.2-1.8h.9v.5h-.1v-.4h-.8v-.1ZM29.6,18.7c0,.3-.1,.6-.3,.8l-3.4,3.4-3.7-2.1v-2.1c0-.6,.5-1.1,1.1-1.1s1.1,.5,1.1,1.1v2.6l3.4-3.4c.4-.4,1.1-.4,1.5,0s.3,.5,.3,.8m-1.1,10h-.4c-.1,0-.3-.1-.4-.2l-3.4-3.4v2.6c0,.6-.5,1.1-1.1,1.1s-1.1-.5-1.1-1.1v-2.1l3.7-2.1,3.4,3.4c.7,.7,.2,1.9-.8,1.9m-2.7-5.7l-.9-.6-2.5-1.4-2.1-1.2h-.3v6.5c0,.1,.1,.2,.2,.2h.1l2.1-1.2,3.4-2v-.3Zm-.8,0l-2.6,1.6-1.6,.9h-.3v-4.9c0-.1,0-.2,.2-.2l1.6,.9,2.6,1.5s.1,.1,0,.2h.1Z" fill="#fff"/>
    <path d="M24.1,23.2l-2,1.1-1.2,.7h-.2v-3.7s0-.1,.1-.1l1.2,.7,2,1.1m23.6,0l-3-1.6-1.9-.9s-.3,0-.3,.2v5c0,.1,.2,.2,.4,.2l1.8-1,3-1.6v-.3Zm-.7-.2l-2.3,1.2-1.4,.8s-.3,0-.3-.1v-4.1l1.5,.7,2.4,1.2v.3h.1Z" fill="#fff"/>
    <path d="M46.2,23.1l-1.7,.9-1.1,.6h-.2v-2.9l1.1,.4,1.8,.9m-14.3-2.5h2.6c1.3,0,2.2,.7,2.2,1.7s-.9,1.8-2.2,1.8h-1.4v1.7h-1.2v-5.2Zm2.5,2.5c.6,0,1-.3,1-.8s-.4-.7-1.1-.7h-1.2v1.5h1.3Zm7.3,1.8v1h-4.2v-5.2h1.2v4.2h3Zm7.3-1l-2.3-3.3h1.5l1.5,2.3,1.5-2.3h1.4l-2.2,3.4v1.9h-1.2v-1.9h-.2v-.1Zm4.4-3h.7v2.9l3-2.9h.9l-2.4,2.4,2.7,2.8h-.9l-2.3-2.4-.9,.9v1.6h-.6v-5.2h-.2v-.1Zm5,2.5c0-1.5,1.3-2.7,3-2.7s3,1.2,3,2.7-1.3,2.7-3,2.8-3-1.2-3-2.7v-.1Zm5.3,0c0-1.2-1.1-2.1-2.3-2.1s-2.3,1-2.3,2.2,1.1,2.2,2.4,2.1c1.3,0,2.3-1,2.3-2.2h-.1Zm1.6,1.9l.4-.5c.5,.4,1.1,.7,1.9,.7s1.4-.5,1.4-.9c0-.6-.6-.8-1.6-1-1.2-.2-1.9-.5-1.9-1.5s.8-1.5,1.9-1.5,1.5,.2,2.1,.7l-.4,.5c-.5-.4-1.1-.7-1.7-.7s-1.2,.4-1.2,.9,.6,.7,1.6,.9c1.1,.2,1.9,.6,1.9,1.5s-.7,1.5-2,1.5-1.7-.3-2.3-.8v.2h-.1Zm5.6-4.4h.7l2.2,3.6,2.1-3.7h.7v5.2h-.6v-4l-2.2,3.7-2.2-3.6v4h-.6v-5.2h-.1Zm6.9,2.5c0-1.5,1.3-2.7,3-2.7s3,1.2,3,2.7-1.3,2.7-3,2.8-3-1.2-3-2.7v-.1Zm5.3,0c0-1.2-1.1-2.1-2.3-2.1s-2.3,1-2.3,2.2,1.1,2.2,2.4,2.1,2.3-1,2.3-2.2h-.1Zm1.6,1.9l.4-.5c.5,.4,1.1,.7,1.9,.7s1.4-.5,1.4-.9c0-.6-.6-.8-1.6-1-1.2-.2-1.9-.5-1.9-1.5s.8-1.5,1.9-1.5,1.5,.2,2.1,.7l-.4,.5c-.5-.4-1.1-.7-1.7-.7s-1.2,.4-1.2,.9,.6,.7,1.6,.9c1.1,.2,1.9,.6,1.9,1.5s-.7,1.5-2,1.5-1.7-.3-2.3-.8v.2h-.1Z" fill="#fff"/>
  </g>
  <rect x="53.6" y="197.6" width="227.8" height="123" rx="8.7" ry="8.7" fill="#ffde17"/>
  <path d="M125.7,205.7h1.7v32.5h-1.7v-32.5Zm82.2,0h1.7v32.5h-1.7v-32.5Zm-36.6,38.4c-2.2-2.1-5.7-2.1-7.9,0s-2.2,5.6,0,7.7l3.9,3.9,3.9-3.9c2.2-2.1,2.2-5.6,0-7.7h.1Zm-3.9,5.7c-.5,0-.9-.2-1.2-.5-.7-.7-.7-1.8,0-2.5s.8-.5,1.2-.5,.9,.2,1.2,.5c.7,.7,.7,1.8,0,2.5s-.8,.5-1.2,.5Z" fill="#231f20"/>
  <g>
    <path d="M267.2,108.5c-23.3,0-42.2,18.9-42.2,42.2s18.9,42.2,42.2,42.2,42.2-18.9,42.2-42.2-18.9-42.2-42.2-42.2Zm0,82.2c-22.1,0-40-17.9-40-40s17.9-40,40-40,40,17.9,40,40-17.9,40-40,40Z" fill="#fff"/>
    <circle cx="267.02" cy="150.52" r="37.3" transform="translate(-28.23 232.9) rotate(-45)" fill="#fff"/>
  </g>
  <circle cx="267.2" cy="150.7" r="36.4" fill="#9bff1f"/>
  <path d="M0,173.7H16.9v10.2H0v-10.2Z" fill="#fff"/>
  <g>
    <path d="M28.4,306.2c-5,0-9.2-4.1-9.2-9.2s4.1-9.2,9.2-9.2,9.2,4.1,9.2,9.2-4.1,9.2-9.2,9.2Zm0-16.5c-4.1,0-7.4,3.3-7.4,7.4s3.3,7.4,7.4,7.4,7.4-3.3,7.4-7.4-3.3-7.4-7.4-7.4Z" fill="#ffde17"/>
    <circle cx="25.25" cy="288.86" r="9.2" transform="translate(-3.93 .37) rotate(-.78)" fill="#ffde17"/>
  </g>
</svg>