<?xml version="1.0" encoding="UTF-8"?>
<svg id="uuid-01678a64-ac13-4eff-9eaf-d39e7c038018" data-name="Layer 1" xmlns="http://www.w3.org/2000/svg" width="335" height="335" xmlns:xlink="http://www.w3.org/1999/xlink" viewBox="0 0 335 335">
  <defs>
    <linearGradient id="uuid-37621b88-d97d-4f67-8eb8-0f6730a744c2" x1="167.5" y1="1" x2="167.5" y2="336" gradientTransform="translate(0 336) scale(1 -1)" gradientUnits="userSpaceOnUse">
      <stop offset="0" stop-color="#0072ff"/>
      <stop offset="1" stop-color="#0e0068"/>
    </linearGradient>
    <linearGradient id="uuid-8d0bf62e-2bcb-4492-8ef1-4773144cfc38" x1="263.15" y1="135.6" x2="263.15" y2="175.9" gradientTransform="translate(0 336) scale(1 -1)" gradientUnits="userSpaceOnUse">
      <stop offset="0" stop-color="#524eff"/>
      <stop offset="1" stop-color="#1d2eb8"/>
    </linearGradient>
    <linearGradient id="uuid-53e0d7c5-5cac-4fae-83d7-bcd2c800662e" x1="301.4" y1="159.1" x2="318.9" y2="159.1" gradientTransform="translate(0 336) scale(1 -1)" gradientUnits="userSpaceOnUse">
      <stop offset="0" stop-color="#ffd930"/>
      <stop offset="1" stop-color="#ffa015"/>
    </linearGradient>
    <linearGradient id="uuid-5819b1fc-b1ee-430b-adf6-89f9362cd13d" x1="301.4" y1="160.6" x2="318.9" y2="160.6" gradientTransform="translate(0 336) scale(1 -1)" gradientUnits="userSpaceOnUse">
      <stop offset="0" stop-color="#fdf8b6"/>
      <stop offset="1" stop-color="#ffdc52"/>
    </linearGradient>
    <linearGradient id="uuid-e327ce87-de52-4b77-a60e-59099fc4122b" x1="303" y1="160.7" x2="317.3" y2="160.7" gradientTransform="translate(0 336) scale(1 -1)" gradientUnits="userSpaceOnUse">
      <stop offset="0" stop-color="#ffe85e"/>
      <stop offset="1" stop-color="#ffbf24"/>
    </linearGradient>
    <linearGradient id="uuid-cb7ddf74-073d-4740-a90c-2b2048c15564" x1="303" y1="161.75" x2="317.3" y2="161.75" gradientTransform="translate(0 336) scale(1 -1)" gradientUnits="userSpaceOnUse">
      <stop offset="0" stop-color="#ffd930"/>
      <stop offset="1" stop-color="#ffa015"/>
    </linearGradient>
    <linearGradient id="uuid-e595fe51-23d3-4d21-985a-30177bbbea1c" x1="301.4" y1="159.1" x2="318.9" y2="159.1" gradientTransform="translate(-2.5 332.4) scale(1 -1)" gradientUnits="userSpaceOnUse">
      <stop offset="0" stop-color="#ffd930"/>
      <stop offset="1" stop-color="#ffa015"/>
    </linearGradient>
    <linearGradient id="uuid-d75f569b-737c-40da-8e37-8041778898bd" x1="301.4" y1="160.6" x2="318.9" y2="160.6" gradientTransform="translate(-2.5 332.4) scale(1 -1)" gradientUnits="userSpaceOnUse">
      <stop offset="0" stop-color="#fdf8b6"/>
      <stop offset="1" stop-color="#ffdc52"/>
    </linearGradient>
    <linearGradient id="uuid-ccfe9646-48ea-4e04-a13f-700f104d81b4" x1="303" y1="160.7" x2="317.3" y2="160.7" gradientTransform="translate(-2.5 332.4) scale(1 -1)" gradientUnits="userSpaceOnUse">
      <stop offset="0" stop-color="#ffe85e"/>
      <stop offset="1" stop-color="#ffbf24"/>
    </linearGradient>
    <linearGradient id="uuid-5cfbe602-9f32-4bc5-83e9-7d01cba13a82" x1="302.9" y1="161.75" x2="317.2" y2="161.75" gradientTransform="translate(-2.4 332.4) scale(1 -1)" gradientUnits="userSpaceOnUse">
      <stop offset="0" stop-color="#ffd930"/>
      <stop offset="1" stop-color="#ffa015"/>
    </linearGradient>
    <linearGradient id="uuid-8fb029c0-25f4-4d66-b4aa-214e56448afd" x1="301.4" y1="159.1" x2="318.9" y2="159.1" gradientTransform="translate(0 328.8) scale(1 -1)" gradientUnits="userSpaceOnUse">
      <stop offset="0" stop-color="#ffd930"/>
      <stop offset="1" stop-color="#ffa015"/>
    </linearGradient>
    <linearGradient id="uuid-9bf59319-82b4-47ae-a2d4-7eb8050245a4" x1="301.4" y1="160.6" x2="318.9" y2="160.6" gradientTransform="translate(0 328.8) scale(1 -1)" gradientUnits="userSpaceOnUse">
      <stop offset="0" stop-color="#fdf8b6"/>
      <stop offset="1" stop-color="#ffdc52"/>
    </linearGradient>
    <linearGradient id="uuid-b1e60e9e-f01a-4e64-9965-d52452831116" x1="303" y1="160.7" x2="317.3" y2="160.7" gradientTransform="translate(0 328.8) scale(1 -1)" gradientUnits="userSpaceOnUse">
      <stop offset="0" stop-color="#ffe85e"/>
      <stop offset="1" stop-color="#ffbf24"/>
    </linearGradient>
    <linearGradient id="uuid-5b362eb2-c2af-4f6b-a00c-893eaf83daa6" x1="303" y1="161.75" x2="317.3" y2="161.75" gradientTransform="translate(0 328.8) scale(1 -1)" gradientUnits="userSpaceOnUse">
      <stop offset="0" stop-color="#ffd930"/>
      <stop offset="1" stop-color="#ffa015"/>
    </linearGradient>
    <linearGradient id="uuid-41f08007-3ddf-4892-9880-800bcbb6246a" x1="301.4" y1="159.1" x2="318.9" y2="159.1" gradientTransform="translate(0 325.2) scale(1 -1)" gradientUnits="userSpaceOnUse">
      <stop offset="0" stop-color="#ffd930"/>
      <stop offset="1" stop-color="#ffa015"/>
    </linearGradient>
    <linearGradient id="uuid-3545cfd2-cb02-41de-a596-b06f263a092e" x1="301.4" y1="160.6" x2="318.9" y2="160.6" gradientTransform="translate(0 325.2) scale(1 -1)" gradientUnits="userSpaceOnUse">
      <stop offset="0" stop-color="#fdf8b6"/>
      <stop offset="1" stop-color="#ffdc52"/>
    </linearGradient>
    <linearGradient id="uuid-79974452-4aef-4222-938a-aa7ca05b05aa" x1="303" y1="160.7" x2="317.3" y2="160.7" gradientTransform="translate(0 325.2) scale(1 -1)" gradientUnits="userSpaceOnUse">
      <stop offset="0" stop-color="#ffe85e"/>
      <stop offset="1" stop-color="#ffbf24"/>
    </linearGradient>
    <linearGradient id="uuid-4a2c6961-4840-4e97-8c15-4f09e16d93e6" x1="303" y1="161.75" x2="317.3" y2="161.75" gradientTransform="translate(0 325.1) scale(1 -1)" gradientUnits="userSpaceOnUse">
      <stop offset="0" stop-color="#ffd930"/>
      <stop offset="1" stop-color="#ffa015"/>
    </linearGradient>
    <linearGradient id="uuid-ffe692b0-7980-429b-8c5e-8b9343d93871" x1="301.4" y1="159.1" x2="318.9" y2="159.1" gradientTransform="translate(.8 321.6) scale(1 -1)" gradientUnits="userSpaceOnUse">
      <stop offset="0" stop-color="#ffd930"/>
      <stop offset="1" stop-color="#ffa015"/>
    </linearGradient>
    <linearGradient id="uuid-efd39e68-0333-4075-9694-22d2130d8a68" x1="301.4" y1="160.6" x2="318.9" y2="160.6" gradientTransform="translate(.8 321.6) scale(1 -1)" gradientUnits="userSpaceOnUse">
      <stop offset="0" stop-color="#fdf8b6"/>
      <stop offset="1" stop-color="#ffdc52"/>
    </linearGradient>
    <linearGradient id="uuid-d4c0c413-b41c-4d3e-a72b-df0e10ad696f" x1="303" y1="160.7" x2="317.3" y2="160.7" gradientTransform="translate(.8 321.6) scale(1 -1)" gradientUnits="userSpaceOnUse">
      <stop offset="0" stop-color="#ffe85e"/>
      <stop offset="1" stop-color="#ffbf24"/>
    </linearGradient>
    <linearGradient id="uuid-87e86980-ddea-41d1-a4b7-f785f39af500" x1="302.9" y1="161.75" x2="317.2" y2="161.75" gradientTransform="translate(.9 321.5) scale(1 -1)" gradientUnits="userSpaceOnUse">
      <stop offset="0" stop-color="#ffd930"/>
      <stop offset="1" stop-color="#ffa015"/>
    </linearGradient>
    <linearGradient id="uuid-a60fee84-3ce4-478d-a97c-b01d5ca5fddf" x1="301.3" y1="159.1" x2="318.9" y2="159.1" gradientTransform="translate(-.8 318) scale(1 -1)" gradientUnits="userSpaceOnUse">
      <stop offset="0" stop-color="#ffd930"/>
      <stop offset="1" stop-color="#ffa015"/>
    </linearGradient>
    <linearGradient id="uuid-9a239913-557a-4cd9-9c97-1493784aa305" x1="301.3" y1="160.6" x2="318.9" y2="160.6" gradientTransform="translate(-.8 318) scale(1 -1)" gradientUnits="userSpaceOnUse">
      <stop offset="0" stop-color="#fdf8b6"/>
      <stop offset="1" stop-color="#ffdc52"/>
    </linearGradient>
    <linearGradient id="uuid-9af1ee7e-b457-46d4-bc8d-81ba96c46c83" x1="303" y1="160.7" x2="317.3" y2="160.7" gradientTransform="translate(-.8 318) scale(1 -1)" gradientUnits="userSpaceOnUse">
      <stop offset="0" stop-color="#ffe85e"/>
      <stop offset="1" stop-color="#ffbf24"/>
    </linearGradient>
    <linearGradient id="uuid-62af5c36-94a9-4a20-a42a-f287fc975acc" x1="303" y1="161.75" x2="317.3" y2="161.75" gradientTransform="translate(-.8 317.9) scale(1 -1)" gradientUnits="userSpaceOnUse">
      <stop offset="0" stop-color="#ffd930"/>
      <stop offset="1" stop-color="#ffa015"/>
    </linearGradient>
    <linearGradient id="uuid-358ce1ef-0bd7-4b48-a603-cbbdd1202045" x1="301.3" y1="159.1" x2="318.9" y2="159.1" gradientTransform="translate(-18.9 346.5) scale(1 -1)" gradientUnits="userSpaceOnUse">
      <stop offset="0" stop-color="#ffd930"/>
      <stop offset="1" stop-color="#ffa015"/>
    </linearGradient>
    <linearGradient id="uuid-4095cad5-38e0-48fe-a1aa-90ce684bcfb9" x1="301.3" y1="160.6" x2="318.9" y2="160.6" gradientTransform="translate(-18.9 346.5) scale(1 -1)" gradientUnits="userSpaceOnUse">
      <stop offset="0" stop-color="#fdf8b6"/>
      <stop offset="1" stop-color="#ffdc52"/>
    </linearGradient>
    <linearGradient id="uuid-f2069593-cf25-4c3c-be6a-62f1c6b4a4b2" x1="303.1" y1="160.7" x2="317.3" y2="160.7" gradientTransform="translate(-19 346.5) scale(1 -1)" gradientUnits="userSpaceOnUse">
      <stop offset="0" stop-color="#ffe85e"/>
      <stop offset="1" stop-color="#ffbf24"/>
    </linearGradient>
    <linearGradient id="uuid-1e064de2-600e-49b0-b42f-196ea0a2501c" x1="303" y1="161.75" x2="317.2" y2="161.75" gradientTransform="translate(-18.9 346.5) scale(1 -1)" gradientUnits="userSpaceOnUse">
      <stop offset="0" stop-color="#ffd930"/>
      <stop offset="1" stop-color="#ffa015"/>
    </linearGradient>
    <linearGradient id="uuid-9055a74d-629a-4831-8bd2-28b5341d3460" x1="301.4" y1="159.1" x2="318.9" y2="159.1" gradientTransform="translate(-18.1 342.9) scale(1 -1)" gradientUnits="userSpaceOnUse">
      <stop offset="0" stop-color="#ffd930"/>
      <stop offset="1" stop-color="#ffa015"/>
    </linearGradient>
    <linearGradient id="uuid-1657f673-ff7a-44a9-8877-76d45a5a469d" x1="301.4" y1="160.6" x2="318.9" y2="160.6" gradientTransform="translate(-18.1 342.9) scale(1 -1)" gradientUnits="userSpaceOnUse">
      <stop offset="0" stop-color="#fdf8b6"/>
      <stop offset="1" stop-color="#ffdc52"/>
    </linearGradient>
    <linearGradient id="uuid-74063942-41f5-4a82-a067-945da1f5786c" x1="303" y1="160.7" x2="317.3" y2="160.7" gradientTransform="translate(-18.1 342.9) scale(1 -1)" gradientUnits="userSpaceOnUse">
      <stop offset="0" stop-color="#ffe85e"/>
      <stop offset="1" stop-color="#ffbf24"/>
    </linearGradient>
    <linearGradient id="uuid-b362a784-9d17-4aed-9f5f-6e5fa89abb2f" x1="303" y1="161.75" x2="317.3" y2="161.75" gradientTransform="translate(-18.1 342.9) scale(1 -1)" gradientUnits="userSpaceOnUse">
      <stop offset="0" stop-color="#ffd930"/>
      <stop offset="1" stop-color="#ffa015"/>
    </linearGradient>
    <linearGradient id="uuid-46d97296-67fe-4c0b-830d-dad63ca67dcc" x1="301.4" y1="159.1" x2="318.9" y2="159.1" gradientTransform="translate(7.1 343) scale(1 -1)" gradientUnits="userSpaceOnUse">
      <stop offset="0" stop-color="#ffd930"/>
      <stop offset="1" stop-color="#ffa015"/>
    </linearGradient>
    <linearGradient id="uuid-73df2da9-34cf-4bef-8e3b-c0936c3904f8" x1="301.4" y1="160.6" x2="318.9" y2="160.6" gradientTransform="translate(7.1 343) scale(1 -1)" gradientUnits="userSpaceOnUse">
      <stop offset="0" stop-color="#fdf8b6"/>
      <stop offset="1" stop-color="#ffdc52"/>
    </linearGradient>
    <linearGradient id="uuid-6770c8d5-7ebc-47f7-9438-e3b890a30237" x1="303" y1="160.7" x2="317.3" y2="160.7" gradientTransform="translate(7.1 343) scale(1 -1)" gradientUnits="userSpaceOnUse">
      <stop offset="0" stop-color="#ffe85e"/>
      <stop offset="1" stop-color="#ffbf24"/>
    </linearGradient>
    <linearGradient id="uuid-eec6c39a-58ef-417f-b6a3-615015a215b5" x1="302.9" y1="161.75" x2="317.2" y2="161.75" gradientTransform="translate(7.2 343) scale(1 -1)" gradientUnits="userSpaceOnUse">
      <stop offset="0" stop-color="#ffd930"/>
      <stop offset="1" stop-color="#ffa015"/>
    </linearGradient>
    <linearGradient id="uuid-55a84a89-db15-4b3f-bb4b-a650aa718a09" x1="200.8" y1="74.2" x2="200.8" y2="316.2" gradientTransform="translate(0 336) scale(1 -1)" gradientUnits="userSpaceOnUse">
      <stop offset=".4" stop-color="#fff" stop-opacity="0"/>
      <stop offset="1" stop-color="#fff"/>
    </linearGradient>
    <linearGradient id="uuid-f18988ea-96f2-40b0-bc01-caed86b45d8e" x1="320.65" y1="-.3" x2="320.65" y2="124.4" gradientTransform="translate(0 336) scale(1 -1)" gradientUnits="userSpaceOnUse">
      <stop offset=".2" stop-color="#fff" stop-opacity="0"/>
      <stop offset="1" stop-color="#fff"/>
    </linearGradient>
    <linearGradient id="uuid-444dbc35-3c83-4511-8b32-ca5abb3df315" x1="275.95" y1="1" x2="275.95" y2="85.5" gradientTransform="translate(0 336) scale(1 -1)" gradientUnits="userSpaceOnUse">
      <stop offset="0" stop-color="#fff" stop-opacity="0"/>
      <stop offset="1" stop-color="#fff"/>
    </linearGradient>
  </defs>
  <path d="M0,0H335V335H0V0Z" fill="url(#uuid-37621b88-d97d-4f67-8eb8-0f6730a744c2)"/>
  <path d="M244.5,200.4l-51.2-27.9,88.5-12.4,51.2,27.9-88.5,12.4Z" fill="url(#uuid-8d0bf62e-2bcb-4492-8ef1-4773144cfc38)"/>
  <g opacity=".5">
    <path id="uuid-e62b633a-9182-401f-80fd-783359c38cce" data-name="U" d="M318.9,175.4c0-1.7-3.9-3-8.8-3s-8.8,1.4-8.8,3v3c0,1.7,3.9,3,8.8,3s8.8-1.4,8.8-3v-3Z" fill="url(#uuid-53e0d7c5-5cac-4fae-83d7-bcd2c800662e)"/>
    <path id="uuid-e6581659-967b-4f7d-a8af-e81b98e775e5" data-name="V" d="M318.9,175.4c0,1.7-3.9,3-8.8,3s-8.8-1.4-8.8-3,3.9-3,8.8-3,8.8,1.4,8.8,3Z" fill="url(#uuid-5819b1fc-b1ee-430b-adf6-89f9362cd13d)"/>
    <path id="uuid-71f64bbc-874e-4adc-a9f8-e7d96c7e6418" data-name="W" d="M317.3,175.3c0,1.2-3.2,2.3-7.1,2.3s-7.1-1-7.1-2.3,3.2-2.3,7.1-2.3,7.1,1,7.1,2.3Z" fill="url(#uuid-e327ce87-de52-4b77-a60e-59099fc4122b)"/>
    <path id="uuid-8d8427ce-e232-4c9b-860e-f95f7e0ab050" data-name="X" d="M310.1,173.4c3.8,0,6.9,.9,7.1,2.1v-.2c0-1.2-3.2-2.3-7.1-2.3s-7.1,1-7.1,2.3v.2c.3-1.2,3.3-2.1,7.1-2.1Z" fill="url(#uuid-cb7ddf74-073d-4740-a90c-2b2048c15564)"/>
    <path id="uuid-6bb40b23-e899-46f4-815c-27b08557b4bc" data-name="U" d="M316.4,171.8c0-1.7-3.9-3-8.8-3s-8.8,1.4-8.8,3v3c0,1.7,3.9,3,8.8,3s8.8-1.4,8.8-3v-3Z" fill="url(#uuid-e595fe51-23d3-4d21-985a-30177bbbea1c)"/>
    <path id="uuid-6f307a15-e935-4147-a564-17762113338d" data-name="V" d="M316.4,171.8c0,1.7-3.9,3-8.8,3s-8.8-1.4-8.8-3,3.9-3,8.8-3,8.8,1.4,8.8,3Z" fill="url(#uuid-d75f569b-737c-40da-8e37-8041778898bd)"/>
    <path id="uuid-1d3c0737-0a38-461a-b99c-934f1b7a1bf6" data-name="W" d="M314.8,171.7c0,1.2-3.2,2.3-7.1,2.3s-7.1-1-7.1-2.3,3.2-2.3,7.1-2.3,7.1,1,7.1,2.3Z" fill="url(#uuid-ccfe9646-48ea-4e04-a13f-700f104d81b4)"/>
    <path id="uuid-0c053296-8227-4c3d-bebd-fe3bb02b331e" data-name="X" d="M307.7,169.8c3.8,0,6.9,.9,7.1,2.1v-.2c0-1.2-3.2-2.3-7.1-2.3s-7.1,1-7.1,2.3v.2c.3-1.2,3.3-2.1,7.1-2.1Z" fill="url(#uuid-5cfbe602-9f32-4bc5-83e9-7d01cba13a82)"/>
    <path id="uuid-0b7be44d-3da9-4baa-a02d-1ca5296980f7" data-name="U" d="M318.9,168.2c0-1.7-3.9-3-8.8-3s-8.8,1.4-8.8,3v3c0,1.7,3.9,3,8.8,3s8.8-1.4,8.8-3v-3Z" fill="url(#uuid-8fb029c0-25f4-4d66-b4aa-214e56448afd)"/>
    <path id="uuid-6cbe0446-c95e-4117-bbd0-ff85cba7ce42" data-name="V" d="M318.9,168.2c0,1.7-3.9,3-8.8,3s-8.8-1.4-8.8-3,3.9-3,8.8-3,8.8,1.4,8.8,3Z" fill="url(#uuid-9bf59319-82b4-47ae-a2d4-7eb8050245a4)"/>
    <path id="uuid-45608874-96bb-461d-b036-0837cfc6f45d" data-name="W" d="M317.3,168.1c0,1.2-3.2,2.3-7.1,2.3s-7.1-1-7.1-2.3,3.2-2.3,7.1-2.3,7.1,1,7.1,2.3Z" fill="url(#uuid-b1e60e9e-f01a-4e64-9965-d52452831116)"/>
    <path id="uuid-32e66626-812d-4380-8c70-59a5de5918b8" data-name="X" d="M310.1,166.2c3.8,0,6.9,.9,7.1,2.1v-.2c0-1.2-3.2-2.3-7.1-2.3s-7.1,1-7.1,2.3v.2c.3-1.2,3.3-2.1,7.1-2.1Z" fill="url(#uuid-5b362eb2-c2af-4f6b-a00c-893eaf83daa6)"/>
    <path id="uuid-ba2a17eb-e7c9-4946-9405-ebf83b98c6fc" data-name="U" d="M318.9,164.6c0-1.7-3.9-3-8.8-3s-8.8,1.4-8.8,3v3c0,1.7,3.9,3,8.8,3s8.8-1.4,8.8-3v-3Z" fill="url(#uuid-41f08007-3ddf-4892-9880-800bcbb6246a)"/>
    <path id="uuid-4d8f6307-3f04-4c87-b87b-978aa77d3b4b" data-name="V" d="M318.9,164.6c0,1.7-3.9,3-8.8,3s-8.8-1.4-8.8-3,3.9-3,8.8-3,8.8,1.4,8.8,3Z" fill="url(#uuid-3545cfd2-cb02-41de-a596-b06f263a092e)"/>
    <path id="uuid-24fd3eb5-d8c9-47a3-b887-46fe34db9482" data-name="W" d="M317.3,164.5c0,1.2-3.2,2.3-7.1,2.3s-7.1-1-7.1-2.3,3.2-2.3,7.1-2.3,7.1,1,7.1,2.3Z" fill="url(#uuid-79974452-4aef-4222-938a-aa7ca05b05aa)"/>
    <path id="uuid-394449e4-0f85-4b0a-b981-f9df813a6183" data-name="X" d="M310.1,162.5c3.8,0,6.9,.9,7.1,2.1v-.2c0-1.2-3.2-2.3-7.1-2.3s-7.1,1-7.1,2.3v.2c.3-1.2,3.3-2.1,7.1-2.1Z" fill="url(#uuid-4a2c6961-4840-4e97-8c15-4f09e16d93e6)"/>
    <path id="uuid-c39584e5-90c3-40ad-98e8-a6408e3e2ea9" data-name="U" d="M319.7,161c0-1.7-3.9-3-8.8-3s-8.8,1.4-8.8,3v3c0,1.7,3.9,3,8.8,3s8.8-1.4,8.8-3v-3Z" fill="url(#uuid-ffe692b0-7980-429b-8c5e-8b9343d93871)"/>
    <path id="uuid-0bebb835-c759-4830-8818-9263d4b63649" data-name="V" d="M319.7,161c0,1.7-3.9,3-8.8,3s-8.8-1.4-8.8-3,3.9-3,8.8-3,8.8,1.4,8.8,3Z" fill="url(#uuid-efd39e68-0333-4075-9694-22d2130d8a68)"/>
    <path id="uuid-77692dae-5bc5-4d1d-8c31-776137121c2c" data-name="W" d="M318.1,160.9c0,1.2-3.2,2.3-7.1,2.3s-7.1-1-7.1-2.3,3.2-2.3,7.1-2.3,7.1,1,7.1,2.3Z" fill="url(#uuid-d4c0c413-b41c-4d3e-a72b-df0e10ad696f)"/>
    <path id="uuid-3a5bb209-1d5d-40bb-aaf9-0d77e424639a" data-name="X" d="M311,158.9c3.8,0,6.9,.9,7.1,2.1v-.2c0-1.2-3.2-2.3-7.1-2.3s-7.1,1-7.1,2.3v.2c.3-1.2,3.3-2.1,7.1-2.1Z" fill="url(#uuid-87e86980-ddea-41d1-a4b7-f785f39af500)"/>
    <path id="uuid-554332e8-b209-4185-91b7-260956810ac0" data-name="U" d="M318.1,157.4c0-1.7-3.9-3-8.8-3s-8.8,1.4-8.8,3v3c0,1.7,3.9,3,8.8,3s8.8-1.4,8.8-3v-3Z" fill="url(#uuid-a60fee84-3ce4-478d-a97c-b01d5ca5fddf)"/>
    <path id="uuid-ea6b9e81-8d3e-429a-ad01-6df74b61a0c5" data-name="V" d="M318.1,157.4c0,1.7-3.9,3-8.8,3s-8.8-1.4-8.8-3,3.9-3,8.8-3,8.8,1.4,8.8,3Z" fill="url(#uuid-9a239913-557a-4cd9-9c97-1493784aa305)"/>
    <path id="uuid-3b1a47ec-58d8-414e-b165-4201008efa68" data-name="W" d="M316.5,157.3c0,1.2-3.2,2.3-7.1,2.3s-7.1-1-7.1-2.3,3.2-2.3,7.1-2.3,7.1,1,7.1,2.3Z" fill="url(#uuid-9af1ee7e-b457-46d4-bc8d-81ba96c46c83)"/>
    <path id="uuid-49e09783-f693-4e17-a066-2886ace04f4d" data-name="X" d="M309.3,155.3c3.8,0,6.9,.9,7.1,2.1v-.2c0-1.2-3.2-2.3-7.1-2.3s-7.1,1-7.1,2.3v.2c.3-1.2,3.3-2.1,7.1-2.1Z" fill="url(#uuid-62af5c36-94a9-4a20-a42a-f287fc975acc)"/>
    <path id="uuid-16bdf837-0c94-4a83-a55c-eefbab42992d" data-name="U" d="M300,185.9c0-1.7-3.9-3-8.8-3s-8.8,1.4-8.8,3v3c0,1.7,3.9,3,8.8,3s8.8-1.4,8.8-3v-3Z" fill="url(#uuid-358ce1ef-0bd7-4b48-a603-cbbdd1202045)"/>
    <path id="uuid-57d0feb0-b8e9-427d-b888-79434b80f72a" data-name="V" d="M300,185.9c0,1.7-3.9,3-8.8,3s-8.8-1.4-8.8-3,3.9-3,8.8-3,8.8,1.4,8.8,3Z" fill="url(#uuid-4095cad5-38e0-48fe-a1aa-90ce684bcfb9)"/>
    <path id="uuid-fc7bb796-5e24-4e3a-a67c-15267bd7a54e" data-name="W" d="M298.3,185.8c0,1.2-3.2,2.3-7.1,2.3s-7.1-1-7.1-2.3,3.2-2.3,7.1-2.3,7.1,1,7.1,2.3Z" fill="url(#uuid-f2069593-cf25-4c3c-be6a-62f1c6b4a4b2)"/>
    <path id="uuid-85d98364-2c7a-44a9-9d1c-265ace5ffa48" data-name="X" d="M291.2,183.9c3.8,0,6.9,.9,7.1,2.1v-.2c0-1.2-3.2-2.3-7.1-2.3s-7.1,1-7.1,2.3v.2c.3-1.2,3.3-2.1,7.1-2.1Z" fill="url(#uuid-1e064de2-600e-49b0-b42f-196ea0a2501c)"/>
    <path id="uuid-a8f57635-6c93-40fb-ba42-5402bf543017" data-name="U" d="M300.8,182.3c0-1.7-3.9-3-8.8-3s-8.8,1.4-8.8,3v3c0,1.7,3.9,3,8.8,3s8.8-1.4,8.8-3v-3Z" fill="url(#uuid-9055a74d-629a-4831-8bd2-28b5341d3460)"/>
    <path id="uuid-4a30c8b1-1244-4789-b701-ab2118f5d963" data-name="V" d="M300.8,182.3c0,1.7-3.9,3-8.8,3s-8.8-1.4-8.8-3,3.9-3,8.8-3,8.8,1.4,8.8,3Z" fill="url(#uuid-1657f673-ff7a-44a9-8877-76d45a5a469d)"/>
    <path id="uuid-06cc00f2-56c5-4d63-8200-fc4dc6f01066" data-name="W" d="M299.2,182.2c0,1.2-3.2,2.3-7.1,2.3s-7.1-1-7.1-2.3,3.2-2.3,7.1-2.3,7.1,1,7.1,2.3Z" fill="url(#uuid-74063942-41f5-4a82-a067-945da1f5786c)"/>
    <path id="uuid-57ca33f6-8169-4986-82a9-bd6ad6c25c58" data-name="X" d="M292,180.3c3.8,0,6.9,.9,7.1,2.1v-.2c0-1.2-3.2-2.3-7.1-2.3s-7.1,1-7.1,2.3v.2c.3-1.2,3.3-2.1,7.1-2.1Z" fill="url(#uuid-b362a784-9d17-4aed-9f5f-6e5fa89abb2f)"/>
    <path id="uuid-51a7ea3a-1e6c-452f-91f7-4e4caf915a92" data-name="U" d="M326,182.4c0-1.7-3.9-3-8.8-3s-8.8,1.4-8.8,3v3c0,1.7,3.9,3,8.8,3s8.8-1.4,8.8-3v-3Z" fill="url(#uuid-46d97296-67fe-4c0b-830d-dad63ca67dcc)"/>
    <path id="uuid-f09db281-037d-47ea-8bdd-8a93a9f409ab" data-name="V" d="M326,182.4c0,1.7-3.9,3-8.8,3s-8.8-1.4-8.8-3,3.9-3,8.8-3,8.8,1.4,8.8,3Z" fill="url(#uuid-73df2da9-34cf-4bef-8e3b-c0936c3904f8)"/>
    <path id="uuid-a3bc3b62-bf29-4195-a9b5-8465116d400d" data-name="W" d="M324.4,182.3c0,1.2-3.2,2.3-7.1,2.3s-7.1-1-7.1-2.3,3.2-2.3,7.1-2.3,7.1,1,7.1,2.3Z" fill="url(#uuid-6770c8d5-7ebc-47f7-9438-e3b890a30237)"/>
    <path id="uuid-1280cd7f-4eba-44ad-b49e-2076f48f133b" data-name="X" d="M317.3,180.4c3.8,0,6.9,.9,7.1,2.1v-.2c0-1.2-3.2-2.3-7.1-2.3s-7.1,1-7.1,2.3v.2c.3-1.2,3.3-2.1,7.1-2.1Z" fill="url(#uuid-eec6c39a-58ef-417f-b6a3-615015a215b5)"/>
  </g>
  <path d="M258,77l-57.2-57.2-57.2,57.2h30.5v184.8h55V77h28.9Z" fill="url(#uuid-55a84a89-db15-4b3f-bb4b-a650aa718a09)" isolation="isolate" opacity=".2"/>
  <path d="M335,216.2l-5.4-4.6-23.3,28.8,12.4-2.3,.3,96.9h16v-118.8Z" fill="url(#uuid-f18988ea-96f2-40b0-bc01-caed86b45d8e)" isolation="isolate" opacity=".2"/>
  <path d="M295.7,288.7l.5,46.3h-38.4l-.6-39.3-21.2,4,39.8-49.2,40.1,34.4-20.2,3.8" fill="url(#uuid-444dbc35-3c83-4511-8b32-ca5abb3df315)" isolation="isolate" opacity=".2"/>
  <rect x="255.88" y="38.36" width="69.6" height="43.9" rx="2.1" ry="2.1" transform="translate(54.14 239.71) rotate(-48.9)" fill="#fbb040"/>
  <g>
    <rect x="264.77" y="67.26" width="12.4" height="11.3" rx="2.4" ry="2.4" transform="translate(36.01 226.31) rotate(-48.2)" fill="#2b0000" stroke="#62605c" stroke-miterlimit="17.3" stroke-width=".2"/>
    <path d="M264.4,71.3l8.4,7.5m-7.9-3.1l1.9-2.2m-.3,3.8l1.9-2.3m-.1,3.8l1.9-2.2m3.2-9.8l-2.6,3,5.7,5m-4.1-3.5l2.7-3.1m-.9,4.7l2.7-3m-10.5,2.3l3-3.4m3.4,8.9l2.6-3" fill="#2b0000" stroke="#5c5c5b" stroke-miterlimit="17.3" stroke-width=".2"/>
  </g>
  <path d="M277.7,82.8l-1.1,1.3-.3-.2,.4-.5-1.7-1.5-.4,.5-.2-.2c.2-.2,.2-.3,.3-.5,0,0,0-.3-.2-.4l.2-.3,2.3,2.1,.4-.5,.3,.2h0Zm1.8-2.1l-1.4,1.6-.4-.3v-1.2c0-.4-.1-.7-.2-.9,0-.2-.2-.3-.3-.5s-.1,0-.2,0h-.4s-.1,0-.2,.2-.1,0-.1,.2c0,0,0,.2-.1,.2v.4l-.4-.3s0-.2,.2-.4,.2-.3,.3-.4c.2-.2,.4-.4,.7-.4s.5,0,.7,.3,.2,.2,.3,.3c0,0,.1,.2,.2,.3v2.1l1.1-1.3,.3,.3v-.2h-.1Zm-1.4-3.1s-.1,0-.1,.2c0,0,0,.2-.1,.2v.4l-.4-.3s0-.2,.2-.4c0-.2,.2-.3,.3-.4l.3-.3h.7c.1,0,.2,0,.3,.2s.2,.3,.3,.5v.5h.8c.1,0,.2,0,.3,.2l.3,.3s.1,.3,.1,.4v.4s-.1,.3-.3,.4-.2,.2-.4,.3-.3,.2-.4,.2l-.4-.3c.1,0,.3,0,.4-.2,.2,0,.3-.2,.4-.3s.1-.2,.2-.2v-.6s-.1-.2-.2-.2-.2,0-.3-.2h-.4l-.2,.2h-.4v-.2c.2-.2,.3-.3,.3-.5s0-.3-.2-.4-.1,0-.2,0h-.4s-.1,0-.2,.2h-.3v-.1Zm4-1.8l-.3,.3,.9,.8-.3,.3-.9-.8-1,1.2-.4-.3-.3-2.3,.3-.3,1.4,1.2,.3-.3,.3,.2h0Zm-.8,.4l-1-.9,.3,1.8,.8-.9h-.1Zm3.5-3.3c.1,0,.2,.2,.3,.4s.1,.3,.1,.4v.4s-.1,.3-.3,.4-.2,.2-.4,.3c-.1,0-.3,.2-.4,.2l-.4-.3h.6l.2-.2s.1,0,.1-.2v-.6s-.1-.2-.2-.2-.2,0-.3-.2h-.5s-.2,0-.2,.2-.2,.2-.2,.3-.1,.2-.2,.3l-1.3-1.2,1.2-1.4,.3,.3-1,1.1,.7,.6v-.2l.3-.3c.1,0,.2,0,.4-.2h.4c.1,0,.3,0,.4,.3h.4v-.2h0Zm1.7-2.1c.1,0,.2,.2,.3,.4,0,0,.1,.3,.1,.4v.4s-.1,.3-.2,.4l-.3,.3h-1c-.2,0-.4-.2-.7-.4s-.4-.4-.6-.6l-.3-.6v-.6c0-.2,.2-.4,.3-.6s.1,0,.2-.2h.1l.3,.2h-.2l-.2,.2c-.2,.2-.3,.5-.2,.7s.2,.5,.4,.8v-.4s.1-.2,.2-.3,.2-.2,.3-.2h.8c.2,0,.3,0,.5,.3l.2-.2h0Zm-.3,.4c-.1,0-.2-.2-.3-.2h-.5l-.2,.2c-.1,0-.1,.2-.2,.3v.3c.2,.2,.3,.3,.5,.3h.9c.1,0,.2-.3,.1-.5,0-.2-.1-.3-.3-.5v.1Zm.6-3.6l1.2,3.1-.3,.4-1.3-3.2-1.2,1.3-.3-.3,1.4-1.7,.4,.3,.1,.1Zm3.3,1c-.1,0-.2,.2-.4,.3h-.8c-.1,0-.2,0-.4-.2s-.2-.3-.3-.5,0-.4,0-.6h-.5c-.1,0-.3,0-.4-.2-.2-.2-.3-.4-.3-.7s0-.5,.3-.7,.4-.4,.7-.4,.5,0,.7,.2,.2,.2,.3,.4v.5h.6c.2,0,.3,0,.5,.2s.3,.4,.3,.7,0,.6-.3,.8v.2h0Zm-.3-1.1c-.1,0-.2,0-.3-.2h-.9v.4s.1,.3,.3,.4,.3,.2,.5,.2,.3,0,.5-.2,.2-.3,.2-.5,0-.3-.2-.4v.2h-.1v.1Zm-1.4-.8h-.4c-.2,0-.3,0-.4,.2s-.2,.3-.2,.4,0,.3,.2,.4,.2,0,.3,0h.8v-.4s-.1-.2-.2-.3v-.2l-.1-.1Zm1.8-1.9c-.1,0-.2-.2-.3-.4,0,0-.1-.3-.1-.4v-.4s.1-.3,.2-.4l.3-.3h1c.2,0,.4,.2,.7,.4s.4,.4,.6,.6c.2,.2,.2,.4,.3,.6v.6c0,.2-.2,.4-.3,.6s0,0-.1,0h-.2l-.3-.3h.2l.2-.3c.2-.2,.3-.5,.2-.7,0-.3-.2-.5-.5-.8v.4s-.1,.2-.2,.3-.2,.2-.3,.2h-.8c-.2,0-.3,0-.5-.3v.6h-.1Zm1.2-1.1c-.2-.2-.3-.3-.5-.3h-.9c-.1,0-.2,.3-.1,.5,0,.2,.1,.3,.3,.5s.2,.2,.3,.2h.5s.1,0,.2-.2,.1-.2,.2-.3v-.4Zm2.4-2.1c.5,.4,.8,.8,.9,1.1s0,.6-.2,.9-.5,.4-.9,.3c-.3,0-.7-.3-1.2-.7s-.8-.8-.9-1.1,0-.6,.2-.9,.5-.4,.9-.3c.3,0,.7,.3,1.2,.7Zm.4,1.1s-.1-.2-.3-.4l-.4-.4c-.1,0-.3-.3-.5-.4-.1,0-.3-.2-.4-.2h-.3s-.2,0-.3,.2-.1,.2-.1,.3v.3s.1,.2,.3,.4l.4,.4c.1,0,.3,.3,.5,.4,.1,0,.3,.2,.4,.2h.3c.1,0,.2,0,.3-.2s.1-.2,.1-.3v-.3Zm2.5-1.8l-1.1,1.3-.3-.2,.4-.5-1.7-1.5-.4,.5-.2-.2c.2-.2,.2-.3,.3-.5,0,0,0-.3-.2-.4l.2-.3,2.3,2.1,.4-.5,.3,.2h0Zm1.9-2.1l-1.4,1.6-.4-.3v-1.2c0-.4-.1-.7-.2-.9,0-.2-.2-.3-.3-.5s-.1,0-.2,0h-.4s-.1,0-.2,.2-.1,0-.1,.2c0,0,0,.2-.1,.2v.4l-.4-.3s0-.2,.2-.4,.2-.3,.3-.4c.2-.2,.4-.4,.7-.4s.5,0,.7,.3,.2,.2,.3,.3c0,0,.1,.2,.2,.3v2.1l1.1-1.3,.3,.3v-.2h-.1Zm-.5-4.2s-.1,0-.1,.2c0,0,0,.2-.1,.2v.4l-.4-.3s0-.2,.2-.4c0-.2,.2-.3,.3-.4l.3-.3h.7c.1,0,.2,0,.3,.2s.2,.3,.3,.5v.5h.8c.1,0,.2,0,.3,.2l.3,.3s.1,.3,.1,.4v.4s-.1,.3-.3,.4-.2,.2-.4,.3-.3,.2-.4,.2l-.4-.3c.1,0,.3,0,.4-.2,.2,0,.3-.2,.4-.3s.1-.2,.2-.2v-.6s-.1-.2-.2-.2-.2,0-.3-.2h-.4l-.2,.2h-.4v-.2c.2-.2,.3-.3,.3-.5s0-.3-.2-.4-.1,0-.2,0h-.4s-.1,0-.2,.2h-.3v-.1Zm4-1.7l-.3,.3,.9,.8-.3,.3-.9-.8-1,1.2-.4-.3-.3-2.3,.3-.3,1.4,1.2,.3-.3,.3,.2Zm-.8,.4l-1-.9,.3,1.8,.8-.9h-.1Zm2.5-2.2c.1,0,.2,.2,.3,.4s.1,.3,.1,.4v.4s-.1,.3-.3,.4-.2,.2-.4,.3c-.1,0-.3,.2-.4,.2l-.4-.3h.6l.2-.2s.1,0,.1-.2v-.6s-.1-.2-.2-.2-.2,0-.3-.2h-.5s-.2,0-.2,.2-.2,.2-.2,.3-.1,.2-.2,.3l-1.3-1.2,1.2-1.4,.3,.3-1,1.1,.7,.6v-.2l.3-.3c.1,0,.2,0,.4-.2h.4c.1,0,.3,0,.4,.3h.4v-.2Zm1.8-2.1c.1,0,.2,.2,.3,.4,0,0,.1,.3,.1,.4v.4s-.1,.3-.2,.4l-.3,.3h-1c-.2,0-.4-.2-.7-.4s-.4-.4-.6-.6l-.3-.6v-.6c0-.2,.2-.4,.3-.6s.1,0,.2-.2,0,0,.1,0l.3,.3h-.2l-.2,.2c-.2,.2-.3,.5-.2,.7s.2,.5,.4,.8v-.4s.1-.2,.2-.3,.2-.2,.3-.2h.8c.2,0,.3,0,.5,.3l.2-.2v-.1Zm-.3,0c-.1,0-.2-.2-.3-.2h-.5l-.2,.2c-.1,0-.1,.2-.2,.3v.3c.2,.2,.3,.3,.5,.3h.9c.1,0,.2-.3,.1-.5,0-.2-.1-.3-.3-.5v.1Z" fill="#fff"/>
  <path d="M300.6,33.6c1.3-.5,2.7-.3,3.7,.6,1,.8,1.6,2.2,1.4,3.5m-4.5-2.8c.8-.3,1.7-.2,2.3,.4s1,1.4,.9,2.2m-3-1.5c.5-.2,1,0,1.4,.2s.6,.8,.5,1.3" fill="none" isolation="isolate" opacity=".8" stroke="#fff" stroke-linecap="round" stroke-miterlimit="15.1" stroke-width=".8"/>
  <path d="M289.7,77.6v.2l-1.1-.8v.4h-.1v-.8l1.2,1Zm.8-.8v.2l-1.1-.8v.4h-.1v-.8l1.2,1Zm.3-.3l-1-1.5h.1l1,1.3h-.1v.2Zm1-1.5h.1l-.7,.9v-1.2s0-.2-.1-.2h-.4c-.1,0,0,0,0,.2s0,.2,.1,.2h-.2c-.1,0-.2,0-.2-.2s0-.2,.2-.4,.2-.2,.3-.2h.3v1.1h.1l.5-.5v.3h0Zm.8-1h.1l-.7,.9v-1.2s0-.2-.1-.2h-.4c-.1,0,0,0,0,.2s0,.2,.1,.2h-.2c-.1,0-.2,0-.2-.2s0-.2,.2-.4,.2-.2,.3-.2h.3v1.1h.1l.5-.5v.3h0Zm5.6-6.1v.2l-1.1-.8v.4h-.1v-.8l1.2,1Zm.7-.8v.2l-1.1-.8v.4h-.1v-.8l1.2,1Zm.3-.3l-1-1.5h.1l1,1.3h-.1v.2Zm1.1-1.5h.1l-.7,.9v-1.2s0-.2-.1-.2h-.4c-.1,0,0,0,0,.2s0,.2,.1,.2h-.2c-.1,0-.2,0-.2-.2s0-.2,.2-.4,.2-.2,.3-.2h.3v1.1h.1l.5-.5v.3h0Zm.8-1h.1l-.7,.9v-1.2s0-.2-.1-.2h-.4c-.1,0,0,0,0,.2s0,.2,.1,.2h-.2c-.1,0-.2,0-.2-.2s0-.2,.2-.4,.2-.2,.3-.2h.3v1.1h.1l.5-.5v.3h0Z"/>
  <g>
    <rect x="265.64" y="67.88" width="10.8" height="9.9" rx="2.1" ry="2.1" transform="translate(36.09 226.34) rotate(-48.2)" fill="#efbc61" stroke="#62605c" stroke-miterlimit="15.1" stroke-width=".1"/>
    <path d="M265.2,71.5l7.4,6.6m-7-2.8l1.6-1.9m-.2,3.3l1.7-2m-.1,3.3l1.6-1.9m2.8-8.6l-2.3,2.6,5,4.4m-3.6-3l2.3-2.7m-.6,4l2.3-2.6m-9.2,2.1l2.6-3m3,7.8l2.3-2.6" fill="none" stroke="#5c5c5b" stroke-miterlimit="15.1" stroke-width=".2"/>
  </g>
  <g>
    <path d="M287.1,76.5l-1-.4,.7,.2h.2l-.4-.8,.5,.8v.2h0Zm.3-.4l-.5-.9,1,.2h-.4l-.3,.3,.2,.3v.1Zm-.1,0l.2-.3h-.3s-.1-.2-.2-.2v.5h.3Zm.8-.7l-.7-.6,.7,.5,.3-.4-.4,.5h.1Zm.5-.6l-.7-.6,.7,.6Zm.2-.3l-.7-.6,.2-.3h.6s.1,0,.1,.2v.2l-.2,.4v.1Zm0,.2v-.2h.2v-.2h-.6v.3l.4,.5v-.4Zm.9-1.1l-.7-.6,.4-.5-.4,.5,.2,.2,.3-.3-.3,.4,.3,.3h.2Zm.6-.7l-.7-.6,.3-.3h.4c.1,0,0,0,0,.2v.2h.5v.2h-.5l.3,.4h-.3v-.1Zm-.3-.7l.2-.2h-.4l.2,.3v-.1Z" fill="#fff"/>
    <path id="uuid-7bac6c90-e56a-4286-a9e7-3c9d7eef5bc6" data-name="Y" d="M290.5,71.8c-.1,0-.2-.2-.2-.4s0-.2,.1-.3,.1,0,.2,0h.4s.1,0,.2,.2v.2s0,.2-.1,.2h-.6v.1Zm0,.4h.5v-.3s0-.2-.2-.3-.1,0-.2,0h-.4v.2s0,.2,.2,.3v.2h.1v-.1Zm1.1-.9l-.7-.6h.8c0,.2,.1,.2,.1,.2l-.4-.7h.1l.7,.5-.6-.4,.4,.8-.8-.2,.6,.6-.2-.2Zm1.2-1.4l-1-.4,.7,.2h.2l-.4-.8,.5,.8v.2h0Z" fill="#fff"/>
    <path d="M293.1,69.6l-.5-.9,1,.2h-.4l-.3,.3,.2,.3v.1Zm-.1,0l.2-.3h-.3s-.1-.2-.2-.2v.5h.3Zm.8-.8l-.7-.6,.7,.5,.3-.4-.4,.5h.1Zm.5-.6l-.7-.6,.7,.6Zm.2-.3l-.7-.6,.2-.3h.6s.1,0,.1,.2v.2l-.2,.4v.1Zm0,.2v-.2h.2v-.2h-.6v.3l.4,.5v-.4Zm1.1-1.3l-.7-.6-.2,.2,.5-.7-.2,.3,.7,.6v.2h-.1Zm.4-.4l-.7-.6,.3,.2,.3-.4-.3-.3,.7,.6-.3-.2-.3,.4,.3,.3Zm.6-.8l-.7-.6,.3-.3h.4c.1,0,0,0,0,.2v.2h.5v.2h-.5l.3,.4h-.3v-.1Zm-.3-.7l.2-.2h-.4l.2,.3v-.1Zm.7-1.3l.4,.3,.2,.2v.4c-.2,.2-.2,0-.3,0h-.4l-.4-.4,.4,.3h.4v-.4l-.5-.4h.2Zm-9.9,12.8l-1-.4,.7,.2h.2l-.4-.8,.5,.8v.2h0Zm.3-.4l-.5-.9,1,.2h-.4l-.3,.3,.2,.3v.1Zm-.1,0l.2-.3h-.3s-.1-.2-.2-.2v.5h.3Zm.8-.7l-.7-.6,.7,.5,.3-.4-.4,.5h.1Zm.5-.6l-.7-.6,.7,.6Zm.2-.3l-.7-.6,.2-.3h.6s.1,0,.1,.2v.2l-.2,.4v.1Zm0,.2v-.2h.2v-.2h-.6v.3l.4,.5v-.4Zm.9-1.1l-.7-.6,.4-.5-.4,.5,.2,.2,.3-.3-.3,.4,.3,.3h.2Zm.6-.7l-.7-.6,.3-.3h.4c.1,0,0,0,0,.2v.2h.5v.2h-.5l.3,.4h-.3v-.1Zm-.3-.7l.2-.2h-.4l.2,.3v-.1Z" fill="#fff"/>
    <path id="uuid-134e9e76-762e-4fe6-981e-ea911aeae301" data-name="Y" d="M290.5,71.8c-.1,0-.2-.2-.2-.4s0-.2,.1-.3,.1,0,.2,0h.4s.1,0,.2,.2v.2s0,.2-.1,.2h-.6v.1Zm0,.4h.5v-.3s0-.2-.2-.3-.1,0-.2,0h-.4v.2s0,.2,.2,.3v.2h.1v-.1Zm1.1-.9l-.7-.6h.8c0,.2,.1,.2,.1,.2l-.4-.7h.1l.7,.5-.6-.4,.4,.8-.8-.2,.6,.6-.2-.2Zm1.2-1.4l-1-.4,.7,.2h.2l-.4-.8,.5,.8v.2h0Z" fill="#fff"/>
    <path d="M293.1,69.6l-.5-.9,1,.2h-.4l-.3,.3,.2,.3v.1Zm-.1,0l.2-.3h-.3s-.1-.2-.2-.2v.5h.3Zm.8-.8l-.7-.6,.7,.5,.3-.4-.4,.5h.1Zm.5-.6l-.7-.6,.7,.6Zm.2-.3l-.7-.6,.2-.3h.6s.1,0,.1,.2v.2l-.2,.4v.1Zm0,.2v-.2h.2v-.2h-.6v.3l.4,.5v-.4Zm1.1-1.3l-.7-.6-.2,.2,.5-.7-.2,.3,.7,.6v.2h-.1Zm.4-.4l-.7-.6,.3,.2,.3-.4-.3-.3,.7,.6-.3-.2-.3,.4,.3,.3Zm.6-.8l-.7-.6,.3-.3h.4c.1,0,0,0,0,.2v.2h.5v.2h-.5l.3,.4h-.3v-.1Zm-.3-.7l.2-.2h-.4l.2,.3v-.1Zm.7-1.3l.4,.3,.2,.2v.4c-.2,.2-.2,0-.3,0h-.4l-.4-.4,.4,.3h.4v-.4l-.5-.4h.2Z" fill="#fff"/>
  </g>
  <rect x="241.5" y="29.53" width="69.6" height="43.9" rx="2.1" ry="2.1" transform="translate(114.07 280.99) rotate(-65.3)" fill="#be1e2d"/>
  <g>
    <rect x="254.42" y="63.13" width="12.4" height="11.3" rx="2.4" ry="2.4" transform="translate(87.06 275.01) rotate(-64.7)" fill="#2b0000" stroke="#62605c" stroke-miterlimit="17.3" stroke-width=".2"/>
    <path d="M254.2,69.2l10.2,4.8m-8.6-.7l1.2-2.7m.9,3.8l1.2-2.7m.9,3.6l1.2-2.7m.3-10.3l-1.7,3.7,6.9,3.2m-4.9-2.3l1.7-3.7m.5,4.7l1.7-3.6m-9.4,5.2l1.9-4.2m5.8,7.7l1.7-3.6" fill="#2b0000" stroke="#5c5c5b" stroke-miterlimit="17.3" stroke-width=".2"/>
  </g>
  <path d="M270.1,76.4l-.7,1.5h-.3l.3-.7-2.1-1-.3,.6h-.3c0-.3,.1-.5,.1-.7s-.1-.2-.3-.3l.2-.3,2.8,1.3,.3-.6h.3v.2Zm1.2-2.5l-.9,1.9-.4-.2c0-.2-.1-.4-.2-.6,0-.2-.1-.4-.2-.5l-.4-.8c-.1-.2-.3-.3-.4-.4s-.2,0-.2,0h-.4v.2c-.2,.2-.1,.2-.1,.2v.7l-.4-.2v-.4c0-.2,0-.3,.1-.5,.1-.3,.3-.5,.5-.6h.7c.1,0,.2,0,.3,.2,.1,.2,.2,.2,.2,.3,0,0,.1,.2,.2,.3l.2,.4c0,.2,.2,.4,.2,.6s.1,.4,.2,.6l.7-1.5,.4,.2h-.1v.1Zm-2.3-2.5v.9l-.4-.2v-.4c0-.2,0-.3,.1-.5s.1-.3,.2-.4c0,0,.2-.2,.3-.2h.7c.2,0,.3,.2,.4,.4v.5l.2-.2h.9c.2,0,.3,0,.4,.3,0,0,.2,.2,.2,.4v.4s0,.3-.1,.5-.2,.3-.3,.4l-.3,.3-.4-.2c.1,0,.2-.2,.3-.3,.1,0,.2-.3,.3-.4s0-.2,0-.3v-.3s0-.2-.1-.2c0,0-.1,0-.3-.2s-.2,0-.3,0h-.2s-.1,0-.2,.2c0,0-.1,.2-.1,.3v.2l-.4-.2c0-.3,.1-.5,0-.7,0-.2-.1-.3-.3-.4s-.2,0-.2,0h-.4v.3Zm3.4-2.6l-.2,.4,1.1,.5-.2,.4-1.1-.5-.6,1.4-.4-.2-1-2.2,.2-.4,1.7,.8,.2-.4,.3,.2Zm-.7,.6l-1.2-.6,.7,1.6,.5-1.1v.1Zm2.4-4.1c.2,0,.3,.2,.4,.3s.2,.2,.2,.4v.4s0,.3-.1,.5-.2,.3-.3,.4l-.3,.3-.4-.2h.1l.2-.3,.2-.2v-.2c.2-.2,.1-.2,.1-.3v-.3s0-.2-.2-.2c0,0-.2,0-.3-.2s-.2,0-.3,0h-.2s-.2,0-.2,.2c0,0-.1,.2-.2,.3s0,.2-.1,.4v.3l-1.6-.7,.8-1.7,.4,.2-.6,1.3,.8,.4v-.2c0-.3,.1-.4,.2-.5,0,0,.2-.2,.3-.2h.9l.2-.2h0Zm1.1-2.4c.2,0,.3,.2,.4,.3s.2,.2,.2,.4v.4s0,.3-.1,.4-.1,.3-.3,.4c-.1,0-.2,.2-.4,.2h-.6c-.2,0-.5,0-.7-.2s-.5-.3-.7-.4l-.5-.5c-.1-.2-.2-.4-.2-.6s0-.5,.2-.7,0,0,.1-.2,0,0,.1,0l.4,.2v.2s-.1,0-.2,.2c-.1,.3-.1,.5,0,.8,.1,.3,.3,.5,.7,.6v-.4s0-.2,.1-.4,.1-.2,.2-.3c0,0,.2-.2,.3-.2h1v-.2Zm-.2,.3h-.8v.2c-.2,.2-.1,.2-.1,.3v.3h.1c.2,0,.4,.2,.6,.2h.6s.1,0,.1-.2v-.5c0-.2-.2-.3-.5-.4v.1Zm-.4-3.3l2,2.6-.2,.4-2.1-2.7-.7,1.6-.4-.2,.9-2,.5,.2v.1Zm3.4,0c0,.2-.2,.3-.3,.4-.1,0-.2,.2-.4,.2h-.8c-.1,0-.3-.2-.4-.4s-.2-.3-.2-.6c-.2,0-.3,.2-.5,.2h-.5c-.2,0-.4-.3-.5-.5v-.8c0-.3,.3-.5,.5-.6s.5,0,.7,0,.3,.2,.4,.3,.2,.3,.2,.5c.2,0,.3-.2,.5-.3h.5c.2,0,.4,.3,.5,.6v.9l.3,.2v-.1Zm-.6-1.3h-.3s-.2,0-.4,.2c0,0-.1,0-.2,.2l-.2,.2c0,.2,0,.3,.2,.4l.3,.3h.6c.2,0,.3-.2,.4-.3s0-.3,0-.5-.2-.3-.4-.4v-.1Zm-1.6-1.1h-.4c-.1,0-.2,.2-.3,.3s0,.3,0,.4,.1,.2,.3,.3,.2,0,.3,0h.3s.1,0,.2-.2c0,0,.2,0,.2-.2s0-.3-.2-.4-.2-.2-.3-.2h-.1Zm1.2-1.5c-.2,0-.3-.2-.4-.3s-.2-.2-.2-.4v-.8s.2-.3,.3-.4,.2-.2,.4-.2h.6c.2,0,.5,0,.8,.2s.5,.3,.7,.4c.2,.2,.4,.3,.5,.5s.2,.4,.2,.6,0,.4-.2,.7,0,0,0,.2v.2l-.5-.2v-.2s.1,0,.2-.2c.1-.3,.1-.5,0-.8-.1-.2-.3-.5-.7-.6v.4s0,.2-.1,.4-.1,.2-.2,.3c0,0-.2,.2-.3,.2h-1.1Zm1-1.5c-.2,0-.4-.2-.6-.2h-.6v.7c-.1,.2,.1,.3,.4,.4s.2,0,.4,0h.5c.1,0,0,0,.1-.2s0-.2,0-.3v-.3h-.2v-.1Zm1.6-2.7c.6,.3,.9,.5,1.1,.8s.2,.6,0,.9-.4,.5-.8,.6c-.3,0-.8,0-1.3-.3s-.9-.5-1.1-.8-.2-.6,0-.9,.4-.5,.8-.6c.3,0,.8,0,1.3,.3Zm.7,1s-.2-.2-.4-.3c-.2,0-.3-.2-.6-.3s-.4-.2-.6-.2h-.7s-.2,0-.2,.2v.3s0,.2,.2,.3c0,0,.2,.2,.4,.3,.2,0,.3,.2,.5,.3s.4,.2,.6,.2h.7s.2,0,.2-.3v-.3s0-.2-.2-.3h.1v.1Zm1.9-2.4l-.7,1.5h-.3l.3-.7-2.1-1-.3,.6h-.3c0-.3,.1-.5,.1-.7s-.1-.2-.3-.3l.2-.3,2.8,1.3,.3-.6h.3v.2Zm1.2-2.5l-.9,1.9-.4-.2c0-.2-.1-.4-.2-.6,0-.2-.1-.4-.2-.5l-.4-.8c-.1-.2-.3-.3-.4-.4s-.2,0-.2,0h-.4v.2c-.2,.2-.1,.2-.1,.2v.7l-.4-.2v-.4c0-.2,0-.3,.1-.5,.1-.3,.3-.5,.5-.6h.7c.1,0,.2,0,.3,.2,.1,.2,.2,.2,.2,.3,0,0,.1,.2,.2,.3l.2,.4c0,.2,.2,.4,.2,.6s.1,.4,.2,.6l.7-1.5,.4,.2h-.1v.1Zm-1.7-3.8v.9l-.4-.2v-.4c0-.2,0-.3,.1-.5s.1-.3,.2-.4c0,0,.2-.2,.3-.2h.7c.2,0,.3,.2,.4,.4v.5l.2-.2h.9c.2,0,.3,0,.4,.3,0,0,.2,.2,.2,.4v.4s0,.3-.1,.5-.2,.3-.3,.4l-.3,.3-.4-.2c.1,0,.2-.2,.3-.3,.1,0,.2-.3,.3-.4s0-.2,0-.3v-.3s0-.2-.1-.2c0,0-.1,0-.3-.2s-.2,0-.3,0h-.2s-.1,0-.2,.2c0,0-.1,.2-.1,.3v.2l-.4-.2c0-.3,.1-.5,0-.7,0-.2-.1-.3-.3-.4s-.2,0-.2,0h-.4v.3Zm3.4-2.7l-.2,.4,1.1,.5-.2,.4-1.1-.5-.6,1.4-.4-.2-1-2.2,.2-.4,1.7,.8,.2-.4,.3,.2Zm-.7,.6l-1.2-.6,.7,1.6,.5-1.1v.1Zm1.8-2.7c.2,0,.3,.2,.4,.3s.2,.2,.2,.4v.4s0,.3-.1,.5-.2,.3-.3,.4l-.3,.3-.4-.2h.1l.2-.3,.2-.2v-.2c.2-.2,.1-.2,.1-.3v-.3s0-.2-.2-.2c0,0-.2,0-.3-.2s-.2,0-.3,0h-.2s-.2,0-.2,.2c0,0-.1,.2-.2,.3s0,.2-.1,.4v.3l-1.6-.7,.8-1.7,.4,.2-.6,1.3,.8,.4v-.2c0-.3,.1-.4,.2-.5,0,0,.2-.2,.3-.2h.9l.2-.2Zm1.1-2.4c.2,0,.3,.2,.4,.3s.2,.2,.2,.4v.4s0,.3-.1,.4-.1,.3-.3,.4c-.1,0-.2,.2-.4,.2h-.6c-.2,0-.5,0-.7-.2s-.5-.3-.7-.4l-.5-.5c-.1-.2-.2-.4-.2-.6s0-.5,.2-.7,0,0,.1-.2,0,0,.1,0l.4,.2v.2s-.1,0-.2,.2c-.1,.3-.1,.5,0,.8s.3,.5,.7,.6v-.4s0-.2,.1-.4,.1-.2,.2-.3c0,0,.2-.2,.3-.2h1v-.2Zm-.2,.3h-.8v.2c-.2,.2-.1,.2-.1,.3v.3h.1c.2,0,.4,.2,.6,.2h.6s.1,0,.1-.2v-.5c0-.2-.2-.3-.5-.4v.1Z" fill="#fff"/>
  <path d="M278.2,22.7c1.1-.8,2.5-1,3.7-.5s2.1,1.7,2.3,3m-5.1-1.4c.7-.5,1.6-.6,2.4-.3s1.3,1,1.4,1.9m-3.3-.5c.4-.3,.9-.4,1.4-.2s.8,.6,.9,1.1" fill="none" isolation="isolate" opacity=".8" stroke="#fff" stroke-linecap="round" stroke-miterlimit="15.1" stroke-width=".8"/>
  <path d="M280.2,68.1v.2l-1.2-.5v.4h-.2v-.4s0-.2-.1-.3l1.5,.6h0Zm.5-1v.2l-1.2-.5v.4h-.2v-.4s0-.2-.1-.3l1.5,.6h0Zm.2-.4l-1.3-1.1,1.3,1v.1Zm.5-1.6h.2l-.5,1.1h-.1s-.1,0-.1-.2c0,0,0-.2-.1-.3,0-.2-.1-.4-.2-.5,0,0-.1-.2-.2-.2h-.2s-.1,0-.2,.2,0,.2,0,.2l.2,.2v.2c-.2,0-.3-.2-.4-.3v-.4c0-.2,.2-.2,.3-.3h.6v.2c.1,0,.1,.2,.2,.4v.3l.3-.6h.2Zm.6-1.2h.2l-.5,1.1h-.1s-.1,0-.1-.2c0,0,0-.2-.1-.3,0-.2-.1-.4-.2-.5,0,0-.1-.2-.2-.2h-.2s-.1,0-.2,.2c-.1,.2,0,.2,0,.2l.2,.2v.2c-.2,0-.3-.2-.4-.3v-.4c0-.2,.2-.2,.3-.3h.6v.2c.1,0,.1,.2,.2,.4v.3l.3-.6h.2Zm3.6-7.4v.2l-1.2-.5v.4h-.2v-.4s0-.2-.1-.3l1.5,.6h0Zm.5-1v.2l-1.2-.5v.4h-.2v-.4s0-.2-.1-.3l1.5,.6h0Zm.2-.4l-1.3-1.1,1.3,1v.1Zm.5-1.6h.2l-.5,1.1h-.1s-.1,0-.1-.2c0,0,0-.2-.1-.3,0-.2-.1-.4-.2-.5,0,0-.1-.2-.2-.2h-.2s-.1,0-.2,.2,0,.2,0,.2l.2,.2v.2c-.2,0-.3-.2-.4-.3v-.4c0-.2,.2-.2,.3-.3h.6v.2c.1,0,.1,.2,.2,.4v.3l.3-.6h.2Zm.5-1.2h.2l-.5,1.1h-.1s-.1,0-.1-.2c0,0,0-.2-.1-.3,0-.2-.1-.4-.2-.5,0,0-.1-.2-.2-.2h-.2s-.1,0-.2,.2,0,.2,0,.2l.2,.2v.2c-.2,0-.3-.2-.4-.3v-.4c0-.2,.2-.2,.3-.3h.6v.2c.1,0,.1,.2,.2,.4v.3l.3-.6h.2Z" fill="#fff"/>
  <g>
    <rect x="255.08" y="63.82" width="10.8" height="9.9" rx="2.1" ry="2.1" transform="translate(86.99 274.88) rotate(-64.7)" fill="#efbc61" stroke="#62605c" stroke-miterlimit="15.1" stroke-width=".1"/>
    <path d="M255,69.2l8.9,4.2m-7.5-.7l1-2.3m.8,3.3l1-2.4m.9,3.2l1-2.3m.2-9.1l-1.5,3.2,6,2.8m-4.2-1.9l1.5-3.2m.5,4l1.5-3.1m-8.3,4.5l1.7-3.6m5.1,6.7l1.5-3.2" fill="none" stroke="#5c5c5b" stroke-miterlimit="15.1" stroke-width=".2"/>
  </g>
  <g>
    <path d="M277.4,67.7h-1.1v-.2h.9l-.5-.6,.7,.6v.2Zm.1-.4l-.7-.8h.7l-.2,.4,.2,.2v.2Zm-.2-.3v-.3h-.3l.2,.2,.1,.1Zm.7-.5l-.9-.4,.8,.2,.2-.4h.1l-.3,.6h.1Zm.3-.7l-.9-.4,.9,.3v.1Z" fill="#fff"/>
    <path id="uuid-11314ae0-6ac7-4bd5-ba1d-ed9812f36416" data-name="Z" d="M278.4,65.4l-.9-.4v-.3c.1,0,.2,0,.2-.2h.8c.1,.2,0,0,0,.2v.6h-.1v.1Zm-.2,.3v-.2h.1v-.2h-.6v.3l.6,.3v-.2h-.1Zm.8-1.5l-.9-.4,.3-.6h.1l-.2,.5h.3l.2-.3h.1l-.2,.5,.4,.2-.1,.1Zm.4-.7l-.9-.4,.2-.4v-.2c.2-.2,.1,0,.2,0h.3v.2h.2s-.1,.2-.2,.2l.4,.3-.2,.2v.1Zm-.4,.2v0Zm.3-1.2c-.1,0-.2-.2-.3-.3v-.4c0-.2,0,0,.2-.2s.1,0,.2,0h.3s.2,0,.2,.2v.4s0,.2-.2,.2h-.4v.1Zm0,0h.3s.2,0,.2-.2v-.3s-.1-.2-.2-.2h-.5v.3s.1,.2,.2,.2v.2Zm.9-.8l-.9-.4v-.2h.9l-.5-.6v-.2l1,.4-.7-.2,.6,.6h-.9l.8,.4-.3,.2Zm.8-1.7h-1.1v-.2h.9l-.5-.6,.7,.6v.2Zm.2-.4l-.7-.8h.7l-.2,.4,.2,.2v.2Zm-.2-.3v-.3h-.3l.2,.2,.1,.1Zm.6-.5l-.9-.4,.8,.2,.2-.4h.1l-.3,.6h.1Zm.3-.7l-.9-.4,.9,.3v.1Z" fill="#fff"/>
    <path d="M282.1,57.5l-.9-.4v-.3c.1,0,.2,0,.2-.2h.8c.1,.2,0,0,0,.2v.6h-.1v.1Zm-.2,.3v-.2h.1v-.2h-.6v.3l.6,.3v-.2h-.1Zm.8-1.7l-.8-.4v.3h-.2l.3-.8h.1v.3l.7,.4v.2h-.1Zm.3-.5l-.9-.4h.4l.2-.4-.4-.2,.9,.3h-.5l-.2,.4,.4,.2h.1v.1Zm.4-.8l-.9-.4,.2-.4v-.2c.2-.2,.1,0,.2,0h.3v.2h.2s-.1,.2-.2,.2l.4,.3-.2,.2v.1Zm-.4,.2v0Zm.2-2.1h.6c0,.2,.2,.2,.2,.2v.6h-.5l-.5-.2h.6c0,.2,.1,.2,.2,.2h.1v-.3l-.2-.2-.5-.2v-.1Zm-5.8,14.9h-1.1v-.2h.9l-.5-.6,.7,.6v.2Zm.1-.4l-.7-.8h.7l-.2,.4,.2,.2v.2Zm-.2-.3v-.3h-.3l.2,.2,.1,.1Zm.7-.5l-.9-.4,.8,.2,.2-.4h.1l-.3,.6h.1Zm.3-.7l-.9-.4,.9,.3v.1Z" fill="#fff"/>
    <path id="uuid-54da93cf-319b-4c6a-b655-d4e59a8e906d" data-name="Z" d="M278.4,65.4l-.9-.4v-.3c.1,0,.2,0,.2-.2h.8c.1,.2,0,0,0,.2v.6h-.1v.1Zm-.2,.3v-.2h.1v-.2h-.6v.3l.6,.3v-.2h-.1Zm.8-1.5l-.9-.4,.3-.6h.1l-.2,.5h.3l.2-.3h.1l-.2,.5,.4,.2-.1,.1Zm.4-.7l-.9-.4,.2-.4v-.2c.2-.2,.1,0,.2,0h.3v.2h.2s-.1,.2-.2,.2l.4,.3-.2,.2v.1Zm-.4,.2v0Zm.3-1.2c-.1,0-.2-.2-.3-.3v-.4c0-.2,0,0,.2-.2s.1,0,.2,0h.3s.2,0,.2,.2v.4s0,.2-.2,.2h-.4v.1Zm0,0h.3s.2,0,.2-.2v-.3s-.1-.2-.2-.2h-.5v.3s.1,.2,.2,.2v.2Zm.9-.8l-.9-.4v-.2h.9l-.5-.6v-.2l1,.4-.7-.2,.6,.6h-.9l.8,.4-.3,.2Zm.8-1.7h-1.1v-.2h.9l-.5-.6,.7,.6v.2Zm.2-.4l-.7-.8h.7l-.2,.4,.2,.2v.2Zm-.2-.3v-.3h-.3l.2,.2,.1,.1Zm.6-.5l-.9-.4,.8,.2,.2-.4h.1l-.3,.6h.1Zm.3-.7l-.9-.4,.9,.3v.1Z" fill="#fff"/>
    <path d="M282.1,57.5l-.9-.4v-.3c.1,0,.2,0,.2-.2h.8c.1,.2,0,0,0,.2v.6h-.1v.1Zm-.2,.3v-.2h.1v-.2h-.6v.3l.6,.3v-.2h-.1Zm.8-1.7l-.8-.4v.3h-.2l.3-.8h.1v.3l.7,.4v.2h-.1Zm.3-.5l-.9-.4h.4l.2-.4-.4-.2,.9,.3h-.5l-.2,.4,.4,.2h.1v.1Zm.4-.8l-.9-.4,.2-.4v-.2c.2-.2,.1,0,.2,0h.3v.2h.2s-.1,.2-.2,.2l.4,.3-.2,.2v.1Zm-.4,.2v0Zm.2-2.1h.6c0,.2,.2,.2,.2,.2v.6h-.5l-.5-.2h.6c0,.2,.1,.2,.2,.2h.1v-.3l-.2-.2-.5-.2v-.1Z" fill="#fff"/>
  </g>
  <rect x="219.38" y="27.09" width="69.6" height="43.9" rx="2.1" ry="2.1" transform="translate(168.11 293.19) rotate(-81.5)" fill="#231f20"/>
  <g>
    <rect x="237.63" y="64.4" width="12.4" height="11.3" rx="2.4" ry="2.4" transform="translate(136.1 299.73) rotate(-80.9)" fill="#2b0000" stroke="#62605c" stroke-miterlimit="17.3" stroke-width=".2"/>
    <path d="M237.6,72.3l11.2,1.8m-8.4,1.7l.4-2.9m1.8,3.3l.4-3m2,3.3l.4-2.9m-2.7-10l-.6,4,7.5,1.1m-5.3-.7l.6-4m1.8,4.3l.6-3.9m-7.5,7.6l.7-4.5m7.6,5.7l.6-3.9" fill="#2b0000" stroke="#5c5c5b" stroke-miterlimit="17.3" stroke-width=".2"/>
  </g>
  <g>
    <path d="M255,74.8l-.2,1.7h-.3v-.7l-2.2-.3v.6h-.4v-.6s-.2-.2-.4-.2v-.4l3.1,.5v-.6h.4Zm.4-2.8l-.3,2.1h-.5l-.3-.6c-.1-.2-.2-.3-.4-.5-.2-.3-.5-.5-.6-.6-.2,0-.3-.2-.5-.2h-.5v1.4h-.6v-1c0-.3,.2-.6,.4-.7,.2-.2,.4-.2,.7-.2h.4c.1,0,.2,0,.3,.2,0,0,.2,.2,.3,.2l.3,.3c.1,.2,.3,.4,.4,.6s.3,.4,.3,.5l.3-1.7h.3v.2h0Z" fill="#fff"/>
    <path d="M252.5,70.2v1h-.5v-1c0-.2,0-.3,.1-.4,0,0,.1-.2,.2-.3,0,0,.2-.2,.3-.2h.4c.2,0,.3,0,.5,.3,.1,0,.2,.3,.2,.5v-.2l.3-.2h1.1c.1,0,.2,.2,.3,.3,0,0,.2,.2,.2,.4v.5c0,.2,0,.3-.1,.5s-.1,.3-.2,.4h-.5c0-.2,.2-.3,.3-.5,0-.2,.1-.3,.2-.5s0-.2,0-.3c0,0,0-.2-.1-.3l-.2-.2h-.8v.7h-.5v-.7s-.2-.2-.4-.3-.2,0-.2,0h-.2v.4h-.4v.1Zm2.5-3.5v.4l1.1,.2v.4l-1.2-.2-.2,1.5h-.5l-1.5-1.9v-.4l1.9,.3v-.4h.4v.1Zm-.5,1.2l-1.3-.2,1.2,1.4,.2-1.2h-.1Zm1.1-5h.4l.3,.3s.2,.2,.2,.4v.5c0,.2,0,.3-.1,.5,0,.2-.1,.3-.2,.4h-.5s0-.2,.1-.2,0,0,.1-.2c0,0,0-.2,.1-.2v-.5s0-.2-.1-.2l-.2-.2h-.8l-.2,.2v1l-1.8-.3,.3-1.9h.4l-.2,1.5h.9c0-.3,0-.4,.1-.5,0,0,.1-.2,.2-.3,.1,0,.2-.2,.4-.2h.6v-.1Zm.4-2.7c.2,0,.3,0,.5,.2,.1,0,.3,.2,.3,.3s.2,.2,.2,.4v.4s0,.3-.1,.4l-.3,.3c-.1,0-.3,.2-.5,.2h-.8c-.3,0-.6,0-.8-.2-.2,0-.4-.2-.6-.4-.2,0-.3-.3-.3-.5v-1.1h.4v.5c0,.3,0,.5,.2,.7s.4,.4,.8,.4c0,0-.1-.2-.1-.4v-.7s.1-.2,.2-.3c.1,0,.2-.2,.4-.2h.5Zm0,.5h-.7s-.1,0-.1,.2v.8h1.1l.2-.2v-.2c0-.2,0-.3-.1-.5-.1,0-.3-.2-.6-.3l.2,.2h0Zm-1.4-3.4l2.7,1.9v.5l-2.9-2-.3,1.8h-.4l.3-2.2h.6Zm3.2-1c0,.2,0,.3-.1,.5l-.3,.3c-.1,0-.2,0-.4,.2h-.4c-.1,0-.3,0-.5-.2s-.2-.3-.3-.5c-.1,.2-.2,.3-.4,.3h-.5c-.3,0-.5-.2-.6-.4s-.2-.5-.1-.8,.2-.5,.4-.7,.4-.2,.7-.2,.3,0,.4,.2c.1,0,.2,.3,.3,.4,0-.2,.3-.3,.4-.4h.5c.2,0,.5,.2,.7,.4s.2,.5,.2,.8v.1Zm-.9-.4h-.3s-.2,0-.3,.3v.2c-.1,0-.2,.2-.3,.3,0,0,.2,.3,.3,.3s.2,0,.4,.2,.4,0,.5,0c.2,0,.2-.3,.3-.4s0-.4-.1-.5-.2-.2-.4-.2v-.2h-.1Zm-1.8-.3h-.4c-.1,0-.2,.2-.2,.4v.4s.2,.2,.3,.2h.3s.2,0,.2-.2v-.4c.2,0,.1-.3,0-.3h-.2v-.1Zm.7-2.5c-.2,0-.3,0-.5-.2-.1,0-.3-.2-.3-.3s-.1-.2-.2-.4v-.4s0-.3,.1-.4l.3-.3c.1,0,.3-.2,.5-.2h.8c.3,0,.5,0,.8,.2,.2,0,.4,.2,.6,.4s.3,.3,.3,.5v1.1h-.4v-.5c0-.3,0-.6-.2-.8s-.4-.3-.8-.4c0,0,.1,.3,.1,.4v.7s-.1,.2-.2,.3-.2,.2-.4,.2h-.5v.1Zm.6-1.3h-1l-.2,.2v.2c0,.2,0,.3,.1,.5,.1,0,.3,.2,.6,.3s.3,0,.4,0h.3v-.2c.2-.2,.1,0,.1-.2v-.6h-.1l-.2-.2Zm.7-3.3c.6,0,1.1,.2,1.3,.5,.3,.2,.4,.5,.3,.9s-.2,.6-.6,.8c-.3,0-.8,.2-1.4,0s-1.1-.2-1.3-.5-.4-.5-.3-.9,.2-.6,.6-.8c.3,0,.8-.2,1.4,0h0Zm1,.7c-.1,0-.2,0-.4-.2h-1.6c-.1,0-.2,0-.3,.2s-.1,.2-.1,.3v.3s.1,.2,.2,.2,.3,0,.4,.2h1.9s.1-.2,.1-.3v-.3s-.1-.2-.2-.2v-.2h0Zm1.1-2.9l-.2,1.7h-.3v-.7l-2.2-.3v.6h-.4v-.6s-.2-.2-.4-.2v-.4l3.1,.5v-.6h.4Zm.4-2.7l-.3,2.1h-.5l-.3-.6c-.1-.2-.2-.3-.4-.5-.2-.3-.5-.5-.6-.6-.2,0-.3-.2-.5-.2h-.5v1.4h-.6v-1c0-.3,.2-.6,.4-.7,.2-.2,.4-.2,.7-.2h.4c.1,0,.2,0,.3,.2,0,0,.2,.2,.3,.2l.3,.3c.1,.2,.3,.4,.4,.6s.3,.4,.3,.5l.3-1.7h.3v.2h0Zm-2.7-3.3v1h-.5v-1c0-.2,0-.3,.1-.4,0,0,.1-.2,.2-.3,0,0,.2-.2,.3-.2h.4c.2,0,.3,0,.5,.3,.1,0,.2,.3,.2,.5v-.2l.3-.2h1.1c.1,0,.2,.2,.3,.3,0,0,.2,.2,.2,.4v.5c0,.2,0,.3-.1,.5s-.1,.3-.2,.4h-.5c0-.2,.2-.3,.3-.5,0-.2,.1-.3,.2-.5s0-.2,0-.3c0,0,0-.2-.1-.3l-.2-.2h-.8v.7h-.5v-.7s-.2-.2-.4-.3-.2,0-.2,0h-.2v.4h-.4v.1Zm2.5-3.5v.4l1.1,.2v.4l-1.2-.2-.2,1.5h-.5l-1.5-1.9v-.4l1.9,.3v-.4h.4v.1Zm-.5,1.2l-1.3-.2,1.2,1.4,.2-1.2h-.1Zm1-3.5h.4l.3,.3s.2,.2,.2,.4v.5c0,.2,0,.3-.1,.5,0,.2-.1,.3-.2,.4h-.5s0-.2,.1-.2,0,0,.1-.2c0,0,0-.2,.1-.2v-.5s0-.2-.1-.2l-.2-.2h-.8l-.2,.2v1l-1.8-.3,.3-1.9h.4l-.2,1.5h.9c0-.3,0-.4,.1-.5,0,0,.1-.2,.2-.3s.2-.2,.4-.2h.6v-.1Zm.4-2.8c.2,0,.3,0,.5,.2,.1,0,.3,.2,.3,.3s.2,.2,.2,.4v.4s0,.3-.1,.4l-.3,.3c-.1,0-.3,.2-.5,.2h-.8c-.3,0-.6,0-.8-.2-.2,0-.4-.2-.6-.4-.2,0-.3-.3-.3-.5v-1.1h.4v.5c0,.3,0,.5,.2,.7s.4,.4,.8,.4c0,0-.1-.2-.1-.4v-.7s.1-.2,.2-.3,.2-.2,.4-.2h.5Zm0,.5h-.4c-.1,0-.2,0-.3,.1,0,0-.1,0-.1,.2v.8h1.1l.2-.2v-.2c0-.2,0-.3-.1-.5-.1-.1-.3-.2-.6-.3l.2,.2v-.1Z" fill="#fff"/>
  </g>
  <path d="M247.7,21c.8-1.1,2.1-1.7,3.4-1.5,1.3,.1,2.5,1,3,2.3m-5.2,0c.5-.7,1.3-1.1,2.2-1s1.6,.6,1.9,1.4m-3.3,.4c.3-.4,.8-.6,1.3-.6s.9,.4,1.2,.9" fill="none" isolation="isolate" opacity=".8" stroke="#fff" stroke-linecap="round" stroke-miterlimit="15.1" stroke-width=".8"/>
  <path d="M262.3,63.9v.2l-1.3-.2v.2c.2,0,.1,.2,.1,.2h-.2s0-.3-.1-.3c0,0-.1-.2-.2-.2h1.7v.1Zm.2-1v.2l-1.3-.2v.2c.2,.2,.1,.2,.1,.2h-.2s0-.3-.1-.3c0,0-.1-.2-.2-.2h1.7v.1Zm.1-.3l-1.6-.7v-.2l1.6,.7v.2Zm0-1.8h.2l-.2,1.1h-.1s-.1,0-.2-.2c0,0-.1-.2-.2-.3-.1-.2-.2-.3-.3-.4h-.4s-.1,0-.1,.2v.2h.2v.2c-.2,0-.3,0-.4-.2v-.4c0-.2,0-.3,.2-.3h.5s.1,0,.2,.2c0,0,.1,.2,.2,.3,0,0,.1,.2,.2,.3v-.8h.2v.1Zm.2-1.1h.2l-.2,1.1h-.1s-.1,0-.2-.2c0,0-.1-.2-.2-.3-.1-.2-.2-.3-.3-.4h-.4s-.1,0-.1,.2v.2h.2v.2c-.2,0-.3,0-.4-.2v-.4c0-.2,0-.3,.2-.3h.5s.1,0,.2,.2c0,0,.1,.2,.2,.3,0,0,.1,.2,.2,.3v-.8h.2v.1Z" fill="#fff"/>
  <path d="M264.2,51.2v.2l-1.3-.2v.2c.2,.2,.1,.2,.1,.2h-.2s0-.3-.1-.3c0,0-.1-.2-.2-.2h1.7v.1Zm.2-1v.2l-1.3-.2v.2c.2,.2,.1,.2,.1,.2h-.2s0-.3-.1-.3c0,0-.1-.2-.2-.2h1.7v.1Zm.1-.3l-1.6-.7v-.2l1.6,.7v.2Zm0-1.8h.2l-.2,1.1h-.1s-.1,0-.2-.2c0,0-.1-.2-.2-.3-.1-.2-.2-.3-.3-.4h-.4s-.1,0-.1,.2v.2h.2v.2c-.2,0-.3,0-.4-.2v-.4c0-.2,0-.3,.2-.3h.5s.1,0,.2,.2c0,0,.1,.2,.2,.3,0,0,.1,.2,.2,.3v-.8h.2v.1Zm.2-1.2h.2l-.2,1.1h-.1s-.1,0-.2-.2c0,0-.1-.2-.2-.3-.1-.2-.2-.3-.3-.4h-.4s-.1,0-.1,.2v.2h.2v.2c-.2,0-.3,0-.4-.2v-.4c0-.2,0-.3,.2-.3h.5s.1,0,.2,.2c0,0,.1,.2,.2,.3,0,0,.1,.2,.2,.3v-.8h.2v.1Z" fill="#bcbbbc"/>
  <rect x="238.31" y="65.1" width="10.8" height="9.9" rx="2.1" ry="2.1" transform="translate(136 299.61) rotate(-80.9)" fill="#efbc61"/>
  <path d="M238.4,72l9.8,1.6m-7.4,1.5l.3-2.5m1.7,2.9l.3-2.6m1.7,2.8l.3-2.5m-2.3-8.7l-.5,3.5,6.5,1m-4.6-.7l.5-3.5m1.6,3.7l.6-3.4m-6.7,6.7l.6-4m6.8,5l.5-3.4" fill="none" stroke="#5c5c5b" stroke-miterlimit="15.1" stroke-width=".2"/>
  <g>
    <path d="M259.5,64.4l-1,.2,.7-.3-.7-.4,.9,.4h.1v.1Zm.1-.3l-.9-.5,1-.4-.3,.2v.4l.2,.2v.1Zm.1-.9h-1v-.3h.9v-.4h.2v.6h-.1v.1Zm.1-.7h-1v-.3h1v.3Zm.1-.4h-1v-.7h.7v.7h.3Zm-.1,0v-.4h-.6v.4h.6Zm.3-1.4h-1v-.8h.2v.5h.2v-.4h.2v.5h.4v.2h0Z" fill="#fff"/>
    <path id="uuid-2eb7792e-87e4-4a7b-be8c-e854088c7209" data-name="a" d="M260.2,59.6h-1v-.6s0-.2,.1-.2h.5v.2h.1c0,.2-.1,.2-.1,.2l.4,.2v.2Zm-.5,0v-.3h-.1v.4h.1v-.1Zm.2-1.1c-.2,0-.3,0-.4-.2,0,0-.1-.2,0-.4s0-.2,.1-.2h.8l.2,.2c.1,0,0,.2,0,.2,0,0,0,.2-.1,.2h-.5v.2h-.1Zm-.1,0h.3s.1,0,.1-.2v-.3h-.7c-.1,0,0,0,0,.2v.2h.3v.1Zm.7-.9h-1v-.3h.8s.1,0,.2-.2h-.1l-.6-.3v-.2h1v.3h-.8l.8,.3-.9,.3h.8v.2h-.2v-.1Zm.3-1.9l-1,.2,.7-.3-.7-.4,.9,.4h.1v.1Zm0-.3l-.9-.5,1-.4-.3,.2v.4l.2,.2v.1Zm.2-.9h-1v-.3h.9v-.4h.2v.6h-.1v.1Zm.1-.7h-1v-.3h1v.3Zm.1-.4h-1v-.7h.7v.7h.3Zm-.1,0v-.4h-.6v.4h.6Zm.3-1.6h-.9v.2h-.2v-.8h.2v.3h.8v.3h.1Zm.1-.6h-1v-.3h.4v-.4h-.3v-.2h1v.3h-.5v.4h.4v.2Z" fill="#fff"/>
    <path d="M261.6,50.1h-1v-.6s0-.2,.1-.2h.5v.2h.1c0,.2-.1,.2-.1,.2l.4,.2v.2Zm-.5,0v-.3h-.1v.4h.1v-.1Zm-.2-1.9h.9v.5h-.1v-.4h-.8v-.1Zm-1.4,16l-1,.2,.7-.3-.7-.4,.9,.4h.1v.1Zm.1-.3l-.9-.5,1-.4-.3,.2v.4l.2,.2v.1Zm.1-.9h-1v-.3h.9v-.4h.2v.6h-.1v.1Zm.1-.7h-1v-.3h1v.3Zm.1-.4h-1v-.7h.7v.7h.3Zm-.1,0v-.4h-.6v.4h.6Zm.3-1.4h-1v-.8h.2v.5h.2v-.4h.2v.5h.4v.2h0Z" fill="#fff"/>
    <path id="uuid-b7a46941-da15-4d76-aea1-f7649114428a" data-name="a" d="M260.2,59.6h-1v-.6s0-.2,.1-.2h.5v.2h.1c0,.2-.1,.2-.1,.2l.4,.2v.2Zm-.5,0v-.3h-.1v.4h.1v-.1Zm.2-1.1c-.2,0-.3,0-.4-.2,0,0-.1-.2,0-.4s0-.2,.1-.2h.8l.2,.2c.1,0,0,.2,0,.2,0,0,0,.2-.1,.2h-.5v.2h-.1Zm-.1,0h.3s.1,0,.1-.2v-.3h-.7c-.1,0,0,0,0,.2v.2h.3v.1Zm.7-.9h-1v-.3h.8s.1,0,.2-.2h-.1l-.6-.3v-.2h1v.3h-.8l.8,.3-.9,.3h.8v.2h-.2v-.1Zm.3-1.9l-1,.2,.7-.3-.7-.4,.9,.4h.1v.1Zm0-.3l-.9-.5,1-.4-.3,.2v.4l.2,.2v.1Zm.2-.9h-1v-.3h.9v-.4h.2v.6h-.1v.1Zm.1-.7h-1v-.3h1v.3Zm.1-.4h-1v-.7h.7v.7h.3Zm-.1,0v-.4h-.6v.4h.6Zm.3-1.6h-.9v.2h-.2v-.8h.2v.3h.8v.3h.1Zm.1-.6h-1v-.3h.4v-.4h-.3v-.2h1v.3h-.5v.4h.4v.2Z" fill="#fff"/>
    <path d="M261.6,50.1h-1v-.6s0-.2,.1-.2h.5v.2h.1c0,.2-.1,.2-.1,.2l.4,.2v.2Zm-.5,0v-.3h-.1v.4h.1v-.1Zm-.2-1.9h.9v.5h-.1v-.4h-.8v-.1ZM29.6,18.7c0,.3-.1,.6-.3,.8l-3.4,3.4-3.7-2.1v-2.1c0-.6,.5-1.1,1.1-1.1s1.1,.5,1.1,1.1v2.6l3.4-3.4c.4-.4,1.1-.4,1.5,0s.3,.5,.3,.8m-1.1,10h-.4c-.1,0-.3-.1-.4-.2l-3.4-3.4v2.6c0,.6-.5,1.1-1.1,1.1s-1.1-.5-1.1-1.1v-2.1l3.7-2.1,3.4,3.4c.7,.7,.2,1.9-.8,1.9m-2.7-5.7l-.9-.6-2.5-1.4-2.1-1.2h-.3v6.5c0,.1,.1,.2,.2,.2h.1l2.1-1.2,3.4-2v-.3Zm-.8,0l-2.6,1.6-1.6,.9h-.3v-4.9c0-.1,0-.2,.2-.2l1.6,.9,2.6,1.5s.1,.1,0,.2h.1Z" fill="#fff"/>
    <path d="M24.1,23.2l-2,1.1-1.2,.7h-.2v-3.7s0-.1,.1-.1l1.2,.7,2,1.1m23.6,0l-3-1.6-1.9-.9s-.3,0-.3,.2v5c0,.1,.2,.2,.4,.2l1.8-1,3-1.6v-.3Zm-.7-.3l-2.3,1.2-1.4,.8s-.3,0-.3-.1v-4.1l1.5,.7,2.4,1.2v.3h.1Z" fill="#fff"/>
    <path d="M46.2,23.1l-1.7,.9-1.1,.6h-.2v-2.9l1.1,.4,1.8,.9m-14.3-2.5h2.6c1.3,0,2.2,.7,2.2,1.7s-.9,1.8-2.2,1.8h-1.4v1.7h-1.2v-5.2Zm2.5,2.5c.6,0,1-.3,1-.8s-.4-.7-1.1-.7h-1.2v1.5h1.3Zm7.3,1.8v1h-4.2v-5.2h1.2v4.2h3Zm7.3-1l-2.3-3.3h1.5l1.5,2.3,1.5-2.3h1.4l-2.2,3.4v1.9h-1.2v-1.9h-.2v-.1Zm4.4-3.1h.7v2.9l3-2.9h.9l-2.4,2.4,2.7,2.8h-.9l-2.3-2.4-.9,.9v1.6h-.6v-5.2h-.2v-.1Zm5,2.4c0-1.5,1.3-2.7,3-2.7s3,1.2,3,2.7-1.3,2.7-3,2.8-3-1.2-3-2.7v-.1Zm5.3,0c0-1.2-1.1-2.1-2.3-2.1s-2.3,1-2.3,2.2,1.1,2.2,2.4,2.1c1.3,0,2.3-1,2.3-2.2h-.1Zm1.6,1.9l.4-.5c.5,.4,1.1,.7,1.9,.7s1.4-.5,1.4-.9c0-.6-.6-.8-1.6-1-1.2-.2-1.9-.5-1.9-1.5s.8-1.5,1.9-1.5,1.5,.2,2.1,.7l-.4,.5c-.5-.4-1.1-.7-1.7-.7s-1.2,.4-1.2,.9,.6,.7,1.6,.9c1.1,.2,1.9,.6,1.9,1.5s-.7,1.5-2,1.5-1.7-.3-2.3-.8v.2h-.1Zm5.6-4.4h.7l2.2,3.6,2.1-3.7h.7v5.2h-.6v-4l-2.2,3.7-2.2-3.6v4h-.6v-5.2h-.1Zm6.9,2.5c0-1.5,1.3-2.7,3-2.7s3,1.2,3,2.7-1.3,2.7-3,2.8-3-1.2-3-2.7v-.1Zm5.3,0c0-1.2-1.1-2.1-2.3-2.1s-2.3,1-2.3,2.2,1.1,2.2,2.4,2.1,2.3-1,2.3-2.2h-.1Zm1.6,1.9l.4-.5c.5,.4,1.1,.7,1.9,.7s1.4-.5,1.4-.9c0-.6-.6-.8-1.6-1-1.2-.2-1.9-.5-1.9-1.5s.8-1.5,1.9-1.5,1.5,.2,2.1,.7l-.4,.5c-.5-.4-1.1-.7-1.7-.7s-1.2,.4-1.2,.9,.6,.7,1.6,.9c1.1,.2,1.9,.6,1.9,1.5s-.7,1.5-2,1.5-1.7-.3-2.3-.8v.2h-.1Z" fill="#fff"/>
  </g>
  <rect x="53.6" y="197.6" width="227.8" height="123" rx="8.7" ry="8.7" fill="#ffde17"/>
  <path d="M125.7,205.7h1.7v32.5h-1.7v-32.5Zm82.2,0h1.7v32.5h-1.7v-32.5Zm-36.6,38.4c-2.2-2.1-5.7-2.1-7.9,0s-2.2,5.6,0,7.7l3.9,3.9,3.9-3.9c2.2-2.1,2.2-5.6,0-7.7h.1Zm-3.9,5.7c-.5,0-.9-.2-1.2-.5-.7-.7-.7-1.8,0-2.5s.8-.5,1.2-.5,.9,.2,1.2,.5c.7,.7,.7,1.8,0,2.5s-.8,.5-1.2,.5Z" fill="#231f20"/>
  <path d="M0,173.7H16.9v10.2H0v-10.2Z" fill="#fff"/>
  <g>
    <path d="M28.4,306.2c-5,0-9.2-4.1-9.2-9.2s4.1-9.2,9.2-9.2,9.2,4.1,9.2,9.2-4.1,9.2-9.2,9.2Zm0-16.5c-4.1,0-7.4,3.3-7.4,7.4s3.3,7.4,7.4,7.4,7.4-3.3,7.4-7.4-3.3-7.4-7.4-7.4Z" fill="#ffde17"/>
    <circle cx="25.33" cy="288.92" r="9.2" transform="translate(-4.03 .38) rotate(-.8)" fill="#ffde17"/>
  </g>
</svg>