<svg data-name="Layer 1" xmlns="http://www.w3.org/2000/svg" width="335" height="335">
    <defs>
        <linearGradient id="a" x1="166.8" y1="2.4" x2="170.3" y2="323.2" gradientTransform="matrix(1 0 0 -1 0 335)" gradientUnits="userSpaceOnUse">
            <stop offset="0"/>
            <stop offset=".2" stop-color="#542678"/>
            <stop offset=".3" stop-color="#78246f"/>
            <stop offset=".5" stop-color="#962267"/>
            <stop offset=".6" stop-color="#cd205b"/>
            <stop offset=".8" stop-color="#dc2058"/>
            <stop offset="1" stop-color="#ea2055"/>
        </linearGradient>
        <linearGradient id="b" x1="339" y1="-2204.8" x2="162.7" y2="-2157.4" gradientTransform="scale(-1 1) rotate(-2 67120.62 7426.7)" gradientUnits="userSpaceOnUse">
            <stop offset="0"/>
            <stop offset=".2" stop-color="#542678"/>
            <stop offset=".3" stop-color="#78246f"/>
            <stop offset=".4" stop-color="#8c236a"/>
            <stop offset=".5" stop-color="#962267"/>
            <stop offset=".6" stop-color="#cd205b"/>
            <stop offset=".8" stop-color="#dc2058"/>
            <stop offset="1" stop-color="#ea2055"/>
        </linearGradient>
    </defs>
    <path d="M0-.6h337.3v335.5H0V-.6Z" fill="url(#a)"/>
    <path d="m333.1 269.4-1.7-1-.6-.4-.5-.5.6-1 .3-.5c.4-.9.7-1.8.8-2.8 0-.6 0-1.1-.1-1.7-.3-.8-.9-1.4-1.8-2h-.5c-.3-.2-.5-.4-.6-.7-.2-.6-.7-1-1.3-1.2l-.8-.2c-.5-1.5-.7-1.7-2.1-2.2l-.4-.2c-.2 0-.4-.2-.5-.3-.5-.7-1.2-1.2-2-1.5-.8-.3-1.6-.6-2-1.3l-.5-.3c-.4-.2-.8-.5-1.1-1-.5-.6-1.3-1.1-2.1-1.2h-.7c-.8-1.2-2-1.7-3.1-1.2-.7.2-1.4.6-2 1-1.4.8-2.6 2-3.6 3.1l-.8.8c-1-.4-1.4-1.1-1.6-2l-.4-2.3-2.9-1.8c-4.7-3.2-9.4-6.4-14-9.8-11.1-8.2-21.9-16.8-32.3-25.9l-3.3-2.9c-.5-.4-.7-.4-1.2 0l-2.2 2c-.3.2-.8.2-.8.7s.4.7.6 1c2.1 2.4 4.3 4.8 6.6 7l1.7 2.2c5.3 7.2 11.9 12.9 19.7 17.3l5.4 3c7.4 4.7 14.7 9.7 21.7 14.9.3.1.4.3.6.5-.4 1.2-1 2.4-1.3 3.6-.3 1-.4 2-1 3l-.2.3c-.1.4 0 .7.3 1l2.4 1.6.6.5-2.3 3.2c-2.7 3.7-5.6 7.1-8.8 10.3-3.4 3.3-7 6.3-11.2 8.6l-2.6 1.3h-.2l-.9.6c.1-.6.4-.7.7-.9l.3-.2 1.2-1.3c0-1-.5-1.9-.5-2.9l2 .9c.4-.4.6-.9.8-1.3.7-1.3 1.5-2.5 2.2-3.8.1-.3.3-.7.7-.7s.3-.2.3-.4c.4-1 .7-2 .9-3.2l-1.6-1 .2-1c.3-1 .4-2.1.4-3.2 0-3.8-1.1-7-3.8-9.8-2-1.9-4.4-3-7-3.5-3.2-.7-6 0-8.7 1.9-1.4 1-2.5 2.3-3.4 3.7l-1.5 2.5-1.6-.6c-.4-.1-.8.2-.7.5.1.5 0 .9-.2 1.3l-.7 1.5-.3.9.7.7-.8 1.3-1.9 2.9c-.3.4-.4.8-.4 1.3l-.4 5.9v1.2l.9 1.7c-1.3 1-2.8 1.9-2.8 3.7l-.3.3c-4.4 3.3-7.5 7.9-9 13.1v.3c.4.2.7 0 1-.3l1-2.5c1.4-3.3 3.4-6.2 6-8.5l1.7-1.3.6.4c1 1 2.4 1.5 3.8 1.9 2.4.7 5 1 7.5 1.4 2.5.3 5 .2 7.4-.3l1.3-.3.9 5.2v.2c.7 2.6 1.5 5.2 2.6 7.7v.3l-.7.3c-1.6.6-3.2 1.3-5 1.4-1.9.7-3.9.8-5.8.9-4 .2-7.7-.4-11.4-1.4-4.3-1.2-8.5-3-12.4-5.3l-2.3-1.4c-4.3-2.7-8.4-5.9-12.2-9.3-5.8-5.3-11.1-11-16.1-17.2-6.9-8.3-13-17-18.9-26-8.8-13.6-16.9-27.6-24.3-42-8-15.4-15.4-31-22.5-46.9l-.6-1.4c-3.9-8.7-7.7-17.4-11.4-26.2-4.4-10.4-8.6-20.8-12.7-31.3v-.3l-1.3-.6c0 .5.2.8.3 1.2l3.5 8.8.3 1 .4 1 4.3 10.4 3.4 8.1 1 2.8c.2.2.2.4.3.7l.6 1.2 1.2 2.8 8 18.3v.3l.4.9 1.3 2.7.5 1 1.7 4 5.3 11.4.9 2 .8 1.7 7.6 15.5 6.2 12.1 2.8 5.4v.3l2 3.2 4.9 9 6.6 11.3 3.2 5.3.6 1 2.6 3.9c2.6 3.9 5.1 7.9 7.8 11.7l5.8 8 1.8 2.5 1.5 1.9c5.5 7 11.4 13.6 17.9 19.7l.7.8 1.4 1.1c3.4 3.1 7 5.9 10.8 8.5l.7.3c.2.1.5.2.5.5l2 1 2.8 1.7h.2c2 1.1 4 2.1 6.1 2.9l1.5.5c5.9 1.9 12.1 2.4 18.2 1.5 4.7-.9 9.1-2.6 13.2-5l.9-.4c0 .4-.4.6-.7.8-4.5 3.3-9.3 5.9-14.5 7.9-2.7 1-5.4 1.6-8.2 2-1.5.1-2.9.4-4.3.3l-1.1.2c-3.7 0-7.3-.3-10.9-1-1.2-.3-2.6-.5-3.8-1-1.3-.3-2.7-.6-4-1.2-.8-.4-1.6-.6-2.4-.8-1.1-.3-2.3-.8-3.4-1.5l-1.3-.6c-1.2-.6-2.5-1-3.6-1.7-.9-.6-1.9-1-2.8-1.5l-1.6-1c-5.1-3.1-10.1-6.6-14.8-10.3l-.3-.4-.6-.4c-3.2-2.6-6.2-5.2-9.2-8l-6-5.9-.6-.8-1.9-1.7c-1-1-1.9-2.2-3-3.1l-.8-1c-.5-.6-1.2-1-1.6-1.7-.4-.6-1-1-1.5-1.6l-2.2-2.6-2.1-2.5-4.8-5.7-3.3-4-2-2.8-9.4-12.4-5.2-7.3-.8-1.2-2.2-3.2c-4.9-7.1-9.6-14.3-14.2-21.6l-.3-.7-1.5-2.3-5.5-9-3-5-.3-.6-2.5-4.2-.7-1.2-7-12.2-.4-.8-.5-.8v-.2l-.2-.3-.8-1.4-2-3.8c-.3-.3-.4-.6-.6-1l-5.6-10.2-.2-.6c-.4-.8-.9-1.6-1.3-2.4l-2-3.5-2-4-4.1-7.8-.3-.6v-.2l-.2-.3-.7-1.5v-.2c-.2-.1-.2-.2-.2-.3l-1-2.1-.8-1.3-.4 1 3 6 2.4 4.8 2 4 1.8 3.1.9 1.8 4 7.4 3.4 6.3 1.1 2 2.2 3.9v.3c.3.3.5.5.4.9l.6.6v.2l5.9 10c.8 1.3 1.5 2.7 2.3 4l1.8 3.1 3.6 6 .3.7.7 1.1.9 1.4 8.5 13.8 4.5 6.9.3.6c.6.7 1 1.5 1.4 2.3h.2v.4l6 8.5c3.8 5.6 7.7 11.2 11.8 16.6l8.6 11.2.5.7.3.3c4 5 8.1 9.7 12.3 14.5l2 2.2 2.8 3c6.9 7.4 14.4 14.1 22.4 20.2l.5.5 4 2.9c4.3 3.1 8.9 5.8 13.6 8.1l5.6 2.4c4.6 1.9 9.5 3.1 14.4 3.8l.7.2h1.3c2.8.2 5.5.2 8.3 0 1.4 0 2.9-.3 4.3-.5 6.9-1.2 13.5-3.9 19.2-7.9h.4l-.2.4-1.8 1.4c-9.6 7.9-21.4 12.6-33.8 13.5-.3.2-.6.2-1 .2h-3.3c-2.2.2-4.5 0-6.8-.1-3.7-.3-7.5-1-11.1-1.8l-.5-.2c-.4.1-.8 0-1.1-.2l-.6-.2h-.7l-.3-.2h-.1l-1.4-.5c-.5 0-.9-.2-1.3-.4l-1.4-.4h-.5c-3.3-1.2-6.6-2.4-9.8-3.9l-4.3-2c-.7-.2-1.4-.5-1.9-1l-.5-.2c-.4-.2-.9-.3-1.2-.7l-.6-.3c-1-.5-2.2-1-3.3-1.7-3-1.7-6-3.5-9-5.5l-1.3-.9-.6-.4-2.2-1.5-7.8-5.6-.5-.4-.3-.2-.5-.4-.4-.3-.3-.3h-.3l-.5-.6-2.9-2.3-2.6-2c-4.7-4-9.3-8-13.8-12.2l-.4-.5-4.6-4.3c-4.5-4.5-9-9.1-13.4-13.7-5.2-5.6-10.2-11.3-15.1-17.1l-1.8-2-7.4-9c-2.7-3.2-5.3-6.6-8-10l-.6-1-.8-.7c0-.2-.2-.3-.4-.5l-7.7-10.2-5.4-7.1-2.3-3.2-.2-.5-2.3-3-3.5-4.9-6.6-9.2-.5-.7-.5 1.2.8 1 6 8.4.3.6c3.9 5.4 7.8 10.8 11.8 16.1.5.6 1 1.2 1.3 1.8l1 1.2 4.2 5.7 2.6 3.3.3.4c1.2 1.5 2.5 3 3.7 4.7l1.8 2.3c6.5 7.9 13.1 15.7 19.8 23.4l4.8 5.4 4.8 5 3.7 4 4.6 4.6 5.2 5.1 3.9 3.7 3.7 3.5c7.6 7 15.6 13.5 24 19.4l7.7 5.2 4.6 3 4.2 2.3 2.8 1.6h.2c1.3.7 2.7 1.3 4 2.1l3.1 1.6 6.1 2.4c2.2 1 4.5 1.7 6.8 2.5.4-.2.7 0 1.1.3.4 0 .8.2 1.2.4.4-.2.7 0 1 .2 5.2 1.4 10.5 2.3 15.8 2.6 1.1 0 2.3 0 3.5.2h2.8c6.5-.2 12.9-1.5 19-3.8 4.2-1.4 8.3-3.3 12-5.8 1.7-1 3.3-2.2 5-3.3l1-.6.5-.4-.4.4c-5.7 5.1-12 9.5-18.7 13.1-5.8 3-11.9 5.4-18.2 7h-.6c-9.2 2.2-18.7 3-28.2 2.2-7-.4-13.9-1.5-20.7-3.4l-4.8-1.3-3.6-1.2-3.3-1-.8-.4c-5-1.5-9.6-3.6-14.3-5.6l-4.7-2.2-.5-.4c-2.2-1-4.3-2-6.4-3.2l-7-3.7-4-2.3-.9-.5c-.3-.1-.5-.2-.7-.5l-5.9-3.6-6.4-4.2-.5-.4-2.6-1.7c-3.8-2.7-7.5-5.4-11.3-8.1l-.4-.4-2.3-1.6c0-.1-.2-.3-.4-.3l-5.7-4.4L94.5 272l-.8-.8c-.2-.1-.5-.2-.6-.4l-11.3-9.9-.8-.8-.2-.2-.4-.3-2.2-2L69 249l-1.2-1.3-3-2.8-13.6-13.6-1-.8c0 .3-.2.6-.4.9l.8.8c6.9 7 13.9 14 21 20.7 19.3 18.3 40 34.9 62 49.8 5.3 3.3 10.6 6.5 16 9.7 5.1 2.8 10.3 5.5 15.6 8 11.7 5.5 24 9.7 36.7 12.4h.8c6.8 1.3 13.7 2 20.6 2.1 21.3.1 41.9-7.7 57.8-22 4-3.5 7.6-7.1 11-11 .6-.7 1.3-1.2 2.2-1.5 1.3-.4 2.5-1 3.7-1.5 5.7-2.3 10.9-5.6 15.4-9.7 3.8-3.5 7-7.5 10-11.8 1-1.6 2.2-3.1 3.7-4.5l.7-.8 2.5 1.5 1.4.8c.3.1.7 0 1-.2.6-.7 1.1-1.4 1.5-2.2.4-1 .2-1.9-.8-2.5Zm-47.5 34.3c-.2.1-.3.4-.2.4l.4-.2v-.2h-.2Zm.6-.3-.3.2h.3v-.2Zm.2-.1Zm22-30.4c-1.2-1-2.3-2.2-3.4-3.3l-.8-.6c-.5.7-1.1 1.3-1.5 2.1l.7.7 3.4 3.5.5.5c.2.3.2.6 0 .8-.2.2-.5.2-.7 0l-.6-.7-3.3-3.3-.6-.6h-.2l-1.8 2.3c-3.2 4-6.8 7.8-10.9 11-3.9 3.3-8.4 5.9-13.2 7.6l-.5.2.5 2.7v.3c.6 3.3 1.5 6.5 2.9 9.6 0 .2.1.3.3.5 1.5-.7 3-1.3 4.4-2.4l.6-.4h.3l.4-.5 1.6-.9c4.4-3 8.2-6.8 11.6-10.9 3.8-4.4 7.1-9.2 10.2-14.2l1.5-2.7-1.3-1.2ZM283 307.2c-.2.1-.5.2-.5.7l.6-.4 1.7-1.4.4-.5c-1 .6-1.6 1-2.2 1.6Zm30.2-43.2-2 2.4.6 1.5c-.3.6-.7 1.1-1.3 1.4.2.3.5.3.8.2.2 0 .3-.3.4-.4l.2-1.1c.6-1.3 1-2.6 1.3-4Zm6.8 11.8-1-.3-2.4-1-1.1-.6-1.3 1.3c.9.8 1.7 1.4 2.8 1.8.7.4 1.5.7 2.4.7l1.4.3h.5c.3-.6.9-1.1 1-1.8l-2.2-.4Zm11-13.3c0-.5 0-1-.3-1.3-.3-.4-.6-.6-1-.7l-.7-.2c-1 1.5-2.1 2.7-3.4 3.9-.2 0-.3.3-.4.5.7.5 1.5.8 2.3 1.1.2.4.7.5 1 .6l.8.3c1-1.2 1.6-2.6 1.7-4.2ZM312.3 249c-.8.3-1.6.8-2.2 1.5-1 .7-2 1.6-2.8 2.6l-.7.8c-1.6 2.2-2.7 4.6-3.5 7.1v.5c0 .1 0 .3.2.4h.4l.2-.4 2.4-3.9 3.4-4.8.3-.2c1.1-1.4 2.3-2.7 4-3.5-.6-.4-1.1-.3-1.7-.1Zm-8.7 5.3-.5-3.7v-.6c-.1-.3-.3-.5-.6-.7l-1-.4-2.4-1c-1.2-.8-2.5-1.3-3.8-1.8l-2-1-1.9-.8-4-2-.4-.2-3.6-2-.9-.3-.4-.2c-.3-.5-.9-.6-1.3-.8l-3.2-1.8-2.1-1.1-.6-.4c-4.9-3-9.6-6.4-13.8-10.3l-.4-.2c4.4 4.9 9.6 9 15.3 12.3l5.3 3 2 1 .8.7 2.2 1.4 4.6 2.8 3.2 2.3 2.6 1.7.5.4 5.6 4 .7.4v-.7Zm-18.8 19.5c.2-1.5.3-3 0-4.4-.1-1-.3-2-.8-2.7-.3-1.2-.9-2.1-1.7-3-.5-.8-1.2-1.4-2-1.8 0-.2-.2-.3-.3-.4-.6-.3-1-.9-1.8-1l-1.3-.6c-.4-.2-.8-.4-1.3-.3-1-.3-1.8-.5-2.8-.3-1.1-.1-2.2 0-3.2.5-1.3.4-2.5 1.2-3.5 2.2-1.3 1.2-2.4 2.7-3.2 4.3-.2.5-.4 1-.8 1.3-.5.2-.9-.2-1.3-.3-.3 0-.4 0-.5.6l4.7 2c.8.6 1.8.8 2.7 1.2l.7.3 2.5 1 2.1 1c1.5.6 3.1 1.2 4.6 1.9.8.2 1.5.7 2.4.7l3 1.3c.4-.4.5-.7.5-1.2l-.5-.6c0-.1-.2-.4-.1-.5l.5-.2h.9c.3-.2.4-.6.5-1Zm37.5-19.5v.2c-.1.8-.4 1.5-1 2l-1.3 1.4-3.6 3.8-.7.8.4.6.8-1c.7-1.1 1.7-1.8 3-2h.5v-.9l.5-.6 1.9-3c.4-.7.3-.8-.5-1.3Zm2.4 15.4c-.6-.5-1.2-1-2-1.4-.6-.4-1.1-1-2-1.4v.3c-.1.3-.2.5-.5.5s-.4-.1-.6-.5c-.7-1.5-.2-3.3 1.2-4.3l.8-.6.6-.5.8-1c.8-.7 1.6-1.5 2.2-2.5.9-1.4.6-2-1-2.5h-.2l-3 4.3c.2.3.4.6 0 1h-.4c-1.3 0-2.3.6-3 1.7 0 .2-.2.3-.3.5-.4.4-.5.4-1 0h-.2v.2c.1 2 .3 3.9 1 5.7.3 1 .2 1.9-.3 2.8l-.4 1c1.9 1.5 4.4 2.2 6.8 2l1.7-2 1.8-1.8-2-1.5ZM292.5 242l-5.3-3.8c-5.4-3.9-10.8-7.9-16-12.1l-5.1-4.2-5.2-4.3-5-4.3-5-4.3-2.3 2 .6.7 3.4 3.7c8.7 9.8 19.3 17.8 31 23.6l6.4 3.2c2.4 1.3 5 2.4 7.5 3.6l.4.2c-1.7-1.4-3.6-2.7-5.4-4Zm21 33.7c-1.1.9-2.3 1.6-3.3 2.6-1.8 1.8-3.5 3.6-5.2 5.5-3.1 5-6.6 9.7-10.3 14.3l-.4.7c10.5-3.8 19.6-10.7 26-19.8-2.6-.6-5-1.3-6.8-3.3Zm-32.4 4.3-8.7-3.5-9.6-4c-.3-.2-.5-.4-1-.3l-.8 4.9c5.9 2.5 11.8 4.7 17.9 6.6l2-1.4c.2 0 .3-.2.4-.4.2-.5.5-1 .6-1.6l-.8-.3Zm38.8-26.4-1.2.6-3.8 2.5-.8.4c-.1 0-.4 0-.4-.2v-.5c1.8-1.2 3.5-2.3 5.3-3.5 0-.1.3-.2.2-.5l-.7-.4c-.5-.3-1-.3-1.6 0l-1.4 1-2.4 2.4-.6.6h-.5l-.2-.5.2-.3c1.2-1.4 2.4-2.8 4-3.8l.5-.3c.2-.1.4-.1.5-.4v-.2c-1.1-.8-2.6-.7-3.7.1l-1.4 1.2c-1.2 1.3-2.3 2.7-3.2 4.2l.4.3 4.4 3 .5.5c.2.1.3.5 0 .6 0 .1-.3.2-.5.1l-4.8-3.3c-.2 0-.4-.3-.7-.2l-.3.4-.4.6c1 .8 5 3.4 6 4l3.2-4.5c1.1-1.4 2.5-2.6 4-3.9h-.6Zm-41 32v-.7c-1.5-.6-6.8-2.4-7.7-2.5-1.4 1.3-3 3-3.4 3.7l.7.4 3.3 1.1 2 .8c.5.2.9.1 1.3-.1l3.2-1.6.8-.5-.2-.6Zm53.5-15.8-1.7-1-1.4-.8-4.8-2.7-3-1.6c-.5.3-.9.8-1 1.4v.3l9.3 6.5.3.2.4.3c.4.3.8.4 1.2.5l1-1.5c.5-.7.4-1.2-.3-1.6Zm-70.9 8.7h-.3c.3 2 .7 3.9 1.3 5.8l4 1.4c1.1-1 3-3 3.5-3.9l-8.5-3.3Zm54.6-8.7c-.6-1.9-.9-3.8-1-5.7l-.2-.5-1 1.8-.8 2.8-.9 2q.4.7 0 1.3l-2.2 4-1.3 2.4h.1l4.2-3.2c.7-.6 1.4-1.2 2-2l1-1.4c.3-.5.3-1 .1-1.5Zm-54.6 15.3-2.2-1-2.8-.8 3.5 8.2c1.4.4 2.7.7 3.8.6l-2.3-7Zm19.6-7.5-2.4-.8c-5-2-9.9-4-14.7-6.3l-3.9-1.6h-.4l-.3.6c3.4 2 20.3 9 23 9.7l.2-.7c-.5-.5-1-.7-1.5-.9Zm25.5-18.5-1 1.6c-.3.5-.8 1-.9 1.6l2.9 1.6 2.9 1.7 1-1.1 1.2-1.6c-1.9-1.4-4-2.7-6.1-3.8Zm-46.8 18.7-1.4-.6c-.5-.2-1-.6-1.7-.6l-.2 2.8c0 .9-.2 1.7-.1 2.7l4.7 1.6c-.1-1.3-1-5-1.3-6Zm10.2 10.4c-.9-.3-1.8-.8-2.8-.9l-1.3 5.1.2.3 6.9-3.3-3-1.2Zm40.7-20.6c-.3-.4-.6-.8-1-1-2-1.4-4.1-2.6-6.3-3.6-.5-.3-.8-.2-1 .3l-.3.5.6.5c1.4 1 2.8 1.8 4.3 2.6.8.5 1.6.8 2.4 1 .3.2.6.2 1 .2s.5-.3.3-.6Zm16.6-9.1-.6-.2-.3.2c-.8 1.4-1.9 2.6-3.1 3.7-.4.3-.6.6-.6 1.1l1.3.9c1.6-1.2 2.9-2.6 4-4.2.3-.8 0-1.2-.7-1.5Zm-17.5 11.8-1-.6-.2-.7-3.2-1.6-.6.6 5.3 5.2c.6-.8 1.1-1.5 1.3-2.5l-1.6-.4Zm-53.3 16.2c-.6.3-1.2.7-1.6 1.3-.5.7-.5 1.4.1 2 1 .8 2.3 1.3 3.6 1.5-.2-1-1.6-4-2-4.8h-.1Zm4.3-14.7-1-.5-2.7 4.3c1 .5 1.8 1 2.9 1.2l.8-5Zm2 13.9 2 6h.2l1.2-4.8c-1-.5-2.2-.8-3.5-1.2Zm12.7 4.5c-.6-.3-1.2-.3-1.8 0l-4.4 2.2c-.2 0-.3.2-.5.3 1.2.2 2.6 0 5-.4q.3-.8.8-1l1-.5c.2 0 .3-.2.5-.4l-.6-.2Zm8.1-10.8-.3.5-.9 2.1c-.2.7-.6 1.2-1.2 1.6-.4.2-.8.3-1 .8.5.3 1 .6 1.6.7 1-1.7 2-3.3 2.8-5l-1-.7Zm37.5-24.6c-1.8 1-5 4.5-6.1 7l.5-.5 4.4-4.6.9-.9c.2-.3.4-.6.3-1Zm-41.9 32.8-3.3 1.6 1.7.7 1.7-1.6c.2-.2.2-.5-.1-.7Zm5.4-10.6-.2.3-.4 1c.5.4 1 .7 1.5.8l.3-1.5c-.4-.3-.7-.6-1.2-.6Zm19.9-23.7v1.3l.3.2.6-1c-.4-.1-.5-.6-1-.5Z" fill="#242021"/>
    <path d="m94.6 134-.8-1.5v-.5l-1.2-2-.8-1.3.5-1.2c1-2.7 2.2-5.4 3.3-8l.4-1.3.7-1.4 8.7-21.2.6-1.4h.5l14 5.8c-.2.5 0 .8.2 1.2l3.5 8.8.3 1-.6 1.6-14.6 35.4-.4 1c0 .4-.3.7-.8.7-.5.1-.7.4-.9.8 0 .3-.2.5-.3.7-.1.6-.5 1.1-1.1 1.4-.4.1-.7.5-1.2.3l-1-2v-.2l-.2-.2-4-7.6-4.1-7.8-.3-.6v-.3l-.2-.2Z" fill="#ea2055"/>
    <path d="M244.1 302.8c.4.1.8 0 1.1-.3l.7.2c2 0 3.9.3 5.8.3h1.6c1.5-.3 2.9-.5 4.3-.3h.7c1.3-.3 2.5-.6 3.8-1l1.7-.6c.7-.3 1.4-.4 2-.8 1.3-1 3-1.2 4.5-1.8.7-.3 1.6-.3 2.4-.2l2.6.2v.2c.7 2.6 1.5 5.2 2.6 7.7v.3l-.7.3c-1.6.5-3.2 1.3-5 1.4-5.7 1.2-11.6 1-17.2-.5-3.9-1.2-7.7-2.8-11.3-4.9l.2-.3h.2Z" fill="#dadbdb"/>
    <path d="M243.7 303v.2c-.5-.1-.9-.3-1.1-.7l1 .5h.1Zm.4-.2h-.2v-.3l.2.3Z" fill="#a7a9a9"/>
    <path d="m70.8 179.4.6-1.5 18-43.6.5-1.4 1.4-3.2 3 6 2.5 4.7 2 4 2.6 5 4 7.3c2.3 4.2 4.6 8.3 6.9 12.5.2.3.3.6.2 1-.7-.4-1.2 0-1.7.4l-4.3 4.3-3.7 3.7-1.8 1.8-5.4 5.4-3.6 3.7-5.8 5.7c-.8.8-1.4 1.6-2.4 2.1l-2.2-3-10.1-14.1-.6-.7Z" fill="#542678"/>
    <path d="m64.5 195 3-7.3 2.3-5.8.6-1.2.7 1 6 8.4 5.5 7.7 4.4 6 4.5 6 4.2 5.7 3 3.7c1.8 2.3 3.7 4.7 5.5 7l4.7 5.8 6.7 8c5.9 6.8 11.8 13.5 17.9 20.1l3.7 3.8 4.6 4.7 5.3 5.2 3.8 3.6 3.7 3.5 8.4 7.3c5 4.2 10.3 8.3 15.7 12.1 2.5 1.8 5 3.5 7.7 5.2l4.6 3 4.2 2.3 2.8 1.6h.2c1.3.7 2.6 1.3 3.9 2.1l3.2 1.5c-.2.4-.5.5-.8.4l-2.2-.6-3.2-.9c-1-.3-2.2-.4-3.2-.9-.8-.4-1.6-.4-2.5-.6h-.2l-.7-.2c0-.3-.2-.4-.4-.5-1.4-.7-3-1-4.2-2l-2.5-1.4-2.4-1.4c-1.4-.7-2.7-1.5-4.1-2-.2 0-.3-.2-.5-.3-1.3-.8-2.5-1.7-4-2.3l-.7-.5-2-1.4c-1.4-.7-2.6-1.5-3.8-2.3l-1.1-.6c-.2-.4-.6-.6-.9-.9l-3-2.4-2.5-2c-1.5-.9-3-1.9-4.3-3l-.9-1-5.4-4.3-6.5-5.3c-2-1.6-4-3.4-5.8-5.2a6.94 6.94 0 0 0-4.1-2c-.6-.1-1-.5-1.3-1l-.6-.8-2.7-2.7-2.3-2.3c-2.4-1.8-4.4-4-6.5-6.1l-2-2.4c-1-1.4-2.2-2.7-3.3-4-.8-1.1-1.6-2.2-2.3-3.4-1-1.4-1.9-2.7-3-3.9-1.4-1.3-2.7-2.6-3.9-4l-5.1-6.1-8-9.2-.6-.3.5 1.6c-.6-.2-.8-.5-1.1-.8-1.7-1.6-3.5-3.1-5-5-.5-.6-.9-1.2-1.3-1.9l-1.5-2.7c-.5-.8-1.2-1.5-1.9-2.3l-3.2-3.9-.8-1c-.7-.8-1.3-1.8-2.2-2.4l-1-1.1-2.7-2.8c-.4-.4-.9-.8-1.2-1.3l-2.6-3.5-2.3-3.3c-.3-.3-.6-.7-1-.9Z" fill="#5b1132"/>
    <path d="m143.6 221.3 5.8 8.6c3.8 5.6 7.8 11.1 11.8 16.6l8.7 11.2.5.7c-.8.2-1.4.5-2 1-1.2 1.5-2.6 2.8-4 4.1l-3 3c-1 1-2 2.3-3.2 3.4l-5.7 5.6c-.4.3-.6.8-1 1.2l-4.5-4.4c-4.5-4.5-9-9.1-13.4-13.7-5-5.4-10-10.9-14.7-16.5l-.5-.6 5-5.1 6.7-6.7 5.1-5.2 1.6-1.6 3.4-3.4c.5-.4 1-.7 1.6-.8.6.6 1 1.4 1.5 2.2h.1c0 .3.1.3.2.4Z" fill="#962267"/>
    <path d="M83.8 197.3c1-.5 1.6-1.3 2.4-2l5.8-5.8 3.7-3.7 5.3-5.3 1.8-1.9 3.7-3.7 4.3-4.3c.5-.5 1-.8 1.7-.5l.6.6v.3c2 3.3 4 6.7 5.8 10.1l4.2 7 3.5 6 .3.7c-.7 0-1.3.3-1.7.8l-1 .8-3 3.2-4.8 4.7-5.4 5.4-4 4-5.6 5.6c-.2.2-.4.3-.7.3l-.8-.8L86.4 201l-2.4-3.2-.2-.4Z" fill="#652574"/>
    <path d="m152.2 232-2.3-3.2c-4.8-7.1-9.6-14.4-14.1-21.7l-.4-.6c.5-.1.8 0 1.2.3.3.3.8.5 1.2.4.7-.1 1.5 0 2.1-.6h1.5v-1.8c0-.4.2-.7.6-.8h.5c.7 0 1.1-.3 1.4-.9l.4-1 8.3-20.1c.3-1 .8-1.8.9-2.8l.2-.6.9 1.7 7.5 15.5 6.2 12.1 2.9 5.4v.3l-7.3 18.1-.4.2c-.8.1-1.2.6-1.2 1.4v.6c-.3.4-.6.6-1.1.5H160l-1.4.2h-1c-1.3-.6-2.8-.9-3.6-2.1-.1-.2-.3-.3-.4-.3-.5-.2-.9-.6-1.4-.3Z" fill="#a82264"/>
    <path d="M100.7 219.6c.3 0 .5-.1.7-.3l5.5-5.6 4-4 5.5-5.4 4.8-4.7 3-3.2 1-.8c.4-.6 1-.8 1.7-.8l1.6 2.5 8.6 13.8 4.4 7 .3.6c-.6 0-1.1.4-1.6.8-1 1.2-2.3 2.3-3.4 3.4l-1.6 1.6-5.1 5.2-6.7 6.7-5 5.1-1.8-2-7.3-8.9c-2.8-3.3-5.4-6.7-8-10-.3-.3-.4-.7-.6-1Z" fill="#78246f"/>
    <path d="M75.3 207.8c1 .7 1.5 1.6 2.3 2.4l.7 1 3.2 4c.7.7 1.4 1.4 2 2.3L85 220l1.3 2c1.5 1.8 3.2 3.3 4.9 4.9l1 .8-.4-1.6.6.4 8 9.1 5.2 6c1.1 1.5 2.4 2.8 3.7 4.2 1.1 1.2 2.1 2.4 3 3.8.7 1.2 1.5 2.3 2.4 3.4l3.4 4c.6.8 1.2 1.6 2 2.4 2 2 4 4.3 6.4 6.1l2.3 2.3c1.6 1.5 3.1 3 4.6 4.6v.6l2.7 3 3.2 3.4c1.3 1.3 2.6 2.5 4 3.6l3.1 2.5 3.8 3.4.8.8 1.4 1.7 3.2 3.6 1.3 1.8c.5.8.8 1.7 1.5 2.3.2.1.3.4.5.7l.5 1.4.9 1.2c.6.4 1 1 1.6 1.5.5.6.9 1.3 1 2 0 .3 0 .6.2.8.7.9 1 1.9 1 3v.5c.2.6.1 1-.2 1.5-.6.7-.8 1.6-.6 2.5.2.5.1 1-.1 1.5l-.9 2.2c-2.2-1-4.3-2-6.4-3.2l-7-3.7-3.9-2.3-1-.6c-.1-.2-.3-.4-.6-.4l-6-3.6-6.4-4.2-.4-.4c.4-.2.5-.6.7-1l1.5-3.8c.4-.7.6-1.5.4-2.4-.1-.8 0-1.6.5-2.2.8-1 .9-2 .6-3.2v-2c-.1-.6-.3-1.1-.7-1.5-.7-.6-1.1-1.4-1.7-2.1l-.5-.7-2.4-2.7-.5-.5c-.6-.4-1-1-1.3-1.6-1-1.8-2.5-3.3-3.8-4.8-1-1-2-2.2-2.7-3.4-1-1.5-1.7-3.1-3-4.4l-.6-1c-.2-.4-.4-.7-.3-1.1 0-.3 0-.6-.2-.8l-.8-1-1.3-2-1.2-1.5c-1-1-1.9-2.3-2.7-3.5l-.4-.8c-.3-.4-.4-1-.7-1.3l-2.5-3c-1.9-2-3.8-4-5.5-6.1l-2.7-3.4-1-1.2-2.4-2.6c-1.3-1.8-2.9-3.4-4.4-5l-6-6.7c-.8-1-1.5-2.2-2-3.5-.5-1-1-1.9-1.7-2.7l-1.4-1.8c-1-1.4-2-3-3.3-4.3s-.8-1-1.2-1.6v-.6h-.1Z" fill="#962267"/>
    <path d="M104.5 152.9c.5.2.8-.2 1.2-.3.6-.3 1-.8 1.1-1.4l.3-.7c.2-.4.4-.7.9-.8.5 0 .7-.3.8-.8l.4-.9 14.6-35.4.6-1.6.5 1 8.7 21.3.2.7-.6 1.6-12.2 29.6-.3.8c-.4.7-.8 1.4-1.6 1.7-.4.1-.7.4-.8.8l-.2.5c-.2.5-.5.7-1 .6-1-.1-1.7 0-2.2 1l-.4.5-.5-.8v-.2l-.2-.2-3.5-6.2-5.5-10.2-.3-.6Z" fill="#dc2058"/>
    <path d="m114.5 171.1.4-.6c.5-.9 1.3-1 2.1-1 .6.1.9 0 1-.5l.3-.5c0-.4.4-.7.8-.9.8-.3 1.3-.9 1.6-1.6 0-.3.2-.6.3-.8 4.3-10.4 8.5-20.8 12.8-31.2l.6 1.2 9.2 21.1v.3l-11.5 28v.3c-.3.4-.5.8-.9 1-.4.1-.6.4-.7.7-.3.7-.6 1.1-1.2 1.5-.2.2-.5.4-.6.8-.2.6-.7.8-1.3.9l-2.2-.2c-1-1.4-1.8-2.8-2.6-4.3l-7.7-13.3-.4-1Z" fill="#cd205b"/>
    <path d="M152.2 232c.5-.4 1 0 1.4.1l.3.3c.9 1.3 2.3 1.6 3.6 2.1h1.1c.5 0 .9 0 1.4-.2h1.2c.5.2.8 0 1-.5v-.6c0-.7.5-1.2 1.2-1.3l.4-.2 7.5-18.1 1.8 3.2c3.7 6.8 7.6 13.6 11.5 20.3 1 1.8 2.2 3.5 3.3 5.3l.5 1-.5 1.7-3.2 7.7c-.2.7-.6 1.2-1.2 1.5-.5.3-.7.7-.8 1.3-.2 1.3-1 2.1-2.3 2.4h-.3c-1 .6-2.2.6-3.3.2l-1-.4-2.2-1h-.5l-2.2-1.5c-.6-.5-1.3-1-1.8-1.6l-.6-.5c-.3-.3-.6-.3-1-.3l-9.3-12.5-5.2-7.2-.8-1.3Z" fill="#962267"/>
    <path d="m185 275.4 2.8 2.9c6.8 7.4 14.3 14.2 22.3 20.3l.6.5-1.1 1c-1 .7-1.7 1.5-2.5 2.4-1.4 1.5-3 2.8-4.4 4.4-1 1.1-2.3 2.2-3.5 3.3-.4.3-.8.8-1 1.3l-3.2-1.7-9-5.5-1.4-1c-.2 0-.3-.2-.5-.3l-2.3-1.5-7.8-5.7-.5-.4-.3-.2-.5-.4-.3-.2-.3-.3-.3-.2-.5-.4-3-2.3c.3-.9 1-1.3 1.5-1.9l6.4-6.4 5.1-5.2 2.2-2c.4-.4.8-.7 1.4-.5h.1Zm-59.8-85.8c.7 0 1.4.3 2.2.2.6-.1 1.1-.3 1.3-1l.7-.7c.5-.4.8-.8 1-1.4.2-.4.4-.7.8-.8.4-.2.6-.6.8-1v-.3l11.6-28 .5.8 3.4 7.7 5.3 11.5.9 2-.2.6c-.1 1-.6 1.9-1 2.8l-8.3 20.2-.3.9c-.3.6-.7 1-1.4.8h-.6c-.3.2-.5.5-.5.9v1.6h-.7c-.2 0-.6 0-.8.2-.6.6-1.4.5-2.1.6-.5.1-.9-.1-1.2-.5-.4-.3-.8-.3-1.2-.2l-1.5-2.3-8.5-14-.2-.6Zm-11.7 97.8-5.7-4.3-13.6-11.2-.8-.8 1-1.8 2.7-6.6c.3-.7.5-1.5.4-2.4 0-.7 0-1.4.3-2 .3-.5.3-1 .3-1.6s0-1.2.3-1.7c.4-.8.2-1.5-.3-2.2-.3-.4-.4-.8-.5-1.3-.2-1.3-.3-2.5-.7-3.7v-1.1c0-1.2-.3-2.4-.6-3.5-.2-.7-.5-1.2-.9-1.7l-.7-1.2-1-1.7-1.4-1.5c-.6-.6-1-1.3-1.4-2.2l-.5-.8c-1-1.4-2-2.7-3.1-4-.5-.9-1.2-1.7-1.8-2.5l-.8-1c-1-1.7-2.2-3.3-3.3-5-.2-.2-.5-.5-.4-1l.7.7L83 223l3.3 3.8.8.8c1.4 1.2 2.6 2.7 4 3.9 1.2 1.1 2.1 2.4 3.2 3.6l3.2 4 .5.5c1.2 2 2.6 4 4 5.8.8.9 1.3 2 1.8 3 .2.7.6 1.2 1 1.9.2.4.5.8.6 1.3.2.7.7 1.3 1.1 1.9.5.5.9 1.1 1.2 1.7l1 1.4c.8.8 1.4 1.7 1.9 2.7.3.5.6 1 1.1 1.4 1 .8 1.6 2 2.2 3s1.2 2 2 3c.7.6 1.2 1.5 1.6 2.4l1.2 2 1 1.9v.6c0 .9 0 1.8.3 2.6l.2.9c-.6.7-.8 1.5-1.2 2.3-.2.6-.2 1 0 1.6.5.7.5 1.4.2 2.2l-2.1 5.3c-.2.5-.5.8-1 1l-2.3-1.6-.4-.3v-.2Z" fill="#bd215f"/>
    <path d="M173.1 256.9c.2 0 .4-.2.5-.1l2.1 1 1.1.4c1.1.4 2.2.4 3.3-.1h.3c1.3-.4 2.1-1.2 2.3-2.5 0-.6.3-1 .8-1.3.6-.3 1-.8 1.2-1.5l3.2-7.6.5-1.8 2.6 3.9 7.8 11.7c1.9 2.8 3.9 5.4 5.8 8l1.8 2.5-.3.7c0 1-.6 2-1 3-.2.6-.5 1.1-1 1.5-.4.3-.7.6-.8 1-.2.5-.5.7-.8 1-1 .6-2 1-3.2 1.4h-.3c-.5-.4-1.2-.9-2.2-.5.3.8.5 1.6 1 2.1l2.3 2.3c.4.4.6.8.3 1.4l-.5 1c-1.4-.5-2.8-1-4-2h-.2l-3.5-2.3c-.5-.3-1-.6-1.5-.5l-2-1.8c-1-1-1.8-2.2-3-3l-.7-1c-.6-.6-1.2-1-1.7-1.7l-1.4-1.6-2.3-2.7-2-2.4-4.8-5.7c.1-.5.5-.6.9-.5l1.3.7c.1.1.3.2.4 0l-.3-.4-1.1-1c-.5-.4-1-.9-1-1.6Z" fill="#78246f"/>
    <path d="m50 230.4.4-1.2 10.2-25 .6-1.1.8.5c.8 1.2 1.6 2.3 2.3 3.6.7 1.3 1.5 2.5 2.4 3.6 1.4 1.4 2.4 3.1 3 5 0 .3.2.5.3.8l1.4 2.6c.3.6.5 1.1 1 1.6.5.7.9 1.4 1 2.3l.7 5c.2 1 .2 2.1-.4 3.2-.2.3-.2.8 0 1.2.1.9 0 1.7-.4 2.5l-4 9.6-.7 2c-.2.5-.5.9-1 1l-3-2.8L51 231.2l-1-.8Z" fill="#ea2055"/>
    <path d="M185 275.4c-.7-.2-1.1 0-1.5.5l-2.2 2-5.1 5.2-6.4 6.4c-.5.6-1.2 1-1.4 1.9l-2.6-2.1c-4.8-4-9.3-8-13.8-12.2l-.4-.4c.3-.4.5-.9.9-1.2l5.7-5.6 3.3-3.4 3-3 4-4c.5-.6 1.1-1 1.9-1.1l.2.2c4 5 8.2 9.8 12.4 14.5l2 2.3Zm-68.8 14c.5-.2.8-.5 1-1 .7-1.8 1.5-3.5 2.1-5.3.3-.8.3-1.6-.2-2.3-.3-.5-.3-1 0-1.5.3-.8.5-1.6 1-2.4v-.8c-.4-.9-.5-1.7-.3-2.7v-.5l-1-1.9c-.5-.7-.9-1.3-1.2-2-.5-.9-1-1.8-1.7-2.5-.8-.9-1.4-2-2-3s-1.2-2.1-2.2-3c-.4-.3-.8-.8-1.1-1.4-.5-1-1.1-1.8-1.9-2.6l-1-1.4c-.3-.6-.7-1.2-1.2-1.7-.4-.6-.8-1.2-1-2l-.7-1.3c-.4-.6-.8-1.2-1-1.8-.4-1.1-1-2.1-1.7-3-1.5-1.9-2.8-3.8-4.1-5.8l-.5-.6c-1-1.3-2-2.7-3.2-4-1-1.1-2-2.4-3.2-3.5-1.3-1.3-2.6-2.7-4-3.9l-.7-.8-3.4-3.9-1.2-1.5-.8-.7c-.2-.2-.3-.6-.6-.7-.4-.3-.5-.6-.7-1-1-2-1.7-4.1-3.3-5.8-.2 0-.2-.2-.3-.4l-2.4-3.1c-1.9-2.3-4-4.2-5.8-6.5-1.1-1.7-2.4-3.3-3.6-5-.2-.3-.5-.4-.8-.6l1-2.6c.5.2.8.6 1 1 .8 1 1.6 2 2.3 3.2l2.6 3.5 1.3 1.3 2.6 2.8 1 1v.7c.5.5.8 1.1 1.3 1.6 1.2 1.3 2.2 2.8 3.3 4.3l1.4 1.8c.6.8 1.2 1.7 1.6 2.7.6 1.3 1.3 2.4 2.2 3.5 1.8 2.3 3.9 4.5 5.9 6.6l4.4 5c.7 1 1.6 1.8 2.4 2.7l1 1.2 2.7 3.3c1.7 2.2 3.6 4.1 5.5 6.1l2.5 3 .7 1.4c0 .3.2.5.4.8.8 1.2 1.6 2.4 2.7 3.5.5.4.8 1 1.2 1.6l1.3 1.9.8 1c0 .2.3.5.2.8-.2.4 0 .7.3 1l.6 1c1.3 1.4 2 3 3 4.5.8 1.2 1.6 2.3 2.6 3.4 1.4 1.5 2.9 3 3.9 4.8.3.6.7 1.2 1.3 1.6l.5.5 2.4 2.6.5.7c.6.8 1 1.6 1.7 2.2.4.3.6.9.6 1.4v2.1c.4 1.2.3 2.2-.5 3.2-.5.6-.7 1.4-.5 2.2.2.9 0 1.6-.4 2.4l-1.5 3.8c-.2.4-.3.8-.8 1l-2.6-1.7-11.3-8.1-.4-.4Z" fill="#a82264"/>
    <path d="m63.5 197.5.8.7L68 203c1.7 2.3 4 4.2 5.7 6.5l2.5 3.1.2.5c1.7 1.6 2.4 3.7 3.4 5.7s.3.7.7 1c.3.1.4.5.6.7 0 .5.2.7.4 1 1 1.7 2.2 3.3 3.3 5l.8 1 1.8 2.5 1.3 1.7c.8 1.1 1.6 2.2 2.3 3.3.3.8.8 1.5 1.4 2.2l1.3 1.5c.5.5.8 1 1 1.6l.8 1.3c.4.5.7 1 .9 1.6.2 1.2.6 2.4.5 3.6v1c.5 1.3.6 2.5.8 3.7 0 .5.2 1 .5 1.4.5.7.7 1.4.3 2.2-.3.5-.3 1.1-.3 1.7s0 1-.3 1.6-.4 1.3-.3 2c0 .8 0 1.6-.4 2.4l-2.7 6.6-1 1.8-.6-.4-11.3-10-.8-.7c1.6-3.6 3.2-7.3 4.8-10.9.3-.9.5-1.7 0-2.5-.4-.8-.3-1.5 0-2.3.2-.4.4-.9.4-1.4v-4.1c.2-.6 0-1.2-.2-1.8-.6-1.6-1.5-3-2.4-4.3-.4-.7-1-1.4-1.1-2.2l-.8-2.4c-.2-1-.8-1.9-1.4-2.7-.6-.7-1.3-1.4-1.8-2.2l-2-3.4c-.6-1-1.2-1.8-1.6-2.8l-.8-2.1c-.6-1.4-1.3-2.7-2.4-3.8-1.3-1.5-2.7-3-4-4.7-.4-.4-.9-.9-1.2-1.5-.8-1.6-2.2-2.8-3.3-4.3 0-.2-.4-.2-.6-.3l1.1-2.8Z" fill="#cd205b"/>
    <path d="m62.3 200.3.7.4c1 1.4 2.5 2.6 3.3 4.3.2.5.7 1 1 1.5l4.2 4.7c1 1 1.8 2.3 2.3 3.7l.9 2c.4 1.1 1 2 1.5 3 .7 1 1.4 2.1 2 3.3l1.8 2.3c.7.8 1.2 1.6 1.5 2.7l.7 2.3c.2.8.7 1.5 1.1 2.2 1 1.4 1.8 2.8 2.4 4.3.3.6.4 1.2.3 1.8v4.1c0 .5-.2 1-.5 1.4-.3.8-.4 1.6 0 2.3.5.9.4 1.7 0 2.5l-3.7 9-1 2-.3-.3-.3-.3-2.3-2-9.2-8.7-1.2-1.2c.5-.1.8-.5 1-1l.8-2 4-9.6c.4-.8.5-1.7.3-2.5v-1.2c.6-1 .6-2.2.4-3.3l-.7-4.9c0-.9-.5-1.6-1-2.3-.5-.5-.7-1-1-1.6l-1.4-2.6-.4-.8c-.5-2-1.6-3.5-2.8-5-1-1.1-1.8-2.3-2.5-3.7s-1.5-2.3-2.3-3.5l-.8-.5 1.2-2.8h-.1Z" fill="#dc2058"/>
    <path d="M193.2 313.5h.2c.9.1 1.7.1 2.5.5 1 .5 2.1.6 3.2 1l3.2.8 2.1.6c.4.1.7 0 .9-.3l6 2.4c2.3 1 4.6 1.7 6.8 2.5.4.1.7.4 1.1.2l1.3.5c.3.1.6.3 1 .2 5.2 1.3 10.4 2.1 15.7 2.6h3.6l1 .3c-.3.8-.8 1.4-1.7 1.7l-.7.3-.6.6.5.5 1.1.8h.3c1.3 0 1.6.3 2 1.4l.5 1.2c-9.2 2.2-18.7 3-28.2 2.2-4.5-.3-8.9-.9-13.2-1.8.3-.6.4-1.2.2-1.9-.1-.6 0-1.1.2-1.7l.2-.8-.2-.2c-.7-.3-1.2-.7-1.2-1.4l-.3-.6-1.1-2c-.6-1.3-1.7-2.4-3-3-.3 0-.6-.3-.9-.5-.2-.1-.2-.3 0-.5 1.1.4 2.3.5 3.4 1 .6.3 1.2.5 1.9.5l2.2.4c1.3.6 2.8.8 4.2 1.1.4.1.9.3 1.4.2 0-.6-.3-.9-.6-1-.9-.6-1.7-1-2.6-1.4-1-.5-2.2-.8-3.1-1.6l-.5-.2c-1.7-.8-3.6-1.3-5.3-2.4l-2.3-1.4-1.2-.8Z" fill="#542678"/>
    <path d="m193.2 313.5 1.2.9 2.3 1.3c1.7 1 3.5 1.6 5.3 2.4l.4.2c1 .8 2.1 1 3.1 1.6 1 .4 1.8.9 2.7 1.4.3.2.6.4.6 1-.5.2-1 0-1.5-.2-1.4-.3-2.8-.5-4.2-1-.6-.3-1.4-.4-2.1-.5-.7 0-1.3-.1-2-.4-1-.6-2.2-.7-3.3-1-.2.1-.2.3 0 .4.3.2.5.5.9.6 1.3.6 2.2 1.7 3 2.9l1 2 .4.6c0 .7.5 1.2 1.1 1.4l.3.3-.2.7c-.3.6-.4 1.1-.2 1.7.2.7 0 1.3-.2 2-2.5-.5-5-1-7.5-1.7l-4.8-1.3-3.7-1.2-3.3-1-.8-.4 1.1-2.6c.3-.6.4-1.1.3-1.7v-1c.3-.6.2-1.3 0-1.9-.4-.7-.7-1.4-1.2-2-.2-.1-.3-.5-.5-.8-.4-.6-.6-1.3-1.2-1.8-1-1-2.3-2-3.7-2.7-1.2-.6-2.2-1.4-3-2.4-.6-.8-1.4-1.5-2.2-2-1.3-1-2.5-2.1-3.5-3.3-1-1-1.8-2.2-2.7-3.3l-2-2.5c-.2-.1-.3-.3 0-.5 1 .3 2 .3 2.9.8h.7l1.1.6c1.3.8 2.5 1.7 3.8 2.3.8.3 1.4 1 2 1.4l.8.5c1.4.6 2.7 1.6 4 2.4l.4.2c1.5.5 2.8 1.3 4.1 2l2.5 1.4 2.4 1.4c1.3 1 2.9 1.4 4.3 2q0 .5.3.5l.8.3Z" fill="#652574"/>
    <path d="M166.8 298.6h-.8c-.9-.6-2-.6-2.9-.9-.3.2-.1.4 0 .5l2 2.5 2.7 3.3c1 1.2 2.2 2.3 3.5 3.2.9.6 1.6 1.3 2.3 2.1.8 1 1.7 1.9 3 2.4 1.3.7 2.5 1.6 3.7 2.7.5.5.8 1.2 1.2 1.8.1.3.2.7.4.9.6.5.9 1.2 1.1 1.9.3.6.4 1.3.1 2v.9c.1.6 0 1.1-.2 1.7l-1.1 2.6c-5-1.5-9.6-3.6-14.3-5.6l-4.7-2.2-.5-.4.9-2.2c.2-.5.3-1 .1-1.5-.3-1 0-1.8.5-2.5.4-.5.5-1 .4-1.5l-.2-.6c0-1-.2-2-.9-2.9l-.2-.8c-.1-.7-.5-1.4-1-2l-1.6-1.6c-.4-.3-.7-.7-.9-1.2-.2-.4-.3-.9-.6-1.3 0-.3-.2-.6-.4-.7-.7-.6-1-1.5-1.5-2.3-.4-.6-.8-1.3-1.3-1.8l-3.2-3.6-1.4-1.7-.8-.8-3.8-3.4-3-2.5c-1.4-1.1-2.8-2.3-4-3.7l-3.3-3.2-2.7-3.1v-.6c1.6.2 3 .8 4 1.9 2 1.8 3.8 3.6 5.9 5.2l6.5 5.3 5.4 4.4 1 .8c1.3 1.2 2.7 2.3 4.2 3.2 1 .5 1.7 1.2 2.6 1.9l3 2.4c.2.3.6.5.8 1Z" fill="#78246f"/>
    <path d="M222.8 321.2h-.5c-.4-.3-.7-.5-1.2-.4l-1.4-.5c-.4-.1-.7-.4-1.2-.3l-1.5-.5.5-.5c1-1 1.8-2.2 3-3l.8-1 .8-.8 1.2-1.1 2-2c.5-.5 1.2-1 1.6-1.7l.4.2c.3.3.6.4 1 .5l5.6 2.4c4.6 1.9 9.4 3.1 14.3 3.8l.7.2h1.3l4 .3c1.5 0 2.9 0 4.3-.2 1.5-.1 3-.4 4.3-.6 6.5-1.1 12.8-3.6 18.3-7.3l1-.6h.3c0 .2 0 .4-.2.4l-1.7 1.4c-9 7.3-19.8 11.9-31.3 13.3h-.7c-.6 0-1.2 0-1.8.3h-1l-3.3.2c-2.3 0-4.6 0-6.8-.3-3.8-.3-7.5-.9-11.2-1.7l-.4-.2c-.4-.1-.8-.4-1.2-.2Z" fill="#dc2058"/>
    <path d="m284.1 303.4-.6.4c-.3-.2-.4-.4-.3-.7.1-.8.2-1.5 0-2.2-.3-.7-.7-1.4-1.3-2-1-1-1.9-1.7-3-2.5-.3-.2-.6-.3-1-.3l-2-.3-.5-2.7.5-.2c4.9-1.6 9.4-4.2 13.4-7.5 4-3.2 7.6-7 10.8-11l1.8-2.2h.2c.2 0 .4.3.6.5l3.3 3.3.6.6c.2.2.5.2.7 0 .2-.1.2-.4 0-.7l-.5-.5-3.4-3.5-.7-.7c.4-.8 1-1.4 1.5-2.1l.8.6 3.4 3.3 1.3 1.2-1.5 2.7c-3 5-6.4 9.8-10.2 14.2-3.4 4-7.2 7.8-11.6 10.9l-1.6 1c-.3-.1-.3 0-.4.3h-.3Z" fill="#fdfdfd"/>
    <path d="M190.7 279.6c.6-.2 1 .2 1.5.4l3.6 2.2.2.2c1.1 1 2.6 1.5 4 2 .1.5.4.7.8 1 1.2 1 2.8 1.7 4 2.9l.5.3 2.5 1.5c1.3.7 2.4 1.7 3.8 2.1l.6.4 1 .5 2 1c1.1.4 2.2.7 3.4.3h.6c.9 0 1.7-.2 2.5-.6l.8-.2c.7 0 1.4-.3 1.9-.7.1-.2.4-.4.6-.4.7.1 1-.3 1.5-.6l1.5 1.1c3.2 3 6.6 5.5 10 8l.7.5.7.3.5.5 2 1 2.8 1.7h.3c2 1.1 3.9 2.1 6 2.9l1.5.4.2 1c-1 .2-2.1.1-3.1-.1-.5-.2-1-.2-1.6-.1-1 .2-2.1.2-3.2 0l-1.7-.3c-1.3-.1-2.5-.2-3.8-.5l-2.6-.8-1.3-.7-4.3-1.7-1-.5c-.5-.4-1-.6-1.6-.9-1-.4-2.1-.7-3-1.4-.2-.2-.5-.2-.8-.3-1.7-.4-3.2-1-4.7-2l-1.5-.5c-.6 0-1.2-.4-1.8-.7l-2.6-1.5-6.1-2.5c-.3-.1-.6-.3-.9-.1l-.6-.4c-5.4-4.3-10.4-9-15.2-14l-.6-.7Z" fill="#542678"/>
    <path d="M226.5 291.9c-.5.3-.9.7-1.5.6-.2 0-.5.2-.6.4-.6.5-1.3.7-2 .7-.2 0-.5 0-.7.2-.8.3-1.6.5-2.5.5h-.6c-1.2.5-2.3.2-3.4-.3l-2-.9-1-.5-.6-.4c-1.4-.4-2.5-1.4-3.8-2.1l-2.5-1.5-.5-.4c-1.2-1.1-2.8-1.8-4-2.8-.4-.3-.7-.5-.8-1l.4-1c.3-.6.1-1-.2-1.4l-2.3-2.3c-.6-.6-.8-1.3-1-2.1 1-.4 1.6 0 2.2.5h.3c1-.4 2.1-.8 3.1-1.4.4-.3.7-.6.8-1l.8-1c.6-.4.9-1 1-1.5.5-1 1-2 1-3 .1-.3.3-.5.3-.8l1.6 2c5.4 7 11.4 13.6 17.8 19.7l.7.8Z" fill="#652574"/>
    <path d="M226.9 309.3c-.4.8-1.1 1.3-1.7 1.8l-2 2-1 1-.9.8-.9 1-3 3-.4.6h-.5c-3.3-1.2-6.6-2.4-9.8-3.8l-4.3-2c-.5-.6-1.2-.7-1.9-1l-.5-.3c-.2-.4-.7-.5-1.1-.6l-.6-.3c.2-.6.5-1 1-1.3l3.4-3.4 4.4-4.3c.8-1 1.5-1.7 2.4-2.5l1.2-1 4 2.9c3.9 2.8 8 5.2 12.2 7.4Z" fill="#cd205b"/>
    <path d="m275.3 298.5-2.6-.2c-.8-.1-1.7 0-2.5.2-1.5.6-3 .9-4.4 1.8-.6.4-1.3.5-2 .8l-1.7.7c-.4.2-.8.4-1.3.4l-2.5.5h-.7c-1.4-.2-2.9 0-4.3.3h-1.6c-2 0-3.9-.4-5.8-.3l-.7-.2.9-2.6c1.4-3.2 3.4-6.1 6-8.5l1.7-1.2.6.4c1 1 2.4 1.5 3.7 1.9 2.5.7 5 1 7.6 1.4 2.5.3 5 .1 7.4-.3l1.3-.3.9 5.2Z" fill="#fdfdfd"/>
    <path d="M207.1 294.7c.3-.2.6 0 .8 0 2.1 1 4.2 1.7 6.2 2.6 1 .4 1.8 1 2.6 1.5.6.4 1.1.6 1.8.7.6 0 1 .3 1.5.6 1.4.9 3 1.5 4.7 1.9.2 0 .6.1.8.3.9.7 2 1 3 1.4.5.3 1.1.5 1.6 1l1 .4 4.3 1.7 1.3.7 2.6.8c1.2.3 2.5.4 3.8.5l1.7.3c1 .2 2.1.2 3.2 0 .5-.1 1 0 1.6 0 1 .3 2 .4 3 .3l1.4.5c1 .2 1.7.8 2.6 1.1l.3.2c.6.5.7.8.5 1.5 0 .3-.2.5-.3.7 0 .7-.4 1.4 0 2l-1.1.2c-3.7 0-7.3-.2-10.9-1-1.3-.3-2.6-.5-3.8-.9-1.4-.4-2.8-.6-4-1.3l-2.4-.7c-1.2-.4-2.3-.8-3.4-1.5l-1.3-.7c-1.2-.5-2.5-1-3.6-1.7-.9-.6-1.9-1-2.8-1.5l-1.6-.9c-5.1-3.2-10.1-6.6-14.8-10.4-.2 0-.2-.2-.3-.3Z" fill="#3e3f3f"/>
    <path d="m248.6 211.3 2.2-2c1.8 1.4 3.4 3 5.1 4.3l5 4.3c8.5 7.1 17.3 14 26.3 20.6l5.3 3.8c1.8 1.3 3.7 2.6 5.4 4-.1 0-.3 0-.4-.2l-7.5-3.5c-5-2.4-9.9-5-14.6-7.9-8.7-5-16-11.7-22.8-19l-3.4-3.7-.6-.7Zm64.9 64.7c1.8 2 4.2 2.7 6.7 3.3-6.4 9.1-15.5 16-26 19.8l.5-.7c4.1-4.9 7.8-10.1 11.2-15.5l4.3-4.3c1-1 2.2-1.8 3.3-2.6Z" fill="#fdfdfd"/>
    <path d="m243.2 331.3-.4-1.2c-.5-1.2-.8-1.4-2-1.4h-.4l-1-.8-.6-.5.6-.6.7-.3c.9-.3 1.4-.9 1.6-1.8h1.9c6.5-.2 12.9-1.5 19-3.8l5.2-2.1c2.3-1 4.6-2.3 6.8-3.6l5-3.4c.3-.3.7-.4 1-.6 0 .5-.5.8-.9 1.1-5.4 4.6-11.4 8.7-17.7 12-5.8 3-11.9 5.4-18.2 7h-.6Z" fill="#262b84"/>
    <path d="m261 277.4.8-5c.4 0 .7.2 1 .3l9.6 4.1 8.7 3.4.8.4c-.1.6-.4 1.1-.6 1.6 0 .2-.2.3-.4.4l-2 1.4c-6.1-2-12-4.1-18-6.7h.1Z" fill="#fdfdfd"/>
    <path d="M257 315.5c-.3-.7 0-1.4.2-2l.2-.7c.2-.7.1-1-.5-1.5l-.3-.3c-.9-.3-1.6-.9-2.6-1l-1.3-.6-.2-1c5.9 1.9 12.2 2.4 18.3 1.5 4.6-.9 9.1-2.6 13.1-5l.9-.4h.1c0 .4-.4.6-.7.8-4.5 3.3-9.4 6-14.6 7.9-2.6 1-5.4 1.6-8.2 2-1.4.1-2.9.4-4.3.3h-.1Z" fill="#262b84"/>
    <path d="m316.1 263.4.2.2c.5.4.6.4 1 0l.3-.6c.7-1 1.7-1.7 3-1.6h.3c.5-.4.3-.7.2-1l2.8-4.3h.4c1.5.5 1.8 1.1.9 2.5-.6 1-1.4 1.8-2.2 2.5l-.8 1-.6.5-.9.6c-1.3 1-1.8 2.8-1.1 4.3.1.4.4.5.6.5.3 0 .4-.3.5-.5v-.3c.9.3 1.4 1 2 1.4l2 1.4 2 1.4-1.8 1.9-1.7 2c-2.5.2-4.9-.5-6.9-2l.5-1c.5-1 .6-1.8.2-2.8-.6-1.9-.8-3.8-1-5.7v-.4Zm4.5-9.4c-1.5 1.2-2.9 2.4-4 3.8l-3.1 4.4c-1-.5-5.2-3.1-6.1-3.9.2-.3.5-.7.7-1 .3 0 .5.1.7.3l4 2.8.8.4h.5c.2-.3.2-.6 0-.8l-.5-.3-4.4-3.1-.4-.3c1-1.5 2-3 3.2-4.2l1.4-1.2c1.2-.7 2.4-.8 3.6 0h.1c0 .4-.3.4-.5.5l-.6.3c-1.5 1-2.8 2.4-4 3.8v.7c.2.1.5.2.6.1l.6-.6 2.4-2.3 1.4-1c.5-.4 1-.4 1.6-.1l.7.4c0 .3-.1.4-.3.5l-4.7 3-.6.5v.5c.1.2.4.3.5.2.3 0 .5-.2.8-.4l3.8-2.5 1.2-.6h.6Z" fill="#fdfdfd"/>
    <path d="m276 295.8 2 .3 1 .3 2.9 2.5c.5.6.9 1.3 1.2 2 .3.7.2 1.4 0 2.2 0 .3.1.5.4.7-1.3 1-3 1.7-4.4 2.4l-.3-.4c-1.4-3.1-2.3-6.4-2.9-9.7v-.3Z" fill="#dadbdb"/>
    <path d="M267.8 286.4c.4-.7 2-2.4 3.4-3.7 1 0 6.2 1.9 7.6 2.5v.7l.3.6-.8.5-3.2 1.6c-.4.2-.8.3-1.3 0l-2-.7-3.2-1.1-.8-.4Z" fill="#fdfdfd"/>
    <path d="m265 270.2-4.7-2q.1-.6.5-.6c.4.1.8.5 1.3.3.4-.3.6-.8.8-1.3.8-1.6 1.9-3.1 3.2-4.3 1-1 2.1-1.8 3.5-2.2.2.2.4.5.3.8l-.3.7-3.7 8.9-1-.3h.1Z" fill="#dc2058"/>
    <path d="M320.4 265.4c.2-.6.5-1 1.1-1.4l3 1.6 4.8 2.7 3 1.8c.8.4 1 .9.5 1.6l-1 1.5c-.9 0-1.4-.6-2-1l-9.2-6.5-.2-.3ZM270 282.1c-.6 1-2.4 2.9-3.5 3.9l-4-1.4-1.3-5.8h.4l8.4 3.3Z" fill="#fdfdfd"/>
    <path d="m276.9 260.3 1.3.5-.5 1.4-4.7 11.4-2-.9c-.2-.5 0-1 .3-1.5l4.6-11.1c.3 0 .6.3 1 .1Z" fill="#962267"/>
    <path d="m273 273.6 4.7-11.4.5-1.4c.7.1 1.2.7 1.8 1l.4.4-5.1 12.4-2.3-1Z" fill="#78246f"/>
    <path d="m275.8 260-4.5 11.2c-.2.5-.5 1-.4 1.5l-2.5-1 4.2-10.2.3-1c.2-.3.1-.6-.1-1 1 0 1.9 0 2.8.4l.2.2Z" fill="#a82264"/>
    <path d="M272.8 259.5c.2.4.3.7.2 1l-.4 1-4.2 10.2-.7-.3-.6-.4-1.2-.5 3.7-9 .3-.6c0-.3 0-.6-.3-.8 1-.5 2-.6 3.2-.5Z" fill="#bd215f"/>
    <path d="m308.7 278.2 1.4-2.4 2.2-4q.3-.6 0-1.3l.8-2 .9-2.8c.2-.6.4-1.2 1-1.8v.5c.2 2 .5 3.9 1.1 5.7.2.5.2 1 0 1.4l-1.1 1.6-2 1.8-4.1 3.3h-.2Z" fill="#fdfdfd"/>
    <path d="m275.3 274.6 5-12.4c.9.4 1.5 1 2 1.8l-4.7 11.5-2.3-1Z" fill="#652574"/>
    <path d="m256.5 283.6 2.8.9 2.2.9 2.3 7c-1.1 0-2.4-.2-3.7-.6l-3.6-8.2Z" fill="#fdfdfd"/>
    <path d="m277.6 275.5 4.7-11.5c.8.8 1.4 1.8 1.7 3l-.6 1-3.4 8.3c-.9 0-1.6-.5-2.4-.8Z" fill="#542678"/>
    <path d="m259.4 269.9.4-.8h.3l3.9 1.8c6.1 2.8 12.3 5.5 18.6 7.9l-.2.7c-2.7-.6-19.6-7.7-23-9.6Z" fill="#fdfdfd"/>
    <path d="M295.3 246.3c1.2.5 2.6 1 3.8 1.7.7.5 1.6.7 2.4 1l1 .5c.3.1.5.3.5.7v.6l.6 3.7v.7c-.4-.1-.6-.1-.8-.3-1.9-1.3-3.7-2.7-5.6-4l-.5-.5c.8-.6 1-1.4 1.1-2.3 0-.3-.1-.6-.4-.7l-1.3-.5c-.3-.2-.7-.2-.9-.6Zm-15.3 30 3.4-8.3c.1-.4.4-.7.7-1 .4.8.6 1.7.7 2.6.3 1.5.2 3 0 4.5 0 .4-.1.8-.5 1.1h-1l-.4.2v.4l.7.6c0 .5-.2.8-.5 1.2l-3.1-1.3Z" fill="#262b84"/>
    <path d="m312.7 263.2-1.2 1.6-1 1.1-3-1.7c-.8-.6-1.8-1-2.7-1.6 0-.7.5-1.1.8-1.6l1-1.6c.8.3 4.7 2.7 6.1 3.8ZM261.1 284l-4.7-1.6c-.1-1 0-1.8.1-2.7l.2-2.8c.7 0 1.2.4 1.7.6l1.4.6c.4 1 1.2 4.6 1.3 6Z" fill="#fdfdfd"/>
    <path d="M295.3 246.3c.1.4.5.4.8.6l1.3.5c.3.1.5.4.4.7-.1.9-.3 1.8-1 2.3l-2.8-1.7-3.1-2.3c.2-.6.7-1.2.5-2l2 1 1.9.9Z" fill="#542678"/>
    <path d="m273 289.6-6.9 3.3c0-.2-.2-.2-.2-.3l1.3-5c1 0 2 .5 2.9.8l3 1.2Zm29.1-25.6.2-.4c.4-.6.6-.7 1.2-.4l1.9 1c1.5.7 3 1.5 4.3 2.5l1 1c.2.3 0 .7-.3.7s-.7 0-1-.2l-2.4-1-4.3-2.7c-.2 0-.3-.2-.6-.4Z" fill="#fdfdfd"/>
    <path d="M291.4 244.5c.2.7-.3 1.3-.6 2l-4.5-3-2.2-1.3-.9-.6q.2-.8-.4-1.3l-.3-.3.9.3 3.6 2 .4.2 4 2Z" fill="#78246f"/>
    <path d="m324 264.3-1.3-.9c0-.5.3-.8.6-1.1 1.2-1.1 2.3-2.3 3.1-3.7 0 0 .2 0 .3-.2l.6.2c.8.3 1 .8.7 1.5l-.4.6c-1 1.4-2.2 2.5-3.5 3.6h-.1Z" fill="#fdfdfd"/>
    <path d="M262.8 227c3.6 3.1 7.4 5.9 11.4 8.3l.6.4.7.4c0 .5 0 1 .5 1.4-5-2.8-9.6-6.3-13.7-10.4h.5Z" fill="#bd215f"/>
    <path d="m305.4 267.5 3.2 1.6c.1.2.1.5.3.7.3.3.6.5 1 .6l1.5.5c-.2.9-.7 1.6-1.2 2.4l-5.3-5.1.5-.7Z" fill="#fdfdfd"/>
    <path d="M173.1 256.9c0 .7.5 1.2 1 1.6l1 1 .4.3c-.2.3-.3.2-.5.1l-1.3-.7c-.4-.1-.7 0-.9.5-1-1.4-2.2-2.7-3.3-4l-2-2.8c.4 0 .7 0 1 .3l.6.5c.5.7 1.2 1.2 1.8 1.6l2.2 1.6Z" fill="#5b1132"/>
    <path d="m306.3 257.8-2.4 3.9-.2.3h-.5l-.2-.3v-.5c.9-2.5 1.9-5 3.6-7l.7-1c.4.4.4.7.3 1-.5 1-.7 2-1.4 2.8-.2.3-.2.6.1.8Z" fill="#dc2058"/>
    <path d="M258.6 291.4c-1.3-.2-2.5-.8-3.5-1.6-.7-.6-.7-1.2-.2-2 .5-.5 1-1 1.6-1.2.6.7 1.9 3.8 2.1 4.8Zm1.3-19.9 1 .4c-.2 1.7-.6 3.3-.9 5-1-.2-2-.7-3-1.2l2.9-4.2Zm2.8 14.3 3.6 1.3-1.3 4.8h-.2l-2-6.1h-.1Z" fill="#fdfdfd"/>
    <path d="m316.1 263.4-.4-.6.7-.9 3.6-3.7 1.3-1.4c.6-.5 1-1.2.9-2v-.2c.9.5 1 .6.6 1.3l-2 3-.3.6c-.1.2 0 .5 0 .8h-.6c-1.3.2-2.2 1-3 2l-.8 1.1Z" fill="#dadbdb"/>
    <path d="M276 237.5c-.5-.4-.5-1-.5-1.4l2 1 3.3 1.9c.2.5.8.5 1.3.8l.4.2.3.3q.6.5.4 1.3l-2-1.1-5.2-3Z" fill="#962267"/>
    <path d="M327.5 266c-.8-.4-1.6-.6-2.3-1.1l.4-.5c1.3-1.2 2.5-2.4 3.4-4l.6.2-2.1 5.4Z" fill="#a82264"/>
    <path d="M273.8 292.4c-2.4.5-3.7.7-5 .5l.5-.4 4.4-2.1c.6-.3 1.3-.3 1.9 0l.5.2-.4.3-1 .5q-.6.3-1 1h.1Z" fill="#dadbdb"/>
    <path d="M306.3 257.8c-.3-.2-.3-.5-.1-.8.7-.8 1-1.8 1.4-2.7.1-.4 0-.8-.3-1 .8-1 1.7-1.9 2.7-2.6.3.4 0 .7 0 1.1-.2.4-.5.8-.3 1.2l-3.4 4.8Z" fill="#a82264"/>
    <path d="m283.6 279.5 1 .7-2.8 5c-.6 0-1.1-.3-1.6-.7.2-.4.6-.6 1-.8.6-.3 1-.8 1.2-1.5l.9-2.1.3-.6Z" fill="#dadbdb"/>
    <path d="m327.5 266 2.1-5.4c.5.2.8.4 1 .8l-2 5.2c-.4-.2-.9-.2-1.1-.6Z" fill="#78246f"/>
    <path d="M315 261.9c1.1-2.5 4.3-6 6.1-7 .1.5 0 .8-.3 1l-.9 1-4.4 4.6-.5.4Z" fill="#dadbdb"/>
    <path d="M317 277.2c-1-.4-2-1-2.8-1.8l1.3-1.3 1.1.6c.2.4.7.5 1 .7l-.6 1.8Z" fill="#cd205b"/>
    <path d="m328.6 266.6 2-5.2c.5.3.4.8.4 1.2-.1 1.6-.5 3-1.7 4.3l-.7-.3Z" fill="#542678"/>
    <path d="M309.7 253c-.2-.5 0-.8.2-1.2.1-.4.4-.7.1-1.1.6-.7 1.4-1.2 2.3-1.5.5-.2 1-.3 1.7 0-1.6.9-3 2.1-4 3.6l-.3.2Z" fill="#78246f"/>
    <path d="M319 275.7c1 .4 2.2.4 3.3.7-.1.7-.7 1.2-1 1.7h-.5l-1.4-.2c.1-.5.4-1 .4-1.6l-1-.5h.2Z" fill="#542678"/>
    <path d="m318.8 275.8 1 .5c0 .6-.3 1.1-.4 1.6-.9 0-1.7-.3-2.4-.7l.6-1.8 1.2.4Z" fill="#78246f"/>
    <path d="m275.9 289.3 3.3-1.6c.3.3.3.5.1.7l-1.7 1.6-1.7-.7Zm36-21.2-.6-1.6 2-2.3c-.1.8-.8 2.9-1.3 4h-.1ZM284 278.3l.4-1 .2-.3c.5 0 .8.3 1.2.6l-.3 1.5c-.5-.1-1-.4-1.5-.8Z" fill="#dadbdb"/>
    <path d="M311.9 268.1h.1l-.2 1.1c0 .2-.2.4-.4.5-.3.1-.6 0-.8-.2.6-.3 1-.8 1.3-1.4Z" fill="#bebfbf"/>
    <path d="M262.8 227h-.5c-.6-.4-1.2-1-1.6-1.8l.4.2 1.7 1.6Z" fill="#5b1132"/>
    <path d="M283.1 307.4c.6-.6 1.3-1 2.1-1.6l-.3.5-1.7 1.4v-.3Z" fill="#a82264"/>
    <path d="m305.4 254-.6 1c0-.2-.2-.2-.2-.3-.1-.4-.2-.8-.1-1.3.4 0 .5.4 1 .5Z" fill="#bebfbf"/>
    <path d="m266 270.5 1.1.5c.2 0 .4.2.6.4-1-.4-2-.6-2.7-1.2l1 .3Z" fill="#a82264"/>
    <path d="m318.8 275.8-1.2-.4c-.3-.2-.8-.3-1-.7l2.3 1Z" fill="#5b1132"/>
    <path d="M200.6 312.7c.6.3 1.4.4 1.9 1-.7-.3-1.4-.5-2-1h.1Z" fill="#a82264"/>
    <path d="m279.2 290.5-.8.4c0-.5.4-.7.7-.8v.4Z" fill="#a7a9a9"/>
    <path d="M282 239.8c-.4-.3-1-.3-1.2-.8.4.2 1 .3 1.3.8Z" fill="#652574"/>
    <path d="m286 303.7-.3.3h-.3c-.1.1 0-.1.2-.2h.4Z" fill="#262b84"/>
    <path d="M218.5 320c.5-.2.8.2 1.2.3-.4.1-.8-.1-1.2-.3Z" fill="#cd205b"/>
    <path d="M198.9 311.8c.4.1.9.2 1.1.6-.4-.1-.8-.3-1.1-.6Z" fill="#bd215f"/>
    <path d="M275.8 260h-.2c.5-.2.9 0 1.3.2-.4.2-.7 0-1-.1Z" fill="#78246f"/>
    <path d="M221.1 320.8c.5-.1.8.1 1.2.3-.5 0-.8-.1-1.2-.3Zm1.7.4c.4-.1.8.2 1.2.3-.5 0-.8 0-1.2-.3Z" fill="#bd215f"/>
    <path d="M219.3 321.3c-.5 0-.8-.2-1.2-.3.5-.2.8 0 1.2.3Zm2.1.6c-.3 0-.6 0-.9-.2.4-.2.6 0 1 .2h-.1Z" fill="#3e3f3f"/>
    <path d="M228.3 310c-.4 0-.8-.1-1-.5.4.1.7.2 1 .6Z" fill="#cd205b"/>
    <path d="M283.1 307.4v.3l-.5.4c0-.5.3-.6.5-.7Z" fill="#dc2058"/>
    <path d="m171.3 293.7.5.4-.5-.4Z" fill="#962267"/>
    <path d="m238.7 301.5-.6-.5c.2.1.5.2.6.5Zm1.3.8-.6-.5c.2 0 .5.2.5.5h.1Z" fill="#262b84"/>
    <path d="m172.7 294.8.5.4-.5-.4Zm.8.6.5.4-.5-.4Z" fill="#962267"/>
    <path d="M184 303c.3.1.5.2.6.4l-.5-.4h-.1Z" fill="#a82264"/>
    <path d="M143.3 307.8c.3 0 .6.2.7.4-.3 0-.5-.1-.7-.4Z" fill="#5b1132"/>
    <path d="m274.9 235.7-.7-.4c.3 0 .5.2.7.4Z" fill="#962267"/>
    <path d="M283 309.2Z" fill="#262b84"/>
    <path d="m80.1 259.5.4.3-.4-.3Z" fill="#cd205b"/>
    <path d="m172 294.3.4.3-.3-.3Z" fill="#962267"/>
    <path d="m280.4 262.2-.4-.4.4.4Z" fill="#542678"/>
    <path d="M284.4 303.3c0-.3.1-.4.4-.4l-.4.4Z" fill="#bebfbf"/>
    <path d="m286.2 303.6.2-.3-.2.2Zm-5.5 7.7.4-.4-.4.4Z" fill="#262b84"/>
    <path d="M279.2 290.5v-.4l.2-.2v.6h-.2Z" fill="#fdfdfd"/>
    <path d="M70.8 179.4Z" fill="#962267"/>
    <path d="M113.2 171v-.1Z" fill="#542678"/>
    <path d="M94.8 134.4Zm-1.2-2.4Zm1 2Z" fill="#bd215f"/>
    <path d="m113.7 169.8.2.2-.2-.2Z" fill="#a82264"/>
    <path d="M284.1 303.4Z" fill="#bebfbf"/>
    <path d="M103.4 150.8Zm-9.7-18.5v.2-.2Z" fill="#bd215f"/>
    <path d="m171.3 213.6-.2-.3.2.3Z" fill="#962267"/>
    <path d="M143.6 221.3Z" fill="#652574"/>
    <path d="m286 303.7.2-.2-.3.2Z" fill="#262b84"/>
    <path d="M192.5 313.2q-.4 0-.4-.4c.2 0 .4.1.4.4Z" fill="#542678"/>
    <circle cx="167.5" cy="244.4" r="36.6" fill="#fff"/>
    <path d="M36.5 10.3C24.2 7 12.4 5.3 1 4.8v286.5h3.6c17.8-1 35.2-5.2 51.4-12.5l1.4-.6c1.7-.7 3.3-1.5 4.9-2.4 25-12.7 45.8-32.3 59.8-56.6 5.4-9.5 9.8-19.8 13-30.7 2.9-10.3 4.7-20.5 5.5-30.6v-3C145 88 101.3 27.4 36.4 10.4Zm83.4 149.8c-11.8-11.2-5.2-21.8-1.6-32.8.4-1.2.7-2.3.8-3.2.2-1.2.2-2.3 0-3.2-.3-2.4-1.6-4.6-3.6-6-1-.8-2.2-1.5-3.5-2.2-3.3-1.8-7.1-3.4-10-6 1.3-2.8 2.4-5.6 3.2-8.6 4.3-16.5-4.9-28.6-21.3-37.6L60.5 43l-6.8-5-7.6-2.7-1.1-.5-2.3-.9-2.3-.9-4.6-1.8-5.7-2-2.4-.8c-1.5-.5-3-1-4.6-1.4H22c-2.7-.7-5.5-1.2-8.3-1.5-2.8-.3-5.7-.3-8.6 0H3l-1.7.4h-.2v244.6h3.3c1.7 0 3.3 0 5-.2h.5l2-.2h.5l2.2-.3h.7l1.7-.4h.6c.5-.2 1.1-.3 1.6-.5l1-.2c2.7-.7 5.4-1.5 8-2.5l1.7-.7c2-.9 3.9-1.8 5.8-2.8h.2c3.3-.9 6.6-2 9.8-3.2 7-2.5 13.7-5.6 20.1-9.4 18.7-11 33.7-27.4 43-47 4-8 7.2-16.6 9.8-25.8 1.6-5.6 4-14.6 1.3-17.1Z" fill="url(#b)"/>
    <path d="M18.5 181.6 3.5 201c1.8 8.9 14 9.4 10.2 19-5.3 3.6-9.4 6.2-12.6 8.6V25.8h.2l1.6-.2h.2l1.9-.3c5.7-.5 11.5 0 17 1.5l1 .3 2.4.7 2.3.7c2.7.8 5.5 1.7 8.1 2.8l4.6 1.8 2.3 1 2.3.8 1.1.5c-9.5 34.4-18.7 68.8-28.6 103-4.4 15.2-8.4 29.8 1 43.2Z" fill="#962267"/>
    <path d="m83.9 60.5-1.5 5.2L82 67l-2.4 8.2-1.4 4.9-1.3 4.7c-1.8 6.3-3.4 12.7-4.7 19.2-2 11.1-1.5 22.8-2.1 34.2-.4 2-1 4-1.6 6l-3 3.4-1.2 1.2-6.7 7.1c-4.3 1.6-9.1 2.5-13 5-2.5 1.6-5.2 5.7-4.9 8.3.3 2.5 4.4 4.6 6.8 7l8.4 17c-3.7 2.6-7.6 5-11.2 7.8-4 3.1-5.6 7-2 11.6-.9 3.2-1.8 6.4-2.9 9.6l-.2.8-.6 2.2-.7 2.4-.6 2c-.7 2.4-1.3 4.9-1.8 7.4l-.4 1.9c-.4 2.4-.8 4.9-1 7.3v2l.2 1.5c.2 1.9.5 3.8.9 5.6.4 1.7.6 3.4.8 5.1l.2 1.7v.5c-1.9 1-3.8 1.9-5.7 2.7l-1.7.8c-2.6 1.1-5.3 1.9-8 2.5l-1 .2c-.7.2-1.5.3-2.2.4l-1.7.4h-.7l-2.2.4H12l-2 .2h-.7c-1.7.1-3.3.2-5 .2H1.2v-41.8c3.2-2.4 7.3-5 12.7-8.6 3.7-9.6-8.5-10.1-10.2-19l15-19.4c-9.5-13.3-5.5-28-1.1-43.1 10-34.3 19.1-68.7 28.6-103.1l7.6 2.8 6.8 5L84 60.4Z" fill="#bd215f"/>
    <path d="M119.9 160c-11.8-11-5.2-21.7-1.6-32.7.4-1.2.7-2.3.8-3.2.2-1.2.2-2.3 0-3.2-.3-2.4-1.6-4.6-3.6-6-1-.8-2.2-1.5-3.5-2.2-3.3-1.8-7.1-3.4-10-6 1.3-2.8 2.4-5.6 3.2-8.6 4.3-16.5-4.9-28.6-21.3-37.6l-1.5 5.2L82 67l-2.4 8.2-1.4 4.9-1.3 4.7c-1.8 6.3-3.4 12.7-4.7 19.2-2 11.1-1.5 22.8-2 34.2 2.8-2 5.7-3.8 8.6-5.7l.5-.4.7-.5 2.1-1.2.6-.2 1.5-.5h.6c.4-.2.9-.2 1.3-.1.6 0 1.3.3 1.8.7.8.5 1.5 1.3 2.1 2.5 1 2-1 6.4-3 8.9-.7 1-1.6 2-2.6 2.8l-.9.6c-.2.1-.4.3-.6.4l-.7.3H82l-.3.2c-.2.1-.5.2-.7.3l-.5.2h-.6l-1 .3h-2.5c-.9 0-1.8-.2-2.7-.5l-.8-.3c-1.5-.5-2.9-1.1-4.3-1.8l-3.1 3.4-1.2 1.2-6.6 7.1c.7 9.2-5.9 14.3-11.2 20.2l8.5 17.1c5.5 5 4.8 10-1 13.8-3.7 2.5-8.2 3.8-12.3 5.6-.8 3.2-1.8 6.4-2.8 9.6l-.3.8-.6 2.2-.7 2.4-.5 2-1.9 7.4-.4 1.9c-.4 2.4-.7 4.9-.9 7.3v2l.2 1.5c.1 1.9.4 3.8.8 5.6.4 1.7.6 3.4.8 5.1l.2 1.7v.5h.4c3.3-1 6.5-2 9.7-3.2 7-2.5 13.8-5.7 20.2-9.5 18.6-11.1 33.6-27.4 42.9-47 4-8 7.2-16.5 9.9-25.7 1.6-5.6 3.9-14.6 1.2-17.2ZM93 169.8l-2 1.1-4 2.4-1.4.8-1.3.9-7.9 4.6c3.7 3 6.4 5.8 6.8 5.5 2.4-1.7 4.6-3.4 6.8-5.3l.7-.6.6-.6 4.2-3.9c.4-.4-1.6-3.2-2.5-5Z" fill="#cd205b"/>
    <path d="m60.5 43.1-6.8-5 6.8 5Z" fill="#962267"/>
    <path d="m70.1 138.2 8.6-5.7c4-2.8 8.5-5 11.3.3 1 2-1.1 6.4-3 8.9-5 6.8-11.7 6-18.5 2.6.7-2 1.2-4 1.6-6.1Z" fill="#5b1132"/>
    <path d="M55 193.2c5.4 5 4.7 10-1 13.8-3.7 2.5-8.2 3.8-12.4 5.6-3.5-4.6-2-8.5 2-11.6 3.7-2.8 7.6-5.2 11.3-7.8h.1Z" fill="#242021"/>
    <path d="M57.6 156c.7 9-5.8 14.3-11.1 20.1-2.4-2.3-6.5-4.4-6.8-6.9-.3-2.6 2.4-6.7 5-8.4 3.7-2.4 8.6-3.3 13-4.9h-.1Zm18.9 23.6 16.6-9.8c.8 1.7 2.9 4.6 2.5 5-3.8 3.8-8 7.2-12.4 10.3-.4.3-3.1-2.5-6.7-5.5Z" fill="#5b1132"/>
    <path d="M63.7 138.1h207.6c18.3 0 33.2 14.9 33.2 33.2 0 18.3-14.9 33.2-33.2 33.2H63.7c-18.3 0-33.2-14.9-33.2-33.2 0-18.3 14.9-33.2 33.2-33.2ZM14.8 106.2h135c4.1 0 7.5 3.4 7.5 7.5s-3.4 7.5-7.5 7.5H14.7c-4 0-7.4-3.3-7.4-7.3v-.2c0-4.1 3.4-7.5 7.5-7.5Zm172.2 0h135c4.1 0 7.5 3.4 7.5 7.5s-3.4 7.5-7.5 7.5H187c-4 0-7.4-3.3-7.4-7.3v-.2c0-4.1 3.4-7.5 7.5-7.5h-.1Z" fill="none" stroke="#fff" stroke-miterlimit="10"/>
    <path d="M53.4 155c-6.6 0-12 5.4-12 12 0 2.5.8 4.9 2.3 7l9.7 16.7 9.7-16.7c3.9-5.4 2.6-12.9-2.7-16.7-2-1.5-4.5-2.2-7-2.3Zm0 17.4c-2.9.4-5.6-1.6-6-4.5-.4-2.9 1.6-5.6 4.5-6h1.5c2.9.4 4.9 3.1 4.5 6-.3 2.4-2.2 4.2-4.5 4.5Z" fill="#fff"/>
    <g data-name="PRINT" fill="#fff">
        <path d="M29.8 12c0 .5-.2 1-.6 1.4l-6.8 6.8-7.2-4.2v-4.1c0-1.2 1-2.1 2.2-2.1s2.1 1 2.1 2.1v5.2l6.6-6.7c.7-.9 2.1-1 3-.3.5.4.8 1.1.7 1.8Zm-.7 18.9c-.8.8-2.1.8-3 0L24 28.7l-4.6-4.6v5.2c0 1.2-1 2.2-2 2.2s-2.2-1-2.2-2.2v-4l7.2-4.2 4.5 4.4 2.2 2.3c.9.8.9 2.2 0 3ZM22 20.7v-.3l-2-1-4.8-2.9-4.2-2.3c-.2 0-.5 0-.6.2V27c0 .3.1.5.4.5h.2l4.2-2.4 6.7-3.9.2-.2v-.3Zm-10.1-5 3.2 1.8 5.2 3h.1v.6l-5.3 3-3.2 1.9c-.2 0-.4 0-.5-.2v-10c0-.3 0-.4.3-.4h.2Z"/>
        <path d="M19 20.7v.2l-4.1 2.2-2.3 1.4h-.4V17c0-.2 0-.3.2-.3h.2l2.4 1.4 3.9 2.3h.1v.3Zm45.9-.6-6-3-3.7-1.8c-.2-.1-.4 0-.6.1v10.1c0 .2.3.3.6.3h.2l.2-.2 3.4-1.7 2-1.1 3.9-2v-.7Zm-6 2.9-2.8 1.6c-.2 0-.4 0-.5-.2v-7.8c0-.2.1-.3.2-.3h.2l2.8 1.5 1 .5 3.7 1.8v.5l-4.7 2.5Z"/>
        <path d="M62.3 20.5v.2l-3.5 1.8-2.1 1.1c-.2.1-.3 0-.4 0v-5.9c0-.2 0-.3.2-.3l2.2 1.1 3.5 1.8v.2Zm-23-5.1H34v10.3h2.6v-3.3h2.7c2.5 0 4.3-1.5 4.3-3.6s-2-3.5-4.4-3.4h.1Zm-.2 5h-2.5v-3h2.5c1.2 0 2 .6 2 1.4s-.8 1.5-2 1.5Zm14.3 5.5h-8.2V15.6h2.4v8.3h5.8v1.9ZM70.2 22v3.7h-2.4V22l-4.7-6.5H66l2.9 4.4 3-4.5h2.7L70.2 22Zm15.3 4.2h-1.6l-4.5-4.7-1.8 1.7v3.1h-1.2L76.2 16h1.3v5.7l5.9-5.8h1.7l-4.8 4.8 5.2 5.5ZM92 15.7c-3.2 0-5.9 2.5-5.8 5.4 0 2.8 2.7 5.3 6 5.2 3.1 0 5.8-2.5 5.7-5.4 0-2.9-2.7-5.3-5.9-5.2Zm.4 9.5c-2.5.2-4.7-1.7-4.9-4.2.4-2.5 2.7-4.2 5.2-3.9 2 .3 3.6 1.9 3.9 3.9 0 2.2-1.9 4-4.2 4.2Zm15.8-1.9c0 1.6-1.3 3-4 3s-3.3-.5-4.6-1.6l.8-.9c1 1 2.4 1.5 3.8 1.5s2.7-1 2.7-1.9-1.1-1.5-3.1-1.9c-2.4-.4-3.8-1-3.8-2.9s1.6-3 3.8-3c1.5 0 2.9.5 4 1.5l-.8.9c-.9-.8-2.1-1.3-3.3-1.3-1.4 0-2.4.9-2.4 1.8s1.1 1.5 3 1.9c2.3.4 3.9 1 3.9 2.9Zm13.7 2.9h-1.3v-7.8l-4.3 7.3-4.4-7.2v7.8h-1.2V15.9h1.2l4.4 7.1 4.1-7.2h1.3l.2 10.3Zm8.1-10.5c-3.1 0-5.8 2.5-5.8 5.4s2.8 5.3 6 5.2c3.2 0 5.8-2.5 5.8-5.4s-2.8-5.3-6-5.2Zm.5 9.5c-2.5.2-4.8-1.6-5-4.2 0-2.6 2.1-4.6 4.6-4.6 2.5 0 4.6 2.1 4.6 4.6-.1 2.2-2 4-4.2 4.2Zm15.8-1.9c0 1.6-1.4 3-4 3s-3.3-.5-4.6-1.6l.8-.9c1 1 2.4 1.5 3.8 1.5s2.7-1 2.6-1.9c0-1-1-1.5-3-1.9-2.4-.4-3.9-1-3.9-2.9s1.6-3 3.8-3c1.5 0 2.9.5 4 1.5l-.7.9c-.9-.8-2.1-1.3-3.3-1.3-1.4 0-2.5.9-2.5 1.8s1.2 1.5 3.2 1.9c2.2.4 3.7 1 3.8 2.9Z"/>
    </g>
</svg>
