<svg id="b48ce492-9be9-4278-9c04-fcd62756d897" data-name="b81a62d9-545c-4bfd-a166-0aa306b0efa7" xmlns="http://www.w3.org/2000/svg" xmlns:xlink="http://www.w3.org/1999/xlink" width="335" height="335" viewBox="0 0 335 335">
  <defs>
    <clipPath id="af59c35f-2602-4478-a203-16b950d4adae">
      <rect width="335" height="335" fill="none"/>
    </clipPath>
    <linearGradient id="b40eabef-c3d0-4454-82f9-dfa83ccdd45c" x1="-518.74" y1="96.75" x2="-499.64" y2="84.53" gradientTransform="translate(-427 336) rotate(180)" gradientUnits="userSpaceOnUse">
      <stop offset="0" stop-color="#faeaea"/>
      <stop offset="1" stop-color="#dbdbdb"/>
    </linearGradient>
    <clipPath id="e058e7f0-2817-4616-9c05-707cb796230e">
      <circle cx="91.6" cy="239.3" r="2.9" fill="none"/>
    </clipPath>
    <clipPath id="a6f96b26-896b-44a1-b744-930a8af7f8c9">
      <circle cx="263.9" cy="214.3" r="60.6" fill="#ee2750"/>
    </clipPath>
  </defs>
  <g>
    <g clip-path="url(#af59c35f-2602-4478-a203-16b950d4adae)">
      <g>
        <rect width="335" height="335" fill="#2f3d7e"/>
        <rect y="288.3" width="335" height="46.72" fill="#faeaea"/>
        <g>
          <polygon points="92.3 242.2 71.9 251.7 89.6 237.3 92.3 242.2" fill="url(#b40eabef-c3d0-4454-82f9-dfa83ccdd45c)"/>
          <path d="M55.7,316.3c.7,1.1,2,3.3.1,4.1l-.8.3a4.1,4.1,0,0,1-3.4-.3,2.1,2.1,0,0,1-.5-1.3,16.3,16.3,0,0,0-1.2-5.3v-.5l-.4-2.2v-3.9l.9-2.7-.9-2.7v-3.6l-.5-1.3-.9-2.5a12.9,12.9,0,0,1-.4-1.9l-.9-3.8-1.2-2.8-.3-.4-.4,2.7a4.8,4.8,0,0,0-.5,1.7,15,15,0,0,1-.6,2.9,3.3,3.3,0,0,1,0,1.4,6.5,6.5,0,0,1-.4,1.3v1.4l-.7,1.5s1.4.3.9,1.2a17.3,17.3,0,0,0-1.4,3.1l-.9.9-1.7.8-.7,2.4-.7,1.6-.7.5-.7.4a1.1,1.1,0,0,0-1.2.2,5.4,5.4,0,0,0-.7,1.3.9.9,0,0,1-.3.7l-.4.6a2.3,2.3,0,0,1-.7.7,2,2,0,0,1-1.6.7l-1-.2a2.3,2.3,0,0,1-.7-.7c-.1-.4-.2-.7-.1-.9,2.3-2.9,1.8-6.2,2.1-9.5a1.9,1.9,0,0,0,.2-.7,13.2,13.2,0,0,0,.8-3.3l.3-.9.4-.8c.2-.5.8,0,1.3.5,0-1.4.2-2.9.3-4.2v-4.1l.2-2.7v-2.4l.7-1.4-.2-1.4v-2.2l-.9-2.4v-2.9l-.9-1.5-1.1-1.3-.8-1-.4-.6a1.2,1.2,0,0,1-.5-.5,1.4,1.4,0,0,0-.2.6c-3.7-2.2-5.6-6.6-1.7-9.5a2.8,2.8,0,0,0,.1-.9,1.6,1.6,0,0,0-.6-.8c-1.6-1-3.8-1.2-5.1-2.9l-.3-.6-.4-1.1-.6-.6c-.9-1.9-1.6-4.2-.6-6.3a4.1,4.1,0,0,1,4.7-2,6.1,6.1,0,0,1,3.3,2.8h1.5l.3.8.8.9.8.8v1.5l.3,1.2.6-1.3,1.3-1.2h2.8l2.1,1.3,1.2,1.2,1.1.5v1h.9l1.8.8,1,1.1,1.1.5.6.3,1.1.8.8,1.4.5-.9,1.2-.3,1.3-.7,1.4-.2H56l1.2.2s17.4-14.1,20.2-14.4,5.4-.6,4.4,0c-12.8,8.3-23.8,16-23.8,16l1.2,1.1c.4.1-.4,1.5-.4,1.5l-1.5,1-.4.6-1,.5-.4.7-.8.9-.8,1.2-1.1.8-1.9-.3-2.3-.3s-.5.6-.3.9l1.1,1,.4,1.9,1.4,1.1,1.2,1.2A3.5,3.5,0,0,1,54,274c.6,1.1.4,4.1.4,4.1s1.5,2,1.5,3a16.4,16.4,0,0,1-.4,2.4c0,.3.1,3.5.1,3.5v2.2s1.8.1,1.8.9.3,4.7.3,4.7V300l-.3,2.7v3.1l-.3,1.5-.3,2v.5a5.7,5.7,0,0,1-.3,1.8c-.6,1.4-1.4,2.7-1,4.3A.8.8,0,0,1,55.7,316.3Z" fill="#faeaea"/>
          <g clip-path="url(#e058e7f0-2817-4616-9c05-707cb796230e)">
            <g>
              <circle cx="91.6" cy="239.3" r="3" fill="#faeaea"/>
              <path d="M93.8,241.4h.1a2.9,2.9,0,0,1-2.9-3.1,2.7,2.7,0,0,1,.6-1.7h-.2a3.3,3.3,0,0,0-.6,1.9,3.1,3.1,0,0,0,.9,2.2,2.8,2.8,0,0,0,2.1,1Z" fill="#fff"/>
              <path d="M93.5,241.7h0a3.3,3.3,0,0,1-2.9-3.4,3,3,0,0,1,.5-1.6h-.2a3.4,3.4,0,0,0-.5,1.7A3.4,3.4,0,0,0,93.5,241.7Z" fill="#fff"/>
            </g>
          </g>
          <g>
            <rect x="18.9" y="261.4" width="2.4" height="40.42" rx="1.1" fill="#faeaea"/>
            <rect x="13.1" y="261.4" width="2.4" height="40.42" rx="1.1" fill="#faeaea"/>
            <rect x="7.4" y="261.4" width="2.4" height="40.42" rx="1.1" fill="#faeaea"/>
            <path d="M19.4,262.1H15.2a.7.7,0,0,1-.7-.7h0a.7.7,0,0,1,.7-.7h4.2a.7.7,0,0,1,.7.7h0A.7.7,0,0,1,19.4,262.1Z" fill="#faeaea"/>
            <path d="M13.5,262.1H9.3a.7.7,0,0,1-.7-.7h0a.7.7,0,0,1,.7-.7h4.2a.7.7,0,0,1,.7.7h0A.7.7,0,0,1,13.5,262.1Z" fill="#faeaea"/>
          </g>
        </g>
        <g>
          <g>
            <path d="M252.9,328.2a4.3,4.3,0,1,1,4.3-4.3h0A4.4,4.4,0,0,1,252.9,328.2Zm0-7.9a3.5,3.5,0,0,0-4.1,3,3.5,3.5,0,0,0,2.9,4.1,2.4,2.4,0,0,0,1.2,0,3.6,3.6,0,0,0,3-4.1A3.7,3.7,0,0,0,252.9,320.3Z" fill="#2f3d7e"/>
            <path d="M267.1,328.2a4.3,4.3,0,1,1,.2-8.6,4.4,4.4,0,0,1,4.2,4.3,4.3,4.3,0,0,1-4.3,4.3Zm0-7.9a3.6,3.6,0,1,0,3.6,3.6,3.6,3.6,0,0,0-3.6-3.6Z" fill="#2f3d7e"/>
            <path d="M281.4,328.2a4.3,4.3,0,1,1,4.3-4.3h0A4.3,4.3,0,0,1,281.4,328.2Zm0-7.9a3.6,3.6,0,1,0,3.6,3.6,3.6,3.6,0,0,0-3.6-3.6Z" fill="#2f3d7e"/>
            <path d="M295.7,328.2a4.3,4.3,0,1,1,4.3-4.3h0A4.3,4.3,0,0,1,295.7,328.2Zm0-7.9a3.5,3.5,0,0,0-4.1,3,3.5,3.5,0,0,0,2.9,4.1,2.4,2.4,0,0,0,1.2,0,3.6,3.6,0,0,0,3-4.1A3.7,3.7,0,0,0,295.7,320.3Z" fill="#2f3d7e"/>
            <path d="M310,328.2a4.3,4.3,0,1,1,4.3-4.3h0A4.4,4.4,0,0,1,310,328.2Zm0-7.9a3.5,3.5,0,0,0-4.1,3,3.5,3.5,0,0,0,2.9,4.1,2.4,2.4,0,0,0,1.2,0,3.6,3.6,0,0,0,3-4.1A3.7,3.7,0,0,0,310,320.3Z" fill="#2f3d7e"/>
          </g>
          <g>
            <g>
              <path d="M93.9,280.4a4.3,4.3,0,1,1,4.3-4.3h0A4.3,4.3,0,0,1,93.9,280.4Zm0-7.9a3.6,3.6,0,1,0,3.6,3.6,3.6,3.6,0,0,0-3.6-3.6Z" fill="#ffde17"/>
              <path d="M108.2,280.4a4.3,4.3,0,1,1,4.3-4.3h0A4.4,4.4,0,0,1,108.2,280.4Zm0-7.9a3.6,3.6,0,1,0,3.5,3.7h0A3.7,3.7,0,0,0,108.2,272.5Z" fill="#ffde17"/>
              <path d="M122.4,280.4a4.3,4.3,0,0,1,.2-8.6,4.4,4.4,0,0,1,4.2,4.3,4.3,4.3,0,0,1-4.3,4.3Zm0-7.9a3.6,3.6,0,1,0,3.6,3.6,3.6,3.6,0,0,0-3.6-3.6Z" fill="#ffde17"/>
              <path d="M136.7,280.4a4.3,4.3,0,1,1,4.3-4.3h0A4.3,4.3,0,0,1,136.7,280.4Zm0-7.9a3.6,3.6,0,1,0,3.6,3.6,3.6,3.6,0,0,0-3.6-3.6Z" fill="#ffde17"/>
              <path d="M151,280.4a4.3,4.3,0,1,1,4.3-4.3h0A4.3,4.3,0,0,1,151,280.4Zm0-7.9a3.6,3.6,0,1,0,3.5,3.7h0A3.7,3.7,0,0,0,151,272.5Z" fill="#ffde17"/>
            </g>
            <g>
              <path d="M4.3,108.7A4.4,4.4,0,0,1,0,113.1a4.4,4.4,0,0,1-4.3-4.4A4.3,4.3,0,0,1,0,104.4,4.3,4.3,0,0,1,4.3,108.7Zm-7.9,0A3.6,3.6,0,0,0,0,112.3H0a3.6,3.6,0,0,0,3.6-3.6A3.7,3.7,0,0,0,0,105.2,3.7,3.7,0,0,0-3.6,108.7Z" fill="#ffde17"/>
              <path d="M4.3,94.5A4.3,4.3,0,0,1,0,98.8H0a4.3,4.3,0,0,1-4.3-4.3h0A4.3,4.3,0,0,1,0,90.2H0a4.3,4.3,0,0,1,4.3,4.3Zm-7.9,0A3.7,3.7,0,0,0,0,98a3.7,3.7,0,0,0,3.6-3.5A3.6,3.6,0,0,0,0,90.9,3.6,3.6,0,0,0-3.6,94.5Z" fill="#ffde17"/>
              <path d="M4.3,80.2A4.3,4.3,0,0,1,0,84.5H0a4.3,4.3,0,0,1-4.3-4.3h0A4.3,4.3,0,0,1,0,75.9,4.3,4.3,0,0,1,4.3,80.2Zm-7.9,0A3.6,3.6,0,0,0,0,83.8H0a3.6,3.6,0,0,0,0-7.2A3.6,3.6,0,0,0-3.6,80.2Z" fill="#ffde17"/>
              <path d="M4.3,65.9A4.3,4.3,0,0,1,0,70.2a4.3,4.3,0,0,1-4.3-4.3h0A4.3,4.3,0,0,1,0,61.6a4.3,4.3,0,0,1,4.3,4.3Zm-7.9,0A3.6,3.6,0,0,0,0,69.5a3.6,3.6,0,0,0,3.6-3.6A3.7,3.7,0,0,0,0,62.4,3.7,3.7,0,0,0-3.6,65.9Z" fill="#ffde17"/>
              <path d="M4.3,51.7A4.3,4.3,0,0,1,0,56a4.3,4.3,0,0,1-4.3-4.3A4.4,4.4,0,0,1,0,47.3,4.4,4.4,0,0,1,4.3,51.7Zm-7.9,0A3.7,3.7,0,0,0,0,55.2a3.7,3.7,0,0,0,3.6-3.5A3.6,3.6,0,0,0,0,48.1H0a3.6,3.6,0,0,0-3.6,3.6Z" fill="#ffde17"/>
            </g>
            <g>
              <path d="M328.8,155.1a4.3,4.3,0,1,1-4.3-4.3h0A4.3,4.3,0,0,1,328.8,155.1Zm-7.9,0a3.6,3.6,0,1,0,3.7-3.5h-.1A3.7,3.7,0,0,0,320.9,155.1Z" fill="#faeaea"/>
              <path d="M328.8,140.9a4.3,4.3,0,1,1-8.6-.2,4.4,4.4,0,0,1,4.3-4.2,4.3,4.3,0,0,1,4.3,4.3Zm-7.9,0a3.6,3.6,0,1,0,3.6-3.6,3.6,3.6,0,0,0-3.6,3.6Z" fill="#faeaea"/>
              <path d="M328.8,126.6a4.3,4.3,0,1,1-4.3-4.3h0A4.3,4.3,0,0,1,328.8,126.6Zm-7.9,0a3.6,3.6,0,1,0,3.6-3.6,3.6,3.6,0,0,0-3.6,3.6Z" fill="#faeaea"/>
              <path d="M328.8,112.3a4.3,4.3,0,1,1-4.3-4.3h0A4.3,4.3,0,0,1,328.8,112.3Zm-7.9,0a3.6,3.6,0,1,0,3.6-3.6,3.6,3.6,0,0,0-3.6,3.6Z" fill="#faeaea"/>
              <path d="M328.8,98a4.3,4.3,0,1,1-4.3-4.3h0A4.4,4.4,0,0,1,328.8,98Zm-7.9,0a3.6,3.6,0,1,0,3.7-3.5h-.1A3.7,3.7,0,0,0,320.9,98Z" fill="#faeaea"/>
            </g>
          </g>
        </g>
        <g>
          <g>
            <path d="M34.9,17.4a1.1,1.1,0,0,1-.4.9l-3.9,3.9-4.1-2.4V17.4a1.2,1.2,0,1,1,2.4,0h0v3l3.9-3.9a1.4,1.4,0,0,1,1.7,0,1.1,1.1,0,0,1,.4.9" fill="#faeaea"/>
            <path d="M33.7,28.6h-.5a.5.5,0,0,1-.4-.2l-3.9-3.9v3a1.2,1.2,0,1,1-2.4,0V25.1l4.1-2.4,3.9,3.8a1.2,1.2,0,0,1,.1,1.7,1.1,1.1,0,0,1-.9.4" fill="#faeaea"/>
            <path d="M30.5,22.3h-.2l-1-.6L26.5,20l-2.4-1.3a.2.2,0,0,0-.2-.2c-.2.1-.2.2-.2.3h0V26a.3.3,0,0,0,.3.3c.1,0,.1,0,.1-.1h0l2.4-1.3,3.8-2.3h.2Zm-1,.2c0,.1,0,.1-.1.1h0l-3,1.7-1.8,1.1h-.3V19.6a.2.2,0,0,1,.2-.2h.1l1.8,1.1,3,1.7A.4.4,0,0,1,29.5,22.5Z" fill="#faeaea"/>
            <path d="M28.7,22.5h-.1l-2.2,1.3-1.4.8h-.2c-.1,0-.1,0-.1-.1h0V20.3c0-.1.1-.1.2-.1H25l1.4.8,2.2,1.3h.1" fill="#faeaea"/>
          </g>
          <g>
            <path d="M55.2,22.3c-.1-.1-.1-.2-.2-.2l-3.4-1.7-2.1-1.1c-.2,0-.4.1-.4.2v5.7c0,.2.2.3.4.2l2.1-1.1L55,22.5h.2Zm-.9.1c0,.1,0,.1-.1.1l-2.6,1.4-1.6.8c-.1.1-.2,0-.3-.1h0V20.2a.2.2,0,0,1,.2-.2h0l1.7.8,2.6,1.4c.1,0,.1,0,.1.1Z" fill="#faeaea"/>
            <path d="M53.6,22.4h-.1l-2,1.1-1.2.6h-.2V20.7h.2l1.2.6,2,1h.1" fill="#faeaea"/>
            <path d="M37.4,19.4h2.9a2.3,2.3,0,0,1,2.6,2h0a2.4,2.4,0,0,1-2.5,2H38.8v1.9H37.4Zm2.8,2.8c.7,0,1.2-.3,1.2-.8s-.5-.8-1.2-.8H38.8v1.7Z" fill="#faeaea"/>
            <path d="M48.4,24.2v1.2H43.7V19.5h1.4v4.8Z" fill="#faeaea"/>
            <path d="M56.7,23.2l-2.6-3.8h1.6L57.4,22l1.7-2.7h1.6l-2.6,3.8v2.2H56.7Z" fill="#faeaea"/>
            <path d="M61.6,19.7h.7V23l3.3-3.3h1l-2.8,2.8,3,3.2H66l-2.6-2.8-1,1v1.8h-.7Z" fill="#faeaea"/>
            <path d="M67.3,22.6a3.2,3.2,0,0,1,3.3-3.1h0a3.3,3.3,0,0,1,3.5,3,3.2,3.2,0,0,1-3.4,3.1,3.2,3.2,0,0,1-3.4-3Zm6-.1a2.6,2.6,0,0,0-2.7-2.4,2.5,2.5,0,0,0-2.5,2.5,2.5,2.5,0,0,0,2.7,2.5A2.6,2.6,0,0,0,73.3,22.5Z" fill="#faeaea"/>
            <path d="M75,24.7l.5-.5a3.5,3.5,0,0,0,2.2.8c1,0,1.5-.5,1.5-1s-.6-.9-1.8-1.1-2.2-.7-2.2-1.7.9-1.7,2.2-1.7a4,4,0,0,1,2.3.8l-.4.6a2.7,2.7,0,0,0-1.9-.8A1.2,1.2,0,0,0,76,21.2c0,.6.6.8,1.8,1s2.1.7,2.1,1.7-.7,1.7-2.3,1.7A4.1,4.1,0,0,1,75,24.7Z" fill="#faeaea"/>
            <path d="M81.3,19.7h.8l2.5,4.1L87,19.6h.7v6H87V21.1l-2.4,4.1-2.5-4.1v4.5h-.7Z" fill="#faeaea"/>
            <path d="M89.2,22.6a3.2,3.2,0,0,1,3.3-3.1h0a3.4,3.4,0,0,1,3.4,3A3.3,3.3,0,0,1,92,25.3,3.4,3.4,0,0,1,89.2,22.6Zm6-.1A2.7,2.7,0,0,0,92,20.4a2.8,2.8,0,0,0-2.1,2.2A2.6,2.6,0,0,0,92.6,25,2.6,2.6,0,0,0,95.2,22.5Z" fill="#faeaea"/>
            <path d="M96.9,24.7l.5-.5a3.2,3.2,0,0,0,2.1.8c1.1,0,1.6-.5,1.6-1s-.7-.9-1.8-1.1-2.2-.7-2.2-1.7.9-1.7,2.2-1.7a4,4,0,0,1,2.3.8l-.4.6a3.2,3.2,0,0,0-2-.8,1.2,1.2,0,0,0-1.4,1.1c.1.6.7.8,1.8,1s2.2.7,2.2,1.7-.7,1.7-2.3,1.7A3.9,3.9,0,0,1,96.9,24.7Z" fill="#faeaea"/>
          </g>
        </g>
        <g>
          <rect x="285" width="41.4" height="41.42" fill="#faeaea"/>
          <rect x="285" y="44.6" width="41.4" height="2.26" fill="#faeaea"/>
          <rect x="285" y="49" width="41.4" height="2.26" fill="#faeaea"/>
        </g>
        <rect x="16.3" y="92.7" width="181.4" height="33.93" fill="#faeaea"/>
      </g>
    </g>
    <g>
      <g>
        <path d="M29.2,97.8h1a3.1,3.1,0,0,1,2.5,2.3c.1.1.1.2.1.4v1a2.7,2.7,0,0,1-.7,1.4h-.2a9,9,0,0,1-2-1.9,7.3,7.3,0,0,1-1.5-2.9l.2-.2Zm1.4,3.5h0c.1,0,.1-.1,0-.1l-.3-.3h-.1c-.1.1-.1.1,0,.2l.3.3Zm-.9-1.4c-.1,0-.2,0-.1.1s.1.3.2.4H30c.1,0,0-.1,0-.1a.8.8,0,0,1-.2-.4Zm2.4,2.7h.1l-.4-.3h-.1l.3.3Zm-3-4c0-.2-.1-.3-.1-.5h-.1c-.1,0-.1,0-.1.1s.1.3.1.5h.2Zm2.3,3.3h0l-.4-.3h-.1c-.1.1-.1.1,0,.1l.3.4h.2ZM29.2,99h-.1l.2.4h.2v-.2l-.2-.4Z" fill="#2f3d7e"/>
        <path d="M26.5,100.6a1.9,1.9,0,0,1,.2-.7,2.4,2.4,0,0,1,.7-1.2c.1-.1.1,0,.2.1a7.1,7.1,0,0,0,2.2,3.7l1.3,1.2c.1.1.1.1,0,.1a3.1,3.1,0,0,1-4.1-1.1h0a2.2,2.2,0,0,1-.5-1.1Zm1-.8c0-.2-.1-.3-.1-.5h-.2c0,.2.1.4.1.6h.2Zm0,.5c.1.1.1.3.3.5h.1a.8.8,0,0,0-.2-.5h-.2Zm.9,1.2c-.1-.1-.1-.3-.3-.4H28s-.1.1,0,.1l.3.4c0,.1,0,.1.1,0Zm1,1.2h-.1c.1.2.3.3.4.4h.1c.1-.1.1-.1,0-.2l-.4-.3Zm-.8-.8h0c-.1.1-.1.1,0,.2l.3.3H29c.1,0,.1-.1,0-.2l-.2-.3Zm1.6,1.4h-.1l.4.3h.1c.1-.1,0-.1,0-.2l-.4-.2Z" fill="#2f3d7e"/>
        <path d="M27.7,98.6h0l.4-.3c.1-.1.2,0,.2.1a7.5,7.5,0,0,0,2.6,4.1l.9.8c.1,0,.1.1,0,.1l-.3.3h-.2a14.2,14.2,0,0,1-2.9-3.1,10.7,10.7,0,0,1-.7-1.9Z" fill="#2f3d7e"/>
      </g>
      <g>
        <path d="M29.2,115.1h1a3.1,3.1,0,0,1,2.5,2.3.6.6,0,0,1,.1.4v1a2.7,2.7,0,0,1-.7,1.4h-.2a18,18,0,0,1-2-1.9,8,8,0,0,1-1.5-2.9c0-.2,0-.2.2-.3Zm1.4,3.4h0c.1,0,.1,0,0-.1l-.3-.3h-.1c-.1,0-.1.1,0,.1l.3.3Zm-.9-1.4c-.1,0-.2.1-.1.1s.1.3.2.4H30c.1-.1,0-.1,0-.2a.5.5,0,0,1-.2-.4Zm2.4,2.7h.1v-.2l-.4-.2c0-.1-.1-.1-.2,0h.1l.3.3Zm-3-4c0-.2-.1-.3-.1-.5h-.1c-.1,0-.1,0-.1.1a4.3,4.3,0,0,1,.1.5h.2Zm2.3,3.3h0l-.4-.4h-.1c-.1.1-.1.1,0,.2l.3.3h.2Zm-2.2-2.9h-.1l.2.5h.2l-.2-.4Z" fill="#2f3d7e"/>
        <path d="M26.5,117.8a1.9,1.9,0,0,1,.2-.7,2.6,2.6,0,0,1,.7-1.1h.2a7.1,7.1,0,0,0,2.2,3.7l1.3,1.2c.1.1.1.1,0,.2a3.2,3.2,0,0,1-4.1-1.2,2.2,2.2,0,0,1-.5-1.1Zm1-.8c0-.2-.1-.3-.1-.5h-.2c0,.2.1.4.1.6h.2Zm0,.5.3.5h.1c0-.2-.1-.3-.2-.5s-.1-.1-.1,0Zm.9,1.2c-.1-.1-.1-.3-.3-.4H28s-.1.1,0,.1l.3.5h.1Zm1,1.2h-.1l.4.3h.1c.1-.1.1-.1,0-.2l-.4-.3Zm-.8-.8h0c-.1,0-.1.1,0,.1l.3.3H29c0-.1.1-.1,0-.1l-.2-.3Zm1.6,1.5h-.1v.2l.4.2h.1c.1-.1,0-.1,0-.1Z" fill="#2f3d7e"/>
        <path d="M27.7,115.8h0l.4-.3h.2a8.1,8.1,0,0,0,2.6,4.2l.9.7c.1.1.1.1,0,.2l-.3.2c-.1.1-.1.1-.2,0a10.7,10.7,0,0,1-2.9-3.1,13.4,13.4,0,0,1-.7-1.8Z" fill="#2f3d7e"/>
      </g>
      <path d="M21.2,145.1a4.9,4.9,0,0,1,4.9,5.1,6.8,6.8,0,0,1-.2,1.4,34.7,34.7,0,0,1-3.4,5.9l-1,1.4c-.2.2-.3.3-.6,0a41.1,41.1,0,0,1-4.3-7.3C15.4,148.8,17.6,145.2,21.2,145.1Zm0,7.4a2.1,2.1,0,1,0,0-4.2h0a2.1,2.1,0,0,0-2.1,2.1h0a2,2,0,0,0,1.9,2.1Z" fill="#faeaea"/>
      <g>
        <path d="M209.1,96.8h1.3a4.1,4.1,0,0,1,3.3,3,.7.7,0,0,0,.1.5v1.4a3.7,3.7,0,0,1-.8,1.8c-.1.1-.2.2-.3.1a15.4,15.4,0,0,1-2.6-2.5,10.7,10.7,0,0,1-2-3.8c0-.2,0-.3.2-.3Zm1.7,4.6h.1c.1-.1,0-.1,0-.2l-.4-.4h-.2c-.1.1,0,.1,0,.2s.3.2.4.4Zm-1.2-1.9c-.1,0-.1.1-.1.2l.4.5h.2V100l-.3-.4Zm3.2,3.6h.2v-.2l-.5-.3h-.2c0,.1,0,.2.1.2l.4.4Zm-3.9-5.3a1.4,1.4,0,0,0-.2-.6c0-.1,0-.1-.1-.1v.2a1.4,1.4,0,0,0,.2.6h.1Zm3,4.3h0l-.5-.5c-.1,0-.2,0-.2.1h0l.5.5h.2ZM209,98.3c-.1,0-.1.1-.1.2l.3.6c0,.1,0,.1.1.1s.1,0,.1-.1.1-.1,0-.2-.1-.3-.2-.5Z" fill="#faeaea"/>
        <path d="M205.5,100.4a2.9,2.9,0,0,1,.2-.9,4,4,0,0,1,1-1.5c.1-.1.1-.1.2.1a10.2,10.2,0,0,0,2.9,4.9l1.7,1.5c.2.1.2.1,0,.2a4.1,4.1,0,0,1-5.4-1.5,3.9,3.9,0,0,1-.6-1.5v-1.3Zm1.4-1-.3-.7c0-.1,0-.1-.1-.1h0v.2a1.9,1.9,0,0,0,.2.7h.2Zm-.1.6.3.7h.3a1.6,1.6,0,0,0-.4-.7h-.2Zm1.2,1.7a2.1,2.1,0,0,0-.4-.6h-.2v.2l.4.5c0,.1.1.1.2,0Zm1.3,1.5h-.1a1,1,0,0,0,.5.4h.2v-.2l-.5-.4Zm-1-1h-.1c-.1.1,0,.1,0,.2l.4.4c0,.1.1.1.2.1a.2.2,0,0,0,0-.3h0l-.4-.4s0-.1-.1,0Zm2,1.9c-.1,0-.1,0-.1.1h0l.5.4h.1l-.4-.4Z" fill="#faeaea"/>
        <path d="M207,97.8h.1l.5-.4c.1-.1.2,0,.2.1a10.1,10.1,0,0,0,3.5,5.5l1.1.9a.2.2,0,0,1,0,.3h0l-.4.3h-.2a14.9,14.9,0,0,1-3.8-4.1,24.4,24.4,0,0,1-1-2.4Z" fill="#faeaea"/>
      </g>
      <g>
        <path d="M209.1,114.1h1.3a4.2,4.2,0,0,1,3.3,3,1.3,1.3,0,0,0,.1.6V119a4.6,4.6,0,0,1-.8,1.9h-.3a10.3,10.3,0,0,1-2.6-2.5,10.7,10.7,0,0,1-2-3.8c0-.2,0-.2.2-.3Zm1.7,4.5h.1c.1,0,0-.1,0-.1l-.4-.5h-.2c-.1.1,0,.1,0,.2l.4.4Zm-1.2-1.9c-.1,0-.1.1-.1.2a1,1,0,0,0,.4.5h.2v-.2l-.3-.5Zm3.2,3.6h.1l-.5-.4h-.2a.4.4,0,0,0,.1.3l.4.3Zm-3.9-5.3a1.4,1.4,0,0,0-.2-.6s0-.1-.1,0h-.1a1.4,1.4,0,0,0,.2.6h.1c.1.1.1,0,.1-.1Zm3,4.4h0c-.1-.2-.3-.3-.5-.5s-.2,0-.2.1v.2l.5.4h.2Zm-2.9-3.9c-.1,0-.1.1-.1.3l.3.5c0,.1.1.1.2.1s.1-.2,0-.2-.1-.4-.2-.5Z" fill="#faeaea"/>
        <path d="M205.5,117.7a3.6,3.6,0,0,1,.2-1l1-1.5c.1-.1.1-.1.2.1a10.2,10.2,0,0,0,2.9,4.9l1.7,1.5q.3.1,0,.3a4.3,4.3,0,0,1-5.4-1.5,4.7,4.7,0,0,1-.6-1.5v-1.3Zm1.4-1.1-.3-.7s-.1-.1-.1,0h-.1a1.9,1.9,0,0,0,.2.7h.1C206.8,116.8,206.8,116.7,206.9,116.6Zm-.1.7.3.6h.3a1.6,1.6,0,0,0-.4-.7h-.1c-.1-.1-.1,0-.1.1Zm1.2,1.6a2.1,2.1,0,0,0-.4-.6h-.2v.2l.4.5h.2Zm1.3,1.5h-.2v.2l.5.4h.2c0-.1,0-.2-.1-.2l-.5-.5Zm-1-1h-.1l.4.4c0,.1.1.2.2.1s.1-.2,0-.2l-.4-.5Zm2,1.9c-.1,0-.1,0-.1.1v.2l.5.3h.2c0-.1,0-.2-.1-.2s-.3-.2-.4-.4Z" fill="#faeaea"/>
        <path d="M207,115.1c0-.1,0-.2.1-.2l.5-.4h.2a10.1,10.1,0,0,0,3.5,5.5l1.1,1c.1.1.1.1,0,.2l-.4.3h-.2a14.5,14.5,0,0,1-3.8-4,18.6,18.6,0,0,1-1-2.5Z" fill="#faeaea"/>
      </g>
      <path d="M16.3,226.1a4.1,4.1,0,0,1,.5-.9l6.1-6.1a1.9,1.9,0,0,1,1.3-.5h2.5c.2,0,.2-.1.2-.2a2.3,2.3,0,0,1,2.1-1.9,2.5,2.5,0,0,1,2.9,2.1h0v2.1c0,.2,0,.3.1.4a3,3,0,0,1,.8.8,1.6,1.6,0,0,1,.5,1.1V232a1.3,1.3,0,0,1-1.1,1.4H25.1a1.2,1.2,0,0,1-1-1.2c-.1-.4,0-.9-.1-1.3v-.3h-.1l-.9.9a1.4,1.4,0,0,1-2.1,0l-4.1-4.1a2.6,2.6,0,0,1-.5-.9Zm12.7-4v-2a.9.9,0,0,0-.5-.8H28c-.4,0-.3,0-.4.4a.5.5,0,0,0,.3.5,1,1,0,0,1,.4,1.2,1.2,1.2,0,0,1-1.1.7,1.2,1.2,0,0,1-1-.7,1,1,0,0,1,.4-1.2c.3-.1.3-.3.3-.5v-.2c0-.1,0-.2-.2-.2H24.2a.9.9,0,0,0-.7.3l-6.2,6.2h-.1a.6.6,0,0,0-.1.8h.1l4.3,4.3.4.2.6-.3,6.2-6.2a.9.9,0,0,0,.3-.7Zm.8-2v4a1.6,1.6,0,0,1-.6,1.3l-4.3,4.3c0,.1-.1.1-.1.2V232a.7.7,0,0,0,.7.7h6.3c.3.1.6-.2.7-.5v-9.1c0-.3,0-.5-.2-.6l-2.4-2.3Zm1.3.2a4.3,4.3,0,0,0,0-1.6,1.7,1.7,0,0,0-1.5-1.5,1.8,1.8,0,0,0-1.9,1.2c0,.1,0,.2.1.2h.9a1.3,1.3,0,0,1,1,.4l.9.8Zm-3.5.8c0-.2-.1-.4-.3-.4a.4.4,0,0,0-.4.4c0,.2.2.3.4.3Z" fill="#faeaea"/>
      <g>
        <g>
          <circle cx="263.9" cy="214.3" r="60.6" fill="#ee2750"/>
          <g clip-path="url(#a6f96b26-896b-44a1-b744-930a8af7f8c9)">
            <path d="M263.9,276.9a62.6,62.6,0,1,1,62.6-62.6A62.6,62.6,0,0,1,263.9,276.9Zm0-121.1a58.6,58.6,0,1,0,58.5,58.7v-.2a58.6,58.6,0,0,0-58.5-58.5Z" fill="#ffde17"/>
          </g>
        </g>
        <g>
          <path d="M195.8,214.3A67.8,67.8,0,1,1,263.7,282h-.2A67.8,67.8,0,0,1,195.8,214.3Zm1.6,0a66.1,66.1,0,1,0,66.1-66.1h0a66.2,66.2,0,0,0-66.1,66.1Z" fill="#ffde17"/>
          <path d="M192.4,209.9a4.6,4.6,0,0,0,9.1.3,4.6,4.6,0,0,0-9.1-.3Z" fill="#ffde17"/>
        </g>
      </g>
    </g>
  </g>
</svg>
