<svg xmlns="http://www.w3.org/2000/svg" xmlns:xlink="http://www.w3.org/1999/xlink" width="335" height="335">
  <defs>
    <linearGradient id="c" x1="168.62" x2="166.24" y1="9.59" y2="344.58" data-name="Degradado sin nombre 2" gradientUnits="userSpaceOnUse">
      <stop offset=".12" stop-color="#2e3091"/>
      <stop offset=".61" stop-color="#242163"/>
      <stop offset=".94" stop-color="#1f1949"/>
    </linearGradient>
    <linearGradient id="d" x1="38.23" x2="96.44" y1="245.48" y2="245.48" gradientUnits="userSpaceOnUse">
      <stop offset=".01" stop-color="#f9c727"/>
      <stop offset=".12" stop-color="#eebc28"/>
      <stop offset=".33" stop-color="#d2a02b"/>
      <stop offset=".43" stop-color="#c1902d"/>
      <stop offset=".69" stop-color="#ecd487"/>
      <stop offset=".75" stop-color="#ecd382"/>
      <stop offset=".81" stop-color="#eed176"/>
      <stop offset=".88" stop-color="#f1ce61"/>
      <stop offset=".95" stop-color="#f4cb44"/>
      <stop offset="1" stop-color="#f9c727"/>
    </linearGradient>
    <linearGradient id="a" x1="39" x2="96.13" y1="245.56" y2="245.56" data-name="Degradado sin nombre 56" gradientUnits="userSpaceOnUse">
      <stop offset=".01" stop-color="#f9c727"/>
      <stop offset=".03" stop-color="#eebd25"/>
      <stop offset=".07" stop-color="#d2a420"/>
      <stop offset=".12" stop-color="#a37c18"/>
      <stop offset=".17" stop-color="#64440c"/>
      <stop offset=".18" stop-color="#5a3b0b"/>
      <stop offset=".22" stop-color="#5c3e0e"/>
      <stop offset=".26" stop-color="#644717"/>
      <stop offset=".28" stop-color="#735828"/>
      <stop offset=".31" stop-color="#866f3f"/>
      <stop offset=".34" stop-color="#a08c5c"/>
      <stop offset=".36" stop-color="#c0b181"/>
      <stop offset=".38" stop-color="#e4dbab"/>
      <stop offset=".4" stop-color="#fffaca"/>
      <stop offset=".42" stop-color="#f8eeb8"/>
      <stop offset=".46" stop-color="#e6d08b"/>
      <stop offset=".51" stop-color="#ca9f44"/>
      <stop offset=".53" stop-color="#c1902d"/>
      <stop offset=".69" stop-color="#ecd487"/>
      <stop offset=".7" stop-color="#ddc57a"/>
      <stop offset=".75" stop-color="#af9453"/>
      <stop offset=".79" stop-color="#8a6d33"/>
      <stop offset=".83" stop-color="#6f511d"/>
      <stop offset=".86" stop-color="#5f400f"/>
      <stop offset=".89" stop-color="#5a3b0b"/>
      <stop offset=".94" stop-color="#a99767"/>
      <stop offset="1" stop-color="#fffaca"/>
    </linearGradient>
    <linearGradient xlink:href="#a" id="e" x1="38.18" x2="96.82" y1="254.98" y2="254.98" data-name="Degradado sin nombre 56"/>
    <linearGradient id="b" x1="1041.01" x2="1049.69" y1="242.95" y2="242.95" data-name="Gold" gradientTransform="translate(-976.13)" gradientUnits="userSpaceOnUse">
      <stop offset=".01" stop-color="#f9c727"/>
      <stop offset=".25" stop-color="#fffaca"/>
      <stop offset=".3" stop-color="#f8eeb8"/>
      <stop offset=".41" stop-color="#e6d08b"/>
      <stop offset=".55" stop-color="#ca9f44"/>
      <stop offset=".6" stop-color="#c1902d"/>
      <stop offset=".87" stop-color="#ecd487"/>
      <stop offset="1" stop-color="#fffaca"/>
    </linearGradient>
    <linearGradient xlink:href="#b" id="g" x2="1051.41" y1="247.56" y2="247.56" data-name="Gold"/>
    <linearGradient xlink:href="#b" id="h" x1="1031.34" x2="1058.15" y1="245.43" y2="245.43" data-name="Gold"/>
    <filter id="f" data-name="drop-shadow-1" filterUnits="userSpaceOnUse">
      <feOffset dx=".19" dy=".38"/>
      <feGaussianBlur result="uuid-1fb42c1c-bea6-474f-af2e-331fc5e660e3" stdDeviation=".38"/>
      <feFlood flood-color="#000" flood-opacity=".75"/>
      <feComposite in2="uuid-1fb42c1c-bea6-474f-af2e-331fc5e660e3" operator="in"/>
      <feComposite in="SourceGraphic"/>
    </filter>
  </defs>
  <g data-name="Layer 1">
    <path fill="url(#c)" d="M0 0h335v335H0z"/>
    <path fill="#4bb8f6" d="M167.5 142.68a5.56 5.56 0 0 0-4.48 8.84l4.48 7.76 4.48-7.76a5.56 5.56 0 0 0-4.48-8.84Zm0 8.1a2.44 2.44 0 1 1 0-4.89 2.44 2.44 0 0 1 0 4.9Z"/>
    <g fill="#4bb8f6" data-name="PRINT">
      <path d="M29.59 13.92c0 .53-.22 1.04-.6 1.4l-6.34 6.35-6.78-3.91V13.9a2 2 0 0 1 4.01 0v4.86l6.28-6.28a2 2 0 0 1 3.43 1.43ZM29 31.68a2 2 0 0 1-2.84 0l-2.13-2.13-4.15-4.14v4.86a2 2 0 0 1-4 0v-3.83l6.79-3.92 4.2 4.2 2.12 2.13a2 2 0 0 1 0 2.83Zm-6.64-9.72a.46.46 0 0 0-.18-.24l-.03-.02-1.7-.99-4.58-2.64-3.86-2.23a.44.44 0 0 0-.62.16.42.42 0 0 0-.07.23v11.72c0 .25.2.45.45.45a.5.5 0 0 0 .24-.06l3.86-2.23 6.28-3.63.07-.04c.05-.05.1-.1.12-.17a.5.5 0 0 0 .02-.31Zm-9.57-4.72 3 1.73 4.88 2.81c.05.04.1.08.13.13v.01a.3.3 0 0 1 .03.26.35.35 0 0 1-.16.21l-4.87 2.82-3 1.73a.35.35 0 0 1-.49-.13.34.34 0 0 1-.04-.18v-9.1c0-.19.15-.34.35-.34a.3.3 0 0 1 .17.05Z"/>
      <path d="M19.46 22.16a.25.25 0 0 1-.12.16l-3.66 2.11-2.26 1.3a.26.26 0 0 1-.4-.22v-6.84a.27.27 0 0 1 .4-.23l2.26 1.3 3.66 2.12c.06.03.1.09.13.15v.15Zm43.05-.53-5.6-2.8-3.44-1.73a.4.4 0 0 0-.54.15.6.6 0 0 0-.06.17l.11 9.29c.03.21.23.38.45.35.06 0 .12-.02.16-.05l.22-.11L57 25.2l1.96-1.05 3.55-1.9a.37.37 0 0 0 .18-.2.31.31 0 0 0 0-.21.37.37 0 0 0-.18-.2Zm-5.6 2.84-2.63 1.41a.3.3 0 0 1-.43-.1.3.3 0 0 1-.04-.13l-.1-7.21c.02-.17.17-.3.34-.28.05 0 .09.02.13.04l2.68 1.34.96.48 3.38 1.7c.06.02.12.08.15.15l-.01.15-.01.03a.23.23 0 0 1-.12.14l-4.3 2.28Z"/>
      <path d="M60.13 22.02a.21.21 0 0 1-.1.13l-3.23 1.71-1.99 1.06a.23.23 0 0 1-.35-.17l-.07-5.43a.23.23 0 0 1 .35-.18l2.01 1 3.27 1.65c.05.02.09.06.1.12a.2.2 0 0 1 0 .12Zm-21.62-4.84-2.14.03-2.71.04.03 2.64.08 7.02 2.31-.02-.04-3.14 2.55-.04c2.34-.02 4.05-1.4 4.03-3.3-.03-1.92-1.77-3.26-4.1-3.23Zm-.2 4.64-2.29.03-.03-2.73 2.3-.03c1.14-.01 1.93.51 1.94 1.34 0 .83-.77 1.38-1.92 1.39Zm13.45 5.14-7.7.1-.12-9.67 2.33-.03.1 7.8 5.37-.08.02 1.88zm15.78-3.69.04 3.49-2.34.03-.04-3.49-4.3-6.13 2.7-.03 2.74 4.21 2.75-4.27 2.59-.04-4.14 6.23zm14.37 3.97-1.58.02-4.15-4.45-1.68 1.63.03 2.9-1.23.01-.11-9.67 1.22-.01.07 5.35 5.4-5.43 1.62-.01-4.49 4.47 4.9 5.19zm6.07-9.9c-2.98.04-5.5 2.35-5.47 5.07.04 2.71 2.6 4.98 5.6 4.95 3-.04 5.49-2.37 5.45-5.1-.03-2.7-2.6-4.96-5.58-4.92Zm.4 8.98a4.29 4.29 0 0 1-4.62-3.93 4.3 4.3 0 0 1 8.56-.1 4.29 4.29 0 0 1-3.94 4.03Zm14.8-1.8c.02 1.54-1.25 2.8-3.77 2.84a6.2 6.2 0 0 1-4.27-1.49l.76-.87c.97.9 2.24 1.38 3.55 1.35 1.67-.02 2.5-.85 2.5-1.72-.01-1.03-1.04-1.42-2.93-1.79-2.18-.43-3.55-1.01-3.57-2.7-.02-1.54 1.5-2.77 3.58-2.79a5.67 5.67 0 0 1 3.8 1.33l-.74.87a4.74 4.74 0 0 0-3.1-1.2c-1.35.01-2.3.81-2.3 1.7.01 1 1.08 1.35 2.92 1.71 2.08.41 3.55 1.06 3.57 2.76Zm12.83 2.7-1.22.02-.1-7.3-3.92 6.79-4.08-6.69.08 7.3-1.23.02-.11-9.68 1.22-.01 4.09 6.69 3.93-6.79 1.22-.01.12 9.66zm7.7-9.88c-2.98.04-5.5 2.35-5.47 5.07.04 2.71 2.6 4.98 5.6 4.95 3-.04 5.49-2.37 5.45-5.1-.04-2.7-2.6-4.96-5.58-4.92Zm.4 8.98a4.3 4.3 0 0 1-4.63-3.93 4.3 4.3 0 0 1 8.57-.1 4.29 4.29 0 0 1-3.94 4.03Zm14.8-1.8c.02 1.54-1.26 2.8-3.77 2.84a6.22 6.22 0 0 1-4.27-1.49l.76-.87c.17.15.33.3.52.41.88.63 1.94.96 3.03.94 1.66-.02 2.51-.85 2.5-1.72-.02-.75-.56-1.16-1.59-1.47a11 11 0 0 0-1.15-.28l-.2-.04c-2.17-.43-3.55-1.01-3.56-2.7-.02-1.54 1.5-2.77 3.58-2.79a5.7 5.7 0 0 1 3.8 1.33l-.74.87a4.77 4.77 0 0 0-3.12-1.2c-1.33.01-2.3.81-2.29 1.7.02 1 1.1 1.35 2.93 1.71.39.08.75.16 1.1.26.36.1.69.23.98.38.92.43 1.48 1.08 1.49 2.12Z"/>
    </g>
    <ellipse cx="67.41" cy="263.05" fill="none" stroke="#2db9e7" stroke-miterlimit="10" stroke-width=".6" rx="10.66" ry="4.59"/>
    <path fill="none" stroke="#2db9e7" stroke-miterlimit="10" stroke-width="1.23" d="m37.99 318.08 3.6-5.17m5.49 6.4 2.24-5.35m7.03 6.16.85-5.47m8.49 5.84-.54-5.52m9.83 5.45-1.93-5.51m11.07 5.01-3.29-5.44m12.17 4.5-4.62-5.3m13.13 3.94-5.89-5.1m13.93 3.33-7.09-4.83"/>
    <g opacity=".3">
      <path fill="none" stroke="#0085c7" stroke-miterlimit="10" stroke-width=".86" d="m135.75 7.14 89.09 14.7 72.22 47.14 36.33 98.6-43.68 113.31-93.41 48-83.47-12.54-77.41-49.3-37.19-100.33L41.47 55.14l94.28-48z"/>
      <path fill="none" stroke="#0085c7" stroke-miterlimit="10" stroke-width=".86" d="m196.3 328.89 31.57-32 3.46-102.93L206.24 90.6l18.6-68.76 73.09 92.98 35.46 52.76-33.73 54.06-71.79 75.25-115.04 19.46L45.8 226.4l-4.33-106.82V55.14"/>
      <path fill="none" stroke="#0085c7" stroke-miterlimit="10" stroke-width=".86" d="m297.06 68.98.87 45.84 1.73 106.82-9.95 59.25M135.75 7.14 116.72 43.9l2.17 106.38 23.35 102.07-29.41 64"/>
      <path fill="none" stroke="#0085c7" stroke-miterlimit="10" stroke-width=".86" d="m225.13 21.84-108.69 22.2-74.97 11.1m256.35 60.11-91.14-24.79-90.24-46.42-74.68 75.25-43.25 47.28L45.8 226.4m252.34-111.15-66.38 78.71-89.09 58.39"/>
      <path fill="none" stroke="#0085c7" stroke-miterlimit="10" stroke-width=".86" d="m35.42 267.48 10.38-41.51 73.52-76.12 86.92-59.68"/>
      <path fill="none" stroke="#0085c7" stroke-miterlimit="10" stroke-width=".86" d="m41.47 120.01 77.42 30.27 112.87 43.68 68.33 28.11m-10.38 58.82-61.41 15.57-85.2-44.11-97.3-25.95"/>
      <path fill="#0085c7" d="M38.26 55.4a3.38 3.38 0 1 0 6.77 0 3.38 3.38 0 0 0-6.77 0Zm-.17 64.18a3.38 3.38 0 1 0 6.77 0 3.38 3.38 0 0 0-6.77 0Zm77.41 30.7a3.38 3.38 0 1 0 6.77 0 3.38 3.38 0 0 0-6.77 0Zm-73.08 75.68a3.38 3.38 0 1 0 6.76 0 3.38 3.38 0 0 0-6.76 0Zm-10.38 41.09a3.38 3.38 0 1 0 6.76 0 3.38 3.38 0 0 0-6.76 0Zm77.41 49.08a3.38 3.38 0 1 0 6.77 0 3.38 3.38 0 0 0-6.77 0Zm29.41-64.22a3.38 3.38 0 1 0 6.76 0 3.38 3.38 0 0 0-6.76 0Zm85.62 44.76a3.38 3.38 0 1 0 6.77 0 3.38 3.38 0 0 0-6.77 0Zm-30.7 32.01a3.38 3.38 0 1 0 6.77 0 3.38 3.38 0 0 0-6.77 0Zm93.2-47.36a3.38 3.38 0 1 0 6.76 0 3.38 3.38 0 0 0-6.76 0Zm9.29-59.46a3.38 3.38 0 1 0 6.77 0 3.38 3.38 0 0 0-6.77 0ZM330 167.58a3.38 3.38 0 1 0 6.78 0 3.38 3.38 0 0 0-6.77 0Zm-35.67-52.33a3.38 3.38 0 1 0 6.77 0 3.38 3.38 0 0 0-6.77 0Zm-.43-46.27a3.38 3.38 0 1 0 6.76 0 3.38 3.38 0 0 0-6.76 0Zm-72.44-47.14a3.38 3.38 0 1 0 6.76 0 3.38 3.38 0 0 0-6.76 0Zm-18.6 68.55a3.38 3.38 0 1 0 6.77 0 3.38 3.38 0 0 0-6.77 0Zm25.08 103.5a3.38 3.38 0 1 0 6.77 0 3.38 3.38 0 0 0-6.77 0ZM112.86 44.37a3.38 3.38 0 1 0 6.77 0 3.38 3.38 0 0 0-6.77 0Zm19.51-37.23a3.38 3.38 0 1 0 6.77 0 3.38 3.38 0 0 0-6.77 0Z"/>
    </g>
    <rect width="107.71" height="21.01" x="217.31" y="8.11" fill="#4bb8f6" rx="10.5" ry="10.5"/>
    <path fill="none" d="M80.88 254.77H54.43l-.19-11.38 26.64-1.13v12.5Z"/>
    <ellipse cx="67.41" cy="266.99" fill="none" stroke="#2db9e7" stroke-miterlimit="10" stroke-width=".6" rx="19.77" ry="8.51"/>
    <path fill="none" stroke="#2db9e7" stroke-miterlimit="10" stroke-width="1.23" d="M82.58 265.37c0 3.6-6.8 6.53-15.17 6.53s-15.18-2.92-15.18-6.53 6.8-6.53 15.18-6.53c8.38 0 15.17 2.92 15.17 6.53Z"/>
    <path fill="none" stroke="#2db9e7" stroke-miterlimit="10" stroke-width="1.6" d="M106.27 270.23c0 9.24-17.4 16.72-38.86 16.72-21.47 0-38.87-7.48-38.87-16.72s17.4-16.72 38.87-16.72c21.46 0 38.86 7.48 38.86 16.72Z"/>
    <path fill="none" stroke="#2db9e7" stroke-miterlimit="10" stroke-width=".8" d="M67.4 289.34c-15.58 0-30.22-3.59-38.2-9.36l9.7-2.48c5.95 4.3 16.87 6.99 28.5 6.99 4.95 0 9.7-.46 14.13-1.36l4.8 4.39a95.44 95.44 0 0 1-18.92 1.82Zm37.33-8.75-9.47-2.64c3.46-2.3 5.28-4.97 5.28-7.72h11.27c0 3.69-2.45 7.27-7.08 10.36Zm-64.8-18.33-9.34-2.72c8.28-5.27 22.04-8.42 36.82-8.42 12.6 0 24.64 2.32 33.06 6.35l-8.39 3.24c-6.28-3.01-15.27-4.74-24.67-4.74-11.03 0-21.3 2.35-27.48 6.29Z"/>
    <path fill="none" stroke="#2db9e7" stroke-dasharray="0 0 2.2726 .7575" stroke-miterlimit="10" stroke-width="1.51" d="M91.02 268.95c0 5.61-10.57 10.16-23.61 10.16s-23.61-4.55-23.61-10.16 10.57-10.16 23.6-10.16c13.05 0 23.62 4.55 23.62 10.16Z"/>
    <path fill="none" stroke="#2db9e7" stroke-miterlimit="10" d="M95.47 268.95c0 6.67-12.56 12.08-28.06 12.08-15.5 0-28.07-5.41-28.07-12.08s12.57-12.08 28.07-12.08 28.06 5.4 28.06 12.08Z"/>
    <ellipse cx="67.51" cy="269.73" fill="none" stroke="#2db9e7" stroke-miterlimit="10" stroke-width=".6" rx="30.87" ry="13.28"/>
    <path fill="none" stroke="#2db9e7" stroke-miterlimit="10" stroke-width=".97" d="M117.44 275.36c0 11.88-22.4 21.52-50.03 21.52-27.63 0-50.03-9.64-50.03-21.52s22.4-21.53 50.03-21.53c27.63 0 50.03 9.64 50.03 21.53Z"/>
    <ellipse cx="67.41" cy="280.59" fill="none" stroke="#2db9e7" stroke-miterlimit="10" stroke-width="1.08" rx="55.41" ry="23.84"/>
    <path fill="none" stroke="#2db9e7" stroke-dasharray="0 0 2.1628 .721" stroke-miterlimit="10" stroke-width=".57" d="M128.62 282.79c0 14.54-27.4 26.34-61.21 26.34-33.8 0-61.21-11.8-61.21-26.34s27.4-26.34 61.2-26.34c33.81 0 61.22 11.79 61.22 26.34Z"/>
    <ellipse cx="67.41" cy="273.87" fill="none" stroke="#2db9e7" stroke-dasharray="0 0 2.2724 .7575" stroke-miterlimit="10" stroke-width=".6" rx="47" ry="20.22"/>
    <path fill="none" stroke="#2db9e7" stroke-miterlimit="10" stroke-width="1.23" d="m65.44 252.3.3 2.67m-4.82-2.48.97 2.65m-5.42-2.24 1.63 2.59m-5.95-1.97 2.28 2.49m-6.42-1.68 2.9 2.38m-6.8-1.37 3.48 2.22m-7.11-1.04 4.02 2.04m-7.33-.7 4.51 1.85m-7.46-.36 4.95 1.62m-7.51 0 5.34 1.38m-7.47.35 5.66 1.12m-7.34.7 5.91.85m-7.12 1.03 6.09.58m-5.65 7.85 6.02-.69m-4.62 2.55 5.81-.96m-3.94 2.75 5.53-1.23m-3.23 2.91 5.19-1.48m71.06-10.32-6.19.28m5.47-2.22-6.08.57m4.88-2.45-5.91.85m4.23-2.67-5.65 1.12m3.53-2.85-5.34 1.38"/>
    <path fill="none" stroke="#2db9e7" stroke-miterlimit="10" stroke-width=".6" d="m96.59 282.79 8.34 3.59m-78.79-16.15h-11.8"/>
    <path fill="url(#d)" d="M70.2 258.77c-16 .73-30.24-4.63-31.83-11.97a6.18 6.18 0 0 1-.1-2.06l.02-.01c.77-6.47 11.7-11.89 26.17-12.55 16-.72 30.26 4.65 31.84 11.98l.1.59c.85 7.1-10.64 13.32-26.2 14.02Z"/>
    <path fill="#75480c" d="M96.86 244.38c-1.6-7.48-16.02-12.94-32.2-12.2-15.83.72-27.48 7.1-26.48 14.39 0 .16.04.32.08.49.05.23.1.46.18.68 2.3 7.13 16.34 12.24 32.02 11.52 13.68-.62 24.25-5.48 26.22-11.5l.14-.5c.23-.93.25-1.9.04-2.88Zm-.8 2c-.83 6.28-11.54 11.54-25.68 12.18-15.7.7-29.7-4.53-31.25-11.71-.03-.16-.06-.32-.07-.47v-.01c-.96-6.98 10.33-13.12 25.69-13.81 15.7-.71 29.69 4.54 31.24 11.7.15.72.18 1.43.08 2.12Z"/>
    <path fill="url(#a)" d="M95.99 244.26c-1.55-7.17-15.54-12.42-31.24-11.7-15.36.68-26.65 6.82-25.7 13.8v.01l.08.47c1.56 7.18 15.55 12.42 31.25 11.71 14.14-.64 24.85-5.9 25.69-12.18.1-.69.07-1.4-.08-2.1Zm-25.67 13.68c-15.4.68-29.12-4.37-30.64-11.28a5.07 5.07 0 0 1-.13-1.09c-.2-6.45 10.66-12 25.25-12.65 15.4-.69 29.12 4.36 30.64 11.27.1.47.15.94.13 1.4-.15 6.32-10.9 11.7-25.25 12.35Z"/>
    <path fill="#5a3b0b" d="M95.44 244.2c-1.52-6.91-15.24-11.96-30.64-11.27-14.6.63-25.45 6.2-25.25 12.64 0 .36.05.73.13 1.1 1.52 6.9 15.24 11.96 30.64 11.28 14.35-.65 25.1-6.03 25.25-12.35.02-.46-.03-.93-.13-1.4Zm-25.17 13.34c-15.1.65-28.54-4.2-30.04-10.86a5.38 5.38 0 0 1-.1-1.87h.02c.73-5.87 11.05-10.78 24.7-11.38 15.1-.65 28.55 4.21 30.04 10.86l.09.53c.8 6.43-10.03 12.07-24.71 12.71Z"/>
    <path fill="url(#e)" d="M96.82 247.25v4.07c-1.52 6.24-12.3 11.36-26.36 12-16.18.74-30.6-4.72-32.2-12.2a2.94 2.94 0 0 1-.08-.49v-4.07c0 .16.04.32.08.5.05.23.1.46.18.68 2.3 7.13 16.34 12.24 32.02 11.52 13.68-.62 24.25-5.48 26.22-11.5l.14-.5Z"/>
    <g filter="url(#f)">
      <path fill="url(#b)" d="M69.92 241.31h-5.03v3.28h5.03c2.01 0 3.64-.74 3.64-1.64s-1.63-1.64-3.64-1.64Zm0 2.97h-4.34v-2.66h4.34c1.63 0 2.95.6 2.95 1.33s-1.32 1.33-2.95 1.33Z"/>
      <path fill="url(#g)" d="M71.27 245.75h-6.38v3.61h6.38c2.22 0 4.02-.8 4.02-1.8s-1.8-1.8-4.02-1.8Zm0 3.3h-5.7v-2.99h5.7c1.83 0 3.33.67 3.33 1.5s-1.5 1.49-3.33 1.49Z"/>
      <path fill="url(#h)" d="M77.92 244.66c1.28-.51 2.07-1.21 2.07-1.98 0-1.48-2.92-2.7-6.63-2.85v-.01h-1.48v-2.4h-4.16v2.4h-1.54v-2.4H62v2.4h-6.8v1.84h4.52v7.47c-.92-.06-1.84-.12-2.75-.2-.23-.02-.45.05-.5.15l-.63 1.52c-.05.1.12.2.37.22 1.92.15 3.85.25 5.8.3v2.32h4.16v-2.37c.51 0 1.02.02 1.54 0v2.37h4.16v-2.37h1.6c5.05-.11 8.54-1.59 8.54-3.48 0-1.23-1.65-2.32-4.1-2.93Zm1.26 5.1a16.76 16.76 0 0 1-6.29 1h-1.7v2.37h-2.78v-2.38l-.73.01a15.8 15.8 0 0 1-.82 0h-.7l-.67.01v2.36H62.7v-2.3l-.65-.02c-1.83-.05-3.67-.14-5.47-.27l.54-1.29c.8.07 1.65.13 2.52.18l.78.05v-8.13H55.9v-1.22h6.8v-2.4h2.78v2.4h2.92v-2.4h2.78v2.4h1.76l.35.01c3.37.13 6 1.25 6 2.54 0 .65-.65 1.27-1.84 1.75l-.73.3.86.2c2.34.58 3.74 1.58 3.74 2.66 0 .83-.77 1.6-2.15 2.18Z"/>
    </g>
  </g>
</svg>
