<svg xmlns="http://www.w3.org/2000/svg" width="335" height="335" data-name="Layer 1"><defs><clipPath id="a"><path fill="#111836" d="M0 0h335v335H0z"/></clipPath></defs><path fill="#111836" d="M0 0h335v335H0z"/><g clip-path="url(#a)"><path fill="#232844" d="M335 362.8 0 239.8v-105l335 123v105zM335 227.7 0 104.7V71.3l335 123v33.4z"/><g fill="#495382" opacity=".6"><path d="M52.1 159.5c0 1.9-1.5 3.4-3.3 3.4s-3.3-1.5-3.3-3.4 1.5-3.4 3.3-3.4 3.3 1.5 3.3 3.4ZM71.7 159.5c0 1.9-1.5 3.4-3.3 3.4s-3.3-1.5-3.3-3.4 1.5-3.4 3.3-3.4 3.3 1.5 3.3 3.4ZM91.3 159.5c0 1.9-1.5 3.4-3.3 3.4s-3.3-1.5-3.3-3.4 1.5-3.4 3.3-3.4 3.3 1.5 3.3 3.4ZM110.9 159.5c0 1.9-1.5 3.4-3.3 3.4s-3.3-1.5-3.3-3.4 1.5-3.4 3.3-3.4 3.3 1.5 3.3 3.4ZM130.5 159.5c0 1.9-1.5 3.4-3.3 3.4s-3.3-1.5-3.3-3.4 1.5-3.4 3.3-3.4 3.3 1.5 3.3 3.4ZM52.1 179c0 1.9-1.5 3.4-3.3 3.4s-3.3-1.5-3.3-3.4 1.5-3.4 3.3-3.4 3.3 1.5 3.3 3.4ZM71.7 179c0 1.9-1.5 3.4-3.3 3.4s-3.3-1.5-3.3-3.4 1.5-3.4 3.3-3.4 3.3 1.5 3.3 3.4ZM91.3 179c0 1.9-1.5 3.4-3.3 3.4s-3.3-1.5-3.3-3.4 1.5-3.4 3.3-3.4 3.3 1.5 3.3 3.4ZM110.9 179c0 1.9-1.5 3.4-3.3 3.4s-3.3-1.5-3.3-3.4 1.5-3.4 3.3-3.4 3.3 1.5 3.3 3.4ZM130.5 179c0 1.9-1.5 3.4-3.3 3.4s-3.3-1.5-3.3-3.4 1.5-3.4 3.3-3.4 3.3 1.5 3.3 3.4ZM52.1 198.6c0 1.9-1.5 3.4-3.3 3.4s-3.3-1.5-3.3-3.4 1.5-3.4 3.3-3.4 3.3 1.5 3.3 3.4ZM71.7 198.6c0 1.9-1.5 3.4-3.3 3.4s-3.3-1.5-3.3-3.4 1.5-3.4 3.3-3.4 3.3 1.5 3.3 3.4ZM91.3 198.6c0 1.9-1.5 3.4-3.3 3.4s-3.3-1.5-3.3-3.4 1.5-3.4 3.3-3.4 3.3 1.5 3.3 3.4ZM110.9 198.6c0 1.9-1.5 3.4-3.3 3.4s-3.3-1.5-3.3-3.4 1.5-3.4 3.3-3.4 3.3 1.5 3.3 3.4ZM130.5 198.6c0 1.9-1.5 3.4-3.3 3.4s-3.3-1.5-3.3-3.4 1.5-3.4 3.3-3.4 3.3 1.5 3.3 3.4ZM52.1 218.2c0 1.9-1.5 3.4-3.3 3.4s-3.3-1.5-3.3-3.4 1.5-3.4 3.3-3.4 3.3 1.5 3.3 3.4ZM71.7 218.2c0 1.9-1.5 3.4-3.3 3.4s-3.3-1.5-3.3-3.4 1.5-3.4 3.3-3.4 3.3 1.5 3.3 3.4ZM91.3 218.2c0 1.9-1.5 3.4-3.3 3.4s-3.3-1.5-3.3-3.4 1.5-3.4 3.3-3.4 3.3 1.5 3.3 3.4ZM110.9 218.2c0 1.9-1.5 3.4-3.3 3.4s-3.3-1.5-3.3-3.4 1.5-3.4 3.3-3.4 3.3 1.5 3.3 3.4ZM130.5 218.2c0 1.9-1.5 3.4-3.3 3.4s-3.3-1.5-3.3-3.4 1.5-3.4 3.3-3.4 3.3 1.5 3.3 3.4ZM52.1 237.7c0 1.9-1.5 3.4-3.3 3.4s-3.3-1.5-3.3-3.4 1.5-3.4 3.3-3.4 3.3 1.5 3.3 3.4ZM71.7 237.7c0 1.9-1.5 3.4-3.3 3.4s-3.3-1.5-3.3-3.4 1.5-3.4 3.3-3.4 3.3 1.5 3.3 3.4ZM91.3 237.7c0 1.9-1.5 3.4-3.3 3.4s-3.3-1.5-3.3-3.4 1.5-3.4 3.3-3.4 3.3 1.5 3.3 3.4ZM110.9 237.7c0 1.9-1.5 3.4-3.3 3.4s-3.3-1.5-3.3-3.4 1.5-3.4 3.3-3.4 3.3 1.5 3.3 3.4ZM130.5 237.7c0 1.9-1.5 3.4-3.3 3.4s-3.3-1.5-3.3-3.4 1.5-3.4 3.3-3.4 3.3 1.5 3.3 3.4Z"/></g><g fill="#4f65b0" opacity=".6"><path d="M261.1 34.3c0 1.1-.9 2.1-2 2.1s-2-.9-2-2.1.9-2.1 2-2.1 2 .9 2 2.1ZM273.1 34.3c0 1.1-.9 2.1-2 2.1s-2-.9-2-2.1.9-2.1 2-2.1 2 .9 2 2.1ZM285.1 34.3c0 1.1-.9 2.1-2 2.1s-2-.9-2-2.1.9-2.1 2-2.1 2 .9 2 2.1ZM297.1 34.3c0 1.1-.9 2.1-2 2.1s-2-.9-2-2.1.9-2.1 2-2.1 2 .9 2 2.1ZM309.1 34.3c0 1.1-.9 2.1-2 2.1s-2-.9-2-2.1.9-2.1 2-2.1 2 .9 2 2.1ZM261.1 46.2c0 1.1-.9 2.1-2 2.1s-2-.9-2-2.1.9-2.1 2-2.1 2 .9 2 2.1ZM273.1 46.2c0 1.1-.9 2.1-2 2.1s-2-.9-2-2.1.9-2.1 2-2.1 2 .9 2 2.1ZM285.1 46.2c0 1.1-.9 2.1-2 2.1s-2-.9-2-2.1.9-2.1 2-2.1 2 .9 2 2.1ZM297.1 46.2c0 1.1-.9 2.1-2 2.1s-2-.9-2-2.1.9-2.1 2-2.1 2 .9 2 2.1ZM309.1 46.2c0 1.1-.9 2.1-2 2.1s-2-.9-2-2.1.9-2.1 2-2.1 2 .9 2 2.1Z"/><ellipse cx="259.1" cy="58.2" rx="2" ry="2.1"/><path d="M273.1 58.2c0 1.1-.9 2.1-2 2.1s-2-.9-2-2.1.9-2.1 2-2.1 2 .9 2 2.1ZM285.1 58.2c0 1.1-.9 2.1-2 2.1s-2-.9-2-2.1.9-2.1 2-2.1 2 .9 2 2.1ZM297.1 58.2c0 1.1-.9 2.1-2 2.1s-2-.9-2-2.1.9-2.1 2-2.1 2 .9 2 2.1Z"/><ellipse cx="307.1" cy="58.2" rx="2" ry="2.1"/><path d="M261.1 70.2c0 1.1-.9 2.1-2 2.1s-2-.9-2-2.1.9-2.1 2-2.1 2 .9 2 2.1ZM273.1 70.2c0 1.1-.9 2.1-2 2.1s-2-.9-2-2.1.9-2.1 2-2.1 2 .9 2 2.1ZM285.1 70.2c0 1.1-.9 2.1-2 2.1s-2-.9-2-2.1.9-2.1 2-2.1 2 .9 2 2.1ZM297.1 70.2c0 1.1-.9 2.1-2 2.1s-2-.9-2-2.1.9-2.1 2-2.1 2 .9 2 2.1ZM309.1 70.2c0 1.1-.9 2.1-2 2.1s-2-.9-2-2.1.9-2.1 2-2.1 2 .9 2 2.1ZM261.1 82.1c0 1.1-.9 2.1-2 2.1s-2-.9-2-2.1.9-2.1 2-2.1 2 .9 2 2.1ZM273.1 82.1c0 1.1-.9 2.1-2 2.1s-2-.9-2-2.1.9-2.1 2-2.1 2 .9 2 2.1ZM285.1 82.1c0 1.1-.9 2.1-2 2.1s-2-.9-2-2.1.9-2.1 2-2.1 2 .9 2 2.1ZM297.1 82.1c0 1.1-.9 2.1-2 2.1s-2-.9-2-2.1.9-2.1 2-2.1 2 .9 2 2.1ZM309.1 82.1c0 1.1-.9 2.1-2 2.1s-2-.9-2-2.1.9-2.1 2-2.1 2 .9 2 2.1Z"/></g></g><path fill="#faf3e1" d="M108.1 141.3c-2.6 0-4.7 2.1-4.7 4.7s.3 2 .9 2.8l3.8 6.6 3.8-6.6c.6-.8.9-1.8.9-2.8 0-2.6-2.1-4.7-4.7-4.7Zm0 6.9c-1.2 0-2.1-.9-2.1-2.1s.9-2.1 2.1-2.1 2.1.9 2.1 2.1-.9 2.1-2.1 2.1Z"/><path fill="#495382" d="M335.4-.4v31.1l-106.9-.3V-.4h106.9z"/><g fill="#fff" data-name="PRINT"><path d="M30.4 14c0 .6-.2 1.1-.6 1.5L23 22.3l-7.2-4.2V14c0-1.2 1-2.1 2.1-2.1s2.1 1 2.1 2.1v5.2l6.7-6.7c.8-.8 2.2-.8 3 0 .4.4.6.9.6 1.5ZM29.8 33c-.4.4-.9.6-1.5.6s-.6 0-.8-.2c-.3-.1-.5-.3-.7-.5l-2.3-2.3-4.4-4.4v5.2c0 1.2-1 2.1-2.1 2.1s-2.1-1-2.1-2.1v-4.1l7.2-4.2 4.5 4.5 2.3 2.3c.8.8.8 2.2 0 3ZM22.7 22.6c0-.1-.1-.2-.2-.3l-1.8-1-4.9-2.8-4.1-2.4c-.2-.1-.5 0-.7.2V29c0 .3.2.5.5.5h.2l4.1-2.4 6.7-3.9s.1-.1.1-.2v-.3Zm-10.2-5 3.2 1.9 5.2 3s.1 0 .1.1v.3s0 .2-.2.2l-5.2 3-3.2 1.9c-.2.1-.4 0-.5-.1V18c0-.2.2-.4.4-.4h.2Z"/><path d="M19.6 22.8s0 .1-.1.2l-3.9 2.2-2.4 1.4c-.1 0-.3 0-.4-.1V19.1c0-.2.1-.3.3-.3h.1l2.4 1.4 3.9 2.2s.1 0 .1.2v.2ZM65.5 22.2l-6-3-3.7-1.8c-.2-.1-.5 0-.6.2v10.1c.1.2.4.4.6.4h.4l3.4-1.9 2.1-1.1 3.8-2s.2-.1.2-.2v-.2c0-.1-.1-.2-.2-.2Zm-6 3-2.8 1.5c-.2.1-.4 0-.5-.1v-7.8c0-.2 0-.3.3-.3h.1l2.8 1.4 1 .5 3.6 1.8s.1 0 .2.2v.2s0 .1-.1.1l-4.6 2.4Z"/><path d="M63 22.7s0 .1-.1.1l-3.4 1.8-2.1 1.1h-.3V19.8c0-.1 0-.2.2-.2l2.1 1.1 3.5 1.8.1.1v.1ZM39.9 17.5h-5.2v10.4h2.6v-3.4H40c2.5 0 4.3-1.5 4.3-3.6 0-2-1.9-3.5-4.4-3.4Zm-.2 4.9h-2.4v-2.9h2.4c1.2 0 2.1.5 2.1 1.4 0 .9-.8 1.5-2 1.5ZM54.1 27.9l-8.3.1-.1-10.3h2.5l.1 8.3 5.7-.1.1 2zM70.9 24v3.7h-2.5V24l-4.6-6.5h2.9l2.9 4.4 2.9-4.5h2.8L70.9 24zM86.2 28.2h-1.7l-4.4-4.7-1.8 1.7v3.1H77L76.9 18h1.3l.1 5.7 5.7-5.8h1.7L81 22.7l5.2 5.5zM92.6 17.7c-3.2 0-5.9 2.5-5.8 5.4 0 2.9 2.8 5.3 6 5.3s5.8-2.5 5.8-5.4c0-2.9-2.8-5.3-5.9-5.2Zm.4 9.6c-2.5.2-4.7-1.7-4.9-4.2.1-2.3 1.9-4.1 4.2-4.3 2.5-.2 4.7 1.7 4.9 4.2-.1 2.3-1.9 4.1-4.2 4.3ZM108.8 25.3c0 1.6-1.3 3-4 3-1.7 0-3.3-.5-4.5-1.6l.8-.9c1 1 2.4 1.5 3.8 1.4 1.8 0 2.7-.9 2.7-1.8 0-1.1-1.1-1.5-3.1-1.9-2.3-.5-3.8-1.1-3.8-2.9 0-1.6 1.6-3 3.8-3 1.5 0 2.9.5 4.1 1.4l-.8.9c-.9-.8-2.1-1.3-3.3-1.3-1.4 0-2.4.9-2.4 1.8 0 1.1 1.2 1.4 3.1 1.8 2.2.4 3.8 1.1 3.8 2.9ZM122.5 28.2h-1.3l-.1-7.8-4.2 7.3-4.3-7.2.1 7.8h-1.3l-.2-10.3h1.3l4.4 7.2 4.2-7.3h1.3l.1 10.3zM130.7 17.7c-3.2 0-5.9 2.5-5.8 5.4 0 2.9 2.8 5.3 6 5.3s5.9-2.5 5.8-5.4c0-2.9-2.8-5.3-5.9-5.2Zm.4 9.6c-2.5.2-4.7-1.7-4.9-4.2.1-2.3 1.9-4.1 4.2-4.3 2.5-.2 4.7 1.7 4.9 4.2-.1 2.3-1.9 4.1-4.2 4.3ZM146.9 25.3c0 1.6-1.3 3-4 3-1.7 0-3.3-.5-4.6-1.6l.8-.9c1 1 2.4 1.5 3.8 1.4 1.8 0 2.7-.9 2.6-1.8 0-1.1-1.1-1.5-3.1-1.9-2.3-.5-3.8-1.1-3.8-2.9 0-1.6 1.6-3 3.8-3 1.5 0 2.9.5 4.1 1.4l-.8.9c-.9-.8-2.1-1.3-3.3-1.3-1.4 0-2.4.9-2.4 1.8 0 1.1 1.2 1.4 3.1 1.8 2.2.4 3.8 1.1 3.8 2.9Z"/></g><path fill="#fff" d="M199.2 250.2h94.1v33.2h-94.1z"/><g fill="#fff"><path d="M274.6 186s-4.8 4-7.9 7.3c-3.1 3.2-7.7 7.4-7.7 7.4s-1.3 5.3-4.1 8.7-4.7 9-5.2 9.7c-.5.7-1.4 7.3-2.1 8.1-.7.7-3.7-.8-5-.8-1.3 0-4.6-.8-6.7-1.9s-1.5-2.6-1-2.7c.5-.1 6-.3 7.1-.8 1-.4 2.6-1.6 2.6-1.6s6.6-13.1 7.2-15.1c.6-2 2.4-7.9 3.3-10.3s5.4-11 5.4-11l14.1 3.3ZM264.6 239.9l-22.3-12.5M247.8 216.8l22.6 10.1"/><circle cx="211.1" cy="205.9" r="3.6"/><path d="M253 221.6a19.77 19.77 0 0 0 11.6 25.4c10.2 3.8 21.6-1.4 25.4-11.6 3.8-10.2-1.4-21.6-11.6-25.4a19.77 19.77 0 0 0-25.4 11.6Zm3 1.1a16.5 16.5 0 0 1 21.3-9.7c8.6 3.2 12.9 12.7 9.7 21.3s-12.7 12.9-21.3 9.7a16.5 16.5 0 0 1-9.7-21.3ZM192.5 199a19.77 19.77 0 0 0 11.6 25.4c10.2 3.8 21.6-1.4 25.4-11.6 3.8-10.2-1.4-21.6-11.6-25.4a19.77 19.77 0 0 0-25.4 11.6Zm3 1.1c3.2-8.6 12.7-12.9 21.3-9.7s12.9 12.7 9.7 21.3a16.5 16.5 0 0 1-21.3 9.7 16.5 16.5 0 0 1-9.7-21.3ZM238.4 220s.3.3.3.4c0 0-.4.1-.4.2 0 0 .3.3.3.4 0 0-.4.1-.4.2 0 0 .4.2.3.3 0 0-.4.2-.4.3 0 0 .4.2.4.3 0 0-.4.2-.4.3 0 0 .4.2.4.3 0 0-.3.3-.3.4 0 0 .4.1.4.2 0 0-.3.3-.3.4 0 0 .4 0 .4.2 0 0-.3.3-.2.4 0 0 .4 0 .5.1s-.3.3-.2.4h.5l-.2.4h.5s-.2.4-.1.5h.5s-.1.4 0 .5c0 0 .4-.1.5 0 0 0-.1.4 0 .5 0 0 .4-.2.5-.1v.5s.4-.2.5-.2v.5s.3-.2.4-.2c0 0 0 .4.1.5 0 0 .3-.3.4-.2s0 .4.2.4c0 0 .3-.3.4-.3 0 0 .1.4.2.4 0 0 .3-.3.4-.3 0 0 .1.4.2.4 0 0 .2-.4.3-.3 0 0 .2.4.3.4 0 0 .2-.4.3-.4 0 0 .2.4.3.4 0 0 .2-.4.3-.4 0 0 .3.3.4.3 0 0 .1-.4.2-.4 0 0 .3.3.4.3 0 0 0-.4.2-.4 0 0 .3.3.4.2 0 0 0-.4.1-.5 0 0 .3.3.4.2v-.5l.4.2v-.5s.4.2.5.1v-.5s.4.1.5 0c0 0-.1-.4 0-.5 0 0 .4.1.5 0 0 0-.2-.4-.1-.5h.5s-.2-.4-.2-.5h.5s-.2-.3-.2-.4c0 0 .4 0 .5-.1 0 0-.3-.3-.2-.4s.4 0 .4-.2c0 0-.3-.3-.3-.4 0 0 .4-.1.4-.2 0 0-.3-.3-.3-.4 0 0 .4-.1.4-.2 0 0-.4-.2-.3-.3 0 0 .4-.2.4-.3 0 0-.4-.2-.4-.3 0 0 .4-.2.4-.3 0 0-.4-.2-.4-.3 0 0 .3-.3.3-.4 0 0-.4-.1-.4-.2 0 0 .3-.3.3-.4 0 0-.4 0-.4-.2 0 0 .3-.3.2-.4 0 0-.4 0-.5-.1 0 0 .3-.3.2-.4h-.5l.2-.4h-.5s.2-.4.1-.5h-.5s.1-.4 0-.5c0 0-.4.1-.5 0 0 0 .1-.4 0-.5 0 0-.4.2-.5.1v-.5s-.4.2-.5.2v-.5s-.3.2-.4.2c0 0 0-.4-.1-.5 0 0-.3.3-.4.2s0-.4-.2-.4c0 0-.3.3-.4.3 0 0-.1-.4-.2-.4 0 0-.3.3-.4.3 0 0-.1-.4-.2-.4 0 0-.2.4-.3.3 0 0-.2-.4-.3-.4 0 0-.2.4-.3.4 0 0-.2-.4-.3-.4 0 0-.2.4-.3.4 0 0-.3-.3-.4-.3 0 0-.1.4-.2.4 0 0-.3-.3-.4-.3 0 0 0 .4-.2.4 0 0-.3-.3-.4-.2 0 0 0 .4-.1.5 0 0-.3-.3-.4-.2v.5l-.4-.2v.5s-.4-.2-.5-.1v.5s-.4-.1-.5 0c0 0 .1.4 0 .5 0 0-.4-.1-.5 0 0 0 .2.4.1.5h-.5s.2.4.2.5h-.5s.2.3.2.4c0 0-.4 0-.5.1 0 0 .3.3.2.4s-.4 0-.4.2Zm1.6.3a4.66 4.66 0 1 1 8.7 3.32 4.66 4.66 0 0 1-8.7-3.32Z"/><circle cx="244.3" cy="221.9" r="3.5"/><path d="M243.4 221.6c.2-.5.7-.7 1.2-.5s.7.7.5 1.2-.7.7-1.2.5-.7-.7-.5-1.2ZM263.22 196.75l1.37-.33 7.65 31.9-1.36.32z"/><path d="m251.6 165.5-7.3 13.6-10.8 2.6s-1.8-.4-2.5-.5c-.7 0-2.3-.3-4-1.5-1.7-1.1-.4-3.8 0-3.9s3.3.9 3.3.9 1.6.7 4.3-.2c2.8-.9 6.1-2 6.1-2s1.9-4.3 4.5-7.9c2.5-3.6 4.4-5.3 4.4-5.3 2.8-1 2 4 2 4ZM227.9 191l1.6-1.8 13.6 32.2 1.7-.7-.3-.6 1.4 1.1 25-31.6-1.4-1.1-5.7 7.3-29.3-12.2.4-.5-1.4-1.2-7 8.1 1.4 1.2Zm2.9-3.3 2.4-2.8 29.4 12.3-18.1 22.9-13.7-32.3Z"/><path d="m226.5 189.7 1.4 1.2 1.6-1.8 13.6 32.2 1.7-.7-.3-.6 1.4 1.1 20.6-26.1-1.4-1.1-1.4 1.8-29.3-12.2.4-.5-1.4-1.2-7 8.1Zm4.3-2.2 2.4-2.8 29.4 12.3-18.1 22.9-13.7-32.3Z"/><path d="m244.23 222.85.46-1.74 27.17 7.18-.46 1.74zM275.1 188.2l-1.7.8-4.6-1.5-1.7-3M272.4 188.9l-.6.9-.9-.4-1.4-1.1-.1-.5 3 1.1z"/><path d="M278.9 187.4s-.5.9-.7 1c-.2.1-3.5.5-6.1-.9s-4-2.1-5.7-2.8-3.1-.1-3-.8c.1-.7 2.4-1 3.4-.7 1 .3 4.3 2.1 6.1 2.7s6.6.5 5.9 1.5ZM211.6 204.4l7.5-5 7.5-9.7 1.4 1.2s-7.3 8.9-7.8 9.3c-.5.4-6.2 4.2-7.5 5.2.1.3.1.7 0 1.1-.3.8-1.2 1.3-2.1 1s-1.3-1.2-1-2.1 1.2-1.3 2.1-1ZM234.9 182.8l4.9-5.5-1.4-1.3-4.9 5.7 1.4 1.1zM238.4 176l-3.5-2.9c-.5-.5-1.3-.5-1.7 0-.4.5-.4 1.2 0 1.6l3.5 3 1.6-1.7Z"/><path d="M234.1 182.8c.4.1.8 0 1.1-.4.3-.4.1-1-.3-1.3l-8.2-5.3c-.8-.5-1.1-1.5-.8-2.3s1.5-1.5 2.5-1.1l5.4 2c.5.2 1 0 1.2-.5s0-1-.5-1.2l-5.4-2c-1.9-.7-4.1.3-4.8 2.2s0 3.5 1.5 4.5l8.2 5.3h.2Z"/><path d="M231 171.8s-2.5-1.3-3.2-2.9c-.7-1.6-.3-2.4-.5-2.4s-2.8 1.9-3.1 2.6c-.3.7-.6 1.9-1.1 2.9-.5 1-1.2 1.3-1.6 1.3-.3 0-.6.5-.4.6s1 .4 2.2-1.4c1.2-1.7.7-2.9 1.5-2.9.9 0 1.6 1.5 1.6 1.7 0 .1 3.1 0 4.6.6Z"/><circle cx="271.5" cy="228.5" r="3.9" transform="rotate(-56.3 271.71 228.56)"/><path d="m274.6 230.7.2 1.4-6 2.1-.6-.5s-.6.6-.9 1.7c-.3 1.1-1 5.7-1 5.7l-1.8-1s0-.7.3-1.1c.3-.4.9-.5.9-.5l.2-4.6 2.4-2.4s1.7-.6 2.7-.5h3.4ZM245.2 223.3l6.4-8.7-.9-.7-7.5 7.7c-.3.4-.3 1 .1 1.3l.6.5c.4.3 1 .3 1.3-.1ZM240.8 148.9s.2 1.2 0 1.6c-.3.4-1.4 1.7-1.3 2 0 .3 1 1 1 1s.3 1.9.7 3.1c.5 1.2 1.5 1.8 2.2 1.7.7-.1 1.3-.4 1.3-.4h1.2l2.2 1.7s5.7-6.4 5.9-6.9c.1-.5-.1-2.1-.1-2.1l.7-1.2-13.7-.4Z"/><path d="M253.9 152.7s-1.5.3-2.6-.5-2.5-1-2.8-1c-.3 0-1.5 1-2.1.7-.6-.3-.5-1.6-.6-1.8-.1-.2-.1-.6-.1-.6l8.3.5s.4 1.7-.1 2.8Z"/><path d="M254.3 141.4s1.3 0 1.9.3c.6.3 1.2 1.1.8 1.8s-.6.9-.8 1.6c-.2.7.4 1 0 2-.3.9-1.1 2.6-1.7 3-.6.4-7.8 0-9.4-.2s-4.4-.5-5.2-1.4c-.7-.9-.4-3.6 2.1-6.3 2.5-2.6 6.4-2.8 8-2.4 1.6.4 3.7 1.4 4.1 1.5Z"/><path d="M240.7 147.2s.7-1.8 2.6-3.6c1.9-1.7 3.6-1.8 3.7-1.4 0 .4-2.6 2-3.7 2.8-1.1.9-2.6 2.4-2.6 2.2ZM248.1 141.2l-.5 1.4s2.5-.9 3.1-.9 1.8-.1 1.8-.1-1.5-1.6-4.4-.4ZM241.9 147s2.7-2 3.8-2.4c1.1-.3.8 0 .2.5-.7.5-3.9 1.9-3.9 1.9ZM248 143.9l-.8.8s2.8-.6 3.7-1c.9-.4.4-.8-.4-.7-.7.1-2.5.9-2.5.9ZM252.6 142.8l-.6.8s1.4-.4 2.4-.5c1-.2.9-.6.5-.7-.5-.1-1.7-.4-2.3.4ZM241.6 148.3s1.5-.8 2.8-1c1.3-.2 3.4 0 3.4 0s-1.1 1.3-2.1 1.4c-1 .2-4.1-.3-4.1-.3ZM247.6 148.5s.4-.8 1.2-1.2c.9-.3 3.1-1 2.8-.5-.3.5-1.2 1.1-2.1 1.3l-1.9.4ZM250.8 145.6s4.8-2 4.7-1.5-.2 1.2-.9 1.4c-.7.2-3.7 0-3.7 0ZM242.1 154.2s-.2.6-1.1.5M247.9 151.3l-3.2-.5s-2.4.7-2.8.7c-.4 0-1.1-1-1.1-1l.4-1.3 3.3.7.4.4 3.8.5-.8.5Z"/><path d="M248 149.9s-1.1 4.7-1.6 6.1c-.5 1.4-.9 2-.9 2h-.9s1-2 1.5-4.5.6-3.4.6-3.4l1.3-.2ZM254 151.9s-3 1.7-6.8 2.1l.2-.9s4.7-.6 6.6-1.8v.6Z"/><path d="M247.4 151.8s1.5-1.6 2.4-.9.5 2.3-.2 2.9-2.1.2-2.4-.3M278.8 170.7s3.1 2.4 3.8 5.9c.8 3.5-2.7 8.6-4.1 9.5-1.4.9-10.1 2-15.3 1.3-5.2-.7-11.3-1.6-11.3-1.6 1.5 1 3.9 4.3 5 12.9.3 2.4 2.9 8.1 2.9 8.1s2.1 3.5 1.8 4.7c-.3 1.2-3.9 1.4-5.2 1.6-1.3.2-4.9 1.7-7.5 1.8-2.6 0-3.7-.8-3.2-1.7.6-.9 5-3.4 6.2-4.8 1.1-1.5 1.5-2.5 1.5-2.5s-4.6-9.8-6.7-14.1c-1.8-3.6-3-9.2-3-10.2 0-.9 1.7-3.9 3.9-4.3 2.2-.3 18.6-1.5 18.6-1.5l2.9.2 9.6-5.1Z"/><path d="M257.8 202.4c.9 2.2 2.1 4.3 2.1 4.3s2.1 3.5 1.8 4.7c-.3 1.2-3.9 1.4-5.2 1.6s-4.9 1.7-7.5 1.8c-2.6 0-3.7-.8-3.2-1.7.6-.9 5-3.4 6.2-4.8 1.1-1.5 1.5-2.5 1.5-2.5s-.2-.5-.6-1.3c2.2 0 4-1.3 4.8-2.1Z"/><path d="m253.2 206.3.3-.6s-.2-.5-.6-1.3c2.2 0 4-1.3 4.8-2.1.3.8.6 1.5 1 2.2-1 .8-2.9 1.8-5.5 1.8ZM269.2 175.8l9.6-5.1s3.1 2.4 3.8 5.9c.8 3.5-2.7 8.6-4.1 9.5-1.4.9-10.1 2-15.3 1.3-1.5-.2-3.1-.4-4.7-.7-1.4-3.6-1.5-8.1-1.5-10.4 4.6-.4 9.2-.7 9.2-.7l2.9.2Z"/><path d="M275.8 178.3s-3-2.2-4.4-2.4M275.5 177.1s-1.6-1.2-3.7-1.9M260.8 187l-2.1-.3c-1.4-3.6-1.5-8.1-1.5-10.4.7 0 1.4-.1 2.1-.2 0 2.3.2 7.2 1.6 10.9ZM253.6 213.5l.7 2.3-.6.7-5.3-1.1-.4-1.2 5.6-.7z"/><path d="M252 208.2c.4-.5.7-.9.9-1.3s.6 0 .9.7c.4.7.7 1 .7 1s2.1.3 3.7-.9c.6-.4 1.1-.9 1.4-1.4 0 .1.1.2.1.2s2.1 3.5 1.8 4.7c-.3 1.2-3.9 1.4-5.2 1.6s-4.9 1.7-7.5 1.8c-2.6 0-3.7-.8-3.2-1.7.6-.9 5-3.4 6.2-4.8ZM254 151.9s2.2-.6 10.2 4.9c8 5.5 14.4 12.4 15.2 13.3.7.9.2 1.3-.2 1.6s-8.6 4-10.9 4.1c-2.4 0-6.5-2.3-9.7-3.4s-8.2-3-9.5-5.2c-1.4-2.2-.7-5.9-.7-5.9l-1-2.1 6.7-7.3Z"/><path d="m271.1 174.2-3.3 1-6.3-2.7c-2.8-1.2-3.6-2.4-5.5-3.2-2-.8-3.1-1.1-3.1-1.1l1-3.3 3.7 2s5.3 3.6 7 4.3 6.5 3 6.5 3Z"/><path d="M260.2 165.2s-3.3 2.2-5.4 2M272.5 168s-.3 3.7-8.2 4.4M242.6 208.37l-1.39.56c-.74.3-1.65-.08-1.95-.82l-2.37-5.84c-.3-.74.08-1.65.82-1.95l1.4-.57c.73-.3 1.65.09 1.95.83l2.37 5.84c.3.74-.09 1.65-.83 1.95ZM236.4 200l3.6-1.5c.2 0 .2-.2.2-.4l-.9-2.3c0-.2-.3-.4-.5-.4l-.6-.3-2.6 1.1-.4.7c-.2 0-.1.4 0 .6l.9 2.3c0 .2.2.2.4.2Z"/><path d="m240.23 199.41-3.43 1.4-.26-.65 3.43-1.4zM238.2 195.34l-2.6 1.05-.37-.93 2.6-1.05z"/><path d="m237.37 194.72-1.67.68-.15-.37 1.67-.68zM236.99 201.96l4.17-1.7 2 4.92-4.18 1.69z"/><path d="m237 202.2 1.7 4.2 2.3-1c.2 0 .3-.3.2-.6l-1.4-3.4c0-.2-.3-.3-.6-.2l-2.3 1Zm2 3.2-1.1-2.8 1.2-.5c.2 0 .5 0 .6.2l.8 2c0 .2 0 .5-.2.6l-1.2.5ZM253.1 153.1s-1.4 1.8-1.7 2.8-1 3-1.4 3.5c-.5.5-1.6 1.9-1.6 1.9l-1-2.1 5.8-6.1Z"/><path d="M256.2 164.7s-1.9 1.1-2.1 1.5c-.3.4-1.2 4.5-2.1 5.8-.9 1.3-2.3 3.1-4.3 5.1-2 2.1-2.9 4.3-3.1 4.4s-7.8.1-7.8.1-1.7-.1-2.3.1c-.6.3-1 .3-1.6.5-.5.2-2.8 0-3.4 0-.7 0-1-.2-1.8-.8-.8-.6-1.4-2.7-1.5-3 0-.2.6-1.1.6-1.1s-.3-.3-.3-.8c0-.6.4-.8.5-.8.2 0 2.8.7 3.3.9.4.3 2.2 2 2.2 2l2.6-.5 7-2.7s1.6-4 2.5-5.4l1.5-2.6s.6-3.5 1.7-5.5c1-2 3.5-2.8 3.7-2.9"/><path d="M227.1 175.8c.2 0 2.8.7 3.3.9s2.2 2 2.2 2l2.6-.5 7-2.7s1.6-4 2.5-5.4c.3-.5.5-.9.7-1.3l7 2.7c0 .2-.2.3-.3.5-.9 1.3-2.3 3.1-4.3 5.1-2 2.1-2.9 4.3-3.1 4.4-2.6.3-5.1.3-7.7.4-2.5.1-5 .7-7.4.4-.7 0-1-.2-1.8-.8-.8-.6-1.4-2.7-1.5-3 0-.2.6-1.1.6-1.1s-.3-.3-.3-.8c0-.6.4-.8.5-.8Z"/><path d="M231.8 180.3c-.1.6.4 1.7.6 2.1h-2.8c-.7 0-1-.2-1.8-.8-.8-.6-1.4-2.7-1.5-3 0-.2.6-1.1.6-1.1s-.3-.3-.3-.8c0-.6.4-.8.5-.8.2 0 2.8.7 3.3.9s2.2 2 2.2 2-.6.8-.8 1.5Z"/></g><g fill="#fff"><path d="M315.1 189s-4.8 4-7.9 7.3c-3.1 3.2-7.7 7.4-7.7 7.4s-1.3 5.3-4.1 8.7-4.7 9-5.2 9.7c-.5.7-1.4 7.3-2.1 8.1-.7.7-3.7-.8-5-.8-1.3 0-4.6-.8-6.7-1.9-2.1-1.1-1.5-2.6-1-2.7.5-.1 6-.3 7.1-.8 1-.4 2.6-1.6 2.6-1.6s6.6-13.1 7.2-15.1c.6-2 2.4-7.9 3.3-10.3.9-2.4 5.4-11 5.4-11l14.1 3.3ZM305.1 243l-22.4-12.6M288.3 219.8l22.6 10.1"/><circle cx="251.6" cy="208.9" r="3.6"/><path d="M293.5 224.6a19.77 19.77 0 0 0 11.6 25.4c10.2 3.8 21.6-1.4 25.4-11.6s-1.4-21.6-11.6-25.4-21.6 1.4-25.4 11.6Zm3 1.1a16.5 16.5 0 0 1 21.3-9.7 16.5 16.5 0 0 1 9.7 21.3 16.5 16.5 0 0 1-21.3 9.7 16.5 16.5 0 0 1-9.7-21.3ZM232.9 202a19.77 19.77 0 0 0 11.6 25.4c10.2 3.8 21.6-1.4 25.4-11.6 3.8-10.2-1.4-21.6-11.6-25.4a19.77 19.77 0 0 0-25.4 11.6Zm3 1.1a16.5 16.5 0 0 1 21.3-9.7 16.5 16.5 0 0 1 9.7 21.3 16.5 16.5 0 0 1-21.3 9.7 16.5 16.5 0 0 1-9.7-21.3ZM278.8 223.1s.3.3.3.4c0 0-.4.1-.4.2 0 0 .3.3.3.4 0 0-.4.1-.4.2 0 0 .4.2.3.3 0 0-.4.2-.4.3 0 0 .4.2.4.3 0 0-.4.2-.4.3 0 0 .4.2.4.3 0 0-.3.3-.3.4 0 0 .4.1.4.2 0 0-.3.3-.3.4 0 0 .4 0 .4.2 0 0-.3.3-.2.4 0 0 .4 0 .5.1s-.3.3-.2.4h.5l-.2.4h.5s-.2.4-.1.5h.5s-.1.4 0 .5c0 0 .4-.1.5 0 0 0-.1.4 0 .5 0 0 .4-.2.5-.1v.5s.4-.2.5-.2v.5s.3-.2.4-.2c0 0 0 .4.1.5 0 0 .3-.3.4-.2s0 .4.2.4c0 0 .3-.3.4-.3 0 0 .1.4.2.4 0 0 .3-.3.4-.3 0 0 .1.4.2.4 0 0 .2-.4.3-.3 0 0 .2.4.3.4 0 0 .2-.4.3-.4 0 0 .2.4.3.4 0 0 .2-.4.3-.4 0 0 .3.3.4.3 0 0 .1-.4.2-.4 0 0 .3.3.4.3 0 0 0-.4.2-.4 0 0 .3.3.4.2 0 0 0-.4.1-.5 0 0 .3.3.4.2v-.5l.4.2v-.5s.4.2.5.1v-.5s.4.1.5 0c0 0-.1-.4 0-.5 0 0 .4.1.5 0 0 0-.2-.4-.1-.5h.5s-.2-.4-.2-.5h.5s-.2-.3-.2-.4c0 0 .4 0 .5-.1 0 0-.3-.3-.2-.4s.4 0 .4-.2c0 0-.3-.3-.3-.4 0 0 .4-.1.4-.2 0 0-.3-.3-.3-.4 0 0 .4-.1.4-.2 0 0-.4-.2-.3-.3 0 0 .4-.2.4-.3 0 0-.4-.2-.4-.3 0 0 .4-.2.4-.3 0 0-.4-.2-.4-.3 0 0 .3-.3.3-.4 0 0-.4-.1-.4-.2 0 0 .3-.3.3-.4 0 0-.4 0-.4-.2 0 0 .3-.3.2-.4 0 0-.4 0-.5-.1 0 0 .3-.3.2-.4h-.5l.2-.4h-.5s.2-.4.1-.5h-.5s.1-.4 0-.5c0 0-.4.1-.5 0 0 0 .1-.4 0-.5 0 0-.4.2-.5.1v-.5s-.4.2-.5.2v-.5s-.3.2-.4.2c0 0 0-.4-.1-.5 0 0-.3.3-.4.2s0-.4-.2-.4c0 0-.3.3-.4.3 0 0-.1-.4-.2-.4 0 0-.3.3-.4.3 0 0-.1-.4-.2-.4 0 0-.2.4-.3.3 0 0-.2-.4-.3-.4 0 0-.2.4-.3.4 0 0-.2-.4-.3-.4 0 0-.2.4-.3.4 0 0-.3-.3-.4-.3 0 0-.1.4-.2.4 0 0-.3-.3-.4-.3 0 0 0 .4-.2.4 0 0-.3-.3-.4-.2 0 0 0 .4-.1.5 0 0-.3-.3-.4-.2v.5l-.4-.2v.5s-.4-.2-.5-.1v.5s-.4-.1-.5 0c0 0 .1.4 0 .5 0 0-.4-.1-.5 0 0 0 .2.4.1.5h-.5s.2.4.2.5h-.5s.2.3.2.4c0 0-.4 0-.5.1 0 0 .3.3.2.4s-.4 0-.4.2Zm1.6.3a4.66 4.66 0 1 1 8.7 3.32 4.66 4.66 0 0 1-8.7-3.32Z"/><circle cx="284.7" cy="224.9" r="3.5"/><path d="M283.9 224.6c.2-.5.7-.7 1.2-.5s.7.7.5 1.2-.7.7-1.2.5-.7-.7-.5-1.2ZM303.7 199.71l1.37-.33 7.65 31.9-1.36.33z"/><path d="m292.1 168.5-7.3 13.6-10.8 2.6s-1.8-.4-2.5-.5c-.7 0-2.3-.3-4-1.5-1.7-1.1-.4-3.8 0-3.9s3.3.9 3.3.9 1.6.7 4.3-.2c2.8-.9 6.1-2 6.1-2s1.9-4.3 4.5-7.9c2.5-3.6 4.4-5.3 4.4-5.3 2.8-1 2 4 2 4ZM268.4 194l1.6-1.8 13.6 32.2 1.7-.7-.3-.6 1.4 1.1 25-31.6-1.4-1.1-5.7 7.3-29.3-12.2.4-.5-1.4-1.2-7 8.1 1.4 1.2Zm2.9-3.3 2.4-2.8 29.4 12.3-18.1 22.9-13.7-32.3Z"/><path d="m267 192.7 1.4 1.2 1.6-1.8 13.6 32.2 1.7-.7-.3-.6 1.4 1.1L307 198l-1.4-1.1-1.4 1.8-29.3-12.2.4-.5-1.4-1.2-7 8.1Zm4.3-2.2 2.4-2.8 29.4 12.3-18.1 22.9-13.7-32.3ZM284.65 225.96l.46-1.74 27.17 7.18-.46 1.74zM315.5 191.2l-1.6.8-4.7-1.4-1.7-3.1"/><path d="m312.8 191.9-.5.9-1-.3-1.4-1.2v-.5l2.9 1.1zM319.3 190.4s-.5.9-.7 1c-.2.1-3.5.5-6.1-.9s-4-2.1-5.7-2.8-3.1-.1-3-.8c.1-.7 2.4-1 3.4-.7 1 .3 4.3 2.1 6.1 2.7s6.6.5 5.9 1.5ZM252 207.4l7.5-5 7.5-9.7 1.4 1.2s-7.3 8.9-7.8 9.3c-.5.4-6.2 4.2-7.5 5.2.1.3.1.7 0 1.1-.3.8-1.2 1.3-2.1 1s-1.3-1.2-1-2.1 1.2-1.3 2.1-1ZM275.3 185.9l5-5.6-1.5-1.3-4.8 5.7 1.3 1.2zM278.8 179l-3.5-2.9c-.5-.5-1.3-.5-1.7 0-.4.5-.4 1.2 0 1.6l3.5 3 1.6-1.7Z"/><path d="M274.6 185.8c.4.1.8 0 1.1-.4.3-.4.1-1-.3-1.3l-8.2-5.3c-.8-.5-1.1-1.5-.8-2.3s1.5-1.5 2.5-1.1l5.4 2c.5.2 1 0 1.2-.5s0-1-.5-1.2l-5.4-2c-1.9-.7-4.1.3-4.8 2.2s0 3.5 1.5 4.5l8.2 5.3h.2Z"/><path d="M271.5 174.8s-2.5-1.3-3.2-2.9c-.7-1.6-.3-2.4-.5-2.4s-2.8 1.9-3.1 2.6c-.3.7-.6 1.9-1.1 2.9-.5 1-1.2 1.3-1.6 1.3-.3 0-.6.5-.4.6s1 .4 2.2-1.4c1.2-1.7.7-2.9 1.5-2.9.9 0 1.6 1.5 1.6 1.7 0 .1 3.1 0 4.6.6Z"/><circle cx="312" cy="231.5" r="3.9" transform="rotate(-56.3 312.17 231.58)"/><path d="m315.1 233.7.2 1.4-6 2.1-.6-.5s-.6.6-.9 1.7c-.3 1.1-1 5.7-1 5.7l-1.8-1s0-.7.3-1.1c.3-.4.9-.5.9-.5l.2-4.6 2.4-2.4s1.7-.6 2.7-.5h3.4ZM285.6 226.3l6.4-8.7-.9-.7-7.5 7.7c-.3.4-.3 1 .1 1.3l.6.5c.4.3 1 .3 1.3-.1ZM281.2 152s.2 1.2 0 1.6c-.3.4-1.4 1.7-1.3 2 0 .3 1 1 1 1s.3 1.9.7 3.1c.5 1.2 1.5 1.8 2.2 1.7.7-.1 1.3-.4 1.3-.4h1.2l2.2 1.7s5.7-6.4 5.9-6.9c.1-.5-.1-2.1-.1-2.1l.7-1.2-13.7-.4Z"/><path d="M294.4 155.7s-1.5.3-2.6-.5-2.5-1-2.8-1c-.3 0-1.5 1-2.1.7-.6-.3-.5-1.6-.6-1.8-.1-.2-.1-.6-.1-.6l8.3.5s.4 1.7-.1 2.8Z"/><path d="M294.8 144.4s1.3 0 1.9.3c.6.3 1.2 1.1.8 1.8s-.6.9-.8 1.6c-.2.7.4 1 0 2s-1.1 2.6-1.7 3c-.6.4-7.8 0-9.4-.2s-4.4-.5-5.2-1.4c-.7-.9-.4-3.6 2.1-6.3 2.5-2.6 6.4-2.8 8-2.4 1.6.4 3.7 1.4 4.1 1.5Z"/><path d="M281.1 150.3s.7-1.8 2.6-3.6c1.9-1.7 3.6-1.8 3.7-1.4 0 .4-2.6 2-3.7 2.8-1.1.9-2.6 2.4-2.6 2.2ZM288.6 144.3l-.5 1.4s2.5-.9 3.1-.9 1.8-.1 1.8-.1-1.5-1.6-4.4-.4ZM282.4 150s2.7-2 3.8-2.4c1.1-.3.8 0 .2.5-.7.5-3.9 1.9-3.9 1.9ZM288.4 146.9l-.8.8s2.8-.6 3.7-1c.9-.4.4-.8-.4-.7-.7.1-2.5.9-2.5.9ZM293.1 145.9l-.6.8s1.4-.4 2.4-.5c1-.2.9-.6.5-.7-.5-.1-1.7-.4-2.3.4ZM282.1 151.3s1.5-.8 2.8-1c1.3-.2 3.4 0 3.4 0s-1.1 1.3-2.1 1.4c-1 .2-4.1-.3-4.1-.3ZM288 151.5s.4-.8 1.2-1.2c.9-.3 3.1-1 2.8-.5-.3.5-1.2 1.1-2.1 1.3l-1.9.4ZM291.2 148.6s4.8-2 4.7-1.5-.2 1.2-.9 1.4c-.7.2-3.7 0-3.7 0ZM282.6 157.2s-.2.6-1.1.5M288.3 154.3l-3.2-.5s-2.4.7-2.8.7c-.4 0-1.1-1-1.1-1l.4-1.3 3.3.7.4.4 3.8.5-.8.5Z"/><path d="M288.4 152.9s-1.1 4.7-1.6 6.1c-.5 1.4-.9 2-.9 2h-.9s1-2 1.5-4.5.6-3.4.6-3.4l1.3-.2ZM294.4 155s-3 1.7-6.8 2.1l.2-.9s4.7-.6 6.6-1.8v.6Z"/><path d="M287.8 154.8s1.5-1.6 2.4-.9.5 2.3-.2 2.9-2.1.2-2.4-.3M319.2 173.7s3.1 2.4 3.8 5.9c.8 3.5-2.7 8.6-4.1 9.5-1.4.9-10.1 2-15.3 1.3-5.2-.7-11.3-1.6-11.3-1.6 1.5 1 3.9 4.3 5 12.9.3 2.4 2.9 8.1 2.9 8.1s2.1 3.5 1.8 4.7c-.3 1.2-3.9 1.4-5.2 1.6-1.3.2-4.9 1.7-7.5 1.8-2.6 0-3.7-.8-3.2-1.7.6-.9 5-3.4 6.2-4.8 1.1-1.5 1.5-2.5 1.5-2.5s-4.6-9.8-6.7-14.1c-1.8-3.6-3-9.2-3-10.2 0-.9 1.7-3.9 3.9-4.3 2.2-.3 18.6-1.5 18.6-1.5l2.9.2 9.6-5.1Z"/><path d="M298.2 205.4c.9 2.2 2.1 4.3 2.1 4.3s2.1 3.5 1.8 4.7c-.3 1.2-3.9 1.4-5.2 1.6s-4.9 1.7-7.5 1.8c-2.6 0-3.7-.8-3.2-1.7.6-.9 5-3.4 6.2-4.8 1.1-1.5 1.5-2.5 1.5-2.5s-.2-.5-.6-1.3c2.2 0 4-1.3 4.8-2.1Z"/><path d="m293.7 209.3.3-.6s-.2-.5-.6-1.3c2.2 0 4-1.3 4.8-2.1.3.8.6 1.5 1 2.2-1 .8-2.9 1.8-5.5 1.8ZM309.7 178.9l9.6-5.1s3.1 2.4 3.8 5.9c.8 3.5-2.7 8.6-4.1 9.5s-10.1 2-15.3 1.3c-1.5-.2-3.1-.4-4.7-.7-1.4-3.6-1.5-8.1-1.5-10.4 4.6-.4 9.2-.7 9.2-.7l2.9.2Z"/><path d="M316.2 181.3s-3-2.2-4.4-2.4M316 180.2s-1.6-1.2-3.7-1.9M301.2 190.1l-2.1-.3c-1.4-3.6-1.5-8.1-1.5-10.4.7 0 1.4-.1 2.1-.2 0 2.3.2 7.2 1.6 10.9ZM294 216.5l.7 2.3-.6.8-5.3-1.1-.4-1.3 5.6-.7z"/><path d="M292.4 211.2c.4-.5.7-.9.9-1.3s.6 0 .9.7c.4.7.7 1 .7 1s2.1.3 3.7-.9c.6-.4 1.1-.9 1.4-1.4 0 .1.1.2.1.2s2.1 3.5 1.8 4.7c-.3 1.2-3.9 1.4-5.2 1.6s-4.9 1.7-7.5 1.8c-2.6 0-3.7-.8-3.2-1.7.6-.9 5-3.4 6.2-4.8ZM294.4 155s2.2-.6 10.2 4.9c8 5.5 14.4 12.4 15.2 13.3.7.9.2 1.3-.2 1.6s-8.6 4-10.9 4.1c-2.4 0-6.5-2.3-9.7-3.4s-8.2-3-9.5-5.2c-1.4-2.2-.7-5.9-.7-5.9l-1-2.1 6.7-7.3Z"/><path d="m311.6 177.2-3.3 1-6.3-2.7c-2.8-1.2-3.6-2.4-5.5-3.2-2-.8-3.1-1.1-3.1-1.1l1-3.3 3.7 2s5.3 3.6 7 4.3 6.5 3 6.5 3Z"/><path d="M300.6 168.2s-3.3 2.2-5.4 2M312.9 171.1s-.3 3.7-8.2 4.4M283.05 211.43l-1.4.56c-.73.3-1.64-.08-1.94-.82l-2.38-5.84c-.3-.74.09-1.65.83-1.95l1.39-.57c.74-.3 1.65.09 1.95.83l2.37 5.83c.3.75-.08 1.66-.82 1.96ZM276.9 203l3.6-1.5c.2 0 .2-.2.2-.4l-.9-2.3c0-.2-.3-.4-.5-.4l-.6-.3-2.6 1.1-.4.7c-.2 0-.1.4 0 .6l.9 2.3c0 .2.2.2.4.2Z"/><path d="m280.64 202.38-3.43 1.39-.26-.65 3.43-1.4zM278.65 198.5l-2.6 1.05-.37-.93 2.59-1.05zM277.68 197.69l-1.67.67-.15-.37 1.67-.67zM277.48 205.1l4.17-1.7 2 4.91-4.18 1.7z"/><path d="m277.4 205.3 1.7 4.2 2.3-1c.2 0 .3-.3.2-.6l-1.4-3.4c0-.2-.3-.3-.6-.2l-2.3 1Zm2 3.2-1.1-2.8 1.2-.5c.2 0 .5 0 .6.2l.8 2c0 .2 0 .5-.2.6l-1.2.5ZM293.6 156.1s-1.4 1.8-1.7 2.8-1 3-1.4 3.5c-.5.5-1.6 1.9-1.6 1.9l-1-2.1 5.8-6.1Z"/><path d="M296.7 167.7s-1.9 1.1-2.1 1.5c-.3.4-1.2 4.5-2.1 5.8-.9 1.3-2.3 3.1-4.3 5.1-2 2.1-2.9 4.3-3.1 4.4s-7.8.1-7.8.1-1.7-.1-2.3.1c-.6.3-1 .3-1.6.5-.5.2-2.8 0-3.4 0-.7 0-1-.2-1.8-.8-.8-.6-1.4-2.7-1.5-3 0-.2.6-1.1.6-1.1s-.3-.3-.3-.8c0-.6.4-.8.5-.8.2 0 2.8.7 3.3.9.4.3 2.2 2 2.2 2l2.6-.5 7-2.7s1.6-4 2.5-5.4l1.5-2.6s.6-3.5 1.7-5.5c1-2 3.5-2.8 3.7-2.9"/><path d="M267.5 178.9c.2 0 2.8.7 3.3.9s2.2 2 2.2 2l2.6-.5 7-2.7s1.6-4 2.5-5.4c.3-.5.5-.9.7-1.3l7 2.7c0 .2-.2.3-.3.5-.9 1.3-2.3 3.1-4.3 5.1-2 2.1-2.9 4.3-3.1 4.4-2.6.3-5.1.3-7.7.4-2.5.1-5 .7-7.4.4-.7 0-1-.2-1.8-.8-.8-.6-1.4-2.7-1.5-3 0-.2.6-1.1.6-1.1s-.3-.3-.3-.8c0-.6.4-.8.5-.8Z"/><path d="M272.2 183.3c-.1.6.4 1.7.6 2.1H270c-.7 0-1-.2-1.8-.8-.8-.6-1.4-2.7-1.5-3 0-.2.6-1.1.6-1.1s-.3-.3-.3-.8c0-.6.4-.8.5-.8.2 0 2.8.7 3.3.9s2.2 2 2.2 2-.6.8-.8 1.5Z"/></g><path fill="#fff" d="M45.7 245.4h85v85h-85z"/><g fill="#111836"><path d="M121.5 315.3v6.1c0 1.5-1.3 2.8-2.8 2.8H105c-1.5 0-2.8-1.3-2.8-2.8v-13.7c0-1.5 1.3-2.8 2.8-2.8h6.2c.4 0 .8.3.8.8s-.3.8-.8.8h-5.9c-.9 0-1.7.8-1.7 1.7v13c0 .9.8 1.7 1.7 1.7h13c.9 0 1.7-.8 1.7-1.7v-5.8c0-.4.3-.8.8-.8.4 0 .8.3.8.8ZM122.42 304.04a3.16 3.16 0 0 1 0 4.52l-.35.36-4.53-4.53.36-.35a3.16 3.16 0 0 1 4.52 0Z"/><path d="m121.3 309.7-6.8 6.8h-.3l-4.4.6c-.2 0-.5-.2-.5-.5l.6-4.4v-.3l6.8-6.8 4.5 4.5Z"/></g></svg>