<svg id="bc90474b-f64b-48db-9be0-d148ee915504" data-name="Layer 1" xmlns="http://www.w3.org/2000/svg" xmlns:xlink="http://www.w3.org/1999/xlink" width="335" height="335" viewBox="0 0 335 335">
  <defs>
    <clipPath id="e5d868aa-02e5-46a2-941a-8c9cb20ef23b">
      <rect width="335" height="335" fill="none"/>
    </clipPath>
    <linearGradient id="b3246496-27db-4353-b452-25c15e4cf021" x1="167.5" y1="219.89" x2="167.5" gradientUnits="userSpaceOnUse">
      <stop offset="0" stop-color="#414042"/>
      <stop offset="1" stop-color="#010101"/>
    </linearGradient>
  </defs>
  <g>
    <g clip-path="url(#e5d868aa-02e5-46a2-941a-8c9cb20ef23b)">
      <g>
        <polygon points="0 0 0 219.9 335 218.9 335 0 0 0" fill="url(#b3246496-27db-4353-b452-25c15e4cf021)"/>
        <g opacity="0.1">
          <path d="M153.4,134.3a32.7,32.7,0,0,0,7.1-.8l4.3-1,3.4-3.4,3.5-3.5,1.5-5.2,1.4-5.2-1.2-6.4-1.2-6.3-4.1-7.2L164,88.1l-6.4-5.5-6.5-5.5-5.6-2.4-5.6-2.3-6.4-.3-6.4-.2-2.8-2.4a35,35,0,0,1-5.8-6.9L115.4,58l.7-1,.8-1,1.1.6,1.1.6,2.7-2.4c1.6-1.4,3.2-2.5,3.8-2.5s3.4,2.2,6.5,4.9l5.5,4.9h-2.9l.4,1.1.5,1.2,4.6.3,4.7.3,2.6-1.7,2.6-1.7-2.7-4.3L144.7,53l-4.8-2-4.7-1.9L131.8,45a33.9,33.9,0,0,0-4.6-4.7c-.7-.3-2.6-2.4-4.1-4.5s-3.1-4.8-3.3-5.9a6.4,6.4,0,0,0-1.8-3.1l-1.3-1,.8,1.8.7,1.9-2.5,2.2-2.5,2.1-2.1-.9-2.1-1,1.4-1.9,1.5-1.9h2.8V23.3l2.9-2.2,2.8-2.2V15.4l-2.9-3.2-2.9-3.3-3.3-1.5L108.3,6H99.1l-2.3,2L94.4,10v5.4H85.1l.7,1,.7,1h8.1l-.7,1.5a6.7,6.7,0,0,0-.7,2.2c-.1.4-1.4,1.2-3,1.8L87.3,24H80l3.9,1.5,4,1.5L91,25.5,94.2,24l1.4,2c.8,1.1,1.8,2,2.3,2h.9l-.6-2.7-.6-2.6,1.2,2.4a21.7,21.7,0,0,0,3,4.1l1.9,1.7H99l-2.9,1.9-2.9,1.9-.7-2-.8-1.9-1,.5-1.1.5V43.4L84.7,43,80,42.7l-1.5-5.8L77,31.1l.6-2.6.6-2.7h-1a2.2,2.2,0,0,0-1.7.9,7.1,7.1,0,0,0-.9,3.1,13.4,13.4,0,0,0,.7,4.7l.9,2.4L73.8,35l-2.5-1.9-.8.7-.9.8,3.2,2.3c1.7,1.3,2.9,2.4,2.5,2.4a31.3,31.3,0,0,1-5-2l-4.4-1.9-.6-1.5-.7-1.5-1.8.6-1.8.6,2.5,2.3L66,38.2l3.5,1.1L73,40.4l-3.7,3.1-3.8,3.2-.2,1.7V51l.2.8-1.1-.6-1.1-.6,1.1-3,1.1-3L68,42.4l2.5-2.2H66.1l-3.9-2a29,29,0,0,1-6.3-4.4l-2.3-2.4-2.2,1.4L49.1,34V47.5l2.3,2.7L53.7,53l4.4,2.2a23.1,23.1,0,0,0,5.7,2.2h1.3l-.4-2.6-.4-2.7,1.1,3.2,1.2,3.1h1c.5,0,1.2.7,1.6,1.5l.7,1.5-1.2,4.5C68,68.4,67.2,71,67,71.6l-.5,1.2-4.3-1.6-4.3-1.6-4.8.4-4.8.5-3.2,2-3.3,2.1-2.5,4-2.6,4,.2,8.2.3,8.2,2.5,5.5,2.4,5.5,4.7,6,4.6,6,6.5,4.1,6.6,4.2,5.7,1.2,5.8,1.3,4-.6,4.1-.6,4.4-3.6,4.4-3.7.9-3.2a12.8,12.8,0,0,1,1.8-4.3l1.1-1,4.2.8L108,118l2.9.7,2.2-1.4,2.2-1.3-1-1.9a6.3,6.3,0,0,1-.6-3.1,14.4,14.4,0,0,0-.3-4.4l-.7-3.1-3.2-2.9-3.3-2.9,5.2-10c2.9-5.5,6-10.6,6.9-11.4l1.6-1.4V76a15.5,15.5,0,0,1-2,4.2l-2.1,3.3v18.3l4.1,7.5,4.1,7.5,4.2,4.4,4.2,4.5,4.9,2.9a61.1,61.1,0,0,0,9.1,4.3,33.8,33.8,0,0,0,7.1,1.4Zm.5-2.8a36.2,36.2,0,0,1-6.9-1.3,57.6,57.6,0,0,1-8.7-4.3l-5.2-3.2-3.5-4.1a75.1,75.1,0,0,1-7-10.4l-3.4-6.3-.4-7.4-.4-7.4,1.4-3.4c.7-2,1.7-3.5,2.2-3.5s3.3,4.4,6.3,9.7l5.6,9.8,3.6,3.5,3.7,3.4v-2.8l-3.3-2.7-3.3-2.7-5.2-10.2-5.2-10.1,1.3-1.1,1.3-1.1.8,1.1c.5.5,3.3,4.5,6.3,8.7a96.5,96.5,0,0,0,8.6,10.6,19.7,19.7,0,0,1,3.7,4.6l.7,1.7h1.2c.6,0,1.1-.3,1.1-.7a12.4,12.4,0,0,0-2.7-3.1c-1.5-1.4-6-7.2-10-12.9l-7.3-10.4,2.8-.6,2.9-.6,4.4,1.2,4.3,1.1,5.5,3.2,5.5,3.2,5.2,6,5.3,6,2.4,5.6,2.5,5.6v13.5l-2.1,3.9-2.2,4-4.3,2-4.3,2Zm-78.1-1.9a34.7,34.7,0,0,1-5.9-1,48.5,48.5,0,0,1-8.7-3.9l-5.5-3-4.6-5.2-4.6-5.1-2.9-6.2-3-6.2-.4-7.7-.3-7.7,2.2-3.3,2.2-3.4,3.8-2.1,3.8-2.1H55a32.3,32.3,0,0,1,6.9,1.2L66,75.2c.2.1-1,5.4-2.6,11.7s-3.2,12.6-3.7,14l-.8,2.6H68l.7,2.4.7,2.5-.7,2.2L68,113l.9.5c.6.3,5.8.9,11.8,1.3l11.1,1a12.5,12.5,0,0,1-.9,3.4,19,19,0,0,1-2.8,5.3l-1.7,2.1-3.9,1.6-4,1.5Zm15.5-15.3-9.8-.9-9-.8-1.1-1-1.1-1,.8-3,.8-2.9,5.3.6,9.9,1.3,4.5.7.3,3.6.3,3.6-.9-.2Zm6.8.2H95.8l-.8-2.2a15.7,15.7,0,0,1-1-4.4l-.2-2.2.8-.4.8-.4.8,3.1.8,3.2,1.7,1.7,1.7,1.7Zm13-3.7a10.4,10.4,0,0,1-2.2-1.7,6,6,0,0,1-1.9-2.5V106h4.6v2.4c-.1,1.4-.3,2.4-.5,2.4Zm-23.4-6.2a67.3,67.3,0,0,1-8.4-.9,32.4,32.4,0,0,1-6.2-1.4l-.6-.5.6-.6.6-.5,8.4,2,8.4,2Zm17.9.4h-2v-1.2a8.1,8.1,0,0,1,1.1-2.6l1.1-1.4,2.4,1.8,2.3,1.9-1.4.7a7.8,7.8,0,0,1-3.5.8Zm-12.2-4.2V97.7l.9,1.3,1,1.3-.6,1.8c-.3,1-.8,1.8-1,1.8S93.4,102.5,93.4,100.8Zm-26.8,1.9-2.2-1.4L62.3,100,65,90.1c1.4-5.5,2.9-10.8,3.2-11.7l.6-1.7,1.1.6,1.2.6-.9,7.8-.9,7.8-1.7,2.3L65.9,98l.4,2.4c.3,1.2.5,2.3.3,2.3Zm33.2-1.1-1.5,1.7-.6-2.6-.5-2.5h4.2V99a6.6,6.6,0,0,1-1.6,2.6Zm-16.1-.4-6.5-1.4-4.3-1V97h4.2a43.5,43.5,0,0,1,8.5,1.2L90,99.4V102l-2-.2A36.8,36.8,0,0,1,83.7,101.2ZM70.4,96l.8-4.6c.4-2.5,1.1-6.2,1.4-8.2l.7-3.6L75,80.7l1.6,1.2-.7,3.6-.8,3.7,4.6,2.5,4.7,2.5v1.9H70.4Zm31.7.3H101l1.4-1.1,1.3-1.2V73.7l-9.1-4.4-9.2-4.4L83,62.3l-2.6-2.7-1.2-6.1a52.4,52.4,0,0,1-1-8.5V42.7l1.5,8.1L81.4,59l1.5,2,1.6,2,7.2,3.4c3.9,1.8,9.1,4.3,11.4,5.6l4.2,2.2-.7,1.5-.6,1.4h2.1a9.5,9.5,0,0,1,3.5.8l1.4.8-4.8,8.7-4.9,8.8Zm-9.9-7.8a21.1,21.1,0,0,1-3.1-2.8l-2.7-2.9-.8-4.1,1.5-4.3,1.5-4.3L91,71.6,93.3,73l-1,6-1,6,.6,1.8c.4.9.5,1.7.3,1.7ZM77.5,74.8l-.4,3.8-1.8-1.2-1.8-1.1.8-4.8.7-4.8,1.5,2.2,1.4,2.2-.4,3.7Zm-6.9,0H69.5l.8-5c.5-2.7,1.3-5.7,1.9-6.5l1-1.5v2.1a61.6,61.6,0,0,1-.8,6.5l-.8,4.4Zm51.6-.8c0-.2.5-.7,1.2-1l1.1-.6v2h-1.2C122.7,74.4,122.2,74.2,122.2,74ZM114,69.5c-.8,0-3.7-1.2-6.5-2.5a54.3,54.3,0,0,1-8.7-5.5l-3.6-3,.7-5,.6-4.9-1.8-1.3L92.9,46v1.8l-.2,1.8-.8-2.5-.9-2.5.8-3.8.7-3.7L96.3,35l3.9-2.2h7.6l4.3,3.7a60.2,60.2,0,0,1,7.8,8.7l3.6,5.1L120,51.9l-3.6,1.5-3.3-.6-3.2-.6.5,2.1.6,2.2-1.7,1.8-1.7,1.8-4.6-.6-4.6-.6v.7a3.9,3.9,0,0,0,1.4,1.9l1.3,1.1h8.6l2.9,2.5c1.5,1.4,2.8,2.9,2.8,3.4v.9ZM77.4,63.3a1.9,1.9,0,0,1-1.2-.9l-.7-1h2.4v1c0,.5-.3.9-.5.9Zm15-7.3-.6,1.2V52.4l.6,1.2.6,1.3L92.4,56Zm48,.7-1.8-.5-.7-1.5c-.4-.9-.4-1.8-.1-2s1.8.2,3.4,1.1,2.9,2.1,2.9,2.6a.8.8,0,0,1-.9.8ZM92.2,52a.5.5,0,0,1-.5-.5.5.5,0,0,1,.5-.5c.4,0,.6.2.6.5a.6.6,0,0,1-.6.5ZM75.8,42.2H74.3l.8-.6.7-.6.8.6.7.7ZM97.7,19.8a.6.6,0,1,1,.6.5A.6.6,0,0,1,97.7,19.8Zm14.8-4.4-.5,1-2-2.3-2-2.4-4.2-1.9L99.6,7.9h5.1l4.1,3.3,4.1,3.2-.4,1.1Zm-8,.1h-1.8l-2.1-1.9c-1.1-1.1-1.8-2.2-1.5-2.4s2,.6,3.9,1.9l3.3,2.4ZM45.2,132.2v-1.9H18.4l5.7.7c3.1.4,9.1.8,13.4.9Zm89.4.8,56.3,4L133,131.8l-9.7-1.3L93.6,127l26.2,4.6,3.5.6a72.5,72.5,0,0,0,11.3.8Zm-80.9-2.9,8,.2-11.4-1.4c-6.2-.8-12.2-1.5-13.3-1.5H35v1.8l5.5.4,13.3.6ZM58.6,28.7l1.1-2.6,4.5-2.5a49.3,49.3,0,0,1,8.7-3.7c2.4-.7,4.3-1.5,4.3-1.9v-.7l-5.4,1.2a51.5,51.5,0,0,0-9.1,2.9l-3.6,1.8-2.3,3.5-2.3,3.5.6.6a3.2,3.2,0,0,0,1.5.6C57.1,31.4,58,30.2,58.6,28.7Z" fill="#f15826"/>
          <path d="M279.1,105.6a41.7,41.7,0,0,0,7.1-.9l4.2-.9,3.5-3.5,3.5-3.5,1.4-5.2,1.5-5.2L299,80.1l-1.2-6.4-4.1-7.1-4.1-7.2-6.4-5.6-6.4-5.5L271.2,46l-5.7-2.4-6.4-.2-6.4-.3-2.8-2.3a40.6,40.6,0,0,1-5.8-7l-3-4.6.7-1,.7-.9,1.1.6,1.1.6,2.8-2.5c1.5-1.3,3.2-2.4,3.7-2.4s3.5,2.2,6.5,4.9l5.6,4.8h-3l.5,1.2.4,1.1,4.7.3,4.7.4,2.5-1.8,2.6-1.7L273,28.5l-2.7-4.2-4.7-2-4.8-2-3.3-4c-1.9-2.2-4-4.4-4.7-4.7A22.8,22.8,0,0,1,248.7,7a26.6,26.6,0,0,1-3.3-5.9,5.5,5.5,0,0,0-1.7-3L242.4-3l.7,1.9.8,1.8-2.5,2.2-2.5,2.2-2.1-1-2.1-1,1.4-1.9,1.4-1.8h2.9V-5.5l2.9-2.2,2.9-2.2v-3.4l-2.8-3.3-2.9-3.2-3.3-1.5-3.3-1.5h-9.1l-2.4,2.1-2.3,2.1v5.4h-9.2l.7.9.6,1h8.1l-.7,1.5a6.5,6.5,0,0,0-.7,2.3c0,.4-1.3,1.2-2.9,1.8l-2.9,1h-7.3l3.9,1.5,3.9,1.5,3.2-1.5,3.1-1.5,1.5,1.9c.8,1.1,1.8,2,2.3,2h.9l-.6-2.6-.6-2.7,1.2,2.4a18.1,18.1,0,0,0,3,4.1l1.8,1.8h-4.6L221.8,4l-3,1.9L218.1,4l-.7-2-1.1.5-1,.6V14.6l-4.7-.3-4.8-.4-1.5-5.8-1.5-5.8.6-2.6.7-2.6h-1.1a2.5,2.5,0,0,0-1.7.8,9.1,9.1,0,0,0-.8,3.1,15.2,15.2,0,0,0,.6,4.7l.9,2.4-2.4-1.9L197,4.4l-.9.7-.8.7,3.2,2.4c1.7,1.2,2.8,2.3,2.5,2.3a37.5,37.5,0,0,1-5.1-1.9l-4.3-2-.7-1.4-.6-1.5-1.9.5-1.8.6,2.5,2.3,2.6,2.3,3.5,1.2,3.5,1.1-3.8,3.1-3.7,3.1-.2,1.8a10.1,10.1,0,0,0,0,2.5l.2.8-1.1-.5-1.1-.6,1.1-3,1-3,2.6-2.3,2.5-2.2h-4.4l-4-2.1a28.2,28.2,0,0,1-6.2-4.4l-2.3-2.4L177,3.9l-2.2,1.3V18.7l2.4,2.8,2.3,2.7,4.5,2.2a23.1,23.1,0,0,0,5.7,2.2h1.2l-.3-2.7-.4-2.6,1.1,3.1,1.1,3.1h1a2.2,2.2,0,0,1,1.7,1.5l.6,1.5-1.2,4.5a40.6,40.6,0,0,1-1.7,5.6l-.5,1.2-4.3-1.6-4.2-1.5-4.8.4-4.8.4-3.3,2-3.2,2.1-2.6,4-2.5,4,.2,8.2.2,8.2,2.5,5.5,2.5,5.6,4.6,5.9,4.6,6,6.6,4.2,6.5,4.2,5.8,1.2,5.8,1.2,4-.6,4-.6,4.4-3.6,4.5-3.7.8-3.2c.5-1.7,1.3-3.7,1.9-4.2l1-1.1,4.3.8,7.1,1.5,2.8.6,2.2-1.3,2.2-1.4-.9-1.8a5.7,5.7,0,0,1-.6-3.2,15.6,15.6,0,0,0-.4-4.4l-.6-3.1-3.3-2.8L231.8,69l5.3-10c2.9-5.5,6-10.7,6.9-11.4l1.6-1.4v1a19.4,19.4,0,0,1-2.1,4.3l-2,3.2V73l4,7.5,4.1,7.5,4.2,4.5,4.3,4.4,4.9,2.9a52.5,52.5,0,0,0,9.1,4.3,32.4,32.4,0,0,0,7.1,1.5Zm.4-2.9a30,30,0,0,1-6.8-1.3,49.9,49.9,0,0,1-8.8-4.3L258.8,94l-3.6-4.2a75,75,0,0,1-6.9-10.4l-3.4-6.2-.5-7.4-.4-7.4,1.4-3.5c.8-1.9,1.8-3.5,2.2-3.5s3.3,4.4,6.4,9.8l5.5,9.7,3.7,3.5,3.7,3.5V75.1l-3.3-2.7-3.3-2.8-5.2-10.1-5.2-10.2,1.3-1,1.3-1.1.8,1,6.3,8.7a100.4,100.4,0,0,0,8.5,10.6,20.8,20.8,0,0,1,3.8,4.6l.6,1.7h1.2c.7.1,1.2-.2,1.2-.6s-1.2-1.8-2.7-3.2-6.1-7.1-10.1-12.9l-7.3-10.4,2.9-.6,2.9-.6,4.3,1.2,4.4,1.1,5.4,3.2,5.5,3.2,5.3,6,5.2,6,2.5,5.6,2.5,5.7V91l-2.1,3.9-2.2,3.9-4.3,2-4.4,2Zm-78-1.9a26.5,26.5,0,0,1-5.9-.9,53,53,0,0,1-8.7-3.9l-5.5-3.1-4.6-5.1-4.6-5.2-3-6.2-2.9-6.2-.4-7.7-.4-7.7,2.2-3.3,2.3-3.3,3.7-2.2,3.8-2.1h3.1a41.1,41.1,0,0,1,7,1.2l4.1,1.4c.2.1-1,5.3-2.6,11.6s-3.3,12.7-3.7,14.1l-.8,2.6h9.1l.7,2.4.7,2.4-.7,2.3-.7,2.3.9.5c.5.2,5.8.8,11.8,1.3s10.9.9,11,1-.2,1.6-.8,3.4a24.1,24.1,0,0,1-2.8,5.3l-1.7,2.1-4,1.5-4,1.6-2.6-.2ZM217,85.6l-9.9-1-8.9-.8-1.1-1-1.2-1,.8-2.9.8-3,5.3.7,9.9,1.3,4.6.6.3,3.6.3,3.6Zm6.8.2h-2.3l-.9-2.2a23.3,23.3,0,0,1-1-4.4V77l.8-.5.8-.4.8,3.2.7,3.1,1.8,1.7,1.7,1.7Zm13-3.7a10.9,10.9,0,0,1-2.3-1.8,7.3,7.3,0,0,1-1.8-2.4v-.7h4.5v2.4c0,1.3-.2,2.4-.4,2.4Zm-23.5-6.2c-1.6-.1-5.3-.5-8.4-1s-5.8-1-6.1-1.3l-.7-.6.7-.5.6-.5,8.4,1.9,8.4,2Zm18,.3h-2V75a5.6,5.6,0,0,1,1.1-2.6l1.1-1.4,2.3,1.9,2.4,1.8-1.5.8a8.9,8.9,0,0,1-3.4.7ZM219.1,72V68.9l1,1.3,1,1.3-.6,1.9c-.3.9-.8,1.8-1,1.8S219,73.7,219.1,72Zm-26.8,1.9-2.2-1.3L188,71.3l2.6-10c1.5-5.5,2.9-10.8,3.2-11.7l.6-1.7,1.2.6,1.1.7-.8,7.8-.9,7.8L193.2,67l-1.7,2.3.5,2.3a6.4,6.4,0,0,1,.3,2.3Zm33.2-1.1-1.6,1.8-.5-2.6-.6-2.6h4.3v.8a8,8,0,0,1-1.6,2.5Zm-16.1-.3L202.8,71l-4.2-1V68.2h4.1a53.8,53.8,0,0,1,8.6,1.2l4.4,1.2v2.6h-2Zm-13.3-5.3.7-4.6c.5-2.5,1.1-6.2,1.5-8.2l.7-3.6,1.6,1.2,1.7,1.2-.8,3.6-.7,3.6,4.6,2.5,4.6,2.6v1.9H196.1Zm31.7.4h-1.2l1.4-1.1,1.4-1.1V45l-9.2-4.5-9.1-4.4-2.6-2.6-2.6-2.6-1.2-6.2a55.7,55.7,0,0,1-1.1-8.5l.2-2.3,1.5,8.2,1.5,8.1,1.6,2,1.5,2.1,7.2,3.3c4,1.8,9.1,4.3,11.5,5.6l4.2,2.3-.7,1.4-.7,1.5h2.1a9.6,9.6,0,0,1,3.6.8l1.4.8-4.9,8.8-4.9,8.8Zm-10-7.9a14,14,0,0,1-3-2.8L212,54.1l-.8-4.2,1.6-4.2,1.5-4.3,2.3,1.4,2.4,1.5-1,6-1.1,5.9.7,1.8c.3,1,.4,1.8.2,1.7ZM203.2,46.1l-.4,3.7L201,48.7l-1.8-1.2.7-4.8.8-4.8,1.4,2.2,1.5,2.2-.4,3.8Zm-7-.1h-1.1l.9-5a19.6,19.6,0,0,1,1.9-6.4l1-1.5v2a56,56,0,0,1-.7,6.5l-.8,4.5Zm51.7-.8c0-.2.5-.7,1.1-1l1.2-.6v2.1H249C248.4,45.7,247.9,45.5,247.9,45.2Zm-8.3-4.5a27.3,27.3,0,0,1-6.5-2.5,59.2,59.2,0,0,1-8.7-5.5l-3.5-3,.6-4.9.7-5-1.8-1.3-1.9-1.3v3.6l-.9-2.5-.8-2.5.7-3.7.8-3.7L222,6.2,225.9,4h7.6l4.2,3.7a56.2,56.2,0,0,1,7.9,8.8l3.6,5-3.6,1.5-3.5,1.5-3.3-.6-3.3-.6.6,2.2.5,2.1L235,29.5l-1.7,1.8-4.6-.5-4.6-.6v.7a4.1,4.1,0,0,0,1.3,1.8l1.4,1.2h8.5l2.9,2.5c1.6,1.3,2.9,2.8,2.9,3.4v.9ZM203,34.6c-.3,0-.8-.5-1.2-1l-.7-1h2.4v.9c0,.5-.2,1-.5,1Zm15-7.3-.6,1.2V23.7l.6,1.2.5,1.2-.6,1.2Zm48.1.6-1.9-.4-.7-1.6c-.3-.8-.4-1.7-.1-2s1.9.3,3.5,1.2,2.8,2,2.8,2.5a.8.8,0,0,1-.8.9Zm-48.2-4.7a.5.5,0,1,1,0-1,.6.6,0,0,1,.6.5.6.6,0,0,1-.6.5Zm-16.4-9.8H200l.7-.7.8-.6.7.7.8.6ZM223.4-9c0-.2.2-.4.6-.4a.5.5,0,0,1,.5.4.5.5,0,0,1-.5.5C223.6-8.5,223.4-8.7,223.4-9Zm14.7-4.4-.4,1.1-2-2.4L233.6-17l-4.2-2-4.2-1.9h5.2l4.1,3.2,4.1,3.3-.5,1Zm-7.9.1h-1.9l-2-2c-1.1-1.1-1.8-2.1-1.5-2.4s2,.7,3.8,2l3.4,2.3ZM170.8,103.4v-1.9H144.1l5.6.7c3.2.4,9.2.8,13.4,1Zm89.5.8,56.3,4-58-5.2-9.7-1.3-29.7-3.5,26.3,4.6,3.4.7a76.7,76.7,0,0,0,11.4.7Zm-80.9-2.9,8,.3L176,100.1l-13.4-1.5h-2v1.9l5.4.3,13.4.6ZM184.3,0l1.1-2.7,4.5-2.5a54,54,0,0,1,8.7-3.7c2.4-.6,4.3-1.5,4.3-1.8v-.7l-5.4,1.1a51.1,51.1,0,0,0-9.1,3l-3.7,1.7-2.3,3.5-2.2,3.6.6.5a2.8,2.8,0,0,0,1.5.6C182.8,2.6,183.6,1.4,184.3,0Z" fill="#f15826"/>
        </g>
        <rect x="297.5" y="149.2" width="37.5" height="106.74" fill="#f15826"/>
        <rect y="256" width="335" height="79.02" fill="#fff"/>
        <g>
          <g>
            <polygon points="0 265 165.4 265.4 165.4 267.2 0 266.8 0 265" fill="#010101"/>
            <polygon points="1.6 274.4 167 274.8 167 276.6 1.6 276.2 1.6 274.4" fill="#010101"/>
            <polygon points="0.7 269 166.1 269.4 166.1 271.2 0.7 270.8 0.7 269" fill="#f15826"/>
          </g>
          <circle cx="164.4" cy="271" r="6.1" fill="#fff"/>
        </g>
        <g>
          <circle cx="321.5" cy="74" r="3.3" fill="#f15826"/>
          <rect x="320.9" y="8.6" width="1.1" height="65.16" fill="#f15826"/>
        </g>
        <g>
          <circle cx="318.3" cy="202.5" r="8.5" fill="#fff"/>
          <rect x="316.8" y="203" width="3" height="170" fill="#fff"/>
        </g>
        <g>
          <g>
            <path d="M28.5,16.4a1.5,1.5,0,0,1-.4,1.1l-4.7,4.6-4.9-2.8V16.4a1.6,1.6,0,0,1,1.4-1.5h0a1.6,1.6,0,0,1,1.6,1.5h0v3.5L26,15.4a1.5,1.5,0,0,1,2.1,0,1.4,1.4,0,0,1,.4,1" fill="#fff"/>
            <path d="M27.1,29.8h-.7l-.4-.4-4.5-4.5v3.5A1.5,1.5,0,0,1,20,29.9h-.1a1.5,1.5,0,0,1-1.4-1.5V25.5l4.9-2.8,4.7,4.6a1.4,1.4,0,0,1,0,2.1,1.8,1.8,0,0,1-1,.4" fill="#fff"/>
            <path d="M23.2,22.3v-.2h0l-1.3-.7-3.3-1.9-2.8-1.7a.4.4,0,0,0-.5.2h0v8.5c0,.2.1.4.3.4h.2l2.8-1.6,4.6-2.7h.1Zm-1.1.2H22l-3.6,2.1-2.1,1.2c-.2.1-.3.1-.4-.1h-.1V19c0-.1.2-.2.3-.2h.2l2.1,1.3,3.6,2C22.1,22.2,22.1,22.3,22.1,22.5Z" fill="#fff"/>
            <path d="M21.1,22.5H21L18.4,24l-1.7,1h-.2a.1.1,0,0,0-.1-.1v-5l.2-.2h.1l1.7.9L21,22.1c0,.1.1.1.1.2h0" fill="#fff"/>
          </g>
          <g>
            <path d="M52.6,22.2h-.1L48.4,20l-2.5-1.2c-.2-.2-.4,0-.4.2v6.8c-.1.1.1.2.2.2a.1.1,0,0,0,.2,0l2.5-1.3,4-2.2.2-.2Zm-1,.1v.2l-3.1,1.6-1.9,1c-.1.1-.4,0-.4-.1V19.7l.3-.2h.1l1.8,1.1,3.2,1.5h.1v.2Z" fill="#fff"/>
            <path d="M50.7,22.3h0l-2.4,1.3-1.4.8h-.3V20.3h.3l1.4.8,2.4,1.2h.1" fill="#fff"/>
            <path d="M31.4,18.8H35c1.7,0,3,1,3,2.4s-1.2,2.4-2.9,2.4H33.2V26H31.5Zm3.5,3.4c.8,0,1.3-.4,1.3-1s-.5-1-1.3-1H33.1v2Z" fill="#fff"/>
            <path d="M44.6,24.6V26H39V19h1.7v5.7Z" fill="#fff"/>
            <path d="M54.4,23.3l-3.1-4.5h2l2,3.1,2-3.2h1.8l-3,4.5v2.6H54.5Z" fill="#fff"/>
            <path d="M60.2,19.2h1v3.9l4-4h1.1L63,22.3l3.6,3.9H65.5l-3.1-3.3-1.2,1.2v2.1h-.8Z" fill="#fff"/>
            <path d="M67.1,22.6c-.1-2,1.8-3.6,3.9-3.7a3.8,3.8,0,0,1,4.1,3.6,3.9,3.9,0,0,1-4,3.7A3.7,3.7,0,0,1,67.1,22.6Zm7.1-.1a3.2,3.2,0,0,0-3.6-2.6A3.1,3.1,0,0,0,68,22.6a3.1,3.1,0,0,0,6.2-.1Z" fill="#fff"/>
            <path d="M76.2,25.1l.6-.6a4,4,0,0,0,2.6,1c1.2,0,1.8-.6,1.8-1.3s-.7-1-2.1-1.3-2.6-.7-2.6-1.9,1.1-2.1,2.6-2.1a3.8,3.8,0,0,1,2.7,1l-.5.7a3.2,3.2,0,0,0-2.3-.9,1.4,1.4,0,0,0-1.6,1.2c0,.7.8,1,2.1,1.2s2.6.8,2.6,2.1-.9,2-2.7,2A4.2,4.2,0,0,1,76.2,25.1Z" fill="#fff"/>
            <path d="M83.8,19.2h.9l3,4.8,2.8-4.9h.9v7.1h-.9V20.8l-2.9,5-3-4.9v5.3h-.9Z" fill="#fff"/>
            <path d="M93.1,22.6a4,4,0,0,1,4-3.7,3.8,3.8,0,0,1,4,3.6,4,4,0,0,1-8,.1Zm7.1-.1a3.1,3.1,0,0,0-3.6-2.6A3.2,3.2,0,0,0,94,22.6a3.2,3.2,0,0,0,3.6,2.6A3,3,0,0,0,100.2,22.5Z" fill="#fff"/>
            <path d="M102.3,25.1l.5-.6a4.4,4.4,0,0,0,2.6,1c1.3,0,1.9-.6,1.9-1.3s-.8-1-2.2-1.3-2.5-.7-2.6-1.9,1.1-2.1,2.6-2.1a4.2,4.2,0,0,1,2.8,1l-.5.7a3.5,3.5,0,0,0-2.3-.9c-1,0-1.7.6-1.6,1.2s.7,1,2.1,1.2,2.5.8,2.6,2.1-1,2-2.8,2A4.5,4.5,0,0,1,102.3,25.1Z" fill="#fff"/>
          </g>
        </g>
        <rect y="149.2" width="303.4" height="106.74" fill="#231f20"/>
      </g>
    </g>
    <g>
      <g>
        <rect y="123.6" width="158.3" height="13.26" fill="#fff"/>
        <rect y="140.5" width="158.3" height="3.68" fill="#f15826"/>
      </g>
      <g>
        <rect y="97.1" width="158.3" height="13.26" fill="#fff"/>
        <rect y="114" width="158.3" height="3.68" fill="#f15826"/>
      </g>
    </g>
    <g>
      <path d="M12.6,162.3a.7.7,0,0,0,.6-.2,1,1,0,0,0,0-1.2.9.9,0,0,0-.6-.3.6.6,0,0,0-.6.3.8.8,0,0,0,0,1.2C12.1,162.3,12.3,162.3,12.6,162.3Zm0,4.3a15.8,15.8,0,0,1-2.6-2.7,3.8,3.8,0,0,1-.8-2.3,3.4,3.4,0,0,1,1-2.6,3.6,3.6,0,0,1,2.4-.9,3.2,3.2,0,0,1,2.3.9,3.5,3.5,0,0,1,1.1,2.6,4,4,0,0,1-.9,2.3A14.7,14.7,0,0,1,12.6,166.6Z" fill="#f15826"/>
      <circle cx="12.4" cy="182.9" r="3.3" fill="#f15826"/>
      <circle cx="12.4" cy="202.4" r="3.3" fill="#f15826"/>
      <circle cx="12.3" cy="222.1" r="3.2" fill="#f15826"/>
      <circle cx="12.3" cy="242.8" r="3.2" fill="#f15826"/>
    </g>
    <rect x="251.9" y="278.5" width="2.2" height="48" fill="#f15826"/>
  </g>
</svg>
