<svg xmlns="http://www.w3.org/2000/svg" width="335" height="335" xmlns:v="https://vecta.io/nano"><defs><radialGradient id="A" cx="167.5" cy="235.9" r="205.2" gradientTransform="translate(0 0.7) scale(1 0.71)" gradientUnits="userSpaceOnUse"><stop offset="0" stop-color="#f7941d"/><stop offset="1" stop-color="#f26522"/></radialGradient></defs><path fill="url(#A)" d="M0 0h335v335H0z"/><g fill="#262262"><path d="M167 284.5c0-.8.1-1 .3-1a1.7 1.7 0 0 0 1-.3c.6-.2.7-.3.6-.8a14.6 14.6 0 0 0-.7-1.9l-.6-1.5c0-.3-1-3.5-1.4-4.4a5.6 5.6 0 0 1-.4-1.2 4.8 4.8 0 0 0-1.7-2.3 15 15 0 0 1-3.3-4.2 17.7 17.7 0 0 0-3.1-4.1c-.6-.6-.6-.6-.6-.2a11.7 11.7 0 0 1-.9 2.4 14.8 14.8 0 0 0-1.2 2.9c-.2.6-.6 1.4-.8 2l-1 2c-.3 1.2-.6 1.5-2.7 3.6s-2.2 2.3-2 2.6a4.6 4.6 0 0 0 2.8 1.7c1.3.2 1 .3 1.2.7s-4.2 3-6.7 2.5c-1-.2-1-.2-1.3.2s-.8.6-2.2 1-2.6.4-3.5-.4-.6-.8-.8-2a3.9 3.9 0 0 1 .1-2.4c.3-1 .3-1-.1-1.5s-.4-.6 0-1a1.3 1.3 0 0 0 .4-1 3.6 3.6 0 0 1 1.5-2.3 9.5 9.5 0 0 0 1.9-3l1.6-3a7.7 7.7 0 0 0 .7-1.6 18 18 0 0 1 .8-2.1l1.2-2.6a12.4 12.4 0 0 1 1-2 4.4 4.4 0 0 0 .6-1.6c.1-1.3.7-2 1.4-2.2s1.4-1.3 1-1.6l-1.8-.4-2.3-.3a23.3 23.3 0 0 0-4.6-.8 5.6 5.6 0 0 1-4.1-2.7 4.3 4.3 0 0 1-.5-2.5 6.4 6.4 0 0 1 1.2-3.8c.3-.5.3-.6-.3-1.3a11.3 11.3 0 0 1-2.5-7.5c0-1.8.1-2.2 1-3.4a5.2 5.2 0 0 0 1-1.8c.4-2.8.4-3 1-2.8h.7a20.3 20.3 0 0 0 2-4.2 14.1 14.1 0 0 1 1.9-3.4 1.9 1.9 0 0 0 .2-.8 3 3 0 0 1 1-1.9 11.8 11.8 0 0 0 1.1-1.9 20.2 20.2 0 0 1 1.8-3.2 16.8 16.8 0 0 1 2.4-2.9l.7-1a55.6 55.6 0 0 1 6.2-6.6l.5-.3 2-1a5.2 5.2 0 0 1 3.4-.9c2-.1 2.2-.2 2.5-3s.3-2 .7-2.4a1 1 0 0 0 .5-.7 8.5 8.5 0 0 1 2.4-2.6 1.7 1.7 0 0 1 1-.3 1.5 1.5 0 0 0 .9-.4c.5-.5 1.7-.4 3.3.3l1.4.5.7.4 1.7.7c1 .4 1.2.5 1.6 1.2a2 2 0 0 0 1.1 1.1c1 .6 1.3.8 1 2l-.5 1.4a7.1 7.1 0 0 0-.9 2.8 4.3 4.3 0 0 1-.5 1.6 5.9 5.9 0 0 0-.5 2.3c0 1.3-.2 1.6-1 1.6s-1 .4-1 1-.2 1-1 1-.7 0-.8.5-.8 2-2 1.6-1.4-.7-2.5-2.2l-1-1.2-.3.5a10.1 10.1 0 0 1-1.3 1.6 2.2 2.2 0 0 0-.9 2.2c-.1 1.7-.3 3-.5 3a6 6 0 0 0-.1 2.3c0 2 0 2.4-.3 2.7s-.3.4.3.2a2.1 2.1 0 0 0 1.1-.4l.8-.2 1-.3a5.8 5.8 0 0 1 1.8-.4 32 32 0 0 0 6.8-1.6l1.2-.5a9.2 9.2 0 0 1 3.2 1l1 .7 1.3 1 1.3 1c.5 0 1.3-1 2.5-3a21.1 21.1 0 0 1 1.8-2.7l1-1.5 1.5-2c1.2-1.4.8-1 4.3-4.6s4.6-5 5-6.3.4-3 .1-3.3a.8.8 0 0 1-.2-.7c0-.2-.2-.2-.3-.2h-.3a.2.2 0 0 1 .2-.2c.1 0 .1-.2.1-.4s.2-.6.8-.5.7-.1 1-1.5.5-1.2.7-1.2.8.5 1 1.6.2.8.3.8l1.2-1c1.2-1.2 1.8-1.4 2.2-1s.4 1-1.8 3.7c-1 1-1 1-1.2 3.8s-.5 2.7-1.6 3.6a27.3 27.3 0 0 0-2.3 2.5l-1.8 2.4a9.1 9.1 0 0 0-1.1 1.6 33 33 0 0 1-3.8 5.9 66 66 0 0 0-2.6 4.5 11.4 11.4 0 0 0-.9 2.6v1l1.2 1.2 2.2 2a2.7 2.7 0 0 0 2.2.8c1-.1 1 0 1 .3s.1.4.3.3.3 0 .3.4a1.2 1.2 0 0 0 .4.8.7.7 0 0 1 .3.8c0 .3.1.5.3.5s.4.5.1 1.4 0 .4.4.5.5.2.5.7-.1.5-.2.5a6.6 6.6 0 0 0-1.1 2.4 8.4 8.4 0 0 1-1.6 3.3 3.3 3.3 0 0 0-.7 1.3 3.2 3.2 0 0 1-1.3 1.5c-1 .7-1 .7-2.6.6l-1.6-.2v1c-2 1.6-2 1-4.2 2a9.6 9.6 0 0 1-1.8-5.2c-.1-.2-.2-1-.5-1.7a12.8 12.8 0 0 1-.5-2.7c-.1-.7-.7-2.8-1.3-3-2.8-1.6-4.7-.7-7.3-.8l-2.4.2a9.1 9.1 0 0 1-2.3.3l-2 .2c-.6.2-.7.4-1 1.3a3.2 3.2 0 0 0-.3 1.4.5.5 0 0 1-.3.5 6.2 6.2 0 0 0-1.3 3.4 7.5 7.5 0 0 0 .6 3.9 10.8 10.8 0 0 0 2.4 3.2c.7.5.8.8.3 1.2s-1 1.4-.6 1 .8.3.8 1-.1.5-1.2.6-1.7.3-1.3 1l.3 1a4.1 4.1 0 0 0 1.6 1.6l1.5.8 1.4.8c.3 0 1.2 1.5 1.5 2.7a2 2 0 0 1 .1 1.7c-.4 1-.8 1.4-1.5 1.4a4.1 4.1 0 0 1-2.1-1 16.7 16.7 0 0 0-2.8-1.8c-.6 0-.3.8.5 1.7s.8 1 .8 1.4a1.8 1.8 0 0 0 .5 1.2l.6 1a1.2 1.2 0 0 0 1.1.7 1.9 1.9 0 0 1 1.8 1.8c.2.7.4 1 .8 1.2a.9.9 0 0 1 .6.6 2.3 2.3 0 0 0 .7.7c.3.2.7.4.8.6l1.6 1.2a17 17 0 0 1 2.4 2.2l5.2 5a8 8 0 0 1 1.7 1.5c1 1 1.2 1.3 1.3 2s.3 1 1.3 2a16.2 16.2 0 0 0 7 3.3c.3.1.5.2.5.4s-3.8.2-10.6.2c-10.5 0-10.6-.1-10.6-.5a1.6 1.6 0 0 0-.5-.9l-1-1-.3-.5v.6a7.1 7.1 0 0 1-1 1.4l-1 1h-5v-1zm7-2.6c-.1 0-.2 0-.2.2s.1.2.2.1zm20.3-56a.2.2 0 0 0-.2-.2v.2l.3.2v-.2zM178 203c-.1 0-.1.1-.1.3s.1.3.1.1a.3.3 0 0 0 0-.4zm25.6-10c-.1-.1-.1-.1-.1.1s0 .2.1.1.1-.2 0-.2zm2.2-.1a.2.2 0 0 0-.2-.2c-.1 0-.2.1-.2.3s.1.3.2.2z"/><path d="M167 285v-.3l.2-.6v-.6l1-.3.8-.3v-.3a8.2 8.2 0 0 0-1-2.6 4.2 4.2 0 0 1-.4-1 46.5 46.5 0 0 0-2.1-6.3l-.3-.6-1.8-1.8-1.8-2-.7-1.4-.6-1.4-1.4-1.5a12.9 12.9 0 0 0-1.6-1.7h-.1l-.3.8a24.4 24.4 0 0 1-1 2.4 14.2 14.2 0 0 0-.8 1.8l-.6 1.5-1 2.3-.7 1.7-.3.7-2 2-2 2v.7l.5.5a5.5 5.5 0 0 0 2.5 1h.7l.3.3.2.3-.2.5-.2.5-1.3.6-1.3.6-1.5.3-1.4.3h-1l-1-.3-.4.4-.5.5-1.6.4-2 .4h-.5l-.7-.4-.8-.4-.2-.5a4.7 4.7 0 0 1-.3-1.7l-.2-1.2.3-1 .2-1h-.2v-.2-1l.4-.7.4-1v-.3l1.4-1.6 1.3-1.6v-.2a21.4 21.4 0 0 1 2-4l.6-1 .2-1 1-2.3 1-2.5a8.9 8.9 0 0 1 .8-1.7l.5-.7.2-1 .2-1 .3-.5.3-.4.6-.2h.6l.2-.4a1.9 1.9 0 0 0 .2-.7v-.4h-.6l-1.8-.3-2.8-.4a13.5 13.5 0 0 0-2.9-.5l-1.4-.2-1-.5-1.5-.8-.4-.3-.4-1-.5-1v-3l.7-1.4.8-1.3-.7-.8-1.2-2-.6-1.2-.4-2-.4-2v-2.6l.5-.8 1-1.4.4-.6.2-1.3V227l.3-.3.3-.3h1l.4-.5.5-.6.2-.7v-.7h.4l.2.5v.5l1 1a12.3 12.3 0 0 0 4 2.3l2 .7.3-.2.5-.5v-.4l-.5-.6-.5-.7a9.3 9.3 0 0 1-1.8-1.6v-.2h.6v-.3a12 12 0 0 0-2.5-3.4l-1-1h-.8l.4-.7.4-.6v-1.2l1-1.5 1.5-2.2a2.1 2.1 0 0 0 .6-1c0-.6 1.7-2.8 5.4-7a7 7 0 0 0 1.3-1.7l.3-.5 1.6-1.6 1.6-1.6 2-1 2-1h3.3l.3-.5.2-.5.2-2 .3-2 .4-.5.6-1v-.5l1-1 1-1h1.6l.3-.4.3-.4h1.4l1.8.7 2.3 1 1.5.6 1 .3.4.8.5.8.6.3 1 .6h.3v.5a7.5 7.5 0 0 1-.9 2.5c-.3.3-.3.5-.8 2.7l-.2 1.2-.4.4-.3.5v.5c0 .2-.1.5-.1.7h-.2-.2l-.3-.2H176v.4.5l.2.6h1.7v.5l-.6.2h-.6l-.2 1-.2.8H175l-.3 1-.3 1-.5.2-.5.3-.8-.3-.8-.2-.8-.8-1.2-1.5-.5-.6-1.4 1.6-1.3 1.6v2.8l-.3.6-.3.6v4 .5l-.2.5h.2l1-.3 2-.7 1.3-.4h1.8l2.4-.6 2.3-.6 1-.4 1-.5 1.2.3h1.2l1 .7 2 1.5 1 .8h1.2l.5-.6 1-1.3a20.4 20.4 0 0 1 2.6-3.9c.1 0 .3-.3.6-.8a63 63 0 0 1 5.8-6.8l3.4-3.6 1-1.5 1-1.4v-1.7a19.4 19.4 0 0 0-.2-2.4v-1h1.6v-2l.3-.4.2-.4.5.3.5.2.2 1a4.9 4.9 0 0 0 .1 1.2v.3l1-1.3 1-1.3.4-.2h.7l.5.5.2.3-.6 1-1.5 2-1 1.2v.4c-.1.3-.2 1.4-.4 2.5l-.2 2-.2.5-.3.5-.8.6-.8.6-.7 1-3 3.7-.6.6-.3 1c-.3.5-.5 1-.7 1v.2-.7l1-1.6a36.7 36.7 0 0 1 3.4-5.3 5.7 5.7 0 0 1 1.1-1.1l.8-.5.2-.7.6-3.4v-.2h-1.2v.6a4.3 4.3 0 0 0 .2 1.1l.2.5-.7 1.4-.7 1.4-1.5 1.6-4 4.5-1 1.2a6.1 6.1 0 0 0-1.4 2.9l-.2.7-2 3-2 3-.2.8-.2.8v1l1.5-3 1.5-3 .5-.6a7.1 7.1 0 0 0 1-1.4l1.6-1.8 1-1v.4l-.4.7-1.2 2a49 49 0 0 0-3.8 6.2l-.6 1.4-.2 1v1l2.2 2 2 2h1.7l1 1 1 1v.3a1.1 1.1 0 0 0 .3.8l.3.5-.3.4-.5.5h-.2l-.4-1-.4-.8v-1h-.1v3l-.4 1-.5 1v2h1.7l.2-.2.2-.2-.4-.3-.5-.3v-.7l.6-.4.6-.4v-1.2h1l.2.2.2.3-.6 1-.6 1v1.8l-.5 1a8.6 8.6 0 0 1-1 1.6 6.1 6.1 0 0 0-.7 1.4l-.3.8-1 .6-1 .7h-3.6v2.4l.2 1 .4 1.7.2.8.3.4.4.4-.4-.2h-.3v.2a.5.5 0 0 0 .3.5l.4.4.3.7.2.7v3l.8 1.2.8 1v1l.2-.2.2-.3.5.5.4.4v.7h-.5l-.4-.4c-.3-.3-.4-.5-.4-.6a5.4 5.4 0 0 0-2-1h-.3l.2.7a9.9 9.9 0 0 0 .2 1.7v1l.5.2.5.2v.3a.6.6 0 0 0-.1.4h-.8l-.6-.8a13 13 0 0 1-1-1.5l-.4-1h-.4v.6h.3l.3.2v2.2h.5v1l-.3.4-.3.3-.4-.2-.4-.2-.3-1-.3-.8-.4.5-.4.5-.3-.3a2.4 2.4 0 0 1-.6-.9l-.4-.6v-6l-.3-.2-.3-.2-1.2.2H185l-.7-.6-.6-.6.4-.5.5-.5h2l.7-.4.7-.3.6-.8.5-.8V247h.2l.3-.3-.2-.4a12.6 12.6 0 0 0-1.3-2.6l-1.3-2-.3-1.3a12.9 12.9 0 0 1-.4-1.9 4.7 4.7 0 0 0-.4-1.7l-.3-1.3-.2-1.6c-.3-1.7-.4-2-1-2.6l-.4-.3-1.4-.5-1.5-.5h-2.3l-.5.3-.4.2h-3.6l-.5.2-.6.3H171l-.7.2-.8.2-.4 1.4a8.7 8.7 0 0 1-.7 1.7 7.5 7.5 0 0 0-.7 1.2l-.4 1v2.6l.2 1a10.4 10.4 0 0 0 2.9 4.8c.8.7.8.8.2 1.6l-.5.6.4.3.4.2v1H169l-1 .2-.2.2-.2.2.3.8a3.3 3.3 0 0 0 2.1 2.2l2 1.3 1 .7.5 1 .5 1v2l-.4.5-.4.6h-1.8l-.7-.6a13.8 13.8 0 0 0-3.3-2h-.2v.8l.8 1 .8 1v1l.7 1a7.5 7.5 0 0 1 .7 1.2h0l.7.2h.8l.5.4.6.4v1.6l.3.2a3.8 3.8 0 0 1 .9.9l2.8 2.2 2 1.6 1.2 1.5 2.8 2.8 1.6 1.4h.5l1.3 1.4 1.3 1.3.2.7v.7l.5.6a16.4 16.4 0 0 0 3.3 2.6l2.7 1 2 .6v.4h-20.6l-.2-.6-.2-.5-.7-.8-.7-.7v1l-1 1-1 .8h-4.7v-.2zm22.4-26.3zm-16.7-2.3l-.2-.5v.4l-.2.3v.4l.2.3.2-.2.2-.3-.2-.4zm17-2.7h0zm-20.3 0v-.4l-.5-.2c-.7-.3-.8-.3-.3.4l.6.5h.2zm-2.7-1.8v-.2h-1.2v.4h.8 0zm-1-2.3l-.3-.6-.5-.3-.5-.4-.6.2-.7.2.5.5.4.5h.3l.8.4.5.4.2-.2v-.2l-.3-.5zm-3.2.3l-.4-.4h-2l-1.3-.4-3-1-1.7-.6a18.2 18.2 0 0 0 4.3 2.4l1 .4h3.3l-.3-.4zm4-3l-.6-.5-1-.3c-1.2-.4-1.2-.4-1.3.3v.5l1 .2 1.8.3h.7zm-25.3-1a40.4 40.4 0 0 1 3.8-5.4l1.2-1.6v-1h-.1l-.4.5-1.4 1.6c-1 1-1.8 2.2-2.6 3.4l-1.5 2.2v.7h.2c.4.2.5.1.7-.3zm10-20l1.3-1.4v-.3a2.1 2.1 0 0 1 .4-.6l.3-.4.2-2a15.3 15.3 0 0 1 .3-3l.5-3 .3-2v-.6l.3-1 1.4-4.2.8-2.5.5-1 .4-.2.4-.2.4.3.3.3-.4.6a11.4 11.4 0 0 0-.9 2.6v.4l1-.8 1-.8h.8v-.4h2v-.6h-.4l-1-.8-.7-.7v-1.6l.3-.5a4.1 4.1 0 0 1 .7-1.1c.3-.2.6-.5.6-.6v-.2h-1.4l-1 .6a9.5 9.5 0 0 0-1.7 1l-1.5 1-.8.5-2.3 2.4-2.7 3-1 1-.6 1-.8 1.4a7.5 7.5 0 0 0-.7 1.2l-.2.4h-.5l-.5.2-.3.8-.3 1v2.6l.2.4a101 101 0 0 1 3.6 8.4l.3.8h.2l1.5-1.3zm2.5-16.4c0-.2.2-.2.3 0l.2.2h-.5zm-.7-1v-.5h.5v1.3h-.6zm-11.7 18v-.2l-.2-.3v-.4h-.5v.3c.1.4.6.8 1 .6zm53.4-.4l-1-.6h-.4l.6.6.7.6h.8l-.7-.5zm-7-.4l-.2-.2v.2zm-.7-.3h-.3l-1-.7-.8-.7h-1v.4l1.4.7 1.6.7h.2zm6-.7l-.5-.3h-.4l.3.3c.2.3.6.4.6.2zm-4.7-1v-.2l.3-.4.3-.5-.5-.8-.4-.7-1-.2h-1l-1-.8-1.6-1-.4-.2v.2a8.3 8.3 0 0 0 2.6 3l1.5 1a2.4 2.4 0 0 0 1.2.7h.2v-.2zm-31.2-2v-.5h-.2c-.2 0-.6.7-.6 1v.2h.7v-.6zm8.6-1.7v-2h-.4v3.7h.3l.2-.3.2-.3v-1.6zm-4.2-3.8v-.3h.4l1.3.2.7.3h1.6v-2.8l.3-1.4.4-1.4-.2-1-.2-1-.4-.8-.5-.8-.7-.5-.8-.5v-.6l-.3.2-1.5.2h-1l-.7.3-.7.3-.8.8-.8.7h0l-.2-.2-.3.3-.2.3.4.7.4.7.2-.3.3-.3h.8v3.3l.3 1.8.4 1.8h.7l1 .2h.3zm1.6-.5v-.2h1.3v.2l.2.2h-2v-.2zm11-9v-1h1.8l-.2-.4c-.1-.2-.2-1-.4-2a18.5 18.5 0 0 0-.4-2.3v-.6l.3-.2.3-.2v-.6h-.4a1.8 1.8 0 0 0-1.1 1.4v.7l.5 1 .5 1.2v1l-.6.6-.5.7v.4a2.8 2.8 0 0 0 .1.9v.5-.2h.1v-1zm-8.5-2.7l1-.8.6-.5.6-.2h.7v-1.6l-.3-.2-.3-.3-1 1a15.2 15.2 0 0 0-3.1 3.1v.2h.5l1-.4zm-4.3-.8zm17.4-4c0-.3.1-.8.1-1.3v-.8h-.2l-.8.5-.6.5v1l.6.3c.7.4.7.4 1-.1zm-2.3-6a2.9 2.9 0 0 0-.2-.9l-.2-.5-.8-.2-1.7-.6-.8-.4h-.6l-1.2.2-.6.3-.5-.3-.5-.2-.7.5-.7.8h6l1 .8 1 .8h.5v-.3zM145 224l-.4-.5v-.3h.3l.5.5.2.4h-.2l-.3-.2zm-4-.7l.2-.4h.2v.3c0 .2 0 .4-.2.4h-.2zm.4-1a.8.8 0 0 1 .2-.5h.2v.3c0 .2 0 .4-.2.4l-.2.2z"/><path d="M167.2 285v-.3l.4-.5.4-.6.6-.3.6-.3v-.5a7.5 7.5 0 0 0-.9-2.5l-.4-1a73 73 0 0 0-2.2-6.6l-.2-.5-1.2-1-2-2.2-1-1-.4-1a3.7 3.7 0 0 0-.7-1.4 24.2 24.2 0 0 0-3.1-3.3h-.3l-.3 1a16 16 0 0 1-1 2.3l-1 2.2a5.1 5.1 0 0 1-.7 1.7c-.2.4-.6 1.5-1 2.3l-.4 1.4-2 2-2 2.2-.3.2v1l.8.6.8.6 1 .2 1 .3.3.2.2.3-.6.5-.6.6-1.2.4a8.1 8.1 0 0 1-2.2.7h-1l-1-.2-1-.2-.6.5-.6.5-1.7.4-1.7.3h-.6l-.7-.3-.3-.4-.4-.5v-1.3l-.2-1.3.3-1 .2-1-.2-.2-.2-.2v-1l.4-.2.4-.3v-1l1.3-1.7 1.4-1.6.2-.6c.2-.4.7-1.6 1.3-2.6l1-2 .3-1.2.4-1 .8-1.6a20 20 0 0 0 1-2.1 6.1 6.1 0 0 1 .7-1.4l.6-1v-.8c0-.4.2-1 .2-1.3v-.6l.8-.2.8-.2v-.3l.2-.3v-1.2h-.2l-.3-.2h-1.5l-3-.5-3.3-.6-1.7-.3-1-.4a3.4 3.4 0 0 1-2-2.2l-.4-1v-2.8l.7-1.3.7-1.4-.8-1-.8-1-.5-1-.5-1-.4-1.7-.3-1.8v-3l.2-.3 1-1 .7-.8v-1.6l.2-1.5h1.4l.2-.2h.6l.3.6.3.5 1.8 1 2 1a3.1 3.1 0 0 1 1.3.6l1.4.6a9 9 0 0 0 1.5-1.9l1.4-1.8 1.7-1.5 1.6-1.5 1.6-1 1.8-1 .5-.2.2-.3-.3-2.2-.3-2.3V215l-.4-.7a8.8 8.8 0 0 1-.5-1.5v-.8l.3-.3.3-.2v-1.6h.4v.4c0 .2.1 1 .1 1.6v1.2l.2.4.2.4v1.2l-.2.4-.2.4.3.7.3.7.7-.2.7-.3.2.3v.2l1.3-.3 1.3-.3h4v.7l-.4.2-.7.4h-.3v3.7l.2.8.3.8h.4l.3-1 .2-1v-2.8l.3-.2 2-.8 1.8-.6h1.3l1.4-.2 2.3-.6 2.4-.6.7-.3.7-.4h1l1 .2 1 .8 2 1.5 1 1h1l.5-.4.4-.4 1-1.7 2.4-3 1.3-1.8c.6-1 1.6-2 6-6.7l3.6-4 1.3-1.8.3-1 .3-1v-2l-.2-.4c-.3-.6-.2-.7.5-.2l.5.4v-.3a.5.5 0 0 0-.3-.5l-.2-.2h.5l.8-.2.2-.2v-1h-.4v-1.4h.7v.3a5.9 5.9 0 0 1 .2 1.3v1l.3.3.3.5v.2h-.8v.7l-.2.2h-.3l-.3-.3-.5-.3h-.1v4l-.3.5a26 26 0 0 1-3 3.6l-2.3 2.6-1.6 2-1 1.4-.5 1.3-.4 1.3-.7 1-1.7 2.6-1 1.4-.3 1-.4 1v2.3h.4l.4-.7.5-.6h.1v1.8l.5 1 .5 1-.4-.2-1.3-.4-1.2-.4-.5-.3-.5-1-.5-1h-1-1l-1-.8-1-.7-.8-.3h-.7-.2l-.2.2 1 1.7 1.2 1.5 1.4 1c1.5 1.3 2.6 2 3 2h.2v-1.3h.4l.5-.2.7.6 1.3.8 1.6 1.2 1.3 1 .4.2h1.6l-.2.5-.5.4h-.1l-.6.8-.5.8h.2l.4-.4 1.3-1 1-.7h.4v3.3l-.5 1-.5 1v1.8l-.2.4-.2.4v.6l.2.6h.5l.2-.7.3-.7h.4l.6.2.5.2h0a12.8 12.8 0 0 1-1.5 2.5h-.3v1.3l-.5.5a2 2 0 0 1-1.2.8l-.6.4h-1l-1.5-.2h-.8l-.3-1.5c-.4-1.5-.5-1.8-.7-1.6s.5 5.7.8 7.4a20 20 0 0 1 .4 2.4v.8l.4.6.4.6.3 1.3.4 2.2.2.8.5.8.5 1v.3l-.8-.2-1-.2h-.3v.5a2.9 2.9 0 0 0 .2.9c0 .2.2.7.3 1.2v.8h-.4l-.3-.8-.3-.8-.4-.4-.4-.4v-.4c0-.3.2-1 .2-1.4v-1h-.4l-.2.6-.3.5v4.6h-.4V257l-.2-.7-.3-.7.5-1 .4-1v-2h-.2v-.2l-.4 1-.4.8-.3 1.5-.3 1.5v2.2l-.2.4v.2a15.3 15.3 0 0 1-.3-3v-2.7l-.7-.3-.7-.3-.7.3-.6.2-.5-.2-.6-.2v-.8l.2-.2.2-.2h2l.7-.4.8-.5.5-.8.6-.8v-1.3l.2-.4.2-.4-.7-1.2c-.4-.8-.8-1.6-1.3-2.4l-.8-1.2-.3-1-.3-1.7v-.5l-.5-1.7-.4-1.7-.2-1.5-.2-1.6-.5-.6-.5-.7-1.8-.6-1.8-.7h-.8l-.6-.2-.6-.2-.4.4-.4.3h-2.4l-1.3.4-1.3.3h-3-.4l-.3.7-.6 1.5a3 3 0 0 1-.4 1l-.7 1.4-.4 1v2.7l.4 1.2.3 1.2.8 1 .7 1.2.7.5.7.5v.6l-.6.8-.6.7h.7l.3.3.2.3v.6h-.6l-1.3.2-.7.2v.4l.5 1.3.4.8.5.4 2 1.2 1.3.7.8.7.7.7.3 1.3.4 1.4-.4.7-.3.7h-1l-.6-.3-2-1.4-2-1-.5-.2v.2a.9.9 0 0 0-.1.5v.5l.8 1 .8 1v1.3l.3.3a3.6 3.6 0 0 1 .7 1l.4.8.4.2.7.2h.4l.5.4.5.4.2.7v.7l1 1a11.6 11.6 0 0 0 2.4 2l1.3 1 3.4 3.4 3.4 3.5h.6l1.3 1.3 1.4 1.3v1.6l1.3 1.2 1.3 1.2 1.3.7 2.8 1 1.6.6.2.2h-21.2v-1l-.5-.6a4.1 4.1 0 0 1-1-1.3l-.3-.7-.2.8v.8l-.3.5a5.2 5.2 0 0 1-1 1.1l-.7.5h-4.4v-.2zm22-2.4c0-.2-.8-.8-1-.7s.6 1 .8 1l.2-.2zM187 281v-.3h-.8v.2c0 .2.3.4.6.4h.2zm-14-24v-.5-.5l-.3-.6-.4.5-.3.5v.4c0 .5.1.7.6.7h.3l.2-.5zm-1.4-1.6l.3-.4v-.3l-.2-.2-.3.5c-.2.4-.3 1-.1 1l.4-.5zm-1-1.2v-.5h-.4v.5a2.2 2.2 0 0 0-.1.8v.4l.3-.4.3-.3v-.5zm-1.2-.2l.3-.5-.7-.6-.7-.5h-.7v.4l.7.8 1 1c.1 0 .3-.2.4-.5zm-3-2l.5-.2v-.5h-1.8v.6l.2.3c.3.3.6.3 1.3 0zm-2.5-1c0-.3-.2-.6-1-1.3l-1-.7h-1.5l-1.5-.2-1-.4-2.6-1-1.6-.6h-.3l-.3.3v.2l.8.4a37.5 37.5 0 0 0 4.4 2.4l1 .4h3l.6.4 1 .4h.2v-.3zm2.2-.7l.3-.2-.6-1-.5-1-.5-.2-.5-.3-.8.3-.8.2v.2c.1.3.2.6.5.7l.4.5h.7l.3.4.4.4h.4l.7-.2zm1.4-3l-1-.7-1-.8-1-.2-1-.2h-.6v1.5l1.2.2c1 .2 3.4.4 3.4.2zm-26.2-1v-.6l1.4-2 2.6-3.4 1.2-1.5v-1.5h-.3l-.4-.2-.7 1-1.6 2c-1.3 1.4-4 5.5-4 6v.2l.6.4 1 .4h.3v-.6zm48.7-9.4h0 0zm-.2-2.5c0-.4.1-1.8.2-3.2v-2.5l-.4-1c-.2-.4-.4-1-.6-1.4l-.2-.6-1.6-.8-1.5-.7-.4-.4-.8-.6-.5-.2-.7.3-.6.5h0l2 1a13.9 13.9 0 0 0 2.8 1.2l.8.3.5.6.4.6v2.5c-.1 4.4-.1 5 .4 5h.2v-.6zm3.6-3.5c-.1-.1-.3 0-.4.1l-.3.3v.6l.4-.4.3-.6zm-16-1.6v-.2h-.2c-.3.1-.2.3.1.3h.3v-.2zm-10.5-2.3a5.3 5.3 0 0 0-2-1.3h-.3v.5l1 .6 1 .7h.8zm31.5 7h-.3v-.7l.6-.2c.6-.3.7-.3.4.5s-.3.7-.7.5zm1-2v-.4h.5v.2c0 .2-.1.4-.2.4h-.2v-.2zm-.5-2.3l.2-.2.2.2a.2.2 0 1 1-.4 0zm-.4-1v-.3h.4v.6h-.4zm-7-9.4c.3-.5.4-.5.2 0v.4h-.3zm.4-.7l1-2 .8-1.8.5-.5.7-.6a13 13 0 0 1-1.4 2.6l-1 1.6zm-47.6-2.5v-.4l.3-.2.3-.3v1.2h-.5zm21.2-8.3l-.5-1-.8-.8-.8-.7h-1l-.4-.4-.3-.3-.3-1-.3-1v-.8a2.7 2.7 0 0 1 1.1-1.9c.2-.1.3-.2.3-.4v-.2h-1-.3 2.7l.3-.8.3-.7.3-2 .3-2 .4-.3.4-.3v-1l1-1 1-1h1l.7-.5.6-.5h1l1.8.7 2.3 1 1.5.7 1 .4.2.4c.3.6 1.3 1.6 1.6 1.6l.6.4.3.4v.5a12.6 12.6 0 0 1-1.6 3.3h-.1V197h-.4l-.4-.2-.6.3-.6.3-.2.3-.2.4v1.2l.5.2 1 .5.5.3h.3v.8l-.2.2h-1l-.2.5-.2.4h-1l-.2.4-.3.4h-.2l-.2-1-.2-1 .3-.2.4-.2v-1.3h-1.2l-.4.5-.5.5-.2.8v.7l.3 1a9.8 9.8 0 0 1 .5 1.6v.6l-.5.6a2.3 2.3 0 0 0-.7 1l-.2.5.3 1 .2 1h-1l-.7-.7-.7-.6-.7-1c-.3-.6-.6-1-.7-1a10 10 0 0 0-2 2.1l-.7 1-.6.8-.5-1.2zm-.7-3.2l.7-.3.8-.6.8-.7h1.4l.2-.8.2-.8-.3-.6-.3-.6h-.6l-.3.2a30.4 30.4 0 0 0-4.1 3.9l-.2.3.3.3c.2.4.4.4 1.4.1zm5.3-4v-.3l-.2-.2h-.2v-1.7h-.6v1.3c.1.7.6 1.4 1 1.4h.2v-.4zm.4-3c0-.2-.1-.2-.2-.2s-.2 0-.2.2a.2.2 0 0 0 .2.2zm-1-3.2l-.5-.4h-.6a3.3 3.3 0 0 0 1.3.7h.3l-.5-.4zm5.7-.4v-.2h-.4v.2c.3.2.4.2.4 0zm1.3-.5l-.3-1-.3-.8a18.7 18.7 0 0 0-4-1.3h-.8l-.6.2-.5.2-.5-.3c-.7-.4-.6-.4-1.6.5l-.8.8v.4h6l.3.3 1 .8.6.5.7.2h.8.1v-.5zm-2.8-.7l-.2-.2h-.7l.5.2c.5.3.7.2.4-.1zm.3 14.7v-.3h.2v.2h-.2zm0-1.2v-.4h1c0 .2-.6.7-.8.7h-.2v-.4zm1.4-.3l.2-.2h.2v.4h-.4zm.2-1l-.2-.4v-.8l.5.4.5.4-.2.4v.4h-.2c-.1 0-.3-.2-.4-.4zm25.8-1.4l1.5-1.7 1.4-1.5.3-.6a6.3 6.3 0 0 0 .3-1.9v-.3l.2.2h.1v.5l-.2.5v1.5l-1.3 1-1.3 1-.3.6c-.4.6-.7.8-.7.4zm-45.2-2.6l.7-.4h.2l-.5.4-.7.4h-.2zm4-2.2l.4-.2h.3v.4h-1zm45-3.7l-.2-.3 1-1 1-1v-.5h-.6v-.6l.6-.4.6-.4h.2l.2.3h0-1l.4.3.3.2-.3.5a20.4 20.4 0 0 1-2.3 2.7z"/><path d="M167.4 285v-.4h.4l.4-.2v-.7l.6-.2.6-.2V282l-.3-.8-.6-1.2-.3-.3-.2-1c-.3-1-.6-2.2-1-3.3l-.8-2.5-.4-.6a4.7 4.7 0 0 0-1.3-1.5 12.9 12.9 0 0 1-1.9-2.1l-1-1-.5-1.2-.6-1.3-1.8-2a24.2 24.2 0 0 1-2.5-3.1l-.7-1-1 1-1 1-.7 1.4a9.7 9.7 0 0 0-1.6 3.6l-.3 1-.7 1.3-.4.8.3.6.4.5-.6.5-2 1.5-1.3 1v.5h.8l1 .2 1.5-.7 1.5-.7h.5v.7l-2 2-2 2v.4a1.1 1.1 0 0 0 .3.8l.3.5 1 .4 1 .5h.8l.3.3.4.3-.3.3-.3.4-1 .5-1.2.5-1.3.3-1.2.2-1-.2-1-.3-.4.5-.4.4-1.5.4-2 .4h-.3l-.7-.4-.6-.4-.2-.7-.2-.8v-2l.2-.8.2-.7-.3-.6-.3-.6.3-.3.4-.4c.1 0 .3-.2.4-.5l.3-.4h1l.7.7a3 3 0 0 0 2.1 1.3h.6v-.2a3 3 0 0 0-.8-.8l-1-.7-1-.4-1-.7-.3-.3.3-.5 1.4-1.6 1-1.2.3-.8a46.5 46.5 0 0 0 2-5.2l.4-1.4.8-1.2a6.4 6.4 0 0 0 .8-1.4 7.5 7.5 0 0 1 1.3-2.5l.5-.7v-1l-.2-1 .5-.3.8-.4h.3l.4-.5.5-.4v-.6a4.1 4.1 0 0 0-.5-.9l-.3-.3h-2.5l-1.7-.4-3.6-.6-1.7-.3-.8-.3-.7-.4-.6-.7-.6-.7v-.7a2.2 2.2 0 0 1-.1-.8c.1 0 .4.4.8 1l.7 1h2l1.2.5 1 .6 2 .4a29.3 29.3 0 0 0 5.9 1.1l2.8.3 3.2.4 2 .2 1 .4 2.4.7 1.2.3.3-.2h.2v-4l-.2-.3h.6l.4.5.5.4-.3.2h-.6v.4a1.1 1.1 0 0 0 .3.8l.2.5 1-.5 1-.4v-.6l-.4-.2-1-.2h.1l.7-.4v-.2l-.5-.8a3.1 3.1 0 0 0-.9-1.1l-.4-.4h-.6a2.7 2.7 0 0 0-1.2.3l-.6.2v.8h-.4l-1.6-.2h-1l-1.7-.6-2.8-1-1.5-.5h-.3l-.4.7-.4.6h-1.7l-1-.6-.8-.6v-.6l-.2-.7h-2.4l-1 .5-1 .6-.3-.2h-.3l2-2 2-2 .4-1 .3-1v-2l-.4-.8-1-1.7-.8-1h-.6L144 236l-1.4 1.4-1 1.4c-.6.7-1.3 1.8-1.7 2.2l-.8 1.2-.2.4-1-1-1-1-.4-1-.5-1-.4-2-.4-2v-2.5l.2-.4 1-1.3.7-.8v-1.5a4 4 0 0 1 .3-1.5h.1l.5.2.6.2h.3l.3-.2.2.4.2.4 1.8 1 3.3 1.8 1.6.7.3-.2 1.7-2 1.4-2 1.7-1.4a17.7 17.7 0 0 1 4.6-3.1l1-.4v-1a19.4 19.4 0 0 1-.2-2.4l-.2-1.4h.4l.2.4v.4l1.3-.5 2.3-.7 1-.3h3l.3.2h.3l-1.4.2a10 10 0 0 0-2.4.4l-1 .3-.5.4-.5.5-.3.8c-.1.4-.2 1.3-.3 2l-.2 1 .3 1.5.2 1.4.7 1.7.7 1.7h.6a1.8 1.8 0 0 1 1 .4l1.5.5 1 .3h3.4l1.5-.3 2.3-.6.7-.3h1.3l.5.2c1 .4.8.5-1.3 1l-1 .3h-2.6l-.5.2-.5.2-.5 1.3a18.9 18.9 0 0 1-1.1 2.5l-.6 1.3-.3 1.3-.2 1.3.2 1 .2 1.2.6 1.2.6 1.2 1 1 1 1v.7l-.6.5-.6.6h-1l-1-.6-1-.7-1-.3-1-.2h-.8v.7l-.2.7v.4h1.3l1.2.2h4.2v.7h-.4l-1.3.2-1 .2v.5l.6 1.2.5 1.2.4.3 1.8 1 2 1.3.7.5.4 1.3c.5 1.4.5 1.7.1 2.5l-.3.6h-1 0-.2l.7-.8.8-.8v-1l-.4-.4-.3-.4h-.5l-.3.8-.4 1-.3.3-.4.3-.8-.5-1.7-1-.7-.4h-.3v1.2l.8 1 .8 1v1l.7 1a7.1 7.1 0 0 0 1 1.4l.3.4h1.3l.4.5.5.5v1l1 1.2a31.1 31.1 0 0 0 2.8 2.3l1.6 1.2 2.7 2.8 2.7 2.8v.2c0 .3-.2.3-.8-.1l-.7-.4h-.3v2.2.4l.2.4.5-.2h.6l1 1 1 1h.6l.2-.3.3-.3-.5-.5-.8-1-.3-.3v-.5-.6h.7l1.3 1.3 1.2 1.3v1.2l.7.8.7 1 1 .7 1.6 1a23.2 23.2 0 0 0 3.7 1.3l.4.2.2.2H176V284l-.8-.8a4.4 4.4 0 0 1-.8-1.1l-.2-.7v-.6l-.2.3v2l-1 1-1 1h-4.4zm22.2-.6l-.7-.4h-.3v.3l.6.2.7.2h.2l-.5-.4zm-18-2.4l.2-1.2-.2-.3-.3-.3-.4.2-.4.2v2.7l.3.2.3.3.2-.3.3-.2.2-1.3zm17.8.6v-.4l-.3-.2a1.6 1.6 0 0 0-.9-.3l-.7-.2.7.8.7.7h.5zM187 281l-.3-.6-.4.2c-.4.3-.5.4-.1.8l.2.2h1l-.3-.6zm-15.6-1.8c.1-.4 0-.6-1-1.6l-1-1.2h-.5v.6a4.1 4.1 0 0 0 .5.9 2.1 2.1 0 0 1 .6 1l.4.5h1zm6.6-1.6v-.3l-1-.2-3.3-1-.2-.2H172l1 .4 1.5.6.6.3h1l1.4.3.3.2h.2v-.3zm1.3-2l.3-.4v-.4l-.3-1-.4-.6-1-.7-1-.7-1-1-1-1-.5-1-.4-1h-1v-.3l-.3-.5-.8-1-.6-1-.5-.3-.6-.3v-.7h-.6v3l.8.7.8.7h.6l.4.3.4.4v1l-.5.3-.5.3-.7-.2c-.3-.1-.6-.2-.7-.1a9.7 9.7 0 0 0 2.3 1.1l1.3 1 1 1 1.2.7 2 1 .8.6v.5h.2l.5-.4zm-1.6-2.3h.2l.2.2h-.6l.2-.2zm-9-11.2c0-.2-.1-.4-.2-.4l-.2-.2-.3.3v.2l.3.2c.4.2.6.2.6-.1zm-2-3v-.3l-.6-.6-.7-.6-.5.2-.5.2.6.4a2.1 2.1 0 0 1 1 .6l.3.3v.8l.2-.3a1.9 1.9 0 0 0 .2-.7zm5-3.3l.4-.7h0c0-.2-.1-.4-.3-.4h-.2l-.4.8-.4 1v.2h.6l.4-.6zm-2.4-.3l.3-.8.3-.3v1.5h.6l.3-.8v-.8-.6h-1v-.3l-.2-.3-.6-.4a1.8 1.8 0 0 0-1-.4h-.3l-1.3 1.2-1.3 1.5c0 .3.6.4 1.8.4h1l.4.3.6.3h.2v-.4zm-8.8-7.8c-.2-.3-1.5-1-1.6-.7s1 1 1.4 1h.3v-.2zm-19.2-11.2l-.4-.4-.5-.4.4.5c.4.4.5.5.5.3zm41.7 41v-.2h.2v.2h-.2zm8.5-21.6v-.7l.2-.2h0a1.4 1.4 0 0 1 0 .9v.6h-.3v-.6zm-1.7 0v-.4h.3c.1 0 .1.3.1.5v.3l-.2-.3zm3-1l-.2-.5.2-.4v-.3l.4.7a2.2 2.2 0 0 1 .5.8h-1v-.3zm-4.5-.7v-1l-.3-.3-.3-.3h-.6l-.7-.2-.5.2-.6.3-.4-.3-.4-.2v-.5h1.6l.6-.3.6-.3 1-1 1-1v-1.6l.2-.2.2-.2-.3-.8c-.2-.4-.8-1.6-1.4-2.6l-1-2-.2-.6-.4-2.2a15.5 15.5 0 0 0-.4-2.1 15.8 15.8 0 0 1-.9-4.2v-.7l-.6-.6-.6-.7-1-.4-1-.3-.3-.3-.3-.3 1.2.2h1.3l.4-.3.4-.4v-1l-.5-.7a3.4 3.4 0 0 1-.6-1.2l-.2-.5.5-.4.4-.4.8.5.8.4 1 1 1 1-.2.5-.2.6v9.6l1.3 2.7 1.3 2.7v.4a3.2 3.2 0 0 0 .3 1.4l.3 1.2-.2.3-.2.4v2.3l-.7 1.8a10.4 10.4 0 0 0-.8 2.5v.7l-.2.2h-.2v-1zm4-13.5c-.5-.1-.7-.4-.7-1v-.6l-.5-1.2-.7-1.7-.3-.5.2-2.8.3-2.7V228l-.2-.3-.3-.4v-1a8.8 8.8 0 0 0-.2-1.6v-.6h.5l.8 1.3 1.3 2a9.7 9.7 0 0 1 1.6 2.8l-.6 1-.6.7v1.2.3l.2.4h.6v-.3l.2-.4h1v.2a2 2 0 0 1 .3 1.1l.2.8h.3l.2 1.4v1.3l.4.7.4.7v1l-1 .5-1 .6h-2.7zm6.4-7.3l.2-.2h.2v.4h-.4zm-5-1.5v-.3l.3-.3.3-.2h.2l-.3.4c-.3.5-.5.6-.5.2zm-14.6-2.5v-.2h.8v.4h-.8zm-5-1.2l-1.3-.8h-4l-1.2-1-2.2-1.3-1-.4v-.2l.2-.3a7.9 7.9 0 0 0 1.2-3l.3-1v-1-1l.5-.3a9.2 9.2 0 0 1 2.3-.9l2-.6h1.8l2-.5 2.3-.5 1.4-.5 1-.5 1 .2 1 .2.8.5 1.8 1.4a7.1 7.1 0 0 0 1.4 1l.4.3h1.2l.5-.6.8-1a19.7 19.7 0 0 1 2.6-3.8c.1 0-.2.5-.5 1l-.6 1.2v.3l-.4.2-.4.2v1l-.4.7-.4.8v1.2l-.3.2-.3.2-1-.4-1.8-1a7.9 7.9 0 0 0-2.9-1.1h-.7v.5l1.2 1.4 2.4 2.6 1 1.4H184l-1 .5c-1.6.8-2.3 1.4-4.4 3.5l-2 2h-1.2l-1.4-.8zm12.5-4.2h0 .2.3l.2.2h-.2c-.2 0-.4 0-.5-.2zm4.4-1.3l-1.3-.6-.6-.3v-.6h.2l.5.4.2.4h.6l.4-.4.3-.5v.8l.3.5c.4.6.4.6-.6.3zm-34.3-9.4a3.6 3.6 0 0 0-.4-1.1v-.4l.3-.3.3-.2v.2a3.4 3.4 0 0 1 .1 1v1.4h.1l-.4-.6zM192 211a1.6 1.6 0 0 1 .7-.9l.4-.4v.2l-.7 1-.7.7zm-25.7-3v-.5h1c.2.1-.7 1.2-1 1.2h-.2v-.7zm31-3l.5-.4-.3.4-.4.4c-.1 0 0-.2.2-.4zm-28.4-.3v-.5h.3l.4.3v.2l-.4.2-.4.3zm-6.4-.3a4.1 4.1 0 0 1-.5-.9l-.2-.5V201l.2-.5.3-.6 1-.7 1-.8.3-.7.3-.7.2-1.8.3-1.8.4-.5.6-1v-.5l1-.7c1-.8 1.4-.8.5 0l-.6.5v.6h5l.5.4a12.7 12.7 0 0 0 3.1 2h.3v-.3-.3h.2a5.6 5.6 0 0 1 1.7.9l.6.5h.2l-.8-.8-.8-.7-.2-.8a5.6 5.6 0 0 0-.4-1.2l-.2-.4-1-.3-1.7-.6-1-.4h-1.5l-.5.3-.5.2-.4-.3-.3-.4.6-.5.6-.5h1l1.8.7 2.8 1.3 1 .6h.8v.4l1 1 .7.8h.2a.5.5 0 0 1 .5.3l.3.3-.3 1-.2 1-.4.4-.5.4-.5-.3-.4-.4h-1.8l-.4.2-2 2-1.8 1.8h-.3-.5l-.2-.3v-1.8l-.2-.3-.3-.3h-.8l-.5.4-.5.5v1.7l-.5-.3-.5-.4-.3.2-1 1-1 .7h-1.2l-.6.8a3.8 3.8 0 0 0-.9 1.3l-.2.5.2.5c.3.6.3.7 0 .7h-.3l-.3-.4zm8.4-9.4l-.8-.6-.8-.5H168l1 .7 1.2.5h.5zm27.3 9l.8-1a24.6 24.6 0 0 0 3.4-4.4l.5-.8.2.5.2.6-.2.4a16.3 16.3 0 0 1-1.7 2l-1.6 1.4c-1.4 1.4-1.6 1.6-1.6 1.2zm-22.5-3v-.4l.4-.2.4-.3-.2-.3v-.6l.2-.3h.6c.7.2 1.4.8 1.4 1l-.6.4-.6.3v.5h-1v-.3zm-5.4-1.5a.8.8 0 0 1 .2-.5h.2v.8h-.4zm34-8v-.2h.4v.2c-.1.3-.3.3-.4 0z"/><path d="M167.4 285v-.3h1v-.7l.7-.3.7-.3v-.4a9.4 9.4 0 0 0-1-2.8l-.4-.4v-.5a16.8 16.8 0 0 0-.9-3.2l-1-2.7-.5-.7a15.5 15.5 0 0 0-2.4-2.7l-2-2-.4-1-.4-1-1.7-2-1.8-2-1-1.6-1-1.5-.4.7-.3.7-.5.3-.4.3-.8 1.3a20.9 20.9 0 0 0-1.9 4l-.6 1.7-.7 1.4v.5l.2.6-.5.4-2 1.7-1.3 1 .2.2 1 .4.8.2 1.5-.6 1.4-.6h.8a6.4 6.4 0 0 1-1 1.3l-2 2.2-1 1v.5l.8.7.8.8 1 .3 1.3.3h.2v.8l-1.4.7-1.4.6-1.3.3-1.2.2-.6-.2-1.2-.2h-.4l-.5.5-.4.4-1.7.4-1.8.3-.7-.3-.6-.3-.2-.5a4 4 0 0 1-.3-1.5l-.2-1 .3-1.2.2-1.2h-.2a1.4 1.4 0 0 1-.2-.6v-.3l.4-.3a1.3 1.3 0 0 0 .7-.6l.3-.3h.7l.7.8.7 1 1 .2 1 .3.2-.2h.1l-1-1-1-.8-1-.5-1-.7-.2-.2.3-.6 1.4-1.8 1.2-1.2.5-1.4a20.6 20.6 0 0 0 1.2-3.5l.6-2 .5-.7a3.9 3.9 0 0 1 .8-1l.3-.3.3-1 .3-1 .8-1 .7-1-.2-.4V256h.7l.7-.2.5-.5.4-.4v-.6l-.3-.6v-.6h1.2l2.4.3 3 .3 1.8.2 1.8.7 1.7.6h1.4l.2-.8.3-.8v-1a9.9 9.9 0 0 0-.2-1.7v-.4h.3l.5.5.2.4-.2.3v.2.8l.4 1 1-.7 1-.6h0a.8.8 0 0 0-.2-.5l-.3-.2h-.8l.4-.3.6-.3h.2l.3.4a4.1 4.1 0 0 0 .5.9l.3.4h-1l-1.3 1.3-1.3 1.4v.4l.5.2 1.7.2h1l.4.3.4.4.2-.4.2-.4.2.3v.3h.7v.8l.5-.5c.3-.2.6-.4.7-.3a5.1 5.1 0 0 1-.9 1.6l-.3.2-1-.7a6.2 6.2 0 0 0-2.2-1h-.4v1.2l.2.5.2.6.6.5.6.6v1.3l.6.8.6.8v.8h-.2l-.2-.2v-.6l-.5-.6-.5-.6-.2.2a.8.8 0 0 0-.2.5v.4l.7.3.6.4v3.7l.6.7.6.6 1 .4 1 .4v1h-2.7l.3.3.3.3 1.4.7 1.4.7 1 .8.8.8 1 .6 2 1 .8.5v1.4l-.5.2h-.5l-1-.4-2-.6-1-.3h-2l.2.2 1.7 1 1.4.6h1.3l1.6.4.4.2h.2c.1 0 .2-.2.2-.4a9.8 9.8 0 0 1 1.3-2.2l.3-.4V274l-.4-.4c-.1-.3-.7-.7-1.2-1l-1-.5-1-1-1-1.2-.4-.8-.4-1h-1l-.2-.5a11.2 11.2 0 0 0-1.9-2.4l-.7-.8-.2-.4h1.5l.4.3.4.3.2.7.3 1 .2.3h.5l.3.5.4.5 2 1.6 2.2 1.6 1 1 2 2 1.2 1.4.4.4H182l-.2.6v2.5h1.7l1 .7 1 .8h.8l.2-.3.2-.3-1-1.2-1-1.3v-.2h.6l1.2 1.3 1.2 1.3v.8l.6.7a1.6 1.6 0 0 1 .6.8H188l-.3-.6-.4-.6h-.8v1h.7l.7.2.8.7 1 .7h.2v-1h.1l.8.5a18.5 18.5 0 0 0 4.5 2.1l1.4.5h-5l-.2-.3h-.3-.3l-.2.3H176v-1.2l-.5-.4-.5-.5-.5-1-.4-1h-.4v2l-.3.5a5.2 5.2 0 0 1-1 1.1l-.7.7h-4v-.4zm22.8-.2a4.5 4.5 0 0 0-1.4-1c-.1 0-.2.1-.2.3v.3l.6.2c.6.4 1 .4 1 .2zm-18.8-1l.2-.3.2-1 .2-1.2-.2-.4v-.5h-1l-.2.3-.2.2v1a7.7 7.7 0 0 1-.2 1.5l-.2.4h1c.1.1.2 0 .4-.2zm.4-4.5c0-.4-.6-1-1.6-2.2l-1-1h-.5v.3l.2 1 .2.7h.4l.3.7.4.7h1.5v-.2zm-5-19.8v-.6l-.7-.7-.7-.7-.7.3-.7.3h.1l1 .6.8.4v1.3l.3-.2h.3v-.6zm-5-3.6q-.3-.3-.3 0v.2h.4zm10.3 3.2l-.2-.2.6-.7.7-.7V256l.3.7.3.7-.2.5a1.5 1.5 0 0 1-.4.9l-.3.3h-.7v-.2zm.7-3.4v-.2h-.7v-1l-.2-.2h-.2l-.4.4-.3.3v-1.4l.3.2 1 .5.5.4.3.6c.2.6.2 1-.1.4zm20-.3c-.1-.1-.1-.3-.1-.6v-.5h.1l.4.4.3.5h-.1c-.2.3-.4.3-.6.1zm-4.5-1.2a1.4 1.4 0 0 1-.2-.6v-.4l-.5-.4-.5-.3H185v-.5h1.5l.7-.4.7-.4.6-.7a5.2 5.2 0 0 0 1-1.1l.3-.5v-1.6l.2.4.2.4v2.4l-.7 1.8-.6 2h0zm-18.8-1l-.5-.4h.2l.7.3.4.4h-.4l-.4-.5zm-25.4-1.2a9.1 9.1 0 0 0-2.3-.3l-1.5-.2-.8-.4-1.3-1-.6-.6v-1l.4.6c.6.8.8 1 1.5 1h.6l1 .4 2.7 1 1.8.5h-1.5zm22-2.8l-.8-1h-.5-.5l-.8.3-.7.2v.4l-.3.4h-1.4l-1.4-.2-1-.3-3-1-2-.7h-.4l-.2.5-.4.6h-2l-.6-.5-.6-.6-.4-.7-.3-.7h-2.4l-1 .5-1 .5h-.2v-.7l1.8-1.7 1.8-1.8.5-1 .5-1v-2.7l-.5-1a10.9 10.9 0 0 0-1.3-1.7l-.6-.8h-.5l-1.4 1.4-1.4 1.4-1 1.4-1.5 2-.8 1-.3.5h-.6l-.7-.7-.6-.7-.6-1.2-.6-1.3-.2-1.3v-1.3-2.8-.5l.2-.5.8-1 .7-.8.2-1.5V227h.3.3l.3.3.3.2h.7v.6l1 .4 2 1 2 1 1.4.7.6.4.4-.2.4-.3 1-1.4 1-1.4 1.7-1.7 1.8-1.6 1.4-1 2.2-1.3 1-.5a3.8 3.8 0 0 0 0-1.5l-.3-1.7v-.5h.6l2.4-.8 2.3-.6h.7v.3l.2.2h-.6l-1.3.3-.7.2-.6.5-.6.5-.3 1-.4 1v3.4l.8 2.2 1 2.5.2.4h1l.4.3 1.6.5 1 .3h3.3l1.4-.2 2.6-.7 1.2-.4.7.2h.7v.3l-.7.3-2.8.4h-2l-.4.3-.4.2v.3a14.2 14.2 0 0 1-1.4 3.6l-.6 1.2-.2 1.3-.3 1.3.3 1 .2 1.2.5 1 .5 1 1 1.2a7.6 7.6 0 0 1 1.1 1.4 1.6 1.6 0 0 1-.6.8l-.6.6h-1l-1-.6a5.6 5.6 0 0 0-3-1.2h-.5v.3l-.2.2v1.4l1 .2 2.4.3h2l.6-.2h1v.6l-1 .2h-1l-.4.2-.4.2v.6c0 .3.1.6 0 .6l-.7-1zm-5.7-1.4l-.3-.4-.6-.3-1-.3h-.2v.4l.7.5.8.5h.7zm-21.8-7.5v-.2h-.5l.2.2c.1.2.3.2.3 0zm-1-1.3l-.2-.2v.2c0 .1 0 .3.1.3v.2h.2l-.2-.3zm3.7-2.3a3.3 3.3 0 0 0-1.5-1.1c-.1.1 1.2 1.3 1.4 1.3h.2v-.2zm48.2 10.4a13.5 13.5 0 0 0-1.7-3.4l-1-1.5-.4-1.3-.4-1.3v-1.3l-.3-1-.4-1-.2-1.8-.2-1.7-.6-.8-.5-.8-1-.4-1-.5h1.7l.5-.5.5-.6v-1l-.7-1-.6-1 .4-.4.3-.4h.6l1.4 1.4 1.3 1.4v.4l-.2.3v2.5l-.1 5v2.5l.7 1.3 1.2 2.4.5 1 .4 1.6.4 2v.5h-.4v-.3zm2.7-6.2h-.6l-.2-1a12 12 0 0 0-1.3-3.3l-.2-.5.2-2 .2-2v-4l-.3-.4-.3-.5.2-1v-1.2l.6 1 1.2 1.7a12.8 12.8 0 0 1 1.5 2.5l-.5.8-.5.5-.2.7v.7l.4.5c.4.7.5.7 1.2 0l.5-.5h.6v.3a6 6 0 0 1 .6 1.9l.5 1.6v1.5l.5.4.4.4v1l-1 .6-1 .7h-2.4zm-17.8-12.3l-1.7-1-.7-.3-.8.2-1.6.2h-.7l-.6-.3-2-1.2-1.6-1-.4-.2.3-.5.5-1.4.4-1v-4l2-.7 2-.6h1.3l3.4-.6 2.2-.6 1-.4 1-.5h1l1 .2 1 .7 1.6 1.3.6.6h-.6l-1.7-.3h-1.2v.2a1.8 1.8 0 0 0 .5.7 16.3 16.3 0 0 1 1.7 2l1.8 2a1.8 1.8 0 0 1 .5.7v.2h-1l-1.6.8-1.6.8-2 2-2 2-.5.3c-.7.3-.5.4-1.8-.3zm16.2-6h.3v.2c.1.3.1.3-.4 0zm-4.3-3.2l-1-.5-.5-.2h1.4l.5-.5.4-.4h.1a2.9 2.9 0 0 1 .2.9v.7h-.6l-.5-.3zm1.2-2.3l.2-.4.2-.3h.2v.4c-.1.3-.5.4-.5.1zm-31.4-4.3c0-.1-.1-.4-.1-.6v-.5h.5v.7h-.1l-.2.2zm10-5l.3-.2h.2v.2l-.3.2h-.2zm-4.2-3.8a3.5 3.5 0 0 1-.6-1.4v-.6l.2-.8.3-.7.8-.8 1-.7c.1 0 .3-.2.4-.5l.3-.6.3-1.6a6.4 6.4 0 0 0 .3-2v-.6l.5-.6a1.8 1.8 0 0 0 .5-.7l.4-.6.3-.3.3.4.2.4h5l1.6 1.2 2 1.2h.3v-.6h.3l1 .6c.8.5 1.3.7 1.3.4l-1-1-1-.8V192l-.5-.6-.6-.6h-.6l-1.6-.5-1-.4H170l-.2-.2.5-.5.4-.5h1l1.8.7 2.8 1.3 1 .6h.8l.5.8.5.8.5.3 1 .6h.4v.2c0 .2-.2.7-.3 1.2l-.3 1-.3.3-.3.2-.6-.4-.7-.4h-.6l-1.2.2-.5.2-1.8 1.8-1.7 1.7h-.6l-.2-.3-.2-.4v-1.4l-.3-.3c-.4-.5-1-.5-1.7.1l-.4.4v1.2.2h-.2l-.2-.2-.3-.2-.4.2-1.2 1-.8.6h-1.2l-.7.8a7.1 7.1 0 0 0-1 1.4l-.2.5v.5c.2.8 0 .7-.4 0zm8.4-9l.3-.2-1-.5-1-.5h-1.4a8.5 8.5 0 0 0 2.5 1.3l.4-.2zm6.6-3v-.2h-.2q-.3.3 0 .3h.2zm-1.5 8.8v-.4h1l-.3-.2-.4-.3v-.6h.4l1 .3.6.3v.6l-.6.2-.6.2v.4h-1.2v-.5zm25.3.1a13.7 13.7 0 0 1 1.3-2l.2-.4h.3v.2l-.3.6-.3.5h-.2l-.7.6-.5.4z"/><path d="M167.5 285h0 1v-1h.4c.5-.2.7-.1.7.4v.4h.6v-.5l.4.2h.5l.3-.4.4-.4v-1l.2-1v-1.3h-1.5l-.2.4-.3.5v1h-.4l-.3-.8a5.4 5.4 0 0 0-.7-1.3l-.4-.5v-1l-.8-2.5-.8-2.4-.7-1-.8-1-.5-.4a12.9 12.9 0 0 1-1.7-1.6l-1-1.3-.4-1c-.5-1-1-1.7-2.8-3.8l-1.3-1.5-1-1.5a9.9 9.9 0 0 0-1.1-1.7h-.1l-.2.6v.6l-.7.6-.6.7-1 1.5-1 1.5-.6 1.6a10.9 10.9 0 0 1-1 2.5l-.5 1v.6l.2.5-1.2 1-2 1.7-.8.7v.2l1.2.4 1 .2 1.6-.6 1.6-.7.2.2.2.2-1.2 1.2-2 2.2-1 1 .2.5v.5l.8.6 1 .6 1 .2 1 .4.2.2-.4.4-.4.4-1.2.5-1.2.5h-2.5l-1-.2-.8-.2-.5.5-.4.4-.8.3-1.8.4h-1l-.6-.2a1.5 1.5 0 0 1-.9-.6l-.2-.3-.3-1.2-.2-1 .3-1 .3-1-.3-.6-.3-.5v-.3l.2-.3h.7v-.4l.3-.4h.7l.7.8.6.8.7.2 1.4.3.6.2v-.6l-1-1-1-.8-1-.6-1-.5v-.3c0-.4.4-1 1.5-2l1-1 .6-1.3.6-1.3.6-2.3c.8-2.6.8-2.8 1.7-3.8l.7-.7v-.6a9.4 9.4 0 0 1 1.4-2.6l.5-.6-.2-.8a3.6 3.6 0 0 1-.2-1v-.4l.8-.2.8-.2.6-.4.5-.5-.4-.6-.4-.6.2-.2v-.2h.6l4.3.4 3.7.5 2.2.8 2.2.7.3-.3.3-.2v-1l.3-.2.2-.2h.8l.5-.4c.8-.7.8-.5-.2.6l-1 1v.8l1 .2 1 .2v2.2l.8.8.7.8v1.2l-.4.4-.4.4v.8l.5.2c.3.1.7.3.7.4l.2.3v1.6l-.2 1.6 1 1 .8 1h.3a.9.9 0 0 1 .7.3l.4.3v.8h-.8l-.8-.2-.8-.2h-.3l.7.6.7.6.7.2.7.2 1 .7 1 .7v.6h.6l2 1 1.6 1v.7l-.3.4v.3h-.8l-2.7-.6-1.8-.5h-1.4v.2l.2.2 2 1 1.8.7h1.4l.7.3.8.3h.1l.2-.5v-.5l.8-1 .8-1.2v-.6a6.1 6.1 0 0 0-.5-1.2l-.3-.5-1-.5-1-.5-1-1-1-1.2-.4-1-.4-1h-.8l-.8-1-1.5-2-.8-1 .3-.2h1l.4.3.4.4.2 1v.8l.6.3.5.3v.4.4l.5.3 2.4 1.7 1.8 1.3 1.8 2 1.7 2-.4.3-.4.2-.2 1.5-.2 1.6h.3l.3.2h1.5l1 .8 1 .8h.7l.4-.5.3-.5-1-1c-1-1-1-1.3-.7-1.3h.3l1 1 1 1v1l.5.6c.6.8.6 1-.1.8h-.5l-.3-.6v-.6h-.4c-.4.2-.8.5-.8.7s1 .8 1.2.8h.4l.8.7.8.7h.6v-.3c0-.4.2-.4 1 .2a24.8 24.8 0 0 0 4.4 2l1 .4h-4.3l-.5-.3-1.3-.8-1-.6-.3.2h-.3v.4l1 .3 1 .5h.2H176V284l-.7-.7-.6-.6-.4-1-.3-1h-.4v2.2l-1 1-1 1h-4zm4.4-5.7v-.2l-.2-.4a11.5 11.5 0 0 0-1.4-1.7l-1.2-1.3h-.3a.5.5 0 0 0-.4.2v.2l.2.8.2.8.4.5.8 1 .4.5h.6l1-.3zm-5-19.7l.3-.8-.8-1-.8-.8-.7.4-.7.3v.5h.6l1 .4.4.3v.6c0 .2.1.5.1.7h.4a2 2 0 0 0 .4-.8zm-3.7-2.4l.3-.3h-1v.6h.5zm-.6-1v-.2l-.5-.3-.6-.3v.2h-.2l.5.4a.9.9 0 0 0 .7.3h.2v-.2zm10 2.8l-.2-.2.5-.7.6-1v-.2h.3v1.4l-.3.4c-.5.4-.8.5-1 .2zm-2-1.6l.5-.6.6-.4v.4l-.3.4-.4.4h-.5v-.2zm2-2a.7.7 0 0 1-.1-.5v-.4h.1a2 2 0 0 1 .9.9c0 .2-.7.2-1 0zm21-.4v-.3h.2c.2.2.2.5 0 .5h-.2v-.3zm-22-1v-.3h.3l.3.3zm-1.2-.7c0-.2.1-.2.2-.2s.2 0 .2.2a.2.2 0 0 1-.2.2zm18.5-.2v-.4l-.6-.2-1-.2h-.5l.8-.3.7-.4 1-1 1-1a.9.9 0 0 1 .1.5v.5h-.4v.7l-.5 1-.4 1-.2-.4zm-21-1.3v-.3l-.3-.2-.3-.3.2-.2c.1-.1.2-.2.3-.1a1.8 1.8 0 0 0 .5.7l.4.7h-.8v-.3zm-26.5-.5c-1-.2-1.8-.5-2-.8l-.2-.3 1 .2h1l.7.3c.6.3 1 .7.5.6zm23.4-.5l-.3-.5h.2a1.1 1.1 0 0 1 .6.7v.3h-.1c-.1 0-.3-.3-.4-.5zm1.4-2.3l-.8-.8h2.2l1-.2.8-.2h.8v.2c0 .3-.3.3-1.5.5h-1l-.4.4-.3.4-.8-.8zm-4.2.4l-.7-.2h-.8l-1.5-.5-3.2-1.2-1.7-.7h-.4l-.3.3a.7.7 0 0 1-.4.6l-.4.4H151l-.7-.5-.6-.4-.4-.8-.5-.8H146l-.7.4-.8.4h-.5l.5-.4 2-2 1.6-1.6v-.7h.4v-2l-.2-1.8-.2-.6a17.6 17.6 0 0 0-2.4-3h-.3l-1.2 1a18.9 18.9 0 0 0-3.2 3.7l-1 1.4a7.1 7.1 0 0 0-1 1.4v.2h-.8l-.7-.8-.7-.7-.4-1-.4-1-.3-1.5-.3-1.5V233l.2-.6.2-.6 1-1.2 1-1V227h.3l2.2 1 3 1.6 1.8 1 1 .6.4.2.3-.2 1.4-1.5 1-1.4 1.5-1.6 1.6-1.6 1.8-1 1.7-1.2.8-.2.8-.2V221a13.6 13.6 0 0 0-.2-2v-.5h.4l1.7-.5 1.2-.4h.6l-.7.3-.6.4-.3.4a6.2 6.2 0 0 0-.7 1.9l-.4 1.4.3 1.8v1.7l.3.7a10.7 10.7 0 0 1 .7 1.9l.4 1.2.5.2 2 .7 1.7.5 2 .2h2v.3a15.2 15.2 0 0 1-1.6 4l-.6 1.4v3l.3 1.2.3 1.2 1 1.2 1 1.3.6.5.6.6-.6.8-.5.7h-1l-1-.6-.8-.6-1-.3-1.2-.4h-.3l-.5.5-.5.5v1.2h1.8l.3.3.4.3h-.4l-1.2.3-.7.3v.6h-.1l-.8-.2zm-.7-.8a2.2 2.2 0 0 0-.5-.8l-.3-.3-1-.3c-1-.4-1-.4-.7.2l.2.4 1 .6 1.2.6h.2v-.4zm-22-7.8v-.3l-.3-.2h-.4l-.7-1.6a10.8 10.8 0 0 1-.8-1.9h-.1l.2 1a4.9 4.9 0 0 0 .6 1.7l.4.8h.4v.2c0 .3.4.8.6.8h.2v-.3zm2.5-3.7v-.4l-.5-.4-.6-.4h-1l.8.8 1 .8h.1v-.4zm47 7.4a10.5 10.5 0 0 1-1.9-4.9l-.2-1.5-.2-.6-.3-.5-.2-1.5a8.3 8.3 0 0 0-.3-2.2l-.2-.7-.5-.6-.5-.7-.5-.2-.5-.2h1l.4-.5.4-.5v-1l-.6-1-.6-1v-.7h.6l.7.7 1.3 1.3.5.5-.2 1-.2 1v9.5l.4 1c.8 1 2.7 5.6 2.4 5.8a5.7 5.7 0 0 1-1.2-1.8zm4.7-3.2h-1.4v-1.2l-.4-1a11.9 11.9 0 0 0-.8-2l-.3-1V234c.1-.8.2-2.4.3-3.6v-2l-.3-.6-.3-.6v-1.4h.2c.1 0 .2.2.3.4a4.2 4.2 0 0 0 .9 1.4l1.2 1.8.4.8-.5.5-.5.4v.8l-.2.8.4.5.3.5h.6l.6-.5.6-.5.3.3h.3v1 .5a5.8 5.8 0 0 1 .6 2.6v.8l.4.5.5.4v.4l-.2.4-.8.6-.8.5zm-21.5-10.5v-.2h.7l1.5-.2h.5l-2.3.7-.3-.2zm2.5-2.2l-1.4-.8H169l-.5-.2-2-1.3-1.6-1v-.3a10.9 10.9 0 0 0 .5-1.7l.4-1.4v-3l.5-.3 2-.8 1.6-.5h2.8l2.3-.6 2.3-.6.6-.3.7-.3h2l1 .6 1.4 1 .5.5H182l-1.4-.2v.3l-.2.2 1.3 1.3 3.3 4h-1l-1.6.8-1.5.8-2 2c-2 2-2.4 2.4-3 2.4l-1.7-.8zm12.8-9v-.4h.4v.8l-.3.2h-.1zm-30.6-6.7v-.3h.4v.4c0 .5-.1.5-.3.1zm5.6-9.3a3.4 3.4 0 0 1-.1-1v-.6-.5l.3-.5 1-.8.8-.7.4-.8.3-.8.4-2 .3-2 .3-.2.4-.3v-1h.3l.4.2v.2h4.8l.8.5 1.7 1.2 1 .7h.7v-.6l.7.5 1.2.7.4.2h.2v-.2l-1-.8-1-1v-.3a3.6 3.6 0 0 1 .2-1l.3-.7h.5v.2l.8 1 .8 1h.3l.5.3.2.2-.3 1-.6 1.2-.4.4-.5-.4-.4-.4h-2-.4a12.9 12.9 0 0 0-2.1 1.9l-1.6 1.7h-.7l-.2-1v-1l-.3-.4-.4-.3h-1l-.5.4-.5.5v1h-.4l-.3-.2-1.2 1-1.2 1H164l-.7.7-.6.7-.4.8c-.3.8-.5 1-.7.4zm9-8h.7-.1l-.2-.2h-.8l-1-.5-.8-.5h-1.3v.4l1 .5a3.4 3.4 0 0 0 2.4.5zm4.8 5.7v-.3h.7v.5h-1zm.8-1l-.5-.3.2-.2.2-.2.7.3.7.3v.4h-.8l-.5-.4zm-.3-8.5l-.3-.4-1-.2-1.8-.6-.8-.4h-.8l-1.3.2h-.5v-.4l.6-.4.6-.5 1.3.4a17.8 17.8 0 0 1 4.4 2.1c.4.5.1.6-.3.1z"/><path d="M167.6 285.2v-.2h2l1-.2.6-.2h.4l.4-.6.4-.5v-.8a17.7 17.7 0 0 0-.1-2.3V279l-.5-.6a32.6 32.6 0 0 0-3.1-3.3l-6.2-6.6-.7-.8-.2-1-.3-.8-.5-.7a3.6 3.6 0 0 1-.4-.9v-.3h-.4l-.4-.2-1-1-1.2-1.6-1-2-1-1.5-.7-.4-.7-.4-1.5-1.6-1.4-1.8v-.2h1.7l4 .4 2.3.3 2 .6 2.8.8 2 .6 1 .3v1.5h-.4v-.8h-1l-.7.4-.7.3v1h.6l1 .4.5.3v1l.2.3.2.2h1l.3-1 .3-.8h.5v.6h-.3l-.2 1-.2 1.5v.5h.4l.6.3.3.2v3.5l.8 1 .8 1 .7.2h.7v.2c0 .2-.2.3-.4.3l-.3.2-1-.3-1-.3h-.1c-.1 0-.1.3-.1.5v.4l.3.4 2 1 1.5.6.8 1 .8.8 1.2.6 2 1 .7.4v.7h-.4l-.3.2-1-.3a18.6 18.6 0 0 0-3.9-1l-.8-.2-.4.2h-.7v.7l.2.2 1.8.8 1.4.7h1.6l1.6.3h.2l.2.2h1v-.2h.1-.2c-.1 0-.2-.2-.2-.4v-.3l.8-1.2.8-1.2v-1l-.4-1-.4-.8-1-.5-1-.5-1-1.2-1.2-1.3-.2-.5a.9.9 0 0 1-.1-.5 28.2 28.2 0 0 1 3.9 2.9 37.3 37.3 0 0 1 3.2 3.6c0 .1-.1.2-.3.2h-.3l-.2.5-.2.6v3h2l1 .8 1 .8a.9.9 0 0 1-.3.6l-.3.6h.4.5l1.2.6 1.2.6.4.4.4.4h-.3l-.4.2v.7l1 .4 1 .4h-14V284l-.7-.7-.7-.7-.3-1-.4-1h-.7v2.6l-1 1-1 1h-3.6v.4zm-.5-17h0-.7.3l.5.2h.1v-.2zm-3-11l.2-.3-.6-.5-1.2-.8-.5-.4h-.8v.3.2l.6.5.7.5v1l.3.2h.3.6l.5-.2v-.4zm27.8 28v-.2h-.5a5 5 0 0 1-1.9-1.3.5.5 0 0 1 .3-.5l.2-.3 1.2.7 2 1 1.7.6.6.2h-3.7v-.2zm-52.3-1.8l-.6-.4-.2-1-.3-1.2.3-1.3.2-1.3-.2-.4-.3-.5.2-.2h0 .2.2l.5-.6.4-.6 1 1 .8 1 1.7.3 1.6.4.7-.2h2l.6.5a5.4 5.4 0 0 0 2.9 1.5l.8.2v.4l-1 .6-1.2.5-1.2.3-1.3.2-1.2-.2-1.2-.2h-.3l-.3.2v.5l-1.3.4-2 .4h-.5l-.7-.4zm48.3-2.2l-.4-.2v-.7l.5.5c.4.4.4.7-.1.4zm-.8-2v-.3h.4v.6h-.4zm-42.8-2.4a16.1 16.1 0 0 0-3-2.1l-.6-.2v-.7l1.3-1.4c1.7-1.8 2.2-2.8 3-6.7l.7-2.3.3-.5.4-.2.4-.2 1-1.3 1-1.3h.2l.7-.5.4-.5v-.2l-.6-1.4-.5-1.2h.2v-.2h1l.5-.4.5-.3 1 1 1 1h.7l.5.7.5.6v.8l-.7.8a11.2 11.2 0 0 0-1.6 2.2l-1 1.4-.7 2-1 2.6-.4.6v1.2h-.2l-1.2.7-3.7 2-2.8 1.4h0l.2.4h.2l1.2-.4 1-.3h2.2l1 .3 1 .2 1.3-.5 1.3-.6h.1v.2l-1 1.2-2 2-.7.6-1.3.2h-1.3l-1-.8zm-.2-3.4v-.2h.2q.5 0 0 .3h-.2v-.2zm1.3-.6v-.2l.8-.5a2.4 2.4 0 0 1 1.1-.6l.3-.2v.2a2.7 2.7 0 0 1-.7.8l-.6.7h-.3-.5zm28.2-6a.6.6 0 0 1-.1-.4v-.3l.2.2h.3v.5zm-2-2.5l-.7-.7.4-.2h.3l.4.4a2.2 2.2 0 0 1 .5.8v.4h-.2l-.8-.6zm-23.4-4.8l.4-.7.4-.4h.5v.6l-.7.3-.6.4v-.3zm24.6-1v-.2l.4-.4.3-.3v.6l-.3.3c-.3.4-.4.4-.4 0zm-8-4.4v-.3h.2c.3 0 .3.2 0 .3l-.2.2v-.2zm1.5-5.8l-.3-.4h1.7.7l.8-.3.2.3h.3-1.5l-.8.4-.8.3-.3-.3zm-5-.3v-.5l-.6-.6-.5-.6h-.3l-1-.3-1-.3h-.3 0a6.9 6.9 0 0 0 1.1 1.3l1 1h-.2l-2.5-1-3-1-.5-.2-.6.6-.5.7H151l-.5-.3-.5-.3-.3-.6a3.6 3.6 0 0 0-.7-1l-.3-.4h-1.5l.3-.3.2-.3h.7l.3-.3.4-.4v-1l.2-.8-.2-1.8v-1.8-.7a5.1 5.1 0 0 0-.9-1.6l-.5-1-.8-.7-.8-.7h-.5l-1.6 1.6-1.6 1.5-.3-.4v-.5l-1-.4-.8-.4h0a3 3 0 0 1 .8-.8l.8-.7.8-.2a18.7 18.7 0 0 0 4-1.3l1.4-.7 1-1.5 1-1.5 1.4-1.4a16.2 16.2 0 0 1 3.9-3l1.5-1h1l.4 1.5a40.7 40.7 0 0 0 2.2 5.8 17.4 17.4 0 0 0 4.5 1.7h.6l1.5-.2h1.6c.1.1-.3 1-1.3 3.4l-.8 1.7v3l.3 1.2.3 1.2.8 1a13.3 13.3 0 0 0 1.4 1.9l.8.8-.3.4-.3.4-.5.3-.5.2-.4-.2-1-.7-.5-.5-1.4-.4-1.4-.4-.8.5-1 .8h-.1l.2.6v.6l.3.3.3.3.5-.2.6-.2v.2l.2.2h-.5l-.6.4-.2.2h-1v-.5zm-23.5-7.4l-.6-.6-.4-1-.4-.8v-1.8l.3.7.3 1a7.8 7.8 0 0 0 1.6 2.4c.4.3.5.7.2.7l-.8-.6zm55-.2h-.8v-1l-.8-2.4-.5-1.3V233h.2l1 .5a3.1 3.1 0 0 0 1.3.6h.3l.5-.5.6-.5h.1l.2.8a7.5 7.5 0 0 0 .5 1.6l.3 1v1.4l.5.6.5.5v.3c0 .2-.4.5-.8.7l-.7.5zm-54-1.3l-.7-.8-.4-1a13.3 13.3 0 0 1-.5-1.9l-.2-.8-.2-.2-.3-.2-.3.6-.3.7V233v-.7-.7l1-.8 1-1V227h.3l.2.2 1 .6 2 1 2.4 1.2c1.8.8 2 1 2 1v.3h-.5l-1.3.2h-.6l-.3-.3-.8-.4-.5-.2v.4l.3.6v.2l-1.4.8-1.8 1.2-.4.4v.5l.4.4 1 .8.5.3.2.6.3.6-.4.6c-.4 1-1 1.8-1.2 1.8a2 2 0 0 1-.9-.9zm35.4-11.5l-1.7-1-1 .3h-1.7-.7l-1.3-.7-1.8-1.3-.6-.5.4-1.6.5-1.6v-3l1-.4a21.6 21.6 0 0 1 4.4-1 28.9 28.9 0 0 0 6.6-1.6l.8-.4.8.2h.8l1 .6 1 .7v.4h-2.5v.5l1 1a18 18 0 0 1 3.3 4l-.5.2-2 .8-1.4.7-2 2.2-2 2.2h-.3l-2-1zm-9-27.6l-.5-1-.2-.8.2-.5a22.1 22.1 0 0 0 .5-2.5l.4-2 .2-.2a2.2 2.2 0 0 0 .5-.8l.2-.5.4.2h.4 4.5l1.2.8 2 1.3 1 .6h.3l.3-.3.5.3c.3.1.5.3.5.4l-1.5.4-1.4.4v1l-1.2 1.2-1.2 1.3h-.4v-2l-.4-.4-.5-.3h-1l-1.7 1.5-2 1.8-.4.2zm9.2-4.2l-.5-.6-.6-.4h-.4l-.7-.3-.4-.3h-1l-1-.5-1-.5h-2.4v.4l.7.3 2 1 1.2.5h1.2l1.2-.2 1 .6c.7.3 1 .4 1 .1zm4.7.2a1.3 1.3 0 0 1-.1-.6v-.6l-1-.8-1-.8v-.2a.9.9 0 0 1 .3-.7l.2-.3 1 1 1 1h.5v.5a2.7 2.7 0 0 1-.3 1.2l-.3.7h-.2l-.3-.2zm-5.6-6l-.3-.3h.2l.6.3.5.3h-.3a.9.9 0 0 1-.7-.3zm-3.4-.2l.2-.4.3-.3h.5l1 .2h.3l-1 .3c-1 .3-1.2.3-1.2.1zm-55 30.4q0-.4-.3-.3h-1.2l-.2-.5-.5-1c-.4-.7-.5-.8-.8-1l-2.8.6-1 .2h-.6a2.8 2.8 0 0 0-1.3.4c-.4.2-.6.3-.7.5l-.3.3v.3a4.9 4.9 0 0 0 0 1.7v1.6.2.2l-.4.5-.3.5h.3l.3-.2.4-.2c.4-.2.4-.2.4.2s-.1.3-.1.5a.9.9 0 0 0 0 .7h.6l.4.4h.2c.1 0 .1.1.1.2h.5v1.3h.4c.2.1.2.1.2.3a.5.5 0 0 0 .2.4l.3.2.3-.2h.2l-.2.3-.4.4c0 .1-.1.3-.2.3v.2l-.4.4-.4.4h-.1l-.5.6v.2.3.8l-.2.3c0 .2-.1.5-.1.7a.6.6 0 0 0-.1.4c-.1 0-.1.1-.1.2v.8h-.1"/><path d="M105.5 234.8c-.1 0-.1.1-.1.2v.4a.6.6 0 0 0-.1.4v.4c0 .1 0 .2-.1.2v.2c0 .2-.1.6-.2.6a6.1 6.1 0 0 0-.1 1.9 4.9 4.9 0 0 1-.1 1.2v3.4c.1 0 .1.1.1.2v.8c0 .1 0 .1.1.2v.3a.4.4 0 0 1 .1.3h0a.5.5 0 0 1 0 .5v.3c0 .3 0 .3-.2.5l-.3.2-.7.3-.6.2-2 1-.4.2h-.1c0 .1.2.1.7-.1l.5-.3h.2l1.3-.6h1c-.1.2-.2.5-.4.6h-.1l-.4.6h0l-.3.6h-.1c-.1 0-.2.2-.2.3h-.1l-.6 1.2a.4.4 0 0 0-.1.3h0c-.1 0-.2.3-.3.7a.4.4 0 0 1-.1.3 4.3 4.3 0 0 0 0 1.6 1.4 1.4 0 0 0 .2.6.6.6 0 0 0 .1.4c0 .2.2.3.3.4s.1 0 .1-.1v-.2h-.1a.9.9 0 0 0-.1-.5 4.4 4.4 0 0 1-.2-1.6c0-.4 0-.6.1-.7v-.2a3.7 3.7 0 0 1 .5-1.1v-.5h.1l.2-.4.3-.5h.1v-.2l.2-.2h0l.2-.3.2-.3h.1v.7h.1v-.2l.4-.3c.1 0 .2.2.2.4h0c.1 0 .1.5 0 .7s-.1.2-.1 1a2 2 0 0 1-.1 1.3v.3a4.3 4.3 0 0 1-.2 1.1 1.3 1.3 0 0 0-.1.6v3.3a.6.6 0 0 0 0 .6 20.9 20.9 0 0 1 .1 2.5v.6c.1.1.1.3.1.6v.7c0 .1.1 1 .1 1.6v1.6c0 .1.2.1.2.2s.2.1.2.3a1.9 1.9 0 0 0 .3 1h.1c0 .1.1.1.2.2h.3v.3a.2.2 0 0 1 .2.2h0l.2.2.2.3.2.3a.2.2 0 0 1 .2.2h0v.2h.1v.3l.6 1 .3.5.2.3.2.3h.1v.2c.1.1.1.1.1.2h.1v.2l.2.2h0l.4.6h.1c0 .1 0 .2.1.2h0l.2.3c0 .1.1.3.2.3s0 .1.1.2h0l.2.3.2.7c0 .2 0 .3.1.3h0c0 .1.1.3.1.4s.1.1-.1.2l-.2.2h-1c0 .1 0 .1-.1.1h-.2v.2l-.3.3c0 .1.1.3.2.3h0a.8.8 0 0 1 .2.4h.1l.2.3.2.2.4.5v.2l.4.4.3.4v.2c.2.2.2.3.3.7a1.3 1.3 0 0 1 .1.6 1.7 1.7 0 0 0 .1.7v.4.3a1.1 1.1 0 0 0-.3.8.9.9 0 0 0 .1.5c.2.3.3.5.6.6a1.1 1.1 0 0 0 .8 0 1.3 1.3 0 0 0 .6-.7l.3-.4.2-.3.3-.5h0 .1l.2-.3.2-.4c0-.1.2-.2.3-.4l.4-.7h.2 0c0-.1 0-.1.1-.2h.1c0-.1.1-.2.2-.4l.2-.4v-.3l.2-.3v-.3h0v-.3a.4.4 0 0 0 .1-.3h0l.2-.3c0-.1.1-.2.1-.3a.9.9 0 0 0 .3-.7h.1c0-.1 0-.1-.1-.1h-.4l-.4-.3-.6-.4-.5-.4h-.3l-.7-.4c-.6-.2-.8-.3-1-.5v-.2-.3a1.2 1.2 0 0 1-.4-.8s0-.2-.1-.2-.1-.2-.1-.3a.4.4 0 0 0-.1-.3c0-.1-.1-.3-.1-.4v-.6a2.4 2.4 0 0 1-.2-.8v-.5c-.1 0-.1-.2-.1-.4a.6.6 0 0 1-.1-.4h-.1a6.5 6.5 0 0 0-.4-1.3 2 2 0 0 1-.4-.8h0c-.1-.1-.1-.3-.2-.6s0-.2-.1-.2-.1-.1-.1-.4-.1-.5-.2-.5-.1-.1-.1-.3 0-.2-.1-.3a1.1 1.1 0 0 1-.2-.8 2.8 2.8 0 0 0 .1-.9 16.2 16.2 0 0 1 .1-2.2v-.7a12.3 12.3 0 0 0 .2-1.9v-.4c.1 0 .1 0 .1-.1h.3a.2.2 0 0 1 .2.2h0l.6.4.3.2 1.3 1h.1l.3.2c1.4.7 1.3.7 1.7.7h1.8c0-.1 0-.1.1-.1h.8l.3-.2.7-.3h.3l.8-.4a.5.5 0 0 0 .3-.5c0-.1.1-.2.2-.3s.2-.3.3-.3a.7.7 0 0 0 .4-.5c0-.2 0-.2-.1-.2h.1l.5-.6h0c0-.1 0-.1.1-.2l.3-.3h.2v-.2c-.1-.3-.1-.4 0-.4h.1l.7-.8.2-.4.7-1 1-1c.4-.4.5-.4.7-.1l.2.3a1.8 1.8 0 0 0 .5.7c.2.2.3.2.6 0l.4-.2.3-.2h.3l1-1h.2a1 1 0 0 0 .5-.4l.6-.2h1.3a.6.6 0 0 1 .7-.1h1.7l.4-.3c.2-.3.3-.3.3-.5h-.1v-.3h0l-.6-.6-.6-.5v-.2h-.5l-.2-.2-.4-.2-1-.3h-.2l-.8-.3H128l-.5-.2h-.4v.2h-.2a2.7 2.7 0 0 0-.7.8h-.2v.4h-.1c0 .1-.1.3-.2.3l-.3.3-.5.6v.2l-.2.5v.2h-.1-.2-.2-.3l-.2.2h-.5l-.6.4h-.3l-.3.2h-.2l-1 .6-.2.2h-.3l-.4.3-.3.2h-.5l-.2.2-.3.3h-.2l-.4.4a.4.4 0 0 1-.1.3v.2h-.1c-.1 0-.2 0-.4-.3l-.4-.4v-.2-1a.9.9 0 0 1-.3-.6l-.2-.3-.2-.3c0-.1-.1-.2-.2-.3v-.2l-.2-.3-.3-.4h-.1v-.5c-.1-.1-.1-.2-.1-.4a1.3 1.3 0 0 0 .1-.6v-1.5c0-.7 0-1-.1-1l-.2-.4a4.1 4.1 0 0 0-.5-.9 1.3 1.3 0 0 1-.6-.7h0v-.2l-.4-.4-.4-.4v-.2h0l-.2-.3c-.4-.4-.4-.4-.4-.8a1.7 1.7 0 0 0 .1-.7 1.3 1.3 0 0 0 .1-.6c.1-.2.1-.4.2-.4a3.6 3.6 0 0 0 .4-.9v-.8h.1c0-.1 0-.2.1-.2l.2-.4.2-.5.2-.2a6.4 6.4 0 0 1 1-1.3l.2-.3c.3-.4.6-.5.7-.3l.6.6.7.3c.1.1.4.4.4.6s.4.5.7.6h.3l.3.2.2.2h.2.3c0 .1 0 .1.1.1h1l.3.2h.4l1 .6.6.3h.2 0l.4.2.4.2h1l.3.3.4.3h2.2c.1.1.2.1.2.2l.5.2a.3.3 0 0 0 .3-.3h0l-.5-.4-.6-.6s.2-.2.6 0l1.5.5c.3 0 .4 0 .4-.3s0-.2-.2-.3l-.8-.3h1.4c.1-.1.1-.1.1-.3s-.1-.3-.2-.3l-.4-.2h-.2c.3 0 .4 0 .4-.2s0-.2-.2-.4h-.4l-.7-.2h-.4c0-.1 0-.2-.2-.2l-.3-.2a1.5 1.5 0 0 0-.9-.4h-.6l-.5.2h-.6l-1.5-1h-1l-1-1-.4-.5-.3-.4-.8-.8-.6-.5-.4-.2c-.2 0-1.2-.5-1.2-.7h-.1l.3.2h1l.6.3h1l.6.2h.3l1 .2.8.2h2.4c.7.1.6.1 1.5.6h3.7c.6 0 1-.4.8-.7h1.2c.2-.1.3-.2.3-.4s-.1-.3-1-.3h.4c.7-.1.8-.2.8-.4s0-.2-.1-.3h-.8l-2 .2h0l.7-.3h.4c.7-.2.8-.3.8-.5a.4.4 0 0 0-.1-.3h-1l-1 .2a1.1 1.1 0 0 1-.8.2h-.1c.2 0 1-.2 1-.5v-.2h-.7a.6.6 0 0 0-.8 0h-1.2l-.6.5h-1.4l-.6-.2-1-.2h-.3l-.4-.2-.3-.2-.3-.2-.3-.2h-.7l-.3-.2-.6-.5h-.6l-.5-.2h-.8l-1.4-.2h-.6a.7.7 0 0 1-.5-.4v-.2l-.2-.2a4.3 4.3 0 0 0-1.4-1.6l-.5-.4-.2-.2-.7-.3c-.1 0-.4-.4-.5-.6l-.5-1.3a2.8 2.8 0 0 1-.1-.9c0-.5 0-.6.1-.8s0-.3.1-.3a1.4 1.4 0 0 0 .2-.6c0-.2 0-.2.2-.3l.4-.2c.1-.2.2-.2.2-.4M225 218a3.3 3.3 0 0 1 1.4 1.2 5.1 5.1 0 0 1 .4 2.4c0 .5-.2.8-.8 1.6a13 13 0 0 0-1 1.5c-.1.5-1 1.2-1.8 1.6l-.4.4a.9.9 0 0 1-.6.3c-.4 0-.5.1-.6.4a.9.9 0 0 0-.1.5l1 .6c1 .4 1 .5 1.5 1a6.4 6.4 0 0 1 .6 1.8 16 16 0 0 0 .5 2.1 4.7 4.7 0 0 1 .4 1.7c.1.7.1.8.4.8a.5.5 0 0 1 .5.3l.4.5a2 2 0 0 1 .2 1.7c-.1 1-.2 1-.6 1s-.8 1-.6 1a11.2 11.2 0 0 0 3.6-.5 1.7 1.7 0 0 1 1.4.2 2.2 2.2 0 0 0 1.4.2h1v.8a1.1 1.1 0 0 0 .3 1.1c.2.3.3.4.2.7s0 .4.1.4.1.3.1.5a.8.8 0 0 0 .5.7 1.2 1.2 0 0 1 .7 1.2c0 .7 0 .6-.4.7l-.6.5c-.1.3-.2.4-1 .4s-.7 0-.7.2-.4.5-.6.3h-1.4c-.1 0-.1.3-.1.6v.7l1 .6c1 .7 1.3 1 1.5 1.6s.1 1.6-1 2.7a2.8 2.8 0 0 1-1.4 1l-1 .5-2.3 1-3 1.4-1.4.7-.3 1.7a19.1 19.1 0 0 1-1.1 4.1 1.9 1.9 0 0 0-.2.7c0 .1-.1.5-.1.7a53.4 53.4 0 0 0-.5 6.9 12.4 12.4 0 0 0 .4 3.3 22.9 22.9 0 0 1 .3 6.4c-.2 2-.2 2-.6 2.4s-1 .5-1 .1a8.8 8.8 0 0 1-.7-3.2 3 3 0 0 0-1.2-2.4l-.6-.4v-.8a1.6 1.6 0 0 1 .6-1.3c.6-.6.6-.6.6-1.4a25.1 25.1 0 0 0-.4-2.7 17 17 0 0 1-.6-3.1l-.3-1.7c-.2-.3-.2-.5-.1-1.5a12.9 12.9 0 0 1 .4-1.9c.1-.4.3-1.4.1-1.4l-1.5 1-1.5 1a1.2 1.2 0 0 1-.9-.8c0-.3.5-1 1.7-2.2s1.3-1.6 1.3-2.5.3-1.7.8-2 .2-.2.2-.8a47.5 47.5 0 0 0-.5-5.3 3 3 0 0 0-2.1-1.2l-.8-.2-.7-1-1-1.4a1.5 1.5 0 0 0-.6-.9c-.3-.2-.3-.2-1 .4l-1.2.8-.5.3-.3-.2c-.1-.2-.2-.3-.4-.3a.4.4 0 0 1-.1-.3c0-.3-.1-.3-.4-.3l-.4-.2c0-.2-1.6 0-2.7.3l-1 .2c0-.2.1-.3.2-.5s.2-.4-.1-1a1.6 1.6 0 0 1-.1-1.5c.1-.4 0-.5-1-.6s-.6-.1-.5-.5a3.4 3.4 0 0 0 .1-1c0-.7 0-.8-.2-.8s-.5-.3-.1-.5.5-.4.1-.5l-.3-.3-.3-.3c-.4 0-.4-.4 0-1a10.9 10.9 0 0 0 .8-1.5c.1-.2.1-.2.4-.1l2 .5c1.2.4 1.6.4 1.7.3h.5a.7.7 0 0 0 .5-.4c.2-.4.2-.4.5-.2a1.9 1.9 0 0 0 1.8.3h3a6.1 6.1 0 0 1 1.9.1c.5.1 1 .2 1 .1a23.3 23.3 0 0 0-.4-3.7 11 11 0 0 1-.2-1.8 12.1 12.1 0 0 0-.1-1.9 3.3 3.3 0 0 1 0-1.4c.2-.8.2-.8-.1-1s-.4-.4-.1-.5l.5-.2h.4-.7c-.6-.1-1-.4-1-.5s.2 0 .5.1 1.4.3 1.5 0 .2-.5-.2-.4-1.2-.1-1.2-.3.2-.2.3 0 1 .1 1.4-.2.5-.5.2-.5h-.2c0-.2.1-.2.3-.1s.5-.2.1-.6l-.3-.3 1-1a4.3 4.3 0 0 1 1.2-1.1c.5 0 .5-.1.1-.7l-.4-.4.3-.2c.2-.1.3-.2.2-.5a2.4 2.4 0 0 1 .7-1.8 7.3 7.3 0 0 1 3.5-1.5 4.1 4.1 0 0 1 2.2 0zm-.5 34.8h-1v.6c-.1.8-.1 1.4 0 1.4l.7-.6 1-.8.3-.4z"/><path d="M0 248.8h335V335H0zM30.2 17.4a1.5 1.5 0 0 1-.4 1.1l-5 5-5.3-3v-3a1.6 1.6 0 0 1 3.2 0h0v3.8l5-5a1.6 1.6 0 0 1 2.2 0 1.5 1.5 0 0 1 .4 1.1m-1.6 14.3H28a1 1 0 0 1-.5-.4l-5-5V30a1.6 1.6 0 1 1-3.2 0v-3l5.3-3 5 5a1.6 1.6 0 0 1-.1 2.3h0a1.3 1.3 0 0 1-1 .4"/><path d="M24.6 23.7v-.2c-.1 0-.1 0-.1-.1h0l-1.3-.7-3.6-2-3-1.7h-.4c-.1 0-.1 0-.1.1h0v9.3a.4.4 0 0 0 .4.4h.1l3-1.7 5-2.8h.2zm-1.2.1v.2l-3.8 2.2-2.4 1.3c-.1.1-.3.1-.3-.1h-.1v-7.2l.3-.3c.1 0 .1 0 .1.1l2.4 1.3 3.8 2.2a.4.4 0 0 1 .1.3zm-1 0h-.1l-2.8 1.7-1.8 1c-.1 0-.2 0-.2-.1h-.1V21a.2.2 0 0 1 .2-.2h.1l1.8 1 2.8 1.7h.1c.1 0 .1.1 0 .1m33.7 0c0-.1 0-.1-.1-.2l-4.4-2.2-2.7-1.3c-.2-.1-.4 0-.4.2v7.2c0 .2 0 .3.2.4h.3l2.7-1.4L56 24c0-.1.1-.1.1-.2zm-1 .1c0 .1 0 .1-.1.1l-3.3 1.8-2 1c-.1.1-.3 0-.3-.2V21c0-.1.1-.2.3-.2h.1l2 1 3.3 1.7c.1 0 .1 0 .1.1s.1.1 0 .1z"/><path d="M54 23.7c0 .1 0 .1-.1.1L51.4 25 50 26h-.3v-4.4a.2.2 0 0 1 .2-.2h0c.1 0 .1 0 .1.1l1.6.7 2.5 1.3c.1 0 .1 0 .1.1h0M33.4 20h3.8c1.8 0 3.2 1 3.2 2.5S39 25 37.2 25h-2v2.5h-1.8zm3.6 3.5c1 0 1.5-.4 1.5-1s-.6-1-1.5-1h-1.8v2.2z"/><path d="M47.5 26v1.4h-6V20h1.8v6zM58 24.7L54.6 20h2l2 3.3 2.2-3.4h2l-3.2 5v2.7H58zm6.2-4.4h1v4.2l4.2-4.2h1.2L67 23.8l4 4h-1.3l-3.2-3.5-1.3 1.3v2.2h-1zm7.2 3.7a4.3 4.3 0 0 1 4.3-3.9 4.2 4.2 0 0 1 4.3 3.8 4 4 0 0 1-4.1 3.9h-.1a4.1 4.1 0 0 1-4.4-3.8zm7.6 0a3.4 3.4 0 0 0-4-2.7h0a3.4 3.4 0 0 0-2.7 2.8 3.2 3.2 0 0 0 3.3 3.1h.1A3.3 3.3 0 0 0 79 24zm2.3 2.7l.6-.7a3.9 3.9 0 0 0 2.7 1.1c1.3 0 2-.7 2-1.4s-.8-1-2.3-1.4-2.8-.8-2.8-2 1.2-2 2.8-2a4.1 4.1 0 0 1 3 1l-.6.7a3.7 3.7 0 0 0-2.4-1c-1 .1-1.8.7-1.8 1.4s.8 1 2.2 1.3 2.8.8 2.8 2-1 2.2-3 2.3a5 5 0 0 1-3.3-1.2zm8-6.4h1l3.2 5.2 3-5.3h1v7.5h-1V22l-3 5.3-3-5.2v5.6h-1zm10 3.7a4.3 4.3 0 0 1 4.3-3.9 4.2 4.2 0 0 1 4.3 3.8 4 4 0 0 1-4.1 3.9h-.1a4.3 4.3 0 0 1-4.4-3.8zm7.7-.1a3.2 3.2 0 0 0-3.3-3.1h-.1a3.3 3.3 0 0 0-3.3 3.2 3.2 3.2 0 0 0 3.3 3.1h.1a3.3 3.3 0 0 0 3.3-3.2zm2 2.8l.6-.7a3.9 3.9 0 0 0 2.7 1.1c1.3 0 2-.7 2-1.4s-.8-1-2.3-1.4-2.8-.8-2.8-2 1.2-2 2.8-2a4.1 4.1 0 0 1 3 1l-.6.7a3.7 3.7 0 0 0-2.4-1c-1 .1-1.8.7-1.8 1.4s.8 1 2.3 1.3 2.7.8 2.7 2-1 2.2-3 2.3a5 5 0 0 1-3.3-1.2z"/></g><rect x="43.6" y="90.8" width="247.7" height="32.2" rx="8.4" fill="#fff"/><path d="M321 148.2c0 2.3-2.3 4.2-5 4.2H177.6c-2.8 0-5.2-2-5.2-4.2v-8c0-2.3 2.4-4 5.2-4H316c2.8 0 5 1.8 5 4z" fill="#262262"/><path d="M182 142h.8l.6.4.4.5.4-.5.6-.4h.8a1.7 1.7 0 0 1 1 .3 1.8 1.8 0 0 1 .7.8 2.2 2.2 0 0 1 0 2.2 2.7 2.7 0 0 1-.7.8 1.7 1.7 0 0 1-1 .3l-.8-.2-.6-.3-.4-.5a1 1 0 0 1-.4.5.5.5 0 0 1-.5.3l-1 .2a1.6 1.6 0 0 1-.9-.3l-.8-.8a2.2 2.2 0 0 1 0-2.2 2.7 2.7 0 0 1 .7-.8 1.7 1.7 0 0 1 1-.3zm.1 3.2l.5-.2.4-.3.3-.5-.3-.5c-.1-.1-.2-.3-.3-.3l-.6-.2h-.4l-.3.3a1.4 1.4 0 0 0-.2.6.8.8 0 0 0 .2.5c0 .2.2.3.3.4zm3.4 0h.4c.1-.1.3-.2.3-.4a.8.8 0 0 0 .2-.5 1.4 1.4 0 0 0-.2-.6l-.3-.3h-.4l-.6.2-.3.3-.3.6.3.4c.1.1.2.3.4.3z" fill="#fff"/><path d="M162.6 148.2c0 2.3-2.4 4.2-5.2 4.2H19c-2.8 0-5-2-5-4.2v-8c0-2.3 2.3-4 5-4h138.3c2.8 0 5.2 1.8 5.2 4z" fill="#262262"/><path d="M23.6 142h.8l.5.4.4.5a1 1 0 0 0 .4-.5l.6-.4h.8a2 2 0 0 1 1.1.3 2.7 2.7 0 0 1 .7.8 2.8 2.8 0 0 1 0 2.2l-.8.8a1.7 1.7 0 0 1-1 .3l-.8-.2a.5.5 0 0 1-.5-.3 1 1 0 0 1-.4-.5l-.4.5-.6.3-.8.2a1.7 1.7 0 0 1-1-.3l-.8-.8a2.2 2.2 0 0 1 0-2.2 2.7 2.7 0 0 1 .7-.8 2 2 0 0 1 1.1-.3zm.1 3.2l.5-.2.3-.3.3-.5-.3-.5-.3-.3-.5-.2h-.5l-.3.3a1.4 1.4 0 0 0-.2.6.8.8 0 0 0 .2.5l.3.4zm3.3 0h.4l.4-.4a.7.7 0 0 0 .1-.5 1.3 1.3 0 0 0-.1-.6l-.4-.3H27l-.5.2-.4.3-.3.6.3.4.4.3zM118.2 287h98.6v1h-98.6zm105-109a4.1 4.1 0 0 1-3.9 4.3H115.6a4.1 4.1 0 0 1-3.9-4.3h0v-8.3a4 4 0 0 1 3.8-4.2h104a4 4 0 0 1 3.9 4.1h0z" fill="#fff"/><path d="M276.4 197.7H321v52.5h-44.6zm-262.4 0h44.6v52.5H14zM246.2 0h70.2v31.7h-70.2z" fill="#262262"/></svg>