<?xml version="1.0" encoding="UTF-8"?>
<svg id="uuid-68e22e93-1945-40af-a7a3-4c533477863f" data-name="Layer 1" xmlns="http://www.w3.org/2000/svg" width="335.1" height="335" xmlns:xlink="http://www.w3.org/1999/xlink" viewBox="0 0 335.1 335">
  <defs>
    <clipPath id="uuid-c8b22932-bcf7-41aa-9b00-6b9f3dfff575">
      <rect x=".1" width="335" height="335" fill="none"/>
    </clipPath>
    <linearGradient id="uuid-473a3595-d070-4e7a-8ce8-38f3e8ec4dea" x1="45.93" y1="-195.55" x2="314.13" y2="5.15" gradientTransform="translate(0 272)" gradientUnits="userSpaceOnUse">
      <stop offset="0" stop-color="#061b84"/>
      <stop offset=".3" stop-color="#061b84"/>
      <stop offset=".3" stop-color="#0e1c84"/>
      <stop offset=".5" stop-color="#251d83"/>
      <stop offset=".6" stop-color="#4a1f81"/>
      <stop offset=".7" stop-color="#7d227f"/>
      <stop offset=".9" stop-color="#bd267d"/>
      <stop offset="1" stop-color="#ec297b"/>
    </linearGradient>
  </defs>
  <g clip-path="url(#uuid-c8b22932-bcf7-41aa-9b00-6b9f3dfff575)">
    <g>
      <path d="M335,0H.1V335H335.1V0" fill="url(#uuid-473a3595-d070-4e7a-8ce8-38f3e8ec4dea)"/>
      <path d="M334.67,332.75l-.27,.45c-1.4-1.6-4-1.8-3-2.8,.2-.1-.4-1.1-2-1.7-.8-.3-.9-.6-.6-1,.8-.1,1.3-.2,1.8-.3,.8-.3,.9-.8,.1-1l-4.7-1.4c-2.1-.6-3.4,.7-7.8-2.6,.6-.4,1-.7,1.6-1s1.4-.2,2.4-.6h3v-.1l.8-.2c1,.1,3.3-.1,2-.5h-.7c.4-.2,1-.4,1.4-.7,.1-.5-.7-.7-1.5-1.2l-4.7,1.4c-1.1,.3-.7,.8,.3,1h-.2c-5.4,.6-6.4,.9-7.4,.2-1.1,.5-2.5,.6-3.7,.3-.8-.1-1-.3-1-.5v-.1c.3-.2,1.5-.3,1.8-1,.8,0,1.7-.1,2.4-.5l-.6-.3c-.7,0-1.1,0-1.7,.1,.1-.4,.5-.9-.7-1.2-.6-.1-1.2,0-1.8,.3-.1-.1-.2-.2-.3-.2l-.6,.4h.6c-.7,.5-1.3,1.2-1.7,2-.4,.1-.7,.1-1,0-1.2-.5,2-1.4-.6-2l-2,.3c-.9-.9-2.2-1.2-3.2-1-2,.5-2.1,.3-7.8,.5-.8-.2-1.6-.5-2.3-1,4.3,.5,9.1,.5-.7-.5h-.1c-1.2-.9,1.5-1.3,.5-1.7-.5-.2-1,.1-1.5,.3l-2.8,1c-.4-.8-1-1.4-1.8-1.8-3.6-.1-7.2,0-10.2-.7-3.3,.6-3.7,.9-5.3,.4l-4.6-1.5c-1.07-.58-2.21-1.02-3.4-1.3-1.4-.7-2-1.3-1.4-2.3,2.4-3.3,3-1.5,7.7-4.3,.7-.4-.8-.8-1.8-.6-6.8,1.4-3.1,1-5.5,2-4.77,2.21-5.48,2.61-7.44,2.25l-.56-3.15c-.1-.6-.1-1.1-.2-1.6v-1.6c-.1-.5-.3-1-.3-1.5v-2.3c0-.5,0-1-.1-1.5-.1-1-.1-2-.3-3l-.3-1.4-.4-1.3c-.2-.8-.4-1.5-.7-2.2-.1-.2-.3-.4-.4-.6-.1-.1-.2-.3-.2-.4s.3-.2,.4-.3c.2-.2,.3-.4,.4-.7,0-.2,.1-.3,.2-.4,.2-.2,.3-.4,.4-.6,.3-.6,.5-1,.7-1.6l.87-2.62c.38-.44,.76-1,.83-1.48-.4,.69-.51,.79-.66,.89l.16-.79,.3-1,.1-.6c.1-.2,.2-.3,.2-.5,.1-.4,0-.7,.3-1,.2,.3,.3,.5,.5,.8,.3,.3,.6,.6,1,.8,.8,.7,1.8,1.1,2.8,1.7,.3,.2,.6,.5,1,.6s1,0,1.4-.3c.2-.2,.4-.4,.5-.7,.2-.2,.4-.4,.5-.7,.1-.1,.1-.3,.1-.5,0-.1,.2-.3,.2-.4v-.3c0-.1,.1-.3,.1-.3v-.4c.1-.2,.3-.3,.3-.6s-.2-.3-.2-.5v-.4l-.8-.2c0-.2,.2-.3,.1-.4s-.3-.2-.4-.4c-.1-.2,0-.3-.1-.4s-.3,0-.5-.2-.2-.3-.3-.3c-.1-.1-.3-.1-.5-.1s-.3,.3-.4,.4-.2,.2-.4,.3h-.5c-.3,0-.6,.1-.7,.4,0,.2,0,.3,.1,.4,0,.1,0,.2,.1,.3h.4c.1,0,.1,.1,.2,.2-.1,.1-.1,.3-.1,.5l-1-.7-.5-.4c-.3-.4-.6-.7-.8-1-.2-.5-.6-1.1-1-1.5-.1-.1-.4-.3-.6-.4l-.6-.4c-.1,0-.3,0-.4-.1s-.2-.2-.3-.2c-.3,0-.5-.1-.8-.1-.2-.1-.5-.1-.7-.2,.2-.1,.4,.1,.6,0-.2-.2-.4-.4-.7-.5l-.8-.4c-.4-.2-.6-.5-1-.5,0-.3,0-.7-.1-1v-.3l.2-.8,.2-.1s-.2,0-.2-.1,0,.1,.1,0,.2-.2,.1-.3c-.1-.1,0,.1-.1,0,0-.2,.1-.4,.3-.4-.1,.1-.1,.2-.1,.3,.2,0,0-.3,.2-.2,.1-.3-.1-.6,0-.8,0,0,0,.1,.1,.1-.1-.2,0-.8-.1-1.2,.04,.04,.07,.06,.11,.08,0-.02,.03-.04,.09,.02h.2c-.07,0-.13-.03-.2-.1h.2c-.1,0-.2,0-.3-.1h.2c-.07,0-.13-.03-.2-.1v-.1h.4c-.1,0-.3,0-.4-.1h-.1v-.1h.2c-.1,0-.1-.1-.2-.1v-.1c0,.1,.1,.1,.2,.1l-.2-.2h.2s-.1,0-.1-.1h-.2s0-.1-.1-.1-.1,.1-.1,0h-.2v-.2c-.1,0-.1,.1-.2,.1v-.3c0,.1-.1,.1-.2,.2v-.1h-.1v-.3h-.1c0-.1,.1-.1,.1-.2-.1,0-.2,.1-.2,.2v-.2c0,.1-.1,.1-.1,.2-.1-.1-.1-.2-.2-.3v-.2c0,.1-.1,.1-.2,.2,0-.1-.1-.1,0-.2v-.1c-.1,0-.1,.1-.2,.2,0-.1,0-.2-.1-.3v-.1l-.1,.1-.1,.1c0-.1-.1,0-.2-.1,0-.07,.04-.13,.07-.2h-.07v-.1l-.1,.1h-.1v-.1c0,.1-.1,.1-.1,.2v-.2l-.2,.2v-.2c0,.1-.1,.2-.2,.3h-.1v-.2c0,.07-.03,.13-.1,.2s-.13,.1-.2,.1v-.1l-.2,.2c0-.1,0-.2-.1-.3v.3c0,.07-.03,.13-.1,.2v1.4c-.1,.1-.2,.1-.3,.2-.07,0-.1,.03-.1,.1v-.1c-.07-.07-.1-.13-.1-.2v.3l-.2-.2v.2c0,.1,0,.2-.1,.1l-.1-.2v.4c-.07-.07-.1-.13-.1-.2v.1h-.1l.1,.1c-.1-.1-.2-.1-.3-.1,0,0,.1,0,.2,.1h-.3c.1,0,.2,0,.3,.1,0,.3-.4,.3-.5,.5,.1-.1,.3-.1,.4,0v.1l-.1,.1s-.1,.1-.2,.1h.2v.1c-.1,.1-.2,.1-.3,.1h.4c0,.2-.1,.3-.2,.4l.2-.2v.2c0,.1-.1,.1-.2,.2h.2c-.1,.2-.1,.5,0,.7,0,.1-.1,0-.1,.1s.1,0,.1,0v.2c-.2,.7-.2,1.2,0,1.7,0,.3,.2,.5,.2,.8v.4c0,.1,.1,.2,.1,.4-.3,0-.6-.4-1-.5-.2,0-.3-.1-.5-.1-.3-.1-.6-.1-1-.1-.1,0-.2,.1-.3,.1s-.3-.1-.4-.1c-.6,.1-1.1,.3-1.6,.6-.6,.2-1,.4-1.6,.5l-1.8,.3c-.7,.1-1.4,.2-2,.3-.7,0-1.1,0-1.7,.1-.4,.1-.9,.3-1.4,.3h-.5c-.1,0-.3,0-.4,.1h-.8c-.2,0-.4,.1-.6,.2-.1,.1-.2,.3-.5,.3s-.7-.1-1-.1c-.2,0-.4,.1-.5,.2-.1,0-.1-.1-.2-.1s-.1,.2-.2,.1-.2-.2-.3-.2h-.3c-.1-.1-.2-.1-.3-.2l-.3-.2-.7-.4c-.2-.1-.4-.1-.6-.2-.2-.1-.4-.3-.6-.4l-.6-.6s-.1-.3-.3-.2c-.2,.1-.1,.6,0,.7-.2-.1-.4-.2-.7-.2s-.5-.2-.6-.1,0,.4,.1,.5,.2,.1,.4,.2l1,.4c-.2,0-.3,.1-.5,.1s-.3,0-.5,.1c-.2,0-.5,0-.5,.2s.2,.3,.4,.3,.4,0,.6-.1l1-.1c0,.1-.1,.1-.2,.2l-.5,.5c-.1,.1-.2,.2-.2,.3s.5,0,.6-.1,0-.2,.1-.2,.4-.1,.5-.3c.2,.1,.3-.1,.5-.1s.6,.2,.6,.4c-.1,.2-.2,.4-.4,.5-.3,.1-.6-.1-.8,.1-.2,.1-.2,.4,0,.6,.3,.1,.8,0,1,0s.5,.1,.8,0c.2-.07,.37-.1,.5-.1,.2,0-.1,.3,0,.5,.2,.2,.6,.3,1,.3s.6-.2,.8-.2h1.5c.2,0,.5-.1,.8-.1h1.5c.4,0,.9,0,1.4-.1l2.5-.4c.4,0,.9,0,1.4-.1l1.3-.2,2.6-.3-.1,1.6v1c0,.1,.1,.3,.1,.5,.1,.5,.2,1,.2,1.5,0,.2-.2,.4-.3,.6-.2,.3-.4,.8-.6,1.3,0,.3-.1,.5-.1,.8,0,.1-.1,.2-.1,.3,0,.3,0,.5-.1,.8s-.1,.5-.2,.8v.5c-.1,.1-.1,.2-.2,.3-.1,.3-.3,.6-.4,1l-.4,1c-.2,.4-.2,.9-.1,1.4,.1,.5,.4,1,.5,1.5,.1,.2,.2,.3,.2,.5,0,.1,.1,.3,.1,.4,.1,.3,.3,.7,.4,1l.6,3c.07,.35,.21,.69,.4,1-.73,.24-1.26,.77-1.54,1.49-.19-.37-.47-.62-.86-.49-.2,.1-.6,.2-.6,.3-.2,.7,.1,1.5,.6,2h.1v.1l-.1,.4c-.2,.2-.3,.5-.5,.7-.1,.1-.1,0-.1,0-.2,.2-.4,.4-.5,.6s0,.2,0,.3-.1,.1-.1,.2c-.1,.3-.2,.6-.2,1-.1,.6,0,1.1,.1,1.6l.2,1c.1,.1,.3,.3,.3,.4v.43c-1.63,.13-3.26,.03-4.8-.33-.5-.2-5.9-.5-5.5-1.7,0-.2,.1-.3,.2-.4,.1,1.8,5.4,2.8,3.4-2.2-.5-.6-1.3-.8-2-.5-.7,.5-.2,.8-1.2,1.8-.1-.3-.2-.7-.5-1-.6-.9-4.6-.2-5.6,.5,2,2.5,6.3,.3,3.3,4l-8.2,2c-1.02,.17-1.83,.19-2.5,.1v-.8c0-2.06,.24-4.05,.36-6.02,.4,0,.75-.17,.84-.58v.1c.06-.17,.09-.32,.09-.46,.04,0,.07-.02,.11-.04-.2-1.2-.4-2.2-.7-3.2s-.7-2-1-3l-1.2-2.8c-.1-.4-.3-.7-.5-1l-.7-.8c-.1-.1-.3-.3-.4-.5,0-.1,0-.3-.1-.4-.1-.2-.1-.3-.1-.4s-.1-.5-.2-.7c-.1-.5-.3-.7-.5-1-.4-.5-.7-1.3-.8-2,0-.3,.1-.7,.3-1,0-.1,.1-.1,.2-.2,.7-.4,1-1.2,1-2,0-.2,0-.3-.1-.5,0-.2,0-.3-.1-.5l-.3-1c0-.5,.2-1.1,.5-1.5,.1-.2,.1-.3,.2-.4,.1-.1,.2-.3,.4-.4l.4-.4,1-.7,2-1.2c.1-.2-.1-.2,0-.3,.73-.45,1.4-.98,2-1.6l.7-.6c.1-.1,.1-.3,.2-.4,.1-.1,.2-.1,.2-.1l.1-.1c.3-.3,.6-.6,1-.8l.7-.5,1.3-1,.6-.6,.6-.6,.4,.7,.5,.4,.6-.6,.6-.6c.2-.1,.4-.3,.6-.4,.2-.1,.2-.2,.2-.3s.2,0,.3-.1l.6-.3c.1-.1,.2-.1,.3-.2l.3-.2,.7-.4c.1,0,.2-.1,.3-.2s.6-.3,.6-.5-.2-.1-.4-.1-.6,.2-.8,.3c0-.1,.1-.1,.2-.2s.2-.3,.3-.4l.2-.2c.1-.1,.1-.2,.2-.3s.2-.3,.3-.4,.3-.2,.3-.4c-.3-.1-.6-.1-.8,.1,.2-.3,.4-.4,.6-.6,.1-.1,.5-.4,.5-.6s-.2-.1-.4-.1c-.3,0-.5,.3-.8,.5l-.8,.6c.1-.3,.5-.5,.7-.7,.13-.13,.23-.27,.3-.4s.13-.2,.2-.2c.1,0,0-.1,.1-.1s.4-.3,.3-.6h-.4c-.2,.1-.4,.2-.5,.4-.31,.3-.64,.56-1,.8l-.6,.3c-.2,.1-.4,.4-.6,.4s-.5-.1-.6-.3c-.2-.2-.3-.4-.4-.6l-.3-1.2c-.1-.3-.4-.5-.7-.4-.5,.1,.2,1.1,.2,1.5v1c0,.3-.2,.6-.2,.8s0,.5,.1,.7c0,.2,.2,.3,.2,.4,0,.2-.1,.3-.2,.4-.7,.8-1.4,1.4-2.4,1.8s-1.8,.9-2.8,1.6c-.1,.2-.3,.3-.4,.5l-.3,.3c-.1,.3-.1,.6-.3,.8l-.3,.3-.3,.3-.7,.4-1.3,.8c-.2,.2-.5,.3-.7,.4h-.2s-.1-.05-.16-.06c.28-.08,.56-.24,.8-.48-.04,.05-.08,.1-.13,.14,.05-.05,.1-.11,.15-.16,.03-.03,.05-.05,.07-.08l.06-.06s.04-.07,.06-.11c.05-.07,.1-.12,.14-.19-.04,.04-.07,.09-.11,.15,.1-.15,.21-.32,.21-.55-.07,.2-.14,.34-.23,.48-.03,.07-.09,.15-.17,.22-.3,.3-.6,.5-1,.5-.61-.08-1.18-.36-1.61-.8s-.03-.03-.05-.04c-.14-.14-.26-.3-.35-.46v-.1c.17,.17,.35,.34,.54,.5h-.04l.3,.3h.1v-.04c.15,.09,.31,.18,.5,.24,.18,.06,.39,.07,.6,.06-.21,0-.42-.04-.6-.16-.17-.08-.33-.23-.5-.33v-.07h.1c.1,.1,.2,.1,.3,.1,.2,.2,.5,.2,.8,.1,.3-.2,.5-.4,.6-.6v-.2c0,.1-.1,.1-.1,.2-.2,.2-.4,.4-.6,.5-.3,.1-.6,0-.8-.1,.2,0,.3,0,.5-.1,.1-.1,.3-.3,.4-.5-.07,.03-.11,.09-.17,.13-.04,.03-.07,.07-.13,.07,.02,0,.05,0,.07-.02-.08,.08-.16,.16-.27,.22-.2,.2-.5,.2-.7,.1-.02-.01-.03-.03-.05-.05,.11,.03,.21,.05,.35,.05l-.6-.3c-.32-.37-.53-.82-.69-1.28l.39,.78c.2,.3,.4,.5,.7,.7h.4v-.1c-.2,0-.3-.1-.5-.1,.1,.1,.3,.2,.4,.2-.1,0-.2,0-.3-.1-.3-.2-.5-.4-.6-.7-.13-.18-.24-.36-.35-.54,.04,.03,.08,.05,.13,.07,.11,.19,.26,.41,.42,.57h.2l-.2-.2c-.03-.08-.07-.14-.1-.21h.1v-.1l-.21-.12c-.07-.12-.14-.24-.19-.38l-.37-.93c.25,.5,.61,.99,.97,1.43h.1c.1,0,.1,.1,.2,.1h.1v-.1l-.2-.2c-.5-.7-1-1.7-1.3-2.7-.3-.8-.8-2.2-2-2.6-.1-.1-.3-.1-.4-.1l-.6-.3c-.3-.1-.5-.1-.7-.1-.2-.1-.4-.1-.6-.1-.8,0-1.5,.4-2,1-.6,.3-1.1,.8-1.4,1.3-.4,.3-.8,.7-1.2,1,0,0-.1,.1-.2,.1h.1c.1,0,.2,0,.3-.1,.3-.2,.6-.4,.8-.6,0,.1-.1,.2-.1,.3-.04,.04-.08,.08-.13,.12,0,0,.02-.02,.03-.02l-.2,.4c-.2,.2-.4,.3-.7,.4h-.3c.1,.1,.2,.1,.3,.1l.6-.3v.2c-.2,.2-.4,.2-.6,.3-.3,0-.5,0-.6-.2-.1-.1-.2-.2-.3-.4,0,.2,.1,.4,.2,.5,.1,.1,.2,.2,.4,.2-.2,0-.5,0-.7-.1-.1-.1-.2-.3-.3-.5,0,.2,.1,.5,.3,.6s.5,.1,.7,.1h.5c-.07,.04-.15,.07-.22,.1h.32v.1c-.3,.1-.9,.2-1.3,.1,.2,.1,.4,.1,.6,.1h-.1c-.2,0-.3,0-.5-.1-.4-.1-.6-.4-.8-.7-.1-.2-.1-.4-.1-.6,0-.17,.07-.3,.17-.4-.12,.11-.21,.23-.27,.4,0,.3,0,.5,.1,.7,.11,.28,.29,.52,.49,.7h-.21c-.16-.14-.29-.31-.38-.5-.1-.1-.2-.3-.2-.4,0,.1,0,.3,.1,.4,.1,.4,.4,.6,.8,.8h-.4c-.07,0-.13-.03-.2-.1l-.3-.3c.1,.2,.2,.3,.3,.4v.1c.1,0,.2,.1,.3,.1h.2s.06,.04,.09,.05c-.11,.02-.24,.05-.39,.05h.23c-.28,.05-.55,.06-.83,0-.18-.05-.34-.14-.47-.26,.02-.01,.04-.03,.07-.04-.03,0-.05,.02-.07,.03-.15-.14-.23-.33-.23-.53,0,.24,.06,.42,.14,.57-.26,.14-.34,.39-.34,.73,0,.2,.1,.5,.3,.7,.15,.15,.32,.28,.5,.4s.05,.03,.07,.05c.09,.05,.18,.09,.27,.13-.21-.07-.4-.16-.54-.27,.15,.13,.32,.22,.51,.28h.02c.13,.05,.26,.08,.4,.09-.02,0-.04-.01-.06-.02-.09-.02-.17-.04-.26-.07,.08,.03,.17,.05,.26,.07,.08,.01,.15,.03,.23,.03-.06,0-.11-.01-.17-.02,.02,0,.04,.01,.07,.02-.1,0-.3,.1-.4,.1h-.4c0,.1,.1,.1,.1,.1h.3c.2,.1,.3,.1,.5,.1-.1,0-.2,.1-.3,.1h.5l-.2,.1c-.2,0-.3,.1-.5,.1h-.1l-.2,.1c.1,0,.2,.1,.3,.1l.19-.12c.17-.02,.32-.08,.41-.08h.1l.25-.2h.15v.1c-.31,.19-.65,.33-1,.4,.13,0,.28-.03,.44-.07-.04,.02-.09,.04-.14,.07h-.1c-.1,0-.3,0-.4,.1-.16,0-.26,.01-.4,.06-.25-.09-.47-.3-.6-.56,0,.3,.19,.51,.44,.63-.08,.05-.16,.19-.24,.27-.1,.1-.2,.1-.3,.2s-.2,.3-.3,.4l-1,1.4c-.2,.2-.3,.6-.5,1-.1,.2-.3,.4-.3,.6s.1,.3,.2,.4l-2,2.4c-.3,.4-.5,.7-.6,1v.5c0,.1,0,.3,.1,.5,0,.2,.1,.4,.2,.5,.2,.3,.4,.5,.5,.8,.1,.2,.1,.3,.2,.5l.5,1,.6,.8,.3,.6,1.6,2.5,.4,.6c.3,.3,.5,.8,.7,1.3l-.1,.6c0,.4,.1,.7,.2,1,.1,.3,.2,.6,.3,.8v.4c0,.2,.1,.3,.2,.4,.1,.1,.1,.5,.2,.7,0,.08,.02,.16,.05,.24-.06-.1-.15-.18-.25-.24,0,.2,.1,.4,.2,.6v.3c0,.1,.1,.3,.2,.4,.1,.1,.2-.1,.2-.1h-.2v-.1c.2-.2,.1-.3,0-.6,.1,.3,.2,.5,.5,.6l-2.3,3.4c-.1,.1-.2,.3-.3,.5,0,.2,.1,.3,.2,.4,.2,.2,.2,.4,.4,.3h.1c.07,0,.1-.03,.1-.1,0-.1-.1-.1,.1-.1s-.2,.1-.1,.3,.2,.2,.2,.3c-.1,.1-.1,.3-.2,.4l-1.11,3.98c-.96,0-2.08-.06-3.29-.38,.6-.5,.5-.3,.8-.6,1-.7-1.6-1-2-.3-.7,1.3,.9,.9-2.7,1.2-3.8,.5-4.3,.3-6.3,3.5-.2,.3-.2,.7,.8,1,2,.7,4,1.3,6,1.5,.4,0,.9,.1,1.4,.2,3.9,.6,.6,1.8-2.4,3l-.2,.1c-1,0-1.7-.2-1.7-.8,0-.3-.4-.5-1-.5-.3,.3-.5,.5,0,.7,2,.9-.9,1.9-2.7,1.5l-2.8-.4c-1-.5-1-.7-2-1.5-.6-.3-1-.5-1.6-.6-.19-.38-.56-.57-.94-.68-.03-.14-.05-.28-.06-.42,0-.65,0-1.22-.17-1.85,2.46,2.87,4.83,1.4,4.27,.45-1.73-2.6-.62-2.84-5.04-3.56-.1-.3-.22-.57-.36-.84l-.6-3.5c-.2-.3-.2-.6-.3-1,.1-.2,.2-.4,.4-.6,.1-.2,.1-.5,.2-.7,.3-.4,.4-.9,.5-1.4l-.3-.8c-.4-1.5-.7-3.1-.8-4.7,0-.7-.1-1.4-.3-2l-.6-1c-.4-.8-.7-1.6-1.2-2.4l-.7-1c-.2-.3-.4-.7-.7-1-.2-.2-.6-.2-.8-.4-.3-.4-.5-.9-.6-1.4-.2-.5-.3-1.1-.5-1.5-.2-.8-.9-1.4-1.2-2.4l-.6-3c-.1-.4-.2-1-.4-1.4l-1-2.6c-.2-.4-.2-1-.5-1.4s-.8-.8-1-1.2l-.3-1h4.6l2.2-.1c.7,0,1.5,.2,2.2,.1l3-.4c1-.1,2-.3,3-.5l3-.6,1.3-.5c.4-.2,.9-.4,1.4-.5,.3,0,.6,.1,.8-.1s.2-.8,.3-1.2c.4,.1,.4,.3,.7,.3,.2,0,.3-.1,.4-.1,.5-.1,1.1-.3,1.5-.6,.4-.2,.7-.6,1-.6,.3,.1,.4,.3,.6,.4,0,0,.1,0,.2,.1s.2,.4,.3,.5c.2,.1,.3,.3,.4,.4,0,.1,.7,.7,1,.4s-.2-.7-.4-1c-.3-.5-.5-.8-.7-1.2-.1-.2-.7-.4-.4-.7s.8-.3,1-.3c.4,0,.7,.1,1,.2,.5,.1,2.9,.6,2.5-.4-.1-.3-1-.2-1.5-.4s-1-.4-1.5-.5c-.2,0-.4,0-.5-.2,.3-.4,.8-.3,1.3-.5,.4-.2,.7-.4,1-.5,.3,0,.7-.1,1-.3,.2-.3,.6-.5,.4-1-.1-.3-.5-.1-.7-.1-.2-.5-.5-.2-1-.1h-.6l-2.7,.4c-.4,0-.9,.1-1.4,.2-.49,.23-.96,.5-1.4,.8-.2,.1-.5,.2-.7,.4l-.6,.5c-.4,.2-.8,.4-1.2,.5-.1,0-.1-.2-.3-.2-.4,.3-.9,.1-1.2,.2s-.6,.2-1,.3c-2.3,.4-5.5,.1-8,.4-.5,.1-.9,.1-1.3,.2s-.5,.3-.7,.3-.4-.2-.6-.2-.3,.1-.5,0c-.2,0-.3-.1-.5-.1-1.37,.04-2.74,0-4.1-.1l-2-.6c-1.2-.5-2.4-.7-3.6-.7-.7,0-1.4,.1-2,.3l-.6,.4c-.2,.2-.2,.5-.5,.8s-.7,.5-1,.8c-.5,.5-1.1,1.5-1.8,1.7-.4,0-1,0-1.4-.2-.2,0-.3,0-.4-.1-.07-.07-.1-.13-.1-.2,.1-.2,.1-.3,.1-.5,0-.07,.09-.14,.15-.23,0,.01-.02,.03-.05,.03v-.3s.1,0,.1,.1v-.2c0-.1,.1,0,.1-.1v-.2c0-.2,0-.4,.1-.5s.2,.2,.3,.2,.2,.1,.3,.1h.4c.1-.1,.3-.1,.4-.2s.2-.1,.3-.2c-.1,.1-.3,.1-.4,.2-.1,0-.3,.1-.4,.1-.2,0-.3,0-.4-.1-.1,0-.2-.1-.3-.2-.2-.2-.3-.4-.3-.7v-.7l.2,.1h.3c.1,0,.2,0,.3-.1,.1,0,.2-.1,.3-.1-.1,0-.3,.1-.4,0-.1-.1-.2-.1-.3-.2-.1,0-.2-.1-.3-.2h.7c.1,0,.1-.1,.2-.1,.07,0,.13-.03,.2-.1-.1,.1-.3,.1-.4,.1s-.2,0-.3-.1l-.3-.2h.1c.2,0,.3,0,.4-.1h-.3c-.1-.1-.2-.1-.3-.2l-.1-.1h.1l.3,.1h.7c.1,0,.2-.1,.3-.1h-.3c-.1,0-.2-.1-.3-.1-.2,0-.3-.1-.5-.2-.1-.1-.2-.1-.4-.2,0-.1,0-.2-.1-.3v-.2c.1-.1,.1-.2,.1-.3v-.4c0-.1,0-.2-.1-.3l-.1-.3-.2-.3v-.1l-.1-.1-.3-.6c-.2-.2-.3-.4-.5-.5s-.4-.3-.6-.3v-.2c.1,.1,.1,.2,.2,.2s.2,.1,.3,.1h.3c-.1,0-.3,0-.3-.1s-.1-.1-.2-.2c-.2-.2-.3-.3-.4-.5v-.1l-.3-.3c-.1-.1-.2-.2-.3-.2h-.3c-.2-.1-.4-.1-.6-.1-.3,0-.7,.1-1,.2,.1,0,.1-.2,.2-.2l.3-.1h.7c.16,0,.26-.05,.4-.08,.1,.09,.23,.11,.3,.18h.2c.2,.1,.3,.2,.4,.4,.1,.1,.2,.1,.2,.2v.1h.4c-.15-.62-.67-.87-1.17-.96,.07-.04,.12-.09,.17-.14-.05,.05-.12,.1-.2,.14-.14-.02-.27-.04-.4-.04,.02,.04,.05,.07,.08,.1h-1.38c-.1,0-.3,.1-.4,.1s-.3-.1-.4-.1h-.5l.4-.1c.1-.1,.3-.1,.4-.2,.2-.1,.3-.2,.4-.3-.1,.1-.3,.1-.4,.2-.1,0-.3,.1-.4,.1h-.06c.06-.02,.11-.05,.16-.1h-.1c-.2-.2-.4-.2-.7-.1-.04,0-.09,0-.13,.03,.07-.08,.13-.15,.13-.23-.08,.08-.1,.15-.15,.23-.11,.04-.23,.1-.32,.17h-.32s-.08,.03-.12,.05c-.09-.02-.18-.05-.28-.05h-.1c0-.1,.1-.1,.1-.2s.1-.3,.1-.4-.1-.3-.1-.4v.4c0,.2,0,.3-.1,.4,0,.1-.1,.2-.2,.3h.45c-.08,.03-.15,.05-.25,.1l-.3,.2,.1-.1v-.2l-.3,.1h-.7c-.2,.1-.4,.3-.5,.5l-.3,.6-.3,1-.2-.1c-.2-.1-.3-.1-.5-.1-.1,0-.2,.1-.4,.1l-.4,.2-.7,.4h-.4c-.1,.1-.3,.1-.4,.1h.8l.8-.3,.4-.1h.4c.1,0,.2,0,.3,.1,.1,0,.1,.1,.2,.2-.1,0-.3,0-.4,.1-.13,0-.25,.03-.37,.07l.17-.17,.1-.1v-.1c-.1,.1-.2,.1-.2,.2-.07,.07-.1,.14-.14,.22-.33,.16-.62,.47-.76,.88-.1,.1-.2,.1-.3,.2l.3-.1c.1,0,.1-.1,.1-.1l.6-.5c.1-.1,.2-.1,.3-.2,.1,0,.2-.1,.3-.1-.2,.1-.3,.3-.4,.4l-.5,.8c-.2,.3-.4,.5-.6,.7-.1,.1-.3,.1-.4,.2-.1,.1-.2,.1-.4,.1h.5c.1,0,.3-.1,.4-.2l.1-.1v.1c-.2,.3-.4,.5-.7,.7,.3-.1,.5-.2,.7-.4,0,.1-.1,.2-.1,.3-.1,.2-.1,.4-.1,.6,0,.1,.1,.2,.1,.3h.1l.2,.2c0,.1,.1,.1,.1,.2v.5c-.1,.2-.1,.3-.2,.5-.2,.3-.5,.6-.8,.7,.5-.1,.8-.4,1-.7,0-.2,.1-.4,.1-.6l.2,.6c.1,.1,.1,.3,.2,.4,.1,.1,.2,.1,.3,.2s.1,.2,.2,.3c.1,.1-.1,.1,0,.2,.2,0,.3,.1,.4,.2,0,0-.2,.2-.1,.2s.2,0,.2,.1c.1,.2,.2,.3,.2,.5,.2,0,.2,.3,.3,.5l.3,.2c.2,.1,.3,.4,.5,.6h.3c.2,.1,.1,.2,.2,.1s-.2-.3-.1-.4c.1,.2,.3,.4,.5,.5,.1,.1,.1,.2,.2,.3,.5,1,1.4,1.3,1.5,2,0,.8-.4,1.5-1,2l-1.6,1.5c-.5,.6-1,1-1.5,1.6s-1,1-1.5,1.6c-.2,.2-.2,.5-.3,.7-.2,.4-.5,.8-.7,1.2-.1,.2-.2,.5-.3,.7l-1,3c-.37,.62-.64,1.3-.8,2-.1,.2-.1,.5-.2,.8l-.3,.3c-.63,.87-.75,2.02-.3,3l.7,1c.2,.4,.4,.7,.7,1,.7,.4,1.6,.5,2.4,.2,.8-.2,1.4-.5,2-1,.3-.2,.7-.3,1-.5,1.67-.84,3.24-1.84,4.7-3,.7,1,1.2,2,1.5,3,.3,.6,.6,1.3,1,2,.3,.7,.6,1.4,.8,2.2,.2,.9,.7,1.7,1.2,2.4,.3,.3,.6,.8,.8,1.3v.7c.1,.3,.4,.6,.6,1,.2,.4,.4,.9,.5,1.4,0,.3-.5,.4-.8,.6s-.6,.5-.8,.8c-.7,1.2-1.1,2.7-1.3,4.2l-.3,2.5c-.09,.83-.19,1.67-.3,2.5,0,.62,.02,1.32,.08,2.03-.94-.19-1.84-.44-2.48-.93-2.8-1.8-8.8,.8-10,1-.36,.06-.68,.12-1,.17,.03-.06,.07-.11,.1-.17,.2-.1,.3-.4,.4-.6,.5,.9,.3,.6,.1,.1-.2-.6-.5-1.1-.8-1.6l-.5-.8c-.3-.5-.6-1.1-.8-1.7l-.5,.6v.2l-1.3-3.8c-.6-1.3-1.2-2.3-2-3.3l-1.3-1.3c-.3-.4-.9-.8-1.3-1.2-.08-.12-.16-.28-.22-.45,.41,.14,.92,.26,1.52,.35h.1c2.7,.4,1.7-2,4-2.7,3-.8,3.7-4-.6-3.2l-5,2.6c-.12,.07-.22,.14-.32,.21,.07-.21,.05-.43,.12-.71,.2-.6,.4-1.1,.5-1.6,.1-.3,.2-.6,.3-1s.3-.7,.4-1c.5-1.5,.8-3.2,.8-4.8,0-.5,.3-1,.3-1.5v-1c-.1-.5-.3-.9-.5-1.3-.1-.3-.2-.6-.3-.8-.3-.4-.6-.9-.8-1.4-.1-.3-.1-.9-.1-1.3,0-.2-.1-.3-.1-.4v-.1c0-.7-.1-1.1-.2-1.7v-.1l.4-.16c.13-.08,.24-.16,.4-.24h-1v-.2c0-.15,.03-.31,.05-.46l.05,.16h.1c.1,0,.2,0,.3-.1l.5-.3h-.92c.03-.17,.07-.34,.12-.5l.2-.7v-.1c0-.1,.1-.1,.1-.2l-.1,.1c.1-.3,.2-.6,.3-.8,.3-.8,.5-1.8,.5-2.8v-1c0-.3,.2-.7,.2-1.3s-.1-.7-.1-1v-1.2c0-1.9-.3-3.7-.8-5.5-.2-.6-.4-1.3-.5-2v-.7c0-.2,.3-.4,.4-.7v-.6c0-.5-.2-1-.3-1.5v-.8c0-.2,.1-.4,.2-.6l.3-.6c.2-.2,.7-.8,.3-1s-.6,.6-.7,.8c-.1,.2-.2,.2-.3,.3s-.1,.3-.3,.3c0-.4,.1-.9,.1-1.4s.1-1-.2-1.3-.3-.1-.4,0c-.1,.1,0,.3,0,.5l-.2,1.5c-.5-.7-.3-2-1.3-2,.3,.8,.5,1.8,.5,2.8-.6-.5-.6-1.6-1.6-1.5,0,.5,.5,.8,.7,1.3,.2,.4,.4,.9,.5,1.4,0,.3,0,.7,.1,1,0,.2,.1,.5,.2,.8v1c0,.3,.3,.6,.4,.8,.1,.5,.1,1.1,0,1.7v.8c-.1,1.9-.5,3.9,0,5.4,.2,.4,.4,.8,.5,1.2l-.3,1.2-.36,1.44c-.08,.05-.16,.08-.24,.16h.2v-.1l.03-.03-.1,.4-.03,.03h.03l-.03,.11-.1,.1h-.2l-.3,.1h-.3c.1,0,.2,0,.3-.1l-.2-.1v.1h-.3l-.3-.2h-.4l-.3-.2c.18,.06,.39,.11,.6,.13l-.07-.05c-.24-.02-.48-.06-.73-.18,.2,0,.4,.1,.7,.1,.38,0,.77-.06,1.06-.27l.14,.07v-.1h-.11c.08-.06,.15-.12,.21-.2h-.1c0,.1-.1,.1-.2,.2l-.05-.02c.08-.03,.16-.1,.25-.18l.3-.6v-.2c0,.1-.1,.1-.1,.2l-.1,.2c-.1,.1-.2,.3-.4,.4,.1-.1,.1-.2,.2-.3l-.1,.1s-.09,.09-.14,.13c0,.01-.03,.02-.04,.03-.06,.04-.12,.09-.21,.13,.02,0,.03,0,.05-.01-.12,.07-.23,.11-.35,.11h-.08c.13-.03,.26-.06,.38-.1-.2,.1-.5,.1-.8,.1-.2-.1-.4-.1-.6-.2h.31s.1-.09,.19-.09c.09-.05,.16-.09,.22-.15,.06-.04,.12-.09,.18-.15l.1-.1v-.2c0,.07-.03,.13-.1,.2-.04,.08-.08,.13-.13,.18-.06,.03-.12,.06-.17,.12h-.5c-.2-.1-.3-.1-.5-.2,.3,.1,.5,.1,.8,.1,.1,0,.2,0,.3-.1v-.1h-.1c-.1,.1-.2,.1-.3,.1-.2,0-.4,0-.6-.1l-.3-.1v-.1h-.2l-.2-.1h.2l-.1-.1h.1c.1,0,.3,.1,.4,.1l-.3-.1-.8-.4,.6,.3,.3,.1h-.1c.1,0,.2,.1,.3,.1v-.1h-.1l-.1-.1-.3-.1-1-.5c-.2,0-.3-.1-.5-.1-.2-.1-.3-.1-.5-.1h-1.5c-.1,0-.3,.1-.4,.1-.2,.1-.5,.1-.8,.2-.1,0-.2,0-.3,.1h-.2l-.4,.3-.1,.1h-.7c-.2,0-.3,0-.5-.1h-.3l.5,.2,.3,.1c-.1,0-.2,.1-.3,.1h-.1c-.1,.1-.2,.1-.3,.1h-.4c-.2-.1-.3-.1-.5-.1h-.2v.1h.1l-.3,.2-.6,.3c.2,0,.3,0,.4-.1,.1,0,.1-.1,.2-.1h.6v.5h-.3l-.1,.1-.2,.1,.3-.1h.1l.15,.08-.05,.02h.3v.1h-.2l-.3,.1h.4l-.7,.3-.1,.02v-.02h-.3c-.1,0-.3,.1-.4,.1h-1.2c.2,.1,.5,.2,.8,.2h.5v.3c0-.1-.1-.1-.1-.1v.05l-.1-.05v.1h.1v.1c-.1,0-.1-.1-.2-.1l.2,.2s.07,.02,.1,.05v.05s-.1-.1-.2-.1h-.2v.1c0,.1,.1,.1,.2,.2h.1l.1,.1v.1h.1l.17,.17s-.05,.03-.08,.03h.1c.24,0,.43,0,.6-.1h.7c-.1,0-.3,.1-.5,.1h-.2v-.1l-.1,.1h-.4s.04,.02,.07,.04l-.07,.06c.1,0,.2,.1,.3,.1-.07,.07-.13,.1-.2,.1h.3l.16-.08c.15,.02,.31,.03,.44-.02,.1,0,.3,0,.4-.1v.1c0,.1-.1,.1-.2,.2h.26s-.04,.07-.07,.1h-.29l-.1,.1-.1,.1c.1,.1,.2,.1,.3,.1h-.6l-.1,.03v.07h-.2l-.09,.03,.06-.03h-.08c-.07,.04-.15,.07-.22,.1h-.18s-.08,.06-.13,.07c.04,0,.08-.01,.13-.02s.11-.03,.15-.04h-.02s-.04,.03-.07,.03c-.05,.02-.11,.03-.16,.06h.3c-.1,0-.3,.1-.4,.1h.1v.3c-.2,0-.4,.1-.6,.1h.4s-.07,0-.1,.02v-.02l-.03,.02c-.28,.07-.61,.08-.87,.08h-.4c.2,0,.3,.1,.4,.1,.13,.07,.35,.08,.6,.06v.24l.5-.1v-.2h.3c.08-.04,.14-.06,.2-.08v.08h-.1l.1,.1,.3-.1v.1l-.2,.1h.1c.1,.1,.2,.1,.3,.1h.3c.07,0,.1-.03,.1-.1v.1l.2-.2h.01l.09-.09-.09,.09c.06,0,.13-.03,.19-.09v.1l.1-.1v-.1l.1-.1h.1v.6l-.3,.3h-.4c0,.1-.1,.2-.2,.2v-.1c-.06,.06-.12,.1-.2,.13v-.02c.08-.02,.14-.07,.2-.12-.07,0-.13,.04-.2,.07v-.17h-.05l.15-.1,.2-.3-.1,.1-.2,.2h-.1l-.1,.1h-.2c-.4,.1-.7,0-1-.1,.1,.1,.3,.2,.5,.2-.2,0-.4,0-.6-.1s-.3-.2-.5-.4l-.2-.2,.1,.2c.1,.2,.3,.3,.5,.4-.07,0-.13-.03-.2-.1,.2,.2,.4,.2,.6,.3h-.2l.2,.1h.5v.05l.1-.05h.1c.16,0,.25-.01,.33-.07l.04,.04h.03v.13c.1,0,.2-.1,.3-.1h.1c.1,0,.2-.1,.3-.2v.2l-.2,.2v-.1h-.1v.1c-.1,.1-.1,.2-.1,.2l.2-.2v.1h.1v-.1h.1v.6c-.07,.07-.13,.1-.2,.1h-.5c-1.5,.1-3-.1-4.5-.6-1.3-.5-2.8-.8-4.3-.8l-4.7-.4c-.71-.06-1.42-.19-2.1-.4l-1-.3-1-.3c-.1,0-.2,.1-.3,.1s-.2-.1-.3,0c-.2,.1-.4,.2-.6,.2s-.2-.2-.3-.2c-.3-.1-.8-.2-1-.3-.2-.1-.2-.3-.4-.4l-.5-.3c-.3,.6,.1,.8,.2,1v.5c0,.1,.7,.3,1,.4-.2,.4,.2,.5,.6,.5,.2,0,.4-.1,.5-.1,.1,.1,.3,.1,.4,.2,.2,.1,.3,.1,.4,.2s0,.1,.1,.3c.07,.13,.1,.23,.1,.3-.2,.4-.8,.3-1,.6-.1,.3,0,.6,.3,.7,.2,0,.5-.3,.7-.4,.2,0,.4,0,.5-.1,.2-.1,.3-.2,.5-.2s.3,.1,.5,.1,.3-.1,.4-.1c.3-.1,.5-.4,.8-.5,.8,0,1.6,.2,2.3,.5l4.2,1.5c.7,.3,1.5,.5,2.3,.6h.8l1,.2c.3,0,.7,.1,1,.2l2.7,.5h.2c-.2,.2-.4,.4-.6,.5-.1,0-.2,.1-.3,.1h.3c.3-.2,.5-.3,.7-.5l-.2,.2,.3-.3h.3c.4,0,.8,.1,1.2,.1v.1l.1-.1h.2c0,.1-.1,.2-.2,.3l.3-.3c-.1,.2-.2,.3-.3,.4s-.2,.1-.3,.2h-.1l.05,.03c-.08,.06-.17,.07-.25,.07h.3s.03-.02,.04-.03l.06,.03,.3,.1h-.1l.2,.1h.04c.06-.03,.11-.07,.16-.1-.04,.04-.1,.07-.15,.1h.05l-.11,.04s-.06,.05-.1,.07c-.03,0-.05,.01-.07,.01,.05-.02,.09-.04,.14-.07l-.16,.05c-.07,.04-.15,.05-.22,.06-.04,.01-.08,.02-.13,.03-.08,0-.17,.01-.25,.01h-1l.5,.11h.5c.18,0,.39-.08,.6-.18,.03,0,.06,0,.09-.02-.15,.08-.32,.14-.49,.2-.2,.1-.3,.1-.5,.1h.5c.2-.1,.4-.1,.6-.2h.1l.3,.3-.4,.4-.5,.4c.2-.1,.3-.2,.5-.3,.2-.1,.4-.2,.5-.3l-.09,.18c-.14,.14-.3,.28-.51,.42l-.5,.4,.5-.3h.1c-.06,.06-.12,.11-.18,.15-.06,.03-.12,.05-.12,.05l.03,.03c-.11,.08-.22,.16-.33,.27l-.6,.4,.2-.1h.4c.2,0,.4,0,.6-.1l.3-.1,.1-.1v-.1l.2-.1v.1c.1-.2,.3-.3,.4-.5l.3-.6c-.07,.35-.21,.69-.4,1,0,.02-.02,.03-.03,.05,.05-.05,.1-.09,.13-.15,.3-.4,.4-.7,.5-1,0-.2,.1-.4,.1-.5v-.2c.1-.1,.2-.3,.2-.5v1.3c.1-.1,.1-.3,.1-.4v-1.1l.2,.3h.2v.3c0-.1,.1-.2,.1-.3,.2,.2,.4,.5,.6,.7,.1,.4,.2,.7,.2,1l.4,1.8c0,.4,.2,.7,.2,1s.1,.6,.2,.8c.4,.5,.6,1.2,.8,1.8,.1,.3,.1,.7,.1,1-.1,.1-.1,.3-.2,.4-.1,.2-.1,.4-.2,.5s-.3,.3-.5,.6l-.6,1.2c-.1,.1-.2,.2-.3,.6-.1,.4-.6,.6-.2,1-.2,.1-.2,.4-.2,.5l-.5,1-.5,1c-.3,.8-.6,1.5-.6,2.5,0,.5,0,1,.2,1.5s.4,1,.7,1.5l.4,.8c.1,.1,.2,.1,.3,.2,.1,.1,.1,.4,.2,.5l1.5,1.3c.1,.1,.2,.4,.3,.5l.91,1.31h-.11c-1.3,0-.3,1-2.3,1-2.8,0-2.3,1.5-2.6,1.8-1.1,1-2.4,1-2.7,.5l-.5-1c-3.8-1.2-4.5-1.6-5.8-3,3.6-3.7,.6-1.3-.2-4.3-2.9,1.6-4.7,2.9-9.7,1.7-2.8-.8-1.3,.7-4.3,1-.65,.05-1.28,.05-1.9,.04v-.64s-.2-.6-.2-1c0-.2,.1-.4,.1-.6v-.8l.1-2.3v-2.3c.1-.8,.1-1.6,0-2.4,0-.3-.2-.6-.2-1v-1.2c-.02-.41-.08-.81-.2-1.2s-.18-.79-.2-1.2c0-.2,.2-.2,.3-.4,0-.4,0-.7-.1-1l-.3-1.8c-.1-.4-.1-.7-.2-1v-.5l-.4-2.5-.1-2c-.1-.6-.1-1.2-.1-1.8,.1-.7,.2-1.1,.3-1.7v-.5c.1-.5,.3-1,.3-1.5,0-.2-.1-.5-.1-.6,0-.4,0-.7,.1-1,.1-.2,.2-.4,.4-.5l.8-1c.3-.3,.4-.3,.5-.4,.1-.2,.1-.3,.2-.5s.3-.3,.4-.5,.1-.4,.2-.5c.1-.2,.3-.3,.4-.4l.4-.4c.4-.4,.7-.8,.8-1.4,0-.2-.2-.4-.2-.6,.1-.2,.2-.4,.4-.6,.1-.2,.2-.3,.4-.5,.4-.3,.9-.5,1.2-.8s.5-.8,.7-1.3v-.3c0-.1,.1-.2,.2-.3s.4-.3,0-.4-.3,.6-.6,.7c0-.3,.1-.5,.2-.8s.2-.7-.1-.8c-.3-.1-.2,.3-.3,.5-.1,.2-.2,.4-.4,.5,0-.4,.4-1.6-.1-1.6s-.3,.7-.4,1c0,.1-.3,.3-.3,.5s0,.7-.3,.6v-1c0-.4,0-1-.2-1s-.4,.7-.4,1c0,.1,0,.2-.1,.3,0,.3,0,.9-.1,1.3-.1,.3-.3,.9-.5,1h-.3c-.2,.1-.7,.4-.6,.7s.5,.2,.7,.1c-.2,.2-.4,.5-.6,.6s-.2-.1-.4,0-.3,.3-.5,.5c-.2,.1-.5,.3-.5,.6-.3,.1-.5,.3-.7,.5-.1,0-.1,.1-.2,.2s-.4,.1-.4,.2-.2,.3-.3,.5c-.1,.2-.3,.3-.5,.4s-.3,.3-.4,.4l-.1,.1-.2,.1-.1-.1v-.1h.2v-.1h-.2v-.1h.2s0,.1,.1,.1c.03,0,.06,0,.07,.02-.03-.07-.07-.12-.07-.12l.1-.1c.1,0,.1-.1,.1-.1h-.4v-.1h.1v-.07s.1-.08,.1-.12l.1-.1h-.1c0-.09,.14-.25,.04-.36,.03,0,.06,0,.06-.04,0-.05-.02-.09-.06-.13,.02-.02,.04-.03,.05-.06l-.05,.05s-.03-.01-.05-.02c0-.02,.01-.04,.01-.04h-.1v-.2c-.1,0-.1-.1-.1-.1h-.3v-.2s.01-.08,.02-.13c.01,.01,.04,.03,.08,.03,0,.07,.03,.1,.1,.1s.1-.03,.1-.1-.03-.1-.1-.1h-.1s-.06,.02-.07,.04c.01-.05,.02-.1,.01-.14h.16v-.2h.1v-.1h-.1c0-.12-.11-.13-.22-.12l-.08-.08s.01,.06,.07,.08c-.07,0-.13,.02-.17,.02-.1,0-.1-.3-.2-.4v-.2c-.1-.1-.3-.1-.3,.1h.1l.1,.2v.1s.1,0,.1,.1l.2,.3h.1v.1h-.3v-.1c0-.1,0-.3-.2-.3h-.1c-.07,.07-.13,.1-.2,.1v-.2h-.1v-.1h-.2v-.2l-.1,.2h-.1c0,.1-.1,.1-.1,.1-.1,0-.1-.1-.1-.1v-.1l-.1,.1v.1s0-.1-.1-.1h-.1v-.1h.3c.07-.07,.1-.13,.1-.2h-.3c0,.07-.03,.1-.1,.1-.1,0-.1,.1-.1,.1h-.3c-.1,0-.1,.1-.1,.1h-.4v.3c-.1,0-.1,.1-.1,.1h-.1l-.1-.1h-.1c-.1,0-.1,.1-.1,.1v.1c-.1,0-.1,.1-.1,.1-.1,0-.1,.1-.1,.1v.2c0-.1-.1-.1-.1-.1v-.2c0-.1-.1-.2-.1-.2v.3h-.1c-.1,0-.2,0-.2,.1v.1h-.4c.1,0,.1,.1,.2,.1h-.2v-.3c-.1-.2-.3-.4-.6-.3,0,0-.1,0-.1,.1,0,0,0,.1-.1,0v.1s-.1,.1-.1,0l-.1,.1-.1,.1-.1,.1-.1,.1h-.3v.2h-.1c-.1,0-.1-.1-.1-.1v.1l-.1-.1v.1s-.1,0-.1-.1c0,.1,.1,.1,.1,.2,0,0,0,.1,.1,.1l-.1,.1h-.2c-.1,0-.1,.1-.1,.1v.2h-.2v.4h-.1v.5h.4c-.1,0,0,.1-.1,.1s-.1,.1-.1,.1v.3h-.3l.1,.1s0,.1,.1,.1h-.1l.1,.1v.1l-.1,.1h.1s.1,.1,0,.1h.3v.06c.06-.03,.1-.06,.1-.06h.1v.2h.2s.02-.06,.04-.07c.05,.04,.1,.07,.16,.07v-.2h.3v.1c.1,.1,.2,.1,.2,.2v.3s.1,0,.1-.1c0,.2,0,.5-.1,.7h-.39c-.15,.01-.29,.04-.4,.09v.6c0,.1,.1,.3,.1,.5-.2,.2-.4,.3-.6,.4-.2,0-.5,0-.8-.1-.3,0-.5,.1-.8,.1s-.3-.1-.5,0-.5,.2-.8,.3h-.5c-.3,0-.7,0-1,.1h-1c-.3,0-.4,.1-.5,.1s-.1-.1-.2-.2c0,0-.1-.1-.2-.1-.1-.2-.3-.4-.4-.6s-.1,0-.1-.1c-.2-.2-.4-.4-.7-.5-.2-.1-.4,0-.5-.1-.1-.2-.2-.3-.3-.4-.2-.2-.3-.3-.3-.4s.2-.3,.3-.5c.1-.2,.3-.4,.3-.5,.3-.3,1.1-.3,1-.8,0-.3-.7-.3-1-.1s-.3,.4-.6,.4c-.1,0-.3-.2-.4-.3-.2-.2-.4-.4-.5-.7l-.4-1c-.2-.4-.4-1.4-.8-1.2-.2,.1-.1,.5,0,.7s.2,.4,.2,.8,.3,.7,.2,1c-.3-.2-.3-.5-.4-.8-.2-.3-.4-.5-.5-.8-.1-.2-.3-1-.6-.6s0,.7,.1,1,.2,.6,.3,1c.1,.4,.4,.6,.3,1-.2-.4-.3-.7-.5-1-.1-.3-.3-.9-.6-.7-.3,.2,.3,1.1,.2,1.4-.2-.1-.1-.4-.4-.3-.1,.4-.1,.7,.1,1,.1,.2,.1,.3,.2,.4-.03,0-.04-.02-.05-.03,.05,.08,.08,.15,.15,.23,0,.1,.1,.1,.1,.2,.3,.4,.6,1,1,1.4,.2,.2,.5,.2,.8,.4,.2,.4,.5,.7,.7,1,0,0-.1,.2-.1,.3-.2,.8,.5,1.1,.8,1.6,.1,.1,.1,.3,.2,.4l.7,.7c.4,.2,.7,.4,1,.5,.4,.1,.8,.1,1.2,.2l.4,.1c.1,0,.2-.1,.4-.1h2s.1,.2,.3,.3c.1,.1,.3,.1,.4,.2,.3,.3,.5,.9,.6,1.3l.5,.8c.5,.5,.8,.9,1,1.5,0,.13,.01,.23,.04,.34l-.54-.14-1.2-.3-.6-.15,.5,.15,1.2,.3,.65,.16s.02,.08,.05,.14c.1,.1,.1,.3,.1,.5,0,.6-.1,1.1-.3,1.6-.2,.8-.4,1.4-.7,2,0,.3-.3,.9-.4,1s-.4,0-.5,0c-.7,.1-1.2,.3-1.7,.6-.2,.1-.5,.2-.8,.3-.25,.16-.52,.3-.8,.4-.8-.1-1.6,.1-2.2,.6-.7,.7-.9,1.5-.7,2.5,0,.2,.2,.4,.3,.7,0,.3,.1,.7,.2,1,.1,.2,.2,.3,.3,.5v.7c.16,.95,.4,1.89,.7,2.8l.16,.32c-.33,.63-.63,1.28-.86,1.98,0,.4-.5,.7-.8,1-1.5-.4-2-.1-6.3,0,2.2,1.2,2.4,.4,7.2,1.4-.2,1.4-1.1,2.5-2.4,3-2.5,1.2-4.7-.1-5.7-.4-2.6-.8-2.3,.8-2.5,1.2s-1.5,.8-3.5,.1c-2.6-.9-2.8-1.2-3.6-1-1.2,.3,.2,1-.4,1.5-4.2,2.8-8.4,.1-6.2,2.8,1,1.4-.4,2.3-3.4,2.4-.8,0-1.6,.1-2.4,.3-.2,1.6,.2,.6-1.8,1.6-2.7,1.2,1,1.8,.5,3-.2,.4-.1,.9,.2,1.2,1,1.6-7-.4-10-.2,.4,.1,.7,.2,1,.3l9,1c1.6,.2,2,.9,1,1.5l-1.7,.8c-1.3,.6-.1,1,.2,1.3,.8,1.2-2.5,1-5.2,1-1.9,0-1-1-2-1-1.8,0-1.8,3.7-3.8,4-9,1.6-6.8,.4-9.2-.4-.8-.2-1.8-.4-2.8-.5l-.6-1.3c-1.7-.3-1.1,.7-2.4,.7-1-.4-2-.6-3-.4,0,.2-2.8-.8-3-.8-2.7,.2-2.2,1.8-5.2,1.2-1.1,0-1.9-.4-1.5-1s-.6-.9-1.6-1.4c-1.4,1.7-1.4,2.4-4.6,1.8-.8-.3-1.6-.5-2.6-.5v15.4H335.1v-2c-.19-.06-.32-.16-.43-.25h0Zm-121.17-60.86h-.1c.06,0,.13-.02,.19-.03-.03,.01-.07,.01-.09,.03Zm-1.9-2.9h-.08c-.23-.44-.4-.9-.52-1.4,.17,.52,.36,.96,.6,1.4Zm-93.1,.6v-.05c.08,.05,.17,.08,.26,.11l-.06,.03c-.1,0-.1-.1-.2-.1h0Zm.5,1.52h-.1v-.1h.1v.1Zm-.72-1.63s-.04-.06-.08-.07l-.1-.1h.3c.1,0,.1,.1,.1,.1-.07,0-.14,.04-.22,.07Zm1.62,.53h-.05s.09-.06,.14-.1h.11c-.1,0-.1,.1-.2,.1Zm.3,7l-.12,.13h-.04c.06-.04,.11-.07,.17-.13h0Zm.1,.2l-.17-.06c.06-.04,.11-.09,.17-.14,0-.1,.1-.2,.2-.3l.1-.2h.3v.3c0,.1-.2,.2-.3,.3,0,.1-.1,.1-.1,.1h-.2Zm.55,1.04s.05-.09,.05-.14h.1s-.1,.09-.15,.14Zm.15-1.14h-.2l-.1,.1h-.1c.2-.1,.3-.2,.4-.3l.3-.3h.1c-.1,.2-.2,.3-.4,.5h0Zm-40.9,19.2c.18-.45,.36-.85,.54-1.23l.16,.53c.1,.5,.3,.9,.5,1.3l.36,.71c-.27-.09-.55-.19-.86-.31-.7-.2-.9-.6-.7-1h0Zm8.7,2.3c-.2-1.3,0-1.4-1.5-2-.16-.08-.36-.13-.58-.15-.03-.32-.09-.65-.22-.95,0-.2-.2-.4-.3-.5-.3-.1-.8-.1-1-.3-.1-.2-.2-.4-.2-.6l-.3-2-.7-2.6c.8,.5,1.8,.7,2.8,.6,.7-.1,1.2-.2,1.7-.4h.3c.2-.1,.4-.1,.6-.2,.5-.2,.6-.3,.7-.7,0-.2,0-.4,.1-.5,.2,.2,.1,.6,.1,.8s.1,.4,.1,.7,0,.5,.1,.8c.2,.4,.4,.9,.5,1.4l1,6.2c.04,.4,.13,.8,.23,1.2-.74-.05-1.47-.1-2.23-.1-.7,0-1.2-.3-1.2-.7h0Zm34.4,10.6c4.8,.4,4.5-1,1.5-1.3l-1-.1,.2-.1c.2-.1,.4-.3,.4-.6,0-.5,.4-.9,1-1.3,2.2-1.4,1.3-.8,1.2-2.2,0-.29,.07-.57,.13-.81l.77,1.11,2,2.8c.3,.4,.7,.8,.7,1s0,.4-.1,.6c-.1,.1-.1,.4-.2,.5-.03,.03-.07,.06-.11,.09-.6-.07-.81,.04-1.09,.51,.21,.09,.42,.17,.62,.25-.06,.16-.12,.34-.12,.55v1c0,.2,0,.3-.1,.5,0,.2,0,.4-.1,.6-.1,.1-.3,.1-.5,.3-.12,.12-.22,.21-.31,.28-.28-.4-.19-.89-.29-1.38-1.49-.08-2.93-.53-4.2-1.3l-.4-1h0Zm42.4-2.7c.3-.3,.6-.7,1-1,.5-.5,1.1-.9,1.5-1.3,.05-.05,.1-.11,.14-.16,.31,.09,.62,.17,.91,.24l.05,.13v.5c0,.2,.2,.2,.2,.3,.2,.8,.4,1.6,.5,2.4l.3,1v.8c.1,.7,.4,1.5,.8,2.2l.39,.78s-.06,.01-.09,.02c-.6,.1-1.1,.1-1.6,0,.1-.5,.1-.9-.7-1.5-.2,.1-.4,.3-.6,.5-.66-1.08-2.69-1.06-4.5-1.59l.2-.4c1.27,.31,1.29,.24,2.9,.29-.25-.32-.51-.43-2.62-.86l.42-.84,.8-1.5h0Zm35.9-37.32h.05l-.25,.1,.2-.1Zm0-.4c0-.06,.03-.09,.06-.12l.24-.08-.1,.1c.1,0,.1-.1,.1-.1v.1l-.3,.1h0Zm.1,.49c-.1,.1-.2,.1-.3,.1l.2-.1h.1Zm.1-.01s.07-.02,.1-.04v.05h-.1Zm-.88-1.12c.05,0,.1,0,.16-.03,.14,.11,.28,.19,.42,.23h-.1c-.19-.04-.34-.11-.48-.2Zm.28,.4l.3-.1h.1l-.2,.1h-.09s-.05,.02-.08,.03h-.03v-.03h0Zm-1,.2c-.1,0-.2,0-.3-.1,.1,0,.2,.1,.3,.1Zm.6,1.7s-.03-.01-.04-.01c.07-.01,.15-.04,.24-.09h-.2l.4-.1h-.4c-.3,0-.6-.1-.8-.2v.09c-.14-.09-.29-.17-.4-.29-.1-.2-.3-.4-.3-.7-.08-.25,.04-.55,.25-.71,.13,.21,.32,.35,.55,.41,.44,.06,.88,.03,1.3-.1h-.2v-.03c.13-.04,.26-.08,.4-.11v.04l-.2,.2h-.4c-.2,.1-.5,.1-.7,.1,0,.1,.1,.1,.1,.2v.09h.2l.3-.09v.1c.1-.05,.2-.07,.3-.1h.1l.5-.2,.03-.07,.07-.03v.2l-.3,.1,.2-.1-.6,.2h-.5c.1,0,.1,.1,.1,.1h-.2c.25,.06,.45,.04,.65,0h.65c-.1,.1-.2,.2-.3,.2-.2,.1-.5,.2-.8,.1h-.1c.3,.1,.7,.1,1,0s.5-.3,.7-.4h.3l.1-.1-.2,.2h-.1c-.47,.38-.86,.57-1.4,.68v-.08h-.5l-.2-.1h.4c-.1,0-.1-.1-.1-.1v-.1h-.5l.06,.11c-.09-.06-.18-.14-.26-.21,.11,.22,.27,.37,.47,.47l.03,.03s.06,.01,.08,.01c.13,.05,.27,.09,.42,.09h.1c.19,0,.43-.01,.6-.1l-.2,.2-.1,.1c-.2,.1-.4,.1-.6,.1h0Zm1.1,.4h.1c-.14,.11-.28,.21-.43,.3h-.07l.4-.3Zm7.5,35.8l-4.6,.7c-1.28-.27-2.15-.82-2.66-1.46l.26-.44,.53-.89s.04,.06,.07,.09v-.2c.7,.5,3.5-.5,4.8-1-1.26,.16-3.98,.44-4.71,.84l.91-1.54c.1-.2,.2-.5,.3-.5,.3,0,.5,0,.7,.1,.3,.1,.9,.1,1.3,.1h.7l.4-.1c.3-.1,.7-.2,1-.4,.2-.1,.4-.3,.6-.4l.6-.4c.2-.1,.4-.3,.6-.4,.46,1.38,.75,2.85,.95,4.33-.32-.3-.66-.62-1.05-.93-2.7,1.2-1.9,1-.7,2.5Zm36.8-2.1c-1.1-.1-2.2,.4-2.7,1.4-.84-.3-1.11-.81-2.04-1.11-.08-.57-.22-1.11-.46-1.59-.2-.2-.3-.6-.2-1,.1-.1,.1-.3,.2-.4,.2-1,.7-1.5,1.2-2,.5-.3,.8-.6,1-1,.1-.1,.1-.3,.2-.4l.6-.6c.2-.2,.5-.4,.6-.6s0-.4,.1-.5c.2-.3,.4-.5,.5-1,.1,0,.1,.2,.1,.3l.6,2c.3,.6,.5,1.3,.7,2l.02,.06c-.31,.34-.47,.97-.92,2.54-.14,.43,.83,.95,1.83,1.07,.05,.22,.17,.52,.17,.83v.8l.2,.8,.13,.65c-.51-.13-1.05-.25-1.63-.35,.3-.2,.6-.4,.8-.7,.3-.2,0-1.1-1-1.2h0Zm87.9,8.62c0,.7,.4,1,1,1.4v-1.6l-1,.2Z" fill="#fff"/>
    </g>
  </g>
  <circle cx="269.9" cy="202" r="58" fill="#231f20"/>
  <circle cx="270.9" cy="200.9" r="58" fill="#fff"/>
  <circle cx="269.9" cy="202" r="55.3" fill="#231f20"/>
  <circle cx="270.9" cy="200.9" r="55.3" fill="#fff100"/>
  <circle cx="270.9" cy="200.9" r="52.3" fill="#00dd23"/>
  <g>
    <path d="M26.6,17c0,.3-.1,.6-.3,.8l-3.6,3.6-4-2.2v-2.2c0-.6,.5-1.2,1-1.2s1,.5,1,1.2v2.8l3.6-3.6c.4-.5,1-.5,1.6-.1,.3,.2,.4,.6,.4,1m-1.3,10.6c-.1,0-.3,0-.4-.1s-.3-.1-.4-.2l-3.2-3.7v2.8c0,.55-.45,1-1,1-.5,0-1-.5-1-1v-2.2l4-2.2,3.6,3.6c.5,.4,.5,1,.1,1.6-.2,.3-.6,.4-1,.4m-3-6c0-.1-.1-.1-.1-.1l-1-.6-2.6-1.5-2.2-1.3c-.1-.1-.3,0-.3,.1v6.7c0,.1,.1,.3,.3,.3h.1l2.1-1.3,3.6-2h.1c0-.1,.1-.1,.1-.2l-.1-.1Zm-1,.1l-.1,.1-2.8,1.6-1.7,1c-.1,.1-.2,0-.3-.1v-5.4c0-.1,.1-.2,.2-.2h.1l1.7,1,2.8,1.6c.07,.07,.1,.13,.1,.2v.2Zm-1,0s0,.1-.1,.1l-2,1.2-1.3,.8c-.1,0-.2,0-.2-.1v-4c0-.1,.1-.1,.1-.1h.1l1.3,.8,2,1.2,.1,.1v.1m25-.3c0-.1-.1-.1-.1-.1l-3.3-1.5-2-1c-.1-.1-.2,0-.3,.1v5.5c0,.1,.1,.2,.2,.2h.1l2-1,3.2-1.7h.1c0-.07-.03-.13-.1-.2l.2-.3Zm-.8,.1s0,.1-.1,.1l-2.5,1.2-1.5,.8c-.1,.1-.2,0-.2-.1v-4.3c0-.1,.1-.2,.2-.2h.1l1.5,.8,2.5,1.3v.2h.1l-.1,.2Z" fill="#fff"/>
    <path d="M44,21.7s0,.1-.1,.1l-2,1-1,.6h-.2v-3c0-.1,.1-.1,.1-.1l1.2,.6,2,1h.1m-15-3h2.8c1-.2,2.2,.6,2.4,1.8-.1,1.2-1,2-2.3,2h-1.5v1.8h-1.5v-5.5l.1-.1Zm2.7,2.6c.7,0,1-.3,1-.8s-.5-.8-1-.8h-1.3v1.6h1.3Zm7.7,1.8v1h-4.5v-5.6h1v4.5h3l.5,.1Zm7.8-1l-2.7-3.3h1.4l1.6,2.4,1.6-2.4h1.5l-2.4,3.6v2h-1.3v-2l.3-.3Zm4.6-3.2h.7v3l3-3h1l-2.6,2.7,2.8,3h-1l-2.4-2.6-1,1v1.8h-.7v-5.6l.2-.3Zm5.1,2.9c.1-1.8,1.7-3,3.5-3,1.5,.1,2.7,1.3,3,2.8-.1,1.8-1.7,3-3.5,3-1.5-.1-2.7-1.3-3-2.8Zm5.6-.1c-.1-1.4-1.3-2.4-2.6-2.3-1.2,.1-2.2,1-2.3,2.3,.1,1.4,1.3,2.4,2.6,2.3,1.2-.1,2.2-1,2.3-2.3Zm1.6,2l.4-.5c.5,.5,1.3,.8,2,.8,1,0,1.4-.5,1.4-1s-.6-.8-1.7-1c-1.2-.2-2-.6-2-1.6s.8-1.6,2-1.6c.8,0,1.6,.3,2.2,.8l-.4,.5c-.5-.4-1-.7-1.8-.7s-1.3,.5-1.3,1,.6,.8,1.7,1,2,.6,2,1.6-.7,1.6-2.2,1.6c-1,0-1.7-.3-2.4-1l.1,.1Zm6-4.7h.7l2.3,4,2.3-4h.7v5.6h-.7v-4.2l-2.2,4-2.3-4v4.2h-.7v-5.6h-.1Zm7.4,2.7c.2-1.8,1.7-3,3.5-3,1.5,.1,2.7,1.3,3,2.8-.2,1.8-1.7,3-3.5,3-1.5-.1-2.7-1.3-3-2.8Zm5.6-.1c-.1-1.4-1.3-2.4-2.7-2.2-1.2,.1-2,1-2.2,2.3,.1,1.4,1.3,2.4,2.7,2.2,1.2-.1,2-1,2.2-2.3Zm1.6,2l.4-.5c.54,.51,1.26,.79,2,.8,1,0,1.4-.5,1.4-1s-.6-.8-1.7-1c-1.2-.2-2-.6-2-1.6s1-1.6,2-1.6c.8,0,1.6,.3,2.2,.8l-.4,.5c-.5-.4-1-.7-1.8-.7s-1.3,.5-1.3,1,.6,.8,1.7,1,2,.6,2,1.6-.7,1.6-2.2,1.6c-1,0-1.8-.3-2.5-1l.2,.1Zm92.2,93c.3,0,.6,0,.8,.2,.2,.1,.4,.2,.6,.4s.3,.3,.4,.5c.12-.18,.25-.34,.4-.5,.2-.2,.3-.3,.6-.4s.5-.2,.8-.2c.4,0,.8,.1,1,.3,.3,.2,.5,.5,.7,.8s.3,.7,.3,1c0,.4-.1,.8-.3,1-.2,.3-.4,.6-.7,.8s-.7,.3-1,.3-.5,0-.8-.1l-.6-.3c-.2-.1-.3-.3-.4-.5-.1,.2-.2,.3-.4,.5s-.4,.3-.6,.3c-.3,.1-.6,.1-.8,.1-.4,0-.7-.1-1-.3s-.6-.5-.7-.8c-.2-.3-.3-.7-.3-1,0-.4,.1-.8,.3-1,.2-.3,.4-.6,.8-.8,.3-.2,.7-.3,1-.3h-.1Zm.1,3.2c.2,0,.3,0,.5-.1,.1-.1,.3-.2,.4-.3,.1-.2,.2-.3,.3-.5-.1-.2-.2-.3-.3-.5-.1-.1-.2-.3-.4-.4s-.3-.1-.5-.1-.3,0-.4,.1c-.2,.1-.3,.2-.3,.3-.2,.3-.2,.8,0,1,.1,.1,.2,.3,.3,.3,.2,.1,.3,.1,.5,.1l-.1,.1Zm3.3,0c.2,0,.3,0,.4-.1s.3-.2,.3-.3c.2-.3,.2-.8,0-1l-.3-.3c-.1-.1-.3-.1-.4-.1-.2,0-.4,0-.5,.1s-.3,.2-.3,.4c-.1,.2-.2,.3-.3,.5,.1,.2,.2,.3,.3,.5,.1,.1,.2,.2,.4,.3s.3,.1,.5,.1l-.1-.1h0Zm-152-3.2c.3,0,.6,0,.8,.2,.2,.1,.4,.2,.6,.4,.15,.16,.28,.32,.4,.5l.4-.5c.2-.2,.4-.3,.6-.4,.6-.2,1.3-.2,2,.2,.3,.2,.5,.5,.7,.8s.3,.7,.3,1c0,.4-.1,.8-.3,1-.2,.3-.4,.6-.7,.8s-.6,.3-1,.3c-.3,0-.5,0-.8-.1l-.6-.3c-.1-.1-.3-.3-.4-.5-.1,.2-.2,.3-.4,.5s-.4,.3-.6,.3c-.3,.1-.6,.1-.8,.1-.4,0-.7-.1-1-.3s-.6-.5-.8-.8-.3-.7-.3-1c0-.4,.1-.8,.3-1,.2-.3,.4-.6,.7-.8s.7-.3,1-.3l-.1-.1Zm.1,3.2c.2,0,.4,0,.5-.1s.3-.2,.4-.3l.3-.5c-.08-.18-.18-.35-.3-.5-.1-.1-.2-.3-.4-.4s-.3-.1-.5-.1c-.1,0-.3,0-.4,.1s-.3,.2-.4,.3c-.2,.3-.2,.8,0,1,.1,.1,.2,.3,.4,.3,.1,.1,.3,.1,.4,.1v.1Zm3.3,0c.1,0,.3,0,.4-.1s.3-.2,.3-.3c.2-.3,.2-.8,0-1l-.3-.3c-.1-.1-.3-.1-.5-.1s-.4,0-.5,.1-.3,.2-.4,.4l-.3,.5c.1,.2,.2,.3,.3,.5,.1,.1,.2,.2,.4,.3s.3,.1,.5,.1l.1-.1Zm-19.5,50.6H103.6v1H12.3v-1Z" fill="#fff"/>
  </g>
  <path d="M24.3,145.6c-.1-1-.5-1.7-1-2.4-.8-1-2-1.4-3.3-1.4h-.4c-.7,0-1.4,.3-2,.7-1,.7-1.8,1.8-2,3-.1,.7-.1,1.3,.2,2l.7,1.5c.5,1,1,1.7,1.5,2.5l1,1.6c.3,.5,1,.6,1.5,.3l.3-.3,.6-1,1.6-2.5c.5-.8,1-1.6,1-2.5,.2-.5,.2-1,.1-1.7l.2,.2h0Zm-4.3,2.4c-1,0-2-1-1.8-2s1-1.8,2-1.8,1.8,1,1.8,2-1,1.8-2,1.8Zm-.2,8.7l2-.1,1.8-.3c.8-.2,1.6-.4,2.4-.8,.4-.2,.7-.5,1-.8,.5-.6,.5-1.4,0-2-.3-.4-.7-.7-1-1-.4-.2-1-.4-1.4-.5l-1-.3c-.1,0-.2,0-.2,.1s-.1,.2-.1,.2l-.5,.8s-.1,.1,0,.1l1.5,.3c.5,.1,1,.3,1.3,.5,.2,.1,.4,.2,.5,.4,.1,.1,.1,.3,0,.4-.1,.2-.3,.3-.4,.4-.8,.4-1.7,.7-2.6,1l-1.5,.2c-.5,.1-1,0-1.4,.1h-.7c-.4,0-1,0-1.3-.1l-1.7-.2c-.7-.1-1.5-.4-2-.7-.2-.1-.4-.3-.6-.5-.1-.1-.1-.3,0-.4,.1-.1,.2-.2,.4-.3,.4-.2,.8-.4,1.2-.5,.6-.2,1.2-.3,1.8-.4,.07,0,.1-.03,.1-.1l-.6-1c0-.1-.1-.1-.2-.1-.3,0-.6,.1-.8,.2-.67,.18-1.3,.45-1.9,.8-.4,.2-.7,.5-1,.8-.3,.4-.4,.8-.2,1.3,.1,.4,.3,.7,.7,1l1.3,.8c.84,.33,1.71,.56,2.6,.7l2,.2h1l-.5-.2h0Z" fill="#fff100"/>
  <path d="M15.54,220.2h49.33v41.8H15.54v-41.8Z" fill="#231f20"/>
  <path d="M17.07,219h49.33v41.6H17.07v-41.6Z" fill="#fff100"/>
  <path d="M317.8,25c.13,1.7-1.73,3.2-3.99,3.3h-108.44c-2.4-.1-4.26-1.5-3.99-3.3v-6.5c-.13-1.8,1.73-3.2,3.99-3.3h108.44c2.26,.1,3.99,1.6,3.99,3.3v6.5Z" fill="none" stroke="#fff" stroke-miterlimit="10" stroke-width="1.15"/>
  <path d="M12,277.7h60.8v20.6H12v-20.6Z" fill="#231f20"/>
  <path d="M14,277h57.3v20.6H14v-20.6Z" fill="#fff100"/>
  <path d="M77.7,227.6c.3,0,.5,0,.8,.1,.2,.1,.4,.2,.6,.4,.15,.16,.28,.32,.4,.5l.4-.5c.2-.2,.3-.3,.6-.4,.3-.1,.5-.2,.8-.1,.4,0,.7,.1,1,.3s.5,.5,.7,.8,.3,.7,.3,1c0,.4-.1,.8-.3,1-.2,.3-.4,.6-.7,.8-.3,.2-.7,.3-1,.3s-.5,0-.8-.1c-.2-.1-.4-.2-.5-.3-.2-.1-.3-.3-.4-.5-.1,.2-.2,.3-.4,.5s-.4,.3-.6,.3c-.3,.1-.5,.1-.8,.1s-.7-.1-1-.3-.6-.5-.8-.8c-.2-.3-.3-.7-.3-1,0-.4,.1-.8,.3-1,.2-.3,.4-.6,.7-.8,.3-.2,.7-.3,1-.3Zm.1,3.2c.2,0,.3,0,.5-.1,.1-.1,.3-.2,.4-.4s.2-.3,.3-.5l-.3-.5c-.1-.1-.2-.3-.4-.3-.2-.1-.3-.1-.5-.1s-.3,0-.4,.1-.3,.2-.3,.3c-.09,.18-.13,.39-.1,.6,0,.2,0,.4,.1,.6l.3,.3c.1,.1,.3,.1,.4,.1v-.1h0Zm3.3,0c.2,0,.3,0,.4-.1s.3-.2,.3-.3c.1-.2,.1-.4,.1-.6s0-.4-.1-.6l-.3-.3c-.1-.1-.3-.1-.4-.1-.2,0-.4,0-.5,.1s-.3,.2-.3,.4l-.3,.5c.1,.2,.2,.3,.3,.5,.1,.1,.2,.3,.4,.3s.3,.1,.5,.1l-.1,.1h0Z" fill="#fff"/>
</svg>