<svg xmlns="http://www.w3.org/2000/svg" xmlns:xlink="http://www.w3.org/1999/xlink" width="335" height="335" data-name="Layer 1"><defs><linearGradient id="b" x1="5.07" x2="158.68" y1="224.08" y2="224.08" gradientUnits="userSpaceOnUse"><stop offset="0" stop-color="#586167"/><stop offset=".3" stop-color="#acbfcd"/><stop offset=".67" stop-color="#535f6a"/><stop offset="1" stop-color="#a8c0cd"/></linearGradient><linearGradient id="a" x1="7.88" x2="155.88" y1="224.08" y2="224.08" gradientUnits="userSpaceOnUse"><stop offset="0" stop-color="#1d252c"/><stop offset="1" stop-color="#384651"/></linearGradient><linearGradient xlink:href="#a" id="g" x1="26.73" x2="47.15" y1="207.58" y2="207.58"/><linearGradient xlink:href="#a" id="h" x1="26.32" x2="46.25" y1="238.42" y2="238.42"/><linearGradient xlink:href="#a" id="i" x1="40.65" x2="62.7" y1="261.24" y2="261.24"/><linearGradient xlink:href="#a" id="j" x1="72.08" x2="89.97" y1="270.66" y2="270.66"/><linearGradient xlink:href="#a" id="k" x1="99.02" x2="120.83" y1="262.78" y2="262.78"/><linearGradient xlink:href="#a" id="l" x1="116.61" x2="137.03" y1="240.59" y2="240.59"/><linearGradient xlink:href="#a" id="m" x1="117.51" x2="137.44" y1="209.75" y2="209.75"/><linearGradient xlink:href="#a" id="n" x1="101.06" x2="123.11" y1="186.92" y2="186.92"/><linearGradient xlink:href="#a" id="o" x1="73.79" x2="91.69" y1="177.5" y2="177.5"/><linearGradient xlink:href="#a" id="p" x1="42.93" x2="64.74" y1="185.38" y2="185.38"/><linearGradient xlink:href="#a" id="q" x1="47.63" x2="116.13"/><linearGradient xlink:href="#b" id="r" x1="13.63" x2="61.89" y1="298.6" y2="298.6"/><linearGradient xlink:href="#b" id="t" x1="113.35" x2="170.75" y1="293.28" y2="293.28"/><linearGradient xlink:href="#b" id="u" x1="129.19" x2="177.45" y1="178" y2="178"/><radialGradient id="c" cx="167.5" cy="167.5" r="167.5" fx="167.5" fy="167.5" gradientUnits="userSpaceOnUse"><stop offset="0" stop-color="#1f4f1e"/><stop offset="1" stop-color="#103210"/></radialGradient><radialGradient id="e" cx="167.5" cy="305.13" r="119.79" fx="167.5" fy="305.13" gradientUnits="userSpaceOnUse"><stop offset="0" stop-color="#a27d64"/><stop offset="1" stop-color="#875d39"/></radialGradient><radialGradient xlink:href="#c" id="s" cx="37.76" cy="298.6" r="23.21" fx="37.76" fy="298.6"/><filter id="f" data-name="drop-shadow-6" filterUnits="userSpaceOnUse"><feOffset dx="3" dy="5"/><feGaussianBlur result="uuid-8d532916-b8bc-49d5-b9c5-078531610f8b" stdDeviation="3"/><feFlood flood-color="#000" flood-opacity=".75"/><feComposite in2="uuid-8d532916-b8bc-49d5-b9c5-078531610f8b" operator="in"/><feComposite in="SourceGraphic"/></filter><filter id="v" data-name="drop-shadow-7" filterUnits="userSpaceOnUse"><feOffset dx="3" dy="4"/><feGaussianBlur result="uuid-b1c2f699-4d1d-4b0a-b653-b53011ab8aa4" stdDeviation="5"/><feFlood flood-color="#000" flood-opacity=".75"/><feComposite in2="uuid-b1c2f699-4d1d-4b0a-b653-b53011ab8aa4" operator="in"/><feComposite in="SourceGraphic"/></filter><filter id="w" data-name="drop-shadow-8" filterUnits="userSpaceOnUse"><feOffset dx="3" dy="4"/><feGaussianBlur result="uuid-e65309f6-1ac8-45d2-b660-1e7de663998b" stdDeviation="5"/><feFlood flood-color="#000" flood-opacity=".75"/><feComposite in2="uuid-e65309f6-1ac8-45d2-b660-1e7de663998b" operator="in"/><feComposite in="SourceGraphic"/></filter><clipPath id="d"><circle cx="-65.07" cy="148.57" r="45.07" fill="none"/></clipPath></defs><g clip-path="url(#d)"><image xlink:href="megan-o-hanlon-vnYk8_nLrlE-unsplash_11zon.jpg" width="1260" height="840" transform="matrix(.11 0 0 .11 -133.21 103.06)"/></g><path fill="url(#c)" d="M0 0h335v335H0z"/><path fill="#fcf5e3" d="M246.94 186.39a4.73 4.73 0 0 0-3.81 7.53l3.82 6.61 3.82-6.61a4.73 4.73 0 0 0-3.81-7.53Zm0 6.9a2.08 2.08 0 1 1 0-4.16 2.08 2.08 0 0 1 0 4.16Z"/><g fill="#fff" data-name="PRINT"><path d="M30.43 13.84c0 .56-.23 1.1-.63 1.5l-6.76 6.76-7.22-4.17v-4.1a2.14 2.14 0 0 1 4.28 0V19l6.68-6.69a2.15 2.15 0 0 1 3.66 1.53h-.01ZM29.8 32.76a2.13 2.13 0 0 1-3.02 0l-2.27-2.27-4.42-4.41v5.18a2.13 2.13 0 0 1-4.27 0v-4.09L23.06 23l4.47 4.47 2.27 2.27c.84.84.83 2.19 0 3.02ZM22.73 22.4a.5.5 0 0 0-.19-.26l-.03-.02-1.82-1.05-4.87-2.81-4.12-2.38a.47.47 0 0 0-.66.17.45.45 0 0 0-.07.25v12.48c0 .27.22.48.48.48.09 0 .17-.02.25-.06l4.12-2.38 6.69-3.86.07-.05c.06-.05.1-.11.13-.18.04-.1.05-.22.02-.33Zm-10.19-5.03 3.2 1.85 5.19 2.99c.06.04.11.08.14.14.05.1.06.2.03.29a.37.37 0 0 1-.17.22l-5.19 3-3.2 1.85a.37.37 0 0 1-.51-.14c-.04-.05-.05-.12-.05-.19v-9.69c0-.21.16-.37.37-.37.07 0 .13.01.19.05Z"/><path d="M19.65 22.62a.31.31 0 0 1-.13.17l-3.9 2.25-2.4 1.39a.28.28 0 0 1-.38-.1.33.33 0 0 1-.04-.14V18.9c0-.16.13-.28.28-.28.05 0 .1.01.14.04l2.41 1.39 3.9 2.25a.3.3 0 0 1 .13.16v.16h-.01ZM65.51 22.05l-5.96-2.99-3.67-1.84a.42.42 0 0 0-.58.16.64.64 0 0 0-.06.18l.12 9.9c.03.23.24.41.48.38.06 0 .12-.03.17-.06l.23-.12 3.4-1.81 2.09-1.12 3.78-2.01a.4.4 0 0 0 .19-.23.33.33 0 0 0 .01-.22.4.4 0 0 0-.2-.22Zm-5.96 3.03-2.81 1.5a.33.33 0 0 1-.46-.11.33.33 0 0 1-.04-.14l-.1-7.68a.33.33 0 0 1 .36-.3c.05 0 .09.02.14.04l2.85 1.43 1.02.51 3.6 1.81a.3.3 0 0 1 .16.17.3.3 0 0 1-.01.16h.01l-.02.03a.24.24 0 0 1-.13.15l-4.57 2.43Z"/><path d="M62.97 22.47a.24.24 0 0 1-.11.13l-3.43 1.83-2.12 1.13a.25.25 0 0 1-.34-.09.2.2 0 0 1-.03-.1l-.07-5.78c0-.14.13-.24.27-.23.04 0 .07.01.1.03l2.14 1.08 3.48 1.75c.06.03.1.07.12.13v.13ZM39.94 17.31l-2.28.03-2.89.04.03 2.82.09 7.48 2.46-.03-.04-3.34 2.71-.04c2.5-.03 4.32-1.49 4.3-3.53-.03-2.04-1.89-3.46-4.38-3.43Zm-.21 4.94-2.44.03-.04-2.91 2.45-.03c1.22 0 2.06.55 2.07 1.43 0 .89-.82 1.47-2.04 1.48ZM54.06 27.73l-8.21.1-.12-10.3 2.48-.03.1 8.31 5.72-.08.03 2zM70.87 23.8l.04 3.72-2.49.03-.04-3.72-4.59-6.53 2.88-.03 2.92 4.48 2.93-4.55 2.76-.04-4.41 6.64zM86.18 28.03l-1.68.02-4.43-4.74-1.79 1.73.04 3.09-1.31.01-.12-10.3 1.3-.01.07 5.7 5.76-5.78 1.72-.02-4.78 4.77 5.22 5.53zM92.65 17.48c-3.18.04-5.86 2.5-5.83 5.4.04 2.89 2.76 5.31 5.96 5.27 3.2-.04 5.85-2.52 5.81-5.42-.03-2.89-2.76-5.29-5.94-5.25Zm.42 9.57a4.57 4.57 0 0 1-4.92-4.19 4.57 4.57 0 0 1 9.12-.11 4.57 4.57 0 0 1-4.2 4.3ZM108.84 25.13c.02 1.64-1.33 2.99-4.02 3.02a6.6 6.6 0 0 1-4.54-1.58l.81-.93a5.4 5.4 0 0 0 3.78 1.44c1.78-.02 2.67-.91 2.66-1.83-.01-1.1-1.11-1.52-3.12-1.91-2.32-.46-3.78-1.08-3.8-2.87-.02-1.65 1.6-2.96 3.81-2.98a6.04 6.04 0 0 1 4.05 1.42l-.79.92a5.05 5.05 0 0 0-3.31-1.28c-1.43.02-2.45.87-2.44 1.82 0 1.07 1.15 1.43 3.11 1.82 2.21.44 3.78 1.13 3.8 2.94ZM122.51 28.01l-1.3.02-.1-7.78-4.18 7.23-4.35-7.13.09 7.78-1.31.02-.12-10.31 1.3-.01 4.36 7.13 4.18-7.24 1.3-.01.13 10.3zM130.72 17.48c-3.18.04-5.86 2.5-5.83 5.4.04 2.89 2.76 5.31 5.96 5.27 3.2-.04 5.85-2.52 5.81-5.42-.04-2.89-2.76-5.29-5.94-5.25Zm.42 9.57a4.58 4.58 0 0 1-4.93-4.19 4.58 4.58 0 0 1 9.13-.11 4.57 4.57 0 0 1-4.2 4.3ZM146.91 25.13c.02 1.64-1.34 2.99-4.02 3.02a6.7 6.7 0 0 1-4.55-1.58l.81-.93a5.43 5.43 0 0 0 3.79 1.44c1.77-.02 2.67-.91 2.65-1.83 0-1.1-1.1-1.52-3.12-1.91-2.31-.46-3.78-1.08-3.8-2.87-.02-1.65 1.61-2.96 3.82-2.98a6.08 6.08 0 0 1 4.05 1.42l-.79.92a5.08 5.08 0 0 0-3.32-1.28c-1.42.02-2.45.87-2.44 1.82.02 1.07 1.16 1.43 3.12 1.82 2.2.44 3.78 1.13 3.8 2.94Z"/></g><path fill="url(#e)" d="M335 308.84V335H0v-54.37l3.65.31 19.36 1.63 18 1.51 19.24 1.62 19.39 1.64 20.08 1.69 22.93 1.93 21.11 1.78 23.45 1.97 23.74 2 25.75 2.17h.01l25.28 2.13 28.47 2.39 27.46 2.32 29 2.44h.01l8.07.68z"/><path fill="none" stroke="#603813" stroke-miterlimit="10" d="M3.65 280.94 0 283.13M23.01 282.57 0 296.96M41.01 284.08 0 314.67M60.25 285.7 0 334.65M79.64 287.34 36.65 335M99.72 289.03 70.13 335" opacity=".7"/><path fill="none" stroke="#8c6239" stroke-miterlimit="10" d="M122.65 290.96 100.99 335M143.76 292.74 134.47 335M167.21 294.71l-.36 40.29M202.09 335l-11.14-38.29"/><path fill="#683c1e" stroke="#8c6239" stroke-miterlimit="10" d="m233.52 335-16.81-36.12h-.01"/><path fill="none" stroke="#603813" stroke-miterlimit="10" d="m265.18 335-23.19-33.99M302.07 335l-31.61-31.6" opacity=".7"/><path fill="#683c1e" stroke="#603813" stroke-miterlimit="10" d="M297.92 305.72h.01L334.32 335M326.92 308.16h.01l8.07 5.75" opacity=".7"/><g filter="url(#f)"><path fill="url(#b)" d="M81.88 148.68c-42.42 0-76.81 33.75-76.81 75.4s34.39 75.41 76.81 75.41 76.8-33.76 76.8-75.41-34.38-75.4-76.8-75.4Zm0 148.05c-40.87 0-74-32.53-74-72.65s33.13-72.65 74-72.65 74 32.53 74 72.65-33.13 72.65-74 72.65Z" opacity=".9"/><path fill="url(#a)" d="M81.88 151.43c-40.87 0-74 32.53-74 72.65s33.13 72.65 74 72.65 74-32.53 74-72.65-33.13-72.65-74-72.65Zm0 134.5c-34.8 0-63-27.7-63-61.85s28.2-61.85 63-61.85 63 27.7 63 61.85-28.21 61.85-63 61.85Z"/><path fill="#edebea" d="M81.87 162.23c-34.8 0-63 27.7-63 61.85s28.2 61.85 63 61.85 63-27.7 63-61.85-28.21-61.85-63-61.85Zm0 122.72c-34.24 0-62-27.25-62-60.87s27.76-60.87 62-60.87 62 27.25 62 60.87-27.76 60.87-62 60.87Z"/><path fill="#088e39" d="M42.23 183.88a56.25 56.25 0 0 0-10.47 13.53l-4.4-2.35a61.51 61.51 0 0 1 11.39-14.71l3.48 3.52ZM24.88 224.08c0 2.4.15 4.74.45 7.06l-4.96.62a60.78 60.78 0 0 1 .46-18.34l4.92.85a55.58 55.58 0 0 0-.87 9.81ZM39.91 261.96l-3.67 3.32a61.11 61.11 0 0 1-10.28-14.87l4.51-2.12a56.46 56.46 0 0 0 9.44 13.68ZM71.91 279.19l-.88 4.83a62.44 62.44 0 0 1-19.25-6.71l2.43-4.3a57.2 57.2 0 0 0 17.7 6.18ZM108.78 278.94a62.57 62.57 0 0 1-17.95 5.38l-.72-4.87a56.65 56.65 0 0 0 16.5-4.94l2.17 4.43ZM136.39 253.11a61.42 61.42 0 0 1-11.38 14.7l-3.48-3.52a56.1 56.1 0 0 0 10.46-13.52l4.4 2.35ZM143.88 224.08c0 3.64-.33 7.21-.95 10.67l-4.92-.85a55.78 55.78 0 0 0 .42-16.87l4.96-.62c.32 2.51.49 5.08.49 7.67ZM137.8 197.76l-4.51 2.12a56.46 56.46 0 0 0-9.44-13.68l3.67-3.32a61.11 61.11 0 0 1 10.28 14.87ZM111.98 170.85l-2.43 4.3a57.3 57.3 0 0 0-17.69-6.18l.87-4.83a62.44 62.44 0 0 1 19.25 6.71ZM73.65 168.71a56.65 56.65 0 0 0-16.5 4.94l-2.17-4.43a62.57 62.57 0 0 1 17.95-5.38l.72 4.87Z"/><path fill="#edebea" d="M81.87 168.12c-31.48 0-57 25.05-57 55.96s25.52 55.96 57 55.96 57-25.05 57-55.96-25.52-55.96-57-55.96Zm0 110.94c-30.93 0-56-24.61-56-54.98s25.07-54.98 56-54.98 56 24.61 56 54.98-25.07 54.98-56 54.98Z"/><path fill="url(#g)" d="M47.15 205.59a37.75 37.75 0 0 0-4.16 11.69l-16.26-2.84a53.98 53.98 0 0 1 5.91-16.57l14.51 7.72Z"/><path fill="url(#h)" d="m46.25 240.86-14.88 7a53.9 53.9 0 0 1-5.05-16.85l16.37-2.03c.54 4.21 1.77 8.2 3.56 11.88Z"/><path fill="url(#i)" d="m62.7 257.99-8.01 14.17a56.09 56.09 0 0 1-14.04-10.87l12.15-10.97a39.47 39.47 0 0 0 9.9 7.67Z"/><path fill="url(#j)" d="M89.97 278.48a56.75 56.75 0 0 1-17.89-.25l2.89-15.96a40.27 40.27 0 0 0 12.61.19l2.39 16.03Z"/><path fill="url(#k)" d="M120.83 263.58a56.1 56.1 0 0 1-14.65 10.05l-7.16-14.6a39.56 39.56 0 0 0 10.33-7.1l11.48 11.64Z"/><path fill="url(#l)" d="M137.03 233.72a54.04 54.04 0 0 1-5.91 16.58l-14.51-7.73a37.91 37.91 0 0 0 4.16-11.69l16.26 2.84Z"/><path fill="url(#m)" d="m137.44 217.16-16.37 2.03a38.16 38.16 0 0 0-3.56-11.88l14.88-7.01a53.7 53.7 0 0 1 5.05 16.86Z"/><path fill="url(#n)" d="m123.11 186.87-12.15 10.97a39.7 39.7 0 0 0-9.9-7.67l8.01-14.17c5.26 2.88 10 6.55 14.04 10.87Z"/><path fill="url(#o)" d="M91.69 169.94 88.8 185.9a40.27 40.27 0 0 0-12.61-.19l-2.39-16.03a56.75 56.75 0 0 1 17.9.25Z"/><path fill="url(#p)" d="M64.74 189.13a39.15 39.15 0 0 0-10.33 7.1l-11.48-11.64a56.1 56.1 0 0 1 14.65-10.05l7.16 14.6Z"/><path fill="#f8b000" d="M76.18 185.71a39.39 39.39 0 0 0-11.44 3.42l-7.16-14.6a56.3 56.3 0 0 1 16.21-4.85l2.39 16.03ZM109.07 176l-8.01 14.17a39.68 39.68 0 0 0-12.26-4.27l2.89-15.96a56.27 56.27 0 0 1 17.38 6.07ZM132.39 200.3l-14.88 7.01a38.86 38.86 0 0 0-6.55-9.47l12.15-10.97a55.21 55.21 0 0 1 9.28 13.43ZM137.88 224.08c0 3.29-.29 6.51-.85 9.64l-16.26-2.84a38.13 38.13 0 0 0 .3-11.69l16.37-2.03c.29 2.27.44 4.58.44 6.92ZM131.12 250.3a55.14 55.14 0 0 1-10.29 13.27l-11.48-11.64a38.68 38.68 0 0 0 7.26-9.36l14.51 7.73ZM106.18 273.63a56.3 56.3 0 0 1-16.21 4.85l-2.39-16.03a39.3 39.3 0 0 0 11.44-3.42l7.16 14.6ZM74.97 262.26l-2.89 15.96a56.33 56.33 0 0 1-17.39-6.07l8.01-14.17a39.73 39.73 0 0 0 12.27 4.27ZM52.8 250.32l-12.15 10.97a55.21 55.21 0 0 1-9.28-13.43l14.88-7a38.62 38.62 0 0 0 6.55 9.46ZM42.38 224.08c0 1.66.11 3.29.31 4.89l-16.37 2.04a54.63 54.63 0 0 1 .41-16.56l16.26 2.84c-.4 2.2-.61 4.48-.61 6.79ZM54.41 196.23a38.67 38.67 0 0 0-7.26 9.37l-14.51-7.72a55 55 0 0 1 10.29-13.29l11.48 11.64Z"/><path fill="#edebea" d="M81.87 184.32c-22.37 0-40.5 17.8-40.5 39.76s18.13 39.76 40.5 39.76 40.5-17.8 40.5-39.76-18.14-39.76-40.5-39.76Zm0 78.48c-21.78 0-39.43-17.33-39.43-38.71s17.65-38.71 39.43-38.71 39.43 17.34 39.43 38.71-17.66 38.71-39.43 38.71Z"/><path fill="#cc0302" d="M116.34 230.11a33.36 33.36 0 0 1-3.69 10.36l3.96 2.11a37.91 37.91 0 0 0 4.16-11.69l-4.43-.78Zm-60.23 17.23-3.31 2.98a39.47 39.47 0 0 0 9.9 7.67l2.18-3.86a35.06 35.06 0 0 1-8.77-6.79Zm-8.96-41.74a37.75 37.75 0 0 0-4.16 11.69l4.43.78a33.66 33.66 0 0 1 3.68-10.37l-3.95-2.1Zm34.73-20.29c-1.94 0-3.84.14-5.7.41l.65 4.36a35.27 35.27 0 0 1 11.17.18l.79-4.35c-2.24-.39-4.55-.6-6.91-.6Zm-27.47 10.93 3.12 3.16a35.4 35.4 0 0 1 9.16-6.28l-1.95-3.98a39.15 39.15 0 0 0-10.33 7.1Zm-7.26 32.18-4.46.56a38.3 38.3 0 0 0 3.56 11.89l4.06-1.91a33.85 33.85 0 0 1-3.16-10.53Zm39.78 29.68a35.27 35.27 0 0 1-11.17-.18l-.79 4.35a40.27 40.27 0 0 0 12.61.19l-.65-4.36Zm19.3-9.32a35.12 35.12 0 0 1-9.16 6.27l1.95 3.99a39.56 39.56 0 0 0 10.33-7.1l-3.12-3.16Zm11.28-41.46-4.06 1.91a33.87 33.87 0 0 1 3.16 10.52l4.46-.56a38.16 38.16 0 0 0-3.56-11.88Zm-16.45-17.14-2.19 3.87a35.44 35.44 0 0 1 8.78 6.78l3.31-2.98a39.7 39.7 0 0 0-9.9-7.67Z"/><path fill="#f8b000" d="M81.88 215.18c-5.02 0-9.08 4-9.08 8.9s4.06 8.91 9.08 8.91 9.07-3.99 9.07-8.91-4.06-8.9-9.07-8.9Zm0 16.8c-4.45 0-8.04-3.52-8.04-7.89s3.59-7.89 8.04-7.89 8.04 3.54 8.04 7.89-3.6 7.89-8.04 7.89Zm0-16.8c-5.02 0-9.08 4-9.08 8.9s4.06 8.91 9.08 8.91 9.07-3.99 9.07-8.91-4.06-8.9-9.07-8.9Zm0 16.8c-4.45 0-8.04-3.52-8.04-7.89s3.59-7.89 8.04-7.89 8.04 3.54 8.04 7.89-3.6 7.89-8.04 7.89Zm0-16.8c-5.02 0-9.08 4-9.08 8.9s4.06 8.91 9.08 8.91 9.07-3.99 9.07-8.91-4.06-8.9-9.07-8.9Zm0 16.8c-4.45 0-8.04-3.52-8.04-7.89s3.59-7.89 8.04-7.89 8.04 3.54 8.04 7.89-3.6 7.89-8.04 7.89Z"/><path fill="#f8b000" d="M81.88 215.74c-4.7 0-8.5 3.74-8.5 8.34s3.8 8.34 8.5 8.34 8.5-3.73 8.5-8.34-3.81-8.34-8.5-8.34Zm0 16.01c-4.32 0-7.81-3.43-7.81-7.67s3.49-7.67 7.81-7.67 7.81 3.44 7.81 7.67-3.5 7.67-7.81 7.67Z"/><path fill="url(#q)" d="M81.88 190.46c-18.92 0-34.25 15.06-34.25 33.63s15.33 33.63 34.25 33.63 34.25-15.04 34.25-33.63-15.34-33.63-34.25-33.63Zm0 42.61c-5.06 0-9.15-4.02-9.15-8.98s4.09-8.97 9.15-8.97 9.14 4.03 9.14 8.97-4.09 8.98-9.14 8.98Z"/><path fill="#088e39" d="M81.88 215.74c-4.7 0-8.5 3.74-8.5 8.34s3.8 8.34 8.5 8.34 8.5-3.73 8.5-8.34-3.81-8.34-8.5-8.34Zm0 12.76c-2.49 0-4.5-1.97-4.5-4.42s2.01-4.42 4.5-4.42 4.5 1.98 4.5 4.42-2.02 4.42-4.5 4.42Z"/><path fill="#edebea" d="M81.87 219.67c-2.49 0-4.5 1.98-4.5 4.42s2.01 4.42 4.5 4.42 4.5-1.97 4.5-4.42-2.02-4.42-4.5-4.42Zm0 7.85c-1.94 0-3.5-1.54-3.5-3.44s1.56-3.44 3.5-3.44 3.5 1.54 3.5 3.44-1.57 3.44-3.5 3.44Z"/><ellipse cx="81.87" cy="224.08" fill="#cc0302" rx="3.75" ry="3.68"/><path fill="none" d="m90.11 279.45-.14-.97M73.79 169.68l-.14-.97M90.97 285.28l-.14-.96M72.93 163.84l-.14-.96"/><path fill="#cc0302" d="m92.73 164.14-.87 4.83a58.61 58.61 0 0 0-18.21-.26l-.72-4.87a64.36 64.36 0 0 1 19.8.3Z"/><path fill="none" d="m92.91 163.17-.18.97"/><path fill="#cc0302" d="M90.83 284.32a64.36 64.36 0 0 1-19.8-.3l.88-4.83a58.5 58.5 0 0 0 18.2.26l.72 4.87Z"/><path fill="none" d="m71.03 284.02-.18.97M91.86 168.97l-.17.97M72.08 278.22l-.17.97M54.69 272.16l-.48.85M109.55 175.15l-.48.85"/><path fill="#088e39" d="m101.06 190.17-2.19 3.87A34.84 34.84 0 0 0 88 190.25l.79-4.35h.07l1.56.3 1.6.38 1.05.29c.18.04.37.1.55.16l1.04.33c.26.08.52.18.77.27.47.17.93.34 1.39.53.44.18.88.35 1.31.55a21.93 21.93 0 0 1 1.14.53l.58.28 1.2.63Z"/><path fill="#f8b000" d="m98.87 194.04-12.56 22.2-.31.55a8.4 8.4 0 0 0-2.63-.92l.11-.61L88 190.25c3.88.67 7.54 1.96 10.87 3.79Z"/><path fill="none" d="m51.78 277.31-.48.86M112.46 170l-.48.85"/><path fill="#cc0302" d="m127.52 182.89-3.67 3.32a56.97 56.97 0 0 0-14.3-11.05l2.43-4.3a62.21 62.21 0 0 1 15.54 12.04Z"/><path fill="none" d="m128.26 182.22-.74.67"/><path fill="#cc0302" d="m54.21 273.01-2.43 4.3a62.21 62.21 0 0 1-15.54-12.04l3.67-3.32A56.97 56.97 0 0 0 54.21 273Z"/><path fill="none" d="m36.24 265.27-.74.67M123.85 186.2l-.74.67M40.65 261.29l-.74.67"/><path fill="#cc0302" d="m143.39 216.41-4.96.62a54.68 54.68 0 0 0-5.14-17.15l4.51-2.12a59.58 59.58 0 0 1 5.59 18.65ZM30.47 248.28l-4.51 2.12a59.6 59.6 0 0 1-5.59-18.64l4.96-.62a54.96 54.96 0 0 0 5.14 17.14Z"/><path fill="none" d="m31.37 247.86-.9.42"/><path fill="#088e39" d="m56.11 247.34-3.31 2.98c-.36-.38-.72-.79-1.07-1.19-.22-.26-.44-.51-.65-.78a26.3 26.3 0 0 1-1.55-2.03 27.19 27.19 0 0 1-1.28-1.9c-.22-.33-.42-.67-.62-1.01a42.09 42.09 0 0 1-1.38-2.55l4.06-1.91a34.52 34.52 0 0 0 5.8 8.39Z"/><path fill="#f8b000" d="m75.63 229.73-.48.43-19.04 17.18a34.52 34.52 0 0 1-5.8-8.39l23.32-10.98.59-.27c.36.75.84 1.43 1.41 2.03Z"/><path fill="none" d="m133.29 199.88-.9.42"/><path fill="#088e39" d="m117.51 207.31-4.06 1.91a34.66 34.66 0 0 0-5.8-8.4l3.31-2.98a37.39 37.39 0 0 1 3.62 4.48 40 40 0 0 1 2.93 4.99Z"/><path fill="#f8b000" d="m113.45 209.23-23.33 10.98-.57.27a8.03 8.03 0 0 0-1.42-2.04l.47-.42 19.05-17.19a34.66 34.66 0 0 1 5.8 8.4Z"/><path fill="none" d="m25.96 250.4-.9.42M138.7 197.34l-.9.42M144.38 216.29l-.99.12M20.37 231.76l-.99.13"/><path fill="#088e39" d="m75.76 257.91-.79 4.35c-.45-.08-.89-.16-1.33-.26h-.04l-.55-.12a19.61 19.61 0 0 1-1.55-.39c-.38-.09-.75-.2-1.12-.3a34.79 34.79 0 0 1-3.3-1.15c-.49-.2-.98-.39-1.46-.61-.99-.44-1.97-.92-2.92-1.44l2.18-3.86c3.33 1.82 7 3.11 10.88 3.78Z"/><path fill="#f8b000" d="m80.4 232.3-.12.62-4.52 25a35.14 35.14 0 0 1-10.88-3.78l12.55-22.2.32-.56c.81.44 1.7.77 2.65.92Z"/><path fill="none" d="m138.43 217.03-.99.13M26.32 231.01l-.99.13"/><path fill="#088e39" d="M46.88 224.08c0 1.46.09 2.92.27 4.33l-4.46.56a39.38 39.38 0 0 1-.17-8.17l.02-.21c0-.16.03-.31.05-.48.04-.39.08-.78.14-1.17.07-.55.16-1.11.26-1.66l4.43.78a33.2 33.2 0 0 0-.54 6.02Z"/><path fill="#f8b000" d="M73.38 224.08c0 .36.02.72.07 1.06l-.64.08-25.66 3.19a34.36 34.36 0 0 1 .27-10.35l25.46 4.45.63.11c-.09.47-.13.96-.13 1.46Z"/><path fill="none" d="M26.73 214.45v-.01l-.98-.17M137.03 233.72v.01l.98.17M20.83 213.42l-.99-.18M143.92 234.93l-.99-.18"/><path fill="#cc0302" d="M142.93 234.75a59.86 59.86 0 0 1-6.54 18.36l-4.4-2.35a55.06 55.06 0 0 0 6.02-16.87l4.92.85Z"/><path fill="none" d="m137.27 253.58-.88-.47"/><path fill="#cc0302" d="M31.76 197.41a54.78 54.78 0 0 0-6.01 16.87l-4.92-.85a60.1 60.1 0 0 1 6.53-18.36l4.4 2.35Z"/><path fill="none" d="M26.48 194.59v.01l.88.46M131.99 250.76l-.87-.46M32.64 197.87l-.88-.46M42.93 184.58l-.7-.7"/><path fill="#088e39" d="M57.53 199.39a34.65 34.65 0 0 0-6.43 8.31l-3.95-2.1c.48-.86.99-1.72 1.54-2.54.18-.27.36-.55.56-.81.13-.21.27-.4.42-.6l.59-.8a31.4 31.4 0 0 1 1.81-2.18 35.76 35.76 0 0 1 2.34-2.44l3.12 3.16Z"/><path fill="#f8b000" d="M75.97 218.09a8.42 8.42 0 0 0-1.56 2.01l-.58-.3-22.73-12.11a35.05 35.05 0 0 1 6.43-8.31l17.99 18.24.45.46Z"/><path fill="#088e39" d="M99.02 259.03c-.33.16-.66.3-1 .45l-.56.25c-.36.16-.73.3-1.1.44l-.48.18a28 28 0 0 1-3.03.99c-.4.12-.81.23-1.22.32-.28.08-.56.15-.85.21l-1.06.22-.96.18-1.18.19-.65-4.36a35.36 35.36 0 0 0 10.14-3.04l1.95 3.99Z"/><path fill="#f8b000" d="M97.07 255.04a35.36 35.36 0 0 1-10.14 3.04l-3.73-25.12-.09-.63a8.25 8.25 0 0 0 2.46-.74l.28.57 11.22 22.88Z"/><path fill="none" d="m121.53 264.28-.7-.7"/><path fill="#088e39" d="M116.61 242.58a42.93 42.93 0 0 1-2.39 3.77c-.28.4-.58.81-.88 1.19l-.94 1.16a37.85 37.85 0 0 1-3.05 3.24l-3.12-3.16a34.42 34.42 0 0 0 6.42-8.31l3.96 2.11Z"/><path fill="#f8b000" d="M112.65 240.47a34.8 34.8 0 0 1-6.42 8.31l-17.99-18.24-.45-.46a8.04 8.04 0 0 0 1.56-2.01l.57.3 22.73 12.11Z"/><path fill="none" d="m38.75 180.35-.7-.7M125.71 268.51l-.7-.7"/><path fill="#cc0302" d="M125.01 267.81a62 62 0 0 1-16.23 11.13l-2.17-4.43a57.07 57.07 0 0 0 14.92-10.23l3.48 3.52Z"/><path fill="none" d="m109.21 279.82-.43-.88"/><path fill="#cc0302" d="M57.15 173.65a57.07 57.07 0 0 0-14.92 10.23l-3.48-3.52a62 62 0 0 1 16.23-11.13l2.17 4.43Z"/><path fill="none" d="m54.98 169.22-.43-.88M106.61 274.51l-.43-.88"/><path fill="#088e39" d="M121.38 224.08c0 .58-.01 1.16-.04 1.74-.02.41-.04.83-.08 1.25a34.15 34.15 0 0 1-.49 3.82l-4.43-.78a33.31 33.31 0 0 0 .27-10.36l4.46-.56c.2 1.6.31 3.23.31 4.89Z"/><path fill="#f8b000" d="M116.88 224.08c0 2.05-.18 4.07-.54 6.03l-25.47-4.45-.62-.11a8.93 8.93 0 0 0 .06-2.52l.63-.08 25.67-3.2c.18 1.42.27 2.87.27 4.33Z"/><path fill="none" d="m57.58 174.53-.43-.88"/><path fill="#088e39" d="M76.83 190.07a35.57 35.57 0 0 0-10.14 3.03l-1.95-3.98c.83-.39 1.67-.76 2.54-1.09l.62-.24c.7-.27 1.41-.51 2.14-.73l.54-.16c1.81-.54 3.69-.94 5.6-1.21l.65 4.36Z"/><path fill="#f8b000" d="M80.65 215.82c-.87.12-1.69.37-2.46.74l-.28-.57-11.22-22.88a35.57 35.57 0 0 1 10.14-3.03l3.73 25.13.09.62Z"/><path fill="#edebea" d="M81.88 189.72c-19.34 0-35 15.39-35 34.36s15.66 34.36 35 34.36 35-15.37 35-34.36-15.68-34.36-35-34.36Zm0 67.74c-18.78 0-34-14.93-34-33.38s15.22-33.38 34-33.38 34 14.95 34 33.38-15.23 33.38-34 33.38Z"/><path fill="#edebea" d="M90.94 222.95a8.59 8.59 0 0 0-2.34-4.94 8.89 8.89 0 0 0-5.12-2.76 8.43 8.43 0 0 0-2.92-.05 9.14 9.14 0 0 0-6.73 4.6 8.49 8.49 0 0 0-.95 2.71 8.12 8.12 0 0 0-.07 2.71 8.67 8.67 0 0 0 2.34 4.94 8.82 8.82 0 0 0 5.13 2.76 8.5 8.5 0 0 0 2.92.05c.94-.13 1.83-.4 2.65-.8a8.89 8.89 0 0 0 5.09-9.22Zm-1.59 5.11a8.3 8.3 0 0 1-6.24 4.28 8.28 8.28 0 0 1-2.71-.04 8.5 8.5 0 0 1-6.18-4.6 8.02 8.02 0 0 1-.71-5.07 8.1 8.1 0 0 1 2.46-4.52 8.3 8.3 0 0 1 4.68-2.27 8.28 8.28 0 0 1 2.72.04 8.65 8.65 0 0 1 4.76 2.57 8.2 8.2 0 0 1 1.22 9.61Z"/><text fill="#fff" font-family="Gotham-Medium, Gotham" font-size="7.85" transform="matrix(1.02 0 0 1 100.21 162.38)"><tspan x="0" y="0">1</tspan></text><text fill="#fff" font-family="Gotham-Medium, Gotham" font-size="7.85" transform="matrix(1.02 0 0 1 20 264.28)"><tspan x="0" y="0">17</tspan></text><text fill="#fff" font-family="Gotham-Medium, Gotham" font-size="7.85" transform="matrix(1.02 0 0 1 117.51 282.07)"><tspan x="0" y="0">2</tspan></text><text fill="#fff" font-family="Gotham-Medium, Gotham" font-size="7.85" transform="matrix(1.02 0 0 1 78.37 294.34)"><tspan x="0" y="0">3</tspan></text><text fill="#fff" font-family="Gotham-Medium, Gotham" font-size="7.85" transform="matrix(1.02 0 0 1 136.39 190.46)"><tspan x="0" y="0">4</tspan></text><text fill="#fff" font-family="Gotham-Medium, Gotham" font-size="7.85" transform="matrix(1.02 0 0 1 58.84 161.4)"><tspan x="0" y="0">5</tspan></text><text fill="#fff" font-family="Gotham-Medium, Gotham" font-size="7.85" transform="matrix(1.02 0 0 1 148.06 227.34)"><tspan x="0" y="0">6</tspan></text><text fill="#fff" font-family="Gotham-Medium, Gotham" font-size="7.85" transform="matrix(1.02 0 0 1 13.67 245.46)"><tspan x="0" y="0">8</tspan></text><text fill="#fff" font-family="Gotham-Medium, Gotham" font-size="7.85" transform="matrix(1.02 0 0 1 22.81 186.54)"><tspan x="0" y="0">9</tspan></text><text fill="#fff" font-family="Gotham-Medium, Gotham" font-size="7.85" transform="matrix(1.02 0 0 1 142.93 248.07)"><tspan x="0" y="0">10</tspan></text><text fill="#fff" font-family="Gotham-Medium, Gotham" font-size="7.85" transform="matrix(1.02 0 0 1 9.73 224.11)"><tspan x="0" y="0">11</tspan></text><text fill="#fff" font-family="Gotham-Medium, Gotham" font-size="7.85" transform="matrix(1.02 0 0 1 36.94 172.04)"><tspan x="0" y="0">12</tspan></text><text fill="#fff" font-family="Gotham-Medium, Gotham" font-size="7.85" transform="matrix(1.02 0 0 1 143.39 207.31)"><tspan x="0" y="0">13</tspan></text><text fill="#fff" font-family="Gotham-Medium, Gotham" font-size="7.85" transform="matrix(1.02 0 0 1 132.84 267.81)"><tspan x="0" y="0">15</tspan></text><text fill="#fff" font-family="Gotham-Medium, Gotham" font-size="7.85" transform="matrix(1.02 0 0 1 32.93 277.74)"><tspan x="0" y="0">16</tspan></text><text fill="#fff" font-family="Gotham-Medium, Gotham" font-size="7.85" transform="matrix(1.02 0 0 1 11.53 206.36)"><tspan x="0" y="0">14</tspan></text><text fill="#fff" font-family="Gotham-Medium, Gotham" font-size="7.85" transform="matrix(1.02 0 0 1 97.07 291.12)"><tspan x="0" y="0">17</tspan></text><text fill="#fff" font-family="Gotham-Medium, Gotham" font-size="7.85" transform="matrix(1.02 0 0 1 117.51 172.04)"><tspan x="0" y="0">18</tspan></text><text fill="#fff" font-family="Gotham-Medium, Gotham" font-size="7.85" transform="matrix(1.02 0 0 1 54.41 290.14)"><tspan x="0" y="0">19</tspan></text><text fill="#fff" font-family="Gotham-Medium, Gotham" font-size="7.85" transform="matrix(1.02 0 0 1 76.83 158.46)"><tspan x="0" y="0">20</tspan></text></g><path fill="#cc0302" d="M269.03 95.53 65.99 92.1c-5.44-.09-9.34-6.15-7.98-12.4l6.7-30.61c1-4.56 4.54-7.72 8.51-7.59l189.92 6.13c3.7.12 6.87 3.07 7.84 7.27l6.42 27.92c1.48 6.44-2.72 12.81-8.38 12.71Z"/><path fill="url(#r)" d="M37.76 274.47a24.13 24.13 0 1 0 0 48.25 24.13 24.13 0 0 0 0-48.25Zm0 47.43a23.3 23.3 0 1 1 0-46.6 23.3 23.3 0 0 1 0 46.6Z" opacity=".9"/><circle cx="37.76" cy="298.6" r="23.21" fill="url(#s)"/><path fill="url(#t)" d="M142.05 264.58a28.7 28.7 0 1 0 0 57.4 28.7 28.7 0 0 0 0-57.4Zm0 56.41a27.71 27.71 0 1 1 .01-55.43 27.71 27.71 0 0 1-.01 55.43Z" opacity=".9"/><circle cx="142.05" cy="293.28" r="27.61" fill="#cc0302"/><path fill="url(#u)" d="M153.32 153.87a24.13 24.13 0 1 0 0 48.25 24.13 24.13 0 0 0 0-48.25Zm0 47.43a23.3 23.3 0 1 1 0-46.6 23.3 23.3 0 0 1 0 46.6Z" opacity=".9"/><circle cx="153.32" cy="178" r="23.21" fill="#f8b000"/><g filter="url(#v)"><path fill="#4bca59" d="m45.43 318.68.03-.13.07-.18.62-1.16 14.92-4.74c.15 0 .3.03.43 0 .98-.26 1.97-.52 2.95-.82l16.26-5.04.26.6v.11l-.12.08c-2.66.75-5.32 1.49-7.97 2.25-.76.22-1.5.51-2.27.74-1.84.55-3.68 1.08-5.52 1.61-1.02.29-2.03.57-3.05.84-.18.05-.38.03-.57.05-.44.61-.83 1.25-1.31 1.82-2.98 3.56-6.69 5.92-11.34 6.58-1.1.16-2.26.27-3.2-.61l-.22-1.85.04-.13Z"/><path fill="#389c42" d="m61.06 312.46-14.92 4.74-.19-.07-.16-.07-.84-.46.03-.05h-.05l-.72-.68v-.06l-.06-.03-.46-1.09c.13-.6.32-1.14.86-1.55a13.16 13.16 0 0 1 4.85-2.23c3.1-.76 6.18-.75 9.27.04.14.04.31-.03.46-.05l.04.02 1.28.5.31.18.23.2.15.37a2.3 2.3 0 0 0-.07.28Z"/><path fill="#63d76e" d="M59.13 310.91c-.15.02-.32.09-.46.05-3.09-.79-6.16-.8-9.27-.04a13.16 13.16 0 0 0-4.85 2.23c-.54.41-.73.94-.86 1.55-.28-.54-.09-1.01.2-1.46a7.92 7.92 0 0 1 2.37-2.45l.23-.15a13.36 13.36 0 0 1 6.99-1.33c1.93.11 3.72.64 5.46 1.43.07.03.12.12.18.17Z"/><path fill="#499953" d="m60.09 315.39-.61 1.15-.11.16c-.72.82-1.38 1.7-2.18 2.44a14.43 14.43 0 0 1-4.04 2.58 9.56 9.56 0 0 1-4.02.82c-.74 0-1.51-.09-2.1-.67.56-.04 1.12-.06 1.67-.13 3.5-.42 6.48-1.97 9.14-4.2.79-.67 1.5-1.43 2.24-2.15Z"/><path fill="#9a8457" d="M88.83 304.32c.19 1.08-.1 1.73-.88 1.91-.07.02-.16-.03-.24-.04l-.29-1.03q1.24-.35 1.04-1.4l13.76-4.6a.57.57 0 0 0-.26.01l-8.87 2.7c-1.42.43-2.83.88-4.23 1.34-.4.13-.63.08-.68-.37l10.85-3.13c.98-.28 1.96-.56 2.95-.81.17-.04.39.1.59.15-.13.15-.23.39-.4.45-1.87.65-3.75 1.27-5.62 1.91l-6.9 2.4c-.18.06-.35.16-.53.24l-.29.26Z"/><path fill="#4bca59" d="m61.14 312.19-.15-.37c1.22-.48 2.44-1 3.68-1.45 1.52-.55 3.07-1.02 4.59-1.58 2.14-.79 4.25-1.64 6.38-2.43 1.38-.51 2.78-.94 4.17-1.41l.37-.09.16.38.07.37-4.61 1.61c-1.81.63-3.61 1.25-5.43 1.86l-9.03 3.03-.18.07Z"/><path fill="#77ea83" d="M60.09 315.39c-.74.72-1.45 1.48-2.24 2.15-2.66 2.24-5.64 3.79-9.14 4.2-.56.07-1.12.09-1.67.13h.01l-.12-.09c-.7-.06-1.11-.46-1.32-1.11.93.89 2.1.77 3.2.61 4.65-.66 8.36-3.01 11.34-6.58.48-.57.88-1.21 1.31-1.82-.03.8-.57 1.35-.99 1.96l-.11.19-.21.2-.09.16h.01Z"/><path fill="#d8bb84" d="M88.17 302.85c.05.45.28.5.68.37 1.41-.46 2.82-.91 4.23-1.34 2.95-.91 5.91-1.8 8.87-2.7a.56.56 0 0 1 .26-.01l-13.76 4.6-1.35.43.31.97.29 1.03-.21.06c-.4-1.25-.79-2.51-1.21-3.75-.05-.16-.27-.26-.41-.38l-.05-.11.55-.14.41 1.29 1.31-.42s.06.06.07.1Z"/><path fill="#9a8457" d="m85.84 302.01.05.11.39 1.22-3.96 1.26-.42-1.31 3.94-1.27Z"/><path fill="#d8bb84" d="m81.9 303.29.42 1.31 3.96-1.26.49.95-4.14 1.32.31.98.3 1.01-.22.09c-.4-1.25-.79-2.51-1.21-3.75-.05-.16-.27-.26-.41-.38l-.05-.11.54-.15Z"/><path fill="#6d5428" d="m82.94 306.59-.31-.98 4.14-1.32-.49-.95-.39-1.22c.14.13.36.23.41.38.42 1.25.81 2.5 1.21 3.75l-.28.07-.32-1.01-3.97 1.26Z"/><path fill="#907849" d="m82.94 306.59 3.97-1.26.32 1.01-3.99 1.27-.3-1.01Z"/><path fill="#6d5428" d="M81.4 303.55c.14.13.35.23.41.38.42 1.25.81 2.5 1.21 3.75l-.28.07c-.37-1.15-.2-1.02-1.28-.69l-.5.14-.26-.6-.05-.35 1.47-.47-.33-1.03-.39-1.21Z"/><path fill="#9a8457" d="m81.4 303.55.39 1.21-1.47.48-.16-.38v-.06l-.03-.05c.11-.71.47-1.18 1.21-1.31l.05.11ZM88.11 302.74l-1.31.42-.41-1.29 1.29.07.11.08.33.72Z"/><path fill="#907849" d="m80.96 307.2.5-.14c1.08-.32.91-.46 1.28.69-.65.39-1.2.24-1.69-.29l-.09-.16v-.11Z"/><path fill="#63d76e" d="m60.44 311.44-1.28-.5 1.28.5Z"/><path fill="#edebea" d="m46.49 310.64-.23.15.23-.15Z"/><path fill="#63d76e" d="m60.76 311.62-.31-.18.31.18Z"/><path fill="#499953" d="m60.16 315.23.21-.22-.21.22Z"/><path fill="#f4f4f4" d="m44.15 315.79.05.03v.06l-.05-.08Z"/><path fill="#499953" d="m60.08 315.39.09-.17-.09.17Z"/><path fill="#f4f4f4" d="M44.93 316.55h.05l-.02.05-.03-.05zM45.52 318.37l-.07.18.07-.18Z"/><path fill="#edebea" d="m45.79 317.06.16.07-.16-.07Z"/><path fill="#499953" d="m46.93 321.77.12.1-.12-.1Z"/><path fill="#f4f4f4" d="m45.43 318.68-.04.13.04-.13Z"/><path fill="#499953" d="m60.37 315.03.11-.19-.11.19Z"/><path fill="#f4f4f4" d="m59.37 316.7.11-.16-.11.16Z"/><path fill="#77ea83" d="m80.65 306.25.05.35-16.26 5.04c-.97.3-1.96.55-2.95.82-.14.04-.29 0-.43 0l.07-.28.18-.07 9.03-3.03 5.43-1.86 4.61-1.61.26.64Z"/><path fill="#6d5428" d="m87.42 305.16-.31-.97 1.35-.43q.2 1.05-1.04 1.4Z"/><path fill="#d8bb84" d="m80.65 306.25-.26-.64-.07-.37 1.47-.48.33 1.03-1.47.47Z"/></g><g filter="url(#w)"><path fill="#d80a08" d="m160.76 318.75-.33-.43-.11-.15.05-.53.02-.12 15.66 1.39.2.17 1.03 1.66.07.23v1.09c-.31.79-.95 1.1-1.74 1.28-2.04.47-4.05.28-6.07-.13a17.71 17.71 0 0 1-6.97-3.08c-.46-.34-.95-.64-1.43-.96l-.25-.27-.14-.15Z"/><path fill="#f31f1a" d="m176.05 318.91-15.66-1.39-.12-.27.03-.29.83-.7.2-.18.03-.03c.19-.04.4-.04.56-.13a15.5 15.5 0 0 1 5.09-1.89c1.46-.25 2.95-.46 4.43-.47a9.85 9.85 0 0 1 4.85 1c.52.28 1.02.6 1.53.9v.03l.03.18-.27 1.71-.05.03v.05l-.1.17-.08.09-.08.13-.22.25-.65.59-.16.11-.21.12Z"/><path fill="#f43d3a" d="M161.15 319.17c.48.32.97.62 1.43.96a17.71 17.71 0 0 0 6.97 3.08c2.02.41 4.03.6 6.07.13.79-.18 1.43-.49 1.75-1.28-.16.38-.22.88-.5 1.12-.54.46-1.17.83-1.82 1.12-1.74.77-3.53.55-5.36.28-1.31-.19-2.46-.76-3.63-1.25-.94-.39-1.73-1.16-2.56-1.78-.4-.3-.76-.64-1.14-.96l-.13-.13-1.07-1.28Z"/><path fill="#d80a08" d="m163.27 314.49.56-.34.18-.1a15.72 15.72 0 0 1 4.98-1.79l.47-.08c1.13-.04 2.26-.12 3.39-.08.52.02 1.04.26 1.56.4l.19.08.7.26.31.16 1.34 1.28a14.01 14.01 0 0 0-6.39-1.11c-2.56.11-5.02.63-7.33 1.76-.2.1-.45.1-.68.15l.47-.4.25-.17Z"/><path fill="#d62421" d="m160.36 317.64-.05.53-.52-.04-.26-.02-8.48-.44c-2.96-.16-5.91-.32-8.87-.46-.75-.03-1.5.02-2.25.04l-.09-.53.08-.38a506.83 506.83 0 0 1 9.53.59l7.59.54c1.1.07 2.2.11 3.31.16Z"/><path fill="#9a8457" d="m117.52 314.09-.53-.31.1-.23 14.57.85h.24v.52c-1.78-.11-3.56-.2-5.34-.34-2.86-.23-5.73-.49-8.59-.74l-.7-.06a1 1 0 0 0 .56.18l13.38 1.32c.4.04.7.1.57.6l-.37-.07-.26-.11-9.5-1.03c-1.08-.12-2.15-.27-3.23-.4l-.9-.19Z"/><path fill="#d62421" d="m160.3 316.96-.03.29-20.17-1.94v-.65l.1-.37c4.35 1.06 8.83 1.19 13.24 1.82 2.28.33 4.57.57 6.86.85Z"/><path fill="#f43d3a" d="M162.54 315.07c.23-.05.48-.05.68-.15a18.27 18.27 0 0 1 7.33-1.76c2.21-.09 4.35.2 6.39 1.11l.68.6.14.21.06.38c-.51-.3-1.01-.62-1.53-.91a9.88 9.88 0 0 0-4.85-1c-1.48.01-2.97.22-4.43.47-1.8.31-3.49.98-5.09 1.89-.16.09-.37.09-.56.13l.11-.22.18-.16.25-.21.18-.15h.14l.35-.26h-.02Z"/><path fill="#6d5428" d="m133.62 313.01.11-.04.28.12c-.12 1.2-.16.99.88 1.1l3.15.3q-.02 1-1.03.91l-3.32-.3.02 1.11-.02.36-.19.93-.27-.04.39-4.44Z"/><path fill="#d8bb84" d="m133.72 316.21-.02-1.11 3.32.3q1.01.09 1.03-.91l.15-1.07c.04-.02.07-.01.1.02l-.39 4.44h-.13l.04-.94c.11-.36-.12-.39-.38-.41l-3.74-.31ZM133.62 313.01l-.39 4.44a.13.13 0 0 1-.12 0q.07-1.32-1.26-1.44h-.06v-.13c.14-.5-.16-.56-.56-.6l-13.38-1.32c-.19-.02-.38-.03-.56-.18l.7.06c2.86.25 5.72.51 8.59.74 1.78.14 3.56.23 5.33.34l1.38.12.09-.99.15-1.08s.07 0 .1.02Z"/><path fill="#907849" d="m138.2 313.41-.15 1.07-3.15-.3c-1.04-.11-1 .1-.88-1.1l.03-.1 4.16.43Z"/><path fill="#9a8457" d="m137.83 316.93-.04.93-4.29-.37.19-.93 4.14.37Z"/><path fill="#6d5428" d="m137.92 317.87.39-4.44.4.02-.1 1.07 1.51.13-.01.65-.14.27-.25-.04q-1.22-.13-1.28 1.06l-.25 1.32-.27-.04Z"/><path fill="#9a8457" d="m138.18 317.91.25-1.32 1.42.13.09.53c-.41.68-.99.92-1.76.67ZM131.78 316.01h.06q1.33.13 1.26 1.44c-1.14-.07-1.38-.06-1.32-1.44Z"/><path fill="#907849" d="m140.11 314.66-1.51-.13.1-1.07c.72-.11 1.19.22 1.5.84l-.09.37Z"/><path fill="#6d5428" d="m133.37 314.07-.09.99-1.38-.12v-.52c0-.04 0-.07-.02-.11l.09-.38 1.39.14Z"/><path fill="#9a8457" d="m133.37 314.07-1.39-.14c.18-.97.54-1.18 1.54-.94l-.15 1.08Z"/><path fill="#f43d3a" d="m160.9 318.89.25.27-.25-.27Z"/><path fill="#d80a08" d="m162.56 315.07-.35.25.35-.25Z"/><path fill="#f43d3a" d="m161.33 316.08-.2.18.2-.18Z"/><path fill="#d62421" d="m160.32 318.17.11.15-.11-.15Z"/><path fill="#f43d3a" d="m160.76 318.75.14.15-.14-.15ZM177.86 315.67l-.03-.18.03.18Z"/><path fill="#fa302f" d="m139.96 315.57.14-.27 20.17 1.94.12.27-.02.12c-1.1-.05-2.21-.09-3.31-.16l-7.59-.54c-1.88-.13-3.76-.26-5.64-.37l-3.89-.22.03-.77Z"/><path fill="#d8bb84" d="m139.96 315.57-.03.77-.08.38-1.42-.13q.06-1.19 1.28-1.06c.08 0 .17.03.25.04Z"/><path fill="#907849" d="m137.83 316.93-4.14-.37.02-.36 3.74.31c.26.02.49.05.38.41Z"/></g><path fill="#088e39" d="m327.09 30.51-78.42-5.01-3.54-19.7 81.26 2.03.7 22.68Z"/><circle cx="289.93" cy="148.57" r="45.07" fill="#907849"/><g fill="#fff"><path d="M310.81 171.1v6.12a2.79 2.79 0 0 1-2.78 2.78h-13.74a2.79 2.79 0 0 1-2.78-2.78v-13.74a2.79 2.79 0 0 1 2.78-2.78h6.25c.43 0 .77.35.77.77v.03c0 .43-.35.77-.77.77h-5.92c-.93 0-1.7.76-1.7 1.7v12.97c0 .93.76 1.7 1.7 1.7h12.97c.93 0 1.7-.76 1.7-1.7v-5.83a.77.77 0 0 1 1.54 0ZM311.71 159.85a3.2 3.2 0 0 1 0 4.51l-.32.33-4.52-4.52.33-.32a3.2 3.2 0 0 1 4.51 0Z"/><path d="m310.56 165.51-6.76 6.76-.29.04-4.36.58c-.25.03-.51-.23-.48-.48l.58-4.36.04-.29 6.76-6.76 4.51 4.51Z"/></g><path fill="#f8b000" d="M262.62 113.33 74.09 107.9a3.84 3.84 0 0 1-3.55-2.68L64.9 87.25a3.83 3.83 0 0 1 3.77-4.98l197.96 6.12a3.82 3.82 0 0 1 3.62 4.65l-3.79 17.28a3.83 3.83 0 0 1-3.85 3.01Z"/></svg>