<svg id="f3446941-71ea-419e-b198-f710ca5f74fe" data-name="Layer 1" xmlns="http://www.w3.org/2000/svg" xmlns:xlink="http://www.w3.org/1999/xlink" width="335" height="335" viewBox="0 0 335 335">
  <defs>
    <clipPath id="e4d784b9-8019-4c94-9e10-a415766d8892">
      <rect width="335" height="335" fill="none"/>
    </clipPath>
    <linearGradient id="a9e66073-506f-4e4a-8250-ca9aba6e034a" x1="277.39" y1="32.45" x2="335.44" y2="51.3" gradientTransform="matrix(1, 0, 0, -1, 0, 335)" gradientUnits="userSpaceOnUse">
      <stop offset="0.06" stop-color="#010101"/>
      <stop offset="0.52" stop-color="#5e5e5e"/>
      <stop offset="1" stop-color="#5e5e5e"/>
    </linearGradient>
    <linearGradient id="b9b54f68-aace-43b4-ba77-ca868819a9a5" x1="338.77" y1="84.7" x2="269.15" y2="6.85" gradientTransform="matrix(1, 0, 0, -1, 0, 335)" gradientUnits="userSpaceOnUse">
      <stop offset="0" stop-color="#070505"/>
      <stop offset="0.35" stop-color="#595a5c"/>
      <stop offset="1" stop-color="#010101"/>
    </linearGradient>
    <linearGradient id="a8e795b3-6056-47bd-b877-4795e02a41bb" x1="318.55" y1="96.23" x2="254.67" y2="24.78" xlink:href="#b9b54f68-aace-43b4-ba77-ca868819a9a5"/>
    <linearGradient id="f95ddfb6-bf4d-4ffe-a9a0-22112b7c1621" x1="333.62" y1="82.76" x2="269.72" y2="11.31" xlink:href="#b9b54f68-aace-43b4-ba77-ca868819a9a5"/>
    <linearGradient id="b17e0691-e8a6-4f82-8a29-7ebfa765078f" x1="310.41" y1="103.51" x2="246.52" y2="32.06" xlink:href="#b9b54f68-aace-43b4-ba77-ca868819a9a5"/>
    <linearGradient id="a3ca2f57-3223-4cf8-9d74-bbf411eed32f" x1="360.23" y1="58.97" x2="296.34" y2="-12.48" xlink:href="#b9b54f68-aace-43b4-ba77-ca868819a9a5"/>
    <linearGradient id="f97f3005-16d0-416f-96c3-fbfbf319e49a" x1="359.43" y1="59.68" x2="295.54" y2="-11.77" xlink:href="#b9b54f68-aace-43b4-ba77-ca868819a9a5"/>
    <linearGradient id="f1de26a9-5ebe-440e-a277-ca1f5bdde578" x1="349.84" y1="68.26" x2="285.94" y2="-3.19" xlink:href="#b9b54f68-aace-43b4-ba77-ca868819a9a5"/>
    <linearGradient id="ec5c062c-d618-4dff-984f-25166e2e8dc1" x1="311.21" y1="102.8" x2="247.32" y2="31.35" xlink:href="#b9b54f68-aace-43b4-ba77-ca868819a9a5"/>
    <linearGradient id="be526980-48b3-411b-b1ff-615e598ba781" x1="352.07" y1="66.26" x2="288.18" y2="-5.19" xlink:href="#b9b54f68-aace-43b4-ba77-ca868819a9a5"/>
    <linearGradient id="aa2b865b-9110-4580-a694-4ceb19590e05" x1="320.83" y1="94.2" x2="256.93" y2="22.75" xlink:href="#b9b54f68-aace-43b4-ba77-ca868819a9a5"/>
    <linearGradient id="fb14ca12-1d03-4f28-8960-520869bf7022" x1="337.02" y1="79.72" x2="273.13" y2="8.26" xlink:href="#b9b54f68-aace-43b4-ba77-ca868819a9a5"/>
    <linearGradient id="ba90cb1d-6fc0-4d6f-a33b-68eb8b1ddfa6" x1="328.55" y1="87.3" x2="264.65" y2="15.85" xlink:href="#b9b54f68-aace-43b4-ba77-ca868819a9a5"/>
    <linearGradient id="a3689aee-2bd1-4050-b957-f122db47e960" x1="334.33" y1="82.13" x2="270.43" y2="10.68" xlink:href="#b9b54f68-aace-43b4-ba77-ca868819a9a5"/>
    <linearGradient id="e6aa0613-f77f-4364-899a-04141d085c89" x1="326.27" y1="89.33" x2="262.38" y2="17.88" xlink:href="#b9b54f68-aace-43b4-ba77-ca868819a9a5"/>
    <linearGradient id="a258fe88-21df-4293-838f-1906aad48073" x1="338.31" y1="78.56" x2="274.41" y2="7.12" xlink:href="#b9b54f68-aace-43b4-ba77-ca868819a9a5"/>
    <linearGradient id="a3a0f9f8-66c5-4123-8a6e-cd331d1cf7ca" x1="344.21" y1="73.29" x2="280.32" y2="1.83" xlink:href="#b9b54f68-aace-43b4-ba77-ca868819a9a5"/>
    <linearGradient id="aa99dee9-08ac-4028-8bae-acd4de8b86cb" x1="341.39" y1="75.81" x2="277.49" y2="4.36" xlink:href="#b9b54f68-aace-43b4-ba77-ca868819a9a5"/>
    <linearGradient id="bee22809-daea-472c-b359-eae11ca79147" x1="326.45" y1="89.17" x2="262.56" y2="17.72" xlink:href="#b9b54f68-aace-43b4-ba77-ca868819a9a5"/>
    <radialGradient id="a43609fa-523f-47a7-8281-d37a1ff0c6d2" cx="334.19" cy="35.54" r="6.94" gradientTransform="matrix(1, 0, 0, -1, 0, 335)" gradientUnits="userSpaceOnUse">
      <stop offset="0" stop-color="#fff"/>
      <stop offset="1" stop-color="#f3f3f3"/>
    </radialGradient>
    <radialGradient id="bc4ba164-78cf-4c18-81cf-8763e3c961c2" cx="283.68" cy="10.92" r="8.15" xlink:href="#a43609fa-523f-47a7-8281-d37a1ff0c6d2"/>
    <radialGradient id="aaddb46b-dee2-4409-98d2-d4a7ef4200f4" cx="266.17" cy="48.34" r="6.95" xlink:href="#a43609fa-523f-47a7-8281-d37a1ff0c6d2"/>
    <radialGradient id="e0784b6b-8a50-4477-9642-b8e49e0d9510" cx="306.58" cy="7.92" r="6.95" xlink:href="#a43609fa-523f-47a7-8281-d37a1ff0c6d2"/>
    <radialGradient id="afbbf64d-647c-462e-8738-0053a4f6be40" cx="325.17" cy="16.96" r="8.56" xlink:href="#a43609fa-523f-47a7-8281-d37a1ff0c6d2"/>
    <radialGradient id="a52ea13d-a02c-4ed6-ad69-5a41cbefd39a" cx="275.2" cy="66.93" r="8.56" xlink:href="#a43609fa-523f-47a7-8281-d37a1ff0c6d2"/>
    <radialGradient id="a964990a-6d4d-4a7c-96bb-8ee6e3f3aa1c" cx="269.17" cy="25.44" r="8.15" xlink:href="#a43609fa-523f-47a7-8281-d37a1ff0c6d2"/>
    <radialGradient id="afd8514e-7b62-44c1-b596-9ebad67030b0" cx="331.21" cy="58.44" r="8.15" xlink:href="#a43609fa-523f-47a7-8281-d37a1ff0c6d2"/>
    <radialGradient id="f0f5c3ac-ef55-4dec-901e-272c3e99c035" cx="293.79" cy="75.95" r="6.94" xlink:href="#a43609fa-523f-47a7-8281-d37a1ff0c6d2"/>
    <radialGradient id="e1c1bdf1-253c-4233-80df-60ff521986a6" cx="316.68" cy="72.96" r="8.15" xlink:href="#a43609fa-523f-47a7-8281-d37a1ff0c6d2"/>
    <radialGradient id="ad2c891b-d987-4add-a098-6eb7360f7897" cx="312.37" cy="38.17" r="9.03" xlink:href="#a43609fa-523f-47a7-8281-d37a1ff0c6d2"/>
    <radialGradient id="b869bdfc-7f1b-4119-b08c-23c99054f052" cx="293.03" cy="30.36" r="9.63" xlink:href="#a43609fa-523f-47a7-8281-d37a1ff0c6d2"/>
    <radialGradient id="bab6e365-f0ac-4443-ac04-c34383f24ccb" cx="288" cy="45.71" r="9.02" xlink:href="#a43609fa-523f-47a7-8281-d37a1ff0c6d2"/>
    <radialGradient id="a8e5d1c4-09a4-4699-a9e6-7bcf80ad3d68" cx="303.95" cy="29.76" r="9.02" xlink:href="#a43609fa-523f-47a7-8281-d37a1ff0c6d2"/>
    <radialGradient id="a4bb3d5e-624b-44fe-aee2-c7f2f9da570a" cx="310.04" cy="32.09" r="9.86" xlink:href="#a43609fa-523f-47a7-8281-d37a1ff0c6d2"/>
    <radialGradient id="b80fdb81-4877-4bfe-891a-19644d49e704" cx="290.33" cy="51.8" r="9.86" xlink:href="#a43609fa-523f-47a7-8281-d37a1ff0c6d2"/>
    <radialGradient id="f69f188a-2016-4825-b602-a8d8be5cafdb" cx="288.6" cy="34.79" r="9.63" xlink:href="#a43609fa-523f-47a7-8281-d37a1ff0c6d2"/>
    <radialGradient id="fc55fc19-a1ec-4f9b-be9a-9ae78c08fcbe" cx="311.78" cy="49.11" r="9.64" xlink:href="#a43609fa-523f-47a7-8281-d37a1ff0c6d2"/>
    <radialGradient id="a273673b-c46d-4aa8-90f0-c3dfb720f963" cx="296.42" cy="54.13" r="9.03" xlink:href="#a43609fa-523f-47a7-8281-d37a1ff0c6d2"/>
    <radialGradient id="ba8a6ece-1aa2-4b82-8365-c5c170139ca9" cx="307.35" cy="53.54" r="9.64" xlink:href="#a43609fa-523f-47a7-8281-d37a1ff0c6d2"/>
  </defs>
  <g>
    <g>
      <rect width="335" height="335" fill="#3e2366"/>
      <g>
        <g>
          <path d="M31.4,19.9A1.5,1.5,0,0,1,31,21l-5,5-5.4-3.1v-3a1.6,1.6,0,0,1,3.2,0h0v3.8l4.9-4.9a1.5,1.5,0,0,1,2.3,0,1.2,1.2,0,0,1,.4,1.1" fill="#fff"/>
          <path d="M29.9,34.4l-.6-.2c-.2,0-.4-.2-.6-.3L23.8,29v3.8a1.6,1.6,0,0,1-3.2,0v-3L26,26.7l5,5a1.6,1.6,0,0,1-1.1,2.7" fill="#fff"/>
          <path d="M25.7,26.2V26h0l-1.4-.8-3.6-2-3-1.8a.4.4,0,0,0-.5.1c0,.1-.1.1-.1.2V31a.4.4,0,0,0,.4.3h.2l3-1.8,5-2.9h0a.1.1,0,0,0,.1-.1h0C25.8,26.4,25.8,26.3,25.7,26.2Zm-1.2.2c0,.1,0,.1-.1.2l-3.8,2.2-2.4,1.4h-.4V22.7c0-.1.1-.2.3-.2h.1l2.4,1.4,3.8,2.2c.1.1.2.2.1.3Z" fill="#fff"/>
          <path d="M23.5,26.4h-.1l-2.9,1.7-1.8,1c-.1.1-.2,0-.3-.1h0V23.6a.2.2,0,0,1,.2-.2.1.1,0,0,1,.1.1l1.8,1,2.9,1.6c0,.1.1.1.1.2h0" fill="#fff"/>
        </g>
        <g>
          <path d="M57.6,26.1h-.2L53,23.8l-2.7-1.4c-.2-.1-.5,0-.5.2V30c0,.2.3.3.5.2l2.7-1.4,4.3-2.3.2-.2Zm-1.1.2h-.1L53,28.2l-2.1,1.1c-.1.1-.3,0-.3-.2V23.5c0-.2.1-.3.2-.3s.1,0,.1.1l2.2,1L56.4,26c0,.1.1.1.1.2Z" fill="#fff"/>
          <path d="M55.5,26.3h0l-2.6,1.3-1.6.9s-.2,0-.2-.1h0V24.1c0-.1.1-.1.2-.1h.1l1.6.8,2.6,1.3h0" fill="#fff"/>
          <path d="M34.7,22.5h3.8c1.8-.1,3.2,1,3.2,2.5s-1.3,2.6-3.1,2.6H36.5v2.5H34.7Zm3.6,3.6c.9,0,1.6-.4,1.5-1.1s-.6-1-1.5-1H36.5v2.1Z" fill="#fff"/>
          <path d="M48.9,28.7v1.5h-6V22.6h1.8v6.2Z" fill="#fff"/>
          <path d="M59.5,27.3l-3.4-4.8h2.2l2.1,3.3,2.2-3.3h2l-3.2,4.9V30H59.6Z" fill="#fff"/>
          <path d="M65.8,22.9h1v4.3l4.2-4.3h1.3l-3.5,3.5,3.8,4.1H71.5l-3.3-3.5-1.3,1.3v2.3h-1Z" fill="#fff"/>
          <path d="M73.2,26.6a4.2,4.2,0,0,1,4.3-4,4.2,4.2,0,0,1,4.4,3.9,4.4,4.4,0,0,1-8.7.1Zm7.7-.1a3.3,3.3,0,0,0-3.4-3.1,3.3,3.3,0,0,0-3.3,3.2,3.4,3.4,0,0,0,6.7-.1Z" fill="#fff"/>
          <path d="M83.2,29.3l.6-.7a3.8,3.8,0,0,0,2.8,1.1c1.3,0,1.9-.7,1.9-1.4s-.8-1.1-2.3-1.4-2.8-.8-2.8-2.1,1.2-2.2,2.8-2.2a4.5,4.5,0,0,1,3,1l-.6.7a3.6,3.6,0,0,0-2.4-.9c-1.1,0-1.8.6-1.8,1.3s.8,1.1,2.3,1.4,2.8.8,2.8,2.2-1,2.2-3,2.2A4.5,4.5,0,0,1,83.2,29.3Z" fill="#fff"/>
          <path d="M91.3,22.9h.9l3.3,5.3,3.1-5.3h.9v7.6h-1V24.6L95.5,30l-3.2-5.3v5.8h-.9Z" fill="#fff"/>
          <path d="M101.4,26.6a4.1,4.1,0,0,1,4.3-4c2.3,0,4.4,1.7,4.4,3.9a4.4,4.4,0,0,1-8.7.1Zm7.7-.1a3.3,3.3,0,0,0-3.4-3.1,3.2,3.2,0,1,0,.1,6.3,3.3,3.3,0,0,0,3.3-3.2Z" fill="#fff"/>
          <path d="M111.3,29.3l.6-.7a3.9,3.9,0,0,0,2.8,1.1c1.3,0,2-.7,2-1.4s-.8-1.1-2.3-1.4-2.8-.8-2.8-2.1,1.2-2.2,2.8-2.2a4.5,4.5,0,0,1,3,1l-.6.7a3.6,3.6,0,0,0-2.4-.9c-1.1,0-1.9.6-1.8,1.3s.8,1.1,2.3,1.4,2.8.8,2.8,2.2-1,2.2-3,2.2A4.9,4.9,0,0,1,111.3,29.3Z" fill="#fff"/>
        </g>
      </g>
      <g clip-path="url(#e4d784b9-8019-4c94-9e10-a415766d8892)">
        <g>
          <g>
            <g id="e5f93913-1d7c-44f2-98a2-769ef09c1cd2">
              <path id="ace8e9fa-72bd-416a-af70-dcfd46df58d0" d="M355.9,277.1a58.1,58.1,0,0,0-8.5-16.4,55.8,55.8,0,0,0-13-13.1,56.3,56.3,0,0,0-16.4-8.3,58.1,58.1,0,0,0-36.4,0,58.9,58.9,0,0,0-16.4,8.3,59.8,59.8,0,0,0-13,13.1,58.5,58.5,0,0,0-8.4,52.8,56.6,56.6,0,0,0,8.4,16.4,57.3,57.3,0,0,0,13,13,58.6,58.6,0,0,0,69.2,0,57.3,57.3,0,0,0,13-13,59.5,59.5,0,0,0,8.5-16.4A61.1,61.1,0,0,0,355.9,277.1Z" fill="url(#a9e66073-506f-4e4a-8250-ca9aba6e034a)"/>
              <path id="b632126f-e3cf-4cc0-bef7-4f5be1bd8542" d="M356.2,275.2a58.9,58.9,0,1,0-112,36.4,60.3,60.3,0,0,0,21.4,29.5,62,62,0,0,0,16.4,8.4,61.1,61.1,0,0,0,36.4,0A58.3,58.3,0,0,0,347.9,328a58.9,58.9,0,0,0,8.3-16.4,58.6,58.6,0,0,0,0-36.4Zm-14.3,31.7A43.6,43.6,0,0,1,326,328.8a43.7,43.7,0,0,1-51.5,0,43.6,43.6,0,0,1-15.9-21.9,43.8,43.8,0,0,1,6.2-39.2,47.4,47.4,0,0,1,9.7-9.8,48.3,48.3,0,0,1,12.2-6.2,44.4,44.4,0,0,1,27,0,50.7,50.7,0,0,1,12.3,6.2,47.4,47.4,0,0,1,9.7,9.8,43.8,43.8,0,0,1,6.2,39.2Z" fill="url(#b9b54f68-aace-43b4-ba77-ca868819a9a5)"/>
              <g id="b87935d1-748e-4166-9e8d-f558b29053f8">
                <path d="M272.3,293H258.7a40.5,40.5,0,0,0,2.1,12.9l12.8-4.2A28.2,28.2,0,0,1,272.3,293Z" fill="url(#a8e795b3-6056-47bd-b877-4795e02a41bb)"/>
                <path d="M277.6,309.5l-11,7.9a40.2,40.2,0,0,0,9.2,9.2l8-10.9A30.4,30.4,0,0,1,277.6,309.5Z" fill="url(#f95ddfb6-bf4d-4ffe-a9a0-22112b7c1621)"/>
                <path d="M277.6,276.6l-11-7.9a40.7,40.7,0,0,0-5.8,11.6l12.8,4.1A28.8,28.8,0,0,1,277.6,276.6Z" fill="url(#b17e0691-e8a6-4f82-8a29-7ebfa765078f)"/>
                <path d="M322.8,309.5l10.9,7.9a39.2,39.2,0,0,0,5.9-11.5l-12.9-4.2A28.5,28.5,0,0,1,322.8,309.5Z" fill="url(#a3ca2f57-3223-4cf8-9d74-bbf411eed32f)"/>
                <path d="M308.8,319.6l4.2,12.9a39.2,39.2,0,0,0,11.5-5.9l-7.9-10.9A28.5,28.5,0,0,1,308.8,319.6Z" fill="url(#f97f3005-16d0-416f-96c3-fbfbf319e49a)"/>
                <path d="M287.4,332.5a42.3,42.3,0,0,0,12.8,2V321a28.8,28.8,0,0,1-8.7-1.4Z" fill="url(#f1de26a9-5ebe-440e-a277-ca1f5bdde578)"/>
                <path d="M291.5,266.5l-4.1-12.9a43.7,43.7,0,0,0-11.6,5.9l8,11A24.6,24.6,0,0,1,291.5,266.5Z" fill="url(#ec5c062c-d618-4dff-984f-25166e2e8dc1)"/>
                <path d="M326.7,284.4a25.4,25.4,0,0,1,1.4,8.6h13.5a36.7,36.7,0,0,0-2-12.7Z" fill="url(#be526980-48b3-411b-b1ff-615e598ba781)"/>
                <path d="M313,253.6a43.3,43.3,0,0,0-12.8-2v13.5a28.2,28.2,0,0,1,8.6,1.4Z" fill="url(#aa2b865b-9110-4580-a694-4ceb19590e05)"/>
                <path d="M322.8,276.6l10.9-7.9a40.2,40.2,0,0,0-9.2-9.2l-7.9,11A27.6,27.6,0,0,1,322.8,276.6Z" fill="url(#fb14ca12-1d03-4f28-8960-520869bf7022)"/>
                <path d="M277,300.6l23.2-7.6H275.8A24.6,24.6,0,0,0,277,300.6Z" fill="url(#ba90cb1d-6fc0-4d6f-a33b-68eb8b1ddfa6)"/>
                <path d="M285.9,312.8,300.2,293l-19.7,14.4A23.1,23.1,0,0,0,285.9,312.8Z" fill="url(#a3689aee-2bd1-4050-b957-f122db47e960)"/>
                <path d="M277,285.5l23.2,7.5-19.7-14.3A25.8,25.8,0,0,0,277,285.5Z" fill="url(#e6aa0613-f77f-4364-899a-04141d085c89)"/>
                <path d="M319.9,307.4a25.8,25.8,0,0,0,3.5-6.8L300.2,293h24.3a21.3,21.3,0,0,0-1.1-7.5L300.2,293l19.7-14.3a24.7,24.7,0,0,0-5.4-5.3L300.2,293l7.5-23.2a26.7,26.7,0,0,0-7.5-1.1V293h0Z" fill="url(#a258fe88-21df-4293-838f-1906aad48073)"/>
                <path d="M300.2,293l7.5,23.2a20.7,20.7,0,0,0,6.8-3.4Z" fill="url(#a3a0f9f8-66c5-4123-8a6e-cd331d1cf7ca)"/>
                <path d="M300.2,317.4V293l-7.5,23.2A23.6,23.6,0,0,0,300.2,317.4Z" fill="url(#aa99dee9-08ac-4028-8bae-acd4de8b86cb)"/>
                <path d="M285.9,273.4,300.2,293l-7.5-23.2A21.1,21.1,0,0,0,285.9,273.4Z" fill="url(#bee22809-daea-472c-b359-eae11ca79147)"/>
                <path d="M258.7,293h-3.5a47,47,0,0,0,2.1,14l3.5-1.1A40.5,40.5,0,0,1,258.7,293Z" fill="#ed2224"/>
                <path d="M266.6,317.4l-2.9,2.1a47.4,47.4,0,0,0,10,10l2.1-2.9A40.2,40.2,0,0,1,266.6,317.4Z" fill="#ed2224"/>
                <path d="M275.8,326.6l-2.1,2.9a47.7,47.7,0,0,0,12.5,6.4l1.2-3.4A38.5,38.5,0,0,1,275.8,326.6Z" fill="#272361"/>
                <path d="M266.6,268.7l-2.9-2.1a49.3,49.3,0,0,0-6.4,12.5l3.5,1.2A40.7,40.7,0,0,1,266.6,268.7Z" fill="#ed2224"/>
                <path d="M260.8,280.3l-3.5-1.2a46.8,46.8,0,0,0-2.1,13.9h3.5A39.3,39.3,0,0,1,260.8,280.3Z" fill="#272361"/>
                <path d="M333.7,317.4l2.9,2.1A42.3,42.3,0,0,0,343,307l-3.4-1.1A39.2,39.2,0,0,1,333.7,317.4Z" fill="#ed2224"/>
                <path d="M324.5,326.6l2.2,2.9a46.9,46.9,0,0,0,9.9-10l-2.9-2.1A36.6,36.6,0,0,1,324.5,326.6Z" fill="#272361"/>
                <path d="M275.8,259.5l-2.1-2.9a47.4,47.4,0,0,0-10,10l2.9,2.1A44.6,44.6,0,0,1,275.8,259.5Z" fill="#272361"/>
                <path d="M313,332.5l1.1,3.4a46.8,46.8,0,0,0,12.6-6.4l-2.2-2.9A39.2,39.2,0,0,1,313,332.5Z" fill="#ed2224"/>
                <path d="M260.8,305.9l-3.5,1.1a47.6,47.6,0,0,0,6.4,12.5l2.9-2.1A41.5,41.5,0,0,1,260.8,305.9Z" fill="#272361"/>
                <path d="M287.4,253.6l-1.2-3.4a49.3,49.3,0,0,0-12.5,6.4l2.1,2.9A43.7,43.7,0,0,1,287.4,253.6Z" fill="#ed2224"/>
                <path d="M339.6,280.3l3.4-1.2a42.3,42.3,0,0,0-6.4-12.5l-2.9,2.1A38.5,38.5,0,0,1,339.6,280.3Z" fill="#272361"/>
                <path d="M300.2,251.6V248a44.5,44.5,0,0,0-14,2.2l1.2,3.4A42.3,42.3,0,0,1,300.2,251.6Z" fill="#272361"/>
                <path d="M313,253.6l1.1-3.4a43.9,43.9,0,0,0-13.9-2.2v3.6A43.3,43.3,0,0,1,313,253.6Z" fill="#ed2224"/>
                <path d="M324.5,259.5l2.2-2.9a49.9,49.9,0,0,0-12.6-6.4l-1.1,3.4A44.7,44.7,0,0,1,324.5,259.5Z" fill="#272361"/>
                <path d="M333.7,268.7l2.9-2.1a46.9,46.9,0,0,0-9.9-10l-2.2,2.9A40.2,40.2,0,0,1,333.7,268.7Z" fill="#ed2224"/>
                <path d="M323.4,300.6l3.3,1.1a28.3,28.3,0,0,0,1.4-8.7h-3.6A21.9,21.9,0,0,1,323.4,300.6Z" fill="#272361"/>
                <path d="M275.8,293h-3.5a28.2,28.2,0,0,0,1.3,8.7l3.4-1.1A24.6,24.6,0,0,1,275.8,293Z" fill="#ed2224"/>
                <path d="M280.5,307.4l-2.9,2.1a30.4,30.4,0,0,0,6.2,6.2l2.1-2.9A23.1,23.1,0,0,1,280.5,307.4Z" fill="#ed2224"/>
                <path d="M285.9,312.8l-2.1,2.9a29.4,29.4,0,0,0,7.7,3.9l1.2-3.4A20.7,20.7,0,0,1,285.9,312.8Z" fill="#272361"/>
                <path d="M280.5,278.7l-2.9-2.1a28.8,28.8,0,0,0-4,7.8l3.4,1.1A25.8,25.8,0,0,1,280.5,278.7Z" fill="#ed2224"/>
                <path d="M277,285.5l-3.4-1.1a28,28,0,0,0-1.3,8.6h3.5A24,24,0,0,1,277,285.5Z" fill="#272361"/>
                <path d="M300.2,317.4V321a28.2,28.2,0,0,0,8.6-1.4l-1.1-3.4A23.6,23.6,0,0,1,300.2,317.4Z" fill="#272361"/>
                <path d="M319.9,307.4l2.9,2.1a28.5,28.5,0,0,0,3.9-7.8l-3.3-1.1A25.8,25.8,0,0,1,319.9,307.4Z" fill="#ed2224"/>
                <path d="M314.5,312.8l2.1,2.9a30.4,30.4,0,0,0,6.2-6.2l-2.9-2.1A25.1,25.1,0,0,1,314.5,312.8Z" fill="#272361"/>
                <path d="M285.9,273.4l-2.1-2.9a27.6,27.6,0,0,0-6.2,6.1l2.9,2.1A24.7,24.7,0,0,1,285.9,273.4Z" fill="#272361"/>
                <path d="M307.7,316.2l1.1,3.4a28.5,28.5,0,0,0,7.8-3.9l-2.1-2.9A20.7,20.7,0,0,1,307.7,316.2Z" fill="#ed2224"/>
                <path d="M292.7,316.2l-1.2,3.4a28.8,28.8,0,0,0,8.7,1.4v-3.6A23.6,23.6,0,0,1,292.7,316.2Z" fill="#ed2224"/>
                <path d="M277,300.6l-3.4,1.1a28.8,28.8,0,0,0,4,7.8l2.9-2.1A23.1,23.1,0,0,1,277,300.6Z" fill="#272361"/>
                <path d="M292.7,269.8l-1.2-3.3a24.6,24.6,0,0,0-7.7,4l2.1,2.9A21.1,21.1,0,0,1,292.7,269.8Z" fill="#ed2224"/>
                <path d="M324.5,293h3.6a25.4,25.4,0,0,0-1.4-8.6l-3.3,1.1A21.3,21.3,0,0,1,324.5,293Z" fill="#ed2224"/>
                <path d="M323.4,285.5l3.3-1.1a28.5,28.5,0,0,0-3.9-7.8l-2.9,2.1A25.8,25.8,0,0,1,323.4,285.5Z" fill="#272361"/>
                <path d="M300.2,268.7v-3.6a28.8,28.8,0,0,0-8.7,1.4l1.2,3.3A26.7,26.7,0,0,1,300.2,268.7Z" fill="#272361"/>
                <path d="M307.7,269.8l1.1-3.3a28.2,28.2,0,0,0-8.6-1.4v3.6A26.7,26.7,0,0,1,307.7,269.8Z" fill="#ed2224"/>
                <path d="M314.5,273.4l2.1-2.9a26.2,26.2,0,0,0-7.8-4l-1.1,3.3A23.3,23.3,0,0,1,314.5,273.4Z" fill="#272361"/>
                <path d="M316.6,270.5l-2.1,2.9a24.7,24.7,0,0,1,5.4,5.3l2.9-2.1A27.6,27.6,0,0,0,316.6,270.5Z" fill="#ed2224"/>
                <path d="M326.7,301.7l12.9,4.2a37.8,37.8,0,0,0,2-12.9H328.1A28.3,28.3,0,0,1,326.7,301.7Z" fill="url(#a43609fa-523f-47a7-8281-d37a1ff0c6d2)"/>
                <path d="M283.8,315.7l-8,10.9a38.5,38.5,0,0,0,11.6,5.9l4.1-12.9A29.4,29.4,0,0,1,283.8,315.7Z" fill="url(#bc4ba164-78cf-4c18-81cf-8763e3c961c2)"/>
                <path d="M273.6,284.4l-12.8-4.1a39.3,39.3,0,0,0-2.1,12.7h13.6A28,28,0,0,1,273.6,284.4Z" fill="url(#aaddb46b-dee2-4409-98d2-d4a7ef4200f4)"/>
                <path d="M300.2,321v13.5a43.3,43.3,0,0,0,12.8-2l-4.2-12.9A28.2,28.2,0,0,1,300.2,321Z" fill="url(#e0784b6b-8a50-4477-9642-b8e49e0d9510)"/>
                <path d="M316.6,315.7l7.9,10.9a36.6,36.6,0,0,0,9.2-9.2l-10.9-7.9A30.4,30.4,0,0,1,316.6,315.7Z" fill="url(#afbbf64d-647c-462e-8738-0053a4f6be40)"/>
                <path d="M283.8,270.5l-8-11a44.6,44.6,0,0,0-9.2,9.2l11,7.9A27.6,27.6,0,0,1,283.8,270.5Z" fill="url(#a52ea13d-a02c-4ed6-ad69-5a41cbefd39a)"/>
                <path d="M273.6,301.7l-12.8,4.2a41.5,41.5,0,0,0,5.8,11.5l11-7.9A28.8,28.8,0,0,1,273.6,301.7Z" fill="url(#a964990a-6d4d-4a7c-96bb-8ee6e3f3aa1c)"/>
                <path d="M322.8,276.6a28.5,28.5,0,0,1,3.9,7.8l12.9-4.1a38.5,38.5,0,0,0-5.9-11.6Z" fill="url(#afd8514e-7b62-44c1-b596-9ebad67030b0)"/>
                <path d="M300.2,265.1V251.6a42.3,42.3,0,0,0-12.8,2l4.1,12.9A28.8,28.8,0,0,1,300.2,265.1Z" fill="url(#f0f5c3ac-ef55-4dec-901e-272c3e99c035)"/>
                <path d="M316.6,270.5l7.9-11a44.7,44.7,0,0,0-11.5-5.9l-4.2,12.9A26.2,26.2,0,0,1,316.6,270.5Z" fill="url(#e1c1bdf1-253c-4233-80df-60ff521986a6)"/>
                <path d="M323.4,300.6a21.9,21.9,0,0,0,1.1-7.6H300.2Z" fill="url(#ad2c891b-d987-4add-a098-6eb7360f7897)"/>
                <path d="M300.2,293h0l-14.3,19.8a20.7,20.7,0,0,0,6.8,3.4Z" fill="url(#b869bdfc-7f1b-4119-b08c-23c99054f052)"/>
                <path d="M300.2,293h0L277,285.5a24,24,0,0,0-1.2,7.5Z" fill="url(#bab6e365-f0ac-4443-ac04-c34383f24ccb)"/>
                <path d="M300.2,293h0v24.4a23.6,23.6,0,0,0,7.5-1.2Z" fill="url(#a8e5d1c4-09a4-4699-a9e6-7bcf80ad3d68)"/>
                <path d="M300.2,293l14.3,19.8a25.1,25.1,0,0,0,5.4-5.4Z" fill="url(#a4bb3d5e-624b-44fe-aee2-c7f2f9da570a)"/>
                <path d="M285.9,273.4a24.7,24.7,0,0,0-5.4,5.3L300.2,293Z" fill="url(#b80fdb81-4877-4bfe-891a-19644d49e704)"/>
                <path d="M300.2,293h0L277,300.6a23.1,23.1,0,0,0,3.5,6.8Z" fill="url(#f69f188a-2016-4825-b602-a8d8be5cafdb)"/>
                <path d="M323.4,285.5a25.8,25.8,0,0,0-3.5-6.8L300.2,293Z" fill="url(#fc55fc19-a1ec-4f9b-be9a-9ae78c08fcbe)"/>
                <path d="M300.2,268.7a26.7,26.7,0,0,0-7.5,1.1l7.5,23.2Z" fill="url(#a273673b-c46d-4aa8-90f0-c3dfb720f963)"/>
                <path d="M300.2,293l14.3-19.6a23.3,23.3,0,0,0-6.8-3.6Z" fill="url(#ba8a6ece-1aa2-4b82-8365-c5c170139ca9)"/>
                <path d="M305,293a4.8,4.8,0,0,1-4.8,4.9,4.7,4.7,0,0,1-4.9-4.7,4.8,4.8,0,0,1,4.8-4.9h.1A4.8,4.8,0,0,1,305,293Z" fill="#272361"/>
                <path d="M302.8,293a2.6,2.6,0,0,1-2.6,2.8,2.7,2.7,0,1,1-.1-5.4h.1a2.6,2.6,0,0,1,2.6,2.6Z" fill="#ed2224"/>
                <path d="M343.3,279.5h0a45.4,45.4,0,0,0-6.4-12.6,46.1,46.1,0,0,0-10.1-10.1,45.4,45.4,0,0,0-12.6-6.4,44.5,44.5,0,0,0-14-2.2,44.1,44.1,0,0,0-14,2.2h0a47.4,47.4,0,0,0-12.7,6.4,46.2,46.2,0,0,0-16.4,22.7h0a44.7,44.7,0,0,0,0,28,45.5,45.5,0,0,0,16.4,22.6,47.7,47.7,0,0,0,12.7,6.5h0a47.1,47.1,0,0,0,14,2.2,47.6,47.6,0,0,0,14-2.2,45.2,45.2,0,0,0,29.1-29.1,46.1,46.1,0,0,0,0-28Zm-3.9,26.7a41.8,41.8,0,0,1-5.9,11.5,41.3,41.3,0,0,1-9.1,9.1,39.2,39.2,0,0,1-11.5,5.9,42.1,42.1,0,0,1-12.7,2,43.3,43.3,0,0,1-12.8-2,38.7,38.7,0,0,1-11.4-5.9,39.3,39.3,0,0,1-9.1-9.1,41.2,41.2,0,0,1-5.9-36.9h0a38,38,0,0,1,5.9-11.5,39.3,39.3,0,0,1,9.1-9.1,38.7,38.7,0,0,1,11.4-5.9h0a43.3,43.3,0,0,1,12.8-2,42.1,42.1,0,0,1,12.7,2,41.6,41.6,0,0,1,20.6,15A41.2,41.2,0,0,1,339.4,306.2Zm-65.3,23.6,1.8-2.4a42.3,42.3,0,0,0,11.2,5.7l-1,2.9A42.8,42.8,0,0,1,274.1,329.8Zm-16.4-50.4a45.3,45.3,0,0,1,6.1-12l2.4,1.7a43.5,43.5,0,0,0-5.6,11.2h-.1ZM286.1,251l.9,2.8h.1a42.3,42.3,0,0,0-11.2,5.7l-1.8-2.4A42.5,42.5,0,0,1,286.1,251Zm26.7,2.7a39.5,39.5,0,0,0-12.3-1.9v-3.1a49.9,49.9,0,0,1,13.3,2.1Zm29.9,25.7-2.9.9a43.8,43.8,0,0,0-5.7-11.2l2.5-1.7a45.3,45.3,0,0,1,6.1,12Zm-2.8,1.4,2.9-.9a46.3,46.3,0,0,1,2.2,13.3h-3.1a40.2,40.2,0,0,0-2-12.4Zm-3.7-13.9-1.7,1.3-.7.6a41.7,41.7,0,0,0-8.9-8.9l1.8-2.5a42.8,42.8,0,0,1,9.5,9.5Zm-11.7-7.3a39.5,39.5,0,0,0-11.2-5.7l.6-1.9.4-1a45.3,45.3,0,0,1,12,6.1Zm-24.6-10.9v3.1a39.5,39.5,0,0,0-12.3,1.9l-.8-2.2-.2-.7a46.2,46.2,0,0,1,13.3-2.1Zm-26.2,8.7.5.7,1.2,1.8a41.3,41.3,0,0,0-8.8,8.9l-1.7-1.4-.8-.5a45.5,45.5,0,0,1,9.6-9.5Zm-16.2,22.5.8.2,2.1.7a44,44,0,0,0-2,12.4h-3a43,43,0,0,1,2.1-13.3Zm.9,13.8a43.5,43.5,0,0,0,2,12.4l-1.2.4-1.7.6a43.2,43.2,0,0,1-2.1-13.4Zm.3,13.6,1.9-.7a42,42,0,0,0,5.6,11.2l-2.4,1.8a42.5,42.5,0,0,1-6.1-12Zm5.4,12.7,2.5-1.8a41.3,41.3,0,0,0,8.8,8.9l-.5.7-1.2,1.8a43.7,43.7,0,0,1-9.6-9.6Zm23.5,13.2a39.6,39.6,0,0,0,12.3,2v3.1a49.9,49.9,0,0,1-13.3-2.1Zm12.9,2a39.6,39.6,0,0,0,12.3-2l1,3a49.9,49.9,0,0,1-13.3,2.1Zm13.8.8-.5-1.4-.5-1.5a42.3,42.3,0,0,0,11.2-5.7l1.8,2.4a42.8,42.8,0,0,1-12,6.2Zm12.4-6.4-.4-.6-1.4-1.9a41.7,41.7,0,0,0,8.9-8.9l1.7,1.3.7.5a41.2,41.2,0,0,1-9.5,9.6Zm9.9-10-2.5-1.8a42.3,42.3,0,0,0,5.7-11.2l1.5.5,1.4.5A45.3,45.3,0,0,1,336.6,319.6Zm6.2-12.5-.4-.2-2.5-.8a40.2,40.2,0,0,0,2-12.4H345A46.4,46.4,0,0,1,342.8,307.1Z" fill="#010101"/>
                <path d="M327,284.7a28.8,28.8,0,0,0-4-7.8,28.1,28.1,0,0,0-31.5-10.2h0a25.6,25.6,0,0,0-7.9,4,26.1,26.1,0,0,0-6.2,6.2,32.3,32.3,0,0,0-4.1,7.8h0a29,29,0,0,0,0,17.5,32.9,32.9,0,0,0,4.1,7.9,26.1,26.1,0,0,0,6.2,6.2,25.6,25.6,0,0,0,7.9,4h0a28.3,28.3,0,0,0,8.7,1.4,28.8,28.8,0,0,0,8.7-1.4,26.2,26.2,0,0,0,7.8-4,28.5,28.5,0,0,0,6.3-6.2,29.4,29.4,0,0,0,4-7.9,29,29,0,0,0,0-17.5Zm-2.8.7-.7.2a22.6,22.6,0,0,0-3.2-6.4l1.1-.8,1.3-1a29.5,29.5,0,0,1,3.7,7.3Zm-1,15.6a23.2,23.2,0,0,1-3.5,6.6h0a24.7,24.7,0,0,1-5.3,5.4,25.5,25.5,0,0,1-6.8,3.4,23.7,23.7,0,0,1-14.9,0h0A23.5,23.5,0,0,1,286,313a24.5,24.5,0,0,1-8.8-12,25.6,25.6,0,0,1,0-15,24.5,24.5,0,0,1,8.8-12,23.8,23.8,0,0,1,6.7-3.5h0a25.2,25.2,0,0,1,14.9,0,25.8,25.8,0,0,1,6.8,3.5,26.6,26.6,0,0,1,5.3,5.3,25.2,25.2,0,0,1,3.5,6.7h0a25.6,25.6,0,0,1,0,15Zm-31.8,18.7a24.6,24.6,0,0,1-7.2-3.7l.9-1.3.8-1.1a24,24,0,0,0,6.4,3.2l-.2.7ZM274.8,302l2-.7a26.5,26.5,0,0,0,3.3,6.5l-2.5,1.7a24.3,24.3,0,0,1-3.6-7.2Zm2.8-24.6,2.4,1.7h.1a26.5,26.5,0,0,0-3.3,6.5l-2.8-1a24.3,24.3,0,0,1,3.6-7.2Zm13.8-10.1.9,2.8a27.8,27.8,0,0,0-6.4,3.3l-1.7-2.4a24.6,24.6,0,0,1,7.2-3.7Zm16.2,2.7a28.5,28.5,0,0,0-7.1-1.2v-3a31.1,31.1,0,0,1,8,1.3Zm14.8,7-2,1.5-.5.3a22,22,0,0,0-5-5.1l1.8-2.4a25.7,25.7,0,0,1,5.7,5.7Zm-7.9-3.6a27.8,27.8,0,0,0-6.4-3.3l.5-1.8.4-1a24.6,24.6,0,0,1,7.2,3.7Zm-14.6-4.6a28.5,28.5,0,0,0-7.1,1.2l-.9-2.9a27.3,27.3,0,0,1,8-1.3Zm-16.2,2.5,1.8,2.4a22.4,22.4,0,0,0-5.1,5.1l-2.5-1.8a28.5,28.5,0,0,1,5.8-5.7Zm-9.9,13.9,2.9.9a21.6,21.6,0,0,0-1.2,7.1h-3a27.3,27.3,0,0,1,1.3-8Zm1.7,8.5a21.6,21.6,0,0,0,1.2,7.1l-2.9,1a27.5,27.5,0,0,1-1.3-8.1Zm2.4,16.3,2.5-1.8a22.4,22.4,0,0,0,5.1,5.1l-1.8,2.4a28.5,28.5,0,0,1-5.8-5.7Zm14.6,8.1.3-1.1a21.5,21.5,0,0,0,7.1,1.1v3.1a31.1,31.1,0,0,1-8-1.3Zm8,3.1v-3.1a24.5,24.5,0,0,0,7.1-1.1l.3,1.3.6,1.6a31.1,31.1,0,0,1-8,1.3Zm8.5-1.5-.9-2.9a24,24,0,0,0,6.4-3.2l1.7,2.4a27.3,27.3,0,0,1-7.2,3.7Zm7.7-4-1.8-2.4a24.2,24.2,0,0,0,5-5.1l2.5,1.8a25.7,25.7,0,0,1-5.7,5.7Zm6-6.2-2.4-1.7a23.1,23.1,0,0,0,3.2-6.5l2.9,1a27.3,27.3,0,0,1-3.7,7.2Zm3.9-7.7-1.7-.6-1.2-.4a28.5,28.5,0,0,0,1.2-7.1h3a31.2,31.2,0,0,1-1.3,8.1Zm-1.7-8.6a28.5,28.5,0,0,0-1.2-7.1l1.2-.4,1.7-.5a31.1,31.1,0,0,1,1.3,8Z" fill="#010101"/>
                <path d="M300.2,288.4a5.1,5.1,0,1,0,5.1,5.1,5.1,5.1,0,0,0-5.1-5.1Zm0,9.6a4.5,4.5,0,0,1,0-9h0a4.5,4.5,0,1,1,0,9Z" fill="#010101"/>
                <path d="M300.2,290.5a3,3,0,1,0,3,3,3,3,0,0,0-3-3Zm0,5.4a2.3,2.3,0,0,1-2.5-2.4,2.5,2.5,0,0,1,4.9-.1h0A2.4,2.4,0,0,1,300.2,295.9Z" fill="#010101"/>
                <path d="M343.3,279.1h0a47.4,47.4,0,0,0-6.4-12.7,50.4,50.4,0,0,0-10.1-10,45.2,45.2,0,0,0-26.6-8.6,44.1,44.1,0,0,0-14,2.2h0a45.1,45.1,0,0,0-22.7,16.4,44.6,44.6,0,0,0-6.4,12.7h0a43.9,43.9,0,0,0-2.2,13.9,45.1,45.1,0,0,0,18.6,36.7,47.7,47.7,0,0,0,12.7,6.5h0a47.1,47.1,0,0,0,14,2.2,44.6,44.6,0,0,0,26.6-8.7A45.1,45.1,0,0,0,345.5,293,47,47,0,0,0,343.3,279.1Zm-3.9,26.7a41.8,41.8,0,0,1-5.9,11.5,43.6,43.6,0,0,1-9.1,9.1A41.2,41.2,0,0,1,261,305.8a41.6,41.6,0,0,1,0-25.5h0a39.2,39.2,0,0,1,5.9-11.5,41.3,41.3,0,0,1,9.1-9.1,40.9,40.9,0,0,1,11.4-5.8h0a43.4,43.4,0,0,1,12.8-2.1,41.9,41.9,0,0,1,24.2,7.9,46.2,46.2,0,0,1,9.1,9.1,41.4,41.4,0,0,1,7.9,24.2A42.3,42.3,0,0,1,339.4,305.8Zm-65.3,23.7,1.8-2.5a45.5,45.5,0,0,0,11.2,5.7l-1,2.9A45.3,45.3,0,0,1,274.1,329.5ZM257.7,279a45.9,45.9,0,0,1,6.1-12.1l2.4,1.9a41.4,41.4,0,0,0-5.6,11.1h-.1Zm28.4-28.5.9,2.9h.1a39.5,39.5,0,0,0-11.2,5.7l-1.8-2.5a45.3,45.3,0,0,1,12-6.1Zm26.7,2.8a42.8,42.8,0,0,0-12.3-2v-3a43,43,0,0,1,13.3,2.1ZM342.7,279l-2.9.9a38.9,38.9,0,0,0-5.7-11.1l2.5-1.9a45.9,45.9,0,0,1,6.1,12.1Zm-2.8,1.4,2.9-.9a46.3,46.3,0,0,1,2.2,13.3h-3.1a40.2,40.2,0,0,0-2-12.4Zm-3.7-13.9-1.7,1.3-.7.5a41.3,41.3,0,0,0-8.9-8.8l1.8-2.5a40.8,40.8,0,0,1,9.5,9.5Zm-11.7-7.4a45.5,45.5,0,0,0-11.2-5.7l.6-1.7.4-1.2a48.8,48.8,0,0,1,12,6.2Zm-24.6-10.8v3a42.8,42.8,0,0,0-12.3,2l-.8-2.2-.2-.7a43,43,0,0,1,13.3-2.1ZM273.7,257l.5.7,1.2,1.8a45.8,45.8,0,0,0-8.8,8.8l-1.7-1.2-.8-.6a45.5,45.5,0,0,1,9.6-9.5Zm-16.2,22.5.8.2,2.1.7a43.5,43.5,0,0,0-2,12.4h-3a43,43,0,0,1,2.1-13.3Zm.9,13.8a43.5,43.5,0,0,0,2,12.4l-1.2.4-1.7.5a43,43,0,0,1-2.1-13.3Zm.3,13.5,1.9-.6a42,42,0,0,0,5.6,11.2l-2.4,1.7a41.2,41.2,0,0,1-6.1-12Zm5.4,12.8,2.5-1.8a43.7,43.7,0,0,0,8.8,8.9l-.5.7-1.2,1.7a45.5,45.5,0,0,1-9.6-9.5Zm23.5,13.2a39.6,39.6,0,0,0,12.3,2v3a43,43,0,0,1-13.3-2.1Zm12.9,2a39.6,39.6,0,0,0,12.3-2l1,2.9a43,43,0,0,1-13.3,2.1Zm13.8.8-.5-1.4-.5-1.5a45.5,45.5,0,0,0,11.2-5.7l1.8,2.5a48.5,48.5,0,0,1-12,6.1Zm12.4-6.5-.4-.6-1.4-1.8a41.7,41.7,0,0,0,8.9-8.9l1.7,1.3.7.5a40.8,40.8,0,0,1-9.5,9.5Zm9.9-10-2.5-1.7a39.5,39.5,0,0,0,5.7-11.2l1.5.5,1.4.4a43.8,43.8,0,0,1-6.1,12Zm6.2-12.5h-.4l-2.5-.8a40.2,40.2,0,0,0,2-12.4H345a46.3,46.3,0,0,1-2.2,13.3Z" fill="#e6e7e7"/>
                <path d="M327,284.4a28.2,28.2,0,0,0-18.1-18.1,27.7,27.7,0,0,0-17.4,0h0a23.6,23.6,0,0,0-7.9,4,26.1,26.1,0,0,0-6.2,6.2,28.3,28.3,0,0,0-4.1,7.9h0A28,28,0,0,0,272,293a28.9,28.9,0,0,0,1.3,8.8,27.7,27.7,0,0,0,4.1,7.8,28.5,28.5,0,0,0,6.2,6.3,28,28,0,0,0,7.9,4h0a28.3,28.3,0,0,0,8.7,1.4,28.1,28.1,0,0,0,16.5-5.4,31.3,31.3,0,0,0,6.3-6.3,27.4,27.4,0,0,0,4-7.8,28.9,28.9,0,0,0,1.4-8.8A28.2,28.2,0,0,0,327,284.4Zm-2.8.6-.7.2a21.4,21.4,0,0,0-3.2-6.4l1.1-.8,1.3-1a28.9,28.9,0,0,1,3.7,7.2Zm-1,15.5a29.2,29.2,0,0,1-3.5,6.8h0a26.6,26.6,0,0,1-5.3,5.3,25.5,25.5,0,0,1-6.8,3.4,23.7,23.7,0,0,1-14.9,0h0a23.5,23.5,0,0,1-6.7-3.4,30.1,30.1,0,0,1-5.4-5.3,25.2,25.2,0,0,1-4.5-14.3,23.4,23.4,0,0,1,4.5-14.1,25.3,25.3,0,0,1,12.1-8.8h0a25.2,25.2,0,0,1,14.9,0,25.5,25.5,0,0,1,6.8,3.4,24.7,24.7,0,0,1,5.3,5.4,23.8,23.8,0,0,1,3.5,6.7h0a25.2,25.2,0,0,1,0,14.9Zm-31.8,18.8a27.3,27.3,0,0,1-7.2-3.7l.9-1.4.8-1a22.6,22.6,0,0,0,6.4,3.2l-.2.7Zm-16.6-17.7,2-.7a24.3,24.3,0,0,0,3.3,6.4l-2.5,1.8a24.9,24.9,0,0,1-3.6-7.3Zm2.8-24.6,2.4,1.7h.1a25.9,25.9,0,0,0-3.3,6.4l-2.8-.9a27,27,0,0,1,3.6-7.2Zm13.8-10.2.9,2.9a20.5,20.5,0,0,0-6.4,3.3l-1.7-2.5a27.3,27.3,0,0,1,7.2-3.7Zm16.2,2.7a28.4,28.4,0,0,0-7.1-1.1v-3a27.3,27.3,0,0,1,8,1.3Zm14.8,7.1-2,1.4-.5.4a22,22,0,0,0-5-5.1l1.8-2.5a28.5,28.5,0,0,1,5.7,5.8Zm-7.9-3.6a25.9,25.9,0,0,0-6.4-3.3l.5-1.8.4-1.1a30.6,30.6,0,0,1,7.2,3.7Zm-14.6-4.6a24.5,24.5,0,0,0-7.1,1.1l-.9-2.8a27.3,27.3,0,0,1,8-1.3Zm-16.2,2.4,1.8,2.5a20.6,20.6,0,0,0-5.1,5.1l-2.5-1.8a31.8,31.8,0,0,1,5.8-5.8Zm-9.9,13.9,2.9,1a24.6,24.6,0,0,0-1.2,7.1h-3a28,28,0,0,1,1.3-8.1Zm1.7,8.6a21.6,21.6,0,0,0,1.2,7.1l-2.9.9a27.3,27.3,0,0,1-1.3-8Zm2.4,16.2,2.5-1.7a24.6,24.6,0,0,0,5.1,5.1l-1.8,2.4a29,29,0,0,1-5.8-5.8Zm14.6,8.2.3-1.1a24.5,24.5,0,0,0,7.1,1.1v3a27.2,27.2,0,0,1-8-1.2Zm8,3v-3a24.5,24.5,0,0,0,7.1-1.1l.3,1.2.6,1.7a27.2,27.2,0,0,1-8,1.2Zm8.5-1.4-.9-2.9a24,24,0,0,0,6.4-3.2l1.7,2.4a27.3,27.3,0,0,1-7.2,3.7Zm7.7-4-1.8-2.4a26.8,26.8,0,0,0,5-5.1l2.5,1.7a26.1,26.1,0,0,1-5.7,5.8Zm6-6.2-2.4-1.8a21.4,21.4,0,0,0,3.2-6.4l2.9.9a27.9,27.9,0,0,1-3.7,7.3Zm3.9-7.8-1.7-.5-1.2-.4a28.5,28.5,0,0,0,1.2-7.1h3a31.1,31.1,0,0,1-1.3,8Zm-1.7-8.5a28.5,28.5,0,0,0-1.2-7.1l1.2-.4,1.7-.6a31.9,31.9,0,0,1,1.3,8.1Z" fill="#e6e7e7"/>
                <path d="M300.2,287.9a5.1,5.1,0,0,0-5.1,5.1,5.1,5.1,0,0,0,10.2,0,5.1,5.1,0,0,0-5.1-5.1Zm0,9.7a4.6,4.6,0,1,1,0-9.1,4.5,4.5,0,0,1,4.5,4.5h0A4.5,4.5,0,0,1,300.2,297.6Z" fill="#e6e7e7"/>
                <path d="M300.2,290.1a3,3,0,1,0,3,2.9,3,3,0,0,0-3-2.9Zm0,5.4a2.5,2.5,0,0,1-2.8-2,2.4,2.4,0,0,1,2-2.8h.8a2.4,2.4,0,0,1,2,2.8A2.4,2.4,0,0,1,300.2,295.5Z" fill="#e6e7e7"/>
                <path d="M300.2,351.1a57.6,57.6,0,1,1,57.6-57.6A57.6,57.6,0,0,1,300.2,351.1Zm0-114.3a56.7,56.7,0,1,0,56.7,56.7h0A56.7,56.7,0,0,0,300.2,236.8Z" fill="#272361"/>
                <path d="M300.2,350.5a57.7,57.7,0,1,1,57.6-57.6A57.6,57.6,0,0,1,300.2,350.5Zm0-114.4A56.8,56.8,0,1,0,356.9,293h0A56.8,56.8,0,0,0,300.2,236.1Z" fill="#fff"/>
              </g>
            </g>
            <g id="f80289d0-e6e8-40ed-88d7-ada3dd14d1a3">
              <path d="M322,248.8h1v-2.9h-.8v-.5l1-.3h.6v3.7h.9v.7H322Z" fill="#fff"/>
              <path d="M290.4,244a1.3,1.3,0,0,0,1,.4c.4.1.8-.3.9-.7h0a.8.8,0,0,0-.7-.8h-.1l-.7.2-.4-.2v-2.1h2.3v.6h-1.6v1.1l.6-.2a1.4,1.4,0,0,1,1.4,1.1v.3a1.5,1.5,0,0,1-1.5,1.5h-.1a2.2,2.2,0,0,1-1.5-.6Z" fill="#fff"/>
              <path d="M264.4,327.5h-2.1v-.6h2.9v.4a6,6,0,0,0-1.3,4h-.7A5.3,5.3,0,0,1,264.4,327.5Z" fill="#fff"/>
              <path d="M249.3,301.7h0a1.3,1.3,0,0,1-.6-1,1.2,1.2,0,0,1,1.3-1.2h0a1.2,1.2,0,0,1,1.3,1.1h0a1.2,1.2,0,0,1-.6,1h0a1.1,1.1,0,0,1,.8,1.1c0,.7-.6,1.2-1.5,1.2s-1.5-.5-1.5-1.2A1.1,1.1,0,0,1,249.3,301.7Zm.7,1.7a.5.5,0,0,0,.7-.5v-.2c0-.4-.4-.6-1-.9a1.1,1.1,0,0,0-.5.9.7.7,0,0,0,.8.7Zm.6-2.7a.5.5,0,0,0-.5-.7H250a.5.5,0,0,0-.6.5h0c0,.4.4.6.9.8A1.1,1.1,0,0,0,250.6,300.7Z" fill="#fff"/>
              <path d="M262.8,257.9a.8.8,0,0,0,.7.4c.5,0,1-.5,1-1.7a1.2,1.2,0,0,1-1,.5,1.1,1.1,0,0,1-1.2-1.1v-.2a1.2,1.2,0,0,1,1.3-1.4h.1c.8,0,1.5.6,1.5,2.1s-.8,2.4-1.7,2.4a1.8,1.8,0,0,1-1.2-.5Zm1.7-1.8c-.1-.8-.4-1.2-.8-1.2s-.7.3-.7.9.2.8.7.8A1.4,1.4,0,0,0,264.5,256.1Z" fill="#fff"/>
              <path d="M246.4,288.2h1v-2.9h-.8v-.5a2.9,2.9,0,0,0,1-.3h.7v3.7h.8v.6h-2.7Z" fill="#fff"/>
              <path d="M250,288.2h1v-2.9h-.9v-.5a2.9,2.9,0,0,0,1-.3h.7v3.7h.9v.6H250Z" fill="#fff"/>
              <path d="M274.5,248.9h.9V246h-.8v-.5a1.8,1.8,0,0,0,1-.4h.6v3.8h.9v.6h-2.6Z" fill="#fff"/>
              <path d="M277.7,249.1c1.2-1.2,2.1-2,2.1-2.7a.8.8,0,0,0-.7-.7H279a1.4,1.4,0,0,0-.9.5l-.4-.5a1.8,1.8,0,0,1,1.4-.6,1.2,1.2,0,0,1,1.4,1.1v.2c0,.8-.7,1.5-1.6,2.5h1.8v.7h-3Z" fill="#fff"/>
              <path d="M251,272h1v-2.9h-.8v-.5a2.9,2.9,0,0,0,1-.3h.6V272h.9v.7H251Z" fill="#fff"/>
              <path d="M257.4,271.5h-.5v1.2h-.8v-1.2h-1.9V271l1.7-2.7h1v2.6h.5Zm-1.3-.6v-1a2.8,2.8,0,0,1,.1-.9h-.1l-.4.7-.7,1.2Z" fill="#fff"/>
              <path d="M333.5,331h1v-2.9h-.8v-.5a1.9,1.9,0,0,0,1-.3h.6V331h.9v.7h-2.7Z" fill="#fff"/>
              <path d="M251.7,317.8h1v-2.9h-.8v-.5a1.3,1.3,0,0,0,1-.4h.6v3.8h.9v.6h-2.7Z" fill="#fff"/>
              <path d="M257.5,314.9a.9.9,0,0,0-.7-.3c-.5,0-.9.5-1,1.6l.9-.5a1.3,1.3,0,0,1,1.4,1.1v.3a1.4,1.4,0,0,1-1.4,1.4h0c-.9,0-1.7-.6-1.7-2.1s.9-2.4,1.8-2.4a1.2,1.2,0,0,1,1.1.5Zm-.2,2.2c0-.5-.2-.8-.7-.8a1,1,0,0,0-.8.5c.1.8.4,1.1.8,1.1A.7.7,0,0,0,257.3,317.1Z" fill="#fff"/>
              <path d="M334.2,259.1h1v-2.9h-.9v-.5l1.1-.3h.6v3.7h.9v.7h-2.7Z" fill="#fff"/>
              <path d="M305.4,244c1.3-1.1,2-2,2-2.6s-.2-.7-.7-.7a.9.9,0,0,0-.8.4l-.5-.4a2.1,2.1,0,0,1,1.4-.7,1.4,1.4,0,0,1,1.4,1.1v.2c0,.8-.7,1.6-1.6,2.6h1.8v.7h-3Z" fill="#fff"/>
              <path d="M309,242.2c0-1.4.6-2.2,1.5-2.2s1.5.8,1.5,2.2-.6,2.4-1.5,2.4S309,243.7,309,242.2Zm2.2,0c0-1.2-.3-1.6-.7-1.6s-.7.4-.7,1.6.3,1.7.7,1.7S311.2,243.5,311.2,242.2Z" fill="#fff"/>
            </g>
          </g>
          <g>
            <path d="M288.9,222.7h1.2c.4.3,1,.1,1,.8a12.7,12.7,0,0,0-.2,2.8l-.3,5.5c0,1.8-.1,3-.1,4.5a1.3,1.3,0,0,1-.5,1.3c-.4,0-.5-.3-.6-.6a7.7,7.7,0,0,1-.8-1.9c-.2-1.2-.7-2.3-1-3.5a16.9,16.9,0,0,1-.4-6.7c.2-.5.3-.9.5-1.3A3.4,3.4,0,0,1,288.9,222.7Z" fill="#d62727"/>
            <path d="M286.2,234.4a15.7,15.7,0,0,1-1.6-5.2c-.1-.1.1-.4-.2-.4v-1.1a6,6,0,0,1,.6-2.3c.6-.7.4-.6.8-.5s0,.4-.1.6a3.4,3.4,0,0,0-.5,1.7,4.9,4.9,0,0,0,0,2.4,8.6,8.6,0,0,0,.3,1.7c.2.7.3.7.9.2l.4-.5c.2-.1.4-.3.7-.1s.4,1.5.6,2.1a14.7,14.7,0,0,1-1,1.3.6.6,0,0,1-.8.1Z" fill="#961b1e"/>
            <path d="M299.8,288.4v4h-.3c.1-.7-.3-1.4-.3-2.1s-.2-1.2,0-1.7S299.5,288.2,299.8,288.4Z" fill="#d0a340"/>
            <path d="M294,246.1a20.1,20.1,0,0,1-.1-2.5c-.1-.2-.1-.2,0-.4h.6l.2.2c.2,1.2.4,2.4.5,3.7s.4,4.3.7,6.4.3,3.3.5,4.8.3,3.4.5,5.1a2.4,2.4,0,0,1,0,1.2c-.2.2-.3.2-.5.1h-.2a2.9,2.9,0,0,1-.3-1.8l-.9-7.7c-.2-2.6-.5-5.1-.8-7.6C294.2,247.1,294.4,246.6,294,246.1Z" fill="#cc2327"/>
            <path d="M296.2,277.4c-.3-2.8-.7-5.6-.8-8.4.2-.5,0-1.1.1-1.7l.2-.7c.1-.3.2-.5.5-.5s.4.3.5.5.2,1.3.4,2.1.1.4.1.6a26.1,26.1,0,0,1,.5,4.8l.2,3.6c0,.4,0,.6-.4.8A1.2,1.2,0,0,1,296.2,277.4Z" fill="#a16627"/>
            <path d="M288.8,235.1a17.3,17.3,0,0,0,1,2.4l1,1.6a3.5,3.5,0,0,0,.5.8l.4.8.8,1,.5.6c.2.4.8.6.7,1.1a12.6,12.6,0,0,1-3.7-3.2,6.1,6.1,0,0,1-1.2-1.6,16.3,16.3,0,0,1-1.1-1.7,1.3,1.3,0,0,1,.4-1.8l.5-.2C288.7,234.9,288.7,235.1,288.8,235.1Z" fill="#6c160f"/>
            <path d="M298.7,287.8a6.4,6.4,0,0,0-1-2.4c-.8-1.1-.8-2.5-1-3.8s.1-.4.4-.4l.8.3a1.2,1.2,0,0,1,.4,1.1,10.9,10.9,0,0,0,.5,2.6,1.7,1.7,0,0,0,.5,1.2c.3.4.1.8,0,1.2S298.9,287.9,298.7,287.8Z" fill="#a16427"/>
            <path d="M296.2,277.4a1.2,1.2,0,0,0,1.2.9c.2.1.4.1.5-.2a61.1,61.1,0,0,0-1.2-12,2.1,2.1,0,0,1,0-.8v-.2h.4a11.1,11.1,0,0,1,.7,2.6q.5,3.3.6,6.6c.1,1.3.2,2.5.2,3.7a2.1,2.1,0,0,0,.1,1.1c.1.4.1.7-.4.8s-.3-.4-.3-.7-.1-.4-.4-.4a2.7,2.7,0,0,1-1.4-.6A2.2,2.2,0,0,1,296.2,277.4Z" fill="#c3982d"/>
            <path d="M295,264.4c-.2-2.9-.3-5.6-.5-8.5v-.7a.5.5,0,0,1,0-.5.8.8,0,0,1,.5.7c.3,2.4.5,4.8.8,7.2a7.1,7.1,0,0,1,.1,1.4c0,.4-.2.7-.6.7S295,264.5,295,264.4Z" fill="#951b1e"/>
            <path d="M295.1,264.6c.5,0,.7-.2.6-.7l-.3-3.2-.4-3.8a4.4,4.4,0,0,0-.5-2.2c-.4-.6,0-.7-.1-1v-1.5c-.2-.5,0-1-.1-1.5v-1.4c.4,0,.3.3.4.5.3,3.9.8,7.8,1.2,11.7,0,1,.3,2.1.2,3.2S295.4,265.1,295.1,264.6Z" fill="#ad1f23"/>
            <path d="M293.7,243.4c-.1-.4-.6-.6-.9-1a3.3,3.3,0,0,1,0-1.4c0-.5.1-2.8.2-4.2s-.1-.9.5-1.1a2.8,2.8,0,0,1,.3,1.8c0,1.6.2,3.2.3,4.7s.2.8-.2,1v.4Z" fill="#7e1416"/>
            <path d="M288.6,234.9c-.5.2-.7.7-1,1.1s-.1.4,0,.6a7.9,7.9,0,0,1,1.2,2,18.3,18.3,0,0,1-2.6-4.2.9.9,0,0,0,1-.6,1.6,1.6,0,0,1,.8-.6A2.7,2.7,0,0,1,288.6,234.9Z" fill="#821518"/>
            <path d="M296,264.7c-.1-1.9-.3-3.7-.5-5.6s-.4-3.2-.5-4.7-.3-3.1-.5-4.6a.5.5,0,0,0-.3-.5v-.2a4.3,4.3,0,0,0-.1-1.5v-1.5c.4,0,.3.3.3.5l.8,7.6c.3,3,.7,6,1,9a3.9,3.9,0,0,0,.2,1.5.3.3,0,0,1-.4,0Z" fill="#ae1f24"/>
            <path d="M298.7,287.8c.4-.2.8-.9.5-1.2s-.6-1.8-.9-2.7.1-1.6-.5-2.3a.5.5,0,0,1,.7,0h.2c.2,1.1.2,2.2.4,3.4s.1.7.4,1l.3.2v.9c-.3,0-.3.3-.3.5a1,1,0,0,1-.2.7,5.5,5.5,0,0,1-.1,1.8Z" fill="#be842b"/>
            <path d="M297.1,269.2a16.8,16.8,0,0,1-.6-2.4c-.3-.9,0-.5-.3-.5s-.3.3-.3.5,0,1.6-.5,2.2c-.2-1.2-.2-2.6-.3-3.9s-.1-.4.2-.3.9-.1,1.2.3.2,1,.4,1.5a7.6,7.6,0,0,1,.3,1.6A1.2,1.2,0,0,1,297.1,269.2Z" fill="#b37129"/>
            <path d="M296.3,278.3l1.5.4a1.2,1.2,0,0,1,.2,1.3,1.1,1.1,0,0,1-1.5-.4A6.9,6.9,0,0,1,296.3,278.3Z" fill="#a46728"/>
            <path d="M296.6,281v-.5c-.1-.5,0-.7.5-.5h.6a.8.8,0,0,1,.4,1.1h0C297.5,281.6,297.1,281.3,296.6,281Z" fill="#a46728"/>
            <path d="M297.7,280.2h-.6c-.4-.2-.5.1-.5.4a1.6,1.6,0,0,1-.1-1,2.6,2.6,0,0,0,1.5.4h.3l.6.4v.2a.8.8,0,0,1-.2.8h-.5C298.1,280.9,298.3,280.3,297.7,280.2Z" fill="#c5962f"/>
            <path d="M296.6,281a3.5,3.5,0,0,0,1.4.3c.1-.1.3-.2.4-.1h0q.3.2.3.3v.2l-.8-.2a.8.8,0,0,1-.7-.2c-.2-.1-.3.1-.4.2A4.3,4.3,0,0,1,296.6,281Z" fill="#c3973a"/>
            <path d="M296.5,265.1l-1.1-.2c-.2,0-.2.1-.3.2s-.1-.5-.1-.7.1.1.1.2h1.2c.1.1.3,0,.4,0s.3.2,0,.4h-.2Z" fill="#edd4a5"/>
            <path d="M294.2,250.7a3.6,3.6,0,0,1,.2,1.5A3.9,3.9,0,0,1,294.2,250.7Z" fill="#ae1f24"/>
            <path d="M294.1,247.6c.3.5.1,1,.1,1.5A3.7,3.7,0,0,1,294.1,247.6Z" fill="#cc2327"/>
            <path d="M294.4,253.7c.2.3,0,.7.1,1s0,.3,0,.5A3.8,3.8,0,0,1,294.4,253.7Z" fill="#ae1f24"/>
            <path d="M295.3,243.7c.5,3.3,1.1,6.6,1.6,9.9v.4a7.4,7.4,0,0,0,.2,2.6c.4,2.5.6,5,.9,7.4a.8.8,0,0,1-.1.7.6.6,0,0,1-.8,0,5.7,5.7,0,0,1-.3-1.8c-.2-2.6-.6-5.2-.8-7.8l-.8-6.8c-.1-1.4-.3-2.8-.4-4.1a1.1,1.1,0,0,1,.1-.8C295.2,243.3,295.4,243.3,295.3,243.7Z" fill="#f15a5b"/>
            <path d="M298.5,264.9a5.1,5.1,0,0,1,.2,1.3,6.9,6.9,0,0,0,.2,2.5c.3,2.8.5,5.6.9,8.4v.7a.7.7,0,0,1-.8.4h-.2a10.2,10.2,0,0,1-.3-3c-.2-3.2-.2-6.3-1.1-9.4v-.5C297.7,264.9,298,264.6,298.5,264.9Z" fill="#e7cc44"/>
            <path d="M297.8,264.7c-.2-1.7-.4-3.5-.5-5.2s-.4-3.2-.5-4.9a.5.5,0,0,1,.1-.6l1.3,8.2a16.4,16.4,0,0,1,.2,2.2C298.5,265.1,298.1,264.8,297.8,264.7Z" fill="#df2e32"/>
            <path d="M299.6,277.8l-.5-5.4a18.4,18.4,0,0,1-.3-3.3l-.2-2.5c-.1-.2-.1-.3.1-.4a86.5,86.5,0,0,1,1.1,8.9l.3,2.5C300.1,278.5,299.9,277.9,299.6,277.8Z" fill="#f1c22b"/>
            <path d="M295.3,243.7a.3.3,0,0,0-.3-.3h-.5v-.2c-.5-.8-.3-1.9-.5-2.9s-.2-2.3-.3-3.4a1.2,1.2,0,0,1,.2-1c.5,0,.4.5.5.8.3,1.8.5,3.5.8,5.3,0,.2-.1.6.3.7s.4-.4.7-.4.4.2.3.5-.6.5-.8.7Z" fill="#ab2424"/>
            <path d="M300.5,284.7a2.6,2.6,0,0,1-.7,1.5.5.5,0,0,1-.3-.5c-.1-1.3-.3-2.7-.3-4.1a.6.6,0,0,1,.7-.4c.6.9.4,1.8.5,2.7A1.9,1.9,0,0,0,300.5,284.7Z" fill="#f2d74a"/>
            <path d="M299.3,281.6c.2,1.6.3,3.1.5,4.6v.2h-.3a7.6,7.6,0,0,1-.6-2.5c-.1-.9.1-1.5-.3-2.2h0v-.2c.1-.2.4-.2.6-.1S299.3,281.5,299.3,281.6Z" fill="#e2bd3d"/>
            <path d="M298.8,281.3a4.1,4.1,0,0,0,.1-1.1c.2-.4.7-.4.9-.7a.3.3,0,0,1,.4,0,1.5,1.5,0,0,1,0,1.3c0,.2-.1.2-.2.3A1.5,1.5,0,0,1,298.8,281.3Z" fill="#edca48"/>
            <path d="M300.2,279.5h-.3c-.3,0-.6.5-1,.1a4.1,4.1,0,0,1-.1-1.1l1.3-.7A4.3,4.3,0,0,1,300.2,279.5Z" fill="#efce48"/>
            <path d="M300.1,281v-.2a8.6,8.6,0,0,1,.3,3.9c-.5-.4-.2-1.1-.4-1.7a11,11,0,0,1-.2-1.8.2.2,0,0,1,.2-.2Z" fill="#f5c732"/>
            <path d="M299.3,288.5v-1.1c.1-.4.3-.3.5-.1v1.1Z" fill="#dba727"/>
            <path d="M300.1,277.9c-.4.3-.7.7-1.2.7a.3.3,0,0,1-.3-.3l.3-.2a.9.9,0,0,0,.7-.3l.5-.2Z" fill="#f1df96"/>
            <path d="M297.8,264.7c.3,0,.6,0,.6-.3s.2.3.1.5-.6.3-.9.2-.2.1-.4.1a.8.8,0,0,1-.2-.5h.8Z" fill="#d48849"/>
            <path d="M290.8,239.2c-.5-.5-.6-1.2-1-1.7s.5-.8.5-1.2c-.1-2.1.2-4.1.2-6.1s.1-4.2.3-6.3c0-.2,0-.4.2-.5a1,1,0,0,1,.6.5,9.1,9.1,0,0,1,0,3.3v.4c0,2-.1,3.9-.2,5.9a26.9,26.9,0,0,1-.3,5A1.1,1.1,0,0,1,290.8,239.2Z" fill="#bd2026"/>
            <path d="M285.8,224.7a2.7,2.7,0,0,1,2.1-1c-.3.3-.1.8-.5,1l-.3,1.6c-.5-.1-.7.2-.9.5a1.3,1.3,0,0,1-.7.6c-.3.2-.6.2-.5-.3Z" fill="#db1f26"/>
            <path d="M287,226.2c.2-.5.1-1,.4-1.5l-.2,2.3a21.9,21.9,0,0,0,1.4,7.1,3.6,3.6,0,0,1,.2,1l-.2-.2a4.9,4.9,0,0,0-.6-1.7l-.6-2.3a8.2,8.2,0,0,1-.6-2.6A2.5,2.5,0,0,1,287,226.2Z" fill="#db4640"/>
            <path d="M299.2,224.6a7.4,7.4,0,0,1,2,5.1,16.8,16.8,0,0,1-1.7,8.6,1.3,1.3,0,0,1-.4-1.2c.1-2.2-.2-4.4-.2-6.7s-.1-3.1-.1-4.8S298.8,224.8,299.2,224.6Z" fill="#e74035"/>
            <path d="M299.2,224.6a6.1,6.1,0,0,0-.1,2.7c0,.4.1.8.1,1.2-.1,2.9.2,5.9.1,8.8.1.4.1.7.2,1a5.3,5.3,0,0,1-1.1,2.1,1.1,1.1,0,0,1-.3-1.1v-2.5a1.3,1.3,0,0,0-.4-1,2.5,2.5,0,0,1,.1-1.2,19.6,19.6,0,0,0-.5-8v-.5a2.9,2.9,0,0,0,.1-1.6c.1-.4,0-.8.3-1.1A2.9,2.9,0,0,1,299.2,224.6Z" fill="#da392e"/>
            <path d="M292.8,224.9a2.4,2.4,0,0,1,1-1.4c.5,0,.5.6.7.9l2.6,5.8a13,13,0,0,0,.8,1.7,3.1,3.1,0,0,1-.1,2.5c-.3.8-.6-.1-.8-.3s-1.1-2.4-1.6-3.6-1.6-3.7-2.5-5.5Z" fill="#951b1e"/>
            <path d="M297.8,231.8c-.6-.3-.6-.9-.9-1.3l-2.8-6.5-.3-.5a1.1,1.1,0,0,1,1.2-.5c.5,1.5,1.2,2.9,1.8,4.3a12.8,12.8,0,0,0,1.1,2A4.3,4.3,0,0,1,297.8,231.8Z" fill="#a31e21"/>
            <path d="M291.6,240.7a1.6,1.6,0,0,1-.4-.7,4.3,4.3,0,0,1-.1-1.6c.2-2.1.2-4.3.4-6.4s.1-4.6.3-6.8c0-.3-.1-.8.4-.6s.3.4.6.3h.1c0,.1,0,.2-.1.2a1.9,1.9,0,0,0-.2.8c.1.9-.1,1.9-.1,2.9,0,3.2-.3,6.4-.3,9.7A2.7,2.7,0,0,1,291.6,240.7Z" fill="#a81e22"/>
            <path d="M292.2,224.6c-.2,0-.2.1-.2.3s-.2,1.8-.2,2.7a58.2,58.2,0,0,1-.2,5.9,51.2,51.2,0,0,1-.3,5.6c0,.3-.1.6-.1.9a.9.9,0,0,1-.4-.8l.3-2.4c0-3.1.1-6.1.3-9.3a27.1,27.1,0,0,0,.1-2.9c0-.2.1-.5.1-.7A1.1,1.1,0,0,1,292.2,224.6Z" fill="#ad1f23"/>
            <path d="M297.9,235.9c.5,0,.4.4.4.7v2a10.9,10.9,0,0,0,.1,1.8,3,3,0,0,1-.9,1.3c-.3-.1-.3-.4-.4-.7s0-.7-.2-.9.1-1,.2-1.5a2.9,2.9,0,0,1,.2-.9C297.6,237.1,297.4,236.4,297.9,235.9Z" fill="#d0352b"/>
            <path d="M297.7,229.2a3.4,3.4,0,0,1-1-1.6l-1.6-3.7a2.8,2.8,0,0,1-.1-.9l.4.2c.5.2.7.6,1,1a8.9,8.9,0,0,1,.8,1.7,15.5,15.5,0,0,1,.5,2.3C297.9,229,297.9,228.9,297.7,229.2Z" fill="#ac1f23"/>
            <path d="M297.7,223.4v2c0,.3,0,.6-.3.7s-.2-.4-.3-.5a7.4,7.4,0,0,0-1.4-2.2.3.3,0,0,1,0-.4A4.5,4.5,0,0,1,297.7,223.4Z" fill="#ca322a"/>
            <path d="M296.9,240.1c.2-.1.3-.1.3.2l.3,1.4c-.3.4-.5.9-1,1.1a.4.4,0,0,0-.4-.4.8.8,0,0,1,.1-.7v-.2a6.9,6.9,0,0,0,.5-1.3Z" fill="#bd2a26"/>
            <path d="M297.2,225.6c0,.1,0,.2-.1.2a10.6,10.6,0,0,0-1.7-2.6l.3-.2c.1.6.6.8.8,1.2" fill="#e4aba9"/>
            <path d="M287,228.3a23.4,23.4,0,0,0,.4,2.6c.2.9-.8.7-1.3,1.1s-.4.3-.6-.1a10.8,10.8,0,0,1-.5-2.1l1.4-1.3C286.5,228.3,286.7,228.1,287,228.3Z" fill="#b41f24"/>
            <path d="M287,228.3c-.6.1-.8.6-1.1.9s-.4.6-.9.6a6.1,6.1,0,0,1,0-2.7c.2.6.5.2.7,0l.8-.9c.1-.1.4-.5.5,0Z" fill="#cd2027"/>
            <path d="M294.5,243.4h.5a41.8,41.8,0,0,0,.5,6.1l.6,4.7c.1,1.5.5,4.3.6,6.4s.4,2.7.4,4.1h0a.3.3,0,0,1-.4,0,35.3,35.3,0,0,0-.5-5.6c-.1-1.6-.3-3.2-.5-4.9l-.7-6.4c-.1-1.1-.3-2.2-.3-3.4A4.4,4.4,0,0,0,294.5,243.4Z" fill="#e8423c"/>
            <path d="M294,235.9a3.3,3.3,0,0,0,0,1.7c.1,1.9.4,3.7.5,5.6h-.6c-.1-1.1-.1-2.2-.2-3.4s-.1-2.7-.2-4.1-.7-1.7-.1-2.6.3.1.4.2S294.4,235,294,235.9Z" fill="#941a1d"/>
            <path d="M296.7,264.7h.4v.4h-.5c.2-.5-.3-.1-.4-.4Z" fill="#dfb488"/>
            <path d="M297.1,276.7a16.2,16.2,0,0,1-.9-3.8,12.8,12.8,0,0,1-.1-3.9c0-.4,0-.9.2-.9s.4.5.4.8a35.9,35.9,0,0,1,.5,4.6c.1,1.6.2,1.6.2,2.4A1.1,1.1,0,0,1,297.1,276.7Z" fill="#9a6026"/>
            <path d="M297.1,269.2c0-.9-.4-1.8-.4-2.7a3,3,0,0,1,.6,1.8,53.2,53.2,0,0,1,.6,5.6c0,1.5.4,3,.1,4.5s-.4.1-.6-.1.4-.1.3-.5v-3.6C297.4,272.5,297.3,270.8,297.1,269.2Z" fill="#b4812c"/>
            <path d="M291.6,240.7a11.8,11.8,0,0,0,.4-2,58.2,58.2,0,0,1,.2-5.9c0-2,.1-4.8.2-7.2,0-.3.2-.6.4-.6h0c.2,1.1.2,2.1.4,3.2v.8c0,2.9-.2,5.9-.3,8.8-.1,1-.1,2-.1,3a1.1,1.1,0,0,1-.4.9A1.6,1.6,0,0,1,291.6,240.7Z" fill="#941a1d"/>
            <path d="M292.4,241.7a23.1,23.1,0,0,0,.3-3.7c0-1.3.2-3.9.1-5.8s.3-2.2.2-3.2.3.1.3.3.3,2.2.4,3.4-.1.3-.2.5-.2.7-.1,1.1a6.6,6.6,0,0,1,.1,1.4,1.2,1.2,0,0,0-.3,1c0,1.3-.3,2.6-.2,3.9a5.5,5.5,0,0,1-.2,1.8A1.6,1.6,0,0,1,292.4,241.7Z" fill="#851618"/>
            <path d="M297.1,265.1h.5a2.2,2.2,0,0,0,.2,1.4,21.2,21.2,0,0,1,.6,4.4c.2,2.4.4,4.8.5,7.2-.1,0-.1.1-.1.2h-.2a2.5,2.5,0,0,1-.2-.7c-.1-2-.1-4-.3-6A35.2,35.2,0,0,0,297.1,265.1Z" fill="#d5b338"/>
            <path d="M298,278.4a74.7,74.7,0,0,0-1.1-11.6l-.2-.3a6.8,6.8,0,0,1-.2-1.4h.3a50.1,50.1,0,0,1,1,6.6c.1,2,.4,4.2.3,6.3A.6.6,0,0,1,298,278.4Z" fill="#b6852c"/>
            <path d="M298.6,278.3h.2a.4.4,0,0,0,.1.3,2.5,2.5,0,0,1,.1,1.2c0,.2-.2.3-.2.5s-.4-.2-.5-.4h.1c.7-.3.1-.8.1-1.1S298.3,278.4,298.6,278.3Z" fill="#dab443"/>
            <path d="M298.4,279.9H298l-.2-1.2c.3,0,.5.1.5.4A1.1,1.1,0,0,0,298.4,279.9Z" fill="#be852b"/>
            <path d="M298.6,281.7c.3,0,.4.2.5.5s.2,2.4.2,3.6l.2.6c-.7-.5-.6-1.3-.7-1.9A13.2,13.2,0,0,1,298.6,281.7Z" fill="#d5a42a"/>
            <path d="M298.4,281.2H298c0-.4.1-.8-.3-1.1S298.4,280.7,298.4,281.2Z" fill="#bc7e2b"/>
            <path d="M300.1,281l-.2.2-.6.4h-.7l-.2-.3h.4C299.2,281.3,299.6,280.9,300.1,281Z" fill="#f4e7ac"/>
            <path d="M298.8,280.3c-.2-.3.1-.4.2-.5s.6-.5.9-.2-.7.4-1,.6Z" fill="#f6ebb1"/>
            <path d="M293.5,233.2c-.2-1.5-.2-2.9-.5-4.2v-.8c.5-.2.6.2.8.4s1,2.4,1.6,3.6,1.3,3.2,2.1,4.7-.1.6-.1.9a14.6,14.6,0,0,1-.5,2c-.1.1,0,.2,0,.3h0c-.3.4-.3,1-.6,1.4h0a3.4,3.4,0,0,1-.6,1.2c-.2.1-.2.4-.3.4s-.2-.2-.3-.3c-.3-2.3-.7-4.6-1.1-6.8v-.2C293.8,235,294,234,293.5,233.2Z" fill="#781214"/>
            <path d="M295.7,242.8a3.4,3.4,0,0,1,.6-1.2c.1.2-.1.5-.2.8A.4.4,0,0,1,295.7,242.8Z" fill="#c06865"/>
            <path d="M297.1,225.8v-.2l.2.5a22.4,22.4,0,0,1,.5,9.3v.5c-.3.6-.2,1.4-.5,1.9s.2-.5,0-.9a5,5,0,0,1,.3-2.4,8.2,8.2,0,0,0,.1-2.7" fill="#e9c3c2"/>
            <path d="M297.7,234.5a9.9,9.9,0,0,1-.3,2.4,35.5,35.5,0,0,1-2.1-4.4c-.6-1.2-1.1-2.5-1.7-3.8s-.3-.5-.6-.5a8.7,8.7,0,0,1-.2-3.2h.1c.6.2.6.8.8,1.3,1.2,2.6,2.4,5.1,3.5,7.7C297.3,234.2,297.3,234.5,297.7,234.5Z" fill="#851618"/>
            <path d="M296.3,241.6c.1-.5.1-1.1.6-1.4S296.7,241.2,296.3,241.6Z" fill="#cf8987"/>
          </g>
        </g>
        <path d="M331.9,52.8a16.1,16.1,0,0,1,6.6-.4h.8c.1-.1,1.1-.3,1.3,0h.5c.2.1.1.3,0,.4a.1.1,0,0,0,0,.2h.4c.2,0,.4,0,.4.1h-1.4c-.2-.1-.1-.2,0-.4h0c-.2,0-.6,0-.7.2s-.3-.3-.6-.3h-.1c-.1,0-.3-.1-.4,0s-.9.6,0,.7C336.9,53.6,332.5,54.4,331.9,52.8Zm11.6.2h.1c.4.1.8.1.5.4a13.6,13.6,0,0,1,2-.2c-.1-.2,0-.4-.3-.5s-1.4-.3-2.2.2h-.3C343.3,53,343.4,53,343.5,53Zm-19.7-2.5c-1.1-.8-2.5-.8-4.1-.7a.4.4,0,0,1-.3.4,5.8,5.8,0,0,1,1.4.3C321.8,50.3,322.8,50.8,323.8,50.5Zm-87.4-1.9h1.8A10.8,10.8,0,0,0,236.4,48.6Zm-33-.4c.1,0,.2,0,.2-.1a.2.2,0,0,0-.2-.2h-.3C203.1,48.1,203.2,48.2,203.4,48.2Zm-.6-1.5c-.2,0-.2.2-.3.3h.5C202.9,46.9,203.1,46.7,202.8,46.7Zm32.6,2h0Zm-32.3-1.6h0Zm-.2.4h0Zm-35.4-1.3h-.4l.4.2Zm.1.3h.1C167.5,46.4,167.5,46.5,167.6,46.5Zm-1.9.1h.2C165.9,46.5,165.8,46.5,165.7,46.6Zm.3,0h0Zm1.6.2h0Zm181,31h1.6C350.3,77.6,348.9,77.7,348.6,77.8Zm-7.7-28.7c0-.1,0-.1.3-.1s-.1-.3-.6-.2S340.6,49.1,340.9,49.1Zm1-.3s0,.1-.3.1v.2C342.3,49.3,342.4,48.7,341.9,48.8Zm7.6,2c-.4,0-1-.1-1,.1S349.4,51.1,349.5,50.8Zm-3.3.2c-.4,0-.8,0-.7.3S346.1,51.2,346.2,51Zm5.6,2.9c0-.4.5-.7-.3-.9S351.3,53.8,351.8,53.9Zm-5.3,23c.1-.2.7-.1.5-.4S345.9,76.8,346.5,76.9Zm-9.1,18.5c.9.3,1.1-.6.2-.4S337.6,95.3,337.4,95.4Zm-.8,0q0-.2.3-.3h-1.3C335.5,95.4,336,95.5,336.6,95.4Zm11.3,1.7c-.9-.3-1,.4,0,0Zm-43,7.5c.1-.3-1.2-.5-1.3-.1S304.3,104.9,304.9,104.6Zm-26.8,1v.3C278.9,106.1,278.9,105.4,278.1,105.6Zm1,.2c0,.2-.3.3-.2.5h.8C279.7,106,279.6,105.9,279.1,105.8Zm13.1.7c-.1.1.1.4.2.2S292.3,106.2,292.2,106.5Zm12,.7a1.5,1.5,0,0,0,1.3-.3C304.6,106.8,304.6,107.1,304.2,107.2Zm10-.1c.2,0,.3,0,.3.1h.5C315.4,107,314.1,106.9,314.2,107.1Zm33.8.5h1.3v-.2C349,107,348.3,107.5,348,107.6Zm-41,.1c-1.6-.2-.6.3,0,0Zm42.5.6c.7-.1,1.1.5,1.5.1s-.5-.3-1-.5S349.6,108.1,349.5,108.3Zm1.5-.2c.1.4,1.6.4,1.5,0S351.5,108.3,351,108.1Zm-16.5.5c-.2.2,1,0,.8-.1S334.6,108.6,334.5,108.6Zm2.6.4c.6-.2,1,.3,1.2,0S337.1,108.7,337.1,109Zm8.1-59.3c.2-.3-1.4-.3-1.3-.2Zm.4,46.1h-.5v-.2h-.2v.5C345.3,96,345.8,96.1,345.6,95.8Zm.1.7-.6.3v-.4c-.4,0-.3-.2-.5-.2h-.8c.2.3-1.2-.1-1,.2s-.3.5-.5.6,1.3,0,1.5.3h.4v.2c.1,0,1,.3,1,0s.9-.3.7-.6v-.4Zm-27.2,10.9v-.2H318c-.8.1-.5-.3-1.3-.2h-.5c-.7.6-2.4.8-3.7,1.1a9.4,9.4,0,0,0,3,.1c-.7.3.4.2.8.4s.8-.3,1.5-.1.1-.4.7-.4h-.1c.3.2,1.1.1,1.2-.1h-.9A.2.2,0,0,0,318.5,107.4Zm-9.1-1.8a7.9,7.9,0,0,1,2.3-.4h-.2v-.2c-.6-.2-1.6-.4-1-.7h-.3V104c-.5-.5-1.7.5-2.5.3s.3.2.3.4-.9.2-.5.4h.3C309,105.6,309.3,105,309.4,105.6Zm1.3.8c0,.3.2.4.8.4s1.7-.4,2.2-.7c-1.4-.2.1-.2-.5-.6s-3.8.6-5.5,0h-.4v-.2c-.8.2-2.2.1-3,.3h.1c-1.3-.1-2.9-.1-3.5.6l3.1-.5,1,.5a2.6,2.6,0,0,0,1.5-.3c.5.2.7.5,1.3.6S309.8,106.8,310.7,106.4Zm-13-.4c.1,0,.2.1,0,.1v.2l-.4.2c0,.1-.3.2-.2.4,2.1,0,3,.2,4.2-.2s.1-.3-.2-.3h-.4v-.2Zm-3.1-.6c0,.2,0,.3-.5.2l.2.3h-.4c0,.1-.2.2-.2.2h3.5C297.3,105.4,295.5,105.6,294.6,105.4Zm-1.7.2c-1.6-.7-3.4-.1-6-.2h-.3c-.3-.1-.4-.2-.7,0v.2l-1-.2v-.2c-.6-.5-2-.1-3,0l.2.2h-.4c.5.2-.2.3,0,.7a2.1,2.1,0,0,1,1.8.2c.7.1.4-.3,1.2-.2v-.2H286v.2l1.3.2c.3,0,0-.4.4-.4a14.6,14.6,0,0,0,5.1,0l-.2-.2Zm-11.4-.5h-.4c-.2-.2-.8-.2-1-.4a39.2,39.2,0,0,1-4.8-.1c.2.4-1,.2-.7.6h.4v.2h1.1v.2c.8-.1.3.4,1.3.2s1.1-.3,2.5-.5h-.2l.4.2c.5.1,1.2.2,1.4-.1h0Zm29.4-.5,1-.3h-.4v-.3c-.5,0-1.6-.2-1,.1h0C310.6,104.4,310.9,104.4,310.9,104.6Zm-7,1.9h-.2C303.9,107.1,305.1,105.9,303.9,106.5Zm6.4.9H310c-1.1-.1-2,0-2.3.4a13.2,13.2,0,0,0,4.5,0c-.3-.3-1.2-.3-1.7-.5Zm38.2-9.7.6-.2C348.7,97.6,348.5,97.6,348.5,97.7Zm-10.9,1.6h0Zm15.1,7.1h0ZM269,104.2h0Zm82.4-7.7.6-.2A1.1,1.1,0,0,0,351.4,96.5Zm-6.3.3.4-.5Zm.7-.1h0Zm-1.5.6h0Zm0-1.1.6-.4C344.7,95.9,344.4,96,344.3,96.2Zm.6-.4-.6-.4A.9.9,0,0,0,344.9,95.8Zm-2.6-.2.3-.2Zm7.3,10.5h0Zm-2.4,1.9a.3.3,0,0,1-.1-.2Zm-26.6-.8h0Zm-7.8-2.1h0Zm-39.1.1h1A1.7,1.7,0,0,0,273.7,105.2Zm7.9-.4v.3C281.6,105,281.7,104.9,281.6,104.8Zm.2-.4h-.4l.2.3.4-.4Zm5,.8-.3.2Zm5.7.5h0Zm5.3.6-1.1-.2Zm9.5-.8.5-.3Zm2.8-1.3h0Zm3.7,0h0Zm-2.3,0h2.3A17.7,17.7,0,0,0,311.5,104.2Zm16.6-1.6h-.6C327.6,102.7,327.9,102.6,328.1,102.6Zm1.1-.9-2.7-.4A12.6,12.6,0,0,0,329.2,101.7Zm19.6,4.9c.1-.1-.1-.3-.2-.4l-.6.8A2,2,0,0,1,348.8,106.6Zm-30.4.6v0Zm0,0h0Zm-43.6-1.9c.4.2,1,0,1.4,0h-1.4Zm35.4-2.3,7.4.3Zm-14.7,1.2-.6.2h.5A.4.4,0,0,0,295.5,104.2Zm14.8,3.2v-.5A.9.9,0,0,0,310.3,107.4Zm41.3-56.9c-.3.7,1.2.1,0,0Zm15.7,9.6h-.5v.3h.5Zm-1.1,7.8c.2-.2,1.5,0,1.4-.5S365.2,67.7,366.2,67.9Zm1.6,3.5c-1.3-.2-1.3.4-2.4.3h-.3c0,.1-.1.2-.4.2l.4-.2h-.2c.1.1-2.3-.3-2.1-.6s-1,.1-.5-.5-.9.6-1,0-1,.2-.6.6c-1.6-.4-2.5.4-3.7.3l-.3.5h0a.6.6,0,0,1-.5.7l-1.6.9h0a1.2,1.2,0,0,1-1.3.8h0l-4.9,1.3h.1v.2l.6-.2-.6.2h.4a4.3,4.3,0,0,1-1.9.2l-.7.3a2.1,2.1,0,0,1-1,.6h.9c.3.6-.4.9-1.3,1.1l2.5.2h3.8l2.4.2h-2.8l-.5-.2h-1.1c.3.1.2.1-.2.1H348l-1.9-.2h-.3l-.2.2,1.3.2h9.8c.4.1.5.2.2.2a2.4,2.4,0,0,1-1.2,0h-3.8c-1,0-.3.1-.1.1h.9c.7,0,.6.1.1.1h0v.2h-2c-.1.1.7.1.8.1h-1c1,0,.9.1.9.2h-.5c-.3,0-1,0-.2.1s1.4,0,.9.1h-.6c-.5,0-.2,0-.2-.1h-.9c1.1,0,1.2,0,.5.1h-3.4c-.1.1.1.1.3.1h-3.1c-.5.1.1.1.2.1h1.9c.1-.2.7-.2.9,0h.1l3.2.2h1.6c1,0,2,.1,3.1,0h.9c.4.1.3.1,0,.1h-1.2c.4,0,.8,0,.7.1h-3.4c.3,0,.1,0-.2.1h-1.9l1.3.2h0l5.4.2h2.9c.5,0,.7.1.3.2H355c-.3,0-.3.1-.2.1h.4c1.4,0,1.6.1.9.2s.3,0,.2.1.2.1-1,0h-.9c-.4.1.4.1.7.2h-2.2c-.3,0-.4.1-.2.1h.7c-.1.1-.4,0-.7,0s-.8,0-.6.1h1.6c1.2,0,1.1.1,1.4.2h-.6c-.3.1-1.1.1-.2.1h.4c-.5.1-.4,0-.3,0h-5.1c-.4,0-.5,0-.4.1h5c.9,0,.8,0,.1.1h-3.1c-.1-.1-.3,0-.4,0h.3c.3,0,.8,0,.6.1h-3.6c-.7.1.4.2.7.2h-.3a5.3,5.3,0,0,1,1.5.1h2.4a.9.9,0,0,1,.6.3h6.8c0,.1-.5.1-1.2.1h-7.2c.5.1,0,.1-.2.2h1.7c-.2.1,0,.4-.7.3h-.6c0-.1.2-.1,1.2-.1a4.8,4.8,0,0,0,1.2,0c.2,0,.1.1-.1.1,1.7.3,3.4-.1,5.1-.1s1.6.1.7,1.5h0c0,.3-.1.6-.5.6l-1.6.8h0a1.2,1.2,0,0,1-1.3.7h0a50.6,50.6,0,0,0-6.7,1.7h-.4a3.9,3.9,0,0,1-1.8.6h-8c-.7.4.2-.1-1,0s-1.3.6-2,1.2-.4-.3-.5-.5-3.2-.2-4,.4,2.1.1,2.5.4,0,.2,0,.5-.6.1-1.2.1.3.3-.3.3,0-.1,0-.3H332l-.5.9h0c-.1.3-.2.6-.5.7l-1.7.7h0a1.1,1.1,0,0,1-1.3.7h0l-1.2.3,5.9.4,2.3.2c.3,0,.4-.3.5-.3a4.4,4.4,0,0,0,2,0c.4.2,0,.6,1,.5s-1.6.4-1,.6-.4-.1-.5-.1-5.9-.5-10.9-.7H326c.5.9-.5.7-1,.7h-1.1a8.6,8.6,0,0,1,2.3.2c.6.6.3,1-.3,1.3-3.3.1-6.6,0-10-.1h-2a.8.8,0,0,1-.9.4h0a40.7,40.7,0,0,0-5,1.3,3,3,0,0,1-2.1.4c-2.3.1-4.6-.2-6.9.2s-2.9-.3-4.4-.3h-3.5v.5c-1.3.4-2,.1-3.8-.3s-3.4.6-3.2-.2h-5c-.6.4-2.1.2-3.3,0h-3.2l-.4.2v.2a14.1,14.1,0,0,1-2.2.1v-.3l-.4-.2h-.7v.2l.3.2c.2.3-.6.2-.4.6s-2.4,0-2.6-.5-.3.3-1.2.3-.6-.3-.8-.8H239.9a53.1,53.1,0,0,0-6.9.3c-1.5.2-2.9-.3-4.4-.3H225l-.4.2h-1c0,.1.2.1.2.2s-1.4-.5-1.8,0l-.8-.4H209.3c0,.1-.2.2-.3.2h-2a7.5,7.5,0,0,0-1.5,0h-.6a2.8,2.8,0,0,0-1.3.1,4,4,0,0,1-1.9.2H180.3c.4.1.9-.1,1.1.3a1.4,1.4,0,0,0,2.2.2,4.2,4.2,0,0,1,.6.8c.2.1.2.4,0,.4s-.1.6-.4.8-1-.5-.3-1.4-1.4.2-2,.2,1.2.5.7,1.2a1.7,1.7,0,0,1-1.2-.5c-.2-.3-.6-.1-.9-.3h0a1,1,0,0,1-.5-.8h-.1c-.2.2-.5.4-.8.2a1.4,1.4,0,0,1,.3-1.1H160.4c.3.3-.1.6-.5.8l-.4-.7.5-.2H131.9c-4.1.1-8.3.1-12.4,0l-.3.2-.5-.2h-.2l-1.2.2.2-.2h-2.3a16.7,16.7,0,0,1-3.2.2h-.7c.1,0,.1-.1.1-.2h0c.1,0,.1,0,.1-.1h-.9a.6.6,0,0,1-.7.4l-.8-.4h-4.5l-4.8.2h-7l-.3-.2H76.8c-.1.4-1.4.3-.7.8-.9,0-1.2-.1-1.3-.3s-1.8.2-2.5.5-.7-.3-.5-.6l.4-.2v-.2h-.8l-.4.2.2.3a15.5,15.5,0,0,1-2.3-.1v-.2l-.3-.2H65.5c0,.2-.1.2-.3.2l-.3-.2c-1.1.1-2.3.3-2.8,0h-5c.1.7-2.4.9-3.3.2s-2.5.7-3.8.3v-.5H45.6c-3.9,0-7.9.1-11.8.3h-.3c0,.2-.3.2-.2.4s.8.2.4.4h-.3v.2c-1.4.3-1.7-.4-1.8.3a7.2,7.2,0,0,0-2.2-.4v-.2h.2c.4-.1,1.1-.3,1.1-.5h-.5c-.1.1-.2.1-.1.2l-.8-.2H26.6c-.3-.2-.4-.4-.1-.7a5,5,0,0,1,1.7-.2H26.8c-.2-.1-.3-.2-.1-.5a.2.2,0,0,1-.2-.2v-.4h-.4l-.5-.2h-.5c-.3.3-.7.2-1.1.2H4c-.3.8.5.8.9.7a2.5,2.5,0,0,1,2.4,0h.3a2.5,2.5,0,0,0,1.7-.4c.5.6,1,.4,1.6.1h.2c2.8.6,5.6.2,8.6.4a2.5,2.5,0,0,1-1.4.2c-3.5,0-7.1-.1-10.6,0H.6L.1,103l3-.4v-.2H-.4a21.7,21.7,0,0,0-3.6.1c-1.1-.1-1.2-.1-.5-1.1h0c0-.2,0-.4.3-.4l1.2-.6h0c.1-.3.4-.5.9-.4h0l1.6-.4H-7.3c-.2,0-.3-.1-.5-.3l2.9-.4v-.2H-8.4c-1.2-.2-2.3.1-3.5,0s-1.2,0-.6-1h0a.5.5,0,0,1,.4-.5l1.1-.5h0l.2-.2h0a.9.9,0,0,1,.7-.3h0l1.1-.2a5.6,5.6,0,0,1-1.3,0c-1.1,0-1.1,0-.5-1h0a.5.5,0,0,1,.3-.5l1.2-.5h0a1.1,1.1,0,0,1,.9-.5h0l.8-.2h-.5a51.7,51.7,0,0,0-6.8-1.6h0a1.6,1.6,0,0,1-1.3-.7h0l-1.6-.8c-.4-.1-.4-.3-.5-.6h0c-.9-1.3-.8-1.4.8-1.4s3.4.3,5.1,0h4.9v-.3l-4.1-.5a.7.7,0,0,1,.6-.4H-.3c-1.2-.2-2.4.1-3.5,0H-5.4v-.3h.6l.4-.6h0c0-.2.1-.3.3-.4l-5.3-.4h-.2c0-.1-.1,0,0-.1h.4l5.3.4h.2l.8-.4h0a1.1,1.1,0,0,1,.9-.5h0l1.3-.3h-.9l-8.3.2h-7c-.5-.3-.6-.5-.3-.9a5,5,0,0,1,1.7-.2h-.8c-.3,0-1.1.1-.7-.5a.2.2,0,0,1-.2-.2c0-.3-.1-.5-.1-.8s0-1.2,1.3-1.5h4.2l-.4-.3c-.1-.5.5-.5.8-.7s.4-.2.4-.4l-.4.3a7.8,7.8,0,0,1-2.1-.4.1.1,0,0,1,0-.2h0a4.1,4.1,0,0,0,1.6-.2H-14c-1.2-.1-1.2-.1-.6-1.1h0c.1-.2.1-.3.4-.4l1.1-.6h0a.8.8,0,0,1,.9-.4h0l1.7-.4-1.6-.4h0a1.1,1.1,0,0,1-1.3-.7h0l-1.7-.9c-.3-.1-.4-.4-.4-.8h0l-.3-.5c-1.2.1-2.2-.6-3.7-.2.3-.4-.1-.4-.6-.6s-.5.1-1.1,0-.6.3-.5.5-2.2.7-2,.6h-.6c-1.1,0-1.1-.5-2.4-.4s.3-.6.2-.9a2.7,2.7,0,0,0,1.9-.3c-.3-.5-1.1-.9-.1-1.2s1.3.4,2.1.6,1.9-.5,1.8-1.3-.9-1.7.4-2.2a2.1,2.1,0,0,1-1.4-.5h.4l-.2-.2a9.7,9.7,0,0,1,5.8-.9c.1-.2.4-.2.5-.4s-1.9-.9-3.5-.6-3.1-.2-3.5-.8,1.6-.3,2.1-.7-3.1-.6-3.8-.7.9-.5.7-1-4-.1-4.8-.8c1.8-.6,2.9-.1,5-.2.2-.1.4-.3.2-.6,1.9.4,3.5-.2,5.1.6s1.9-.4,2.9-.6-2.1-2.3.1-2.6a5.8,5.8,0,0,0,3.5.8h.4l.2-.2c-.4.1-1.1.1-.5-.2h.6a.6.6,0,0,0-.1-.4h0c0-.1-.1-.2-.2-.3h.7s0-.1-.3-.1-1.1-.1-.1-.2h.3c.6,0,.5-.1-.1-.1s-.8,0-.7-.1h1.4c.5,0,1.2,0,1.2-.1h-2.1a.1.1,0,0,0-.1-.1h.8c-.4-.1-.2-.1.7-.2s-.2-.1-.2-.1h-.8Q-11.2,55-9,55c.1,0,0-.1.1-.1h-.5l-.6-.2c-.5,0-.5-.1,0-.1h.7c.4-.1.5-.1-.6-.2h-.5v.2h0c0,.2.1.5-.3.5s-.5-.6.3-.8h-3c-.3,0-.7-.1.1-.1h-.1c-.4-.1-1.3,0-1.2-.1h1.9c.6-.1.5-.1-.9-.2h-.7c-.1-.1.3-.1.5-.1s.9-.1,0-.1-.4-.2,0-.2h.6c.5-.1,0-.1-.4-.2s-.4-.1-.2-.1h0c-.5-.1,0-.2.3-.3h-.2c-1.3-.1-1.3-.1.1-.2s.6-.1-.1-.1h1.2c.8-.1.9-.1.4-.1h-1.4c.1,0,.8,0,.6-.1h.1a.1.1,0,0,0-.1-.1H-13c-.7-.1-.6-.2.4-.2s.1-.1,0-.1h0l-1-.2h0c-.6-.1-.3-.2,1.3-.3h-.2c-.8-.1-.6-.1-.7-.2h0c-.5-.1-.8-.1,0-.2s1.3-.1-.2-.2h0c-.7-.1-.2-.1,0-.2s-.5-.1-.3-.1-.5-.2-.6-.2-.2-.1-.3-.1h.6c-.8-.2-.1-.3,1.7-.4h0c-.4-.1.5-.2,1-.3l1.5-.2,1.5-.2h0a37.2,37.2,0,0,1,5.2-.2h1.9a52.2,52.2,0,0,1,5.8-.3h0c2.2-.2,4.7-.2,7-.3,5.3-.3,10.8-.4,16.3-.6H29l11.5-.2H54.9a19.2,19.2,0,0,1,2.4,0h5.6c-.6-.8-1.3-.8-2.2-.2l-.6-.7c-.1-.2-.1-.4.1-.4s0-.7.3-.9,1.1.5.3,1.4c.8-.4,1.5-.1,2.1-.2s-1.2-.5-.7-1.2a2.2,2.2,0,0,1,1.2.5c.2.3.6.2.8.3a1,1,0,0,1,.5.8h.2c.2-.2.4-.4.8-.2a1.5,1.5,0,0,1-.1.7h3.6c-.6-.6-1.2.1-1.7-.2s.6-.9.6-1.5,1,.8,1.4,1.3a.8.8,0,0,1-.2.4h1.4c0,.1-.3.1-.6.1s-2.9.1-4.4,0h-.2c-.1.4-.5.5-1.4.2H60.6c-1.5-.1-2.9,0-4.3,0H50.9c.4.1.1.1-.4.2H49.1c.1.1.8,0,1.1,0h7.2a25.5,25.5,0,0,1,3.9-.2l.3.2H110c.4,0,.8-.1,1.1.2h0a31.4,31.4,0,0,1,8.1.2h9.7l-.3-.2h-5.2c-.2,0-.5,0-.4-.1h5.6l-.3-.3h-1.9a.1.1,0,0,0-.1-.1H112.7c.1.1-.1.1-.8.1h-2.3a16,16,0,0,0-3.1,0,4.5,4.5,0,0,1-2-.2h-3.1a10.8,10.8,0,0,0,1.8,0H84.8c-.1,0-.2,0-.2.1h5.5c.7.1.3.1.2.1h-7c-1.2.1-2.3,0-3.5,0h4.1a1,1,0,0,1,.5-.4l.3.4H96.8c2.2.1,4.3,0,6.3,0h22.8c0-.1-.1-.1-.1-.2s-.2-.4,0-.4.1-.6.4-.8,1,.5.3,1.4h.1a2.1,2.1,0,0,1,1.5-.2v-.6c-.2-.1-.5-.2-.2-.6h.6a3,3,0,0,1,1.5.2v.4h0c.3.2.5.4.5.7h.4a.6.6,0,0,1,.6,0h2.3a1.7,1.7,0,0,0,.1-.7c-.4,0-.8-.1-1.1.2s-.1-.2-.2-.3-.5-.3-.5-.1-.9.6-1.3.4-.4-.7-.2-1.1l.5-.3c0,.5.2.8.8.5s1,0,1.5,0,.5.2.6-.1.4-.3.6-.1,0,.4-.1.6h-.2a1.3,1.3,0,0,1,.7.9h.4c-.1-.5.4-.6.5-.9a.8.8,0,0,1-.3.9h1a.1.1,0,0,1-.1-.1l.3-.2c.1-.1.2-.1.1.2h3.1l10.2.2c0-.3-.1-.7.6-.4s-.2.3-.4.4h1.6l6,.2h5.7c.2-.3.6-.3,1.4-.1h.2c0-.1.1-.2.2-.3l.3-.2c.1.3.2.5.6.3s.8,0,1.2,0,.4.1.5-.1.3-.2.5-.1,0,.3-.1.4h1.1l4.1.2h.2l3.5.2h2.5a58.5,58.5,0,0,1,5.9.4c1,.2,2.1,0,3.2.1s4.9.3,7.4.2h0a3.4,3.4,0,0,1,2.2-.1c0,.1.1.1.2.1h1.4c-.2-.3-.6-.3-.9-.6s.4-.7.9-.6,1.3.5,1.2,1.2l.6-.2c.5-.6.6-.6.9,0l.9.2h0c.2-.2.3-.2.5,0h1.5c2,.2,4,.1,6.1.1l-.5-.2c.6-.2.5.1.5.2H213l-.9.2c.1.1.2.2.1.3a.9.9,0,0,1-.7-.1h0l-.8.2h1.6l.5-.2a48.6,48.6,0,0,1,5.4,0l.5.2h.6a1.4,1.4,0,0,1,1.1-.3h20v-.2H239a2.2,2.2,0,0,1,1.1-.1h.3c0-.5-.6-.5-.9-.3a2.5,2.5,0,0,1-2.4-.1h-.3a3.2,3.2,0,0,0-1.7.3c-.5-.6-1.1-.4-1.6-.1h-.3c-2.7-.6-5.5-.2-8.5-.4a2.5,2.5,0,0,1,1.4-.2c3.5,0,7,.1,10.5,0h7.2l.4.3-2.9.4h12.6l.4.2-2.3.2h2.7a13.1,13.1,0,0,0,2.8,0c.9,0,.9,0,.4.6h0c0,.1,0,.2-.2.3l-.5.2H278l.5-.2h5.4l.5.2h.6c.3-.3.7-.2,1.1-.2h20c.2-.8-.6-.8-.9-.7a2.5,2.5,0,0,1-2.4,0h-.3a2.8,2.8,0,0,0-1.8.4c-.4-.6-1-.4-1.5-.1h-.3c-2.7-.6-5.5-.2-8.5-.4a2.5,2.5,0,0,1,1.4-.2c3.5,0,7,.1,10.5,0h7.2l.4.3-2.9.3v.3h3.5a20.5,20.5,0,0,0,3.5-.1c1.2.1,1.2.1.6,1.1h0a.4.4,0,0,1-.4.4l-1.1.6h0l-.4.4h2.5c.8.3,2.4-.1,3.3-.1h1.7a.1.1,0,0,1,.1.1h-.1l-.9.2h-.4a28.4,28.4,0,0,0,4.2.5,4.9,4.9,0,0,1-2.5.4c.1.2.3.2.6.3a8.6,8.6,0,0,1-2.8.3c0,.1.2.2.3.3h9.1l6.1.2h2.8a2.1,2.1,0,0,1,2.2,0h3.5c.8-.7,2.1-.6,3.4-.6h0a14.3,14.3,0,0,1,2.6-.3c-.1-.1.1-.2.1-.3s.2.2.1.3l1.2-.2a1.9,1.9,0,0,1-.4,1.5h3.9l3.8.2h.7c.4,0,.7,0,.7.1h-1.3a1.1,1.1,0,0,1-.6,0H355c.3,0,.3,0-.1.1H349l-.2.2H352a.1.1,0,0,1-.1.1h4.2l3.5.2h3.1c.2,0,.4,0,.4.1h.5a1.6,1.6,0,0,1-1.3.4l.5-.3h-2.5a9.6,9.6,0,0,0-2.4,0h1.8c0,.1-.5.1-1,.1h0c.7.1.6.1.1.2h-1.9l-.2.3c1,0,.9,0,.9.1h-.7c.5,0,1.4,0,.9.1a1.6,1.6,0,0,1-.7,0h-.5c-.1,0-.1.1-.2.2s.8,0,.2.1h.7c.1,0,.2-.1.3,0h1.8a24.2,24.2,0,0,0-2.7,0h-.5c0,.1-.1.2-.2.3a10.1,10.1,0,0,0,1.7.3h.4c.4.1.7.2.8.4,1.6-.8,3.2-.2,5.1-.6a.4.4,0,0,0,.2.6c2.1.1,3.3-.4,5,.2-.7.7-3,.6-4.8.8h1.5c.5,0,.7.2.3.2a2.8,2.8,0,0,1-1.3,0h-.5c0,.1,0,.1.1.2h.6c.1.1-.3.1-.5.1h-.1c.1.2.4.3.6.4s-4.2-.3-3.7.8,1.8.2,2,.6-2.9.3-3.4.8h.7c1.5,0,2.9.1,4.5,0h.6c.2.1-.3.1-.3.1s-.5.1-1.2,0a12.2,12.2,0,0,1-2.7,0h-2.3c0,.1.4.1.5.1h-.3a4.1,4.1,0,0,1-1.1,0H360c0,.1-.4.1-.7.1h-2.2c.5,0,0,.1-.2.1h1.2c.2,0,.1.1,0,.1h-1.4a.2.2,0,0,1,.2.2h2a2.2,2.2,0,0,1,.8,0h-.2a10.1,10.1,0,0,1,3.2,1h.3a2.3,2.3,0,0,1-1.4.5c1.3.6,1.9,1.7.4,2.3s1.9.5,1.7,1.3,2.1-.1,2.2-.7.2.8-.1,1.3,1,.4,1.8.3S368.1,70.9,367.8,71.4Zm-7.4-8h0ZM350.8,55ZM90.1,46.7Zm6.7-.2Zm16.2-.2Zm1,.1Zm-52.6.1Zm-8.7,0Zm-3.3.2Zm-62.5,3.9Zm-.1,1.7Zm1.4.5Zm.4.8Zm.9-4.4Zm-.6,4.6Zm0-.5Zm.9-1.1Zm-2.5,31.2h0Zm367.1,3.5h0Zm-5-.7h0Zm-3.9,0h0Zm4.5-.7h0Zm5.4-1.6Zm-2.8.7h0Zm-5.8-3.8Zm-5.6,1Zm1.8.8ZM129.5,47.5h0Zm-2.3-.9h.7A1.6,1.6,0,0,0,127.2,46.6Zm4,.8h0a2.9,2.9,0,0,1,1.6.2h1.7l-.6-.4h-2.6A.3.3,0,0,0,131.2,47.4Zm16.5-.5H135.2a.8.8,0,0,1,.4.4h.9c.2-.3.3-.3.5,0a8.1,8.1,0,0,1,2.2,0h7.3a7.4,7.4,0,0,0,1.5,0,4.9,4.9,0,0,1,1.7,0h-2Zm-15.6.8Zm6.2-.2h-1.1a.1.1,0,0,0,.1.1h1Zm0,0Zm-.6.1h0Zm-2.1,0,.6-.2h-.6Zm3,.1h0Zm-9.6-.2h-5.3l3,.2H129Zm-7.4-.1h0Zm35.6.3Zm175.2,7.5h0Zm.8.5Zm0-.7Zm6.5-.1Zm12.2,1ZM340.5,80.8h0ZM341,84Zm-.2.1h0Zm1.6,3.9h3c-.5,0-1,0-.7.1h-2.3ZM297.7,54.6Zm14.1,0h-.2l.4.3h1.1c-.3,0-.5,0-.3-.1h.5c.1,0,.1,0,.1-.1Zm9.4,0,.4-.2h-.4Zm18.3.8Zm-16.8-1.3h-3.6a.1.1,0,0,1,.1.1h2.1c0,.1.3.1.4.1h.2ZM176.8,48ZM359.7,63.2a6.7,6.7,0,0,0-2,0Zm-14.5-8.1.8-.2h-5.8Zm.1-.6h.9c-.1-.1-.4-.2-.4-.4h-.1C345.7,54.3,345.8,54.5,345.3,54.5Zm-6.2,0h-.2a.1.1,0,0,1-.1.1h.3ZM325.9,54l1.8.3H329l6.7.2h-7l.8.2h8.2l-1.1-.6H325.9Zm-6.2-.1Zm-60.2-3.1Zm-10.3-1.6h2.1c.2-.5-.5-.5-.7-.4a3,3,0,0,1-1.3.1A.4.4,0,0,1,249.2,49.2Zm-3-.4h0Zm-48.4-.3Zm-28.9-.9h-4.1v.2h4.2Zm-2.4-.3a.1.1,0,0,0-.1.1.4.4,0,0,1,.5,0h-.4Zm.8,0c-.1,0-.1,0-.1.1h.2C167.4,47.3,167.4,47.3,167.3,47.3Zm-.9.1a.1.1,0,0,0,.1.1h-.1Zm.1-.2h.4C166.8,47,166.6,47.1,166.5,47.2Zm-1.6.1h0Zm-14.7-.5h0c.2.1.3.1.1.1H153l6.7.2h-9.2a.1.1,0,0,0-.1.1h12.8c-.3,0-.8,0-.7-.1h.7c-1.2,0-1.4-.1-1.3-.2H150.2ZM135,46.6a.1.1,0,0,0,.1.1h4.5a16.2,16.2,0,0,1-2.2,0H135Zm-3.6-.1a3.5,3.5,0,0,1-.1.6h2.4a.1.1,0,0,0-.1-.1h-.5c.4-.1.5-.2.6-.4H133l-.2.3h.4c0,.1-.2.1-.4.1h0c-.2.1-.3,0-.8-.2l.6-.2h-1.2Zm-1,0h.2c0-.1.1-.1.1-.2Zm-4.3.1H114.7C118.4,46.6,122.3,46.6,126.1,46.6Zm2.2.3-.2-.2h.2Zm-31,0v.2h0Zm-4.7.2h0Zm-2.8,0Zm-4.7.1h0ZM83.5,47Zm-3.1.2Zm-.8.1a.1.1,0,0,1,.1.1h-.1Zm-2.1,0h.9c0-.1,0-.1.1-.1Zm-32.3-.7Zm-.2,0ZM18.2,53.3h0Zm-.5,1.6Zm-.2-1.5Zm8.3-1.5Zm.2-.2h0ZM28.3,56Zm13.1-9.4Zm-.3.6h0Zm-6.5,0Zm-5.4.7Zm-.2-.5h0Zm-.1.4h0Zm-.6-.4Zm-2.5,2.1Zm0-.4Zm-.1-.4h0Zm-.1.5Zm-.5.6Zm-.7.9h0Zm-1.1,2Zm-.8-2.1h0ZM22,49.1Zm-.5.8Zm-.5.8h0Zm-1.3-3.2Zm-.2,2Zm-.2.1ZM19,47.5h0Zm-.4,1.4Zm-.9.7Zm-.8,3h0Zm-.1.4ZM-8.7,71.1h0ZM8.9,55.3ZM6.6,55h0Zm.1,0Zm0,1.2ZM6.1,55Zm-.6,1.9Zm-.3.8h0ZM4.9,57Zm-.8-.5Zm-.8,1.4Zm-2.7-1Zm-2-1h0Zm3.8.5h0ZM.1,51.5Zm-2,5.5Zm-.9-.6Zm-.3,1.1Zm-.8-.6Zm.2-5.2Zm15.6,6.1h0Zm.2,0Zm-1.4-.5ZM16.6,52Zm-.4-.1h0Zm-.1-2.7Zm-1.1.5Zm-.1,1.2Zm-.1-.2Zm-.7,4.2Zm-.3-4.1h0Zm-1.1.7h0Zm-.2-.2Zm-.7.2Zm-.6.4h0ZM9.7,53.2h0Zm-.1-4.9Zm-.5,3.2Zm-1.9,2h0Zm-.1-5ZM6.9,53Zm-.3-2.1h0Zm-.5.9h0Zm-.4-.4Zm-1.3,0ZM4.2,48Zm-.3-.1h0Zm-.2.7Zm-.4.5Zm-2,2.5ZM-1.3,55h0Zm-.4-5.6Zm-.2,3.3ZM-4.2,51h0Zm-.4.1Zm0,.4Zm0-2.5h0Zm-.8.4h0Zm-1.2,1.2Zm-.5,1.8Zm-.2-.7Zm-1.4,3.7Zm-1.5,1Zm-.1,27h0Zm.5,0Zm1.2-5.1h-2.6a8.7,8.7,0,0,0,2.3.1Zm1.6.1h0Zm2.4.1c-.2-.1-.4-.2-.4-.4H-6a.8.8,0,0,0-.1.4Zm.1,9.9H1c-.3-.4-1.3-.5-1.5-1h-1a3.4,3.4,0,0,1-3.4.1c-.5-.2-1.7-.2-1.3.9h1.7ZM3.1,98.6H-4c-.2.8.6.8.9.6a2.5,2.5,0,0,1,2.4.1h.3A3.6,3.6,0,0,0,1.4,99h.1l1.4-.4C2.9,98.6,3,98.6,3.1,98.6Zm7.2-11.9h-1A.3.3,0,0,0,9,87h1.8C10.5,86.9,10.2,86.9,10.3,86.7ZM31,103.4h0Zm2.4,0h0Zm79.6.9h-.7a.1.1,0,0,1-.1.1Zm146.7-1.5h0Zm1,.6Zm11,.5h0Zm50.7-3.3h0Zm5-5.4h.1C327.6,95.2,327.6,95.2,327.4,95.2Zm15.9-8.9h0Zm6.7-1.4Zm-3.9,1Zm4.4-.9h0Zm1.3-.5Zm-6-2.2h.4C345.9,82.2,345.7,82.2,345.8,82.3Zm-1.7.7h0Zm-.3-.9h0Zm-.1-.2Zm2.2-2.5Zm-1.1-.9Zm5.1-8.2h0ZM361,71.9l-.3.4h.3C361.1,72.1,361,72,361,71.9ZM229.8,104.3,225,104A12.7,12.7,0,0,0,229.8,104.3Zm8,.6h.6l-.9-.4Zm-26.1-57ZM-6.2,88c1,.1.9-.2.7-.5S-6.2,87.8-6.2,88Zm-4.5.1v-.4h-.8C-11.2,87.8-11.4,88.1-10.7,88.1Zm47,16.6c.5.3.4-.2,1.2-.1S36.2,104.4,36.3,104.7ZM63,106v-.3C62.3,105.5,62.3,106.2,63,106Zm-1-.1c-.4,0-.6.2-.5.5h.7C62.4,106.1,62.1,106.1,62,105.9Zm-13.3.8c.1.3.3,0,.3-.2S48.7,106.6,48.7,106.7Zm-13,.2c.2.2.4.4,1.2.3S36.5,106.8,35.7,106.9Zm-9,.4c-.1-.1.1-.1.2-.1s-1.1-.2-.7.1Zm-34.8.1v.2h1.2C-7.2,107.5-7.8,107.1-8.1,107.4Zm42.3.3c.5.4,1.6-.1,0,0Zm-43.1.3c-.4.1-.4.4-1,.4s.9-.2,1.5-.1Zm-2.5.1c-.1.4,1.4.4,1.5,0S-10.5,108-11.4,108.1Zm17.3.4c-.2.1.9.3.7.1S6.1,108.4,5.9,108.5Zm-3.1.5c.2.3.7-.2,1.3,0S3,108.9,2.8,109Zm22-2.1h-.4c-.7,0-.5.4-1.2.3h-.4v.2l-.3.3h-.9a1.4,1.4,0,0,0,1.3.1l-.2.2c.6-.1.8.1.8.3a1.6,1.6,0,0,1,1.5.1c.3-.1,1.4,0,.7-.3a9.9,9.9,0,0,0,3.1-.2c-1.4-.3-3.1-.5-3.8-1.1Zm3.2-1.4c-.6.4.9.5-.5.6.4.4,2,.2,2.2.7s.8-.1.8-.3,2-.1,2.9.2.8-.4,1.3-.6a3,3,0,0,0,1.5.2l1-.4,3.1.5c-.6-.7-2.1-.7-3.4-.6v-.2a26.6,26.6,0,0,1-3-.2v.2h-.4C31.8,106.2,29.5,105.7,28,105.5Zm11.7,1.3c1.2.4,2.2.2,4.3.2.1-.2-.2-.3-.3-.5h-.4l.2-.2c-.3,0-.2-.1-.1-.1H40.2v.2H40C39.7,106.4,39.7,106.6,39.7,106.8Zm7.8-.4-.3-.2h0l-.3-.2v-.2c-.4.1-.5-.1-.5-.2s-2.6,0-2.5.7h.4l.3.2Zm11.8-1h-.4v-.2c-1-.2-2.3-.5-3,0v.2l-1,.2.2-.3h-.8v.2h-.3c-2.6,0-4.5-.5-6.1.2h.3a12,12,0,0,0,5,0c.5,0,.1.4.5.5a5.3,5.3,0,0,0,1.2-.3h1c.8,0,.5.4,1.3.3s1-.4,1.7-.3S58.8,105.7,59.3,105.4Zm6.7-.2.2-.2h.3c.3-.5-.9-.2-.7-.6a39.2,39.2,0,0,1-4.8.1c-.1.2-.7.2-1,.4h.4l-.7.2h-.1c.3.3.9.1,1.4.1l.4-.3v.2c1.3.2,2.4.1,2.5.5s.5-.3,1.2-.3h1Zm-28.8,1.4c-1.2-.6.1.6.3.1S37.3,106.6,37.2,106.6Zm-6,.8h-.5a8,8,0,0,0-1.8.4,11.1,11.1,0,0,0,4.5,0C33.1,107.3,32.3,107.3,31.2,107.4Zm-42.8-.9h0Zm82.5-2.2h0ZM-9,106.2h0Zm3.1,1.6v0Zm25.9-.6h0Zm9.6-2.1H28.4A4.8,4.8,0,0,0,29.6,105.1Zm36.8.1,1.1.2H66.4Zm-6.7,0-.2-.3C59.5,105,59.5,105.1,59.7,105.2Zm-.3-.7h-.2l.3.4c0-.1.2-.2.2-.3Zm-4.8,1-.2-.2C54.4,105.4,54.5,105.4,54.6,105.5Zm-6,.3h0Zm-5.3.6a2.9,2.9,0,0,0,1.1-.3Zm-9.9-1.2.5.4Zm-19.7-2.4h0Zm-21.3,3.8.7.4-.6-.7C-7.6,106.4-7.7,106.5-7.6,106.6Zm30.4.6a.3.3,0,0,0-.1-.2Zm0,0-.8.2Zm43.5-1.8v-.2l-1.5.2C65.3,105.4,66,105.6,66.3,105.4Zm-20.5-.8h.4l-.5-.2C45.6,104.4,45.7,104.5,45.8,104.6Zm-15,2.8a.6.6,0,0,0,.1-.4ZM-21.1,57.6c-.5-.1-.5-.5-1.4-.4A1.9,1.9,0,0,0-21.1,57.6Zm4.2.1v-.3h-.5v.3Zm-8.7,3.5h-.6v.2h.6Zm.5,7.6c1-.3-.8-1-1.3-.5S-25.3,68.5-25.1,68.8Zm2.3-2.6h0Zm-.8,6.5-.4-.3C-23.9,72.6-23.9,72.7-23.6,72.7Zm3.8.3h.2l-.3-.3A.4.4,0,0,0-19.8,73Zm122.7,32h.5c.1-.1.1-.3.3-.4l-.9.4ZM221.4,48.1h2.2A4.1,4.1,0,0,0,221.4,48.1Zm-42.3-.8c.2.1.3,0,.3-.1s-.1-.3-.3-.4l-.3.2A.3.3,0,0,0,179.1,47.3Zm-.7-2.5c-.3,0-.3.4-.3.6h.5C178.6,45.2,178.8,44.8,178.4,44.8ZM220,48.1c.1,0,.2,0,.2-.1h-.6C219.7,48.2,219.9,48.1,220,48.1Zm-41.2-2.7h0Zm-.3.8h0Zm-125-2h0Zm79.8.2v-.5l-.6.2A.7.7,0,0,0,133.3,44.4Zm.1.1h0C133.3,44.3,133.2,44.4,133.4,44.5Zm-2.4.1h.3A.2.2,0,0,0,131,44.6Zm.4.1h0Zm2,.3h0ZM50.8,43.9l.3.2C51,44,51.2,43.7,50.8,43.9Zm13.4,1Zm20.8.5c-.7-.3-.5.2-.6.5A1,1,0,0,0,85,45.4Zm-.3-.8h-.1c-.1,0-.1,0-.1.1h.2ZM287.1,49h2.2A3.3,3.3,0,0,0,287.1,49Zm-42.3-.8c.1,0,.3,0,.3-.2a.3.3,0,0,0-.3-.3c-.1,0-.3,0-.3.2S244.6,48.1,244.8,48.2Zm-.7-2.5c-.3,0-.3.3-.4.6h.6C244.3,46.1,244.5,45.7,244.1,45.7ZM285.7,49h-.4C285.4,49.1,285.6,49,285.7,49Zm-41.3-2.7h0Zm-.2.8h0Zm-125-2h0Zm77.2,1.8c.4.2,1.1.5,1.2-.4s.5-.4.6,0,.1.5.2.4,1.3,0,1.6-.6.5-.3.2-.6-.4,0-.6.2-.3.4-.6.1a2.2,2.2,0,0,0-1.6,0c-.5.3-.7-.1-.8-.5l-.4.3C196,46.2,195.8,46.7,196.4,46.9Zm-1,.4.3-1.1c-1.6-.5-2-.3-1.9,1.2A4.2,4.2,0,0,1,195.4,47.3Zm3.3.1a1.7,1.7,0,0,0-1,.3C198.4,48,198.4,48,198.7,47.4Zm2.8-.9c-.2.3-.7.4-.5.9A.8.8,0,0,0,201.5,46.5ZM199,45.2v-.5l-.6.3C198.5,45.2,198.7,45.2,199,45.2Zm3.4,2c.1-.2.1-.2,0-.1l-.3.2h.2ZM199,45.3h0Zm-2.4.2h.3Q196.8,45.2,196.6,45.5Zm.4.1h0Zm2,.3h0Zm-82.5-1.2.3.3C116.7,44.9,116.9,44.5,116.5,44.7Zm13.4,1.1Zm20.4-.3c0-.1,0-.1-.1-.1h.1ZM22.9,103H20.7A3.3,3.3,0,0,0,22.9,103Zm43,3.3c.4,0,.4-.3.4-.6h-.6C65.8,105.9,65.6,106.3,65.9,106.3Zm-41.1-3.2c-.1-.2-.3-.1-.5-.1h-.1c0,.1.2.1.3.1Zm40.8,2.6h0Zm125.2,1.2h0Zm-77.1-1.8c-.4-.2-1.2-.5-1.3.4s-.4.4-.6,0-.1-.5-.2-.4-1.2,0-1.6.6-.5.3-.1.6.4,0,.5-.2.4-.4.7-.1a1.9,1.9,0,0,0,1.5,0c.6-.3.7.1.8.5l.4-.3C114,105.8,114.2,105.3,113.7,105.1Zm1-.4-.3,1.1c1.5.5,2,.3,1.8-1.2A3.8,3.8,0,0,1,114.7,104.7Zm-6.1.8c.1-.3.7-.4.4-.9S108.4,105.1,108.6,105.5Zm2.5,1.3v.5l.5-.3C111.5,106.8,111.3,106.8,111.1,106.8Zm-3.5-2c-.1.2,0,.2.1.1l.2-.2a.1.1,0,0,0-.1-.1Zm3.4,1.9h-.2c-.1,0-.1,0-.1.1h.3Zm2.4-.2h-.3Q113.3,106.8,113.4,106.5Zm-.4-.1h0Zm-2-.3h0Zm82.6,1.2-.3-.3C193.4,107.1,193.1,107.5,193.6,107.3Zm-18.4-2.4c-.1-.1-.4.2-.3.3s.5,1.2,1.4,1.3-.3-1.2.6-1.5S175.7,105.4,175.2,104.9Zm-15.9.8c.8.3.6-.1.6-.5S159.5,105.5,159.3,105.7Zm.4.8h.1c0-.1.1-.1,0-.1h-.1Zm-3.9-59.1h0Zm-99.1-.7h0Zm40.8-.5h0Zm-6.4,0h0Zm17.2.5h0Zm223.5,7.9h0Zm28.5,1.8h.5C360.5,56.3,360.2,56.3,360.3,56.4Zm-9,29.8h0ZM347.9,82c-.1.1.3.1.5.1h-.5Zm9.6,2h0Zm-3.2-4.2c0,.1.6.1.9.1s.6,0,.6-.1h-1.5Zm-1.4,6.3h0ZM351,82h0Zm-1.2-.1h0Z" fill="#f6eb16"/>
      </g>
    </g>
    <g>
      <circle cx="101.2" cy="175.5" r="3" fill="#f6eb16"/>
      <circle cx="102.5" cy="192.1" r="2.8" fill="#f6eb16"/>
    </g>
    <rect x="93.6" y="161.4" width="147.7" height="1.82" fill="#f6eb16"/>
    <rect x="15.7" y="267.8" width="95.7" height="14.48" fill="#f6eb16"/>
    <g>
      <path d="M19.4,212.5l.6-.2a.9.9,0,0,0,.3-.7.9.9,0,0,0-.3-.6l-.6-.3a.9.9,0,0,0-.7.3,1.4,1.4,0,0,0-.2.6,1.4,1.4,0,0,0,.2.7Zm0,4.6a18.4,18.4,0,0,1-2.8-2.9,4.5,4.5,0,0,1-.9-2.5,3.6,3.6,0,0,1,3.7-3.7,3.5,3.5,0,0,1,2.5,1,3.7,3.7,0,0,1,1.1,2.7,4.5,4.5,0,0,1-.9,2.5A17.1,17.1,0,0,1,19.4,217.1Z" fill="#f6eb16"/>
      <circle cx="19.1" cy="232.3" r="3.4" fill="#f6eb16"/>
      <circle cx="19.1" cy="251.1" r="3.4" fill="#f6eb16"/>
    </g>
    <rect x="129.2" y="298.7" width="3.5" height="21.97" fill="#fff"/>
    <g>
      <circle cx="19.3" cy="296.6" r="3.8" fill="#f6eb16"/>
      <circle cx="19.3" cy="321.2" r="3.8" fill="#f6eb16"/>
    </g>
    <g>
      <circle cx="305.7" cy="29.4" r="7.8" fill="#f6eb16"/>
      <circle cx="302.8" cy="26.5" r="7.8" fill="none" stroke="#fff" stroke-linecap="round" stroke-linejoin="round" stroke-width="2"/>
    </g>
  </g>
</svg>
