<svg xmlns="http://www.w3.org/2000/svg" id="Layer_1" viewBox="0 0 335 335">
    <defs>
        <linearGradient id="linear-gradient" x1="169.7" x2="168.9" y1="13.7" y2="178.5"
          gradientUnits="userSpaceOnUse">
            <stop offset="0" stop-color="#0f0" />
            <stop offset="1" />
        </linearGradient>
        <path>
            .cls-1,.cls-2{fill:#fff}.cls-2{font-family:Anton-Regular,Anton;font-size:17px}.cls-4{fill:#0f0}.cls-6{fill:red}
        </path>
    </defs>
    <path d="M0 0h335v335H0z" />
    <rect width="12.5" height="2.8" x="25.6" y="192" class="cls-4" rx="1.4" ry="1.4" style="fill:#0f0;" />
    <rect width="12.5" height="2.8" x="235.6" y="283.1" class="cls-4" rx="1.4" ry="1.4" style="fill:#0f0;" />
    <rect width="12.5" height="2.8" x="137.7" y="283.1" class="cls-4" rx="1.4" ry="1.4" style="fill:#0f0;" />
    <path
      d="M167.5 229.8a7.1 7.1 0 0 0-5.7 11.3l5.7 10 5.7-10a7.1 7.1 0 0 0-5.7-11.3Zm0 10.4a3.1 3.1 0 1 1 0-6.3 3.1 3.1 0 0 1 0 6.3Z"
      class="cls-6" style="fill:red;" />
    <path fill="url(#linear-gradient)"
      d="M335 0v116a182.2 182.2 0 0 1-146.7 75C86.5 191 4 106 4 1V0h331Z" />
    <path
      d="M1.8 122.2c.1-18 13.4-31.2 31-31 16.2.1 29.4 14.7 29.2 32.4a30.9 30.9 0 0 1-30.6 31.2c-17-.2-29.7-14.2-29.6-32.6Z"
      class="cls-6" style="fill:red;" />
    <g id="PRINT">
        <path
          d="M29.8 12c0 .5-.2 1-.6 1.4l-6.8 6.8-7.2-4.2v-4.1a2.1 2.1 0 1 1 4.2 0V17l6.7-6.7a2.1 2.1 0 0 1 3.7 1.5ZM29 30.7a2.1 2.1 0 0 1-2.3.5l-.7-.5-2.2-2.2-4.5-4.5v5.2c0 1.2-1 2.2-2 2.2s-2.2-1-2.2-2.2v-4l7.2-4.2 4.5 4.4 2.2 2.3c.9.8.9 2.2 0 3Zm-7-10.3-.2-.3-1.9-1-4.8-2.9L11 14a.5.5 0 0 0-.6.2V26.8c0 .3.1.5.4.5h.2l4.2-2.4 6.7-3.9.2-.2v-.3Zm-10.2-5 3.2 1.8 5.2 3 .1.1v.3l-.1.2-5.2 3-3.2 1.9c-.2 0-.4 0-.5-.2V15.8c0-.2 0-.4.3-.4h.2Z"
          class="cls-1" style="fill:#fff;" />
        <path
          d="M19 20.7a.3.3 0 0 1-.1.2l-4 2.2-2.3 1.4a.3.3 0 0 1-.5-.2V17a.3.3 0 0 1 .5-.3l2.4 1.4 3.9 2.3.1.1a.3.3 0 0 1 0 .2Zm45.9-.6-6-3-3.7-1.8a.4.4 0 0 0-.6.2v.1l.1 10c0 .2.2.3.5.3a.5.5 0 0 0 .2 0l.2-.2L59 24l2-1.1 3.9-2 .1-.2v-.3a.4.4 0 0 0-.1-.2Zm-6 3-2.8 1.6c-.2 0-.4 0-.5-.2a.3.3 0 0 1 0-.1l-.1-7.7c0-.2.2-.3.3-.3h.2l2.8 1.5 1 .5 3.7 1.8.1.2v.1l-.1.2-4.6 2.5Z"
          class="cls-1" style="fill:#fff;" />
        <path
          d="M62.3 20.5a.2.2 0 0 1 0 .2l-3.5 1.8-2.1 1.1a.3.3 0 0 1-.4-.2v-5.7a.3.3 0 0 1 .3-.2l2.1 1 3.5 1.8a.2.2 0 0 1 .1.1.2.2 0 0 1 0 .1Zm-23-5.1H34v2.9l.1 7.4h2.5v-3.3h2.7c2.5 0 4.3-1.5 4.3-3.6 0-2-2-3.5-4.4-3.4Zm-.2 5h-2.5v-3h2.5c1.2 0 2 .6 2 1.4 0 1-.8 1.5-2 1.5Zm14.3 5.4-8.2.1-.1-10.3h2.5v8.3l5.8-.1v2zm16.8-4v3.8h-2.4V22L63 15.4h3l2.8 4.4 3-4.5h2.7l-4.4 6.6zm15.3 4.3H84l-4.5-4.7-1.8 1.7v3.1h-1.2L76.2 16h1.3l.1 5.7 5.8-5.8H85l-4.8 4.8 5.2 5.5zM92 15.5c-3.2 0-5.9 2.6-5.8 5.5 0 2.8 2.7 5.3 6 5.2 3.1 0 5.8-2.5 5.7-5.4 0-2.9-2.7-5.3-5.9-5.2Zm.4 9.6a4.6 4.6 0 0 1-4.9-4.2 4.6 4.6 0 0 1 4.2-4.3 4.6 4.6 0 0 1 5 4.2 4.6 4.6 0 0 1-4.3 4.3Zm15.8-1.9c0 1.6-1.3 3-4 3-1.7 0-3.3-.5-4.6-1.6l.8-.9c1 1 2.4 1.5 3.8 1.5 1.8 0 2.7-1 2.7-1.9 0-1-1.1-1.5-3.1-1.9-2.4-.4-3.8-1-3.8-2.9 0-1.6 1.6-3 3.8-3a6 6 0 0 1 4 1.5l-.8.9a5 5 0 0 0-3.3-1.3c-1.4 0-2.4.9-2.4 1.8 0 1.1 1.1 1.5 3 1.9 2.3.4 3.9 1 3.9 2.9Zm13.7 2.9h-1.3l-.1-7.8-4.2 7.2-4.4-7 .1 7.7h-1.3l-.1-10.3h1.3l4.3 7.1 4.2-7.2h1.3L122 26zm8.2-10.6c-3.2 0-5.9 2.6-5.9 5.5 0 2.8 2.8 5.3 6 5.2 3.2 0 5.8-2.5 5.8-5.4 0-2.9-2.8-5.3-6-5.2Zm.4 9.6a4.6 4.6 0 0 1-5-4.2 4.6 4.6 0 0 1 9.2 0 4.6 4.6 0 0 1-4.2 4.2Zm15.8-1.9c0 1.6-1.4 3-4 3-1.7 0-3.3-.5-4.6-1.6l.8-.9c1 1 2.4 1.5 3.8 1.5 1.8 0 2.7-1 2.6-1.9 0-1-1-1.5-3-1.9-2.4-.4-3.9-1-3.9-2.9 0-1.6 1.6-3 3.8-3a6 6 0 0 1 4 1.5l-.7.9a5 5 0 0 0-3.3-1.3c-1.4 0-2.5.9-2.5 1.8 0 1.1 1.2 1.5 3.2 1.9 2.2.4 3.7 1 3.8 2.9Z"
          class="cls-1" style="fill:#fff;" />
    </g>
    <path
      d="m316.6 82.2-2.6 8.4c-1.8 5.6-3.6 11.3-5.7 16.8a22.8 22.8 0 0 0-1.5 14.4c2.5 9.5.6 18.8-1 28.2-.4 1.7-1 3.5-.8 5.1.4 3-1.4 4.4-3.6 5.4-1.5.7-1.8 1.6-1.5 3l1.4 7c.6 2.7 0 4-2.4 5.3-3.4 1.7-7 1.4-10.5 1.2-.6 0-1.5-1.2-1.5-1.9 0-1.6.4-3.1.6-4.7.4-2 .6-4 1.1-6 .4-1.2 1.3-2.4 2-3.9-2-1.7-.8-3.4.4-5.4.7-1 .6-2.5.8-3.8 0-.5-.3-1-.2-1.5 1.7-5.2-1-10.2-.8-15.9-1.3.8-2.3 1.3-3.2 2-4 3.3-10 1.5-10.9-3.5-1.5-8.5-2.6-17-4-25.6l-.8-7.7a61.3 61.3 0 0 1 3.1-28c1-2.5.4-5.7.2-8.5-.4-3.8-.9-7.6.4-11.3v-1c.3-2.4.4-4.7.8-7 .4-2.2-.2-3.8-2.4-4-2.9-.2-3.3-2-3.2-4.2 0-1.5-.6-2.2-1.9-2.7-1.7-.7-3.6-1.2-5.2-2.2-1.8-1-3.4-2.6-5.1-4-.7-.5-1.4-1.1-2.2-1.5a26.6 26.6 0 0 1-13.2-12.3c-.6-1-2.2-1.7-3.4-2.3-1-.5-2.2-.6-3.3-1-1.2 2-1.3 2-3-.7-1-.1-2 0-2.5-.4-.3-.3-.2-1.7.2-2.2 1.4-1.7 2.4-4.2 5.4-4 1 .1 2-.6 3.1-.7 2.2-.3 3.3 1.2 4.7 2.6 2.5 2.6 5.6 4.7 9.2 5.4 5 1 8.2 4.3 11.6 7.6.8.8 2 1.4 3 2 4.4 2.2 9 3.3 13.9 4 2.6.5 5 2.2 7.5 3.2 1.3.5 2.8.8 4.2.9 2.7 0 5.4-.5 8.1-.3 3.3.1 4.3-.9 4-4-.3-2-1.2-4.4 1.8-5.3.3-.1.3-1 .5-1.4 1-2 1.8-4.2 3-6 1.6-2.2 3.7-4 6.8-3.5h1.3c5.2-.4 7.3.7 9.6 5.4.4.9.5 2 .3 3-.4 2.6-1.6 5-1.6 7.5 0 2.2.3 4.7-1.4 5.8-2.4 1.6-3.2 4.2-5.1 6.1l-.5.8 3.7 4.1a465.4 465.4 0 0 1 7.8 10c.4.6.6 1.4.7 2.2l2.3 17.5c.3 2.6 0 2.9-2.8 2.8-.1 3-.2 6-.5 9 0 1.8-.2 3.5-.6 5.2-1.3 4.8-3.9 5.5-7.2 2l-5.3-6L312 74l-.5.4 5.2 7.8Zm-5.2-8.4-.5-.3-.3.2.5.4.3-.3Z" />
    <path
      d="m133.7 293.1-.9 1.5-.2 1h.8c.9 0 1.7 0 2.5-.3.5-.2 1 0 1.5 0 .3 0 .5 0 .7-.3.3-.4.8-.7 1.2-1l-.5-2.3c0-.6.2-.8.6-1l1.2-.5h.5l1.5.3.8.3-.3.6c-.2.3-.2.5 0 .8 0 .1.2.3.1.4-.3.5 0 .8.2 1l-.3 1.1c0 .2.5.3.7.4l.6.4c.6.7 1 1.6 1 2.6v1c0 .2.2.5-.2.7v1.5c.1.6-.1 1.1-.6 1.5-.2.2-.4.3-.6.1l-1.3-.9-.3-.1.2.2c.7.4.7 1 .4 1.6l-.6 1-.4.9c.8.2 1.4.6 1.7 1.2a.5.5 0 0 0 .2.2c1.5.7 2.3 2 3.5 3 1.9 1.8 3.2 4 4.8 6l1 1.1 1.1.8c-.3.5 0 .8.4 1 .6.6 1.3.9 2.1 1 .4 0 .8.3 1.2.6.2.2 0 .6-.4.8-.8.3-1.6.2-2.4 0-.7 0-1.3-.2-2 .1-.4.2-.8 0-1.3 0l-.4-.4c.2-.8-.4-1.4-.7-2a10.3 10.3 0 0 0-2-2.7c-.6-.5-.8-1.2-1.3-1.7l-1.4-1.4c-1.4-1-2.7-1.9-4.5-2.4l.8-.1h.7a5 5 0 0 0-4.4 1l-3.2 2.6c-2 1.7-4.4 2.6-6.7 3.6-.5.1-.9.4-1.3.7l-2.4 1.1c-.2.1-.6-.2-.9.2l-.4.6c-1-.1-1.5.6-2.2 1.4-.2.2-.7.3-1 .4l-.5-.4c-.3-.7 0-2 .6-2.6l.9-1c.2-.4.5-.6 1-.4.4.1.8.4 1.3 0-.6-.7-.6-.7.3-1l1.2-.9 2.6-1.4h.3c1 .1 2-.4 2.7-.9.6-.3 1-.9 1.5-1.4l1.6-2.3 1-1.4c.1-.5 0-1 .2-1.5v-.5c0-.6.3-1 .9-1.3 0 0 .2-.2.1-.3-.2-.7.4-1.3.5-2 0-.4.2-.8.1-1.1l-.3-2.1c-.2-1-1-1.3-1.5-1.9h-.2c-.7.2-1.4 0-2-.1l-1.9-.3c-.7-.1-1-.6-.7-1.3.6-1.5 1.7-2.7 2.5-4l.9 1Z"
      class="cls-4" style="fill:#0f0;" />
    <path d="m133.7 293.1-.8-1c0-.3-.2-.7-.1-1 0-1.2 1-2 2-2s1.9 1 1.9 2c0 1.6-1.2 2.6-2.8 2h-.2Z"
      class="cls-6" style="fill:red;" />
    <path
      d="M245 292.3c.4.3.3.8 0 1.2l-1.5 3-.3.6-1.4.2a1 1 0 0 0-.5.1c-1 .9-2 .3-3-.2-.1 0-.2-.4-.1-.5 0-.3.2-.5.3-.8.5-.8.5-2-.1-2.7a2 2 0 0 0-1-.5c-.5-.2-1-.1-1.5 0-.4 0-.6.1-.6.5 0 .3-.2.5-.3.8-.2.4-.2.8-.6 1l-.1.3c0 .5 0 1 .2 1.5 0 .2.2.4.4.6.4.2.3.4 0 .7-.3.4-.7.6-1.1.8-.7.3-1 1.4-.8 2.3.4 1.3.6 2.6.4 4a.7.7 0 0 1-.2.4 40.4 40.4 0 0 1-2 1.4c-.7-.2-1 .5-1.4.6v.4l.2.4c.2.2.4.6.6.6l1.2-.6 1.7-1.2c.2-.1.4-.3.7 0 .3.4.6.7.4 1.2l-.4.8v.2c-.6.1-.6.8-1 1.1l-2.3 2.6c-.3.4-.4 1-.8 1.5-.8.8-.8 1.6-.1 2.5.4.5.7 1.2 1 1.8l.4.8c.2.5.1.8-.4 1l-1.2 1c-.2.1-.3.4-.4.6-.2.5 0 .8.5.7.6 0 1.1-.2 1.6-.5l1.6-.8c.8-.4.9-1.3.3-2-.3-.3-.5-.8-.6-1.2-.1-.6 0-1.3-.2-2-.1-.3 0-.4.2-.6 1.1-1 2.7-1.2 3.8-2.3l-.1-.3v-.1l.6.5 1 .8 1 1 .4.4.4.1c.9.2 1.6.6 2 1.4.5.7 1.2.7 2 .8l5.8 1.3c.3 0 .7.2 1 .4 1 .5 1.5 1.3 1.6 2.4l.2 1.1c.2.6.5.6 1 .4.7-.4 1-1.3.9-2.3a99.9 99.9 0 0 0-.3-2c0-.4-.4-.6-.8-.6a13.8 13.8 0 0 1-4.5-2c-1-.7-2.1-1-3.4-1-.4 0-1 .2-1.2-.4l-.2-.6c0-.3 0-.5-.2-.7a114.1 114.1 0 0 1-2.2-3.2c-.1-.1 0-.3 0-.4l-.5-2.7c-.1-.5-.4-1-.3-1.5l-.1-.5c-.5-.8-.5-1.6-.4-2.5l.1-1 .1-.6c.2-.4.4-.7.1-1l.3-.4c1.7-.3 3-1.4 4-2.6.6-.6.8-1.6 1-2.5l.7-2.4.5-1.3-.5.2-1.7.3v.2Z"
      class="cls-4" style="fill:#0f0;" />
    <path
      d="M244.9 292.1c.6 0 1.1-.2 1.7-.3l.5-.2c.4-.6.7-1.3.7-2 0-1.4-1-2.5-2.3-2.5-1.3 0-2.4 1-2.4 2.4 0 .5.2 1 .3 1.4l.2.3.6.6.7.3Z"
      class="cls-6" style="fill:red;" />
    <text class="cls-2" transform="translate(253.5 182.7)" style="fill:#fff;font-family:Anton-Regular,Anton;font-size:17px;" >
        <tspan x="0" y="0">&gt;&gt;&gt;</tspan>
    </text>
    <text class="cls-2" transform="translate(248.5 220.7)" style="fill:#fff;font-family:Anton-Regular,Anton;font-size:17px;" >
        <tspan x="0" y="0">&gt;&gt;&gt;</tspan>
    </text>
    <rect width="12.5" height="2.8" x="295.1" y="192" class="cls-4" rx="1.4" ry="1.4" style="fill:#0f0;" />
    <path fill="none" stroke="red" stroke-miterlimit="10" d="M9 254.6h316.8v70.3H9z" />
    <path d="M275 88.5v15c-7 0-12.6 5.7-12.6 12.6H72.6c0-7-5.6-12.5-12.5-12.5v-15h214.8Z"
      class="cls-6" style="fill:red;" />
</svg>