<svg xmlns="http://www.w3.org/2000/svg" width="335" height="335">
  <defs>
    <radialGradient id="a" cx="1513.9" cy="-128.4" r="13.5" fx="1513.9" fy="-128.4" gradientTransform="matrix(1.661 -.3622 -.094 -.389 -2414.1 759.2)" gradientUnits="userSpaceOnUse">
      <stop offset="0" stop-color="#fff"/>
      <stop offset=".1" stop-color="#d4d4d4"/>
      <stop offset=".3" stop-color="#969696"/>
      <stop offset=".5" stop-color="#626261"/>
      <stop offset=".6" stop-color="#3a3a39"/>
      <stop offset=".8" stop-color="#1c1c1c"/>
      <stop offset=".9" stop-color="#0b0b0a"/>
      <stop offset="1" stop-color="#050504"/>
    </radialGradient>
    <linearGradient id="c" x1="304.9" x2="100.4" y1="-.8" y2="249.8" gradientUnits="userSpaceOnUse">
      <stop offset="0" stop-color="#2f368f"/>
      <stop offset=".3" stop-color="#0d72b9"/>
      <stop offset=".3" stop-color="#1274ba"/>
      <stop offset=".5" stop-color="#5c9cc9"/>
      <stop offset=".7" stop-color="#97bbd5"/>
      <stop offset=".8" stop-color="#c1d2dd"/>
      <stop offset=".9" stop-color="#dbdfe3"/>
      <stop offset="1" stop-color="#e5e5e5"/>
    </linearGradient>
    <clipPath id="b">
      <path fill="none" d="M334.9 149.7 0 180.7V0h335l-.1 149.7z"/>
    </clipPath>
    <mask id="d" width="43.8" height="15" x="22.2" y="275.5" data-name="mask" maskUnits="userSpaceOnUse">
      <path fill="url(#a)" d="M65.9 278.2c-.8-3.2-11.2-3.7-23.2-1.1-12.1 2.6-21.2 7.3-20.4 10.6.7 3.2 11.1 3.7 23.2 1.1s21.3-7.4 20.5-10.6Z"/>
    </mask>
  </defs>
  <g data-name="Layer 1">
    <path fill="#fff" d="M0 0h335v335H0z"/>
    <g clip-path="url(#b)">
      <path fill="url(#c)" d="M0 0h335v335H0z"/>
      <path fill="#00a1c4" d="m173 0 161 19.2L42.3 179.7 1 176.6V0h172z" opacity=".8"/>
      <g fill="#251716">
        <path d="M279.2 55.3c1.2.4 1.3-2.7 1.6-5.1 5.5 5.6 11.3 11.1 11.3 11.1-4.3-11.1-6-24-6-24-2-1.1-19-22.3-17.4-19.8.9 1.4 1.6 8.1 2 13.8 0 0-3.2.5-5.5.5s-.9 10.1 1.9 14.4c2.8 4.3 10.4 8.6 12 9.1ZM78.4 42.9c1.4.9 3.7 1.8 7.1 2.3 4.6.5 6.6-1.3 7.6-3.3 5-.4 9.1-.8 9.1-1.1 0-.6-4.4-23.5-5-24-.6-.6-27.7 2.4-27.7 2.8s4.8 23.6 4.8 23.6c.2 0 1.8 0 4.1-.3ZM25 207.9c-.4 4.9-2.9 4.4-3.5 6.6-1.4 5.3.8 6.9-4.6 14.5-4.8 6.7-13.4 27.4-15.9 31.6h333c-.3-11.8-2.1-43.7-13.1-46.6-4.2-1.1-8-12.1-10.4-13.7.5-12.6.3-31 1.8-34.8 2-5 6.9-10.3 7.6-12.3.2-.5.3-1 .2-1.5v-.5s-.1-.2-.2-.2l-.2-.2h-.1s-.2 0-.2-.1h-.1c-.1 0-.3 0-.4-.1h-2c-.2 0-.5 0-.8.1h-.3c-.2 0-.4 0-.7.1h-.3c-.3 0-.6.2-1 .3-1.2.4-2.6.5-4.1.6h-.6c1.7-4.5 6.1-16.6 6.7-18 .7-1.6 1.9-3.9 3-4.1 1.1-.1 2.5-1 2.5-1s1.5 2.7 2 3c1.3.9 5.3-1.2 4.3-2.6-.4-.5-1.8-2.6-3.7-5.5.2-.3.3-.7.4-1 .3-1.1-.6-2-.6-2 .2-1.8-.9-1.7-.9-1.7 0-1.6-1.5-1.2-1.5-1.2 0-.6.4-1.4-.5-2.2-.8-.8-1.9.3-1.9.3 0-.4-.3-.8-.5-.8-.7-1.2-1.5-2.3-2.3-3.5.2-.3.2-.5.2-.5s-.2-.5-.6-1.2c-.4-.6-1-.6-1-.6-5.2-8.1-10-15.5-10-15.5-2.7-1-4.6 2.2-4.6 2.2l7.4 11.6a5.7 5.7 0 0 0-3.9-.4c-3.8 1-4.2 2.5-7.5 2.5 0 0 .3 1.1.6 1.4 0 0 1.4.4 4.2-1.4 2.5-1.5 5-2.1 7.5-.7l.6.9c-1-.4-2.9-.7-4.9.6-3.1 2-5.1 7.1-8.4 8.2 0 0 1.3 1.1 2.2.7 0 0 1.3-.6 3.1-3.7 1.8-3.2 3.8-5.8 7-5.4.6 0 1 .1 1.3.2l.5.8s-.3.1-.3.3.9 1.6 1.1 1.8c0 0 .3.1.6.1l3.3 5.1c-.6.6-1.1 1.1-1.4 1.6-.9 1.6-.6 6.1-.6 7.4 0 1.3-1.5 3.7-5.5 10.5-2.7 4.5-5.9 10-7.7 13.3-2.8-.1-5.1-.1-6.4.5-.1 0-.2.1-.3.2l-.2.2-.2.2c-1.9 2.1-4.6 7.8-6.1 14.1-1-1.8-2.5-1.3-3.1-2.8-.7-1.8-.6-5.6-2.4-7.3-.8-.8-2.9-1.4-3.6-2-3.2-2.3-5.6-2.4-8.4-2.1-3.4.3-6 3.3-7 6.4-1 3-.9 11.1.4 14 1.3 2.8 1.4 5.4 1.4 5.4-2.3-2.3-9.1-5.1-11.1-6.7-2-1.6-2.1-2.6-3-3.6-.9-.9-5-3.5-5.5-4.3-.5-.7-.8-4.2-.9-5.5 0-1.2.9-3.5.8-4.2 0-.7-3.9-2.4-3.9-2.4s1.9-17.9 2-19.6 1.6-3.1 1.9-4.1c.3-1 0-3.3 0-3.5 0-.2.8-.3 1.2-.4.4 0 1.2.7 1.8.9.6.1 1 .1 1.1-.3 0-.4-1.2-1.5-1.2-1.5.5.1 1.3-.2 1.3-.4 0-.3-1.2-1.2-1.2-1.2.4.3 1.2 0 1.1-.3 0-.3-2.4-2.5-2.4-2.5-.6-.5-2.4-.2-2.9-.7-.4-.4.5-1.2.8-1.6.3-.4 2.1-.7 2.2-.7.2 0 14.9 19.1 15.1 19.1.4 0 5.1-8.6 5.2-8.8 0-.2 2.9 3.6 3.3 1.3.4-2.2 5.1-16.4 5.1-16.7s-1-1.5-1-1.5.5-.4.6-2.7c.1-2.3-4-12.5-6.9-13.1-2.8-.6-5.3 2-5.3 2-.3-.5-7.6-9.1-8.1-9.6.1-1 0 0 0 0v.2c0 .6-2.3 5.4-4.8 10.7l-.3.3c-.4-1-1.7-1.5-3.1-1.5-2 0-3.1 1.5-5.5 2-2.3.4-4.9.6-5.9.2.5.3 2.1 1 4 .6 0 0-2.3 2.1-5.8 1.9 0 0 2.5 1.1 4.2 0 0 0-.7.9-1.1.9 0 0 1.6-.2 2.4-1 0 0-1.5 2.3-4.7 2.9 0 0 2 .7 2.9 0 0 0-.7.8-1 1.1.3-.2 1.1-.6 1.4-1 0 0-1.4 2.3-4.1 2.4 0 0 2.7 0 4-1.2 0 0-1.1 1.3-1.6 1.5 0 0 2.4-.5 3.9-2.2 1.5-1.8 2.9-3 5-3.1 1.3 0 2.9-.1 4-.7l-5.4 11.2 2.5 3.2s-2.3.5-2.9.7c-.6.2-1.1 1.1-2.1 2.4-1 1.2-2.9 2.8-3.7 3.6-.7.8-.1 2-.1 2-.2.9.5 1.7.9 3.2.4 1.5.7 6.5-.2 8.6-.9 2.1-4.8 17.6-4.8 17.6-1.7.7-3.3 4.4-5.4 6.7-2.1 2.3-4.1 6.9-4.1 6.9l-3.7-2.2s1.3-3.7-1.2-6-5.7-3-8.5-3.4c-2.7-.4-1.9-.7-4.7-1.2-1.6-.3-7 0-8.1 1.1-1.1 1.2-1.9 6.5-1.9 6.5-.8 0-7.6-.4-12-.4.9-2 2.4-4.2 2.6-8.3v-3.8c0-.6.1-1.2.2-1.8.1-1.2.3-2.4.4-3.6l.3-2.2v-.7c0-.5.1-.9.2-1.3 0-.5 0-.8.1-1v-.9c0-.5.3-.7.5-1 .1-.1.3-.2.4-.4.2-.1.3-.3.5-.5s.4-.5.6-.8c.4-.6.8-1.5 1.2-2.3.2-.4.5-.8.7-1.2.1-.2.2-.3.4-.5.3-.3.5-.6.8-.8.4-.4.8-.7 1.1-1 .2-.2.4-.3.5-.5 0-.1.2-.2.3-.4.2-.3.5-.5.6-.8 0 0 0-.2.1-.3 0-.2 0-.3-.4-.3-.9 0-2.4 1.6-2.9 2.1l-.2.2c-.2.1-.4.2-.6.2h-.3c-.4 0-.7-.3-.8-1 0-.3 0-.6.1-.9.2-.6.5-1 .8-1.5.1-.2.3-.4.4-.7.2-.6.7-1.5.8-2.3v-.7s-.1-.2-.2-.2h-.4c-.5.2-1 1-1.4 1.7 0 0 0 .1-.1.2 0 .1-.2.3-.2.4 0 0 0 .1-.1.2 0 .1-.2.3-.2.5 0 .1-.1.2-.2.3 0 .1-.1.3-.2.4 0 0 0 .2-.1.3 0 .1-.1.3-.2.4-.3.6-.7 1-1 1-.3 0-.5-.2-.5-.5v-1.4c0-1.1.2-1.9.3-2.7v-.8c0-.3 0-.5-.1-.6s-.1-.3-.2-.3h-.7s-.2.3-.3.5c0 .2-.1.4-.2.7 0 .2-.1.4-.2.7 0 .3-.1.5-.2.8-.1.5-.2 1.1-.3 1.5v.7c0 .2 0 .3-.1.5 0 0 0 .2-.1.3-.1.2-.3.4-.4.5h-.2c-.1-.1-.3-.4-.4-.7-.2-.6-.5-1.4-.7-2.2-.2-1-.4-1.9-.8-2.2-.1-.1-.2-.2-.4-.1h-.2c-.3.3-.4 1-.2 2 0 .3 0 .6.1.8.2.8.2 1.8.2 2.7v.9c0 .4 0 .8-.1.9 0 .2-.2.3-.3.4-.1 0-.2.1-.4.1h-.2c-.2-.1-.5-.3-.8-.8-1.1-1.5-2.1-1.8-3-1.9-.9-.1-1.9.4-1.4.8 0 0 .2.1.3.2.7.3 1.3.8 1.9 1.6.1.2.3.4.4.6.4.6.7 1.3.9 1.9.2.7.5 1.2.7 1.7 0 .1.2.3.2.4.3.5.6.8.9.9.1 0 .2.2.3.2.2.2.3.5.3 1v1.9c0 .3-.1.7-.3 1.1-.5 2.1-1.6 5.3-2.7 8.4 0 .2-.2.5-.2.7-1.1 3-2.1 5.9-2.6 7.5 0 .2-.1.5-.2.7v.2c0 .2 0 .3-.1.5v.9c0 .2 0 .5-.1.7v4.7c0 .5-.2.7-.3.8-.6 0-1.4-.5-1.4.8s-1.9 4-2.8 5.8c-1-.4-1.8-.5-2.3-.5-1.2-3.6-2.6-7.1-3.9-10-3.1-6.8-2.4-10.1-1.4-11.5.2-.2.3-.4.5-.6 0 0 .1-.2.2-.2v-.1c0-.1.2-.2.2-.3v-.4h-1.2c-.2 0-.4 0-.6.1-.7.1-1.6.4-2.8.7-1.8.5-3.1.9-4.1 1.1h-.4c.2-2.1 0-11.5-.3-16.2-.3-5.1-.2-6.4.6-7.2.8-.7 2.3-2.3 3.1-3.5.8-1.2 2.4-3.1 2.8-4.2.4-1.1-.3-4-.3-4 .3-.4 1.6-2.3 3.4-4.7s.4.1.4 0 .8-.9.7-1.1c0-.2-.2-.4-.2-.4l.4-.5c.6 0 1.5-.1 2.5 0 2.7.4 4 1.9 7.3.8 0 0-1.1-.3-1.1-.8 0 0-1.7.5-4.3-.4-1.5-.5-2.7-.7-3.8-.6 3.9-5.4 8.6-11.9 8.9-12.5.7-1.2-2-3-3-2.3-.6.5-6.7 8.3-11 13.9h-.5l-.8 1.2c-1 .4-2.2 1.1-3.8 1.7-3 1.1-5.2.7-5.2.7 0 .3-.6 1.1-.6 1.1 3.8.4 6.3-1 8.4-2 .2-.1.4-.2.6-.2-1.4 1.8-2.3 3-2.3 3-1.4-.7-2.6 1.4-2.6 1.4-1.4-.2-1.8 2-1.8 2h-.8s-.1 0-.2.1c-.5.5-.7 1.3-.7 1.3s-.5-.1-1 .2c-.2.1-.3.3-.5.5v.9c-.3 1.2-.5 3-.6 4-.1 1.4.7 1.8.6 4.2 0 2.4-.8 9.1-1.6 13.3-.8 4.3-1.2 7.7-1.5 9.9-.9.2-1.8.4-2.6.6-.4.1-.8.3-1.1.4l-7.4-27.9s.6-.7.7-2c.1-1.3-1.8-3.2-2.8-4.3-1-1.1-1.7-2.5-2-3.6-.3-1.1-.9-1.7-1.2-1.3s.2 2.6.2 3.4c0 .8-.8.8-1.4-.3-.6-1.1-1.2-2.4-1.2-3.3 0-.9-1-1.3-1-1.3-.3-.9-1.2-.5-1.2-.5 0-.7-.6-1.4-1-1.2-.5.2-.5 1.6-.5 1.6s-.3-.3-.8-.3-.9 3.6-.8 4.6c.1 1 1.7 4.3 3.1 6.1 1.3 1.8 3.7 2.8 4.4 4.7.7 1.9 2.2 19.9 2.2 19.9s-.8.6-.7 2.7c0 2-1.8 3.2-3.2 3.8-1.4.6-4 3.1-3.8 4.6.3 1.5.1 5.7-2.9 8.6-2.7 2.6-8.1 1.5-8.1 1.5s-.1-2.1.1-2.7c.2-.6 1.5-2.8 2.3-3.8.8-.9 1.8-1.8 1.6-3.5-.1-1.2-1.2-1.5-2.1-1.9-.9-.3-1-.6-1.6-1.4s-.9-.2-1.2-.7c-.2-.5-.8-.4-1.2-.7-.3-.3.6-1.5-.1-2.1-.7-.5-3.5-.4-4.2-.8-.5-.3-.8-.6-1.6-1.4S100 144 100 144c-1.4-2.7-7.4-.2-10.8.7-3.3.9-3.5 6.1-6.3 7.2s-.8 6.5-3 8.6c-2.1 2.1-3.3 5-4.1 7.9-.8 2.9.3 3.5-2.8 7.5-.2.2-.3.4-.4.7h-.1s.1-2.1-.3-2.9-2.2-1.6-2.2-1.6.1-2.5.2-3.4c.1-.9 1.1-1.6 2-2.7.9-1 2.4-2.4 2.7-3.9.3-1.5.8-3.9.7-5.8-.1-1.9-1.2-2.7-1.2-3.4s-.2-2.6-.2-2.6.4-1.3-.6-3.3c-3.2-7.3-10.4-7.3-14.2-7.1-1.6 0-5.6 1.8-7.6 5.1-3.5 5.7-2.2 16.8-3.3 14.7-1.2-2.1-3.6-9.8-3.5-11.8.1-2 2.2-2.4 1.5-4.4-.7-2-2.1-3.8-2.4-7.3-.3-3.6 1.1-3.7 1.2-4.6.1-.9-2.5-3.6-2.5-3.6 0-.7 2.5-3.4 4.4-7 1.9-3.6.6-5.5 1.2-6.7.5-1.2 4-6.4 4.8-7.8.8-1.4.3-2.6.3-2.6s2-3 3.2-4.7c1.2-1.7 1.9-3 3.1-3.2 1.2-.2 1.7-1.4 1.7-1.4 1.4.7 1.7-1.2 1.7-1.2.8.5 1.3.3 1.5 0 4.6 1 9.1 1.9 13.1 2.6 1.6 2.2 4.7 5.3 9.6 6.2 7.7 1.5 12.8-6.4 13.3-9.7.5-3.1 1.2-11.1-4.3-15l.3-.6c.5.2 1 .5 1.5.7 4.7 2.2 7.2 4.5 7.2 4.5-.4 2.2 3.9 6.3 5.1 8.3 1.3 2.1 2.1 3.4 2.4 5.5.3 2.1-.6 2.9-.6 2.9 1 0 1.4-3.1 1.4-3.1.7.9 2.2 3.4 2.2 3.4.1-.9-2-5-2-5 .5.6 1.6 2.6 1.6 2.6 0-.2-.9-2.7-.9-2.7 1.5 2.6 4.2 4.2 4.2 4.2-1.6-1.2-3.6-5.1-3.6-5.1 1.3.8 2.9 3.1 2.9 3.1 0-.3-.5-1.5-.5-1.5 1.2.7 3.1 3.1 3.1 3.1 0-.7-3.1-4.2-3.1-4.2 1.5.8 2.7 1.6 2.7 1.6-.9-1.6-3.3-3.1-3.3-3.1 3.4 1.9 4.1 1.7 4.1 1.7s-2.9-.5-4.7-3.7c-1.6-2.8-5.5-5.5-7.2-7.6-1.5-2-3.3-1.3-3.3-1.3-.3 0-1-.6-2-1.1-.6-.3-3.8-2.1-6.8-3.7 3.1-5.8 5.5-10.6 5.5-10.6-2.8-.2-24.8-5.1-25.2-3.5-.2.9-6.4 11.1-11.5 19.4-.1 0-.2 0-.3-.1-.4-.1-1.7-.2-2.7-.1-1 0-2.2 1.2-2.2 1.2s-3-.7-3.8-.6c-.7 0-1.2 1-1.2 1-1.1-.2-1.3 1.5-1.3 1.5s-.9.2-1.4.9c-.4.7-.6 3.2-1.1 4.3-.4 1.1-.1 3.1-1.4 4.9-1.3 1.8-4.6 5.6-4.6 5.6-.7-.1-1.7.7-2.5 2.4-.7 1.6-5.3 5-6.3 6.5s-1.4 3.4-1.4 3.4c-.7-1.4-3.9 0-6.1 1.9-2.2 1.8-10.6 11.7-11.3 17.4-.7 5.7-.4 13.1 1.4 17.3s9.6 16.4 8.2 20.3c-1.4 3.9 1.7 7.6 2.1 9 .4 1.4-.3 5.1-2.1 11.1s-1 13.5-1.5 18.5Zm170.8-26.1c0-.6 1.2-.7 1.5-1.4.3-.7.4-2.2.8-2.4.4-.2 1.8-.8 2-1.6.2-.7-.5-.9-.5-.9s2.7-.2 3-.6c.3-.3.5-1-.2-1.2 0 0 1.9-.3 1.9-.7 0-.4 0-1-1.1-1.1 0 0 .7-.4.7-1h2.6s-1.9 3.3-2.2 5.3c-.3 2-.3 12-2.3 13.7-1.9 1.6-3.2.3-4.1 1.7-.8 1.4 0 1.7 0 1.7s-1.7.2-1.9 0c0 0-.5-10.7-.4-11.3Zm-14.9-20.3c5.3 2.5 15 7.1 14.8 7.2-.3.1-2.7.3-3.5.6s-.5 2.5-.9 2.7c-.4.2-.5 1.1-.3 1.8.1.7 0 4.3-.1 5.5 0 .2 0 .4-.1.8 0 0 0-.2-.1-.2-.2-.4-.5-.8-.8-1.2 0 0-.1-.2-.2-.3 0 0-.1-.2-.2-.2-.1-.2-.2-.4-.4-.6-1.7-2.8-7.2-8.4-7.2-8.4s-1.1-4.8-.9-7.6Zm-44.7 33.2c.8 1.2 1.3 5.2 1.3 9.2 0 4 3.7 5.8 4.3 8.4.6 2.5-.6 7-2 10.1-1.4 3.1-2.5 8.7-2.5 8.7-1.6-2.8-3.8-12.7-4-16.2-.2-3.5-1.6-10.2-1.9-12.1s4.5-8.5 4.7-8.1Zm124.5-42.5v.2-.2Zm-6.7-.5Z"/>
        <path d="M219.6 87.1c.3-.9 2.6-4 5.5-7.6 2.1 1.1 5.2 2 8.7 0 6.2-3.6 5.8-9 5.4-10.8-.2-.9-1-2.1-2.4-3.2l2.1-2.4c-1.9-.8-13.6-13-13.6-13-.6 2.3-17.2 21.3-17.2 21.3 1.1.7 11.6 15.6 11.6 15.6Zm-43.3-44c3.6-4 7.2-8 10.2-11.5 2.3-.2 6-1.1 8.9-4.4 4.3-5 .8-12-1.4-13.8-2-1.7-7.4-5.4-12.5-3.3-.1-.2-.2-.4-.4-.6l.9-.6c3.6-2.5 6.3-3.3 6.3-3.3 1.5 1.2 6.2-.2 8.3-.2s3.3 0 5 .6c1.7.7 1.8 1.6 1.8 1.6.4-.8-1.7-2.3-1.7-2.3 1-.1 3.4-.2 3.4-.2-.6-.5-4.5-.7-4.5-.7h2.6c-.2-.1-2.3-.5-2.3-.5 2.6 0 4.8-1.3 4.8-1.3-1.5.7-5.2.5-5.2.5 1.1-.6 3.5-.8 3.5-.8-.2-.1-1.3-.3-1.3-.3 1-.6 3.6-.9 3.6-.9-.5-.4-4.4.5-4.4.5 1.2-.8 2.3-1.3 2.3-1.3-1.5 0-3.7 1.1-3.7 1.1 2.9-1.7 3-2.3 3-2.3S201.9 1 198.8 1c-2.7 0-6.4 1.7-8.6 2-2.1.3-2.3 1.9-2.3 1.9-.2.2-.9.5-1.7 1-.4.3-2.9 1.8-5.3 3.3-3-4.8-5.6-8.8-5.6-8.8-1.3 2-14.2 16-13.3 16.9 1 .9 14.3 26 14.3 26Zm-37.5 40.5c1.1.4 1.2-2.5 1.5-4.9C145.5 84 151 89.3 151 89.3c-4.1-10.6-5.7-22.8-5.7-22.8-1.9-1-18-21.1-16.5-18.8.9 1.3 1.5 7.7 1.9 13.1 0 0-3 .5-5.2.5s-.9 9.5 1.8 13.7c2.7 4.1 9.9 8.2 11.4 8.7Z"/>
      </g>
      <path fill="#066193" d="M0 0h335v335H0z" opacity=".8"/>
    </g>
    <path fill="#4e4e4f" d="M0 297.5h335V335H0z"/>
    <path fill="#ffc000" d="M335 148.9v37.7L0 217.5v-37.7l335-30.9z"/>
    <path fill="#4e4e4f" d="M335 163.7v33.4h-84.5c-9.2 0-16.7-7.5-16.7-16.7s1.9-8.8 4.9-11.8c3-3 7.2-4.9 11.8-4.9H335Zm-167.5 33.4c-2 0-3.7 1.6-3.7 3.7s.3 1.6.7 2.2l3 5.1 3-5.1c.4-.6.7-1.4.7-2.2 0-2-1.6-3.7-3.7-3.7Zm0 5.3c-.9 0-1.6-.7-1.6-1.6s.7-1.6 1.6-1.6 1.6.7 1.6 1.6-.7 1.6-1.6 1.6Z"/>
    <g fill="#fff" data-name="PRINT">
      <path d="M29.6 13.9c0 .5-.2 1-.6 1.4l-6.3 6.3-6.8-3.9v-3.8c0-1.1.9-2 2-2s2 .9 2 2v4.9l6.3-6.3c.8-.8 2.1-.8 2.8 0 .4.4.6.9.6 1.4ZM29 31.7c-.4.4-.9.6-1.4.6s-.5 0-.8-.2c-.2-.1-.5-.3-.6-.4l-2.1-2.1-4.1-4.1v4.9c0 1.1-.9 2-2 2s-2-.9-2-2v-3.8l6.8-3.9 4.2 4.2 2.1 2.1c.8.8.8 2.1 0 2.8ZM22.4 22s0-.2-.2-.2l-1.7-1-4.6-2.6L12 16c-.2-.1-.5 0-.6.2v11.9c0 .3.2.5.5.5h.2l3.9-2.2 6.3-3.6s0-.1.1-.2v-.3Zm-9.6-4.7 3 1.7 4.9 2.8s.1 0 .1.1v.3s0 .2-.2.2l-4.9 2.8-3 1.7c-.2 0-.4 0-.5-.1v-9.3c0-.2.2-.3.3-.3h.2Z"/>
      <path d="M19.5 22.2s0 .1-.1.2l-3.7 2.1-2.3 1.3H13v-6.9c0-.1.1-.3.3-.3h.1l2.3 1.3 3.7 2.1s.1 0 .1.2v.1Zm43-.6-5.6-2.8-3.4-1.7c-.2-.1-.4 0-.5.2v9.5c.1.2.3.4.6.4h.4l3.2-1.8 2-1.1 3.5-1.9s.2-.1.2-.2V22s-.1-.2-.2-.2Zm-5.6 2.8-2.6 1.4c-.2 0-.3 0-.4-.1v-7.3c0-.2 0-.3.2-.3h.1l2.7 1.3 1 .5 3.4 1.7s.1 0 .2.2v.2s0 .1-.1.1l-4.3 2.3Z"/>
      <path d="m60.1 22-.1.1-3.2 1.7-2 1.1h-.3v-5.4c0-.1 0-.2.2-.2l2 1 3.3 1.6.1.1v.1Zm-21.6-4.8h-4.9v9.7H36v-3.2h2.5c2.3 0 4.1-1.4 4-3.4 0-1.9-1.8-3.2-4.1-3.2Zm-.2 4.6H36v-2.7h2.3c1.1 0 1.9.5 1.9 1.3s-.8 1.4-1.9 1.4ZM51.8 27l-7.7.1-.2-9.7h2.4l.1 7.8 5.3-.1.1 1.9zm15.7-3.7.1 3.5h-2.4v-3.5l-4.3-6.1 2.7-.1 2.7 4.2 2.8-4.2 2.6-.1-4.2 6.3zm14.4 3.9-1.6.1-4.1-4.5-1.7 1.6v2.9h-1.2l-.1-9.6h1.2l.1 5.3 5.4-5.4h1.6L77 22.1l4.9 5.1zm6.1-9.9c-3 0-5.5 2.3-5.5 5.1 0 2.7 2.6 5 5.6 4.9 3 0 5.5-2.4 5.5-5.1 0-2.7-2.6-5-5.6-4.9Zm.4 9c-2.4.2-4.4-1.6-4.6-3.9a4.27 4.27 0 0 1 8.5-.1 4.2 4.2 0 0 1-3.9 4Zm14.8-1.8c0 1.5-1.2 2.8-3.8 2.8-1.6 0-3.1-.5-4.3-1.5l.8-.9c1 .9 2.2 1.4 3.5 1.4 1.7 0 2.5-.9 2.5-1.7 0-1-1-1.4-2.9-1.8-2.2-.4-3.5-1-3.6-2.7 0-1.5 1.5-2.8 3.6-2.8 1.4 0 2.7.4 3.8 1.3l-.7.9c-.9-.8-2-1.2-3.1-1.2-1.3 0-2.3.8-2.3 1.7 0 1 1.1 1.3 2.9 1.7 2.1.4 3.5 1.1 3.6 2.8Zm12.8 2.7h-1.2l-.1-7.3-3.9 6.8-4.1-6.7.1 7.3-1.3.1-.1-9.7h1.3l4 6.7 4-6.8h1.2l.1 9.6zm7.7-9.9c-3 0-5.5 2.3-5.5 5.1 0 2.7 2.6 5 5.6 4.9 3 0 5.5-2.4 5.5-5.1 0-2.7-2.6-5-5.6-4.9Zm.4 9c-2.4.2-4.4-1.6-4.6-3.9a4.27 4.27 0 0 1 8.5-.1 4.2 4.2 0 0 1-3.9 4Zm14.8-1.8c0 1.5-1.3 2.8-3.8 2.8-1.5 0-2.9-.4-4.1-1.3l-.2-.2.8-.9c.2.2.3.3.5.4.9.6 1.9 1 3 .9 1.7 0 2.5-.9 2.5-1.7 0-.8-.6-1.2-1.6-1.5-.3-.1-.7-.2-1.2-.3h-.2c-2.2-.4-3.5-1-3.6-2.7 0-1.5 1.5-2.8 3.6-2.8 1.4 0 2.7.4 3.8 1.3l-.7.9c-.9-.8-2-1.2-3.1-1.2-1.3 0-2.3.8-2.3 1.7 0 1 1.1 1.3 2.9 1.7.4 0 .8.2 1.1.3.4.1.7.2 1 .4.9.4 1.5 1.1 1.5 2.1Z"/>
    </g>
    <g mask="url(#d)">
      <path d="M65.9 278.2c-.8-3.2-11.2-3.7-23.2-1.1-12.1 2.6-21.2 7.3-20.4 10.6.7 3.2 11.1 3.7 23.2 1.1s21.3-7.4 20.5-10.6Z" opacity=".5"/>
    </g>
    <path fill="#1f1f1f" d="m53.8 239.8 7.7 9.9s2.9 9.6-15.2 24.8c0 0-12.9 9.7-17.5 6.1l-7.9-6.9 32.9-34Z"/>
    <path fill="#343433" d="m64.5 222.5-31 51-31.3 3.9-2 .9.5.7 33.7-4.1 31-51 1.7-2.8-.5-.7-2.1 2.1z"/>
    <path fill="#4e4e4f" d="m29.6 240.5 37-20.1L34 274.2.2 278.3l29.4-37.8z"/>
    <path fill="#343433" d="M30.7 253.7c.3.3 1.2 0 2-.8s1.3-1.6 1-1.9c-.3-.3-1.2 0-2 .8-.8.7-1.3 1.6-1 1.9Z"/>
    <path fill="#676767" d="m36.9 289.6-4.1-15.3-.3-22h-.6l.4 22.1 4 15.3.6-.1z"/>
    <path fill="gray" d="M30.5 252.5c.4.6 1.2.7 1.8.3.6-.4.8-1.2.4-1.8-.4-.6-1.2-.7-1.8-.3-.6.4-.8 1.2-.4 1.8Z"/>
    <path fill="#fbb03b" d="M36.4 287.8s3.9 7.3 4.8 11.3h-.5v.4h-.2l-.3.3v-.2l-.6 1.1-.3-.4-.3.8-.3-.5s-.4.6-.5.7c0 .1-.6-.4-.6-.4l-.2.2-.5-.7-.3.8s-1.4-10.8-.9-13.5h.7Z"/>
    <path fill="#f69220" d="M36.9 288.7s0 .2.1.4c0 .3.2.7.3 1.1 0 .2.1.5.2.8 0 .3.2.5.3.8 0 .3.2.6.3.9l.3.9.3.9.3.9c.1.3.2.6.3.8.1.3.2.5.3.7.2.4.4.8.5 1.1.1.3.2.4.2.4s0-.2-.1-.4c0-.3-.2-.7-.3-1.1 0-.2-.1-.5-.2-.8 0-.3-.2-.5-.3-.8 0-.3-.2-.6-.3-.9l-.3-.9-.3-.9-.3-.9c-.1-.3-.2-.6-.3-.8-.1-.3-.2-.5-.3-.7-.2-.4-.4-.8-.5-1.1-.1-.3-.2-.4-.2-.4Zm-.6-.4v.5c0 .3.1.7.2 1.2 0 .3.1.5.2.8 0 .3.1.6.2.9 0 .3.2.6.2 1 0 .3.2.7.3 1 0 .3.2.7.3 1 0 .3.2.6.3 1 0 .3.2.6.3.9 0 .3.2.6.3.8.2.5.3.9.4 1.2.1.3.2.4.2.4v-.5c0-.3-.1-.7-.2-1.2 0-.3-.1-.5-.2-.8 0-.3-.1-.6-.2-.9 0-.3-.2-.6-.2-1 0-.3-.2-.7-.3-1 0-.3-.2-.7-.3-1 0-.3-.2-.6-.3-1 0-.3-.2-.6-.3-.9 0-.3-.2-.6-.2-.8-.2-.5-.3-.9-.4-1.2-.1-.3-.2-.4-.2-.4Zm-.2 1.7v.4c0 .3 0 .7.1 1.1v.8c0 .3 0 .6.1.8 0 .3 0 .6.1.9 0 .3.1.6.2.9 0 .3.1.6.2.9 0 .3.1.6.2.9 0 .3.1.6.2.8 0 .3.1.5.2.7.1.5.2.8.3 1.1 0 .3.1.4.1.4v-.4c0-.3 0-.7-.1-1.1v-.8c0-.3 0-.6-.1-.8 0-.3 0-.6-.1-.9 0-.3-.1-.6-.2-.9 0-.3-.1-.6-.2-.9 0-.3-.1-.6-.2-.9 0-.3-.1-.6-.2-.8 0-.3-.1-.5-.2-.7-.1-.5-.2-.8-.3-1.1 0-.3-.1-.4-.1-.4Zm.2 4.3v3.7c0 .3.1.6.2.8 0 .2.1.4.2.6v.2-3.7c0-.3-.1-.6-.2-.8 0-.2-.1-.5-.2-.6v-.2Z"/>
  </g>
</svg>
