<svg xmlns="http://www.w3.org/2000/svg" width="335" height="335" data-name="Layer 1">
  <defs>
    <linearGradient id="a" x1="164.2" x2="170.9" y1="63.2" y2="337.2" gradientTransform="matrix(1 0 0 -1 0 335)" gradientUnits="userSpaceOnUse">
      <stop offset="0" stop-color="#849000"/>
      <stop offset=".2" stop-color="#bbb82e"/>
      <stop offset=".5" stop-color="#ffea69"/>
      <stop offset=".8" stop-color="#ffcb5d"/>
      <stop offset="1" stop-color="#ffb957"/>
    </linearGradient>
    <linearGradient id="b" x1="167.1" x2="167.8" y1="-7" y2="320.9" gradientTransform="matrix(1 0 0 -.2 0 336.5)" gradientUnits="userSpaceOnUse">
      <stop offset="0" stop-color="#abad1a"/>
      <stop offset=".5" stop-color="#feeb68"/>
      <stop offset=".6" stop-color="#f7e662"/>
      <stop offset=".7" stop-color="#e5d852"/>
      <stop offset=".8" stop-color="#c6c139"/>
      <stop offset=".9" stop-color="#9da215"/>
      <stop offset="1" stop-color="#849000"/>
    </linearGradient>
  </defs>
  <path fill="url(#a)" d="M0 0h335v272.6H0z"/>
  <path fill="url(#b)" d="M0 270.9h335V335H0z"/>
  <path fill="#e8dec5" d="M40.6 243.9v-2h-.3c-1.7.6-3.5 1-5.2 1.4-1.3.2-2.7.5-4 .7h-.6c-.3.2-.7.1-1.1.2-.6 0-1.1.1-1.7.2-.4 0-.8 0-1.2.1-.6 0-1.2 0-1.8.1-1.2 0-2.3.2-3.5 0-.8 0-1.5-.1-2.3-.2l.1.2c0 .4 0 .8.1 1.1v2.1c0 .7 0 1.3.1 2 0 .7 0 1.4.1 2.2v1.9c0 .8 0 1.6.1 2.3v1.8c0 .9 0 1.7.1 2.6 0 .9 0 1.7.1 2.6v.1h2v-.5c-.1-.7-.2-1.3-.2-2v-2.9 2.8c0 .7 0 1.3.2 2v.5h7.8c.4 0 .8 0 1.1-.1l.2-1c0-.4.1-.8.2-1.2.1-.7.2-1.5.4-2.2 0-.6.2-1.1.3-1.6 0-.5.2-1.1.2-1.6 0-.6.2-1.2.3-1.8 0-.5.2-.9.2-1.4 0-.4.1-.7.2-1.1 0-.2.1-.3.3-.4.6-.3 1.2-.6 1.9-.9v.3c-.6.6-.8 1.4-1 2.1-.2.6-.3 1.3-.5 1.9l-.3 1.6c0 .6-.2 1.3-.3 1.9 0 .4 0 .9-.1 1.3 0 .5 0 1.1-.2 1.6v1.3h4.4c.9 0 1.8 0 2.6-.2 0-.6.2-1.1.1-1.6v-10.3c.1-.4 0-.8 0-1.1v-3.4c0-.5 0-1.1.1-1.6v-.2Zm0 0Zm-.1 0z"/>
  <path fill="#c44b4b" d="M32.3 235.7v-.3.3Z"/>
  <path fill="#d8caa9" d="M40.5 243.9z"/>
  <path fill="#eddbcb" d="M34.6 217v-2.2c0-.6-.2-1.3-.3-2-.4-1.5-.9-2.9-1.7-4.2 0-.1-.1-.2-.2-.2 0 .2.1.5.2.7.2.5.3 1 .3 1.6 0 .4-.2.8-.6 1 0 .5-.2.6-.7.6h-.9l-.2.1h-1.8c-.6 0-1.1-.3-1.6-.5-1-.5-1.6-1.4-1.9-2.4-.3-.8-.2-1.6.2-2.4 0-.2.2-.4.2-.6-.2 0-.3 0-.5.2-.9.5-1.8 1-2.7 1.4-.2 0-.3.2-.5.3-.5.3-.9.6-1.4.9.1.8.5 1.5 1.1 2.2.2.3.4.6.8.8l.2.2c.3.7.6 1.3.9 2v.3c.2 0 .2.2.3.3.5.7 1 1.3 1.5 1.9.9 1 2 1.9 3 2.6a31.97 31.97 0 0 0 5.3 3h.4c0-.2.1-.3.1-.5l.3-2v-2.9Zm-10.7-5.7c-.2 0-.4 0-.6-.2-.3-.2-.5-.5-.7-.8-.1-.3-.1-.5 0-.8 0-.2.2-.4.7-.4 0 0 .2 0 .4.1.5.3.9.7 1 1.3 0 .4-.2.8-.7.8Zm6.7 3.2H30v-.2c.2-.2.4-.2.6-.2.2 0 .4 0 .5.2-.1.2-.3.3-.5.3Zm.7-1.1h-.2c-.5.2-1.1.1-1.7 0-.2 0-.4-.1-.6-.2 0-.2.2-.3.2-.4.4.1.7.4 1.1.4h1.2v.2Z"/>
  <path fill="#edb985" d="M46.2 216.8Zm-1.7 5.9c.4-1.2.7-2.3 1-3.5.1-.6.2-1.1.4-1.7-.1.6-.3 1.1-.4 1.7-.3 1.2-.6 2.3-1 3.5Zm-.7 1.7c-.1.2-.3.5-.5.7.2-.2.4-.4.5-.7Z"/>
  <path fill="#e79a69" d="M47.8 212c-.2-.6-.4-1.2-.9-1.6 0-.3 0-.6-.2-.8 0-.4-.2-.8-.3-1.2-.1 0 0 .2 0 .3v1.7c-.2.2-.5.1-.7.2-.1 0-.3.2-.4.3-.2.1-.2.2-.2.5 0 .2 0 .3.2.4l.1.1h.2c.2-.1.3-.2.6-.2.1.3 0 .4-.2.5-.1 0-.3 0-.4.1-.2.2-.5.3-.8.5v.7c0 .2 0 0 0 0h-.3c-.6-.2-.7-.3-.7-1v-2.6h-.7c-.2 0-.3.3-.3.5v.3c.1.3.2.5.3.8.3.8.5 1.6.6 2.5 0 .4 0 .7-.3 1-.5.6-.9 1.2-1.4 1.8l-2.6 3.5c-.5.6-.9 1.3-1.3 2l-.3.5c0 .1 0 .3.1.5.5 1.2.8 2.5 1.2 3.8.4 1.4.6 2.8.9 4.2.4 0 .8-.2 1.2-.4.9-.4 1.6-1 2-1.9.3-.7.6-1.3.8-2 .7-1.8 1.1-3.7 1.4-5.6.2-.9.3-1.8.4-2.7 0-.6 0-1.2.1-1.8 0 0 .1-.2.2-.2.8-.9 1.2-1.9 1.4-3 0-.5.2-1 0-1.5Zm-4.6 13.1c.2-.2.4-.5.5-.7-.1.3-.3.5-.5.7Zm2.2-5.9c.1-.6.2-1.1.4-1.7-.1.6-.2 1.1-.4 1.7Zm1.1-4.8c-.2.3-.5.5-.9.5s-.8 0-1.2-.3c.3-.3.6-.5 1-.7.2-.2.5-.3.8-.3.1 0 .2 0 .3.2 0 .1.1.3.1.4v.3ZM37 238c.1.1.3 0 .5 0l1.3-.3h.5c.1.2 0 .4 0 .5 0 .2-.2.3-.4.4-.7.3-1.4.5-2.1.7-.5 0-1 .1-1.5.2h-1.9c0 .1 0 .2-.1.2l-2.8.6c-.3 0-.6 0-.9.2-.6 0-1.3.1-1.9.2h-3.1c-.9 0-1.7-.1-2.6-.3-.7-.2-1.3-.5-1.9-.9a8.7 8.7 0 0 1-1.7-2.1c0-.2-.2-.4-.3-.5 0-.2 0-.4-.2-.6-.2-.6-.4-1.3-.5-1.9v-.5c.1 0 .2-.1.3-.1.5 0 1 0 1.5-.1h.9c.6 0 1.2 0 1.8-.1h.9c.7 0 1.3 0 2-.1h.8s0 .1.1.2c0 0 0 .1-.1.2-.3.3-.5.6-.7.9.2-.3.5-.6.8-.9 0 0 0-.1.1-.2.2 0 .5.1.8.2.6.2 1.2.4 1.7.7.5.2 1 .5 1.5.7l2.2 1c.1 0 .2 0 .4.1h.2c.2-.2.5-.3.8-.5.4-.2.7-.5 1-.8.1 0 .2-.2.3-.3l.3-.3c.2-.2.6-.3.8 0 .2.2.2.4 0 .7 0 .1-.1.2-.2.3-.2.2-.4.5-.6.8.2.1.4 0 .6 0 .8-.3 1.5-.6 2.3-.8 0 0 .2 0 .2-.1h.2l.2.2v.2c0 .3 0 .4-.2.5-.3.2-.7.4-1 .5 0 0-.2 0-.3.2-.1 0-.1.2 0 .4.2 0 .4 0 .5-.1.4 0 .7-.2 1.1-.2h.2c.3 0 .4 0 .5.4 0 .2 0 .4-.2.5-.3.1-.5.2-.8.3l-1.3.3c-.1 0-.2 0-.2.2Z"/>
  <path fill="#ecb884" d="M32.5 209.1c0-.2-.2-.5-.2-.7 0 0 0-.1-.1-.2h-1.9s-.2-.1-.2-.2v-.6c0-.2 0-.3.2-.3h.7c.1 0 .3 0 .4-.1l-.9-1.2h-.2c-.9-.3-1.7-.2-2.6 0-.7.2-1.3.4-1.9.7 0 .1-.1.1-.2.1 0 .2 0 .4-.2.6-.4.8-.5 1.6-.2 2.4.3 1 .9 1.9 1.9 2.4.5.3 1 .5 1.6.5h1.8c.6 0 .2 0 .2-.1h.4c.2 0 .3 0 .4-.2.2-.2.2-.4.1-.6 0-.1-.1-.2-.2-.4v-.2h.2c.2.2.3.4.5.6 0 0 .1.2.2.2.5-.2.6-.6.6-1 0-.6-.1-1.1-.3-1.6Zm-5.5 0c-.1-.1-.2-.3-.3-.4v-.3l1.5-.6h.3s.2 0 .3.2c.1.1.2.3.3.4v.3a3 3 0 0 0-.8.4c-.3.1-.6.2-.8.4-.2 0-.3 0-.4-.1Zm1.3 1.4c-.2-.3-.2-.5 0-.8 0-.3.4-.4.6-.2.2.2.4.5.3.9-.3 0-.6.2-.9.1Zm2.9.2Zm.3-.9c-.2-.3-.2-.6 0-.8.1-.3.4-.3.7-.1.2.2.3.4.3.8-.3 0-.6 0-.9.1Z"/>
  <path fill="#e79a69" d="M43.2 225.1c.2-.2.4-.5.5-.7-.1.3-.3.5-.5.7Zm2.2-6c.1-.6.2-1.1.4-1.7-.1.6-.2 1.1-.4 1.7Zm.8-2.4Z"/>
  <path fill="#5a4c4c" d="M30.3 205.7h-.2c-.9-.3-1.7-.2-2.6 0-.7.2-1.3.4-1.9.7 0 0-.2 0-.2.1-.2 0-.3 0-.5.2-.9.5-1.8 1-2.7 1.4-.2 0-.3.2-.5.3l1.8-1.8c.4-.4.8-.7 1.1-1.1.1-.1.3-.2.4-.3.7-.5 1.3-1.1 1.9-1.6.4-.4.9-.7 1.3-1 .7-.4 1.3-.9 2-1.2.6-.3 1.2-.6 1.8-.6h.9c.3 0 .5.2.4.6 0 .2-.1.5-.3.7-.2.4-.4.8-.7 1.2-.6.8-1.2 1.6-1.9 2.4 0 .1-.2.2-.3.3Z"/>
  <path fill="#edb985" d="M33.2 266.8H33h.2Z"/>
  <path fill="#b33a3a" d="M19.2 233.4c-.5 0-1 .1-1.5.1s-.2 0-.3.1c0 0 0-.1-.2-.1h-1.4v-.2c0-1.1 0-2.2.2-3.3.4-2.5 1-4.8 1.9-7.1.6-1.4 1.2-2.8 2.1-4.1.1-.2.3-.4.4-.5 0 .2 0 .4-.2.6-.6 1.1-1 2.4-1.3 3.6-.2.7-.3 1.4-.4 2.2 0 .4-.1.8-.2 1.2v3.4c0 .6.1 1.2.2 1.8 0 .8.3 1.6.5 2.3v.2Zm4.4-16.7c-.3-.5-.6-.9-.9-1.4l.7-.6c.2 0 .2.2.3.3.5.7 1 1.3 1.5 1.9.9 1 2 1.9 3.1 2.7 1.6 1.2 3.3 2.2 5.1 2.9h.2v.2-.2h.4s.1-.3.1-.4l.3-2v-.2l.2.2s0-.2-.2-.2v-1.3c.2.3.2.6.3.9.2.9.5 1.8.6 2.8 0 .7.2 1.3.2 2v.3c.1.7.1 1.4.2 2v4c-.2 0-.5 0-.7.1-.2 0-.5 0-.7.1 0 0-.1-.2-.2-.3l-.5-.5c-.9-.9-1.8-1.9-2.6-2.8l-3-3.6c-1.1-1.4-2.1-2.9-3.1-4.4 0 0-.1-.2-.2-.3h.2c.1.1.3.2.4.3-.1-.1-.3-.2-.4-.4h-.2c0-.2 0-.3-.1-.3l-.2-.2c-.3-.5-.7-1-1-1.5Z"/>
  <path fill="#b33a3a" d="M20.4 218.8c-.6 1.1-1 2.4-1.3 3.6-.2.7-.3 1.4-.4 2.2 0 .4-.1.8-.2 1.2v3.4c0 .6.1 1.2.2 1.8.1.8.3 1.5.6 2.3v.2h.9c.6 0 1.2 0 1.8-.1h.9c.7 0 1.3 0 2-.1h.8s0 .1.1.2c.2 0 .5.1.8.2.6.2 1.1.4 1.7.7 0-.4-.2-.8-.3-1.2l-1.2-4c-.4-1.2-.8-2.3-1.2-3.5 0-.1 0-.2-.2-.4.1.1.1.2.2.4.4 1.2.8 2.3 1.2 3.5l1.2 4c.1.4.3.8.3 1.2.5.2 1 .5 1.5.7.7.3 1.5.6 2.2 1 .1 0 .2 0 .4.1v-.3.3h.2c.2-.2.5-.3.8-.5l-.1-.2c0-.3 0-.7-.1-1 0-.4-.1-.8-.2-1.3 0-.4 0-.9-.1-1.3v-.2c0-.2 0-.3.2-.4h1.1c0-.3-.2-.4-.3-.5l-1.2-1.2c-.7-.8-1.4-1.6-2.1-2.3-.7-.8-1.3-1.6-1.9-2.3-.2-.3-.4-.6-.7-.8v.2-.3c-.1 0-.2-.2-.2-.3-.7-.9-1.4-1.8-2-2.8-.6-.8-1.1-1.6-1.6-2.4l-.2-.2v.2-.1c0-.1 0 0 0 0-.1 0-.2-.2-.2-.3l-.2-.4v-.3h-.2v-.2c-.1-.4-.2-.6-.4-.8-.8.8-1.3 1.7-1.9 2.6 0 .2 0 .4-.2.6Zm7.7 5.4c.1.2.2.4.4.5-.1-.2-.3-.4-.4-.5Z"/>
  <path fill="#b33a3a" d="M41.1 241v.5l-.6.3h-.3c-1.7.6-3.5 1-5.2 1.4-1.3.2-2.7.5-4 .7h-.6c-.3.2-.7.1-1.1.2-.6 0-1.1.1-1.7.2-.4 0-.8 0-1.2.1-.6 0-1.2.1-1.8.1-1.2 0-2.3.2-3.5 0-.8 0-1.5-.1-2.3-.2h-.4c0-.5 0-.9-.1-1.3 0-1.7-.2-3.5-.3-5.2v-1.4c.2.1.2.3.3.5.4.8.9 1.5 1.7 2.1.6.5 1.2.8 1.9.9.8.2 1.7.3 2.6.3h3.1c.6 0 1.3-.1 1.9-.2h.1-.1c.3-.2.6-.1.9-.2l2.8-.6h2.1c.5 0 1-.1 1.5-.2.7-.1 1.4-.4 2.1-.7.2 0 .3-.2.4-.4v-.5h-.5l-1.3.3c-.4.1-.3 0-.5 0 0-.2 0-.2.2-.2.4-.1.9-.2 1.3-.4.3 0 .5-.2.8-.3.2 0 .3-.3.2-.5 0-.3-.2-.4-.5-.4h-.2c-.4 0-.7.2-1.1.2-.2 0-.4 0-.6.1-.1-.1 0-.3 0-.4 0 0 .2 0 .3-.2.3-.2.7-.3 1-.5.2-.1.3-.2.2-.5v-.5s.2 0 .2-.2v-.5c0-.4 0-.9-.1-1.3v-1c0-.5 0-1-.2-1.5l-2 .2v-5.3c0-.8-.2-1.6-.3-2.4-.2-1.1-.4-2.1-.7-3.2-.2-.7-.4-1.4-.7-2.1v-.4l.4.4c.9 1.2 1.7 2.5 2.3 3.8.2.5.4 1 .6 1.4 0 .2 0 .3.1.5.5 1.2.8 2.5 1.2 3.8.4 1.4.6 2.8.9 4.2l.6 4 .3 3.1c0 .9 0 1.8.1 2.7Z"/>
  <path fill="#b33a3a" d="M36.4 234.9h1.8s-.2 0-.2.1c-.8.3-1.6.6-2.3.8-.2 0-.4.1-.6 0 .1-.3.3-.6.6-.8h.7Zm-2.9-12.4v.2-.2Z"/>
  <path fill="#e79a69" d="M26.1 268.2c.5 0 1-.2 1.4-.3-.1.5-.2 1-.4 1.5-.4 1.7-.9 3.5-1.4 5.2l-.6 2.3h-.4c0-.9 0-1.9-.1-2.8 0-.9-.1-1.7-.2-2.6 0-1 0-1.8-.1-2.7v-.2c.6-.1 1.1-.2 1.7-.4Z"/>
  <path fill="#e79a69" d="M28.7 263.6c-.1.5-.3 1.1-.4 1.6l-.6 2.3c0 .1 0 .3-.1.4-.5 0-.9.2-1.4.3-.6.1-1.1.2-1.7.4 0-.7 0-1.5-.1-2.2 0-.9-.1-1.8-.2-2.8h4.5Zm7.7 2.5v.3c-.2.8-.3 1.7-.5 2.5l-.6 3.3-.6 3-.3 1.8H34c0-.6-.1-1.2-.2-1.8 0-.4 0-.9-.1-1.3 0-.3 0-.7-.1-1 0-.8-.2-1.5-.3-2.2 0-.4 0-.7-.1-1.1 0-.9-.2-1.8-.3-2.7h.2-.2c0-.3-.1-.5-.1-.8-.1-1.2-.3-2.3-.4-3.5h4.8c-.2 1-.3 2-.5 3 0 .2-.1.5-.2.8Zm-3.2.7H33h.2Z"/>
  <path fill="#c62346" d="M24.7 205.4c-.4.4-.8.7-1.1 1.1l-1.8 1.8-1.4.9c-.2-.9 0-1.8 0-2.6s.3-1.6.6-2.3a5.3 5.3 0 0 1 2.4-2.7h.2v.2c0 .2-.2.3-.3.5-.3.8-.2 1.7.4 2.3.2.2.5.5.8.7 0 0 0 .1.1.2Z"/>
  <path fill="#d8caa9" d="M32.8 262.4h-1.6c0-.4.2-.7.2-1.1.1-.7.2-1.5.4-2.2 0-.5.2-1.1.3-1.6 0-.5.2-1.1.2-1.6 0-.6.2-1.2.3-1.8l.2-1.4c0-.4.1-.7.2-1.1 0-.2.1-.3.3-.4.6-.3 1.2-.6 1.9-.9v.3c-.6.6-.8 1.4-1 2.1-.2.6-.3 1.3-.5 1.9l-.3 1.6-.3 1.9c0 .4 0 .9-.1 1.3 0 .5 0 1.1-.2 1.6v1.3Z"/>
  <path fill="#db344f" d="M24.7 205.4s0-.1-.1-.2c-.3-.2-.5-.5-.8-.7-.6-.6-.8-1.5-.4-2.3 0-.2.2-.3.3-.5v-.2c.8-.4 1.6-.6 2.4-.4.7.1 1.3.4 1.8.9l.5.5-1.3 1c-.7.5-1.3 1.1-1.9 1.6-.1.1-.3.2-.4.3Z"/>
  <path fill="#5a4c4c" d="M24.8 218.7v.1s0 .2.2.3c1 1.5 2 2.9 3.2 4.4l3 3.6 2.6 2.9.5.5s.1.2.2.3H34c0-.2-.2-.3-.3-.4l-1.2-1.2-2.1-2.4c-.7-.8-1.3-1.6-1.9-2.3-.2-.3-.4-.6-.7-.8 0-.1 0-.2-.2-.3-.7-.9-1.4-1.9-2-2.8-.5-.8-1.1-1.6-1.6-2.4l-.2-.2c0-.2 0-.3-.2-.3l-.2-.4v-.3h-.2v-.2c-.1-.4-.2-.6-.4-.8 0-.1 0-.2.2-.2.3.5.6.9.9 1.4.3.5.7 1 1 1.5l.2.2s0 .2.1.2Z"/>
  <path fill="#eddbcb" d="M44.9 212.8v.7h-.3c-.6-.2-.7-.3-.7-1v-5.6c0-.4.2-.5.5-.5s.6 0 .9.2c.2.1.5.2.7.3.2.1.3.3.3.5v1c-.1 0 0 .2 0 .3v1.7c-.2.2-.4.1-.6.1v-2.3c0-.3 0-.5-.3-.6-.2-.1-.5-.2-.7-.3h-.3c-.2.1-.3.3-.3.5v4.1c0 .3.2.5.4.6.1 0 .3.1.5.2Zm-10.8 64.1h.4c.4 0 .8.1 1.2.4.3.2.6.4.8.6.1 0 .2.2.3.3h-3c-.1-.3 0-.5.1-.8 0-.1.1-.3.2-.5Zm-2-68.7h-1.9s-.2-.1-.2-.2v-.6c0-.1 0-.3.2-.3h.7c.1 0 .3 0 .4-.1.1.1.3.1.5.1h.4c.2.4.3.8 0 1.2Zm-7.2 68.7h.4c.1.3.3.6.4.9v.4h-1.8c0-.2.2-.4.2-.6.2-.3.5-.5.8-.7Z"/>
  <path fill="#e79a69" d="M17.1 233.6c.1 0 .2-.1.3 0h-.3Z"/>
  <path fill="#b33a3a" d="M27.8 223.8v-.3.2Zm.7 1c-.1-.2-.3-.4-.4-.5.1.2.2.4.4.5Z"/>
  <path fill="#5a4c4c" d="M32.9 230.9h1v1.3c.2.4.2.9.2 1.3v1.2c-.3.3-.6.6-1 .8 0 0 0-.1-.1-.2 0-.3 0-.7-.1-1 0-.4-.1-.8-.2-1.3s0-.9-.1-1.3v-.2c0-.2 0-.3.2-.3Z"/>
  <path fill="#b33a3a" d="M32.3 235.7v-.3.3Zm-8.8-18.3c.1 0 .2.2.2.3-.1 0-.2-.2-.2-.3Zm-.5-.8Zm-.2-.3Zm.3.5Zm-.2-.3Z"/>
  <path fill="#c44b4b" d="M33.5 222.5v.2-.2Zm1.1-2.5s0-.2-.2-.2l.2.2Z"/>
  <path fill="#b33a3a" d="M34.6 220s0-.2-.2-.2l.2.2Z"/>
  <path fill="#5a4c4c" d="M36 230.5v-4c0-.7 0-1.4-.2-2v-.3c0-.7-.2-1.4-.2-2-.1-.9-.4-1.9-.6-2.8 0-.3-.1-.6-.3-.9v-1c.4.6.5 1.4.7 2.1.3 1 .5 2.1.7 3.2l.3 2.4v3.6c-.1.6 0 1.1 0 1.7 0 .1-.2.1-.3 0Z"/>
  <path fill="#ecb884" d="M23.6 209.3c-.1 0-.3 0-.4-.1-.4 0-.6.1-.7.4v.8c.2.3.4.6.7.8.2.1.4.2.6.2.4 0 .8-.4.7-.8-.1-.6-.5-1-1-1.3Zm.5 1h-.4l-.3.3c0 .2.1.3.2.6h-.2l-.3-.3c-.2-.2-.2-.4-.2-.7 0-.3.3-.4.5-.3.2 0 .3.1.4.2.2.1.2.3.2.5Z"/>
  <path fill="#d27659" d="m28.8 213.4.2-.4c.4.1.7.4 1.1.4h1.2c.1 0 0 .1 0 .2 0 0-.2 0-.2.1-.5.2-1.1.1-1.7 0-.2 0-.4-.1-.6-.2Zm1.8-1.1h.3c.2 0 .3 0 .4-.2.2-.2.2-.4.1-.6 0-.1-.1-.3-.2-.4v-.2h.2c.2.2.3.4.5.6 0 0 .1.2.2.2 0 .5-.2.6-.7.6h-.9Zm.6 2c-.1.2-.3.3-.5.3h-.6s-.1-.2 0-.2c.2-.2.4-.2.6-.2.2 0 .4 0 .5.2Z"/>
  <path fill="#6c5c5c" d="M34.3 234.5v-1.2c0-.4 0-.8-.1-1.3.5 0 1.1-.1 1.6-.2v1.1c0 .4.2.7.5.9.3.3.6.3 1.1.1h.3c.4 0 .6-.2.8-.5.2-.3.3-.6.3-1v.1c0 .4 0 .9.1 1.3v.5c0 .1 0 .1-.2.2-.1 0-.2 0-.2.1h-2.7c0-.1.1-.2.2-.3.2-.3.1-.6 0-.7a.6.6 0 0 0-.8 0c0 .1-.2.2-.3.3 0 .1-.2.2-.3.3Z"/>
  <path fill="#b3a095" d="M38.3 230.2c-.7 0-1.3.1-2 .2 0 .1-.2.1-.3 0-.2 0-.5 0-.8.1-.2 0-.5 0-.7.1H34v.1c0 .4 0 .8.1 1.3.5 0 1.1-.1 1.6-.2 0-.1.1-.2.2-.4s.3-.4.5-.4h1c.2 0 .3 0 .4.2l.4.5h.2c0-.5 0-1-.1-1.4Zm-3.8 1.3c-.2 0-.3 0-.3-.3.2-.1.4-.1.7-.2v.4c-.2 0-.3.1-.5.1Z"/>
  <path fill="#7a6565" d="M38.5 232.3c-.2-.2-.1-.4-.2-.7l-.4-.5c-.1-.1-.3-.2-.4-.2h-1 .3c0 .1-.2.2-.2.4-.3.8-.2 1.5.2 2.2.1.2.3.3.5.4h.3c.4 0 .6-.2.8-.5.2-.3.3-.6.3-1v-.2Zm-.6.7c-.1.2-.3.4-.5.4h-.2c.1 0 .2-.1.3-.2h-.2c-.3 0-.4-.2-.5-.5v-.7c0-.2.2-.4.5-.4.2 0 .4.2.5.4.2.4.2.7 0 1.1Z"/>
  <path fill="#6c5c5c" d="M38.5 232.3c-.2-.2-.1-.4-.2-.7h.2v.7Z"/>
  <path fill="#b33a3a" d="M38.4 234.7c0-.1.1-.1.2-.1v.3l-.2-.1Z"/>
  <path fill="#e79a69" d="M33.7 239.4Z"/>
  <path fill="#9cc1dc" d="M44.9 212.8c-.2 0-.3 0-.5-.2-.3-.1-.4-.3-.4-.6v-4.1c0-.2 0-.4.3-.5h.3c.2 0 .5.2.7.3.2.1.3.3.3.6v2.3c-.2.1-.3.2-.4.3-.2.1-.2.2-.2.4s0 .4.3.6h.3v.5l-.8.5Z"/>
  <path fill="#e79a69" d="M46.2 213.4c.1 0 .2 0 .3.2 0 .1 0 .3.1.4v.4c-.2.3-.5.4-.9.5-.4 0-.8 0-1.2-.3.3-.3.6-.5 1-.7.3 0 .6 0 .8-.3Z"/>
  <path fill="#eddbcb" d="M45.6 212.3v-.4c.2-.1.3-.2.6-.2 0 .3 0 .4-.2.5-.1 0-.3 0-.4.1Z"/>
  <path fill="#e8dec5" d="M46.2 213.4c-.2.3-.4.4-.8.3.2-.2.5-.3.8-.3Z"/>
  <path fill="#eddbcb" d="M44.9 213.5Zm.5-1.7Zm-16.8-4.3s.2 0 .3.2c.1.1.2.3.3.4v.3a3 3 0 0 0-.8.4c-.3.1-.6.2-.8.4-.2 0-.3 0-.4-.1-.1-.1-.2-.3-.3-.4v-.3l1.5-.6h.3Z"/>
  <path fill="#615252" d="M32.3 209.6h-.9c-.2-.1-.2-.4 0-.7.1-.3.4-.3.7-.1.2.2.3.4.3.8Zm-3.1.7c-.3 0-.6.2-.9.1-.2-.3-.2-.5 0-.8 0-.3.4-.4.6-.2.2.2.4.5.3.8Z"/>
  <path fill="#eddbcb" d="M25.4 206.4c0-.1.1-.1.2-.1 0 .1-.1.1-.2.1Z"/>
  <path fill="#d27659" d="M31.1 210.6Zm0 0Z"/>
  <path fill="#c44b4b" d="M24.8 218.7s0-.2-.1-.2c.1 0 .1.1.1.2Zm3 5.1v-.3.2Zm.7 1c-.1-.2-.3-.4-.4-.5.1.2.2.4.4.5Zm-.7-1.2c-.1 0-.2-.1-.2-.3.1 0 .2.2.2.3Z"/>
  <path fill="#d27659" d="M24.1 210.2h-.4l-.3.2.2.6h-.2l-.3-.3c-.2-.2-.2-.4-.2-.7 0-.3.3-.4.5-.3.2 0 .3.1.4.2.2.1.2.3.2.5Zm0 0Z"/>
  <path fill="#5a4c4c" d="M36.4 231.1h.3c0 .2-.1.3-.2.4-.3.8-.2 1.5.2 2.2.1.2.3.3.5.4-.4.2-.8.2-1.1-.1-.3-.3-.4-.6-.5-.9V232c0-.1.1-.2.2-.4s.3-.4.5-.4Z"/>
  <path fill="#6c5c5c" d="M34.9 231.4c-.2 0-.3 0-.5.1-.2 0-.3 0-.3-.3.2-.1.4-.1.7-.2v.4Z"/>
  <path fill="#b3a095" d="M37.5 233.2h-.2c-.3 0-.5-.2-.5-.5v-.6h.1c.3-.2.6-.1.7.2.1.4.2.7-.2 1Z"/>
  <path fill="#615252" d="M37.5 233.2c.3-.3.3-.6.2-1-.1-.3-.4-.4-.7-.2h-.1v-.1c0-.2.2-.4.5-.4.2 0 .4.2.5.4.2.4.2.7 0 1.1-.1.2-.3.4-.5.4h-.2l.3-.2Zm-.6-1.1v.2c-.1 0-.1-.1 0-.2Z"/>
  <g fill="#4d4d4d" opacity=".9">
    <g opacity=".5">
      <path d="M302.9 313.6c-2.6.1-5.5 0-8.3 0-5 0-9.6.8-14.3 1.1 3.2-1.6 8.4-2 12.6-2.2 2 0 4.1-.2 6 0 1.6.2 2.8.7 4.4 1h-.4Zm-.1-.3c-1.6-.8-3-1.9-4.7-2.7-2.8-1.1-6.3-1.6-9-2.6 3.4.1 6.6 0 9.5 1.2 2.8 1.2 2.2 2.9 4.2 4.1h.1Zm5 1.6c-2.5-3.2-8.2-5.9-12.2-8.8 6.6 1.3 12.5 5 12.2 8.8Zm7.5 2.9c-4.6-3.6-10.6-7.8-12.2-12.2 3.5 1.4 7.3 4 9.2 6.1 1.8 2 1.5 4.2 2.6 6.2.3-.1 0-.1 0-.3h.4Zm3.3 1.8c1.9-1.6 1.3-4.9.7-6.7-.8-2.7-2.2-5.9-4.9-8.3.2 3 .4 6 1.5 8.9.8 2.1 2.1 4.1 3 6.2h-.4Zm-11.1-4.4c-3.4.6-7.8.5-11.2.6-5 .3-9.8.9-14.6 1.5 5.1-1.4 9.1-2.5 15-2.6 3.5 0 7.9.3 11 .2v.2Z"/>
      <path d="M315.2 317.7c-3.6.9-9.6.5-13.8.8-5.6.5-11.8 1-16.9 2 7.9-4.5 20-3.6 30.3-2.8h.4Zm3.2 1.8c-3.8.6-8.2.8-12.3 1.4-5.8.9-10.9 2.5-16 4.2.7-1.3 5.1-3.1 7.1-3.8 2.2-.8 4.6-1.4 7.3-1.8 4.7-.6 9-.2 13.7 0h.1Zm3.5 1.7c-2.9 1-7 1.8-10.2 2.7-5.3 1.4-10.4 2.9-15.1 4.8 1.9-2.7 7.5-4.9 12.5-5.9 4.3-.9 8.8-.9 13-1.5h-.2Zm2 1.7c-2.1 1.6-3.9 3.3-6.4 4.9-3.7 2.3-8 3.9-12.2 5.9 2.4-2.7 5.6-5.3 9.2-7.5 1.4-.9 2.9-1.6 4.9-2.2 1.5-.4 4-.8 4.9-1.2l-.3.2Zm2.6 1.5c.5 4-5 7.6-9.2 10.6-1.2-3.4 4.5-8.6 9.3-10.8v.2Zm8.5-5.5v2.9c-2.5 1-5.1 1.8-7.7 2.3-.2 0-.5 0-.7.1h.4c0-.1 0-.2.1-.2 2-1.7 3.6-3.3 6.6-4.6.4-.2.8-.4 1.2-.5Z"/>
      <path d="M335 310.4v4.9s0 .1-.1.2c-2.1 3.1-6.1 4.9-10.1 7.1-.2.1-.5.3-.7.4l.6-.4c.5-2.2 3.1-4.5 4.6-6.6 1-1.4 2.2-2.6 3.7-3.8.6-.5 1.3-1.1 2-1.6Zm-13.2 10.8c6.7-3.9 4.6-10.9 3.2-15.5-1.2 2.3-1.4 4.8-2.5 7.2-1.1 2.5-2.3 5.7-1.1 8.2h.4Z"/>
      <path d="M334.5 332.1s0-.1-.1-.3c0-.1 0-.2-.2-.4 0-.1-.2-.3-.3-.5-.1-.2-.3-.4-.5-.6-.2-.2-.4-.5-.7-.7-.5-.5-1.1-1-1.8-1.6-.4-.3-.7-.6-1.1-.9-.1 0-.2-.2-.3-.2 0 0-.2-.2-.3-.2-.2-.2-.4-.3-.6-.5l-1.3-1c-.5-.3-1-.7-1.5-1-1-.7-2.2-1.3-3.3-2-1.2-.7-2.4-1.3-3.7-2-.6-.3-1.2-.7-1.8-1-.6-.3-1.3-.6-1.9-.9a3 3 0 0 0-1-.4c-.3-.1-.7-.3-1-.4-.3-.1-.7-.3-1-.4-.3-.1-.7-.3-1-.4-1.4-.5-2.7-1-3.9-1.5-1.3-.5-2.4-.9-3.5-1.3l-1.5-.6c-.5-.2-1-.4-1.4-.5-.4-.2-.9-.3-1.3-.4-.4-.1-.8-.2-1.1-.3-.3 0-.7-.2-.9-.2-.3 0-.5-.1-.7-.1-.4 0-.6-.1-.6-.1h.6c.2 0 .5 0 .8.1s.6.1 1 .2c.4 0 .8.2 1.2.3.4.1.9.2 1.4.4 1 .3 2 .6 3.1 1s2.3.8 3.6 1.2c1.3.4 2.6.9 4 1.4.4.1.7.2 1 .4.4.1.7.3 1 .4.7.3 1.5.5 2.1.9l2 .9c.7.3 1.3.7 1.9 1 1.2.7 2.5 1.3 3.7 2 .6.3 1.2.7 1.7 1 .5.4 1.1.7 1.6 1 .5.4 1 .7 1.5 1 .5.4.9.7 1.3 1l.6.5c.1 0 .2.2.3.3 0 0 .2.2.3.2.3.3.7.6 1 1 .6.6 1.2 1.2 1.6 1.7.2.3.4.5.6.7.1.2.3.4.4.6 0 .2.2.4.2.5v.7Z"/>
      <path d="M299 312.2c-6.2-.2-12.1-1.5-18.5-1.3 4.9-1.9 15.9-.8 18.5 1.3Z"/>
    </g>
    <g opacity=".5">
      <path d="M31 313.6c2.6.1 5.5 0 8.3 0 5 0 9.6.8 14.3 1.1-3.2-1.6-8.4-2-12.6-2.2-2 0-4.1-.2-6 0-1.6.2-2.8.7-4.4 1h.4Zm.1-.3c1.6-.8 3-1.9 4.7-2.7 2.8-1.1 6.3-1.6 9-2.6-3.4.1-6.6 0-9.5 1.2-2.8 1.2-2.2 2.9-4.2 4.1H31Zm-5.1 1.6c2.5-3.2 8.2-5.9 12.2-8.8-6.6 1.3-12.5 5-12.2 8.8Z"/>
      <path d="M18.6 317.8c4.6-3.6 10.6-7.8 12.2-12.2-3.5 1.4-7.3 4-9.2 6.1-1.8 2-1.5 4.2-2.6 6.2-.3-.1 0-.1 0-.3h-.4Zm-3.4 1.8c-1.9-1.6-1.3-4.9-.7-6.7.8-2.7 2.2-5.9 4.9-8.3-.2 3-.4 6-1.5 8.9-.8 2.1-2.1 4.1-3 6.2h.4Zm11.1-4.4c3.4.6 7.8.5 11.2.6 5 .3 9.8.9 14.6 1.5-5.1-1.4-9.1-2.5-15-2.6-3.5 0-7.9.3-11 .2v.2Z"/>
      <path d="M18.7 317.7c3.6.9 9.6.5 13.8.8 5.6.5 11.8 1 16.9 2-7.8-4.5-20-3.6-30.3-2.8h-.4Zm-3.2 1.8c3.8.6 8.2.8 12.3 1.4 5.8.9 10.9 2.5 16 4.2-.7-1.3-5.1-3.1-7.1-3.8-2.2-.8-4.6-1.4-7.3-1.8-4.7-.6-9-.2-13.7 0h-.1Zm-3.5 1.7c2.9 1 7 1.8 10.2 2.7 5.3 1.4 10.4 2.9 15.1 4.8-1.9-2.7-7.5-4.9-12.5-5.9-4.3-.9-8.8-.9-13.1-1.5h.2Zm-2.1 1.7c2.1 1.6 3.9 3.3 6.4 4.9 3.7 2.3 8.1 3.9 12.2 5.9-2.4-2.7-5.6-5.3-9.2-7.5-1.4-.9-2.9-1.6-4.9-2.2-1.5-.4-4-.8-4.9-1.2l.3.2Zm-2.6 1.5c-.5 4 5 7.6 9.2 10.6 1.2-3.4-4.5-8.6-9.3-10.8l.2.2Zm-.1-.2c-.2 0-.4 0-.7-.1-2.2-.4-4.4-1.1-6.5-1.9v-2.9c3 1.3 4.6 2.9 6.6 4.6l.1.1h.4Zm2.6-1.4c-.2-.1-.5-.3-.7-.4-3.4-1.8-6.9-3.4-9.1-5.8v-5.4c.3.2.6.5.9.7 1.4 1.2 2.7 2.4 3.7 3.8 1.5 2.1 4.1 4.4 4.6 6.6l.6.4Zm2.3-1.6c-6.7-3.9-4.6-10.9-3.2-15.5 1.2 2.3 1.4 4.8 2.5 7.2 1.1 2.5 2.3 5.7 1.1 8.2h-.4Z"/>
      <path d="M-.7 332.1s0-.1.1-.3c0-.1 0-.2.2-.4 0-.1.2-.3.3-.5.1-.2.3-.4.5-.6.2-.2.4-.5.7-.7.5-.5 1.1-1 1.8-1.6.3-.3.7-.6 1.1-.9 0 0 .2-.2.3-.2 0 0 .2-.2.3-.2.2-.2.4-.3.6-.5l1.3-1c.4-.3.9-.7 1.5-1 1-.7 2.2-1.3 3.3-2 1.2-.7 2.4-1.3 3.7-2 .6-.3 1.3-.7 1.8-1 .6-.3 1.3-.6 1.9-.9a3 3 0 0 1 1-.4c.3-.1.7-.3 1-.4.3-.1.7-.3 1-.4.3-.1.7-.3 1-.4 1.4-.5 2.7-1 3.9-1.5 1.3-.5 2.4-.9 3.5-1.3l1.5-.6c.5-.2 1-.4 1.4-.5.4-.2.9-.3 1.3-.4.4-.1.8-.2 1.1-.3.3 0 .7-.2.9-.2.3 0 .5-.1.7-.1.4 0 .6-.1.6-.1H37c-.2 0-.5 0-.8.1s-.6.1-1 .2l-1.2.3c-.4.1-.9.2-1.4.4-1 .3-2 .6-3.1 1s-2.3.8-3.6 1.2c-1.3.4-2.6.9-4 1.4a3 3 0 0 0-1 .4c-.4.1-.7.3-1 .4-.7.3-1.5.5-2.1.9l-1.9.9c-.7.3-1.3.7-1.9 1-1.2.7-2.5 1.3-3.7 2-.6.3-1.2.7-1.7 1-.6.4-1.1.7-1.6 1-.5.4-1 .7-1.4 1-.4.4-.9.7-1.3 1l-.6.5-.3.3s-.2.2-.3.2c-.3.3-.7.6-1 1-.6.6-1.2 1.2-1.6 1.7-.2.3-.4.5-.6.7-.2.2-.3.4-.4.6 0 .2-.2.4-.2.5v.7Z"/>
      <path d="M34.8 312.2c6.2-.2 12.1-1.5 18.5-1.3-4.9-1.9-15.9-.8-18.5 1.3Z"/>
    </g>
  </g>
  <path fill="#ed1c24" d="M0 107.2h335v16.3H0zm0 20.5h335V144H0z" opacity=".7"/>
  <g fill="#fff" data-name="uuid-ab3f9280-a7a7-4e05-8799-1f0f223efe25">
    <path d="M29.6 13.9c0 .5-.2 1-.6 1.4l-6.3 6.3-6.8-3.9v-3.9c0-1.1.9-2 2-2s2 .9 2 2v4.9l6.3-6.3c.8-.8 2.1-.8 2.8 0 .4.4.6.9.6 1.4ZM29 31.7c-.4.4-.9.6-1.4.6s-.5 0-.8-.2c-.2 0-.5-.2-.6-.4l-2.1-2.1-4.1-4.1v4.9c0 1.1-.9 2-2 2s-2-.9-2-2v-3.8l6.8-3.9 4.2 4.2 2.1 2.1c.8.8.8 2.1 0 2.8ZM22.4 22s0-.2-.2-.2l-1.7-1-4.6-2.6L12 16c-.2-.1-.5 0-.6.2v11.9c0 .2.2.5.4.5h.2l3.9-2.2 6.3-3.6s0-.1.1-.2v-.3Zm-9.6-4.7 3 1.7 4.9 2.8s.1 0 .1.1v.3s0 .2-.2.2l-4.9 2.8-3 1.7c-.2 0-.4 0-.5-.1v-9.3c0-.2.1-.4.4-.4h.2Z"/>
    <path d="M19.5 22.2s0 .1-.1.2l-3.7 2.1-2.3 1.3c-.1 0-.3 0-.4-.1v-6.9c0-.1.1-.3.3-.3h.1l2.3 1.3 3.7 2.1s.1 0 .1.1v.1Zm43-.6-5.6-2.8-3.4-1.7c-.2-.1-.4 0-.5.1v9.5c.1.2.3.4.6.4h.4l3.2-1.8 2-1 3.5-1.9s.2-.1.2-.2V22s0-.2-.2-.2Zm-5.6 2.9-2.6 1.4c-.2 0-.3 0-.4-.1v-7.3c0-.2 0-.3.2-.3h.1l2.7 1.3 1 .5 3.4 1.7s.1 0 .2.2v.2s0 .1-.1.1l-4.3 2.3Z"/>
    <path d="M60.1 22s0 .1-.1.1l-3.2 1.7-2 1.1h-.3v-5.4c0-.1 0-.2.2-.2l2 1 3.3 1.6.1.1v.1Zm-21.6-4.8h-4.8v9.7h2.4v-3.2h2.5c2.3 0 4-1.4 4-3.4 0-1.9-1.8-3.2-4.1-3.2Zm-.2 4.6H36v-2.7h2.3c1.2 0 1.9.5 1.9 1.3s-.8 1.4-1.9 1.4ZM51.8 27l-7.7.1-.2-9.7h2.4l.1 7.8 5.3-.1.1 1.9zm15.7-3.7.1 3.5h-2.4v-3.5l-4.3-6.1 2.7-.1 2.7 4.3 2.8-4.3 2.6-.1-4.2 6.3zm14.4 3.9-1.6.1-4.1-4.5-1.7 1.6v2.9l-1.2.1-.1-9.7h1.2l.1 5.3 5.4-5.4h1.6L77 22l4.9 5.2zm6.1-9.9c-3 0-5.5 2.4-5.5 5.1 0 2.7 2.6 5 5.6 5 3 0 5.5-2.4 5.4-5.1 0-2.7-2.6-5-5.6-4.9Zm.4 9c-2.4.2-4.4-1.6-4.6-3.9a4.27 4.27 0 0 1 8.5-.1 4.2 4.2 0 0 1-3.9 4Zm14.8-1.8c0 1.5-1.2 2.8-3.8 2.8-1.6 0-3.1-.5-4.3-1.5l.8-.9c1 .9 2.2 1.4 3.6 1.4 1.7 0 2.5-.9 2.5-1.7 0-1-1-1.4-2.9-1.8-2.2-.4-3.6-1-3.6-2.7 0-1.5 1.5-2.8 3.6-2.8 1.4 0 2.7.4 3.8 1.3l-.7.9c-.8-.8-2-1.2-3.1-1.2-1.3 0-2.3.8-2.3 1.7 0 1 1.1 1.3 2.9 1.7 2.1.4 3.6 1.1 3.6 2.8Zm12.8 2.7h-1.2l-.1-7.3-3.9 6.8-4.1-6.7.1 7.3-1.3.1-.1-9.7h1.3l4 6.7 4-6.8h1.2l.1 9.6zm7.7-9.9c-3 0-5.5 2.4-5.5 5.1 0 2.7 2.6 5 5.6 5 3 0 5.5-2.4 5.4-5.1 0-2.7-2.6-5-5.6-4.9Zm.4 9c-2.4.2-4.4-1.6-4.6-3.9a4.2 4.2 0 0 1 3.9-4c2.4-.2 4.4 1.6 4.6 3.9a4.2 4.2 0 0 1-3.9 4Zm14.8-1.8c0 1.5-1.3 2.8-3.8 2.8-1.5 0-2.9-.4-4.1-1.3l-.2-.2.8-.9c.2.1.3.3.5.4.9.6 1.9 1 3 .9 1.7 0 2.5-.9 2.5-1.7 0-.8-.6-1.2-1.6-1.5-.3-.1-.7-.2-1.1-.3h-.2c-2.2-.4-3.6-1-3.6-2.7 0-1.5 1.5-2.8 3.6-2.8 1.4 0 2.7.4 3.8 1.3l-.7.9c-.9-.8-2-1.2-3.1-1.2-1.3 0-2.3.8-2.3 1.7 0 1 1.1 1.3 2.9 1.7.4 0 .8.2 1.1.3.4.1.7.2 1 .4.9.4 1.5 1.1 1.5 2.1Z"/>
  </g>
  <path fill="#615252" d="M285.3 275.1v.3h-.3c-.6-1.1-1.1-2.1-1.7-3.2-3.5-6.3-6.9-12.6-10.4-19-1.2-2.1-2.3-4.2-3.5-6.3 0-.2-.2-.4-.3-.5l-.2-.2c-.2 0-.8.4-.9.6 0 .1-.1.3-.2.5-.3 1-.5 2-.8 2.9l-6.6 24.7v.4h-.4v-.5c0-.3-.1-.6-.2-.9-.1-1.2-.2-2.3-.4-3.4-.1-1.2-.3-2.4-.4-3.6 0-.8-.2-1.7-.3-2.5 0-.9-.2-1.9-.3-2.8 0-.9-.2-1.8-.2-2.6 0-1-.2-2-.3-3 0-.9-.2-1.9-.2-2.8l-.3-3.3c0-.5 0-1-.1-1.5-.1-1.7-.2-3.3-.4-5l-.3-5v-.9c-.1 0-.3 0-.4.1-1 .4-1.9.2-2.7-.4-.4-.3-.8-.8-1.1-1.2-.6-.8-1-1.8-1.4-2.7-.5-1.2-.9-2.5-1.2-3.8 0-.2-.2-.5-.2-.7 0-.4-.1-.8-.2-1.2 0-.5-.2-1-.3-1.5-.2-1-.4-1.9-.5-2.9-.1-.8-.2-1.7-.4-2.5 0-.6-.2-1.1-.3-1.7v-.9l-.3-3c0-.4 0-.8-.1-1.2 0-.6-.1-1.1-.2-1.7 0-.8-.1-1.6-.2-2.4h.3v1.4c0 .6.1 1.2.2 1.8 0 .5 0 1.1.1 1.7 0 .4 0 .8.1 1.1 0 .8.2 1.5.3 2.3 0 .7.2 1.3.3 2v1c.2 1 .3 2.1.5 3.1.2 1.4.5 2.8.8 4.2 0 .2.1.3.2.5 0 .3 0 .5.2.8v.5c.1.5.2.9.4 1.3.3 1.1.7 2.2 1.3 3.2.3.6.7 1.2 1.1 1.8.2.3.5.5.9.7.8.5 1.6.4 2.4 0 0 0 0-.1.2-.2.5.1 1 0 1.5.1h5.7c0 .1 0 .2.1.2h1.1s.1 0 .2-.1.3 0 .5 0h3.6c.6 0 1.2 0 1.8-.1.1 0 .2 0 .2-.2 0 0 0 .1-.2.1-.6 0-1.2.2-1.8.1H265c0-.3 0-.6-.1-.9h-1.4v.7H258c-.5 0-1 0-1.5-.1v-2.1c.2 0 .6 0 1 .1h2.2c1.1 0 2.2 0 3.3-.2 1.1-.1 2.2-.2 3.3-.4l3.4-.6c.3 0 .7-.1 1.1-.2 0 .7 0 1.4.2 2 0 .3.2.5.2.8 0 .1.1.2.2.4.2.4.5.8.8 1.2.5.5 1.1.8 1.8.7h.4l-.3.2c0 .2.1.5.2.7 0-.2-.1-.4-.2-.6l.3-.2c.4-.2.8-.3 1.1-.6 0 0 .2 0 .2-.1.2 0 .3 0 .4-.2l1.8-.9h.3c0 .3 0 .5.1.7 0 .3.1.7.2 1 0 .4.2.6.6.7h.1c.1.8.3 1.6.4 2.3.3 1.7.6 3.4.8 5.1.2 1.5.5 2.9.7 4.4.3 1.7.6 3.3.8 5 .3 1.6.5 3.3.8 5 .3 1.7.5 3.4.8 5.1.2 1.4.5 2.9.7 4.3 0 .6.2 1.2.3 1.9-.1 0-.2 0-.3-.2 0 .2.1.2.3.2.2.9.3 1.8.5 2.8Z"/>
  <path fill="#6c5c5c" d="M260.2 274.6Zm14.4-35.9-.3.2.3-.2Z"/>
  <path fill="#feaf48" d="M256.2 225.5c-.2 1.4 0 2.7 0 4.1v.9-5Z"/>
  <path fill="#ff953e" d="M272 230.2c-.3-.3-.7-.6-1-.9-1.5-1.4-3-2.9-4.3-4.6-.3-.4-.6-.7-.9-1.1-.1-.2-.2-.3-.3-.5a37.8 37.8 0 0 1-3.4-5.9l-1.2-3c0-.1 0-.3-.1-.4 0 0-.1.2-.2.3h-3.1c-.1-.1 0-.3 0-.5-.1 0-.2-.1-.2-.3 0-.4 0-.8.1-1.2 0-.2 0-.5.1-.8.4-.1.8 0 1.2 0v-.5h.4c0 .2 0 .3.1.5h.8c0-.5-.2-1-.3-1.5 0-.2 0-.4-.1-.6v-.2c0-.3 0-.7-.1-1 0-.5-.1-.9-.1-1.4v-.6l-.1.1c-.4.6-.8 1.1-1.3 1.7l-.9 1.2c-1.4 2-2.6 4.2-3.7 6.4 0 .3.3.6.5.8.1.2.3.3.3.6l.5.5c.1-.5.3-.9.4-1.3.5-1.7 1.1-3.3 1.8-5 .3-.6.6-1.3.9-1.9 0-.1.1-.2.2-.3 0 .5-.2 1.1-.4 1.6 0 .5-.2 1.1-.3 1.7 0 .7-.2 1.4-.3 2.1l-.3 2.4c0 .5 0 .9-.1 1.3 0 .6 0 1.2-.1 1.8 0 1.1-.1 2.2-.2 3.3v2.3c-.2 1.4 0 2.8 0 4.1v4.9c.2 0 .3.2.5.2.3 0 .7 0 1.1.1h2.2c1.1 0 2.2 0 3.3-.2.4 0 .8 0 1.2-.1.7 0 1.4-.2 2.2-.2l3.4-.6c.4 0 .7-.1 1.1-.2v-.6c0-.6.2-1.3.5-1.9.2-.3.4-.7.6-1Zm-14.1-21.6Zm30.4 1c-.1.1-.3.2-.4.3-3.4 2.6-6.8 5.1-10.3 7.7-.9-.5-1.6-1.2-2.2-1.9-1-1.1-1.7-2.4-2.3-3.8-.5-1.1-.8-2.3-1-3.5 0-.4-.2-.8-.1-1.2 0-.9 0-1.9.2-2.8.1-.5.3-1 .6-1.4v-.2c.6 0 1.1-.2 1.7-.3l3.4-.6c.9-.2 1.8-.3 2.8-.5.9-.2 1.8-.3 2.7-.5h.5c0 .2-.2.3-.3.5-.3.5-.6 1.1-.6 1.7 0 .8 0 1.6.3 2.3 0 .2.2.5.3.8 0 .1.1.2.2.3.4.7.8 1.4 1.4 1.9.4.3.8.6 1.2.7.6.3 1.3.4 2 .4Z"/>
  <path fill="#ff953e" d="M278.6 231v.2s-.2 0-.3-.1c-.5-.3-1.1-.7-1.6-1.1 0 0-.2 0-.3-.1h-.2c0-.2-.2-.3-.3-.4-.9-.8-2-.9-3.1-.2-.1 0-.3.2-.4.3-.6-.6-1.3-1.1-1.9-1.7-1.2-1.1-2.3-2.4-3.4-3.7l-1.5-2.1-.3-.3c-.6-1-1.3-2-1.8-3.1a29.9 29.9 0 0 1-3-8.2c-.2-.9-.3-1.9-.5-2.8 0-.8-.1-1.6-.2-2.4l.5-.4v.2c0 .1 0 0 0 0v-.2c.4-.5 1-.8 1.5-1.1.1.1.2.3.3.4.2.2.4.3.7.3h1.2a7.74 7.74 0 0 0 3.9-2.4h.5c0 .5 0 .9-.1 1.4 0 .7-.2 1.4-.3 2.1 0 .4-.1.8-.2 1.2 0 .4 0 .9-.1 1.3 0 .6-.1 1.2-.2 1.8v.1c0 .6 0 1.2-.1 1.8-.1.8 0 1.5-.2 2.2v.7c0 1.1-.2 2.1-.1 3.2-.2 1.3 0 2.6-.1 3.9 0 .3 0 .4.3.6.9.5 1.8 1 2.8 1.5 1.2.6 2.5 1.1 3.8 1.6.1 0 .3 0 .4.1.7.3 1.4.5 2.1.7.4 0 .8.2 1.2.2h.2c0 .7.2 1.3.3 2 .1.8.2 1.7.4 2.5Zm-18.1-26v.2-.2Z"/>
  <path fill="#615252" d="m274.6 238.7-.3.2.3-.2Z"/>
  <path fill="#edb985" d="M284.4 202.8Z"/>
  <path fill="#c62346" d="M279.2 226.6c-.2.1-.3 0-.5 0h-.9c-.4 0-.8-.1-1.2-.2-.7-.2-1.4-.3-2.1-.7 0-.2-.1-.3-.2-.5 0 .2.1.3.2.5-.1 0-.3 0-.4-.1-1.3-.5-2.6-1-3.8-1.6-.9-.5-1.8-1-2.8-1.5-.2-.1-.3-.3-.3-.6 0-1.3 0-2.6.1-3.9 0-1.1 0-2.1.1-3.2v-.7c.2-.8 0-1.5.2-2.2 0-.6 0-1.2.1-1.8v-.1c0-.6.1-1.2.2-1.8 0-.4 0-.9.1-1.3 0-.4.1-.8.2-1.2l.3-2.1c0-.4 0-.9.1-1.3 0 0 .2-.2.3-.2.7 0 1.3 0 2 .2.7 0 1.2.2 1.8.5v.2c-.3.4-.5.9-.6 1.4-.2.9-.2 1.9-.2 2.8 0 .4 0 .8.1 1.2.2 1.2.5 2.4 1 3.5.6 1.4 1.3 2.7 2.3 3.8.7.8 1.4 1.4 2.2 1.9.5 3 1.1 6 1.6 9Z"/>
  <path fill="#c62346" d="M274.4 225.6c0-.2-.1-.3-.2-.5 0 .2.1.3.2.5Z"/>
  <path fill="#db344f" d="M274.4 225.6c0-.2-.1-.3-.2-.5 0 .2.1.3.2.5Z"/>
  <path fill="#feaf48" d="M260.5 205v.2-.2Z"/>
  <path fill="#edb985" d="M254.2 217v2.1c0 .3-.2.6-.3.9 0-.3.2-.6.2-.9.1-.6 0-1.1 0-1.7v-.4Z"/>
  <path fill="#683625" d="M259.8 195.5c-.4-.2-.5-.6-.5-1V193c-.1-.4-.2-.8-.3-1.3 0-.5.2-.9.7-1.2.3-.2.7-.3 1.1-.4h.3v-.3c.1-.6.6-1 1.1-1 .5 0 1 0 1.4.2.4.2.8.4 1.3.7 0 0 .2 0 .3-.1.3-.1.5-.2.8-.2.5 0 .9.2 1.2.6.3.4.4.8.4 1.2 0 .7 0 1.4-.3 2.1 0 0 .1 0 .2.1.5.2.7.6.8 1.1 0 .5 0 1-.2 1.5-.2.7-.6 1.3-1.1 1.8l.2 2.2-.6-1.2c0-.2-.1-.4-.4-.6v-.3c.2-.3.2-.6.3-.9 0-.4 0-.8-.2-1.1-.2-.4-.6-.4-.9-.2 0 0-.2.1-.2.2-.2.2-.3.5-.4.8-.1.4-.1.9 0 1.3-.2.1-.4.1-.6.1-.3-.4-.4-.8-.6-1.2l-.3.2h-1.6c-.2 0-.4-.2-.4-.4v-.3c0-.2.1-.3.4-.3h1.5v-.2c0-.3-.1-.6-.2-.8-.1-.6-.2-1.2 0-1.9v-.1c-.4 0-.8 0-1.2.1-.5 0-1.1.2-1.6.4-.3.1-.5.4-.6.7 0 .5 0 1-.1 1.4Z"/>
  <path fill="#615252" d="M260.2 274.6Z"/>
  <path fill="#ecb884" d="M266.4 197.8c.2-.3.2-.6.3-.9 0-.4 0-.8-.2-1.1-.2-.4-.5-.4-.9-.2 0 0-.2.1-.2.2-.2.2-.3.5-.4.8-.1.4-.1.9 0 1.3-.2.1-.4.1-.6.1-.3-.4-.4-.9-.6-1.2-.1 0-.2.1-.3.2-.2 0-.3 0-.5.1v.4c0 .1-.1.3-.3.3-.2 0-.3 0-.4-.2 0-.1 0-.2-.1-.4.2 0 .3 0 .4-.1v-.2h-.8c-.3 0-.4-.2-.4-.4v-.3c0-.2.1-.3.4-.3h1.5v-.2c0-.3-.1-.6-.2-.8-.1-.6-.2-1.2 0-1.9v-.1h-1.2c-.5 0-1.1.2-1.6.4-.3.1-.5.4-.6.7 0 .5 0 1-.1 1.4v.8c.2 0 .5 0 .7-.1s.3 0 .4.3v.3c0 .2 0 .3-.3.4-.2 0-.5.1-.8.2 0 .5 0 1 .1 1.5.1 1.1.3 2.1.6 3.2.1.4.2.8.4 1.1.4.1.7 0 1 0 .4 0 .8-.1 1.2-.2.7-.2 1.5-.4 2.2-.8.3-.1.5-.3.8-.5.3-.2.4-.5.4-.8v-3Zm-5.8.3h-.1c-.1 0-.1 0-.2-.4.2-.1.4-.1.6 0 0 .4 0 .6-.2.6Zm.8 1.3c-.1-.1-.2-.3-.1-.5 0-.3.2-.6.3-.9 0 0 .1 0 .2-.1 0 .3 0 .5-.1.7 0 .2 0 .5.1.7h.5c-.2.2-.3.2-.5.3-.1 0-.2 0-.3-.1Zm1.4 1.6h-.8c-.2 0-.2-.2-.2-.5 0-.2.2-.3.5-.3s.6 0 .8.3c0 .3 0 .4-.2.5Zm3.3-3.3v-.4c0-.1 0-.2-.2-.3-.1 0-.3 0-.4.1 0 0-.1.2-.2.3 0-.5 0-.8.3-1.1.3-.3.6-.2.8.2.1.4.1.7-.2 1.1Zm-18.9 11.9Z"/>
  <path fill="#db344f" d="M276.4 229.9c.1 0 .2 0 .3.1.5.4 1.1.7 1.6 1.1 0 0 .2 0 .3.1.2.2.4.3.6.5.6.4 1.2.8 1.7 1.4v.4c.1.2.1.4.1.7 0 .4 0 .8-.2 1.1-.3.3-.6.6-1 .8 0 .3.1.7.1 1 0 .4.1.8.2 1.2 0 .6 0 .8-.6 1h-.1c-.3-.2-.5-.4-.6-.8 0-.3-.1-.7-.2-1 0-.2 0-.4-.1-.7h-.3l-1.8.9c-.1 0-.3.1-.5.2 0 0 0-.2.2-.3.4-.4.7-.9.9-1.4.5-1.2.7-2.4.5-3.6-.1-1-.4-1.9-1-2.7v-.2Z"/>
  <path fill="#615252" d="M260 205.4c0 .8 0 1.6.2 2.4.1.9.3 1.9.5 2.8.6 2.9 1.6 5.6 3 8.2.5 1.1 1.2 2.1 1.8 3.1 0 .1.2.2.3.3l1.5 2.1c1 1.3 2.2 2.6 3.4 3.7.6.6 1.3 1.1 1.9 1.7-.2.2-.3.4-.5.5-.3-.3-.7-.6-1-.9-1.5-1.4-3-2.9-4.3-4.6-.3-.4-.6-.7-.9-1.1-.1-.2-.2-.3-.3-.5a34.7 34.7 0 0 1-3.4-5.9c-.4-1-.8-1.9-1.2-3 0-.1-.1-.3-.1-.4 0-.3-.2-.6-.3-.9-.1-.6-.3-1.1-.4-1.6 0-.5-.2-1-.3-1.5-.2-1.1-.4-2.1-.4-3.2v-.6c0-.3.2-.6.5-.8h.2Z"/>
  <path fill="#db344f" d="M284.4 202.8c0 .6.1 1.2.3 1.8.3.8.7 1.5 1.2 2.1.5.6 1.1 1.2 1.8 1.6.6.3 1.3.3 2 .1.1 0 .3 0 .5-.1-.4.4-.9.8-1.3 1.1-.2.2-.4.1-.7.2-.7 0-1.4-.2-2-.4-.4-.2-.8-.4-1.2-.7a4.5 4.5 0 0 1-1.4-1.9c0-.1-.1-.2-.2-.3 0-.2-.2-.5-.3-.8-.3-.8-.3-1.5-.3-2.3 0-.6.3-1.2.6-1.7.1-.2.2-.3.3-.5h.1c0-.1.2-.2.2-.3.2-.2.4-.2.6-.2.5 0 .9 0 1.4-.1-.2 0-.3.2-.5.2-.8.3-1.2.8-1.4 1.6 0 .2-.1.4 0 .6Z"/>
  <path fill="#e79a69" d="M262 203c.4 0 .8-.1 1.2-.2.8-.2 1.5-.4 2.2-.8.3-.1.5-.3.8-.5.3-.2.4-.5.4-.8V198c.2.1.3.4.4.6.2.4.3.8.6 1.2.2.6.5 1.2.7 1.8 0 .2.1.3.2.5-.4.5-.8.9-1.3 1.2-.8.6-1.6 1-2.6 1.2h-1.2c-.2 0-.5-.1-.7-.3-.1-.1-.2-.3-.4-.4v-1Z"/>
  <path fill="#5a4c4c" d="M247.1 209.6c-.8-.3-1.2-.9-1.4-1.6v-.1c.1 0 .3 0 .4.1.2 0 .3 0 .4-.2v-.2s.1 0 .2.1.2.3.4.4c.6.5 1.1 0 1.3-.4v-1.4l.2.4c0 .5.2.9.1 1.4 0 .3 0 .5-.1.8-.1.4-.3.6-.7.7-.1 0-.3 0-.4.1h-.3Z"/>
  <path fill="#eddbcb" d="M260.4 275.3h.1c0 .1 0 .3.1.5s.1.5 0 .7c-.4 0-2 .1-3.2 0v-.2c.6-.4 1.2-.7 1.9-.9h.7c.1 0 .2 0 .3-.1Zm24.6.1h.3c.5 0 .9.1 1.3.4.3.2.5.4.8.6l.1.2H285v-1.2Z"/>
  <path fill="#615252" d="M246.5 204.9c.4 0 .8-.1 1.2 0 .1.1.3.2.3.4h-.4c-.4 0-.7 0-.9.3-.2.2-.3.4-.3.7s0 .3-.1.4l-.8-.7c0-.5.4-.8.7-1h.3Z"/>
  <path fill="#683625" d="M259.8 196.3c.2 0 .5 0 .7-.1.2 0 .3 0 .4.3v.3c0 .2 0 .3-.3.4-.3 0-.5.1-.8.2-.1 0-.3.1-.4 0-.1-.2-.1-.4-.1-.6 0-.1 0-.2.2-.3.1 0 .2 0 .4-.1Z"/>
  <path fill="#615252" d="M280.9 235.2c.2-.3.3-.7.2-1.1 0-.2 0-.5-.1-.7v-.4c.5.1.6.5.7.9 0 .3 0 .6-.2.8-.1.2-.3.4-.5.4Zm-32.5-29.1c-.1 0-.2-.2-.2-.4.2 0 .2.2.2.4Z"/>
  <path fill="#6c5c5c" d="M260.4 275.3c0 .2-.2 0-.3.1v-.1h.3Z"/>
  <path fill="#615252" d="M248.1 205.5c.1 0 .1.1.1.2v-.2Z"/>
  <path fill="#feaf48" d="M284 200.8Z"/>
  <path fill="#db344f" d="M290.2 208.3Z"/>
  <path fill="#e8dec5" d="M277.5 233.1v-.3c-.1-1-.4-1.9-1-2.7v-.2s-.1 0-.2-.1c0 0-.2-.2-.3-.2-.1-.1-.3-.2-.5-.3 0 0-.2-.1-.3-.1s-.2 0-.3-.1h-1.3c-.1 0-.2 0-.3.1-.1 0-.2.1-.3.2h-.1c-.1 0-.3.2-.4.3-.2.2-.3.4-.5.6-.2.3-.4.7-.6 1-.2.6-.4 1.2-.5 1.9v.6c0 .7 0 1.4.2 2 0 .3.1.5.2.8 0 .1.1.2.2.3.2.4.5.8.8 1.2.5.5 1.1.8 1.9.7h.4c.4-.1.8-.3 1.1-.6 0 0 .1 0 .2-.1 0 0 0-.2.1-.3.4-.4.7-.9.9-1.4.4-1 .6-2 .6-3v-.3Zm-1 2.1c-.5.7-1.2.7-1.7 0 0 0-.1-.1-.1-.2-.3-.6-.3-1.3 0-1.9 0-.1 0-.2.1-.3.1-.4.4-.6.8-.7.2 0 .5 0 .7.2.2.1.3.3.4.5 0 .1.1.3.2.4.2.7.1 1.4-.3 2.1Z"/>
  <path fill="#e79a69" d="M305.9 199.9c.2.2.1.4 0 .6 0 .2-.2.3-.4.4-.6.3-1.3.5-2 .7-.6.2-1.3.2-2 .3h-.8c-.4.3-.9.5-1.3.8-2.7 1.6-5.3 3.3-8 4.9-.4.2-.8.5-1.1.7h-.1c-.2.1-.3.2-.5.2-.7.2-1.3.2-2-.1-.8-.4-1.3-.9-1.8-1.6-.5-.6-.9-1.3-1.2-2.1-.2-.6-.4-1.2-.3-1.8v-.6c.1-.8.6-1.4 1.4-1.6.2 0 .3-.1.5-.2.8-.2 1.7-.4 2.6-.6.9-.2 1.9-.4 2.8-.5.8-.2 1.7-.3 2.5-.4.4 0 .8 0 1.2-.1.5 0 1.1-.1 1.6-.2.5 0 1 0 1.5-.1.3 0 .5 0 .7-.2.6-.4 1.2-.9 1.7-1.5.1-.1.2-.3.4-.4.2-.3.7-.2.9 0v.2c0 .2 0 .4-.1.5-.2.3-.3.5-.5.8 0 0-.1.2-.2.3h.4c.4-.2.8-.3 1.2-.5l1.5-.6c.2 0 .4 0 .5.1.2.2.2.5 0 .6-.2.2-.4.3-.7.4-.2.1-.4.2-.7.4-.1 0-.1 0 0 .3h.2l1.3-.3h.5c.2 0 .4.1.5.4 0 .2 0 .4-.2.5-.2 0-.3.2-.5.2-.5.2-1.1.4-1.6.5 0 0-.2 0-.2.1h.2c.5-.1 1-.3 1.5-.4.2 0 .3-.1.5 0Zm-56.4 27.4c0 .4.1.8.2 1.2-.3-.3-.4-.7-.5-1 0-.2-.2-.5-.3-.7-1.1-1.9-1.8-3.9-2.4-6-.4-1.3-.7-2.5-.9-3.8-.2-1.1-.4-2.2-.5-3.3 0-.6-.1-1.2-.2-1.8v-.2c0-.4-.1-.9-.2-1.3-.2-.7-.4-1.4-.4-2.2 0-.5 0-1 .2-1.4.1-.4.3-.7.7-1v-.6c-.1-.3-.2-.7-.2-1 0-.3 0-.4.2-.5.3 0 .5 0 .7.2l.3.6c0 .2 0 .3.2.4-.4.2-.7.5-.7 1l.8.7c.2.2.2.5.2.8v.2c-.1.3-.2.3-.5.2-.1 0-.2-.2-.4-.1v.1c.2.7.7 1.3 1.4 1.6 0 .8.1 1.6.2 2.4 0 .6.1 1.1.2 1.7 0 .4 0 .8.1 1.2l.3 3v.9c0 .6.2 1.1.3 1.7.1.8.2 1.7.4 2.5.2 1 .3 1.9.5 2.9 0 .5.2 1 .3 1.5Z"/>
  <path fill="#e79a69" d="M254.7 224.5v.2c-.4 1-.9 2-1.5 2.9-.3.4-.7.8-1.1 1.2l-.6.3c-.4.2-.7.1-1-.2 0 0-.2-.2-.3-.2 0-.2-.1-.3-.2-.5-.3-1.4-.6-2.8-.8-4.2-.2-1-.3-2.1-.5-3.1v-1c.2.3.5.6.7.9.5.5.9 1 1.5 1.5 0 0 .1 0 .2.1 0 0-.1 0-.2-.1-.6-.4-1-.9-1.5-1.5-.2-.3-.5-.6-.7-.9 0-.7-.2-1.3-.3-2l-.3-2.3c0-.4 0-.8-.1-1.1 0-.5 0-1.1-.1-1.7 0-.6-.1-1.2-.2-1.8v-1.4c.1 0 .3 0 .4-.1.4-.1.6-.4.7-.7 0-.2.1-.5.1-.8 0-.5 0-.9-.1-1.4.1-.1.2-.3.3-.4.2-.3.5-.3.8-.2.3.2.5.5.4.8-.2.5-.3.9-.5 1.4-.2.6-.2 1.2-.3 1.8 0 .3 0 .5.2.7 1.2 1.5 2.3 3 3.4 4.4.1.2.2.4.4.5 0 .3.3.6.5.8.1.2.3.3.3.6v2.1c0 .3-.2.6-.2.9l.3-.9c.1-.6 0-1.1 0-1.7v-.4l.4.4v.4c0 .4-.2.8-.3 1.3-.2.8-.3 1.5-.4 2.3 0 .4 0 .9-.1 1.3v.4c0 .2 0 .4.2.5 0 0 .2.1.2.2l.6.6Zm-8.2-19.6v-1.5c0-.3.2-.4.4-.4.3 0 .5 0 .6.3 0 .2 0 .4.1.6v1c-.4-.2-.8-.1-1.2 0Z"/>
  <path fill="#e79a69" d="M254.2 217v2.1c0 .3-.2.6-.3.9 0-.3.2-.6.2-.9.1-.6 0-1.1 0-1.7v-.4Z"/>
  <path fill="#db344f" d="M252.4 230.2c-.8 0-1.5-.3-2.1-.8-.1-.2-.2-.5-.2-.8.1 0 .2.1.3.2.3.3.7.4 1 .2.2 0 .4-.2.6-.3.4-.4.8-.7 1.1-1.2.6-.9 1.1-1.9 1.5-2.9v-.2l-.6-.6s-.2-.1-.2-.2c-.2-.1-.2-.3-.2-.5v-.4c0-.4 0-.9.1-1.3.1-.8.3-1.6.4-2.3 0-.4.2-.8.3-1.3v-.4c.1-.4.3-.9.4-1.3.4-1.7 1.1-3.4 1.8-5 .3-.6.6-1.3.9-1.9 0-.1.1-.2.2-.3-.1.5-.2 1.1-.4 1.6 0 0-.1.1-.1.2l-.6 1.5c-.6 1.5-1.1 3.1-1.5 4.7-.3 1.1-.5 2.2-.7 3.2-.1.8-.3 1.5-.3 2.3v.7c0 .3 0 .5.2.6.2.2.4.4.7.6.4.2.6.6 1.1.7v.4c-.2 0-.2-.1-.4-.2-.1 0-.2-.1-.3-.2-.3 1.2-.7 2.3-1.3 3.4-.3.5-.6.9-1 1.3-.2.2-.5.4-.8.4Z"/>
  <path fill="#b3a095" d="M263.7 237v-.7h1.3c.1.3 0 .6.1.9h-1.4Z"/>
  <path fill="#7a6565" d="M263.8 237.1h1.3s-.1.1-.2.1h-1.2Z"/>
  <path fill="#b01b33" d="M256.2 225.1c-.4-.1-.7-.5-1.1-.7-.2-.2-.4-.4-.7-.6-.2-.2-.4-.4-.3-.6v-.7c0-.8.2-1.5.3-2.3.2-1.1.4-2.2.7-3.2.4-1.6.9-3.2 1.5-4.7l.6-1.5s0-.1.1-.2l-.3 1.6-.3 2.1-.3 2.4c0 .4 0 .9-.1 1.3 0 .6 0 1.2-.1 1.8 0 1.1-.1 2.2-.2 3.3v1.9Z"/>
  <path fill="#ff953e" d="M256.1 229.6v.9h-.4c-1.1.1-2.1.1-3.1-.3h-.1c.3 0 .6-.2.8-.4.4-.4.7-.8 1-1.3.6-1 1-2.2 1.3-3.4.1 0 .2 0 .3.2.1 0 .2.2.4.2-.2 1.4 0 2.8 0 4.1Z"/>
  <path fill="#e8dec5" d="M260.1 211.4c.1.6.3 1.1.4 1.6 0 .2 0 .4-.2.6h-2.9c-.1 0-.2-.1-.2-.3 0-.4 0-.8.1-1.2 0-.2 0-.5.1-.8.4-.1.8 0 1.2 0v-.5h.5v.5h.9Z"/>
  <path fill="#ff953e" d="M257.5 213.7h2.9c.2-.2 0-.4.2-.6 0 .3.2.6.3.9l-.2.3h-3.1c-.1-.1 0-.3 0-.4Z"/>
  <path fill="#db344f" d="M258 208.6Zm17.7 29.6h.2-.2Zm.8-8.3Z"/>
  <path fill="#7a6565" d="M247.4 209.6c0-.2.3-.1.4-.1-.1.1-.3.1-.4.1Z"/>
  <path fill="#615252" d="M263.5 196.9h-.5v.5c0 .1-.1.3-.3.3-.2 0-.3 0-.4-.2 0-.1 0-.2-.1-.4.2 0 .3 0 .4-.1v-.2h.8Z"/>
  <path fill="#d27659" d="M266.1 197.7v-.4c0-.1 0-.2-.2-.3-.1 0-.3 0-.4.1 0 0-.1.2-.2.3 0-.4 0-.8.3-1s.6-.2.8.2c.1.4.1.7-.2 1.1Zm-4 1.6c-.2 0-.3.1-.5.2-.1 0-.2 0-.3-.1-.1-.1-.2-.3-.1-.5 0-.3.2-.6.3-.9 0 0 .1 0 .2-.1 0 .3 0 .5-.1.7 0 .2 0 .5.1.7h.5Z"/>
  <path fill="#683625" d="M263 200.5c0 .3 0 .4-.3.5h-.8c-.2 0-.2-.2-.2-.5h1.3Z"/>
  <path fill="#615252" d="M260.2 197.5c.2-.1.4-.1.6 0 0 .4 0 .6-.2.6h-.1c-.1 0-.1 0-.2-.4Z"/>
  <path fill="#7a6565" d="M261.9 200.6h-.2c0-.3.2-.4.5-.4s.6 0 .8.3h-.2c0-.2-.2-.2-.4-.2s-.3 0-.4.1v.2Zm-13.8 4.9v.2c.2.2.2.4.3.5v1.4c-.1.5-.6.9-1.3.4-.1-.1-.2-.3-.4-.4 0 0-.1 0-.2-.1 0-.3 0-.6-.2-.8.1-.1 0-.3.1-.4 0-.3.1-.5.3-.7.3-.3.6-.4.9-.3h.4Z"/>
  <path fill="#db344f" d="M276.8 233.1c0-.1 0-.3-.2-.4-.1-.2-.2-.4-.4-.5-.2-.1-.4-.2-.7-.2-.4 0-.7.3-.8.7 0 .1 0 .2-.1.3-.2.6-.2 1.3 0 1.9 0 0 0 .2.1.2.5.6 1.2.7 1.7 0 .4-.8.5-1.5.3-2.2Zm-1.6 1.9s-.2.1-.2 0c-.2-.1-.3-.4-.2-.7 0-.1.2-.2.3 0 .1.1.2.3.2.6v.1Zm.3-1.9v.2c0 .1 0 .2-.1.3 0 0 0 .1-.1.2s-.2.2-.4.1c-.2 0-.2-.2-.2-.4v-.9h.2l.1-.1c.2-.1.4 0 .4.2v.3Z"/>
  <path fill="#eddbcb" d="M261.9 200.6v-.2c.1-.1.3-.1.4-.1.2 0 .3 0 .4.2h-.9Z"/>
  <path fill="#ecb884" d="M274.7 232.8c.2 0 .2-.1.4-.2s.4 0 .4.2c0 .3 0 .6-.2.9 0 0 0 .1-.1.2s-.2.2-.4.1c-.2 0-.2-.2-.2-.4v-.9Z"/>
  <path fill="#e79a69" d="M275.2 234.9v.1s-.2.1-.2 0c-.2-.1-.3-.4-.2-.7 0-.1.2-.2.3 0 .1.1.2.3.2.6Z"/>
  <path fill="none" stroke="#ed1c24" stroke-miterlimit="10" d="M123.5 278.4h88v20.8h-88z"/>
  <path fill="#ed1c24" d="M167.5 146.8c-3.3 0-5.9 2.6-5.9 5.9s.4 2.5 1.1 3.5l4.8 8.2 4.8-8.2c.7-1 1.1-2.2 1.1-3.5 0-3.3-2.6-5.9-5.9-5.9Zm0 8.6c-1.4 0-2.6-1.2-2.6-2.6s1.2-2.6 2.6-2.6 2.6 1.2 2.6 2.6-1.2 2.6-2.6 2.6Z"/>
  <path fill="#e79a69" d="M63.8 217.9h-4.7l-.3-5.5 5.1-.2v5.7Z"/>
  <path fill="#edb985" d="M61.7 277.7h-.2L60 265.1l4.6-1.4c-1 4.7-1.9 9.3-2.9 14Zm6.9.1c-1-5.2-2.1-10.3-3.1-15.5 1.7 0 3.4 0 5-.1l-1.9 15.6Z"/>
  <path fill="#aa3b5a" d="M75.1 258.6c-1.3 1.7-3.3 3.9-6.2 5.9-4.8 3.3-9.6 4.3-12.2 4.6l-3.3-36.4 17.8-1.2c.8 4.5 1.6 9.1 2.3 13.8.7 4.5 1.2 8.9 1.7 13.2Z"/>
  <path fill="#ecb884" d="M74.9 222.9c-.2.5-.6 1.2-1.3 1.8-1.8 1.6-4.3 1.1-4.6 1-.7-.6-1.6-1.5-1.7-2.8 0-.2 0-.4.1-1.5 0-.8.1-1.5.2-1.9-.6-3.4-.8-4.7-.7-5v-.5c0-.2-.2-.4-.3-.5-.2-.2-.2-.2-.6-.4-.4-.3-.5-.5-.5-.5s-.1-.3 0-.5.5-.1.8 0c.4.2.5.5.7.4l.1-.2c0-.2 0-.3-.2-.5 0-.1 0 0-.3-.7-.4-.7-.5-.8-.5-1 0-.2.1-.4.2-.4.2 0 .7.4.8.8 0 0 0 .2.2.3h.2s0-.3-.2-1c-.1-.4-.1-.5 0-.6 0-.2.3-.4.5-.3 0 0 .2.1.5.8.2.7.3 1.1.4 1.1 0 0 0-.1.1-.2 0-.2 0-.3-.1-.4-.2-.3-.4-.7-.3-.9 0-.1.2-.2.4-.2.6 0 .9 1.5 1.1 2.2.2.7.3 1.7.3 3 1.1 1.8 2.1 3.1 2.8 4 .7.9 1.6 1.8 1.9 3.3.1.6.1 1.1.1 1.4Z"/>
  <path fill="#e8dec5" d="M72.3 232c-3.2.9-6.4 1.9-9.6 2.8-1.7-6.2-3.4-12.4-5.1-18.7l1.3-.5c.3.3.7.8 1.5 1.2.6.3 1.4.7 2.2.4.8-.3 1.2-1.2 1.2-1.4 1.6 1.3 4.3 3.8 6.2 7.8 1.7 3.4 2.1 6.4 2.3 8.4Z"/>
  <path fill="#6c5c5c" d="M55.6 259.6c-.6-2.7-1.4-6.3-2.1-10.7-.4-2.6-1-6-1.3-10.4-.7-7.6-.3-11.4.2-14.1 0 0 1-6 3.9-7.7.3-.2 1-.6 1.7-.4.5.2.8.6 1.4 1.8a18 18 0 0 1 1.2 2.4c1.3 3.5 1.9 5.2 2.3 7.2.9 4.6.6 8.4.4 10.5-1 9.7-5.7 18.2-7.6 21.5Z"/>
  <path fill="#ecb884" d="M72.3 232.4c-.2.5-.8.7-1.2.8-.7.2-1.3.6-2 .8-2.1.6-2.6 1.4-5.7 2.5-.7.3-1.7.5-3.5.9-1.4.3-2.1.5-2.9.2-.2 0-.8-.3-1.6-1.1a8.49 8.49 0 0 1-2-4.8l4.3-4.9c.2 1.1.5 2.3.7 3.4l8 1.2c.5-.4.8-.8 1.1-1.1.4-.6.6-1.1.9-1.1.2 0 .3.1.4.3.3.5-.5 1.3-.3 1.4 0 0 .4-.1.9-.4.4-.2.7-.5.7-.5.4-.3.5-.4.8-.4.1 0 .4 0 .4.2s-.4.6-.4.7c-.3.2-.5.3-.6.5v.1c.2.2 1.4-.7 1.8-.4 0 0 .1.2.1.4-.3.2-.4.4-.4.4 0 .1.3 0 .4.3.1.2 0 .4 0 .5Zm-8.6-17.1c-1.8.7-4.1-1.5-4.9-2.3a7 7 0 0 1-1.5-1.9c0-.2-1.1-2.7.3-4.6 1.5-2 4.5-2 6.1-1.1.6.3 1 .8 1.1.9.2.3 1.2 1.2 1.3 2.6 0 .3 0 .3-.3 1.7-.3 1.8-.2 1.8-.3 2.3 0 .2-.6 1.9-1.9 2.4Z"/>
  <path fill="#eddbcb" d="M67 207.6c.2-.3.4-1 .4-1.8s0-1.4-.7-2.3c-.6-.7-1.3-1-1.6-1.1 0-.3-.4-1.2-1.4-1.8-.1 0-1.8-1-3 0-1 .8-.8 2.2-.8 2.3-1.5-.5-3.1 0-4.1 1.2a3.7 3.7 0 0 0-.6 3.6c-1.3 1.1-1.8 2.9-1 4.3.6 1.2 2 1.9 3.4 1.8.4.5.8 1 1.2 1.6V212c.2-.5.4-.6 1.2-1.5 1-1.1.9-1.3 1.9-2.6.3-.4.9-1 1.5-1.7.1 0 .3 0 .6.2 1 .5 1.1 1.9 1.2 3.2 0 1 0 2.4-.3 4.2 1.6-.2 2.9-1.5 3.2-2.9.3-1.7-1-3-1.1-3.1Zm-8.6 4.2c-.3.1-.8-.4-1-.8-.2-.5-.2-1.2.1-1.3.2-.1.7.2.9.5.4.6.3 1.5 0 1.6Zm3.8 66.2v.2c0 .1-.3 0-.6 0H61v-.2c.2-.2.4-.5.6-.7h.4c.1.3.2.5.3.8Zm8.3.2h-2.3v-.5c0-.2.2-.3.2-.3.2 0 1.4-.2 1.9.5 0 0 .1.2.2.3Z"/>
  <path fill="#716161" d="M60 228.7c-.8.8-1.9 1.8-3.2 2.7-1.2.8-2.3 1.3-3.3 1.7-.6-1.5-1.5-4.1-1.3-7.4.1-1.5.4-2.7.8-3.7.2-.6 1.7-5.5 4.4-5.7h.6c.5 1.5 1.1 3.3 1.4 5.4.5 2.6.6 5 .6 6.9Zm7.7-9.2c.4.5.7 1 1.1 1.5 1 1.3 1.8 2.7 2.5 4.2 0 .1.2.2.2.3 0 .2.2.4.2.5 0 .2.1.4.2.5.4.9.7 1.7.9 2.6.6 1.9.9 3.8 1.2 5.8.2 1.9.2 3.9.2 5.8 0 1.7-.2 3.3-.5 4.9 0 .2 0 .5-.2.7 0-.2 0-.5-.1-.7 0-.3 0-.7-.2-1v-.3c.1 0 .2 0 .2-.2v-6.6c0-.7 0-1.3-.1-2v-.2c0-.5 0-.9-.1-1.4 0-.6-.2-1.2-.3-1.8-.2-1.2-.5-2.3-.8-3.4-.3-1.1-.7-2.1-1.2-3.1s-1-1.9-1.5-2.9c-.4-.7-.9-1.4-1.3-2 0-.1-.2-.3-.3-.4 0-.1-.2-.1-.3-.1v-.3c0-.1-.2-.1-.2 0l-1.6-2.2c0-.1-.1-.2 0-.3l1.3 1.3.6.6Z"/>
  <path fill="#7a6565" d="M71.9 226.6c0-.2-.1-.4-.2-.5s-.1-.4-.2-.5c0-.1-.1-.2-.2-.3.9 0 1.7-.3 2.4-.9.6-.5.9-1 1.2-1.7 0 .4 0 .9-.3 1.2-.3.6-.7 1.1-1.2 1.5-.4.3-.8.6-1.3.9-.1 0-.2.2-.2.3Z"/>
  <path fill="#6c5c5c" d="M53.8 251.6s.2 0 .2.1h-.2Z"/>
  <path fill="#5a4c4c" d="M73 243c0-.4 0-.9-.1-1.3s-.1-.9-.2-1.3c0-.5-.2-1.1-.2-1.6 0-.6-.2-1.2-.3-1.7-.2-.9-.3-1.9-.5-2.8 0-.4-.2-.8-.2-1.2.2-.1.4-.2.5-.4l.3-.3v-.5c0-.1-.2-.1-.3 0h-.1c0-.2.1-.3.2-.4 0 0 .2-.2.2-.3s0-.3-.2-.4c-.2-.1-.3-.3-.3-.5 0-.9-.3-1.8-.6-2.7-.8-2.4-1.9-4.7-3.2-6.8l-.2-.2v-.2h.3c0 .1.2.2.3.4.4.7.9 1.3 1.3 2 .5.9 1 1.9 1.5 2.9s.8 2.1 1.2 3.1c.4 1.1.6 2.3.8 3.4l.3 1.8c0 .5 0 .9.1 1.4v.2c.2.7 0 1.3.1 2v6.6c0 .1 0 .2-.2.2 0-.5-.2-.9-.2-1.4Z"/>
  <path fill="#615252" d="M63.8 251.1Z"/>
  <path fill="#6c5c5c" d="m59.6 230.4-.7-.4v-.2c-.1-.4-.3-.9-.4-1.3-.3-1.1-.6-2.1-.8-3.2l-.6-2.1v-.2c.2 0 .2 0 .2.1.4 1 .8 1.9 1.2 3l1.2 4v.4Z"/>
  <path fill="#e79a69" d="M63.9 234.5h-.4.4Z"/>
  <path fill="#6c5c5c" d="M56.7 246.8c.2.9.3 1.2.2 1.5h-1c0-.4 0-.9.2-1.3 0-.2.1-.3.4-.3h.2Z"/>
  <path fill="#7a6565" d="M65.8 217.9c-.2-.3-.5-.5-.8-.8 0 0-.1-.2-.2-.3h.1c.3.2.5.5.8.8-.2 0 0 .2 0 .3Z"/>
  <path fill="#5a4c4c" d="M67.5 220.3v-.2c0-.1 0 0 .2 0v.3-.2Z"/>
  <path fill="#453837" d="M61.9 237.1h.3l.3 2.8h-.7v-.7c0-.6 0-1.3-.1-2h.3Z"/>
  <path fill="#d8caa9" d="M67.6 220.4Z"/>
  <path fill="#eddbcb" d="M62.7 209.5c-.4.2-.9.3-1.3.3v-.1c-.2-.4-.2-.6.4-.7.2 0 .5-.1.7-.2.2 0 .3 0 .3.2v.5Zm1-.8c.4 0 .7 0 1.1.1 0 0 .2 0 .2.1v.7h-.3c-.3 0-.5 0-.8-.1-.3 0-.4-.2-.3-.5v-.3Z"/>
  <path fill="#615252" d="M64.5 210.7s0 .2-.1.3c0 .1-.3.1-.4 0-.2-.2-.3-.7 0-.9 0-.1.3-.2.4 0 .1.2.2.3.2.6Zm-1.6.1c0 .1 0 .3-.2.4 0 .1-.3.1-.4 0-.2-.3-.2-.6-.1-.9 0-.1.1-.2.2-.2s.2 0 .2.2c0 .1 0 .3.1.5Z"/>
  <path fill="#4b3c3c" d="M62.9 213.7s0 .2-.2.3h-.3v-.4s0-.2.2-.2c0 0 .2.1.2.4Z"/>
  <path fill="#d27659" d="M63.7 212.1c.2 0 .2.2.3.4 0 .2-.1.2-.3.2H63c.4-.1.7-.4.7-.6Zm0 0Zm-5.5-1.3H58c-.2 0-.1.2-.2.3-.2-.2-.2-.4-.2-.6 0-.1 0-.3.2-.4.1 0 .3 0 .4.1.1.2.2.3.1.6Z"/>
  <path fill="#993552" d="M61.8 237.1h-.3.3Z"/>
  <path fill="#453837" d="M63.8 250.9h-1.6c0-.4-.2-.9-.2-1.3V240c-.6.1-1.2 0-1.8.1h-3.4v-3.8a11.27 11.27 0 0 1 1.2-4.9c.3-.4.6-.7 1.1-.9h.8c.1 0 .2 0 .3-.1l-.7-.4h-.2c-.3-.1-.5 0-.8 0-.2.1-.4.2-.7.4v.2c-.6.7-1 1.5-1.2 2.4-.2.8-.4 1.6-.4 2.4 0 .3 0 .7-.1 1v3.3c0 .3 0 .3-.3.3h-1.1c-.2 0-.3.1-.3.3v10.9s.2 0 .2.1c.4 0 .8.1 1.2.1h4.8c.6 0 1.1-.2 1.7-.2h.8c.2 0 .4-.1.6-.1.3 0 .5-.1.8-.2 0 0 .2 0 .2-.1 0 0-.2-.1-.3-.1Zm-6.8-2.7h-1c0-.5 0-.9.2-1.3 0-.2.1-.3.4-.3h.2c.2.9.3 1.2.2 1.5Z"/>
  <path fill="#5a4c4c" d="M64.1 251.1s-.2-.1-.3-.1h-.9c-.3 0-.5 0-.8-.2 0-.4-.2-.9-.2-1.3v-9.6h2.6c0 .4.1.8.1 1.2 0 .2 0 .5.1.7v.9c0 .4 0 .7.1 1.1 0 .5 0 .9.1 1.4s.1.9.2 1.4v.2c0 .6.1 1.3.2 1.9 0 .5 0 1 .1 1.4v.4c-.3.3-.6.4-1.3.5Z"/>
  <path fill="#ed1c24" d="M0 185.6h335v75.8H0z" opacity=".7"/>
</svg>
