<svg xmlns="http://www.w3.org/2000/svg" xmlns:xlink="http://www.w3.org/1999/xlink" width="335" height="335">
  <defs>
    <linearGradient id="a" x1="296.3" x2="316.9" y1="209.1" y2="209.1" gradientUnits="userSpaceOnUse">
      <stop offset="0"/>
      <stop offset="1" stop-color="#3b3b3b"/>
    </linearGradient>
    <linearGradient xlink:href="#a" id="f" x1="296.3" x2="316.9" y1="196.3" y2="196.3"/>
    <linearGradient xlink:href="#a" id="g" x1="296.3" x2="316.9" y1="221.8" y2="221.8"/>
    <linearGradient id="b" x1="300.2" x2="313.1" y1="215.9" y2="215.9" gradientUnits="userSpaceOnUse">
      <stop offset="0" stop-color="#ff6200"/>
      <stop offset="1" stop-color="#ff7000"/>
    </linearGradient>
    <linearGradient xlink:href="#a" id="h" x1="238.5" x2="292.3" y1="211.3" y2="211.3"/>
    <linearGradient id="c" x1="241.6" x2="289.4" y1="211.4" y2="211.4" gradientUnits="userSpaceOnUse">
      <stop offset="0" stop-color="green"/>
      <stop offset="1" stop-color="#6db500"/>
    </linearGradient>
    <linearGradient xlink:href="#a" id="i" x1="257" x2="274.5" y1="192.7" y2="192.7"/>
    <linearGradient xlink:href="#b" id="j" x1="243.4" x2="261.9" y1="211.4" y2="211.4"/>
    <linearGradient xlink:href="#b" id="k" x1="275.3" x2="289.4" y1="196.1" y2="196.1"/>
    <linearGradient xlink:href="#a" id="l" x1="251.5" x2="277.8" y1="222.4" y2="222.4"/>
    <linearGradient xlink:href="#a" id="m" x1="212.7" x2="233.3" y1="209.6" y2="209.6" gradientTransform="rotate(-180 223 209.6)"/>
    <linearGradient xlink:href="#a" id="n" x1="212.7" x2="233.3" y1="222.4" y2="222.4"/>
    <linearGradient xlink:href="#a" id="o" x1="212.7" x2="233.3" y1="196.9" y2="196.9"/>
    <linearGradient xlink:href="#b" id="p" x1="216.3" x2="228.7" y1="203.9" y2="203.9"/>
    <linearGradient xlink:href="#a" id="q" x1="300.3" x2="312.7" y1="203.6" y2="203.6"/>
    <linearGradient xlink:href="#a" id="r" x1="216.1" x2="229" y1="216" y2="216"/>
    <linearGradient xlink:href="#b" id="s" x1="291.4" x2="299.4" y1="276.5" y2="276.5"/>
    <linearGradient xlink:href="#b" id="t" x1="290.4" x2="304" y1="238" y2="238"/>
    <linearGradient xlink:href="#b" id="u" x1="289.7" x2="295.2" y1="235.6" y2="235.6"/>
    <linearGradient xlink:href="#b" id="v" x1="302.1" x2="306.5" y1="236.8" y2="236.8"/>
    <linearGradient xlink:href="#b" id="w" x1="232.7" x2="236.1" y1="276" y2="276"/>
    <linearGradient xlink:href="#b" id="x" x1="241.7" x2="244.8" y1="276.5" y2="276.5"/>
    <linearGradient xlink:href="#c" id="y" x1="233.3" x2="248.3" y1="241.1" y2="241.1"/>
    <linearGradient xlink:href="#a" id="z" x1="236.5" x2="243.9" y1="232.8" y2="232.8"/>
    <linearGradient xlink:href="#a" id="A" x1="235" x2="244.1" y1="228.8" y2="228.8"/>
    <linearGradient xlink:href="#a" id="B" x1="240.5" x2="242.5" y1="228.6" y2="228.6"/>
    <linearGradient xlink:href="#a" id="C" x1="236.6" x2="239.6" y1="227.8" y2="227.8"/>
    <linearGradient xlink:href="#a" id="D" x1="237.6" x2="239.6" y1="229.9" y2="229.9"/>
    <linearGradient xlink:href="#a" id="E" x1="240.8" x2="243.5" y1="227.7" y2="227.7"/>
    <linearGradient xlink:href="#b" id="F" x1="242.5" x2="250.4" y1="254.2" y2="254.2"/>
    <linearGradient xlink:href="#a" id="G" x1="-1308.5" x2="-1042" y1="74.2" y2="74.2" gradientTransform="matrix(-1 0 0 1 -1038.5 0)"/>
    <linearGradient xlink:href="#a" id="H" x1="136.2" x2="128.9" y1="150.8" y2="36.2"/>
    <linearGradient xlink:href="#b" id="I" x1="263.5" x2="363.9" y1="321.6" y2="321.6"/>
    <linearGradient xlink:href="#a" id="J" x1="0" x2="246.4" y1="321.6" y2="321.6"/>
    <linearGradient id="d" x1="-3478.5" x2="-3257.1" y1="258.3" y2="272.6" gradientTransform="matrix(1 0 0 -1 3516.8 525.7)" gradientUnits="userSpaceOnUse">
      <stop offset="0" stop-color="#ff6200"/>
      <stop offset="1" stop-color="#ffa000"/>
    </linearGradient>
    <linearGradient xlink:href="#d" id="K" x1="-3479" x2="-3257.4" y1="264.7" y2="279.1" gradientTransform="matrix(-1 0 0 1 -3315.7 0)"/>
    <linearGradient xlink:href="#d" id="L" x1="-3478.5" x2="-3257.1" y1="222.2" y2="236.6" gradientTransform="matrix(1 0 0 -1 3516.8 453.6)"/>
    <linearGradient xlink:href="#d" id="M" x1="-3479" x2="-3257.4" y1="228.7" y2="243" gradientTransform="matrix(-1 0 0 1 -3315.7 0)"/>
    <linearGradient xlink:href="#d" id="N" x1="-3478.5" x2="-3257.1" y1="185.2" y2="199.5" gradientTransform="matrix(1 0 0 -1 3516.8 379.5)"/>
    <linearGradient xlink:href="#d" id="O" x1="-3479" x2="-3257.4" y1="191.6" y2="206" gradientTransform="matrix(-1 0 0 1 -3315.7 0)"/>
    <linearGradient xlink:href="#b" id="P" x1="10.4" x2="20.7" y1="160.9" y2="160.9"/>
    <radialGradient id="e" cx="308.8" cy="152.5" r="254.2" fx="308.8" fy="152.5" gradientTransform="matrix(0 .91 -1.27 0 336.4 -160)" gradientUnits="userSpaceOnUse">
      <stop offset="0" stop-color="#ffd800"/>
      <stop offset="1" stop-color="#ffa000"/>
    </radialGradient>
  </defs>
  <g data-name="Layer 1">
    <path fill="url(#e)" d="M0 0h335v335H0z" transform="matrix(0 -1 1 0 0 335)"/>
    <g fill="#e1e1e1">
      <path d="M284.7 268.8H246c-1 0-1.7-.8-1.7-1.7 0-1 .7-1.8 1.7-1.8h38.7c1 0 1.7.8 1.7 1.8s-.7 1.7-1.7 1.7Z"/>
      <path d="m250.1 268.5-2.8 11.2h.9l4.2-10.9-2.3-.3zm30.5 0 2.8 11.2h-.9l-4.2-10.9 2.3-.3z"/>
    </g>
    <path fill="url(#a)" d="M296.3 195.7h20.6v26.6h-20.6z"/>
    <path fill="url(#f)" d="M317 195.7h-.1l-.2.3-.7.7a713.2 713.2 0 0 1-18.8 0l-.7-.7-.1-.2h-.1l.3.2.7.7a714 714 0 0 1 18.7 0l.7-.7.2-.2Z"/>
    <path fill="url(#g)" d="M296.3 222.4v-.1l.2-.2.7-.8a713.2 713.2 0 0 1 18.8 0l.7.8.2.2-.2-.2-.7-.7a714 714 0 0 1-18.7 0l-.7.7-.2.2h-.1Z"/>
    <path fill="#fff" d="M297.3 196.7H316v24.6h-18.7z"/>
    <path fill="url(#b)" d="M300.2 214.2c.6-.6 1.4-.7 2.1-.7l2.3.2c1.3 0 2.5-.5 3.7-.3.4 0 .8.2 1.2.1.3 0 .6-.3 1-.4.8-.2 1.7.4 2.6 0v5.6h-13v-4.5Z"/>
    <path fill="url(#h)" d="M238.5 179.8h53.8v63h-53.8z"/>
    <path fill="#fff" d="M239.5 180.8h51.7v61h-51.7z"/>
    <path fill="url(#c)" d="M241.6 183.2h47.8v56.4h-47.8z"/>
    <path fill="url(#i)" d="m274.5 193.8-.4-4.8c0-.2 0-.5-.2-.7-.3-.3-.7-.3-1.1-.2l-14.6 2.3-1.2 7a395.2 395.2 0 0 0 17.2-2.5c.3-.2.3-.7.3-1Z"/>
    <path fill="#fff" d="M250.6 183.8a8.8 8.8 0 0 0-6.8 4.6 12.7 12.7 0 0 0-1.2 8.3c.4 1.9 1.1 3.9 2.7 5.1a7.7 7.7 0 0 0 5.2 1.4c3.3-.1 6.7-1.9 8-5 .6-1.6.6-3.5.4-5.4-.1-1.9-.4-3.8-1.4-5.5a7.8 7.8 0 0 0-7-3.5"/>
    <path fill="#e1e1e1" d="M285.3 239.7c-1-3.2-6.1-5.4-9.5-5.8-3.3-.4-6.6.4-10 .6s-7-.3-9.5-2.6c-3-2.8-3.4-7.4-6.3-10.3a8.3 8.3 0 0 0-8.5-1.9v20h43.8Z"/>
    <path fill="url(#j)" d="M245.9 184.8s4.8 11.8 5.8 13.1c1 1.3 3 3.8 10.2 8l-2.2 32.2-13-2.7-3.3-50 2.5-.6Z"/>
    <path fill="#fff" d="M285.5 206.2a16 16 0 0 0-1.2-3.7 9 9 0 0 0-7.4-5.1c-1.5-.2-3.2.2-4.2 1.4-.8.9-1 2-1.4 3.2a77 77 0 0 0-2.3 15.6c0 2.3 0 4.6.7 6.9a10 10 0 0 0 3.8 5.6 6.8 6.8 0 0 0 6.6.9c2-1 3.3-3 4.3-5a31.4 31.4 0 0 0 1.1-19.8Z"/>
    <path fill="url(#k)" d="M289.4 183.2h-14.1l14 25.9v-25.9Z"/>
    <path fill="url(#l)" d="M267.8 223.8c-.6-1-1.1-2-1.2-3.2 0-1.5 1-2.8 1.8-4l3.6-5.2c.5-.7 1-1.5 1.1-2.4.2-1.3-.7-2.5-1.7-3.4a2 2 0 0 0-2.5-.2l-15.3 10.9a5 5 0 0 0-1.9 1.8c-.4.8-.2 1.8 0 2.8 1 6.4 4.2 18.7 4.2 18.7h21.9s-7.8-11.7-10-15.8Z"/>
    <path fill="#375a64" d="m292.3 179.8-.5.5-.6.5.5-.6.6-.4Zm-53.8 0 .5.5.5.5-.6-.4-.4-.6Z"/>
    <path fill="url(#m)" d="M212.7 196.3h20.6v26.6h-20.6z" transform="rotate(180 223 209.6)"/>
    <path fill="url(#n)" d="M212.7 223v-.1l.2-.2.7-.8a713.2 713.2 0 0 1 18.8 0l.7.8.2.2-.2-.2-.7-.7a714 714 0 0 1-18.7 0l-.7.7-.2.2h-.1Z"/>
    <path fill="url(#o)" d="m233.3 196.3-.2.3-.7.7a713.2 713.2 0 0 1-18.8 0l-.7-.7-.2-.2.2.2.8.7a714 714 0 0 1 18.7 0l.7-.7.2-.2Z"/>
    <path fill="#fff" d="M232.3 222h-18.7v-24.6h18.7z"/>
    <path fill="url(#p)" d="M216.3 200.1c0 1.4 0 2.8.4 4s1.1 2.7 2.3 3.3c.9.4 1.8.5 2.8.6 1 0 2.1 0 3-.5a5.9 5.9 0 0 0 3-3.2c.6-1.4.8-3 1-4.4l-12.5.2Z"/>
    <path fill="url(#q)" d="M300.3 199.8c0 1.4 0 2.8.4 4.1s1.1 2.6 2.4 3.2c.8.5 1.7.6 2.7.6 1 0 2.1 0 3-.5a5.9 5.9 0 0 0 3-3.2c.6-1.4.8-3 1-4.4l-12.5.2Z"/>
    <path fill="url(#r)" d="M216 214.3c.7-.5 1.5-.7 2.2-.6l2.3.1c1.3 0 2.5-.4 3.7-.2.4 0 .8.2 1.2 0l1-.3c.8-.3 1.7.4 2.6 0v5.5h-13v-4.5Z"/>
    <path fill="#375a64" d="m291.3 241.8.5.5.4.5-.5-.4-.4-.6Z"/>
    <path fill="url(#s)" d="m295.4 273.3.1 4.1s-4 1.5-4.1 2.3h8v-6.4h-4Z"/>
    <path fill="#e1e1e1" d="M298 277c.1.1.3.3.2.4 0 .2-.2.3-.3.3-.2 0-.3-.3-.3-.4 0-.2.3-.3.4-.2"/>
    <path fill="#1a2e35" d="M299.3 279.7v-.7l-7.6.3s-.4.1-.3.4h8Zm-3.9-2.3.4.2c.2 0 .3.2.3.2l-.2-.4h-.5Zm-.8.3.3.3.2.3-.1-.4-.4-.2Zm-.5 1v-.4c-.1-.2-.3-.3-.3-.2l.2.3.1.3Zm1.4-2.3h.4c.2 0 .4.1.4 0h-.4c-.3-.1-.4 0-.4 0Z"/>
    <path fill="#1a1a1a" d="M290.2 249.5s.2 7.1 1 9 4.2 18 4.2 18 2.3 1.1 3.9 0c0 0-.5-7.7-.8-9.1l-1.1-4.5s-.3-7-.2-7.1l.5-2.5.5-4.6-4.3-1.4-3.7 2.2Z"/>
    <path fill="#1a1a1a" d="m302.6 250.2-2.8 7.5-.6 4.6s.7 3.2.8 4.3c.1 1.1-.5 9.8-.5 9.8l-1.8-.3-2.5-13.8-.9-7.1 2.5-7 5.4-.4.4 2.4Z"/>
    <path fill="#375a64" d="M297.9 251.7v.3l-.2.7-.6 2.9c0 .9 0 2 .2 3.1l.1 3.8a37.2 37.2 0 0 1 1.2 5.1v1.2l.4 4 .2 2.6v1-1l-.3-2.6-.3-4a41.5 41.5 0 0 0-1.2-6.3l-.2-3.8-.2-3.1.6-2.9.2-.7v-.3Z"/>
    <path fill="#ffbf9d" d="m299.3 227.1-4.3.5v-3.7s-.3 0-.5-1.5l-.6-4.2c1.8-1 4-1 5.8 0l.2.2-.6 8.7Z"/>
    <path fill="#ffbf9d" d="M299.6 220.3s1-.4 1.2.7c0 1-1 1-1 .9l-.2-1.6Zm-5.2.4s-1-.2-.9.9c.2 1 1.2.7 1.2.7l-.3-1.6Z"/>
    <path fill="#1a2e35" d="M300 220.2v.4-.5Zm-3.2 5h.6l.6-.2-.6.1-.6.1Z"/>
    <path fill="#1a2e35" d="M300 218.8v2.9l-.1.5c-.1 1-.5 1.7-1.4 2.3-.8.6-2 .7-2.8.1-.6-.4-1-.8-1.2-1.5l-.4-2.5-.2-1-.5-.5c-.2-.2-.2-.4-.1-.7s.3-.4.5-.5c-.1-.3 0-.7.3-1h1c0-.4.3-.8.8-1 .4-.1 1 0 1.2.4.4-.4.9-.6 1.3-.5.5 0 1 .3 1.2.7l.4 1v1.3Zm0 2.9v-1 1Z"/>
    <path fill="url(#t)" d="m295 226.5-3.5 1.7-1 16v5.2s3.9.5 4.7 0 7-1 7-1l.9-10.6 1-8.7s-2-1.8-4.8-2.6H295Z"/>
    <path d="M298.5 246.8c-.3-1.8-1.5-3.3-2.2-5-1.3-3-1-6.6-2.4-9.7-1 3.8-.6 8 1.1 11.4.8 1.6 1.9 3 3.5 3.6l.1-.1" opacity=".3"/>
    <path fill="url(#u)" d="M291.5 228.2s-1.8 1-1.8 3.8.1 7 .5 7.7l.7 1 1.1 2.2 3.2-1.6-.7-2.3-.2-3.9-.2-1.8-.2-1.4c-.3-1.5-1.1-3.7-2.4-3.7Z"/>
    <path fill="#ffbf9d" d="m292.3 242.8 4.7 5.8 1.6-1.6-3.6-5.5-2.7 1.3zm10 8.2s.5-1.5.4-1.9c-.1-.4-1.5-1.3-1.5-1.3l-1.3.6-.2 1.8 2.6.8Z"/>
    <path fill="#ffbf9d" d="m298.6 247 2 .8 1.5 2s-.2.4-.5.2l-1-.9s1.7 1.6 1.7 1.9-.3.2-.4.1l-.5-.3s.6.5.5.7h-.6s0 .6-.1.5c-.1 0-2.7-1.5-3-2-.5-.4-1.2-1.4-1.2-1.4l1.6-1.6Z"/>
    <path fill="#ffbf9d" d="M300.5 251.9c0 .1.4.2.5.1.2 0 .2-.1.3-.3l.2-.4v-.3c-.1 0-.3-.1-.4 0l-.2.2-.1.4"/>
    <path fill="#ff9a6c" d="M300.8 251.6v-.5l.2-.1.3-.1s.2 0 .2.2v.3l-.2.5-.2.2h-.5v-.2l.3.1c.2.1.4-.3.5-.7v-.2l-.1-.1c-.2 0-.3 0-.4.2v.4Z"/>
    <path fill="#ffbf9d" d="M299.7 251.5s0 .3.2.3l.3.1c.2 0 .4 0 .5-.2v-.9h-.3l-.2.4"/>
    <path fill="#ff9a6c" d="M300.2 251.2v-.1s0-.2.2-.3l.2-.1c.1 0 .2 0 .2.2v.6l-.1.3-.3.2a1 1 0 0 1-.5-.1l-.2-.2v-.2c0 .2.1.3.2.3h.7l.1-.3v-.6c0-.2-.2-.2-.3 0l-.2.2s0 .1 0 0Zm1.3-1.2-.4.2c-.2.2-.6.2-1 0h-.2v-.2l.2-.1.5-.3.4-.1-.4.2-.4.2-.3.2h.2c.4.2.7.1 1 0l.4-.1Z"/>
    <path fill="#ffbf9d" d="m302.3 243.8-1.1 4 1.4 1.2 2.6-4.6-.8-1.2-2 .6Z"/>
    <path fill="#1a2e35" d="m293.7 239.4-.4.3c-.3 0-.6.2-1 .4l-1.1.4-.4.1.4-.2 1-.4 1-.4.5-.2Zm1.1.6-.5.2-1.2.7-1.2.6-.5.3.5-.4a24.3 24.3 0 0 1 2.9-1.4Z"/>
    <path fill="#1a2e35" d="m290.7 240.6.1.1.3.5 1 1.7 3.1-1.7v.1l-.6-1.8-.2-.4-.1-3-.2-2.5-.1-1.6v-.6.6l.2 1.6.2 2.4.2 3v.5l.7 1.8-3.2 1.6h-.1l-1-1.7-.2-.5v-.1Zm8.3 1.8-.1-.2-.2-.6a28.8 28.8 0 0 1-.8-5v-.2.3l.1.6.4 2.1.4 2.2.1.6v.2Zm1.1-.6-.2-2.8v-2.8l.1 2.8.1 2.8Zm-6.4-12.2-1-.7c-.6-.4-1.2-.5-1.1-.5 0 0 .5 0 1.2.4.6.3 1 .8.9.8Z"/>
    <path fill="url(#v)" d="M304 229s1 1.3 1.4 4.3c0 .7 1.1 7.7 1 8.2 0 .5-.2 2.5-.6 2.4l-.6.5s-1.3-1.3-2.6-.7h-.5l1-5.3 1-9.3Z"/>
    <path fill="#1a2e35" d="m305.2 241.8-.9-.6-1-.4s.5 0 1 .3c.6.3 1 .7 1 .8Zm.2-1.4h-1l-1.1.2s.4-.2 1-.2h1.1Zm-3.1 3.4v-.5l.2-1.3c0-1.1.2-2.6.4-4.3l.5-4.2.1-1.3v-.5 1.8a179.7 179.7 0 0 1-1 8.5l-.1 1.3v.3l-.1.2Z"/>
    <path fill="#1a2e35" d="m305.7 244-.3-.5a3.2 3.2 0 0 0-2.4-1.2h-.5.5a2.9 2.9 0 0 1 2.5 1.1l.3.5Z"/>
    <path d="M302.3 243.6c1.1-3.5 1.5-7.2 1.2-10.8l-1.2 10.8ZM300 238c.4 2.1.6 4.5.2 6.6-.1-2.2-.1-4.5-.3-6.6" opacity=".3"/>
    <path fill="#ff9a6c" d="m300.8 249.3.2.2.6.4h.5l-.8-1.2-.7-.9-1.3-.5-.5-.2.5.2c.4 0 .9.3 1.4.5l.7.9.8 1.2-.3.2h-.3l-.6-.6-.2-.2Z"/>
    <path fill="#ffbf9d" d="m299.1 250.8.1.5c.1.1.3.2.5.1.1 0 .3 0 .4-.2.1 0 .2-.2.1-.4h-1.1"/>
    <path fill="#ff9a6c" d="M299.1 250.8h.5l.2-.1h.5v.2l-.1.3-.6.3c-.2 0-.4 0-.5-.2v-.5.1l.1.3.4.2c.2 0 .4-.1.5-.3l.1-.2-.1-.1h-1Zm3.2.2-.4-.5-.3-.4.4.4.3.5Zm-1.6-.6.4.2.3.2-.4-.1-.3-.3Z"/>
    <path fill="#e1e1e1" d="M241.7 245.6h5.2v2.9h-5.2z"/>
    <path fill="#375a64" d="m239.5 241.8-.5.6-.5.4.4-.5.6-.5Z"/>
    <path fill="url(#w)" d="m236.1 273.7-.7 5-2.7-.3.6-5.1 2.8.4z"/>
    <path fill="#1a2e35" d="m234 278.4.4-2.5a39.4 39.4 0 0 1-.3 2.5Z"/>
    <path fill="#1a2e35" d="m235.4 278.4-2.7-.4v.4l2.7.3v-.3zm-2.5-1.6v-.1a2 2 0 0 1 .8-.5h.7c.4 0 .8.3 1 .6l.1.3v.1l-.2-.4c-.1-.2-.5-.5-1-.6-.4 0-.8.1-1 .3l-.4.3Z"/>
    <path d="m235.8 275.7-.1.5-2.7-.3.1-.4 2.7.2z" opacity=".3"/>
    <path fill="url(#x)" d="m244.8 274-.3 5.1-2.8-.1.4-5.1 2.7.1z"/>
    <path fill="#1a2e35" d="m243.1 278.8.2-2.5a41.4 41.4 0 0 1-.2 2.5Z"/>
    <path fill="#1a2e35" d="m244.5 278.7-2.7-.1-.1.4 2.8.1v-.4zm-2.7-1.4h.1l.3-.3.4-.3.7-.1c.5 0 .9.3 1 .5a1.3 1.3 0 0 1 .3.5l-.3-.4c-.2-.3-.6-.5-1-.5-.5 0-.8.1-1 .3l-.4.3Z"/>
    <path d="m244.7 276.1-.1.4h-2.7v-.5l2.8.1z" opacity=".3"/>
    <g fill="#1a1a1a">
      <path d="M234.5 250.3s-.3 3.4-.2 4.5l.1 9.6s-.6.4-.6 1l-1 10 3.1.5s2.9-10.4 3-11.8c0-1.4 2-11.2 2-11.2l.7 10.7V276s2.3.4 3.4 0c0 0 1-8.2 1-11v-4.3l1.5-7.8c.6-2.6 0-5 0-5l-9.3-1.3-3.7 3.7Z"/>
      <path d="M237 265.2s-.6-.2-1.3-.1c-.6 0-1 .3-1.1.3l.3-.2a2.7 2.7 0 0 1 1.7-.1h.3Zm.1-.8h-1.8 1.8Zm6.4 1.9-.3-.3a3.6 3.6 0 0 1-.7-2v-.4.4a4 4 0 0 0 .8 2l.2.3Zm-2.5-13.8v.1l-.2.1-.2.2a4 4 0 0 1-2.5.6h-.2l-.2-.1h1.6l1.2-.6.2-.1.1-.1.1-.1Z"/>
    </g>
    <path fill="url(#y)" d="M236.8 229.2c-.1 0-2.8.8-3.2 2.1a40.3 40.3 0 0 0 0 8.5c0 .4.3.8.3 1.5 0 2.6-.7 7.1-.5 8.2l.9 3.4 13.4-.7v-3.7l-1.1-7.4s1.7-.6 1.7-2.1-.4-7.7-1.3-8.3c-.8-.6-4.3-1.5-4.3-1.5h-5.8Z"/>
    <path fill="#1a2e35" d="M246.3 232.8v.4l-.1 1.3c-.1.5-.3 1.1-.3 1.8s0 1.4.2 2.2l.7 4 .2 1.3v.4-.4l-.3-1.3-.7-4c-.1-.8-.3-1.5-.2-2.2 0-.7.2-1.3.3-1.8l.2-1.3v-.4Zm-12.3 8.6v-.4l-.1-.9V233l.1.3v8.1Zm5.4 5-.1-.3-.1-1.1a60.6 60.6 0 0 1-.4-7.2v-1.5 1.4a85.4 85.4 0 0 0 .5 7.3v1.5Zm.6 2.3v-5a106.6 106.6 0 0 1 0 5Zm7.8 1.3h-.6l-1.5.2a107.5 107.5 0 0 1-10 .5h-2 2.1a85.3 85.3 0 0 0 10-.6l1.4-.2h.6Z"/>
    <path fill="#1a1a1a" d="M245 229.8c-.9 7.1-1.6 14.3-1.4 21.5h.5l.3-8 1-13.3c0-.2-.2-.2-.5-.2Z"/>
    <path fill="url(#z)" d="m243.2 227.3-6.7 10.2c1.6.9 3.7 1.3 5.2.3.4.5 1.3.3 1.8-.2.4-.5.4-1.3.4-2 0-2.8-.3-5.6-.7-8.3Z" opacity=".3"/>
    <path fill="url(#A)" d="M240.5 220c-.7-.2-1.5.2-2 .7-.6.4-.9 1.1-1.2 1.8-.6 1.3-.9 2.7-1.2 4-.5 2-1 4.1-1 6.2-.2 2 .4 3.3 1.3 5.2l3.2-.4v-.6l.4.6 1.3-.2.3-3.3.6 3.1h1c1-4.1 0-6.8.5-11 .1-1 .4-1.9.3-2.9 0-1-.2-2-.9-2.8-.7-.7-1.9-1-2.7-.4"/>
    <path fill="url(#B)" d="M241.3 237.3v-.2l-.2-.6a30.2 30.2 0 0 1-.3-6.6l.4-1.8 1-3.4a4.3 4.3 0 0 0 0-2.9 3.4 3.4 0 0 0-1-1.6l-.5-.3h-.1.1l.5.3.6.6.5 1 .2 1.3c0 .5 0 1-.2 1.6l-1 3.4a13.5 13.5 0 0 0-.5 3.6 23.1 23.1 0 0 0 .4 4.8v.7Z"/>
    <path fill="url(#C)" d="M236.8 235.2v-.7l-.1-.4v-3.7a25.4 25.4 0 0 1 1.1-5.7l.4-1.2.2-.6.2-.5.4-.8.2-.3.1-.3.2-.4v-.1h.1v.1l-.2.4-.2.3-.1.3-.4.9-.2.5-.2.5-.4 1.2a29.3 29.3 0 0 0-1.1 5.8l-.1 1.2v3.3Z"/>
    <path fill="url(#D)" d="m238.6 237.6-.1-.1-.1-.5-.1-.3-.1-.4-.2-1-.1-.5-.1-.6-.1-.6v-.7a22.7 22.7 0 0 1 .4-6.2l.2-.6.1-.7.4-1c0-.4.2-.7.3-1 0-.3.2-.5.3-.7l.1-.4v-.1h.1v.1l-.2.4-.3.7-.3 1-.3 1-.1.7-.2.7a25.4 25.4 0 0 0-.5 6v.8l.2.6v.6l.1.6.2 1 .1.3.1.3.1.5v.1Z"/>
    <path fill="url(#E)" d="M243 235.6v-.1l-.2-.2v-.3l-.6-1.8c-.2-.8-.2-1.7-.2-2.8l.3-1.6.5-1.7a19.8 19.8 0 0 0 .7-3.3c0-.5 0-1-.2-1.5a3.7 3.7 0 0 0-1.9-2.4l-.5-.1h-.1.6c.4.3 1 .6 1.5 1.3l.5 1.2c.1.4.2 1 .1 1.5 0 .5 0 1-.2 1.6a20 20 0 0 1-.4 1.7 24.4 24.4 0 0 0-.8 3.3 10.5 10.5 0 0 0 .7 4.6v.3l.2.2v.1Z"/>
    <path fill="url(#F)" d="M244 251s-1.6-.2-1.5 1.6l.2 4.4c0 .4.4.7.8.6l6.2-.4c.5 0 .8-.4.7-.8-.2-1.5-.6-4.9-1-5.4-.3-.7-5.5 0-5.5 0Z"/>
    <path fill="#1a2e35" d="M250.2 254.4h-.3a23.6 23.6 0 0 1-4.4.3h-.8a12 12 0 0 0-.7-3.3l-.3-.2h-.3.3l.3.2.2.5c.3.6.5 1.6.6 2.7a244.4 244.4 0 0 0 4 0l1-.2h.4Zm-5.9 3.2-.1-.3-.2-.7a37.1 37.1 0 0 1-.6-4.4v-.9.9l.3 2.2.4 2.2.1.7v.2Z"/>
    <path d="M243.5 251.3s.4.1.5.5l.1.8.4 2.6 5.1-.3.5-.1c0-.1.1-.3 0-.4 0 0-3 .5-5.4.3l-.3-2.3c-.2-.5-.4-1.4-1-1.1Z" opacity=".3"/>
    <path fill="url(#G)" d="M255.5 110.2H3.5V38.1h245.2l20.9 58.4c2.4 7-4.5 13.7-14.1 13.7Z"/>
    <path fill="url(#H)" d="M264.6 101.7c-.5.7-1 1.4-1.7 2l-3 2c-2.1 1-4.6 1.6-7.3 1.8H-.2V35.3H245l1 2.8 19.9 55.6c1 2.9.4 5.7-1.2 8Z"/>
    <path fill="url(#I)" d="M214.5 308.3H335v26.5H214.5z"/>
    <path fill="url(#J)" d="M0 334.8h240.4l6-26.5H0v26.5z"/>
    <path fill="url(#d)" d="M17.8 247.4H201v30.9H0v-13.1c0-9.8 8-17.8 17.8-17.8Z" transform="rotate(180 100.5 262.8)"/>
    <path fill="url(#K)" d="M183.6 275.8c7-.8 10.5-3.4 11.9-4.5 4.2-3.6 4.8-8.2 5.6-13.9a41 41 0 0 0 0-10v10c.1 6.4.4 8-.7 10.5-.6 1.4-2.1 5-6.7 7.7a21.6 21.6 0 0 1-10.4 2.7H0v-2.4l183.6-.1Z" opacity=".6"/>
    <path fill="url(#L)" d="M17.8 211.4H201v30.9H0V229c0-9.8 8-17.7 17.8-17.7Z" transform="rotate(180 100.5 226.8)"/>
    <path fill="url(#M)" d="M183.6 239.7c7-.7 10.5-3.3 11.9-4.4 4.2-3.6 4.8-8.2 5.6-13.9a41 41 0 0 0 0-10v10c.1 6.4.4 8-.7 10.5-.6 1.4-2.1 5-6.7 7.7a21.6 21.6 0 0 1-10.4 2.7H0v-2.5h183.6Z" opacity=".6"/>
    <path fill="url(#N)" d="M17.8 174.3H201v30.9H0v-13.1c0-9.8 8-17.8 17.8-17.8Z" transform="rotate(180 100.5 189.8)"/>
    <path fill="url(#O)" d="M183.6 202.7c7-.8 10.5-3.4 11.9-4.5 4.2-3.6 4.8-8.2 5.6-13.9.5-4.1.3-7.6 0-10v10c.1 6.4.4 8-.7 10.5-.6 1.4-2.1 5-6.7 7.7a21.6 21.6 0 0 1-10.4 2.7H0v-2.4l183.6-.1Z" opacity=".6"/>
    <path fill="url(#P)" d="M15.5 153.2a5.2 5.2 0 0 0-4.1 8.2l4.1 7.2 4.2-7.2c.6-.9 1-2 1-3 0-3-2.3-5.3-5.2-5.3Zm0 7.5a2.3 2.3 0 1 1 0-4.6 2.3 2.3 0 0 1 0 4.6Z"/>
    <path fill="#fff" d="M83.4 312.3c.3 0 .5.1.5.2v17.1c0 .1-.2.2-.5.2s-.5 0-.5-.2v-17c0-.2.2-.3.5-.3Z"/>
    <g fill="#fff" data-name="PRINT">
      <path d="M29.6 14c0 .4-.2 1-.6 1.3l-6.3 6.4-6.8-4V14a2 2 0 0 1 4 0v4.9l6.3-6.3a2 2 0 0 1 3.4 1.4ZM29 31.7a2 2 0 0 1-2.8 0L24 29.6l-4-4.2v4.9c0 1-1 2-2 2s-2-1-2-2v-3.9l6.8-3.9 4.2 4.2 2 2.2c.9.7.9 2 0 2.8ZM22.4 22l-.2-.3-1.8-1-4.5-2.6-3.9-2.3c-.2 0-.5 0-.6.2v11.9a.5.5 0 0 0 .6.4l3.9-2.2 6.2-3.6h.1l.1-.2V22Zm-9.6-4.8 3 1.8 4.9 2.8.1.1v.3l-.1.2-4.9 2.8-3 1.8c-.2 0-.4 0-.5-.2v-9.2c0-.2.1-.4.3-.4h.2Z"/>
      <path d="m19.5 22.2-.2.1-3.6 2.1-2.3 1.3h-.3v-7c0-.2 0-.3.2-.3h.1l2.3 1.4 3.6 2 .2.2v.2Zm43-.6L57 18.8l-3.4-1.7a.4.4 0 0 0-.6.1v9.5c.1.2.3.4.5.4l.2-.1.2-.1 3.2-1.7 2-1 3.5-2c.1 0 .2 0 .2-.2v-.2l-.2-.2ZM57 24.5l-2.6 1.4-.4-.1v-.2l-.2-7.2c0-.1.2-.3.4-.2l2.8 1.3 1 .5 3.3 1.7.2.2v.1l-.2.2-4.3 2.3Z"/>
      <path d="M60.1 22v.1L56.7 24l-2 1h-.3v-.1l-.1-5.5.2-.2h.1l2 1 3.3 1.7.1.1v.1Zm-21.6-4.8h-4.8V27h2.4v-3.1h2.5c2.3-.1 4-1.5 4-3.4s-1.8-3.2-4-3.2Zm-.2 4.6H36v-2.7h2.3c1.1 0 2 .5 2 1.3 0 .9-.9 1.4-2 1.4ZM51.8 27l-7.7.1-.2-9.7h2.4l.1 7.8 5.3-.1.1 1.9zm15.7-3.7.1 3.5h-2.4v-3.5l-4.3-6.1 2.7-.1 2.7 4.3 2.8-4.3 2.6-.1-4.2 6.3zm14.4 3.9-1.6.1-4.1-4.5-1.7 1.6v2.9l-1.2.1-.1-9.7h1.2l.1 5.3 5.4-5.4h1.6L77 22.1l4.9 5.1zm6.1-9.9c-3 0-5.5 2.4-5.5 5.1 0 2.7 2.6 5 5.6 5 3 0 5.5-2.4 5.5-5.1 0-2.7-2.6-5-5.6-5Zm.4 9a4.3 4.3 0 0 1-4.7-4 4.3 4.3 0 0 1 8.6 0 4.3 4.3 0 0 1-4 4Zm14.8-1.8c0 1.6-1.3 2.8-3.8 2.8a6 6 0 0 1-4.2-1.4l.7-.9a5 5 0 0 0 3.6 1.4c1.6 0 2.5-.9 2.5-1.8 0-1-1-1.4-3-1.8-2.1-.4-3.5-1-3.5-2.6s1.5-2.8 3.5-2.8c1.4 0 2.8.4 3.8 1.3l-.7.8a5 5 0 0 0-3.1-1.2c-1.3 0-2.3.9-2.3 1.7 0 1 1 1.4 3 1.8 2 .4 3.5 1 3.5 2.7Zm12.8 2.7h-1.2l-.1-7.3-3.9 6.8-4.1-6.7.1 7.3-1.3.1-.1-9.7h1.3l4 6.7 4-6.8h1.2l.1 9.6zm7.7-9.9c-3 0-5.5 2.4-5.5 5.1 0 2.7 2.6 5 5.6 5 3 0 5.5-2.4 5.5-5.1 0-2.7-2.6-5-5.6-5Zm.4 9a4.3 4.3 0 0 1-4.6-4 4.3 4.3 0 0 1 8.5 0 4.3 4.3 0 0 1-3.9 4Zm14.9-1.8c0 1.6-1.4 2.8-3.9 2.8A6.2 6.2 0 0 1 131 26l.7-.9.6.4c.8.6 1.9 1 3 1 1.6 0 2.5-.9 2.5-1.8 0-.7-.6-1.1-1.6-1.4L135 23h-.2c-2.1-.5-3.5-1-3.5-2.7 0-1.6 1.5-2.8 3.6-2.8a6 6 0 0 1 3.8 1.3l-.8.8a5 5 0 0 0-3-1.2c-1.4 0-2.4.9-2.4 1.7 0 1 1.1 1.4 3 1.8a14.6 14.6 0 0 1 2 .6c1 .4 1.5 1 1.5 2.1Z"/>
    </g>
  </g>
</svg>
