<svg data-name="Layer 1" xmlns="http://www.w3.org/2000/svg" width="335" height="335" xmlns:xlink="http://www.w3.org/1999/xlink" viewBox="0 0 335 335"><defs><radialGradient id="a" cx="167.5" cy="168.5" fx="167.5" fy="168.5" r="167.5" gradientTransform="matrix(1 0 0 -1 0 336)" gradientUnits="userSpaceOnUse"><stop offset="0" stop-color="#d7df23"/><stop offset="1" stop-color="#f9ed32"/></radialGradient><radialGradient id="b" cx="89.1" cy="21" fx="89.1" fy="21" r="10.5" xlink:href="#a"/></defs><path fill="url(#a)" d="M0 0h335v335H0z"/><g fill="#006838"><path d="M105.6 276c.5 0 1 0 1.6.1 1.2.2 1.7.7 1.8 2 0 1.7 0 3.4-.2 5.1 0 1.1-.2 2.2 0 3.3.4 1.3-.3 2.7-1.4 3.5-.2.1-.5.3-.7.4-.4.2-.7.6-.7 1s0 .4.3.5h6.1c.4 0 .7-.3.7-.7 0-.2 0-.4-.2-.5-.2-.3-.3-.6 0-1 .3-1.2.3-2.3.3-3.5 0-2.4.2-4.8.4-7.2 0-.5 0-.9.2-1.4 0-.2 0-.3.3-.3.4.1.8 0 1.2 0 .7 0 .8 0 .8.7v.4c-.2 3.2 0 6.4 0 9.7s.2 1.5.3 2.3v1.3c.2.2.4.3.7.3h3.3c.4 0 .7.2.8-.4v-2c0-.3-.4-.3-.5-.5v-.7l.6-5.7c0-1.7.3-3.3.4-5 0-.2 0-.3.3-.3 1.4 0 2.8-.2 4.2-.1 0 0 .2 0 .2-.2 0-.7.2-1.3 0-2-1-4-2.1-8.1-3.2-12.1-.6-2-.7-3.9-.2-5.8.3-1.2.5-2.4.7-3.6.3-2.4 0-4.8-.3-7.2 0-.8-.3-1.6.2-2.3v-.5c-.2-.6-.5-1.1-.8-1.6-1.1-2.1-2-4.3-2.4-6.7-.4-1.9-.8-3.7-1.2-5.6-.3-1.3-.6-2.6-1.6-3.6-1.1-1.1-2.3-1.6-3.8-1.2-1.6.4-3 1.1-3.5 2.8s-.7 3.4-.8 5.2c0 .4 0 .9.4 1.2.6.6.7 1.3.8 2.1 0 1.1-.3 1.4-1 1.5h-.5c-1 .1-1.9.5-2.6 1.3-.7.7-1.3 1.5-1.9 2.3-.4.5-.4 1-.2 1.6.2.4.3.9.4 1.3v.8c-.3.7-.7 1.3-1.1 1.9-.4.5-.9.6-1.5.4-.6-.2-1.1-.5-1.1-1.2v-11.5c0-1.4 0-2.9-.4-4.3-.3-1.8-1-3.5-1.5-5.2-.3-1.2-.3-1.3.7-2 .6-.4.7-.6.5-1.3-1.1-3.6-2.5-7-4-10.5-.7-1.7-1.9-2.9-3.6-3.7-.4-.2-.8-.4-1.3-.6-1-.4-2-.7-3-1.2-.8-.3-1.5-.8-2.1-1.4-.9-1-.8-1.6 0-2.3.5-.5.7-1.1.7-1.7s-.2-1-.2-1.5c0-1.9-.4-3.8-.7-5.7 0-.7-.4-1.4-1.1-1.7-1.4-.7-2.8-1.4-4.3-1.7-1.2-.3-2.5-.3-3.5.5-.8.6-1.6.9-2.5 1.1-.8.2-1.4.7-1.5 1.5v1.7c.2 0 .2-.2.2-.3 0 1.2.4 2.4.6 3.5 0 .5 0 .9-.4 1.2s-.4.7-.2 1.1c.5.6 1 1.1 1 2v.2c.3.4.4.8.3 1.3 0 .5 0 .8.7.8h.4c.2 0 .3 0 .3.3 0 .7-.2 1.4-.9 1.6-1.2.4-2.3.9-3.5 1.3-1.3.5-2.2 1.4-2.8 2.7-1.4 3.1-2.4 6.3-3.3 9.6-.3 1.1-.5 2.3.4 3.2v.3c-.5 0-.6.3-.7.7-.9 3.7-1.6 7.5-2.4 11.2l-.3 1.8c0 .2 0 .4-.4.5-.2 0-.2-.2-.3-.3-.5-.8-1-1.6-1.2-2.5-1.3-4.7-2.7-9.3-4.3-13.9-.8-2.2-1.5-4.3-2.5-6.4-.4-.7-.9-1.2-1.6-1.6-.8-.4-1.7-.7-2.7-1-.3 0-.5-.2-.6-.4-.3-.4-.4-.8-.2-1.3.3-1 .3-2 0-3.1-.2-.7-.3-1.4-.4-2.2-.4-2.2-1-4.4-1.9-6.4-.7-1.6-1.9-2.8-3.7-3.1-.3 0-.6 0-.9-.2-.7-.2-1.4 0-2 .4-.9.6-1.7 1.2-2.4 1.9s-1.1 1.5-1.2 2.5c0 2.3-.2 4.7 0 7v2.6c0 1.6-.6 2.4-2.1 2.9-.7.3-1.5.4-2.2.6-1.6.5-2.7 1.5-2.9 3.2-.2 1.5-.4 3.1-.6 4.6-.2 2.3-.5 4.6-.6 6.8-.2 2.9-.2 5.8-.2 8.7s-.2 2.5-.4 3.8c-.4 2-.5 4-.4 6 0 .6.2 1.1.7 1.5.8.6.9.8.5 1.7-.3.6-.4 1.3-.3 2 0 .5 0 1-.3 1.5-.6.9-1.3 1.7-2.2 2.2-.6.4-1.2.4-1.8 0-.2-.1-.4-.3-.6-.5-.9-1-2-1.4-3.4-1.4s-1.5-.5-1.9-1.2c-.5-.9-.2-1.6.7-2 .5-.2.8-.6.9-1.1.3-1.5.4-2.9.3-4.4 0-.7-.3-1.3-.8-1.8-1.1-1.2-2.4-2.1-4-2.5-.9-.2-1.5 0-2.2.3 0 0-.2 0-.3.2-1.1.7-2 1.6-2.9 2.5-.6.6-.9 1.4-.8 2.3 0 .5.1.9.2 1.4.4 1.8 1 3.6 2.9 4.5.4.3.5.8.4 1.2 0 .4-.5.4-.8.5h-.2c-.7.1-1.4.3-1.9.8-.3.3-.6.4-1 .4-.7.1-1.1.5-1.3 1.1-.7 1.7-1.4 3.4-2.2 5-.3.5-.4 1-.7 1.5-.2.5-.2 1 0 1.4.5 1 1.2 1.8 2 2.6.7.5 1.4.9 2.3.7.6 0 .7 0 .7.6v6.3c-.2 3.5.5 6.9.8 10.4 0 1 .1 2-.3 2.9-.5.9-.5 1.9-.3 2.9.1 1.1.6 2.1.8 3.1.3 1.2.8 2.5.5 3.8 0 .2 0 .5.1.7h12.4c.3 0 .8.2.9-.3v-.3c-.1-.4-.2-.6-.4-.9-.5-.5-1.1-1.1-1.8-1.1-1.3 0-2.5-1.7-2.1-3 0-.3.3-.5.5-.6.2 0 .5-.2.7-.3.5-.2.7-.5.7-1 .3-6.4.2-12.8.3-19.1 0-3.1.1-6.2.2-9.3 0-.8.2-.9.9-1.2 2.5-1 4.7-2.3 6.2-4.5l.9-1.2c.2-.2.4-.3.7-.3.9 0 1.1.2 1 1.1-.2 1.5-.7 3-1 4.5-.2 1-.4 2.1-.5 3.1 0 .3 0 .6-.3.9-.6.8-.6 1.8-.6 2.7s.5 1.3 1.6 1.3 2.8.2 4.3.3h.7c.5 0 .6.1.6.6 0 1-.2 2-.4 3-.3 1.8-.2 3.6 0 5.4.2 1.7.4 3.3.5 5 .2 2.4.4 4.7.8 7.1.3 1.6.3 3.2-.7 4.6-.6.9-.7 1.9-.7 2.9s.3.6.6.6h13.6c.6 0 1 0 1.2-.6v-1.2c-.3-.5-.7-.3-1-.6-.3-.2-.5-.5-.6-.9-.4-1.2-.5-2.4-.3-3.7.7-4 1.7-7.9 2.5-11.9.6-2.8.6-5.5.2-8.3 0-.7 0-1.3-.3-2 0-.4 0-.5.4-.5l3.3-.6c1.1-.2 2.2-.4 3.3-.8.8-.3 1.1-.7 1.1-1.5 0-1.6-.4-3.2-.9-4.7-2-6.2-4-12.5-6.1-18.7-.4-1.2-.6-2.4-.3-3.7 0-.6 0-1.3-.3-1.9-.8-2.3-1.5-4.6-1.8-7-.3-1.9-.5-3.9 0-5.8.7 2.3 1.5 4.6 2.2 6.9.6 2 1.3 3.9 2 5.9.3.9.8 1.8 1.6 2.4 1.3 1.2 2.1 2.6 2.6 4.2.3.9.7 1.9 1.3 2.7.6.9.6 1.9.7 2.9 0 1 .8 1.4 1.8 1 .6-.3 1.2-.6 1.7-1.1.3-.4.8-.6 1.1-.9.6-.4.7-.6.5-1.3v-.7c0-.9-.3-1.6-.9-2.3-.4-.5-.5-1.1-.5-1.7 0-1.2 0-2.4.8-3.4 2.4-2.9 3.4-6.3 4.5-9.8.4-1.4.9-2.7 1.3-4.1 0-.3.2-.6.4-.8 0 0 .2-.2.3-.2.2 0 0 .2 0 .4 0 0 0 .1 0 0 0 .6.2 1.1.2 1.5.2 1.5 0 3 0 4.6-.2 1.8 0 3.5.2 5.3.3 2.3.7 4.6.8 6.9 0 1.5-.2 3.1-.5 4.6-.6 2.6-.4 5.3 0 7.9.5 2.6.8 5.1.9 7.7 0 2.4.3 4.8.5 7.2.2 2.5.3 4.9.5 7.4 0 1.6.2 3.1.3 4.7 0 .4.4.7.5 1.2 0 .7.3 1.4.4 2.2 0 .5 0 .8-.5.9-.2 0-.4.1-.5.2-.4.2-.6.5-.6 1v.5c.2.5.3 1 0 1.4-.2.2-.5.6-.6.9-.2.4-.3.9-.5 1.3-.3.6-.7 1-1.4 1.1-1.2.1-2.1 1.1-2.2 2.3 0 1 1 1.9 2 1.9h8c.7 0 1.3-.6 1.3-1.3v-1.3c0-.3 0-.6-.3-.9v-.7c.2-.6.5-1.1.8-1.6.5-.9.7-1.8.7-2.8 0-4.7-.2-9.4-.3-14v-3.3c0-1 .2-1.9.7-2.7.9-1.4 1.1-3 1.1-4.6 0-2.5 0-4.9-.2-7.4 0-.4.5-.9.9-.9s.2.1.2.2c1.3 4 2.6 7.9 3.9 11.9.4 1.2.7 2.3 1.1 3.5.7 1.9.6 3.8 0 5.8-.6 2.3-.6 4.7-.3 7.1 0 1.4.3 2.9 0 4.3 0 .9 0 1.8.6 2.6.3.4.6.9.9 1.4.2.3 0 .6 0 .9v1.1c0 1.1 0 2.7 1.5 2.7h5.5c.8 0 1.4-.6 1.4-1.4v-1.9c0-.7-.5-1.1-.8-1.8-.2-.5-.4-1-.5-1.5 0-.4-.3-.8-.7-1.1-.3-.2-.4-.6-.4-1 .2-1.3.4-2.6.3-4 0-3.4-.2-6.8-.4-10.2 0-2.2-.2-4.3-.4-6.5-.2-2.4-.4-4.7-.6-7.1-.2-2.1-.4-4.1-.6-6.2 0-.9 0-1.9-.2-2.8v-3.3c0-.3.6-.8.9-.8s.2 0 .3.2c0 .2.3.4.4.7.4.9 1.2 1.2 2.1 1.3h.2c.5-.4.7 0 1 .3 1.4 1.2 3 1.5 4.4.5.4-.3.7-.6.9-1 .5-.8.9-1.6 1.4-2.4.4-.6.5-.6.9 0 .5.8.5 1.7.5 2.6 0 2.1-.3 4.1-.7 6.2-.8 4.3-2.2 8.4-3.5 12.6-.3.9-.4 1.9-.4 2.8s-.2 2.1-.6 3.1c-.3.6-.3 1.2-.2 1.8 0 .6.3.8.9.8h2.1v.4h.2Zm13.7-27.1c0-.4.3-.8.7-.8s.2.5.3.8v4c-.7-1.3-1.3-2.6-.7-4h-.3ZM16.1 294.8c0 .3-.2.4-.5.3-.5-.1-1-.3-1.2-.9-.2-.5 0-.9.3-1.3l.7-.7s.2-.3.4-.2c.2 0 .2.2.2.4v2.4h.1Zm17.2-57.9c-.6 1.4-.5 2.8-.4 4.3.2 1.4 0 2.8 0 4.1s-.3 2.4-.5 3.6c0 .6-.3.6-.8.3-.3-.2-.4-.5-.5-.8-.6-1.5-.7-3-.5-4.5.5-3.2.9-6.4 1.4-9.7.4-2.4.6-4.9 1.1-7.3 0-.2 0-.5.3-.5s.4.2.5.5c.2.6.4 1.3.4 2v2.3c0 2 0 3.9-.9 5.8Zm13 53.8c0 .8-.2 1.5-.5 2.2-.5 1-1 1.8-1.6 2.7-.2.2-.3.3-.6.2-1.2-.4-1.8-1.3-2.1-2.5-.5-2.7-.6-5.4-.4-8.2.2-3.2.9-6.3 1.1-9.5v-7.2c0-.3 0-.4.3-.4 1 0 2-.2 3-.3.3 0 .4 0 .5.4.4 1.2.2 2.7 0 3.9 0 .8 0 1.5-.2 2.3v2c0 1.6 0 3.3.4 4.9.2.6.3 1.2.3 1.7v8-.2h-.2Zm50.6-48.4c-.3.5-.6.5-1 .2-.3-.2-.5-.5-.7-.8-.5-.9-.8-1.9-.9-3-.3-2-.6-4.1-.8-6.1-.2-2-.2-4-.3-6v-1.9c0-.4.2-.4.4-.2.5.4.9.8.8 1.5 0 1.4.3 2.8.8 4.1.9 2.3 1.4 4.6 1.7 7 .2 1.2.3 2.3.3 3.5s-.2 1.1-.5 1.6h.2Z"/><path d="M334.7 291.4c-.1 0-.2 0-.4-.1-.3-1.2-.3-1.7-.5-2.2v2.2c-2.5 0-2.2-.4-3.3 2.3 0-2.6.2-4.7-.1-6.5 0 0-1.5 6.9-2.1 8.6-.1 0 0 0-1.3-1.8-.7-.9-1.4-1.9-2.1-2.8-.2-.3.3-.7.9-2.2-.5.4-.2.3-1.3 1.5-.6-.7-1-1.5-1.6-2.2.1.5 1.5 2.4 1.3 2.6-.4.4-.6.9-1.1 1.2-.2-.5-.4-3.9-.5-4.4 0 1.8.1 1.9 0 3.2-.3-.2-.4-1-.7-1.3 0 .7.4 1.3.5 2 0 .5 0 1-.1 1.5-.3-1.1-.6-4-.7-4.7-.4 1 0 1 0 1.5v2.8c-.2-.4-.2-.8-.5-1.2.5 2.3.6 2 .5 3 0 .2-2.3 4.2-2.5 4.3-.1-.7-.2-1.5-.3-2.2-.2.4-.4 1.8-.5 2.4 0-.2-.2-2.7-.2-2.8h-.1c0 .7.1 1.3 0 1.8-.3-1.4-.7-2.7-1-4.1l-.7-3.4c-.1-.9-.2-1.9-.4-2.8-.3.7-.2 1.4-.4 2.1-.4 1.3-.4 4-.8 5.2-.3-.5-1.2-3-1.3-3.3.9-3.4 2.1-6.8 2.1-7.1-.2.2-2.4 4.6-2.8 4.8-.5-1.5-.5-1.9-.9-2.5-.1 1.8.4.2-.2 4.7 0 .3-.3.6-.5.9 0 0-.2 0-.3-.1 0 .2.2.5 0 .7-.8 1.5-.8 2.1-1.2 2.5-.3.3-1.6 1.9-1.6 1.9-.2-.1-.3-.3-.5-.4 0 .2.2.4.3.7-.2.3-.5.6-.8.9 0-.5.2-1 .2-1.5-.2.5-.2 1-.5 1.5 0-.2-.2-.5-.1-.7.3-.6 1.4-3.5 1.5-4.2-.4.5-.5.9-1.5 2.1.1-2.6.8-4.8.5-5.8 0 0-1.5 6-1.7 6.3-.2-.8-.2-2.1-1.3-4.9-.2-.5 0-1.7-.3-2.1 0 .3 0 .5-.2.8-.2-.2-.2-.5-.4-.7-.6-1.2-.1-.6-.9-1.8 1.3 5.2 1.1 4.3.9 5.5 0 .4 0 .8-.2 1.2v.8c-.4 2.4 0 2.5-.5 5.3h-.2c-.4-1.3-1-6.7-1.1-7.1-.1 1.3.3 4.4.2 6-.2-.3-.2-.7-.4-1 0-.3-.3-.5-.3-.8 0 0-.2-4.8 0-6.1 0-.6.3-2.5 0-3.3-.2.3-.5 2.1-.5 2.4s0 .8-.2 1.1c-.3.5-.6 2.6-.8 3.2-.2-.3-.6-3.7-.9-4 0 0-.1 3.3-.2 3.7-.8-.9-1.3-2.7-1.3-2.7-.1.8-.2 1.5-.4 2.3-.9-.7-1-.6-1.5-.5-.4.1-.9.1-1.3.3v-.4c-.2.3-.3.6-.5.8-.2.3-.4.6-.6.8-.1.2-.2.5-.4.7-.5-.8.4-1.7.8-3.5-.3.2-.4.6-.7.8v-.3c0 .2-.1.4-.2.6-.2-.5 0-3.2-.6-4.7-.2.5-.1 3.5-.4 4-.6-.3-.6-1.5-1.1-2.5-.2-.4 0-.8-.1-1.2 0-.4.2-.7.3-1v-.5c0 .2-.1.5-.2.7h-.1c0 .3-.2.2-.8 1.7h.1l.3-.6h.2c0 .9-.7 3.3-.9 3.8-.5-1.2-.4-1.3 0-1.8.2-.4.3-.8.5-1.2-.1.3-.3.7-.6.9-.1.1-.4.2-.4.4 0 .5-.3.7-1.3 2.3h-.1c0-.3-1.5-6-1.5-6v1.2c0 .3-.2 3.3-.2 3.6-.3-.2-.7-.4-1.1-.4s-.4 0-.5-.2c.1-.7.2-1.3.2-2-.2.4-.4.8-.3 1.2-.5.5-1.2 4-1.7 4.7-.1-.5-.2-2.8-.2-2.9.2-.2.4-.3.6-.5-.2 0-.4.1-.6.2 0 0-1.2-8.3-1.8-9.3h-.2c0 1.1-.6 2.8-.7 3 0 .4-.3.7-.4 1.1-.3.8-.6 2.2-1 2.4v-2.1h-.2v-.5c-.4.6 0 3.7-.8 5.6-.2-.4-.1-.8-.1-1.2-.3-.7-.2-1.5-.4-2.2-.3.8-.2 1.7-.4 2.5l-.3-.6c0 1.4.2 2.4 0 3-.2-.3-.2-.6-.3-.9-.2-1.2-1.2-4.7-1.6-5.4-.2.2 0 4.7-.4 5.1-.1-.9.1-.6 0-2 0 .1-.1.3-.2.4-.3-.8-.2-3.2-.4-3.8-.2.3-1 5.8-1 5.9h-.2c-.3-1.5-.5-5.3-.8-5.8-.2.7-.2 4.1-.4 4.7 0-.7-1-8.5-1.2-9.1-.2 2.1 0 2.1 0 3.4v2.7c0 .6-.6 2.5-.8 2.9v-.7s-.1 0-.2.1c-.8-2.6-.4-1.6 0-5-.6 1.3-.7 1.4-.9 1.5-.2-.4-.3-.8-.5-1.2 0 .6.1 1.2 0 1.8-.6-1-.5-1.2-.8-1.5.2 1.1.7 2.5.6 2.9-.2.4-.6 1.4-.8 1.8-.3-1.1-.5-6.6-.7-7.7-.2 1-.6 5.2-.8 5.9-.3-.8-.2-1.8-.5-2.6 0 1.1-.3 3.2-.3 3.7-.7 0-1.3-.3-2-.4-.5 0-1.1 0-1.6-.3-.2-.5 0-1-.3-1.5 0 .5-.1 1-.2 1.5h-.5c.2 0 .4.1.5.3 0 .8-.2 1.5-.2 2.3s0 .2-.1.4c-.3-1-.5-2-.9-3h.2c-.4-.1-.4-.6-.6-.9s-.4-.5-.6-.7c-.2-1.7-.1-1.7-.3-1.9 0 .3 0 .6-.1.9-.2-.4-.4-3-.5-3.5 0-.9-.3-1.8-.4-2.7-.1-.8-.4-3.9-.8-4.2 0 .5-1 7-1 7.1-.5 3.5-.3 2.6-.3 3.9-.5 0-1.4.2-1.4 0-.3-1.1-1.4-6.6-1.4-6.7-.2-1.1-.5-4.1-.7-4.3-.9 6.7-.6 9.6-.6 11s.3 1.6.1 2.4c-.2-.1-.3-.4-.6-.4h-.6v-.3c0 .1 0 .3-.2.3-1 .3-.9-.1-2.2.5-.1-.7-.6-6-.7-6.3-.1.9-.2 1.9-.2 2.8-.4-.5 0-1.7 0-2.6-.2.2-.2.5-.4.7 0-.2-.3-2-.5-2.3v.7c-.2-.3-.2-1.5-.4-2-.2.5-.5 5.9-1.1 6.9-.2-.4-.2-.9-.2-1.3 0 .6 0 1.2.1 1.7 0 .2-.2.4-.3.6 0 0-.1 0-.2-.2-.2-.3-.4-.5-.7-.6-.2-.1-.5 0-.7-.1v-2.6c.2 0 .3-.1.5-.2h-1.6c0-.1-.1-.2-.2-.3 0 .1 0 .2-.1.3h-1v-1c-.2.3 0 .7-.2 1-2.3.5-2.1.3-2.8 1.1h-.1c-.2-.4-1-4.3-1.2-5.2-.1-.4-.1-.8 0-1.2h-.1c0-.3-.1-.7-.3-1 0 .4 0 .7-.1 1.1-.2 1.2.2 1.4 0 1.9-.1.2-.1.5-.3.6v-.5c-.3.5-.3 2.2-.7 3.2-.5 1.5 0 .9-1.4 1.8-.3-.4 0-3.6 0-5.2-.3.9-.7 3-.8 3.4-.5 1.9-.1 1.5-.6 4.2-.4-.7-.6-1.4-1-2-.1-.3-.4-.5-.2-.8h-.2c-1.1-2.1-.4-.2-.9-3.2 0 .4 0 .8-.1 1.2 0-.2 0-1.9-.2-2.4-.2-.7-.6-4.5-.6-4.8h-.1v1.6c0 .7-.2 3.8-.2 3.9-.5-.3-1.1-2-1.9-3 0 0 .4 2.5.7 3.2.3.9 0 4.6.1 4.7-.5.3-1.1.6-1.7.8 0-.6-.2-1.2-.1-1.9h-.1c0 .4-.2 2-.2 2.2-.2 0-.3.1-.4.2 0 0-1.1-5.1-1.6-5.9-.3.9-.3 6-.4 6.5-.3-1.5-.1-2.1-.2-4.3-.2.4-.6 2.6-1 4.1-.6-1.3-1.5-3.8-1.6-4.1-.2-.3 0-.7 0-1.1 0 .1-.1.3-.2.4-.2-.3-.3-.7-.5-1 0 .5.3 1 .4 1.5 0 .3-.4 2.5-.6 2.6 0 0 0-2.1-.4-4.6 0 .2-.4 3.3-.4 3.4-.1.9 0 .2-.8 2.2-1.4.2-.8.4-1-2.9-.2.3 0 .7-.2 1-.1.7-.3 1.4-.4 2.1-1.4.5-2 2-2.7 2.8 0-.7.1-1.4.2-2.1-.1.2-1 2.6-1.1 2.6v-1.2c-.2.6-.2 1.3-.4 2-.2-.2-.5-.4-.8-.5-.5 0-1 .2-1.5.1.4-.4 1.9-1 2.1-1.4-.8.3-1.5.7-2.3.9 0-.3-.3-.5-.3-.8-.1-1.4.2-1.7.2-2.3l-.2.2s.3-5.1.3-5.5c-.4 1.8-.8 4.2-1 4.8-.2-.4 0-1-.3-1.4 0 .6-.1 1.2-.2 1.8-.7-1.3-2.4-5-2.4-5 0 .7.4 1.4.6 2 0 0 0 2.3-.7 7.5 0-.1-.4-1-.3-1.3h-.1c0-.3-.1-.5 0-.8h-.1c.2-.7-.9-6.2-.9-6.3-.1-.3 0-.8-.4-.9-.4.7-.5 5-.7 5.6 0 .3-.2.6-.3.9 0 0 0-.1-.1-.2v.5c-.2-.6 0-.8-.1-3.7 0-1.9 1.5-6.4 1.7-7.8-.2.2-3.3 7-3.9 9 0 .3-.2.7-.4 1-.2.4-.3.8-.5 1.2 0-.9-.2-1.8-.2-2.7s0-.9-.1-1.3c-.3 6.1.3 3.9-.9 8-.2.8-.3 2.1-.6 2.3v-.5h-.1c0-.2 0-.4-.1-.6 0 .2.1.3.2.5 0-.2 0-.4-.1-.6h-.1c0-.1-.1-.3-.2-.6h.2c0-.2-.1-.4-.2-.7v.3-.4c0-.4-.2-.8-.1-1.2 0-.2-.1-.3-.2-.4v-1c0-1.8-.3-1.4 0-5v-1.5c-.1.6-.2 1.1-.3 1.7 0-.6-.2-3.4-.3-3.7 0-.6.1-1.2 0-1.8-.1.3-.1.6-.2.9 0 2.9-1 7.3-1 7.5-.1-1.1.5-3.5.5-3.6h-.1c-.2.8-.5 1.6-.6 2.5-.2-.5 0-1-.2-1.4-.1.4-.5 4-.9 4.9v-.6c0-.3 0 0 .3-2.2-.3.2-.4 1-.8 1.6v-.6s0 .1-.1.2c-.2-.4-1.3-3.4-1.4-3.5 0 .3.4 2.2.5 2.5.2.8-.4 4-.9 5.4-.2-.2.4-2 .5-3.6-.3.2-.3.6-.5.8v-.7h.1c-.4-.9-.1-3.1-.5-3.8-.1.7.2 1-.4 3.1 0 0 0 .1-.1.2v-1.1h-.1c-.4-2.6-.4-1.1 0-4.1-.2.2-.2.5-.3.8-.1.8-.3 1.6-.4 2.3 0 .4-.2.7-.3 1-.1-.8-.7-2.8-.7-2.9.2-1.2 3-6.5 3-7.9 0 0-2.5 4.9-3.4 6.3-.2-.4-.2-.9-.3-1.4-.1-.3.1-.6.2-.9.3-.6.5-1.2.8-1.8 0-.2.2-.4.3-.6-.4.3-1.3 2-1.6 2-.1-.3-.1-.5-.2-.8-.3.8 0 .8-.1 1.4-.2-.2-.1-.5-.1-.7v-1.3c-.1.3 0 .7-.2 1.1-.1.3 0 .7-.1 1-.1.4.1.5-.3 1.1-.4-2.3-.5-4.6-.5-4.9 0 1.1-.5 4.9-.7 5.8-.3.5-.8.9-1.3 2.7-.1.3-.2.7-.4 1 0-.7-.1-5-.1-5.1-.2.8-.3 1.7-.5 2.6 0 .2-.6 2.4-.8 3.1-.1-.2-.3-.3-.5-.4v-.5s-.2.1-.2.2l-.4-3.1c-.2.7-.1 2.4 0 2.8 0 0-1.6-1.3-2.3-1.8v-4.7c-.1.3-.1.6-.2 1-.2 1.1-.4 2.2-.7 3.3h-1.3c0-.7 0-1.5-.1-2.2-.1.8-.2 1.6-.4 2.4h-.2c0-.3 0-.6-.1-.9-.1.3-.1.7-.1 1-.5.4-1 1-1.2 1.7 0 .3-.2.6-.2 1h-.1c.1-.3-.2-.5-.3-1.6.1-.4 1.2-2 1.3-3.2 0-.5.3-.9.3-1.9l-1.6 3.3-.2-.2c0 .3 0 .5-.2.8-.1-.7-.3-1.5-.4-2.2v-.9h-.2c-.2-.7-.4-2.4-.5-2.7v1.3c.3 2.1.4 1.9-.2 2.3 0-.3-1.1-9.9-1.1-9.9h-.1c0 .9-.6 9.2-.6 9.3-.1-.3-.8-4.6-.9-5.1-.1.9 0 1.9 0 7.7v1.2c-.1 1.1.1.3-.7 1.4 0-.3 0-.6-.1-.9-.2 1.7.1.5-.4 1.6h-.2v-.8s0 .2-.1.2v-.3h.1c-.2-.6.2-4.2.1-4.8 0 0-1.9 7.9-2.3 8.5 0-.3.5-2.1.5-2.4s0-.4.1-.6c0 0-.1-.2 0-.2s0 .2 0 .2c0-.2.2-.4.2-.5 0 0 0 .1-.1.2h-.2c0-.2 0-.5-.1-.7-.3.6-.6 2.1-.9 2.6 0-.4 0-.9.1-1.3 0 0 0 .1-.1.1-.2-.2-.1-.5 0-.8h.1s-.1-.2 0-.3c.2-.4.1-.9.2-1.4h-.1c0 .3-.7 2.2-1.1 2.6 0-.2 0-.4.2-.5v-.6c-.1.1 0 .4 0 .6 0-4.2.2-12.2.2-12.2-.1.2-1.5 6.6-2 10.1-1.7-2.5-3-3.9-3-4.2.3-1.5 1.8-6.5 1.9-6.6.1-.8.5-1.6.5-2.5-.7.9-3.4 5.9-4.2 7-.4-.3-.6-.9-1-1.2.2.6.6 1 .8 1.5 0 .4-3.1 5.7-3.4 6.8-.2.4-.3.9-.7 1.1-.2-.4-.4-.5-.3-1.1 0-.5.4-3.3.3-4.2-.1.4-.1.7-.2 1.1-.4 2.5-.1 1.3-.9 4.3h-.8c-.5 0-.9.1-1.4.2-.3 0-.5.2-.7.3-.4.2-.7.6-1 1-.3.3-.2.8-.5 1.1-.1-1.3-1.7-8.6-1.7-8.7-.1 1.7.4 8.8 0 9.6-.4-.8 0-3.7-.5-4v2.1c0 .4 0 .9-.2 1.3 0 .2-.3.2-.3.4 0 .3-.1.5-.3.7 0-.7.2-1.4.3-2.1-.3.3-.3 1.5-.7 2 .2-2.6.3-1.9.4-4.9.2-3.3 1.2-6.8.7-8.4-.5 2.1-1.2 4.7-1.8 6.4l-.2-3c-.1.4-.3 3.2-.5 3.9v-3.8s.2-2.3 0-3c-.1 2.7 0 1 0 2.7s-1 4.2-1.5 6.8c0-.8 0-1.6-.1-2.3-.1.3-.1.7-.2 1l-2.1-.3v-.3c1.4 0 1.7-.2 1.9-.3-.2 0-1.5.2-1.8.1-.3-.2.3-2.9 0-3.6-.6 3-.7 3.2-.9 3.4.3-3.5-.3-7.2-.4-7.6 0 0-.9 5.8-.9 6 0 .5-.2 1-.3 1.6-.4.1-.9 0-1.4 0 0-.4-.4-4-.4-4.4s0-.6-.1-.8v.9c0 .3 0 .6-.1.9h-.1c0-.3 0-.6-.2-.9v1.5c0 2-.2 2.2-.4 3-.5 0-1 0-1.5.1v-.7h-.1c0 .3 0 .5-.1.8-.2.1-.3.2-.5.3-.5.3-.9.8-1.4 1.2v-.9c-.3.7.3 1-1.1 2.3-.4-.5-.4-.3-.5-1.5 0-.8.2-3.5.3-3.9.6-2.7.5-2.5.5-4.4s.2-.9 0-1.4c-.3.6-.5 2.2-1.2 3.6 0 .2-.3.3-.3.5 0 .9-.8 2.1-1.1 3.3 0 .4-.3.7-.5 1 0-.9 0-2.6-.4-5.7-.2.4-.4 4.2-.6 4.8l-3.4-3c-.3-.3-.6-.6-.8-1 0-.7-.2-2.9-.2-3.3v6.7c-.3 2.9 0 3.4-.5 3.7 0-.7-.2-1.4-.4-2.1 0-1-.5-1 0-3.8v-1.3c0-.7.2-1.4.2-2.1s.2-1.4.6-5.6c-.2.6-2.2 9-2.5 9.8 0-.4-.2-2.4-.2-2.7 0 .1 0 .3-.2.4v-.6c0 2.1-.7 6.2-.8 6.4 0-.7.3-4.6.2-5.1-.2.4 0 .9-.2 1.3 0 .4-.7 1.9-1 2.9 0 .3-.2.7-.3 1-.2-.1-.4-.2-.5-.4 0 0 0-.2-.2-.2-.2.2-.4.5-.5.8-.3.8-.5.6-.6 2.9v1h-.3v-2c.3-1.1.8-1.8 1-2.9-.4.6-.6 1.4-1.1 2 0-.7 0-2.6-.7-3.6v4.5c0 4.8 0 .9-.3 1.3 0-.6-.2-1.2-.3-1.9v2.1c-.2 0-.3-.1-.5-.2-.3-.2-.4-.5-.5-.8v-.3c0 .3-.2.7-.3 1h-1.5c0-.3 0-.6-.2-.9v.8s-.2 0-.2.1c0 0 .3-4.8.3-5-.2.4-1.1 5-1.3 5.1h-.7c0-.3-.2-2.2-.5-2.7v2.1c-.7-1.5 1-7.2 1.1-8.4-.2.1-.2.4-.4 1.3 0 .3-1.8 3.6-2 3.9-.2-.9 0-4.5-.2-5.3-.2.4-.6 2.7-.9 3.5-.3-.5-1-1.4-1.6-1.5v.4c.2.3.4.6.6 1 0 .3-.2.5-.2.8 0 0-.4 4.9-.3 5.3 0-.9-.9-7.2-.9-7.2 0 .9-.2 1.7-.2 2.6s0 2.8-.6 3.7c-.2.3-.3.7-.6 1 0-.4.2-.9 0-1.3 0-.4 0-.8-.2-1.1v.4c-.3-1.1 0-.9-.3-1.5v4.6c-.2-.2 0-.8-.3-1.3 0 .3 0 .6-.2.9-.5-.8-.9-.8-1.3-1 0-1-.4-1.1-.3-2.4 0-1.1.4-2 .4-3.3-.6.8-.6 1.9-.7 2.8 0-.5-.5-6-.5-6.1-.3.6-.8 6.3-1.6 7.1v-.5c-1.4-2.9-1.2-5.8-1.5-7v1.3c0 .4 0 .9-.2 1.3-.7-2.1-.8-3.5-1.1-3.9 0 .4.7 3.8 1 4.7 0 .5 0 1.5-.2 2 0 0-1.7-5.5-2.1-6.1.3 2.8.9 12.8.9 12.8-.2-.1-.4-.2-.6-.4-.2-.3-.5-.4-.7-.6-.3-.3-.6-.5-.9-.8-.5-1.8.3-4.5.2-5.6-.2.3 0 .3-.6 2.1v-.6c-.2.6 0 2.1-.9 3.9v-1.2c0-.4-.2-3.6-.4-4v5.1c-1.6-2.4-.9-.7-1-3v-4.4s-1.3 5.4-1.5 5.9c0 0-.8-4.2-.8-4.3v1.2c0 1.3-.2 2.6-.2 3.1v-1.1c-.3-1.4-.3-3.7-.5-4.4 0 1.3.2-.5-.4 3.8-.8-1-.6-2.3-1.2-4.8 0-.4-.3-.8-.4-1.2v-3.9c-.2.2-.2.5-.2.8s-.2.6-.2 1c0 0 .2 3.9-.5 7.7-.5-3.2-.6-1.2 0-8.7v-.8c0-.3 0-.7.2-1 0-.3 0-.6.2-.9-.4.3-.3.9-.6 1.3-.9 1.2-3.4 7.4-3.4 7.5-1-1.8-1.3-1.8-1.5-2.9-.2-1.3-.8-6.7-1-7.5 0 1.3.3 2.7 0 3.2-.4-1.3-.3-1.5-.5-2v5.4c0 .2-.5 2-.8 2.5v-1.2c-.3-1.2 0-1.6.2-7.2v-6.9s-1.8 7.7-2.3 8.9c-.2-.8-1.4-10.1-1.4-10.1 0 .8 0 2.8-.7 5.7 0 0-.2 0-.3-.1 0 .4.2.9 0 1.3 0-.2 0-.4-.2-.5 0 .5.2 1.1 0 1.6 0-.3 0-1.9-.2-2.6-.5 2.6-.8 10.2-1.2 10.9 0-.8-.5-2.8-.4-3.3v4.6c.3 1.5 0 2 0 2.8s0 .2-.2.3c-.3.3-.6.8-.9 1.1 0-.1 0-.3-.2-.4-1.3-.9-.2-2.8 0-6.1-.2.2-1.8 4.9-2.2 5.4-.2.2-.5 0-.7 0 0-.3-.2-.6-.3-.9v.9h-.9c-.5-.3-2.2-7.2-2.7-8v3.4s.2 3.8 0 4.1c0 0-1-2.5-1.2-2.8 0 .8.7 2.5.8 3.7 0 .4-.2.7-.2 1.1 0-.3-.2-.6-.3-.8 0 1.1.4 1 0 1.8 0-.3 0-.6-.3-.8v.5c0-.6 0-1.3-.2-1.9v.5s0 .2-.2.3v1.8H56c.2-.3 0-.3.4-2.1h-.2l-.6 1.2c-.2.3-.2.7-.5.9v-.5h-.2c0-.9-.6-1.7-.7-2.5-.4-.8-.6-1.7-.8-2.5v-1h-.2s-.7-2.8-.7-2.9c0 1 .5 4 .5 4.2 0 .5-.6 3.3-.8 3.8 0-.2 0-.4-.2-.5v.8c-.2 0-.4-.2-.5-.3 0 0-.6-7.4-.8-7.7v1.1c0 .6-1 6.1-1.1 6.5-1.1 0-1.4.4-1.7.5h-.7c-.2-.9-.2-4-.5-5.7v-.5c.2-.4.6-.7.8-1.1-.3.2-.5.6-.9.8-.2-.5 0-1.1-.2-1.7-.2.7-.2 2.1-.5 2.4-.8.9-2.1 2-3.1 3-.3-.5-.9-1.8-1.2-2 0 .7.3 1.3.5 1.9 0 .2.2.4.2.6-.2.2-.4.4-.7.6-.8-3.3-.2-6.9-.6-7.6-.2 1.6-1.1 5.6-1.3 6.1v-.6c-.4-1-.7-.3-.9-2.5 0-.1-.3-1.7-.4-2 0 .4.4 5.3 0 5.5l-.4-.4v.6c-1.4.3-1.3.5-1.9.6 0-.4.3-.8.3-1.3 0 .2-.2.4-.4.6 0-4.4.6-9.1.2-10.3-.2 3.9-.5 5.3-.8 6.5h-.2c0 .7.3.3-.7 4.8-.4.1-.9.3-1.3.3 0-.4-.2-.8-.3-1.1 0-.1-.9-1.4-.9-1.5-.8-1.7-1.2-1.7-2-2.1.1-.9.3-1.8.4-2.7-.2.3-.2.6-.2.9-.1.6-.4 1.1-.6 1.7-.3 0-.5 0-.8.2h.6v.3c-.2.4-.3.7-.4 1.1 0 .3-.5 2-.7 2.3-.1-1.4-.4-2.3-.3-2.9l.6-.6c-.2 0-.4.2-.6.2 0-.5-.1-1.1-.2-1.6-.2.7-.1 1.4-.3 2-.2.2-.4.3-.6.4 0-1-.2-2.1-.3-3.1v-3.3c-.1.6-.2 1.3-.3 1.9-.2-.3-.1-.7-.2-1 0 .2-.6 6.8-1.1 7.5-.1.1-.2.2-.4.3 0-.5.2-3.4.4-3.9.1-.4.3-.7.3-1.1-.1.1-.2.3-.3.4v-.8c-.2.3-.2.7-.3 1-.2 1.1.2 0-1.1 3.4 0-.3 0-.5-.1-.8-.2.5 0 1.7-.8 2.7-.1-.9-.4-1.8-.4-2.6-.4 1 0 .4-.1 3.4-.2 0-.5 0-.7.1v-.5h-.1c0-.4-.1-.7-.2-1-.2-1.4 3.7-13.8 3.7-13.9-.3.6-.5 1.2-.7 1.7-.9 1.6-2.1 4.5-2.2 4.8-.2.6-.3 1.2-.6 1.8-.4 1.3-.3 1.8-.7 2.6 0-.3 0-.7-.1-1 0-.4 0-.8-.2-1.1-.2 2.9-.5 3.2-.7 3.8 0 0-1.1-2.1-1.8-2.8 0 .3.2.6.3.9 0 .4.3.7.5 1.1.4.6.6 1.3.9 1.9 0 .7 0 1.6-.4 2.2 0-.3-.1-1-.4-1.2 0 1.1.2 1.4.2 1.8s-.5 1.7-.5 2.1c.1-.7-.1-1.1-.2-1.5h-.1c0-1 .2-2 .1-3-.2 1-.4 2-.7 3v-2.3c0-3.6.2-2.8 0-4.8-.5 1.4-.3 1.5-.9 3.8 0-.7 0-1.4.1-2h-.1v-.8c-.2 0 0-.2 0 0 0-.4-.2 0 .4-2 .1-.4.9-3.1 1-3.4-.1.3-.2.5-.4.8 0 0-1.5 2.7-2 3.4 0-1.8-1.4-8-1.7-8.8 0 0 .3 6.8.4 6.9.2 3.1.9 3.4 0 4.6.2-1-.8-2.7-1.2-5.1 0-.2 0-.5-.2-.7 0 0 .2 4.3.3 7.8 0 .5-.3 1-.5 1.4 0-.2-.1-.4-.2-.6h.2c0-.4-.4-.6-.5-1-1-1.6-.7-1.4-1.9-2.4 0 0 2.4-4.5 2.8-5.9-.2.1-.3.3-.4.4-.8 1.4-1.1 1.6-1.4 2.2-.2.4-.6.7-.8 1.1-.3.5-.5 1.1-1 1.4.3-1.3 0-1 .3-1.5-.3-.6 0-1.4 0-2.5V282s-1.5 4.8-1.9 5.7c-.5-2.6-.7-6.9-.7-7 0 .3-.2.6-.2.9-.5 3.8 0 1.8-.8 5.5-.3-.4-.2-1-.6-1.4 0 1.6.9 1.1 0 3.8 0 .1 0 .2-.2.2 0-.7-.3-1.5 0-2.1v-1.9c0 .3 0 .5-.2.8v-1.6c0 .2-.2.3-.2.5 0 .6-.2 1.2-.3 1.8-.2-.8-.3-1.6-.5-2.3 0 1.3 0 .4-.2 3-.2-.5-.3-1.1-.5-1.6-.2.3 0 .7 0 1 0-.3 0-.7-.2-1v-.6c-.4-.9-.2-1.9-.5-2.3v2c-2 1.3-2.1 1.5-2.1 1.8V335H335v-44.9c-.1.4-.2.9-.3 1.4ZM1.1 289c.2 0 0 .2 0 0Zm0-.1s-.1 0 0-.1c0 0 .1 0 0 .1Zm8.3 6.1h-.8c-.3.1-.4.4-.6.6 0-.1-.2-.2-.3-.3v-.4h-.2V292c0-.4 0-.2.4-1.1.5.5.7 1.1 1.5 2.8.2.4.2.8.3 1.2 0 .1-.1.3-.2.4l-.2-.3h.1Zm12.3-2.6c-.3-.3 0-.9.3-2.5 0 .3-.1 2.2-.3 2.5Zm.7.8s-.1-.1-.1-.2v-.8c0-.1.2-.2.3-.3 0 .4 0 .9-.2 1.3Zm2.5-3.4c.2-.2.4-.5.7-.6 0 .2-.1.3-.3.5-.1.2-.2.5-.3.7v-.6h-.1Zm.7 2.8c0 .4-.1.9-.1 1.3v.7c-.3-.2 0-.7-.2-2-.1-1.3-.2-.7.2-2.5 0-.1 0-.2.1-.3v2.7Zm1.7 4.8c.2 0 0 .2 0 0Zm3.1-4.1c-.1-.2-.2-.3-.4-.4 0 .2.1.4.2.6-.4-.3-.4-.9-.8-1.3 0 .3.2.4.2.7s.1.6.2.9c-.2.2-.5.4-.7.7-1 1.4-1.8 3.8-1.8 3.9v-.8c-.1-.2 0-.4 0-.7h-.1v-.9h-.1v-.4c0-.2.1-.5 0-.7 0 0 .9-5.8 1-6.4.2 0 1.2.2 1.6 2.2.1.6 1 2.4.8 2.8v-.2h-.1Zm1.8 1.7s0 .1-.2.2v-.2c-.2 0-.3-.1-.4-.2v-.6c-.1 0 0-.2 0-.3 0 0 0-.1-.1-.2.3-.2.6-.4 1-.5 0 .6 0 1.2-.2 1.8Zm4.3-1.5s-1.7.3-2.3.2v-1.1c.7-.3 1.4-.4 2.1-.7.6 1.7.4.9.3 1.5Zm4.1 2.8c-.3-.3-.4-.6-.7-.9 0-.4 0-.8-.2-1.3.2-.3.5-.6.7-.9.2.3.2.4 0 3.1h.2Zm.7-.2c-.2-.2-.3-.5-.3-.8v-1c.2.4.4.8.5 1.3 0 .2.2.4 0 .5h-.2Zm1.8-4.2c0 .5 0 .6-.8 3.4 0-.1-.5-1-.6-1.3-.3 0-.2-.5-.9-1.4 0 0 2.5-3.1 2.8-3.3 0 .8-.3 2-.6 2.6Zm57.3.3c0 .3 0 .7-.2 1v-3h.2c0 .4.2.5.3.8 0 .5 0 .9-.2 1.3h-.1Zm4 4.9c-.2-.2 0-.5 0-.8s-.2-.3-.3-.3v-.4h.6c0 .5 0 1.1-.2 1.6Zm1 1.7v-.2c0-.4.3-2.5.2-3.5h.2c0 .8.4 4.1.5 4.4-.3 0-.3.4-.8-.6Zm1.7 0v.5h-.2c.2-.6.2-1.2.4-1.8-.3.1-.3.6-.7 1.2v-.4c0-.1-.2-.3-.2-.4v-.9c.4 0 .7-.1 1.1-.2 0 .2.2.8-.2 2h-.2Zm-.9-2c0-.6-.2-1.1-.2-1.7h.3c1.7 1.1 1.3 1.1 0 1.6h-.1Zm15.7-3.2c0 .3 0 1.5-.4 1.3v.3c-.7-2-1.1-2.5-2.2-2.5s-.7-.3-1-.4v-1.4c-.3.4-.3.8-.3 1.3 0-2.2-.2-3.2-.2-5.6.3.2.5.5.7.8s.4.5.6.8l1.7 2.6c0 .2 1 1.7 1.1 1.8.2.2 0 .6 0 .8v.2Zm4.7.9Zm1.4.7s0 .7-.4.6c-.2-.4-.5-.4-.4-1.1v-1.4c.4-.6 1-1.1 1.6-1.5-.2 1.2-.8 3-.9 3.4h.1Zm2.7-3.6c-.3.2-.6.5-.9.8v-1.1h-.1v1c0 .2 0 .4-.2.5v-1.5c.2-.2.4-.2.6-.3.2-.1.5 0 .8 0v.6h-.2Zm2.7 2.3c0 .4-.1.8 0 1.3h-.1c0-.5-.3-1-.3-1.5.1-.3.3-.6.5-.9v1.2Zm-1.1-3v-.2h1.3c0 .3-.8.2-1.3.2Zm4.5 8.5c0-.9-.6-3.7-.7-4.6.2.3.8 2.1.9 2.2.1.4 0 .9 0 1.3s0 .7-.2 1.1Zm1.2-7.7c0 .3-.3 3.4-.5 3.8 0-.3 0-.6-.2-.8v1.2c-.2-.1-.5-.8-.9-1.2-.1 0-.1-.2-.2-.4 0-.7-.1-1.3-.2-2v-.9h2.1v.3h-.1Zm11.6-.2c.2 0-.1.2 0 0Zm0 .2c.2-.1 0 .2 0 0Zm4.6 1.7s.1.2.1.3c-.1 0-.2-.2-.1-.3Zm0 .5s.1 0 .1.1c0 0-.1 0-.1-.1Zm0 .3s.2 0 .1.1c0 0-.2 0-.1-.1Zm.2.5s-.1 0 0 0c0 0 .1 0 0 0Zm.2.4s-.1 0 0-.1c0 0 .1 0 0 .1Zm1.9-.8v-.5s.2-.1.3-.2h-.1c0-.1 0-.4-.1-.6h.2c0 .1-.1.3-.1.4.1 0 .3-.1.4-.1 0 .2-.5 1-.5 1.1Zm2-1.4h-.8l-.2-.2h-.6c-.2 0-.4-.1-.6-.1 0 .8-.3 1.6-.3 2.3h-.1v-1.1c0-.1 0-.3-.2-.4-.2.7 0 1.4-.2 2.1-.1-.1-.2-.3-.2-.4 0 0-.2 0-.2.1v-.2h-.2c0-.4-.3-.7-.4-1 .2 0 0-.3 0-.4v-.2c-.1-.2-.1-.5 0-.7s1-.4 1.6-.2c-.2-.4-1-.4-1.4-.4 0-.1-.2-.3-.2-.4.3-1.4 1.3-5.2 1.3-5.2.4.4 1 2.1 1.9 3.4.4.7.7 1.4 1 2.1 0 .3 0 .7-.1 1h-.1Zm3-1c.2 0-.1.2 0 0Zm2.6 0c.2 0-.1.2 0 0Zm4.7-4.2v1c0 .2 0 .4-.1.5 0-.5 0-.9-.1-1.4 0 0 .3-.9.3-1 .2.3 0 .6 0 .9Zm.2.3v.6h-.1v-.7h.1Zm.1 1.4s-.1 0 0-.1c0 0 .1 0 0 .1Zm3.9 3.5s0-2.1-.1-2.4c0-.4-.1-.8-.1-1.3.2 0 .4-.2.5-.1.2 0 .4 0 .6.2 0 .4-.7 3.3-.9 3.6Zm2.6 3.7c-.1-.3-.2-.5-.2-.8h.1v.8Zm.2 0v-.9h.2c0 .3 0 .6-.2.9Zm1.1 1h-.6c.3-.3-.1-.5 0-1v-.3s0 .1-.1.2v.8-1.6c.3 0 .6-.3 1-.3 0 .7 0 1.8-.1 2.2h-.2Zm.2-2.7c-1.1.1-1.1.2-1.6.3 0 0 0-.2-.1-.2v.2c-.2-.2-.1-1.2-.2-1.5v-.3h-.2c-.1-.4 0-.8 0-1.2 0-.7-.2-1.4-.1-2.1.4.3 1.9 1.5 2.3 1.7 0 .8.2 2.2 0 3.1Zm.9-1.3c-.1-.3 0-.6-.2-.9 0-.1 0-.2.1-.3.4.1.2 0 0 1.1Zm3.1-4.1c-.2 2.2-.5 2-.7 2.9-.2-.1 0-.3 0-.5 0-.3-.1-.7 0-1s.1-.6.3-.8c0-.2.2-.5.3-.7 0-.3.1-.5.3-.7 0 .3-.1.5-.1.8h-.1Zm7.1 5.4v-1.4c.1.4.1.8.3 1.2 0 .5.3.2-.2 1.2v-1.1h-.1Zm.7 2.6c-.1.4-.2.9-.4 1.3 0-.8.2-.2.3-1.9 0 .2.2.4.1.6Zm3.7-1.2s.1 0 0 0c0 0-.1 0 0 0Zm.4 1.8c0 .1-.1.1 0 0Zm10.6-2.7c0 .3 0 .7-.2.8 0-.3-.9-5.9-.9-5.9.3.4 1.1 3.6 1.2 4.1v1h-.1Zm5.8 1.8c-.2.2-.3.5-.4.7 0-.2-.2-.4-.3-.6 0-.1.1-.2 0-.3h-.1l.2-.2v-.2h.2c.2-.1.2-.3.3-.5 0 .4.1.8 0 1.2h.1Zm.5-.8c-.1-.3-.2-.6-.3-1 .3-.4.7-.8.9-1.2.1.6 0 1.3 0 1.9-.3 0-.5.2-.8.3h.2Zm1.1-.3c-.1-.2-.3-1.8-.2-2.1.3-.3.6-.7.9-1 0 1.5-.2 1.9-.7 3.1Zm1.4-2.3c.1-.5 0-1.1 0-1.6.3-.2.5-.4.8-.5 0 .2-.7 2-.9 2.1Zm3.4-5c.2.2.5 1.4.5 1.9 0-.1-.6-1-.5-1.9Zm8.2 1.3s-.5-3.2-.5-3.8c.3.3.4 2.1.8 3.7h-.3Zm7.8-3.2c.1-.5 0-1 .2-1.4.1 2.3.2 1.9-.3 2.6v-1.2h.1Zm.3 1.9h-.3c0-.3.2-.6.3-.9 0 .3.1.7 0 1Zm4.8 1.4c-.2-.7 0-1.4 0-2.1.3-.2.7-.2 1.1-.3.1.3 0 .6 0 .8 0 .4-.1.8-.2 1.2 0 0 .2 0 .3.1-.6 0-.4-.2-1 .3h-.2Zm2-.2h-.4c0-.7 0-1.5-.2-2.2.3 0 .7-.2 1-.3 0 .4-.4 2.1-.4 2.5Zm13.4 2.8c-.1 0-.2-.1-.2-.2-.3-.9-.8-1.7-1-2.7h1.2v2.9Zm9.8 4.4c0 1.6 0 1.2-.2 1.5-.2-.2-.2-.6-.4-.8 0 .3.2.6.2 1-.3.1-.4.5-.6.8-.5 0-1-.2-1.5 0 .3.1.6.2.9.4-.4.4-.5.9-.7 1.3-.1-.2 0-.4 0-.7h-.1v.4l-1-9.3c.2 0 3 .5 3.6.7v4.6h-.2Zm10.3-2.4v.9c-.2-.2 0-.5-.1-.7 0-.2 0-.4.1-.5v.4Zm11.5 1.7c-.1.6-.3 2.8-.3 2.8 0 .2-.2.3-.3.5-.2-.7-.2-1.4-.4-2.1 0 0 0-.1-.1-.2 0 .5.1 2.7.1 2.9 0 .3 0 .6-.3.7-.2-.6-1-1.9-.8-2.5 0-.1.6-5.5.7-5.6.6 0 1.2.5 1.4 1.1.1.2 0 .5.1.7.1.4-.3 1.1-.2 1.7Zm5.4-3.2v-1.4s.2 0 .2.2l.6 2.1c0 .3-.3.5-.6.7 0-.5 0-1-.2-1.5Zm.5 3.6c-.2-2.1-.4-1.7.4-2.6.6 1.1.3 1.8-.4 2.6Zm4.7 2.1s-.3-1.4-.3-1.6c.2.3.3.6.4.9 0 .2 0 .5-.2.7h.1Zm1.3-2.5c0 .6 0 1.3-.3 1.9-.2-.2-.4-.5-.4-.9s-.2-.3-.2-.5v-.3c0 .1 0 .3-.2.4-.3-.6-.7-1.2-1-1.7.1 1.4.4-.4.3 3.4-.7 0-.7.1-.8 0 .2-1.6.3-1.8.3-2.4 0 .1-.1.3-.2.4.1-.5.4-2.1 1-2.7.5.1 1.3 1.1 1.7 1.4v.8l-.2.2Zm.7-3.1v-.2c.2.4.2.9.3 1.2.1.3.5 1.3.5 1.7-.1 0 0 0-.9-1v-1.7h.1Zm.9 5c-.1.2-.3.4-.4.7-.4-.2-.5 0-.5-1.2v-1.4c.3.2.5.4.7.7.3.4.2 0 .2 1.3Zm6.9 1.1c-.1.2-.2.5-.4.7-.4.1-.2-1.3-.4-5.3.3.2.5 2 1.1 3.9 0 .3-.1.5-.3.7Zm20.1-3.2c-.3-1-.7-2-1-3 .3-.6.6-1.2.9-1.7.6 1 2.1 4.3 2.1 5.5-.9-.5-.8-.8-2-.7Zm2.1 1.9c-.4.6-.6 1.2-1.1 1.8 0-.3.1-.7 0-1-.2-.3-.2-.6-.3-.9 0-.2-.1-.3 0-.5.8-.9 1.4-.3 1.5-.1v.7h-.1Zm6.1-2.4h-.1c0-.7 0-1.5-.4-2.1v.6h-.2v-.7c0 .3-.1.7 0 1.1 0 .4.2 1.7.1 1.9v1.1c0 1.8-.2 1.5-.3 2.3h-.2s0 .1.2.2h-.2c0-.5.1-1 0-1.5-.1.4-.1.9-.2 1.3-1.3-.4-.8-1.7-1-2.9 0 0-.1-1.6 0-1.9s2.4-3.6 2.7-3.4c.2.3.3.6.5.9 0 .1.2.3.2.5-.1.5-.7 2-.9 2.8l-.2-.2Zm.9 3c-.2-.5-.3-.9-.5-1.4 0 0 .5-3.2.6-3.4.2 2.8 0 4.1 0 4.8h-.1Z"/></g><g fill="#006838"><path d="M31.9 17.8c0 .3-.1.7-.4.9l-4 4-4.3-2.5v-2.4c0-.7.6-1.3 1.3-1.3s1.3.6 1.3 1.3v3.1l3.9-3.9c.5-.5 1.3-.5 1.8 0s.4.6.4.9m-1.3 11.4h-.5c-.2 0-.3-.2-.4-.3l-3.9-3.9v3.1c0 .7-.6 1.3-1.3 1.3s-1.3-.6-1.3-1.3v-2.4l4.3-2.5 4 4c.8.8.2 2.2-.9 2.2m-3.3-6.6s0-.1-.1-.2l-1.1-.6-2.9-1.7-2.4-1.4c-.1 0-.3 0-.4.1v7.5c0 .2.1.3.3.3h.1l2.4-1.4 3.9-2.3v-.3h.2Zm-1 .1s0 .1-.1.1l-3.1 1.8-1.9 1.1h-.3v-5.8c0-.1 0-.2.2-.2h.1l1.9 1.1 3.1 1.8s.1.2.1.3V23Z"/><path d="m25.5 23-2.3 1.3-1.4.8h-.2v-4.3s0-.2.2-.2l1.4.8 2.3 1.3m27.2.1-3.5-1.9-2.2-1.1c-.2 0-.4 0-.4.2v5.8c0 .2.3.3.5.2l2.1-1.1 3.5-1.8v-.2Zm-.9-.2-2.7 1.5-1.7.9s-.3 0-.3-.1v-4.5c0-.1 0-.2.2-.2l1.7.8 2.7 1.4v.2Z"/><path d="m51.1 22.9-2 1.1-1.2.7h-.2v-3.4l1.3.5 2.1 1m-16.6-2.9h3.1c1.5 0 2.6.8 2.6 2S39.1 24 37.7 24h-1.6v2h-1.4v-6.1h-.2Zm2.9 2.9c.7 0 1.2-.4 1.2-.9s-.5-.9-1.2-.8H36v1.7h1.4Zm8.4 2V26H41v-6h1.4v4.9h3.4Zm8.5-1.1-2.7-3.9h1.7l1.7 2.6 1.7-2.7h1.6l-2.6 3.9v2.2h-1.4v-2.2Zm5-3.5h.8v3.4l3.4-3.4h1L61.7 23l3.1 3.3h-1l-2.6-2.8-1.1 1v1.8h-.7v-6.1h-.1Zm5.9 2.9c0-1.7 1.6-3.2 3.4-3.2s3.5 1.4 3.5 3.1-1.5 3.2-3.4 3.2-3.5-1.4-3.5-3.1Zm6.2 0c0-1.4-1.3-2.5-2.7-2.5S66 21.8 66 23.1s1.3 2.5 2.7 2.5 2.7-1.2 2.7-2.5Zm1.7 2.2.5-.5c.6.5 1.3.9 2.2.8 1 0 1.6-.5 1.6-1.1s-.7-.9-1.8-1.1c-1.4-.3-2.2-.6-2.2-1.7s.9-1.7 2.3-1.8c.9 0 1.7.3 2.4.8l-.5.5c-.6-.5-1.2-.8-2-.8s-1.4.5-1.4 1.1.7.8 1.8 1.1c1.3.3 2.2.7 2.2 1.7s-.8 1.8-2.4 1.8-2-.3-2.7-.9Zm6.5-5.1h.8l2.6 4.2 2.5-4.3h.8v6.1h-.7v-4.6l-2.5 4.3-2.6-4.2v4.6h-.7v-6.1h-.2Zm8.1 2.9c0-1.7 1.6-3.2 3.4-3.2s3.5 1.4 3.5 3.1-1.5 3.2-3.4 3.2-3.5-1.4-3.5-3.1Zm6.2 0c0-1.4-1.3-2.5-2.7-2.5s-2.7 1.2-2.7 2.5 1.3 2.5 2.7 2.5 2.7-1.2 2.7-2.5Zm1.7 2.2.5-.5c.6.5 1.3.9 2.2.8 1 0 1.6-.5 1.6-1.1s-.7-.9-1.8-1.1c-1.4-.3-2.2-.6-2.2-1.7s.9-1.7 2.3-1.8c.9 0 1.7.3 2.4.8l-.5.5c-.6-.5-1.2-.8-2-.8s-1.4.5-1.4 1.1.7.8 1.8 1.1c1.3.3 2.2.7 2.2 1.7s-.8 1.8-2.4 1.8-2-.3-2.7-.9Z"/></g><path fill="url(#b)" d="M88.5 300.1h1.1v29.7h-1.1z"/><g fill="#006838"><circle cx="33.3" cy="77.7" r="9.8"/><circle cx="49.4" cy="70.5" r="4.1"/><circle cx="34.5" cy="95.5" r="4.1"/></g><g fill="#006838"><circle cx="301.7" cy="77.7" r="9.8"/><circle cx="285.6" cy="70.5" r="4.1"/><circle cx="300.5" cy="95.5" r="4.1"/></g><path fill="#006838" d="M103.9 144.1H231v19.8H103.9z"/><path fill="none" stroke="#006838" stroke-miterlimit="10" stroke-width=".9" d="M205 255.6h109.4v17H205z"/><path d="M312.7 182.5c-2.2-2.1-5.7-2.1-7.9 0s-2.2 5.6 0 7.7l3.9 3.9 3.9-3.9c2.2-2.1 2.2-5.6 0-7.7h.1Zm-3.9 5.7c-.5 0-.9-.2-1.2-.5-.7-.7-.7-1.8 0-2.5s.8-.5 1.2-.5.9.2 1.2.5c.7.7.7 1.8 0 2.5s-.8.5-1.2.5Z" fill="#006838"/><g fill="#006838"><circle cx="25.9" cy="140.3" r="12"/><circle cx="51.1" cy="140.3" r="21.2"/></g></svg>