<svg xmlns="http://www.w3.org/2000/svg" width="335" height="335" data-name="Layer 1">
  <path fill="#facc29" d="M0 0h335v335H0z"/>
  <path fill="#ea3f24" d="M239.3 248c-13.3 17.2-18.5 44.9-19.1 47.6-.2 1-.4 2-.3 3.1.2 1.3.9 2.4 1.6 3.4a144 144 0 0 1 12.1 24.2l4.3-.4c-1.2-4 .3-8.3 1.4-12.3 1.2-4 2.1-8.6 0-12.2-.7-1.3-1.8-2.4-2.4-3.8-.8-1.9-.6-4.1.2-6 .8-1.9 2.1-3.5 3.4-5 6.1-6.7 13.7-11.8 19.3-18.9"/>
  <path fill="#464c32" d="M237.9 250.8c3.7 3.3 7.4 6.4 11.5 9.3l5.8 4c1.5 1.1 3.4 3.4 5.5 3.4 1.9 0 3.9-1.9 5.4-2.9 2.3-1.5 4.7-2.9 6.9-4.5 3.5-2.6 6.3-6.6 10.7-7.8h.3v-.3c-.6-2.5-1.6-5-2.9-7.2-1-1.7-2.2-5.7-3.6-7-.4-.3-1-1-1.3-1.8-.2-.5-.3-1.1-.2-1.8l.2-.4.4-.9.3-.7.9-2.2c.5-1.6.8-3.4.5-5.5 0-.3 0-.7-.2-1v-.4c-.3-.6-.6-.2-.9.5l-.4 1.4-.3 1.3-.1.5v.2l-1.5-.6-.5-.2-12.3-4.8h-.3l-14.6-5.8c-.1 2.5 0 5 .3 7.5v.4l.3 2.2.6 2.7 1.4 4.5c.2.4.3.9.3 1.4 0 1.2-1.4 2-2.4 2.6-4.9 3-8 8-9.5 13.3v.4Z"/>
  <path fill="#464c32" d="M251.2 202.9c-1.7.4-8.6 4.5-13.3 11.3-3.4 4.9-5.4 11-4.2 16.9 0 .4.2.8.6 1.1.3.2.8.1 1.2 0a35.4 35.4 0 0 0 18.2-14.2m17.9-9.6a98 98 0 0 0 5.5 19.2l1.3 3.1a19 19 0 0 0 2.1 4 8 8 0 0 0 2.2 2.3c2.2 1.5 5.6 1.8 7.4-.2 1.4-1.6 1.3-3.8 1-5.9-1.3-9-4.1-18.1-10.5-25l-9 2.4Z"/>
  <path fill="#a94931" d="M249.4 223.3v.6l.6 1.9.9 2.3 24.7-.2.6-1.1.3-.6 1.2-2.5.1-.3.5-1.2.4-1c.4-1.3.8-2.7 1-4.1.3-2.2-.2-4.1-.9-5.5-.9-1.9-2.2-3-2.2-3l-4.5-1.3-14.4-4.2s-1.8 1.1-4.2 3.8a32.3 32.3 0 0 0-3.4 4.6l-.2.3c-2.1 3.4-1.6 8-.7 11.5Z"/>
  <path fill="#a94931" d="m248.6 205.5 1.6 5.7v.4l1.3 4.3.8 2.7-.8 3 .2 2.5v1.1c0 .6 0 1.1-.2 1.6 1.4.5 3.7 1.1 6 .6 3.6-.8 5.3-.3 11.2.3 3.3.3 5.9-.2 7.7-.7v-.7c0-.7.2-1.5.4-2.2l.1-.7.7-4.3v-.5l.7-2.7c-.2-.1-.4-.4-.3-.7l.6-2 .5-1.4.9-2.5c0-.5.2-.8.5-1.2l.4-1.7v-.2a25 25 0 0 0-5.5-3.3l-2-1.1-1.2-.7a8 8 0 0 1-3.2-3.6l-.4-1.1-.1-.9v-3l-.8.5-.7.7c-.6.5-1.4 1.1-2.3 1.4-.3 0-.5.2-.8.3l-1.3.2h-1l-.6-1.2v-1.3 2.7c0 .3 0 .7-.2 1v.2l-.6 1.4a8.5 8.5 0 0 1-3.5 3.2c-.2 0-.3.2-.5.3l-1.9.9h-.5c-.8.3-1.5.7-2.1 1.1-1.7 1-2.6 1.9-2.6 1.9Z"/>
  <path fill="#3d422c" d="m247.2 223.7.3 2.2.6 2.7 16.3 1.1c.4 0 .9-.2 1.2 0 .2.1.3.4.4.6l1.6 3.6.8 1.7c3.5-.3 5.8-1 7.3-1.9l.4-.9.3-.7.9-2.2-1.2-1.9-.3-1.1v-.2c0-.2.2-.3.3-.5l.9-1.5.5-1 .2-.3.5-1.2-.6-.4-1.1-.7-1.3-.6c-1-.3-2.2-.3-3.3-.3-3.4.1-6.7.6-10.1 1.2h-.4c-4.6.8-9.2 1.7-13.8 2.1h-.7Z"/>
  <path fill="#464c32" d="M249.2 223.3v.3l2.1.4a73.5 73.5 0 0 0 26.5-.2s.5-1 .9-2.5c.5-2.1.9-5.2-.5-8.2a59.9 59.9 0 0 1-3.2-10.4l-2-1.1s.4 2.9-.9 5.8c-1.2 2.7-4 5.3-10 5.4-2.1 0-3.7-.3-5-.9a6.5 6.5 0 0 1-3.8-4.9c-.3-1.7 0-3.4.2-4.6v-.2l-1.4.4-1.4.4.1.5a11 11 0 0 1-1 7.6v.7c-2.1 3.4-1.6 8-.7 11.5Z"/>
  <path fill="#464c32" d="M247.8 224c.4.2 4.3.6 4.3.6l.3-3.7-3.5-.9h-2.6v2.7l1.4 1.3Z"/>
  <path fill="#464c32" d="M283.9 210.2a12 12 0 0 0-5-5.6c-2.6-1.6-4.9-2.5-4.9-2.5s-.6 7.8-1.2 9.3c-.6 1.5-7 5-7 5l-6.1-.9s-6.4-3.8-6.8-5.3c-.4-1.5-.5-7.6-.5-7.6s-4.6 2-6.2 3.5c-1.6 1.5-1.6 3.1-1.6 3.1L246 221l14.8-1.3 10.6 1.3 10.5 2.1 1.4-2.8.6-10Z"/>
  <path fill="#3d422c" d="m246.5 223.3.9 2.6 3.6.5 3.7.4c2.8.2 5.5.2 8.3.2 4.5 0 9.1-.1 13.6-.6l1.5-2.8c-2.6.5-5.2.4-7.8 0-2.9-.6-5.6-1.8-8.6-2-2.9-.2-5.8.6-8.7 1.2-2.1.5-4.3.8-6.4.7Z"/>
  <path fill="#3d422c" d="m275.7 211.8 2-4.5-.3 3.9.1.8.7.4c.6.2 1.1 1.2.5 1.6 1 .9 1.2 2.3 1.4 3.5l.6 3.9c.4 2.5.8 5 .8 7.5l-.1.4c-.2.2-.5 0-.7-.1l-3-2.4-.7-1.8c0-.7.3-1.3.6-2 .9-2.2 1.2-4.7.2-6.8l-.9-1.5c-.6-.9-1-1.9-1.4-3ZM251 223.5c-1.8.2-3.4-1.6-3.5-3.4-.1-1.8.8-3.6 1.8-5.1l.6-1.2c0-.4 0-.8-.2-1.2l-1.6-5.7c0 1.9 1.1 3.8.6 5.7-.3 1.1-1.1 2-1.7 2.9a9.5 9.5 0 0 0-1.1 8.2c.3 1.1 1 2.2 2.1 2.4.8.1 1.5-.3 2.2-.7"/>
  <path fill="#a94931" d="M273 201.8a11.5 11.5 0 0 1-3.8-6c-.7-2.3-1.2-4.7-2-6.9a29 29 0 0 0-7.5 3.1l2.1 8.8c.5 2.2 1.2 4.6 3.2 5.5l8-4.5Zm-31.6 9.7.3-1.2c.2-.4.5-.7.9-.8h1c1.3.3 2.6.4 3.9.2h.2l.1.2c.2.6-.2 1.2-.7 1.5-.5.3-1.2.3-1.8.3H243"/>
  <path fill="#e8e4d6" d="M242.1 207.1c3.5-.4 7.1-.3 10.6.3-1 4-1.9 8-2.6 12l-5.4-.1c-.2 0-.5 0-.7-.2l-.4-.5a190.8 190.8 0 0 1-1.8-11.5"/>
  <path fill="#351a1a" d="m247.1 216.7 2.7-19.3h.6l-2.7 19.4z"/>
  <path fill="#c1925e" d="M249.3 209.3c-1.4-.4-2.7.1-4.1 0-.7 0-1.3-.3-2-.5l1.2 8.5 5 .2 1.4-7.8-1.5-.3Z" opacity=".5"/>
  <path fill="#351a1a" d="M266.5 192.3a3 3 0 0 0 2.4 1.4 3 3 0 0 0 2.4-1.4c.8 0 1.6.3 2.5.3.8 0 1.7-.2 2.2-.8s.4-1.8-.3-2.1c1.7.4 3.7-.3 4.7-1.8.4-.6.6-1.3.5-1.9-.1-.7-.7-1.2-1.4-1.2 1.2-.7 2.4-1.5 2.8-2.8.5-1.3-.4-3-1.7-2.9a9 9 0 0 0 1.9-2c.5-.8.8-1.8.5-2.7-.3-.9-1.3-1.6-2.2-1.3.9-.7 1.2-2.1.8-3.1a2.6 2.6 0 0 0-2.8-1.5c.3-1.6-.3-3.3-1.6-4.3-.9-.7-2.4-1-3.2-.1a5.5 5.5 0 0 0-3-4.2c-1.7-.7-3.9 0-4.5 1.7-.9-1-2-1.8-3.4-2-1.3-.2-2.8.5-3.2 1.8-1.3-1.5-3.5-2.4-5.4-1.9-2 .4-3.6 2.2-3.6 4.2a3.5 3.5 0 0 0-3.8.8c-1 1-1.2 2.6-.6 3.9-1.2.6-2.4 1.3-3.1 2.4s-.8 2.7 0 3.7c-1 .5-2 1.2-2.3 2.3-.3 1.1.5 2.5 1.6 2.4-1 .9-1.5 2.3-1.1 3.5.4 1.2 1.8 2.1 3 1.7-.4 1.1-.2 2.4.5 3.4s1.9 1.5 3.1 1.4c.4 1.9 2.3 3.3 4.1 3h.6c.4.1.5.6.7.9.6 1 2.2 1.2 3 .3 1.1 1.2 3.4.7 4-.7h6Z"/>
  <path fill="#7d2d1e" d="M255.6 182.3c-.6-.2-1.3-.4-1.7.1l-.2.5c-.4 1.7-.1 3.6 1.2 4.7l.5.3c.4.2.8.2 1.2 0l-1.1-5.6Z"/>
  <path fill="none" d="m268.2 193.9.3-.2v3.1l-.3.1v-3Z"/>
  <path fill="#a94931" d="m248.3 185.7.2 2.7.3 1.8.4 1.3c.7 1.8 1.9 3.4 3.1 4.9.2.3 1.6 2.5 6.6.6 1.7-.4 3.3-1.4 3.9-3l.3.2c.4-1.2 1.7-1.7 3.2-2.1a3 3 0 0 1-1.3-1.2 5 5 0 0 1 .1-3.6c.6-1.3 1.3-2.4 1.5-3.8l-1-1.7c-.9-1.4-1.8-2.8-3-4.1a16 16 0 0 0-6.4-4.1c-1.2-.4-2.4-.5-3.6-.8a8.8 8.8 0 0 0-5 5.9c-.5 1.9-.4 4.2.6 6.9Z"/>
  <path fill="#7d2d1e" d="M264.4 188.2c1.8 0 2.7-2 2.7-3.3 0-.7-.3-1.4-1.2-1.8s-1.7 0-1.9.7c-.1.6.3 1.8.3 2.4s-.3 1.9 0 1.9Z"/>
  <path fill="#8b2a24" d="M253.6 191.3c-.4-.2-1.1.5-1.6.4-.6-.2-1.5-.8-1.8-1.4v-.3l.8-.2c.2-.2.2-.9.3-1.2.4-2 .4-3.3-1.3-4.7-.2-.2 0-.5.3-.3 1 .9 1.8 1.8 1.7 3.2 0 1.1-.3 2.1-.6 3.1l-.1.1-.6.1c-.2.6 1.4.9 1.6.9.6 0 .7-.4 1.3-.2.2 0 .1.5-.1.4Z"/>
  <path fill="#351a1a" d="m249.8 183.7-.5-.5-.8-.7c-.3-.2-.7-.3-1-.2l.2 1.1c0 .2 0 .3.2.4h2v-.2Zm3.1.1c.2-.2 0-.5 0-.8 0-.3.3-.6.5-.7l.9-.3c1.5-.3 3.1-.3 4.4.4l-4.5 1c-.5.1-1 .2-1.4.5h-.1Z"/>
  <path fill="#f7f3e4" d="M259.1 185.3c-1-.4-1.7-1-3.3-.7-1.6.3-1.8 1.8-1.7 1.9 0 0 1.8.5 2.9.2 1-.3 1.5-.7 2.1-1.2s-.1 0 0 0Zm-7.6.7c-.5-.4-1.1-.7-1.7-.8h-.6c-.3.2-.4.6-.5 1v.4l.1.1c.5.3 1 .5 1.5.4.5-.1 1-.5 1.3-1h-.1Z"/>
  <path fill="#773823" d="M250.1 187v-.2c0-.6-.3-1.2-.7-1.2-.1 0-.3 0-.4.2v.9c0 .2.2.3.4.3h.7Zm5.7-.2h.4l.1-.4c0-.5-.5-1-1-1l-.4.1c-.2.1-.2.4-.2.6 0 .2 0 .5.2.6.2.3.7.2 1 .2Z"/>
  <path fill="#8b2a24" d="M259.1 185.4c-1.1-.5-2-1-3.2-.7a2 2 0 0 0-1.4.9s-.4.6-.3.7c.1.3 1.5.3 1.9.3.6 0 1.3-.1 1.8-.5l.7-.5.6-.3c0 .1-.2 0-.2 0l.1-.1s.1.1 0 .2c-1 .9-2 1.5-3.4 1.4-.4 0-1.7 0-1.8-.5-.2-.7.8-1.5 1.3-1.7 1.4-.6 2.6 0 3.9.5l-.1.2Zm-7.7.7c-.6-.5-2.5-1.5-2.6 0 0 .8.9 1 1.5.9.5-.1.9-.5 1.2-1l.2.1c-.3.7-.9 1.1-1.7 1.1-.5 0-1.4-.2-1.4-.9 0-.5.2-1.2.8-1.3.7-.2 1.7.4 2.2.9.1 0 0 .2-.1.1Z"/>
  <path fill="#c95a51" d="m259.3 191.3 1.1-.9.2-.3v-.4l-.1-.9c-.2-.5-.7-.9-1.2-1-.5-.1-1 0-1.6 0-.4 0-.9.2-1.2.5-.4.3-.6.7-.7 1.2 0 .5.2.9.6 1.2.8.8 2.1 1 3.1.5l-.3.2Zm-10.8-2.9.3 1.8.4 1.3a4 4 0 0 0 .8-1.9v-.5c0-.2-.3-.3-.5-.4l-.9-.3Z" opacity=".4"/>
  <path fill="#464c32" d="m247.8 178.8 1.9-.2c9.2-.8 12.9 4.9 12.9 4.9l3-1.2.1-.5c-.9-1.4-1.8-2.8-3-4.1a16 16 0 0 0-6.4-4.1c-1.2-.4-2.4-.5-3.6-.8a8.8 8.8 0 0 0-5 5.9Z"/>
  <path fill="#351a1a" d="M265.3 191.3c.6.6 1.3 2.4 3.2 2.4 1.9 0 2.1-3.5 2.1-3.5l-1.7-1.8H267l-1.9 2.9Zm-1.2-8.5c.2 1 .3 1.9.3 2.9v.7c0 .2-.3.3-.5.3s-.3-.3-.3-.4c-.7-1.9-1.2-3.9-1.4-5.8 0-.8-.2-1.5 0-2.3.2-.7.6-1.5 1.3-1.8l.7 6.5Z"/>
  <path fill="#351a1a" d="M261.9 179.7a4.4 4.4 0 0 1-3.1-4.2l-1.3.7c-1 .5-2.1 1.1-3.1.5-.6-.4-.9-1.1-1.2-1.8a9.2 9.2 0 0 1-5.2 1.9c-1 0-2.2-.3-2.5-1.3-.2-.7.2-1.4.6-1.9 1-1.3 2.4-2.3 4-2.8a15 15 0 0 1 3.7-.4h2.7a16 16 0 0 1 11.2 6.5c.9 1.6 1 3.6.3 5.3-.3.7-.8 1.4-1.5 1.8-.7.4-1.7.3-2.2-.4l-2.3-4.1Z"/>
  <path fill="#9e3230" d="M255.5 193.3s-.7 1.6-2.4 1.6-1.4-1.3-1.4-1.3l3.8-.3Z"/>
  <path fill="#8b2a24" d="M255.5 193.2s-1.5-.7-2-.7-.9.5-.9.5-.4-.4-.8-.4-.4.8 0 .9h2.3l1.5-.4Z"/>
  <path fill="#72201e" d="M256.1 193c-.5.5-1.4.6-2.1.7h-2.5c-.1 0 0-.2 0-.2a8 8 0 0 0 2.2 0c.6 0 1.7-.1 2.1-.6 0 0 .2 0 .1.1Z"/>
  <path fill="#8b2a24" d="M256.5 193.2c-.4-.1-.7-.3-1-.7 0 0 0-.2.1-.1.3.3.5.5.9.6.1 0 0 .2 0 .2Zm2.5-8.1c-.8-.5-1.7-.9-2.7-.9-1.2 0-1.8.4-2.3 1.4l-.2-.1c.4-.8.8-1.4 1.8-1.5a6 6 0 0 1 3.5.9l-.1.2Zm-7.8.5-1.2-.7-.5-.2c-.4 0-.6.2-.7.5 0 .1-.2 0-.2 0 .1-.4.2-.8.7-.7.7 0 1.4.5 1.9.9.1 0 0 .3-.1.2Z"/>
  <path fill="#a94931" d="M243.2 215.5a40.6 40.6 0 0 1-5.4 15.9c-.5.9-1.1 1.8-2.1 2.1-1 .4-2.2-.1-2.9-.9a5.3 5.3 0 0 1-1.2-3c-.4-3.2.8-6.4 2.6-9.1 1.8-2.6 4.2-4.8 6.6-6.9"/>
  <path fill="#7d2d1e" d="M255.7 201.5c1.3.4 2.7.3 3.9-.2.7-.3 1.4-.7 2-1.3a9 9 0 0 0 2.7-5.2c.2-1.2.2-2.5 0-3.8a8.5 8.5 0 0 1-1.4 3.4 3 3 0 0 1-.8.8l-.7.6-.8.5c-.2 0-.3.2-.5.3l-.6 1.4a8.5 8.5 0 0 1-3.5 3.2c-.2 0-.3.2-.5.3Z"/>
  <path fill="#682d1d" d="m266.7 271.3-2.6 55.2h-1.5l-2.7-56.4 6.8 1.2z"/>
  <path fill="#773823" d="M274.1 269.3c0 .6 10.3 57.2 10.3 57.2h-2.2s-14-56.4-13.6-56.4l5.5-.8Zm-21.6 0c0 .6-10.3 57.2-10.3 57.2h2.2s14-56.4 13.6-56.4l-5.5-.8Z"/>
  <path fill="#993825" d="M277.8 271.3h-32.6s4.8-5.3 18.6-5.3 14 5.3 14 5.3Z"/>
  <path fill="#773823" d="M279.3 305.3h-34v-1.7h34z"/>
  <path fill="#3d422c" d="m266.4 246.6 14.5-1.8c-1-1.7-2.2-3.2-3.6-4.5-.6-.6-1.3-1.1-1.5-1.9v-1.7c0-.2 0-.5.2-.7-.2-.5-.3-1.1-.2-1.8l.2-.4.4-.9.3-.7-1.7.3-7.3 1.2v.2c.3.9 1.5 4.8 1.7 6.9.3 2.5-3.2 5.6-3.2 5.6Z"/>
  <path fill="#ff542d" d="M254.2 267.2a75.8 75.8 0 0 1-16.8-15.7l-.3-.4.3-1.3c.5-1.9 1.2-3.8 2.1-5.6.2-.4.5-.9 1-1a48.7 48.7 0 0 0 39.8-.7 24.4 24.4 0 0 1 3.4 23.5l-29 1.6a2 2 0 0 1-.6-.4Z"/>
  <path fill="#ff542d" d="M270.6 245.8a81.7 81.7 0 0 0-32.1 24.6 12.6 12.6 0 0 0-2.9 5.3c-.4 2 .2 4.3 2 5.4 1.5.9 3.4.6 5.2.3 8.3-1.5 16.4-3.5 24.5-5.8a52 52 0 0 0 12.7-5.1c1.6-1 3.1-2.1 4.1-3.7 1.3-1.9 1.7-4.4 1.5-6.7a15.3 15.3 0 0 0-16.5-14.2"/>
  <path fill="#ff542d" d="M237 279c1.4 2.3 3.7 4 5.9 5.5 9.4 6.7 19.4 12.3 30 16.9 1.2-.2 1.6-1.9 1-3-.5-1.1-1.6-1.8-2.4-2.7-1.5-1.8-1.9-4.2-2.7-6.4a20.4 20.4 0 0 0-11.7-12.2c-5.1-2-10.8-1.8-16.1-3.3"/>
  <path fill="#ea3f24" d="M278.9 250.9c-15.4-4.9-28.4 7.8-39.4 16.5-.4.3-1-.3-.6-.6 11.2-8.9 24.4-21.7 40.2-16.7.5.2.3 1-.2.8Z"/>
  <path fill="#351a1a" d="M274.4 298.9c1.1 2.8 1.6 5.9 1.5 8.9 0 .9-.1 2-.9 2.6a1 1 0 0 1-.7.3c-.7 0-1-.9-1.1-1.7l-.7-6.1c0-.7-.2-1.5 0-2.2.2-.7.6-1.4 1.3-1.6m-36.5 24.8c.8.6 1.2 1.6 1.2 2.5l-13.4.3c3.5-1.5 7.3-2.5 11.1-2.9"/>
  <path fill="#a94931" d="M240 217.5c-.3.5.5.9.7.4l.5-.9c1.9.4 4.4.4 5.9-1 1-.2 2-.7 2.6-1.5.6 0 1.3-.1 1.4-.8.2-.8-.5-1-1.1-1 .9 0 1.6-.4 1.4-1.5l-.3-.3c-2.6-.5-5.7-.9-8.3-.3-2 .5-2.5 2.6-3.1 4.4 0 .3.2.5.4.5v1.5l-.3.6Zm1.9-1.2h-.2v-.1l.2.2Zm29 27.5c-.8-.1-1.5-.3-2.2-.7-.7-.4-1.2-1.1-1.1-1.9l6.4-3.2c4.1-2.1 8.4-4.2 13-4.9 1.4-.2 3.2 0 3.9 1.2.4.9.2 1.9-.2 2.8-.8 1.9-2 3.5-3.6 4.8-1.8 1.4-7.6 3.5-15.9 1.8"/>
  <g fill="#a94931">
    <path d="M268.7 241.5c-2.5-1-5.7 0-7.3 2.2a100 100 0 0 0 11.2-.7"/>
    <path d="M268.6 241.9c-2.6-.8-5.2 0-6.9 2.1l-.3-.7h5.5c.6 0 5.3-.4 5.2-.2 0-.5.9-.5.8 0 0 1.1-2.2.8-2.9.9-2.9.3-5.8.3-8.7.3-.4 0-.5-.4-.3-.7 1.9-2.3 4.8-3.2 7.7-2.3.5.2.3 1-.2.8Z"/>
  </g>
  <path fill="#3d422c" d="M273 228.7c0 1.5.8 3.1 2 3.9l1 .5h.4l.3-.8.9-2.2c.5-1.6.8-3.4.5-5.5l-.6.2h-.2c-.3 0-.5.2-.8.3l-.5.2c-.7.3-1.4.6-1.9 1l-.3.2-.4.5a3 3 0 0 0-.4 1.6Z"/>
  <path fill="#3d422c" d="m277.1 227.6 1.3 3.1a19 19 0 0 0 2.1 4 25 25 0 0 0 5.4-2c0-.3-.4-.5-.8-.5h-2.2l3.8-1.5-4.8.3-1.1-7.3-3.7 3.2v.7Z"/>
  <path fill="#351a1a" d="M149.7 238.7a60 60 0 0 0-4.1 25.5c0 1.2.2 2.5 1 3.4 1.2 1.3 3.3 1.2 5.1 1 8.5-.9 17.1-1.1 25.7-.6l1.5-.1c1.2-.5 1.3-2.1 1.3-3.4a106 106 0 0 0-5.5-29.6"/>
  <path fill="#682d1d" d="m158.2 271.6 2.7 55.2h1.5l2.6-56.4-6.8 1.2z"/>
  <path fill="#773823" d="M150.8 269.6c0 .6-10.3 57.2-10.3 57.2h2.2s14-56.4 13.6-56.4l-5.5-.8Zm21.6 0c0 .6 10.3 57.2 10.3 57.2h-2.2s-14-56.4-13.6-56.4l5.5-.8Z"/>
  <path fill="#993825" d="M147.1 271.6h32.6s-4.8-5.3-18.6-5.3-14 5.3-14 5.3Z"/>
  <path fill="#773823" d="M145.6 303.9h34v1.7h-34z"/>
  <path fill="#6b3020" d="M151.2 210.9c-.1.3 0 .5.2.6l-.2.7-5.8 16.9-.2.7v.2c-2.2.5-4.5.6-7.1.3v-.6c1.9-5.4 3.3-11 4.7-16.5l.8-3 .4-1.3c0-.4-.4-.5-.6-.2a17 17 0 0 0-1.2 2.1c3.7-10.9 8.3-16.6 10.5-17.8l1.5 8.8.4 2.1-.2.5-3.2 6.6Zm4.9-37.4c0 2.2-1.4 4.1-3 4.1s-3-1.8-3-4.1.6-4.1 3-4.1 3 1.8 3 4.1Zm13.3 0c0 2.2 1.4 4.1 3 4.1s3-1.8 3-4.1-.6-4.1-3-4.1-3 1.8-3 4.1Z"/>
  <path fill="#602b1d" d="m151.1 212.2-5.8 16.9-1.1-.2 2.8-13.5-4.3-2.2.8-3 7.5 1.9Z"/>
  <path fill="#ff542d" d="M179.5 241a78.6 78.6 0 0 1-33.8 0l2.3-15.8.4-2.4.4-2.8.6-4.1 3.3-22.8s9.4 2.1 19.8.2l3.2 22.2.6 4.1.4 2.8.4 2.4 2.4 16.3Z"/>
  <path fill="#ff542d" d="m152.7 193 1.3-.8c5.7-3.1 12.7-1.8 16.8 0l1.1.6h.1l.4.3c3.5 2.6 10.8 27.7-10.1 27.7h-.5l-9.2-27.9Z"/>
  <path fill="#ff9b2b" d="M176.3 219.5a97.5 97.5 0 0 1-27.5.4l.6-4.1c8.7 1.1 17.6 1 26.3-.4l.6 4.1Zm.8 5.2a91.6 91.6 0 0 1-29.1.4l.4-2.4c9.4 1.4 19 1.2 28.3-.4l.4 2.4Z"/>
  <path fill="#6b3020" d="M157.9 191.8a6 6 0 0 0 5.6 1.7 5.2 5.2 0 0 0 3.3-2l-.1-4.7-4.5-2.1-3-1.3-1.5 2.3v5.5l.2.6Z"/>
  <path fill="#602b1d" d="m166.7 185-9.1.9s2.5 4.4 7.7 4.4c.6 0 1.1 0 1.5-.2V185Z"/>
  <path fill="#773823" d="M174.1 179.7c0 2.9-7.3 8.6-11.2 8.6s-2.6-.4-3.9-1.1c-3.9-2-7.3-6.1-7.3-7.6l.5-5.1c.7-6.3 2.2-16.1 4.3-16.1h12.8c3.1 0 4.8 21.2 4.8 21.2Z"/>
  <path fill="#602b1d" d="M159.5 182.5s.1 3.1 3.2 3.2c4 0 3.8-3.4 3.8-3.4h-7Z"/>
  <path fill="#351a1a" d="M159.6 182.3s.7 1.6 3.5 1.6 3.2-1.7 3.2-1.7l-3.5-.3-3.2.4Z"/>
  <path fill="#edd3ae" d="m160.9 172.3-.8.9c-.5.3-1.2.5-2.2.5-2.3 0-2.9-1.4-2.9-1.4s2.7-2.3 6 0Zm9.9-.1s-.2.4-.7.8c-.4.3-1.1.6-2.2.7-1.4 0-2.4-.6-3-1.3 3.2-2.4 6-.2 6-.2Z"/>
  <path fill="#351a1a" d="M160.1 173.1c-.5.3-1.2.5-2.2.5l-.2-.4c-.2-.7.2-1.3.9-1.5.7-.2 1.3.2 1.5.9v.5Zm9.9-.1c-.4.3-1.1.6-2.2.7l-.2-.3c-.2-.7.2-1.3.8-1.5.7-.2 1.3.2 1.5.9v.3Z"/>
  <path fill="#602b1d" d="M157.9 173.8c-2.4 0-3.1-1.5-3.1-1.5v-.2s2.9-2.4 6.2 0v.3c-.3.7-1.1 1.5-3.2 1.5Zm-2.7-1.6c.2.3.9 1.1 2.7 1.2 1.4 0 2.3-.4 2.7-1.1-2.6-1.8-4.9-.5-5.4 0Zm12.7 1.6a4 4 0 0 1-3.2-1.4v-.3c3.3-2.5 6.2-.2 6.2-.2v.2s-.7 1.5-3.1 1.6Zm-2.8-1.5c.6.6 1.6 1 2.8 1.1 1.7 0 2.4-.9 2.6-1.2a4.6 4.6 0 0 0-5.4.1Z"/>
  <g fill="#351a1a">
    <path d="M138.4 324.5c-2.9-11.5-5.5-23-8-34.6-.5-2.4-1-4.9-.4-7.3.5-2.4 2.4-4.7 4.9-4.9 3.3-.3 5.7 3.1 6.6 6.2.7 2.7.7 5.5.7 8.3 0 11 .2 21.9.3 32.9a13 13 0 0 1-3.4-.2"/>
    <path d="M130.4 281.2a170.8 170.8 0 0 1 17-32.2 33 33 0 0 1 9.7 8.1c1.5 2.1 2.7 4.7 5.1 5.6a112.1 112.1 0 0 1-23.2 25.4m44 14c6.5-9.9 12.9-19.9 19-30 1.3-2.1 2.6-4.3 2.9-6.8.3-2.5-.7-5.2-3-6.2-3-1.4-6.4 1-8.3 3.7-1.6 2.3-2.5 5-3.5 7.6l-11.2 30.9a9 9 0 0 0 3.2.9"/>
    <path d="m175.9 244.2 26.7 15.8c.3.2.7.4.8.8.2.5 0 1-.2 1.5l-3.2 9.2c-.4 1-.8 2.1-1.5 2.7-.9.7-2 .5-3 .3-8.5-1.8-16.9-4.7-25-8.6-3.2-1.6-6.5-3.3-10-3.3"/>
    <path d="m175.7 244.5 18.9 11.3 4.6 2.7c1.6 1 3.8 1.6 3.6 3.7-.1 1.6-1.3 3.8-1.9 5.4-.6 1.6-1 3.5-1.8 5-1.5 2.6-4.2 1.4-6.4.9l-5.1-1.4a113.7 113.7 0 0 1-18.8-7.5 20 20 0 0 0-8.2-2.4c-.5 0-.5.8 0 .8 4.3.1 8 2.5 11.8 4.2a94.7 94.7 0 0 0 21.5 7.3c2.6.6 4.7 1 6-1.7.8-1.6 1.2-3.4 1.8-5.1.7-1.9 1.7-3.9 2-5.9.1-.8 0-1.4-.5-2-1.2-1.3-3.5-2.1-5-3l-22.1-13.1c-.5-.3-.9.4-.4.7Zm-37.1 79.3a66 66 0 0 1-8.5 3c3.5.5 7.1.7 10.6.5.3 0 .6 0 .8-.2.6-.3.8-1 .7-1.7s-.5-1.2-.9-1.7m38-23.3c.5 1.1-1.2 1.9-1.5 3.1-.2.9.6 1.7 1.3 2.2 2.1 1.7 4.3 3.3 6.6 4.7l-3.8-5.9c-.2-.3-.4-.6-.4-1 0-.3.2-.6.4-.8l2.1-3.1"/>
  </g>
  <path fill="#602b1d" d="M164 177.9c-.2 0-.3-.1-.3-.3v-7.7c0-.2.1-.3.3-.3s.3.1.3.3v7.7c0 .2-.1.3-.3.3Z"/>
  <path fill="#4f2017" d="M166.5 182s-1-1.3-2.1-1.3-1.5.4-1.5.4 0-.4-1.3-.4-2.1 1.1-2.1 1.1-.3.3.5.4c.8.1 1.4-.5 1.9-.4.5 0 .8.4 1 .4.3 0 .7-.4 1-.4l1.8.4c.4 0 .8-.3.8-.3Z"/>
  <path fill="#471d15" d="M165.6 182.5a2 2 0 0 1-1.1-.3l-.6-.2c-.2 0-.3 0-.4.2l-.5.2h-.2a.8.8 0 0 1-.5-.2l-.4-.2c-.2 0-.4 0-.6.2-.3.1-.7.3-1.1.3-.7 0-1.5-.5-1.5-.6v-.3h.3s.7.5 1.3.5.6-.1.9-.2l.7-.2.6.2.3.1h.2l.3-.1.6-.2.7.2.9.2c.5 0 1.1-.4 1.3-.5h.3v.3s-.8.6-1.5.6Z"/>
  <path fill="#602b1d" d="M163.4 179.7h-.8c-.2 0-.5-.1-.6-.3l-.4-.5h-.3c-.2 0-.5-.1-.6-.3l-.3-.4a.6.6 0 0 1 0-.8l.7-.9c.1-.1.3-.2.4 0 .1.1.2.3 0 .4l-.7.9.3.4h.3c.2 0 .5.1.6.3l.4.5h1l.4-.5c.1-.2.4-.3.6-.3h.3l.3-.4-.7-.9c-.1-.1 0-.3 0-.4.1-.1.3 0 .4 0l.7.9c.2.2.2.6 0 .8l-.3.4c-.1.2-.4.3-.6.3h-.3l-.4.5c-.1.2-.4.3-.6.3Z"/>
  <path fill="#6b3020" d="M197.8 242.7c-.6.4-1.3.4-1.9.4l-23.1 1.2c-.7-1-.3-2.5.7-3.3.9-.8 2.2-1.1 3.4-1.5l9.8-2.4a77.5 77.5 0 0 0-8.3-16.2l-2-3.1v-.2a35 35 0 0 0-.4-3.2c0-.3-.3-.4-.5-.4s-.5.1-.6.3c-.3-.8-.4-1.6-.5-2.4l5.3-.2h2.6l.9 1.4 14.7 24.1c.5.8 1 1.7 1.2 2.6.1 1-.1 2.1-.9 2.6Z"/>
  <path fill="#602b1d" d="m189.5 236.7-2.9.4a77.5 77.5 0 0 0-8.3-16.2l-2-3.1v-.2a35 35 0 0 0-.4-3.2c0-.3-.3-.4-.5-.4l4.2-2.1h2.6l.9 1.4-4.1 3.3 10.6 20Z"/>
  <path fill="#ff542d" d="m156.1 196.5-1.1 3.1-.7 1.8-.9 2.6-1.8 4.9-1.5 4.1-.3.7-.2.4v.2h-.2l-1.8-.7-5.9-2.2-.6-.2-2.4-.9s5.6-10.9 8.2-13.6c1.8-1.9 5-3.6 7-4.6l1.8-.8v2.1l.3 3Z"/>
  <path fill="#ea3f24" d="M151.6 195v5.7c0 1.2 0 2.5-.2 3.7-.2 1.5-.6 2.9-1 4.3-.4 1.9-.8 3.8-1 5.8l-1.8-.7a28 28 0 0 1 1.3-4.1c.2-.5.4-1.1.2-1.7-.3-.8-1.4-1.3-1.1-2.1h1.4l-2.2-3.1c1.2 0 2.4.3 3.3 1.1l.9-9.1Z"/>
  <path fill="#351a1a" d="M155.8 158.2c-1.9.7-4.4 1.3-5.4 3.1-1.1 1.8-.6 4 0 6 .3 2.4.7 4.8 1.3 7.2 0 .3.6.3.6 0l1.2-7.8c.5-2.9 1.6-5.5 2.8-8.1 0-.2 0-.6-.3-.5Zm19.9 3.9c-.4-3.1-3.2-3.9-5.9-4.2-.2 0-.3.1-.3.2v.2a59 59 0 0 1 3.8 16.1c0 .3.5.4.6 0 .5-2.1.9-4.3 1.2-6.5.3-1.9.8-4 .6-5.9Z"/>
  <path fill="#351a1a" d="M150.7 163.6c-.6.1-1.3 0-1.9-.2-1.1-.5-1.9-1.7-1.7-2.9.2-1.2 1.6-2.1 2.7-1.6-.5-.9-.9-1.8-1-2.8 0-1 .4-2.1 1.2-2.6.8-.6 2.1-.5 2.7.3-.2-1.4.8-2.9 2.1-3.3 1.4-.4 3 .3 3.6 1.5a4 4 0 0 1 4-2.8c1.7 0 3.3 1.4 3.7 3.1.4-1.5 2-2.7 3.6-2.4 1.6.2 2.8 1.7 2.8 3.3.9-1.1 2.8-1.2 3.9-.2s1.1 2.9 0 3.9c1.6.1 3 1.8 2.7 3.4-.2 1.6-2 2.8-3.6 2.5-.2 1.1-1.1 2-2.1 2.2-1.1.2-2.2-.3-2.8-1.3-.4 1.1-1.7 1.8-2.9 1.6-1.2-.2-2.2-1-2.9-1.9-.7 1.2-2.1 2-3.5 2a4 4 0 0 1-3.5-1.9c-.9 1.4-3.2 1.6-4.2.3-.3.4-.6.8-1.1 1-.5.2-1.1 0-1.3-.4"/>
  <path fill="#ff542d" d="M186.2 208.3a18.6 18.6 0 0 1-10.3 7.1c-1.8.5-3.8.7-5.6.5v-23.4c3.8 1 6.4 4.2 8.5 7.3 2.2 3.1 4.2 6.5 7.4 8.5Z"/>
  <path fill="#ea3f24" d="M178.5 214.5c-.8.4-1.7.7-2.6.9 0-.3 0-.5-.2-.7v-.2l-2-13.1 1.7 5.2c.1-.8.4-1.5.7-2.2.2 1.4 0 2.9.2 4.3.1.7.4 1.4.7 2.1l1.5 3.7Zm-22.3-22.3a9.3 9.3 0 0 0 12.8.7c.2-.2 0-.5-.3-.3a8.8 8.8 0 0 1-12.2-.7c-.2-.2-.5.1-.3.3Zm-3.9 46.3c7.4-.3 14.4-2.8 20.3-7.3.2-.2 0-.5-.2-.4-5.8 4.4-12.7 7-20 7.3-.3 0-.3.4 0 .4Zm1-6.9c4.8.9 9.4-.6 14.1-1.2.3 0 .2-.4-.1-.4-4.6.7-9.2 2.1-13.9 1.2-.3 0-.4.3-.1.4Z"/>
  <path fill="#6b3020" d="M157 236.8c-2.7-.5-5.4-2.5-7.5-4-2-1.5-3.8-3.8-6.1-4.8a8.5 8.5 0 0 0-4.9 1.2c-.6.7-.6 1.8-.2 2.7 1 2.5 3.6 3.9 6.1 4.9 4 1.5 8.1 2.6 12.3 3.2 0-1 0-2.1.3-3.1Z"/>
  <path fill="#602b1d" d="M165.2 171.3a4.4 4.4 0 0 1 4-.8c.4 0 .6-.5.2-.6a5.1 5.1 0 0 0-4.6 1c-.3.3.1.7.4.4Zm-8.6-.9c1.2-.2 3.3-.2 4.2.7.3.3.7-.2.4-.4-1.1-1.1-3.4-1.1-4.8-.9-.4 0-.2.7.2.6Z"/>
  <path fill="#351a1a" d="M161.5 168.6h-.6l-.4-.3-.7-.2-1.5-.2c-.5 0-1 0-1.5.2l-1.4.5c-.2.1-.5 0-.5-.2s0-.4.2-.5l1.6-.8 1.7-.4h1.8l.9.1.4.1h.3s0 .1 0 0h-.2c.4 0 .8.3.8.8s-.3.8-.8.8Zm3.7-1.6 1.7-.2h1.7c1.1 0 2.3.3 3.2 1.1.2.1.2.4 0 .6-.1.2-.4.2-.5 0-.8-.5-1.8-.6-2.8-.6-.5 0-1 0-1.5.2-.5 0-1 .2-1.4.3-.4.1-.8 0-.9-.5-.1-.4 0-.8.5-.9Z"/>
  <path fill="#e8e4d6" d="M159 233c3.5-.4 7.1-.3 10.6.3-1 4-1.9 8-2.6 12l-5.4-.1c-.2 0-.5 0-.7-.2l-.4-.5a190.8 190.8 0 0 1-1.8-11.5"/>
  <path fill="#c1925e" d="M166.2 235.3c-1.4-.4-2.7.1-4.1 0-.7 0-1.3-.3-2-.5l1.2 8.5 5 .2 1.4-7.8-1.5-.3Z" opacity=".5"/>
  <path fill="#6b3020" d="M155.9 237.1c.4-.6 1.1-.9 1.9-1h2.2c1.2 0 2.4-.3 3.5-.9.3.5 0 1.2-.6 1.5-.5.3-1.2.3-1.8.3a42.6 42.6 0 0 0 6.9 1.6c.2.2.3.5 0 .7l-.5.1c-1 0-2-.2-3-.4l3.7 1.1c.3 0 .6.2.7.4.2.2.2.6 0 .8h-.7l-3.4-.7 2.1.7c.4.1.8.4.8.7 0 .3-.3.4-.5.5l-.8-.1-4.6-1.4 2.3 1.4c.3.2.7.5.5.8-.3.3-.7.1-1.1 0-3.5-1.4-7-2.8-10-5"/>
  <path fill="#5b5656" d="M46.2 182c-.3-2.3-1.3-4.4-2.9-6.1a4.6 4.6 0 0 0-1.9-1.3c-.7-.3-1.5-.3-2.3-.3-.7 0-1.4 0-2.1.3-.7.2-1.3.7-1.6 1.4-.3.7-.2 1.6-.8 2-.2.2-.5.2-.7.3-.9.2-1.9.4-2.8.9-1.2.7-1.8 2-2.3 3.3-.4 1.3-.6 2.6-.5 3.9 0 1.1.2 2.3.8 3.3.7 1.3 2 2.2 3.3 2.7 1.4.5 2.8.6 4.3.6 1.4 0 2.8-.2 4.1-.8a4.5 4.5 0 0 0 2.6-3.1"/>
  <path fill="#6b3020" d="M91.1 230.1c1.9-1 3.1-2.8 4.6-4.3l.3-.2h.3l3.1.7h.1l.2.2c.6 1.2 1.3 2.5 2.6 2.8a2 2 0 0 1-1.5.4c-.5 0-1-.2-1.5-.4l-1.8-.6c0 .4.6.7 1 .8.4 0 .9 0 1.4.2-.3.7-.9 1.1-1.6 1.4-.9.3-1.8.4-2.7.3-.5 0-1.1-.3-1.6-.2-.4 0-.7.2-1.1.3l-3.1 1.3"/>
  <path fill="#48434c" d="m47.1 275.3-13.8.2c-.6 0-1.2 0-1.7-.3-1.4-.7-2.3-2.9-2.7-5.2-.7-4.1.2-8.8 2.2-11.4l6.8-14.8 6.6 6.6 4.1 11.1-1.5 13.8Z"/>
  <path fill="#3a363d" d="M57.3 330.3h.7l12.5-2.1a30.6 30.6 0 0 1-7.1-2.8c-.3-.1-.6-.3-.6-.7 0-.3.1-.6.3-.8l14.3-22.1 3.5-5.4 1.8-2.5 7.5-10.2-5.8-5.1-13.2 5.9H71a13.5 13.5 0 0 0-7.6 9.6c-.3 1.2-.4 2.4-.5 3.6l-.1 5a84.6 84.6 0 0 1-4.2 24.6l-1 3Z"/>
  <path fill="#966c48" d="M62.6 324.7c0-.3.1-.6.3-.8l14.3-22.1-14.2-3.9h-.4l-.1 5a84.6 84.6 0 0 1-4.2 24.6c2.4-.6 4.8-.8 7.3-.8l-2.3-1.1c-.3-.1-.6-.3-.6-.7Z"/>
  <path fill="#966c48" d="M58.9 325.8s-2.1 2-1.8 3.5c.3 1.5.6 1.2 2.9.9 2.3-.3 8.7-1.9 8.7-1.9s-.7-2-.9-1.9-4.3.2-5-.5c-.7-.7-3.9 0-3.9 0Z"/>
  <path fill="#351a1a" d="M71.8 328.8c.2 0 .1-.4 0-.6a4.2 4.2 0 0 0-2.5-2.2c-1-.3-2.1-.3-3.2-.3l.3 2.6c-2.9.7-5.8 1.5-8.8 2l-.9.3c-.2.2-.3.7 0 1l.4.1c4.3 0 8.7-.5 13-1.6.6-.2 1.3-.3 1.8-.8"/>
  <path fill="#682d1d" d="m39.9 276.8 2.6 55.2h1.6l2.6-56.4-6.8 1.2z"/>
  <path fill="#773823" d="M32.5 274.8c0 .6-10.3 57.2-10.3 57.2h2.2s14-56.4 13.6-56.4l-5.5-.8Zm21.6 0c0 .6 10.3 57.2 10.3 57.2h-2.2s-14-56.4-13.6-56.4l5.5-.8Z"/>
  <path fill="#993825" d="M28.8 276.8h32.6s-4.8-5.3-18.6-5.3-14 5.3-14 5.3Z"/>
  <path fill="#773823" d="M27.3 309.1h34v1.7h-34z"/>
  <path fill="#ff822e" d="M46.7 223.3c9.9 5 20.7 9.1 31.8 8.7 4.4-.1 8.8-1 13-2.4.7.5.7 1.6.2 2.4-.5.7-1.3 1.1-2.1 1.5-13.4 6.2-27.7 11.8-42.5 10.9"/>
  <path fill="#993825" d="m43.8 193-3.4-1.1-.2-.1v-.3a35.6 35.6 0 0 1 5.3-10.5l.6.1 4.2 1.9a44.2 44.2 0 0 0-4.3 9.7s0 .2-.2.2 0-.2 0-.2"/>
  <path fill="#773823" d="M68.6 191.3c-.7-5.2-6.4-8.6-11.7-8.5-3.8 0-7.1 2.5-10.1 5-1.1.9-2.3 1.9-3 3.2-1.8 3.1-.7 7.2 1.6 9.8 1 1.2 2.3 2.2 3.2 3.6.4.6.7 1.4.8 2.1.2 0 .3.1.4.3.1.4.2.8.1 1.2s0 0 0 .1v.7l6.7.2c2.3 1.1 4.9 1.5 7.4 1.3.6 0 1.1-.2 1.5-.5.4-.4.6-.9.7-1.4.3-6.3 3.1-12.5 2.4-17Z"/>
  <path fill="#773823" d="M56.2 212.2c0 .7 0 1.3.3 1.8 0 .2.2.4.4.6-3.8.2-7.7.3-11.4-.7 1.8-.9 3.3-2.4 3.6-4.3.4-1.9.3-5 .3-5l3.8-1.4 4.4 2.7s-.5 1.3-.9 3c-.2 1-.5 2.2-.5 3.2Zm10.3-7.8c.9-.5 3.1.3 3.5-1.1.3-1.4-3-.7-1.7-7.2l-1.2.9-1.2 4.7"/>
  <path fill="#f7f3e4" d="m62.5 198.9.4-.3 1.6-.1h1.2l-.4 2.1a7.1 7.1 0 0 1-3.4-1.3h-.1l.7-.4Z"/>
  <path fill="#464c32" d="M65 198.6c-.3.6-.7 1.2-.4 1.9 0 .1.6 0 .9.3.3-.6.5-1.2.4-1.9l-.9-.2Z"/>
  <path fill="#57271a" d="M65.4 200.4a6.8 6.8 0 0 1-3.3-1.3c-.2-.2-.4.2-.2.4 1.1.7 2.2 1.2 3.5 1.3.3 0 .3-.4 0-.4Z"/>
  <path fill="#57271a" d="M62 199.4c.8-.5 1.6-.7 2.5-.7l1.4.1c.3 0 .4-.4.1-.4a5.9 5.9 0 0 0-4.3.6c-.2.1 0 .5.2.4Zm4.2-2.1v-1.7c0-.3-.4-.3-.4 0v1.7c0 .3.4.3.4 0Z"/>
  <path fill="#57271a" d="M66.1 197.1c-1.2-.4-2.8.4-3.8 1.1-.2.1 0 .5.2.4.9-.5 2.4-1.4 3.5-1 .3 0 .4-.3.1-.4Z"/>
  <path fill="#61221d" d="M66.4 206.1c.2.3.3.6.2.8l-.2.3h-.9c-.7-.2-1.4-.6-1.9-1.2l2.7.3"/>
  <path fill="#571e1a" d="M63.8 205.9h.1l1.3-.8c.5-.2 1.1-.3 1.6 0 0 .3-.2.5-.3.8l-.2.4c-.2.1-.5 0-.8 0-.3 0-.6-.2-.8-.1"/>
  <path fill="#471915" d="m63.7 206.1 2.7.3c.1 0 .1-.2 0-.2-.9 0-1.8 0-2.7-.2-.1 0-.2.2 0 .2Z"/>
  <g fill="#57271a">
    <path d="m66.3 203.5-.2-.2c0-.3-.5-.1-.4.1 0 .3.2.4.5.5.3 0 .4-.3.1-.4Z"/>
    <path d="m66.2 203.1.2-.2c.2 0 .1-.5-.1-.4-.2 0-.3.1-.4.3-.2.2 0 .5.3.3Z"/>
  </g>
  <path fill="#6b3020" d="M56.2 212.2a9 9 0 0 1-2.5-7.7c0-.2 1 3 3 4.5-.2 1-.5 2.2-.5 3.2Z"/>
  <path fill="#5b5656" d="M62.2 189.3c.9-.4 1.9-.5 2.8-.3l2.1.8c1.2.4 2.7.3 3.7-.4A3 3 0 0 0 72 186a4 4 0 0 0-2.3-2.1c-2.6-.9-5.5 0-8.2-.7-1-.2-2-.7-3-1.1a13 13 0 0 0-8.5-.5c-2.7.9-5.1 3.3-5.3 6.2 0 .3 0 .7-.2.9l-.5.6a8.8 8.8 0 0 0-2.5 4.1c-.3 1.6.1 3.3 1 4.7.9 1.4 2.1 2.5 3.4 3.5 1.4 1.1 3.1 2.3 3.7 4a47.4 47.4 0 0 1 7.9-12.9c.9-.8 2-1.3 3.1-1.8"/>
  <path fill="#6b3020" d="M54.6 196c-.5-.7-1.5-.9-2.3-.7-.8.2-1.5.9-1.7 1.7-.2.8 0 1.7.4 2.4l.7.7c.6.5 1.4 1 2.3.9"/>
  <path fill="#5b5656" d="M62.2 189.1c0 .6-.4 1.1-.8 1.6a11 11 0 0 1-2.9 2.3c-.2 0-.3.2-.4.3l-.2.6c-.3 2.1-1.4 4.1-3.3 5-.1 0-.3.1-.4 0-.2 0-.3-.2-.4-.3-.4-.7-.5-1.5-.5-2.3 0-1.4.2-2.7.6-4"/>
  <path fill="#c1925e" d="M81.5 325.8c-.2.3-1.5 1.9-1.5 3.3s13.2 1.2 13.2 1.2l-1.5-2.2-4.5-1.6-5.7-.7Z"/>
  <path fill="#48434c" d="M85.5 284.4c0 .2-.1.4-.3.5l-.5.6a11.2 11.2 0 0 0-2.3 4.3 19 19 0 0 0-.6 6.3v.5l.9 6.6c4.2 0 8.3.6 12.4 1.1h.1a93.8 93.8 0 0 0 4.1-17.3c.8-5.3 1.2-11.1-.9-15.9-2.7-6.4-8.9-9.4-14.6-11.7a147.4 147.4 0 0 0-11.1-4l-2.4-.8c-2.5-.8-4.9-1.5-7.4-2.1l-22.2 20.8a71.5 71.5 0 0 0 18.5 5.5l3.2.5 8.1 1.1 12.4 1.6c1.2.2 2.7 1 2.3 2.3Z"/>
  <path fill="#c1925e" d="m90.6 328.5-3.4-2c4.4-7.5 9.3-24.4 9.3-24.4s-8.8-1-14.1-1.3c-.2 0 .7 7.2 1 10.9.5 5.6-.6 11.4-2.9 16.4l10.1.5Z"/>
  <path fill="#48434c" d="m42.8 253.4 7.6 1.5 1.3-11.3 11.4 9.2 3.9 1.1 5.9 1.8a94 94 0 0 1-7.8 19.7l-2.4 4.1a74.5 74.5 0 0 1-21.7-6c-2.1-1-8.6-1.2-8.2-9.8.4-8.6 10-10.2 10-10.2Z"/>
  <path fill="#ff9b2b" d="M29.3 257.3c1.7-5.7 1.8-32.6 10.5-40.7.7-.8 1.6-1.4 2.6-1.8.9-.4 1.9-.5 2.9-.6 5.4-.4 16 4.2 16 4.2l-2.2 11.7c1.9 6.4.9 13.2 2.2 19.8l.1.7c.8 3.6 2.3 7 4 10.3l1.5 2.7-.4.3-1.5.4c-2.6.7-5.2 1-7.9.8-5-.4-9.8-1.7-14.8-2.2-4.7-.5-9.5-.8-14.3-.5.3-1.7.8-3.4 1.3-5.1Z"/>
  <path fill="#c1925e" d="M61.1 216.7c.4 0 .6-.4.4-.7s-.5-.4-.9-.6l-15.2-5.6c-.7 1.6-1.8 3-3.1 4.3 4.6 4 10.4 6.8 16.7 8.1h.4c.3 0 .3-.4.3-.7 0-1.8.7-3.5 1.8-5"/>
  <g fill="#773823">
    <path d="m91.2 242.5 1.3-.4c2 .8 4.4 1.1 6.2.3h.1c-.3.9-.7 1.7-1.2 2.5l-1.7 2.2a8 8 0 0 1-5.3-.5l-4 .4-.7-3.5 5.3-1Z"/>
    <path d="M90.9 243.1c0-.5-.1-1.1.1-1.5.3-.6 1-.8 1.5-1.2.7-.4 1.3-.9 1.8-1.5l.1-.1c.1 0 .3 0 .3.2.2.4.1.9 0 1.3l-.7 1.2-.9 1.1m3.8.9 1.6-.9c-.5-.2-.7-.9-.7-1.4 0-.8-.1-1.6.1-2.3.6 1.1 1.1 2.3 1.5 3.6v.3c0 .1 0 .2-.2.3-.7.9-1.9 1.3-3 1.6m3.6-1.2h.1c-.2.9-.3 1.9-1 2.5l-.2.2h-.3l-3.1.2 2-1.8 2.5-1.2Z"/>
    <path d="M91.3 246.9c2.3.5 4.6.6 6.9.2.2 0 .3-.2.3-.4 0-.5 0-1 .2-1.4.1-.5-.7-.7-.8-.2l-.2 1.6.3-.4c-2.2.4-4.3.3-6.4-.2-.5-.1-.7.7-.2.8Zm5.3-2.2 2.8-.4h.2l.1-.1c.8-1.6 1-3.6 1.8-5.2-1.2.7-2.3 1.4-2.3 3.6"/>
  </g>
  <path fill="#ff9b2b" d="M87 242.8c-4.7.4-9.5-.1-14.1-1.4-.5-.2-1.1-.3-1.6-.7-.5-.4-.9-1-1.3-1.5a82.4 82.4 0 0 1-7-14.3c-.8-2.2-1.5-4.5-3-6.2-3.1-3.6-8.4-3.7-13.1-3.6-.9 0-2 .1-2.6.8-.5.6-.7 1.4-.8 2.2a39.7 39.7 0 0 0 6.1 26.1c1.5 2.2 4.4 4.8 10.7 6a127 127 0 0 0 27.1-2.6l-.5-4.9Z"/>
  <path fill="#351a1a" d="M95.2 331.7a5 5 0 0 0-1.8-3.2c-.9-.7-2-1.1-3.1-1.3v2.2c-3.8-.1-7.6 0-11.4.5v1.9c5.3.3 10.7.3 16-.1"/>
  <path fill="#ff822e" d="M45.6 244.7a24 24 0 0 0 8.8 12.6 19 19 0 0 0 11 3.6 43.1 43.1 0 0 1-4-10.3c-2.1-.1-4.1-.6-6.1-1.4a14 14 0 0 1-7-6.3 26 26 0 0 1-1.6-4.7l-2.3-9c-.5 5.2-.3 10.5 1.3 15.5Z"/>
  <path fill="#5b5656" d="m67.2 194-.5-.5a3.4 3.4 0 0 0-4.3-.1c-.3.2-.5.6-.5.9 1.7-.3 3.5-.4 5.3-.3H67"/>
  <path fill="#e8e4d6" d="m101.4 230.2-4.2-2.5a5 5 0 0 0-1.4 3.5l4.8 1.1.8-2Z"/>
  <path fill="#48434c" d="m102.3 230-1 2.6-1-.4 1.1-2.6z"/>
  <path fill="#6b3020" d="M94.5 230.9c.5 0 .5-.8 0-.8s-.5.8 0 .8Z"/>
  <g fill="#6b3020">
    <path d="M94.1 228.9c1.2 0 2.1 1 3.2 1.4a4 4 0 0 0 1.9.1h.3c.3.1.3.5.2.8-1.9.9-4.3.6-6.1-.6"/>
    <path d="M94.1 229.3c1.1 0 1.9.9 2.9 1.3l1.2.2c.4 0 1.2-.2 1.1.4l.3-.4c-1.9.8-4 .6-5.8-.5-.4-.3-.9.4-.4.7a6.6 6.6 0 0 0 6.4.6c.2 0 .3-.2.3-.4.1-1.3-.7-1.2-1.7-1.2-1.6 0-2.7-1.4-4.3-1.5-.5 0-.5.8 0 .8Z"/>
  </g>
  <path fill="#e8e4d6" d="M218.8 237.7c3.5-.4 7.1-.3 10.6.3-1 4-1.9 8-2.6 12l-5.4-.1c-.2 0-.5 0-.7-.2l-.4-.5a190.8 190.8 0 0 1-1.8-11.5"/>
  <path fill="#351a1a" d="m223.9 247.3 2.6-19.3h.6l-2.6 19.4z"/>
  <path fill="#c1925e" d="M226 239.9c-1.4-.4-2.7.1-4.1 0-.7 0-1.3-.3-2-.5l1.2 8.5 5 .2 1.4-7.8-1.5-.3Z" opacity=".5"/>
  <path fill="#e8e4d6" d="M110.8 236.5c-3.5-.4-7.1-.3-10.6.3 1 4 1.9 8 2.6 12l5.4-.1c.2 0 .5 0 .7-.2l.4-.5a190.8 190.8 0 0 0 1.8-11.5"/>
  <path fill="#c1925e" d="M103.6 238.8c1.4-.4 2.7.1 4.1 0 .7 0 1.3-.3 2-.5l-1.2 8.5-5 .2-1.4-7.8 1.5-.3Z" opacity=".5"/>
  <path fill="#682d1d" d="M74.4 254.4h169.7v13.8H74.4z"/>
  <path fill="#682d1d" d="m77 253.6-6.8 1.7 2.7 76.7h1.5m163.5-78.4 6.8 1.7L242 332h-1.5"/>
  <path fill="#773823" d="M66 249.1h184.4v6.9H66z"/>
  <path fill="#232020" d="M121.6 91.7h-1.1l-.7-.2-1.4-.1-1.3-.2a2086 2086 0 0 1-24.6-3.7c-2.9-.4-5.7-1-8.5-1.5l-6.9-1.4-.9-.3c-5.6-1.4-11.1-2.6-16.7-4.1-5-1.3-9.9-2.8-14.9-4.2l-1.2-.1-7.1-2.4-4.4-1.5h-.3c-3.8-1.5-7.7-2.7-11.5-4.2L10.9 64l-.4-.1c.7-1 1.6-1.8 1.7-3.1A396 396 0 0 0 41 71.4l21.9 6.3h.4l.4.2h.4l.4.2h.4l1.3.4h.4l2.2.7h.4l15.5 3.5h.4l.6.2h.4l.6.2h.4l.6.2h.4l.6.2h.4l.9.2h.4l.6.2h.4l.7.2h.4l.9.2.4.2 13.9 2.2c2 .3 3.9.3 5.9.5l5.5.8h.4l1.5.2h.7l1.3.2h1.1l1.3.2h.9l1.3.2h.9l1.7.2h.9l1.7.2h.9l2 .2h.7l2.4.2h.9l2.8.2h.9l3.3.2h1.1l11.6.4a358.5 358.5 0 0 0 58.9-3.7c7.7-1.1 15.4-2.5 23.2-3.8l.7-.2h.4l.4-.2 1.7-.3h.4l11.1-2.6c2.9-.7 5.8-1.3 8.6-2.2 9.4-2.8 18.7-5.6 28-8.7 5.7-1.9 11.3-4.2 16.9-6.4l4.7-2 1.8 3.1-8.9 3.5-8.3 3.3-2.4.8-17.3 5.8-12.3 3.5-5.3 1.5-7.8 1.8-4.7 1.1h-.5a380.4 380.4 0 0 1-35.2 6h-.2l-1.1.2h-.4l-1.1.2h-.7l-1.3.2h-.7l-1.5.2h-.5l-.9.1a4093.4 4093.4 0 0 1-17 1.4l-18.5.6h-.3l-7.7.1h-3l-15.5-.5-16.6-1.2h-.9l-.7-.2h-1.5l-.7-.2h-1.3l-.9-.2Z"/>
  <path fill="#41b54d" d="M214.3 91.2c11.8-1.4 23.5-3.5 35.2-6h.5l-4.9 15.1-3.5 11.1-3.7 11.3-2.8 8.5-5.6-10.7-7.6-14.6-6.5-12.4-1.2-2.2v-.2Z"/>
  <path fill="#e6b026" d="m43.4 75.9 1.2.1c5 1.4 9.9 2.9 14.9 4.2l16.7 4.1.9.3-4.7 5.9-6.5 8.4-4.7 5.8-5 6.6-2.3 2.7-3.9 5.4c-.5.7-1.2 1.2-2 1.9l-.5-5.3-.7-5.2-.5-5-.5-5.2-.3-4.1v-.8l-.1-1.6v-.6l-.1-1.4v-.8l-.2-1.4-.2-.6-1.2-13.4Z"/>
  <path fill="#38bfca" d="m83.9 86 8.5 1.5 24.6 3.7 1.3.2-5 7.8-4.8 7.6-7 10.9-7.8 12.2c-.1.2-.2.5-.6.8l-.6-2.7v-.6l-.3-1.5-.4-1.5-.1-.6v-.9l-.2-.6-2.8-13.3-1.7-7.5v-1l-.2-1.1-.3-1.3v-.4l-.5-2.1-.8-3.7-1.1-5.8Z"/>
  <path fill="#a555a1" d="m144 93.6 15.5.5h3l-2.3 4.6-6.3 12.2-4.1 7.9-6.1 11.7c-.9 1.7-1.7 3.5-2.9 5.2l-.6-1.7.8 1 .2-5.1.9-12.5.5-6.7.9-12.1.4-5.1Z"/>
  <path fill="#e72728" d="m170.5 94.1 18.5-.6-.2 24.3v17l-1-1.1-.3-.7-.6-1.3-.4-1.1-.3-.4-.3-.7v-.2l-5.8-13-5.9-13.2-3.8-8.7V94Z"/>
  <path fill="#e44c71" d="m262.5 82.1 5.3-1.5 12.3-3.5 2.7 11.8 3.6 16.3 2.6 11.5-.2.7-12.1-16.2a522 522 0 0 0-14.2-18.9Z"/>
  <path fill="#e86e8b" d="M288.7 117.3c0-.2.3-.5.2-.7a475 475 0 0 0-2.6-11.5l-3.6-16.3L280 77l17.3-5.8-1.8 10.9-3 16.8-3.1 18c0 .5-.2 1.1-.8.3Z"/>
  <path fill="#902c88" d="m144 93.6-.4 5.1-.9 12.1-.5 6.7-.9 12.5-.2 5.1-.8-1-3.9-12.6-5.5-17.2-3.3-10.8-.2-.9v-.4l16.6 1.2Z"/>
  <path fill="#e44c71" d="m187.7 133.7 1 1.1v-17l.2-24.3 6.7-.5 10.3-.9-2.3 6-3 7.2-4.2 11c-.6 1.6-1.1 3.3-1.8 4.9l-4.7 11.4-1.4 3.3-.9-2.2Z"/>
  <path fill="#e6b026" d="M12.1 60.7c-.1 1.3-1 2.2-1.7 3.1l-2.7.5v-7.6c2.7-.3 4.4 1.4 4.4 4Z"/>
  <path fill="#eccc1b" d="M7.7 56.7v7.6a4 4 0 0 1-3.6-3c-.4-1.5.1-3 1.8-4.1.5-.3 1.2-.3 1.8-.4Z"/>
  <path fill="#e6b026" d="M317.4 57.3c.9-.6 1.8-.9 2.8-.4l-.2.9v6.5l-2.2-.2-.2-3.4-.2-3.4Z"/>
  <path fill="#eccc1b" d="M320 64.3v-6.5l.2-.9c1.6.3 3.3 2.1 3.2 3.5-.1 1.9-1.3 3.7-3.4 3.9Z"/>
  <path fill="#de8e27" d="m317.4 57.3.2 3.4.2 3.4-.9-.3-1.8-3.1c0-1.6.6-2.8 2.3-3.4Z"/>
  <path fill="#d4e8d5" d="m85.9 95.5.5 2.1-.5-2.1Zm.5 2.4.3 1.3-.3-1.3Zm-41-2.3v.8-.8Zm-.2-2.2v.6-.6Zm41.7 7Z"/>
  <path fill="#a555a1" d="M170.5 94.1v.4l-.3-.3h.3Z"/>
  <path fill="#dbb5c8" d="M127.5 92.3v.4l-.2-.4h.2Z"/>
  <path fill="#facc29" d="M0 0h335v335H0z" opacity=".9"/>
  <g fill="#5a1c5d" data-name="PRINT">
    <path d="M29.6 13.9c0 .5-.2 1-.6 1.4l-6.3 6.3-6.8-3.9v-3.8c0-1.1.9-2 2-2s2 .9 2 2v4.9l6.3-6.3c.8-.8 2.1-.8 2.8 0 .4.4.6.9.6 1.4ZM29 31.7c-.4.4-.9.6-1.4.6s-.5 0-.8-.2l-.6-.4-2.1-2.1-4.1-4.1v4.9c0 1.1-.9 2-2 2s-2-.9-2-2v-3.8l6.8-3.9 4.2 4.2 2.1 2.1c.8.8.8 2.1 0 2.8ZM22.4 22s0-.2-.2-.2l-1.7-1-4.6-2.6L12 16a.5.5 0 0 0-.6.2v11.9c0 .3.2.5.5.5h.2l3.9-2.2 6.3-3.6.1-.2v-.3Zm-9.6-4.7 3 1.7 4.9 2.8.1.1v.3s0 .2-.2.2l-4.9 2.8-3 1.7-.5-.1v-9.3c0-.2.2-.3.3-.3h.2Z"/>
    <path d="m19.5 22.2-.1.2-3.7 2.1-2.3 1.3H13v-6.9c0-.1.1-.3.3-.3h.1l2.3 1.3 3.7 2.1.1.2v.1Zm43-.6-5.6-2.8-3.4-1.7c-.2-.1-.4 0-.5.2v9.5c.1.2.3.4.6.4h.4l3.2-1.8 2-1.1 3.5-1.9.2-.2V22l-.2-.2Zm-5.6 2.8-2.6 1.4-.4-.1v-7.3c0-.2 0-.3.2-.3h.1l2.7 1.3 1 .5 3.4 1.7.2.2v.2l-.1.1-4.3 2.3Z"/>
    <path d="m60.1 22-.1.1-3.2 1.7-2 1.1h-.3v-5.4c0-.1 0-.2.2-.2l2 1 3.3 1.6.1.1v.1Zm-21.6-4.8h-4.9v9.7H36v-3.2h2.5c2.3 0 4.1-1.4 4-3.4 0-1.9-1.8-3.2-4.1-3.2Zm-.2 4.6H36v-2.7h2.3c1.1 0 1.9.5 1.9 1.3s-.8 1.4-1.9 1.4ZM51.8 27l-7.7.1-.2-9.7h2.4l.1 7.8 5.3-.1.1 1.9zm15.7-3.7.1 3.5h-2.4v-3.5l-4.3-6.1 2.7-.1 2.7 4.2 2.8-4.2 2.6-.1-4.2 6.3zm14.4 3.9-1.6.1-4.1-4.5-1.7 1.6v2.9h-1.2l-.1-9.6h1.2l.1 5.3 5.4-5.4h1.6L77 22.1l4.9 5.1zm6.1-9.9c-3 0-5.5 2.3-5.5 5.1 0 2.7 2.6 5 5.6 4.9 3 0 5.5-2.4 5.5-5.1 0-2.7-2.6-5-5.6-4.9Zm.4 9a4.3 4.3 0 0 1-4.6-3.9 4.3 4.3 0 0 1 8.5-.1 4.2 4.2 0 0 1-3.9 4Zm14.8-1.8c0 1.5-1.2 2.8-3.8 2.8-1.6 0-3.1-.5-4.3-1.5l.8-.9c1 .9 2.2 1.4 3.5 1.4 1.7 0 2.5-.9 2.5-1.7 0-1-1-1.4-2.9-1.8-2.2-.4-3.5-1-3.6-2.7 0-1.5 1.5-2.8 3.6-2.8 1.4 0 2.7.4 3.8 1.3l-.7.9c-.9-.8-2-1.2-3.1-1.2-1.3 0-2.3.8-2.3 1.7 0 1 1.1 1.3 2.9 1.7 2.1.4 3.5 1.1 3.6 2.8Zm12.8 2.7h-1.2l-.1-7.3-3.9 6.8-4.1-6.7.1 7.3-1.3.1-.1-9.7h1.3l4 6.7 4-6.8h1.2l.1 9.6zm7.7-9.9c-3 0-5.5 2.3-5.5 5.1 0 2.7 2.6 5 5.6 4.9 3 0 5.5-2.4 5.5-5.1 0-2.7-2.6-5-5.6-4.9Zm.4 9a4.3 4.3 0 0 1-4.6-3.9 4.3 4.3 0 0 1 8.5-.1 4.2 4.2 0 0 1-3.9 4Zm14.8-1.8c0 1.5-1.3 2.8-3.8 2.8-1.5 0-2.9-.4-4.1-1.3l-.2-.2.8-.9.5.4c.9.6 1.9 1 3 .9 1.7 0 2.5-.9 2.5-1.7 0-.8-.6-1.2-1.6-1.5l-1.2-.3h-.2c-2.2-.4-3.5-1-3.6-2.7 0-1.5 1.5-2.8 3.6-2.8 1.4 0 2.7.4 3.8 1.3l-.7.9c-.9-.8-2-1.2-3.1-1.2-1.3 0-2.3.8-2.3 1.7 0 1 1.1 1.3 2.9 1.7.4 0 .8.2 1.1.3l1 .4c.9.4 1.5 1.1 1.5 2.1Z"/>
  </g>
  <path fill="#5a1c5d" d="M164.5 124.7c-2 0-3.7 1.6-3.7 3.7s.3 1.6.7 2.2l3 5.1 3-5.1c.4-.6.7-1.4.7-2.2 0-2-1.6-3.7-3.7-3.7Zm0 5.3c-.9 0-1.6-.7-1.6-1.6s.7-1.6 1.6-1.6 1.6.7 1.6 1.6-.7 1.6-1.6 1.6Z"/>
  <path fill="none" stroke="#5a1c5d" stroke-miterlimit="10" stroke-width="3" d="M248.6 213.1h76V237h-76z"/>
  <path fill="#5a1c5d" d="M41.6 38.2h251.7v33H41.6z"/>
  <path fill="#fff" d="M95.7 269.7h143.7v16.7H95.7z"/>
  <path fill="#5a1c5d" d="M95.7 252.9h143.7v16.7H95.7z"/>
  <path fill="none" stroke="#5a1c5d" stroke-miterlimit="10" stroke-width="3" d="M3.9 194.4h91.2v91.2H3.9z"/>
  <path fill="#fff" d="M7.8 198.3h83.4v83.4H7.8z"/>
  <g fill="#5a1c5d">
    <path d="M57.6 270.1v6.1c0 1.5-1.3 2.8-2.8 2.8H41.1a2.9 2.9 0 0 1-2.8-2.8v-13.7c0-1.5 1.3-2.8 2.8-2.8h6.2c.4 0 .8.3.8.8s-.3.8-.8.8h-5.9c-.9 0-1.7.8-1.7 1.7v13c0 .9.8 1.7 1.7 1.7h13c.9 0 1.7-.8 1.7-1.7v-5.8c0-.4.3-.8.8-.8.4 0 .8.3.8.8Zm.9-11.3a3.2 3.2 0 0 1 0 4.5l-.4.4-4.5-4.6.4-.3a3.2 3.2 0 0 1 4.5 0Z"/>
    <path d="m57.3 264.5-6.8 6.8h-.3l-4.4.6c-.2 0-.5-.2-.5-.5l.6-4.4v-.3l6.8-6.8 4.5 4.5Z"/>
  </g>
</svg>
