<svg xmlns="http://www.w3.org/2000/svg" xmlns:xlink="http://www.w3.org/1999/xlink" width="335" height="335" data-name="Layer 1">
  <defs>
    <linearGradient id="a" x1="148.5" x2="335" y1="79.5" y2="79.5" gradientUnits="userSpaceOnUse">
      <stop offset="0" stop-color="#fec700"/>
      <stop offset="1" stop-color="#ffb600"/>
    </linearGradient>
    <linearGradient xlink:href="#a" id="d" x1="0" x2="299.9" y1="211.3" y2="211.3"/>
    <linearGradient id="b" x1="293.4" x2="334.3" y1="290.9" y2="312.2" gradientUnits="userSpaceOnUse">
      <stop offset="0" stop-color="#7284b7"/>
      <stop offset=".6" stop-color="#7284b7" stop-opacity="0"/>
    </linearGradient>
    <linearGradient xlink:href="#b" id="k" x1="262.1" x2="296.5" y1="293.9" y2="311.8"/>
    <linearGradient xlink:href="#b" id="l" x1="278.4" x2="303" y1="301.2" y2="314"/>
    <linearGradient xlink:href="#a" id="o" x1="0" x2="64.6" y1="302.6" y2="302.6"/>
    <clipPath id="h">
      <path fill="none" d="m313 229.8-3 15.7-14 .1-1.9-15.2c0-4.5 6.3-5.6 6.3-5.6l.3-.1h5.2l.4.1s6.6 1 6.6 5Z"/>
    </clipPath>
    <clipPath id="i">
      <path fill="none" d="M302.8 216.2h3.8v1.8c0 .7-.6 1.3-1.3 1.3H304c-.7 0-1.3-.6-1.3-1.3v-1.8Z"/>
    </clipPath>
    <clipPath id="j">
      <path fill="none" d="M300.2 219.3H299c-.7 0-1.3-.6-1.3-1.3v-1.8h3.8v1.8c0 .7-.6 1.3-1.3 1.3Z"/>
    </clipPath>
    <clipPath id="m">
      <path fill="none" d="M285 270.9h1.7v2.7H285z"/>
    </clipPath>
    <clipPath id="n">
      <path fill="none" d="M282.6 270.9h1.7v2.7h-1.7z"/>
    </clipPath>
    <filter id="c" data-name="drop-shadow-24" filterUnits="userSpaceOnUse">
      <feOffset dx="3" dy="1"/>
      <feGaussianBlur result="uuid-76d5829c-9a72-45f5-82f9-ae9ea506b673" stdDeviation="2"/>
      <feFlood flood-color="#000" flood-opacity=".8"/>
      <feComposite in2="uuid-76d5829c-9a72-45f5-82f9-ae9ea506b673" operator="in"/>
      <feComposite in="SourceGraphic"/>
    </filter>
    <filter id="e" data-name="drop-shadow-25" filterUnits="userSpaceOnUse">
      <feOffset dx="3" dy="1"/>
      <feGaussianBlur result="uuid-48d93dae-8ad8-4048-9666-f43789262189" stdDeviation="2"/>
      <feFlood flood-color="#000" flood-opacity=".8"/>
      <feComposite in2="uuid-48d93dae-8ad8-4048-9666-f43789262189" operator="in"/>
      <feComposite in="SourceGraphic"/>
    </filter>
    <filter id="f" data-name="drop-shadow-26" filterUnits="userSpaceOnUse">
      <feOffset dx="3" dy="1"/>
      <feGaussianBlur result="uuid-38641ed7-26a0-4845-8a87-0ade798bce03" stdDeviation="2"/>
      <feFlood flood-color="#000" flood-opacity=".8"/>
      <feComposite in2="uuid-38641ed7-26a0-4845-8a87-0ade798bce03" operator="in"/>
      <feComposite in="SourceGraphic"/>
    </filter>
    <filter id="g" data-name="drop-shadow-27" filterUnits="userSpaceOnUse">
      <feOffset dx="3" dy="1"/>
      <feGaussianBlur result="uuid-056c36e5-1763-44d7-9b27-013314f774d7" stdDeviation="2"/>
      <feFlood flood-color="#000" flood-opacity=".8"/>
      <feComposite in2="uuid-056c36e5-1763-44d7-9b27-013314f774d7" operator="in"/>
      <feComposite in="SourceGraphic"/>
    </filter>
  </defs>
  <path fill="#fff" d="M0-.1h335v335H0z"/>
  <g filter="url(#c)">
    <path fill="#7adaec" d="M47 39.7h241.2V288H47z"/>
    <path fill="none" stroke="#7adaec" stroke-miterlimit="10" d="M43.8 36.5h247.5v254.8H43.8z"/>
  </g>
  <g fill="none" stroke="#08060a" stroke-miterlimit="10">
    <path d="M9.9 119.9h79.3v22.3H9.9z"/>
    <path d="M12.5 122.5h74v17.1h-74z"/>
  </g>
  <path fill="url(#a)" d="M148.5 0H335v159H148.5z"/>
  <path fill="url(#d)" d="M0 201.3h299.9v20H0z" filter="url(#e)"/>
  <path fill="#08060a" d="M0 168.3h299.9v23.2H0z" filter="url(#f)"/>
  <path fill="#08060a" d="M37 246.9h213v40.8H37z" filter="url(#g)"/>
  <g fill="#06060c" data-name="PRINT">
    <path d="M29.6 13.8c0 .5-.2 1-.6 1.4l-6.3 6.3-6.8-3.9v-3.8a2 2 0 0 1 4 0v4.8l6.3-6.2a2 2 0 0 1 3.4 1.4ZM29 31.6a2 2 0 0 1-2.8 0L24 29.4l-4-4.1V30a2 2 0 0 1-4 0v-3.8l6.8-3.9 4.2 4.2 2 2.1c.9.8.9 2 0 2.9Zm-6.6-9.8-.2-.2-1.8-1-4.5-2.7-3.9-2.2a.5.5 0 0 0-.6.2v11.9a.5.5 0 0 0 .6.4l3.9-2.2 6.2-3.6.1-.1.1-.2v-.3Zm-9.6-4.7 3 1.7 4.9 2.9h.1v.4l-.1.2-4.9 2.8-3 1.7c-.2.1-.4 0-.5-.1v-9.2c0-.3.1-.4.3-.4h.2Z"/>
    <path d="m19.5 22-.2.2-3.6 2.1-2.3 1.3h-.3v-7.2c0-.1 0-.2.2-.2h.1l2.3 1.3 3.6 2.1.2.2v.1Zm43-.5L57 18.7 53.5 17a.4.4 0 0 0-.6.1v9.5c.1.2.3.3.5.3h.2l.2-.1L57 25l2-1 3.5-2 .2-.2v-.2l-.2-.2ZM57 24.3l-2.6 1.4c-.2.1-.4.1-.4 0v-.2l-.2-7.2c0-.2.2-.3.4-.3l2.8 1.4 1 .5 3.3 1.7.2.1v.2l-.2.2-4.3 2.2Z"/>
    <path d="M60.1 21.9v.1l-3.3 1.7-2 1.1h-.3v-.2l-.1-5.4.2-.2h.1l2 1 3.3 1.7h.1v.2ZM38.5 17h-2.1l-2.7.1v9.7h2.4v-3.2h2.5c2.3 0 4-1.4 4-3.3 0-2-1.8-3.3-4-3.2Zm-.2 4.7H36V19h2.3c1.1 0 2 .5 2 1.3s-.9 1.4-2 1.4Zm13.5 5.1-7.7.1-.2-9.6 2.4-.1.1 7.8h5.3l.1 1.8zm15.7-3.6.1 3.4-2.4.1v-3.5l-4.3-6.1 2.7-.1 2.7 4.2 2.8-4.2 2.6-.1-4.2 6.3zm14.4 3.9h-1.6l-4.1-4.4-1.7 1.6v2.9h-1.2l-.1-9.6 1.2-.1.1 5.4 5.4-5.4h1.6L77 21.9l4.9 5.2zm6.1-9.9c-3 0-5.5 2.4-5.5 5 0 2.8 2.6 5 5.6 5 3 0 5.5-2.3 5.5-5 0-2.8-2.6-5-5.6-5Zm.4 9a4.3 4.3 0 0 1-4.7-4 4.3 4.3 0 0 1 8.6 0 4.3 4.3 0 0 1-4 4Zm14.8-1.8c0 1.5-1.3 2.8-3.8 2.8-1.5 0-3-.5-4.2-1.5l.7-.8a5 5 0 0 0 3.6 1.3c1.6 0 2.5-.8 2.5-1.7 0-1-1-1.4-3-1.8-2.1-.4-3.5-1-3.5-2.7 0-1.5 1.5-2.8 3.5-2.8 1.4 0 2.8.5 3.8 1.3l-.7 1c-.8-.9-2-1.3-3.1-1.3-1.3 0-2.3.8-2.3 1.7 0 1 1 1.4 3 1.7 2 .4 3.5 1 3.5 2.8Zm12.8 2.7h-1.2l-.1-7.3-3.9 6.8-4.1-6.7.1 7.3h-1.3l-.1-9.6 1.3-.1 4 6.7 4-6.8h1.2l.1 9.7zm7.7-9.9c-3 0-5.5 2.4-5.5 5 0 2.8 2.6 5 5.6 5 3 0 5.5-2.3 5.5-5 0-2.8-2.6-5-5.6-5Zm.4 9a4.3 4.3 0 0 1-4.6-4 4.3 4.3 0 0 1 8.5 0 4.3 4.3 0 0 1-3.9 4Zm14.9-1.8c0 1.5-1.4 2.8-3.9 2.8a6.2 6.2 0 0 1-4.2-1.5l.7-.8.6.4c.8.6 1.9 1 3 1 1.6-.1 2.5-1 2.5-1.8s-.6-1.2-1.6-1.5l-1.2-.2h-.2c-2.1-.5-3.5-1.1-3.5-2.8 0-1.5 1.5-2.8 3.6-2.8 1.3 0 2.7.5 3.8 1.3l-.8 1c-.8-.9-2-1.3-3-1.3-1.4 0-2.4.8-2.4 1.7 0 1 1.1 1.4 3 1.7a14.6 14.6 0 0 1 2 .7c1 .4 1.5 1 1.5 2Z"/>
  </g>
  <ellipse cx="314.2" cy="301.7" fill="url(#b)" rx="20.8" ry="2.4"/>
  <path fill="#8c4d50" d="M301 298.2h-2.5v-3.8h2.6z"/>
  <path fill="#302f5d" d="M302.9 300.7h-11.1v-.4c0-.6.3-1.1.9-1.4l2.4-.1 2-2h4.8c.6 0 1 .4 1 1v2.9Z"/>
  <path fill="#222247" d="M302.8 301.7h-4.2v-1h4.2zm-4.8 0h-6.4v-1h6.3z"/>
  <path fill="#8c4d50" d="M312.1 293.9h2.8v4.1h-2.8z"/>
  <path fill="#302f5d" d="M313.2 298.2h.9c1.2 0 3.3 1 3.3 2.3v.2h-6.5v-.2c0-1.3 1-2.3 2.3-2.3Z"/>
  <path fill="#222247" d="M310.9 300.7h6.5v1h-6.5z"/>
  <path fill="#302f5d" d="M315.6 299.3h-3.9v-2.9h3.6l.3 2.9z"/>
  <path fill="none" stroke="#222247" stroke-miterlimit="10" stroke-width=".5" d="M311.7 298.8a5 5 0 0 1 2.5-.4"/>
  <path fill="#222247" d="m295.8 245.5 1.6 49.8h.8l-1.6-49.8 10-.1-10.8.1z"/>
  <path fill="#0e0e21" d="m296.6 245.5 1.6 49.8h4.7l3.7-49.9-10 .1z"/>
  <path fill="#302f5d" d="M299.9 245.4v.1l9.4.2 5.1 49.6h1.7l-5.2-49.6-11-.3z"/>
  <path fill="#222247" d="m299.9 245.5 10.6 49.8h3.9l-5.1-49.6-9.4-.2z"/>
  <path fill="#8c4d50" d="M272.3 220.8c1 .3 2.1-.3 2.7-1 .8-1.3.5-3-.7-3.7l-.2-.1-3.5-2.4a.6.6 0 0 0-1 .2c-.1.3 0 .7.2.9h.2a.6.6 0 0 0-.9.2c-.2.4-.1.8.2 1l.3.2a.6.6 0 0 0-.9.2c-.2.3-.1.7.2.9l.5.3a.6.6 0 0 0-1 .2c-.1.3 0 .7.2.9l2.8 1.8.7.3.2.1Z"/>
  <path fill="#8c4d50" d="m274.5 217.2 4.5 3.8-2.3 2.7-4.5-3.7zm-3.2 2.4c.1-.3 0-.7-.2-.8l-1.7-1.3a.6.6 0 0 0-.9.2c-.2.3 0 .7.2.8l1.7 1.2c.3.2.7.2.9-.1Z"/>
  <path fill="none" stroke="#622b38" stroke-miterlimit="10" stroke-width=".4" d="m268.7 218.6 1.7 1.2c.3.1.7 0 .9-.2.1-.3 0-.7-.2-.8l-2-1.4"/>
  <path fill="#8c4d50" d="M271.4 218.2c.2-.3.2-.7-.1-.8l-1.7-1.3a.6.6 0 0 0-.9.2c-.2.3 0 .7.2.8l1.7 1.2c.3.2.7.2.8-.1Z"/>
  <path fill="none" stroke="#622b38" stroke-miterlimit="10" stroke-width=".4" d="m269.1 217.4 1.5 1c.3.1.7 0 .8-.2.2-.3.2-.7-.1-.8l-2-1.4"/>
  <path fill="#8c4d50" d="M271.8 216.9c.2-.3.2-.7-.1-.9l-1.7-1.2a.6.6 0 0 0-.9.2c-.2.3-.1.7.2.8l1.7 1.2c.3.2.7.2.8-.1Z"/>
  <path fill="none" stroke="#622b38" stroke-miterlimit="10" stroke-width=".4" d="m269.4 216 1.6 1c.3.2.7.2.8-.1.2-.3.2-.7-.1-.8l-2-1.4"/>
  <path fill="#8c4d50" d="M272.4 215.7c.2-.3.1-.7-.2-.9l-1.7-1.2a.6.6 0 0 0-.8.2c-.2.3-.1.6.1.8l1.7 1.2c.3.2.7.2.9-.1Z"/>
  <path fill="none" stroke="#622b38" stroke-miterlimit="10" stroke-width=".4" d="m269.8 214.7 1.7 1.1c.3.2.7.2.9-.1.2-.3.1-.7-.2-.8l-1.7-1.3"/>
  <path fill="#0d183d" d="M284.3 229.8 275 223l2.7-3.8 9.8 6a2.8 2.8 0 1 1-3.3 4.6Z"/>
  <path fill="#0d183d" d="M283.8 227.9a2.7 2.7 0 0 0 2.8 2.5l12.5-.9a2.7 2.7 0 1 0-.3-5.3l-12.6.8a2.7 2.7 0 0 0-2.4 2.9Z"/>
  <path fill="#fff" d="m313 229.8-3 15.7-14 .1-1.9-15.2c0-4.5 6.3-5.6 6.3-5.6l.3-.1h5.2l.4.1s6.6 1 6.6 5Z"/>
  <path fill="#f1b152" d="M306.3 224.8a3 3 0 0 1-5.9 0h5.9Z"/>
  <g fill="none" stroke="#f1b152" stroke-miterlimit="10" stroke-width=".8" clip-path="url(#h)">
    <path d="M292 226.5h23m-23 2.8h23m-23 2.8h23m-23 2.8h23m-23 2.8h23m-23 2.8h23m-23 2.8h23"/>
  </g>
  <path fill="#1b1b1b" d="M304.2 221.7H302a3.8 3.8 0 0 1-3.8-3.8V215a4.9 4.9 0 1 1 9.8 0v2.9c0 2-1.7 3.8-3.8 3.8Z"/>
  <circle cx="298.4" cy="218.5" r="1.4" fill="#8c4d50"/>
  <g fill="none" stroke="#622b38" stroke-miterlimit="10" stroke-width=".5">
    <path d="M298 218.4c.3 0 .7.2.9.5"/>
    <path d="M298.7 217.7a1 1 0 0 0-.7.6 1 1 0 0 0 0 .8"/>
  </g>
  <path fill="#8c4d50" d="M303.3 226.9c-1.2 0-2.2-1-2.2-2.3v-4.1h4.5v4.1c0 1.3-1 2.3-2.3 2.3Z"/>
  <path fill="#68333c" d="M301 224.8v-4h4v.1a4 4 0 0 1-4 4Z"/>
  <path fill="#8c4d50" d="m307.8 216-.1 1.2v.1c-.1 1 0 1.9-.3 2.7a5.8 5.8 0 0 1-3.4 3.7l-1 .2h-.5a5.2 5.2 0 0 1-3.9-3.6c-.2-1-.2-2-.2-2.9l-.1-.6v-.7c0-2.5 2-4.6 4.7-4.6s4.8 2 4.8 4.6Z"/>
  <path fill="#1b1b1b" d="M307.7 217.3c-.1 1 0 1.9-.3 2.7a5.8 5.8 0 0 1-3.4 3.7l-1 .2h-.5a5.2 5.2 0 0 1-3.9-3.6c-.2-1-.2-2-.2-2.9l.1.5c.4.9.8 1.8 1.3 2.5l1-.2h4.6c.7-.7 1.3-1.4 1.8-2.2l.5-.7Z"/>
  <circle cx="307.7" cy="218.5" r="1.4" fill="#8c4d50"/>
  <g fill="none" stroke="#622b38" stroke-miterlimit="10" stroke-width=".5">
    <path d="M308.2 218.4c-.4 0-.7.2-1 .5"/>
    <path d="M307.4 217.7c.3.1.6.3.7.6.2.2.2.6 0 .8"/>
  </g>
  <g fill="#1b1b1b">
    <path d="m307.8 216-.1 1.2v.1c-.3 0-.4-.3-.6-.5-.3-.5-.4-1.1-.5-1.7-.2-.6-.4-1.2-1-1.5-.9-.6-2.1 0-3.3-.1-.6-.1-1.3-.6-2-.4-.6.2-.9.7-1.1 1.2l-1 2v-.2c0-2.5 2.2-4.6 4.8-4.6s4.8 2 4.8 4.6Z"/>
    <path d="M302.9 214.2h-2.5a2 2 0 0 1 0-4h2.5a2 2 0 0 1 2 2c0 1-.9 2-2 2Z"/>
  </g>
  <path fill="#622b38" d="M303.7 221.2H301c0-.3.8-.5 1.3-.5s1.3.2 1.3.5Z"/>
  <path fill="#68333c" d="M303.7 221.2c0 .3-.8.6-1.3.6s-1.3-.3-1.3-.6"/>
  <path fill="#1b1b1b" d="M303.6 216.4c.2-.6.8-.9 1.4-.9.2 0 .5.1.7.3.3.1.4.4.5.6h-2.6Zm-4.7 0c.2-.6.7-.9 1.3-.9.3 0 .5.1.8.3l.5.6h-2.6Z"/>
  <path fill="#68333c" d="M303.1 217.8s.6-1 1.3-1.1c.8 0 1.5 1 1.5 1s-.6.6-1.4.7c-.8 0-1.4-.6-1.4-.6Z"/>
  <path fill="#fcfcfc" d="M303.1 217.8s.7.6 1.4.6c.8 0 1.4-.7 1.4-.7s-.7-.5-1.4-.5a2 2 0 0 0-1.1.4l-.3.2Z"/>
  <path fill="#af762b" d="M303.4 217.7c0 .3.4.5.7.4a.6.6 0 0 0 .3-.9 2 2 0 0 0-1 .4v.1Z"/>
  <path fill="none" stroke="#622b38" stroke-miterlimit="10" stroke-width=".5" d="m303 217.4.6-.5"/>
  <path fill="#1b1b1b" d="M303.6 217.5c0-.2.2-.3.3-.3s.4.1.4.3-.2.4-.4.4-.3-.2-.3-.4Z"/>
  <path fill="#071321" d="m305.9 217.8-.7-.3a2 2 0 0 0-.7-.2 2 2 0 0 0-.7.2l-.7.3.6-.5c.2-.2.5-.3.8-.3.2 0 .5 0 .8.2l.6.5"/>
  <path fill="#68333c" d="M301.2 217.8s-.5-1-1.2-1c-.7-.1-1.3 1-1.3 1s.6.5 1.3.6c.7 0 1.2-.6 1.2-.6Z"/>
  <path fill="#fcfcfc" d="M301.2 217.8s-.5.6-1.2.6-1.2-.7-1.2-.7.5-.5 1.2-.5c.4 0 .8.2 1 .4l.2.2Z"/>
  <path fill="none" stroke="#622b38" stroke-miterlimit="10" stroke-width=".5" d="m301.3 217.4-.5-.5"/>
  <path fill="#af762b" d="M299 217.7c0 .3.4.5.7.4a.6.6 0 0 0 .3-.9 2 2 0 0 0-1 .4v.1Z"/>
  <circle cx="299.5" cy="217.5" r=".3" fill="#1b1b1b"/>
  <path fill="#071321" d="M298.8 217.7h-.1l.6-.5.7-.2c.3 0 .5.2.7.3.3.1.4.3.6.5a4 4 0 0 0-1-.4h-.9l-.6.4"/>
  <path fill="none" stroke="#622b38" stroke-miterlimit="10" stroke-width=".5" d="M302.2 220c-.5 0-.9-.3-.9-.8s.4-.8.9-.8V217"/>
  <path fill="#fff" d="M302.8 216.2h3.8v1.8c0 .7-.6 1.3-1.3 1.3H304c-.7 0-1.3-.6-1.3-1.3v-1.8Z" opacity=".3"/>
  <g opacity=".5">
    <g fill="#fff" clip-path="url(#i)" opacity=".3">
      <path d="m304.6 215.1.4.3-2.5 3.8-.4-.3zm.7.4.4.3-2.4 3.8-.5-.3zm.7.5.4.3-2.5 3.8-.4-.3zm.7.4.4.3-2.4 3.8-.5-.3z"/>
    </g>
  </g>
  <path fill="none" stroke="#f1b152" stroke-miterlimit="10" stroke-width=".8" d="M302.8 216.2h3.8v1.8c0 .7-.6 1.3-1.3 1.3H304c-.7 0-1.3-.6-1.3-1.3v-1.8Z"/>
  <path fill="#f1b152" d="M306.6 217h.5v.9h-.5z"/>
  <path fill="#fff" d="M300.2 219.3H299c-.7 0-1.3-.6-1.3-1.3v-1.8h3.8v1.8c0 .7-.6 1.3-1.3 1.3Z" opacity=".3"/>
  <g opacity=".5">
    <g fill="#fff" clip-path="url(#j)" opacity=".3">
      <path d="m299.7 215.1.4.3-2.5 3.8-.4-.3zm.7.4.4.3-2.5 3.8-.4-.3zm.6.5.5.3-2.5 3.8-.4-.3zm.8.4.4.3-2.5 3.8-.4-.3z"/>
    </g>
  </g>
  <path fill="none" stroke="#f1b152" stroke-miterlimit="10" stroke-width=".8" d="M300.2 219.3H299c-.7 0-1.3-.6-1.3-1.3v-1.8h3.8v1.8c0 .7-.6 1.3-1.3 1.3Z"/>
  <path fill="#f1b152" d="M297.7 217.8h-.5v-.9h.5z"/>
  <path fill="none" stroke="#f1b152" stroke-miterlimit="10" stroke-width=".8" d="M301.6 216.7h1.3m-1.3.5h1.3"/>
  <path fill="#5f6bcd" d="m307 251.2-.9.2c-1.5-7-1.5-14.5-.2-21.5v-.2c.3-1 .4-2 .4-2.8 0-.8-.3-1.5-.7-2v-1.2a4 4 0 0 1 1.6 3.1c0 1-.2 2-.4 3v.3a53 53 0 0 0 .2 21Zm-5.9-26.3a3 3 0 0 0-1.4 1.6c-.4.9-.4 1.9-.5 2.8l-1 15.3h-1l1.1-15.3c0-1 .2-2.1.6-3.2.4-1 1.3-1.8 2.2-2.1v.9Z"/>
  <path fill="#8c4d50" d="M311.2 247.3a2 2 0 1 0-3.7 1.7 2 2 0 1 0 3.7-1.7Z"/>
  <path fill="#8c4d50" d="M310.4 246a.7.7 0 0 0-1-.4c-.3.2-.4.6-.3 1 .2.3.6.5 1 .3.3-.2.5-.6.3-1Z"/>
  <path fill="#8c4d50" d="m310.2 250.1 2.7-1.4-1.4-2.7-1.7-.4.4 4.5z"/>
  <path fill="#8c4d50" d="m306.1 251 1.5-.8 1.9-1.4c.2-.1.5 0 .6.1.2.3.2.6 0 .7l-1.7 1.3h-.1l-1.7 1c-.2.1-.5 0-.6-.2-.1-.2 0-.5.1-.6Z"/>
  <path fill="none" stroke="#622b38" stroke-miterlimit="10" stroke-width=".5" d="m309.4 250-1 .9h-.1l-1.7 1c-.2.1-.5 0-.6-.2-.1-.2 0-.5.1-.6l1.5-.9.6-.5"/>
  <path fill="#8c4d50" d="m304.4 249.6 1.5-1.7.2-.1 2.3-.4c.2 0 .5.1.5.4 0 .2-.1.5-.3.5l-2.2.4-1.3 1.6c-.2.1-.5.2-.7 0a.5.5 0 0 1 0-.7Z"/>
  <path fill="none" stroke="#622b38" stroke-miterlimit="10" stroke-width=".5" d="m307.6 248.5-1.1.2-1.4 1.6c-.2.1-.5.2-.7 0a.5.5 0 0 1 0-.7l1.5-1.7.2-.1 1.5-.3"/>
  <path fill="#8c4d50" d="m304.7 250.3.7-.5.6-.5.6-.5h.7l1.1-.3h.5c.2 0 .4 0 .5.3 0 .3-.1.6-.4.6l-2 .3-1.8 1.3c-.2.2-.5.1-.6 0v-.1a.4.4 0 0 1 0-.7Z"/>
  <path fill="none" stroke="#622b38" stroke-miterlimit="10" stroke-width=".5" d="m308 249.6-1 .1-1.8 1.3c-.2.2-.5.1-.6 0v-.1a.4.4 0 0 1 0-.7l.8-.4.6-.5.6-.5h.7l.4-.2"/>
  <path fill="#8c4d50" d="m304.2 247.8 2-1.4h.1s.1-.1.2 0h2.3c.3 0 .5.2.4.5 0 .3-.2.5-.4.5l-2.2-.1-1.8 1.3c-.2.1-.5 0-.6-.1a.5.5 0 0 1 0-.7Z"/>
  <path fill="none" stroke="#622b38" stroke-miterlimit="10" stroke-width=".5" d="M307.7 247.3h-1.1l-1.8 1.3c-.2.1-.5 0-.6-.1a.5.5 0 0 1 0-.7l2-1.4h2.1"/>
  <path fill="#8c4d50" d="m307.6 245.8 1.8.8c.3.1.6 0 .8-.3 0-.2 0-.6-.3-.7l-1.8-.8a.6.6 0 0 0-.8.2c-.1.3 0 .6.3.8Z"/>
  <path fill="none" stroke="#622b38" stroke-miterlimit="10" stroke-width=".5" d="m309.9 245.6-1.8-.8a.6.6 0 0 0-.8.2c0 .3 0 .6.3.8l1 .4"/>
  <path fill="#0d183d" d="m322.4 242.9-9.4 6.4-2.7-3.8 9-7.2a2.8 2.8 0 1 1 3.1 4.6Z"/>
  <path fill="#0d183d" d="M322.6 242.6c1.2-1 1.3-2.8.3-4L312.5 227a2.8 2.8 0 0 0-4.2 3.8l10.4 11.6a3 3 0 0 0 4 .2Z"/>
  <path fill="#b56815" d="M318 273.8c.3-.5 1-.5 1.5-.3l1.4.9c1 .4 2.1 0 3.2 0a12 12 0 0 1 4.5.8c-.4-1.3-1-2.6-1.8-3.8s-2-2-3.4-2.4-3-.1-4 1c-.9 1-1.7 2.4-1.4 3.8Z"/>
  <path fill="#d88c27" d="M328.7 275.3c0-.4-1.2-1-1.6-1.1l-.6-.3a3 3 0 0 0-1.3-.4c-.3 0-.4.1-.5.3-.2.2-.2.5-.3.7v.3l-.3.1c-.6.2-1.2 0-1.7-.3-.7-.4-1.3-1.2-2-1.7l-.5-.1c-.2-.2-.6-.2-1 0-.5 0-.9.5-.9 1a9.9 9.9 0 0 1-1.6-5l-2-18c-.2-1.2-.3-2.6-.9-3.8a5.3 5.3 0 0 0-2.4-2.4c.7-1.7 3.2-3.2 5-2.8 1.9.3 3 2.2 3.8 4 4.4 9.3 6.6 19.4 8.8 29.5Z"/>
  <path fill="#cc7e1f" d="M326.5 273.9a3 3 0 0 0-1.3-.4c-.3 0-.4.1-.6.3l-.8-2.4c-.8-2.6-1.6-5.2-1.5-8a79.2 79.2 0 0 0 4.2 10.5Zm-6.2-.9-.4-.2c-.2-.2-.6-.2-1 0l-.3-2c-.3-2-.7-4-.3-5.9a52.5 52.5 0 0 0 2 8Z"/>
  <path fill="#70343a" d="M282.3 277h-23.5l.7-19.5v-.8h22v.8l.8 19.5Z"/>
  <path fill="url(#k)" d="M297 303c0 1.3-7.8 2.3-17.4 2.3s-17.5-1-17.5-2.3 7.8-2.3 17.5-2.3 17.5 1 17.5 2.3Z"/>
  <g fill="#2c2c2b">
    <path d="M269.9 230.5h1.3v72.1h-1.3z"/>
    <path d="M277.8 302.6H263a5 5 0 0 1 5-5.1h4.6a5 5 0 0 1 5 5Z"/>
  </g>
  <path fill="#ffcfa4" d="m282.2 231.3-1.6 4-.9 2-.2.7-1 2.4v.4l-1.8 4.4-.5 1.5c2.5 1.8 4.2 5.1 4.2 8.5V268h-3.6v-12.8c0-3.4-1.6-6.6-4.1-8.5l.5-1.5 1.7-4.4.1-.4 1-2.4.2-.8.9-2 1.6-4c1-2.2-.7-4.8-3.2-4.8h-2.3a3 3 0 0 1-3-2.9v-2.1h3.5v2.1a3 3 0 0 0 3 3h2.3c2.5 0 4.2 2.5 3.2 4.7Z"/>
  <path fill="#ffe6ca" d="m278.7 231.3-1.6 4-.9 2-.3.7-.9 2.4v.4l-1.8 4.4-.5 1.5c2.5 1.8 4.2 5.1 4.2 8.5V268h-17.2l.2-12.8a10 10 0 0 1 4.6-8.6l-.5-1.4-1.6-4.5-.2-.4-.8-2.3-.4-.9-.6-1.7-1.6-4.3c-1-2.2.8-4.7 3.2-4.7h2.3a3 3 0 0 0 3-2.9v-2.2h2.9v2.2a3 3 0 0 0 3 3h2.3c2.5 0 4.1 2.4 3.2 4.7Z"/>
  <path fill="#2c2c2b" d="M271 219.4v-1.6a1.2 1.2 0 0 0-.5-2.3 1.2 1.2 0 0 0-.4 2.3v1.6h-2.8v2h6.4v-2H271Z"/>
  <path fill="#70343a" d="M282.5 225.9c.7.8 1 2 1.4 3 2.9 10 3.3 21.7 6 31.7a25 25 0 0 1-7.4 1.7c-.2-6.1-1-12.3-2.4-18.3-.7-3.2-1.6-6.4-2-9.6a21 21 0 0 1 .4-7.5c.2-.8.4-2 1.3-2.2 1-.3 2.1.5 2.7 1.2Z"/>
  <path fill="none" stroke="#d88c27" stroke-miterlimit="10" stroke-width=".9" d="m280 225.1 1 .8c.7 1 1 2 1.4 3.2 2.9 10 3.4 21.9 6 32.1"/>
  <path fill="#70343a" d="M258.5 225.9c-.7.8-1 2-1.4 3-2.8 10-3.3 21.7-6 31.7a25 25 0 0 0 7.4 1.7c.3-6.1 1-12.3 2.4-18.3.8-3.2 1.7-6.4 2-9.6.3-2.5.3-5-.4-7.5-.2-.8-.3-2-1.2-2.2-1-.3-2.2.5-2.8 1.2Z"/>
  <path fill="none" stroke="#d88c27" stroke-miterlimit="10" stroke-width=".9" d="m261 225.1-1 .8c-.7 1-1 2-1.4 3.2-2.9 10-3.5 21.9-6 32.1"/>
  <path fill="none" stroke="#1b1b1b" stroke-miterlimit="10" stroke-width=".2" d="M253.2 256.6H251"/>
  <path fill="#db707e" d="m251 256.8-.2-.2c0-.1 0-.2.2-.2s.2 0 .2.2-.1.2-.2.2Z"/>
  <path fill="none" stroke="#1b1b1b" stroke-miterlimit="10" stroke-width=".2" d="M252.2 258.6H250"/>
  <path fill="#db707e" d="M250 258.8s-.2 0-.2-.2.1-.2.2-.2l.3.2c0 .2-.2.2-.3.2Z"/>
  <path fill="#8c4d50" d="M267.1 224.7V277h-8.8l.8-19.5v-.8c.4-3.9 1.7-7.7 3.9-11l-4.7-13.3v-4.7a3 3 0 0 1 3.1-3h5.7Zm15.4 7.7-4.5 13.3c2.1 3.3 3.4 7 3.7 11v.8l.8 19.5H274v-52.3h5.6a3 3 0 0 1 3 3v4.7Z"/>
  <path fill="#70343a" d="M280.2 228.2a9 9 0 0 0-3.8 3.7c1 .7 1.8 1.7 2.4 2.8-2 1.4-4 3.4-4.8 5.7l-.2-18 2.4 1.4c1.6 1.2 3 2.7 4 4.4Z"/>
  <path fill="none" stroke="#d88c27" stroke-miterlimit="10" stroke-width=".9" d="m273.9 223.3.9.5c1.6 1.2 3 2.7 4 4.4a9 9 0 0 0-3.9 3.7c1 .7 1.9 1.7 2.4 2.8a14 14 0 0 0-3.2 3"/>
  <path fill="#70343a" d="M261 228.2a9 9 0 0 1 3.8 3.7c-1 .7-1.9 1.7-2.4 2.8 2 1.4 3.9 3.4 4.7 5.7l.2-18-2.4 1.4c-1.6 1.2-3 2.7-4 4.4Z"/>
  <path fill="none" stroke="#d88c27" stroke-miterlimit="10" stroke-width=".9" d="m267.2 223.3-.9.5c-1.6 1.2-3 2.7-4 4.4 1.6.8 3 2.1 3.9 3.7-1 .7-1.9 1.7-2.4 2.8a14 14 0 0 1 3.2 3"/>
  <g fill="#d88c27">
    <circle cx="276.1" cy="249.7" r=".7"/>
    <circle cx="276.1" cy="254.4" r=".7"/>
    <circle cx="276.1" cy="259.1" r=".7"/>
  </g>
  <g fill="none" stroke-miterlimit="10">
    <g stroke="#f1b152" stroke-width="3.6">
      <path d="M262.9 245.9c1.9.2 3.8.3 5.7.2.4 0 .8 0 1.2-.3.3-.3.3-.9 0-1.1-.3-.2-.7 0-.8.3a1 1 0 0 0 0 .9c.2.5.8 1 1.4 1 .7 0 1.3-.5 1.5-1 .2-.4 0-1-.3-1.1-.3-.1-.6 0-.8.3a39 39 0 0 0 1.5 16.7"/>
      <path d="m278.2 245.9-4-.1c-.6 0-1.3 0-2 .2s-1.6.2-1.7.8m-.1.4c-1.4 3-2.1 6.2-2.1 9.4"/>
    </g>
    <path stroke="#70343a" stroke-width="3.2" d="M275.4 244.6v2.8m2-2.8v2.8m-13.5-2.8v2.8m2-2.8v2.8"/>
  </g>
  <path fill="#b2670d" d="M278.6 213.8v.9c-.3.8-1.3 1.9-2.7 3a31 31 0 0 1-4.8 3.3l-.4.2a24.8 24.8 0 0 1-7.2 2.8h-2a1 1 0 0 1-.5-.5c-.3-.6.2-1.5 1.4-2.7a33 33 0 0 1 13.6-7.4c1.3-.3 2.3-.1 2.6.4Z"/>
  <path fill="#f1b152" d="M278.4 213.5v.9a7 7 0 0 1-2.7 3 20.2 20.2 0 0 1-4.8 3.3l-.4.2a24.8 24.8 0 0 1-7.2 2.8h-2a1 1 0 0 1-.5-.4c-.3-.6.2-1.6 1.4-2.8a33 33 0 0 1 13.6-7.4c1.3-.2 2.3-.1 2.6.4Z"/>
  <path fill="#d88c27" d="M278.4 213.5v.9a7 7 0 0 1-2.7 3 20.2 20.2 0 0 1-4.8 3.3l-.4.2a24.8 24.8 0 0 1-7.2 2.8 4.2 4.2 0 0 1-2 0c3.7-.5 7.3-2.3 10.2-4.8 2-1.7 3.6-3.7 5-5.9 1-.1 1.7 0 1.9.5Z"/>
  <path fill="#476042" d="m271.7 211.4 1.9 3.3c-.3.9-2 2.4-4.2 3.7-2.6 1.5-5.1 2-5.7 1.4v-.4l-.3-2.1-.1-1.5c0-.4 0-.8.4-1.1l.6-.6a18.4 18.4 0 0 1 6.3-3.2c.4-.1.9 0 1.1.5Z"/>
  <path fill="#f1b152" d="m271.7 211.4 1.9 3.3c-.3.9-2 2.4-4.2 3.7-2.6 1.5-5.1 2-5.7 1.4v-.4l-.3-2.1-.1-1.5c0-.4 0-.8.4-1.1l.6-.6a18.4 18.4 0 0 1 6.3-3.2c.4-.1.9 0 1.1.5Z"/>
  <path fill="#d88c27" d="m271.9 211.6 1.7 3c-.3 1-2 2.5-4.2 3.8-2.6 1.5-5.1 2-5.7 1.4v-.4a12 12 0 0 0 8.1-7.8Zm-.9.1c.2.3-1.2 1.6-3.2 2.7-2 1-3.7 1.6-4 1.3a14 14 0 0 0 3.1-1.4c2-1 3.5-2.3 3.3-2.7.4-.1.7-.1.8 0Z"/>
  <path fill="#d88c27" d="M264.2 215c.3.3 2-.3 4-1.4 1.3-.7 2.3-1.4 2.8-2-.2-.4-2 .2-4 1.3a13.9 13.9 0 0 0-2.8 2Z"/>
  <path fill="#b2670d" d="M263.8 215.7c.2.3 2-.2 4-1.3s3.3-2.3 3.2-2.7c-.5.5-1.5 1.2-2.8 2-2 1-3.7 1.6-4 1.2-.3.3-.5.6-.4.8Z"/>
  <path fill="#70343a" d="M263.6 219.7c.6.1 1-.3 1.3-.6a36.6 36.6 0 0 1 7.4-4c.5-.3 1-.4 1.2-1 .3.2.4.7.4 1-.2 2.2-2 3.9-3.6 4.9-1.8 1-4.2 1.5-6 .5-.4-.2-.7-.5-.7-.8Z"/>
  <path fill="#8c4d50" d="M277 218.2a1.3 1.3 0 1 1-1.2 2.2 1.3 1.3 0 0 1 1.1-2.3Z"/>
  <path fill="#8c4d50" d="m276.1 219-.6-2c-.2-.4 0-.8.4-.9.3 0 .7 0 .8.4l.7 2c0 .3-.1.7-.4.8-.4.1-.8 0-.9-.4Z"/>
  <path fill="none" stroke="#622b38" stroke-miterlimit="10" stroke-width=".4" d="m275.8 217.9.1.5c-.3.2-.5.6-.6 1v.5c.1.3.4.5.7.7"/>
  <path fill="none" stroke="#1b1b1b" stroke-miterlimit="10" stroke-width=".2" d="m273.1 214.2 1.6-1.6"/>
  <path fill="#db707e" d="M274.5 212.5h.3v.3h-.3v-.3Z"/>
  <path fill="none" stroke="#1b1b1b" stroke-miterlimit="10" stroke-width=".2" d="m272.8 213.9.2-2.1"/>
  <path fill="#db707e" d="m272.8 211.7.2-.2.2.3-.2.2a.2.2 0 0 1-.2-.3Z"/>
  <ellipse cx="290.9" cy="307.7" fill="url(#l)" rx="12.5" ry="1.7"/>
  <path fill="#d38d54" d="M280.2 274v3.1h4.7l-2.5 14-.4 2.4-.8 4.6-1.7 9.2a1 1 0 0 0 2 .3l1.8-9.5.8-4.6h9l-.4-2.3h-8.2l2.5-13.8v-.2h7.9V274h-14.7Z"/>
  <path fill="#b5713e" d="M294.9 274h3v3.1h-3zm2.9 34.5a1 1 0 0 1-1.2-.9l-1.7-9.5-.9-4.6h-.9l-.4-2.3h1l-2.5-13.8v-.2h2l3.8 21 1.6 9a1 1 0 0 1-.8 1.3Z"/>
  <path fill="#d88c27" d="M286 263.3h.8v7.5c0 .2-.1.3-.3.3h-.2a.3.3 0 0 1-.3-.3v-7.6Z"/>
  <path fill="#202559" d="m286.4 262.6.2.3.2.4h-.8l.2-.4.2-.3z"/>
  <path fill="none" stroke="#2a2728" stroke-miterlimit="10" stroke-width=".4" d="M286.4 263.3v5"/>
  <path fill="#fff" d="M284.6 263.3h.8v7.6c0 .1 0 .3-.2.3h-.3a.3.3 0 0 1-.3-.3v-7.6Z"/>
  <path fill="#202559" d="m285 262.7.2.3.2.4h-.7l.1-.4.2-.3z"/>
  <path fill="none" stroke="#2a2728" stroke-miterlimit="10" stroke-width=".4" d="M285 263.3v5"/>
  <path fill="#db707e" d="M287.9 263.2h.7l-.5 7.6c0 .2-.2.3-.3.3h-.3a.3.3 0 0 1-.2-.3l.6-7.6Z"/>
  <path fill="#202559" d="m288.3 262.6.2.4.1.3h-.7l.2-.4.2-.3z"/>
  <path fill="none" stroke="#2a2728" stroke-miterlimit="10" stroke-width=".4" d="m288.3 263.3-.4 5"/>
  <path fill="#edc5d6" d="m283.4 263.4.8-.1 1.3 7.4c0 .2 0 .3-.2.4h-.3c-.1 0-.3 0-.3-.2l-1.3-7.5Z"/>
  <path fill="#202559" d="m283.7 262.7.2.3.3.3-.4.1-.4.1.1-.4.2-.4z"/>
  <path fill="none" stroke="#2a2728" stroke-miterlimit="10" stroke-width=".4" d="m283.8 263.4.9 5"/>
  <path fill="#7bb3b4" d="M287.1 263h.8l-.7 7.5c0 .2-.1.3-.3.3h-.2a.3.3 0 0 1-.3-.4l.7-7.5Z"/>
  <path fill="#202559" d="m287.6 262.3.2.4.1.3h-.4l-.3-.1.2-.3.2-.3z"/>
  <path fill="none" stroke="#2a2728" stroke-miterlimit="10" stroke-width=".4" d="m287.5 263-.4 5"/>
  <path fill="#4b5ab2" d="m288.9 267.1-.3 6.9H284l-.4-6.9h5.3z"/>
  <path fill="#5f6bcd" d="m286.9 267.1-.4 6.9H284l-.4-6.9h3.3z"/>
  <path fill="#7a7a7a" d="m294.7 261.7-.2 1.5-.5 3.4-.3 2.2h.8l.3-2.4c.3-.1.5-.4.5-.8l.4-2.6c0-.6-.4-1.2-1-1.3Z"/>
  <path fill="#bababa" d="m292.6 262.3 1.1 1 2.5 2.4 1.6 1.5-.5.6-1.8-1.7a2 2 0 0 1-1-.3l-1.9-1.8c-.4-.5-.5-1.2 0-1.7Z"/>
  <path fill="#fff" d="M295 265.6v-.3c-.2 0-.3 0-.3.2l.1.2.3-.1Z"/>
  <path fill="#d88c27" d="M296.2 268.1c0 .8.5 1.5 1.3 1.6.8.1 1.5-.4 1.6-1.2 0-.8-.5-1.5-1.3-1.6-.7-.1-1.5.4-1.6 1.2Zm.8.1c0-.3.4-.6.7-.6.4 0 .7.4.6.8 0 .3-.4.6-.7.6a.7.7 0 0 1-.6-.8Zm-4 1.2c0 .7.5 1.5 1.3 1.6a1.5 1.5 0 1 0 .3-2.9c-.8-.1-1.5.5-1.6 1.2Zm.8 0c0-.3.4-.6.7-.5.4 0 .7.4.6.7 0 .4-.4.6-.7.6a.7.7 0 0 1-.6-.7Z"/>
  <path fill="#4b5ab2" d="m296.4 267.1-.3 6.9h-4.6l-.3-6.9h5.2z"/>
  <path fill="#5f6bcd" d="m294.7 267.1-.3 6.9h-2.9l-.3-6.9h3.5z"/>
  <path fill="#cc5e71" d="M285 270.9h1.7v2.7H285z"/>
  <path fill="#db707e" d="M285 270.9h1.2v2.7H285z"/>
  <g clip-path="url(#m)">
    <path fill="none" stroke="#b24b5d" stroke-miterlimit="10" stroke-width=".5" d="M284.8 271c.7.4 1.6.5 2.4.3-.3.3-.7.5-1.1.5h-1.4l1.4.4c.3 0 .7 0 1-.2a3 3 0 0 1-2.5.7l.6.1.9.1c.3 0 .6 0 .9-.2-.7.5-1.6.7-2.5.5"/>
  </g>
  <path fill="#fff" d="M284.7 273.5h2.2v.5h-2.2zm0-2.8h2.2v.5h-2.2z"/>
  <path fill="#cc5e71" d="M282.6 270.9h1.7v2.7h-1.7z"/>
  <path fill="#db707e" d="M282.6 270.9h1.2v2.7h-1.2z"/>
  <g clip-path="url(#n)">
    <path fill="none" stroke="#b24b5d" stroke-miterlimit="10" stroke-width=".5" d="M282.4 271c.8.4 1.7.5 2.5.3l-1.2.6-1.4-.1c.5.2 1 .4 1.4.4.3 0 .7 0 1-.2a3 3 0 0 1-2.4.7l.5.2h1c.2 0 .5 0 .8-.2-.7.5-1.6.7-2.4.6"/>
  </g>
  <path fill="#fff" d="M282.4 273.5h2.2v.5h-2.2zm0-2.7h2.2v.5h-2.2z"/>
  <path fill="#ffe6ca" d="M293 273v1h-5.7v-1a2.9 2.9 0 0 1 2.8-2.8 2.9 2.9 0 0 1 3 2.9Z"/>
  <path fill="#fff" d="M292 273v1h-4.7v-1a3 3 0 0 1 2.3-2.8c.6.2 1.1.4 1.5.8.6.6.9 1.3.9 2Z"/>
  <path fill="none" stroke="#1b1b1b" stroke-miterlimit="10" stroke-width=".2" d="M290.1 271.8v-2.3"/>
  <path fill="#db707e" d="m289.8 269.5.2-.2c.2 0 .3.1.3.2l-.2.3c-.2 0-.3-.1-.3-.3Z"/>
  <path fill="none" stroke="#1b1b1b" stroke-miterlimit="10" stroke-width=".2" d="m290.4 271.5.6-2.1"/>
  <path fill="#d88c27" d="M290.7 269.3c0-.1.2-.2.3-.1l.2.2-.3.2-.2-.3Z"/>
  <path fill="none" stroke="#1b1b1b" stroke-miterlimit="10" stroke-width=".2" d="m289.2 272.1-2.2.4"/>
  <path fill="#d88c27" d="m287 272.7-.2-.1c0-.2 0-.3.2-.3 0 0 .2 0 .2.2l-.1.2Z"/>
  <path fill="none" stroke="#1b1b1b" stroke-miterlimit="10" stroke-width=".2" d="m292.2 273 1.4-1.6"/>
  <path fill="#d88c27" d="M293.5 271.2h.3v.3h-.3v-.3Z"/>
  <path fill="none" stroke="#1b1b1b" stroke-miterlimit="10" stroke-width=".2" d="m291.3 271.9.7-2.1"/>
  <path fill="#d88c27" d="m291.8 269.7.2-.1c.2 0 .2.2.2.3 0 0-.2.2-.3.1a.2.2 0 0 1-.1-.3Z"/>
  <path fill="none" stroke="#1b1b1b" stroke-miterlimit="10" stroke-width=".2" d="m289.9 271.4-1.9-1.2"/>
  <path fill="#d88c27" d="M287.9 270.4a.2.2 0 1 1 .2-.4.2.2 0 0 1-.2.4Z"/>
  <path fill="none" stroke="#1b1b1b" stroke-miterlimit="10" stroke-width=".2" d="m290.6 271.6.9-2"/>
  <path fill="#db707e" d="M291.3 269.5h.3c.1 0 .2.1.1.2 0 .2-.2.2-.3.1a.2.2 0 0 1 0-.3Z"/>
  <path fill="none" stroke="#1b1b1b" stroke-miterlimit="10" stroke-width=".2" d="m289.8 271.8-1.1-1.9"/>
  <path fill="#db707e" d="M288.5 270v-.2c.2-.1.3 0 .4 0l-.1.3h-.3Z"/>
  <path fill="none" stroke="#1b1b1b" stroke-miterlimit="10" stroke-width=".2" d="m289.4 272.1-1.9-1.1"/>
  <path fill="#db707e" d="M287.3 271.2a.2.2 0 0 1 0-.3c0-.1.2-.2.3-.1v.3h-.3Z"/>
  <path fill="none" stroke="#1b1b1b" stroke-miterlimit="10" stroke-width=".2" d="m289.1 272.8-2.2-.6"/>
  <path fill="#db707e" d="M286.9 272.4a.2.2 0 0 1-.2-.3c0-.1.2-.2.3-.1.1 0 .2.1.2.3s-.2.1-.3.1Z"/>
  <path fill="none" stroke="#1b1b1b" stroke-miterlimit="10" stroke-width=".2" d="m291.6 272.5 1-2"/>
  <path fill="#db707e" d="M292.4 270.4h.3s.1.1 0 .2c0 .1-.1.2-.2.1a.2.2 0 0 1-.1-.3Z"/>
  <path fill="url(#o)" d="M64.6 334.9H0v-64.6l64.6 64.6z"/>
  <path fill="#08060a" d="m243.4-.1-9.3 9.3h-2.4L241-.1h2.4zm5.1 0-9.3 9.3h-2.5l9.4-9.3h2.4zm5.1 0-9.3 9.3h-2.5l9.4-9.3h2.4zm5.1 0-9.3 9.3h-2.5l9.4-9.3h2.4zm5.1 0-9.4 9.3H252l9.3-9.3h2.5zm5.1 0-9.4 9.3h-2.4l9.3-9.3h2.5zm5.1 0-9.4 9.3h-2.4l9.3-9.3h2.5zm5 0-9.3 9.3h-2.4l9.3-9.3h2.4zm5.1 0-9.3 9.3h-2.4l9.3-9.3h2.4zm5.1 0-9.3 9.3h-2.5l9.4-9.3h2.4zm5.1 0L285 9.2h-2.5l9.4-9.3h2.4zm5.1 0L290 9.2h-2.4L297-.1h2.4zm5.1 0-9.4 9.3h-2.4L302-.1h2.5zm5.1 0-9.4 9.3h-2.4l9.3-9.3h2.5zm5 0-9.3 9.3h-2.4l9.3-9.3h2.4zm5.1 0-9.3 9.3H308l9.3-9.3h2.4zm5.1 0-9.3 9.3h-2.4l9.3-9.3h2.4zm5.1 0-9.3 9.3h-2.5l9.4-9.3h2.4zm5.1 0-9.3 9.3h-2.5l9.4-9.3h2.4zM127.6 325.5l-9.3 9.4h-2.5l9.4-9.4h2.4zm5.1 0-9.3 9.4h-2.5l9.4-9.4h2.4zm5.1 0-9.4 9.4H126l9.4-9.4h2.4zm5.1 0-9.4 9.4h-2.4l9.3-9.4h2.5zm5.1 0-9.4 9.4h-2.4l9.3-9.4h2.5zm5 0-9.3 9.4h-2.4l9.3-9.4h2.4zm5.1 0-9.3 9.4h-2.4l9.3-9.4h2.4zm5.1 0-9.3 9.4h-2.5l9.4-9.4h2.4zm5.1 0-9.3 9.4h-2.5l9.4-9.4h2.4zm5.1 0-9.4 9.4h-2.4l9.4-9.4h2.4zm5.1 0-9.4 9.4h-2.4l9.3-9.4h2.5zm5.1 0-9.4 9.4h-2.4l9.3-9.4h2.5zm5 0-9.3 9.4h-2.4l9.3-9.4h2.4zm5.1 0-9.3 9.4H182l9.3-9.4h2.4zm5.1 0-9.3 9.4h-2.4l9.3-9.4h2.4zm5.1 0-9.3 9.4h-2.5l9.4-9.4h2.4zm5.1 0-9.3 9.4h-2.5l9.4-9.4h2.4zm5.1 0-9.4 9.4h-2.4l9.4-9.4h2.4zm5.1 0-9.4 9.4h-2.4l9.3-9.4h2.5zM2 278.2l-2 2v-2.4l.8-.8 1.2 1.2zm2.6 2.5L0 285.3v-2.4l3.4-3.4 1.2 1.2zm2.5 2.6L0 290.4V288l5.9-5.9 1.2 1.2zm2.6 2.5L0 295.5v-2.4l8.5-8.5 1.2 1.2zm2.5 2.6L0 300.6v-2.4l11-11 1.2 1.2zm2.6 2.5L0 305.7v-2.5l13.5-13.5 1.3 1.2zm2.5 2.6L0 310.8v-2.5l16.1-16.1 1.2 1.3zm2.5 2.5L0 315.8v-2.4l18.6-18.6 1.2 1.2zm2.6 2.5L0 320.9v-2.4l21.2-21.2 1.2 1.2zm2.5 2.6L0 326v-2.4l23.7-23.7 1.2 1.2zm2.6 2.5L0 331.1v-2.4l26.3-26.3 1.2 1.2zm2.5 2.6L1.3 334.9H0v-1.1L28.8 305l1.2 1.2zm2.6 2.5L6.4 334.9H4l27.3-27.4 1.3 1.2zm2.5 2.6-23.6 23.6H9.1L33.9 310l1.2 1.3zm2.6 2.5-21.1 21.1h-2.5l22.3-22.3 1.3 1.2zm2.5 2.5-18.5 18.6h-2.5L39 315.1l1.2 1.2zm2.5 2.6-16 16h-2.4l17.2-17.2 1.2 1.2zm2.6 2.5-13.5 13.5h-2.4l14.7-14.7 1.2 1.2zm2.5 2.6-10.9 10.9h-2.4l12.1-12.1 1.2 1.2zm2.6 2.5-8.4 8.4h-2.4l9.6-9.6 1.2 1.2zm2.5 2.6-5.8 5.8h-2.4l7-7.1 1.2 1.3zm2.6 2.5-3.3 3.3h-2.4l4.4-4.5 1.3 1.2zm2.5 2.5-.7.8h-2.5l2-2 1.2 1.2zM181.8 16.4h155.6v1.7H181.8z" opacity=".8"/>
  <path fill="#08060a" d="M167.5 129.4a5 5 0 0 0-4 7.9l4 6.9 4-7c.6-.7 1-1.7 1-2.8a5 5 0 0 0-5-5Zm0 7.2a2.2 2.2 0 1 1 0-4.3 2.2 2.2 0 0 1 0 4.3Z"/>
</svg>
