<svg id="ade9e2cd-40d5-43bb-adeb-ac79f30e3c9d" data-name="Layer 1" xmlns="http://www.w3.org/2000/svg" width="335" height="335" viewBox="0 0 335 335">
  <g>
    <rect width="335" height="336.2" fill="#41256a"/>
    <g>
      <rect y="299.6" width="335" height="35.43" fill="#ec2227"/>
      <rect y="251.4" width="335" height="60.02" fill="#fff"/>
    </g>
  </g>
  <g>
    <path d="M166.9,254h.3l4.5,2.4,8.3,5.4,4,3.1.5.2,2.2.4h.9c.2,0,.3.1.4.3s.2.6.7.5l-.7.2-1.4-.3a.6.6,0,0,0-.8,0c.2.6.3.7.8.5l.5-.2a.7.7,0,0,1,.8.3l3,3,.6.6c.6-1,.7-2.1,1.4-3s-1-.2-1.6-.5c2.4-.4,4.4-1.8,6.6-2.7-.4-.6-.1-1.1.3-1.7a4.4,4.4,0,0,0,.8-1.1,1.7,1.7,0,0,0,.1-1.8c-.9.4-1.4,1.2-1.4,2.7a2,2,0,0,1-1.3-1.2,3.9,3.9,0,0,1,1.9-5.2h0l.6-.2a3.2,3.2,0,0,1,4.2,3.9,11.7,11.7,0,0,1-.5,2,5.3,5.3,0,0,0-.1,1.3,1.6,1.6,0,0,0,1.1,1.3,23.2,23.2,0,0,0,7.6,2.4c.7.1.7.1,1.1-.4l3.1-4.1a.3.3,0,0,0,0-.5,1.5,1.5,0,0,0-.9-.6l-1.2-.2a.3.3,0,0,1-.3-.3,3.2,3.2,0,0,1,.3-1.9.8.8,0,0,1,1-.7h2.1a5.1,5.1,0,0,1,1,2.1,28,28,0,0,0,.6,2.8,2.1,2.1,0,0,1-.3,1.5l-.5.3h0l-.5,1.8a12.3,12.3,0,0,1-1.2,2.6,3.4,3.4,0,0,1-3.8,1.7,12.2,12.2,0,0,0-2.7-.1h-.4c-.6.4-1.2,0-1.8-.1s-.2-.2-.4-.3a15,15,0,0,0-1.9,3.8,6.6,6.6,0,0,0,.2,3.7,29.6,29.6,0,0,0,2,4.9c.9,1.5,1.7,3,2.5,4.5a14.8,14.8,0,0,1,1.2,4.1,10.9,10.9,0,0,0,.8,3.1,9.5,9.5,0,0,1,.7,2.9,4.9,4.9,0,0,1-.1,1.7,3.2,3.2,0,0,0,.3,1.9.4.4,0,0,1,0,.5.4.4,0,0,1-.1.3.8.8,0,0,0-.1,1,5.8,5.8,0,0,1,.5,1.4,2.4,2.4,0,0,0,.9,1.5h.5a33.9,33.9,0,0,1,4.5-.2l2.8.5h0l-.3.3a4.3,4.3,0,0,1-2.2.6h-4a8.7,8.7,0,0,0-2.8.5h-.6a3.3,3.3,0,0,1-2.1-1.7l-.7-.9c0-.1-.1-.1-.1-.3a3.6,3.6,0,0,0-.2-2.3l-.5-1.2a2.5,2.5,0,0,1-.2-1.7,2.6,2.6,0,0,0-.6-2.1l-.9-1.1a11.7,11.7,0,0,1-1.9-3l-1.4-3.1-.3-.3-3.1-2.5h-.3a9.4,9.4,0,0,0-4.1,2.1l-2.9,2.3a2,2,0,0,0-.9,1.3,39.3,39.3,0,0,0-1.2,6.7,50.5,50.5,0,0,0,.1,5.5c0,.1.1.1.1.2h2.2a14.7,14.7,0,0,1,2.1,0,1.1,1.1,0,0,1,1.1.6h-.8l-6.2.3a17,17,0,0,1-5-.5l-1.3-.4-.2-.2a.8.8,0,0,1,.7-1h1.9c.5-.2.6-.8.2-1a1.9,1.9,0,0,1-.5-1.3,11,11,0,0,1,.4-3.1,12.4,12.4,0,0,0,.3-2.7c.1-1,.1-2.2.1-3.3l.3-2a4.5,4.5,0,0,1,1.3-2.2l1.7-1.7a4.2,4.2,0,0,0,.9-1.4,3,3,0,0,1,1.4-1.9l2.4-1.8.2-.3c.1-.4.1-.8.2-1.2a1.4,1.4,0,0,1,1.1-1.1,1.5,1.5,0,0,1,0-1.6l.3-1.3a2,2,0,0,0-1.1.3l-.8.6a1.7,1.7,0,0,1-2.4-.1h0l-.2-.3a11.1,11.1,0,0,1-.7-1.6l-.7-1.8c0-.2-.2-.3-.4-.3a2.7,2.7,0,0,1-1.8-.3,2.5,2.5,0,0,1-1.4-1.9v-2.2c0-.7.3-.4.6-.4h.3a3.5,3.5,0,0,0-1.4-1.3,6.1,6.1,0,0,0-2.7-.8,26.8,26.8,0,0,0-4.9-.2h-6.7a.2.2,0,0,0-.2.2,4.3,4.3,0,0,1,.1.5.3.3,0,0,1-.5.3c-.3-.2-.4-.2-.7.1l-.7,1-.5.6a1.4,1.4,0,0,1-2.1-.1h-.3a28.2,28.2,0,0,1-4.6,2.3,19.9,19.9,0,0,0-3.6,1.7,6.8,6.8,0,0,1-2.7.7,9.4,9.4,0,0,0-3.3.8,3.9,3.9,0,0,0-2.1,3.6,9,9,0,0,1-.5,3.6c-.2,1-.5,1.9-.7,2.8a2.2,2.2,0,0,0,.7,2.2h.3l3.5.5a11.6,11.6,0,0,1,4,1.6,2,2,0,0,1,.9.9.7.7,0,0,1,.1.5l-1.2-.6a22.5,22.5,0,0,0-4.5-1.9,8.1,8.1,0,0,0-3.8-.3l-1.5.4c.4.7.1,1.1-.1,1.6a8.7,8.7,0,0,1-.2,1l.5-.2c.3-.1.3,0,.3.3h0a.8.8,0,0,0,.8-.3l.4-.5c.2-.1.3-.3.5-.3a.9.9,0,0,1-.4.8l-1.1.8-.7.6a1.9,1.9,0,0,0,1.8.3l1.6-.4h.4c.2,0,.3,0,.3.1s.2.3.1.4h-.2l-.3.3h.3l2.6-.2,1.6-.3,1.3-.8a.3.3,0,0,1,0,.4l-.5.5-.5.4c.2.2.3.3.4.1l.5-.4.6-.4h.1c-.1.1-.3.3-.3.4a.4.4,0,0,0-.1.3h.3l.6-.7c.1-.2.4-.2.6-.1a13.6,13.6,0,0,1-.4,1.7c-.4,1.9-.8,3.8-1.3,5.7a15.5,15.5,0,0,1-.7,2.3.8.8,0,0,0,.2.8,4.3,4.3,0,0,1,.4.7v.2c-.4.5-.7,1.2-1.5.9h0l1.2,1.3a5.4,5.4,0,0,0,3.5,1.8,14.1,14.1,0,0,0,2.9,0,15.3,15.3,0,0,1,3.7-.2l1.2.2a1.4,1.4,0,0,1-1.2.6H151.1a.6.6,0,0,1-.6-.3,3.6,3.6,0,0,1,.3-3.2.7.7,0,0,0,0-1,1.1,1.1,0,0,1-.1-1.1,15.3,15.3,0,0,0,.7-3.6,18.7,18.7,0,0,1,.7-4l.5-1.2h-1.1a49.5,49.5,0,0,1-5.4-.6l-3.2-.4a10.2,10.2,0,0,0-4.9.8,104.1,104.1,0,0,0-10.7,5l-.9.6a1.9,1.9,0,0,0-1.1,1.2,2,2,0,0,0-2.1,0l-1,.5a5.6,5.6,0,0,1-1.7.9h-.4a.8.8,0,0,0,.9.4l.8-.5.8-.5a.5.5,0,0,1,.6-.1,2.6,2.6,0,0,1-1.6,2.1,7.7,7.7,0,0,1-2.6.7h-.5c-.3,0-.3.1-.3.4a1.2,1.2,0,0,0,1,1.2l2.7.3,2,.2a.8.8,0,0,1-.8.7h-5.4a10.2,10.2,0,0,1-3.5-.4l-.3-.4v-.2a5.7,5.7,0,0,1,.4-1.4,5.3,5.3,0,0,1,1.3-1.9l1.5-1.8a1.9,1.9,0,0,0,.3-.8.8.8,0,0,1,.4-.4,14.1,14.1,0,0,0,3.2-2.4,19.6,19.6,0,0,1,3.2-2.5,3.5,3.5,0,0,1,1.5-.7,8,8,0,0,0,2.6-1.6l3.6-2.9,3.6-2.4.2-.3,1.5-2.5a9.3,9.3,0,0,0,1.4-3.6v-.4l-.6.5a17.4,17.4,0,0,0-1.1,1.8c-.4.7-.6,1.4-1,2a9.2,9.2,0,0,1-2.9,3l-2.3,1.5-1,.9a15.9,15.9,0,0,1-3.3,2.5,4.6,4.6,0,0,1-2.2.6,2,2,0,0,1,.6-1.5,3,3,0,0,1,.8-.8.5.5,0,0,0,.1-.6v-.2l-.4-.3c-.1-.2-.1-.4.1-.5a.1.1,0,0,1,.1-.1l1.1-.5a3.3,3.3,0,0,1,1.9-.8h.3l1.1-1.7c.6-1,1.2-2.2,1.8-3.1a6.4,6.4,0,0,1,1.3-1.5l.3-.5a55.1,55.1,0,0,1,3.6-7.8c0-.3.2-.4.4-.6l1.4-1.1h.3a4.1,4.1,0,0,0,1.6-.3,1.7,1.7,0,0,0,.9-2.4h0v-.2l-.8-1.2a1.5,1.5,0,0,1,0-1.8c.5-.7.9-1.4,1.4-2a2.6,2.6,0,0,1,3.6-.5,5.4,5.4,0,0,1,2.4,4.8c0,.3-.1.7-.1,1.1s-.1.3-.3.4l-.8.5a.8.8,0,0,0-.5.7.9.9,0,0,0,1,0c1.3-.7,2.8-.6,4.3-.7a20.9,20.9,0,0,0,3.6-.4l1.5-.6a16.6,16.6,0,0,1,3.1-1.2h1a.8.8,0,0,0,.7-.2l.4-.3a1.6,1.6,0,0,1,1.3-.4c.2,0,.4-.1.4-.3s.1-.6.1-.8,0-.3.2-.4h0l1.6-.2h.5a1.1,1.1,0,0,0,.9-.7,9.6,9.6,0,0,0,4.1.7v.7c0,.1,0,.2.3.2l8.9.5H183l-.2-.2a88.3,88.3,0,0,0-8-5.6l-5.9-3.6-1.3-.7a1.1,1.1,0,0,1-.8-1.1Zm22.8,35.7h.4l1.1-.3,2.3-.3a1.3,1.3,0,0,0,1-.6h-1.2c-.3-.1-.4-.2-.4-.5a5.1,5.1,0,0,0,3.4-.8h-1.1c-.3-.1-.4-.1-.4-.5l1.6-.3a11,11,0,0,1,4,.8h.1a5.4,5.4,0,0,0,1.4,1.6l2.3,2.1a3.1,3.1,0,0,1,1.1,2h-.7c.1,0,.1.1.1.2l.6.8,1.4,2.2a9,9,0,0,0,1.5,1.9c.4-.3.7-.7,1.2-.7a16.3,16.3,0,0,1-.1,3.8l-.3,3.4c-.1,1.2.1.5.4.4s.4-.3.4-.5,0-.3-.1-.4h-.1v.4c-.1-.1-.1-.1,0-.2h0a5.9,5.9,0,0,0,.4-2.3c0-.8-.1-1.7-.1-2.5a6.7,6.7,0,0,1,.7-3.1v-.4l-1-3.5a26.4,26.4,0,0,0-1.5-5.5,8.5,8.5,0,0,0-3.3-4h0c.3-.1.4-.1.2-.4a.6.6,0,0,1,.1-.7c-.8-.1-1.1.2-1.2.9s-.1.1-.1.2-.1.3-.3.4l-3.3,1.1a5,5,0,0,0-1.2.8l-.5-.7-.5-.6c1.3.4,2.3.2,2.7-.5h-.8a.2.2,0,0,1-.2-.2c-.1-.1.1-.2.1-.2l.8-.2,2.7-1.1a2.8,2.8,0,0,0,1.6-1.6.8.8,0,0,0-.7-.1,2.4,2.4,0,0,0-.9.6c-.4.2-.3.4,0,.7-1.3.4-2.6.4-3.9.7v.5c0,.4-.1.4-.4.3V281s-.1-.2-.2-.2l-2.1-.8a6.5,6.5,0,0,0-1.9-.4c-.5.1-.7.3-.5.8l.4.4.6.5.7.5a.4.4,0,0,1,.2.6h0l-2-1.4c-.2.1-.3.3-.2.4h0a.5.5,0,0,1-.1.6c-.5-.2-.7-.2-1,.1l-2.3,2.3a7,7,0,0,0-1.9,2.6,2.7,2.7,0,0,1-.7.8,5.8,5.8,0,0,0-1.9,3.4,24.4,24.4,0,0,0-.7,4.6c-.2,2.1-.3,4.1-.4,6.2,0,.1,0,.2.2.3l1.6.6a5.9,5.9,0,0,0,2.3.4c.1-.4.1-.4-.3-.4h-.1c-.3,0-.4-.1-.2-.4l.4-.4a1.1,1.1,0,0,0,0-1.3,10.2,10.2,0,0,1-2.2-4.4,4.3,4.3,0,0,1-.1-1.6.4.4,0,0,1,.1.3,18.2,18.2,0,0,1,.6,1.8,12.5,12.5,0,0,0,.9,2.5,3.5,3.5,0,0,0,1.1,1v-3.3c.1-.8.1-1.6.2-2.3a7.7,7.7,0,0,1,.2-1.5,3.3,3.3,0,0,1-3.1-2.3l.7.2,1.9,1,1,.4a3.3,3.3,0,0,1,.3-.6,4.6,4.6,0,0,1,.7-.7,4.1,4.1,0,0,0,1.1-.7,1,1,0,0,0,.4-1ZM145.2,268l-3.1.2a1.7,1.7,0,0,0-.1.7,2.5,2.5,0,0,1-1.3,1.4l-2.2,1a2.4,2.4,0,0,0-.9.6,1.1,1.1,0,0,0-.2,1.4c.1-.6.2-.6.7-.5v1.3a15.5,15.5,0,0,0,.4,2.1c.4-.5.8.1,1.3.2l1.3-2.1a5.6,5.6,0,0,1,1.8-1.7,11.4,11.4,0,0,1-3.3,4.2l-.5-.2a5,5,0,0,1-.4,1.3c-.1.4,0,.2,0,.3s-.2.5.1.7h.1c.1.2.3.2.5.2h.5l1-.3a.6.6,0,0,1,.7.2l-.7.2-1.4.3a.7.7,0,0,0-.4.5l1.8-.2,3.1.2h1.4l-.6.5a1,1,0,0,1-.7.2,5.2,5.2,0,0,0-2.7-.5,4.8,4.8,0,0,0-1.8.3l-.7.6,1.5.7a.6.6,0,0,1-.8,0,1.6,1.6,0,0,0-1.2-.2c.1.7.6.9,1.2,1.1l1,.4a1.9,1.9,0,0,1,1.4.7h1.3a8.5,8.5,0,0,1,2.3.4l1.7.5a.8.8,0,0,0-.4-1.1.1.1,0,0,0-.1-.1h-.1l-1.2-.3-.4-.3.9-.2,1.4-.3c.2,0,.2-.1.1-.3s-.4.2-.6-.1a3.9,3.9,0,0,0,1.2-1.9l.6-2.6a.1.1,0,0,1-.1-.1h-.4c-.3,0-.4-.3-.4-.6v-.2c.6-.9,1-1.7,1.5-2.6h0a2.4,2.4,0,0,1-1.7-1.9.6.6,0,0,1,.1-.6,2,2,0,0,0,.4.8c.2.6.7.9,1.1,1.3h.4l1.5-.7,2.5-1.3a.8.8,0,0,1,.8.1.9.9,0,0,0,1.1-.1l1-1.2-.8-1.2a1.4,1.4,0,0,0-1-.5c-.6.1-.6.2-.4.6s.1.1.1.2a.5.5,0,0,1,0,.4c-.2.1-.4.1-.5-.1l-.4-.4-.4-.3c-.2-.1-.4-.1-.5.2s-.4.2-.6.2a5.7,5.7,0,0,0-2.6-.2,2.7,2.7,0,0,0-2.3,1.6c-.2-.2-.2-.3-.1-.5s.1-.3-.1-.4l-.5.5a1.2,1.2,0,0,0-1.2-1h0l-.9.2-1.6.2h-.3a4.9,4.9,0,0,0,1.9-.7A1.4,1.4,0,0,0,145.2,268Zm-19.6,28.6a.5.5,0,0,1,.2-.4,2.1,2.1,0,0,1,1.5-.9l2.2-.4a2.6,2.6,0,0,0,1.2-.5l-1-.7h0a12.4,12.4,0,0,0,7-1.8l-1.4-.4a.6.6,0,0,1-.6-.5h.4a7.8,7.8,0,0,0,2.2.3c.8,0,.8,0,.4-.7v-.3h.3l1.1.5a6.2,6.2,0,0,0,3.3.3,5.3,5.3,0,0,0,2.8-1.4,2.3,2.3,0,0,0,.9-1.9l-1.1-.7c.3-.3.9-.4,1.1-.8s-.5,0-.6-.3,1-.2,1.3-.7a2.3,2.3,0,0,0-1.2-.6h-1.7a5.2,5.2,0,0,1-2.1-.4l-2-.8a2.5,2.5,0,0,0-1.7-.4h-.3l-.7,1.2a4.8,4.8,0,0,0-.8,1.6c0,.2-.1.3-.2.3a5.9,5.9,0,0,0-1.9,1.1l-1.7,1.4a8.5,8.5,0,0,1-2.9,1.7c-.1.1-.2.2-.1.3a2.1,2.1,0,0,1-1,1.3l-1,.5a1.1,1.1,0,0,0-.8.7H126a3.3,3.3,0,0,0-1.3.7l-2.1,1.6-3.1,2.5a4.1,4.1,0,0,0-1,1.3l.4.4c.4.4.4.4.8.2l.4-.2,1.9-.8,3-1.2a10.3,10.3,0,0,1,3-1.4.3.3,0,0,0,.1-.2h-.2l-1.3.2Zm77.8-26.5a1.6,1.6,0,0,0-.2-2.8l.5-.7a.5.5,0,0,0-.1-.8h0c0-.1-.2-.2-.3-.2l-.7-.2a4.5,4.5,0,0,0-2.3,0l-.8.2-.3-.4-.3-.5c-.1-.1-.2-.2-.5,0l-.4.3-1.6.5-1.5.5a2.2,2.2,0,0,0-.9,1l.6.2,1.4.2a1.1,1.1,0,0,1,.8.8l-3-.9a1.4,1.4,0,0,1,.2.7c.3,1.2.5,2.4.7,3.7a9.4,9.4,0,0,0,1.1,3.2c.1.2.1.3,0,.4l-.3.2a.5.5,0,0,0,0,.5h.1l.5.4a.6.6,0,0,1-.2.7h-.6l-.2-.2-.3.7a.4.4,0,0,0,0,.5l.6.7a6.5,6.5,0,0,0,4.1,1.1,1.6,1.6,0,0,0,1.6-1.8s.1-.2.2-.2l1.1-.5.7-.5c.5-.7.4-.8-.2-1.2h-.3l-.5-.3,1.3-.8a.5.5,0,0,0,.3-.5h-.1a1,1,0,0,0-.5-.6l-.6-.6,1.3-.3c.2-.1.4-.2.4-.5a2.1,2.1,0,0,0-.4-1.1ZM155.6,292H155a9.1,9.1,0,0,0-1.6,1.1,4.1,4.1,0,0,0-1.3,3.5.3.3,0,0,0,.3.3h.2l.2-.2c0-.1.1,0,.2,0h-.1a4.8,4.8,0,0,0-1,4.3.4.4,0,0,0,.6.2l1-.3a2.7,2.7,0,0,1,.6-1.7c.2-.5.6-1,.8-1.6a12.1,12.1,0,0,0,.9-2,4.9,4.9,0,0,0,0-2.4l-.3.7c-.2.2-.4.3-.6.2s.9-1,.9-1.8h-.4Zm-19-10.6a1.8,1.8,0,0,1,.5-1.8,2.4,2.4,0,0,1,.6-.9,2.4,2.4,0,0,0,.4-2,6.8,6.8,0,0,0-1.3-2.7l-1,1.4a2.3,2.3,0,0,0-.4,2.1h-.1c-.5-.1-.5,0-.6.5h0c0,.1-.1.7-.6.6a2.5,2.5,0,0,0,0,1.7,2.1,2.1,0,0,0,1.5,1.5l.3-.2A.9.9,0,0,1,136.6,281.4Zm-3.5-.6-.7.9-2.9,4.8.2.3.2.3h.5l1.3-.3a1.9,1.9,0,0,1,.9-1.4l.7-.4.6-.4c.2-.3.2-.5-.1-.6l-.6-.2a.5.5,0,0,1-.3-.6c.1-.3,1.5.7,2.3,0A10.3,10.3,0,0,0,133.1,280.8Zm29.3-14.2-1.8.4a17.8,17.8,0,0,0-3.3.9,4,4,0,0,0-1.5,1,2,2,0,0,1,.9.9,6.9,6.9,0,0,1,.5,1.3,1,1,0,0,1,1.1-1,1.3,1.3,0,0,0,.1.6c0,.1,0,.2.1.2h.2l.7-.9a2.8,2.8,0,0,1,2.4-1l.3-.2a2,2,0,0,0,.3-2.1Zm49.5,1.2c0,.2,0,.4.2.5l.7.5v.2c-.1,0-.2.1-.3,0s-1.5-.7-1.6-1.6h-1.9a2,2,0,0,1-.9,1.1l-1.7.9-.3.2a2,2,0,0,0,1.9.8l2.8-.5a3.7,3.7,0,0,1,1.8.2c.4.2.5.2.7-.2l.3-.5a2,2,0,0,0-.2-1.1,3.4,3.4,0,0,0-.9-1.2,1.5,1.5,0,0,1,.1.7c0,.3-.1.4-.4.2Zm5.3-4.3-.6-.6-.4-.4a.9.9,0,0,0-.7,0c0,.1-.1.2-.1.3l-.3.6a9.4,9.4,0,0,0-1.2,1.8,4.1,4.1,0,0,0-.5.9,1.9,1.9,0,0,0,1.2,2.5l1.9-3.4.7-1.7Zm-66.5,42.7h1.8l3.3.4a4.7,4.7,0,0,0,2-.2h-.1l-3.1-1.7h-.4a6.3,6.3,0,0,1-2.7.3h-.8Zm43.6-32.9v-1.7a3.9,3.9,0,0,0-.8-2.1c-.1-.1-.1-.2-.1-.4a1.1,1.1,0,0,0,.1-.8.3.3,0,0,0-.3-.3h0c-.1,0-.2,0-.2.1l-.6,1-.6,1.8.9,1.1a1.8,1.8,0,0,0,1,.7.4.4,0,0,1,.4.4Zm-28.6-9a1.3,1.3,0,0,0,.1.6,1.1,1.1,0,0,1-.5,1.2l-.5.4h0l.6-.2c.2-.1.3-.3.6-.1s0,.4-.1.5a1.4,1.4,0,0,0-.1.9h.9c.3.1.4-.1.4-.3a7.6,7.6,0,0,0,.1-1.5,1,1,0,0,1-1.1-.5c.5-.7,1.5-.8,2.2-1.4l-.7-.3A3.3,3.3,0,0,0,165.7,264.3Zm33.6.7a5.1,5.1,0,0,0,2.5-.5,1.4,1.4,0,0,0,0-.9.9.9,0,0,0-.1-.5h-.3c-.3.3-.7.2-1,.2h-.9a.8.8,0,0,1,.1,1.2h-.1a.8.8,0,0,0-.2.5Zm-53.3-.3c0-.2-.1-.5-.1-.7s.1-.6.2-.9,0-.2-.1-.4a2.1,2.1,0,0,0-1.9-.1c-.2,0-.2.2-.2.3a1.3,1.3,0,0,0,.5,1.1A3.3,3.3,0,0,0,146,264.7Zm59.9,1.5-1-.3-.9-.7c.1.6.3,1.3.5,2.1a3.9,3.9,0,0,0,.3,1.4A2.5,2.5,0,0,0,205.9,266.2Zm-87.7,33.6h-.4c-.3,0-.3,0-.3.2a1.6,1.6,0,0,0,.4,1.2,3.8,3.8,0,0,0,1.5.9,2.2,2.2,0,0,0,1.6,0c-.1-.2-.3-.3-.5-.5l-1.1-.6A1.8,1.8,0,0,1,118.2,299.8Zm36.7,2.1a5.8,5.8,0,0,0-3.2-.2c-.2,0-.3.2-.6.4h.2a3.9,3.9,0,0,0,2.8.5A1.1,1.1,0,0,0,154.9,301.9Zm44-44.9c-1.5.2-2.4,1-2.1,2.2l1.3.2a3,3,0,0,1,.5-1.5A1.6,1.6,0,0,0,198.9,257Zm-84,46.5-.3.7c-.1.3-.2.3,0,.4a3.3,3.3,0,0,0,1.6.5.7.7,0,0,0,.6-.3h-.5v-.2l.5-.5a.6.6,0,0,0,.1-.4h-2.1ZM128.1,288h.2l.6-.5a.2.2,0,0,0,0-.3h-.2l-.7.2-.8.2a.4.4,0,0,0-.2.5,1.4,1.4,0,0,1-.3.9l-.8.6a1.1,1.1,0,0,0-.3.8,2.2,2.2,0,0,0,1.4-.9l.7-1.1Zm-11.3,13.5a1.2,1.2,0,0,0-1.1.7c-.3.5-.3.6.3.7a1.9,1.9,0,0,0,1.5,0q.8-.3.3-.9A1.2,1.2,0,0,0,116.8,301.5Zm36.4,1.5a1,1,0,0,1-1.4,0c-.2-.1-.2.1-.3.2v1.1h.1a1.1,1.1,0,0,0,1.1-.1l.8-.3c.1-.1.3-.1.2-.3a.2.2,0,0,0-.2-.2A.5.5,0,0,1,153.2,303Zm29.9,1.6c0,.3.1.5.3.5l1.4.2h.2l.9-.8.2-.3c.1-.1,0-.3-.1-.4h0c-.2-.1-.2,0-.3.1l-1.1.5a3.9,3.9,0,0,1-1.5.2Zm30.7-45,1,.2h1l.5-.2a1.4,1.4,0,0,1-.2-.6h-.4a3.2,3.2,0,0,0-1.7-.1Zm-25,10.7c-.3-.2-.5-.2-.7,0l-.6.7-.6.4a1,1,0,0,1,.5-1l.6-.4.5-.4c-1.3.3-2,.9-2,2s.2.1.2.2l.2.2a.2.2,0,0,0,.3.1h.1c.1-.1.2-.1.2-.2a4.1,4.1,0,0,1,.5-.9Zm17.4-1.9a4.3,4.3,0,0,0,2-1.5l-.8-.4c-.4-.2-.5-.2-.7.1A6.1,6.1,0,0,0,206.2,268.4Zm-14.4,6.4H193c.1,0,.1-.2.1-.2s-.2-.3-.1-.5l.2-.6c0-.2,0-.3-.3-.3s-.7.2-.8.6h0Zm12.8-4.6a1.2,1.2,0,0,0,1.5-.7h0V269a.6.6,0,0,0-.8-.1h0a2.1,2.1,0,0,0-.7,1.3Zm-62.7-6.4,1-.7a.8.8,0,0,0,.5-.9l-1.3.3Zm49.1,11c-.3.1-.6.1-.7.3a1.1,1.1,0,0,0,.7,1.3h0Zm19.3,31.4a1.4,1.4,0,0,0,1.6.1l-.6-.6c-.1-.2-.3-.3-.5-.1a1.5,1.5,0,0,0-.5.6Zm-.3-.8.9-.2c.3-.1.5-.2.5-.4s-1.1,0-1.4.2-.2.3,0,.4Zm-24.2-36.1a.6.6,0,0,0,.7.1c.3-.2.5-.4.4-.7S186.1,268.8,185.8,269.3Zm15.1,11.3c-.7-.1-1.2.1-1.3.4a.9.9,0,0,0,1.2-.3h.1Zm2.3,1.6a2,2,0,0,0-1.3.6C202.8,282.9,203.2,282.7,203.2,282.2Zm-2.9-21.3h.2q.6-.1.3-.6l-.5-.5h0Zm-59.1,4.2.2.5v.2c.1.1.2.2.3.1h.1V265Zm46.7,3.7-.5.3c-.2.1-.5.2-.5.4a1.5,1.5,0,0,0,1-.3C188.1,269,188.1,268.9,187.9,268.8Zm.9-.2a1,1,0,0,0,.7.9c.2,0,.3,0,.4-.2Zm-2.7,1.8.9-.6a.8.8,0,0,0-.9.3Q186,270.4,186.1,270.4Zm22.5-2.9c-.5,0-.7.1-.8.4S208.6,267.9,208.6,267.5Zm-21.2.2.3.4h.4a.5.5,0,0,0-.3-.5.2.2,0,0,0-.3,0Zm-30.6,24.4-.4.4c0,.1-.2.3,0,.4l.5-.5C157,292.2,157,292.2,156.8,292.1Zm-9.9-24.6h-.5v.4h.5Zm41.9,4.4-.5-.2c-.1,0-.1,0-.1.1v.2A.7.7,0,0,0,188.8,271.9Z" fill="#41256a"/>
    <path d="M189.7,289.7h2.9a1,1,0,0,1-.4,1,4.1,4.1,0,0,1-1.1.7,4.6,4.6,0,0,0-.7.7,3.3,3.3,0,0,0-.3.6l-1-.4-1.9-1-.7-.2a3.3,3.3,0,0,0,3.1,2.3,7.7,7.7,0,0,0-.2,1.5c-.1.7-.1,1.5-.2,2.3v3.3a3.5,3.5,0,0,1-1.1-1,12.5,12.5,0,0,1-.9-2.5c-.2-.6-.4-1.3-.6-1.8s0-.2-.1-.3a4.3,4.3,0,0,0,.1,1.6,10.2,10.2,0,0,0,2.2,4.4,1.1,1.1,0,0,1,0,1.3l-.4.4c-.2.3-.1.4.2.4h.1c.4,0,.4,0,.3.4a5.9,5.9,0,0,1-2.3-.4l-1.6-.6c-.2-.1-.2-.2-.2-.3.1-2.1.2-4.1.4-6.2a24.4,24.4,0,0,1,.7-4.6,5.8,5.8,0,0,1,1.9-3.4,2.7,2.7,0,0,0,.7-.8,7,7,0,0,1,1.9-2.6l2.3-2.3c.3-.3.5-.3,1-.1a.5.5,0,0,0,.1-.6.4.4,0,0,1,.1-.5h.1l2,1.4a.6.6,0,0,0-.2-.7h0l-.7-.5-.6-.5-.4-.4c-.2-.5,0-.7.5-.8a6.5,6.5,0,0,1,1.9.4l2.1.8c.1,0,.2.2.2.2v1.6c.3.1.4.1.4-.3v-.5c1.3-.3,2.6-.3,3.9-.7-.3-.3-.4-.5,0-.7a2.4,2.4,0,0,1,.9-.6.8.8,0,0,1,.7.1,2.8,2.8,0,0,1-1.6,1.6l-2.7,1.1-.8.2v.2c-.1,0,.1.2.2.2h.8c-.4.7-1.4.9-2.7.5l.5.6.5.7,1.2-.8,3.3-1.2a.3.3,0,0,0,.3-.3c0-.1,0-.2.1-.2s.4-1,1.2-.9-.1.5-.1.7.1.3-.2.4h0a8.5,8.5,0,0,1,3.3,4,26.4,26.4,0,0,1,1.5,5.5l1,3.5v.4a6.7,6.7,0,0,0-.7,3.1c0,.8.1,1.7.1,2.5a5.9,5.9,0,0,1-.4,2.3c-.1.1-.1.1,0,.2h0v-.4h.1c.1.1.1.2.1.4a.7.7,0,0,1-.4.5c-.3.1-.5,0-.4-.4s.2-2.3.3-3.4a16.3,16.3,0,0,0,.1-3.8c-.5,0-.8.4-1.2.7a9,9,0,0,1-1.5-1.9l-1.4-2.2-.6-.8c0-.1,0-.2-.1-.2h.7a3.1,3.1,0,0,0-1.1-2l-2.3-2.1a5.4,5.4,0,0,1-1.4-1.6h-.1a11,11,0,0,0-4-.8l-1.6.3c0,.4.1.4.4.5h1.1a5.1,5.1,0,0,1-3.4.8c0,.3.1.4.4.5h1.2a1.3,1.3,0,0,1-1,.6l-2.3.3-1.1.3h-.4Z" fill="#fff"/>
    <path d="M145.2,268a1.4,1.4,0,0,1-.9,1.1,7,7,0,0,1-1.9.6h.3l1.6-.2h.9a1.1,1.1,0,0,1,1.2.9h0l.5-.5a.2.2,0,0,1,.1.4c-.1.2-.1.4.1.5h0a2.5,2.5,0,0,1,2.3-1.5,5.7,5.7,0,0,1,2.6.1.4.4,0,0,0,.6-.2c.1-.2.3-.2.5-.1s.3.1.4.3l.4.4h.5c.1-.1,0-.3,0-.4h-.1c0-.1-.2-.6.4-.6a1.3,1.3,0,0,1,1,.4l.8,1.3-1,1.1a.7.7,0,0,1-1.1.1,1.1,1.1,0,0,0-.8,0l-2.5,1.2-1.5.7c-.2.1-.3.1-.4,0a4.5,4.5,0,0,1-1.1-1.3,3.6,3.6,0,0,1-.4-.9.7.7,0,0,0-.1.6,2.2,2.2,0,0,0,1.7,1.9h0c-.5.9-.9,1.8-1.5,2.7a.7.7,0,0,0,.2.7h.6a.1.1,0,0,1,.1.1l-.6,2.6a3.9,3.9,0,0,1-1.2,1.9c.2.3.3.3.6.1s.1.3-.1.3l-1.4.3-.9.2.4.2,1.2.4a.9.9,0,0,1,.6,1.1h0l-1.7-.4a5.9,5.9,0,0,0-2.3-.4H142c-.3-.5-.9-.6-1.4-.8l-1-.3c-.6-.2-1.1-.5-1.2-1.2a1.7,1.7,0,0,1,1.2.3.6.6,0,0,0,.8,0,3.4,3.4,0,0,0-1.5-.7,1.3,1.3,0,0,1,.7-.6,2.7,2.7,0,0,1,1.8-.3,6.3,6.3,0,0,1,2.7.4.7.7,0,0,0,.7-.2l.6-.5H144l-3.1-.2-1.8.3a.7.7,0,0,1,.4-.6l1.4-.2.7-.2a.5.5,0,0,0-.7-.3l-1,.3h-.5a.4.4,0,0,1-.5-.2h-.1c-.3-.2-.2-.4-.1-.7s0-.1,0-.2.3-.9.4-1.3l.5.2a13.4,13.4,0,0,0,3.3-4.2c-.5.1-1.3,1-1.8,1.7l-1.3,2.1c-.5-.1-.9-.7-1.3-.3a13,13,0,0,1-.4-2.1v-1.3c-.5-.1-.6,0-.7.5a1.1,1.1,0,0,1,.2-1.4l.9-.6,2.2-.9a2.7,2.7,0,0,0,1.3-1.5,2,2,0,0,1,.1-.7Zm-1.9,9.7h0l2.6-.7,1.1-.5c.2-.2.3-.4.2-.6A14.9,14.9,0,0,0,143.3,277.7Zm-.5,1.9h1c.3-.1.4-.4.3-.8l-.9.2C142.8,279,142.7,279.2,142.8,279.6Z" fill="#fff"/>
    <path d="M125.6,296.6l1-.2,1.3-.2h.2v.2a10.3,10.3,0,0,0-3,1.4l-3,1.2-1.9.8-.4.2c-.4.2-.4.2-.8-.2l-.4-.4a4.1,4.1,0,0,1,1-1.3l3.1-2.5,2.1-1.6a3.3,3.3,0,0,1,1.3-.7h.7a1.1,1.1,0,0,1,.8-.7l1-.5a2.1,2.1,0,0,0,1-1.3c-.1-.1,0-.2.1-.3a8.5,8.5,0,0,0,2.9-1.7l1.7-1.4a5.9,5.9,0,0,1,1.9-1.1c.1,0,.2-.1.2-.3a4.8,4.8,0,0,1,.8-1.6l.7-1.2h.3a2.5,2.5,0,0,1,1.7.4l2,.8a5.2,5.2,0,0,0,2.1.4h1.8a2.7,2.7,0,0,1,1.2.6c-.4.6-1,.3-1.4.7s.4.2.6.3-.7.5-1.1.8l1.2.7a3.1,3.1,0,0,1-.9,1.9,5.3,5.3,0,0,1-2.9,1.4,5.8,5.8,0,0,1-3.2-.3l-1.1-.5h-.4v.3c.4.7.4.7-.4.7a5.6,5.6,0,0,1-2.2-.3h-.4a.8.8,0,0,0,.7.5l1.4.4a12.6,12.6,0,0,1-7,1.8h0l1,.7a3.1,3.1,0,0,1-1.2.5l-2.2.4a2.6,2.6,0,0,0-1.6.9Z" fill="#fff"/>
    <path d="M203.4,270.1l.4.8a2.1,2.1,0,0,1,.4,1.1c0,.3-.2.4-.4.5l-1.3.3.6.6a1,1,0,0,1,.5.6.5.5,0,0,1-.1.6h-.1l-1.3.7.5.3h.3c.6.4.7.6.2,1.2l-.7.6-1.1.5a.2.2,0,0,0-.2.2c.1,1.2-.7,1.6-1.6,1.7a5.5,5.5,0,0,1-4.1-1.1l-.6-.6a.6.6,0,0,1,0-.6l.3-.6h.8a.5.5,0,0,0,.2-.6l-.5-.4a.5.5,0,0,1-.1-.6h.3a.3.3,0,0,0,0-.4,9.2,9.2,0,0,1-1.1-3.3c-.2-1.2-.4-2.4-.7-3.7a2.5,2.5,0,0,0-.2-.7l3,1c-.1-.4-.4-.8-.8-.8l-1.4-.3H194a1.8,1.8,0,0,1,.9-1l1.5-.6,1.6-.5.4-.2c.3-.3.4-.2.5,0l.3.4.3.5.8-.3a4.5,4.5,0,0,1,2.3,0l.7.2a.6.6,0,0,1,.5.8h0a.4.4,0,0,1-.1.3l-.5.6A1.6,1.6,0,0,1,203.4,270.1Z" fill="#fff"/>
    <path d="M155.6,292l-.2.5h.4c0,.7-.7,1.1-.9,1.8a.9.9,0,0,0,.6-.3l.3-.6a4.5,4.5,0,0,1,0,2.3,18.9,18.9,0,0,1-.9,2.1c-.2.5-.6,1-.8,1.6a2.7,2.7,0,0,0-.6,1.7l-1,.2c-.3.1-.5.1-.6-.2a4.5,4.5,0,0,1,1-4.2c.1-.1.1-.1.1-.2h-.2l-.2.2c-.2.1-.3.1-.4,0s-.1-.1-.1-.2a4.1,4.1,0,0,1,1.3-3.5,9.1,9.1,0,0,1,1.6-1.1Z" fill="#fff"/>
    <path d="M136.6,281.4a.7.7,0,0,0-.7.4h-.3a2.1,2.1,0,0,1-1.5-1.5,2.2,2.2,0,0,1,0-1.6c.5.1.6,0,.6-.6V278a.5.5,0,0,1,.6-.4h.1a2.2,2.2,0,0,1,.4-2.1l1-1.5a6.8,6.8,0,0,1,1.3,2.7,2.6,2.6,0,0,1-.4,2.1,1.6,1.6,0,0,0-.6.8A1.8,1.8,0,0,0,136.6,281.4Z" fill="#fff"/>
    <path d="M133.1,280.8a10.3,10.3,0,0,1,2.1,2.5c-.8.7-1.5.2-2.3,0s.1.5.3.6l.6.2c.3.1.3.3.1.6l-.6.4-.7.4a1.9,1.9,0,0,0-.9,1.4l-1.3.3h-.5l-.2-.3-.2-.3,2.9-4.8Z" fill="#fff"/>
    <path d="M162.4,266.6a2,2,0,0,1-.3,2.1l-.3.2a2.8,2.8,0,0,0-2.4,1l-.7.9h-.2c-.1,0-.1-.1-.1-.2a1.3,1.3,0,0,1-.1-.6,1,1,0,0,0-1.1,1,6.9,6.9,0,0,0-.5-1.3,2,2,0,0,0-.9-.9,4,4,0,0,1,1.5-1,17.8,17.8,0,0,1,3.3-.9Z" fill="#fff"/>
    <path d="M211.9,267.8l.4.2c.3.2.4.1.4-.2a1.5,1.5,0,0,0-.1-.7,3.4,3.4,0,0,1,.9,1.2,2,2,0,0,1,.2,1.1l-.3.5c-.2.4-.3.4-.7.2a3.7,3.7,0,0,0-1.8-.2l-2.8.5a2,2,0,0,1-1.9-.8l.3-.2,1.7-.9a2,2,0,0,0,.9-1.1H211a1.9,1.9,0,0,0,1.6,1.6c.9.3.2,0,.3,0v-.2l-.7-.5C211.9,268.2,211.9,268,211.9,267.8Z" fill="#fff"/>
    <path d="M217.2,263.5l-.7,1.7-1.9,3.4a1.9,1.9,0,0,1-1.2-2.5,4.1,4.1,0,0,1,.5-.9,9.4,9.4,0,0,1,1.2-1.8l.3-.6a.7.7,0,0,1,.6-.4h.2l.4.4Z" fill="#fff"/>
    <path d="M150.7,306.2v-1.3h.8a8.3,8.3,0,0,0,2.7-.3h.4l3.1,1.7h.1a4.7,4.7,0,0,1-2,.2l-3.3-.4Z" fill="#fff"/>
    <path d="M194.3,273.3l-.2-.2a.4.4,0,0,0-.4-.4,1.8,1.8,0,0,1-1-.7l-.9-1.1.6-1.8.6-1h.4a.4.4,0,0,1,.1.3,1.1,1.1,0,0,1-.1.8c0,.2,0,.3.1.4a3.9,3.9,0,0,1,.8,2.1Z" fill="#fff"/>
    <path d="M165.7,264.3a3.3,3.3,0,0,1,1.9-.6,1.9,1.9,0,0,1,.8.3c-.8.6-1.7.7-2.3,1.4a1.1,1.1,0,0,0,1.2.5c0,.5-.1,1-.1,1.5s-.1.4-.5.3h-.8a1,1,0,0,1,.1-.9c0-.1.2-.3,0-.5s-.4,0-.6.1l-.6.2h0l.6-.4a1,1,0,0,0,.4-1.2A1.3,1.3,0,0,1,165.7,264.3Z" fill="#fff"/>
    <path d="M199.3,265a.8.8,0,0,1,.2-.5.9.9,0,0,0,.2-1.1h-.1a.1.1,0,0,0-.1-.1h.9c.3,0,.7.1,1-.2h.3a.9.9,0,0,1,.1.5,1.4,1.4,0,0,1,0,.9A5.1,5.1,0,0,1,199.3,265Z" fill="#fff"/>
    <path d="M146,264.7a3.3,3.3,0,0,1-1.6-.7,1.3,1.3,0,0,1-.5-1.1c0-.1,0-.3.2-.3a2.1,2.1,0,0,1,1.9.1c.1.2.2.3.1.4s-.1.6-.2.9S146,264.5,146,264.7Z" fill="#fff"/>
    <path d="M205.9,266.2a2.5,2.5,0,0,1-1.1,2.5,3.9,3.9,0,0,1-.3-1.4c-.2-.8-.4-1.5-.5-2.1l.9.7Z" fill="#fff"/>
    <path d="M118.2,299.8a1.8,1.8,0,0,0,1.2,1.2l1.1.6c.2.2.4.3.5.5a2.2,2.2,0,0,1-1.6,0,3.8,3.8,0,0,1-1.5-.9,1.6,1.6,0,0,1-.4-1.2c0-.2,0-.2.3-.2Z" fill="#fff"/>
    <path d="M154.9,301.9a1.1,1.1,0,0,1-.8.8,3.9,3.9,0,0,1-2.8-.5h-.2c.3-.2.4-.4.6-.4A5.8,5.8,0,0,1,154.9,301.9Z" fill="#fff"/>
    <path d="M198.9,257a1.6,1.6,0,0,1-.3.9,3,3,0,0,0-.5,1.5l-1.3-.2C196.5,258,197.4,257.2,198.9,257Z" fill="#fff"/>
    <path d="M114.9,303.5H117a.6.6,0,0,1-.1.4l-.5.5v.2h.5a.7.7,0,0,1-.6.3,3.3,3.3,0,0,1-1.6-.5c-.2-.1-.1-.3,0-.4Z" fill="#fff"/>
    <path d="M128.1,288l-.4.5-.7,1.1a2,2,0,0,1-1.4.8.9.9,0,0,1,.3-.7l.8-.6c.2-.3.5-.5.3-1s0-.4.2-.5h.8l.7-.3h.2a.2.2,0,0,1,0,.3l-.6.5Z" fill="#fff"/>
    <path d="M116.8,301.5a1.2,1.2,0,0,1,1,.5q.5.6-.3.9a1.9,1.9,0,0,1-1.5,0c-.6-.1-.6-.2-.3-.7A1.2,1.2,0,0,1,116.8,301.5Z" fill="#fff"/>
    <path d="M153.2,303a.5.5,0,0,0,.3.5.2.2,0,0,1,.2.2c.1.2-.1.2-.2.3l-.8.3a1.1,1.1,0,0,1-1.1.1h-.1v-1.1c.1-.1.1-.3.3-.2A1,1,0,0,0,153.2,303Z" fill="#fff"/>
    <path d="M183.1,304.6l1.5-.2a3,3,0,0,0,1.1-.6c.1,0,.1-.1.3,0s.2.2.1.4h0l-.2.3-.9.7h-1.6A.5.5,0,0,1,183.1,304.6Z" fill="#fff"/>
    <path d="M213.8,259.6l.2-.8a4.7,4.7,0,0,1,1.7.1l.4.2c0,.2.1.3.2.5l-.5.2h-1Z" fill="#fff"/>
    <path d="M188.8,270.3l-.8.7a4.1,4.1,0,0,0-.5.9.5.5,0,0,1-.4.2h-.2l-.2-.2c0-.1-.1-.1-.2-.2s.7-1.7,2-2l-.5.4-.6.4a1,1,0,0,0-.5,1l.6-.4.6-.7C188.3,270.1,188.5,270.1,188.8,270.3Z" fill="#fff"/>
    <path d="M206.2,268.4a6.1,6.1,0,0,1,.5-1.8c.2-.3.3-.3.7-.1l.8.4A4.3,4.3,0,0,1,206.2,268.4Z" fill="#fff"/>
    <path d="M191.8,274.8l.3-1a.8.8,0,0,1,.8-.6h0c.3,0,.3.1.3.3l-.2.6c-.1.2-.1.4.1.5s0,.2-.1.2Z" fill="#fff"/>
    <path d="M204.6,270.2a2.1,2.1,0,0,1,.7-1.3.5.5,0,0,1,.7,0h.1c0,.1.1.3,0,.3a1.1,1.1,0,0,1-1.3,1h-.2Z" fill="#fff"/>
    <path d="M141.9,263.8l.2-1.3,1.3-.3a.8.8,0,0,1-.5.9Z" fill="#fff"/>
    <path d="M191,274.8v1.6a1.1,1.1,0,0,1-.7-1.3h0C190.4,274.9,190.7,274.9,191,274.8Z" fill="#fff"/>
    <path d="M210.3,306.2a1.5,1.5,0,0,1,.5-.6c.2-.2.4-.1.5.1l.6.6A1.4,1.4,0,0,1,210.3,306.2Z" fill="#fff"/>
    <path d="M210,305.4c-.2-.1-.1-.2,0-.4s1.2-.5,1.4-.2-.2.3-.5.4Z" fill="#fff"/>
    <path d="M185.8,269.3c.3-.5.6-.8,1.1-.6s-.1.5-.4.7A.6.6,0,0,1,185.8,269.3Z" fill="#fff"/>
    <path d="M200.9,280.6a1,1,0,0,1-1.2.5h-.1C199.7,280.7,200.2,280.5,200.9,280.6Z" fill="#fff"/>
    <path d="M203.2,282.2c0,.5-.4.7-1.3.6A2,2,0,0,1,203.2,282.2Z" fill="#fff"/>
    <path d="M200.3,260.9v-1.1h0l.5.5q.3.4-.3.6Z" fill="#fff"/>
    <path d="M141.2,265.1h.6v.8c-.1.1-.2.2-.3.1h-.1v-.2Z" fill="#fff"/>
    <path d="M187.9,268.8c.2.1.2.2,0,.4a1.5,1.5,0,0,1-1,.3c0-.2.3-.3.5-.4Z" fill="#fff"/>
    <path d="M188.8,268.6l1.1.7c-.1.2-.2.2-.4.2A1,1,0,0,1,188.8,268.6Z" fill="#fff"/>
    <path d="M186.1,270.4q-.2,0,0-.3a.8.8,0,0,1,.9-.3Z" fill="#fff"/>
    <path d="M208.6,267.5c0,.4-.2.5-.8.4S208.1,267.5,208.6,267.5Z" fill="#fff"/>
    <path d="M187.4,267.7a.2.2,0,0,1,.2-.2h.2c.2.1.4.4.3.6a.2.2,0,0,1-.4-.1Z" fill="#fff"/>
    <path d="M156.8,292.1c.2.1.2.1.1.3l-.5.5c-.2-.1,0-.3,0-.4Z" fill="#fff"/>
    <path d="M146.9,267.5v.4h-.5v-.4Z" fill="#fff"/>
    <path d="M188.8,271.9c-.2.2-.5.3-.6.1s-.1-.2,0-.2h.6Z" fill="#fff"/>
    <path d="M143.3,277.7a14.2,14.2,0,0,1,4-1.7.9.9,0,0,1-.3.6l-1,.5-2.7.7Z" fill="#41256a"/>
    <path d="M142.8,279.6c-.1-.4,0-.6.4-.7l.9-.2c.1.4,0,.7-.3.8Z" fill="#41256a"/>
  </g>
  <g>
    <g>
      <path d="M32.6,17.9a1.4,1.4,0,0,1-.4,1.1l-4.9,4.9-5.2-3v-3a1.6,1.6,0,0,1,1.6-1.5,1.5,1.5,0,0,1,1.5,1.5h0v3.7L30,16.8a1.5,1.5,0,0,1,2.1-.1h.1a1.6,1.6,0,0,1,.4,1.2" fill="#fff"/>
      <path d="M31.1,32.1l-.6-.2-.5-.3-4.8-4.8v3.7a1.8,1.8,0,0,1-1.5,1.6,1.6,1.6,0,0,1-1.6-1.6V27.6l5.2-3,4.9,4.8a1.5,1.5,0,0,1,.1,2.1,2,2,0,0,1-1.2.6" fill="#fff"/>
      <path d="M27.1,24.1c0-.1-.1-.1-.2-.2h0l-1.3-.7-3.5-2-3-1.8h-.4v9.2c0,.2.2.3.4.3h.1l2.9-1.7,4.8-2.8h.2Zm-1.2.2h-.1l-3.7,2.2-2.4,1.3c-.1.1-.2.1-.3-.1s-.1,0-.1-.1v-7a.3.3,0,0,1,.3-.3h.1l2.4,1.4L25.8,24C25.9,24,25.9,24.2,25.9,24.3Z" fill="#fff"/>
      <path d="M24.9,24.2a.2.2,0,0,1-.2.2h0L21.9,26l-1.7,1h-.3V21.6c0-.2.1-.2.2-.2h.1l1.7,1L24.7,24c.1,0,.2,0,.2.1h0" fill="#fff"/>
    </g>
    <g>
      <path d="M58,24a.3.3,0,0,0-.1-.2l-4.3-2.1L51,20.4c-.3-.1-.5,0-.5.2v7.2c0,.1.1.2.3.2h.2l2.6-1.4,4.2-2.2a.3.3,0,0,0,.1-.2Zm-1,.2h-.1L53.6,26l-2,1.1h-.4V21.4c0-.1.1-.2.3-.2h.1l2,1L57,23.8V24H57Z" fill="#fff"/>
      <path d="M56.1,24.2H56l-2.5,1.3-1.5.8c-.1.1-.2.1-.2-.1h0V22.1c0-.1,0-.2.2-.2h0l1.6.7L56,24h.1" fill="#fff"/>
      <path d="M35.8,20.5h3.6c1.9,0,3.2,1,3.3,2.5s-1.4,2.5-3.2,2.5H37.6v2.4H35.8ZM39.3,24c.9,0,1.5-.4,1.5-1s-.6-1.1-1.5-1.1H37.5V24Z" fill="#fff"/>
      <path d="M49.6,26.5V28H43.7V20.6h1.8v6Z" fill="#fff"/>
      <path d="M60,25.2l-3.4-4.8h2.1l2.1,3.2,2.1-3.2h2l-3.1,4.7v2.7H60Z" fill="#fff"/>
      <path d="M66.1,20.8h1v4.1l4.1-4.1h1.3L69,24.2l3.8,4H71.6l-3.2-3.4L67.1,26v2.2h-.9Z" fill="#fff"/>
      <path d="M73.3,24.4c-.1-2,1.9-3.8,4.1-3.8a4.1,4.1,0,0,1,4.3,3.8,4.2,4.2,0,0,1-8.4.1h0Zm7.5,0a3.1,3.1,0,0,0-3.3-3h0a3.2,3.2,0,0,0-3.3,3,3.3,3.3,0,0,0,6.6,0Z" fill="#fff"/>
      <path d="M83,27.1l.5-.7a4.1,4.1,0,0,0,2.8,1.1c1.2-.1,1.9-.7,1.9-1.3s-.8-1.2-2.3-1.4-2.7-.8-2.7-2.1,1.1-2.1,2.7-2.1a4.1,4.1,0,0,1,3,1l-.6.7a3.6,3.6,0,0,0-2.4-.9c-1,0-1.8.6-1.8,1.2s.9,1.1,2.3,1.4,2.7.8,2.7,2.1-1,2.1-2.8,2.1A4.4,4.4,0,0,1,83,27.1Z" fill="#fff"/>
      <path d="M90.9,20.8h.9L95,26l3-5.2h.9v7.4H98V22.6l-3,5.2-3.2-5.2v5.6h-.9Z" fill="#fff"/>
      <path d="M100.7,24.4c-.1-2,1.9-3.8,4.2-3.8a4,4,0,0,1,4.3,3.8c.1,2-1.9,3.8-4.2,3.8A4.1,4.1,0,0,1,100.7,24.4Zm7.5,0a3.1,3.1,0,0,0-3.3-3h0a3.2,3.2,0,0,0-3.3,3,3.1,3.1,0,0,0,3.3,3h.1a3,3,0,0,0,3.2-2.9Z" fill="#fff"/>
      <path d="M110.4,27.1l.5-.7a4.3,4.3,0,0,0,2.8,1.1c1.2-.1,1.9-.7,1.9-1.3s-.8-1.2-2.3-1.4-2.7-.8-2.7-2.1,1.2-2.1,2.7-2.1a4.1,4.1,0,0,1,3,1l-.6.6a4.1,4.1,0,0,0-2.4-.8c-1,0-1.8.6-1.8,1.2s.9,1.1,2.3,1.4,2.8.8,2.8,2.1-1,2.1-2.9,2.1A4.4,4.4,0,0,1,110.4,27.1Z" fill="#fff"/>
    </g>
  </g>
  <rect x="46" y="93.6" width="243" height="1.72" fill="#f6eb16"/>
  <rect x="40" y="141.4" width="255" height="2" fill="#f6eb16"/>
  <path d="M324.5,26.3c0,3.2-4.2,5.8-9.3,5.8H258.6c-5.1,0-9.3-2.6-9.3-5.8v-4c0-3.2,4.2-5.8,9.3-5.8h56.6c5.1,0,9.3,2.6,9.3,5.8Z" fill="#ec2227"/>
  <circle cx="105.1" cy="159.1" r="2.7" fill="#f6eb16"/>
  <circle cx="105.1" cy="177.5" r="2.7" fill="#f6eb16"/>
  <g>
    <circle cx="83.1" cy="323.7" r="3.6" fill="#f6eb16"/>
    <circle cx="171.9" cy="323.7" r="3.6" fill="#f6eb16"/>
  </g>
</svg>
