<?xml version="1.0" encoding="UTF-8"?>
<svg xmlns="http://www.w3.org/2000/svg" width="335" height="335" xmlns:xlink="http://www.w3.org/1999/xlink" viewBox="0 0 335 335">
  <defs>
    <linearGradient id="uuid-06c38ff8-097b-4982-8d74-755c2a21cff6" x1="-44.5" y1="206.2" x2="167.6" y2="-18.7" gradientTransform="matrix(1, 0, 0, 1, 0, 0)" gradientUnits="userSpaceOnUse">
      <stop offset="0" stop-color="#16133f"/>
      <stop offset="1" stop-color="#2a1a64"/>
    </linearGradient>
    <linearGradient id="uuid-c0c13bdc-cd84-4b8b-b9b5-098c8e6bd737" x1="351.9" y1="92.4" x2="61.2" y2="322.8" gradientTransform="matrix(1, 0, 0, 1, 0, 0)" gradientUnits="userSpaceOnUse">
      <stop offset="0" stop-color="#d50e38"/>
      <stop offset="1" stop-color="#f30f40"/>
    </linearGradient>
    <linearGradient id="uuid-b8941d5d-59a8-464c-870c-f96dd0222446" x1="335.5" y1="-20.7" x2="190" y2="166.3" gradientTransform="matrix(1, 0, 0, 1, 0, 0)" gradientUnits="userSpaceOnUse">
      <stop offset="0" stop-color="#02001d"/>
      <stop offset="1" stop-color="#12094b"/>
    </linearGradient>
    <linearGradient id="uuid-cddb514f-f675-4748-b6fc-28ff8e0056b1" x1="197.9" y1="170.1" x2="109.2" y2="142.4" gradientTransform="matrix(1, 0, 0, 1, 0, 0)" gradientUnits="userSpaceOnUse">
      <stop offset="0" stop-color="#1d1755"/>
      <stop offset="1" stop-color="#322281"/>
    </linearGradient>
    <linearGradient id="uuid-f104e9af-0f16-4195-a3a8-39f72622a974" x1="-1276.8" y1="291" x2="-1150.8" y2="291" gradientTransform="translate(-1042) rotate(-180) scale(1 -1)" xlink:href="#uuid-b8941d5d-59a8-464c-870c-f96dd0222446"/>
    <linearGradient id="uuid-c65df955-e1fd-4044-a92d-00effca3ad27" x1="43.2" y1="298.3" x2="138.7" y2="298.3" xlink:href="#uuid-b8941d5d-59a8-464c-870c-f96dd0222446"/>
    <linearGradient id="uuid-4eb34563-34d5-4529-8fbd-65c586e95dd2" x1="135.8" y1="257" x2="171.2" y2="257" xlink:href="#uuid-b8941d5d-59a8-464c-870c-f96dd0222446"/>
    <linearGradient id="uuid-83d80750-fcc7-4130-b206-afc9da6b3883" x1="252.6" y1="127.8" x2="330.7" y2="127.8" xlink:href="#uuid-cddb514f-f675-4748-b6fc-28ff8e0056b1"/>
    <linearGradient id="uuid-e36bb17a-5678-4ca5-946c-68acfcaf6164" x1="280.7" y1="305.1" x2="318.8" y2="305.1" gradientTransform="matrix(1, 0, 0, 1, 0, 0)" gradientUnits="userSpaceOnUse">
      <stop offset="0" stop-color="#94a2aa"/>
      <stop offset="0" stop-color="#9eadb5"/>
      <stop offset=".2" stop-color="#a7b6be"/>
      <stop offset=".5" stop-color="#6b7b83"/>
      <stop offset=".5" stop-color="#6e7f87"/>
      <stop offset=".6" stop-color="#7a8b93"/>
      <stop offset=".7" stop-color="#8e9fa8"/>
      <stop offset=".8" stop-color="#a3b5be"/>
      <stop offset=".8" stop-color="#9aacb5"/>
      <stop offset=".9" stop-color="#83949c"/>
      <stop offset="1" stop-color="#6b7b83"/>
    </linearGradient>
    <linearGradient id="uuid-3a780355-c236-4c2a-9913-453547176180" x1="280" y1="322.2" x2="285.6" y2="322.2" gradientTransform="translate(-145 294.3) rotate(-45)" gradientUnits="userSpaceOnUse">
      <stop offset="0" stop-color="#000"/>
      <stop offset="0" stop-color="#040404"/>
      <stop offset=".1" stop-color="#1d1d1d"/>
      <stop offset=".2" stop-color="#262626"/>
      <stop offset=".2" stop-color="#212121"/>
      <stop offset=".4" stop-color="#080808"/>
      <stop offset=".5" stop-color="#000"/>
      <stop offset=".8" stop-color="#262626"/>
      <stop offset=".8" stop-color="#1d1d1d"/>
      <stop offset="1" stop-color="#040404"/>
      <stop offset="1" stop-color="#000"/>
    </linearGradient>
    <linearGradient id="uuid-dde8cda0-46c4-41a1-9853-83e951070f4a" x1="-988.8" y1="305.1" x2="-950.7" y2="305.1" gradientTransform="translate(-671.6) rotate(-180) scale(1 -1)" xlink:href="#uuid-e36bb17a-5678-4ca5-946c-68acfcaf6164"/>
    <linearGradient id="uuid-89fca692-1bd1-46b8-bd5d-3ddda33c7773" x1="-989.5" y1="322.2" x2="-983.9" y2="322.2" gradientTransform="translate(784.9 1247.7) rotate(45) scale(1 -1)" xlink:href="#uuid-3a780355-c236-4c2a-9913-453547176180"/>
    <linearGradient id="uuid-8d1284fb-36c0-41ca-aaed-52ce12bc7d18" x1="298.9" y1="318.7" x2="299" y2="311.4" gradientTransform="matrix(1, 0, 0, 1, 0, 0)" gradientUnits="userSpaceOnUse">
      <stop offset="0" stop-color="#d0d2d3"/>
      <stop offset="1" stop-color="#717272"/>
    </linearGradient>
    <linearGradient id="uuid-e7c7f0ab-b895-4733-8dd4-89c1ed2964b1" x1="292.1" y1="304.6" x2="305.6" y2="304.6" gradientTransform="matrix(1, 0, 0, 1, 0, 0)" gradientUnits="userSpaceOnUse">
      <stop offset="0" stop-color="#231f20"/>
      <stop offset="0" stop-color="#231f20" stop-opacity=".9"/>
      <stop offset=".3" stop-color="#231f20" stop-opacity=".3"/>
      <stop offset=".5" stop-color="#231f20" stop-opacity="0"/>
      <stop offset=".7" stop-color="#231f20" stop-opacity=".3"/>
      <stop offset="1" stop-color="#231f20" stop-opacity=".9"/>
      <stop offset="1" stop-color="#231f20"/>
    </linearGradient>
    <linearGradient id="uuid-abf63ef1-a59b-4cd5-b2f6-6b8942b35738" x1="291.4" y1="303.1" x2="305.9" y2="303.1" gradientTransform="matrix(1, 0, 0, 1, 0, 0)" xlink:href="#uuid-3a780355-c236-4c2a-9913-453547176180"/>
    <linearGradient id="uuid-f5427f01-a834-4577-943c-166d93904a66" x1="291.4" y1="303" x2="305.9" y2="303" xlink:href="#uuid-e7c7f0ab-b895-4733-8dd4-89c1ed2964b1"/>
  </defs>
  <g isolation="isolate">
    <g id="uuid-0c23fd77-d5fd-449d-b661-20e58bfe9890" data-name="Layer 1">
      <g>
        <path d="M-1,321.3l.3-.3v-5.3l6.8-3.3,7.4-3.6h0l11.2-5.4,33.8-16.3,2.1-1,175.3-84.5h0l100.1-48.3v10.3L59.4,335h-24.6l156.5-103.8L48.1,301l-2.3,1.1L-.8,324.8v-2.5h-.1c0-.3,0-.6-.1-1Z" fill="#cc0a36"/>
        <polygon points="-.8 0 -.8 315.7 6 312.4 29.2 283.2 253.6 0 -.8 0" fill="url(#uuid-06c38ff8-097b-4982-8d74-755c2a21cff6)"/>
        <polygon points="-.8 324.8 -.8 335 34.8 335 191.3 231.2 48.1 301 45.8 302.1 -.8 324.8" fill="#fe0d41"/>
        <polygon points="59.4 335 336 335 336 163.6 59.4 335" fill="#fe0d41"/>
        <polygon points="24.6 303.5 58.4 287.2 60.5 286.1 235.9 201.6 235.9 201.6 235.9 201.6 336 153.3 336 72.3 81.4 261.3 78.2 263.6 78.2 263.7 24.6 303.5" fill="url(#uuid-c0c13bdc-cd84-4b8b-b9b5-098c8e6bd737)"/>
        <polygon points="102.4 229.3 115.1 219.9 117.7 218 336 57.3 336 20.5 125.8 208.4 122 211.8 122 211.8 102.4 229.3" fill="#dd0b38"/>
        <polygon points="13.4 308.8 24.6 303.5 78.2 263.7 78.2 263.6 81.4 261.3 336 72.3 336 57.3 117.7 218 115.1 219.9 102.4 229.3 102.4 229.3 13.4 308.8" fill="#0f0941"/>
        <polygon points="122 211.8 125.8 208.4 336 20.5 336 0 300.7 0 300.1 .7 122 211.8" fill="url(#uuid-b8941d5d-59a8-464c-870c-f96dd0222446)"/>
        <polygon points="6 312.4 13.4 308.8 13.4 308.8 102.4 229.3 102.4 229.3 122 211.8 122 211.8 300.1 .7 300.7 0 253.6 0 29.2 283.2 6 312.4" fill="url(#uuid-cddb514f-f675-4748-b6fc-28ff8e0056b1)"/>
      </g>
      <path d="M243.9,168.4c-2.6,0-4.7,2.1-4.7,4.7s.3,2,.9,2.8h0l3.8,6.6,3.8-6.6c.6-.8,.9-1.8,.9-2.8,0-2.6-2.1-4.7-4.7-4.7Zm0,6.9c-1.2,0-2.1-.9-2.1-2.1s.9-2.1,2.1-2.1,2.1,.9,2.1,2.1-.9,2.1-2.1,2.1Z" fill="#fcf5e3"/>
      <g id="uuid-27c90bd2-2823-4cef-afdb-405bd1234c9d" data-name="PRINT">
        <g>
          <g>
            <path d="M30.4,13.8c0,.6-.2,1.1-.6,1.5l-6.8,6.8-7.2-4.2v-4.1c0-1.2,1-2.1,2.1-2.1s2.1,1,2.1,2.1h0v5.2l6.7-6.7c.8-.8,2.2-.8,3,0,.4,.4,.6,.9,.6,1.5h0Z" fill="#fe0d41"/>
            <path d="M29.8,32.8c-.4,.4-.9,.6-1.5,.6s-.6,0-.8-.2c-.3-.1-.5-.3-.7-.5l-2.3-2.3-4.4-4.4v5.2c0,1.2-1,2.1-2.1,2.1s-2.1-1-2.1-2.1v-4.1l7.2-4.2,4.5,4.5,2.3,2.3c.8,.8,.8,2.2,0,3Z" fill="#fe0d41"/>
            <path d="M22.7,22.4c0-.1-.1-.2-.2-.3,0,0,0,0,0,0l-1.8-1-4.9-2.8-4.1-2.4c-.2-.1-.5,0-.7,.2,0,0,0,.2,0,.2v12.5c0,.3,.2,.5,.5,.5s.2,0,.2,0l4.1-2.4,6.7-3.9s0,0,0,0c0,0,.1-.1,.1-.2,0-.1,0-.2,0-.3Zm-10.2-5l3.2,1.9,5.2,3c0,0,.1,0,.1,.1h0c0,.1,0,.2,0,.3,0,0,0,.2-.2,.2l-5.2,3-3.2,1.9c-.2,.1-.4,0-.5-.1,0,0,0-.1,0-.2v-9.7c0-.2,.2-.4,.4-.4s.1,0,.2,0Z" fill="#fe0d41"/>
            <path d="M19.6,22.6c0,0,0,.1-.1,.2l-3.9,2.2-2.4,1.4c-.1,0-.3,0-.4-.1,0,0,0,0,0-.1v-7.3c0-.2,.1-.3,.3-.3s.1,0,.1,0l2.4,1.4,3.9,2.2c0,0,.1,0,.1,.2,0,0,0,.1,0,.2h0Z" fill="#fe0d41"/>
          </g>
          <g>
            <path d="M65.5,22l-6-3-3.7-1.8c-.2-.1-.5,0-.6,.2,0,0,0,.1,0,.2v9.9c.1,.2,.4,.4,.6,.4,0,0,.1,0,.2,0h.2l3.4-1.9,2.1-1.1,3.8-2c0,0,.2-.1,.2-.2,0,0,0-.1,0-.2,0-.1-.1-.2-.2-.2Zm-6,3l-2.8,1.5c-.2,.1-.4,0-.5-.1,0,0,0,0,0-.1v-7.7c0-.2,0-.3,.3-.3,0,0,0,0,.1,0l2.8,1.4,1,.5,3.6,1.8c0,0,.1,0,.2,.2,0,0,0,.1,0,.2h0s0,0,0,0c0,0,0,.1-.1,.1l-4.6,2.4Z" fill="#fe0d41"/>
            <path d="M63,22.5c0,0,0,.1-.1,.1l-3.4,1.8-2.1,1.1c-.1,0-.3,0-.3,0,0,0,0,0,0-.1v-5.8c0-.1,0-.2,.2-.2,0,0,0,0,0,0l2.1,1.1,3.5,1.8c0,0,0,0,.1,.1,0,0,0,0,0,.1h0Z" fill="#fe0d41"/>
            <path d="M39.9,17.3h-5.2v10.4h2.6v-3.4h2.7c2.5,0,4.3-1.5,4.3-3.6,0-2-1.9-3.5-4.4-3.4Zm-.2,4.9h-2.4v-2.9h2.4c1.2,0,2.1,.5,2.1,1.4,0,.9-.8,1.5-2,1.5Z" fill="#fe0d41"/>
            <polygon points="54.1 27.7 45.8 27.8 45.7 17.5 48.2 17.5 48.3 25.8 54 25.7 54.1 27.7" fill="#fe0d41"/>
            <polygon points="70.9 23.8 70.9 27.5 68.4 27.5 68.4 23.8 63.8 17.3 66.7 17.3 69.6 21.8 72.5 17.2 75.3 17.2 70.9 23.8" fill="#fe0d41"/>
            <polygon points="86.2 28 84.5 28 80.1 23.3 78.3 25 78.3 28.1 77 28.1 76.9 17.8 78.2 17.8 78.3 23.5 84 17.8 85.7 17.7 81 22.5 86.2 28" fill="#fe0d41"/>
            <path d="M92.6,17.5c-3.2,0-5.9,2.5-5.8,5.4,0,2.9,2.8,5.3,6,5.3,3.2,0,5.8-2.5,5.8-5.4,0-2.9-2.8-5.3-5.9-5.2Zm.4,9.6c-2.5,.2-4.7-1.7-4.9-4.2,.1-2.3,1.9-4.1,4.2-4.3,2.5-.2,4.7,1.7,4.9,4.2-.1,2.3-1.9,4.1-4.2,4.3Z" fill="#fe0d41"/>
            <path d="M108.8,25.1c0,1.6-1.3,3-4,3-1.7,0-3.3-.5-4.5-1.6l.8-.9c1,1,2.4,1.5,3.8,1.4,1.8,0,2.7-.9,2.7-1.8,0-1.1-1.1-1.5-3.1-1.9-2.3-.5-3.8-1.1-3.8-2.9,0-1.6,1.6-3,3.8-3,1.5,0,2.9,.5,4.1,1.4l-.8,.9c-.9-.8-2.1-1.3-3.3-1.3-1.4,0-2.4,.9-2.4,1.8,0,1.1,1.2,1.4,3.1,1.8,2.2,.4,3.8,1.1,3.8,2.9Z" fill="#fe0d41"/>
            <polygon points="122.5 28 121.2 28 121.1 20.2 116.9 27.5 112.6 20.4 112.7 28.1 111.4 28.1 111.2 17.8 112.5 17.8 116.9 25 121.1 17.7 122.4 17.7 122.5 28" fill="#fe0d41"/>
            <path d="M130.7,17.5c-3.2,0-5.9,2.5-5.8,5.4,0,2.9,2.8,5.3,6,5.3,3.2,0,5.9-2.5,5.8-5.4,0-2.9-2.8-5.3-5.9-5.2Zm.4,9.6c-2.5,.2-4.7-1.7-4.9-4.2,.1-2.3,1.9-4.1,4.2-4.3,2.5-.2,4.7,1.7,4.9,4.2-.1,2.3-1.9,4.1-4.2,4.3Z" fill="#fe0d41"/>
            <path d="M146.9,25.1c0,1.6-1.3,3-4,3-1.7,0-3.3-.5-4.6-1.6l.8-.9c1,1,2.4,1.5,3.8,1.4,1.8,0,2.7-.9,2.6-1.8,0-1.1-1.1-1.5-3.1-1.9-2.3-.5-3.8-1.1-3.8-2.9,0-1.6,1.6-3,3.8-3,1.5,0,2.9,.5,4.1,1.4l-.8,.9c-.9-.8-2.1-1.3-3.3-1.3-1.4,0-2.4,.9-2.4,1.8,0,1.1,1.2,1.4,3.1,1.8,2.2,.4,3.8,1.1,3.8,2.9h0Z" fill="#fe0d41"/>
          </g>
        </g>
      </g>
      <path d="M210.4,311.5h.1c.7-.2,1.1-.7,1.4-1.4,.5,.3,.6,.8,.6,1.3,0,.2,0,.4,.1,.5,.6,.7,1.3,1.2,2.2,1.4,.7,.2,1.4,.4,2,.7,2.2,1,4,2.6,5.5,4.4,.8,1,1.7,1.9,2.7,2.9v-.6c1.9,.4,3.5,1.3,4.9,2.7,.8,.8,1.6,1.6,2.4,2.4,1,1,1.8,2.1,2.2,3.4,.4,1.3,.2,2.4-.8,3.4-1,.9-2,1.1-3.1,.3-.4-.3-.8-.7-1.2-1-.4-.4-.8-.9-1.2-1.4-2.8-3.6-6.2-6.5-10.4-8.4-1.7-.8-3.4-1.5-5.2-1.6-2.6-.2-4.7-1.2-6.4-3.2-2.4-2.7-4.3-5.6-5.7-8.9-1.3-2.8-2.6-5.5-4.2-8.1-1.1-1.8-2.7-3.1-4.6-3.9,0,0-.2,0-.3,0h0l1.3,1c-.6,0-1,0-1.4,.2-.4,0-.9,.1-1.3,.2-5,1.1-9.7,2.8-14.4,4.8-1.7,.7-3.3,1.6-4.8,2.5-.3,.2-.6,.3-1,.2-.4-.1-.8-.2-1.3-.3h0l1.4,.8c-.2,.4-.3,.9-.5,1.3-1.6,3.9-3.3,7.8-5.7,11.4-.2,.3-.5,.7-.5,1.1-.1,.8-.5,1.4-1,1.8,0,0-.1,.1-.2,.2,.2,0,.3,0,.4,0,.4-.4,.7-.2,1,.2,.7,.9,.7,2,.5,3,0,.2-.2,.4-.4,.5-1.6,.7-3.3,1.1-5,1-.2,0-.4,0-.6,0-1.6,.7-3.2,1.1-4.9,1.3-.9,.1-1.9,.1-2.8-.3-.6-.3-.7-.7-.7-1.3,0-.5,.2-.9,.6-1.2,1.4-.9,2.8-1.8,4.2-2.8,1.1-.8,2.2-1.7,3.4-2.4,.9-.5,1.2-1.2,1.4-2.1,.7-4.2,1.7-8.4,3.4-12.3,.5-1.1,.9-2.2,1.1-3.3,.5-2.2,1.4-4.2,3.2-5.6,.9-.7,2-1.2,2.9-1.8,3.8-2.3,7.6-4.5,11.4-6.8,.3-.2,.6-.3,.8-.5l1.4,1.3,1.8,1h0l-1.8-1.2c-.5-.4-1-1-1.1-1.7,0-.7,0-1.5-.5-2.1,0,0,0,0,0-.1,1.7,.9,3.5,1.7,5.5,1.9-1.6-.6-3.1-1.1-4.5-1.8-.9-.4-1.6-1.1-2.3-1.7-.4-.3-.5-.9-.8-1.4h.6v-.2c-.6-.2-1.2-.4-1.8-.7-.3-.1-.6-.2-.8-.5-1.5-1.6-2.6-3.5-3.6-5.5-.2-.3-.3-.4-.7-.4-2.6,.6-5.1,1.5-7.5,2.9-.3,.2-.7,.3-1.1,.4-1.5,.3-3,.1-4.5-.2-1-.2-2,0-2.9,.2-.6,.1-1.1,.3-1.7,.3-.8,0-.9,0-1-.9,0,0,0,0,0,0l-.2,.8c-2,0-4,0-6-.5-.5-.1-1.1,0-1.6,0-.4,0-.9,0-1.3,0-.5,0-.8-.3-.7-.9,0-.1,0-.3,0-.3-.4-.4-.9-.9-1.3-1.3-.1,0-.2,.1-.3,.2-.6,.4-1,.3-1.1-.5,0-.4,0-.9,0-1.4,0-.4,0-.5-.4-.6-4.9-1.4-9.8-2.9-14.7-4.3-6-1.7-12.1-3.2-18.3-4.5v-.2l1.1,.2h.2c2.7,.6,5.5,1,8.2,1.7,7.9,2,15.9,4.1,23.8,6.1,.1,0,.2,0,.3,0,.2-.5,.4-1,.7-1.4,.2-.2,.5-.5,.8-.4,.3,0,.5,.4,.6,.7,.1,.3,0,.7,.1,1.1,.5-.5,1.1-.4,1.6-.2,.9,.3,1.7,.7,2.5,1.1,.1,0,.3,.2,.5,.1,1.5-.3,3.1-.2,4.6,0,.6,.1,1,0,1.6-.2,1.1-.7,2.4-.6,3.7-.6,0,0,.2,.2,.3,.4,.2,.6,.4,1.3,.7,1.9,.1,.3,.3,.6,.4,.9h0l-.9-3.2c1,0,1.9-.1,2.7-.2,.9,0,.9,0,1.2,.8,0,0,0,0,0,0,.1-.4,.2-.8,.4-1.1,.5-.5,1.1-1.1,1.7-1.4,1.3-.7,2.3-1.7,3.4-2.7,.4-.4,.9-.8,1.3-1.2,.2-.2,.4-.3,.7-.2,.5,.1,.9,.2,1.4,.3,1,.1,1.9,0,2.8-.5,.6-.4,1-.9,1.2-1.6-.2,0-.3,.2-.4,.4-.5,.7-1.2,1.3-2.1,1.4-2.3,.3-3.7-.3-4.6-2.3-.2-.4-.3-.7-.4-1.1-.6-1.9-.7-3.9-.6-5.9,.1-1.9,.4-3.7,1.3-5.4,.7-1.3,1.9-1.8,3.3-1.4,.5,.1,.9,.4,1.4,.6,.2,0,.3,.1,.5,.2-.6-.8-1.5-1.2-2.4-1.3,.2-.1,.5-.2,.7-.2,2.2-.4,4.3-.4,6.5-.4,1.1,0,2,.5,2.7,1.3,.7,.8,1.1,1.7,1.4,2.7,.4,1.5,.6,2.9,.7,4.4h-2.9c.4,.1,.8,.2,1.2,.2,.4,0,.8,.1,1.2,.2,.9,.2,1.4,.8,1.3,1.7,0,.6-.2,1.2-.4,1.8,0,.2-.1,.3-.2,.5h.1c.2-.2,.4-.5,.6-.8,.2-.3,.4-.4,.7-.2,1.9,.8,3.8,1.5,5.8,2.2,.1,0,.2,.1,.3,.2l-1.9,.6v.2c.6-.1,1.2-.2,1.8-.3,.2,0,.5,0,.7,.1,.3,.1,.6,.3,.9,.5,.5,.3,1,.5,1.5,.8,.8,.6,1.2,1.4,1.4,2.4-1.9-1.4-2.2-1.5-2.8-1.3,0,0,.1,0,.2,.1,2.3,1.6,4.7,3.2,7,4.8,.4,.2,.6,.6,.9,.9h0l-1.6-.2c1,.5,1.9,.9,2.8,1.3,2.2,1,4.1,2.5,5.7,4.4,1.1,1.4,2.3,2.7,3.8,3.8,.4,.3,.8,.7,1.1,1.1,.1,.1,.2,.3,.3,.4-.1,0-.2,0-.3,0,0,0-.1,0-.3,0,.2,0,.2,.2,.3,.2,1.5,.8,2.5,1.9,2.4,3.7,0,.1,.1,.3,.2,.4,.4,.5,.9,1,1.3,1.5,.4,.4,.3,.8,0,1.3,0,.1-.1,.3-.1,.5,0,.4,0,.8-.2,1.1-.2,.5-.5,1-.7,1.5-.3,.9-1.4,1.5-2.2,1.2-.3-.1-.6-.4-.9-.7-.4-.3-.3-.6,0-.8-.3-.7-1.3-1.4-.4-2.2-.3-.7-.6-1.4-.9-2.1,0-.1-.2-.3-.4-.4-.4-.2-.8-.2-1.1-.4-.8-.4-.9-1.1-.5-1.8,0,0,0-.1,0-.3-.2,.1-.3,.2-.3,.3-.3,.5-.7,.4-.9,0-.3-.4-.4-.9-.6-1.3,0-.1,0-.3-.1-.4-.7-.7-1.3-1.6-2.4-1.7-.9,0-1.2-.5-1.2-1.4,0,0,0-.1,0-.2-.1,0-.2,0-.3,0-1.3,0-2.2-.4-2.9-1.6-.8-1.5-2.1-2.6-3.7-3.3h0c0,.1,0,.3,.1,.4,.9,1.3,1.7,2.6,2.6,3.8,.8,1.1,1.6,2.1,1.7,3.5l.3-.8c.7,.6,1,1.4,1.2,2.2,0,.4,.2,.7,.3,1,1.7,3,2.5,6.1,2.1,9.6,0,.5-.1,1-.2,1.4h.1l.6-1.7c0,0,.1,.1,.1,.2,1.8,4.7,3.5,9.4,4.6,14.3,.1,.6,0,1.1-.4,1.6-.1,.2-.3,.3-.5,.5h0Zm-49.7-36.2s0,0,0,0c0,0,0,0,0,0,0,0,0,0,0,0,0,0,0,0,0,0Zm7.8,29.9h0Zm56.6,16.3h0Z" fill="url(#uuid-f104e9af-0f16-4195-a3a8-39f72622a974)"/>
      <g>
        <path d="M92.2,267.6l7.2-3.1s2-1.7,4.5-.9c2.5,.8,4.2,6.3,4.5,7.3s1.4,6.8,0,8.2c0,0,.8,0,1,.2s.7,.3,.7,.3c0,0,.2-.7,.6-.8,.4-.1,2.1,0,2.1,0,0,0,3.1-1.8,3.8-2.1s3-1.1,3-1.1c0,0,0-.5,.3-.6,.2,0,.4,0,.4,0,0,0,2.4-1.6,3.6-2,1.2-.4,2.4-1,2.6-1,.2,0,.9,0,1.1-.1,.2,0,2.4-1.2,2.7-1.3,.3,0,.6,0,.6,0,0,0,.4-1.3,1-1.7,.6-.4,2.5-1.5,4.1-.6s3.6,3,2.3,6.5c0,0,0,.7-.9,1.2s-2,1.1-2.6,1-1.9-.6-2.6-1.6c0,0-2,1.9-2.6,1.9s-1.5-.2-1.7,0-.6,.8-.8,.9c-.1,.2-1.2,.5-1.7,.9s-1.2,1.4-1.4,1.4c-.2,0-.5,0-.5,0,0,0-1.6,1.4-2.8,2.1s-3,1.1-4.1,1.2-1.1,0-1.4,.3c-.2,.2-7.5,3.8-10,4.6,0,0-.2,1-.4,1.5s-.6,1.1-.6,1.4c0,.3-.7,2.9-.9,3.3-.2,.4-.8,2.3-1.5,2.7,0,0,1,.2,1.9,1.1s1.1,1.4,1.3,2.6c.2,1.2,.4,4.7,.5,5.1s.5,3.3,.7,4c.2,.7,.5,6.2,.8,7.2s.7,2.6,.9,3.1c.2,.6,.7,1.4,.6,1.7,0,0,.2,.3,.2,.5s0,.5,0,.5c0,0,.2,.2,.3,.4,0,.2,0,.5,0,.5l.2,.4s.8-.1,1.4,.3c.6,.5,.3,2,.3,2l2.6,2.5s2.3,1.6,2.6,2c.2,.4,.2,1.1,.2,1.1,0,0,0,.1-.2,.2-.2,.1-12.3,0-12.3,0,0,0-.7-.5-.7-1.3,0-.7,0-1.7,.2-1.9,.2-.2,.3-.2,.4-.4,0-.2,.2-.9,.2-.9,0,0-.2-1.7,.2-1.6,.4,0,.5-.2,.5-.2v-.3c0,0-.6,0-.7-.3-.1-.3,0-.8-.2-1.1,0-.3-.6-.6-.8-1-.2-.5-1.3-5.1-1.9-6.4s-1-2.5-1.4-3.3c-.4-.8-1.8-3.4-2-5.1,0,0-2.5,1.3-3,1.8-.4,.5-4.9,4.2-6.9,5.4-2,1.2-5.1,2.1-5.1,2.1,0,0-2.7,2.4-3.5,3.3-.8,.9-2.2,3.1-2.8,3.4-.6,.2-1,0-1,0,0,0-.7,.8-1,1-.3,.2-2.4,.9-3,1.1s-1.8,.3-1.9,.4c-.1,.1-1.6,.8-2,.7s-1.4-.1-2-.3c-.6-.2-1.3-.2-1.8,0-.6,.1-2.9,1-3.6,1.3-.7,.2-4.5,.9-4.5,.9,0,0,.4,.3,.5,.8,0,.5,.2,1.3-1,1.7h-10.8s-1.4-1.1-1.1-2.6c.3-1.4,.8-2.2,2-2.4,1.2-.2,2.2,0,2.4,0,.1,0,.8,.2,.8,.2,0,0,.5-.5,.8-.5s.7,.2,.9,0,3.4-1.8,5-2.9c1.6-1.1,3.5-2.3,4.5-2.6,.9-.3,3.8-.6,4.5-.7l1.1-.2s.6-.6,1-.7c.4-.1,1.1,0,1.1,0,0,0,0-.5,.2-.6s1.2,0,1.2,0c0,0,1.9-2.3,2.6-2.9,.7-.6,1.4-1.4,1.4-1.4,0,0,0-1.1,.9-1.8,0,0-.4-1.7-.2-3.3,.2-1.6,2.8-6,2.8-6l2.6-3.9,1.3-1s-.5-.3-.3-.5,1.2-1.1,1.3-1.4c.1-.3,.9-3,1.4-3.8,.5-.8,2.2-1.9,2.2-2.1s0-1.1,.3-1.5c.2-.3,.4-.4,.5-.7,0-.2,0-1.1,0-1.1,0,0-2.6-.2-3.7-.7-1-.5-2.6-2.1-3.4-2.3s-4.4-1.6-5-1.8-2.2-.3-2.5-.6c-.3-.3-.7-.9-.7-.9,0,0-1.5-.7-1.6-1.2-.1-.6,.2-.9,.2-.9l-.7-.4s-.3,0-.6,0-.5,0-.5,0c0,0-.5-.3-.8-.4s-.5-.1-.7-.6c-.2-.5-.2-1.3-.2-1.3,0,0,0-.9,.2-1.1,0,0,0-.8,.8-.9,0,0,0-.6,.2-.6s.9,0,.9,0v-.2c.1,0,.5-.2,.7-.2s.6,.2,.8,.3c.2,.1,1.1,1.5,1.4,1.8,.2,.2,1.5,1,1.5,1,0,0,.3,0,.6,0,.3,0,1,.5,1.2,.6,.2,0,1.4,.6,1.4,.6l2.5,.9s1.7,.3,1.8,.4c0,0,.8,.3,.8,.3h.6s.6-.2,.9,0c.2,0,2.1,.4,2.1,.4,0,0,2.4,0,2.5,.1,0,0,.9-.4,1.1-.4s1.7-.2,1.7-.1c0,0,.9-.9,1.2-1s.5-.1,.6-.2c0,0,.3-.9,.2-1,0,0-.2-.7-.5-.8-.2-.1-.7-1-.7-1,0,0-.4,0-.6-.4s.5-3.9,.5-3.9l.4-2.3s.3-.2,.9-.2h.4s-.2-1,.6-1.7Z" fill="url(#uuid-c65df955-e1fd-4044-a92d-00effca3ad27)"/>
        <path d="M136.1,270.9c-.1,0-.2,0-.3-.2,0-.2,0-.3,.2-.4,.2,0,23.2-10.2,34.6-27.1,0-.2,.3-.2,.4,0s.2,.3,0,.4c-11.5,17-34.7,27.2-34.9,27.3,0,0,0,0-.2,0Z" fill="url(#uuid-4eb34563-34d5-4529-8fbd-65c586e95dd2)"/>
      </g>
      <circle cx="291.6" cy="127.8" r="42.5" fill="#0f0941"/>
      <circle cx="291.6" cy="127.8" r="39.1" fill="url(#uuid-83d80750-fcc7-4130-b206-afc9da6b3883)"/>
      <rect x="11" y="241.6" width="83.7" height="4.1" fill="#fe0d41"/>
      <g>
        <g>
          <g>
            <polygon points="318.8 285.9 297.9 307.6 281.2 324.3 280.7 323.8 318.7 285.8 318.8 285.9" fill="url(#uuid-e36bb17a-5678-4ca5-946c-68acfcaf6164)"/>
            <rect x="281.8" y="319.2" width="2" height="5.9" transform="translate(310.7 -105.6) rotate(45)" fill="url(#uuid-3a780355-c236-4c2a-9913-453547176180)"/>
            <path d="M285,318.2h.6c1.6,0,2.9,1.3,2.9,2.9h-6.4c0-1.6,1.3-2.9,2.9-2.9Z" transform="translate(309.6 -108.1) rotate(45)" fill="#d0d2d3"/>
            <circle cx="318.8" cy="285.8" r=".7" fill="#dedfe0"/>
            <circle cx="279.9" cy="325.1" r="1.5" fill="#f1f1f2"/>
          </g>
          <g>
            <polygon points="279.1 285.9 300 307.6 316.7 324.3 317.1 323.8 279.2 285.8 279.1 285.9" fill="url(#uuid-dde8cda0-46c4-41a1-9853-83e951070f4a)"/>
            <rect x="314.1" y="319.2" width="2" height="5.9" transform="translate(765.6 327.2) rotate(135)" fill="url(#uuid-89fca692-1bd1-46b8-bd5d-3ddda33c7773)"/>
            <path d="M309.4,318.2h6.4c0,1.6-1.3,2.9-2.9,2.9h-.6c-1.6,0-2.9-1.3-2.9-2.9h0Z" transform="translate(759.6 324.7) rotate(135)" fill="#d0d2d3"/>
            <circle cx="279.1" cy="285.8" r=".7" fill="#dedfe0"/>
            <circle cx="317.9" cy="325.1" r="1.5" fill="#f1f1f2"/>
          </g>
        </g>
        <g>
          <path d="M292,305c0,0,0,.5,.2,1.3,.4,1.9,.5,2.1,.4,2.6,0,.5,0,1.2-.5,1.8-.4,.6-.6,.4-1.1,1,0,.1-.9,1.1-.6,2.2,0,.2,.2,.7,1,1.5,1,1,2.1,1.5,2.9,1.8,1.6,.6,3,.7,4.3,.7,1.1,0,2.1,0,3.4-.2,.8-.2,2.6-.6,4.2-1.9,1.3-1.2,1.4-1.9,1.4-2.1,0-.5-.2-1-.3-1.1-.4-.7-.9-.8-1.5-1.7,0,0-.2-.3-.3-.6-.6-1.4-.2-3.1,.1-4.3,.2-.8,.4-1.1,.2-1.4-.3-.5-1.3-.5-1.7-.4-1.8,0-3.6-.2-5.4-.1-4.4,.3-6.3,0-6.7,.8Z" fill="url(#uuid-8d1284fb-36c0-41ca-aaed-52ce12bc7d18)"/>
          <path d="M292.2,306.3c-.7-5.2,2.8-11.5,6.5-11.5,3.7,0,7.5,6.1,6.8,11.3-.5,3.6-3.2,8.2-6.8,8.2-3.5,0-6-4.6-6.5-8Z" fill="url(#uuid-e7c7f0ab-b895-4733-8dd4-89c1ed2964b1)" mix-blend-mode="multiply"/>
          <path d="M298.4,293.2c1.5,0,2.6,.3,2.9,.5,1.3,.5,2.1,1.4,2.5,1.9,.2,.2,1.1,1.3,1.7,3,.4,1.2,.4,2.1,.4,3.4,0,1.2,0,2.6-.4,4.3-.2,.7-.7,2.3-1.9,3.9-.6,.8-1.2,1.7-2.3,2.3-.3,.2-.9,.5-1.8,.6-2,.3-3.6-.8-4.1-1.2-.6-.5-.9-.9-1.3-1.5-.4-.5-1.2-1.8-1.9-3.9-.4-1.4-1-3.5-.6-6.2,.2-1.3,.5-2.8,1.7-4.3,.2-.3,2.1-2.4,5.1-2.6Z" fill="url(#uuid-abf63ef1-a59b-4cd5-b2f6-6b8942b35738)"/>
          <path d="M298.4,293.1c1.5,0,2.6,.3,2.9,.5,1.3,.5,2.1,1.4,2.5,1.9,.2,.2,1.1,1.3,1.7,3,.4,1.2,.4,2.1,.4,3.4,0,1.2,0,2.6-.4,4.3-.2,.7-.7,2.3-1.9,3.9-.6,.8-1.2,1.7-2.3,2.3-.3,.2-.9,.5-1.8,.6-2,.3-3.6-.8-4.1-1.2-.6-.5-.9-.9-1.3-1.5-.4-.5-1.2-1.8-1.9-3.9-.4-1.4-1-3.5-.6-6.2,.2-1.3,.5-2.8,1.7-4.3,.2-.3,2.1-2.4,5.1-2.6Z" fill="url(#uuid-f5427f01-a834-4577-943c-166d93904a66)" mix-blend-mode="multiply"/>
        </g>
      </g>
      <g>
        <path d="M323.1,127.3v6.1c0,1.5-1.3,2.8-2.8,2.8h-13.7c-1.5,0-2.8-1.3-2.8-2.8v-13.7c0-1.5,1.3-2.8,2.8-2.8h6.2c.4,0,.8,.3,.8,.8h0c0,.5-.3,.8-.8,.8h-5.9c-.9,0-1.7,.8-1.7,1.7v13c0,.9,.8,1.7,1.7,1.7h13c.9,0,1.7-.8,1.7-1.7v-5.8c0-.4,.3-.8,.8-.8h0c.4,0,.8,.3,.8,.8Z" fill="#fff"/>
        <g>
          <path d="M322.7,115.6h0c1.8,0,3.2,1.4,3.2,3.2v.5h-6.4v-.5c0-1.8,1.4-3.2,3.2-3.2Z" transform="translate(177.5 -193.8) rotate(45)" fill="#fff"/>
          <path d="M322.9,121.8l-6.8,6.8h-.3l-4.4,.6c-.2,0-.5-.2-.5-.5l.6-4.4v-.3l6.8-6.8,4.5,4.5Z" fill="#fff"/>
        </g>
      </g>
    </g>
  </g>
</svg>