<svg data-name="Layer 1" xmlns="http://www.w3.org/2000/svg" width="335" height="335" xmlns:xlink="http://www.w3.org/1999/xlink" viewBox="0 0 335 335"><defs><linearGradient id="b" x1="167.9" y1="745" x2="167.9" y2="1080" gradientTransform="translate(0 -745)" gradientUnits="userSpaceOnUse"><stop offset="0" stop-color="#fbee43"/><stop offset="0" stop-color="#fbe133"/><stop offset="0" stop-color="#fbd221"/><stop offset=".2" stop-color="#fbc915"/><stop offset=".2" stop-color="#fcc612"/><stop offset=".6" stop-color="#f18f40"/><stop offset=".8" stop-color="#ec683b"/><stop offset="1" stop-color="#d12026"/></linearGradient><linearGradient id="a" x1="290.5" y1="74.9" x2="326.8" y2="74.9" gradientUnits="userSpaceOnUse"><stop offset="0" stop-color="#f7f8f9"/><stop offset="1" stop-color="#fff"/></linearGradient><linearGradient id="d" x1="307.1" y1="75" x2="320.7" y2="75" xlink:href="#a"/><linearGradient id="e" x1="12.3" y1="187.1" x2="48.7" y2="187.1" gradientTransform="rotate(17.9 163.224 88.168)" xlink:href="#a"/><linearGradient id="f" x1="12.3" y1="198.9" x2="48.7" y2="198.9" gradientTransform="rotate(17.9 163.224 88.168)" xlink:href="#a"/><linearGradient id="g" x1="12.3" y1="208.7" x2="48.7" y2="208.7" gradientTransform="rotate(17.9 163.224 88.168)" xlink:href="#a"/><linearGradient id="h" x1="12.3" y1="192.8" x2="48.7" y2="192.8" gradientTransform="rotate(17.9 163.224 88.168)" xlink:href="#a"/><linearGradient id="i" x1="12.3" y1="185.8" x2="48.7" y2="185.8" gradientTransform="rotate(17.9 163.224 88.168)" xlink:href="#a"/><linearGradient id="j" x1="12.3" y1="183.3" x2="48.7" y2="183.3" gradientTransform="rotate(17.9 163.224 88.168)" xlink:href="#a"/><linearGradient id="k" x1="12.3" y1="185.4" x2="48.7" y2="185.4" gradientTransform="rotate(17.9 163.224 88.168)" xlink:href="#a"/><linearGradient id="l" x1="12.3" y1="193.1" x2="48.7" y2="193.1" gradientTransform="rotate(17.9 163.224 88.168)" xlink:href="#a"/><linearGradient id="m" x1="12.3" y1="204.8" x2="48.7" y2="204.8" gradientTransform="rotate(17.9 163.224 88.168)" xlink:href="#a"/><linearGradient id="n" x1="12.3" y1="197" x2="48.7" y2="197" gradientTransform="rotate(17.9 163.224 88.168)" xlink:href="#a"/><linearGradient id="o" x1="12.3" y1="197.4" x2="48.7" y2="197.4" gradientTransform="rotate(17.9 163.224 88.168)" xlink:href="#a"/><radialGradient id="c" cx="178.2" cy="378.2" fx="178.2" fy="378.2" r="8.7" gradientTransform="rotate(8.4 -3501.946 -2318.765) scale(1.9 -1.2)" gradientUnits="userSpaceOnUse"><stop offset="0" stop-color="#fff"/><stop offset="1" stop-color="#fff" stop-opacity="0"/></radialGradient></defs><path fill="url(#b)" d="M.8 0H335v335H.8z"/><path d="M19.8 78c-1.2-.4-2.5.2-2.9 1.3l-.8 2.1v.4l-5.5 14.4c-.4 1.1.2 2.4 1.4 2.9l23.4 9c1.2.5 2.5 0 3-1.2l5.5-14.4c.4-1.1-.2-2.4-1.4-2.9l-21.3-8.2.2-.5c.5-1.2 0-2.5-1.3-3h-.3Z"/><path d="M19.8 77.5c-1.2-.4-2.5.2-2.9 1.4l-.8 2.2v.4l-5.6 14.6c-.4 1.1.2 2.4 1.4 2.9l23.4 9c1.2.5 2.5 0 3-1.2l5.6-14.6c.4-1.1-.2-2.4-1.4-2.9l-21.3-8.2.2-.5c.5-1.2 0-2.5-1.3-3h-.3Z"/><path d="M19.8 77.5c-1.2-.4-2.5.2-2.9 1.4l-.8 2.2v.4l-5.6 14.6c-.4 1.1.2 2.4 1.4 2.9l23.4 9c1.2.5 2.5 0 3-1.2l5.6-14.6c.4-1.1-.2-2.4-1.4-2.9l-21.3-8.2.2-.5c.5-1.2 0-2.5-1.3-3h-.3Z" fill="url(#c)" opacity=".2"/><path fill="#717272" d="m15.8 81.8.9-2.3 27.7 10.6-.9 2.3-27.7-10.6z"/><path d="m15.9 81.6.8-2.3 27.8 10.6-.9 2.4-27.7-10.7z"/><path d="m40.4 88.4 3.6 1.4-2.4 1.7-3.7-1.4 2.5-1.7zM34 85.9l3.6 1.4-2.5 1.7-3.6-1.4 2.5-1.7zm-6.6-2.5 3.6 1.4-2.4 1.7-3.7-1.4 2.5-1.7zm-6.5-2.5 3.6 1.4-2.4 1.7-3.5-1.4 2.3-1.7z" fill="#fff"/><path fill="#717272" d="m17.1 77.2 29.4 1.3v2.6l-29.4-1.3v-2.6z"/><path d="m17.2 79.9 29.5.2-.1-2.4-29.5-.3.1 2.5z"/><path d="M42.4 80.1h3.8l-1.7-2.5h-3.8l1.7 2.5zm-6.8-.1 3.8.1-1.7-2.5-3.9-.1 1.8 2.5zm-7.1 0h3.9l-1.7-2.5h-3.9l1.7 2.5zm-6.8-.1h3.8l-1.7-2.5H20l1.7 2.5z" fill="#fff"/><path d="M8.5 0C6 3.1 3.4 6.1.8 9.1v1.1c3-3.6 5.7-7 8.3-10.2h-.6Zm21 0C18.4 11.8 8.9 22 .8 30.8v.3c8.1-8.8 17.7-19 29.1-31.1h-.4Z" fill="#ee3a38"/><path d="M20.5 0H9.1C6.5 3.2 3.8 6.6.8 10.2v11.7c2.6-3 5.3-6 7.9-8.9 4.2-4.7 8.1-9 11.8-13Z" fill="#d12026"/><path d="M20.5 0C16.9 4 13 8.3 8.8 13c-2.7 3-5.3 5.9-7.9 8.9v8.9c8-8.8 17.5-19 28.6-30.8h-9.1Z" fill="#f6a9ab" opacity=".3"/><path d="M.8 0v9.1c2.6-3 5.2-6 7.7-9.1H.8Z" fill="#df3230"/><path d="M335 31.1c-8.1-8.9-17.8-19.2-29-31.1h-.4c11.6 12.2 21.3 22.6 29.4 31.4v-.3Zm0-21.6c-2.7-3.1-5.4-6.3-8-9.5h-.6c2.7 3.3 5.5 6.8 8.6 10.6V9.5Z" fill="#ee3a38"/><path d="M335 22.3V10.6c-3.1-3.8-6-7.3-8.6-10.6H315c3.6 4 7.5 8.3 11.7 13 2.8 3.1 5.5 6.2 8.2 9.3Z" fill="#d12026"/><path d="M335 22.3c-2.7-3.1-5.5-6.2-8.2-9.3-4.2-4.7-8.1-9-11.7-13h-9.2c11.3 12 20.9 22.3 29 31.1v-8.9Z" fill="#f6a9ab" opacity=".3"/><path d="M335 0h-8c2.6 3.2 5.3 6.3 8 9.5V0Z" fill="#df3230"/><g fill="#fff"><path d="M333.7 314h.2c.3.2.7.3 1 .5v-1.9c-3-.3-6-.5-8.9-.8s0 0-.1 0v-1.2h.8-.7v1.2c3 .3 6 .5 8.9.8v-3.5c-2-.1-4-.2-6.1.2-1.5 0-3-.1-4.5-.2-1-.3-2.4-.2-2.2-1.5 1.9 0 4 .7 5.3-1.1.7 0 1.6 0 1.4-.8s-1.3-.6-2.2-.7c-3.1-.4-6.3-.6-9.3-1.2-2.2-.6-4.7-.9-7.1-.1-.3-.6-.8-1-1.6-.8-.3 0-.8.3-1 .7-2.1-.3-4.1-1.1-6.3-.4-1.4 0-3 0-4.4-.1-.3.2-.3.4-.4.6-.5-1.1-1.5-2-3.6-1.8-1.2-.4-2.3-1-3.5-1.4-.8-.2-1.5 0-1.6.7-.1 1 .9.7 1.5.7h1.9c.3 2.3 2.4 2.6 4.5 3.2-2.1 0-4.2 0-6.3.3-2.1 0-5.9-.3-5.9-.1-.1.6-.3.8-.5 1-1.4 0-2.9-.2-4.3-.2h-2.1c-.4 0-.9.1-1.3.2-1.1 0-2.2.1-3.3.2h-.9c-2.1-1.4-3.7-.8-5.5-.1-.8-.7-1.4-.9-2.1 0-3.3-.6-6.6-1.4-10.1-.6-1.5 0-3-.1-4.5-.2-.7.2-1.3.4-2 .6-.7.3-1.3.7-1.9 1-.2-.3-.3-.7-.7-1-.3-.4-.7-.8-1.2 0-.8.9-1.6 1-2.6.9-.4-.9-1-.8-1.6-.3-.2 0-.4 0-.7-.1-8.8-2.1-17.6-1-26.3.6-1.5.2-3.2-.3-4.7.1-1.6-.2-3.3-.3-4.9 0-.1-.1 0-.4-.1-.7 0 0 .1 0 .2.1.3-.2.5-.4.8-.8.2-.3.1-.8-.3-.7-.3 0-.7.2-1 .4 0-.2 0-.4-.4-.4-1.2 0-3.2 0-3.4 1.7-3.8-1.4-6.6-1.7-9.3-.6 0-.7 0-1.3-1.3-1.7-2.1-.4-3.2.7-4.2 1.9-1.2-.1-2.4-.2-3.6-.4 0-.6-.4-1.5-1-1.1-.9.7-.4 1.2.2 1.9-1.1.3-2.2.7-3.3.8-.2-.1-.3-.2-.5-.4 0-.8-.1-1.5-.2-2.3-.3 0-1 0-1.1.2-.5.8.2 1.5.4 2.3-1.3.7-2.4.7-3.5.3-2.3-1.5-7.2-2.8-9.4-1.9-1 .4.2.9.8 1.2 0 .2-.2.4-.2.7h-.1c-1.3 0-3.2-3.5-4.1.4-5.1.2-.8-2.4-1.3-3.4-2.1 0-1.9 1-2.1 1.9-.7.2-1.3.3-2 .6-1.4-.6-3.5.1-4.4-1.4-1.6-.3-2.6.6-3.7 1.2-.8 0-1.4-.3-2.2-.2-1 0-1.5.4-2 1.1 0-.1 0-.3-.3-.4-2.3-1.2-4.7-1.8-7.5-.8-1.2.2-2.4.4-3.6.7-2.1-.2-4.3-.3-6.4-.6-3-1.1-4.1.3-5.2 1.9h-1.3c-1.6-1.8-4.2-.7-6.5-.4-1.4.9-1.9-3.2-3.6-.4-1.4.4-3.5-.9-4.4.9h-3.5c-.9-2.5-4.1-.2-5.8-1-1.9-1-3.7-1.3-5.6.1-3-1.1-5.8-1.1-8.5.8h-1.4c-.3-.7.4-2-.9-1.9-1.6 0-3.5.4-3.6 2.2.2.4.3 1 .5 1.4-1 .7-2.6.1-3.3 1.3-.4.7-1.3.6-2 .7-2.7-.4-5.1.8-7.5 1.4-.4 0-1 0-1.4.1-.8-1.1-2.7.1-3.5-1.1.3-.2.8-.4 1.1-.7 1.8-.2 4.1.6 4.7-1.7h1.8c.3 1.3 1.4 1 2.5.8 1.1 0 2.1.9 3.5.3-1.2-1.3.2-3.7-2.5-4.3-2-.4-1.1 1.9-2.6 2.3 0-.6 0-1.3-.2-1.5-1.2-.6-1.4.9-2.3 1-1.4-.4-.4-1.8-1.5-2.3-.5-1-1.1-1-1.9-.1-3 .7-6.2.4-8.7 2.2-.3-.2-.8-.3-1.1-.6h.7c-.8-.7-1.4-.8-2-.6-.2-.1-.5-.2-.8-.3h-.9c-.8-3.3-3.1.6-4.3-.4-1.5-1.4-3.2-.7-4.8-.2h-1.2c.3-.3.2-.8-.2-1.1-1-.9-1.3 0-1.8.7-2.4.3-3.6-.7-4.3-2.3-.3-.7-1.1-.8-1.9-.9.2-3 5.3-.7 5.9-3.2-2.4-.1-4.7-.3-7-.4-.5-2.4-3.1-1.7-4.8-1.7s-3.3 0-2.4 1.9c-1.3 1.1-3.4 0-4.8 1-2.5.4-4.8 1.1-5.9 3.1-1.6.3-2.6 1.3-4 2-.7-.2-1.3-.4-2-.5v30h334v-20.4c-.4-.2-.8-.4-1.3-.6Zm.1-3.7.3.3c-.3 0-.8.3-1.1.2.3 0 .7-.1 1-.2l-.3-.3h.1Zm-2.3-.1c-.7.4-1.4.5-2.1.5.7 0 1.3-.1 2-.5h.1Zm-34.7-5.9Zm.1.8c0-.2-.2-.4-.2-.7h.1c0 .2.2.3.2.5h1.1v.1h-1.2Z"/><path d="M132.1 303.2c2.1-1.3 5.3.3 7-1.7 2.4-.8 1.8 3 4.4 1.8 1.1-1.2 3-1 4.7-1.3-2-2.5-3.7-.9-5.5-.3h-.1c-.9-1.1-2-1.5-3.5-1-2.1 0-4.1-.2-6.2-.2s-1.6.9-2 1.7c-.2.6.8 1.4 1.1 1.1Zm113.9-1.3c-.7 1.2.9.9 1.5 1 1.3.2 2.6.2 4 .3 5.4.7 10.8-.3 16.4-.2 1.2.4 2.3 1.2 3.7.3 2.1 0 4.2.2 6.3.2s1.6.3 2.2.1c1.1-.6 1.9-3.1 3.1 0 0 0 1.2 0 1.5-.3.7-.4.4-1-.1-1.5-2.7-2.6-5.3-2.4-7.4.6h-.9c-1.5.2-3.1.3-4.5-.3.4-2-.5-2.9-3.1-2.8h-4.8c-1.8-.1-3.5-.6-4.6 1 .2 1 2 .8 2.4 1.5-3.1-.6-7.6 1.8-9.1-2.5 0-.3-1.4-.4-2.1.4-.5.8-1.6 1.2-2.5 1.9-.7 0-1.9 0-2 .3Zm21.9.3h.1Zm-116.3 1.5c1.3 0 1.9-.9 2.6-1.4.9 0 2.7.4 2.4-.6h.1c-.4-1.9-2.3-1.9-4.1-1.1-.7.7-1.3 1.4-2 2.1-.7 0-1.9 0-1.5.8.4 1.1 1.5.6 2.4.2Zm-40.4-.1c1.4 0 3 .2 4.4.3 0-1.1-1.9-.3-1.5-1.2 4.2-.7 8.2-.8 13.5-.3-4.3-2.6-11.6-3.1-16-1.7-3.2.8-1.5 1.8-.3 2.9Zm88.1-1.1c1.3-.2 2.7.8 4.1-.6-2.1-.8-3.8-1.4-5.9-.3-2.4 0-5.1-.8-7 1.4h.1c3.2.6 6 0 8.8-.6Zm-19.8.2c1.2.8 2.7.6 4.2 0 1.4-.6 3.3.6 4.5-1-1.5-1.9-3.5-.3-5.2-.4h-.1c-.9-1-1.9-.9-2.7 0-.4.4-1.3 1.1-.7 1.4Zm67.1-2.4c.7 0 1.1-.3 1.2-1.1-.3-.4-1-.7-1.8-.7s-1 0-.9.6c0 .7.7 1.1 1.4 1.2Zm-22.6 1.8c1.2 0 2.4 0 3.6.1 2-.7 2.7 1.1 4.4 1.1s2.1.3 2.9-.4c1.1-.4 2.2-.9 1.5-2.1-.4-.7-.7-1.9-2.1-.8-.9-.3-1.8-.7-2.6-.9-2.1-.4-1.8 2.3-4 1.9-.9 0-1.8-.1-2.6-.2-2.7-1.3-4.4 1.2-6.8.8 1.9 1.5 3.8.3 5.7.6Zm-13.8.2c.5.7 1.8.3 2.4-.7-.4 0-1-.2-1.2 0-.4.2-2.3-.6-1.2.8Zm-124.8-1.2c.4.1 1 0 .8-.4 0-.2-.5-.4-1-.8-.2.2-.7.4-.5.6.2.2.4.6.8.7Zm-5.8 1.4c.9-.1 2-.9 2.2-1.5.3-.9-.9-.9-1.8-1-1 0-1.8 0-1.5 1.1h-.1c.2.7 0 1.7 1.2 1.4Zm28.5-2.2c-2 .6-3.2.9-4.5 1.2 1.4 0 3.2 1.1 4.5-1.2Zm-11.5 2.2c1.9 1.2 4.1 1.1 6.6 1-1.6-1.1-3.7-.1-4.7-1.5 0 0 .3-.1.3-.2v-.3h.1c-.9-.9-2.5-1.6-3.5-1-1.1.8-.7 2 1.2 2.1Zm69.8.7c1.2 0 2.5.2 3.2-.9.3-.4 0-.8-.7-1.1-1.6-.9-3-.8-4.3.4-1-.1-1.5 0-1 .9s1.3 1.7 2.7.7Z"/><path d="M99 301.4h-.1l.1.1Zm-42-1.2c-1.3-.9-2.6-1.4-4.7-.6 1.8 1 3.1 1.1 4.7.6Zm-14.6-1.3c1.9.2 3.4 1.2 5.4 1.1 1 0 2.2 1.2 2.9.2.7-1-1.1-1-1.8-1.5-2.2-1.2-4.6-1.1-7-1.1-2.5.9-5.6.2-7.8 2h-.2c3 0 5.9.8 8.6-.7Zm23.4 2.4c1.1 2.6 4.1 1.2 6.3 1.7 3.3-.8.9-1.8.2-2.6-1-.6-1.9-2.3-3-1.3-1.5 1.3.3 2.2 1.9 2.6v.6c-1.6-.2-4 .4-4.4-1.8 0-.8 0-1.4-1.3-1.4-.3.1-.9.4-1 .7 0 .8.5 1.3 1.3 1.7Z"/></g><path d="M38.4 16.1c0 .3 0 .6-.3.8l-3.4 3.4-3.7-2.1v-2.1c0-.6.5-1.1 1.1-1.1s1.1.5 1.1 1.1v2.6l3.4-3.4c.4-.4 1.1-.4 1.5 0s.3.5.3.8m-1 9.9H37s-.3-.1-.4-.2l-3.4-3.4V25c0 .6-.5 1.1-1.1 1.1S31 25.6 31 25v-2.1l3.7-2.1 3.4 3.4c.7.7.2 1.9-.8 1.9m-2.8-5.7-.9-.6-2.5-1.4-2.1-1.2h-.3v6.5c0 .1 0 .2.2.2l2.1-1.2 3.4-2v-.2Zm-.8 0L31.1 22l-1.6.9h-.3V18c0-.1 0-.2.2-.2l1.6.9 2.6 1.5v.2Z"/><path d="m33 20.5-2 1.1-1.2.7h-.2v-3.8l1.2.7 2 1.1m23.6.1-3-1.6-1.9-.9s-.3 0-.3.2v5c0 .1.2.2.4.2l1.8-1 3-1.6v-.2Zm-.7-.1-2.3 1.2-1.4.8s-.3 0-.3-.1v-4.1l1.5.7 2.4 1.2v.3Z"/><path d="m55 20.5-1.7.9-1.1.6H52v-2.9l1.1.4 1.8.9m-14.2-2.5h2.6c1.3 0 2.2.7 2.2 1.7s-.9 1.8-2.2 1.8h-1.4v1.7h-1.2v-5.2Zm2.5 2.5c.6 0 1-.3 1-.8s-.4-.7-1.1-.7h-1.2v1.5h1.3Zm7.3 1.7v1h-4.2v-5.2h1.2v4.2h3Zm7.3-.9-2.3-3.3H57l1.5 2.3 1.5-2.3h1.4l-2.2 3.4v1.9H58v-1.9h-.2Zm4.3-3.1h.7V21l3-2.9h.9l-2.4 2.4 2.7 2.8h-.9l-2.3-2.4-.9.9v1.6h-.6v-5.2h-.2Zm4.9 2.6c0-1.5 1.3-2.7 3-2.7s3 1.2 3 2.7-1.3 2.7-3 2.8-3-1.2-3-2.7Zm5.3 0c0-1.2-1.1-2.1-2.3-2.1s-2.3 1-2.3 2.2 1.1 2.2 2.4 2.1c1.3 0 2.3-1 2.3-2.2Zm1.6 1.9.4-.5c.5.4 1.1.7 1.9.7s1.4-.5 1.4-.9c0-.6-.6-.8-1.6-1-1.2-.2-1.9-.5-1.9-1.5s.8-1.5 1.9-1.5 1.5.2 2.1.7l-.4.5c-.5-.4-1.1-.7-1.7-.7s-1.2.4-1.2.9.6.7 1.6.9c1.1.2 1.9.6 1.9 1.5s-.7 1.5-2 1.5-1.7-.3-2.3-.8v.2Zm5.6-4.5h.7l2.2 3.6 2.1-3.7h.7v5.2h-.6v-4l-2.2 3.7-2.2-3.6v4h-.6v-5.2Zm6.9 2.6c0-1.5 1.3-2.7 3-2.7s3 1.2 3 2.7-1.3 2.7-3 2.8-3-1.2-3-2.7Zm5.3 0c0-1.2-1.1-2.1-2.3-2.1s-2.3 1-2.3 2.2 1.1 2.2 2.4 2.1 2.3-1 2.3-2.2Zm1.6 1.9.4-.5c.5.4 1.1.7 1.9.7s1.4-.5 1.4-.9c0-.6-.6-.8-1.6-1-1.2-.2-1.9-.5-1.9-1.5s.8-1.5 1.9-1.5 1.5.2 2.1.7l-.4.5c-.5-.4-1.1-.7-1.7-.7s-1.2.4-1.2.9.6.7 1.6.9c1.1.2 1.9.6 1.9 1.5s-.7 1.5-2 1.5-1.7-.3-2.3-.8v.2ZM53.4 135.9h229.1v1.1H53.4z"/><g data-name="layer2"><path d="M132.3 153.1c.6-.5 1-1.2 1-2 0-1.4-1.2-2.6-2.6-2.6-1.3 0-2.4.9-2.6 2.2h-.3c-.4-.6-1.1-1-1.9-1-1.2 0-2.2 1-2.2 2.2s.7 1.9 1.7 2.1v.2h-.4l-.5-.2h-.4l.6 1.2h.2v-.3h.5v2.7h.7v.6l-1.7.3-.4-.2-1.3.3v.7l1.4-.3.3-.3 1.8-.4v-.8h6.7V153h-.6Zm-6.5.6c-.9 0-1.6-.7-1.6-1.6s.7-1.6 1.6-1.6 1.6.7 1.6 1.6-.7 1.6-1.6 1.6Zm1.8-.4c0-.2.3-.4.3-.6h.4l.6.6h-1.3Zm3-.1c-1.1 0-2-.9-2-2s.9-2 2-2 2 .9 2 2-.9 2-2 2Zm1.5 4.2v-.5s.2.1.2.2 0 .2-.2.2Z"/><path d="M127.1 158.1h4.3v.9h-4.3v-.9Zm8-4.9-1.3.8h-1v2h1l1.3.8v-3.6Zm-4.2-3.1c0 .2 0 .3-.3.3s-.3-.1-.3-.3 0-.3.3-.3.3.1.3.3Zm-.9.9c0 .2 0 .3-.3.3s-.3-.1-.3-.3 0-.3.3-.3.3.1.3.3Zm1.8-.1c0 .2 0 .3-.3.3s-.3-.1-.3-.3 0-.3.3-.3.3.1.3.3Zm-.3 1c0 .2 0 .3-.3.3s-.3-.1-.3-.3 0-.3.3-.3.3.1.3.3Zm-1 .1c0 .2 0 .3-.3.3s-.3-.1-.3-.3 0-.3.3-.3.3.1.3.3Zm-4.5-.9c0 .1 0 .2-.2.2s-.2-.1-.2-.2 0-.2.2-.2.2.1.2.2Zm-.7.7c0 .1 0 .2-.2.2s-.2-.1-.2-.2 0-.2.2-.2.2.1.2.2Zm1.5-.1c0 .1 0 .2-.2.2s-.2-.1-.2-.2 0-.2.2-.2.2.1.2.2Zm-.3.9c0 .1 0 .2-.2.2s-.2-.1-.2-.2 0-.2.2-.2.2.1.2.2Zm-.8.1c0 .1 0 .2-.2.2s-.2-.1-.2-.2 0-.2.2-.2.2.1.2.2Z"/><path d="M128.1 157h1.9v1.9h-1.9V157"/></g><g data-name="layer2-2"><path d="M210.4 153.1c.6-.5 1-1.2 1-2 0-1.4-1.2-2.6-2.6-2.6-1.3 0-2.4.9-2.6 2.2h-.3c-.4-.6-1.1-1-1.9-1-1.2 0-2.2 1-2.2 2.2s.7 1.9 1.7 2.1v.2h-.4l-.5-.2h-.4l.6 1.2h.2v-.3h.5v2.7h.7v.6l-1.7.3-.4-.2-1.3.3v.7l1.4-.3.3-.3 1.8-.4v-.8h6.7V153h-.6Zm-6.5.6c-.9 0-1.6-.7-1.6-1.6s.7-1.6 1.6-1.6 1.6.7 1.6 1.6-.7 1.6-1.6 1.6Zm1.8-.4c0-.2.3-.4.3-.6h.4l.6.6h-1.3Zm3-.1c-1.1 0-2-.9-2-2s.9-2 2-2 2 .9 2 2-.9 2-2 2Zm1.5 4.2v-.5s.2.1.2.2 0 .2-.2.2Z"/><path d="M205.2 158.1h4.3v.9h-4.3v-.9Zm8-4.9-1.3.8h-1v2h1l1.3.8v-3.6Zm-4.2-3.1c0 .2 0 .3-.3.3s-.3-.1-.3-.3 0-.3.3-.3.3.1.3.3Zm-.9.9c0 .2 0 .3-.3.3s-.3-.1-.3-.3 0-.3.3-.3.3.1.3.3Zm1.8-.1c0 .2 0 .3-.3.3s-.3-.1-.3-.3 0-.3.3-.3.3.1.3.3Zm-.3 1c0 .2 0 .3-.3.3s-.3-.1-.3-.3 0-.3.3-.3.3.1.3.3Zm-1 .1c0 .2 0 .3-.3.3s-.3-.1-.3-.3 0-.3.3-.3.3.1.3.3Zm-4.5-.9c0 .1 0 .2-.2.2s-.2-.1-.2-.2 0-.2.2-.2.2.1.2.2Zm-.7.7c0 .1 0 .2-.2.2s-.2-.1-.2-.2 0-.2.2-.2.2.1.2.2Zm1.5-.1c0 .1 0 .2-.2.2s-.2-.1-.2-.2 0-.2.2-.2.2.1.2.2Zm-.3.9c0 .1 0 .2-.2.2s-.2-.1-.2-.2 0-.2.2-.2.2.1.2.2Zm-.8.1c0 .1 0 .2-.2.2s-.2-.1-.2-.2 0-.2.2-.2.2.1.2.2Z"/><path d="M206.2 157h1.9v1.9h-1.9V157"/></g><g data-name="layer2-3"><path d="M110 181.3c.6-.5 1-1.2 1-2 0-1.4-1.2-2.6-2.6-2.6-1.3 0-2.4.9-2.6 2.2h-.3c-.4-.6-1.1-1-1.9-1-1.2 0-2.2 1-2.2 2.2s.7 1.9 1.7 2.1v.2h-.4l-.5-.2h-.4l.6 1.2h.2v-.3h.5v2.7h.7v.6l-1.7.3-.4-.2-1.3.3v.7l1.4-.3.3-.3 1.8-.4v-.8h6.7v-4.5h-.6Zm-6.5.6c-.9 0-1.6-.7-1.6-1.6s.7-1.6 1.6-1.6 1.6.7 1.6 1.6-.7 1.6-1.6 1.6Zm1.8-.4c0-.2.3-.4.3-.6h.4l.6.6h-1.3Zm3-.1c-1.1 0-2-.9-2-2s.9-2 2-2 2 .9 2 2-.9 2-2 2Zm1.5 4.2v-.5s.2.1.2.2 0 .2-.2.2Z"/><path d="M104.8 186.4h4.3v.9h-4.3v-.9Zm8.1-4.9-1.3.8h-1v2h1l1.3.8v-3.6Zm-4.3-3.2c0 .2 0 .3-.3.3s-.3-.1-.3-.3 0-.3.3-.3.3.1.3.3Zm-.8.9c0 .2 0 .3-.3.3s-.3-.1-.3-.3 0-.3.3-.3.3.1.3.3Zm1.8-.1c0 .2 0 .3-.3.3s-.3-.1-.3-.3 0-.3.3-.3.3.1.3.3Zm-.4 1c0 .2 0 .3-.3.3s-.3-.1-.3-.3 0-.3.3-.3.3.1.3.3Zm-.9.2c0 .2 0 .3-.3.3s-.3-.1-.3-.3 0-.3.3-.3.3.1.3.3Zm-4.5-1c0 .1 0 .2-.2.2s-.2-.1-.2-.2 0-.2.2-.2.2.1.2.2Zm-.7.8c0 .1 0 .2-.2.2s-.2-.1-.2-.2 0-.2.2-.2.2.1.2.2Zm1.5-.1c0 .1 0 .2-.2.2s-.2-.1-.2-.2 0-.2.2-.2.2.1.2.2Zm-.3.8c0 .1 0 .2-.2.2s-.2-.1-.2-.2 0-.2.2-.2.2.1.2.2Zm-.7.1c0 .1 0 .2-.2.2s-.2-.1-.2-.2 0-.2.2-.2.2.1.2.2Z"/><path d="M105.8 185.2h1.9v1.9h-1.9v-1.9"/></g><g data-name="layer2-4"><path d="M110 208.2c.6-.5 1-1.2 1-2 0-1.4-1.2-2.6-2.6-2.6-1.3 0-2.4.9-2.6 2.2h-.3c-.4-.6-1.1-1-1.9-1-1.2 0-2.2 1-2.2 2.2s.7 1.9 1.7 2.1v.2h-.4l-.5-.2h-.4l.6 1.2h.2v-.3h.5v2.7h.7v.6l-1.7.3-.4-.2-1.3.3v.7l1.4-.3.3-.3 1.8-.4v-.8h6.7v-4.5h-.6Zm-6.5.6c-.9 0-1.6-.7-1.6-1.6s.7-1.6 1.6-1.6 1.6.7 1.6 1.6-.7 1.6-1.6 1.6Zm1.8-.4c0-.2.3-.4.3-.6h.4l.6.6h-1.3Zm3-.1c-1.1 0-2-.9-2-2s.9-2 2-2 2 .9 2 2-.9 2-2 2Zm1.5 4.2v-.5s.2.1.2.2 0 .2-.2.2Z"/><path d="M104.8 213.3h4.3v.9h-4.3v-.9Zm8.1-5-1.3.8h-1v2h1l1.3.8v-3.6Zm-4.3-3.1c0 .2 0 .3-.3.3s-.3-.1-.3-.3 0-.3.3-.3.3.1.3.3Zm-.8.9c0 .2 0 .3-.3.3s-.3-.1-.3-.3 0-.3.3-.3.3.1.3.3Zm1.8-.1c0 .2 0 .3-.3.3s-.3-.1-.3-.3 0-.3.3-.3.3.1.3.3Zm-.4 1c0 .2 0 .3-.3.3s-.3-.1-.3-.3 0-.3.3-.3.3.1.3.3Zm-.9.2c0 .2 0 .3-.3.3s-.3-.1-.3-.3 0-.3.3-.3.3.1.3.3Zm-4.5-1c0 .1 0 .2-.2.2s-.2-.1-.2-.2 0-.2.2-.2.2.1.2.2Zm-.7.8c0 .1 0 .2-.2.2s-.2-.1-.2-.2 0-.2.2-.2.2.1.2.2Zm1.5-.1c0 .1 0 .2-.2.2s-.2-.1-.2-.2 0-.2.2-.2.2.1.2.2Zm-.3.8c0 .1 0 .2-.2.2s-.2-.1-.2-.2 0-.2.2-.2.2.1.2.2Zm-.7.1c0 .1 0 .2-.2.2s-.2-.1-.2-.2 0-.2.2-.2.2.1.2.2Z"/><path d="M105.8 212.1h1.9v1.9h-1.9v-1.9"/></g><path d="M108.8 234.3c-2.2 0-4 1.8-4 4s1.8 4 4 4 4-1.8 4-4-1.8-4-4-4Zm2 4.4-2.4 1.8s-.2.1-.3.1h-.3c-.2 0-.3-.3-.3-.5v-3.5c0-.2 0-.4.3-.5h.6l2.4 1.8c0 .1.2.3.2.5s0 .3-.2.5v-.2Z"/><path d="M101.7 242.6c0-.1.3-.2.5-.3v-9.8h13.4v9.7c.2.1.3.3.5.4.2.2.4.4.5.7l.4.7v-11.8c0-.5-.4-.9-.9-.9h-14.6c-.5 0-.9.4-.9.9V244l.4-.7c0-.2.3-.5.5-.7h.2Z"/><path d="M109 245.1c.7 0 1.3.2 1.8.5v-1.4c0-.8-.8-1.5-1.8-1.5h-.2c-1 0-1.8.7-1.8 1.5v1.4c.5-.3 1.1-.6 1.8-.6h.2Zm-5.3-2.4h-.2c-1 0-1.8.7-1.8 1.5v1h1c1.3 0 2.4.8 2.7 1.8v-2.7c0-.8-.8-1.5-1.8-1.5Zm11.5 2.4h.8v-1c0-.8-.8-1.5-1.8-1.5h-.2c-1 0-1.8.7-1.8 1.5v2.7c.3-1 1.4-1.8 2.7-1.8h.3Zm-6.2.9h-.2c-1.2 0-2.1.8-2.1 1.7v2.6c0 .9.9 1.7 2.1 1.7h.2c1.2 0 2.1-.8 2.1-1.7v-2.6c0-.9-.9-1.7-2.1-1.7Z"/><path d="M102.7 246h-.2c-1.2 0-2.1.8-2.1 1.7v2.6c0 .9.9 1.7 2.1 1.7h.2c1.2 0 2.1-.8 2.1-1.7v-2.6c0-.9-.9-1.7-2.1-1.7Zm12.5 0h-.2c-1.2 0-2.1.8-2.1 1.7v2.6c0 .9.9 1.7 2.1 1.7h.2c1.2 0 2.1-.8 2.1-1.7v-2.6c0-.9-.9-1.7-2.1-1.7Z"/><path fill="#d12026" d="M10.5 176.7h80.8v114.2H10.5z"/><path fill="#fff" d="M13.6 181.1h74.5v105.3H13.6z"/><path fill="#00603f" d="M16 184.5h69.8v98.7H16z"/><g fill="#d12026"><path d="m241.1 191 7 26.9 78.2-20.3-7-26.9-78.2 20.3Zm12 23.8c0 .3-.3.7-.9.8l-1.6.4c-.6.2-1.1 0-1.2-.3l-.4-1.4c0-.3.3-.7.9-.8l1.6-.4c.6-.2 1.1 0 1.2.3l.4 1.4Zm-5.7-21.9c0 .3-.3.7-.9.8l-1.6.4c-.6.2-1.1 0-1.2-.3l-.4-1.4c0-.3.3-.7.9-.8l1.6-.4c.6-.2 1.1 0 1.2.3l.4 1.4Zm12.2 20.2c0 .3-.3.7-.9.8l-1.6.4c-.6.2-1.1 0-1.2-.3l-.4-1.4c0-.3.3-.7.9-.8l1.6-.4c.6-.2 1.1 0 1.2.3l.4 1.4Zm-5.7-21.9c0 .3-.3.7-.9.8l-1.6.4c-.6.2-1.1 0-1.2-.3l-.4-1.4c0-.3.3-.7.9-.8l1.6-.4c.6-.2 1.1 0 1.2.3l.4 1.4Zm12.2 20.2c0 .3-.3.7-.9.8l-1.6.4c-.6.2-1.1 0-1.2-.3l-.4-1.4c0-.3.3-.7.9-.8l1.6-.4c.6-.2 1.1 0 1.2.3l.4 1.4Zm-5.7-21.9c0 .3-.3.7-.9.8l-1.6.4c-.6.2-1.1 0-1.2-.3l-.4-1.4c0-.3.3-.7.9-.8l1.6-.4c.6-.2 1.1 0 1.2.3l.4 1.4Zm12.2 20.2c0 .3-.3.7-.9.8l-1.6.4c-.6.2-1.1 0-1.2-.3l-.4-1.4c0-.3.3-.7.9-.8l1.6-.4c.6-.2 1.1 0 1.2.3l.4 1.4Zm-5.7-21.9c0 .3-.3.7-.9.8l-1.6.4c-.6.2-1.1 0-1.2-.3l-.4-1.4c0-.3.3-.7.9-.8l1.6-.4c.6-.2 1.1 0 1.2.3l.4 1.4Zm12.2 20.2c0 .3-.3.7-.9.8l-1.6.4c-.6.2-1.1 0-1.2-.3l-.4-1.4c0-.3.3-.7.9-.8l1.6-.4c.6-.2 1.1 0 1.2.3l.4 1.4Zm-5.7-21.9c0 .3-.3.7-.9.8l-1.6.4c-.6.2-1.1 0-1.2-.3l-.4-1.4c0-.3.3-.7.9-.8l1.6-.4c.6-.2 1.1 0 1.2.3l.4 1.4Zm12.2 20.2c0 .3-.3.7-.9.8l-1.6.4c-.6.2-1.1 0-1.2-.3l-.4-1.4c0-.3.3-.7.9-.8l1.6-.4c.6-.2 1.1 0 1.2.3l.4 1.4Zm-5.7-21.9c0 .3-.3.7-.9.8l-1.6.4c-.6.2-1.1 0-1.2-.3l-.4-1.4c0-.3.3-.7.9-.8l1.6-.4c.6-.2 1.1 0 1.2.3l.4 1.4Zm12.2 20.2c0 .3-.3.7-.9.8l-1.6.4c-.6.2-1.1 0-1.2-.3l-.4-1.4c0-.3.3-.7.9-.8l1.6-.4c.6-.2 1.1 0 1.2.3l.4 1.4Zm-5.7-21.9c0 .3-.3.7-.9.8l-1.6.4c-.6.2-1.1 0-1.2-.3l-.4-1.4c0-.3.3-.7.9-.8l1.6-.4c.6-.2 1.1 0 1.2.3l.4 1.4Zm12.2 20.2c0 .3-.3.7-.9.8l-1.6.4c-.6.2-1.1 0-1.2-.3l-.4-1.4c0-.3.3-.7.9-.8l1.6-.4c.6-.2 1.1 0 1.2.3l.4 1.4Zm-5.7-21.9c0 .3-.3.7-.9.8l-1.6.4c-.6.2-1.1 0-1.2-.3l-.4-1.4c0-.3.3-.7.9-.8l1.6-.4c.6-.2 1.1 0 1.2.3l.4 1.4Zm12.2 20.2c0 .3-.3.7-.9.8l-1.6.4c-.6.2-1.1 0-1.2-.3l-.4-1.4c0-.3.3-.7.9-.8l1.6-.4c.6-.2 1.1 0 1.2.3l.4 1.4Zm-5.7-21.9c0 .3-.3.7-.9.8l-1.6.4c-.6.2-1.1 0-1.2-.3l-.4-1.4c0-.3.3-.7.9-.8l1.6-.4c.6-.2 1.1 0 1.2.3l.4 1.4Zm12.2 20.2c0 .3-.3.7-.9.8l-1.6.4c-.6.2-1.1 0-1.2-.3l-.4-1.4c0-.3.3-.7.9-.8l1.6-.4c.6-.2 1.1 0 1.2.3l.4 1.4Zm-5.7-21.9c0 .3-.3.7-.9.8l-1.6.4c-.6.2-1.1 0-1.2-.3l-.4-1.4c0-.3.3-.7.9-.8l1.6-.4c.6-.2 1.1 0 1.2.3l.4 1.4Zm12.2 20.2c0 .3-.3.7-.9.8l-1.6.4c-.6.2-1.1 0-1.2-.3l-.4-1.4c0-.3.3-.7.9-.8l1.6-.4c.6-.2 1.1 0 1.2.3l.4 1.4Zm-5.7-21.9c0 .3-.3.7-.9.8l-1.6.4c-.6.2-1.1 0-1.2-.3l-.4-1.4c0-.3.3-.7.9-.8l1.6-.4c.6-.2 1.1 0 1.2.3l.4 1.4Zm12.2 20.2c0 .3-.3.7-.9.8l-1.6.4c-.6.2-1.1 0-1.2-.3l-.4-1.4c0-.3.3-.7.9-.8l1.6-.4c.6-.2 1.1 0 1.2.3l.4 1.4Zm-5.7-21.9c0 .3-.3.7-.9.8l-1.6.4c-.6.2-1.1 0-1.2-.3l-.4-1.4c0-.3.3-.7.9-.8l1.6-.4c.6-.2 1.1 0 1.2.3l.4 1.4Z" fill-rule="evenodd"/><path d="m244.1 195.6 74.5-19.3 4.4 17.3-74.4 19.3-4.5-17.3z"/></g><path d="m290.5 66.8 16.8 27.9 13.6-3.2 6-5.4-6.8-29.2s-2.4-3.9-2.8-.2c0 0-2.2-2.6-2.3.6 0 0-1.3-2.9-2.4-.3 0 0-2-1.6-2.9.8s-.2-.1-.2-.1-1.7-1.9-2.2 1c0 0-3.1-2.8-3.2 2.1 0 0-2.9-2.6-4 1.1 0 0-2.8-1.9-3.1 1.7 0 0-3.2-2-3.2 1.4 0 0-3.6-1.5-3.3 1.8Z" fill="url(#a)"/><path fill="url(#d)" stroke="#efeded" stroke-miterlimit="10" d="m307.1 58.4 13.6 33.1"/><g fill="#d12026"><path d="M303.6 49.8h1.4c.6 1.4 2.2.9 3.2 1.6.6.4.9.2 1.2-.4.3-.6.6-1.2 1.4-.9.8.4 1 1.1.8 1.9-.3 1.2-.3 2.4-.9 3.4-.2.3 0 .5 0 .8.8 1.3 1.1 2.7 1.7 4.1.1.3.2.8.6.8.8 0 .6.5.8.9.3 1 0 2 .4 2.9.2.3.3.6.7.5.4-.1.7-.3.7-.7V64c0-.2 0-.4.2-.5.1 0 .3.1.4.2.2.2.3.5.5.7.3.3.7.4 1.1.2.4-.2.2-.6 0-.9-.9-2.8-1.4-5.7-2.8-8.4-.1-.2-.2-.6 0-.6.5 0 .7-.5 1-.5.4 0 .3.5.3.8-.1.5-.1 1 0 1.5.8 2.5 1.6 5.1 2.4 7.7.2.7.6 1.2 1.5 1.4-.1-.5-.2-1-.3-1.4l-2.1-7.8c0-.3-.3-.8.2-.9.4 0 .4.4.6.7 0 .2.1.4.2.6.8 3 1.7 6.1 2.5 9.1.4 1.7 1.3 3.4 1.6 5.2.7 4.8 2.5 9.4 3.7 14.2-.2-.8.4-.8.8-.9-.3-.8.2-.7.7-.9.6-.2.5-.9.3-1.4-.1-.4-.4-.3-.7 0-.2.2-.4.6-.7.1-.2-.4.1-.6.3-.8 1.1-.9 2.2-.7 3.2.7v2.4c-2.5 1.1-4.2 3.1-6 5-1.9 2-4.2 3.3-7 3.8-1.5.3-2.9.7-4.4 1.1-1.6.4-1.5.4-1.3 2 1.3 7.5 4 14.5 6.9 21.5.5 1.2.3 1.8-.7 2.5-3.3 2.3-7 3.6-10.9 4.2h-2.2c-3.9-7.8-7.9-15.5-12.3-23.1-.2-.4-.5-.8-.8-1.2-1.1-1.2-1.2-1.8-.2-3.1 1-1.5 2.5-2.4 4-3.3.8-.5 2.2-.6 2.3-1.5.1-.8-1.1-1.4-1.7-2.2-.8-1.2-2-1.8-3.5-2.1-2-.3-4-.9-6-1.4-.5-.1-1-.2-1.3-.7v-.7c.6-1.1 1.5-1.4 2.7-1 1 .3 2 .7 3 .8 3.6.5 6.4 2.3 8.3 5.3.7 1.1 1.5 1.5 2.8.8.6-.3 1.3-.4 2-.5 1-.2 1.2-.5.6-1.4-4.4-7.6-8.8-15.3-13.1-23-.2-.3-.2-.8-.7-.8-.4.3 0 1.1-.7 1-.5 0-.6-.7-.7-1.1-.4-1.4.3-3.1 1.6-3.6 1.5-.7 1.5-.8 1-2.3-.3-1 .5-2 1.5-1.8 1.1.2 1.4-.2 1-1.2-.4-1.2.4-2.6 1.6-2.7 1.7-.2 2.8-1 3.1-2.7.2-.8.5-1.1 1.3-.9 1 .3 2 .3 2.8-.4Zm2.4 7.4c1.3-1.1 2.2-1 2.8.6 1 2.3 1.9 4.6 2.8 6.9.5 1.3 1.1 2.5 1.6 3.9.8-1.8.8-1.8.3-3.2-.8-2.1-1.7-4.2-2.4-6.4-.5-1.5-1.9-1.9-2.8-3-.2-.3-.7-.2-1-.2-1.3-.2-1.5 0-1.3 1.4.4.3 1 0 1.5.4q-1.9.3-1.1 2c4.2 10.1 8.3 20.2 12.5 30.2.3.7.3 2.1 1.7 1.5 1.3-.6.5-1.5.2-2.3-4-9.9-8-19.9-11.9-29.8-.5-1.4-1.2-2.3-2.8-2.1Zm-5.5 9.4c-.5-.1-.6-.6-.8-1-.5-1-1-1.9-1.4-2.9-.6-1.4-1.5-2.4-3.2-2.5 1.5.8-.3.8-.2 1.3.3.2.7.2.6.7 0 .4-.2.6-.6.7-.9 0-1.7.5-2.6 0-.7-.3-.9-.2-.7.5 0 .4.1.8.3 1.1 1.9 3.4 3.9 6.7 5.8 10.1.2.3.3.7.8 1 .7-1.7 1.3-3.1 0-5-1.4-2-2.3-4.3-3.4-6.5-.1-.3-.5-.7 0-.9.5-.3.7.1.9.5.5.9.9 1.8 1.4 2.6.1.3.3.8.6.7 1.2-.3.9.5.8 1 .7.3.4-.8 1.1-.6l.4 1.7c-.4.2-.6-.6-1 0-.3.4.2 2 .7 2.3.8.4 1.1-.5 1.5-.8.3-.2 0-.6 0-.9 0-.3 0-.5.3-.6.2-.2.4-.1.5 0 .7 1.2 1.6.5 2.3.2.8-.3 0-.9-.1-1.4 0-.3-.1-.7.3-.8.3-.1.5.2.6.4.5 2 2.2 2 3.8 2.5-.1-.4-.2-.6-.2-.8-1.3-3.1-2.6-6.3-3.9-9.4-.3-.7-.6-1.4-1.2-.2-.1.2-.3.4-.6.3-.3-.1-.3-.5-.3-.7 0-.2.2-.4.3-.6q-.8 1.2-1.6.5c-.2.3 0 .5.1.8.6 1.2 1.1 2.4 1.7 3.6q.8 1.6-.1 2.7s0 .2 0 .2c0 .8-1.4 2.3-2.1 2.3-.6 0-.9-.3-1.1-.8-.2-.5-.1-.9.2-1.4.4.3.8.4 1-.3.2-.7.7-.4 1.2 0-.5-1.1-.5-1.1 0-1.9v-.4c-.5-1-.9-1.9-1.4-2.9 0-.2-.2-.5-.4-.3-.8.5-1.2-.2-1.8-.5-.3-.2-.7-.2-.9.1-.2.3-.2.5 0 .8 1.3 1.2 1.6 2.9 2.5 4.3.2.4.3.8-.2 1.1Zm12.2 12.1c-1.2 1.4-1.2 2.8-.2 4.3.7 1 1.1 2.2 1.6 3.4.2.5.3 1.2 1.2.9.4 0 .7.4.6.8-.1.4-.5.5-.9.3-.7-.4-1.5-.7-1.8-1.7-.5-1.4-1.2-2.7-1.8-4-.2-.3-.3-.9-.8-.6-.6.4-1.8.6-1.5 1.4.5 1.2.5 2.8 2.2 3.3.4 0 .5.5.4.6-.8.9.6 2.5-1 3.2l-.1.3c.6.7.6 1.6.9 2.4.1.3.4.4.7.3.4-.2.4-.5.2-.8-.1-.3-.3-.6-.4-.9-.1-.4-.5-.8 0-1.1.6-.3.7.3.9.6l.6 1.2c.5.8 1.2.3 1.8.1.8-.2.3-.7.2-1.2-.2-.4-.4-.9-.5-1.3 0-.2 0-.5.2-.6.3-.1.5 0 .6.2.3.5.5 1 .8 1.5.3.5.6 1.1 1.3.8.7-.3.3-.9.1-1.3-1.4-3.9-3.2-7.6-4.8-11.5 0-.2-.1-.5-.4-.6Zm-1-1.9c0-3.6-2.5-6.3-5.8-6.3-3.5 0-6.6 3.1-6.6 6.4 0 3.1 3 5.8 6.4 5.8 3.5 0 5.9-2.4 5.9-5.9Zm11-2.2c-.7.7-.5 1.3-.3 1.9.6 1.9 1.2 3.9 1.8 5.8 0 .3.4.8-.2.9-.6 0-.5-.5-.6-.8-.3-2.1-1.2-4.1-1.7-6.1 0-.3-.2-.6-.6-.5-.3.1-.6.3-.5.7 0 .3.2.6.3.9.5 1.4 1 2.9 1.5 4.3.1.3.4.8 0 .9-.4.2-.6-.3-.7-.7-.6-1.5-1.1-3.1-1.7-4.6-.2-.4-.3-1-.8-1.1-1.1-.2-2.1-.7-3.3-1.3 1.1 2.7 2.1 5.1 3 7.6.9 2.1 1.7 4.2 2.6 6.3.1.3.2 1 .7.8.4-.2 0-.7 0-1.1-.2-.7-.5-1.4-.7-2-.2-.5-.1-.8.3-1.2.5-.5 1.3-.4 1.7-1.1.1-.2.4-.6.8-.3s.3.6.1.9c-.5.9-.2 1.7.4 2.5.8-.7-.3-1.6.3-2.3.6.1.5.8 1 1.1l-3.3-11.8Zm-7.8-2.6c.2-.7 0-1.2-.4-1.7-.3-.6-.4-1.2.2-1.6.9-.6 1.8-1.3 2.6-2 .6-.5 1.3-.5 1.6.2.4.8 1 1.4 1.5 2.1.7 1 .5 1.6-.6 2.2-.5.3-1.2.7-1.4 1.2-.4 1-1.1 1.1-2 1.3-.2 0-.3 0-.3.4 1 .9 2.1 1.6 3.6 1.2 1.2-.3 1.9-1.1 2-2.3.4-2.6-.4-4.8-2.5-6.5-.7-.6-1.6-.9-2.6-.6-2.5.6-3.5 3.7-1.9 6.2Zm-7 18.1c-.6-1.9-1.4-3.5-2.3-5.2-.7-1.5-2-1.5-3.4-2 1.2 2.5 2.7 4.5 3.6 6.8.2.4.5.7.9.4.4-.3.7 0 1.1 0Zm-6.1-31.9c.7.3 1-.3 1.5-.3.3 0 .7 0 .7-.4s-.3-.6-.5-.7c-1-.3-2-.7-2.7-1.5-.2-.2-.9-.5-.5.4.1.3-.3.3-.4.5-.5.8-1 1.6-.4 2.5.6 1 .5-.6 1.1-.3.4.2.5-.4.5-.9 0-.4-.3-.8.1-1.6 0 1.1 1.9 1.1.5 2.3Zm-6.4-2.8c1.4.8 1.4.8.6 1.9-.2.2-.4.5-.4.8 0 .4-.5.9 0 1.2.7.4 1.4.3 2.1 0 .5-.3.5-.5.4-1.1-.2-.7-.7-1.3-.8-2-.1-1.4-1-.9-1.9-.8Zm14.3 31.9c-.5-1.1-.9-2.4-1.8-3.5-.3-.4-.8-.3-1.2 0-.4.3-.2.6 0 .9.4.8.9 1.7 1.3 2.5.2.4.5.6.9.7.6.2.7 0 .7-.6Zm-9.5-34.8c.7.2 1.2.1 1.6.5 0 .1.4.2.3-.2-.2-.6.3-.5.5-.4.9.4 1.6.2 2.2-.7.1-.2.7-.2.5-.7-.2-.5-.6-.3-.9-.3-1.2 0-2.3.9-3.6.1.3.4 1 .6.8 1.1-.2.5-.8 0-1.3.4Zm8.2 1.6c.1.7.9 1.3 1.4 1.3.7 0 .9-1 .9-1.6 0-1-1-1.1-1.6-1.2-1.3-.1-.6.8-.7 1.4Z"/><path d="M312.9 54c-.2.6-1.2 1.2.2 1.3.5 0 .2.4.2.6.8 1.5 1.1 3.2 1.9 4.7.5 0 0-.7.6-.6.4.1.6.5.7.9 0 .4.4.9-.1 1.2-.3.1-.4.3-.6.5-.7.6-1.2.4-1.3-.5 0-1.6-.9-3-1.3-4.4-.2-.7-.6-1.2-1.5-1-.6.2-.4-.5-.6-.7-.4-.3-.2-.8.1-1 .4-.3.8-.8 1.6-.9Zm4.3 1.4c0-.6.6-1.2 0-1.5-.8-.3-1.4-1.3-2.5-.7-.4.2-.7.3-.9-.3-.3-.7-.9.1-1.4-.1-.3-1.1.3-1.4 1.2-1.2 1.9.3 3.6.8 5.1 2.1.3.3.7.4 1 .6.5.3.8.7.8 1.3 0 .3.2.8-.2 1-.4.2-.5-.4-.7-.6-.6-.7-1.1-1.6-2.3-.7ZM306 75.3c1.3.1 1.9-.7 2.7-1.2.6-.4 1.1-.5 1.6-.1.7.5 1.2 1.2 1.2 2.1 0 .8-.7.8-1.1 1.1-1.2.9-2.8 1.3-3.8 2.7-.6.8-1.7 1.4-2.7 1.7-1.1.4-2.5-.9-2.2-2.1.2-1.2-.3-2-1-2.7-.4-.5-.6-1-.3-1.5.2-.6.7-.7 1.3-.6h.6c.4-1.2 2-1.1 2.4-2.3.3-.8 1.2-.7 2-.6.6.1 1.2.4 1.2 1.1 0 .9-.3 1.6-1 2.2-.2.1-.5.2-.9.4Z"/></g><path d="m316 111.3-15.4 5.2-2.1-3.7 15.3-7.5 2.2 6z"/><path d="M1.6 143.6c0-.4 0-.7.5-.7.4 0 .5.3.5.6-.1 2 1.5 2.6 2.9 3.5v-.8c-.3-3.4-.5-6.8-.8-10.2 0-.6-.1-1.2-.6-.9-.2.4-.5.8-.7 1.5 0 0-.7-1.3-1.8-1.5.2 1.3.4 2.6.5 3.9q.2 1.8-.9 2.5s0 .1 0 .2c0 .2-.2.3-.4.5v2.9h.5c.8 0 .3-.9.3-1.4Z" fill="url(#e)"/><path d="M5.8 154.1c1.1-3.5-.4-6.7-3.6-7.8-.5-.2-.9-.2-1.4-.3v1.4c.5-.3 1.2 0 1.8.3.6.3 1 .8.8 1.4-.2.8-.8 1.5-1.6 1.8h-1c1.2.5 2.1 0 2.9-.3.7-.2 1.2-.2 1.6.4.5.7.7 1.5.5 2.4-.2.7-.9.5-1.4.7-1.2.4-2.5.4-3.7 1v3.1c2.3-.1 4.2-1.6 5-4.1Z" fill="url(#f)"/><path d="M1.5 169.5c0-.3 0-.6-.1-1 0-.4-.2-.9.4-1 .6 0 .6.5.7.9 0 .4 0 .9.2 1.3.1.3.3.5.5.6h1.2c.8 0 .6-.6.5-1.1 0-.5 0-1-.1-1.4 0-.2 0-.5.4-.5.3 0 .5.2.5.4.1.5.2 1.1.3 1.7 0 .6.2 1.2 1 1.1.8 0 .5-.8.5-1.2-.1-4.1-.7-8.3-1-12.4 0-.2 0-.5-.2-.7-1.6 1-2 2.3-1.5 4 .3 1.2.4 2.4.5 3.7 0 .6 0 1.2.8 1.3.4 0 .6.6.3 1-.2.3-.6.3-.9 0-.6-.6-1.2-1.2-1.2-2.2 0-1.5-.3-2.9-.5-4.4 0-.4 0-1-.6-.8-.7.2-1.9 0-1.9.8 0 1.3-.4 2.9 1.1 3.8.3.2.3.6.1.7-1 .6-.3 2.4-1.6 2.7v3.3h.2c.4 0 .5-.3.5-.7Z" fill="url(#g)"/><path d="M16.3 144.5c0 .7.2 1.3 1 1.8 0-.5.1-1 .1-1.4.1-2.7.3-5.3.4-8 0-.3 0-.8.5-.8.4 0 .3.5.3.8v.6c-.1 3.2-.3 6.3-.5 9.5-.1 1.8.2 3.6 0 5.4-.8 4.8-.5 9.7-.8 14.6 0-.3.1-.5.3-.6l2.4-28.5v-.3c0-.1-.1-.3-.2-.5-.4-1.1-1.3-2.8-2.4-.3 0 0-.3-.7-.7-1.1 0 .3-.1.6-.1.9v8Z" fill="url(#h)"/><path d="M1.1 139.1c-.1-.8-.2-1.6-.3-2.3v3l.2-.2s.1-.3 0-.4Z" fill="url(#i)"/><path d="M11.8 139.6c.7.2.5.7.5 1.1 0 1-.7 1.9-.5 2.9 0 .3 0 .7.5.7.4 0 .7-.1.9-.5 0-.2 0-.5.1-.7 0-.2.1-.4.4-.4.1 0 .2.2.3.3 0 .3 0 .6.2.8.2.4.6.6 1 .5.4 0 .4-.5.3-.8 0-2.8.4-5.5 0-8.3-.2.2-.4.5-.7 1.1 0 0-.2-1.8-1.1-1.8.3 1.6 0 3.3.4 5 .4.1.3-.7.8-.4.4.3.5.7.4 1.1 0 .4.1 1-.5 1.1-.3 0-.5.2-.7.3-.8.3-1.3 0-1-.9.4-1.5 0-3.1 0-4.6 0-.4 0-.7-.3-1l-.2.2s-.2-.3-.6-.6c-.3 0-.3-.1-.3-.2-.2 0-.3-.1-.5-.1.3 1.4.2 2.8.3 4.1 0 .3-.1.8.3 1Z" fill="url(#j)"/><path d="M9.7 135.4c-1.5 2-.2-.2-.2-.2s-.3-.7-.8-.9c0 .2.1.5.2.8.2 2.5.4 4.9.6 7.4.1 1.4.2 2.7.4 4.2 1.3-1.4 1.3-1.5 1.2-3-.1-2.3-.3-4.5-.3-6.8 0-.8-.3-1.4-.7-1.9l-.3.3Z" fill="url(#k)"/><path d="M10.3 150.5c.4-.6.3-1.2.2-1.7-.2-.7 0-1.3.7-1.4 1.1-.3 2.1-.7 3.1-1.1.7-.3 1.4 0 1.5.7 0 .9.6 1.6.8 2.5.3 1.1 0 1.6-1.2 1.9-.6.1-1.4.3-1.7.7-.7.8-1.4.7-2.3.6-.2 0-.3 0-.4.3.7 1.1 1.5 2.1 3 2.2 1.2 0 2.1-.5 2.6-1.5 1.1-2.4 1.1-4.7-.3-7-.5-.8-1.3-1.3-2.3-1.4-2.6-.2-4.5 2.5-3.7 5.3Z" fill="url(#l)"/><path d="M14.1 163c-.5 0-.4-.5-.4-.8 0-1.6-.1-3.3-.2-4.9 0-.5 0-1-.4-1.3-1-.5-1.8-1.3-2.8-2.3.2 2.9.4 5.5.6 8.1.2 2.3.3 4.5.5 6.8 0 .3-.1 1 .4.9.5 0 .3-.7.3-1v-2.2c0-.5 0-.8.7-1 .6-.3 1.4 0 1.9-.5.2-.2.5-.4.8 0 .3.4.1.7-.2.9-.8.7-.7 1.6-.4 2.6 1-.5.2-1.7 1-2.1.5.3.2.9.6 1.4.2-4.2.3-8.2.5-12.2-.9.4-.9 1.1-.9 1.7v6.1c0 .3.1.9-.5.8-.6-.1-.3-.6-.3-1 .4-2.1.1-4.2.3-6.3 0-.3 0-.6-.4-.6-.3 0-.6.1-.7.5v1c0 1.5.1 3 .1 4.6 0 .3.2.9-.3.9Z" fill="url(#m)"/><path d="m7 135.4 2.8 35.3c1.1-.2.7-1.3.7-2.1-.7-10.7-1.5-21.4-2.2-32.1 0-.8-.2-1.5-.6-2-.2.2-.4.5-.6.9v-.1Z" fill="url(#n)"/><path d="M9.7 170.7h.2l-2.8-35.3c-.1-.2-.4-.6-.8-.9-.5 0-.5.5-.4 1.7.9 10.9 1.7 21.7 2.6 32.6 0 .8-.4 2.1 1.2 1.9Z" fill="url(#o)"/><path fill="none" d="m7 135.4 2.9 35.3M7 135.4v-.2"/><path d="M6.1 171.6c2.8.4 5.4-.1 7.8-1.5 2.3-1.2 4.6-2.6 7.3-2.9.2-.8.5-1.5.7-2.3-.5-1.6-1.5-2.2-2.8-1.6-.3.1-.7.2-.6.6.1.5.5.3.7.1.3-.2.6-.1.6.2 0 .5 0 1.2-.7 1.2-.5 0-1-.2-1 .6h-.8c-.1 0-.2.3-.3.6.3-4.9 0-9.8.8-14.6.3-1.8 0-3.6 0-5.4.2-3.1.3-6.3.5-9.5v-.6c0-.3 0-.8-.3-.8-.5 0-.4.5-.5.8-.1 2.7-.3 5.3-.4 8 0 .4 0 .9-.1 1.4-.8-.5-1-1.1-1-1.8v-8c0-.3 0-.6.1-.9 0-.2.2-.4.3-.6.2-.3.3-.7 0-.9-.3-.1-.7.3-1.1.2-.2 0-.3.3-.2.6v.6c.3 2.8 0 5.5 0 8.3 0 .3 0 .7-.3.8-.4 0-.8-.1-1-.5-.1-.2-.1-.5-.2-.8 0-.1-.2-.3-.3-.3-.3 0-.3.2-.4.4 0 .2 0 .5-.1.7-.1.4-.5.5-.9.5s-.4-.4-.5-.7c-.2-1 .5-1.9.5-2.9 0-.4.3-.9-.5-1.1-.4-.1-.3-.6-.3-1-.1-1.4 0-2.8-.3-4.1v-.3c0-.3 0-.6.2-.8.9-.8 1.3-1.9 1.9-3 .5-.8.5-1.5-.2-2.1-.6-.6-1.2 0-1.6.4-.4.5-.8.6-1.2 0-.7-1-2.4-1-2.5-2.5-.5-.1-.9-.3-1.4-.4-1 .4-2 0-2.8-.5-.7-.4-1.1-.3-1.5.4-.3.6-.7 1-1.2 1.3v3.7c.2-.1.5 0 .5-.3 0-.9.5-.5.6-.2.5 1 1.2 1.7 2.1 2.3.2.2.4.5.3.8-.2.4-.5.3-.8.2-.5-.1-1 .4-1.6-.2 1.6-.8-.2-1.4.2-2.4-.6.6-.4 1.1-.6 1.5-.2.4-.5.9-.8.7v3.8c.1.8.2 1.6.3 2.3v.4s-.2.1-.2.2v2.5c.2-.2.3-.3.4-.5v-.2q1.2-.8.9-2.5c-.2-1.3-.4-2.6-.5-3.9 0-.3-.2-.5.1-.8q.6.9 1.7 0c-.2.2-.4.3-.5.5-.1.2-.2.5 0 .8.2.2.5 0 .6-.1.2-.2.4-.3.5-.4.5-.2.5.3.6.9.3 3.4.5 6.8.8 10.2v.8c-1.4-.9-3-1.5-2.9-3.5 0-.3 0-.6-.5-.6-.4 0-.5.3-.5.7 0 .5.5 1.3-.3 1.4H.4v.9c.5 0 1 .1 1.4.3 3.2 1 4.7 4.3 3.6 7.8-.8 2.5-2.7 4-5 4.1v8.6c1.3-.3.6-2.1 1.6-2.7.1 0 .2-.5-.1-.7-1.5-.9-1-2.5-1.1-3.8 0-.9 1.2-.6 1.9-.8.6-.2.5.5.6.8.2 1.5.5 2.9.5 4.4 0 1 .6 1.6 1.2 2.2.3.3.7.3.9 0 .3-.4.1-.9-.3-1-.9 0-.8-.7-.8-1.3-.1-1.2-.2-2.5-.5-3.7-.4-1.7 0-3 1.5-4 .2.2.2.5.2.7.3 4.1.9 8.2 1 12.4 0 .5.3 1.2-.5 1.2-.7 0-.9-.5-1-1.1 0-.6-.2-1.1-.3-1.7 0-.2-.2-.4-.5-.4s-.4.3-.4.5c0 .5 0 1 .1 1.4 0 .4.3 1.1-.5 1.1H2.7c-.2 0-.4-.3-.5-.6-.1-.4-.1-.9-.2-1.3 0-.4 0-1-.7-.9-.6 0-.4.6-.4 1 0 .3 0 .6.1 1 0 .3 0 .7-.5.7H.3v1.1h.8c1.5.1 3 .1 4.5.3Zm8.3-9.5c0-1.5 0-3-.1-4.6v-1c0-.4.4-.5.7-.5.4 0 .4.3.4.6-.1 2.1.1 4.2-.3 6.3 0 .4-.4.9.3 1 .7.1.5-.5.5-.8V157c0-.6 0-1.3.9-1.7-.2 4-.3 8-.5 12.2-.4-.5-.1-1.1-.6-1.4-.7.5 0 1.7-1 2.1-.3-1-.4-1.8.4-2.6.3-.3.4-.6.2-.9-.3-.4-.6-.1-.8 0-.6.5-1.3.2-1.9.5-.6.3-.7.5-.7 1v2.2c0 .4.2 1-.3 1-.6 0-.4-.6-.4-.9-.2-2.3-.4-4.5-.5-6.8-.2-2.6-.4-5.3-.6-8.1 1 .9 1.8 1.7 2.8 2.3.5.3.4.8.4 1.3 0 1.6 0 3.3.2 4.9 0 .3 0 .9.4.8.5 0 .3-.6.3-.9Zm-.4-16.9c1 0 1.7.6 2.3 1.4 1.4 2.2 1.5 4.6.3 7-.5 1-1.4 1.6-2.6 1.5-1.5 0-2.4-1.1-3-2.2 0-.3.3-.3.4-.3.8.1 1.6.2 2.3-.6.4-.4 1.1-.6 1.7-.7 1.2-.2 1.5-.7 1.2-1.9-.3-.8-.7-1.6-.8-2.5 0-.8-.8-1-1.5-.7-1 .5-2 .8-3.1 1.1-.7.2-.9.8-.7 1.4.1.6.3 1.1-.2 1.7-.8-2.8 1.2-5.4 3.7-5.3Zm-4.4-13.8c.2-.6-.2-1.7 1.1-1.1.6.3 1.5.7 1.2 1.6-.2.6-.7 1.5-1.4 1.2-.4-.1-1-.9-.9-1.7ZM8 132.8c.3.2.8.2.9.5.3.6.7 1.2 1.1 1.7.4.6.7 1.2.7 1.9 0 2.3.2 4.5.3 6.8 0 1.5 0 1.5-1.2 3-.1-1.5-.2-2.9-.4-4.2-.2-2.5-.3-4.9-.6-7.4 0-.3 0-.6-.2-.8-.3-.9-1.1-1.1-2.3-.6.2-1.3.5-1.5 1.6-.9Zm-4-4.5c0 .4-.3.2-.4 0-.2-.5-.8-.6-1.4-1 .6-.2 1.1.5 1.4 0 .3-.5-.2-.8-.4-1.3 1 1.2 2.3.7 3.5 1 .3 0 .8 0 .8.5s-.5.3-.7.5c-.8.7-1.5.6-2.3 0-.2-.2-.6-.4-.6.2Zm1.9 7.9c0-1.2-.1-1.6.4-1.7.3 0 .7 0 1.4.1-.3-.6-.9-.5-1.3-.9.7.1 1.1.4 1.4.8.4.5.5 1.2.6 2 .7 10.7 1.5 21.4 2.2 32.1 0 .8.4 1.8-.7 2.1h-.2c-1.6.2-1.1-1.2-1.2-1.9-.9-10.9-1.8-21.7-2.6-32.6Z" fill="#d12026"/><path d="M12 134.9c.4 0 .6.2.8.4.2.3.3.6.3 1 0 1.5.3 3.1 0 4.6-.2.9.2 1.2 1 .9.2 0 .4-.3.7-.3.6 0 .4-.7.5-1.1 0-.4 0-.8-.4-1.1-.5-.3-.3.5-.8.4-.3-1.6 0-3.3-.4-5 0-.2.4-.5 0-.6-1.4-.5-.2-.8.2-1.3-.8-.1-1.3.2-1.8.4-.4.1-.7.5-.4.9v.6c0 .1 0 .2.3.2Zm8.1 2.7c.4 0 .4-.5.5-.9.2-.5 0-1-.4-1.4-.3-.3-.6-.6-.8-.9-1-1.7-2.5-2.7-4.2-3.6-.9-.5-1.5-.4-1.6.8.4.4 1.2-.2 1.3.5 0 .6.4.6.8.5 1.2-.2 1.5.9 2.2 1.4.5.5-.2.9-.4 1.4 1.4-.5 1.6.6 1.9 1.4v.2c0 .2 0 .3.2.5 0 0 .1.1.3.1ZM5.9 153.4c.2-.9 0-1.7-.5-2.4-.4-.6-.9-.6-1.6-.4-.9.3-1.7.8-2.9.3h1c.8-.3 1.4-.9 1.6-1.8.2-.7-.3-1.1-.8-1.4-.6-.3-1.3-.6-1.8-.3v7.7c1.2-.6 2.5-.6 3.7-1 .5-.2 1.2 0 1.4-.7Z" fill="#d12026"/></svg>