<svg id="aa3c0f69-b6ef-4475-a893-9c1bf02d3da8" data-name="Layer 1" xmlns="http://www.w3.org/2000/svg" xmlns:xlink="http://www.w3.org/1999/xlink" width="335" height="335" viewBox="0 0 335 335">
  <defs>
    <radialGradient id="a4b3ddda-e4e3-4291-b39b-ee7deb27bda6" cx="167.5" cy="167.5" r="167.5" gradientUnits="userSpaceOnUse">
      <stop offset="0" stop-color="#fff"/>
      <stop offset="1" stop-color="#f1f2f2"/>
    </radialGradient>
    <clipPath id="ae9e2842-760e-4daf-b701-34d9ca94bb34">
      <rect width="335" height="335" fill="none"/>
    </clipPath>
  </defs>
  <g>
    <g>
      <rect width="335" height="335" fill="url(#a4b3ddda-e4e3-4291-b39b-ee7deb27bda6)"/>
      <g clip-path="url(#ae9e2842-760e-4daf-b701-34d9ca94bb34)">
        <path d="M196.5,359.3C144.3,385.4,63.9,375.4,5.8,375.7c-45.1-1.1-93.6,1-138.6-5-46.7-4.3-93.3-10.3-138.3-16.2-27.3-3.9-60.9-14.3-66.7-43.5-9.6-69.6,126.8-43.7,165.5-42.8,54.8,1.3,119.7-14.9,172.6.9,54.4,17.4,93.6,63.5,153.8,40.8,24.4-9.1,58.8-30.9,82.5-7.7,26.7,29.6-10.9,51.3-35.3,58.8" fill="#d71f27"/>
        <path d="M207.8-18.8c42-22.7,105.6-12.4,151.6-11.6,35.8,1.8,74.2.7,109.8,6.8s73.7,10.9,109.3,17c21.5,4,47.9,14,51.8,40.4,5.9,63-101.7,37.3-132.4,35.8-43.4-2.1-95.3,11.4-136.8-3.7C318.4,49.2,288.5,7,240.1,26.5c-19.5,7.8-47.4,26.8-65.5,5.5C154.1,4.8,184.5-14.1,204-20.5" fill="#d71f27"/>
        <path d="M206.2,358.5c-20.3,10.1-43,14.5-65.4,16.6-23.9,2.2-47.9,2-71.8,1.4s-46.5-1.3-69.8-1.6c-28.3-.3-56.6.1-84.9-1.2-14.1-.6-28.1-1.7-42.2-3.4s-29.3-2.9-43.9-4.5c-29.3-3.3-58.6-7-87.9-10.8-20.4-2.7-42-6-59.2-18.2-13.7-9.8-22-26.3-17.6-43.1,6.6-25.1,38.9-30,60.6-31.6,28.7-2.1,57.5.8,86,3.4a328.1,328.1,0,0,0,43.2,1.2c26.4-1.2,52.7-4.4,79.1-5.5s51.9-.8,76.1,7.3c21,7,40,18.3,59.5,28.4s37,17.5,57.4,18.7a89.3,89.3,0,0,0,32.1-4.2c10.3-3.2,20-8,30-12,20.1-8.2,46.8-15.2,62.2,5.4,5.7,7.6,8.3,16.9,4.2,25.9S242.6,345,235,349.6a99.5,99.5,0,0,1-23.8,10.6c-.8.3-.4,1.5.3,1.2a102.3,102.3,0,0,0,24.8-11.1c7.1-4.4,14.1-10.1,18.1-17.6,9.2-17.6-6.1-37.4-23.4-41.8-21.1-5.2-42.7,6.9-61.5,14.7-11,4.6-22.3,8-34.3,8.7a96.5,96.5,0,0,1-31.6-3.8c-21.3-6.1-40.4-17.8-59.9-27.8a242.9,242.9,0,0,0-30.3-13.8A156,156,0,0,0-23,260.8c-26.9-2.8-54-.6-80.8,1.6-23.2,1.9-46.6,4.4-69.8,3.1-27.5-1.5-54.7-5.3-82.2-5.4-14.6,0-29.4.8-43.7,4.1-11.1,2.5-22.9,6.8-30.8,15.5s-10.4,21.4-7.6,32.6c4.8,18.9,21.9,29.9,39.2,35.9a148.8,148.8,0,0,0,28.8,6.7l44.1,5.7c30.5,3.8,61.1,7.4,91.6,10.3,14.5,1.4,29,3.1,43.5,3.9s29.7,1,44.6,1.1c26.7.2,53.4.1,80.1.8,24.1.6,48.3,1.7,72.4,1.4s47.8-2,70.9-7.8a146.5,146.5,0,0,0,29.5-10.7c.7-.3.1-1.4-.6-1.1Z" fill="#d71f27"/>
        <g>
          <g>
            <polyline points="32 20.8 12.1 20.8 12.1 258.8" fill="none" stroke="#d71f27" stroke-miterlimit="10" stroke-width="0.54"/>
            <path d="M31.9,18.8a2,2,0,1,1-2,2A2,2,0,0,1,31.9,18.8Z" fill="#d71f27"/>
            <path d="M10.1,258.7a2,2,0,0,0,4,0,2,2,0,1,0-4,0Z" fill="#d71f27"/>
          </g>
          <g>
            <polyline points="308.8 165.8 323.4 165.8 323.4 305.6" fill="none" stroke="#d71f27" stroke-miterlimit="10" stroke-width="0.54"/>
            <path d="M308.9,167.9a2,2,0,0,1-2-2.1,2,2,0,0,1,2-2,2,2,0,0,1,2.1,2A2.1,2.1,0,0,1,308.9,167.9Z" fill="#d71f27"/>
            <path d="M321.4,305.5a2,2,0,1,0,2-2A2,2,0,0,0,321.4,305.5Z" fill="#d71f27"/>
          </g>
          <g>
            <circle cx="304.3" cy="190.4" r="11.1" fill="none" stroke="#231f20" stroke-miterlimit="10" stroke-width="0.29"/>
            <path d="M312.4,190.4a8.1,8.1,0,1,1-8.1-8.1A8.1,8.1,0,0,1,312.4,190.4Z" fill="none" stroke="#231f20" stroke-miterlimit="10" stroke-width="0.29"/>
            <path d="M309.3,190.4a5,5,0,0,1-5,5,5,5,0,1,1,0-10A5,5,0,0,1,309.3,190.4Z" fill="none" stroke="#231f20" stroke-miterlimit="10" stroke-width="0.29"/>
            <path d="M307,190.4a2.8,2.8,0,1,1-2.7-2.8A2.8,2.8,0,0,1,307,190.4Z" fill="none" stroke="#231f20" stroke-miterlimit="10" stroke-width="0.29"/>
          </g>
          <g>
            <path d="M300.4,26.1a.9.9,0,0,1-.9.9.9.9,0,0,1,0-1.8A.9.9,0,0,1,300.4,26.1Z" fill="#fff"/>
            <path d="M300.4,20.9a.9.9,0,0,1-.9.9.9.9,0,0,1,0-1.8A.9.9,0,0,1,300.4,20.9Z" fill="#fff"/>
            <path d="M300.4,15.8a.9.9,0,0,1-.9.9.9.9,0,0,1,0-1.8A.9.9,0,0,1,300.4,15.8Z" fill="#fff"/>
            <path d="M300.4,10.6a.9.9,0,0,1-.9.9.9.9,0,0,1,0-1.8A.9.9,0,0,1,300.4,10.6Z" fill="#fff"/>
            <path d="M300.4,5.5a.9.9,0,0,1-.9.8.9.9,0,0,1-.8-.8.9.9,0,0,1,.8-.9A.9.9,0,0,1,300.4,5.5Z" fill="#fff"/>
            <path d="M300.4.3a.9.9,0,0,1-.9.9.9.9,0,0,1-.8-.9.9.9,0,0,1,.8-.9A.9.9,0,0,1,300.4.3Z" fill="#fff"/>
            <path d="M307.2,26.1a.9.9,0,0,1-.9.9.9.9,0,0,1,0-1.8A.9.9,0,0,1,307.2,26.1Z" fill="#fff"/>
            <path d="M307.2,20.9a.9.9,0,0,1-.9.9.9.9,0,0,1,0-1.8A.9.9,0,0,1,307.2,20.9Z" fill="#fff"/>
            <path d="M307.2,15.8a.9.9,0,0,1-.9.9.9.9,0,0,1,0-1.8A.9.9,0,0,1,307.2,15.8Z" fill="#fff"/>
            <path d="M307.2,10.6a.9.9,0,0,1-.9.9.9.9,0,0,1,0-1.8A.9.9,0,0,1,307.2,10.6Z" fill="#fff"/>
            <path d="M307.2,5.5a.9.9,0,0,1-.9.8.9.9,0,0,1-.8-.8.9.9,0,0,1,.8-.9A.9.9,0,0,1,307.2,5.5Z" fill="#fff"/>
            <path d="M307.2.3a.9.9,0,0,1-.9.9.9.9,0,0,1-.8-.9.9.9,0,0,1,.8-.9A.9.9,0,0,1,307.2.3Z" fill="#fff"/>
            <path d="M314,26.1a.9.9,0,0,1-.8.9.9.9,0,1,1,0-1.8A.9.9,0,0,1,314,26.1Z" fill="#fff"/>
            <path d="M314,20.9a.9.9,0,0,1-.8.9.9.9,0,1,1,0-1.8A.9.9,0,0,1,314,20.9Z" fill="#fff"/>
            <path d="M314,15.8a.9.9,0,0,1-.8.9.9.9,0,1,1,0-1.8A.9.9,0,0,1,314,15.8Z" fill="#fff"/>
            <path d="M314,10.6a.9.9,0,0,1-.8.9.9.9,0,1,1,0-1.8A.9.9,0,0,1,314,10.6Z" fill="#fff"/>
            <path d="M314,5.5a.9.9,0,0,1-.8.8.9.9,0,0,1-.9-.8.9.9,0,0,1,.9-.9A.9.9,0,0,1,314,5.5Z" fill="#fff"/>
            <path d="M314,.3a.9.9,0,0,1-.8.9.9.9,0,0,1-.9-.9.9.9,0,0,1,.9-.9A.9.9,0,0,1,314,.3Z" fill="#fff"/>
            <path d="M320.8,26.1a.8.8,0,0,1-.8.9.9.9,0,1,1,0-1.8A.8.8,0,0,1,320.8,26.1Z" fill="#fff"/>
            <path d="M320.8,20.9a.8.8,0,0,1-.8.9.9.9,0,1,1,0-1.8A.8.8,0,0,1,320.8,20.9Z" fill="#fff"/>
            <path d="M320.8,15.8a.8.8,0,0,1-.8.9.9.9,0,1,1,0-1.8A.8.8,0,0,1,320.8,15.8Z" fill="#fff"/>
            <path d="M320.8,10.6a.8.8,0,0,1-.8.9.9.9,0,1,1,0-1.8A.8.8,0,0,1,320.8,10.6Z" fill="#fff"/>
            <path d="M320.8,5.5a.8.8,0,0,1-.8.8.9.9,0,0,1-.9-.8.9.9,0,0,1,.9-.9A.8.8,0,0,1,320.8,5.5Z" fill="#fff"/>
            <path d="M320.8.3a.8.8,0,0,1-.8.9.9.9,0,0,1-.9-.9.9.9,0,0,1,.9-.9A.8.8,0,0,1,320.8.3Z" fill="#fff"/>
            <path d="M327.7,26.1a.9.9,0,1,1-.9-.9A.9.9,0,0,1,327.7,26.1Z" fill="#fff"/>
            <path d="M327.7,20.9a.9.9,0,1,1-.9-.9A.9.9,0,0,1,327.7,20.9Z" fill="#fff"/>
            <path d="M327.7,15.8a.9.9,0,1,1-.9-.9A.9.9,0,0,1,327.7,15.8Z" fill="#fff"/>
            <circle cx="326.8" cy="10.6" r="0.9" transform="translate(305.3 336.9) rotate(-88.1)" fill="#fff"/>
            <circle cx="326.8" cy="5.5" r="0.9" transform="translate(0 12.6) rotate(-2.2)" fill="#fff"/>
            <path d="M327.7.3a.9.9,0,1,1-1.8,0,.9.9,0,1,1,1.8,0Z" fill="#fff"/>
            <path d="M334.5,26.1a.9.9,0,1,1-.9-.9A.9.9,0,0,1,334.5,26.1Z" fill="#fff"/>
            <path d="M334.5,20.9a.9.9,0,1,1-.9-.9A.9.9,0,0,1,334.5,20.9Z" fill="#fff"/>
            <path d="M334.5,15.8a.9.9,0,1,1-.9-.9A.9.9,0,0,1,334.5,15.8Z" fill="#fff"/>
            <circle cx="333.6" cy="10.6" r="0.9" transform="translate(311.9 343.7) rotate(-88.1)" fill="#fff"/>
            <circle cx="333.6" cy="5.5" r="0.9" transform="translate(0 12.8) rotate(-2.2)" fill="#fff"/>
            <path d="M334.5.3a.9.9,0,1,1-1.8,0,.9.9,0,1,1,1.8,0Z" fill="#fff"/>
          </g>
        </g>
      </g>
      <g>
        <path d="M320,275a62.1,62.1,0,0,1-2,6.1,9.9,9.9,0,0,1,.5-3,15.8,15.8,0,0,1,.5-2.5,18.2,18.2,0,0,1,.3-3.2,6.5,6.5,0,0,1,.5-3.1c.5-.9.2-1.9.4-3s.5-2.1.7-3.1h-3.7v-2.7c0-.5-.1-.9-.1-1.3s-.1-.7-.1-.9.4-.3.4-.4-.4-1.3-.4-2-.3-1.9-.3-2.8.3-1.3.1-2-.3-.6.2-1.1.4,0,.4-.4-.3-.1-.5-.3.5-.4.6-1-.9-.1-1.1-.6,0-.5,0-.6.6-.9.6-1-.8-.4-.8-1,.2-.5.3-.8a2.7,2.7,0,0,0,.2-1.3c0-2-.9-4.1-1.4-5.9a59.5,59.5,0,0,0-2.2-5.9,32.3,32.3,0,0,0-2.2-4.1,7.7,7.7,0,0,0-1.4-2.1,8.9,8.9,0,0,0,.5,3.2c-.3-1-.6-.4-1.2-.3s-.9-.4-1.2-1.1l-1.5-2.9-1.2-2c-.3-.4-.3-1.1.3-.8s1.2,1.3,1.6,1.8-.5-1.7-1-2-2-.7-2.3-1.6,1.2,1.1,2.2.2a7.1,7.1,0,0,1-1.5-1.5c-.6-1.3-1-2.6-1.7-3.9s-3.2-2.9-4.5-3.8l.6,1.3c.6-.4.5.7.4,1s-1.8-1.1-2.1-2.4,0-.6-.7-1-.7-.2-.7-1l1.2.4c.1-.6.4-1.5-.3-1.8s-1,.2-1.2,0-.1-.7-.1-1a3.1,3.1,0,0,0-.5-2.1,3.6,3.6,0,0,1-.4.9l-.7.8c-.1.5.6,1,.6,1.5s-.5.5-1,.2-1-.2-1.4-.6-.7-1-1.2-1.4a16.6,16.6,0,0,0-2.1-1.6c-.5-.4-3.8-3-4.2-2.2s.7.8,1,1.1,1.1,1.2,1.8,1.7,2.7,2.1,4,3.2l1.8,1.7c.3.3,1.4,1.2,1.4,1.7s-1,.1-1.3-.1-1-.9-1.8-.7l.3.6c-1-.7-1.9-1.5-2.9-2.1,1,.4.7-.5.2-1a3.3,3.3,0,0,0-2-.8,3.6,3.6,0,0,0,.7,1l-1.6-1h.8c-.6-.2-.6-1.1-1.2-1.4s-1.7-.7-1.8-.5.4.5.4.8l-2.7-1.4a22.9,22.9,0,0,1-2.7-1.4c-.5-.4-.7-.8-1.4-.9l-.3.2-.6-.3c-.7-.3-.7-.3-.9-1s-.1.5-.7.4l-1.1-.4-2.3-.9c.3,0,.3-.1-.1-.2v.2a63.4,63.4,0,0,0-15-3l-7.4-.5c-1.2-.1-2.4,0-3.6,0s-3.1.1-2.8.8h-1.3c.3-.6-1.2-.6-.3.1a65,65,0,0,0-13,3.2l-1.5.4c-.2-.1-.3-.1-.4.1s-.1.2-.1.3l-2.8,1.2a6.2,6.2,0,0,1-2.3.7,2.2,2.2,0,0,0-1.4.5,2.9,2.9,0,0,0-1.1,1.1h.5l-3.7,2.1a8.1,8.1,0,0,0,.9-1c-1.3-.1-2.9,1-4,1.6a5.3,5.3,0,0,0-1,.6c-.7.5-.5,1.3.4,1.4l-.8.6c-.3.2-.2-.1-.3,0s0,.1,0,.2a66.6,66.6,0,0,0-17.7,20.4c0-.5-.7.5-.7.6a8.3,8.3,0,0,0-.7,1.3,27,27,0,0,0-1.5,2.9l.7-.5-.5.9a.8.8,0,0,0-.2-.4,12.5,12.5,0,0,0-.8,1.2c-.1.5.2.8.1,1.3a7.3,7.3,0,0,1-.7,1.9l-.3.9-.5.6c.1,0,.1.5.1.5s-.4.8-.5,1.2-.3,1.2-.5,1.8-.4-.1-.7,0,.3.4.7.3-.7,2.6-1,4-.3,1.7-.4,1.8-.7-.6-.8-.8c-.8,1.6-.9,4-1.1,5.8a45.7,45.7,0,0,0-.3,6.4c0,2.1-.1,4.1-.1,6.2a4,4,0,0,0,.3,1.5,1.6,1.6,0,0,1,.2,1c-.2.6-.7.1-.7,1a42.4,42.4,0,0,0,1.2,8.6,16.1,16.1,0,0,0,1.5,3.6,1.9,1.9,0,0,1,.3.8c-.1.2-.5.1-.5.6s.2.4.2.6a2.5,2.5,0,0,1,.2,1.2c.2-.4.3-.9.5-1.3a8.2,8.2,0,0,1,1.6,2.5c.4.7.9,2.3,1.7,2.4a.7.7,0,0,0-.1-.5c.6.3.5,1.2.9,1.8l.9.7a2.8,2.8,0,0,1,.5,1.1l2.4,4.2a70.6,70.6,0,0,0,5.7,7.8A67.8,67.8,0,0,0,214,318.9a68.8,68.8,0,0,0,17.6,8.2l5,1.7a58.1,58.1,0,0,0,5.8.9,58.9,58.9,0,0,0,12.6.4c3-.3,6-.6,9-1.2l3.6-.7,2.5-.6a.7.7,0,0,1,.6.2c.3.1.4.8.6.9s.5-.3.8-.4.9.3.7.4h.1a6.2,6.2,0,0,1,1.2-.9H274c1.8-.8,3.5-1.8,5.2-2.7a24.7,24.7,0,0,0,2.9-1,8.4,8.4,0,0,1,2.1-1.1l.5-.2a1,1,0,0,0,.4-.5l.8-.3c.4-.1.6.2,1,.2a6,6,0,0,0,2.6-1.1A26.2,26.2,0,0,0,292,319h-.1a21.4,21.4,0,0,1,3-1.7,39.9,39.9,0,0,0,7.3-5.7c1.1-1,2.1-2.1,3.2-3.2s2-1.9,3-2.9a10.9,10.9,0,0,0,2.5-3.8,5.5,5.5,0,0,1,2.6-2.6,32.4,32.4,0,0,1-1.9,3.7c.4-.6,5.9-7.7,4.7-8.5s-1.4.4-1.2-.7a17.8,17.8,0,0,1,1.7-3,6.2,6.2,0,0,1,1-1.6c.4-.3.9-.3,1.2-.7a4.7,4.7,0,0,0,1-2.4,12.2,12.2,0,0,0-2.9,3.1c-.5,1.1-1,3.1-2.2,3.6s.1-.5.2-.8v-.8a3.9,3.9,0,0,1,.6-1.8,12.9,12.9,0,0,1,.7-2.1c.5-.8.9-1.6,1.3-2.4a37.2,37.2,0,0,0,3.3-10.9C320.7,274.3,320.1,274.5,320,275Zm-34.9-69.1H285C284.9,205.9,285,206,285.1,205.9Zm33.1,59.3c.2.1.2,0,.2.3S318.1,265.5,318.2,265.2Zm-.1,2.7a1.4,1.4,0,0,1,.2-.7c0,.6.2.8-.2,1.3Zm-1.3,3.4c-.1.1,0,.2-.1.2S316.7,271.4,316.8,271.3ZM313.9,297c0,.1-.1.2-.1.3S313.8,297,313.9,297Zm-1.5-7.7c-.1.1-.1.2-.2.1h.2Zm3.7-45.9c.3.3.1.5,0,.9l-.5-.3Zm-1.6-2.2c.2,0,.2.2.1.3S314.5,241.3,314.5,241.2Zm.5,5c-.4-1.5-.8-3-1.3-4.5a7.4,7.4,0,0,1,.7,2.1A21,21,0,0,1,315,246.2ZM313.3,236h0Zm-.2,2.4a12.3,12.3,0,0,1,.2,1.9,5.1,5.1,0,0,1-.7-1.5c-.1-.4-.7-1.4-.3-1.6S313,238,313.1,238.4ZM310,229a.7.7,0,0,0,.1-.5c1.2.8.2,1.2.3,2.2,1.1-.7,1.2.1,1.6,1a8.9,8.9,0,0,1,.8,3.2l-.9-1.9c-.1-.3-.7-1.3-.9-.4s1.5,3.6.3,2.9-.6-1.3-.7-1.7-.5-1.6-.8-2.4S308.7,229.5,310,229Zm-6.1-5.8-.5-.6C304,222.3,304.4,222.8,303.9,223.2Zm-1.1-2.3.8,1.2C303.5,221.9,302.7,221.1,302.8,220.9Zm-3-7.6-.7-.6C299.4,212.7,299.9,212.7,299.8,213.3Zm-1.9,1a4.3,4.3,0,0,1,2,1.8,9.4,9.4,0,0,1,1.4,2.6c-.7-.2-1.4-1.1-1.9-1.6A4.6,4.6,0,0,1,297.9,214.3Zm-1.9-2.1h.6c-.1.3,0,.7-.4.6S296,212.5,296,212.2Zm-.3,1.3a12.4,12.4,0,0,1,1.9,2.1c-.7-.3-2.3-1.4-2.4-2.1Zm-2-1.5c.5-.2.9.5.5.8l-.7-.6Zm-82.1-3a14.8,14.8,0,0,1,2.1-1.3A8,8,0,0,1,211.6,209Zm-22.1,27.6Zm-5.2,16.2c.1-.2.4,0,.4.1a7,7,0,0,1-.2,1.6C183.9,254.5,184.1,253.1,184.3,252.8Zm-.6,5.5.5-.6c0,.4,0,2.4-.4,2.5S183.6,258.6,183.7,258.3Zm.2,3c-.1,0-.1.2-.2.1S183.8,261.2,183.9,261.3Zm-.7,2.7.5-.4C184.2,264.3,183.9,264.6,183.2,264Zm.6,12.3h-.2c.1-.2.2-.2.4,0Zm.4,1.2h0C184.3,277.5,184.2,277.5,184.2,277.5Zm.1-7c-.4-1.8-1.2-3.7-.5-5.5.5.6.3,2,.3,2.7l.3,2.9A.1.1,0,0,1,184.3,270.5ZM185,281c-.3-.4-.8-.6-.5-1S185.2,280.6,185,281Zm1.3.3v-.5c.2.5.3,1.1.5,1.6S186.2,281.6,186.3,281.3Zm1.4,6.4c-.3-.2-.3-.2-.2-.4S187.8,287.5,187.7,287.7Zm-.7-4.4c.1.2.2.3.2.5S187.1,283.5,187,283.3Zm84.8,44.4c-.1-.1-.1-.2,0-.2S272,327.6,271.8,327.7Zm31.7-18.8c-.2.4-.3-.3-.2-.3S303.8,308.5,303.5,308.9Zm1.1-2.3,1.1-1.1A3.8,3.8,0,0,1,304.6,306.6Zm3-3-1.7,1.6c.5-.6.9-1.5,1.6-1.9A.4.4,0,0,1,307.6,303.6Zm5.5-6.3a48.2,48.2,0,0,1-3.6,4.3c-.2.3-1.5,1.9-1.6.8s1.3-1,.6-1.4a19.4,19.4,0,0,0,2.7-2.3,24.1,24.1,0,0,1,2.1-2.4C313.2,296.6,313.3,297,313.1,297.3Zm.5-2.4s.1-.2.1,0S313.7,294.9,313.6,294.9Zm.9,2.9-.6-.4C314.2,297.5,314.5,297.5,314.5,297.8Zm1.1-18.2a1,1,0,0,1-.5.4c.1-.4.1-.7.4-.9A.9.9,0,0,1,315.6,279.6Zm1.5,5.1c-.2.5-.5,1-.7,1.6a11.9,11.9,0,0,1,1-3.2A9,9,0,0,1,317.1,284.7Zm.1-11c0-.1-.1-.2-.1-.4S317.5,273.7,317.2,273.7Zm.6-1.5c-.2-.2-.5-2.2.1-1.7S317.9,271.7,317.8,272.2Z" fill="#d71f27"/>
        <path d="M314.2,274.6a36.9,36.9,0,0,1-1.9,5.6,8.6,8.6,0,0,1,.5-2.7,15.5,15.5,0,0,1,.5-2.3c-.1-.8.2-2,.2-3a6.6,6.6,0,0,1,.5-2.8c.5-.9.2-1.8.4-2.8s.5-1.9.7-2.9h-3.5v-2.5c0-.4-.1-.8-.1-1.2s-.1-.6,0-.8.3-.2.3-.4-.4-1.1-.4-1.8-.2-1.7-.2-2.6.3-1.1,0-1.8-.3-.5.3-1,.3,0,.3-.4-.3-.1-.4-.3.4-.4.5-.9-.8-.1-1.1-.6v-.5c0-.3.5-.8.5-.9s-.7-.4-.7-.9.2-.5.3-.8a5,5,0,0,0,.2-1.2,21.2,21.2,0,0,0-1.4-5.5,39.3,39.3,0,0,0-2-5.4,19.8,19.8,0,0,0-2-3.8,5,5,0,0,0-1.3-1.9c-.2.9.3,2,.4,2.9-.2-.9-.5-.4-1.1-.2s-.7-.4-1-1l-1.5-2.8-1-1.8c-.3-.3-.3-.9.3-.7a7.9,7.9,0,0,1,1.4,1.7c.4-.5-.5-1.6-.9-1.9s-1.9-.6-2.1-1.4,1.1,1,2,.1a4.7,4.7,0,0,1-1.4-1.4c-.5-1.1-.9-2.4-1.5-3.6s-3-2.6-4.2-3.5l.5,1.2c.6-.3.5.7.4.9s-1.7-1-1.9-2.1-.1-.7-.7-1-.6-.2-.6-.9l1.1.3c.1-.5.4-1.3-.3-1.6s-.9.2-1.1,0-.1-.6-.1-.9a3.4,3.4,0,0,0-.4-2,2,2,0,0,1-.4.8c-.1.3-.6.6-.6.8s.5.9.5,1.4-.5.4-.9.2l-1.3-.5c-.5-.4-.7-1-1.1-1.4l-2-1.5c-.4-.3-3.5-2.7-3.9-1.9s.7.7,1,.9,1,1.1,1.6,1.7l3.7,2.9,1.7,1.5c.2.3,1.3,1.2,1.3,1.6s-.9.1-1.2-.1-1-.8-1.6-.6l.2.5-2.7-2c.9.4.7-.4.2-.8a3,3,0,0,0-1.8-.8,3.5,3.5,0,0,0,.6.9l-1.4-.9h.7c-.6-.2-.6-1-1.2-1.3s-1.5-.6-1.6-.4.4.4.4.7l-2.5-1.3a14.6,14.6,0,0,1-2.5-1.3c-.5-.4-.7-.8-1.3-.8h-.2l-.7-.2c-.6-.3-.6-.3-.7-.9s-.1.4-.7.3l-1-.4-2.2-.7q.4-.2,0-.3v.2a65.7,65.7,0,0,0-13.9-2.7l-6.9-.5h-3.2c-.3,0-2.9.1-2.6.7l-1.2.2c.3-.6-1.1-.6-.3,0a62,62,0,0,0-12,3l-1.4.4a.2.2,0,0,0-.3,0l-.2.3-2.5,1.1a5.8,5.8,0,0,1-2.1.7,3.3,3.3,0,0,0-1.4.4,5.2,5.2,0,0,0-1,1.1h.5l-3.4,1.9a3.9,3.9,0,0,0,.8-1c-1.2-.1-2.6,1-3.7,1.6l-.9.5c-.6.4-.4,1.2.4,1.3l-.8.5c-.3.2-.1-.1-.3.1s.1.1.1.1a61.6,61.6,0,0,0-16.4,18.8c0-.4-.6.5-.6.6a5.4,5.4,0,0,0-.7,1.3c-.5.8-.9,1.7-1.4,2.6s.4-.3.7-.5a3.6,3.6,0,0,0-.4.9c-.1-.2-.1-.3-.2-.4a4.4,4.4,0,0,0-.8,1.1c-.1.4.2.8.1,1.2a8.3,8.3,0,0,1-.7,1.8c-.1.2-.1.5-.2.8s-.4.4-.4.6v.4c-.1.4-.4.7-.5,1.1a13.6,13.6,0,0,1-.4,1.7c-.2-.3-.4-.2-.7,0s.3.3.7.2-.7,2.5-1,3.7a8.6,8.6,0,0,1-.3,1.7c-.3.1-.6-.6-.8-.8-.7,1.6-.7,3.8-.9,5.4s-.4,4-.4,5.9v5.7a5.9,5.9,0,0,0,.2,1.4c.1.3.3.6.2.9s-.6.1-.6.9a35.9,35.9,0,0,0,1.1,8,13.6,13.6,0,0,0,1.4,3.3c.1.2.3.5.2.7s-.4.2-.4.6.2.4.2.6.1.7.2,1.1.3-.8.4-1.2a9.1,9.1,0,0,1,1.5,2.3c.4.7.9,2.1,1.6,2.2s0-.4-.1-.5.4,1.2.8,1.7l.8.6.6,1a24.6,24.6,0,0,0,2.2,3.9,59.7,59.7,0,0,0,5.2,7.2,57.5,57.5,0,0,0,13.3,11.8,61.5,61.5,0,0,0,16.2,7.6c1.6.5,3,1.2,4.6,1.6a50.2,50.2,0,0,0,5.4.8,64,64,0,0,0,11.6.4c2.8-.3,5.5-.6,8.3-1.1l3.3-.6a9.8,9.8,0,0,1,2.3-.6h.6c.3.2.4.8.6.9s.4-.3.7-.4.8.3.6.4h.1a4.4,4.4,0,0,1,1.1-.8h0l4.8-2.4c.8-.4,1.9-.5,2.6-.9a9.3,9.3,0,0,1,1.9-1.1l.6-.2.3-.4.8-.3c.3-.1.5.2.8.2a5.1,5.1,0,0,0,2.4-1,24.1,24.1,0,0,0,2.4-2.1h-.1a17.3,17.3,0,0,1,2.7-1.5,34.6,34.6,0,0,0,6.8-5.3c1-.9,1.9-1.9,2.9-2.9s1.9-1.8,2.8-2.7a10.1,10.1,0,0,0,2.3-3.5,5.1,5.1,0,0,1,2.4-2.4,18.6,18.6,0,0,1-1.8,3.4c.4-.6,5.5-7.1,4.3-7.8s-1.2.3-1-.7a13.3,13.3,0,0,1,1.6-2.8,4.6,4.6,0,0,1,.9-1.5c.3-.2.8-.2,1.1-.6a5.4,5.4,0,0,0,.9-2.2,9.9,9.9,0,0,0-2.6,2.8c-.5,1-1,2.9-2.2,3.4s.2-.5.2-.8a1.5,1.5,0,0,0,.1-.7,4.8,4.8,0,0,1,.5-1.7,10.7,10.7,0,0,1,.7-1.9l1.2-2.2a32.9,32.9,0,0,0,3-10C314.8,273.9,314.3,274.2,314.2,274.6ZM282,210.9h-.1C281.8,210.8,281.9,210.9,282,210.9Zm30.6,54.7c.1,0,.1,0,.1.3S312.5,265.8,312.6,265.6Zm-.2,2.5c.1-.2.1-.4.2-.6s.2.7-.2,1.1Zm-1.1,3.2h-.1C311.2,271,311.2,271.4,311.3,271.3ZM308.6,295v.2C308.4,295,308.5,294.9,308.6,295Zm-1.4-7.1c-.1.1-.1.1-.2,0h.2Zm3.4-42.4c.2.3.1.5,0,.8l-.4-.2Zm-1.5-2.1c.2.1.2.2.1.3S309.1,243.6,309.1,243.4Zm.5,4.6-1.2-4.1a7,7,0,0,1,.6,1.9A10.4,10.4,0,0,1,309.6,248Zm-1.6-9.4h.1c0,.1,0,.1-.1.1Zm-.2,2.2a11,11,0,0,1,.2,1.8,3.5,3.5,0,0,1-.6-1.4c-.2-.4-.7-1.2-.4-1.4S307.7,240.5,307.8,240.8Zm-2.8-8.6c0-.1.1-.3,0-.4s.2,1.1.3,2c1-.6,1.1,0,1.5.9a7.3,7.3,0,0,1,.7,2.9c-.3-.5-.5-1.1-.8-1.7s-.7-1.2-.8-.4,1.4,3.3.2,2.6-.5-1.2-.6-1.5-.5-1.4-.7-2.2S303.7,232.7,305,232.2Zm-5.6-5.3-.5-.6C299.4,226,299.8,226.5,299.4,226.9Zm-1-2.2.7,1.1C298.9,225.6,298.2,224.9,298.4,224.7Zm-2.9-7-.6-.6C295.2,217.2,295.6,217.1,295.5,217.7Zm-1.7.9a3.7,3.7,0,0,1,1.8,1.7,7.1,7.1,0,0,1,1.3,2.4,4.1,4.1,0,0,1-1.7-1.5A4.2,4.2,0,0,1,293.8,218.6Zm-1.8-1.9h.6c-.1.3,0,.6-.4.5S292,217,292,216.7Zm-.2,1.2a8.2,8.2,0,0,1,1.7,2c-.6-.3-2.1-1.4-2.2-2.1Zm-1.9-1.4a.4.4,0,0,1,.5.7l-.7-.6Zm-75.7-2.7a8,8,0,0,1,1.9-1.3A7.2,7.2,0,0,1,214.2,213.8Zm-20.4,25.4h0Zm-4.8,15c0-.2.3,0,.4,0a5.7,5.7,0,0,1-.3,1.5C188.6,255.8,188.8,254.4,189,254.2Zm-.5,5a1,1,0,0,1,.4-.5c-.1.4,0,2.2-.4,2.3S188.3,259.5,188.5,259.2Zm.1,2.8c-.1,0-.1.2-.2.1S188.5,261.9,188.6,262Zm-.6,2.5.4-.4C188.9,264.7,188.6,265,188,264.5Zm.5,11.3h-.2c.1-.1.2-.1.3.1Zm.4,1.2v-.2C189,276.9,188.9,276.9,188.9,277Zm0-6.5c-.3-1.7-1.1-3.4-.4-5,.4.5.2,1.8.3,2.4s.1,1.8.2,2.7A.1.1,0,0,0,188.9,270.5Zm.7,9.7c-.3-.4-.7-.6-.4-1S189.8,279.8,189.6,280.2Zm1.2.2V280c.2.5.3,1,.5,1.5A2.2,2.2,0,0,1,190.8,280.4Zm1.3,6c-.3-.2-.3-.2-.2-.5A.4.4,0,0,1,192.1,286.4Zm-.6-4.1.2.5C191.6,282.6,191.5,282.5,191.5,282.3Zm78.2,40.9c-.1,0-.1-.1,0-.1S269.9,323.2,269.7,323.2ZM299,305.9c-.2.4-.3-.2-.3-.2S299.2,305.6,299,305.9Zm1-2.1,1-1A9.4,9.4,0,0,1,300,303.8Zm2.7-2.8a10.6,10.6,0,0,1-1.5,1.5c.5-.5.8-1.4,1.5-1.7Zm5.1-5.8a41.2,41.2,0,0,1-3.3,4c-.2.2-1.4,1.7-1.4.7s1.1-.9.5-1.3a15.7,15.7,0,0,0,2.4-2.1l2-2.2C307.9,294.6,308,294.9,307.8,295.2Zm.5-2.2s.1-.1.1,0S308.3,293,308.3,293Zm.8,2.7-.6-.4C308.8,295.4,309.1,295.4,309.1,295.7Zm1.1-16.8c-.2.2-.3.3-.5.3a1.1,1.1,0,0,1,.3-.8C310.1,278.6,310.2,278.7,310.2,278.9Zm1.3,4.7-.6,1.4a8.1,8.1,0,0,1,.9-2.9A8,8,0,0,1,311.5,283.6Zm.1-10.1a.6.6,0,0,0-.1-.4C311.7,273.3,311.9,273.4,311.6,273.5Zm.5-1.5c-.1-.2-.4-2,.1-1.5S312.2,271.6,312.1,272Z" fill="#fdb832"/>
      </g>
      <g>
        <path d="M302.6,55.3h.2a.1.1,0,0,1-.1.1c-.1,0-.3,0-.2-.1Z" fill="#fff" fill-rule="evenodd"/>
        <path d="M302.5,55.8c0,.3.5.3.6,0s-.1-.2-.2-.3.8.6,1.4.7a17.5,17.5,0,0,1,4.2.7,19.1,19.1,0,0,1,8.1,4.7,18.8,18.8,0,0,1,4.3,6.9,3.8,3.8,0,0,0,1,2.2c-.1.4-1,.2-.6.7s.7.9.4,1.5-.3.3-.6.3.3-.9,0-1.3-.3-.3-.2-.4-.8-.4-.5,0,.7,1.4.1,1.8h-.7a1.8,1.8,0,0,0,.4-1c-.1-.3-.4-.5-.4-.9a.3.3,0,0,0-.5,0v.2a1.7,1.7,0,0,1,.2,1.4,1.4,1.4,0,0,1-1.3.2c.2-.4.6-.7.6-1.2s-.4-.6-.5-.9-.4-.1-.4.1.3.8.2,1.2a1,1,0,0,1-1.6.3c.2-.4.6-.7.6-1.2s-.3-.3-.2-.6h-.1c-.2-.2-.7,0-.5.2s.1.4,0,.6-1.2.9-1.8.5,1-.9.6-1.6a.3.3,0,0,1,.1-.2c.1-.3-.5-.5-.6-.2s-.5,1.5-1.3,1.4a3.6,3.6,0,0,1-.9-.5c.3-.4,1-.7.8-1.5s.1,0,.1-.1-.5-.8-.5-.2-.2.3-.4.4l-.7.6c-.7.2-1.1-.4-1.5-.7s.9-.5,1.3-.9.1-.4.2-.5-.3-.6-.5-.3v.2c-.7,0-1.3.7-1.8.7l-.5-.2c-.1-.1-.7-.5-.7-.7s.8-.3,1.1-.4.5-.3.7-.6-.5-.8-.6-.3-.3.1-.5.1h-.6l-.7.4c-.6,0-.9-.6-1.3-.9s1.3-.4,1.9-.8l.2-.2c-.1-.4-.7-.6-.7-.1h-.1a1.9,1.9,0,0,0-1.1-.1l-.7.2c-.4.1-.6-.2-.9-.4s-.5-.3-.5-.5,1.2-.3,1.7-.3.3-.1.5,0,.1-.9-.3-.6-.4-.1-.7-.1h-.4c-.4,0-.8.3-1.1.3a1.8,1.8,0,0,1-1-.9c.5-.7,1.7-.1,2.3-.4s-.3-.7-.4-.3-.4-.2-.7-.3-1.1.2-1.5.2-.6-.6-.7-1.1,1.6,0,2.2.2.3-.1.4-.2-.4-.6-.6-.3-.6-.3-1-.4a2.1,2.1,0,0,0-1.1.1,1.1,1.1,0,0,1-.5-.9l.5-.2a2.6,2.6,0,0,1,1.4.3c.4.7,1-.5.2-.4s-.5-.2-.7-.3a2,2,0,0,0-1.5-.1,1.3,1.3,0,0,1-.1-.9,1.8,1.8,0,0,1,1.6.3c.1.1.1.2.3.2s.4-.8-.2-.6L302,57c-.3,0-.5.2-.8.1a.6.6,0,0,1,0-.6c.3-.3.8-.1,1.2.1s1-.3.2-.4a2.2,2.2,0,0,0-1.4-.1c-.1-.1,0-.3,0-.5a1.2,1.2,0,0,1,1.3.2Z" fill="#fff" fill-rule="evenodd"/>
        <path d="M300,55.9c.3-.2.9,0,.7.3a2,2,0,0,0-1.4.6h-.2c-.2-.2-.4,0-.4.2s.6.6.6.1.1-.1.1-.2,1.1-.3,1.2.2-1,.5-1.4.9-.1,1,.3.5v-.3a.8.8,0,0,1,.8-.4c.2,0,.5.4.5.5s-.6.4-.8.7-.3.6-.5.6.4,1.2.4.3,1.4-.8,1.3.1-.7.5-.9,1a6.4,6.4,0,0,0-.2.7H300c-1,.1.4,1.2.3.3s.2-.3.4-.5.4-.6.8-.6.5.6.5.9-.8,1.1-.6,1.8h-.2c-.8-.1-.1,1.1.3.4h0c.4-.4.5-.9,1-1.2a3.1,3.1,0,0,1,.7.9c-.1.7-.3,1.3-.4,2a.1.1,0,0,1-.1.1c-.9,0,.2,1.1.3.3s.5-1.1.9-1.5.8.5,1,.9-.4,1.4-.2,2.3h-.2c-.6.2.3,1,.5.5V68a9.3,9.3,0,0,0,.5-1c.1-.2,0-.5.3-.6s1,.5,1.1,1.2v.3c-.1.5.1,1.5-.2,1.7s-.2.5,0,.6h.4c0-.1.1-.2,0-.2a5.1,5.1,0,0,0,.7-1.7,1.8,1.8,0,0,1,1.2,1.7c.1.3-.1.7,0,1s.1.5-.1.7.2.7.5.4v-.3c0-.4.3-.5.4-.9s-.1-.6.1-1,.6.5,1,.6l.4.8c0,.4-.1.9-.1,1.3s.2.3,0,.5.7.5.6,0,.2-.5.3-.8-.2-.6,0-1a2.1,2.1,0,0,1,1.5,2.3h.4c0,.2-.1.2-.3.1s-.1.4-.2.6.7.7.6.1.2-.3.1-.6-.1-1,0-1.4a5.2,5.2,0,0,1,1.5.7c0,.3,0,.4.1.5a3,3,0,0,1-.2,1.4c0,.1,0,.3.1.3s.3.1.4,0h0c0-.4.1-.7.1-1.1s-.1.3,0,.4.1-.5.1-.6.1-.5.1-.8,1,.2,1.2.6a2,2,0,0,1,0,1.7c-.5.4.6.7.4.1s.3-.5.3-.9-.2-.7-.2-1.1h.7a1.2,1.2,0,0,1,.7,1.2c0,.2-.3.7-.3.9s.1.3.3.4.1-.1.2-.2h0c-.2-.2.1-.4.1-.6s.1-.3.2-.5-.3-.6-.4-1a1.1,1.1,0,0,1,.9,1.8c-.6.4.8.7.3,0h0c.1-.1.3-.2.4-.4s-.2-.9-.4-1.4.8.4,1.1.6h0c-.5.1,0,.8.3.4s0-.3-.1-.3l-.4-.9c.2-.2.7.1.6.3s.2.5,0,.9-.5.7-.6,1,0,.8-.1,1.2a15.2,15.2,0,0,1-2,6,16.2,16.2,0,0,1-1,1.8,28.9,28.9,0,0,1-2.9,3.2,20.5,20.5,0,0,1-3.2,2.4,23,23,0,0,1-3.9,1.7,4.1,4.1,0,0,0-1.5.7c-.1-.1-.2-.4-.5-.4s.1-.1.2-.1-.1-1.3-.3-.4,0,.2-.1.2a.6.6,0,0,1-.8-.4c.6.1,1.1-.4,1.5-.7s-.2-1.3-.4-.3-.5.3-.8.4a1.3,1.3,0,0,0-.6-.4c0-.2.3-.1.5-.1s.6-.6.9-.9-.4-1.2-.4-.3a.8.8,0,0,1-1.3.3c-.1-.5.2-.5.5-.8a10.9,10.9,0,0,0,.6-1.1c.7.1.2-1-.3-.5v.2h0c-.2.2-.8.9-1.1.9l-.4-.7c0-.2.1-.2.2-.3A5.8,5.8,0,0,0,305,86h.1c.8-.1-.2-1.1-.3-.4a4,4,0,0,1-1,1.2,1,1,0,0,1-.4-.5c-.1-.2-.4-.4-.4-.5s.5-.8.5-1.2-.1-.3,0-.5h.1c.8,0,0-1-.3-.4l-.9,1.3c-.4-.2-.7-.7-1-1s.3-.7.3-1.1-.1-.8.2-.8-.6-1.1-.5-.3a3.7,3.7,0,0,0-.7,1.4l-.5-.4-.5-.5c-.3-.4.1-.8.2-1.1s-.1-1,.2-1.1-.7-1-.6-.2-.2.3-.3.5-.2.7-.4,1-.3-.2-.5-.4a4.6,4.6,0,0,1-.7-.7c0-.6.2-1.1.2-1.6s-.1-.3,0-.4-.5-1.1-.4-.3a2.5,2.5,0,0,0-.5,1.6,1.8,1.8,0,0,1-.7-.5c-.2-.2-.6-.3-.7-.5s0-.5,0-.7,0-1.2.2-1.4-.6-.8-.6-.2-.4.7-.5,1.1.2.3,0,.6-1.8-.7-1.6-2,.2-.1.2-.2a.4.4,0,0,1,.2-.6c.3-.5-.8-.6-.6-.1s.2.2.2.3-.1-.2-.2-.1-.4,1-.4,1.5l-1.3-.6a1.9,1.9,0,0,1,.2-1.9c.6-.5-.8-1-.6-.2s-.2.4-.3.8a3.3,3.3,0,0,0,0,1,3.9,3.9,0,0,1-1.3-.6,3.8,3.8,0,0,1,0-1.5h.1c.6-.2,0-1-.4-.6s-.1.1-.1.3-.3.4-.3.8a3.4,3.4,0,0,0,.1,1.1c-.4.1-.5-.2-.7-.3l-.4-.2-.3-.4a1.1,1.1,0,0,1,.3-1.1c.9-.2-.3-1.3-.5-.4s-.2.4-.3.6-.1.3-.1.5a5.4,5.4,0,0,1,.3,1c-.4.2-.8-.2-1-.4a.9.9,0,0,1,.1-1.2c.2,0,.2-.1.3-.2s-.1-.2-.1-.4-.6.1-.5.3h0a1.4,1.4,0,0,0-.1,1.8c-.7.3-1.4-.3-1-1h.1c.6-.1-.2-.8-.3-.2s-.2.2-.2.4a1.6,1.6,0,0,0,.2,1c-.3.3-.9-.1-.7-.5s.2-.1.3-.2-.2-.3-.4-.3a7.5,7.5,0,0,1,.5-1.6,20,20,0,0,1,.9-3.5v-.2c.2-.5.5-1.1.7-1.7a11.7,11.7,0,0,0,.5-1.1c.1-.1.2-.1.2-.2a.4.4,0,0,0,.1-.3l.6-.8v-.2l.5-.6.5-.7a23.1,23.1,0,0,1,4.7-4.1,20.3,20.3,0,0,1,4.2-2l1.3-.4c.4-.2.5-.8,1.1-1s.6.6.7.2Z" fill="#fff" fill-rule="evenodd"/>
        <path d="M302.6,56.2c.8.1.1,1-.2.4h.3C302.8,56.4,302.5,56.4,302.6,56.2Z" fill="#020202" fill-rule="evenodd"/>
        <path d="M299.5,59.6c.1.1,0,.3.1.3s.1-.1.3-.1h0C299.9,60.8,298.7,59.8,299.5,59.6Z" fill="#020202" fill-rule="evenodd"/>
        <path d="M305.3,62.2h-.1c0-.1.1-.1,0-.2s-.2,0-.3-.1h0C305,61.5,305.8,62,305.3,62.2Z" fill="#020202" fill-rule="evenodd"/>
        <path d="M301.2,63.7c.1.1-.1.2-.1.3h.1c.1,0,.1-.2.3-.1h0C301.1,64.8,300.4,63.6,301.2,63.7Z" fill="#020202" fill-rule="evenodd"/>
        <path d="M308.1,65.3c-.2,0-.1-.2-.1-.3s-.3,0-.4,0,.6-.3.7.1Z" fill="#020202" fill-rule="evenodd"/>
        <path d="M304.5,67.8a.5.5,0,0,1,.1.3c.2.1.2-.2.4-.1v.3c-.2.5-1.1-.3-.5-.5Z" fill="#020202" fill-rule="evenodd"/>
        <path d="M316.9,70.8h0C316.8,71,316.7,70.8,316.9,70.8Z" fill="#020202" fill-rule="evenodd"/>
        <path d="M322.4,72l-.5-.7c0-.1-.1-.2,0-.3s.7.5.5,1Z" fill="#d71f27" fill-rule="evenodd"/>
        <path d="M321.9,71.3l.5.7c0,.3-.2.5-.3.8h0c0-.4,0-1.2-.4-1.4h0c0-.1.1-.1.2-.1Z" fill="#fff" fill-rule="evenodd"/>
        <path d="M291.3,74.2c-.2,0-.1-.3-.3-.4s-.1.3-.3.2S291.9,73.7,291.3,74.2Z" fill="#020202" fill-rule="evenodd"/>
        <path d="M293.1,74.9h.1v.2C293,75.1,293,75,293.1,74.9Z" fill="#fff" fill-rule="evenodd"/>
        <path d="M283.5,75.3h0c.1,0,.1.2.1.2Z" fill="#fff" fill-rule="evenodd"/>
        <path d="M286.4,77.1c-.2.5.6.6.8.2s0-.3-.2-.3a1.7,1.7,0,0,1-.1-1c.1-.7.9-.7,1.5-.4s-.7.7-.7,1.3.1.2.1.3h0c-.8.3.6,1,.6.2s0-1.2.4-1.5a1.2,1.2,0,0,1,1.3.2c-.3.4-1.2,1-.7,1.6h0c-.4.5.9.8.6.1h0c.2-.4.3-1,.8-1.2a2.1,2.1,0,0,1,1.4.4c-.4.4-1,.6-1.1,1.4s.3.9.6.5.7-1.5,1.6-1.4a3.3,3.3,0,0,1,1,.6c-.3.5-1.2.5-1.2,1.3h0c-.2,0-.2.2-.3.3s.6.5.8.1a.1.1,0,0,0,0-.2h0c.6-.1.8-.8,1.5-.7a1.9,1.9,0,0,1,1.1.5c.1.1.3.2.3.4s-1.2.5-1.6.9.4,1.2.4.4a.1.1,0,0,0,.1-.1c.7.2,1.1-.3,1.5-.3l.6.2c.4.1.4,0,.7.3s.5.5.1.7-1.4,0-1.7.4.2.9.5.5.4,0,.7,0,.9-.3,1.3-.2a2,2,0,0,1,.9.6c0,.4-1.3.7-1.7.6s-.1,1.1.3.5.4.2.6.2h.6l.8-.3.5.2a1,1,0,0,1,.8.7,2.5,2.5,0,0,1-2.1.3c-.1-.1-.2,0-.3,0s-.1.2-.1.4.6.3.6,0h.2a1.7,1.7,0,0,0,1,.3l1-.2.6.3a.9.9,0,0,1,.4.5c0,.2-.2.3-.4.4s-1.3-.2-1.8-.3-.3.2-.4.3.6.5.7.2h.1a2.1,2.1,0,0,0,1.7.4h.5c.2,0,.3.3.4.5s.1.2.2.4a2.5,2.5,0,0,1-1.9-.1c-.7-.5-.8.8,0,.5a2.2,2.2,0,0,0,2.1.2,1.9,1.9,0,0,1,.3.9c-.3.3-1,.1-1.4-.1a.3.3,0,0,0-.6.1.5.5,0,0,0,.6.4c.1-.1.3.1.5.2h1a.8.8,0,0,1,.2.6,1.7,1.7,0,0,1-1.4-.3c-.5-.5-.9.7-.1.6a3.7,3.7,0,0,0,1.5.1v.6h-1a.4.4,0,0,0-.7,0c0,.2.2.3.3.5s-.3.9.2.5h1.1a.3.3,0,0,1-.1.2h-.1c-.9.3-1.7-.4-2.4-.5a8.5,8.5,0,0,0-1.6,0,21.3,21.3,0,0,1-5.4-1.4,16.5,16.5,0,0,1-3.7-2,18,18,0,0,1-2.9-2.6,24.2,24.2,0,0,1-2.7-3.6,18.2,18.2,0,0,1-1.5-4.1c-.1-.1,0-.2-.1-.2s-.3-.6-.3-.8.4-.4.1-.5-1.1-1.8-.1-2-.2.8-.1,1.1.4.3.4.6.7.4.5,0-.8-.8-.6-1.5a.8.8,0,0,1,.8-.5,1.1,1.1,0,0,1-.2.6.9.9,0,0,0,.4,1v.2c-.3.4.8.6.5,0s-.6-1.3-.2-1.8.2,0,.2-.1a1.6,1.6,0,0,0,.7,0c-.1.4-.5.8-.4,1.4s.3.2.3.4Z" fill="#fff" fill-rule="evenodd"/>
        <path d="M292.9,75.4h.1v-.1Z" fill="#fff" fill-rule="evenodd"/>
        <path d="M295.7,76.4c-.2,0-.1-.3-.3-.3h-.3c0-.6,1-.3.6.2Z" fill="#020202" fill-rule="evenodd"/>
        <path d="M292.9,76.1v.3C292.8,76.4,292.9,76.2,292.9,76.1Z" fill="#fff" fill-rule="evenodd"/>
        <path d="M300.1,80H300c-.1-.1.1-.2,0-.4a.1.1,0,0,1-.1-.1c-.2.1-.2.2-.4.2s1.2-.2.6.2Z" fill="#020202" fill-rule="evenodd"/>
        <path d="M293.1,79.6c.1,0,0,.3,0,.4h.1c.2,0,.2-.2.4-.2a.1.1,0,0,1,0,.2c-.2.4-.7.2-.8-.1s.1-.3.3-.3Z" fill="#020202" fill-rule="evenodd"/>
        <path d="M296.6,82.4h.1c0,.1-.1.2-.1.3h.1c.2.1.2-.1.4,0h0c-.3.4-1-.3-.5-.5Z" fill="#020202" fill-rule="evenodd"/>
        <path d="M298.3,83.9c0,.1-.2.2-.1.3s.4.1.4.2S297.5,83.8,298.3,83.9Z" fill="#020202" fill-rule="evenodd"/>
        <path d="M306.1,87.7c-.2-.2.1-.3.1-.4s-.2.2-.4.1v-.2c.5-.5,1,.6.3.5Z" fill="#020202" fill-rule="evenodd"/>
        <path d="M303.6,90.8c.1.1.1.1,0,.1h-.3c-.1.2.2.2.2.4h0c-.8.1-.4-1.1.1-.6Z" fill="#020202" fill-rule="evenodd"/>
        <path d="M303.8,92.7c0-.1,0-.1-.1-.2h.2c.3-.1.7.1,1,0a.4.4,0,0,1,.1.3c-.3.2-1,.3-1.2,0Z" fill="#fff" fill-rule="evenodd"/>
        <path d="M306.5,92.4v.2c-.2.1-.7.1-.8-.1l.9-.2Z" fill="#fff" fill-rule="evenodd"/>
        <path d="M306.5,92.9h.2a1.3,1.3,0,0,1-1.2.1l1-.2Z" fill="#fff" fill-rule="evenodd"/>
        <path d="M287.4,73.2a1.1,1.1,0,0,0-.3,1.1l.3.4.4.2c.2.1.3.4.7.3a3.4,3.4,0,0,1-.1-1.1c0-.4.3-.5.3-.8s.2-.2.4-.1h0c.2.1-.1.3.1.4h-.1a3.8,3.8,0,0,0,0,1.5,3.9,3.9,0,0,0,1.3.6,3.3,3.3,0,0,1,0-1c.1-.4.4-.6.3-.8s.1-.2.3-.2.1.4.3.4a1.9,1.9,0,0,0-.2,1.9l1.3.6c0-.5-.1-1.4.4-1.5s.1.2.2.1-.2-.1-.2-.3.5-.2.6.1a.4.4,0,0,0-.2.6c0,.1-.2.1-.2.2s.9,1.5,1.6,2,0-.4,0-.6.4-.7.5-1.1h.3c.2,0,.2.3.3.3s-.2.8-.2,1.4-.1.5,0,.7.5.3.7.5a1.8,1.8,0,0,0,.7.5,2.5,2.5,0,0,1,.5-1.6c.2,0,.1-.2.3-.1s0,.3.1.4,0,.2,0,.4-.2,1-.2,1.6a4.6,4.6,0,0,0,.7.7c.2.2.3.4.5.4s.2-.7.4-1,.3-.3.3-.5.2-.1.4-.2a.1.1,0,0,0,.1.1c.1.2-.1.3,0,.4h.1c-.3.1-.2.7-.2,1.1s-.4.7-.2,1.1l.5.5.5.4a3.7,3.7,0,0,1,.7-1.4c.2,0,.3-.3.5-.1s-.2.3,0,.4-.1.5-.2.8-.4.7-.3,1.1.6.8,1,1l.9-1.3c.1.2.3-.1.4,0s-.2.2-.1.4h-.1c-.1.2,0,.3,0,.5s-.5.8-.5,1.2.3.3.4.5a1,1,0,0,0,.4.5,4,4,0,0,0,1-1.2c.1.2.2-.1.4,0l-.2.3h0a5.8,5.8,0,0,1-.5,1.4c-.1.1-.2.1-.2.3l.4.7c.3,0,.9-.7,1.1-.9h0c.2.1.3-.1.4-.1s-.3.2-.1.4a10.9,10.9,0,0,1-.6,1.1c-.3.3-.6.3-.5.8a.8.8,0,0,0,1.3-.3c.2.1.2-.2.4-.1s-.1.3,0,.4-.5.7-.9.9-.5-.1-.5.1a1.3,1.3,0,0,1,.6.4c.3-.1.7-.2.8-.4s.3-.2.4-.1-.1.2,0,.4-.9.8-1.5.7a.6.6,0,0,0,.8.4c.1,0,0-.1.1-.2s.3.1.4.1-.2.1-.1.3-.3,0-.2.1a.1.1,0,0,0-.1.1h0l-.9.2c.1.2.6.2.8.1s.2,0,.3,0-.2.1-.2.3l-1,.2c-.4-.2-.5.1-.7.2a.3.3,0,0,0,.1-.2h-1.1c0-.1-.2-.1-.2-.2h.2c.2.3.9.2,1.2,0a.4.4,0,0,0-.1-.3c-.3.1-.7-.1-1,0s-.3-.1-.3-.4H305v-.6a3.7,3.7,0,0,1-1.5-.1h0c0-.2-.3-.2-.2-.4h.3c.1,0,.1,0,0-.1a1.7,1.7,0,0,0,1.4.3.8.8,0,0,0-.2-.6h-1c-.2-.1-.4-.3-.5-.2s-.4-.2-.4-.5.4.2.4,0,1.1.4,1.4.1a1.9,1.9,0,0,0-.3-.9,2.2,2.2,0,0,1-2.1-.2v-.2h-.4v-.2h.4a2.5,2.5,0,0,0,1.9.1c-.1-.2-.1-.3-.2-.4s-.2-.5-.4-.5h-.5a2.1,2.1,0,0,1-1.7-.4h-.1c0-.3-.2-.1-.4-.1s.2-.3.1-.4,1.2.5,1.8.3.4-.2.4-.4a.9.9,0,0,0-.4-.5l-.6-.3-1,.2a1.7,1.7,0,0,1-1-.3H300c0-.2-.3,0-.4-.1h0c0-.1.4,0,.2-.2a2.5,2.5,0,0,0,2.1-.3,1,1,0,0,0-.8-.7l-.5-.2-.8.3h-.6c-.2,0-.4-.3-.6-.2s-.4.1-.4-.2.1-.2.1-.3,1.7-.2,1.7-.6a2,2,0,0,0-.9-.6c-.4-.1-.8.2-1.3.2s-.5-.3-.7,0h0c-.2-.1-.2.1-.4,0h-.1c0-.1.1-.2.1-.3h-.1c.3-.4,1.2-.2,1.7-.4s.1-.5-.1-.7-.3-.2-.7-.3l-.6-.2c-.4,0-.8.5-1.5.3a.1.1,0,0,1-.1.1c-.1-.1-.2.2-.4,0s.2-.3,0-.4,1.1-.5,1.6-.9-.2-.3-.3-.4a1.9,1.9,0,0,0-1.1-.5c-.7-.1-.9.6-1.5.7h0c-.2,0-.2.2-.4.2h-.1c0-.1.1-.4,0-.4h0c0-.8.9-.8,1.2-1.3a3.3,3.3,0,0,0-1-.6c-.9-.1-1.2.8-1.6,1.4s-.2,0-.3-.1-.1-.6-.3-.4.7-1,1.1-1.4a2,2,0,0,0-1.4-.4c-.5.2-.6.8-.8,1.2h0c-.2,0-.1.2-.3.2s-.1-.3-.3-.3h0c-.5-.6.4-1.2.7-1.6a1.2,1.2,0,0,0-1.3-.2c-.4.3-.4,1-.4,1.5s-.2.2-.3.2-.1-.4-.3-.4h0c0-.1-.2-.1-.1-.3s.4-.9.7-1.3-1.4-.3-1.5.4a1.7,1.7,0,0,0,.1,1c-.1,0-.1.3-.2.4s-.2-.4-.4-.3-.2-.2-.3-.4.3-1,.4-1.4a1.6,1.6,0,0,1-.7,0c0,.1-.1.1-.2.1s0,1.4.2,1.8-.1.2-.3.2a.4.4,0,0,1-.1-.3c-.1,0-.1,0-.1.1V77a.9.9,0,0,1-.4-1,1.1,1.1,0,0,0,.2-.6.8.8,0,0,0-.8.5c-.2.7.5,1,.6,1.5s-.1.1-.2.2-.1-.3-.3-.2-.3-.3-.4-.6.1-.7.1-1.1-.5,1.7.1,2,0,.2-.1.3a.4.4,0,0,1-.1-.3c-.5,0-.7-.5-.6-1s.4-1,.1-1.3h.1s0-.2-.1-.2h-.1c0-.2-.1-.5,0-.7h.2c-.2.4.4.8.7.5a1.6,1.6,0,0,1-.2-1c0-.2.2-.3.2-.4h.2c0,.2.1.2.1.2h-.1c-.4.7.3,1.3,1,1a1.4,1.4,0,0,1,.1-1.8h0c.1,0,.2-.2.4-.1s-.2.3-.1.4a.9.9,0,0,0-.1,1.2c.2.2.6.6,1,.4a5.4,5.4,0,0,0-.3-1c0-.2.1-.3.1-.5s.3-.3.3-.6.3-.2.5,0-.2.3,0,.4Zm5.7,1.9v-.2h-.1C293,75,293,75.1,293.1,75.1Zm-.2.7v-.3h-.1Zm0,.6v-.3C292.9,76.2,292.8,76.4,292.9,76.4Z" fill="#d71f27" fill-rule="evenodd"/>
        <path d="M302.6,55.3h-.1c-.1.1.1.1.2.1s.2.2.1.4-.3-.2-.3,0a1.2,1.2,0,0,0-1.3-.2c0,.2-.1.4,0,.5a2.2,2.2,0,0,1,1.4.1c-.1.2.2.2.1.4h-.3c-.4-.2-.9-.4-1.2-.1a.6.6,0,0,0,0,.6c.3.1.5-.1.8-.1l.9.5v.2h.3c0,.2-.3-.1-.4.1a1.8,1.8,0,0,0-1.6-.3,1.3,1.3,0,0,0,.1.9,2,2,0,0,1,1.5.1c.2.1.3.4.7.3s.2.1.2.3-.3,0-.4.1a2.6,2.6,0,0,0-1.4-.3l-.5.2a1.1,1.1,0,0,0,.5.9A2.1,2.1,0,0,1,303,60c.4.1.7.6,1,.4s.3,0,.3.1-.3.2-.1.4-1.6-.6-2.2-.2.3,1.1.7,1.1.9-.5,1.5-.2.5.6.7.3h0c.1.1.3,0,.3.1s0,.1,0,.2h.1c-.6.3-1.8-.3-2.3.4a1.8,1.8,0,0,0,1,.9c.3,0,.7-.3,1.1-.3h.4c.3,0,.5.4.7.1s.3.1.3.2-.2.2,0,.4-.3,0-.5,0-1.7-.3-1.7.3.4.4.5.5.5.5.9.4l.7-.2a1.9,1.9,0,0,1,1.1.1h.1c.1,0,.3-.2.4,0s-.1.3.1.3-1.6.3-1.9.8.7.9,1.3.9l.7-.4h.6c.2,0,.5.2.5-.1a.6.6,0,0,1,.6.3c-.2.3-.3.5-.7.6s-1.1.2-1.1.4.6.6.7.7l.5.2c.5,0,1.1-.7,1.8-.7v-.2c0,.2.3,0,.4.1s0,.3.1.2-.1.3-.2.5-1,.5-1.3.9.8.9,1.5.7l.7-.6c.2-.1.4-.2.4-.4s.2-.1.3-.1l.2.3c0,.1,0,.1-.1.1s-.5,1.1-.8,1.5a3.6,3.6,0,0,0,.9.5c.8.1,1.1-.7,1.3-1.4h.3c.2,0,.1.2.3.2a.3.3,0,0,0-.1.2c.4.7-.4,1.1-.6,1.6s1.7.4,1.8-.5,0-.4,0-.6.2-.2.5-.2h.1c-.2,0-.1.2,0,.1s.1.4.2.6-.4.8-.6,1.2a1,1,0,0,0,1.6-.3c.1-.4-.2-.9-.2-1.2s.2-.1.4-.1.4.5.5.9-.4.8-.6,1.2a1.4,1.4,0,0,0,1.3-.2,1.7,1.7,0,0,0-.2-1.4c.1,0,.2-.3.4-.1h.1c0,.4.3.6.4.9s-.3.7-.4,1h.7c.6-.4.1-1.3-.1-1.8s.1-.2.3-.1,0,.2.2.1.2.2.2.4.1.8,0,1.3.6-.1.6-.3-.2-1.2-.4-1.5a.3.3,0,0,1,.1-.2c.1,0,.1.2.3.2h0c.4.2.4,1,.4,1.4h0c0,.3.5.6.3,1h-.1c.1-.2-.4-.5-.6-.3l.4.9H322c-.1,0-.1-.2-.1-.2h0c-.3-.2-.5-.8-1.1-.6s.5.8.4,1.4-.3.3-.4.4h0c-.1.1,0,.3-.1.4s0-.4-.2-.4a1.1,1.1,0,0,0-.9-1.8c.1.4.4.5.4,1s-.1.4-.2.5-.3.4-.1.6-.2.1-.3.2-.1-.2-.1-.4h-.1c0-.2.3-.7.3-.9a1.1,1.1,0,0,0-.7-1.2h-.7c0,.4.3.6.2,1.1s-.5.7-.3.9h-.3c-.1-.1,0-.2-.1-.2a2,2,0,0,0,0-1.7c-.2-.4-.7-.5-1.2-.6s.2.7-.1.8.1.5-.1.6.1-.3,0-.4-.1.7-.1,1.1-.2,0-.3,0v-.3h-.2a3,3,0,0,0,.2-1.4c-.1-.1-.1-.2-.1-.5a5.2,5.2,0,0,0-1.5-.7c-.1.4.4,1.1,0,1.4s-.1.5-.1.6-.2.2-.3.2-.1-.3-.3-.3.1-.4.2-.6.3.1.3-.1h-.4a2.1,2.1,0,0,0-1.5-2.3c-.2.4,0,.6,0,1s-.4.6-.3.8-.2.2-.4.2v-.3h-.2c.2-.2.1-.3,0-.5s.1-.9.1-1.3l-.4-.8c-.4-.1-.6-.6-1-.6s0,.6-.1,1-.4.5-.4.9-.1.2-.3.1-.1-.2-.2-.2.1-.4.1-.7.1-.7,0-1a1.8,1.8,0,0,0-1.2-1.7,5.1,5.1,0,0,1-.7,1.7c-.1-.2-.1.2-.3.1s.1-.3-.1-.4.1-1.2.2-1.7v-.3c-.1-.7-.8-1-1.1-1.2s-.2.4-.3.6a9.3,9.3,0,0,1-.5,1c-.2-.1-.2.2-.4.1a.5.5,0,0,0-.1-.3h.2c-.2-.9.4-1.7.2-2.3s-.7-.5-1-.9-.5,1.1-.9,1.5-.2.2-.4,0,.2-.2.1-.3a.1.1,0,0,0,.1-.1c.1-.7.3-1.3.4-2a3.1,3.1,0,0,0-.7-.9c-.5.3-.6.8-1,1.2h0c-.2-.1-.2.1-.3.1h-.1c0-.1.2-.2.1-.3h.2c-.2-.7.6-1.3.6-1.8s-.4-.6-.5-.9-.6.4-.8.6-.4.3-.4.5-.2.1-.4.1.2-.2.1-.4h.1a6.4,6.4,0,0,1,.2-.7c.2-.5.8-.7.9-1s-1.2-.8-1.3-.1h0c-.2,0-.1.2-.3.1s0-.2-.1-.3.3-.4.5-.6.9-.4.8-.7-.3-.5-.5-.5a.8.8,0,0,0-.8.4c-.2-.1-.2.2-.4.1s.2-.2.1-.3.7-.9,1.4-.9-.9-.4-1.2-.2,0,.1-.1.2-.2-.2-.2-.3h.2a2,2,0,0,1,1.4-.6c.2-.3-.4-.5-.7-.3s-.3,0-.4-.1.5-.3,1-.2h.3c.2,0,.4-.3.7-.4Z" fill="#d71f27" fill-rule="evenodd"/>
        <path d="M320.4,71.5c-.3-.4.7-.5.5,0s-.1-.2-.2-.1-.1.1-.3.1Z" fill="#020202" fill-rule="evenodd"/>
        <path d="M314.6,70c.1-.3.7-.1.6.2s-.1-.2-.3-.2Z" fill="#020202" fill-rule="evenodd"/>
        <path d="M306.2,63.4c.4-.3.9.5.3.6s.1-.2,0-.4S306.2,63.6,306.2,63.4Z" fill="#020202" fill-rule="evenodd"/>
        <path d="M303.5,58.9c.8-.1.2,1.1-.2.4s.3.1.4-.1-.2-.1-.2-.3Z" fill="#020202" fill-rule="evenodd"/>
        <path d="M300.3,62c.1.9-1.3-.2-.3-.3s-.1.2-.1.4S300.1,61.9,300.3,62Z" fill="#020202" fill-rule="evenodd"/>
        <path d="M318,75.5c.2.6-.9.3-.4-.1s0,.1.1.2Z" fill="#020202" fill-rule="evenodd"/>
        <path d="M320.8,75.5c.5.7-.9.4-.3,0s0,.4.2.4S320.7,75.6,320.8,75.5Z" fill="#020202" fill-rule="evenodd"/>
        <path d="M306.3,89.3c0-.9,1.2,0,.4.3s.1-.3,0-.4S306.5,89.4,306.3,89.3Z" fill="#020202" fill-rule="evenodd"/>
        <path d="M291.7,79c-.3.4-1-.1-.6-.5s.1.4.3.4S291.6,78.8,291.7,79Z" fill="#020202" fill-rule="evenodd"/>
        <path d="M301.3,87.3c-.1.3-.6.1-.7-.2s.2-.3.4-.3-.2.2-.1.4S301.3,87,301.3,87.3Z" fill="#020202" fill-rule="evenodd"/>
        <path d="M303.6,93.9h0l-1.4-.5h-1a18.3,18.3,0,0,1-11.6-5,16.7,16.7,0,0,1-5.2-8c-.2-.5-.3-1.2-.5-1.7l-.5-.7a2.1,2.1,0,0,1-.2-2.2c-.5-1,.1-2.4.4-3.3a3.1,3.1,0,0,0,.2-.8,22.2,22.2,0,0,1,.9-3.3,18.8,18.8,0,0,1,7.5-9.3l1.3-.8a17.9,17.9,0,0,1,3.7-1.5l.8-.3a6,6,0,0,1,.8-.8,2.1,2.1,0,0,1,2.1-.3,1.9,1.9,0,0,1,1.8-.3,6.9,6.9,0,0,1,1.5.7,10.1,10.1,0,0,0,1.7.3,18.6,18.6,0,0,1,15.4,12.8l.3.9a4.7,4.7,0,0,0,.6.9c.4.5.8.8.6,1.7s-.3.4-.2.5.1.3.1.5a3,3,0,0,1-.6,2.6,19.6,19.6,0,0,1-5.2,11.4,20,20,0,0,1-7.6,4.9l-1.5.5c-.6.4-1.2,1.1-2.1.9h-.4l-.7.4Zm-3.6-38c-.1.4-.6.1-.7-.2s-.7.8-1.1,1l-1.3.4a20.3,20.3,0,0,0-4.2,2,23.1,23.1,0,0,0-4.7,4.1l-.5.7-.5.6v.2l-.6.8a.4.4,0,0,1-.1.3c0,.1-.1.1-.2.2a11.7,11.7,0,0,1-.5,1.1c-.2.6-.5,1.2-.7,1.7V69a20,20,0,0,0-.9,3.5,7.5,7.5,0,0,0-.5,1.6c.2,0,.3.1.4.3s-.1.2-.3.2h-.2c-.1.2,0,.5,0,.7h.1c.3.3-.1.7-.1,1.3s.1,1,.6,1a.4.4,0,0,0,.1.3c.1-.1,0-.2.1-.3s0,.3-.1.5.3.6.3.8,0,.1.1.2a18.2,18.2,0,0,0,1.5,4.1,24.2,24.2,0,0,0,2.7,3.6,18,18,0,0,0,2.9,2.6,16.5,16.5,0,0,0,3.7,2,21.3,21.3,0,0,0,5.4,1.4,8.5,8.5,0,0,1,1.6,0c.7.1,1.5.8,2.4.5h.1c.2-.1.3-.4.7-.2a1.3,1.3,0,0,0,1.2-.1h-.2c0-.2.3-.1.2-.3s-.2.1-.3,0v-.2a.1.1,0,0,1,.1-.1c.3,0,.4.3.5.5a3.1,3.1,0,0,1,1.5-.8,23,23,0,0,0,3.9-1.7,20.5,20.5,0,0,0,3.2-2.4,28.9,28.9,0,0,0,2.9-3.2,16.2,16.2,0,0,0,1-1.8,15.2,15.2,0,0,0,2-6c.1-.4,0-.8.1-1.2s.5-.6.6-1-.1-.6,0-.9h.1c.2-.4-.3-.7-.3-1s.3-.5.3-.8-.1-.8-.5-1,0,.2,0,.3-.2,0-.2.1-.2-.1-.3-.2a.3.3,0,0,0-.1.2c-.4-.5.5-.3.6-.7a3.8,3.8,0,0,1-1-2.2,18.8,18.8,0,0,0-4.3-6.9,19.1,19.1,0,0,0-8.1-4.7,17.5,17.5,0,0,0-4.2-.7c-.6-.1-.7-.6-1.4-.7s.2.1.2.3-.6.3-.6,0,.2.1.3,0-.2-.2-.1-.4a.1.1,0,0,0,.1-.1h-1.2c-.3.1-.5.4-.7.4h-.3c-.5-.1-.8-.1-1,.2s.4,0,.4.1Z" fill="#020202" fill-rule="evenodd"/>
        <path d="M299.5,58.2v.3c-.4.5-1.1-.5-.3-.5s-.1.1-.1.3S299.3,58.1,299.5,58.2Z" fill="#020202" fill-rule="evenodd"/>
        <path d="M304,60.4c.2-.3.7,0,.6.3s-.3.3-.4.2.1-.2.1-.4S304,60.5,304,60.4Z" fill="#020202" fill-rule="evenodd"/>
        <path d="M303,66c-.1.8-1.2-.3-.3-.3s-.2.2-.1.3S302.9,65.9,303,66Z" fill="#020202" fill-rule="evenodd"/>
        <path d="M309.3,66.4c.1-.5,1-.1.6.3A.6.6,0,0,0,309.3,66.4Z" fill="#020202" fill-rule="evenodd"/>
        <path d="M312.8,69.1c0-.6.9-.1.5.2l-.2-.3c-.1,0-.2.2-.3.1Z" fill="#020202" fill-rule="evenodd"/>
        <path d="M307.1,69.9c.1,0,0,.1,0,.2h-.4c-.2-.1-.4-.5,0-.6s-.1.4.1.4.2-.3.3-.1Z" fill="#020202" fill-rule="evenodd"/>
        <path d="M316.3,70.9c-.2-.2.3-.4.5-.2S316.5,70.9,316.3,70.9Z" fill="#020202" fill-rule="evenodd"/>
        <path d="M317.9,71.2c0-.2.3-.2.4-.1S318,71.4,317.9,71.2Z" fill="#020202" fill-rule="evenodd"/>
        <path d="M319.3,71.6v-.2a.3.3,0,0,1,.5,0h-.1C319.5,71.3,319.4,71.6,319.3,71.6Z" fill="#020202" fill-rule="evenodd"/>
        <path d="M309.4,71.7V72c-.3.3-.8-.2-.5-.4s.1.2.2.3.1-.3.3-.2Z" fill="#020202" fill-rule="evenodd"/>
        <path d="M286.9,72.8c.2-.9,1.4.2.5.4s.1-.3,0-.4S287,72.9,286.9,72.8Z" fill="#020202" fill-rule="evenodd"/>
        <path d="M288.7,73.3c0-.2,0-.2.1-.3s1,.4.4.6.1-.3-.1-.4h0C288.9,73.1,288.9,73.3,288.7,73.3Z" fill="#020202" fill-rule="evenodd"/>
        <path d="M311.8,73c.1.5-.8.5-.6,0h.2v.3C311.6,73.2,311.6,73,311.8,73Z" fill="#020202" fill-rule="evenodd"/>
        <path d="M285.6,73c-.1-.2.2-.4.5-.3s.1.3.1.4-.1.2-.3.2.1-.2.1-.4S285.7,73,285.6,73Z" fill="#020202" fill-rule="evenodd"/>
        <path d="M284.3,73.7c.1-.6.9.1.3.2s-.1,0-.1-.2Z" fill="#020202" fill-rule="evenodd"/>
        <path d="M314.1,74.3c.1.6-.8.4-.6-.1s.1.2.3.3S313.9,74.2,314.1,74.3Z" fill="#020202" fill-rule="evenodd"/>
        <path d="M292.8,75c-.2-.5.9-.4.6.1S293,74.7,292.8,75Z" fill="#020202" fill-rule="evenodd"/>
        <path d="M316.1,75.2h0c-.1.1-.4.2-.4,0s-.1-.2-.1-.3h.2v.3c.1,0,.2-.2.3,0Z" fill="#020202" fill-rule="evenodd"/>
        <path d="M319.7,75.8h0c-.1.1-.1.2-.2.2s-.4-.1-.3-.4h.1c0,.2,0,.3.1.4s.1-.3.3-.2Z" fill="#020202" fill-rule="evenodd"/>
        <path d="M285.8,77.2c.3.6-.8.4-.5,0s0-.1.1-.1a.4.4,0,0,0,.1.3C285.7,77.4,285.7,77.2,285.8,77.2Z" fill="#020202" fill-rule="evenodd"/>
        <path d="M287,77c.2,0,.1.2.2.3s-1,.3-.8-.2.1.3.4.3S286.9,77,287,77Z" fill="#020202" fill-rule="evenodd"/>
        <path d="M288.4,77.5c0,.8-1.4.1-.6-.2s.1.3.3.4.1-.2.3-.2Z" fill="#020202" fill-rule="evenodd"/>
        <path d="M284.9,77.4c.2.4-.7.4-.5,0s.1.2.3.2S284.8,77.3,284.9,77.4Z" fill="#020202" fill-rule="evenodd"/>
        <path d="M297.4,77.9c-.1-.8,1.2,0,.4.3s.1-.3-.1-.4S297.6,77.9,297.4,77.9Z" fill="#020202" fill-rule="evenodd"/>
        <path d="M290,78c.3.7-1,.4-.6-.1s.1.3.3.3S289.8,78,290,78Z" fill="#020202" fill-rule="evenodd"/>
        <path d="M295.3,81.2c0,.8-1.2-.2-.4-.4s-.1.3,0,.4S295.2,81.1,295.3,81.2Z" fill="#020202" fill-rule="evenodd"/>
        <path d="M303.3,83.6c.3-.6,1.1.4.3.4s.2-.2.1-.4S303.4,83.8,303.3,83.6Z" fill="#020202" fill-rule="evenodd"/>
        <path d="M300,85.8c0,.3-.5.2-.6,0s0-.3.1-.4.2-.1.3,0-.2.1-.2.2h0c.1.1.4-.1.4.1Z" fill="#020202" fill-rule="evenodd"/>
        <path d="M304.8,85.6c.1-.7,1.1.3.3.4H305l.2-.3C305,85.5,304.9,85.8,304.8,85.6Z" fill="#020202" fill-rule="evenodd"/>
        <path d="M302.3,88.8c-.8.3-.7-1,0-.5h-.4v.2h.4Z" fill="#020202" fill-rule="evenodd"/>
        <path d="M303.3,90.3c-.3,0-.6-.2-.6-.4a.3.3,0,0,1,.6-.1c0,.2-.3-.1-.4,0s.3.2.4.5Z" fill="#020202" fill-rule="evenodd"/>
        <path d="M306.7,90.6c.2-1,1.3.3.4.3s.1-.2,0-.4-.3.1-.4.1Z" fill="#020202" fill-rule="evenodd"/>
        <path d="M306.5,91.8c.2-.9,1.2.5.3.4s.1-.2.1-.3S306.5,92,306.5,91.8Z" fill="#020202" fill-rule="evenodd"/>
        <path d="M303.8,93c-.5.4-.9-.6-.2-.5s-.3-.3-.3-.5a.4.4,0,0,1,.7,0h-.4c0,.3.4.1.3.4h-.2c.1.1.1.1.1.2h-.2C303.6,92.9,303.8,92.9,303.8,93Z" fill="#020202" fill-rule="evenodd"/>
        <path d="M299.1,56.8c0,.1.2.2.2.3s-.7.2-.6-.1S298.9,56.6,299.1,56.8Z" fill="#020202" fill-rule="evenodd"/>
        <path d="M302.9,57.5c.6-.2.7.7.2.6s-.2-.1-.3-.2.4.1.4-.1h-.3Z" fill="#020202" fill-rule="evenodd"/>
        <path d="M311.2,67.7c.2-.3.8.1.5.3s0-.1-.1-.2-.4.1-.4-.1Z" fill="#020202" fill-rule="evenodd"/>
        <path d="M322.1,74.4c.1,0,.1.2.1.3s-.8-.3-.3-.4,0,.2.1.2Z" fill="#020202" fill-rule="evenodd"/>
        <path d="M301.4,81.7c-.1-.8,1.2,0,.5.3s0-.2,0-.4S301.6,81.7,301.4,81.7Z" fill="#020202" fill-rule="evenodd"/>
      </g>
      <g>
        <path d="M30.5,295.8h.2a.1.1,0,0,0-.1.1c-.1,0-.2,0-.2-.1Z" fill="#fff" fill-rule="evenodd"/>
        <path d="M30.4,296.3c.1.3.5.2.5,0s-.1-.1-.1-.3.7.5,1.3.6a19.3,19.3,0,0,1,3.6.6,16.2,16.2,0,0,1,7.1,4.2,15.8,15.8,0,0,1,3.8,6.1,3.4,3.4,0,0,0,.9,1.9c0,.4-.9.1-.5.6s.6.9.4,1.4a.8.8,0,0,1-.6.2c.1-.5.2-.8,0-1.1s-.3-.3-.2-.4-.7-.4-.4,0,.6,1.2.1,1.6h-.6a2.4,2.4,0,0,0,.3-.9c0-.3-.3-.5-.4-.7s-.3-.2-.4-.1v.2c.2.3.4.9.2,1.2a1.1,1.1,0,0,1-1.1.2c.1-.4.5-.6.5-1.1a1.8,1.8,0,0,0-.5-.7c0-.1-.3-.1-.3.1s.3.7.1,1-.9.6-1.3.3.5-.7.4-1.1-.1-.3-.1-.5H43c-.1-.2-.6,0-.4.2v.5c-.1.8-1.1.8-1.6.4s.9-.7.5-1.3V309c.1-.3-.4-.5-.5-.2s-.4,1.3-1.2,1.2-.6-.3-.8-.5,1-.5.8-1.2h0c.4-.3-.4-.8-.4-.2s-.2.2-.3.3-.5.5-.7.5-.9-.3-1.3-.5.8-.5,1.2-.8,0-.3.2-.4-.3-.6-.5-.3a.3.3,0,0,0-.1.2c-.7-.1-1.1.6-1.5.6l-.6-.2-.5-.6c0-.2.7-.3.9-.4s.4-.3.6-.5-.4-.7-.5-.2-.2,0-.4,0h-.6c-.2.1-.4.3-.6.3s-.8-.5-1.1-.8,1.2-.3,1.6-.6.2-.2.2-.3-.5-.4-.6-.1v.2l-.9-.2-.7.3a1,1,0,0,1-.7-.4c-.1-.1-.5-.3-.4-.4s1-.3,1.4-.3.3-.1.5,0,.1-.8-.3-.5-.4-.1-.6-.1h-.4l-1,.2c-.4,0-.7-.5-.9-.8s1.6,0,2.1-.3-.2-.6-.4-.2-.4-.3-.6-.3-.9.1-1.3.1-.5-.5-.6-.9,1.4,0,1.9.1.3,0,.4-.1-.3-.5-.5-.3-.6-.2-.9-.3a1.6,1.6,0,0,0-1,.1c-.3-.1-.4-.5-.4-.8l.4-.2c.4,0,1.1.1,1.2.3s.9-.5.2-.4-.4-.2-.6-.3a1.9,1.9,0,0,0-1.3,0,1.1,1.1,0,0,1-.1-.8,1.7,1.7,0,0,1,1.4.2l.2.2c.5.1.4-.7-.1-.5s-.5-.4-.8-.4-.4.1-.8,0v-.5c.3-.3.8-.1,1.1.1s.9-.3.2-.4-.8-.3-1.2-.1,0-.3,0-.4a.9.9,0,0,1,1.1.2Z" fill="#fff" fill-rule="evenodd"/>
        <path d="M28.2,296.4c.3-.2.8-.1.7.3a1.7,1.7,0,0,0-1.3.5h-.1a.2.2,0,0,0-.4.1c-.1.3.5.6.5.1h.1c.3-.2,1-.3,1.1.1s-.9.5-1.3.8,0,.9.3.4v-.2c0-.2.4-.4.7-.4l.5.5c0,.3-.6.3-.8.6s-.2.5-.4.5.3,1.1.3.3,1.3-.7,1.2,0-.6.6-.8.9l-.2.7h-.1c-.8.1.4,1,.3.2s.2-.2.3-.4.4-.5.8-.5.4.5.4.8-.7.9-.6,1.6h-.1c-.7-.1-.1,1,.3.4h0a.1.1,0,0,0-.1-.1c.4-.3.5-.8.9-1.1l.6.8a9.7,9.7,0,0,1-.3,1.8h-.1c-.8,0,.2,1,.3.2s.4-.9.8-1.3.7.5.8.9-.3,1.2-.1,2h-.2c-.5.2.2.8.4.4s.1-.2,0-.2.4-.6.5-1,0-.4.2-.5.9.5,1,1v.3c-.1.5.1,1.4-.2,1.6s-.2.4,0,.5h.4c0-.1.1-.2,0-.2a6.7,6.7,0,0,0,.6-1.5,1.5,1.5,0,0,1,1.1,1.5c0,.3-.1.6-.1.9s.2.4,0,.6.2.6.4.3v-.2c0-.3.3-.5.4-.8a2.7,2.7,0,0,1,0-.9c.4.1.6.4,1,.6s.2.3.2.7a4.1,4.1,0,0,1,0,1.1c0,.2.2.3,0,.4s.6.5.5.1.2-.5.2-.8-.1-.5,0-.8a1.7,1.7,0,0,1,1.4,2h.1a.7.7,0,0,0-.1.5c-.2.4.5.6.4.1s.2-.3.1-.5,0-.9,0-1.3a2.7,2.7,0,0,1,1.3.7.5.5,0,0,0,.2.4c-.1.4,0,1-.2,1.2s0,.2,0,.3a.3.3,0,0,0,.4,0h0c0-.3.1-.7.1-1s-.1.3,0,.4.1-.5.1-.6,0-.4.1-.7a1.6,1.6,0,0,1,1,.5,1.8,1.8,0,0,1,0,1.6c-.4.3.5.6.4,0s.2-.4.3-.7a2.4,2.4,0,0,0-.3-1h.7a1,1,0,0,1,.6,1.1,1.9,1.9,0,0,1-.3.8c0,.3.1.3.3.4l.2-.2h0c-.2-.2,0-.3.1-.5s.1-.3.1-.5-.3-.5-.3-.9a.9.9,0,0,1,.8,1.6c-.5.4.6.6.3.1h0l.3-.4c.1-.6-.2-.8-.3-1.2s.6.3.9.5h0c-.5.1,0,.7.2.3s.1-.2,0-.2a4.1,4.1,0,0,1-.3-.8c.1-.2.6,0,.5.3s.1.4,0,.8-.4.5-.5.8a3.8,3.8,0,0,0-.1,1,17.3,17.3,0,0,1-1.8,5.3,12.9,12.9,0,0,1-.9,1.6,22.6,22.6,0,0,1-2.5,2.8,15.8,15.8,0,0,1-2.9,2.2,26.7,26.7,0,0,1-3.4,1.5,2.6,2.6,0,0,0-1.3.6c-.1-.1-.2-.4-.5-.4s.1-.1.2-.1-.1-1.1-.3-.3v.2c-.4,0-.7-.1-.7-.4s.9-.3,1.2-.6-.1-1.1-.2-.3a2,2,0,0,1-.8.4,1,1,0,0,0-.5-.4h.4c.4-.1.6-.5.9-.8s-.5-1-.4-.2a.7.7,0,0,1-1.1.2c-.2-.4.1-.4.4-.6s.3-.7.5-1,.2-.9-.2-.5v.2h-.1c-.1.2-.7.8-.9.8a2.1,2.1,0,0,1-.4-.6c0-.2.1-.2.2-.3a4.2,4.2,0,0,0,.4-1.2h.1c.7,0-.1-.9-.3-.3a2.7,2.7,0,0,1-.8,1c-.2,0-.3-.2-.4-.4s-.3-.3-.3-.4.4-.7.4-1.1v-.4h.1c.7,0,0-1-.2-.4a4.4,4.4,0,0,0-.8,1.1,2.6,2.6,0,0,1-.9-.9c-.1-.3.2-.6.3-1s-.2-.6.1-.7-.5-.9-.4-.2a2.7,2.7,0,0,0-.6,1.2.7.7,0,0,1-.5-.4l-.5-.4c-.2-.4.1-.6.2-1s-.1-.8.2-.9-.6-.9-.5-.2-.2.3-.3.4a3.2,3.2,0,0,1-.3.9c-.2,0-.3-.2-.5-.3l-.6-.6c0-.5.2-1,.2-1.4s-.1-.3,0-.4-.5-1-.4-.3a2.9,2.9,0,0,0-.4,1.4c-.3,0-.4-.2-.6-.4a1.5,1.5,0,0,1-.6-.5q-.2-.1,0-.6c0-.5-.1-1,.1-1.2s-.5-.7-.5-.2-.4.6-.4,1,.1.3,0,.5-1.6-.6-1.4-1.8h.1c0-.2,0-.4.2-.5s-.7-.5-.5-.1.2.1.1.3,0-.2-.1-.1-.3.8-.4,1.3l-1.1-.5a1.5,1.5,0,0,1,.2-1.7c.5-.4-.7-.9-.6-.2s-.2.4-.2.7a2.7,2.7,0,0,0,0,.9,4.5,4.5,0,0,1-1.2-.6,5.7,5.7,0,0,1,0-1.3c.1,0,.1,0,.1-.1s0-.8-.4-.5v.3c0,.2-.3.3-.3.7s.1.7.1.9a.5.5,0,0,1-.6-.2l-.4-.2-.2-.3a1,1,0,0,1,.2-1c.8-.2-.2-1.1-.4-.4s-.2.4-.3.6v.4c0,.4.2.6.2.9s-.7-.2-.9-.3a.8.8,0,0,1,.1-1.1h.3c0-.2-.1-.3-.1-.4a.3.3,0,0,0-.5.3h0a1.2,1.2,0,0,0-.1,1.5c-.5.3-1.1-.3-.9-.9h.2c.5-.1-.2-.7-.3-.2s-.2.2-.2.4a1.3,1.3,0,0,0,.2.9c-.3.2-.8-.1-.6-.4a.2.2,0,0,0,.2-.2.3.3,0,0,0-.3-.3,5.8,5.8,0,0,1,.5-1.4,14.1,14.1,0,0,1,.7-3.1h0l.6-1.6c.3-.3.3-.6.5-.9s.1-.1.2-.2a.4.4,0,0,1,.1-.3l.5-.7h0l.5-.6a2.1,2.1,0,0,1,.4-.6,20.4,20.4,0,0,1,4.1-3.6,21.2,21.2,0,0,1,3.7-1.8,4.5,4.5,0,0,0,1.1-.3c.4-.2.5-.8,1-.9s.5.5.6.2Z" fill="#fff" fill-rule="evenodd"/>
        <path d="M30.5,296.6c.7.1.1,1-.2.4h.3C30.7,296.8,30.4,296.8,30.5,296.6Z" fill="#020202" fill-rule="evenodd"/>
        <path d="M27.8,299.6c.1.1,0,.3.1.3s.1-.1.2-.1h0C28.1,300.7,27.1,299.8,27.8,299.6Z" fill="#020202" fill-rule="evenodd"/>
        <path d="M32.9,301.9h-.1c0-.1.1-.1,0-.2s-.2.1-.3,0h0C32.7,301.3,33.3,301.7,32.9,301.9Z" fill="#020202" fill-rule="evenodd"/>
        <path d="M29.3,303.2c.1.1-.1.2-.1.3h0c.2,0,.2-.2.4-.1h0C29.2,304.2,28.6,303.1,29.3,303.2Z" fill="#020202" fill-rule="evenodd"/>
        <path d="M35.3,304.7c-.1,0,0-.2,0-.3s-.3,0-.4-.1.6-.1.6.1S35.4,304.6,35.3,304.7Z" fill="#020202" fill-rule="evenodd"/>
        <path d="M32.2,306.9c.1,0,.1.2.1.2s.2-.1.3,0,0,.1,0,.2-.9-.2-.4-.4Z" fill="#020202" fill-rule="evenodd"/>
        <path d="M43.1,309.5h0C43,309.6,43,309.5,43.1,309.5Z" fill="#020202" fill-rule="evenodd"/>
        <path d="M48,310.6l-.5-.7c0-.1-.1-.2,0-.2a.7.7,0,0,1,.5.9Z" fill="#d71f27" fill-rule="evenodd"/>
        <path d="M47.5,309.9l.5.7c0,.3-.2.4-.3.6h0c0-.3-.1-1-.4-1.2h.2Z" fill="#fff" fill-rule="evenodd"/>
        <path d="M20.6,312.5c-.2,0-.1-.3-.3-.3s-.1.2-.3.1S21.1,312.1,20.6,312.5Z" fill="#020202" fill-rule="evenodd"/>
        <path d="M22.1,313.1h0Z" fill="#fff" fill-rule="evenodd"/>
        <path d="M13.7,313.5c0-.1,0-.1-.1-.2h.1c.1,0,.1.1.1.2Z" fill="#fff" fill-rule="evenodd"/>
        <path d="M16.2,315.1c-.1.4.6.5.7.2a.6.6,0,0,0-.1-.4,1.3,1.3,0,0,1-.1-.9c.1-.5.8-.5,1.3-.3a1.6,1.6,0,0,0-.6,1.2c-.1.1,0,.1.1.2h0c-.7.3.5.9.5.2s0-1.1.4-1.3a1.1,1.1,0,0,1,1.1.1c-.2.4-1.1.9-.6,1.5h0c-.4.4.8.7.6,0a.1.1,0,0,1-.1-.1c.2-.3.3-.8.7-1a2.3,2.3,0,0,1,1.3.3c-.4.4-1,.6-1,1.3s.3.8.5.4.6-1.3,1.4-1.2.6.4.9.5-1,.5-1,1.1h-.1c-.1,0-.1.2-.2.3a.4.4,0,0,0,.7.1v-.2h0c.5-.2.7-.8,1.3-.7a1.1,1.1,0,0,1,.9.4.8.8,0,0,1,.4.4,7.1,7.1,0,0,0-1.5.8c-.7.2.3,1.1.4.3h.1c.6.2.9-.3,1.3-.3H26l.6.3c.2.2.4.4.1.6s-1.2.1-1.5.4.2.8.4.4.4.1.7.1.8-.3,1.2-.3.7.5.7.6-1.1.6-1.5.5-.1,1,.3.5.3.1.5.2H28l.8-.3h.4a1.6,1.6,0,0,1,.7.7,1.9,1.9,0,0,1-1.8.2h-.3c-.1,0-.1.2-.1.3a.4.4,0,0,0,.6,0h.1a1.9,1.9,0,0,0,.9.3l.8-.2.6.2c.1.1.4.4.3.5a.5.5,0,0,1-.3.3,2.9,2.9,0,0,1-1.6-.2c-.2,0-.2.1-.3.3s.5.4.6.1h.1a1.6,1.6,0,0,0,1.5.4h.4c.2,0,.2.2.3.4a.5.5,0,0,1,.2.4,2,2,0,0,1-1.7-.1c-.6-.4-.7.7,0,.4a1.9,1.9,0,0,0,1.9.2,1.5,1.5,0,0,1,.3.8,1.3,1.3,0,0,1-1.2-.1c-.1-.3-.6-.1-.6.1a.3.3,0,0,0,.5.3l.5.2h.9a.7.7,0,0,1,.1.5,1.6,1.6,0,0,1-1.2-.2c-.4-.4-.8.6-.1.5a2.9,2.9,0,0,0,1.3.1.4.4,0,0,1,0,.5,2.1,2.1,0,0,1-.8,0c-.1-.3-.6-.3-.6,0s.1.2.2.4-.2.8.1.4l1,.2h-.2c-.7.3-1.5-.3-2.1-.4H28.8a13.5,13.5,0,0,1-4.7-1.2,13.2,13.2,0,0,1-3.3-1.8,12.7,12.7,0,0,1-2.5-2.2,19.1,19.1,0,0,1-2.4-3.2,30,30,0,0,1-1.4-3.6v-.2c0-.2-.3-.5-.2-.7s.3-.3,0-.4-.9-1.6-.1-1.8-.2.7-.1,1,.4.3.4.5.6.4.4,0-.7-.7-.5-1.4a.8.8,0,0,1,.7-.3,1.1,1.1,0,0,1-.2.5,1,1,0,0,0,.4.9.1.1,0,0,1-.1.1c-.2.4.7.6.6.1s-.6-1.2-.2-1.6a.1.1,0,0,1,.1-.1c.3,0,.5-.1.7,0a1.6,1.6,0,0,0-.4,1.2c.1.1.3.1.2.4Z" fill="#fff" fill-rule="evenodd"/>
        <path d="M22,313.6h0c.1.1,0,.2,0,.3s0-.2,0-.3Z" fill="#fff" fill-rule="evenodd"/>
        <path d="M24.4,314.4c-.1,0,0-.2-.2-.2h-.3c0-.5.9-.2.5.2Z" fill="#020202" fill-rule="evenodd"/>
        <path d="M22,314.2v.2C21.9,314.4,22,314.2,22,314.2Z" fill="#fff" fill-rule="evenodd"/>
        <path d="M28.3,317.6h-.1c0-.1.1-.2,0-.3h-.1c-.1,0-.1.2-.3.1s1-.1.5.2Z" fill="#020202" fill-rule="evenodd"/>
        <path d="M22.1,317.2c.1,0,0,.3.1.4h.1c.1,0,.1-.2.3-.2v.2a.4.4,0,0,1-.7-.1c.1-.1.1-.3.2-.3Z" fill="#020202" fill-rule="evenodd"/>
        <path d="M25.2,319.7h.1c0,.1-.1.2,0,.3h.3c-.2.4-.8-.2-.4-.4Z" fill="#020202" fill-rule="evenodd"/>
        <path d="M26.7,321c.1.2-.1.2-.1.3s.4,0,.4.2S26,321,26.7,321Z" fill="#020202" fill-rule="evenodd"/>
        <path d="M33.6,324.4c-.2-.2.1-.3.1-.4s-.2.2-.3.1v-.2c.4-.4.8.5.2.5Z" fill="#020202" fill-rule="evenodd"/>
        <path d="M31.4,327.1c0,.1.1.1,0,.1s-.2,0-.3,0,.2.2.2.4h0c-.7.1-.3-.9.1-.5Z" fill="#020202" fill-rule="evenodd"/>
        <path d="M31.6,328.8c0-.1-.1-.1-.1-.2h.2c.2-.1.6.1.9,0v.3c-.2.1-.8.2-1,0Z" fill="#fff" fill-rule="evenodd"/>
        <path d="M33.9,328.5c0,.1-.1.1,0,.2s-.6.1-.7-.1Z" fill="#fff" fill-rule="evenodd"/>
        <path d="M34,328.9h.1a1.1,1.1,0,0,1-1.1.1l1-.2Z" fill="#fff" fill-rule="evenodd"/>
        <path d="M17.1,311.6a1,1,0,0,0-.2,1l.2.3.4.2a.5.5,0,0,0,.6.2c0-.2-.2-.5-.1-.9s.3-.5.3-.7.1-.2.3-.1h0c.2.1,0,.3.1.3s0,.1-.1.1a5.7,5.7,0,0,0,0,1.3,4.5,4.5,0,0,0,1.2.6,2.7,2.7,0,0,1,0-.9c0-.3.3-.5.2-.7s.2-.2.3-.1.1.3.3.3a1.5,1.5,0,0,0-.2,1.7l1.1.5c.1-.5,0-1.2.4-1.3s.1.1.1.1-.1-.1-.1-.3.4-.2.5.1-.2.3-.2.5h-.1c-.2,1.2.7,1.4,1.4,1.8s0-.3,0-.5.4-.6.4-1h.3c.2,0,.1.2.2.2s-.1.7-.1,1.2-.1.5,0,.6a1.5,1.5,0,0,0,.6.5c.2.2.3.4.6.4a2.9,2.9,0,0,1,.4-1.4c.2.1.1-.1.3-.1s0,.3.1.4,0,.2,0,.4-.2.9-.2,1.4l.6.6c.2.1.3.3.5.3a3.2,3.2,0,0,0,.3-.9c.1-.1.3-.2.3-.4s.2-.1.3-.1h.1c.1.1,0,.2,0,.3h.1c-.3.1-.1.6-.2.9s-.4.6-.2,1l.5.4a.7.7,0,0,0,.5.4,2.7,2.7,0,0,1,.6-1.2c.1,0,.2-.2.4-.1s-.1.3,0,.3-.1.5-.1.7-.4.7-.3,1a2.6,2.6,0,0,0,.9.9,4.4,4.4,0,0,1,.8-1.1c0,.1.2-.1.3,0s-.2.2-.1.4h-.1v.4c0,.4-.4.8-.4,1.1s.2.3.3.4.2.4.4.4a2.7,2.7,0,0,0,.8-1c.1.2.2-.1.4,0a.2.2,0,0,1-.2.2.1.1,0,0,0,.1.1h-.1a4.2,4.2,0,0,1-.4,1.2c-.1.1-.2.1-.2.3a2.1,2.1,0,0,0,.4.6c.2,0,.8-.6.9-.8h.1c.1.1.2-.1.3-.1s-.3.2-.1.4-.3.7-.5,1-.6.2-.4.6a.7.7,0,0,0,1.1-.2c.1,0,.2-.2.3-.1s-.1.2.1.3-.5.7-.9.8h-.4a1,1,0,0,1,.5.4,2,2,0,0,0,.8-.4c0,.1.2-.1.3,0s-.1.2-.1.3-.7.7-1.2.6.3.4.7.4V328c.1.2.3,0,.4,0s-.2.2-.1.3-.3,0-.2.1,0,.1-.1.1h-.7c.1.2.5.2.7.1s.1,0,.2,0-.1.1-.1.2l-1,.2c-.2-.2-.3.2-.5.2h0l-1-.2c0-.1-.1,0-.1-.2h.2c.2.2.8.1,1,0v-.3c-.3.1-.7-.1-.9,0s-.3-.1-.3-.3.3.1.4,0a2.1,2.1,0,0,0,.8,0,.4.4,0,0,0,0-.5,2.9,2.9,0,0,1-1.3-.1h0c0-.2-.3-.2-.2-.4s.3.1.3,0,0,0,0-.1a1.6,1.6,0,0,0,1.2.2.7.7,0,0,0-.1-.5h-.9l-.5-.2c0-.2-.3-.1-.3-.4s.3.2.4,0a1.3,1.3,0,0,0,1.2.1,1.5,1.5,0,0,0-.3-.8,1.9,1.9,0,0,1-1.9-.2c.1,0,0-.1,0-.1h0a2,2,0,0,0,1.7.1.5.5,0,0,0-.2-.4c0-.2-.1-.4-.3-.4H31a1.6,1.6,0,0,1-1.5-.4h-.1c0-.2-.2-.1-.4-.1s.2-.2.1-.3a2.9,2.9,0,0,0,1.6.2.5.5,0,0,0,.3-.3c.1-.1-.2-.4-.3-.5l-.6-.2-.8.2a1.9,1.9,0,0,1-.9-.3h-.1c0-.2-.3,0-.4-.1h0c0-.1.3,0,.2-.2a1.9,1.9,0,0,0,1.8-.2,1.6,1.6,0,0,0-.7-.7h-.4l-.8.3h-.5c-.2-.1-.4-.3-.5-.2s-.4,0-.4-.2.2-.1.1-.3,1.6-.1,1.5-.5-.6-.5-.7-.6-.8.3-1.2.3-.4-.3-.7-.1h-.3c-.1-.1,0-.2,0-.3h-.1c.3-.3,1.1-.2,1.5-.4s.1-.4-.1-.6l-.6-.3h-.5c-.4,0-.7.5-1.3.3h-.1c-.1,0-.2.2-.3.1s.1-.3-.1-.4a7.1,7.1,0,0,1,1.5-.8.8.8,0,0,0-.4-.4,1.1,1.1,0,0,0-.9-.4c-.6-.1-.8.5-1.3.7h0c-.2,0-.2.2-.3.2h-.1c-.1-.1,0-.4-.1-.4h.1c0-.6.8-.7,1-1.1s-.5-.5-.9-.5-1,.7-1.4,1.2-.1,0-.2-.1-.1-.5-.3-.3.6-.9,1-1.3a2.3,2.3,0,0,0-1.3-.3c-.4.2-.5.7-.7,1a.1.1,0,0,0,.1.1l-.3.2c-.2,0-.1-.2-.3-.2h0c-.5-.6.4-1.1.6-1.5a1.1,1.1,0,0,0-1.1-.1c-.4.2-.4.8-.4,1.3s-.1.2-.3.2-.1-.4-.2-.4h0c-.1-.1-.2-.1-.1-.2a1.6,1.6,0,0,1,.6-1.2c-.5-.2-1.2-.2-1.3.3a1.3,1.3,0,0,0,.1.9c-.1.1-.1.3-.2.4s-.2-.3-.4-.2-.1-.3-.2-.4a1.6,1.6,0,0,1,.4-1.2c-.2-.1-.4,0-.7,0a.1.1,0,0,0-.1.1c-.4.4-.1,1.2.2,1.6s-.1.1-.3.1-.1-.1-.1-.2h-.2a.1.1,0,0,0,.1-.1,1,1,0,0,1-.4-.9,1.1,1.1,0,0,0,.2-.5.8.8,0,0,0-.7.3c-.2.7.4.9.5,1.4s-.1.1-.2.2-.1-.3-.2-.2-.3-.3-.4-.5.1-.6.1-1-.4,1.5.1,1.8,0,.2-.1.2v-.2c-.4,0-.5-.5-.5-.9s.4-.9.1-1.2h.1c0-.1,0-.2-.1-.2h-.1c0-.1-.1-.4,0-.5s.1.1.2.1.3.6.6.4a1.3,1.3,0,0,1-.2-.9c0-.2.2-.2.2-.4s.1.1.2.1,0,.1.1.1h-.2c-.2.6.4,1.2.9.9a1.2,1.2,0,0,1,.1-1.5h0c.2,0,.2-.2.4-.1s-.2.2-.1.3a.8.8,0,0,0-.1,1.1c.2.1.5.5.9.3s-.2-.6-.2-.9v-.4c.1-.2.3-.3.3-.6s.3-.1.4,0-.1.3,0,.4Zm5.1,1.6h0Zm-.2.7c0-.1.1-.2,0-.3h0C22,313.7,21.9,313.8,22,313.9Zm0,.5v-.2S21.9,314.4,22,314.4Z" fill="#d71f27" fill-rule="evenodd"/>
        <path d="M30.5,295.8h-.1c0,.1.1.1.2.1s.2.1.1.3-.2-.2-.3,0a.9.9,0,0,0-1.1-.2c0,.1-.1.4,0,.4s.8.1,1.2.1.2.2.1.4h-.3c-.3-.2-.8-.4-1.1-.1v.5c.4.1.5-.1.8,0s.5.3.8.4-.1.1,0,.2.2-.1.3,0-.3,0-.4.1a1.7,1.7,0,0,0-1.4-.2,1.1,1.1,0,0,0,.1.8,1.9,1.9,0,0,1,1.3,0c.2.1.3.4.6.3s.2.1.2.2-.3,0-.4.2-.8-.3-1.2-.3-.4.1-.4.2.1.7.4.8a1.6,1.6,0,0,1,1-.1c.3.1.6.5.9.3s.2,0,.2.2-.2.1-.1.2-1.4-.4-1.9-.1.2.9.6.9.8-.3,1.3-.1.5.5.6.3h0c.1.1.3-.1.3,0s0,.1,0,.2h.1c-.5.3-1.6-.2-2.1.3s.5.8.9.8l1-.2h.4c.2,0,.4.3.6.1s.2.1.3.1-.2.3,0,.4-.3,0-.5,0-1.4-.2-1.5.3l.5.4a1,1,0,0,0,.7.4l.7-.3.9.2v-.2c.1.1.3-.1.4.1s-.1.3,0,.3-1.3.2-1.6.6.6.9,1.1.8.4-.2.6-.3H36c.2,0,.4.2.4,0s.5,0,.5.2-.2.4-.6.5-.9.2-.9.4l.5.6.6.2c.4,0,.8-.7,1.5-.6a.3.3,0,0,1,.1-.2h.3c.1,0,0,.2.2.2s-.2.2-.2.4-.9.4-1.2.8.7.8,1.3.5.4-.3.7-.5.3-.1.3-.3h.2l.2.3h0c.2.7-.5.9-.8,1.2s.5.5.8.5,1-.6,1.2-1.2h.3c.1,0,.1.2.2.2v.2c.4.6-.4.9-.5,1.3s1.5.4,1.6-.4v-.5a.5.5,0,0,1,.4-.2h.1c-.1,0-.1.1,0,.1s.1.3.1.5-.3.7-.4,1.1,1.2.2,1.3-.3-.1-.7-.1-1,.2-.2.3-.1a1.8,1.8,0,0,1,.5.7c0,.5-.4.7-.5,1.1a1.1,1.1,0,0,0,1.1-.2c.2-.3,0-.9-.2-1.2s.2-.2.4-.1h0c.1.2.4.4.4.7a2.4,2.4,0,0,1-.3.9h.6c.5-.4.1-1.1-.1-1.6h.2c.1,0,.1.2.2.1s.2.2.2.4.1.6,0,1.1a.8.8,0,0,0,.6-.2c.2-.5-.3-1.1-.4-1.4a.1.1,0,0,1,.1-.1h.2c.3.2.4.9.4,1.2h0c0,.3.4.6.2,1h0c.1-.3-.4-.5-.5-.3a4.1,4.1,0,0,0,.3.8h-.2c-.3-.2-.5-.7-.9-.5s.4.6.3,1.2l-.3.4h0c-.1,0-.1.2-.1.2s0-.3-.2-.3a.9.9,0,0,0-.8-1.6c0,.4.3.5.3.9s-.1.3-.1.5-.3.3-.1.5-.2.1-.3.1-.1-.1-.1-.2h-.1a1.9,1.9,0,0,0,.3-.8,1,1,0,0,0-.6-1.1h-.7a2.4,2.4,0,0,1,.3,1c-.1.3-.5.5-.3.7h-.4a1.8,1.8,0,0,0,0-1.6,1.6,1.6,0,0,0-1-.5c-.1.3.1.6-.1.7s0,.5-.1.6,0-.3,0-.4-.1.7-.1,1-.2,0-.3-.1v-.2H42c.2-.2.1-.8.2-1.2a.5.5,0,0,1-.2-.4,2.7,2.7,0,0,0-1.3-.7c0,.4.4,1,0,1.3s-.1.4-.1.5-.1.1-.3.1,0-.2-.1-.2a.7.7,0,0,1,.1-.5h-.1a1.7,1.7,0,0,0-1.4-2c-.1.3.1.5,0,.8s-.3.5-.2.8h-.3c-.1-.1-.1-.1,0-.2h-.2c.2-.1,0-.2,0-.4a4.1,4.1,0,0,0,0-1.1c0-.4-.2-.5-.2-.7s-.6-.5-1-.6a2.7,2.7,0,0,0,0,.9c-.1.3-.4.5-.4.8s-.1.2-.3.1,0-.2-.1-.2.1-.3,0-.6.1-.6.1-.9a1.5,1.5,0,0,0-1.1-1.5,6.7,6.7,0,0,1-.6,1.5c-.1-.1-.1.2-.3.1s.1-.3-.1-.3.1-1.1.2-1.6v-.3c-.1-.5-.7-.8-1-1s-.1.3-.2.5-.4.6-.5,1-.1.1-.3,0,0-.2-.1-.2h.2c-.2-.8.4-1.5.1-2s-.6-.5-.8-.9-.5,1-.8,1.3-.2.2-.4.1.2-.2.1-.3h.1a9.7,9.7,0,0,0,.3-1.8c-.2-.2-.3-.5-.6-.8s-.5.8-.9,1.1a.1.1,0,0,1,.1.1c-.2-.1-.2.1-.4.1h0c0-.1.2-.2.1-.3h.1c-.1-.7.6-1.2.6-1.6s-.3-.6-.4-.8-.6.3-.8.5-.3.2-.3.4-.2.2-.3.1.1-.2,0-.3h.1l.2-.7c.2-.3.7-.5.8-.9s-1-.6-1.2,0h0c-.1,0-.1.2-.2.1s0-.2-.1-.3.2-.3.4-.5.8-.3.8-.6l-.5-.5c-.3,0-.7.2-.7.4s-.2.1-.3.1.1-.2,0-.3.6-.7,1.3-.8-.8-.3-1.1-.1h-.1c0-.1-.1-.1-.1-.2h.1a1.7,1.7,0,0,1,1.3-.5c.1-.4-.4-.5-.7-.3h-.3c.1-.2.4-.3.8-.2H29c.2,0,.4-.3.7-.3Z" fill="#d71f27" fill-rule="evenodd"/>
        <path d="M46.2,310.1c-.3-.4.6-.5.4,0s-.1-.1-.2-.1Z" fill="#020202" fill-rule="evenodd"/>
        <path d="M41.1,308.8c.1-.3.6-.1.5.2s-.1-.2-.2-.2Z" fill="#020202" fill-rule="evenodd"/>
        <path d="M33.7,303c.4-.3.7.4.3.5s0-.2,0-.4S33.7,303.1,33.7,303Z" fill="#020202" fill-rule="evenodd"/>
        <path d="M31.3,299c.7-.1.2,1-.2.4s.3.1.4-.2-.2,0-.2-.2Z" fill="#020202" fill-rule="evenodd"/>
        <path d="M28.5,301.7c.1.8-1.1-.1-.3-.2s0,.2,0,.3S28.4,301.6,28.5,301.7Z" fill="#020202" fill-rule="evenodd"/>
        <path d="M44.1,313.6c.1.6-.8.3-.4,0h.4Z" fill="#020202" fill-rule="evenodd"/>
        <path d="M46.6,313.7c.3.5-.8.3-.3-.1s-.1.3.2.3S46.5,313.7,46.6,313.7Z" fill="#020202" fill-rule="evenodd"/>
        <path d="M33.8,325.8c-.1-.8,1.1,0,.4.2s0-.2-.1-.3S33.9,325.8,33.8,325.8Z" fill="#020202" fill-rule="evenodd"/>
        <path d="M20.9,316.7c-.2.4-.8-.1-.5-.4s.1.3.3.3S20.9,316.5,20.9,316.7Z" fill="#020202" fill-rule="evenodd"/>
        <path d="M29.4,324c-.1.3-.6.1-.6-.1s.1-.3.3-.3-.2.2-.1.3S29.4,323.8,29.4,324Z" fill="#020202" fill-rule="evenodd"/>
        <path d="M31.4,329.8h0l-1.2-.5h-1A16.6,16.6,0,0,1,19,324.9a15.3,15.3,0,0,1-4.5-7.1c-.2-.4-.3-1-.5-1.5a2.1,2.1,0,0,0-.4-.6,1.8,1.8,0,0,1-.1-1.9c-.5-.8,0-2.1.3-2.9s.1-.5.2-.7a10.1,10.1,0,0,1,.8-2.9,16.2,16.2,0,0,1,6.5-8.2l1.2-.7a15.3,15.3,0,0,1,3.2-1.3l.7-.3c.3-.1.5-.5.7-.7a2.4,2.4,0,0,1,1.9-.3,2.2,2.2,0,0,1,1.6-.3c.5.2.9.6,1.3.7a4.1,4.1,0,0,0,1.5.2,16.7,16.7,0,0,1,8.4,3.7,15.6,15.6,0,0,1,5.2,7.7c.1.2.1.5.2.7l.6.8c.3.4.7.7.5,1.5s-.2.3-.2.5.1.2.1.4a2.7,2.7,0,0,1-.6,2.3,16.6,16.6,0,0,1-11.2,14.3l-1.3.5c-.6.3-1,.9-1.9.8s-.2-.2-.3-.1-.6.2-.6.3Zm-3.2-33.4c-.1.3-.5.1-.6-.2s-.6.7-1,.9a4.5,4.5,0,0,1-1.1.3,21.2,21.2,0,0,0-3.7,1.8,20.4,20.4,0,0,0-4.1,3.6,2.1,2.1,0,0,0-.4.6l-.5.6h0l-.5.7a.4.4,0,0,0-.1.3c-.1.1-.2.1-.2.2s-.2.6-.5.9l-.6,1.6h0a14.1,14.1,0,0,0-.7,3.1,5.8,5.8,0,0,0-.5,1.4.3.3,0,0,1,.3.3.2.2,0,0,1-.2.2c-.1,0-.1-.2-.2-.1s0,.4,0,.5.1.1.1.2h0c.3.3-.1.7-.1,1.2s.1.9.5.9v.2c.1,0,.1-.2.1-.2s0,.3,0,.4.2.5.2.7v.2a30,30,0,0,0,1.4,3.6,19.1,19.1,0,0,0,2.4,3.2,12.7,12.7,0,0,0,2.5,2.2,13.2,13.2,0,0,0,3.3,1.8,13.5,13.5,0,0,0,4.7,1.2h1.4c.6.1,1.4.7,2.1.4h.2c.2,0,.3-.4.5-.2a1.1,1.1,0,0,0,1.1-.1H34c0-.1.2-.1.1-.2s-.2.1-.2,0,0-.1,0-.2.1,0,.1-.1.4.3.5.4a2.6,2.6,0,0,1,1.3-.6,26.7,26.7,0,0,0,3.4-1.5,15.8,15.8,0,0,0,2.9-2.2,22.6,22.6,0,0,0,2.5-2.8,12.9,12.9,0,0,0,.9-1.6,17.3,17.3,0,0,0,1.8-5.3,3.8,3.8,0,0,1,.1-1c.1-.3.4-.5.5-.8s-.1-.6,0-.8h0c.2-.4-.2-.7-.2-1s.3-.3.3-.6a.7.7,0,0,0-.5-.9c-.1,0,0,.1,0,.2h-.4a.1.1,0,0,0-.1.1c-.4-.5.5-.2.5-.6a3.4,3.4,0,0,1-.9-1.9,15.8,15.8,0,0,0-3.8-6.1,16.2,16.2,0,0,0-7.1-4.2,19.1,19.1,0,0,0-3.7-.6c-.5-.1-.6-.5-1.2-.6s.2.2.1.3-.4.3-.5,0,.2.1.3,0-.2-.2-.1-.3a.1.1,0,0,1,.1-.1h-1c-.3,0-.5.3-.7.3h-.3c-.4-.1-.7,0-.8.2Z" fill="#020202" fill-rule="evenodd"/>
        <path d="M27.8,298.4v.2c-.3.5-1-.4-.3-.4s-.1.1,0,.3S27.6,298.3,27.8,298.4Z" fill="#020202" fill-rule="evenodd"/>
        <path d="M31.8,300.3c.2-.2.5,0,.5.3s-.3.2-.4.1.2-.1.1-.2S31.8,300.4,31.8,300.3Z" fill="#020202" fill-rule="evenodd"/>
        <path d="M30.9,305.2c-.1.8-1.1-.2-.3-.2s-.2.2-.1.3S30.8,305.2,30.9,305.2Z" fill="#020202" fill-rule="evenodd"/>
        <path d="M36.4,305.7c.1-.5.9-.1.5.2S36.7,305.6,36.4,305.7Z" fill="#020202" fill-rule="evenodd"/>
        <path d="M39.5,308c0-.6.8-.1.4.2l-.2-.3Z" fill="#020202" fill-rule="evenodd"/>
        <path d="M34.5,308.7c.1,0,0,.1,0,.2h-.4c-.2-.1-.3-.5,0-.5s-.1.3.1.3.2-.2.3-.1Z" fill="#020202" fill-rule="evenodd"/>
        <path d="M42.6,309.6c-.2-.2.3-.4.4-.2A.5.5,0,0,0,42.6,309.6Z" fill="#020202" fill-rule="evenodd"/>
        <path d="M44,309.9c0-.2.3-.2.3-.1S44.1,310.1,44,309.9Z" fill="#020202" fill-rule="evenodd"/>
        <path d="M45.2,310.2V310c.1-.1.4-.1.4.1h0C45.4,310,45.4,310.2,45.2,310.2Z" fill="#020202" fill-rule="evenodd"/>
        <path d="M36.5,310.3v.2c-.2.3-.7-.1-.4-.3s0,.2.1.2.2-.2.3-.1Z" fill="#020202" fill-rule="evenodd"/>
        <path d="M16.7,311.2c.2-.7,1.2.2.4.4s.1-.2,0-.4S16.8,311.3,16.7,311.2Z" fill="#020202" fill-rule="evenodd"/>
        <path d="M18.3,311.7v-.3c.4-.3,1,.3.4.5s.1-.2-.1-.3h0C18.4,311.5,18.4,311.7,18.3,311.7Z" fill="#020202" fill-rule="evenodd"/>
        <path d="M38.6,311.5c.1.4-.7.3-.5-.1h.2c-.1.1-.1.1,0,.2Z" fill="#020202" fill-rule="evenodd"/>
        <path d="M15.5,311.5a.3.3,0,0,1,.5-.3c0,.1.1.2.1.4h-.3c-.1-.1.1-.2.1-.3S15.7,311.5,15.5,311.5Z" fill="#020202" fill-rule="evenodd"/>
        <path d="M14.4,312c.1-.5.8.1.3.2s-.2,0-.1-.1S14.4,312.1,14.4,312Z" fill="#020202" fill-rule="evenodd"/>
        <path d="M40.6,312.6c.1.5-.6.3-.4-.1s0,.2.1.2S40.5,312.5,40.6,312.6Z" fill="#020202" fill-rule="evenodd"/>
        <path d="M21.9,313.2c-.2-.4.7-.3.5.1S22.1,312.9,21.9,313.2Z" fill="#020202" fill-rule="evenodd"/>
        <path d="M42.4,313.4h0a.3.3,0,0,1-.4,0c0-.1-.1-.2,0-.3h.1v.2c.1.1.2-.1.3.1Z" fill="#020202" fill-rule="evenodd"/>
        <path d="M45.6,313.9h0l-.2.2c-.2-.1-.3-.1-.3-.4h.1c0,.1,0,.2.1.2s.1-.2.3-.1Z" fill="#020202" fill-rule="evenodd"/>
        <path d="M15.8,315.2c.1.5-.8.3-.6-.1h.2c0,.1,0,.2.1.2S15.6,315.1,15.8,315.2Z" fill="#020202" fill-rule="evenodd"/>
        <path d="M16.8,314.9a.6.6,0,0,1,.1.4c-.1.3-.8.2-.7-.2s.2.2.4.2S16.7,315,16.8,314.9Z" fill="#020202" fill-rule="evenodd"/>
        <path d="M18,315.4c0,.7-1.2.1-.5-.2s.1.3.2.4.2-.2.3-.2Z" fill="#020202" fill-rule="evenodd"/>
        <path d="M14.9,315.3c.2.4-.6.3-.4,0s.1.2.2.2S14.8,315.2,14.9,315.3Z" fill="#020202" fill-rule="evenodd"/>
        <path d="M25.9,315.7c-.1-.7,1.1,0,.4.3s0-.3-.1-.4S26.1,315.8,25.9,315.7Z" fill="#020202" fill-rule="evenodd"/>
        <path d="M19.5,315.8c.2.7-1,.4-.6,0s.1.2.3.2Z" fill="#020202" fill-rule="evenodd"/>
        <path d="M24.1,318.6c-.1.8-1.1-.1-.4-.3s0,.3.1.4S24,318.6,24.1,318.6Z" fill="#020202" fill-rule="evenodd"/>
        <path d="M31.2,320.8c.2-.6.9.4.2.4s.2-.2.1-.4S31.2,320.9,31.2,320.8Z" fill="#020202" fill-rule="evenodd"/>
        <path d="M28.3,322.7a.4.4,0,0,1-.6,0c0-.1,0-.3.1-.3h.3c.1.2-.2.1-.2.2h0c.1.1.3-.1.4.1Z" fill="#020202" fill-rule="evenodd"/>
        <path d="M32.4,322.5c.2-.6,1,.3.3.3a.1.1,0,0,1-.1-.1.2.2,0,0,0,.2-.2C32.6,322.4,32.5,322.7,32.4,322.5Z" fill="#020202" fill-rule="evenodd"/>
        <path d="M30.2,325.3c-.7.3-.6-.8,0-.4h0S30.3,325.3,30.2,325.3Z" fill="#020202" fill-rule="evenodd"/>
        <path d="M31.1,326.6a.3.3,0,0,1-.5-.3c0-.2.5-.4.6-.1s-.3-.1-.4,0,.3.2.3.4Z" fill="#020202" fill-rule="evenodd"/>
        <path d="M34.2,326.9c.1-.8,1.1.3.2.3s.2-.2.1-.3-.3.1-.3,0Z" fill="#020202" fill-rule="evenodd"/>
        <path d="M33.9,328c.2-.8,1.1.4.3.3s.1-.1.1-.3S34,328.2,33.9,328Z" fill="#020202" fill-rule="evenodd"/>
        <path d="M31.5,329c-.3.4-.7-.5-.1-.4s-.2-.2-.2-.4.5-.3.6,0-.3-.1-.4,0,.3.1.3.3h-.2c0,.1.1.1.1.2h-.2C31.4,329,31.5,328.9,31.5,329Z" fill="#020202" fill-rule="evenodd"/>
        <path d="M27.5,297.2c0,.1.1.1.1.2s-.6.2-.5-.1A.2.2,0,0,1,27.5,297.2Z" fill="#020202" fill-rule="evenodd"/>
        <path d="M30.8,297.8c.5-.2.6.6.1.5l-.2-.2c.1-.1.3.1.4-.1s-.2,0-.3,0S30.8,297.9,30.8,297.8Z" fill="#020202" fill-rule="evenodd"/>
        <path d="M38.1,306.8c.2-.3.7.1.5.3s-.1-.2-.2-.2Z" fill="#020202" fill-rule="evenodd"/>
        <path d="M47.7,312.7c.1,0,.1.1,0,.2s-.7-.2-.2-.3h.2Z" fill="#020202" fill-rule="evenodd"/>
        <path d="M29.5,319.1c-.1-.7,1.1-.1.4.2s0-.1,0-.3S29.6,319.1,29.5,319.1Z" fill="#020202" fill-rule="evenodd"/>
      </g>
    </g>
    <g>
      <g>
        <path d="M48.4,15.6a1.2,1.2,0,0,1-.4.8l-4,4.1L39.7,18V15.5a1.2,1.2,0,0,1,1.2-1.2,1.2,1.2,0,0,1,1.3,1.2h0v3.1l4-4a1.5,1.5,0,0,1,1.8,0,1.8,1.8,0,0,1,.4,1" fill="#231f20"/>
        <path d="M47.1,27.2h-.5l-.4-.3-4-4v3.1a1.3,1.3,0,0,1-1.3,1.3,1.2,1.2,0,0,1-1.2-1.3V23.5L44,21l4,4a1.3,1.3,0,0,1-.9,2.2" fill="#231f20"/>
        <path d="M43.8,20.6h-.2l-1-.6-2.9-1.7-2.5-1.4a.2.2,0,0,0-.4.1h0v7.4a.3.3,0,0,0,.3.3h.1l2.5-1.4L43.6,21c.1,0,.1,0,.1-.1h.1Zm-1,.2h-.1l-3.1,1.8-1.9,1.1c-.1.1-.2,0-.3-.1h0V17.8a.2.2,0,0,1,.2-.2h.1l1.9,1,3.1,1.8a.4.4,0,0,1,.1.3Z" fill="#231f20"/>
        <path d="M41.9,20.8h0l-2.4,1.3-1.4.8c-.1.1-.2.1-.2,0h0V18.6c0-.1,0-.2.1-.2h.1l1.5.8,2.3,1.4h0c.1,0,.1,0,0,.1" fill="#231f20"/>
      </g>
      <g>
        <path d="M69.3,20.6c0-.1,0-.1-.1-.2l-3.5-1.7-2.2-1.1c-.2-.1-.4,0-.4.2v5.8c0,.2.2.3.4.2l2.1-1.1,3.5-1.9c.1,0,.1,0,.1-.1Zm-.8.1a.1.1,0,0,0-.1.1l-2.7,1.4-1.7.9a.2.2,0,0,1-.3-.1V18.4l.2-.2c.1,0,.1,0,.1.1l1.7.8,2.8,1.4h.1Z" fill="#231f20"/>
        <path d="M67.7,20.7h-.1l-2,1-1.3.7c0,.1-.1,0-.2,0h0V19c0-.1,0-.2.1-.2h.1l1.3.6,2,1a.1.1,0,0,1,.1.1h0" fill="#231f20"/>
        <path d="M50.9,17.7H54c1.5,0,2.6.8,2.6,2.1s-1.1,2-2.5,2.1H52.4v2H51Zm3,2.9c.7-.1,1.2-.4,1.2-.9s-.5-.9-1.2-.9H52.4v1.8Z" fill="#231f20"/>
        <path d="M62.4,22.6v1.2H57.5V17.7h1.5v5Z" fill="#231f20"/>
        <path d="M70.9,21.5l-2.7-3.9h1.7l1.7,2.7,1.8-2.8H75l-2.6,4v2.2H70.9Z" fill="#231f20"/>
        <path d="M76,17.9h.7v3.4l3.4-3.4h1l-2.8,2.8L81.5,24h-1l-2.6-2.8-1.1,1V24H76Z" fill="#231f20"/>
        <path d="M81.9,20.9a3.3,3.3,0,0,1,3.4-3.2,3.5,3.5,0,0,1,3.6,3.1,3.5,3.5,0,0,1-3.5,3.3A3.4,3.4,0,0,1,81.9,20.9Zm6.2-.1a2.6,2.6,0,0,0-2.8-2.4,2.5,2.5,0,1,0,.1,5,2.7,2.7,0,0,0,2.7-2.6Z" fill="#231f20"/>
        <path d="M89.9,23.1l.4-.5a3.4,3.4,0,0,0,2.3.8c1,0,1.6-.5,1.6-1.1s-.7-.9-1.9-1.1-2.2-.6-2.2-1.7.9-1.8,2.2-1.8a3.4,3.4,0,0,1,2.4.9l-.4.5a2.6,2.6,0,0,0-2-.7c-.9,0-1.5.5-1.5,1s.7.9,1.9,1.1,2.2.7,2.2,1.8-.7,1.7-2.3,1.8A3.9,3.9,0,0,1,89.9,23.1Z" fill="#231f20"/>
        <path d="M96.4,17.9h.7l2.6,4.3,2.5-4.3h.8V24h-.8V19.4l-2.4,4.3-2.6-4.3V24h-.8Z" fill="#231f20"/>
        <path d="M104.5,20.9a3.4,3.4,0,0,1,3.4-3.2,3.4,3.4,0,0,1,3.6,3.1,3.5,3.5,0,0,1-3.5,3.3A3.4,3.4,0,0,1,104.5,20.9Zm6.2-.1a2.6,2.6,0,0,0-2.7-2.4,2.7,2.7,0,0,0-2.7,2.5,2.6,2.6,0,0,0,2.7,2.5,2.7,2.7,0,0,0,2.7-2.6Z" fill="#231f20"/>
        <path d="M112.5,23.1l.5-.5a3.1,3.1,0,0,0,2.2.8c1.1,0,1.6-.5,1.6-1.1s-.7-.9-1.9-1.1-2.2-.6-2.2-1.7a2,2,0,0,1,2.2-1.8,3.4,3.4,0,0,1,2.4.9l-.4.5a2.6,2.6,0,0,0-2-.7c-.8,0-1.4.5-1.4,1s.6.9,1.8,1.1,2.3.7,2.3,1.8-.8,1.7-2.4,1.8A4.1,4.1,0,0,1,112.5,23.1Z" fill="#231f20"/>
      </g>
    </g>
    <g>
      <circle cx="32.2" cy="143.1" r="2.7" fill="#231f20"/>
      <circle cx="174.2" cy="143.1" r="2.7" fill="#231f20"/>
    </g>
    <path d="M29.6,165.5a.9.9,0,0,0,.6-.3,1.1,1.1,0,0,0,.2-.6,1.4,1.4,0,0,0-.2-.6l-.6-.2-.6.2a.7.7,0,0,0-.2.6c0,.3,0,.4.2.6A.7.7,0,0,0,29.6,165.5Zm0,4.1a12.1,12.1,0,0,1-2.5-2.7,4.2,4.2,0,0,1-.8-2.2,3.3,3.3,0,0,1,1-2.5,3.2,3.2,0,0,1,2.3-.9,3.5,3.5,0,0,1,2.3.9,3.7,3.7,0,0,1,1,2.5,4.2,4.2,0,0,1-.8,2.2A15,15,0,0,1,29.6,169.6Z" fill="#010101"/>
    <g id="ed43d29a-4542-4092-a683-cbbf309fcdb3" data-name="g984">
      <g id="ba685152-ee47-4087-846c-c4c8cad5a557" data-name="g1154">
        <g id="e1697d01-de50-4e00-9b4f-0000c3530718" data-name="rect1130">
          <rect x="30" y="186" width="0.9" height="0.92" fill="#231f20"/>
        </g>
        <g id="a8adafed-1716-471e-b326-1143c310e7b4" data-name="rect1132">
          <rect x="31.5" y="186" width="0.9" height="0.92" fill="#231f20"/>
        </g>
        <g id="e8760e32-4a31-44cd-8ac9-f2ea922d7f97" data-name="rect1134">
          <rect x="33" y="186" width="0.9" height="0.92" fill="#231f20"/>
        </g>
        <g id="e77a3c5c-8ee8-4929-940f-16c91b3bf80d" data-name="rect1136">
          <rect x="30" y="187.5" width="0.9" height="0.92" fill="#231f20"/>
        </g>
        <g id="a3aad0e1-3d60-4121-a0c4-464b4d55f6dd" data-name="rect1138">
          <rect x="31.5" y="187.5" width="0.9" height="0.92" fill="#231f20"/>
        </g>
        <g id="e361c494-378b-4b00-b9ce-ab927906db70" data-name="rect1140">
          <rect x="33" y="187.5" width="0.9" height="0.92" fill="#231f20"/>
        </g>
        <g id="f3d0d972-dc8b-4caa-aa8b-4b3a93a322cf" data-name="rect1142">
          <rect x="30" y="189" width="0.9" height="0.92" fill="#231f20"/>
        </g>
        <g id="a29bef51-648c-4fde-9001-de21d716fb11" data-name="rect1144">
          <rect x="31.5" y="189" width="0.9" height="0.92" fill="#231f20"/>
        </g>
        <g id="e2d634a6-a1c7-48b3-b64e-d6cdaae649cf" data-name="rect1146">
          <rect x="33" y="189" width="0.9" height="0.92" fill="#231f20"/>
        </g>
        <g id="a1351425-b536-471f-b3e2-621fcd97c256" data-name="rect1148">
          <rect x="30" y="190.4" width="0.9" height="0.92" fill="#231f20"/>
        </g>
        <g id="f5ef51e7-1d88-4de5-8565-afaefde1ac26" data-name="rect1150">
          <rect x="31.5" y="190.4" width="0.9" height="0.92" fill="#231f20"/>
        </g>
        <g id="a023aa6d-c632-47a7-81d0-aa9510502a62" data-name="rect1152">
          <rect x="33" y="190.4" width="0.9" height="0.92" fill="#231f20"/>
        </g>
      </g>
      <g id="bc36c4cc-0204-4874-94fc-dbad44932f0a" data-name="rect1156">
        <path d="M29.5,195.2H26.3v-7.9h3.2Zm-2.5-.6h1.8V188H27Z" fill="#231f20"/>
      </g>
      <g id="bd4a0284-d82f-4cfd-9c33-68cacd79fb81" data-name="g1166">
        <g id="bb8ded30-1efb-43d1-a964-29168e3e88bd" data-name="rect1158">
          <rect x="27.4" y="188.6" width="0.9" height="0.92" fill="#231f20"/>
        </g>
        <g id="e9e6b5f6-cd83-485a-b07d-a328b3edd98b" data-name="rect1160">
          <rect x="27.4" y="190.1" width="0.9" height="0.92" fill="#231f20"/>
        </g>
        <g id="b5f85277-782c-4112-a9e9-4812b8e8acf8" data-name="rect1162">
          <rect x="27.4" y="191.5" width="0.9" height="0.92" fill="#231f20"/>
        </g>
        <g id="a1358ad3-080f-4abd-898b-0c9a0edf9ee0" data-name="rect1164">
          <rect x="27.4" y="193" width="0.9" height="0.92" fill="#231f20"/>
        </g>
      </g>
      <g id="e1154f7b-0db4-408b-b446-5103cdc091c8" data-name="rect1168">
        <path d="M37.6,195.2H34.4v-7.9h3.2Zm-2.5-.6h1.8V188H35.1Z" fill="#231f20"/>
      </g>
      <g id="fe95db98-9b46-4a08-8b35-08bbc00d35af" data-name="g1178">
        <g id="b7602102-b173-4941-9e19-668fc04b7d69" data-name="rect1170">
          <rect x="35.5" y="188.6" width="0.9" height="0.92" fill="#231f20"/>
        </g>
        <g id="aea802f9-ee9f-4ddc-a3ee-939a3e87e1c7" data-name="rect1172">
          <rect x="35.5" y="190.1" width="0.9" height="0.92" fill="#231f20"/>
        </g>
        <g id="af2b19ec-b0f3-48a8-93ea-d34f54e5b73d" data-name="rect1174">
          <rect x="35.5" y="191.5" width="0.9" height="0.92" fill="#231f20"/>
        </g>
        <g id="bdf0aed1-c40b-42dc-8678-2e51e827da04" data-name="rect1176">
          <rect x="35.5" y="193" width="0.9" height="0.92" fill="#231f20"/>
        </g>
      </g>
      <g id="b07b57ef-5adb-4135-8384-ab95e52f85b7" data-name="path1128">
        <path d="M35.1,195.2H32.8v-2.4H31.1v2.4H28.8V184.6h6.3Zm-1.6-.6h.9v-9.3H29.5v9.3h.9v-2.5h3.1Z" fill="#231f20"/>
      </g>
    </g>
    <rect x="77.8" y="94.1" width="179.4" height="1" fill="#d71f27"/>
    <rect x="77.8" y="123.8" width="179.4" height="1" fill="#d71f27"/>
    <g>
      <rect x="26.3" y="231.2" width="72" height="15.09" fill="#231f20"/>
      <rect x="99.8" y="231.2" width="81.5" height="15.09" fill="#231f20"/>
    </g>
    <polyline points="158.8 276.9 48.8 276.9 48.8 275.9 158.8 275.9" fill="#d71f27"/>
  </g>
</svg>
