<svg id="e9c78c1e-4e95-4075-8386-aadd2aa96f31" data-name="Layer 1" xmlns="http://www.w3.org/2000/svg"
  width="335" height="335" viewBox="0 0 335 335">
  <defs>
    <clipPath id="a5e888c6-e253-48c0-a1d1-caf737bd1c19">
      <rect width="335" height="335" fill="none"/>
    </clipPath>
    <radialGradient id="b4b9d5aa-61b3-46d7-85ed-2ae6866c7231" cx="167.5" cy="237.5" r="205.5" gradientTransform="scale(1 0.71)" gradientUnits="userSpaceOnUse">
      <stop offset="0.5" stop-color="#fff"/>
      <stop offset="1" stop-color="#ccc"/>
    </radialGradient>
  </defs>
  <g>
    <g clip-path="url(#a5e888c6-e253-48c0-a1d1-caf737bd1c19)">
      <rect width="335" height="335" fill="url(#b4b9d5aa-61b3-46d7-85ed-2ae6866c7231)"/>
      <ellipse cx="156.3" cy="47.1" rx="107.5" ry="202.9" transform="translate(107.6 202.9) rotate(-89.4)" fill="#741112"/>
      <g>
        <path d="M171.4,144.6C64.8,156-27.2,117.7-38.6,58.5a86.4,86.4,0,0,0,.4,8.8c6.6,62.3,101,103.3,210.7,91.6S365.8,87.1,359.1,24.8c-.2-1.8-.5-3.6-.8-5.4C356.6,78.5,275.9,133.4,171.4,144.6Z" fill="#ed1c24"/>
        <path d="M166.7,153.1C59.8,160.3-30.6,118.5-39.7,58.8a66.1,66.1,0,0,0,0,8.9c4.2,62.5,96.9,107.1,207,99.7S363.2,103.3,359,40.8a49.5,49.5,0,0,0-.6-5.4C354.4,94.3,271.6,146.1,166.7,153.1Z" fill="#fff"/>
        <path d="M164.6,161.5C57.7,168.7-32.7,126.8-41.8,67.2a64.6,64.6,0,0,0,0,8.8c4.2,62.5,96.9,107.2,207,99.8S361.1,111.7,356.9,49.2a49.5,49.5,0,0,0-.6-5.4C352.3,102.7,269.5,154.5,164.6,161.5Z" fill="#741112"/>
      </g>
      <g>
        <path d="M276,70.3c0,29.8,24.8,53.9,55.3,53.9s55.2-24.1,55.2-53.9-24.7-53.8-55.2-53.8S276,40.6,276,70.3Z" fill="#010101" fill-rule="evenodd"/>
        <path d="M277.3,70.9c0,29.7,23.8,52.2,54.2,52.2s54.1-22.6,54.1-52.3-23.8-53.2-54.3-53.2-54,23.6-54,53.3Z" fill="#fff" fill-rule="evenodd"/>
        <g>
          <path d="M304.2,45l-1.2-.2-1.7-.6-1.6-.5c-.6-.1-1.2.2-1.7.1s-.8-.7-1.4-.8h-2l-1.5-.3c-.4,0-.5.3-1,.3a12.1,12.1,0,0,0-1.9-.1l-1.3.4-1.6.4c-.2.1.4.1.8,0s.9-.4,1.4-.5H293c.3-.1.1-.2.4-.2l1,.2a6.5,6.5,0,0,1,1.9.2,9.8,9.8,0,0,1,1.8.8,7.6,7.6,0,0,1,1.5-.1,5.8,5.8,0,0,1,1.7.6l1.3.3c.4,0,.8.3,1.1.3s.6-.2.5-.3Z" fill="#741112" fill-rule="evenodd"/>
          <path d="M284.5,45.7a6.2,6.2,0,0,0-1.2,1.2,10.9,10.9,0,0,0-1,1.1L281,49.6a6.4,6.4,0,0,1-.7.9,20.2,20.2,0,0,1,1.5-1.5l1.3-1.6C283.6,46.9,284.4,45.8,284.5,45.7Z" fill="#741112" fill-rule="evenodd"/>
          <path d="M302.4,45.1c-.5.8-2.3,3.2-3,4.4s-1.1,2.1-1.3,2.3-.2-1.2-.3-1.7-.7-.4-.3-1.1a14.2,14.2,0,0,1,2.3-3,6.7,6.7,0,0,1,2.3-1.4C302.5,44.4,302.8,44.3,302.4,45.1Z" fill="#741112" fill-rule="evenodd"/>
          <path d="M294.2,50.6c.3-.4,1.3-2.7,1.9-3.6a17.5,17.5,0,0,1,1.5-1.8c.4-.6,1.3-1.3,1.1-1.3a7.7,7.7,0,0,0-2.5,1.2,7.9,7.9,0,0,0-1.9,2.2,2.8,2.8,0,0,0-.5,1.7C293.7,49.6,293.8,50.8,294.2,50.6Z" fill="#741112" fill-rule="evenodd"/>
          <path d="M291.3,49.7c.4-.5.9-2.6,1.6-3.7s1.8-2.4,2-2.9-.3-.1-.8.3a7.8,7.8,0,0,0-2.1,1.7,6.6,6.6,0,0,0-1.2,2.1,2.9,2.9,0,0,0,.1,1.6C290.9,49.2,291,50.2,291.3,49.7Z" fill="#741112" fill-rule="evenodd"/>
          <path d="M288.5,49.4c.4-.2,1.2-2.4,1.7-3.3s1.1-1.6,1.4-2.1.4-.8.3-.9-.8.1-1.2.6a13.2,13.2,0,0,0-1.8,2.2,3.4,3.4,0,0,0-.9,1.5C287.9,48,288.2,49.6,288.5,49.4Z" fill="#741112" fill-rule="evenodd"/>
          <path d="M286.4,49.5a21.4,21.4,0,0,0,.5-2.3,11.3,11.3,0,0,1,.9-2c.4-.7,1.5-2,1.5-2.2s-.8.5-1.2.9a10,10,0,0,0-1.5,1.4,5.8,5.8,0,0,0-1,1.9,2.2,2.2,0,0,0,.1,1.4C285.8,49,286.2,49.7,286.4,49.5Z" fill="#741112" fill-rule="evenodd"/>
          <path d="M286.4,44.4c0,.2-.8.8-1.1,1.6a12,12,0,0,0-.8,2.7c-.2.7-.3,1.6-.4,1.7s-.3-.3-.4-.7a5.2,5.2,0,0,1-.2-1.8,5.7,5.7,0,0,1,1.1-2.2,2.4,2.4,0,0,1,1-1C285.9,44.4,286.4,44.2,286.4,44.4Z" fill="#741112" fill-rule="evenodd"/>
          <path d="M282.1,52.7a6.4,6.4,0,0,1-.6-2.3,5,5,0,0,1,1.1-2.2c.2-.3.4-.1.4.4s-.6,1.4-.7,2,.2,1.5.2,1.9-.2.5-.4.2Z" fill="#741112" fill-rule="evenodd"/>
        </g>
        <path d="M280.3,54.6a17.3,17.3,0,0,1-.4-2c.1-.8.6-2.2.6-2.5s-.6.6-.9,1a2.5,2.5,0,0,0-.4,1.3,7.1,7.1,0,0,0,.4,2.1C279.8,54.9,280.2,54.9,280.3,54.6Z" fill="#010101" fill-rule="evenodd"/>
        <g>
          <path d="M291.9,42.9c-.3-.1-.5-.5-.6-1.1a4.2,4.2,0,0,1,0-2.5,11.8,11.8,0,0,1,2.3-3.4c.4-.4.4.5.3,1.2s-.8,2.2-.9,3.1.4,1.8.2,2.3S292.2,43,291.9,42.9Z" fill="#741112" fill-rule="evenodd"/>
          <path d="M295.3,43.2a10.9,10.9,0,0,1-.3-2.8,3.9,3.9,0,0,1,.1-1.9,3,3,0,0,1,1.2-1.7c.5-.5,2-1.3,2.1-1.1a20.2,20.2,0,0,0-1.7,2.4,13.6,13.6,0,0,0-.6,3.3c-.2.8,0,1.2-.2,1.5S295.5,43.6,295.3,43.2Z" fill="#741112" fill-rule="evenodd"/>
          <path d="M298.4,43.8a12.3,12.3,0,0,1-.1-3.4,4.6,4.6,0,0,1,.8-2.4,4.8,4.8,0,0,1,1.5-1.8c.2,0-.2.8-.3,2s-.2,4-.3,4.9-.3.6-.5.8S298.6,44.3,298.4,43.8Z" fill="#741112" fill-rule="evenodd"/>
          <path d="M302.2,44.8a6.6,6.6,0,0,1-.1-3.2,13.9,13.9,0,0,1,.9-4,.8.8,0,0,1,1.4,0c.1.5-.5,1.8-.5,2.8s0,2.5,0,3.3.3,1.1,0,1.3S302.5,45.3,302.2,44.8Z" fill="#741112" fill-rule="evenodd"/>
          <path d="M290.2,43c.1-.2-.1-.4-.1-1.2s.5-3,.5-3.6-.6-.6-.9-.1a5.7,5.7,0,0,0-.6,2.5,3.6,3.6,0,0,0,.1,2.1A1,1,0,0,0,290.2,43Z" fill="#741112" fill-rule="evenodd"/>
          <path d="M287.5,43.5c.1-.3-.3-.7-.3-1.3s.4-2.3.4-2.6-.8.4-1.1.9a5.3,5.3,0,0,0-.4,1.9c0,.5.1,1.4.4,1.6A1.1,1.1,0,0,0,287.5,43.5Z" fill="#741112" fill-rule="evenodd"/>
          <path d="M285.3,44.8c0-.4-.3-1-.3-1.5a11,11,0,0,0,.1-1.6c-.2-.1-1,.5-1.3.7s-.2.1-.2.4a3.3,3.3,0,0,0,.1,1.7c.1.5.3,1.1.6,1.2S285.1,45.2,285.3,44.8Z" fill="#741112" fill-rule="evenodd"/>
        </g>
        <path d="M283,47.6c.1-.2-.3-.8-.4-1.2a16.2,16.2,0,0,0,.2-1.8c-.1-.2-.5.3-.7.4s-.3.2-.3.6a3.6,3.6,0,0,0,.3,1.7A.9.9,0,0,0,283,47.6Z" fill="#010101" fill-rule="evenodd"/>
        <path d="M281.7,49.5c.1-.3-.3-.5-.3-.7s0-.9-.1-.9-.6.5-.8.8a1.1,1.1,0,0,0,0,.8c0,.3,0,.9.3,1A4.5,4.5,0,0,0,281.7,49.5Z" fill="#010101" fill-rule="evenodd"/>
        <g>
          <path d="M305.4,45.7H307a2.5,2.5,0,0,1,1.5.1c.3.1.3.4.7.6l1.8.6h.5l1.5-.2a5,5,0,0,1-1.5.5l-1.3-.2a4.7,4.7,0,0,1-1.4-.4c-.3-.2-.3-.5-.6-.5s-1.2.1-1.6,0A1.7,1.7,0,0,1,305.4,45.7Z" fill="#741112" fill-rule="evenodd"/>
          <path d="M319.3,47.8l1.9.4,1.3-.2a11.5,11.5,0,0,1,1.9-.1c.6,0,.8.4,1.6.6l2.9.3a13.4,13.4,0,0,1-2.6.2c-.7-.2-1-.6-1.6-.7l-2.5.3h-1.7C320,48.3,319.2,47.9,319.3,47.8Z" fill="#741112" fill-rule="evenodd"/>
          <path d="M306.4,45.7a12.3,12.3,0,0,1-.1-3.4,5.7,5.7,0,0,1,.8-2.4,4.8,4.8,0,0,1,1.5-1.8c.2.1-.2.8-.3,2s-.2,4-.3,5-.3.5-.5.7S306.6,46.3,306.4,45.7Z" fill="#741112" fill-rule="evenodd"/>
          <path d="M311.7,47a8.4,8.4,0,0,1-.7-3.1,16.2,16.2,0,0,1,.4-4.1.8.8,0,0,1,1.4-.2c.2.4-.2,1.8-.1,2.8a25.7,25.7,0,0,0,.5,3.3c.1.7.4,1,.2,1.2S312.1,47.4,311.7,47Z" fill="#741112" fill-rule="evenodd"/>
          <path d="M317.3,48a14.9,14.9,0,0,1-1.5-3.1,5.7,5.7,0,0,1-.3-2.5c.1-.8.4-2.2.7-2.2s.1.8.5,1.9,1.5,3.7,1.8,4.6,0,.6-.2.9S317.7,48.4,317.3,48Z" fill="#741112" fill-rule="evenodd"/>
          <path d="M322.5,48.3c-.4-.2,0-.8-.4-1.6s-1.6-2.5-1.9-3.3-.2-1.3.1-1.5.8,0,1.4.6a14.9,14.9,0,0,1,2,2.9,8.7,8.7,0,0,1,.7,1.7,1,1,0,0,1-.4.9C323.6,48.2,322.8,48.5,322.5,48.3Z" fill="#741112" fill-rule="evenodd"/>
          <path d="M302.2,52.6c.4-.4,1.4-2.7,2-3.6a7.1,7.1,0,0,1,1.5-1.8c.4-.6,1.2-1.3,1-1.3a7.1,7.1,0,0,0-4.3,3.4,2.9,2.9,0,0,0-.6,1.7C301.8,51.5,301.8,52.9,302.2,52.6Z" fill="#741112" fill-rule="evenodd"/>
          <path d="M308.1,53.9c.3-.5,1-2.7,1.7-3.8s2-2.3,2.3-2.8-.4-.1-.9.2a9.6,9.6,0,0,0-2.3,1.8,4,4,0,0,0-1.3,2.1,1.9,1.9,0,0,0,.1,1.5c0,.4,0,1.4.4,1Z" fill="#741112" fill-rule="evenodd"/>
          <path d="M317.4,48.3c-.5.8-2.3,3.2-3,4.4s-1.1,2.1-1.3,2.2-.2-1.2-.3-1.6-.7-.5-.3-1.1a10.5,10.5,0,0,1,2.3-3,7.3,7.3,0,0,1,2.3-1.5C317.5,47.5,317.8,47.4,317.4,48.3Z" fill="#741112" fill-rule="evenodd"/>
          <path d="M319.1,55.1a2.1,2.1,0,0,1-.4-1.7,9.4,9.4,0,0,1,1-2.8,5.1,5.1,0,0,1,1.3-1.9,1,1,0,0,1,1.1-.2c.3.1.7-.1.4.9a53.8,53.8,0,0,1-2,5.1c-.6.9-1.1.7-1.4.6Z" fill="#741112" fill-rule="evenodd"/>
          <path d="M325.1,54.5c-.3-.1-.2-.5.1-1.2a15.9,15.9,0,0,1,1.7-3.1,4.6,4.6,0,0,1,1.4-1.6c.1-.3,0-.7-.5-1.5s-1.8-2.5-2.1-3.2-.4-1.5,0-1.4a7.2,7.2,0,0,1,2.3,2,18.9,18.9,0,0,1,2.6,3.6c.2.8-.7.5-1.1,1.3s-.9,2.6-1.4,3.6-1,2.1-1.5,2.3-1,0-1.5-.8Z" fill="#741112" fill-rule="evenodd"/>
          <path d="M334.9,49.2c-.3-.2-.1-.8-.6-1.6s-2.2-2.5-2.7-3.3-.5-1.5-.2-1.7.9-.1,1.7.4a36.3,36.3,0,0,1,2.7,2.8,6.6,6.6,0,0,1,1,1.7,1,1,0,0,1-.3,1.1A2.5,2.5,0,0,1,334.9,49.2Z" fill="#741112" fill-rule="evenodd"/>
          <path d="M331.5,56.1c-.4-.2-.6-.9-.5-1.7a14.5,14.5,0,0,1,1.1-3.1,5.4,5.4,0,0,1,1.4-2,1.1,1.1,0,0,1,1.2-.1c.2,0,.7-.2.4.9a40.8,40.8,0,0,1-2.2,5.4c-.6,1-1.1.8-1.4.6Z" fill="#741112" fill-rule="evenodd"/>
        </g>
        <g>
          <path d="M315.8,120.9a1.7,1.7,0,0,1-1.3-.9,6.3,6.3,0,0,1-1.1-2.5c0-.2.9.7,1.4,1.3a12.9,12.9,0,0,1,1.3,1.8h0l1.1.8c.4.2.9.5.9.7s-.9.4-1.3.2a2.7,2.7,0,0,1-1-1.4Z" fill="#741112" fill-rule="evenodd"/>
          <path d="M320.4,121.3c-.7.3-1.3-.1-2-.8a26.2,26.2,0,0,1-2.1-3.7c.1-.3,1.6,1.4,2.4,2.1l2,2h0l1.6.7c.5.2,1.3.5,1.2.7a2.1,2.1,0,0,1-1.5.6,3.1,3.1,0,0,1-1.6-1.6Z" fill="#741112" fill-rule="evenodd"/>
          <path d="M322.5,119.6a3.6,3.6,0,0,1-2.3-1.6,4.8,4.8,0,0,1-.5-2.9c.2-.2,1,.7,1.5,1.5a13.9,13.9,0,0,1,1.6,2.8,24.6,24.6,0,0,1,4,1.7c.3.3-1.6.1-2.3,0a3.7,3.7,0,0,1-1.8-.4c-.4-.3-.4-.6-.2-1.1Z" fill="#741112" fill-rule="evenodd"/>
          <path d="M326.3,117.7l.4-.5a4.7,4.7,0,0,1-1.4-1.4c-.4-.7-.8-2.4-1.1-2.6s-.8.6-.8,1.2a2.6,2.6,0,0,0,.4,1.8,8.4,8.4,0,0,0,1.9,1.9c-.4.4-.5.7-.3,1a2.8,2.8,0,0,0,1.8.6h3.9l-3.3-.9A3.2,3.2,0,0,1,326.3,117.7Z" fill="#741112" fill-rule="evenodd"/>
          <path d="M331,115.9l.5-.5a4.8,4.8,0,0,1-1.3-1.7c-.4-.8-.7-2.5-1-2.8s-.8.6-.9,1.2a2.6,2.6,0,0,0,.2,1.9,8.5,8.5,0,0,0,1.8,2.3c-.5.3-.6.7-.3,1a2.6,2.6,0,0,0,1.7.8,20,20,0,0,0,4.2.5l-3.4-1.3c-.8-.5-1.4-.9-1.5-1.4Z" fill="#741112" fill-rule="evenodd"/>
          <path d="M335,113.8l.4-.6a6.4,6.4,0,0,1-1.5-1.4c-.5-.8-1-2.5-1.4-2.7s-.7.8-.7,1.3a2.9,2.9,0,0,0,.5,1.9,8.1,8.1,0,0,0,2.1,2c-.4.4-.5.7-.2,1a2.9,2.9,0,0,0,1.9.6,22.1,22.1,0,0,0,4.2-.2,17.9,17.9,0,0,1-3.6-.8,2.9,2.9,0,0,1-1.7-1.1Z" fill="#741112" fill-rule="evenodd"/>
        </g>
      </g>
      <g>
        <path d="M302.6,235c0,29.7,24.7,53.8,55.2,53.8s55.3-24.1,55.3-53.8-24.8-53.8-55.3-53.8-55.2,24.1-55.2,53.8Z" fill="#010101" fill-rule="evenodd"/>
        <path d="M303.8,235.6c0,29.7,23.8,52.1,54.3,52.1s54-22.5,54-52.3-23.8-53.2-54.2-53.2-54.1,23.6-54.1,53.4Z" fill="#fff" fill-rule="evenodd"/>
        <g>
          <path d="M330.8,209.7l-1.2-.2-1.7-.6-1.7-.5h-1.6c-.5-.1-.9-.6-1.4-.7a6.7,6.7,0,0,0-2-.1l-1.5-.3c-.4,0-.6.3-1,.3a12.8,12.8,0,0,0-1.9-.1,5,5,0,0,0-1.3.3,12.2,12.2,0,0,0-1.7.5h.8a6.6,6.6,0,0,1,1.5-.5,6.5,6.5,0,0,1,1.4,0h2c.4,0,.2-.1.4-.1H321a15.4,15.4,0,0,1,1.9.2,14.2,14.2,0,0,0,1.8.8c.5.1.8-.1,1.4-.1l1.8.6,1.3.3,1,.3c.3.1.7-.2.6-.2Z" fill="#741112" fill-rule="evenodd"/>
          <path d="M311.1,210.4c-.1-.1-.8.7-1.2,1.1a6.3,6.3,0,0,0-1,1.2,10.1,10.1,0,0,0-1.3,1.6c-.4.4-.9.9-.7.9l1.4-1.5,1.4-1.6A18,18,0,0,1,311.1,210.4Z" fill="#741112" fill-rule="evenodd"/>
          <path d="M329,209.8c-.5.8-2.4,3.2-3,4.4a24.8,24.8,0,0,1-1.3,2.2c-.3.1-.3-1.1-.3-1.6s-.7-.4-.3-1.1a10.5,10.5,0,0,1,2.3-3,7.3,7.3,0,0,1,2.3-1.5C329.1,209.1,329.4,208.9,329,209.8Z" fill="#741112" fill-rule="evenodd"/>
          <path d="M320.7,215.2c.4-.4,1.4-2.6,2-3.5a12.5,12.5,0,0,1,1.5-1.9c.4-.5,1.3-1.3,1-1.2a6.7,6.7,0,0,0-2.4,1.1,7.7,7.7,0,0,0-1.9,2.2,2.6,2.6,0,0,0-.5,1.8C320.3,214.2,320.3,215.5,320.7,215.2Z" fill="#741112" fill-rule="evenodd"/>
          <path d="M317.9,214.4a41.1,41.1,0,0,1,1.6-3.8,23.6,23.6,0,0,1,2-2.8c.2-.5-.4-.1-.8.2a11.2,11.2,0,0,0-2.1,1.8,5.7,5.7,0,0,0-1.2,2.1,2.4,2.4,0,0,0,.1,1.5C317.5,213.8,317.5,214.8,317.9,214.4Z" fill="#741112" fill-rule="evenodd"/>
          <path d="M315.1,214.1a24.4,24.4,0,0,0,1.7-3.3l1.3-2.1q.4-.9.3-.9c-.1-.1-.7.1-1.2.6a19.3,19.3,0,0,0-1.7,2.1,3.3,3.3,0,0,0-.9,1.6C314.5,212.7,314.7,214.3,315.1,214.1Z" fill="#741112" fill-rule="evenodd"/>
          <path d="M313,214.2c.2-.3.2-1.6.5-2.3a5,5,0,0,1,.8-2c.4-.7,1.5-2.1,1.6-2.3s-.8.5-1.3,1a6.4,6.4,0,0,0-1.5,1.4,6.6,6.6,0,0,0-.9,1.9,2.2,2.2,0,0,0,.1,1.4C312.4,213.7,312.8,214.4,313,214.2Z" fill="#741112" fill-rule="evenodd"/>
          <path d="M313,209c-.1.3-.8.8-1.2,1.6s-.6,2-.8,2.8-.3,1.5-.4,1.7-.2-.4-.3-.8a5,5,0,0,1-.2-1.8,8.1,8.1,0,0,1,1-2.1c.4-.5.7-.9,1-1S313,208.8,313,209Z" fill="#741112" fill-rule="evenodd"/>
          <path d="M308.7,217.4a7,7,0,0,1-.6-2.3,5.5,5.5,0,0,1,1-2.3c.2-.3.5,0,.5.5a15,15,0,0,0-.7,2,9.2,9.2,0,0,0,.1,1.8c0,.4-.2.6-.3.3Z" fill="#741112" fill-rule="evenodd"/>
        </g>
        <path d="M306.8,219.3c.1-.4-.3-1.3-.3-2a18.5,18.5,0,0,1,.6-2.5c-.1-.3-.7.6-.9,1a2.1,2.1,0,0,0-.4,1.2,5.4,5.4,0,0,0,.4,2.2A.3.3,0,0,0,306.8,219.3Z" fill="#010101" fill-rule="evenodd"/>
        <g>
          <path d="M318.4,207.6c-.3-.2-.4-.6-.5-1.2a3.9,3.9,0,0,1,0-2.4,15.2,15.2,0,0,1,2.2-3.5c.5-.3.4.5.4,1.3s-.8,2.1-1,3,.4,1.8.3,2.4S318.7,207.7,318.4,207.6Z" fill="#741112" fill-rule="evenodd"/>
          <path d="M321.9,207.8a9.6,9.6,0,0,1-.4-2.7,5.5,5.5,0,0,1,.2-1.9,4.2,4.2,0,0,1,1.1-1.8c.6-.5,2-1.2,2.2-1s-1.3,1.3-1.7,2.3a14.7,14.7,0,0,0-.7,3.4c-.1.8,0,1.2-.1,1.5S322,208.2,321.9,207.8Z" fill="#741112" fill-rule="evenodd"/>
          <path d="M325,208.5a9.5,9.5,0,0,1-.1-3.4,6.1,6.1,0,0,1,.7-2.5c.4-.7,1.3-1.8,1.5-1.7s-.2.8-.3,2-.1,3.9-.3,4.9-.2.6-.4.7S325.2,209,325,208.5Z" fill="#741112" fill-rule="evenodd"/>
          <path d="M328.8,209.4a7.3,7.3,0,0,1-.2-3.1,13.2,13.2,0,0,1,.9-4c.5-.6,1.2-.5,1.4,0s-.4,1.8-.5,2.8.1,2.5.1,3.3.2,1,0,1.2S329.1,210,328.8,209.4Z" fill="#741112" fill-rule="evenodd"/>
          <path d="M316.8,207.6c.1-.2-.2-.3-.1-1.1s.5-3,.5-3.6-.7-.6-.9-.2a8.1,8.1,0,0,0-.7,2.6,4.7,4.7,0,0,0,.1,2.1A.9.9,0,0,0,316.8,207.6Z" fill="#741112" fill-rule="evenodd"/>
          <path d="M314.1,208.2c.1-.4-.3-.7-.3-1.4s.4-2.3.3-2.5-.8.3-1,.8a3.1,3.1,0,0,0-.4,1.9c0,.6.1,1.4.4,1.6S313.9,208.5,314.1,208.2Z" fill="#741112" fill-rule="evenodd"/>
          <path d="M311.8,209.5c.1-.4-.2-1.1-.2-1.6s.2-1.4.1-1.5-1.1.4-1.3.6-.3.1-.3.5a10.3,10.3,0,0,0,.1,1.7c.1.4.4,1.1.7,1.1A1.4,1.4,0,0,0,311.8,209.5Z" fill="#741112" fill-rule="evenodd"/>
        </g>
        <path d="M309.6,212.3c0-.2-.4-.8-.4-1.3s.2-1.5.2-1.7-.5.2-.7.4-.3.1-.3.5a4.7,4.7,0,0,0,.2,1.7A.9.9,0,0,0,309.6,212.3Z" fill="#010101" fill-rule="evenodd"/>
        <path d="M308.3,214.1c0-.2-.3-.4-.4-.6s.1-.9,0-.9-.7.5-.8.8a1.5,1.5,0,0,0-.1.7c.1.3.1,1,.3,1S308.2,214.4,308.3,214.1Z" fill="#010101" fill-rule="evenodd"/>
        <g>
          <path d="M332,210.4h3.1c.3.2.2.5.7.7l1.8.5h.4a5.3,5.3,0,0,1,1.6-.2l-1.5.5-1.4-.2-1.3-.4c-.4-.2-.3-.5-.7-.6h-1.6Z" fill="#741112" fill-rule="evenodd"/>
          <path d="M333,210.4a9.4,9.4,0,0,1-.1-3.4,5.6,5.6,0,0,1,.7-2.4c.4-.8,1.3-1.8,1.6-1.8a13.8,13.8,0,0,0-.3,2c-.2,1.1-.2,3.9-.3,4.9s-.3.6-.5.7S333.2,210.9,333,210.4Z" fill="#741112" fill-rule="evenodd"/>
          <path d="M328.8,217.2c.4-.4,1.3-2.6,2-3.5a11.7,11.7,0,0,1,1.4-1.9c.5-.5,1.3-1.3,1.1-1.2a6,6,0,0,0-2.4,1.1,10,10,0,0,0-2,2.2,4.5,4.5,0,0,0-.5,1.8C328.4,216.2,328.3,217.5,328.8,217.2Z" fill="#741112" fill-rule="evenodd"/>
          <path d="M334.6,218.6c.4-.6,1.1-2.7,1.8-3.8a34.8,34.8,0,0,1,2.2-2.8c.2-.5-.3-.1-.9.2a11.2,11.2,0,0,0-2.3,1.8,5.2,5.2,0,0,0-1.3,2.1,2.5,2.5,0,0,0,.1,1.5c.1.4.1,1.4.4,1Z" fill="#741112" fill-rule="evenodd"/>
        </g>
      </g>
      <g>
        <path d="M-69.8,217c0,24.1,20.1,43.7,44.9,43.7S19.9,241.1,19.9,217-.2,173.3-24.9,173.3-69.8,192.9-69.8,217Z" fill="#010101" fill-rule="evenodd"/>
        <path d="M-68.8,217.5c0,24.1,19.4,42.3,44.1,42.3s43.9-18.3,43.9-42.4S-.1,174.2-24.9,174.2s-43.9,19.1-43.9,43.3Z" fill="#fff" fill-rule="evenodd"/>
        <path d="M-.7,202.9q-.3,0-.3-.9a12.7,12.7,0,0,1,.2-2.7,3.7,3.7,0,0,1,.5-1.6,3.1,3.1,0,0,0-.8-1l-1.6-1.3c-.5-.5-1.3-1.3-1-1.5a5.1,5.1,0,0,1,2.3.8,10.9,10.9,0,0,1,2.6,1.9c.3.6-.4.5-.4,1.3s.1,2.1.1,3,0,1.8-.3,2.1S-.1,203.3-.7,202.9Z" fill="#741112" fill-rule="evenodd"/>
        <path d="M5.7,186.6a3.9,3.9,0,0,1,1.5.2,5.3,5.3,0,0,1,1.7.8,4.2,4.2,0,0,1,.9,1.6l-2.2-1.3Z" fill="#010101" fill-rule="evenodd"/>
        <path d="M10.1,190.6l.8,1,1.1,1.3a1.1,1.1,0,0,0-.2-1.2,4.5,4.5,0,0,0-1.7-1.1Z" fill="#010101" fill-rule="evenodd"/>
        <g>
          <path d="M9.7,190.9a1.9,1.9,0,0,0-.9-1.5,7.1,7.1,0,0,0-2.7-.9,2.8,2.8,0,0,0,.9,1,6.7,6.7,0,0,0,1.1.7c.3.2.5.1.8.2Z" fill="#741112" fill-rule="evenodd"/>
          <path d="M12.4,194.4a13.3,13.3,0,0,0-1.2-1.6c-.4-.4-1.1-.8-1-.6a13.4,13.4,0,0,0,1.6,2.2c.4.3.7.3.6,0Z" fill="#741112" fill-rule="evenodd"/>
          <path d="M9.3,192.5a13.1,13.1,0,0,0-1.4-1.2c-.7-.4-2.6-1-2.9-1.3s.3-.3.8-.2a8.7,8.7,0,0,1,1.7.7c.4.1.6,0,.9.3A4.7,4.7,0,0,1,9.3,192.5Z" fill="#741112" fill-rule="evenodd"/>
          <path d="M12,197.9c.2,0-.3-1.8-.7-2.4A6.9,6.9,0,0,0,10,194q-.6-.6-.9-.6c-.2,0-.4.5-.5.5s-.2-.5-.4-.8a3.1,3.1,0,0,0-1.3-1.2,13.2,13.2,0,0,0-3.2-.9c-.3.1.7.4,1.3.9a17.9,17.9,0,0,1,2.6,2c.3.4-.4.5-.3.9s.5.5.9,1L9.5,198c.2.6.1,1.6.2,1.5a4.8,4.8,0,0,0,.3-2.1c-.3-.8-1.6-2.2-1.8-2.7s.3-.6.6-.5a2.3,2.3,0,0,1,1.4,1c.5.5,1.6,2.6,1.8,2.7Z" fill="#741112" fill-rule="evenodd"/>
          <path d="M1.8,192.7c0-.2,1.3-.3,2.1.1a11.3,11.3,0,0,1,2.6,2.1c.3.5-.6.6-.5,1.1s.8,1.2,1.1,1.9a5.8,5.8,0,0,1,.2,2.5c-.1,0-.7-1.7-1.1-2.3S5.1,197,5,196.6s.9-.7.6-1.1a10.5,10.5,0,0,0-2.2-1.7C2.7,193.3,1.7,192.8,1.8,192.7Z" fill="#741112" fill-rule="evenodd"/>
          <path d="M-1.1,193.5c0,.2,3.1,2.4,3.8,3.1s-.1.5,0,.8.2.2.4,1.1.6,3.5.9,3.7.6-1.5.6-2.3a28.3,28.3,0,0,0-.9-2.7c-.1-.6.5-.3.3-.7a2.5,2.5,0,0,0-1.3-1.6c-.9-.6-3.7-1.7-3.8-1.4Z" fill="#741112" fill-rule="evenodd"/>
          <path d="M-12,247.5c.1.1.2,0,.4-.2l.7-1.3a1.8,1.8,0,0,1,.7-.5l1.1-.2c.3,0,.6.1.9-.2s.5-1.2.9-1.4a3.3,3.3,0,0,1,1.7-.2h1.7c.3-.2.3-.7.6-1s.4-.8.8-.9H-.8l1.7-.5-2.2,1c-.5.2-.7.1-1,.4s-.1.7-.8,1.1-2.7.3-3.5.7-.7,1.1-1.3,1.4-2,.3-2.5.6-.3,1-.5,1.2l-.8.3Z" fill="#741112" fill-rule="evenodd"/>
          <path d="M-3.7,243.4l2.3.9a5.3,5.3,0,0,0,2,.2c.2-.2-.3-.7-.9-1.1a9.6,9.6,0,0,0-2.5-.7c-.2.3-.3.5-.5.6Z" fill="#741112" fill-rule="evenodd"/>
          <path d="M.3,241a4.1,4.1,0,0,0,1.1-2.4c.2-1-.1-3.1.1-3.7s.8-.5,1-.1a6.4,6.4,0,0,1,.3,2.6,12.2,12.2,0,0,1-.9,2.7,7.1,7.1,0,0,1,1.8,1.5c.3.5.4,1.3.2,1.5s-1.1,0-1.7-.3A7.7,7.7,0,0,1,.3,241Z" fill="#741112" fill-rule="evenodd"/>
          <path d="M3.1,239.5a1,1,0,0,0,1.1-.3,5.7,5.7,0,0,0,.7-1.7,34.5,34.5,0,0,1,.7-3.9c.2-.7.7-.9.9-.5v2.5c-.1.7-.3,1.3-.3,1.6s.2.4.4.2a1,1,0,0,0-.6.5.9.9,0,0,0-.3.7c.1.3.4.4.7.8a5.6,5.6,0,0,1,.7,1.6c-.2.4-.9.9-1.3.8s-.7-1.4-1.2-1.8a1.7,1.7,0,0,0-1.5-.5Z" fill="#741112" fill-rule="evenodd"/>
          <path d="M7,237.5c.3.2.5.1.8-.2a2.7,2.7,0,0,0,.9-1.5c.2-.9.1-3.5.4-4.2s.9-.5,1,.1a18.8,18.8,0,0,1-.2,3.3c-.1.7-.4.6-.3.8s.5.3.9.2a1.9,1.9,0,0,0,1-1,9.7,9.7,0,0,0,.4-2.2,24.3,24.3,0,0,1,.6-3.1c.2-.2.6,1.3.6,2s-.7,1.8-.6,2.2.3.4.9.1a1.6,1.6,0,0,0-.9.6c-.2.2-.2.5-.1.9a9.9,9.9,0,0,1,.2,1.8,2.5,2.5,0,0,1-1,1.5,2.9,2.9,0,0,0-.3-1.7,1.6,1.6,0,0,0-1.3-.7c-.3.1-.1.4-.2,1a9,9,0,0,1-.2,2.3c-.2.5-.4.7-.8.6a3,3,0,0,0,.1-1.6c-.2-.4-.6-.5-1-.7a2.6,2.6,0,0,0-1.1-.3c-.2-.1-.1-.2.2-.2Z" fill="#741112" fill-rule="evenodd"/>
          <path d="M13.6,233.6c.2-.1.4-.5.7-1L15,230c.2-.7.3-1.7.5-1.8s.5.2.4,1.1a28.2,28.2,0,0,1-.9,4,6.3,6.3,0,0,0,1.7-2.4c.4-.9.3-2.5.5-2.9s.5.2.6.6-.4.7-.6,1.3-.3,1.4-.5,2.3a4.8,4.8,0,0,0-1.8,1.6c-.3.6.1,1.3,0,1.9a4.2,4.2,0,0,1-1.2,1.5,2.9,2.9,0,0,0,.6-1.7,9.1,9.1,0,0,0-.8-1.7c-.1-.3-.1-.4.1-.2Z" fill="#741112" fill-rule="evenodd"/>
        </g>
      </g>
    </g>
    <g>
      <g>
        <path d="M32.6,17.9a1.4,1.4,0,0,1-.4,1.1l-4.9,4.9-5.2-3v-3a1.6,1.6,0,0,1,1.6-1.5,1.5,1.5,0,0,1,1.5,1.5h0v3.7L30,16.8a1.5,1.5,0,0,1,2.1-.1h.1a1.6,1.6,0,0,1,.4,1.2" fill="#fff"/>
        <path d="M31.1,32.1l-.6-.2-.5-.3-4.8-4.8v3.7a1.8,1.8,0,0,1-1.5,1.6,1.6,1.6,0,0,1-1.6-1.6V27.6l5.2-3,4.9,4.8a1.5,1.5,0,0,1,.1,2.1,2,2,0,0,1-1.2.6" fill="#fff"/>
        <path d="M27.1,24.1c0-.1-.1-.1-.2-.2h0l-1.3-.7-3.5-2-3-1.8h-.4v9.2c0,.2.2.3.4.3h.1l2.9-1.7,4.8-2.8h.2Zm-1.2.2h-.1l-3.7,2.2-2.4,1.3c-.1.1-.2.1-.3-.1s-.1,0-.1-.1v-7a.3.3,0,0,1,.3-.3h.1l2.4,1.4L25.8,24C25.9,24,25.9,24.2,25.9,24.3Z" fill="#fff"/>
        <path d="M24.9,24.2a.2.2,0,0,1-.2.2h0L21.9,26l-1.7,1h-.3V21.6c0-.2.1-.2.2-.2h.1l1.7,1L24.7,24c.1,0,.2,0,.2.1h0" fill="#fff"/>
      </g>
      <g>
        <path d="M58,24a.3.3,0,0,0-.1-.2l-4.3-2.1L51,20.4c-.3-.1-.5,0-.5.2v7.2c0,.1.1.2.3.2h.2l2.6-1.4,4.2-2.2a.3.3,0,0,0,.1-.2Zm-1,.2h-.1L53.6,26l-2,1.1h-.4V21.4c0-.1.1-.2.3-.2h.1l2,1L57,23.8V24H57Z" fill="#fff"/>
        <path d="M56.1,24.2H56l-2.5,1.3-1.5.8c-.1.1-.2.1-.2-.1h0V22.1c0-.1,0-.2.2-.2h0l1.6.7L56,24h.1" fill="#fff"/>
        <path d="M35.8,20.5h3.6c1.9,0,3.2,1,3.3,2.5s-1.4,2.5-3.2,2.5H37.6v2.4H35.8ZM39.3,24c.9,0,1.5-.4,1.5-1s-.6-1.1-1.5-1.1H37.5V24Z" fill="#fff"/>
        <path d="M49.6,26.5V28H43.7V20.6h1.8v6Z" fill="#fff"/>
        <path d="M60,25.2l-3.4-4.8h2.1l2.1,3.2,2.1-3.2h2l-3.1,4.7v2.7H60Z" fill="#fff"/>
        <path d="M66.1,20.8h1v4.1l4.1-4.1h1.3L69,24.2l3.8,4H71.6l-3.2-3.4L67.1,26v2.2h-.9Z" fill="#fff"/>
        <path d="M73.3,24.4c-.1-2,1.9-3.8,4.1-3.8a4.1,4.1,0,0,1,4.3,3.8,4.2,4.2,0,0,1-8.4.1h0Zm7.5,0a3.1,3.1,0,0,0-3.3-3h0a3.2,3.2,0,0,0-3.3,3,3.3,3.3,0,0,0,6.6,0Z" fill="#fff"/>
        <path d="M83,27.1l.5-.7a4.1,4.1,0,0,0,2.8,1.1c1.2-.1,1.9-.7,1.9-1.3s-.8-1.2-2.3-1.4-2.7-.8-2.7-2.1,1.1-2.1,2.7-2.1a4.1,4.1,0,0,1,3,1l-.6.7a3.6,3.6,0,0,0-2.4-.9c-1,0-1.8.6-1.8,1.2s.9,1.1,2.3,1.4,2.7.8,2.7,2.1-1,2.1-2.8,2.1A4.4,4.4,0,0,1,83,27.1Z" fill="#fff"/>
        <path d="M90.9,20.8h.9L95,26l3-5.2h.9v7.4H98V22.6l-3,5.2-3.2-5.2v5.6h-.9Z" fill="#fff"/>
        <path d="M100.7,24.4c-.1-2,1.9-3.8,4.2-3.8a4,4,0,0,1,4.3,3.8c.1,2-1.9,3.8-4.2,3.8A4.1,4.1,0,0,1,100.7,24.4Zm7.5,0a3.1,3.1,0,0,0-3.3-3h0a3.2,3.2,0,0,0-3.3,3,3.1,3.1,0,0,0,3.3,3h.1a3,3,0,0,0,3.2-2.9Z" fill="#fff"/>
        <path d="M110.4,27.1l.5-.7a4.3,4.3,0,0,0,2.8,1.1c1.2-.1,1.9-.7,1.9-1.3s-.8-1.2-2.3-1.4-2.7-.8-2.7-2.1,1.2-2.1,2.7-2.1a4.1,4.1,0,0,1,3,1l-.6.6a4.1,4.1,0,0,0-2.4-.8c-1,0-1.8.6-1.8,1.2s.9,1.1,2.3,1.4,2.8.8,2.8,2.1-1,2.1-2.9,2.1A4.4,4.4,0,0,1,110.4,27.1Z" fill="#fff"/>
      </g>
    </g>
    <circle cx="58.7" cy="98.1" r="3.6" fill="#fff"/>
    <circle cx="58.7" cy="118.9" r="3.6" fill="#fff"/>
    <path d="M37,186.4a.9.9,0,0,0,.6-.3.8.8,0,0,0,.2-.5,1.4,1.4,0,0,0-.2-.6l-.6-.2-.6.2a1.4,1.4,0,0,0-.2.6.8.8,0,0,0,.2.5A.9.9,0,0,0,37,186.4Zm0,3.9a11,11,0,0,1-2.4-2.5,4.2,4.2,0,0,1-.8-2.2,2.9,2.9,0,0,1,1-2.3,3.1,3.1,0,0,1,4.4,0,3.3,3.3,0,0,1,1,2.3,4.2,4.2,0,0,1-.8,2.2A11,11,0,0,1,37,190.3Z" fill="#010101"/>
    <g id="b74c0850-baad-42bd-83dc-a6b46af9c2c4">
      <g id="a7e5814c-5adb-4201-8491-9c5c2dd72038">
        <g id="fc311e3f-3f5e-4c80-824b-7fc18470d521">
          <rect x="37.5" y="204.8" width="0.9" height="0.92" fill="#231f20"/>
        </g>
        <g id="fc5ac6f4-5c37-4349-8d8f-506f339b71a4">
          <rect x="39" y="204.8" width="0.9" height="0.92" fill="#231f20"/>
        </g>
        <g id="fb75a248-a09f-4cb2-93c7-d78ff2c04964">
          <rect x="40.5" y="204.8" width="0.9" height="0.92" fill="#231f20"/>
        </g>
        <g id="a636704e-a170-49d2-af14-4e3f3d9e1f4c">
          <rect x="37.5" y="206.2" width="0.9" height="0.92" fill="#231f20"/>
        </g>
        <g id="aec32b39-28ea-4e66-b73c-31a1e0dbbed9">
          <rect x="39" y="206.2" width="0.9" height="0.92" fill="#231f20"/>
        </g>
        <g id="fffa3235-3410-47ea-80e3-438393df7833">
          <rect x="40.5" y="206.2" width="0.9" height="0.92" fill="#231f20"/>
        </g>
        <g id="f5af17f5-618f-4bae-8e60-c742599c68f1">
          <rect x="37.5" y="207.7" width="0.9" height="0.92" fill="#231f20"/>
        </g>
        <g id="bff153df-f3bd-40bc-af06-fbfe28f1dd3b">
          <rect x="39" y="207.7" width="0.9" height="0.92" fill="#231f20"/>
        </g>
        <g id="b1bd291f-60c6-444d-bfa4-9b79c6e6f6c4">
          <rect x="40.5" y="207.7" width="0.9" height="0.92" fill="#231f20"/>
        </g>
        <g id="af0da90c-3c42-4614-a099-48289d755f85">
          <rect x="37.5" y="209.2" width="0.9" height="0.92" fill="#231f20"/>
        </g>
        <g id="f15918b1-4a99-4ab6-88a6-e1b74e16e927">
          <rect x="39" y="209.2" width="0.9" height="0.92" fill="#231f20"/>
        </g>
        <g id="a0296fb8-6cab-4e1b-bf79-37e69502a3ae">
          <rect x="40.5" y="209.2" width="0.9" height="0.92" fill="#231f20"/>
        </g>
      </g>
      <g id="bf9a850b-25b0-492f-9a7f-ad51b25d6fac">
        <path d="M37.1,214H33.8v-7.9h3.3Zm-2.6-.7h1.9v-6.6H34.5Z" fill="#231f20"/>
      </g>
      <g id="a51499a2-239a-4959-b9d5-5029a1778e0b">
        <g id="f0e9565e-49cf-4466-a1dd-3bcfd59a7dec">
          <rect x="35" y="207.3" width="0.9" height="0.92" fill="#231f20"/>
        </g>
        <g id="aba04e01-706f-4314-a48e-3c1a8ec4be41">
          <rect x="35" y="208.8" width="0.9" height="0.92" fill="#231f20"/>
        </g>
        <g id="a5768caa-49d0-43d1-9cd1-199ed459bebc">
          <rect x="35" y="210.3" width="0.9" height="0.92" fill="#231f20"/>
        </g>
        <g id="b2302605-f443-4c37-996c-4dcbf127bb1f">
          <rect x="35" y="211.8" width="0.9" height="0.92" fill="#231f20"/>
        </g>
      </g>
      <g id="bd558b62-ab45-4d9e-a8e8-f1515e8ce8d3">
        <path d="M45.2,214H41.9v-7.9h3.3Zm-2.6-.7h1.9v-6.6H42.6Z" fill="#231f20"/>
      </g>
      <g id="f6138ed1-3603-4b69-9e6d-187b5334c74c">
        <g id="fe71a5c6-b579-4dc0-835d-9542a76e5098">
          <rect x="43.1" y="207.3" width="0.9" height="0.92" fill="#231f20"/>
        </g>
        <g id="f18acb40-c657-4d4d-b384-bd6f12a21b2f">
          <rect x="43.1" y="208.8" width="0.9" height="0.92" fill="#231f20"/>
        </g>
        <g id="b8138e44-bd32-4df3-a6f2-2bb0e599e045">
          <rect x="43.1" y="210.3" width="0.9" height="0.92" fill="#231f20"/>
        </g>
        <g id="b567e297-9651-42d2-bb27-e7f38148fb1f">
          <rect x="43.1" y="211.8" width="0.9" height="0.92" fill="#231f20"/>
        </g>
      </g>
      <g id="a8530420-ac57-4656-a526-bba5b7109ec2">
        <path d="M42.6,214H40.3v-2.4H38.7V214H36.4V203.3h6.2Zm-1.6-.7h.9V204H37.1v9.3H38v-2.4h3Z" fill="#231f20"/>
      </g>
    </g>
    <rect x="49.4" y="243.7" width="215.8" height="1" rx="0.5" fill="#741112"/>
    <g>
      <rect x="59.5" y="285.5" width="64.1" height="13.45" fill="#741112"/>
      <rect x="125" y="285.5" width="72.7" height="13.45" fill="#741112"/>
    </g>
  </g>
</svg>
