<svg id="b8b9d7f5-1340-4819-9945-622302223c6f" data-name="Layer 1" xmlns="http://www.w3.org/2000/svg" width="335" height="335" viewBox="0 0 335 335">
  <g>
    <g>
      <rect y="260.2" width="335" height="74.77" fill="#fff"/>
      <rect x="167.5" width="167.5" height="335" fill="#231f20"/>
      <rect width="167.5" height="335" fill="#ffdd15"/>
    </g>
    <g opacity="0.05">
      <path d="M91.2,144.6a28.2,28.2,0,0,0,4.4.4,39.5,39.5,0,0,1,18.7,4c5.6,2.6,11.1,5.6,16.9,7.6s8.5,5.5,11,10.4,2.6,7.8,5.4,11c.9,1.2,1,3.1,1.2,4.7.5,4.1-2.2,6.3-6.1,5.2a10.2,10.2,0,0,0-2.5-.6c-4.8-.9-6.1-2.3-5.2-7.2s-3.3-7.8-5.8-11.1a2,2,0,0,0-2.2-.5c-4.7,1.8-9.4.4-14-.3-2.5-.3-3,.2-2.9,2.7.3,10,3.6,19.5,5.5,29.2,1.5,8,6,14.7,8.1,22.4,4.3,15.4,9.1,30.7,9.2,47,0,3.4,0,6.9-.2,10.4s-3,7.4-7.8,7.3-11.9-2-17.8-3.4-5.4-.8-6,4c-.2,1.8-.1,3.7-.3,5.5s-1.3,4.7-3.9,5.3-4.2-1.4-5.3-3.6-3.1-7.1-2.6-11.1a9.9,9.9,0,0,0-.7-4.8c-.9-2.6-1.1-5.1,1.5-7s5.2-2.3,8.2-.2a2.3,2.3,0,0,0,2.1.4c4.3-1.2,8.6-1,13-.8s3.3-.8,2.6-3.3c-1.2-4.1-2.2-8.2-3.3-12.3-.2-1-.5-2-1.8-1.8s-2.9-.9-3.7-2.5c-2-4.2-4.8-7.9-7.3-11.8-1.1-1.6-1.9-1.6-2.9.1-2.3,3.6-4.3,7.6-6.8,11-5,6.8-6.5,15.6-12.8,21.5a61.7,61.7,0,0,1-13.8,9.5c-10.2,5.2-17.4,13.2-23.8,22.3a9.6,9.6,0,0,1-1.8,2.2c-2.4,2.2-4.5,1.8-6-1.2a11.7,11.7,0,0,1-.9-8.4c1-3.7,3.1-6.7,5.6-9.7s5.1-6,9.9-6.9c3.2-.6,5.7-4.4,7.7-7.5a39.1,39.1,0,0,1,8.2-9,5.2,5.2,0,0,0,2-3.9c.6-6.8.3-13.8,2.5-20.4s3.8-11.9,6.1-17.7c2.9-7.5,1.9-15.1,1.4-22.6s-4-12.1-6.5-17.9-2.9-6.3-8.6-2.3-11.1,2.5-16.6,3.4c-2.4.4-3.9-2.2-5.1-4.3a64.2,64.2,0,0,1-5.7-13.2c-.7-2.3-1.6-4.4-2.2-6.6a15.3,15.3,0,0,0-8-10.4c-2.8-1.5-4.1-8.4-2.6-10.8s7.9-4.8,11.3-2.8,5.5,3,3.4,6.9c-.4.6.2,1.1.5,1.5s1.2,1.5.9,2.4c-1,3.3,1,5.7,2.6,8.2l7.8,12.2c1.2,1.8,2.2,2.1,4.1.7,3.8-3,8.1-5.3,11.2-9.2a10.7,10.7,0,0,1,7.4-3.6,6.2,6.2,0,0,0,3.4-1.3c4-3,3.8-7.3.2-10.8a22.2,22.2,0,0,1-6.9-11.9c-1-5,2.1-10,7.4-12.4a24.5,24.5,0,0,1,15.3-1.6c3.5.6,3.5,1.4,3.9,5.4a12.8,12.8,0,0,0,3,7.7c1.6,1.6,3,3.2.9,5.6s-.6,2.7,0,3.9c1.5,3,.1,4.5-2.5,5.6A11.3,11.3,0,0,0,91.2,144.6Z" fill="#231f20"/>
      <path d="M113.9,95.6a13.1,13.1,0,0,1,13.4-13c7.5-.1,13.2,5.9,13.3,13.8s-6.5,13-13.7,12.9S113.9,103.4,113.9,95.6Z" fill="#231f20"/>
    </g>
    <g>
      <rect x="162.5" width="3" height="146" fill="#231f20"/>
      <rect x="156.5" width="3" height="113.81" fill="#231f20"/>
      <rect x="150.5" width="3" height="93.24" fill="#231f20"/>
    </g>
    <g>
      <rect x="316.9" width="3" height="78.76" fill="#ffdd15"/>
      <rect x="310.9" width="3" height="61.4" fill="#ffdd15"/>
      <rect x="304.9" width="3" height="50.3" fill="#ffdd15"/>
    </g>
    <g>
      <rect y="75.2" width="1.5" height="39.38" transform="translate(1.5 189.9) rotate(-180)" fill="#231f20"/>
      <rect x="3" y="75.2" width="1.5" height="30.7" transform="translate(7.5 181.2) rotate(-180)" fill="#231f20"/>
      <rect x="6" y="75.2" width="1.5" height="25.15" transform="translate(13.5 175.6) rotate(-180)" fill="#231f20"/>
    </g>
    <g>
      <g>
        <path d="M26.3,15.8a1.1,1.1,0,0,1-.3.7l-3.6,3.6-3.8-2.2V15.7a1.1,1.1,0,0,1,1.1-1.1,1.1,1.1,0,0,1,1.2,1.1h0v2.8l3.5-3.6a1.2,1.2,0,0,1,1.6,0,1.6,1.6,0,0,1,.3.9" fill="#231f20"/>
        <path d="M25.2,26h-.5l-.3-.3-3.5-3.5v2.7A1.1,1.1,0,0,1,19.7,26a1.1,1.1,0,0,1-1.1-1.1V22.8l3.8-2.2L26,24.1a1.1,1.1,0,0,1-.8,1.9" fill="#231f20"/>
        <path d="M22.2,20.3c0-.1,0-.1-.1-.2h0l-.9-.5-2.6-1.5-2.2-1.3h-.3v6.6c0,.2.1.3.2.3h.1l2.2-1.2,3.5-2.1h.1C22.3,20.4,22.3,20.3,22.2,20.3Zm-.8.1h-.1l-2.7,1.6-1.7.9a.2.2,0,0,1-.3,0h0V17.8a.2.2,0,0,1,.2-.2h.1l1.7,1,2.7,1.6c.1,0,.1.1.1.2Z" fill="#231f20"/>
        <path d="M20.6,20.4h0l-2.1,1.1-1.3.8H17V18.4h.2l1.3.7,2.1,1.2h0" fill="#231f20"/>
      </g>
      <g>
        <path d="M44.9,20.2h-.2l-3.1-1.6-1.9-1c-.2,0-.4.1-.4.2v5.2c0,.2.2.3.4.2l1.9-1,3-1.7h.2Zm-.8.1H44l-2.4,1.3-1.5.8a.2.2,0,0,1-.2-.2v-4a.2.2,0,0,1,.2-.2h.1l1.5.8L44,20.1h.1Z" fill="#231f20"/>
        <path d="M43.4,20.3h0l-1.9.9-1.1.6c0,.1-.1,0-.1,0h-.1v-3a.1.1,0,0,1,.1-.1h.1l1.1.5,1.9,1h0" fill="#231f20"/>
        <path d="M28.6,17.6h2.7c1.3,0,2.3.7,2.3,1.8s-.9,1.8-2.3,1.8H29.9V23H28.6Zm2.6,2.6c.6,0,1.1-.3,1.1-.8s-.5-.8-1.1-.8H29.9v1.5Z" fill="#231f20"/>
        <path d="M38.7,22v1.1H34.4V17.7h1.3V22Z" fill="#231f20"/>
        <path d="M46.3,21l-2.5-3.4h1.6l1.5,2.3,1.5-2.4h1.5L47.6,21v2H46.3Z" fill="#231f20"/>
        <path d="M50.7,17.9h.7v3l3-3h.9l-2.5,2.5,2.7,2.9h-.9l-2.3-2.5-.9.9v1.7h-.7Z" fill="#231f20"/>
        <path d="M56,20.5a2.9,2.9,0,0,1,3-2.8,3,3,0,0,1,3.2,2.7,3.1,3.1,0,0,1-6.2.1Zm5.5-.1A2.5,2.5,0,0,0,59,18.2a2.3,2.3,0,1,0,.1,4.5,2.3,2.3,0,0,0,2.4-2.3Z" fill="#231f20"/>
        <path d="M63,22.4l.5-.4a3,3,0,0,0,2,.7c.9,0,1.4-.5,1.4-.9s-.6-.8-1.7-1.1-2-.5-2-1.5.9-1.5,2-1.5a3.4,3.4,0,0,1,2.2.7l-.5.5a2.8,2.8,0,0,0-1.7-.7c-.8,0-1.3.5-1.3,1s.6.7,1.6.9,2,.6,2,1.6-.7,1.6-2.1,1.6A3.4,3.4,0,0,1,63,22.4Z" fill="#231f20"/>
        <path d="M68.8,17.9h.7l2.3,3.8L74,17.8h.7v5.4h-.6V19.1l-2.2,3.8-2.3-3.7v4.1h-.7Z" fill="#231f20"/>
        <path d="M76,20.5a3,3,0,0,1,3.1-2.8,2.9,2.9,0,0,1,3.1,2.7,3.1,3.1,0,0,1-6.2.1Zm5.5-.1a2.3,2.3,0,0,0-2.4-2.2,2.5,2.5,0,0,0-2.4,2.3,2.4,2.4,0,0,0,4.8-.1Z" fill="#231f20"/>
        <path d="M83.1,22.4l.4-.4a3,3,0,0,0,2,.7c.9,0,1.4-.5,1.4-.9s-.6-.8-1.7-1.1-1.9-.5-2-1.5.9-1.5,2-1.5a3.4,3.4,0,0,1,2.2.7l-.4.5a2.9,2.9,0,0,0-1.8-.7,1.2,1.2,0,0,0-1.3,1c0,.5.6.7,1.7.9s2,.6,2,1.6-.7,1.6-2.1,1.6A3.2,3.2,0,0,1,83.1,22.4Z" fill="#231f20"/>
      </g>
    </g>
  </g>
  <g>
    <rect x="60.4" y="35.2" width="210.6" height="43.61" fill="#231f20"/>
    <rect x="62" y="33.6" width="210.6" height="43.61" fill="#fff"/>
  </g>
  <g>
    <rect x="188.7" y="134.2" width="124.8" height="13.93" fill="#ffdd15"/>
    <g>
      <path d="M200.3,141.2a2.2,2.2,0,0,0,.1,1,.5.5,0,0,0,.5.3h.9l.2,1.1a3.2,3.2,0,0,1-1.3.2,1.7,1.7,0,0,1-1.4-.6,3.2,3.2,0,0,1-.4-1.9,3.6,3.6,0,0,1,.4-1.9,1.8,1.8,0,0,1,1.5-.6,2.5,2.5,0,0,1,1.2.2l-.2,1.2-.9-.2a.5.5,0,0,0-.5.3A2.8,2.8,0,0,0,200.3,141.2Z" fill="#231f20"/>
      <path d="M205,143.7h-2.5v-5h1.4v3.9h1.2Z" fill="#231f20"/>
      <path d="M209.1,143.7h-1.3l-.2-.8h-.9l-.2.8h-1.2l.9-5h2Zm-1.6-1.7-.3-1.8h-.1l-.2,1.8Z" fill="#231f20"/>
      <path d="M209.9,139.1a1.5,1.5,0,0,1,1.1-.4h1.5v1.3l-1.1-.2c-.3,0-.4.1-.4.3s.1.1.2.2l.4.3.5.2.5.5a1.9,1.9,0,0,1,.1.8,1.4,1.4,0,0,1-1.5,1.5,3.9,3.9,0,0,1-1.5-.2v-1.2l1.2.3a.3.3,0,0,0,.3-.3.4.4,0,0,0-.1-.3l-.5-.2-.5-.3-.4-.5a1.9,1.9,0,0,1-.2-.8A1.5,1.5,0,0,1,209.9,139.1Z" fill="#231f20"/>
      <path d="M213.5,139.1a1.5,1.5,0,0,1,1.1-.4h1.5l-.2,1.3-1-.2c-.3,0-.4.1-.4.3s.1.1.2.2l.4.3.5.2.4.5a1.1,1.1,0,0,1,.2.8,1.2,1.2,0,0,1-.4,1.1,1.4,1.4,0,0,1-1.1.4,3.9,3.9,0,0,1-1.5-.2v-1.2l1.2.3a.3.3,0,0,0,.3-.3c0-.1,0-.2-.2-.3l-.4-.2-.5-.3-.4-.5a1.1,1.1,0,0,1-.2-.8A1.5,1.5,0,0,1,213.5,139.1Z" fill="#231f20"/>
      <path d="M219.6,143.7h-2.7v-5h2.7V140h-1.3v.7h1.1v1h-1.1v.9h1.3Z" fill="#231f20"/>
      <path d="M220.5,139.1a1.4,1.4,0,0,1,1.1-.4h1.5l-.2,1.3-1-.2c-.3,0-.4.1-.4.3s0,.1.2.2l.4.3.5.2.4.5a1.1,1.1,0,0,1,.2.8,1.2,1.2,0,0,1-.4,1.1,1.4,1.4,0,0,1-1.1.4,3.9,3.9,0,0,1-1.5-.2v-1.2l1.2.3a.3.3,0,0,0,.3-.3c0-.1,0-.2-.2-.3l-.4-.2-.5-.3-.4-.5a1.1,1.1,0,0,1-.2-.8A1.5,1.5,0,0,1,220.5,139.1Z" fill="#231f20"/>
      <path d="M227,141.2a2.2,2.2,0,0,0,.1,1,.5.5,0,0,0,.5.3h.9l.2,1.1a3,3,0,0,1-1.3.2,1.7,1.7,0,0,1-1.4-.6,3.2,3.2,0,0,1-.4-1.9,2.9,2.9,0,0,1,.5-1.9,1.6,1.6,0,0,1,1.4-.6,2.5,2.5,0,0,1,1.2.2l-.2,1.2-.9-.2a.5.5,0,0,0-.5.3A2.8,2.8,0,0,0,227,141.2Z" fill="#231f20"/>
      <path d="M231.7,143.7h-2.5v-5h1.4v3.9h1.2Z" fill="#231f20"/>
      <path d="M235.8,143.7h-1.3l-.2-.8h-.9v.8H232l.9-5h2Zm-1.6-1.7-.3-1.8h0l-.3,1.8Z" fill="#231f20"/>
      <path d="M236.6,139.1a1.6,1.6,0,0,1,1.2-.4h1.4v1.3l-1.1-.2c-.3,0-.4.1-.4.3s.1.1.2.2l.4.3.5.2c.2.2.4.3.5.5a1.9,1.9,0,0,1,.1.8,1.4,1.4,0,0,1-1.5,1.5,3.9,3.9,0,0,1-1.5-.2v-1.2l1.2.3c.2,0,.4-.1.4-.3s-.1-.2-.2-.3l-.5-.2-.5-.3-.4-.5a1.9,1.9,0,0,1-.2-.8A2.1,2.1,0,0,1,236.6,139.1Z" fill="#231f20"/>
      <path d="M240.2,139.1a1.5,1.5,0,0,1,1.1-.4h1.5v1.3l-1.1-.2c-.3,0-.4.1-.4.3s.1.1.2.2l.4.3.5.2.5.5a1.9,1.9,0,0,1,.1.8,1.4,1.4,0,0,1-1.5,1.5,3.9,3.9,0,0,1-1.5-.2v-1.2l1.2.3a.3.3,0,0,0,.3-.3.4.4,0,0,0-.1-.3l-.5-.2-.5-.3-.4-.5a1.9,1.9,0,0,1-.2-.8A1.5,1.5,0,0,1,240.2,139.1Z" fill="#231f20"/>
      <path d="M246.3,143.7h-2.7v-5h2.8V140H245v.7h1.1v1H245v.9h1.4Z" fill="#231f20"/>
      <path d="M247.2,139.1a1.5,1.5,0,0,1,1.1-.4h1.5v1.3l-1.1-.2c-.3,0-.4.1-.4.3s.1.1.2.2l.4.3.5.2.5.5a1.9,1.9,0,0,1,.1.8,1.4,1.4,0,0,1-1.5,1.5,3.9,3.9,0,0,1-1.5-.2v-1.2l1.2.3a.3.3,0,0,0,.3-.3.4.4,0,0,0-.1-.3l-.5-.2-.5-.3-.4-.5a1.9,1.9,0,0,1-.2-.8A1.5,1.5,0,0,1,247.2,139.1Z" fill="#231f20"/>
      <path d="M253.7,141.2a2.2,2.2,0,0,0,.1,1,.5.5,0,0,0,.5.3h.9l.2,1.1a2.7,2.7,0,0,1-1.3.2,1.7,1.7,0,0,1-1.4-.6,4.1,4.1,0,0,1-.4-1.9,3.6,3.6,0,0,1,.5-1.9,1.7,1.7,0,0,1,1.4-.6,2.5,2.5,0,0,1,1.2.2l-.2,1.2-.9-.2a.5.5,0,0,0-.5.3A2.8,2.8,0,0,0,253.7,141.2Z" fill="#231f20"/>
      <path d="M258.4,143.7h-2.5v-5h1.4v3.9h1.2Z" fill="#231f20"/>
      <path d="M262.5,143.7h-1.3v-.8h-1v.8h-1.3l.9-5h2Zm-1.6-1.7-.3-1.8h0l-.3,1.8Z" fill="#231f20"/>
      <path d="M263.3,139.1a1.6,1.6,0,0,1,1.2-.4h1.4v1.3a2.8,2.8,0,0,0-1.1-.2c-.2,0-.4.1-.4.3s.1.1.2.2l.4.3.6.2.4.5a1.9,1.9,0,0,1,.2.8,1.4,1.4,0,0,1-1.6,1.5,3.2,3.2,0,0,1-1.4-.2v-1.2l1.2.3c.3,0,.4-.1.4-.3s-.1-.2-.2-.3l-.4-.2-.6-.3-.4-.5a1.9,1.9,0,0,1-.2-.8A2.1,2.1,0,0,1,263.3,139.1Z" fill="#231f20"/>
      <path d="M266.9,139.1a1.6,1.6,0,0,1,1.2-.4h1.4v1.3l-1.1-.2c-.3,0-.4.1-.4.3s.1.1.2.2l.4.3.5.2.5.5a1.9,1.9,0,0,1,.1.8,1.4,1.4,0,0,1-1.5,1.5,3.9,3.9,0,0,1-1.5-.2v-1.2l1.2.3c.2,0,.4-.1.4-.3s-.1-.2-.2-.3l-.5-.2-.5-.3-.4-.5a1.9,1.9,0,0,1-.2-.8A2.1,2.1,0,0,1,266.9,139.1Z" fill="#231f20"/>
      <path d="M273,143.7h-2.7v-5h2.8V140h-1.3v.7h1.1v1h-1.1v.9h1.4Z" fill="#231f20"/>
      <path d="M273.9,139.1a1.6,1.6,0,0,1,1.2-.4h1.4v1.3l-1.1-.2c-.3,0-.4.1-.4.3s.1.1.2.2l.4.3.5.2.5.5a1.9,1.9,0,0,1,.1.8,1.4,1.4,0,0,1-1.5,1.5,3.9,3.9,0,0,1-1.5-.2v-1.2l1.2.3a.3.3,0,0,0,.3-.3.4.4,0,0,0-.1-.3l-.5-.2-.5-.3-.4-.5a1.9,1.9,0,0,1-.2-.8A1.5,1.5,0,0,1,273.9,139.1Z" fill="#231f20"/>
      <path d="M280.4,141.2a7.7,7.7,0,0,0,.1,1,.5.5,0,0,0,.5.3h.9l.2,1.1a2.7,2.7,0,0,1-1.3.2,1.4,1.4,0,0,1-1.3-.6,3.1,3.1,0,0,1-.5-1.9,3.6,3.6,0,0,1,.5-1.9,1.8,1.8,0,0,1,1.5-.6,2.2,2.2,0,0,1,1.1.2l-.2,1.2-.9-.2a.5.5,0,0,0-.5.3C280.5,140.4,280.4,140.8,280.4,141.2Z" fill="#231f20"/>
      <path d="M285.1,143.7h-2.5v-5H284v3.9h1.2Z" fill="#231f20"/>
      <path d="M289.3,143.7h-1.4v-.8h-1v.8h-1.3l.9-5h2Zm-1.7-1.7-.3-1.8h0L287,142Z" fill="#231f20"/>
      <path d="M290.1,139.1a1.2,1.2,0,0,1,1.1-.4h1.5l-.2,1.3a2.8,2.8,0,0,0-1.1-.2c-.2,0-.4.1-.4.3s.1.1.2.2l.5.3.5.2.4.5a1.9,1.9,0,0,1,.2.8,1.4,1.4,0,0,1-1.6,1.5,3.2,3.2,0,0,1-1.4-.2v-1.2l1.1.3c.3,0,.4-.1.4-.3s-.1-.2-.2-.3l-.4-.2-.5-.3c-.2-.2-.4-.3-.5-.5a1.9,1.9,0,0,1-.2-.8A1.6,1.6,0,0,1,290.1,139.1Z" fill="#231f20"/>
      <path d="M293.6,139.1a1.6,1.6,0,0,1,1.2-.4h1.4v1.3a2.8,2.8,0,0,0-1.1-.2c-.2,0-.4.1-.4.3s.1.1.2.2l.4.3.6.2.4.5a1.9,1.9,0,0,1,.2.8,1.4,1.4,0,0,1-1.6,1.5,3.2,3.2,0,0,1-1.4-.2v-1.2l1.1.3c.3,0,.4-.1.4-.3s-.1-.2-.2-.3l-.4-.2-.6-.3-.4-.5a1.9,1.9,0,0,1-.2-.8A2.1,2.1,0,0,1,293.6,139.1Z" fill="#231f20"/>
      <path d="M299.7,143.7H297v-5h2.8V140h-1.3v.7h1.1v1h-1.1v.9h1.4Z" fill="#231f20"/>
      <path d="M300.6,139.1a1.6,1.6,0,0,1,1.2-.4h1.4v1.3a2.8,2.8,0,0,0-1.1-.2c-.2,0-.4.1-.4.3s.1.1.2.2l.4.3.5.2c.2.2.4.3.5.5a1.9,1.9,0,0,1,.2.8,1.4,1.4,0,0,1-1.6,1.5,3.2,3.2,0,0,1-1.4-.2v-1.2l1.2.3c.2,0,.4-.1.4-.3s-.1-.2-.2-.3l-.5-.2-.5-.3-.4-.5a1.9,1.9,0,0,1-.2-.8A2.1,2.1,0,0,1,300.6,139.1Z" fill="#231f20"/>
    </g>
  </g>
  <g>
    <rect x="188.7" y="163" width="124.8" height="13.93" fill="#ffdd15"/>
    <g>
      <path d="M206,168.7h-1.3v.7h1.1v1.1h-1.1v1.9h-1.4v-4.9h2.8Z" fill="#231f20"/>
      <path d="M208,172.4h-1.3v-4.9H208Z" fill="#231f20"/>
      <path d="M209.2,167.8a1.5,1.5,0,0,1,1.1-.4h1.5l-.2,1.3-1-.2c-.3,0-.4.1-.4.3s0,.2.2.3l.4.2.5.3a1,1,0,0,1,.4.5.8.8,0,0,1,.2.7,1.6,1.6,0,0,1-.4,1.2,1.4,1.4,0,0,1-1.1.4l-1.5-.2v-1.2l1.2.2a.3.3,0,0,0,.3-.3c0-.1,0-.2-.2-.2l-.4-.3-.5-.3a1,1,0,0,1-.4-.5.8.8,0,0,1-.2-.7A1.6,1.6,0,0,1,209.2,167.8Z" fill="#231f20"/>
      <path d="M215.5,168.7h-1v3.7h-1.3v-3.7h-1v-1.2h3.2Z" fill="#231f20"/>
      <path d="M219.5,171c0,.9-.5,1.4-1.5,1.4h-2v-4.9h2a1.8,1.8,0,0,1,1.1.3,1.3,1.3,0,0,1,.3,1,1.1,1.1,0,0,1-.5,1h0A1.2,1.2,0,0,1,219.5,171Zm-1.6-1.5c.1-.1.1-.2.1-.4s0-.3-.1-.4h-.5v1h.5Zm.1,1.9c.1,0,.1-.2.1-.4a.7.7,0,0,0-.1-.5h-.6v1.1h.6Z" fill="#231f20"/>
      <path d="M223.7,172.4h-1.3l-.2-.8h-.9v.8h-1.3l.9-4.9h2Zm-1.6-1.7-.3-1.8h0l-.3,1.8Z" fill="#231f20"/>
      <path d="M226.8,172.4h-2.5v-4.9h1.4v3.8h1.2Z" fill="#231f20"/>
      <path d="M229.9,172.4h-2.5v-4.9h1.4v3.8H230Z" fill="#231f20"/>
      <path d="M235,168.7h-1.3v.7h1.1v1.1h-1.1v1.9h-1.4v-4.9h2.8Z" fill="#231f20"/>
      <path d="M237,172.4h-1.3v-4.9H237Z" fill="#231f20"/>
      <path d="M238.2,167.8a1.4,1.4,0,0,1,1.1-.4h1.5l-.2,1.3-1-.2c-.3,0-.4.1-.4.3s0,.2.2.3l.4.2.5.3a1,1,0,0,1,.4.5.8.8,0,0,1,.2.7,1.6,1.6,0,0,1-.4,1.2,1.4,1.4,0,0,1-1.1.4l-1.5-.2v-1.2l1.2.2a.3.3,0,0,0,.3-.3c0-.1,0-.2-.2-.2l-.4-.3-.5-.3a1,1,0,0,1-.4-.5.8.8,0,0,1-.2-.7A1.6,1.6,0,0,1,238.2,167.8Z" fill="#231f20"/>
      <path d="M244.5,168.7h-1v3.7h-1.3v-3.7h-1v-1.2h3.2Z" fill="#231f20"/>
      <path d="M248.5,171c0,.9-.5,1.4-1.5,1.4h-2v-4.9h1.9a2.1,2.1,0,0,1,1.2.3,1.3,1.3,0,0,1,.3,1,1.4,1.4,0,0,1-.5,1h0A1.2,1.2,0,0,1,248.5,171Zm-1.6-1.5c.1-.1.1-.2.1-.4s0-.3-.1-.4h-.5v1h.5Zm.1,1.9a1,1,0,0,0,.1-.4,4.3,4.3,0,0,0-.1-.5h-.6v1.1h.6Z" fill="#231f20"/>
      <path d="M252.7,172.4h-1.3l-.2-.8h-.9l-.2.8h-1.2l.9-4.9h2Zm-1.6-1.7-.3-1.8h-.1l-.2,1.8Z" fill="#231f20"/>
      <path d="M255.8,172.4h-2.5v-4.9h1.4v3.8h1.2Z" fill="#231f20"/>
      <path d="M258.9,172.4h-2.5v-4.9h1.4v3.8H259Z" fill="#231f20"/>
      <path d="M264,168.7h-1.3v.7h1v1.1h-1v1.9h-1.4v-4.9h2.8Z" fill="#231f20"/>
      <path d="M266,172.4h-1.3v-4.9H266Z" fill="#231f20"/>
      <path d="M267.2,167.8a1.4,1.4,0,0,1,1.1-.4h1.5l-.2,1.3-1.1-.2a.3.3,0,0,0-.3.3c0,.1,0,.2.2.3l.4.2.5.3a1,1,0,0,1,.4.5,1.4,1.4,0,0,1,.2.7,1.6,1.6,0,0,1-.4,1.2,1.5,1.5,0,0,1-1.1.4l-1.5-.2v-1.2l1.2.2a.3.3,0,0,0,.3-.3l-.2-.2-.4-.3-.5-.3-.5-.5a1.5,1.5,0,0,1-.1-.7A1.6,1.6,0,0,1,267.2,167.8Z" fill="#231f20"/>
      <path d="M273.4,168.7h-.9v3.7h-1.3v-3.7h-1v-1.2h3.2Z" fill="#231f20"/>
      <path d="M277.5,171c0,.9-.5,1.4-1.5,1.4h-2v-4.9h1.9a2.1,2.1,0,0,1,1.2.3,1.3,1.3,0,0,1,.3,1,1.4,1.4,0,0,1-.5,1h0A1.2,1.2,0,0,1,277.5,171Zm-1.6-1.5c.1-.1.1-.2.1-.4s0-.3-.1-.4h-.5v1h.5Zm.1,1.9a1,1,0,0,0,.1-.4,4.3,4.3,0,0,0-.1-.5h-.6v1.1h.6Z" fill="#231f20"/>
      <path d="M281.7,172.4h-1.3l-.2-.8h-.9l-.2.8h-1.2l.9-4.9h2Zm-1.6-1.7-.3-1.8h-.1l-.2,1.8Z" fill="#231f20"/>
      <path d="M284.8,172.4h-2.5v-4.9h1.4v3.8h1.2Z" fill="#231f20"/>
      <path d="M287.9,172.4h-2.5v-4.9h1.3v3.8H288Z" fill="#231f20"/>
      <path d="M293,168.7h-1.3v.7h1v1.1h-1v1.9h-1.4v-4.9h2.8Z" fill="#231f20"/>
      <path d="M295,172.4h-1.3v-4.9H295Z" fill="#231f20"/>
      <path d="M296.2,167.8a1.2,1.2,0,0,1,1.1-.4h1.5l-.2,1.3-1.1-.2a.3.3,0,0,0-.3.3.4.4,0,0,0,.1.3l.5.2.5.3a1,1,0,0,1,.4.5,1.4,1.4,0,0,1,.2.7,1.4,1.4,0,0,1-1.6,1.6l-1.4-.2v-1.2l1.2.2a.3.3,0,0,0,.3-.3l-.2-.2-.4-.3-.5-.3-.5-.5a1.5,1.5,0,0,1-.1-.7A1.6,1.6,0,0,1,296.2,167.8Z" fill="#231f20"/>
    </g>
  </g>
  <g>
    <rect x="258.6" y="195.2" width="1.5" height="4.77" fill="#fff"/>
    <rect x="242.2" y="195.2" width="1.5" height="4.77" fill="#fff"/>
    <path d="M260.1,194.1v-2.4H242.2v2.4h2.9v7h-2.9v2.3h17.9v-2.3h-2.8v-7Zm-9,7a3.5,3.5,0,1,1,3.5-3.5A3.5,3.5,0,0,1,251.1,201.1Z" fill="#fff"/>
    <rect x="250.8" y="195.2" width="0.7" height="4.77" fill="#fff"/>
    <circle cx="251.1" cy="197.6" r="1.2" fill="#fff"/>
  </g>
  <g>
    <g>
      <path d="M80.8,303.5a71.5,71.5,0,0,0,47-17.5l-2.8-3A67.6,67.6,0,0,1,22.4,198H17.7A71.7,71.7,0,0,0,80.8,303.5Z" fill="#231f20" opacity="0.3"/>
      <path d="M81.6,160.9A70.5,70.5,0,1,0,152,231.4,70.5,70.5,0,0,0,81.6,160.9Zm0,136.9A66.5,66.5,0,1,1,148,231.4,66.4,66.4,0,0,1,81.6,297.8Z" fill="#231f20"/>
      <circle cx="81.6" cy="231.4" r="63.1" fill="#fff"/>
      <path d="M81.6,174a57.4,57.4,0,1,0,57.3,57.4A57.4,57.4,0,0,0,81.6,174Zm0,112.9a55.6,55.6,0,1,1,55.5-55.5A55.6,55.6,0,0,1,81.6,286.9Z" fill="#ffdd15"/>
    </g>
    <g>
      <path d="M158.1,189.5c-1.1,2.9-3.7,3.8-6.7,3.4a15.4,15.4,0,0,1-7.3-3.4,5.5,5.5,0,0,1-2.1-4.7,3.6,3.6,0,0,1,4.3-3.3,8.2,8.2,0,0,1,2.5,1.2l2.1,1.5a5.8,5.8,0,0,0,3.4.9,3.5,3.5,0,0,1,3.8,2.4Z" fill="#231f20"/>
      <path d="M16.5,167.6a63.3,63.3,0,0,0,5.7-7.1c1.7-2.2,3.5-4.4,6.1-5.7s6.1-1.6,9,.5a8.7,8.7,0,0,1,3.4,7,11.9,11.9,0,0,1-2.8,8,28.3,28.3,0,0,1-4.8,4.3c-2.2,1.7-4.2,3.8-6.5,5.5a15.4,15.4,0,0,1-6.1,2.8,8.4,8.4,0,0,1-6-.8,6.4,6.4,0,0,1-2.7-8,9.5,9.5,0,0,1,2.1-3.6Z" fill="#231f20"/>
      <path d="M147,287.3a7.4,7.4,0,0,1-7.4-7.3,7.4,7.4,0,0,1,14.8,0A7.3,7.3,0,0,1,147,287.3Z" fill="#231f20"/>
      <path d="M128.7,168.9a7,7,0,0,1,7.1-7.1,7.1,7.1,0,1,1,0,14.2A7,7,0,0,1,128.7,168.9Z" fill="#231f20"/>
      <path d="M56.4,309.8c0,3.1-2.1,4.9-5.1,5.5a14.5,14.5,0,0,1-8-.5,5.7,5.7,0,0,1-3.7-3.7,3.5,3.5,0,0,1,2.9-4.5,6.2,6.2,0,0,1,2.7.1l2.6.7a5.6,5.6,0,0,0,3.4-.3,3.3,3.3,0,0,1,4.4.8Z" fill="#231f20"/>
      <path d="M21.6,301a6.9,6.9,0,0,1,4.1-9.1,7.1,7.1,0,0,1,9.1,4.2,7,7,0,0,1-4.1,9A6.8,6.8,0,0,1,21.6,301Z" fill="#231f20"/>
    </g>
  </g>
  <g>
    <circle cx="37.4" cy="97.8" r="4" fill="#231f20"/>
    <circle cx="37.4" cy="120.9" r="4" fill="#231f20"/>
    <circle cx="37.4" cy="143.9" r="4" fill="#231f20"/>
  </g>
  <g>
    <rect x="131.3" y="303.9" width="70.4" height="19.66" fill="#231f20"/>
    <rect x="132.3" y="302.9" width="70.4" height="19.66" fill="#fff"/>
  </g>
</svg>
