<svg xmlns="http://www.w3.org/2000/svg" width="335" height="335" data-name="Layer 1"><defs><linearGradient id="a" x1="167.2" x2="166.6" y1="53.4" y2="330.2" gradientUnits="userSpaceOnUse"><stop offset="0" stop-color="#0071bc"/><stop offset=".7" stop-color="#009245"/><stop offset=".8" stop-color="#006837"/><stop offset="1" stop-color="#006837"/></linearGradient></defs><path fill="url(#a)" d="M-.6 1.5h335.1v333.2H-.6z"/><g opacity=".3"><path fill="#626160" d="M76.5 208.1v.2l.3.3 2.9.2.6-.2c.5-.1.8.2.7.7l-.2.6c.3.4 1 .3 1.1 1 .4-.2.5 0 .6.4l.3.3.9.3c1 .4 1.3 1 .9 2L84 215c-.5.9-.8 1.7-.4 2.6.4.8.8 1 1.7 1l7.3.1h1.6c.5 0 1 0 1.4.3h.3l4.8-.4a60 60 0 0 1 7.5-4.6c1-.5 1.9-1.1 2.8-1.8.6-.4 1-1 1.5-1.5l.5-.5c.6-.5 1.1-.5 1.7 0l.1.2h.1c0-.7.2-1.3.3-1.9l1.1-4.5v-.3c0-.2.1-.5.3-.7l.4-.3.2.4v.3c.2-.2.4-.4.6-.4l.5.3v.1c.2-.1.5-.3.7 0 .3.2 0 .5 0 .8l-.1.3-.4.6-.2.3c-.5.6-.7 1.3-.7 2.2l.8-.5c.3-.1.6-.3 1-.3l.4.2v.5l-1 .9c-.2.2-.4.4-.4.7l-.2 1.5c-.1.6-.4 1.1-.9 1.5.2.5.2.6-.2.9l-.7.7c-.4.6-.9 1-1.6 1.3-.2 0-.3.2-.4.3l-7.3 7.1c-1.2 1.1-2.4 2.1-4.1 2.3l-3.3.4-3.7.3-.5 1.3-.2.3c-.5.3-.4.6-.3 1 .2.7.4 1.3.8 1.9.3.4.3 1 .4 1.5.1.8.3 1.6.8 2.3a13 13 0 0 1 2 4.9c0 .3.2.7.5 1 .3.4.5.9.5 1.5 0 .3 0 .4.4.5h.1c1.2.6 1.3 1.1.5 2.1-.4.5-.3 1 0 1.5.4.6.4 1.3 0 2-.3.6-.2 1.3-.1 1.9l.8 5.1v2.5a42 42 0 0 0 4.2 11.2c.5.9.5 1.8-.2 2.6l-1.3 1.4c-.2.2-.2.3-.1.5 1.3 4.2 1.9 8.4 1.8 12.8l-.3 2.7c0 .3 0 .5.2.8l.2.7a5.5 5.5 0 0 1-2.3 4.4c-1.3 1-2.6 2.1-4.2 2.7-.5.2-.9.4-1.4 0-.1-.1-.4-.2-.6 0-1.9 2.4-4.3 4.1-6.7 5.9l-3 2.1-.2.3-.4.8-1.9 2-2.3 2.6-1.7 1.5-.1.3c0 1.4-.8 2.4-1.9 3.2l-2.6 1.7a7.4 7.4 0 0 0-2.7 3.1l-.9 1.8-.7.7c-.6.5-1.2.5-1.9 0-1.3-.8-2-2.1-2.5-3.5a19 19 0 0 1-.6-8.2l.1-.9-.1-1-.8-2-.1-.5c-.1-.7 0-1.3.4-1.8.6-.6 1.4-1 2.2-1.1l3.5-.3c.3 0 .6 0 .8-.3l.9-1.3 1.8-2.9.1-.3c0-.4.3-.7.7-.8l.3-.1.6-1 1.6-4c.8-2.1 1.9-4 4.1-4.9l.2-.2c0-.4.4-.6.8-.8l1.6-1.2.1-.3.4-1.1.1-.5.3-.6c.4 0 .5-.4.5-.7l.5-2.9h-.5c-1 0-1.2-.1-1-1.1.2-1.2.5-2.4.5-3.6l-.1-6.3c0-.6-.2-1.1-.8-1.3l-.8-.6a5.8 5.8 0 0 1-2.3-4.4c-.1-2.4.1-4.7.6-7 .1-.6-.2-1.1-.2-1.6l-.2-.2c-.4-.2-.6-.5-.6-.9v-2.1c0-1.6-.4-3.1-1.4-4.3-1.1-1.4-2-2.9-2.8-4.4-.8-1.5-1.2-3.2-2.2-4.7-.4-.7-.7-1.4-1.4-2l-2.4-1.8c-.3-.2-.5-.3-.5-.8l-.5.1c-.4.1-.9 0-1.2-.2l-2.2-1.8-.6-.4-.7-.8-.3-.4c-3-2-5.5-4.6-8.2-6.9a2 2 0 0 1-.6-1.5v-.9c-.1-.4 0-.8.2-1.1l.5-.8.3-.9.2-.5.5-1 .2-.5 4.4-6.5 3.4-4.9c.4-.5.5-1 .5-1.6v-2.2c0-.3.1-.6.3-.8l.9-1c.6-.6 1.3-.9 2.1-.5h.7c.3 0 .6 0 .7.4l.3.2c.3.1.6.3.6.6l.2.1c.6.4.8.8.6 1.5v.2c-.2.6-.4 1.1-.2 1.8.2.8-.3 1.4-1.1 1.8l-2 .6c.2.4 0 .7-.2 1l-1 2 2.8-2.4c.3-.3.7-.6 1.2-.3.6.3 1.1.7 1.1 1.5v1c0 .2 0 .3.3.3h.5c.4 0 .7.2.8.5Zm-9.3 3.8v-.2l.1-.2c1-2.2 1.9-4.4 3.1-6.5v-.4l-.6-.6c-.5-.6-1.2-.7-1.9-.8l-.3.2-5.8 8.3-2.1 3.1-1.4 2.5-.6 1.1-.1.8v.7c0 .6.2 1.1.6 1.5l4.3 3.8 4.3 3.3.8.2a4 4 0 0 0 1.5-.6c.6-.3 1-.7 1.2-1.4l.2-.6v-2.9c0-.7-.3-1.4-.9-1.9l-1.9-1.3c-1.2-.8-2.5-1.3-3.9-1.6 0 0-.2 0-.3-.2.5-.1.7-.5.8-.8l.7-1.2h.1l1.8-4.3v-.2Zm49.3-6.6c.5-.5 1.1-.9 1.1-1.7-.5.5-.9 1-1.1 1.7Zm-.8 6.2c.7.6 1 .5 1.5-.4l.2-.4.2-1.2c0-.6.2-1.2.8-1.5l.7-.6.2-.3h-.6a3 3 0 0 1-.7.5l-.8.4v-.9c.1-.9.5-1.6 1-2.3l.6-.9h-.1l-.3.1a16 16 0 0 0-2.5 3.3l-.3.8-.4 2.2c-.1.5 0 .9.5 1.1l.2.1Zm-46.4-11.2.9-.2-.3-1.8v-.4h.2l.6 2.9c.5-1 .6-2 .5-3 0-.3-.2-.4-.5-.4a2 2 0 0 0-1.7.9l-.5.6c-.3.2-.3.4-.3.7v3.1c.9.4 1.7.7 2.4 1.3l.3.1c.7-.2 1.4-.3 2-.6.7-.3.9-.7.8-1.4v-.3c-.8.3-1 .3-1.1-.4-.3 0-.3.2-.3.5v.9l-.4-1.4c-.4.3-.5.3-.9-.2-.2.1-.4.2-.6 0-.3-.5-.4-.5-.9-.4h-.4l.3-.3Zm8.9 98.8-.8-.8c-.2-.2-.4-.3-.6-.2-.3.2-.3.4-.2.7.2.4 0 .3-.2.3l-2 3.7 1.2.6 1.5.9c.5.3 1.1.2 1.5-.2l2.6-2.9-2.9-2Zm13-19.6-.9.2-2.1.5-.2.2-.3 2.1c0 .3 0 .5.3.7 1 .9 2.1 1.4 3.4 1.7a7 7 0 0 0 3.5-.1l-.8-2.1-1-2.6c-.3-.8-.4-.8-1.2-.7l-.6.1ZM78 298.4c.9.9 2 1.6 3.1 2.2h.6l1.1-.5.4-.3 1-1.8 2.6-5.2-1.1-1.4-2.2-3.6-1.6 1.1a8.3 8.3 0 0 0-2.4 3.9c-.6 1.4-1.1 2.9-1.8 4.3-.3.7-.4.7.2 1.3Zm-1.3 11.3c.2 1.1.8 2 1.5 2.8l.4.2c.6-.2 1.3-.3 1.8-.7 1.2-1 2.2-2.1 3.3-3.2 1.1-1.1 1.9-2.4 3.1-3.3l.2-.4-.8-.6-2.6-2.8-.6-1-.3-.2c-.3.1-.7.3-.8.5a24 24 0 0 1-3 4.1l-.1.3-.4 1.1L77 309l-.2.8Zm8.8-55.8c-.6.5-.9 1.1-1.1 1.8-.8 2-1 4-.9 6.1 0 1.1.3 2.1 1 3 .9 1.2 1.9 2.2 3.5 2.4l.5.1c.5.1.5.2.3.7l-.2 1.3c.2.9.4 1.7.8 2.6.4 1.2.9 2.4 1.5 3.5.2.3.3.8.9.7l2.7-.5c2.2-.5 4.4-1.1 6.5-2.1a11 11 0 0 0 3.4-2.6c1.1-1 1.2-1.6.5-2.9a43.4 43.4 0 0 1-3-7l-.9-2.9h-.4l.2-1.9c0-1.5-.3-2.9-.5-4.3 0-.6-.2-1.1-.3-1.7 0-.5 0-1.1-.2-1.6s0-1 .1-1.5c.4-.3.4-.7.3-1.1l-.5-1.1-2 1.7-2.3 1.4c-2.5 1.3-5 2.5-7.4 4l-2.5 1.8Zm15.8 20.1-1.3.5-5.8 2.6c-.5.2-.7.6-.7 1.2 0 2 .7 3.8 1.5 5.6.2.5.5.8 1 .6h.3l5.3.4 3.5.9v-3c-.1-2.7-.6-5.4-1.2-8.1-.2-.7-.6-1-1.3-1l-1.2.3Zm-5.2 18.6c-.2-1-.7-1.8-1.4-2.5-.5-.5-1.1-.9-1.8-1-.6-.1-1.1-.1-1.6.3l-2.8 2.6c-1.2 1-2 2.3-2.7 3.8-.7 1.5-1.6 2.9-2.4 4.4-.2.3-.2.6 0 .8l1.7 1.9 1.3 1.4c.3.4.5.4.9.1l4.6-3.4c1.7-1.2 3.2-2.5 4.6-4.1.8-.9.8-.9.4-2l-.8-2.3Zm-26.2-73.1c2.2.6 4.3.9 6.7.3l-.9-1.6c-.5-.8-.5-.8.1-1.5v-.1c-.7.2-1.1-.2-1.4-.7l-.5-1.1c-.1-.4 0-.9.5-1.1l1-.3-1.3-1.1c-.1-.1-.3-.3-.3-.5 0-.6-.2-1-.7-1.3-.3-.2-.4-.4-.3-.8l.6-1.6.5-1.7.1-.3.3.2c0-.6-.4-1-.9-1.2H73c-2 1.3-3.7 2.9-4.7 5.1-.7 1.7-1.6 3.3-1.9 5.1v1.6c0 .2.3.4.5.5.3.2.5.1.8.5.5.7 1.3 1.2 2.1 1.4Zm13.5-4.3-.4.3-1.7 1.2c-.4.3-.8.3-1.3.1-.2-.1-.4-.3-.3-.4.4 0 .8.2 1.1.1a9.7 9.7 0 0 0 3.5-2.8c.4-.5.2-1-.4-1.3l-1.2-.5c-.3-.1-.5-.4-.7-.6h-.5v-.2c.2-.4 0-.6-.4-.8-.7-.4-.6-.4-.4-1.1v-.5h-.5l-.6.2-2.4-.1c-.3 0-.7-.1-.9-.5-.1-.4-.4-.6-.8-.6h-.6l-.7-.1-.2.1-.7 1.5c-.2.6-.2.7.3 1.1.4.3.6.7.5 1.2v.3c.5.5 1 1 1.8 1.2l.5.3c0 .3-.3.4-.6.5h-.5c-.4 0-.8 0-.9.3-.1.2 0 .6 0 .8 0 .3.2.5.4.7.3.5.7.6 1.2.2l.6-.4c.2-.1.4-.2.7.1l.2-.4.2-.3.2.3c0 .4-.3.7-.8.7h-.4c0 .5-.5.7-.8 1-.2.2-.2.3 0 .6l1.4 2.7v.6l.2.1 2.9.5h2.7c.4 0 .9 0 1.3-.2.5-.1.6-.3.4-.7l-1.2-2.8c-.3-.7-.4-1.3-.1-2l.2-.6Zm-2.9 97.2-1.4.5-1-.1a5.3 5.3 0 0 1-1.7-3.1l.1-.6 1.1-2 .8-1.3c.2-.4 0-.5-.3-.7l-1.7-.8-1.7-1c-.5-.3-.8-.3-1.1.2l-2.1 3c-.5.6-.4 1.3-.1 2 .4 1 .6 1.9.6 3l-.2.8h-.1v-1.6l-.8-2.8c-.2.6-.4 1-.2 1.6.3.9.4 1.8.3 2.7-.2 1.3-.8 2.4-1.4 3.6l-1 2.7-.1 1.2h.1l1.9-4.2h.2l-.3 1-1.4 3.2c-.2.5-.2.9.1 1.3l1.5 1.5c.5.4.9.3 1.4 0 .6-.4.9-.9 1.2-1.5.3-.6.5-1.3.9-1.9a6.2 6.2 0 0 1 2.8-2.5c1-.6 2.1-1.2 2.9-2.1.4-.5.8-1.1.8-1.8Zm33.3-102h-.5l-.6.6-.9 1.1a57 57 0 0 1-4.1 2.6 42.5 42.5 0 0 0-6.3 4.1h-.3c-1 0-2.1 0-3.1.2l-1.8.2c-.2 0-.4 0-.3.4v2.6c0 1-.2 1.9-.3 2.9l1.3-.2 4.7-.5c1.8-.1 3.2-.9 4.4-2.1l4-3.9 3.7-3.6.4-.3 1.1-.8 1.1-1.1.1-.2a6 6 0 0 1-2.4-1.8l-.3-.2Zm-37.9 24.9v-.1l-.3-1.3h.1l.1.3 2 5.3c.8 1.9 1.8 3.7 3 5.4.8 1.1 1.9 2.1 1.8 3.7v3.1c0 .9.4 1.2 1.2 1h.2c1.8-.7 3.4-1.6 5-2.7h.1c2.5-1.7 5.1-3.2 8-4.3 1-.4 2-1 2.7-1.9l.6-1-.5-.3a.8.8 0 0 1-.5-.2c-.7-.2-.7-.2-.7-.9v-.2c.2-.7-.2-1.2-.8-1.7-.2-.1-.5-.3 0-.5v-.3l-.7-2.4a101 101 0 0 0-2.7-4.8h.1l.6.6-.2-1.5-.3-.6-.7-1.5c-.2-.6-.3-1.3-.6-1.8l-1.7-3.5h.1l1 1 1.1 1.3.4.3.2-.4c.4-1.6.3-3.2.3-4.9l-1.7.2-5.4-.4c-.9 0-1.8 0-2.8.2.5.5.9 1.1.4 1.7-.3.4-.8.5-1.2.4l.7-.4c.5-.3.6-.9 0-1.2 0 .6-.2.9-.9 1l-1.8.2a23 23 0 0 1-5.2-.6c-.4 0-.6-.2-.6-.7-.5.4-.5.4-.2.9l.2.2.1.3H76l-.3-.3-.3-.1c-1.5.4-3 .3-4.5-.2h-.8c.7 1.9.7 3.8.6 5.7-.2.7-.7 1-1.2 1.4l-2 1.5 2.3 1.8c.3.3.7.3 1.1.2l.4-.1c.2 0 .4.1.5.3.1.4.4.6.7.8 1 .7 2.1 1.4 2.9 2.4Zm19.1 54c0 .2.2.2.2.3l1.1 1.7 1 2.8c.3.7.3 1.4.9 1.9.3.2.5.3.7.2l1.3-.6 2.7-1.9a5.4 5.4 0 0 0 2.4-3.8c0-.3.3-.7 0-1.1v.2c-.2 1-.8 1.7-1.5 2.4l-.3.1v-.3c.5-.7 1.1-1.5 1.3-2.4l.3-2c0-.4.1-.8-.4-.9a13 13 0 0 0-3.4-.8l-2.5-.2h-1.5c-.9.2-1.7.6-2.4 1.2-.2.2-.3.3-.2.6.1.3 0 .5-.4.5-.6 0-.9.3-1.2.8 1.2.3 2.2.8 2.9 1.8l.9 1.3v.3l-.3-.1-.3-.4a5 5 0 0 0-1.3-1.6Zm-27.5 19.1v.3c.5 0 .3.3.3.5l-.3 4 .2 3.8c0 .6.2 1.1.4 1.7l.2-.4c.3-1.5 1.1-2.8 1.7-4.2a6 6 0 0 0 .6-3.2c-.3-1.3-.4-2.5-.5-3.8 0-1.1-.6-2.1-1.5-2.7l-.4-.1c-.7.2-1.4.9-1.5 1.7 0 .8.4 1.5.6 2.1l1.1-.7 1-.2.3.1-.3.2c-.7.1-1.4.2-1.8.8h-.2Zm25.8-22.9c-.9-.2-1.9-.3-2.8-.6-.6-.2-1.1-.2-1.5.2-.4.4-.9.8-1.1 1.3-.2.3-.2.8-.2 1.2 0 .5-.4.8-1 .7l-.5-.1c-.4 0-.8.1-.8.5l.1 1.1 1 1.6c.1.2.3.3.5.2l1.5-1 1.8-1.7c.2-.2.5-.4.5-.9 0-.1 0-.3.2-.3 1-.6 1.6-1.6 2.3-2.4Zm-5.8-16.4h-.2c0 .1-.1.3 0 .4v6.3c0 .8-.3 1.7-.4 2.5 0 .8-.1.7.7.7l4.5-1.1.2-.3v-.4c0-.7-.1-.7-.8-.7-.5 0-.9-.2-1-.7l-2-4.7a20 20 0 0 0-1-2.1Zm-3-50.2.4.8c0 .2.2.2.5.2 1.5-.4 3-.2 4.5 0l3.7.3 1.6-.2c-.2-.9-.2-.9-1-.8H89.8l-3.4-.1h-1.8Zm-19.9-.6c1.3.2 2.5.8 3.6 1.5.1 0 .3.2.4.1.3 0 .5-.2.8-.3h-.1c-.7-.4-1.4-.8-1.9-1.5l-.2-.1c-.8-.2-1.1-.6-1.1-1.3v-1.1l-1.5 2.8Zm8.2 85.4-4 .3c.8.6 1.2 1.4 1.5 2.3l2.5-2.6Zm3.4-83h-2.1c0 .4-.4.2-.5.1l-1.4-.4-2.1-.3.6.8h1.2c1.1.3 2.3.4 3.4.2.4 0 .9 0 1-.6Zm11.2 71.9 1.1-1.1 2.5-2.4c.3-.2.6-.4.6-.9 0-.2.2-.3.3-.5.6-.6 1.3-1 1.7-1.8.1-.3.4-.5.6-.7-.3 0-.5.3-.7.5l-2 2.1c-.2.2-.5.4-.5.8 0 .2-.2.3-.3.5l-2.1 2-1.4.8-.3.1.4.5ZM71.6 201h.2l.2-.3c.4-.8.6-1.7.6-2.6 0-.7-.2-.8-.7-.6l-.2 2.5v1.1Zm1.3-3-.6 2.6v.5l.3-.3c.4-.6.7-1.3.7-2.1 0-.4-.1-.7-.5-.8Zm.8.9c0 .9-.7 1.7-.4 2.7l.4-.3.6-1.2c.2-.7.2-.8-.5-1.2Zm42.5 6.4c.3-.6.9-1.1.5-1.9l-.5 1.9ZM94.3 289c-.4-.3-.8-.6-1.3-.6l1.4.6Zm-19.7-82.4q-.2.7 0 .9v-.9Zm20.1 82.7-.2-.2v.2ZM76 213.5h-.1Z"/><path fill="#fdfdfd" d="m76.8 208.6-.2-.3 2.6-.8h.5l-2.8 1.1Z"/><path fill="red" d="M99.9 243.8c-.7.9-1.6 1.5-2.7 1.9a38.4 38.4 0 0 0-8 4.3h-.1v-.3c.2-.8.4-1.7.3-2.5a4 4 0 0 0-1.8-3.2l-2.9-1.7c-2-1.1-3.6-2.7-4.8-4.6-1.2-2-1.8-4.1-2.1-6.4 0-.7-.3-1.4-.6-2-.6-1.1-1.8-1.4-3-1.6l-3-.6c0-1.9 0-3.8-.6-5.7h.8c1.5.5 3 .5 4.5.2l.3.1.3.3h.4l-.1-.3-.2-.2c-.3-.4-.3-.5.2-.9 0 .5.2.6.6.7 1.7.3 3.4.6 5.2.6l1.8-.2c.7-.1.8-.4.9-1 .5.4.5.9 0 1.2l-.7.4c.4.2 1 0 1.2-.4.5-.7.1-1.2-.4-1.7 1-.2 1.8-.3 2.8-.2l5.4.4 1.7-.2c0 1.6.1 3.3-.3 4.9l-.2.4-.4-.3-1.1-1.3-1-1h-.1c0 .1-.2.3-.1.4l.5 1.3a41 41 0 0 1 2 5.9c-.4.2-.4.3-.1.7l1.7 2.7c.7 1.2 1.1 2.6 1.5 4 .2.6.2.6-.3.9l1 1.2.3.6.3 1.6c0 .2.2.4.3.4.4 0 .5.3.6.7 0 .2 0 .4.3.4ZM82.3 227h.3c1.3 0 2.6-.1 3.9.1l1.5.2.5-.1c-1.2-.7-5.6-.9-6.2-.3Zm8.6 19.4h.3l1.1-.5a7.7 7.7 0 0 0 2.7-3c0-.2.3-.4 0-.7a8.4 8.4 0 0 1-4.1 4.2Zm-5.5-23.3v-.2c-1.4.9-2.8.5-4.1.5v.1h.1c.9.3 1.8.3 2.7.2l.9-.3c.2 0 .3-.3.4-.4Zm-12.5 2.3h-.1l1.9 1.8c0-.5-.9-1.4-1.8-1.8Zm21 17.5h-.2l-1.1 1.5h.2l1.1-1.5Zm-20.2-17.6 1.2 1.1c-.1-.6-.8-1.2-1.2-1.1Zm11.9 2.1v.2l1 .2v-.2l-1-.2ZM85.5 253.8c.8-.6 1.6-1.3 2.5-1.8 2.4-1.5 4.9-2.8 7.4-4l2.3-1.4 2-1.7.5 1.1c.1.4 0 .8-.3 1.1-.5-.2-.4.2-.4.5v1.6l.4 3.1c.3 1.5.6 3 .4 4.6v1.1c0 .2 0 .3.2.2v.4l1.3 4.1 1.8 5.3c.3 1 .7 2 .6 3a11 11 0 0 1-3.4 2.6c-2 1.1-4.2 1.7-6.5 2.1-.5-.4-1-.8-1.3-1.3-1-1.4-1.6-3-2-4.6-.3-1-.3-2 .6-2.9.3-.2.2-.6 0-.8l-.8-.4c-.6-.1-1.3 0-1.9-.3-1.8-.6-3-1.7-3.6-3.5-.6-2-.4-4-.1-6 0-.7.2-1.3.4-2Zm5.8-2.5c-.4-.4-.5-.5-1-.2-.4.2-.2.5-.1.8l-1.2.6v.2l1.3-.4.3 1.6a51.5 51.5 0 0 0 2.7 8.1l.3-.3c.6-.2.4-.6.3-1l-1-3.5-1-3.5-.4-1.8 3.8-2.3 1.5-1.1.1-.3h-.4l-.2.1a27.2 27.2 0 0 1-5.1 3.2Zm3.9 12.8c1.1-.2 2.2-.3 3.3-.1h.6c-.6-.7-4.6-.2-5.1.4h.4v.4c.2 1.3.7 2.5 1.3 3.7l1.7 4c.2.5.6.7 1.1.3l-.2-.4-2.3-5.6c-.3-.8-.4-1.8-.6-2.7Zm.1-.8h2.5c-.4-.4-1.7-.3-2.5 0Zm-.1-13.3h-.1c-.6 0-.9.6-1.3 1v.1h.2l.7-.6.5-.5Z"/><path fill="#c1272d" d="m71.1 227.1 3 .6c1.2.2 2.3.5 3 1.6.3.6.6 1.3.6 2 .3 2.3.8 4.5 2.1 6.4 1.2 1.9 2.8 3.5 4.8 4.6l2.9 1.7a4 4 0 0 1 1.8 3.2c0 .9 0 1.7-.3 2.5v.3a30 30 0 0 1-5 2.7h-.2c-.8.2-1.2-.1-1.2-1 0-1-.2-2.1 0-3.1 0-1.6-1-2.6-1.8-3.7a24 24 0 0 1-3-5.4 83 83 0 0 1-2-5.3l-.1-.3h-.1l.3 1.3c-.8-1-1.9-1.6-2.9-2.3l-.7-.8-.5-.3-.4.1c-.4.1-.7 0-1.1-.2l-2.3-1.8 2-1.5c.5-.4 1-.7 1.2-1.4Zm13.1 23.5 3.3-1.6c-.7-.2-2.9.9-3.3 1.6Zm-8.9-18c.1-.7-1.1-2-1.6-1.9l1.6 1.9Zm-1.1-2.4 1 1.1c0-.5-.5-1-1-1.1Z"/><path fill="#0071bc" d="M113.7 210.4c.1 0 .2 0 .3.2.7.8 1.5 1.4 2.4 1.8l-.1.2-1.1 1.1-1.1.8-.4.3-3.7 3.6-4 3.9a6.6 6.6 0 0 1-4.4 2.1 67.7 67.7 0 0 0-6 .7c0-1 .2-2 .3-2.9v-2.6h.4l3.9-.3c.6 0 1.1 0 1.7-.2l.2-.2v-.3l.9-.6 3.7-2.1 3.1-2.2c1.5-.9 2.9-2 4-3.4ZM70.5 226.9c-.2.7-.6 1.1-1.2 1.4l-1.5.6c-.2 0-.6 0-.8-.2l-4.3-3.3-4.3-3.8c-.5-.4-.7-.9-.6-1.5v-.7l.1-.8.6-1.1 1.4-2.5 2.1-3.1 5.8-8.3.3-.2c.7 0 1.4.2 1.9.8l-1.4 1.9-3.2 4.4c-1.1 1.6-2.3 3.3-3.3 5-.5.8-.6 1.8-.5 2.7a7.4 7.4 0 0 0 2.5 4l3.2 2.8c1 .8 2 1.5 3.2 2Z"/><path fill="#29abe2" d="M94.8 289.4c.6.4 1 1 1.3 1.6l.3.4.3.1v-.3c-.3-.4-.5-.9-.9-1.3a5.2 5.2 0 0 0-2.9-1.8c.3-.4.7-.8 1.2-.8.4 0 .5-.2.4-.5 0-.3 0-.4.2-.6.7-.6 1.5-1.1 2.4-1.2h1.5l2.5.2c1.2.1 2.3.5 3.4.8.5.2.4.6.4.9l-.3 2c-.2.9-.8 1.6-1.3 2.4v.3l.3-.1c.6-.7 1.3-1.4 1.5-2.4v-.2c.3.4.1.7 0 1.1a5.4 5.4 0 0 1-2.4 3.8l-2.7 1.9c-.4.3-.8.4-1.3.6-.3 0-.5 0-.7-.2-.6-.5-.6-1.3-.9-1.9l-1-2.8a10 10 0 0 0-1.1-1.7l-.2-.3Zm1.9-4.1c1.5.3 3 .6 4.6.7v-.2c-1.5-.3-3-.4-4.6-.4Zm1.5 10.5h.3l2-1.6v-.2h-.2l-.2.2-1.7 1.4-.2.2Zm-1.4-3.9c.3.7.3 1.5.8 2.2.1-.6-.4-2-.8-2.2ZM76.2 309.7a6 6 0 0 0 1.7 3.1c.2.2.7.2 1 .1l1.4-.5c0 .7-.3 1.3-.8 1.8-.8.9-1.8 1.5-2.9 2.1-1.1.7-2.2 1.4-2.8 2.5l-.9 1.9c-.3.6-.6 1.1-1.2 1.5-.5.3-.9.4-1.4 0l-1.5-1.5c-.4-.4-.3-.8-.1-1.3l1.4-3.2.3-.9h-.2c-.7 1.3-1.3 2.7-1.9 4.2h-.1l.1-1.2 1-2.7c.5-1.2 1.1-2.3 1.4-3.6l.6-.3v.4h.1l.2-.8.9-.8c.8-.7 1.6-1.3 2.8-1 0 .7.1 1.3.6 1.8l-.2-1.7h.5Zm0 1.9c-.1.3.3 1.2.7 1.4-.1-.6-.4-1-.7-1.4Z"/><path fill="#fdd8ba" d="M76.5 213.5c-.2 0-.3-.2-.5-.3l-.2-.2-1-.9c-.8-1-.6-2-.2-3.1l.3-1h.6c.4 0 .7.2.8.6.1.4.5.5.9.5l2.4.1.6-.2h.5v.5c-.3.7-.3.7.4 1.1.3.2.6.3.4.8v.2h.5l.7.6 1.2.5c.6.3.8.8.4 1.3-1 1.2-2.1 2.1-3.5 2.8-.3.1-.7 0-1.1-.1-.1.2 0 .3.3.4.4.2.9.1 1.3-.1a25 25 0 0 0 1.7-1.2l.4-.3-.2.6c-.3.7-.2 1.3.1 2 .5.9.9 1.9 1.2 2.8.2.5.1.6-.4.7l-1.3.2-.4-.2-2.7-1.5v-.1a3 3 0 0 0-1.2-1.8l1 1.6h-.3l-1-.8c-.4-.4-.9-.7-1.1-1.3-.1-.4 0-.7.4-1l.7-.4c.4-.3.6-1 .2-1.4-.5-.6-1.2-.9-1.9-1.2Zm1.4-1.3c.6 0 1-.4 1.2-.8v-.5c-.1-.1-.4-.2-.5-.1l-.9.5c-.1.1-.2.4-.1.6 0 .2.3.2.5.4Zm-.9-2.4-.2.2.6.5.3-.2c0-.2-.3-.4-.7-.4Zm-.5 0c-.4.1-.3.4-.3.6l.2.4h.1v-1Z"/><path fill="#29abe2" d="M70.5 226.9c-1.2-.5-2.3-1.2-3.2-2l-3.2-2.8c-1.1-1.1-2.2-2.3-2.5-4-.2-1 0-1.9.5-2.7l3.3-5 3.2-4.4 1.4-1.9.6.6-.4.5a23 23 0 0 0-2.4 5l-.5 1.6v.4l-1.9 4.1h-.1l-1 1.4h.3c-.1.4-.3.7-.8.8l.3.2c1.4.3 2.7.8 3.9 1.6l1.9 1.3c.6.5.8 1.2.9 1.9v2.9l-.2.6Z"/><path fill="#ce7e6a" d="M73.5 205.1c.5.2.9.6.9 1.2l-.3-.2-.1.3-.5 1.7-.6 1.6c-.1.4 0 .6.3.8.5.3.7.7.7 1.3l.3.5 1.3 1.1-1 .3c-.4.2-.6.6-.5 1.1l.5 1.1c.3.5.7.8 1.4.7v.1c-.6.7-.6.7-.1 1.5l.9 1.6c-2.3.7-4.5.3-6.7-.3-.7-.8-1-1.7-.9-2.8l-.2-.9-.5-1.1c-.3-1 0-2 .5-2.8 1-1.7 2.2-3.3 3.3-4.9l1.5-1.9Z"/><path fill="#e7b999" d="M85.1 302.8a29 29 0 0 1-1.7-1.9c-.2-.3-.2-.5 0-.8.8-1.4 1.7-2.9 2.4-4.4.7-1.4 1.5-2.7 2.7-3.8l2.8-2.6c.5-.4 1-.4 1.6-.3.7.1 1.3.5 1.8 1 .7.7 1.1 1.6 1.4 2.5l-.3.1-2.1 1.2c-2 1.3-3.8 2.8-5.3 4.6a22 22 0 0 0-3.1 4.4ZM101.6 284.9l-5.3-.4H96c-.6.2-.8-.1-1-.6-.8-1.8-1.4-3.6-1.5-5.6 0-.6.2-.9.7-1.2l5.8-2.6 1.3-.5-.5 1.2a10 10 0 0 0 0 5.4l.9 4.4Zm-5-1.6-.9-1.4c0 .6.3 1.3.9 1.4Z"/><path fill="#fdd8ba" d="M85.1 302.8c.9-1.6 2-3 3.1-4.4 1.6-1.8 3.4-3.3 5.3-4.6l2.1-1.2.3-.1.8 2.3c.4 1.1.4 1.1-.4 2-1.4 1.6-3 2.9-4.6 4.1l-4.6 3.4c-.4.3-.6.2-.9-.1l-1.3-1.4Z"/><path fill="#c1272d" d="m85.5 253.9-.4 2c-.2 2-.5 4 .1 6a5 5 0 0 0 3.6 3.5c.6.2 1.3.2 1.9.3.3 0 .6.2.8.4.3.2.3.6 0 .8-.9.8-.9 1.8-.6 2.9.5 1.6 1 3.2 2 4.6l1.3 1.3-2.7.5c-.5 0-.7-.4-.9-.7l-1.5-3.5-.8-2.6c0-.4 0-.9.2-1.3.1-.4.1-.5-.3-.7l-.5-.1c-1.6-.2-2.6-1.3-3.5-2.4-.7-.9-1-1.9-1-3 0-2.1.1-4.1.9-6.1.3-.7.6-1.3 1.1-1.8Z"/><path fill="#fdfdfd" d="M83.5 301.6a66.4 66.4 0 0 1 3.4 3.4s0 .3-.2.4c-1.3.9-2.1 2.3-3.1 3.3-1.1 1.1-2.1 2.2-3.3 3.2-.5.4-1.2.5-1.8.7-.1 0-.3 0-.4-.2a5.9 5.9 0 0 1-1.5-2.8c.5 0 .8-.3 1.1-.7 1-1.6 2.2-3 3.5-4.4.8-.9 1.8-1.8 2.3-2.9Z"/><path fill="#fdd8ba" d="m101.6 284.9-.9-4.4c-.3-1.8-.5-3.6 0-5.4l.5-1.2 1.2-.3c.7 0 1.1.3 1.3 1 .7 2.7 1.1 5.4 1.2 8.1v3l-3.5-.9Z"/><path fill="#e7b999" d="M78 298.4c-.6-.6-.6-.6-.2-1.3l1.8-4.3c.6-1.4 1.2-2.8 2.4-3.9l1.6-1.1 2.2 3.6-.3.1c-1.9.9-3 2.6-3.9 4.4l-.8 1.5c-.5.8-1.2 1.2-2.2 1.1H78Z"/><path fill="#0071bc" d="M75.4 309.5c-1.2-.3-2 .3-2.8 1l-.9.8c0-1-.2-2-.6-3-.3-.7-.3-1.4.1-2l2.1-3c.4-.5.6-.5 1.1-.2l1.7 1 1.7.8c.4.2.5.3.3.7l-.8 1.3-1.1 2-.1.6h-.5v-.1c.3-1.1.9-2 1.5-2.9l.1-.3h-.1l-1 1.3a12 12 0 0 0-.8 2Z"/><path fill="#fdd8ba" d="M78 298.4h.6c1 .1 1.7-.3 2.2-1.1l.8-1.5c.9-1.9 2-3.5 3.9-4.4l.3-.1 1.1 1.4-2.6 5.2-1 1.8-.4.3-1.1.5c-.2.1-.4.2-.6 0-1.2-.6-2.2-1.3-3.1-2.2Z"/><path fill="#534741" d="M67.3 308.4h.2c.5-.6 1.1-.7 1.8-.8l.3-.2-.3-.1c-.3 0-.7 0-1 .2l-1.1.7c-.2-.6-.6-1.3-.6-2.1s.8-1.5 1.5-1.7l.4.1c.9.6 1.4 1.6 1.5 2.7.1 1.3.2 2.5.5 3.8.3 1.1-.1 2.2-.6 3.2-.6 1.4-1.4 2.7-1.7 4.2l-.2.4-.4-1.7-.2-3.8.3-4c0-.2.2-.6-.3-.5v-.3Z"/><path fill="#29abe2" d="M93.1 285.5c-.7.8-1.3 1.8-2.3 2.4l-.2.3c0 .4-.2.6-.5.9l-1.8 1.7-1.5 1c-.2.1-.4 0-.5-.2l-1-1.6c-.2-.3-.2-.7-.1-1.1 0-.4.4-.6.8-.5l.5.1c.5.1.9-.2 1-.7 0-.4 0-.9.2-1.2l1.1-1.3c.4-.4.9-.4 1.5-.2.9.3 1.8.4 2.8.6Z"/><path fill="#c1272d" d="m87.3 269.1 1 2.1 2 4.7c.2.5.5.7 1 .7.7 0 .7 0 .8.7v.4l-.2.3-4.5 1.1c-.8 0-.7 0-.7-.7 0-.8.3-1.7.4-2.5v-6.7h.2Z"/><path fill="#a56656" d="M73.5 205.1 72 207l-3.3 4.9c-.5.8-.8 1.8-.5 2.8l.5 1.1.2.9c0 1.1.3 2 .9 2.8-.9-.2-1.7-.6-2.1-1.4-.2-.4-.5-.4-.8-.5-.2-.1-.5-.3-.5-.5 0-.5-.1-1.1 0-1.6.3-1.8 1.2-3.4 1.9-5.1 1-2.3 2.7-3.8 4.7-5.1h.4Z"/><path fill="#e7b999" d="m79.8 219.8 2.7 1.5.4.2h-2.7c-1 0-1.9-.3-2.9-.5l-.2-.1v-.6l-1.4-2.7v-.6c.3-.3.8-.5.8-1h.4c.5 0 .8-.3.8-.7l-.2-.3-.2.3-.2.4c-.2-.4-.4-.3-.7-.1l-.6.4c-.5.3-.9.3-1.2-.2l-.4-.7c0-.3-.1-.6 0-.8.2-.3.6-.4.9-.3h.5c.3 0 .5-.1.6-.5.7.3 1.4.6 1.9 1.2a1 1 0 0 1-.2 1.4l-.7.4c-.4.2-.5.5-.4 1 .2.6.6.9 1.1 1.3l1 .8h.3l.3.3Zm-4.5-5.2h-.2c0 .1-.2.3-.1.5 0 .2.2.4.4.5h.5v-.2l-.1-.1c-.5.2-.6-.2-.5-.6ZM91.4 284.8a6.5 6.5 0 0 1-3.4-1.7 1 1 0 0 1-.3-.7l.3-2.1s0-.2.2-.2l2.1-.5.9-.2c.3 1 .6 2 .5 3.1 0 .8-.2 1.5-.3 2.3Z"/><path fill="#fdfdfd" d="m78.2 299.1 2.9 2-2.6 2.9c-.4.4-.9.5-1.5.2l-1.5-.9.1-.2a4 4 0 0 1 1.4-1.7c.5-.3.6-.7.7-1.2v-.5c0-.3 0-.6.4-.7Z"/><path fill="#fad6b8" d="m72.3 202.6.8-.3c.2 0 .4-.2.5-.3 0 .7-.1 1.2-.8 1.4-.6.3-1.3.4-2 .6l-.3-.1c-.7-.6-1.5-.9-2.4-1.3v-3.1c0-.3 0-.5.3-.7l.5-.6c.4-.5 1-.9 1.7-.9.3 0 .5.1.5.4 0 1 0 2-.5 3l-.6-2.9h-.1v.4l-.6.8-.6.2.5.1v.9l-.2.3h.4c0 .6.2 1.1.7 1.4l1.7.7h.4Z"/><path fill="#cbcbcb" d="M83.5 301.6c-.5 1.2-1.4 2-2.3 2.9a29.4 29.4 0 0 0-3.5 4.4c-.3.4-.6.6-1.1.7l.2-.8 1.4-2.5.4-1.1.1-.3c1.2-1.2 2.2-2.6 3-4.1.1-.2.5-.4.8-.5l.3.2.6 1Z"/><path fill="#fdd8ba" d="M91.4 284.8c0-.8.2-1.5.3-2.3 0-1.1-.2-2.1-.5-3.1l.6-.1c.8-.1.9-.1 1.2.7l1 2.6.8 2.1a6 6 0 0 1-3.5.1Z"/><path fill="#ed1c24" d="M99.9 243.8c-.3 0-.3-.2-.3-.4 0-.4-.1-.6-.6-.7-.1 0-.3-.2-.3-.4l-.3-1.6-.3-.6-1-1.2c.5-.3.5-.4.3-.9-.4-1.3-.8-2.7-1.5-4l-1.7-2.7c-.2-.4-.2-.5.1-.7-.4-2-1.1-4-2-5.9l-.5-1.3.1-.4 1.7 3.5.6 1.8.7 1.5.3.6.2 1.5-.6-.7h-.1c0 .2 0 .3.2.4l2.5 4.5c.4.7.5 1.6.7 2.4v.3c-.4.3 0 .4 0 .5.6.4.9.9.8 1.7v.2c0 .8 0 .8.7.9l.5.2c.2 0 .3.2.5.3l-.6 1Z"/><path fill="#fad6b8" d="m115.7 211.5-.2-.1c-.4-.2-.6-.6-.5-1.1l.4-2.2c0-.3.1-.6.3-.8a16 16 0 0 1 2.5-3.3l.3-.2h.1c-.2.4-.3.7-.6 1-.5.7-.9 1.4-1 2.3v.9l.8-.4.7-.4v.2c-.9.7-1.5 1.5-1.6 2.7 0 .8-.3 1.4-1.2 1.4Z"/><path fill="#cbcbcb" d="M78.2 299.1c-.4.1-.4.4-.4.7v.5c0 .5-.2.9-.7 1.2a3 3 0 0 0-1.4 1.7l-.1.2-1.2-.6 2-3.7c.2 0 .4 0 .2-.3-.1-.3 0-.5.2-.7.3-.2.4 0 .6.2l.8.8Z"/><path fill="#0071bc" d="M84.3 219h1.8l3.4.1H93.9c.8 0 .8 0 1 .8l-1.6.2-3.7-.3c-1.5-.1-3-.3-4.5 0-.2 0-.4 0-.5-.2a3 3 0 0 0-.4-.8Z"/><path fill="#ed1c24" d="M104.3 270.8c.1-1.1-.3-2.1-.6-3l-1.8-5.3-1.3-4.1v-.2h.3l.9 2.8c.8 2.4 1.8 4.7 3 7 .7 1.3.6 1.9-.5 2.9Z"/><path fill="#29abe2" d="M113.7 210.4a16.4 16.4 0 0 1-4 3.4l-3.1 2.2c-1.2.8-2.5 1.4-3.7 2.1l-.9.6v.3l-.2.2-1.7.2-3.9.3h-.4c-.1-.3.1-.3.3-.4l1.8-.2 3.1-.2h.3c2-1.5 4.1-2.8 6.3-4.1l4.1-2.6c.4-.3.6-.7.9-1.1l.6-.6h.5Z"/><path fill="#0071bc" d="m72.6 303.8-2.5 2.6c-.4-.9-.7-1.7-1.5-2.3l4-.3ZM76 220.8c-.1.6-.6.6-1 .6-1.1.2-2.3.1-3.4-.2h-1.2l-.6-.8c.8 0 1.5.1 2.1.3.5 0 1 .3 1.4.4.2 0 .4.3.5-.1h2.1Z"/><path fill="#ed1c24" d="M100.5 258.1c-.2.1-.3 0-.2-.2v-1.1c.2-1.6-.1-3.1-.4-4.6l-.4-3.1v-1.6c0-.3 0-.6.4-.5-.2.5-.3.9-.1 1.5.2.5 0 1.1.2 1.6 0 .6.2 1.1.3 1.7.3 1.4.6 2.9.5 4.3l-.2 1.9Z"/><path fill="#e7b999" d="m74.9 207.9-.3 1c-.4 1.1-.6 2.1.2 3.1l1 .9.2.2c-.7-.2-1.2-.7-1.8-1.2v-.3c0-.5-.1-.9-.5-1.2-.5-.4-.6-.5-.3-1.1l.7-1.5.2-.1.7.1ZM72.3 202.6h-.4l-1.7-.7c-.5-.3-.6-.8-.7-1.3.6-.2.7-.1.9.4.2.3.4.2.6 0 .3.5.4.6.9.2l.4 1.4ZM115.7 211.5c.9 0 1.2-.6 1.2-1.4 0-1.2.7-2 1.6-2.7v-.2l.5-.2c0 .2 0 .3-.2.4l-.7.6c-.6.4-.7.9-.8 1.5l-.2 1.2c0 .1 0 .3-.2.4-.5.8-.8.9-1.5.4Z"/><path fill="#29abe2" d="m87.2 292.7-.4-.5.3-.1 1.4-.8 2.1-2c.1-.1.3-.3.3-.5 0-.4.3-.5.5-.8l2-2.1c.2-.2.3-.6.7-.5-.2.2-.5.4-.6.7-.4.8-1.1 1.3-1.7 1.8-.1.1-.3.3-.3.5 0 .4-.3.6-.6.9l-2.5 2.4-1.1 1.1Z"/><path fill="#0071bc" d="m71.4 311.8-.6.3c0-.9 0-1.9-.3-2.7-.2-.5 0-1 .2-1.6l.8 2.8v1.2Z"/><path fill="#fad6b8" d="M71.4 201.1V200l.2-2.5c.5-.2.7 0 .7.6 0 .9-.2 1.8-.6 2.6 0 0 0 .2-.2.3h-.2Z"/><path fill="#b6b6b6" d="m67.2 211.7.5-1.6a23 23 0 0 1 2.4-5l.4-.5v.4c-1.3 2.1-2.1 4.3-3.1 6.5l-.1.2Z"/><path fill="#fad6b8" d="M72.7 198c.3 0 .5.3.5.8a4 4 0 0 1-.7 2.1l-.3.3v-.5l.6-2.6ZM73.5 198.9c.7.5.8.5.5 1.2l-.6 1.2-.4.3c-.3-1 .5-1.8.4-2.7Z"/><path fill="#e7b999" d="m69.4 199.1.5-.8.3 1.8-.9.2v-.9h.4l-.4-.3ZM73.7 202.1c-.2 0-.3.2-.5.3l-.8.3v-.9c0-.3 0-.4.3-.5.1.7.3.8 1 .4v.3Z"/><path fill="#fad6b8" d="M116.4 205.3c.2-.7.6-1.2 1.1-1.7 0 .8-.7 1.2-1.1 1.7Z"/><path fill="#f6c29b" d="m116 205.3.5-1.9c.4.9-.3 1.4-.5 1.9Z"/><path fill="#b6b6b6" d="M64.4 217.5h-.3l1-1.2-.7 1.2Z"/><path fill="#767676" d="m94.1 289-1.4-.5c.5 0 .9.2 1.3.5Z"/><path fill="#ce7e6a" d="M74.4 206.6v.9q-.2-.2 0-.9Z"/><path fill="#767676" d="M94.6 289.3v-.2.2Z"/><path fill="#ce7e6a" d="M75.8 213.5h.1Z"/><path fill="#b6b6b6" d="M65.1 216.3Z"/><path fill="#ca9266" d="M75.8 235.3v.1Z"/><path fill="#b6b6b6" d="M67.1 212.1ZM67.2 211.9Z"/><path fill="#fefefe" d="m69.8 207.4-.2.2v-.3h.2Z"/><path fill="#fad6b8" d="M116.4 205.3Z"/><path fill="#fdd8ba" d="M83.3 215.2Z"/><path fill="#fefefe" d="M59.2 215.2Z"/><path fill="#cb8d60" d="M85.5 253.8Z"/><path fill="#e4a573" d="M80.4 312.4Z"/><path fill="#626160" d="M82.3 227c.6-.6 5-.4 6.2.3l-.5.1-1.5-.2c-1.3-.3-2.6-.2-3.9-.1h-.3ZM90.8 246.4a8.8 8.8 0 0 0 4.1-4.2c.3.3.2.5 0 .7a8.7 8.7 0 0 1-2.7 3l-1.1.5h-.3ZM85.4 223.1l-.4.4-.9.3c-.9.1-1.8 0-2.7-.2h-.1v-.1c1.4 0 2.8.4 4-.5v.2Z"/><path fill="#686765" d="M72.9 225.4c.9.4 1.9 1.3 1.8 1.8l-1.9-1.7h.1ZM93.9 242.9l-1.1 1.6h-.2l1.1-1.7h.2ZM73.7 225.3c.5 0 1.1.6 1.2 1.1l-1.2-1.1ZM85.6 227.4l1.1.2v.2l-1.1-.2v-.2Z"/><path fill="#ed1c24" d="m91.5 251.8.4 1.8 1 3.5 1 3.5c0 .4.2.8-.3 1l-.3.3-.3-.5a96 96 0 0 1-2.7-9.2l1.2-.5ZM95.2 264.2l.6 2.7 2.3 5.6.2.4c-.5.4-.9.3-1.1-.3l-1.7-4c-.5-1.2-1.1-2.4-1.3-3.7v-.4l.9-.2Z"/><path fill="#626160" d="m91.5 251.8-1.2.5-1.2.4v-.2l1.2-.6 1.1-.6c1.8-.9 3.5-1.9 5.1-3.2l.2-.1h.4l-.1.3-1.5 1.1-3.8 2.3ZM95.2 264.2l-.9.2h-.4c.5-.6 4.5-1.1 5.1-.4h-.6c-1.1-.1-2.2 0-3.3.1ZM95.3 263.4c.8-.4 2.1-.4 2.5 0l-2.5.2Z"/><path fill="#f2bf99" d="m91.3 251.4-1.1.6c0-.3-.3-.5.1-.8.5-.3.6-.2 1 .2Z"/><path fill="#686765" d="m95.1 250.1-.5.5-.7.6h-.2v-.1c.4-.4.7-.9 1.3-1.1h.1Z"/><path fill="#626160" d="M84.2 250.5c.5-.7 2.7-1.7 3.3-1.6l-3.3 1.6ZM75.3 232.5l-1.6-1.9c.5 0 1.7 1.3 1.6 1.9ZM74.2 230.2c.5 0 1 .6 1 1.1l-1-1.1ZM96.7 285.3c1.5 0 3.1.1 4.6.4v.2c-1.6 0-3.1-.3-4.6-.7ZM98.2 295.8l.2-.2 1.7-1.4.2-.2h.2v.2l-2 1.6h-.3ZM96.8 291.9c.4.2.9 1.7.8 2.2-.5-.7-.5-1.5-.8-2.2ZM75.4 309.5l.8-2 1-1.3h.1l-.1.4c-.6.9-1.2 1.8-1.5 2.9v.1l.2 1.7c-.5-.5-.5-1.2-.6-1.8Z"/><path fill="#686765" d="M76.2 311.6c.3.4.6.8.7 1.4-.4-.2-.9-1.1-.7-1.4Z"/><path fill="#f2bf99" d="m77.9 212.1-.5-.4.1-.6.9-.5.5.1v.5c-.2.5-.6.8-1.2.8Z"/><path fill="#696968" d="m79.8 219.8-.3-.3-1-1.6c.6.5 1 1.1 1.2 1.8v.1Z"/><path fill="#686765" d="M77 209.8c.4 0 .8.2.7.4 0 .1-.2.3-.3.2l-.6-.5.2-.2Z"/><path fill="#696968" d="M76.5 209.7v.9h-.1l-.2-.3c0-.2 0-.5.3-.6Z"/><path fill="#686765" d="M96.7 283.2c-.6-.1-.9-.8-.9-1.4l.9 1.4Z"/><path fill="#626160" d="M75.3 214.6c0 .4 0 .7.5.6l.1.1v.2h-.5c-.2 0-.3-.3-.4-.5l.1-.5h.2Z"/></g><g opacity=".8"><path fill="#fff" d="m252.5 125.3 1.7-11.8 41.5 5.8L294 131z"/><path fill="red" d="m337.3 125.3-1.6 11.7-1.2-.2-40.3-5.6 1.2-8.4.4-3.3 24.3 3.4 14.4 2 2.8.4z"/><path fill="#fff" d="m169.7 113.8 1.7-11.8 41.5 5.8-1.7 11.8z"/><path fill="red" d="m211 119.5 1.7-11.8 41.5 5.8-1.6 11.8z"/><path fill="#fff" d="m86.7 102.2 1.7-11.7 41.5 5.7-1.7 11.8z"/><path fill="red" d="m128.2 108 1.6-11.7 41.5 5.7-1.6 11.8z"/><path fill="#fff" d="M3.7 90.8 5.4 79l41.5 5.7-1.7 11.8z"/><path fill="red" d="m45.3 96.5 1.6-11.8 41.5 5.7-1.6 11.8zM5.4 79l-.5 3.8-1.1 7.9-4.4-.6V78.2l6 .8z"/></g><path fill="#e6e6e6" d="m186.4 54.5-4.3-.6c-8-1.1-19.1-2.5-32.9-.6.1-3.5.3-6.2.6-8.7l.4-2.9a38.4 38.4 0 0 1 3.1-10.4 73.5 73.5 0 0 1 31.2.7c.5 2.1.8 4.2 1.1 6.6l.2 2.9a163 163 0 0 1 .6 13.2ZM147 45l-.7 8.7-4.6.9c-9.8 2.1-22.8 4.8-35.4 15.3a61.4 61.4 0 0 0-3.8 3.4 70.7 70.7 0 0 1 10.3-17.4 60 60 0 0 1 8.7-3.5 398 398 0 0 1 14.3-4.8c3.8-1.1 7.5-1.9 11.1-2.5ZM150.9 31.7c-.8 1.9-1.7 4.1-2.4 6.5l-1 3.8-30.4 9a70 70 0 0 1 33.8-19.4ZM225.7 69.2a75 75 0 0 0-27.4-12.6l-3.2-.7-5.6-1-.1-3.1c-.2-4.5-.3-7.8-.6-10.7 0-1-.2-1.9-.3-2.8-.3-2-.6-3.7-1.1-5.6a68.3 68.3 0 0 1 16.8 7.5l1.3.8 2.4 1.6a69.8 69.8 0 0 1 15.2 14.5c1 3.6 2 7.7 2.7 12.2Z"/><path fill="#ccc" d="m228.4 71.4-2.7-2.2c-.7-4.5-1.7-8.6-2.7-12.2a63 63 0 0 1 3.7 5.3l1.7 9.1Z"/><path fill="#e6e6e6" d="M233.5 76c-1.6-1.5-3.2-3.1-5-4.6l-.3-2.2a120 120 0 0 0-1.4-6.9 67 67 0 0 1 6.7 13.7Z"/><path fill="#b3b3b3" d="m228.4 71.4-1.7-9.1 1.4 6.9.3 2.2Z"/><path fill="#e6e6e6" d="M199.8 162.2a69.4 69.4 0 0 1-26 7.6 51 51 0 0 1-3.9.2h-2.4l-4.3-.1c-1.3 0-2.6-.2-3.8-.3a70.1 70.1 0 0 1-47.3-26.7l1.5-1 14.4-10.4c4.2 4.5 7.9 8 11.1 10.6a119.7 119.7 0 0 0 16.3 10.8l3.2 1.6a80.8 80.8 0 0 0 18.1 6.3l2.1.4c4.5.8 11.9 2.1 20.9 1.1ZM146 63.1l-.4 11.9a91.3 91.3 0 0 0-35.3 12.1l-3.7 2.6a50.7 50.7 0 0 0-5.2 4.8l-1.4 1.6c-1.2 1.5-2 2.8-2.7 3.8 0-2.4.1-4.8.4-7.2l.4-3 .3-1.9 2.1-2.4 3.1-3.2 3.5-3.1c12.6-10.5 25.6-13.2 35.4-15.3l3.5-.7Z"/><path fill="#e6e6e6" d="m147.7 111.1-1.7 1.5-5.9 4.9-12.8 9.6-2 1.4a788 788 0 0 1-12.1 8.7l-3.5 2.5a69.9 69.9 0 0 1-12.2-36 35 35 0 0 1 5.6-6.9 44.7 44.7 0 0 1 10.2-7.5A93.4 93.4 0 0 1 145.6 79v2.2c.2 10.7.9 19 2 28.3l.2 1.7ZM186.9 72v.2l-.1 4.5c0 1.3 0 2.6-.2 3.8-.4 9-1.4 16.8-2.5 26-.9 7.9-1.9 13.9-2.5 17.5a391.3 391.3 0 0 1-30.8-13l-.3-2.7c-1.1-9.7-2-18.3-2.1-29.3v-4.4l.4-12.1c14.3-2.1 25.8-.6 34 .5l3.8.5.1 3.4V72ZM237.7 99.9a70 70 0 0 1-7.8 32.2c-2.4.2-5.3.4-8.6.3h-2.5l1.4-3.3a107 107 0 0 0 8.2-26.5 83 83 0 0 0 1-10.5v-3.8c0-2.3 0-4.8-.2-7.5 2.7 2.2 5.1 4.5 7.2 6.9l.5 3.5.4 4 .2 4.8Z"/><path fill="#ccc" d="m153.3 31.2-1.8 5a38.4 38.4 0 0 0-1.7 8.3c-.3 2.4-.4 5.2-.6 8.7l-3 .4.7-8.7c-3.6.7-7.3 1.5-11.1 2.5-3 .9-6.8 2.2-14.3 4.8a60 60 0 0 0-8.7 3.5c1.3-1.6 2.7-3.2 4.2-4.7l30.4-9 1-3.8c.7-2.5 1.6-4.6 2.4-6.5l2.4-.5ZM189.4 54.9l-3-.4-.2-4.7a163 163 0 0 0-.6-11.4c-.2-2.4-.6-4.5-1.1-6.6l2.7.7a37 37 0 0 1 1.1 5.6l.3 2.8c.3 2.9.4 6.3.6 10.7l.1 3.1Z"/><path fill="#b3b3b3" d="m228.4 71.4-1.7-9.1 1.4 6.9.3 2.2ZM140.4 122.2c2.8-2.1 5.3-4.3 7.8-6.5l1.5-1.3 1.8.8 1.9.8c10.5 4.5 20.2 8 24.1 9.4l3.9 1.4 3.2 1.1.7.2c12.9 3.7 27.3 6.4 42.9 7.1l1.6-3c-2.4.2-5.3.4-8.6.3h-2.5l1.4-3.3a107 107 0 0 0 8.2-26.5 83 83 0 0 0 1-10.5v-3.8c0-2.3 0-4.8-.2-7.5l-2.5-2 .3 8.7v3.8a103 103 0 0 1-9.3 37.8l-1.4 3.2a137.5 137.5 0 0 1-31.5-7 443.9 443.9 0 0 0 4.8-44.2l.1-3.8v-3l-.1-6.1-.1-4.1h-.6l-2.4-.3.1 3.4v5.3l-.1 4.5c0 1.3 0 2.6-.2 3.8-.4 9-1.4 16.8-2.5 26-.9 7.9-1.9 13.9-2.5 17.5a391.3 391.3 0 0 1-30.8-13l-.3-2.7c-1.1-9.7-2-18.3-2.1-29.3V75l.4-12.1-3 .5-.4 11.9a91.3 91.3 0 0 0-35.3 12.1L106 90l-.5.4-.5.4-1 .8-2.7 2.6-.5.6-1.4 1.6c-1.2 1.5-2 2.8-2.7 3.8v3.7a40.5 40.5 0 0 1 5.6-6.9l1.3-1.2.7-.6.3-.2.6-.5c1-.8 2.1-1.7 3.4-2.5a66.7 66.7 0 0 1 11-5.9 93.4 93.4 0 0 1 25.2-6.8v2.2a244.7 244.7 0 0 0 2.2 30l-1.4 1.3-.3.2-5.9 4.9a7 7 0 0 0-1 .8l-.5.4-.3.2-.3.2-.3.3-.3.3-.6.4a3 3 0 0 1-.7.5l-.6.4-4.5 3.3-1.5 1.1a7 7 0 0 0-1 .8l-.4.3-.6.5-2 1.4a788 788 0 0 1-12.1 8.7l-3.5 2.5 2.4 3.2 1.5-1 14.4-10.4c4.2 4.5 7.9 8 11.1 10.6a119.7 119.7 0 0 0 16.3 10.8l3.2 1.6a80.8 80.8 0 0 0 18.1 6.3l2.1.4c4.5.8 11.9 2.1 20.9 1.1l2-1.1 3.2-1.9c-4.9.3-10.3.3-16-.3-4.2-.3-7.7-.9-10.2-1.3l-1.1-.2-3.4-.8a82.9 82.9 0 0 1-16.8-6.2l-2.2-1.1-1.8-1a95.1 95.1 0 0 1-23.6-18.2l.6-.4 9.8-7.4Z"/><path fill="#e6e6e6" d="M227.2 87.3v3.8a103 103 0 0 1-9.3 37.8l-1.4 3.2a137.5 137.5 0 0 1-31.5-7 443.9 443.9 0 0 0 4.8-44.2l.1-3.8v-3l-.1-6.1-.1-4.1 2.8.5a74 74 0 0 1 34.3 14.2l.3 8.7Z"/><path fill="#2e3192" d="M236.6 87.5a79.8 79.8 0 0 0-17.9-14.3 74 74 0 0 0-26.1-8.8l-2.8-.5v-.8l-.6.8-2.4-.3-3.8-.5a115.7 115.7 0 0 0-37 0l-3.5.7c-9.8 2.1-22.8 4.8-35.4 15.3l-3.5 3.1c-1.1 1.1-2.2 2.1-3.1 3.2l-2.1 2.4.7-3.5 1.3-4.7c.7-2.2 1.4-4.3 2.3-6.4 1.2-1.1 2.4-2.3 3.8-3.4 12.6-10.5 25.6-13.2 35.4-15.3l4.6-.9 3-.5c13.8-1.9 24.9-.4 32.8.6l4.3.6 3 .4a93 93 0 0 1 8.8 1.7 73.5 73.5 0 0 1 35.1 19.4c1.4 3.7 2.4 7.6 3.1 11.6Z"/><path fill="#e6e6e6" d="M185.3 128a200 200 0 0 1-31.9-12c10.5 4.5 20.2 8 24.1 9.4l3.9 1.4 3.2 1.1.7.2Z"/><path fill="#e6e6e6" d="M228.2 135.1a69.8 69.8 0 0 1-20 21.9l-2.7 1.8-.4.3c-4.9.3-10.3.3-16-.3-4.2-.3-7.7-.9-10.2-1.3l-1.1-.2-3.4-.8a82.9 82.9 0 0 1-16.8-6.2l-2.2-1.1-1.8-1A95.1 95.1 0 0 1 130 130l.6-.4 9.8-7.4c2.8-2.1 5.3-4.3 7.8-6.5l1.5-1.3 1.8.8 1.9.8c9.1 4.3 19.8 8.6 31.9 12 12.9 3.7 27.3 6.4 42.9 7.1Z"/><g fill="#fff" data-name="PRINT"><path d="M29.8 11.9a2 2 0 0 1-.6 1.5l-6.8 6.8-7.2-4.2v-4.1c0-1.2 1-2.1 2.1-2.1s2.1 1 2.1 2.1v5.2l6.7-6.7c.8-.8 2.2-.8 3 0 .4.4.6 1 .6 1.5ZM29.2 30.8c-.4.4-.9.6-1.5.6s-.6 0-.8-.2l-.7-.5-2.3-2.3-4.4-4.4v5.2c0 1.2-1 2.1-2.1 2.1s-2.1-1-2.1-2.1v-4.1l7.2-4.2 4.5 4.5 2.3 2.3c.8.8.8 2.2 0 3ZM22.1 20.5l-.2-.3-1.8-1-4.9-2.8-4.1-2.4c-.2-.1-.5 0-.7.2v12.7c0 .3.2.5.5.5h.2l4.1-2.4 6.7-3.9.1-.2v-.3Zm-10.2-5 3.2 1.8 5.2 3 .1.1v.3s0 .2-.2.2l-5.2 3-3.2 1.9-.5-.1V15.8c0-.2.2-.4.4-.4h.2Z"/><path d="m19 20.7-.1.2-3.9 2.3-2.4 1.4-.4-.1V17.1c0-.2.1-.3.3-.3h.1l2.4 1.4 3.9 2.3.1.2v.2ZM64.9 20.1l-6-3-3.7-1.8a.5.5 0 0 0-.6.2v10.1c.1.2.4.4.6.4h.4l3.4-1.9 2.1-1.1 3.8-2 .2-.2v-.2l-.2-.2Zm-6 3-2.8 1.5-.5-.1v-7.8c0-.2 0-.3.3-.3h.1l2.9 1.4 1 .5 3.6 1.8.2.2v.2l-.1.2-4.6 2.4Z"/><path d="m62.3 20.5-.1.1-3.4 1.8-2.1 1.1h-.3V17.6c0-.1 0-.2.2-.2h.1l2.1 1.1 3.5 1.7.1.1v.1ZM39.3 15.4h-5.2v10.4h2.6v-3.4h2.7c2.5 0 4.3-1.5 4.3-3.6 0-2-1.9-3.5-4.4-3.4Zm-.2 4.9h-2.4v-2.9h2.4c1.2 0 2.1.5 2.1 1.4 0 .9-.8 1.5-2 1.5ZM53.4 25.8l-8.2.1-.1-10.3h2.5l.1 8.3 5.7-.1v2zM70.2 21.9l.1 3.7h-2.5l-.1-3.7-4.6-6.5 2.9-.1 2.9 4.5 3-4.5 2.7-.1-4.4 6.7zM85.5 26.1h-1.7l-4.4-4.7-1.8 1.7.1 3.1h-1.3l-.2-10.3h1.3l.1 5.7 5.8-5.8h1.7l-4.8 4.8 5.2 5.5zM92 15.6c-3.2 0-5.9 2.5-5.8 5.4 0 2.9 2.8 5.3 6 5.3s5.8-2.5 5.8-5.4c0-2.9-2.8-5.3-5.9-5.2Zm.4 9.6a4.6 4.6 0 0 1-4.9-4.2 4.5 4.5 0 0 1 4.2-4.3 4.6 4.6 0 0 1 4.9 4.2 4.5 4.5 0 0 1-4.2 4.3ZM108.2 23.2c0 1.6-1.3 3-4 3-1.7 0-3.3-.5-4.5-1.6l.8-.9c1 .9 2.4 1.5 3.8 1.4 1.8 0 2.7-.9 2.7-1.8 0-1.1-1.1-1.5-3.1-1.9-2.3-.5-3.8-1.1-3.8-2.9 0-1.6 1.6-3 3.8-3 1.5 0 2.9.5 4 1.4l-.8.9a5 5 0 0 0-3.3-1.3c-1.4 0-2.4.9-2.4 1.8 0 1.1 1.1 1.4 3.1 1.8 2.2.4 3.8 1.1 3.8 2.9ZM121.9 26.1h-1.3l-.1-7.8-4.2 7.3-4.4-7.2.1 7.8h-1.3l-.1-10.3h1.3l4.4 7.1 4.1-7.2h1.3l.2 10.3zM130.1 15.6c-3.2 0-5.9 2.5-5.8 5.4 0 2.9 2.8 5.3 6 5.3s5.8-2.5 5.8-5.4c0-2.9-2.8-5.3-5.9-5.2Zm.4 9.6a4.6 4.6 0 0 1-4.9-4.2 4.5 4.5 0 0 1 4.2-4.3 4.6 4.6 0 0 1 4.9 4.2 4.5 4.5 0 0 1-4.2 4.3ZM146.3 23.2c0 1.6-1.3 3-4 3-1.7 0-3.3-.5-4.5-1.6l.8-.9c1 .9 2.4 1.5 3.8 1.4 1.8 0 2.7-.9 2.7-1.8 0-1.1-1.1-1.5-3.1-1.9-2.3-.5-3.8-1.1-3.8-2.9 0-1.6 1.6-3 3.8-3 1.5 0 2.9.5 4 1.4l-.8.9a5 5 0 0 0-3.3-1.3c-1.4 0-2.5.9-2.4 1.8 0 1.1 1.2 1.4 3.1 1.8 2.2.4 3.8 1.1 3.8 2.9Z"/></g><path fill="none" stroke="red" stroke-miterlimit="10" stroke-width="2" d="M146.9 268.9h113.8v29.3H146.9z"/><path d="M10.3 38.1h312.3v63.2H10.3z" opacity=".7"/><path fill="red" d="M23.8 210.8c-2.7 0-4.8 2.2-4.8 4.8s.3 2 .9 2.8l.3.5 1.5 2.5 2.1 3.7 2.2-3.8 1.4-2.5.3-.4a4.8 4.8 0 0 0-3.9-7.6Zm0 2.8c1.2 0 2.1 1 2.1 2.1s-1 2.1-2.1 2.1-2.1-.9-2.1-2.1 1-2.1 2.1-2.1Z"/><g fill="red" font-family="Lexend-Light, Lexend" font-size="43"><text transform="translate(8.2 239)"><tspan x="0" y="0">(</tspan></text><text transform="translate(311.5 239)"><tspan x="0" y="0">)</tspan></text></g><path fill="#0071bc" stroke="red" stroke-miterlimit="10" stroke-width="2" d="M-.9 113.8h155.8a13 13 0 0 1 0 25.8H-.9v-25.7ZM-.9 156h155.8a13 13 0 0 1 0 25.8H-.9v-25.7Z"/></svg>