<svg xmlns="http://www.w3.org/2000/svg" width="335" height="335" data-name="Layer 1">
  <defs>
    <linearGradient id="a" x1="288.2" x2="27.9" y1="9.3" y2="350.5" gradientUnits="userSpaceOnUse">
      <stop offset="0" stop-color="#29abe2"/>
      <stop offset=".5" stop-color="#0071bc"/>
      <stop offset=".7" stop-color="#0c4693"/>
      <stop offset="1" stop-color="#1b1464"/>
    </linearGradient>
  </defs>
  <path fill="url(#a)" d="M0 0h335v335H0z"/>
  <g fill="#fff" data-name="PRINT">
    <path d="M29.8 11.9c0 .6-.2 1.1-.6 1.5l-6.8 6.8-7.2-4.2v-4.1c0-1.2 1-2.1 2.1-2.1s2.1 1 2.1 2.1v5.2l6.7-6.7c.8-.8 2.2-.8 3 0 .4.4.6 1 .6 1.5Zm-.6 18.9c-.4.4-.9.6-1.5.6s-.6 0-.8-.2c-.3-.1-.5-.3-.7-.5l-2.3-2.3-4.4-4.4v5.2c0 1.2-1 2.1-2.1 2.1s-2.1-1-2.1-2.1v-4.1l7.2-4.2 4.5 4.5 2.3 2.3c.8.8.8 2.2 0 3Zm-7.1-10.3c0-.1-.1-.2-.2-.3l-1.8-1-4.9-2.8-4.1-2.4c-.2-.1-.5 0-.7.2v12.7c0 .3.2.5.5.5h.2l4.1-2.4 6.7-3.9s.1-.1.1-.2v-.3Zm-10.2-5 3.2 1.8 5.2 3s.1 0 .1.1v.3s0 .2-.2.2l-5.2 3-3.2 1.9c-.2 0-.4 0-.5-.1v-9.9c0-.2.2-.4.4-.4h.2Z"/>
    <path d="M19 20.7s0 .1-.1.2L15 23.2l-2.4 1.4c-.1 0-.3 0-.4-.1v-7.4c0-.2.1-.3.3-.3h.1l2.4 1.4 3.9 2.3s.1 0 .1.2v.2Zm45.9-.6-6-3-3.7-1.8c-.2-.1-.5 0-.6.2v10.1c.1.2.4.4.6.4h.4l3.4-1.9 2.1-1.1 3.8-2s.2-.1.2-.2v-.2c0-.1-.1-.2-.2-.2Zm-6 3-2.8 1.5c-.2 0-.4 0-.5-.1v-7.8c0-.2 0-.3.3-.3h.1l2.9 1.4 1 .5 3.6 1.8s.1 0 .2.2v.2s0 .1-.1.2L59 23.1Z"/>
    <path d="M62.3 20.5s0 .1-.1.1l-3.4 1.8-2.1 1.1h-.3v-5.9c0-.1 0-.2.2-.2h.1l2.1 1.1 3.5 1.7.1.1v.1Zm-23-5.1h-5.2v10.4h2.6v-3.4h2.7c2.5 0 4.3-1.5 4.3-3.6 0-2-1.9-3.5-4.4-3.4Zm-.2 4.9h-2.4v-2.9h2.4c1.2 0 2.1.5 2.1 1.4 0 .9-.8 1.5-2 1.5Zm14.3 5.5-8.2.1-.1-10.3h2.5l.1 8.3 5.7-.1v2zm16.8-3.9.1 3.7h-2.5l-.1-3.7-4.6-6.5 2.9-.1 2.9 4.5 3-4.5 2.7-.1-4.4 6.7zm15.3 4.2h-1.7l-4.4-4.7-1.8 1.7.1 3.1h-1.3l-.2-10.3h1.3l.1 5.7 5.8-5.8h1.7l-4.8 4.8 5.2 5.5zM92 15.6c-3.2 0-5.9 2.5-5.8 5.4 0 2.9 2.8 5.3 6 5.3s5.8-2.5 5.8-5.4c0-2.9-2.8-5.3-5.9-5.2Zm.4 9.6c-2.5.2-4.7-1.7-4.9-4.2.1-2.3 1.9-4.1 4.2-4.3 2.5-.2 4.7 1.7 4.9 4.2-.1 2.3-1.9 4.1-4.2 4.3Zm15.8-2c0 1.6-1.3 3-4 3-1.7 0-3.3-.5-4.5-1.6l.8-.9c1 .9 2.4 1.5 3.8 1.4 1.8 0 2.7-.9 2.7-1.8 0-1.1-1.1-1.5-3.1-1.9-2.3-.5-3.8-1.1-3.8-2.9 0-1.6 1.6-3 3.8-3 1.5 0 2.9.5 4 1.4l-.8.9c-.9-.8-2.1-1.3-3.3-1.3-1.4 0-2.4.9-2.4 1.8 0 1.1 1.1 1.4 3.1 1.8 2.2.4 3.8 1.1 3.8 2.9Zm13.7 2.9h-1.3l-.1-7.8-4.2 7.3-4.4-7.2.1 7.8h-1.3l-.1-10.3h1.3l4.4 7.1 4.1-7.2h1.3l.2 10.3zm8.2-10.5c-3.2 0-5.9 2.5-5.8 5.4 0 2.9 2.8 5.3 6 5.3s5.8-2.5 5.8-5.4c0-2.9-2.8-5.3-5.9-5.2Zm.4 9.6c-2.5.2-4.7-1.7-4.9-4.2.1-2.3 1.9-4.1 4.2-4.3 2.5-.2 4.7 1.7 4.9 4.2-.1 2.3-1.9 4.1-4.2 4.3Zm15.8-2c0 1.6-1.3 3-4 3-1.7 0-3.3-.5-4.5-1.6l.8-.9c1 .9 2.4 1.5 3.8 1.4 1.8 0 2.7-.9 2.7-1.8 0-1.1-1.1-1.5-3.1-1.9-2.3-.5-3.8-1.1-3.8-2.9 0-1.6 1.6-3 3.8-3 1.5 0 2.9.5 4 1.4l-.8.9c-.9-.8-2.1-1.3-3.3-1.3-1.4 0-2.5.9-2.4 1.8 0 1.1 1.2 1.4 3.1 1.8 2.2.4 3.8 1.1 3.8 2.9Z"/>
  </g>
  <path fill="#808185" d="m104.3 273.8 2.2 2.2c.5.6.9 1.2 1.5 1.9-2.5 2.3-4.8 4.7-7.3 6.8-1.8 1.5-2.6 2.8-1.8 5.3.7 2.3.8 5-1.8 6.6-6.3 3.9-13 6.6-20.4 7.2-12.1 1.1-22.8-2.7-32.7-9.4-2.4-1.6-3.8-3.7-4.7-6.4-1.3-4.2-1.4-8.4-.8-12.7.6-4.7 5.1-6.5 9.1-4.2 11 6.3 22.9 9.1 35.6 9.1 4.1 0 7.5-.7 10.2-4 2.1-2.5 4.7-4.5 7-6.6l2.1 1.6c.6.8 1.2 1.6 1.9 2.5Zm-55.9 3.1c0-1.2-2.5-3.2-4.2-3.4-1.8-.2-2.1 1-2.4 2.4-.8 3.5-.7 3.8 2.3 5.5 1.2.7 2.5 1.5 4.3 2.5v-7.1Zm25.2 13.7c2.2 0 4.1.2 6.4.2v-7.1l-5.1-.3c-.5 2.5-.9 4.7-1.3 7.2Zm-17.3-11.5-4.5-1.8c-.1 2.5-.6 4.9-.2 7.2.2 1 2 1.7 3.5 2.8.5-3.3.8-5.7 1.1-8.2Zm6.4 9.8c.5-2.5.9-4.8 1.4-7.3l-4.5-1.4c-.4 2.7-.7 5.2-1.1 7.7l4.2 1Zm4.7-6.6c-.4 2.4-.9 4.8-1.3 7.3l4.1.7c.5-2.5.9-4.8 1.4-7.4l-4.2-.6Zm-4.5 13c-.8 1.1-1.6 2.1-2.4 3.1 3.1 2 4.1 1.8 5.8-1.1.7-1.2 1.4-2.3 2.2-3.7q-3.7-1.1-5.7 1.6Zm15.1-1c-5.6-1-7.2.2-9.2 6.3 4.4-.3 5.8-4.4 9.2-6.3Zm-24.3 1.8 3.3 1.4 4.1-5.3c-4-1.6-5-1.1-7.3 3.9Zm-11.6-11.9-.5.3 2.9 6.5h.8c.7-1.3 1.4-2.5 2.1-3.9l-5.2-2.9Zm8.4 4.2c-.9 1.5-1.7 2.9-2.6 4.5l2.4 1.4c1.2-1.5 2.3-2.9 3.7-4.5l-3.4-1.4Z"/>
  <path fill="#bbbcbe" d="m104.3 273.8 2.2 2.2c.3-.4.7-.8 1-1.1 26.2-24.4 52.3-48.8 78.5-73.1.2-.1.3-.3.5-.4h.1l-2.3-2.3c-5.1 4.8-10.1 9.5-15.2 14.2-21.6 20.2-43.2 40.3-64.8 60.5Z"/>
  <path fill="#a8a9ad" d="M104.3 273.8c21.6-20.2 43.2-40.3 64.8-60.5 5.1-4.7 10.1-9.5 15.2-14.2-.6-.7-1.1-1.4-1.7-2-.1 0-.2-.2-.1-.3-.1 0-.2.1-.3.2-2.6 2.4-5.2 4.7-7.7 7.1l-69.9 65.1c-.7.7-1.4 1.4-2.2 2.1.6.8 1.2 1.6 1.9 2.5Z"/>
  <path fill="#777778" d="M182.6 197c.6.7 1.1 1.4 1.7 2 .7-.6 1.3-1.2 2-1.8l48-44.7-3-3.3-.5.4h-.2c-.3.6-.5 1.3-1 1.7-16 14.9-31.9 29.8-47.9 44.6l.5.8s.2-.2.3-.2h.4l-.2.3Z"/>
  <path fill="#354751" d="M230.8 149.8c.2-.1.3-.3.5-.4-.5-1.2.2-2 1-2.8 15.3-14.2 30.5-28.4 45.8-42.7.5-.5 1.1-.9 1.8-1.5.6.9 1.1 1.7 1.6 2.3.5.7 1.1 1.3 1.7 2l10.6-9.8c1.5 1.6 2.6 2.8 3.8 4 .9.9.8 1.5 0 2.3-2.5 2.2-4.9 4.5-7.3 6.9-.4.4-.6 1.1-.9 1.7l10.2-9.5L289 91c-3.3 3.1-6.6 6.2-10 9.3-.1 0-.3.2-.3.3.8 3.2-2.2 4-3.8 5.5-14.4 13.6-28.9 27-43.3 40.5-.5.5-1.1 1-1.6 1.5l.8 1.8Z"/>
  <path fill="#777778" d="M289.2 111.8c.3-.6.5-1.3.9-1.7 2.4-2.3 4.9-4.6 7.3-6.9.9-.8.9-1.5 0-2.3-1.2-1.2-2.3-2.4-3.8-4-3.6 3.4-7.1 6.6-10.6 9.8.6.7 1.1 1.3 1.7 1.8 2.4 2 2.4 2.2.2 4.3-14.9 13.9-29.8 27.7-44.6 41.6-1.2 1.1-2.3 1.9-4 1.3l-1.3 1.2c0 .1.2.2.3.3l2.6-.6.3.7 1.4-1.3c15.4-14.4 30.8-28.7 46.2-43.1.9-.9 1.8-1.3 3-1.1Z"/>
  <path fill="#5d5d5f" d="M181.8 196.1c16-14.9 32-29.7 47.9-44.6.4-.4.7-1 1-1.6-1.7 1.5-3.4 3-5 4.6-14.2 13.3-28.5 26.5-42.7 39.8-.5.5-.8 1.2-1.2 1.9Z"/>
  <path fill="#808185" d="M235.7 157.3c0-.1-.2-.2-.3-.3-15.7 14.6-31.4 29.3-47.1 43.9l.3.3 1.7-1.4 43.6-40.6c.6-.6 1.2-1.2 1.8-1.9Z"/>
  <path fill="#777778" d="m188.6 201.2-.3-.3c-.5.1-1.1.3-1.6.4h-.1c.8 1 1.5 1.2 2.1-.1Z"/>
  <path fill="#99999b" d="M186.7 201.3c.5-.1 1.1-.3 1.6-.4 15.7-14.6 31.4-29.3 47.1-43.9.4-.4.9-.8 1.3-1.2-.2-.2-.4-.5-.6-.7l-1.2-1.8-.3-.8c-.1 0-.2.1-.3.2l-48 44.7c-.6.6-1.3 1.2-2 1.7.8.7 1.6 1.5 2.3 2.2Z"/>
  <path fill="#5d5d5f" d="m182.6 197 .2-.3h-.4c0 .1 0 .2.1.3Zm51.7-44.4c.1 0 .2-.1.3-.2.4-.4.8-.9 1.2-1.3 15.8-14.8 31.7-29.5 47.5-44.2-.6-.8-1.2-1.4-1.7-2.1-.5-.7-1-1.4-1.6-2.3-.7.6-1.3 1-1.8 1.5-15.3 14.2-30.5 28.5-45.8 42.7-.9.8-1.5 1.5-1 2.8l3 3.3Z"/>
  <path fill="#808185" d="m283.3 106.9-47.5 44.2c-.4.4-.8.8-1.2 1.3 0 .3.2.5.3.8l1.2 1.8c.2.2.4.5.6.7 1.7.6 2.7-.2 4-1.3 14.8-13.9 29.7-27.8 44.6-41.6 2.2-2.1 2.2-2.3-.2-4.3-.6-.5-1.1-1.1-1.7-1.7Z"/>
  <path fill="#777778" d="m236.1 155.1-1.2-1.8 1.2 1.8Z"/>
  <path fill="#808185" d="m235 271.3 2.1-1.6c2.3 2.1 4.9 4.2 7 6.6 2.8 3.3 6.2 4 10.2 4 12.7 0 24.6-2.9 35.6-9.1 4-2.3 8.5-.4 9.1 4.2.6 4.4.5 8.6-.8 12.7a12 12 0 0 1-4.7 6.4c-9.9 6.7-20.6 10.5-32.7 9.4-7.4-.7-14.1-3.3-20.4-7.2-2.7-1.7-2.5-4.3-1.8-6.6.7-2.5 0-3.8-1.8-5.3-2.5-2.1-4.8-4.4-7.3-6.8.6-.7 1-1.3 1.5-1.9l2.2-2.2c.6-.8 1.2-1.6 1.9-2.5Zm54.1 12.7c1.8-1.1 3-1.8 4.3-2.5 3-1.8 3.1-2 2.3-5.5-.3-1.4-.6-2.6-2.4-2.4-1.7.2-4.2 2.2-4.2 3.4v7.1Zm-26.6-.6-5.1.3v7.1c2.2 0 4.2-.2 6.4-.2-.5-2.5-.9-4.7-1.3-7.2Zm19.8 3.9c1.5-1.2 3.4-1.8 3.5-2.8.4-2.3 0-4.6-.2-7.2l-4.5 1.8c.3 2.5.7 4.9 1.1 8.2Zm-3.3.7c-.4-2.6-.7-5.1-1.1-7.7l-4.5 1.4c.5 2.5.9 4.8 1.4 7.3l4.2-1Zm-13.1-5c.5 2.6.9 4.9 1.4 7.4l4.1-.7c-.5-2.5-.9-4.9-1.3-7.3l-4.2.6Zm3 10.8c.8 1.3 1.5 2.5 2.2 3.7 1.7 2.9 2.8 3.1 5.8 1.1-.8-1-1.6-2.1-2.4-3.1q-2-2.7-5.7-1.6Zm-.2 6.9c-2-6.1-3.6-7.2-9.2-6.3 3.3 1.9 4.7 6 9.2 6.3Zm7.9-8.4 4.1 5.3 3.3-1.4c-2.3-5-3.3-5.6-7.3-3.9Zm13.7-5.1c.8 1.4 1.5 2.6 2.1 3.8h.8l2.9-6.4-.5-.3-5.2 2.9Zm-6.6 2.8c1.3 1.6 2.4 3 3.7 4.5l2.4-1.4c-.9-1.6-1.8-3-2.6-4.5l-3.4 1.4Z"/>
  <path fill="#bbbcbe" d="M233.2 273.8 231 276c-.3-.4-.7-.8-1-1.1-26.2-24.4-52.3-48.8-78.5-73.1-.2-.1-.3-.3-.5-.4h-.1l2.3-2.3c5.1 4.8 10.1 9.5 15.2 14.2 21.6 20.2 43.2 40.3 64.8 60.5Z"/>
  <path fill="#a8a9ad" d="M233.2 273.8c-21.6-20.2-43.2-40.3-64.8-60.5-5.1-4.7-10.1-9.5-15.2-14.2.6-.7 1.1-1.4 1.7-2 .1 0 .2-.2.1-.3.1 0 .2.1.3.2 2.6 2.4 5.2 4.7 7.7 7.1l69.9 65.1c.7.7 1.4 1.4 2.2 2.1-.6.8-1.2 1.6-1.9 2.5Z"/>
  <path fill="#777778" d="M154.9 197c-.6.7-1.1 1.4-1.7 2-.7-.6-1.3-1.2-2-1.8l-48-44.7 3-3.3.5.4h.2c.3.6.5 1.3 1 1.7 16 14.9 31.9 29.8 47.9 44.6l-.5.8s-.2-.2-.3-.2h-.4l.2.3Z"/>
  <path fill="#354751" d="M106.7 149.8c-.2-.1-.3-.3-.5-.4.5-1.2-.2-2-1-2.8-15.3-14.2-30.5-28.4-45.8-42.7-.5-.5-1.1-.9-1.8-1.5-.6.9-1.1 1.7-1.6 2.3-.5.7-1.1 1.3-1.7 2l-10.6-9.8c-1.5 1.6-2.6 2.8-3.8 4-.9.9-.8 1.5 0 2.3 2.5 2.2 4.9 4.5 7.3 6.9.4.4.6 1.1.9 1.7l-10.2-9.5L48.5 91c3.3 3.1 6.6 6.2 10 9.3.1 0 .3.2.3.3-.8 3.2 2.2 4 3.8 5.5 14.4 13.6 28.9 27 43.3 40.5.5.5 1.1 1 1.6 1.5l-.8 1.8Z"/>
  <path fill="#777778" d="M48.2 111.8c-.3-.6-.5-1.3-.9-1.7-2.4-2.3-4.9-4.6-7.3-6.9-.9-.8-.9-1.5 0-2.3 1.2-1.2 2.3-2.4 3.8-4 3.6 3.4 7.1 6.6 10.6 9.8-.6.7-1.1 1.3-1.7 1.8-2.4 2-2.4 2.2-.2 4.3 14.9 13.9 29.8 27.7 44.6 41.6 1.2 1.1 2.3 1.9 4 1.3l1.3 1.2c0 .1-.2.2-.3.3l-2.6-.6-.3.7-1.4-1.3c-15.4-14.4-30.8-28.7-46.2-43.1-.9-.9-1.8-1.3-3-1.1Z"/>
  <path fill="#5d5d5f" d="M155.7 196.1c-16-14.9-32-29.7-47.9-44.6-.4-.4-.7-1-1-1.6 1.7 1.5 3.4 3 5 4.6 14.2 13.3 28.5 26.5 42.7 39.8.5.5.8 1.2 1.2 1.9Z"/>
  <path fill="#808185" d="M101.8 157.3c0-.1.2-.2.3-.3 15.7 14.6 31.4 29.3 47.1 43.9l-.3.3-1.7-1.4-43.6-40.6c-.6-.6-1.2-1.2-1.8-1.9Z"/>
  <path fill="#777778" d="m148.9 201.2.3-.3c.5.1 1.1.3 1.6.4h.1c-.8 1-1.5 1.2-2.1-.1Z"/>
  <path fill="#99999b" d="M150.8 201.3c-.5-.1-1.1-.3-1.6-.4-15.7-14.6-31.4-29.3-47.1-43.9-.4-.4-.9-.8-1.3-1.2.2-.2.4-.5.6-.7l1.2-1.8.3-.8c.1 0 .2.1.3.2l48 44.7c.6.6 1.3 1.2 2 1.7-.8.7-1.6 1.5-2.3 2.2Z"/>
  <path fill="#5d5d5f" d="m154.9 197-.2-.3h.4c0 .1 0 .2-.1.3Zm-51.7-44.4c-.1 0-.2-.1-.3-.2-.4-.4-.8-.9-1.2-1.3-15.8-14.8-31.7-29.5-47.5-44.2.6-.8 1.2-1.4 1.7-2.1.5-.7 1-1.4 1.6-2.3.7.6 1.3 1 1.8 1.5 15.3 14.2 30.5 28.5 45.8 42.7.9.8 1.5 1.5 1 2.8l-3 3.3Z"/>
  <path fill="#808185" d="m54.2 106.9 47.5 44.2c.4.4.8.8 1.2 1.3 0 .3-.2.5-.3.8l-1.2 1.8c-.2.2-.4.5-.6.7-1.7.6-2.7-.2-4-1.3a8772.8 8772.8 0 0 0-44.6-41.6c-2.2-2.1-2.2-2.3.2-4.3.6-.5 1.1-1.1 1.7-1.7Z"/>
  <path fill="#777778" d="m101.4 155.1 1.2-1.8-1.2 1.8Z"/>
  <path fill="#f8d74b" d="M-1.8 188.5H335v73.4H-1.8z"/>
  <g fill="#f8d74b">
    <path d="M329.7 94c-3.2-.4-5.3-3.1-5.3-6.1s.1-1.6.5-2.3c1.8-4.4-1.7-8.5-5.7-8.5s-2.2.3-3.3 1c-3.4 2.1-7.9.5-9.1-3.3-.9-2.8-3.4-4.3-5.8-4.3s-5 1.4-5.9 4.3c-.9 2.7-3.3 4.3-5.9 4.3s-2.2-.3-3.2-.9c-4.3-2.7-9.5.7-9.5 5.2s.2 1.6.5 2.4c.3.8.5 1.5.5 2.3 0 3-2.2 5.6-5.3 6.1-3.4.5-5.3 3.3-5.3 6.1s1 4.2 3.3 5.4c2.1 1.1 3.3 3.3 3.3 5.5s-.5 2.9-1.6 4.1c-3.7 4.1-.6 10.3 4.5 10.3s.9 0 1.4-.1c3.8-.8 7.4 2.1 7.4 6v.2c-.1 3.9 3 6.4 6.2 6.4s3.5-.7 4.8-2.4c1.2-1.6 3-2.4 4.9-2.4s3.6.8 4.8 2.4c3.6 4.6 11 2 11-3.8v-.3c-.1-3.6 2.7-6.4 6.1-6.4s.9 0 1.3.1c4.2.9 7.5-2.4 7.5-6.1s-.5-2.8-1.6-4.1a6.16 6.16 0 0 1 1.7-9.6c2.2-1.2 3.3-3.3 3.3-5.4s-1.9-5.7-5.3-6.1Zm-28.8 37.1a25.9 25.9 0 1 1 .01-51.81 25.9 25.9 0 0 1-.01 51.81Z"/>
    <path d="M327.8 105.2c0 14.9-12.1 26.9-26.9 26.9S274 120 274 105.2s12.1-26.9 26.9-26.9 26.9 12.1 26.9 26.9Z"/>
  </g>
  <path fill="red" d="M14.9 192.6c-6.3 0-11.3 5.1-11.3 11.3s.8 4.8 2.2 6.7l9.1 15.8 9.1-15.8a11.29 11.29 0 0 0-9.1-18Zm0 16.5c-2.8 0-5-2.2-5-5s2.2-5 5-5 5 2.2 5 5-2.2 5-5 5Z"/>
  <path fill="#f7e484" d="M104.3 317.4c-7 .1-13.2-2.3-18.4-6.8-7.2-6.2-10.8-14.2-10.1-23.8.7-11 6.2-19 15.9-24.2 4-2.2 8.4-3.2 13-3v2.2c-1.1.3-2.3.4-3.4.8-1.3.6-1.3 1.6 0 2.1 1 .5 2.2.6 3.3.8v3.8l-.7.2c-.9.6-2.1 1.1-2.6 2-1.3 2.4.1 4.6 3.3 5.4v7.1l-1 .3c-2.2.7-3.5 2.5-3.3 4.5.2 2.3 1.8 3.6 4.3 3.8v6.7c-1.5.2-2.8.7-3.4 2.3-1 2.6.3 4.6 3.4 5.3v4.6c-1 .1-2.1.2-3.1.4-.5.1-1 .7-1.2 1.2 0 .3.6 1 1 1.1 1 .4 2.2.5 3.2.7l-.3 2.2Zm-15.6-37.5c0 2.1 1.7 3.8 3.7 3.8s3.7-1.8 3.7-3.8c0-2-1.7-3.8-3.7-3.8s-3.7 1.7-3.7 3.8Zm0 15.7c0 2.1 1.6 3.8 3.6 3.9 2 0 3.8-1.7 3.8-3.7s-1.6-3.8-3.6-3.9c-2 0-3.7 1.6-3.8 3.7Zm-3.7 8.3c0 2.4 3.7 6.1 5.5 5.9.4 0 .9-.8.9-1.2 0-1.9-3.3-5.2-5.2-5.3-.5 0-1 .4-1.2.6Zm-2-15.4c-.3-1.1-.5-2.3-.9-3.3-.6-1.2-1.4-1.3-2 0a7.42 7.42 0 0 0 0 6.8c.2.4.7.9 1 .9.4 0 1-.5 1.2-1 .4-1 .6-2.1.9-3.3Zm2-15.6c.3.2.8.7 1.3.7 1.8 0 5-3.4 5.2-5.2.1-.9-.2-1.4-1.2-1.3-1.9.2-5.2 3.5-5.3 5.8Z"/>
  <path fill="#f8d74b" d="M104.6 311.6V307c2.3-.4 3.7-1.7 3.7-3.8 0-2-1.4-3.4-3.7-3.6v-6.7c1.2-.6 2.7-1 3.5-2 2.1-2.5.2-6.4-3.5-6.8v-7.3c2.3-.3 3.6-1.6 3.7-3.6 0-2-1.3-3.3-3.7-3.8v-4c1.2-.3 2.5-.4 3.6-.9 1-.4.9-1.4 0-1.8-1.1-.5-2.4-.6-3.6-.9v-2.3c8.2 0 15.2 3 20.9 8.9 12.9 13.5 10.1 35.1-6.1 45-4.6 2.8-9.6 4.2-15 3.9l.3-2.2 1.7-.3h.6c.3-.2.6-.2.8-.4l1.2-1.2c-.5-.4-.9-1-1.4-1.2-.9-.3-1.9-.2-2.9-.3Zm16.6-31.9c0-2-1.8-3.8-3.8-3.7-2 0-3.7 1.8-3.7 3.8 0 2 1.8 3.7 3.8 3.7 2 0 3.7-1.8 3.7-3.8Zm0 15.9c0-2-1.7-3.8-3.7-3.8s-3.8 1.8-3.8 3.7c0 2 1.7 3.8 3.7 3.8s3.8-1.7 3.8-3.7Zm3-22.8c-.1-2.4-3.5-5.9-5.4-5.9-1.1 0-1.4.7-1.1 1.6.9 2.4 2.6 4 4.9 4.9.4.2 1.1-.4 1.6-.5Zm-.7 30.3c-2.3 0-5.7 3.5-5.9 5.3 0 1 .4 1.5 1.4 1.3 1.8-.3 4.9-3.4 5.1-5.2 0-.5-.4-1-.6-1.4Zm6.6-14.7c-.3-1.2-.4-2.4-.9-3.4-.5-1.3-1.4-1.3-2-.1a7.33 7.33 0 0 0 0 6.9c.6 1.2 1.5 1.2 2.1 0 .5-1 .6-2.2.9-3.4Z"/>
  <path fill="#5d5d5f" d="M88.8 279.9c0-2.1 1.7-3.8 3.7-3.8s3.7 1.8 3.7 3.8c0 2-1.7 3.8-3.7 3.8s-3.7-1.7-3.7-3.8Zm0 15.7c0-2.1 1.8-3.8 3.8-3.7 2 0 3.7 1.9 3.6 3.9 0 2-1.8 3.7-3.8 3.7-2 0-3.6-1.8-3.6-3.9Z"/>
  <path fill="#354751" d="M104.6 284.1c3.7.4 5.6 4.3 3.5 6.8-.8 1-2.3 1.3-3.5 2v-6.6c0-.6-.6-1.2-1-1.8l1-.3Z"/>
  <path fill="#5d5d5f" d="M103.6 284.5c.3.6.9 1.2 1 1.8.1 2.2 0 4.4 0 6.5-2.5-.2-4.1-1.6-4.3-3.8-.2-2.1 1.1-3.9 3.3-4.5Zm-18.5 19.4c.3-.1.8-.6 1.2-.6 1.9 0 5.2 3.4 5.2 5.3 0 .4-.6 1.2-.9 1.2-1.8.2-5.5-3.6-5.5-5.9Zm-2-15.4c-.3 1.2-.5 2.3-.9 3.3-.2.4-.7.9-1.2 1-.3 0-.9-.5-1-.9-1-2.3-1-4.6 0-6.8.6-1.2 1.5-1.2 2 0 .5 1 .6 2.2.9 3.3Zm1.9-15.7c.1-2.3 3.4-5.7 5.3-5.8 1 0 1.3.4 1.2 1.3-.2 1.8-3.4 5.1-5.2 5.2-.5 0-1-.5-1.3-.7Z"/>
  <path fill="#354751" d="M104.7 269.4c2.4.5 3.7 1.9 3.7 3.8 0 2-1.4 3.3-3.7 3.6v-5.4c0-.6-.4-1.2-.6-1.7l.7-.2Z"/>
  <path fill="#5d5d5f" d="M104 269.6c.2.6.6 1.2.6 1.7v5.6c-3.2-.8-4.6-3-3.3-5.4.5-.9 1.7-1.3 2.6-2Zm.7 37.5c-3.1-.7-4.4-2.7-3.4-5.3.6-1.6 1.9-2.1 3.4-2.3v7.4Zm0 8c-1.1-.2-2.2-.4-3.2-.7-.4-.2-1.1-.8-1-1.1.1-.5.7-1.1 1.2-1.2 1-.3 2.1-.3 3.1-.4v3.4Zm-.1-49.5c-1.1-.3-2.3-.4-3.3-.8-1.3-.6-1.3-1.6 0-2.1 1-.5 2.2-.6 3.4-.8v3.8Z"/>
  <path fill="#354751" d="M121.2 279.9c0 2-1.7 3.8-3.7 3.8s-3.8-1.7-3.8-3.7 1.7-3.8 3.7-3.8 3.7 1.7 3.8 3.7Zm0 15.9c0 2-1.8 3.8-3.8 3.7-2 0-3.7-1.8-3.7-3.8 0-2 1.8-3.7 3.8-3.7 2 0 3.7 1.8 3.7 3.8Zm3-22.8c-.4.2-1.1.7-1.6.5-2.4-.8-4-2.5-4.9-4.9-.3-.9 0-1.6 1.1-1.6 1.9 0 5.3 3.5 5.4 5.9Zm-.7 30.3c.2.4.6.9.6 1.4-.2 1.8-3.2 4.8-5.1 5.2-1 .2-1.5-.3-1.4-1.3.1-1.8 3.6-5.2 5.9-5.3Zm6.6-14.7c-.3 1.2-.4 2.4-.9 3.4-.5 1.2-1.5 1.2-2.1 0a7.63 7.63 0 0 1 0-6.9c.6-1.2 1.5-1.2 2 .1.4 1 .6 2.2.9 3.4Zm-25.5 18.3v-7.3c2.3.2 3.7 1.6 3.7 3.6 0 2.1-1.4 3.4-3.7 3.7Zm0-41.5v-3.5c1.2.3 2.5.4 3.6.9.9.4.9 1.4 0 1.8-1.1.5-2.4.6-3.6.9Zm0 49.6v-3.3c1 0 2 0 2.9.3.5.2 1 .8 1.4 1.2l-1.2 1.2c-.2.2-.5.2-.8.3h-.6l-1.7.3Z"/>
  <path fill="#5d5d5f" d="M106.4 314.8Z"/>
  <path fill="none" stroke="#f8d74b" stroke-miterlimit="10" stroke-width="3" d="M232.6 284.6h95.1V314h-95.1z"/>
</svg>
