<svg xmlns="http://www.w3.org/2000/svg" xmlns:xlink="http://www.w3.org/1999/xlink" width="335" height="335">
    <style>
        .B{opacity:.2}.C{fill:url(#B)}.D{fill:#abc837}.E{fill:#445016}
    </style>
    <defs>
        <linearGradient id="I" x1="253.1" y1="35.1" x2="335" y2="35.1" xlink:href="#b">
            <stop offset="0" stop-color="#fcd555"/>
            <stop offset="0" stop-color="#facc47"/>
            <stop offset=".1" stop-color="#f7bf31"/>
            <stop offset=".2" stop-color="#f4b420"/>
            <stop offset=".3" stop-color="#f3ad14"/>
            <stop offset=".5" stop-color="#f2a90d"/>
            <stop offset="1" stop-color="#f2a80c"/>
        </linearGradient>
        <linearGradient id="J" x1="256.5" y1="33.7" x2="335" y2="33.7" xlink:href="#b">
            <stop offset="0" stop-color="#fcd555"/>
            <stop offset="1" stop-color="#f2a80c"/>
        </linearGradient>
        <linearGradient id="K" x1="264.1" y1="30.5" y2="30.5" xlink:href="#I"/>
        <linearGradient id="L" x1="266.8" y1="29.3" y2="29.3" xlink:href="#J"/>
        <linearGradient id="M" x1="65.4" y1="306.9" x2="0" y2="306.9" xlink:href="#I"/>
        <linearGradient id="N" x1="62.8" y1="308" x2="0" y2="308" xlink:href="#J"/>
        <linearGradient id="O" x1="56.7" y1="310.6" x2="0" y2="310.6" xlink:href="#I"/>
        <linearGradient id="P" x1="54.5" y1="311.6" x2="0" y2="311.6" xlink:href="#J"/>
        <linearGradient id="Q" x1="220.1" y1="267.9" x2="316.6" y2="267.9" xlink:href="#J"/>
        <linearGradient id="R" x1="86.9" y1="129.7" x2="89.4" y2="129.7" xlink:href="#J"/>
        <linearGradient id="S" x1="245.6" y1="129.2" x2="248.1" y2="129.2" xlink:href="#J"/>
        <linearGradient id="T" x1="49.5" y1="276.4" x2="145.6" y2="276.4" xlink:href="#J"/>
        <linearGradient id="b" gradientUnits="userSpaceOnUse"/>
        <radialGradient id="A" cx="167.5" cy="167.5" fx="167.5" fy="167.5" r="167.5" xlink:href="#b">
            <stop offset="0" stop-color="#ea1b23"/>
            <stop offset="1" stop-color="#7f090b"/>
        </radialGradient>
        <radialGradient id="B" cx="167.5" cy="167.5" fx="167.5" fy="167.5" r="233.5" xlink:href="#b">
            <stop offset="0" stop-color="red"/>
            <stop offset=".4" stop-color="#fd0000"/>
            <stop offset=".5" stop-color="#f60000"/>
            <stop offset=".6" stop-color="#ea0000"/>
            <stop offset=".7" stop-color="#d90000"/>
            <stop offset=".7" stop-color="#c30000"/>
            <stop offset=".8" stop-color="#a80000"/>
            <stop offset=".9" stop-color="#870000"/>
            <stop offset=".9" stop-color="#620000"/>
            <stop offset="1" stop-color="#370000"/>
            <stop offset="1" stop-color="#090000"/>
            <stop offset="1"/>
        </radialGradient>
        <radialGradient id="C" cx="167.6" fx="167.6" r="233.6" xlink:href="#B"/>
        <radialGradient id="D" xlink:href="#B"/>
        <radialGradient id="E" xlink:href="#B"/>
        <radialGradient id="F" cx="167.6" fx="167.6" r="233.9" xlink:href="#B"/>
        <radialGradient id="G" cx="-852.3" cy="-274.6" fx="-852.3" fy="-274.6" r="1.7" gradientTransform="matrix(-.00768 -1.09997 -.99998 .00698 -196.6 -968.2)" xlink:href="#b">
            <stop offset="0" stop-color="red"/>
            <stop offset="1" stop-color="#500"/>
        </radialGradient>
        <radialGradient id="H" xlink:href="#G"/>
        <path id="U" d="M29.7 88.5s0 .2-.1.2v.5c0 .2.1.4.3.5l.4-.2.6-1.2c-.4-.3-.9-.2-1.1.1Z"/>
        <path id="V" d="M33.9 86.3c-.3-.5-.9-.6-1.4-.3l-.2.2c-.2.3-.5.7-.7 1.1l.5-.2s0 .2.1.3h.1c.1-.2.1-.3.2-.5l1.4-.5Z"/>
        <path id="W" d="M31.3 86c-.2.2-.3.4-.5.5 0 .3 0 .7.3.9l.4-.2c.2-.4.5-.7.7-1.1-.3-.2-.6-.2-.9-.1Z"/>
        <path id="X" d="M30.7 83.8v.2c0 .2-.1.5-.2.7l1.3-.5c-.2-.4-.7-.5-1.1-.4Z"/>
        <path id="Y" d="M28.8 84.1c-.3.4-.2.9.1 1.2l.7-.3c.1-.3.2-.7.3-1.1-.4-.3-.9-.2-1.1.1Z"/>
        <path id="Z" d="M30.7 83.8c-.1 0-.2 0-.3.1l-.2.2V84c0 .4-.2.7-.3 1.1h.2s0 .2.1.3l.1-.1c.1-.1.1-.3.2-.4h.2c0-.3.1-.5.2-.8v-.2Z"/>
        <path id="a" d="m31.9 88.9.7-.3c0-.1-.2-.2-.4-.3 0 0-.1 0-.2.1s-.2.3-.2.5Z"/>
    </defs>
    <path fill="url(#A)" d="M0 0h335v335H0z"/>
    <path d="M143.3 220.7 89.9 335h2.7l50.6-114.3zm-10.7-9.1L32.4 335h4.7l95.5-123.4zm22.6 62.7-7.4 60.7h1l6.4-60.7zm-57.6-71.8L0 250.3v2.4l97.6-50.2z" class="B C"/>
    <path d="M111.7 199.9 0 263.5v3.1l111.7-66.7z" fill="url(#C)" class="B"/>
    <path d="m77.2 256.2-77 74.2 1.4 1.5 75.6-75.7zm51.4-15.5L77.2 335h2.3l49.1-94.3zm41.5 94.3-2-103.1.1 103.1h1.9zM87.8 228.3 0 294v2.8l87.8-68.5zm-54 28.6L0 279.3v.6l33.8-23zm105.7 67.6-1.9 10.5h.1l1.8-10.5zm-4-110.8L49 335h4l82.5-121.3zm-11.8 26.2L64.6 335h2.6l56.5-95.1zm21 21L126 335h1.3l17.3-74.1zm-16.4 9.4L103 335h1.2l24.1-64.7zm35.1-24.7L158 335h1.6l3.8-89.4zm60.5-46.9L335 262v-3l-111.1-60.3zm36.6 6.1 74.5 30.7V234l-74.5-29.2zm52.2 31.8 22.3 10.8v-.3l-22.3-10.5zm-133.6 91.3.5 7.1-.5-7.1zm75.2-96.9 80.7 60.3v-2.4L254.3 231zm-2.3-62.9 83 1.3V168h-83zm-28.5 3.4 111.5 8.7v-2.1l-111.5-6.7zm66.6 98 44.9 37.9v-.9l-44.9-36.9zm-.2-69.8 45.1 12.2v-.7l-45.1-11.5zm21.3-13.8-88-10.9L335 190.8v-2.1l-23.8-2.8zm-77.8 23.7L335 276.2v-2.9l-101.6-63.7zm-41.7 8.6L246.3 335h2.9l-57.5-116.8zm-3.1 1.4L234 335h2.7l-48.1-115.4zm11.4 70.2 11.6 45.2h.7L200 289.8zm-19-23 8.6 68.2h1.1l-9.7-68.2zm154 56.7-97.6-90 97.6 94.1v-4.1zm-126.3-82.1 51.2 93.6h2.4l-53.6-93.6zm28.8 10.9 67 82.7h2.8l-69.7-82.7z" class="B C"/>
    <path d="M201.8 214.8 287.1 335h4.1l-89.4-120.2zM252.8 300.8l-40.9-63.3 60.6 97.5h2.7l-22.4-34.2z" fill="url(#D)" class="B"/>
    <path d="M198.7 11.1 201 0h-.1l-2.1 11.1zm1.7 110.9L291.2 0H287l-86.6 122z" class="B C"/>
    <path d="M208.7 65.5 235.9 0h-1.3l-25.9 65.5z" fill="url(#D)" class="B"/>
    <path d="M192.2 74.5 212.6 0h-1.4l-19.1 74.5zm15.7 20.6L262.3 0h-2.4l-52 95.1z" class="B C"/>
    <path d="M212.7 96.1 275.1 0h-2.7l-59.7 96.1z" fill="url(#D)" class="B"/>
    <path d="M192.7 114.8 249.2 0h-2.8l-53.7 114.8zm33.1 48.6 109.2-6.5v-2l-109.2 8.6zM156 67.9 148.8 0h-1.1l8.3 67.9z" class="B C"/>
    <path d="m159.1 6.9-.3-6.9.4 6.9z" fill="url(#E)" class="B"/>
    <path d="M189.7 0 182 60.9 190.7 0h-1zm-10.9 0-5.6 89.5L180.4 0h-1.6zm-8.7 0h-1.9v103.1l2-103.1zm148.8 117.4 16.1-5.2v-.2l-16.1 5.4zM260.5 143l74.5-18.9v-1.4l-74.5 20.2zm6.8-15.6 67.7-26.6v-1.3l-67.7 27.9z" class="B C"/>
    <path d="M303.3 0 203.2 124.1 308.3 0h-4.9z" fill="url(#D)" class="B"/>
    <path d="m276.5 153 58.5-7.3v-.9l-58.5 8.2zm58.5 14v-1.4l-84.6 1.4H335zm-75.5-86.3L335 10.8V8.1l-75.5 72.6zm-11.1 27.6L335 46.2v-2.6l-86.6 64.8zm-24.5 28L335 76v-3l-111.1 63.3zm79-55.5L335 60.5V60l-32.1 20.8zm5.1 19.1-69.9 34L335 88.8v-2.3l-27 13.4zm-173.8 19.6L52.9 0H49l85.2 119.5zm-51.3 45.6-82.9-3v1.4l82.9 1.6z" class="B C"/>
    <path d="M111.5 162.4 0 151.4v2.1l111.5 8.9z" fill="url(#D)" class="B"/>
    <path d="M137.5 44.5 127 0h-.7l11.2 44.5zm-62.3 83.8L0 95.4V97l75.2 31.3z" class="B C"/>
    <path d="M45.7 132.8 0 119.4v.7l45.7 12.6zM17.1 220.7l-17.1 6v.2l17.1-6.2zM23.7 95.4 0 83.3v.3l23.7 11.8zM75 193.9 0 214.5v1.4l75-22z" fill="url(#D)" class="B"/>
    <path d="M109.3 172.8 0 181.6v2l109.3-10.8zm-24.7-3L0 171.4v1.4l84.6-3.1zm-25.8 14.5L0 192.8v.9l58.8-9.4zm53.1-25.4L0 140.7v2.1l111.9 16zm15.9-66.1L79.4 0h-2.3l50.6 92.8zm-3.3 3.8L67.2 0h-2.6l60 96.6zm19.8 19.7L92.7 0h-2.8l54.3 116.3zm3.2-1.4L104.9 0h-2.6l45.1 114.9zm-79 94.7L0 238.1v1.4l68.5-29.9z" class="B C"/>
    <path d="M111.7 135.1 0 68.4v3.1l111.7 63.6z" fill="url(#F)" class="B"/>
    <path d="M82 102.3 0 38.4v2.5l82 61.4zm20.5 21.8L38.3 80.3 0 53.9V57l102.5 67.1zm-3.3-42.8L36.1 0h-2.6l65.7 81.3zM0 5.1l98.9 95-97-97.4-1.9 2v.4zm47 58L0 21.8v1l47 40.3z" class="B C"/>
    <path fill="url(#I)" d="m335 70.3-35.7-32.8L253.1 0H335v70.3z"/>
    <path fill="url(#J)" d="M335 67.4 300.7 36 256.5 0H335v67.4z"/>
    <path fill="url(#K)" d="m335 60.9-31-28.4L264.1 0H335v60.9z"/>
    <path fill="url(#L)" d="m335 58.6-29.8-27.3L266.8 0H335v58.6z"/>
    <path fill="url(#M)" d="M0 278.8 28.6 305l36.9 30H0v-56.2z"/>
    <path fill="url(#N)" d="m0 281.1 27.4 25.1L62.8 335H0v-53.9z"/>
    <path fill="url(#O)" d="M0 286.3 24.8 309l31.9 26H0v-48.7z"/>
    <path fill="url(#P)" d="M0 288.2 23.8 310l30.8 25H0v-46.8z"/>
    <g fill="#fff">
        <path d="M29.9 18.2c0 .3-.1.6-.3.8l-3.7 3.7-3.9-2.3v-2.2c0-.6.5-1.2 1.2-1.2s1.2.5 1.2 1.2V21l3.6-3.6c.5-.5 1.2-.5 1.6 0 .2.2.3.5.3.8m-1.2 10.6h-.4c-.1 0-.3-.1-.4-.3l-3.6-3.6v2.8c0 .6-.5 1.2-1.2 1.2s-1.2-.5-1.2-1.2v-2.2l3.9-2.3 3.7 3.7c.7.7.2 2-.8 2m-3-6s0-.1-.1-.1l-1-.6-2.6-1.5-2.2-1.3h-.4v6.9c0 .1.1.3.3.3h.1l2.2-1.3 3.6-2.1v-.1Zm-.9.1v.1L22 24.7l-1.7 1H20v-5.4c0-.1 0-.2.2-.2h.1l1.7 1 2.8 1.6s.1.1 0 .2Z"/>
        <path d="m24 23-2.1 1.2-1.3.8h-.2v-4s0-.2.2-.2l1.3.8 2.1 1.2m25.1 0-.1-.1-3.2-1.6-2-1c-.2 0-.3 0-.3.2v5.4c0 .2.3.3.4.2l2-1.1 3.2-1.7.1-.1v-.1Zm-.8.1-2.5 1.3-1.5.8c-.1 0-.3 0-.3-.1v-4.2s0-.2.1-.2l1.6.8 2.5 1.3Z"/>
        <path d="m47.6 22.9-1.9 1-1.2.6h-.2v-3.1s0-.1.1-.1l1.2.6 1.9 1m-15.2-2.8h2.8c1.4 0 2.4.7 2.4 1.8s-1 1.9-2.3 1.9h-1.5v1.8h-1.3V20zm2.6 2.7c.7 0 1.1-.3 1.1-.8s-.5-.8-1.1-.8h-1.3v1.6h1.3zm7.8 1.9v1.1h-4.4v-5.5h1.3v4.5h3.2zm7.8-1.1L48 20h1.6l1.6 2.4 1.6-2.5h1.5l-2.4 3.6v2h-1.3v-2zm4.7-3.2h.7v3.1l3.2-3.1h.9L57.4 23l2.8 3h-.9l-2.4-2.6-1 .9V26h-.7v-5.6zm5.4 2.7c0-1.6 1.4-2.9 3.2-2.9 1.7 0 3.2 1.3 3.2 2.9S65.6 26 63.8 26s-3.2-1.3-3.2-2.9zm5.7 0c0-1.2-1.2-2.3-2.5-2.3s-2.5 1.1-2.5 2.3 1.2 2.3 2.5 2.3 2.5-1.1 2.4-2.3zm1.6 2 .4-.5c.5.5 1.2.8 2.1.8 1 0 1.5-.5 1.4-1 0-.6-.6-.8-1.7-1-1.3-.2-2.1-.6-2.1-1.6 0-.9.9-1.6 2.1-1.6.8 0 1.6.3 2.2.8l-.4.5c-.5-.4-1.1-.7-1.8-.7-.8 0-1.3.5-1.3 1 0 .6.6.8 1.7 1 1.2.2 2.1.6 2.1 1.6 0 .9-.7 1.6-2.2 1.6-1 0-1.8-.3-2.5-.9zm5.9-4.7h.7l2.4 3.9 2.3-3.9h.7V26h-.6v-4.2L77 25.7l-2.4-3.9V26h-.7v-5.6zm7.5 2.7c0-1.6 1.4-2.9 3.2-2.9 1.7 0 3.2 1.3 3.2 2.9S86.3 26 84.5 26s-3.2-1.3-3.2-2.9zm5.7 0c0-1.2-1.2-2.3-2.5-2.3S82 21.9 82 23.1s1.2 2.3 2.5 2.3 2.5-1.1 2.4-2.3zm1.6 2 .4-.5c.5.5 1.2.8 2.1.8 1 0 1.5-.5 1.4-1 0-.6-.6-.8-1.7-1-1.3-.2-2.1-.6-2.1-1.6 0-.9.9-1.6 2.1-1.6.8 0 1.6.3 2.2.8l-.4.5c-.5-.4-1.1-.7-1.8-.7-.8 0-1.3.5-1.3 1 0 .6.6.8 1.7 1 1.2.2 2.1.6 2.1 1.6 0 .9-.7 1.6-2.2 1.6-1 0-1.8-.3-2.5-.9z"/>
    </g>
    <circle cx="268.4" cy="267.9" r="48.2" fill="url(#Q)"/>
    <path d="M237 314.3c-14.9-10.1-24.6-27.1-24.6-46.4s6.9-30.8 17.9-41c.5 1.7 1.5 3.1 2.9 4.2-9.7 9.3-15.8 22.4-15.8 36.9s8.8 33 22.3 42.2c-1.3 1.1-2.2 2.6-2.6 4.2Zm82.1-51.8c1-.4 2.1-.6 3.3-.6s1.2 0 1.7.2c-2.9-28.2-26.8-50.1-55.7-50.1s-16.9 2-24.3 5.5c1.3 1.1 2.3 2.5 2.9 4.2 6.5-3 13.8-4.7 21.4-4.7 26.3 0 48 20 50.7 45.6Zm3.3 16.9c-1.5 0-2.8-.4-4-1-4.8 23.2-25.4 40.6-50 40.6s-9.7-.7-14.2-2c0 1.8-.6 3.4-1.6 4.7 5 1.5 10.3 2.3 15.8 2.3 27 0 49.6-19.1 54.9-44.6h-.9Z" fill="#fff"/>
    <circle cx="268.4" cy="267.9" r="45.4" fill="#3aff4e"/>
    <path d="M22.3 197.7c0-3-2.4-5.5-5.5-5.5s-5.5 2.4-5.5 5.5.8 3.2 2 4.2l2.8 3c.1.2.4.3.6.3s.5-.1.6-.3l3-3.1c.3-.2.5-.5.7-.7.7-1 1.1-2.2 1.1-3.4Zm-5.5 2.7c-1.7 0-3-1.4-3-3s1.4-3 3-3 3 1.4 3 3-1.4 3-3 3Z" fill="#fff"/>
    <path fill="url(#R)" d="M86.9 114.7h2.5v30h-2.5z"/>
    <path fill="url(#S)" d="M245.6 114.2h2.5v30h-2.5z"/>
    <path fill="url(#T)" d="M49.5 264.7h96.1v23.5H49.5z"/>
    <g fill="#fff">
        <circle cx="318.5" cy="223.5" r="6.9"/>
        <circle cx="229.3" cy="323.9" r="6.9"/>
    </g>
    <g class="E">
        <path d="M30.7 83.8c.4 0 .8 0 1.1.4l-1.3.5-.6 2.7c.6-1 1.4-2.2 2.4-3 0-.2 0-.5.1-.7.1-1.9-.5-3.1-.9-3.7v.6c-.1 1.1-.5 2.1-.7 3.2Z"/>
        <path d="M28.9 85.3c-.4-.3-.4-.8-.1-1.2.3-.3.8-.4 1.1-.1 0-.2.1-.3.1-.5.3-1.1.4-2.2.6-3.3.2-1 .2-2 .3-3 .2-1.4.3-2.8.3-4.1 0-.9.2-1.9.1-2.8v-1.5c0-.3-.1-.5-.2-.8 0-.4 0-.8-.2-1.3 0-.5-.2-1-.4-1.4s-.4-.8-.5-1.3c-.2-.5-.4-1-.5-1.5 0-.2-.1-.4-.2-.5v-.3c0 .2.1.4.2.5.1.3.3.6.5.9.4.5.7 1.1.8 1.8.1.5.3 1 .5 1.5s.3 1.1.2 1.6c0 .3 0 .6.2.9.3.9.2 1.9.1 2.9-.1.9-.2 1.8-.1 2.6l-.1 2.9c-.1.7-.2 1.5-.2 2.2.7.3 2.1.7 3.3-.4 0-.4-.2-.7-.2-1.1 0-1.2.5-2.1 1-2.7l-.2-.2h.3c.6-.6 1.3-.9 1.3-.9s-2.1-.8-2.1-4 2.3-3.5 2.3-3.5-3.2.4-4.5-2.6-3.8-3.4-3.8-3.4 1.3 1.4 0 3.8c-1.8 3.1-4 3.1-4 3.1s1.8 1 1.6 4-2.9 4.5-2.9 4.5 1.8-.7 2.5 2.3c.7 2.9-2.2 3.7-2.2 3.7s2.1-.3 4.1 1.8c.8.8 1.1 1.7 1.2 2.5l.7-1.6-.7.3z"/>
    </g>
    <path d="m31.8 74.5.1-2.6c.1-1 .2-2-.1-2.9-.1-.3-.2-.6-.2-.9 0-.6 0-1.1-.2-1.6s-.3-1-.5-1.5c-.2-.6-.5-1.2-.8-1.8-.2-.3-.4-.6-.5-.9-.1-.2-.1-.3-.2-.5v.3c.1.2.2.3.2.5.1.5.4 1 .5 1.5.1.4.3.9.5 1.3.2.5.3.9.4 1.4 0 .4.1.8.2 1.3 0 .3.2.5.2.8v1.5l-.1 2.8c0 1.4-.1 2.8-.3 4.1l-.3 3c-.3 1.1-.4 2.2-.6 3.3 0 .2-.1.3-.1.5v.1l.2-.2c.1 0 .2-.1.3-.1.2-1.1.6-2.1.7-3.2v-.6c-.3-.4-.5-.6-.5-.6s.2.1.5.3c0-.8.1-1.5.2-2.2.2-1 .2-1.9.1-2.9zm-2.7 14.1c.2-.3.4-.5.6-.7 0-.1 0-.3.1-.4l.6-2.7h-.2c0 .2 0 .4-.2.5l-.1.1c0-.1-.1-.2-.1-.4h-.2c-.2.6-.4 1.2-.7 1.7L27.7 89c.4-.1.9-.2 1.3-.4z" class="D"/>
    <path d="M48.2 70.9c-3.6.6-5.6-.1-5.6-.1s.4 2-2 3.8c-1.9 1.4-4.2 1.1-5 .8h-.3s.1 0 .2.2c.4.4 1 1.4-.3 3.2-.2.2-.3.4-.5.6-1.2 1.1-2.6.7-3.3.4-.3-.1-.5-.3-.5-.3s.2.2.5.6c.4.6 1 1.9.9 3.7 0 .3 0 .5-.1.7 0 .3-.2.6-.3.9.1-.1.2-.2.3-.4.9-.9 1.6-2 2.6-2.9l2.7-2.3c.8-.8 1.6-1.4 2.5-2 .8-.5 1.6-1.1 2.3-1.8.8-.7 1.7-1.4 2.7-1.7.4 0 .7-.2 1-.4.5-.4 1.1-.6 1.7-.8.6-.1 1.1-.3 1.7-.5.7-.2 1.4-.3 2.2-.3.4 0 .8 0 1.2-.1.2 0 .4 0 .6-.1 0 0-.2 0-.3.1-.2 0-.4 0-.6.1-.6.2-1.2.3-1.7.4s-1 .3-1.5.3c-.5.1-1 .3-1.5.6l-1.3.6c-.3.1-.6.1-.8.3l-1.4.9c-.9.6-1.6 1.3-2.4 1.9-1.3.8-2.4 1.8-3.5 2.8l-2.5 2.2-2.5 2.6c-.3.3-.6.7-.8 1.1l.2-.2c.5-.3 1.1-.2 1.4.3l-1.4.5c0 .1 0 .3-.2.4.9-.2 2-.5 2.9-.8 2.3-.6 3.9 1 3.9 1s.8-2.2 2-3.4c1.8-1.8 4.4-.6 4.4-.6s-.7-2.2 1.7-4.3 4.2-.6 4.2-.6-1.7-1.3-.3-4.2 3.5-2.4 3.5-2.4-3.6-1.8-6.3-1.3zM31.5 87.2s-.1.2-.2.3c.3 0 .5-.1.8-.2 0 0 0-.2-.1-.3l-.5.2z" fill="#2d5016"/>
    <path d="M29.6 89.2v.9h-.7l.2.2c.2.3.4.5.6.8l.7-1.6-.4.2c-.2-.1-.2-.3-.3-.5zm2.6-3.1L33 85l2.5-2.6c.8-.8 1.7-1.5 2.5-2.2 1.1-1 2.3-2 3.5-2.8l2.4-1.9 1.4-.9c.2-.2.6-.2.8-.3l1.3-.6c.5-.2 1-.5 1.5-.6.5 0 1-.2 1.5-.3.6-.2 1.2-.3 1.7-.4.2 0 .4-.1.6-.1 0 0 .2 0 .3-.1-.2 0-.4.1-.6.1-.4 0-.8.2-1.2.1-.7 0-1.5 0-2.2.3-.6.2-1.1.4-1.7.5-.6.2-1.2.4-1.7.8-.3.2-.6.4-1 .4-1 .3-1.9 1-2.7 1.7-.7.6-1.4 1.3-2.3 1.8-.9.6-1.8 1.2-2.5 2-.8.8-1.7 1.6-2.7 2.3-.9.9-1.7 1.9-2.6 2.9-.1.1-.2.2-.3.4-.2.2-.4.4-.6.7.3-.1.6 0 .9.1zm-1.1 1.3c-.3-.2-.4-.6-.3-.9-.4.4-.8.9-1.1 1.3-.2.2-.4.5-.6.7.2 0 .4-.1.6-.2v.3-.2c.3-.3.8-.4 1.1-.1.1-.3.3-.5.5-.8 0-.1.1-.2.2-.3l-.4.2z" class="D"/>
    <g fill="#677821">
        <path d="M24.6 90.1h-3.1l-2.9-.5c-.9 0-1.7-.3-2.6-.5-.8-.3-1.6-.4-2.4-.5-.9-.1-1.8-.3-2.6-.8-.2-.2-.5-.3-.8-.4-.5-.1-1-.3-1.4-.6s-.8-.6-1.3-.8c-.5-.3-1-.8-1.5-1.2-.2-.3-.5-.5-.8-.7l-.3-.3c.2.8.7 2.3 2.4 3.6C9.6 89.2 9.1 91 9.1 91s.5-1.9 3.2-1.1 3.2 2.8 3.2 2.8 1.2-2 3.3-1.2c1.4.5 3 2 3 2s.3-2 2.2-2.4l4.5-.9h-4z"/>
        <path d="m5.6 84.1 1.3.9c.4.2.7.5 1.1.8s.8.5 1.2.7l1.1.5c.2.1.4.3.7.4.5.1.9.3 1.4.4.8.3 1.7.3 2.5.5 1.2.4 2.5.6 3.7.7l2.7.4c1 0 2 .2 3 .2.6 0 1.2 0 1.7-.1-.5-.3-1.1-.8-1.5-1.4-1.5-2.3-1.1-4.1-1.1-4.1s-.9 2.4-3.3 1c-2.4-1.3-1.7-2.7-1.7-2.7s-1.5 2-4 1.4c-2.5-.5-3.2-2.3-3.2-2.3s-.1 1.9-2.9 2.8c-2.1.7-3.2-.9-3.2-.9v.5h.1c.1.1.3.3.4.3z"/>
    </g>
    <path d="M29.6 89.2v-.8c-.2 0-.3.1-.5.2-.4.1-.9.3-1.3.4-.6.2-1.2.3-1.9.4-.6 0-1.1.1-1.7.1-1 0-2-.2-3-.2-.9 0-1.8-.3-2.7-.4l-3.7-.7-2.5-.5c-.5-.1-.9-.3-1.4-.4-.2 0-.4-.3-.7-.4l-1.1-.5c-.4-.2-.8-.4-1.2-.7-.3-.3-.7-.6-1.1-.8L5.5 84c-.2 0-.3-.2-.4-.3h-.2.1c.1 0 .2.2.3.3.3.2.5.4.8.7.4.5.9.9 1.5 1.2.4.3.9.5 1.3.8.5.3.9.5 1.4.6.3 0 .6.2.8.4.8.5 1.7.7 2.6.8.8.1 1.6.2 2.4.5.9.3 1.7.5 2.6.5 1 0 1.9.3 2.9.5 1 .1 2.1 0 3.1 0h4.7v-.9z" class="D"/>
    <path d="M30.8 89.3c0 .1 0 .2.1.4l.1-.1c.1-.1.1-.3.2-.4l.7-.3c0-.2 0-.3.2-.5 0 0 .1-.1.2-.1-.3-.2-.7-.2-1 0l-.2.2v-.1l-.6 1.2.5-.2Z" fill="url(#G)"/>
    <use xlink:href="#U" class="D"/>
    <use xlink:href="#U" fill="url(#H)"/>
    <path d="M31 86.2s-.1.2-.2.3c.2-.2.3-.4.5-.5-.1 0-.2.1-.3.2ZM32.2 87.4l.1-.1h-.1v.1Z" fill="url(#H)"/>
    <use xlink:href="#V" fill="#2d5016"/>
    <use xlink:href="#V" fill="url(#H)"/>
    <use xlink:href="#W" class="D"/>
    <use xlink:href="#W" fill="url(#H)"/>
    <use xlink:href="#X" class="E"/>
    <use xlink:href="#X" fill="url(#H)"/>
    <use xlink:href="#Y" class="E"/>
    <use xlink:href="#Y" fill="url(#H)"/>
    <use xlink:href="#Z" class="D"/>
    <use xlink:href="#Z" fill="url(#H)"/>
    <path d="m32.6 88.6-.7.3c0 .3 0 .5.3.7l.9-.4c0 .1 0 .2.1.4l.1-.1c.1-.1.1-.3.2-.4l1.4-.5c-.3-.5-.9-.6-1.4-.3l-.2.2v-.1c-.3-.2-.7-.2-1 0 .1 0 .3.2.4.3Z" fill="url(#H)"/>
    <use xlink:href="#a" fill="url(#H)"/>
    <use xlink:href="#a" fill="url(#H)"/>
    <path d="M256.8 17.5c-.3-.3-.7-.6-.7-1.1.1-.6.6-.9 1-1.3s.8-.9.7-1.5c-.2-.4-.6-.6-1-.7-.3-.1-.8-.2-1 0-.4.4-.2.9-.4 1.4-.2.3-.4.6-.7.9-.3 0-.6 0-.9-.2-.4-.3-.6-.7-1-.9l-2-1.1c-.8-.3-1.6-.5-2.4-.4-.4 0-.8.4-.7.8 0 .3.5.5.1.8-.9.7-2 .8-2.8 1.5-1.3 1.4-2.3 3-3.6 4.3-.8.8-1.9 1.5-2.9 2-1.3.6-2.7 1-4 1.5-1.1.5-2.4.5-3.6.8-.6.2-1.3.4-1.7.9-.2.2-.3.6-.2.9.2.5.6.9 1.1 1.2.8.6 1.8 1.1 2.8 1.4 1.6.5 3.4.4 5 .2 3.4-.5 6.8-.9 10.1-1.7 2.4-.7 4.4-2.4 6.5-3.6.3-.2.6-.4.9-.2s.5.5.8.6c.5.2.9-.1 1.2-.5.7-.9 1-2.1.9-3.3 0-1-.6-2-1.3-2.7zm-.4 5.9-.1.1h-.4c-.2-.4-.3-.8-.4-1.2-.4.5-1.1.7-1.7 1-1.4.7-2.6 1.7-4 2.5-1.2.8-2.7 1.2-4.1 1.5-1.5.3-3.1.5-4.6.8-.6.1-1.2.2-1.8.2-1.1 0-2.3.1-3.4 0-1.4-.1-2.9-.4-4.2-.8-.6-.2-1.2-.4-1.7-.8-.2-.2-.5-.4-.6-.8 0-.3.3-.6.5-.7.6-.3 1.2-.5 1.9-.7 3-.7 6.1-1.5 8.7-3.3.9-.6 1.6-1.3 2.3-2.1.4-.6.9-1.1 1.2-1.8.3-.5.8-1 1.3-1.3.4-.3.7-.5 1.1-.7.8-.4 1.6-.6 2.5-.7h.3c-.4-.3-.8-.5-1-.9v-.3c0-.1.2-.2.3-.2.5-.2 1-.2 1.4-.1.2 0 .4 0 .6.1 1.3.4 2.5 1.2 3.4 2.2.2.2.6.3.9.2 0 0 .2-.1.3-.2 0 0 0-.1.1-.2l.3-.6c.1-.3.3-.7.5-1 0 0 .2-.2.3-.2.3-.1.8-.1 1 .2.1.3 0 .6-.1.9-.3.7-.8 1.3-1.3 2-.2.2 0 .4.1.5.8 1.1 1.4 2.5 1.4 3.9 0 .9-.3 1.9-.9 2.6z" fill="#010000"/>
    <path d="M249.1 14.5c.2.1.3.2.5.3.2-.1.3-.2.5-.3s.4 0 .6 0c.7.2 1.3.6 1.9 1 .5.4.9.8 1.4 1h.3l.2-.2 1.4-2.1c.3 0 .5-.2.8-.2.2 0 .2.3.3.5.1-.3.3-.6.1-.9-.2-.4-.7-.4-1-.2-.1 0-.2.1-.3.2-.2.3-.4.6-.5 1 0 .2-.2.4-.3.6 0 0 0 .1-.1.2 0 0-.2.1-.3.2-.3.1-.7 0-.9-.2-1-1-2.1-1.8-3.4-2.2-.2 0-.4 0-.6-.1-.5 0-1 0-1.4.1-.1 0-.2.1-.3.2v.3c.3.4.7.6 1 .9z" fill="#179800"/>
    <path d="M255.8 16.4c.5-.6 1-1.2 1.3-1.9 0-.2 0-.5-.3-.5s-.5.1-.8.2c-.5.7-.8 1.4-1.3 2.1 0 0-.2.2-.3.2h-.3c-.5-.2-1-.7-1.4-1-.6-.4-1.2-.8-1.9-1-.2 0-.4-.1-.6 0s-.3.2-.5.3l1.2.9c.2.2.4.4.3.6-.1.3-.4.5-.6.7-.2.3-.5.5-.7.8-.3.3-.7.7-.8 1.1h1.5c.3-.2.7-.2 1-.2h.3c.2 0 .4 0 .6.2.2.1.4.3.5.5.2.5.1 1 0 1.5 0 .5-.3.9-.3 1.4h.2c.6-.4 1-1 1.6-1.5h.4c.3.3.4.8.4 1.2v.3c.1.4.2.8.4 1.2 0 .1.3.2.4.1l.1-.1c.6-.7.9-1.7.9-2.6 0-1.4-.6-2.7-1.4-3.9 0-.1-.3-.3-.1-.5zm-.5 3.4s-.2-.2-.4-.1c-.4.2-.4.7-.8.9v-1.3s0-.1-.1-.2v-.2c-.6-.5-1.5-.4-2.2-.7.5-.1 1.1-.1 1.7 0h1.5c.2 0 .5-.1.7-.2.1 0 .2 0 .4-.1l.2.2v.1c.2.3.4.7.5 1.1.3.8.6 1.8.2 2.7-.1 0-.2 0-.3-.2-.3-.6-.5-1.3-.9-1.9z" fill="#0fab00"/>
    <path d="M244 17.3c-.3.6-.8 1.2-1.2 1.8-.7.8-1.4 1.5-2.3 2.1-2.6 1.8-5.7 2.6-8.7 3.3-.7.1-1.3.3-1.9.7-.3.2-.5.4-.5.7s.3.6.6.8c.5.4 1.1.6 1.7.8-.2-.2-.3-.4-.3-.6 0-.4.3-.8.6-1.1.8-.7 1.7-1.2 2.7-1.6l3-1.2c.5-.2 1-.4 1.6-.5l4-1.3c1.3-.5 2.6-1 4-1.2 1.9-.4 3.9-.3 5.8.1 0-.4 0-.8-.4-1-.6-.3-1.4-.2-2.1-.2h-1.5c.1-.5.5-.8.8-1.1.2-.3.5-.5.7-.8.2-.2.5-.4.6-.7s-.1-.4-.3-.6l-1.2-.9c-.2-.1-.3-.2-.5-.3h-.3c-.9.1-1.7.4-2.5.7-.4.2-.8.4-1.1.7-.5.4-1 .8-1.3 1.3z" fill="#ce0300"/>
    <path d="M256.6 22c.4-.9.1-1.8-.2-2.7-.2-.4-.3-.8-.5-1.1v-.1l-.2-.2h-.4c-.2 0-.4.2-.7.2h-3.2c.7.3 1.6.1 2.2.7s0 .1 0 .2c0 0 .1.1.1.2v1.3c.4-.2.5-.7.8-.9.1 0 .3 0 .4.1.4.6.6 1.2.9 1.9 0 0 .2.2.3.2Z" fill="#37bd0a"/>
    <path d="M250.5 19c.7 0 1.4-.1 2.1.2.3.2.4.6.4 1v.1c0 .5-.2 1-.3 1.5v.7c.5 0 .8-.5 1.1-.8s.6-.7 1-.9c.2.3.3.7.5 1 0-.3-.1-.8-.4-1.1h-.4c-.6.5-1 1.1-1.6 1.5h-.2c0-.5.2-.9.3-1.4 0-.5.2-1 0-1.5-.1-.2-.3-.4-.5-.5s-.4-.2-.6-.2h-.3c-.3 0-.7 0-1 .2z" fill="#7d4c01"/>
    <path d="M255.4 22.3V22c-.2-.4-.3-.8-.5-1.1-.4.2-.7.6-1 .9s-.6.8-1.1.8v-.7c0-.5.3-1 .3-1.5v-.1c-1.9-.5-3.9-.6-5.8-.1-1.4.2-2.7.7-4 1.2s-2.6 1-4 1.3c-.5.1-1 .3-1.6.5-1 .3-2 .7-3 1.2-1 .4-1.9.9-2.7 1.6-.3.3-.6.6-.6 1.1 0 .3.2.5.3.6 1.4.4 2.8.7 4.2.8h3.4c.6 0 1.2-.1 1.8-.2l4.6-.8c1.4-.3 2.8-.7 4.1-1.5l4-2.5c.6-.3 1.2-.5 1.7-1zm-18.2 5c-.9 0-1.8 0-2.7-.2-.2 0-.5 0-.7-.3.3-.1.7-.1 1-.2l3.1-.3c1.7-.2 3.2-.7 4.8-1.3l2.7-1.2 3.5-1.8c.6-.3 1.2-.5 1.8-.6.2 1-.3 2.1-1.1 2.8-1.1 1-2.5 1.6-4 2-2.8.7-5.6 1-8.5 1.1z" fill="#e90d0d"/>
    <path d="M249.7 24.3c.8-.7 1.2-1.7 1.1-2.8-.6.1-1.2.3-1.8.6-1.2.5-2.3 1.2-3.5 1.8-.8.5-1.8.8-2.6 1.2-1.5.6-3.1 1.1-4.8 1.3l-3.1.3c-.3 0-.7 0-1 .2.2.2.4.2.7.3.9.2 1.8.2 2.7.2 2.9 0 5.7-.3 8.5-1.1 1.4-.4 2.9-1 4-2z" fill="#f93737"/>
    <path fill="#010100" d="M289.7 209.2zm40.2-6.8c-.5-.5-1.1-1-1.7-1.5.3-.1.6-.2.8-.4.1-.3-.2-.6-.3-.8.6 0 1.2.2 1.7.2.1 0 .3 0 .3-.2 0-.1 0-.2-.2-.3-.5-.5-1.1-.7-1.7-1.2 0 0-.2-.2-.1-.3 0-.2.2-.4 0-.6-.2-.3-.6-.3-.9-.6-.2-.4-.2-.8-.4-1.2-.6-.9-1.8-1.2-2.4-2.2 0 .2-.1.4 0 .5.6.4 1.3.8 1.8 1.3.2.2.4.4.5.7 0 .3 0 .7.2 1.1.3.3.6.5.8.8v.2c0 .1-.2.2-.2.3l1.6.9c.1.1.3.2.3.4h-.4c-.4 0-.9-.2-1.3-.3-.1 0-.2 0-.3.1.2.3.6.5.8.8-.2 0-.5.1-.7.2h-.1c-.2.1 0 .4 0 .5.3.4.8.7 1.2 1 .5.3 1 .7 1.2 1.2-.8-.4-1.4-.9-2.2-1.2h-.4v.1c0 .3.2.5.3.9v.1h-.4c-.2 0-.4-.2-.6-.3 0 .1 0 .3.1.4.4.8 1 1.6 1.4 2.4 0 .2.2.4.2.6v.1h-.4c-.5-.3-.9-.7-1.3-1.1v1.3c0 .4.3.7.4 1.1-.2 0-.3-.2-.5-.3-.3-.3-.6-.6-1-.9-.1.2-.2.4-.5.4-.2 0-.4-.1-.5-.3 0 0 0-.1-.1-.2 0-.1-.2-.2-.3-.3l-.6-.9c-.2-.3-.4-.7-.7-1 0 0-.2.2-.3.2-.5 0-.9-.1-1.3-.4-.2-.2-.5-.4-.5-.7v-2c0-.2 0-.4-.2-.5 0 0-.1-.1-.2 0-.2 0-.2.3-.4.4h-.4c-.2 0-.5-.2-.6-.4s0-.4.1-.5.3-.2.4-.2c.2-.1.5-.2.7-.2-.1-.2-.2-.4-.4-.6-2-.8-4.2-1.3-6.4-1.3v2.6c0 .2-.1.4-.3.5-.2.2-.4.4-.7.5-.5.2-1.1.2-1.7.2-.2 0-.4 0-.6.1h-.4c-.2 0-.5.1-.7.2l-1.8.7c-.2 0-.4.2-.6.3-.2 0-.4.2-.5.3-.2.1-.5.3-.7.4-1.1.6-2.3 1-3.5 1.4-.1 0-.2 0-.4.1-.2 0-.4.1-.6.2-.2 0-.4.1-.6.2-.8.2-1.6.4-2.3.7-.3 0-.6.2-.9.3-.9.3-1.8.7-2.7 1.1 0 0-.2.1-.3.2-.3.1-.5.3-.8.4l-2.3 1.5s-.2 0-.2.1c-.6.3-1.1.6-1.7.7h-.6c-.1 0 0-.2 0-.3.2-.3.4-.6.7-.9l.5-.5c.2-.1.3-.3.5-.4.1-.5.4-.9.7-1.3.2-.3.5-.5.7-.8.1-.2.3-.3.4-.4.4-.4.9-.7 1.3-1.1.4-.3.8-.6 1.2-.8.2-.2.5-.3.7-.5.5-.3 1-.6 1.5-.8.7-.3 1.4-.7 2.1-1.2.1 0 .2-.1.3-.2l5-3.6c.2-.1.4-.3.5-.4 1.5-1 3.1-1.9 4.9-2.3.7-.1 1.4-.3 2.1 0 .6.2 1 .7 1.3 1.3l3.2-2.5c.4-.3.9-.5 1.3-.8v-.4c.2-.1.5-.2.7-.3.6-.3 1.3-.7 2-.9.6-.2 1.3-.5 2-.5.2 0 .3 0 .5.2l.3.3c.3.1.5.1.8.2.4.2.7.4 1 .7.1.1.2.2.4.3-.1-.3-.2-.6-.5-.8-.3-.3-.8-.3-1.1-.5-.6-.3-1.2-.8-2-.8-.9 0-1.7.5-2.5.9-.4.3-.8.5-1.3.7-.2.1-.5.3-.7.5 0 .1 0 .3-.1.5 0 .1-.1.2-.2.2-.4.3-1 .3-1.4.6-.8.5-1.5 1.2-2.2 1.8-.2-.2-.3-.5-.5-.7-.4-.4-1.1-.6-1.7-.6-.9 0-1.7.3-2.5.6-1.2.5-2.2 1.1-3.4 1.7-2.4 1.3-4.5 2.9-6.6 4.6l-.6.3c-1.3.6-2.5 1.2-3.7 2l-2.4 1.9c-.7.7-1.1 1.7-1.7 2.5-.3.4-.7.6-1.1.9s-.7.6-.9 1c0 .2 0 .5.2.6.3.2.7 0 1 0 1.8-.6 3.4-1.7 5-2.6 1-.6 2-1.1 3.1-1.5 2.2-.8 4.5-1 6.6-2l3.8-1.8c1-.4 2-.8 3.1-.9.5 0 1 0 1.5-.2.5 0 1-.3 1.3-.8.3-.6.3-1.3.3-2 0-.2 0-.5.2-.7.1-.1.3-.2.5-.1.7.1 1.5.1 2.2.4l2.8.8c-.2.2-.5.4-.7.6s-.3.4-.3.6c0 .3.2.5.4.6.5.2 1.1.2 1.6 0 0 .5-.1 1 0 1.4 0 .5.3 1 .7 1.3.6.5 1.3.7 1.9 1.1.5.3.9.7 1.3 1.1.6.5 1.2.9 1.8 1.3.3.2.7.4 1.1.5.2 0 .2-.2.2-.4-.2-.6-.4-1.1-.5-1.8.3.4.7.7 1.2.9.2 0 .4.1.6 0 .2-.2.1-.5 0-.8-.2-.7-.6-1.3-.9-2 0-.1-.1-.3 0-.4.2 0 .5-.1.5-.4s-.2-.6-.3-.9c.9.6 1.8 1.1 2.8 1.6v-.5c-.2-.4-.5-.7-.8-1.1z"/>
    <path d="M326.7 206.3c-.4-.1-.8-.4-1.2-.6-.6-.4-1.2-.9-1.5-1.5-.1-.2-.2-.4-.2-.6.5 0 1.1 0 1.6-.2.4-.1.8-.4 1-.7 0-.1.2-.2.2-.3.2-.2.2-.5.2-.8v-.5c0-.2-.2-.3-.3-.5 0 0 0-.1.1-.2s.3-.1.5-.2c0-.2-.1-.3-.3-.3h-1.3c-.5 0-.9.2-1.3.4-.1 0 0 .2 0 .2.3.1.6.1.8.3.5.3 1 .5 1.4.9-.2.2-.4.3-.6.3-.6 0-1.3 0-1.9.2-.4 0-.8 0-1.1.2-.2 0-.4.2-.5 0-.3-.3-.7-.5-1-.9-.2-.2-.3-.5-.5-.7-.1-.3-.3-.7 0-.9.1-.2.3-.3.5-.4h.3c0-.2 0-.5.1-.7.2-.2.4-.2.6-.4v-.3c-.3-.3-.7-.4-1-.7.3-.2.7-.2 1-.3l1.4-.3h.4c.4 0 .9 0 1.4-.2 0-.2-.2-.3-.4-.4-.5-.3-1.1-.2-1.6-.2h-1.6c0-.2.1-.3 0-.5-.2-.2-.5-.2-.7-.3.8-.4 1.6-.2 2.4-.4.1 0 .2 0 .3-.2-.3-.1-.6 0-.9-.1h-1.1c-.6 0-1.1-.1-1.7-.2-.2 0-.4 0-.6-.2 0-.2.3-.3.2-.5-.2-.2-.5-.3-.6-.4v-.3c.4-.4.9-.7 1.4-.9s1-.2 1.5-.2c-.1-.1-.3-.2-.5-.2-.7 0-1.3.2-2 .5l-2 .9c-.2.1-.4.2-.7.3v.4c-.4.3-.9.5-1.3.8-1.1.7-2.1 1.6-3.2 2.5.2.4.3.9.4 1.3 2.2 0 4.3.5 6.4 1.3.2.1.3.4.4.6-.2 0-.5.1-.7.2-.1 0-.3.1-.4.2s-.3.3-.1.5c.1.2.4.3.6.4.1 0 .3.1.4 0 .2 0 .2-.3.4-.4h.2c.1.1.2.3.2.5v2c0 .3.3.6.5.7.4.2.8.4 1.3.4.1 0 .2-.1.3-.2.3.3.5.7.7 1l.6.9c0 .1.2.2.3.3 0 0 0 .1.1.2s.3.3.5.3.3-.3.5-.4c.3.3.6.6 1 .9.1.1.3.2.5.3 0-.4-.3-.7-.4-1.1-.1-.3 0-.7 0-1-.1.2 0 .5 0 .7zm-8.7-12.5c.3-.1.6-.2.9 0 .2.1.3.3.4.5.1.4.3.7.4 1.1-1.4.1-2.9.4-4.3.8-.2 0-.4.1-.6.2s-.4.1-.6.2c1.2-1 2.5-2 3.9-2.7zm2 4.5c-.1 0-.2.1-.2.2-.3 0-.5-.2-.8-.2-1.2-.4-2.4-.7-3.6-.8-.6 0-1.2 0-1.8-.1.2 0 .3-.1.5-.2 1.7-.7 3.6-1.1 5.4-1.3.4.9 1.1 1.5 1.7 2.2-.4 0-.8 0-1.1.2zm3.7-6.2c-.2-.1-.5-.1-.8-.2 0 0 .2.1.3.2-.3 0-.6.1-.9.1s-.5 0-.8.2c-.1 0-.1.2-.1.3h1.9v.1s-.1 0-.2.1c0 0 .2.1.3.1h1.1c.2 0 .5 0 .7.2v-.2c-.2 0-.3-.2-.5-.3-.3-.3-.6-.5-1-.7zm4 5.1c-.6.2-1.2.2-1.8.2h-1.4c-.3 0-.7 0-1 .3-.1 0 0 .2 0 .3.1 0 .3.1.4.2l-.6.6c-.1.2-.3.3-.3.6.7 0 1.3-.3 1.9-.6l.8-.3c.3-.2.7 0 1.1 0v-.3c-.2 0-.3-.1-.5-.2h2.1c-.2-.3-.5-.6-.8-.9v.3z" fill="#179800"/>
    <path d="M323.2 193v-.1h-1.9c0-.1 0-.2.1-.3.2-.1.5-.2.8-.2s.6 0 .9-.1c0 0-.2-.2-.3-.2l-.3-.3c-.5 0-1 0-1.5.2s-1 .4-1.4.8v.3c.2.2.5.2.6.4 0 .2-.3.3-.2.5.2.1.4.2.6.2.6 0 1.1.1 1.7.2h1.1c.3 0 .6 0 .9.1 0 0-.2.2-.3.2-.8.1-1.7 0-2.4.4.2.1.5.1.7.3v.5h1.6c.5 0 1.1 0 1.6.2.2 0 .3.3.4.4-.4 0-.9 0-1.4.2h-.4c-.5 0-.9.1-1.4.3-.3.1-.7.1-1 .3.3.3.7.4 1 .7v.3c-.2.2-.4.2-.6.4-.1.2 0 .5-.1.7h-.3c-.2 0-.4.2-.5.4-.2.3 0 .7 0 .9.2.2.3.5.5.7.3.3.6.6 1 .9.2.2.4 0 .5 0 .3-.2.8-.2 1.1-.2.6 0 1.3 0 1.9-.2.2 0 .4 0 .6-.3-.4-.4-.9-.6-1.4-.9l-.8-.3s-.2-.2 0-.2c.4-.2.9-.3 1.3-.4s.9-.2 1.3 0c.2 0 .3.2.3.3-.2 0-.4 0-.5.2l-.1.1c0 .2.2.3.3.5v.5c0 .3 0 .6-.2.8 0 .1-.2.2-.3.3-.3.3-.7.5-1 .7-.5.2-1.1.2-1.6.2 0 .2.1.4.2.6.3.7.9 1.2 1.5 1.5.4.2.7.4 1.2.6v-.9c.4.4.8.8 1.4 1.1h.4v-.1c0-.2 0-.4-.2-.6-.4-.8-.9-1.6-1.4-2.4 0-.1-.1-.3-.1-.4.2.1.4.3.6.4h.3v-.1c0-.3-.2-.6-.3-.9v-.1h.4c.8.2 1.5.8 2.2 1.1-.3-.5-.8-.9-1.2-1.2s-.9-.6-1.2-1c-.1-.1-.2-.4 0-.5h.1c.2-.1.5-.2.7-.2-.2-.3-.5-.5-.8-.8.1 0 .2-.1.4-.1.4 0 .9.2 1.3.3h.4c0-.2-.2-.3-.3-.4-.5-.4-1-.7-1.6-.9 0 0 .2-.2.2-.3v-.2h-.5c-.3 0-.5.1-.8 0h-.8c.2 0 .3.1.5.2v.3c-.4.1-.7 0-1.1 0l-.8.3c-.6.3-1.2.5-1.9.6 0-.2.1-.4.3-.6s.5-.4.6-.6c-.1 0-.3-.1-.4-.2v-.3c.3-.2.6-.3 1-.3h1.4c.6 0 1.2 0 1.8-.2v-.3c-.2-.3-.1-.7-.2-1.1 0-.3-.3-.5-.5-.7-.6-.5-1.2-.9-1.8-1.3-.2-.1 0-.3 0-.5v-.1c-.2 0-.4-.2-.7-.2h-1.1c-.1 0-.2 0-.3-.1s.1 0 .2-.1z" fill="#0fab00"/>
    <path d="M314.8 196.4c.2 0 .4-.1.6-.2 1.4-.4 2.8-.7 4.3-.8 0-.4-.3-.7-.4-1 0-.2-.2-.5-.4-.6-.3-.2-.6 0-.9 0-1.4.8-2.6 1.7-3.9 2.7.2 0 .4-.2.6-.2zm1.6-1.1c.6-.4 1.1-.8 1.7-1.1.2 0 .3-.2.5-.1.3.1.5.4.5.7 0 .1 0 .4-.1.4-.9.1-1.9.2-2.7.5l-.9.3c.3-.3.7-.5 1-.8zm3 .7c-1.9.2-3.7.6-5.4 1.3-.2 0-.4.1-.5.2.6 0 1.2 0 1.8.1 1.2.1 2.4.4 3.6.8.3 0 .5.2.8.2 0-.1.1-.2.2-.2.4-.1.8 0 1.1-.2-.6-.7-1.3-1.4-1.7-2.2zm-2.1.5c.5-.1.9-.3 1.4-.4.2 0 .4 0 .5.1.4.3.5.9.9 1.2 0 0 .2.2.2.3-.2.2-.6.3-.9.3-1.6-.3-3.2-.8-4.8-.9l2.7-.7z" fill="#000200"/>
    <path d="M313.1 196.7c-.3-.6-.7-1.1-1.3-1.3-.7-.3-1.4-.2-2.1 0-1.8.4-3.4 1.3-4.9 2.3.6.2 1.2.5 1.6.9.2.3.4.6.7.9 0-.3 0-.6.1-.8.2.3.3.7.4 1.1v2.3c.2-.4.3-.8.4-1.2 0-.3.1-.6.2-1v-1c0-.6-.2-1.2-.2-1.8.1 0 .3 0 .4.2.2.3.5.6.7.8 0-.4-.2-.7-.3-1.1.3.2.5.5.7.8.3.4.6.7.7 1.1s.2.8.5 1.1c.1-.3.1-.7.1-1 0-.4-.2-.7-.3-1.1l.5.8.6 1v-.5c-.1-.5-.3-1-.6-1.4l-1-1.5c.5 0 .9.1 1.3.4.8.5 1.5 1.2 1.9 2v-.7c0-.5-.2-.9-.4-1.3zm-11.3 8.5-.4-2.1c0-.5-.5-.8-.7-1.2.4 0 .8.1 1.1.3l.6.3c0-.5-.2-.9-.3-1.3.3.3.6.6.9 1 .1.2.3.5.5.5v-.8c.2.5.3 1.1.5 1.7 0 .2.1.3.2.5.2-.3.1-.7.1-1.1v-1.1c0-.8 0-1.6-.2-2.4 0-.2-.2-.4-.3-.7.4.2.6.5.9.7 0-.6-.4-1.1-.8-1.6l-5 3.6c.7.4 1.2 1.1 1.6 1.8l.8 1.8c.1 0 .2 0 .4-.1h-.2z" fill="#ff7c00"/>
    <path fill="#ff9400" d="M313.2 201.2zm.3-2.5c-.5-.8-1.1-1.5-1.9-2-.4-.3-.9-.4-1.3-.4l1 1.5c.3.4.4.9.6 1.4v.5c-.3-.3-.5-.7-.7-1s-.3-.6-.5-.8c.1.4.3.7.3 1.1 0 .3 0 .7-.1 1-.2-.3-.3-.8-.5-1.2s-.5-.7-.7-1.1c-.2-.3-.4-.5-.7-.7 0 .4.3.7.3 1.1-.3-.3-.5-.6-.7-.8 0-.1-.2-.1-.3-.2 0 .6.2 1.2.2 1.8v1c0 .3 0 .6-.2 1-.1.4-.2.8-.4 1.2v-2.4c0-.4-.2-.7-.3-1 0 .3 0 .6-.1.8-.3-.3-.5-.6-.7-.9-.4-.5-1.1-.7-1.6-.9-.2.1-.4.2-.5.4.3.5.7 1 .8 1.6-.4-.2-.6-.5-.9-.7.1.2.3.4.3.6.2.8.2 1.6.2 2.4v1.1c0 .4 0 .8-.1 1.1 0-.1-.2-.3-.2-.5-.1-.6-.2-1.2-.4-1.7v.8c-.3 0-.4-.3-.5-.5-.2-.4-.5-.7-.8-1 0 .4.3.9.3 1.3-.2 0-.4-.2-.6-.3-.3-.2-.7-.3-1.1-.3.2.4.6.7.7 1.2l.4 2.1h.2c1.2-.4 2.3-.8 3.5-1.4 0-.4.2-.8.2-1.2v-1.1c.3.6.4 1.2.5 1.9.2 0 .4-.2.5-.3.2-.6 0-1.2 0-1.8.1.4.3.7.4 1.1 0 .1 0 .3.2.4.6-.3 1.2-.5 1.8-.7 0-.4.1-.7.1-1.1 0-.8-.2-1.6-.2-2.4.3.4.3.9.4 1.3.2.6.2 1.2.3 1.9h.5c0-.5 0-.9.1-1.3.1.4.1.8.3 1.2h.9c.3 0 .6 0 1-.1v-1.3c0-.4-.2-.8-.2-1.2 0-.3-.2-.6-.3-1 .3.4.5.8.6 1.3.2.6.4 1.2.5 1.8h.2c.1-.1.3-.3.3-.5v-2.4.5zm-19 7c.4.3.7.7.9 1.1-.2 0-.3 0-.5-.1-.5-.2-.9-.6-1.5-.7 0 .1.2.2.3.3l.4.4c.3.3.3.7.4 1.1.8-.5 1.8-.8 2.7-1.1 0-.7-.3-1.3-.2-2 .1.2.2.3.3.5 0 .2.2.4.3.5.1.2.2.5.5.6.8-.2 1.5-.5 2.3-.7 0-.4-.1-.8-.1-1.3.2.3.3.7.5 1h.3c.2 0 .4-.1.6-.2-.3-.6-.4-1.2-.8-1.8-.4-.7-.9-1.4-1.6-1.8-.1 0-.2.1-.3.2.3 1.1.4 2.1.4 3.2-.2-.5-.3-1-.5-1.4v-.5c0-.2-.1-.3-.3-.4v1.4c.1.6.4 1.2.4 1.8-.2-.4-.3-.9-.5-1.3v-.2l-.3-.9v-.2c0-.1 0-.3-.2-.3h-.8c-.5.2-1 .5-1.5.8.1.2.2.3.4.5s.3.6.3.8c.1.4.2.8.2 1.2-.2-.3-.3-.7-.6-1 0-.1-.2-.2-.3-.4 0 0-.1-.2-.2-.2-.2-.1-.4-.2-.5-.4-.4.3-.8.5-1.2.8.3.2.7.2 1 .5zm-5.9 5.1h.6c.6-.1 1.2-.4 1.7-.7-.1 0-.2-.2-.2-.3-.1-.3-.3-.7-.4-1-.2.2-.3.3-.5.4v.9h-.1c-.2-.1-.3-.3-.5-.5-.3.3-.5.5-.7.8v.3zm.6-1.1z"/>
    <path d="M310.9 201.8c.6 0 1.1 0 1.7-.2.3 0 .5-.3.7-.4h-.2c0-.6-.4-1.2-.5-1.8-.1-.5-.3-.9-.6-1.3 0 .3.2.6.3.9 0 .4.2.8.2 1.2s.1.9 0 1.3c-.3 0-.6.2-1 .1-.2 0-.5 0-.7.1z" fill="#f8ac26"/>
    <path d="m309.1 202.3.7-.2h-.1c-.1-.6-.1-1.3-.3-1.9-.1-.4-.2-.9-.4-1.3 0 .8.2 1.6.2 2.4 0 .4 0 .7-.1 1.1Z" fill="#fd7b00"/>
    <path d="M310.3 201.9s0-.1.1-.2h.2l-.3-1.2c0 .4 0 .8-.1 1.2h-.5c0 .1 0 .1.1.2h.4Z" fill="#faaa22"/>
    <path d="M306.6 203.3h.1c.2 0 .4-.2.6-.3 0-.1-.1-.3-.2-.4-.1-.4-.3-.7-.4-1.1v1.7Zm-9-.2c.1 0 .2.2.2.3v.2l.3.9v.2c.2.4.3.9.5 1.3 0-.6-.2-1.2-.4-1.8 0-.4-.1-.9 0-1.3v-.1c.1.1.2.3.3.4v.5c.2.5.3 1 .5 1.4 0-1.1-.1-2.2-.4-3.2l-2.1 1.2h.8Z" fill="#fd7c00"/>
    <path d="M305.5 203.9c.3-.1.5-.3.7-.4 0-.7-.3-1.3-.5-1.9v1.1c0 .4-.1.8-.2 1.2zm-10.9.5c.2.1.4.2.5.4l.2.2c0 .1.2.2.3.4.2.3.3.7.6 1 0-.4-.1-.8-.2-1.2 0-.3-.2-.6-.3-.8s-.2-.3-.4-.5c-.2.1-.5.3-.7.5z" fill="#fe7b00"/>
    <path d="M310.4 201.8s0 .1-.1.2c.2 0 .4 0 .6-.1h-.5Z" fill="#e5af48"/>
    <path d="M300.3 204.5c0 .4.2.8.1 1.3.2 0 .4-.1.6-.2h-.3c-.2-.3-.3-.7-.5-1Z" fill="#f9ab26"/>
    <path d="M297 204.7c0 .7.2 1.3.2 2 .3 0 .6-.2.9-.3-.3 0-.4-.4-.5-.6s-.2-.3-.3-.5c0-.2-.2-.4-.3-.5z" fill="#f7ab27"/>
    <path d="M294.6 207.9c0-.4-.1-.8-.4-1.1-.1-.2-.3-.3-.4-.4l-.3-.3c.5.1 1 .4 1.5.7.2 0 .3.2.5.1l-.9-1.1c-.3-.3-.7-.3-1-.5-.5.3-.9.7-1.3 1.1.4.2.6.5.8.9.2.3.2.7.4 1.1v-1s0-.2.1-.2c.3.3.4.7.7 1 .1 0 .2-.1.3-.2zm-3.9 1.9c0 .1.1.2.2.3 0 0 .2 0 .2-.1v-2.5c.3.2.6.5.9.7 0-.4 0-.7-.1-1 0-.1 0-.3-.2-.4-.2.3-.5.5-.7.8-.3.4-.6.8-.7 1.3.2.3.3.6.4 1z" fill="#ff7b00"/>
    <path d="M291.9 207.1c0 .3.2.7.1 1-.3-.2-.6-.5-.9-.7 0 .5.1 1.1 0 1.6v.9l2.3-1.5c.2-.2.5-.3.8-.4-.3-.3-.4-.7-.7-1-.1 0-.1.1-.1.2v1c-.2-.3-.2-.7-.4-1.1s-.5-.7-.8-.9l-.4.4c0 .1.1.3.2.4z" fill="#fe9400"/>
    <path d="M289.7 210.2v-.9c-.2.1-.4.3-.5.5.2.2.3.4.5.5Z" fill="#ff7a00"/>
    <path d="M177.3 304.5zm13 1.3c-.7-.2-1.4 0-2.1-.1-.2-.4-.5-.8-.9-1.1 0 .1.1.2.2.3l.3 1c0 .1 0 .2.1.3h.4c.4-.3.9-.4 1.3-.3.8.1 1.4.7 1.8 1.4s.6 1.6.6 2.4v4.6c-.2 1.6-.5 3.3-1 4.9l-1.3 3.7c-.4.9-1.1 1.6-1.9 2.1-.9.6-1.9.7-2.9.7-.7 0-1.2-.4-1.8-.6-.2 0-.5-.2-.7-.1-.2 0-.4.1-.6.2-.6.2-1.2.4-1.9.2-.6-.1-1.2-.5-1.6-1-.8-.8-1.4-1.9-2-2.9-.3-.4-.5-.8-.9-1.2-.6-.6-1-1.4-1.4-2.1-.7-1.4-1.1-2.9-1.3-4.5v-.7c-.1-1.2-.1-2.3 0-3.5.2-.9.6-1.8 1.4-2.2l.6-.3c.2-.1.5-.2.6-.4.3-.4.4-.9.7-1.3.2-.4.6-.7 1.1-.9.5-.1 1.1-.1 1.6 0 .2 0 .5.1.7.2.6.2 1.1.5 1.7.7l.9.3c.7-1.4 1-3 .9-4.5v-.4c.2-.2.4-.2.7-.2h.8c0 .6-.3 1.1-.4 1.6l-.3 3v.2s.2 0 .3-.1c.7-.4 1.3-.8 2.1-.9.4 0 .7.1 1 .3-.6-.4-1.4-.7-2.1-.5-.4.1-.7.4-1 .7.3-.9.4-1.8.5-2.7 0-.7.1-1.4 0-2.1-.5.1-1.1.2-1.6.4-.2 0-.2.2-.3.4-.2.8 0 1.5-.2 2.3-.1.6-.2 1.3-.5 1.8 0 .2-.3.4-.5.3-.5-.3-1-.5-1.6-.7-.9-.3-1.9-.6-2.9-.4-.6 0-1.2.4-1.5 1-.3.5-.4 1.2-.8 1.6-.2.3-.5.4-.8.5-.5.2-.9.7-1.1 1.2-.4 1-.5 2-.5 3.1 0 1.5.1 3.1.5 4.6.3 1.2.8 2.5 1.5 3.5.5.7 1.1 1.3 1.7 2 .3.4.7.8.8 1.4.2.5.5 1 .8 1.4.6.6 1.3 1.2 2.1 1.5.6.2 1.2 0 1.7-.1.4-.1.8-.5 1.2-.4.9 0 1.7.8 2.6.8 1 0 1.9-.3 2.7-.8.6-.4 1.2-.9 1.6-1.5.5-.8.8-1.8 1.1-2.7l1.2-4.4c.7-2.7 1.1-5.4.6-8.2-.2-1.2-1.2-2.3-2.3-2.7z" fill="#010100"/>
    <path d="M184.4 300.6c-.1.3-.3.5-.4.8-.5 1-.7 2.1-1 3.2-.2.8-.6 1.4-.8 2.2 0 .2-.1.3-.3.4-.2.2-.5.2-.6.4v.1c0 .2 0 .5.2.6.4.2.8.3 1.2.3.6 0 1.1-.2 1.6-.5.3-.1.6-.4.9-.4-.5 0-1-.2-1.4-.3-.2 0-.2-.2-.2-.4v-.2c.1-.3.3-.6.3-1 0-.3 0-.5.1-.8.2-1 .2-2 .3-3 0-.5.3-1 .4-1.6h-.8.6Z" fill="#539a34"/>
    <path d="M180.9 307.1c-.5.4-1.2.4-1.8.6 0 .1 0 .3.1.4.4.4.9.6 1.4.8.4.2.9.4 1.4.3.9-.1 1.7-.5 2.6-.8.4-.2.9-.1 1.3-.4-.2-.2-.5-.2-.7-.2-.4 0-.6.3-.9.4-.5.2-1 .5-1.6.5-.4 0-.8-.2-1.2-.3-.2 0-.3-.4-.2-.6v-.1c.2-.2.4-.2.6-.4.1-.1.2-.3.3-.4.3-.7.6-1.4.8-2.2.3-1.1.4-2.2 1-3.2.1-.3.3-.5.4-.8h-.6c-.2 0-.5 0-.7.2v.4c0 1.6-.2 3.1-.9 4.5-.3.5-.7 1.1-1.2 1.4Z" fill="#2f8a0f"/>
    <path d="M184.2 305.2c-.2.2-.3.5-.4.7 0 .3-.2.7-.3 1 .3.3.7.3 1 .4.5.1 1.1.2 1.6-.1.4-.3.7-.7 1.1-1 .2-.1.3-.2.5-.3 0-.3-.2-.6-.2-.9 0-.1-.1-.2-.2-.3-.3-.2-.6-.4-1-.4-.8 0-1.4.5-2.1.9Zm2.2-.2c0 .2-.2.4-.3.5-.3.3-.7.3-1 .6-.2.1-.4.2-.5.2.2-.5.6-.8.9-1.1.2-.2.5-.3.8-.4 0 0 .2.1.1.2Z" fill="#ffd201"/>
    <path d="M188.4 306.3v.1s-.1.2-.2.3c-.1.2-.3.3-.3.5s-.1.4-.1.6.1.2.2.3c.4.2.7.5 1 .9s.4.8.6 1.2c.6 1.6.8 3.3.9 5 .1.8.1 1.7 0 2.5 0 .3 0 .6-.2.9 0 0 0 .2-.2.3v-1.6c-.2-1.9-.5-3.9-1.3-5.7-.3-.7-.7-1.4-1.1-2-.3-.4-.7-.7-1.2-.9-.7-.3-1.3 0-1.9.3-.7.3-1.3.6-2 1-.3.1-.7.3-1.1.4-.5 0-.6-.6-1-.8-.6-.4-1.2-.6-1.7-1.1-.2-.2-.3-.3-.3-.6.1-.3.5-.5.8-.5l1.7-.3v.1c.5-.3.9-.9 1.2-1.4-.3 0-.6-.2-.9-.3-.6-.2-1.1-.5-1.7-.7-.2 0-.5-.2-.7-.2-.5-.1-1.1-.1-1.6 0 0 .2-.2.4-.3.6-.1.3-.1.7 0 1 .1.5.5.9.7 1.4-.5 0-1 0-1.5-.1-.4 0-.9-.1-1.3-.1-.2 0-.4.2-.6.3-.2.3-.4.7-.4 1.1 0 .7 0 1.4.2 2 0 .2.2.4.3.5.1.2.3.3.5.3s.5.2.7 0l.6-1c.3-.5.8-1 1.3-1.4.2-.2.4-.4.7-.4h.2v.4c-.4.6-.9 1.1-1.2 1.7l-.8 2.1-.5 2.1c-.3 1.9 0 3.8.5 5.7.1.3.2.7.2 1.1.6 1 1.1 2.1 2 2.9.3.1.5.3.8.2h.4c.4 0 .9-.3 1.2-.6.5-.4.7-1 .9-1.6.6-2.2 1.1-4.5 1.3-6.7.1-1.3 0-2.6 0-3.8v-2.1c.2.3.2.7.3 1.1.1.6.2 1.2.2 1.8 0 2.5-.7 4.9-1.1 7.3-.2.9-.2 1.9-.1 2.8 0 .6.2 1.3.4 1.9 0 .2.2.4.4.5.6.3 1.1.7 1.8.6 1 0 2-.2 2.9-.7.8-.5 1.5-1.3 1.9-2.1.5-1.2 1-2.4 1.3-3.7 0-.3.1-.7.2-1.1.3-1.2.6-2.4.7-3.7v-4.7c0-.8-.3-1.6-.6-2.4-.4-.7-1-1.3-1.8-1.4-.5-.1-1 0-1.3.3s0 0 0 .1zm-11.4 1.5c0 .1-.2.2-.3.3-.1 0-.2.2-.3.3l-.6.6c-.2.2-.5.3-.7.4-.3 0-.4-.3-.4-.5 0-.4.3-.8.5-1.1.6-.2 1.2 0 1.8 0zm1.4-1.9c-.3 0-.6 0-.8-.2-.1 0-.1-.3 0-.4v-.1c.2-.2.4-.2.7-.2.2 0 .5.1.7.2.2 0 .3.2.5.3.1 0 .2.2.4.2-.2 0-.4 0-.6.1h-.9zm4.1 9.8c0 .5 0 1-.2 1.5-.2.9-.3 1.8-.6 2.7-.1.5-.2 1-.4 1.4s-.3.8-.5 1.1c-.1-1 .4-1.9.5-2.8l.4-5.2-.1-2.5v-.2c.2 0 .5.1.6.3s.2.5.2.7v3zm5.6-3.1c-.3 0-.6-.2-.9-.4-.2-.1-.5-.2-.7-.4-.3-.1-.5-.3-.7-.5-.2-.3-.5-.6-.6-1 0-.2 0-.4.2-.5.2-.2.4-.4.7-.5.4 0 .8 0 1.1.2l.4.4.4.4c0 .2.1.3.2.5.2.5.4 1 .3 1.5 0 .1-.2.2-.3.2zm3.5-1.1v.6c-.1-.7 0-1.5-.3-2.2-.1-.5-.2-.9-.5-1.4-.2-.5-.6-.9-1.1-1.2 0 0-.1 0-.2-.1-.2-.1-.5-.1-.7-.2 0-.1.2-.2.3-.3.1 0 .3-.2.4-.3h.8c.4.2.6.6.8.9s.3.7.4 1c.2 1 .2 2.1 0 3.1z" fill="#ffd202"/>
    <path d="M176.2 307.2c.5 0 1 .1 1.5.1-.2-.5-.6-.8-.7-1.4v-1c0-.2.2-.4.3-.5-.5.1-.9.4-1.1.8s-.4.9-.7 1.3c-.2.2-.4.3-.6.4.4 0 .9 0 1.3.1zm11.5-1.3c-.2.1-.4.2-.5.4-.4.3-.7.7-1.1 1-.5.3-1.1.3-1.6.1-.4-.1-.8-.2-1-.4v.1c0 .2 0 .4.2.4.5.2 1 .3 1.4.3.2 0 .5 0 .7.2-.4.3-.9.2-1.3.4-.8.4-1.7.7-2.6.8-.5 0-1-.1-1.4-.3-.5-.2-1-.4-1.4-.8-.1 0-.1-.3-.1-.4.6-.2 1.3-.2 1.8-.6v-.1l-1.7.3c-.3 0-.7.2-.8.5 0 .2.2.4.3.6.5.5 1.1.7 1.7 1.1.4.2.5.7 1 .8.4 0 .7-.2 1.1-.4l2-1c.6-.2 1.3-.5 1.9-.3.5.2.9.5 1.2.9.4.6.8 1.3 1.1 2 .8 1.8 1.1 3.7 1.3 5.7v1.6s.1-.2.2-.3c.1-.3.2-.6.2-.9v-2.5c-.2-1.7-.3-3.4-.9-5-.2-.4-.3-.9-.6-1.2-.3-.4-.6-.6-1-.9 0 0-.3-.1-.2-.3 0-.2 0-.4.1-.6 0-.2.2-.4.3-.5 0 0 .1-.2.2-.3v-.2h-.4s-.1-.2-.1-.3l-.3-.9c0 .3 0 .6.2.9zm-13.5 12.3c.4.8.8 1.5 1.4 2.1l.9 1.2c0-.4 0-.7-.2-1.1-.5-1.8-.8-3.8-.5-5.7 0-.7.3-1.4.5-2.1s.5-1.4.8-2.1c.3-.6.9-1.1 1.2-1.7 0-.1.1-.3 0-.4h-.2c-.3 0-.5.3-.7.4-.5.4-.9.9-1.3 1.4l-.6 1c-.2.2-.5.1-.7 0-.2 0-.4-.2-.5-.3-.1-.2-.3-.3-.3-.5-.3-.6-.3-1.3-.2-2 0-.4.2-.7.4-1.1-.8.5-1.2 1.4-1.4 2.2-.2 1.2-.2 2.3 0 3.5v.6c.2 1.5.7 3.1 1.3 4.5z" fill="#e0bb14"/>
    <path d="M186.2 304.8c-.3 0-.6.2-.8.4-.3.4-.7.7-.9 1.1.2 0 .4-.1.5-.2.3-.2.8-.3 1-.6.1-.2.3-.3.3-.5 0 0 0-.2-.1-.2zm4.8 2.5c-.2-.3-.4-.7-.8-.9h-.8c-.2 0-.3.2-.4.3-.1 0-.2.2-.3.3.2 0 .5.1.7.2 0 0 .2 0 .2.1.5.3.8.7 1.1 1.2.2.4.3.9.5 1.4.2.7.2 1.5.3 2.2v-.6c.2-1 .2-2.1 0-3.1-.1-.4-.3-.7-.4-1zm-9.4 12.6.6-2.7c0-.5.1-1 .2-1.5.1-1 0-2 0-3s0-.5-.2-.7-.4-.3-.6-.3v.2l.1 2.5c0 1.8-.2 3.5-.4 5.2-.1 1-.6 1.9-.5 2.8.2-.3.3-.7.5-1.1.2-.5.2-1 .4-1.4z" fill="#ffea4e"/>
    <path d="M178.6 305.8h.6c.2 0 .4 0 .6-.1-.1 0-.2-.2-.4-.2-.2-.1-.3-.2-.5-.3s-.4-.2-.7-.2-.5 0-.7.2v.5c.2.2.5.2.8.2h.3z" fill="#ffe94f"/>
    <path d="M183.9 305.1c-.1.3-.2.5-.1.8 0-.3.2-.5.4-.7 0 0-.2 0-.3.1s0-.2 0-.2Z" fill="#9da617"/>
    <path d="M175.1 307.8c-.2.3-.4.7-.5 1.1 0 .2 0 .6.4.5.3 0 .5-.2.7-.4l.6-.6c0-.1.2-.2.3-.3.1 0 .2-.2.3-.3-.6 0-1.2-.2-1.8 0Zm12.9 4.8c.1 0 .3 0 .3-.2 0-.5-.1-1-.3-1.5 0-.2-.1-.3-.2-.5 0-.2-.2-.3-.4-.4l-.4-.4c-.3-.3-.7-.3-1.1-.2-.3 0-.5.3-.7.5-.1.1-.3.3-.2.5.1.4.4.7.6 1 .2.2.4.4.7.5.2.1.5.2.7.4.3.1.6.3.9.4Z" fill="#ffea4f"/>
    <path d="M192.3 310.9v-1.2 4.7c-.1 1.2-.4 2.5-.7 3.7-.1.4-.2.7-.2 1.1.5-1.6.8-3.2 1-4.9.1-1.1.1-2.3 0-3.4Z" fill="#cfb020"/>
    <path d="M178.4 324.4c.5.5 1 .9 1.6 1s1.3 0 1.9-.2c.2 0 .4-.2.6-.2s.5 0 .7.1c-.2-.1-.3-.3-.4-.5-.2-.6-.4-1.2-.4-1.9l.1-2.8c.4-2.4 1.1-4.8 1.1-7.3 0-.6 0-1.2-.2-1.8 0-.4-.1-.7-.3-1.1-.1.7 0 1.4 0 2.1v3.8c-.2 2.3-.7 4.5-1.3 6.7-.1.6-.4 1.2-.9 1.6-.3.3-.8.5-1.2.6h-.5c-.3 0-.6-.1-.8-.2z" fill="#e0bb13"/>
</svg>
