<svg xmlns="http://www.w3.org/2000/svg" width="335" height="335" xmlns:v="https://vecta.io/nano"><defs><linearGradient id="A" x1="167.5" y1="0" x2="167.5" gradientUnits="userSpaceOnUse" y2="335"><stop offset=".58" stop-color="#151349"/><stop offset=".63" stop-color="#1c1c53"/><stop offset=".73" stop-color="#213a71"/><stop offset=".86" stop-color="#1176a4"/><stop offset=".91" stop-color="#1b8bb2"/><stop offset="1" stop-color="#13a3c4"/></linearGradient></defs><path fill="url(#A)" d="M0 0h335v335H0z"/><g fill="#ed1c24"><path d="M198.4 295.6h0v.2l.6 2.6-.6-2.6zm6.2 6.8a23.1 23.1 0 0 0 1-2.8 23.1 23.1 0 0 1-1 2.8zm-24.5-3l4-4h0l-4 4zm5-3.9l-6.6 6.8h0c2.3-2 4.4-4.7 6.6-6.8zm-23.7 6.6h0l1.2.3h0zm-1.2-.4a2.1 2.1 0 0 1-1-.6 2.1 2.1 0 0 0 1 .6zm-2.9-1.2h0zm-21.4.7c-.1-.1-.1-.3-.2-.4a1.4 1.4 0 0 1-.2-.6 1.4 1.4 0 0 0 .2.6c.1.1.1.3.2.4a5.6 5.6 0 0 0 .4 1.2h0a5.6 5.6 0 0 1-.4-1.2z"/><path d="M207.4 295.9a36.6 36.6 0 0 1-1.7 6.5h32.7c.3-.2.4-.1.7-.1h28.2l11.5 2.1-7-1.9a.9.9 0 0 1-.6-.3h12a34.8 34.8 0 0 1 9.1 1l30.8 6.6 11.9 2.5v-5.9c-37.1-5.4-80.6-9.2-127.6-10.5zM0 306.7v7.2l63.3-11.5h69.2a63.6 63.6 0 0 1-1.7-6.6C82.5 297.1 37.9 301 0 306.7z" stroke="#fff" stroke-miterlimit="10"/></g><g fill="#1f6734"><path d="M289.3 311.8l-17.9-3.5 10.1 3.5h7.8zm-125-9l5.3 1.1h0zm-66.2 5.1h7.6l-.6.2-13.7 4.5c2.2.4 3.5.8 4 1.4l16.2-4.3 14.1-3.7h-18.6zm36.8 9.8q.4 1.2 4.2 2.4l3.5-1.9h.1a27.9 27.9 0 0 1-3.4-3.5 10.3 10.3 0 0 0-3.9 1.7 1.3 1.3 0 0 0-.5 1.3zm87.5-14.8l2.7 2.9h19.4l-6.2-3.3a.1.1 0 0 1 .1-.1h-16.7a1.8 1.8 0 0 1 .7.5zm-17.1.6a22.9 22.9 0 0 1-1 2.3h1zm-5.2 14.2a1.3 1.3 0 0 0-.5-1.3 5.8 5.8 0 0 0-2.1-1.1 47.1 47.1 0 0 1-6.8 5.9c5.7-.9 8.9-2.2 9.4-3.5zm-48.4-4.3h0l-.6-.6h0l.6.6zm-78.1-7.1a34 34 0 0 0 4.5-.3H75z"/><path d="M91 312.7l-25.9 8.5 6.2-.7 23.9-6.4c-.4-.4-1.4-.9-4.2-1.4zm-5.3-6.7h-6.3a40.1 40.1 0 0 1-6.9.5h0l-7.1 1.4H75zm-21.5 15.5l-14.6 4.8 16.8-4.5 3.4-.9-5.6.6zm-18.5-9.7H53l20.9-3.7h-9.5l-18.7 3.7zm198.3.7h0l25.9 8.5 8 2.6-4.5-2.4-18.2-9.8-6.3-3.3h-18.4zm-130.8-7.8l-5.2 1.1h18.4l6.7-1.8-.6-1.6h-9.9l.4.2zm130.7 8c-3.5.6-4.2 1.3-4.3 1.7s.3 1 2.6 1.9c4.7 1.8 15.1 3.6 27.7 4.9l-10.8-3.6zm-107.6-10.3h0l.3.7h0zm2.5 17.8c-2.2-.7-3.7-1.5-4-2.4a1.2 1.2 0 0 1 .5-1.5 10.5 10.5 0 0 1 3.8-1.7 53.6 53.6 0 0 1-3.4-4.9l-12.4 4.4-25.1 8.9-31.4 11.1-2.5.9H111l8.8-4.7zm12.4-9.9l3.3-4.3h0zM46 327.2l38.4-12.5 6.6-2.2h0l13.5-4.4h-7.3l-28.7 6.1-47.1 10L0 328.8v6.2h16.7l2.6-.7zm12.8-10.8a16.3 16.3 0 0 1 3.1-.3c1.1 0 1.4.1.8.3a17.3 17.3 0 0 1-3.2.3c-1 0-1.4-.2-.7-.3zm16.1-10.6h0 4.5 0 7.4l3.4-.6 15.9-2.8H63.3L0 313.9v6.7l45.2-8.9 29.7-5.9zm-25.8 6.7l2.8-.5h-7L0 320.8v.4l10-1.8 39.1-6.9zm116.2 15.1l-6.1 6.5-.8.9h9v-7.2zm113.5-23.1l-11.5-2.1h-12.6a18 18 0 0 1 3.5 1.2l11.8 4.2 65 12.8v-1.2l-25.2-6.7zm3.3 7.5l11.9 4.2 2.2.8 25.6 5.8H335v-2l-44.9-8.8h-8zm-77.9-6a32.4 32.4 0 0 1-3.9 6l-2.7 3.1a7.8 7.8 0 0 1 2.1 1.2 1.2 1.2 0 0 1 .5 1.5c-.5 1.5-4.2 2.8-9.9 3.7a35.5 35.5 0 0 1-22.7 6.3v7.2h37.7v-29zm93.6 11.6l31.5 11.2 5.7 2V323h-13.3l-23.9-5.4z"/><path d="M278.9 324.1l-8-2.6c-13.2-1.3-23.9-3.2-28.8-5q-2.8-1.2-2.7-2.1c.2-.8 1.6-1.3 4.2-1.8l-14.3-4.7h19.2l-3.6-1.9h-19.6l12.7 13.5 11.5 12.3 3 3.2h46.9l-1.7-.9zm-124.3-18.3a6.4 6.4 0 0 0 1-1.3 6.4 6.4 0 0 1-1 1.3zm47.7.5l.3-.3h0zm-39.7-3.9h0l1.7.4zm40.7 2.8l-.5.6h0l.5-.6a22.8 22.8 0 0 0 1.3-2.8h0a22.8 22.8 0 0 1-1.3 2.8z"/></g><g fill="#168742"><path d="M98.1 307.9l9-1.9H85.7L75 307.9h23.1zm-29.6 6.3l28.7-6.1H73.9L53 311.8h8.5v.2l-48.2 11H0v5.8l21.4-4.6 47.1-10zm-7.8-2.2h-8.8l-2.8.5-39.1 6.9-10 1.8v1.6h13.2zm52.5-7.3l9.8-2.1-.4-.2h-16.5l-15.9 2.8-3.4.6H108l5.2-1.1zm179.1-1.4a34.8 34.8 0 0 0-9.1-1h-12a.9.9 0 0 0 .6.3l7 1.9 31 8.2 25.2 6.7v-7l-11.9-2.5zm-155.7-.2l.7 1.4-.7-1.4zm1.8 2.9l.2.2-.2-.2zm-40.2 17l25.1-8.9 12.4-4.4a25.3 25.3 0 0 1-1.8-3.7h-8.2l-14.1 3.7-16.2 4.3.2.4c.2.8-.8 1.3-2.7 2.1-4.2 1.5-12.6 3.1-23.1 4.4l-3.4.9-16.8 4.5-26.7 8.7h41.4l2.5-.9zm39.1-15.3a1.3 1.3 0 0 0-.1.6 1.3 1.3 0 0 1 .1-.6zm-118 26.6l-2.6.7h5.5l23.8-7.8-26.7 7.1z"/><path d="M137.3 304.5a6.4 6.4 0 0 0 1 1.3h0a6.4 6.4 0 0 1-1-1.3zm-44.5 11.8c2.3-.9 2.7-1.5 2.6-1.9l-.2-.3-23.9 6.4c9.8-1.2 17.6-2.7 21.5-4.2zm41-10.5a13.4 13.4 0 0 1-.7-1.8l-6.7 1.8zm3.4 1.2zm144.9 5h-7.8l21.9 5-2.2-.8-11.9-4.2zm-37.6-6.2h15.6l9.9 2-11.8-4.2a18 18 0 0 0-3.5-1.2h-15.6c-.3 0-.4-.1-.7.1a.1.1 0 0 0-.1.1zm11.1.2h-10.7l3.6 1.9h21.1l-7.1-1.4h0a40.1 40.1 0 0 1-6.9-.5zm5.8.3l-1.4-.3h-3.1a34 34 0 0 0 4.5.3zm36.4 11.3l-24.4-5.6v-.2h8.1l-10.1-3.5-.8-.2h-21.7l6.3 3.3 18.2 9.8 4.5 2.4 34.9 11.4H335v-4.2l-5.7-2zm-22.3-.9a17.3 17.3 0 0 1-3.2-.3c-.6-.2-.3-.3.8-.3a16.3 16.3 0 0 1 3.1.3c.7.1.3.3-.7.3zm22.2 17.4l1.7.9h12.7l-33.2-10.9 18.8 10zm-119.2-31.8h0l-.9.8zm-8.9 1.6h0l3.5.7h0zm-9.3 19c-.1.4-.1.9-.2 1.5a15.5 15.5 0 0 1 .4-1.5zm5 4.7a46.8 46.8 0 0 1-7.1-1.4 44.4 44.4 0 0 1-10.1-4.2 61.4 61.4 0 0 1-9.3-1.8l-19 10.1-8.8 4.7h47.4l.8-.9zm-2.7-1.3h0zm12.3-16.3a5 5 0 0 1 0-4h0a4.6 4.6 0 0 0 0 4 14.2 14.2 0 0 1 .4 2h0a14.2 14.2 0 0 0-.4-2zm-11.6 11.5l2.3-.2zm12-16.1l-.3.4h0zm-13.5 16.3c-.9.2-1.3.5-1.4 1h.2a2 2 0 0 1 1.2-1zm12-17.2a3.1 3.1 0 0 0 1.8-.7.1.1 0 0 1 .1-.1.1.1 0 0 0-.1.1 3.1 3.1 0 0 1-1.8.7z"/><path d="M139.1 320.1a53.4 53.4 0 0 0 8.6 1.6 31.6 31.6 0 0 1-5-3.5h-.1zm36.2-7.9h0zm-15.4 9.6h0l-8.2-8.3h0zm45.4-18.3v2.3h19.8l-2.7-2.9a1.8 1.8 0 0 0-.7-.5h-16a4.9 4.9 0 0 1-.4 1.1zm32.7 16L225.3 306h-20v29h47.2l-3-3.2-11.5-12.3z"/></g><g fill="#fff"><path d="M105.1 308.1l.6-.2H65.4l-1 .2h40.1L91 312.5h.4zM91 312.7l-26 8.5h.1l25.9-8.5zm-91 7.9h0l45.2-8.9L0 320.6zm64.2.9v-.2l20.2-6.6L46 327.2 22.2 335h.7l26.7-8.7 14.6-4.8zm-2.7-9.5v-.2H53h-7.3l-45.7 9h0l44.9-8.8h7 8.8l-47.5 10.8H0v.2h13.3l48.2-11zm1.2 4.4c.6-.2.3-.3-.8-.3a16.3 16.3 0 0 0-3.1.3c-.7.1-.3.3.7.3a17.3 17.3 0 0 0 3.2-.3zm88.4-3.6v-.1.1h0zm48.5 3.6a1.3 1.3 0 0 1 .5 1.3c-.5 1.3-3.7 2.6-9.4 3.5l-.4.3c5.7-.9 9.4-2.2 9.9-3.7a1.2 1.2 0 0 0-.5-1.5 7.8 7.8 0 0 0-2.1-1.2c0 .1-.1.1-.1.2a5.8 5.8 0 0 1 2.1 1.1zm-24.3-4.4h0v.2h0zm-14.7 10.7h-.2c-.1 0-.1.1-.1.2h.2a.3.3 0 0 0 .1-.2zm-21.5-2.6q-3.7-1.2-4.2-2.4a1.3 1.3 0 0 1 .5-1.3 10.3 10.3 0 0 1 3.9-1.7h-.2a10.5 10.5 0 0 0-3.8 1.7 1.2 1.2 0 0 0-.5 1.5c.3.9 1.8 1.7 4 2.4a61.4 61.4 0 0 0 9.3 1.8l-.4-.3a53.4 53.4 0 0 1-8.6-1.7z"/><path d="M91.4 312.6H91l-6.6 2.2-20.2 6.6v.2h0l5.6-.6c10.5-1.3 18.9-2.9 23.1-4.4 1.9-.8 2.9-1.3 2.7-2.1l-.2-.4c-.5-.7-1.8-1.1-4-1.5zm4 1.8c.1.4-.3 1-2.6 1.9-3.9 1.5-11.7 3-21.5 4.2l-6.2.7H65l26-8.5h0c2.8.5 3.8 1 4.2 1.4zm59.1-8.4h0c0-.1.1-.1.1-.2h0c0 .1-.1.1-.1.2zm-90.1 2.1l1-.2 7.1-1.4v-.2l2.4-.5-29.7 5.9L0 320.6v.2l45.7-9 18.7-3.7zm73.9-2.3h0c0 .1.1.1.1.2h0c0-.1-.1-.1-.1-.2zm-11.9 0h-47v.2h54.5c0-.1-.1-.1-.1-.2z"/><path d="M79.4 306v-.2h-4.5l-2.4.5v.2h0a40.1 40.1 0 0 0 6.9-.5zm-5.8.3l1.4-.3h3.1a34 34 0 0 1-4.5.3zm155.7 1.6l14.3 4.7h.4l-13.5-4.4h40.1l-1-.2h-40.3zm40.6 13.3h.1l-10.9-3.6zm0-.2l1 .3v.2h0l8 2.6 33.2 10.9h.7l-34.9-11.4zm11.6-9.2h-8.1v.2l24.4 5.6 23.9 5.4H335v-.2h-13.2l-25.6-5.8-21.9-5h7.8 8l44.9 8.8h0l-45.7-9h-7.8zm-5.3 4.6a16.3 16.3 0 0 0-3.1-.3c-1.1 0-1.4.1-.8.3a17.3 17.3 0 0 0 3.2.3c1 0 1.4-.2.7-.3z"/><path d="M244 312.5h-.4c-2.6.5-4 1-4.2 1.8s.8 1.3 2.7 2.1c4.9 1.8 15.6 3.7 28.8 5h0v-.2l-1-.3-25.9-8.4zm25.9 8.7c-12.6-1.3-23-3.1-27.7-4.9-2.3-.9-2.7-1.5-2.6-1.9s.8-1.1 4.3-1.7l15.2 4.9 10.9 3.6zM202.6 306h0l.2-.2h0zm53-.2h-51.3c0 .1-.1.1-.1.2h51.4zm4.5 0l2.4.5v.2l7.1 1.4 1 .2.8.2 17.9 3.5 45.7 9v-.2l-65-12.8-9.9-2zm-85.1 0h0c0 .1-.1.1-.1.2h0zm-7.6 22v7.2h.2v-7.2z"/><path d="M255.6,305.8h0v.2a40.1,40.1,0,0,0,6.9.5h0v-.2l-2.4-.5h-4.5Zm5.8.5a34,34,0,0,1-4.5-.3H260Z"/></g><path d="M133.1 304a13.4 13.4 0 0 0 .7 1.8c0 .1.1.1.1.2a25.3 25.3 0 0 0 1.8 3.7 53.6 53.6 0 0 0 3.4 4.9h.2a27.9 27.9 0 0 0 3.4 3.5 31.6 31.6 0 0 0 5 3.5l.4.3a44.4 44.4 0 0 0 10.1 4.2 46.8 46.8 0 0 0 7.1 1.4l2.1.2h.2a35.5 35.5 0 0 0 22.7-6.3l.4-.3a47.1 47.1 0 0 0 6.8-5.9c0-.1.1-.1.1-.2s1.8-2 2.7-3.1a32.4 32.4 0 0 0 3.9-6c0-.1.1-.1.1-.2a22.9 22.9 0 0 0 1-2.3 4.9 4.9 0 0 0 .4-1.1 36.6 36.6 0 0 0 1.7-6.5 45.9 45.9 0 0 0-.8-16c-1.1-5.2-3.1-10.1-7.1-13.9l3.1 5.3c.3.4.5.9.8 1.4l.6 1.6c1.6 4.2 1.5 4.5-2.6 5.6l-4.5-4.7-4.5-4.5a8.3 8.3 0 0 1-.7-1.3l-4.4-11.7 2.6-.2-1.7-1.4c-8.4-5.6-17.7-6.8-27.3-5-17.7 3.2-33.8 20.8-30.4 43.1l.3 1.6a63.6 63.6 0 0 0 1.7 6.6zm21.5 20.3c-7.6-2.7-12.9-8.2-17.2-14.8a2.2 2.2 0 0 1-.2-1.2 1.3 1.3 0 0 1 .1-.6 1.5 1.5 0 0 0-.1-.7h.8c3.2 3.1 7.2 4.4 11.5 5.1a4.4 4.4 0 0 1 1.6.6h0l.6.7 8.2 8.3h0c-1 3.7-1.4 4-5.3 2.6zm6.8-22.2h-.7l-.5-.3a2.1 2.1 0 0 1-1-.6 3.4 3.4 0 0 1-1.2-2c-1-3.7-2-7.4-3.2-11.1a3.8 3.8 0 0 1 0-2.1 2.9 2.9 0 0 1 1.1-1.8c.7-.7 1.5-1.4 2.2-2.2l2.2-2.2c1.5-1.5 3-3 4.6-4.4a3.7 3.7 0 0 1 3.1-1.1l6 1.5 6 1.8a3.7 3.7 0 0 1 2.1 2c.3 1.1.7 2.1 1 3.2l1.7 6.5c.3 1.1.6 2.1.8 3.2a6.5 6.5 0 0 1-.4 1.3 7.5 7.5 0 0 1-.7 1.2l-.4.5c-1.3 1.3-2.6 2.7-4 4l-4.4 4.3a.1.1 0 0 0-.1.1 3.1 3.1 0 0 1-1.8.7h-.7l-3.5-.7-5.3-1.1-1.7-.4zm25.5 20.3l-1.1.7-1.2.7c-6.3 3.1-13 3.7-20 2.9a6.5 6.5 0 0 1-2-.4h-.2c-1.1-.3-2.8.1-2.3-1.9h0c.1-.6.1-1.1.2-1.5s0-.2.1-.2.5-.8 1.4-1l1.5-.2 2.3-.2c2.4-.4 5.6-1.3 8.2-1.7l1.7-.2h1.6l10.7.8a2.5 2.5 0 0 1-.2 1.2 2.3 2.3 0 0 1-.7 1zm11.7-28a.8.8 0 0 1 .2-.4 20.5 20.5 0 0 0 2.5-9.6v-1.5c-.3-2 .4-2.4 1.9-2.8l.6-.2h0c2-.4 2.1 1.2 2.3 2.3h0l.6 4.5a33 33 0 0 1-1.1 12.9 23.1 23.1 0 0 1-1 2.8 22.8 22.8 0 0 1-1.3 2.8l-.5.6-.2.2-.3.3-1.2.8-2.1-8.7-.6-2.6v-.5a2.9 2.9 0 0 1 .2-.9zm-3.5.7c2.4.1 2.7.6 3.1 2.3l1.8 6.4a9.4 9.4 0 0 1-1.9 5.5 30.1 30.1 0 0 1-2.2 2.8 21.7 21.7 0 0 1-6 5.4 8.8 8.8 0 0 1-2 .9 13.4 13.4 0 0 1-4.5 1 15.9 15.9 0 0 1-3.7-.2c-3.5-.5-4-.9-4.3-4.5a19.3 19.3 0 0 0-.1-2.4h0v-.3a14.2 14.2 0 0 0-.4-2 4.6 4.6 0 0 1 0-4c0-.1.1-.1.1-.2l.3-.4a10 10 0 0 1 2.3-2.3l.9-.8c2.3-2.1 4.3-4.6 6.6-6.8a4 4 0 0 1 2-.9h.8zm-23.5-41.2l2.2.3 3.7.8a22.6 22.6 0 0 1 4.6 1.5 12.3 12.3 0 0 1 3.5 2.2 12.1 12.1 0 0 1 1.9 2 20.2 20.2 0 0 1 2.7 5.3l.5 1.7a3.4 3.4 0 0 1-1.5 4.1c-2.4 1.6-4.6 4.3-7.2 4.8h-.9c-2.3 0-4.6-1.5-7-2.1a18.8 18.8 0 0 0-4.7-1c-2.6.1-3.5-1.3-4.3-3.4a66.7 66.7 0 0 0-3.5-7.1 2.6 2.6 0 0 1 .5-3.4 20.8 20.8 0 0 1 2.1-2.1 14.5 14.5 0 0 1 7.4-3.6zm-27.3 6.5l2.3-2 2.3-1.7 2.5-1.6 1.3-.6a26.8 26.8 0 0 1 12.7-3.1c1.4 0 2.7.7 4.2 1.1h0l-9.3 7.9a4.4 4.4 0 0 1-1.6.6l-10.5 3.3-.8.3c-3.6 1.6-3.1-.5-4-1.6s.3-2 .9-2.6zm-9.5 11.4l1.5-2.5 1.8-2.4c.6-.8 1.3-1.5 2-2.3s1.6-1.6 2.6-.7a3.6 3.6 0 0 1 1.2.9 1.9 1.9 0 0 1 .9 2.1 1.1 1.1 0 0 1-.1.5c-1.1 3.7-1.8 7.5-2.7 11.2a3.5 3.5 0 0 1-.6 1.4l-3.2 3.6-3.3 3.7-2.5 2.7a17 17 0 0 1-1.1-4.3 29.2 29.2 0 0 1 3.5-13.9zm5.9 10a3.4 3.4 0 0 1 2.8-.4 89.3 89.3 0 0 1 8.5 3.5 3.1 3.1 0 0 1 1.1.9 3.3 3.3 0 0 1 .7 1.3c1.3 4.2 2.4 8.4 3.4 12.6a2.2 2.2 0 0 1 .1.8v.7a7.4 7.4 0 0 1-.4 1.4l-1.3 1.9a6.4 6.4 0 0 1-1 1.3c0 .1-.1.1-.1.2l-3.3 4.3a8.3 8.3 0 0 1-1.5 1.1c-4.4-1-8.4-2.3-11.1-5.2l-.2-.2c0-.1-.1-.1-.1-.2a6.4 6.4 0 0 1-1-1.3l-.7-1.4-.3-.7a5.6 5.6 0 0 1-.4-1.2c-.1-.1-.1-.3-.2-.4a1.4 1.4 0 0 1-.2-.6c-3-7.6-2.4-11 5.2-18.4z" fill="#151349"/><g fill="#fff"><path d="M191.7 269.4a8.3 8.3 0 0 0 .7 1.3l4.5 4.5 4.5 4.7c4.1-1.1 4.2-1.4 2.6-5.6l-.6-1.6c-.3-.5-.5-1-.8-1.4l-3.1-5.3-9.6-8.5-2.6.2 4.4 11.7zm-29.1 33l1.7.4 5.3 1.1 3.5.7h.7a3.1 3.1 0 0 0 1.8-.7.1.1 0 0 1 .1-.1l4.4-4.3 4-4 .4-.5a7.5 7.5 0 0 0 .7-1.2 6.5 6.5 0 0 0 .4-1.3c-.2-1.1-.5-2.1-.8-3.2l-1.7-6.5-1-3.2a3.7 3.7 0 0 0-2.1-2l-6-1.8-6-1.5a3.7 3.7 0 0 0-3.1 1.1l-4.6 4.4-2.2 2.2c-.7.8-1.5 1.5-2.2 2.2a2.9 2.9 0 0 0-1.1 1.8 3.8 3.8 0 0 0 0 2.1c1.2 3.7 2.2 7.4 3.2 11.1a3.4 3.4 0 0 0 1.2 2 2.1 2.1 0 0 0 1 .6l.5.3h.7zm-26.9-1.6c.1.1.1.3.2.4a5.6 5.6 0 0 0 .4 1.2l.3.7.7 1.4a6.4 6.4 0 0 0 1 1.3c0 .1.1.1.1.2l.2.2c2.7 2.9 6.7 4.2 11.1 5.2a8.3 8.3 0 0 0 1.5-1.1l3.3-4.3c0-.1.1-.1.1-.2a6.4 6.4 0 0 0 1-1.3l1.3-1.9a7.4 7.4 0 0 0 .4-1.4v-.7a2.2 2.2 0 0 0-.1-.8c-1-4.2-2.1-8.4-3.4-12.6a3.3 3.3 0 0 0-.7-1.3 3.1 3.1 0 0 0-1.1-.9 89.3 89.3 0 0 0-8.5-3.5 3.4 3.4 0 0 0-2.8.4c-7.6 7.4-8.2 10.8-5.2 18.4a1.4 1.4 0 0 0 .2.6zm28.5-43.2a20.8 20.8 0 0 0-2.1 2.1 2.6 2.6 0 0 0-.5 3.4 66.7 66.7 0 0 1 3.5 7.1c.8 2.1 1.7 3.5 4.3 3.4a18.8 18.8 0 0 1 4.7 1c2.4.6 4.7 2.1 7 2.1h.9c2.6-.5 4.8-3.2 7.2-4.8a3.4 3.4 0 0 0 1.5-4.1l-.5-1.7a20.2 20.2 0 0 0-2.7-5.3 12.1 12.1 0 0 0-1.9-2 12.3 12.3 0 0 0-3.5-2.2 22.6 22.6 0 0 0-4.6-1.5l-3.7-.8-2.2-.3a14.5 14.5 0 0 0-7.4 3.6zm23.7 36.9h-.8a4 4 0 0 0-2 .9l-6.6 6.8-.9.8a10 10 0 0 0-2.3 2.3l-.3.4v.2a5 5 0 0 0 0 4 14.2 14.2 0 0 1 .4 2v.2h0a19.3 19.3 0 0 1 .1 2.4c.3 3.6.8 4 4.3 4.5a15.9 15.9 0 0 0 3.7.2 13.4 13.4 0 0 0 4.5-1 8.8 8.8 0 0 0 2-.9 21.7 21.7 0 0 0 6-5.4 30.1 30.1 0 0 0 2.2-2.8 9.4 9.4 0 0 0 1.9-5.5l-1.8-6.4c-.4-1.7-.7-2.2-3.1-2.3l-7.2-.6zm-53-7.2l3.3-3.7 3.2-3.6a3.5 3.5 0 0 0 .6-1.4c.9-3.7 1.6-7.5 2.7-11.2a1.1 1.1 0 0 0 .1-.5 2.3 2.3 0 0 0-.9-2.1 3.6 3.6 0 0 0-1.2-.9c-.4-.4-2 .1-2.6.7a23.59 23.59 0 0 0-2 2.3l-1.8 2.4-1.5 2.5a29.2 29.2 0 0 0-3.5 13.9 17 17 0 0 0 1.1 4.3zm12.5-22.7l.8-.3c3.4-1.3 7-2.2 10.5-3.3a4.4 4.4 0 0 0 1.6-.6l9.3-7.9h0c-1.5-.4-2.8-1.1-4.2-1.1a26.8 26.8 0 0 0-12.7 3.1l-1.3.6-2.5 1.6-2.3 1.7-2.3 2c-.6.6-1.7 1.5-.9 2.6s.4 3.2 4 1.6zm12.5 57.2h0l-8.2-8.4-.6-.7h0a4.4 4.4 0 0 0-1.6-.6c-4.3-.7-8.3-2-11.5-5.1h-.8a1.5 1.5 0 0 1 .1.7 1.3 1.3 0 0 0-.1.6 2.2 2.2 0 0 0 .2 1.2c4.3 6.6 9.6 12.1 17.2 14.8 3.9 1.4 4.3 1.1 5.3-2.5zm38.5-26l.6 2.6 2.1 8.7 1.2-.8.3-.3.2-.2.5-.6a22.8 22.8 0 0 0 1.3-2.8 23.1 23.1 0 0 0 1-2.8 33 33 0 0 0 1.1-12.9l-.6-4.5h0c-.2-1.1-.6-2.6-2.3-2.3h0l-.6.2c-1.3.3-2.2.9-1.9 2.8v1.5a20.5 20.5 0 0 1-2.5 9.6.8.8 0 0 0-.2.4 2.9 2.9 0 0 0-.2.9v.5zm-10.6 24.4l-10.7-.8h-1.6l-1.7.2c-2.6.4-5.8 1.3-8.2 1.7l-2.3.2-1.5.2a2 2 0 0 0-1.2 1 .3.3 0 0 1-.1.2 15.5 15.5 0 0 0-.4 1.5h0c-.5 2 1.2 1.6 2.3 1.9h.2a6.5 6.5 0 0 0 2 .4c7 .8 13.7.2 20-2.9l1.2-.7 1.1-.7a2.3 2.3 0 0 0 .7-1 2.5 2.5 0 0 0 .2-1.2zM32.6 17.9a1.4 1.4 0 0 1-.4 1.1l-4.9 4.9-5.2-3v-3a1.6 1.6 0 0 1 1.6-1.5 1.5 1.5 0 0 1 1.5 1.5h0v3.7l4.8-4.8a1.5 1.5 0 0 1 2.1-.1h.1a1.6 1.6 0 0 1 .4 1.2m-1.5 14.2l-.6-.2-.5-.3-4.8-4.8v3.7a1.8 1.8 0 0 1-1.5 1.6 1.6 1.6 0 0 1-1.6-1.6v-2.9l5.2-3 4.9 4.8a1.5 1.5 0 0 1 .1 2.1 2 2 0 0 1-1.2.6m-4-8c0-.1-.1-.1-.2-.2h0l-1.3-.7-3.5-2-3-1.8h-.4v9.2c0 .2.2.3.4.3h.1l2.9-1.7 4.8-2.8h.2zm-1.2.2h-.1l-3.7 2.2-2.4 1.3c-.1.1-.2.1-.3-.1s-.1 0-.1-.1v-7a.3.3 0 0 1 .3-.3h.1l2.4 1.4 3.7 2.3c.1 0 .1.2.1.3zm-1-.1a.2.2 0 0 1-.2.2h0L21.9 26l-1.7 1h-.3v-5.4c0-.2.1-.2.2-.2h.1l1.7 1 2.8 1.6c.1 0 .2 0 .2.1h0M58 24a.3.3 0 0 0-.1-.2l-4.3-2.1-2.6-1.3c-.3-.1-.5 0-.5.2v7.2c0 .1.1.2.3.2h.2l2.6-1.4 4.2-2.2a.3.3 0 0 0 .1-.2zm-1 .2h-.1L53.6 26l-2 1.1h-.4v-5.7c0-.1.1-.2.3-.2h.1l2 1 3.4 1.6v.2h0z"/><path d="M56.1 24.2H56l-2.5 1.3-1.5.8c-.1.1-.2.1-.2-.1h0v-4.1c0-.1 0-.2.2-.2h0l1.6.7L56 24h.1m-20.3-3.5h3.6c1.9 0 3.2 1 3.3 2.5s-1.4 2.5-3.2 2.5h-1.9v2.4h-1.8zm3.5 3.5c.9 0 1.5-.4 1.5-1s-.6-1.1-1.5-1.1h-1.8V24z"/><path d="M49.6 26.5V28h-5.9v-7.4h1.8v6zM60 25.2l-3.4-4.8h2.1l2.1 3.2 2.1-3.2h2l-3.1 4.7v2.7H60zm6.1-4.4h1v4.1l4.1-4.1h1.3L69 24.2l3.8 4h-1.2l-3.2-3.4-1.3 1.2v2.2h-.9zm7.2 3.6c-.1-2 1.9-3.8 4.1-3.8a4.1 4.1 0 0 1 4.3 3.8 4.2 4.2 0 0 1-8.4.1h0zm7.5 0a3.1 3.1 0 0 0-3.3-3h0a3.2 3.2 0 0 0-3.3 3 3.3 3.3 0 0 0 6.6 0zm2.2 2.7l.5-.7a4.1 4.1 0 0 0 2.8 1.1c1.2-.1 1.9-.7 1.9-1.3s-.8-1.2-2.3-1.4-2.7-.8-2.7-2.1 1.1-2.1 2.7-2.1a4.1 4.1 0 0 1 3 1l-.6.7a3.6 3.6 0 0 0-2.4-.9c-1 0-1.8.6-1.8 1.2s.9 1.1 2.3 1.4 2.7.8 2.7 2.1-1 2.1-2.8 2.1a4.4 4.4 0 0 1-3.3-1.1zm7.9-6.3h.9L95 26l3-5.2h.9v7.4H98v-5.6l-3 5.2-3.2-5.2v5.6h-.9zm9.8 3.6c-.1-2 1.9-3.8 4.2-3.8a4 4 0 0 1 4.3 3.8c.1 2-1.9 3.8-4.2 3.8a4.1 4.1 0 0 1-4.3-3.8zm7.5 0a3.1 3.1 0 0 0-3.3-3h0a3.2 3.2 0 0 0-3.3 3 3.1 3.1 0 0 0 3.3 3h.1a3 3 0 0 0 3.2-2.9zm2.2 2.7l.5-.7a4.3 4.3 0 0 0 2.8 1.1c1.2-.1 1.9-.7 1.9-1.3s-.8-1.2-2.3-1.4-2.7-.8-2.7-2.1 1.2-2.1 2.7-2.1a4.1 4.1 0 0 1 3 1l-.6.6a4.1 4.1 0 0 0-2.4-.8c-1 0-1.8.6-1.8 1.2s.9 1.1 2.3 1.4 2.8.8 2.8 2.1-1 2.1-2.9 2.1a4.4 4.4 0 0 1-3.3-1.1z"/></g><path d="M304.1 128.8a6.5 6.5 0 0 1-6.5 6.3H176.5a6.3 6.3 0 0 1-7-5.6 6.4 6.4 0 0 1 5.6-7.1 3.3 3.3 0 0 1 1.4 0h121.1a6.5 6.5 0 0 1 6.5 6.4zm-140.3 0a6.5 6.5 0 0 1-6.5 6.3H36.2a6.4 6.4 0 0 1 0-12.7h121.1a6.5 6.5 0 0 1 6.5 6.4z" fill="#1f6734"/><path fill="#fff" d="M77.5 192.2h180.1v19.16H77.5z"/><path fill="#ed1c24" d="M49.8 160.2h235.3v31.97H49.8z"/><path d="M49.8 148.1h235.3v24.24H49.8zm113.3 81.1a4.4 4.4 0 1 1 4.4 4.4h0a5 5 0 0 1-2.1-.5l-.6-.4a4.6 4.6 0 0 1-1.7-3.5zm2.3.7v.3c0 .1 0 .1.1.1h0a4.3 4.3 0 0 0 1.2 1.1h.2a5.1 5.1 0 0 0 1.7-.7c.1 0 .1-.1.1-.2h0c0-.3.1-.5.1-.8s.1-.5.1-.8h-.1a3.6 3.6 0 0 0-1.5-1.2h-.2l-1.4.7-.2.2h0a2.8 2.8 0 0 0-.1 1.3zm3.5-1.3h.1l1.4-.4h.1a1.9 1.9 0 0 0-.1-1.3c0-.2 0-.3-.1-.4l-1.1-.7h0a4.7 4.7 0 0 0-1.7.3h0a1.5 1.5 0 0 0-.1.7v.8h.1a3.2 3.2 0 0 1 1.3 1zm-2.2 4.1h0c0 .1 0 .1.1.1h.1l.8.4h.4l1.6-.7h0a2.3 2.3 0 0 0 .3-1.1h0a2.3 2.3 0 0 0-1.2-.6c-.1-.1-.1-.1-.1 0l-1.4.5-.4.2h.1v.3a3.2 3.2 0 0 0-.3.9zm-2.5-1.8h.3l.8-.5h0a3.3 3.3 0 0 1 .2-1.7v-.2h0l-.6-.5c0-.2-.2-.3-.3-.4h-.3l-.9.8h0a4.9 4.9 0 0 0-.1 1.2c0 .1.1.1.1.2l.4.6zm7.5-1h0a2.1 2.1 0 0 0 0-1.1 6.8 6.8 0 0 0-.7-2h-.5a2.9 2.9 0 0 1 0 1.3c0 .1 0 .1.1.2l.2.2a5 5 0 0 1 .4 1.3h.5zm-6-4.1h.3a1.7 1.7 0 0 1 1.2.2h.3a2 2 0 0 1 1.1-.3h.4v-.3h-.1a4.7 4.7 0 0 0-1.7-.2 2.8 2.8 0 0 0-1.3.3h-.1zm6 4.1h-.5l-1 1.4h-.1a3.6 3.6 0 0 1-.2 1c-.1.1 0 .1 0 .1h.2a4 4 0 0 0 1.6-2.8zm-7.1-2.7l.4-.6.7-.8h0v-.4a4.7 4.7 0 0 0-2.3 2.7l.7-.6zm3.3 6.2h0a2.2 2.2 0 0 1-1.1-.5h-.3a2.3 2.3 0 0 1-1.4-.4h-.2a4.3 4.3 0 0 0 3 .9zm-2.9-.9h-.1a6.1 6.1 0 0 1-.7-1.4h-.1l-.5-.6-.3-.5a5 5 0 0 0 1.6 2.8z" fill="#fff"/><path fill="#ed1c24" d="M219.4 270.3h104v13.03h-104z"/></svg>
