<svg xmlns="http://www.w3.org/2000/svg" xmlns:xlink="http://www.w3.org/1999/xlink" width="335" height="335" xmlns:v="https://vecta.io/nano"><style><![CDATA[.B{stroke-width:.1}.C{stroke:#676767}.D{stroke:#ececec}.E{stroke-width:.2}.F{stroke-linejoin:round}.G{stroke-width:.4}.H{fill-rule:evenodd}.I{stroke-linecap:square}]]></style><defs><linearGradient id="A" x1="167.5" y1="0" x2="167.5" y2="263.9" xlink:href="#EZ"><stop offset="0" stop-color="#262262"/><stop offset=".4" stop-color="#2b3990"/><stop offset=".6" stop-color="#2a307e"/><stop offset=".8" stop-color="#292b73"/><stop offset="1" stop-color="#262262"/></linearGradient><linearGradient id="B" x1="107.4" y1="77.1" x2="173.1" y2="77.1" xlink:href="#EZ"><stop offset="0" stop-color="#65c299"/><stop offset="1" stop-color="#4f60ac"/></linearGradient><linearGradient id="C" x1="1640.8" y1="-1200.3" x2="1658.9" y2="-1200.3" gradientTransform="translate(-2656.65 2657.65) rotate(-17.49) scale(1.53 1.25) skewX(-29.82)" xlink:href="#B"/><linearGradient id="D" x1="281.8" y1="171.6" x2="289.1" y2="169.3" xlink:href="#B"/><linearGradient id="E" x1="139.8" y1="54" x2="178.2" y2="41.8" xlink:href="#B"/><linearGradient id="F" x1="12" y1="14.4" x2="139.5" y2="163.1" xlink:href="#EZ"><stop offset="0" stop-color="#2b3990"/><stop offset=".2" stop-color="#3c6192" stop-opacity=".7"/><stop offset=".3" stop-color="#4a8494" stop-opacity=".5"/><stop offset=".5" stop-color="#559f96" stop-opacity=".3"/><stop offset=".7" stop-color="#5eb297" stop-opacity=".1"/><stop offset=".8" stop-color="#62be98" stop-opacity="0"/><stop offset="1" stop-color="#64c298" stop-opacity="0"/></linearGradient><linearGradient id="G" x1="7.1" y1="18.6" x2="134.7" y2="167.2" xlink:href="#F"/><linearGradient id="H" x1="2.3" y1="3" x2="129.8" y2="151.7" xlink:href="#F"/><linearGradient id="I" x1="-2.6" y1="26.9" x2="124.9" y2="175.6" xlink:href="#F"/><linearGradient id="J" x1="-7.5" y1="31.1" x2="120.1" y2="179.8" xlink:href="#F"/><linearGradient id="K" x1="-12.4" y1="35.3" x2="115.2" y2="183.9" xlink:href="#F"/><linearGradient id="L" x1="-17.2" y1="19.8" x2="110.3" y2="168.5" xlink:href="#F"/><linearGradient id="M" x1="-22.1" y1="43.6" x2="105.5" y2="192.3" xlink:href="#F"/><linearGradient id="N" x1="-26.9" y1="47.8" x2="100.6" y2="196.5" xlink:href="#F"/><linearGradient id="O" x1="-31.8" y1="32.2" x2="95.7" y2="180.9" xlink:href="#F"/><linearGradient id="P" x1="17.7" y1="9.5" x2="145.3" y2="158.1" xlink:href="#F"/><linearGradient id="Q" x1="12.8" y1="13.6" x2="140.4" y2="162.3" xlink:href="#F"/><linearGradient id="R" x1="8" y1="17.8" x2="135.5" y2="166.5" xlink:href="#F"/><linearGradient id="S" x1="3.1" y1="22" x2="130.6" y2="170.7" xlink:href="#F"/><linearGradient id="T" x1="-1.7" y1="26.2" x2="125.8" y2="174.8" xlink:href="#F"/><linearGradient id="U" x1="-6.6" y1="30.4" x2="120.9" y2="179" xlink:href="#F"/><linearGradient id="V" x1="-11.5" y1="34.5" x2="116.1" y2="183.2" xlink:href="#F"/><linearGradient id="W" x1="-16.4" y1="38.7" x2="111.2" y2="187.4" xlink:href="#F"/><linearGradient id="X" x1="-31" y1="42.9" x2="96.5" y2="191.6" xlink:href="#F"/><linearGradient id="Y" x1="-26.1" y1="47.1" x2="101.4" y2="195.7" xlink:href="#F"/><linearGradient id="Z" x1="23.4" y1="4.6" x2="151" y2="153.2" xlink:href="#F"/><linearGradient id="a" x1="18.5" y1="8.8" x2="146.1" y2="157.4" xlink:href="#F"/><linearGradient id="b" x1="13.7" y1="12.9" x2="141.2" y2="161.6" xlink:href="#F"/><linearGradient id="c" x1="8.8" y1="17.1" x2="136.3" y2="165.8" xlink:href="#F"/><linearGradient id="d" x1="4" y1="21.3" x2="131.5" y2="169.9" xlink:href="#F"/><linearGradient id="e" x1="-20.6" y1="25.5" x2="106.9" y2="174.2" xlink:href="#F"/><linearGradient id="f" x1="-5.8" y1="29.6" x2="121.8" y2="178.3" xlink:href="#F"/><linearGradient id="g" x1="-10.7" y1="33.8" x2="116.9" y2="182.5" xlink:href="#F"/><linearGradient id="h" x1="-15.5" y1="38" x2="112" y2="186.7" xlink:href="#F"/><linearGradient id="i" x1="-20.4" y1="42.2" x2="107.1" y2="190.8" xlink:href="#F"/><linearGradient id="j" x1="29.1" y1="-.3" x2="156.6" y2="148.4" xlink:href="#F"/><linearGradient id="k" x1="-5.4" y1="3.9" x2="122.2" y2="152.6" xlink:href="#F"/><linearGradient id="l" x1="19.4" y1="-11.7" x2="146.9" y2="137" xlink:href="#F"/><linearGradient id="m" x1="-15.1" y1="12.2" x2="112.4" y2="160.9" xlink:href="#F"/><linearGradient id="n" x1="9.6" y1="16.4" x2="137.2" y2="165.1" xlink:href="#F"/><linearGradient id="o" x1="-24.8" y1="20.6" x2="102.7" y2="169.3" xlink:href="#F"/><linearGradient id="p" x1="-0.1" y1="5.2" x2="127.4" y2="153.8" xlink:href="#F"/><linearGradient id="q" x1="-34.6" y1="28.9" x2="93" y2="177.6" xlink:href="#F"/><linearGradient id="r" x1="-19.7" y1="33.1" x2="107.8" y2="181.8" xlink:href="#F"/><linearGradient id="s" x1="-44.3" y1="17.6" x2="83.2" y2="166.3" xlink:href="#F"/><linearGradient id="t" x1="34.8" y1="-5.2" x2="162.4" y2="143.5" xlink:href="#F"/><linearGradient id="u" x1="30" y1="-1" x2="157.5" y2="147.7" xlink:href="#F"/><linearGradient id="v" x1="25.1" y1="3.1" x2="152.6" y2="151.8" xlink:href="#F"/><linearGradient id="w" x1="20.2" y1="7.3" x2="147.8" y2="156" xlink:href="#F"/><linearGradient id="x" x1="15.4" y1="11.5" x2="142.9" y2="160.2" xlink:href="#F"/><linearGradient id="y" x1="-29" y1="15.7" x2="98.5" y2="164.4" xlink:href="#F"/><linearGradient id="z" x1="5.6" y1="19.8" x2="133.2" y2="168.5" xlink:href="#F"/><linearGradient id="AA" x1=".7" y1="24" x2="128.3" y2="172.7" xlink:href="#F"/><linearGradient id="AB" x1="-4.1" y1="28.2" x2="123.4" y2="176.9" xlink:href="#F"/><linearGradient id="AC" x1="-9" y1="32.4" x2="118.5" y2="181.1" xlink:href="#F"/><linearGradient id="AD" x1="40.5" y1="-10.1" x2="168.1" y2="138.6" xlink:href="#F"/><linearGradient id="AE" x1="35.7" y1="-5.9" x2="163.2" y2="142.8" xlink:href="#F"/><linearGradient id="AF" x1="30.8" y1="-1.8" x2="158.4" y2="146.9" xlink:href="#F"/><linearGradient id="AG" x1="25.9" y1="2.4" x2="153.5" y2="151.1" xlink:href="#F"/><linearGradient id="AH" x1="21.1" y1="6.6" x2="148.6" y2="155.3" xlink:href="#F"/><linearGradient id="AI" x1="-33.2" y1="10.8" x2="94.3" y2="159.5" xlink:href="#F"/><linearGradient id="AJ" x1="11.3" y1="14.9" x2="138.9" y2="163.6" xlink:href="#F"/><linearGradient id="AK" x1="6.4" y1="19.1" x2="134" y2="167.8" xlink:href="#F"/><linearGradient id="AL" x1="-8.3" y1="23.3" x2="119.2" y2="172" xlink:href="#F"/><linearGradient id="AM" x1="-3.3" y1="27.5" x2="124.2" y2="176.2" xlink:href="#F"/><linearGradient id="AN" x1="46.3" y1="-15" x2="173.8" y2="133.7" xlink:href="#F"/><linearGradient id="AO" x1="41.4" y1="-10.8" x2="168.9" y2="137.9" xlink:href="#F"/><linearGradient id="AP" x1="36.5" y1="-6.7" x2="164.1" y2="142" xlink:href="#F"/><linearGradient id="AQ" x1="31.6" y1="-2.5" x2="159.2" y2="146.2" xlink:href="#F"/><linearGradient id="AR" x1="26.8" y1="1.7" x2="154.3" y2="150.4" xlink:href="#F"/><linearGradient id="AS" x1="-37.4" y1="5.9" x2="90.1" y2="154.6" xlink:href="#F"/><linearGradient id="AT" x1="17" y1="10" x2="144.6" y2="158.7" xlink:href="#F"/><linearGradient id="AU" x1="12.2" y1="14.2" x2="139.7" y2="162.9" xlink:href="#F"/><linearGradient id="AV" x1="-12.5" y1="18.4" x2="115" y2="167.1" xlink:href="#F"/><linearGradient id="AW" x1="2.4" y1="22.6" x2="130" y2="171.3" xlink:href="#F"/><linearGradient id="AX" x1="51.9" y1="-19.9" x2="179.5" y2="128.8" xlink:href="#F"/><linearGradient id="AY" x1="-12.4" y1="23.6" x2="115.2" y2="172.3" xlink:href="#F"/><linearGradient id="AZ" x1="42.2" y1="-31.2" x2="169.7" y2="117.5" xlink:href="#F"/><linearGradient id="Aa" x1="-22.1" y1="12.4" x2="105.5" y2="161" xlink:href="#F"/><linearGradient id="Ab" x1="32.5" y1="-42.6" x2="160" y2="106.1" xlink:href="#F"/><linearGradient id="Ac" x1="-31.8" y1="1" x2="95.7" y2="149.7" xlink:href="#F"/><linearGradient id="Ad" x1="22.7" y1="-53.8" x2="150.2" y2="94.9" xlink:href="#F"/><linearGradient id="Ae" x1="17.9" y1="9.3" x2="145.4" y2="158" xlink:href="#F"/><linearGradient id="Af" x1="13" y1="13.5" x2="140.5" y2="162.2" xlink:href="#F"/><linearGradient id="Ag" x1="8.1" y1="-2" x2="135.7" y2="146.7" xlink:href="#F"/><linearGradient id="Ah" x1="57.7" y1="-24.8" x2="185.2" y2="123.9" xlink:href="#F"/><linearGradient id="Ai" x1="52.8" y1="-20.6" x2="180.3" y2="128.1" xlink:href="#F"/><linearGradient id="Aj" x1="47.9" y1="-16.4" x2="175.5" y2="132.2" xlink:href="#F"/><linearGradient id="Ak" x1="43" y1="-12.2" x2="170.6" y2="136.4" xlink:href="#F"/><linearGradient id="Al" x1="38.2" y1="-8.1" x2="165.7" y2="140.6" xlink:href="#F"/><linearGradient id="Am" x1="-35.9" y1="-3.9" x2="91.6" y2="144.8" xlink:href="#F"/><linearGradient id="An" x1="28.5" y1=".3" x2="156" y2="148.9" xlink:href="#F"/><linearGradient id="Ao" x1="23.6" y1="4.5" x2="151.1" y2="153.1" xlink:href="#F"/><linearGradient id="Ap" x1="8.9" y1="8.6" x2="136.4" y2="157.3" xlink:href="#F"/><linearGradient id="Aq" x1="13.8" y1="12.8" x2="141.4" y2="161.5" xlink:href="#F"/><linearGradient id="Ar" x1="63.4" y1="-29.7" x2="190.9" y2="119" xlink:href="#F"/><linearGradient id="As" x1="58.5" y1="-25.5" x2="186" y2="123.2" xlink:href="#F"/><linearGradient id="At" x1="53.6" y1="-21.3" x2="181.2" y2="127.3" xlink:href="#F"/><linearGradient id="Au" x1="48.7" y1="-17.1" x2="176.3" y2="131.5" xlink:href="#F"/><linearGradient id="Av" x1="43.9" y1="-13" x2="171.4" y2="135.7" xlink:href="#F"/><linearGradient id="Aw" x1="-40.2" y1="-8.8" x2="87.3" y2="139.9" xlink:href="#F"/><linearGradient id="Ax" x1="34.2" y1="-4.6" x2="161.7" y2="144" xlink:href="#F"/><linearGradient id="Ay" x1="29.3" y1="-.4" x2="156.8" y2="148.2" xlink:href="#F"/><linearGradient id="Az" x1="4.6" y1="3.8" x2="132.1" y2="152.4" xlink:href="#F"/><linearGradient id="BA" x1="19.5" y1="7.9" x2="147.1" y2="156.6" xlink:href="#F"/><linearGradient id="BB" x1="39.2" y1="-34.5" x2="166.8" y2="114.1" xlink:href="#F"/><linearGradient id="BC" x1="-25" y1="8.9" x2="102.5" y2="157.6" xlink:href="#F"/><linearGradient id="BD" x1="29.5" y1="-45.9" x2="157" y2="102.8" xlink:href="#F"/><linearGradient id="BE" x1="-34.8" y1="-2.3" x2="92.8" y2="146.4" xlink:href="#F"/><linearGradient id="BF" x1="19.8" y1="-57.2" x2="147.3" y2="91.4" xlink:href="#F"/><linearGradient id="BG" x1="-44.5" y1="-13.7" x2="83" y2="135" xlink:href="#F"/><linearGradient id="BH" x1="10" y1="-68.5" x2="137.6" y2="80.2" xlink:href="#F"/><linearGradient id="BI" x1="5.2" y1="-5.3" x2="132.7" y2="143.4" xlink:href="#F"/><linearGradient id="BJ" x1="0.3" y1="-1.1" x2="127.8" y2="147.5" xlink:href="#F"/><linearGradient id="BK" x1="-4.6" y1="-16.7" x2="123" y2="132" xlink:href="#F"/><linearGradient id="BL" x1="74.8" y1="-39.5" x2="202.3" y2="109.2" xlink:href="#F"/><linearGradient id="BM" x1="69.9" y1="-35.3" x2="197.4" y2="113.4" xlink:href="#F"/><linearGradient id="BN" x1="65" y1="-31.1" x2="192.6" y2="117.6" xlink:href="#F"/><linearGradient id="BO" x1="60.1" y1="-26.9" x2="187.7" y2="121.8" xlink:href="#F"/><linearGradient id="BP" x1="55.3" y1="-22.8" x2="182.8" y2="125.9" xlink:href="#F"/><linearGradient id="BQ" x1="-48.6" y1="-18.6" x2="78.9" y2="130.1" xlink:href="#F"/><linearGradient id="BR" x1="45.6" y1="-14.4" x2="173.1" y2="134.3" xlink:href="#F"/><linearGradient id="BS" x1="40.7" y1="-10.2" x2="168.2" y2="138.5" xlink:href="#F"/><linearGradient id="BT" x1="-3.8" y1="-6" x2="123.7" y2="142.6" xlink:href="#F"/><linearGradient id="BU" x1="30.9" y1="-1.9" x2="158.5" y2="146.8" xlink:href="#F"/><linearGradient id="BV" x1="80.5" y1="-44.4" x2="208" y2="104.3" xlink:href="#F"/><linearGradient id="BW" x1="75.6" y1="-40.2" x2="203.1" y2="108.5" xlink:href="#F"/><linearGradient id="BX" x1="70.7" y1="-36" x2="198.3" y2="112.7" xlink:href="#F"/><linearGradient id="BY" x1="65.8" y1="-31.8" x2="193.4" y2="116.9" xlink:href="#F"/><linearGradient id="BZ" x1="61" y1="-27.7" x2="188.5" y2="121" xlink:href="#F"/><linearGradient id="Ba" x1="-52.8" y1="-23.5" x2="74.7" y2="125.2" xlink:href="#F"/><linearGradient id="Bb" x1="51.3" y1="-19.3" x2="178.8" y2="129.4" xlink:href="#F"/><linearGradient id="Bc" x1="46.4" y1="-15.1" x2="173.9" y2="133.6" xlink:href="#F"/><linearGradient id="Bd" x1="-8" y1="-10.9" x2="119.5" y2="137.8" xlink:href="#F"/><linearGradient id="Be" x1="36.6" y1="-6.8" x2="164.2" y2="141.9" xlink:href="#F"/><linearGradient id="Bf" x1="86.2" y1="-49.3" x2="213.7" y2="99.4" xlink:href="#F"/><linearGradient id="Bg" x1="81.3" y1="-45.1" x2="208.8" y2="103.6" xlink:href="#F"/><linearGradient id="Bh" x1="76.4" y1="-40.9" x2="204" y2="107.8" xlink:href="#F"/><linearGradient id="Bi" x1="71.5" y1="-36.7" x2="199.1" y2="112" xlink:href="#F"/><linearGradient id="Bj" x1="66.7" y1="-32.6" x2="194.2" y2="116.1" xlink:href="#F"/><linearGradient id="Bk" x1="61.8" y1="-28.3" x2="189.3" y2="120.3" xlink:href="#F"/><linearGradient id="Bl" x1="57" y1="-24.2" x2="184.5" y2="124.5" xlink:href="#F"/><linearGradient id="Bm" x1="52.1" y1="-20" x2="179.6" y2="128.7" xlink:href="#F"/><linearGradient id="Bn" x1="47.2" y1="-15.8" x2="174.7" y2="132.9" xlink:href="#F"/><linearGradient id="Bo" x1="42.3" y1="-11.7" x2="169.9" y2="137" xlink:href="#F"/><linearGradient id="Bp" x1="91.8" y1="-54.1" x2="219.4" y2="94.6" xlink:href="#F"/><linearGradient id="Bq" x1="77.1" y1="-10.6" x2="204.6" y2="138" xlink:href="#F"/><linearGradient id="Br" x1="82.1" y1="-65.5" x2="209.6" y2="83.2" xlink:href="#F"/><linearGradient id="Bs" x1="67.3" y1="-21.9" x2="194.9" y2="126.8" xlink:href="#F"/><linearGradient id="Bt" x1="72.4" y1="-76.8" x2="199.9" y2="71.9" xlink:href="#F"/><linearGradient id="Bu" x1="57.6" y1="-33.2" x2="185.1" y2="115.4" xlink:href="#F"/><linearGradient id="Bv" x1="62.6" y1="-88.1" x2="190.2" y2="60.6" xlink:href="#F"/><linearGradient id="Bw" x1="57.8" y1="-24.9" x2="185.3" y2="123.8" xlink:href="#F"/><linearGradient id="Bx" x1="43" y1="-20.7" x2="170.5" y2="128" xlink:href="#F"/><linearGradient id="By" x1="48" y1="-36.2" x2="175.6" y2="112.4" xlink:href="#F"/><linearGradient id="Bz" x1="97.6" y1="-59" x2="225.1" y2="89.6" xlink:href="#F"/><linearGradient id="CA" x1="92.7" y1="-54.8" x2="220.2" y2="93.8" xlink:href="#F"/><linearGradient id="CB" x1="87.8" y1="-50.7" x2="215.4" y2="98" xlink:href="#F"/><linearGradient id="CC" x1="83" y1="-46.5" x2="210.5" y2="102.2" xlink:href="#F"/><linearGradient id="CD" x1="78.1" y1="-42.3" x2="205.7" y2="106.3" xlink:href="#F"/><linearGradient id="CE" x1="53.4" y1="-38.1" x2="180.9" y2="110.6" xlink:href="#F"/><linearGradient id="CF" x1="68.4" y1="-34" x2="195.9" y2="114.7" xlink:href="#F"/><linearGradient id="CG" x1="63.5" y1="-29.8" x2="191" y2="118.9" xlink:href="#F"/><linearGradient id="CH" x1="38.8" y1="-25.6" x2="166.3" y2="123.1" xlink:href="#F"/><linearGradient id="CI" x1="53.7" y1="-21.4" x2="181.3" y2="127.2" xlink:href="#F"/><linearGradient id="CJ" x1="103.3" y1="-63.9" x2="230.8" y2="84.8" xlink:href="#F"/><linearGradient id="CK" x1="98.4" y1="-59.7" x2="225.9" y2="88.9" xlink:href="#F"/><linearGradient id="CL" x1="93.5" y1="-55.6" x2="221.1" y2="93.1" xlink:href="#F"/><linearGradient id="CM" x1="88.7" y1="-51.4" x2="216.2" y2="97.3" xlink:href="#F"/><linearGradient id="CN" x1="83.8" y1="-47.2" x2="211.4" y2="101.5" xlink:href="#F"/><linearGradient id="CO" x1="49.2" y1="-43" x2="176.7" y2="105.7" xlink:href="#F"/><linearGradient id="CP" x1="74.1" y1="-38.9" x2="201.6" y2="109.8" xlink:href="#F"/><linearGradient id="CQ" x1="69.2" y1="-34.7" x2="196.7" y2="114" xlink:href="#F"/><linearGradient id="CR" x1="34.6" y1="-30.5" x2="162.1" y2="118.2" xlink:href="#F"/><linearGradient id="CS" x1="59.5" y1="-26.3" x2="187" y2="122.3" xlink:href="#F"/><linearGradient id="CT" x1="79.3" y1="-68.8" x2="206.8" y2="79.9" xlink:href="#F"/><linearGradient id="CU" x1="64.5" y1="-25.3" x2="192" y2="123.4" xlink:href="#F"/><linearGradient id="CV" x1="69.5" y1="-80.1" x2="197.1" y2="68.5" xlink:href="#F"/><linearGradient id="CW" x1="54.7" y1="-36.6" x2="182.3" y2="112.1" xlink:href="#F"/><linearGradient id="CX" x1="59.8" y1="-91.5" x2="187.3" y2="57.2" xlink:href="#F"/><linearGradient id="CY" x1="45" y1="-47.9" x2="172.5" y2="100.8" xlink:href="#F"/><linearGradient id="CZ" x1="50" y1="-102.7" x2="177.6" y2="45.9" xlink:href="#F"/><linearGradient id="Ca" x1="45.2" y1="-39.6" x2="172.7" y2="109.1" xlink:href="#F"/><linearGradient id="Cb" x1="30.4" y1="-35.4" x2="157.9" y2="113.3" xlink:href="#F"/><linearGradient id="Cc" x1="35.5" y1="-50.9" x2="163" y2="97.8" xlink:href="#F"/><linearGradient id="Cd" x1="114.7" y1="-73.7" x2="242.2" y2="75" xlink:href="#F"/><linearGradient id="Ce" x1="109.8" y1="-69.5" x2="237.3" y2="79.2" xlink:href="#F"/><linearGradient id="Cf" x1="105" y1="-65.4" x2="232.5" y2="83.3" xlink:href="#F"/><linearGradient id="Cg" x1="100.1" y1="-61.2" x2="227.6" y2="87.5" xlink:href="#F"/><linearGradient id="Ch" x1="95.2" y1="-57" x2="222.8" y2="91.7" xlink:href="#F"/><linearGradient id="Ci" x1="40.9" y1="-52.8" x2="168.5" y2="95.9" xlink:href="#F"/><linearGradient id="Cj" x1="85.5" y1="-48.7" x2="213" y2="100" xlink:href="#F"/><linearGradient id="Ck" x1="80.6" y1="-44.5" x2="208.1" y2="104.2" xlink:href="#F"/><linearGradient id="Cl" x1="26.3" y1="-40.3" x2="153.9" y2="108.4" xlink:href="#F"/><linearGradient id="Cm" x1="70.9" y1="-36.1" x2="198.4" y2="112.6" xlink:href="#F"/><linearGradient id="Cn" x1="120.4" y1="-78.6" x2="247.9" y2="70.1" xlink:href="#F"/><linearGradient id="Co" x1="115.5" y1="-74.4" x2="243" y2="74.3" xlink:href="#F"/><linearGradient id="Cp" x1="110.7" y1="-70.3" x2="238.2" y2="78.4" xlink:href="#F"/><linearGradient id="Cq" x1="105.8" y1="-66.1" x2="233.3" y2="82.6" xlink:href="#F"/><linearGradient id="Cr" x1="100.9" y1="-61.9" x2="228.5" y2="86.8" xlink:href="#F"/><linearGradient id="Cs" x1="36.6" y1="-57.7" x2="164.2" y2="91" xlink:href="#F"/><linearGradient id="Ct" x1="91.2" y1="-53.6" x2="218.7" y2="95.1" xlink:href="#F"/><linearGradient id="Cu" x1="86.3" y1="-49.4" x2="213.8" y2="99.3" xlink:href="#F"/><linearGradient id="Cv" x1="22" y1="-45.2" x2="149.6" y2="103.5" xlink:href="#F"/><linearGradient id="Cw" x1="76.6" y1="-41" x2="204.1" y2="107.7" xlink:href="#F"/><linearGradient id="Cx" x1="126.1" y1="-83.5" x2="253.6" y2="65.2" xlink:href="#F"/><linearGradient id="Cy" x1="121.2" y1="-79.3" x2="248.7" y2="69.4" xlink:href="#F"/><linearGradient id="Cz" x1="116.4" y1="-75.2" x2="243.9" y2="73.5" xlink:href="#F"/><linearGradient id="DA" x1="111.5" y1="-71" x2="239" y2="77.7" xlink:href="#F"/><linearGradient id="DB" x1="106.6" y1="-66.8" x2="234.2" y2="81.9" xlink:href="#F"/><linearGradient id="DC" x1="32.3" y1="-62.6" x2="159.9" y2="86.1" xlink:href="#F"/><linearGradient id="DD" x1="96.9" y1="-58.4" x2="224.4" y2="90.2" xlink:href="#F"/><linearGradient id="DE" x1="92" y1="-54.3" x2="219.5" y2="94.4" xlink:href="#F"/><linearGradient id="DF" x1="17.7" y1="-50.1" x2="145.3" y2="98.6" xlink:href="#F"/><linearGradient id="DG" x1="82.3" y1="-45.9" x2="209.8" y2="102.8" xlink:href="#F"/><linearGradient id="DH" x1="62.5" y1="-88.4" x2="190" y2="60.3" xlink:href="#F"/><linearGradient id="DI" x1="47.7" y1="-44.9" x2="175.2" y2="103.8" xlink:href="#F"/><linearGradient id="DJ" x1="52.7" y1="-99.7" x2="180.3" y2="49" xlink:href="#F"/><linearGradient id="DK" x1="38" y1="-56.1" x2="165.5" y2="92.6" xlink:href="#F"/><linearGradient id="DL" x1="43" y1="-111.1" x2="170.5" y2="37.6" xlink:href="#F"/><linearGradient id="DM" x1="28.2" y1="-67.5" x2="155.8" y2="81.2" xlink:href="#F"/><linearGradient id="DN" x1="33.3" y1="-122.3" x2="160.8" y2="26.4" xlink:href="#F"/><linearGradient id="DO" x1="28.4" y1="-59.1" x2="155.9" y2="89.5" xlink:href="#F"/><linearGradient id="DP" x1="13.6" y1="-55" x2="141.2" y2="93.7" xlink:href="#F"/><linearGradient id="DQ" x1="18.7" y1="-70.5" x2="146.2" y2="78.2" xlink:href="#F"/><linearGradient id="DR" x1="137.5" y1="-93.3" x2="265" y2="55.4" xlink:href="#F"/><linearGradient id="DS" x1="132.6" y1="-89.1" x2="260.2" y2="59.6" xlink:href="#F"/><linearGradient id="DT" x1="127.8" y1="-84.9" x2="255.3" y2="63.7" xlink:href="#F"/><linearGradient id="DU" x1="122.9" y1="-80.7" x2="250.4" y2="67.9" xlink:href="#F"/><linearGradient id="DV" x1="118" y1="-76.6" x2="245.6" y2="72.1" xlink:href="#F"/><linearGradient id="DW" x1="24" y1="-72.4" x2="151.6" y2="76.3" xlink:href="#F"/><linearGradient id="DX" x1="108.3" y1="-68.2" x2="235.8" y2="80.4" xlink:href="#F"/><linearGradient id="DY" x1="103.4" y1="-64" x2="230.9" y2="84.6" xlink:href="#F"/><linearGradient id="DZ" x1="9.4" y1="-59.8" x2="137" y2="88.8" xlink:href="#F"/><linearGradient id="Da" x1="93.7" y1="-55.7" x2="221.2" y2="93" xlink:href="#F"/><linearGradient id="Db" x1="143.2" y1="-98.2" x2="270.7" y2="50.5" xlink:href="#F"/><linearGradient id="Dc" x1="138.3" y1="-94" x2="265.9" y2="54.7" xlink:href="#F"/><linearGradient id="Dd" x1="133.5" y1="-89.8" x2="261" y2="58.9" xlink:href="#F"/><linearGradient id="De" x1="128.6" y1="-85.6" x2="256.1" y2="63.1" xlink:href="#F"/><linearGradient id="Df" x1="123.7" y1="-81.5" x2="251.3" y2="67.2" xlink:href="#F"/><linearGradient id="Dg" x1="19.8" y1="-77.3" x2="147.4" y2="71.4" xlink:href="#F"/><linearGradient id="Dh" x1="114" y1="-73.1" x2="241.5" y2="75.6" xlink:href="#F"/><linearGradient id="Di" x1="109.1" y1="-68.9" x2="236.7" y2="79.8" xlink:href="#F"/><linearGradient id="Dj" x1="5.2" y1="-64.7" x2="132.8" y2="83.9" xlink:href="#F"/><linearGradient id="Dk" x1="99.4" y1="-60.6" x2="226.9" y2="88.1" xlink:href="#F"/><linearGradient id="Dl" x1="49.9" y1="-103" x2="177.4" y2="45.6" xlink:href="#F"/><linearGradient id="Dm" x1="35.1" y1="-59.6" x2="162.6" y2="89.1" xlink:href="#F"/><linearGradient id="Dn" x1="40.1" y1="-114.4" x2="167.7" y2="34.3" xlink:href="#F"/><linearGradient id="Do" x1="25.4" y1="-70.8" x2="152.9" y2="77.9" xlink:href="#F"/><linearGradient id="Dp" x1="30.4" y1="-125.7" x2="157.9" y2="22.9" xlink:href="#F"/><linearGradient id="Dq" x1="15.6" y1="-82.2" x2="143.2" y2="66.5" xlink:href="#F"/><linearGradient id="Dr" x1="20.7" y1="-137" x2="148.2" y2="11.7" xlink:href="#F"/><linearGradient id="Ds" x1="15.8" y1="-73.8" x2="143.4" y2="74.9" xlink:href="#F"/><linearGradient id="Dt" x1="1" y1="-69.6" x2="128.6" y2="79" xlink:href="#F"/><linearGradient id="Du" x1="6.1" y1="-85.2" x2="133.6" y2="63.5" xlink:href="#F"/><radialGradient id="Dv" cx="261.7" cy="-402" fx="261.7" fy="-402" r="14.4" gradientTransform="translate(-237 -339.7) scale(1 -1)" xlink:href="#EZ"><stop offset="0" stop-color="#6b6b6b"/><stop offset="1" stop-color="#2b3990"/></radialGradient><radialGradient id="Dw" cx="261.8" cy="-402.4" fx="261.8" fy="-402.4" r="15.7" gradientTransform="translate(-237 -339.7) scale(1 -1)" xlink:href="#EZ"><stop offset="0" stop-color="#fff"/><stop offset=".5" stop-color="#fff"/><stop offset="1" stop-color="#d7d6d6"/></radialGradient><linearGradient id="Dx" x1="-379.9" y1="177.8" x2="-379.8" y2="177.8" gradientTransform="translate(47887.8 25948.4) scale(125.98 -145.58)" xlink:href="#EZ"><stop offset="0" stop-color="#2b3990"/><stop offset="1" stop-color="#010101" stop-opacity="0"/></linearGradient><linearGradient id="Dy" x1="-378.1" y1="177.4" x2="-378.2" y2="177.4" gradientTransform="translate(46824.5 26649.55) scale(123.79 -149.89)" xlink:href="#Dx"/><linearGradient id="Dz" x1="-379.5" y1="175.4" x2="-379.5" y2="175.5" gradientTransform="translate(49862 13042.15) scale(131.31 -74.05)" xlink:href="#EZ"><stop offset="0" stop-color="#2b3990"/><stop offset="1" stop-color="#2b3990" stop-opacity="0"/></linearGradient><radialGradient id="EA" cx="547.2" cy="-334" fx="547.2" fy="-334" r="15.3" gradientTransform="translate(0 1)" xlink:href="#Dv"/><radialGradient id="EB" cx="547.3" cy="-334.4" fx="547.3" fy="-334.4" r="16.7" gradientTransform="translate(0 1)" xlink:href="#Dw"/><linearGradient id="EC" x1="-377.6" y1="176.1" x2="-377.6" y2="176.1" xlink:href="#Dx"/><linearGradient id="ED" x1="-375.8" y1="175.7" x2="-375.9" y2="175.8" gradientTransform="translate(46824.5 26649.55) scale(123.79 -149.89)" xlink:href="#Dx"/><linearGradient id="EE" x1="-377.3" y1="172.1" x2="-377.3" y2="172.2" xlink:href="#Dz"/><path id="EF" d="M335 0H0v259.8l1.7 1 4.6-1 3.7-3.4 4.7-1 4.2-1.3 4.5 2.7 4-1 4.3-2 4 3 4.2-1.5 4.2-.3 4.2.2 3.5-2 4.2.3 3.7-2.2 4.3 3L68 253h4.6l4 2 3.2 3.2 4.2 1.4 4.4 1.2H93l4.6-.7 4.6-.8 4.6 1.7 4.2-2 4.8 1 4-2 4-1.8 4.3-1.5 4.2-1.5 4.3-1 5 1.7 4-2 4-1.5 4.2-.1 4-1.5 4.2.4 4-.6 4 1.6 4-.6 4-.6 4.2 2 4.8 1 4.2 2.7 5-1.4 4.3 4 4.6-.6 4.3-1 4 1.2 4.2-1.5 4-.3 4 .6 4 1.7 4.2 1.3 4-3.2 4.3 1.7 4.2.3 4-2.2 3.8-2.2 4.5 2.3h4.3l2.8-5.2 4.3.7 4.2 2 3.7-.7 4.5-1.5 3.2 3.7 3.7 2.2 4.7-.4 3.5 2.8 5-1 3.3 3.6 4.2.8 4.4-.6 4 1.5 4.3-1 4.6 1 4.4.5 2.8-.4v-83.7h0 0V0z"/><path id="EG" d="M3 3c0 .4-.2.6-.6.7-.4 0-.7-.3-.7-.7h0c.1-.4.3-.6.7-.6.3 0 .6.3.6.6h0z"/><path id="EH" d="M3 13c0 .3-.3.6-.6.6h0c-.4 0-.6-.2-.7-.6 0-.4.3-.6.7-.6.3 0 .6.3.6.6h0z"/><path id="EI" d="M3 32.6c0 .3-.3.6-.6.6-.4 0-.6-.2-.7-.6 0-.4.3-.6.7-.6.3 0 .6.3.6.6h0z"/><path id="EJ" d="M3 42.4c0 .4-.2.6-.6.7-.4 0-.7-.3-.7-.7h0c.1-.4.3-.6.7-.6.3 0 .6.3.6.6z"/><path id="EK" d="M3 52.3c0 .3-.3.6-.6.6-.4 0-.6-.2-.7-.6 0-.4.3-.6.7-.6.3 0 .6.3.6.6z"/><path id="EL" d="M3 72c0 .3-.3.6-.6.6-.4 0-.6-.2-.7-.6 0-.4.3-.7.7-.7.4 0 .6.3.6.7z"/><path id="EM" d="M3 81.8c0 .3-.2.7-.6.7-.4 0-.7-.3-.7-.7.1-.3.3-.6.7-.6.3 0 .6.3.6.6z"/><path id="EN" d="M12.8 52.3c0 .3-.3.6-.6.6-.3 0-.7-.2-.7-.6 0-.4.3-.6.7-.6.3 0 .6.3.6.6z"/><path id="EO" d="M22.7 81.8c0 .3-.2.7-.6.7-.4 0-.7-.3-.7-.7.1-.3.4-.6.7-.6.3 0 .6.3.6.6z"/><path id="EP" d="M32.6 3c0 .4-.2.6-.6.7-.4 0-.7-.3-.7-.7h0c.1-.4.4-.6.7-.6.3 0 .6.3.6.6h0z"/><path id="EQ" d="M32.6 42.4c0 .4-.2.6-.6.7-.4 0-.7-.3-.7-.7h0c.1-.4.4-.6.7-.6.3 0 .6.3.6.6z"/><path id="ER" d="M42.5 81.8c0 .3-.2.7-.6.7-.4 0-.7-.3-.7-.7 0-.3.4-.6.7-.6.3 0 .6.3.6.6z"/><path id="ES" d="M72.2 3c0 .4-.2.6-.6.7-.4 0-.7-.3-.7-.7 0-.4.3-.6.7-.6.3 0 .6.3.6.6z"/><path id="ET" d="M72.2 72c0 .3-.3.6-.6.6-.3 0-.7-.2-.7-.6 0-.4.3-.7.7-.7.3 0 .6.3.6.7z"/><path id="EU" d="M72.2 81.8c0 .3-.2.7-.6.7-.4 0-.7-.3-.7-.7 0-.3.3-.6.7-.6.3 0 .6.3.6.6z"/><path id="EV" d="M131.6 52.3c0 .3-.3.6-.6.6h0c-.3 0-.7-.2-.7-.6 0-.4.3-.6.7-.6.3 0 .6.3.6.6h0z"/><path id="EW" d="M131.6 81.8c0 .3-.2.7-.6.7-.4 0-.7-.3-.7-.7.1-.3.3-.6.7-.6.3 0 .6.3.6.6h0z"/><path id="EX" d="M141.5 3c0 .4-.2.6-.6.7-.4 0-.7-.3-.7-.7.1-.4.3-.6.7-.6.3 0 .6.3.6.6h0z"/><path id="EY" d="M141.5 72c0 .3-.3.6-.6.6h0c-.3 0-.7-.2-.7-.6 0-.4.3-.7.7-.7.3 0 .6.3.6.7z"/><linearGradient id="EZ" gradientUnits="userSpaceOnUse"/></defs><path fill="#fff" d="M0 242.5h335V335H0z"/><use xlink:href="#EF" fill="#cfd0d0"/><use xlink:href="#EF" fill="url(#A)"/><g opacity=".6" fill="none" stroke-miterlimit="10" stroke-width=".7"><path stroke="url(#B)" d="M 172.90001 44.40001 L 107.6 109.7"/><path stroke="url(#C)" d="M 328.00001 127.20001 L 293.9 161.2"/><path stroke="url(#D)" d="M 288.40000999999995 167.50001 L 282.5 173.4"/><path stroke="url(#E)" d="M 174.90001 32.00001 L 143.1 63.8"/></g><use xlink:href="#EG" fill="url(#F)"/><use xlink:href="#EH" fill="url(#G)"/><use xlink:href="#EG" y="19.7" fill="url(#H)"/><use xlink:href="#EI" fill="url(#I)"/><use xlink:href="#EJ" fill="url(#J)"/><use xlink:href="#EK" fill="url(#K)"/><use xlink:href="#EJ" y="19.6" fill="url(#L)"/><use xlink:href="#EL" fill="url(#M)"/><use xlink:href="#EM" fill="url(#N)"/><use xlink:href="#EL" y="19.7" fill="url(#O)"/><circle cx="12.2" cy="3" r=".6" fill="url(#P)"/><circle cx="12.2" cy="12.9" r=".6" fill="url(#Q)"/><circle cx="12.2" cy="22.7" r=".6" fill="url(#R)"/><circle cx="12.2" cy="32.6" r=".6" fill="url(#S)"/><circle cx="12.2" cy="42.4" r=".6" fill="url(#T)"/><use xlink:href="#EN" fill="url(#U)"/><circle cx="12.2" cy="62.1" r=".6" fill="url(#V)"/><circle cx="12.2" cy="72" r=".6" fill="url(#W)"/><use xlink:href="#EM" x="9.8" fill="url(#X)"/><circle cx="12.2" cy="91.7" r=".6" fill="url(#Y)"/><circle cx="22.1" cy="3" r=".6" fill="url(#Z)"/><circle cx="22.1" cy="12.9" r=".6" fill="url(#a)"/><circle cx="22.1" cy="22.7" r=".6" fill="url(#b)"/><circle cx="22.1" cy="32.6" r=".6" fill="url(#c)"/><circle cx="22.1" cy="42.4" r=".6" fill="url(#d)"/><use xlink:href="#EK" x="19.7" fill="url(#e)"/><circle cx="22.1" cy="62.1" r=".6" fill="url(#f)"/><circle cx="22.1" cy="72" r=".6" fill="url(#g)"/><use xlink:href="#EO" fill="url(#h)"/><circle cx="22.1" cy="91.7" r=".6" fill="url(#i)"/><use xlink:href="#EP" fill="url(#j)"/><use xlink:href="#EH" x="29.6" fill="url(#k)"/><use xlink:href="#EP" y="19.7" fill="url(#l)"/><use xlink:href="#EI" x="29.6" fill="url(#m)"/><use xlink:href="#EQ" fill="url(#n)"/><use xlink:href="#EK" x="29.6" fill="url(#o)"/><use xlink:href="#EQ" y="19.6" fill="url(#p)"/><use xlink:href="#EL" x="29.6" fill="url(#q)"/><use xlink:href="#EO" x="9.9" fill="url(#r)"/><use xlink:href="#EL" x="29.6" y="19.7" fill="url(#s)"/><circle cx="41.9" cy="3" r=".6" fill="url(#t)"/><circle cx="41.9" cy="12.9" r=".6" fill="url(#u)"/><circle cx="41.9" cy="22.7" r=".6" fill="url(#v)"/><circle cx="41.9" cy="32.6" r=".6" fill="url(#w)"/><circle cx="41.9" cy="42.4" r=".6" fill="url(#x)"/><use xlink:href="#EK" x="39.5" fill="url(#y)"/><circle cx="41.9" cy="62.1" r=".6" fill="url(#z)"/><circle cx="41.9" cy="72" r=".6" fill="url(#AA)"/><use xlink:href="#ER" fill="url(#AB)"/><circle cx="41.9" cy="91.7" r=".6" fill="url(#AC)"/><circle cx="51.8" cy="3" r=".6" fill="url(#AD)"/><circle cx="51.8" cy="12.9" r=".6" fill="url(#AE)"/><circle cx="51.8" cy="22.7" r=".6" fill="url(#AF)"/><circle cx="51.8" cy="32.6" r=".6" fill="url(#AG)"/><circle cx="51.8" cy="42.4" r=".6" fill="url(#AH)"/><use xlink:href="#EK" x="49.4" fill="url(#AI)"/><circle cx="51.8" cy="62.1" r=".6" fill="url(#AJ)"/><circle cx="51.8" cy="72" r=".6" fill="url(#AK)"/><use xlink:href="#ER" x="9.9" fill="url(#AL)"/><circle cx="51.8" cy="91.7" r=".6" fill="url(#AM)"/><circle cx="61.7" cy="3" r=".6" fill="url(#AN)"/><circle cx="61.7" cy="12.9" r=".6" fill="url(#AO)"/><circle cx="61.7" cy="22.7" r=".6" fill="url(#AP)"/><circle cx="61.7" cy="32.6" r=".6" fill="url(#AQ)"/><circle cx="61.7" cy="42.4" r=".6" fill="url(#AR)"/><use xlink:href="#EK" x="59.3" fill="url(#AS)"/><circle cx="61.7" cy="62.1" r=".6" fill="url(#AT)"/><circle cx="61.7" cy="72" r=".6" fill="url(#AU)"/><use xlink:href="#ER" x="19.8" fill="url(#AV)"/><circle cx="61.7" cy="91.7" r=".6" fill="url(#AW)"/><use xlink:href="#ES" fill="url(#AX)"/><use xlink:href="#EN" x="59.4" y="-39.3" fill="url(#AY)"/><use xlink:href="#ES" y="19.7" fill="url(#AZ)"/><use xlink:href="#EN" x="59.4" y="-19.7" fill="url(#Aa)"/><use xlink:href="#ES" y="39.4" fill="url(#Ab)"/><use xlink:href="#EN" x="59.4" fill="url(#Ac)"/><use xlink:href="#ES" y="59" fill="url(#Ad)"/><use xlink:href="#ET" fill="url(#Ae)"/><use xlink:href="#EU" fill="url(#Af)"/><use xlink:href="#ET" y="19.7" fill="url(#Ag)"/><circle cx="81.5" cy="3" r=".6" fill="url(#Ah)"/><circle cx="81.5" cy="12.9" r=".6" fill="url(#Ai)"/><circle cx="81.5" cy="22.7" r=".6" fill="url(#Aj)"/><circle cx="81.5" cy="32.6" r=".6" fill="url(#Ak)"/><circle cx="81.5" cy="42.4" r=".6" fill="url(#Al)"/><use xlink:href="#EN" x="69.2" fill="url(#Am)"/><circle cx="81.5" cy="62.1" r=".6" fill="url(#An)"/><circle cx="81.5" cy="72" r=".6" fill="url(#Ao)"/><use xlink:href="#EU" x="9.8" fill="url(#Ap)"/><circle cx="81.5" cy="91.7" r=".6" fill="url(#Aq)"/><circle cx="91.4" cy="3" r=".6" fill="url(#Ar)"/><circle cx="91.4" cy="12.9" r=".6" fill="url(#As)"/><circle cx="91.4" cy="22.7" r=".6" fill="url(#At)"/><circle cx="91.4" cy="32.6" r=".6" fill="url(#Au)"/><circle cx="91.4" cy="42.4" r=".6" fill="url(#Av)"/><use xlink:href="#EN" x="79.2" fill="url(#Aw)"/><circle cx="91.4" cy="62.1" r=".6" fill="url(#Ax)"/><circle cx="91.4" cy="72" r=".6" fill="url(#Ay)"/><use xlink:href="#EU" x="19.8" fill="url(#Az)"/><circle cx="91.4" cy="91.7" r=".6" fill="url(#BA)"/><use xlink:href="#ES" x="29.8" fill="url(#BB)"/><use xlink:href="#EN" x="89.2" y="-39.3" fill="url(#BC)"/><use xlink:href="#ES" x="29.8" y="19.7" fill="url(#BD)"/><use xlink:href="#EN" x="89.2" y="-19.7" fill="url(#BE)"/><use xlink:href="#ES" x="29.8" y="39.4" fill="url(#BF)"/><use xlink:href="#EN" x="89.2" fill="url(#BG)"/><use xlink:href="#ES" x="29.8" y="59" fill="url(#BH)"/><use xlink:href="#ET" x="29.8" fill="url(#BI)"/><use xlink:href="#EU" x="29.8" fill="url(#BJ)"/><use xlink:href="#ET" x="29.8" y="19.7" fill="url(#BK)"/><circle cx="111.2" cy="3" r=".6" fill="url(#BL)"/><circle cx="111.2" cy="12.9" r=".6" fill="url(#BM)"/><circle cx="111.2" cy="22.7" r=".6" fill="url(#BN)"/><circle cx="111.2" cy="32.6" r=".6" fill="url(#BO)"/><circle cx="111.2" cy="42.4" r=".6" fill="url(#BP)"/><use xlink:href="#EN" x="99" fill="url(#BQ)"/><circle cx="111.2" cy="62.1" r=".6" fill="url(#BR)"/><circle cx="111.2" cy="72" r=".6" fill="url(#BS)"/><use xlink:href="#EU" x="39.6" fill="url(#BT)"/><circle cx="111.2" cy="91.7" r=".6" fill="url(#BU)"/><circle cx="121.1" cy="3" r=".6" fill="url(#BV)"/><circle cx="121.1" cy="12.9" r=".6" fill="url(#BW)"/><circle cx="121.1" cy="22.7" r=".6" fill="url(#BX)"/><circle cx="121.1" cy="32.6" r=".6" fill="url(#BY)"/><circle cx="121.1" cy="42.4" r=".6" fill="url(#BZ)"/><use xlink:href="#EN" x="108.9" fill="url(#Ba)"/><circle cx="121.1" cy="62.1" r=".6" fill="url(#Bb)"/><circle cx="121.1" cy="72" r=".6" fill="url(#Bc)"/><use xlink:href="#EU" x="49.5" fill="url(#Bd)"/><circle cx="121.1" cy="91.7" r=".6" fill="url(#Be)"/><circle cx="131" cy="3" r=".6" fill="url(#Bf)"/><circle cx="131" cy="12.9" r=".6" fill="url(#Bg)"/><circle cx="131" cy="22.7" r=".6" fill="url(#Bh)"/><circle cx="131" cy="32.6" r=".6" fill="url(#Bi)"/><circle cx="131" cy="42.4" r=".6" fill="url(#Bj)"/><use xlink:href="#EV" fill="url(#Bk)"/><circle cx="131" cy="62.1" r=".6" fill="url(#Bl)"/><circle cx="131" cy="72" r=".6" fill="url(#Bm)"/><use xlink:href="#EW" fill="url(#Bn)"/><circle cx="131" cy="91.7" r=".6" fill="url(#Bo)"/><use xlink:href="#EX" fill="url(#Bp)"/><use xlink:href="#EV" x="9.9" y="-39.3" fill="url(#Bq)"/><use xlink:href="#EX" y="19.7" fill="url(#Br)"/><use xlink:href="#EV" x="9.9" y="-19.7" fill="url(#Bs)"/><use xlink:href="#EX" y="39.4" fill="url(#Bt)"/><use xlink:href="#EV" x="9.9" fill="url(#Bu)"/><use xlink:href="#EX" y="59" fill="url(#Bv)"/><use xlink:href="#EY" fill="url(#Bw)"/><use xlink:href="#EW" x="9.9" fill="url(#Bx)"/><use xlink:href="#EY" y="19.7" fill="url(#By)"/><circle cx="150.8" cy="3" r=".6" fill="url(#Bz)"/><circle cx="150.8" cy="12.9" r=".6" fill="url(#CA)"/><circle cx="150.8" cy="22.7" r=".6" fill="url(#CB)"/><circle cx="150.8" cy="32.6" r=".6" fill="url(#CC)"/><circle cx="150.8" cy="42.4" r=".6" fill="url(#CD)"/><use xlink:href="#EV" x="19.8" fill="url(#CE)"/><circle cx="150.8" cy="62.1" r=".6" fill="url(#CF)"/><circle cx="150.8" cy="72" r=".6" fill="url(#CG)"/><use xlink:href="#EW" x="19.8" fill="url(#CH)"/><circle cx="150.8" cy="91.7" r=".6" fill="url(#CI)"/><circle cx="160.7" cy="3" r=".6" fill="url(#CJ)"/><circle cx="160.7" cy="12.9" r=".6" fill="url(#CK)"/><circle cx="160.7" cy="22.7" r=".6" fill="url(#CL)"/><circle cx="160.7" cy="32.6" r=".6" fill="url(#CM)"/><circle cx="160.7" cy="42.4" r=".6" fill="url(#CN)"/><use xlink:href="#EV" x="29.7" fill="url(#CO)"/><circle cx="160.7" cy="62.1" r=".6" fill="url(#CP)"/><circle cx="160.7" cy="72" r=".6" fill="url(#CQ)"/><use xlink:href="#EW" x="29.7" fill="url(#CR)"/><circle cx="160.7" cy="91.7" r=".6" fill="url(#CS)"/><use xlink:href="#EX" x="29.7" fill="url(#CT)"/><use xlink:href="#EV" x="39.6" y="-39.3" fill="url(#CU)"/><use xlink:href="#EX" x="29.7" y="19.7" fill="url(#CV)"/><use xlink:href="#EV" x="39.6" y="-19.7" fill="url(#CW)"/><use xlink:href="#EX" x="29.7" y="39.4" fill="url(#CX)"/><use xlink:href="#EV" x="39.6" fill="url(#CY)"/><use xlink:href="#EX" x="29.7" y="59" fill="url(#CZ)"/><use xlink:href="#EY" x="29.7" fill="url(#Ca)"/><use xlink:href="#EW" x="39.6" fill="url(#Cb)"/><use xlink:href="#EY" x="29.7" y="19.7" fill="url(#Cc)"/><circle cx="180.5" cy="3" r=".6" fill="url(#Cd)"/><circle cx="180.5" cy="12.9" r=".6" fill="url(#Ce)"/><circle cx="180.5" cy="22.7" r=".6" fill="url(#Cf)"/><circle cx="180.5" cy="32.6" r=".6" fill="url(#Cg)"/><circle cx="180.5" cy="42.4" r=".6" fill="url(#Ch)"/><use xlink:href="#EV" x="49.4" fill="url(#Ci)"/><circle cx="180.5" cy="62.1" r=".6" fill="url(#Cj)"/><circle cx="180.5" cy="72" r=".6" fill="url(#Ck)"/><use xlink:href="#EW" x="49.4" fill="url(#Cl)"/><circle cx="180.5" cy="91.7" r=".6" fill="url(#Cm)"/><circle cx="190.4" cy="3" r=".6" fill="url(#Cn)"/><circle cx="190.4" cy="12.9" r=".6" fill="url(#Co)"/><circle cx="190.4" cy="22.7" r=".6" fill="url(#Cp)"/><circle cx="190.4" cy="32.6" r=".6" fill="url(#Cq)"/><circle cx="190.4" cy="42.4" r=".6" fill="url(#Cr)"/><use xlink:href="#EV" x="59.4" fill="url(#Cs)"/><circle cx="190.4" cy="62.1" r=".6" fill="url(#Ct)"/><circle cx="190.4" cy="72" r=".6" fill="url(#Cu)"/><use xlink:href="#EW" x="59.4" fill="url(#Cv)"/><circle cx="190.4" cy="91.7" r=".6" fill="url(#Cw)"/><circle cx="200.3" cy="3" r=".6" fill="url(#Cx)"/><circle cx="200.3" cy="12.9" r=".6" fill="url(#Cy)"/><circle cx="200.3" cy="22.7" r=".6" fill="url(#Cz)"/><circle cx="200.3" cy="32.6" r=".6" fill="url(#DA)"/><circle cx="200.3" cy="42.4" r=".6" fill="url(#DB)"/><use xlink:href="#EV" x="69.4" fill="url(#DC)"/><circle cx="200.3" cy="62.1" r=".6" fill="url(#DD)"/><circle cx="200.3" cy="72" r=".6" fill="url(#DE)"/><use xlink:href="#EW" x="69.4" fill="url(#DF)"/><circle cx="200.3" cy="91.7" r=".6" fill="url(#DG)"/><use xlink:href="#EX" x="69.3" fill="url(#DH)"/><use xlink:href="#EV" x="79.2" y="-39.3" fill="url(#DI)"/><use xlink:href="#EX" x="69.3" y="19.7" fill="url(#DJ)"/><use xlink:href="#EV" x="79.2" y="-19.7" fill="url(#DK)"/><use xlink:href="#EX" x="69.3" y="39.4" fill="url(#DL)"/><use xlink:href="#EV" x="79.2" fill="url(#DM)"/><use xlink:href="#EX" x="69.3" y="59" fill="url(#DN)"/><use xlink:href="#EY" x="69.3" fill="url(#DO)"/><use xlink:href="#EW" x="79.2" fill="url(#DP)"/><use xlink:href="#EY" x="69.3" y="19.7" fill="url(#DQ)"/><circle cx="220.1" cy="3" r=".6" fill="url(#DR)"/><circle cx="220.1" cy="12.9" r=".6" fill="url(#DS)"/><circle cx="220.1" cy="22.7" r=".6" fill="url(#DT)"/><circle cx="220.1" cy="32.6" r=".6" fill="url(#DU)"/><circle cx="220.1" cy="42.4" r=".6" fill="url(#DV)"/><use xlink:href="#EV" x="89.1" fill="url(#DW)"/><circle cx="220.1" cy="62.1" r=".6" fill="url(#DX)"/><circle cx="220.1" cy="72" r=".6" fill="url(#DY)"/><use xlink:href="#EW" x="89.1" fill="url(#DZ)"/><circle cx="220.1" cy="91.7" r=".6" fill="url(#Da)"/><circle cx="230" cy="3" r=".6" fill="url(#Db)"/><circle cx="230" cy="12.9" r=".6" fill="url(#Dc)"/><circle cx="230" cy="22.7" r=".6" fill="url(#Dd)"/><circle cx="230" cy="32.6" r=".6" fill="url(#De)"/><circle cx="230" cy="42.4" r=".6" fill="url(#Df)"/><use xlink:href="#EV" x="99" fill="url(#Dg)"/><circle cx="230" cy="62.1" r=".6" fill="url(#Dh)"/><circle cx="230" cy="72" r=".6" fill="url(#Di)"/><use xlink:href="#EW" x="99" fill="url(#Dj)"/><circle cx="230" cy="91.7" r=".6" fill="url(#Dk)"/><use xlink:href="#EX" x="99" fill="url(#Dl)"/><use xlink:href="#EV" x="108.9" y="-39.3" fill="url(#Dm)"/><use xlink:href="#EX" x="99" y="19.7" fill="url(#Dn)"/><use xlink:href="#EV" x="108.9" y="-19.7" fill="url(#Do)"/><use xlink:href="#EX" x="99" y="39.4" fill="url(#Dp)"/><use xlink:href="#EV" x="108.9" fill="url(#Dq)"/><use xlink:href="#EX" x="99" y="59" fill="url(#Dr)"/><use xlink:href="#EY" x="99" fill="url(#Ds)"/><use xlink:href="#EW" x="108.9" fill="url(#Dt)"/><use xlink:href="#EY" x="99" y="19.7" fill="url(#Du)"/><g fill="#fff"><path d="M31.7 19c0 .4-.1.7-.4 1l-4 4-4.3-2.5V19c0-.7.6-1.3 1.3-1.3s1.3.6 1.3 1.3h0v3l4-4c.5-.5 1.3-.5 1.8 0 .3.2.4.6.4 1m-1.4 11.7H30l-.4-.3-4-4v3c0 .7-.6 1.3-1.3 1.3S23 30 23 29.4V27l4.3-2.5 4 4c.5.5.5 1.3 0 1.8-.2.3-.6.4-1 .4M27 24.2V24h0l-1-.6-3-1.7-2.4-1.4c-.2-.1-.3 0-.4.1s-.1.1-.1.2V28l.3.3h.2l2.4-1.5 4-2.3h0q.1 0 .1-.1h0v-.2zm-1 .1q-.1.1-.1.2l-3 1.7-2 1h-.3v-6c0-.1.1-.2.3-.2h.1l1.8 1 3 1.8q.1.1.1.2zm-.7 0h-.1L23 25.6l-1.4 1h-.3V22c0-.1.1-.2.2-.2h.1l1.4 1 2.4 1.3m27.3-.1h-.2L49 22l-2.2-1c-.2-.1-.3 0-.4.2h0v6c0 .2.2.3.4.2l2.2-1.2 3.4-1.8.2-.2.1-.1zm-1 .1q0 .1-.1.1L49 25.8l-1.7 1c-.1 0-.3 0-.3-.2V22h.3l1.7.8 2.7 1.3q.1 0 .1.1v.1z"/><path d="M51 24.2h0l-2 1-1.2.7c-.1 0-.2 0-.2-.1h0v-3.4c0-.1.1-.1.2-.1h0l1.3.6 2 1m-16.8-2.7h3c1.3-.2 2.4.7 2.6 2h0 0c0 1.2-1 2-2.6 2h-1.6v2h-1.4l-.1-6zm3 3c.8 0 1.2-.4 1.2-1s-.5-.8-1.2-.8H36V24h1.4z"/><path d="M45.7 26.2v1H41v-6h1.5v5h3.3zm8.6-1.2l-2.8-3.8h1.7l1.8 2.6 1.7-2.7h1.7l-2.7 4v2.2h-1.4V25zm5-3.5h.8v3.3l3.4-3.4h1l-3 2.8 3 3.3h-1L61 24.7l-1 1v2H59v-6zm6 3c.1-1.8 1.7-3.3 3.5-3.2 1.8-.1 3.4 1.3 3.5 3h0c0 1.8-1.6 3.3-3.4 3.2h0c-1.8.1-3.4-1.3-3.6-3zm6.2-.1c0-1.4-1.3-2.6-2.7-2.5h0c-1.5 0-2.7 1-2.7 2.6 0 1.5 1.3 2.7 2.8 2.7 1.5-.1 2.6-1.3 2.6-2.8zm1.8 2.3l.5-.6c.6.6 1.4 1 2.2 1 1-.1 1.6-.6 1.6-1s-.6-1-1.8-1.2-2.3-.6-2.3-1.7 1-1.7 2.3-1.7c1-.1 1.8.2 2.4.8l-.5.6c-.5-.5-1.3-.8-2-.8-.7-.1-1.3.3-1.4 1v.1c0 .6.7.8 1.8 1s2.3.6 2.3 1.7-.8 1.8-2.4 1.8c-1 0-2-.3-2.7-1zm6.5-5.2h.8l2.6 4.2 2.5-4.3h.7v6h-.8V23L83 27.2 80.5 23v4.6h-.8v-6zm8 3c.1-1.8 1.7-3.3 3.5-3.2 1.8-.1 3.4 1.3 3.5 3h0c0 1.8-1.6 3.3-3.4 3.2h0c-1.8.1-3.4-1.3-3.6-3zm6.2-.1c0-1.4-1.3-2.6-2.7-2.5h0c-1.5 0-2.7 1-2.7 2.6.2 1.4 1.4 2.5 2.8 2.5s2.6-1.2 2.6-2.6zm1.8 2.3l.5-.6c.6.6 1.4 1 2.3 1 1-.1 1.5-.6 1.5-1s-.6-1-1.8-1.2-2.3-1-2.3-2 1-1.7 2.3-1.7a3 3 0 0 1 2.4.8l-.5.6c-.5-.5-1.2-.8-2-.8-1 0-1.5.5-1.5 1s.7.8 2 1 2.2.6 2.2 1.7-.8 1.8-2.4 1.8c-1 0-2-.3-2.7-1z"/></g><circle cx="261.8" cy="182.7" r="63" fill="#fff200"/><circle cx="261.8" cy="182.7" r="61.1" fill="#cd1f38"/><path d="M287.7 244.5a67 67 0 0 1-73.3-14.4m94.6-94.7a67 67 0 0 1 8.9 83.7" fill="none" stroke="#fff200" stroke-linecap="round" stroke-width="2" class="F"/><g fill="#fff"><path d="M212 236c-.3 0-.5-.1-.7-.3a73 73 0 0 1-11.7-87.8 1 1 0 0 1 1.3-.4c.4.3.5.8.3 1.3a71 71 0 0 0 11.5 85.6c.3.4.3 1 0 1.3-.2.2-.4.3-.7.3zm102-101.8c-.2.1-.5 0-.7-.2a71 71 0 0 0-70-18c-.5.2-1 0-1.2-.5h0 0c-.1-.5.2-1 .7-1.2 25.5-7.3 53-.2 71.8 18.5a1 1 0 0 1 0 1.4c-.1.1-.4.1-.6.1z"/><circle cx="218.3" cy="132.1" r="9.2"/></g><g fill="#fff200"><circle cx="300.8" cy="229.6" r="16.2" transform="matrix(.23 -.97 .97 .23 7.28 468.45)"/><path d="M314.8 95.7c-.1 3.7-3.2 6.7-7 6.7h-130c-3.8.4-7.2-2.2-7.6-6s2.2-7.2 6-7.6H308c3.8 0 7 3 7 7zM164 95.6c.1 3.7-3 6.7-6.6 6.8h-.2H27c-3.8 0-6.8-3-6.8-6.8s3-6.8 6.8-6.8h130c3.7-.1 6.8 2.8 7 6.5v.2.1z"/></g><g fill="#fff"><circle cx="14" cy="132.4" r="3.6"/><path d="M13.6 113.7h1v11.5h-1z"/><circle cx="14" cy="164.9" r="3.6"/><path d="M13.6 172.2h1v11.5h-1z"/></g><path fill="#ed1c24" d="M124.2 301.2h86.6V317h-86.6z"/><g class="H"><path d="M39.4 65.6c0 8.7-7 15.8-15.8 15.8s-15.8-7-15.8-15.8 7-15.8 15.8-15.8c8.7-.1 15.7 7 15.8 15.6h0v.2z" fill="url(#Dv)"/><path d="M23.6 49.8a16 16 0 0 0-9.2 3l-2 2.7-1.4.6c-2 2.7-3.2 6-3.2 9.5v1l.7 1-.2 1.8c1 4 3.6 7.6 7.2 9.7l.7.4-.3-.2-1.7-2 2.3-2c1 .7 2 1.3 3 1.7 1 .3 2.3.5 3.4.6l1 2.8a9 9 0 0 1-2.3.8H21l2.6.2c3.5.1 7-1 9.7-3.2.8-1 1.4-2 1.4-2l1.2-.5a15 15 0 0 0 3.5-9.7c-.2-.7-.5-1.4-1-2 .1-.8 0-1.7-.1-2.5 0-.2.1-.1.3-.2l-.3-1-1-2h0c-2.8-5-8-8.3-14-8.3zm2 .6c1 0 1.8.2 2.7.5 1 .4 2 .8 2.7 1.4.7.5 1.3 1 1.7 2l-2.8 2a13 13 0 0 0-3.1-1.6c-1-.4-2-.6-3.2-.7l-.8-3a11 11 0 0 1 2.6-.6h.2zm-9.2 7.8H18l1.5 6.2L15 69l-2.5-2a10 10 0 0 1-1.7-1.8c.1-1 .3-2.2.6-3.3.3-1 .6-2 1-2.8a8 8 0 0 1 2.6-.9l1.3-.1zm15.2 4.4L34 64a11 11 0 0 1 1.8 2c0 1-.2 2.2-.5 3.2a19 19 0 0 1-1.5 3.2c-1 .3-1.8.5-2.7.6-1 .1-2 .1-2.8-.1l-.8-3-.7-3 2.2-2.2 2.6-2z" fill="url(#Dw)"/></g><g fill="none"><g stroke-width=".3" class="F"><path d="M35.6,66.1c-.07,1.01-.24,2.02-.5,3-.4,1.11-.9,2.18-1.5,3.2-.84,.3-1.71,.51-2.6,.6h-2.8l-.7-2.9-.7-3.1,2.1-2.2c.8-.69,1.67-1.29,2.6-1.8,.82,.33,1.59,.77,2.3,1.3,.67,.56,1.28,1.2,1.8,1.9Z" stroke="url(#Dx)"/><path d="M14.9,68.8c-.85-.54-1.65-1.14-2.4-1.8-.66-.46-1.24-1.04-1.7-1.7,.1-1.12,.3-2.22,.6-3.3,.28-.93,.65-1.84,1.1-2.7,.75-.49,1.61-.8,2.5-.9,1-.12,2.01-.08,3,.1l1.5,6-4.6,4.3Z" stroke="url(#Dy)"/></g><path d="M28.1,51.2c.84,.32,1.64,.72,2.4,1.2,.6,.47,1.11,1.04,1.5,1.7l-2.4,1.7c-.88-.57-1.82-1.03-2.8-1.4-1.06-.38-2.17-.61-3.3-.7l-.6-2.5c.8-.32,1.64-.49,2.5-.5,.92,.02,1.83,.19,2.7,.5Z" stroke="url(#Dz)" class="G"/><path d="M18,58.4s2.6-3.4,5.5-4.5" class="B C"/><path d="M30 56a12 12 0 0 1 1.6 6.4" class="D E"/><g class="B C"><path d="M29.8 56c1.2 2 1.8 4.3 1.7 6.6m1-8.4c3 1.4 5 4 6 7M35.8 66s1.4-.1 2.7-2.3M34.7 76c0-1.3-.3-2.5-1-3.6m-10.7 5s2.2-.6 5-4.5m-13-4c-.1 2.2.5 4.4 1.6 6.3m-2.3 2c-1-.2-1.8-.6-2.5-1.2m-1-10.7c-1 .5-1.7 1.3-2.2 2.3"/><path d="M12.5 55.5c-.3 1.2-.3 2.4-.1 3.6m1.8-6s4.2-3.6 8.5-2M24 80.2s3.7 1 9.4-2.4"/></g><g class="E"><path d="M18 58.2c1.4-1.8 3.2-3.3 5.2-4.3" stroke="#f3f3f3" class="I"/><path d="M23 77.5s2.2-.4 5-4.3M14.7 69c0 2.2.6 4.4 1.7 6.3" stroke="#fff"/></g><g class="B"><path d="M19.6 64.5l7 2.3" stroke="#989898"/><path d="M19.6 64.4l7 2.3" class="D"/></g></g><g class="H"><path d="M325.7 309.8c-.7 9.2-8.7 16-18 15.4s-16-8.7-15.4-18 8.8-16 18-15.4c8.2.6 14.7 7 15.4 15.4.1 1 .1 1.7 0 2.6z" fill="url(#EA)"/><path d="M309 293c-3.5 0-7 1-9.8 3.2l-2 2.8-1.5.6c-2.2 3-3.4 6.4-3.4 10 0 .3 0 .7.1 1l.6 1v2a17 17 0 0 0 7.7 10.3l.7.4-.3-.2-1.8-2.2 2.4-2.2c1 .7 2 1.3 3.2 1.7 1.2.4 2.4.6 3.6.7l1.2 3c-.8.4-1.6.6-2.5.8h-.8l2.8.2c3.7 0 7.3-1.2 10.2-3.5 1-1.2 1.5-2.2 1.5-2.2l1.2-.5c2.4-3 3.7-6.5 3.7-10.3a8 8 0 0 0-.9-2.1c.1-1 0-1.7-.1-2.6 0-.2.2-.2.3-.3l-.3-1-1-2h0c-3-5.4-8.5-8.7-14.6-8.7h0zm2 .6a14 14 0 0 1 2.8.5c1 .4 2 1 2.8 1.5.8.6 1.4 1.3 2 2l-3 2c-2-1.5-4.3-2.3-6.7-2.3l-.8-3a9 9 0 0 1 2.7-.7h.3zm-9.7 8.3h1.8l1.6 6.5-5 4.8-2.6-2c-.7-.6-1.3-1.2-1.8-2 .1-1.2.3-2.4.6-3.5a18 18 0 0 1 1.2-3c.8-.5 1.8-.8 2.7-1h1.5zm16 4.6l2.5 1.6c.7.6 1.4 1.3 2 2-.1 1-.3 2.3-.6 3.4a21 21 0 0 1-1.6 3.4l-2.8.7a15 15 0 0 1-3-.1l-.8-3.2-.8-3.3 2.3-2.4c1.3-1 2.8-2 2.8-2z" fill="url(#EB)"/></g><g fill="none"><g class="F G"><path d="M321.8,310.3c-.09,1.08-.3,2.16-.6,3.2-.4,1.18-.9,2.31-1.5,3.4-.91,.3-1.85,.51-2.8,.6-.97,.12-1.94,.08-2.9-.1l-.8-3.1-.8-3.2s1.1-1.2,2.3-2.3c.84-.75,1.74-1.41,2.7-2,.87,.38,1.68,.89,2.4,1.5,.72,.62,1.38,1.28,2,2h0Z" stroke="url(#EC)"/><path d="M299.8,313.2c-.9-.54-1.74-1.18-2.5-1.9-.7-.5-1.3-1.1-1.8-1.8,.1-1.18,.3-2.35,.6-3.5,.3-1.01,.7-1.98,1.2-2.9,.81-.45,1.69-.75,2.6-.9h3.3l1.5,6.4-4.9,4.6h0Z" stroke="url(#ED)"/></g><path d="M313.9,294.5c.86,.35,1.67,.82,2.4,1.4,.69,.47,1.27,1.08,1.7,1.8l-2.6,1.8c-.91-.6-1.88-1.1-2.9-1.5-1.18-.33-2.38-.56-3.6-.7l-.6-2.8c.87-.31,1.78-.48,2.7-.5,.99,.01,1.97,.18,2.9,.5h0Z" stroke="url(#EE)" class="G"/><path d="M303.2,302.2s2.6-3.6,5.8-4.8" class="B C"/><path d="M315.8 299.7c1.2 2 1.8 4.4 1.7 6.8" class="D E"/><g class="B C"><path d="M315.6 299.8c1.3 2 2 4.5 1.8 7m1-9c3 1.4 5.3 4 6.4 7.2m-2.8 5.2s1.6-.1 3-2.4m-4.2 13s.2-1.3-1-3.8m-11.3 5.4s2.4-.6 5.4-4.8m-14-4.2c0 2.3.6 4.6 1.7 6.6m-2.3 2s-.5 0-2.6-1.3m-1.2-11.2c-1 .5-2 1.3-2.3 2.4"/><path d="M297.3 299.2c-.3 1.3-.3 2.5-.1 3.8m1.8-6.5s4.4-3.7 9-2m1.6 30.8s4 1 10-2.6"/></g><g class="E"><path d="M303.2 302c1.5-2 3.4-3.4 5.5-4.5" stroke="#f3f3f3" class="I"/><path d="M308.5 322.4s2.3-.4 5.3-4.6m-14-4.4c-.1 2.3.5 4.6 1.7 6.6" stroke="#fff"/></g><g class="B"><path d="M304.8 308.7c2.6.6 5 1.4 7.5 2.4" stroke="#989898"/><path d="M304.8 308.6c2.6.6 5 1.4 7.5 2.4" class="D"/></g></g><path d="M102.7 214.3H190V229h-87.4zm-92.3 0h87.4V229H10.4z" fill="#fff"/></svg>