<svg id="ba0f756b-2b9c-410b-8422-c17774d97a3e" data-name="Layer 1" xmlns="http://www.w3.org/2000/svg" xmlns:xlink="http://www.w3.org/1999/xlink" width="335" height="335" viewBox="0 0 335 335">
  <defs>
    <linearGradient id="f8909e68-42df-4628-acb6-f6c037c72f84" x1="167.5" y1="335" x2="167.5" gradientTransform="matrix(1, 0, 0, -1, 0, 335)" gradientUnits="userSpaceOnUse">
      <stop offset="0.58" stop-color="#151349"/>
      <stop offset="0.63" stop-color="#1c1c53"/>
      <stop offset="0.73" stop-color="#213a71"/>
      <stop offset="0.86" stop-color="#1176a4"/>
      <stop offset="0.91" stop-color="#1b8bb2"/>
      <stop offset="1" stop-color="#13a3c4"/>
    </linearGradient>
  </defs>
  <g id="a9082ad3-9965-462c-8ff8-21a748144826">
    <rect width="335" height="335" fill="url(#f8909e68-42df-4628-acb6-f6c037c72f84)"/>
    <g>
      <path d="M198.4,295.6h0v.2l.6,2.6-.6-2.6Z" fill="#ed1c24"/>
      <path d="M204.6,302.4a23.1,23.1,0,0,0,1-2.8,23.1,23.1,0,0,1-1,2.8Z" fill="#ed1c24"/>
      <path d="M180.1,299.4c1.4-1.3,2.7-2.7,4-4h0C182.8,296.7,181.5,298.1,180.1,299.4Z" fill="#ed1c24"/>
      <path d="M185.1,295.5c-2.3,2.2-4.3,4.7-6.6,6.8h0C180.8,300.3,182.9,297.6,185.1,295.5Z" fill="#ed1c24"/>
      <path d="M161.4,302.1h0l1.2.3h0Z" fill="#ed1c24"/>
      <path d="M160.2,301.7a2.1,2.1,0,0,1-1-.6A2.1,2.1,0,0,0,160.2,301.7Z" fill="#ed1c24"/>
      <path d="M157.3,300.5v0Z" fill="#ed1c24"/>
      <path d="M135.9,301.2c-.1-.1-.1-.3-.2-.4a1.4,1.4,0,0,1-.2-.6,1.4,1.4,0,0,0,.2.6c.1.1.1.3.2.4a5.6,5.6,0,0,0,.4,1.2h0A5.6,5.6,0,0,1,135.9,301.2Z" fill="#ed1c24"/>
      <g>
        <path d="M207.4,295.9a36.6,36.6,0,0,1-1.7,6.5h32.7c.3-.2.4-.1.7-.1h28.2l11.5,2.1-7-1.9a.9.9,0,0,1-.6-.3h12a34.8,34.8,0,0,1,9.1,1l30.8,6.6,11.9,2.5v-5.9C297.9,301,254.4,297.2,207.4,295.9Z" fill="#ed1c24" stroke="#fff" stroke-miterlimit="10"/>
        <path d="M0,306.7v7.2l63.3-11.5h69.2a63.6,63.6,0,0,1-1.7-6.6C82.5,297.1,37.9,301,0,306.7Z" fill="#ed1c24" stroke="#fff" stroke-miterlimit="10"/>
      </g>
      <polygon points="289.3 311.8 271.4 308.3 281.5 311.8 289.3 311.8" fill="#1f6734"/>
      <path d="M164.3,302.8l5.3,1.1h0Z" fill="#1f6734"/>
      <path d="M98.1,307.9h7.6l-.6.2-13.7,4.5c2.2.4,3.5.8,4,1.4l16.2-4.3,14.1-3.7H107.1Z" fill="#1f6734"/>
      <path d="M134.9,317.7q.4,1.2,4.2,2.4l3.5-1.9h.1a27.9,27.9,0,0,1-3.4-3.5,10.3,10.3,0,0,0-3.9,1.7A1.3,1.3,0,0,0,134.9,317.7Z" fill="#1f6734"/>
      <path d="M222.4,302.9l2.7,2.9h19.4l-6.2-3.3a.1.1,0,0,1,.1-.1H221.7A1.8,1.8,0,0,1,222.4,302.9Z" fill="#1f6734"/>
      <path d="M205.3,303.5a22.9,22.9,0,0,1-1,2.3h1Z" fill="#1f6734"/>
      <path d="M200.1,317.7a1.3,1.3,0,0,0-.5-1.3,5.8,5.8,0,0,0-2.1-1.1,47.1,47.1,0,0,1-6.8,5.9C196.4,320.3,199.6,319,200.1,317.7Z" fill="#1f6734"/>
      <polygon points="151.7 313.4 151.7 313.4 151.1 312.8 151.1 312.8 151.7 313.4" fill="#1f6734"/>
      <path d="M73.6,306.3a34,34,0,0,0,4.5-.3H75Z" fill="#1f6734"/>
      <path d="M91,312.7l-25.9,8.5,6.2-.7,23.9-6.4C94.8,313.7,93.8,313.2,91,312.7Z" fill="#1f6734"/>
      <path d="M85.7,306H79.4a40.1,40.1,0,0,1-6.9.5h0l-7.1,1.4H75Z" fill="#1f6734"/>
      <path d="M64.2,321.5l-14.6,4.8,16.8-4.5,3.4-.9-5.6.6Z" fill="#1f6734"/>
      <polygon points="45.7 311.8 53 311.8 73.9 308.1 64.4 308.1 45.7 311.8" fill="#1f6734"/>
      <path d="M244,312.5h0l25.9,8.5,8,2.6-4.5-2.4-18.2-9.8-6.3-3.3H230.5Z" fill="#1f6734"/>
      <path d="M113.2,304.7l-5.2,1.1h18.4l6.7-1.8-.6-1.6h-9.9l.4.2Z" fill="#1f6734"/>
      <path d="M243.9,312.7c-3.5.6-4.2,1.3-4.3,1.7s.3,1,2.6,1.9c4.7,1.8,15.1,3.6,27.7,4.9l-10.8-3.6Z" fill="#1f6734"/>
      <path d="M136.3,302.4h0l.3.7h0Z" fill="#1f6734"/>
      <path d="M138.8,320.2c-2.2-.7-3.7-1.5-4-2.4a1.2,1.2,0,0,1,.5-1.5,10.5,10.5,0,0,1,3.8-1.7,53.6,53.6,0,0,1-3.4-4.9l-12.4,4.4L98.2,323,66.8,334.1l-2.5.9H111l8.8-4.7Z" fill="#1f6734"/>
      <path d="M151.2,310.3l3.3-4.3h0Z" fill="#1f6734"/>
      <path d="M46,327.2l38.4-12.5,6.6-2.2h0l13.5-4.4H97.2l-28.7,6.1-47.1,10L0,328.8V335H16.7l2.6-.7Zm12.8-10.8a16.3,16.3,0,0,1,3.1-.3c1.1,0,1.4.1.8.3a17.3,17.3,0,0,1-3.2.3C58.5,316.7,58.1,316.5,58.8,316.4Z" fill="#1f6734"/>
      <polygon points="74.9 305.8 74.9 305.8 79.4 305.8 79.4 305.8 86.8 305.8 90.2 305.2 106.1 302.4 63.3 302.4 0 313.9 0 320.6 45.2 311.7 74.9 305.8" fill="#1f6734"/>
      <path d="M49.1,312.5l2.8-.5h-7L0,320.8v.4l10-1.8C23,317.1,36.1,314.9,49.1,312.5Z" fill="#1f6734"/>
      <path d="M165.3,327.6l-6.1,6.5-.8.9h9v-7.2Z" fill="#1f6734"/>
      <path d="M278.8,304.5l-11.5-2.1H254.7a18,18,0,0,1,3.5,1.2l11.8,4.2,65,12.8v-1.2l-25.2-6.7Z" fill="#1f6734"/>
      <polygon points="282.1 312 294 316.2 296.2 317 321.8 322.8 335 322.8 335 320.8 290.1 312 282.1 312" fill="#1f6734"/>
      <path d="M204.2,306a32.4,32.4,0,0,1-3.9,6c-.9,1.1-1.8,2.2-2.7,3.1a7.8,7.8,0,0,1,2.1,1.2,1.2,1.2,0,0,1,.5,1.5c-.5,1.5-4.2,2.8-9.9,3.7a35.5,35.5,0,0,1-22.7,6.3V335h37.7V306Z" fill="#1f6734"/>
      <polygon points="297.8 317.6 329.3 328.8 335 330.8 335 323 321.7 323 297.8 317.6" fill="#1f6734"/>
      <path d="M278.9,324.1l-8-2.6c-13.2-1.3-23.9-3.2-28.8-5q-2.8-1.2-2.7-2.1c.2-.8,1.6-1.3,4.2-1.8l-14.3-4.7h19.2l-3.6-1.9H225.3L238,319.5l11.5,12.3,3,3.2h46.9l-1.7-.9Z" fill="#1f6734"/>
      <path d="M154.6,305.8a6.4,6.4,0,0,0,1-1.3,6.4,6.4,0,0,1-1,1.3Z" fill="#1f6734"/>
      <path d="M202.3,306.3l.3-.3h0Z" fill="#1f6734"/>
      <path d="M162.6,302.4h0l1.7.4Z" fill="#1f6734"/>
      <path d="M203.3,305.2l-.5.6h0l.5-.6a22.8,22.8,0,0,0,1.3-2.8h0A22.8,22.8,0,0,1,203.3,305.2Z" fill="#1f6734"/>
      <polygon points="98.1 307.9 107.1 306 85.7 306 75 307.9 98.1 307.9" fill="#168742"/>
      <polygon points="68.5 314.2 97.2 308.1 73.9 308.1 53 311.8 61.5 311.8 61.5 312 13.3 323 0 323 0 328.8 21.4 324.2 68.5 314.2" fill="#168742"/>
      <path d="M60.7,312H51.9l-2.8.5c-13,2.4-26.1,4.6-39.1,6.9L0,321.2v1.6H13.2Z" fill="#168742"/>
      <polygon points="113.2 304.7 123 302.6 122.6 302.4 106.1 302.4 90.2 305.2 86.8 305.8 108 305.8 113.2 304.7" fill="#168742"/>
      <path d="M292.3,303.3a34.8,34.8,0,0,0-9.1-1h-12a.9.9,0,0,0,.6.3l7,1.9,31,8.2,25.2,6.7v-7l-11.9-2.5Z" fill="#168742"/>
      <path d="M136.6,303.1l.7,1.4-.7-1.4Z" fill="#168742"/>
      <path d="M138.4,306l.2.2-.2-.2Z" fill="#168742"/>
      <path d="M98.2,323l25.1-8.9,12.4-4.4a25.3,25.3,0,0,1-1.8-3.7h-8.2l-14.1,3.7L95.4,314l.2.4c.2.8-.8,1.3-2.7,2.1-4.2,1.5-12.6,3.1-23.1,4.4l-3.4.9-16.8,4.5L22.9,335H64.3l2.5-.9Z" fill="#168742"/>
      <path d="M137.3,307.7a1.3,1.3,0,0,0-.1.6A1.3,1.3,0,0,1,137.3,307.7Z" fill="#168742"/>
      <polygon points="19.3 334.3 16.7 335 22.2 335 46 327.2 19.3 334.3" fill="#168742"/>
      <path d="M137.3,304.5a6.4,6.4,0,0,0,1,1.3h0A6.4,6.4,0,0,1,137.3,304.5Z" fill="#168742"/>
      <path d="M92.8,316.3c2.3-.9,2.7-1.5,2.6-1.9l-.2-.3-23.9,6.4C81.1,319.3,88.9,317.8,92.8,316.3Z" fill="#168742"/>
      <path d="M133.8,305.8a13.4,13.4,0,0,1-.7-1.8l-6.7,1.8Z" fill="#168742"/>
      <path d="M137.2,307Z" fill="#168742"/>
      <polygon points="282.1 312 274.3 312 296.2 317 294 316.2 282.1 312" fill="#168742"/>
      <path d="M244.5,305.8h15.6l9.9,2-11.8-4.2a18,18,0,0,0-3.5-1.2H239.1c-.3,0-.4-.1-.7.1a.1.1,0,0,0-.1.1Z" fill="#168742"/>
      <path d="M255.6,306H244.9l3.6,1.9h21.1l-7.1-1.4h0A40.1,40.1,0,0,1,255.6,306Z" fill="#168742"/>
      <path d="M261.4,306.3,260,306h-3.1A34,34,0,0,0,261.4,306.3Z" fill="#168742"/>
      <path d="M297.8,317.6,273.4,312v-.2h8.1l-10.1-3.5-.8-.2H248.9l6.3,3.3,18.2,9.8,4.5,2.4L312.8,335H335v-4.2l-5.7-2Zm-22.3-.9a17.3,17.3,0,0,1-3.2-.3c-.6-.2-.3-.3.8-.3a16.3,16.3,0,0,1,3.1.3C276.9,316.5,276.5,316.7,275.5,316.7Z" fill="#168742"/>
      <polygon points="297.7 334.1 299.4 335 312.1 335 278.9 324.1 297.7 334.1" fill="#168742"/>
      <path d="M178.5,302.3h0l-.9.8Z" fill="#168742"/>
      <path d="M169.6,303.9h0l3.5.7h0Z" fill="#168742"/>
      <path d="M160.3,322.9c-.1.4-.1.9-.2,1.5a15.5,15.5,0,0,1,.4-1.5Z" fill="#168742"/>
      <path d="M165.3,327.6a46.8,46.8,0,0,1-7.1-1.4,44.4,44.4,0,0,1-10.1-4.2,61.4,61.4,0,0,1-9.3-1.8l-19,10.1L111,335h47.4l.8-.9Z" fill="#168742"/>
      <path d="M162.6,326.3h0Z" fill="#168742"/>
      <path d="M174.9,310a5,5,0,0,1,0-4h0a4.6,4.6,0,0,0,0,4,14.2,14.2,0,0,1,.4,2h0A14.2,14.2,0,0,0,174.9,310Z" fill="#168742"/>
      <path d="M163.3,321.5l2.3-.2Z" fill="#168742"/>
      <path d="M175.3,305.4l-.3.4h0Z" fill="#168742"/>
      <path d="M161.8,321.7c-.9.2-1.3.5-1.4,1h.2A2,2,0,0,1,161.8,321.7Z" fill="#168742"/>
      <path d="M173.8,304.5a3.1,3.1,0,0,0,1.8-.7.1.1,0,0,1,.1-.1.1.1,0,0,0-.1.1A3.1,3.1,0,0,1,173.8,304.5Z" fill="#168742"/>
      <path d="M139.1,320.1a53.4,53.4,0,0,0,8.6,1.6,31.6,31.6,0,0,1-5-3.5h-.1Z" fill="#168742"/>
      <path d="M175.3,312.2h0Z" fill="#168742"/>
      <path d="M159.9,321.8h0l-8.2-8.3h0Z" fill="#168742"/>
      <path d="M205.3,303.5v2.3h19.8l-2.7-2.9a1.8,1.8,0,0,0-.7-.5h-16A4.9,4.9,0,0,1,205.3,303.5Z" fill="#168742"/>
      <polygon points="238 319.5 225.3 306 205.3 306 205.3 335 252.5 335 249.5 331.8 238 319.5" fill="#168742"/>
      <path d="M105.1,308.1l.6-.2H65.4l-1,.2h40.1L91,312.5h.4Z" fill="#fff"/>
      <path d="M91,312.7l-26,8.5h.1L91,312.7Z" fill="#fff"/>
      <polygon points="0 320.6 0 320.6 45.2 311.7 0 320.6" fill="#fff"/>
      <polygon points="64.2 321.5 64.2 321.3 84.4 314.7 46 327.2 22.2 335 22.9 335 49.6 326.3 64.2 321.5" fill="#fff"/>
      <polygon points="61.5 312 61.5 311.8 53 311.8 45.7 311.8 0 320.8 0 320.8 44.9 312 51.9 312 60.7 312 13.2 322.8 0 322.8 0 323 13.3 323 61.5 312" fill="#fff"/>
      <path d="M62.7,316.4c.6-.2.3-.3-.8-.3a16.3,16.3,0,0,0-3.1.3c-.7.1-.3.3.7.3A17.3,17.3,0,0,0,62.7,316.4Z" fill="#fff"/>
      <polygon points="151.1 312.8 151.1 312.7 151.1 312.8 151.1 312.8" fill="#fff"/>
      <path d="M199.6,316.4a1.3,1.3,0,0,1,.5,1.3c-.5,1.3-3.7,2.6-9.4,3.5l-.4.3c5.7-.9,9.4-2.2,9.9-3.7a1.2,1.2,0,0,0-.5-1.5,7.8,7.8,0,0,0-2.1-1.2c0,.1-.1.1-.1.2A5.8,5.8,0,0,1,199.6,316.4Z" fill="#fff"/>
      <path d="M175.3,312h0v.2h0Z" fill="#fff"/>
      <path d="M160.6,322.7h-.2c-.1,0-.1.1-.1.2h.2A.3.3,0,0,0,160.6,322.7Z" fill="#fff"/>
      <path d="M139.1,320.1q-3.7-1.2-4.2-2.4a1.3,1.3,0,0,1,.5-1.3,10.3,10.3,0,0,1,3.9-1.7h-.2a10.5,10.5,0,0,0-3.8,1.7,1.2,1.2,0,0,0-.5,1.5c.3.9,1.8,1.7,4,2.4a61.4,61.4,0,0,0,9.3,1.8l-.4-.3A53.4,53.4,0,0,1,139.1,320.1Z" fill="#fff"/>
      <path d="M91.4,312.6H91l-6.6,2.2-20.2,6.6v.2h0l5.6-.6c10.5-1.3,18.9-2.9,23.1-4.4,1.9-.8,2.9-1.3,2.7-2.1l-.2-.4C94.9,313.4,93.6,313,91.4,312.6Zm4,1.8c.1.4-.3,1-2.6,1.9-3.9,1.5-11.7,3-21.5,4.2l-6.2.7H65l26-8.5h0c2.8.5,3.8,1,4.2,1.4Z" fill="#fff"/>
      <path d="M154.5,306h0c0-.1.1-.1.1-.2h0C154.6,305.9,154.5,305.9,154.5,306Z" fill="#fff"/>
      <polygon points="64.4 308.1 65.4 307.9 72.5 306.5 72.5 306.3 74.9 305.8 45.2 311.7 0 320.6 0 320.8 45.7 311.8 64.4 308.1" fill="#fff"/>
      <path d="M138.3,305.8h0c0,.1.1.1.1.2h0C138.4,305.9,138.3,305.9,138.3,305.8Z" fill="#fff"/>
      <path d="M126.4,305.8h-47v.2h54.5c0-.1-.1-.1-.1-.2Z" fill="#fff"/>
      <path d="M79.4,306v-.2H74.9l-2.4.5v.2h0A40.1,40.1,0,0,0,79.4,306Zm-5.8.3L75,306h3.1A34,34,0,0,1,73.6,306.3Z" fill="#fff"/>
      <path d="M229.3,307.9l14.3,4.7h.4l-13.5-4.4h40.1l-1-.2H229.3Z" fill="#fff"/>
      <path d="M269.9,321.2h.1l-10.9-3.6Z" fill="#fff"/>
      <path d="M269.9,321l1,.3v.2h0l8,2.6L312.1,335h.7l-34.9-11.4Z" fill="#fff"/>
      <polygon points="281.5 311.8 273.4 311.8 273.4 312 297.8 317.6 321.7 323 335 323 335 322.8 321.8 322.8 296.2 317 274.3 312 282.1 312 290.1 312 335 320.8 335 320.8 289.3 311.8 281.5 311.8" fill="#fff"/>
      <path d="M276.2,316.4a16.3,16.3,0,0,0-3.1-.3c-1.1,0-1.4.1-.8.3a17.3,17.3,0,0,0,3.2.3C276.5,316.7,276.9,316.5,276.2,316.4Z" fill="#fff"/>
      <path d="M244,312.5h-.4c-2.6.5-4,1-4.2,1.8s.8,1.3,2.7,2.1c4.9,1.8,15.6,3.7,28.8,5h0v-.2l-1-.3L244,312.5Zm25.9,8.7c-12.6-1.3-23-3.1-27.7-4.9-2.3-.9-2.7-1.5-2.6-1.9s.8-1.1,4.3-1.7l15.2,4.9,10.9,3.6Z" fill="#fff"/>
      <path d="M202.6,306h0l.2-.2h0Z" fill="#fff"/>
      <path d="M255.6,305.8H204.3c0,.1-.1.1-.1.2h51.4Z" fill="#fff"/>
      <polygon points="260.1 305.8 262.5 306.3 262.5 306.5 269.6 307.9 270.6 308.1 271.4 308.3 289.3 311.8 335 320.8 335 320.6 270 307.8 260.1 305.8" fill="#fff"/>
      <path d="M175,305.8h0c0,.1-.1.1-.1.2h0Z" fill="#fff"/>
      <path d="M167.4,327.8V335h.2v-7.2Z" fill="#fff"/>
      <path d="M255.6,305.8h0v.2a40.1,40.1,0,0,0,6.9.5h0v-.2l-2.4-.5h-4.5Zm5.8.5a34,34,0,0,1-4.5-.3H260Z" fill="#fff"/>
      <path d="M133.1,304a13.4,13.4,0,0,0,.7,1.8c0,.1.1.1.1.2a25.3,25.3,0,0,0,1.8,3.7,53.6,53.6,0,0,0,3.4,4.9h.2a27.9,27.9,0,0,0,3.4,3.5,31.6,31.6,0,0,0,5,3.5l.4.3a44.4,44.4,0,0,0,10.1,4.2,46.8,46.8,0,0,0,7.1,1.4l2.1.2h.2a35.5,35.5,0,0,0,22.7-6.3l.4-.3a47.1,47.1,0,0,0,6.8-5.9c0-.1.1-.1.1-.2s1.8-2,2.7-3.1a32.4,32.4,0,0,0,3.9-6c0-.1.1-.1.1-.2a22.9,22.9,0,0,0,1-2.3,4.9,4.9,0,0,0,.4-1.1,36.6,36.6,0,0,0,1.7-6.5,45.9,45.9,0,0,0-.8-16c-1.1-5.2-3.1-10.1-7.1-13.9l3.1,5.3c.3.4.5.9.8,1.4l.6,1.6c1.6,4.2,1.5,4.5-2.6,5.6l-4.5-4.7-4.5-4.5a8.3,8.3,0,0,1-.7-1.3c-1.4-3.8-2.8-7.6-4.4-11.7l2.6-.2-1.7-1.4c-8.4-5.6-17.7-6.8-27.3-5-17.7,3.2-33.8,20.8-30.4,43.1l.3,1.6a63.6,63.6,0,0,0,1.7,6.6Zm21.5,20.3c-7.6-2.7-12.9-8.2-17.2-14.8a2.2,2.2,0,0,1-.2-1.2,1.3,1.3,0,0,1,.1-.6,1.5,1.5,0,0,0-.1-.7h.8c3.2,3.1,7.2,4.4,11.5,5.1a4.4,4.4,0,0,1,1.6.6h0l.6.7,8.2,8.3h0C158.9,325.4,158.5,325.7,154.6,324.3Zm6.8-22.2h-.7l-.5-.3a2.1,2.1,0,0,1-1-.6,3.4,3.4,0,0,1-1.2-2c-1-3.7-2-7.4-3.2-11.1a3.8,3.8,0,0,1,0-2.1,2.9,2.9,0,0,1,1.1-1.8c.7-.7,1.5-1.4,2.2-2.2l2.2-2.2c1.5-1.5,3-3,4.6-4.4a3.7,3.7,0,0,1,3.1-1.1l6,1.5,6,1.8a3.7,3.7,0,0,1,2.1,2c.3,1.1.7,2.1,1,3.2l1.7,6.5c.3,1.1.6,2.1.8,3.2a6.5,6.5,0,0,1-.4,1.3,7.5,7.5,0,0,1-.7,1.2l-.4.5c-1.3,1.3-2.6,2.7-4,4l-4.4,4.3a.1.1,0,0,0-.1.1,3.1,3.1,0,0,1-1.8.7h-.7l-3.5-.7-5.3-1.1-1.7-.4Zm25.5,20.3-1.1.7-1.2.7c-6.3,3.1-13,3.7-20,2.9a6.5,6.5,0,0,1-2-.4h-.2c-1.1-.3-2.8.1-2.3-1.9h0c.1-.6.1-1.1.2-1.5s0-.2.1-.2.5-.8,1.4-1l1.5-.2,2.3-.2c2.4-.4,5.6-1.3,8.2-1.7l1.7-.2h1.6l10.7.8a2.5,2.5,0,0,1-.2,1.2A2.3,2.3,0,0,1,186.9,322.4Zm11.7-28a.8.8,0,0,1,.2-.4,20.5,20.5,0,0,0,2.5-9.6v-1.5c-.3-2,.4-2.4,1.9-2.8l.6-.2h0c2-.4,2.1,1.2,2.3,2.3h0l.6,4.5a33,33,0,0,1-1.1,12.9,23.1,23.1,0,0,1-1,2.8,22.8,22.8,0,0,1-1.3,2.8l-.5.6-.2.2-.3.3-1.2.8c-.8-3.2-1.5-6-2.1-8.7l-.6-2.6v-.5A2.9,2.9,0,0,1,198.6,294.4Zm-3.5.7c2.4.1,2.7.6,3.1,2.3l1.8,6.4a9.4,9.4,0,0,1-1.9,5.5,30.1,30.1,0,0,1-2.2,2.8,21.7,21.7,0,0,1-6,5.4,8.8,8.8,0,0,1-2,.9,13.4,13.4,0,0,1-4.5,1,15.9,15.9,0,0,1-3.7-.2c-3.5-.5-4-.9-4.3-4.5a19.3,19.3,0,0,0-.1-2.4h0V312a14.2,14.2,0,0,0-.4-2,4.6,4.6,0,0,1,0-4c0-.1.1-.1.1-.2l.3-.4a10,10,0,0,1,2.3-2.3l.9-.8c2.3-2.1,4.3-4.6,6.6-6.8a4,4,0,0,1,2-.9h.8Zm-23.5-41.2,2.2.3,3.7.8a22.6,22.6,0,0,1,4.6,1.5,12.3,12.3,0,0,1,3.5,2.2,12.1,12.1,0,0,1,1.9,2,20.2,20.2,0,0,1,2.7,5.3l.5,1.7a3.4,3.4,0,0,1-1.5,4.1c-2.4,1.6-4.6,4.3-7.2,4.8h-.9c-2.3,0-4.6-1.5-7-2.1a18.8,18.8,0,0,0-4.7-1c-2.6.1-3.5-1.3-4.3-3.4a66.7,66.7,0,0,0-3.5-7.1,2.6,2.6,0,0,1,.5-3.4,20.8,20.8,0,0,1,2.1-2.1A14.5,14.5,0,0,1,171.6,253.9Zm-27.3,6.5,2.3-2,2.3-1.7,2.5-1.6,1.3-.6a26.8,26.8,0,0,1,12.7-3.1c1.4,0,2.7.7,4.2,1.1h0l-9.3,7.9a4.4,4.4,0,0,1-1.6.6l-10.5,3.3-.8.3c-3.6,1.6-3.1-.5-4-1.6S143.7,261,144.3,260.4Zm-9.5,11.4,1.5-2.5,1.8-2.4c.6-.8,1.3-1.5,2-2.3s1.6-1.6,2.6-.7a3.6,3.6,0,0,1,1.2.9,1.9,1.9,0,0,1,.9,2.1,1.1,1.1,0,0,1-.1.5c-1.1,3.7-1.8,7.5-2.7,11.2a3.5,3.5,0,0,1-.6,1.4l-3.2,3.6-3.3,3.7-2.5,2.7a17,17,0,0,1-1.1-4.3A29.2,29.2,0,0,1,134.8,271.8Zm5.9,10a3.4,3.4,0,0,1,2.8-.4,89.3,89.3,0,0,1,8.5,3.5,3.1,3.1,0,0,1,1.1.9,3.3,3.3,0,0,1,.7,1.3c1.3,4.2,2.4,8.4,3.4,12.6a2.2,2.2,0,0,1,.1.8v.7a7.4,7.4,0,0,1-.4,1.4l-1.3,1.9a6.4,6.4,0,0,1-1,1.3c0,.1-.1.1-.1.2l-3.3,4.3a8.3,8.3,0,0,1-1.5,1.1c-4.4-1-8.4-2.3-11.1-5.2l-.2-.2c0-.1-.1-.1-.1-.2a6.4,6.4,0,0,1-1-1.3l-.7-1.4-.3-.7a5.6,5.6,0,0,1-.4-1.2c-.1-.1-.1-.3-.2-.4a1.4,1.4,0,0,1-.2-.6C132.5,292.6,133.1,289.2,140.7,281.8Z" fill="#151349"/>
      <path d="M191.7,269.4a8.3,8.3,0,0,0,.7,1.3l4.5,4.5,4.5,4.7c4.1-1.1,4.2-1.4,2.6-5.6l-.6-1.6c-.3-.5-.5-1-.8-1.4l-3.1-5.3-9.6-8.5-2.6.2C188.9,261.8,190.3,265.6,191.7,269.4Z" fill="#fff"/>
      <path d="M162.6,302.4l1.7.4,5.3,1.1,3.5.7h.7a3.1,3.1,0,0,0,1.8-.7.1.1,0,0,1,.1-.1l4.4-4.3c1.4-1.3,2.7-2.7,4-4l.4-.5a7.5,7.5,0,0,0,.7-1.2,6.5,6.5,0,0,0,.4-1.3c-.2-1.1-.5-2.1-.8-3.2l-1.7-6.5c-.3-1.1-.7-2.1-1-3.2a3.7,3.7,0,0,0-2.1-2l-6-1.8-6-1.5a3.7,3.7,0,0,0-3.1,1.1c-1.6,1.4-3.1,2.9-4.6,4.4l-2.2,2.2c-.7.8-1.5,1.5-2.2,2.2a2.9,2.9,0,0,0-1.1,1.8,3.8,3.8,0,0,0,0,2.1c1.2,3.7,2.2,7.4,3.2,11.1a3.4,3.4,0,0,0,1.2,2,2.1,2.1,0,0,0,1,.6l.5.3h.7Z" fill="#fff"/>
      <path d="M135.7,300.8c.1.1.1.3.2.4a5.6,5.6,0,0,0,.4,1.2l.3.7.7,1.4a6.4,6.4,0,0,0,1,1.3c0,.1.1.1.1.2l.2.2c2.7,2.9,6.7,4.2,11.1,5.2a8.3,8.3,0,0,0,1.5-1.1l3.3-4.3c0-.1.1-.1.1-.2a6.4,6.4,0,0,0,1-1.3l1.3-1.9a7.4,7.4,0,0,0,.4-1.4v-.7a2.2,2.2,0,0,0-.1-.8c-1-4.2-2.1-8.4-3.4-12.6a3.3,3.3,0,0,0-.7-1.3,3.1,3.1,0,0,0-1.1-.9,89.3,89.3,0,0,0-8.5-3.5,3.4,3.4,0,0,0-2.8.4c-7.6,7.4-8.2,10.8-5.2,18.4A1.4,1.4,0,0,0,135.7,300.8Z" fill="#fff"/>
      <path d="M164.2,257.6a20.8,20.8,0,0,0-2.1,2.1,2.6,2.6,0,0,0-.5,3.4,66.7,66.7,0,0,1,3.5,7.1c.8,2.1,1.7,3.5,4.3,3.4a18.8,18.8,0,0,1,4.7,1c2.4.6,4.7,2.1,7,2.1h.9c2.6-.5,4.8-3.2,7.2-4.8a3.4,3.4,0,0,0,1.5-4.1l-.5-1.7a20.2,20.2,0,0,0-2.7-5.3,12.1,12.1,0,0,0-1.9-2,12.3,12.3,0,0,0-3.5-2.2,22.6,22.6,0,0,0-4.6-1.5l-3.7-.8-2.2-.3A14.5,14.5,0,0,0,164.2,257.6Z" fill="#fff"/>
      <path d="M187.9,294.5h-.8a4,4,0,0,0-2,.9c-2.2,2.1-4.3,4.8-6.6,6.8l-.9.8a10,10,0,0,0-2.3,2.3l-.3.4v.2a5,5,0,0,0,0,4,14.2,14.2,0,0,1,.4,2v.2h0a19.3,19.3,0,0,1,.1,2.4c.3,3.6.8,4,4.3,4.5a15.9,15.9,0,0,0,3.7.2,13.4,13.4,0,0,0,4.5-1,8.8,8.8,0,0,0,2-.9,21.7,21.7,0,0,0,6-5.4,30.1,30.1,0,0,0,2.2-2.8,9.4,9.4,0,0,0,1.9-5.5l-1.8-6.4c-.4-1.7-.7-2.2-3.1-2.3l-7.2-.6Z" fill="#fff"/>
      <path d="M134.9,287.3l3.3-3.7,3.2-3.6a3.5,3.5,0,0,0,.6-1.4c.9-3.7,1.6-7.5,2.7-11.2a1.1,1.1,0,0,0,.1-.5,2.3,2.3,0,0,0-.9-2.1,3.6,3.6,0,0,0-1.2-.9c-.4-.4-2,.1-2.6.7s-1.4,1.5-2,2.3l-1.8,2.4-1.5,2.5a29.2,29.2,0,0,0-3.5,13.9,17,17,0,0,0,1.1,4.3Z" fill="#fff"/>
      <path d="M147.4,264.6l.8-.3c3.4-1.3,7-2.2,10.5-3.3a4.4,4.4,0,0,0,1.6-.6l9.3-7.9h0c-1.5-.4-2.8-1.1-4.2-1.1a26.8,26.8,0,0,0-12.7,3.1l-1.3.6-2.5,1.6-2.3,1.7-2.3,2c-.6.6-1.7,1.5-.9,2.6S143.8,266.2,147.4,264.6Z" fill="#fff"/>
      <path d="M159.9,321.8h0l-8.2-8.4-.6-.7h0a4.4,4.4,0,0,0-1.6-.6c-4.3-.7-8.3-2-11.5-5.1h-.8a1.5,1.5,0,0,1,.1.7,1.3,1.3,0,0,0-.1.6,2.2,2.2,0,0,0,.2,1.2c4.3,6.6,9.6,12.1,17.2,14.8C158.5,325.7,158.9,325.4,159.9,321.8Z" fill="#fff"/>
      <path d="M198.4,295.8l.6,2.6c.6,2.7,1.3,5.5,2.1,8.7l1.2-.8.3-.3.2-.2.5-.6a22.8,22.8,0,0,0,1.3-2.8,23.1,23.1,0,0,0,1-2.8,33,33,0,0,0,1.1-12.9l-.6-4.5h0c-.2-1.1-.6-2.6-2.3-2.3h0l-.6.2c-1.3.3-2.2.9-1.9,2.8v1.5a20.5,20.5,0,0,1-2.5,9.6.8.8,0,0,0-.2.4,2.9,2.9,0,0,0-.2.9v.5Z" fill="#fff"/>
      <path d="M187.8,320.2l-10.7-.8h-1.6l-1.7.2c-2.6.4-5.8,1.3-8.2,1.7l-2.3.2-1.5.2a2,2,0,0,0-1.2,1,.3.3,0,0,1-.1.2,15.5,15.5,0,0,0-.4,1.5h0c-.5,2,1.2,1.6,2.3,1.9h.2a6.5,6.5,0,0,0,2,.4c7,.8,13.7.2,20-2.9l1.2-.7,1.1-.7a2.3,2.3,0,0,0,.7-1A2.5,2.5,0,0,0,187.8,320.2Z" fill="#fff"/>
    </g>
  </g>
  <g>
    <g>
      <path d="M32.6,17.9a1.4,1.4,0,0,1-.4,1.1l-4.9,4.9-5.2-3v-3a1.6,1.6,0,0,1,1.6-1.5,1.5,1.5,0,0,1,1.5,1.5h0v3.7L30,16.8a1.5,1.5,0,0,1,2.1-.1h.1a1.6,1.6,0,0,1,.4,1.2" fill="#fff"/>
      <path d="M31.1,32.1l-.6-.2-.5-.3-4.8-4.8v3.7a1.8,1.8,0,0,1-1.5,1.6,1.6,1.6,0,0,1-1.6-1.6V27.6l5.2-3,4.9,4.8a1.5,1.5,0,0,1,.1,2.1,2,2,0,0,1-1.2.6" fill="#fff"/>
      <path d="M27.1,24.1c0-.1-.1-.1-.2-.2h0l-1.3-.7-3.5-2-3-1.8h-.4v9.2c0,.2.2.3.4.3h.1l2.9-1.7,4.8-2.8h.2Zm-1.2.2h-.1l-3.7,2.2-2.4,1.3c-.1.1-.2.1-.3-.1s-.1,0-.1-.1v-7a.3.3,0,0,1,.3-.3h.1l2.4,1.4L25.8,24C25.9,24,25.9,24.2,25.9,24.3Z" fill="#fff"/>
      <path d="M24.9,24.2a.2.2,0,0,1-.2.2h0L21.9,26l-1.7,1h-.3V21.6c0-.2.1-.2.2-.2h.1l1.7,1L24.7,24c.1,0,.2,0,.2.1h0" fill="#fff"/>
    </g>
    <g>
      <path d="M58,24a.3.3,0,0,0-.1-.2l-4.3-2.1L51,20.4c-.3-.1-.5,0-.5.2v7.2c0,.1.1.2.3.2h.2l2.6-1.4,4.2-2.2a.3.3,0,0,0,.1-.2Zm-1,.2h-.1L53.6,26l-2,1.1h-.4V21.4c0-.1.1-.2.3-.2h.1l2,1L57,23.8V24H57Z" fill="#fff"/>
      <path d="M56.1,24.2H56l-2.5,1.3-1.5.8c-.1.1-.2.1-.2-.1h0V22.1c0-.1,0-.2.2-.2h0l1.6.7L56,24h.1" fill="#fff"/>
      <path d="M35.8,20.5h3.6c1.9,0,3.2,1,3.3,2.5s-1.4,2.5-3.2,2.5H37.6v2.4H35.8ZM39.3,24c.9,0,1.5-.4,1.5-1s-.6-1.1-1.5-1.1H37.5V24Z" fill="#fff"/>
      <path d="M49.6,26.5V28H43.7V20.6h1.8v6Z" fill="#fff"/>
      <path d="M60,25.2l-3.4-4.8h2.1l2.1,3.2,2.1-3.2h2l-3.1,4.7v2.7H60Z" fill="#fff"/>
      <path d="M66.1,20.8h1v4.1l4.1-4.1h1.3L69,24.2l3.8,4H71.6l-3.2-3.4L67.1,26v2.2h-.9Z" fill="#fff"/>
      <path d="M73.3,24.4c-.1-2,1.9-3.8,4.1-3.8a4.1,4.1,0,0,1,4.3,3.8,4.2,4.2,0,0,1-8.4.1h0Zm7.5,0a3.1,3.1,0,0,0-3.3-3h0a3.2,3.2,0,0,0-3.3,3,3.3,3.3,0,0,0,6.6,0Z" fill="#fff"/>
      <path d="M83,27.1l.5-.7a4.1,4.1,0,0,0,2.8,1.1c1.2-.1,1.9-.7,1.9-1.3s-.8-1.2-2.3-1.4-2.7-.8-2.7-2.1,1.1-2.1,2.7-2.1a4.1,4.1,0,0,1,3,1l-.6.7a3.6,3.6,0,0,0-2.4-.9c-1,0-1.8.6-1.8,1.2s.9,1.1,2.3,1.4,2.7.8,2.7,2.1-1,2.1-2.8,2.1A4.4,4.4,0,0,1,83,27.1Z" fill="#fff"/>
      <path d="M90.9,20.8h.9L95,26l3-5.2h.9v7.4H98V22.6l-3,5.2-3.2-5.2v5.6h-.9Z" fill="#fff"/>
      <path d="M100.7,24.4c-.1-2,1.9-3.8,4.2-3.8a4,4,0,0,1,4.3,3.8c.1,2-1.9,3.8-4.2,3.8A4.1,4.1,0,0,1,100.7,24.4Zm7.5,0a3.1,3.1,0,0,0-3.3-3h0a3.2,3.2,0,0,0-3.3,3,3.1,3.1,0,0,0,3.3,3h.1a3,3,0,0,0,3.2-2.9Z" fill="#fff"/>
      <path d="M110.4,27.1l.5-.7a4.3,4.3,0,0,0,2.8,1.1c1.2-.1,1.9-.7,1.9-1.3s-.8-1.2-2.3-1.4-2.7-.8-2.7-2.1,1.2-2.1,2.7-2.1a4.1,4.1,0,0,1,3,1l-.6.6a4.1,4.1,0,0,0-2.4-.8c-1,0-1.8.6-1.8,1.2s.9,1.1,2.3,1.4,2.8.8,2.8,2.1-1,2.1-2.9,2.1A4.4,4.4,0,0,1,110.4,27.1Z" fill="#fff"/>
    </g>
  </g>
  <g>
    <path d="M304.1,128.8a6.5,6.5,0,0,1-6.5,6.3H176.5a6.3,6.3,0,0,1-7-5.6,6.4,6.4,0,0,1,5.6-7.1,3.3,3.3,0,0,1,1.4,0H297.6A6.5,6.5,0,0,1,304.1,128.8Z" fill="#1f6734"/>
    <path d="M163.8,128.8a6.5,6.5,0,0,1-6.5,6.3H36.2a6.4,6.4,0,0,1,0-12.7H157.3a6.5,6.5,0,0,1,6.5,6.4Z" fill="#1f6734"/>
  </g>
  <g>
    <g>
      <rect x="77.5" y="192.2" width="180.1" height="19.16" fill="#fff"/>
      <rect x="49.8" y="160.2" width="235.3" height="31.97" fill="#ed1c24"/>
    </g>
    <rect x="49.8" y="148.1" width="235.3" height="24.24" fill="#fff"/>
  </g>
  <path d="M163.1,229.2a4.4,4.4,0,1,1,4.4,4.4h0a5,5,0,0,1-2.1-.5l-.6-.4A4.6,4.6,0,0,1,163.1,229.2Zm2.3.7v.3c0,.1,0,.1.1.1h0a4.3,4.3,0,0,0,1.2,1.1h.2a5.1,5.1,0,0,0,1.7-.7c.1,0,.1-.1.1-.2h0c0-.3.1-.5.1-.8s.1-.5.1-.8h-.1a3.6,3.6,0,0,0-1.5-1.2h-.2l-1.4.7-.2.2h0A2.8,2.8,0,0,0,165.4,229.9Zm3.5-1.3h.1l1.4-.4h.1a1.9,1.9,0,0,0-.1-1.3c0-.2,0-.3-.1-.4l-1.1-.7h0a4.7,4.7,0,0,0-1.7.3h0a1.5,1.5,0,0,0-.1.7v.8h.1a3.2,3.2,0,0,1,1.3,1Zm-2.2,4.1h0c0,.1,0,.1.1.1h.1l.8.4h.4l1.6-.7h0a2.3,2.3,0,0,0,.3-1.1h0a2.3,2.3,0,0,0-1.2-.6c-.1-.1-.1-.1-.1,0l-1.4.5-.4.2h.1v.3A3.2,3.2,0,0,0,166.7,232.7Zm-2.5-1.8h.3l.8-.5h0a3.3,3.3,0,0,1,.2-1.7v-.2h0l-.6-.5c0-.2-.2-.3-.3-.4h-.3l-.9.8h0a4.9,4.9,0,0,0-.1,1.2c0,.1.1.1.1.2l.4.6Zm7.5-1h0a2.1,2.1,0,0,0,0-1.1,6.8,6.8,0,0,0-.7-2h-.5a2.9,2.9,0,0,1,0,1.3c0,.1,0,.1.1.2l.2.2a5,5,0,0,1,.4,1.3h.5Zm-6-4.1h.3a1.7,1.7,0,0,1,1.2.2h.3a2,2,0,0,1,1.1-.3h.4v-.3h-.1a4.7,4.7,0,0,0-1.7-.2,2.8,2.8,0,0,0-1.3.3h-.1Zm6,4.1h-.5l-1,1.4h-.1a3.6,3.6,0,0,1-.2,1c-.1.1,0,.1,0,.1h.2a4,4,0,0,0,1.6-2.8Zm-7.1-2.7.4-.6.7-.8h0v-.4a4.7,4.7,0,0,0-2.3,2.7l.7-.6Zm3.3,6.2h0a2.2,2.2,0,0,1-1.1-.5h-.3a2.3,2.3,0,0,1-1.4-.4h-.2A4.3,4.3,0,0,0,167.9,233.4Zm-2.9-.9h-.1a6.1,6.1,0,0,1-.7-1.4h-.1l-.5-.6-.3-.5a5,5,0,0,0,1.6,2.8Z" fill="#fff"/>
  <rect x="219.4" y="270.3" width="104" height="13.03" fill="#ed1c24"/>
</svg>
