<svg id="a6d22e54-b523-4a4b-adc9-1c2f12653787" data-name="Layer 1" xmlns="http://www.w3.org/2000/svg" xmlns:xlink="http://www.w3.org/1999/xlink" width="335" height="335" viewBox="0 0 335 335">
  <defs>
    <clipPath id="fa78b105-1b42-408d-aeae-c7de2d3f7317">
      <rect width="335" height="335" fill="none"/>
    </clipPath>
    <radialGradient id="a9afe51e-ccb7-4e7d-88ac-3d63e1600818" data-name="New Gradient Swatch 6" cx="446.88" cy="236.4" r="925.52" gradientTransform="translate(120.5 78.6) scale(0.28 0.53)" gradientUnits="userSpaceOnUse">
      <stop offset="0" stop-color="#323231"/>
      <stop offset="0.4" stop-color="#2f2f2e"/>
      <stop offset="0.67" stop-color="#262625"/>
      <stop offset="0.9" stop-color="#171717"/>
      <stop offset="1" stop-color="#0e0e0e"/>
    </radialGradient>
    <linearGradient id="b7ecffab-c096-461a-b06a-d574b34214ff" data-name="New Gradient Swatch 5" x1="-2.7" y1="71.2" x2="-7.48" y2="93.94" gradientUnits="userSpaceOnUse">
      <stop offset="0" stop-color="#ffc918"/>
      <stop offset="1" stop-color="#f8951d"/>
    </linearGradient>
    <linearGradient id="f932831a-0a62-4752-8383-b189bfb4b401" x1="-2.7" y1="62.08" x2="-7.48" y2="84.82" xlink:href="#b7ecffab-c096-461a-b06a-d574b34214ff"/>
    <linearGradient id="fdb6025f-a21b-467d-a40a-d1b7551b1094" x1="-2.7" y1="52.96" x2="-7.48" y2="75.7" xlink:href="#b7ecffab-c096-461a-b06a-d574b34214ff"/>
    <linearGradient id="fb31b4e7-d5bb-4d09-8deb-483fb02fb4c1" x1="-2.7" y1="43.84" x2="-7.48" y2="66.59" xlink:href="#b7ecffab-c096-461a-b06a-d574b34214ff"/>
    <linearGradient id="eb9a4bc5-be2a-4af0-9645-c0b04f8bbf34" x1="-2.7" y1="34.72" x2="-7.48" y2="57.47" xlink:href="#b7ecffab-c096-461a-b06a-d574b34214ff"/>
    <linearGradient id="a8d4b34a-df80-4fed-91fb-c55bfc8af338" x1="210.45" y1="258.8" x2="243.53" y2="258.8" xlink:href="#b7ecffab-c096-461a-b06a-d574b34214ff"/>
    <linearGradient id="ad1c0227-a911-42c3-9e03-a0ffeb53373e" x1="210.45" y1="267.88" x2="243.53" y2="267.88" xlink:href="#b7ecffab-c096-461a-b06a-d574b34214ff"/>
    <linearGradient id="a70da3b0-8b5e-4ccc-9c85-72ab8ce4e9ff" x1="210.45" y1="276.95" x2="243.53" y2="276.95" xlink:href="#b7ecffab-c096-461a-b06a-d574b34214ff"/>
    <linearGradient id="a128cfc8-8fa6-484d-8878-317b3c68dd97" x1="210.45" y1="286.02" x2="243.53" y2="286.02" xlink:href="#b7ecffab-c096-461a-b06a-d574b34214ff"/>
    <linearGradient id="a3d0cde9-9b75-453c-b031-3740788760f7" x1="210.45" y1="295.09" x2="243.53" y2="295.09" xlink:href="#b7ecffab-c096-461a-b06a-d574b34214ff"/>
    <linearGradient id="f921b90e-44b5-4a35-9f9a-3c0203d01132" x1="322.16" y1="109.9" x2="328.94" y2="109.9" xlink:href="#b7ecffab-c096-461a-b06a-d574b34214ff"/>
    <linearGradient id="b63b6618-3810-4686-b735-b6b48f397364" x1="322.16" y1="117.44" x2="328.94" y2="117.44" xlink:href="#b7ecffab-c096-461a-b06a-d574b34214ff"/>
    <linearGradient id="af9088f0-f083-45c5-86fb-50f3ab23dc20" x1="322.16" y1="124.97" x2="328.94" y2="124.97" xlink:href="#b7ecffab-c096-461a-b06a-d574b34214ff"/>
    <linearGradient id="ba7f96f5-4f60-414a-b086-3a4bed630ea8" x1="6.7" y1="145.93" x2="13.47" y2="145.93" xlink:href="#b7ecffab-c096-461a-b06a-d574b34214ff"/>
    <linearGradient id="ea028f3d-4267-40de-950f-d3a815eae6e3" x1="6.7" y1="153.46" x2="13.47" y2="153.46" xlink:href="#b7ecffab-c096-461a-b06a-d574b34214ff"/>
    <linearGradient id="e90c3424-b77e-4b26-bc6e-caacd99ac7bd" x1="179.32" y1="190.72" x2="186.09" y2="190.72" xlink:href="#b7ecffab-c096-461a-b06a-d574b34214ff"/>
    <linearGradient id="bec1c1b1-b88f-4f7b-b07e-829574351453" x1="179.32" y1="198.25" x2="186.09" y2="198.25" xlink:href="#b7ecffab-c096-461a-b06a-d574b34214ff"/>
    <linearGradient id="a0e5c433-0d0a-407b-9871-e5f269f57402" x1="200.27" y1="221.18" x2="365.8" y2="221.18" xlink:href="#b7ecffab-c096-461a-b06a-d574b34214ff"/>
    <linearGradient id="b46ec956-1b53-4719-b618-2e189eac7973" x1="313.64" y1="294.72" x2="348.15" y2="294.72" xlink:href="#b7ecffab-c096-461a-b06a-d574b34214ff"/>
    <linearGradient id="fbdac96b-3e95-445f-8182-4a2838d95b6a" x1="223.06" y1="305.73" x2="308.07" y2="305.73" xlink:href="#b7ecffab-c096-461a-b06a-d574b34214ff"/>
    <linearGradient id="e346f757-733c-4624-8cf2-71de48159dd5" x1="194.74" y1="228.61" x2="196.05" y2="228.61" xlink:href="#b7ecffab-c096-461a-b06a-d574b34214ff"/>
    <linearGradient id="f483a11d-00c0-4add-8155-8292d97d957a" x1="194.2" y1="182.17" x2="211.93" y2="182.17" xlink:href="#b7ecffab-c096-461a-b06a-d574b34214ff"/>
    <linearGradient id="b54a7c6c-fcd4-4683-97da-8cc7ffae0d72" x1="219.39" y1="145.57" x2="258.08" y2="145.57" xlink:href="#b7ecffab-c096-461a-b06a-d574b34214ff"/>
    <linearGradient id="fa105fe2-f992-4b3d-ac46-bd96d54a1e24" x1="262.81" y1="132.8" x2="329.75" y2="132.8" xlink:href="#b7ecffab-c096-461a-b06a-d574b34214ff"/>
    <linearGradient id="fdd68cc5-fa83-4b76-8f32-fb3f35386373" x1="318.23" y1="178.15" x2="382.81" y2="178.15" xlink:href="#b7ecffab-c096-461a-b06a-d574b34214ff"/>
    <linearGradient id="e120e3c8-a852-4ab5-bd4b-584e9adb5298" x1="18.14" y1="99.8" x2="130.74" y2="99.8" xlink:href="#b7ecffab-c096-461a-b06a-d574b34214ff"/>
    <linearGradient id="f42c5d64-7a34-4fa0-85c7-42c325e4dcce" x1="140.57" y1="99.8" x2="253.18" y2="99.8" xlink:href="#b7ecffab-c096-461a-b06a-d574b34214ff"/>
    <linearGradient id="bde5e105-dacc-4cc8-8347-fda413e2d1e9" x1="18.14" y1="288.68" x2="95.47" y2="288.68" xlink:href="#b7ecffab-c096-461a-b06a-d574b34214ff"/>
    <linearGradient id="b4558856-e20d-4ddd-9608-322b4b7ca6b2" x1="40.42" y1="295.82" x2="170.34" y2="295.82" gradientTransform="matrix(1, 0, 0, -3.38, 0, 1303.55)" xlink:href="#b7ecffab-c096-461a-b06a-d574b34214ff"/>
    <linearGradient id="f361d90d-fb82-437f-a66a-ca0a8efbd502" x1="265.89" y1="66.77" x2="322.62" y2="66.77" xlink:href="#b7ecffab-c096-461a-b06a-d574b34214ff"/>
    <linearGradient id="bdccaad1-30ad-462c-937a-c9d8c9f5fd1b" x1="291.75" y1="77.49" x2="293.79" y2="77.49" xlink:href="#b7ecffab-c096-461a-b06a-d574b34214ff"/>
    <linearGradient id="aef5f6cc-9d9d-4af1-9d0d-3606c9bf290e" x1="289.47" y1="71.19" x2="291.37" y2="71.19" xlink:href="#b7ecffab-c096-461a-b06a-d574b34214ff"/>
    <linearGradient id="a6bac8ff-cb43-4ac0-9832-ab816f445020" x1="284.38" y1="76.69" x2="286.26" y2="76.69" xlink:href="#b7ecffab-c096-461a-b06a-d574b34214ff"/>
    <linearGradient id="b80aeec1-fd7a-4ae2-a2a4-2ae0ca9ca90f" x1="285.13" y1="69.81" x2="286.97" y2="69.81" xlink:href="#b7ecffab-c096-461a-b06a-d574b34214ff"/>
    <linearGradient id="b897acb6-c8a1-4b2e-9d86-aa01bd38cdb2" x1="286.8" y1="73.81" x2="288.59" y2="73.81" xlink:href="#b7ecffab-c096-461a-b06a-d574b34214ff"/>
    <linearGradient id="e44ab5d8-29c6-473e-a94e-4b19a8632d29" x1="287.96" y1="77.65" x2="289.72" y2="77.65" xlink:href="#b7ecffab-c096-461a-b06a-d574b34214ff"/>
    <linearGradient id="b6b188ae-55dc-42bb-9ae1-71b4717365a4" x1="281.41" y1="75.21" x2="283.04" y2="75.21" xlink:href="#b7ecffab-c096-461a-b06a-d574b34214ff"/>
    <linearGradient id="b13c70a7-2a46-442a-b51a-5e7e3caa69c8" x1="281.39" y1="70.27" x2="283.06" y2="70.27" xlink:href="#b7ecffab-c096-461a-b06a-d574b34214ff"/>
    <linearGradient id="a3f7add1-7eb6-43e7-8999-8430601da795" x1="172.6" y1="305.99" x2="224.45" y2="305.99" xlink:href="#b7ecffab-c096-461a-b06a-d574b34214ff"/>
    <linearGradient id="bbee8578-3e9d-4bbb-bcd3-29781b627b61" x1="196.23" y1="315.79" x2="198.1" y2="315.79" xlink:href="#b7ecffab-c096-461a-b06a-d574b34214ff"/>
    <linearGradient id="ffdc4537-d56b-4b6f-82b6-3188e486fe1a" x1="194.15" y1="310.03" x2="195.89" y2="310.03" xlink:href="#b7ecffab-c096-461a-b06a-d574b34214ff"/>
    <linearGradient id="e4a05f66-f05a-4472-9ce7-85a07534f25a" x1="189.49" y1="315.06" x2="191.22" y2="315.06" xlink:href="#b7ecffab-c096-461a-b06a-d574b34214ff"/>
    <linearGradient id="f145629e-62b2-4f0c-887d-582f281de07a" x1="190.19" y1="308.77" x2="191.86" y2="308.77" xlink:href="#b7ecffab-c096-461a-b06a-d574b34214ff"/>
    <linearGradient id="b8e43303-ea12-4d8f-9313-efae9c48d1b5" x1="191.71" y1="312.43" x2="193.35" y2="312.43" xlink:href="#b7ecffab-c096-461a-b06a-d574b34214ff"/>
    <linearGradient id="a16b0b4d-67dd-4580-8fd9-38c291911bd7" x1="192.77" y1="315.94" x2="194.38" y2="315.94" xlink:href="#b7ecffab-c096-461a-b06a-d574b34214ff"/>
    <linearGradient id="ba7510a4-a3de-412d-ac06-e24cf08458a8" x1="186.78" y1="313.71" x2="188.28" y2="313.71" xlink:href="#b7ecffab-c096-461a-b06a-d574b34214ff"/>
    <linearGradient id="bfad9efe-0f14-4064-b25d-0519cd4f18f1" x1="186.77" y1="309.19" x2="188.29" y2="309.19" xlink:href="#b7ecffab-c096-461a-b06a-d574b34214ff"/>
  </defs>
  <g>
    <g clip-path="url(#fa78b105-1b42-408d-aeae-c7de2d3f7317)">
      <rect width="335" height="335" fill="url(#a9afe51e-ccb7-4e7d-88ac-3d63e1600818)"/>
      <g>
        <g opacity="0.03">
          <g>
            <g>
              <path d="M179.8,330.6h25.3v7.7H176.8v-4.7A3.7,3.7,0,0,1,179.8,330.6Zm6.1,25.3h-9.1V339.4h23.9v7.7H185.9Zm-8.2-22.2v3.6h26.5v-5.8H179.9A2.8,2.8,0,0,0,177.7,333.7ZM185,355v-8.9h14.8v-5.8H177.7V355Z" fill="#fff"/>
              <path d="M207.2,330.6h9.2v17.6h11.2V330.6h9.2V353a3.6,3.6,0,0,1-2.9,2.9H210.3a3.5,3.5,0,0,1-3.1-2.9Zm21.3,18.5H215.4V331.5h-7.3v21.4a2.8,2.8,0,0,0,2.2,2.1h23.4a2.5,2.5,0,0,0,2.2-2.1V331.5h-7.4Z" fill="#fff"/>
              <path d="M268.6,338.3H256v9.9h6.1v7.7H249.8a3.6,3.6,0,0,1-3-2.9V338.3h-7.9v-7.7h29.7Zm-.9-1v-5.8H239.9v5.8h7.8v15.6A2.6,2.6,0,0,0,250,355h11.2v-5.9h-6.1V337.3Z" fill="#fff"/>
              <path d="M273.6,330.6h26.7v7.7H279.8v1.1h17.5a1.9,1.9,0,0,1,1,.3l1,.7a4.1,4.1,0,0,1,.7,1.1,2.8,2.8,0,0,1,.3,1.3v10.4a3.8,3.8,0,0,1-2.8,2.7H270.7v-7.7h20.4v-1.1H273.8a2.7,2.7,0,0,1-1.2-.3,3.3,3.3,0,0,1-1-.6,2.7,2.7,0,0,1-.9-2.1V333.2a4.2,4.2,0,0,1,1.1-1.8A3.7,3.7,0,0,1,273.6,330.6Zm5.4,9.7v-3h20.4v-5.8H273.8a2.7,2.7,0,0,0-2.2,1.9v10.7a2,2,0,0,0,.6,1.4,2.1,2.1,0,0,0,1.6.7H292v2.9H271.6V355h25.7a2.7,2.7,0,0,0,2.1-1.9V342.8a2.2,2.2,0,0,0-.7-1.7,2.1,2.1,0,0,0-1.4-.8Z" fill="#fff"/>
              <path d="M316.8,348.2h4.1l-3.1-8-6.2,15.7H301.2l10.6-25.3h11.8l10.8,25.3H313.9Zm-1.6,6.8H333l-10-23.5H312.4L302.5,355h8.4l6.9-17.3,4.4,11.4h-4.8Z" fill="#fff"/>
            </g>
            <g>
              <path d="M179.8,286.6h25.3v7.7H176.8v-4.6A4,4,0,0,1,179.8,286.6Zm6.1,25.4h-9.1V295.5h23.9v7.6H185.9Zm-8.2-22.3v3.7h26.5v-5.8H179.9A2.7,2.7,0,0,0,177.7,289.7Zm7.3,21.4v-8.9h14.8v-5.8H177.7v14.7Z" fill="#fff"/>
              <path d="M207.2,286.6h9.2v17.7h11.2V286.6h9.2V309a3.6,3.6,0,0,1-2.9,3H210.3a3.7,3.7,0,0,1-3.1-3Zm21.3,18.6H215.4V287.6h-7.3V309a2.8,2.8,0,0,0,2.2,2.1h23.4a2.5,2.5,0,0,0,2.2-2.1V287.6h-7.4Z" fill="#fff"/>
              <path d="M268.6,294.3H256v10h6.1V312H249.8a3.7,3.7,0,0,1-3-2.9V294.3h-7.9v-7.7h29.7Zm-.9-.9v-5.8H239.9v5.8h7.8V309a2.6,2.6,0,0,0,2.3,2.1h11.2v-5.9h-6.1V293.4Z" fill="#fff"/>
              <path d="M273.6,286.6h26.7v7.7H279.8v1.2h17.5a1.9,1.9,0,0,1,1,.3l1,.7a4.1,4.1,0,0,1,.7,1.1,2.7,2.7,0,0,1,.3,1.2v10.5a3.8,3.8,0,0,1-2.8,2.7H270.7v-7.7h20.4v-1.1H273.8a2.7,2.7,0,0,1-1.2-.3l-1-.7a3.1,3.1,0,0,1-.7-.9,5,5,0,0,1-.2-1.2V289.3a3.3,3.3,0,0,1,1.1-1.8A5.1,5.1,0,0,1,273.6,286.6Zm5.4,9.8v-3h20.4v-5.8H273.8a2.6,2.6,0,0,0-2.2,1.9v10.6a2,2,0,0,0,.6,1.5,2.6,2.6,0,0,0,1.6.7H292v2.9H271.6v5.9h25.7a2.8,2.8,0,0,0,2.1-2V298.8a2.3,2.3,0,0,0-.7-1.7,1.9,1.9,0,0,0-1.4-.7Z" fill="#fff"/>
              <path d="M316.8,304.3h4.1l-3.1-8L311.6,312H301.2l10.6-25.4h11.8L334.4,312H313.9Zm-1.6,6.8H333l-10-23.5H312.4l-9.9,23.5h8.4l6.9-17.3,4.4,11.4h-4.8Z" fill="#fff"/>
            </g>
            <g>
              <path d="M179.8,242.7h25.3v7.7H176.8v-4.7A4,4,0,0,1,179.8,242.7Zm6.1,25.3h-9.1V251.6h23.9v7.6H185.9Zm-8.2-22.2v3.7h26.5v-5.9H179.9A2.9,2.9,0,0,0,177.7,245.8Zm7.3,21.3v-8.8h14.8v-5.8H177.7v14.6Z" fill="#fff"/>
              <path d="M207.2,242.7h9.2v17.7h11.2V242.7h9.2v22.4a3.5,3.5,0,0,1-2.9,2.9H210.3a3.5,3.5,0,0,1-3.1-2.9Zm21.3,18.6H215.4V243.6h-7.3V265a2.5,2.5,0,0,0,2.2,2.1h23.4a2.5,2.5,0,0,0,2.2-2.1V243.6h-7.4Z" fill="#fff"/>
              <path d="M268.6,250.4H256v10h6.1V268H249.8a3.5,3.5,0,0,1-3-2.8V250.4h-7.9v-7.7h29.7Zm-.9-.9v-5.9H239.9v5.9h7.8V265a2.6,2.6,0,0,0,2.3,2.1h11.2v-5.8h-6.1V249.5Z" fill="#fff"/>
              <path d="M273.6,242.7h26.7v7.7H279.8v1.2h17.5a1.8,1.8,0,0,1,1,.2,3.9,3.9,0,0,1,1,.8,3.6,3.6,0,0,1,.7,1,3.1,3.1,0,0,1,.3,1.3v10.4a3.5,3.5,0,0,1-2.8,2.7H270.7v-7.6h20.4v-1.2H273.8l-1.2-.2-1-.7a2.7,2.7,0,0,1-.9-2.1V245.4a3.3,3.3,0,0,1,1.1-1.8A3.8,3.8,0,0,1,273.6,242.7Zm5.4,9.8v-3h20.4v-5.9H273.8a2.9,2.9,0,0,0-2.2,1.9v10.7a2.4,2.4,0,0,0,.6,1.5,2.5,2.5,0,0,0,1.6.6H292v3H271.6v5.8h25.7a2.7,2.7,0,0,0,2.1-1.9V254.9a2.3,2.3,0,0,0-.7-1.7,1.9,1.9,0,0,0-1.4-.7Z" fill="#fff"/>
              <path d="M316.8,260.4h4.1l-3.1-8L311.6,268H301.2l10.6-25.3h11.8L334.4,268H313.9Zm-1.6,6.7H333l-10-23.5H312.4l-9.9,23.5h8.4l6.9-17.3,4.4,11.5h-4.8Z" fill="#fff"/>
            </g>
            <g>
              <path d="M179.8,198.8h25.3v7.6H176.8v-4.6A3.7,3.7,0,0,1,179.8,198.8Zm6.1,25.3h-9.1V207.6h23.9v7.7H185.9Zm-8.2-22.2v3.6h26.5v-5.8H179.9A2.8,2.8,0,0,0,177.7,201.9Zm7.3,21.3v-8.9h14.8v-5.8H177.7v14.7Z" fill="#fff"/>
              <path d="M207.2,198.8h9.2v17.6h11.2V198.8h9.2v22.3a3.6,3.6,0,0,1-2.9,3H210.3a3.5,3.5,0,0,1-3.1-3Zm21.3,18.5H215.4V199.7h-7.3v21.4a2.8,2.8,0,0,0,2.2,2.1h23.4a2.5,2.5,0,0,0,2.2-2.1V199.7h-7.4Z" fill="#fff"/>
              <path d="M268.6,206.4H256v10h6.1v7.7H249.8a3.6,3.6,0,0,1-3-2.9V206.4h-7.9v-7.6h29.7Zm-.9-.9v-5.8H239.9v5.8h7.8v15.6a2.6,2.6,0,0,0,2.3,2.1h11.2v-5.9h-6.1V205.5Z" fill="#fff"/>
              <path d="M273.6,198.8h26.7v7.6H279.8v1.2h17.5a1.9,1.9,0,0,1,1,.3l1,.7a4.1,4.1,0,0,1,.7,1.1,2.8,2.8,0,0,1,.3,1.3v10.4a3.8,3.8,0,0,1-2.8,2.7H270.7v-7.7h20.4v-1.1H273.8a2.7,2.7,0,0,1-1.2-.3,3.3,3.3,0,0,1-1-.6,3.6,3.6,0,0,1-.7-1,4.3,4.3,0,0,1-.2-1.1V201.4a4.2,4.2,0,0,1,1.1-1.8A3.7,3.7,0,0,1,273.6,198.8Zm5.4,9.7v-3h20.4v-5.8H273.8a2.7,2.7,0,0,0-2.2,1.9v10.7a2,2,0,0,0,.6,1.4,2.1,2.1,0,0,0,1.6.7H292v2.9H271.6v5.9h25.7a2.7,2.7,0,0,0,2.1-1.9V211a2.2,2.2,0,0,0-.7-1.7,2.1,2.1,0,0,0-1.4-.8Z" fill="#fff"/>
              <path d="M316.8,216.4h4.1l-3.1-8-6.2,15.7H301.2l10.6-25.3h11.8l10.8,25.3H313.9Zm-1.6,6.8H333l-10-23.5H312.4l-9.9,23.5h8.4l6.9-17.3,4.4,11.4h-4.8Z" fill="#fff"/>
            </g>
            <g>
              <path d="M179.8,154.8h25.3v7.7H176.8v-4.6A4,4,0,0,1,179.8,154.8Zm6.1,25.4h-9.1V163.7h23.9v7.6H185.9Zm-8.2-22.3v3.7h26.5v-5.9H179.9A2.9,2.9,0,0,0,177.7,157.9Zm7.3,21.4v-8.9h14.8v-5.8H177.7v14.7Z" fill="#fff"/>
              <path d="M207.2,154.8h9.2v17.7h11.2V154.8h9.2v22.4a3.6,3.6,0,0,1-2.9,3H210.3a3.7,3.7,0,0,1-3.1-3Zm21.3,18.6H215.4V155.7h-7.3v21.5a2.8,2.8,0,0,0,2.2,2.1h23.4a2.7,2.7,0,0,0,2.2-2.1V155.7h-7.4Z" fill="#fff"/>
              <path d="M268.6,162.5H256v10h6.1v7.7H249.8a3.7,3.7,0,0,1-3-2.9V162.5h-7.9v-7.7h29.7Zm-.9-.9v-5.9H239.9v5.9h7.8v15.6a2.7,2.7,0,0,0,2.3,2.1h11.2v-5.9h-6.1V161.6Z" fill="#fff"/>
              <path d="M273.6,154.8h26.7v7.7H279.8v1.2h17.5a1.9,1.9,0,0,1,1,.3l1,.7a4.1,4.1,0,0,1,.7,1.1,2.7,2.7,0,0,1,.3,1.2v10.5a3.8,3.8,0,0,1-2.8,2.7H270.7v-7.7h20.4v-1.1H273.8a2.7,2.7,0,0,1-1.2-.3l-1-.7a3.1,3.1,0,0,1-.7-.9,5,5,0,0,1-.2-1.2V157.5a3.3,3.3,0,0,1,1.1-1.8A5.1,5.1,0,0,1,273.6,154.8Zm5.4,9.8v-3h20.4v-5.9H273.8a2.8,2.8,0,0,0-2.2,2v10.6a2,2,0,0,0,.6,1.5,2.5,2.5,0,0,0,1.6.6H292v3H271.6v5.9h25.7a2.8,2.8,0,0,0,2.1-2V167a2.3,2.3,0,0,0-.7-1.7,1.9,1.9,0,0,0-1.4-.7Z" fill="#fff"/>
              <path d="M316.8,172.5h4.1l-3.1-8-6.2,15.7H301.2l10.6-25.4h11.8l10.8,25.4H313.9Zm-1.6,6.8H333l-10-23.6H312.4l-9.9,23.6h8.4l6.9-17.4,4.4,11.5h-4.8Z" fill="#fff"/>
            </g>
            <g>
              <path d="M179.8,110.9h25.3v7.7H176.8v-4.7A3.9,3.9,0,0,1,179.8,110.9Zm6.1,25.3h-9.1V119.7h23.9v7.7H185.9ZM177.7,114v3.7h26.5v-5.9H179.9A2.9,2.9,0,0,0,177.7,114Zm7.3,21.3v-8.8h14.8v-5.8H177.7v14.6Z" fill="#fff"/>
              <path d="M207.2,110.9h9.2v17.7h11.2V110.9h9.2v22.4a3.5,3.5,0,0,1-2.9,2.9H210.3a3.5,3.5,0,0,1-3.1-2.9Zm21.3,18.6H215.4V111.8h-7.3v21.4a2.5,2.5,0,0,0,2.2,2.1h23.4a2.5,2.5,0,0,0,2.2-2.1V111.8h-7.4Z" fill="#fff"/>
              <path d="M268.6,118.6H256v10h6.1v7.6H249.8a3.5,3.5,0,0,1-3-2.8V118.6h-7.9v-7.7h29.7Zm-.9-.9v-5.9H239.9v5.9h7.8v15.5a2.6,2.6,0,0,0,2.3,2.1h11.2v-5.8h-6.1V117.7Z" fill="#fff"/>
              <path d="M273.6,110.9h26.7v7.7H279.8v1.1h17.5a1.9,1.9,0,0,1,1,.3,3.9,3.9,0,0,1,1,.8,3.6,3.6,0,0,1,.7,1,3.1,3.1,0,0,1,.3,1.3v10.4a3.5,3.5,0,0,1-2.8,2.7H270.7v-7.6h20.4v-1.2H273.8l-1.2-.2-1-.7a2.7,2.7,0,0,1-.9-2.1V113.5a3.4,3.4,0,0,1,1.1-1.7A3.1,3.1,0,0,1,273.6,110.9Zm5.4,9.8v-3h20.4v-5.9H273.8a2.7,2.7,0,0,0-2.2,1.9v10.7a2.4,2.4,0,0,0,.6,1.5,2.5,2.5,0,0,0,1.6.6H292v3H271.6v5.8h25.7a2.7,2.7,0,0,0,2.1-1.9V123.1a2.3,2.3,0,0,0-.7-1.7,1.9,1.9,0,0,0-1.4-.7Z" fill="#fff"/>
              <path d="M316.8,128.6h4.1l-3.1-8-6.2,15.6H301.2l10.6-25.3h11.8l10.8,25.3H313.9Zm-1.6,6.7H333l-10-23.5H312.4l-9.9,23.5h8.4l6.9-17.3,4.4,11.5h-4.8Z" fill="#fff"/>
            </g>
            <g>
              <path d="M179.8,67h25.3v7.6H176.8V70A3.7,3.7,0,0,1,179.8,67Zm6.1,25.3h-9.1V75.8h23.9v7.6H185.9ZM177.7,70v3.7h26.5V67.9H179.9A2.8,2.8,0,0,0,177.7,70ZM185,91.4V82.5h14.8V76.7H177.7V91.4Z" fill="#fff"/>
              <path d="M207.2,67h9.2V84.6h11.2V67h9.2V89.3a3.6,3.6,0,0,1-2.9,3H210.3a3.6,3.6,0,0,1-3.1-3Zm21.3,18.5H215.4V67.9h-7.3V89.3a2.8,2.8,0,0,0,2.2,2.1h23.4a2.5,2.5,0,0,0,2.2-2.1V67.9h-7.4Z" fill="#fff"/>
              <path d="M268.6,74.6H256v10h6.1v7.7H249.8a3.6,3.6,0,0,1-3-2.9V74.6h-7.9V67h29.7Zm-.9-.9V67.9H239.9v5.8h7.8V89.3a2.6,2.6,0,0,0,2.3,2.1h11.2V85.5h-6.1V73.7Z" fill="#fff"/>
              <path d="M273.6,67h26.7v7.6H279.8v1.2h17.5a1.9,1.9,0,0,1,1,.3l1,.7a4.1,4.1,0,0,1,.7,1.1,2.8,2.8,0,0,1,.3,1.3V89.6a3.8,3.8,0,0,1-2.8,2.7H270.7V84.6h20.4V83.5H273.8a2.7,2.7,0,0,1-1.2-.3,3.3,3.3,0,0,1-1-.6,3.6,3.6,0,0,1-.7-1,4.3,4.3,0,0,1-.2-1.1V69.6a4.2,4.2,0,0,1,1.1-1.8A3.7,3.7,0,0,1,273.6,67Zm5.4,9.7v-3h20.4V67.9H273.8a2.6,2.6,0,0,0-2.2,1.9V80.5a2,2,0,0,0,.6,1.4,2.1,2.1,0,0,0,1.6.7H292v2.9H271.6v5.9h25.7a2.7,2.7,0,0,0,2.1-1.9V79.2a2.2,2.2,0,0,0-.7-1.7,2.1,2.1,0,0,0-1.4-.8Z" fill="#fff"/>
              <path d="M316.8,84.6h4.1l-3.1-8-6.2,15.7H301.2L311.8,67h11.8l10.8,25.3H313.9Zm-1.6,6.8H333L323,67.9H312.4l-9.9,23.5h8.4l6.9-17.3,4.4,11.4h-4.8Z" fill="#fff"/>
            </g>
            <g>
              <path d="M179.8,23h25.3v7.7H176.8V26.1A4,4,0,0,1,179.8,23Zm6.1,25.4h-9.1V31.9h23.9v7.6H185.9Zm-8.2-22.3v3.7h26.5V23.9H179.9A2.9,2.9,0,0,0,177.7,26.1ZM185,47.4V38.6h14.8V32.8H177.7V47.4Z" fill="#fff"/>
              <path d="M207.2,23h9.2V40.7h11.2V23h9.2V45.4a3.6,3.6,0,0,1-2.9,3H210.3a3.7,3.7,0,0,1-3.1-3Zm21.3,18.6H215.4V23.9h-7.3V45.4a2.6,2.6,0,0,0,2.2,2h23.4a2.4,2.4,0,0,0,2.2-2V23.9h-7.4Z" fill="#fff"/>
              <path d="M268.6,30.7H256v10h6.1v7.7H249.8a3.7,3.7,0,0,1-3-2.9V30.7h-7.9V23h29.7Zm-.9-.9V23.9H239.9v5.9h7.8V45.4a2.5,2.5,0,0,0,2.3,2h11.2V41.6h-6.1V29.8Z" fill="#fff"/>
              <path d="M273.6,23h26.7v7.7H279.8v1.2h17.5a1.9,1.9,0,0,1,1,.3,2.3,2.3,0,0,1,1,.7A4.1,4.1,0,0,1,300,34a2.7,2.7,0,0,1,.3,1.2V45.7a3.8,3.8,0,0,1-2.8,2.7H270.7V40.7h20.4V39.6H273.8a2.7,2.7,0,0,1-1.2-.3l-1-.7-.7-.9a5,5,0,0,1-.2-1.2V25.7a3.3,3.3,0,0,1,1.1-1.8A5.1,5.1,0,0,1,273.6,23Zm5.4,9.8v-3h20.4V23.9H273.8a2.8,2.8,0,0,0-2.2,2V36.5a2,2,0,0,0,.6,1.5,2.5,2.5,0,0,0,1.6.6H292v3H271.6v5.8h25.7a2.5,2.5,0,0,0,2.1-1.9V35.2a2.3,2.3,0,0,0-.7-1.7,1.9,1.9,0,0,0-1.4-.7Z" fill="#fff"/>
              <path d="M316.8,40.7h4.1l-3.1-8-6.2,15.7H301.2L311.8,23h11.8l10.8,25.4H313.9Zm-1.6,6.7H333L323,23.9H312.4l-9.9,23.5h8.4l6.9-17.3,4.4,11.5h-4.8Z" fill="#fff"/>
            </g>
            <g>
              <path d="M179.8-20.9h25.3v7.7H176.8v-4.7A3.9,3.9,0,0,1,179.8-20.9Zm6.1,25.3h-9.1V-12.1h23.9v7.7H185.9Zm-8.2-22.2v3.7h26.5V-20H179.9A2.9,2.9,0,0,0,177.7-17.8ZM185,3.5V-5.3h14.8v-5.8H177.7V3.5Z" fill="#fff"/>
              <path d="M207.2-20.9h9.2V-3.3h11.2V-20.9h9.2V1.5a3.6,3.6,0,0,1-2.9,2.9H210.3a3.5,3.5,0,0,1-3.1-2.9ZM228.5-2.3H215.4V-20h-7.3V1.4a2.5,2.5,0,0,0,2.2,2.1h23.4a2.5,2.5,0,0,0,2.2-2.1V-20h-7.4Z" fill="#fff"/>
              <path d="M268.6-13.2H256v9.9h6.1V4.4H249.8a3.6,3.6,0,0,1-3-2.8V-13.2h-7.9v-7.7h29.7Zm-.9-.9V-20H239.9v5.9h7.8V1.4A2.6,2.6,0,0,0,250,3.5h11.2V-2.3h-6.1V-14.1Z" fill="#fff"/>
              <path d="M273.6-20.9h26.7v7.7H279.8v1.1h17.5a1.9,1.9,0,0,1,1,.3,3.9,3.9,0,0,1,1,.8,3.6,3.6,0,0,1,.7,1,2.8,2.8,0,0,1,.3,1.3V1.7a3.5,3.5,0,0,1-2.8,2.7H270.7V-3.3h20.4V-4.4H273.8l-1.2-.2-1-.7a3.6,3.6,0,0,1-.7-1,3.6,3.6,0,0,1-.2-1.1V-18.3a3.4,3.4,0,0,1,1.1-1.7A3.1,3.1,0,0,1,273.6-20.9Zm5.4,9.8v-3h20.4V-20H273.8a2.7,2.7,0,0,0-2.2,1.9V-7.4a2.4,2.4,0,0,0,.6,1.5,2.5,2.5,0,0,0,1.6.6H292v3H271.6V3.5h25.7a2.7,2.7,0,0,0,2.1-1.9V-8.7a2.2,2.2,0,0,0-.7-1.7,1.9,1.9,0,0,0-1.4-.7Z" fill="#fff"/>
              <path d="M316.8-3.3h4.1l-3.1-7.9L311.6,4.4H301.2l10.6-25.3h11.8L334.4,4.4H313.9Zm-1.6,6.8H333L323-20H312.4L302.5,3.5h8.4l6.9-17.3,4.4,11.5h-4.8Z" fill="#fff"/>
            </g>
          </g>
          <g>
            <g>
              <path d="M-22.2,330.6H-13v17.6H-1.8V330.6H7.4V353a3.6,3.6,0,0,1-2.9,2.9H-19.1a3.6,3.6,0,0,1-3.1-2.9ZM-.9,349.1H-14V331.5h-7.3v21.4a2.8,2.8,0,0,0,2.2,2.1H4.3a2.5,2.5,0,0,0,2.2-2.1V331.5H-.9Z" fill="#fff"/>
              <path d="M39.2,338.3H26.6v9.9h6.1v7.7H20.4a3.6,3.6,0,0,1-3-2.9V338.3H9.5v-7.7H39.2Zm-.9-1v-5.8H10.5v5.8h7.8v15.6a2.6,2.6,0,0,0,2.3,2.1H31.8v-5.9H25.7V337.3Z" fill="#fff"/>
              <path d="M44.2,330.6H70.9v7.7H50.4v1.1H67.9a1.9,1.9,0,0,1,1,.3l1,.7a4.1,4.1,0,0,1,.7,1.1,2.8,2.8,0,0,1,.3,1.3v10.4a3.8,3.8,0,0,1-2.8,2.7H41.3v-7.7H61.7v-1.1H44.4a2.7,2.7,0,0,1-1.2-.3,3.3,3.3,0,0,1-1-.6,2.7,2.7,0,0,1-.9-2.1V333.2a4.2,4.2,0,0,1,1.1-1.8A3.7,3.7,0,0,1,44.2,330.6Zm5.4,9.7v-3H70v-5.8H44.4a2.7,2.7,0,0,0-2.2,1.9v10.7a2,2,0,0,0,.6,1.4,2.1,2.1,0,0,0,1.6.7H62.6v2.9H42.2V355H67.9a2.7,2.7,0,0,0,2.1-1.9V342.8a2.2,2.2,0,0,0-.7-1.7,2.1,2.1,0,0,0-1.4-.8Z" fill="#fff"/>
              <path d="M87.4,348.2h4.1l-3.1-8-6.2,15.7H71.8l10.6-25.3H94.2L105,355.9H84.5ZM85.8,355h17.8l-10-23.5H83L73.1,355h8.4l6.9-17.3,4.4,11.4H88Z" fill="#fff"/>
              <path d="M114.8,348.2H131v7.7H108.8a3.5,3.5,0,0,1-3-2.9V330.6h9ZM109,355h21.1v-5.9H113.9V331.5h-7.2v21.4A2.6,2.6,0,0,0,109,355Z" fill="#fff"/>
              <path d="M142.1,348.2h16.1v7.7H136a3.5,3.5,0,0,1-3-2.9V330.6h9.1Zm-5.9,6.8h21.1v-5.9H141.2V331.5H134v21.4A2.4,2.4,0,0,0,136.2,355Z" fill="#fff"/>
            </g>
            <g>
              <path d="M-22.2,286.6H-13v17.7H-1.8V286.6H7.4V309a3.6,3.6,0,0,1-2.9,3H-19.1a3.8,3.8,0,0,1-3.1-3ZM-.9,305.2H-14V287.6h-7.3V309a2.8,2.8,0,0,0,2.2,2.1H4.3A2.5,2.5,0,0,0,6.5,309V287.6H-.9Z" fill="#fff"/>
              <path d="M39.2,294.3H26.6v10h6.1V312H20.4a3.7,3.7,0,0,1-3-2.9V294.3H9.5v-7.7H39.2Zm-.9-.9v-5.8H10.5v5.8h7.8V309a2.6,2.6,0,0,0,2.3,2.1H31.8v-5.9H25.7V293.4Z" fill="#fff"/>
              <path d="M44.2,286.6H70.9v7.7H50.4v1.2H67.9a1.9,1.9,0,0,1,1,.3l1,.7a4.1,4.1,0,0,1,.7,1.1,2.7,2.7,0,0,1,.3,1.2v10.5a3.8,3.8,0,0,1-2.8,2.7H41.3v-7.7H61.7v-1.1H44.4a2.7,2.7,0,0,1-1.2-.3l-1-.7a3.1,3.1,0,0,1-.7-.9,5,5,0,0,1-.2-1.2V289.3a3.3,3.3,0,0,1,1.1-1.8A5.1,5.1,0,0,1,44.2,286.6Zm5.4,9.8v-3H70v-5.8H44.4a2.6,2.6,0,0,0-2.2,1.9v10.6a2,2,0,0,0,.6,1.5,2.6,2.6,0,0,0,1.6.7H62.6v2.9H42.2v5.9H67.9a2.8,2.8,0,0,0,2.1-2V298.8a2.3,2.3,0,0,0-.7-1.7,1.9,1.9,0,0,0-1.4-.7Z" fill="#fff"/>
              <path d="M87.4,304.3h4.1l-3.1-8L82.2,312H71.8l10.6-25.4H94.2L105,312H84.5Zm-1.6,6.8h17.8l-10-23.5H83l-9.9,23.5h8.4l6.9-17.3,4.4,11.4H88Z" fill="#fff"/>
              <path d="M114.8,304.3H131V312H108.8a3.6,3.6,0,0,1-3-2.9V286.6h9Zm-5.8,6.8h21.1v-5.9H113.9V287.6h-7.2V309A2.6,2.6,0,0,0,109,311.1Z" fill="#fff"/>
              <path d="M142.1,304.3h16.1V312H136a3.6,3.6,0,0,1-3-2.9V286.6h9.1Zm-5.9,6.8h21.1v-5.9H141.2V287.6H134V309A2.4,2.4,0,0,0,136.2,311.1Z" fill="#fff"/>
            </g>
            <g>
              <path d="M-22.2,242.7H-13v17.7H-1.8V242.7H7.4v22.4A3.5,3.5,0,0,1,4.5,268H-19.1a3.6,3.6,0,0,1-3.1-2.9ZM-.9,261.3H-14V243.6h-7.3V265a2.5,2.5,0,0,0,2.2,2.1H4.3A2.5,2.5,0,0,0,6.5,265V243.6H-.9Z" fill="#fff"/>
              <path d="M39.2,250.4H26.6v10h6.1V268H20.4a3.5,3.5,0,0,1-3-2.8V250.4H9.5v-7.7H39.2Zm-.9-.9v-5.9H10.5v5.9h7.8V265a2.6,2.6,0,0,0,2.3,2.1H31.8v-5.8H25.7V249.5Z" fill="#fff"/>
              <path d="M44.2,242.7H70.9v7.7H50.4v1.2H67.9a1.8,1.8,0,0,1,1,.2,3.9,3.9,0,0,1,1,.8,3.6,3.6,0,0,1,.7,1,3.1,3.1,0,0,1,.3,1.3v10.4a3.5,3.5,0,0,1-2.8,2.7H41.3v-7.6H61.7v-1.2H44.4l-1.2-.2-1-.7a2.7,2.7,0,0,1-.9-2.1V245.4a3.3,3.3,0,0,1,1.1-1.8A3.8,3.8,0,0,1,44.2,242.7Zm5.4,9.8v-3H70v-5.9H44.4a2.9,2.9,0,0,0-2.2,1.9v10.7a2.4,2.4,0,0,0,.6,1.5,2.5,2.5,0,0,0,1.6.6H62.6v3H42.2v5.8H67.9a2.7,2.7,0,0,0,2.1-1.9V254.9a2.3,2.3,0,0,0-.7-1.7,1.9,1.9,0,0,0-1.4-.7Z" fill="#fff"/>
              <path d="M87.4,260.4h4.1l-3.1-8L82.2,268H71.8l10.6-25.3H94.2L105,268H84.5Zm-1.6,6.7h17.8l-10-23.5H83l-9.9,23.5h8.4l6.9-17.3,4.4,11.5H88Z" fill="#fff"/>
              <path d="M114.8,260.4H131V268H108.8a3.5,3.5,0,0,1-3-2.8V242.7h9Zm-5.8,6.7h21.1v-5.8H113.9V243.6h-7.2V265A2.6,2.6,0,0,0,109,267.1Z" fill="#fff"/>
              <path d="M142.1,260.4h16.1V268H136a3.5,3.5,0,0,1-3-2.8V242.7h9.1Zm-5.9,6.7h21.1v-5.8H141.2V243.6H134V265A2.4,2.4,0,0,0,136.2,267.1Z" fill="#fff"/>
            </g>
            <g>
              <path d="M-22.2,198.8H-13v17.6H-1.8V198.8H7.4v22.3a3.6,3.6,0,0,1-2.9,3H-19.1a3.6,3.6,0,0,1-3.1-3ZM-.9,217.3H-14V199.7h-7.3v21.4a2.8,2.8,0,0,0,2.2,2.1H4.3a2.5,2.5,0,0,0,2.2-2.1V199.7H-.9Z" fill="#fff"/>
              <path d="M39.2,206.4H26.6v10h6.1v7.7H20.4a3.6,3.6,0,0,1-3-2.9V206.4H9.5v-7.6H39.2Zm-.9-.9v-5.8H10.5v5.8h7.8v15.6a2.6,2.6,0,0,0,2.3,2.1H31.8v-5.9H25.7V205.5Z" fill="#fff"/>
              <path d="M44.2,198.8H70.9v7.6H50.4v1.2H67.9a1.9,1.9,0,0,1,1,.3l1,.7a4.1,4.1,0,0,1,.7,1.1,2.8,2.8,0,0,1,.3,1.3v10.4a3.8,3.8,0,0,1-2.8,2.7H41.3v-7.7H61.7v-1.1H44.4l-1.2-.3a3.3,3.3,0,0,1-1-.6,3.6,3.6,0,0,1-.7-1,4.3,4.3,0,0,1-.2-1.1V201.4a4.2,4.2,0,0,1,1.1-1.8A3.7,3.7,0,0,1,44.2,198.8Zm5.4,9.7v-3H70v-5.8H44.4a2.7,2.7,0,0,0-2.2,1.9v10.7a2,2,0,0,0,.6,1.4,2.1,2.1,0,0,0,1.6.7H62.6v2.9H42.2v5.9H67.9a2.7,2.7,0,0,0,2.1-1.9V211a2.2,2.2,0,0,0-.7-1.7,2.1,2.1,0,0,0-1.4-.8Z" fill="#fff"/>
              <path d="M87.4,216.4h4.1l-3.1-8-6.2,15.7H71.8l10.6-25.3H94.2L105,224.1H84.5Zm-1.6,6.8h17.8l-10-23.5H83l-9.9,23.5h8.4l6.9-17.3,4.4,11.4H88Z" fill="#fff"/>
              <path d="M114.8,216.4H131v7.7H108.8a3.5,3.5,0,0,1-3-2.9V198.8h9Zm-5.8,6.8h21.1v-5.9H113.9V199.7h-7.2v21.4A2.6,2.6,0,0,0,109,223.2Z" fill="#fff"/>
              <path d="M142.1,216.4h16.1v7.7H136a3.5,3.5,0,0,1-3-2.9V198.8h9.1Zm-5.9,6.8h21.1v-5.9H141.2V199.7H134v21.4A2.4,2.4,0,0,0,136.2,223.2Z" fill="#fff"/>
            </g>
            <g>
              <path d="M-22.2,154.8H-13v17.7H-1.8V154.8H7.4v22.4a3.6,3.6,0,0,1-2.9,3H-19.1a3.8,3.8,0,0,1-3.1-3ZM-.9,173.4H-14V155.7h-7.3v21.5a2.8,2.8,0,0,0,2.2,2.1H4.3a2.7,2.7,0,0,0,2.2-2.1V155.7H-.9Z" fill="#fff"/>
              <path d="M39.2,162.5H26.6v10h6.1v7.7H20.4a3.7,3.7,0,0,1-3-2.9V162.5H9.5v-7.7H39.2Zm-.9-.9v-5.9H10.5v5.9h7.8v15.6a2.7,2.7,0,0,0,2.3,2.1H31.8v-5.9H25.7V161.6Z" fill="#fff"/>
              <path d="M44.2,154.8H70.9v7.7H50.4v1.2H67.9a1.9,1.9,0,0,1,1,.3l1,.7a4.1,4.1,0,0,1,.7,1.1,2.7,2.7,0,0,1,.3,1.2v10.5a3.8,3.8,0,0,1-2.8,2.7H41.3v-7.7H61.7v-1.1H44.4a2.7,2.7,0,0,1-1.2-.3l-1-.7a3.1,3.1,0,0,1-.7-.9,5,5,0,0,1-.2-1.2V157.5a3.3,3.3,0,0,1,1.1-1.8A5.1,5.1,0,0,1,44.2,154.8Zm5.4,9.8v-3H70v-5.9H44.4a2.8,2.8,0,0,0-2.2,2v10.6a2,2,0,0,0,.6,1.5,2.5,2.5,0,0,0,1.6.6H62.6v3H42.2v5.9H67.9a2.8,2.8,0,0,0,2.1-2V167a2.3,2.3,0,0,0-.7-1.7,1.9,1.9,0,0,0-1.4-.7Z" fill="#fff"/>
              <path d="M87.4,172.5h4.1l-3.1-8-6.2,15.7H71.8l10.6-25.4H94.2L105,180.2H84.5Zm-1.6,6.8h17.8l-10-23.6H83l-9.9,23.6h8.4l6.9-17.4,4.4,11.5H88Z" fill="#fff"/>
              <path d="M114.8,172.5H131v7.7H108.8a3.6,3.6,0,0,1-3-2.9V154.8h9Zm-5.8,6.8h21.1v-5.9H113.9V155.7h-7.2v21.5A2.7,2.7,0,0,0,109,179.3Z" fill="#fff"/>
              <path d="M142.1,172.5h16.1v7.7H136a3.6,3.6,0,0,1-3-2.9V154.8h9.1Zm-5.9,6.8h21.1v-5.9H141.2V155.7H134v21.5A2.5,2.5,0,0,0,136.2,179.3Z" fill="#fff"/>
            </g>
            <g>
              <path d="M-22.2,110.9H-13v17.7H-1.8V110.9H7.4v22.4a3.5,3.5,0,0,1-2.9,2.9H-19.1a3.6,3.6,0,0,1-3.1-2.9ZM-.9,129.5H-14V111.8h-7.3v21.4a2.5,2.5,0,0,0,2.2,2.1H4.3a2.5,2.5,0,0,0,2.2-2.1V111.8H-.9Z" fill="#fff"/>
              <path d="M39.2,118.6H26.6v10h6.1v7.6H20.4a3.5,3.5,0,0,1-3-2.8V118.6H9.5v-7.7H39.2Zm-.9-.9v-5.9H10.5v5.9h7.8v15.5a2.6,2.6,0,0,0,2.3,2.1H31.8v-5.8H25.7V117.7Z" fill="#fff"/>
              <path d="M44.2,110.9H70.9v7.7H50.4v1.1H67.9a1.9,1.9,0,0,1,1,.3,3.9,3.9,0,0,1,1,.8,3.6,3.6,0,0,1,.7,1,3.1,3.1,0,0,1,.3,1.3v10.4a3.5,3.5,0,0,1-2.8,2.7H41.3v-7.6H61.7v-1.2H44.4l-1.2-.2-1-.7a2.7,2.7,0,0,1-.9-2.1V113.5a3.4,3.4,0,0,1,1.1-1.7A3.1,3.1,0,0,1,44.2,110.9Zm5.4,9.8v-3H70v-5.9H44.4a2.7,2.7,0,0,0-2.2,1.9v10.7a2.4,2.4,0,0,0,.6,1.5,2.5,2.5,0,0,0,1.6.6H62.6v3H42.2v5.8H67.9a2.7,2.7,0,0,0,2.1-1.9V123.1a2.3,2.3,0,0,0-.7-1.7,1.9,1.9,0,0,0-1.4-.7Z" fill="#fff"/>
              <path d="M87.4,128.6h4.1l-3.1-8-6.2,15.6H71.8l10.6-25.3H94.2L105,136.2H84.5Zm-1.6,6.7h17.8l-10-23.5H83l-9.9,23.5h8.4L88.4,118l4.4,11.5H88Z" fill="#fff"/>
              <path d="M114.8,128.6H131v7.6H108.8a3.5,3.5,0,0,1-3-2.8V110.9h9Zm-5.8,6.7h21.1v-5.8H113.9V111.8h-7.2v21.4A2.6,2.6,0,0,0,109,135.3Z" fill="#fff"/>
              <path d="M142.1,128.6h16.1v7.6H136a3.5,3.5,0,0,1-3-2.8V110.9h9.1Zm-5.9,6.7h21.1v-5.8H141.2V111.8H134v21.4A2.4,2.4,0,0,0,136.2,135.3Z" fill="#fff"/>
            </g>
            <g>
              <path d="M-22.2,67H-13V84.6H-1.8V67H7.4V89.3a3.6,3.6,0,0,1-2.9,3H-19.1a3.7,3.7,0,0,1-3.1-3ZM-.9,85.5H-14V67.9h-7.3V89.3a2.8,2.8,0,0,0,2.2,2.1H4.3a2.5,2.5,0,0,0,2.2-2.1V67.9H-.9Z" fill="#fff"/>
              <path d="M39.2,74.6H26.6v10h6.1v7.7H20.4a3.6,3.6,0,0,1-3-2.9V74.6H9.5V67H39.2Zm-.9-.9V67.9H10.5v5.8h7.8V89.3a2.6,2.6,0,0,0,2.3,2.1H31.8V85.5H25.7V73.7Z" fill="#fff"/>
              <path d="M44.2,67H70.9v7.6H50.4v1.2H67.9a1.9,1.9,0,0,1,1,.3l1,.7a4.1,4.1,0,0,1,.7,1.1,2.8,2.8,0,0,1,.3,1.3V89.6a3.8,3.8,0,0,1-2.8,2.7H41.3V84.6H61.7V83.5H44.4a2.7,2.7,0,0,1-1.2-.3,3.3,3.3,0,0,1-1-.6,3.6,3.6,0,0,1-.7-1,4.3,4.3,0,0,1-.2-1.1V69.6a4.2,4.2,0,0,1,1.1-1.8A3.7,3.7,0,0,1,44.2,67Zm5.4,9.7v-3H70V67.9H44.4a2.6,2.6,0,0,0-2.2,1.9V80.5a2,2,0,0,0,.6,1.4,2.1,2.1,0,0,0,1.6.7H62.6v2.9H42.2v5.9H67.9A2.7,2.7,0,0,0,70,89.5V79.2a2.2,2.2,0,0,0-.7-1.7,2.1,2.1,0,0,0-1.4-.8Z" fill="#fff"/>
              <path d="M87.4,84.6h4.1l-3.1-8L82.2,92.3H71.8L82.4,67H94.2L105,92.3H84.5Zm-1.6,6.8h17.8l-10-23.5H83L73.1,91.4h8.4l6.9-17.3,4.4,11.4H88Z" fill="#fff"/>
              <path d="M114.8,84.6H131v7.7H108.8a3.6,3.6,0,0,1-3-2.9V67h9ZM109,91.4h21.1V85.5H113.9V67.9h-7.2V89.3A2.6,2.6,0,0,0,109,91.4Z" fill="#fff"/>
              <path d="M142.1,84.6h16.1v7.7H136a3.6,3.6,0,0,1-3-2.9V67h9.1Zm-5.9,6.8h21.1V85.5H141.2V67.9H134V89.3A2.4,2.4,0,0,0,136.2,91.4Z" fill="#fff"/>
            </g>
            <g>
              <path d="M-22.2,23H-13V40.7H-1.8V23H7.4V45.4a3.6,3.6,0,0,1-2.9,3H-19.1a3.8,3.8,0,0,1-3.1-3ZM-.9,41.6H-14V23.9h-7.3V45.4a2.6,2.6,0,0,0,2.2,2H4.3a2.4,2.4,0,0,0,2.2-2V23.9H-.9Z" fill="#fff"/>
              <path d="M39.2,30.7H26.6v10h6.1v7.7H20.4a3.7,3.7,0,0,1-3-2.9V30.7H9.5V23H39.2Zm-.9-.9V23.9H10.5v5.9h7.8V45.4a2.5,2.5,0,0,0,2.3,2H31.8V41.6H25.7V29.8Z" fill="#fff"/>
              <path d="M44.2,23H70.9v7.7H50.4v1.2H67.9a1.9,1.9,0,0,1,1,.3,2.3,2.3,0,0,1,1,.7,4.1,4.1,0,0,1,.7,1.1,2.7,2.7,0,0,1,.3,1.2V45.7a3.8,3.8,0,0,1-2.8,2.7H41.3V40.7H61.7V39.6H44.4a2.7,2.7,0,0,1-1.2-.3l-1-.7-.7-.9a5,5,0,0,1-.2-1.2V25.7a3.3,3.3,0,0,1,1.1-1.8A5.1,5.1,0,0,1,44.2,23Zm5.4,9.8v-3H70V23.9H44.4a2.8,2.8,0,0,0-2.2,2V36.5a2,2,0,0,0,.6,1.5,2.5,2.5,0,0,0,1.6.6H62.6v3H42.2v5.8H67.9A2.5,2.5,0,0,0,70,45.5V35.2a2.3,2.3,0,0,0-.7-1.7,1.9,1.9,0,0,0-1.4-.7Z" fill="#fff"/>
              <path d="M87.4,40.7h4.1l-3.1-8L82.2,48.4H71.8L82.4,23H94.2L105,48.4H84.5Zm-1.6,6.7h17.8l-10-23.5H83L73.1,47.4h8.4l6.9-17.3,4.4,11.5H88Z" fill="#fff"/>
              <path d="M114.8,40.7H131v7.7H108.8a3.6,3.6,0,0,1-3-2.9V23h9ZM109,47.4h21.1V41.6H113.9V23.9h-7.2V45.4A2.5,2.5,0,0,0,109,47.4Z" fill="#fff"/>
              <path d="M142.1,40.7h16.1v7.7H136a3.6,3.6,0,0,1-3-2.9V23h9.1Zm-5.9,6.7h21.1V41.6H141.2V23.9H134V45.4A2.4,2.4,0,0,0,136.2,47.4Z" fill="#fff"/>
            </g>
            <g>
              <path d="M-22.2-20.9H-13V-3.3H-1.8V-20.9H7.4V1.5A3.6,3.6,0,0,1,4.5,4.4H-19.1a3.6,3.6,0,0,1-3.1-2.9ZM-.9-2.3H-14V-20h-7.3V1.4a2.5,2.5,0,0,0,2.2,2.1H4.3A2.5,2.5,0,0,0,6.5,1.4V-20H-.9Z" fill="#fff"/>
              <path d="M39.2-13.2H26.6v9.9h6.1V4.4H20.4a3.6,3.6,0,0,1-3-2.8V-13.2H9.5v-7.7H39.2Zm-.9-.9V-20H10.5v5.9h7.8V1.4a2.6,2.6,0,0,0,2.3,2.1H31.8V-2.3H25.7V-14.1Z" fill="#fff"/>
              <path d="M44.2-20.9H70.9v7.7H50.4v1.1H67.9a1.9,1.9,0,0,1,1,.3,3.9,3.9,0,0,1,1,.8,3.6,3.6,0,0,1,.7,1,2.8,2.8,0,0,1,.3,1.3V1.7a3.5,3.5,0,0,1-2.8,2.7H41.3V-3.3H61.7V-4.4H44.4l-1.2-.2-1-.7a3.6,3.6,0,0,1-.7-1,3.6,3.6,0,0,1-.2-1.1V-18.3A3.4,3.4,0,0,1,42.4-20,3.1,3.1,0,0,1,44.2-20.9Zm5.4,9.8v-3H70V-20H44.4a2.7,2.7,0,0,0-2.2,1.9V-7.4a2.4,2.4,0,0,0,.6,1.5,2.5,2.5,0,0,0,1.6.6H62.6v3H42.2V3.5H67.9A2.7,2.7,0,0,0,70,1.6V-8.7a2.2,2.2,0,0,0-.7-1.7,1.9,1.9,0,0,0-1.4-.7Z" fill="#fff"/>
              <path d="M87.4-3.3h4.1l-3.1-7.9L82.2,4.4H71.8L82.4-20.9H94.2L105,4.4H84.5ZM85.8,3.5h17.8L93.6-20H83L73.1,3.5h8.4l6.9-17.3L92.8-2.3H88Z" fill="#fff"/>
              <path d="M114.8-3.3H131V4.4H108.8a3.5,3.5,0,0,1-3-2.8V-20.9h9ZM109,3.5h21.1V-2.3H113.9V-20h-7.2V1.4A2.6,2.6,0,0,0,109,3.5Z" fill="#fff"/>
              <path d="M142.1-3.3h16.1V4.4H136a3.5,3.5,0,0,1-3-2.8V-20.9h9.1Zm-5.9,6.8h21.1V-2.3H141.2V-20H134V1.4A2.4,2.4,0,0,0,136.2,3.5Z" fill="#fff"/>
            </g>
          </g>
        </g>
        <g>
          <path d="M12.4,79.5l-35,11V85.7l35-11.1Z" fill="none" stroke-miterlimit="10" stroke-width="0.28" stroke="url(#b7ecffab-c096-461a-b06a-d574b34214ff)"/>
          <path d="M12.4,70.4l-35,11V76.5l35-11Z" fill="none" stroke-miterlimit="10" stroke-width="0.28" stroke="url(#f932831a-0a62-4752-8383-b189bfb4b401)"/>
          <path d="M12.4,61.2l-35,11.1V67.4l35-11Z" fill="none" stroke-miterlimit="10" stroke-width="0.28" stroke="url(#fdb6025f-a21b-467d-a40a-d1b7551b1094)"/>
          <path d="M12.4,52.1l-35,11.1V58.3l35-11.1Z" fill="none" stroke-miterlimit="10" stroke-width="0.28" stroke="url(#fb31b4e7-d5bb-4d09-8deb-483fb02fb4c1)"/>
          <path d="M12.4,43l-35,11.1V49.2l35-11.1Z" fill="none" stroke-miterlimit="10" stroke-width="0.28" stroke="url(#eb9a4bc5-be2a-4af0-9645-c0b04f8bbf34)"/>
        </g>
        <g>
          <path d="M210.6,261.5l32.8-10.4v5l-32.8,10.4Z" fill="none" stroke-miterlimit="10" stroke-width="0.27" stroke="url(#a8d4b34a-df80-4fed-91fb-c55bfc8af338)"/>
          <path d="M210.6,270.5l32.8-10.3v5l-32.8,10.4Z" fill="none" stroke-miterlimit="10" stroke-width="0.27" stroke="url(#ad1c0227-a911-42c3-9e03-a0ffeb53373e)"/>
          <path d="M210.6,279.6l32.8-10.4v5.1l-32.8,10.4Z" fill="none" stroke-miterlimit="10" stroke-width="0.27" stroke="url(#a70da3b0-8b5e-4ccc-9c85-72ab8ce4e9ff)"/>
          <path d="M210.6,288.7l32.8-10.4v5.1l-32.8,10.3Z" fill="none" stroke-miterlimit="10" stroke-width="0.27" stroke="url(#a128cfc8-8fa6-484d-8878-317b3c68dd97)"/>
          <path d="M210.6,297.8l32.8-10.4v5l-32.8,10.4Z" fill="none" stroke-miterlimit="10" stroke-width="0.27" stroke="url(#a3d0cde9-9b75-453c-b031-3740788760f7)"/>
        </g>
      </g>
      <g>
        <polygon points="325.5 107 322.2 112.8 328.9 112.8 325.5 107" fill="url(#f921b90e-44b5-4a35-9f9a-3c0203d01132)"/>
        <polygon points="325.5 114.5 322.2 120.4 328.9 120.4 325.5 114.5" fill="url(#b63b6618-3810-4686-b735-b6b48f397364)"/>
        <polygon points="325.5 122 322.2 127.9 328.9 127.9 325.5 122" fill="url(#af9088f0-f083-45c5-86fb-50f3ab23dc20)"/>
      </g>
      <g>
        <polygon points="10.1 143 6.7 148.9 13.5 148.9 10.1 143" fill="url(#ba7f96f5-4f60-414a-b086-3a4bed630ea8)"/>
        <polygon points="10.1 150.5 6.7 156.4 13.5 156.4 10.1 150.5" fill="url(#ea028f3d-4267-40de-950f-d3a815eae6e3)"/>
      </g>
      <polygon points="240.8 80.5 237.4 86.4 244.2 86.4 240.8 80.5" fill="#fff"/>
      <g>
        <polygon points="182.7 187.8 179.3 193.6 186.1 193.6 182.7 187.8" fill="url(#e90c3424-b77e-4b26-bc6e-caacd99ac7bd)"/>
        <polygon points="182.7 195.3 179.3 201.2 186.1 201.2 182.7 195.3" fill="url(#bec1c1b1-b88f-4f7b-b07e-829574351453)"/>
      </g>
      <path d="M-41.4,286.3a.8.8,0,0,0-.7.7.7.7,0,0,0,.7.7.7.7,0,0,0,.7-.7A.8.8,0,0,0-41.4,286.3Zm6.9,0a.8.8,0,0,0-.7.7.7.7,0,0,0,.7.7.7.7,0,0,0,.6-.7C-33.9,286.7-34.2,286.3-34.5,286.3Zm6.8,0c-.3,0-.6.4-.6.7a.7.7,0,0,0,.6.7.7.7,0,0,0,.7-.7A.8.8,0,0,0-27.7,286.3Zm6.9,0a.8.8,0,0,0-.7.7.7.7,0,0,0,.7.7.7.7,0,0,0,.7-.7A.8.8,0,0,0-20.8,286.3Zm-20.6,6.9a.7.7,0,0,0-.7.7.7.7,0,0,0,.7.7.7.7,0,0,0,.7-.7A.7.7,0,0,0-41.4,293.2Zm6.9,0a.7.7,0,0,0-.7.7.7.7,0,0,0,.7.7.7.7,0,0,0,.6-.7A.7.7,0,0,0-34.5,293.2Zm6.8,0a.7.7,0,0,0-.6.7.7.7,0,0,0,.6.7.7.7,0,0,0,.7-.7A.7.7,0,0,0-27.7,293.2Zm6.9,0a.7.7,0,0,0-.7.7.7.7,0,0,0,.7.7.7.7,0,0,0,.7-.7A.7.7,0,0,0-20.8,293.2Zm-20.6,6.9a.7.7,0,0,0-.7.6.7.7,0,0,0,.7.7.7.7,0,0,0,.7-.7A.7.7,0,0,0-41.4,300.1Zm6.9,0a.7.7,0,0,0-.7.6.7.7,0,0,0,.7.7.7.7,0,0,0,.6-.7A.6.6,0,0,0-34.5,300.1Zm6.8,0a.6.6,0,0,0-.6.6.7.7,0,0,0,.6.7.7.7,0,0,0,.7-.7A.7.7,0,0,0-27.7,300.1Zm6.9,0a.7.7,0,0,0-.7.6.7.7,0,0,0,.7.7.7.7,0,0,0,.7-.7A.7.7,0,0,0-20.8,300.1Zm-20.6,6.8a.7.7,0,0,0-.7.7.7.7,0,0,0,.7.7.7.7,0,0,0,.7-.7A.7.7,0,0,0-41.4,306.9Zm6.9,0a.7.7,0,0,0-.7.7.7.7,0,0,0,.7.7.7.7,0,0,0,.6-.7A.7.7,0,0,0-34.5,306.9Zm6.8,0a.7.7,0,0,0-.6.7.7.7,0,0,0,.6.7.7.7,0,0,0,.7-.7A.7.7,0,0,0-27.7,306.9Zm6.9,0a.7.7,0,0,0-.7.7.7.7,0,0,0,.7.7.7.7,0,0,0,.7-.7A.7.7,0,0,0-20.8,306.9Zm-20.6,6.9a.7.7,0,0,0-.7.7.7.7,0,0,0,.7.6.7.7,0,0,0,.7-.6A.7.7,0,0,0-41.4,313.8Zm6.9,0a.7.7,0,0,0-.7.7.7.7,0,0,0,.7.6.6.6,0,0,0,.6-.6A.7.7,0,0,0-34.5,313.8Zm6.8,0a.7.7,0,0,0-.6.7.6.6,0,0,0,.6.6.7.7,0,0,0,.7-.6A.7.7,0,0,0-27.7,313.8Zm6.9,0a.7.7,0,0,0-.7.7.7.7,0,0,0,.7.6.7.7,0,0,0,.7-.6A.7.7,0,0,0-20.8,313.8Zm-20.6,6.8a.7.7,0,0,0-.7.7.7.7,0,0,0,.7.7.7.7,0,0,0,.7-.7A.7.7,0,0,0-41.4,320.6Zm6.9,0a.7.7,0,0,0-.7.7.7.7,0,0,0,.7.7.7.7,0,0,0,.6-.7A.7.7,0,0,0-34.5,320.6Zm6.8,0a.7.7,0,0,0-.6.7.7.7,0,0,0,.6.7.7.7,0,0,0,.7-.7A.7.7,0,0,0-27.7,320.6Zm6.9,0a.7.7,0,0,0-.7.7.7.7,0,0,0,.7.7.7.7,0,0,0,.7-.7A.7.7,0,0,0-20.8,320.6Zm6.8-34.3c-.3,0-.6.4-.6.7a.7.7,0,0,0,.6.7.7.7,0,0,0,.7-.7A.8.8,0,0,0-14,286.3Zm6.9,0a.8.8,0,0,0-.7.7.7.7,0,0,0,.7.7.7.7,0,0,0,.7-.7A.8.8,0,0,0-7.1,286.3Zm6.9,0a.8.8,0,0,0-.7.7.7.7,0,0,0,.7.7.7.7,0,0,0,.6-.7C.4,286.7.1,286.3-.2,286.3Zm6.8,1.4a.7.7,0,0,0,.7-.7.8.8,0,0,0-.7-.7.8.8,0,0,0-.7.7A.7.7,0,0,0,6.6,287.7ZM-14,293.2a.7.7,0,0,0-.6.7.7.7,0,0,0,.6.7.7.7,0,0,0,.7-.7A.7.7,0,0,0-14,293.2Zm6.9,0a.7.7,0,0,0-.7.7.7.7,0,0,0,.7.7.7.7,0,0,0,.7-.7A.7.7,0,0,0-7.1,293.2Zm6.9,0a.7.7,0,0,0-.7.7.7.7,0,0,0,.7.7.7.7,0,0,0,.6-.7A.7.7,0,0,0-.2,293.2Zm6.8,0a.7.7,0,1,0,.7.7A.7.7,0,0,0,6.6,293.2ZM-14,300.1a.6.6,0,0,0-.6.6.7.7,0,0,0,.6.7.7.7,0,0,0,.7-.7A.7.7,0,0,0-14,300.1Zm6.9,0a.7.7,0,0,0-.7.6.7.7,0,0,0,.7.7.7.7,0,0,0,.7-.7A.7.7,0,0,0-7.1,300.1Zm6.9,0a.7.7,0,0,0-.7.6.7.7,0,0,0,.7.7.7.7,0,0,0,.6-.7A.6.6,0,0,0-.2,300.1Zm6.8,0a.7.7,0,0,0-.7.6.7.7,0,0,0,1.4,0A.7.7,0,0,0,6.6,300.1ZM-14,306.9a.7.7,0,0,0-.6.7.7.7,0,0,0,.6.7.7.7,0,0,0,.7-.7A.7.7,0,0,0-14,306.9Zm6.9,0a.7.7,0,0,0-.7.7.7.7,0,0,0,.7.7.7.7,0,0,0,.7-.7A.7.7,0,0,0-7.1,306.9Zm6.9,0a.7.7,0,0,0-.7.7.7.7,0,0,0,.7.7.7.7,0,0,0,.6-.7A.7.7,0,0,0-.2,306.9Zm6.8,0a.7.7,0,1,0,.7.7A.7.7,0,0,0,6.6,306.9ZM-14,313.8a.7.7,0,0,0-.6.7.6.6,0,0,0,.6.6.7.7,0,0,0,.7-.6A.7.7,0,0,0-14,313.8Zm6.9,0a.7.7,0,0,0-.7.7.7.7,0,0,0,.7.6.7.7,0,0,0,.7-.6A.7.7,0,0,0-7.1,313.8Zm6.9,0a.7.7,0,0,0-.7.7.7.7,0,0,0,.7.6.6.6,0,0,0,.6-.6A.7.7,0,0,0-.2,313.8Zm6.8,0a.7.7,0,0,0-.7.7.7.7,0,0,0,.7.6.7.7,0,0,0,.7-.6A.7.7,0,0,0,6.6,313.8ZM-14,320.6a.7.7,0,0,0-.6.7.7.7,0,0,0,.6.7.7.7,0,0,0,.7-.7A.7.7,0,0,0-14,320.6Zm6.9,0a.7.7,0,0,0-.7.7.7.7,0,0,0,.7.7.7.7,0,0,0,.7-.7A.7.7,0,0,0-7.1,320.6Zm6.9,0a.7.7,0,0,0-.7.7.7.7,0,0,0,.7.7.7.7,0,0,0,.6-.7A.7.7,0,0,0-.2,320.6Zm6.8,0a.7.7,0,1,0,.7.7A.7.7,0,0,0,6.6,320.6Z" fill="#fff"/>
      <path d="M296.6,298a.7.7,0,0,0-.7.7.7.7,0,0,0,.7.6.6.6,0,0,0,.6-.6A.7.7,0,0,0,296.6,298Zm6.5,0a.7.7,0,0,0-.6.7.6.6,0,0,0,.6.6.7.7,0,0,0,.7-.6A.7.7,0,0,0,303.1,298Zm6.6,0a.7.7,0,0,0-.7.7.7.7,0,0,0,.7.6.6.6,0,0,0,.6-.6A.7.7,0,0,0,309.7,298Zm6.5,0a.7.7,0,0,0-.7.7.7.7,0,0,0,.7.6.6.6,0,0,0,.6-.6A.7.7,0,0,0,316.2,298Zm-19.6,6.6a.7.7,0,0,0-.7.6.7.7,0,0,0,.7.7.7.7,0,0,0,.6-.7A.6.6,0,0,0,296.6,304.6Zm6.5,0a.6.6,0,0,0-.6.6.7.7,0,0,0,.6.7.7.7,0,0,0,.7-.7A.7.7,0,0,0,303.1,304.6Zm6.6,0a.7.7,0,0,0-.7.6.7.7,0,0,0,.7.7.7.7,0,0,0,.6-.7A.6.6,0,0,0,309.7,304.6Zm6.5,0a.7.7,0,0,0-.7.6.7.7,0,0,0,.7.7.7.7,0,0,0,.6-.7A.6.6,0,0,0,316.2,304.6Zm-19.6,6.5a.7.7,0,0,0-.7.7.7.7,0,0,0,.7.6.6.6,0,0,0,.6-.6A.7.7,0,0,0,296.6,311.1Zm6.5,0a.7.7,0,0,0-.6.7.6.6,0,0,0,.6.6.7.7,0,0,0,.7-.6A.7.7,0,0,0,303.1,311.1Zm6.6,0a.7.7,0,0,0-.7.7.7.7,0,0,0,.7.6.6.6,0,0,0,.6-.6A.7.7,0,0,0,309.7,311.1Zm6.5,0a.7.7,0,0,0-.7.7.7.7,0,0,0,.7.6.6.6,0,0,0,.6-.6A.7.7,0,0,0,316.2,311.1Zm6.5-13.1a.7.7,0,0,0-.6.7.6.6,0,0,0,.6.6.7.7,0,0,0,.7-.6A.7.7,0,0,0,322.7,298Zm0,6.6a.6.6,0,0,0-.6.6.7.7,0,0,0,.6.7.7.7,0,0,0,.7-.7A.7.7,0,0,0,322.7,304.6Zm0,6.5a.7.7,0,0,0-.6.7.6.6,0,0,0,.6.6.7.7,0,0,0,.7-.6A.7.7,0,0,0,322.7,311.1Z" fill="#fff"/>
      <rect x="-17.5" y="316.5" width="119.9" height="19.58" transform="translate(118 6) rotate(20.7)" fill="#fff"/>
      <rect x="148.2" y="7.4" width="292.9" height="19.58" transform="translate(25.1 -103) rotate(20.7)" fill="#fff"/>
      <g>
        <polygon points="365.8 173.4 283 125.6 200.3 173.4 200.3 269 283 316.7 365.8 269 365.8 173.4" fill="url(#a0e5c433-0d0a-407b-9871-e5f269f57402)"/>
        <polygon points="363.7 174.6 283 128 202.4 174.6 202.4 267.7 283 314.3 363.7 267.7 363.7 174.6" fill="#fff"/>
        <g>
          <g>
            <line x1="314.3" y1="304.4" x2="347.5" y2="285.1" fill="none" stroke-linecap="round" stroke-linejoin="round" stroke-width="1.24" stroke-dasharray="4.98" stroke="url(#b46ec956-1b53-4719-b618-2e189eac7973)"/>
            <polyline points="224.3 288.8 282.8 322.6 306.8 308.7" fill="none" stroke-linecap="round" stroke-linejoin="round" stroke-width="2.49" stroke="url(#fbdac96b-3e95-445f-8182-4a2838d95b6a)"/>
            <line x1="195.4" y1="214.1" x2="195.4" y2="243.1" fill="none" stroke-linecap="round" stroke-linejoin="round" stroke-width="1.24" stroke-dasharray="4.98" stroke="url(#e346f757-733c-4624-8cf2-71de48159dd5)"/>
            <polyline points="210.7 161.8 195.5 170.6 195.4 202.5" fill="none" stroke-linecap="round" stroke-linejoin="round" stroke-width="2.49" stroke="url(#f483a11d-00c0-4add-8155-8292d97d957a)"/>
          </g>
          <g>
            <line x1="257.5" y1="134.7" x2="220" y2="156.4" fill="none" stroke-linecap="round" stroke-linejoin="round" stroke-width="1.24" stroke-dasharray="4.98" stroke="url(#b54a7c6c-fcd4-4683-97da-8cc7ffae0d72)"/>
            <polyline points="328.5 145.9 283.3 119.7 264.1 130.9" fill="none" stroke-linecap="round" stroke-linejoin="round" stroke-width="2.49" stroke="url(#fa105fe2-f992-4b3d-ac46-bd96d54a1e24)"/>
          </g>
        </g>
        <circle cx="350.5" cy="178.2" r="32.3" fill="url(#fdd68cc5-fa83-4b76-8f32-fb3f35386373)"/>
        <circle cx="205.4" cy="265.9" r="10.6" transform="translate(-89.8 105.5) rotate(-23.8)" fill="#f4a11e"/>
      </g>
    </g>
    <g>
      <g>
        <path d="M36.2,18.4a1.2,1.2,0,0,1-.4.8l-3.7,3.7-3.9-2.3V18.4a1.1,1.1,0,0,1,1.1-1.2,1.2,1.2,0,0,1,1.2,1.2h0v2.8l3.7-3.7a1.2,1.2,0,0,1,1.6,0,1.3,1.3,0,0,1,.4.9" fill="#fff"/>
        <path d="M35,29.1h-.5l-.3-.3-3.7-3.6v2.8a1.2,1.2,0,0,1-1.2,1.2,1.2,1.2,0,0,1-1.1-1.2V25.7l3.9-2.3,3.7,3.7a1.2,1.2,0,0,1-.8,2" fill="#fff"/>
        <path d="M31.9,23a.1.1,0,0,0-.1-.1h0l-1-.6-2.6-1.5-2.3-1.3a.2.2,0,0,0-.4.1h0v6.8a.3.3,0,0,0,.3.3h.1l2.3-1.3,3.6-2.2h.1C32,23.1,32,23.1,31.9,23Zm-.8.2a.1.1,0,0,0-.1.1l-2.9,1.6-1.7,1c-.1.1-.3.1-.3,0h0V20.5a.2.2,0,0,1,.2-.2h.1l1.7,1L31,22.9c0,.1.1.2.1.3Z" fill="#fff"/>
        <path d="M30.3,23.2c-.1,0-.1,0-.1.1L28,24.5l-1.3.7c0,.1-.1.1-.2,0h0v-4c0-.1.1-.1.2-.1h0l1.4.8L30.2,23h.1" fill="#fff"/>
      </g>
      <g>
        <path d="M55.4,23c0-.1,0-.1-.1-.2l-3.2-1.6-2-1c-.2-.1-.4,0-.4.2v5.4c0,.2.2.3.3.2l2-1.1,3.2-1.7h.1C55.5,23.1,55.5,23,55.4,23Zm-.7.1h-.1l-2.5,1.3-1.6.8c-.1.1-.2,0-.2-.1V21a.2.2,0,0,1,.2-.2h.1l1.5.8,2.6,1.3a.1.1,0,0,0,.1.1Z" fill="#fff"/>
        <path d="M54,23.1h-.1l-1.9,1-1.1.6c-.1,0-.2,0-.2-.1h-.1V21.5c0-.1.1-.1.2-.1h0L52,22l1.9.9c0,.1,0,.1.1.1h0" fill="#fff"/>
        <path d="M38.5,20.3h2.9a1.9,1.9,0,0,1,2.3,1.8c.1,1.2-.9,2-2.3,2H39.9v1.8H38.6ZM41.2,23c.7,0,1.2-.4,1.2-.8s-.5-.8-1.2-.8H39.9V23Z" fill="#fff"/>
        <path d="M49.1,24.9V26H44.6V20.4h1.4v4.5Z" fill="#fff"/>
        <path d="M56.9,23.8l-2.5-3.5H56l1.6,2.5,1.6-2.5h1.5l-2.4,3.6v2H56.9Z" fill="#fff"/>
        <path d="M61.6,20.5h.7v3.2l3.2-3.2h.9l-2.6,2.6,2.8,3h-.9l-2.4-2.6-1,1v1.7h-.7Z" fill="#fff"/>
        <path d="M67,23.3a3,3,0,0,1,3.2-2.9,3,3,0,0,1,3.2,2.8,3,3,0,0,1-3.1,3A3.1,3.1,0,0,1,67,23.3Zm5.7-.1a2.5,2.5,0,0,0-5,.1,2.5,2.5,0,0,0,2.6,2.3,2.4,2.4,0,0,0,2.4-2.4Z" fill="#fff"/>
        <path d="M74.4,25.3l.4-.5a2.9,2.9,0,0,0,2.1.8c.9,0,1.4-.5,1.4-1s-.6-.8-1.7-1S74.5,23,74.5,22s.9-1.6,2.1-1.6a2.9,2.9,0,0,1,2.2.7l-.4.5a2.9,2.9,0,0,0-1.8-.7c-.8,0-1.3.5-1.3,1s.6.8,1.7,1,2,.6,2,1.6-.7,1.7-2.2,1.7A3.2,3.2,0,0,1,74.4,25.3Z" fill="#fff"/>
        <path d="M80.4,20.5h.7l2.3,3.9,2.3-3.9h.7v5.6h-.7V21.9l-2.3,3.9-2.4-3.9v4.3h-.7Z" fill="#fff"/>
        <path d="M87.8,23.3a3.3,3.3,0,0,1,6.5-.1,3.2,3.2,0,0,1-3.2,3A3.1,3.1,0,0,1,87.8,23.3Zm5.7-.1A2.4,2.4,0,0,0,91,20.9a2.6,2.6,0,0,0-2.5,2.4,2.6,2.6,0,0,0,2.6,2.3,2.4,2.4,0,0,0,2.4-2.4Z" fill="#fff"/>
        <path d="M95.2,25.3l.4-.5a3,3,0,0,0,2.1.8c1,0,1.5-.5,1.4-1s-.6-.8-1.7-1-2-.6-2-1.6.8-1.6,2-1.6a3.2,3.2,0,0,1,2.3.7l-.5.5a2.9,2.9,0,0,0-1.8-.7c-.8,0-1.3.5-1.3,1s.6.8,1.7,1,2.1.6,2.1,1.6-.8,1.7-2.2,1.7A3.3,3.3,0,0,1,95.2,25.3Z" fill="#fff"/>
      </g>
    </g>
    <g>
      <rect x="18.1" y="92.5" width="112.6" height="14.58" rx="1.7" fill="url(#e120e3c8-a852-4ab5-bd4b-584e9adb5298)"/>
      <rect x="140.6" y="92.5" width="112.6" height="14.58" rx="1.7" fill="url(#f42c5d64-7a34-4fa0-85c7-42c325e4dcce)"/>
    </g>
    <path d="M95.5,284.1a1.3,1.3,0,0,0-1.2-1.3h-75a1.3,1.3,0,0,0-1.2,1.3v9.1a1.3,1.3,0,0,0,1.2,1.4h75a1.3,1.3,0,0,0,1.2-1.4Z" fill="url(#bde5e105-dacc-4cc8-8347-fda413e2d1e9)"/>
    <g>
      <path d="M24.5,158.2l-1.9-2.1a1.3,1.3,0,0,0-1.8,0L19,158.2a3.9,3.9,0,0,0-.9,2.3v4.4a1.3,1.3,0,0,0,1.3,1.3h4.7a1.3,1.3,0,0,0,1.3-1.3v-4.4A3.9,3.9,0,0,0,24.5,158.2Zm-2.7,1.1a1.4,1.4,0,0,1-1.4-1.4,1.3,1.3,0,0,1,1.4-1.3,1.4,1.4,0,0,1,1.4,1.3A1.4,1.4,0,0,1,21.8,159.3Z" fill="#fdb515"/>
      <rect x="23" y="153.1" width="0.5" height="5.22" rx="0.2" transform="translate(69.2 5.1) rotate(25.5)" fill="#fdb515"/>
    </g>
    <path d="M22.5,195.2a.9.9,0,0,0,.7-.3,1,1,0,0,0,.4-.8,1.2,1.2,0,0,0-1.1-1.1,1,1,0,0,0-1.1,1.1,1.3,1.3,0,0,0,.3.8A1.1,1.1,0,0,0,22.5,195.2Zm0,5.4a15,15,0,0,1-3.3-3.5,5.3,5.3,0,0,1-1.1-2.9,4.3,4.3,0,0,1,1.3-3.2,4.2,4.2,0,0,1,3.1-1.3,4.1,4.1,0,0,1,3,1.3,3.9,3.9,0,0,1,1.3,3.2,4.6,4.6,0,0,1-1.1,2.9A16.7,16.7,0,0,1,22.5,200.6Z" fill="#fdb515"/>
    <rect x="40.4" y="304.2" width="129.9" height="1.16" fill="url(#b4558856-e20d-4ddd-9608-322b4b7ca6b2)"/>
    <g>
      <path d="M293,79.5c-5.1,0-10.2.3-15.3-.4v-.3a43.6,43.6,0,0,1,7.2-.5,8.7,8.7,0,0,0-3.4-1.2c-1.6,0-3.1.1-4.7,0a47.1,47.1,0,0,1-9.2-1,2.8,2.8,0,0,1-1.2-.4c-.5-.3-.5-.6,0-.8a3.4,3.4,0,0,1,1.4-.5,45.2,45.2,0,0,1,6.3-.8h3.1c-.1-.3-.4-.3-.5-.4-7.3-3.8-11-9.8-10.8-18a17.3,17.3,0,0,1,4.6-11.4,18.9,18.9,0,0,1,25-3.2,18.9,18.9,0,0,1,4.7,26.4c-.4.6-.4.6.2.7l2.1.6a2.5,2.5,0,0,0,2.2-.4,5.7,5.7,0,0,1,1.8-1.2c1.2-.6,2.4-.2,3.6-.1h.5a4.8,4.8,0,0,1,3.4,1.6c.2.3.3.3.5.1a3.8,3.8,0,0,0,.9-1.8,2.1,2.1,0,0,1,.7-1.3,1.7,1.7,0,0,1,1.3-.5,15.2,15.2,0,0,1,2.1.3c.7.2,1.1.8,1.6,1.3a.6.6,0,0,1,.1.4,5,5,0,0,0,.3,2.4,1.4,1.4,0,0,1,.2.6c-.1,1.8.7,3.5.9,5.2s.1,3.9-1,5.7a6.2,6.2,0,0,0-1.3,2.1,3.1,3.1,0,0,1-1,1.5,28.1,28.1,0,0,1-5.3,4.5l-3.4,2.1-3,1.5a45.4,45.4,0,0,1-8.9,3.4,21.5,21.5,0,0,1-9.1.3,7,7,0,0,1-3.6-1.9,2.6,2.6,0,0,1-.6-3.2c.2-.5.3-.8-.2-1.1a1.1,1.1,0,0,1-.3-.8,6.6,6.6,0,0,1,1.3-4.5,2.3,2.3,0,0,1,.8-.9,17.8,17.8,0,0,1,3.3-2.3,1,1,0,0,0,.5-.4,2.7,2.7,0,0,1,1.2-.6C292.4,80.2,292.6,79.8,293,79.5ZM278.6,43.6h-.4a3.3,3.3,0,0,0-3,1.3,35,35,0,0,0-3.3,4.3.8.8,0,0,0-.2.8,34.8,34.8,0,0,0,2.1,6.2c.2.3.4.5.7.5a58.3,58.3,0,0,0,5.9.3,1.5,1.5,0,0,0,1.4-.6,57.9,57.9,0,0,0,4.3-5.5.8.8,0,0,0,.1-1q-1.1-2.5-2.4-5.1a.9.9,0,0,0-.6-.6A17.6,17.6,0,0,0,278.6,43.6Zm22.6,27.2-2.1.5a9,9,0,0,1-4.9-.2l-3.7-1.9a8.1,8.1,0,0,0-2.9-1.2,16.5,16.5,0,0,0-7,.9,3,3,0,0,0-1.1.7,4.2,4.2,0,0,0,.8,6,21.9,21.9,0,0,0,6,2.8,11.6,11.6,0,0,0,3.7.7,18.4,18.4,0,0,0,4.1-.6,2.4,2.4,0,0,0,1.6-.7c.2-.2.4-.1.7-.2a1.4,1.4,0,0,0,1.2-1,.8.8,0,0,1,.8-.6c.5-.1.7-.4.6-1a1.3,1.3,0,0,1,.4-.9c.1-.1.3-.1.3-.3a3.1,3.1,0,0,1,1-1.5,14.7,14.7,0,0,0,1-1.3c-.2-.1-.3,0-.5.1a16,16,0,0,1-5.3.9,3.7,3.7,0,0,1-2-.7c-.1,0-.3-.1-.2-.2C296.3,72.3,298.7,71.5,301.2,70.8Zm-22.3-1.2a.7.7,0,0,0,.5-.3,3.6,3.6,0,0,1,1.5-.8l2.5-.5a1,1,0,0,0,.8-.6,19.7,19.7,0,0,0,1.6-3.7,1,1,0,0,0-.2-.9,64,64,0,0,1-4-5.1,1.3,1.3,0,0,0-1-.4l-6-.4a.8.8,0,0,0-.8.4,35.9,35.9,0,0,0-2.4,5.3.8.8,0,0,0,0,.7,32.2,32.2,0,0,0,4.1,5.6l.7.4ZM298,49c0-.1,0-.2-.1-.2a24.1,24.1,0,0,0-2-5.3,2.9,2.9,0,0,0-1.4-1.3,26.9,26.9,0,0,0-6.1-1.9.9.9,0,0,0-.7.3,28.2,28.2,0,0,0-3.6,3.3.6.6,0,0,0,0,.8,52.2,52.2,0,0,1,2.4,5.4l.5.5a59.6,59.6,0,0,0,5.8,2.5,1.2,1.2,0,0,0,1-.2,43.2,43.2,0,0,0,3.9-3.4A.5.5,0,0,0,298,49Zm4.4,7.1a26.5,26.5,0,0,0-.2-2.7,1.1,1.1,0,0,0-.2-.8,12.1,12.1,0,0,0-3.4-3c-.3-.2-.5-.2-.7.1a31.7,31.7,0,0,1-3.9,3.4.7.7,0,0,0-.4.8,21.5,21.5,0,0,1,0,6.2,1.1,1.1,0,0,0,.5,1.2l3.6,3a.6.6,0,0,0,.9.1,14.8,14.8,0,0,0,2.6-2.4,4.8,4.8,0,0,0,1-2.3C302.3,58.5,302.4,57.4,302.4,56.1ZM284.3,67.8l1.4-.2h3.6c2.3.2,4.6,0,6.9,0,.3,0,.6,0,.7-.4l.9-1.9c.1-.3.1-.5-.2-.7l-3.9-3.3a.8.8,0,0,0-.8-.1,27.2,27.2,0,0,1-5.5,1.8c-.9.1-1.4.4-1.6,1.3A17.6,17.6,0,0,1,284.3,67.8ZM303,70.1a.6.6,0,0,0,.5-.3l1.8-1.9a1.1,1.1,0,0,1,.8-.3,33.5,33.5,0,0,1,5.4,1.6q.3,0,0,.3a28.9,28.9,0,0,0-3.5,4.2.4.4,0,0,0,0,.7,6.9,6.9,0,0,1,1.7,1.7,1,1,0,0,0,.9.4,3.5,3.5,0,0,0,3.3-2.5,31,31,0,0,0,.8-4.2.7.7,0,0,0-.1-.5c-1.1-1.2-2.2-2.5-4-2.5a24,24,0,0,0-2.8-.3C305.6,66.8,304.2,68.3,303,70.1ZM266.9,50.7c.1.3.1.6.2.9s.2.4.4.2c1.7-.9,3.6-1.5,4.6-3.4a24.8,24.8,0,0,1,3.6-4.4,1.5,1.5,0,0,0,.3-.7,8.3,8.3,0,0,1,.3-2.7c0-.2.1-.3-.1-.4s-.8-.4-1.2-.1l-1.7,1.2a19.1,19.1,0,0,0-6,8.1A6.5,6.5,0,0,0,266.9,50.7Zm9,21.2a14.8,14.8,0,0,1-.1-2.1.9.9,0,0,0-.3-.7,23.5,23.5,0,0,1-4.2-5.6,1.2,1.2,0,0,0-.6-.6,19.4,19.4,0,0,1-2.9-2.1c-.2-.1-.4-.5-.6-.4s-.3.6-.3,1,.1.3.1.5a14.9,14.9,0,0,0,1.7,3.6,18.2,18.2,0,0,0,6.8,6.7C275.8,72.4,276,72.4,275.9,71.9Zm35.8,16.6a8.7,8.7,0,0,0-1.1.9,16.7,16.7,0,0,1-7.5,2.2,46.7,46.7,0,0,1-11.2-.4c-2.3-.5-4.6-.8-6.5-2.4-.2-.2-.3,0-.3.1a1.5,1.5,0,0,0,.4.9,10,10,0,0,0,4.1,2.1,50.5,50.5,0,0,0,6.8.6,38.7,38.7,0,0,0,6.8-.3,18.2,18.2,0,0,0,6.1-1.5A6.4,6.4,0,0,0,311.7,88.5ZM297.3,42.3a17.8,17.8,0,0,0-13-4.8l.7.4a11.6,11.6,0,0,1,2.7,1.8,2,2,0,0,0,.9.5,23.8,23.8,0,0,1,6.4,2,1.5,1.5,0,0,0,1.3.2Zm5.4,9.1a7.1,7.1,0,0,0-.2,2.1,27.1,27.1,0,0,1,0,5.7,6,6,0,0,0-.1,3A18.1,18.1,0,0,0,302.7,51.4Zm-35.9,9.2a4.3,4.3,0,0,1,.1-.5v-.3a36.6,36.6,0,0,1,0-7.4,2.2,2.2,0,0,0-.2-1.1A17.3,17.3,0,0,0,266.8,60.6Zm52.6,11.9a2.3,2.3,0,0,1,1.2.6c.3.2.4,0,.5-.2a4.9,4.9,0,0,0,.4-2.4c-.1-1.3-.7-2.6-.6-4-.1.8,0,1.6-.1,2.4A4.3,4.3,0,0,1,319.4,72.5ZM275.7,39.7a1.4,1.4,0,0,0,1.4.1,29,29,0,0,1,6.4-2.4A18.5,18.5,0,0,0,275.7,39.7Zm39.8,44.7,5-3a2,2,0,0,0,.8-1,12.4,12.4,0,0,1-3.9,2.5A5.5,5.5,0,0,0,315.5,84.4Z" fill="url(#f361d90d-fb82-437f-a66a-ca0a8efbd502)"/>
      <path d="M291.7,77.5a1.1,1.1,0,0,1,1.1-1.1,1.1,1.1,0,0,1,1,1.1,1.1,1.1,0,0,1-1.1,1.1A1.1,1.1,0,0,1,291.7,77.5Z" fill="url(#bdccaad1-30ad-462c-937a-c9d8c9f5fd1b)"/>
      <path d="M289.5,71.2c0-.7.4-1.2.9-1.2a1.1,1.1,0,0,1,1,1.2,1.3,1.3,0,0,1-1,1.2C289.9,72.4,289.5,71.8,289.5,71.2Z" fill="url(#aef5f6cc-9d9d-4af1-9d0d-3606c9bf290e)"/>
      <path d="M286.3,76.7a1.2,1.2,0,0,1-1,1.2c-.3-.1-.9-.7-.9-1s.5-1.4,1-1.4S286.3,76.1,286.3,76.7Z" fill="url(#a6bac8ff-cb43-4ac0-9832-ab816f445020)"/>
      <path d="M286,68.7a1.1,1.1,0,0,1,1,1.1,1,1,0,0,1-.9,1.1c-.5.1-1-.5-1-1.1A1,1,0,0,1,286,68.7Z" fill="url(#b80aeec1-fd7a-4ae2-a2a4-2ae0ca9ca90f)"/>
      <path d="M286.8,73.8c0-.7.4-1.1.9-1.1s.9.5.9,1.2a.9.9,0,0,1-.9,1C287.1,74.9,286.8,74.4,286.8,73.8Z" fill="url(#b897acb6-c8a1-4b2e-9d86-aa01bd38cdb2)"/>
      <path d="M288.8,78.7a1,1,0,0,1-.8-1,.9.9,0,0,1,.8-1.1,1,1,0,0,1,.9,1.1A1,1,0,0,1,288.8,78.7Z" fill="url(#e44ab5d8-29c6-473e-a94e-4b19a8632d29)"/>
      <path d="M283,75.2a1,1,0,0,1-.7,1.1,1,1,0,0,1-.9-1c0-.6.4-1.1.8-1.1S283,74.6,283,75.2Z" fill="url(#b6b188ae-55dc-42bb-9ae1-71b4717365a4)"/>
      <path d="M283.1,70.3a1.1,1.1,0,0,1-.9,1c-.4,0-.8-.6-.8-1.1a1,1,0,0,1,.9-.9A.9.9,0,0,1,283.1,70.3Z" fill="url(#b13c70a7-2a46-442a-b51a-5e7e3caa69c8)"/>
    </g>
    <g>
      <path d="M197.4,317.6a81.6,81.6,0,0,1-14-.4V317c2.2-.4,4.4-.3,6.6-.5a8.6,8.6,0,0,0-3.2-1h-4.2a61.1,61.1,0,0,1-8.5-.8l-1-.4c-.5-.3-.5-.6-.1-.8l1.3-.5a57.3,57.3,0,0,1,5.8-.7h2.8c-.1-.2-.3-.2-.4-.3-6.7-3.5-10.1-9-9.9-16.5a16.3,16.3,0,0,1,4.2-10.4,16.6,16.6,0,0,1,14.1-5.9,16.3,16.3,0,0,1,8.8,3,17.2,17.2,0,0,1,4.2,24.2c-.3.5-.3.5.3.6l1.9.5a1.9,1.9,0,0,0,1.9-.4,6.2,6.2,0,0,1,1.7-1.1,5.3,5.3,0,0,1,3.3,0h.5a4.4,4.4,0,0,1,3,1.5c.2.2.3.2.5.1a3.7,3.7,0,0,0,.9-1.6,2.2,2.2,0,0,1,.5-1.2,2.1,2.1,0,0,1,1.2-.5,13.8,13.8,0,0,1,2,.3c.7.1,1,.7,1.5,1.1v.4a7.8,7.8,0,0,0,.3,2.2,1.4,1.4,0,0,1,.2.6c-.1,1.6.7,3.1.8,4.7a8.5,8.5,0,0,1-.9,5.2,7.2,7.2,0,0,0-1.1,1.9,4.9,4.9,0,0,1-1,1.5,23.8,23.8,0,0,1-4.9,4,30.5,30.5,0,0,1-3,1.9,24.9,24.9,0,0,1-2.8,1.5,39.5,39.5,0,0,1-8.1,3,17.9,17.9,0,0,1-8.3.3,6.6,6.6,0,0,1-3.4-1.8,2.4,2.4,0,0,1-.5-2.9c.2-.4.3-.7-.1-1s-.3-.4-.3-.7a6,6,0,0,1,1.1-4.1l.8-.9a19.6,19.6,0,0,1,3-2,1,1,0,0,0,.5-.4,3.3,3.3,0,0,1,1-.6C196.8,318.3,197,317.9,197.4,317.6Zm-13.2-32.8h-.4a2.9,2.9,0,0,0-2.7,1.2,36.8,36.8,0,0,0-3,3.9.7.7,0,0,0-.2.7,27.5,27.5,0,0,0,2,5.7c.1.3.3.4.6.5,1.8.1,3.6.3,5.4.3a1.4,1.4,0,0,0,1.2-.6,48.7,48.7,0,0,0,4-5,1,1,0,0,0,.1-.9c-.7-1.6-1.4-3.2-2.2-4.7s-.3-.4-.6-.5A15.2,15.2,0,0,0,184.2,284.8Zm20.7,24.8-2,.5a7.4,7.4,0,0,1-4.4-.2l-3.4-1.7a7,7,0,0,0-2.7-1.1,15.6,15.6,0,0,0-6.4.9,2.1,2.1,0,0,0-1,.6,3.9,3.9,0,0,0,.8,5.5,18.9,18.9,0,0,0,5.4,2.5,20.5,20.5,0,0,0,3.4.7,15.9,15.9,0,0,0,3.8-.6,2,2,0,0,0,1.5-.6c.1-.2.3-.1.6-.2a1.3,1.3,0,0,0,1.1-.9.7.7,0,0,1,.7-.6c.5-.1.6-.4.6-.9a.7.7,0,0,1,.4-.8c.1-.1.2-.1.2-.3a2.6,2.6,0,0,1,.9-1.4l1-1.1h-.5a13.7,13.7,0,0,1-4.9.9,4.8,4.8,0,0,1-1.8-.6c-.1-.1-.2-.1-.1-.3C200.4,311.1,202.6,310.4,204.9,309.6Zm-20.4-1,.5-.3a4,4,0,0,1,1.3-.7l2.3-.5a1,1,0,0,0,.8-.6,32.7,32.7,0,0,0,1.4-3.3,1,1,0,0,0-.2-.9,57.2,57.2,0,0,1-3.7-4.6.8.8,0,0,0-.8-.4,52.5,52.5,0,0,1-5.6-.3c-.3-.1-.5,0-.7.3a30.6,30.6,0,0,0-2.2,4.9.5.5,0,0,0,.1.6,20.8,20.8,0,0,0,3.7,5.1l.7.4Zm17.4-18.8v-.3a46.8,46.8,0,0,0-1.8-4.8,2.8,2.8,0,0,0-1.4-1.2,26,26,0,0,0-5.6-1.7l-.6.2c-1.1,1-2.2,2-3.2,3.1a.6.6,0,0,0-.1.7c.8,1.6,1.6,3.3,2.3,4.9a1,1,0,0,0,.4.5l5.3,2.3a1,1,0,0,0,.9-.2,36.5,36.5,0,0,0,3.6-3.1C201.8,290.1,202,290,201.9,289.8Zm4,6.4a9.9,9.9,0,0,0-.1-2.4,1.1,1.1,0,0,0-.2-.8,11.4,11.4,0,0,0-3.1-2.7.5.5,0,0,0-.6.1c-1.2,1.1-2.4,2.2-3.6,3.1a.6.6,0,0,0-.3.8,20.9,20.9,0,0,1-.1,5.6,1.2,1.2,0,0,0,.5,1.1l3.3,2.8a.6.6,0,0,0,.8,0,12.6,12.6,0,0,0,2.4-2.2,4,4,0,0,0,.9-2.1A17.6,17.6,0,0,0,205.9,296.2Zm-16.4,10.7c.5,0,.8-.2,1.2-.1s2.2-.1,3.3,0h6.3a.8.8,0,0,0,.7-.4,14.2,14.2,0,0,1,.8-1.8c.1-.2,0-.4-.2-.6l-3.5-3a.8.8,0,0,0-.8-.1,21.6,21.6,0,0,1-5.1,1.6c-.8.2-1.2.4-1.4,1.3A25.8,25.8,0,0,1,189.5,306.9Zm17,2.1a.5.5,0,0,0,.5-.3l1.6-1.6a.7.7,0,0,1,.8-.3,21.1,21.1,0,0,1,4.9,1.4c.1,0,.2.1,0,.3a29.2,29.2,0,0,0-3.2,3.8c-.2.2-.3.4,0,.6a7.5,7.5,0,0,1,1.5,1.6,1,1,0,0,0,.9.4,3.3,3.3,0,0,0,3-2.3,22.6,22.6,0,0,0,.7-3.9.6.6,0,0,0-.1-.4c-1-1.1-1.9-2.3-3.7-2.2s-1.6-.5-2.5-.4S207.6,307.4,206.5,309Zm-33-17.7c.1.3.1.5.2.8s.2.4.4.2,3.3-1.3,4.2-3.1a24.4,24.4,0,0,1,3.2-4,.9.9,0,0,0,.3-.6,10.1,10.1,0,0,1,.3-2.5c0-.2.1-.3-.1-.4s-.7-.4-1.1-.1a9.1,9.1,0,0,1-1.6,1.1,16.9,16.9,0,0,0-5.4,7.5A3.6,3.6,0,0,0,173.5,291.3Zm8.2,19.4a12.1,12.1,0,0,1-.1-1.9.9.9,0,0,0-.3-.7,24.2,24.2,0,0,1-3.8-5.1,1.3,1.3,0,0,0-.5-.6,15.9,15.9,0,0,1-2.7-1.8c-.2-.2-.3-.5-.5-.4s-.3.6-.3.9a4.3,4.3,0,0,1,.1.5,18.7,18.7,0,0,0,1.5,3.2,17.5,17.5,0,0,0,6.2,6.2C181.7,311.1,181.8,311.1,181.7,310.7Zm32.8,15.2-1.1.8a16.2,16.2,0,0,1-6.8,2,44.7,44.7,0,0,1-10.3-.4c-2-.4-4.2-.7-5.9-2.2s-.2,0-.2.2.1.5.3.7a7.7,7.7,0,0,0,3.7,1.9,33.6,33.6,0,0,0,6.3.6,42.8,42.8,0,0,0,6.2-.2,21.9,21.9,0,0,0,5.6-1.4A8.5,8.5,0,0,0,214.5,325.9Zm-13.2-42.3a16.8,16.8,0,0,0-11.9-4.4l.6.4a10.7,10.7,0,0,1,2.5,1.6,1.6,1.6,0,0,0,.9.5,23,23,0,0,1,5.8,1.8,1.4,1.4,0,0,0,1.2.3Zm5,8.3a10.8,10.8,0,0,0-.3,1.9,18.1,18.1,0,0,1,0,5.2,6.6,6.6,0,0,0-.1,2.8A16.7,16.7,0,0,0,206.3,291.9Zm-32.9,8.4c0-.1.1-.3.1-.4v-.3a38.6,38.6,0,0,1,0-6.8,1.5,1.5,0,0,0-.2-.9A16,16,0,0,0,173.4,300.3Zm48.1,10.9a2,2,0,0,1,1.1.6c.2.2.4,0,.4-.2a5.4,5.4,0,0,0,.5-2.2c-.1-1.2-.7-2.3-.6-3.6a14.8,14.8,0,0,0-.1,2.1A3.9,3.9,0,0,1,221.5,311.2Zm-39.9-30a.9.9,0,0,0,1.2.1,24.4,24.4,0,0,1,5.9-2.1A16.5,16.5,0,0,0,181.6,281.2Zm36.3,40.9,4.6-2.7a1.8,1.8,0,0,0,.8-.9,12,12,0,0,1-3.6,2.2A6.2,6.2,0,0,0,217.9,322.1Z" fill="url(#a3f7add1-7eb6-43e7-8999-8430601da795)"/>
      <path d="M196.2,315.8a.9.9,0,0,1,1-1,1,1,0,0,1,.9,1,1.1,1.1,0,0,1-1,1A.9.9,0,0,1,196.2,315.8Z" fill="url(#bbee8578-3e9d-4bbb-bcd3-29781b627b61)"/>
      <path d="M194.1,310a.9.9,0,1,1,1.8,0,1,1,0,0,1-.9,1.1C194.6,311.1,194.2,310.6,194.1,310Z" fill="url(#ffdc4537-d56b-4b6f-82b6-3188e486fe1a)"/>
      <path d="M191.2,315.1a.9.9,0,0,1-.8,1,1.1,1.1,0,0,1-.9-.9,1.2,1.2,0,0,1,1-1.2C190.9,314,191.2,314.5,191.2,315.1Z" fill="url(#e4a05f66-f05a-4472-9ce7-85a07534f25a)"/>
      <path d="M191,307.7a1,1,0,0,1,.9,1c0,.6-.4,1.1-.8,1.1a1,1,0,0,1-.9-1A1.1,1.1,0,0,1,191,307.7Z" fill="url(#f145629e-62b2-4f0c-887d-582f281de07a)"/>
      <path d="M191.7,312.4a.9.9,0,0,1,.8-1,.9.9,0,0,1,.8,1.1,1,1,0,0,1-.8,1A1,1,0,0,1,191.7,312.4Z" fill="url(#b8e43303-ea12-4d8f-9313-efae9c48d1b5)"/>
      <path d="M193.6,316.9a.8.8,0,0,1-.8-.9c0-.6.3-1,.8-1a.9.9,0,0,1,.8,1A.9.9,0,0,1,193.6,316.9Z" fill="url(#a16b0b4d-67dd-4580-8fd9-38c291911bd7)"/>
      <path d="M188.3,313.7c0,.5-.3,1-.7,1a1,1,0,0,1-.8-.9c0-.6.4-1.1.7-1.1A1,1,0,0,1,188.3,313.7Z" fill="url(#ba7510a4-a3de-412d-ac06-e24cf08458a8)"/>
      <path d="M188.3,309.2a.8.8,0,0,1-.8.9.9.9,0,0,1-.7-1,.9.9,0,0,1,.8-.8A.8.8,0,0,1,188.3,309.2Z" fill="url(#bfad9efe-0f14-4064-b25d-0519cd4f18f1)"/>
    </g>
  </g>
</svg>
