<svg id="b368b06b-a07d-4d06-8578-ed1d5bf4c982" data-name="Layer 1" xmlns="http://www.w3.org/2000/svg" xmlns:xlink="http://www.w3.org/1999/xlink" width="335" height="335" viewBox="0 0 335 335">
  <defs>
    <clipPath id="b1393ecd-4dc0-49f1-b9fd-f9e5d4d13b64">
      <rect width="335" height="335" fill="none"/>
    </clipPath>
    <clipPath id="e289a1a0-6b76-4a0e-bf25-d2a0d11846a3">
      <rect x="197.3" y="124.4" width="137.7" height="210.62" fill="none"/>
    </clipPath>
    <linearGradient id="bdf1c342-3170-4af4-a830-40c5daddd2fb" x1="224.95" y1="288.01" x2="282.97" y2="288.01" gradientUnits="userSpaceOnUse">
      <stop offset="0" stop-color="#fff"/>
      <stop offset="1" stop-color="#ccc"/>
    </linearGradient>
    <linearGradient id="a43ea180-2cd8-437e-96ba-c8d8b5df77e6" x1="244.14" y1="296.04" x2="296.65" y2="296.04" xlink:href="#bdf1c342-3170-4af4-a830-40c5daddd2fb"/>
    <linearGradient id="e6c0be7d-8a0c-42a9-ab1f-54cd65f76d61" x1="224.21" y1="312.46" x2="243.2" y2="312.46" xlink:href="#bdf1c342-3170-4af4-a830-40c5daddd2fb"/>
    <linearGradient id="ebf8765b-0e2b-45bc-ae3e-8992d4450520" x1="262.88" y1="308.18" x2="273.81" y2="308.18" xlink:href="#bdf1c342-3170-4af4-a830-40c5daddd2fb"/>
    <linearGradient id="b48c4a63-f24d-4374-88a7-287345f1712a" x1="275.92" y1="293.13" x2="291.23" y2="293.13" xlink:href="#bdf1c342-3170-4af4-a830-40c5daddd2fb"/>
  </defs>
  <g>
    <g clip-path="url(#b1393ecd-4dc0-49f1-b9fd-f9e5d4d13b64)">
      <g clip-path="url(#b1393ecd-4dc0-49f1-b9fd-f9e5d4d13b64)">
        <rect width="335" height="335" fill="#10151e"/>
        <circle cx="167.5" cy="167.5" r="167.5" fill="#10151e"/>
        <circle cx="167.5" cy="167.5" r="165.2" fill="#0f151f"/>
        <circle cx="167.5" cy="167.5" r="162.8" fill="#0f1520"/>
        <circle cx="167.5" cy="167.5" r="160.5" fill="#111521"/>
        <circle cx="167.5" cy="167.5" r="158.2" fill="#101422"/>
        <circle cx="167.5" cy="167.5" r="155.9" fill="#101523"/>
        <circle cx="167.5" cy="167.5" r="153.5" fill="#101524"/>
        <circle cx="167.5" cy="167.5" r="151.2" fill="#101424"/>
        <circle cx="167.5" cy="167.5" r="148.9" fill="#111526"/>
        <circle cx="167.5" cy="167.5" r="146.6" fill="#101526"/>
        <circle cx="167.5" cy="167.5" r="144.2" fill="#111527"/>
        <circle cx="167.5" cy="167.5" r="141.9" fill="#111428"/>
        <circle cx="167.5" cy="167.5" r="139.6" fill="#111529"/>
        <circle cx="167.5" cy="167.5" r="137.3" fill="#10152a"/>
        <circle cx="167.5" cy="167.5" r="134.9" fill="#10152b"/>
        <circle cx="167.5" cy="167.5" r="132.6" fill="#10152c"/>
        <circle cx="167.5" cy="167.5" r="130.3" fill="#10142d"/>
        <circle cx="167.5" cy="167.5" r="128" fill="#10142e"/>
        <circle cx="167.5" cy="167.5" r="125.6" fill="#11142f"/>
        <circle cx="167.5" cy="167.5" r="123.3" fill="#111430"/>
        <circle cx="167.5" cy="167.5" r="121" fill="#111431"/>
        <circle cx="167.5" cy="167.5" r="118.6" fill="#111432"/>
        <circle cx="167.5" cy="167.5" r="116.3" fill="#111333"/>
        <circle cx="167.5" cy="167.5" r="114" fill="#121434"/>
        <circle cx="167.5" cy="167.5" r="111.7" fill="#121435"/>
        <circle cx="167.5" cy="167.5" r="109.3" fill="#121436"/>
        <circle cx="167.5" cy="167.5" r="107" fill="#121437"/>
        <circle cx="167.5" cy="167.5" r="104.7" fill="#121438"/>
        <circle cx="167.5" cy="167.5" r="102.4" fill="#121439"/>
        <circle cx="167.5" cy="167.5" r="100" fill="#12143a"/>
        <circle cx="167.5" cy="167.5" r="97.7" fill="#12143b"/>
        <circle cx="167.5" cy="167.5" r="95.4" fill="#12143c"/>
        <circle cx="167.5" cy="167.5" r="93.1" fill="#12143d"/>
        <circle cx="167.5" cy="167.5" r="90.7" fill="#13143e"/>
        <circle cx="167.5" cy="167.5" r="88.4" fill="#14143f"/>
        <circle cx="167.5" cy="167.5" r="86.1" fill="#16133f"/>
        <circle cx="167.5" cy="167.5" r="83.7" fill="#161441"/>
        <circle cx="167.5" cy="167.5" r="81.4" fill="#161442"/>
        <circle cx="167.5" cy="167.5" r="79.1" fill="#161542"/>
        <circle cx="167.5" cy="167.5" r="76.8" fill="#161543"/>
        <circle cx="167.5" cy="167.5" r="74.4" fill="#171545"/>
        <circle cx="167.5" cy="167.5" r="72.1" fill="#181545"/>
        <circle cx="167.5" cy="167.5" r="69.8" fill="#181546"/>
        <circle cx="167.5" cy="167.5" r="67.5" fill="#191547"/>
        <circle cx="167.5" cy="167.5" r="65.1" fill="#1a1448"/>
        <circle cx="167.5" cy="167.5" r="62.8" fill="#1b1549"/>
        <circle cx="167.5" cy="167.5" r="60.5" fill="#1b154a"/>
        <circle cx="167.5" cy="167.5" r="58.2" fill="#1c164b"/>
        <circle cx="167.5" cy="167.5" r="55.8" fill="#1c174c"/>
        <circle cx="167.5" cy="167.5" r="53.5" fill="#1d184d"/>
        <circle cx="167.5" cy="167.5" r="51.2" fill="#1d184e"/>
        <circle cx="167.5" cy="167.5" r="48.9" fill="#1e194f"/>
        <circle cx="167.5" cy="167.5" r="46.5" fill="#1e1950"/>
        <circle cx="167.5" cy="167.5" r="44.2" fill="#1f1a51"/>
        <circle cx="167.5" cy="167.5" r="41.9" fill="#201a52"/>
        <circle cx="167.5" cy="167.5" r="39.5" fill="#201b53"/>
        <circle cx="167.5" cy="167.5" r="37.2" fill="#201b53"/>
        <circle cx="167.5" cy="167.5" r="34.9" fill="#211c55"/>
        <circle cx="167.5" cy="167.5" r="32.6" fill="#211c55"/>
        <circle cx="167.5" cy="167.5" r="30.2" fill="#221d56"/>
        <circle cx="167.5" cy="167.5" r="27.9" fill="#221e57"/>
        <circle cx="167.5" cy="167.5" r="25.6" fill="#231e59"/>
        <circle cx="167.5" cy="167.5" r="23.3" fill="#231f59"/>
        <circle cx="167.5" cy="167.5" r="20.9" fill="#241f5a"/>
        <circle cx="167.5" cy="167.5" r="18.6" fill="#24205b"/>
        <circle cx="167.5" cy="167.5" r="16.3" fill="#25205c"/>
        <circle cx="167.5" cy="167.5" r="14" fill="#25215c"/>
        <circle cx="167.5" cy="167.5" r="11.6" fill="#25215d"/>
        <circle cx="167.5" cy="167.5" r="9.3" fill="#26215e"/>
        <circle cx="167.5" cy="167.5" r="7" fill="#26225f"/>
        <circle cx="167.5" cy="167.5" r="4.7" fill="#262260"/>
        <circle cx="167.5" cy="167.5" r="2.3" fill="#272361"/>
      </g>
      <g opacity="0.03">
        <g>
          <g>
            <path d="M179.8,330.6h25.3v7.7H176.8v-4.7A3.7,3.7,0,0,1,179.8,330.6Zm6.1,25.3h-9.1V339.4h23.9v7.7H185.9Zm-8.2-22.2v3.6h26.5v-5.8H179.9A2.8,2.8,0,0,0,177.7,333.7ZM185,355v-8.9h14.8v-5.8H177.7V355Z" fill="#fff"/>
            <path d="M207.2,330.6h9.2v17.6h11.2V330.6h9.2V353a3.6,3.6,0,0,1-2.9,2.9H210.3a3.5,3.5,0,0,1-3.1-2.9Zm21.3,18.5H215.4V331.5h-7.3v21.4a2.8,2.8,0,0,0,2.2,2.1h23.4a2.5,2.5,0,0,0,2.2-2.1V331.5h-7.4Z" fill="#fff"/>
            <path d="M268.6,338.3H256v9.9h6.1v7.7H249.8a3.6,3.6,0,0,1-3-2.9V338.3h-7.9v-7.7h29.7Zm-.9-1v-5.8H239.9v5.8h7.8v15.6A2.6,2.6,0,0,0,250,355h11.2v-5.9h-6.1V337.3Z" fill="#fff"/>
            <path d="M273.6,330.6h26.7v7.7H279.8v1.1h17.5a1.9,1.9,0,0,1,1,.3l1,.7a4.1,4.1,0,0,1,.7,1.1,2.8,2.8,0,0,1,.3,1.3v10.4a3.8,3.8,0,0,1-2.8,2.7H270.7v-7.7h20.4v-1.1H273.8a2.7,2.7,0,0,1-1.2-.3,3.3,3.3,0,0,1-1-.6,2.7,2.7,0,0,1-.9-2.1V333.2a4.2,4.2,0,0,1,1.1-1.8A3.7,3.7,0,0,1,273.6,330.6Zm5.4,9.7v-3h20.4v-5.8H273.8a2.7,2.7,0,0,0-2.2,1.9v10.7a2,2,0,0,0,.6,1.4,2.1,2.1,0,0,0,1.6.7H292v2.9H271.6V355h25.7a2.7,2.7,0,0,0,2.1-1.9V342.8a2.2,2.2,0,0,0-.7-1.7,2.1,2.1,0,0,0-1.4-.8Z" fill="#fff"/>
            <path d="M316.8,348.2h4.1l-3.1-8-6.2,15.7H301.2l10.6-25.3h11.8l10.8,25.3H313.9Zm-1.6,6.8H333l-10-23.5H312.4L302.5,355h8.4l6.9-17.3,4.4,11.4h-4.8Z" fill="#fff"/>
          </g>
          <g>
            <path d="M179.8,286.6h25.3v7.7H176.8v-4.6A4,4,0,0,1,179.8,286.6Zm6.1,25.4h-9.1V295.5h23.9v7.6H185.9Zm-8.2-22.3v3.7h26.5v-5.8H179.9A2.7,2.7,0,0,0,177.7,289.7Zm7.3,21.4v-8.9h14.8v-5.8H177.7v14.7Z" fill="#fff"/>
            <path d="M207.2,286.6h9.2v17.7h11.2V286.6h9.2V309a3.6,3.6,0,0,1-2.9,3H210.3a3.7,3.7,0,0,1-3.1-3Zm21.3,18.6H215.4V287.6h-7.3V309a2.8,2.8,0,0,0,2.2,2.1h23.4a2.5,2.5,0,0,0,2.2-2.1V287.6h-7.4Z" fill="#fff"/>
            <path d="M268.6,294.3H256v10h6.1V312H249.8a3.7,3.7,0,0,1-3-2.9V294.3h-7.9v-7.7h29.7Zm-.9-.9v-5.8H239.9v5.8h7.8V309a2.6,2.6,0,0,0,2.3,2.1h11.2v-5.9h-6.1V293.4Z" fill="#fff"/>
            <path d="M273.6,286.6h26.7v7.7H279.8v1.2h17.5a1.9,1.9,0,0,1,1,.3l1,.7a4.1,4.1,0,0,1,.7,1.1,2.7,2.7,0,0,1,.3,1.2v10.5a3.8,3.8,0,0,1-2.8,2.7H270.7v-7.7h20.4v-1.1H273.8a2.7,2.7,0,0,1-1.2-.3l-1-.7a3.1,3.1,0,0,1-.7-.9,5,5,0,0,1-.2-1.2V289.3a3.3,3.3,0,0,1,1.1-1.8A5.1,5.1,0,0,1,273.6,286.6Zm5.4,9.8v-3h20.4v-5.8H273.8a2.6,2.6,0,0,0-2.2,1.9v10.6a2,2,0,0,0,.6,1.5,2.6,2.6,0,0,0,1.6.7H292v2.9H271.6v5.9h25.7a2.8,2.8,0,0,0,2.1-2V298.8a2.3,2.3,0,0,0-.7-1.7,1.9,1.9,0,0,0-1.4-.7Z" fill="#fff"/>
            <path d="M316.8,304.3h4.1l-3.1-8L311.6,312H301.2l10.6-25.4h11.8L334.4,312H313.9Zm-1.6,6.8H333l-10-23.5H312.4l-9.9,23.5h8.4l6.9-17.3,4.4,11.4h-4.8Z" fill="#fff"/>
          </g>
          <g>
            <path d="M179.8,242.7h25.3v7.7H176.8v-4.7A4,4,0,0,1,179.8,242.7Zm6.1,25.3h-9.1V251.6h23.9v7.6H185.9Zm-8.2-22.2v3.7h26.5v-5.9H179.9A2.9,2.9,0,0,0,177.7,245.8Zm7.3,21.3v-8.8h14.8v-5.8H177.7v14.6Z" fill="#fff"/>
            <path d="M207.2,242.7h9.2v17.7h11.2V242.7h9.2v22.4a3.5,3.5,0,0,1-2.9,2.9H210.3a3.5,3.5,0,0,1-3.1-2.9Zm21.3,18.6H215.4V243.6h-7.3V265a2.5,2.5,0,0,0,2.2,2.1h23.4a2.5,2.5,0,0,0,2.2-2.1V243.6h-7.4Z" fill="#fff"/>
            <path d="M268.6,250.4H256v10h6.1V268H249.8a3.5,3.5,0,0,1-3-2.8V250.4h-7.9v-7.7h29.7Zm-.9-.9v-5.9H239.9v5.9h7.8V265a2.6,2.6,0,0,0,2.3,2.1h11.2v-5.8h-6.1V249.5Z" fill="#fff"/>
            <path d="M273.6,242.7h26.7v7.7H279.8v1.2h17.5a1.8,1.8,0,0,1,1,.2,3.9,3.9,0,0,1,1,.8,3.6,3.6,0,0,1,.7,1,3.1,3.1,0,0,1,.3,1.3v10.4a3.5,3.5,0,0,1-2.8,2.7H270.7v-7.6h20.4v-1.2H273.8l-1.2-.2-1-.7a2.7,2.7,0,0,1-.9-2.1V245.4a3.3,3.3,0,0,1,1.1-1.8A3.8,3.8,0,0,1,273.6,242.7Zm5.4,9.8v-3h20.4v-5.9H273.8a2.9,2.9,0,0,0-2.2,1.9v10.7a2.4,2.4,0,0,0,.6,1.5,2.5,2.5,0,0,0,1.6.6H292v3H271.6v5.8h25.7a2.7,2.7,0,0,0,2.1-1.9V254.9a2.3,2.3,0,0,0-.7-1.7,1.9,1.9,0,0,0-1.4-.7Z" fill="#fff"/>
            <path d="M316.8,260.4h4.1l-3.1-8L311.6,268H301.2l10.6-25.3h11.8L334.4,268H313.9Zm-1.6,6.7H333l-10-23.5H312.4l-9.9,23.5h8.4l6.9-17.3,4.4,11.5h-4.8Z" fill="#fff"/>
          </g>
          <g>
            <path d="M179.8,198.8h25.3v7.6H176.8v-4.6A3.7,3.7,0,0,1,179.8,198.8Zm6.1,25.3h-9.1V207.6h23.9v7.7H185.9Zm-8.2-22.2v3.6h26.5v-5.8H179.9A2.8,2.8,0,0,0,177.7,201.9Zm7.3,21.3v-8.9h14.8v-5.8H177.7v14.7Z" fill="#fff"/>
            <path d="M207.2,198.8h9.2v17.6h11.2V198.8h9.2v22.3a3.6,3.6,0,0,1-2.9,3H210.3a3.5,3.5,0,0,1-3.1-3Zm21.3,18.5H215.4V199.7h-7.3v21.4a2.8,2.8,0,0,0,2.2,2.1h23.4a2.5,2.5,0,0,0,2.2-2.1V199.7h-7.4Z" fill="#fff"/>
            <path d="M268.6,206.4H256v10h6.1v7.7H249.8a3.6,3.6,0,0,1-3-2.9V206.4h-7.9v-7.6h29.7Zm-.9-.9v-5.8H239.9v5.8h7.8v15.6a2.6,2.6,0,0,0,2.3,2.1h11.2v-5.9h-6.1V205.5Z" fill="#fff"/>
            <path d="M273.6,198.8h26.7v7.6H279.8v1.2h17.5a1.9,1.9,0,0,1,1,.3l1,.7a4.1,4.1,0,0,1,.7,1.1,2.8,2.8,0,0,1,.3,1.3v10.4a3.8,3.8,0,0,1-2.8,2.7H270.7v-7.7h20.4v-1.1H273.8a2.7,2.7,0,0,1-1.2-.3,3.3,3.3,0,0,1-1-.6,3.6,3.6,0,0,1-.7-1,4.3,4.3,0,0,1-.2-1.1V201.4a4.2,4.2,0,0,1,1.1-1.8A3.7,3.7,0,0,1,273.6,198.8Zm5.4,9.7v-3h20.4v-5.8H273.8a2.7,2.7,0,0,0-2.2,1.9v10.7a2,2,0,0,0,.6,1.4,2.1,2.1,0,0,0,1.6.7H292v2.9H271.6v5.9h25.7a2.7,2.7,0,0,0,2.1-1.9V211a2.2,2.2,0,0,0-.7-1.7,2.1,2.1,0,0,0-1.4-.8Z" fill="#fff"/>
            <path d="M316.8,216.4h4.1l-3.1-8-6.2,15.7H301.2l10.6-25.3h11.8l10.8,25.3H313.9Zm-1.6,6.8H333l-10-23.5H312.4l-9.9,23.5h8.4l6.9-17.3,4.4,11.4h-4.8Z" fill="#fff"/>
          </g>
          <g>
            <path d="M179.8,154.8h25.3v7.7H176.8v-4.6A4,4,0,0,1,179.8,154.8Zm6.1,25.4h-9.1V163.7h23.9v7.6H185.9Zm-8.2-22.3v3.7h26.5v-5.9H179.9A2.9,2.9,0,0,0,177.7,157.9Zm7.3,21.4v-8.9h14.8v-5.8H177.7v14.7Z" fill="#fff"/>
            <path d="M207.2,154.8h9.2v17.7h11.2V154.8h9.2v22.4a3.6,3.6,0,0,1-2.9,3H210.3a3.7,3.7,0,0,1-3.1-3Zm21.3,18.6H215.4V155.7h-7.3v21.5a2.8,2.8,0,0,0,2.2,2.1h23.4a2.7,2.7,0,0,0,2.2-2.1V155.7h-7.4Z" fill="#fff"/>
            <path d="M268.6,162.5H256v10h6.1v7.7H249.8a3.7,3.7,0,0,1-3-2.9V162.5h-7.9v-7.7h29.7Zm-.9-.9v-5.9H239.9v5.9h7.8v15.6a2.7,2.7,0,0,0,2.3,2.1h11.2v-5.9h-6.1V161.6Z" fill="#fff"/>
            <path d="M273.6,154.8h26.7v7.7H279.8v1.2h17.5a1.9,1.9,0,0,1,1,.3l1,.7a4.1,4.1,0,0,1,.7,1.1,2.7,2.7,0,0,1,.3,1.2v10.5a3.8,3.8,0,0,1-2.8,2.7H270.7v-7.7h20.4v-1.1H273.8a2.7,2.7,0,0,1-1.2-.3l-1-.7a3.1,3.1,0,0,1-.7-.9,5,5,0,0,1-.2-1.2V157.5a3.3,3.3,0,0,1,1.1-1.8A5.1,5.1,0,0,1,273.6,154.8Zm5.4,9.8v-3h20.4v-5.9H273.8a2.8,2.8,0,0,0-2.2,2v10.6a2,2,0,0,0,.6,1.5,2.5,2.5,0,0,0,1.6.6H292v3H271.6v5.9h25.7a2.8,2.8,0,0,0,2.1-2V167a2.3,2.3,0,0,0-.7-1.7,1.9,1.9,0,0,0-1.4-.7Z" fill="#fff"/>
            <path d="M316.8,172.5h4.1l-3.1-8-6.2,15.7H301.2l10.6-25.4h11.8l10.8,25.4H313.9Zm-1.6,6.8H333l-10-23.6H312.4l-9.9,23.6h8.4l6.9-17.4,4.4,11.5h-4.8Z" fill="#fff"/>
          </g>
          <g>
            <path d="M179.8,110.9h25.3v7.7H176.8v-4.7A3.9,3.9,0,0,1,179.8,110.9Zm6.1,25.3h-9.1V119.7h23.9v7.7H185.9ZM177.7,114v3.7h26.5v-5.9H179.9A2.9,2.9,0,0,0,177.7,114Zm7.3,21.3v-8.8h14.8v-5.8H177.7v14.6Z" fill="#fff"/>
            <path d="M207.2,110.9h9.2v17.7h11.2V110.9h9.2v22.4a3.5,3.5,0,0,1-2.9,2.9H210.3a3.5,3.5,0,0,1-3.1-2.9Zm21.3,18.6H215.4V111.8h-7.3v21.4a2.5,2.5,0,0,0,2.2,2.1h23.4a2.5,2.5,0,0,0,2.2-2.1V111.8h-7.4Z" fill="#fff"/>
            <path d="M268.6,118.6H256v10h6.1v7.6H249.8a3.5,3.5,0,0,1-3-2.8V118.6h-7.9v-7.7h29.7Zm-.9-.9v-5.9H239.9v5.9h7.8v15.5a2.6,2.6,0,0,0,2.3,2.1h11.2v-5.8h-6.1V117.7Z" fill="#fff"/>
            <path d="M273.6,110.9h26.7v7.7H279.8v1.1h17.5a1.9,1.9,0,0,1,1,.3,3.9,3.9,0,0,1,1,.8,3.6,3.6,0,0,1,.7,1,3.1,3.1,0,0,1,.3,1.3v10.4a3.5,3.5,0,0,1-2.8,2.7H270.7v-7.6h20.4v-1.2H273.8l-1.2-.2-1-.7a2.7,2.7,0,0,1-.9-2.1V113.5a3.4,3.4,0,0,1,1.1-1.7A3.1,3.1,0,0,1,273.6,110.9Zm5.4,9.8v-3h20.4v-5.9H273.8a2.7,2.7,0,0,0-2.2,1.9v10.7a2.4,2.4,0,0,0,.6,1.5,2.5,2.5,0,0,0,1.6.6H292v3H271.6v5.8h25.7a2.7,2.7,0,0,0,2.1-1.9V123.1a2.3,2.3,0,0,0-.7-1.7,1.9,1.9,0,0,0-1.4-.7Z" fill="#fff"/>
            <path d="M316.8,128.6h4.1l-3.1-8-6.2,15.6H301.2l10.6-25.3h11.8l10.8,25.3H313.9Zm-1.6,6.7H333l-10-23.5H312.4l-9.9,23.5h8.4l6.9-17.3,4.4,11.5h-4.8Z" fill="#fff"/>
          </g>
          <g>
            <path d="M179.8,67h25.3v7.6H176.8V70A3.7,3.7,0,0,1,179.8,67Zm6.1,25.3h-9.1V75.8h23.9v7.6H185.9ZM177.7,70v3.7h26.5V67.9H179.9A2.8,2.8,0,0,0,177.7,70ZM185,91.4V82.5h14.8V76.7H177.7V91.4Z" fill="#fff"/>
            <path d="M207.2,67h9.2V84.6h11.2V67h9.2V89.3a3.6,3.6,0,0,1-2.9,3H210.3a3.6,3.6,0,0,1-3.1-3Zm21.3,18.5H215.4V67.9h-7.3V89.3a2.8,2.8,0,0,0,2.2,2.1h23.4a2.5,2.5,0,0,0,2.2-2.1V67.9h-7.4Z" fill="#fff"/>
            <path d="M268.6,74.6H256v10h6.1v7.7H249.8a3.6,3.6,0,0,1-3-2.9V74.6h-7.9V67h29.7Zm-.9-.9V67.9H239.9v5.8h7.8V89.3a2.6,2.6,0,0,0,2.3,2.1h11.2V85.5h-6.1V73.7Z" fill="#fff"/>
            <path d="M273.6,67h26.7v7.6H279.8v1.2h17.5a1.9,1.9,0,0,1,1,.3l1,.7a4.1,4.1,0,0,1,.7,1.1,2.8,2.8,0,0,1,.3,1.3V89.6a3.8,3.8,0,0,1-2.8,2.7H270.7V84.6h20.4V83.5H273.8a2.7,2.7,0,0,1-1.2-.3,3.3,3.3,0,0,1-1-.6,3.6,3.6,0,0,1-.7-1,4.3,4.3,0,0,1-.2-1.1V69.6a4.2,4.2,0,0,1,1.1-1.8A3.7,3.7,0,0,1,273.6,67Zm5.4,9.7v-3h20.4V67.9H273.8a2.6,2.6,0,0,0-2.2,1.9V80.5a2,2,0,0,0,.6,1.4,2.1,2.1,0,0,0,1.6.7H292v2.9H271.6v5.9h25.7a2.7,2.7,0,0,0,2.1-1.9V79.2a2.2,2.2,0,0,0-.7-1.7,2.1,2.1,0,0,0-1.4-.8Z" fill="#fff"/>
            <path d="M316.8,84.6h4.1l-3.1-8-6.2,15.7H301.2L311.8,67h11.8l10.8,25.3H313.9Zm-1.6,6.8H333L323,67.9H312.4l-9.9,23.5h8.4l6.9-17.3,4.4,11.4h-4.8Z" fill="#fff"/>
          </g>
          <g>
            <path d="M179.8,23h25.3v7.7H176.8V26.1A4,4,0,0,1,179.8,23Zm6.1,25.4h-9.1V31.9h23.9v7.6H185.9Zm-8.2-22.3v3.7h26.5V23.9H179.9A2.9,2.9,0,0,0,177.7,26.1ZM185,47.4V38.6h14.8V32.8H177.7V47.4Z" fill="#fff"/>
            <path d="M207.2,23h9.2V40.7h11.2V23h9.2V45.4a3.6,3.6,0,0,1-2.9,3H210.3a3.7,3.7,0,0,1-3.1-3Zm21.3,18.6H215.4V23.9h-7.3V45.4a2.6,2.6,0,0,0,2.2,2h23.4a2.4,2.4,0,0,0,2.2-2V23.9h-7.4Z" fill="#fff"/>
            <path d="M268.6,30.7H256v10h6.1v7.7H249.8a3.7,3.7,0,0,1-3-2.9V30.7h-7.9V23h29.7Zm-.9-.9V23.9H239.9v5.9h7.8V45.4a2.5,2.5,0,0,0,2.3,2h11.2V41.6h-6.1V29.8Z" fill="#fff"/>
            <path d="M273.6,23h26.7v7.7H279.8v1.2h17.5a1.9,1.9,0,0,1,1,.3,2.3,2.3,0,0,1,1,.7A4.1,4.1,0,0,1,300,34a2.7,2.7,0,0,1,.3,1.2V45.7a3.8,3.8,0,0,1-2.8,2.7H270.7V40.7h20.4V39.6H273.8a2.7,2.7,0,0,1-1.2-.3l-1-.7-.7-.9a5,5,0,0,1-.2-1.2V25.7a3.3,3.3,0,0,1,1.1-1.8A5.1,5.1,0,0,1,273.6,23Zm5.4,9.8v-3h20.4V23.9H273.8a2.8,2.8,0,0,0-2.2,2V36.5a2,2,0,0,0,.6,1.5,2.5,2.5,0,0,0,1.6.6H292v3H271.6v5.8h25.7a2.5,2.5,0,0,0,2.1-1.9V35.2a2.3,2.3,0,0,0-.7-1.7,1.9,1.9,0,0,0-1.4-.7Z" fill="#fff"/>
            <path d="M316.8,40.7h4.1l-3.1-8-6.2,15.7H301.2L311.8,23h11.8l10.8,25.4H313.9Zm-1.6,6.7H333L323,23.9H312.4l-9.9,23.5h8.4l6.9-17.3,4.4,11.5h-4.8Z" fill="#fff"/>
          </g>
          <g>
            <path d="M179.8-20.9h25.3v7.7H176.8v-4.7A3.9,3.9,0,0,1,179.8-20.9Zm6.1,25.3h-9.1V-12.1h23.9v7.7H185.9Zm-8.2-22.2v3.7h26.5V-20H179.9A2.9,2.9,0,0,0,177.7-17.8ZM185,3.5V-5.3h14.8v-5.8H177.7V3.5Z" fill="#fff"/>
            <path d="M207.2-20.9h9.2V-3.3h11.2V-20.9h9.2V1.5a3.6,3.6,0,0,1-2.9,2.9H210.3a3.5,3.5,0,0,1-3.1-2.9ZM228.5-2.3H215.4V-20h-7.3V1.4a2.5,2.5,0,0,0,2.2,2.1h23.4a2.5,2.5,0,0,0,2.2-2.1V-20h-7.4Z" fill="#fff"/>
            <path d="M268.6-13.2H256v9.9h6.1V4.4H249.8a3.6,3.6,0,0,1-3-2.8V-13.2h-7.9v-7.7h29.7Zm-.9-.9V-20H239.9v5.9h7.8V1.4A2.6,2.6,0,0,0,250,3.5h11.2V-2.3h-6.1V-14.1Z" fill="#fff"/>
            <path d="M273.6-20.9h26.7v7.7H279.8v1.1h17.5a1.9,1.9,0,0,1,1,.3,3.9,3.9,0,0,1,1,.8,3.6,3.6,0,0,1,.7,1,2.8,2.8,0,0,1,.3,1.3V1.7a3.5,3.5,0,0,1-2.8,2.7H270.7V-3.3h20.4V-4.4H273.8l-1.2-.2-1-.7a3.6,3.6,0,0,1-.7-1,3.6,3.6,0,0,1-.2-1.1V-18.3a3.4,3.4,0,0,1,1.1-1.7A3.1,3.1,0,0,1,273.6-20.9Zm5.4,9.8v-3h20.4V-20H273.8a2.7,2.7,0,0,0-2.2,1.9V-7.4a2.4,2.4,0,0,0,.6,1.5,2.5,2.5,0,0,0,1.6.6H292v3H271.6V3.5h25.7a2.7,2.7,0,0,0,2.1-1.9V-8.7a2.2,2.2,0,0,0-.7-1.7,1.9,1.9,0,0,0-1.4-.7Z" fill="#fff"/>
            <path d="M316.8-3.3h4.1l-3.1-7.9L311.6,4.4H301.2l10.6-25.3h11.8L334.4,4.4H313.9Zm-1.6,6.8H333L323-20H312.4L302.5,3.5h8.4l6.9-17.3,4.4,11.5h-4.8Z" fill="#fff"/>
          </g>
        </g>
        <g>
          <g>
            <path d="M-22.2,330.6H-13v17.6H-1.8V330.6H7.4V353a3.6,3.6,0,0,1-2.9,2.9H-19.1a3.6,3.6,0,0,1-3.1-2.9ZM-.9,349.1H-14V331.5h-7.3v21.4a2.8,2.8,0,0,0,2.2,2.1H4.3a2.5,2.5,0,0,0,2.2-2.1V331.5H-.9Z" fill="#fff"/>
            <path d="M39.2,338.3H26.6v9.9h6.1v7.7H20.4a3.6,3.6,0,0,1-3-2.9V338.3H9.5v-7.7H39.2Zm-.9-1v-5.8H10.5v5.8h7.8v15.6a2.6,2.6,0,0,0,2.3,2.1H31.8v-5.9H25.7V337.3Z" fill="#fff"/>
            <path d="M44.2,330.6H70.9v7.7H50.4v1.1H67.9a1.9,1.9,0,0,1,1,.3l1,.7a4.1,4.1,0,0,1,.7,1.1,2.8,2.8,0,0,1,.3,1.3v10.4a3.8,3.8,0,0,1-2.8,2.7H41.3v-7.7H61.7v-1.1H44.4a2.7,2.7,0,0,1-1.2-.3,3.3,3.3,0,0,1-1-.6,2.7,2.7,0,0,1-.9-2.1V333.2a4.2,4.2,0,0,1,1.1-1.8A3.7,3.7,0,0,1,44.2,330.6Zm5.4,9.7v-3H70v-5.8H44.4a2.7,2.7,0,0,0-2.2,1.9v10.7a2,2,0,0,0,.6,1.4,2.1,2.1,0,0,0,1.6.7H62.6v2.9H42.2V355H67.9a2.7,2.7,0,0,0,2.1-1.9V342.8a2.2,2.2,0,0,0-.7-1.7,2.1,2.1,0,0,0-1.4-.8Z" fill="#fff"/>
            <path d="M87.4,348.2h4.1l-3.1-8-6.2,15.7H71.8l10.6-25.3H94.2L105,355.9H84.5ZM85.8,355h17.8l-10-23.5H83L73.1,355h8.4l6.9-17.3,4.4,11.4H88Z" fill="#fff"/>
            <path d="M114.8,348.2H131v7.7H108.8a3.5,3.5,0,0,1-3-2.9V330.6h9ZM109,355h21.1v-5.9H113.9V331.5h-7.2v21.4A2.6,2.6,0,0,0,109,355Z" fill="#fff"/>
            <path d="M142.1,348.2h16.1v7.7H136a3.5,3.5,0,0,1-3-2.9V330.6h9.1Zm-5.9,6.8h21.1v-5.9H141.2V331.5H134v21.4A2.4,2.4,0,0,0,136.2,355Z" fill="#fff"/>
          </g>
          <g>
            <path d="M-22.2,286.6H-13v17.7H-1.8V286.6H7.4V309a3.6,3.6,0,0,1-2.9,3H-19.1a3.8,3.8,0,0,1-3.1-3ZM-.9,305.2H-14V287.6h-7.3V309a2.8,2.8,0,0,0,2.2,2.1H4.3A2.5,2.5,0,0,0,6.5,309V287.6H-.9Z" fill="#fff"/>
            <path d="M39.2,294.3H26.6v10h6.1V312H20.4a3.7,3.7,0,0,1-3-2.9V294.3H9.5v-7.7H39.2Zm-.9-.9v-5.8H10.5v5.8h7.8V309a2.6,2.6,0,0,0,2.3,2.1H31.8v-5.9H25.7V293.4Z" fill="#fff"/>
            <path d="M44.2,286.6H70.9v7.7H50.4v1.2H67.9a1.9,1.9,0,0,1,1,.3l1,.7a4.1,4.1,0,0,1,.7,1.1,2.7,2.7,0,0,1,.3,1.2v10.5a3.8,3.8,0,0,1-2.8,2.7H41.3v-7.7H61.7v-1.1H44.4a2.7,2.7,0,0,1-1.2-.3l-1-.7a3.1,3.1,0,0,1-.7-.9,5,5,0,0,1-.2-1.2V289.3a3.3,3.3,0,0,1,1.1-1.8A5.1,5.1,0,0,1,44.2,286.6Zm5.4,9.8v-3H70v-5.8H44.4a2.6,2.6,0,0,0-2.2,1.9v10.6a2,2,0,0,0,.6,1.5,2.6,2.6,0,0,0,1.6.7H62.6v2.9H42.2v5.9H67.9a2.8,2.8,0,0,0,2.1-2V298.8a2.3,2.3,0,0,0-.7-1.7,1.9,1.9,0,0,0-1.4-.7Z" fill="#fff"/>
            <path d="M87.4,304.3h4.1l-3.1-8L82.2,312H71.8l10.6-25.4H94.2L105,312H84.5Zm-1.6,6.8h17.8l-10-23.5H83l-9.9,23.5h8.4l6.9-17.3,4.4,11.4H88Z" fill="#fff"/>
            <path d="M114.8,304.3H131V312H108.8a3.6,3.6,0,0,1-3-2.9V286.6h9Zm-5.8,6.8h21.1v-5.9H113.9V287.6h-7.2V309A2.6,2.6,0,0,0,109,311.1Z" fill="#fff"/>
            <path d="M142.1,304.3h16.1V312H136a3.6,3.6,0,0,1-3-2.9V286.6h9.1Zm-5.9,6.8h21.1v-5.9H141.2V287.6H134V309A2.4,2.4,0,0,0,136.2,311.1Z" fill="#fff"/>
          </g>
          <g>
            <path d="M-22.2,242.7H-13v17.7H-1.8V242.7H7.4v22.4A3.5,3.5,0,0,1,4.5,268H-19.1a3.6,3.6,0,0,1-3.1-2.9ZM-.9,261.3H-14V243.6h-7.3V265a2.5,2.5,0,0,0,2.2,2.1H4.3A2.5,2.5,0,0,0,6.5,265V243.6H-.9Z" fill="#fff"/>
            <path d="M39.2,250.4H26.6v10h6.1V268H20.4a3.5,3.5,0,0,1-3-2.8V250.4H9.5v-7.7H39.2Zm-.9-.9v-5.9H10.5v5.9h7.8V265a2.6,2.6,0,0,0,2.3,2.1H31.8v-5.8H25.7V249.5Z" fill="#fff"/>
            <path d="M44.2,242.7H70.9v7.7H50.4v1.2H67.9a1.8,1.8,0,0,1,1,.2,3.9,3.9,0,0,1,1,.8,3.6,3.6,0,0,1,.7,1,3.1,3.1,0,0,1,.3,1.3v10.4a3.5,3.5,0,0,1-2.8,2.7H41.3v-7.6H61.7v-1.2H44.4l-1.2-.2-1-.7a2.7,2.7,0,0,1-.9-2.1V245.4a3.3,3.3,0,0,1,1.1-1.8A3.8,3.8,0,0,1,44.2,242.7Zm5.4,9.8v-3H70v-5.9H44.4a2.9,2.9,0,0,0-2.2,1.9v10.7a2.4,2.4,0,0,0,.6,1.5,2.5,2.5,0,0,0,1.6.6H62.6v3H42.2v5.8H67.9a2.7,2.7,0,0,0,2.1-1.9V254.9a2.3,2.3,0,0,0-.7-1.7,1.9,1.9,0,0,0-1.4-.7Z" fill="#fff"/>
            <path d="M87.4,260.4h4.1l-3.1-8L82.2,268H71.8l10.6-25.3H94.2L105,268H84.5Zm-1.6,6.7h17.8l-10-23.5H83l-9.9,23.5h8.4l6.9-17.3,4.4,11.5H88Z" fill="#fff"/>
            <path d="M114.8,260.4H131V268H108.8a3.5,3.5,0,0,1-3-2.8V242.7h9Zm-5.8,6.7h21.1v-5.8H113.9V243.6h-7.2V265A2.6,2.6,0,0,0,109,267.1Z" fill="#fff"/>
            <path d="M142.1,260.4h16.1V268H136a3.5,3.5,0,0,1-3-2.8V242.7h9.1Zm-5.9,6.7h21.1v-5.8H141.2V243.6H134V265A2.4,2.4,0,0,0,136.2,267.1Z" fill="#fff"/>
          </g>
          <g>
            <path d="M-22.2,198.8H-13v17.6H-1.8V198.8H7.4v22.3a3.6,3.6,0,0,1-2.9,3H-19.1a3.6,3.6,0,0,1-3.1-3ZM-.9,217.3H-14V199.7h-7.3v21.4a2.8,2.8,0,0,0,2.2,2.1H4.3a2.5,2.5,0,0,0,2.2-2.1V199.7H-.9Z" fill="#fff"/>
            <path d="M39.2,206.4H26.6v10h6.1v7.7H20.4a3.6,3.6,0,0,1-3-2.9V206.4H9.5v-7.6H39.2Zm-.9-.9v-5.8H10.5v5.8h7.8v15.6a2.6,2.6,0,0,0,2.3,2.1H31.8v-5.9H25.7V205.5Z" fill="#fff"/>
            <path d="M44.2,198.8H70.9v7.6H50.4v1.2H67.9a1.9,1.9,0,0,1,1,.3l1,.7a4.1,4.1,0,0,1,.7,1.1,2.8,2.8,0,0,1,.3,1.3v10.4a3.8,3.8,0,0,1-2.8,2.7H41.3v-7.7H61.7v-1.1H44.4l-1.2-.3a3.3,3.3,0,0,1-1-.6,3.6,3.6,0,0,1-.7-1,4.3,4.3,0,0,1-.2-1.1V201.4a4.2,4.2,0,0,1,1.1-1.8A3.7,3.7,0,0,1,44.2,198.8Zm5.4,9.7v-3H70v-5.8H44.4a2.7,2.7,0,0,0-2.2,1.9v10.7a2,2,0,0,0,.6,1.4,2.1,2.1,0,0,0,1.6.7H62.6v2.9H42.2v5.9H67.9a2.7,2.7,0,0,0,2.1-1.9V211a2.2,2.2,0,0,0-.7-1.7,2.1,2.1,0,0,0-1.4-.8Z" fill="#fff"/>
            <path d="M87.4,216.4h4.1l-3.1-8-6.2,15.7H71.8l10.6-25.3H94.2L105,224.1H84.5Zm-1.6,6.8h17.8l-10-23.5H83l-9.9,23.5h8.4l6.9-17.3,4.4,11.4H88Z" fill="#fff"/>
            <path d="M114.8,216.4H131v7.7H108.8a3.5,3.5,0,0,1-3-2.9V198.8h9Zm-5.8,6.8h21.1v-5.9H113.9V199.7h-7.2v21.4A2.6,2.6,0,0,0,109,223.2Z" fill="#fff"/>
            <path d="M142.1,216.4h16.1v7.7H136a3.5,3.5,0,0,1-3-2.9V198.8h9.1Zm-5.9,6.8h21.1v-5.9H141.2V199.7H134v21.4A2.4,2.4,0,0,0,136.2,223.2Z" fill="#fff"/>
          </g>
          <g>
            <path d="M-22.2,154.8H-13v17.7H-1.8V154.8H7.4v22.4a3.6,3.6,0,0,1-2.9,3H-19.1a3.8,3.8,0,0,1-3.1-3ZM-.9,173.4H-14V155.7h-7.3v21.5a2.8,2.8,0,0,0,2.2,2.1H4.3a2.7,2.7,0,0,0,2.2-2.1V155.7H-.9Z" fill="#fff"/>
            <path d="M39.2,162.5H26.6v10h6.1v7.7H20.4a3.7,3.7,0,0,1-3-2.9V162.5H9.5v-7.7H39.2Zm-.9-.9v-5.9H10.5v5.9h7.8v15.6a2.7,2.7,0,0,0,2.3,2.1H31.8v-5.9H25.7V161.6Z" fill="#fff"/>
            <path d="M44.2,154.8H70.9v7.7H50.4v1.2H67.9a1.9,1.9,0,0,1,1,.3l1,.7a4.1,4.1,0,0,1,.7,1.1,2.7,2.7,0,0,1,.3,1.2v10.5a3.8,3.8,0,0,1-2.8,2.7H41.3v-7.7H61.7v-1.1H44.4a2.7,2.7,0,0,1-1.2-.3l-1-.7a3.1,3.1,0,0,1-.7-.9,5,5,0,0,1-.2-1.2V157.5a3.3,3.3,0,0,1,1.1-1.8A5.1,5.1,0,0,1,44.2,154.8Zm5.4,9.8v-3H70v-5.9H44.4a2.8,2.8,0,0,0-2.2,2v10.6a2,2,0,0,0,.6,1.5,2.5,2.5,0,0,0,1.6.6H62.6v3H42.2v5.9H67.9a2.8,2.8,0,0,0,2.1-2V167a2.3,2.3,0,0,0-.7-1.7,1.9,1.9,0,0,0-1.4-.7Z" fill="#fff"/>
            <path d="M87.4,172.5h4.1l-3.1-8-6.2,15.7H71.8l10.6-25.4H94.2L105,180.2H84.5Zm-1.6,6.8h17.8l-10-23.6H83l-9.9,23.6h8.4l6.9-17.4,4.4,11.5H88Z" fill="#fff"/>
            <path d="M114.8,172.5H131v7.7H108.8a3.6,3.6,0,0,1-3-2.9V154.8h9Zm-5.8,6.8h21.1v-5.9H113.9V155.7h-7.2v21.5A2.7,2.7,0,0,0,109,179.3Z" fill="#fff"/>
            <path d="M142.1,172.5h16.1v7.7H136a3.6,3.6,0,0,1-3-2.9V154.8h9.1Zm-5.9,6.8h21.1v-5.9H141.2V155.7H134v21.5A2.5,2.5,0,0,0,136.2,179.3Z" fill="#fff"/>
          </g>
          <g>
            <path d="M-22.2,110.9H-13v17.7H-1.8V110.9H7.4v22.4a3.5,3.5,0,0,1-2.9,2.9H-19.1a3.6,3.6,0,0,1-3.1-2.9ZM-.9,129.5H-14V111.8h-7.3v21.4a2.5,2.5,0,0,0,2.2,2.1H4.3a2.5,2.5,0,0,0,2.2-2.1V111.8H-.9Z" fill="#fff"/>
            <path d="M39.2,118.6H26.6v10h6.1v7.6H20.4a3.5,3.5,0,0,1-3-2.8V118.6H9.5v-7.7H39.2Zm-.9-.9v-5.9H10.5v5.9h7.8v15.5a2.6,2.6,0,0,0,2.3,2.1H31.8v-5.8H25.7V117.7Z" fill="#fff"/>
            <path d="M44.2,110.9H70.9v7.7H50.4v1.1H67.9a1.9,1.9,0,0,1,1,.3,3.9,3.9,0,0,1,1,.8,3.6,3.6,0,0,1,.7,1,3.1,3.1,0,0,1,.3,1.3v10.4a3.5,3.5,0,0,1-2.8,2.7H41.3v-7.6H61.7v-1.2H44.4l-1.2-.2-1-.7a2.7,2.7,0,0,1-.9-2.1V113.5a3.4,3.4,0,0,1,1.1-1.7A3.1,3.1,0,0,1,44.2,110.9Zm5.4,9.8v-3H70v-5.9H44.4a2.7,2.7,0,0,0-2.2,1.9v10.7a2.4,2.4,0,0,0,.6,1.5,2.5,2.5,0,0,0,1.6.6H62.6v3H42.2v5.8H67.9a2.7,2.7,0,0,0,2.1-1.9V123.1a2.3,2.3,0,0,0-.7-1.7,1.9,1.9,0,0,0-1.4-.7Z" fill="#fff"/>
            <path d="M87.4,128.6h4.1l-3.1-8-6.2,15.6H71.8l10.6-25.3H94.2L105,136.2H84.5Zm-1.6,6.7h17.8l-10-23.5H83l-9.9,23.5h8.4L88.4,118l4.4,11.5H88Z" fill="#fff"/>
            <path d="M114.8,128.6H131v7.6H108.8a3.5,3.5,0,0,1-3-2.8V110.9h9Zm-5.8,6.7h21.1v-5.8H113.9V111.8h-7.2v21.4A2.6,2.6,0,0,0,109,135.3Z" fill="#fff"/>
            <path d="M142.1,128.6h16.1v7.6H136a3.5,3.5,0,0,1-3-2.8V110.9h9.1Zm-5.9,6.7h21.1v-5.8H141.2V111.8H134v21.4A2.4,2.4,0,0,0,136.2,135.3Z" fill="#fff"/>
          </g>
          <g>
            <path d="M-22.2,67H-13V84.6H-1.8V67H7.4V89.3a3.6,3.6,0,0,1-2.9,3H-19.1a3.7,3.7,0,0,1-3.1-3ZM-.9,85.5H-14V67.9h-7.3V89.3a2.8,2.8,0,0,0,2.2,2.1H4.3a2.5,2.5,0,0,0,2.2-2.1V67.9H-.9Z" fill="#fff"/>
            <path d="M39.2,74.6H26.6v10h6.1v7.7H20.4a3.6,3.6,0,0,1-3-2.9V74.6H9.5V67H39.2Zm-.9-.9V67.9H10.5v5.8h7.8V89.3a2.6,2.6,0,0,0,2.3,2.1H31.8V85.5H25.7V73.7Z" fill="#fff"/>
            <path d="M44.2,67H70.9v7.6H50.4v1.2H67.9a1.9,1.9,0,0,1,1,.3l1,.7a4.1,4.1,0,0,1,.7,1.1,2.8,2.8,0,0,1,.3,1.3V89.6a3.8,3.8,0,0,1-2.8,2.7H41.3V84.6H61.7V83.5H44.4a2.7,2.7,0,0,1-1.2-.3,3.3,3.3,0,0,1-1-.6,3.6,3.6,0,0,1-.7-1,4.3,4.3,0,0,1-.2-1.1V69.6a4.2,4.2,0,0,1,1.1-1.8A3.7,3.7,0,0,1,44.2,67Zm5.4,9.7v-3H70V67.9H44.4a2.6,2.6,0,0,0-2.2,1.9V80.5a2,2,0,0,0,.6,1.4,2.1,2.1,0,0,0,1.6.7H62.6v2.9H42.2v5.9H67.9A2.7,2.7,0,0,0,70,89.5V79.2a2.2,2.2,0,0,0-.7-1.7,2.1,2.1,0,0,0-1.4-.8Z" fill="#fff"/>
            <path d="M87.4,84.6h4.1l-3.1-8L82.2,92.3H71.8L82.4,67H94.2L105,92.3H84.5Zm-1.6,6.8h17.8l-10-23.5H83L73.1,91.4h8.4l6.9-17.3,4.4,11.4H88Z" fill="#fff"/>
            <path d="M114.8,84.6H131v7.7H108.8a3.6,3.6,0,0,1-3-2.9V67h9ZM109,91.4h21.1V85.5H113.9V67.9h-7.2V89.3A2.6,2.6,0,0,0,109,91.4Z" fill="#fff"/>
            <path d="M142.1,84.6h16.1v7.7H136a3.6,3.6,0,0,1-3-2.9V67h9.1Zm-5.9,6.8h21.1V85.5H141.2V67.9H134V89.3A2.4,2.4,0,0,0,136.2,91.4Z" fill="#fff"/>
          </g>
          <g>
            <path d="M-22.2,23H-13V40.7H-1.8V23H7.4V45.4a3.6,3.6,0,0,1-2.9,3H-19.1a3.8,3.8,0,0,1-3.1-3ZM-.9,41.6H-14V23.9h-7.3V45.4a2.6,2.6,0,0,0,2.2,2H4.3a2.4,2.4,0,0,0,2.2-2V23.9H-.9Z" fill="#fff"/>
            <path d="M39.2,30.7H26.6v10h6.1v7.7H20.4a3.7,3.7,0,0,1-3-2.9V30.7H9.5V23H39.2Zm-.9-.9V23.9H10.5v5.9h7.8V45.4a2.5,2.5,0,0,0,2.3,2H31.8V41.6H25.7V29.8Z" fill="#fff"/>
            <path d="M44.2,23H70.9v7.7H50.4v1.2H67.9a1.9,1.9,0,0,1,1,.3,2.3,2.3,0,0,1,1,.7,4.1,4.1,0,0,1,.7,1.1,2.7,2.7,0,0,1,.3,1.2V45.7a3.8,3.8,0,0,1-2.8,2.7H41.3V40.7H61.7V39.6H44.4a2.7,2.7,0,0,1-1.2-.3l-1-.7-.7-.9a5,5,0,0,1-.2-1.2V25.7a3.3,3.3,0,0,1,1.1-1.8A5.1,5.1,0,0,1,44.2,23Zm5.4,9.8v-3H70V23.9H44.4a2.8,2.8,0,0,0-2.2,2V36.5a2,2,0,0,0,.6,1.5,2.5,2.5,0,0,0,1.6.6H62.6v3H42.2v5.8H67.9A2.5,2.5,0,0,0,70,45.5V35.2a2.3,2.3,0,0,0-.7-1.7,1.9,1.9,0,0,0-1.4-.7Z" fill="#fff"/>
            <path d="M87.4,40.7h4.1l-3.1-8L82.2,48.4H71.8L82.4,23H94.2L105,48.4H84.5Zm-1.6,6.7h17.8l-10-23.5H83L73.1,47.4h8.4l6.9-17.3,4.4,11.5H88Z" fill="#fff"/>
            <path d="M114.8,40.7H131v7.7H108.8a3.6,3.6,0,0,1-3-2.9V23h9ZM109,47.4h21.1V41.6H113.9V23.9h-7.2V45.4A2.5,2.5,0,0,0,109,47.4Z" fill="#fff"/>
            <path d="M142.1,40.7h16.1v7.7H136a3.6,3.6,0,0,1-3-2.9V23h9.1Zm-5.9,6.7h21.1V41.6H141.2V23.9H134V45.4A2.4,2.4,0,0,0,136.2,47.4Z" fill="#fff"/>
          </g>
          <g>
            <path d="M-22.2-20.9H-13V-3.3H-1.8V-20.9H7.4V1.5A3.6,3.6,0,0,1,4.5,4.4H-19.1a3.6,3.6,0,0,1-3.1-2.9ZM-.9-2.3H-14V-20h-7.3V1.4a2.5,2.5,0,0,0,2.2,2.1H4.3A2.5,2.5,0,0,0,6.5,1.4V-20H-.9Z" fill="#fff"/>
            <path d="M39.2-13.2H26.6v9.9h6.1V4.4H20.4a3.6,3.6,0,0,1-3-2.8V-13.2H9.5v-7.7H39.2Zm-.9-.9V-20H10.5v5.9h7.8V1.4a2.6,2.6,0,0,0,2.3,2.1H31.8V-2.3H25.7V-14.1Z" fill="#fff"/>
            <path d="M44.2-20.9H70.9v7.7H50.4v1.1H67.9a1.9,1.9,0,0,1,1,.3,3.9,3.9,0,0,1,1,.8,3.6,3.6,0,0,1,.7,1,2.8,2.8,0,0,1,.3,1.3V1.7a3.5,3.5,0,0,1-2.8,2.7H41.3V-3.3H61.7V-4.4H44.4l-1.2-.2-1-.7a3.6,3.6,0,0,1-.7-1,3.6,3.6,0,0,1-.2-1.1V-18.3A3.4,3.4,0,0,1,42.4-20,3.1,3.1,0,0,1,44.2-20.9Zm5.4,9.8v-3H70V-20H44.4a2.7,2.7,0,0,0-2.2,1.9V-7.4a2.4,2.4,0,0,0,.6,1.5,2.5,2.5,0,0,0,1.6.6H62.6v3H42.2V3.5H67.9A2.7,2.7,0,0,0,70,1.6V-8.7a2.2,2.2,0,0,0-.7-1.7,1.9,1.9,0,0,0-1.4-.7Z" fill="#fff"/>
            <path d="M87.4-3.3h4.1l-3.1-7.9L82.2,4.4H71.8L82.4-20.9H94.2L105,4.4H84.5ZM85.8,3.5h17.8L93.6-20H83L73.1,3.5h8.4l6.9-17.3L92.8-2.3H88Z" fill="#fff"/>
            <path d="M114.8-3.3H131V4.4H108.8a3.5,3.5,0,0,1-3-2.8V-20.9h9ZM109,3.5h21.1V-2.3H113.9V-20h-7.2V1.4A2.6,2.6,0,0,0,109,3.5Z" fill="#fff"/>
            <path d="M142.1-3.3h16.1V4.4H136a3.5,3.5,0,0,1-3-2.8V-20.9h9.1Zm-5.9,6.8h21.1V-2.3H141.2V-20H134V1.4A2.4,2.4,0,0,0,136.2,3.5Z" fill="#fff"/>
          </g>
        </g>
      </g>
      <rect x="14.8" y="-0.1" width="106.2" height="24.56" fill="#fdb515"/>
      <g>
        <g>
          <path d="M36.8,8.8a1.3,1.3,0,0,1-.4,1l-4.3,4.3-4.6-2.7V8.8a1.4,1.4,0,0,1,1.4-1.4,1.3,1.3,0,0,1,1.3,1.4h0v3.3l4.3-4.3a1.4,1.4,0,0,1,1.9,0,1.3,1.3,0,0,1,.4,1" fill="#181949"/>
          <path d="M35.5,21.3h-.6l-.4-.3-4.3-4.3V20a1.3,1.3,0,0,1-1.3,1.3A1.3,1.3,0,0,1,27.5,20V17.3l4.6-2.6L36.4,19a1.3,1.3,0,0,1-.9,2.3" fill="#181949"/>
          <path d="M31.9,14.3c0-.1-.1-.1-.1-.2h0l-1.2-.7-3.1-1.8-2.7-1.5c-.1-.1-.3,0-.4.1v8.2a.3.3,0,0,0,.3.3h.1l2.7-1.5,4.3-2.5h.1Zm-1,.1v.2l-3.4,1.9-2,1.2h-.3a.1.1,0,0,1-.1-.1V11.3a.3.3,0,0,1,.3-.3h.1l2,1.1,3.4,2c.1,0,.1.1.1.2Z" fill="#181949"/>
          <path d="M29.9,14.4h0L27.4,16l-1.6.9h-.3V12h.3l1.6.9,2.5,1.4h0" fill="#181949"/>
        </g>
        <g>
          <path d="M59.4,14.2h-.1l-3.8-2L53.1,11a.3.3,0,0,0-.4.2v6.3c0,.2.2.3.4.2l2.4-1.2,3.7-2v-.2S59.5,14.2,59.4,14.2Zm-.9.1h-.1L55.5,16l-1.8,1-.3-.2V11.9a.2.2,0,0,1,.2-.2h.1l1.9.9,2.9,1.5h.1Z" fill="#181949"/>
          <path d="M57.7,14.3h-.1l-2.2,1.2-1.3.7h-.3V12.3H54l1.4.6,2.2,1.2h.1" fill="#181949"/>
          <path d="M39.6,11.1h3.3c1.6,0,2.8.9,2.8,2.2s-1.1,2.3-2.7,2.3H41.3v2.1H39.7Zm3.2,3.1c.8,0,1.3-.4,1.3-1s-.5-.9-1.3-.9H41.2v1.9Z" fill="#181949"/>
          <path d="M52,16.4v1.3H46.7V11.2h1.6v5.4Z" fill="#181949"/>
          <path d="M61.1,15.2,58.2,11h1.9l1.8,2.9,1.9-3h1.8l-2.9,4.3v2.4H61.2Z" fill="#181949"/>
          <path d="M66.6,11.4h.8V15l3.7-3.7h1.1l-3.1,3,3.4,3.6H71.5l-2.9-3L67.5,16v1.9h-.8Z" fill="#181949"/>
          <path d="M73,14.6c-.1-1.9,1.7-3.4,3.7-3.5a3.7,3.7,0,0,1,3.8,3.4A3.8,3.8,0,0,1,76.8,18,3.7,3.7,0,0,1,73,14.6Zm6.7-.1a3,3,0,0,0-3-2.7,2.9,2.9,0,0,0-2.9,2.8,3,3,0,0,0,5.9-.1Z" fill="#181949"/>
          <path d="M81.6,16.9l.5-.5a3.7,3.7,0,0,0,2.4.9c1.2,0,1.7-.6,1.7-1.2s-.7-1-2-1.2-2.4-.7-2.4-1.9a2.2,2.2,0,0,1,2.4-1.9,3.9,3.9,0,0,1,2.6.9l-.5.6a3.2,3.2,0,0,0-2.1-.8A1.5,1.5,0,0,0,82.6,13c0,.7.8.9,2,1.1s2.4.8,2.5,1.9-.9,1.9-2.6,2A4,4,0,0,1,81.6,16.9Z" fill="#181949"/>
          <path d="M88.6,11.4h.8l2.8,4.6,2.7-4.6h.8v6.6H95v-5l-2.7,4.6L89.5,13v4.9h-.8Z" fill="#181949"/>
          <path d="M97.3,14.6a3.7,3.7,0,0,1,3.8-3.5,3.7,3.7,0,0,1,3.8,3.4,3.8,3.8,0,0,1-7.6.1Zm6.7-.1a2.8,2.8,0,0,0-2.9-2.7,2.9,2.9,0,0,0-2.9,2.8,2.9,2.9,0,0,0,5.8-.1Z" fill="#181949"/>
          <path d="M106,16.9l.5-.5a3.7,3.7,0,0,0,2.4.9c1.1,0,1.7-.6,1.7-1.2s-.7-1-2-1.2-2.4-.7-2.4-1.9a2.2,2.2,0,0,1,2.4-1.9,3.9,3.9,0,0,1,2.6.9l-.5.6a3.4,3.4,0,0,0-2.1-.8A1.5,1.5,0,0,0,107,13c0,.7.8.9,2,1.1s2.4.8,2.4,1.9-.8,1.9-2.5,2A4,4,0,0,1,106,16.9Z" fill="#181949"/>
        </g>
      </g>
    </g>
    <g>
      <path d="M21.4,239.5l-2.1-2.3a1.2,1.2,0,0,0-1.9,0l-2,2.3a3.9,3.9,0,0,0-1,2.4v4.8a1.4,1.4,0,0,0,1.4,1.4h5.1a1.4,1.4,0,0,0,1.4-1.4v-4.8A4.4,4.4,0,0,0,21.4,239.5Zm-3,1.2a1.5,1.5,0,1,1,0-3,1.5,1.5,0,0,1,0,3Z" fill="#fdb515"/>
      <rect x="19.7" y="233.9" width="0.5" height="5.67" rx="0.3" transform="translate(103.7 14.4) rotate(25.5)" fill="#fdb515"/>
    </g>
    <path d="M19.1,267a1.4,1.4,0,0,0,.9-.3,1.1,1.1,0,0,0,.3-.8,1.4,1.4,0,0,0-.3-.9,1.4,1.4,0,0,0-.9-.3,1.1,1.1,0,0,0-.8.3,1.4,1.4,0,0,0-.3.9,1,1,0,0,0,1.1,1.1Zm0,5.9a23.2,23.2,0,0,1-3.5-3.7,5.8,5.8,0,0,1-1.2-3.2,4.5,4.5,0,0,1,1.4-3.5,4.9,4.9,0,0,1,3.3-1.4,4.5,4.5,0,0,1,3.3,1.4,4.3,4.3,0,0,1,1.5,3.5,5.8,5.8,0,0,1-1.2,3.2A20.3,20.3,0,0,1,19.1,272.9Z" fill="#fdb515"/>
    <path d="M15,300.6c.1.1.1.1,0,.2v.2h-.3v-.2c-.1,0-.1-.1-.1-.2l.2-.2h.2A.2.2,0,0,1,15,300.6Zm.1.8.2.2a.4.4,0,0,1-.1.3h-.4c-.1,0-.1-.1-.2-.2v-.2c0-.1.1-.1.2-.1Zm.2-1.6v.2c0,.1-.1.1-.2.1h-.2a.4.4,0,0,1-.1-.3.3.3,0,0,0,.1-.2h.3c0,.1.1.1.2.2Zm.4,2.3h.2v.2c0,.1,0,.2-.1.2h-.4c-.1-.1-.1-.1-.1-.2v-.2Zm.3-2.8h-.4c-.1,0-.1-.1-.1-.2s-.1-.1,0-.2h.4l.2.2A.4.4,0,0,1,16,299.3Zm.7-.1h-.2c-.1,0-.1-.1-.1-.2s0-.2.1-.2H17v.4Zm0,3.8h-.2c-.1-.1-.1-.1-.1-.2a.4.4,0,0,1,.1-.3H17v.5Zm.8-4.2h.3v.3a.3.3,0,0,1-.1.2.1.1,0,0,1-.2,0h-.2c-.1,0-.1-.1-.1-.2s0-.2.1-.2Zm.4,3.7-.2.2h-.2a.2.2,0,0,1-.2-.2v-.2l.2-.2h.2c.1,0,.1.1.1.2A.1.1,0,0,1,17.9,302.5Zm.5-3v.5H18v-.2a.3.3,0,0,1,.1-.2c0-.1.1-.1.2-.1Zm.2,2.2c0,.1,0,.1-.1.2h-.4a.4.4,0,0,1-.1-.3c0-.1,0-.1.1-.2h.4A.4.4,0,0,1,18.6,301.7Zm.2-1.1v.2l-.2.2h-.2l-.2-.2v-.2c0-.1.1-.1.2-.2h.2C18.7,300.4,18.7,300.5,18.8,300.6Z" fill="#fdb515"/>
    <path d="M15,319.4c.1.1.1.1,0,.2v.2h-.3v-.2c-.1,0-.1-.1-.1-.2l.2-.2h.2Zm.1.8.2.2c0,.1,0,.2-.1.2l-.2.2h-.2c-.1,0-.1-.1-.2-.2s0-.1.1-.2.1-.1.2-.1Zm.2-1.6v.2h-.4a.4.4,0,0,1-.1-.3c0-.1.1-.1.1-.2h.3c0,.1.1.1.2.2Zm.4,2.3h.2v.2c0,.1,0,.2-.1.2s-.1.1-.2.1-.2,0-.2-.1-.1-.1-.1-.2V321Zm.3-2.8h-.4c-.1,0-.1-.1-.1-.2s-.1-.1,0-.2h.4c.1.1.2.1.2.2A.4.4,0,0,1,16,318.1Zm.7-.1h-.2c-.1,0-.1-.1-.1-.2s0-.2.1-.2H17v.4Zm0,3.8h-.2c-.1-.1-.1-.1-.1-.2a.4.4,0,0,1,.1-.3H17v.5Zm.8-4.2h.3v.3a.3.3,0,0,1-.1.2.1.1,0,0,1-.2,0h-.2c-.1,0-.1-.1-.1-.2s0-.2.1-.2Zm.4,3.7-.2.2c-.1,0-.2,0-.2-.1a.2.2,0,0,1-.2-.2c0-.1,0-.2.1-.2s.1-.1.2-.2h.2c.1,0,.1.1.1.2A.1.1,0,0,1,17.9,321.3Zm.5-3c.1.1.1.1.1.2v.3H18v-.2a.3.3,0,0,1,.1-.2h.4Zm.2,2.2c0,.1,0,.1-.1.2h-.2l-.2-.2c-.1,0-.1-.1-.1-.2v-.2h.4A.4.4,0,0,1,18.6,320.5Zm.2-1.1v.2l-.2.2h-.2l-.2-.2v-.2l.2-.2h.2Z" fill="#fdb515"/>
    <g>
      <rect x="14.4" y="90.9" width="122.3" height="15.84" rx="1.9" fill="#fdb515"/>
      <path d="M19,98.8v.4h-.4a.2.2,0,0,1,0-.3h.1c.1-.1.2-.1.2,0Zm.1.8c.1,0,.1.1.1.2v.2h-.4l-.2-.2c0-.1,0-.2.1-.2s.1-.1.2-.2Zm.2-1.5a.3.3,0,0,1-.1.2h-.4c-.1,0-.1-.1-.1-.2s.1-.1.1-.2H19c.1,0,.2,0,.2.1S19.3,98,19.3,98.1Zm.3,2.1h.2a.3.3,0,0,0,.1.2.3.3,0,0,0-.1.2h-.5v-.2c0-.1,0-.2.1-.2Zm.3-2.6h-.5v-.3h.5a.3.3,0,0,1,.1.2Zm.7-.1h-.2c-.1,0-.1-.1-.1-.2a.3.3,0,0,1,.1-.2h.4a.3.3,0,0,1,.1.2c0,.1,0,.2-.1.2Zm0,3.6h-.2c-.1-.1-.1-.1-.1-.2s0-.2.1-.2h.4c.1,0,.1.1.1.2s0,.1-.1.2Zm.8-3.9h.2v.4h-.2l-.2-.2v-.2c0-.1.1-.1.1-.2Zm.3,3.4-.2.2h-.2c-.1,0-.1-.1-.1-.2s0-.1,0-.2h.4c.1.1.1.1.1.2A.1.1,0,0,1,21.7,100.6Zm.5-2.8c0,.1.1.1.1.2s0,.2-.1.2-.1.1-.1.2h-.3a.3.3,0,0,1-.1-.2v-.2a.1.1,0,0,1,.1-.1Zm.2,2v.2h-.5v-.2c0-.1,0-.2.1-.2h.4A.3.3,0,0,0,22.4,99.8Zm.1-1c.1.1.1.2,0,.2s0,.2-.1.2H22v-.3h.1a.2.2,0,0,1,.3,0Z" fill="#181949"/>
    </g>
    <g>
      <rect x="14.4" y="119.8" width="122.3" height="15.84" rx="1.9" fill="#fdb515"/>
      <path d="M19.8,127.7v.2h-.4v-.2c-.1-.1-.1-.1,0-.2s0-.2.1-.2h.2A.2.2,0,0,1,19.8,127.7Zm.1.7v.4l-.2.2h-.2l-.2-.2v-.2h.4Zm.2-1.5c0,.1,0,.2-.1.2h-.4v-.2a.3.3,0,0,1,.1-.2h.2c.1,0,.2,0,.2.1S20.1,126.8,20.1,126.9Zm.3,2.2h.2v.4h-.5v-.3a.3.3,0,0,1,.1-.2Zm.3-2.7h-.4c0-.1-.1-.1-.1-.2v-.2h.4c0,.1.1.1.1.2S20.8,126.4,20.7,126.4Zm.7,0h-.2c-.1-.1-.1-.1-.1-.2s0-.2.1-.2.1-.1.2-.1.2,0,.2.1.1.1.1.2,0,.1-.1.2Zm0,3.5h-.2c-.1,0-.1-.1-.1-.2v-.2h.4v.2c0,.1,0,.2-.1.2Zm.8-3.9h.2v.2c0,.1,0,.2-.1.2h-.4c0-.1-.1-.1-.1-.2v-.2Zm.3,3.5h-.4v-.2a.1.1,0,0,1,0-.2l.2-.2h.2c.1,0,.1.1.1.2S22.5,129.4,22.5,129.5Zm.5-2.8a.3.3,0,0,1,.1.2v.2h-.4a.3.3,0,0,0-.1-.2.4.4,0,0,1,.1-.3H23Zm.2,2c0,.1-.1.1-.1.2h-.5v-.4h.4Zm.1-1c.1,0,.1.1,0,.2H23l-.2-.2v-.2a.3.3,0,0,1,.1-.2h.3A.3.3,0,0,1,23.3,127.7Z" fill="#181949"/>
    </g>
    <g>
      <rect x="110" y="148.6" width="1.3" height="10.91" fill="#fdb515"/>
      <path d="M14.9,153.9v.2l-.2.2h-.2c-.1,0-.1-.1-.1-.2s-.1-.1-.1-.2h.2c0-.1.1-.1.2,0Zm.1.7c.1.1.1.2.2.2s0,.2-.1.2h-.4v-.4H15Zm.2-1.4c0,.1,0,.2-.1.2h-.4v-.2c0-.1,0-.2.1-.2h.4Zm.3,2h.2v.4h-.4v-.2c0-.1,0-.2.1-.2Zm.3-2.4h-.5c0-.1,0-.2.1-.2h.3l.2.2A.3.3,0,0,0,15.8,152.8Zm.6-.1h-.2v-.2h.2c.1,0,.2,0,.2.1h.1c0,.1,0,.2-.1.2Zm0,3.3h-.2v-.4h.4v.2c0,.1,0,.2-.1.2Zm.7-3.6h.2c.1,0,.1.1.1.2s0,.1-.1.2h-.4v-.4Zm.4,3.2h-.4v-.2c-.1-.1,0-.1,0-.2h.4c0,.1.1.1.1.2Zm.4-2.6c.1,0,.1.1.1.2v.2h-.4v-.4h.4Zm.2,1.9v.2h-.4c-.1,0-.1-.1-.1-.2v-.2H18C18.1,154.7,18.1,154.8,18.1,154.9Zm.1-1c.1.1.1.2,0,.2v.2h-.2l-.2-.2v-.2h.2c0-.1.1-.1.2,0Z" fill="#fff"/>
    </g>
    <path d="M14.9,176.9v.2l-.2.2h-.2a.1.1,0,0,1-.1-.1.4.4,0,0,1-.1-.3h.5Zm.1.8h.2c0,.1,0,.2-.1.2l-.2.2h-.2v-.4H15Zm.2-1.5c0,.1,0,.2-.1.2h-.4V176h.4Zm.3,2.1h.2v.4h-.2c-.1,0-.2,0-.2-.1v-.4C15.4,178.3,15.4,178.2,15.5,178.3Zm.3-2.5h-.5c0-.1,0-.2.1-.2h.3l.2.2A.3.3,0,0,0,15.8,175.8Zm.6-.1h-.2v-.4h.2c.1,0,.2,0,.2.1s.1.1.1.2v.2Zm0,3.3h-.2v-.4h.4v.2c0,.1,0,.2-.1.2Zm.7-3.6h.2c.1,0,.1.1.1.2s0,.1-.1.2h-.4v-.2h.3Zm.4,3.2h-.2a.1.1,0,0,1-.2,0c-.1,0-.1-.1-.1-.2s0-.1,0-.2h.5Zm.4-2.6v.4h-.4v-.4h.4Zm.2,1.9v.2h-.4c-.1,0-.1-.1-.1-.2H18C18.1,177.7,18.1,177.8,18.1,177.9Zm.1-1c.1.1.1.2,0,.2v.2h-.4v-.3h.5Z" fill="#fdb515"/>
    <g clip-path="url(#e289a1a0-6b76-4a0e-bf25-d2a0d11846a3)">
      <rect x="227.4" y="124.4" width="78.5" height="210.62" fill="#fdb515"/>
      <g>
        <path d="M224,218.4a5.8,5.8,0,0,1,.9-2.5,23.9,23.9,0,0,1,1.3-2.1l1.1-1.2c.1.3.1.5-.2.6l-.3.3a2,2,0,0,0-.5.9c-.2.3-.5.5-.4.9h-.1c-.2.2-.1.5-.1.8a.9.9,0,0,0,.7.6h.6c.1,0,.2,0,.3-.2h.2c.5.1.7-.2,1.1-.4l1-.5h.1a2.8,2.8,0,0,1,1-.9c.3-.1.5-.4.8-.4l.2-.2c.2-.1.2-.3.4-.4l.6-.3h.1c.2-.1.3-.4.5-.3s.5-.3.8-.4.8-.6,1.3-.5h.2l.8-.2c.5,0,.9-.3,1.5-.3h.1l1.6-.7.9-.3c.2-.2.5-.2.8-.5l.6-.3a3.5,3.5,0,0,0,1.2-.7c.1-.1.2-.2,0-.4a9.2,9.2,0,0,0-2.5-2.3c-.4-.3-.4-.3-.7.1a5.7,5.7,0,0,0-1.2,1.8c-.1.1,0,.5-.3.5l-.5-.3a1.1,1.1,0,0,1-.7-.6c-.1-.2-.1-.3,0-.4l1.1-.9,1-.9-1.7-.4a16,16,0,0,0-2.3.3c-.3-.1-.2-.3,0-.5a3.1,3.1,0,0,1,2-1.1h.6a10,10,0,0,1,2.4.4c.2.1.3.1.5-.1l1.5-1.4,2.5-2.2v-.2c0-.1-.1-.1-.2-.1a6,6,0,0,0-3.5.3c-.3-.2-.3-.4-.1-.6a4.1,4.1,0,0,1,2-1.2h.4a8.2,8.2,0,0,1,2.7.2c.2.1.2,0,.3-.1s.5-.5.8-.6a16.5,16.5,0,0,1,3.2-.6,14,14,0,0,1,5,.6c.1,0,.2.1.2,0s0-.2-.1-.3a8.8,8.8,0,0,0-1.5-1.2,8,8,0,0,0-4.4-1.7,10.1,10.1,0,0,0-2.5.3c-.3-.2-.2-.4.1-.7a4.8,4.8,0,0,1,1.6-.8h1.6a1.5,1.5,0,0,0,1.6-.8l.4-.2,2.7-.5a18.5,18.5,0,0,1,6.2.7h.3l-.3-.3a17.8,17.8,0,0,0-2.7-1.7,8.8,8.8,0,0,0-6-.4c-.4-.1-.4-.2-.2-.6a1.8,1.8,0,0,1,1-.7l1.1-.4,1-.2a7.7,7.7,0,0,1,3,.3,11,11,0,0,1,5,3c.2.2.3.3.6.2a3.8,3.8,0,0,1,3.1.5,22.3,22.3,0,0,0,3.3,2c.2.1.1.2,0,.2a5,5,0,0,1,1.2-.2h1.8a9.8,9.8,0,0,1,2.3.6,12.6,12.6,0,0,1,3.8,2.7c.1.1.2.2.4.1a4.2,4.2,0,0,1,3.6.8,17.5,17.5,0,0,0,3.5,2,8.2,8.2,0,0,0,4.1.6,6.4,6.4,0,0,0,5.1-4.1,8.4,8.4,0,0,0,.5-1.7c.2.1.2.2.2.3a9.7,9.7,0,0,0,1.4,3.3,7.7,7.7,0,0,0,1.7,1.9l.6.3c.2.1.3.1.3-.2a1.3,1.3,0,0,1,.1-.6,13.3,13.3,0,0,1-.2,4c-.1.4-.3.8-.4,1.2h-.1a7.6,7.6,0,0,1-1.3,2.3,1.8,1.8,0,0,0-.6,1.3v2a1.2,1.2,0,0,1-.4.9,3.4,3.4,0,0,1-1.5.2.7.7,0,0,1-.6-.1h-.4a.8.8,0,0,1-.8.3h-1.8a.7.7,0,0,0-.7.7v1.2c0,.5-.2.7-.7.9l-1,.2c-.7.1-1-.1-1.2-.7l-.4-.9c0-.2-.1-.2-.3-.1h-.4c-.1-.1,0-.1.1-.2l1.5-1.6c.1-.1.2-.1.2-.3l-.5.2c-2.1.9-4.1,1.9-6.1,3a33,33,0,0,0-5.7,4.1,56.3,56.3,0,0,1-4.5,3.8,21.6,21.6,0,0,1-6.1,3.5,48.2,48.2,0,0,1-14.6,2.6,26.1,26.1,0,0,1-8.8-.9,6.6,6.6,0,0,1-3.3-2.4,2.3,2.3,0,0,1-.4-2.5c0-.1.1-.3.1-.4h-.1l-4.4.2a23.9,23.9,0,0,1-6-.4,9.9,9.9,0,0,1-4.1-1.7,4,4,0,0,1-1.5-1.9C224,219.1,223.8,218.8,224,218.4Zm35.7-16.8h0c.2-.1.3-.2.3-.4h0c.1,0,.1-.1.2-.2a1.7,1.7,0,0,0-.2-1.7,1.5,1.5,0,0,0-1.4-.7l.8,1.3a2.2,2.2,0,0,1,.1.8h-.1v.2h-.2a1,1,0,0,1-.7.2,7.5,7.5,0,0,0-1.5-.9,1.4,1.4,0,0,0,.3.9c.1.2.2.4.5.4s.2.3.4.2l.5-.2h.4c0,.1-.2.2-.1.3h.6C259.6,201.8,259.7,201.8,259.7,201.6Zm1.7,15.1h-.6c-.5-.4-.7-1.1-1.2-1.5a2.1,2.1,0,0,0,.4,2c.1.1.2.3.4.2s.4-.1.7-.1h.2c-.1.1-.3.2-.2.3h.7a1.5,1.5,0,0,0,1-1.2,1.6,1.6,0,0,0-.4-1.6,1.5,1.5,0,0,0-1.3-.5l.8,1.2c0,.3.2.5.1.8A.9.9,0,0,1,261.4,216.7Zm6-5.2h-.1l-1-.5a1.4,1.4,0,0,0,.4,1.1,1.8,1.8,0,0,0,2.9-1.1,1.7,1.7,0,0,0-1.7-1.8l.8,1.2c-.1.3.1.4.1.7a.9.9,0,0,1-.6.6c-.3,0-.5.1-.7-.1Zm6.1-3.9a1.4,1.4,0,0,0,1.5.5,1.8,1.8,0,0,0,.9-2.9,1.7,1.7,0,0,0-1.3-.5l.8,1.1a2.8,2.8,0,0,1,.1.9,1,1,0,0,1-.5.6h-.8a2.5,2.5,0,0,0-1.2-.8A1.3,1.3,0,0,0,273.5,207.6Zm-29.1,3.7a1.5,1.5,0,0,0,1.6,0,1.3,1.3,0,0,0,.7-.9,1.5,1.5,0,0,0-.2-1.6,1.9,1.9,0,0,0-1.2-.7l1.4-1,1.5-1.1a9.1,9.1,0,0,1,1.6-1.1,11.9,11.9,0,0,0-8.9-.5,10.2,10.2,0,0,1,3.4,2.7l.8,1h0a6,6,0,0,1,.9,1.3,1,1,0,0,1-.2.9l-.4.3h-.5a1.6,1.6,0,0,1-.7-.7,2.4,2.4,0,0,0-.6-.9,1.2,1.2,0,0,0-.1,1C243.6,210.6,243.7,211.2,244.4,211.3Zm37.8-10.2c.1.2,0,.5,0,.7s-.2.5-.5.6a1.1,1.1,0,0,1-.8-.1c-.3-.4-.8-.5-1.2-.8a1.5,1.5,0,0,0,.6,1.3,1.6,1.6,0,0,0,1.6.4A1.5,1.5,0,0,0,283,202a1.6,1.6,0,0,0-.3-1.6,2.2,2.2,0,0,0-1.4-.6C281.7,200.2,281.8,200.7,282.2,201.1Zm-29.7,4.4a1.2,1.2,0,0,1-1,.2l-1.3-.7a1.7,1.7,0,0,0,.8,1.3,1.5,1.5,0,0,0,2.1-.3,1.7,1.7,0,0,0,.1-2.2,1.6,1.6,0,0,0-1.2-.7l.2-.2,1.4-1.1c.6-.6,1.4-1,2-1.5s.2-.1.2-.3h-.2l-1.3-.5a13.2,13.2,0,0,0-5.6-.3,5.3,5.3,0,0,0-1.2.3h.3a12.8,12.8,0,0,1,2.9,2.3,14.2,14.2,0,0,0,1.2,1.3c-.1.1,0,.2.1.3l.7,1.2a.8.8,0,0,1-.2.8Zm11.9-8.5a1.7,1.7,0,0,0,2.3-2.5,1.9,1.9,0,0,0-1.4-.7l.9,1.5a2.2,2.2,0,0,1-.1.8H266a1,1,0,0,1-1,.3,3.4,3.4,0,0,0-1.4-.9A2.2,2.2,0,0,0,264.4,197Zm13.3,2h0a13,13,0,0,0-3.8-2.2,7.8,7.8,0,0,0-2.1-.4,11.2,11.2,0,0,0-3.2.3c.1,0,.2,0,0,.2l-2.7,2.4-.7.6H267a1.1,1.1,0,0,0,.9-.5,1.2,1.2,0,0,1,.6-.6l1.3-.3,2.3-.2a13.4,13.4,0,0,1,2,.1l1.4.2h.7Zm-22.3,12.5-1.7-.4h-1.4a2.5,2.5,0,0,0-1.1.4l-2,1.7a61.3,61.3,0,0,0-5.4,4.9,8.6,8.6,0,0,0-2.3,3.3c-.1.5,0,1.2.8,1.2a4.2,4.2,0,0,0,1.5-.4l1.2-.5.9-.5a4.1,4.1,0,0,1,1.3-1l1.9-1.3,1.2-.7.9-.4a9.3,9.3,0,0,0,2.3-.4,38.2,38.2,0,0,0,4.6-2.1l1-.6c.1,0,.2-.1.1-.3l-.5-.6a9.5,9.5,0,0,0-1.9-1.6c-.2-.2-.3-.1-.4.1a1.2,1.2,0,0,0-.3.9c0,.5.1,1,.1,1.6s-.2.6-.7.3l-1.8-1-.5-.5c-.1-.1-.1-.2.1-.4l1.5-1.3C255,211.8,255.1,211.6,255.4,211.5Zm16.6-7.2-.3-.4a13.5,13.5,0,0,0-2.7-2,6.4,6.4,0,0,0-3.3-.8,4.9,4.9,0,0,0-1.7.1,1.6,1.6,0,0,0-.9.3l-2.6,2.3-1.2,1h1a3.2,3.2,0,0,1,1.7.1.6.6,0,0,0,.7-.2,2.2,2.2,0,0,1,1.4-.6l.7-.2,1.3-.2a20.7,20.7,0,0,1,4.3.2Zm-6.4,6.4a10.7,10.7,0,0,0-4.3-.9,9.5,9.5,0,0,0-4.4.7,9.2,9.2,0,0,1,2.8,1.9c.4.5.9.9,1.3,1.5h.2l.8-.5,2-1.4Zm-13.3-16.9c.1.2.2.2.3.2a10.2,10.2,0,0,1,3.1,1.6,18,18,0,0,1,2,1.9c.1.1.2.3.3.2s.5-.3.6-.5l.6-.5a18.3,18.3,0,0,0,1.6-1.3l.7-.6c.2-.2.2-.2,0-.3l-1.2-.4a15.9,15.9,0,0,0-5.7-.6A9.1,9.1,0,0,0,252.3,193.8Zm21.5,9.9.2-.3,2-1.6,1.3-1c.1-.1.2-.3,0-.4l-.5-.2-1.6-.4a10.7,10.7,0,0,0-2.5-.3,12.9,12.9,0,0,0-3.4.1l-1.1.3A10.5,10.5,0,0,1,273.8,203.7Zm-20.6,6.2h1.1a3.4,3.4,0,0,1,2,.4h.5l3.8-3.5c.2-.1.4-.2.4-.4s-.3-.1-.5-.2a6.9,6.9,0,0,0-2.5.1c-.2.1-.5.1-.7.3Zm18.1-4.2-1-.3-1.4-.3-2.4-.2h-1.6l-1.1.2h0l1,.7a10.3,10.3,0,0,1,2.7,2.4Zm-6.1,3.3h0a11.9,11.9,0,0,0-3.1-2.3c-.5-.2-.5-.2-.9.2l-.5.7a3.4,3.4,0,0,0-.8.9h1.3a10.6,10.6,0,0,1,2.5.2h.2Zm-16.1-6.1a7.9,7.9,0,0,0-2.2-1.8l-1.1-.6c-.4-.1-.6,0-.7.3s0,.2-.1.2-.2.3-.3.4l-.7.7c-.1.1-.3.1-.2.3h2.7A10.9,10.9,0,0,1,249.1,202.9Zm12.4,3.5h0Zm16.1-5.8Z" fill="#181817"/>
        <path d="M301.2,200.7a1.3,1.3,0,0,0-.1.6c0,.3-.1.3-.3.2l-.6-.3a7.7,7.7,0,0,1-1.7-1.9,9.7,9.7,0,0,1-1.4-3.3c0-.1,0-.2-.2-.3a8.4,8.4,0,0,1-.5,1.7,6.4,6.4,0,0,1-5.1,4.1,8.2,8.2,0,0,1-4.1-.6,17.5,17.5,0,0,1-3.5-2,4.2,4.2,0,0,0-3.6-.8c-.2.1-.3,0-.4-.1a12.6,12.6,0,0,0-3.8-2.7,9.8,9.8,0,0,0-2.3-.6h-1.8a5,5,0,0,0-1.2.2c.1,0,.2-.1,0-.2a22.3,22.3,0,0,1-3.3-2,3.8,3.8,0,0,0-3.1-.5c-.3.1-.4,0-.6-.2a11,11,0,0,0-5-3,7.7,7.7,0,0,0-3-.3l-1,.2,2.5-2.6.7-.6a.5.5,0,0,0,.3-.5,10,10,0,0,1,1-2.1,3.4,3.4,0,0,1,.8-.9.8.8,0,0,1,1-.1l2.4,1.1a1.1,1.1,0,0,1,.5,1.7l-.8,1.5c-.2.3-.2.5,0,.7a.6.6,0,0,0,.7.1c.5-.3.9-.6,1.4-.5a1.1,1.1,0,0,1,.8.2.7.7,0,0,0,.8.2,7.8,7.8,0,0,0,5.7-3.4,7.8,7.8,0,0,1,3-2.7,3.6,3.6,0,0,1,5,1.7c.7,1.5,1.4,3,2,4.6l1.2,2.6a11.2,11.2,0,0,1,1.1,2.5c0,.2.1.2.3.1a7.7,7.7,0,0,0,3.3-2.6,7.7,7.7,0,0,1,2.1-2.3,4.9,4.9,0,0,1,2.6-1,3.5,3.5,0,0,1,3.4,2.1,25.6,25.6,0,0,1,1.1,2.4c.4.9.9,1.9,1.2,2.8l1,2a10.4,10.4,0,0,1,1.2,3.5Zm-11.8-1.8h.8a5.2,5.2,0,0,0,2.9-1.6c0-.1.1-.2,0-.3h-2l-2.6-.3h-1.7l-2.3-.3h-.1c-.1.1.2,1,.3,1.1A7.8,7.8,0,0,0,289.4,198.9Zm-20.6-8h-.3c0,.2.1.2.2.3l.5.3a9.1,9.1,0,0,0,3.1,1.2.2.2,0,0,0,.4-.1l1-.9a3.7,3.7,0,0,0,.7-1.4c0-.1,0-.3-.2-.2l-.9.3a5.4,5.4,0,0,1-2.5.6Zm10.5,2.3a1.8,1.8,0,0,0,1-.4,1.7,1.7,0,0,1,1.8.1c.1.1.1.2.2.2h.2c.1-.1,0-.1-.1-.2l-.4-.4c-.1-.7-.6-1.2-.6-1.9h0c-.3-.1-.2-.2-.2-.4a4.5,4.5,0,0,0-.1-1.1A9.7,9.7,0,0,1,279.3,193.2Z" fill="#4fa346"/>
        <path d="M224,218.4c-.2.4,0,.7.2,1a4,4,0,0,0,1.5,1.9,9.9,9.9,0,0,0,4.1,1.7,23.9,23.9,0,0,0,6,.4l4.4-.2h.1c0,.1-.1.3-.1.4a2.3,2.3,0,0,0,.4,2.5,6.6,6.6,0,0,0,3.3,2.4,26.1,26.1,0,0,0,8.8.9,48.2,48.2,0,0,0,14.6-2.6,21.6,21.6,0,0,0,6.1-3.5,56.3,56.3,0,0,0,4.5-3.8,33,33,0,0,1,5.7-4.1c2-1.1,4-2.1,6.1-3l.5-.2c0,.2-.1.2-.2.3l-1.5,1.6c-.1.1-.2.1-.1.2h.4c.2-.1.3-.1.3.1l.4.9c.2.6.5.8,1.2.7l1-.2c.5-.2.7-.4.7-.9v-1.2a.7.7,0,0,1,.7-.7h1.8a.8.8,0,0,0,.8-.3h.4a.7.7,0,0,0,.6.1,3.4,3.4,0,0,0,1.5-.2c.1.3.2.6-.1.8H298a1.1,1.1,0,0,1-.2.8c-.2.4-.5.5-.7.9h-.4c-.3.5-.7.2-1.1.3H295c-.2,0-.3,0-.4-.2h-.3c-.3.1-.6-.1-.8.2h-.6c-.5,0-.7.4-.8.8s-.2.1-.3.3a3,3,0,0,1-.4.8.5.5,0,0,1-.4.3,1,1,0,0,1-.9.4.2.2,0,0,0-.4.1.2.2,0,0,1-.3,0c-.1-.2-.2-.1-.4-.1h-.7c-.2,0-.3.1-.4-.1h-.8c-.2,0-.3,0-.3.2h-.4c-.2,0-.4-.1-.5.2h-.5c-.1,0-.3,0-.3.2s-.4,0-.4.3-.5.3-.8.4h-.4c-.2.1-.3,0-.3.2s-.1.1-.2.1a1,1,0,0,0-.8.5h-.1c-.3-.1-.3.4-.6.3s-.7.3-.8.6-.3.4-.6.6-.4.4-.7.5-.2.2-.3.3a8.1,8.1,0,0,0-1,.9H278c-.3,0-.5.3-.7.5l-.7.7c-.3.2-.8.5-.9,1l-.3.2a6,6,0,0,1-.6,1.1c-.3.4-.4.9-.7,1.3a1.9,1.9,0,0,0-.3.8c-.1.2-.2.5-.5.5s-.5-.1-.5.2h-2.6c-.1,0-.3-.1-.4.1s-.2.1-.3.1-.4,0-.5.2h0c-.4,0-.5.4-.7.5s-.6.7-.8,1-.5.9-.9,1.2-.4.4-.7.3l-.2.2a.3.3,0,0,1-.4,0c-.1-.3-.3-.2-.5-.2s-.4.1-.5-.2h-.1c-.3-.1-.5,0-.6-.3h-.3c-.2,0-.4.1-.5-.2s-.2-.1-.2-.1h-1c-.2,0-.4-.1-.5.2h-.4c-.2,0-.4-.1-.4.2h-.1c-.4,0-.6.3-.8.5h-.5l-.7.8c-.2.1-.6.1-.7.4h-.1c-.2,0-.4-.1-.4.2h-1.1c-.3-.1-.7-.1-.9-.3s-.6-.1-.6-.4-.4-.4-.8-.3h0c-.3-.5-.7-.2-1.1-.3h-.8a1.7,1.7,0,0,0-1,.3c-.1.1-.2,0-.3.2s-.3.1-.4.1-.4-.1-.5.2-.7.1-.8-.1h-.2a.6.6,0,0,1-.8-.3c-.2-.2-.6-.1-.7-.4h-.3c-.1,0-.2,0-.2-.2h-.1c-.3.1-.5-.3-.8-.3s-.4.1-.4-.2-.2,0-.3,0-.6.1-.8-.3h-.5c-.2,0-.3,0-.4-.2h0c-.4.1-.6-.3-1-.3s-.3,0-.3-.3h-.3c-.3,0-.5-.2-.8-.4s-.3-.4-.7-.4-.1-.2-.3-.2a2.7,2.7,0,0,1-.7-.8l-.7-.7-.4-.3c0-.5-.4-.6-.6-1H237a.7.7,0,0,0-1-.2c-.3.2-.7.1-.8.2s-.6.1-.7.5H234c-.2.1-.4-.1-.5.3s-.8.1-.8-.1-.2-.2-.3-.2-.6-.2-.8-.4h0a.8.8,0,0,1-.8-.3c-.2-.2-.6-.1-.8-.4h-.4c-.1,0-.3,0-.3-.2s-.1-.1-.2-.1h-.7c0-.2-.2-.2-.3-.2s-.4.1-.6-.2h-.4c-.1-.1-.3,0-.4-.2h-.1a.9.9,0,0,1-.8-.5h-.2c-.1,0-.2,0-.3-.2s-.3-.2-.3-.4-.4-.4-.7-.3-.2-.2-.3-.3a7.1,7.1,0,0,1-.7-.9,1.9,1.9,0,0,0-.3-.8c-.2-.3-.1-.7-.1-1.1a3.3,3.3,0,0,1,0-1.4c.2-.3.1-.8.4-1h.1c-.1-.4.4-.5.4-.9Zm52.3,4.1h-.1c-.2,0-.2.1-.2.2h0c.1,0,.2,0,.2-.2h.1Zm-27.7,9.2a3.8,3.8,0,0,0-.3-1c-.1-.2-.5-.1-.8-.1h-.3a12.3,12.3,0,0,1-4.6-1.4,4.7,4.7,0,0,1-2.3-2.3c0-.1-.1-.1-.2-.2s-.3-.4-.4-.6l-.3-1.2c0-.2-.1-.2-.3-.2h-2.9c-.8.1-.8.1-.9.9s-.1.2,0,.2.2,0,.3-.1.1-.2.2-.1,1-.4,1.4.2h.1l.6.3c.3.3.7.6.8,1s.4.3.4.6l.2.3c0,.2.3.2.3.4s.4.5.6.7l.5.3c.1.2.3.1.4.2a.9.9,0,0,0,.7.3h.1c0,.3.2.2.4.2h1c.2.4.6.3.9.3h.3c.1.2.2.2.4.2h.4a.6.6,0,0,0,.5.2,8.3,8.3,0,0,1,1.5.4c.4.1.7.4,1.1.4S248.6,231.9,248.6,231.7Zm-15.7-5.3a2.4,2.4,0,0,1-.5-1.4c-.1-.3-.2-.4-.5-.4l-1.6-.2a12.4,12.4,0,0,1-4.2-1.5,1.8,1.8,0,0,0-.7-.5c0,.2,0,.3.1.4a3.1,3.1,0,0,0,.9,1.1c.2.1.1.3.4.3s.5.2.8.4h.6c.1,0,.2,0,.2.1s.4.2.6.2h.2c.2.4.6.2.9.3s.2-.1.3,0,.2.2.4.2.3.1.3.2l.3.2c.3-.1.5.3.9.3h0C232.4,226.4,232.6,226.4,232.9,226.4Zm32.2,4.4a14.2,14.2,0,0,1-.5-1.6c0-.2-.1-.2-.3-.2a27.7,27.7,0,0,0-4.1,1.2,2.4,2.4,0,0,0-1.3.9c0,.1-.1.2,0,.2h.2c.1-.3.4-.2.6-.2a1.7,1.7,0,0,1,1-.3h0c.1-.2.2-.2.4-.2h2.2c.2,0,.5-.1.5.2h1.3Zm-13.8.5c0,.2.1.3.4.3h1.7c.4,0,.7.4,1.2.3h.3c.2,0,.3.1.4.3h.5c.1,0,0-.1,0-.2s-.3-.9-.4-1.4,0-.2-.2-.2l-3.4.2C251.4,230.8,251.3,230.8,251.3,231.3Zm24.5-8.2h-.2l-1.6,1.3a.7.7,0,0,0-.3.6v1.8a.4.4,0,0,0,.1.3h.1a1.1,1.1,0,0,0,1-1.2c-.1-.2-.1-.5-.2-.8a1.2,1.2,0,0,1,.4-1.3A4.6,4.6,0,0,1,275.8,223.1Zm-7.2,4.5-1.3.5c-.1,0-.2.1-.2.3v2.3c0,.2.1.3.3.2a1.1,1.1,0,0,0,.5-.9A3.4,3.4,0,0,1,268.6,227.6Z" fill="#4fa346"/>
        <path d="M235.3,205.4a16,16,0,0,1,2.3-.3l1.7.4-1,.9-1.1.9c-.1.1-.1.2,0,.4a1.1,1.1,0,0,0,.7.6l.5.3c.3,0,.2-.4.3-.5a5.7,5.7,0,0,1,1.2-1.8c.3-.4.3-.4.7-.1a9.2,9.2,0,0,1,2.5,2.3c.2.2.1.3,0,.4a3.5,3.5,0,0,1-1.2.7l-.6.3c-.3.3-.6.3-.8.5l-.9.3-1.6.7h-.1c-.6,0-1,.3-1.5.3l-.8.2h-.2c-.5-.1-.9.3-1.3.5s-.5.4-.8.4-.3.2-.5.3h-.1l-.6.3c-.2.1-.2.3-.4.4l-.2.2c-.3,0-.5.3-.8.4a2.8,2.8,0,0,0-1,.9h-.1l-1,.5c-.4.2-.6.5-1.1.4h-.2c-.1.2-.2.2-.3.2h-.6a.9.9,0,0,1-.7-.6c0-.3-.1-.6.1-.8h.1c-.1-.4.2-.6.4-.9a2,2,0,0,1,.5-.9l.3-.3c.3-.1.3-.3.2-.6a19.7,19.7,0,0,1,2.5-2.5l5.2-4.3Zm-6.1,8.6c.2.1.3-.2.6-.3h.3c.1-.1.2-.4.4-.4s.6-.4.9-.7h.2a.4.4,0,0,0,.4-.4c0-.1,0-.2.1-.2h.2c.2-.2.2-.5.4-.7s.1-.3.1-.5-.2-.1-.3-.1a1.4,1.4,0,0,0-.9.3l-.3.2c-.5,0-.6.7-1.2.7s-.3.2-.3.4-.3.5-.5.7-.4.6-.6.9S228.7,214,229.2,214Z" fill="#4fa346"/>
        <path d="M247.2,195.3a10.1,10.1,0,0,1,2.5-.3,8,8,0,0,1,4.4,1.7,8.8,8.8,0,0,1,1.5,1.2c.1.1.2.2.1.3s-.1,0-.2,0a14,14,0,0,0-5-.6,16.5,16.5,0,0,0-3.2.6c-.3.1-.5.4-.8.6s-.1.2-.3.1a8.2,8.2,0,0,0-2.7-.2h-.1a13.7,13.7,0,0,1,1.8-1.6Z" fill="#4fa346"/>
        <path d="M252.7,190.5a8.8,8.8,0,0,1,6,.4,17.8,17.8,0,0,1,2.7,1.7l.3.3h-.3a18.5,18.5,0,0,0-6.2-.7l-2.7.5-.4.2a1.5,1.5,0,0,1-1.6.8h-1.4l2.5-2.2Z" fill="#4fa346"/>
        <path d="M241.2,200.5a6,6,0,0,1,3.5-.3c.1,0,.2,0,.2.1v.2l-2.5,2.2-1.5,1.4c-.2.2-.3.2-.5.1a10,10,0,0,0-2.4-.4h-.6l2.8-2.4Z" fill="#4fa346"/>
        <path d="M298.6,211.6v-2a1.8,1.8,0,0,1,.6-1.3,7.6,7.6,0,0,0,1.3-2.3h.1a.9.9,0,0,1-.1,1V208c0,.1.1.2-.1.3h-.1c.1.4-.3.7-.3,1.1s0,.2-.1.2h-.1c0,.4-.3.5-.6.7h0c.1.3-.3.5-.3.9Z" fill="#4fa346"/>
        <path d="M255.4,211.5c-.3.1-.4.3-.6.5l-1.5,1.3c-.2.2-.2.3-.1.4l.5.5,1.8,1c.5.3.6.2.7-.3s-.1-1.1-.1-1.6a1.2,1.2,0,0,1,.3-.9c.1-.2.2-.3.4-.1a9.5,9.5,0,0,1,1.9,1.6l.5.6c.1.2,0,.3-.1.3l-1,.6a38.2,38.2,0,0,1-4.6,2.1,9.3,9.3,0,0,1-2.3.4l-.9.4-1.2.7-1.9,1.3a4.1,4.1,0,0,0-1.3,1l-.9.5-1.2.5a4.2,4.2,0,0,1-1.5.4c-.8,0-.9-.7-.8-1.2a8.6,8.6,0,0,1,2.3-3.3,61.3,61.3,0,0,1,5.4-4.9l2-1.7a2.5,2.5,0,0,1,1.1-.4h1.4Zm-10.9,8.1c0,.5.1.6.5.4a5.6,5.6,0,0,0,1.7-.9l1.7-1.7a2.2,2.2,0,0,0,.5-.8c.1-.2.2-.4,0-.5s-.2-.2-.4-.1a5.1,5.1,0,0,0-2,1.2,6.6,6.6,0,0,0-1.8,1.9C244.6,219.2,244.4,219.4,244.5,219.6Z" fill="#4fa346"/>
        <path d="M272,204.3l-1.6-.4a20.7,20.7,0,0,0-4.3-.2l-1.3.2-.7.2a2.2,2.2,0,0,0-1.4.6.6.6,0,0,1-.7.2,3.2,3.2,0,0,0-1.7-.1h-1l1.2-1,2.6-2.3a1.6,1.6,0,0,1,.9-.3,4.9,4.9,0,0,1,1.7-.1,6.4,6.4,0,0,1,3.3.8,13.5,13.5,0,0,1,2.7,2Z" fill="#4fa346"/>
        <path d="M245.1,208.1l-.8-1a10.2,10.2,0,0,0-3.4-2.7,11.9,11.9,0,0,1,8.9.5,9.1,9.1,0,0,0-1.6,1.1l-1.5,1.1-1.4,1Z" fill="#4fa346"/>
        <path d="M277.7,199l-1.5-.4h-.7l-1.4-.2a13.4,13.4,0,0,0-2-.1l-2.3.2-1.3.3a1.2,1.2,0,0,0-.6.6,1.1,1.1,0,0,1-.9.5h-1.8l.7-.6,2.7-2.4c.2-.2.1-.2,0-.2a11.2,11.2,0,0,1,3.2-.3,7.8,7.8,0,0,1,2.1.4,13,13,0,0,1,3.8,2.2h0Z" fill="#4fa346"/>
        <path d="M265.6,210.7,264,212l-2,1.4-.8.5H261c-.4-.6-.9-1-1.3-1.5a9.2,9.2,0,0,0-2.8-1.9,9.5,9.5,0,0,1,4.4-.7A10.7,10.7,0,0,1,265.6,210.7Z" fill="#4fa346"/>
        <path d="M252.3,193.8a9.1,9.1,0,0,1,2.3-.3,15.9,15.9,0,0,1,5.7.6l1.2.4c.2.1.2.1,0,.3l-.7.6a18.3,18.3,0,0,1-1.6,1.3l-.6.5c-.1.2-.4.3-.6.5s-.2-.1-.3-.2a18,18,0,0,0-2-1.9,10.2,10.2,0,0,0-3.1-1.6C252.5,194,252.4,194,252.3,193.8Z" fill="#4fa346"/>
        <path d="M273.8,203.7a10.5,10.5,0,0,0-5.6-3.8l1.1-.3a12.9,12.9,0,0,1,3.4-.1,10.7,10.7,0,0,1,2.5.3l1.6.4.5.2c.2.1.1.3,0,.4l-1.3,1-2,1.6Z" fill="#4fa346"/>
        <path d="M251.9,203.1a14.2,14.2,0,0,1-1.2-1.3,12.8,12.8,0,0,0-2.9-2.3h-.3a5.3,5.3,0,0,1,1.2-.3,13.2,13.2,0,0,1,5.6.3l1.3.5h.2c0,.2-.1.2-.2.3s-1.4.9-2,1.5l-1.4,1.1-.2.2Z" fill="#4fa346"/>
        <path d="M253.2,209.9l4.1-3.4c.2-.2.5-.2.7-.3a6.9,6.9,0,0,1,2.5-.1c.2.1.5,0,.5.2s-.2.3-.4.4l-3.8,3.5h-.5a3.4,3.4,0,0,0-2-.4Z" fill="#4fa346"/>
        <path d="M271.3,205.7l-3.8,2.9a10.3,10.3,0,0,0-2.7-2.4l-1-.7h0l1.1-.2h1.6l2.4.2,1.4.3Z" fill="#4fa346"/>
        <path d="M265.2,209l-1.3-.4h-.2a10.6,10.6,0,0,0-2.5-.2h-1.3a3.4,3.4,0,0,1,.8-.9l.5-.7c.4-.4.4-.4.9-.2a11.9,11.9,0,0,1,3.1,2.3Z" fill="#4fa346"/>
        <path d="M249.1,202.9a10.9,10.9,0,0,0-2.6-.5h-2.7c-.1-.2.1-.2.2-.3l.7-.7c.1-.1.1-.3.3-.4s.1-.1.1-.2.3-.4.7-.3l1.1.6A7.9,7.9,0,0,1,249.1,202.9Z" fill="#4fa346"/>
        <path d="M265,196.4a1,1,0,0,0,1-.3c.1.4-.3.5-.5.7a1.3,1.3,0,0,0,1.1-.8h-.3c0,.2-.1.2-.2.2a2.2,2.2,0,0,0,.1-.8c.1-.1.3-.2.3-.4s.1-.3.2-.4a1.7,1.7,0,0,1-2.3,2.5.3.3,0,0,1,.3-.3A.3.3,0,0,0,265,196.4Z" fill="#4fa346"/>
        <path d="M253.2,203.8a1.7,1.7,0,0,1-.1,2.2,1.5,1.5,0,0,1-2.1.3c-.1-.2,0-.3.2-.3a.3.3,0,0,0,.3-.3,1.2,1.2,0,0,0,1-.2v.2c-.2,0-.2.3-.4.3h0a1.2,1.2,0,0,0,.9-.8h-.5a.8.8,0,0,0,.2-.8C253,204.4,253,204.1,253.2,203.8Z" fill="#4fa346"/>
        <path d="M281.9,203.2a1.6,1.6,0,0,1-1.6-.4.2.2,0,0,1,.2-.2c.2,0,.3-.1.4-.3a1.1,1.1,0,0,0,.8.1c-.1.2-.3.2-.4.5s1.5-.9,1.4-1.4-.3.3-.5.3.1-.5,0-.7.2-.6.5-.7a1.6,1.6,0,0,1,.3,1.6A4.3,4.3,0,0,0,281.9,203.2Z" fill="#4fa346"/>
        <path d="M244.9,210.7h.5c.2.3-.2.2-.2.4a1.2,1.2,0,0,0,1.2-1.2h-.1a1,1,0,0,1-.5.4,1,1,0,0,0,.2-.9c.1-.2.3-.3.3-.6h.2a1.5,1.5,0,0,1,.2,1.6c-.2,0-.1.2-.3.3a.7.7,0,0,0-.4.6,1.5,1.5,0,0,1-1.6,0c-.1-.2-.1-.3.1-.3S244.9,210.9,244.9,210.7Z" fill="#4fa346"/>
        <path d="M262.4,214.6a1.6,1.6,0,0,1,.4,1.6,11.4,11.4,0,0,0-1.1,1.1h-.6c-.1-.1.1-.2.2-.3a2.3,2.3,0,0,0,1.2-1.4c-.2,0-.3.2-.5.3s-.1-.5-.1-.8S262.2,214.8,262.4,214.6Z" fill="#4fa346"/>
        <path d="M244.9,210.7c0,.2-.2.3-.4.3s-.2.1-.1.3-.8-.7-.9-1.2a1.2,1.2,0,0,1,.1-1,2.4,2.4,0,0,1,.6.9A1.6,1.6,0,0,0,244.9,210.7Z" fill="#4fa346"/>
        <path d="M259.5,201.9h-.6c-.1-.1.1-.2.1-.3a1.5,1.5,0,0,0,.9-1v0c0,.1-.1.1-.2.1a2.2,2.2,0,0,0-.1-.8c.2,0,.4-.1.3-.3a.3.3,0,0,1,.3-.3,1.7,1.7,0,0,1,.2,1.7c-.2,0-.2.1-.2.2h0c-.2,0-.3.1-.3.4h0C259.6,201.7,259.4,201.6,259.5,201.9Z" fill="#4fa346"/>
        <path d="M268.2,211.7a.9.9,0,0,0,.6-.6c.2-.1.2-.3.4-.3s-.1.3.1.4l.3-.2a1.6,1.6,0,0,1-1.4,1.5h.1c.1-.1.2-.2.1-.2h-.5C267.9,212,268.2,212,268.2,211.7Z" fill="#4fa346"/>
        <path d="M260,217.1a2.1,2.1,0,0,1-.4-2c.5.4.7,1.1,1.2,1.5Z" fill="#4fa346"/>
        <path d="M276.3,206.7a1.6,1.6,0,0,1-1.3,1.4l.4-.5c-.3,0-.5.2-.8.1s.3-.2.4-.4a1,1,0,0,0,.5-.6c.2,0,.3-.3.5-.3h0c0,.2-.2.4-.1.4S276.2,206.8,276.3,206.7Zm-.4.4Z" fill="#4fa346"/>
        <path d="M276.3,206.7c-.1.1-.2.3-.4.2s.1-.2.1-.4h0c-.2,0-.3.3-.5.3a2.8,2.8,0,0,0-.1-.9c.3-.1.3-.4.5-.6A1.6,1.6,0,0,1,276.3,206.7Z" fill="#4fa346"/>
        <path d="M275,207.3c-.1.2-.3.2-.4.4s.5-.1.8-.1l-.4.5a1.4,1.4,0,0,1-1.5-.5l.7-.4Z" fill="#4fa346"/>
        <path d="M265,196.4a.3.3,0,0,1-.3.3.3.3,0,0,0-.3.3,2.2,2.2,0,0,1-.8-1.5A3.4,3.4,0,0,1,265,196.4Z" fill="#4fa346"/>
        <path d="M268.2,211.7c0,.3-.3.3-.3.5h.5c.1,0,0,.1-.1.2h-.1a1.6,1.6,0,0,1-1.5-.4c.3-.2.6-.1.8-.5S267.9,211.7,268.2,211.7Z" fill="#4fa346"/>
        <path d="M253.2,203.8c-.2.3-.2.6-.5.8l-.7-1.2c-.1-.1-.2-.2-.1-.3h.1A1.6,1.6,0,0,1,253.2,203.8Z" fill="#4fa346"/>
        <path d="M266.7,194.5c-.1.1-.1.3-.2.4s-.2.3-.3.4l-.9-1.5A1.9,1.9,0,0,1,266.7,194.5Z" fill="#4fa346"/>
        <path d="M257.7,201.7c-.3,0-.4-.2-.5-.4a1.4,1.4,0,0,1-.3-.9,7.5,7.5,0,0,1,1.5.9Z" fill="#4fa346"/>
        <path d="M246.5,208.8h-.2c0,.3-.2.4-.3.6a6,6,0,0,0-.9-1.3h.2A1.9,1.9,0,0,1,246.5,208.8Z" fill="#4fa346"/>
        <path d="M260,199.4a.3.3,0,0,0-.3.3c.1.2-.1.3-.3.3l-.8-1.3A1.5,1.5,0,0,1,260,199.4Z" fill="#4fa346"/>
        <path d="M251.5,205.7a.3.3,0,0,1-.3.3c-.2,0-.3.1-.2.3a1.7,1.7,0,0,1-.8-1.3Z" fill="#4fa346"/>
        <path d="M268.7,210.4l-.8-1.2a1.4,1.4,0,0,1,1.3.6l-.2.2C269,210.2,268.8,210.3,268.7,210.4Z" fill="#4fa346"/>
        <path d="M282.7,200.4c-.3.1-.2.5-.5.7s-.5-.9-.9-1.3A2.2,2.2,0,0,1,282.7,200.4Z" fill="#4fa346"/>
        <path d="M280.9,202.3c-.1.2-.2.3-.4.3a.2.2,0,0,0-.2.2,1.5,1.5,0,0,1-.6-1.3C280.1,201.8,280.6,201.9,280.9,202.3Z" fill="#4fa346"/>
        <path d="M268.7,210.4c.1-.1.3-.2.3-.4l.2-.2a1.4,1.4,0,0,1,.4,1.2l-.3.2c-.2-.1,0-.3-.1-.4s-.2.2-.4.3S268.6,210.7,268.7,210.4Z" fill="#4fa346"/>
        <path d="M262.4,214.6c-.2.2-.1.6-.5.7l-.8-1.2A1.5,1.5,0,0,1,262.4,214.6Z" fill="#4fa346"/>
        <path d="M274.2,207.2l-.7.4a1.3,1.3,0,0,1-.5-1.2A2.5,2.5,0,0,1,274.2,207.2Z" fill="#4fa346"/>
        <path d="M267.5,211.6c-.2.4-.5.3-.8.5a1.4,1.4,0,0,1-.4-1.1l1,.5h.2Z" fill="#4fa346"/>
        <path d="M275.9,205.2c-.2.2-.2.5-.5.6l-.8-1.1A1.7,1.7,0,0,1,275.9,205.2Z" fill="#4fa346"/>
        <path d="M257.7,201.7l.7-.4a1,1,0,0,0,.7-.2.2.2,0,0,1,0,.3c-.2.1-.3.3-.5.3l-.5.2C257.9,202,257.7,202,257.7,201.7Z" fill="#4fa346"/>
        <path d="M245.8,210.4a1,1,0,0,0,.5-.4h.1a1.2,1.2,0,0,1-1.2,1.2c0-.2.4-.1.2-.4Z" fill="#4fa346"/>
        <path d="M260,217.1l.8-.5h.6c0,.2-.3.3-.3.5s-.5-.1-.7.1S260.1,217.2,260,217.1Z" fill="#4fa346"/>
        <path d="M261.1,217.2c0-.2.3-.3.3-.5a.9.9,0,0,0,.6-.6c.2-.1.3-.3.5-.3a2.3,2.3,0,0,1-1.2,1.4Z" fill="#4fa346"/>
        <path d="M282.2,201.8c.2,0,.3-.2.5-.3s-.8,1.4-1.4,1.4.3-.3.4-.5S282.1,202.1,282.2,201.8Z" fill="#4fa346"/>
        <path d="M258.6,201.7c.2,0,.3-.2.5-.3a.2.2,0,0,0,0-.3h.2c.2.1.2-.1.1-.2h.1c.1,0,.2,0,.2-.1v0a1.5,1.5,0,0,1-.9,1Z" fill="#4fa346"/>
        <path d="M281.9,203.2A4.3,4.3,0,0,1,283,202,1.5,1.5,0,0,1,281.9,203.2Z" fill="#4fa346"/>
        <path d="M261.8,217.4h-.1a11.4,11.4,0,0,1,1.1-1.1A1.5,1.5,0,0,1,261.8,217.4Z" fill="#4fa346"/>
        <path d="M246,211.3a.7.7,0,0,1,.4-.6c.2-.1.1-.3.3-.3A1.3,1.3,0,0,1,246,211.3Z" fill="#4fa346"/>
        <path d="M259.7,201.7c0-.3.1-.4.3-.4S259.9,201.6,259.7,201.7Z" fill="#4fa346"/>
        <path d="M259.5,201.9c-.1-.3.1-.2.2-.3S259.6,201.8,259.5,201.9Z" fill="#4fa346"/>
        <path d="M260,201.3c0-.1,0-.2.2-.2S260.1,201.3,260,201.3Z" fill="#4fa346"/>
        <path d="M259.4,200.8c.1.1.1.3-.1.2Z" fill="#4fa346"/>
        <path d="M277.8,198.9h0Z" fill="#4fa346"/>
        <path d="M261.5,206.4h0Z" fill="#4fa346"/>
        <path d="M267.4,211.5h0Z" fill="#4fa346"/>
        <polygon points="277.6 200.6 277.6 200.6 277.6 200.6 277.6 200.6" fill="#4fa346"/>
        <path d="M289.4,198.9a7.8,7.8,0,0,1-4.7-1.6c-.1-.1-.4-1-.3-1.1h.1l2.3.3h1.7l2.6.3h2c.1.1,0,.2,0,.3a5.2,5.2,0,0,1-2.9,1.6Z" fill="#181817"/>
        <path d="M268.8,190.9l2,.2a5.4,5.4,0,0,0,2.5-.6l.9-.3c.2-.1.2.1.2.2a3.7,3.7,0,0,1-.7,1.4l-1,.9a.2.2,0,0,1-.4.1,9.1,9.1,0,0,1-3.1-1.2l-.5-.3c-.1-.1-.2-.1-.2-.3Z" fill="#181817"/>
        <path d="M279.3,193.2a9.7,9.7,0,0,0,1.8-4.3,4.5,4.5,0,0,1,.1,1.1c0,.2-.1.3.2.4h0c0,.7.5,1.2.6,1.9l.4.4c.1.1.2.1.1.2h-.2c-.1,0-.1-.1-.2-.2a1.7,1.7,0,0,0-1.8-.1A1.8,1.8,0,0,1,279.3,193.2Z" fill="#181817"/>
        <path d="M248.6,231.7c0,.2-.1.2-.2.2s-.7-.3-1.1-.4a8.3,8.3,0,0,0-1.5-.4.6.6,0,0,1-.5-.2h-.4c-.2,0-.3,0-.4-.2h-.3c-.3,0-.7.1-.9-.3h-1c-.2,0-.4.1-.4-.2h-.1a.9.9,0,0,1-.7-.3c-.1-.1-.3,0-.4-.2l-.5-.3c-.2-.2-.5-.4-.6-.7s-.3-.2-.3-.4l-.2-.3c0-.3-.3-.4-.4-.6s-.5-.7-.8-1l-.6-.3h-.1c-.4-.6-1-.2-1.4-.2s-.2.1-.2.1-.2.2-.3.1,0-.1,0-.2.1-.8.9-.9h2.9c.2,0,.3,0,.3.2l.3,1.2c.1.2.2.5.4.6s.2.1.2.2a4.7,4.7,0,0,0,2.3,2.3,12.3,12.3,0,0,0,4.6,1.4h.3c.3,0,.7-.1.8.1A3.8,3.8,0,0,1,248.6,231.7Z" fill="#181817"/>
        <path d="M232.9,226.4c-.3,0-.5,0-.6-.2h0c-.4,0-.6-.4-.9-.3l-.3-.2c0-.1-.1-.2-.3-.2s-.3,0-.4-.2-.2,0-.3,0-.7.1-.9-.3H229c-.2,0-.5.1-.6-.2s-.1-.1-.2-.1h-.6c-.3-.2-.5-.4-.8-.4s-.2-.2-.4-.3a3.1,3.1,0,0,1-.9-1.1c-.1-.1-.1-.2-.1-.4a1.8,1.8,0,0,1,.7.5,12.4,12.4,0,0,0,4.2,1.5l1.6.2c.3,0,.4.1.5.4A2.4,2.4,0,0,0,232.9,226.4Z" fill="#181817"/>
        <path d="M265.1,230.8h-1.3c0-.3-.3-.2-.5-.2h-2.2c-.2,0-.3,0-.4.2h0a1.7,1.7,0,0,0-1,.3c-.2,0-.5-.1-.6.2h-.2c-.1,0,0-.1,0-.2a2.4,2.4,0,0,1,1.3-.9,27.7,27.7,0,0,1,4.1-1.2c.2,0,.3,0,.3.2A14.2,14.2,0,0,0,265.1,230.8Z" fill="#181817"/>
        <path d="M251.3,231.3c0-.5.1-.5.5-.5l3.4-.2c.2,0,.2,0,.2.2s.3.9.4,1.4.1.2,0,.2h-.5c-.1-.2-.2-.3-.4-.3h-.3c-.5.1-.8-.3-1.2-.3h-1.7C251.4,231.6,251.3,231.5,251.3,231.3Z" fill="#181817"/>
        <path d="M275.8,223.1a4.6,4.6,0,0,0-.7.7,1.2,1.2,0,0,0-.4,1.3c.1.3.1.6.2.8a1.1,1.1,0,0,1-1,1.2h-.1a.4.4,0,0,1-.1-.3v-1.8a.7.7,0,0,1,.3-.6l1.6-1.3h.2Z" fill="#181817"/>
        <path d="M268.6,227.6a3.4,3.4,0,0,0-.7,2.4,1.1,1.1,0,0,1-.5.9c-.2.1-.3,0-.3-.2v-2.3c0-.2.1-.3.2-.3Z" fill="#181817"/>
        <path d="M276.2,222.6c0,.2-.1.2-.2.2h0c0-.1,0-.2.2-.2Z" fill="#181817"/>
        <path d="M276.4,222.4h0Z" fill="#181817"/>
        <path d="M276.2,222.6h0Z" fill="#181817"/>
        <path d="M276.2,222.6Z" fill="#181817"/>
        <path d="M276,222.8h0Z" fill="#181817"/>
        <path d="M276.4,222.4h0Z" fill="#181817"/>
        <path d="M229.2,214c-.5,0-.7-.2-.5-.4s.3-.7.6-.9.5-.4.5-.7.3-.4.3-.4.7-.7,1.2-.7l.3-.2a1.4,1.4,0,0,1,.9-.3c.1,0,.3-.1.3.1s.1.4-.1.5-.2.5-.4.7h-.2c-.1,0-.1.1-.1.2a.4.4,0,0,1-.4.4h-.2c-.3.3-.5.7-.9.7s-.3.3-.4.4h-.3C229.5,213.8,229.4,214.1,229.2,214Z" fill="#4fa346"/>
        <path d="M244.5,219.6c-.1-.2.1-.4.2-.5a6.6,6.6,0,0,1,1.8-1.9,5.1,5.1,0,0,1,2-1.2c.2-.1.3,0,.4.1s.1.3,0,.5a2.2,2.2,0,0,1-.5.8l-1.7,1.7a5.6,5.6,0,0,1-1.7.9C244.6,220.2,244.5,220.1,244.5,219.6Z" fill="#4fa346"/>
        <path d="M266.1,196.1c.1,0,.2,0,.2-.2h.3a1.3,1.3,0,0,1-1.1.8c.2-.2.6-.3.5-.7Z" fill="#4fa346"/>
        <path d="M252.5,205.4h.5a1.2,1.2,0,0,1-.9.8h0c.2,0,.2-.3.4-.3v-.2Z" fill="#4fa346"/>
        <polygon points="275.9 207.1 275.9 207.1 275.9 207.1 275.9 207.1" fill="#4fa346"/>
      </g>
      <g>
        <rect x="214.6" y="247.5" width="27.4" height="39.78" rx="2.6" transform="translate(-114.2 187.9) rotate(-36.4)" fill="#41b649"/>
        <g>
          <ellipse cx="254.4" cy="266" rx="27.5" ry="27.1" fill="#fff"/>
          <g>
            <path d="M254.1,293.1a26.2,26.2,0,0,1-6.2-.7.9.9,0,0,1-.5-.3,6.9,6.9,0,0,1-1.1-1.3,16.4,16.4,0,0,0-3.5-2.9l-6.7-4.8-.8-.6a3.2,3.2,0,0,0-3.1-.9.5.5,0,0,1-.6-.4,26.7,26.7,0,0,1-4.8-13,1.7,1.7,0,0,1,.4-1.2,3.4,3.4,0,0,0,.8-.9,4.6,4.6,0,0,0,1.1-1.6c1.4-3.5,2.9-7,4.4-10.5a3,3,0,0,0,.3-1.6v-4.6a.7.7,0,0,1,.3-.6,26.8,26.8,0,0,1,9.3-6.6.7.7,0,0,1,.6.1l4.6,2.2.8.2,10.7.3.9-.2,4.4-2h.7a27,27,0,0,1,8.6,6.8,1.1,1.1,0,0,1,.3.7c.2,1.7.2,3.3.4,5a2.7,2.7,0,0,0,.3,1.2c1.2,3.3,2.4,6.6,3.5,9.8a4.4,4.4,0,0,0,1,1.6c1.2,1.4,1.1,1.4.9,3.1a26.9,26.9,0,0,1-5.2,12.7c-.1.3-.5.5-.7.7L272,285l-7.8,5.6a4.6,4.6,0,0,1-.7.7l-.4.3A27.4,27.4,0,0,1,254.1,293.1ZM274,273.3l-3.2-.8-6.4-1.6c-.2-.1-.4-.2-.6,0l-8.9,6.4c-.1.2-.3.4-.3.6v9.8c0,.4.2.5.5.6l8.1,2.1a.8.8,0,0,0,.9-.2l3-2.1,6.5-4.7a.8.8,0,0,0,.4-.7v-9.4Zm-30.7-21.9-8.7,2.1a1.1,1.1,0,0,0-.8.7l-4.5,10.6c-.1.3-.1.4.1.6,1.5,2.3,3,4.5,4.6,6.7.1.3.3.3.6.3,3-.6,6-1.2,9-1.6a1.7,1.7,0,0,0,1.5-1.4c1-3.2,2.1-6.4,3.1-9.6a.8.8,0,0,0-.1-.8c-.8-1.4-1.7-2.7-2.5-4S244.1,252.6,243.3,251.4Zm10.9,36.8V288c0-3.4.1-6.8,0-10.1a.8.8,0,0,0-.2-.5l-8.8-6.4h-.6l-9.9,1.8c-.3.1-.4.2-.4.5v7.6a1.1,1.1,0,0,0,.4.9L245,289a1.1,1.1,0,0,0,.8.3l3.8-.5ZM266,252.3l-5.2-8.3-.4-.3-11.1-.3a.5.5,0,0,0-.5.3l-.9,1.3c-1.4,2-2.8,3.9-4.1,5.9a.5.5,0,0,0,0,.5l4.6,7.5.5.3h11a.5.5,0,0,0,.5-.3l1.4-1.6Zm8.1,20.6.6-1c1.4-2.1,2.7-4.3,4-6.4a1.9,1.9,0,0,0,.2-.7l-3.6-9.7a.4.4,0,0,0-.4-.4l-8.3-2.1-.5.2-5.4,6.4c-.1.1-.2.3-.1.4,1.1,3.5,2.3,7,3.4,10.5l.4.4,3.5.9Z"/>
            <path d="M274,273.3v9.4a.8.8,0,0,1-.4.7l-6.5,4.7-3,2.1a.8.8,0,0,1-.9.2l-8.1-2.1c-.3-.1-.5-.2-.5-.6v-9.8c0-.2.2-.4.3-.6l8.9-6.4c.2-.2.4-.1.6,0l6.4,1.6Z" fill="#fff"/>
            <path d="M243.3,251.4c.8,1.2,1.6,2.4,2.3,3.6s1.7,2.6,2.5,4a.8.8,0,0,1,.1.8c-1,3.2-2.1,6.4-3.1,9.6a1.7,1.7,0,0,1-1.5,1.4c-3,.4-6,1-9,1.6-.3,0-.5,0-.6-.3-1.6-2.2-3.1-4.4-4.6-6.7-.2-.2-.2-.3-.1-.6l4.5-10.6a1.1,1.1,0,0,1,.8-.7Z" fill="#fff"/>
            <path d="M254.2,288.2l-4.6.6-3.8.5a1.1,1.1,0,0,1-.8-.3l-10.3-7.3a1.1,1.1,0,0,1-.4-.9v-7.6c0-.3.1-.4.4-.5l9.9-1.8h.6l8.8,6.4a.8.8,0,0,1,.2.5c.1,3.3,0,6.7,0,10.1Z" fill="#fff"/>
            <path d="M266,252.3l-4.2,5-1.4,1.6a.5.5,0,0,1-.5.3h-11l-.5-.3-4.6-7.5a.5.5,0,0,1,0-.5c1.3-2,2.7-3.9,4.1-5.9l.9-1.3a.5.5,0,0,1,.5-.3l11.1.3.4.3Z" fill="#fff"/>
            <path d="M274.1,272.9l-6.2-1.5-3.5-.9-.4-.4c-1.1-3.5-2.3-7-3.4-10.5-.1-.1,0-.3.1-.4l5.4-6.4.5-.2,8.3,2.1a.4.4,0,0,1,.4.4l3.6,9.7a1.9,1.9,0,0,1-.2.7c-1.3,2.1-2.6,4.3-4,6.4Z" fill="#fff"/>
          </g>
          <rect x="265.3" y="241" width="48.3" height="33.33" rx="3.1" transform="translate(-31.8 474.4) rotate(-75.7)" fill="#ed2224"/>
        </g>
        <rect x="272.5" y="254.3" width="48.3" height="33.33" rx="3.1" transform="matrix(0.64, -0.77, 0.77, 0.64, -101.33, 325.86)" fill="#faed24"/>
        <g>
          <path d="M283,272.2c-.1.2-.2.2-.3.2a17.3,17.3,0,0,0-5.4,3.5l-8.1,7.7-8.8,8.5-10.8,10.3-6.3,6.1a.8.8,0,0,1-.9.3l-17-4.4c-.5-.2-.6-.2-.2-.6l4.5-4.7,9.4-9.8c2.3-2.4,4.5-4.8,6.8-7.1s6.2-6.6,9.4-9.8a23.4,23.4,0,0,1,3.1-3.2,9,9,0,0,1,8.2-1.6l15.9,4.4Zm-20.4,14.2a.5.5,0,0,0,.5-.3l3.9-4c.3-.4.3-.4-.1-.5l-11.8-4.2c-.4-.2-.6-.1-.9.2l-3.4,3.9c-.5.5-.5.5.2.8l9.9,3.5Z" fill="url(#bdf1c342-3170-4af4-a830-40c5daddd2fb)"/>
          <path d="M296.6,289.4a21.1,21.1,0,0,1-1.1,6.8,38.7,38.7,0,0,1-4.1,9.3,13.1,13.1,0,0,1-8,6,8.8,8.8,0,0,1-8.5-2,18.6,18.6,0,0,1-3.7-4.2,3.5,3.5,0,0,0-3.2-1.8,4.1,4.1,0,0,0-1.9.5,75.7,75.7,0,0,0-7.2,4.9l-13.5,9.4c-.4.3-.4.3-.5-.2-.2-2.5-.5-5-.8-7.6,0-.2.1-.3.2-.5l12.5-12,6.3-6,11-10.6a68.9,68.9,0,0,1,5.6-5.2,11.5,11.5,0,0,1,5.3-2.6,3.7,3.7,0,0,1,2.5.5,18.2,18.2,0,0,1,9,13A9.4,9.4,0,0,1,296.6,289.4Z" fill="url(#a43ea180-2cd8-437e-96ba-c8d8b5df77e6)"/>
          <path d="M284.9,279.5a7.9,7.9,0,0,0-4.6,1.7,14.5,14.5,0,0,0-4.7,6.2,20.6,20.6,0,0,0-1.4,9.6,14.3,14.3,0,0,0,2.4,6.6,6.9,6.9,0,0,0,9.6,2,12.8,12.8,0,0,0,4.9-5.9,20,20,0,0,0,1.8-10.8,12.8,12.8,0,0,0-2.2-6A7,7,0,0,0,284.9,279.5Z" fill="#ccc"/>
          <path d="M243.2,318.7c0,.4-.2.3-.4.2l-3.9-1-13.2-3.6c-.5-.1-.7-.3-.7-.8-.3-2.4-.5-4.7-.8-7.1,0-.5,0-.5.5-.4l10.3,2.7,6.6,1.7c.7.2.7.2.8.9.3,2.4.5,4.9.8,7.3Zm-16-9.3a22.9,22.9,0,0,1,.2,2.5c0,.4.2.5.6.6l7.4,2,4.2,1.1c.2.1.5.2.4-.2l-.3-2.7c0-.3-.1-.4-.4-.5l-11.7-3.1C227.2,309.1,227.1,309.1,227.2,309.4Z" fill="url(#e6c0be7d-8a0c-42a9-ab1f-54cd65f76d61)"/>
          <path d="M273.8,311h-.3l-10.2-2.5-.4-.2c0-.2.2-.2.3-.3a27.4,27.4,0,0,1,3.6-2.3,2.5,2.5,0,0,1,3.3.7l1.4,1.9a7.6,7.6,0,0,0,1.1,1.4Z" fill="url(#ebf8765b-0e2b-45bc-ae3e-8992d4450520)"/>
          <path d="M275.9,295a17.1,17.1,0,0,1,3.4-10.4,8.4,8.4,0,0,1,3.9-3,4.9,4.9,0,0,1,5.5,1.6,11.5,11.5,0,0,1,2.4,5.8,17.5,17.5,0,0,1-2.4,11.4,9.5,9.5,0,0,1-4.3,4.1,5.1,5.1,0,0,1-6-1.4,11.2,11.2,0,0,1-2.3-5.6A19.5,19.5,0,0,1,275.9,295Z" fill="url(#b48c4a63-f24d-4374-88a7-287345f1712a)"/>
        </g>
      </g>
    </g>
    <g>
      <polygon points="326.4 144.2 319.5 144.2 322.9 138.6 326.4 144.2" fill="#fff"/>
      <polygon points="326.4 132.8 319.5 132.8 322.9 127.2 326.4 132.8" fill="#fff"/>
      <polygon points="326.4 121.4 319.5 121.4 322.9 115.8 326.4 121.4" fill="#fff"/>
      <polygon points="326.4 110 319.5 110 322.9 104.4 326.4 110" fill="#fff"/>
      <polygon points="326.4 98.6 319.5 98.6 322.9 93 326.4 98.6" fill="#fff"/>
    </g>
    <g>
      <polygon points="221 221.3 214.1 221.3 217.5 215.7 221 221.3" fill="#fff"/>
      <polygon points="221 209.9 214.1 209.9 217.5 204.3 221 209.9" fill="#fff"/>
      <polygon points="221 198.6 214.1 198.6 217.5 192.9 221 198.6" fill="#fff"/>
      <polygon points="221 187.2 214.1 187.2 217.5 181.5 221 187.2" fill="#fff"/>
      <polygon points="221 175.8 214.1 175.8 217.5 170.2 221 175.8" fill="#fff"/>
    </g>
    <g>
      <path d="M303,73.4a28.5,28.5,0,1,1,28.5-28.5A28.6,28.6,0,0,1,303,73.4Zm0-56.8a28.3,28.3,0,1,0,28.3,28.3A28.3,28.3,0,0,0,303,16.6Z" fill="#fdb515"/>
      <path d="M303,68.8a23.9,23.9,0,1,1,23.9-23.9A23.9,23.9,0,0,1,303,68.8Zm0-47.6a23.7,23.7,0,1,0,23.7,23.7A23.8,23.8,0,0,0,303,21.2Z" fill="#fdb515"/>
      <path d="M303,64.2a19.3,19.3,0,1,1,19.3-19.3A19.4,19.4,0,0,1,303,64.2Zm0-38.3a19.1,19.1,0,1,0,19,19A19,19,0,0,0,303,25.9Z" fill="#fdb515"/>
      <path d="M303,59.6a14.7,14.7,0,1,1,14.6-14.7A14.6,14.6,0,0,1,303,59.6Zm0-29.1a14.4,14.4,0,1,0,14.4,14.4A14.4,14.4,0,0,0,303,30.5Z" fill="#fdb515"/>
      <path d="M303,54.9a10,10,0,1,1,10-10A10,10,0,0,1,303,54.9Zm0-19.8a9.8,9.8,0,1,0,9.8,9.8A9.8,9.8,0,0,0,303,35.1Z" fill="#fdb515"/>
    </g>
  </g>
</svg>
