<svg id="e6b07351-75ac-473d-af09-ba89e62ab5f2" data-name="Layer 1" xmlns="http://www.w3.org/2000/svg" xmlns:xlink="http://www.w3.org/1999/xlink" width="335" height="335" viewBox="0 0 335 335">
  <defs>
    <clipPath id="be702015-a0e4-44b1-b0b1-1752849d3a0c">
      <rect width="335" height="335" fill="none"/>
    </clipPath>
    <radialGradient id="ad42939c-f2b4-44f5-82d0-dd97a08c4bc9" cx="113.44" cy="-116.68" r="167.5" gradientTransform="matrix(1.12, 0, 0, -0.42, 40.38, 21.49)" gradientUnits="userSpaceOnUse">
      <stop offset="0" stop-color="#f1f2f2"/>
      <stop offset="1" stop-color="#e6e7e8"/>
    </radialGradient>
    <radialGradient id="e4ffbd7a-7f4a-49c8-b283-f046809f28e7" cx="167.5" cy="4.78" r="118.47" gradientTransform="matrix(1, 0, 0, -1, 0, 336)" xlink:href="#ad42939c-f2b4-44f5-82d0-dd97a08c4bc9"/>
    <radialGradient id="ede41a57-5b5e-49d7-b623-cc8f0ebebf5f" cx="40.34" cy="-183.66" r="86.77" gradientTransform="matrix(0.6, -0.8, -0.8, -0.6, 104.87, 195.46)" xlink:href="#ad42939c-f2b4-44f5-82d0-dd97a08c4bc9"/>
  </defs>
  <g id="a49beaa3-06ec-477f-b07b-905eb5a28977" data-name="e182081e-d939-4342-8b3b-6d1c3e60425f">
    <g clip-path="url(#be702015-a0e4-44b1-b0b1-1752849d3a0c)">
      <g>
        <g>
          <rect width="335" height="335" fill="#1c8f49"/>
          <rect x="-20.4" y="0.1" width="374.8" height="141.86" transform="translate(-5.1 13.5) rotate(-4.6)" fill="url(#ad42939c-f2b4-44f5-82d0-dd97a08c4bc9)"/>
          <g opacity="0.1">
            <g>
              <g>
                <path d="M68.8,156H67.2c-.1,1,.5,1.2,1.6,1.1Z" fill="#1c8f49" fill-rule="evenodd"/>
                <path d="M22.7,156c-.2-.2-.9.3-.6.5S23,156.3,22.7,156Z" fill="#1c8f49" fill-rule="evenodd"/>
                <path d="M221.8,155.5c-.2-.2-.9.2-.6.5S222,155.7,221.8,155.5Z" fill="#1c8f49" fill-rule="evenodd"/>
                <path d="M27,154.4c.2.1.8-.3.6-.5S26.7,154.1,27,154.4Z" fill="#1c8f49" fill-rule="evenodd"/>
                <path d="M38.4,152.8H37.3v1.1h1.1Z" fill="#1c8f49" fill-rule="evenodd"/>
                <path d="M328.6,152.8c0-.3-.4-.6-.5,0S328.5,153.4,328.6,152.8Z" fill="#1c8f49" fill-rule="evenodd"/>
                <path d="M144.7,152.8c0-.3-.4-.6-.5,0S144.6,153.4,144.7,152.8Z" fill="#1c8f49" fill-rule="evenodd"/>
                <path d="M244.6,151.7c-.6,0-.7-.4-1.1-.5s-.5.6-.6,1,.7.5,1.1.6S244.4,152.1,244.6,151.7Z" fill="#1c8f49" fill-rule="evenodd"/>
                <path d="M195.7,152.2c.1-.3-.8-1.1-1.1-1S195,154.2,195.7,152.2Z" fill="#1c8f49" fill-rule="evenodd"/>
                <path d="M332.4,148.5h1.1v-1.1h-1.1Z" fill="#1c8f49" fill-rule="evenodd"/>
                <path d="M225,148c-.1-.7-.6-.4-1.1,0S224.9,148.6,225,148Z" fill="#1c8f49" fill-rule="evenodd"/>
                <path d="M272.8,146.9c.1-.7.7-1,.5-2.2S271.8,147.1,272.8,146.9Z" fill="#1c8f49" fill-rule="evenodd"/>
                <path d="M238.6,145.8c-.2-.1-.8.3-.6.6S238.9,146.1,238.6,145.8Z" fill="#1c8f49" fill-rule="evenodd"/>
                <path d="M11.8,145.8c.9,1.5,3.2,0,3.3-1.1C14,145.1,11.3,143.9,11.8,145.8Z" fill="#1c8f49" fill-rule="evenodd"/>
                <path d="M18.9,143.7a.6.6,0,0,0-.8-.3l-.3.3C18.4,143.6,18.6,144.5,18.9,143.7Z" fill="#1c8f49" fill-rule="evenodd"/>
                <path d="M295.5,141.5c-.1-.1-.8.3-.5.6S295.8,141.8,295.5,141.5Z" fill="#1c8f49" fill-rule="evenodd"/>
                <path d="M290.1,142.1V141h-1.6C288.4,142,289,142.2,290.1,142.1Z" fill="#1c8f49" fill-rule="evenodd"/>
                <path d="M225.6,140.5c-.2-.2-.9.2-.6.5S225.8,140.7,225.6,140.5Z" fill="#1c8f49" fill-rule="evenodd"/>
                <path d="M229.4,140.5c.1-1.3-.2-2.1-1.1-2.2S227.7,141,229.4,140.5Z" fill="#1c8f49" fill-rule="evenodd"/>
                <path d="M126.8,140.5c1.6-2.2-1.1-3.7-2.7-4.3A3.8,3.8,0,0,0,126.8,140.5Z" fill="#1c8f49" fill-rule="evenodd"/>
                <path d="M221.8,138.3c-.2-.1-.9.3-.6.6S222,138.6,221.8,138.3Z" fill="#1c8f49" fill-rule="evenodd"/>
                <path d="M13.5,138.3c.4-.1,1,0,1-.5S13.5,137.8,13.5,138.3Z" fill="#1c8f49" fill-rule="evenodd"/>
                <path d="M245.1,134.6v1C246.1,137.4,247.7,134,245.1,134.6Z" fill="#1c8f49" fill-rule="evenodd"/>
                <path d="M163.2,135.6c-.2-.1-.8.3-.6.6S163.5,135.9,163.2,135.6Z" fill="#1c8f49" fill-rule="evenodd"/>
                <path d="M9.1,136.2a2.3,2.3,0,0,1,.6-1.6H8C8.1,135.4,8,136.4,9.1,136.2Z" fill="#1c8f49" fill-rule="evenodd"/>
                <path d="M225.6,135.1c-.2-.1-.9.3-.6.5S225.8,135.4,225.6,135.1Z" fill="#1c8f49" fill-rule="evenodd"/>
                <path d="M54.7,135.1a.6.6,0,0,0-.8-.3l-.3.3C54.2,135,54.4,135.9,54.7,135.1Z" fill="#1c8f49" fill-rule="evenodd"/>
                <path d="M47.1,135.6h1.1v-1H47.1Z" fill="#1c8f49" fill-rule="evenodd"/>
                <path d="M11.8,135.6V134H10.2C10.1,135.2,10.6,135.7,11.8,135.6Z" fill="#1c8f49" fill-rule="evenodd"/>
                <path d="M254.3,133c-.1-.2-.8.2-.5.5S254.6,133.2,254.3,133Z" fill="#1c8f49" fill-rule="evenodd"/>
                <path d="M10.2,133.5c0-.5.4-.6.5-1.1s-.6-.4-1-.5-.5.6-.6,1.1S9.8,133.4,10.2,133.5Z" fill="#1c8f49" fill-rule="evenodd"/>
                <path d="M234.8,132.4c0,.3.4.6.5,0S234.9,131.8,234.8,132.4Z" fill="#1c8f49" fill-rule="evenodd"/>
                <path d="M65,132.4c0-.3.1-.6.5-.5v-1.1C64.2,130,63.9,132.6,65,132.4Z" fill="#1c8f49" fill-rule="evenodd"/>
                <path d="M244.6,130.8c0-.3-.5-.6-.6,0S244.4,131.4,244.6,130.8Z" fill="#1c8f49" fill-rule="evenodd"/>
                <path d="M143.6,130.3c-.1-.2-.8.2-.5.5S143.9,130.6,143.6,130.3Z" fill="#1c8f49" fill-rule="evenodd"/>
                <path d="M195.7,128.1c-.4.2-1,.1-1.1.6S195.7,128.7,195.7,128.1Z" fill="#1c8f49" fill-rule="evenodd"/>
                <path d="M209.3,127.6v-1.1h-1.6C207.6,127.5,208.2,127.8,209.3,127.6Z" fill="#1c8f49" fill-rule="evenodd"/>
                <path d="M124.7,127.6c.4-.1,1,0,1-.5S124.7,127.1,124.7,127.6Z" fill="#1c8f49" fill-rule="evenodd"/>
                <path d="M248.3,125.5c0-.3-.4-.6-.5,0S248.2,126.1,248.3,125.5Z" fill="#1c8f49" fill-rule="evenodd"/>
                <path d="M155.6,124.4c-.2-.2-.8.2-.6.5S155.9,124.7,155.6,124.4Z" fill="#1c8f49" fill-rule="evenodd"/>
                <path d="M9.1,123.3c-1.6-.8-1.6,2.4,0,1.6Z" fill="#1c8f49" fill-rule="evenodd"/>
                <path d="M332.4,123.9c-.1-.2-.8.2-.5.5S332.7,124.1,332.4,123.9Z" fill="#1c8f49" fill-rule="evenodd"/>
                <path d="M304.8,123.9c-.2-.2-.9.2-.6.5S305,124.1,304.8,123.9Z" fill="#1c8f49" fill-rule="evenodd"/>
                <path d="M22.7,122.8c-.2-.2-.9.2-.6.5S23,123.1,22.7,122.8Z" fill="#1c8f49" fill-rule="evenodd"/>
                <path d="M154,122.8v-2.2c-1.1-.1-1.2.6-2.2.6S152.5,122.9,154,122.8Z" fill="#1c8f49" fill-rule="evenodd"/>
                <path d="M254.9,121.7c-.1-.6,0-1.5-.6-1.6s-.1.6-.5.5S253.9,121.9,254.9,121.7Z" fill="#1c8f49" fill-rule="evenodd"/>
                <path d="M7.5,121.2c-.2-.2-.8.2-.6.5S7.8,121.4,7.5,121.2Z" fill="#1c8f49" fill-rule="evenodd"/>
                <path d="M136.6,120.6c0-.3-.4-.6-.5,0S136.5,121.2,136.6,120.6Z" fill="#1c8f49" fill-rule="evenodd"/>
                <path d="M104.6,119.6c-.4.1-1.1,0-1.1.5S104.6,120.1,104.6,119.6Z" fill="#1c8f49" fill-rule="evenodd"/>
                <path d="M166.4,119.6c.2.1.9-.3.6-.6S166.2,119.3,166.4,119.6Z" fill="#1c8f49" fill-rule="evenodd"/>
                <path d="M81.3,119c-.2-.1-.9.3-.6.6S81.5,119.3,81.3,119Z" fill="#1c8f49" fill-rule="evenodd"/>
                <path d="M5.9,118c-.2-.2-.9.2-.6.5S6.1,118.2,5.9,118Z" fill="#1c8f49" fill-rule="evenodd"/>
                <path d="M255.9,118H257v-1.1h-1.1Z" fill="#1c8f49" fill-rule="evenodd"/>
                <path d="M165.9,114.7a1.2,1.2,0,0,0-.6,1.6,1.3,1.3,0,0,0,1.7.6C167.1,115.7,166.8,114.9,165.9,114.7Z" fill="#1c8f49" fill-rule="evenodd"/>
                <path d="M75.8,116.9c.2.1.9-.3.6-.5S75.6,116.6,75.8,116.9Z" fill="#1c8f49" fill-rule="evenodd"/>
                <path d="M22.7,116.4c.1.1.8-.3.5-.6S22.4,116.1,22.7,116.4Z" fill="#1c8f49" fill-rule="evenodd"/>
                <path d="M201.2,115.8a3.7,3.7,0,0,0,.5-2.7,1.8,1.8,0,0,1-1.6-.5C199.2,113.5,199.4,116,201.2,115.8Z" fill="#1c8f49" fill-rule="evenodd"/>
                <path d="M27,115.8v-1.6C25.4,113.4,25.4,116.6,27,115.8Z" fill="#1c8f49" fill-rule="evenodd"/>
                <path d="M325.9,114.7c-.1-.1-.8.3-.5.6S326.2,115,325.9,114.7Z" fill="#1c8f49" fill-rule="evenodd"/>
                <path d="M20.5,115.3v-1.6H18.9C18.8,114.8,19.3,115.4,20.5,115.3Z" fill="#1c8f49" fill-rule="evenodd"/>
                <path d="M22.1,112.6c-.5,0-.6-.4-1.1-.5s-.4.6-.5,1,.7.5,1.1.6S22,113,22.1,112.6Z" fill="#1c8f49" fill-rule="evenodd"/>
                <path d="M294.5,111v2.2a1.2,1.2,0,0,0,1.6-.6,1.3,1.3,0,0,0-.6-1.6Z" fill="#1c8f49" fill-rule="evenodd"/>
                <path d="M247.3,109.9h-2.2c-.2,1.8.9,2.3,1.6,3.2C246.7,111.9,247.7,111.6,247.3,109.9Z" fill="#1c8f49" fill-rule="evenodd"/>
                <path d="M41.1,111.5c-.1-.1-.8.3-.5.6S41.4,111.8,41.1,111.5Z" fill="#1c8f49" fill-rule="evenodd"/>
                <path d="M212,109.9c.2.2.8-.2.5-.5S211.7,109.6,212,109.9Z" fill="#1c8f49" fill-rule="evenodd"/>
                <path d="M43.3,109.4c.4-1.5-1.1-1-1.6-1.6C41.3,109.2,41.9,109.7,43.3,109.4Z" fill="#1c8f49" fill-rule="evenodd"/>
                <path d="M34.1,108.3c0-.3-.5-.6-.6,0S34,108.9,34.1,108.3Z" fill="#1c8f49" fill-rule="evenodd"/>
                <path d="M252.1,106.2c0-.3-.4-.6-.5,0S252,106.8,252.1,106.2Z" fill="#1c8f49" fill-rule="evenodd"/>
                <path d="M183.8,105.6h-1.1v1.1h1.1Z" fill="#1c8f49" fill-rule="evenodd"/>
                <path d="M6.4,105.6c.2-2.6-3-1.4-2.7.6C5.2,106.6,5.1,105.4,6.4,105.6Z" fill="#1c8f49" fill-rule="evenodd"/>
                <path d="M223.9,105.1c-.1-.1-.8.3-.5.5S224.2,105.4,223.9,105.1Z" fill="#1c8f49" fill-rule="evenodd"/>
                <path d="M178.9,105.6c.7-.6.8-2.6-.5-2.6S177.5,105.6,178.9,105.6Z" fill="#1c8f49" fill-rule="evenodd"/>
                <path d="M76.9,103.5c1.3.1,2.1-.1,2.2-1.1S76.4,101.9,76.9,103.5Z" fill="#1c8f49" fill-rule="evenodd"/>
                <path d="M3.7,103c-.2-.2-.8.2-.6.5S4,103.2,3.7,103Z" fill="#1c8f49" fill-rule="evenodd"/>
                <path d="M320.5,102.4c-.2-.1-.8.3-.5.6S320.8,102.7,320.5,102.4Z" fill="#1c8f49" fill-rule="evenodd"/>
                <path d="M274.4,102.4c.1-.5-.4-1.4-.6-.5S274.3,103.3,274.4,102.4Z" fill="#1c8f49" fill-rule="evenodd"/>
                <path d="M165.3,101.3c-.4.2-1,.1-1,.6S165.3,101.9,165.3,101.3Z" fill="#1c8f49" fill-rule="evenodd"/>
                <path d="M174,100.3c-.1-.2-.8.2-.5.5S174.3,100.6,174,100.3Z" fill="#1c8f49" fill-rule="evenodd"/>
                <path d="M19.4,100.8c-.1-.6.1-1.5-.5-1.6s-.1.6-.6.5S18.5,101,19.4,100.8Z" fill="#1c8f49" fill-rule="evenodd"/>
                <path d="M14,100.3c-.4.1-1.1,0-1.1.5S14,100.8,14,100.3Z" fill="#1c8f49" fill-rule="evenodd"/>
                <path d="M11.8,98.1c-1.2-.1-2,.2-2.1,1.1s.9.9,1.6,1.1S12.1,99.3,11.8,98.1Z" fill="#1c8f49" fill-rule="evenodd"/>
                <path d="M128.5,98.7c.1.1.8-.3.5-.6S128.2,98.4,128.5,98.7Z" fill="#1c8f49" fill-rule="evenodd"/>
                <path d="M279.8,97.1c-.1-.2-.8.2-.5.5S280.1,97.3,279.8,97.1Z" fill="#1c8f49" fill-rule="evenodd"/>
                <path d="M41.7,97.6c.1-1.2-.2-2-1.1-2.1S40,97.9,41.7,97.6Z" fill="#1c8f49" fill-rule="evenodd"/>
                <path d="M203.9,96c0-.6-.5-1.4-.6-.5S203.7,96.8,203.9,96Z" fill="#1c8f49" fill-rule="evenodd"/>
                <path d="M301.5,93.3c0-.3-.4-.6-.5,0S301.4,93.9,301.5,93.3Z" fill="#1c8f49" fill-rule="evenodd"/>
                <path d="M68.8,92.8c-.3-.8-2.1-.1-2.2-1.1s-.1-1.3-1.1-1.1C64.7,93.2,68.2,94.9,68.8,92.8Z" fill="#1c8f49" fill-rule="evenodd"/>
                <path d="M69.9,92.8H71V91.7H69.9Z" fill="#1c8f49" fill-rule="evenodd"/>
                <path d="M318.3,91.7c.7-.7.4-1.6-.5-2.1C317.7,90.9,316.7,91.2,318.3,91.7Z" fill="#1c8f49" fill-rule="evenodd"/>
                <path d="M167,90.6c-.4.2-1.1.1-1.1.6S167,91.2,167,90.6Z" fill="#1c8f49" fill-rule="evenodd"/>
                <path d="M304.8,90.1c0-.5.4-.6.5-1.1s-.7-.7-1.6-.5A1.5,1.5,0,0,0,304.8,90.1Z" fill="#1c8f49" fill-rule="evenodd"/>
                <path d="M29.7,89.6a4.3,4.3,0,0,0,.6-2.7c-.8.1-2-.2-2.2.5C29.5,87.3,27.6,90.4,29.7,89.6Z" fill="#1c8f49" fill-rule="evenodd"/>
                <path d="M120.3,89c.9-.9-.3-2.4-1.1-3.2C118.4,86.6,118.3,89.5,120.3,89Z" fill="#1c8f49" fill-rule="evenodd"/>
                <path d="M30.8,88c0,.3.5.6.6,0S30.9,87.4,30.8,88Z" fill="#1c8f49" fill-rule="evenodd"/>
                <path d="M70.4,87.4c-.1-.1-.8.3-.5.6S70.7,87.7,70.4,87.4Z" fill="#1c8f49" fill-rule="evenodd"/>
                <path d="M47.1,86.4c-.2-.2-.8.2-.6.5S47.4,86.6,47.1,86.4Z" fill="#1c8f49" fill-rule="evenodd"/>
                <path d="M256.5,85.8c-.7.1-1.6-.1-1.6.6S256.4,86.4,256.5,85.8Z" fill="#1c8f49" fill-rule="evenodd"/>
                <path d="M40.6,85.3c-.4.1-1.1,0-1.1.5S40.6,85.8,40.6,85.3Z" fill="#1c8f49" fill-rule="evenodd"/>
                <path d="M246.2,84.2c-.2-.1-.8.3-.6.5S246.5,84.5,246.2,84.2Z" fill="#1c8f49" fill-rule="evenodd"/>
                <path d="M22.1,84.2c.2-1.2-.1-2-1.1-2.1S21.2,84.1,22.1,84.2Z" fill="#1c8f49" fill-rule="evenodd"/>
                <path d="M206.6,79.9h1.1v-1h-1.1Z" fill="#1c8f49" fill-rule="evenodd"/>
                <path d="M37.9,79.4c0,.5.9.7,1.1,0S38.3,79.1,37.9,79.4Z" fill="#1c8f49" fill-rule="evenodd"/>
                <path d="M27,78.9c0-.3-.4-.7-.5,0S26.9,79.5,27,78.9Z" fill="#1c8f49" fill-rule="evenodd"/>
                <path d="M137.1,78.3c0-.3-.4-.6-.5,0S137,78.9,137.1,78.3Z" fill="#1c8f49" fill-rule="evenodd"/>
                <path d="M21.6,76.7a2.5,2.5,0,0,1-.6,1.6c.7,0,.8.7,1.7.6S22.5,76.8,21.6,76.7Z" fill="#1c8f49" fill-rule="evenodd"/>
                <path d="M12.9,77.8c-.1-.2-.8.2-.5.5S13.2,78.1,12.9,77.8Z" fill="#1c8f49" fill-rule="evenodd"/>
                <path d="M163.2,77.2c0-.6.7-.7.5-1.6h-1.1C162,76.4,162.1,76.9,163.2,77.2Z" fill="#1c8f49" fill-rule="evenodd"/>
                <path d="M25.4,76.7c0-.3-.5-.6-.6,0S25.3,77.3,25.4,76.7Z" fill="#1c8f49" fill-rule="evenodd"/>
                <path d="M12.9,76.7c0-.3-.4-.6-.5,0S12.8,77.3,12.9,76.7Z" fill="#1c8f49" fill-rule="evenodd"/>
                <path d="M34.6,73v2.1C36.7,75.5,36.7,72.5,34.6,73Z" fill="#1c8f49" fill-rule="evenodd"/>
                <path d="M105.7,70.8c-.2-.1-.8.3-.6.6S105.9,71.1,105.7,70.8Z" fill="#1c8f49" fill-rule="evenodd"/>
                <path d="M20,66.5c0-.3-.5-.6-.6,0S19.9,67.1,20,66.5Z" fill="#1c8f49" fill-rule="evenodd"/>
                <path d="M30.8,65.5c1.3-1.4-.2-3-1.1-3.8s-.8.6-1.6.5A4.2,4.2,0,0,0,30.8,65.5Z" fill="#1c8f49" fill-rule="evenodd"/>
                <path d="M247.8,63.3c.2.2.8-.2.5-.5S247.5,63,247.8,63.3Z" fill="#1c8f49" fill-rule="evenodd"/>
                <path d="M107.3,58.5c0-.3-.4-.6-.5,0S107.2,59.1,107.3,58.5Z" fill="#1c8f49" fill-rule="evenodd"/>
                <path d="M75.8,57.4l.6-1.1c-.6-.7-2.5,2-.6,1.7C75.9,58,75.8,57.5,75.8,57.4Z" fill="#1c8f49" fill-rule="evenodd"/>
                <path d="M193,55.8h-1.1v1.1H193Z" fill="#1c8f49" fill-rule="evenodd"/>
                <path d="M118.7,55.8c0-.3-.4-.6-.6,0S118.6,56.4,118.7,55.8Z" fill="#1c8f49" fill-rule="evenodd"/>
                <path d="M.4,55.8c-.4.1-1,0-1.1.5S.4,56.3.4,55.8Z" fill="#1c8f49" fill-rule="evenodd"/>
                <path d="M242.9,55.3c-.1-.2-.8.2-.5.5S243.2,55.6,242.9,55.3Z" fill="#1c8f49" fill-rule="evenodd"/>
                <path d="M9.1,54.7c-.6.1-1.5,0-1.6.6S9,55.4,9.1,54.7Z" fill="#1c8f49" fill-rule="evenodd"/>
                <path d="M1.5,54.7c-.1-.1-.8.3-.5.6S1.8,55,1.5,54.7Z" fill="#1c8f49" fill-rule="evenodd"/>
                <path d="M244,54.7c-.1-.6.1-1.5-.5-1.6s-.1.7-.6.6S243.1,54.9,244,54.7Z" fill="#1c8f49" fill-rule="evenodd"/>
                <path d="M269,53.7h1c0-.6.5-.7.6-1.1S268.7,52.5,269,53.7Z" fill="#1c8f49" fill-rule="evenodd"/>
                <path d="M311.8,50.5a1.4,1.4,0,0,0-1.6,1C311,51.5,312.1,51.6,311.8,50.5Z" fill="#1c8f49" fill-rule="evenodd"/>
                <path d="M261.4,51c-.2-.2-.9.3-.6.5S261.6,51.3,261.4,51Z" fill="#1c8f49" fill-rule="evenodd"/>
                <path d="M108.9,51c-.1-.2-.8.3-.5.5S109.2,51.3,108.9,51Z" fill="#1c8f49" fill-rule="evenodd"/>
                <path d="M216.9,48.3h-1.1v1.1h1.1Z" fill="#1c8f49" fill-rule="evenodd"/>
                <path d="M237.5,47.8V44.6c-2-.2-1.6,1.9-2.2,3.2Z" fill="#1c8f49" fill-rule="evenodd"/>
                <path d="M56.3,47.2c.2.2.8-.2.6-.5S56,47,56.3,47.2Z" fill="#1c8f49" fill-rule="evenodd"/>
                <path d="M125.2,45.6c-.1-.1-.8.3-.5.6S125.5,45.9,125.2,45.6Z" fill="#1c8f49" fill-rule="evenodd"/>
                <path d="M286.9,45.6c.1.2.8-.2.5-.5S286.6,45.4,286.9,45.6Z" fill="#1c8f49" fill-rule="evenodd"/>
                <path d="M76.4,44c.1.7-.1,1.6.5,1.6a2.5,2.5,0,0,0,2.2-2.1C77.4,44.1,77.7,43.3,76.4,44Z" fill="#1c8f49" fill-rule="evenodd"/>
                <path d="M68.2,44c-.1-.1-.8.3-.5.6S68.5,44.3,68.2,44Z" fill="#1c8f49" fill-rule="evenodd"/>
                <path d="M235.9,43.5c.3-1.2-2.2-1.2-1.7,0A.9.9,0,0,0,235.9,43.5Z" fill="#1c8f49" fill-rule="evenodd"/>
                <path d="M229.4,44c-.3-1,.7-3.2-1.1-2.6C228.2,42.7,228.2,44,229.4,44Z" fill="#1c8f49" fill-rule="evenodd"/>
                <path d="M162.6,39.2c-1.2-.1-2,.1-2.1,1.1s1.2.6,2.1.5Z" fill="#1c8f49" fill-rule="evenodd"/>
                <path d="M125.7,40.3c0-.3-.4-.6-.5,0S125.6,40.9,125.7,40.3Z" fill="#1c8f49" fill-rule="evenodd"/>
                <path d="M78,38.1H75.3a3.4,3.4,0,0,1-.5,2.2C77.1,40.8,77.2,39.1,78,38.1Z" fill="#1c8f49" fill-rule="evenodd"/>
                <path d="M172.9,37.6h-1c-.1.7-.7.7-.6,1.6h1.6Z" fill="#1c8f49" fill-rule="evenodd"/>
                <path d="M269.5,38.1c0-.6.7-.7.5-1.6h-1C268.4,37.3,268.4,37.8,269.5,38.1Z" fill="#1c8f49" fill-rule="evenodd"/>
                <path d="M278.2,37.1c-.2-.2-.8.2-.6.5S278.5,37.3,278.2,37.1Z" fill="#1c8f49" fill-rule="evenodd"/>
                <path d="M8.6,37.1c-.2-.2-.9.2-.6.5S8.9,37.3,8.6,37.1Z" fill="#1c8f49" fill-rule="evenodd"/>
                <path d="M194.6,36.5c0-.5-.9-.6-1,0S194.4,37.3,194.6,36.5Z" fill="#1c8f49" fill-rule="evenodd"/>
                <path d="M173.5,37.1c.1.1.8-.3.5-.6S173.2,36.8,173.5,37.1Z" fill="#1c8f49" fill-rule="evenodd"/>
                <path d="M150.2,34.4h-1.1v1.1h1.1Z" fill="#1c8f49" fill-rule="evenodd"/>
                <path d="M163.7,34.4c0,.3.5.6.6,0S163.8,33.8,163.7,34.4Z" fill="#1c8f49" fill-rule="evenodd"/>
                <path d="M90.5,32.8c0-.3-.5-.6-.6,0S90.4,33.4,90.5,32.8Z" fill="#1c8f49" fill-rule="evenodd"/>
                <path d="M145.3,31.7h-1.1v1.1h1.1Z" fill="#1c8f49" fill-rule="evenodd"/>
                <path d="M30.8,32.8c.2.1.8-.3.6-.6S30.5,32.5,30.8,32.8Z" fill="#1c8f49" fill-rule="evenodd"/>
                <path d="M8.6,32.2c0,.3.4.7.5,0S8.7,31.6,8.6,32.2Z" fill="#1c8f49" fill-rule="evenodd"/>
                <path d="M293.9,31.2c-.1-.2-.8.2-.5.5S294.2,31.5,293.9,31.2Z" fill="#1c8f49" fill-rule="evenodd"/>
                <path d="M206.6,30.1h-1.1c0,.5-.4.6-.6,1.1s.8.7,1.7.5Z" fill="#1c8f49" fill-rule="evenodd"/>
                <path d="M30.8,31.2c0-.6.5-.7.6-1.1s-1.9-.1-1.7,1.1Z" fill="#1c8f49" fill-rule="evenodd"/>
                <path d="M163.7,30.6h2.2c.2-1.2-1-1.1-.6-2.6C162.9,28.2,164.5,29.1,163.7,30.6Z" fill="#1c8f49" fill-rule="evenodd"/>
                <path d="M9.1,30.1c-.1-.1-.8.3-.5.5S9.4,30.4,9.1,30.1Z" fill="#1c8f49" fill-rule="evenodd"/>
                <path d="M145.3,28.5V27.4h-1.7C143.6,28.4,144.2,28.7,145.3,28.5Z" fill="#1c8f49" fill-rule="evenodd"/>
                <path d="M52.5,28c-.1-.2-.8.2-.5.5S52.8,28.2,52.5,28Z" fill="#1c8f49" fill-rule="evenodd"/>
                <path d="M169.1,27.4c-.1-.1-.8.3-.5.6S169.4,27.7,169.1,27.4Z" fill="#1c8f49" fill-rule="evenodd"/>
                <path d="M174,26.4h-1.1v1H174Z" fill="#1c8f49" fill-rule="evenodd"/>
                <path d="M176.2,25.3c-.4.1-1.1,0-1.1.5S176.2,25.8,176.2,25.3Z" fill="#1c8f49" fill-rule="evenodd"/>
                <path d="M133.9,24.7h-1.1v1.1h1.1Z" fill="#1c8f49" fill-rule="evenodd"/>
                <path d="M53.1,25.3c0-.3-.5-.6-.6,0S53,25.9,53.1,25.3Z" fill="#1c8f49" fill-rule="evenodd"/>
                <path d="M324.8,24.2c0-.3-.4-.6-.5,0S324.7,24.8,324.8,24.2Z" fill="#1c8f49" fill-rule="evenodd"/>
                <path d="M40.6,21H39.5v2.1h1.1Z" fill="#1c8f49" fill-rule="evenodd"/>
                <path d="M327,21.5c-.6.1-1.5-.1-1.6.6S326.9,22.2,327,21.5Z" fill="#1c8f49" fill-rule="evenodd"/>
                <path d="M327.5,19.9c-.4.1-1,0-1,.6S327.5,20.4,327.5,19.9Z" fill="#1c8f49" fill-rule="evenodd"/>
                <path d="M212,19.9c-.1-.1-.8.3-.5.6S212.3,20.2,212,19.9Z" fill="#1c8f49" fill-rule="evenodd"/>
                <path d="M292.3,18.9a1.4,1.4,0,0,0-1.6,1C291.5,19.9,292.5,20,292.3,18.9Z" fill="#1c8f49" fill-rule="evenodd"/>
                <path d="M324.3,18.9c-.2-.2-.8.2-.5.5S324.6,19.1,324.3,18.9Z" fill="#1c8f49" fill-rule="evenodd"/>
                <path d="M154.5,18.3V17.2C152.3,15.1,151.5,20.3,154.5,18.3Z" fill="#1c8f49" fill-rule="evenodd"/>
                <path d="M258.6,17.2c-.1-.1-.8.3-.5.6S258.9,17.5,258.6,17.2Z" fill="#1c8f49" fill-rule="evenodd"/>
                <path d="M65.5,15.6c0-.3-.4-.6-.5,0S65.4,16.2,65.5,15.6Z" fill="#1c8f49" fill-rule="evenodd"/>
                <path d="M97,15.1c-.2-.1-.8.3-.5.5S97.3,15.4,97,15.1Z" fill="#1c8f49" fill-rule="evenodd"/>
                <path d="M328.1,14c0-.5.4-.6.5-1s-1.8-.1-1.6,1Z" fill="#1c8f49" fill-rule="evenodd"/>
                <path d="M286.9,13c0-.3-.5-.6-.6,0S286.8,13.6,286.9,13Z" fill="#1c8f49" fill-rule="evenodd"/>
                <path d="M247.8,11.9h-1.1V13h1.1Z" fill="#1c8f49" fill-rule="evenodd"/>
                <path d="M223.9,10.8c-.1-.1-.8.3-.5.6S224.2,11.1,223.9,10.8Z" fill="#1c8f49" fill-rule="evenodd"/>
                <path d="M180,10.8c.1.2.8-.2.5-.5S179.7,10.5,180,10.8Z" fill="#1c8f49" fill-rule="evenodd"/>
                <path d="M131.7,10.3c-.1-.7-.6-.3-1.1,0a.6.6,0,0,0,.8.3Z" fill="#1c8f49" fill-rule="evenodd"/>
                <path d="M163.7,9.2c0-.5-.9-.7-1.1,0S163.5,10,163.7,9.2Z" fill="#1c8f49" fill-rule="evenodd"/>
                <path d="M174,7.6c-1.7.3-1.7-1-2.7,0C171.1,10.1,173.8,9,174,7.6Z" fill="#1c8f49" fill-rule="evenodd"/>
                <path d="M267.9,7.1h-1.7V8.7h1.7Z" fill="#1c8f49" fill-rule="evenodd"/>
                <path d="M180,8.7V7.6c-.5,0-.7-.4-1.1-.5S178.8,8.9,180,8.7Z" fill="#1c8f49" fill-rule="evenodd"/>
                <path d="M116,4.4a.6.6,0,0,0-.8-.3l-.3.3C115.5,4.3,115.7,5.2,116,4.4Z" fill="#1c8f49" fill-rule="evenodd"/>
                <path d="M280.4,3.9c.1-1.3-.2-2.1-1.1-2.2s-.8,1-.6,2.2Z" fill="#1c8f49" fill-rule="evenodd"/>
                <path d="M123,1.7c-.1-.1-.8.3-.5.6S123.3,2,123,1.7Z" fill="#1c8f49" fill-rule="evenodd"/>
                <path d="M56.9.1H55.8V1.2h1.1Z" fill="#1c8f49" fill-rule="evenodd"/>
                <path d="M55.2.1c-.1-.1-.8.3-.5.5S55.5.4,55.2.1Z" fill="#1c8f49" fill-rule="evenodd"/>
              </g>
              <g>
                <path d="M64.5,333.9H62.9c-.1.9.5,1.2,1.6,1.1Z" fill="#1c8f49" fill-rule="evenodd"/>
                <path d="M18.4,333.9c-.2-.2-.9.2-.6.5S18.7,334.2,18.4,333.9Z" fill="#1c8f49" fill-rule="evenodd"/>
                <path d="M217.5,333.3c-.2-.1-.9.3-.6.6S217.7,333.6,217.5,333.3Z" fill="#1c8f49" fill-rule="evenodd"/>
                <path d="M22.7,332.3c.2.1.8-.3.6-.6S22.4,332,22.7,332.3Z" fill="#1c8f49" fill-rule="evenodd"/>
                <path d="M34.1,330.7H33v1h1.1Z" fill="#1c8f49" fill-rule="evenodd"/>
                <path d="M324.3,330.7c0-.3-.4-.6-.5,0S324.2,331.3,324.3,330.7Z" fill="#1c8f49" fill-rule="evenodd"/>
                <path d="M140.4,330.7c0-.3-.4-.6-.5,0S140.3,331.3,140.4,330.7Z" fill="#1c8f49" fill-rule="evenodd"/>
                <path d="M240.2,329.6c-.5,0-.6-.4-1-.5s-.5.6-.6,1,.7.5,1.1.6S240.1,330,240.2,329.6Z" fill="#1c8f49" fill-rule="evenodd"/>
                <path d="M191.4,330.1c.1-.3-.8-1.1-1.1-1S190.7,332.1,191.4,330.1Z" fill="#1c8f49" fill-rule="evenodd"/>
                <path d="M334.6,326.9c.2.2.9-.2.6-.5S334.4,326.6,334.6,326.9Z" fill="#1c8f49" fill-rule="evenodd"/>
                <path d="M328.1,326.4h1.1v-1.1h-1.1Z" fill="#1c8f49" fill-rule="evenodd"/>
                <path d="M220.7,325.8c-.1-.6-.6-.3-1.1,0a.6.6,0,0,0,.8.3Z" fill="#1c8f49" fill-rule="evenodd"/>
                <path d="M334.6,324.8c-.1-.2-.8.2-.5.5S334.9,325,334.6,324.8Z" fill="#1c8f49" fill-rule="evenodd"/>
                <path d="M268.4,324.8c.2-.8.8-1.1.6-2.2S267.5,324.9,268.4,324.8Z" fill="#1c8f49" fill-rule="evenodd"/>
                <path d="M234.3,323.7c-.2-.1-.8.3-.6.5S234.6,324,234.3,323.7Z" fill="#1c8f49" fill-rule="evenodd"/>
                <path d="M7.5,323.7c.9,1.5,3.2,0,3.3-1.1S7,321.8,7.5,323.7Z" fill="#1c8f49" fill-rule="evenodd"/>
                <path d="M14.6,321.6a.6.6,0,0,0-.8-.3l-.3.3C14.1,321.5,14.3,322.3,14.6,321.6Z" fill="#1c8f49" fill-rule="evenodd"/>
                <path d="M291.2,319.4c-.1-.1-.8.3-.5.5S291.5,319.7,291.2,319.4Z" fill="#1c8f49" fill-rule="evenodd"/>
                <path d="M285.8,319.9v-1h-1.6C284.1,319.8,284.7,320.1,285.8,319.9Z" fill="#1c8f49" fill-rule="evenodd"/>
                <path d="M221.3,318.3c-.2-.1-.9.3-.6.6S221.5,318.6,221.3,318.3Z" fill="#1c8f49" fill-rule="evenodd"/>
                <path d="M225.1,318.3c.1-1.2-.2-2-1.1-2.1S223.4,318.9,225.1,318.3Z" fill="#1c8f49" fill-rule="evenodd"/>
                <path d="M122.5,318.3c1.6-2.1-1.1-3.6-2.7-4.2A3.5,3.5,0,0,0,122.5,318.3Z" fill="#1c8f49" fill-rule="evenodd"/>
                <path d="M217.5,316.2c-.2-.1-.9.3-.6.5S217.7,316.5,217.5,316.2Z" fill="#1c8f49" fill-rule="evenodd"/>
                <path d="M9.1,316.2c.5-.1,1.1,0,1.1-.5S9.2,315.7,9.1,316.2Z" fill="#1c8f49" fill-rule="evenodd"/>
                <path d="M240.8,312.4v1.1C241.8,315.3,243.4,311.9,240.8,312.4Z" fill="#1c8f49" fill-rule="evenodd"/>
                <path d="M158.9,313.5c-.2-.1-.9.3-.6.6S159.2,313.8,158.9,313.5Z" fill="#1c8f49" fill-rule="evenodd"/>
                <path d="M4.8,314.1a2.7,2.7,0,0,1,.6-1.7H3.7C3.8,313.3,3.6,314.3,4.8,314.1Z" fill="#1c8f49" fill-rule="evenodd"/>
                <path d="M221.3,313c-.2-.2-.9.2-.6.5S221.5,313.3,221.3,313Z" fill="#1c8f49" fill-rule="evenodd"/>
                <path d="M50.4,313a.6.6,0,0,0-.8-.3l-.3.3C49.9,312.9,50.1,313.8,50.4,313Z" fill="#1c8f49" fill-rule="evenodd"/>
                <path d="M42.8,313.5h1.1v-1.1H42.8Z" fill="#1c8f49" fill-rule="evenodd"/>
                <path d="M7.5,313.5v-1.6H5.9C5.8,313.1,6.3,313.6,7.5,313.5Z" fill="#1c8f49" fill-rule="evenodd"/>
                <path d="M250,310.8c-.1-.1-.8.3-.5.6S250.3,311.1,250,310.8Z" fill="#1c8f49" fill-rule="evenodd"/>
                <path d="M5.9,311.4c0-.6.4-.7.5-1.1s-.6-.4-1-.5-.5.6-.6,1S5.5,311.3,5.9,311.4Z" fill="#1c8f49" fill-rule="evenodd"/>
                <path d="M230.5,310.3c0,.3.4.6.5,0S230.6,309.7,230.5,310.3Z" fill="#1c8f49" fill-rule="evenodd"/>
                <path d="M60.7,310.3c0-.3.1-.6.5-.5v-1.1C59.9,307.9,59.6,310.5,60.7,310.3Z" fill="#1c8f49" fill-rule="evenodd"/>
                <path d="M240.2,308.7c0-.3-.4-.6-.5,0S240.1,309.3,240.2,308.7Z" fill="#1c8f49" fill-rule="evenodd"/>
                <path d="M139.3,308.2c-.1-.2-.8.2-.5.5S139.6,308.4,139.3,308.2Z" fill="#1c8f49" fill-rule="evenodd"/>
                <path d="M191.4,306c-.4.1-1.1,0-1.1.6S191.4,306.5,191.4,306Z" fill="#1c8f49" fill-rule="evenodd"/>
                <path d="M205,305.5v-1.1h-1.6C203.3,305.4,203.9,305.7,205,305.5Z" fill="#1c8f49" fill-rule="evenodd"/>
                <path d="M120.4,305.5c.4-.1,1,0,1-.5S120.4,305,120.4,305.5Z" fill="#1c8f49" fill-rule="evenodd"/>
                <path d="M244,303.3c0-.2-.4-.6-.5,0S243.9,304,244,303.3Z" fill="#1c8f49" fill-rule="evenodd"/>
                <path d="M151.3,302.3c-.2-.2-.8.2-.6.5S151.6,302.6,151.3,302.3Z" fill="#1c8f49" fill-rule="evenodd"/>
                <path d="M4.8,301.2c-1.6-.8-1.6,2.4,0,1.6Z" fill="#1c8f49" fill-rule="evenodd"/>
                <path d="M328.1,301.7c-.1-.1-.8.3-.5.6S328.4,302,328.1,301.7Z" fill="#1c8f49" fill-rule="evenodd"/>
                <path d="M300.5,301.7c-.2-.1-.9.3-.6.6S300.7,302,300.5,301.7Z" fill="#1c8f49" fill-rule="evenodd"/>
                <path d="M18.4,300.7c-.2-.2-.9.2-.6.5S18.7,300.9,18.4,300.7Z" fill="#1c8f49" fill-rule="evenodd"/>
                <path d="M149.6,300.7v-2.2c-1-.1-1.1.6-2.1.6S148.2,300.8,149.6,300.7Z" fill="#1c8f49" fill-rule="evenodd"/>
                <path d="M250.5,299.6c0-.6.1-1.5-.5-1.6s-.1.6-.5.5S249.6,299.8,250.5,299.6Z" fill="#1c8f49" fill-rule="evenodd"/>
                <path d="M3.2,299.1c-.2-.2-.8.2-.6.5S3.5,299.3,3.2,299.1Z" fill="#1c8f49" fill-rule="evenodd"/>
                <path d="M132.3,298.5c0-.3-.4-.6-.6,0S132.2,299.1,132.3,298.5Z" fill="#1c8f49" fill-rule="evenodd"/>
                <path d="M100.3,297.4c-.4.2-1.1.1-1.1.6S100.3,298,100.3,297.4Z" fill="#1c8f49" fill-rule="evenodd"/>
                <path d="M162.1,297.4c.2.2.8-.2.6-.5S161.8,297.2,162.1,297.4Z" fill="#1c8f49" fill-rule="evenodd"/>
                <path d="M77,296.9c-.2-.1-.9.3-.6.5S77.2,297.2,77,296.9Z" fill="#1c8f49" fill-rule="evenodd"/>
                <path d="M1.5,295.8c-.1-.1-.8.3-.5.6S1.8,296.1,1.5,295.8Z" fill="#1c8f49" fill-rule="evenodd"/>
                <path d="M251.6,295.8h1.1v-1h-1.1Z" fill="#1c8f49" fill-rule="evenodd"/>
                <path d="M161.6,292.6a1.2,1.2,0,0,0,1.1,2.2C162.8,293.5,162.5,292.8,161.6,292.6Z" fill="#1c8f49" fill-rule="evenodd"/>
                <path d="M71.5,294.8c.2.1.9-.3.6-.6S71.3,294.5,71.5,294.8Z" fill="#1c8f49" fill-rule="evenodd"/>
                <path d="M18.4,294.2c.1.2.8-.2.5-.5S18.1,294,18.4,294.2Z" fill="#1c8f49" fill-rule="evenodd"/>
                <path d="M196.8,293.7a3.3,3.3,0,0,0,.6-2.7,2.4,2.4,0,0,1-1.6-.5C194.9,291.4,195.1,293.9,196.8,293.7Z" fill="#1c8f49" fill-rule="evenodd"/>
                <path d="M22.7,293.7v-1.6C21.1,291.3,21.1,294.5,22.7,293.7Z" fill="#1c8f49" fill-rule="evenodd"/>
                <path d="M321.6,292.6c-.1-.1-.8.3-.5.6S321.9,292.9,321.6,292.6Z" fill="#1c8f49" fill-rule="evenodd"/>
                <path d="M16.2,293.2v-1.6H14.6C14.5,292.7,15,293.3,16.2,293.2Z" fill="#1c8f49" fill-rule="evenodd"/>
                <path d="M17.8,290.5c-.5,0-.6-.4-1.1-.5s-.4.6-.5,1,.6.5,1.1.6S17.7,290.9,17.8,290.5Z" fill="#1c8f49" fill-rule="evenodd"/>
                <path d="M290.2,288.9v2.2a1.2,1.2,0,0,0,1.6-.6,1.3,1.3,0,0,0-.6-1.6Z" fill="#1c8f49" fill-rule="evenodd"/>
                <path d="M242.9,287.8h-2.1c-.2,1.8.9,2.3,1.6,3.2C242.4,289.8,243.3,289.4,242.9,287.8Z" fill="#1c8f49" fill-rule="evenodd"/>
                <path d="M36.8,289.4c-.1-.1-.8.3-.5.6S37.1,289.7,36.8,289.4Z" fill="#1c8f49" fill-rule="evenodd"/>
                <path d="M207.7,287.8c.1.2.8-.3.5-.5S207.4,287.5,207.7,287.8Z" fill="#1c8f49" fill-rule="evenodd"/>
                <path d="M39,287.3c.4-1.5-1.1-1.1-1.6-1.6C37,287.1,37.6,287.6,39,287.3Z" fill="#1c8f49" fill-rule="evenodd"/>
                <path d="M29.8,286.2c0-.3-.5-.6-.6,0S29.7,286.8,29.8,286.2Z" fill="#1c8f49" fill-rule="evenodd"/>
                <path d="M247.8,284.1c0-.3-.4-.7-.5,0S247.7,284.7,247.8,284.1Z" fill="#1c8f49" fill-rule="evenodd"/>
                <path d="M179.5,283.5h-1.1v1.1h1.1Z" fill="#1c8f49" fill-rule="evenodd"/>
                <path d="M2.1,283.5c.2-2.6-3-1.4-2.7.6C.9,284.5.8,283.3,2.1,283.5Z" fill="#1c8f49" fill-rule="evenodd"/>
                <path d="M219.6,283c-.1-.2-.8.2-.5.5S219.9,283.3,219.6,283Z" fill="#1c8f49" fill-rule="evenodd"/>
                <path d="M174.6,283.5c.7-.7.8-2.6-.5-2.7S173.2,283.5,174.6,283.5Z" fill="#1c8f49" fill-rule="evenodd"/>
                <path d="M72.6,281.4c1.3.1,2.1-.1,2.2-1.1S72.1,279.8,72.6,281.4Z" fill="#1c8f49" fill-rule="evenodd"/>
                <path d="M316.2,280.3c-.2-.1-.8.3-.5.5S316.5,280.6,316.2,280.3Z" fill="#1c8f49" fill-rule="evenodd"/>
                <path d="M270.1,280.3c.1-.6-.4-1.4-.6-.5S270,281.2,270.1,280.3Z" fill="#1c8f49" fill-rule="evenodd"/>
                <path d="M161,279.2c-.4.2-1,.1-1,.6S161,279.8,161,279.2Z" fill="#1c8f49" fill-rule="evenodd"/>
                <path d="M331.4,278.2c0-.3-.5-.6-.6,0S331.3,278.8,331.4,278.2Z" fill="#1c8f49" fill-rule="evenodd"/>
                <path d="M169.7,278.2c-.1-.2-.8.2-.5.5S170,278.4,169.7,278.2Z" fill="#1c8f49" fill-rule="evenodd"/>
                <path d="M15.1,278.7c-.1-.6.1-1.5-.5-1.6s-.1.6-.6.5S14.2,278.9,15.1,278.7Z" fill="#1c8f49" fill-rule="evenodd"/>
                <path d="M9.7,278.2c-.4.1-1.1,0-1.1.5S9.7,278.7,9.7,278.2Z" fill="#1c8f49" fill-rule="evenodd"/>
                <path d="M7.5,276c-1.2-.1-2,.1-2.1,1.1s.9.9,1.6,1.1S7.7,277.1,7.5,276Z" fill="#1c8f49" fill-rule="evenodd"/>
                <path d="M124.1,276.6c.2.1.9-.3.6-.6S123.9,276.3,124.1,276.6Z" fill="#1c8f49" fill-rule="evenodd"/>
                <path d="M275.5,275c-.2-.2-.8.2-.5.5S275.8,275.2,275.5,275Z" fill="#1c8f49" fill-rule="evenodd"/>
                <path d="M37.4,275.5c.1-1.2-.2-2-1.1-2.2a1.2,1.2,0,0,0-.6,1.6A1.3,1.3,0,0,0,37.4,275.5Z" fill="#1c8f49" fill-rule="evenodd"/>
                <path d="M199.6,273.9c0-.6-.5-1.4-.6-.6S199.4,274.7,199.6,273.9Z" fill="#1c8f49" fill-rule="evenodd"/>
                <path d="M297.2,271.2c0-.3-.4-.6-.5,0S297.1,271.8,297.2,271.2Z" fill="#1c8f49" fill-rule="evenodd"/>
                <path d="M64.5,270.7c-.4-.8-2.1-.1-2.2-1.1s-.2-1.3-1.1-1.1C60.4,271.1,63.9,272.8,64.5,270.7Z" fill="#1c8f49" fill-rule="evenodd"/>
                <path d="M65.6,270.7h1v-1.1h-1Z" fill="#1c8f49" fill-rule="evenodd"/>
                <path d="M314,269.6c.7-.7.4-1.6-.5-2.1C313.4,268.8,312.4,269.1,314,269.6Z" fill="#1c8f49" fill-rule="evenodd"/>
                <path d="M162.7,268.5c-.5.1-1.1,0-1.1.6S162.7,269,162.7,268.5Z" fill="#1c8f49" fill-rule="evenodd"/>
                <path d="M300.5,268c0-.5.4-.7.5-1.1s-.8-.7-1.6-.5A1.5,1.5,0,0,0,300.5,268Z" fill="#1c8f49" fill-rule="evenodd"/>
                <path d="M25.4,267.5a4.3,4.3,0,0,0,.6-2.7c-.9.1-2-.2-2.2.5C25.2,265.1,23.3,268.3,25.4,267.5Z" fill="#1c8f49" fill-rule="evenodd"/>
                <path d="M116,266.9c.9-.9-.3-2.4-1.1-3.2C114.1,264.5,114,267.4,116,266.9Z" fill="#1c8f49" fill-rule="evenodd"/>
                <path d="M26.5,265.8c0,.3.4.7.6,0S26.6,265.2,26.5,265.8Z" fill="#1c8f49" fill-rule="evenodd"/>
                <path d="M66.1,265.3c-.1-.1-.8.3-.5.5S66.4,265.6,66.1,265.3Z" fill="#1c8f49" fill-rule="evenodd"/>
                <path d="M42.8,264.2c-.2-.1-.8.3-.6.6S43.1,264.5,42.8,264.2Z" fill="#1c8f49" fill-rule="evenodd"/>
                <path d="M252.2,263.7c-.7.1-1.6-.1-1.7.5S252.1,264.3,252.2,263.7Z" fill="#1c8f49" fill-rule="evenodd"/>
                <path d="M36.3,263.2c-.4.1-1.1,0-1.1.5S36.3,263.7,36.3,263.2Z" fill="#1c8f49" fill-rule="evenodd"/>
                <path d="M241.9,262.1c-.2-.2-.9.3-.6.5S242.1,262.4,241.9,262.1Z" fill="#1c8f49" fill-rule="evenodd"/>
                <path d="M17.8,262.1c.2-1.2-.1-2-1.1-2.1S16.9,262,17.8,262.1Z" fill="#1c8f49" fill-rule="evenodd"/>
                <path d="M202.3,257.8h1.1v-1.1h-1.1Z" fill="#1c8f49" fill-rule="evenodd"/>
                <path d="M33.6,257.3c0,.5.9.6,1,0S34,256.9,33.6,257.3Z" fill="#1c8f49" fill-rule="evenodd"/>
                <path d="M22.7,256.7c0-.3-.4-.6-.5,0S22.6,257.3,22.7,256.7Z" fill="#1c8f49" fill-rule="evenodd"/>
                <path d="M132.8,256.2c0-.3-.4-.6-.5,0S132.7,256.8,132.8,256.2Z" fill="#1c8f49" fill-rule="evenodd"/>
                <path d="M17.3,254.6a2.5,2.5,0,0,1-.6,1.6c.7,0,.8.7,1.7.5S18.2,254.7,17.3,254.6Z" fill="#1c8f49" fill-rule="evenodd"/>
                <path d="M8.6,255.7c-.1-.2-.8.2-.5.5S8.9,255.9,8.6,255.7Z" fill="#1c8f49" fill-rule="evenodd"/>
                <path d="M158.9,255.1c0-.7.7-.7.5-1.6h-1.1C157.7,254.3,157.7,254.8,158.9,255.1Z" fill="#1c8f49" fill-rule="evenodd"/>
                <path d="M21.1,254.6c0-.3-.5-.6-.6,0S21,255.2,21.1,254.6Z" fill="#1c8f49" fill-rule="evenodd"/>
                <path d="M8.6,254.6c0-.3-.4-.6-.5,0S8.5,255.2,8.6,254.6Z" fill="#1c8f49" fill-rule="evenodd"/>
                <path d="M30.3,250.8V253a1.2,1.2,0,0,0,1.6-.6,1.3,1.3,0,0,0-.6-1.6A1.7,1.7,0,0,0,30.3,250.8Z" fill="#1c8f49" fill-rule="evenodd"/>
                <path d="M101.4,248.7c-.2-.1-.8.3-.6.5S101.6,249,101.4,248.7Z" fill="#1c8f49" fill-rule="evenodd"/>
                <path d="M15.7,244.4c0-.3-.5-.6-.6,0S15.6,245,15.7,244.4Z" fill="#1c8f49" fill-rule="evenodd"/>
                <path d="M26.5,243.3c1.3-1.3-.2-2.9-1.1-3.7s-.8.6-1.6.5A4,4,0,0,0,26.5,243.3Z" fill="#1c8f49" fill-rule="evenodd"/>
                <path d="M243.5,241.2c.1.2.8-.3.5-.5S243.2,240.9,243.5,241.2Z" fill="#1c8f49" fill-rule="evenodd"/>
                <path d="M103,236.4c0-.3-.4-.6-.5,0S102.9,237,103,236.4Z" fill="#1c8f49" fill-rule="evenodd"/>
                <path d="M71.5,235.3l.6-1.1c-.6-.7-2.5,2-.6,1.6C71.6,235.8,71.5,235.3,71.5,235.3Z" fill="#1c8f49" fill-rule="evenodd"/>
                <path d="M188.7,233.7h-1.1v1.1h1.1Z" fill="#1c8f49" fill-rule="evenodd"/>
                <path d="M114.4,233.7c0-.3-.5-.6-.6,0S114.3,234.3,114.4,233.7Z" fill="#1c8f49" fill-rule="evenodd"/>
                <path d="M238.6,233.2c-.1-.2-.8.2-.5.5S238.9,233.4,238.6,233.2Z" fill="#1c8f49" fill-rule="evenodd"/>
                <path d="M335.2,232.6c-.4.2-1.1,0-1.1.6S335.2,233.2,335.2,232.6Z" fill="#1c8f49" fill-rule="evenodd"/>
                <path d="M4.8,232.6c-.6.1-1.5-.1-1.6.6S4.7,233.3,4.8,232.6Z" fill="#1c8f49" fill-rule="evenodd"/>
                <path d="M239.7,232.6c-.1-.6.1-1.5-.5-1.6s-.1.7-.6.6S238.8,232.8,239.7,232.6Z" fill="#1c8f49" fill-rule="evenodd"/>
                <path d="M264.7,231.6h1c0-.6.5-.7.6-1.1S264.4,230.4,264.7,231.6Z" fill="#1c8f49" fill-rule="evenodd"/>
                <path d="M307.5,228.3a1.6,1.6,0,0,0-1.6,1.1C306.7,229.4,307.8,229.5,307.5,228.3Z" fill="#1c8f49" fill-rule="evenodd"/>
                <path d="M257.1,228.9c-.2-.2-.9.2-.6.5S257.3,229.2,257.1,228.9Z" fill="#1c8f49" fill-rule="evenodd"/>
                <path d="M104.6,228.9c-.1-.2-.8.2-.5.5S104.9,229.2,104.6,228.9Z" fill="#1c8f49" fill-rule="evenodd"/>
                <path d="M212.6,226.2h-1.1v1.1h1.1Z" fill="#1c8f49" fill-rule="evenodd"/>
                <path d="M233.2,225.7v-3.2c-2-.2-1.7,1.9-2.2,3.2Z" fill="#1c8f49" fill-rule="evenodd"/>
                <path d="M52,225.1c.2.2.8-.2.5-.5S51.7,224.9,52,225.1Z" fill="#1c8f49" fill-rule="evenodd"/>
                <path d="M120.9,223.5c-.2-.1-.8.3-.5.6S121.2,223.8,120.9,223.5Z" fill="#1c8f49" fill-rule="evenodd"/>
                <path d="M282.6,223.5c.1.2.8-.2.5-.5S282.3,223.2,282.6,223.5Z" fill="#1c8f49" fill-rule="evenodd"/>
                <path d="M72.1,221.9c.1.7-.1,1.5.5,1.6a2.4,2.4,0,0,0,2.2-2.1C73.1,222,73.3,221.2,72.1,221.9Z" fill="#1c8f49" fill-rule="evenodd"/>
                <path d="M63.9,221.9c-.1-.1-.8.3-.5.6S64.2,222.2,63.9,221.9Z" fill="#1c8f49" fill-rule="evenodd"/>
                <path d="M231.6,221.4c.3-1.3-2.2-1.2-1.7,0A.9.9,0,0,0,231.6,221.4Z" fill="#1c8f49" fill-rule="evenodd"/>
                <path d="M225.1,221.9c-.3-1,.7-3.2-1.1-2.7C223.9,220.6,223.9,221.8,225.1,221.9Z" fill="#1c8f49" fill-rule="evenodd"/>
                <path d="M158.3,217.1c-1.2-.2-2,.1-2.1,1.1s1.2.6,2.1.5Z" fill="#1c8f49" fill-rule="evenodd"/>
                <path d="M121.4,218.2c0-.3-.4-.6-.5,0S121.3,218.8,121.4,218.2Z" fill="#1c8f49" fill-rule="evenodd"/>
                <path d="M73.7,216H71a2.9,2.9,0,0,1-.6,2.2C72.8,218.7,72.9,217,73.7,216Z" fill="#1c8f49" fill-rule="evenodd"/>
                <path d="M168.6,215.5h-1.1c0,.7-.6.7-.5,1.6h1.6Z" fill="#1c8f49" fill-rule="evenodd"/>
                <path d="M265.2,216c0-.7.7-.7.5-1.6h-1C264.1,215.2,264.1,215.7,265.2,216Z" fill="#1c8f49" fill-rule="evenodd"/>
                <path d="M273.9,215c-.2-.2-.8.2-.6.5S274.2,215.2,273.9,215Z" fill="#1c8f49" fill-rule="evenodd"/>
                <path d="M4.3,215c-.2-.2-.9.2-.6.5S4.5,215.2,4.3,215Z" fill="#1c8f49" fill-rule="evenodd"/>
                <path d="M190.3,214.4c0-.5-.9-.7-1.1,0S190.1,215.2,190.3,214.4Z" fill="#1c8f49" fill-rule="evenodd"/>
                <path d="M169.2,215c.1.1.8-.3.5-.6S168.9,214.7,169.2,215Z" fill="#1c8f49" fill-rule="evenodd"/>
                <path d="M145.9,212.3h-1.1v1h1.1Z" fill="#1c8f49" fill-rule="evenodd"/>
                <path d="M159.4,212.3c0,.3.4.6.6,0S159.5,211.7,159.4,212.3Z" fill="#1c8f49" fill-rule="evenodd"/>
                <path d="M86.2,210.7c0-.3-.5-.6-.6,0S86.1,211.3,86.2,210.7Z" fill="#1c8f49" fill-rule="evenodd"/>
                <path d="M141,209.6h-1.1v1.1H141Z" fill="#1c8f49" fill-rule="evenodd"/>
                <path d="M26.5,210.7c.2.1.8-.3.6-.6S26.2,210.4,26.5,210.7Z" fill="#1c8f49" fill-rule="evenodd"/>
                <path d="M4.3,210.1c0,.3.4.6.5,0S4.4,209.5,4.3,210.1Z" fill="#1c8f49" fill-rule="evenodd"/>
                <path d="M333.5,209.1c-.1-.7-.6-.4-1,0S333.4,209.7,333.5,209.1Z" fill="#1c8f49" fill-rule="evenodd"/>
                <path d="M289.6,209.1c-.1-.2-.8.2-.5.5S289.9,209.3,289.6,209.1Z" fill="#1c8f49" fill-rule="evenodd"/>
                <path d="M202.3,208h-1.1c0,.5-.5.6-.6,1.1s.8.6,1.7.5Z" fill="#1c8f49" fill-rule="evenodd"/>
                <path d="M26.5,209.1c0-.6.4-.7.6-1.1s-1.9-.1-1.7,1.1Z" fill="#1c8f49" fill-rule="evenodd"/>
                <path d="M159.4,208.5h2.2c.2-1.3-1-1.1-.6-2.7C158.6,206.1,160.2,207,159.4,208.5Z" fill="#1c8f49" fill-rule="evenodd"/>
                <path d="M4.8,208c-.1-.2-.8.2-.5.5S5.1,208.3,4.8,208Z" fill="#1c8f49" fill-rule="evenodd"/>
                <path d="M141,206.4v-1.1h-1.7C139.3,206.3,139.9,206.6,141,206.4Z" fill="#1c8f49" fill-rule="evenodd"/>
                <path d="M48.2,205.8c-.1-.1-.8.3-.5.6S48.5,206.1,48.2,205.8Z" fill="#1c8f49" fill-rule="evenodd"/>
                <path d="M164.8,205.3c-.1-.1-.8.3-.5.5S165.1,205.6,164.8,205.3Z" fill="#1c8f49" fill-rule="evenodd"/>
                <path d="M169.7,204.2h-1.1v1.1h1.1Z" fill="#1c8f49" fill-rule="evenodd"/>
                <path d="M171.9,203.2c-.4.1-1.1,0-1.1.5S171.9,203.7,171.9,203.2Z" fill="#1c8f49" fill-rule="evenodd"/>
                <path d="M129.6,202.6h-1.1v1.1h1.1Z" fill="#1c8f49" fill-rule="evenodd"/>
                <path d="M48.7,203.2c0-.3-.4-.6-.5,0S48.6,203.8,48.7,203.2Z" fill="#1c8f49" fill-rule="evenodd"/>
                <path d="M320.5,202.1c0-.3-.4-.6-.5,0S320.4,202.7,320.5,202.1Z" fill="#1c8f49" fill-rule="evenodd"/>
                <path d="M36.3,198.9H35.2V201h1.1Z" fill="#1c8f49" fill-rule="evenodd"/>
                <path d="M322.7,199.4c-.6.1-1.5-.1-1.6.6S322.6,200,322.7,199.4Z" fill="#1c8f49" fill-rule="evenodd"/>
                <path d="M323.2,197.8c-.4.1-1,0-1,.5S323.2,198.3,323.2,197.8Z" fill="#1c8f49" fill-rule="evenodd"/>
                <path d="M207.7,197.8c-.2-.1-.8.3-.5.5S208,198.1,207.7,197.8Z" fill="#1c8f49" fill-rule="evenodd"/>
                <path d="M288,196.7a1.8,1.8,0,0,0-1.7,1.1C287.2,197.8,288.2,197.9,288,196.7Z" fill="#1c8f49" fill-rule="evenodd"/>
                <path d="M320,196.7c-.2-.1-.8.3-.6.6S320.3,197,320,196.7Z" fill="#1c8f49" fill-rule="evenodd"/>
                <path d="M150.2,196.2v-1.1C148,193,147.2,198.2,150.2,196.2Z" fill="#1c8f49" fill-rule="evenodd"/>
                <path d="M254.3,195.1c-.1-.1-.8.3-.5.6S254.6,195.4,254.3,195.1Z" fill="#1c8f49" fill-rule="evenodd"/>
                <path d="M61.2,193.5c0-.3-.4-.6-.5,0S61.1,194.1,61.2,193.5Z" fill="#1c8f49" fill-rule="evenodd"/>
                <path d="M332.5,192.5c-.6,0-.7-.5-1.1-.6s-.5.7-.6,1.1.7.4,1.1.5S332.4,192.9,332.5,192.5Z" fill="#1c8f49" fill-rule="evenodd"/>
                <path d="M92.7,193c-.2-.2-.8.3-.6.5S93,193.3,92.7,193Z" fill="#1c8f49" fill-rule="evenodd"/>
                <path d="M323.8,191.9c0-.5.4-.6.5-1.1s-1.9,0-1.6,1.1Z" fill="#1c8f49" fill-rule="evenodd"/>
                <path d="M282.6,190.8c0-.2-.5-.6-.6,0S282.4,191.5,282.6,190.8Z" fill="#1c8f49" fill-rule="evenodd"/>
                <path d="M243.5,189.8h-1.1v1h1.1Z" fill="#1c8f49" fill-rule="evenodd"/>
                <path d="M219.6,188.7c-.1-.1-.8.3-.5.5S219.9,189,219.6,188.7Z" fill="#1c8f49" fill-rule="evenodd"/>
                <path d="M175.7,188.7c.1.2.8-.3.5-.5S175.4,188.4,175.7,188.7Z" fill="#1c8f49" fill-rule="evenodd"/>
                <path d="M127.4,188.2c-.1-.7-.6-.4-1.1,0S127.3,188.8,127.4,188.2Z" fill="#1c8f49" fill-rule="evenodd"/>
                <path d="M159.4,187.1c0-.5-.9-.7-1.1,0S159.2,187.9,159.4,187.1Z" fill="#1c8f49" fill-rule="evenodd"/>
                <path d="M169.7,185.5c-1.7.3-1.7-1-2.7,0C166.8,188,169.5,186.9,169.7,185.5Z" fill="#1c8f49" fill-rule="evenodd"/>
                <path d="M263.6,185h-1.7v1.6h1.7Z" fill="#1c8f49" fill-rule="evenodd"/>
                <path d="M175.7,186.6v-1.1c-.6,0-.7-.4-1.1-.5S174.5,186.8,175.7,186.6Z" fill="#1c8f49" fill-rule="evenodd"/>
                <path d="M111.7,182.3a.6.6,0,0,0-.8-.3l-.3.3C111.2,182.2,111.4,183.1,111.7,182.3Z" fill="#1c8f49" fill-rule="evenodd"/>
                <path d="M276,181.7c.2-1.2-.1-2-1-2.1s-.8,1-.6,2.1Z" fill="#1c8f49" fill-rule="evenodd"/>
                <path d="M118.7,179.6c-.1-.2-.8.3-.5.5S119,179.9,118.7,179.6Z" fill="#1c8f49" fill-rule="evenodd"/>
                <path d="M52.5,178h-1v1.1h1Z" fill="#1c8f49" fill-rule="evenodd"/>
                <path d="M50.9,178c-.1-.2-.8.2-.5.5S51.2,178.3,50.9,178Z" fill="#1c8f49" fill-rule="evenodd"/>
              </g>
            </g>
          </g>
        </g>
        <rect y="327.4" width="335" height="7.56" fill="url(#e4ffbd7a-7f4a-49c8-b283-f046809f28e7)"/>
        <g>
          <path d="M286,357.8c28,14,50.9-.1,51-31.4V236c0-31.3-22.9-45.5-50.9-31.5L183.7,255.6c-28.1,14-28.1,36.9-.1,50.9Z" fill="url(#ede41a57-5b5e-49d7-b623-cc8f0ebebf5f)"/>
          <path d="M285.7,354.9c27.4,13.7,49.9-.1,49.9-30.8V235.5c0-30.6-22.5-44.5-49.9-30.8L185.4,254.8c-27.4,13.7-27.4,36.1,0,49.9Z" fill="#f79647"/>
        </g>
        <g>
          <g>
            <path d="M41.6,143.5h.5a3,3,0,0,1,2.8,3.3,3.1,3.1,0,1,1-6.1-.5A3,3,0,0,1,41.6,143.5Z" fill="#aaadae"/>
            <g>
              <path d="M39.5,146.5a3.1,3.1,0,0,0,3.4,2.8h0a3.2,3.2,0,0,0,2.8-3.4,3.1,3.1,0,0,0-2.9-2.7h-.5a3,3,0,0,0-2.8,3.2Z" fill="#fff"/>
              <path d="M39.5,146.5a3.1,3.1,0,0,0,3.4,2.8h0c-2.9-3.9-.2-6.1-.1-6.1h-.5a3,3,0,0,0-2.8,3.2Z" fill="#dcd9d7"/>
            </g>
          </g>
          <g>
            <path d="M13.7,125.5a26.1,26.1,0,0,1,2.5-12.3,6.6,6.6,0,0,1,.1-2.8V110h.1v-5h0l-.2-.2c-.6-.6-.6-2.7-.6-3.5a1.7,1.7,0,0,1,.7-1.6l.9-.2,2.8-.3L16.1,81h0l-.3-.4V79.5h0L15,76.1l-.4-1.7c-2.1-2.4-1.9-3.9-1.3-4.9a6.4,6.4,0,0,1,2-2,10.2,10.2,0,0,1,4.5-1.3h1c1.6.1,2.8,1.8,3.2,2.6s.1.5-.1.6a15.2,15.2,0,0,1-4,3.2h0a16.6,16.6,0,0,1-3.3,1.5l-.6.2h0v.9c.1.3.3.5.2.8h0l.6,3.1.2,1.2a.8.8,0,0,1-.2.5h0l4,18.2h1.9L21.4,87.6l-.3-2.4h-.3L20.5,83l-.3.2s-1,.1-1.1-1.6.6-2.8,3.5-4.2l.8-.3h.2c3.5-1.4,5.2,1.9,5.4,3.3s-2.4,1.6-4.3,1.8H23.1a3.2,3.2,0,0,0-1.4.3l.4,2.7h-.3l1.7,13.6,1.7-.2h1.4L31.1,77h0l.3-4.2c0-.1.1-.3.2-.3l1.2-.4c.2-.1.3-.2.3-.4v-1l.2-1.8s-.1-.5-1.9-.5a1.1,1.1,0,0,1-1-1.3v-.2l.2-.5a1.6,1.6,0,0,1,.9-.7,18.5,18.5,0,0,1,4.7-.2h0a20,20,0,0,1,3.5.9l1.1.6A2.6,2.6,0,0,1,42,68.5a11,11,0,0,1,.2,1.8.7.7,0,0,1-.5.9h-.5L38.6,70a6.3,6.3,0,0,0-2.7-.6h-.2l-.9,3.1c-.1.1-.1.2-.3.2l-1.4.5c-.2.1-.3.3-.4.4l-.9,3.5h0L27.4,98.7l.5.2a3.9,3.9,0,0,1,1.4,1.7l.5-1.3h-.1a.2.2,0,0,1-.1-.3h0L31,95.6l.4-.9h0l1.1-2.8a4.3,4.3,0,0,1-1.2-1.1l-.6-1.2c0-.2.1-.8.3-.9a3.9,3.9,0,0,1,2.3-.7,17.9,17.9,0,0,1,4,.2l.8.2a7.8,7.8,0,0,1,4,2.1c.2.2.2.6,0,.7a9.6,9.6,0,0,1-3.2,2.5h-.5a5,5,0,0,1-2.7-.4l-.8-.2-1.1-.5-2.9,6.8h-.4l-1,2.3h0c-.1.1-.1.2-.1.4l5.2-.4a10.4,10.4,0,0,1,1.1,3.8c.1,1.1.3,2.2.5,3.3h0v.2l.3,1.9h0c.4,3,.9,5.9,1.2,8.9,0,.4.1.8.1,1.2h0c.2,1.2.3,2.3.4,3.5h.3c2.1.8,2.6,11.3,2.6,16.6a4.8,4.8,0,0,1-.4,2.9,2.1,2.1,0,0,1-1.4.7,2.8,2.8,0,0,1-1.5-.4,3.6,3.6,0,0,0-.2,1l-.2.5a1.8,1.8,0,0,1,1.5,1.5,2.1,2.1,0,0,1-1.1,2,5.5,5.5,0,0,1-2.5.7h-.4l-10.4.8a8.2,8.2,0,0,1-3.5-.2,2.7,2.7,0,0,1-1.6-2.2,1.7,1.7,0,0,1,.1-.7,1.5,1.5,0,0,1,.6-.9,1,1,0,0,1-.4-.7c-.3-1.4-.5-2.7-.7-4.1h-.1c-.2-.2-.2-.6-.3-.9s-.1-.8-.2-1.3A27.1,27.1,0,0,1,13.7,125.5Z" fill="#aaadae"/>
            <g>
              <path d="M33.7,146.1l2.9-.2a2.4,2.4,0,0,1,2.5,1,1.8,1.8,0,0,1-.9,2.4,7.3,7.3,0,0,1-2.9.7l-10.4.8a8.2,8.2,0,0,1-3.5-.2c-1-.5-1.9-1.7-1.5-2.7s2.2-1.7,3.6-1.7c3.4-.2,6.8-.2,10.2-.1" fill="#dcd9d7"/>
              <path d="M20.4,142.6a.7.7,0,0,1-.8-.4,1.4,1.4,0,0,1-.3-.9,13.2,13.2,0,0,1-.2-2.8c0-.1,0-.3.1-.3s.3,0,.4.2h0a8.5,8.5,0,0,1,.9,3.8" fill="#dcd9d7"/>
              <path d="M20.2,142.5a1.1,1.1,0,0,1-.9-.4c-.2-.2-.2-.6-.3-.9a9.4,9.4,0,0,1-.1-2.9c0-.1,0-.2.1-.2l.4.2a7.3,7.3,0,0,1,.8,3.8" fill="#99442e"/>
              <g>
                <path d="M31.9,68c1.8,0,1.9.5,1.9.5l1,.2h.5l.8.2h.3a5.8,5.8,0,0,1,2.6.6l2.6,1.1c.5.3,1.1-.2,1.1-.8a9.7,9.7,0,0,0-.3-1.8,1.9,1.9,0,0,0-1.1-1.5L40.2,66a20,20,0,0,0-3.5-.9h0a18.5,18.5,0,0,0-4.7.2,1.6,1.6,0,0,0-.9.7c0,.2-.1.3-.2.5a1.2,1.2,0,0,0,.8,1.5Z" fill="#c3c3c2"/>
                <path d="M31.5,76.6h.7l1-3.5c0-.2.1-.3.3-.4l1.5-.5c.1,0,.1-.1.2-.2l.9-3.1-.8-.2h-.5l-1-.2-.2,1.8v1a.5.5,0,0,1-.2.4l-1.3.4c-.1,0-.2.2-.2.3Z" fill="#2e292f"/>
                <polygon points="32.2 76.7 31.5 76.6 31.5 76.6 26.1 102.6 25.5 105.6 25.4 106 25.3 106.6 25.2 107.2 25.1 107.8 25 108.2 25.5 108.3 25.8 108.4 25.9 108 26 107.4 26.1 106.8 26.2 106.2 26.3 105.8 26.9 102.8 32.2 76.7" fill="#a8acb0"/>
                <rect x="24.5" y="103.8" width="3.5" height="0.99" transform="translate(-81.1 111.3) rotate(-79.6)" fill="#2e292f"/>
                <path d="M26.7,106.3a.5.5,0,0,0-.3-.5h-.9a.8.8,0,0,0-.4.4v2.4l-2.3,11.5-.3,1.8a.4.4,0,0,0,.1.5h.9c.2.1.5-.1.5-.4v-.6l.2-.6v-1.2Z" fill="#df6038"/>
                <path d="M34,67.6a16,16,0,0,1,6.7,1.8" fill="none" stroke="#909597" stroke-linecap="round" stroke-miterlimit="10" stroke-width="0.26"/>
                <path d="M33.8,67a18.1,18.1,0,0,1,7.5,2.2" fill="none" stroke="#909597" stroke-linecap="round" stroke-miterlimit="10" stroke-width="0.26"/>
                <path d="M33.4,66.5s4.8.2,8,2.1" fill="none" stroke="#909597" stroke-linecap="round" stroke-miterlimit="10" stroke-width="0.26"/>
                <path d="M34,66.1A14.1,14.1,0,0,1,41,68" fill="none" stroke="#909597" stroke-linecap="round" stroke-miterlimit="10" stroke-width="0.26"/>
                <path d="M34.7,65.6a16.2,16.2,0,0,1,6.1,1.6" fill="none" stroke="#909597" stroke-linecap="round" stroke-miterlimit="10" stroke-width="0.26"/>
                <polygon points="23.9 120.8 23.1 120.7 22.3 120.5 22.2 121.1 23 121.3 23.7 121.4 23.9 120.8" fill="#2e292f"/>
                <polygon points="24.1 119.6 22.6 119.4 22.4 119.9 24 120.2 24.1 119.6" fill="#fff"/>
                <polygon points="26.3 108.1 24.8 107.8 24.7 108.4 26.2 108.7 26.3 108.1" fill="#2e292f"/>
                <polygon points="26.6 106.9 25 106.6 24.9 107.2 26.4 107.5 26.6 106.9" fill="#fff"/>
              </g>
              <polygon points="26.7 119.1 25.5 121 25.6 121.2 26.8 119.3 26.7 119.1" fill="#df6038"/>
              <polygon points="26.5 118.3 25.4 120.3 25.4 120.5 26.6 118.5 26.5 118.3" fill="#fff"/>
              <polygon points="26.2 117.1 25 119 25.1 119.2 26.3 117.3 26.2 117.1" fill="#df6038"/>
              <polygon points="26.1 116.3 24.9 118.3 24.9 118.5 26.1 116.5 26.1 116.3" fill="#fff"/>
              <path d="M17,102.7a3.2,3.2,0,0,0,1.7,2.6,10.9,10.9,0,0,0,3.1.8,23.6,23.6,0,0,0,7.5-.3,8.8,8.8,0,0,0,5.8-4.2" fill="#2e292f"/>
              <polygon points="25.8 115.1 24.6 117 24.6 117.2 25.8 115.3 25.8 115.1" fill="#df6038"/>
              <polygon points="25.6 114.3 24.4 116.3 24.5 116.5 25.6 114.5 25.6 114.3" fill="#fff"/>
              <g>
                <g>
                  <polygon points="16.8 78 16.5 78.1 16 78.2 16.6 80.6 22 105.2 22.5 107.6 22.9 107.5 23.3 107.5 22.7 105 17.3 80.5 16.8 78" fill="#a8acb0"/>
                  <path d="M23.3,105.4a.4.4,0,0,0-.6-.4H22a.4.4,0,0,0-.2.5l3.3,14.6c.1.2.4.4.6.3h.6a.5.5,0,0,0,.4-.6Z" fill="#2e292f"/>
                </g>
                <g>
                  <path d="M15,74h1.4l.6-.2a16.6,16.6,0,0,0,3.3-1.5h0a13.8,13.8,0,0,0,4-3.2c.2-.1.2-.4.1-.6s-1.6-2.5-3.2-2.6h-1a10.2,10.2,0,0,0-4.5,1.3,9.5,9.5,0,0,0-2,2C13.1,70.1,12.9,71.6,15,74Z" fill="#2e292f"/>
                  <path d="M15,74l.4,1.7h0l.6,3.4v.3l.2.8c0,.2.1.3.3.4H17l.3-.2c.2-.1.2-.3.2-.5l-.2-1.2-.6-3.1h0L16.4,74Z" fill="#2e292f"/>
                </g>
                <polygon points="15.4 75.7 16 79.1 16 79.1 16.2 79 16.2 79 17 78.8 17.3 78.8 16.7 75.7 16.7 75.6 16.7 75.5 15.4 75.7 15.4 75.7" fill="#df6038"/>
                <path d="M17.1,71.6c.4-.2.7.2,1.2-.1s.1-.7.6-1,.7.2,1.2-.1.2-.7.6-1,.8.2,1.2-.1" fill="none" stroke="#a8acb0" stroke-linecap="round" stroke-miterlimit="10" stroke-width="0.13"/>
                <path d="M16.7,70.4c.4-.3.7.2,1.2-.1s.2-.8.6-1,.7.2,1.2-.1.2-.8.6-1,.8.1,1.2-.1" fill="none" stroke="#a8acb0" stroke-linecap="round" stroke-miterlimit="10" stroke-width="0.13"/>
                <path d="M15.6,69.8c.4-.3.7.2,1.2-.1s.2-.7.6-1,.7.2,1.2-.1.2-.7.6-1,.8.2,1.2-.1" fill="none" stroke="#a8acb0" stroke-linecap="round" stroke-miterlimit="10" stroke-width="0.13"/>
              </g>
              <g>
                <polygon points="21.2 82 21.2 82.4 21.5 84.8 21.8 87.2 23.8 103.4 24.1 105.9 24.2 106.7 24.4 107.9 24.8 107.9 25.1 107.9 24.9 106.6 24.8 105.8 24.5 103.3 22.2 84.8 21.9 82.3 21.9 82.1 21.8 81.9 21.7 81.9 21.2 82" fill="#a8acb0"/>
                <polygon points="20.8 81.6 20.9 82.6 21.2 84.9 21.5 84.8 21.9 84.8 22.2 84.8 22.5 84.7 22.1 82 22.1 81.4 21.7 81.5 20.8 81.6" fill="#2e292f"/>
                <rect x="24.1" y="103.4" width="0.9" height="3.31" transform="translate(-13 3.9) rotate(-7.2)" fill="#df6038"/>
                <path d="M19.5,81.2c.2,1.7,1.1,1.6,1.1,1.6l.3-.2.3-.2.5-.3h.4a3.2,3.2,0,0,1,1.4-.3h1.6c1.9-.2,4.5-.7,4.3-1.8s-1.9-4.7-5.4-3.3h-.2L23,77C20.1,78.4,19.4,79.5,19.5,81.2Z" fill="#c3c3c2"/>
                <path d="M27.4,123.9,25.2,106a.2.2,0,0,0-.2-.2h-.8c-.1,0-.1,0-.1.1h0c-.1,0-.2.2-.2.3l2.3,17.9a.3.3,0,0,0,.3.3h.6A.5.5,0,0,0,27.4,123.9Z" fill="#df6038"/>
                <path d="M27.8,79.1l-.2-.2c-.2,0-.2.2-.2.3l.2.2C27.7,79.3,27.8,79.2,27.8,79.1Z" fill="#eae7e8"/>
                <path d="M27.3,79.5c0-.2-.1-.2-.2-.2a.2.2,0,1,0,0,.4Z" fill="#eae7e8"/>
                <path d="M26.8,79.8l-.2-.2c-.2,0-.2.1-.2.3s.1.2.2.1a.2.2,0,0,0,.2-.2Z" fill="#eae7e8"/>
                <path d="M26.3,80.1c0-.1-.1-.2-.2-.1s-.2.1-.2.2l.2.2C26.2,80.4,26.3,80.3,26.3,80.1Z" fill="#eae7e8"/>
                <path d="M25.8,80.5l-.2-.2c-.2,0-.2.1-.2.2a.2.2,0,0,0,.2.2Z" fill="#eae7e8"/>
                <path d="M25.3,80.8l-.2-.2c-.2.1-.3.2-.2.3l.2.2C25.2,81.1,25.3,80.9,25.3,80.8Z" fill="#eae7e8"/>
                <path d="M27.7,78.2a.2.2,0,0,0-.2-.2c-.1,0-.2.2-.2.3s.1.2.3.2S27.8,78.3,27.7,78.2Z" fill="#eae7e8"/>
                <path d="M27.2,78.6c0-.2-.1-.2-.2-.2l-.2.2c0,.1.1.2.3.2S27.3,78.7,27.2,78.6Z" fill="#eae7e8"/>
                <path d="M26.7,78.9a.2.2,0,0,0-.2-.2c-.1,0-.2.1-.2.3s.1.2.3.1S26.8,79,26.7,78.9Z" fill="#eae7e8"/>
                <path d="M26.2,79.2c0-.1-.1-.2-.2-.1a.2.2,0,1,0,0,.4C26.2,79.5,26.3,79.4,26.2,79.2Z" fill="#eae7e8"/>
                <path d="M25.7,79.6l-.2-.2-.2.2c0,.2.1.2.2.2A.2.2,0,0,0,25.7,79.6Z" fill="#eae7e8"/>
                <path d="M25.2,79.9a.2.2,0,0,0-.2-.2c-.1,0-.2.2-.2.3a.2.2,0,0,0,.2.2C25.2,80.1,25.2,80,25.2,79.9Z" fill="#eae7e8"/>
                <path d="M24.7,80.3a.2.2,0,1,0-.4,0h0c0,.2.1.2.2.2A.2.2,0,0,0,24.7,80.3Z" fill="#eae7e8"/>
                <path d="M24.2,80.6c0-.1-.1-.2-.2-.1a.2.2,0,1,0,0,.4h0C24.2,80.9,24.2,80.8,24.2,80.6Z" fill="#eae7e8"/>
                <path d="M26.8,77.9c0-.2-.1-.3-.2-.2a.2.2,0,0,0-.2.2l.2.2C26.8,78.1,26.8,78,26.8,77.9Z" fill="#eae7e8"/>
                <path d="M26.3,78.2a.2.2,0,1,0-.4,0h0c0,.2.1.2.2.2Z" fill="#eae7e8"/>
                <path d="M25.8,78.5l-.2-.2-.2.3a.2.2,0,0,0,.2.2C25.8,78.8,25.8,78.7,25.8,78.5Z" fill="#eae7e8"/>
                <path d="M25.3,78.9a.2.2,0,1,0-.4,0h0l.2.2C25.3,79.1,25.3,79,25.3,78.9Z" fill="#eae7e8"/>
                <path d="M24.8,79.2a.2.2,0,0,0-.2-.2c-.1,0-.2.2-.2.3a.2.2,0,0,0,.2.2Z" fill="#eae7e8"/>
                <path d="M24.3,79.6c0-.2-.1-.2-.2-.2l-.2.2a.2.2,0,1,0,.4,0Z" fill="#eae7e8"/>
                <path d="M23.8,79.9c0-.1-.2-.2-.3-.2l-.2.3.3.2Z" fill="#eae7e8"/>
                <path d="M23.2,80.3a.2.2,0,1,0-.4,0h0c0,.2.1.2.2.2A.2.2,0,0,0,23.2,80.3Z" fill="#eae7e8"/>
                <path d="M22.7,80.7c0-.2-.1-.2-.3-.2a.2.2,0,0,0-.2.2l.3.2A.2.2,0,0,0,22.7,80.7Z" fill="#eae7e8"/>
                <path d="M25.9,77.5a.2.2,0,0,0-.2-.2l-.2.2c0,.2.1.2.2.2A.2.2,0,0,0,25.9,77.5Z" fill="#eae7e8"/>
                <path d="M25.4,77.8a.2.2,0,0,0-.2-.2c-.1.1-.2.2-.2.3l.2.2C25.3,78.1,25.4,77.9,25.4,77.8Z" fill="#eae7e8"/>
                <path d="M24.9,78.2a.2.2,0,1,0-.4,0h0l.2.2A.2.2,0,0,0,24.9,78.2Z" fill="#eae7e8"/>
                <path d="M24.4,78.5a.2.2,0,0,0-.2-.2c-.2,0-.2.1-.2.3a.2.2,0,0,0,.2.2Z" fill="#eae7e8"/>
                <path d="M23.9,78.9c0-.2-.1-.2-.2-.2a.2.2,0,0,0-.2.2l.2.2Z" fill="#eae7e8"/>
                <path d="M23.4,79.2a.2.2,0,0,0-.2-.2c-.2,0-.2.1-.2.2s.1.3.2.2A.2.2,0,0,0,23.4,79.2Z" fill="#eae7e8"/>
                <path d="M22.9,79.6l-.3-.2c-.1,0-.2.1-.2.3a.2.2,0,0,0,.3.1h0a.2.2,0,0,0,.2-.2Z" fill="#eae7e8"/>
                <path d="M22.3,80l-.2-.2c-.1,0-.2.1-.2.3a.2.2,0,0,0,.2.2Z" fill="#eae7e8"/>
                <path d="M24.4,77.7a.2.2,0,0,0-.3-.1h0l-.2.2.3.2C24.3,78,24.4,77.9,24.4,77.7Z" fill="#eae7e8"/>
                <path d="M23.9,78.1l-.3-.2-.2.2c.1.2.2.2.3.2A.2.2,0,0,0,23.9,78.1Z" fill="#eae7e8"/>
                <path d="M23.4,78.4l-.3-.2-.2.3.3.2C23.3,78.7,23.4,78.5,23.4,78.4Z" fill="#eae7e8"/>
                <path d="M22.9,78.8c-.1-.2-.2-.2-.3-.2l-.2.2c0,.1.2.2.3.2A.2.2,0,0,0,22.9,78.8Z" fill="#eae7e8"/>
                <path d="M22.4,79.1l-.3-.2c-.1,0-.2.1-.2.3a.2.2,0,0,0,.3.1h0a.2.2,0,0,0,.2-.2Z" fill="#eae7e8"/>
                <polygon points="27 120.9 27 120.7 26 122.7 26 122.9 27 120.9" fill="#2e292f"/>
                <polygon points="26.8 119.4 26.8 119.2 25.8 121.2 25.8 121.4 26.8 119.4" fill="#2e292f"/>
                <polygon points="26.9 120.2 26.9 120 25.9 122 25.9 122.2 26.9 120.2" fill="#fff"/>
                <polygon points="26.6 117.6 26.6 117.4 25.6 119.4 25.6 119.6 26.6 117.6" fill="#2e292f"/>
                <polygon points="26.4 116.1 26.4 115.9 25.4 117.9 25.4 118.1 26.4 116.1" fill="#2e292f"/>
                <polygon points="26.5 116.9 26.5 116.7 25.5 118.7 25.5 118.9 26.5 116.9" fill="#fff"/>
                <polygon points="26.2 114.3 26.2 114.1 25.2 116.1 25.2 116.3 26.2 114.3" fill="#2e292f"/>
                <polygon points="26 112.8 26 112.6 25 114.6 25 114.8 26 112.8" fill="#2e292f"/>
                <polygon points="26.1 113.6 26.1 113.4 25.1 115.4 25.1 115.6 26.1 113.6" fill="#fff"/>
              </g>
              <g>
                <polygon points="32 96.4 31.7 96.3 31.4 96.2 30.2 98.9 22.9 116.1 22.5 117.1 22.9 117.3 23.1 117.4 23.5 116.4 30.9 99.2 32 96.4" fill="#adaeb2"/>
                <g>
                  <path d="M31.2,89.2a6.1,6.1,0,0,0,.5,1.2,4.3,4.3,0,0,0,1.2,1.1l.3.2h.4l.6.4,1.1.5.8.2a5,5,0,0,0,2.7.4h.5a7.2,7.2,0,0,0,3.2-2.5c.2-.1.2-.5,0-.7a7.8,7.8,0,0,0-4-2.1l-.8-.2a17.9,17.9,0,0,0-4-.2,3.9,3.9,0,0,0-2.3.7A1.2,1.2,0,0,0,31.2,89.2Z" fill="#2e292f"/>
                  <path d="M30.1,98.8h.5l.3.2h.4l2.9-6.8.2-.4-1-.5H33v.2l-1.1,2.8h0l-.4.9L30,98.5c-.1.1,0,.2.1.3Z" fill="#2e292f"/>
                </g>
                <path d="M20.4,124.6h0l3.2-7.7c.1-.2.1-.3-.1-.5l-.2-.2c-.1,0-.1,0-.1-.1h-.3c-.2,0-.5.1-.5.3l-3.3,7.7c-.1.2.1.5.5.7h.1A.6.6,0,0,0,20.4,124.6Z" fill="#2e292f"/>
                <polygon points="30.8 96.7 31.1 96.8 31.7 97.1 32.1 97.3 33.1 94.8 32.2 94.5 31.8 94.3 31.8 94.3 31.4 95.2 30.8 96.7" fill="#df6038"/>
                <rect x="20" y="122.8" width="0.3" height="1.4" transform="translate(-101.5 94) rotate(-67.1)" fill="#fff"/>
                <rect x="20.2" y="122.3" width="0.3" height="1.4" transform="translate(-100.8 93.9) rotate(-67.1)" fill="#c2c2c1"/>
                <rect x="20.5" y="121.8" width="0.3" height="1.4" transform="translate(-100.3 93.8) rotate(-67.1)" fill="#df6038"/>
              </g>
              <path d="M21.6,141.7l-.8.9h1.1a27.4,27.4,0,0,1-1-35.3c.6-.8-.5-1.9-1.1-1.1a29.3,29.3,0,0,0-6.5,18.9,29.6,29.6,0,0,0,7.5,18.6.8.8,0,0,0,1.1,0l.8-.9C23.4,142,22.3,140.9,21.6,141.7Z" fill="#99442e"/>
              <path d="M20.1,146.3c.2,1,2.7,2.9,4.2,3.1a10.3,10.3,0,0,0,3.5-.1c2.8-.3,5.5.3,7.6-.7a3.8,3.8,0,0,0,1.8-1.5l.5-.7c.9-2.1.7-5.6.9-7.7a91.9,91.9,0,0,0-.5-18.9c-.5-4.8-1.3-9.6-2-14.4a12.6,12.6,0,0,0-1-3.8h-.2c-4.6,1.5-6.8,1.7-11.7,2.1a12.2,12.2,0,0,1-3.3-.2l-2.3-.6a.5.5,0,0,1-.4-.2h-.1a5.5,5.5,0,0,0-.2,1.8A234.1,234.1,0,0,0,20.1,146.3Z" fill="#de5a33"/>
              <path d="M31,146.7l6.3-.3c.9-2.1.7-5.5.9-7.6a92.9,92.9,0,0,0-.5-19H33.1a3,3,0,0,0-2.4.7,3.4,3.4,0,0,0-.4,2C30.6,130.3,30.5,138.9,31,146.7Z" fill="#dcd9d7"/>
              <path d="M31.5,146.6s4.8,0,6.2-.2c.9-2.1.7-5.6.9-7.7a91.9,91.9,0,0,0-.5-18.9H33.5a3.4,3.4,0,0,0-2.4.7,3.8,3.8,0,0,0-.4,2.1C31.1,130.3,30.9,138.8,31.5,146.6Z" fill="#b95437"/>
              <path d="M37.1,142c.2,3.6,3.3,3.1,3.8,2.2a7,7,0,0,0,.4-2.9c-.1-5.3-.5-15.8-2.6-16.6a1.3,1.3,0,0,0-1.2.1c-.9.4-1.2,10.4-.4,17.2" fill="#dcd9d7"/>
              <path d="M22.6,139.4c.3,4.7,4.2,4,4.8,2.8a8.6,8.6,0,0,0,.5-3.9c-.2-6.8-1.1-20.6-3.8-21.6a1.4,1.4,0,0,0-1.5.2c-1.1.5-1.3,13.5,0,22.5" fill="#dcd9d7"/>
              <path d="M37.4,142c.2,3.6,3.3,3.1,3.7,2.2a5.8,5.8,0,0,0,.5-2.9c-.1-5.3-.6-15.8-2.6-16.6a1.3,1.3,0,0,0-1.2.1c-.9.4-1.3,10.3-.4,17.2" fill="#9f452e"/>
              <path d="M22.8,139.2c.4,4.7,4.3,3.9,4.8,2.7a7.1,7.1,0,0,0,.5-3.8c-.2-6.9-1.1-20.7-3.7-21.7a2.3,2.3,0,0,0-1.6.2c-1.1.5-1.3,13.6,0,22.6" fill="#b95437"/>
              <rect x="33.2" y="121.3" width="5" height="0.34" transform="matrix(1, -0.08, 0.08, 1, -9.63, 3.25)" fill="#833a26"/>
              <path d="M20.1,146.3c.2,1,2.7,2.9,4.2,3.1a10.3,10.3,0,0,0,3.5-.1c2.8-.3,5.5.3,7.6-.7a13.7,13.7,0,0,1-7.6-4.4c-2.8-3.1-4.3-7.1-5.4-11.1-2.8-9.6-4-19.7-2.5-29.5l-2.3-.6a.5.5,0,0,1-.4-.2h-.1a5.5,5.5,0,0,0-.2,1.8A232.9,232.9,0,0,0,20.1,146.3Z" fill="#c3c3c2"/>
              <path d="M17,109.6c.3-.1.6.2.7.5a1.5,1.5,0,0,1,.2.9,9.2,9.2,0,0,1-.4,2.9c0,.1,0,.2-.1.2a.5.5,0,0,1-.4-.3,8.6,8.6,0,0,1-.1-3.9" fill="#dcd9d7"/>
              <path d="M16.8,109.6a.8.8,0,0,1,.7.5,1.5,1.5,0,0,1,.2.9,9.2,9.2,0,0,1-.4,2.9c0,.1,0,.2-.1.2a.5.5,0,0,1-.4-.3,7,7,0,0,1-.1-3.8" fill="#99442e"/>
              <path d="M17.1,103.2l.5.2a17.7,17.7,0,0,0,5.6.9c5-.5,7.2-.6,11.9-2.2-.1-.2-.1-.3-.2-.4-4.6,1.5-6.8,1.7-11.7,2.1a15.2,15.2,0,0,1-5.6-.8.5.5,0,0,1-.4-.2C17.2,103,17.1,103.1,17.1,103.2Z" fill="#dcd9d7"/>
              <path d="M36.3,107.5l-12,1.2a1.1,1.1,0,0,0-.9.4,1.7,1.7,0,0,0,.3,2,2.6,2.6,0,0,0,1.7.5,86.9,86.9,0,0,0,11.4-.4" fill="#dcd9d7"/>
              <path d="M36.4,107.2l-12,1.2c-.3.1-.7.1-.9.4a1.7,1.7,0,0,0,.3,2,2.2,2.2,0,0,0,1.7.5,62.1,62.1,0,0,0,11.4-.4" fill="#9f452e"/>
              <rect x="25.5" y="109.2" width="11.1" height="0.34" transform="translate(-8.7 2.8) rotate(-4.6)" fill="#833a26"/>
              <rect x="24.8" y="120.7" width="0.3" height="20.4" transform="translate(-10.4 2.4) rotate(-4.6)" fill="#833a26"/>
              <g>
                <path d="M16.7,104.4a3.1,3.1,0,0,0,2.5.4h.1c2.4-.3,4.8-.6,7.2-.7a3.1,3.1,0,0,0,3.4-2.5,3.2,3.2,0,0,0-1.6-3.1,4.2,4.2,0,0,0-2.7-.3l-3.7.4-4.2.5-.8.2a2,2,0,0,0-.7,1.6C16.1,101.7,16.2,103.8,16.7,104.4Z" fill="#9f452e"/>
                <rect x="18.3" y="102.1" width="9.5" height="0.34" transform="matrix(1, -0.08, 0.08, 1, -8.13, 2.18)" fill="#833a26"/>
                <rect x="18" y="100.6" width="8.1" height="0.34" transform="translate(-8 2.1) rotate(-4.6)" fill="#833a26"/>
              </g>
              <path d="M16.7,104.4a3.1,3.1,0,0,0,2.5.4h.1a7.6,7.6,0,0,1,.3-2.1c0-.1.1-.2.1-.3a3.5,3.5,0,0,1,.6-1.4c0-.1.1-.2.1-.4a13.3,13.3,0,0,1,1.4-1.9h.1l-4.2.5-.8.2a2,2,0,0,0-.7,1.6C16.1,101.7,16.2,103.8,16.7,104.4Z" fill="#c3c3c2"/>
              <path d="M21.5,150.8a7.8,7.8,0,0,0,3.4.2l10.4-.8h.4a5.5,5.5,0,0,0,2.5-.7,2,2,0,0,0,1-2.4,2.6,2.6,0,0,0-2.6-1l-2.8.2H30.6c-2.4-.1-4.7,0-7.1.1s-3.2.4-3.6,1.7S20.4,150.3,21.5,150.8Z" fill="#2e292f"/>
              <path d="M21.5,150.8a7.8,7.8,0,0,0,3.4.2l10.4-.8h.4l-5.1-3.9c-2.4-.1-4.7,0-7.1.1s-3.2.4-3.6,1.7S20.4,150.3,21.5,150.8Z" fill="#c3c3c2"/>
              <path d="M15,74l.4,1.7.6,3.4h0v.3a.6.6,0,0,1,.1-.4h0c0-.3.1-.5.1-.8s.3-1.6.4-2.4h0c.1-.6-.4-1-.3-1.7l.7-.4.3-1.7a11.6,11.6,0,0,1,.4-1.8,3.6,3.6,0,0,1,.4-1.1c0-.2.1-.3.2-.5A6.8,6.8,0,0,1,20.1,66a10.2,10.2,0,0,0-4.5,1.3,9.5,9.5,0,0,0-2,2C13.1,70.1,12.9,71.6,15,74Z" fill="#aaadae"/>
              <path d="M35.9,114.8c.3,1.2.6,2.1.9,2.1s.1-1.1-.1-2.2-.6-2.2-.8-2.1S35.7,113.6,35.9,114.8Z" fill="#eae7e8" opacity="0.1" style="isolation: isolate"/>
              <path d="M26,99.6c.9,0,1.7-.2,1.7-.4a2.8,2.8,0,0,0-1.8-.2,4.7,4.7,0,0,0-1.7.3C24.2,99.5,25,99.6,26,99.6Z" fill="#eae7e8" opacity="0.1" style="isolation: isolate"/>
              <path d="M32.9,91.5l-1.1,2.8h0l-.4.9.6-.3.2-.4a2.4,2.4,0,0,0,.2-.8,11.9,11.9,0,0,1,.8-2l.2-.3a8.9,8.9,0,0,1,4.3-3.6,17.9,17.9,0,0,0-4-.2,3.9,3.9,0,0,0-2.3.7c-.2.1-.3.7-.2.9a6.1,6.1,0,0,0,.5,1.2A4.3,4.3,0,0,0,32.9,91.5Z" fill="#aaadae"/>
              <path d="M19.5,81.2c.2,1.7,1.1,1.6,1.1,1.6l.3-.2.3,2.3h.3l.3,2.4a1.1,1.1,0,0,0,.2-1.1c0-.5-.1-.9-.1-1.3a24.5,24.5,0,0,1-.2-2.7v-.5h0a6.8,6.8,0,0,1,.2-1.4v-.2c0-.2.1-.4.1-.6l.2-.4a10.9,10.9,0,0,1,.8-1.5l.9-.8h-.2L23,77C20.1,78.4,19.4,79.5,19.5,81.2Z" fill="#c3c3c2"/>
              <path d="M31.9,68c1.8,0,1.9.5,1.9.5l-.2,1.8a2,2,0,0,0,1.2-1.6h0a3.6,3.6,0,0,0,.2-1c.1-.2.1-.4.2-.5s0-.1.1-.1l.3-.4.7-.4h0l1.3-.2h.5a6.7,6.7,0,0,0,2-.1h.1a20,20,0,0,0-3.5-.9h0a18.5,18.5,0,0,0-4.7.2,1.6,1.6,0,0,0-.9.7c0,.2-.1.3-.2.5a1.2,1.2,0,0,0,.8,1.5Z" fill="#c3c3c2"/>
            </g>
            <rect x="38" y="127" width="2.5" height="0.34" transform="matrix(1, -0.08, 0.08, 1, -10.07, 3.56)" fill="#833a26"/>
            <path d="M40.2,136.9c0,1.2.2,2.2.4,2.1a3.8,3.8,0,0,0,.4-2.2c0-1.2-.3-2.2-.5-2.2S40.1,135.6,40.2,136.9Z" fill="#eae7e8" opacity="0.1" style="isolation: isolate"/>
            <g opacity="0.1">
              <path d="M41.5,89.9a1.1,1.1,0,0,1,0,.8l-.6.6-1.1.6-.4.2-.4-.2a.7.7,0,0,1,.4-.6l2-1.2" fill="#eae7e8"/>
            </g>
            <g opacity="0.1">
              <path d="M23,68.2a.5.5,0,0,1,0,.7.9.9,0,0,1-.6.6l-1,.6-.4.2c-.2,0-.4-.1-.4-.2s.1-.5.3-.6L23,68.3" fill="#eae7e8"/>
            </g>
            <g opacity="0.1">
              <path d="M41,67.1a.6.6,0,0,1,.7.2,1.1,1.1,0,0,1,.3.8,5,5,0,0,1,.2,1.2.5.5,0,0,1,0,.5c0,.1-.2.2-.3.2a.7.7,0,0,1-.4-.5c0-.2-.3-1.6-.4-2.4" fill="#eae7e8"/>
            </g>
          </g>
          <g>
            <path d="M37,145.8h.5a3.1,3.1,0,1,1,0,6.2,3.1,3.1,0,1,1-1.5-6h1Z" fill="#aaadae"/>
            <g>
              <path d="M34.9,148.8a2.9,2.9,0,0,0,3.1,2.7h.2a3,3,0,0,0,2.8-3.2h0a3,3,0,0,0-2.8-2.8h-.6A3,3,0,0,0,34.9,148.8Z" fill="#fff"/>
              <path d="M34.9,148.8a2.9,2.9,0,0,0,3.1,2.7h.2c-2.8-3.9-.1-6,0-6.1h-.6A3,3,0,0,0,34.9,148.8Z" fill="#dcd9d7"/>
            </g>
          </g>
        </g>
        <rect x="-5.4" y="135.1" width="346.9" height="6.86" transform="translate(-10.5 13.8) rotate(-4.6)" fill="#fff"/>
      </g>
    </g>
    <g>
      <g>
        <path d="M31.9,24.2a1.5,1.5,0,0,1-.4.9l-4,4-4.3-2.5V24.2a1.3,1.3,0,0,1,1.3-1.3,1.2,1.2,0,0,1,1.2,1.2h0v3.1l4-4a1.3,1.3,0,0,1,1.8,0,1.5,1.5,0,0,1,.4.9" fill="#1c8f49"/>
        <path d="M30.6,35.8h-.5l-.4-.2-4-4v3.1a1.2,1.2,0,0,1-1.2,1.2h0a1.2,1.2,0,0,1-1.3-1.1h0V32.1l4.3-2.4,4,4a1.2,1.2,0,0,1-.9,2.1" fill="#1c8f49"/>
        <path d="M27.3,29.3c0-.1-.1-.1-.1-.2h0l-1.1-.6-2.9-1.7-2.5-1.4c-.1-.1-.3,0-.4.1v7.6a.3.3,0,0,0,.3.3c.1,0,.1,0,.1-.1l2.5-1.4,4-2.3h.1Zm-1,.1c0,.1,0,.1-.1.2l-3.1,1.8-1.9,1.1h-.3v-6a.2.2,0,0,1,.2-.2h.1l1.9,1.1,3.1,1.8C26.3,29.2,26.4,29.3,26.3,29.4Z" fill="#1c8f49"/>
        <path d="M25.5,29.4h-.1l-2.3,1.4-1.5.8h-.2V27.2a.2.2,0,0,1,.2-.2h0l1.5.8,2.3,1.3h.1" fill="#1c8f49"/>
      </g>
      <g>
        <path d="M52.8,29.2h-.1l-3.5-1.8L47,26.2c-.2-.1-.4,0-.4.2v5.9c0,.2.2.3.4.2l2.1-1.2,3.5-1.8c.1,0,.1,0,.1-.1Zm-.8.1h-.1l-2.7,1.5-1.7.9c-.1.1-.3,0-.3-.2V27.1l.3-.2h0l1.7.9L52,29.1h0Z" fill="#1c8f49"/>
        <path d="M51.2,29.3h-.1l-2,1.1-1.3.7h-.2V27.6c0-.1,0-.1.1-.1h.1l1.3.7,2,1c.1,0,.1,0,.1.1h0" fill="#1c8f49"/>
        <path d="M34.4,26.3h3.1c1.5,0,2.6.8,2.6,2a2.2,2.2,0,0,1-2.3,2.1H36v2H34.5Zm3,2.9c.7,0,1.2-.3,1.2-.9s-.5-.8-1.2-.8H35.9v1.7Z" fill="#1c8f49"/>
        <path d="M45.9,31.3v1.2H41V26.4h1.4v4.9Z" fill="#1c8f49"/>
        <path d="M54.4,30.2l-2.7-3.9h1.7L55.1,29l1.8-2.7h1.6l-2.6,3.9v2.2H54.4Z" fill="#1c8f49"/>
        <path d="M59.5,26.6h.7V30l3.4-3.5h1l-2.8,2.9L65,32.6H64l-2.6-2.9-1.1,1.1v1.8h-.8Z" fill="#1c8f49"/>
        <path d="M65.4,29.6a3.4,3.4,0,0,1,3.4-3.2,3.5,3.5,0,0,1,3.6,3.1,3.4,3.4,0,0,1-3.5,3.2,3.3,3.3,0,0,1-3.5-3.1Zm6.2-.1A2.6,2.6,0,0,0,68.8,27a2.6,2.6,0,1,0,2.8,2.5Z" fill="#1c8f49"/>
        <path d="M73.4,31.8l.5-.6a3.1,3.1,0,0,0,2.2.9c1.1,0,1.6-.6,1.6-1.1s-.7-.9-1.9-1.1-2.2-.7-2.2-1.7a2,2,0,0,1,2.2-1.8h0a4.1,4.1,0,0,1,2.4.8l-.4.6a3.2,3.2,0,0,0-2-.8c-.8,0-1.5.5-1.4,1.1s.6.8,1.8,1.1,2.2.6,2.3,1.7-.8,1.8-2.4,1.8A4.4,4.4,0,0,1,73.4,31.8Z" fill="#1c8f49"/>
        <path d="M79.9,26.6h.8l2.5,4.2,2.5-4.3h.8v6.1h-.8V28l-2.5,4.3-2.6-4.2v4.6H80Z" fill="#1c8f49"/>
        <path d="M88,29.6a3.4,3.4,0,0,1,3.5-3.2A3.3,3.3,0,0,1,95,29.5h0a3.4,3.4,0,0,1-3.5,3.2A3.3,3.3,0,0,1,88,29.6Zm6.2-.1a2.8,2.8,0,0,0-2.8-2.7,2.8,2.8,0,0,0-2.6,2.8h0a2.7,2.7,0,0,0,2.7,2.5A2.7,2.7,0,0,0,94.2,29.5Z" fill="#1c8f49"/>
        <path d="M96,31.8l.5-.6a3.1,3.1,0,0,0,2.2.9c1.1,0,1.6-.6,1.6-1.1s-.7-.9-1.9-1.1-2.2-.7-2.2-1.7.9-1.8,2.3-1.8a4.1,4.1,0,0,1,2.4.8l-.5.6a3.2,3.2,0,0,0-2-.8A1.2,1.2,0,0,0,97,28.1c0,.6.7.8,1.8,1.1s2.3.6,2.3,1.7-.8,1.8-2.4,1.8A4.4,4.4,0,0,1,96,31.8Z" fill="#1c8f49"/>
      </g>
    </g>
    <path d="M14.3,271.3A5.2,5.2,0,0,0,9,276.4H9A5.3,5.3,0,0,0,19.5,278a3.8,3.8,0,0,0,0-1.5,5.2,5.2,0,0,0-5.2-5.2Zm-4,2.9a.7.7,0,0,1,.5-.4.7.7,0,0,1,.5.4.4.4,0,0,1-.1.3h-.3c0-.1,0-.2-.1-.1s-.1.1,0,.2a.2.2,0,0,1,0,.3h0c-.1.1-.2,0-.3-.1a1.1,1.1,0,0,1-.2-.6Zm-.4.9c.2,0,.5.1.5.3s.1.3-.1.3,0,.1-.1.1-.1,0-.1-.1-.1-.2-.2-.1,0,.1,0,.2.1.2,0,.2a.2.2,0,0,1-.3,0h0a.5.5,0,0,1-.2-.4.5.5,0,0,1,.5-.5Zm-.2,2.5a.8.8,0,0,1-.2-.4c0-.2.2-.5.4-.5a.4.4,0,0,1,.5.1c.1.1.1.1.1.2a.2.2,0,0,1,0,.3h0c-.2.1-.3,0-.3-.1s-.1-.2-.2-.1,0,.1,0,.2a.2.2,0,0,1,0,.3H9.7Zm1.2.9c-.1.1-.2,0-.3-.1h-.1c-.1.1-.1.1,0,.2a.2.2,0,0,1,0,.3h0c-.2.1-.3,0-.4-.1a.4.4,0,0,1-.1-.3c0-.2.2-.5.4-.5a.4.4,0,0,1,.5.1c.1.1.1.1.1.2s.1.1-.1.2Zm.2-3a.4.4,0,0,1,.4-.4.7.7,0,0,1,.6.4.2.2,0,0,1-.2.2h0c-.1.1-.1.1-.2,0h-.2c-.1.1-.1,0,0,.1h0c.1.1.1.2,0,.2a.2.2,0,0,1-.3,0h0a.4.4,0,0,1-.1-.5Zm.4,1a.7.7,0,0,1,.6.3.4.4,0,0,1-.1.3c-.1.1-.2,0-.3-.1h-.2c-.1.1,0,.2.1.2a.4.4,0,0,1-.1.3c-.1.1-.2.1-.2,0s-.2-.2-.2-.4.1-.6.4-.6Zm.6,2.8c-.2.1-.3,0-.3-.1h-.2c-.1.1,0,.1,0,.2a.2.2,0,0,1,0,.3h0c-.1.1-.2,0-.3-.1l-.2-.3a1,1,0,0,1,.4-.5.5.5,0,0,1,.6.1h0a.2.2,0,0,1,0,.3Zm0-5.8c0-.1-.1-.2-.2-.1v.2a.2.2,0,0,1,0,.3h0c-.1.1-.2,0-.3-.1a.4.4,0,0,1-.1-.3c-.1-.3.1-.5.4-.6h0a.5.5,0,0,1,.6.4.4.4,0,0,1-.1.3Zm.6,2.1a.7.7,0,0,1,.6.3.4.4,0,0,1-.1.3c-.1.1-.2.1-.3-.1s-.1-.1-.1,0-.1.1,0,.1a.2.2,0,0,1,0,.3h0c-.2.1-.3.1-.4,0s-.1-.2-.1-.4a.7.7,0,0,1,.4-.5Zm.5,2.6c-.1.1-.2,0-.3-.1s0-.1-.1-.1-.1.1,0,.2a.2.2,0,0,1,0,.3h0c-.2.1-.3,0-.4,0s-.1-.3-.1-.4a.7.7,0,0,1,.4-.5c.2-.1.5.1.6.3s.1.2-.1.3Zm.2-3.7c-.2.1-.2,0-.3-.1h-.2c-.1,0,0,.1.1.1s0,.3-.1.3h-.3c-.1-.1-.2-.4-.1-.5s.3-.4.5-.4a.7.7,0,0,1,.5.4c0,.1,0,.2-.1.2Zm0-1.9c0-.1,0-.1-.1-.1h0a.2.2,0,0,1,0,.3h0c-.1.1-.3,0-.4-.1a.5.5,0,0,1,.1-.7h.3a.7.7,0,0,1,.6.4c0,.1,0,.2-.1.2a.2.2,0,0,1-.3,0h-.1Zm1.1,4.5c-.2.1-.3.1-.3-.1s-.1-.1-.2,0,0,.1,0,.1.1.3,0,.3a.2.2,0,0,1-.3,0h0c-.1-.1-.1-.2-.2-.4s.2-.4.5-.5a.5.5,0,0,1,.5.3c.1.1.1.3,0,.3Zm-.1-1.8c-.1.1-.2,0-.2-.1H14c-.1.1,0,.1,0,.2a.2.2,0,0,1,0,.3h-.3a.7.7,0,0,1-.1-.6c0-.2.3-.3.5-.3a.5.5,0,0,1,.5.3Zm.5-1.7h-.3c0-.1,0-.2-.1-.1s-.1.1,0,.2a.2.2,0,0,1,0,.3h-.3a.5.5,0,0,1-.2-.4.7.7,0,0,1,.4-.5.7.7,0,0,1,.6.3s.1.1-.1.2Zm3.6,1.9h-.3v-.2a4.1,4.1,0,0,0-2.5-2.8h-.1c-.1,0-.2-.1-.1-.2a.2.2,0,0,1,.2-.2h0l.5.3a4.4,4.4,0,0,1,2.4,2.9v.2Z" fill="#fff"/>
    <g>
      <path d="M314.9,141.2a5.1,5.1,0,0,0-5.7,4.2,5.1,5.1,0,0,0,4.3,5.7h1.4a4.7,4.7,0,0,0,4.9-4.7v-.2a4.9,4.9,0,0,0-4.8-5Zm-3.8,2.8a.7.7,0,0,1,.5-.4.5.5,0,0,1,.5.3c0,.2,0,.3-.1.3h-.4c-.1.1-.1.2,0,.2a.2.2,0,0,1,0,.3h-.3A.8.8,0,0,1,311.1,144Zm-.4.8c.2,0,.5.1.5.3s.1.3-.1.3h-.4c-.1.1,0,.2.1.2a.4.4,0,0,1-.1.3h-.2a.5.5,0,0,1-.2-.4A.7.7,0,0,1,310.7,144.8Zm-.2,2.4a.6.6,0,0,1-.1-.4c0-.2.2-.5.4-.5a.5.5,0,0,1,.5.3c0,.1.1.2-.1.3s-.2,0-.2-.1h-.2c-.1.1,0,.1,0,.2a.2.2,0,0,1,0,.3h-.3Zm1.2.8c-.1.1-.2,0-.3-.1h-.1c-.1,0-.1.1,0,.1a.2.2,0,0,1,0,.3H311l-.2-.3c0-.2.2-.5.4-.5s.5,0,.5.2a.2.2,0,0,1,0,.3Zm.1-2.8a.5.5,0,0,1,1,0c0,.1,0,.1-.1.2h-.5v.2h.1v.3H312a1.1,1.1,0,0,1-.2-.7Zm.4.9a.7.7,0,0,1,.6.3c0,.2,0,.3-.1.3h-.4c-.1,0,0,.1,0,.1a.2.2,0,0,1,0,.3H312a.5.5,0,0,1-.2-.4.7.7,0,0,1,.4-.5Zm.6,2.7c-.1.1-.2,0-.3-.1h-.2v.2c0,.1.1.2-.1.3s-.2,0-.3-.1a.4.4,0,0,1-.1-.3.7.7,0,0,1,.4-.5.5.5,0,0,1,.5.3c.1,0,.1.1.1.2Zm0-5.5c0-.1-.1-.2-.2-.1s0,.1.1.2,0,.2-.1.2h-.3a.4.4,0,0,1-.1-.3c0-.2.2-.5.4-.5s.4.1.5.3h0a.2.2,0,0,1,0,.3h-.3Zm.6,2a.5.5,0,0,1,.5.3.2.2,0,0,1,0,.3h0c-.1.1-.2,0-.3-.1h-.2c-.1,0,0,.1.1.2a.4.4,0,0,1-.1.3c-.1.1-.2,0-.3-.1a.4.4,0,0,1-.1-.3.7.7,0,0,1,.4-.5Zm.5,2.5h-.3c0-.1-.1-.2-.2-.1v.2a.4.4,0,0,1-.1.3H313v-.3c0-.2.2-.5.4-.5a.4.4,0,0,1,.5.2c.2,0,.2.1.1.2Zm.1-3.5c-.1,0-.2,0-.2-.1h-.2c-.1.1,0,.1,0,.2a.2.2,0,0,1,0,.3h-.3a.4.4,0,0,1-.1-.5c0-.2.2-.3.4-.3s.5.1.5.3Zm.1-1.9h-.2c.1.2.2.3,0,.4s-.2,0-.3-.2-.3-.4-.1-.5a.4.4,0,0,1,.5-.2.5.5,0,0,1,.5.3.4.4,0,0,1-.1.3h-.3Zm1,4.3c-.2.1-.3.1-.3-.1h-.2c-.1,0,0,.1,0,.1s.1.3,0,.3h-.3a.4.4,0,0,1-.1-.3c0-.3.1-.5.4-.5a.4.4,0,0,1,.5.2q.1.3,0,.3ZM315,145c-.1.1-.2,0-.2-.1h-.2a.2.2,0,0,1,0,.3h-.3a.7.7,0,0,1-.1-.6.5.5,0,0,1,.5-.3c.2,0,.4.1.4.3S315.1,145,315,145Zm.5-1.6h-.3c0-.1-.1-.2-.1-.1s-.1.1,0,.2.1.2,0,.2h-.3a.5.5,0,0,1-.2-.4.4.4,0,0,1,.4-.4c.2-.1.4.1.5.3h0Zm3.3,1.8h-.2V145a4,4,0,0,0-2.3-2.6h-.2c-.1-.1-.2-.1-.1-.2l.2-.2.5.2A4.9,4.9,0,0,1,319,145v.2Z" fill="#fff"/>
      <path d="M314.9,161.9a5,5,0,0,0-.1,9.9h.1a4.7,4.7,0,0,0,4.9-4.7v-.2a4.9,4.9,0,0,0-4.8-5Zm-3.8,2.8a.5.5,0,0,1,1,0c0,.1,0,.2-.1.2h-.3c0-.1,0-.2-.1-.1s-.1.1,0,.1.1.3,0,.3a.2.2,0,0,1-.3,0h0C311.1,165.1,311.1,164.9,311.1,164.7Zm-.4.8c.2,0,.5.2.5.4s.1.2-.1.2h-.2c0-.1-.1-.2-.2-.1s0,.1.1.2,0,.1-.1.2h-.2a.5.5,0,0,1-.2-.4A.7.7,0,0,1,310.7,165.5Zm-.2,2.4a.6.6,0,0,1-.1-.4c0-.2.2-.5.4-.5a.5.5,0,0,1,.5.3c0,.1.1.2-.1.3s-.2,0-.2-.1h-.2a.2.2,0,0,1,0,.3h-.3Zm1.2.8c-.1.1-.2.1-.3-.1h-.1c-.1,0-.1.1,0,.1s.1.3,0,.3H311c-.1-.1-.2-.2-.2-.3s.2-.5.4-.5.5,0,.5.2S311.8,168.7,311.7,168.7Zm.1-2.8a.5.5,0,0,1,1,0v.2h-.4v.2H312c-.2,0-.2-.2-.2-.4Zm.4,1a.4.4,0,0,1,.5.1v.2c0,.1,0,.2-.1.2h-.3c0-.1,0-.2-.1-.1s0,.1,0,.2.1.2,0,.2a.2.2,0,0,1-.3,0h0a.5.5,0,0,1-.2-.4A.4.4,0,0,1,312.2,166.9Zm.6,2.6c-.1.1-.2,0-.3-.1h-.2v.2c0,.1.1.2-.1.3s-.2,0-.3-.1a.4.4,0,0,1-.1-.3.7.7,0,0,1,.4-.5.5.5,0,0,1,.5.3c.1,0,.1.1.1.2Zm0-5.5c0-.1-.1-.2-.2-.1v.2a.4.4,0,0,1-.1.3h-.3a.4.4,0,0,1-.1-.3c0-.2.2-.5.4-.5s.4.1.5.3h0a.2.2,0,0,1,0,.3h0Zm.6,2a.5.5,0,0,1,.5.3.2.2,0,0,1,0,.3h0c-.1.1-.2,0-.3-.1h-.2v.2a.4.4,0,0,1-.1.3c-.1.1-.2,0-.3-.1a.4.4,0,0,1-.1-.3.6.6,0,0,1,.5-.6Zm.5,2.5h-.5v.2a.4.4,0,0,1-.1.3c-.1.1-.2,0-.3-.1v-.3c0-.3.2-.4.4-.5s.4.1.5.3Zm.1-3.5h-.4a.2.2,0,0,1,0,.3h-.3a.7.7,0,0,1-.1-.6c0-.2.2-.3.4-.3s.5.2.5.3Zm.1-1.9h-.2c.1.1.2.2,0,.3s-.2,0-.3-.2-.3-.4-.1-.5a.4.4,0,0,1,.5-.2.5.5,0,0,1,.5.3c0,.2,0,.2-.1.3Zm1,4.4h-.3c-.1-.1-.1-.2-.2-.1s0,.1,0,.2a.2.2,0,0,1,0,.3h-.3a.4.4,0,0,1-.1-.3c0-.3.1-.5.4-.5a.5.5,0,0,1,.5.3Zm-.1-1.8c-.1.1-.2,0-.2-.1h-.3c0,.1,0,.1.1.1a.2.2,0,0,1,0,.3h-.3c-.1-.2-.2-.4-.1-.5a.7.7,0,0,1,.5-.4.4.4,0,0,1,.4.4Zm.5-1.6h-.4c-.1.1-.1.1,0,.2a.2.2,0,0,1,0,.3h-.3l-.2-.3c0-.2.2-.5.4-.5s.4.1.5.3Zm3.3,1.8h-.2v-.2a4.2,4.2,0,0,0-2.3-2.6h-.2c-.1,0-.2-.1-.1-.2s.1-.2.2-.1l.5.2a4.4,4.4,0,0,1,2.3,2.7v.2Z" fill="#fff"/>
      <path d="M314.9,181.8a5,5,0,1,0,5,5A5,5,0,0,0,314.9,181.8Zm-3.8,2.8a.6.6,0,0,1,.8-.2l.2.2a.4.4,0,0,1-.1.3h-.3c0-.1,0-.2-.1-.1s-.1.1,0,.2a.2.2,0,0,1,0,.3h-.3A1.1,1.1,0,0,1,311.1,184.6Zm-.4.9c.2-.1.4.1.5.3h0c.1.1.1.2-.1.3h-.2c0-.1-.1-.2-.2-.1s0,.1.1.2,0,.2-.1.2h-.2c-.1,0-.2-.2-.2-.3s.1-.5.4-.6Zm-.2,2.3a.4.4,0,0,1-.1-.3c0-.3.1-.5.4-.5a.4.4,0,0,1,.5.2c0,.1.1.2-.1.3s-.2.1-.2-.1h-.2c-.1,0,0,.1,0,.1a.2.2,0,0,1,0,.3h-.3Zm1.2.9h-.4c-.1.1-.1.1,0,.2a.2.2,0,0,1,0,.3h0c-.2.1-.3,0-.3-.1l-.2-.3c0-.2.2-.5.4-.5s.4.1.5.3h0Zm.1-2.9a.6.6,0,0,1,.8-.2c.1.1.2.1.2.2s-.1.2-.1.3h-.4v.2H312c-.2-.1-.2-.3-.2-.5Zm.4,1c.2-.1.5.1.6.3a.4.4,0,0,1-.1.3h-.3c0-.1,0-.2-.1-.1s0,.1,0,.2a.2.2,0,0,1,0,.3H312l-.2-.3c-.1-.3,0-.5.3-.7Zm.6,2.6c-.1.1-.2.1-.3-.1s0-.1-.1-.1-.1,0-.1.1h.1c0,.1.1.2-.1.3s-.2,0-.3-.1-.1-.1-.1-.3a.4.4,0,0,1,.4-.4.4.4,0,0,1,.5.2l.2.2a.2.2,0,0,1-.2.2Zm0-5.5h-.2v.2a.4.4,0,0,1-.1.3c-.1.1-.2,0-.3-.1a.4.4,0,0,1-.1-.3c0-.3.2-.4.4-.5a.4.4,0,0,1,.5.3.2.2,0,0,1,0,.3h0l-.2-.2Zm.6,2.1a.4.4,0,0,1,.5.2c.1.1.1.3,0,.3h-.4a.4.4,0,0,1-.1.3h-.3c-.1-.1-.1-.2-.1-.4s.2-.3.4-.3Zm.5,2.4c-.1.1-.2,0-.3-.1h-.2c-.1,0,0,.1.1.2a.4.4,0,0,1-.1.3c-.1.1-.2,0-.3-.1v-.3a.7.7,0,0,1,.4-.5.5.5,0,0,1,.5.3c.1.1,0,.2-.1.3Zm.1-3.5c-.1.1-.2,0-.2-.1s-.1-.1-.2,0,0,.1,0,.1a.2.2,0,1,1-.3.3h0c-.1-.1-.2-.4-.1-.5a.4.4,0,0,1,.4-.4c.2,0,.5.2.5.4s0,.2-.1.2Zm.1-1.8h-.2c.1.1.2.2,0,.3s-.2,0-.3-.1,0-.8.4-.8a.7.7,0,0,1,.5.4c0,.1,0,.2-.1.2h-.3Zm1,4.3c-.2.1-.3,0-.3-.1h-.2c-.1.1,0,.1,0,.2a.2.2,0,0,1,0,.3h0c-.1.1-.2,0-.3-.1a.4.4,0,0,1-.1-.3c0-.2.2-.5.4-.5a.5.5,0,0,1,.5.3v.2Zm-.1-1.7h-.2c-.1-.1-.1-.2-.2-.1s0,.1,0,.2.1.1,0,.2h-.3a.4.4,0,0,1-.1-.5.5.5,0,0,1,.5-.3c.2,0,.4.1.4.3s0,.1-.1.2Zm.5-1.7c-.1.1-.2,0-.3-.1h-.1c-.1.1-.1.1,0,.2a.2.2,0,0,1,0,.3c-.1.1-.2,0-.3-.1h0l-.2-.3c0-.3.2-.4.4-.5a.4.4,0,0,1,.5.3v.2Zm3.3,1.8h-.2v-.2a4.2,4.2,0,0,0-2.3-2.6h-.2c-.1,0-.2-.1-.1-.2s.1-.2.2-.1l.5.2a4.3,4.3,0,0,1,2.3,2.8h-.2Z" fill="#fff"/>
    </g>
    <path d="M14.3,308.7a5.3,5.3,0,1,0,5.2,5.4h0a5.2,5.2,0,0,0-5.1-5.3Zm-4,2.9a.6.6,0,0,1,.8-.2c.1.1.2.1.2.2s0,.3-.1.3h-.3c0-.1,0-.1-.1-.1h0c-.1.1-.1.2,0,.2a.2.2,0,0,1-.3.3h0C10.3,312.1,10.3,311.8,10.3,311.6Zm-.4,1c.2-.1.4.1.5.3h0c.1.1.1.2-.1.3h-.2c-.1-.1-.1-.2-.2-.1s0,.1,0,.2a.2.2,0,0,1,0,.3H9.6l-.2-.4c-.1-.3.1-.5.4-.6ZM9.7,315c-.1-.1-.2-.2-.2-.3a.7.7,0,0,1,.4-.6.7.7,0,0,1,.6.3.2.2,0,0,1,0,.3h0c-.2.1-.3,0-.3-.1s-.1-.1-.2,0,0,.1,0,.1a.2.2,0,1,1-.3.3Zm1.2.9c-.1.1-.2.1-.3-.1s-.1-.1-.1,0-.1.1,0,.1.1.3,0,.3-.3.1-.4,0a.4.4,0,0,1-.1-.3.7.7,0,0,1,.4-.6.7.7,0,0,1,.6.3C11,315.7,11.1,315.8,10.9,315.9Zm.2-3c0-.2.2-.3.4-.4a.7.7,0,0,1,.6.4c0,.2-.1.2-.2.3h-.4s-.1.1,0,.1h0a.2.2,0,0,1,0,.3h0c-.1.1-.2,0-.3,0A.7.7,0,0,1,11.1,312.9Zm.4,1a.5.5,0,0,1,.6.4.4.4,0,0,1-.1.3h-.3c0-.1-.1-.2-.2-.1s0,.1.1.2a.4.4,0,0,1-.1.3h-.2c-.2-.1-.2-.2-.2-.3a.5.5,0,0,1,.1-.7Zm.6,2.8c-.2.1-.3.1-.3-.1s-.1-.1-.2,0,0,.1,0,.1a.3.3,0,0,1,0,.4c-.1.1-.2,0-.3-.1a.5.5,0,0,1-.2-.4,1,1,0,0,1,.4-.5.7.7,0,0,1,.6.3c.1,0,.2,0,.2.1s-.1.3-.2.2Zm0-5.8h-.2v.2a.2.2,0,0,1,0,.3h-.3a.6.6,0,0,1-.1-.4c0-.3.1-.5.4-.5a.6.6,0,0,1,.6.3.4.4,0,0,1-.1.3Zm.6,2.2a.5.5,0,0,1,.6.1h0c0,.2,0,.3-.1.4h-.4c-.1.1-.1.1,0,.2a.2.2,0,0,1,0,.3h0c-.2.1-.3,0-.4-.1v-.3C12.3,313.5,12.5,313.2,12.7,313.1Zm.5,2.5c-.1.1-.2.1-.3-.1s0-.1-.1,0-.1.1,0,.1.1.3,0,.4-.3,0-.4-.1-.1-.2-.1-.4a.7.7,0,0,1,.4-.5.7.7,0,0,1,.6.3C13.3,315.4,13.4,315.6,13.2,315.6Zm.2-3.6h-.3c0-.1-.1-.2-.2-.1s0,.1.1.2a.4.4,0,0,1-.1.3c-.1.1-.2,0-.3-.1a.4.4,0,0,1-.1-.5.7.7,0,0,1,.5-.4.7.7,0,0,1,.5.4Zm0-2h-.1c.1.2.1.3,0,.4s-.3,0-.4-.2a.6.6,0,0,1,.3-.8h.1a.7.7,0,0,1,.6.4.4.4,0,0,1-.1.3h-.3C13.5,310,13.5,310,13.4,310Zm1.1,4.6c-.2,0-.3,0-.3-.1s-.1-.2-.2-.1,0,.1,0,.2a.2.2,0,0,1,0,.3h0c-.1.1-.2,0-.3-.1l-.2-.3a.5.5,0,0,1,.5-.5c.2-.1.4,0,.5.3a.2.2,0,0,1,0,.3Zm-.1-1.9c-.1.1-.2.1-.2-.1s-.1-.1-.2,0,0,.1,0,.2.1.2,0,.2a.2.2,0,0,1-.3,0h0a.4.4,0,0,1-.1-.5c0-.2.3-.4.5-.4a.7.7,0,0,1,.5.4C14.6,312.6,14.6,312.7,14.4,312.7Zm.5-1.7c-.1.1-.2,0-.3-.1h-.1c-.1.1-.1.1,0,.2a.2.2,0,0,1,0,.3h-.3a.8.8,0,0,1-.2-.4c0-.2.2-.5.4-.5s.5.1.6.3S15.1,310.9,14.9,311Zm3.6,1.9h-.3v-.2a4.4,4.4,0,0,0-2.5-2.8h-.1c-.1-.1-.2-.2-.1-.3s.1-.2.2-.1l.5.2a4.4,4.4,0,0,1,2.4,2.9v.2Z" fill="#fff"/>
    <g>
      <path d="M13.7,225.6a4.2,4.2,0,0,1,2.2.8,4.3,4.3,0,0,1,1.6,2.9,10,10,0,0,1-.4,2.4c-.6,1.3-1.3,2.6-2,3.8l-1.4,2.4h0c-.1.1-.1.3-.3.3s-.1-.2-.2-.3-1.2-2-1.7-3a18.2,18.2,0,0,1-1.6-3.1,5.5,5.5,0,0,1-.4-3.1,4,4,0,0,1,1-1.8,5.7,5.7,0,0,1,1.8-1.2Zm1.2,3.9a1.4,1.4,0,0,0-1.4-1.4,1.4,1.4,0,0,0-1.5,1.3h0a1.4,1.4,0,0,0,1.4,1.4A1.5,1.5,0,0,0,14.9,229.5Z" fill="#fff"/>
      <path d="M13.1,240.2a6.6,6.6,0,0,1-2.7-.6,2,2,0,0,1-1.2-1,1.2,1.2,0,0,1,.3-1.6,3.3,3.3,0,0,1,1.3-.7q.3-.2.3,0l.4.7c.1.1.1.2-.1.3a1.1,1.1,0,0,0-.8.3h-.2q-.5.3,0,.6a3.4,3.4,0,0,0,1.4.5l1.4.2a5.8,5.8,0,0,0,2.9-.5l.4-.2c.2-.1.2-.4,0-.6h0l-1-.4c-.2-.1-.2-.1-.1-.3a2.1,2.1,0,0,1,.4-.6.2.2,0,0,1,.2-.2,3.1,3.1,0,0,1,1.5,1,1.3,1.3,0,0,1,0,1.8,2.7,2.7,0,0,1-1.4.7,5.3,5.3,0,0,1-2.5.4Z" fill="#fff"/>
    </g>
    <path d="M13.5,160.2A4.6,4.6,0,0,0,9,164.6a4.5,4.5,0,0,0,4.5,4.5,4.5,4.5,0,0,0,0-8.9Zm-3.4,2.5a.5.5,0,0,1,.5-.3c.2,0,.3.1.4.3s0,.2-.1.2h-.4a.2.2,0,0,1,0,.3h-.2a.4.4,0,0,1-.2-.5Zm-.3.7.4.3c.1.1,0,.2-.1.3H9.8c-.1.1-.1.1,0,.2s.1.2,0,.2H9.5c-.1,0-.1-.2-.1-.3s0-.5.3-.7Zm-.2,2.1c-.1-.1-.2-.2-.2-.3a.4.4,0,0,1,.4-.4.2.2,0,0,1,.4.1c.2.1.1.3,0,.4s-.2,0-.2-.1H9.8c0,.1,0,.2.1.2s0,.2-.1.2Zm1,.8c-.1.1-.2,0-.2-.1h-.2c0,.1,0,.1.1.1h0a.4.4,0,0,1-.1.3c-.1.1-.2,0-.2-.1v-.2c0-.3.1-.5.3-.5s.4,0,.5.2Zm.2-2.6c0-.2.2-.3.4-.3a.4.4,0,0,1,.4.4v.2h-.3c0,.1,0,.2-.1.2s-.1.1-.2,0A.4.4,0,0,1,10.8,163.7Zm.3.9a.5.5,0,0,1,.5.3c0,.1,0,.2-.1.2h-.3c-.1.1-.1.1,0,.2s0,.1-.1.2h-.2a.4.4,0,0,1-.1-.3c-.1-.2.1-.5.3-.6Zm.5,2.4c-.1.1-.2,0-.2-.1h-.2a.2.2,0,0,1,0,.3h0c-.1.1-.2,0-.3-.1v-.3a.4.4,0,0,1,.4-.4c.2-.1.3,0,.4.2h0a.2.2,0,0,1,.2.2c-.1.2-.2.2-.3.2Zm0-4.9c0-.1,0-.2-.1-.1s0,.1,0,.1a.2.2,0,0,1,0,.3h-.3c-.1-.1-.1-.2-.1-.4a.4.4,0,0,1,.4-.4c.2,0,.4.1.4.3s.1.2,0,.2Zm.6,1.8c.2-.1.4,0,.4.2a.2.2,0,0,1,0,.3h0c-.1.1-.2,0-.3-.1s0-.1-.1,0,0,0,0,.1a.2.2,0,0,1,0,.3h-.3c-.2-.1-.2-.4,0-.6h.3Zm.4,2.2h-.4c-.1.1,0,.1,0,.2s.1.2,0,.2h-.3c-.2-.1-.2-.4,0-.6h.3c.1-.1.3,0,.4.2Zm.1-3.1h-.4v.4h-.2a.4.4,0,0,1-.1-.5c0-.2.2-.3.4-.3s.4.1.4.3Zm.1-1.7c-.1,0-.1-.1-.1,0h0c0,.1.1.2-.1.3s-.2,0-.3-.1.1-.7.4-.7.4.1.4.3,0,.2-.1.2Zm.8,3.9h-.3c-.1.1-.1.1,0,.2s0,.2-.1.2H13a.4.4,0,0,1-.1-.3c-.1-.2.1-.4.3-.5a.5.5,0,0,1,.5.3Zm0-1.6c-.1.1-.2,0-.2-.1h-.1c-.1,0-.1.1,0,.1v.3H13c-.1-.1-.2-.3-.1-.4s.2-.3.4-.3.3.1.4.3,0,.1-.1.1Zm.4-1.5h-.2c0-.1-.1-.2-.2-.1h.1a.4.4,0,0,1-.1.3h-.2a.5.5,0,0,1-.2-.4c.1-.2.2-.4.4-.4a.5.5,0,0,1,.5.3c0,.2,0,.3-.1.3Zm3,1.7h-.2v-.2a3.2,3.2,0,0,0-2.1-2.3h-.1c-.1-.1-.2-.1-.1-.2s.1-.2.2-.1l.4.2a3.3,3.3,0,0,1,2,2.4v.2Z" fill="#fff"/>
    <path d="M13.5,189.1A4.6,4.6,0,0,0,9,193.5a4.5,4.5,0,0,0,4.5,4.5,4.5,4.5,0,0,0,0-8.9Zm-3.4,2.5a.5.5,0,0,1,.5-.3l.4.2a.4.4,0,0,1-.1.3c-.1,0-.2,0-.2-.1h-.2c-.1.1,0,.1,0,.2a.2.2,0,0,1,0,.3h-.2a.4.4,0,0,1-.2-.5Zm-.3.7c.1,0,.4.1.4.3s0,.2-.1.3H9.8c-.1,0-.1.1,0,.2s.1.1,0,.2H9.5a.4.4,0,0,1-.1-.3C9.4,192.5,9.5,192.4,9.8,192.3Zm-.2,2.1-.2-.3a.4.4,0,0,1,.4-.4.2.2,0,0,1,.4.1c.2.1.1.3,0,.4H9.8v.2c0,.1,0,.2-.1.2Zm1,.8c-.1.1-.2,0-.2-.1h-.1a.4.4,0,0,1-.1.3H10a.4.4,0,0,1-.1-.3c0-.2.1-.4.3-.4a.2.2,0,0,1,.4.1C10.8,194.9,10.7,195.1,10.6,195.2Zm.2-2.6c0-.2.2-.3.4-.3a.4.4,0,0,1,.4.4c0,.1,0,.1-.1.2h-.3v.2H11A.5.5,0,0,1,10.8,192.6Zm.3.9a.5.5,0,0,1,.5.3c0,.1,0,.2-.1.2h-.3c-.1,0-.1.1,0,.2v.2H11c-.1-.1-.1-.2-.1-.4S10.9,193.5,11.1,193.5Zm.5,2.4c-.1.1-.2,0-.2-.1h-.2v.2a.2.2,0,0,1,0,.3h-.3V196a.4.4,0,0,1,.4-.4c.2-.1.3,0,.4.2h-.1Zm0-5h-.1c-.1,0,0,.1,0,.1a.2.2,0,0,1,0,.3h0c-.1.1-.2,0-.3-.1a.4.4,0,0,1-.1-.3.4.4,0,0,1,.4-.4c.2,0,.4.1.4.3s.1.2,0,.2Zm.6,1.9c.2-.1.4,0,.4.2a.2.2,0,0,1,0,.3h-.4c-.1.1,0,.1,0,.2s.1.2,0,.2h-.3c-.2-.1-.2-.4,0-.6h.3Zm.4,2.2h-.4c-.1.1,0,.1,0,.2s.1.1,0,.2h-.3a.4.4,0,0,1-.1-.3c0-.2.2-.5.4-.5s.3.1.4.3h.2c0,.2-.1.2-.2.2Zm.1-3.2h-.2c-.1-.1-.1-.2-.2-.1s0,.1.1.2v.2h-.2a.4.4,0,0,1-.1-.5c0-.2.2-.3.4-.3s.4.1.4.3-.1.2-.2.2Zm.1-1.6h-.2c0,.1,0,.1.1.1s.1.2-.1.3-.2,0-.3-.2.1-.5.4-.6h0c.2,0,.4.1.4.3s0,.2-.1.2h-.2Zm.8,3.8h-.3c-.1,0-.1.1,0,.1a.4.4,0,0,1-.1.3H13a.4.4,0,0,1-.1-.3c-.1-.2.1-.4.3-.5a.5.5,0,0,1,.5.3Zm0-1.5h-.3c-.1.1-.1.1,0,.2v.2H13c-.1-.1-.2-.3-.1-.4s.2-.3.4-.3.3.1.4.3ZM14,191c-.1.1-.2,0-.2-.1h-.1a.4.4,0,0,1-.1.3h-.2c-.1,0-.2-.2-.2-.3s.2-.4.4-.4a.5.5,0,0,1,.5.3C14.1,190.9,14.1,191,14,191Zm3,1.6h-.2v-.2a3.6,3.6,0,0,0-2.1-2.4h-.1c-.1-.1-.2-.1-.1-.2s.1-.2.2-.1h.4a3.9,3.9,0,0,1,2,2.5v.4Z" fill="#fff"/>
    <rect x="242" y="10.2" width="93" height="16.35" fill="#1c8f49"/>
  </g>
</svg>
