<?xml version="1.0" encoding="UTF-8"?>
<svg id="uuid-3faf8824-e56d-4201-a638-82dbb7db7aa1" data-name="Layer 1" xmlns="http://www.w3.org/2000/svg" width="335" height="335" xmlns:xlink="http://www.w3.org/1999/xlink" viewBox="0 0 335 335">
  <defs>
    <radialGradient id="uuid-51c3248c-1670-4031-b7f5-20cd4521f0a6" cx="167.5" cy="-104.5" fx="167.5" fy="-104.5" r="167.5" gradientTransform="translate(0 272)" gradientUnits="userSpaceOnUse">
      <stop offset="0" stop-color="#fff"/>
      <stop offset="1" stop-color="#e6e7e8"/>
    </radialGradient>
    <radialGradient id="uuid-195b7f42-5a31-40ff-a487-16fbc52718c8" cx="-557.7" cy="-66.3" fx="-557.7" fy="-66.3" r="3.7" gradientTransform="translate(95.8 -313.2) rotate(-90)" gradientUnits="userSpaceOnUse">
      <stop offset="0" stop-color="#ed1c24"/>
      <stop offset=".5" stop-color="#c71d25"/>
      <stop offset=".8" stop-color="#c71d25"/>
      <stop offset="1" stop-color="#c71d25"/>
    </radialGradient>
    <radialGradient id="uuid-226d5153-0352-45d1-9169-b327143f41b2" cx="-64.2" cy="44.1" fx="-64.2" fy="44.1" r="3.7" gradientTransform="translate(0 272)" gradientUnits="userSpaceOnUse">
      <stop offset="0" stop-color="#ed1c24"/>
      <stop offset=".5" stop-color="#c71d25"/>
      <stop offset=".8" stop-color="#c71d25"/>
      <stop offset="1" stop-color="#c71d25"/>
    </radialGradient>
    <radialGradient id="uuid-d5930076-a126-4946-a21e-500e43887054" cx="62.7" cy="-66.9" fx="62.7" fy="-66.9" r="3.5" gradientTransform="translate(0 272)" gradientUnits="userSpaceOnUse">
      <stop offset="0" stop-color="#ed1c24"/>
      <stop offset=".5" stop-color="#c71d25"/>
      <stop offset=".8" stop-color="#c71d25"/>
      <stop offset="1" stop-color="#c71d25"/>
    </radialGradient>
    <radialGradient id="uuid-a12520ae-ad8e-4041-9dfb-18e505f8e96e" cx="42.6" cy="-66.9" fx="42.6" fy="-66.9" r="3.5" gradientTransform="translate(0 272)" gradientUnits="userSpaceOnUse">
      <stop offset="0" stop-color="#ed1c24"/>
      <stop offset=".5" stop-color="#c71d25"/>
      <stop offset=".8" stop-color="#c71d25"/>
      <stop offset="1" stop-color="#c71d25"/>
    </radialGradient>
  </defs>
  <path d="M0,0H335V335H0V0Z" fill="url(#uuid-51c3248c-1670-4031-b7f5-20cd4521f0a6)"/>
  <g>
    <path d="M79.3,190.1c-1.4,10-8.2,14.4-18,11.6-2.9-.8-5.7-1.9-9.2-3,1.2,3.2,2.9,4.8,4.2,6.6,3.5,4.8,10,2.8,13.6,6.9,1.7,1.9,4.2,3,6.3,4.5,1.4,1,3.8,1.7,3.9-.2,.3-4,4.2-5.5,5.1-8.8,3.3-11.8,3.9-23.5-2-35.3-2,6.1-3.1,11.9-4,17.8l.1-.1Zm175-34.7c-.9-1.7-2.5-3.2-4.2-1-5.3,6.9-11.9,13.3-12.3,22.8-.5,11-.7,22-.9,32.9v8.9c3.6,1.3,3.7-4.5,6.5-2.1,2.9,2.4,1,5.9,.7,9,2.4,.6,2.9-3.6,4.2-1.4,3,5.4,3.7,.7,4.9-.8,2.7-3.5,4.3-7.4,4.8-12.1,.4-4.3,2.4-8.3,5.9-12.5,.4,4.1,3.5,4.5,5.9,6.3,2.1-5.6,7.2-10.9,3.9-16.9-6.1-11.2-13.5-21.8-19.4-33.1h0Z" fill="#f2dfe4"/>
    <path d="M335,305.1v-3.1c-.6-.2-1.2-.5-1.7-.8-2.1-1-2.1-2.4-2.8-4.5-1.8-5.5,1.5-7.2,4.5-9v-24.3c-.5-.2-1.1-.2-1.9,0-.2,0-.9-.9-.9-1.3,0-1.4,1.2-2,2.2-2.7,.2-.2,.4-.3,.6-.5v-5.5c-2.1,1.5-4.3,3-7.1,3.5,2.1-2.5,4.5-4.7,7.1-6.9v-7.6c-2.9,1.4-5.8,2.4-8.9,2.9,.5-8.4,1.5-16.2,8.9-21.1v-3.5s-.2,.1-.3,.2c-2.1,1.2-3.4,3.8-6.8,4.7,1.4-4.7,1.2-8.9,1.4-13.1,.2-5,1.7-8.8,5.6-11.1v-28c-2.6,1.2-4.7-.2-4.5-3.8,.4-5.4-.7-11.7,4.5-14.8v-4c-13.4-7.8-27-9.1-41.7-3,5.9,3.8,8.1,9.6,6.7,17.2-.2,1.2-.3,2.4-.4,3.6-.5,5.9-1.4,6.6-6.4,3-10-7.1-17.2-16.8-20.9-28.5-3.1-9.9-2.6-10,4.9-18.5,.3-.3,.5-.6,.8-.9,2.8-3.7,5.4-7.4,.4-11.3-1.4-1.1-1-2.5-.3-3.8,3.4-6.1,6.4-12.5,10.3-18.3,5.4-8,5.7-7.8,13.6-2.1,1.8,1.3,3.7,2.4,5.4,3.8,3.7,3,5.7,.8,7.5-2.3,1.9-3.1,3.5-5.7-1-8.3-14.2-8.2-28.1-17.1-41.4-26.7-4.5-3.2-6,0-7.9,2.8-2,2.9-3,5.6,1.2,7.8,4.6,2.4,8.9,5.3,13.5,7.8,2.7,1.5,3,3.2,2,5.9-3.1,8.1-7.9,15.2-13,22.1-1.3,1.8-2.9,3.6-5.5,2.4-6.7-3.4-9.6,.4-11.4,6-4.2,13.1-13.6,23-20.8,34.2-.8,1.2-2.5,1.9-3.8,2.8-1.3,.9-2.3,.6-2.8-.9-2-5.9-.7-11.9-.9-17.9-.1-4,5.2-1.3,6.1-4.4-13.7-8.7-39.7-8.5-49.6,.4,.7,1.2,1.9,1.4,3.1,1.4,6.2,0,8.5,3.1,7.7,9.1-.9,6.5,.4,12.8,2.7,18.8,1.5,4,.4,5.8-4,6.4-6.7,.8-13.2,3.1-19.4,5.7-2.1,.9-4.8,1.7-3.6,5.1,.4,1.3-.2,2.5-1.3,3.1-6.1,3.9-9.7,10-13.8,15.6-1.4,2-2.7,2.1-4.2,.2-1.6-2-3.9-4-3.4-6.8,.8-5.1-2.3-7.8-5.7-10.4-4.1-3.2-8.5-6.1-13.6-7.4-2.9-.8-4.1-2.3-1.6-5,2,.4,.9,5.7,4.2,2.9,4.2-3.5,.7-7.1-1.2-11.3,2.7,1.7,3.6,3.4,3.8,5.8,.1,1.8-.4,4.7,2.7,4.1,2.6-.4,2.1-3,2-4.9,0-1.9-1.5-4,.9-5.4,3.9-2.2,4-2.6,.4-4.7-2.5-1.5-2.7-3.4-3.2-5.9-1-5.3,3.3-6.3,8-8.8-13.1-2.9-23.6-10-36.1-4.6-3.3,1.4-7,1.8-10.3,3.1-4.1,1.6-6-.1-6.9-3.9-1.2-5.2-2.5-10.5-3.8-15.8-1.1-4.4-3.2-6.5-7.6-3.4-1.5,1.1-3.1,1.9-4.8,0-4.1-4.3-7.2-9.6-8-15.1-.5-3.3,5.3-4.7,8.1-7.2,1.3-1.2,2.8-2.2,4.3-3.2,3.9-2.5,2.7-5.1,.5-8-2.2-2.8-4.3-3.8-7.4-1-11,9.8-22.5,19.1-34.7,27.5-4.3,2.9-1.7,5.3,.2,7.9,2.2,3,4.4,3.6,7.4,.7,3.9-3.7,8.1-7.1,12.6-11,.7,4.4,3.9,6.2,6.4,8.7,2.7,2.8,6.4,5.8,.9,9.6-1.9,1.3-.8,2.9,.3,4.1,8.4,8.6,10.4,20.5,16.2,30.5,.6,1,1.8,2.3,.3,3.9-3.8-2.6-4.8-7.8-9.2-10.5-.2,5.6,3.3,9.3,4.5,13.8,1.1,4.2-.4,8.2-3.3,8-5.4-.2-8.5,2.4-9.3,7.9-.2,1.3,.2,3.3-1.8,3.3-4.4-.2-8.5-2.5-10.9-5.6-2.2-2.9,1.1-5.6,3.9-7.5,4.4-3.1,4.5-6.1,0-9.2-3.2-2.2-6.2-4.2-4.8-9.2-1.5,.5-2.5,.6-2.9,1.1-2.8,3.6-5.6,5.9-8.9,.4-.2-.4-1.5-.2-2.2-.1-3.4,.2-6.1-1.6-7.2-4.3-1.3-3.1-3-2.1-5.2-1.9-7.6,.6-13,7.2-20.6,7.7v33.3H.3s-.2,.1-.2,.2v28.5c2.5-.4,4.7,1.3,6.4,5.3,3.1,7.1,4,14.8,3.7,22.5-.3-5.5-8.1-3.9-8.4-9.4-.5,1.5-1,3-1.6,4.4v101.6c.2,.1,.5,.2,.7,.3H9.4c.6-.7,1.1-1.6,1.5-2.7,.7-2,1-4,3.3-1.2,2-1.8,4.1-3.5,6.1-5.3-4.5-1.6-.6-4.5-1.7-7.1,10.2,4.9,11,4.9,13.9,.6,2.2,2.8,2,7.7,7.1,7.4-2.6,3.8-6.5,5.4-10,8.2h239.2c-1.3-1.4-.5-3,1.7-4.9,5-4.4,9.1-.1,12.8,2,5.2,3,6,3,7.5-3.1,.8,2,1.5,4,2.3,6h4.7c-.8-2.2-1.6-4.3-1.2-6.7,.8-4.6,3.9-8.5,4-13.4,0-1,.4-2.1,1.6-2.1,1.3,0,1.3,1.2,1.7,2.1,1.2,3,5.4,3.1,5.8,2,1.1-3.2,2.5-1.7,3.8-.9,2.6,1.6,3.2-1.2,4.8-1.8-.1-2-5-.8-2.7-3.8,4.5-5.9,11.9-7.6,19.4-5.2v.3ZM85.3,207.6c-.9,3.2-4.8,4.8-5.1,8.8-.2,2-2.5,1.2-3.9,.2-2.1-1.4-4.7-2.6-6.3-4.5-3.6-4.1-10.1-2.1-13.6-6.9-1.4-1.9-3-3.4-4.2-6.6,3.5,1.2,6.3,2.2,9.2,3,9.7,2.8,16.5-1.6,18-11.6,.8-5.9,1.9-11.7,4-17.8,5.9,11.9,5.2,23.6,2,35.3l-.1,.1Zm184.5-2.2c-2.3-1.8-5.5-2.2-5.9-6.3-3.5,4.2-5.5,8.2-5.9,12.5-.5,4.6-2.1,8.5-4.8,12.1-1.2,1.5-1.9,6.2-4.9,.8-1.2-2.2-1.8,2-4.2,1.4,.3-3.1,2.2-6.6-.7-9s-2.9,3.4-6.5,2.1v-8.9c.3-11,.4-22,.9-32.9,.4-9.5,7-15.9,12.3-22.8,1.7-2.2,3.3-.7,4.2,1,5.9,11.4,13.2,21.9,19.4,33.1,3.3,6-1.8,11.3-3.9,16.9h0Z" fill="#f2dfe4"/>
    <path d="M151.4,46c4.6,.5,9.2,1.9,14.4,.4-1.3-2.5-3.5-3.2-5.2-4.4-1.2-.8-2.9-1.6-2.3-3.1,2.8-6.7-2-6.4-6.1-7.4-3.4-.9-6.8-2.4-9.9-4.1-3.3-1.7-6-3.4-7.9,1.6-.8,2.1-2.9,1.7-4.7,1.5-1.9-.3-3.8-1.5-6.3,0,1.8,3.1,4.5,4.5,6.9,6.1,7.1,4.9,14.1,9.8,15.9,19.2,.4,2,1.8,4,3.1,5.7,1.4,1.8,2.4,4.4,5.1,4.6,.5,0,1.4-1,1.5-1.6,.3-2.9-2-4.2-3.9-5.6-2.3-1.7-4.2-3.6-5.3-6.3-2.3-6-1.6-7.1,4.7-6.5v-.1ZM11,24.1c3.5,6.3,6.7,3,10.5,1.2,2.5-1.2,5.1-2.5,7.8-2.8,5.2-.6,9.1-1.8,6.7-8.7,5.5,2.9,7.1,7.8,9.5,12.1,.7,1.2,1.4,2.8,3.2,1.7,1.5-.9,1.2-2.6,.3-3.7-1.5-2.1-3.2-4.1-5-5.8-3.4-3.3-7-6.4,.7-10.6C27.1,5.1,8.2,12.3,.8,23.6c3.6,.8,8.4-2.7,10.2,.6v-.1Zm250.6-15.6c-5.7,3.5-11.4,7.1-17.9,11.3,4.6,1.8,9.7-1,10.9,1.8,3.4,7.3,7.3,3.2,11.5,1.8,2.8-1,5.7-1.7,8.7-2.2,3.6-.6,7.6-.4,5.8-6.1-.6-1.8,1.3-2.7,2.6-3.5,1.7-1.1,4.2-1.2,5.4-4.8-4.6,0-9-.6-13.1,.2-5.5,1-7.3-3.3-10.7-6.7,1.6,5.8,1.6,5.7-3,8.5l-.2-.3Z" fill="#f2dfe4"/>
  </g>
  <path d="M9.84,311.66l.83-2.25,2.25,.83-.83,2.25-2.25-.83Zm4.88,1.82l.83-2.25,2.25,.83-.83,2.25-2.25-.83Zm4.92,1.73l.83-2.25,2.25,.83-.83,2.25-2.25-.83Zm4.88,1.82l.83-2.25,2.25,.83-.83,2.25-2.25-.83Zm4.88,1.82l.83-2.25,2.25,.83-.83,2.25-2.25-.83Zm4.98,1.82l.83-2.25,2.25,.83-.83,2.25-2.25-.83Zm-26.31-4.44l.83-2.25,2.25,.83-.83,2.25-2.25-.83Zm4.88,1.82l.83-2.25,2.25,.83-.83,2.25-2.25-.83Zm4.92,1.73l.83-2.25,2.25,.83-.83,2.25-2.25-.83Zm4.98,1.82l.83-2.25,2.25,.83-.83,2.25-2.25-.83Zm4.88,1.82l.83-2.25,2.25,.83-.83,2.25-2.25-.83Zm4.88,1.82l.83-2.25,2.25,.83-.83,2.25-2.25-.83Zm-26.21-4.34l.83-2.25,2.25,.83-.83,2.25-2.25-.83Zm4.88,1.82l.83-2.25,2.25,.83-.83,2.25-2.25-.83Zm4.91,1.63l.83-2.25,2.25,.83-.83,2.25-2.25-.83Zm4.98,1.96l.83-2.25,2.25,.83-.83,2.25-2.25-.83Zm4.88,1.72l.83-2.25,2.25,.83-.83,2.25-2.25-.83Zm4.98,1.82l.83-2.25,2.25,.83-.83,2.25-2.25-.83Z" fill="#231f20"/>
  <path d="M321.4,0h3.5V83.7h-3.5V0Z" fill="#c71d25"/>
  <path d="M316.2,0h3.5V66.7h-3.5V0Z" fill="#231f20"/>
  <path d="M311,0h3.5V51h-3.5V0Z" fill="#c71d25"/>
  <path d="M282.2,12.2c-1-.7-2.4-.6-3.8-.7,1.4,.3,2.4,.7,3.6,1.3-1.6-.9-.6-.9,.3-.6h-.1Zm9.9,8.9c2,1.6,2.8,4.1,3.1,5.7,.4,2.1,.7,4.9,.9,8.6,.9-3.3,.5-6.4,0-8.8s-1.3-4.5-4-5.5Zm-.3-1.5c3-1.6,5.4-1.3,7.4-.7,2,.6,3.9,1.6,5.1,4.5,.2-3.1-2.4-5.3-4.7-6-3-.7-6.2,0-7.8,2.2Zm-.4-3.2h.1c2-1,3.4-2.3,5.5-2.5,2.3,0,4.9,1.5,6.2,3.6h.1c-1.5-2.7-3.3-4.9-6.5-5-3.1,.4-3.9,2.3-5.5,3.9h.1Zm-1,.2c-.5-3.7,.1-6.7,1.8-9-3.4,2.4-3.5,5.6-1.7,9h-.1Z" fill="#231f20"/>
  <path d="M277.8,11.5c5.2-.2,8.6,2.2,8.9,6.4-2.1-2.6-3.4-5-8.9-6.4Zm4.4,6.6c-1.5,0-3.1,.6-4.9,1.9,3.5-1.1,6-1.4,8.9-.9h.1c-1.2-.7-2.6-1.1-4.1-1Zm7.2,4.3c-1.7,1-2.4,3.6-1.3,7.5v-.2c.4-4.1,.9-5.8,1.3-7.3Zm-2.4-1.5c-5.5,.4-8,4.4-7.9,7.9,2.2-4,3.1-5.8,7.7-7.8l.2-.1Z" fill="#231f20"/>
  <path d="M281.5,15.6c1.1,.6,2.4,1,3.6,2.2-.8-2.2-1.6-2.4-3.6-2.2Zm5.7-2.7c0,1.1,.9,2.4,1.2,3.8h.1c.3-1.3,.2-2.7-1.3-3.8h0Z" fill="#231f20"/>
  <path d="M287.3,13.4l.6,1.5c-.1-.5-.1-.8,.2-.9l-.8-.6h0Z"/>
  <path d="M292.5,12.9c-.9,.2-1.5,.6-1.3,2.4,.4-.7,1-1.3,1.2-2.3l.1-.1Zm-.9,5.7c.8-1,1.5-1.3,2.1-1.6s1.6-.8,1.9-.5c-.9-.8-1.3-.8-2.4-.3-1.1,.7-1.5,1.2-1.8,2.4h.2Zm.8,1.8c1.2,.1,2.5,.4,3.6,1.2-.5-1.7-2.2-2.2-3.7-1.2h.1Zm-1.8,2h-.1c0,1.3-.1,2.3,.1,3.3,.7-1.1,.7-2,0-3.3Zm-4.6,.1c-.7,.5-.7,1.3-.8,2.5,.4-.7,.8-1.6,1.2-2s1.1-.9,1.5-.9c-.8-.1-1.3,0-2,.4h.1Zm-3.5-1.5c.4-.3,1.4-.6,2-.7s1.3-.3,2-.1h.1c-.7-.5-1.7-.7-2.4-.5-.7,.2-1.2,.9-1.8,1.4l.1-.1Zm9,.6c1.8,2.1,1.8,5.1,1,7.5,2-2.5,2-5.2-1-7.5Z" fill="#231f20"/>
  <path d="M279.6,14.6l-.8-.8h-1.1l.5-1-.3-1.1,1.1,.2,.9-.6,.2,1.1,.9,.7-1,.5-.4,1.1v-.1Z" fill="#ed1c24" fill-rule="evenodd"/>
  <path d="M290.3,10c-1,1.6-.7,3.5-.5,5.4-.3,0-1.3-4.3,.5-5.4Z" fill="#231f20"/>
  <path d="M289.6,13.7l-1.3-.3-1.2,.6v-1.4l-1.1-.9,1.3-.5,.6-1.2,.9,1.1,1.4,.2-.7,1.1,.2,1.3h-.1Zm11.1,5.6l-1.4-.7-1.5,.4,.3-1.5-.8-1.3,1.5-.2,1-1.2,.7,1.4,1.4,.6-1.1,1.1v1.5l-.1-.1Zm-2.5,3.9l-1.3-.2-1.1,.7-.2-1.3-1-.8,1.1-.6,.5-1.2,.9,.9h1.3l-.6,1.2,.3,1.2,.1,.1Z" fill="#ed1c24" fill-rule="evenodd"/>
  <path d="M294.2,23.4c1.2,1.5,1.8,7.6,1.7,8.6,.2-1,0-7.4-1.7-8.6Z" fill="#231f20"/>
  <path d="M295.3,30.2l-1-.7-1.2,.2,.3-1.2-.5-1.1h1.2l.9-.9,.4,1.1,1.1,.6-1,.8-.2,1.2h0Zm-5.5,.1h-1.2l-.9,.9-.4-1.2-1.1-.6,1-.7,.2-1.2,1,.7,1.2-.2-.4,1.2,.5,1.1h.1Zm-9.4-5.9l-1.4-.4-1.3,.7v-1.5l-1.1-1,1.4-.5,.7-1.3,.9,1.1,1.4,.2-.8,1.2,.2,1.4v.1Zm1.3,8.3l-1.4-1.1h-1.8l.6-1.6-.7-1.7h1.8l1.4-1.1,.5,1.7,1.5,1-1.5,1-.4,1.7v.1Zm12.4-21.6l-.6-.4h-.8l.2-.6-.4-.7h.8l.5-.6,.3,.7,.7,.3-.6,.5v.8h-.1Z" fill="#ed1c24" fill-rule="evenodd"/>
  <path d="M279,12c-.1,0-1-.2-1-.2l.3,.9-.3,.8,.5-.7c-.2-.6,0-.8,.5-.8Zm-1.1,9.8l-1.1,.4,.9,.9c-.6-.7-.2-1,.1-1.3h.1Zm9.9-11.2l-.3,.6-1.1,.5,.8,.8v.8s.3-.9,.2-.9c-.7-.2-.7-1.1,.3-1v-.8h.1Zm5.6-1.1h-.7l.3,.5-.2,.6c.1-.2,.2-.5,.3-.6-.3-.4,0-.4,.2-.5h.1Zm5.4,6.5l-1.4,.2,.9,1.1c-.8-1,0-1.1,.6-1.3h-.1Zm-2.9,5.2l-1,.5,.9,.7c-.7-.5-.3-.8,.1-1.2Zm-15.8,7.4h-1.5l.6,1.4v.8l.3-.8c-1.1-1.5,.1-1.2,.6-1.4Zm7.3-.1v.3l-1,.7,1,.6s-1-.9,0-1.3c.1,0-.1-.3-.1-.3h.1Zm6.7-1h-1.1l.5,1-.2,.5,.3-.6c-.5-.6,0-.8,.4-1l.1,.1Z"/>
  <path d="M292,15.9c2-2.4,3.3-3.1,4.6-3.2-1.7,.5-3.1,1.9-4.6,3.2Zm.6,3c0-.3,4.7-1.9,4.8-1.5,.4-.3-3.4,0-4.8,1.5Zm-14.3,.7c1.8-.8,3.4-1.1,4.9-1.2,0,0-2.2-.6-4.9,1.2Zm1.4,6.5c.1-.7,4-4.6,4-4.2,0-.5-3.2,1.5-4,4.2Zm8.9-2.6c-.5,1.2-.7,2.4-.8,3.6-.1,0-.4-2.6,.8-3.6Zm4.8,.6c0-.1-1.2-1.8-1.2-1.8,.3,.8,.7,1.5,.8,2.2,0-.8,.2-.6,.4-.4h0Z" fill="#231f20"/>
  <path d="M283.7,16c-.7-.3-1.9-.2-1.9-.2,.6,.5,1.4,.4,1.5,.8,0-.2-.3-.5,.4-.5v-.1Zm.5,3.7c-.3,0-.8,.4-1.3,.9,.5-.1,.9-.4,1.4-.4-.8,0-.5-.2-.1-.4v-.1Zm1.1,4.6c.1-.4,1.2-2.1,1.3-1.8-.1-.2-1.1,.3-1.3,1.8Zm5.4,.2c-.2-.9,0-1.9,0-1.8l.3,.8c-.3,0-.3,.6-.3,1Zm3.9-4.4c-.5-.2-1.4,0-2,.3,.8,0,1.4,0,1.8,.3-.4-.4-.1-.5,.2-.6Zm-2.8-1.9c.6-.8,1.1-1.7,2-1.7,.2-.6-1.7,.3-2,1.7Zm-.4-3.4c0-1.1,.4-1.2,.6-1.5,0,0-1,0-.6,1.5Z"/>
  <path d="M9.5,262.3c-1-.7-2.2-.6-3.6-.7,1.3,.3,2.2,.6,3.3,1.2-1.5-.9-.6-.8,.3-.6v.1Zm9.4,8.4c1.9,1.5,2.6,3.9,2.9,5.4,.4,2,.7,4.6,.8,8.1,.8-3.2,.4-6.1,0-8.2s-1.2-4.2-3.8-5.2l.1-.1Zm-.3-1.4c2.8-1.5,5-1.2,6.9-.7s3.6,1.5,4.8,4.2c.2-2.9-2.2-5-4.4-5.6-2.8-.6-5.8,0-7.4,2.1h.1Zm-.4-3.1h.1c1.8-.9,3.2-2.2,5.1-2.3,2.2,0,4.6,1.4,5.8,3.4h.1c-1.4-2.5-3.1-4.6-6.1-4.7-2.9,.4-3.7,2.1-5.1,3.7l.1-.1Zm-1,.3c-.4-3.5,.1-6.3,1.7-8.4-3.2,2.3-3.3,5.2-1.6,8.4h-.1Z" fill="#231f20"/>
  <path d="M5.4,261.7c4.9-.2,8.1,2,8.3,6-1.9-2.4-3.2-4.7-8.4-6h.1Zm4.2,6.2c-1.4,0-3,.6-4.7,1.8,3.3-1,5.7-1.3,8.3-.9h.1c-1.2-.7-2.4-1-3.9-.9h.2Zm6.7,4.1c-1.6,1-2.3,3.4-1.2,7v-.2c.4-3.8,.8-5.4,1.2-6.9v.1Zm-2.2-1.5c-5.2,.3-7.6,4.2-7.4,7.4,2.1-3.8,2.9-5.5,7.3-7.3l.1-.1Z" fill="#231f20"/>
  <path d="M8.9,265.6c1,.6,2.2,.9,3.4,2-.7-2.1-1.5-2.2-3.4-2Zm5.3-2.6c0,1.1,.9,2.3,1.2,3.6h.1c.3-1.2,.2-2.5-1.2-3.6h-.1Z" fill="#231f20"/>
  <path d="M14.3,263.5l.6,1.5c-.1-.4-.1-.8,.2-.9l-.7-.6h-.1Z"/>
  <path d="M19.2,263c-.8,.2-1.4,.6-1.2,2.2,.4-.7,.9-1.2,1.2-2.2Zm-.8,5.3c.8-.9,1.5-1.2,2-1.5s1.5-.8,1.8-.5c-.9-.7-1.2-.8-2.2-.3-1,.7-1.4,1.1-1.7,2.3h.1Zm.8,1.8c1.1,.1,2.4,.3,3.4,1.1-.5-1.6-2.1-2.1-3.4-1.2v.1Zm-1.8,1.9c0,1.2-.1,2.1,0,3.1,.7-1,.7-1.9,0-3.1Zm-4.3,0c-.6,.5-.7,1.2-.7,2.3,.4-.6,.7-1.5,1.2-1.9s1.1-.8,1.4-.8c-.7-.1-1.3,0-1.9,.4Zm-3.3-1.4c.4-.3,1.3-.6,1.9-.7s1.2-.3,1.9-.1c-.6-.4-1.6-.6-2.3-.5-.7,.2-1.1,.8-1.7,1.3h.2Zm8.5,.6c1.7,2,1.7,4.8,.9,7,1.9-2.4,1.9-4.9-1-7h.1Z" fill="#231f20"/>
  <path d="M7.1,264.6l-.8-.7h-1.1l.5-1-.3-1,1.1,.2,.9-.6,.2,1,.8,.6-.9,.5-.4,1Z" fill="#ed1c24" fill-rule="evenodd"/>
  <path d="M17.1,260.2c-.9,1.5-.7,3.3-.5,5.1-.2,0-1.2-4,.5-5.1Z" fill="#231f20"/>
  <path d="M16.5,263.7l-1.2-.3-1.1,.6v-1.3l-1-.9,1.2-.5,.6-1.2,.8,1,1.3,.2-.7,1.1,.2,1.3h-.1Zm10.4,5.3l-1.3-.7-1.4,.4,.3-1.4-.8-1.2,1.4-.2,.9-1.1,.6,1.3,1.4,.5-1.1,1v1.5h-.1l.1-.1Zm-2.3,3.7l-1.2-.2-1,.7-.2-1.2-.9-.8,1.1-.5,.4-1.1,.9,.9h1.2l-.5,1.1,.3,1.2-.1-.1Z" fill="#ed1c24" fill-rule="evenodd"/>
  <path d="M20.9,272.9c1.1,1.4,1.7,7.1,1.6,8.1,.2-1,0-7-1.6-8.1Z" fill="#231f20"/>
  <path d="M21.9,279.3l-1-.6-1.1,.2,.3-1.1-.5-1h1.1l.8-.9,.4,1.1,1,.5-.9,.7-.2,1.1h.1Zm-5.2,.1h-1.1l-.8,.8-.4-1.1-1-.5,.9-.7,.2-1.1,.9,.7h1.1l-.3,1,.5,1v-.1Zm-8.9-5.6l-1.3-.4-1.2,.6v-1.4l-1-1,1.3-.5,.6-1.2,.8,1.1,1.4,.2-.8,1.1,.2,1.4v.1Zm1.2,7.8l-1.3-1.1h-1.7l.6-1.5-.6-1.6h1.7l1.3-1,.4,1.6,1.4,.9-1.4,.9-.4,1.6v.2Zm11.8-20.2l-.6-.4h-.7l.2-.6-.3-.6h.7l.5-.6,.3,.7,.6,.3-.6,.5v.7h-.1Z" fill="#ed1c24" fill-rule="evenodd"/>
  <path d="M6.5,262.1l-1-.2,.2,.9-.3,.8,.5-.7c-.2-.5,0-.7,.5-.8h.1Zm-1,9.3l-1,.3,.9,.8c-.6-.7-.2-.9,.1-1.2v.1Zm9.3-10.5l-.3,.5-1.1,.5,.8,.8v.7s.3-.8,.2-.8c-.7-.2-.6-1,.3-.9v-.8h.1Zm5.3-1.1h-.6l.3,.5-.2,.6,.3-.6c-.3-.4,0-.4,.2-.5Zm5.1,6.1l-1.3,.2,.8,1.1c-.7-.9,0-1,.5-1.2v-.1Zm-2.7,4.9l-1,.4,.8,.7c-.6-.5-.3-.8,.1-1.1h.1Zm-14.9,6.9h-1.4l.5,1.4v.7l.2-.8c-1-1.4,0-1.1,.6-1.3h.1Zm6.8-.1v.2l-.9,.7,1,.6s-1-.8,0-1.2c0,0,0-.3-.1-.3h0Zm6.4-.9h-1l.5,.9-.2,.5,.3-.5c-.5-.5,0-.7,.4-.9Z"/>
  <path d="M18.7,265.8c1.8-2.2,3.1-2.9,4.3-3-1.6,.5-3,1.8-4.3,3Zm.6,2.9c0-.3,4.5-1.8,4.5-1.5,.4-.3-3.2,0-4.5,1.5Zm-13.4,.6c1.7-.8,3.2-1,4.6-1.2,0,0-2.1-.5-4.6,1.2Zm1.3,6.1c.1-.7,3.7-4.3,3.8-3.9,0-.4-3,1.4-3.8,3.9Zm8.4-2.4c-.4,1.1-.7,2.2-.8,3.4-.1,0-.3-2.4,.8-3.4Zm4.5,.6c0-.1-1.2-1.7-1.2-1.7,.3,.7,.7,1.4,.8,2.1,0-.7,.2-.5,.4-.4Z" fill="#231f20"/>
  <path d="M10.9,265.9c-.6-.3-1.8-.2-1.8-.2,.6,.4,1.3,.3,1.4,.7,0-.2-.3-.5,.4-.5Zm.5,3.5c-.3,0-.8,.4-1.2,.8,.4-.1,.9-.4,1.4-.4-.7,0-.4-.2-.1-.4h-.1Zm1.1,4.3c.1-.4,1.2-1.9,1.2-1.7-.1-.2-1.1,.2-1.2,1.7Zm5,.2c-.2-.8,0-1.8,0-1.7l.3,.8c-.3,0-.2,.5-.3,.9h0Zm3.7-4.1c-.5-.1-1.3,0-1.8,.3,.7,0,1.3,0,1.7,.3-.4-.4-.1-.4,.2-.5l-.1-.1Zm-2.7-1.8c.6-.7,1-1.6,1.9-1.6,.2-.6-1.6,.3-1.9,1.6Zm-.3-3.2c0-1,.4-1.1,.6-1.4,0,0-1,0-.6,1.4Z"/>
  <path d="M327.8,304.2c2-7.4-1.8-14-10.1-14.6,0,2.8-.2,2.6,2.2,2.9,1.5,.2,2.9,1,4.2,1.9,3.7,2.6,3.2,5.8,3.8,9.8m-3,5.2c-1.7-3.9-5.1-4.9-9.2-3.9-1.8,.4-5.5,3.4-2.5,4.8-.1-4.1,10.4-4.3,11.8-.9" fill="#ed1c24"/>
  <path d="M313.1,311.8c-.3-.5-.8-1.9-1.2-2.7,3.1,4.4,12.2,3.9,14-1.6,1,6.4-9.9,9.6-12.9,4.3m13.1-6.2c-.4-4.1-2.9-6.6-7.2-6.9-1.8-.1-6.4,1.2-4.1,3.6,1.5-3.8,11.4-.4,11.3,3.3" fill="#ed1c24"/>
  <path d="M314.3,303.8c-.1-.8,0-2,0-3,.7,5.7,10.2,7.1,13.7,3.4-.9,3.5-4.4,5.3-7.9,4.1-2-.7-5.5-2-5.7-4.6m-9.6,23.4v4.7c.5-6.5,7.3-6.5,11.9-8,4.9-1.6,9-6.7,8.5-12.1-1.6,4.8-4.8,8.2-9.7,9.7-4.3,1.3-8.6,1-10.7,5.8M10.7,52.4c.6-4.1,0-7.2,3.8-9.8,1.3-.9,2.6-1.7,4.2-1.9,2.5-.3,2.2-.2,2.2-2.9-8.4,.6-12.1,7.2-10.1,14.7m2.8,5.1c1.4-3.4,11.9-3.2,11.8,.9,3-1.5-.7-4.4-2.5-4.8-4.1-1-7.5,0-9.2,3.9" fill="#ed1c24"/>
  <path d="M25.4,60c-2.9,5.3-13.9,2-12.9-4.3,1.8,5.5,10.9,6,14,1.6-.3,.8-.9,2.2-1.2,2.7m-12.9-6.2c0-3.7,9.9-7.1,11.3-3.3,2.3-2.4-2.3-3.7-4.1-3.6-4.4,.3-6.8,2.8-7.2,6.9" fill="#ed1c24"/>
  <path d="M24.2,52c-.2,2.6-3.7,3.8-5.7,4.6-3.4,1.2-6.9-.6-7.9-4.1,3.5,3.7,12.9,2.3,13.7-3.4v3m9.4,23.2c-2.1-4.8-6.4-4.5-10.7-5.8-4.9-1.5-8.1-4.9-9.7-9.7-.4,5.4,3.6,10.5,8.5,12.1,4.6,1.5,11.3,1.6,11.9,8v-4.7" fill="#ed1c24"/>
  <path d="M308.6,310.6H82.1v-39.5h226.5l-28.2,19.8,28.2,19.7Z" fill="#c71d25"/>
  <path d="M87.4,316H36.9v-50.3h50.5v50.3Z" fill="#231f20"/>
  <path d="M87.1,316H36.9v-50.3h50.2v50.3Z" fill="#c71d25"/>
  <path d="M27.45,290.83l35.14-35.14,35.14,35.14-35.14,35.14-35.14-35.14Z" fill="#231f20"/>
  <path d="M26.47,290.79l35.57-35.57,35.57,35.57-35.57,35.57-35.57-35.57Z" fill="#c71d25"/>
  <g>
    <path d="M25.9,17.8c0,.3-.1,.6-.4,.8l-3.7,3.7-4-2.3v-2.2c0-.6,.5-1.2,1.2-1.2s1.2,.5,1.2,1.2v2.8l3.7-3.7c.5-.5,1.2-.5,1.7,0s.4,.5,.3,.8m-1.2,10.8h-.5c-.1,0-.3-.1-.4-.2l-3.7-3.7v2.8c0,.6-.5,1.2-1.2,1.2s-1.2-.5-1.2-1.2v-2.2l4-2.3,3.7,3.7c.7,.7,.2,2-.8,2" fill="#231f20"/>
    <path d="M21.7,22.5s0-.1-.1-.1l-1-.6-2.7-1.5-2.3-1.3c-.1,0-.3,0-.4,.1v7c0,.1,.1,.3,.3,.3h.1l2.3-1.3,3.7-2.1v-.2l.1-.3Zm-.9,.1v.1l-2.9,1.6-1.8,1h-.3v-5.4c0-.1,0-.2,.2-.2l1.8,1,2.9,1.6s.1,.1,0,.2l.1,.1Z" fill="#231f20"/>
    <path d="M20,22.6l-2.1,1.2-1.3,.8h-.2v-4s0-.2,.2-.2l1.3,.8,2.1,1.2m25.3,0s0-.1-.1-.1l-3.3-1.6-2-1c-.2,0-.3,0-.3,.2v5.4c0,.2,.3,.3,.4,.2l2-1.1,3.2-1.7,.1-.1v-.2Zm-.8,0v.1l-2.5,1.3-1.5,.8c-.1,0-.3,0-.3-.1v-4.2c0-.1,0-.2,.2-.2l1.6,.8,2.5,1.3v.2Z" fill="#231f20"/>
    <path d="M43.8,22.5l-1.9,1-1.2,.6h-.2v-3.2s0-.1,.1-.1l1.2,.6,1.9,1m-15.4-2.7h2.8c1.4,0,2.4,.7,2.4,1.8s-1,1.9-2.4,1.9h-1.5v1.9h-1.3v-5.6Zm2.7,2.7c.7,0,1.1-.3,1.1-.8s-.5-.8-1.1-.8h-1.3v1.6h1.3Zm7.9,1.9v1.1h-4.5v-5.6h1.3v4.5h3.2Zm7.9-1.1l-2.5-3.6h1.6l1.6,2.4,1.6-2.5h1.5l-2.4,3.6v2h-1.3v-2l-.1,.1Zm4.6-3.2h.7v3.1l3.2-3.2h1l-2.6,2.6,2.9,3h-.9l-2.4-2.6-1,1v1.7h-.7v-5.6h-.2Zm5.5,2.7c0-1.6,1.5-2.9,3.2-3s3.2,1.3,3.3,2.9c0,1.6-1.4,3-3.2,3s-3.2-1.3-3.3-2.9Zm5.7,0c0-1.3-1.2-2.3-2.5-2.3s-2.5,1.1-2.5,2.4,1.2,2.3,2.5,2.3,2.5-1.1,2.5-2.4Zm1.7,2.1l.4-.5c.5,.5,1.2,.8,2.1,.8,1,0,1.5-.5,1.5-1,0-.6-.6-.8-1.7-1-1.3-.2-2.1-.6-2.1-1.6,0-.9,.9-1.6,2.1-1.6,.8,0,1.6,.3,2.2,.8l-.4,.5c-.5-.5-1.2-.7-1.8-.7-.8,0-1.3,.5-1.3,1,0,.6,.6,.8,1.7,1,1.2,.2,2.1,.6,2.1,1.6,0,.9-.7,1.6-2.2,1.7-1,0-1.8-.3-2.5-.9l-.1-.1Zm6-4.8h.7l2.4,3.9,2.3-4h.7v5.6h-.7v-4.3l-2.4,4-2.4-3.9v4.3h-.7v-5.6h.1Zm7.5,2.7c0-1.6,1.4-2.9,3.2-3s3.2,1.3,3.3,2.9-1.4,3-3.2,3-3.2-1.3-3.3-2.9Zm5.7,0c0-1.3-1.2-2.3-2.5-2.3s-2.5,1.1-2.5,2.4,1.2,2.3,2.5,2.3,2.5-1.1,2.5-2.4Zm1.7,2.1l.4-.5c.5,.5,1.2,.8,2.1,.8,1,0,1.5-.5,1.5-1,0-.6-.6-.8-1.7-1-1.3-.2-2.1-.6-2.1-1.6,0-.9,.9-1.6,2.1-1.6,.8,0,1.6,.3,2.2,.8l-.4,.5c-.5-.5-1.2-.7-1.8-.7-.8,0-1.3,.5-1.3,1,0,.6,.6,.8,1.7,1,1.2,.2,2.1,.6,2.1,1.6,0,.9-.7,1.6-2.2,1.7-1,0-1.8-.3-2.5-.9l-.1-.1Z" fill="#231f20"/>
  </g>
  <path d="M213.48,103.17l89.71-16.95,22.84,120.86-89.71,16.95-22.84-120.86Z" fill="#c71d25"/>
  <path d="M216.2,105.7l85.39-16.13,21.74,115.06-85.39,16.13-21.74-115.06Z" fill="#fff"/>
  <path d="M218.97,110.42l79.4-15,20.22,107.01-79.39,15-20.22-107.01Z" fill="#231f20"/>
  <path d="M219.91,109.18l79.39-15,20.22,107.01-79.39,15-20.22-107.01Z" fill="#231f20"/>
  <path d="M213.45,207.05l22.84-120.86,89.71,16.95-22.84,120.86-89.71-16.95Z" fill="#c71d25"/>
  <path d="M216.17,204.51l21.74-115.06,85.39,16.13-21.74,115.06-85.39-16.13Z" fill="#fff"/>
  <path d="M220.82,202.4l20.22-107.01,79.39,15-20.22,107.01-79.39-15Z" fill="#231f20"/>
  <path d="M219.88,201.04l20.22-107.01,79.39,15-20.22,107.01-79.39-15Z" fill="#231f20"/>
  <path d="M224.1,93.6h91.3v123h-91.3V93.6Z" fill="#c71d25"/>
  <path d="M226.3,96.6h86.9v117.1h-86.9V96.6Z" fill="#fff"/>
  <path d="M228.2,101.8h80.8v108.9h-80.8V101.8Z" fill="#231f20"/>
  <path d="M229.3,100.7h80.8v108.9h-80.8V100.7Z" fill="#00a651"/>
  <path d="M29.9,241.5c2.1,0,3.9,1.3,3.9,2.9s-1.8,2.9-3.9,2.9-4.8-1.4-4.8-3,2.6-2.8,4.8-2.8h0Z" fill="url(#uuid-195b7f42-5a31-40ff-a487-16fbc52718c8)"/>
  <path d="M25.4,244.1l-.9-.4,.1,1.3,.7-.4,.1-.5h0Z" fill="#c71d25"/>
  <path d="M16.5,244.1c.9,.8,2.5,.6,3.6,.1,1.1-.4,1.4,0,2.9,.2s2.3-.4,2.3-.4c-.2,.1-.1,.7-.1,.7" fill="none" stroke="#221c12" stroke-width=".2"/>
  <path d="M140.4,220.1c2.1,0,3.9,1.3,3.9,2.9s-1.8,2.9-3.9,2.9-4.8-1.4-4.8-3,2.6-2.8,4.8-2.8h0Z" fill="url(#uuid-226d5153-0352-45d1-9169-b327143f41b2)"/>
  <path d="M135.8,222.7l-.8-.4v1.3l.7-.5,.1-.4h0Z" fill="#c71d25"/>
  <path d="M127,222.7c.9,.8,2.5,.6,3.6,.1,1.1-.4,1.4,0,2.9,.2,1.4,.2,2.3-.4,2.3-.4-.2,.1-.1,.7-.1,.7" fill="none" stroke="#221c12" stroke-width=".2"/>
  <g>
    <path d="M29.9,220.1c2.1,0,3.9,1.3,3.9,2.9s-1.8,2.9-3.9,2.9-4.8-1.4-4.8-3,2.6-2.8,4.8-2.8h0Z" fill="#231f20"/>
    <path d="M25.4,222.7l-.9-.4,.1,1.3,.7-.5,.1-.4h0Z" fill="#231f20"/>
    <path d="M16.5,222.7c.9,.8,2.5,.6,3.6,.1,1.1-.4,1.4,0,2.9,.2s2.3-.4,2.3-.4c-.2,.1-.1,.7-.1,.7" fill="#231f20" stroke="#221c12" stroke-width=".2"/>
  </g>
  <path d="M29.3,93.3c2,0,3.7,1.2,3.7,2.8s-1.7,2.8-3.7,2.8-4.6-1.3-4.6-2.9,2.5-2.7,4.6-2.7Z" fill="url(#uuid-d5930076-a126-4946-a21e-500e43887054)"/>
  <path d="M25,95.8l-.9-.4,.1,1.2,.6-.4,.2-.4Z" fill="#c71d25"/>
  <path d="M16.5,95.8c.9,.7,2.4,.6,3.4,.1,1.1-.4,1.4,0,2.7,.2,1.4,.2,2.2-.4,2.2-.4-.2,.1-.1,.6-.1,.6" fill="none" stroke="#221c12" stroke-width=".2"/>
  <path d="M29.3,113.4c2,0,3.7,1.2,3.7,2.8s-1.7,2.8-3.7,2.8-4.6-1.3-4.6-2.9,2.5-2.7,4.6-2.7Z" fill="url(#uuid-a12520ae-ad8e-4041-9dfb-18e505f8e96e)"/>
  <path d="M25,115.8l-.9-.4,.1,1.3,.6-.4,.2-.5Z" fill="#c71d25"/>
  <path d="M16.5,115.8c.9,.7,2.4,.6,3.4,.1,1.1-.4,1.4,0,2.7,.2,1.4,.2,2.2-.4,2.2-.4-.2,.1-.1,.6-.1,.6" fill="none" stroke="#221c12" stroke-width=".2"/>
  <path d="M27.3,142.1c0-2.7-2.4-5-5.4-5s-5.4,2.2-5.4,5,.2,1.5,.5,2.1v.2l3.8,6.6c.2,.4,.7,.5,1.2,.5,.4,0,.7-.2,.9-.5l3.6-6.4c.5-.7,.8-1.6,.8-2.5h0Zm-5.4-3c1.8,0,3.2,1.3,3.2,3s-.2,1.1-.5,1.6l-.2,.2c-.6,.7-1.5,1.1-2.5,1.1-1.8,0-3.2-1.3-3.2-3s1.5-3,3.2-3v.1Z" fill="#c71d25"/>
  <path d="M311.1,264h-.9v-.5h.4v-.5h.5v1Zm-2.2,0h-1.3v-.5h1.3v.5Zm-2.7,0h-1.3v-.5h1.3v.5Zm-2.7,0h-1.3v-.5h1.3v.5Zm-2.7,0h-1.3v-.5h1.3v.5Zm-2.7,0h-1.3v-.5h1.3v.5Zm-2.7,0h-1.3v-.5h1.3v.5Zm-2.7,0h-1.3v-.5h1.3v.5Zm-2.7,0h-1.3v-.5h1.3v.5Zm-2.7,0h-1.3v-.5h1.3v.5h0Zm-2.7,0h-1.3v-.5h1.3v.5Zm-2.7,0h-1.3v-.5h1.3v.5Zm-2.7,0h-1.3v-.5h1.3v.5Zm-2.7,0h-1.3v-.5h1.3v.5Zm-2.7,0h-1.3v-.5h1.3v.5Zm-2.7,0h-1.3v-.5h1.3v.5Zm-2.7,0h-1.3v-.5h1.3v.5Zm-2.7,0h-1.3v-.5h1.3v.5Zm-2.7,0h-1.3v-.5h1.3v.5Zm-2.7,0h-1.3v-.5h1.3v.5h0Zm-2.7,0h-1.3v-.5h1.3v.5Zm-2.7,0h-1.3v-.5h1.3v.5Zm-2.7,0h-1.3v-.5h1.3v.5Zm-2.7,0h-1.3v-.5h1.3v.5Zm-2.7,0h-1.3v-.5h1.3v.5Zm-2.7,0h-1.3v-.5h1.3v.5Zm-2.7,0h-1.3v-.5h1.3v.5Zm-2.7,0h-1.3v-.5h1.3v.5Zm-2.7,0h-1.3v-.5h1.3v.5Zm-2.7,0h-1.3v-.5h1.3v.5h0Zm-2.7,0h-1.3v-.5h1.3v.5Zm-1.4,0h-.9v-1h.5v.5h.4v.5Zm-.4-2.3h-.4v-1.4h.4v1.4Zm0-2.8h-.4v-1.4h.4v1.4Zm0-2.8h-.4v-1.4h.4v1.4Zm0-2.8h-.4v-1.4h.4v1.4Zm0-2.8h-.4v-1.4h.4v1.4Zm0-2.8h-.4v-1.4h.4v1.4Zm0-2.8h-.4v-1.4h.4v1.4Zm0-2.8h-.4v-1.4h.4v1.4Zm0-2.8h-.4v-1.4h.4v1.4Zm0-2.8h-.4v-1.4h.4v1.4Zm0-2.6h-.5v-.9h.9v.4h-.4v.5Zm80.7-.5h-1.1v-.4h1.1v.4Zm-2.5,0h-1.3v-.4h1.3v.4Zm-2.7,0h-1.3v-.4h1.3v.4h0Zm-2.7,0h-1.3v-.4h1.3v.4Zm-2.7,0h-1.3v-.4h1.3v.4Zm-2.7,0h-1.3v-.4h1.3v.4Zm-2.7,0h-1.3v-.4h1.3v.4Zm-2.7,0h-1.3v-.4h1.3v.4Zm-2.7,0h-1.3v-.4h1.3v.4Zm-2.7,0h-1.3v-.4h1.3v.4Zm-2.7,0h-1.3v-.4h1.3v.4Zm-2.7,0h-1.3v-.4h1.3v.4Zm-2.7,0h-1.3v-.4h1.3v.4h0Zm-2.7,0h-1.3v-.4h1.3v.4Zm-2.7,0h-1.3v-.4h1.3v.4Zm-2.7,0h-1.3v-.4h1.3v.4Zm-2.7,0h-1.3v-.4h1.3v.4Zm-2.7,0h-1.3v-.4h1.3v.4Zm-2.7,0h-1.3v-.4h1.3v.4Zm-2.7,0h-1.3v-.4h1.3v.4Zm-2.7,0h-1.3v-.4h1.3v.4Zm-2.7,0h-1.3v-.4h1.3v.4Zm-2.7,0h-1.3v-.4h1.3v.4h0Zm-8.2,0h-.9v-.4h.9v.4Zm-2.3,0h-1.3v-.4h1.3v.4Zm-2.7,0h-1.3v-.4h1.3v.4Zm-2.7,0h-1.3v-.4h1.3v.4Zm-2.7,0h-1.3v-.4h1.3v.4Zm79.4,.5h-.5v-.5h-.4v-.4h.9v.9Zm0,27.8h-.5v-1.4h.5v1.4Zm0-2.8h-.5v-1.4h.5v1.4Zm0-2.8h-.5v-1.4h.5v1.4Zm0-2.8h-.5v-1.4h.5v1.4Zm0-2.8h-.5v-1.4h.5v1.4Zm0-2.8h-.5v-1.4h.5v1.4Zm0-2.8h-.5v-1.4h.5v1.4Zm0-2.8h-.5v-1.4h.5v1.4Zm0-2.8h-.5v-1.4h.5v1.4Zm0-2.8h-.5v-1.4h.5v1.4Z" fill="#231f20"/>
  <path d="M231.7,236.4h76v24.2h-76v-24.2Z" fill="#c71d25"/>
</svg>