<svg id="af739851-bc09-4936-a610-0cea4ebb282b" xmlns="http://www.w3.org/2000/svg" width="335" height="335" xmlns:xlink="http://www.w3.org/1999/xlink" viewBox="0 0 335 335">
  <defs>
    <clipPath id="clippath">
      <rect y="0" width="335" height="335" fill="none"/>
    </clipPath>
    <linearGradient id="New_Gradient_Swatch_3" data-name="New Gradient Swatch 3" x1="0" y1="99.5" x2="335" y2="99.5" gradientTransform="matrix(1, 0, 0, 1, 0, 0)" gradientUnits="userSpaceOnUse">
      <stop offset="0" stop-color="#272361"/>
      <stop offset=".2" stop-color="#672160"/>
      <stop offset=".5" stop-color="#9d1f60"/>
      <stop offset=".6" stop-color="#6d1643"/>
      <stop offset=".7" stop-color="#3f0c26"/>
      <stop offset=".8" stop-color="#1c0611"/>
      <stop offset=".9" stop-color="#080105"/>
      <stop offset="1" stop-color="#000"/>
    </linearGradient>
    <linearGradient id="New_Gradient_Swatch_3-2" data-name="New Gradient Swatch 3" x1="167.5" y1="335.9" x2="167.5" y2="52.7" gradientTransform="translate(0 335.9) scale(1 -1)" xlink:href="#New_Gradient_Swatch_3"/>
  </defs>
  <g clip-path="url(#clippath)">
    <g>
      <rect width="335" height="335"/>
      <path d="M332.1,274.9c-1.2,1-3.7,.7-4.8,.5,.8-.6-3.8-3.5-4.6-2.3,.9,1.5-3.5,1.8-4.6-.4-.7,.5-6.3-1-4.5-1.3,.3-.4-5.1-.5-4.7-.4,.4,0-4.2,1.1-4.2-.1,0,1.1-4.3,0-4.3-1s-4.3,3.6-4.3,1.2c0,2.1-4.4,4.3-4.4,1.4,0,.7-4-2.5-4-3.8s-4.3-4.7-4.3-.1-4.4,2.3-4.4,2-4.3-1.2-4.3,.7-4.5-1.4-4.5-1.9c0,1.9-4.6-1.3-4.6,1,0-1.4-4.4-5.7-4.4-2.4s-4.7,5.3-4.7,3.1-4.4-2.5-4.4-2.9c0,3.6-4.6,1.3-4.6,1.6s-4.5-1.8-4.5-1.1-4.5,2.6-4.5,1.6-4.6-1.8-4.6-1.3-4.7-1.3-4.7-1.1-4.6-1-4.6,.3-4.4,2.4-4.4,1.2-3.7,4.2-3.7,4.6c0,2.6-5-2.8-5-2.8,0,1.6-4.5,.5-4.5,.2s-3.9,3.1-3.9,3.3-4.3-1.4-4.3,1.5-4.4,1.1-4.4,.7c0,1.5-4.7-3.2-4.7-2.4s-4.3,.4-4.3,2.5c0,0-4.4,.3-4.4-1.5,0,0-4.4,.9-4.4-.4,0,.7-4.6,1.9-4.6,.9,0,2.8-4.9,1.8-4.9-1.3,0,1.7-5.3-.6-5.3,.2,0-1-4.5-3.3-4.5-2.7s-4.1-2.6-4.1-3c0,4-4.5,.3-4.5,1.4s-4.3-2.2-4.3,0-4.5-2.2-4.5-1.3-3.9,3.7-3.9,4.1-4.4-2-4.4-.7c0-.7-4.2,.7-4.2,1.5s-4.2,2.6-4.2,.8-4.2,1.6-4.2-.9-4.3,.7-4.3-.4c0,.8-3.9,2.6-3.9,1.5s-2.1,1.8-2.1,4.9c0-.5-4.7-.4-4.7-.6s-4.3,0-4.3-.3-4.5,4.9-4.5,3.7c0,.5-4.4-.1-4.4-1.7,0,.8-4.6-.4-4.6-.4,0,1.5-3.7-2-3.7-3.3s-3.9-3.1-3.9-2.5c0,3-4.7,2.8-4.7,1.2s-4.3-3-4.3-.5-4.4-1.1-4.4,.5-4.2-.2-4.2-2.3-4.4,1.8-4.4,1.8c0,0-4.3-4-4.3-.6,0-3.6-4.3-1.8-4.3-.3s-5.4-1.6-4.4-2.5c-1,1.1-4.6,1.3-4.4-.5s-3.1,.3-4.3,1.5c-.7-1.3-4,2.3-4.3,.5-2,.2-5.1-2.1-4.2-.4-4,.8-5.9,1.8-4,2.7-.6,.5-3.9-2.8-4.4-2.1s-2.8,4.9-3.7,3.1c-.7,.3-2.6-1.4-3.9-1.5-1.3,0-4.1-.4-4.5,.5,2,1.4-1.2,.8-4.1,.8-.4,.7-1,1.3-1.8,1.6v56.3H334.9v-61.1c-1.1,.6-1.6,0-2.8,1.1Z" fill="#fff"/>
      <path d="M265.5,17.4c0,0,.2,.2,.3,.3,.5,1,.9,2,1.3,2.9,.5,1.1,.9,2.3,1.2,3.4,.2,.6,.5,1.1,.8,1.6,.8,1.7,1.4,3.4,2.1,5.2,.3,.9,.7,1.7,1.1,2.6,.3,.6,.4,.6,.9,.5,1.6-.3,3.1-.9,4.7-1.1,.4,0,.6-.3,.9-.6,.3-.5,.8-.7,1.4-.7,1,0,1.9-.1,2.8-.2,1.5-.2,2.9,0,4.3,.4,.1,0,.3,.1,.4,.1,1.7,0,3.1,1,4.7,1.1,.2,0,.4,.2,.6,.2,.8,.3,1.5,.5,2.3,.8,1.3,.6,2.7,.4,4,.2,.3,0,.5-.2,.7-.4,.1,0,.3-.2,.5-.2,.2,0,.4,0,.5,.2,.2,.1,.1,.3,0,.5-.2,.3,0,.5,.2,.6,.2,0,.4,.1,.7,.1,.7,0,1.3,.4,1.9,.7,1.2,.6,2.3,1.4,3.4,2.2,.1,0,.2,.1,.3,.2,1.1,1.1,2.2,2.1,3.3,3.2,.3,.3,.5,.8,.7,1.3,.2,.6,.5,1,1,1.4,1,.8,1.6,1.9,2.1,2.9,.3,.5,.6,1.1,1.1,1.4,1.1,.7,1.6,1.8,2.3,2.8,1,1.5,1.8,3.1,2.5,4.8,.3,.6,.5,.8,1.2,.5,2.2-.7,4.3-1.4,6.5-2.1,.7-.2,1.4-.5,2.1-.5,0,.4-.4,.4-.6,.5-2.4,.9-4.9,1.7-7.3,2.5-.4,.1-.8,.3-1.1,.5-.2,0-.3,.2-.2,.4,0,.2,.2,.3,.4,.3,.2,0,.4,0,.5,0,1.1-.4,2.2-.7,3.3-1.1,.4-.1,.9-.3,1.3-.4,1.3-.4,2.7-.9,4-1.3,.5-.2,.9-.3,1.1-.9,0-.3,.3-.3,.5-.2,.2,.1,.5,.3,.7,.5,.3,.3,.3,.6,0,.9-.6,.5-1.2,1.1-2.1,1.2,0,0-.2,0-.2,.1-.2,.1-.2,.3-.2,.5,0,.2,.2,.3,.4,.2,.4-.1,.9-.3,1.2-.5,.6-.4,1.3-.3,2-.2,.3,0,.4,.2,.5,.4,.3,1.2,.4,2.4-.2,3.6-.5,.9-1.1,1.6-2,1.9-1.5,.5-2.9,1-4.4,1.5-.5,.2-1,.4-1.5,.5-1.1,.3-1.7,1.2-2.4,1.9-.2,.2-.2,.5-.3,.8,0,.8,0,1.5,.2,2.3,.2,.5,.3,1,.3,1.5,0,.7,0,1.4,.4,2.1,.1,.3,.1,.6,0,.9-.2,.7,0,1.4,0,2,.2,2,.2,4.1-.3,6.1-.1,.5-.1,1-.1,1.5,0,1.5-.2,3-.7,4.4-.1,.3-.2,.5-.2,.8-.2,1.6-.9,3.1-1.4,4.6-.9,2.6-2.2,4.9-3.7,7.2-1.5,2.3-3.5,4.3-5.5,6.1-.9,.8-1.9,1.4-2.7,2.3,0,0-.1,.1-.2,.1-1.1,.4-2.1,.8-3.2,1.2-.5,.1-1,.3-1.4,.5-2.6,1.5-5.5,2.3-8.4,2.9-.3,0-.7,0-1.1,0-.8,0-1.5,0-2.3,.3-.4,.2-.9,.2-1.3,.2-2.2,0-4.4,0-6.6-.2-1.4-.2-2.7-.6-3.8-1.3-1.4-.8-2.8-1.7-4-2.8-.3-.3-.7-.6-1.1-.8-1.3-.5-2.3-1.4-3.3-2.3-.6-.6-1.3-1.1-2-1.6-.9-.6-1.6-1.5-2.3-2.3-1.3-1.3-2.5-2.6-3.6-4.1-1.8-2.5-3.6-5-4.9-7.8-.7-1.5-1.7-3-2.2-4.7-.1-.5-.4-.6-.8-.4-.7,.3-1.4,.6-2.2,.8-2.4,.8-4.7,1.6-7.1,2.4-2.2,.8-4.3,1.6-6.5,2.3-1.9,.7-3.9,1.3-5.8,1.9-3.2,1.1-6.4,2.2-9.6,3.3-2.3,.8-4.5,1.5-6.8,2.3-.4,.1-.8,.3-1.1,.4-1.5,.5-2,1.7-2.5,3,0,.2,0,.4,.3,.4,.7,.2,1.4,.7,2.2,.7,.3,0,.6,.1,.8,.4,.4,.5,1,1,1.2,1.7,.1,.4,.4,.7,.7,1,.2,.1,.4,.3,.5,.5,.6,.6,.6,1.4,0,2.1-.3,.3-.6,.6-1,.7-.2,.1-.5,.2-.7,.4-.4,.2-.5,.6-.4,1.1,.1,.5,.4,.8,.7,1.2,.4,.5,.8,1.1,1.2,1.6,.2,.2,.4,.5,.3,.7,0,.5,.1,.9,.6,1.1,.1,0,.2,.3,.2,.5,.1,.9,.8,1.2,1.4,1.5,.3,.1,.6,.2,.9,.2,.7,0,1.2,.4,1.5,1,.3,.8,.9,1.2,1.6,1.6,1,.5,1.9,1,2.9,1.4,1.3,.6,2.4,1.3,3.3,2.3,.7,.8,1.1,1.6,.9,2.6-.1,.9,0,1.7,.2,2.5,.1,.5,.2,1.1,.2,1.6,0,.7-.3,1.2-1,1.5-1.3,.5-2.6,.9-3.9,1-1.8,.2-3.7,.3-5.6,.3-.5,0-1,0-1.5,.3-1.6,.7-3.2,.6-4.8,.2-1.6-.4-3.2-1-4.6-2-1-.7-1.8-1.5-2.5-2.5-.3-.5-.6-.9-1-1.3-.4-.5-.8-.8-1.5-.6-.4,0-.7,0-1.1,0-.8-.2-1.5-.5-1.9-1.2-.6-1.2-1.8-1.6-3-1.4-1.6,.2-3.1,0-4.7-.4-1-.2-2-.3-2.9-.5-1-.2-2-.6-2.9-1.1-1.4-.9-2-2.1-1.6-3.7,.2-.7,.2-1.5,.6-2.2,.2-.3,.1-.7,0-1.1,0-.4-.1-.8-.2-1.2-.1-.6,0-1.1,.2-1.7,.3-.6,.3-1.3,.5-2,0-.2,0-.4-.2-.6-.3-.3-.6-.5-.8-.7-.5-.6-1.2-.7-1.8-.5-1.8,.6-3.6,1.2-5.4,1.8-.7,.2-1.4,.7-2.1,.9-.6,.2-1.2,.4-1.8,.5-.4,0-.8,.2-1.2,.3-2.9,1.1-5.9,2.1-8.8,3.1-.8,.3-1.6,.6-2.4,.9-.2,0-.4,.2-.6,.2-1.8,.5-3.6,1.1-5.4,1.8-.9,.3-1.8,.5-2.6,1-1.7,.4-3.4,1.1-5,1.6-1.9,.6-3.7,1.4-5.7,1.9-.5,.1-1,.5-1.3,.9-.4,.5-.8,.7-1.4,.5-.7-.2-1.3,0-2,.1-.6,.2-1.2,.4-1.8,.6-.7,.3-1.1,.7-1.1,1.5,0,.9,.2,1.8,0,2.7,0,.3,0,.5,.2,.8,.4,.5,.8,1,1.5,1.3,.7,.3,.8,.6,.7,1.4,0,.4-.4,.7-.2,1,.2,.4,.7,.3,1,.6,.2,.1,.4,.2,.6,.3,1.6,.5,3,1.5,4,2.9,.4,.5,.8,.9,1.1,1.4,.2,.2,.3,.5,.1,.8-.2,.3-.4,.5-.8,.4,0,0-.2,0-.3,0-.8,0-1.3,.7-.9,1.4,.2,.4,.4,.8,.5,1.3,.1,.7,.3,1.2,1.1,1.3,.4,0,.8,.5,1,.9,.6,.8,1.2,1.6,2.1,2,.2,0,.4,.3,.5,.4,1,1.1,2.1,2,3.4,2.7,.6,.3,1.2,.7,1.6,1.2,.5,.5,1.1,.9,1.8,1.2,1.8,1,3.5,2.1,5.2,3.2,.4,.2,.8,.4,1.2,.7,1.1,.7,2,1.6,2.4,2.8,.4,1.2,.2,2.1-1,2.8-.7,.4-1.3,.8-2.1,1-2.2,.8-4.3,1.6-6.6,2.1-1.5,.3-2.9,.5-4.4,.7-.7,.1-1.4,.2-2.1,.3-1.7,.2-3.4,.5-5.1,.4-2.1,0-4.2-.2-6.1-.9-1.8-.7-3.6-1.4-5.3-2.5-.2-.1-.5-.3-.7-.4-.6-.2-1-.5-1.6-.8-1.1-.6-2-1.4-2.9-2.2-.5-.5-1.2-.8-1.9-1.1-.9-.4-1.8-.8-2.3-1.8,0-.1-.2-.3-.4-.4-.9-.3-1.7-1-2.7-1.1-1-.2-2-.4-2.9-.8-.7-.3-.9-.5-.6-1.1,.3-.7,0-1.2-.4-1.7-.4-.3-.8-.6-1.2-.8-1.3-.7-2.6-2.7-1.9-4.7,0,0,0,0,0-.1,.5-1.1,.6-2.3,.7-3.6,0-1,.6-2,.9-3,.5-1.7,1-3.5,1.4-5.2,0,0,0-.2,0-.3,.1-.9-.2-1.2-1-.9-1.5,.4-2.9,.9-4.4,1.4-1.1,.4-2.2,.8-3.3,1.1-.3,0-.4,.2-.3,.5,0,.5,.1,1,.2,1.5,.1,.6,0,1.3,0,1.9,0,.3-.1,.5-.2,.8,0,.2-.3,.3-.5,.4-.3,0-.5-.1-.7-.4,0-.2-.1-.4-.2-.6,0-.3,0-.5-.1-.8,0,0-.1-.1-.2-.2,0,0-.2,0-.2,0-.4,.4-.7,.9-.8,1.5-.1,1.3-1,2.3-1.7,3.3-.2,.3-.6,.4-.9,.5-.7,.2-1.5,.2-2.3,.2-1.3,0-1.5,.2-1.2,1.5,.6,2.2,1.2,4.5,1.6,6.7,.5,2.8,.9,5.6,1.2,8.5,0,.2,0,.4,0,.5,0,1.8,.2,3.6,.2,5.4,0,3.2,0,6.5-.6,9.7-.2,1.2-.4,2.4-.6,3.6,0,.2,0,.4-.1,.5-.5,1.5-.9,3-1.5,4.5-.4,1.1-1,2.1-1.4,3.1-.2,.5-.5,1-.8,1.5-.7,1.1-1.7,2-2.6,2.9-1.2,1.2-2.5,2.2-4.1,2.9-1,.5-2,.9-2.9,1.4-.7,.4-1.5,.5-2.2,.6-.7,0-1.2-.1-1.7-.6-1.7-1.6-3.4-3.2-5-4.8-1.1-1.1-2.2-2.1-3.3-3.2-.6-.6-1.2-.9-2.1-.8-1.8,.1-3.4-.4-5-1.1-.7-.3-1.4-.6-2.1-1-.4-.2-.8-.3-1.1,0-.6,.5-1.2,.4-1.8,0-.5-.2-.9-.4-1.3-.7-.6-.6-1.4-.7-2.1-.5-.6,.2-1.1,.3-1.6,.6-.7,.4-1.4,.4-2.1,.5-.2,0-.5,0-.7,0-.7-.5-1.5-.8-1.9-1.6-.6-1.1-1.2-2.1-2.1-3-.6-.6-1.1-1.3-1.4-2.1-.1-.3-.3-.7-.5-.9-1.5-2-2.7-4.3-3.9-6.5-1.5-2.6-2.6-5.3-3.9-7.9-.2-.5-.4-1-.6-1.5-.3-.6-.5-.7-1.1-.5-.7,.1-1.3,.4-1.9,.6-1.1,.5-2.3,.8-3.4,1.2-.6,.2-1.1,.4-1.7,.6-.3,0-.5,.3-.8,.3-1.6,.2-2.9,.9-4.4,1.4-1.7,.6-3.4,1.1-5,1.8-1.9,.7-3.8,1.3-5.6,1.9-2.1,.7-4.2,1.5-6.2,2.3-.3,.1-.7,.2-1,.3-.9,.3-1.9,.5-2.8,.9-1.4,.7-2.8,1.1-4.2,1.5-1,.3-1.9,.6-2.8,1-.7,.3-1.4,.4-2.1,.3v-14.4c.9,0,1.8,0,2.6-.4,.3-.1,.6-.2,.9-.3,1.1-.2,2.1-.6,3.1-1,.7-.3,1.4-.4,2.1-.1,.5,.2,1,.1,1.3-.4,.7-1,1.8-1.3,2.9-1.6,1-.3,2-.5,3-1,.8-.4,1.6-.6,2.5-.3,.7,.2,1.3,0,2-.3,.4-.1,.7-.3,1.1-.5,.6-.3,1.3-.4,2,0,.5,.3,1,.2,1.6,0,.5-.2,1-.4,1.5-.5,1-.4,2-.8,3.1-1.1,1.2-.3,2.4-.7,3.6-1.2,.5-.2,1-.4,1.5-.5,.6-.2,1.3-.4,1.9-.7,.8-.3,1.2-.9,1.6-1.6,.3-.5,0-1.1,0-1.6,0-.3-.2-.5-.2-.8-.4-1.8-1.1-3.6-1.3-5.5-.1-1-.3-2-.7-2.9-.3-.8-.5-1.6-.4-2.5,0-.5,0-1-.1-1.5-.2-1.5-.5-3-.6-4.6-.1-1.6-.4-3.2-.3-4.9,0-.3,0-.6-.1-.9,0-.3,0-.5,0-.8,0-1.3,0-2.5,.1-3.8,0-1.1,0-2.2,.2-3.3,.3-1.9,.5-3.9,.9-5.8,.5-2.6,1.4-5.2,2.4-7.6,.5-1.2,1.2-2.2,2-3.2,.4-.5,.8-1,1-1.6,.5-1.3,1.5-2.1,2.5-3,1.1-.9,2.5-1.4,3.8-2,1.2-.5,2.5-.6,3.7-.7,.6,0,1.2,.1,1.5,.7,.3,.9,1,1.1,1.8,1.2,.4,0,.9,.2,1.3,.3,.4,0,.8,0,1.2-.2,.5-.4,1-.5,1.7-.3,.6,.2,1.3,0,1.8-.4,.4-.3,.9-.5,1.4-.8,.7-.3,1.4-.7,2-1.1,.5-.4,1.1-.6,1.7-.8,.5-.2,1-.2,1.5,0,1.4,.6,2.8,.9,4.3,1.1,1.6,.3,2.4,1.3,2.2,3,0,.5,0,.8,.4,1.1,.2,.2,.5,.4,.7,.6,2.3,1.8,4.3,3.9,6.2,6,.9,.9,1.6,1.9,2.4,2.9,.3,.4,.6,.9,1,1.3,.6,.5,1,1.2,1.2,1.9,0,.3,.3,.6,.4,.8,1.2,1.7,2.3,3.5,3.3,5.3,.6,1.1,1.2,2.1,1.8,3.2,.3,.5,.8,.6,1.2,.2,.8-.6,1.1-1.4,1.1-2.4,0-.7,0-1.4,0-2,0-.9-.1-1.7-.9-2.3-.1,0-.2-.2-.2-.3-.3-.4-.3-.7,0-1.1,.6-.8,.8-1.7,.4-2.7-.3-.7-.1-1.3,.5-1.8,.1-.1,.2-.3,.4-.4,.8-.5,1-1.2,1-2.1,0-.2,0-.5,0-.7,0-1,.2-1.9,.7-2.7,.4-.6,.6-1.3,1.1-1.8,.2-.2,.3-.5,.3-.7-.2-1.2,.2-2.4,0-3.6,0-.5,.1-1,.5-1.3,.4-.3,.5-.7,.6-1.2,.3-1.3,0-2.7,0-4,0-1.9,0-3.7,.3-5.5,0-.7,.2-1.4,.6-2.1,0-.1,.1-.3,.1-.5,0-.6,.2-1.2,.4-1.7,.2-1,.5-2,.4-3.1,0-.4,0-.7,.2-1.1,.5-.8,.4-1.7,.6-2.5,.1-.7,0-1.5-.5-2-.5-.6-.6-1.2-.4-1.9,.1-.5,.2-1.1,.4-1.6,1-3,2.1-6,3-9.1,.6-2.1,1.4-4,2.4-5.9,.2-.5,.4-1,.9-1.3,.3-.2,.4-.6,.5-.9,0-.9,.2-1.9,.2-2.8,0-.9,.3-1.8,1-2.4,.4-.4,.8-.8,1.1-1.2,.7-.7,.7-1.1,0-1.9-.7-.9-1.5-1.8-2.2-2.7-.8-.9-1.4-1.9-2-3-1.3-2.6-2.3-5.3-2.7-8.2-.2-1.1-.3-2.2-.6-3.3-.2-.8-.2-1.6,0-2.4,.4-1.4,.5-2.8,.6-4.2,.2-2.3,1-4.4,1.8-6.5,0-.2,.2-.4,.3-.6,.5-.7,.9-1.4,1.2-2.1,.3-.7,.8-1.3,1.2-1.9,1-1.2,1.9-2.4,2.9-3.5,.8-.9,1.6-1.6,2.6-2.1,.7-.3,1-.7,1.1-1.4,47,0,94,0,141,0,0,.1,.1,.2,.2,.3,.3,.2,.3,.9,.8,.7,.3-.1,0-.6,0-1h.3c.4,1.2,.9,2.4,1.3,3.5,.1,.3,.3,.6,.4,.8,.4,.7,.7,1.4,.5,2.2,0,.5,.1,.9,.6,1.1,.7,.4,1.1,1,1.4,1.8,.3,.7,.7,1.3,1.1,2,.3,.6,.6,1.2,.5,1.9,0,.4,0,.7,.3,1,.4,.6,.8,1.3,1.3,1.9,.4,.4,.8,.9,1.1,1.3,.2,.2,.4,.4,.6,.6,.1,.1,.3,.2,.5,0,.2,0,.2-.3,.2-.5,0-.1,0-.3,0-.4h0Zm-117.4,93.8c-.8,.5-1.2,1.2-.9,2.2,.1,.4,.3,.6,.7,.7,.3,0,.5,0,.8,0,.3-.2,.7-.2,1.1-.1,0,.3-.1,.6,.3,.6,.5,0,1.1,.2,1.6,0,.3-.2,.6,.2,.9,.3,.1,.3,0,.6-.3,.8-.3,.1-.6,.2-.9,0-.3-.1-.4,0-.5,.2-.1,.3-.5,.4-.7,.6-.7,0-1.4,0-2.1,.4-.2,0-.5,.1-.7,0-.5-.2-.9,.1-1.3,.1-.2,0-.3,.1-.4,.3-.1,.2-.2,.4-.4,.6-.1,.2-.5,0-.4,.4,.2,0,.4,0,.5,0,1.6-.5,3.2-1.1,4.8-1.8,.8,0,1.6-.2,2.4-.5,2-.8,4-1.5,6.1-1.7,1.8-.2,3.5-1,5.2-1.4,1.4-.3,2.9-.8,4.3-1.2,2.2-.7,4.3-1.6,6.5-2.2,1.7-.5,3.4-1.2,5.1-1.8,1.5-.5,3-.9,4.5-1.4,2.3-.8,4.5-1.7,6.8-2.4,3.2-1,6.2-2.5,9.4-3.5,.4-.1,.7-.3,1-.7,.1-.1,.3-.3,.2-.5-.5-1,.4-1.8,.3-2.7,0,0,.1-.3,.2-.3,.9-.4,1.4-1.3,1.8-2.2,.2-.2,.3-.4,.3-.7,0,0,0-.2-.1-.2,0,0-.2,0-.2,.1,0,.3,0,.5,0,.8-.4,0-.7,.1-1,.3-.2,.1-.4,.3-.6,.3-.2,0-.4,0-.5-.2,0-.1,0-.3,0-.4,0-.3,.5-.5,.4-.8-.3-.5,0-1,.2-1.4,.2-.3,.4-.4,.7-.2,.2,.1,.4,.3,.6,.4,.4,.2,.7,.2,.9-.2,.2-.4,.5-.8,.8-1.1,.3-.3,.5-.6,.6-1,0-.2,.1-.5,.2-.6,.9-1.1,1.4-2.3,1.9-3.6,.3-.6,.6-1.2,1-1.6,.5-.4,.7-.9,.9-1.5,.6-1.8,1.9-3.3,2.4-5.1,0-.2,.2-.3,.3-.5,.6-1,1.2-2,1.4-3.2,0-.5,.2-1,.4-1.4,.2-.5,.2-1,.2-1.5,0-.9,.2-1.7,.4-2.5,0-.2,.2-.3,.4-.3,.2,0,.3,.2,.3,.3,0,.5,.2,1,.3,1.5,.1,.6,.3,.9,.5,.8,.3-.1,.2-.4,.3-.7,0-.1,0-.3,.1-.4,.2-.3,.4-.7,.7-1,.3-.4,.1-.9,.4-1.3,.3-.6,.3-.6-.3-1.2-.3,.6-.7,1.2-.6,2,0,.2-.1,.4-.3,.6,0,0-.2,.1-.4,.1-.1,0-.3-.2-.3-.3-.1-1.3-.4-2.5,.7-3.5,.2-.2,.3-.4,.5-.6,.4-.5,.5-.9,.2-1.8,0,0-.2,0-.2,.2-.1,.2-.2,.4-.3,.6-.4,1-.7,1.1-1.6,.5-.1,0-.2-.1-.3-.2-.6-.5-.6-.9-.1-1.5,.4-.5,.9-1,1.7-.5,.2,.1,.5,.1,.8,.2,.1,0,.3,0,.4,0,0,0,.2,0,.2-.1,0,0,0-.2,0-.2-.1,0-.3-.1-.3-.2,0-.4-.3-.9-.1-1.3,.2-.5,.5-.7,1-.9,.5-.1,.8-.5,1.1-.9,1.4-2.1,2.5-4.4,4.1-6.4,.2-.2,.3-.5,.4-.7,.3-.7,.2-1-.5-1.3-1.1-.5-2.3-.8-3.5-1.1-.4,0-.7,0-1,.2-1.1,.7-2.3,1.3-3.5,1.8-2.2,1-4.2,2.3-6.2,3.6-1.4,.9-2.8,1.8-4,3-.5,.4-1,.8-1.1,1.5,0,.3-.4,.5-.6,.4-.6-.2-1,0-1.4,.3-.5,.4-1.1,.7-1.7,.9-.7,.3-1.3,.2-1.9-.2-.5-.3-1-.7-1.4-1.1-.9-.9-1.9-1.6-3-2.3-.4-.2-.8-.5-1.3-.4-.4,0-.7-.1-.9-.5-.3-.5-.6-.6-1.1-.3-.2,.2-.4,0-.5-.2-.8-1.3-1.6-1.7-2.9-1.4-.2,0-.4,0-.4-.2-.1-.5-.5-.7-1-.7-1.4,0-2.8,0-4.1-.5-.3-.1-.6,.2-.9,.1-.4,0-.2-.6-.5-.7,0,0-.2-.1-.2-.1-.5,0-.8-.3-1.2-.6-.3-.2-.6-.2-.9-.2-.5,0-1.1,.1-1.6,.2-.3,0-.5-.1-.6-.4,0-.5-.1-1,.4-1.1,.5-.2,.5-.5,.4-.9,0-.3,0-.5-.2-.8-.1-.3,.1-.6-.2-.9-1.3-.2-2.7-.5-4.1-.7-1.6-.3-3.2-.5-4.8-.7h0c-.1,0-.2-.1-.4-.1-.6,0-.9,.2-.7,.8,.1,.3,.3,.6,.5,.8,.6,.5,1,1.2,1.5,1.7,.6,.7,1.2,1.4,1.2,2.4,0,.2,.1,.4,.2,.6,.3,.9,.6,1.7,.9,2.6,.6,1.9,.7,3.7,0,5.6-.3,.8-.5,1.7-.9,2.4-.3,.5-.4,1.1-.5,1.7-.2,1-.4,2-.5,2.9-.1,.7-.4,1.3-.8,1.9-1.2,1.8-2.3,3.6-2.9,5.6,0,.2-.1,.3-.2,.5-.3,.4-.4,.8-.3,1.3,0,.3,0,.5-.3,.7-1,.5-1,1.4-.9,2.3,0,.3,0,.5-.2,.7-.3,.2-.5,.4-.8,.5-.8,.3-1.3,.9-1.3,1.9,0,.2-.1,.3-.3,.3-.9,.2-1.6,.7-2,1.6,0,.2-.2,.4-.2,.6,0,.2-.2,.4-.3,.6-1.2,1.3-2,2.8-2.9,4.3-.2,.3-.5,.7-.4,1.1,0,.7-.1,1.3-.2,2,0,.2,0,.4,0,.5,.3,.6,.5,1.2-.1,1.7-.1,.1-.1,.3-.1,.5,0,.4-.1,.8-.5,1-.4,.2-.5,.6-.5,1,0,.5-.1,1-.2,1.5,0,.4-.2,.9-.6,1.2-1,.8-.8,2.2-1.5,3.1,0,0,0,.2,0,.2,0,.1,0,.3,0,.4-.5,.3-.5,.8-.7,1.3-.2,.4,0,.6,.3,.7,.3,0,.6,.2,.6,.6,0,.2,.1,.3,.2,.5,.2,.3,.7,.2,.8,.7,0,.3,0,.7,.1,1.1,0,0,0,.2,0,.3,.5,.5,.7,1.2,1.2,1.8,.2,.3,.5,.5,.8,.4,.7-.2,1.6,0,2.2-.4,.4-.3,.8-.1,1.1,.2,.1,.1,.2,.3,.4,.2,0,0,0-.2,0-.2,0-.1,0-.3,0-.4,.2-.4,.8-.7,1.2-.5,.2,0,.3,.4,.6,.3,.7-.3,1.2,0,1.7,.4,0,0,.3,0,.4,0,.1,0,.2-.2,0-.4-.2-.4-.1-.7,.3-.8,0,.2,.1,.3,.2,.5,.3,.5,.3,.5,.8,0,.3,.2,.5,.3,.8,.5,.2,.1,.2,.4,0,.5-.6,.4-1.2,.9-1.9,.9-1.1,0-2,.4-3,.6-.3,0-.5,.1-.8,.1-.5,0-.9,.1-1.2,.5-.4,.4-.4,.3-.9-.1-.2-.2-.3,0-.5,0-.5-.3-1-.2-1.5,0-.6,.3-.9,.2-1-.5,0-.4-.3-.6-.7-.7-.3,0-.7,0-1-.3,.1-.2,.4-.3,.3-.5-.5-.5-.5-1.3-1-1.8-.2-.1-.3-.4-.3-.6,0-.7-.8-1.1-.6-1.9,0,0-.1-.2-.2-.3-.2-.2-.4-.5-.7-.5-.1,.2-.2,.4-.3,.6-.8,1-1.2,2.1-1.4,3.3,0,.4-.2,.9-.3,1.3Zm-41.8,12.4c0,.8,0,1.9,.5,2.9,.2,.4,.2,.8,.3,1.2,0,.9,.3,1.7,.8,2.4,.3,.5,.6,1,.7,1.6,.1,.4,.2,.9,.4,1.3,0,.3,.3,.4,.6,.4,.7,0,1-.4,.9-1.2,0-1.4,.6-2.3,1.8-2.9,.4-.2,.7-.3,1.1-.5,1.7-.6,3.4-1.2,5.1-1.8,3.2-1.1,6.4-2.1,9.7-3,.3,0,.5-.2,.8-.3,.3-.2,.4-.3,0-.7-.2-.2-.2-.4-.1-.6,0-.1,.2-.2,.3-.3,.3-.4,.2-.7-.3-.8-.3,0-.5-.2-.8-.2-.3,0-.5-.2-.6-.5-.2-.4-.3-.7-.3-1.2,0-.7,0-1.4,.3-2.1,.1-.2,.1-.5,.1-.8,.1-.9,.2-1.8,.4-2.7,0-.4,0-.8,.5-1,.2,0,.2-.3,.1-.5-.4-.9,0-1.8-.2-2.7,0-.2,0-.4,0-.5,.5-.5,.3-1,.2-1.5,0-.5-.2-1,0-1.5,.2-.8,0-1.5-.3-2.2,0-.2-.2-.3-.2-.5,0-.5,0-.8-.4-1.1-.2-.2-.1-.5,0-.8,.1-.2,.3-.3,.4-.5,.7-.9,1.2-1.9,.9-3.1-.2-.6-.2-1,.3-1.5,.2-.2,.3-.6,.1-.7-.5-.4-.4-1.1-.7-1.5-.2-.4-.2-.7,.1-1,.2-.2,.5-.6,.2-.8-.6-.7-.3-1.3,.2-1.9,0,0,.1-.2,.2-.4,0-.2,0-.4-.1-.5-.7-.3-.6-.8-.6-1.4,0-.7,.2-1.3,0-2-.1-.4,0-.6,.3-.8,.2,0,.3-.2,.4-.3,.5-.5,.8-1,.5-1.7,0-.2-.1-.3-.1-.5,0-.2,0-.4,.2-.5,.6-.2,.7-.8,.9-1.3,.2-.4,.3-.7,.7-1,.3-.2,.3-.4,.3-.7,0-.4-.1-.8,0-1.2,0-.2,.2-.4,.5-.4,.2,0,.4,0,.5-.1,0-.3-.2-.4-.4-.5-.6-.4-1.3-.6-2-.8-.3,0-.7-.1-1-.3-.7-.4-1.5-.6-2.3-.6-.3,0-.5-.1-.8-.2-.8-.2-1.6-.5-2.5-.7-.9-.2-1.2,0-1.7,.7-.2,.3-.3,.6-.4,.8-.5,1-.6,2.2-1.5,3,0,0,0,.2,0,.3-.3,1.3-1,2.4-1.5,3.6-.3,.7-.6,1.5-1,2.2-.5,.9-1,1.7-1.5,2.6-.2,.3-.3,.6-.2,.9,0,.2,0,.4,.2,.5,.2,.2,.3,0,.5-.1,.3-.3,.6-.4,.9-.5,1.2-.5,2.5-.7,3.8-.9,.4,0,.8-.3,1.2-.2,.8,.2,1.3-.8,2.1-.4,0,0,.2-.2,.3-.3,.2-.2,.4-.4,.7-.4,.6-.1,1.3,0,2-.3,.1,0,.2,.1,.2,.3-.2,.4-.4,.7-.8,.8-1.1,.3-2,.8-3.1,.9-.6,0-.9,.2-1.2,.8,0,.2-.3,.4-.5,.3-.8-.3-1.7-.3-2.5,0-.1,0-.3,0-.5,0-.5,0-1.1,0-1.3,.5-.3,.6-.7,.8-1.3,.7-.2,0-.4,0-.5,.2-.4,.3-.8,.5-1.3,.7-.1,0-.2,.2-.3,.3-1.1,1.6-2,3.2-2.1,5.2,0,.3,0,.6-.2,.8-.5,1.1-.6,2.4-.6,3.6,0,.5-.3,1-.3,1.4,0,.5,.3,.9,.3,1.4,0,.8-.1,1.5,.2,2.3,0,0,0,.2-.1,.2,0,0-.2,0-.2,0,0,0,0,0,0,0-.1-.1-.2-.4-.4-.4-.2,0-.3,0-.5,.2-.2,0-.3,.2-.4,.3-.5,.6-1.1,1.2-.8,1.9,.3,.8,0,1.4,0,2.1,0,.6-.3,1.1,0,1.7,.1,.2,0,.5,0,.8,0,.3-.2,.6-.2,.9,0,1-.3,1.9-.9,2.6-.3,.4-.4,.8-.5,1.2-.1,.5-.2,1.1-.2,1.6,0,.5-.1,.9-.5,1.2-.5,.4-.6,.8-.6,1.4,0,.4,0,.7,0,1.4Zm100.1-23.7c.6,0,1.1-.1,1.6-.3,2-.6,4-1.3,6.1-2,2.2-.7,4.5-1.4,6.7-2.3,2.3-.9,4.5-1.8,6.8-2.8,.3-.1,.6-.3,.4-.7,0-.2,.1-.3,.3-.4,.5-.2,1.1-.4,1.6-.7,1-.6,2.1-1,3.3-1.2,.3,0,.6-.1,.9-.3,1.7-.9,3.5-1.6,5.3-2.3,1.3-.5,2.6-1,3.9-1.5,1.3-.5,2.7-1.1,4-1.5,1.5-.5,2.9-1.1,4.3-1.6,.9-.3,1.8-.7,2.8-1,.4-.1,.8-.3,1.1-.4,.3-.1,.4-.4,.3-.7,0-.3-.3-.5-.6-.5-.6,0-1.1,0-1.6-.4-.4-.3-.9-.6-1.5-.3-.2,.1-.3-.2-.4-.5,0-.2,.1-.3,.3-.3,.2,0,.4,0,.7,0,.4,0,.4,0,.4-.6,0,0,0,0,0-.3,.5,.3,1,0,1.6,.1,.3,0,.5-.2,.5-.5,0-.5-.1-1-.2-1.5-.3-2-.5-3.9-.7-5.9-.1-1.6-.2-3.2,0-4.9,0-.5,0-1,0-1.5,0-.4-.2-.8-.2-1.2,0-.4,.3-.8,.4-1.3,0-.2,0-.4,0-.5,.3-2.7,.9-5.4,1.8-7.9,.1-.4,.3-.8,.4-1.2,.2-.6,0-.8-.4-.9-.8-.2-1.7-.4-2.5-.6-.2,0-.4,0-.4,.2,0,.6-.5,1.1-.6,1.7-.2,1.3-.9,2.2-1.4,3.3-.4,.8-.8,1.5-1.2,2.3-.2,.3-.3,.6-.5,.8-.7,.7-1.2,1.6-1.7,2.4-.6,.9-1,1.9-1.8,2.7-.4,.4-.7,1-.9,1.5-.5,1.2-1.1,2.3-1.9,3.3-.7,.9-1.2,2-2,2.9-.4,.5-.8,1-1.2,1.5-.9,1.2-.6,2,.8,2.4,1.5,.4,2.9,1.1,4.2,1.7,0,0,.2,0,.2,.1,.2,.1,.2,.3,.1,.5,0,0-.3,.2-.3,.1-.9-.4-1.7-.8-2.7-.8,0,0,0,0-.1,0-.4-.3-.8-.4-1.3-.4-.6,0-1-.2-1.2-.7,0-.2-.3-.1-.4,0-.1,.2-.2,.4,0,.6,0,.1,.3,.3,.4,.4,.2,.2,0,.5-.1,.6-.2,0-.4,.1-.6,.3-.5,.3-.9,.3-1.4-.1-.4-.3-.7-.2-1.1,0-.6,.4-1.1,1-1.5,1.5-.8,1-1.8,1.7-2.6,2.7-1.3,.8-1.9,2.1-3,3.1,0,0-.1,.2-.2,.3-.2,.4-.2,.7,0,.9,.3,.2,.5,0,.7-.2,.4-.2,.9-.3,.8,0,0,.3-.4,.3-.6,.5-.3,.2-.6,.4-1,.4-.6,0-1,.2-.9,.8,0,0-.2,.3-.2,.3-.4,0-.5,.3-.7,.5-.3,.3-.6,.5-1,.7-.8,.4-.8,1.2-.2,1.8,.1,.1,.3,.2,.4,.3,.2,.3,.3,.6,0,.9-.2,.2-.4,.4-.6,.5-.9,.5-1.9,1.1-2.9,1.5-1.1,.4-2.3,.7-3.5,1.2-2.6,1-5.3,1.9-7.9,2.8-1.7,.6-3.4,1.2-5.1,1.8-.2,0-.5,.1-.6,.5ZM239.4,10c-.3,0-.3,.3-.4,.4-.4,.6-.6,1.3-1.1,1.7-.6,.5-.8,1-.9,1.7,0,.3-.2,.5-.5,.8-.8,.7-1.7,1.3-2.2,2.2-.4,.8-1.1,1-1.9,1-.4,0-.8,0-1-.5-.3-.7-.5-.8-1.2-.3-.1,0-.2,.2-.3,.3-1.3,1.1-1.6,1-2.9,0-.3-.2-.5-.5-.6-.9-.2-.4-.6-.7-1.1-.7-.5,0-1.1,0-1.6,0-.2,0-.3,.1-.5,.2-.2,.1-.2,.4,0,.6,.1,.1,.3,.2,.4,.3,1,.4,1.9,1,2.8,1.6,1.1,.8,2.3,1.6,3.6,2.2,1.3,.7,2.7,1.3,4.1,1.9,2.5,1.1,5,2.2,7.3,3.6,.7,.4,1.4,.8,2.2,1,.8,.2,1.5,.5,2.2,.8,.6,.2,1.1,.6,1.3,1.2,.1,.4,.5,.6,.9,.7,.3,0,.6-.2,.5-.4-.2-.9-.5-1.8-.7-2.8-.2-.6-.6-.9-1.2-1-1.3-.2-2.5-.6-3.9-.3-.4,0-.8,0-1.1-.3-.7-.8-1.6-1.1-2.7-1.2-.4,0-.7-.1-1-.3-.6-.3-1.4-.4-1.7-1.2,.7-.2,1.3,0,2,.2,2.5,.6,5,1.2,7.6,1.5,.2,0,.4,.2,.7,0,0-.6-.5-1.1-.8-1.7-.5-.8-1-1.5-1.5-2.3-1.2-2.3-2.4-4.7-3.8-6.9-.4-.6-.7-1.2-.7-2,0-.3-.2-.7-.3-1Zm-110.5,51.9c-.4,0-.7,.3-1,.5-.2,.1-.4,.1-.6,.1-.6,0-.7,0-.8,.5-.3,.9-.5,1.8-.8,2.7-.1,.5-.2,.8,.2,1.2,.5,.6,.2,1.2-.6,1.3-.2,0-.4,0-.5,.3-.3,.8-.5,1.6-.8,2.4,0,.3-.2,.6,0,.8,.5,.5,.8,1.1,1.6,1.2,.7,0,1.2,.4,1.6,.9,.4,.5,.9,.7,1.6,.6,.9,0,1.8,.1,2.6,.5,.3,.2,.7,.3,1,.4,.7,.1,1.4,.1,1.8-.7,.2-.3,.4-.6,.7-.8,.6-.5,1-1.2,1.9-1.2,.2,0,.3-.2,.3-.4,0-.8,.4-1.2,.9-1.5,.2,0,.3-.2,.5-.3,.3-.2,.4-.5,.3-.8,0-.3-.2-.5-.3-.7-.7-1.2-1.4-2.3-2.1-3.5-.2-.3-.4-.6-.8-.7-1.2-.3-2.1-1-3-1.8-.9-.7-1.8-1.4-2.7-2-.3-.2-.5-.3-.8-.5-.2,0-.4,0-.5,.2,0,.1-.1,.3,0,.4,.1,.3,.3,.6,.4,.9Zm19.3,52.6c0,0-.2,0-.3,0-.4,.3-.8,.5-1.4,.3,0,0-.2,0-.3,0-.1,0-.2,.2-.2,.3,0,.2,.3,.5,.5,.4,.6-.1,1.1-.4,1.6-.6,0,0,0-.2,0-.4,0,0,0-.1-.2-.2Zm68.2-42.9c0,.1,0,.2,0,.3,0,0,.1,.1,.2,.2,0,0,.1-.1,.1-.2,0-.1,0-.3,0-.4,0,0,0-.2-.1-.2-.2,0-.2,.1-.2,.2Zm77.4-40.4c-.2,.2-.4,.7-.2,.8,.2,.2,.4,0,.6,0,.2,0,.4-.2,.6-.3,0,0,0-.2,0-.2-.1-.3-.7-.5-1-.3Zm-28.2-13.8c-.2-.6-.6-.9-.6-.7,0,.4,.3,.5,.6,.7h0Zm-83.2,87.4c-1.4-.3-2.7-1.2-4.3-1.2-.2,0-.4-.1-.6-.2-.2,0-.4-.2-.5-.1-.5,.3-.8-.1-1.1-.2-1.2-.5-2.6-.6-3.8-1-.2,0-.5,0-.5,.3,0,.3,0,.5,.3,.6,.2,0,.4,.2,.6,.2,.5,0,.9,0,1.3,.4,.2,.2,.5,.2,.8,.2,.4,0,.8,.1,1.2,.3,.4,.2,.9,.4,1.4,.4,.6,0,.9,.3,1.1,.8,0,.1,0,.3,.1,.4,.2,.5,.3,.5,.8,.3,.3-.1,.5-.2,.8-.2,.5,0,1.1,0,1.6,.3,.9,.3,1.8,0,2.6-.3,0,0,0-.1,0-.2,0,0,0,0-.1,0-.4,0-.8,.2-1.2,.3,0-.3,0-.6-.4-.7Zm-6.1-31c.1,0,.3,0,.3-.2,.2-.3,0-.6-.1-.9-.1-.2-.3-.3-.6-.3-.5,0-.9,.4-1.4,.3-.6-.1-.9,.3-1.2,.7,0,.1,0,.3,0,.4,0,.1,.2,.1,.4,0,.3-.2,.6-.4,1-.3,.6,0,1.1,.1,1.6,.2Zm5.4,14.1c-.5-.2-.9,.1-1.1,.7-.1,.4,0,.7,.6,.8,.3,0,.5,0,.8,.1,.2,0,.4,0,.4-.2,0-.3,.5-.2,.5-.6-.3-.4-.8-.6-1.3-.8Zm-4.3-16c.1,.3,.2,.7,.4,1,.3,.4,.7,.4,1,0,.3-.4,.6-.8,1-1.3,0-.1,0-.4-.2-.4-.2,0-.4,0-.5,0-.4,.3-.8,.3-1.2,0-.4,0-.5,0-.4,.4Zm-23.2,42.5c.8,.1,1.5-.1,2.1-.5-.6,0-1.2-.1-1.7-.2-.3,0-.5,0-.7-.3-.7-.5-.7-.5-1,.3-.1,.3-.2,.7-.3,1,.6-.1,1.2-.4,1.7-.3Zm12.4-18s0,0,0-.1c0,0,0-.2,0-.2-.3-.2-.6-.2-.9-.1-.7,.2-1.3,.3-2,.3-.1,0-.3,0-.4,.1,0,0-.2,.2-.1,.2,0,.1,.1,.2,.2,.3,.3,.2,.5,0,.8,0,.5-.2,.9-.3,1.4-.3,.8,0,.8,0,1.1-.2Zm17.1-7.5c0,.3,.1,.6,.4,.5,.3,0,.5,0,.8-.2,.4-.2,.6-.5,.1-.9-.3-.2-.4-.6-.8-.8-.2,.5-.4,.9-.5,1.4Zm-15.7-43.4s0,0-.1,0c-.8,.3-.8,.6-.3,1.1,.2,.2,.4,.3,.7,.4,.3,.1,.7-.1,.8-.5,.1-.2,0-.5-.3-.6-.3-.1-.6-.2-.8-.5h0Zm1.4,61.1c0-.1-.2-.2-.3-.3-.3-.2-.7,0-.8,.2-.1,.3,0,.4,.2,.5,.2,.1,.4,.3,.5,.4,.3,.3,.6,.3,1,.2,.2,0,.3-.1,.6-.3-.6-.3-1.1-.3-1.2-.8Zm33.4-34.8c.1-.5,.6-.6,1-.9,0,0,.1-.2,.1-.3,0-.1-.1-.2-.3-.2-.9-.2-1.3,.4-1.7,1-.1,.2,0,.5,.3,.5,.2,0,.4,0,.6-.1h0Zm-3,26.8c.1-.4-.2-.4-.5-.5-.4-.2-.8-.3-1.3-.3-.2,0-.4,0-.4,.3,0,.2,0,.3,.2,.5,.4,.3,.8,.3,1.3,.4,.2,0,.5,0,.6-.3Zm-37.1-.3c-.1,0-.2,.1-.3,.2,0,.2,0,.3,.2,.4,.4,.2,.8,.4,1.2,.6,.1,0,.4-.1,.4-.3,0-.7-.5-1-1.2-1,0,0-.2,0-.3,0Zm40-18.5c.2,0,.4,0,.4-.2,0-.2,0-.3-.2-.5-.3-.3-.7-.5-1.2-.3-.2,0-.3,.2-.3,.4,0,.3,.2,.4,.4,.5,.2,0,.5,0,.7,.1,.1,0,.2,0,.2,0Zm-35.2,28.4c0,0,0,.2,0,.2,.4,.4,.7,.9,1.2,1.3,0,0,.3,0,.3-.1,.1-.6-.5-1.4-1.2-1.5,0,0-.2,0-.2,.1Zm7-1.1c0,.3,.2,.6,.7,.6,.3,0,.6-.1,.6-.4,0-.3-.3-.7-.6-.7-.3,0-.7,.2-.7,.5Zm28.4-35.2c.2,.4,.5,.6,1,.4,.4-.2,.8-.2,1.3-.2,0,0,.2,0,.2-.2,0-.1,0-.2-.2-.3-.8-.3-1.6,0-2.3,.3h0Zm-1.7,20.6c-.2-.2-.7-.2-1,0-.3,.2-.3,.7,0,1,0,0,.1,.1,.2,.1,.3,0,.8-.5,.9-.9,0,0,0-.2-.1-.2Zm-44.3,14.2c-.2-.4-.4-.5-.7-.3-.2,.1-.5,.2-.6,.5,0,.1-.1,.3-.1,.4,0,.3,.3,.2,.4,0,.4-.3,.8,.1,1.1,0,0-.2,0-.4-.1-.5Zm28.3-2.3c0-.1-.1-.4-.4-.4-.4,0-.9,0-1.3-.1-.1,0-.2,.1-.2,.3,0,0,0,.2,.1,.2,.4,.1,.9,.2,1.1,.2,.4,0,.5,0,.6-.2Zm-19.5-4.4c-.2,0-.5,0-.6,.3-.1,.3,.1,.4,.3,.5,.2,0,.4,.2,.6,.2,.2,0,.4-.2,.4-.4,0-.4-.4-.6-.8-.6Zm4.2,1.7c0,.4,.2,.7,.6,.7,.2,0,.4-.2,.4-.4,0-.3-.4-.6-.8-.6-.2,0-.3,.1-.3,.3Zm-9.2,7c-.2-.1-.5-.2-.8-.3,0,0-.2,0-.2,.1,0,.1,0,.3,0,.4,.2,.3,.5,.4,.8,.5,.2,0,.3,0,.4-.3,0-.2,0-.4-.2-.5Zm27.5-21.5c-.2-.3-.7-.4-1-.1-.1,0,0,.3,0,.3,.3,.3,.7,.3,.9,.1,0,0,0-.1,.1-.2,0,0,0,0,0-.1Zm-27.3-3.1c.2,0,.4,0,.3-.3,0-.2-.2-.4-.4-.4-.2,0-.3,0-.5,.2-.1,0-.3,.3-.2,.4,0,0,.2,.1,.3,.2,.2,0,.3,0,.4,0Zm44.1-5.4c-.2-.1-.4-.2-.6,0-.1,.2,0,.5,.1,.6,.2,.2,.6,.1,.7,0,0-.2,0-.4-.2-.6Zm3.1-4.8c0,.3,.2,.7,.5,.7,.2,0,.3-.2,.3-.4,0-.3-.2-.5-.5-.5-.1,0-.3,0-.3,.2Zm-41.7,13.6s0,0,0,.1c.4,.3,1,.4,1.5,.4,0,0,0,0,0,0,0,0,0-.2,0-.2-.5-.2-.9-.3-1.3-.4,0,0-.2,.1-.2,.2Zm3.7,21.2c-.2,0-.4,0-.5,.3,0,.2,0,.5,.2,.5,.3,.1,.6-.2,.7-.5,0-.2-.2-.4-.4-.4Zm28.9-43.4c-.3-.2-.7,0-.9,.3,0,.1,0,.3,.2,.3,.3,0,.5,0,.7-.2,0,0,0-.2,0-.2,0,0,0,0,0-.1Zm-45.2,42s.2,0,.2,0c.3-.2,.2-.8,0-.9,0,0-.2,0-.2,0,0,0,0,.2,0,.3,0,.1,0,.3,.1,.4Zm50.5-17.7c-.1,0-.3,0-.3,.2,0,.2,.3,.4,.6,.4,.1,0,.2-.1,.3-.3,0-.2-.2-.4-.6-.4Zm-28.7-4.6c0-.2,.1-.3,.2-.5,0-.1,0-.3-.2-.3-.2,0-.4,0-.4,.2,0,.2,0,.3,0,.5,0,0,.1,.1,.2,.2,0,0,.2,0,.2-.1Zm-1.8-5.7c-.1,.3,0,.6,.4,.6,0,0,.2,0,.2-.1,.1-.2,0-.4,0-.5,0,0-.2-.1-.3-.2,0,0-.2,.1-.2,.2Zm-4.6,9.1s0,.1,0,.1c.2,.2,.5,.3,.9,.3,0,0,0,0,0,0,0,0,0-.1,0-.1-.2-.3-.5-.3-.8-.3,0,0,0,0,0,0Zm9-5.3c0-.1,0-.2-.2-.3-.2,0-.5,.1-.4,.3,0,.1,.1,.2,.2,.2,.2,0,.4,0,.4-.3Zm-5.1,25c0-.2-.1-.2-.3-.2-.1,0-.3,0-.3,.2,0,.2,.1,.2,.3,.2,.2,0,.3,0,.3-.2Zm-11.8-11.2c-.1,0-.3,0-.2,.2,0,.2,.2,.3,.4,.3,.1,0,.2,0,.2-.2,0-.2-.2-.3-.4-.3Zm37.9-9.4c-.2,0-.3,.1-.4,.3,0,.2,0,.2,.2,.2,.2,0,.3,0,.4-.2,0-.2,0-.3-.2-.3Zm-30.9,13.6c-.1,0-.3,.1-.2,.3,0,.3,.3,.3,.5,.3,.1,0,.2-.1,.2-.3,0-.2-.3-.3-.5-.3Zm-.2-5c0,0,0-.2-.1-.2-.2,0-.4,0-.5,.2,0,.1,0,.3,.1,.3,.2,0,.3,0,.4-.3Zm26.3-27c0-.2,0-.4-.3-.4-.2,0-.3,0-.3,.2,0,.2,0,.3,.3,.4,.2,0,.3,0,.3-.2Zm-20.5,38.3c-.1,0-.2,0-.2,.2,0,.2,.1,.3,.3,.3,0,0,0-.1,.1-.2,0-.2,0-.4-.2-.4Zm-12.9-4.3c-.1,0-.2,0-.3,.2,0,.1,0,.3,.2,.3,.2,0,.3,0,.3-.3,0-.2,0-.3-.2-.3Zm45.2-34.9c-.2-.1-.5,0-.6,.1,0,.2,.1,.2,.2,.3,.2,0,.3,0,.4-.2,0,0,0-.2,0-.2Zm-43.7,40.8c0-.2,0-.4-.1-.5-.1,0-.3,0-.3,.1,0,.2,0,.3,.2,.4,0,0,.2,0,.2-.1Zm16.6-19.4c-.1,0-.3,0-.3,.1,0,.1,0,.2,.2,.3,.1,0,.3,0,.3-.1,0-.2,0-.2-.2-.3Zm17.2-1.5c-.2,0-.4,0-.4,.3,0,.2,.2,.3,.4,.3,.1,0,.2-.1,.2,0,0-.3,0-.4-.2-.4Zm-39.3,25.1c-.4,.2-.5,.5-.6,.8q.7-.2,.6-.8Zm25.5-35.3c0,.1,0,.3,.2,.3,.2,0,.3,0,.4-.3,0-.2,0-.2-.2-.3-.2,0-.4,0-.4,.3Zm20.7-3.3s0,0,0,.1c.1,.2,.6,.3,.8,0,0,0,0,0,0-.1-.1-.2-.6-.3-.8,0Zm-45.2,35c0-.2,0-.3-.2-.4-.1,0-.3,0-.3,.2,0,.2,.1,.3,.3,.4,0,0,.2,0,.2-.1Zm44.1-22.3c0,0-.2,0-.2,.2,0,.1,0,.3,.2,.3,.1,0,.2,0,.2-.2,0-.2,0-.3-.2-.3Zm-27-3.9c0,.1,0,.2,.2,.2,.2,0,.2,0,.2-.2,0-.1-.1-.2-.3-.2,0,0-.1,.1-.1,.2Zm-11.3,3c-.1,0-.2,0-.3,0,0,.1,0,.3,.2,.3,.1,0,.2,0,.3-.2,0,0,0-.2-.2-.3Zm-3.4,18.3c-.1,0-.3,0-.2,.2,0,0,0,.2,.2,.2,.1,0,.2,0,.3-.2,0,0-.1-.2-.2-.2Zm22.5-18.3c-.1,0-.2,.1-.2,.3,0,.1,.2,.2,.3,.2,.1,0,.2-.1,.2-.3,0-.1-.2-.2-.3-.2Zm-7.3-36.2c0,0-.2,0-.2,.1,0,.2,.2,.4,.4,.4,0,0,.1-.1,.2-.2,0-.2-.1-.3-.3-.3Zm24.9,19.6c0,0-.2,0-.2,.1,0,.2,0,.3,.2,.3,0,0,.1,0,.2-.1,0-.2,0-.3-.2-.3Zm3.1,21c0,.1,0,.3,.2,.3,.1,0,.2,0,.3-.2,0-.1,0-.2-.2-.3-.1,0-.3,0-.3,.2Zm-37.9-2c0,0,0,.2,.1,.2,.1,0,.2,0,.2-.2,0,0-.1,0-.2-.1,0,0-.1,0-.2,.2Zm22.1,13c0-.2,0-.2-.2-.2-.1,0-.2,0-.2,.2,0,0,0,.1,.1,.2,.2,0,.3,0,.3-.2Zm18.9-29.2c-.2,0-.2,0-.2,.2,0,0,0,.2,0,.2,.2,0,.2,0,.2-.2,0,0,0-.2,0-.2Zm.6-6.2c-.1,0-.2,.1-.2,.3,0,0,.1,.1,.2,.1,.1,0,.2-.1,.2-.3,0,0-.1-.1-.2-.1Zm-39.7,14.1c0,0,0,.2,.1,.2,0,0,.2,0,.2-.1,0,0,0-.1-.1-.2,0,0-.2,0-.2,.1Zm36-19.1c-.1,0-.2,0-.4,.1,0,0-.1,.1-.1,.2,0,0,.1,.1,.2,.1,.2,0,.3-.1,.3-.3,0,0,0-.1,0,0Zm-14.4-6.5c0,0,.1-.1,.1-.2,0-.1-.1-.2-.3-.2,0,0,0,.1-.1,.2,0,.2,.1,.2,.3,.2Zm-8.7,24.3c0-.1,0-.3-.1-.3,0,0-.2,0-.2,.2,0,0,0,.1,0,.2,0,0,.2,0,.2,0Zm-15.2,26c0,0-.1,.1-.2,.2,0,.1,0,.3,.2,.3,.2,0,.2,0,.2-.2,0-.2,0-.3-.2-.3Zm21.7-13.8c0,.1,0,.2,.2,.3,0,0,.2,0,.2-.1,0-.1,0-.2-.2-.3,0,0-.2,0-.2,.1Zm-21.2,18.9s0,.2,0,.2c0,0,.1,.1,.2,0,.1,0,.1,0,0-.2,0-.1-.2-.2-.3-.1Zm-39.2,7.1c-.6-.4-1.2-.7-1.8-.8-.3,0-.7-.2-1-.3-1.2-.5-2.4-1.2-3.8-1.4-.1,0-.3,0-.4-.2-.8-.7-1.9-.9-2.9-1.1-.4,0-.8-.2-1.1-.5-.9-1-2.2-.8-3.2-1.2,0,0-.1,0-.2,.2,0,0,0,.1,0,.1,.1,.1,.3,.2,.4,.3,1.1,.5,2.2,1,3.4,1.5,2.4,.9,4.9,1.9,7.3,3,1,.4,2,.7,3.1,1.1,.2,0,.4,0,.4-.3,0-.1,0-.2-.2-.3Zm-2.8-3.4c0,0,.1,0,.2-.2,0,0,0-.1,0-.1-.5-.2-.6-.5-.4-.9,0-.2-.1-.3-.3-.4-.2,0-.4,0-.4,.3-.3,.7,0,1.3,.8,1.3,0,0,.2,0,.3,0Zm.6-12.7c-.5,0-.7-.3-1-.7,0,0-.1,0-.1,0,0,0-.1,.1-.1,.2,0,.3,0,.5,.2,.8,0,.2,.2,.4,.5,.4,.3,0,.5-.2,.6-.4,0,0,0-.2,0-.2Zm-14.6,9.6c0,0,0,.2,0,.2,.4,.4,.9,.6,1.4,.7,0,0,.1,0,.2-.1,0,0,0,0,0-.1-.3-.6-.9-.7-1.5-.7,0,0-.1,0-.1,0Zm2.1-2.7c0-.1,0-.3-.1-.3-.1,0-.3,0-.3,.2,0,.1,0,.3,.1,.3,.2,0,.2,0,.3-.2Zm2.1-2c0-.1-.1-.1-.2,0-.1,.1-.3,.2-.2,.4,0,0,0,0,.1,0,.2,0,.3-.2,.3-.4Zm113.3-16.5c-.1,.1-.2,.3-.1,.5,.1,.2,.4,.3,.6,.2,.7-.1,1.3-.4,1.9-.8,.3-.2,.3-.6,0-.8-.2,0-.3-.1-.4-.1-.9,0-1.4,.5-1.8,1Zm24.7-23c-.3-.2-.7-.1-1.1,0-.3,0-.5,.2-.5,.5,0,.3,.3,.4,.5,.5,.2,0,.4,.1,.7,0,.4,0,.7-.4,.7-1,0,0-.1,0-.3-.2Zm-20.6,21c.1-.2,.5-.4,.2-.7-.2-.2-.5-.1-.8,0-.6,.2-.8,.7-.9,1.3,0,.1,.1,.2,.3,.2,.5-.1,.9-.4,1.2-.8Zm11.8-13.1s0,0,0,.1c0,0,0,0,0,.1,.3,.2,2.8,.9,3.2,.9,0,0,0,0,.1,0,0,0,0,0,0-.1,0,0-.2-.2-.3-.3-.9-.6-2-.3-2.9-.9-.1,0-.2,.1-.2,.2Zm4-8.8c0,0-.1,.1-.1,.2,0,0,0,.2,.1,.2,.4,.3,.9,.4,1.4,.3,.2,0,.3-.1,.4-.3,0-.3-.1-.4-.3-.5-.1,0-.3,0-.3,0-.4,0-.8,0-1.1,.2Zm-15.4,22.9c-.2-.2-.4-.1-.6,0-.2,0-.3,.2-.3,.4,0,0,0,0,0,.1,.3,.2,.8,0,.8-.3,0,0,0,0,0-.1Zm1.7-.8c-.1,0-.2,.1-.3,.3,0,.2,.2,.3,.4,.2,.1,0,.2-.1,.2-.3,0-.1-.2-.2-.3-.2Zm8.6-13.9c0,0-.2,0-.2,0-.1,0,0,.2,0,.3,0,0,.2,.1,.3,.2,0,0,.1,0,.2-.1,0-.2-.1-.3-.3-.4Zm9.9,3.3c0,0,.1,.1,.2,.1,.2,0,.2-.1,.1-.3,0,0-.1,0-.2,0,0,0-.1,.1-.1,.2Zm-3.9-1.5c0,0-.2,0-.2,.1,0,.1,0,.2,.2,.2,0,0,.1,0,.2-.1,0-.1,0-.2-.2-.2Zm-10-62.2c-.1,0-.2,.2-.2,.3,0,0,0,.1,.2,0,.1,0,.2-.2,.2-.3,0,0-.1-.1-.2,0Zm-103.7,55.2c0,.1,0,.2,.2,.3,.1,0,.3,0,.3-.2,0-.1,0-.2-.2-.3-.1,0-.3,0-.3,.2Zm16.1,45.5c0,0,.2-.2,.2-.3-.1-.5-.2-1-.4-1.3-.3-.3-.5-.5-.5-1,0-.4-.5-.7-.9-.5-.2,.1-.5,.3-.7,.4,0,0,0,0,0,.1,0,0,.8,1.1,.8,1.2,0,.4,.3,.5,.5,.8,.2,.2,.3,.4,.3,.7,.2,0,.4,.1,.6,0Zm.8-2.6c-.2-.2-.4-.3-.6,0-.2,.1,0,.3,0,.5,0,.2,.2,.3,.3,.5,.3,.4,.5,.4,1.1,0-.3-.3-.5-.6-.8-.9Z" fill="url(#New_Gradient_Swatch_3)"/>
      <g opacity=".9">
        <path d="M0,0V278.6c.8-.3,1.4-.9,1.8-1.6,2.9,0,6.1,.6,4.1-.8,.4-.9,3.2-.6,4.5-.5s3.2,1.8,3.9,1.5c.9,1.8,3.2-2.4,3.7-3.1s3.8,2.6,4.4,2.1c-1.9-.9,0-1.9,4-2.7-.9-1.7,2.2,.6,4.2,.4,.3,1.8,3.6-1.8,4.3-.5,1.2-1.2,4.5-3.3,4.3-1.5s3.4,1.6,4.4,.5c-1,.9,4.4,4,4.4,2.5s4.3-3.3,4.3,.3c0-3.4,4.3,.6,4.3,.6,0,0,4.4-2.4,4.4-1.8,0,2.1,4.2,3.9,4.2,2.3s4.4-.4,4.4-.5c0-2.5,4.3-1.1,4.3,.5s4.7,1.8,4.7-1.2,3.9,1.2,3.9,2.5,3.7,4.8,3.7,3.3c0,0,4.6,1.2,4.6,.4,0,1.6,4.4,2.2,4.4,1.7,0,1.2,4.5-4.1,4.5-3.7s4.3,.1,4.3,.3,4.7,.1,4.7,.6c0-3.1,2.1-6,2.1-4.9s3.9-.7,3.9-1.5c0,1.1,4.3-.4,4.3,.4,0,2.5,4.2-.9,4.2,.9s4.2,0,4.2-.8,4.2-2.2,4.2-1.5c0-1.3,4.4,1.1,4.4,.7s3.9-3.2,3.9-4.1,4.5,3.6,4.5,1.3,4.3,1,4.3-.1,4.5,2.6,4.5-1.4c0,.4,4.1,3.6,4.1,3s4.5,1.7,4.5,2.7c0-.8,5.3,1.5,5.3-.2,0,3.1,4.9,4.1,4.9,1.3,0,1,4.6-.2,4.6-.9,0,1.3,4.4,.4,4.4,.4,0,1.8,4.4,1.4,4.4,1.5,0-2.1,4.3-1.7,4.3-2.5s4.7,3.9,4.7,2.4c0,.4,4.4,0,4.4-.7,0-2.9,4.3-1.3,4.3-1.5s3.9-3.6,3.9-3.3,4.5,1.4,4.5-.2c0,0,5,5.4,5,2.8s3.7-5.8,3.7-4.6,4.4,.1,4.4-1.2,4.6-.1,4.6-.3,4.7,1.6,4.7,1.1,4.6,.3,4.6,1.3,4.5-.9,4.5-1.6,4.5,1.4,4.5,1.1,4.6,2,4.6-1.6c0,.4,4.4,.7,4.4,2.9s4.7-2.8,4.7-3.1c0-3.3,4.4,1,4.4,2.4,0-2.3,4.6,.9,4.6-1,0,.5,4.5,3.8,4.5,1.9s4.3-1,4.3-.7,4.4-1.9,4.4-2c0-4.6,4.3-1.2,4.3,.1s4,4.5,4,3.8c0,2.9,4.4,.7,4.4-1.4,0,2.4,4.3-2.3,4.3-1.2s4.3,2.1,4.3,1c0,1.2,4.6,.2,4.2,.1s5,0,4.7,.4c-1.8,.3,3.8,1.8,4.5,1.3,1.1,2.2,5.5,1.9,4.6,.4,.8-1.2,5.4,1.7,4.6,2.3,1.1,.2,3.6,.5,4.8-.5s1.7-.4,2.9-1.1V0H0Z" fill="url(#New_Gradient_Swatch_3-2)"/>
      </g>
    </g>
  </g>
  <g>
    <g>
      <path d="M36.8,19.3c0,.4-.2,.8-.5,1.1l-5.2,5.2-5.6-3.2v-3.2c0-.9,.7-1.6,1.6-1.6h0c.9,0,1.6,.7,1.7,1.6h0v4l5.1-5.1c.6-.7,1.6-.7,2.3-.1,0,0,0,0,.1,.1,.3,.3,.5,.7,.5,1.2" fill="#fff"/>
      <path d="M35.1,34.4l-.6-.2c-.2,0-.4-.2-.6-.3l-5.1-5.2v4c0,.9-.8,1.7-1.7,1.7-.9,0-1.6-.8-1.6-1.7v-3.1l5.6-3.3,5.2,5.3c.6,.7,.5,1.8-.2,2.4-.3,.2-.6,.4-1,.4" fill="#fff"/>
      <path d="M30.8,25.9v-.2h-.1l-1.4-.9-3.7-2.1-3.2-1.9c-.2,0-.4,0-.5,.2-.1,0-.1,.1-.1,.2v9.6c0,.2,.2,.4,.4,.4h.2l3.2-1.8,5.1-3h.1c0-.1,.1-.1,.1-.2h0v-.3Zm-1.4,.2h-.1l-4,2.4-2.5,1.5c-.1,.1-.3,0-.4-.1v-7.7c0-.2,.1-.3,.3-.3h.1l2.5,1.4,4,2.3c.1,.1,.2,.2,.1,.4h0Z" fill="#fff"/>
      <path d="M28.4,26q0,.1-.1,.2l-3,1.7-1.9,1.1h-.3v-5.8c0-.2,.1-.3,.2-.3s.1,0,.1,.1h0l1.9,1,3,1.8h.1" fill="#fff"/>
    </g>
    <g>
      <path d="M64.1,25.8c0-.1,0-.2-.2-.2l-4.6-2.3-2.8-1.4c-.3-.1-.5,0-.5,.2v7.7c0,.2,.2,.4,.5,.2l2.8-1.5,4.5-2.4c0,0,0-.1,.2-.2h0Zm-1.2,0q0,.1,0,.2l-3.5,1.9-2.2,1.1c-.2,.1-.4,0-.4-.2v-5.9c0-.2,0-.3,.2-.3s0,0,0,.1l2.2,1.1,3.6,1.8q0,0,0,.1t0,0Z" fill="#fff"/>
      <path d="M61.9,25.9q0,.1,0,.1l-2.6,1.4-1.6,.9c0,0-.2,0-.3,0,0,0,0,0,0,0h0v-4.5c0-.1,0-.2,.2-.2h0l1.7,.9,2.6,1.3h0" fill="#fff"/>
      <path d="M40.1,22h4c2,0,3.4,1.1,3.4,2.7s-1.4,2.7-3.3,2.7h-2.1v2.6h-1.9v-8Zm3.8,3.8c.9-.1,1.5-.5,1.5-1.2s-.6-1.1-1.6-1.1h-1.9v2.3h2Z" fill="#fff"/>
      <path d="M55,28.5v1.5h-6.3v-8h1.9v6.4h4.4Z" fill="#fff"/>
      <path d="M66.1,27l-3.5-5.1h2.2l2.3,3.5,2.2-3.5h2.2l-3.5,5.1v2.8h-1.8v-2.8Z" fill="#fff"/>
      <path d="M72.7,22.3h1v4.4l4.4-4.4h1.4l-3.6,3.7,4,4.2h-1.3l-3.4-3.6-1.4,1.3v2.4h-1v-8Z" fill="#fff"/>
      <path d="M80.4,26.2c.1-2.4,2.1-4.2,4.5-4.1h0c2.4-.2,4.4,1.6,4.6,4h0c-.1,2.4-2.1,4.3-4.5,4.2-2.4,.2-4.4-1.6-4.6-4,0,0,0,0,0-.1Zm8.1-.1c-.2-1.8-1.8-3.2-3.6-3.2-1.9,0-3.4,1.4-3.5,3.3,.4,2,2.2,3.3,4.2,2.9,1.5-.3,2.7-1.5,2.9-3Z" fill="#fff"/>
      <path d="M90.8,29.1l.6-.7c.8,.7,1.8,1.1,2.9,1.1,1.4,0,2.1-.7,2.1-1.4s-.9-1.2-2.4-1.5-2.9-.8-3-2.2,1.3-2.3,3-2.3c1.1,0,2.3,.3,3.1,1.1l-.6,.7c-.7-.6-1.6-1-2.5-1-.9-.1-1.7,.5-1.9,1.4,0,.8,.9,1.1,2.4,1.4s2.9,.9,2.9,2.3-1,2.3-3.1,2.3c-1.3,0-2.5-.4-3.5-1.2Z" fill="#fff"/>
      <path d="M99.3,22.3h1l3.4,5.6,3.2-5.6h1v8h-1v-6l-3.2,5.6-3.4-5.5v6h-1v-8.1Z" fill="#fff"/>
      <path d="M109.8,26.2c.2-2.4,2.1-4.2,4.5-4.1,2.4-.2,4.4,1.6,4.6,4h0c0,2.4-2,4.3-4.4,4.2,0,0,0,0-.1,0-2.4,.1-4.4-1.7-4.6-4.1Zm8.1-.1c-.1-1.8-1.7-3.3-3.5-3.2-1.9,0-3.4,1.4-3.5,3.3h0c0,1.9,1.6,3.4,3.5,3.3h0c1.9,0,3.4-1.5,3.5-3.4Z" fill="#fff"/>
      <path d="M120.2,29.1l.7-.7c.8,.7,1.8,1.1,2.9,1.1,1.4,0,2.1-.7,2-1.4s-.8-1.2-2.4-1.5-2.9-.8-2.9-2.2,1.2-2.3,2.9-2.3c1.2,0,2.3,.3,3.2,1.1l-.6,.7c-.7-.6-1.6-1-2.6-1-.9-.1-1.7,.5-1.9,1.4,0,.8,.9,1.1,2.4,1.4s2.9,.9,3,2.3-1.1,2.3-3.1,2.3c-1.3,0-2.6-.4-3.6-1.2Z" fill="#fff"/>
    </g>
  </g>
  <rect x="275.1" y="6.8" width="43.5" height="43.5" rx="2.8" ry="2.8" fill="#f6eb16"/>
  <g>
    <path d="M90.6,114.8h0v.2h0l-.2,.2h0l.2-.3q0,0,0,0h0l-.3,.3-.6-.7,.6-.6,.3,.2h0q0,0,0,0l-.2-.2h0l.2,.2h.2l-.2-.2h-.2q0,0,0,0h0l-.2-.2h-.2l.2,.2h0l-.3-.3h0q0,0,0,0l.2,.3-.7,.6-.6-.6,.2-.3q0,0,0,0h0l-.3,.3h0l.2-.2h-.2l-.2,.2h0q0,0,0,0h-.2l-.2,.2h.2l.2-.2h0l-.3,.2h.2l.3-.2,.6,.6-.6,.7-.3-.3h-.3l.3,.3h0l-.2-.2h0v-.2h0v.2h.5c0,0,0,0,0,0h.3l-.2-.2h0l.3,.2h0q0,0,0,0l-.2-.2,.6-.6,.7,.6-.2,.2q0,0,0,0h0l.3-.2h0l-.2,.2h.3c0,0,0,0,0,0h.2Z" fill="#f6eb16"/>
    <path d="M92.8,113.9l.2-.5h-.5c-.3-1.8-2-3-3.8-2.7-1.4,.2-2.4,1.3-2.7,2.7h-.5l.2,.5-.2,.5h.5c.3,1.8,2,3,3.8,2.7,1.4-.2,2.4-1.3,2.7-2.7h.5l-.2-.5Zm-3.6-3.1c1.5,0,2.9,1.1,3.1,2.6h-.8c-.2-1.1-1.2-1.8-2.3-1.8-1.1,0-2,.8-2.3,1.8h-.7c.2-1.5,1.5-2.6,3-2.6Zm2.9,3.3h0Zm-5.1-.2c0-1.2,1-2.2,2.2-2.2,1.3,0,2.3,.9,2.4,2.2,0,1.3-.9,2.3-2.2,2.4-1.3,0-2.3-.9-2.4-2.2,0,0,0-.1,0-.2Zm-.3,.2h0Zm2.5,2.9c-1.5,0-2.8-1.1-3-2.6h.7c.2,1.1,1.2,1.9,2.3,1.9,1.1,0,2.1-.8,2.3-1.9h.8c-.2,1.5-1.5,2.7-3.1,2.6Z" fill="#f6eb16"/>
  </g>
  <g>
    <path d="M97.7,136.4h-.2v-.2c0,0,0-.1,0-.1h0l-.2,.2h0l.2-.3h-.2l-.2,.2-.6-.7,.6-.6,.2,.2h.2l-.2-.3h0l.2,.2h0c0,0,0-.1,0-.1v-.2h-.2v-.2h-.3l.2,.2h0l-.2-.2q0-.1,0,0h0l.3,.3-.7,.6-.6-.6,.2-.3h0q0-.1,0,0l-.2,.2h0l.2-.2h-.2l-.2,.2h-.4q0,.1,0,.1h.3l-.2,.2h.2l.2-.2h0l-.3,.3h.2l.2-.2,.7,.6-.7,.7-.2-.2h-.2l.3,.3h0l-.2-.2h-.2l.2,.2h-.3v.2h.3l.2,.2h.2l-.2-.2h0l.2,.2h.2l-.2-.3,.6-.6,.7,.6-.3,.3h.2l.2-.2h0l-.2,.2h.2v-.2h.4v-.2h.2Z" fill="#f6eb16"/>
    <path d="M99.9,135.4l.2-.4h-.6c-.2-1.6-1.6-2.8-3.2-2.8-1.6,0-3,1.2-3.2,2.8h-.5l.2,.4-.2,.5h.5c0,1.8,1.4,3.2,3.2,3.2s3.2-1.4,3.2-3.2h.6l-.2-.5Zm-3.6-3.1c1.6,0,2.9,1.1,3.1,2.7h-.8c-.2-1.1-1.2-1.9-2.3-1.9-1.1,0-2.1,.8-2.3,1.9h-.7c.2-1.5,1.5-2.7,3-2.7h0Zm2.9,3.4h-.3v-.2h.3v.2Zm-5.1-.3c0-1.2,1-2.2,2.2-2.2,1.3,0,2.3,.9,2.4,2.2,0,1.3-.9,2.3-2.2,2.4-1.3,0-2.3-.9-2.4-2.2,0,0,0-.1,0-.2Zm-.4,.3h-.3v-.2h.2v.2Zm2.7,2.8c-1.5,0-2.8-1.1-3-2.6h.7c.2,1.1,1.2,1.9,2.3,1.9,1.1,0,2.1-.8,2.3-1.9h.8c-.2,1.5-1.6,2.6-3.1,2.6h0Z" fill="#f6eb16"/>
  </g>
  <g>
    <path d="M170.3,157.5h-.2l-.2,.2h0l.3-.4c.1,0,.1-.1,0-.1l-.2-.2h-.1l-.4,.3h0l.5-.5v-.2l-.2-.2h-.2l-.5,.5-1.3-1.3,1.3-1.3,.5,.4q.1,.1,.2,0l.2-.2h0l-.5-.5h0l.4,.3h.1l.2-.2q.1-.1,0-.2l-.3-.3h0l.2,.2h.2l.2-.2q.1-.1,0-.2l-.2-.2v-.2h-.3l-.2-.2h-.2l-.2,.2v.2l.2,.2h0l-.3-.3h-.2l-.2,.2c-.1,0-.1,.1,0,.1l.3,.4h0l-.5-.5h-.1l-.3,.2v.2l.5,.5-1.3,1.3-1.3-1.3,.4-.5q.1-.1,0-.2l-.2-.2h-.1l-.5,.5h0l.3-.4h0l-.2-.2h-.2l-.3,.3h0l.2-.2v-.2l-.2-.2h-.2l-.2,.2h-.3c-.1,0-.1,.1,0,.2l-.2,.2q-.1,.1,0,.2l.2,.2h.1l.3-.2h0l-.4,.3v.2l.3,.2h.1l.4-.3h0l-.5,.5h0l.2,.2q.1,.1,.2,0l.5-.4,1.3,1.3-1.3,1.3-.5-.5h-.2l-.2,.2v.2l.5,.5h0l-.4-.3h-.1l-.3,.2h0l.4,.4h0l-.3-.2h-.1l-.2,.2c-.1,0-.1,.1,0,.1l.2,.3c-.1,0-.1,.1,0,.2h.3l.2,.2h.2l.2-.2v-.2l-.2-.2h0l.3,.3h.2l.2-.2v-.2l-.3-.3h0l.5,.5h.1l.2-.3c.1,0,.1-.1,0-.1l-.4-.5,1.3-1.3,1.3,1.3-.5,.5h0l.3,.3h.1l.5-.5h0l-.3,.3q-.1,.1,0,.2l.2,.2h.2l.3-.3h0l-.2,.2v.2l.2,.2h.2l.2-.2h.3v-.2l.2-.3c.1,0,.1-.1,0-.1h-.2Z" fill="#f6eb16"/>
    <path d="M174.9,155.6l.4-1h-1.1c-.6-3.7-4.2-6.2-7.9-5.5-2.8,.5-5,2.7-5.5,5.5h-1.1l.4,1-.4,1h1.1c.6,3.7,4.2,6.2,7.9,5.5,2.8-.5,5-2.7,5.5-5.5h1.1l-.4-1Zm-7.4-6.5c3.2,0,5.9,2.3,6.4,5.5h-1.6c-.5-2.7-3.1-4.4-5.8-3.8-1.9,.4-3.4,1.9-3.8,3.8h-1.6c.5-3.2,3.2-5.5,6.4-5.5Zm6,6.9h-.6v-.3l-.3-.3h.4v-.3l.2,.3h.3l-.2,.3,.2,.3Zm-10.7-.4c0-2.6,2-4.7,4.6-4.8,2.6,0,4.7,2,4.8,4.6,0,2.6-2,4.7-4.6,4.8,0,0,0,0,0,0-2.6,0-4.6-2-4.7-4.6Zm-.7,.4h-.6v-.3l-.2-.3h.3l.2-.3v.3h.4l-.3,.3,.2,.3Zm5.4,5.9c-3.1,0-5.8-2.2-6.4-5.3h1.6c.5,2.7,3.1,4.4,5.8,3.8,1.9-.4,3.4-1.9,3.8-3.8h1.6c-.6,3.1-3.3,5.3-6.4,5.3Z" fill="#f6eb16"/>
  </g>
  <polygon points="55 208 53.6 209.5 53.9 211.5 52.1 210.6 50.3 211.5 50.6 209.5 49.2 208.1 51.2 207.8 52.1 205.9 53 207.8 55 208" fill="#fff"/>
  <polygon points="87.3 228.6 85.8 230.1 86.1 232.1 84.3 231.1 82.5 232.1 82.9 230.1 81.4 228.7 83.4 228.4 84.3 226.5 85.2 228.3 87.3 228.6" fill="#fff"/>
  <g>
    <g>
      <path d="M68.6,254h-.3l.3-.2v-.2h-.3l-.3,.2h0l.4-.4h0l-.2-.2h0l-.4,.4-1.1-1,1.1-1.1,.4,.4h0l.2-.2h0l-.4-.4h0l.3,.3h0l.2-.2h0l-.3-.3h0l.2,.2h0l.2-.2c0,0,0-.1,0-.1l-.2-.2q0-.1,0-.2h0q0-.1-.2,0l-.2-.2h0l-.2,.2h0l.2,.2h0l-.3-.3h0l-.2,.2h0l.3,.3h0l-.4-.4h0l-.2,.2h0l.4,.4-1.1,1-1-1,.3-.4c0,0,0-.1,0-.1v-.2h-.2l-.3,.4h-.2l.3-.3h0l-.2-.2h-.1l-.3,.3h0l.2-.2h0l-.2-.2h0l-.2,.2c0-.1,0-.1,0,0h0v.2l-.2,.2h0l.2,.2h0l.2-.2h0l-.3,.3h0l.2,.2h0l.3-.3h0l-.4,.4h0l.2,.2h0l.4-.4,1.1,1.1-1.1,1-.4-.4h0l-.2,.2h0l.4,.4h0l-.3-.2h-.3v.2l.3,.2h-.5v.2h.2v.2h.7v-.2h-.2l.3,.3h0l.2-.2h-.2l.3,.3h.2v-.2q0,0,0-.1l-.3-.4,1-1,1.1,1-.4,.4h0l.2,.2h0l.4-.4h0l-.3,.3h0l.2,.2h0l.3-.3h-.2v.2h.7q0-.1,0-.2h.2q0-.1,0-.2h0Z" fill="#f6eb16"/>
      <path d="M72.3,252.5l.3-.8h-.9c-.4-2.7-2.6-4.6-5.3-4.6-2.7,0-4.9,2-5.3,4.6h-.9l.3,.8-.3,.8h.9c.6,2.9,3.4,4.8,6.3,4.3,2.2-.4,3.8-2.1,4.3-4.3h.9l-.3-.8Zm-5.9-5.1c2.5,0,4.7,1.8,5.1,4.3h-1.3c-.3-1.8-1.9-3.1-3.8-3.1-1.8,0-3.4,1.3-3.8,3.1h-1.2c.4-2.5,2.5-4.3,5-4.3Zm4.8,5.4h-.5v-.3l-.2-.2h.3l.2-.3v.3h.3l-.2,.2v.3Zm-8.4-.3c0-2,1.7-3.7,3.7-3.7,2-.3,3.9,1,4.3,3,.3,2-1,3.9-3,4.3-.4,0-.8,0-1.2,0-2,0-3.6-1.6-3.7-3.6h0Zm-.6,.3h-.5v-.3l-.2-.2h.6l-.2,.2,.3,.3Zm4.3,4.7c-2.5,0-4.6-1.8-5-4.2h1.2c.4,1.7,2,3,3.8,3,1.8,0,3.4-1.2,3.8-3h1.3c-.4,2.5-2.6,4.2-5.1,4.2Z" fill="#f6eb16"/>
    </g>
    <g>
      <path d="M195.7,254h-.3l.3-.2v-.2h-.3l-.3,.2h0l.4-.4h0l-.2-.2h-.1l-.4,.4-1.1-1,1.1-1.1,.4,.4h.1l.2-.2h0l-.4-.4h0l.3,.3h.1l.2-.2h0l-.3-.3h0l.2,.2h.1l.2-.2c.1,0,.1-.1,0-.1l-.2-.2q.1-.1,0-.2h0q-.1-.1-.2,0l-.2-.2h-.1l-.2,.2h0l.2,.2h0l-.3-.3h-.1l-.2,.2h0l.3,.3h0l-.4-.4h-.1l-.2,.2h0l.4,.4-1.1,1-1-1,.3-.4c.1,0,.1-.1,0-.1v-.2h-.2l-.3,.4h-.1l.3-.3h0l-.2-.2h-.1l-.3,.3h0l.2-.2h0l-.2-.2h-.1l-.2,.2c0-.1-.1-.1-.1,0h-.1v.2l-.2,.2h0l.2,.2h.1l.2-.2h0l-.3,.3h0l.2,.2h.1l.3-.3h0l-.4,.4h0l.2,.2h.1l.4-.4,1.1,1.1-1.1,1-.4-.4h-.1l-.2,.2h0l.4,.4h0l-.3-.2h-.3v.2l.3,.2h-.5v.2h.2v.2h.7v-.2h-.2l.3,.3h.1l.2-.2h0l-.3-.3h.1l.3,.4h.2v-.2q.1,0,0-.1l-.3-.4,1-1,1.1,1-.4,.4h0l.2,.2h.1l.4-.4h0l-.3,.3h0l.2,.2h.1l.3-.3h-.2v.2h.7q.1-.1,0-.2h.2q.1-.1,0-.2l-.2,.3Z" fill="#f6eb16"/>
      <path d="M199.4,252.5l.3-.8h-.9c-.4-2.7-2.6-4.6-5.3-4.6-2.7,0-4.9,2-5.3,4.6h-.9l.3,.8-.3,.8h.9c.6,2.9,3.4,4.8,6.3,4.3,2.2-.4,3.8-2.1,4.3-4.3h.9l-.3-.8Zm-5.9-5.1c2.5,0,4.7,1.8,5.1,4.3h-1.3c-.5-2.1-2.6-3.4-4.7-2.9-1.5,.3-2.6,1.5-2.9,2.9h-1.2c.4-2.5,2.5-4.3,5-4.3Zm4.8,5.4h-.5v-.3l-.2-.2h.3l.2-.3v.3h.3l-.2,.2v.3Zm-8.4-.3c0-2,1.7-3.7,3.7-3.7,2-.3,3.9,1,4.3,3,.3,2-1,3.9-3,4.3-.4,0-.8,0-1.2,0-2,0-3.6-1.6-3.7-3.6h0Zm-.6,.3h-.5v-.3l-.2-.2h.6l-.2,.2,.3,.3Zm4.3,4.7c-2.5,0-4.6-1.8-5-4.2h1.2c.4,1.8,2,3,3.8,3,1.8,0,3.4-1.2,3.8-3h1.3c-.4,2.5-2.6,4.2-5.1,4.2Z" fill="#f6eb16"/>
    </g>
  </g>
  <g>
    <path d="M133.5,292.8h-1.5c-1.2,0-2.4,.3-3.4,.9l-.8,.8q0,.1-.2,0l-1.5-2.8c-.4-.6-.7-1.3-1.1-2s0-.1,0-.2c.4-.6,.9-1.1,1.5-1.6,.8-.5,1.7-.9,2.7-1,.6,0,1.3,0,1.9,0,1.1,.1,2.3-.1,3.3-.7,.9-.6,1.7-1.2,2.4-2q.1-.2,.2,0l2.7,4.6c0,.2,0,.3,0,.5-.4,.7-1,1.3-1.6,1.9-1,.7-2,1.3-3.2,1.6h-1.4Z" fill="#9d1f60"/>
    <path d="M127.8,295.8c.1-.3,.3-.6,.5-.8,.5-.6,1.2-1,1.9-1.3,.8-.3,1.6-.4,2.4-.3,.9,0,1.8,0,2.7,0,.9-.2,1.8-.6,2.5-1.2l1.2-1q.2-.2,.3,0t.2,.3v.3c-.4,.6-1,1.2-1.6,1.6-.8,.4-1.6,.8-2.5,.9h-4.3c-.7,.2-1.3,.5-1.8,.9-.5,.6-.9,1.2-1.3,1.8,0,.2,0,.3-.2,.5,0,0,0,.1,0,.1h0c0,0,0-.1,0-.1h0l-.9-1.7-1.8-3.4c0-.1,0-.2,0-.4l.3-.5q0-.1,.2,0l.9,1.7,1.4,2.5c0,0,0,0,0,0Z" fill="#9d1f60"/>
  </g>
</svg>
