<svg id="bad38a35-a924-444d-ae60-4ec9175901cf" data-name="b7e4cc2c-f8a6-4bfa-bef2-cc0d234f0a3f" xmlns="http://www.w3.org/2000/svg" xmlns:xlink="http://www.w3.org/1999/xlink" width="335" height="335" viewBox="0 0 335 335">
  <defs>
    <clipPath id="b22eb3c5-2150-46df-87be-6ba1dff1fcf4">
      <rect width="335" height="335" fill="none"/>
    </clipPath>
    <radialGradient id="e560820a-52aa-4694-a90b-42ddbc294f8f" cx="167.5" cy="168.5" r="294.74" gradientTransform="matrix(1, 0, 0, -1, 0, 336)" gradientUnits="userSpaceOnUse">
      <stop offset="0" stop-color="#ee2a7b"/>
      <stop offset="1" stop-color="#131628"/>
    </radialGradient>
  </defs>
  <g>
    <g clip-path="url(#b22eb3c5-2150-46df-87be-6ba1dff1fcf4)">
      <g>
        <rect width="335" height="335" fill="url(#e560820a-52aa-4694-a90b-42ddbc294f8f)"/>
        <rect y="327" width="335" height="7.97" fill="#fff"/>
        <path d="M-4,330.7c.3.1.7,0,.8.2s-.1.1-.1.4.2.1.3.4,0,0-.1.2-.3.2-.4.6,0,.3.2.8.4.2.4.3h-.4c-.2.1-.4-.2-.7-.2s0,0-.1.1,0,0,.3.2.5.1.8.1.3,0,.4.2v.6c0,.2-.3,0-.5.1s-.9,0-.8.1h.3l171.7,1.8,1.2.2c.2,0,.5.1.7-.1s-.1-.3-.2-.3h-1c-.2,0-.1,0-.1-.1s.2-.2.2-.4v-.4c0-.1-.1-.2.2-.2h.4a.9.9,0,0,0,.7,0h1.1c.4,0,.2-.2,0-.2h-2.6l-.3-.4c-.1-.2-.5-.1-.6-.2s-.1-.2-.1-.4.1,0,.4-.2a1.5,1.5,0,0,0,.6-.9c0-.2-.2-.2-.2-.3s.3-.2.4-.4,0-.2-.1-.3h3.3l-.2-.3-38.2-.4h-.2c-.2,0-.2-.1-.4-.3s-.4-.5-.6-.4l-.4.3c-.2.1-.3-.1-.5.1s0,.3-.2.2l-.7-.3h-3.2c-.2-.1-.1.2-.4,0h-.6l-1.2.2a.5.5,0,0,1-.5-.3c0-.1.1-.2-.2-.1l-.9.2c-.3,0-.3.2-.5,0s-.1-.4-.6-.4-.7-.1-.9,0,0,.2-.3.2h-1.9c-.3.1-.2.4-.5.2l-1.1-.6-.4-.4c0-.2,0-.2.2-.3s.3.1.3-.2.3-.3.1-.4-.1.1-.3-.1l-.3-.5-.4-.2c-.3,0-.4,0-.4-.2v-.3c.1-.3.3-.2.2-.5s.2-.5,0-.6h-.4c-.3,0-.4.1-.6,0a.6.6,0,0,1-.1-.4c0-.3.1-.4-.1-.4s-.4-.1-.3.2.2.1.1.4-.2.1-.3.2-.1.3-.4.1-.6.1-.5-.2.2-.4.1-.5,0-.3-.2-.1l-.3.3-.5.4a.5.5,0,0,1-.6-.1h0c-.1-.3-.2-.2-.1-.5s.1-.2,0-.5a.5.5,0,0,1-.3-.5c0-.3-.1-.5-.3-.5l-.7.3c-.3.2-.4,0-.3.4a1.9,1.9,0,0,1,.2.7c0,.2-.3.1,0,.4s.4.4.4.6a.4.4,0,0,1-.4.4c-.3.1-.4.2-.5.1s.1-.2-.1-.5-.4-.4-.4-.1.1.2-.2.5l-.5.3c-.2.1-.2.1-.4-.2s.4-.4-.1-.4l-.9.2h-.7l-.3.2H107c-.1.1.1.2.1.4s.1.5-.1.6h-.9c-.1-.2-.1-.1,0-.4s.1-.2,0-.4-.5-.2-.8-.1-.3.2-.3.4-.2.2-.1.5.1.5-.1.5l-.5-.3c-.2-.2-.5-.1-.7-.2l-.4-.5c0-.1-.2-.1,0-.2s.3,0,.3-.2.2-.2.1-.4,0-.2-.3-.2-.2,0-.2-.2-.1-.2,0-.4.3-.2.2-.3-.6-.1-.7-.3-.3-.9,0-.9.3.2.5.3l.6-.2c.2,0,.4,0,.2.3s-.3.2-.1.3l.4.2c.2.1.3,0,.3.3a1.3,1.3,0,0,1-.1.6c-.1.4-.3.4-.2.6h.5a.7.7,0,0,1,.6-.1h.6c.2-.1,0-.1.3-.2h.6c.2,0,.4,0,.2-.3s.1-.1-.4-.4-.7-.3-.7-.5-.1-.1.2-.2.4-.1.3-.3-.1-.3-.4-.2-.3.3-.5.2-.4-.1-.4-.4,0-.2.2-.4.4,0,.3-.4-.2-.4-.2-.6v-.7a.6.6,0,0,1,.1-.4c.1-.2-.1-.2.2-.4s.3.2.4-.3a1.1,1.1,0,0,0,0-.8,2.2,2.2,0,0,1,.1-.8c.2-.3.3-.3.4-.6s.5-.4.2-.5-.3-.4-.5,0-.1.6-.4.7-.3-.1-.4.3,0,.5-.3.5-.3-.2-.4,0a.6.6,0,0,1-.6.6l-.5.3c-.2.2-.3.4-.4.3s0-.2-.4-.2a1.7,1.7,0,0,1-1-.3c-.2-.2-.5-.2-.6-.4a6.4,6.4,0,0,1-.2-.7c-.1-.3-.2-.2,0-.4l.7-.6c.2-.2.6-.3.7-.6s.1-.2,0-.5,0-.2-.2-.5-.2-.4-.5-.2-.2.3-.6.1a1,1,0,0,1-.6-.5c-.1-.3,0-.3-.2-.5s-.1-.6-.4-.4-.5.2-.6.6-.1,0-.2.5.1.6-.2.6-.2-.2-.4.1-.3.6-.5.6-.3-.2-.3.2-.3.3.1.5.6-.1.6.4-.1.3,0,.6a.6.6,0,0,1,.1.4c0,.1.1.1.1.3a2.8,2.8,0,0,1-.9,1c-.2.2-.3.3-.4.1s.1-.3-.1-.5-.3-.6-.3-.2.1.4-.2.5l-.4.2c-.1.1-.1-.2-.1.1s0,.2.1.4.2.3,0,.3a.8.8,0,0,1-.8-.3h-.3c0-.2.2-.3,0-.4s-.4-.3-.5,0,.2.2-.1.3-.5-.2-.4.2a.7.7,0,0,0,.3.5c.1.1.1.1.1.3s.1-.2.2.1a1.4,1.4,0,0,1,.2.6c0,.3-.1.2,0,.3a.4.4,0,0,1,.1.3c0,.1.1,0,.3.2s.3.3.1.5-.3.4-.4.2-.1-.4-.3-.4a.6.6,0,0,0-.5.2c-.2.2-.2.2-.6.2H93l-.4-.5c0-.2.1-.6-.3-.3s-.4.1-.3.6v.6c0,.2,0,0,.1.3s.2.5-.1.8a1,1,0,0,0-.4.7c-.1.4-.2.1-.4.4s-.3.1-.1.5.3.4.1.7-.3.1-.6.5-.2.2-.3.6-.2.3-.1.7v.3h-.8c-.9-.7-2.2-1.7-1.9-2s5.4-5.8,5.6-6.4a1.3,1.3,0,0,0-.9-1.8,20.4,20.4,0,0,0-10.4,0,53.2,53.2,0,0,0,3.7-6.6c.3-1.2-.6-3.2-.5-3.4s1.5-.8,1.9-1.4a19.6,19.6,0,0,0,1.2-3.4l.9-2a6.3,6.3,0,0,0,3.7,1.2c3.7,0,6.7-3.5,6.7-7.7s-3-7.7-6.7-7.7-6.1,2.7-6.7,6.3h-.1l-14.4-.6c-.6-3.8-3.3-6.7-6.5-6.7s-6.8,3.8-6.8,8.5,3,8.4,6.8,8.4a5.6,5.6,0,0,0,4.5-2.2,8.7,8.7,0,0,1,2.2,3.5,14.7,14.7,0,0,0,2.5,4.8,19.4,19.4,0,0,0,.7,3.3c-.8,1.1-1.4,4-1.9,4.5a35.8,35.8,0,0,0-2.6,2.9,4,4,0,0,0-.5,3.2,3.1,3.1,0,0,0,2,2.4c-.3.8-.3,1.5-.5,2l-.3.7H67.7a2.4,2.4,0,0,0-.8-2.1,9.9,9.9,0,0,1-2.3-4.1,34.5,34.5,0,0,1-1.1-5.4,8.3,8.3,0,0,0-2.1-3.9,5.1,5.1,0,0,0-.7-1.7,22.5,22.5,0,0,0-.7-5.8,55.9,55.9,0,0,0-3.8-8.7s1.1-.8.8-1.2a35.8,35.8,0,0,1-1.9-5.5c0-.9,2.4-6.8,2.7-8.9s-.7-4.5-.8-5.2a14,14,0,0,0,.6-2.8A19.7,19.7,0,0,0,57,271a4.4,4.4,0,0,0,2.6-2.7,2.6,2.6,0,0,0-1.1-2.7c2.2-3.6-.4-3.7-.4-3.7l-.4-.4a4.6,4.6,0,0,0-2.6-.2l-.4.6c-2.3.2-.8,3.6-.8,3.6s-1.4.4-1.4,2.5a3.4,3.4,0,0,0,2.2,2.7,57.2,57.2,0,0,0-1.1,5.7c0,.5.4,1,.4,1.5a10.7,10.7,0,0,1-.3,2.5l-.7,1.7s-.5,0-.5-.2a2.8,2.8,0,0,1-.4-1.3c0-.6.6-1.2.7-1.6a9.6,9.6,0,0,0-1.2-3.2,1.7,1.7,0,0,0-1.6-1.2,1,1,0,0,0-.9-.2c-1.9.6-3.9,3.1-3.9,3.6a6,6,0,0,0,.5,1.6c.1.3-.1,1.9.2,2.1s.9.8.7.9-1.2,1-1.6.9-2.8,1.7-3.5,2.5-2.8,3.6-3.1,4-1.6,1.6-1.5,2a2.3,2.3,0,0,0,.6,1.6,70.1,70.1,0,0,0,5.4,5.5c.2.1.8.6,1.4.4a2.1,2.1,0,0,1,1.1,0c-.6,1.5-1.6,5.3-2.2,7.5l-1.4-.2c-1-.2-4.4-.2-4.9-.3a8.2,8.2,0,0,0-2.7.2,5.7,5.7,0,0,1-2.6-.2c-.9-.2-3.5-1-4.1-1a8.1,8.1,0,0,0,1.4-3.3c.2-1,.6-1.4.5-1.8a3.5,3.5,0,0,0-1.9-1.7,4.8,4.8,0,0,0-3.2-1.3c-1.1,0-1.4.6-2.3.9a1.4,1.4,0,0,0-1.4-.8s-.6-.5-1.5.2-.8,2.2-1.4,2.9-1.6.9-.9-.2-1.6.7-1,2.1,2.7,1.2,4.1-.2a16,16,0,0,0,.5,2.1,15.2,15.2,0,0,0-4,5.4c-1.5,3.5-.8,6.1-1.1,7.2a13.7,13.7,0,0,1-1.5,3.8c-.6.9-1.4,3.2-.6,4.9a3.6,3.6,0,0,0,4.8,1.8h0c2.2-.7,1.3.2.7.8a3.9,3.9,0,0,0-1.2,1.9l-21.8-.3C-5.2,329.9-4.4,330.6-4,330.7Zm62.2-67.4a4.1,4.1,0,0,1-.5,1.9h-.4a2.3,2.3,0,0,1,.9-1.9Zm18.3,67.5a6.2,6.2,0,0,1,1.8-1.4,4.5,4.5,0,0,0,1.9-2.2,34,34,0,0,0,4.6-.8l-2.7,3.1-1,1.4Zm-1.1-25.1-.9-1.5c-.2-.5-.8-.7-1.3-1.4l-2-2.4h0a10.6,10.6,0,0,0,.5-3.1l14.3.8a7.5,7.5,0,0,0,1,3.6,27.3,27.3,0,0,0-2.1,3s-.2-1.1-.2-1.4a1.7,1.7,0,0,1,0-1l-.3-.4c-.1-.2.2-.3.1-.6a9.8,9.8,0,0,0-.5-1.6l-1.9-.7a5.2,5.2,0,0,0-5.1.9c-1,1-.7,2.6-.6,4a4.1,4.1,0,0,0,1.7,2.2.9.9,0,0,1-.3.7,2,2,0,0,0-.9.9A9.5,9.5,0,0,1,75.4,305.7ZM47.1,293.1a16.7,16.7,0,0,0-.8,3.2l-2.6,1s-2.2-3.6-3.4-4.4.7-1.3,1.1-1.5a26,26,0,0,0,3.6-3A19.9,19.9,0,0,1,47.1,293.1Zm7.7-27.9c-1-2.3.2-2.3.2-2.3a4.5,4.5,0,0,1,.4,2ZM40.6,329.6a12.3,12.3,0,0,1-1.2-2.6,3.8,3.8,0,0,0,1.5-.1c1.9-.3,2.6-.5,3.1,0a4.2,4.2,0,0,0,3.1.3c.7-.3,2.2-1.8,3.6-2.5s1.3-1.6.9-1.8l-1.9-.7-2.9.8c-.8.1-1.7.6-2.7.7a10.3,10.3,0,0,1-3-.4l2.2-3.1a12.2,12.2,0,0,0,.9-4.2,15.2,15.2,0,0,0,3-3.2,28,28,0,0,0,3-6.6c.4-2.2,1.2-1.9,1.2-1.9a31,31,0,0,0,2.1,4.5,28.3,28.3,0,0,1,1.6,3.6,17.3,17.3,0,0,0,1.4,3.1l.9,1.6a6.1,6.1,0,0,0,.7,1.4,3.7,3.7,0,0,1,.8,1.8,10.3,10.3,0,0,0,1.4,3c.5.6,2.2,3.6,2.5,4a3.1,3.1,0,0,1,.1,1.9,8.3,8.3,0,0,0-.4,1.5l-22.3-.3C40.6,330.1,40.8,329.9,40.6,329.6Zm-16.9-1.2,2.7-1.9,4.2-.8a6.6,6.6,0,0,1,3.4.6l1.3.3c-.4.3-.8.3-.9.6a3.3,3.3,0,0,0,0,1.4,12.9,12.9,0,0,1-1.6,1.7H27.3C27,329.6,26.2,328.5,23.7,328.4Zm-1.4-9.7a13.6,13.6,0,0,1,1.1-2.8c.6-.7,1.5-1.7,2.4-1.8s1.2-2.3,1.2-2.9,4.3-.6,5.4-.9a19.7,19.7,0,0,1,4.2-.1,22,22,0,0,0,5.7-.5c-.2,1.2-.3,2.4-.3,2.4s-.4,1.6-.5,1.8a27.1,27.1,0,0,1-1.8,2.7,42.4,42.4,0,0,0-2.3,5.9l-3.2-.4a4,4,0,0,1-1.8-.7,1.8,1.8,0,0,0,.6-1.7,2.3,2.3,0,0,0-2.2-1.3c-.9,0-7.3.1-8.5.3Z" fill="#fff"/>
        <rect y="228" width="335" height="21.33" fill="#fff200"/>
        <g>
          <g>
            <circle cx="294.8" cy="231.8" r="70.6" fill="#fff"/>
            <path d="M349.4,171.5a81.4,81.4,0,0,0-92.7-11.7l5,4.5a75.1,75.1,0,1,1-37.3,41.2l-5-4.5a81.4,81.4,0,1,0,130-29.5Z" fill="#fff200"/>
          </g>
          <circle cx="295" cy="231.6" r="66.9" fill="#c32035"/>
        </g>
        <g>
          <line x1="-0.3" y1="49.7" x2="-0.3" y2="99.9" fill="none" stroke="#fff200" stroke-miterlimit="10"/>
          <line x1="5.3" y1="58.6" x2="5.3" y2="99.9" fill="none" stroke="#fff200" stroke-miterlimit="10"/>
          <line x1="10.8" y1="69.3" x2="10.8" y2="99.9" fill="none" stroke="#fff200" stroke-miterlimit="10"/>
          <line x1="16.4" y1="79.5" x2="16.4" y2="99.9" fill="none" stroke="#fff200" stroke-miterlimit="10"/>
          <line x1="22" y1="88.8" x2="22" y2="99.9" fill="none" stroke="#fff200" stroke-miterlimit="10"/>
        </g>
      </g>
    </g>
    <g>
      <g>
        <path d="M36.2,18.4a1.2,1.2,0,0,1-.4.8l-3.7,3.7-3.9-2.3V18.4a1.1,1.1,0,0,1,1-1.2h.1a1.2,1.2,0,0,1,1.2,1.2h0v2.8l3.7-3.7a1.2,1.2,0,0,1,1.6,0,1.5,1.5,0,0,1,.4.9" fill="#fff"/>
        <path d="M35,29.1h-.5l-.3-.3-3.7-3.6V28a1.2,1.2,0,0,1-1.2,1.2h0A1.3,1.3,0,0,1,28.2,28V25.7l3.9-2.3,3.7,3.7a1.2,1.2,0,0,1-.1,1.7.9.9,0,0,1-.7.3" fill="#fff"/>
        <path d="M31.9,23c0-.1,0-.1-.1-.1h0l-1-.6-2.6-1.5-2.3-1.3c0-.1-.1-.2-.3-.1s-.1.1-.1.2h0v6.8a.3.3,0,0,0,.3.3h.1l2.3-1.3,3.6-2.2h.1C32,23.1,32,23.1,31.9,23Zm-.8.2c-.1,0-.1,0-.1.1h0l-2.9,1.6-1.7,1c-.1.1-.3.1-.3,0h0V20.5a.2.2,0,0,1,.2-.2h.1l1.7,1L31,22.9C31,23,31.1,23.1,31.1,23.2Z" fill="#fff"/>
        <path d="M30.3,23.2c-.1,0-.1,0-.1.1L28,24.5l-1.3.7c0,.1-.1.1-.2,0h0v-4h.2l1.4.8L30.2,23h.1" fill="#fff"/>
      </g>
      <g>
        <path d="M55.4,23c0-.1,0-.1-.1-.2l-3.2-1.6-2-1c-.2-.1-.4,0-.4.2v5.4c0,.2.2.3.3.2l2-1.1,3.2-1.7h.1C55.5,23.1,55.5,23,55.4,23Zm-.7.1h-.1l-2.5,1.3-1.6.8c-.1.1-.2,0-.2-.1V21a.2.2,0,0,1,.2-.2h.1l1.5.8,2.6,1.3c0,.1,0,.1.1.1Z" fill="#fff"/>
        <path d="M54,23.1h-.1l-1.9,1-1.1.6h-.3V21.5c0-.1.1-.1.2-.1h0L52,22l1.9.9c0,.1,0,.1.1.1h0" fill="#fff"/>
        <path d="M38.5,20.3h2.9a2,2,0,0,1,2.3,1.5v.3c.1,1.2-.9,2-2.3,2H39.9v1.8H38.6ZM41.2,23c.7,0,1.2-.4,1.2-.8s-.5-.8-1.2-.8H39.9V23Z" fill="#fff"/>
        <path d="M49.1,24.9V26H44.6V20.4H46v4.5Z" fill="#fff"/>
        <path d="M56.9,23.8l-2.5-3.5H56l1.6,2.5,1.6-2.5h1.5l-2.4,3.6v2H56.9Z" fill="#fff"/>
        <path d="M61.6,20.5h.7v3.2l3.2-3.2h.9l-2.6,2.6,2.8,3h-.9l-2.4-2.6-1,1v1.7h-.7Z" fill="#fff"/>
        <path d="M67,23.3a2.9,2.9,0,0,1,3.1-2.9h.1a3,3,0,0,1,3.2,2.8h0a2.9,2.9,0,0,1-3,3h-.1A3.1,3.1,0,0,1,67,23.3Zm5.7-.1a2.6,2.6,0,0,0-2.6-2.5,2.6,2.6,0,0,0-2.4,2.6,2.5,2.5,0,0,0,2.6,2.3,2.4,2.4,0,0,0,2.4-2.4Z" fill="#fff"/>
        <path d="M74.4,25.3l.4-.5a3.2,3.2,0,0,0,2.1.8c.9,0,1.4-.5,1.4-1s-.6-.8-1.7-1S74.5,23,74.5,22s.9-1.6,2.1-1.6a2.9,2.9,0,0,1,2.2.7l-.4.5a2.9,2.9,0,0,0-1.8-.7c-.8,0-1.3.5-1.3,1s.6.8,1.7,1,2,.6,2,1.6-.7,1.7-2.2,1.7A3.4,3.4,0,0,1,74.4,25.3Z" fill="#fff"/>
        <path d="M80.4,20.5h.7l2.3,3.9,2.3-3.9h.7v5.6h-.7V21.9l-2.3,3.9L81,21.9v4.3h-.7Z" fill="#fff"/>
        <path d="M87.8,23.3a3.3,3.3,0,0,1,3.8-2.7,3.2,3.2,0,0,1,2.7,2.6,3.2,3.2,0,0,1-3.2,3,3.1,3.1,0,0,1-3.3-2.9Zm5.7-.1A2.4,2.4,0,0,0,91,20.9h0a2.6,2.6,0,0,0-2.5,2.4,2.7,2.7,0,0,0,2.6,2.3,2.4,2.4,0,0,0,2.4-2.4Z" fill="#fff"/>
        <path d="M95.2,25.3l.4-.5a3.2,3.2,0,0,0,2.1.8c1,0,1.5-.5,1.4-1s-.6-.8-1.7-1-2-.6-2-1.6.8-1.6,2-1.6a3.2,3.2,0,0,1,2.3.7l-.5.5a2.9,2.9,0,0,0-1.8-.7c-.8,0-1.3.5-1.3,1s.6.8,1.7,1,2.1.6,2.1,1.6-.8,1.7-2.2,1.7A3.4,3.4,0,0,1,95.2,25.3Z" fill="#fff"/>
      </g>
    </g>
    <g>
      <path d="M21.2,207h.6l.9.3a2.4,2.4,0,0,1,.9.6,3.7,3.7,0,0,1,1,2.4v.5a1.6,1.6,0,0,1-.3.9,2.4,2.4,0,0,1-.6.9,3.2,3.2,0,0,1-2.3.9,2.5,2.5,0,0,1-1.2-.2l-.5-.2-.7-.5-.5-.7c-.1-.2-.2-.3-.2-.5a3.1,3.1,0,0,1,0-2.3.8.8,0,0,1,.2-.5l.5-.7a3.7,3.7,0,0,1,2.3-1m.1-2.3h-.8a6.4,6.4,0,0,0-3.8,2.2,5.4,5.4,0,0,0-.7,1.3l-.3.7v.7q-.2,1,0,1.2a5.4,5.4,0,0,0,1,3l4.3,5.5c.1.2.3.2.5.2l.4-.2,4.4-5.8a5.6,5.6,0,0,0,.9-3.1,5.8,5.8,0,0,0-1.7-4.1,5.7,5.7,0,0,0-4.3-1.5Z" fill="#fff200"/>
      <path d="M23.1,220.1c0,.2-.8.4-1.8.4s-1.8-.2-1.8-.4.9-.4,1.8-.4S23.1,219.9,23.1,220.1Z" fill="#fff200"/>
    </g>
    <rect y="122" width="6.4" height="21.31" fill="#fff"/>
    <rect x="328.6" y="125.3" width="6.4" height="21.31" fill="#fff"/>
    <path d="M113.1,104.4H44.5a5.9,5.9,0,0,1-5.9-5.9V93.4a5.8,5.8,0,0,1,5.9-5.9h68.6a5.8,5.8,0,0,1,5.9,5.9v5.1A5.9,5.9,0,0,1,113.1,104.4ZM44.5,89.3a4.1,4.1,0,0,0-4.1,4.1v5.1a4.1,4.1,0,0,0,4.1,4.1h68.6a4.1,4.1,0,0,0,4.1-4.1V93.4a4.1,4.1,0,0,0-4.1-4.1Z" fill="#fff200"/>
    <path d="M201.8,104.4H133.2a5.9,5.9,0,0,1-5.9-5.9V93.4a5.8,5.8,0,0,1,5.9-5.9h68.6a5.8,5.8,0,0,1,5.9,5.9v5.1A5.9,5.9,0,0,1,201.8,104.4ZM133.2,89.3a4.1,4.1,0,0,0-4.1,4.1v5.1a4.1,4.1,0,0,0,4.1,4.1h68.6a4.1,4.1,0,0,0,4.1-4.1V93.4a4.1,4.1,0,0,0-4.1-4.1Z" fill="#fff200"/>
    <path d="M290.4,104.4H221.8a5.9,5.9,0,0,1-5.9-5.9V93.4a5.8,5.8,0,0,1,5.9-5.9h68.6a5.8,5.8,0,0,1,5.9,5.9v5.1A5.9,5.9,0,0,1,290.4,104.4ZM221.8,89.3a4.1,4.1,0,0,0-4.1,4.1v5.1a4.1,4.1,0,0,0,4.1,4.1h68.6a4.1,4.1,0,0,0,4.1-4.1V93.4a4.1,4.1,0,0,0-4.1-4.1Z" fill="#fff200"/>
    <g>
      <g>
        <path d="M18.1,166.8v1h-.9v-1H15.6v-.6h.6l-.6-.2v-.3h1.6v-2.9H15.6v-.4h.6l-.6-.2v-.5l.6-.2h1v-1h.9v.9h1.3v.5l-.7.2h.8v.6H18.1v2.9h1.3v.6h-.8l.8.2v.3Z" fill="#fff200"/>
        <path d="M19.5,162.1v.6H18.2v2.9h1.2v.6h0v.5H18.2v.9h-1v-.9H15.5v-.6H16l-.5-.2v-.4h1.6v-2.8H15.6v-.5h0v-.6h1.5v-1h1v.9h1.3v.5l-.6.2Zm-.1.5v-.4l-.9-.2.9-.2v-.4H18.1v-1h-.9v1H15.7v.5l.7.2h-.7v.3h1.5v2.2h0v.7H15.7v.3l.9.2h-.9v.4h1.7v.9h.8v-.9h1.3v-.3l-1.1-.2,1.1-.2v-.4H18.1V162Z" fill="#fff200"/>
      </g>
      <g>
        <path d="M16.7,161.3v-.5h1.9v.5Z" fill="#fff200"/>
        <path d="M18.7,160.8v.6H16.6v-.6Zm-.1.5v-.4H16.7v.4Z" fill="#fff200"/>
      </g>
      <g>
        <path d="M16.7,167.3v-.5h1.9v.5Z" fill="#fff200"/>
        <path d="M18.7,166.8v.6H16.6v-.6Zm-.1.5v-.4H16.7v.4Z" fill="#fff200"/>
      </g>
    </g>
    <g>
      <g>
        <path d="M18.1,188.6v1h-.9v-1H15.6v-.5h.6l-.6-.2v-.3h1.6v-2.9H15.6v-.4h.6l-.6-.2v-.5h1.6v-1h.9v.9h1.3v.5l-.7.2.8.2v.5H18.1v2.9h1.3v.6h-.8l.8.2v.4Z" fill="#fff200"/>
        <path d="M19.5,183.9v.7H18.2v2.9h1.2v.6h-.7l.7.2v.4H18.2v.9h-1v-1H15.5V188h-.1v-.5H17v-2.7H15.6v-.4H16l-.4-.2v-.6h1.5v-1h1v.9h1.3v.6h0Zm-.1.6V184l-.9-.2.9-.2v-.4H18.1v-.9h-.9v1H15.7v.5l.7.2h-.7v.3h1.5v2.2h0v.7H15.7v.3l.9.2h-.9v.5h1.7v1h.8v-1h1.3v-.3l-1.1-.2h1.1v-.5H18.1v-3.1Z" fill="#fff200"/>
      </g>
      <g>
        <path d="M16.7,183.1v-.5h1.9v.5Z" fill="#fff200"/>
        <path d="M18.7,182.6v.6H16.6v-.6Zm-.1.5v-.4H16.7v.4Z" fill="#fff200"/>
      </g>
      <g>
        <path d="M16.7,189.2v-.6h1.9v.6Z" fill="#fff200"/>
        <path d="M18.7,188.6v.6H16.6v-.6Zm-.1.5v-.4H16.7v.4Z" fill="#fff200"/>
      </g>
    </g>
    <rect x="105.2" y="147.4" width="124.5" height="2.26" fill="#fff200"/>
    <g>
      <g>
        <path d="M18.1,241.4v.9h-.9v-.9H15.6v-.5h.6l-.6-.2v-.3h1.6v-2.9H15.6v-.4h.6l-.6-.2V236h1.6v-1h.9v1h1.3v.5h-.7l.8.2v.5H18.1v3h1.3v.5h-.8l.8.2v.4Z" fill="#231f20"/>
        <path d="M19.5,236.6v.7H18.2v2.9h1.2v.7h-.7l.7.2v.4H18.2v1h-1v-1H15.5v-.6h-.1v-.4H17v-2.8H15.6v-.4h0V236l.6-.2h.9v-1h1v.9h1.3v.6h0Zm-.1.6v-.5l-.9-.2.9-.2v-.4H18.1V235h-.9v1H15.7v.5l.7.2-.7.2v.3h1.5v2.2h0v.7H15.7v.3l.9.3h-.9v.5h1.7v1h.8v-1h1.3V241l-1.1-.3h1.1v-.5H18.1v-3Z" fill="#231f20"/>
      </g>
      <g>
        <path d="M16.7,235.9v-.5h1.9v.5Z" fill="#231f20"/>
        <path d="M18.7,235.3v.6H16.6v-.6Zm-.1.5v-.4H16.7v.4Z" fill="#231f20"/>
      </g>
      <g>
        <path d="M16.7,241.9v-.5h1.9v.5Z" fill="#231f20"/>
        <path d="M18.7,241.3v.6H16.6v-.6Zm-.1.5v-.4H16.7v.4Z" fill="#231f20"/>
      </g>
    </g>
    <g>
      <g>
        <path d="M79.3,262.3v1h-.9v-1H76.8v-.5h.6l-.6-.2v-.4h1.6v-2.8H76.8v-.3l.6-.2h-.6v-.6h1.6v-1.1h.9v.9h1.3v.5l-.7.2h.8v.6H79.3v3h1.3v.6h-.8l.8.2v.3Z" fill="#fff"/>
        <path d="M80.7,257.6v.6H79.4v2.9h1.2v.6h0v.5H79.4v1h-1v-1H76.7v-.6h-.1v-.4h1.6v-2.8H76.8v-.5h0v-.6h1.5v-1h1v1h1.3v.5l-.6.2Zm-.1.5v-.5h-.9l.9-.2V257H79.3v-1h-.9v1H76.9v.4l.7.2-.7.2v.3h1.5v2.3h0v.7H76.9v.2l.9.3h-.9v.4h1.7v.9h.8V262h1.3l-1.1-.2,1.1-.2v-.5H79.3v-3Z" fill="#fff"/>
      </g>
      <g>
        <path d="M77.9,256.8v-.5h1.9v.5Z" fill="#fff"/>
        <path d="M79.9,256.2v.7H77.8v-.7Zm-.1.6v-.5H77.9v.5Z" fill="#fff"/>
      </g>
      <g>
        <path d="M77.9,262.8v-.5h1.9v.5Z" fill="#fff"/>
        <path d="M79.9,262.3v.6H77.8v-.6Zm-.1.5v-.5H77.9v.5Z" fill="#fff"/>
      </g>
    </g>
    <g>
      <circle cx="320" cy="109.9" r="1.5" fill="#fff200"/>
      <circle cx="320" cy="115.9" r="1.5" fill="#fff200"/>
      <path d="M320,123.5a1.5,1.5,0,1,0-1.5-1.5A1.5,1.5,0,0,0,320,123.5Z" fill="#fff200"/>
      <path d="M320,129.5a1.4,1.4,0,0,0,1.5-1.3V128a1.5,1.5,0,1,0-1.5,1.5Z" fill="#fff200"/>
      <circle cx="320" cy="134.1" r="1.5" fill="#fff200"/>
    </g>
    <g>
      <circle cx="6.6" cy="264.8" r="1.5" fill="#fff200"/>
      <circle cx="6.6" cy="270.9" r="1.5" fill="#fff200"/>
      <path d="M6.6,278.4a1.5,1.5,0,1,0,0-3,1.5,1.5,0,0,0,0,3Z" fill="#fff200"/>
      <path d="M6.6,284.5A1.5,1.5,0,0,0,8.1,283h0a1.5,1.5,0,0,0-1.5-1.5,1.5,1.5,0,0,0,0,3Z" fill="#fff200"/>
      <circle cx="6.6" cy="289" r="1.5" fill="#fff200"/>
    </g>
    <g>
      <line x1="315.8" y1="88.8" x2="315.8" y2="99.9" fill="none" stroke="#fff200" stroke-miterlimit="10"/>
      <line x1="321.3" y1="79.5" x2="321.3" y2="99.9" fill="none" stroke="#fff200" stroke-miterlimit="10"/>
      <line x1="326.9" y1="69.3" x2="326.9" y2="99.9" fill="none" stroke="#fff200" stroke-miterlimit="10"/>
      <line x1="332.5" y1="58.6" x2="332.5" y2="99.9" fill="none" stroke="#fff200" stroke-miterlimit="10"/>
    </g>
  </g>
</svg>
