<svg id="f861a965-97d1-404d-b7dc-edea2e392e55" data-name="Layer 1" xmlns="http://www.w3.org/2000/svg" xmlns:xlink="http://www.w3.org/1999/xlink" width="335" height="335" viewBox="0 0 335 335">
  <defs>
    <clipPath id="e4a23a50-ac2d-4a89-88f4-bb8b9805b80d">
      <rect width="335" height="335" fill="none"/>
    </clipPath>
  </defs>
  <g>
    <g>
      <g clip-path="url(#e4a23a50-ac2d-4a89-88f4-bb8b9805b80d)">
        <rect width="335" height="335" fill="#fff"/>
        <path d="M337.5,269.6c3.4.5,7.4.9,7.4,1.3,0-3.4,1.1-14.6,1.1-9.6,0,.6.2.3.4-.6v-116c-2.5,0-5.1,1-5.1,4s-1.8,4.2-3.8,6.1V51L369,5.4,277.2-58.1,239.4-3.5l1.1.8c-.4.7,2.7,1.5,2.5,1.8S245.6.7,245.6.7s2.3,1.9,2,2.3a6.2,6.2,0,0,0,2.8,1.4c-.5.6,1.2,3.4,1.6,2.9s2.1,2.3,2.6,1.5,2.6,1.8,3.4.6c-.2.4,2,2.3,1.8,2.7s2.3,2.1,1.9,2.7c.9-1.3,3.3.9,3.2,1.1s2.6,1.7,2.8,1.4,2.8,1.4,2.8,1.4,2.9,1.3,2.3,2.2,3,1.1,2.8,1.4,2.7.9,3,.4,3.5-.1,3,.6,4.3-1.3,3.2.2,2.3,2.7,2.7,2.2,2.5,1.7,3,.9,2.9.5,3.5-.4,3.1.8,3.3.5,3.6.6,2.7,1.9c.2-.3,2.7,2.1,2.4,2.5s4.3-1.4,3.8-.7,1.3,4.3,2.1,3.1,3.2.9,3.1,1.1,2.6,1.6,3,1.1,3.6-.1,3.4.3,1.9,3,2,2.9,2.7,1.6,2.9,1.2h.3V158.3c-1.2,0-2,.1-2,.7,0,7.2-11-1.1-11-3.1,0,2.6-10.7-2.3-10.7-3.7,0-4.9-8.5-7.1-8.5-3.9,0-.4-9.6,2.8-9.6,1.6s-9-6.8-9-2.3c0,0-9.6.9-9.6-2.8,0,9.8-8.6,4.3-8.6,5s-7.9,3-7.9,5.1c0,7.4-13.1,4.9-13.1,2.7,0,2-10.3-6.6-10.3-6.3,0-3.1-10.6-2.3-10.6-3.3,0,.9-11.5-4.3-11.5,1,0,2.4-10.6,4-10.6,3.8,0,4.8-8.7,1.5-8.7,5.4,0-.6-11.2,3.4-11.2,2.6,0,5.5-9.5-3.1-9.5,1.6,0,1-9.5-10.9-9.5-4.9,0,0-9.6,8.1-9.6,3.8,0-.8-9.6-.6-9.6,1.5s-9.5-2.1-9.5.4c0-3.2-9.5-4-9.5-4.1,0-3.9-9.5-4.8-9.5,0,0-4.3-10.8-7.1-10.8-2.9s-9.4-8.6-9.4-3.4c0-4.4-10.7-6.8-10.7-4.1,0,8-11.9-8.3-11.9-6.6,0-1.8-9.6,14.1-9.6,8.7,0,2.9-10.3,7-10.3,3.1,0,1.7-9.3,10.1-9.3,8,0,.3-11.4,4.7-11.4,1S9.8,151.3,9.8,155.7s-11.6-.7-11.6.6c0-1.6-8.5-3.2-8.5-7,0-.4-.9.6-2,1.9V260c2.3-1.7,10.6-4.8,10.6-1.7s13.4.5,13.4.7c0,5.7,11.5-7.5,11.5-8s8.3,3.4,8.3,6.7,9.1-1.7,9.1-3c0,.9,1.1-11.8,1.1-10.8,0,5.9,10.1-10.4,10.1-4.5,0,2.8,10.2,5.6,10.2,1,0-2,7.8,4.3,7.8,5.6,0-4.7,7.3,5.7,7.3,5.3s9.6-3.9,9.6-1.6c0-2.8,8.7-.6,8.7,3.6,0-1.3,9.1-2.2,9.1-3.9,0,2.7,9.3,6,9.3,5.9s9.2-2.3,9.2-1.5,10-1.4,10-1.8c0,1.8,9.6,2.1,9.6,1.7,0-5,9,7.8,9,3,0-.1,6.7,9.6,6.7,10.1,0,4.2,10.1,3.3,10.1-1.2,0,.9,9.5-1.1,9.5-.4s9-5.1,9-.4c0-.3,13.1,4.1,13.1,3.5,0,2.8,11.9-2.1,11.9-1.7,0-1.4,11.5-8.1,11.5-7.8s11.8,1.1,11.8,1.5,10.4,1.9,10.4,1.6,9.7-3.4,9.7-2.2c0-.7,9.1-3.2,9.1-3.2s9.8,3.8,9.8-2.6c0,.7,9.9,4.1,9.9,1.7,0,1.6,10.3,2.8,10.3-.4,0,.7,10,3.7,10,1.9,0-.1,7.6,10.1,7.6,8.5,0,1.3,8.2.1,11-1.8v38.7c-1,.5-2.2,1.6-2.5.9s-4.3-.8-3.7.7c0-.1-2.7,3.4-2.9,3s-4-.5-4-.5-4.3-.5-3.7.7-3.8.3-3.8.5c-.7-1.6-2.8,3.9-3.2,3.2.4.8-4.1-1.7-4.1-1.8s-3.3,2.7-3.4,2.4c.7,1.7-4.1.4-3.6,1.6-.1-.4-3.7,0-3.8-.2s-3.1.8-4-1.2-4-.3-3.7.4-3.9,1.2-3.6,1.9-3.6-.2-3.8-.6-3.4.4-3.5.2-3.5-.1-3.6-.3-3.7.5-3.5,1-2.7,3.3-3.2,2-4,0-3.5,1-3.5,1.3-3.6,1-3.2,2.3-3.9.6c.3.7-2.5,3.5-2.9,2.6s-2.8,2.2-2.6,2.7c-.6-1.5-4.3-.6-4.1-.1s-3.5,1-3.3,1.3-2.9,2.1-2.5,2.8-3.6.8-3.5,1.1-2.7,2.5-2.8,2.2-3.8.4-3.4,1.3-3.6.6-3.3,1.4-.6.5-1.4.8l31.3,71.5,120.2-52.7-28.6-65.4Z" fill="#f89521" opacity="0.95" style="isolation: isolate"/>
      </g>
      <path d="M252.4,168.1c4.4-1,8.4-.7,12.5-.6a21.5,21.5,0,0,1,8.6,1.9,30,30,0,0,0,7.4,2.1,105.7,105.7,0,0,1,28.5,11.7,4.6,4.6,0,0,0,4.1.5l14.9-4.8c.8-.3,2-1.2,2.4.1s-.4,2.1-1.7,2.6l-12.6,4c-1.8.5-2.6,1-1.4,3s.6,4.8-1.2,6.9-6.5,6-9.9,8.7a105.9,105.9,0,0,0-16,16.1c-1.3,1.5-1.9,3.4-2.8,5.1s-1.5,3.4-2.2,5.1a38.6,38.6,0,0,0-1.9,5.4c-.4,1.7-1.5,2.7-3.4,1.7s-1.2,0-1.4.9c-1,3-2.9,3.6-5.5,1.6s-3.6-5.1-3.7-8.4a20.2,20.2,0,0,0-1-7.3c-.9-2.7.6-5,3.7-5.3s3.6-1.8,4.2-4c1.3-4.1,2.2-8.4,3.9-12.3a53.9,53.9,0,0,1,3-5.2c-.9-.5-1.5,0-2.1.1l-50.2,16c-1.7.6-1.8,1-.5,2.4a73.6,73.6,0,0,1,4.7,6.3c-1.2.3-1.8-.6-2.7-.8.3,3.8-1.8,1.4-3,1a2.7,2.7,0,0,0,0,.9c.1.8,2.1,1.6-.1,2.6-.5.2.1,2.4,1.3,3.3-3.3-.2-4.5-2.8-5.9-5.3-.9.4-.4,1.5-.9,1.9-2.8-2.5-1.8,2.2-3.9,1.4-.4-.4.2-1.4,0-2.2s.3-2.6-1.9-2.5-.2-1.4-.7-2.1c-1.3,1.4-.1,3-.2,4.7a4.9,4.9,0,0,1-2.3-4.3c0-1.7-.6-1.9-2.1-1.3l-18.3,5.7c-.9.4-2.4,1.7-2.9,0s1-2.2,2.2-2.6l19.1-6.1c2.1-.6,3.7-1.5,4.1-3.8a2.7,2.7,0,0,1,.8-1.7c2.5-2.3,1.3-4.1-.3-6.2a7.8,7.8,0,0,1,1.9-10.9l.6-.4c2.6-1.5,4.9-3.5,7.7-4.5a1.4,1.4,0,0,0,.9-.9c1-3.9,3.9-6.9,5.1-10.7s2.3-5.1,5.4-5.7a3,3,0,0,0,1.8-1.7,34.3,34.3,0,0,1,4.7-6.6,11.7,11.7,0,0,0,3.4-7.9c.6-5.3.7-10.6,1.8-15.8a5.1,5.1,0,0,0-.5-3.2,10.6,10.6,0,0,1-.9-2.5,1.9,1.9,0,0,1,1.3-2.4c1.1-.4,1.3.6,1.8,1.3s.4.9.7,1.3h.6c.4-.7.3-2.1,1.3-1.9s.5,1.6.4,2.5c-.4,4.9-1.9,9.8-.7,14.8.1.5.2,1.1.4,1.9a7.7,7.7,0,0,0,3.1-4.2c1.1-3.1,1.2-6.4,2.6-9.4.3-.8.6-2,1.6-1.9s1.3,1.1,1.8,1.7-.6,1.3-1,1.8-.7.8-.6,1.3.7-.1,1.1-.3,1.3-1.1,1.9-.4-.2,1.4-.5,2-2,1.8.1,2.6c.5.2,0,1-.2,1.6-1.3,3.7-4.7,5.9-6.6,9.2s-2.6,4.4-2.5,7.1S253.3,166,252.4,168.1Zm24.7,27.2v-.7c-2.8-.9-4.4-3.9-7.5-4.4a20.6,20.6,0,0,1-11.2-5.1,1.6,1.6,0,0,0-2.2-.3H256c-1.1.9-2.5,1.5-3.3,2.6-2.9,4.6-7.8,6.3-11.9,9.2a6.6,6.6,0,0,1-4.3,1.1c-2.8-.2-4.6,1.1-6.1,3.5s-2.6,5.3-5.4,6.6-1.8,1.9-1.2,3.3,1.8.6,2.7.2l46.1-14.7Zm4.3,19c2.1-.4,3.2-1.5,4.5-2.7,5.6-5.6,9.1-13.1,15.4-18.2.9-.8.5-1.2-.4-1.7a4.1,4.1,0,0,0-3.1-.2,37.1,37.1,0,0,1-4.7,1.6c-1.9.4-3.2,1-2.4,3.4s-.3,2.1-.9,3.1l-3.2,4.7A38.1,38.1,0,0,0,281.4,214.3Z" fill="#010101"/>
      <g>
        <path d="M275.1,305.5a1.2,1.2,0,0,1,1-1.4h.1a1.3,1.3,0,0,1,1.5,1.1h0a1.4,1.4,0,0,1-1.2,1.4h-.1a1.2,1.2,0,0,1-1.3-1.1Zm-8.2,0a1.2,1.2,0,0,1-.8-1.5c0-.1.1-.1.1-.2h0a1,1,0,0,1,1.3-.8h.3a1.3,1.3,0,0,1,.8,1.6h0a1.4,1.4,0,0,1-1.2.9h-.5Zm16.9-2.6a1.3,1.3,0,0,1,.3-1.8h0a1.3,1.3,0,0,1,1.8.3h0a1.3,1.3,0,0,1-.3,1.8h0l-.7.2h0A1.6,1.6,0,0,1,283.8,302.9ZM258.9,300a1.3,1.3,0,0,1,.1-1.8h0a1.3,1.3,0,0,1,1.8,0h.1a1.4,1.4,0,0,1-.2,1.8h0a1.1,1.1,0,0,1-.8.3h0A1.3,1.3,0,0,1,258.9,300Zm31.4-3.5a1.2,1.2,0,0,1-.6-1.7h0a1.4,1.4,0,0,1,1.8-.5h0a1.3,1.3,0,0,1,.5,1.7h0a1.2,1.2,0,0,1-1.1.7h-.6Zm-35.9-5.1a1.3,1.3,0,0,1,.9-1.6h0a1.4,1.4,0,0,1,1.6,1h0a1.1,1.1,0,0,1-.6,1.4h-.7A1.3,1.3,0,0,1,254.4,291.4Zm37.3-4.9h0a1.2,1.2,0,0,1,1.2-1.2h.1a1.2,1.2,0,0,1,1.3,1.1h0a1.3,1.3,0,0,1-1.3,1.3h0a1.3,1.3,0,0,1-1.3-1.3Zm-36.4-3.2a1.3,1.3,0,0,1-.9-1.6h0a1.2,1.2,0,0,1,1.2-1h.3a1.1,1.1,0,0,1,1,1.3v.2h0a1.4,1.4,0,0,1-1.3,1Zm34.4-5.1a1.3,1.3,0,0,1,.5-1.7h0a1.4,1.4,0,0,1,1.8.5h0a1.4,1.4,0,0,1-.5,1.8h-.7a1.1,1.1,0,0,1-1.1-.6ZM259,274.9a1.2,1.2,0,0,1-.2-1.7h.1a1.3,1.3,0,0,1,1.8-.1h0a1.3,1.3,0,0,1,.1,1.8h0a1.2,1.2,0,0,1-1,.5h0A.9.9,0,0,1,259,274.9Zm25.1-3a1.3,1.3,0,0,1-.4-1.8h0a1.3,1.3,0,0,1,1.8-.3h0a1.3,1.3,0,0,1,.4,1.8h0a1.4,1.4,0,0,1-1.1.6h0A.9.9,0,0,1,284.1,271.9Zm-18-2.6a1.2,1.2,0,0,1,.7-1.7h0a1.2,1.2,0,0,1,1.7.7h0a1.2,1.2,0,0,1-.7,1.7h-.5A1.4,1.4,0,0,1,266.1,269.3Zm10-.3a1.3,1.3,0,0,1-1.1-1.5h0a1.1,1.1,0,0,1,1.3-1.1h.1a1.3,1.3,0,0,1,1.2,1.4h0a1.3,1.3,0,0,1-1.3,1.2Z" fill="#f89521"/>
        <path d="M274.9,302.1a1,1,0,0,1,.8-1.2h.1a1,1,0,0,1,1.2.8h0a1,1,0,0,1-.8,1.2H276A1.2,1.2,0,0,1,274.9,302.1Zm-6.7-.1a1,1,0,0,1-.6-1.3h0a1.1,1.1,0,0,1,1.3-.7.1.1,0,0,0,.1.1h0a1,1,0,0,1,.6,1.3h0a1.2,1.2,0,0,1-1,.7h-.4Zm13.8-2.1a1.1,1.1,0,0,1,.3-1.5h0a1.1,1.1,0,0,1,1.5.3h0a1.1,1.1,0,0,1-.3,1.5h-.6a1.4,1.4,0,0,1-.9-.3Zm-20.3-2.4a1,1,0,0,1,0-1.4h.1a1.2,1.2,0,0,1,1.5.1h0a1.2,1.2,0,0,1-.1,1.5h0a.9.9,0,0,1-.7.3h0a.9.9,0,0,1-.8-.4Zm25.6-2.8a1.1,1.1,0,0,1-.4-1.5h0a.9.9,0,0,1,1.3-.4h.1a1.1,1.1,0,0,1,.5,1.4h0a1.1,1.1,0,0,1-1,.6h-.5ZM258,290.5a1.2,1.2,0,0,1,.7-1.3h0a1.1,1.1,0,0,1,1.3.8h0a1.2,1.2,0,0,1-.7,1.3H259A1,1,0,0,1,258,290.5Zm30.5-4h0a1.1,1.1,0,0,1,1.1-1.1h0a.9.9,0,0,1,1,1h0a1,1,0,0,1-.9,1.1h-.1a1.1,1.1,0,0,1-1.1-1.1Zm-29.8-2.6a1.2,1.2,0,0,1-.7-1.3h0a1,1,0,0,1,1.2-.8h0a1.1,1.1,0,0,1,.8,1.3h0a1,1,0,0,1-1,.8Zm28.1-4.1a1.2,1.2,0,0,1,.5-1.5h0a1,1,0,0,1,1.4.4h0a1.1,1.1,0,0,1-.3,1.4h-.6a1.3,1.3,0,0,1-1-.4ZM261.7,277a1,1,0,0,1-.1-1.4h0a1.1,1.1,0,0,1,1.4-.2h.1a1.1,1.1,0,0,1,.2,1.4h-.1a1.1,1.1,0,0,1-.8.3h0A.9.9,0,0,1,261.7,277Zm20.5-2.4a1.1,1.1,0,0,1-.2-1.5h0a1,1,0,0,1,1.4-.3h0a1.1,1.1,0,0,1,.3,1.5h0a1.1,1.1,0,0,1-.9.5h0Zm-14.7-2.2a1.2,1.2,0,0,1,.6-1.4h0a1.1,1.1,0,0,1,1.4.6h0a1.1,1.1,0,0,1-.6,1.4h-.4A1.1,1.1,0,0,1,267.5,272.4Zm8.3-.2a1.2,1.2,0,0,1-1-1.2h0a.9.9,0,0,1,1.1-.9h.1a.9.9,0,0,1,.9.9v.2h0a.9.9,0,0,1-1,1Z" fill="#f89521"/>
        <path d="M274.7,299.1c-.1-.4.3-.8.7-.9h.1a.7.7,0,0,1,.9.5v.2h0a.8.8,0,0,1-.6,1h-.2A1.2,1.2,0,0,1,274.7,299.1Zm-5.4,0h0a1,1,0,0,1-.5-1.1h0a.7.7,0,0,1,1-.5h.1a.7.7,0,0,1,.5,1h0a.9.9,0,0,1-.8.5Zm11.2-1.7a.8.8,0,0,1,.1-1.1.1.1,0,0,1,.1-.1h0a.8.8,0,0,1,1.1.1h.1a.8.8,0,0,1-.1,1.1.1.1,0,0,1-.1.1h-.5a.8.8,0,0,1-.7-.2Zm-16.5-2a.8.8,0,0,1,0-1.1.1.1,0,0,1,.1-.1h0a.8.8,0,0,1,1.1,0,.1.1,0,0,1,.1.1h0a.8.8,0,0,1,0,1.1.1.1,0,0,1-.1.1h0c-.1.2-.3.2-.5.2h0a.9.9,0,0,1-.7-.3Zm20.8-2.3a.7.7,0,0,1-.4-1h0a1,1,0,0,1,1.2-.4h0a1,1,0,0,1,.4,1.2h0a.9.9,0,0,1-.8.4h-.4ZM261,289.8a.9.9,0,0,1,.7-1.1h0a.9.9,0,0,1,1,.6h0a.9.9,0,0,1-.6,1.1h-.2A1,1,0,0,1,261,289.8Zm24.8-3.3h0a.9.9,0,0,1,.8-.9h0a.9.9,0,0,1,.9.9h0a.9.9,0,0,1-.9.9h0A.9.9,0,0,1,285.8,286.5Zm-24.2-2.1a.9.9,0,0,1-.6-1.1h0a.9.9,0,0,1,1.1-.6h0a.9.9,0,0,1,.6,1h0a1,1,0,0,1-.9.7Zm22.8-3.4a.9.9,0,0,1,.3-1.1h.1a.8.8,0,0,1,1.1.3h0a.7.7,0,0,1-.2,1.1h-.5a.9.9,0,0,1-.8-.4Zm-20.3-2.2a.8.8,0,0,1-.2-1.1h.1a.8.8,0,0,1,1.1-.1h.1a.8.8,0,0,1,.2,1.1.1.1,0,0,0-.1.1h0a.9.9,0,0,1-.7.3h0a.5.5,0,0,1-.5-.3Zm16.6-1.9h0a.8.8,0,0,1-.3-1.1h.1a1,1,0,0,1,1.2-.3h0a.8.8,0,0,1,.3,1.1h-.1a1,1,0,0,1-.7.4h-.5Zm-11.9-1.8a.8.8,0,0,1,.4-1.1h.1a.8.8,0,0,1,1.1.4h0a1,1,0,0,1-.5,1.1h-.3A.9.9,0,0,1,268.8,275.1Zm6.6-.2a.8.8,0,0,1-.7-1h0a.8.8,0,0,1,.9-.7h0a.9.9,0,0,1,.8.8h0a.9.9,0,0,1-.9.8Z" fill="#f89521"/>
      </g>
      <g>
        <path d="M209.9,29h1.9a.5.5,0,0,1,.5.3c1,1.1,1.9,2.3,2.8,3.4s.1.3,0,.5l-2.8,3.5-.6.2H208c-.1,0-.3.1-.4-.1s.1-.2.2-.3l2.6-3.2c.9-1.1.1-.4-.1-.6l-2.5-3.1c-.1-.1-.3-.2-.2-.4h2.3Z" fill="#010101"/>
        <path d="M216.2,29h1.9a.5.5,0,0,1,.5.3c1,1.1,1.9,2.3,2.8,3.4s.1.3,0,.5l-2.8,3.5-.6.2h-3.7c-.1,0-.3.1-.4-.1s.1-.2.2-.3l2.6-3.2c.9-1.1.1-.4-.1-.6l-2.5-3.1c-.1-.1-.3-.2-.2-.4h2.3Z" fill="#010101"/>
        <path d="M222.5,29h1.9a.5.5,0,0,1,.5.3c1,1.1,1.9,2.3,2.8,3.4s.1.3,0,.5l-2.8,3.5-.6.2h-3.7c-.1,0-.3.1-.4-.1s.1-.2.2-.3l2.6-3.2c.9-1.1.1-.4,0-.6l-2.6-3.1a.5.5,0,0,1-.2-.4h2.3Z" fill="#010101"/>
        <path d="M228.8,29h1.9a.5.5,0,0,1,.5.3c1,1.1,1.9,2.3,2.8,3.4s.2.3,0,.5l-2.8,3.5-.6.2h-3.7c-.1,0-.3.1-.4-.1s.1-.2.2-.3l2.6-3.2c.2-.1.2-.4,0-.6h0l-2.6-3.1a.5.5,0,0,1-.2-.4h2.3Z" fill="#010101"/>
        <path d="M235.1,29H237a.5.5,0,0,1,.5.3c1,1.1,1.9,2.3,2.8,3.4s.2.3,0,.5l-2.8,3.5-.6.2h-3.7c-.1,0-.3.1-.4-.1s.1-.2.2-.3l2.6-3.2c.2-.1.2-.4,0-.6h0L233,29.5a.5.5,0,0,1-.2-.4h2.3Z" fill="#010101"/>
        <path d="M241.4,29h1.9a.5.5,0,0,1,.5.3c1,1.1,1.9,2.3,2.8,3.4s.2.3,0,.5l-2.8,3.5-.6.2h-3.7c-.1,0-.3.1-.4-.1s.1-.2.2-.3l2.6-3.2c.2-.1.2-.4,0-.6h0l-2.6-3.1a.5.5,0,0,1-.2-.4h2.3Z" fill="#010101"/>
      </g>
      <g>
        <g>
          <path d="M37.8,18.7a1.5,1.5,0,0,1-.4,1.1l-5,4.9-5.2-3v-3a1.7,1.7,0,0,1,1.5-1.6,1.6,1.6,0,0,1,1.6,1.6h0v3.8l4.9-4.9a1.6,1.6,0,0,1,2.2,0,1.5,1.5,0,0,1,.4,1.1" fill="#231f20"/>
          <path d="M36.3,32.9h-.6l-.5-.3-4.9-4.9v3.8A1.7,1.7,0,0,1,28.7,33a1.5,1.5,0,0,1-1.5-1.5h0v-3l5.3-3,4.9,4.9a1.7,1.7,0,0,1-.2,2.3,3.2,3.2,0,0,1-.9.3" fill="#231f20"/>
          <path d="M32.2,24.9c-.1-.1-.1-.1-.1-.2h0L30.7,24l-3.5-2.1-3-1.7c-.2-.1-.4-.1-.5.1v9.3a.3.3,0,0,0,.3.3h.2l3-1.7,4.9-2.9h.1Zm-1.2.2v.2l-3.8,2.2-2.3,1.3c-.1.1-.3,0-.4-.1h0V21.5a.3.3,0,0,1,.3-.3c.1,0,.1,0,.1.1h0l2.3,1.3L31,24.8c.1.1.2.2.1.3Z" fill="#231f20"/>
          <path d="M30,25.1h-.1L27,26.9l-1.7,1H25V22.4l.2-.2h.1l1.7,1,2.9,1.7c.1,0,.1,0,.1.1h0" fill="#231f20"/>
        </g>
        <g>
          <path d="M63.5,24.8h-.1L59,22.5l-2.7-1.3c-.2-.1-.4,0-.4.2v7.2c0,.2.2.4.4.3L59,27.4l4.3-2.2c0-.1.1-.1.1-.2Zm-1,.2h-.2L59,26.9,57,28c-.2.1-.4,0-.4-.2V22.2l.3-.2H57l2,1.1,3.3,1.6.2.2c0,.1,0,.1-.1.1Z" fill="#231f20"/>
          <path d="M61.5,25c0,.1,0,.1-.1.1l-2.5,1.3-1.5.8a.2.2,0,0,1-.3,0h0V22.9l.2-.2h0l1.6.8,2.5,1.3h.1" fill="#231f20"/>
          <path d="M41,21.3h3.7c1.9,0,3.2,1,3.2,2.5s-1.3,2.6-3.1,2.6h-2v2.5H41.1Zm3.6,3.5c.9,0,1.5-.4,1.5-1s-.6-1.1-1.5-1.1H42.8v2.2Z" fill="#231f20"/>
          <path d="M55,27.4v1.4H49V21.4h1.8v6Z" fill="#231f20"/>
          <path d="M65.4,26l-3.3-4.8h2.1l2.1,3.3,2.2-3.4h2L67.3,26v2.7H65.5Z" fill="#231f20"/>
          <path d="M71.6,21.6h1v4.2l4.2-4.2h1.3L74.6,25l3.8,4H77.2L74,25.6l-1.3,1.3v2.2h-1Z" fill="#231f20"/>
          <path d="M78.9,25.3a4.3,4.3,0,0,1,8.5-.1,4,4,0,0,1-4.1,3.9h-.1A4.2,4.2,0,0,1,78.9,25.3Zm7.6-.1a3.2,3.2,0,0,0-3.4-3.1,3.3,3.3,0,0,0-3.3,3.2,3.4,3.4,0,0,0,3.4,3,3.2,3.2,0,0,0,3.3-3.1Z" fill="#231f20"/>
          <path d="M88.7,28l.6-.7a3.4,3.4,0,0,0,2.7,1c1.3,0,1.9-.6,1.9-1.3s-.8-1.1-2.2-1.4-2.8-.8-2.8-2.1,1.2-2.1,2.8-2.1a3.8,3.8,0,0,1,2.9,1l-.5.7a3.9,3.9,0,0,0-2.5-1,1.6,1.6,0,0,0-1.7,1.4c0,.7.8,1,2.2,1.3s2.8.8,2.8,2.1-1,2.2-2.9,2.2A4.9,4.9,0,0,1,88.7,28Z" fill="#231f20"/>
          <path d="M96.6,21.6h1l3.2,5.2,3-5.3h1V29h-.9V23.4l-3,5.2-3.2-5.2v5.7h-1Z" fill="#231f20"/>
          <path d="M106.6,25.3a4.1,4.1,0,0,1,4.2-3.9,4.2,4.2,0,0,1,4.3,3.8,4,4,0,0,1-4.1,3.9h-.1A4.2,4.2,0,0,1,106.6,25.3Zm7.6-.1a3.2,3.2,0,0,0-3.4-3.1,3.3,3.3,0,0,0-3.3,3.2,3.4,3.4,0,0,0,3.4,3,3.2,3.2,0,0,0,3.3-3.1Z" fill="#231f20"/>
          <path d="M116.4,28l.6-.7a3.4,3.4,0,0,0,2.7,1c1.3,0,2-.6,2-1.3s-.9-1.1-2.3-1.4-2.8-.8-2.8-2.1,1.2-2.1,2.8-2.1a3.8,3.8,0,0,1,2.9,1l-.5.7a3.9,3.9,0,0,0-2.5-1,1.6,1.6,0,0,0-1.7,1.4c0,.7.8,1,2.2,1.3s2.8.8,2.8,2.1-1,2.2-2.9,2.2A4.9,4.9,0,0,1,116.4,28Z" fill="#231f20"/>
        </g>
      </g>
      <rect x="14.9" y="43" width="231.8" height="66.5" fill="#f89521"/>
      <g>
        <polygon points="207.7 102.3 205.2 101 202.7 102.4 203.1 99.5 201 97.6 203.8 97.1 205.1 94.6 206.4 97.1 209.2 97.5 207.2 99.5 207.7 102.3" fill="#fff"/>
        <polygon points="217.3 102.3 214.8 101 212.3 102.4 212.7 99.5 210.6 97.6 213.4 97.1 214.6 94.6 215.9 97.1 218.8 97.5 216.8 99.5 217.3 102.3" fill="#fff"/>
        <polygon points="226.9 102.3 224.3 101 221.8 102.4 222.3 99.5 220.2 97.6 223 97.1 224.2 94.6 225.5 97.1 228.3 97.5 226.3 99.5 226.9 102.3" fill="#fff"/>
        <polygon points="236.4 102.3 233.9 101 231.4 102.4 231.8 99.5 229.8 97.6 232.6 97.1 233.8 94.6 235.1 97.1 237.9 97.5 235.9 99.5 236.4 102.3" fill="#fff"/>
      </g>
      <path d="M248.1,269.9a3.4,3.4,0,0,1-2.8-3.9,3.5,3.5,0,0,1,2.8-2.8,3.4,3.4,0,0,1,1.2,6.7A2.4,2.4,0,0,1,248.1,269.9Zm0-5.9a2.6,2.6,0,0,0-3.1,2,2.7,2.7,0,0,0,2.1,3.1h1a2.6,2.6,0,0,0,3.1-2,2.7,2.7,0,0,0-2.1-3.1A1.7,1.7,0,0,0,248.1,264Z" fill="#f89521"/>
      <path d="M8.5,40.2a3.4,3.4,0,0,1-2.8-3.9,3.5,3.5,0,0,1,2.8-2.8,3.4,3.4,0,0,1,1.2,6.7Zm0-5.9a2.6,2.6,0,0,0,0,5.2,2.6,2.6,0,0,0,2.6-2.6,2.5,2.5,0,0,0-2.4-2.6Z" fill="#f89521"/>
      <path d="M8.5,282.6a3.4,3.4,0,1,1,3.4-3.4h0A3.4,3.4,0,0,1,8.5,282.6Zm0-6a2.6,2.6,0,0,0,0,5.2h0a2.6,2.6,0,0,0,0-5.2Z" fill="#f89521"/>
      <path d="M170.8,156.1a3.4,3.4,0,1,1,3.4-3.4h0A3.4,3.4,0,0,1,170.8,156.1Zm0-6a2.6,2.6,0,1,0,2.6,2.6,2.6,2.6,0,0,0-2.6-2.6Z" fill="#f89521"/>
      <path d="M306.7,46.4a3.4,3.4,0,1,1,3.4-3.4h0A3.4,3.4,0,0,1,306.7,46.4Zm0-5.9a2.6,2.6,0,1,0,2.6,2.6h0A2.6,2.6,0,0,0,306.7,40.5Z" fill="#f89521"/>
    </g>
    <g>
      <rect x="14.9" y="206.1" width="151.8" height="10.4" fill="#fff"/>
      <rect x="14.9" y="184.5" width="140.4" height="11.95" fill="#231f20"/>
      <g>
        <path d="M20,168.4l-1.5-1.7a1,1,0,0,0-1.4,0l-1.5,1.7a3.1,3.1,0,0,0-.7,1.8v3.6a1,1,0,0,0,1,1h3.8a1,1,0,0,0,1.1-1v-3.6A3.3,3.3,0,0,0,20,168.4Zm-2.2.9a1.1,1.1,0,1,1,1.1-1.1A1.1,1.1,0,0,1,17.8,169.3Z" fill="#231f20"/>
        <rect x="18.8" y="164.3" width="0.4" height="4.21" rx="0.2" transform="translate(73.4 8) rotate(25.5)" fill="#231f20"/>
      </g>
      <g>
        <polygon points="115.1 230.5 113.6 232 113.9 234.2 112 233.2 110.1 234.2 110.4 232 108.9 230.5 111 230.2 112 228.2 113 230.2 115.1 230.5" fill="#231f20"/>
        <rect x="14.9" y="226.1" width="89.3" height="10.4" fill="#231f20"/>
      </g>
    </g>
    <path d="M25.8,283.2a1.7,1.7,0,0,0,1.2-.5,2.1,2.1,0,0,0,.5-1.3,2.1,2.1,0,0,0-.5-1.2,1.7,1.7,0,0,0-2.4,0,1.6,1.6,0,0,0-.5,1.2,1.7,1.7,0,0,0,1.7,1.8Zm0,8.6a28.5,28.5,0,0,1-5.2-5.5,8,8,0,0,1-1.7-4.7,6.5,6.5,0,0,1,2.1-5.1,6.8,6.8,0,0,1,9.6,0,6.5,6.5,0,0,1,2.1,5.1,8.7,8.7,0,0,1-1.7,4.7A32,32,0,0,1,25.8,291.8Z" fill="#231f20"/>
    <polygon points="31.5 306.8 30.3 308 30.6 309.7 29 308.9 27.5 309.7 27.8 308 26.5 306.8 28.2 306.6 29 305 29.8 306.6 31.5 306.8" fill="#231f20"/>
    <polygon points="31.5 322.5 30.3 323.7 30.6 325.5 29 324.7 27.5 325.5 27.8 323.8 26.5 322.5 28.2 322.3 29 320.7 29.8 322.3 31.5 322.5" fill="#231f20"/>
  </g>
</svg>
