<svg id="e487440e-9e99-41c6-832d-6bf968ea8abf" data-name="a099f56f-21b7-4961-954a-a1fe3553f2ef" xmlns="http://www.w3.org/2000/svg" xmlns:xlink="http://www.w3.org/1999/xlink" width="335" height="335" viewBox="0 0 335 335">
  <defs>
    <radialGradient id="fb7c2ddd-4289-4c7a-906a-82ab4982dba9" cx="168.12" cy="167.75" r="257.18" gradientTransform="matrix(0.8, 0, 0, -0.8, 33, 301.7)" gradientUnits="userSpaceOnUse">
      <stop offset="0" stop-color="#0b2033"/>
      <stop offset="1" stop-color="#0f171b"/>
    </radialGradient>
  </defs>
  <g>
    <g>
      <rect width="335" height="335" fill="url(#fb7c2ddd-4289-4c7a-906a-82ab4982dba9)"/>
      <rect y="188" width="335" height="146.99" fill="#fff"/>
      <g>
        <g>
          <path d="M29.3,17.2a1.2,1.2,0,0,1-.4.8l-3.5,3.6-3.8-2.2V17.2a1.1,1.1,0,0,1,2.2,0h0v2.7l3.5-3.5a1.2,1.2,0,0,1,1.6,0,.9.9,0,0,1,.4.8" fill="#fff"/>
          <path d="M28.1,27.5h-.4l-.4-.2-3.5-3.5v2.7a1.1,1.1,0,0,1-2.2,0V24.2L25.4,22l3.5,3.6a1.1,1.1,0,0,1,0,1.6,1.1,1.1,0,0,1-.8.3" fill="#fff"/>
          <path d="M25.2,21.7h-.1l-1-.6-2.5-1.5-2.2-1.2c-.1-.1-.2,0-.3.1h0c-.1,0-.1,0-.1.1h0v6.6c0,.1.1.2.3.2h.1L21.6,24l3.5-2h0c.1,0,.1,0,.1-.1h0Zm-.8.1c-.1.1-.1.1-.1.2l-2.8,1.5-1.6,1c-.1.1-.2,0-.3-.1h0V19.2c0-.1,0-.2.2-.2s0,.1.1.1h0l1.6.9,2.8,1.6v.2Z" fill="#fff"/>
          <path d="M23.6,21.8h-.1l-2,1.2-1.3.7H20v-4h.1l1.3.8,2,1.2c.1,0,.1,0,.1.1h0" fill="#fff"/>
        </g>
        <g>
          <path d="M47.8,21.7v-.2L44.6,20l-1.9-1c-.2-.1-.4,0-.4.2v5.2c0,.1.2.2.3.2l1.9-1.1,3.1-1.6h.1Zm-.7.1H47L44.6,23l-1.5.8c-.1.1-.2,0-.3-.1h0v-4h.3l1.5.8L47,21.6h.1Z" fill="#fff"/>
          <path d="M46.4,21.8h-.1l-1.8,1-1.1.6h-.2V20.2h.2l1.1.6,1.8.9h.1" fill="#fff"/>
          <path d="M31.5,19.1h2.8a2.2,2.2,0,0,1,2.3,1.8,2.1,2.1,0,0,1-2.3,1.9H32.9v1.8H31.6Zm2.7,2.5c.6,0,1-.3,1-.7s-.4-.8-1.1-.8H32.9v1.6Z" fill="#fff"/>
          <path d="M41.7,23.5v1H37.4V19.2h1.3v4.4Z" fill="#fff"/>
          <path d="M49.2,22.5,46.8,19h1.5l1.6,2.4L51.4,19h1.5l-2.4,3.5v1.9H49.3Z" fill="#fff"/>
          <path d="M53.7,19.3h.7v3l3.1-3h.9l-2.5,2.5,2.7,2.9h-.9l-2.3-2.5-1,.9v1.6h-.7Z" fill="#fff"/>
          <path d="M58.9,22A3.2,3.2,0,0,1,62,19.1a3,3,0,0,1,3.1,2.8,2.9,2.9,0,0,1-3,2.8h0A3.1,3.1,0,0,1,58.9,22Zm5.5-.1A2.3,2.3,0,0,0,62,19.7h0A2.4,2.4,0,0,0,59.6,22a2.4,2.4,0,0,0,2.5,2.2,2.3,2.3,0,0,0,2.3-2.3Z" fill="#fff"/>
          <path d="M66,23.9l.4-.5a3,3,0,0,0,2,.8c1,0,1.4-.5,1.4-1s-.6-.8-1.6-1-2-.6-2-1.5.8-1.5,2-1.6a3.2,3.2,0,0,1,2.1.8l-.4.5a2.2,2.2,0,0,0-1.7-.7c-.8,0-1.3.5-1.3,1s.6.7,1.6.9,2,.6,2,1.6-.7,1.5-2.1,1.5A3.1,3.1,0,0,1,66,23.9Z" fill="#fff"/>
          <path d="M71.8,19.3h.7l2.3,3.8L77,19.3h.6v5.4H77V20.6l-2.2,3.8-2.3-3.8v4.1h-.7Z" fill="#fff"/>
          <path d="M79,22c-.1-1.5,1.4-2.8,3-2.9a3.2,3.2,0,0,1,3.2,2.8,3,3,0,0,1-3.1,2.8A2.9,2.9,0,0,1,79,22Zm5.5-.1A2.5,2.5,0,0,0,82,19.7,2.3,2.3,0,0,0,79.7,22h0a2.3,2.3,0,0,0,2.4,2.2h0A2.4,2.4,0,0,0,84.5,21.9Z" fill="#fff"/>
          <path d="M86,23.9l.5-.5a2.8,2.8,0,0,0,2,.8c.9,0,1.4-.5,1.4-1s-.6-.8-1.7-1-2-.6-2-1.5.9-1.5,2-1.6a3.5,3.5,0,0,1,2.2.8l-.5.5a2.2,2.2,0,0,0-1.7-.7c-.8,0-1.3.5-1.3,1s.6.7,1.6.9,2,.6,2,1.6-.7,1.5-2.1,1.5A3.1,3.1,0,0,1,86,23.9Z" fill="#fff"/>
        </g>
      </g>
      <g>
        <polygon points="252.9 238.9 188.9 238.9 215.1 141.5 279.1 141.5 252.9 238.9" fill="#0b2033"/>
        <polygon points="253.9 237.9 189.9 237.9 216.1 140.5 280.1 140.5 253.9 237.9" fill="#e13300"/>
        <polygon points="287.2 263.5 186.9 263.5 227.9 118.9 328.2 118.9 287.2 263.5" fill="#0b2033"/>
        <polygon points="285 261.5 189.9 261.5 228.8 116.9 323.8 116.9 285 261.5" fill="#934600"/>
        <path d="M285.8,262.5H188.6l.3-1.3L228,115.9h97.1Zm-94.6-2h93l38.3-142.6h-93Z" fill="#fff"/>
      </g>
      <g>
        <rect y="296.4" width="335" height="1" fill="#e13300"/>
        <path d="M290.3,313.8H221.7a3.5,3.5,0,0,1-3.5-3.5V290.7a3.5,3.5,0,0,1,3.5-3.5l68.6,4.6a3.5,3.5,0,0,1,3.6,3.4h0v15A3.7,3.7,0,0,1,290.3,313.8Z" fill="#e13300"/>
        <path d="M236.7,295.3h31.2a1.5,1.5,0,0,0,1.6-1.4h0v-7.5a1.5,1.5,0,0,0-1.6-1.4h0l-31.2,1.8a1.5,1.5,0,0,0-1.6,1.3v5.8a1.5,1.5,0,0,0,1.6,1.4Z" fill="#0b2033"/>
      </g>
      <g opacity="0.05">
        <path d="M251.4,38.7c4.7-1,9-.7,13.3-.6a22.3,22.3,0,0,1,9.1,2,35.8,35.8,0,0,0,7.9,2.3,111.8,111.8,0,0,1,30.4,12.4,5,5,0,0,0,4.3.5l15.9-5.1c.8-.2,2.1-1.2,2.6.1s-.5,2.3-1.9,2.8l-13.4,4.2c-1.8.6-2.7,1.1-1.4,3.2s.6,5.2-1.3,7.3c-3.1,3.6-6.9,6.5-10.6,9.4a105.8,105.8,0,0,0-17,17.1c-1.4,1.5-2.1,3.6-2.9,5.4s-1.7,3.6-2.5,5.5-1.4,3.8-1.9,5.7-1.7,2.8-3.6,1.8-1.4,0-1.6.9c-1,3.2-3.1,3.9-5.8,1.8a11.6,11.6,0,0,1-4-9,22.4,22.4,0,0,0-1-7.7c-.9-3,.6-5.4,3.9-5.7s3.8-1.9,4.5-4.3c1.4-4.3,2.3-8.9,4.2-13.1a36,36,0,0,1,3.1-5.4,1.8,1.8,0,0,0-2.1.1l-53.5,17c-1.9.6-2,1.1-.6,2.5a61,61,0,0,1,5.1,6.7c-1.3.3-2-.6-3-.9.4,4.1-1.8,1.6-3.2,1.1a3.4,3.4,0,0,0,.1,1c.1.9,2.2,1.7-.2,2.8-.4.2.1,2.5,1.5,3.5-3.5-.3-4.9-3-6.3-5.6-1,.4-.4,1.5-1,1.9-2.9-2.6-1.9,2.4-4.2,1.6-.4-.5.3-1.5.1-2.4s.3-2.8-2-2.7-.3-1.5-.8-2.2c-1.4,1.5-.1,3.2-.2,5a4.9,4.9,0,0,1-2.4-4.5c0-1.9-.7-2.1-2.3-1.5l-19.5,6.1c-1,.4-2.5,1.8-3.1,0s1.1-2.3,2.4-2.8c6.8-2.1,13.5-4.4,20.3-6.4,2.3-.7,3.9-1.7,4.4-4.1a3,3,0,0,1,.8-1.8c2.7-2.5,1.5-4.3-.3-6.7a8.3,8.3,0,0,1,2-11.5l.7-.4c2.8-1.7,5.2-3.7,8.2-4.8a2.2,2.2,0,0,0,1-.9c1-4.2,4-7.4,5.3-11.5s2.5-5.4,5.8-6a2.9,2.9,0,0,0,1.9-1.8,39.4,39.4,0,0,1,5-7.1,12.4,12.4,0,0,0,3.6-8.3c.7-5.7.8-11.3,2-16.9a6.6,6.6,0,0,0-.6-3.4c-.4-.9-.7-1.8-1-2.7A2.1,2.1,0,0,1,247.1.1c1.2-.4,1.4.7,1.8,1.3s.5,1,.8,1.4h.6c.5-.7.4-2.1,1.5-1.9s.4,1.6.3,2.6c-.3,5.2-2,10.4-.6,15.7.1.6.2,1.2.4,2.1a9.3,9.3,0,0,0,3.3-4.5c1.1-3.3,1.2-6.8,2.7-10,.4-.9.7-2.1,1.7-2.1s1.4,1.2,1.9,1.9-.6,1.4-1,1.9-.8.8-.7,1.4.8-.1,1.2-.3,1.4-1.2,2-.5-.2,1.5-.5,2.2-2.1,1.9.1,2.8c.5.2-.1,1.1-.2,1.6-1.4,4-5,6.4-7,9.9s-2.9,4.6-2.7,7.5S252.3,36.5,251.4,38.7Zm26.3,28.9V67c-3-1-4.7-4.2-8-4.8a21.9,21.9,0,0,1-11.9-5.3,1.7,1.7,0,0,0-2.2-.5.1.1,0,0,1-.1.1.2.2,0,0,0-.2.2c-1.2.8-2.8,1.5-3.5,2.7-3.2,4.8-8.4,6.7-12.8,9.8a7.1,7.1,0,0,1-4.5,1.2c-3-.2-4.9,1.1-6.5,3.7s-2.8,5.6-5.8,7-1.8,2-1.3,3.5,2,.6,3,.3l49-15.7Zm4.6,20.3A8.4,8.4,0,0,0,287,85c6.1-6,9.8-14,16.5-19.4.9-.8.5-1.3-.4-1.7a3.8,3.8,0,0,0-3.3-.2,49.9,49.9,0,0,1-5.1,1.6c-2,.5-3.4,1.1-2.5,3.7s-.4,2.2-1,3.2l-3.4,5.1A41.1,41.1,0,0,0,282.3,87.9Z" fill="#fff"/>
      </g>
    </g>
    <path d="M13.8,135.8l.9-.2a3.3,3.3,0,0,0,2.4-2.9c.1-.6.5-.9,1-.5l4.2,2.8c.6.5.6,1.1-.1,1.5l-4.1,2.8c-.5.3-.9.2-.9-.3A3.6,3.6,0,0,0,13.8,135.8Z" fill="#fff100"/>
    <path d="M13.8,160.3l.9-.3a3.2,3.2,0,0,0,2.4-2.9c.1-.6.5-.8,1-.5l4.2,2.9c.6.5.6,1.1-.1,1.5l-4.1,2.8c-.5.3-.9.2-.9-.4A3.6,3.6,0,0,0,13.8,160.3Z" fill="#fff100"/>
    <g>
      <polygon points="170.9 184.9 0 184.9 0 178.4 174 178.4 170.9 184.9" fill="#fff100"/>
      <polygon points="155.5 194.4 0 194.4 0 187.8 158.4 187.8 155.5 194.4" fill="#e13300"/>
      <polygon points="138.4 203.8 0 203.8 0 197.2 140.9 197.2 138.4 203.8" fill="#0b2033"/>
    </g>
    <g>
      <g>
        <path d="M14.2,231.9l1-.9,1.4-1.2a14.4,14.4,0,0,1,2.5-1.8l1.8-1.1,2.7-1.2,1.5-.5h.1l-.4.3-1.2.9-.7.7c-.5.6-1.1,1.1-1.5,1.7L19.8,231a15.9,15.9,0,0,0-1.3,2.2l-.5.9H14.2Z" fill="#0b2033"/>
        <path d="M19.5,234.1l.7-1.3,1-1.7,1.3-1.7,1.1-1.2a21.6,21.6,0,0,1,3.3-2.7H27c.1.1,0,.1,0,.2a31.2,31.2,0,0,0-1.8,4.2,29.1,29.1,0,0,0-1.2,3.9l-.2.4Z" fill="#0b2033"/>
        <path d="M14.2,226.6l1.1-.4,1.6-.5,2.3-.4,1.8-.2h2l-2.9,1.1-2.8,1.6-1.8,1.4-1.2,1.1h-.1Z" fill="#0b2033"/>
      </g>
      <path d="M17.8,220.6a2.8,2.8,0,0,1-.4,1.3c-.6,1.1-1.3,2.1-2,3.2h-.2c-.7-1.1-1.4-2.1-2-3.2a2.4,2.4,0,0,1,.1-2.7,2.1,2.1,0,0,1,2.5-.9,2.2,2.2,0,0,1,1.9,2A.4.4,0,0,0,17.8,220.6Zm-2.5,1.1a.9.9,0,0,0,1-1h0a.9.9,0,0,0-1-1,1.1,1.1,0,0,0-1.1,1,1.1,1.1,0,0,0,1.1,1.1Z" fill="#0b2033"/>
    </g>
    <path d="M8.1,311.4l1.1-.3a4.3,4.3,0,0,0,3-3.6c.1-.7.6-1,1.2-.6l5.2,3.6c.8.5.7,1.3-.1,1.8l-5.1,3.4c-.6.5-1.1.3-1.2-.4C11.9,313,10.5,311.8,8.1,311.4Z" fill="#e13300"/>
    <path d="M151.1,277.5l1.1-.2a4.3,4.3,0,0,0,2.8-3.5.7.7,0,0,1,.7-.7l.5.2,4.9,3.4c.8.5.7,1.2-.1,1.7l-4.8,3.3c-.6.4-1,.3-1.1-.4A4.5,4.5,0,0,0,151.1,277.5Z" fill="#e13300"/>
    <path d="M97.3,311.4l1-.3a4.3,4.3,0,0,0,3.1-3.6c-.1-.4.2-.7.6-.8s.4,0,.6.2l5.1,3.6c.9.5.8,1.3-.1,1.8l-5,3.4c-.6.5-1.1.3-1.2-.4A4.6,4.6,0,0,0,97.3,311.4Z" fill="#e13300"/>
    <g>
      <polygon points="296.3 109.3 286.8 104.5 286.8 104.5 296.3 99.8 295 104.5 296.3 109.3" fill="#fff"/>
      <polygon points="308.8 109.3 299.3 104.5 299.3 104.5 308.8 99.8 307.5 104.5 308.8 109.3" fill="#fff"/>
      <polygon points="321.3 109.3 311.8 104.5 311.8 104.5 321.3 99.8 320 104.5 321.3 109.3" fill="#fff"/>
    </g>
    <g>
      <polygon points="248.3 328.4 238.8 323.6 238.8 323.6 248.3 318.9 247 323.6 248.3 328.4" fill="#e13300"/>
      <polygon points="260.8 328.4 251.3 323.6 251.3 323.6 260.8 318.9 259.5 323.6 260.8 328.4" fill="#e13300"/>
      <polygon points="273.3 328.4 263.8 323.6 263.8 323.6 273.3 318.9 272 323.6 273.3 328.4" fill="#e13300"/>
    </g>
    <g>
      <rect x="209.8" width="118.4" height="7.97" fill="#e13300"/>
      <rect x="209.8" width="118.4" height="3.98" fill="#fff100"/>
    </g>
  </g>
</svg>
