<svg xmlns="http://www.w3.org/2000/svg" width="335" height="335" data-name="Layer 1"><defs><radialGradient id="a" cx="152.1" cy="67.1" r="33.9" data-name="Autumn Yellow Radial" fx="152.1" fy="67.1" gradientUnits="userSpaceOnUse"><stop offset="0" stop-color="#fcf2dd"/><stop offset="0" stop-color="#fdebc0"/><stop offset="0" stop-color="#ffe089"/><stop offset=".6" stop-color="#ffcc02"/><stop offset=".7" stop-color="#f6c30c"/><stop offset="1" stop-color="#e2b024"/></radialGradient><linearGradient id="b" x1="-26.7" x2="343.4" y1="356.1" y2="-3.4" gradientUnits="userSpaceOnUse"><stop offset="0" stop-color="#166491"/><stop offset=".5" stop-color="#29abe2"/><stop offset="1" stop-color="#2d6190"/></linearGradient></defs><path fill="#29abe2" d="M0 0h335v335H0z"/><path d="M0 140.1h335V335H0z"/><circle cx="152.1" cy="67.1" r="33.9" fill="url(#a)"/><path fill="#629279" d="M335 259.8 0 252.4v-60.2l98-78.5a40 40 0 0 0 17.9-4.6c2.4-1.3 4.2-2.7 14.7-11.6l9.8-8.5c3.4-.5 8.5-1.6 14.1-4.1 9.4-4.2 14.7-9.6 24.4-19.1 5.1-5 13.1-12.8 23.6-22.6L218 59.5a175.8 175.8 0 0 0 24.6 22.8c3.3 2.2 2.8 1.6 16.6 9.8l15.7 9.4 15.3-3.2 35.8 34 8.7 1.4v126.1Z"/><path fill="#1f4400" d="M335 271.6 0 274.3V130.6l10.2-2.2 12.1-14.3c1.6.3 4.1.9 7 1.8 7.7 2.3 10.5 4.2 16.4 6.6 8.8 3.6 13.3 3.7 27.6 8.9 1.8.6 4 1.5 6.2 3.5 3 2.8 3.7 5.6 6.1 11.2 2.4 5.5 3.6 8.3 5.2 10.5 3 4 5.9 4.9 15.6 10.3 8.5 4.7 6.8 4.4 12.9 7.7 2.7 1.4 13.2 7.1 28.7 12.2 9.3 3.1 14 4.7 20.8 5.7 11.1 1.6 20.2 2.9 29.4-1.3 3.8-1.8 6.9-4.1 15.3-7.8a27 27 0 0 1 9.4-2.9c7-.4 12.6 3.9 15.2 6.3.6-.2 1.5-.5 2.6-.5 2.8 0 4.1 1.6 6.1 1.9 2.7.5 4.7-1.6 6.7-2.7 6.5-3.9 12.6 1.2 19.9 0 5.7-.9 5.9-4.6 17.3-16 5.6-5.6 14.8-14.7 27.4-21.3a86.5 86.5 0 0 1 16.8-6.5v129.9Z"/><path fill="#83aabb" d="m298.7 120-5.9 1.8c-2.4.7-4.8 1.5-7.3 2.1-.6.2-.9.5-1.1 1.1l-3.2 9-.3.6-2.5-1.3-9.6-5.1c-.7-.4-1-.2-1.5.3l-10.9 11.9-.4.3c0-.6-.2-1.2-.3-1.7l-.5-8.7-.6-8.2c0-.4 0-.8.2-1.2l3.7-9.1a2 2 0 0 0 0-1.7l-4-10.9-.3-1 3.7 2.2c4.9 2.9 9.7 5.9 14.7 8.7.7.4 1.7.2 2.6.1l6-.6a60 60 0 0 1 4.2-.5c.4 0 .9.1 1.2.4l10.1 9.7 1.9 1.8ZM171.4 104.5l-2.9 2.4-15.3 13.5-11.1 9.6 1.5-2.3 9.2-13.9c3.2-4.9 6.4-10 9.7-14.8 4.7-6.7 9.8-13.1 15.2-19.2l12.1-13.5 10-10.5 1 5a59.5 59.5 0 0 0 8.5 20.1c1.1 1.7 1.1 1.7-.1 3.4l-3.9 5.1h.8l10.5.1c.5 0 .9.2 1.1.6l4.5 8.4c.3.5.1.7-.3 1l-6.4 4.1-.7.5h4c1.8 0 3.5-.2 5.3-.3.2 0 .5 0 .6.2l6.2 10.1-4 1.4-3 1c-.5.2-.7.4-.7.9l.5 7.6.3 6.7-.1.3-.8-.6-16.5-11.7c-.5-.3-.7-.7-.8-1.3l-1.3-8.8-.2-1.5-6 4.3-3.2-7.1-.3.8v4.5c0 1.1 0 2.3-.2 3.4-.3.9-1 1.7-1.6 2.5l-12.9 16-.6.8-2.4-3.5-7-10.5c-.2-.3-.2-.7-.2-1.1l1.5-12.7v-1.2l.1-.2v.2ZM85.9 148.2l-2.9-7.5 3.1-3.3 5.6-5.3c3.6-3.4 7.3-6.8 10.8-10.3 1-1 2.1-1.6 3.5-1.9 10.2-2.4 19.3-7 27.6-13.4 1.5-1.1 2.8-2.3 4.2-3.5l.5-.2c-7.6 13.2-16 25.8-27.4 36.1h-.3l-1.2-6.3-.9.5c-5.1 3.5-10.1 7.1-15.3 10.5-2.4 1.6-5 3-7.5 4.5Z"/><path fill="#456e08" d="M59.6 219.6Zm46.2-2.2h-.2l.1 1.3h.5l-.5-1.3Zm2.3 0h-.2l-.4 1.4h.6v-1.4Zm.6 41v3.3h.2l.8-3.3h-.9Zm1.8-41.6c-.4.6-.8 1.3-1 2h.8l.2-2Zm3.4 0 .1 2h.9l-1-2Zm2.3-.3-.4 1.9v.5h.8c-.2-.8-.1-1.6-.4-2.3Zm2.5 2.1v.2h.2l-.1-.2Zm.7-1.3h-.2l.3 1.4h.7l-.8-1.5Zm4.1 38.6Zm5.5-.7Z"/><path fill="#456e08" d="M329.6 186.9c-2 2.6-4.3 5-6.6 7.2-1.4 1.3-2.4 3-3.5 4.5a8.7 8.7 0 0 1-4.1 3.5c2.1 2.4 4.9 2.6 7.9 2.5-.8 1.9-2.4 2.7-4 3.6 1 2 3 2.7 4.8 4a8 8 0 0 1-5.9-.3c-1.8-.7-3.2-2-4.6-3.3.1 1.5.6 2.8 1.5 4a28.8 28.8 0 0 0 8.5 6.2h-55.1c0 .1 0 .1 0 0-1.9-.2-3.9-.4-5.7-.8l-6-1.8c-3.7-.9-7.4-.8-11.1-.5-.6 0-1-.2-1.1-.7 1.1 0 2.2.6 3.4 0-1-.5-2.2-.7-2.8-1.9l1.5.3c-.8-1.4-2.4-2-2.5-3.6l2.3-.1c-1-1-2.5-1.3-2.8-2.7l2.6.7.2-.4-1.3-.8v-.4l1.1-.6c-.6-.3-1.2-.3-1.6-.5-.4-.2-.7-.7-1.1-1l.9-.7-1.2-.6c.6-.5.5-.9 0-1.2-.4-.2-.5-.6-.4-1.1l-.3-1.2-.6-1.2c-.2.4-.3 1.2-.7 1.6-.5.5-.8.8-.3 1.4l-.9.9.7.7-1.5.9c.4.2.6.2.7.4.1 0 .3.2.3.4l-.3.4c-.9.4-1.8.4-2.7 0l.7-.5c-3.4-2.4-3.9-3.1-4.1-4.8 1.2 1.4 2.6 2.2 4.4 1.7l-1.9-1.6 1.5-1.7-1-.3c-1.1 0-1.9-.5-2.5-1.5-.4-.7-.3-1.1.5-1.3l.9-.3-2.2-1.2c1.1-.8 1.1-1 .1-1.8l-.4-.3c-.1-.3-.3-.7-.2-1 .3-.7.2-1.4-.2-1.9-.5-.8-.9-1.5-.9-2.5h-.2c-.1 1.1-.2 2.3-1.2 3.1-.9.7-.8.8 0 1.5v.2c-.4.4-1 .7-1.2 1.2-.1.4.4.9.7 1.4-.5.5-1.6.5-1.9 1.6l1.7.8c-.8.8-1.8 1.3-2.7 1.2-1 0-2-.6-3-1l2 3.1-1.5-.2c.7 2 2.5.8 3.8 1.4-.8 1.1-1.6 1.9-2.9 2.2l-.4.2-.7.6 2.4 1-.3.8 1.7.3-1.2 1.5 2.9 3.6.5.1c.4.1 1 .2 1.1.5.4.9 1.1.9 2 1a2 2 0 0 1 1.5.9c.3.8.6 1.7-.2 2.6-.5.5-.9 1.2-1 1.8l-.2 1.8h-1.3v-1.7c0-1.1-.4-1.5-1.5-1.4l-.5-.2.4-.4 1-.5-2.2-1.7-.4-.5-.7-.6c-.7 1.7-2 2.7-3.7 3.4-.2 0-.5 0-.7-.3l-1-1.3 2.3.5.1-.3a25 25 0 0 0-1.6-1.7l3.2-1.1-.4-.4c-1.2-.8-2.5-1.4-3.6-2.3l-3.1-2.6-.7-.4-.2.7a46 46 0 0 1-.2 3.8v.8c-.2 1.3-1.2 2.2-2 3.1-.2.2-.4.7-.3.9a65 65 0 0 1 1.1 4.2h-17.6l.2-.7c.3-.9 0-1-.7-1.2h-.6l-1.4.5h-.9c.1.7.3 1.1.9 1.4h-8l-.2-.9h-.2v.9h-1.8l-.2-1.6h-.2l-.2 1.7-.2 1.7-.8-1.7-.8-1.7h-.2l.3 1.6.4 2h-.2l-1-2.1h-.2l.5 2.4h-.2l-.8-2.5-.6-1.8h-.2v2h-.3v-.3l-.9-2.4-.8 2.4-.4 1.3-.2-1.3-.3-2h-.2l-.1 2-.1 1.4h-.1l-.3-1.4-.2-1.2h-.1l-.1 1.2c0 .5 0 1.1-.2 1.7l-.4-1.7-.1-.6h-.2v2.1h-.2l-.5-1.6-.2-.9.3-2.7-.9 1.9-.5.8-.4.9h-13.5v-.1c-.4-.5-1.1-.9-1.3-1.5-.5-1.2-1.1-1.7-2.4-1.6-.5 0-.9-.2-.7-.8v-1.4h-.1l-.6 1.2c-.5 1.4-.8 2.8-1 4.2h-13.9l-.5-2.6c0-1.5 0-3 .2-4.6 0-.4.3-1 .2-1.2-.4-.6 0-1.1 0-1.7l.2-.8-3 .7-.7 5.9-.2.4-.5 3.9h-1.8l.7-6.2-.9-1.2c.5 1.7-.1 3.3-.8 4.9v-2.2h-.2l-.5 1.3h-.2l-.1-1.9h-.1l-.8 2.8v-3.5h-.3l-.7 2.8c-.9-1.9.4-3.3.6-5.1l-1.8 2.3-1.2 3.6h-.3l.5-5.3-1.4 2.9-.7-3.2h-.2l-.3 5h-.3l-.4-3.1h-.1l-.5 2.4-.4-3h-.2l-.4 2.8-1.2-2.5-.3 3.4h-.1l-1-3.2c-.2 2 .1 4-.4 6.2l-.2.7-.4-.7h-.7l.2.7-.3.1-.6-.8h-.2l-.3 1-.8-.9.1 1.4c-.7-.4-.9-.9-1.1-1.4h-.8v1.8l-.9-1.8h-.9l.2 2.5h-.5l-.3-1.7h-.2l-.4 2.3-.5-2.5h-.2l-.4 2.8-.7-3.3h-.2l-.2 3c-.7-1-.6-2-.5-3h-.8c-.5 1.3-.7 2.7-1 4.1-.4-1.3-.4-2.7-.4-4.1h-.6l-.5 1.9-.7-1.9h-.5c0 1.2.2 2.3.3 3.5h-.3l-.7-2.8-.5 1h-.2l-.6-1.6-.1 1.1-2.1-1.2c-.2 0-.3-.2-.4-.3-.3-.2-.3-.7-.4-1l.9-.2c.8 0 1.6.2 2.4.1.5 0 .9-.3 1.6-.4l-3.4-1.2c1.7-1 3.4-1.6 4.6-3.3l-2.1.5c-.9.2-1.6 0-2.3-.6-.6-.6-1.4-1-2.1-1.5l-.6-.6.2-.3 1.8.4c1.2.4 2.4.5 3.6-.2l.4-.4c-2-.5-3.7-1.2-4.9-3l2.6.5.1-.2-.4-.4c-1.4-1.3-2.9-2.6-3.7-4.4l-.2-1h.9c1.1.2 2 0 2.7-.5-1-.7-2-1.2-2.9-2-.9-.7-1.7-1.6-1.7-2.9 1.4 1.3 2.9 2 5 1.6l-2.2-1.8 2-1.9c-.9-.1-1.7-.1-2.3-.4-.6-.2-1.3-.6-1.8-1.1-.8-.8-.6-1.4.5-1.7l1-.2-2.7-1.3 1.3-.8-1.5-1.3c-.5-.4-.7-.7-.3-1.3.5-.7 0-1.4-.3-1.9-.8-.9-1-2-1.2-3.2l-.2 1.4a3.6 3.6 0 0 1-1.5 2.7c-.7.5-.8.8 0 1.2l.3.4-1 .8c-.8.6-.8.9 0 1.4l.6.5-2.7 1.7 2.3 1.1c-.3.3-.5.5-.8.6-1 .2-2.1.6-3.2.6-1.4 0-3.1-1.7-3.3-3.2-.1-.7 0-.9.8-.7 1.2.2 2.1.1 2.9-.5-2.1-1.2-4.3-2.2-5-5.1 1.6 1.5 3.1 2.4 5.2 1.9l-2.3-1.8 1.9-1.8-2.9-.7c-.3 0-.6-.3-.8-.5-1.1-1.1-1-1.6.5-2l.7-.3-2.6-1.2 1.3-1-1.5-1.2c-.2-.3-.5-.8-.4-1.1.4-.9 0-1.5-.3-2.2l-1.2-2.7c0 1.5-.4 3.3-2.4 4.1l1.2 1.2-1 .7c-1 .7-1 .9 0 1.6l.6.4-1.4.8-1.4.9 2.3 1c-.4.3-.6.6-.9.6-.8.2-1.5.5-2.3.6-.9.2-1.6-.2-2.2-.9l-2.1-2.6c-.4-.6-.5-1.4-.6-2.2 1.6.2 3.1.5 4.7-.4l-1-.6a11 11 0 0 1-4.2-3.2 6 6 0 0 1-1-2.3c1 .6 1.9 1.3 3 1.8a4 4 0 0 0 3.4.2l-3-2.4c1.2-.6 2.2-1.1 2.7-2.4h-2c-1.4-.2-2.7-.6-3.4-2-.5-.9-.2-1.5.9-1.7l1.2-.3v-.2l-3.2-1.5 1.6-1.1-1.7-1.4c-.8-.5-1.1-1-.6-1.9.5-.8 0-1.8-.5-2.4-.9-1-1.2-2.2-1.3-3.5v-.3c-.2 1.1-.3 2.1-.7 3.1-.3.7-.8 1.4-1.4 1.9-1 .8-1.1.9 0 1.6l.5.4-.8.7-1.1.7c-.7.6-.7.9.1 1.3l1.1.7c-1.1.9-2.6.9-3.2 2.3l1.4.5.9.6c-.2.2-.5.6-.8.7-1.4.6-2.9 1.3-4.5.6l1.9-1.9c-1.1-.1-2 0-2.8-.4-.9-.3-1.8-.8-2.5-1.5-1-.9-.6-1.9.8-2.1.3 0 .6-.1.9-.4l-3.1-1.6q1.7-1.1.3-2.2l-.6-.4c-.6-.5-.9-.9-.4-1.7.6-1 0-2-.6-2.6-.8-.9-1-1.8-1.1-2.9v-.2l-.1-.1-.5 2.2c-.1 1.1-.8 1.9-1.7 2.5-.9.6-1 .9 0 1.4.7.4.7.6 0 1.1l-1.1.8c-.6.5-.6.9.1 1.4l1.1.7c-1.1.8-2.6.9-3.3 2.3l2.6 1.1c-1.7 1.6-4.6 2.6-8.5.3l1.6 2.2 1.7 2.1-2.2-.3c0 .8.9 1.7 2 1.7h3.5a7.9 7.9 0 0 1-3.1 2.7c-1 .5-2.1.9-3.1 1.2-.1 0-.4 0-.5-.2l-4.5-5.2c-.3-.4-.4-.9-.5-1.4-.2-.9 0-1.1.9-.9 1.4.3 2.9.4 4.5-.4l-1.1-.7c-2-1-3.8-2.2-5.1-4.1l-1-2.4c1.3.9 2.4 1.7 3.6 2.3 1.2.6 2.6.6 4.1.1l-.8-.5-2.1-1.4c-.7-.6-.6-.9.2-1.3.9-.4 1.5-1.1 2.2-2.1h-2.3c-1.7 0-3-.8-3.9-2.2-.6-.9-.4-1.5.7-1.8l1.7-.6-3.7-1.8.2-.3 1.4-.8-1-1.2c-.2-.3-.6-.5-.9-.7-.7-.5-.9-.9-.4-1.8.8-1.3 0-2.4-.8-3.3-.8-1-1.1-2-1.1-3.1l-.2-.4-.4 2.3c-.2 1.4-1 2.4-2.2 3.1-.9.5-.9 1 0 1.5l.9.6-1.2.9-.7.5c-.9.8-.9 1.1.1 1.8l1.1.7c-1.2 1-2.9 1-3.8 2.6l1.6.6 1.2.8-1 .9c-2.7 1.4-5.3 1-7.8-.6a.8.8 0 0 1-.4-.2c0 .3.1.6.3.8.9 1.2 1.6 2.6 3 3.4l.3.3.2.5-2.9-.3c.1 1 1.1 1.8 2.3 1.8h3.9c-.6 1.8-5.2 4.5-6.9 4.1 0-.2 0-.5.2-.7.9-1.3.3-2.5-.5-3.5-1-1.1-1.1-2.4-1.3-3.8l-.1-.4-.4 2.5a4.6 4.6 0 0 1-2.2 3.6c-.9.6-.9.8 0 1.4.9.7.9.8 0 1.4l-1.1.8c-.8.6-.7 1.1.1 1.5l1.4.8c-1.3.9-3 1.1-3.8 2.6l2 .7.8.5-.6.7c-.6.3-1.4.4-2 .8-1.9 1.1-3.5 0-5.2-.4-.5-.1-.9-.4-1.4-.7.7 1.9 2.2 3.2 3.7 4.5l-.1.3-2.5-.2c0 .8 1 1.7 2 1.7h3c1 0 .6 0 .9.2-1.6 2.5-4 3.5-6.8 4.2.9 1 2 1.4 3.2 1.5l1.3.2-.8 1.5 2.9.4a6.2 6.2 0 0 1-2.4 2.4 12.1 12.1 0 0 1-7.2 2.3c-1 0-1.2.2-.7 1.1.6 1.2 1.6 1.6 2.8 1.8l1.4.2.2.2-2.6 2.4c1.9.2 3.7 0 5.8-.8a6 6 0 0 1-.6.7l-4.5 5c-.3.3-.9.6-1.3.7-.9.3-1 .5-.2 1.3l-1.5 1.7V257.6l4.1-1v2.4H99c.2.5.4.4 1.1.4v-.4h1.5v.7l.2-.7h1.6l-.1.9c0 .6.1.9.9.9l.7-1.8h1.8c0 .9 0 1.8.5 2.7l.4-2.7h2.7v3.5h.1l.9-3.5h.4v3.5h.2l1-3.4h.2v4.3h.3c0-1.5-.2-2.9-.3-4.4h1.5l.4 1.9.3-1.9h1.4l.3.3 1.3 3.5-.3-3.7v-.4h.2l.2.5 1.1 3.3h.2l-.2-3.3h.6l1.1 3.8h.1a51 51 0 0 0-.2-3.8h.9l.7 2.2.5-2.2h2.5l.6.7v-.7h1.3l1.6 3.6h.3l-1.1-3.6h.4l1 1.3.3-.1-.2-1.2h5l-.1-1.5h.2l.5 1.5h1.8l.5 1.7.5-1.7h11.5a79 79 0 0 0-.3 1.9h.2l.9-1.8.2.1-.5 3.2.4.1 1.4-3.5h3.1l-1.1 2.2.2.1.5-.6 1.7-1.8.2-.2 1.1-1.2.3.2v4.2l5.4-1.6.3-1.4h39c0 .5-.4.8-.8 1l-1.1.8.6.4 4.3 1.7 1.4.4.2-1.8.3-2.5h7.6v2.3a3 3 0 0 0 2.8 2.9l.5-1.4q.3 2.1.9 2.3l.3-1.2.3 2.1.3 1.9h.3l.5-6.6h.2l.9 4.7c.5-1.5.8-3.1 1.9-4.2l-.7 7.2c.8-1 1.7-4.2 1.7-4.9 1.3-.7 1.4-2.4 2.7-3.1-.5 2.3-2.2 4.3-.9 6.9l.9-4h.2l.2 4.8.9-3.8h.2l.2 4 .9-3.6h.3l-.1 1.7.1 1.8c.6-2.4 1.6-4.5.7-6.9 1.2 1.6 1.5 3.5 2 5.5.4-3.1.9-4.8 1.8-5.6-.9 2.5 0 4.5 1.1 6.5l-.3-3.1h.2l1.1 3-.2-3.8h.2l1.2 3.9v-4.9h.1l1.3 4.1.9-4.9 1.9 3.6.2-.1c0-.6-.2-1.1-.3-1.7l-.1-1.7c.9 1.9 1.5 3.8 2.8 5.4l-.8-2.7h.3l1.8 2.7-1.4-5 .2-.1 2.6 4.3c-.1-1.9-.4-3.7 0-5.3a131 131 0 0 1 1.7 6.7h.3l-.2-4.1h.2l1.1 3.1-.2-4.1h.2l1.1 3.6 1-3.5 1.2 4.1h.1l.5-4.7.6 1.6.4-.9h.2v4.2h.2l1.4-3.5h.1l.2 1.8h.2l.9-2.3v3.4h.1l1.2-2.7.4 2.1h.2l1.1-1.8h.1c0 .5 0 1-.2 1.7.5-.4.9-.9 1.1-.8 1 .3 1-.4 1.2-.9l.3-.8.4 1c.2-.5.5-.9.4-1 0-.2-.5-.3-.8-.4h-.9c-2.5.5-4.8.2-6.8-1.5l-.7-.7.9-.1c1.8 0 3.4-.5 4.9-1.4l1.4-1h67.7l2.8 1.3V185c-2.2 0-4 .9-5.3 2.6Zm-287.8-17Zm-20.4 3.5 2.8 1.7-1.4 1.4-.5-.1c-.6-.8-1.2-1.5-1.7-2.4v-.7h.7Zm1.6-8-2.2 1.3c-.2-1 .6-1.6 2.2-1.3Zm-2.3-4.4 1.4.1.8.2-.4.9-.5.3v.2l3.3.4-1.5 1.5h-.2c-1.3-.5-2.8-.6-3.7-1.9l1.6-.9-.7-1ZM3.3 249.7v-.3l.7-.4h.1v1.1c-.3 0-.5-.2-.8-.3Zm39.8-73.8c-.9.4-1.9.6-2.9.8l-1.3-.3a7 7 0 0 1-1.3-.5l-1.1-.8v-.4c.5 0 1-.2 1.4 0l3.1.8c1.5.4 2.8-.2 4.3-1-3-.9-5.8-1.8-7.3-4.8 1.4.5 2.7 1.3 4.2 1l-.3-.6 3.7 1.2-.8 1.1 2.7.4a8.8 8.8 0 0 1-4.3 3.3Zm16.6 43.7Zm1.4-41.8c-1.5-1.4-3-2.8-3.9-4.6-.2-.3-.2-.7-.3-1 0-.6.1-.8.7-.7l1.8.4-2.2.7c.8.9 1.7 1.2 2.7 1.3l1.1.2-.5 1.3 2.4.3c-.2 1-1.2 1.3-1.8 2Zm.9-7.5c-.7.8-1.2.2-1.8-.1a9 9 0 0 1-3.7-3c-.5-.7-.8-1.6-1.1-2.5 1.4 1.1 2.7 2.2 4.5 2.4v.3l-1.9-.3c.4 1.2 1 1.6 2.1 1.6h3.3l.1.3-1.4 1.3Zm14.8 12.3c-1.3.5-2 .2-2.3-1.2l2.3 1.2Zm-3.9 3.4c1-.5 1.9 0 2.8.3-1.3.9-2.3.8-2.8-.3Zm3.9 2.8-1.2-.5.2-.5 1.3.4-.4.6Zm1.4-4.1c-.5 0-1-.3-1.5-.5l.1-.3H79c-.4.4-.6.9-.8.9Zm8.4 12.8 3.1.7c-1.5.9-2.6.7-3.1-.7Zm4.7-.6c-.5 0-1-.3-1.5-.5v-.3h2.1c-.3.4-.5.8-.7.8Zm32.3 59Zm5.4-.7Zm68.6-32.5c-.1-1.3.2-1.8 1.1-1.8l-1.1 1.8Zm37-17.8c-.4-.7 0-.8.7-.8 1.3 0 1.6 1.2 2.7 1.9l-1 .2c.7.8 1.6.2 2.3.5-.2.6-1.5 1.6-2.1 1.6-.1 0-.3 0-.4-.2-.8-1.1-1.6-2.1-2.2-3.3Zm3.5 10.5c-.4 0-.8-.4-1.1-.6l.1-.4h2.2c-.2.6-.5 1.1-1.2 1Z"/><path fill="url(#b)" d="M335 335H0V0h335v335Z" opacity=".8"/><path fill="#1a2134" d="M332.2 257.9c-3.9-2-8-3.3-12.3-3.9l-.4-.1-6.8-.7c-14.5-1.2-25.5-.2-28 0-5.2.5-11.4 1.3-18.4 2.9-.9 1.1-1.9 2.1-3.2 2.9a9.3 9.3 0 0 1-4.9 1.4l-.9.1.7.7c2 1.7 4.3 2.1 6.8 1.5h1c.3 0 .7.2.8.4l-.4 1.1-.3-1-.3.8c-.2.5-.2 1.3-1.2 1-.2 0-.6.5-1.1.8l.2-1.7h-.1l-1.1 1.9h-.3l-.4-2.1-1.2 2.7h-.1v-3.4l-.9 2.3h-.2l-.2-1.7h-.1l-1.4 3.5h-.2v-4.2h-.2l-.4.9-.6-1.6-.5 4.7h-.1l-1.2-4.1-1 3.5-1.1-3.6h-.2l.2 4.1-1.1-3.2h-.2l.2 4.1h-.3l-1.7-6.6c-.5 1.7-.2 3.5 0 5.4l-2.6-4.4-.2.1 1.4 5-1.8-2.8-.3.1.9 2.7c-1.3-1.6-2-3.5-2.8-5.4l.1 1.7c0 .6.2 1.1.3 1.7l-.2.1-1.8-3.6-.9 4.9-1.3-4.2h-.1v4.9l-1.2-3.9h-.2l.2 3.8-1.1-3h-.2l.2 3c-1-2-2-4-1.1-6.5-.9.8-1.4 2.5-1.8 5.6-.5-2-.8-3.9-2-5.5.9 2.3-.1 4.5-.8 6.9l-.1-1.8.2-1.7h-.3l-.9 3.6-.2-4h-.2l-.9 3.8-.2-4.8h-.2l-.9 4c-1.2-2.5.4-4.6.9-6.9-1.2.7-1.4 2.4-2.7 3.1 0 .3-.1 1.1-.4 1.9a9.3 9.3 0 0 1-1.3 3l.3-3.2.2-2 .2-2.1c-.6.5-.9 1.2-1.2 1.9a43.9 43.9 0 0 0-.8 2.4l-.1-.6-.4-2.1-.4-2.1h-.2l-.1 1.9-.2 2-.2 2.8h-.3l-.3-1.9-.1-1.1-.2-1-.2.9v.2c-.3 0-.5-.1-.6-.4l-3.5-.8-7.9-1.8h-.2l-.1 1.2-1.4-.4-4.4-1.7-.6-.3.2-.2h-.1l-6.3-1.5-9.3-2.1-1.5-.1c-2.9-.2-5.7 0-8.6.4h-.2l-11.4 2.3h-.2l-.2.8-5.4 1.6v-4.3l-.3-.2-.9 1-.2.2a36 36 0 0 1-1.9 2.1l-.4.6-.2-.1 1.3-2.7.2-.4-.7.4c-1.1.7-1.6 1.8-2.3 2.8l.4-2.8.2-1.6h-.2l-.6 1.6-1.5 3.7v.3l-.4-.1.5-3.1h-.2l-1 1.8h-.2l.5-2.3h-9l-.3 2.9h-.2l-.8-2.9-.6-2-.6 2-.6 2.1-.7-2.1-.8-2.4h-.2l.1 2.4.2 2.7h-.2l-.9-2.7-.4-1.1h-.2v1c0 1.4.2 2.7.3 4.1h-.2c-.6-1.3-1.1-2.7-1.4-4.1l-.8-3.5a14 14 0 0 0 0 6.6c-.8-1-1.1-2-1.2-3.1h-1.7l.3 1.6-.3.1-1.3-1.7h-.2l1.2 3.7-.3.1-1.8-4.1-1.4-3v1.4l.2 1.4v.3l.1 1.2-.9-1.2c-.5-.7-.9-1.5-.9-2.5l-.7-.4-.4.8v1.5l-.1.5-.6 2.7-.9-2.7-.7-2.3h-.2l.1 2.2.2 4.2-1.2-4.2-.3-.9h-.3v.9l.2 3.8h-.2l-1.2-3.8h-.2l.3 4.2-1.3-3.5v4.4c-.5-1.5-.5-3.1-.4-4.7l.2-4.7c-1.2 2.2-1.5 4.4-1.9 6.7-.5-2.3-1-4.6-2.3-6.4l.6 9h-.3v-4.3h-.2l-1 3.4h-.2v-3.7h-.3l-1 3.8h-.1v-4.8h-.4l-1.1 4.6h-.2v-5.7h-.3c-.8 1.6-.9 3.3-1.2 5.1-1.5-3.1.4-5.6 1-8.4l-.9 1-.8 1.3-.8 1.3-.8-.4c.6 1.7-.4 2.8-.8 4.2-.7 0-1-.2-.9-.9l.8-5.3v-.5c-1.5 1.6-2 3.5-2.5 5.6-.4-2.2-.3-4.3-1.3-6.1h-.2v5.8c-1.2 0-1 .2-1.5-2.7l-.4 1.7c0 .2-.2.4-.3.5-.1-.2-.4-.3-.4-.5l-.2-1.4c0-.5-.1-.9-.3-1.4l-.6 2.9c-.6 0-1 0-1.2-.3-.3-.3-.4-.8-.6-1.7l-.5 1.3c-.5-.2-1.1-.2-1.5-.6-.2-.2-.4-.5-.4-1l-.4.8v.1l-2.4-.9h-.1l-3.8-1.2a222.9 222.9 0 0 0-22.1-6.6l-.6-.1a74.4 74.4 0 0 0-23.4-1c-4 .5-8.9 1.6-18.7 3.8l-11 2.6v.1a6.3 6.3 0 0 1-4.5 2.7c-1.7.2-3.4.7-5.1 1.1v78.6H335v-75.7l-2.8-1.3Zm-175.1 2c-.3 1-.9 1.5-2 1.7l.9-1.5 1.2-2.1c0 .8 0 1.4-.2 1.9Zm131.9-.7c0-.9.2-1 1.6-.6l-1.6.6Z"/><path fill="#1a2134" d="M218.9 267.5h.4l12.3-1 17.5-1.4.8-.2 6.8-3.7 1-.6-1.5-.8c-.2-.1-.4-.3-.3-.5.2-1 .2-2 .5-2.9.6-1.9 2-2.5 3.9-2l2.8.7c1.7.3 3.3 0 4.5-1.4.9-1 1.6-2 2-3.3l.8-3.5c.6-3.7.6-7.3.6-11a49 49 0 0 0-.6-7.7l-.8-5.6a17 17 0 0 1 2.8-11.6l7-11c1.8-2.9 3.4-5.9 4.7-9.1.7-1.8 1.2-3.6 1.1-5.6V179c0-.7.2-1.4.4-2 .2-.6.6-.8 1.3-.8h.5c.9 0 1.2-.3 1.5-1.1v-.4l.5-5.9c0-.8 0-1.5-.3-2.3-.3-1.1-1-1.5-2.1-1.4l-10.4 1.3c-4.9.7-9.7.8-14.6.4h-.5v.3l.2 10.2c0 6.2.2 12.3.3 18.5l.1 8.2c0 .5 0 .9.3 1.3.5.9.3 1.4-.8 1.7v20.6c0 .3 0 .6.4.8.5.4.6.9.2 1.3-.3.2-.3.5-.3.8v22h-1.6v-21.4c0-.6 0-1.1-.3-1.6a1 1 0 0 1-.2-.6c0-.2 0-.5.2-.5.4-.1.3-.4.3-.7v-20c0-.5 0-.9-.4-1.3-.5-.5-.4-1 0-1.5l.1-.4-.2-6-.4-13.2-.5-15.9v-2.7h-.9c-1 0-1.5-.5-1.5-1.5l.1-3.4c0-.8.3-1.6.6-2.4.1-.3.5-.7.8-.8 1-.3 1.2-.5 1.3-1.6v-1.5l2.4.2c.1 1.1.3 1.4 1.4 1.6.8.2 1.5.6 2 1.2.6.7 1.3 1.1 2.2 1.3 1.7.5 3.3.4 5 0l4.6-1.4c1.1-.4 2.3-.6 3.3-1.1 2.3-1.1 3.7-3.1 4.9-5.3.2-.5.3-1.1.3-1.6 0-1.7-.2-3.4-.1-5.2 0-1.5.2-2.9.4-4.4.2-1.2.6-2.3 1.6-3.2.4-.3.5-.7.5-1.2 0-.6-.2-.8-.8-.8-.4 0-.6-.1-.6-.5v-1.9c0-.3-.2-.4-.5-.4h-1.5c-1.4-.2-2.7-.4-4-.9-.4-.2-.9-.3-.9-.9 0-.5.5-.7.9-.8l2.3-.4h1.4c0-1.1.1-2.1.3-3.1a5.5 5.5 0 0 1 3-4.2c2.3-1.2 4.8-1.5 7.3-.9 2.2.5 3.7 1.9 4.3 4.1.4 1.3.5 2.6.4 3.9 0 .7.1 1 .9 1.2l1.9.2c1.9 0 3.4.8 4.5 2.4l1.1 2 .2.4a9.5 9.5 0 0 0 4.3-3.6c.4-.6.8-1.1 1.5-1.3 1.6-.6 3.2-.5 4.8.2.6.3 1.1.6 1.3 1.2 0 .2.2.3.5.3l1.9.5c.5.2.8.6.9 1.3l.4.7 1 .5 2 .8a2 2 0 0 1 1.3 1.1c.4.9 1 1.4 1.8 1.8l1.9 1.1c.7.4 1.1 1.1 1.2 1.9v2.7c0 1.4-.3 2.8-1.3 3.9l-.9 1.1c.2.3.5.8.9 1.1.3.4.8.5 1.3.2.6-.3 1-.2 1.3.4.6 1.1.1 2.4-1.1 2.7-.4.1-.5.3-.3.6l.8 1.3c.4.7.8 1.3 1 2 .7 2.3.9 4.6.7 7 0 .6-.2 1.3-.4 1.9 0 .3-.3.6-.7.7-.6 0-.9.4-1.1.9l-.2 1-.3 2.6c0 .5-.2.9-.8 1-.1 0-.3.3-.3.5v.7l.5 2.3c.1.7.3 1.4-.5 1.7V181.7l2.3 3c.6.7 1.4 1.1 2.5 1.2l-.8.9c-.2.3-.4.3-.7.2a8.4 8.4 0 0 1-3.4-2.8l-1-1.6.2 26.4h-1.8v-21.9l-1 1.7c-.5.7-1.3.4-2 .4l.4 21.9-1.1-.5c-.4-.1-.5-.3-.5-.8v-20.6l-1.5.2c-.3 0-.4.2-.4.5v4.4l-.2 12.9v1.7h-1.8v-18.7c0-1.1.1-.8-.8-1-.3 0-.4 0-.6.3l-.7 1.3c-.2.6-.6.9-1.2.9l-1.1.1c-.8.1-.7 0-.7.8l-.4 13.8c0 2 .2 4 .5 6 .2 1.4.7 2.7 1 4l2.8 14.5c.7 3.5 1.1 7 1.1 10.6 0 4.8-.3 9.6-.8 14.4l-.2 2.3-1.4-.6v.6l.3 6.7c0 .4 0 .9-.2 1.3 0 .4-.3.7-.8.8l-.7.2H219Zm80.9-1.9.1-1.2.2-1.1c.5-1.7 1.4-2.4 3.2-2.5h1.9c.8 0 1.5-.4 1.8-1.2.3-1 .7-2 .8-3 .7-5.1.8-10.2 0-15.2-.3-1.8-.9-3.5-1.5-5.2-1.6-5.3-3.4-10.7-4.9-16a53.3 53.3 0 0 1-2-13.1v-1.4l.1-1.3h-.1l-.2.2-8.8 10.1-.2.5v3.2l.1.5c.1.3.2.7 0 1v17l.1.7v1.3l.2 14.6.1 8.2v3.3l9 1Zm-16.3-40.9-1 7.7-2.1 17.7v4c0 2.4 0 4.8-.3 7.2-.1.7-.2 1.4-.9 2l3 .8 6.1 1h.3c.7 0 .8 0 .8-.7v-25.6c0-.3 0-.6-.3-.9-.4-.4-.3-.5 0-.9v-16.5c0-.4 0-.8-.4-1.1-.2-.2-.3-.5 0-.8l.1-.3v-2.2c-2.8 2.3-4.9 5-5.4 8.7Z"/><g fill="#fff" data-name="PRINT"><path d="M29.6 13.9c0 .5-.2 1-.6 1.4l-6.3 6.3-6.8-3.9v-3.8c0-1.1.9-2 2-2s2 .9 2 2v4.9l6.3-6.3c.8-.8 2.1-.8 2.8 0 .4.4.6.9.6 1.4ZM29 31.7c-.4.4-.9.6-1.4.6s-.5 0-.8-.2l-.6-.4-2.1-2.1-4.1-4.1v4.9c0 1.1-.9 2-2 2s-2-.9-2-2v-3.8l6.8-3.9 4.2 4.2 2.1 2.1c.8.8.8 2.1 0 2.8ZM22.4 22s0-.2-.2-.2l-1.7-1-4.6-2.6L12 16a.5.5 0 0 0-.6.2V28.1c0 .3.2.5.5.5h.2l3.9-2.2 6.3-3.6.1-.2v-.3Zm-9.6-4.7 3 1.7 4.9 2.8.1.1v.3s0 .2-.2.2l-4.9 2.8-3 1.7-.5-.1V17.5c0-.2.2-.3.3-.3h.2Z"/><path d="m19.5 22.2-.1.2-3.7 2.1-2.3 1.3H13V18.9c0-.1.1-.3.3-.3h.1l2.3 1.3 3.7 2.1.1.2v.1ZM62.5 21.6l-5.6-2.8-3.4-1.7c-.2-.1-.4 0-.5.2v9.5c.1.2.3.4.6.4h.4l3.2-1.8 2-1.1 3.5-1.9.2-.2V22l-.2-.2Zm-5.6 2.8-2.6 1.4-.4-.1v-7.3c0-.2 0-.3.2-.3h.1l2.7 1.3 1 .5 3.4 1.7.2.2v.2l-.1.1-4.3 2.3Z"/><path d="m60.1 22-.1.1-3.2 1.7-2 1.1h-.3v-5.4c0-.1 0-.2.2-.2l2 1 3.3 1.6.1.1v.1ZM38.5 17.2h-4.9v9.7H36v-3.2h2.5c2.3 0 4.1-1.4 4-3.4 0-1.9-1.8-3.2-4.1-3.2Zm-.2 4.6H36v-2.7h2.3c1.1 0 1.9.5 1.9 1.3s-.8 1.4-1.9 1.4ZM51.8 27l-7.7.1-.2-9.7h2.4l.1 7.8 5.3-.1.1 1.9zM67.5 23.3l.1 3.5h-2.4v-3.5l-4.3-6.1 2.7-.1 2.7 4.2 2.8-4.2 2.6-.1-4.2 6.3zM81.9 27.2l-1.6.1-4.1-4.5-1.7 1.6v2.9h-1.2l-.1-9.6h1.2l.1 5.3 5.4-5.4h1.6L77 22.1l4.9 5.1zM88 17.3c-3 0-5.5 2.3-5.5 5.1 0 2.7 2.6 5 5.6 4.9 3 0 5.5-2.4 5.5-5.1 0-2.7-2.6-5-5.6-4.9Zm.4 9a4.3 4.3 0 0 1-4.6-3.9 4.3 4.3 0 0 1 8.5-.1 4.2 4.2 0 0 1-3.9 4ZM103.2 24.5c0 1.5-1.2 2.8-3.8 2.8-1.6 0-3.1-.5-4.3-1.5l.8-.9c1 .9 2.2 1.4 3.5 1.4 1.7 0 2.5-.9 2.5-1.7 0-1-1-1.4-2.9-1.8-2.2-.4-3.5-1-3.6-2.7 0-1.5 1.5-2.8 3.6-2.8 1.4 0 2.7.4 3.8 1.3l-.7.9c-.9-.8-2-1.2-3.1-1.2-1.3 0-2.3.8-2.3 1.7 0 1 1.1 1.3 2.9 1.7 2.1.4 3.5 1.1 3.6 2.8ZM116 27.2h-1.2l-.1-7.3-3.9 6.8-4.1-6.7.1 7.3-1.3.1-.1-9.7h1.3l4 6.7 4-6.8h1.2l.1 9.6zM123.7 17.3c-3 0-5.5 2.3-5.5 5.1 0 2.7 2.6 5 5.6 4.9 3 0 5.5-2.4 5.5-5.1 0-2.7-2.6-5-5.6-4.9Zm.4 9a4.3 4.3 0 0 1-4.6-3.9 4.3 4.3 0 0 1 8.5-.1 4.2 4.2 0 0 1-3.9 4ZM138.9 24.5c0 1.5-1.3 2.8-3.8 2.8-1.5 0-2.9-.4-4.1-1.3l-.2-.2.8-.9.5.4c.9.6 1.9 1 3 .9 1.7 0 2.5-.9 2.5-1.7 0-.8-.6-1.2-1.6-1.5l-1.2-.3h-.2c-2.2-.4-3.5-1-3.6-2.7 0-1.5 1.5-2.8 3.6-2.8 1.4 0 2.7.4 3.8 1.3l-.7.9c-.9-.8-2-1.2-3.1-1.2-1.3 0-2.3.8-2.3 1.7 0 1 1.1 1.3 2.9 1.7.4 0 .8.2 1.1.3l1 .4c.9.4 1.5 1.1 1.5 2.1Z"/></g><path fill="#fff" d="M167.5 147.3c-2.2 0-3.9 1.8-3.9 3.9s.3 1.7.8 2.3l3.2 5.5 3.2-5.5a4 4 0 0 0 .8-2.3c0-2.2-1.8-3.9-3.9-3.9Zm0 5.7c-1 0-1.7-.8-1.7-1.7s.8-1.7 1.7-1.7 1.7.8 1.7 1.7-.8 1.7-1.7 1.7Z"/><circle cx="55.3" cy="268.8" r="51.6" fill="#fff"/><circle cx="55.3" cy="268.8" r="48.4" fill="#1a2134"/><g fill="#fff" opacity=".9"><path d="M65.6 294.3v6.1c0 1.5-1.3 2.8-2.8 2.8H49.1a2.9 2.9 0 0 1-2.8-2.8v-13.7c0-1.5 1.3-2.8 2.8-2.8h6.2c.4 0 .8.3.8.8s-.3.8-.8.8h-5.9c-.9 0-1.7.8-1.7 1.7v13c0 .9.8 1.7 1.7 1.7h12.9c.9 0 1.7-.8 1.7-1.7v-5.8c0-.4.3-.8.8-.8.4 0 .8.3.8.8ZM66.2 287.9l-4.5-4.5.3-.3a3.3 3.3 0 0 1 4.5 0 3.3 3.3 0 0 1 0 4.5l-.3.3Z"/><path d="m65.3 288.8-6.8 6.8h-.3l-4.4.6c-.2 0-.5-.2-.5-.5l.6-4.4v-.3l6.8-6.8 4.5 4.5Z"/></g><path fill="#1a2134" d="M246.8 6.9h89.1v24.4h-89.1c-6.7 0-12.2-5.5-12.2-12.2 0-6.7 5.5-12.2 12.2-12.2Z"/></svg>