<svg data-name="Layer 1" xmlns="http://www.w3.org/2000/svg" width="335" height="335">
    <defs>
        <linearGradient id="a" x1="167.5" y1="-99" x2="167.5" y2="236" gradientTransform="matrix(1 0 0 -1 0 236)" gradientUnits="userSpaceOnUse">
            <stop offset="0" stop-color="#0017b8"/>
            <stop offset=".6" stop-color="#001390"/>
            <stop offset="1" stop-color="#00629e"/>
        </linearGradient>
    </defs>
    <path d="M0 0h335v335H0V0Z" fill="url(#a)"/>
    <g fill="#fff" data-name="PRINT">
        <path d="M29.8 11.9c0 .6-.2 1.1-.6 1.5l-6.8 6.8-7.2-4.2v-4.1c0-1.2 1-2.1 2.1-2.1s2.1 1 2.1 2.1v5.2l6.7-6.7c.8-.8 2.2-.8 3 0 .4.4.6 1 .6 1.5ZM29.2 30.8c-.4.4-.9.6-1.5.6s-.6 0-.8-.2c-.3-.1-.5-.3-.7-.5l-2.3-2.3-4.4-4.4v5.2c0 1.2-1 2.1-2.1 2.1s-2.1-1-2.1-2.1v-4.1l7.2-4.2 4.5 4.5 2.3 2.3c.8.8.8 2.2 0 3ZM22.1 20.5c0-.1-.1-.2-.2-.3l-1.8-1-4.9-2.8-4.1-2.4c-.2-.1-.5 0-.7.2v12.7c0 .3.2.5.5.5h.2l4.1-2.4 6.7-3.9s.1-.1.1-.2v-.3Zm-10.2-5 3.2 1.8 5.2 3s.1 0 .1.1v.3s0 .2-.2.2l-5.2 3-3.2 1.9c-.2 0-.4 0-.5-.1V15.8c0-.2.2-.4.4-.4h.2Z"/>
        <path d="M19 20.7s0 .1-.1.2L15 23.2l-2.4 1.4c-.1 0-.3 0-.4-.1V17.1c0-.2.1-.3.3-.3h.1l2.4 1.4 3.9 2.3s.1 0 .1.2v.2ZM64.9 20.1l-6-3-3.7-1.8c-.2-.1-.5 0-.6.2v10.1c.1.2.4.4.6.4h.4l3.4-1.9 2.1-1.1 3.8-2s.2-.1.2-.2v-.2c0-.1-.1-.2-.2-.2Zm-6 3-2.8 1.5c-.2 0-.4 0-.5-.1v-7.8c0-.2 0-.3.3-.3h.1l2.9 1.4 1 .5 3.6 1.8s.1 0 .2.2v.2s0 .1-.1.2L59 23.1Z"/>
        <path d="M62.3 20.5s0 .1-.1.1l-3.4 1.8-2.1 1.1h-.3V17.6c0-.1 0-.2.2-.2h.1l2.1 1.1 3.5 1.7.1.1v.1ZM39.3 15.4h-5.2v10.4h2.6v-3.4h2.7c2.5 0 4.3-1.5 4.3-3.6 0-2-1.9-3.5-4.4-3.4Zm-.2 4.9h-2.4v-2.9h2.4c1.2 0 2.1.5 2.1 1.4 0 .9-.8 1.5-2 1.5ZM53.4 25.8l-8.2.1-.1-10.3h2.5l.1 8.3 5.7-.1v2zM70.2 21.9l.1 3.7h-2.5l-.1-3.7-4.6-6.5 2.9-.1 2.9 4.5 3-4.5 2.7-.1-4.4 6.7zM85.5 26.1h-1.7l-4.4-4.7-1.8 1.7.1 3.1h-1.3l-.2-10.3h1.3l.1 5.7 5.8-5.8h1.7l-4.8 4.8 5.2 5.5zM92 15.6c-3.2 0-5.9 2.5-5.8 5.4 0 2.9 2.8 5.3 6 5.3s5.8-2.5 5.8-5.4c0-2.9-2.8-5.3-5.9-5.2Zm.4 9.6c-2.5.2-4.7-1.7-4.9-4.2.1-2.3 1.9-4.1 4.2-4.3 2.5-.2 4.7 1.7 4.9 4.2-.1 2.3-1.9 4.1-4.2 4.3ZM108.2 23.2c0 1.6-1.3 3-4 3-1.7 0-3.3-.5-4.5-1.6l.8-.9c1 .9 2.4 1.5 3.8 1.4 1.8 0 2.7-.9 2.7-1.8 0-1.1-1.1-1.5-3.1-1.9-2.3-.5-3.8-1.1-3.8-2.9 0-1.6 1.6-3 3.8-3 1.5 0 2.9.5 4 1.4l-.8.9c-.9-.8-2.1-1.3-3.3-1.3-1.4 0-2.4.9-2.4 1.8 0 1.1 1.1 1.4 3.1 1.8 2.2.4 3.8 1.1 3.8 2.9ZM121.9 26.1h-1.3l-.1-7.8-4.2 7.3-4.4-7.2.1 7.8h-1.3l-.1-10.3h1.3l4.4 7.1 4.1-7.2h1.3l.2 10.3zM130.1 15.6c-3.2 0-5.9 2.5-5.8 5.4 0 2.9 2.8 5.3 6 5.3s5.8-2.5 5.8-5.4c0-2.9-2.8-5.3-5.9-5.2Zm.4 9.6c-2.5.2-4.7-1.7-4.9-4.2.1-2.3 1.9-4.1 4.2-4.3 2.5-.2 4.7 1.7 4.9 4.2-.1 2.3-1.9 4.1-4.2 4.3ZM146.3 23.2c0 1.6-1.3 3-4 3-1.7 0-3.3-.5-4.5-1.6l.8-.9c1 .9 2.4 1.5 3.8 1.4 1.8 0 2.7-.9 2.7-1.8 0-1.1-1.1-1.5-3.1-1.9-2.3-.5-3.8-1.1-3.8-2.9 0-1.6 1.6-3 3.8-3 1.5 0 2.9.5 4 1.4l-.8.9c-.9-.8-2.1-1.3-3.3-1.3-1.4 0-2.5.9-2.4 1.8 0 1.1 1.2 1.4 3.1 1.8 2.2.4 3.8 1.1 3.8 2.9Z"/>
    </g>
    <path d="M0 0h335v335H0V0Z" fill="none" stroke="#21008f" stroke-miterlimit="1" stroke-width=".2"/>
    <path d="M0 192.7h335v83H0v-83Z" fill="#8bcfd9"/>
    <path d="m306.3 312-4.1-1.7h-.3l-1-3.2 9 3.3-3.6-8.9 3.2.9v.2l1.9 4.1c.2.6.8.8 1.4.6s.8-.8.6-1.4L312 303l2.8.7c.5.2 1.1-.1 1.3-.6v-.2c.2-.5-.1-1.1-.6-1.3h-.2l-2.6-.6 2-1.8h.1c.4-.5.4-1 0-1.5-.4-.4-1-.5-1.4-.1l-3.2 2.7-3.2-.7 7-5.8-9.2-1.2 2.1-2.3h.3l4.4.6c.4 0 .7-.1.9-.3s.3-.4.3-.7c0-.5-.3-1-.9-1.1h-.1l-3-.4 1.7-1.8c.2-.2.3-.5.3-.8s0-.5-.3-.7c-.4-.4-1-.5-1.4 0l-1.8 1.9-.4-2.8c-.1-.6-.7-1-1.2-1-.6 0-1 .4-1 1v.3l.7 4.4-2 2.2-1.6-9.2-5.9 7.5-.8-3.1 2.6-3.2c.4-.4.4-1 0-1.4-.4-.4-1-.4-1.4 0l-1.7 2-.8-2.5c-.1-.5-.7-.9-1.2-.7-.5.1-.8.7-.7 1.2l.6 2.2-2.7-1c-.6-.2-1.2 0-1.4.6s0 1.2.6 1.4l4.2 1.6 1 3.2-8.5-3.1 3.3 8.3-3.1-.8v-.5l-1.9-4c-.2-.5-.7-.8-1.3-.7h-.1c-.1 0-.2.1-.3.2-.3.3-.4.8-.2 1.2l1.3 3-2.3-.5c-.5-.2-1.1 0-1.3.6-.2.5.1 1.1.6 1.3h.2l2 .5-2.3 1.8h-.1c-.4.5-.5 1.2-.1 1.6s1.1.5 1.5.1l3.5-2.8 3.8 1-7.4 6 9.2 1.3-2.4 2.5c-.1 0-.3 0-.4-.1l-4.4-.5c-.3 0-.7 0-.9.3-.4.3-.5 1-.2 1.4.2.3.5.4.8.4l3.3.4-2 1.9-.2.8c0 .2.1.5.3.7.4.4 1.1.4 1.5 0l1.8-1.9.4 3c.1.6.6 1 1.2 1s1-.4 1-1v-.3l-.7-4.4v-.2l2.4-2.5 1.5 9.2 5.6-7.2.8 2.8-2.7 3.6c-.3.4-.2 1.1.2 1.4.4.4 1 .4 1.4 0 0 0 .1-.2.2-.2l1.6-2.2.8 2.8c0 .2.2.3.3.5.3.2.7.3 1 .2.6-.1 1-.7.8-1.3l-.8-2.8 3 1.2c.5.2 1.1 0 1.3-.6.2-.5 0-1.1-.5-1.4h-.1.1ZM289 290.2l5.5 2 1.3 4.5-4.6-1.2-2.2-5.3Zm3.1 12.4-6-.8 5-4.1 4.6 1.2-3.6 3.7Zm5.9-6-1.3-4.7 3.8-5 1 6-3.5 3.7Zm5-2.2 6 .9-4.4 3.6-4.8-1.2 3.3-3.3h-.1Zm-9.3 9.7 3.2-3.4 1.4 4.8-3.6 4.6-1-6Zm6.6.6-1.4-5 4.9 1.2 2.4 6-6-2.2h.1Z" fill="#fff" opacity=".5"/>
    <path d="M0 80.5h335v22.6H0V80.5Z" fill="#8bcfd9"/>
    <path d="m324 50.3-4.2-1.6h-.4l-.8-3.2 8.9 3.3-3.6-8.9 3.2.9v.2l1.9 4.1c.2.6.8.8 1.4.6.6-.2.8-.8.6-1.4l-1.3-2.9 2.7.7c.5.2 1.1 0 1.3-.6.2-.5 0-1.1-.6-1.3l-2.6-.7 2-1.8h.1c.4-.4.4-1 0-1.5-.4-.4-1-.5-1.4 0l-3.3 2.8-3-.8 6.8-5.7-9.2-1.3 2.2-2.3h.3l4.4.6c.3 0 .7-.1.9-.3l.3-.6c.1-.5-.2-1.1-.8-1.2h-.2l-3-.4 1.7-1.8c.2-.2.3-.5.3-.8s0-.5-.3-.7c-.4-.4-1-.5-1.4 0l-1.8 2-.4-3c-.1-.5-.7-1-1.2-.8-.6 0-1 .4-1 1v.2l.7 4.4-2 2.2-1.6-9.2-5.9 7.5-.8-3.1 2.6-3.2c.4-.4.3-1 0-1.4h-.1c-.4-.4-1-.4-1.4 0l-1.7 2.1-.7-2.6c-.1-.5-.7-.9-1.2-.7-.5.1-.8.7-.7 1.2l.6 2.2-2.7-1c-.6-.2-1.2 0-1.4.6s0 1.2.6 1.4l4.1 1.6h.1l1 3.3-8.6-3.2 3.4 8.3-3.2-.8v-.5l-1.8-4c-.2-.5-.7-.8-1.3-.7h-.1c-.1 0-.2.1-.3.2-.3.3-.4.8-.2 1.2l1.3 3-2.3-.5c-.5-.2-1.1.1-1.3.6v.2c-.1.5.2 1.1.7 1.2l2 .5-2.2 1.8h-.1c-.4.5-.5 1.2-.1 1.6s1.1.5 1.5.1l3.5-2.8 3.8 1-7.4 6 9.2 1.3-2.4 2.5h-.4l-4.4-.5c-.3 0-.7 0-.9.3-.4.3-.5 1-.2 1.4.2.3.5.4.8.4l3.3.4-2 1.9-.2.8c0 .2 0 .5.3.7.4.4 1.1.4 1.5 0l1.8-1.9.4 3c.1.6.6 1 1.2 1s1-.4 1-1v-.3l-.8-4.4V47l2.4-2.5 1.5 9.2 5.6-7.2.8 2.8-2.7 3.6c-.4.4-.3 1 .1 1.4h.2c.4.3 1.1.2 1.4-.2l1.7-2.2.8 2.8c0 .2.2.4.3.5.3.2.7.3 1 .2.6 0 1-.7.8-1.3l-.8-2.8 3 1.2c.5.2 1.1 0 1.3-.6.2-.5 0-1.1-.5-1.4h-.1.2Zm-17.4-21.7 5.5 2 1.3 4.5-4.6-1.1-2.2-5.4Zm3.1 12.4-6-.8 5-4 4.6 1.1-3.6 3.7Zm5.9-6-1.4-4.7 4-5 1 6-3.6 3.7Zm5-2.2 6 .9-4.4 3.6-4.8-1.2 3.3-3.3h-.1Zm-9.3 9.7 3.2-3.4L316 44l-3.6 4.6-1-6Zm6.6.5-1.5-5 5 1.2 2.4 6-6-2.2h.1Zm-79.1 193.5-2.2 1h-.2l-1.5-.9 4.7-2-4.7-2.1 1.5-1 .2.2 2.2.9c.3.1.7 0 .8-.4v-.2c0-.2-.2-.4-.4-.5l-1.5-.6 1.3-.8c.2-.1.3-.3.3-.5v-.3c-.3-.3-.6-.4-.9-.2l-1.2.7v-1.5c.1-.3 0-.5-.4-.6-.3 0-.6.2-.6.5l-.2 2.3-1.5.9.5-4.8-4 3v-1.8l2-1.5.2-.4v-.4c-.3-.2-.7-.2-.9 0l-1.4 1v-1.9c-.2-.2-.4-.1-.5-.1-.4 0-.6.2-.6.5v1.5l-1.2-1c-.2-.2-.6-.2-.8 0-.1.1-.2.3-.2.5s.1.3.3.4l1.9 1.5v1.6l-4-3 .5 5.2-1.5-1-.2-2.1c0-.3-.3-.6-.6-.6s-.6.3-.5.7v1.4l-1.2-.7h-.3c-.2-.1-.4-.1-.5.2-.1.2 0 .6.2.7l1 .6-1.4.7c-.3.1-.4.4-.3.7.2.3.5.4.8.3l2.2-1 1.6 1-4.4 2 4.4 1.9-1.6.9-.2-.2-2.2-.9c-.3 0-.6 0-.7.3v.2c0 .3 0 .5.3.6l1.7.7-1.2.6-.2.5v.3c.2.3.5.4.8.2l1-.5-.2 1.5c0 .4.2.6.5.6s.6-.1.6-.5l.3-2.3 1.8-1-.5 5 4-2.9v1.8h-.2l-1.9 1.6-.2.5v.3c.3.3.7.3.9.1l1.4-1v1.4c0 .2 0 .3.2.4l.4.2c.3 0 .6-.3.6-.6v-1.4l1.2 1c.3.2.7.2.9 0v-.9l-2.1-1.5v-2l4 3-.5-4.8 1.3.8.3 2.3c0 .3.3.5.6.5s.6-.3.6-.6l-.2-1.5 1.3.8h.3c.2 0 .4 0 .5-.2.2-.3 0-.6-.2-.8l-1.3-.8 1.6-.7c.2 0 .3-.3.3-.5v-.2c-.1-.3-.5-.4-.8-.3Zm-14.9-2 3-1.2 2 1.3-2.1 1.2-2.9-1.2Zm5.9 3.6-2.7 2 .4-3.5 2.3-1.3v2.8Zm0-4.5-2.3-1.3-.4-3.4 2.7 2v2.7Zm1.1-2.8 2.7-1.9-.3 3.1-2.4 1.3v-2.4Zm0 7.2v-2.5l2.3 1.3.4 3.2-2.7-2Zm2.8-2.2-2.4-1.4 2.4-1.4 3.1 1.4-3 1.3h-.1Zm98.7-7.9-2.3 1h-.1l-1.5-.8 4.7-2-4.8-2.2 1.6-.9h.1l2.3 1.1c.3.1.7 0 .8-.4v-.2c0-.2-.2-.4-.4-.5l-1.6-.7 1.4-.8c.1 0 .3-.3.3-.5v-.2c-.2-.3-.6-.4-.9-.3l-1.2.8v-1.5c0-.3-.1-.6-.4-.6s-.6.2-.6.5l-.3 2.3-1.5.8.6-4.8-4 3v-1.7l2-1.5.2-.5v-.3c-.3-.2-.6-.3-.9-.1l-1.4 1v-1.8c-.2-.1-.3-.2-.5-.2-.4 0-.6.3-.6.6v1.4l-1.2-1c-.2-.2-.6-.2-.8 0-.1.1-.2.3-.2.5s.1.4.3.5l1.9 1.5v1.6l-4-3 .5 5.1-1.5-.9-.2-2.2c0-.3-.3-.5-.6-.5s-.6.3-.5.6v1.4l-1.2-.7h-.3c-.2 0-.4 0-.5.2-.2.3 0 .6.2.8l1 .6-1.4.6c-.3.1-.4.5-.3.8.1.2.5.4.8.3l2.2-1 1.6 1-4.5 1.9 4.4 2-1.5.8h-.2l-2.2-1.1c-.3 0-.6.1-.7.4v.2c0 .2 0 .4.3.5l1.6.7-1 .7c-.3 0-.4.3-.4.5v.3c.3.2.6.3.9.2l1-.6-.2 1.6c0 .3.2.6.5.6s.6-.2.6-.5l.3-2.4 1.8-1-.6 5.1 4-3v1.9h-.1l-2 1.6v.8c.2.2.5.3.8 0l1.4-1v1.4c0 .2 0 .3.2.5h.4c.3.1.5 0 .5-.4v-1.4l1.3 1c.3.2.6.1.8-.1l.2-.4c0-.2-.1-.3-.3-.4l-1.9-1.5v-2l4 3-.6-4.9 1.4.8.3 2.4c0 .3.3.5.6.5s.6-.3.5-.7l-.2-1.5 1.4.8h.3c.2.1.4.1.5-.2.2-.2 0-.6-.2-.8l-1.4-.7 1.6-.7c.3-.1.4-.3.4-.5v-.3c-.1-.3-.5-.4-.8-.3Zm-14.9-1.9 3-1.2 2 1.2-2.2 1.3-2.8-1.3Zm5.9 3.7-2.7 2 .4-3.5 2.3-1.3v2.8Zm0-4.6-2.4-1.3-.4-3.3 2.7 1.9v2.7Zm1.1-2.7 2.7-2-.4 3.1-2.3 1.4v-2.5Zm0 7.3v-2.6l2.3 1.4.4 3.1-2.7-2Zm2.8-2.2-2.4-1.4 2.3-1.4 3.2 1.4-3.1 1.4Z" fill="#fff" opacity=".5"/>
    <path d="m40.7 123.1-1.1.5-.8-.4 2.3-1-2.3-1 .7-.5 1.2.5h.3v-.5l-.9-.3.7-.4v-.4s-.2-.2-.3 0l-.6.3v-.8s0-.2-.2-.3c0 0-.3 0-.3.3v1.1l-.8.4.2-2.3-2 1.4v-.8l1-.8v-.4h-.4l-.6.5v-.9h-.3c-.2 0-.3 0-.3.2v.7l-.6-.4c-.1-.1-.3-.1-.4 0-.1.1-.1.3 0 .4l1 .7v.8l-2-1.4.3 2.5-.7-.5v-1c0-.2-.3-.3-.4-.3-.2 0-.3 0-.3.3v.7l-.5-.4h-.4v.5l.6.3-.7.3s-.2 0-.2.3.3.3.4.2l1-.4.8.4-2.2 1 2.2 1-.8.3-1.2-.5s-.3 0-.3.2v.4l.9.3-.5.3-.2.3c.2.2.3.3.5.2l.4-.3v.8c0 .2 0 .3.2.3l.3-.2v-1.2l1.1-.5-.4 2.5 2-1.5v1l-1 .7v.4h.3l.7-.5v.9h.3s.3 0 .3-.2v-.6l.6.5h.4c.1 0 .2-.3 0-.4l-1-.7v-1l2 1.5-.3-2.4.6.4.2 1.2s0 .2.3.2.3-.2.2-.3v-.7l.6.3h.4v-.4l-.8-.4.8-.4.2-.2c0-.3-.3-.3-.4-.3Zm-7.3-.9 1.4-.6 1 .6-1 .6-1.4-.6Zm2.9 1.8-1.3 1 .2-1.7 1-.7v1.4Zm0-2.2-1.1-.7-.2-1.6 1.3 1v1.3Zm.5-1.4 1.3-1v1.6l-1.3.6v-1.2Zm0 3.6v-1.3l1.2.7v1.5l-1.2-1Zm1.4-1-1.2-.7 1.2-.7 1.5.7-1.5.7Zm2.1 25.5-1.1.4-.8-.4 2.3-1-2.3-1 .7-.4 1.2.5s.3 0 .3-.2v-.4l-.9-.3.7-.4v-.2c0-.3-.3-.3-.4-.2l-.6.3v-.7c0-.2 0-.3-.2-.3s-.3 0-.3.2v1.1l-.8.5.2-2.4-2 1.5v-.9l1-.7v-.4c0-.1-.3-.2-.4 0l-.6.4v-.8H36c-.2-.1-.3 0-.3.2v.7l-.6-.5c-.1-.1-.3-.1-.4 0-.1.1-.1.3 0 .4l1 .8v.8l-2-1.5.3 2.5-.7-.4v-1.1c0-.2-.2-.3-.4-.3s-.3.2-.3.3v.7l-.5-.3h-.4c-.1.2 0 .3 0 .4l.6.3-.7.3-.2.3c.1.2.3.3.4.2l1-.4.8.4-2.2 1 2.2 1-.8.4-1.2-.5c-.1-.1-.3 0-.3.1v.4l.9.3-.5.3v.3h-.1c0 .3.2.3.4.2l.4-.2v.7c0 .2 0 .3.2.3s.3 0 .3-.2v-1.2l1.1-.5-.3 2.5 2-1.4v.9h-.2l-.9.7v.3c0 .3.3.3.4.1l.7-.4v.9h.3s.3 0 .3-.2v-.7l.6.5h.4c.1-.1.1-.3 0-.4l-1-.8v-1l2 1.5-.3-2.3.6.3.2 1.2c0 .1 0 .2.3.2s.3-.1.3-.3v-.7l.5.4h.4v-.5l-.8-.4.8-.3.2-.3c0-.2-.3-.3-.4-.2Zm-7.3-1 1.4-.6 1.1.6-1 .6-1.5-.6Zm2.9 1.8-1.3 1 .2-1.7 1-.6v1.3Zm0-2.2-1.1-.6-.2-1.7 1.3 1v1.3Zm.6-1.3 1.2-1v1.5l-1.2.7v-1.2Zm0 3.5v-1.2l1 .6.2 1.6-1.3-1Zm1.3-1.1-1.2-.7 1.2-.7 1.5.7-1.5.7Z" fill="#fff" opacity=".8"/>
    <path d="M15.2 201.8c-6.9 0-12.5 5.5-12.6 12.4 0 2.7.9 5.4 2.5 7.6l10 17.4 10.2-17.5c4.1-5.5 3-13.4-2.5-17.5-2.2-1.6-4.9-2.5-7.6-2.5Zm0 18.4c-3 0-5.5-2.5-5.5-5.5s2.5-5.5 5.5-5.5 5.5 2.5 5.5 5.5-2.5 5.5-5.5 5.5Z" fill="#1b1464"/>
    <path d="M143 286.9h98.5v31.4H143v-31.4Z" fill="none" stroke="#8bcfd9" stroke-miterlimit="10" stroke-width="2"/>
    <circle cx="286.6" cy="147.8" r="25.1" fill="#fff"/>
    <circle cx="286.6" cy="147.8" r="26.7" fill="none" stroke="#fff" stroke-miterlimit="10"/>
    <path d="M238.8 139.4h95.4v16.8h-95.4v-16.8Z" fill="#fff"/>
    <path d="m295 213 2.4-.3c-.1.3-.3.5-.3.8.8 5 3.7 8.4 8.8 9.8 1.5.4 3.1.5 4.6-.1l4.6 6 1.5 2-1.8 1-7.6 5.4c-.3.2-.5.8-.4 1 .4 1.1.9 2.2 1.5 3.2.5.9 1 .8 1.7 0 .7-.7 1.4-1.5 2.2-2.1 2.4-2 5.1-3.4 8-4.5l1.4 1.6-4.6 2.2c-3.6 2.3-6.7 5.4-9.1 9-2 3-4.1 6-6.9 8.3-2.7 2.3-6 3.2-9.2 4.4l-17 6.3-11.4 4.2c-.3.1-.7-.1-1-.2l-1.3-4.3.2-2.1c.3-1.7 1.3-3.2 2.7-4.1l5-3.1 5.1 2.3c1 .5 2 1 3.1.6 1.3-.4 2.6-.9 3.7-1.6 4-2.6 7-6.4 8.6-10.9 2.3-5.9 3-12 3-18.4s-1-11.4-3-17l4.7.5c.9 10 10.7 15.4 16.7 13h-.1c-4.8.8-8.7-1-11.9-4.3-2.2-2.4-3.5-5.5-3.8-8.7h-.1Z" fill="#fd88d1"/>
    <path d="m269 257.3-5 3.1c-1.4.9-2.3 2.4-2.6 4.1l-4.5 1.6-19.6 7.2c-.5.2-1 .5-1.2-.1-.4-1.6-1-3.2-1-4.8-.3-2.8 1-5 3.5-6.3l4.3-2.6c1.5.7 3.1 1.3 4.6 2.2 2.1 1.3 4.2 1 6.2-.3 5.7-3.3 9-8.5 10.7-14.8 2.9-10.5 2.5-21.7-1.2-32l4.5.5.2.3c.5 3.3 1.9 6.4 4.2 8.8 2.4 2.7 5.9 4.3 9.5 4.4.7 0 1 .2 1.2.8l.4 1.4c-.5.3-1 .6-.4 1.2l.2 1.3-.5 1.5v.9c-.4.4-.7.8-.3 1.3v1c-.6.3-1.2.6-.8 1.4-.8.5-1.6 1.1-.7 2.2l-.5 1.6c-.4.3-1 .5-.5 1.2l-.5 1c-.5.1-.7.4-.4 1l-.8 1.2-.5.9-.9 1.4c-.5.3-1.2.3-.8 1.2l-1.3 1.5c-.6 0-1 0-.8.7l-2.5 2.4-1.6 1.3-.5.3h-.1Z" fill="#e34f9a"/>
    <path d="m245 257.8 1.7-1.6 2-2.2c.9-1.2 1.6-2.5 2.4-3.8.7-1 1.4-1.9 1.9-3 .6-1.2 1-2.5 1.4-3.8.1-.3.5-.6.5-.9.1-1 .6-2 .9-3 .1-.5.4-1.3.4-1.8-.2-1 .6-2 .4-3-.2-.8-.2-1.4.1-2v-.2c-.4-.9 0-1.8 0-2.8l-.3-.7c0-.2-.2-.5-.1-.6.3-.6.3-1.2-.2-1.7v-1.2l-.9-3v-.7c-.5-.8-.4-1.7-.8-2.5 0-.2-.3-.3-.3-.5l-.5-2.8c1.4-1 3.2-1.3 5-1.4.5.6.3 1.6 1.3 1.9.4 0 .7.3 1 .5l-1 .8c.4.3 1 .4 1.2.7.1.3-.2.9-.3 1.1l1.5 1.2-1.4.4 1.5 1.7-.7.5c-.3.7 2.6.8.2 1.7 0 .7 0 1.4 1 1.5l.4.6-.6.3h-.8l.7 1.4c.1.3.4.5.6.7l-1 .6v.6l1 1-1 .5v1.1l1 1-1 .4q-.4 1.5.9 2.3l.3.5-.5.2c-.4 0-.8 0-1.2-.2v1l1.2.9-1.6.5-.3 1.7 1.2 1.4-1.5.2c-.1.4-.8 1 0 1.8.3.3.4.7.6 1.1l-1.4-.2-.6 2 .9 1.5h-1.4q-.5 1 .4 2l.2.7h-.8l-.6-.6-1.2 2.3.6 1.3H256l-1.4 1.9.4 1.1h-1c-.2 0-.4.2-.5.3l-1 .8c-.7.4-1.4 1-2.2.5-1.6-1-3.4-1.7-5.3-2Z" fill="#c32c62"/>
    <path d="M282.4 281.3c-2.6 1.2-5.2 2.4-7.8 3.4-2.7 1-5.5 1.8-8.4 1.6-.7 0-1.4-.2-2-.4-1.7-.4-2.6-1.7-2.8-3.7v-.9c.3-1.2.5-2.4 1-3.5.7-1.5.5-2.9.2-4.3 2.4-.8 5-1.4 7.3-2.2l7.5-3.2 4.2-1.4c.2 0 .5.2.7.1 1.3-.7 2.7-.8 4.3-.4v-1.6l1.9-.8.2 1 .3 5.7.4 7.6-2.1 1-.2-1.9-.4-5.5 1.2-1.7-.2-.2-6.1 2.6-.3-5.3-5 2.1-.4.7.3 4.8-1.6.7-.4-5.2c-.9.2-1.6.5-1.5 1.6l.2 4.3-.6.4c1.4.6 2.7.4 3.8 0l5.9-2.5.2 4.4.2 2.7Z" fill="#bfbfbf"/>
    <path d="m288.5 264-2 .8-4.9 1.9c-1.4.5-2.9.9-4.3 1.5-2.5 1-4.9 2.2-7.4 3.1-2.4.9-4.9 1.5-7.3 2.2-.6 0-.9-.2-1-.8l.4-1.5.4-.2c.3 0 .8.3 1 .2l11.4-4.2c5.7-2 11.4-4.1 17-6.3 3.2-1.2 6.6-2 9.2-4.4 2.7-2.4 5-5.2 7-8.2 2.4-3.6 5.3-6.8 9-9 1.5-1 3-1.6 4.6-2.3 1.7 1.9 2.4 4.2 3 6.6l.7 3.4c.1 1 0 2-1 2.7l-7 2.5-3.8 1.3c-.4-1.6-.7-3.2-1.2-4.7-.2-.6-.7-1.5-1-1.5-.6 0-1.3.6-1.8 1l-.5.6-3.5 5.7-1.8 3c-.3.2-.6.5-1 .6l-8.8 4-5.4 2Z" fill="#39312c"/>
    <path d="m256.2 283.4-9.3 3.9c-2.6 1.1-5.5 1.4-8.3 1-2.3-.5-3.5-2-3.4-4.3 0-3 1.6-5.5 3.3-7.9l.8-1 10.7-4.2 5.2-2v.4l-8.1 3.5c-1.1.5-2 1.2-2.4 2.3-.8 1.8 0 3.4 1.8 4 1 .3 2.2.2 3.3-.3l5.7-2.4.3 1 .4 6Z" fill="#9a9a9a"/>
    <path d="m317.3 252 7-2.5 2.3 3.5c2 2.5 4.6 3 7.6 2.4 1.3-.3 2.6-.7 3.8-1.2.8-.3 1.3-.3 1.8.3l1.8 1.5-27.2 11.6v-1.3l-.4-5.9c1.5-.7 3.1-1.3 4.6-2.2 1.2-.8 1.9-2 1.7-3.5-.2-1.4-1.2-1.9-2.3-2.3l-.7-.4Z" fill="#bfbfbf"/>
    <path d="m269.7 257 1.6-1.3c1 .3 2.3.3 3.2.9 2.1 1.4 4 1.5 5.6-.6h1.1l-.4-.7 1.6-2.5 1.2.2-.7-1h-.1l1.2-2.5 1.5.6.3-.4-1.3-1 .7-1.6.5.2h.7c-.1 0-.1-.4-.3-.6l-.8-.7 1-2.4.4.3.7.3c0-.3 0-.7-.2-.9l-.8-.8.4-1.7 1 .3h.5v-.6l-1.3-.7.4-2.1h.3l1.4-.3-1.3-.7v-1.2l1.8.2v-.3c-.1-.2-.4-.5-.7-.6l-1-.4.5-2 1.1-.2v-.3l-1.1-.4v-1.7l1-.2-.9-.7h-.2v-1.2h.5l.6-.2-.4-.6h-.5l-.2-1.8h1.1l-.6-.7h-.5v-1.7l.5-.4-.8-.5v-.7l.5-.4-.5-.6-.5-.2-.2-1.1 1.2-.2-1-.7h-.4v-.8c.6-.1.5-.5.1-.8l-.9-.3-.3-.8h.4l.7-.3-.6-.5-1-.2-.7-1.7h3.5c2 4.3 2.8 8.8 3.3 13.5.6 6.3-.2 12.6-1.8 18.7-1.2 5.5-4.4 10.3-9 13.6-2.4 1.7-4.6 2-7.2.3-1.1-.8-2.6-1-4-1.5Z" fill="#fd88d1"/>
    <path d="M245 257.8c1.9.3 3.7 1 5.3 2 .8.6 1.5 0 2.2-.5l1-.8.5-.3h1l-.4-1.1 1.4-2h1.4l-.6-1.2 1.2-2.3.6.5h.8s0-.5-.3-.7q-.8-.9-.3-2h1.4l-1-1.4.7-2 1.4.2c-.2-.3-.3-.8-.6-1-.8-.9-.1-1.5 0-2h1.5l-1.3-1.5.4-1.7 1.6-.5-1.3-.9v-1l1.3.2.5-.2-.3-.5c-1.3-.8-1.3-.7-1-2.3l1.2-.5-1.1-1v-1l1-.6-1-.9v-.6l1-.6-.7-.6-.6-1.5h.8l.6-.3-.4-.6c-1 0-1-.7-1-1.5 2.4-.9-.5-1-.2-1.7l.7-.5-1.5-1.7 1.4-.4-1.5-1.2c0-.2.4-.8.3-1-.2-.4-.8-.5-1.2-.8l1-.8-1-.5c-1-.3-.8-1.3-1.3-1.9h3.8l1 3.6c1.1 3.6 1.8 7.3 2 11 .4 6.2-.4 12.2-2 18.2-1.3 5.5-4.7 10.3-9.4 13.5-1.6 1-3.4 1.6-5.1.6-1.8-1-3.5-2-5.4-2.4l1.5-1.3Z" fill="#e34f9a"/>
    <path d="m288.5 264 5.4-2-.5 1c-1.1 1.6-.6 3.5 1.2 4.2 1.4.8 2.8.3 4.1-.2l.2 1 .5 6.1-10 4.2-.4-7.6-.3-5.7-.2-1Z" fill="#ddd"/>
    <path d="M288.4 224.2c.2 0 .3 0 .5.2l.6.6h-1.2c-1.9-.4-3.6 0-5 1.4l-.5.4-.4-1c-7-.1-11.2-5.3-11.7-10.8l5.2-1c.7-.2.7.3 1 .6l5 7.5.7 1.5c2.8-1.7 3.5-2 5.4-1.8l.8.5-.6.4c-2-.4-3.6.4-5 1.6-.4.3-.7.7-.2 1.3 1.4-1.4 3.5-1.9 5.4-1.4Z" fill="#c32c62"/>
    <path d="M310.6 223.2c-1.6.6-3.2.5-4.7 0-5-1.3-8-4.7-8.8-9.7 0-.3.2-.5.3-.8l5.3-1c1 1.7 2 3.5 3.1 5.1 1.5 2.2 3.2 4.3 4.8 6.4Z" fill="#fd5c95"/>
    <path d="m255.2 268.9-5.2 2-10.7 4.2-3.7.7c-.2-1-.1-1.9.5-2.6.3.6.7.3 1.2.1l19.6-7.2 4.5-1.6-.2 2.1-1 .4-5 1.8Z" fill="#023c04"/>
    <path d="m314 260.4.3 6v1.2l-6.3 2.8-.3-1.6-.3-5.6 6.6-2.8Z" fill="#ddd"/>
    <path d="m317 231.5 3 3.3c-4 1.6-7.8 3.6-10.9 7l-1-2.2c-.6-1.2-.5-1.7.6-2.6l2.7-2 5.6-3.5Z" fill="#fd88d1"/>
    <path d="M269.7 257c1.3.5 2.8.8 4 1.6 2.6 1.7 4.8 1.3 7.2-.4 4.7-3.3 7.5-8 9-13.5 1.7-6.1 2.2-12.5 1.7-18.8-.4-4.6-1.3-9.2-3.2-13.5h1c2 5.5 3.1 11.2 3.2 17 0 6.3-.8 12.5-3 18.4-1.6 4.5-4.7 8.3-8.7 10.9-1.1.7-2.4 1.1-3.6 1.6-1.1.3-2.2-.2-3.2-.6l-5-2.4.6-.3Z" fill="#fd5c95"/>
    <path d="M243.5 259c2 .6 3.7 1.6 5.4 2.5 1.8 1 3.5.4 5-.6 5-3.3 8-8 9.5-13.5 1.7-5.9 2.3-12.1 2-18.2-.2-3.7-.9-7.4-2-11l-1-3.5h.8c3.7 10.3 4.1 21.5 1.2 32-1.7 6.2-5 11.4-10.7 14.8-2 1.1-4 1.5-6.2.2-1.5-1-3-1.5-4.6-2.2l.6-.4Z" fill="#c32c62"/>
    <path d="M270.8 215c.5 5.5 4.5 10.6 11.6 10.8l.4 1v1.3c-2.5.2-4.9-.5-7-1.9-4-2.4-6.6-6.6-7-11.2h2Z" fill="#e34f9a"/>
    <path d="m307.4 263.3.3 5.5.3 1.6-5.5 2.4v-1l-.5-6.2 5.4-2.3Zm-51.2 20.1-.4-6-.2-1 4.9-2.3v1.2l.5 6.1-4.8 2Z" fill="#bfbfbf"/>
    <path d="m282.4 281.3-.2-2.7-.2-4.5 4.7-2.2.4 5.5.2 1.9-4.9 2Z" fill="#ddd"/>
    <path d="M268.8 215c.6 4.9 2.8 8.7 7 11.3s4.5 2 7 1.8l1-.4c1.4-1 3-1.3 4.8-1l.4.2.4.6-.6.2h-.4c-1.4-.6-3.4-.2-4.7 1-.2.3-.6.5-.9.7-.1-.6-.5-.8-1.2-.8-3.7-.2-7-1.5-9.5-4.4-2.3-2.4-3.7-5.5-4.2-8.8l-.2-.3h1.1Z" fill="#c32c62"/>
    <path d="m317 231.5-5.6 3.5c-1 .6-1.8 1.3-2.7 2-1 .9-1.2 1.4-.6 2.6l1 2.1c3.1-3.3 6.8-5.3 10.8-6.9l.3.4c-2.9 1.1-5.6 2.6-8 4.5-.8.6-1.5 1.4-2.2 2.2-.7.7-1.1.7-1.6-.1-.7-1-1.2-2.1-1.6-3.2 0-.3.2-.8.4-1l7.7-5.4c.5-.4 1.2-.6 1.8-1l.3.3ZM295 213c.4 3.2 1.7 6.1 4 8.5 3.2 3.4 7 5.1 11.8 4.3h.1c-6 2.4-15.8-3-16.7-13h.9v.2Z" fill="#fd5c95"/>
    <path d="m261 281.4-.4-6.1v-1.2l1.1-1.4c0 .5.3.8.9.8.3 1.4.5 2.8-.2 4.3-.5 1.1-.7 2.3-1 3.5h-.4Z" fill="#9a9a9a"/>
    <path d="m284.9 212.5.7 1.7c-1.8.4-3.5.8-5 1.9-1.1-2.6-1.5-2.1 1.3-3.2.9-.3 2-.3 3-.4Z" fill="#fd5c95"/>
    <path d="m302 265.6.4 6.3v.9l-1.6.6v-.5l-.4-6.7 1.6-.6Z" fill="#ddd"/>
    <path d="m300.4 266.3.4 6.6v.6l-1.4.6-.5-6-.2-1.1 1.7-.8Z" fill="#bfbfbf"/>
    <path d="M287.4 218.7c0 .4 0 .8.2 1.1-1.1.2-2.2.2-3.2.5-.8.3-1.6.8-2.3 1.2l-.3-1 .7-.5c1.5-1 3-1.8 4.8-1.3Zm.6 3.1c-2-.1-2.6.1-5.4 1.8l-.8-1.5.2-.2c.9.5 1.5-.2 2.2-.6 1.1-.7 2.9-.9 3.8-.2v.7Z" fill="#fd5c95"/>
    <path d="M287.4 218.7c-2-.5-3.4.3-4.9 1.3l-.7.5c-.6-.2-.4-.6-.2-1 1.6-1.3 3.4-2 5.6-1.7h.3l1 .7-1.2.2h.1Zm-6.8-2.7c1.5-1 3.2-1.4 5-1.8.3 0 .6 0 1 .2l.5.5-.7.2h-1.3c-1.6.3-3 1-4.3 2-.7-.3-.4-.7-.2-1Zm7.4 4.9c-1-.6-2.7-.4-3.8.3-.7.4-1.3 1.1-2.2.6v-.4c.8-.4 1.6-1 2.4-1.2 1-.3 2-.3 3.2-.5l.5.3.5.5-.6.5Z" fill="#c32c62"/>
    <path d="m286.4 216 .9.3c.4.3.4.6-.2.8-2.3-.7-4 .3-5.8 1.7-.7-.2-.4-.6-.2-1 1.6-1 3.3-1.8 5.3-1.8Z" fill="#c32c62"/>
    <path d="M281.3 218.8c1.7-1.4 3.5-2.5 5.8-1.7v.7c-2-.3-3.9.4-5.5 1.7l-.3-.7Zm5.1-2.8c-2 0-3.7.7-5.3 1.8l-.3-.8c1.3-.9 2.7-1.6 4.3-1.8h1l.3.8Z" fill="#fd5c95"/>
    <path d="m260.2 267 1-.4 1.2 4.4-.4.2-1.5-2.4-.3-1.8Z" fill="#9a9a9a"/>
    <path d="M280.1 256c-1.7 2-3.5 2-5.6.5-.9-.5-2.2-.5-3.2-.8l2.4-2.4.8.2c2.1.2 4 1.2 5.6 2.5Zm2.3-3.2-1.6 2.5c-1.9-1.4-4-2.3-6.3-2.7l1.3-1.5c.6-.1 1.1-.4 1.6-.4 2 0 3.6 1 5 2.1Zm1.6-3.3-1.2 2.3c-.6-.3-1-.6-1.7-.8-1.4-.7-2.8-1.5-4.5-1l.9-1.5h.7c2-.6 4-.2 5.8 1Zm2.3-5.9-1 2.4c-2-.6-4-1.2-6-.7 0-.3.3-.6.4-.9l1-.5c1.8-.9 3.7-1.3 5.6-.3Z" fill="#fd5c95"/>
    <path d="m286.8 240.8-.4 1.7c-2.1-.6-4.3-.3-6.2.7l.5-1.6c.3 0 .6-.1.8-.3 1.7-1.2 3.5-1.2 5.3-.5Zm-1.6 6.2-.7 1.7c-2-1-4.1-1.7-6.5-1l.8-1.3c2.2-.8 4.3-.4 6.4.7Zm3.2-17.3v1.6c-2 .2-3.8.7-5.4 2v-1.4l.9-.8c1.4-.9 2.8-1.8 4.5-1.4Zm.1 2.6-.5 2c-2 0-4 0-5.5 1.3v-1l.8-.5c1.5-1.4 3.2-2 5.2-1.8Zm-5.7-3 1-.7c1.2-1.2 3.2-1.6 4.6-1v1.1c-2 0-3.7.8-5.2 2l-.4-1.4Z" fill="#fd5c95"/>
    <path d="M286.8 240.8c-1.8-.7-3.6-.7-5.3.5-.2.2-.5.2-.8.3-.8-1 0-1.7.7-2.2v.9c2-1 3.8-.9 5.6-.5.4.2.9.4 1.2.7.2.1.1.4.2.6h-.6l-1-.3Zm-6.6 2.4c2-1 4-1.2 6.2-.7l.8.8c.2.2.2.6.2.8l-.7-.2-.4-.3c-2-1-3.8-.6-5.6.3l-1 .5c-.5-.7.1-1 .5-1.2Zm-2.2 4.4c2.4-.7 4.5 0 6.5 1.1l1.3 1-.3.4-1.4-.6c-1.7-1.2-3.9-1.6-6-1.1h-.6l.5-.8Zm-1.4 2.4c1.7-.5 3.1.3 4.5 1l1.7.8v.2l.8 1-1.2-.2c-1.4-1.2-3-2-5-2.1-.5 0-1 .3-1.6.4-.4-.8.3-1 .8-1.2Z" fill="#c32c62"/>
    <path d="M287.8 235.5v1.2c-2-.3-3.9.4-5.7 1.3v-1l.7-.4c1.5-1.2 3.2-1.7 5-1.1Z" fill="#fd5c95"/>
    <path d="M287.8 235.5c-1.9-.6-3.5 0-5 1.1l-.6.5c-.4-.6 0-1 .3-1.4 1.6-1.4 3.5-1.2 5.5-1.3l1 .4.8.6-.2.2h-1.8Zm-13.3 17c2.3.4 4.4 1.3 6.3 2.7l.4.8h-1.1c-1.6-1.4-3.5-2.3-5.6-2.6l-.8-.2c-.2-.7.2-.7.8-.7Zm10.7-5.6c-2-1-4.1-1.4-6.4-.7-.3-.5 0-.8.4-1 2.1-.4 4.2-.1 6.1.7l.8.7c.2.2.2.5.3.7h-.7l-.5-.4Zm-3.1-9c1.7-1 3.7-1.4 5.7-1.3l1.3.7h-1.4l-.3.2c-.6 0-1.2-.2-1.8 0l-4.2 1.8c-.4-.8.2-1 .7-1.4Zm1.1-7.2c1.5-1.2 3.2-2 5.2-2h.2l.9.8-1 .2c-1.8-.4-3.2.5-4.5 1.4l-1.1.8c-.7-.6-.2-1 .3-1.2Zm5.3 1.6c-2-.1-3.7.4-5.2 1.8l-.8.6.5-1.5c1.6-1.2 3.5-1.8 5.4-1.9l1.2.4v.4l-1.1.2Z" fill="#c32c62"/>
    <path d="M276.2 275c0-1.7-.2-3.3-.3-5l.5-.6 4.9-2.1c0 1.9.2 3.6.3 5.3l-5.4 2.3Zm-1.6.7-1.7.7-.3-4.3c0-1.2.7-1.4 1.6-1.6l.4 5.2Z" fill="#9a9a9a"/>
    <path d="m281.6 266.7 4.9-2v1.7c-1.5-.4-2.9-.3-4.2.4-.2.1-.4 0-.7-.1Z" fill="#ddd"/>
    <path d="M303.7 257.4c1.6.8 3.3.5 4.9 0 1-.2 2-.6 3-1 .8-.3 1.3-.3 1.9.2l2 1.6-20.9 9c-1.8-.7-2.3-2.6-1.2-4.3l.5-1 8.8-3.8 1-.7Z" fill="#9a9a9a"/>
    <path d="M260.5 268.8c-1.8-.9-3.5-.3-5.2.5v-.5l4.9-1.8.3 1.8Z" fill="#bfbfbf"/>
    <path d="m281.4 239.4 4.2-1.8c.5-.2 1.2 0 1.8 0l-.4 2.2c-1.8-.5-3.8-.3-5.5.5v-1h-.1Zm7.2-12.5c-1.7-.4-3.4 0-4.8.9l-.9.4v-1.3l.5-.4c1.4-1.5 3-1.8 5-1.3l.2 1.6Z" fill="#fd5c95"/>
    <path d="M288.4 224.2c-2-.5-3.8 0-5.4 1.4-.5-.6-.2-1 .2-1.3 1.4-1.3 3-2 5-1.6l.2 1.5Z" fill="#fd5c95"/>
    <path d="m295 213 2.4-.3c-.1.3-.3.5-.3.8.8 5 3.7 8.4 8.8 9.8 1.5.4 3.1.5 4.6-.1l4.6 6 1.5 2-1.8 1-7.6 5.4c-.3.2-.5.8-.4 1 .4 1.1.9 2.2 1.5 3.2.5.9 1 .8 1.7 0 .7-.7 1.4-1.5 2.2-2.1 2.4-2 5.1-3.4 8-4.5l1.4 1.6-4.6 2.2c-3.6 2.3-6.7 5.4-9.1 9-2 3-4.1 6-6.9 8.3-2.7 2.3-6 3.2-9.2 4.4l-17 6.3-11.4 4.2c-.3.1-.7-.1-1-.2l-1.3-4.3.2-2.1c.3-1.7 1.3-3.2 2.7-4.1l5-3.1 5.1 2.3c1 .5 2 1 3.1.6 1.3-.4 2.6-.9 3.7-1.6 4-2.6 7-6.4 8.6-10.9 2.3-5.9 3-12 3-18.4s-1-11.4-3-17l4.7.5c.9 10 10.7 15.4 16.7 13h-.1c-4.8.8-8.7-1-11.9-4.3-2.2-2.4-3.5-5.5-3.8-8.7h-.1Z" fill="#8fd4de"/>
    <path d="m269 257.3-5 3.1c-1.4.9-2.3 2.4-2.6 4.1l-4.5 1.6-19.6 7.2c-.5.2-1 .5-1.2-.1-.4-1.6-1-3.2-1-4.8-.3-2.8 1-5 3.5-6.3l4.3-2.6c1.5.7 3.1 1.3 4.6 2.2 2.1 1.3 4.2 1 6.2-.3 5.7-3.3 9-8.5 10.7-14.8 2.9-10.5 2.5-21.7-1.2-32l4.5.5.2.3c.5 3.3 1.9 6.4 4.2 8.8 2.4 2.7 5.9 4.3 9.5 4.4.7 0 1 .2 1.2.8l.4 1.4c-.5.3-1 .6-.4 1.2l.2 1.3-.5 1.5v.9c-.4.4-.7.8-.3 1.3v1c-.6.3-1.2.6-.8 1.4-.8.5-1.6 1.1-.7 2.2l-.5 1.6c-.4.3-1 .5-.5 1.2l-.5 1c-.5.1-.7.4-.4 1l-.8 1.2-.5.9-.9 1.4c-.5.3-1.2.3-.8 1.2l-1.3 1.5c-.6 0-1 0-.8.7l-2.5 2.4-1.6 1.3-.5.3h-.1Z" fill="#67a5b4"/>
    <path d="m245 257.8 1.7-1.6 2-2.2c.9-1.2 1.6-2.5 2.4-3.8.7-1 1.4-1.9 1.9-3 .6-1.2 1-2.5 1.4-3.8.1-.3.5-.6.5-.9.1-1 .6-2 .9-3 .1-.5.4-1.3.4-1.8-.2-1 .6-2 .4-3-.2-.8-.2-1.4.1-2v-.2c-.4-.9 0-1.8 0-2.8l-.3-.7c0-.2-.2-.5-.1-.6.3-.6.3-1.2-.2-1.7v-1.2l-.9-3v-.7c-.5-.8-.4-1.7-.8-2.5 0-.2-.3-.3-.3-.5l-.5-2.8c1.4-1 3.2-1.3 5-1.4.5.6.3 1.6 1.3 1.9.4 0 .7.3 1 .5l-1 .8c.4.3 1 .4 1.2.7.1.3-.2.9-.3 1.1l1.5 1.2-1.4.4 1.5 1.7-.7.5c-.3.7 2.6.8.2 1.7 0 .7 0 1.4 1 1.5l.4.6-.6.3h-.8l.7 1.4c.1.3.4.5.6.7l-1 .6v.6l1 1-1 .5v1.1l1 1-1 .4q-.4 1.5.9 2.3l.3.5-.5.2c-.4 0-.8 0-1.2-.2v1l1.2.9-1.6.5-.3 1.7 1.2 1.4-1.5.2c-.1.4-.8 1 0 1.8.3.3.4.7.6 1.1l-1.4-.2-.6 2 .9 1.5h-1.4q-.5 1 .4 2l.2.7h-.8l-.6-.6-1.2 2.3.6 1.3H256l-1.4 1.9.4 1.1h-1c-.2 0-.4.2-.5.3l-1 .8c-.7.4-1.4 1-2.2.5-1.6-1-3.4-1.7-5.3-2Z" fill="#30657e"/>
    <path d="M282.4 281.3c-2.6 1.2-5.2 2.4-7.8 3.4-2.7 1-5.5 1.8-8.4 1.6-.7 0-1.4-.2-2-.4-1.7-.4-2.6-1.7-2.8-3.7v-.9c.3-1.2.5-2.4 1-3.5.7-1.5.5-2.9.2-4.3 2.4-.8 5-1.4 7.3-2.2l7.5-3.2 4.2-1.4c.2 0 .5.2.7.1 1.3-.7 2.7-.8 4.3-.4v-1.6l1.9-.8.2 1 .3 5.7.4 7.6-2.1 1-.2-1.9-.4-5.5 1.2-1.7-.2-.2-6.1 2.6-.3-5.3-5 2.1-.4.7.3 4.8-1.6.7-.4-5.2c-.9.2-1.6.5-1.5 1.6l.2 4.3-.6.4c1.4.6 2.7.4 3.8 0l5.9-2.5.2 4.4.2 2.7Z" fill="#767b7e"/>
    <path d="m288.5 264-2 .8-4.9 1.9c-1.4.5-2.9.9-4.3 1.5-2.5 1-4.9 2.2-7.4 3.1-2.4.9-4.9 1.5-7.3 2.2-.6 0-.9-.2-1-.8l.4-1.5.4-.2c.3 0 .8.3 1 .2l11.4-4.2c5.7-2 11.4-4.1 17-6.3 3.2-1.2 6.6-2 9.2-4.4 2.7-2.4 5-5.2 7-8.2 2.4-3.6 5.3-6.8 9-9 1.5-1 3-1.6 4.6-2.3 1.7 1.9 2.4 4.2 3 6.6l.7 3.4c.1 1 0 2-1 2.7l-7 2.5-3.8 1.3c-.4-1.6-.7-3.2-1.2-4.7-.2-.6-.7-1.5-1-1.5-.6 0-1.3.6-1.8 1l-.5.6-3.5 5.7-1.8 3c-.3.2-.6.5-1 .6l-8.8 4-5.4 2Z" fill="#39312c"/>
    <path d="m256.2 283.4-9.3 3.9c-2.6 1.1-5.5 1.4-8.3 1-2.3-.5-3.5-2-3.4-4.3 0-3 1.6-5.5 3.3-7.9l.8-1 10.7-4.2 5.2-2v.4l-8.1 3.5c-1.1.5-2 1.2-2.4 2.3-.8 1.8 0 3.4 1.8 4 1 .3 2.2.2 3.3-.3l5.7-2.4.3 1 .4 6Z" fill="#676e72"/>
    <path d="m317.3 252 7-2.5 2.3 3.5c2 2.5 4.6 3 7.6 2.4 1.3-.3 2.6-.7 3.8-1.2.8-.3 1.3-.3 1.8.3l1.8 1.5-27.2 11.6v-1.3l-.4-5.9c1.5-.7 3.1-1.3 4.6-2.2 1.2-.8 1.9-2 1.7-3.5-.2-1.4-1.2-1.9-2.3-2.3l-.7-.4Z" fill="#767b7e"/>
    <path d="m269.7 257 1.6-1.3c1 .3 2.3.3 3.2.9 2.1 1.4 4 1.5 5.6-.6h1.1l-.4-.7 1.6-2.5 1.2.2-.7-1h-.1l1.2-2.5 1.5.6.3-.4-1.3-1 .7-1.6.5.2h.7c-.1 0-.1-.4-.3-.6l-.8-.7 1-2.4.4.3.7.3c0-.3 0-.7-.2-.9l-.8-.8.4-1.7 1 .3h.5v-.6l-1.3-.7.4-2.1h.3l1.4-.3-1.3-.7v-1.2l1.8.2v-.3c-.1-.2-.4-.5-.7-.6l-1-.4.5-2 1.1-.2v-.3l-1.1-.4v-1.7l1-.2-.9-.7h-.2v-1.2h.5l.6-.2-.4-.6h-.5l-.2-1.8h1.1l-.6-.7h-.5v-1.7l.5-.4-.8-.5v-.7l.5-.4-.5-.6-.5-.2-.2-1.1 1.2-.2-1-.7h-.4v-.8c.6-.1.5-.5.1-.8l-.9-.3-.3-.8h.4l.7-.3-.6-.5-1-.2-.7-1.7h3.5c2 4.3 2.8 8.8 3.3 13.5.6 6.3-.2 12.6-1.8 18.7-1.2 5.5-4.4 10.3-9 13.6-2.4 1.7-4.6 2-7.2.3-1.1-.8-2.6-1-4-1.5Z" fill="#8fd4de"/>
    <path d="M245 257.8c1.9.3 3.7 1 5.3 2 .8.6 1.5 0 2.2-.5l1-.8.5-.3h1l-.4-1.1 1.4-2h1.4l-.6-1.2 1.2-2.3.6.5h.8s0-.5-.3-.7q-.8-.9-.3-2h1.4l-1-1.4.7-2 1.4.2c-.2-.3-.3-.8-.6-1-.8-.9-.1-1.5 0-2h1.5l-1.3-1.5.4-1.7 1.6-.5-1.3-.9v-1l1.3.2.5-.2-.3-.5c-1.3-.8-1.3-.7-1-2.3l1.2-.5-1.1-1v-1l1-.6-1-.9v-.6l1-.6-.7-.6-.6-1.5h.8l.6-.3-.4-.6c-1 0-1-.7-1-1.5 2.4-.9-.5-1-.2-1.7l.7-.5-1.5-1.7 1.4-.4-1.5-1.2c0-.2.4-.8.3-1-.2-.4-.8-.5-1.2-.8l1-.8-1-.5c-1-.3-.8-1.3-1.3-1.9h3.8l1 3.6c1.1 3.6 1.8 7.3 2 11 .4 6.2-.4 12.2-2 18.2-1.3 5.5-4.7 10.3-9.4 13.5-1.6 1-3.4 1.6-5.1.6-1.8-1-3.5-2-5.4-2.4l1.5-1.3Z" fill="#67a5b4"/>
    <path d="m288.5 264 5.4-2-.5 1c-1.1 1.6-.6 3.5 1.2 4.2 1.4.8 2.8.3 4.1-.2l.2 1 .5 6.1-10 4.2-.4-7.6-.3-5.7-.2-1Z" fill="#9ca0a2"/>
    <path d="M288.4 224.2c.2 0 .3 0 .5.2l.6.6h-1.2c-1.9-.4-3.6 0-5 1.4l-.5.4-.4-1c-7-.1-11.2-5.3-11.7-10.8l5.2-1c.7-.2.7.3 1 .6l5 7.5.7 1.5c2.8-1.7 3.5-2 5.4-1.8l.8.5-.6.4c-2-.4-3.6.4-5 1.6-.4.3-.7.7-.2 1.3 1.4-1.4 3.5-1.9 5.4-1.4Z" fill="#30657e"/>
    <path d="M310.6 223.2c-1.6.6-3.2.5-4.7 0-5-1.3-8-4.7-8.8-9.7 0-.3.2-.5.3-.8l5.3-1c1 1.7 2 3.5 3.1 5.1 1.5 2.2 3.2 4.3 4.8 6.4Z" fill="#528ea0"/>
    <path d="m255.2 268.9-5.2 2-10.7 4.2-3.7.7c-.2-1-.1-1.9.5-2.6.3.6.7.3 1.2.1l19.6-7.2 4.5-1.6-.2 2.1-1 .4-5 1.8Z" fill="#39312c"/>
    <path d="m314 260.4.3 6v1.2l-6.3 2.8-.3-1.6-.3-5.6 6.6-2.8Z" fill="#9ca0a2"/>
    <path d="m317 231.5 3 3.3c-4 1.6-7.8 3.6-10.9 7l-1-2.2c-.6-1.2-.5-1.7.6-2.6l2.7-2 5.6-3.5Z" fill="#8fd4de"/>
    <path d="M269.7 257c1.3.5 2.8.8 4 1.6 2.6 1.7 4.8 1.3 7.2-.4 4.7-3.3 7.5-8 9-13.5 1.7-6.1 2.2-12.5 1.7-18.8-.4-4.6-1.3-9.2-3.2-13.5h1c2 5.5 3.1 11.2 3.2 17 0 6.3-.8 12.5-3 18.4-1.6 4.5-4.7 8.3-8.7 10.9-1.1.7-2.4 1.1-3.6 1.6-1.1.3-2.2-.2-3.2-.6l-5-2.4.6-.3Z" fill="#528ea0"/>
    <path d="M243.5 259c2 .6 3.7 1.6 5.4 2.5 1.8 1 3.5.4 5-.6 5-3.3 8-8 9.5-13.5 1.7-5.9 2.3-12.1 2-18.2-.2-3.7-.9-7.4-2-11l-1-3.5h.8c3.7 10.3 4.1 21.5 1.2 32-1.7 6.2-5 11.4-10.7 14.8-2 1.1-4 1.5-6.2.2-1.5-1-3-1.5-4.6-2.2l.6-.4Z" fill="#30657e"/>
    <path d="M270.8 215c.5 5.5 4.5 10.6 11.6 10.8l.4 1v1.3c-2.5.2-4.9-.5-7-1.9-4-2.4-6.6-6.6-7-11.2h2Z" fill="#67a5b4"/>
    <path d="m307.4 263.3.3 5.5.3 1.6-5.5 2.4v-1l-.5-6.2 5.4-2.3Z" fill="#767b7e"/>
    <path d="m256.2 283.4-.4-6-.2-1 4.9-2.3v1.2l.5 6.1-4.8 2Z" fill="#898f91"/>
    <path d="m282.4 281.3-.2-2.7-.2-4.5 4.7-2.2.4 5.5.2 1.9-4.9 2Z" fill="#9ca0a2"/>
    <path d="M268.8 215c.6 4.9 2.8 8.7 7 11.3s4.5 2 7 1.8l1-.4c1.4-1 3-1.3 4.8-1l.4.2.4.6-.6.2h-.4c-1.4-.6-3.4-.2-4.7 1-.2.3-.6.5-.9.7-.1-.6-.5-.8-1.2-.8-3.7-.2-7-1.5-9.5-4.4-2.3-2.4-3.7-5.5-4.2-8.8l-.2-.3h1.1Z" fill="#30657e"/>
    <path d="m317 231.5-5.6 3.5c-1 .6-1.8 1.3-2.7 2-1 .9-1.2 1.4-.6 2.6l1 2.1c3.1-3.3 6.8-5.3 10.8-6.9l.3.4c-2.9 1.1-5.6 2.6-8 4.5-.8.6-1.5 1.4-2.2 2.2-.7.7-1.1.7-1.6-.1-.7-1-1.2-2.1-1.6-3.2 0-.3.2-.8.4-1l7.7-5.4c.5-.4 1.2-.6 1.8-1l.3.3ZM295 213c.4 3.2 1.7 6.1 4 8.5 3.2 3.4 7 5.1 11.8 4.3h.1c-6 2.4-15.8-3-16.7-13h.9v.2Z" fill="#528ea0"/>
    <path d="m261 281.4-.4-6.1v-1.2l1.1-1.4c0 .5.3.8.9.8.3 1.4.5 2.8-.2 4.3-.5 1.1-.7 2.3-1 3.5h-.4Z" fill="#676e72"/>
    <path d="m284.9 212.5.7 1.7c-1.8.4-3.5.8-5 1.9-1.1-2.6-1.5-2.1 1.3-3.2.9-.3 2-.3 3-.4Z" fill="#528ea0"/>
    <path d="m302 265.6.4 6.3v.9l-1.6.6v-.5l-.4-6.7 1.6-.6Z" fill="#9ca0a2"/>
    <path d="m300.4 266.3.4 6.6v.6l-1.4.6-.5-6-.2-1.1 1.7-.8Z" fill="#767b7e"/>
    <path d="M287.4 218.7c0 .4 0 .8.2 1.1-1.1.2-2.2.2-3.2.5-.8.3-1.6.8-2.3 1.2l-.3-1 .7-.5c1.5-1 3-1.8 4.8-1.3Zm.6 3.1c-2-.1-2.6.1-5.4 1.8l-.8-1.5.2-.2c.9.5 1.5-.2 2.2-.6 1.1-.7 2.9-.9 3.8-.2v.7Z" fill="#528ea0"/>
    <path d="M287.4 218.7c-2-.5-3.4.3-4.9 1.3l-.7.5c-.6-.2-.4-.6-.2-1 1.6-1.3 3.4-2 5.6-1.7h.3l1 .7-1.2.2h.1Zm-6.8-2.7c1.5-1 3.2-1.4 5-1.8.3 0 .6 0 1 .2l.5.5-.7.2h-1.3c-1.6.3-3 1-4.3 2-.7-.3-.4-.7-.2-1Zm7.4 4.9c-1-.6-2.7-.4-3.8.3-.7.4-1.3 1.1-2.2.6v-.4c.8-.4 1.6-1 2.4-1.2 1-.3 2-.3 3.2-.5l.5.3.5.5-.6.5Z" fill="#30657e"/>
    <path d="m286.4 216 .9.3c.4.3.4.6-.2.8-2.3-.7-4 .3-5.8 1.7-.7-.2-.4-.6-.2-1 1.6-1 3.3-1.8 5.3-1.8Z" fill="#30657e"/>
    <path d="M281.3 218.8c1.7-1.4 3.5-2.5 5.8-1.7v.7c-2-.3-3.9.4-5.5 1.7l-.3-.7Zm5.1-2.8c-2 0-3.7.7-5.3 1.8l-.3-.8c1.3-.9 2.7-1.6 4.3-1.8h1l.3.8Z" fill="#528ea0"/>
    <path d="m260.2 267 1-.4 1.2 4.4-.4.2-1.5-2.4-.3-1.8Z" fill="#676e72"/>
    <path d="M280.1 256c-1.7 2-3.5 2-5.6.5-.9-.5-2.2-.5-3.2-.8l2.4-2.4.8.2c2.1.2 4 1.2 5.6 2.5Zm2.3-3.2-1.6 2.5c-1.9-1.4-4-2.3-6.3-2.7l1.3-1.5c.6-.1 1.1-.4 1.6-.4 2 0 3.6 1 5 2.1Zm1.6-3.3-1.2 2.3c-.6-.3-1-.6-1.7-.8-1.4-.7-2.8-1.5-4.5-1l.9-1.5h.7c2-.6 4-.2 5.8 1Zm2.3-5.9-1 2.4c-2-.6-4-1.2-6-.7 0-.3.3-.6.4-.9l1-.5c1.8-.9 3.7-1.3 5.6-.3Z" fill="#528ea0"/>
    <path d="m286.8 240.8-.4 1.7c-2.1-.6-4.3-.3-6.2.7l.5-1.6c.3 0 .6-.1.8-.3 1.7-1.2 3.5-1.2 5.3-.5Zm-1.6 6.2-.7 1.7c-2-1-4.1-1.7-6.5-1l.8-1.3c2.2-.8 4.3-.4 6.4.7Zm3.2-17.3v1.6c-2 .2-3.8.7-5.4 2v-1.4l.9-.8c1.4-.9 2.8-1.8 4.5-1.4Zm.1 2.6-.5 2c-2 0-4 0-5.5 1.3v-1l.8-.5c1.5-1.4 3.2-2 5.2-1.8Zm-5.7-3 1-.7c1.2-1.2 3.2-1.6 4.6-1v1.1c-2 0-3.7.8-5.2 2l-.4-1.4Z" fill="#528ea0"/>
    <path d="M286.8 240.8c-1.8-.7-3.6-.7-5.3.5-.2.2-.5.2-.8.3-.8-1 0-1.7.7-2.2v.9c2-1 3.8-.9 5.6-.5.4.2.9.4 1.2.7.2.1.1.4.2.6h-.6l-1-.3Zm-6.6 2.4c2-1 4-1.2 6.2-.7l.8.8c.2.2.2.6.2.8l-.7-.2-.4-.3c-2-1-3.8-.6-5.6.3l-1 .5c-.5-.7.1-1 .5-1.2Zm-2.2 4.4c2.4-.7 4.5 0 6.5 1.1l1.3 1-.3.4-1.4-.6c-1.7-1.2-3.9-1.6-6-1.1h-.6l.5-.8Zm-1.4 2.4c1.7-.5 3.1.3 4.5 1l1.7.8v.2l.8 1-1.2-.2c-1.4-1.2-3-2-5-2.1-.5 0-1 .3-1.6.4-.4-.8.3-1 .8-1.2Z" fill="#30657e"/>
    <path d="M287.8 235.5v1.2c-2-.3-3.9.4-5.7 1.3v-1l.7-.4c1.5-1.2 3.2-1.7 5-1.1Z" fill="#528ea0"/>
    <path d="M287.8 235.5c-1.9-.6-3.5 0-5 1.1l-.6.5c-.4-.6 0-1 .3-1.4 1.6-1.4 3.5-1.2 5.5-1.3l1 .4.8.6-.2.2h-1.8Zm-13.3 17c2.3.4 4.4 1.3 6.3 2.7l.4.8h-1.1c-1.6-1.4-3.5-2.3-5.6-2.6l-.8-.2c-.2-.7.2-.7.8-.7Zm10.7-5.6c-2-1-4.1-1.4-6.4-.7-.3-.5 0-.8.4-1 2.1-.4 4.2-.1 6.1.7l.8.7c.2.2.2.5.3.7h-.7l-.5-.4Zm-3.1-9c1.7-1 3.7-1.4 5.7-1.3l1.3.7h-1.4l-.3.2c-.6 0-1.2-.2-1.8 0l-4.2 1.8c-.4-.8.2-1 .7-1.4Zm1.1-7.2c1.5-1.2 3.2-2 5.2-2h.2l.9.8-1 .2c-1.8-.4-3.2.5-4.5 1.4l-1.1.8c-.7-.6-.2-1 .3-1.2Zm5.3 1.6c-2-.1-3.7.4-5.2 1.8l-.8.6.5-1.5c1.6-1.2 3.5-1.8 5.4-1.9l1.2.4v.4l-1.1.2Z" fill="#30657e"/>
    <path d="M276.2 275c0-1.7-.2-3.3-.3-5l.5-.6 4.9-2.1c0 1.9.2 3.6.3 5.3l-5.4 2.3Zm-1.6.7-1.7.7-.3-4.3c0-1.2.7-1.4 1.6-1.6l.4 5.2Z" fill="#898f91"/>
    <path d="m281.6 266.7 4.9-2v1.7c-1.5-.4-2.9-.3-4.2.4-.2.1-.4 0-.7-.1Z" fill="#9ca0a2"/>
    <path d="M303.7 257.4c1.6.8 3.3.5 4.9 0 1-.2 2-.6 3-1 .8-.3 1.3-.3 1.9.2l2 1.6-20.9 9c-1.8-.7-2.3-2.6-1.2-4.3l.5-1 8.8-3.8 1-.7Z" fill="#676e72"/>
    <path d="M260.5 268.8c-1.8-.9-3.5-.3-5.2.5v-.5l4.9-1.8.3 1.8Z" fill="#898f91"/>
    <path d="m281.4 239.4 4.2-1.8c.5-.2 1.2 0 1.8 0l-.4 2.2c-1.8-.5-3.8-.3-5.5.5v-1h-.1Zm7.2-12.5c-1.7-.4-3.4 0-4.8.9l-.9.4v-1.3l.5-.4c1.4-1.5 3-1.8 5-1.3l.2 1.6Z" fill="#528ea0"/>
    <path d="M288.4 224.2c-2-.5-3.8 0-5.4 1.4-.5-.6-.2-1 .2-1.3 1.4-1.3 3-2 5-1.6l.2 1.5Z" fill="#528ea0"/>
</svg>
