<svg xmlns="http://www.w3.org/2000/svg" xmlns:xlink="http://www.w3.org/1999/xlink" width="335" height="335" data-name="Layer 1">
  <defs>
    <linearGradient id="a" x1="207" x2="335.5" y1="265.1" y2="265.1" gradientUnits="userSpaceOnUse">
      <stop offset="0" stop-color="#eb9e00"/>
      <stop offset="1" stop-color="#fac100"/>
    </linearGradient>
    <linearGradient xlink:href="#a" id="g" x1="303.7" x2="323" y1="293.6" y2="293.6"/>
    <linearGradient xlink:href="#a" id="h" x1="319.1" x2="324.8" y1="285.1" y2="285.1" gradientTransform="rotate(-45 322.6 284.4)"/>
    <linearGradient xlink:href="#a" id="i" x1="310.8" x2="322.7" y1="290.2" y2="290.2"/>
    <linearGradient id="c" x1="121.2" x2="242.9" y1="-2" y2="192.6" gradientUnits="userSpaceOnUse">
      <stop offset="0" stop-color="#606060"/>
      <stop offset="1"/>
    </linearGradient>
    <linearGradient xlink:href="#a" id="j" x1="69.3" x2="200.3" y1="188.2" y2="188.2"/>
    <linearGradient id="b" x1="264.4" x2="335" y1="87.8" y2="87.8" gradientUnits="userSpaceOnUse">
      <stop offset="0" stop-color="#393939"/>
      <stop offset="1" stop-color="#4b4b4b"/>
    </linearGradient>
    <linearGradient xlink:href="#b" id="m" x1="273.6" y1="101.7" y2="101.7"/>
    <linearGradient xlink:href="#b" id="n" x1="282.9" y1="115.6" y2="115.6"/>
    <linearGradient xlink:href="#b" id="o" x1="292.1" y1="129.4" y2="129.4"/>
    <linearGradient xlink:href="#b" id="p" x1="301.3" y1="143.3" y2="143.3"/>
    <linearGradient xlink:href="#b" id="q" x1="310.1" y1="156.6" y2="156.6"/>
    <linearGradient xlink:href="#b" id="r" x1="318.8" y1="169.7" y2="169.7"/>
    <linearGradient xlink:href="#b" id="s" x1="200.8" x2="265.9" y1="30.7" y2="30.7"/>
    <linearGradient xlink:href="#b" id="t" x1="210" x2="284.4" y1="35.3" y2="35.3"/>
    <linearGradient xlink:href="#b" id="u" x1="219.2" x2="303" y1="39.9" y2="39.9"/>
    <linearGradient xlink:href="#b" id="v" x1="228.4" x2="321.5" y1="44.5" y2="44.5"/>
    <linearGradient xlink:href="#b" id="w" x1="237.7" y1="49.1" y2="49.1"/>
    <linearGradient xlink:href="#b" id="x" x1="246.5" y1="60.8" y2="60.8"/>
    <linearGradient xlink:href="#b" id="y" x1="255.2" y1="73.9" y2="73.9"/>
    <linearGradient xlink:href="#b" id="z" x1="146.4" x2="156.4" y1="3.5" y2="3.5"/>
    <linearGradient xlink:href="#b" id="A" x1="155.6" x2="174.9" y1="8.1" y2="8.1"/>
    <linearGradient xlink:href="#b" id="B" x1="164.8" x2="193.5" y1="12.7" y2="12.7"/>
    <linearGradient xlink:href="#b" id="C" x1="174" x2="212" y1="17.3" y2="17.3"/>
    <linearGradient xlink:href="#b" id="D" x1="182.8" x2="229.7" y1="21.7" y2="21.7"/>
    <linearGradient xlink:href="#b" id="E" x1="191.6" x2="247.3" y1="26.1" y2="26.1"/>
    <linearGradient xlink:href="#a" id="F" x1="240.1" x2="278.8" y1="102.7" y2="102.7"/>
    <linearGradient xlink:href="#c" id="G" x1="21.6" x2="256.3" y1="-37.8" y2="132"/>
    <linearGradient xlink:href="#a" id="H" x1="243.1" x2="327.8" y1="48.4" y2="48.4" gradientTransform="rotate(-1.9 -490.8 -17.5)"/>
    <filter id="k" data-name="drop-shadow-4" filterUnits="userSpaceOnUse">
      <feOffset dx="3" dy="4"/>
      <feGaussianBlur result="uuid-1156412d-cb5f-4d8e-8357-aaf2ee0e4a9c" stdDeviation="5"/>
      <feFlood flood-color="#000" flood-opacity=".8"/>
      <feComposite in2="uuid-1156412d-cb5f-4d8e-8357-aaf2ee0e4a9c" operator="in"/>
      <feComposite in="SourceGraphic"/>
    </filter>
    <filter id="l" data-name="drop-shadow-5" filterUnits="userSpaceOnUse">
      <feOffset dx="3" dy="4"/>
      <feGaussianBlur result="uuid-923d5208-8073-4955-a064-4b9fddfc3be6" stdDeviation="5"/>
      <feFlood flood-color="#000" flood-opacity=".8"/>
      <feComposite in2="uuid-923d5208-8073-4955-a064-4b9fddfc3be6" operator="in"/>
      <feComposite in="SourceGraphic"/>
    </filter>
    <filter id="I" data-name="drop-shadow-6" filterUnits="userSpaceOnUse">
      <feOffset dx="3" dy="4"/>
      <feGaussianBlur result="uuid-340c60ea-ec72-4a5e-bfee-f0c00975bbda" stdDeviation="5"/>
      <feFlood flood-color="#000" flood-opacity=".8"/>
      <feComposite in2="uuid-340c60ea-ec72-4a5e-bfee-f0c00975bbda" operator="in"/>
      <feComposite in="SourceGraphic"/>
    </filter>
    <clipPath id="d">
      <path fill="none" d="M-144.1 202.5H-19v125.1h-125.1z"/>
    </clipPath>
    <clipPath id="f">
      <path fill="none" d="M-144.1 202.5H-19v125.1h-125.1z"/>
    </clipPath>
    <image xlink:href="male-athlete-practicing-throwing-javelin-dark_11zon.jpg" id="e" width="3278" height="1888"/>
  </defs>
  <g clip-path="url(#d)">
    <use xlink:href="#e" transform="matrix(.07 0 0 .07 -165.2 200.5)"/>
  </g>
  <g clip-path="url(#f)">
    <use xlink:href="#e" transform="matrix(.07 0 0 .07 -165.2 200.5)"/>
  </g>
  <path fill="#fff" d="M0 0h335v335H0z"/>
  <path fill="url(#a)" d="M207 198.6h128.5v133H207z"/>
  <path fill="#1a1a1a" d="M210.9 202.5H336v125.1H210.9z"/>
  <path fill="url(#g)" d="M323 294.4v6c0 1.6-1.3 2.9-2.8 2.9h-13.7a2.8 2.8 0 0 1-2.8-2.8v-13.8c0-1.5 1.2-2.7 2.8-2.7h6.2c.4 0 .8.3.8.7 0 .5-.4.8-.8.8h-6c-.8 0-1.6.8-1.6 1.7v13c0 1 .8 1.7 1.7 1.7h13c.9 0 1.7-.8 1.7-1.7v-5.8c0-.5.3-.8.7-.8.5 0 .8.3.8.8Z"/>
  <path fill="url(#h)" d="M322.6 282.6c1.7 0 3.2 1.4 3.2 3.1v.5h-6.4v-.5c0-1.7 1.4-3.1 3.2-3.1Z" transform="rotate(45 322.6 284.4)"/>
  <path fill="url(#i)" d="m322.7 288.8-6.7 6.7h-.3l-4.4.6c-.2 0-.5-.2-.5-.4l.6-4.4v-.3l6.8-6.8 4.5 4.6Z"/>
  <path fill="url(#c)" d="M335 0v177.7l-16.5 3-5.1 1-6 1.1-1.3.3a2100.4 2100.4 0 0 0-56.8 11.7l-.5.1-.8.2c-3-2-7.7-4.9-13.5-7.9-9.2-4.7-16.6-7-19.8-8.4-14-5.8-31-12.5-38.1-15-46.8-16.4-74 5.8-132.8-5.8A196.3 196.3 0 0 1 0 144.1V0h335Z"/>
  <path fill="#c66708" d="m248 195.1-38.4-40-30.7 12.5 69 27.5Z"/>
  <path fill="url(#j)" d="m0 147.9 209.8 7.3-171.4 73.2L0 147.9Z" filter="url(#k)"/>
  <path fill="#eeac01" d="m65.7 151-3.4 9.7-23.8 66.7-.8-1.7-8.9-17.4v-.1L0 151.7l-.1-.2.1-2.4v-3h.2l5.4.4a8308.2 8308.2 0 0 0 38.6 3l21.5 1.6Z"/>
  <path fill="#c56601" d="M38.2 228.3 0 185.3v-42.6l16-4.5 2.9-.8 2.2 10.3.2 1 .8 3.8 15.6 73.2.4 2.1.1.5Z"/>
  <path fill="#efab02" d="m.3 136.8 18.2.6-18.3 6.4.1-7Z" filter="url(#l)"/>
  <path fill="url(#b)" d="M335 50.6v7.6L267.3 125l-2.9-2.9L335 50.6z"/>
  <path fill="url(#m)" d="M335 69.1v7.4l-55.5 54.8-2.9 2.9-3-2.9 3.4-3.4 55.5-56.2 1.3-1.4 1.2-1.2z"/>
  <path fill="url(#n)" d="M335 87.7v7.1l-49.2 48.6-2.9-2.9L335 87.7z"/>
  <path fill="url(#o)" d="M335 106.3v6.8l-40 39.5-2.9-2.9 42.9-43.4z"/>
  <path fill="url(#p)" d="M335 124.8v6.7l-30.8 30.4-2.9-3 33.7-34.1z"/>
  <path fill="url(#q)" d="M335 142.5v6.4l-22 21.8-2.9-3 24.9-25.2z"/>
  <path fill="url(#r)" d="M335 160.1v6.2l-13.2 13.1-3-2.9 16.2-16.4z"/>
  <path fill="url(#s)" d="m265.9 0-62.2 61.4-2.9-3L258.5 0h7.4z"/>
  <path fill="url(#t)" d="m284.4 0-71.5 70.6-2.9-2.9L276.8 0h7.6z"/>
  <path fill="url(#u)" d="m303 0-80.8 79.8-3-2.9 76-76.9h7.8z"/>
  <path fill="url(#v)" d="m321.5 0-90.1 89-2.9-2.9 85-86.1h8z"/>
  <path fill="url(#w)" d="M335 0v5l-94.4 93.2-2.9-2.9L331.8 0h3.2z"/>
  <path fill="url(#x)" d="M335 14.5v8L249.4 107l-2.9-2.9L335 14.5z"/>
  <path fill="url(#y)" d="M335 32.1v7.8l-76.9 75.9-2.9-2.9L335 32.1z"/>
  <path fill="url(#z)" d="m156.4 0-7.1 7-2.9-3 4-4h6z"/>
  <path fill="url(#A)" d="m174.9 0-16.4 16.2-2.9-2.9L168.7 0h6.2z"/>
  <path fill="url(#B)" d="m193.5 0-25.7 25.4-3-2.9L187 0h6.5z"/>
  <path fill="url(#C)" d="m212 0-35 34.6-3-2.9L205.3 0h6.7z"/>
  <path fill="url(#D)" d="m229.7 0-43.9 43.4-2.9-2.9L222.8 0h6.9z"/>
  <path fill="url(#E)" d="m247.3 0-52.8 52.2-2.9-3L240.2 0h7.1z"/>
  <path fill="#d87847" d="M274.2 121.1a13.3 13.3 0 0 0-1.3-2.8c-.7-1-1.6-1.7-2.8-2l-1-.2a10 10 0 0 0-5.4 1c-2 1-4 2.2-5.9 3.3l-1.7 1-.3.4a187.8 187.8 0 0 0-16.4 16.6 4.7 4.7 0 0 0-.2 5.3l1.7 2.9.9.7 9.2 7.5c3.3 2.8 6 6.1 7.8 10 .8.8.8 1.7.7 2.6l-.5 2.1c1-.2 1.8-.8 2.8 0h2.8c1.7-.2 2-.6 2.3-2.2l.6-2.5-1.5-3.2-.8-1.1c-2-4.4-4.4-8.5-7.1-12.5l-5.9-6.3 1-.8 10.4-5.3c.8-.4 1.6-1 2.6-.7.3-.8 1.2-1 1.9-1.5l5.3-3a2 2 0 0 0 1.4-1.8c.2-2.5.2-5-.6-7.5Zm-28.7 26a8.6 8.6 0 0 1-4.3-3.5c1.4-.4 2.8-.3 3.8.7.7.8 1.2 1.7.5 2.8Zm54.1-70.5c-1.2 1.6-2.5 3.2-3.4 4.9a8.5 8.5 0 0 1-5.5 4.1l-14 4c-2.6.8-5.2 1.3-7.9 1.3h-4.2l-1.6.2a8.2 8.2 0 0 0 0 3.5l.4 2a10.2 10.2 0 0 1-5.7-8.2 14 14 0 0 1 3-11.2c3.4-.5 6.6 0 9.7 1.3a15 15 0 0 0 10.6.4l5.8-1.3a7 7 0 0 0 3.9-2l5-5.6 5.6-4.8c1.6-1.4 3.3-2.8 5-4 1-.8 2.2-1.5 3.6-1.6l2.5.5c.5 0 1-.2 1.5-.5.3-.2.2-.7.3-1 1.5-.7 2.8 0 4 .6 1.4.6 2.7 1.6 4.1 2.4v1.7l-2.4 1.5a23 23 0 0 1-7.3.5c-2.5-.2-4.4.7-6 2.6-1.6 2.2-3.5 4.1-5.2 6.2-.7.8-1.2 1.7-1.8 2.5Z"/>
  <path fill="#c25c2f" d="M266.2 135c.4-1 1.2-1.2 1.9-1.6l5.3-2.9c.8-.4 1.3-1 1.4-2 1 .3 1.4-.5 2.1-.7l6.8 9.4a5.7 5.7 0 0 0 2.1 2.6l1.2.8c7.7 4.6 13.8 11 20 17.5-.3 1.1.3 2 .6 3 .4 1.4.2 2.6-1.2 3.4l-1.7 1.4-1 .2a21.1 21.1 0 0 0-8-7.5l-1.2-1c-3.7-2.6-7.7-5-12-6.6a12 12 0 0 1-6.4-5.6l-1.5-2c-.8-1-1.5-2-2.5-3-1.9-1.9-4-3.6-6-5.5Zm-65-48c1.4-.1 2.6-1 3.9-1.6a83 83 0 0 1 13.8-5.6c3.6-1.2 7.1-2.3 10.6-3.7 3.9-1.4 7.8-2.3 11.8-2.9.3 2.1 1.5 4 2.3 6l-2.8 6-1.9-.7a6 6 0 0 0-3.3-.2c-3.4.7-6.8 1.2-10.3 2-1.8.3-3.7.7-5.4 1.3-5.4 2-11 3.4-16.5 5l-1.9.6c-.7.2-1.3.6-1.6 1.4l-1.4 2.4-1 2c-.4.7-1.1 1-2 .8-2.1-.5-4.2-1.4-6-2.9-1.3-1.2-1.6-2.2-.7-3.7 1.7-2.9 3.8-5 7.5-5.2 1.7 0 3.3-.2 4.8-1ZM302 54l-52-30-4.6-2.9.4-1.5 3.7 2L301 51.3c.7.5 1.5.8 2.3 1.2L302 54Zm33 17v2l-2.5-1.4-6.4-3.7-.6-.3-1.5-1 .6-1.5 2 1 .2.2 7 4 1.2.7Z"/>
  <path fill="#eeac01" d="M304.7 165.9c.6-.5 1.1-1 1.8-1.4 1.3-.8 1.5-2 1-3.4-.2-1-.8-1.9-.6-3 1.4.2 2.8-.2 4 .6-.2 2.9-1.2 5.4-2.9 7.8a7.6 7.6 0 0 0-1.5 5.7c.2 1.2.6 2.4.9 3.5 0 .3.4.4.7.7V173c0-3 1.4-5.4 3-7.7.1-.2.3-.2.5-.3-.7 2.8-1.4 5.6-1.4 8.5a24.2 24.2 0 0 1-.9 5.5c-.4 1.3-1.4 2-2.8 1.8l-3.6.2-.4-2v-4.4l1.8.3c1-.8 1-1.8.9-2.8l-.5-6.1Z"/>
  <path fill="#434242" d="M302.9 181c1.2-.1 2.4-.3 3.6-.2 1.4 0 2.4-.6 2.8-1.9.3-.7.4-1.6.6-2.4l.3-3c0-3 .7-5.7 1.4-8.5.6-.2.6-.7.5-1.2.9-.5 1-1.5 1.3-2.3 1 .7.8 1.8.8 2.8l-1.4 2.7c-.7 1.6-1 3.2-.9 5 .3 2.2.3 4.5-.4 6.7a6 6 0 0 1-6.5 4.4c-1.3-.2-1.7-.5-2.1-2.2ZM302 54l1.3-1.5c.8.4 1.7.7 2.5 1.2l8.4 4.9c0 .3 0 .8-.3 1-.4.3-1 .5-1.5.5-.8 0-1.6-.3-2.5-.5l-1.2-1-5.7-3.3c-.5-.3-.9-.6-1-1.2Z"/>
  <path fill="#c56601" d="M311.6 165c-.2 0-.4 0-.5.2-1.6 2.3-3 4.8-3 7.7v3.6l-.7-.7-1-3.5a8 8 0 0 1 1.6-5.8c1.7-2.4 2.7-5 3-7.8l1.1.7v4.5c-.4.2-.5.6-.5 1Z"/>
  <path fill="#434242" d="m245.8 19.6-.4 1.5-1.3-.5-11.8-7.4.6-.6 12.9 7Zm78.8 45.5-.6 1.4c-.4 0-.8.3-1 .2l-3.1-2 2.4-1.4c.8.5 2 .7 2.3 1.8Z"/>
  <path fill="#868585" d="m232.9 12.6-.6.6-6.8-4-.2-.7c2.6 1.2 5.2 2.4 7.6 4.1Z"/>
  <path fill="#eeac01" d="M312.1 163.8v-4.5c.9.5 1.2 1.3 1.3 2.2-.3.8-.4 1.8-1.3 2.3Z"/>
  <path fill="#8891d8" d="m225.3 8.4.2.8c-1.4-.5-2.4-1.5-3.5-2.4a8 8 0 0 1 3.4 1.6Z"/>
  <path fill="url(#F)" d="m276.8 115.6-1-1.3a313 313 0 0 0-5-5.6 10 10 0 0 1-2.2-3.3 9.4 9.4 0 0 1-.8-3.8v-1.4l-.5-2.5c-1.4 0-2.8 0-3.9-1.2a10 10 0 0 1-5.7-8.1 13.9 13.9 0 0 1 3-11.2l-2.2-.5-3.2 5.3c-1.3 2-2.8 3.6-4.8 4.7-1.5.7-3 1-4.5.2h-.1a7 7 0 0 1-1.7-1.5c-.5-.5-.6-1.1-.4-1.8l1-3.6-1.2-.9-2.8 6-.2.9a10.7 10.7 0 0 0 1.5 10l.4.4 2.7 3.5 2.3 3.2a29.1 29.1 0 0 1 2.2 3.6c2.5 4.7 4.3 9.8 6.4 14.7l1.7-1c2-1.1 3.9-2.3 5.9-3.3a10 10 0 0 1 6.4-.8c1.1.3 2 1 2.8 2l.4.8c.4.6.7 1.3.9 2 .8 2.4.8 5 .6 7.5 1 .2 1.4-.6 2.1-.8l1-2c.6-1.1.8-2.3.8-3.6a11 11 0 0 0-1.9-6.6Zm-31.3-22.2-3.7-2.2-.4-.2c0-1.3.5-2.2 1-3.2l2 .7a62.8 62.8 0 0 1 7.5 4 9.2 9.2 0 0 1-1.5 3.3c-1.7-.7-3.3-1.6-4.9-2.4Z"/>
  <path fill="#eeac01" d="M261.8 169.4h2.8c1.7 0 2-.5 2.3-2.1.1-.9.4-1.7.6-2.5 1.6.3 2.1 1.7 2.6 3-.3.2-.7.4-.8.7a17 17 0 0 1-6.4 6.6c-.5.3-1 .9-1.3 1.4a7.6 7.6 0 0 0-1.4 6.3c.5-1 1-1.7 1.1-2.5.4-1.7 1.6-2.7 2.7-3.8.7-.8 1.6-1 2.6-.8a28.8 28.8 0 0 0-3.7 5.6l-1 1.4a5.5 5.5 0 0 1-6.5 2c-1.1-.4-2.2-.5-3.3-.4.6-1.3 1.1-2.7 1.8-4l4.1-8.2c.2 1.7-1.3 3.1-.6 4.8 1.2.4 1.6-.4 2-1.2l2.4-6.2Z"/>
  <path fill="#434242" d="M252.1 184.3c1.2-.1 2.2 0 3.3.4 2.5 1 5 .2 6.6-2l.9-1.4a28.8 28.8 0 0 1 4-5.9l.5-.8.6-.6.5-.6.6-.5.8-1.2.4-3c1.5 1.1 1.4 2.6.8 3.9-.5 1-1.2 2.2-2.1 3a16.5 16.5 0 0 0-4.8 6.4c-1.4 3.5-6 5.7-9.6 4.9a7 7 0 0 1-2.2-1.1c-.5-.3-.7-1-.3-1.5Z"/>
  <path fill="#c56601" d="m270.3 168.8-.4 3c-.6 0-.8.5-.8 1l-.6.6-.6.6-.5.6-.6.8c0 .2 0 .3-.2.3-1-.1-1.9 0-2.6.8-1 1.1-2.3 2.1-2.7 3.8-.2.8-.6 1.5-1.1 2.5-.4-2.6 0-4.6 1.4-6.4.4-.5.8-1 1.3-1.3 2.7-1.7 4.9-3.8 6.4-6.6.1-.3.5-.5.8-.7l.2 1Z"/>
  <path fill="#eaf4fb" d="m261.8 169.4-2.5 6.3c-.3.8-.8 1.6-2 1.2-.6-1.7.9-3.2.7-4.8l1-2.6c1-.2 1.8-.8 2.7 0Zm42.9-3.5.5 6c0 1 0 2.1-1 3l-1.7-.4c.3-1.4.6-2.8 0-4.3a4 4 0 0 1 1.1-4.1l1-.2Z"/>
  <path fill="#434242" d="M241.3 65.3c-.1-.6-.4-1.3-.4-2 0-2 .9-3.8 3-4.5l4-1.4c1.5-4.4 2.2-4.9 6.4-4.7l1.4-2c1-1.3 1.8-1.5 3.2-.7l1.7 1.1 1.6-.2c1.6 0 2.4 1 2.2 2.6 0 .6-.2 1.2-.4 1.9l1.4.5c1.2.5 2 1.3 2.1 2.7l.6 3.8c-.5 1-1.5.4-2.4 1 0 1.4 1 3.3-1.3 4-.5 0-.3-.5-.3-.8l-.3-1.1c-1.1-.2-1.4.9-2 1.2-.8.3-1.4.7-2.1 1.2-.3 2.7-2 4.9-3.6 7.1l-1.1-.1.4-1.9c.2-.4.5-.8.6-1.3 0-.6 0-1.3-.2-1.8-.4-.8-1.2-.5-1.8-.3l-.5-.1c-.8-.8-.6-2.2-2-2.8-1.5.4-3.3.3-5-.2l-5.2-1.2Z"/>
  <path fill="#d87847" d="m241.3 65.3 5.2 1.3c1.7.4 3.5.5 5 0 1.4.7 1.2 2.1 2 2.9l.5.1c.6-.2 1.4-.4 1.8.3.2.5.2 1.2.2 1.8 0 .5-.4.9-.6 1.3l-.4 2c-.8 2.4-2.8 3.6-4.8 4.8a5.6 5.6 0 0 1-5.4.3 92 92 0 0 1-1.2-.9c-.8-2-2-3.7-2.3-5.9-.6-2.6-1-5.3 0-7.9Z"/>
  <path fill="#c25c2f" d="M244.8 80c1.9.9 3.7.8 5.4-.3 2-1.2 4-2.4 4.8-4.8l1.1.1 2.4 1.7-3.2 5.3c-1.2 2-2.8 3.6-4.8 4.7-1.5.8-3 1-4.6.2a7 7 0 0 1-1.7-1.5c-.5-.5-.6-1.1-.4-1.8l1-3.5Zm22.5 17.7c-1.4 0-2.8 0-3.9-1.2l-.3-1.9a8.2 8.2 0 0 1 0-3.5l1.5-.3h4.3l-1.6 6.9Zm-26.1 45.9c1.4-.4 2.8-.3 3.8.7.7.8 1.2 1.7.5 2.8a8.5 8.5 0 0 1-4.3-3.5Z"/>
  <path fill="#4292d8" d="M311.6 165c0-.5 0-1 .5-1.2.1.5 0 1-.5 1.2Z"/>
  <path fill="#eaf4fb" d="M252 92.5a9.1 9.1 0 0 1-1.6 3.3c-3.2-1.4-6-3-9-4.8 0-1.3.5-2.2 1.1-3.2 1.6.5 6.5 2.9 9.4 4.7Z"/>
  <path fill="#4292d8" d="M269 172.9c0-.6.3-1 1-1.2l-1 1.2Zm-1.6 1.7.6-.6-.6.6Zm-.6.8.6-.9-.6 1Zm1.7-2 .6-.6-.6.6Zm-.5.6.5-.6-.6.6Z"/>
  <path fill="url(#G)" d="M335 0v177.6l-16.5 3.1-5.1 1-6.3 1.2-.6.1h-.4a5122 5122 0 0 0-56.9 11.8l-.4.1a357 357 0 0 1-18.6-19.7c-9.8-11.3-13-16.3-20.6-20.1-8.4-4.2-16.3-4-20-3.8-27.8.6-14.6-6.7-145.9-13.8-10-.5-25.1-1.3-43.7-2V0h335Z" opacity=".8"/>
  <path d="M16.8 216.2a4.4 4.4 0 0 0-3.5 7l3.5 6 3.6-6a4.4 4.4 0 0 0-3.6-7Zm0 6.4a2 2 0 1 1 0-4 2 2 0 0 1 0 4Z"/>
  <g fill="#fff" data-name="uuid-f3fdbca8-19af-4b99-a461-c604056463c2">
    <path d="M29.6 14c0 .4-.2 1-.6 1.3l-6.3 6.4-6.8-4V14a2 2 0 0 1 4 0v4.9l6.3-6.3a2 2 0 0 1 3.4 1.4ZM29 31.7a2 2 0 0 1-2.8 0L24 29.6l-4-4.2v4.9c0 1-1 2-2 2s-2-1-2-2v-3.9l6.8-3.9 4.2 4.2 2 2.2c.9.7.9 2 0 2.8ZM22.4 22l-.2-.3-1.8-1-4.5-2.6-3.9-2.3c-.2 0-.5 0-.6.2v11.9a.5.5 0 0 0 .6.4l3.9-2.2 6.2-3.6h.1l.1-.2V22Zm-9.6-4.7 3 1.7 4.9 2.8.1.1v.3l-.1.2-4.9 2.8-3 1.8c-.2 0-.4 0-.5-.2v-9.2c0-.2.1-.4.3-.4h.2Z"/>
    <path d="m19.5 22.2-.2.1-3.6 2.1-2.3 1.3h-.3v-7c0-.2 0-.3.2-.3h.1l2.3 1.4 3.6 2 .2.2v.2Zm43-.6L57 18.8l-3.4-1.7a.4.4 0 0 0-.6.1v9.5c.1.2.3.4.5.4l.2-.1.2-.1 3.2-1.7 2-1 3.5-2c.1 0 .2 0 .2-.2v-.2l-.2-.2ZM57 24.5l-2.6 1.4-.4-.1v-.2l-.2-7.2c0-.1.2-.3.4-.2l2.8 1.3 1 .5 3.3 1.7.2.2v.1l-.2.2-4.3 2.3Z"/>
    <path d="M60.1 22v.1L56.7 24l-2 1h-.3v-.1l-.1-5.5.2-.2h.1l2 1 3.3 1.7.1.1v.1Zm-21.6-4.8h-4.8V27h2.4v-3.1h2.5c2.3-.1 4-1.5 4-3.4s-1.8-3.2-4-3.2Zm-.2 4.6H36v-2.7h2.3c1.1 0 2 .5 2 1.3 0 .9-.9 1.4-2 1.4ZM51.8 27l-7.7.1-.2-9.7h2.4l.1 7.8 5.3-.1.1 1.9zm15.7-3.7.1 3.5h-2.4v-3.5l-4.3-6.1 2.7-.1 2.7 4.3 2.8-4.3 2.6-.1-4.2 6.3zm14.4 3.9-1.6.1-4.1-4.5-1.7 1.6v2.9l-1.2.1-.1-9.7h1.2l.1 5.3 5.4-5.4h1.6L77 22.1l4.9 5.1zm6.1-9.9c-3 0-5.5 2.4-5.5 5.1 0 2.7 2.6 5 5.6 5 3 0 5.5-2.4 5.5-5.1 0-2.7-2.6-5-5.6-5Zm.4 9a4.3 4.3 0 0 1-4.7-4 4.3 4.3 0 0 1 8.6 0 4.3 4.3 0 0 1-4 4Zm14.8-1.8c0 1.6-1.3 2.8-3.8 2.8a6 6 0 0 1-4.2-1.4l.7-.9a5 5 0 0 0 3.6 1.4c1.6 0 2.5-.9 2.5-1.8 0-1-1-1.4-3-1.8-2.1-.4-3.5-1-3.5-2.6s1.5-2.8 3.5-2.8c1.4 0 2.8.4 3.8 1.3l-.7.8a5 5 0 0 0-3.1-1.2c-1.3 0-2.3.9-2.3 1.7 0 1 1 1.4 3 1.8 2 .4 3.5 1 3.5 2.7Zm12.8 2.7h-1.2l-.1-7.3-3.9 6.8-4.1-6.7.1 7.3-1.3.1-.1-9.7h1.3l4 6.7 4-6.8h1.2l.1 9.6zm7.7-9.9c-3 0-5.5 2.4-5.5 5.1 0 2.7 2.6 5 5.6 5 3 0 5.5-2.4 5.5-5.1 0-2.7-2.6-5-5.6-5Zm.4 9a4.3 4.3 0 0 1-4.6-4 4.3 4.3 0 0 1 8.5 0 4.3 4.3 0 0 1-3.9 4Zm14.9-1.8c0 1.6-1.4 2.8-3.9 2.8A6.2 6.2 0 0 1 131 26l.7-.9.6.4c.8.6 1.9 1 3 1 1.6 0 2.5-.9 2.5-1.8 0-.7-.6-1.1-1.6-1.4L135 23h-.2c-2.1-.5-3.5-1-3.5-2.7 0-1.6 1.5-2.8 3.6-2.8a6 6 0 0 1 3.8 1.3l-.8.8a5 5 0 0 0-3-1.2c-1.4 0-2.4.9-2.4 1.7 0 1 1.1 1.4 3 1.8a14.6 14.6 0 0 1 2 .6c1 .4 1.5 1 1.5 2.1Z"/>
  </g>
  <path fill="url(#H)" d="M199.3 0 335 .3 225.8 51.2 199.3 0Z" filter="url(#I)"/>
</svg>
