<svg xmlns="http://www.w3.org/2000/svg" viewBox="0 0 335 335">
    <defs>
        <radialGradient id="radial-gradient" cx="216.11" cy="234" fx="216.11" fy="234" r="237.28" gradientTransform="matrix(1 0 0 .82 0 88.16)" gradientUnits="userSpaceOnUse">
            <stop offset=".44" stop-color="#fff" stop-opacity="0"/>
            <stop offset=".68" stop-color="#fff" stop-opacity="0"/>
            <stop offset=".76" stop-color="#fff" stop-opacity=".03"/>
            <stop offset=".82" stop-color="#fff" stop-opacity=".08"/>
            <stop offset=".87" stop-color="#fff" stop-opacity=".15"/>
            <stop offset=".91" stop-color="#fff" stop-opacity=".23"/>
            <stop offset=".95" stop-color="#fff" stop-opacity=".34"/>
            <stop offset=".98" stop-color="#fff" stop-opacity=".46"/>
            <stop offset="1" stop-color="#fff" stop-opacity=".54"/>
        </radialGradient>
        <linearGradient id="linear-gradient" x1="0" y1="166.8" x2="335" y2="166.8" gradientTransform="matrix(1 0 0 1.68 0 -112.39)" gradientUnits="userSpaceOnUse">
            <stop offset="0" stop-color="#f05a28"/>
            <stop offset=".98" stop-color="#930500"/>
        </linearGradient>
        <pattern id="Arrows_White_Small" x="0" y="0" width="17.47" height="19.29" patternTransform="translate(-733.65 67.5)" patternUnits="userSpaceOnUse">
            <path style="fill:none" d="M0 0h17.47v19.29H0z"/>
            <path class="cls-2" d="M12.29 4.82 7.11 0v4.3H.55c-.3 0-.55.3-.55.67v9.35c0 .37.24.67.55.67h6.56v4.3l5.18-4.82 5.18-4.82-5.18-4.82Z"/>
        </pattern>
        <style>
            .cls-2{fill:#fff}.cls-13{fill:#fbb03b}
        </style>
    </defs>
    <g style="isolation:isolate">
        <g id="Layer_1">
            <path style="fill:url(#linear-gradient)" d="M0-.5h335v335H0z"/>
            <path style="fill:url(#Arrows_White_Small);opacity:.08" d="M0-.5h335v335H0z"/>
            <path style="fill:url(#radial-gradient);mix-blend-mode:lighten;opacity:.58" d="M0-.5h335v335H0z"/>
            <path style="fill:none;stroke:#be1e2d;stroke-miterlimit:1;stroke-width:.25px" d="M0-.5h335v335H0z"/>
            <g style="opacity:.58">
                <path d="M335 333.88H5.05c-1.42 0-3.07-.23-4.48 0-.18.03-.39 0-.57 0V13.1C0 8.76.01 4.41 0 .07V-.5v.62h329.95c1.42 0 3.07.23 4.48 0 .18-.03.39 0 .57 0V334.5c0 .7.01.72.01 0V-1.12H5.05c-1.45 0-3.04-.18-4.48 0-.18.02-.38 0-.57 0v336.24h329.95c1.45 0 3.04.18 4.48 0 .18-.02.38 0 .57 0v-1.25Z" style="fill:#0d003b"/>
            </g>
            <path style="opacity:.6;fill:#006837" d="M-1-.5h336v335H-1z"/>
            <g id="PRINT">
                <path class="cls-2" d="M29.78 11.41c0 .56-.23 1.1-.63 1.5l-6.76 6.76-7.22-4.17v-4.1c0-1.18.96-2.14 2.14-2.14s2.14.96 2.14 2.14v5.17l6.68-6.69a2.146 2.146 0 0 1 3.66 1.53ZM29.15 30.33a2.135 2.135 0 0 1-2.33.47c-.26-.11-.49-.27-.69-.47l-2.27-2.27-4.42-4.41v5.18c0 1.18-.95 2.13-2.13 2.13s-2.14-.95-2.14-2.13v-4.09l7.24-4.17 4.47 4.47 2.27 2.27c.84.84.83 2.19 0 3.02ZM22.08 19.97c-.03-.1-.1-.2-.19-.26-.01 0-.02-.01-.03-.02l-1.82-1.05-4.87-2.81-4.12-2.38a.474.474 0 0 0-.66.17c-.05.08-.07.16-.07.25v12.48c0 .27.22.48.48.48.09 0 .17-.02.25-.06l4.12-2.38 6.69-3.86s.05-.03.07-.05c.06-.05.1-.11.13-.18.04-.1.05-.22.02-.33Zm-10.19-5.03 3.2 1.85 5.19 2.99c.06.04.11.08.14.14.05.1.06.2.03.29-.02.09-.09.17-.17.22l-5.19 3-3.2 1.85c-.18.1-.41.04-.51-.14-.04-.05-.05-.12-.05-.19v-9.69c0-.21.16-.37.37-.37.07 0 .13.01.19.05Z"/>
                <path class="cls-2" d="M19 20.19c-.02.07-.07.13-.13.17l-3.9 2.25-2.4 1.39c-.13.08-.31.03-.38-.1a.326.326 0 0 1-.04-.14v-7.29c0-.16.13-.28.28-.28.05 0 .1.01.14.04l2.41 1.39 3.9 2.25c.06.04.11.09.13.16.01.05.01.11 0 .16ZM64.86 19.62l-5.96-2.99-3.67-1.84a.423.423 0 0 0-.58.16c-.03.06-.05.12-.06.18l.12 9.9c.03.23.24.41.48.38.06 0 .12-.03.17-.06l.23-.12 3.4-1.81 2.09-1.12 3.78-2.01c.09-.05.16-.13.19-.23.03-.07.03-.15.01-.22a.395.395 0 0 0-.2-.22Zm-5.96 3.03-2.81 1.5c-.16.1-.37.05-.46-.11a.326.326 0 0 1-.04-.14l-.1-7.68c.02-.18.18-.32.36-.3.05 0 .09.02.14.04l2.85 1.43 1.02.51 3.6 1.81c.07.03.13.09.16.17.01.05.01.11-.01.16h.01s-.01.02-.02.03c-.02.07-.07.12-.13.15l-4.57 2.43Z"/>
                <path class="cls-2" d="M62.32 20.04c-.02.06-.06.1-.11.13L58.78 22l-2.12 1.13c-.12.07-.27.03-.34-.09a.193.193 0 0 1-.03-.1l-.07-5.78c.01-.14.13-.24.27-.23.04 0 .07.01.1.03l2.14 1.08 3.48 1.75c.06.03.1.07.12.13.01.04.01.09 0 .13ZM39.29 14.88l-2.28.03-2.89.04.03 2.82.09 7.48 2.46-.03-.04-3.34 2.71-.04c2.5-.03 4.32-1.49 4.3-3.53-.03-2.04-1.89-3.46-4.38-3.43Zm-.21 4.94-2.44.03-.04-2.91 2.45-.03c1.22 0 2.06.55 2.07 1.43.01.89-.82 1.47-2.04 1.48ZM53.41 25.3l-8.21.1-.12-10.3 2.48-.03.1 8.31 5.72-.08.03 2zM70.22 21.37l.04 3.72-2.49.03-.04-3.72-4.59-6.53 2.88-.03 2.92 4.48 2.93-4.55 2.76-.04-4.41 6.64zM85.53 25.6l-1.68.02-4.43-4.74-1.79 1.73.04 3.09-1.31.01-.12-10.3 1.3-.01.07 5.7 5.76-5.78 1.72-.02-4.78 4.77 5.22 5.53zM92 15.05c-3.18.04-5.86 2.5-5.83 5.4.04 2.89 2.76 5.31 5.96 5.27 3.2-.04 5.85-2.52 5.81-5.42-.03-2.89-2.76-5.29-5.94-5.25Zm.42 9.57a4.57 4.57 0 0 1-4.92-4.19 4.575 4.575 0 0 1 4.18-4.29 4.574 4.574 0 0 1 4.94 4.18 4.57 4.57 0 0 1-4.2 4.3ZM108.19 22.7c.02 1.64-1.33 2.99-4.02 3.02-1.66.06-3.28-.5-4.54-1.58l.81-.93c1.03.95 2.38 1.47 3.78 1.44 1.78-.02 2.67-.91 2.66-1.83-.01-1.1-1.11-1.52-3.12-1.91-2.32-.46-3.78-1.08-3.8-2.87-.02-1.65 1.6-2.96 3.81-2.98 1.48-.04 2.92.47 4.05 1.42l-.79.92a5.054 5.054 0 0 0-3.31-1.28c-1.43.02-2.45.87-2.44 1.82 0 1.07 1.15 1.43 3.11 1.82 2.21.44 3.78 1.13 3.8 2.94ZM121.86 25.58l-1.3.02-.1-7.78-4.18 7.23-4.35-7.13.09 7.78-1.31.02-.12-10.31 1.3-.01 4.36 7.13 4.18-7.24 1.3-.01.13 10.3zM130.07 15.05c-3.18.04-5.86 2.5-5.83 5.4.04 2.89 2.76 5.31 5.96 5.27 3.2-.04 5.85-2.52 5.81-5.42-.04-2.89-2.76-5.29-5.94-5.25Zm.42 9.57a4.58 4.58 0 0 1-4.93-4.19c.14-2.27 1.92-4.1 4.19-4.29 2.51-.21 4.72 1.66 4.94 4.18a4.57 4.57 0 0 1-4.2 4.3ZM146.26 22.7c.02 1.64-1.34 2.99-4.02 3.02-1.66.06-3.28-.51-4.55-1.58l.81-.93c1.03.95 2.39 1.47 3.79 1.44 1.77-.02 2.67-.91 2.65-1.83-.01-1.1-1.1-1.52-3.12-1.91-2.31-.46-3.78-1.08-3.8-2.87-.02-1.65 1.61-2.96 3.82-2.98a6.08 6.08 0 0 1 4.05 1.42l-.79.92a5.08 5.08 0 0 0-3.32-1.28c-1.42.02-2.45.87-2.44 1.82.02 1.07 1.16 1.43 3.12 1.82 2.2.44 3.78 1.13 3.8 2.94Z"/>
            </g>
            <path d="M48.92 295.61c.29-.22.59-.42.85-.66 3.05-2.77 6.75-4.31 10.55-5.7 2.54-.94 5.2-1.32 7.83-1.84 1.89-.38 3.79-.73 5.69-1.1.95-.18 1.83-.56 2.54-1.21 1.33-1.23 2.76-2.38 3.91-3.77 1.43-1.72 2.76-3.56 3.85-5.5 1.41-2.5 3.26-4.52 5.53-6.2 1.6-1.19 3.18-2.42 4.77-3.62.21-.16.43-.3.66-.43.6-.35 1.19-.5 1.91-.29 1.34.39 2.56.97 3.69 1.78 3.13 2.24 6.3 4.42 9.42 6.68 1.71 1.23 3.61 2.05 5.52 2.87.99.43 1.97.89 2.95 1.33 1.85.84 3.32 2.12 4.45 3.81 1.12 1.69 2.3 3.34 3.42 5.04 1.64 2.47 3.81 4.34 6.4 5.75.55.3 1.07.64 1.62.92 3.25 1.66 5.91 4.09 8.54 6.55.31.29.45.64.42 1.05-.04.57.15 1.05.53 1.48.88 1.01 1.73 2.05 2.62 3.06.67.75 1.62.77 2.33.07 1.77-1.75 3.5-3.54 5.29-5.27.84-.82 1.71-1.64 2.67-2.31 1.53-1.07 2.45-2.56 3.23-4.18.25-.53.46-1.09.61-1.65.2-.78-.23-1.33-1.02-1.38-.77-.05-1.57-.12-2.26.3-2.33 1.42-4.85 2.18-7.57 2.33-2.06.11-4.07-.05-5.88-1.11-1.7-1-3.3-2.13-4.58-3.66-3.52-4.19-7.04-8.37-10.56-12.55-.3-.36-.58-.75-.82-1.16-1.07-1.83-2.45-3.4-4.03-4.79-.9-.79-1.61-1.72-2.18-2.76-1.86-3.38-4.34-6.27-7.3-8.72-1.51-1.25-3.27-2.12-5.08-2.86-1.26-.51-2.37-1.17-3.2-2.26-.15-.19-.31-.4-.51-.53-.61-.38-.75-.96-.82-1.62-.34-3.42-.68-6.84-1.07-10.26-.38-3.3-.73-6.61-1.29-9.88-.4-2.35-1.15-4.64-1.68-6.96-.41-1.77-.74-3.55-1.07-5.33-.07-.4-.02-.82-.02-1.22 0-.3.13-.42.42-.38.97.14 1.94.31 2.91.4 1.33.11 2.67.21 4.01.2 2.19-.01 4.39-.2 6.58-.16 1.65.03 3.3.26 4.94.47 1.5.19 2.88-.13 4.28-.63 1.65-.59 3.31-1.16 4.99-1.64.92-.26 1.89-.39 2.85-.48.48-.05.99.19 1.48.19.93-.01 1.73.26 2.43.87.21.18.44.34.65.53.76.67 1.6 1.06 2.64.92.42-.05.75.04.81.55 0 .08.1.18.17.21.65.21 1.31.41 1.91-.09.47-.38.91-.79 1.36-1.2.29-.26.35-.56.14-.92-.68-1.2-1.33-2.41-2.02-3.59-.1-.17-.38-.32-.58-.34-1.34-.14-2.67-.25-4.01-.36-.17-.02-.34-.04-.56-.07l.18-.79c-.43-.09-.85-.18-1.27-.25-.39-.07-.78-.09-1.17-.16-.39-.08-.63 0-.7.43-.07.43-.44.27-.68.27-1.28-.01-2.55-.04-3.83-.09-4.3-.18-8.6-.37-12.91-.56-.61-.03-1.18.06-1.75.35-1.04.52-2.18.57-3.31.52-1.31-.06-2.62-.13-3.92-.29-.67-.08-1.38-.23-1.97-.54-1.84-.97-3.82-1.21-5.84-1.37-.16-.01-.33 0-.49-.02-1.44-.13-2.77.15-3.93 1.05-.15.12-.34.2-.49.33-1.71 1.5-3.82 1.84-5.98 2.06-.13.01-.26 0-.46-.02.06-.23.09-.44.17-.62.12-.27.27-.53.42-.77.44-.7.64-1.43.62-2.27-.02-.97-.07-1.92-.34-2.86-.1-.34-.05-.74-.03-1.1.05-1.04-.07-1.5-.89-1.72-.12-.03-.26-.24-.28-.38-.09-.95-.57-1.67-1.36-2.16-.85-.53-1.44-1.27-1.81-2.19-.08-.2-.19-.38-.3-.56-.53-.85-1.07-1.05-1.99-.67-2.15.89-4.16 2-5.89 3.58-.93.85-1.65 1.86-2.19 3-.42.9-.33 1.83-.12 2.75.57 2.61 1.83 4.78 4.07 6.32.54.37.92.84 1.07 1.47.25 1.02.48 2.04.69 3.06.03.14-.1.31-.16.47-.01.03-.05.05-.07.07-1.39 1.03-2.32 2.39-2.76 4.06-.18.67-.6.96-1.24 1.07-.42.07-.83.18-1.25.27-1.42.32-2.52 1.15-3.28 2.34-.83 1.3-1.98 2.19-3.2 3.09-2.45 1.81-4.78 3.77-7.15 5.68-.11.09-.26.19-.31.31-.4.97-1.19 1.12-2.11 1.03-3.04-.28-6.06-.68-8.97-1.64-2.18-.72-4.33-1.49-6.5-2.23-.12-.04-.23-.1-.42-.19 13.38-14.42 26.6-28.92 39.32-43.87-.15.13-.3.26-.44.4-5.61 5.69-11.27 11.33-16.8 17.1-8.07 8.41-16.05 16.9-24.07 25.36-.24.25-.43.46-.82.25-.14-.08-.39-.04-.56.03-1.37.57-2.4 1.56-3.22 2.78-.31.46-.59.94-.85 1.43-.22.41-.34.83-.19 1.32.04.14-.12.38-.24.52-3.51 3.84-7.08 7.64-10.54 11.52-7.86 8.81-15.67 17.65-23.5 26.49-.12.13-.23.27-.27.48.12-.11.24-.22.35-.33 5.36-5.43 10.76-10.82 16.06-16.31 6.62-6.85 13.15-13.79 19.71-20.7.22-.23.41-.28.68-.14.69.37 1.36.3 2.06-.04 1.29-.63 2.62-1.19 3.92-1.81.32-.15.56-.14.87.02 3.69 1.91 7.42 3.76 11.09 5.72 1.83.98 3.64 1.05 5.54.38 2.1-.74 4.19-1.52 6.29-2.24 1.3-.44 2.4-1.17 3.43-2.06 1.41-1.22 2.9-2.36 3.94-3.95.21-.32.46-.28.71-.11 1.11.75 2.21 1.52 3.32 2.27.85.58 1.7 1.16 2.58 1.7.88.54 1.42 1.33 1.85 2.24a12.41 12.41 0 0 1 1.19 5.32c0 1.05.14 2.08.48 3.09.4 1.18.34 2.42.27 3.65-.06 1.05-.05 2.1-.16 3.14-.09.8-.17 1.67-.52 2.37-1.1 2.14-2.28 4.24-3.51 6.3-1.91 3.19-3.86 6.35-5.84 9.5-1.05 1.67-2.4 3.1-3.91 4.39-.82.7-1.86.75-2.85.97-1.04.22-2.08.43-3.13.62-1.96.35-3.68 1.22-5.29 2.37-2.46 1.76-4.96 3.47-7.44 5.21-.79.55-1.65.76-2.6.69-.65-.05-1.31-.08-1.96-.17-.48-.06-.87.06-1.22.36-1.16.99-2.31 1.99-3.48 2.96-.65.54-1.32 1.06-2.02 1.54-.85.58-1.74 1.11-2.61 1.66-1.75 1.11-2.66 2.71-2.75 4.77-.07 1.62.64 2.87 1.92 3.82.47.35 1.03.45 1.59.23.54-.22 1.09-.45 1.59-.75 2.48-1.47 4.81-3.17 7.08-4.95.23-.18.54-.29.84-.34.76-.13 1.52-.22 2.29-.31.37-.04.43-.23.28-.54-.18-.36-.37-.73-.57-1.12Z"/>
            <path d="M83.41 181.69c-.3-.05-.59-.1-.9-.14.3 0 .6.02.91.04.94.05 1.89.12 2.85.21 36.19 3.48 62.71 35.64 59.23 71.83-3.48 36.19-35.65 62.71-71.84 59.22-.95-.09-1.9-.2-2.83-.34-.3-.04-.6-.08-.9-.13.31.02.61.02.91.03 34.25.9 63.85-24.88 67.18-59.51 3.33-34.63-20.8-65.57-54.6-71.22Z" style="fill:#006837"/>
            <path class="cls-13" d="M29.2 207.1c-.17.25-.34.49-.51.75.13-.27.28-.53.43-.8.44-.83.91-1.66 1.4-2.49 18.56-31.26 58.95-41.56 90.21-23 31.26 18.56 41.56 58.95 23 90.22-.49.82-.99 1.63-1.51 2.42-.16.26-.33.51-.5.76.14-.27.28-.54.41-.81 15.4-30.61 4.67-68.36-25.24-86.12-29.91-17.76-68.18-9.1-87.69 19.08Z"/>
            <path class="cls-13" d="M45.57 190.04c.24-.18.49-.35.74-.52-.27.14-.53.28-.79.44-.82.46-1.65.94-2.46 1.44-30.98 19.04-40.66 59.58-21.62 90.55 19.04 30.98 59.58 40.66 90.56 21.62.81-.5 1.62-1.02 2.4-1.55.26-.17.51-.34.75-.51-.27.15-.54.29-.8.43-30.37 15.86-68.28 5.72-86.5-23.92s-10.14-68.04 17.73-87.97Z"/>
            <rect x="66.36" y="275.13" width="77.14" height="28.09" rx="5" ry="5" style="stroke:#fbb03b;stroke-miterlimit:10;stroke-width:2px;fill:none"/>
            <path class="cls-13" d="M244.73 20.43c-4.26 2.13-2.45 5.71 3.43 6.52 1.18.16 2.43.25 3.71.25h69.06l14.25.09V-.19l-14.25-.18h-69.22c-6.74.04-9.98 3.94-5.72 6.48 3.08 1.84 4.93 4.22 4.93 6.82 0 2.94-2.37 5.59-6.19 7.5Z"/>
            <path class="cls-2" d="M243.44 211.43c-2.42 0-4.38 1.96-4.38 4.38 0 .97.31 1.86.85 2.59l3.53 6.12 3.53-6.12a4.379 4.379 0 0 0-3.53-6.97Zm0 6.39a1.931 1.931 0 1 1 .002-3.862 1.931 1.931 0 0 1-.002 3.862Z"/>
        </g>
    </g>
</svg>
