<svg xmlns="http://www.w3.org/2000/svg" xmlns:xlink="http://www.w3.org/1999/xlink" width="335" height="335"><defs><linearGradient id="a" x1="-408.4" x2="38.6" y1="188.8" y2="188.8" gradientUnits="userSpaceOnUse"><stop offset="0" stop-color="#8c671a"/><stop offset="0" stop-color="#916b1b"/><stop offset=".2" stop-color="#a2771e"/><stop offset=".3" stop-color="#be8b23"/><stop offset=".4" stop-color="#e4a72a"/><stop offset=".5" stop-color="#f9b72f"/><stop offset="1" stop-color="#f9c863"/></linearGradient><linearGradient id="b" x1="0" x2="334.9" y1="167.6" y2="167.6" gradientUnits="userSpaceOnUse"><stop offset=".1" stop-color="#8c671a"/><stop offset=".2" stop-color="#916b1b"/><stop offset=".3" stop-color="#a2771e"/><stop offset=".5" stop-color="#be8b23"/><stop offset=".6" stop-color="#e4a72a"/><stop offset=".7" stop-color="#f9b72f"/><stop offset="1" stop-color="#f9c863"/></linearGradient><linearGradient xlink:href="#a" id="d" x1="0" x2="335" y1="167.5" y2="167.5"/><linearGradient xlink:href="#b" id="g" x1="110.9" x2="127" y1="154.5" y2="154.5"/><linearGradient xlink:href="#b" id="h" x1="128.2" x2="131.5" y1="153.1" y2="153.1"/><linearGradient xlink:href="#b" id="i" x1="127.7" x2="131" y1="158.4" y2="158.4"/><linearGradient xlink:href="#b" id="j" x1="226.9" x2="325.8" y1="173.6" y2="173.6"/><linearGradient xlink:href="#b" id="k" x1="244.1" x2="258.8" y1="211.6" y2="211.6"/><linearGradient xlink:href="#b" id="m" x1="184.6" x2="195.9" y1="22.9" y2="22.9"/><linearGradient xlink:href="#b" id="o" x1="287.7" x2="315.4" y1="66.3" y2="66.3"/><linearGradient xlink:href="#b" id="q" x1="13" x2="38.9" y1="262.9" y2="262.9"/><linearGradient xlink:href="#b" id="s" x1="38.3" x2="50.8" y1="84.8" y2="84.8"/><filter id="f" data-name="drop-shadow-27" filterUnits="userSpaceOnUse"><feOffset dx="2" dy="2"/><feGaussianBlur result="uuid-e5994f54-7e04-46e4-b5b1-6ab1c8a5ef85" stdDeviation="1"/><feFlood flood-color="#000" flood-opacity=".4"/><feComposite in2="uuid-e5994f54-7e04-46e4-b5b1-6ab1c8a5ef85" operator="in"/><feComposite in="SourceGraphic"/></filter><filter id="l" data-name="drop-shadow-28" filterUnits="userSpaceOnUse"><feOffset dx="2" dy="2"/><feGaussianBlur result="uuid-9f447223-220d-4d70-87b5-8a7ce3a97dba" stdDeviation="1"/><feFlood flood-color="#000" flood-opacity=".4"/><feComposite in2="uuid-9f447223-220d-4d70-87b5-8a7ce3a97dba" operator="in"/><feComposite in="SourceGraphic"/></filter><filter id="n" data-name="drop-shadow-29" filterUnits="userSpaceOnUse"><feOffset dx="2" dy="2"/><feGaussianBlur result="uuid-33092a10-586d-49e4-9cfb-c5fa57b8fe05" stdDeviation="1"/><feFlood flood-color="#000" flood-opacity=".4"/><feComposite in2="uuid-33092a10-586d-49e4-9cfb-c5fa57b8fe05" operator="in"/><feComposite in="SourceGraphic"/></filter><filter id="p" data-name="drop-shadow-30" filterUnits="userSpaceOnUse"><feOffset dx="2" dy="2"/><feGaussianBlur result="uuid-dae8dff0-4fd1-45dd-aa0c-955fc8473810" stdDeviation="1"/><feFlood flood-color="#000" flood-opacity=".4"/><feComposite in2="uuid-dae8dff0-4fd1-45dd-aa0c-955fc8473810" operator="in"/><feComposite in="SourceGraphic"/></filter><filter id="r" data-name="drop-shadow-31" filterUnits="userSpaceOnUse"><feOffset dx="1.8" dy="1.8"/><feGaussianBlur result="uuid-c305e41d-d943-4f46-a264-df7d86c256fb" stdDeviation=".9"/><feFlood flood-color="#000" flood-opacity=".4"/><feComposite in2="uuid-c305e41d-d943-4f46-a264-df7d86c256fb" operator="in"/><feComposite in="SourceGraphic"/></filter><radialGradient id="e" cx="167.5" cy="167.6" r="167.5" fx="167.5" fy="167.6" gradientUnits="userSpaceOnUse"><stop offset="0" stop-color="#b519cd"/><stop offset="1" stop-color="#000a2d"/></radialGradient><clipPath id="c"><path fill="none" d="M-356 0h335v335h-335z"/></clipPath></defs><g data-name="Layer 1"><g clip-path="url(#c)"><path fill="url(#a)" d="m-143.3 191 181.9-2.2-181.9-2.2 180.7-21.1-181.2 16.8 177.5-39.9-178.4 35.6 172.4-58.2-173.7 54.1 165.3-76-167.1 72L8.6 77.1l-158.6 89L-4.1 57.5l-148.4 105.1L-18.8 39.3l-136.6 120.1 120-136.7-123.3 133.7L-53.5 8l-108.7 145.9 89-158.6-92.8 156.4 72-167.1-76 165.3 54.2-173.6-58.3 172.3 35.7-178.4-40 177.5 16.8-181.2-21.1 180.7-2.2-181.9-2.2 181.9-21.2-180.7 16.9 181.2-40-177.5 35.7 178.4L-254-23.7l54.2 173.6-76-165.3 72 167.1-92.9-156.4 89.1 158.6L-316.3 8l105.2 148.4-123.4-133.7 120.1 136.7L-351 39.3l133.7 123.3-148.4-105.1 145.8 108.6-158.6-89 156.5 92.8-167.1-72 165.3 76-173.7-54.1 172.3 58.2-178.3-35.6 177.4 39.9-181.1-16.8 180.7 21.1-181.9 2.2 181.9 2.2-180.7 21.2 181.1-16.9-177.4 40 178.3-35.7-172.3 58.3 173.7-54.1-165.3 75.9 167.1-72-156.5 92.9 158.6-89.1-145.8 108.7 148.4-105.1L-351 338.4l136.6-120.1-120.1 136.6 123.4-133.7-105.2 148.4 108.7-145.8-89.1 158.6 92.9-156.4-72 167 76-165.3-54.2 173.7 58.3-172.3-35.7 178.3 40-177.4-16.9 181.1 21.2-180.7 2.2 181.9 2.2-181.9 21.1 180.7-16.8-181.1 40 177.4-35.7-178.3 58.3 172.3-54.2-173.7L-94 393l-72-167 92.8 156.4-89-158.6 108.7 145.8-105.2-148.4 123.3 133.7-120-136.6 136.6 120.1-133.7-123.3L-4.1 320.2-150 211.5 8.6 300.6l-156.4-92.9 167.1 72-165.3-75.9 173.7 54.1-172.4-58.3 178.4 35.7-177.5-40 181.2 16.9-180.7-21.2z"/></g><path fill="url(#b)" d="M0 .1h334.9V335H0z"/><path fill="url(#d)" d="m335 46-132.6 98.8L335 70.4v.8l-130.4 77.4L335 92.4v1.1l-128.6 59.1L335 112.5v1.2l-127.2 43L335 131.3v1.2L208.7 161 335 149.2v1.4l-125.9 14.7 125.9 1.5v1.4l-125.9 1.5L335 184.4v1.4L208.7 174 335 202.5v1.2l-127.2-25.4 127.2 43v1.2l-128.6-40.1L335 241.5v1.1l-130.4-56.2L335 263.8v.8l-132.6-74.4L335 289v.4l-135.1-95.7L333.6 317 197 197l120.1 136.6-123.4-133.7L289.4 335h-.5l-98.7-132.5L264.6 335h-.8l-77.4-130.4L242.6 335h-1l-59.2-128.6L222.5 335h-1.2l-43-127.2L203.7 335h-1.2L174 208.7 185.8 335h-1.4l-14.7-125.9-1.5 125.9h-1.4l-1.5-125.9L150.6 335h-1.4L161 208.7 132.5 335h-1.2l25.4-127.2-43 127.2h-1.2l40.1-128.6L93.4 335h-1l56.2-130.4L71.2 335h-.8l74.4-132.5L46.1 335h-.5l95.7-135.1L17.9 333.6 138 197 1.4 317l133.7-123.3L0 289.4v-.4l132.6-98.8L0 264.6v-.8l130.4-77.4L0 242.6v-1.1l128.6-59.1L0 222.5v-1.2l127.2-43L0 203.7v-1.2L126.3 174 0 185.8v-1.4l125.9-14.7L0 168.2v-1.4l125.9-1.5L0 150.6v-1.4L126.3 161 0 132.5v-1.2l127.2 25.4L0 113.7v-1.2l128.6 40.1L0 93.5v-1.1l130.4 56.2L0 71.2v-.8l132.6 74.4L0 46v-.4l135.1 95.7L1.4 18 138 138 17.9 1.4l123.4 133.7L45.6 0h.5l98.7 132.5L70.4 0h.8l77.4 130.4L92.4 0h1l59.2 128.6L112.5 0h1.2l43 127.2L131.3 0h1.2L161 126.3 149.2 0h1.4l14.7 125.9L166.8 0h1.4l1.5 125.9L184.4 0h1.4L174 126.3 202.5 0h1.2l-25.4 127.2L221.3 0h1.2l-40.1 128.6L241.6 0h1l-56.2 130.4L263.8 0h.8l-74.4 132.5L288.9 0h.5l-95.7 135.1L317.1 1.4 197 138 333.6 18 199.9 141.3 335 45.6v.4z"/><path fill="url(#e)" d="M0 0h335v335H0z" opacity=".8"/><g filter="url(#f)"><path fill="url(#g)" d="M125.6 148.5a8.8 8.8 0 0 0-3.1-2.6h-.3v-.2h-.5c-.1-.2-.3-.2-.4-.2l-1.6-.2c-1 0-1.9.3-2.6.6-.7.3-1.2.8-1.6 1.2-.4.4-.6.8-.7 1.1l-.1.3a2 2 0 0 0-.3 1c-.2 1.5.9 2.8 2.4 2.9 1.5.2 2.8-.9 2.9-2.4.1-1.4-.8-2.6-2.1-2.9h.2a5.1 5.1 0 0 1 4.4.4 6 6 0 0 1 2 1.9l.7 1.3.4 1.5c.2 1 .1 2.1 0 3.2l-.4 1.5-.7 1.4-.9 1.3-1.1 1.1c-.8.6-1.7 1.1-2.6 1.5-.9.4-1.8.6-2.6.7l-2.3.1a9 9 0 0 1-3-.5l-.4-.1.4.2 1.1.5 1.8.5 2.5.2a10.4 10.4 0 0 0 4.4-1.1l.8-.4.7-.5c1-.7 1.9-1.5 2.6-2.5.4-.5.7-1.1.9-1.7l.6-1.8c.3-1.2.4-2.5.2-3.8a8.2 8.2 0 0 0-1.3-3.5Z"/><path fill="url(#h)" d="M129.7 154.7c.9 0 1.7-.6 1.8-1.5s-.6-1.7-1.5-1.8c-.9 0-1.7.6-1.8 1.5 0 .9.6 1.7 1.5 1.8Z"/><path fill="url(#i)" d="M129.5 156.8c-.9 0-1.7.6-1.8 1.5 0 .9.6 1.7 1.5 1.8.9 0 1.7-.6 1.8-1.5 0-.9-.6-1.7-1.5-1.8Z"/></g><g fill="#1d1d1b" opacity=".2"><path d="M336.5 263.7a148.3 148.3 0 0 0-48.8 19l-6.1 4c-21.3 14-50.4 33.2-84.5 38.8-34.9 5.9-69.9-.1-102.5-7.4-9.6-2.1-19.3-4.4-29.5-6.9-20.2-4.8-42.2-10.1-66.4-14.6v.4c24.2 4.5 46.1 9.7 66.3 14.6 10.3 2.4 20 4.8 29.5 6.9 14 3.1 28.4 6 43.1 7.9 19.6 2.4 39.6 2.9 59.6-.4 34.2-5.6 63.4-24.8 84.7-38.9l6.1-4a144.3 144.3 0 0 1 48.6-18.9v-.5Z"/><path d="m336.5 259.2-8.2 1.9c-10 2.6-24.9 7-39.5 15.3l-8.7 5.2c-21.6 13.1-51.2 31.1-86.1 35.9-20.3 2.8-48.6 3.6-103.8-11.9-9.7-2.7-19.5-5.6-29.9-8.7-18.9-5.6-39.4-11.6-61.9-17.1v.5c22.5 5.5 42.9 11.5 61.8 17.1 10.4 3.1 20.2 6 29.9 8.7 16.9 4.7 35.4 9.3 54.6 11.7 16.1 2 32.7 2.5 49.3.2 35-4.8 64.6-22.8 86.3-35.9l8.6-5.2a155.6 155.6 0 0 1 39.4-15.2l8.1-1.9v-.4Z"/><path d="m336.5 254.6-6.9 1.5c-11.9 2.8-26 6.7-39.9 14l-11.2 6.2c-23.1 13-51.8 29.1-87.4 33-37.4 4.1-73.8-5.9-104.6-16.3a1852 1852 0 0 1-30-10.4c-17.8-6.3-37-13.1-58.1-19.5v.5c21.1 6.4 40.2 13.2 58 19.4 10.4 3.7 20.2 7.2 30 10.4a328 328 0 0 0 63.7 15.7 171 171 0 0 0 41.1.5c35.7-3.9 64.4-20.1 87.6-33.1l11.1-6.2a170.2 170.2 0 0 1 39.8-14l6.8-1.5v-.4Z"/><path d="m336.5 250.1-5.7 1.2a185 185 0 0 0-54 19.8c-23.3 12.1-52.3 27.2-88.4 30.2-38.4 3.2-74.6-8.7-104.9-20.6-9.8-3.8-19.6-7.9-29.9-12.2-16.8-7-35-14.5-55.1-21.7v.5c20 7.2 38.1 14.7 54.9 21.7 10.4 4.3 20.1 8.4 29.9 12.2a291.8 291.8 0 0 0 70.8 19.8c11.2 1.4 22.6 1.8 34.3.8 36.2-3 65.2-18.1 88.6-30.3l13.6-7a184.2 184.2 0 0 1 45.9-14v-.4Z"/><path d="m336.5 245.6-4.6.9c-11.1 2.3-26.4 5.4-40.9 11.7l-16 7.5c-23.5 11.3-52.6 25.4-89.2 27.5-20.8 1.1-51.5-.7-104.9-24.9-9.8-4.4-19.5-9-29.7-13.9-16.8-8-33.9-16.2-52.7-24v.5c18.8 7.8 35.8 16 52.5 24a1265 1265 0 0 0 29.7 13.9c21.3 9.7 48 20.3 76.9 23.9 9.2 1.1 18.6 1.6 28.1 1 36.6-2.1 65.8-16.2 89.3-27.6 5.6-2.7 10.9-5.3 16-7.5a203 203 0 0 1 45.3-12.5v-.4Z"/></g><path fill="#1d1d1b" d="m289.8 277.7 2.6-24.4-1.3-.2-2.6 21.4a5.7 5.7 0 0 0-3.8-2c-3-.4-5.6 1.3-5.9 3.8-.3 2.5 1.8 4.7 4.8 5.1 2.9.4 5.5-1.5 5.9-3.8h.3ZM233.3 299c-.4-1.6-2-2.9-4-3.1-1.1-.1-2.2 0-3.2.5-.7.4-1.3.7-1.8 1.3l2.6-20.1-1.4-.2-3.4 26.5V305.2h.5l.5.2c1.7.2 3.8.4 5.8-.2 3.1-.9 5.1-3.7 4.4-6.3Zm-4.8 4.8c-1.7.5-3.8.3-4.9.2.5-3.4 1.5-5.4 3.2-6.2.7-.3 1.5-.5 2.3-.4 1.3.2 2.4.9 2.6 2 .5 1.8-1 3.8-3.3 4.4ZM267.2 292.7c2.5-1.8 2.9-5.7-1-9-4.7-4-4.8-9.1-4.8-9.2H260l-3.1 25.7a7.2 7.2 0 0 0-4.6-2.5c-3.6-.4-6.7 1.6-7.1 4.6-.4 3 2.2 5.6 5.8 6 3.5.4 6.7-1.8 7.1-4.7h-.4v.2l1.4-9.8a21 21 0 0 0 4.4 5.4c4.8 4.6.5 8.2.5 8.2 3-1 4.5-4.4 2.2-7.8 2-1.4 2.8-4.3.9-7.1Zm-1.8-7.5c3.1 3 2.4 5.6 1.5 7-.4-.5-.8-1-1.4-1.4-4.2-3.6-4.6-8.1-4.7-9l.2-2a20 20 0 0 0 4.3 5.4Zm.6 14.1c-.4-.5-.8-1-1.4-1.4-4-3.4-4.6-7.7-4.7-8.8l.3-2.1a20 20 0 0 0 4.3 5.4c3.1 3 2.4 5.6 1.5 7ZM214.4 321.9l.4-2.9-6.4-.8.9-7-1.7-.2-.9 7-7-.9.6-4.6-1.7-.2-.6 4.6-6.4-.8-.4 2.9 6.4.8-.6 5.2-6.4-.8-.4 2.9 6.4.8-.9 7 1.7.2.9-7 7 .9-.6 4.6 1.7.2.6-4.6 6.4.8.4-2.9-6.4-.8.6-5.2 6.4.8Zm-8.8 4.2-7-.9.6-5.2 7 .9-.6 5.2Z" opacity=".2"/><g fill="#1d1d1b" opacity=".2"><path d="M59 251.5a16.3 16.3 0 0 0-5.3-6l-.8-.5-.4-.2h-.2l-.2-.2-.4-.2-.4-.2-.9-.4a14.2 14.2 0 0 0-9.4-.1c-1.7.6-3 1.4-3.9 2.2-.9.8-1.5 1.6-1.9 2.2l-.4.7v.1c-.5.6-.8 1.4-1 2.2a5.9 5.9 0 0 0 4.4 7.1c3.2.7 6.4-1.2 7.1-4.4a6 6 0 0 0-4-7l.5-.1c1.4-.3 3-.5 4.7-.1 1.7.3 3.3 1.1 4.9 2.3a13.8 13.8 0 0 1 5 7.7 18.6 18.6 0 0 1-.5 10.4c-.4 1.1-.8 2.3-1.4 3.3a22 22 0 0 1-1.9 3 18 18 0 0 1-5.2 4.5 25.6 25.6 0 0 1-21.4 2l-2.5-.9-.9-.4.8.5 2.3 1.3a27.1 27.1 0 0 0 19.5 1.7l1.8-.6 1.8-.8a23.2 23.2 0 0 0 9-8.3l1.9-3.8a24 24 0 0 0 1.5-8.4c0-2.9-.7-5.7-2-8.2ZM66.4 266.5c2 .4 3.9-.9 4.3-2.9.4-2-.9-3.9-2.9-4.3-2-.4-3.9.9-4.3 2.9-.4 2 .9 3.9 2.9 4.3ZM65.4 271c-2-.4-3.9.9-4.3 2.9-.4 2 .9 3.9 2.9 4.3 2 .4 3.9-.9 4.3-2.9.4-2-.9-3.9-2.9-4.3Z"/></g><path fill="#1d1d1b" d="m174.2 312.3 3-27.1v-.3h-20.9l-.4 3.3-2.5 20.6a6 6 0 0 0-4.2-2.2c-3.2-.4-6.1 1.5-6.5 4.2-.3 2.7 2 5.1 5.3 5.5 3.2.4 6.1-1.3 6.5-4.2h-.3l3-23.8h18l-2.4 20.6a6 6 0 0 0-4.2-2.2c-3.2-.4-6.1 1.5-6.5 4.2-.3 2.7 2 5.1 5.3 5.5 3.2.4 6.1-1.3 6.5-4.2h.2ZM114.8 285.9c-3.9-.5-7.4 2.1-7.8 5h.6v.3h-.3l-3.7 28.7H81.9l2.9-24.9a7.7 7.7 0 0 0 5.1 2.7c3.9.5 7.4-1.8 7.8-5 .4-3.3-2.5-6.2-6.4-6.7-3.9-.5-7.3 1.5-7.8 5h-.1l-3.8 32.2v.6h25.1l.4-3.8 3-24.8a7.7 7.7 0 0 0 5.1 2.7c3.9.5 7.4-1.7 7.8-5 .4-3.3-2.4-6.3-6.3-6.8Z" opacity=".2"/><g opacity=".6"><g fill="#1d1d1b" opacity=".2"><path d="M315.4 190.2a174.2 174.2 0 0 0-36.3 15.6l-5.5 3.4c-19.1 11.9-45.2 28.2-78.2 35.8-33.7 7.8-69.2 7.6-102.5 6.3l-30.2-1.4c-19.7-1-41-2.1-64.2-2.5v.3c23.2.4 44.5 1.5 64.1 2.5l30.2 1.4c14.3.6 29 1 43.8.6 19.7-.5 39.6-2.4 58.9-6.9 33.1-7.6 59.3-23.9 78.4-35.8l5.5-3.4c10-6 21.9-11.1 36.2-15.6a83.6 83.6 0 0 1 18.8-4.5v-.3a83 83 0 0 0-18.9 4.5Z"/><path d="M336.5 181.8a117 117 0 0 0-20.2 4.8 193.4 193.4 0 0 0-44.7 19.3c-19.5 11.3-46.3 26.8-80.2 33.9-19.7 4.2-47.6 7.8-104.4 3.4l-30.8-2.6a1764 1764 0 0 0-57.7-4.5v.3a1779 1779 0 0 1 57.6 4.5l30.8 2.6c17.4 1.4 36.4 2.4 55.7 1.9a268 268 0 0 0 48.8-5.3c34-7.1 60.8-22.6 80.3-34l7.8-4.5a185.3 185.3 0 0 1 36.8-14.7c9.8-2.9 17.6-4.7 20.1-4.8v-.3Z"/><path d="M336.5 178.3c-3.9.7-11 2.5-19.5 4.8a210 210 0 0 0-37.5 14l-10.2 5.5c-21 11.4-47.2 25.6-81.9 32.1-36.4 6.9-73.9 4.1-105.8.5-10.1-1.1-20.4-2.4-31.2-3.8-16.1-2-33.3-4.2-51.9-6v.3c18.6 1.8 35.8 4 51.8 6l31.2 3.8a467 467 0 0 0 65.3 3.7c13.5-.3 27.2-1.6 40.7-4.2 34.8-6.6 61-20.8 82-32.2 3.6-1.9 6.9-3.8 10.2-5.4a273 273 0 0 1 56.8-18.7v-.3Z"/><path d="M336.5 174.9c-4.4 1-11.1 2.6-19 4.7a237 237 0 0 0-38.2 13.2l-12.5 6.2c-21.4 10.8-47.9 24.3-83.3 30.3-37.6 6.4-75.1 2.4-106.8-2.4-10.2-1.5-20.5-3.2-31.3-5-14.6-2.4-30.2-5-46.9-7.3v.3c16.7 2.3 32.2 4.9 46.8 7.3 10.9 1.8 21.1 3.5 31.4 5a427 427 0 0 0 72.9 5.7c11.2-.3 22.7-1.3 34.1-3.2 35.4-6 62-19.5 83.4-30.4l12.5-6.2c12.3-5.8 25.6-9.7 38.1-13.1 7.8-2.1 14.5-3.7 18.9-4.7v-.3Z"/><path d="m336.5 171.7-18.7 4.6c-10.7 2.8-25.4 6.6-38.8 12.5l-14.8 6.9a288.6 288.6 0 0 1-84.4 28.6c-20.4 3.1-51.1 5.2-107.3-5.4-10.3-1.9-20.5-4-31.4-6.2-13.8-2.8-27.8-5.7-42.6-8.3v.3c14.8 2.6 28.7 5.5 42.5 8.3 10.8 2.2 21 4.3 31.4 6.2a385 385 0 0 0 79.5 7.8c9.2-.2 18.6-1 28-2.4a289.3 289.3 0 0 0 84.5-28.6l14.8-6.9c13.4-5.8 28-9.6 38.7-12.4l18.5-4.6v-.3Z"/></g><path fill="#1d1d1b" d="M280.5 202.2h.2l-.8-16.9h-1.3l.5 14.9c-1-.6-2.5-1-4.1-1-3 0-5.4 1.5-5.3 3.2 0 1.7 2.5 3 5.5 2.9 3 0 5.2-1.6 5.2-3.2h.2ZM227.7 222.9c-.7-1.1-2.4-1.7-4.4-1.7-1.1 0-2.2.3-3.1.7-.7.3-1.2.6-1.6 1.1l-.3-13.9h-1.5l.4 18.5v.9h1.2c1.8 0 3.8-.2 5.7-.8 2.9-.9 4.5-3.1 3.5-4.8Zm-4 3.8c-1.6.5-3.7.6-4.8.7 0-2.4.7-3.8 2.3-4.6a5 5 0 0 1 2.2-.5c1.4 0 2.5.4 2.9 1 .7 1.2-.4 2.7-2.6 3.4ZM260.3 214.9c2.2-1.5 2.1-4.2-2.2-6-5.2-2.2-6.1-5.7-6.1-5.7h-1.4l.6 18c-1.2-.7-3-1.2-4.9-1.2-3.6 0-6.4 1.8-6.4 3.9 0 2.1 3 3.5 6.6 3.4 3.6 0 6.4-1.9 6.4-4h-.4v.2-6.9c.8.9 2.4 1.9 5.1 3.2 5.4 2.6 1.7 5.5 1.7 5.5 2.8-1 3.8-3.5 1.1-5.5 1.8-1.2 2.1-3.2-.1-4.9Zm-2.9-4.9c3.5 1.7 3.1 3.5 2.4 4.6a6 6 0 0 0-1.6-.8c-4.6-2-5.7-5-5.9-5.6v-1.4c.8.9 2.3 1.9 5 3.2Zm2.6 9.5a6 6 0 0 0-1.6-.8c-4.4-1.9-5.6-4.7-5.9-5.5v-1.5c.8.9 2.3 1.9 5 3.2 3.5 1.7 3.1 3.5 2.4 4.6ZM212.1 240.6v-2l-6.5.2V234h-1.9v4.9l-6.9.2v-3.2H195v3.3l-6.3.2v2l6.5-.2v3.6l-6.3.2v2l6.5-.2v4.8h1.9v-4.9l6.9-.2v3.2h1.8v-3.3l6.3-.2v-2l-6.5.2v-3.6l6.3-.2Zm-8.1 3.8-7 .2V241l6.9-.2v3.6Z" opacity=".2"/><g fill="#1d1d1b" opacity=".2"><path d="M48.4 209.9a16 16 0 0 0-6.1-3.5l-.9-.3H41l-.3-.2h-.6l-.5-.2-.9-.1c-1.2-.2-2.4-.2-3.5-.2-2.3 0-4.3.6-5.8 1.1-1.6.6-2.7 1.3-3.5 2-.8.7-1.3 1.3-1.5 1.7l-.3.5c-.4.5-.6 1-.7 1.6-.3 2.2 2.1 4.2 5.4 4.3 3.3.2 6.1-1.6 6.4-3.8.3-2.1-1.9-4-4.9-4.3l.5-.1a16 16 0 0 1 9.8.4c1.7.6 3.3 1.6 4.5 2.8a9 9 0 0 1 2.4 9 11.7 11.7 0 0 1-4.4 6.6l-2.5 1.7a31.4 31.4 0 0 1-16.8 3.9l-4.1-.2-2.6-.4-.9-.2.9.3 2.5.7c1.1.2 2.5.5 4.1.6 1.6.1 3.5.2 5.5.1s4.2-.4 6.5-.9l3.4-1 1.7-.6a12 12 0 0 0 1.6-.8c2.2-1.1 4.2-2.4 5.7-4.1.8-.8 1.4-1.7 2-2.6a11.8 11.8 0 0 0 1.6-8.7 11 11 0 0 0-3.1-5.4ZM57.8 219.2c2 0 3.8-1 3.9-2.4.1-1.4-1.4-2.6-3.4-2.6s-3.8 1-3.9 2.4c-.1 1.4 1.4 2.6 3.4 2.6ZM57.5 222.4c-2 0-3.8 1-3.9 2.4-.1 1.4 1.4 2.6 3.4 2.6s3.8-1 3.9-2.4c.1-1.4-1.4-2.6-3.4-2.6Z"/></g><path fill="#1d1d1b" d="m171 238.5-.8-18.7v-.2l-20.7 2.4v2.2l.6 14.3a7.7 7.7 0 0 0-4.5-1c-3.3 0-5.9 1.7-5.8 3.5 0 1.9 2.7 3.3 6 3.2 3.2 0 5.8-1.6 5.8-3.6h-.4l-.3-16.5 17.8-2.1.5 14.3a7.6 7.6 0 0 0-4.4-1c-3.3 0-5.9 1.7-5.8 3.5 0 1.9 2.7 3.3 6 3.2 3.2 0 5.8-1.5 5.8-3.6h.1ZM108.5 227.1c-3.9.1-7.1 2.2-7.2 4.2h.5v.2l.5 20-21.5 2.4-.6-17.3c1.3.8 3.2 1.3 5.4 1.3 3.9-.1 7.1-2 7-4.3s-3.3-4.1-7.2-3.9c-3.9.1-7 1.8-7 4.2l.7 22.2v.6l25-2.7v-2.6l-.7-17.2c1.3.8 3.3 1.3 5.4 1.3 3.9-.1 7.1-2 7-4.3 0-2.3-3.3-4-7.2-3.9Z" opacity=".2"/></g><g opacity=".2"><g fill="#1d1d1b"><path d="M336.5 12.9A1157 1157 0 0 1 252 9.2l-30.3-2c-33.4-1.9-69-2.1-102.5 9.4C86.3 27.7 60.7 51.4 42 68.7l-5.4 5A144.8 144.8 0 0 1 .9 96.4l-2.3 1v.5l2.5-1.1A147.6 147.6 0 0 0 36.9 74l5.4-5C61 51.7 86.6 28 119.4 16.9c33.5-11.5 69-11.3 102.4-9.4 9.8.5 19.7 1.2 30.3 2 25.3 1.8 53.4 3.8 84.6 3.7v-.4Z"/><path d="M336.5 30.3c-28.6-1.6-54.3-4.8-77.7-7.8l-30.9-3.7c-32-3.5-69.5-5.7-104.5 5.2-33.8 10.4-60.1 33-79.3 49.5l-7.7 6.6A152 152 0 0 1 0 101.5l-1.6.7v.5l1.8-.8C9.6 97.7 23.6 91 36.6 80.4l7.7-6.6c19.2-16.5 45.4-39.1 79.1-49.4 19.6-6.1 47.3-11.5 104.3-5.2 10 1.1 20.1 2.3 30.9 3.7 23.4 2.9 49.1 6.1 77.8 7.8v-.4Z"/><path d="M336.5 47.1c-26.3-3-50-7.2-71.6-11.1-10.9-1.9-21.1-3.8-31.3-5.4-32.1-5.2-69.7-9.2-106 1-34.6 9.6-60.3 30.3-81 46.9-3.5 2.8-6.8 5.5-10 7.9a171.9 171.9 0 0 1-37 20.3l-1 .4v.5l1.2-.5a170.4 170.4 0 0 0 47.1-28.2c20.7-16.6 46.4-37.2 80.8-46.8 36.2-10.2 73.8-6.2 105.8-1 10.2 1.6 20.4 3.5 31.3 5.4 21.7 3.9 45.4 8.1 71.7 11.1v-.4Z"/><path d="M336.5 63.4a984.2 984.2 0 0 1-66.3-14c-10.9-2.6-21.2-5-31.5-7.2-31.9-6.9-69.6-12.7-107.1-3.3-35.2 8.9-61.4 28.5-82.5 44.3l-12.3 9.1A189 189 0 0 1-.9 111.5l-.7.3v.5l.8-.3A187 187 0 0 0 37 92.8l12.3-9.1c21-15.8 47.2-35.4 82.3-44.2 37.4-9.4 75-3.6 106.9 3.3 10.3 2.2 20.6 4.6 31.5 7.2 20.1 4.7 42.1 9.9 66.4 14v-.4Z"/><path d="M336.5 79.5c-22.1-4.9-42.1-10.8-61.7-16.4a1039 1039 0 0 0-31.6-8.9c-29.8-8-69-16.1-107.7-7.5-35.8 8.1-62.3 26.7-83.6 41.7-5.1 3.6-9.9 7-14.6 10.1a199.4 199.4 0 0 1-38.8 18.3v.5l.6-.2c10.6-4.1 25.2-9.6 38.4-18.2 4.7-3.1 9.5-6.5 14.6-10.1 21.3-15 47.8-33.6 83.5-41.7 20.3-4.5 50.9-7.7 107.5 7.5 10.4 2.8 20.7 5.7 31.6 8.9A1012 1012 0 0 0 336.5 80v-.4Z"/></g><path fill="#1d1d1b" d="M79.8 40.6a11.6 11.6 0 0 1-5.9-6.7v.2h-1l2.4 22.1A5.8 5.8 0 0 0 71 55c-3 .3-5.3 2.6-5 5.1.3 2.5 3 4.3 6 4 3-.3 5.2-2.8 5-5.1h.2l-2.4-20.7c.8 1 2.2 2.2 4.6 3.7 4.8 2.9 1.9 6.7 1.9 6.7 2.7-1.7 2.9-5.8-1.6-8.2ZM192.6 15.8l9.4 11.6s-3.9 2.4-3 6.9c.9 4.5 9 12.3 9 12.3s-6.7-2.8-8.5-.6c-1.8 2.2 3.7 8.2 3.7 8.2s-5.1-4.3-7.1-8.5-.4-6.1 2.5-5.1l-7.4-9.2s2.5.8 5-2.5c2.5-3.4-3.8-13.1-3.8-13.1ZM266.4 13.6c-4.7.5-8.1 4-7.8 8.1h-.5v-.2h.2l3.9 34.8-25.3 6.1-3.3-30.1c1.7 1.3 4.1 2 6.7 1.8 4.7-.5 8.2-4.1 7.8-8-.4-3.9-4.6-6.5-9.3-6-4.7.5-8.1 4-7.8 8.1v-.5l4.2 38.6v1l29.7-6.8-.5-4.6-3.3-29.9c1.7 1.3 4.1 2 6.7 1.8 4.7-.5 8.2-4 7.8-7.9-.4-3.9-4.6-6.6-9.3-6.1ZM170.9 0l-34 8 2.3 20.5c-1-.8-2.5-1.2-4-1-2.8.3-4.9 2.4-4.6 4.8.2 2.3 2.7 3.9 5.5 3.6 2.8-.3 4.8-2.4 4.6-4.8v-.2l-2-17.9 15-3.7 1.7 15.3c-1-.8-2.4-1.1-3.9-1-2.8.3-4.9 2.4-4.6 4.8.2 2.3 2.7 4.1 5.5 3.8 2.7-.3 4.8-2.2 4.6-4.5v-.3l-2.1-18 .3-.1L170 5.7l1.7 15.4c-1-.8-2.5-1.2-4-1-2.8.3-4.9 2.4-4.6 4.8.2 2.3 2.7 3.9 5.5 3.6 2.8-.3 4.8-2.4 4.6-4.8L170.9 0ZM116.9 40.6c-2.4.3-4.1 1.8-3.9 4.1h-.2l1.8 15.3-12.8 3.2-1.4-13.1c.9.7 2.1 1 3.4.9 2.4-.3 4.2-2.1 3.9-4.1-.2-2-2.3-3.3-4.7-3-2.4.3-4.1 2.3-3.9 4.1l2.2 19.7v.3l15-3.5-.3-2.4-1.7-15.2c.9.7 2.1 1 3.4.9 2.4-.3 4.2-2 3.9-4-.2-2-2.3-3.4-4.7-3.1Zm-2.1 20.6v1l-12.7 3.1v-1l12.7-3.2ZM45.6 86.3l-.8-1.1-1-.9a6.7 6.7 0 0 0-4.7-1.6c-.4 0-.8 0-1.2.2l-1.1.4-.3.1-1.5-3.5a37 37 0 0 0 1.9-4.6c.3-1.1.5-2.3.5-3.5 0-.6 0-1.2-.2-1.8l-.2-.9v-.4l-.2-.4c-.3-1.1-.8-2.1-1.4-3.1-.6-1-1.4-1.9-2.3-2.6l-.8-.5c-.3-.1-.6-.3-1-.3H30.3l-.2.1-.5.5-.3.5c-.2.7-.2 1.3-.2 1.8l.2 1.6a38 38 0 0 0 1.8 6l1.9 5-1.2 2.5-.7 1.4-.7 1.5c-.4 1-.7 2.1-.9 3.2-.2 1.1-.2 2.2-.1 3.3 0 1.1.3 2.2.7 3.2 0 .3.2.5.3.7l.4.7 1 1.3c.7.8 1.7 1.4 2.6 1.7h.4l.4.2.8.2h1.5c1 .1 1.9 0 2.9-.3.6-.2 1.2-.4 1.8-.8l.6 1.2 1 2.1a18 18 0 0 1 1 3.1v1a3.7 3.7 0 0 1-1.6 3H43v.1h-.1l-.4.2-.7.2h-.7c-.2 0-.4 0-.6-.2-.4-.2-.7-.4-.9-.7a.8.8 0 0 1-.2-.5v-1.3l.1-.4h1.3a2 2 0 0 0 1.3-2.6c-.4-1.1-1.5-1.7-2.6-1.3-.8.2-1.5.7-1.9 1.7-.4.8-.5 1.8-.4 2.7l.2.7.3.7c.2.4.6.9 1.1 1.2.4.4 1 .6 1.6.8h1.8l.9-.3.4-.2h.2l.2-.3.7-.7.6-.9c.3-.6.5-1.3.5-2.1v-1.2c0-.4-.2-.7-.3-1.1-.4-1.4-1.1-2.8-1.8-4.2l-.6-1.2c.9-.6 1.7-1.2 2.3-2.1.6-.7 1-1.6 1.3-2.5l.3-1.4v-2.1c-.2-.2-.2-.5-.3-.7l-.6-1.2ZM30.8 63.4Zm0 0Zm1.4 8.8-.9-2.9-.6-3-.1-1.5.1-1.3.1-.2h.2c.3 0 .7.3 1 .6.7.6 1.2 1.4 1.6 2.3.4.9.7 1.8.9 2.8v.3l.2.4.1.7v1.4c0 .9-.3 1.8-.6 2.7l-.6 1.6-1.4-4Zm8 24.2-1.3.3h-2.3l-.3-.2-1.2-.4-1.1-.7-.9-.9-.7-1.1-.2-.6-.2-.6a11 11 0 0 1 .2-5.4c.2-.9.6-1.8 1-2.7l.6-1.3.7-1.4v-.2l1.3 2.8-.2.2-.4.4a5.8 5.8 0 0 0-1.1 6.1c.3.8.8 1.3 1.2 1.7.4.4.8.5 1.1.5H36.7l-.2-.2c-.2-.1-.5-.4-.7-.8l-.5-1.5c0-.6 0-1.4.3-2.1.3-.7.7-1.4 1.4-2l1.1 2.3 2.5 4.7 1.2 2.2v.1c-.5.3-1.1.6-1.6.7Zm4.4-7.1a5 5 0 0 1-.5 4.1c-.4.7-1 1.4-1.7 1.9L39 88.2l-1.1-2.4.3-.1c.4-.2.8-.2 1.3-.2.9 0 2 .3 3 1 .5.3.9.7 1.3 1.2l.5.8.2.4v.5Z"/></g><g opacity=".2"><g fill="#1d1d1b"><path d="M336.5 84.4C304 83 275 80.2 248.9 77.7c-10.5-1-20.4-2-30.2-2.8-33.3-2.9-68.8-4.7-102.7 1.6-33.2 6-59.6 21-78.8 32l-5.5 3.1c-9.3 5-20.2 9.3-33.2 12.9v.3c13.1-3.7 24-7.9 33.4-13l5.5-3.1C56.6 97.8 83 82.8 116.1 76.8c33.8-6.2 69.3-4.4 102.6-1.5l30.2 2.8c26.1 2.5 55.1 5.3 87.6 6.7v-.3Z"/><path d="M336.5 96.4c-30-2.5-56.9-6.1-81.2-9.3l-30.7-4c-31.9-3.9-69.2-7.2-104.5-1.4C86 87.2 59 101.4 39.3 111.8l-7.9 4.1a180 180 0 0 1-32.9 11.9v.3c9.3-2.5 21.5-6.2 33.1-11.9l7.9-4.1c19.7-10.3 46.6-24.5 80.6-30 19.8-3.2 47.6-5.6 104.4 1.4 10 1.2 20 2.6 30.7 4 24.3 3.2 51.2 6.8 81.3 9.3v-.3Z"/><path d="M336.5 108.1c-27.9-3.4-52.9-7.6-75.6-11.5l-31.1-5.2c-31.9-5.1-69.4-9.6-105.9-4.3-34.8 5-61.2 17.8-82.4 28.2l-10.2 4.9c-11 5-22.5 8.4-32.8 10.9v.3c10.3-2.6 21.9-5.9 33-11l10.2-4.9c21.2-10.3 47.5-23.2 82.3-28.1 36.5-5.2 73.9-.7 105.7 4.3a1836 1836 0 0 1 31.1 5.2c22.7 3.9 47.7 8.1 75.6 11.5v-.3Z"/><path d="M336.5 119.6c-26.1-4.1-49.4-9-70.6-13.4-10.8-2.3-21-4.4-31.3-6.4-31.7-6.2-69.1-11.9-106.9-7.3a274 274 0 0 0-83.8 26.4 206.5 206.5 0 0 1-45.4 15.7v.3a210 210 0 0 0 45.7-15.7 274.6 274.6 0 0 1 83.6-26.3c37.6-4.6 75 1.1 106.7 7.3l31.3 6.4c21.3 4.5 44.6 9.3 70.8 13.5v-.3Z"/><path d="M336.5 130.8c-24.1-4.7-45.5-10-66.5-15.2a2299 2299 0 0 0-31.2-7.6c-29.5-6.9-68.4-14.3-107.4-10.2-36 3.8-63.1 15.3-84.9 24.5l-14.9 6.2a223 223 0 0 1-33.1 9.3v.3c9.9-2.2 22.1-5 33.3-9.4l14.9-6.2c21.8-9.2 48.8-20.7 84.7-24.5 20.4-2.1 51.1-2.9 107.2 10.2 10.3 2.4 20.5 4.9 31.2 7.6 21 5.2 42.4 10.5 66.6 15.2v-.3Z"/></g><path fill="#1d1d1b" d="M75.9 91.1c-4.6-1.9-5.6-4.8-5.6-4.8v.2h-1l1.7 15.1a8 8 0 0 0-4.3-1c-3.1 0-5.4 1.5-5.2 3.3.2 1.7 2.8 3.1 5.9 3 3 0 5.3-1.5 5.2-3.3L71 89.3c.8.8 2.1 1.6 4.5 2.7 4.7 2.2 1.7 4.7 1.7 4.7 2.8-1 3.1-3.8-1.3-5.6ZM189.5 79.5l9 8.4s-4 1.5-3.2 4.6c.8 3.1 8.6 8.8 8.6 8.8s-6.6-2.2-8.4-.8c-1.8 1.4 3.5 5.8 3.5 5.8s-5-3.2-6.8-6.2c-1.9-3-.2-4.2 2.7-3.4l-7.1-6.6s2.5.7 5.1-1.5c2.6-2.2-3.4-9.1-3.4-9.1ZM263.2 81.4c-4.7.1-8.2 2.3-8 5.1h-.5l.2-.1 2.8 24-25.5 2.9-2.3-20.7c1.7 1 4.1 1.6 6.6 1.5 4.7-.1 8.3-2.4 8-5.1-.3-2.7-4.3-4.7-9.1-4.6-4.7.1-8.2 2.4-8 5.2v-.4l3 26.5v.7l29.9-3.2-.4-3.1-2.3-20.6c1.7 1 4.1 1.6 6.6 1.5 4.7-.1 8.3-2.3 8-5.1-.3-2.7-4.4-4.7-9.1-4.6ZM168.3 67.7l-34.2 3.9 1.6 14.1c-1-.6-2.4-.9-3.9-.9-2.8 0-5 1.4-4.8 3 .2 1.6 2.6 2.8 5.4 2.7 2.8 0 4.9-1.4 4.8-3v-.1l-1.4-12.3 15.1-1.8 1.2 10.5c-1-.6-2.4-.9-3.9-.9-2.8 0-5 1.4-4.8 3 .2 1.6 2.6 2.9 5.4 2.8 2.8 0 4.9-1.3 4.8-2.9v-.2l-1.5-12.4h.3l14.9-1.8 1.2 10.6c-1-.6-2.4-.9-3.9-.9-2.8 0-5 1.4-4.8 3 .2 1.6 2.6 2.8 5.4 2.7 2.8 0 4.9-1.4 4.8-3l-1.8-16.2ZM113 92.8c-2.4 0-4.2 1-4.1 2.6h-.2l1.3 10.5-12.9 1.6-1-9c.9.5 2.1.8 3.4.8 2.4 0 4.2-1.2 4.1-2.6-.1-1.4-2.2-2.4-4.6-2.3-2.4 0-4.1 1.4-4.1 2.6l1.6 13.6v.2l15.1-1.7-.2-1.6-1.2-10.4c.8.5 2.1.8 3.4.8 2.4 0 4.2-1.2 4.1-2.6-.1-1.4-2.2-2.4-4.6-2.3Zm-2.8 13.9v.7l-12.8 1.5v-.7l12.8-1.6ZM40.3 120.7l-.8-.8-.9-.7c-1.3-.8-3-1.3-4.6-1.3h-1.2l-1.1.2h-.3l-1.4-2.4c.8-1 1.5-2 2-3.1a6 6 0 0 0 .6-2.4l-.1-1.2-.2-.6v-.3l-.2-.3c-.3-.8-.8-1.5-1.3-2.2a8.2 8.2 0 0 0-2.2-1.9l-.8-.4-1-.3h-1.2c-.2 0-.4.2-.5.3l-.3.4c-.2.5-.2.9-.2 1.2a21.4 21.4 0 0 0 1.8 5.3c.6 1.2 1.1 2.4 1.8 3.5l-1.3 1.6-.7.9-.7 1c-.4.7-.8 1.4-1 2.2-.2.7-.3 1.5-.3 2.3 0 .8.3 1.5.6 2.2 0 .2.2.4.3.5l.4.5 1 .9a7 7 0 0 0 2.6 1.3h.4l.4.2.8.1h1.5c1 .2 2 .1 2.9 0 .6 0 1.3-.2 1.8-.4l.6.8.9 1.5.7 1.4.2.7v.7c0 .4-.2.8-.5 1.2-.3.3-.7.6-1.2.8H37.3l-.4.1h-1.4c-.2 0-.4 0-.6-.2a2 2 0 0 1-.9-.5l-.2-.3V132.3l.1-.3h1.2c1.1-.2 1.7-.9 1.4-1.7-.3-.7-1.4-1.2-2.5-1-.8.1-1.5.4-2 1.1-.4.5-.6 1.2-.4 1.9 0 .2 0 .3.2.5 0 .2.2.3.3.5l1 .9c.4.3 1 .5 1.6.6l.9.1h.9c.3 0 .6 0 .9-.2l.4-.1h.2l.2-.2.8-.4.6-.6c.3-.4.5-.9.5-1.4v-.8l-.2-.7c-.4-1-1-2-1.6-3l-.6-.9c.9-.3 1.7-.8 2.4-1.3.6-.5 1.1-1 1.4-1.6l.3-.9v-1.5l-.3-.5-.6-.9Zm-14.1-16.3Zm0 0Zm1.1 6.1-.8-2a16 16 0 0 1-.5-2.1v-1c0-.3 0-.7.2-.9l.1-.1h.2c.3 0 .7.2 1 .5.6.4 1.1 1 1.5 1.6.4.6.6 1.3.8 1.9v.5c.2.1.2.3.2.5v.9c0 .6-.3 1.2-.7 1.8l-.7 1.1a24 24 0 0 1-1.3-2.8Zm7.2 16.9-1.3.1h-2.3l-.3-.2-1.2-.3-1.1-.5-.9-.7c-.3-.2-.5-.5-.6-.8l-.2-.4-.2-.4c-.4-1.2-.2-2.5.4-3.7.3-.6.6-1.2 1.1-1.8l.7-.8.8-.9v-.1l1.2 2h-.2c-.1.2-.3.3-.4.3-.9.6-1.5 1.4-1.6 2.2-.2.7 0 1.4.3 1.9s.7.9 1.1 1.2c.4.3.8.4 1.1.4H31.2l-.2-.1-.7-.6c-.2-.3-.4-.6-.4-1.1 0-.4 0-.9.3-1.4a4 4 0 0 1 1.5-1.3l1.1 1.6 2.3 3.3 1.1 1.6-1.7.4Zm4.6-4.6c.3.8.2 1.9-.7 2.8-.4.5-1.1.9-1.8 1.2l-3.2-5-1-1.7h.3l1.3-.1c.9 0 2 .3 2.9.8.5.2.9.5 1.3.9l.5.5.2.3V122.8Z"/></g><path fill="url(#j)" d="M226.9 158.9h98.9v29.4h-98.9z"/><path fill="#f9b72f" d="M322.2 220.5c-2.2 0-3.9 1.8-3.9 3.9s.3 1.7.8 2.3l3.2 5.5 3.2-5.5a4 4 0 0 0 .8-2.3c0-2.2-1.8-3.9-3.9-3.9Zm0 5.7c-1 0-1.7-.8-1.7-1.7s.8-1.7 1.7-1.7 1.7.8 1.7 1.7-.8 1.7-1.7 1.7Z"/><path fill="url(#k)" d="M257.8 211.6c1.5-1.4 1.4-4-1.4-5.9-3.4-2.3-3.9-5.6-3.9-5.6h-.9v17.3a4.3 4.3 0 0 0-3.2-1.3c-2.4 0-4.3 1.6-4.3 3.6s1.9 3.5 4.3 3.5 4.3-1.7 4.3-3.7h-.2v.2-6.6a18 18 0 0 0 3.4 3.2c3.5 2.6 1 5.3 1 5.3 1.9-.9 2.6-3.3.8-5.3 1.2-1.1 1.5-3 0-4.7Zm-1.8-4.8c2.3 1.7 2 3.5 1.5 4.5l-1-.8c-3-2-3.7-4.9-3.8-5.5v-1.4a11 11 0 0 0 3.3 3.2Zm1.5 9.2-1-.8c-2.9-1.9-3.6-4.7-3.8-5.4v-1.4a11 11 0 0 0 3.3 3.2c2.3 1.7 2 3.5 1.5 4.5Z" filter="url(#l)"/><path fill="url(#m)" d="m186.7 8 6.2 9.5s-3.2 1.5-2.8 5c.3 3.5 5.8 10 5.8 10s-4.8-2.7-6.3-1.2c-1.5 1.5 2.2 6.5 2.2 6.5s-3.5-3.7-4.7-7c-1.2-3.3.2-4.7 2.3-3.7l-4.8-7.5s1.8.8 4-1.5S186.8 8 186.8 8Z" filter="url(#n)"/><path fill="url(#o)" d="m315.3 56.1-22 2.8V72c-.5-.6-1.4-.9-2.4-.9-1.8 0-3.2 1.2-3.2 2.7 0 1.5 1.5 2.7 3.2 2.7 1.8 0 3.2-1.2 3.2-2.7V62.3l9.7-1.3v9.8c-.6-.5-1.4-.9-2.4-.9-1.8 0-3.2 1.2-3.2 2.7 0 1.5 1.5 2.8 3.2 2.8 1.8 0 3.2-1.1 3.2-2.6V61.1h.1l9.6-1.3v9.8c-.6-.6-1.4-.9-2.4-.9-1.8 0-3.2 1.2-3.2 2.7 0 1.5 1.4 2.7 3.2 2.7 1.8 0 3.2-1.2 3.2-2.7V56.3Z" filter="url(#p)"/><g fill="#f9b72f" data-name="PRINT"><path d="M29.6 14c0 .5-.2 1-.6 1.4l-6.3 6.3-6.8-3.9V14c0-1.1.9-2 2-2s2 .9 2 2v4.9l6.3-6.3c.8-.8 2.1-.8 2.8 0 .4.4.6.9.6 1.4ZM29 31.8c-.4.4-.9.6-1.4.6s-.5 0-.8-.2l-.6-.4-2.1-2.1-4.1-4.1v4.9c0 1.1-.9 2-2 2s-2-.9-2-2v-3.8l6.8-3.9L27 27l2.1 2.1c.8.8.8 2.1 0 2.8ZM22.4 22s0-.2-.2-.2l-1.7-1-4.6-2.6L12 16a.5.5 0 0 0-.6.2V28.1c0 .3.2.5.5.5h.2l3.9-2.2 6.3-3.6.1-.2v-.3Zm-9.6-4.7 3 1.7 4.9 2.8.1.1v.3s0 .2-.2.2l-4.9 2.8-3 1.7-.5-.1V17.5c0-.2.2-.3.3-.3h.2Z"/><path d="m19.5 22.2-.1.2-3.7 2.1-2.3 1.3H13V18.9c0-.1.1-.3.3-.3h.1l2.3 1.3 3.7 2.1.1.2v.1ZM62.5 21.7l-5.6-2.8-3.4-1.7c-.2-.1-.4 0-.5.2v9.5c.1.2.3.4.6.4h.4l3.2-1.8 2-1.1 3.5-1.9.2-.2v-.2l-.2-.2Zm-5.6 2.8-2.6 1.4-.4-.1v-7.3c0-.2 0-.3.2-.3h.1l2.7 1.3 1 .5 3.4 1.7.2.2v.2l-.1.1-4.3 2.3Z"/><path d="m60.1 22.1-.1.1-3.2 1.7-2 1.1h-.3v-5.4c0-.1 0-.2.2-.2l2 1L60 22l.1.1v.1ZM38.5 17.3h-4.9V27H36v-3.2h2.5c2.3 0 4.1-1.4 4-3.4 0-1.9-1.8-3.2-4.1-3.2Zm-.2 4.6H36v-2.7h2.3c1.1 0 1.9.5 1.9 1.3s-.8 1.4-1.9 1.4ZM51.8 27l-7.7.1-.2-9.6 2.4-.1.1 7.8h5.3l.1 1.8zM67.5 23.3l.1 3.5-2.4.1v-3.5l-4.3-6.2h2.7l2.7 4.2 2.8-4.2 2.6-.1-4.2 6.2zM81.9 27.3h-1.6l-4.1-4.4-1.7 1.6v2.9h-1.2l-.1-9.6 1.2-.1.1 5.4 5.4-5.4 1.6-.1-4.5 4.5 4.9 5.2zM88 17.4c-3 0-5.5 2.3-5.5 5.1 0 2.7 2.6 5 5.6 4.9 3 0 5.5-2.4 5.5-5.1 0-2.7-2.6-5-5.6-4.9Zm.4 9a4.3 4.3 0 0 1-4.6-3.9 4.3 4.3 0 0 1 8.5-.1 4.2 4.2 0 0 1-3.9 4ZM103.2 24.6c0 1.5-1.2 2.8-3.8 2.8-1.6 0-3.1-.5-4.3-1.5l.8-.9c1 .9 2.2 1.4 3.5 1.4 1.7 0 2.5-.9 2.5-1.7 0-1-1-1.4-2.9-1.8-2.2-.4-3.5-1-3.6-2.7 0-1.5 1.5-2.8 3.6-2.8 1.4 0 2.7.4 3.8 1.3l-.7.9c-.9-.8-2-1.2-3.1-1.2-1.3 0-2.3.8-2.3 1.7 0 1 1.1 1.3 2.9 1.7 2.1.4 3.5 1.1 3.6 2.8ZM116 27.3h-1.2l-.1-7.3-3.9 6.8-4.1-6.7.1 7.3h-1.3l-.1-9.6 1.3-.1 4 6.7 4-6.8h1.2l.1 9.7zM123.7 17.4c-3 0-5.5 2.3-5.5 5.1 0 2.7 2.6 5 5.6 4.9 3 0 5.5-2.4 5.5-5.1 0-2.7-2.6-5-5.6-4.9Zm.4 9a4.3 4.3 0 0 1-4.6-3.9 4.3 4.3 0 0 1 8.5-.1 4.2 4.2 0 0 1-3.9 4ZM138.9 24.6c0 1.5-1.3 2.8-3.8 2.8-1.5 0-2.9-.4-4.1-1.3l-.2-.2.8-.9.5.4c.9.6 1.9 1 3 .9 1.7 0 2.5-.9 2.5-1.7 0-.8-.6-1.2-1.6-1.5l-1.2-.3h-.2c-2.2-.4-3.5-1-3.6-2.7 0-1.5 1.5-2.8 3.6-2.8 1.4 0 2.7.4 3.8 1.3l-.7.9c-.9-.8-2-1.2-3.1-1.2-1.3 0-2.3.8-2.3 1.7 0 1 1.1 1.3 2.9 1.7.4 0 .8.2 1.1.3l1 .4c.9.4 1.5 1.1 1.5 2.1Z"/></g><path fill="url(#q)" d="M33.9 248.5c-2.7 0-4.9 2-4.9 4.1h.1v20l-14.8 1.9v-17.3c.8.9 2.1 1.4 3.6 1.4 2.7 0 4.9-1.8 4.9-4.1s-2.2-4.1-4.9-4.1-4.9 1.9-4.9 4v22.3h.1v.5l17.2-2.1v-19.9c.8.9 2.1 1.4 3.6 1.4 2.7 0 4.9-1.8 4.9-4.1s-2.2-4.1-4.9-4.1Z" filter="url(#r)"/><path fill="url(#s)" d="m50.4 86.4-.5-.8-.6-.7a5.3 5.3 0 0 0-3.3-1.5h-.9l-.8.2h-.2l-.8-2.6 1.7-3.2c.3-.8.6-1.6.6-2.5v-2.5l-.9-2.4c-.4-.8-.8-1.5-1.5-2.1l-.5-.4-.7-.3h-.8c-.2 0-.3.2-.4.3l-.2.4-.3 1.3v1.2l.8 4.5 1 3.8-1.1 1.7-.6 1-.6 1.1c-.4.7-.7 1.5-.9 2.3l-.4 2.4c0 .8 0 1.6.3 2.4l.2.6.2.6.6 1c.5.6 1.1 1.1 1.8 1.5h.3l.3.2.5.2h.5l.3.2h2.4c.5 0 .9-.2 1.4-.4l.4.9.6 1.6a7.5 7.5 0 0 1 .5 2.4v.7c0 .5-.2.9-.5 1.3l-.9.8h-.2l-.3.1h-1.1l-.5-.2-.6-.6-.1-.4V99.6l.1-.3c.3.1.6.2.9 0 .8-.2 1.3-1 1.1-1.8-.2-.8-1-1.3-1.8-1.2a2 2 0 0 0-1.5 1.1c-.3.5-.5 1.3-.5 2v.5c0 .2 0 .3.2.5l.7 1 1.1.7.6.1h.7l.7-.1.3-.1h.2l.2-.2.6-.4.5-.6c.3-.4.4-.9.5-1.5v-.8l-.1-.8c-.2-1.1-.6-2.1-1-3.2l-.3-1a8 8 0 0 0 1.9-1.3c.5-.5.9-1.1 1.1-1.7l.3-1v-1.6l-.1-.5-.3-1Zm-9.1-17.9Zm0 0Zm.4 6.6-.4-2.2-.2-2.2v-1.1c0-.3 0-.7.2-.9v-.1h.1c.2 0 .5.3.7.5a7.7 7.7 0 0 1 1.5 3.9v2c0 .6-.3 1.3-.6 1.9l-.6 1.1-.7-3Zm3.9 18.3h-2.5v-.2h-.4l-.9-.5-.7-.6-.6-.8-.4-.9-.1-.5v-.5c-.2-1.3 0-2.7.6-3.9l.9-1.9.6-.9.6-.9v-.1l.7 2.2h-.2c0 .2-.2.3-.3.4-.7.7-1.2 1.5-1.4 2.3a5 5 0 0 0 0 2.1c.2.6.5 1 .7 1.3l.8.5h.2l-.2-.1-.4-.6-.2-1.2c0-.5.1-1 .4-1.5.2-.5.6-1 1.2-1.3l.7 1.7 1.4 3.6.7 1.7a3 3 0 0 1-1.3.5Zm3.7-4.8c.2.9 0 2.1-.7 3-.4.5-.8.9-1.4 1.3l-1.9-5.4-.6-1.9h1.2c.7 0 1.4.4 2.1 1l.9 1 .3.6.1.3V88.8Z"/></g></svg>