<svg xmlns="http://www.w3.org/2000/svg" xmlns:xlink="http://www.w3.org/1999/xlink" width="335" height="335"><defs><linearGradient id="f" x1=".6" x2="335" y1="167.5" y2="167.5" data-name="Безымянный градиент 497" gradientUnits="userSpaceOnUse"><stop offset="0" stop-color="#8d8ddb"/><stop offset="1" stop-color="#8b57b8"/></linearGradient><linearGradient id="a" x1="15.9" x2="29.6" y1="16.8" y2="16.8" data-name="Безымянный градиент 245" gradientUnits="userSpaceOnUse"><stop offset="0" stop-color="#ffae00"/><stop offset="1" stop-color="#ffc707"/></linearGradient><linearGradient xlink:href="#a" id="g" x1="15.9" x2="29.6" y1="27.4" y2="27.4" data-name="Безымянный градиент 245"/><linearGradient xlink:href="#a" id="h" x1="11.3" x2="22.4" y1="22.1" y2="22.1" data-name="Безымянный градиент 245"/><linearGradient xlink:href="#a" id="i" x1="13" x2="19.5" y1="22.1" y2="22.1" data-name="Безымянный градиент 245"/><linearGradient xlink:href="#a" id="j" x1="52.9" x2="62.7" y1="22.1" y2="22.1" data-name="Безымянный градиент 245"/><linearGradient xlink:href="#a" id="k" x1="54.4" x2="60.1" y1="22" y2="22" data-name="Безымянный градиент 245"/><linearGradient xlink:href="#a" id="l" x1="33.7" x2="42.6" y1="22" y2="22" data-name="Безымянный градиент 245"/><linearGradient xlink:href="#a" id="m" x1="43.9" x2="51.8" y1="22.2" y2="22.2" data-name="Безымянный градиент 245"/><linearGradient xlink:href="#a" id="n" x1="60.9" x2="71.7" y1="21.9" y2="21.9" data-name="Безымянный градиент 245"/><linearGradient xlink:href="#a" id="o" x1="73.2" x2="81.9" y1="22.5" y2="22.5" data-name="Безымянный градиент 245"/><linearGradient xlink:href="#a" id="p" x1="82.5" x2="93.6" y1="22.3" y2="22.3" data-name="Безымянный градиент 245"/><linearGradient xlink:href="#a" id="q" x1="95.1" x2="103.2" y1="22.4" y2="22.4" data-name="Безымянный градиент 245"/><linearGradient xlink:href="#a" id="r" x1="105.4" x2="116" y1="22.5" y2="22.5" data-name="Безымянный градиент 245"/><linearGradient xlink:href="#a" id="s" x1="118.2" x2="129.3" y1="22.3" y2="22.3" data-name="Безымянный градиент 245"/><linearGradient xlink:href="#a" id="t" x1="130.9" x2="138.9" y1="22.4" y2="22.4" data-name="Безымянный градиент 245"/><linearGradient id="u" x1="14.2" x2="275" y1="151.8" y2="151.8" gradientUnits="userSpaceOnUse"><stop offset=".3" stop-color="#192b4d"/><stop offset="1" stop-color="#6f85a6"/></linearGradient><linearGradient xlink:href="#a" id="v" x1="12.7" x2="102.7" y1="151.8" y2="151.8" data-name="Безымянный градиент 245"/><linearGradient id="c" x1="-686.6" x2="-721.5" y1="-1339.8" y2="-1291.3" data-name="Безымянный градиент 11" gradientTransform="rotate(52.3 -1712.93 410.03)" gradientUnits="userSpaceOnUse"><stop offset="0" stop-color="#ffca2b"/><stop offset="1" stop-color="#96326e"/></linearGradient><linearGradient id="b" x1="-2236.5" x2="-2203.4" y1="1013.7" y2="1036.7" data-name="Безымянный градиент 18" gradientTransform="rotate(172.8 -944.91 686.8)" gradientUnits="userSpaceOnUse"><stop offset="0" stop-color="#6f85a6"/><stop offset="1" stop-color="#192b4d"/></linearGradient><linearGradient xlink:href="#b" id="w" x1="298.9" x2="287.2" y1="203" y2="196.9" data-name="Безымянный градиент 18"/><linearGradient xlink:href="#b" id="x" x1="-2234.8" x2="-2203.3" y1="1115.1" y2="1136" data-name="Безымянный градиент 18"/><linearGradient xlink:href="#b" id="y" x1="288.1" x2="275.5" y1="104.4" y2="98.1" data-name="Безымянный градиент 18"/><linearGradient xlink:href="#c" id="z" x1="-696" x2="-711.2" y1="-1339" y2="-1312.7" data-name="Безымянный градиент 11"/><linearGradient xlink:href="#b" id="A" x1="-2228" x2="-2238.2" y1="1125.6" y2="1039.4" data-name="Безымянный градиент 18"/><linearGradient xlink:href="#c" id="B" x1="-2230.1" x2="-2239.3" y1="1107.3" y2="1031.3" data-name="Безымянный градиент 11" gradientTransform="rotate(172.8 -944.91 686.8)"/><linearGradient xlink:href="#b" id="C" x1="-2234.2" x2="-2234.2" y1="1085.5" y2="1059" data-name="Безымянный градиент 18"/><linearGradient xlink:href="#b" id="D" x1="-2233.1" x2="-2234.7" y1="1088.8" y2="1061.5" data-name="Безымянный градиент 18"/><linearGradient xlink:href="#b" id="E" x1="-2242" x2="-2239.5" y1="1024.9" y2="1028.2" data-name="Безымянный градиент 18"/><linearGradient xlink:href="#b" id="F" x1="-2239.9" x2="-2241.3" y1="1028" y2="1025.2" data-name="Безымянный градиент 18"/><linearGradient xlink:href="#b" id="G" x1="858.9" x2="861.4" y1="1024.2" y2="1027.6" data-name="Безымянный градиент 18" gradientTransform="scale(1 -1) rotate(7.2 10232.15 -4155.99)"/><linearGradient xlink:href="#b" id="H" x1="861" x2="859.6" y1="1027.3" y2="1024.5" data-name="Безымянный градиент 18" gradientTransform="scale(1 -1) rotate(7.2 10232.15 -4155.99)"/><linearGradient xlink:href="#b" id="I" x1="-2246.2" x2="-2243.7" y1="1043.3" y2="1046.6" data-name="Безымянный градиент 18"/><linearGradient xlink:href="#b" id="J" x1="-2244.1" x2="-2245.5" y1="1046.4" y2="1043.6" data-name="Безымянный градиент 18"/><linearGradient xlink:href="#b" id="K" x1="855" x2="857.4" y1="1042.6" y2="1045.9" data-name="Безымянный градиент 18" gradientTransform="scale(1 -1) rotate(7.2 10232.15 -4155.99)"/><linearGradient xlink:href="#b" id="L" x1="857" x2="855.6" y1="1045.7" y2="1042.9" data-name="Безымянный градиент 18" gradientTransform="scale(1 -1) rotate(7.2 10232.15 -4155.99)"/><linearGradient xlink:href="#b" id="M" x1="-2242.9" x2="-2240.4" y1="-610.2" y2="-606.9" data-name="Безымянный градиент 18" gradientTransform="scale(-1 1) rotate(7.2 -6956.33 15261.34)"/><linearGradient xlink:href="#b" id="N" x1="-2240.8" x2="-2242.2" y1="-607.1" y2="-609.9" data-name="Безымянный градиент 18" gradientTransform="scale(-1 1) rotate(7.2 -6956.33 15261.34)"/><linearGradient xlink:href="#b" id="O" x1="857" x2="859.5" y1="-609.5" y2="-606.1" data-name="Безымянный градиент 18" gradientTransform="rotate(-7.2 6273.07 4397.6)"/><linearGradient xlink:href="#b" id="P" x1="859.1" x2="857.7" y1="-606.3" y2="-609.1" data-name="Безымянный градиент 18" gradientTransform="rotate(-7.2 6273.07 4397.6)"/><linearGradient xlink:href="#b" id="Q" x1="-2245.6" x2="-2243.2" y1="-596.2" y2="-592.9" data-name="Безымянный градиент 18" gradientTransform="scale(-1 1) rotate(7.2 -6956.33 15261.34)"/><linearGradient xlink:href="#b" id="R" x1="-2243.6" x2="-2245" y1="-593.1" y2="-595.9" data-name="Безымянный градиент 18" gradientTransform="scale(-1 1) rotate(7.2 -6956.33 15261.34)"/><linearGradient xlink:href="#b" id="S" x1="854.1" x2="856.6" y1="-595.2" y2="-591.9" data-name="Безымянный градиент 18" gradientTransform="rotate(-7.2 6273.07 4397.6)"/><linearGradient xlink:href="#b" id="T" x1="856.2" x2="854.8" y1="-592.1" y2="-594.9" data-name="Безымянный градиент 18" gradientTransform="rotate(-7.2 6273.07 4397.6)"/><linearGradient id="U" x1="-1240.6" x2="-1210" y1="-1315.6" y2="-1320.3" data-name="Безымянный градиент 3" gradientTransform="rotate(73.7 -1451.92 431.56)" gradientUnits="userSpaceOnUse"><stop offset="0" stop-color="#f0dcc5"/><stop offset=".3" stop-color="#b9b5b5"/><stop offset="1" stop-color="#30548e"/><stop offset="1" stop-color="#274e8c"/></linearGradient><linearGradient xlink:href="#b" id="V" x1="-1242.5" x2="-1214.4" y1="-1344.3" y2="-1388.6" data-name="Безымянный градиент 18" gradientTransform="rotate(73.7 -1451.92 431.56)"/><linearGradient xlink:href="#b" id="W" x1="-1241.2" x2="-1228.5" y1="-1336.5" y2="-1360.4" data-name="Безымянный градиент 18" gradientTransform="rotate(73.7 -1451.92 431.56)"/><linearGradient xlink:href="#b" id="X" x1="-1237.3" x2="-1211.6" y1="-1349.6" y2="-1349.3" data-name="Безымянный градиент 18" gradientTransform="rotate(73.7 -1451.92 431.56)"/><linearGradient xlink:href="#b" id="Y" x1="-1235" x2="-1231.5" y1="-1337.5" y2="-1343" data-name="Безымянный градиент 18" gradientTransform="rotate(73.7 -1451.92 431.56)"/><linearGradient id="d" x1="-1241.7" x2="-1229.2" y1="-1336.6" y2="-1360" data-name="Безымянный градиент 26" gradientTransform="rotate(73.7 -1451.92 431.56)" gradientUnits="userSpaceOnUse"><stop offset="0" stop-color="#6a868a"/><stop offset="1"/></linearGradient><linearGradient xlink:href="#b" id="Z" x1="-1243.1" x2="-1214.9" y1="1832.9" y2="1788.6" data-name="Безымянный градиент 18" gradientTransform="scale(1 -1) rotate(-73.7 -1815.51 -160.1)"/><linearGradient xlink:href="#b" id="aa" x1="-1241.7" x2="-1229" y1="1840.7" y2="1816.8" data-name="Безымянный градиент 18" gradientTransform="scale(1 -1) rotate(-73.7 -1815.51 -160.1)"/><linearGradient xlink:href="#b" id="ab" x1="-1237.8" x2="-1212.1" y1="1827.6" y2="1827.9" data-name="Безымянный градиент 18" gradientTransform="scale(1 -1) rotate(-73.7 -1815.51 -160.1)"/><linearGradient xlink:href="#b" id="ac" x1="-1235.6" x2="-1232" y1="1839.7" y2="1834.2" data-name="Безымянный градиент 18" gradientTransform="scale(1 -1) rotate(-73.7 -1815.51 -160.1)"/><linearGradient xlink:href="#d" id="ad" x1="-1242.2" x2="-1229.7" y1="1840.6" y2="1817.2" data-name="Безымянный градиент 26" gradientTransform="scale(1 -1) rotate(-73.7 -1815.51 -160.1)"/><linearGradient xlink:href="#d" id="ae" x1="-1230.2" x2="-1243.3" y1="-1329" y2="-1289.1" data-name="Безымянный градиент 26"/><radialGradient id="e" cx="1198.1" cy="50.7" r="418.3" data-name="Безымянный градиент 9" fx="1198.1" fy="50.7" gradientTransform="matrix(.6 0 0 1 -668.5 0)" gradientUnits="userSpaceOnUse"><stop offset="0" stop-color="#007fd1"/><stop offset=".2" stop-color="#0084cd"/><stop offset=".5" stop-color="#0095c2"/><stop offset=".8" stop-color="#00b1b0"/><stop offset="1" stop-color="#00c5a4"/></radialGradient></defs><g data-name="Layer 1"><path fill="url(#e)" d="M0 0h335v335H0z"/><path fill="url(#f)" d="M323.2 67.2c4.3.5 7.3 4.4 11.2 6.2.2 0 .4.2.6.3v-3.1c-12.9-4.9-28.4-10.3-30.8-25.8-.9-5.7 0-11.5 0-17.3.2-7.1-.6-14.3-2.3-21.2-.5-2-1.1-4.2-1.3-6.3h-5.4c8.2 10.7 7.2 23.3 6.6 37-.3 7.1-.9 14.8 3.2 20.5 2.9 3.9 7.5 6 10.5 9.8 6 7.3 3.7 19.2-3.4 25.5-7.2 6.2-17.8 7.2-26.9 4.7-15.4-4.3-34.6-17.9-39.3-33.9-2.9-9.8-3.4-16.3-3.1-26.5.2-7.5 1.8-19.2 2.8-26.6.5-3.5 1.4-7.1 2.8-10.3h-6.6c-1 .9-2 1.7-2.9 2.5-4.1 3.7-7.7 5.3-13.2 5.2-4.2 0-8.2-2.6-10.6-6.1-.4-.5-.7-1-1-1.6h-6.6c-.4 2.2-1.1 4.3-2.4 6.2-4.2 6.3-13.3 7.9-20.3 5.2-5.7-2.1-10.2-6.4-13.8-11.4h-4.5c1.6 9.3-8 19.6-15.2 24-3.9 2.3-1.9 12.2-1 15.5.9 3 2.1 6.5 4 9.1 1.2 1.6 10.1 5 11 6.7 3 6-9.1 17.2-14.2 19.6-5.8 2.6-12.5-5-18.5-7s-11.3-6-15.4-10.9c-5.3-6.4-8.6-15.9-4.2-23 2.1-3.4-11.5-16.4-18.5-25.3-2.1-2.8-4.1-5.7-5.7-8.8H67v.3c-.3 1.5-1.5 2.9-3 3.2-1.5.3-3.2-.8-3.4-2.4l-.5 1c-.3-.7-.6-1.4-.8-2.1h-4.2l.9 1.5c2.5 5.4-1.1 11.5-4.5 16.3-3.8 5.4-7.6 10.7-11.3 16.1-2 2.9-4.2 5.8-7.4 7.2-7 3.1-20.8-.7-23.5-8.5-2.7-7.8 2-25.5 5.5-32.7h-2.6c-1.3 4.7-4.6 8.9-6.8 13.2-1.7 3.2-2.5 7.4-4.8 10.1v18.3c9.5-.9 19.3 1.1 27.5 6.2 2 1.3 4 2.8 4.7 5.1.4 1.4.2 3 0 4.5-1.4 14.2.9 29.7 8.3 42 7.8 13 13.7 25.5 5.5 40.1-3.5 6.3-9 11.6-15.7 14.4-8.3 3.5-17.9 3-26.3 0-1.4-.5-2.7-1.1-4.1-1.7v11.5c.9-.9 1.9-1.6 3.1-2.3 6.9-4 15.5-2.6 23.3-4 8-1.4 15.5-5.9 20.6-12.3 1.4-1.7 3.2-3.8 5.2-3 .8.3 1.4 1 1.8 1.7 4.3 6.5 1.9 15.2 3.7 22.8 1.6 6.6 6.2 12.1 11.4 16.6 1.9 1.7 4 3.3 5 5.6 1 2.1.9 4.6 0 6.8.8 2.2.9 4.7 0 6.8-1 2.3-3.1 4-5 5.6-5.2 4.5-9.8 9.9-11.4 16.6-1.8 7.6.6 16.3-3.7 22.8-.5.7-1 1.4-1.8 1.7-2 .8-3.9-1.3-5.2-3a34.28 34.28 0 0 0-20.6-12.3c-7.8-1.4-16.4 0-23.3-4-1.1-.7-2.2-1.4-3.1-2.3V239c1.3-.6 2.7-1.2 4.1-1.7 8.4-3.1 18.1-3.5 26.3 0 6.7 2.8 12.2 8.1 15.7 14.4 8.2 14.6 2.3 27.1-5.5 40.1-7.5 12.4-9.8 27.8-8.3 42 0 .4 0 .9.1 1.3h3c-.9-3.9-1.5-7.6-1.5-11.1-.2-10.4 4.3-17.8 10.5-26.1 5.1-6.8 13.5-12.1 21.7-10.1 6.3 1.6 10.9 7.1 13.7 12.9 2.8 5.8 4.2 12.3 6.9 18.2 3 6.7 7.7 12 15 14 2.2.6 4.5.7 5.8 2.2h8.4l.8-1.1c4.1-4.9 9.3-8.9 15.4-10.9 6-2 12.7-9.6 18.5-7 4.9 2.2 16.3 12.8 14.5 18.9h9.7c1.7-.5 3.4-1 4.8-1.3 6.1-1.3 12.6-1.7 18.4.5.6.2 1.1.5 1.7.8h7.5c-2.2-1.8-4.6-4.3-10.1-4.8-4.5-.5-9.2-.6-13.7-.2-8 .8-15.9-2.7-22.1-7.9-15.3-12.8-20.2-30.6-9.3-48.5 5.1-8.5 11.8-16.3 19.7-22.2 14.9-11.2 33.3-19.6 52-19 3.8.1 7.7.7 11.1 2.5 9 4.9 15.5 5.9 15.6 16.1.1 10.2-4.2 30.9 2.5 38.6 1.8 2 3.5 5.4 4.3 8 1.5 4.8-2.9 9.6-7.7 11.1-4.8 1.5-8.4 8.4-13.3 9.3-3.6.6-14.6 13.3-19.3 16.9h6a9.37 9.37 0 0 1 7.1 0h13.8c.5-2.4 1.1-4.8 1.9-7.5 4.7-16 23.9-29.6 39.3-33.9 9.1-2.6 19.7-1.5 26.9 4.7 7.2 6.2 9.4 18.1 3.4 25.5-3 3.7-7.6 5.9-10.5 9.7-.4.5-.7 1-1 1.5h5c6.2-7.4 16.6-11.2 25.8-14.6v-3.1c-.2 0-.4.2-.6.3-3.9 1.8-6.9 5.6-11.2 6.2-1.4.2-3-.2-3.8-1.4-.7-1.2-.3-2.7 0-4 2.4-9.2-2.9-17.5 0-26.1 2.4-7 8.3-13 15.5-15V273c-.8 1.3-1.7 2.4-2.6 3.3-3.7 3.7-10.4 5-12.8 9.7-1.4 2.8-3.1 7.5-6 8.6-2.5 1-9.2-2.5-11.2-4.4-6.5-6.2 1-12.5 1.3-19.7.4-7.9-6.4-13.5-1.7-21.7 2.1-3.6 5.9-6.2 10-6.6 3-.3 5.9.6 8.7 1.6 3.5 1.3 7 2.8 9.8 5.3 1.2 1 2.8 2.3 4.4 3.8v-9.4c-8.2 1.3-17.2-2.3-24-7.6-12.1-9.5-16.3-40.4-16.3-40.4-3.9-14.8 4.2-31 16.3-40.4 6.8-5.3 15.8-9 24-7.6v-9.4c-1.6 1.5-3.2 2.8-4.4 3.8-2.8 2.5-6.3 4-9.8 5.3-2.8 1-5.7 1.8-8.7 1.6-4.1-.4-8-3-10-6.6-4.7-8.2 2.1-13.8 1.7-21.7-.3-7.2-7.8-13.5-1.3-19.7 2-1.9 8.7-5.4 11.2-4.4 2.9 1.2 4.5 5.8 6 8.6 2.4 4.7 9.1 5.9 12.8 9.7.9.9 1.8 2 2.6 3.3v-4.2c-7.2-2-13.1-8-15.5-15-2.9-8.5 2.4-16.9 0-26.1-.3-1.3-.8-2.8 0-4 .7-1.2 2.4-1.5 3.8-1.4Zm-83 261.4c-.5 1.3-2.4 2.2-3.5 1.3l-.6 1c-2-.8-3.5-2.9-3.3-5 .2-2.1 2.6-3.9 4.6-3.2.9.3 1.6 1 2.1 1.8.8 1.2 1.3 2.8.8 4.1Zm9.7-13.8c-1.4 2.1-2.9 4.2-4.3 6.3-.9 1.3-2.4 2.8-3.8 2.2-1.1-.5-1.4-2-1-3.1.4-1.1 1.4-1.9 2.3-2.7l-.6-.6c1.1-2.6 3.4-4.7 6.1-5.4.4-.1.9-.2 1.3 0 1.2.5.6 2.3-.1 3.4Zm-4.3-245c1.4 2.1 2.9 4.2 4.3 6.3.7 1.1 1.3 2.9.1 3.4-.4.2-.9.1-1.3 0-2.7-.8-5-2.8-6.1-5.4l.6-.6c-.9-.8-1.9-1.6-2.3-2.7-.4-1.1-.1-2.6 1-3.1 1.5-.6 2.9.9 3.8 2.2Zm-24.7-53.3c3.8-3.4 14.1-11.7 18.9-6 2.4 2.8 1.1 8.7 1.2 11.9.2 5.1.8 10.2.4 15.3-.5 6.9-3.4 14.3-9.5 17.6-1.6.9-3.4 1.4-5.2 1.4-4.6 0-8.4-3.5-10.7-7.5-6.1-10.3-3.9-24.7 5-32.7Zm18.5 49.9c-.5.8-1.2 1.5-2.1 1.8-2 .7-4.4-1-4.6-3.2-.2-2.1 1.3-4.2 3.3-5l.6 1c1.1-.9 3 0 3.5 1.3s0 2.9-.8 4.1Zm-29-63c.2-.4.5-.9.9-.9s.8.3 1 .6c.9 1 1.8 1.9 2.6 2.8 1.4 1.5 2.8 3.2 2.7 5.2 0 1.8-1.6 3.4-3.3 3.6-1.8.2-3.6-1-4.1-2.7l-.8-.9c-.5-2.5-.2-5.3.9-7.6Zm-51.2 45.2c-5.5-4.1-8.2-11.3-5.7-18.3 2.6-7.3 11.3-10.9 13.6-18.6.7-2.2 1.3-5.2 3.6-5.4 1.1-.1 2.2.5 3.1 1.2 4 2.8 7.7 6.3 12.5 7.6 3.8 1 7.9.5 11.9.8 4 .3 8.3 1.9 10 5.5 1.9 4-.1 8.6 0 13 0 2.8 1.1 5.6 1.1 8.5 0 6.2-4.9 11.7-10.7 13.9-5.8 2.2-12.3 1.8-18.4.5-6-1.3-16-4.9-20.9-8.6Zm2.6 20.2c6.1-5.2 14.1-8.7 22.1-7.9 4.5.5 9.2.3 13.7-.2 10.7-1.1 9.5-9.4 18.4-5.6 3.7 1.6 16.6 16.9 20.6 17.6 5 .9 8.5 7.8 13.3 9.3 4.8 1.5 9.2 6.4 7.7 11.1-.8 2.5-2.5 6-4.3 8-6.7 7.7-2.4 28.4-2.5 38.6-.1 10.2-6.6 11.2-15.6 16.1-3.3 1.8-7.2 2.4-11.1 2.5-18.6.6-37.1-7.8-52-19-7.9-5.9-14.5-13.8-19.7-22.2-10.9-17.9-6-35.6 9.3-48.5Zm46.5 96c-3.9-.9-9.1-6.1-12.4-8.4-.2-.1-.3-.2-.4-.4-.2-.4.4-.8.9-.9 2.9-.6 5.7 1.4 8.5 2.3 1.4.5 2.9.7 4.3 1.3 3.8 1.7 3.8 7-.9 6ZM111.9 57.1c4.8.2 6.5 5.7 10.5 8.4 4.4 2.9 9.1 5.5 13.9 7.6 2.8 1.3 7.5 3.2 8.2 6.7.7 3.5-.9 8-.4 11.8.7 4.7 1.3 9.4 2 14.1.7 4.8 1.4 9.8 3.9 14 3.7 6.1 11.3 10.5 11.5 17.7.2 4.4-2.8 8.5-6.6 10.6-3.8 2.1-8.4 2.5-12.8 2.2-6.1-.5-14.6-1.7-20.2-4.2-14.6-6.4-24.9-18.2-31.2-32.8-6.3-14.6-6.6-32.9 3.2-45.5 3.5-4.4 12.3-10.6 17.9-10.4Zm-67 36C38.7 84.8 34.2 77.4 34.4 67c.2-10.4 4.9-23.7 9.5-33 4.3-8.8 10-17 17.5-23.4 4.9-4.1 11-7.4 17.3-6.4 4 .7 7.4 3 10.6 5.4 5.4 4 10.5 8.4 15.2 13.2 2 2 4 4.2 5 6.9 1.5 4.4 0 9.1-.9 13.6-.7 3.6 1 7.1.5 10.4-.6 3.6-3.9 3.6-6.9 4.4-7.2 2-11.9 7.3-15 14-2.7 5.9-4.1 12.3-6.9 18.2-2.8 5.8-7.4 11.4-13.7 12.9-8.2 2-16.6-3.3-21.7-10.1Zm23 81.7c-7-6.4-9.7-16.3-10.3-25.7-.5-7.2.2-14.5 0-21.8-.2-6.8-3.7-11.8-5.7-18.3-.3-1-.6-2.2 0-3.1.6-1 1.9-1.1 3.1-1.1 7 .3 8.5 5 14.6 1.5 2-1.2 9.8-2.8 12.2-2.4 2.5.4 3.4 3.5 4.1 6 2.4 8.5 8.1 15.6 13.7 22.5s14.7 17.2 17.2 25.7c2.4 8.5-2.6 15.6-9.7 20.9-4.9 3.7-11.4 4.3-17.5 3.9-7.8-.5-15.8-2.8-21.5-8.2Zm41.9 20.7c.8 1.7 1.3 3.5 1.4 5.4.3 3.1-1.1 7.1-4.2 7.4-1.7.2-3.3-.8-4.9-1.4-4.5-1.9-9.6-1.5-14.4-.6-1.5.3-3.1.6-4.7.5-1.6-.1-3.2-.9-3.9-2.3-.8-1.5-.8-5.2-.3-9.1-.5-3.9-.5-7.6.3-9.1.7-1.4 2.3-2.1 3.9-2.3 1.6-.1 3.1.2 4.7.5 4.8.9 9.9 1.3 14.4-.6 1.6-.7 3.2-1.6 4.9-1.4 3.1.4 4.5 4.3 4.2 7.4-.2 1.9-.7 3.7-1.4 5.4ZM81.7 287c-2.3.4-10.1-1.2-12.2-2.4-6.1-3.5-7.5 1.2-14.6 1.5-1.1 0-2.4-.1-3.1-1.1-.6-.9-.3-2.1 0-3.1 2-6.5 5.6-11.5 5.7-18.3.2-7.2-.5-14.5 0-21.7.6-9.5 3.3-19.3 10.3-25.7 5.8-5.3 13.7-7.6 21.5-8.2 6.1-.4 12.6.2 17.5 3.9 7.1 5.3 12.1 12.4 9.7 20.9-2.5 8.5-11.6 18.8-17.2 25.7-5.6 6.9-11.3 14-13.7 22.5-.7 2.5-1.6 5.5-4.1 6Zm68.5-15.5c-2.5 4.2-3.3 9.1-3.9 14-.7 4.7-1.3 9.4-2 14.1-.5 3.8 1.1 8.3.4 11.8-.7 3.5-5.4 5.4-8.2 6.7-4.8 2.1-9.5 4.7-13.9 7.6-4 2.6-5.7 8.2-10.5 8.4-5.6.2-14.4-6-17.9-10.4-9.8-12.6-9.5-30.9-3.2-45.5 6.3-14.6 16.6-26.4 31.2-32.8 5.6-2.5 14.1-3.7 20.2-4.2 4.4-.3 9 0 12.8 2.2 3.8 2.1 6.8 6.2 6.6 10.6-.2 7.2-7.8 11.6-11.5 17.7Zm59-39.2c-1.4.6-2.9.8-4.3 1.3-2.8 1-5.6 2.9-8.5 2.3-.5 0-1-.4-.9-.9 0-.2.2-.3.4-.4 3.3-2.3 8.5-7.5 12.4-8.4 4.6-1 4.7 4.4.9 6Zm-4.1-7.4c-3.1 2.1-5.8 4.6-9.2 6.4-8.6 4.5-17.2 9-25.9 13.5-1.9 1-3.9 2-6 1.7-1.8-.3-3.4-1.6-4.8-2.8-4.9-4.3-10.6-8.7-17.2-8.5-9.9.3-18 11-27.6 9 3.1.7 5.6-15.7 5.5-17.6 0-7-3.1-13-5.4-19.4-1.8-5-1.4-8.7.5-11.5-1.8-2.7-2.2-6.4-.5-11.5 2.3-6.5 5.3-12.4 5.4-19.4 0-1.9-2.4-18.3-5.5-17.6 9.7-2.1 17.8 8.7 27.6 9 6.5.2 12.2-4.2 17.2-8.5 1.4-1.2 2.9-2.5 4.8-2.8 2.1-.3 4.2.7 6 1.7 8.6 4.5 17.2 9 25.9 13.5 3.3 1.7 5.6 5 9.2 6.4 12.2 4.6 12.2 50.5 0 58.7Zm47.9 17.5c-1.2-.6-2-1.8-2.9-2.8a25.5 25.5 0 0 0-18.1-8.9c-3.2-.1-6.5.3-9.7-.1-3.2-.5-6.5-2.2-7.6-5.2-1.1-2.9.1-6.1.8-9.2 1.5-7.3 1.5-34.1 0-41.3-.6-3.1-1.8-6.2-.8-9.2 1.1-3 4.4-4.7 7.6-5.2 3.2-.5 6.4 0 9.7-.1 6.9-.3 13.7-3.6 18.1-8.9.9-1 1.7-2.2 2.9-2.8 2.2-1.2 5-.3 7.1 1.1 5.9 3.9 8.9 11.2 14.9 14.9 4.3 2.7 9.9 3.5 13.3 7.4 3.1 3.5 3.4 8.6 3.2 13.3-.1 3.4-.1 16.9 0 20.3.2 4.7-.1 9.8-3.2 13.3-3.4 3.8-9 4.6-13.3 7.3-6 3.8-9 11-14.9 14.9-2.1 1.4-4.9 2.3-7.1 1.1Zm47.2 29c-.5 4.3-2.1 8.5-2.7 12.8-.2 1.6-.4 3.3-1.3 4.5-1 1.3-2.7 1.9-4.3 2.4-6 1.9-12.2 3.5-18.3 4.8-3.3.7-6.8 1.3-10 0-3.2-1.4-5.3-4.5-6.8-7.7-7.8-17-1.8-38.2 11.5-51.3 4.4-4.3 9.8-8 15.9-8.6s12.9 2.7 14.7 8.5c2.2 7-3.4 13-2.6 19.7.7 5.4 4.7 8.5 3.9 14.8Zm-5.1-51.8c1.7 1.1 2.8 2.9 3.8 4.6 2 3.3 4 6.7 6 10 1.1 1.8 2 4.6.1 5.7-2.7-2.2-2.6-6.4-4.9-9-2.8-3.2-7.8-2.6-11.8-4-.8-.3-1.6-.7-1.7-1.5 0-.5.3-1.1.6-1.5 2-2.9 3.6-7 7.9-4.3Zm9.9-68.5c1.8 1.1 1 3.9-.1 5.7-2 3.3-4 6.7-6 10-1 1.7-2.1 3.5-3.8 4.6-4.3 2.7-5.9-1.4-7.9-4.3-.3-.4-.6-1-.6-1.5 0-.8.9-1.3 1.7-1.5 4-1.4 9-.8 11.8-4 2.3-2.6 2.2-6.8 4.9-9Zm-4.8-31.5c.8 6.3-3.2 9.3-3.9 14.8-.8 6.7 4.8 12.7 2.6 19.7-1.8 5.9-8.6 9.2-14.7 8.5s-11.5-4.3-15.9-8.6c-13.3-13.1-19.3-34.3-11.5-51.3 1.5-3.2 3.6-6.3 6.8-7.7 3.1-1.3 6.7-.7 10 0 6.2 1.3 12.3 2.9 18.3 4.8 1.6.5 3.3 1.1 4.3 2.4 1 1.3 1.1 3 1.3 4.5.7 4.3 2.2 8.5 2.7 12.8Z" opacity=".2"/><path fill="url(#e)" d="M0 0h335v335H0z" opacity=".2"/><path fill="#fff" d="M167.5 192.4c-2.2 0-3.9 1.8-3.9 3.9s.3 1.7.8 2.3l3.2 5.5 3.2-5.5a4 4 0 0 0 .8-2.3c0-2.2-1.8-3.9-3.9-3.9Zm0 5.7c-1 0-1.7-.8-1.7-1.7s.8-1.7 1.7-1.7 1.7.8 1.7 1.7-.8 1.7-1.7 1.7Z"/><g data-name="PRINT"><path fill="url(#a)" d="M29.6 13.9c0 .5-.2 1-.6 1.4l-6.3 6.3-6.8-3.9v-3.8c0-1.1.9-2 2-2s2 .9 2 2v4.9l6.3-6.3c.8-.8 2.1-.8 2.8 0 .4.4.6.9.6 1.4Z"/><path fill="url(#g)" d="M29 31.7c-.4.4-.9.6-1.4.6s-.5 0-.8-.2c-.2-.1-.5-.3-.6-.4l-2.1-2.1-4.1-4.1v4.9c0 1.1-.9 2-2 2s-2-.9-2-2v-3.8l6.8-3.9 4.2 4.2 2.1 2.1c.8.8.8 2.1 0 2.8Z"/><path fill="url(#h)" d="M22.4 22s0-.2-.2-.2l-1.7-1-4.6-2.6L12 16c-.2-.1-.5 0-.6.2V28.1c0 .3.2.5.5.5h.2l3.9-2.2 6.3-3.6s0-.1.1-.2v-.3Zm-9.6-4.7 3 1.7 4.9 2.8s.1 0 .1.1v.3s0 .2-.2.2l-4.9 2.8-3 1.7c-.2 0-.4 0-.5-.1V17.5c0-.2.2-.3.3-.3h.2Z"/><path fill="url(#i)" d="M19.5 22.2s0 .1-.1.2l-3.7 2.1-2.3 1.3H13V18.9c0-.1.1-.3.3-.3h.1l2.3 1.3 3.7 2.1s.1 0 .1.2v.1Z"/><path fill="url(#j)" d="m62.5 21.6-5.6-2.8-3.4-1.7c-.2-.1-.4 0-.5.2v9.5c.1.2.3.4.6.4h.4l3.2-1.8 2-1.1 3.5-1.9s.2-.1.2-.2V22s-.1-.2-.2-.2Zm-5.6 2.8-2.6 1.4c-.2 0-.3 0-.4-.1v-7.3c0-.2 0-.3.2-.3h.1l2.7 1.3 1 .5 3.4 1.7s.1 0 .2.2v.2s0 .1-.1.1l-4.3 2.3Z"/><path fill="url(#k)" d="m60.1 22-.1.1-3.2 1.7-2 1.1h-.3v-5.4c0-.1 0-.2.2-.2l2 1 3.3 1.6.1.1v.1Z"/><path fill="url(#l)" d="M38.5 17.2h-4.9v9.7H36v-3.2h2.5c2.3 0 4.1-1.4 4-3.4 0-1.9-1.8-3.2-4.1-3.2Zm-.2 4.6H36v-2.7h2.3c1.1 0 1.9.5 1.9 1.3s-.8 1.4-1.9 1.4Z"/><path fill="url(#m)" d="m51.8 27-7.7.1-.2-9.7h2.4l.1 7.8 5.3-.1.1 1.9z"/><path fill="url(#n)" d="m67.5 23.3.1 3.5h-2.4v-3.5l-4.3-6.1 2.7-.1 2.7 4.2 2.8-4.2 2.6-.1-4.2 6.3z"/><path fill="url(#o)" d="m81.9 27.2-1.6.1-4.1-4.5-1.7 1.6v2.9h-1.2l-.1-9.6h1.2l.1 5.3 5.4-5.4h1.6L77 22.1l4.9 5.1z"/><path fill="url(#p)" d="M88 17.3c-3 0-5.5 2.3-5.5 5.1 0 2.7 2.6 5 5.6 4.9 3 0 5.5-2.4 5.5-5.1 0-2.7-2.6-5-5.6-4.9Zm.4 9c-2.4.2-4.4-1.6-4.6-3.9a4.27 4.27 0 0 1 8.5-.1 4.2 4.2 0 0 1-3.9 4Z"/><path fill="url(#q)" d="M103.2 24.5c0 1.5-1.2 2.8-3.8 2.8-1.6 0-3.1-.5-4.3-1.5l.8-.9c1 .9 2.2 1.4 3.5 1.4 1.7 0 2.5-.9 2.5-1.7 0-1-1-1.4-2.9-1.8-2.2-.4-3.5-1-3.6-2.7 0-1.5 1.5-2.8 3.6-2.8 1.4 0 2.7.4 3.8 1.3l-.7.9c-.9-.8-2-1.2-3.1-1.2-1.3 0-2.3.8-2.3 1.7 0 1 1.1 1.3 2.9 1.7 2.1.4 3.5 1.1 3.6 2.8Z"/><path fill="url(#r)" d="M116 27.2h-1.2l-.1-7.3-3.9 6.8-4.1-6.7.1 7.3-1.3.1-.1-9.7h1.3l4 6.7 4-6.8h1.2l.1 9.6z"/><path fill="url(#s)" d="M123.7 17.3c-3 0-5.5 2.3-5.5 5.1 0 2.7 2.6 5 5.6 4.9 3 0 5.5-2.4 5.5-5.1 0-2.7-2.6-5-5.6-4.9Zm.4 9c-2.4.2-4.4-1.6-4.6-3.9a4.27 4.27 0 0 1 8.5-.1 4.2 4.2 0 0 1-3.9 4Z"/><path fill="url(#t)" d="M138.9 24.5c0 1.5-1.3 2.8-3.8 2.8-1.5 0-2.9-.4-4.1-1.3l-.2-.2.8-.9c.2.2.3.3.5.4.9.6 1.9 1 3 .9 1.7 0 2.5-.9 2.5-1.7 0-.8-.6-1.2-1.6-1.5-.3-.1-.7-.2-1.2-.3h-.2c-2.2-.4-3.5-1-3.6-2.7 0-1.5 1.5-2.8 3.6-2.8 1.4 0 2.7.4 3.8 1.3l-.7.9c-.9-.8-2-1.2-3.1-1.2-1.3 0-2.3.8-2.3 1.7 0 1 1.1 1.3 2.9 1.7.4 0 .8.2 1.1.3.4.1.7.2 1 .4.9.4 1.5 1.1 1.5 2.1Z"/></g><path fill="url(#u)" d="M14.2 136.8H275v30H14.2z"/><path fill="#192b4d" d="M250.2 149.3v.7c4.7 30.5 24 66.8 24 66.8s0-.2.2-.6c1.3-5.4 9.9-43.9 6.3-72.7-.1-.9-.2-1.8-.4-2.7l-.2-1.7c1.7-.5 3.2-.9 4.5-1.3.1.2.2.5.3.7.4 0 .8 0 1.2-.4 0-.3 0-.6-.2-.9.5-.2 1.1-.3 1.6-.4h.1c.9 0 1.7.3 2.7.3 1 0 2.1.1 3.1.1 5.3.1 10.6-.5 15.6-2.1.8-.2 1.6-.5 2.3-.8.8-.3 1.3-1.2 1.1-2.3-.1-.8-.3-1.6-.5-2.5-.4-1.7-.9-3.3-1.5-4.9-.4-1.1-1.4-1.7-2.3-1.4a51.37 51.37 0 0 0-18.6 9.6 12 12 0 0 0-2.3 2.2c-.6.2-1.1.4-1.7.5 0-.3-.2-.5-.2-.8-.6 0-1.1.2-1.5.5 0 .3.1.6.2.9-1.3.4-2.7.8-4.3 1.3-3.7-23.8-10.7-40.2-16-50-3-5.4-5.4-8.7-6.6-10.2-.4-.6-.7-.8-.7-.8s-9.6 18.6-8.2 53.9c.1 3.3.3 6.7.7 10.2l.6 5.7c-2.6.7-5 1.4-7 1.9 0-.3-.2-.6-.3-.8-.5 0-1 .2-1.5.5 0 .3.2.6.2.8-.6.2-1.1.3-1.7.5-1.1-.4-2-.5-3.1-.6-4.5-.5-9-.4-13.4.3-2.5.4-5 1-7.4 1.7-.9.3-1.4 1.4-1.2 2.5.4 1.6.8 3.3 1.4 4.9.3.8.6 1.6.9 2.3.4.9 1.3 1.5 2.2 1.3l2.4-.6c5-1.4 9.9-3.7 14.3-6.7.9-.6 1.7-1.2 2.5-1.8.8-.6 1.3-1.2 2.1-1.7.5-.2 1.1-.3 1.6-.5.1.3.2.6.4.8.5 0 .9-.1 1.2-.4 0-.3 0-.5-.1-.8 1.9-.6 4.2-1.3 6.8-2.1 0 .5.1 1 .2 1.4Z" opacity=".2"/><path fill="url(#v)" d="M12.7 136.8h90v30h-90z"/><path fill="url(#c)" d="M271.8 153.6c-.3-2.3-.5-4.4-.7-6.6-.3-3.5-.5-7-.7-10.2-1.4-35.3 8.2-53.9 8.2-53.9s.2.3.7.8c1.1 1.4 3.6 4.8 6.6 10.2 5.8 10.5 13.5 28.8 16.9 55.9 3.6 28.8-5 67.3-6.3 72.7 0 .4-.2.6-.2.6s-20.5-38.5-24.4-69.4Z"/><path fill="url(#b)" d="M287.4 196.3c0-1.7.7-2.4 2.2-3.1 1.4-.6 2.8-.9 4.3-.9 1 0 3.1-.1 3.9.6.5.5.8 1.1 1 1.9.2.9.2 1.9.2 2.6-.2 4-.9 8.1-2.7 11.7-.7 1.3-2 1.5-3 .4-2.6-3-4.3-6.8-5.5-10.7-.2-.7-.5-1.7-.5-2.6Z"/><path fill="url(#w)" d="M298.4 197.4c0 .6 0 1.2-.1 1.8-.3 3.9-1.1 7-2.5 9.7v.1c-.2.4-.5.6-.9.7-.4 0-.8-.1-1.1-.5-2.2-2.6-3.9-5.9-5.4-10.5-.3-.9-.4-1.7-.5-2.4 0-.4 0-.8.1-1 .2-.7.8-1.1 1.7-1.5.4-.2.8-.3 1.2-.4.5-.2 1.1-.3 1.7-.3h1.4c.9 0 2.7 0 3.3.5.4.3.7.9.8 1.6.1.7.2 1.5.2 2.5Z"/><path fill="#fff8e6" d="M295.8 207.5c.1 0 .4-.2.5-.3.2-.3.3-.7.4-1v-.8s-.4.2-.4.3c-.1.4-.3.7-.3 1.1 0 .2-.2.6 0 .8Z"/><path fill="url(#x)" d="M275.1 106.4c.4 1.7 1.4 2.2 3.2 2.4 1.7.2 3.3.1 5-.3 1.1-.2 3.4-.7 4.1-1.6.5-.6.6-1.4.6-2.1 0-.9-.3-1.9-.5-2.6-1.3-3.9-3.1-7.8-6-10.8-1.1-1.1-2.6-.9-3.3.4-2.1 3.7-2.9 7.9-3.2 12 0 .8 0 1.8.2 2.7Z"/><path fill="url(#y)" d="M287.5 104.8c0 .8-.2 1.4-.5 1.8-.6.7-2.6 1.2-3.6 1.4h-.2c-.5.2-.9.2-1.4.3-1.2.1-2.3.1-3.4 0-1.9-.2-2.5-.7-2.8-2-.2-.7-.2-1.5-.1-2.5.1-2.2.4-4.1.8-5.9.2-.8.4-1.6.7-2.3.4-1.3 1-2.4 1.6-3.5.3-.5.7-.8 1.2-.9.5 0 1 .1 1.4.6 1.4 1.4 2.5 3.1 3.6 5 .9 1.6 1.6 3.5 2.3 5.6.3.9.5 1.8.5 2.5Z"/><path fill="#fff8e6" d="M286.1 105.9s.5-.2.5-.3c.2-.5.6-1.6 0-1.9-.1 0-.4.2-.5.3-.3.6 0 1.3 0 1.9Z"/><path fill="url(#z)" d="M283.9 124.8c2.2-.3 12.9-1.6 14.6 14.9.7 6.6.2 12.2-.9 16.6-1.4 5.5-3.8 9.1-5.9 10.9-.8.6-1.6 1-2.3 1.1-4 .5-13.2-7.4-15.9-25.4-2.4-16.4 8.2-17.8 10.4-18Z"/><path fill="url(#A)" d="M284.3 128.2c3.2-.4 5.8.1 7.9 1.6 2.7 1.9 4.4 5.4 4.9 10.4 1.6 15.9-5.3 23.9-8.2 24.2-2.9.4-11.5-5.7-13.9-21.4-.7-5 0-8.8 2.1-11.3 1.6-1.9 4.1-3.1 7.2-3.5Z"/><path fill="url(#B)" d="M284.5 129.2c2.9-.4 5.3.1 7.2 1.4 2.5 1.8 4 5 4.5 9.7 1.5 15.3-5 22.9-7.3 23.1-2.3.3-10.5-5.4-12.8-20.6-.7-4.7 0-8.2 1.9-10.5 1.5-1.7 3.7-2.8 6.6-3.1Z"/><path fill="url(#C)" d="M276.6 141.8c-.3-4.8.8-10 6-11.3 2.5-.6 5.3-1 7.7.3 2 1.1 3.3 3.2 4.1 5.3.3.6.5 1.3.7 1.9.6 2.1 1.5 5.5-.5 7.1-1.5 1.3-3.8 1.7-5.7 2.1-2.2.6-4.5 1-6.8 1.2-2.8.3-4.5-.3-5.1-3.2-.2-1.1-.4-2.3-.4-3.5Z"/><path fill="url(#D)" d="M276.6 141.8c-.3-4.8.8-10 6-11.3 2.5-.6 5.3-1 7.7.3 2 1.1 3.3 3.2 4.1 5.3-.5-.5-.9-1.2-1.6-1.4-.5 3-.3 6.3-.1 9.3-.4-3.3-.7-6.6-1.1-9.9 0-.6-.1-1.2-.5-1.6-.4-.5-1.1-.7-1.5-.3-.3.3-.3.8-.4 1.2 0 2.2 0 4.3.3 6.5-.3-1.9-.7-3.8-1.1-5.7-.2-.9-.6-2-1.6-2.1-.7 0-1.3.4-1.6 1-.3.6-.3 1.3-.3 1.9 0 3.2.7 6.4 1.3 9.6-.7-2.5-1.3-5-2-7.5-.2-.7-.4-1.3-.8-1.9-.4-.5-1.2-.9-1.8-.6-.5.2-.9.8-.9 1.4 0 .6 0 1.2.2 1.7.6 2.6 1.3 5.1 1.9 7.7a319 319 0 0 0-2.5-7.3c-.2-.6-.5-1.2-1-1.3-.5.1-.9.6-.9 1.2 0 .5 0 1.1.2 1.6l1.5 5.8c-.5-1.9-1.3-3.7-2.4-5.3-.4.6-.8 1.2-1.1 1.8Z"/><path fill="#34385e" d="M297.7 187.8c-1.9.6-3.8 1-5.8 1.3-1 .1-2 .2-3 .2h-3v-.3h2.9c1 0 1.9-.2 2.9-.3 1.9-.2 3.9-.6 5.8-1.1v.3ZM299.8 168.8c-1.9 3.7-3.9 7.2-6.3 10.6-1.2 1.7-2.4 3.3-3.7 4.9-1.3 1.6-2.6 3.2-4 4.7l-.2-.2c1.4-1.5 2.7-3.1 3.9-4.7 1.3-1.6 2.5-3.3 3.6-5 2.4-3.3 4.5-6.8 6.4-10.4h.2Z"/><path fill="#34385e" d="M298.3 187.8c-3.8-2-7.5-4.1-10.9-6.8a38.9 38.9 0 0 1-4.7-4.4c-1.4-1.6-2.7-3.3-3.8-5.2h.2c1.1 1.7 2.4 3.4 3.8 4.9 1.4 1.6 3 3 4.7 4.3 3.3 2.7 7 4.9 10.7 6.9v.2Z"/><path fill="#34385e" d="M300 168.9c-3.3 1.2-6.6 2-10 2.6-1.7.2-3.4.4-5.2.5h-5.2v-.3h5.2c1.7-.1 3.4-.3 5.1-.6 3.4-.5 6.8-1.2 10-2.4v.3Z"/><path fill="url(#E)" d="M298.2 188.6c-.5.1-1.1-.1-1.3-.6-.5-1 .7-1.7 1.6-1.3.9.4.5 1.7-.3 1.9Z"/><path fill="url(#F)" d="M298.3 188.3c-.3 0-.6 0-.7-.3-.3-.6.4-1 .9-.8.5.2.3 1-.2 1.1Z"/><path fill="url(#G)" d="M285.6 190.2c.5 0 1-.4 1.1-.9.2-1.1-1.1-1.5-1.9-.9-.7.6 0 1.8.8 1.8Z"/><path fill="url(#H)" d="M285.5 190c.3 0 .6-.2.6-.5.1-.6-.6-.9-1.1-.5-.4.3 0 1 .5 1Z"/><path fill="url(#I)" d="M300.2 169.8c-.5.1-1.1-.1-1.3-.6-.5-1 .7-1.7 1.6-1.3.9.4.5 1.7-.3 1.9Z"/><path fill="url(#J)" d="M300.3 169.6c-.3 0-.6 0-.7-.3-.3-.6.4-1 .9-.8.5.2.3 1-.2 1.1Z"/><path fill="url(#K)" d="M279.4 172.4c.5 0 1-.4 1.1-.9.2-1.1-1.1-1.5-1.9-.9-.7.6 0 1.8.8 1.8Z"/><path fill="url(#L)" d="M279.2 172.2c.3 0 .6-.2.6-.5.1-.6-.6-.9-1.1-.5-.4.3 0 1 .5 1Z"/><path fill="#34385e" d="M289.3 109.1c-2.5 0-5 0-7.5.3l-3.7.6c-1.2.3-2.5.5-3.7.9v.3c1.3-.3 2.5-.5 3.7-.8 1.2-.2 2.5-.4 3.7-.5 2.5-.3 5-.5 7.4-.5v-.3Z"/><path fill="#34385e" d="M294.5 123c-3.1-2.5-6.3-4.8-9.7-6.9-1.7-1-3.5-2-5.2-2.9-1.8-.9-3.6-1.7-5.4-2.5v.2c1.7.8 3.5 1.7 5.2 2.6 1.7.9 3.5 1.9 5.1 3 3.4 2 6.7 4.2 9.8 6.7l.2-.2Z"/><path fill="#34385e" d="M289.5 109.1c-3.3 2.2-6.5 4.6-9.4 7.3-1.4 1.4-2.7 2.9-3.9 4.5-1.2 1.6-2.2 3.3-3 5.1h.2c.8-1.7 1.8-3.3 3-4.9 1.2-1.6 2.5-3 3.9-4.4 2.8-2.8 6-5.2 9.2-7.4v-.2Z"/><path fill="#34385e" d="M294.2 122.9c-3.4-.2-6.9-.2-10.4.3-1.7.2-3.4.6-5.1 1-1.7.4-3.3.9-5 1.4v.3c1.7-.5 3.4-1 5.1-1.3 1.7-.4 3.4-.6 5.1-.8 3.4-.5 6.8-.6 10.3-.5v-.3Z"/><path fill="url(#M)" d="M289.8 108.3c-.5 0-1 .4-1.1.9-.2 1.1 1.1 1.5 1.9.9.7-.6 0-1.8-.8-1.8Z"/><path fill="url(#N)" d="M289.9 108.5c-.3 0-.6.2-.6.5-.1.6.6.9 1.1.5.4-.3 0-1-.5-1Z"/><path fill="url(#O)" d="M274.3 110.3c.5-.1 1.1.1 1.3.6.5 1-.7 1.7-1.6 1.3-.9-.4-.5-1.7.3-1.9Z"/><path fill="url(#P)" d="M274.2 110.6c.3 0 .6 0 .7.3.3.6-.4 1-.9.8-.5-.2-.3-1 .2-1.1Z"/><path fill="url(#Q)" d="M294.2 121.9c-.5 0-1 .4-1.1.9-.2 1.1 1.1 1.5 1.9.9.7-.6 0-1.8-.8-1.8Z"/><path fill="url(#R)" d="M294.4 122.1c-.3 0-.6.2-.6.5-.1.6.6.9 1.1.5.4-.3 0-1-.5-1Z"/><path fill="url(#S)" d="M273.2 124.8c.5-.1 1.1.1 1.3.6.5 1-.7 1.7-1.6 1.3-.9-.4-.5-1.7.3-1.9Z"/><path fill="url(#T)" d="M273.1 125.1c.3 0 .6 0 .7.3.3.6-.4 1-.9.8-.5-.2-.3-1 .2-1.1Z"/><path fill="url(#U)" d="m264.5 156.4-.5-1.6c10-2.7 32.8-9.4 43.1-12.6l.5 1.6c-9.8 2.6-32.6 9.4-43.1 12.6Z"/><path fill="url(#V)" d="M315.6 143.5c-1 0-2.1 0-3.1-.1-.9 0-1.7-.3-2.7-.3-.2 0-.4 0-.5-.1 0 0-.1 0-.1-.1-.3-.3 0-.8.2-1.2.7-1.1 1.4-1.6 2.4-2.4 3.5-2.8 7.4-5.2 11.4-7 2.3-1 4.7-1.9 7.2-2.6.9-.3 1.9.4 2.3 1.4.6 1.6 1.1 3.2 1.5 4.9.2.8.4 1.6.5 2.5.2 1-.3 2-1.1 2.3-.8.3-1.5.6-2.3.8-5 1.6-10.3 2.2-15.6 2.1Z"/><path fill="url(#W)" d="M315.6 143.5c-1 0-2.1 0-3.1-.1-.9 0-1.7-.3-2.7-.3-.2 0-.4 0-.5-.1 1.1-1 2.5-1.7 3.9-2.3 3.1-1.4 6.3-2.4 9.6-3.1 1.3-.3 2.8-.7 4.1-.6.3 0 .6.2.7.5.1.3 0 .7-.3.9-.2.2-.6.3-.9.4-1.5.5-3.1.8-4.6 1.3-2.4.8-4.7 1.7-7 2.6.3.3.5.6.8.9Z"/><path fill="url(#X)" d="M326.9 138.5c-6.4 1.6-12.8 3.2-19.3 5.1l-.4-1.5c6.5-2 12.8-4 19-6.2 1-.3 1.8 2.3.8 2.6Z"/><path fill="url(#Y)" d="M307 144.7c-.5-1-.9-2.1-1.1-3.1.5-.2 1-.4 1.5-.5.3 1 .6 2.1.8 3.2-.4.3-.8.4-1.2.4Z"/><path fill="url(#d)" d="M309.3 141.7c5.4-1.9 11.1-3.6 16.5-5.4.9-.1 1.1.7 1.2 1.2-2-.6-12 2.8-17.9 4.9.2-.1 0-.6.3-.7Z"/><path fill="url(#Z)" d="M257.4 160.6c.9-.6 1.7-1.2 2.5-1.8.8-.6 1.3-1.2 2.1-1.7.1-.1.3-.2.4-.4v-.2c0-.4-.4-.7-.8-.9-1.2-.5-2.1-.6-3.3-.7-4.5-.5-9-.4-13.4.3-2.5.4-5 1-7.4 1.7-.9.3-1.4 1.4-1.2 2.5.4 1.6.8 3.3 1.4 4.9.3.8.6 1.6.9 2.3.4.9 1.3 1.5 2.2 1.3l2.4-.6c5-1.4 9.9-3.7 14.3-6.7Z"/><path fill="url(#aa)" d="M257.4 160.6c.9-.6 1.7-1.2 2.5-1.8.8-.6 1.3-1.2 2.1-1.7.1-.1.3-.2.4-.4-1.5-.2-3 0-4.5.2-3.3.5-6.6 1.4-9.7 2.6-1.2.5-2.8.9-3.8 1.8-.2.2-.4.5-.3.8 0 .3.4.5.7.6.3 0 .7 0 1-.1 1.6-.4 3-1 4.6-1.4 2.4-.6 4.9-1.1 7.3-1.6 0 .4-.1.8-.2 1.2Z"/><path fill="url(#ab)" d="M245.2 162.5c6.2-2.1 12.5-4.2 19-6.2l-.4-1.5c-6.5 1.8-13 3.5-19.3 5.1-1 .3-.3 2.9.8 2.6Z"/><path fill="url(#ac)" d="M265.2 157c-.1-1.2-.4-2.2-.8-3.2-.5 0-1 .2-1.5.5.3 1.1.6 2.1 1.1 3.1.5 0 .9-.1 1.2-.4Z"/><path fill="url(#ad)" d="M261.7 155.7c-5.5 1.3-11.3 3-16.8 4.3-.8.4-.6 1.2-.4 1.7 1.3-1.6 11.6-4.1 17.7-5.6-.2 0-.4-.5-.6-.4Z"/><path fill="url(#ae)" d="M305.8 142.7c-.3.3-40.9 12.4-40.8 12.1v.5c10.5-3 32.8-9.6 41-12.3l-.2-.4Z"/></g></svg>