<svg id="be8b1546-3594-4bb3-ae78-0c208346552c" data-name="Layer 1" xmlns="http://www.w3.org/2000/svg" xmlns:xlink="http://www.w3.org/1999/xlink" width="335" height="335" viewBox="0 0 335 335">
  <defs>
    <radialGradient id="f88d2982-932d-42a0-82c8-8d1481fef2d8" cx="167.84" cy="166.95" r="257.17" gradientTransform="translate(33 33.7) scale(0.8 0.8)" gradientUnits="userSpaceOnUse">
      <stop offset="0" stop-color="#ec1c24"/>
      <stop offset="1" stop-color="#0f171b"/>
    </radialGradient>
    <clipPath id="bde89b7a-6921-4a4c-96d6-07f5c8bf6c50">
      <rect width="335" height="335" fill="none"/>
    </clipPath>
    <filter id="a1733787-c3fc-4810-9041-a6acc5dc5a0f">
      <feOffset input="SourceAlpha"/>
      <feGaussianBlur stdDeviation="3" result="a709cf6f-e7a5-449b-adf2-7268df670dd7"/>
      <feFlood/>
      <feComposite operator="in" in2="a709cf6f-e7a5-449b-adf2-7268df670dd7"/>
      <feComposite in="SourceGraphic"/>
    </filter>
  </defs>
  <g>
    <g>
      <rect width="335" height="335" fill="url(#f88d2982-932d-42a0-82c8-8d1481fef2d8)"/>
      <g clip-path="url(#bde89b7a-6921-4a4c-96d6-07f5c8bf6c50)">
        <g>
          <polygon points="339.1 297.3 126.3 376.3 126.4 364.5 339.1 285.6 339.1 297.3" fill="#fff100"/>
          <polygon points="337 321.2 127.2 352.8 128.4 340.7 338.2 309.1 337 321.2" fill="#fff100"/>
        </g>
        <g>
          <polygon points="146.4 -20.6 -56.9 44.2 -58.6 37.9 144.7 -26.9 146.4 -20.6" fill="#fff100"/>
          <polygon points="148 -7.8 -59.6 31.6 -60.2 25.1 147.4 -14.3 148 -7.8" fill="#fff100"/>
        </g>
        <g filter="url(#a1733787-c3fc-4810-9041-a6acc5dc5a0f)">
          <path d="M282.9,47.4l-4.6-.7c-2.6-.3-3.7-.6-4.8-1.4a13.4,13.4,0,0,1-4.3-5.1c-.7-1.4-.7-1.9-.4-3.7s-.4-8.9.8-1.6c.1.7.1.8.5.4s.6-.8,0-4.6c-.1-1.1-.1-1.1.4-.4a1.7,1.7,0,0,0,.9.7c.2-.1.4,1.2.6,2.7s.1,2.8-.2,3.1a.6.6,0,0,1-.9-.3c-.3-.5-.4-.5-.8.3a3.3,3.3,0,0,0-.5,1.5c0,.8,2.2,4,2.7,3.9l2.5.9c2.8,1.3,3.7,1.6,3.5,1s.3-.5,2.3-.4,2.2.2,1.6.4-.8.3.7.7a8.8,8.8,0,0,1,2,.8c.4.4,2.8-1.3,2.8-1.9s-.3-.1-.6.2a2,2,0,0,1-1.2.6c-.4,0-.3-.3.4-1s1.4-2.7.6-2.7-.3-.1,0-.5.1-1.9-1.2-2.4-1-.3-.3-.4,1.6-.7.8-.7-.4-.3-.3-.7-.3-1-.9-1.5-1.3-1.6.1-1.1,2,.1,1.9-3.6a22,22,0,0,1,.5-5c.7-2.4.7-2.3-.5-2.8s-2.5-.5-5.8-.5h-4.8l-2.2,2.1-4.5,5,4.7-5.6,2.4-2.7,2.4.5c2.1.4,4.2.4,4,.2s.7.1,2.6-.3l2.4.9.9-4.2c.2-1.5.4-3.3.4-4a2,2,0,0,1,.4-1.7c.3-.3.4-.6.3-.8s-.6.1-1,.6-.4.1-3.9-.2a29.1,29.1,0,0,0-4.9.5c-.4-.1-.7-.2-.6-.4s0-.2-.2-.2-.4-.2-.2-.4-.1-.4-.5-.5h3.3c3.5-.3,3.9,1.4,3.7.2s.7-.3,1.8-.5.4.4.4.1a.5.5,0,0,1,.5-.5c.4,0,.5.2.4.4s.2.3.7.3,1.9,1.7,1.8,3.3.4,2.2,2.9,2.2,2.1-.1,1.8-.3-.1-.4.5-.5,2.2-.3,2.3-1.6c.1-3.3-1.3-6.2-1.6-5.9s-.4.1-.7-.2a1.8,1.8,0,0,0-1.3-.1,5.1,5.1,0,0,1-1.7.3c-.8.1-2.2-8.5-2.3-10.7v-.7l1.3,6.9a23.1,23.1,0,0,1,.6,3.2c.1.8.5,1.1.9.5a9.4,9.4,0,0,0-.2-2.6,7.1,7.1,0,0,1-.3-2.5,7.4,7.4,0,0,1,.7,2.4c.4,2.3.5,2.5,1.2,2.4l1-.5a2.2,2.2,0,0,1,1-.5c1-.3,1.3.5,1.4,3.6a11.7,11.7,0,0,0,1.2,4.6,11.2,11.2,0,0,1,1.2,3.3c0,.5.8,1.8,2.3,3.4,5.2,5.6,6.8,10.6,4.5,13.8-.4.7-1.4,1.6-.9,3-1,3-1.2,2.1-3.4,4.7a7.4,7.4,0,0,1-4.4,1.5,12.3,12.3,0,0,1-5.7-.5l-2.3-.7-.4,1.6c-.5,1.8-1.7,2.8-4.2,3.4a5.5,5.5,0,0,1-4,0Zm18.8-5.3c1.1,0,3.3-3.3,1.7-2s-.8,0-.1-.6.2-.5,0-.7-.6.1-1,.5-1.6,1-.9.2.5-.6-.2-.4l-1.5.5q-1.1.3,0-.3c.5-.3.5-.5.2-.7s-.2-.4.3-.5,1-.8.1-1.1-.9-1,.3-1,1.2-.2,1.4-.9-1-3-1.9-2.8-.8-.1-.9-.3-.6-.2-1.2.1-1.1.4-1.2.1-.3-.2-.6,0a6,6,0,0,1-1.8.4h-1.3l1.3-1a4.3,4.3,0,0,1,2.1-1.1c1,0,.9-.7-.1-1.3s-1.7-1.4-1.5-1.6.5.1.8.4.6.4.4-.3.1-1.1.8-.4.4.1.5-1,.1-1.2.2-.6.9,3,1.3,3,.3-.2.2-.5a1.7,1.7,0,0,1,.1-1.2c.3-.7.3-.6.3.2s.1.9.6.2.6-.7.5.3.1,1.3.8,0,.6-.9.7-.9.2.4.1.9,0,1,.3,1,.3.2-.2.7-.6.7.2.7.8.2.5.3-.1.5.7,1l1.2.7-1,.2-1,.2.9,1.1,1.7,2.8,1.3-1.9a6.6,6.6,0,0,0,.8-6.3c-.7-2-1.6-4.7-2.5-4.7a4.2,4.2,0,0,1-2-2c-.9-1.5-2.1-3.6-3.1-4.3s-3.8-1-3.8-.4-3.7.7-4.5,1.1-1.8,1.4-1.8,4.1-1.1,3.7-1.7,5.6-.5,6.8-.1,8.3a13,13,0,0,0,1.5,3.2c1,1.7,2.6,1.7,3.8,2.6s1.5.3,2.5.6a6.9,6.9,0,0,0,5.8-.2Zm-3.9-26.6a.8.8,0,0,0-.8.1c-.1.1.1.2.5.2s.5-.2.3-.3ZM268.9,31.4c-.1-1.2.2-1.9,1.2-3.2s2-2.3.6-.2a14.8,14.8,0,0,0-1.4,3.2l-.4,1.7Zm7.8-12.6c-.1-6.6.7-5.5.2-.4a1,1,0,0,0,.7,1.1c.5.1.5,1.3-.1,1.5s-.9-1-.8-2.2Zm.1-4.9c.3-2.9,2.1-4.3,2.8-3l.4.8-1.5.3c-.9.2-1-.2-1,1.6a6,6,0,0,1-.5,2.3c-.3.3-.4-.2-.2-2Zm8.2-2.3c.2-.6,4.4-12.4,4.4-12.3C289.6,1.3,285.9,11.7,285,11.6Zm2.2-1.1a16.1,16.1,0,0,1,.9-2.6,20.9,20.9,0,0,1,1-2.7c0,.3-.9,3.4-1,3.8s-.9,1.8-.9,1.5ZM290.8,9c.7-.3,2.7-1.5,3-1.4s-1.3,1.1-2,1.4-7.3,2.5-1,0Zm-2.3-2.2a46.4,46.4,0,0,1,1-4.6c1.3-4.7,1.4-5.4.6-4.1s-2.5,7-2.4,6.7,1.9-8.2,1.3-7.9-1.5-1.4-1.2-1.3,1.8.9,1.6,1,1.3-.9,1.1-1.3a4.4,4.4,0,0,1-.2-1c0-.3-.5-.6-1-.9l-1-.4h1.2c1.3,0,1.3,0,1.4-1.4a4.9,4.9,0,0,0-.3-2c-.8-1,.2-.4,1.2.7s1.1,1.3.7,2.2c-1.1,2.7-.4.3-.4-.6s0-1-.4-.4.9,2.4,2.3,1.1.7-.4.7-.2,2.3-.3,2.8-.4-1.9.8-2.8,1.3a3.3,3.3,0,0,1-1.8.6c0-.2-.4-.3-.9-.3s.3-.6,1,0-.5,1.2-.8,1.3-.4.6-.4.9A20,20,0,0,1,291-1l-1.6,5.2a16.1,16.1,0,0,1-.9,2.6ZM293.3.5c0-.6-.1-1.8,0-1.6a27,27,0,0,1,.6,4.1c-.1.3-.6-1.9-.6-2.5Zm-.4-1.8c0-.4-.4-4.4-.3-4.3s1.1,6.5,1,6.8-.7-2.1-.7-2.5Zm-5.2-3.1c0-.6,2.5-2,2.8-1.7s-.6.5-.9.5a2.9,2.9,0,0,0-1.1.8c-.5.5-.8.6-.8.4Zm1.7-3.5a2,2,0,0,1,0-2.7c1-.4,2.4.2.3.1-.6,1.7-.6,1.9.2,2.4s1.7,2,.4,1.1-.6-.4-.9-.9Zm8.1-.1c1.3-.8.4-1.7-1-.6-3,2.4-2.2,1.1-.8-.2s3.1-.6,3.1.1-.4.7-1,.9-1.6.4-.3-.2Z" fill="#231f20"/>
          <path d="M284.7,45.5a8.2,8.2,0,0,0-2-.7c-1.2-.4-1.3-.5-.7-.7s.4-.1.2-.2a11.7,11.7,0,0,0-3.7-.1h-.2v.5H278a8.1,8.1,0,0,1-2.8-1l-2.9-1.1c-.2,0-.3-.1-.6-.4a12.1,12.1,0,0,1-2.1-3.3c-.1-.3,0-.7.4-1.4s.4-.9.6-.9.2.1.3.3.4.4.6.3.4-.2.5-.4a18.5,18.5,0,0,0-.4-5c-.1-.3-.1-.3-.3-.4a1.9,1.9,0,0,1-.7-.6l-.5-.5a8.8,8.8,0,0,0,.2,1.7c.2,2,.3,3.1.1,3.4l-.4.4c-.2.1-.2.2-.3.1a14,14,0,0,1-.3-1.8l-.3-1.6v-.7a18.1,18.1,0,0,1,1.8-3.8,8.5,8.5,0,0,1,1.8-2.2l2.4-2.6,1.2-1.1h3.3c5,0,6.6.1,7.6.6l.6.3c.2.2.1.6-.2,1.8a16.3,16.3,0,0,0-.6,5.6c-.1,2.6-.1,3-.3,3.4s-.6.5-1.6.2-1.1-.2-1.1,0,.1.3.7.9,1.1,1.1,1.1,1.8.1.6.4.6.3.1.2.3a3,3,0,0,1-1,.4c-.6.1-.6.1.1.4a1.9,1.9,0,0,1,1.1.7,1.2,1.2,0,0,1,.2,1.7c-.2.4-.2.5,0,.5s.5.5.3,1.2a4,4,0,0,1-.9,1.5c-.6.7-.7.9-.5,1A2.4,2.4,0,0,0,287,44c.5-.4.7-.5.7-.3s-1.7,1.8-2.5,2l-.5-.2Z" fill="#ec1c24"/>
          <path d="M297.7,42.8a12.5,12.5,0,0,1-4.1-1.5c-.8-.5-1.6-2.1-2-3.9s-.1-.9-.3-2.9a11.8,11.8,0,0,0-.4-2.8,6.2,6.2,0,0,1,.3-3.5,18.2,18.2,0,0,0,1.2-6.3c.1-1.5.1-2,.4-2.5s.8-1.1,2.1-1.7,1.2-.6,1.3-.9.1-.2.4-.2,2.3.8,3.4,1.9a12.7,12.7,0,0,1,2.3,2.9c1.2,1.9,1.7,2.4,2.1,2.5a2.5,2.5,0,0,1,1.1.9,9.5,9.5,0,0,1,2.3,4.3,3.8,3.8,0,0,1-1.2,3.8c-.8.8-1.8,1.8-1.9,1.7a25.9,25.9,0,0,1-1.8-2.1l.9-.2c.5,0,.9-.1.9-.2l-.6-.4a4.4,4.4,0,0,1-1.3-1l.2-.3c.2-.2.1-.2-.4-.2s-.9-.1-.4-.7.6-.8.2-.8-.3-.4-.2-1,0-.9-.1-.9-.4.5-.7.9-1.1,1.2-.8-.1V27c0-.1,0-.1-.4.4a2,2,0,0,0-.5.5c-.1,0-.2-.2-.2-.5v-.6a1.6,1.6,0,0,0-.2,1.2v.6h-.4a6.4,6.4,0,0,1-1.1-2.6c-.1-.5-.2-.7-.2-.4a6.5,6.5,0,0,1-.2,1.7c0,.2-.1.1-.4-.1s-.9-.4-.7.5a2.8,2.8,0,0,1,.1.6l-.4-.3-.8-.4c-.2.2.5,1,1.3,1.6s1,.8.9,1.1-.2.2-.7.2a5.6,5.6,0,0,0-2,.9l-1.3,1.2,2.2-.2.7-.2c.4-.2.5-.2.7-.1s.2.3.4.3l.8-.3.7-.2c.3-.1.3,0,.5.1a.9.9,0,0,0,.8.3h.6a2,2,0,0,1,1.1,1.1,2.1,2.1,0,0,1,.1,2c-.2.4-.4.5-1.2.5s-1,.2-1,.5.2.4.8.5.6.4.6.5-.3.4-.7.6l-.5.2c-.1.1,0,.2.1.3s.3.4-.3.8l-.3.2a3.4,3.4,0,0,0,1.6-.4c.7-.2.8-.3.8-.2l-.2.4c-.3.3-.4.6-.3.6s.5-.1,1-.5.8-.7,1-.7.3.3,0,.7a1.7,1.7,0,0,0-.3.7c0,.1.2.1.6-.2s.6-.3.7-.2-.2.6-.6,1a7.8,7.8,0,0,1-3.4,1.9,10.5,10.5,0,0,1-2.5.1Z" fill="#ec1c24"/>
          <path d="M280.1,20.7h-2.2v-.2a.7.7,0,0,0-.1-.5l-.3-.3c-.2,0-.5-.4-.7-.6a20,20,0,0,1,.2-3.3,11.9,11.9,0,0,0,.4-2.4,7.7,7.7,0,0,1,.1-1l1.1-.3c.8-.1,1-.2,1.2-.1s4-.4,6.2-.3,2.5.9,3,.3.9-.8,1-.7.1.4-.2.8a2.8,2.8,0,0,0-.4,1.9,15,15,0,0,1-.2,2,42.3,42.3,0,0,1-.7,4.6,3.1,3.1,0,0,1-2.1,1.1c-2.6-.2-3.6-.7-3.7-.4s-.5.2-2.8.1Z" fill="#ec1c24"/>
          <path d="M292.8,16c-1.1-.3-1.4-.7-1.4-2.2a4.4,4.4,0,0,0-.4-2.1c-.4-.6-.8-1-1.3-1s-.8-.2-.7-.5,0-.3,1.4-.8a9.2,9.2,0,0,0,2.8-1.3,1.3,1.3,0,0,1,.8-.3l1.2-.2a1.7,1.7,0,0,1,1.6.1h.8a34.5,34.5,0,0,1,.1,6.5,1.3,1.3,0,0,1-1,.9c-.5.2-.6.3-.5.4v.2a9.7,9.7,0,0,1-3.5.1Z" fill="#ec1c24"/>
          <path d="M287.6,21.6l-1.9-.3h-2.5c-.3.3-2,.2-4.3-.3l-1-.2v-.4c0-.4,0-.5-.2-.6s-.9-.8-.9-1.2.3-2.7.4-3.2a7.2,7.2,0,0,0,.2-1.7l.2-1.3.5-.3,1-.2c.4,0,.7-.1.8,0a14.4,14.4,0,0,0,3.2-.2,12.3,12.3,0,0,1,4.3.2c1.2.3,1.4.2,1.8-.1s1.4-.8.7.2a3.9,3.9,0,0,0-.4,2.2,63.5,63.5,0,0,1-1.1,7.1l-.2.6-.6-.2Z" fill="#ec1c24"/>
          <path d="M296.6,42.5l-2-.5-1.2-.3-1.6-.8c-1.6-.8-1.9-1.2-2.9-3.1a16,16,0,0,1-.8-2,20,20,0,0,1-.1-7.7c.1-.4.5-1.4.8-2.3,1-2.7,1-2.8,1.1-4.7s.1-1.8.3-2.1,1.2-1.2,3.8-1.7,2.1-.4,2.2-.6,1.2-.1,2.6.8a14.9,14.9,0,0,1,3.3,3.6c1.4,2.1,1.8,2.6,2.3,2.8a3.9,3.9,0,0,1,1.6,1.4,8.8,8.8,0,0,1,1.6,3.2,3.4,3.4,0,0,1,.3,1.7c-.1,1.2-.4,1.7-1.9,3.2l-1.2,1.2a4.3,4.3,0,0,1-1-1c-1-1.2-1-1.1.1-1.3s.8-.1.8-.2l-.7-.5c-1-.5-1.3-.8-1.1-1.1v-.2h-.6c-.3-.1-.5-.1-.5-.2l.3-.6c.5-.5.5-.6.2-.8s-.2-.1-.2-.8v-.9c-.1-.1-.4.2-.8.9s-.7.9-.8.8a3.2,3.2,0,0,1,0-1.4c0-.3,0-.3-.5.2s-.6.6-.6-.3v-.6l-.2.3a3.1,3.1,0,0,0-.2,1.1c0,.6-.1.7-.2.8s-1-1.3-1.2-2.5l-.2-.5a3.8,3.8,0,0,0-.1.8l-.2.9-.5-.3c-.4-.2-.5-.2-.6-.1v.3a4.6,4.6,0,0,1,.1,1l-.6-.3-.5-.4c-.4,0,.4,1,1.2,1.5s.9.7.9,1-.2.4-.7.4a6.4,6.4,0,0,0-2.5,1.4l-.8.7a11.1,11.1,0,0,0,2.8-.4l.6-.2.2.2c.3.3.3.2,1.3-.1s.8-.3,1.2-.1l.6.2a2.4,2.4,0,0,1,2,1.8,1.7,1.7,0,0,1,0,1.4c-.3.5-.5.6-1.5.7s-.9.3-.8.5l.7.4c.9.4.9.6,0,1.1s-.6.4-.3.6.2.2-.3.6l-.4.4h.4l1.1-.4.9-.2-.2.4c-.3.4-.4.6-.2.6l1.1-.7c.4-.4.6-.5.8-.5s.3.3,0,.8-.4.6-.2.6l.5-.2c.5-.3.7-.3.7-.1s-1.3,1.5-2.1,2a5.7,5.7,0,0,1-3.2.9,5.4,5.4,0,0,1-2.3-.3Z" fill="#ec1c24"/>
          <path d="M292.7,16c-1-.3-1.2-.6-1.3-2.1a6.8,6.8,0,0,0-.2-1.8,2.4,2.4,0,0,0-1.4-1.4c-.7-.1-.8-.2-.8-.5s0-.3,1.2-.7a11.5,11.5,0,0,0,2.9-1.3l.8-.4,1.2-.2,1-.2.4.2.8.2c.4,0,.6.4.9,1.2a11.9,11.9,0,0,1,.8,4.1c0,1.3-.3,1.7-1.6,2s-1.3.4-1.3.5a.3.3,0,0,1,.1.2c.1,0,.1.1,0,.2a20.4,20.4,0,0,1-3.5,0Z" fill="#ec1c24"/>
          <path d="M297.2,42.7l-1.1-.3-1.5-.3-2.2-.9c-1.7-.9-2.1-1.1-2.6-1.8a20.1,20.1,0,0,1-1.6-3.3,20.3,20.3,0,0,1-.5-6.2,13.3,13.3,0,0,1,1.1-4.1,10.9,10.9,0,0,0,1.1-5.1,2.8,2.8,0,0,1,.7-2.3c.5-.4,1.2-.6,3.3-1.1s2.1-.4,2.4-.7,3.1-.1,4.1.9a22.8,22.8,0,0,1,2.1,3c1.1,1.9,1.7,2.6,2.6,3s1.1.8,1.7,2.5c1.7,4.3,1.6,6-.4,9a4.8,4.8,0,0,1-.9,1.3l-.8-1.3c-.5-.7-1-1.6-1.3-1.9s-.5-.6-.4-.6l.8-.2c.3,0,.7-.1.7-.2s-.1-.2-.6-.5-1.2-.9-1-1.1.1-.3-.3-.3-.7-.1-.7-.2a1.7,1.7,0,0,1,.2-.5c.5-.5.6-.7.3-.9s-.3-.2-.3-.9v-.8a3.2,3.2,0,0,0-.6.8l-.7.8c-.2.2-.2.2-.3,0v-.8c.1-.3.1-.6,0-.6l-.4.4-.5.4a5.6,5.6,0,0,1-.1-.7c-.1-.6-.1-.6-.2-.3a2.5,2.5,0,0,0-.2,1c0,.7-.2.9-.5.7a8.7,8.7,0,0,1-.9-2.1c-.1-.4-.2-.7-.2-.6a2.4,2.4,0,0,0-.1.7c-.1.4-.1.7-.2.8l-.5-.2c-.3-.2-.5-.3-.5-.2s-.1.4,0,.7v.6l-.6-.3-.6-.3c-.1.1.5.8,1,1.2l.9.8c.4.3.4.3.3.5s-.4.3-.7.4A4.6,4.6,0,0,0,294,32c-.4.3-.7.5-.7.6l2.4-.3c1-.3,1-.3,1.1-.1s.5.2,1.2-.1.9-.3,1.3-.1l.7.2a2.3,2.3,0,0,1,1.9,1.8,1.7,1.7,0,0,1,0,1.4c-.2.4-.5.6-1.2.7s-1.4.4-.4.9l.7.4c0,.2-.2.4-.6.7s-.6.3-.4.5.2.4-.2.7l-.3.3,1.1-.3,1.1-.3-.2.5c-.5.8-.3.7.9-.3l.8-.4c.3.1.3.3,0,.9a1.5,1.5,0,0,0-.3.5l.5-.2c1.1-.6,1.1-.2.1.8a7.2,7.2,0,0,1-3.5,1.9Z" fill="#ec1c24"/>
        </g>
        <g>
          <path d="M283,95.6a84.7,84.7,0,1,0,84.6,84.6A84.7,84.7,0,0,0,283,95.6Zm0,159.6a75,75,0,1,1,74.9-75A75,75,0,0,1,283,255.2Z" fill="#fff100"/>
          <circle cx="283" cy="180.2" r="72.6" fill="#fff"/>
          <g>
            <path d="M285,271.3a91.1,91.1,0,1,1,91-91.1A91.2,91.2,0,0,1,285,271.3Zm0-180.9a89.9,89.9,0,1,0,89.8,89.8A89.9,89.9,0,0,0,285,90.4Z" fill="#fff"/>
            <g>
              <polygon points="206.7 145.2 198.8 151.7 198.8 151.7 198.3 141.5 202 144.5 206.7 145.2" fill="#fff"/>
              <polygon points="213.5 227.7 204.8 222.3 204.8 222.3 205.8 232.5 209 229.1 213.5 227.7" fill="#fff"/>
            </g>
          </g>
          <path d="M283,261.5a81.3,81.3,0,1,1,81.2-81.3A81.3,81.3,0,0,1,283,261.5Zm0-159.4a78.2,78.2,0,1,0,78.1,78.1A78.3,78.3,0,0,0,283,102.1Z" fill="#ec1c24"/>
        </g>
      </g>
    </g>
    <g>
      <g>
        <g>
          <path d="M32.6,22.7a2,2,0,0,1-.4.8l-3.5,3.6-3.8-2.2V22.7a1.1,1.1,0,0,1,2.2,0h0v2.7l3.5-3.5a1.2,1.2,0,0,1,1.6,0,1.2,1.2,0,0,1,.4.8" fill="#fff"/>
          <path d="M31.4,33H31l-.4-.2-3.5-3.5v2.7a1.1,1.1,0,1,1-2.2,0V29.7l3.8-2.2,3.5,3.6a1.1,1.1,0,0,1-.8,1.9" fill="#fff"/>
          <path d="M28.5,27.2h-.1l-1-.6-2.5-1.4-2.2-1.3c-.1-.1-.3,0-.4.1h0v6.6c0,.1.1.2.3.2h.1l2.2-1.2,3.5-2.1h.1Zm-.9.2h0l-2.8,1.6-1.7.9a.1.1,0,0,1-.2,0h-.1V24.8c0-.2.1-.2.2-.2h.1l1.7,1,2.8,1.5c0,.1.1.2,0,.3Z" fill="#fff"/>
          <path d="M26.9,27.3h-.1l-2,1.2-1.3.8h-.2V25.4c0-.1,0-.2.1-.2a.1.1,0,0,1,.1.1l1.3.7,2,1.2a.1.1,0,0,1,.1.1h0" fill="#fff"/>
        </g>
        <g>
          <path d="M51.1,27.2V27l-3.1-1.5-2-1c-.1-.1-.3,0-.3.2v5.2c0,.2.2.2.3.2L47.9,29,51,27.4h.1Zm-.7.1h-.1l-2.4,1.2-1.5.8a.2.2,0,0,1-.3-.1v-4a.2.2,0,0,1,.2-.2h0l1.5.8,2.5,1.2h.1Z" fill="#fff"/>
          <path d="M49.7,27.3h-.1l-1.8,1-1.1.6h-.2v-3c0-.1,0-.2.1-.2h.1l1.1.5,1.8.9h.1" fill="#fff"/>
          <path d="M34.8,24.6h2.8a2,2,0,0,1,2.3,1.8,2.1,2.1,0,0,1-2.3,1.8H36.2V30H34.9Zm2.6,2.6c.7-.1,1.1-.4,1.1-.8s-.4-.8-1.1-.8H36.1v1.6Z" fill="#fff"/>
          <path d="M45,29v1H40.7V24.7h1.3V29Z" fill="#fff"/>
          <path d="M52.5,28l-2.4-3.4h1.5l1.6,2.4,1.5-2.4h1.4L53.8,28v1.9H52.5Z" fill="#fff"/>
          <path d="M57,24.8h.7v3l3-3h.9l-2.5,2.5,2.8,2.9H61l-2.3-2.5-1,.9v1.6h-.6Z" fill="#fff"/>
          <path d="M62.2,27.5a3.2,3.2,0,0,1,3.1-2.9,3,3,0,0,1,3.1,2.8,3.1,3.1,0,0,1-3,2.9A3.1,3.1,0,0,1,62.2,27.5Zm5.5-.1a2.3,2.3,0,0,0-2.4-2.2,2.4,2.4,0,0,0-2.4,2.3,2.3,2.3,0,0,0,2.4,2.2,2.4,2.4,0,0,0,2.4-2.3Z" fill="#fff"/>
          <path d="M69.3,29.4l.4-.5a2.8,2.8,0,0,0,2,.8c.9,0,1.4-.5,1.4-1s-.6-.8-1.6-1-2-.5-2-1.5.8-1.5,2-1.6a3.2,3.2,0,0,1,2.1.8l-.4.5a2.9,2.9,0,0,0-1.8-.7,1.1,1.1,0,0,0-1.2,1c0,.5.6.7,1.6.9s2,.6,2,1.6-.7,1.5-2.1,1.6A3.2,3.2,0,0,1,69.3,29.4Z" fill="#fff"/>
          <path d="M75.1,24.8h.6L78,28.6l2.2-3.8h.7v5.4h-.7V26.1l-2.2,3.8-2.3-3.7v4h-.7Z" fill="#fff"/>
          <path d="M82.2,27.5a3.2,3.2,0,0,1,3.1-2.9,3,3,0,0,1,3.1,2.8,3,3,0,0,1-3,2.9A3.2,3.2,0,0,1,82.2,27.5Zm5.5-.1a2.3,2.3,0,0,0-2.4-2.2,2.4,2.4,0,0,0-2.4,2.3,2.5,2.5,0,0,0,2.5,2.2,2.3,2.3,0,0,0,2.3-2.3Z" fill="#fff"/>
          <path d="M89.3,29.4l.4-.5a3,3,0,0,0,2,.8c1,0,1.4-.5,1.4-1s-.5-.8-1.6-1-2-.5-2-1.5.8-1.5,2-1.6a3.2,3.2,0,0,1,2.1.8l-.4.5a2.8,2.8,0,0,0-1.7-.7c-.8,0-1.3.5-1.3,1s.6.7,1.6.9,2,.6,2,1.6-.7,1.5-2.1,1.6A3.2,3.2,0,0,1,89.3,29.4Z" fill="#fff"/>
        </g>
      </g>
      <g>
        <g>
          <path d="M14.3,125.9l.2.4-.3.3A2,2,0,0,1,14.3,125.9Z" fill="#fff100"/>
          <path d="M21.8,126.6a3.9,3.9,0,0,1-1.4,3.2,4.2,4.2,0,0,1-3.3.5,3.8,3.8,0,0,1-2.5-1.4,2.9,2.9,0,0,1-.4-2h.2l.3-.4.4.6a.1.1,0,0,0,.2,0c.1,0,.1-.2.1-.2l-.5-.6.6-.5v-.3h-.3l-.5.5-.2-.3c0-.1-.1-.1-.2-.1a3.8,3.8,0,0,1,.9-1.8,7.1,7.1,0,0,1,1.4-1l.9-.2h.6a1.3,1.3,0,0,1,.6.8h0a.3.3,0,0,1,.1.2l-.2.6a2.2,2.2,0,0,1-.5.8,2.3,2.3,0,0,1-1,.4,1,1,0,0,1-.8-.9,1.1,1.1,0,0,1,.3-.9v-.2h-.3a1.2,1.2,0,0,0-.4,1.2,1.1,1.1,0,0,0,.3.7l.3.2a3.1,3.1,0,0,0-.1,2.2,5.6,5.6,0,0,0,.5.8h0v.4a1,1,0,0,0,.5.8h.2v-.3c-.1,0-.3-.2-.4-.5h0l.4.3a3.4,3.4,0,0,0,1.8.4h.2l-.2-.2h0a2.6,2.6,0,0,1-2.6-1.6,2.3,2.3,0,0,1,0-2H17a1.5,1.5,0,0,0,1.3-.5,1.6,1.6,0,0,0,.6-.8,1.5,1.5,0,0,0,.2-.9h0a2.7,2.7,0,0,1,2,.9A2.9,2.9,0,0,1,21.8,126.6Z" fill="#fff100"/>
        </g>
        <g>
          <g>
            <path d="M14.3,103.4l.2.3-.3.3A1.5,1.5,0,0,1,14.3,103.4Z" fill="#fff100"/>
            <path d="M21.8,104.1a3.9,3.9,0,0,1-1.4,3.2,3.7,3.7,0,0,1-3.3.4,3.1,3.1,0,0,1-2.5-1.4,2.6,2.6,0,0,1-.4-1.9h.2l.3-.4.4.6a.1.1,0,0,0,.2,0v-.2l-.5-.6.6-.6V103h-.3l-.5.5-.2-.3c0-.1-.1-.1-.2-.1a3.8,3.8,0,0,1,.9-1.8,4.5,4.5,0,0,1,1.4-1l.9-.2h.6a1.1,1.1,0,0,1,.6.8h0a.3.3,0,0,1,.1.2l-.2.6a1.8,1.8,0,0,1-.5.7,1.2,1.2,0,0,1-1,.4.8.8,0,0,1-.8-.8,1.1,1.1,0,0,1,.3-.9V101h-.3a1.5,1.5,0,0,0-.1,1.9l.3.2a3.1,3.1,0,0,0-.1,2.2,5.6,5.6,0,0,0,.5.8h0v.4a1,1,0,0,0,.5.8c0,.1.1,0,.2,0V107c-.1,0-.3-.2-.4-.5h0l.4.2a2.7,2.7,0,0,0,1.8.5h.2a.2.2,0,0,0-.2-.2h0a2.7,2.7,0,0,1-2.6-1.6,2.3,2.3,0,0,1,0-2H17a1.5,1.5,0,0,0,1.3-.5,1.6,1.6,0,0,0,.6-.8,1.5,1.5,0,0,0,.2-.9h0a2.7,2.7,0,0,1,2,.9A2.9,2.9,0,0,1,21.8,104.1Z" fill="#fff100"/>
          </g>
          <g>
            <path d="M116,103.4l.2.3-.3.3C115.9,103.9,116,103.6,116,103.4Z" fill="#fff100"/>
            <path d="M123.5,104.1a3.9,3.9,0,0,1-1.4,3.2,3.7,3.7,0,0,1-3.3.4,2.9,2.9,0,0,1-2.9-3.3h.2l.3-.4.4.6c.1,0,.2.1.2,0v-.2l-.4-.6.5-.6c.1,0,.1-.1,0-.2H117l-.5.5-.3-.3a.1.1,0,0,0-.1-.1,3.1,3.1,0,0,1,.9-1.8,3.2,3.2,0,0,1,1.3-1l.9-.2h.6a1.1,1.1,0,0,1,.6.8h.1v.2a.8.8,0,0,1-.2.6,1.8,1.8,0,0,1-.5.7,1.2,1.2,0,0,1-1,.4.9.9,0,0,1-.8-.8,1.1,1.1,0,0,1,.4-.9c0-.1.1-.2,0-.2h-.3a1.4,1.4,0,0,0-.4,1.1,1.2,1.2,0,0,0,.4.8l.2.2a3.2,3.2,0,0,0,0,2.2,2.2,2.2,0,0,0,.5.8h0a.6.6,0,0,0-.1.4,1.8,1.8,0,0,0,.5.8.1.1,0,0,0,.2,0,.2.2,0,0,0,0-.3c-.1,0-.3-.2-.3-.5h0l.3.2a2.9,2.9,0,0,0,1.8.5h.2l-.2-.2h0a2.8,2.8,0,0,1-2.6-1.6,3.3,3.3,0,0,1,0-2h.1a1.4,1.4,0,0,0,1.3-.5,1.6,1.6,0,0,0,.6-.8,1,1,0,0,0,.2-.9h0a2.8,2.8,0,0,1,2.1.9A3.2,3.2,0,0,1,123.5,104.1Z" fill="#fff100"/>
          </g>
        </g>
      </g>
      <path d="M32.3,159.2c0-.2-.1-.3-.2-.3s-.3-.2-.3-.4v-2.8a.8.8,0,0,0-.1-.4c0-.2-.4-.4-.5-.1s-.3.1-.5.1l-6.7-3-.3-.3a.4.4,0,0,0-.4-.4.6.6,0,0,0-.6.3l-.4.4-2.1.9-4.5,2.1c-.2.1-.3.1-.4-.1s-.3-.2-.5,0-.1.2-.1.4v2.9c0,.2,0,.3-.2.4s-.3.1-.3.4v3.3c0,.6,0,.6.5.7L22,165a5.4,5.4,0,0,0,2.2,0l7.7-1.8c.2,0,.4-.1.4-.3ZM25,153.3c.1-.2.2,0,.3,0l3.6,1.5,1.1.4.3.3c0,.3-.2.2-.3.1l-2-.8-2.6-1.1h-.3C25,153.6,25,153.4,25,153.3Zm.1.8h.2l4.7,1.7h.2a.2.2,0,0,1,0,.3H30l-4.8-1.8c-.2,0-.2-.1-.2-.3Zm5.1,2.9H30l-2.5-.8-2.2-.8a.3.3,0,0,1-.3-.3h.3l4.6,1.6h.2C30.3,156.7,30.3,156.8,30.2,157ZM25,155.9c.1-.2.2-.1.3,0l2.9.8,1.8.6a.3.3,0,0,1,.3.3c0,.1-.1.2-.2.1l-2.2-.6-2.6-.8c-.1,0-.1,0-.1-.1S25,156,25,155.9Zm-.9.5,6.7,1.8c.2,0,.3.1.2.3s-.2.1-.3.1l-6.6-1.5c-.2-.1-.4-.2-.3-.4S23.8,156.3,24.1,156.4Zm-1-3.5a19.3,19.3,0,0,1,0,3.4V154A4.1,4.1,0,0,1,23.1,152.9Zm-6.8,2.4h.2l4.6-1.9c.1,0,.3-.2.3,0s0,.3-.1.4l-4.9,2h-.2A.4.4,0,0,1,16.3,155.3Zm0,.7h.2l4.6-1.7c.1-.1.3-.2.4,0a.3.3,0,0,1-.3.3l-1.8.7-2.9,1.1h-.3A.4.4,0,0,1,16.3,156Zm5.2-.9a.3.3,0,0,1-.3.3l-2.4.8-2.2.8c-.2,0-.3.2-.4-.1s.1-.2.3-.3l2.9-1,1.8-.6C21.3,155,21.4,154.9,21.5,155.1Zm-5.2,2.2h.3l4.5-1.3c.2-.1.4-.2.4.1s-.2.2-.3.3l-3.7,1.1-1.1.3s-.2.1-.2-.1A.4.4,0,0,1,16.3,157.3Zm-.7.9,2.6-.7,4.1-1.1c.2,0,.4,0,.3.3s0,.3-.2.3l-6.7,1.6h-.3C15.4,158.3,15.5,158.2,15.6,158.2Zm16.3,4.3c0,.2,0,.3-.2.3l-3.7.9-3.4.8-1.2.2c-.4.1-.7-.1-1.1-.2l-2.6-.5-4-.9-.9-.3c-.2,0-.2-.1-.2-.3v-2.9c0-.2,0-.3.3-.4l5-1.1,3-.7h.7l3.1.7,4.1.9H31c.9.1.9.1.9,1Z" fill="#fff"/>
      <rect x="14.2" y="187.4" width="3.1" height="12" fill="#ec1c24"/>
      <rect x="14.2" y="218.5" width="3.1" height="12" fill="#ec1c24"/>
      <rect x="14.2" y="285.5" width="3.1" height="12" fill="#ec1c24"/>
      <rect x="14.2" y="312.5" width="3.1" height="12" fill="#ec1c24"/>
      <rect x="183.3" y="281.7" width="97.9" height="17.35" rx="8.7" fill="#ec1c24"/>
    </g>
  </g>
</svg>
