<svg id="ba8e3296-345a-4817-8b3d-faf11d404f0f" data-name="Layer 1" xmlns="http://www.w3.org/2000/svg" xmlns:xlink="http://www.w3.org/1999/xlink" width="335" height="335" viewBox="0 0 335 335">
  <defs>
    <clipPath id="b82ba57e-48e6-4ce4-86b6-56b8c1d9cded">
      <rect width="335" height="335" fill="none"/>
    </clipPath>
    <linearGradient id="ae43026b-742f-4b9b-8e79-ec7230144e35" y1="167.5" x2="335" y2="167.5" gradientUnits="userSpaceOnUse">
      <stop offset="0" stop-color="#1b1464"/>
      <stop offset="0.17" stop-color="#1f1568"/>
      <stop offset="0.35" stop-color="#2c1974"/>
      <stop offset="0.53" stop-color="#401f87"/>
      <stop offset="0.71" stop-color="#5d27a3"/>
      <stop offset="0.89" stop-color="#8232c6"/>
      <stop offset="1" stop-color="#9d3adf"/>
    </linearGradient>
  </defs>
  <g>
    <g clip-path="url(#b82ba57e-48e6-4ce4-86b6-56b8c1d9cded)">
      <rect width="335" height="335" fill="url(#ae43026b-742f-4b9b-8e79-ec7230144e35)"/>
      <g opacity="0.05">
        <path d="M146.3,31.1a18.8,18.8,0,0,1,1.8-6.6,3.5,3.5,0,0,1,1.9-1.7,6,6,0,0,0,2.3-1.9,4.4,4.4,0,0,1,3.5-1,16.7,16.7,0,0,0,5,.1,5,5,0,0,1,4.5,1.8,14.9,14.9,0,0,1,2.8,4.1,6.8,6.8,0,0,0,1.4,2.3c2,3,3.7,6.3,6.7,8.5a2.5,2.5,0,0,1,1.3,2.3c0,.8.6,1.1,1.3,1.1s1.4.4,1.5,1.3a3.5,3.5,0,0,0,3.1,2.6c4.5.7,9,.5,13.6.6a8.4,8.4,0,0,1,4.6,1.3l.5.2c4.5.7,8.5,2.8,12.5,4.9a10.3,10.3,0,0,0,5.4,1.3h8.4c4.2,0,8.4.6,12.5.5s5.3,1,7.8,2.4a14.9,14.9,0,0,0,6.6,2.3,5.4,5.4,0,0,0,3.3-.8c1-.5.8-1.6.3-2.4s-1.5-3.2-2.8-4.5-.7-1.2.1-2a3.4,3.4,0,0,0,.3-3.5c-1.7-4.1-1.2-8.5-1.9-12.8-.4-2.6,2.4-6.1,5.1-7a8.9,8.9,0,0,0,2.5-1.4c1.6-1.2,3.5-1.6,5.2-2.6a3.9,3.9,0,0,1,2.8-.5,36.4,36.4,0,0,0,6.6.1c2.9-.1,5.2,1.1,7.4,2.7a6.2,6.2,0,0,0,4.8,1.8,2.1,2.1,0,0,1,2.4,1.5,4.4,4.4,0,0,0,.6,1c2.1,1.6,1.8,4,1.7,6.2a8.3,8.3,0,0,0,.1,2.2,3.7,3.7,0,0,1-.3,2.5,18.6,18.6,0,0,0-1.9,5.3,2.2,2.2,0,0,1-1.3,1.5l-.8.2c-1.9,2.1-4,4-4.6,7s.1,4.6-.2,6.9c-.1.6.2,1.3.8,1.3s3.2,1.6,4.8,2.3c3.4,1.7,6.8,3.6,10.1,5.6,1.5.9,3.5,1.4,5.1,2.2,3.1,1.6,6.2,3,7.4,7.1.6,2.2.8,4.5,1.8,6.6.1.1.2.2.1.3-.2,2.3.8,4.6.8,6.9a9.4,9.4,0,0,0,.6,4.7,3.1,3.1,0,0,1,.3,1.3c0,1.5,0,2.9,1.4,4s1.1,2.3,1.4,3.5c.9,3.3,2.8,6.5,2.6,10-.1,1.9.1,3.8,0,5.7a4.1,4.1,0,0,0,.4,1.9,3.7,3.7,0,0,1-2,4.6l-1.5.9c-2.3.9-4,1.1-5.9-1s-2.8-2.5-4-3.9a38.3,38.3,0,0,1-3.3-4.6c-2.2-3.4-4.7-6.6-6-10.5-.7-2.1-2.1-3.9-3-6a2.8,2.8,0,0,0-4.6-.5,2.1,2.1,0,0,1-1.6.7,3.4,3.4,0,0,0-3.5,2.6c-.5,1.3-1.6,1.8-2.4,2.7s-2.9,4.4-5.6,5.7-3.6,1.2-4.7,2.7-5.2,2.8-7.7,4.4-3.4,2-4.9,3.3-4.3,2.4-6.4,3.6-3.9,1.1-5.7,2.1a1.8,1.8,0,0,0-.8,2.5,2.8,2.8,0,0,1,.5,2.1,35.6,35.6,0,0,0-.9,10.3,9.1,9.1,0,0,1-1.6,5.5,7,7,0,0,0-1.1,2.3,9.6,9.6,0,0,1-5.4,6.1,9.2,9.2,0,0,0-2.7,3.1c-1.9,2.7-1.2,5.6-1.3,8.4s-.2,2.7-2.1,2.9-1.1.9-1.1,1.8c0,3.2-.1,6.5,0,9.7a102.5,102.5,0,0,0,1.5,16.6,15.1,15.1,0,0,1,.1,3c0,1.5.4,3,.4,4.4s.8,4.5-.2,6.7a1.2,1.2,0,0,0-.2.8c.1,4.3-1.6,8.5-1.6,12.8v10a6,6,0,0,1-.5,2.6,9.8,9.8,0,0,0-.6,3.8c.1,3,.7,6.1-.4,9a4.9,4.9,0,0,0-.1,2.1,27.9,27.9,0,0,1-.8,8.1c-.4,1.9,0,3.9-.1,5.8a51.3,51.3,0,0,0,.2,9.6,3,3,0,0,0,.8,1.8,4.8,4.8,0,0,1,.9,1.9,71.9,71.9,0,0,1,1.5,9.1c.6,3.8,1.1,7.5,1.5,11.3a6.9,6.9,0,0,0,4.4,6.1c1.4.5,2.3,1.7,3.4,2.6a.9.9,0,0,1-.4,1.6,8.3,8.3,0,0,0-3,1.4,2.7,2.7,0,0,1-3.2-.4,21.4,21.4,0,0,1-4.9-5.9,35.9,35.9,0,0,0-3.8-4c-1.6-1.7-3.3-3.4-4.8-5.2a82.2,82.2,0,0,0-6.2-6.9,11.3,11.3,0,0,0-3.5-2.1c-3-1-3.6-3.5-2.4-6.4s3.3-4.5,5.8-6c.2-.1.5-.3.5-.5,1.1-3.3,2.4-6.6,1.7-10.2a13,13,0,0,0-.8-3.4,11.1,11.1,0,0,1-.7-5.4,5,5,0,0,0-1.4-3.5,7.7,7.7,0,0,1-2.2-4.6,63.7,63.7,0,0,1-.9-13.1,21.9,21.9,0,0,0-.3-5.1c-.5-2.2.6-4.3,1.1-6.3a22.6,22.6,0,0,0,.8-5.1c0-1.7,1.2-2.7,2.1-3.9a2.9,2.9,0,0,0,.5-3.4c-1.5-3.6-2.4-7.5-4.6-10.8-1.1-1.5-1.5-3.4-2.2-5.1s-2-2.9-2.4-4.6-2.4-5.5-3.1-8.5-1.7-3.9-2.3-6a8.3,8.3,0,0,1-.4-3.1c.3-2.6-.9-4.3-2.9-5.6a2.8,2.8,0,0,1-1.3-2.6c.3-4.8-2.5-7.4-7-8.2a9.3,9.3,0,0,1-3.2-1.8c-2.1-1.6-4.2-3.1-6.3-4.4a3.8,3.8,0,0,1-1.6-2.4c-.2-1,.2-2.1,1.4-2s2.3-1.2,3.3-1.9.2-.9-.3-1.1a2.6,2.6,0,0,0-2.3-.2c-2.1.5-4-.4-6-.8s-3.6-2.8-4.1-5.1c-.1-.3,0-.7-.2-.9s-1.3-3.2-1.4-4.9a5.6,5.6,0,0,0-1-2.8,1.5,1.5,0,0,0-1.5-.9c-1.2.3-1.9-.3-2.8-.8a30.4,30.4,0,0,0-5.2-2.3,37.1,37.1,0,0,1-8.9-3.9,7.4,7.4,0,0,1-3.6-5.7c-.4-3-1.6-5.7-2.3-8.5s-1.4-5.1-1.8-7.7a18.3,18.3,0,0,1,.4-5.2c.2-1.2,1.4-1.1,2.3-.7A33.4,33.4,0,0,0,158,97.3a19.6,19.6,0,0,1,6.7,1.1,2.7,2.7,0,0,0,3.1-1.2,3.5,3.5,0,0,1,3.1-1.6c4.7-.2,9.3.6,14,.8,2.8.1,5.7.5,8.6,0l5.5-.7a26.4,26.4,0,0,0,3-1c3.2-1,5.8.6,8.5,1.9a10.1,10.1,0,0,0,6.4.9,2.4,2.4,0,0,0,2.2-2c.4-1.5,2-1.5,2.9-2.5s2.7-2.9,4-4.3,1.6-2.2,3-2.7.7-.9.9-1.5a5.9,5.9,0,0,1,.5-1.9,19.6,19.6,0,0,0,2.7-9c.1-1.3,1-2.2,1-3.5s-.7-2.2-2.1-2.3a2.7,2.7,0,0,1-2.2-1,1.8,1.8,0,0,0-2-.5,2.9,2.9,0,0,1-3-.5,7.7,7.7,0,0,0-2.9-1,63.7,63.7,0,0,1-7.5-2c-2.3-.8-4.7-1.2-6.8-2.5a3.9,3.9,0,0,0-1.6-.2,7.2,7.2,0,0,1-5.1-1.2c-.6-.6-1.5-.4-2.3-.4a23.7,23.7,0,0,1-5.8-1.1c-2.9-.9-5.4-2.7-8.3-3.5a7.1,7.1,0,0,1-3-2.2,7.7,7.7,0,0,0-8.7-1.7c-2,.8-2.9.1-4.6-1.1s-4.2-4.2-6.6-5.9-3-1-4.2-1.8-4.9-.8-7.1-2.3S146.3,35.7,146.3,31.1Z" fill="#fff"/>
        <path d="M164.5,147.3c2.5.1,4.8-1.1,7.2-.7.8.1,1.8-.1,2.1.7a1.9,1.9,0,0,1-.8,2.1,53.8,53.8,0,0,0-5.9,4.8c-.7.8-2.1,1.1-3,1.9s-3.2,2.5-4.7,3.8-2.2,2.3-3.8,2.6-4.9,1.3-7.3-.5a2.3,2.3,0,0,1-1.2-2.6,10.8,10.8,0,0,0,0-4,5.3,5.3,0,0,1,0-2.5,7.3,7.3,0,0,0-1.6-6.5A15.8,15.8,0,0,1,144,144c-1.1-2.3-3.2-3.8-4.5-5.9-4.3-6.8-10.3-12.1-14.8-18.7a14.8,14.8,0,0,0-3.4-3.2,4,4,0,0,0-5.1,1.1,11,11,0,0,1-3,2.7,13.4,13.4,0,0,0-4.2,5c-.5.8-.8,1.7-2,1.8a1.1,1.1,0,0,0-.7.8c-1,2.8-3.4,4.4-5.3,6.4s-4,3.7-5,6.2-2.5,6-3.6,9.1-1.9,3.8-2.3,6a9.2,9.2,0,0,0-.2,3.3c.7,3.5,0,4.7-2.9,6.9-1.2.8-2.5,1.6-3,3.3a17.6,17.6,0,0,1-4,6.7c-.9,1.1-1.6,1.9-.9,3.4s0,2.2-.1,3.3c0,2.8-.3,5.7.2,8.5a6,6,0,0,1,.1,2.3c-.5,2.5,0,5,.2,7.5a4.7,4.7,0,0,1-.2,1.7,4.1,4.1,0,0,0,.1,3.1,1.6,1.6,0,0,1,.1,1.5c-.6,1.1-.3,2.4-.6,3.4s-.2,4.1-.5,6.1.4,2.2.1,3.5a7.5,7.5,0,0,1-1.9,3.5c-.4.4-1,.8-1.2,1.3-1.4,4-4.9,6.4-7,9.9s-4.8,5.9-6.1,9.5a16,16,0,0,1-4.4,6.2c-.3.4-.7.8-.6,1.4a4.3,4.3,0,0,1-1.3,3.6,7.2,7.2,0,0,0-1.7,3.5,4.9,4.9,0,0,1-1.1,2.3c-1.5,2-2.2,4.5-4,6.3a4.3,4.3,0,0,0-.4.7c-.9,3.4-3.6,5.9-4.9,9.1-.5.9-1.6,1-2,2a17.8,17.8,0,0,0-1.5,7.6c.1,4.6,0,9.3,0,13.9,0,3-.1,6,1.6,8.6.5.8-.1,1.1-.7,1.2-2.5.5-4.9.1-7.4.3s-2.1-1.2-3-2c-2.5-2.1-4.8-4.5-5.2-8.1a3.1,3.1,0,0,0-.9-1.8,8.4,8.4,0,0,1-1.6-3.3,2.8,2.8,0,0,0-1.3-1.9,3.6,3.6,0,0,1-1.5-2.7c-.5-3.6,1.2-6,3.9-8.3s4.2-3.6,4.8-6.5a3.6,3.6,0,0,1,.7-1.8c2.9-2.8,3.6-6.3,3.7-10.1a1.2,1.2,0,0,1,.2-.8c2-3.8,2.3-8.1,3.2-12.3a17.3,17.3,0,0,1,1.5-4.2c.8-1.7,1.2-3.5,2.3-5.1s.9-2.7,1.5-3.9,2.4-5.3,4.4-7.4a10.9,10.9,0,0,0,1.3-1.7c.6-1.6,2.4-1.9,3.2-3.3s4-4.5,4.1-7.8-.1-4.7,0-7-.9-6.6-1.4-9.9-.7-5.5-1.2-8.3-.9-4.1-.4-6.2a3.1,3.1,0,0,0-.4-1.9,5.3,5.3,0,0,1-.5-1.8,3.2,3.2,0,0,0-2.1-3.6c-1.4-.7-2.3-2.3-3.3-3.6s-1.2-2.8-2.1-3.7a12.6,12.6,0,0,1-2.2-3.1,9.3,9.3,0,0,1-.9-4c-.1-2.5-1.7-4.5-2.7-6.7s-2.6-6.7-4.1-9.9-1.6-4.3-.3-6.7,1.2-4.3-.2-5.9-1.7-3.4-3.4-4.5-.8-1.4-1.2-2c-3.4-5-6.1-10.3-9.3-15.3s-4.7-11.1-6-16.9c-.4-2-.1-4.1-.4-6.2a38.2,38.2,0,0,1-.6-6.8,92.4,92.4,0,0,1,.7-10.4c.4-3.2,2.6-5.5,3.5-8.4a4.9,4.9,0,0,1,1.7-1.8,17.2,17.2,0,0,0,4.5-4.8c.7-1.4,2.4-1.5,3.4-2.7s4.1-3,6.2-4.5a10.1,10.1,0,0,1,3-1.3c2.4-1.1,4.8-2.4,7.6-2.7a3.5,3.5,0,0,0,1.6-.6A20.8,20.8,0,0,0,53.5,37c.2-.3.3-.7.5-.8,3-1.5,4.1-4.9,6.6-6.9a30.4,30.4,0,0,1,5.3-3.5,6.3,6.3,0,0,1,5.2-.1,3.1,3.1,0,0,0,1.9.4,5.9,5.9,0,0,1,4.2,1.2l.7.3c3.2-.7,4.5,2.3,6.3,3.7A35.3,35.3,0,0,1,91,39.8a12,12,0,0,1,1.8,2.6,3.8,3.8,0,0,1-.5,4.2A73.7,73.7,0,0,1,84.1,56a7.7,7.7,0,0,1-6,2.5,2.1,2.1,0,0,0-1.7,1.2c-1.3,2.1-3.3,3.8-4.4,6.2a3.6,3.6,0,0,0,.1,3.6c.9,1,2.1,1.7,3.6.9a9.6,9.6,0,0,1,2.8-1.1A4.6,4.6,0,0,0,81.3,67c1.3-2.4,2.8-4.8,4.2-7.1,0-.1.1-.2.1-.3,2-1.3,2.3-3.9,3.9-5.3s3.5-5.6,5.7-8,1.5-2.9,1.9-4.7c.8-3.5-.4-6.6-.7-9.9s1.8-5.6,4.6-5.6a7.7,7.7,0,0,0,3-.6c2-.8,4-.3,6,.2a4.3,4.3,0,0,0,1.4.4c2.3-.5,4.1.8,5.9,1.7a2.4,2.4,0,0,1,.9,3.3,6.9,6.9,0,0,1-2,2.8c-2.1,1.4-2.8,3.8-4.2,5.8s-2,4.1-3,6.1a6.8,6.8,0,0,0-.5,2.9c-.1,2.2-.9,4.4-1.1,6.6s-.7,1.2-1.3,1.5c-2.7,1.4-3.6,3.7-3.8,6.5a25.7,25.7,0,0,1-.8,4,45.4,45.4,0,0,1-4.1,9.3A36.5,36.5,0,0,0,94.6,83c-.7,2.2-1.3,2.9-3.7,2.9a23,23,0,0,0-5.8,1.2,4.7,4.7,0,0,1-3.3-.2,3.2,3.2,0,0,0-3,.3,36.1,36.1,0,0,0-7.2,4.5c-1.7,1.5-3.3,3.2-5.2,4.6a5.6,5.6,0,0,0-2.3,3.7c-.4,1.4.2,2.6.5,3.8a35.3,35.3,0,0,0,2.5,5.6,13.5,13.5,0,0,0,2.9,3.5l.7.8c2.2,2.3,2.2,2.4,4.4.3a10.8,10.8,0,0,0,2.6-3,3.9,3.9,0,0,1,4.6-1.9,1.8,1.8,0,0,0,2.3-.8,5.8,5.8,0,0,1,2.5-2.1c1.6-.6,2.3-2.4,3.7-3.4s.5-.4.8-.6c4.2-2.1,7.2-5.9,11-8.6l1.8-1.2c1.4-.9,2.9-1.5,4.1-2.9a25.3,25.3,0,0,1,5.1-4.2c2.4-1.7,4.8-3.7,7.7-4.5a10.9,10.9,0,0,1,8.4,1.4,1.5,1.5,0,0,1,.5.6,3.1,3.1,0,0,0,2.6,2.2c1.2.2,1.7,1.4,1.9,2.5s1.7,3,2.5,4.6,2.9,4.6,2.2,7.5c-.2.7-.1,1.4.3,1.6s1,1.7,1.3,2.6c1,3.6,1.4,7.3,2.9,10.8a7.4,7.4,0,0,1,.5,3.2c-.1,2.4,1.5,4.3,1.5,6.5a2.6,2.6,0,0,0,.7,1.4,23.2,23.2,0,0,1,3.4,4.8,27.2,27.2,0,0,1,2.7,6.3c.9,2.6,2.5,4.9,3.8,7.3s4.2,2.7,6.7,3.1Z" fill="#fff"/>
        <path d="M99.4,91a3,3,0,0,1-3.3-1.5c-.6-1.2,0-3.5,1-4.5a4.9,4.9,0,0,0,1.2-3c.5-1.9,1.2-2.7,3.3-1.9a51.2,51.2,0,0,0,5.6,1.5h.4c2.3.7,3,2.9,1.2,4.5a8.2,8.2,0,0,1-3.6,2.4,5.4,5.4,0,0,0-2.2,1.3C101.9,90.6,100.8,91.3,99.4,91Z" fill="#fff"/>
      </g>
      <polygon points="335 335 0 335 0 243.5 335 280 335 335" fill="#fff"/>
      <g>
        <g>
          <g>
            <path d="M36.9,18.3a1.2,1.2,0,0,1-.5,1l-4.9,5-5.2-3.1v-3a1.5,1.5,0,0,1,1.5-1.5,1.6,1.6,0,0,1,1.6,1.5h0V22l4.8-4.9a1.6,1.6,0,0,1,2.2,0,1.7,1.7,0,0,1,.5,1.2" fill="#fff"/>
            <path d="M35.3,32.5h-.6l-.5-.4-4.8-4.8v3.7a1.6,1.6,0,0,1-1.6,1.6,1.6,1.6,0,0,1-1.5-1.6V28l5.2-3.1,4.9,4.9a1.6,1.6,0,0,1-1.1,2.7" fill="#fff"/>
            <path d="M31.3,24.5a.2.2,0,0,0-.2-.2h0l-1.3-.8-3.5-2-3-1.8a.4.4,0,0,0-.5.2.1.1,0,0,0-.1.1v9.1a.4.4,0,0,0,.4.4h.2l3-1.7,4.8-2.8h.1v-.2h0Zm-1.2.2H30L26.2,27l-2.3,1.4h-.4V21.1c0-.2.1-.3.2-.3h.2l2.3,1.4L30,24.4c.1,0,.1.1.1.3Z" fill="#fff"/>
            <path d="M29,24.6v.2l-2.8,1.6-1.7,1a.2.2,0,0,1-.3-.1.1.1,0,0,1-.1-.1V21.9c0-.1.1-.2.3-.2h.1l1.7,1,2.8,1.6a.1.1,0,0,1,.1.1c.1.1.1.1,0,.1" fill="#fff"/>
          </g>
          <g>
            <path d="M62.6,24.4l-.2-.2-4.3-2.1-2.7-1.4c-.2-.1-.5,0-.4.3v7.2c0,.2.3.3.5.2L58.2,27l4.2-2.3h.2Zm-1.1.1c0,.1,0,.1-.1.2l-3.3,1.7L56,27.5a.2.2,0,0,1-.3-.1V21.8a.3.3,0,0,1,.3-.3.1.1,0,0,0,.1.1l2,1,3.4,1.7h.1Z" fill="#fff"/>
            <path d="M60.6,24.5a.1.1,0,0,1-.1.1L58,26l-1.5.8h-.3V22.4h.3l1.6.8,2.5,1.3h.1" fill="#fff"/>
            <path d="M40,20.8h3.8c1.8,0,3.2,1,3.2,2.5s-1.3,2.5-3.1,2.6h-2v2.4H40.1Zm3.7,3.6c.9,0,1.5-.5,1.4-1.1s-.6-1.1-1.5-1H41.9v2.1Z" fill="#fff"/>
            <path d="M54.1,26.9v1.5h-6V20.9h1.8V27Z" fill="#fff"/>
            <path d="M64.5,25.5l-3.3-4.7h2.1L65.4,24l2.1-3.3h2l-3.2,4.8v2.7H64.5Z" fill="#fff"/>
            <path d="M70.7,21.2h1v4.1l4.2-4.2h1.3l-3.5,3.5,3.8,4H76.2L73,25.1l-1.3,1.3v2.3h-1Z" fill="#fff"/>
            <path d="M77.9,24.8a4.2,4.2,0,0,1,4.3-3.9,4.1,4.1,0,0,1,4.3,3.8,4.3,4.3,0,0,1-8.6.1Zm7.6-.1a3.2,3.2,0,0,0-3.3-3,3.3,3.3,0,0,0-3.3,3.1,3.3,3.3,0,0,0,3.4,3.1,3.2,3.2,0,0,0,3.2-3.2Z" fill="#fff"/>
            <path d="M87.7,27.5l.6-.7a3.8,3.8,0,0,0,2.8,1.1c1.3,0,1.9-.7,1.9-1.3s-.8-1.1-2.3-1.4S88,24.4,88,23.1a2.4,2.4,0,0,1,2.7-2.2,5.1,5.1,0,0,1,3,1l-.6.7a3.6,3.6,0,0,0-2.4-.9c-1,0-1.8.6-1.8,1.3s.9,1,2.3,1.3,2.8.9,2.8,2.2-1,2.1-3,2.2A4.8,4.8,0,0,1,87.7,27.5Z" fill="#fff"/>
            <path d="M95.7,21.2h1l3.1,5.2,3.1-5.3h.9v7.5H103V22.9l-3,5.3L96.7,23v5.7h-1Z" fill="#fff"/>
            <path d="M105.6,24.8a4.2,4.2,0,0,1,4.3-3.9,4.1,4.1,0,0,1,4.3,3.8,4.3,4.3,0,0,1-4.2,4A4.4,4.4,0,0,1,105.6,24.8Zm7.7-.1a3.4,3.4,0,0,0-3.4-3,3.3,3.3,0,0,0-3.3,3.1,3.4,3.4,0,0,0,6.7-.1Z" fill="#fff"/>
            <path d="M115.4,27.5l.6-.7a3.8,3.8,0,0,0,2.8,1.1c1.3,0,1.9-.7,1.9-1.3s-.8-1.1-2.3-1.4-2.7-.8-2.7-2.1,1.1-2.2,2.8-2.2a5.1,5.1,0,0,1,2.9,1l-.6.7a3.6,3.6,0,0,0-2.4-.9c-1,0-1.8.6-1.8,1.3s.9,1,2.3,1.3,2.8.9,2.8,2.2-1,2.1-3,2.2A4.8,4.8,0,0,1,115.4,27.5Z" fill="#fff"/>
          </g>
        </g>
        <g>
          <polygon points="322.4 156.2 320.2 152.8 318 156.2 322.4 156.2" fill="#ff0"/>
          <polygon points="322.4 174 320.2 170.6 318 174 322.4 174" fill="#ff0"/>
          <polygon points="322.4 114.3 320.2 110.9 318 114.3 322.4 114.3" fill="#ff0"/>
          <polygon points="322.4 132.1 320.2 128.7 318 132.1 322.4 132.1" fill="#ff0"/>
          <polygon points="322.4 139.7 320.2 136.2 318 139.7 322.4 139.7" fill="#ff0"/>
        </g>
        <g>
          <rect x="7.9" y="30.8" width="4.4" height="4.44" fill="#ff0"/>
          <path d="M12.5,42.3v4.8H7.8V42.3Zm-.3,4.5V42.7H8.1v4.1Z" fill="#ff0"/>
        </g>
        <g>
          <polygon points="11.9 190.8 10.2 188.1 8.4 190.8 11.9 190.8" fill="#ff0"/>
          <polygon points="11.9 205 10.2 202.3 8.4 205 11.9 205" fill="#ff0"/>
          <polygon points="11.9 157.4 10.2 154.6 8.4 157.4 11.9 157.4" fill="#ff0"/>
          <polygon points="11.9 171.6 10.2 168.8 8.4 171.6 11.9 171.6" fill="#ff0"/>
          <polygon points="11.9 177.6 10.2 174.9 8.4 177.6 11.9 177.6" fill="#ff0"/>
        </g>
        <g>
          <path d="M239.1,298.5c.6.8,2,1.9,6.7,3.4s14.7,6.4,17.3,7.8,10.4,7.9,10.9,9.1a4.8,4.8,0,0,0,2.1,2.3c.5.3,5.9,5.9,6,6.4a1.9,1.9,0,0,0,1.3,1.6.9.9,0,0,0,1.2-.3l.5-.9a1.9,1.9,0,0,0,.5-1.1,1.8,1.8,0,0,0,.1-1.6c.4-.2.2-1.6,0-1.8s-.5-1-.5-1a.7.7,0,0,0,.3-.5,2.6,2.6,0,0,0-.2-1.5,6.8,6.8,0,0,1-.6-2.1,4.2,4.2,0,0,0-2.3-2.7,5.6,5.6,0,0,1-1.9-2.2,6.6,6.6,0,0,0,2.1,1.9,4.3,4.3,0,0,1,2.3,2.6,10.2,10.2,0,0,0,.8,2.6,2.2,2.2,0,0,1-.2,2c.4.1.4.9.4.9a1.3,1.3,0,0,1,.1,1.8,1.5,1.5,0,0,1-.1,1.7,1.2,1.2,0,0,1-.4,1.3,1.6,1.6,0,0,1-.8.6c1.6,7.8,3.9,10.5,4.7,11.4a3,3,0,0,1,.9,1.6c.7,6.7,2.5,7.5,3.7,9.8s2.7,9.8,2.5,11.5a4.8,4.8,0,0,0,.7,3.3,10.2,10.2,0,0,1,0,2.5c-.3.7.2,4.6-.2,5.5s-1,6.7-.2,7.3a1.1,1.1,0,0,0,1.4.1,1,1,0,0,0,1.8,0c.9.7,1.4-.5,1.4-.5a1.8,1.8,0,0,0,1.6-1.2c.9-.2.7-1.7.9-1.6s1-1.4.6-2.1-.6-3.1-1-4-.6-4.9-.5-6.4-.1-.5-.8-2.8a102.5,102.5,0,0,1-1.7-15.4c-.2-4.8-2.5-9.7-4-11.3s-2.1-4.8-2.2-7-1-12.2-1.4-14.2-.4-3.3-1.2-3.9-1-2.7-1-3,.4-.6.5-1.3-.9-1.7-1-1.9,1.2-.8,1.2-1.2-1-3.2-.6-3.9,0-.9-.1-1.3.6-.5-.2-1.4a2.1,2.1,0,0,1-.5-1.9,19.8,19.8,0,0,1,2.6-6.4c2-3.1,2-5.4,3.3-7.7a28.2,28.2,0,0,0,2-5.1,14.4,14.4,0,0,0,2,1.1s.9,1.7,2.2,3.8a27.4,27.4,0,0,0,4.5,4.8l-.3.4a17,17,0,0,0-.1,3.1s2.1,3.9,2.5,4.3.7.2.7.2c.7,4,10.5,13.9,15.9,9.3s4.9-10.1,4.9-10.1a4.7,4.7,0,0,0-2-2.5c-1.7-1-4.8.4-4.8.4-2.7-2.6-7-3-7-3l-1-.9s1.5-.7,1.5-1-1.6-3.1-2.7-3h-2c-2-4.1-5.5-7.1-6.4-8.8a9.6,9.6,0,0,0-3.2-3.4,9.3,9.3,0,0,1-3.9-4.6c-.6-2.1-2.2-2-3.6-4.4a7.2,7.2,0,0,0-3.9-2.9,5.7,5.7,0,0,1-1.2-3.2,8.6,8.6,0,0,1,.9-3.3,4,4,0,0,0,.3-1.5c.1-4.3-2-6.2-3.1-7a9,9,0,0,0-5.8-2.3c-2.8,0-4.9,1.7-6.7,3.3s-1.4,3.1-1.2,4.3a2.8,2.8,0,0,0,1.6,1.7s-.1,2.1-.1,2.6.6,1.4.7,1.6-.2,1.3,0,2a39.5,39.5,0,0,0,2.6,4.4c.2.2.2,1.4.6,2s2.2.4,2.2.4-2.5,2.6-3.6,4a14.1,14.1,0,0,0-1.9,7.4,8.8,8.8,0,0,1-.1,3.4c-.4-.1-2.7-2.4-3-2.5a1.6,1.6,0,0,1-.3-1.7,4.7,4.7,0,0,0,.9-1.7,2.9,2.9,0,0,1,.3-1c1.3-4.9-.9-6.2-3.1-7s-4.3-.2-6.6,1.8-2.6,3.8-2.5,5.1,1.5,4,3.8,6.1a19.2,19.2,0,0,0,3.1,2.6s.8.5.7.6-.2.9,1.5,2.3,2.3,3.2,2,3.5-2,3.4-2.7,3.6a.7.7,0,0,0-.6.8.6.6,0,0,0-.6.4.6.6,0,0,0-.7.3,8.1,8.1,0,0,0-2.9-.2c-3.7-1.4-18.6-.7-21.7-.1a7.1,7.1,0,0,0-4.5,3.1,2.1,2.1,0,0,1-.4.6Zm26.3,4.9h0c1,.8,8.1,6,8.6,6.2s3,.2,3.6.7l1.5,1H279c-.5,0-1.8-.3-3.3-.3S266.3,304.2,265.4,303.4Z" fill="#ff0"/>
          <path d="M239.1,295.5v2.9l-.3-.3A4.1,4.1,0,0,1,239.1,295.5Z" fill="#ff0"/>
        </g>
      </g>
    </g>
    <g>
      <g>
        <path d="M304.8,141.3H30.2c-3.6,0-6.5-1.3-6.5-2.8v-7c0-1.5,2.9-2.7,6.5-2.7H304.8c3.6,0,6.5,1.2,6.5,2.7v7C311.3,140,308.4,141.3,304.8,141.3Z" fill="#ff0"/>
        <polygon points="171.2 134.6 169.3 136.4 169.8 138.9 167.5 137.7 165.2 138.9 165.7 136.4 163.8 134.6 166.4 134.3 167.5 132 168.6 134.3 171.2 134.6" fill="#1b1464"/>
      </g>
      <g>
        <g>
          <path d="M168.3,165.7l-.2.2-.2.2h-.1l-.3.3h.2v-.2h.1a2.1,2.1,0,0,1,.4-.6Z" fill="#ff0"/>
          <path d="M175.8,160.8a8.4,8.4,0,0,0-7.1-6.4h-1.8l-1.3.2a8.6,8.6,0,0,0-6.5,6.8c0,.3-.1.6-.1.8v1.3c.1.4.1.9.2,1.3a8.6,8.6,0,0,0,6.8,6.5h2.1l2.3-.5a8.6,8.6,0,0,0,5.5-6.6c0-.3.1-.6.1-.8v-1.3C175.9,161.7,175.9,161.3,175.8,160.8Zm-5.3,1.4-.3.5a.8.8,0,0,1-.2.4,2.1,2.1,0,0,1-.4.6,4.3,4.3,0,0,1-.4.7,6.1,6.1,0,0,0-.7,1v.2h1.4a.7.7,0,0,1-.4.6h-.3l-.6.2h-1.7a2.8,2.8,0,0,1-1.2-.4l-.4-.2v-.6h.6c.4-.2.6-.3.8-.1s.2.2.3.4h.1l.3.4h.2l-.5-.6h0l-.2-.2a24.3,24.3,0,0,1-1.4-2l-.8-1.3a3.2,3.2,0,0,1-.2-1.3v-.3a2.1,2.1,0,0,1,.4-1.1l.3-.5h.1l.4-.4a2.9,2.9,0,0,1,2.2-.6h.7l.9.4.4.4a1.8,1.8,0,0,1,.5.7,2.7,2.7,0,0,1,.3,1.2A2.1,2.1,0,0,1,170.5,162.2Z" fill="#ff0"/>
        </g>
        <path d="M167.5,162.5a1.1,1.1,0,0,1-1.1-1.1,1.1,1.1,0,0,1,1.1-1,1.1,1.1,0,0,1,1.1,1.1A1.1,1.1,0,0,1,167.5,162.5Z" fill="#ff0"/>
      </g>
      <polygon points="53.8 217.4 52.3 218.9 52.7 220.9 50.8 220 49 220.9 49.3 218.9 47.8 217.5 49.9 217.2 50.8 215.3 51.7 217.1 53.8 217.4" fill="#fff"/>
      <polygon points="86.4 236.1 84.9 237.5 85.2 239.6 83.4 238.6 81.6 239.6 81.9 237.6 80.4 236.1 82.5 235.8 83.4 233.9 84.3 235.8 86.4 236.1" fill="#fff"/>
      <g>
        <rect x="56.1" y="275.9" width="1.6" height="39.49" fill="#1b1464"/>
        <g>
          <path d="M159.6,288.8c0-.9-1.7-1.6-3.8-1.6H71.5c-2.1,0-3.8.7-3.8,1.6v8.6c0,.9,1.7,1.6,3.8,1.6h84.3c2.1,0,3.8-.7,3.8-1.6Z" fill="#1b1464"/>
          <g>
            <path d="M73.4,313.6l-1.7-1.9a1,1,0,0,0-1.6,0l-1.6,1.9a3.2,3.2,0,0,0-.8,2v3.9a1.2,1.2,0,0,0,1.2,1.2H73a1.2,1.2,0,0,0,1.2-1.2v-3.9A3.9,3.9,0,0,0,73.4,313.6Zm-2.5,1a1.2,1.2,0,0,1-1.2-1.2,1.2,1.2,0,0,1,1.2-1.3,1.3,1.3,0,0,1,1.3,1.3A1.2,1.2,0,0,1,70.9,314.6Z" fill="#1b1464"/>
            <rect x="72" y="309" width="0.4" height="4.64" rx="0.2" transform="translate(140.9 -0.8) rotate(25.5)" fill="#1b1464"/>
          </g>
        </g>
      </g>
    </g>
  </g>
</svg>
