<svg id="b0b03cf7-d5b6-4e8f-8ce6-70ed96b78959" data-name="e2e9a0ab-5d54-49f9-9995-74cb2835e927" xmlns="http://www.w3.org/2000/svg" xmlns:xlink="http://www.w3.org/1999/xlink" width="335" height="335" viewBox="0 0 335 335">
  <defs>
    <linearGradient id="bce6b03f-d4e2-4fc7-a02f-4e2c24e801a6" y1="168.5" x2="335" y2="168.5" gradientTransform="matrix(1, 0, 0, -1, 0, 336)" gradientUnits="userSpaceOnUse">
      <stop offset="0" stop-color="#0463ee"/>
      <stop offset="0.05" stop-color="#055dde"/>
      <stop offset="0.32" stop-color="#074095"/>
      <stop offset="0.55" stop-color="#092a5b"/>
      <stop offset="0.75" stop-color="#0b1a31"/>
      <stop offset="0.91" stop-color="#0c1017"/>
      <stop offset="1" stop-color="#0c0c0e"/>
    </linearGradient>
    <linearGradient id="be3cbe4d-87a2-4008-a5c5-d3e71a509734" y1="239.64" x2="335" y2="239.64" gradientTransform="matrix(1, 0, 0, -1, 0, 336)" gradientUnits="userSpaceOnUse">
      <stop offset="0" stop-color="#f6921e"/>
      <stop offset="1" stop-color="#fff100"/>
    </linearGradient>
    <linearGradient id="a3cfc489-4c1c-42b9-8b76-0e761ff4a94b" x1="-1014.46" y1="130.47" x2="-959.85" y2="130.47" gradientTransform="translate(-689.2 336) rotate(180)" xlink:href="#be3cbe4d-87a2-4008-a5c5-d3e71a509734"/>
    <linearGradient id="f0115c91-5f0f-43f1-82d5-cc68a898eb46" x1="-997.45" y1="112.47" x2="-997.45" y2="119.66" gradientTransform="translate(-689.2 336) rotate(180)" gradientUnits="userSpaceOnUse">
      <stop offset="0" stop-color="#f6921e"/>
      <stop offset="0.25" stop-color="#f6951d"/>
      <stop offset="0.45" stop-color="#f79f1a"/>
      <stop offset="0.62" stop-color="#f9af15"/>
      <stop offset="0.79" stop-color="#fbc70d"/>
      <stop offset="0.94" stop-color="#fee404"/>
      <stop offset="1" stop-color="#fff100"/>
    </linearGradient>
    <linearGradient id="a8bbaa6f-c900-429a-a34b-7c89cedb79be" x1="-1013.19" y1="108.59" x2="-997.64" y2="108.59" gradientTransform="translate(-689.2 336) rotate(180)" xlink:href="#be3cbe4d-87a2-4008-a5c5-d3e71a509734"/>
    <linearGradient id="a1f8e652-a3e6-42e7-9c35-994de3e9d067" x1="-981.39" y1="118" x2="-955.22" y2="118" gradientTransform="translate(-689.2 336) rotate(180)" xlink:href="#be3cbe4d-87a2-4008-a5c5-d3e71a509734"/>
    <linearGradient id="ad0d1d74-07ff-4d7f-8058-eea9f66eed58" x1="-982.15" y1="117.9" x2="-954.46" y2="117.9" gradientTransform="translate(-689.2 336) rotate(180)" gradientUnits="userSpaceOnUse">
      <stop offset="0" stop-color="#0c0c0e"/>
      <stop offset="0.12" stop-color="#0b192f"/>
      <stop offset="0.44" stop-color="#083880"/>
      <stop offset="0.71" stop-color="#064fbb"/>
      <stop offset="0.9" stop-color="#045ee0"/>
      <stop offset="1" stop-color="#0463ee"/>
    </linearGradient>
    <linearGradient id="e7cc7695-5369-47c5-ba74-05989eb3a9ea" x1="13.93" y1="94.4" x2="23.45" y2="94.4" xlink:href="#be3cbe4d-87a2-4008-a5c5-d3e71a509734"/>
    <linearGradient id="b40922e4-bdd5-4549-9ba2-24583f794883" x1="15.76" y1="97.05" x2="21.61" y2="97.05" xlink:href="#be3cbe4d-87a2-4008-a5c5-d3e71a509734"/>
    <linearGradient id="b2a08460-a656-44be-a4bc-d63b854f701c" x1="15.6" y1="97.1" x2="21.78" y2="97.1" gradientTransform="matrix(1, 0, 0, -1, 0, 336)" xlink:href="#ad0d1d74-07ff-4d7f-8058-eea9f66eed58"/>
    <linearGradient id="be106c55-e8e1-4686-908c-429d2b1e5f79" x1="17.1" y1="60.05" x2="18.19" y2="60.05" xlink:href="#be3cbe4d-87a2-4008-a5c5-d3e71a509734"/>
    <linearGradient id="a8199dcb-ef5e-4e05-b87c-bd7d5c5e0876" x1="17.2" y1="59.55" x2="17.99" y2="59.55" xlink:href="#be3cbe4d-87a2-4008-a5c5-d3e71a509734"/>
    <linearGradient id="a7a46b7c-b49e-4455-867c-86d2585c6d1a" x1="13.93" y1="61.05" x2="21.4" y2="61.05" xlink:href="#be3cbe4d-87a2-4008-a5c5-d3e71a509734"/>
    <linearGradient id="eb0262c3-3fb2-421d-9305-3110860e8e70" x1="21.07" y1="58.9" x2="21.74" y2="58.9" xlink:href="#be3cbe4d-87a2-4008-a5c5-d3e71a509734"/>
    <linearGradient id="beda134e-1f39-4165-a04d-fa7dc1a923a6" x1="21.66" y1="58.6" x2="22.1" y2="58.6" xlink:href="#be3cbe4d-87a2-4008-a5c5-d3e71a509734"/>
    <linearGradient id="ab3043b1-87ed-4691-b974-41886cf48ac5" x1="22.19" y1="58.55" x2="22.44" y2="58.55" xlink:href="#be3cbe4d-87a2-4008-a5c5-d3e71a509734"/>
    <linearGradient id="a78589d1-2856-4c12-bf19-4a5aad254bee" x1="22.57" y1="58.4" x2="22.89" y2="58.4" xlink:href="#be3cbe4d-87a2-4008-a5c5-d3e71a509734"/>
    <linearGradient id="ae7caeb3-feea-4976-b4fd-a2fd14bc8a63" x1="20.81" y1="62.7" x2="26.41" y2="62.7" xlink:href="#be3cbe4d-87a2-4008-a5c5-d3e71a509734"/>
    <linearGradient id="bf6879ed-7a91-4b98-a81c-b0a1bc0f2aff" x1="25.06" y1="58.45" x2="26.96" y2="58.45" xlink:href="#be3cbe4d-87a2-4008-a5c5-d3e71a509734"/>
    <linearGradient id="b6c0decb-9c86-4298-bbac-abf853295a6a" x1="25.52" y1="58.45" x2="27.49" y2="58.45" xlink:href="#be3cbe4d-87a2-4008-a5c5-d3e71a509734"/>
    <linearGradient id="be11f63f-ea99-4785-8d95-d8fcc13fe058" x1="25.94" y1="58.4" x2="28" y2="58.4" xlink:href="#be3cbe4d-87a2-4008-a5c5-d3e71a509734"/>
    <linearGradient id="e6c912bc-fbaa-4e5e-a018-2cc6ece0fb4f" x1="26.31" y1="58.35" x2="28.42" y2="58.35" xlink:href="#be3cbe4d-87a2-4008-a5c5-d3e71a509734"/>
    <linearGradient id="bf6d1828-1e38-4a4c-b348-0c365e11a36b" x1="26.71" y1="58.4" x2="28.73" y2="58.4" xlink:href="#be3cbe4d-87a2-4008-a5c5-d3e71a509734"/>
    <linearGradient id="a179815f-0e05-4334-aaac-117b1737f847" x1="27.07" y1="58.4" x2="29.06" y2="58.4" xlink:href="#be3cbe4d-87a2-4008-a5c5-d3e71a509734"/>
    <linearGradient id="b2b697e7-3c3e-4dfe-a796-44374aa06c9a" x1="27.06" y1="61.15" x2="31.01" y2="61.15" xlink:href="#be3cbe4d-87a2-4008-a5c5-d3e71a509734"/>
    <linearGradient id="b99ec113-23df-4d57-894b-b1c3863cdcf9" x1="29.47" y1="63.95" x2="30.58" y2="63.95" xlink:href="#be3cbe4d-87a2-4008-a5c5-d3e71a509734"/>
    <linearGradient id="aa3c9242-7203-496e-8768-7f39b863ef06" x1="29.51" y1="63.35" x2="30.42" y2="63.35" xlink:href="#be3cbe4d-87a2-4008-a5c5-d3e71a509734"/>
    <linearGradient id="f1c062a7-c240-4db0-952e-35ec69d9c8b4" x1="29.51" y1="62.8" x2="30.02" y2="62.8" xlink:href="#be3cbe4d-87a2-4008-a5c5-d3e71a509734"/>
    <linearGradient id="fa2f5b39-ac7f-4f32-bbb6-93d2840dce3b" x1="29.47" y1="62.35" x2="29.62" y2="62.35" xlink:href="#be3cbe4d-87a2-4008-a5c5-d3e71a509734"/>
    <linearGradient id="a246f7ab-aabb-488f-9eae-9fe9e80f607a" x1="16.5" y1="32.44" x2="30.8" y2="32.44" xlink:href="#be3cbe4d-87a2-4008-a5c5-d3e71a509734"/>
    <linearGradient id="e7c3c1c0-5074-4a39-96cb-4741f621c8d0" x1="16.41" y1="31.8" x2="18.69" y2="31.8" xlink:href="#be3cbe4d-87a2-4008-a5c5-d3e71a509734"/>
    <linearGradient id="e96acd3c-bc01-4824-9e82-c8ee342d9fe8" x1="244.2" y1="73.79" x2="325.3" y2="73.79" xlink:href="#be3cbe4d-87a2-4008-a5c5-d3e71a509734"/>
  </defs>
  <g>
    <g>
      <rect width="335" height="335" fill="url(#bce6b03f-d4e2-4fc7-a02f-4e2c24e801a6)"/>
      <rect y="39.3" width="335" height="114.13" fill="url(#be3cbe4d-87a2-4008-a5c5-d3e71a509734)"/>
      <rect y="152.4" width="329.7" height="6.65" fill="#fff"/>
      <g>
        <polygon points="264.9 0 200 64.9 308.3 173.3 335 146.6 335 0 264.9 0" fill="#ed1c28"/>
        <polygon points="308.3 181.2 335 154.5 335 146.6 308.3 173.3 200 64.9 264.9 0 257 0 192.1 64.9 308.3 181.2" fill="#fff"/>
      </g>
    </g>
    <g>
      <g>
        <path d="M31.3,15.6a1.2,1.2,0,0,1-.5,1L26.5,21l-4.7-2.7V15.6a1.4,1.4,0,0,1,1.4-1.4,1.3,1.3,0,0,1,1.3,1.3h0V19l4.4-4.4a1.5,1.5,0,0,1,2,0,1.8,1.8,0,0,1,.4,1" fill="#fff"/>
        <path d="M29.9,28.3h-.6l-.4-.3-4.4-4.3V27a1.3,1.3,0,0,1-1.2,1.4h-.1A1.4,1.4,0,0,1,21.8,27V24.3l4.7-2.7,4.3,4.3a1.3,1.3,0,0,1,0,2,1.5,1.5,0,0,1-.9.4" fill="#fff"/>
        <path d="M26.3,21.2l-.2-.2h0l-1.2-.7-3.1-1.8-2.7-1.6c-.2,0-.3,0-.4.2h-.1v8.1a.3.3,0,0,0,.3.3h.2L21.8,24l4.3-2.6h.2Zm-1.1.1v.2l-3.4,1.9-2.1,1.2c-.1.1-.2.1-.3-.1h0V18.1a.2.2,0,0,1,.2-.2h.1l2.1,1.2,3.4,2c.1,0,.1.1.1.2Z" fill="#fff"/>
        <path d="M24.3,21.3h-.1l-2.6,1.5-1.5.9h-.3V18.9a.2.2,0,0,1,.2-.2h.1l1.5,1,2.6,1.4h.1" fill="#fff"/>
      </g>
      <g>
        <path d="M54.2,21.1H54l-3.8-2-2.4-1.2c-.2-.1-.4,0-.4.2v6.5c0,.2.3.3.5.2l2.3-1.3,3.8-2c.1,0,.1-.1.2-.2Zm-1,.1c0,.1,0,.1-.1.1l-2.9,1.6-1.9,1c-.1.1-.3,0-.3-.2v-5c0-.1.1-.2.2-.1h.1l1.8.9,3,1.5c.1,0,.1,0,.1.1Z" fill="#fff"/>
        <path d="M52.4,21.2c0,.1,0,.1-.1.1l-2.2,1.2-1.4.7c-.1.1-.2.1-.2,0h0V19.4l.2-.2h.1l1.4.7,2.2,1.2h.1" fill="#fff"/>
        <path d="M34.1,17.9h3.3c1.7,0,2.9.9,2.9,2.2a2.5,2.5,0,0,1-2.7,2.3H35.7v2.2H34.2Zm3.2,3.2c.8,0,1.3-.4,1.3-1s-.5-.9-1.3-.9H35.7v1.9Z" fill="#fff"/>
        <path d="M46.6,23.3v1.3H41.3V18h1.6v5.4Z" fill="#fff"/>
        <path d="M55.9,22.1l-3-4.2h1.9l1.9,2.9,1.9-3h1.8l-2.9,4.3v2.4H55.9Z" fill="#fff"/>
        <path d="M61.4,18.2h.9v3.7l3.8-3.7h1.1l-3.1,3.1,3.4,3.5H66.4l-2.9-3.1-1.2,1.1v2h-.9Z" fill="#fff"/>
        <path d="M67.9,21.5a4,4,0,0,1,3.8-3.9,3.9,3.9,0,0,1,3.8,3.8,3.8,3.8,0,0,1-3.7,3.8A3.7,3.7,0,0,1,67.9,21.5Zm6.8-.1a3,3,0,0,0-3-3,3.1,3.1,0,0,0-3,3.1,3,3,0,0,0,3.1,3,3.1,3.1,0,0,0,2.9-3.1Z" fill="#fff"/>
        <path d="M76.6,23.9l.5-.6a3.8,3.8,0,0,0,2.5.9c1.1,0,1.7-.6,1.7-1.2s-.7-1-2-1.2-2.5-.7-2.5-1.9A2.3,2.3,0,0,1,79.3,18a4.1,4.1,0,0,1,2.6.9l-.5.6a3.2,3.2,0,0,0-2.1-.8c-1,0-1.6.6-1.6,1.2s.7.9,2,1.1,2.5.8,2.5,2-.9,1.9-2.6,1.9A4.7,4.7,0,0,1,76.6,23.9Z" fill="#fff"/>
        <path d="M83.7,18.2h.9l2.8,4.6,2.7-4.7H91v6.7h-.8v-5l-2.7,4.7-2.8-4.6v5h-.9Z" fill="#fff"/>
        <path d="M92.6,21.5a3.9,3.9,0,0,1,3.7-3.9,3.9,3.9,0,0,1,3.9,3.8,3.6,3.6,0,0,1-3.7,3.5h0A3.7,3.7,0,0,1,92.6,21.5Zm6.8-.1a2.8,2.8,0,0,0-3-2.7A2.7,2.7,0,0,0,93.2,21a2.7,2.7,0,0,0,2.3,3.2,1.7,1.7,0,0,0,1,0A2.9,2.9,0,0,0,99.4,21.4Z" fill="#fff"/>
        <path d="M101.3,23.9l.6-.6a3.6,3.6,0,0,0,2.4.9c1.2,0,1.7-.6,1.7-1.2s-.7-1-2-1.2-2.4-.7-2.5-1.9A2.3,2.3,0,0,1,104,18a4.4,4.4,0,0,1,2.7.9l-.6.6a3.2,3.2,0,0,0-2.1-.8,1.5,1.5,0,0,0-1.6,1.2c0,.7.8.9,2,1.1s2.5.8,2.5,2-.9,1.9-2.6,1.9A4.7,4.7,0,0,1,101.3,23.9Z" fill="#fff"/>
      </g>
    </g>
    <g>
      <path d="M325.1,218.8c.1-7.6.1-15.1.2-22.6a2.3,2.3,0,0,0-1.9-2.5,35.7,35.7,0,0,0-10.3-1.5c-11.5-.2-23-.8-34.5.4-7.9.7-7.9.7-7.9,8.5v6c1.3.6,2.3-.4,3.4-.8a12.6,12.6,0,0,1,16.4,7c.1.2.1.4.2.6s.5,2.8,2.2,3.2c4,.4,8.1.2,12.1.2a74.8,74.8,0,0,1,17,1.6C323.1,219.1,324.1,219.5,325.1,218.8Z" fill="url(#a3cfc489-4c1c-42b9-8b76-0e761ff4a94b)"/>
      <path d="M292.3,216.4a23.7,23.7,0,0,1-.9,6.5h17.1c2.9,1.3,5.8.2,8.7-.1s5.1.1,6.8-2.2c1-.3,1.4-.8,1.1-1.8C314.4,215.6,303.3,216.5,292.3,216.4Z" fill="url(#f0115c91-5f0f-43f1-82d5-cc68a898eb46)"/>
      <path d="M324,220.6c-5,1.7-10.3,1.5-15.5,2.3a57.8,57.8,0,0,1,1.7,6.9c.3,3,1.6,4.5,4.7,4.3a6.2,6.2,0,0,1,5,.1c3.6.2,4.3-1.7,4-4.8S324,223.5,324,220.6Z" fill="url(#a8bbaa6f-c900-429a-a34b-7c89cedb79be)"/>
      <g>
        <path d="M291.2,219.1l.4.3h.6V218a12.7,12.7,0,0,0-2.8-8.1h-.1l-.3.4h0l-.4,2.3h0l1.5,5.4h0Zm-2.9-6.7.3-2.1-2.9-3.1h0l-5.5-1.3h0L280,207l-.2,1.7,2.6,2.2,1.2,1Zm-2.5-5.5h0a13,13,0,0,0-6.6-1.9,10.3,10.3,0,0,0-3,.4h3.9Zm-12.2-.2,1.3-1.1a13.6,13.6,0,0,0-5,3.1h1.6Zm8.1,10.6h.1l.2-.8,1.3-4.4-3.7-3.1h0l-5.3,1.7h-.2l-1.3,4.8h0l3.6,3.5h.2l5.1-1.8Zm4.8,11.3-.2.4,1.8-1.4-1.3.6h0ZM271.4,209h-1.9a18.7,18.7,0,0,0-2,2.9v.5l-.3,4.1h0v.3h0l1.6,1.5,3.7-3h0l1.2-4.4v-.4l-1-.7-1.2-.9h-.1Zm-5.3,9.4a13,13,0,0,0,3,8l.9.2h0l.4-2.6h0l-.5-1.4-1.3-3.9-.5-.4-1-1H267Zm19.9,5.1-.9,2.8h.1l1.6,1.4h0l2.1-1h0a14.5,14.5,0,0,0,2.6-4.3l-.2-2.9h-.1l-1.2-1.2-3.3,3.1h0Zm-15.3.7-.4,2.6h0l2.7,2.4,1,.9a11.1,11.1,0,0,0,3,.8h0l1.3-.6h0l.7-1.6.3-.6-3.5-3-.3-.2-4.7-.6Zm7.8,6.4-.9.4h2.7Zm1.7-3,4.6-1.4,1.6-5-4.4-3.6-2.7.9-2.5,1-1,5.2h.2l.2.2h0l3.2,2.7h.8Z" fill="url(#a1f8e652-a3e6-42e7-9c35-994de3e9d067)"/>
        <path d="M265.3,218a13.9,13.9,0,1,0,14-13.8h-.1A14,14,0,0,0,265.3,218Zm.8.4.9-1.1h.1l1,1,.5.4,1.3,3.9.5,1.4h0l-.4,2.6h0l-.9-.2a13,13,0,0,1-3-8Zm7.9,11.7-1-.9-2.7-2.4h0l.4-2.6h.1l4.7.6.3.2,3.5,3-.3.6-.7,1.6h0l-1.3.6h0a10.9,10.9,0,0,1-3-.7Zm12.3-1.1.2-.4.3-.4h0l1.3-.6-1.8,1.4Zm-1.1-2.6h-.1l.9-2.8.7-2.1h0l3.3-3.1,1.2,1.2h.1l.2,2.9a14.5,14.5,0,0,1-2.6,4.3h0l-2.1,1h0Zm6.4-6.9h0l-.4-.3-1.1-1.1h0l-1.5-5.4h0l.4-2.3h0l.3-.4h.1a12.7,12.7,0,0,1,2.8,8.1v1.5Zm-3-9.2-.3,2.1-4.7-.5-1.2-1-2.6-2.2.2-1.7.2-1.1h0l5.5,1.3h0Zm-2.8-3.5h0l-5.7-1.4h-3.9a10.3,10.3,0,0,1,3-.4,12.8,12.8,0,0,1,6.6,1.8Zm-16.3,2.3h2.1l1.2.9,1,.7v.4l-1.2,4.4h0l-3.7,3-1.6-1.5h0v-.3h0l.3-4.1V212a18.7,18.7,0,0,1,2-2.9Zm12.2,8.2h0l-5.1,1.8h-.2l-3.6-3.5h0l1.3-4.8h.2l5.3-1.7h0l3.7,3.1-1.3,4.4-.2.8Zm-11.8-8.6a13.6,13.6,0,0,1,5-3.1l-1.3,1.1-2.1,1.9h-1.6Zm14.9,17.5-4.6,1.4-.6.2h-.2l-3.2-2.7h0l-.2-.2h-.2l1-5.2,2.5-1,2.7-.9,4.4,3.6Zm-4.5,4.9h-2.7l.9-.4Z" fill="url(#ad0d1d74-07ff-4d7f-8058-eea9f66eed58)"/>
      </g>
    </g>
    <g>
      <path d="M127.8,218.2H13.1V202.7H127.8ZM14.7,216.5H126.2V204.3H14.7Z" fill="#fff"/>
      <path d="M249.1,218.2H134.4V202.7H249.1ZM136,216.5H247.5V204.3H136Z" fill="#fff"/>
    </g>
    <rect x="13.9" y="118.7" width="97.2" height="1.29"/>
    <g>
      <g>
        <g>
          <path d="M128.9,141.5a3.6,3.6,0,1,1,3.6-3.6,3.6,3.6,0,0,1-3.6,3.6Zm0-6.9a3.3,3.3,0,1,0,3.3,3.3A3.3,3.3,0,0,0,128.9,134.6Z" fill="#191415"/>
          <path d="M128.9,138.1c-.1,0-.1-.1-.1-.2v-2.7c0-.1,0-.2.1-.2l.2.2v2.7Z" fill="#191415"/>
          <path d="M127.6,139.4h-.1a.2.2,0,0,1,0-.3h0l1.3-1.3c.1-.1.2-.1.2,0s.1.2,0,.2l-1.3,1.4Z" fill="#191415"/>
          <circle cx="128.9" cy="137.9" r="0.3" fill="#191415"/>
        </g>
        <g>
          <path d="M128.9,134.3a3.7,3.7,0,0,1,1.8.5V133h-3.6v1.8A4.1,4.1,0,0,1,128.9,134.3Z" fill="#191415"/>
          <path d="M128.9,141.5a4.1,4.1,0,0,1-1.8-.5v1.8h3.6V141A3.7,3.7,0,0,1,128.9,141.5Z" fill="#191415"/>
        </g>
      </g>
      <g id="b55762c1-a194-4b56-a050-2510a8c760df" data-name="bbd7cbaf-4bcf-4d67-a632-792de19377c3">
        <path d="M14.7,133.8h1v-.6l.2-.2h.3l.3.2v.6h4.1v-.6l.2-.2h.3c.2,0,.3.1.3.2v.6h.9a.7.7,0,0,1,.7.7v.5H13.9v-.5A.8.8,0,0,1,14.7,133.8Zm1,3.2h5.5v4.1H15.7Zm7.3-1.3v6.4a.7.7,0,0,1-.7.7H14.7a.8.8,0,0,1-.8-.7v-6.4Z" fill="#191415" fill-rule="evenodd"/>
        <g>
          <rect x="16.3" y="137.9" width="1.6" height="2.36" fill="#191415"/>
          <rect x="19.1" y="137.9" width="1.6" height="2.36" fill="#191415"/>
        </g>
      </g>
    </g>
    <g>
      <path d="M18.7,234.2h0a4.7,4.7,0,0,0-4.8,4.8h0a4.5,4.5,0,0,0,.3,1.6h0l4.5,8.4h0l4.5-8.4h0a8.8,8.8,0,0,0,.2-1.6,4.7,4.7,0,0,0-4.6-4.8Zm0,8.6a3.8,3.8,0,1,1,3.6-4v.2a3.8,3.8,0,0,1-3.6,3.8Z" fill="url(#e7cc7695-5369-47c5-ba74-05989eb3a9ea)"/>
      <g>
        <path d="M16.2,238.9h0l.4-1.2h0v-.5h-.1a2.8,2.8,0,0,0-.6,1.8v.3H16Zm1.5-1.4.3-.2.5-.5v-.6h0l-1.3.3h0l-.6.7v.4Zm.8-1.4h.2a2.6,2.6,0,0,0-1.5.4h0Zm1.9.7h.3a2.6,2.6,0,0,0-1.1-.7l.3.3Zm-2.3,1.9,1.2.4h0l.8-.8h0l-.3-1.1h0l-1.2-.3h0l-.8.7.2.9v.2ZM17,241.1h-.3l.4.3H17Zm3.4-4.3h0l-.3.3h-.2l.3,1h0l.8.7.4-.4h-.1v-1l-.5-.6Zm1,1.9h0l-.3.2H21l-.2.9-.2.3h0v.6h.2a2.9,2.9,0,0,0,.7-1.8Zm-4.4.9h0l-.7-.7-.3.3h0v.7l.6.9h0l.5.3h0l.3-.4h.1l-.2-.6Zm3.6.7H19.4l-.7.7v.2l.2.3h0l.3.2h0l.6-.2.3-.2.6-.6h0v-.5Zm-2.2,1.5Zm.2-.7h0l.7-.6h.1l-.2-1.2-.5-.2-.7-.2-.9.8.3,1.1,1.1.3Z" fill="url(#b40922e4-bdd5-4549-9ba2-24583f794883)"/>
        <path d="M18.7,235.8a3.1,3.1,0,1,0,3.1,3.1,3.1,3.1,0,0,0-3.1-3.1Zm2.2,5h-.2v-.6h0l.2-.3.2-.9h.1l.3-.2h0l.2.3A3.8,3.8,0,0,1,20.9,240.8Zm-1.7,1h0l-.3-.2h0l-.2-.3v-.2l.7-.7h1.2v.5h0l-.6.6-.3.2Zm-2.5-.8h0Zm.3.1h0l-.5-.3h0l-.6-.9v-.7h0l.3-.3.7.7h0l.2.5.2.6h-.1Zm-1.2-1.9v-.3a2.8,2.8,0,0,1,.6-1.8h.1v.5h0l-.4,1.2h0l-.2.2h-.2Zm1.4-2.7h0l1.3-.3h0v.6l-.5.5-.3.2H16.6v-.4Zm1.5-.5h-.2l-1.3.3h0a2.1,2.1,0,0,1,1.5-.3Zm2.1.9.5.6v1h.1l-.4.4-.8-.7h0l-.3-1h.2l.3-.3Zm-2.7,1.8v-.2l-.2-.9.8-.7h0l1.2.3h0l.3,1.1h0l-.8.8h0l-1.2-.4Zm2.4-1.9h-.1l-.5-.4-.3-.3a2.6,2.6,0,0,1,1.1.7Zm-3.4,2.8.9-.8.7.2.5.2.2,1.2h-.1l-.7.6h-.1l-1.1-.3Zm1.7,2.1Z" fill="url(#b2a08460-a656-44be-a4bc-d63b854f701c)"/>
      </g>
    </g>
    <g>
      <polygon points="17.1 275.6 18.2 276.2 18.2 276.3 17.1 275.8 17.1 275.6" fill="url(#be106c55-e8e1-4686-908c-429d2b1e5f79)"/>
      <polygon points="17.2 276.1 18 276.6 18 276.8 17.2 276.3 17.2 276.1" fill="url(#a8199dcb-ef5e-4e05-b87c-bd7d5c5e0876)"/>
      <path d="M17,275.2l1.6.8a13.9,13.9,0,0,0,1.4,4.5l1.4.2a32.2,32.2,0,0,1-.8-8.2h-.2v-3.3l-1.3.7v3.2l-.8.4a7.6,7.6,0,0,0,.1,1.5l-2-.9a4.6,4.6,0,0,1-2.6.1,10.6,10.6,0,0,0,1.2,3.4,2.9,2.9,0,0,0,1,1.2,11.9,11.9,0,0,0,2.5,1.3,13.4,13.4,0,0,1-2-5.8l1.9.9h0c0,.2.1.3.1.5L17,275Z" fill="url(#a7a46b7c-b49e-4455-867c-86d2585c6d1a)"/>
      <path d="M21.1,273.7h.2c0,2.3.2,4.6.4,6.9h0c-.3-2.3-.5-4.7-.6-7Z" fill="url(#eb0262c3-3fb2-421d-9305-3110860e8e70)"/>
      <path d="M21.7,274l.2.2c0,2.4.1,4.7.2,6.6H22c-.1-1.8-.2-4.2-.3-6.7Z" fill="url(#beda134e-1f39-4165-a04d-fa7dc1a923a6)"/>
      <path d="M22.2,274.3h.2v6.4h-.1c0-2.4,0-4.6-.1-6.5Z" fill="url(#ab3043b1-87ed-4691-b974-41886cf48ac5)"/>
      <path d="M22.7,274.6h.2l-.2,6.1h-.1c.1-1.9.1-4,.1-6.2Z" fill="url(#a78589d1-2856-4c12-bf19-4a5aad254bee)"/>
      <path d="M25,274.2v-1.5l-1.3-1.2-.7.3v-3.4l-.4-.4v-1l-.7-1.1-.6.4v1.1l-.3.2v1.9l.6.4v2.9l.4.3v-6.2h-.1V266l.7,1.1v.9l.3.3v5.2l.8.4v-2.2l1.1,1v1.5l-1.6.4a31.2,31.2,0,0,1-.3,6.1l1.9-.3a17.4,17.4,0,0,0,1.6-6.8l-1.4.5Z" fill="url(#ae7caeb3-feea-4976-b4fd-a2fd14bc8a63)"/>
      <path d="M26.8,274.7H27a14.6,14.6,0,0,1-1.8,5.7h-.1A16.3,16.3,0,0,0,26.8,274.7Z" fill="url(#bf6879ed-7a91-4b98-a81c-b0a1bc0f2aff)"/>
      <path d="M27.3,275h.2a12.1,12.1,0,0,1-1.9,5.2h-.1a11.2,11.2,0,0,0,1.8-5.3Z" fill="url(#b6c0decb-9c86-4298-bbac-abf853295a6a)"/>
      <path d="M27.8,275.2H28a12.2,12.2,0,0,1-1.9,4.9h-.2a11.3,11.3,0,0,0,1.9-5Z" fill="url(#be11f63f-ea99-4785-8d95-d8fcc13fe058)"/>
      <path d="M28.3,275.4h.1a10.6,10.6,0,0,1-2,4.6h-.1a11.6,11.6,0,0,0,2-4.7Z" fill="url(#e6c912bc-fbaa-4e5e-a018-2cc6ece0fb4f)"/>
      <path d="M28.6,275.5h.1a11.1,11.1,0,0,1-1.9,4.3h-.1a11.6,11.6,0,0,0,1.9-4.4Z" fill="url(#bf6d1828-1e38-4a4c-b348-0c365e11a36b)"/>
      <path d="M28.9,275.6h.2a11.8,11.8,0,0,1-1.9,4.1h-.1a11.2,11.2,0,0,0,1.8-4.2Z" fill="url(#a179815f-0e05-4334-aaac-117b1737f847)"/>
      <path d="M27.5,279.6h.2a10.6,10.6,0,0,0,1.9-4.5l-.7-.2a14.8,14.8,0,0,0,.1-4.7l1.8,2.4a11.5,11.5,0,0,1-1.8,6.2l.3-.3a10,10,0,0,0,1.7-6,24.3,24.3,0,0,1-2-2.5,6.3,6.3,0,0,0-1.9.3,25.4,25.4,0,0,1,0,3.9,7,7,0,0,0,2.3,1.1,11.6,11.6,0,0,1-1.9,4.4Z" fill="url(#b2b697e7-3c3e-4dfe-a796-44374aa06c9a)"/>
      <polygon points="29.5 271.3 30.6 272.6 30.6 272.8 29.5 271.5 29.5 271.3" fill="url(#b99ec113-23df-4d57-894b-b1c3863cdcf9)"/>
      <polygon points="29.5 272.1 30.4 273.1 30.4 273.2 29.5 272.3 29.5 272.1" fill="url(#aa3c9242-7203-496e-8768-7f39b863ef06)"/>
      <polygon points="29.5 272.9 30 273.4 30 273.5 29.5 273.1 29.5 272.9" fill="url(#f1c062a7-c240-4db0-952e-35ec69d9c8b4)"/>
      <polygon points="29.5 273.5 29.6 273.7 29.6 273.8 29.5 273.7 29.5 273.5" fill="url(#fa2f5b39-ac7f-4f32-bbb6-93d2840dce3b)"/>
    </g>
    <g>
      <path d="M16.5,297.4l2.4-.7a9.9,9.9,0,0,1,2.4-.3H24a7.9,7.9,0,0,1,2.2.5,3.5,3.5,0,0,1,1.3.8,4,4,0,0,1,1.2,1c.1.3.3.6.1.8s-.5.6-.4.9.5.5.9.7a2.1,2.1,0,0,1,1,3.4c-.3.5-.5,1.1-.7,1.5a5,5,0,0,0-.2,1.2,1.9,1.9,0,0,0-.2.7,6.6,6.6,0,0,0-.1,1.4,1.8,1.8,0,0,1-.6,1.4c-.1.1-.1-.4,0-.6s.4-.5.2-.8-1-.3-1.4-.5a2,2,0,0,1-1.5-.6c-.3-.2,0-.6.2-.8s.5-.3.2-.4a1.8,1.8,0,0,0-1-.2c-1.2-.1-2.5,0-3.7,0a11.7,11.7,0,0,0-3.7.8c-.4-3.4-.9-6.8-1.3-10.2Z" fill-rule="evenodd" fill="url(#a246f7ab-aabb-488f-9eae-9fe9e80f607a)"/>
      <path d="M18.1,311.1l-1.7-13.9h.5l.4,3.2,1.4,10.8h-.6Z" fill-rule="evenodd" fill="url(#e7c3c1c0-5074-4a39-96cb-4741f621c8d0)"/>
    </g>
    <path d="M69.6,123.8c-.8.4-1.4,0-1.4-.8v-7.3c0-.9.6-1.2,1.4-.9l7.5,3.8c.8.4.8,1,0,1.4Z" fill="#191415"/>
    <path d="M81,123.8c-.8.4-1.4,0-1.4-.8v-7.3c0-.9.6-1.2,1.4-.9l7.6,3.8c.8.4.8,1,0,1.4Z" fill="#191415"/>
    <rect x="244.2" y="252.8" width="81.1" height="18.81" fill="url(#e96acd3c-bc01-4824-9e82-c8ee342d9fe8)"/>
    <rect x="202.6" y="296.8" width="122.7" height="14.4" fill="#fff"/>
  </g>
</svg>
