<svg xmlns="http://www.w3.org/2000/svg" width="335" height="335" data-name="Layer 1">
  <path fill="#fff" d="M0 0h335v335H0z"/>
  <g fill="#2c2c2c">
    <path d="M66.5 129.2c0-.1 0-.2.1-.3.2-.4.3-.9.4-1.3v-.2s-.1.2-.2.2h-.2v.4h-.1v-.3c0-.1 0-.2.1-.2.2 0 .2-.2.3-.4 0 0-.2-.1-.2-.2l-.2-.2c-.3 0-.3-.2-.5-.4-.3-.4-.6-.8-.8-1.3-.3-.4-.6-.7-1-.9-.4-.2-.7-.3-1.1-.5-.1 0-.2-.1-.3-.2-.4-.1-.8-.1-1.2-.1-.4 0-.7 0-1.1.2-.3 0-.6.2-.9.3 0 0-.2 0-.3.1-.2 0-.3.1-.5.2v-.1s.1 0 .2-.1l.2-.2c0-.1.1-.3 0-.4-.2 0-.3.1-.4.2l-.2.1c-.2 0-.4.1-.6.3-.1.1-.4.2-.4.4h-.1c-.2 0-.3 0-.4.2-.1.1-.2.3-.4.4 0-.1 0-.2.1-.3.2-.3.5-.5.8-.7.8-.6 1.6-.9 2.5-1.1h.8c.8 0 1.6 0 2.3.3.4.1.8.3 1.2.5.7.6 1.5 1.1 2 1.9.2.2.3.5.5.7h-.2l.2.6h.3c0 .2.1.3.2.4v.6c-.1.5-.2.9-.5 1.4 0 .1-.1.3-.3.4Zm-5.3-6.5c0-.1-.2-.2-.6 0 0 .2.2.2.6 0Zm2 .2h-.4q.3.2.5 0Z"/>
    <path d="M56.3 124.8c.2 0 .3-.3.4-.4.1 0 .2-.2.4-.2h.1c0-.2.3-.3.4-.4.1-.1.3-.3.6-.3 0 0 .2 0 .2-.1.1-.1.2-.2.4-.2.1.1 0 .3 0 .4 0 .1 0 .2-.2.2 0 0-.2 0-.2.1v.1s-.1 0-.2.1c-.4.1-.7.4-1 .7 0 0-.2.1-.3.2 0 0-.2.2-.2.3-.2.2-.3.5-.4.8l-.3.6c0 .2-.1.4-.2.6 0 .4-.1.7-.2 1.1v.6c0 .6 0 1.2.2 1.7v.3c-.1 0 0-.3-.3-.3v.3c0-.2-.2-.3-.1-.5v-.2c-.1-.2-.2-.4 0-.7 0-.2.1-.4 0-.6l-.2.2v-.2c-.2-.3-.1-.6-.1-.9v-.7c.1-.5.3-.9.5-1.3 0 0 0-.1.1-.2.1 0 .2-.1.2-.3v-.2c.1-.1.2-.2.2-.3Zm.3.2s-.2.1-.2.3c.2 0 .2-.1.2-.2h.1Zm-1 2.6s0-.1.1-.2v-.2c-.1.1-.1.3 0 .5Zm2.4-4Zm2.8 4.9c-.2 0-.3.1-.4.3-.1.2-.3.4-.5.6-.2.2-.4.3-.6.4l.5.2v-.1c0-.3.1-.4.4-.5h.4c.2 0 .4 0 .6-.2.2 0 .3-.2.5-.3h.2c.1 0 .2 0 .2.1v.1q-.1 0-.2-.1c-.2 0-.4.2-.6.3-.2.1-.4.2-.6.2-.2 0-.3 0-.5.2v.4c0 .3-.3.5-.5.6-.1 0-.3 0-.4-.1-.1-.3-.2-.5 0-.8 0-.1.2-.3.3-.4.2-.2.4-.4.7-.6 0 0 .1 0 .1-.1.1-.3.4-.4.6-.4v.2Zm4.1-.7s.1 0 .2.1c.2.3.4.6.7.8.2 0 .3-.1.4-.2 0 0 .2-.2.3-.2 0 .3-.3.5-.6.6h-.2c-.2 0-.3-.3-.5-.4v-.1c0-.2-.2-.3-.4-.4 0 0-.1 0-.2-.1 0-.1.1-.3-.1-.3 0-.2.2-.4.3-.5v-.6c0-.2 0-.4-.4-.4-.2 0-.4 0-.5.3 0 .2-.1.4-.2.6-.1-.3 0-.6 0-.9 0 0 0-.1.1-.2.3-.2.8-.1 1 .2v.1c0 .4.2.8-.3 1.1 0 .1 0 .2.2.3l.1.1h-.2.2Zm-3 2c-.1 0-.2.2-.2.3-.1.2-.3.4-.5.6l-.6.6c0 .1-.2.2-.2.3-.1.2-.3.4-.5.4-.1 0-.3.1-.4.2-.4.3-.8.7-1.3 1.1-.2.2-.4.3-.6.5 0 0 0-.1.1-.2l1.2-1.2c.3-.3.6-.6 1-.7 0 0 .2-.1.2-.2s.2-.2.3-.3c.2-.3.4-.5.7-.7.2-.1.4-.3.5-.6 0-.1.1-.2.3-.3Zm.4 1.9c.3 0 .6 0 .9.2.2.1.3.2.5.3-.2 0-.4 0-.6-.1 0 0-.1 0-.2-.1-.2-.1-.4-.1-.6 0-.1 0-.3.1-.4.2-.9.6-1.8 1.2-2.6 1.9-.3.3-.7.6-1.2.7v-.1c.4-.1.6-.3.9-.6.2-.1.3-.3.4-.4.5-.6 1.2-1 1.8-1.4.2-.1.4-.3.6-.4h.1Z"/>
    <path d="M55.9 130.9s.1 0 .1.2c.1.2.2.4.3.7 0 .1.1.3.2.4 0 .1 0 .2.2.2 0 0 .1 0 .1.2s.2.4.4.5c0 0 .2.2 0 .3-.3-.1-.5-.4-.8-.7-.2-.2-.4-.5-.6-.8v.5h.1c-.2-.1-.2-.3-.3-.5v-.8h.2v-.3Z"/>
    <path d="M55.7 131.2c-.1 0 0 .2 0 .3v.3c-.2 0-.2-.2-.2-.4-.2-.5-.3-1.1-.4-1.6 0-.4-.2-.9-.2-1.3v-.7.2c0 .3 0 .6.1.9v.2l.2-.2v.6c-.1.2 0 .5 0 .7v.2c0 .2 0 .4.1.5h.1v.3Zm10.1 1.8h.2c0-.1 0-.1 0 0 .1.6 0 1.1 0 1.7 0 0 0 .1-.1.3v-1.2c0-.4 0-.9-.2-1.3v-.1c.2.2.2.5.2.7Zm-1.4-2.8H64c.2-.2.4-.4.5-.6 0-.2.2-.2.4-.1.2 0 .3.2.5.2h1c-.2.2-.4.2-.6.2h-.6c-.2 0-.3-.1-.5-.2 0 .1-.2.3-.3.5Zm.1 2.3-.3-.2h.2c.2 0 .3.2.3.4v1.3c0 .2 0 .4-.1.6 0-.2-.1-.3-.1-.4v-1.6Zm.1-1.7c.2.2.5.3.8.5.4.2.6.5.6 1v.2c-.1-.1-.1-.2-.2-.3 0-.3-.2-.4-.4-.5-.3-.2-.6-.4-1-.6 0 0-.2-.1-.3-.3h.5Zm-3.3-2.7v-.1l.3-.3c.4-.2.7-.3 1.1-.4.2 0 .3 0 .5-.1h.3l-.2.2-1 .3h-.6c-.1 0-.2.1-.3.3Zm1 3.6h-.1c-.2 0-.4.1-.7.2.1 0 .1-.1.2-.1.4-.1.7-.3 1-.5h.4c.1 0 .2.2.4.3.2.2.4.3.7.4h.2c-.6 0-1-.4-1.5-.6-.2 0-.4.1-.5.3Z"/>
    <path d="M61.6 127.9h.1c.1 0 .2 0 .3-.1h.2c-.4.2-.8.5-1.2.8 0 0-.2.1-.3 0v-.2h.2c.1 0 .2-.1.3-.2.1 0 .2 0 .3-.2Zm4.5 1.8h-.4c-.1 0-.2 0-.3-.2h.3c.2 0 .4 0 .5-.2 0-.1.2 0 .3 0v.4c-.2 0-.1-.1-.2-.1v.3Zm-4.2.1c.3-.3.5-.5.5-.9 0 .4.1.8-.2 1.2v-.3H62Zm-5.7 2.7c.3.4.6.7.9 1.2H57c-.3-.3-.5-.6-.7-1v-.2Zm8.2-2.3h.1c0 .3 0 .3.1.4 0 0 .2.1.3.2h-.4c-.2 0-.3-.3-.2-.5Zm-8.2-5.3c0 .1 0 .2-.2.3 0-.2 0-.2.2-.3Zm-.3.5c0 .1 0 .2-.2.3 0-.1 0-.2.2-.3Zm4.7-2.8c0 .1-.2 0-.3 0h.3Zm.4 5.6h-.1Zm5.5.1Zm-10.8 3.5v.2-.2Zm.3-6.5v.2-.2Zm.1 7.1Zm0-7.2Zm.2-.4Zm6.1-1.5Zm-1.5 4.9Zm.3-5.3h-.6.6Zm2 .2q-.2.2-.5 0h.4Zm3.2 2.9Zm.1 0Zm-10.8 5.2v-.6s0 .3.2.3v.3h-.2Zm-.1-3.4v-.5.2s0 .1-.1.2Zm.8-2.4c0-.1 0-.2.2-.3 0 .1 0 .3-.2.3Zm.2-.2h-.1Zm1.4-1.5Zm-1.6 1.7Zm8.5 2.4h-.2.2Zm-.5 2.4Z"/>
    <path d="M61.6 127.9c0 .1-.1.2-.3.2 0-.1.2-.2.3-.2Zm.4-.2c0 .1-.2 0-.3 0h.3Z"/>
  </g>
  <path fill="#f99a1c" d="M128.7 181.5c-9.5-13-11.9-33-1.7-49.6 10.4-17 30.3-25.1 49.6-20.4 19.9 4.9 32 21.8 33.9 37.8-.5.5-1.2.9-1.9 1.3h-.5c-.9-.2-1.6.1-2.3.7-.4.3-.7.6-1 .9-.4.3-.7.6-1.1.9-.3.2-.6.4-.7.8 0 .2-.2.3-.4.4-1.2.6-2.4 1-3.6 1.4h-.7c-.8 0-1.5.3-2.1.9-.2.2-.4.3-.6.3h-1.7c-.3 0-.6-.1-.8-.3-.6-.4-1.2-.7-1.9-.9-.9-.3-1.7-.2-2.6.2-.3.2-.6.3-.9.5-.6.4-1.3.6-2 .5-1.1 0-2.2-.2-3.3-.4l.3-.8c.3 0 .6-.1.9-.2.5-.1 1-.2 1.5-.5.5-.4.7-.9.5-1.5 0-.2-.2-.4-.3-.6-.2-.3-.4-.5-.5-.9h.3c.4 0 .8-.3 1.1-.6.3-.3.6-.7.8-1 .4-.4.4-.9.1-1.5-.3-.6-.8-1.1-1.3-1.5-.9-.8-1.8-1.4-2.9-1.9-.7-.3-1.4-.5-2.2-.8-.1 0-.3 0-.4-.1v-.4c0-.6-.2-1-.6-1.3-.4-.3-.9-.6-1.5-.8-.2 0-.4-.1-.5-.3-.4-.5-1-.7-1.6-.8h-.2c-.4-.6-1-.9-1.7-.6h-.2c-.9-.5-1.3-.5-2.1.1l-.6.6c-.3 0-.7-.1-1-.1-.8 0-1.2.4-1.3 1.2v.3c-.1.1-.3.3-.5.4-.4.3-.7.6-1.1.9-.5.5-1.1 1-1.8 1.2-.4.1-.7.5-1.1.7-.2.2-.4.4-.5.8 0 .3-.3.5-.5.8-.3.4-.7.8-1 1.2-.2.3-.3.7-.5 1.1-.2.5 0 1 .5 1.3.5.3.8.6 1.2.9.2.5.3.9.4 1.3v.4c0 .6.3 1 .7 1.4.1 0 .2.2.3.3v2c0 .9.4 1.5 1.3 1.6.1.3.3.5.4.8.3.5.5.9 1 1.1.2.1.4.5.5.7-.1.2-.2.3-.3.4-.5.5-.9 1-1.4 1.5-.5.5-1 1.1-1.5 1.5-1.6 1.4-3.2 2.7-4.9 4.1-.4.3-.7.6-1.1.9-2.6 2.5-5.5 4.6-8.7 6.3-.3.2-.6.3-1 .3-.5 0-1 .3-1.4.5-.4.2-.8.5-1.2.8-.7.5-1.5.9-2.4 1.2-.3 0-.6.2-.7.5-.2.3-.4.4-.6.5-1.8.8-3.6 1.4-5.5 1.8-1.2.2-2.4.2-3.6 0-1.1-.2-2.1-.4-3.2-.5-.9-.1-1.8-.2-2.7 0Z"/>
  <circle cx="165.5" cy="155.4" r="49" fill="none" stroke="#bf6f06" stroke-miterlimit="1" stroke-width="2"/>
  <path fill="#f99a1c" d="m197.6 187.6-1.3-1.6c-1.4-1.9-2.5-4-3.1-6.3-.2-1-.4-1.9-.4-2.9 0-.5 0-1 .2-1.5.2-1.6.2-3.2.1-4.9v-.3c0-.7.4-1.1 1-1.1.9 0 1.8-.4 2.5-.9.1 0 .2-.2.3-.2.8-.6 1.7-.9 2.6-1.1 2.5-.4 4.9-.5 7.4-.5.2 0 .3 0 .5.1.6.3 1.2.5 1.8.6 0 0 .1 0 .3.1v.5a44.39 44.39 0 0 1-11.5 19.9s-.2.1-.3.3Z"/>
  <path fill="#ff9a00" d="M156.5 189.5c4.2-3.8 8.8-6.8 13.8-9.1.5.2.7.6 1.1 1-.1.8-.2 1.6 0 2.4v.4c-.4.7-.4 1.5-.6 2.3 0 .2 0 .4-.1.6-.4.2-.7.2-1.1.2-.5 0-.9 0-1.4.1-1.1.2-1.8.7-2.2 1.7-.3.7-.8 1.3-1.4 1.8-.4.4-.9.6-1.4.8-1.2.4-2.5.9-3.6 1.7-.2.2-.4.2-.7.2h-1.1c-.7 0-1.4.2-2 .6l-1.2.9c-1.2 1-2.5 1.9-3.9 2.6-.1 0-.3.1-.4.2-5.3-2-10.2-4.8-14.5-8.6.4-.5.9-.7 1.5-.7.8 0 1.6-.1 2.4-.2 1.3 0 2.6-.1 4-.2.8 0 1.5-.1 2.3-.1h.5c.2.3.3.6.4.8.5 1 1.2 1.9 2 2.8.3.4.7.7 1.2.9.1 0 .3.2.4.3.3.3.7.4 1.1.3 1.1-.2 2.2-.4 3.3-.9h.1c1.1-.6 1.8-1.4 1.7-2.8Z"/>
  <g fill="#2c2c2c">
    <path d="M179.9 158.1c1.2-.2 2.3 0 3.4.1l2.9.3c.6 0 1.1-.1 1.7-.4.4-.2.8-.4 1.1-.7.7-.4 1.4-.5 2.1-.2.4.2.8.3 1.2.6.6.5 1.4.6 2.1.6.6 0 1.2 0 1.7-.2.3 0 .6-.2.9-.4.4-.5.9-.7 1.4-.7 1.1 0 2.1-.5 3.2-.9.7-.3 1.4-.6 2-.9.2 0 .2.3.2.4.2 1.6.4 3.1.9 4.6.4 1.6 1 3.1 2 4.3 0 .2-.2.2-.4.2-1.5 0-3 0-4.5.2-1.1 0-2.1.3-3.2.4-.7.1-1.4.4-2 .9l-1.1.8c-.5.3-1 .5-1.6.5-.6 0-1.1.2-1.5.7-.5.5-.7 1.1-.7 1.9 0 1.4.1 2.8 0 4.2v.7c-.4 1.7-.1 3.4.3 5 .7 2.5 1.9 4.7 3.4 6.8.5.6.9 1.2 1.4 1.9.3.4.4.8.6 1.2.1.2.2.4 0 .7-.2 0-.5.2-.7.3-3 1.3-5.6 3-7.9 5.4-2.2 2.4-3.9 5.1-4.7 8.2 0 .2 0 .5-.3.7a15.62 15.62 0 0 0-3.8-3.7c-.4-.3-.7-.5-1-.8l-.9-.9c-.2-.2-.3-.5-.2-.8.3-1.3.6-2.6.8-3.9.4-2 .7-4 .8-6 0-1.1.1-2.3.2-3.4 0-2.7-.2-5.3-.8-7.9-.3-1.8-.7-3.5-1-5.3-.2-1-.2-2.1-.1-3.1 0-.3 0-.5.2-.8.7-3 1.4-6 2.2-9v-.7c0-.2-.1-.4-.2-.7Z"/>
    <path d="M160.1 194.7c.2-.3.5-.5.8-.6.9-.4 1.8-.8 2.7-1.1a6.7 6.7 0 0 0 3.3-2.9s0-.2.1-.3c.3-.8.9-1.1 1.7-1.2h1.9c.7-.1 1.2-.5 1.4-1.3 0-.4.1-.7.2-1.1v-.7c0-.4.2-.7.6-.8 0-.5-.2-1-.3-1.5v-.8c0-.3.2-.5.3-.8-.4-1.1-1.3-1.9-2.2-2.5-1.4.6-2.7 1.2-4 2-1.3.7-2.5 1.5-3.8 2.3-1.2.8-2.5 1.7-3.7 2.6-1.2.9-2.3 1.8-3.4 2.8-1.2-3.7-2.3-7.4-4.4-10.7.1 0 .3-.2.5-.3 3.2-1.8 6.2-4 8.8-6.5.2-.2.5-.4.7-.7 1.6-1.3 3.2-2.6 4.8-4 .8-.7 1.6-1.5 2.3-2.4.3-.4.7-.8 1.1-1.2.3-.3.6-.5 1.1-.5.4 0 .8-.2 1.3-.4.3 0 .6-.2.9-.4.5.5.9 1.1 1.2 1.8.1.4.3.9.4 1.4.1.3.2.7.4 1 .2.5.6 1 1.1 1.3.6.4 1.1.9 1.6 1.4-.2 1.9 0 3.7.3 5.6.3 1.7.7 3.5 1 5.2.4 2.3.5 4.7.5 7 0 1.9-.2 3.8-.4 5.7-.3 2.4-.8 4.7-1.4 7.1v.4l.8 1.2c-.9 2.6-1.9 5.2-3.1 7.7h-.3c-3.9-1.7-7.4-4-10.4-7.1-1.4-1.5-2.5-3.1-3.5-4.8-.3-.5-.5-1-.6-1.5Z"/>
    <path d="M169.8 206.6h-.6c-1.2 0-2.4.1-3.6.2a60 60 0 0 0-14.5 2.8l-3.3 1.2c-.4.1-.7.3-1 .5l-1.5.9c-1.2.7-2.5 1.1-3.9 1.1-1.3 0-2.5 0-3.8-.2-.7 0-1.3-.2-2-.2-.2 0-.4-.1-.6-.3-1-1-1.9-2-2.7-3.1-.3-.5-.6-.9-.7-1.5v-1c.4-.8.9-1.5 1.7-2 .7-.5 1.5-.9 2.3-1.1.6-.2 1.2-.4 1.8-.5.6-.1 1.1-.3 1.6-.6l2.1-1.2 1.2-.6c1.1-.6 2.3-.7 3.5-.5.9.2 1.7.1 2.6-.4.4-.2.8-.3 1.1-.5 2.2-.9 4.3-2.2 6.1-3.7.3-.2.6-.5.9-.7.4-.3.8-.4 1.2-.4h1.8c2.1 5 5.9 8.6 10.3 11.6Zm4.4-46.6-2.1 1.2c-.4.2-.8.4-1.3.5-.4.1-.6 0-.8-.3-.2-.4-.4-.8-.7-1.2-.2-.3-.3-.5-.7-.4v-.6l-.5-.2-.3-1.3-1 .2c-.3-.5-.2-1-.2-1.6v-1.5c-.2-.1-.4-.3-.6-.4-.3-.2-.4-.4-.4-.8v-.6c0-.1 0-.2-.1-.3-.3-.2-.2-.4-.3-.7v-1.6h-.4c-.1 0-.3.2-.5.3v-1.3c-.3 0-.4.4-.8.5 0-.2 0-.4.2-.5.4-.7 1-1.3 1.7-1.8.2-.2.4-.3.7-.5l-.6-.2c.4-.4.9-.6 1.4-.8.4-.1.6-.3.9-.6.8-.8 1.7-1.5 2.6-2.1 0 0 .1 0 .2-.1.3-.2.3-.3.1-.8.5-.1.8.2 1.2.3.5-.4.7-1 1.3-1.3.2.2 0 .6.3.9.4 0 .8-.5 1.3-.5l-.4.8c.8 0 1.5-.3 2.3 0 0 .2-.4.1-.4.5 1 .3 2.1.2 2.9 1l-.6.2c0 .5.2.9.3 1.3.5.1 1.1.3 1.6.4 1.1.3 2.2.8 3.3 1.4a7 7 0 0 1 1.9 1.5c.2.2.4.5.6.7l-.9 1.1c-.3 0-.2-.3-.3-.4-.4-.9-1-1.6-1.7-2.2-1-.8-2.1-1.3-3.3-1.6h-.2c-.1.1 0 .3 0 .4 0 .2.2.3.3.5 1.3 2.1 2.7 4.1 4.1 6.1.1.1.2.3.3.5-.6.4-1.2.4-1.7.5-.4-1.1-.8-2.2-1.3-3.2-1-2.3-1.2-2.6-1.7-3.1v3.2c0 .7.1 1.4.4 2l.9 1.8c0 .1.1.2.2.4-.5 0-.7-.3-1.2-.3.1.7.6 1.2 1 1.7-.4.2-.4.2-1.1.2-.4 0-.7 0-1-.3 0 .6.2 1 .3 1.4.1.4.1.8 0 1.2l-1.8 7.5c0 .2-.1.4-.2.6-.2-.1-.3-.2-.4-.3a7 7 0 0 0-1-.8c-.5-.3-.8-.8-1-1.4-.2-.4-.3-.9-.4-1.3-.2-.9-.6-1.7-1.2-2.4 0 0 0-.1-.1-.2l1.1-1c.7-.5 1-.9 1.4-1.7l-1.6 1.3Zm16.1 44.3c-1.8 0-3.4-.4-5.1-.9 0-.2.1-.4.2-.6 1.1-2.8 2.9-5.2 5.1-7.2 2-1.8 4.3-3.2 6.9-4.3.2 0 .4-.1.5-.2.1 0 .2-.2.4-.3 2.2.5 4.3 1.3 6 2.9 1.1 1 1.9 2.1 2.5 3.5 0 .2.1.5.2.7 0 1.1-.3 2.1-.6 3.1 0 .3-.3.5-.5.8-.5.6-1 1.1-1.5 1.7-.5.6-1 1.1-1.5 1.7-.5.5-.8 1.1-1.2 1.8-.3.7-.8 1.4-1.3 2-.1.2-.4.3-.6.4-1.6.3-3.2.6-4.9.6-.7 0-1.3-.2-1.9-.5-1-.5-1.8-1.2-2.5-2-.2-.2-.4-.5-.5-.8-.3-.4-.3-.9 0-1.3 0-.1.2-.3.2-.4v-.5Zm-61.4-16.8c-1.5-.2-3 .2-4.5 0v-.9c-.1 0-.3-.1-.4-.2-.5-.3-.5-.5 0-.9.1-.1.3-.2.5-.4-.2-.3-.5-.6-.6-1 .1-.3.4-.4.7-.4.8-.2 1.6-.5 2.5-.6l1.8-.3c1-.1 2 0 3 .2 1.1.2 2.2.4 3.3.5 1.6.2 3.1 0 4.6-.3 1.6-.4 3.1-1 4.6-1.6.2-.1.4-.2.7-.3.7.7 2.8 4.7 3.1 5.6h-.4c-2.9.2-5.8.3-8.7.5-.7 0-1.4.1-2.1.2-.5 0-.9.1-1.3.5-.2.2-.4.3-.6.4-.5.3-1 .4-1.6.4-.7 0-1.4-.1-2.1-.2-1-.1-2 0-2.9.3-.4.2-.9.3-1.3.4-.3 0-.6.2-1 0 0-.1 0-.3.1-.4.2-.2.4-.3.6-.4.5-.2 1-.4 1.4-.7.2-.1.5-.2.7-.4Zm22.3 4.6c-1.6-4-3.6-7.7-5.8-11.3 0 0 0-.1.1-.2 1-.3 1.9-.8 2.8-1.4.4-.2.7-.5 1.1-.7.2-.1.5-.2.7-.2.3 0 .6 0 .8.3l.6.9c.4.9.8 1.7 1.2 2.6.9 2.2 1.7 4.4 2.3 6.6 0 .3.1.6.2.9.1.5 0 1-.4 1.3-.3.3-.7.5-1.1.7-.8.3-1.6.5-2.5.6Zm66.2-46.2.8-1c-.3-.2-.6-.4-.8-.7-.2-.1-.3-.4-.2-.6.2-.3.2-.5 0-.8 0-.1 0-.3.2-.3h1.8c.4 0 .8.1 1 .5.2.4.4.7.9.8.1 0 .2.2.3.4.2.5.3 1 .4 1.6 0 .3 0 .6-.4.8-.5.3-.9.7-1.4 1.1-.3.3-.6.5-1 .8-.2.2-.5.3-.8.4-.6.3-1.3.6-1.9.9-.8.4-1.4.9-1.9 1.7-1.6 2.2-3.3 4.3-4.6 6.6l-.2.2c-.6-1.1-1-3.6-1-6 .1-.1.3-.2.5-.4l3-2.1c.5-.4.8-.8.9-1.4 0-.6.4-1 1-1.2.3-.1.6-.3.9-.6l.2-.2c.7-.6 1.4-.8 2.4-.4Zm-82.9 67.3c-3.7.4-7.2 1.3-10.7 2.4l-3.3-3.1c1.3-1.5 7.9-4.8 10.4-5.1v.5c0 .5.2 1 .4 1.4.4.7.9 1.4 1.4 2 .4.5.9 1 1.3 1.5l.4.4Z"/>
    <path d="M214 163.2c0 .4-.3.5-.6.7-.9.7-2 1.3-3.1 1.6-.9.3-1.7 0-2.5-.6-.5-.4-.9-.9-1.2-1.4-.6-.9-.9-1.9-1.2-3-.5-1.8-.8-3.6-1-5.4v-.7c.8-.7 1.5-1.4 2.3-2.1.2-.2.5-.4.8-.5h.6v.9c0 1.4.2 2.7.5 4 .2.9.5 1.9 1 2.7.8 1.5 1.9 2.6 3.5 3.2.3.1.6.2.8.4l.1.2Zm-24.7 46.3c.2.2.4.5.6.7.9 1 2 1.7 3.3 1.9h.3c.8 0 1.5 0 2-.6.3-.4.7-.7 1.1-1 .1.2.3.3.4.5.4.5.7 1 1.1 1.5.4.5 1 .9 1.7.9.4 0 .9.1 1.3.2 1.1.1 1.5.6 1.3 1.7-.1.6-.4.9-1 .9h-6c-.9 0-1.7-.2-2.5-.6l-1.2-.6c-.7-.4-1.5-.9-2.2-1.3-.4-.2-.7-.4-1-.7-.6-.4-.7-1-.5-1.6.2-.7.7-1.3 1.3-1.8Zm-69.5 3.2c.6.4 3.1 2.8 3.5 3.3-.1.2-.3.4-.4.6-.1.2-.1.5-.2.7 0 .4-.3.7-.7.9-1.2.6-2.4 1.1-3.8 1.1h-2.6c-.5 0-.9 0-1.4-.3-.2-.1-.5-.3-.7-.5-.4-.4-.5-.8-.1-1.3.2-.3.5-.6.8-.9.6-.5 1.2-1 1.8-1.6l1.5-1.2c.5-.4 1-.7 1.6-.8.2 0 .4 0 .5-.1Z"/>
    <path d="M212.2 155.6c1.2 2 2.1 5.2 2 6.9-1.9-.5-3.4-1.5-4.2-3.3.3-.8 1.5-2.8 2.3-3.6Zm-16.5 54.7c0 .3-.2.3-.3.4-.3.2-.5.5-.8.7-.2.1-.4.1-.6.1-.8 0-1.5-.2-2.1-.6-.8-.5-1.5-1.1-2.1-1.9.1-.4 0-.9.4-1.4 1.5 1.6 3.3 2.8 5.6 2.6Zm-45.6-19c-1.2-1.1-2-2.4-2.6-3.7.3-.2.6-.2.9-.2.5.7 1.7 3.2 1.8 3.9Zm28.3 9.8h.2c.5.4 1 .8 1.6 1.2-.5.3-1 .5-1.4.8-.4.3-.8.5-1.2.8.3-.9.6-1.8 1-2.7Z"/>
  </g>
  <path fill="#2c2c2c" d="M167.5 211.3c-2.3 0-4.2 1.9-4.2 4.2s.3 1.8.8 2.5l3.4 5.9 3.4-5.9a4.23 4.23 0 0 0-3.4-6.7Zm0 6.2c-1 0-1.9-.8-1.9-1.9s.8-1.9 1.9-1.9 1.9.8 1.9 1.9-.8 1.9-1.9 1.9Z"/>
  <path fill="#bf6f06" d="M335 0v142.3c-46.9-27.1-104.8-43.1-167.5-43.1S46.9 115.2 0 142.3V0h335Z"/>
  <g fill="#fff" data-name="PRINT">
    <path d="M29.8 11.9c0 .6-.2 1.1-.6 1.5l-6.8 6.8-7.2-4.2v-4.1c0-1.2 1-2.1 2.1-2.1s2.1 1 2.1 2.1v5.2l6.7-6.7c.8-.8 2.2-.8 3 0 .4.4.6 1 .6 1.5Zm-.6 18.9c-.4.4-.9.6-1.5.6s-.6 0-.8-.2c-.3-.1-.5-.3-.7-.5l-2.3-2.3-4.4-4.4v5.2c0 1.2-1 2.1-2.1 2.1s-2.1-1-2.1-2.1v-4.1l7.2-4.2 4.5 4.5 2.3 2.3c.8.8.8 2.2 0 3Zm-7.1-10.3c0-.1-.1-.2-.2-.3l-1.8-1-4.9-2.8-4.1-2.4c-.2-.1-.5 0-.7.2v12.7c0 .3.2.5.5.5h.2l4.1-2.4 6.7-3.9s.1-.1.1-.2v-.3Zm-10.2-5 3.2 1.8 5.2 3s.1 0 .1.1v.3s0 .2-.2.2l-5.2 3-3.2 1.9c-.2 0-.4 0-.5-.1v-9.9c0-.2.2-.4.4-.4h.2Z"/>
    <path d="M19 20.7s0 .1-.1.2L15 23.2l-2.4 1.4c-.1 0-.3 0-.4-.1v-7.4c0-.2.1-.3.3-.3h.1l2.4 1.4 3.9 2.3s.1 0 .1.2v.2Zm45.9-.6-6-3-3.7-1.8c-.2-.1-.5 0-.6.2v10.1c.1.2.4.4.6.4h.4l3.4-1.9 2.1-1.1 3.8-2s.2-.1.2-.2v-.2c0-.1-.1-.2-.2-.2Zm-6 3-2.8 1.5c-.2 0-.4 0-.5-.1v-7.8c0-.2 0-.3.3-.3h.1l2.9 1.4 1 .5 3.6 1.8s.1 0 .2.2v.2s0 .1-.1.2L59 23.1Z"/>
    <path d="M62.3 20.5s0 .1-.1.1l-3.4 1.8-2.1 1.1h-.3v-5.9c0-.1 0-.2.2-.2h.1l2.1 1.1 3.5 1.7.1.1v.1Zm-23-5.1h-5.2v10.4h2.6v-3.4h2.7c2.5 0 4.3-1.5 4.3-3.6 0-2-1.9-3.5-4.4-3.4Zm-.2 4.9h-2.4v-2.9h2.4c1.2 0 2.1.5 2.1 1.4 0 .9-.8 1.5-2 1.5Zm14.3 5.5-8.2.1-.1-10.3h2.5l.1 8.3 5.7-.1v2zm16.8-3.9.1 3.7h-2.5l-.1-3.7-4.6-6.5 2.9-.1 2.9 4.5 3-4.5 2.7-.1-4.4 6.7zm15.3 4.2h-1.7l-4.4-4.7-1.8 1.7.1 3.1h-1.3l-.2-10.3h1.3l.1 5.7 5.8-5.8h1.7l-4.8 4.8 5.2 5.5zM92 15.6c-3.2 0-5.9 2.5-5.8 5.4 0 2.9 2.8 5.3 6 5.3s5.8-2.5 5.8-5.4c0-2.9-2.8-5.3-5.9-5.2Zm.4 9.6c-2.5.2-4.7-1.7-4.9-4.2.1-2.3 1.9-4.1 4.2-4.3 2.5-.2 4.7 1.7 4.9 4.2-.1 2.3-1.9 4.1-4.2 4.3Zm15.8-2c0 1.6-1.3 3-4 3-1.7 0-3.3-.5-4.5-1.6l.8-.9c1 .9 2.4 1.5 3.8 1.4 1.8 0 2.7-.9 2.7-1.8 0-1.1-1.1-1.5-3.1-1.9-2.3-.5-3.8-1.1-3.8-2.9 0-1.6 1.6-3 3.8-3 1.5 0 2.9.5 4 1.4l-.8.9c-.9-.8-2.1-1.3-3.3-1.3-1.4 0-2.4.9-2.4 1.8 0 1.1 1.1 1.4 3.1 1.8 2.2.4 3.8 1.1 3.8 2.9Zm13.7 2.9h-1.3l-.1-7.8-4.2 7.3-4.4-7.2.1 7.8h-1.3l-.1-10.3h1.3l4.4 7.1 4.1-7.2h1.3l.2 10.3zm8.2-10.5c-3.2 0-5.9 2.5-5.8 5.4 0 2.9 2.8 5.3 6 5.3s5.8-2.5 5.8-5.4c0-2.9-2.8-5.3-5.9-5.2Zm.4 9.6c-2.5.2-4.7-1.7-4.9-4.2.1-2.3 1.9-4.1 4.2-4.3 2.5-.2 4.7 1.7 4.9 4.2-.1 2.3-1.9 4.1-4.2 4.3Zm15.8-2c0 1.6-1.3 3-4 3-1.7 0-3.3-.5-4.5-1.6l.8-.9c1 .9 2.4 1.5 3.8 1.4 1.8 0 2.7-.9 2.7-1.8 0-1.1-1.1-1.5-3.1-1.9-2.3-.5-3.8-1.1-3.8-2.9 0-1.6 1.6-3 3.8-3 1.5 0 2.9.5 4 1.4l-.8.9c-.9-.8-2.1-1.3-3.3-1.3-1.4 0-2.5.9-2.4 1.8 0 1.1 1.2 1.4 3.1 1.8 2.2.4 3.8 1.1 3.8 2.9Z"/>
  </g>
  <g fill="#2c2c2c">
    <path d="M278.4 126.5s0 .1.2.1c.1 0 .2 0 .3.1 0 0 .2.1.3.2.4.1.7.4 1 .7.1.2.3.3.4.4 0 0 .1.1.1.2.2.3.2.5-.1.8-.1.1-.3.2-.4.3-.3.2-.4.3-.9.2l-.2.2v.1c.1.2.2.4.2.6 0 .1 0 .2.1.3 0 .2.1.4.3.5.1.2.2.3.3.5 0 0 .1.2.2.3l.7.7h.3l-.2.2c-.3.1-.5.1-.7.4-.3.2-.5.2-.8.3-.2 0-.5.2-.7.2h-.4v.2h-.2s0-.2-.2-.2h-.4c-.4 0-.8-.1-1.2-.2-.2 0-.3 0-.3.2-.2 0-.4-.1-.6-.2-.3-.2-.6-.3-.9-.5h-.3c0-.2-.2-.3-.4-.4-.3-.2-.5-.6-.8-.9v-.2s0-.1-.1-.2c-.1 0-.2-.2-.3-.4 0 0 0-.1-.1-.2-.2-.3-.3-.6-.3-.9v-.2c0-.1-.2-.3-.2-.4h-.1v-2c0-.5.2-.9.4-1.4h.1l.3-.6.6-.9c0-.1.2-.2.3-.3.1 0 .3-.2.4-.2 0 .1 0 .3-.1.3-.2.1-.3.2-.4.5 0 0 0 .1-.1.2 0 .1-.2.2-.3.3-.2.3-.4.6-.5 1-.2.4-.2.9-.3 1.3v.6c0 .6 0 1.1.2 1.7a5 5 0 0 0 1.8 2.7v-.2c.1 0 .2.2.3.2 0 0 .2.2.3 0v.2c.2-.1.2-.2.3-.3 0-.1.1-.2 0-.2s-.1 0-.2.1c0-.3 0-.7.4-.8.3-.2.5-.4.7-.6 0-.1.2-.3.3-.4.1 0 .1-.2 0-.3.2 0 .4 0 .4-.3v-.2c0-.2-.1-.4-.1-.6 0-.4-.2-.6-.5-.8-.3-.2-.6-.5-.9-.7-.5-.5-.6-.5-.8-1.1h-.5c-.1 0-.2 0-.2-.2v-.1l.2-.2c.2 0 .4.2.6.3.2.1.3.2.5.2h.2c.2.1.4.3.7.4.1 0 .3.2.4.2h.5s.1 0 .2.1h.2v-.2c0-.2-.2-.3-.2-.5h.1c0-.3-.2-.6 0-.9.2-.1.3 0 .5 0v-.2c.2 0 .2.2.4.2v1s0 .2.1.2c0-.1 0 0 0 0Zm-2.9 6.1v.3s0 .1.2.1v.2h.6c.3 0 .6 0 .8.1h1.9v-.1s.2 0 .3-.1c0 0 .2 0 .2-.1h-.3c-.1 0-.1-.2 0-.2 0 0 .2 0 .2-.2-.1-.2-.3-.1-.5 0l-.3-.8h-.2c-.2 0-.4 0-.6-.1l.8.8c0 .1-.2.2-.2.4-.1-.2-.3-.3-.4-.5-.1-.2-.3-.4-.6-.3v.6h-.4v-.6c-.3 0-.5.3-.7.4h-.6s.1-.2.2-.2h.3l.1-.1v-.2h-.7c-.1 0-.3.1-.4.2v.5Zm1-1.7c-.4.3-.8.4-1.1.7.2.1.2.1.3.1h.2c.3 0 .5-.2.7-.4v-.4Zm.2-.2h-.1l.1-.1Zm-.1-3.6Z"/>
    <path d="M272.2 128v-.6c0-.4 0-.9.3-1.3.2-.3.4-.7.5-1 0-.1.2-.2.3-.3 0 0 .1-.1.1-.2 0-.2.2-.4.4-.5.1 0 .2-.2.1-.3 0-.2.1-.3.3-.4.4-.3.8-.5 1.2-.7.5-.3 1-.4 1.6-.5.7 0 1.4 0 2 .1.2 0 .4 0 .6.1.2.3.6.3.9.4 0-.1-.1-.2-.2-.2-.2 0-.4-.2-.7-.3l-.7-.2h1.3c.2.2.3.2.4.4 0 0 .1.1.2.1.4.2.7.5 1.1.7 0 0 .1 0 .2.1.3.4.7.7.9 1.1 0 .1.2.3.2.4 0 .1.2.3.1.5-.3-.1-.3-.1-.5-.4-.3-.3-.5-.6-.9-.9-.7-.7-1.5-1.1-2.5-1.3-.8-.2-1.7-.2-2.5 0-.3 0-.6.1-.9.1-.3 0-.5.2-.7.3-.4.2-.7.5-1.1.7a5.12 5.12 0 0 0-1.8 2.9c0 .2 0 .5-.1.7v.3Zm-.6 1.2h.1c0 .1.2.2.2.4v.2c0 .3.1.6.3.9 0 0 0 .1.1.2 0 .1.1.3.3.4 0 0 0 .1.1.2v.2c.3.3.5.6.8.9.2 0 .3.2.4.4l.9.6c.3.1.6.3 1 .4.2 0 .4.1.6.2h.8c.2 0 .3.1.5.1 0 .1.2 0 .3 0h1c-.3.1-.6.2-.9.1h-.7v.1h.1c.7 0 1.4 0 2.1-.3h.5c-.4.2-.9.3-1.4.4-.6.1-1.2 0-1.8 0-.8-.2-1.6-.4-2.4-.8-1.1-.6-1.9-1.4-2.5-2.5 0 0 0-.2-.1-.3 0-.1.1-.2 0-.4 0-.1 0-.3-.1-.4v-1.3Z"/>
    <path d="M271.6 129.2v1.3c0 .1 0 .3.1.4v.4c-.3-.5-.5-1.1-.6-1.7-.2-1.2 0-2.4.4-3.5.1-.3.4-.7.5-1 .1-.2.2-.3.3-.5 0 0 0-.1.1-.2.2-.2.4-.4.7-.6.2-.1.3-.3.4-.4.1-.1.3-.2.5-.3.1 0 .2 0 .2-.2.3 0 .6-.2.8-.4h.3c.5-.2 1.1-.3 1.6-.4h2-.4c.3.1.5.2.7.3-.2 0-.4 0-.6-.1-.7-.2-1.4-.2-2-.1-.5 0-1.1.2-1.6.5-.4.2-.9.4-1.2.7-.1.1-.2.2-.3.4-.1 0-.3.1-.4.2-.1 0-.2.2-.3.3l-.6.9-.3.6h-.1c-.2.4-.3.9-.4 1.3 0 .2-.1.5 0 .7v1.3Zm8.5 5.2h-.5c-.7.2-1.4.3-2.1.3h-.1v-.1h.7c.3 0 .6 0 .9-.1h-1.3.3c.5 0 1.1-.2 1.6-.3.1 0 .3 0 .3-.2.2 0 .2-.1.2-.3.1 0 .2-.1.3-.1.2 0 .3 0 .3-.3l.2-.2v-.2l1.2-1.2c.3 0 .3 0 .4-.4v-.1h.2c0 .2 0 .4-.1.5-.5 1.1-1.2 2-2.2 2.6 0 0-.1 0-.1.2h-.6Zm1.6-1.4Zm.3-.5c.3-.3.4-.3.4-.6 0 .1-.2.2-.3.3v.2Zm-1.5 1.4c.4 0 .6-.3.9-.6v-.1c-.3.2-.5.3-.8.5 0 0 0 .1-.1.2Z"/>
    <path d="M280.7 134.2s0-.1.1-.2c1-.6 1.8-1.5 2.2-2.6 0-.1 0-.3.1-.5h-.2c.3-.4.4-.8.4-1.2v-1.3h.1v-.8c.1.2.1.2.2.7v2.1h.2c0 .1 0 .3-.1.5-.5 1.4-1.4 2.4-2.6 3.2-.2 0-.3.2-.5.2Zm-2.5-8.7c-.1 0-.1-.1-.2-.2v.2c-.3 0-.5-.2-.6 0-.1.3 0 .6 0 .9h-.1c0 .2.2.3.1.5-.3 0-.4-.2-.4-.5s0-.5-.1-.8v-.6c.4-.2.8-.2 1.1 0 .3.2.5.5.4.9v-.2s0-.2-.1-.3Zm-1.8 4.6v.3c-.1.1-.2.3-.3.4-.2.3-.4.5-.7.6-.3.1-.4.5-.4.8 0 0 0-.1.2-.1v.2s-.1.2-.2.3v-.2h-.4s-.1-.2-.2-.2c0-.4.2-.8.6-1 .3-.2.6-.4.8-.7.2-.2.3-.3.5-.4Zm.4-3.2h-.3c-.1 0-.3-.1-.4-.2-.2-.1-.4-.3-.7-.4h-.2c-.2 0-.3-.1-.5-.2l-.6-.3-.2.2c0-.2.1-.3.3-.2.3 0 .6.1.8.3 0 0 .2.1.3.2.3 0 .5.2.8.4.2.2.5.3.8.4Zm3-4.6h-.2c0-.1.1-.1.2-.1.2 0 .5.1.8.3h-.5v-.1h-.1Z"/>
    <path d="M278.2 125.5s0 .2.1.3v.2c-.2.2-.2.4 0 .6h-.1v-1Zm4.7 5.5c0 .3 0 .4-.4.4 0-.1.2-.2.3-.4h.1Zm-6.1-1.3v.2c0 .2-.2.3-.4.3.2 0 .3-.2.3-.4Zm.6-2.7c0 .1-.1.1-.2 0 0 0-.1 0-.2-.1h.4Z"/>
    <path d="M278.4 126.5c-.1-.2-.1-.4 0-.5v.4Zm2.1 7.8s0-.1.2 0h-.2Zm-.3.1h.2-.2Zm.1-.1h.2-.2Zm-6-1.9Zm8.7-1.5Zm-4.6-4.4Zm4.8-.8zm-8.8-2.8zm.8-.4zm3.6 10.5v-.2c0-.1.1-.2.2-.4l-.8-.8c.2 0 .4.1.6.2h.2l.3.6h.5c0 .1-.1 0-.2.2v.2h.3c0 .2-.2.1-.2.1s-.2 0-.3.1v-.1h-.1q0-.2-.2-.2Zm-1 1.3c-.2 0-.3 0-.5-.1h-.6c-.3 0-.6-.2-.8-.3 0-.1.2-.2.3-.2.4 0 .8.2 1.2.2h.4s.1 0 .2.2c0 0 0 .1-.1.2h-.1Z"/>
    <path d="M277.8 134.3h.1s.1 0 .1-.2h.2c.2 0 .3 0 .4-.2.3 0 .5 0 .7-.2.3 0 .5-.2.8-.3 0 .1 0 .2-.2.3 0 .1-.2.2-.3.2-.5.2-1 .3-1.6.3h-.3Zm-1.4-3.3v.4c0 .2-.3.4-.6.4h-.2c-.1 0-.1 0-.3-.1.3-.3.8-.4 1.1-.7Zm-.5 1.4-.2.3h-.2v-.5c0-.1.2-.2.4-.2h.7v.2l-.1.1h-.3c-.1 0-.2 0-.2.2Zm0 1.4c.3.2.5.3.8.3h-.2c-.2 0-.4 0-.6-.2-.3-.1-.6-.3-1-.4-.3-.1-.6-.4-.9-.6h.3c.3.2.6.4.9.5.2 0 .4.2.6.2Zm5.1-.7c0 .2-.1.3-.3.3h-.3c.1-.3.4-.3.7-.3Z"/>
    <path d="M275.5 132.7h.2v.4s-.1 0-.1-.1v-.3Zm3.2 1.2c-.1.1-.3.2-.4.2h.4Zm-2.8-.6h.6-.6Zm.8-2.5-.1.1h.1Zm-.1-3.6Zm1.8 6.7h-.2.2Zm2.8-1Zm-.1.1Zm-1.6-10.5c.2 0 .4.2.7.3 0 0 .2 0 .2.2-.3 0-.7-.1-.9-.4Zm.3-.2h.1v.1h-.2Zm.6.6Zm-.8-.7Zm.9 11.7s0-.2.1-.2c.3-.2.5-.3.8-.5v.1c-.3.2-.6.5-.9.6Zm1.5-1.4v-.2c0-.1.2-.2.3-.3 0 .3 0 .3-.4.6Zm-1.5 1.4Zm1.2-.9Zm0 0Zm.3-.5Zm-3.2.5q.2 0 .2.2c-.1 0-.2-.1-.2-.2Zm.5.3v.1Zm0 0h-.1.1Zm-.2-.1Zm-.4-.3Zm1.3.9Z"/>
  </g>
  <path fill="none" stroke="#2c2c2c" stroke-miterlimit="1" stroke-width="2" d="M145.3 300.9v22.2m80.1-22.2v22.2"/>
  <path fill="none" stroke="#2c2c2c" stroke-miterlimit="10" stroke-width="2" d="M5.2 289.3V225m323.5 64.3v-64.7m0 64.7H5.2"/>
  <circle cx="62.8" cy="192.9" r="28.5" fill="#2c2c2c"/>
  <rect width="93" height="20.4" x="16.3" y="182.7" fill="#2c2c2c" rx="10.2" ry="10.2"/>
</svg>
