<?xml version="1.0" encoding="UTF-8"?>
<svg id="uuid-6b891e76-3c27-447b-95b1-5fa01fe9da3b" data-name="uuid-f803b7ed-133f-4b24-b38e-7331a2921d81" xmlns="http://www.w3.org/2000/svg" width="335" height="335" xmlns:xlink="http://www.w3.org/1999/xlink" viewBox="0 0 335 335">
  <defs>
    <radialGradient id="uuid-6dbbeeef-2a92-437c-a59b-79419d311c8b" cx="218.48" cy="732.44" fx="218.48" fy="732.44" r="193.88" gradientTransform="translate(-61.16 -380.71) scale(1.05 .75)" gradientUnits="userSpaceOnUse">
      <stop offset="0" stop-color="#00a551"/>
      <stop offset=".57" stop-color="#007f42"/>
      <stop offset="1" stop-color="#006838"/>
    </radialGradient>
    <radialGradient id="uuid-bed9d995-a0b3-4a2e-852c-a423c385e16f" cx="218.48" cy="732.44" fx="218.48" fy="732.44" r="193.88" gradientTransform="translate(-61.16 -380.71) scale(1.05 .75)" gradientUnits="userSpaceOnUse">
      <stop offset="0" stop-color="#00a551" stop-opacity=".8"/>
      <stop offset=".15" stop-color="#009b4d" stop-opacity=".83"/>
      <stop offset="1" stop-color="#006838"/>
    </radialGradient>
    <clipPath id="uuid-7205490c-b5c3-4eca-a5ec-9af2ee80b9b7">
      <rect width="335" height="335" fill="none"/>
    </clipPath>
    <clipPath id="uuid-397445cc-dc62-431c-a1c4-b87ed54fc3df">
      <path d="M280.46,22.09l-18.01,30.15c-1.88,3.14-.84,7.22,2.3,9.11l30.15,18.01c3.14,1.88,7.22,.84,9.11-2.2h0l18.01-30.25c1.88-3.14,.84-7.22-2.2-9.11h0l-30.15-18.01c-3.14-1.88-7.22-.84-9.11,2.2h0l-.1,.1Z" fill="none"/>
    </clipPath>
    <clipPath id="uuid-6f3d3830-7cdb-43d3-bbe4-9ceb5c296a05">
      <rect x="286.28" y="43.63" width="12.14" height="12.04" rx=".31" ry=".31" transform="translate(29.46 186.86) rotate(-37.2)" fill="none"/>
    </clipPath>
    <linearGradient id="uuid-b999a95e-3d8c-4d27-9017-c1257aaad771" x1="251.49" y1="971.5" x2="246.46" y2="957.68" gradientTransform="translate(2.85 -973.95) rotate(6.34)" gradientUnits="userSpaceOnUse">
      <stop offset="0" stop-color="#82c100"/>
      <stop offset=".1" stop-color="#87c507"/>
      <stop offset="1" stop-color="#b2e241"/>
    </linearGradient>
  </defs>
  <g>
    <path d="M0,0H335V335H0V0Z" fill="url(#uuid-6dbbeeef-2a92-437c-a59b-79419d311c8b)"/>
    <path d="M282.03,229.16c29.1,0,52.66,23.55,52.66,52.66s-23.55,52.66-52.66,52.66-52.66-23.55-52.66-52.66h0v-7.54h-41.46v-60.3h26.17l-46.48-46.59-46.69,46.59h26.38v105.42h40.62v-60.09h46.59c8.69-18.43,27.22-30.15,47.63-30.15h-.1Zm0,13.19c21.88,0,39.68,17.59,39.68,39.47s-17.59,39.68-39.47,39.68-39.68-17.59-39.68-39.47h0c0-21.88,17.59-39.68,39.36-39.68h.1Z" fill="#ffcc05" fill-rule="evenodd"/>
    <path d="M167.5,167.5l-46.59,46.59h26.28v120.5h187.5V187.81h-120.7v26.28l-46.48-46.59Z" fill="none" stroke="#000" stroke-miterlimit="19.9" stroke-width=".42"/>
    <path d="M147.19,214.09h66.9l15.08,14.97m-81.97,0h82.08m-82.08,15.08h82.08m-82.08,15.08h82.08m-82.08,14.97h82.08m-82.08,15.08h82.08m-82.08,15.08h82.08m-82.08,14.97h82.08m-41.46-105.42v120.91m41.35-147.19v41.35m15.08-41.35v41.35m14.97-41.35v41.35m15.08-41.35v41.35m15.08-41.35v41.35m14.97-41.35v41.35m15.08-41.35v41.35" fill="none" stroke="#000" stroke-miterlimit="19.9" stroke-width=".42"/>
    <path d="M334.9,229.16l-.21,.21h-105.42v-.42h105.42l.21,.21h0Zm-.21-.21h.21v.21l-.21-.21Zm0,105.94l-.21-.21v-105.52h.42v105.52l-.21,.21Zm.21-.21v.21h-.21l.21-.21Zm-105.84,0l.21-.21h105.42v.42h-105.42l-.21-.21h0Zm.21,.21h-.21v-.21l.21,.21Zm0-105.94l.21,.21v105.52h-.42v-105.52l.21-.21Zm-.21,.21v-.21h.21l-.21,.21Z"/>
    <path d="M229.16,52.97C229.16,23.87,252.82,.31,281.92,.31s52.66,23.55,52.66,52.66-23.55,52.66-52.66,52.66h-7.54v41.46h-60.3v-26.17l-46.59,46.48,46.59,46.69v-26.38h105.42v-40.62h-60.09v-46.48c-18.43-8.79-30.15-27.32-30.15-47.74l-.1,.1Zm13.19,0c0-21.88,17.59-39.68,39.47-39.68s39.68,17.59,39.68,39.47-17.59,39.68-39.47,39.68h-.21c-21.77,0-39.47-17.69-39.47-39.47Z" fill="#243e8f" fill-rule="evenodd"/>
    <path d="M167.5,167.5l46.59,46.59v-26.28h120.5V.31H187.81V121.02h26.28l-46.59,46.48Z" fill="none" stroke="#000" stroke-miterlimit="19.9" stroke-width=".42"/>
    <path d="M214.09,187.81V120.91l14.97-15.08m0,81.97V105.73m15.08,82.08V105.84m15.08,81.97V105.84m14.97,81.97V105.84m15.08,81.97V105.84m15.08,81.97V105.84m14.97,81.97V105.84m-105.42,41.35h120.91m-147.19-41.35h41.35m-41.35-15.08h41.35m-41.35-14.97h41.35m-41.35-15.08h41.35m-41.35-15.08h41.35m-41.35-14.97h41.35m-41.35-15.08h41.35" fill="none" stroke="#000" stroke-miterlimit="19.9" stroke-width=".42"/>
    <path d="M229.16,0l.21,.21V105.73h-.42V.31l.21-.21v-.1Zm-.21,.21v-.21h.21l-.21,.21Zm105.94,.1l-.21,.21h-105.52V0h105.52l.21,.21v.1Zm-.21-.21h.21v.21l-.21-.21Zm0,105.84l-.21-.21V.31h.42V105.73l-.21,.21h0Zm.21-.21v.21h-.21l.21-.21Zm-105.94,0l.21-.21h105.52v.42h-105.52l-.21-.21Zm.21,.21h-.21v-.21l.21,.21Z"/>
    <path d="M52.97,105.84C23.87,105.84,.31,82.18,.31,53.08S23.87,.42,52.97,.42s52.66,23.55,52.66,52.66h0v7.54h41.46v60.2h-26.17l46.48,46.69,46.69-46.69h-26.38V15.49h-40.62v60.09h-46.48c-8.79,18.42-27.32,30.15-47.74,30.15l.1,.1Zm0-13.19c-21.88,0-39.68-17.59-39.68-39.47S30.88,13.5,52.76,13.5s39.68,17.59,39.68,39.47v.21c0,21.77-17.69,39.47-39.47,39.47Z" fill="#ec2024" fill-rule="evenodd"/>
    <path d="M167.5,167.5l46.59-46.59h-26.28V.42H.31V147.19H121.02v-26.28l46.48,46.59Z" fill="none" stroke="#000" stroke-miterlimit="19.9" stroke-width=".42"/>
    <path d="M187.81,120.91H120.91l-15.08-14.97m81.97,0H105.73m82.08-15.07H105.84m81.97-15.08H105.84m81.97-14.97H105.84m81.97-15.08H105.84m81.97-14.97H105.84m81.97-15.08H105.84m41.35,105.42V0m-41.35,147.19v-41.35m-15.08,41.35v-41.35m-14.97,41.35v-41.35m-15.08,41.35v-41.35m-15.08,41.35v-41.35m-14.97,41.35v-41.35m-15.08,41.35v-41.35" fill="none" stroke="#000" stroke-miterlimit="19.9" stroke-width=".42"/>
    <path d="M0,105.84l.21-.21H105.73v.42H.31l-.21-.21h-.1Zm.21,.21h-.21v-.21l.21,.21ZM.31,0l.21,.21V105.84H0V.31l.31-.31Zm-.31,.31v-.31H.31l-.31,.31ZM105.94,.31l-.21,.21H.31V0H105.73l.21,.21v.1Zm-.21-.21h.21v.21l-.21-.21Zm0,105.94l-.21-.21V.31h.42V105.84l-.21,.21Zm.21-.21v.21h-.21l.21-.21Z"/>
    <path d="M105.84,282.03c0,29.1-23.55,52.66-52.66,52.66S.42,311.13,.42,282.03s23.55-52.66,52.66-52.66h7.54v-41.46h60.2v26.17l46.69-46.48-46.59-46.69v26.38H15.49v40.62h60.09v46.59c18.42,8.69,30.15,27.22,30.15,47.63l.1-.1Zm-13.19,0c0,21.88-17.59,39.68-39.47,39.68s-39.68-17.59-39.68-39.47,17.59-39.68,39.47-39.68h.21c21.77,0,39.47,17.69,39.47,39.47Z" fill="#69bc45" fill-rule="evenodd"/>
    <path d="M167.5,167.5l-46.59-46.59v26.28H.42v187.5H147.19v-120.7h-26.28l46.59-46.48Z" fill="none" stroke="#000" stroke-miterlimit="19.9" stroke-width=".42"/>
    <path d="M120.91,147.19v66.9l-14.97,15.08m0-81.97v82.08m-15.07-82.08v82.08m-15.08-82.08v82.08m-14.97-82.08v82.08m-15.08-82.08v82.08m-14.97-82.08v82.08m-15.08-82.08v82.08m105.42-41.46H0m147.19,41.35h-41.35m41.35,15.08h-41.35m41.35,14.97h-41.35m41.35,15.08h-41.35m41.35,15.08h-41.35m41.35,14.97h-41.35m41.35,15.08h-41.35" fill="none" stroke="#000" stroke-miterlimit="19.9" stroke-width=".42"/>
    <path d="M105.84,334.9l-.21-.21v-105.42h.42v105.42l-.21,.21Zm.21-.21v.21h-.21l.21-.21Zm-106.05,0l.21-.21H105.84v.42H.31l-.21-.21h-.1Zm.21,.21h-.21v-.21l.21,.21Zm.1-105.84l.21,.21v105.42H0v-105.42l.21-.21h.1Zm-.21,.21v-.21h.21l-.21,.21Zm105.94,0l-.21,.21H.31v-.42H105.84l.21,.21Zm-.21-.21h.21v.21l-.21-.21Z"/>
    <path d="M167.5,321.91c3.14,0,5.55,2.51,5.55,5.55s-2.51,5.55-5.55,5.55-5.55-2.51-5.55-5.55,2.51-5.55,5.55-5.55h0Z" fill="#653614" fill-rule="evenodd" stroke="#000" stroke-miterlimit="19.9" stroke-width=".42"/>
    <path d="M207.6,261.4c3.14,0,5.55,2.51,5.55,5.55h0c0,3.04-2.51,5.55-5.55,5.55s-5.55-2.51-5.55-5.55,2.51-5.55,5.55-5.55Z" fill="#fff" fill-rule="evenodd" stroke="#000" stroke-miterlimit="19.9" stroke-width=".42"/>
    <path d="M267.06,202.88c3.14,0,5.55,2.51,5.55,5.55s-2.51,5.55-5.55,5.55-5.55-2.51-5.55-5.55,2.41-5.55,5.55-5.55h0Zm54.75-35.38c0-3.14,2.51-5.55,5.55-5.55s5.55,2.51,5.55,5.55-2.51,5.55-5.55,5.55-5.55-2.51-5.55-5.55h0Z" fill="#653614" fill-rule="evenodd" stroke="#000" stroke-miterlimit="19.9" stroke-width=".42"/>
    <path d="M261.51,127.3c0-3.14,2.51-5.55,5.65-5.55s5.55,2.51,5.55,5.65-2.51,5.55-5.65,5.55h0c-3.04,0-5.55-2.51-5.55-5.65Z" fill="#fff" fill-rule="evenodd" stroke="#000" stroke-miterlimit="19.9" stroke-width=".42"/>
    <path d="M202.99,67.94c0-3.14,2.51-5.55,5.55-5.55s5.55,2.51,5.55,5.55-2.51,5.55-5.55,5.55-5.55-2.51-5.55-5.55h0ZM167.5,13.19c-3.04,0-5.55-2.51-5.55-5.55s2.51-5.55,5.65-5.55,5.55,2.51,5.55,5.55-2.51,5.55-5.55,5.55h-.1Z" fill="#653614" fill-rule="evenodd" stroke="#000" stroke-miterlimit="19.9" stroke-width=".42"/>
    <path d="M127.4,73.49c-3.14,0-5.55-2.51-5.55-5.55s2.51-5.55,5.55-5.55,5.55,2.51,5.55,5.55-2.51,5.55-5.55,5.55Z" fill="#fff" fill-rule="evenodd" stroke="#000" stroke-miterlimit="19.9" stroke-width=".42"/>
    <path d="M67.94,132.01c-3.04,0-5.55-2.51-5.55-5.55s2.51-5.55,5.55-5.55,5.55,2.51,5.55,5.55-2.51,5.55-5.55,5.55ZM13.19,167.5c0,3.04-2.51,5.55-5.55,5.55s-5.55-2.51-5.55-5.65,2.51-5.55,5.55-5.55,5.55,2.51,5.55,5.55h0v.1Z" fill="#653614" fill-rule="evenodd" stroke="#000" stroke-miterlimit="19.9" stroke-width=".42"/>
    <path d="M73.6,207.6c0,3.14-2.51,5.55-5.55,5.55s-5.55-2.51-5.55-5.55,2.51-5.55,5.55-5.55,5.55,2.51,5.55,5.55h0Z" fill="#fff" fill-rule="evenodd" stroke="#000" stroke-miterlimit="19.9" stroke-width=".42"/>
    <path d="M132.01,266.95c0,3.14-2.51,5.55-5.55,5.55s-5.55-2.51-5.55-5.55,2.51-5.55,5.55-5.55,5.55,2.51,5.55,5.55h0Z" fill="#653614" fill-rule="evenodd" stroke="#000" stroke-miterlimit="19.9" stroke-width=".42"/>
    <path d="M0,0H335V335H0V0Z" fill="url(#uuid-bed9d995-a0b3-4a2e-852c-a423c385e16f)"/>
    <g clip-path="url(#uuid-7205490c-b5c3-4eca-a5ec-9af2ee80b9b7)">
      <g>
        <rect x="210.11" y="172.42" width="117.04" height="117.04" rx="10.15" ry="10.15" fill="#231f20"/>
        <rect x="214.61" y="177.03" width="107.93" height="107.93" rx="9.42" ry="9.42" fill="#fff100"/>
        <rect x="218.27" y="182.58" width="98.72" height="98.72" rx="8.58" ry="8.58" fill="#231f20"/>
        <rect x="219.32" y="181.63" width="98.72" height="98.72" rx="8.58" ry="8.58" fill="#1be7ff"/>
        <g>
          <path d="M279.31,19.26l-19.79,33.29c-1.99,3.45-.94,7.85,2.51,10.05l33.29,19.79c3.45,1.99,7.96,.84,10.05-2.62l19.79-33.19c1.99-3.45,.94-7.85-2.51-10.05l-33.29-19.79c-3.35-2.09-7.85-1.05-9.95,2.3h0l-.1,.21Z" fill="#ffdd15"/>
          <path d="M281.61,22.19l-18.01,30.15c-1.88,3.14-.84,7.22,2.3,9.21l30.15,18.01c3.14,1.88,7.22,.84,9.11-2.3l18.01-30.15c1.88-3.14,.84-7.22-2.2-9.11h0l-30.15-18.01c-3.14-1.78-7.12-.84-9.11,2.2h-.1Z" fill="#231f20"/>
          <g clip-path="url(#uuid-397445cc-dc62-431c-a1c4-b87ed54fc3df)">
            <g>
              <path d="M250.94,44.07l47.11-35.8,35.7,47.11-47.11,35.7-35.7-47.11v.1Z" fill="#fff"/>
              <path d="M253.97,44.39l43.76-33.19,33.19,43.76-43.76,33.19-33.19-43.76Z" fill="#cad4d8"/>
              <path d="M297.63,10.99l33.4,43.86-43.97,33.29-33.29-43.86,43.86-33.29Zm32.98,43.86l-32.98-43.55-43.55,32.98,33.08,43.55,43.55-32.98h-.1Z" fill="#231f20"/>
              <rect x="260.25" y="36.25" width="21.04" height="20.94" rx=".31" ry=".31" transform="translate(26.85 173.21) rotate(-37.2)" fill="#2a9149"/>
              <path d="M273.02,32.24l12.25,16.23s.1,.42,0,.52h0l-16.23,12.35h-.63l-12.25-16.33v-.63l16.33-12.25h.63l-.1,.1Zm-4.4,28.89h.31l16.23-12.35v-.31h0l-12.25-16.23h-.31l-16.23,12.25v.31h0l12.25,16.23v.1Z" fill="#231f20"/>
              <rect x="264.69" y="41.54" width="13.19" height="13.19" rx=".31" ry=".31" transform="translate(25.44 172.53) rotate(-36.9)" fill="#fff"/>
              <path d="M272.19,37.58l7.75,10.05v.63l-10.05,7.64h-.52l-7.64-10.05v-.63l10.05-7.75h.63l-.21,.1Zm-2.93,18.11h.31l10.05-7.75v-.21l-7.64-10.05h-.21l-10.05,7.64v.31h0l7.64,10.05h-.1Z" fill="#231f20"/>
              <circle cx="270.09" cy="50.77" r="1.99" fill="#2a9149"/>
              <path d="M271.77,49.52c.73,.94,.52,2.3-.42,3.04s-2.3,.52-2.93-.42c-.73-.94-.52-2.3,.42-2.93,.94-.63,2.2-.52,2.93,.42v-.1Zm-3.25,2.41c.63,.84,1.88,1.05,2.72,.42s.94-1.88,.31-2.62h0c-.73-.84-1.88-.84-2.72-.1-.63,.63-.84,1.57-.31,2.41v-.1Z" fill="#231f20"/>
              <path d="M268.73,51.82l.63-1.05-.63-1.05h1.15l.84-.73,.21,1.15,1.05,.52-1.05,.63-.21,1.15-.84-.94-1.15,.21v.1Z" fill="#fff"/>
              <path d="M272.19,50.67l-1.15,.73-.21,1.26-1.05-1.05-1.26,.31,.63-1.26-.73-1.15,1.36,.21,.94-1.05,.21,1.26,1.26,.63v.1Zm-1.36-.42l-.21-1.05-.73,.73h-1.05l.52,.94-.52,.94,1.05-.21,.84,.73v-1.05l.94-.52-.84-.52Z" fill="#231f20"/>
              <circle cx="266.64" cy="46.17" r="1.99" fill="#2a9149"/>
              <path d="M268.31,44.91c.73,.94,.52,2.2-.42,2.93s-2.2,.52-2.93-.42c-.63-.94-.52-2.2,.42-2.93,.94-.63,2.2-.52,2.93,.42h0Zm-3.25,2.41c.52,.94,1.67,1.15,2.62,.63s1.15-1.67,.63-2.62c0-.1-.1-.21-.21-.31-.63-.84-1.67-.94-2.51-.31h0c-.84,.73-.94,1.78-.42,2.62h-.1Z" fill="#231f20"/>
              <path d="M265.17,47.21l.63-1.05-.63-1.15,1.15,.21,.84-.84,.21,1.15,1.05,.52-1.05,.63-.21,1.15-.84-.84-1.15,.21Z" fill="#fff"/>
              <path d="M268.73,46.06l-1.15,.63-.21,1.36-1.05-1.05-1.26,.31,.63-1.15-.63-1.15,1.26,.21,1.05-1.05,.21,1.26,1.15,.63Zm-1.47-.42v-1.05l-.73,.73h-1.05l.52,.94-.52,.94,1.05-.21,.73,.73,.21-1.05,.94-.52-1.15-.52Z" fill="#231f20"/>
              <circle cx="274.7" cy="47.32" r="1.99" fill="#2a9149"/>
              <path d="M276.37,45.96c.73,.94,.52,2.3-.42,3.04s-2.2,.52-2.93-.42h0c-.63-1.05-.52-2.3,.42-2.93,.94-.73,2.2-.52,2.93,.31h0Zm-3.25,2.51c.63,.84,1.88,1.05,2.72,.42s.94-1.88,.31-2.62h0c-.63-.84-1.78-.94-2.62-.31s-.94,1.67-.31,2.51h-.1Z" fill="#231f20"/>
              <path d="M273.34,48.37l.63-1.15-.63-1.05h1.15l.84-.73,.21,1.15,1.05,.52-1.05,.63-.21,1.15-.84-.94-1.15,.31v.1Z" fill="#fff"/>
              <path d="M276.79,47.21l-1.15,.63-.21,1.36-1.05-1.05-1.26,.31,.63-1.26-.73-1.15,1.36,.21,.94-1.05,.21,1.36,1.26,.63Zm-1.36-.42l-.21-1.05-.73,.84-1.05-.21,.52,.94-.52,.94,1.05-.21,.84,.73v-1.05l.94-.52-.84-.42Z" fill="#231f20"/>
              <g>
                <circle cx="271.25" cy="42.71" r="1.99" fill="#2a9149"/>
                <path d="M272.92,41.35c.63,.94,.42,2.2-.52,2.83s-2.2,.42-2.83-.52c-.63-.94-.42-2.09,.52-2.72,.94-.52,2.09-.42,2.83,.42h0Zm-3.14,2.51c.63,.84,1.78,.94,2.62,.42,.84-.73,.94-1.88,.31-2.72-.63-.73-1.78-.94-2.62-.31s-.94,1.78-.42,2.62h.1Z" fill="#231f20"/>
                <g>
                  <path d="M269.78,43.65l.63-1.05-.63-1.15,1.15,.21,.84-.84,.21,1.15,1.05,.52-1.05,.63-.21,1.15-.84-.84-1.15,.21Z" fill="#fff"/>
                  <path d="M273.34,42.61l-1.15,.63-.21,1.36-1.05-1.05-1.26,.21,.63-1.15-.73-1.15,1.36,.21,.94-1.05,.21,1.26,1.26,.63v.1Zm-1.47-.42v-1.05l-.73,.73h-1.05l.52,.94-.52,.94,1.05-.21,.84,.73v-1.05l.94-.52-1.05-.52Z" fill="#231f20"/>
                </g>
              </g>
              <g>
                <rect x="278.87" y="60.91" width="21.04" height="20.94" rx=".31" ry=".31" transform="translate(15.73 189.49) rotate(-37.2)" fill="#f2200a"/>
                <path d="M291.66,56.85l12.25,16.33v.63l-16.23,12.25h-.63l-12.25-16.23v-.63l16.23-12.25s.42-.21,.52,0h0l.1-.1Zm-4.4,28.89h.21l16.33-12.25v-.21l-12.25-16.23h-.31l-16.23,12.35v.21l12.25,16.23v-.1Z" fill="#231f20"/>
                <g>
                  <rect x="282.84" y="64.86" width="13.19" height="13.19" rx=".31" ry=".31" transform="translate(15.69 189.53) rotate(-37.2)" fill="#fff"/>
                  <path d="M290.93,62.18l7.75,10.05v.63l-10.05,7.75s-.31,.1-.42,0h0l-7.75-10.26v-.63l10.05-7.64h.52l-.1,.1Zm-2.93,18.11h.21l10.05-7.64v-.21l-7.54-10.05h-.31l-10.05,7.54v.21l7.64,10.05v.1Z" fill="#231f20"/>
                  <g>
                    <circle cx="288.94" cy="75.37" r="1.99" fill="#f2200a"/>
                    <path d="M290.51,74.22c.52,1.05,.1,2.3-.94,2.83-.84,.42-1.78,.31-2.41-.31-.73-.94-.52-2.3,.42-3.04,.94-.63,2.2-.52,2.93,.42h0v.1Zm-3.14,2.51c.63,.73,1.78,.94,2.62,.31s.94-1.67,.31-2.51h0c-.42-1.05-1.57-1.47-2.51-.94-.94,.42-1.36,1.57-.94,2.51,.1,.31,.31,.52,.52,.63Z" fill="#231f20"/>
                    <path d="M287.37,76.53l.63-1.15-.63-1.05,1.15,.21,.84-.94,.21,1.15,1.05,.52-1.05,.52-.21,1.15-.84-.84-1.15,.21h0v.21Z" fill="#fff"/>
                    <path d="M290.93,75.37l-1.15,.63-.21,1.26-1.05-1.05-1.26,.31,.63-1.15-.73-1.15,1.36,.21,.94-1.05,.21,1.26,1.26,.73Zm-1.36-.42l-.21-1.05-.73,.73h-1.05l.52,.94-.42,.94,1.05-.21,.73,.73v-1.05l.94-.52-.84-.52Z" fill="#231f20"/>
                    <g>
                      <circle cx="285.27" cy="70.77" r="1.99" fill="#f2200a"/>
                      <path d="M286.95,69.51c.73,.94,.52,2.2-.42,2.93s-2.2,.52-2.93-.42c-.63-.94-.52-2.2,.42-2.93s2.3-.52,3.04,.42h-.1Zm-3.25,2.41c.42,.94,1.57,1.36,2.51,.94s1.36-1.57,.94-2.51c-.1-.21-.31-.42-.42-.63-.63-.84-1.78-.94-2.62-.42-.84,.63-.94,1.67-.31,2.51h0l-.1,.1Z" fill="#231f20"/>
                      <g>
                        <path d="M283.91,71.92l.63-1.15-.63-1.05,1.15,.21,.84-.94,.21,1.15,1.05,.52-1.05,.52-.21,1.15-.84-.94-1.15,.31v.21Z" fill="#fff"/>
                        <path d="M287.37,70.66l-1.15,.73-.21,1.26-1.05-1.05-1.26,.31,.63-1.15-.73-1.15,1.36,.21,.94-1.05,.21,1.26,1.26,.63Zm-1.36-.42l-.21-1.05-.73,.84-1.05-.21,.52,.94-.42,.94,1.05-.21,.73,.73v-1.05l.94-.52-.84-.42Z" fill="#231f20"/>
                      </g>
                    </g>
                    <g>
                      <circle cx="293.54" cy="71.92" r="1.99" fill="#f2200a"/>
                      <path d="M295.11,70.66c.73,.94,.52,2.2-.31,2.93-.94,.73-2.2,.52-2.93-.31-.73-.94-.52-2.2,.31-2.93h0c.84-.73,2.09-.63,2.83,.21h0l.1,.1Zm-3.14,2.51c.63,.84,1.78,.94,2.62,.31s.94-1.78,.31-2.62-1.78-.94-2.62-.42c-.84,.63-1.05,1.78-.42,2.62h0l.1,.1Z" fill="#231f20"/>
                      <g>
                        <path d="M292.08,72.97l.52-1.15-.63-1.05,1.15,.21,.84-.94,.21,1.15,1.15,.52-1.15,.52v1.15l-1.05-.84-1.15,.21h0l.1,.21Z" fill="#fff"/>
                        <path d="M295.53,71.92l-1.15,.63-.21,1.26-1.05-1.05-1.26,.31,.63-1.15-.63-1.15,1.26,.21,.94-1.05,.21,1.26,1.26,.73Zm-1.36-.52l-.21-1.05-.73,.84-1.05-.21,.52,.94-.52,.94,1.05-.21,.84,.73v-1.05l.94-.52-.84-.42Z" fill="#231f20"/>
                      </g>
                    </g>
                    <g>
                      <circle cx="289.88" cy="67.31" r="1.99" fill="#f2200a"/>
                      <path d="M291.55,65.95c.73,.94,.52,2.3-.42,3.04s-2.2,.52-2.93-.42h0c-.63-1.05-.42-2.3,.42-2.93,.94-.73,2.2-.52,2.93,.31h0Zm-3.14,2.51c.63,.84,1.78,1.05,2.62,.42s1.05-1.78,.42-2.62-1.78-1.05-2.62-.42h0c-.84,.63-.94,1.78-.42,2.62h0Z" fill="#231f20"/>
                      <g>
                        <path d="M288.62,68.36l.52-1.15-.63-1.05,1.15,.21,.84-.94,.21,1.15,1.05,.52-1.05,.52v1.15l-1.05-.94-1.15,.31,.1,.21Z" fill="#fff"/>
                        <path d="M291.97,67.21l-1.15,.73-.21,1.26-1.05-1.05-1.26,.31,.63-1.15-.73-1.15,1.36,.21,.94-1.05,.21,1.26,1.26,.63Zm-1.47-.42v-1.05l-.73,.84-1.05-.21,.52,.94-.52,.94,1.05-.21,.84,.73v-1.05l.94-.52-1.05-.42Z" fill="#231f20"/>
                      </g>
                    </g>
                  </g>
                </g>
              </g>
              <g>
                <rect x="284.87" y="17.5" width="21.04" height="20.94" rx=".31" ry=".31" transform="translate(43.19 184.28) rotate(-37.2)" fill="#ffc50b"/>
                <path d="M297.63,13.5l12.35,16.23v.63l-16.33,12.25s-.31,.1-.42,0h0l-12.35-16.33v-.63l16.23-12.25s.42-.21,.52,0h0v.1Zm-4.4,29h.31l16.23-12.25v-.31h0l-12.25-16.23h-.31l-16.23,12.25v.31h0l12.25,16.23Z" fill="#231f20"/>
                <g>
                  <rect x="288.73" y="21.45" width="13.19" height="13.19" rx=".31" ry=".31" transform="translate(43.13 184.26) rotate(-37.2)" fill="#fff"/>
                  <path d="M296.89,18.95l7.64,10.05v.63l-10.05,7.64h-.63l-7.64-10.15s-.21-.42,0-.52h0l10.05-7.64h.63Zm-2.93,18.11h.21l10.05-7.64v-.31h0l-7.64-10.15h-.21l-10.05,7.64v.31h0l7.64,10.15Z" fill="#231f20"/>
                  <g>
                    <circle cx="294.8" cy="32.03" r="1.99" fill="#ffc50b"/>
                    <path d="M296.47,30.78c0,1.15-.94,2.09-2.09,2.09h0c-1.15,0-2.09-.94-2.09-2.09h0c0-1.26,.94-2.2,2.09-2.2h0c1.15,0,2.2,.94,2.2,2.09h0l-.1,.1Zm-3.25,2.51c.63,.84,1.78,1.05,2.62,.42s1.05-1.78,.42-2.62-1.78-1.05-2.62-.42h0c-.84,.63-.94,1.78-.42,2.62Z" fill="#231f20"/>
                    <path d="M293.44,33.08l.52-1.05-.52-1.15,1.15,.21,.84-.94,.21,1.15,1.15,.52-1.05,.52-.21,1.15-.84-.84-1.15,.21-.1,.21Z" fill="#fff"/>
                    <path d="M296.89,32.03l-1.26,.63v1.36l-1.05-1.05-1.36,.31,.73-1.26-.73-1.15,1.26,.21,1.05-1.05,.21,1.36,1.15,.63Zm-1.47-.42l-.21-1.05-.63,.73h-1.05l.52,.84-.52,1.05,1.05-.21,.73,.73v-1.05l.94-.52-.84-.52Z" fill="#231f20"/>
                    <g>
                      <circle cx="291.35" cy="27.43" r="1.99" fill="#ffc50b"/>
                      <path d="M293.02,26.17c.63,.94,.52,2.2-.42,2.93-.94,.63-2.2,.52-2.93-.42-.73-.94-.52-2.3,.42-3.04,.94-.63,2.2-.52,2.93,.42h0v.1Zm-3.25,2.51c.63,.84,1.88,1.05,2.72,.42s.94-1.78,.42-2.62-1.67-1.05-2.51-.52h-.21c-.84,.73-.94,1.88-.42,2.72Z" fill="#231f20"/>
                      <g>
                        <path d="M289.88,28.48l.52-1.15-.52-1.05,1.15,.21,.84-.94,.21,1.15,1.15,.52-1.15,.52v1.15l-.94-.84-1.15,.21-.1,.21Z" fill="#fff"/>
                        <path d="M293.44,27.43l-1.26,.63v1.36l-1.05-1.05-1.26,.21,.63-1.15-.73-1.15,1.36,.21,.94-1.05,.21,1.36,1.15,.63Zm-1.47-.42v-1.05l-.73,.73h-1.05l.42,.94-.42,.94,1.05-.21,.73,.73v-1.05l.94-.52-.94-.52Z" fill="#231f20"/>
                      </g>
                    </g>
                    <g>
                      <circle cx="299.41" cy="28.58" r="1.99" fill="#ffc50b"/>
                      <path d="M301.08,27.32c.63,.84,.52,2.09-.31,2.83h-.1c-1.05,.63-2.3,.21-2.83-.84-.42-.84-.31-1.78,.31-2.41,.94-.73,2.2-.52,2.93,.31h0v.1Zm-3.25,2.51c.63,.84,1.78,1.05,2.62,.42s1.05-1.78,.42-2.62-1.78-1.05-2.62-.42h0c-.84,.63-.94,1.78-.42,2.62Z" fill="#231f20"/>
                      <g>
                        <path d="M298.05,29.63l.52-1.05-.52-1.15,1.15,.21,.84-.94,.21,1.15,1.15,.52-1.15,.63v1.15l-.94-.84-1.15,.21-.1,.1Z" fill="#fff"/>
                        <path d="M301.5,28.48l-1.15,.63-.21,1.36-1.05-1.05-1.26,.31,.63-1.15-.73-1.15,1.26,.21,1.05-1.05,.21,1.26,1.26,.63Zm-1.47-.42l-.21-1.05-.73,.73h-1.05l.52,.84-.42,.94h1.05l.73,.73v-1.15l.94-.52-.84-.42v-.1Z" fill="#231f20"/>
                      </g>
                    </g>
                    <g>
                      <circle cx="295.95" cy="23.87" r="1.99" fill="#ffc50b"/>
                      <path d="M297.63,22.72c.63,.94,.52,2.2-.42,2.93s-2.3,.52-3.04-.42c-.63-.94-.52-2.2,.42-2.93s2.2-.63,3.04,.31h0v.1Zm-3.25,2.51c.63,.73,1.78,.94,2.62,.31,.84-.52,1.05-1.68,.52-2.51h0c-.63-.94-1.78-1.05-2.62-.52s-1.05,1.68-.52,2.51h0v.21Z" fill="#231f20"/>
                      <g>
                        <path d="M294.49,25.02l.52-1.15-.63-1.05,1.15,.21,.84-.94,.21,1.15,1.15,.52-1.15,.52v1.15l-1.05-.84-1.15,.21,.1,.21Z" fill="#fff"/>
                        <path d="M298.05,23.87l-1.15,.63-.21,1.36-1.05-1.05-1.26,.31,.63-1.15-.73-1.15,1.36,.21,.94-1.05,.21,1.36,1.26,.52Zm-1.47-.42v-1.05l-.73,.73-1.05-.21,.52,.94-.52,.94,1.05-.21,.84,.73v-1.05l.94-.42-1.05-.42Z" fill="#231f20"/>
                      </g>
                    </g>
                  </g>
                </g>
              </g>
              <g>
                <rect x="303.64" y="42.18" width="21.04" height="20.94" rx=".31" ry=".31" transform="translate(32.09 200.65) rotate(-37.2)" fill="#111e96"/>
                <path d="M316.37,38.11l12.25,16.23v.63l-16.23,12.25s-.42,.1-.63,0l-12.25-16.33s-.21-.42,0-.63l16.33-12.25s.31-.1,.42,0h.21l-.1,.1Zm-4.4,29h.31l16.23-12.25v-.31h0l-12.25-16.23h-.31l-16.23,12.25v.31h0l12.25,16.23Z" fill="#231f20"/>
                <g>
                  <rect x="307.48" y="45.96" width="13.19" height="13.19" rx=".31" ry=".31" transform="translate(32.13 200.58) rotate(-37.2)" fill="#fff"/>
                  <path d="M315.63,43.55l7.64,10.05s.21,.42,0,.52h0l-10.05,7.64h-.63l-7.64-10.05s-.1-.42,0-.63l10.05-7.64s.42-.21,.52,0h0l.1,.1Zm-2.93,18.11h.31l10.05-7.64v-.21l-7.64-10.05h-.31l-10.05,7.64v.31h0l7.75,10.05-.1-.1Z" fill="#231f20"/>
                  <g>
                    <circle cx="313.54" cy="56.74" r="1.99" fill="#111e96"/>
                    <path d="M315.21,55.38c.73,.94,.52,2.3-.42,3.04s-2.2,.52-2.93-.42h0c-.63-1.05-.52-2.3,.42-2.93,.94-.73,2.3-.52,3.04,.42l-.1-.1Zm-3.25,2.41c.73,.73,1.99,.63,2.72-.1,.52-.52,.63-1.36,.31-2.09-.73-.73-1.99-.63-2.72,.1-.52,.52-.63,1.36-.31,2.09Z" fill="#231f20"/>
                    <path d="M312.07,57.79l.52-1.15-.52-1.05h1.15l.84-.73,.21,1.15,1.15,.52-1.05,.63-.21,1.15-.84-.94-1.15,.31-.1,.1Z" fill="#fff"/>
                    <path d="M315.63,56.64l-1.15,.73-.21,1.26-1.05-1.05-1.26,.31,.63-1.15-.73-1.15,1.36,.21,.94-1.05,.21,1.26,1.26,.63Zm-1.47-.42v-1.05l-.73,.84-1.05-.21,.52,.94-.52,.94,1.05-.21,.73,.73,.21-1.05,.84-.52-1.05-.42Z" fill="#231f20"/>
                    <g>
                      <circle cx="309.98" cy="52.13" r="1.99" fill="#111e96"/>
                      <path d="M311.65,50.77c.73,.94,.52,2.2-.42,2.93h0c-.84,.73-2.09,.52-2.83-.31h0c-.63-1.05-.52-2.3,.42-3.04,.94-.63,2.2-.52,2.93,.42h-.1Zm-3.25,2.41c.63,.84,1.78,.94,2.62,.42,.84-.63,1.05-1.78,.42-2.62h0c-.63-.84-1.78-.94-2.62-.31s-.94,1.78-.42,2.62v-.1Z" fill="#231f20"/>
                      <g>
                        <path d="M308.62,53.08l.52-1.05-.52-1.15,1.15,.21,.84-.84,.21,1.15,1.15,.52-1.05,.63-.21,1.15-.84-.84-1.15,.21h-.1Z" fill="#fff"/>
                        <path d="M312.07,52.03l-1.15,.63-.21,1.36-1.05-1.05-1.26,.31,.63-1.26-.73-1.15,1.36,.21,.94-1.05,.21,1.36,1.26,.63Zm-1.47-.42v-1.05l-.73,.73h-1.05l.42,.94-.42,.84h1.05l.73,.73v-1.05l.94-.52-.94-.63Z" fill="#231f20"/>
                      </g>
                    </g>
                    <g>
                      <circle cx="318.15" cy="53.18" r="1.99" fill="#111e96"/>
                      <path d="M319.82,51.93c.73,.94,.52,2.3-.42,3.04s-2.2,.52-2.93-.42h0c-.63-1.05-.52-2.3,.42-2.93,.94-.63,2.2-.52,2.93,.42h0v-.1Zm-3.25,2.41c.63,.84,1.78,.94,2.62,.42s1.05-1.67,.52-2.51h0c-.63-.94-1.78-1.05-2.62-.52-.84,.63-.94,1.78-.42,2.62h-.1Z" fill="#231f20"/>
                      <g>
                        <path d="M316.68,54.33l.52-1.15-.52-1.05h1.15l.84-.73,.21,1.15,1.15,.52-1.05,.63-.21,1.15-.84-.94-1.15,.31-.1,.1Z" fill="#fff"/>
                        <path d="M320.24,53.08l-1.15,.73-.21,1.26-1.05-1.05-1.26,.31,.63-1.26-.63-1.15,1.26,.21,.94-1.05,.21,1.26,1.26,.63v.1Zm-1.47-.42v-1.05l-.73,.84-1.05-.21,.52,.94-.52,.94,1.05-.21,.73,.73,.21-1.05,.84-.52-1.05-.42Z" fill="#231f20"/>
                      </g>
                    </g>
                    <g>
                      <circle cx="314.59" cy="48.57" r="1.99" fill="#111e96"/>
                      <path d="M316.26,47.32c.73,.94,.52,2.3-.42,2.93-.94,.73-2.3,.52-2.93-.42h0c-.63-.94-.52-2.2,.42-2.93s2.3-.52,3.04,.42h-.1Zm-3.25,2.41c.73,.84,1.88,.94,2.72,.31,.73-.63,.84-1.67,.31-2.51-.63-.84-1.67-.94-2.51-.31h0c-.73,.63-.94,1.78-.42,2.51h-.1Z" fill="#231f20"/>
                      <g>
                        <path d="M313.23,49.62l.52-1.05-.52-1.15,1.15,.21,.84-.84,.21,1.15,1.15,.52-1.05,.63-.21,1.15-.84-.84-1.15,.21h-.1Z" fill="#fff"/>
                        <path d="M316.68,48.47l-1.15,.73-.21,1.26-1.05-1.05-1.26,.31,.63-1.15-.63-1.15,1.36,.21,.94-1.05,.21,1.26,1.15,.63Zm-1.47-.42v-1.05l-.73,.73h-1.05l.52,.94-.52,.94,1.05-.21,.73,.73v-1.15l.94-.52-.94-.42Z" fill="#231f20"/>
                      </g>
                    </g>
                  </g>
                </g>
              </g>
              <g clip-path="url(#uuid-6f3d3830-7cdb-43d3-bbe4-9ceb5c296a05)">
                <g>
                  <path d="M292.39,49.62l1.67-12.04,11.93,1.68-1.67,12.04-11.93-1.67Z" fill="#111e96"/>
                  <path d="M306,39.15l-1.57,12.25-12.25-1.67,1.57-12.25,12.25,1.68Zm-1.78,11.93l1.57-11.72-11.83-1.57-1.57,11.72,11.83,1.57Z" fill="#231f20"/>
                  <g>
                    <path d="M278.78,59.88l1.67-12.04,11.93,1.67-1.67,12.04-11.93-1.67Z" fill="#2a9149"/>
                    <path d="M292.39,49.52l-1.57,12.25-12.25-1.67,1.57-12.25,12.25,1.67Zm-1.78,11.93l1.57-11.72-11.83-1.57-1.57,11.72,11.83,1.57Z" fill="#231f20"/>
                  </g>
                  <g>
                    <path d="M280.46,47.95l1.67-12.04,11.93,1.68-1.67,12.04-11.93-1.67Z" fill="#ffc50b"/>
                    <path d="M294.07,37.48l-1.67,12.25-12.25-1.57,1.67-12.25,12.25,1.68v-.1Zm-1.88,12.04l1.57-11.83-11.73-1.57-1.57,11.72,11.73,1.68Z" fill="#231f20"/>
                    <g>
                      <path d="M290.82,61.56l1.67-12.04,11.93,1.67-1.67,12.04-11.93-1.67Z" fill="#f2200a"/>
                      <path d="M304.43,51.09l-1.67,12.25-12.25-1.57,1.67-12.25,12.25,1.57Zm-1.88,12.04l1.57-11.83-11.73-1.57-1.57,11.83,11.73,1.57Z" fill="#231f20"/>
                    </g>
                  </g>
                </g>
              </g>
              <path d="M293.75,41.35l7.01,9.11v.63l-9.21,6.91h-.63l-6.91-9.11v-.63l9.11-6.91h.63Zm-2.72,16.44h.31l9.11-6.91v-.31h0l-6.91-9.11h-.31l-9.11,6.91v.31h0l6.91,9.11Z" fill="#231f20"/>
              <g>
                <path d="M304.95,68.88l1.67,2.2s.1,.31,0,.42h-.1l-2.2,1.78h-.63l-1.57-2.2s-.21-.31,0-.42h0l2.2-1.67s.42-.21,.52,0h0l.1-.1Zm-1.05,4.19h.21l2.2-1.67v-.21l-1.57-2.2h-.21l-2.2,1.67v.21l1.57,2.2Z" fill="#231f20"/>
                <rect x="301.41" y="68.25" width="3.35" height="3.35" rx=".31" ry=".31" transform="translate(18.73 195.99) rotate(-36.9)" fill="#f2200a"/>
                <path d="M302.97,66.16l1.67,2.2v.63l-2.2,1.57h-.63l-1.57-2.2s-.1-.42,0-.63l2.2-1.57s.42-.21,.52,0h0Zm-1.05,4.19h.21l2.2-1.57v-.31h0l-1.57-2.2h-.31l-2.09,1.67v.21l1.57,2.2Z" fill="#231f20"/>
                <path d="M300.98,63.65l1.67,2.2s.1,.31,0,.42h-.1l-2.2,1.78h-.63l-1.57-2.09s-.21-.52,0-.63l2.2-1.67h.63Zm-1.05,4.19h.21l2.2-1.67v-.21l-1.57-2.2h-.31l-2.09,1.57v.31h0l1.57,2.2Z" fill="#231f20"/>
                <path d="M298.99,60.93l1.67,2.2v.63l-2.2,1.57s-.42,.21-.52,0h0l-1.57-2.2v-.63l2.2-1.57h.42Zm-1.05,4.19h.21l2.2-1.57v-.31h0l-1.57-2.2h-.31l-2.2,1.67v.21l1.67,2.2Z" fill="#231f20"/>
                <path d="M297,58.31l1.67,2.2s.1,.31,0,.42h-.1l-2.2,1.78h-.63l-1.57-2.2v-.52l2.2-1.67h.63Zm-1.05,4.19h.21l2.2-1.67v-.21l-1.57-2.2h-.31l-2.2,1.57v.31l1.67,2.2Z" fill="#231f20"/>
                <path d="M295.01,55.59l1.67,2.2v.63l-2.2,1.57s-.42,.21-.52,0h0l-1.57-2.2v-.63l2.2-1.57h.42Zm-1.05,4.19h.21l2.2-1.57v-.31h0l-1.57-2.2h-.31l-2.09,1.67v.21l1.57,2.2Z" fill="#231f20"/>
                <g>
                  <path d="M310.29,64.8l1.67,2.2v.63l-2.09,1.57s-.42,.1-.63,0l-1.67-2.2s-.21-.31,0-.42h0l2.2-1.67s.42-.1,.63,0h0l-.1-.1Zm-1.05,4.08h.31l2.09-1.57v-.31h0l-1.57-2.09h-.21l-2.2,1.67v.21l1.57,2.09Z" fill="#231f20"/>
                  <path d="M308.3,62.18l1.67,2.2v.63l-2.09,1.57s-.42,.1-.63,0l-1.67-2.2v-.63l2.2-1.67h.52v.1Zm-1.05,4.19h.21l2.2-1.67v-.21l-1.57-2.2h-.31l-2.09,1.67v.21l1.57,2.2Z" fill="#231f20"/>
                  <path d="M306.32,59.57l1.57,2.09s.21,.52,0,.63l-2.2,1.67h-.63l-1.57-2.09s-.21-.52,0-.63l2.2-1.67h.63Zm-1.05,4.19h.21l2.2-1.67v-.31h0l-1.57-2.09h-.21l-2.2,1.67v.21l1.57,2.2Z" fill="#231f20"/>
                  <path d="M304.33,56.95l1.57,2.2v.63l-2.2,1.57h-.63l-1.57-2.2s-.21-.42,0-.52h0l2.2-1.67s.42-.21,.52,0h.1Zm-1.05,4.19h.21l2.2-1.67v-.21l-1.57-2.2h-.31l-2.2,1.67v.21l1.67,2.2Z" fill="#231f20"/>
                  <path d="M302.34,54.33l1.57,2.09s.1,.42,0,.63h0l-2.09,1.67h-.63l-1.67-2.2s-.1-.31,0-.42h.1l2.2-1.67h.63l-.1-.1Zm-1.05,3.98h.21l2.2-1.57v-.21l-1.67-2.2h-.21l-2.2,1.57v.21l1.67,2.2Z" fill="#231f20"/>
                  <path d="M300.35,51.61l1.57,2.2s.1,.31,0,.52h0l-2.2,1.67s-.31,.1-.42,0h0l-1.67-2.2v-.63l2.2-1.67h.52v.1Zm-1.05,4.19h.21l2.2-1.57v-.31h0l-1.67-2.2h-.21l-2.2,1.67v.21l1.67,2.2Z" fill="#231f20"/>
                </g>
                <g>
                  <path d="M307.68,66.9l1.57,2.09v.63l-2.09,1.57s-.42,.1-.63,0l-1.67-2.2v-.63l2.2-1.57s.31-.21,.42,0h.21v.1Zm-1.05,4.19h.21l2.2-1.67v-.21l-1.57-2.2h-.31l-2.2,1.67v.21l1.67,2.2Z" fill="#231f20"/>
                  <rect x="303.39" y="64.8" width="3.35" height="3.35" rx=".31" ry=".31" transform="translate(21.88 197.97) rotate(-37.2)" fill="#f2200a"/>
                  <path d="M305.58,64.17l1.67,2.2v.63l-2.09,1.57s-.42,.1-.63,0l-1.67-2.2v-.63l2.2-1.67h.63l-.1,.1Zm-1.05,4.19h.31l2.2-1.67v-.21l-1.67-2.2h-.21l-2.2,1.67v.21l1.57,2.2Z" fill="#231f20"/>
                  <rect x="301.41" y="62.06" width="3.35" height="3.35" rx=".31" ry=".31" transform="translate(23.14 196.21) rotate(-37.2)" fill="#f2200a"/>
                  <path d="M303.59,61.56l1.67,2.2s.1,.31,0,.42h-.1l-2.2,1.78h-.63l-1.57-2.09s-.1-.42,0-.63l2.2-1.67s.42-.21,.52,0h.1Zm-1.05,4.29h.31l2.2-1.67v-.21l-1.67-2.2h-.31l-2.09,1.57v.31h0l1.57,2.2Z" fill="#231f20"/>
                  <rect x="299.46" y="59.58" width="3.35" height="3.35" rx=".31" ry=".31" transform="translate(24.24 194.53) rotate(-37.2)" fill="#f2200a"/>
                  <path d="M301.6,58.94l1.67,2.2v.63l-2.2,1.57h-.63l-1.57-2.2s-.1-.42,0-.63l2.2-1.67h.63l-.1,.1Zm-1.05,4.29h.31l2.09-1.57v-.31h0l-1.57-2.2h-.31l-2.09,1.67v.21l1.57,2.2Z" fill="#231f20"/>
                  <g>
                    <rect x="298.12" y="58.4" width="3.35" height="3.35" rx=".31" ry=".31" transform="translate(24.22 192.52) rotate(-37)" fill="#f2200a"/>
                    <path d="M299.62,56.32l1.67,2.2s.1,.31,0,.42h-.1l-2.2,1.78h-.63l-1.57-2.2v-.63l2.2-1.57s.42-.21,.52,0h.1Zm-1.05,4.29h.31l2.09-1.67v-.21l-1.67-2.2h-.21l-2.09,1.57v.21l1.57,2.3Z" fill="#231f20"/>
                  </g>
                  <g>
                    <rect x="295.47" y="54.18" width="3.35" height="3.35" rx=".31" ry=".31" transform="translate(26.69 191.02) rotate(-37.2)" fill="#f2200a"/>
                    <path d="M297.63,53.6l1.67,2.2v.63l-2.2,1.57h-.63l-1.57-2.09s-.1-.42,0-.63l2.2-1.67s.42-.1,.63,0h-.1Zm-1.05,4.29h.21l2.2-1.57v-.21l-1.67-2.2h-.21l-2.09,1.57v.21l1.57,2.2Z" fill="#231f20"/>
                  </g>
                </g>
                <g>
                  <path d="M285.59,43.45l1.67,2.09v.63l-2.2,1.67h-.52l-1.57-2.2v-.52h0l2.09-1.67s.42-.21,.52,0h0Zm-1.05,4.29h.31l2.2-1.67v-.21l-1.67-2.2h-.21l-2.2,1.57v.31h0l1.57,2.2Z" fill="#231f20"/>
                  <path d="M283.6,40.72l1.67,2.2v.63l-2.2,1.57h-.63l-1.57-2.2s-.1-.42,0-.63l2.2-1.57s.42-.21,.63,0h-.1Zm-1.05,4.29h.31l2.2-1.67v-.21l-1.67-2.2h-.21l-2.2,1.67v.21l1.57,2.2Z" fill="#231f20"/>
                  <path d="M281.61,38.11l1.67,2.2s.1,.31,0,.42h-.1l-2.2,1.78h-.52l-1.57-2.2v-.52h0l2.2-1.68s.31-.1,.42,0h.1Zm-1.05,4.29h.31l2.2-1.68v-.21l-1.67-2.2h-.21l-2.2,1.57v.31h0l1.57,2.2Z" fill="#231f20"/>
                  <path d="M279.62,35.38l1.67,2.2v.63l-2.2,1.57s-.42,.21-.52,0h0l-1.57-2.2v-.63h0l2.09-1.68h.63l-.1,.1Zm-1.05,4.29h.31l2.09-1.57v-.21l-1.57-2.2h-.31l-2.09,1.57v.21l1.57,2.2Z" fill="#231f20"/>
                  <path d="M277.63,32.77l1.67,2.2v.63l-2.2,1.57h-.63l-1.57-2.2v-.52l2.2-1.68s.42-.21,.52,0h0Zm-1.05,4.29h.31l2.09-1.68v-.21l-1.57-2.2h-.31l-2.09,1.57v.31h0l1.57,2.2Z" fill="#231f20"/>
                  <path d="M275.64,30.15l1.57,2.2s.21,.42,0,.52h0l-2.2,1.68s-.42,.21-.52,0h0l-1.57-2.2v-.63h0l2.09-1.57s.42-.21,.52,0h.1Zm-1.05,4.19h.31l2.09-1.57v-.21l-1.57-2.2h-.31l-2.09,1.57v.31h0l1.57,2.09Z" fill="#231f20"/>
                </g>
                <g>
                  <path d="M290.93,39.26l1.67,2.2v.63l-2.2,1.67s-.31,.1-.42,0h0l-1.67-2.3v-.52l2.09-1.68s.42-.1,.63,0h-.1Zm-1.05,4.19h.31l2.2-1.57v-.31l-1.67-2.09h-.21l-2.2,1.57v.31h0l1.57,2.09Z" fill="#231f20"/>
                  <path d="M288.94,36.75l1.67,2.2v.63l-2.2,1.57h-.52l-1.67-2.09v-.63l2.09-1.68h.63Zm-1.05,4.19h.31l2.2-1.68v-.21l-1.67-2.2h-.21l-2.2,1.68v.21l1.57,2.2Z" fill="#231f20"/>
                  <path d="M286.95,34.13l1.67,2.09v.63l-2.2,1.68s-.31,.1-.42,0h0l-1.67-2.3v-.63l2.09-1.57h.63l-.1,.1Zm-1.05,4.08h.31l2.09-1.57v-.31h0l-1.57-2.09h-.21l-2.09,1.57v.31h0l1.57,2.09h-.1Z" fill="#231f20"/>
                  <path d="M284.85,31.41l1.67,2.2v.63l-2.2,1.57h-.63l-1.57-2.2s-.1-.42,0-.63h0l2.09-1.68h.63v.1Zm-1.05,4.19h.31l2.09-1.57v-.21l-1.57-2.2h-.21l-2.09,1.57s-.1,.21,0,.31h0l1.57,2.09h-.1Z" fill="#231f20"/>
                  <rect x="280.77" y="29.27" width="3.35" height="3.35" rx=".31" ry=".31" transform="translate(38.76 177.06) rotate(-37.2)" fill="#ffc50b"/>
                  <path d="M282.87,28.79l1.57,2.09s.21,.52,0,.63l-2.2,1.68h-.63l-1.57-2.2v-.63l2.2-1.57s.42-.1,.52,0h.1Zm-1.05,4.29h.21l2.2-1.68v-.21l-1.57-2.2h-.31l-2.2,1.57v.31l1.67,2.2Z" fill="#231f20"/>
                  <path d="M280.88,26.07l1.57,2.2s.21,.42,0,.52h0l-2.2,1.68h-.63l-1.57-2.2s-.1-.42,0-.63l2.2-1.68h.63v.1Zm-1.05,4.19h.21l2.2-1.57v-.31h0l-1.67-2.2h-.21l-2.2,1.68v.21l1.67,2.2Z" fill="#231f20"/>
                </g>
                <g>
                  <rect x="286.09" y="41.99" width="3.35" height="3.35" rx=".31" ry=".31" transform="translate(32.15 182.87) rotate(-37.2)" fill="#ffc50b"/>
                  <path d="M288.31,41.35l1.67,2.09v.63l-2.09,1.67h-.63l-1.67-2.2s-.1-.31,0-.42h.1l2.2-1.78s.31-.1,.42,0h0Zm-1.05,4.19h.21l2.2-1.57v-.31h0l-1.57-2.09h-.31l-2.2,1.57v.31l1.67,2.09Z" fill="#231f20"/>
                  <rect x="284.03" y="39.2" width="3.35" height="3.35" rx=".31" ry=".31" transform="translate(33.42 181.06) rotate(-37.2)" fill="#ffc50b"/>
                  <path d="M286.32,38.73l1.57,2.2s.21,.42,0,.52h0l-2.2,1.67s-.42,.1-.52,0h0l-1.57-2.2s-.21-.52,0-.63l2.2-1.68s.42-.1,.63,0h0l-.1,.1Zm-1.05,4.29h.21l2.2-1.68v-.21l-1.57-2.2h-.31l-2.2,1.68v.21l1.67,2.2Z" fill="#231f20"/>
                  <rect x="282.08" y="36.73" width="3.35" height="3.35" rx=".31" ry=".31" transform="translate(34.52 179.37) rotate(-37.2)" fill="#ffc50b"/>
                  <path d="M284.33,36.12l1.57,2.09s.1,.42,0,.63l-2.2,1.68h-.63l-1.57-2.2s-.21-.42,0-.52h0l2.2-1.68h.63Zm-1.05,4.19h.21l2.2-1.68v-.21l-1.67-2.2h-.21l-2.2,1.57v.31l1.67,2.2Z" fill="#231f20"/>
                  <g>
                    <rect x="280.11" y="33.99" width="3.35" height="3.35" rx=".31" ry=".31" transform="translate(35.77 177.62) rotate(-37.2)" fill="#ffc50b"/>
                    <path d="M282.34,33.4l1.57,2.2v.63l-2.2,1.57s-.42,.1-.63,0l-1.67-2.2v-.63l2.2-1.57s.42-.21,.52,0h.21Zm-1.05,4.19h.21l2.2-1.57v-.21l-1.57-2.2h-.31l-2.2,1.57v.31l1.67,2.09Z" fill="#231f20"/>
                  </g>
                  <g>
                    <rect x="278.03" y="31.24" width="3.35" height="3.35" rx=".31" ry=".31" transform="translate(37.01 175.8) rotate(-37.2)" fill="#ffc50b"/>
                    <path d="M280.25,30.78l1.67,2.2v.63l-2.09,1.57s-.42,.1-.63,0l-1.67-2.2v-.63l2.2-1.57s.31-.21,.42,0h.1Zm-1.05,4.29h.31l2.2-1.68v-.21l-1.67-2.2h-.21l-2.2,1.57v.31h0l1.57,2.2Z" fill="#231f20"/>
                  </g>
                  <path d="M278.15,28.06l1.67,2.2v.63l-2.2,1.57h-.52l-1.67-2.2v-.63l2.2-1.68s.31-.1,.42,0h0l.1,.1Zm-1.05,4.29h.31l2.2-1.57v-.31l-1.67-2.2h-.21l-2.2,1.68v.21l1.57,2.2Z" fill="#231f20"/>
                </g>
              </g>
              <g>
                <path d="M314.27,35.38l1.67,2.2v.63l-2.09,1.57s-.52,.21-.63,0l-1.67-2.2v-.63l2.2-1.57s.31-.1,.52,0Zm-1.05,4.19h.31l2.2-1.57v-.21l-1.67-2.2h-.21l-2.2,1.57v.31h0l1.57,2.09Z" fill="#231f20"/>
                <rect x="309.46" y="38.09" width="3.35" height="3.35" rx=".31" ry=".31" transform="translate(39.27 196.2) rotate(-37.2)" fill="#111e96"/>
                <path d="M311.65,37.37l1.57,2.2s.1,.42,0,.63l-2.2,1.68h-.63l-1.57-2.2s-.21-.42,0-.52h0l2.2-1.68h.63v-.1Zm-1.05,4.19h.21l2.2-1.57v-.21l-1.67-2.2h-.21l-2.2,1.57v.31h0l1.67,2.09Z" fill="#231f20"/>
                <path d="M309.04,39.47l1.67,2.09v.63l-2.2,1.67h-.63l-1.57-2.2v-.63h0l2.09-1.57h.63Zm-1.05,4.08h.21l2.3-1.57v-.21l-1.67-2.2h-.21l-2.2,1.57v.31h0l1.57,2.09Z" fill="#231f20"/>
                <path d="M306.42,41.46l1.57,2.09v.63l-2.09,1.67h-.63l-1.67-2.2s-.1-.31,0-.42h.1l2.2-1.78s.42-.21,.52,0h0Zm-1.05,4.19h.21l2.2-1.57v-.21l-1.57-2.2h-.31l-2.09,1.57s-.1,.21,0,.31h0l1.57,1.99v.1Z" fill="#231f20"/>
                <path d="M303.7,43.55l1.67,2.2s.1,.31,0,.42h-.1l-2.2,1.78s-.31,.1-.42,0h0l-1.67-2.3s-.1-.31,0-.42h.1l2.2-1.78s.31-.1,.42,0h0v.1Zm-1.05,4.29h.31l2.2-1.67v-.21l-1.67-2.2h-.21l-2.2,1.57v.31h0l1.57,2.2Z" fill="#231f20"/>
                <path d="M301.08,45.54l1.67,2.2s.1,.31,0,.42h-.1l-2.2,1.78h-.63l-1.57-2.09s-.1-.42,0-.63l2.2-1.67h.63Zm-1.05,4.19h.21l2.2-1.67v-.21l-1.57-2.2h-.31l-2.2,1.57v.31l1.67,2.2Z" fill="#231f20"/>
                <g>
                  <path d="M310.29,30.15l1.67,2.2v.63l-2.09,1.68h-.63l-1.67-2.2v-.63l2.2-1.57s.31-.1,.52,0v-.1Zm-1.05,4.19h.21l2.2-1.57v-.31h0l-1.57-2.2h-.31l-2.09,1.68v.31h0l1.57,2.09Z" fill="#231f20"/>
                  <path d="M307.68,32.24l1.57,2.09s.1,.42,0,.52h0l-2.09,1.78h-.63l-1.67-2.2v-.52l2.2-1.68s.31-.1,.42,0h.21Zm-1.05,4.19h.21l2.2-1.57v-.31l-1.67-2.09h-.21l-2.2,1.57v.31h0l1.67,2.09Z" fill="#231f20"/>
                  <path d="M304.95,34.23l1.67,2.09v.63l-2.2,1.68h-.63l-1.57-2.2v-.52h0l2.09-1.68h.63Zm-1.05,4.08h.21l2.2-1.57v-.31h0l-1.57-2.09h-.31l-2.09,1.57v.31h0l1.57,2.09Z" fill="#231f20"/>
                  <path d="M302.44,36.22l1.57,2.09v.63l-2.09,1.68h-.63l-1.67-2.2s-.1-.31,0-.42h.1l2.2-1.78s.42-.21,.63,0h-.1Zm-1.05,4.29h.21l2.2-1.68v-.21l-1.67-2.2h-.21l-2.2,1.57v.31h0l1.67,2.2Z" fill="#231f20"/>
                  <path d="M299.72,38.21l1.67,2.2s.1,.31,0,.42h-.1l-2.2,1.78h-.63l-1.57-2.2v-.52l2.2-1.68h.63Zm-1.05,4.19h.31l2.09-1.68v-.21l-1.57-2.2h-.31l-2.09,1.57v.31h0l1.57,2.2Z" fill="#231f20"/>
                  <path d="M297.1,40.2l1.57,2.2v.52l-2.2,1.57h-.63l-1.57-2.09s-.21-.52,0-.63l2.2-1.68h.52l.1,.1Zm-1.05,4.29h.21l2.2-1.67v-.21l-1.57-2.2h-.31l-2.09,1.67v.21l1.57,2.2Z" fill="#231f20"/>
                </g>
                <g>
                  <path d="M312.28,32.77l1.67,2.2v.52l-2.09,1.57s-.42,.1-.52,0h0l-1.67-2.09v-.63l2.2-1.57s.31-.21,.42,0h0Zm-1.05,4.29h.21l2.09-1.68v-.21l-1.57-2.2h-.31l-2.09,1.57v.31h0l1.57,2.2h.1Z" fill="#231f20"/>
                  <rect x="308.29" y="36.93" width="3.35" height="3.35" rx=".31" ry=".31" transform="translate(39.18 194.31) rotate(-37)" fill="#111e96"/>
                  <path d="M309.67,34.76l1.57,2.2v.63l-2.2,1.57s-.42,.1-.52,0h0l-1.67-2.2v-.63l2.2-1.57s.42-.21,.63,0Zm-1.05,4.19h.21l2.2-1.68v-.21l-1.67-2.2h-.21l-2.2,1.68v.21l1.67,2.2Z" fill="#231f20"/>
                  <rect x="304.82" y="37.36" width="3.35" height="3.35" rx=".31" ry=".31" transform="translate(38.76 193.25) rotate(-37.2)" fill="#111e96"/>
                  <path d="M307.05,36.85l1.67,2.2v.52l-2.2,1.57h-.52l-1.67-1.99v-.63l2.09-1.57s.42-.21,.52,0h0l.1-.1Zm-1.05,4.19h.21l2.2-1.68v-.21l-1.57-2.09h-.21l-2.2,1.68v.21l1.57,2.09Z" fill="#231f20"/>
                  <rect x="302.06" y="39.48" width="3.35" height="3.35" rx=".31" ry=".31" transform="translate(36.92 192.01) rotate(-37.2)" fill="#111e96"/>
                  <path d="M304.43,38.84l1.57,2.2v.52l-2.09,1.57s-.42,.1-.52,0h0l-1.67-2.09v-.63l2.2-1.57s.42-.21,.52,0h0Zm-1.05,4.19h.21l2.2-1.57v-.31h0l-1.57-2.09h-.31l-2.09,1.68v.21l1.57,2.09Z" fill="#231f20"/>
                  <g>
                    <rect x="300.44" y="42.94" width="3.35" height="3.35" rx=".31" ry=".31" transform="translate(33.98 190.8) rotate(-37)" fill="#111e96"/>
                    <path d="M301.71,40.83l1.67,2.2v.63l-2.2,1.57h-.52l-1.67-2.09v-.63l2.09-1.57s.42-.1,.63,0v-.1Zm-1.05,4.19h.31l2.2-1.57v-.31l-1.67-2.09h-.21l-2.2,1.68v.21l1.57,2.09Z" fill="#231f20"/>
                  </g>
                  <g>
                    <rect x="296.74" y="43.4" width="3.35" height="3.35" rx=".31" ry=".31" transform="translate(33.46 189.59) rotate(-37.2)" fill="#111e96"/>
                    <path d="M299.09,42.82l1.57,2.2s.21,.42,0,.52l-2.2,1.57s-.42,.1-.52,0h0l-1.67-2.09v-.63l2.2-1.57h.63Zm-1.05,4.19h.21l2.2-1.57v-.31h0l-1.57-2.09h-.31l-2.09,1.67v.21l1.57,2.09Z" fill="#231f20"/>
                  </g>
                </g>
                <g>
                  <path d="M288.83,54.75l1.67,2.2v.63l-2.2,1.57h-.52l-1.67-2.2v-.63l2.2-1.57s.31-.21,.42,0h.1Zm-1.05,4.29h.31l2.09-1.67v-.21l-1.57-2.2h-.31l-2.09,1.67v.21l1.57,2.2Z" fill="#231f20"/>
                  <path d="M286.22,56.85l1.57,2.2v.63l-2.2,1.57s-.42,.1-.63,0l-1.57-2.2s-.21-.42,0-.52h0l2.2-1.67s.42-.21,.52,0h.1Zm-1.05,4.19h.21l2.2-1.67v-.21l-1.57-2.09h-.21l-2.2,1.67v.21l1.57,2.09Z" fill="#231f20"/>
                  <path d="M283.49,58.83l1.67,2.2v.63l-2.2,1.57h-.52l-1.67-2.2v-.63l2.2-1.67h.52v.1Zm-1.05,4.19h.31l2.2-1.57v-.31h0l-1.57-2.09h-.31l-2.2,1.67v.21l1.57,2.09Z" fill="#231f20"/>
                  <path d="M280.88,60.82l1.57,2.2s.21,.42,0,.52h0l-2.2,1.67h-.63l-1.67-2.2v-.63l2.2-1.57h.73Zm-1.05,4.19h.21l2.2-1.57v-.31h0l-1.57-2.09h-.21l-2.2,1.67v.21l1.57,2.09Z" fill="#231f20"/>
                  <path d="M278.15,62.81l1.67,2.2v.63l-2.2,1.57h-.52l-1.67-2.2v-.63l2.2-1.57h.52Zm-1.05,4.19h.31l2.2-1.57v-.31l-1.67-2.09h-.21l-2.2,1.67v.21l1.57,2.09Z" fill="#231f20"/>
                  <path d="M275.64,64.8l1.57,2.2s.21,.42,0,.52h0l-2.2,1.78h-.63l-1.57-2.2s-.21-.42,0-.52h0l2.2-1.67s.42-.21,.52,0h0l.1-.1Zm-1.05,4.19h.31l2.09-1.57v-.21l-1.57-2.2h-.21l-2.2,1.57v.31h0l1.57,2.09Z" fill="#231f20"/>
                </g>
                <g>
                  <path d="M284.75,49.52l1.67,2.2v.63l-2.2,1.57h-.63l-1.57-2.09v-.63l2.2-1.67s.31-.1,.42,0h.1Zm-1.05,4.29h.21l2.2-1.67v-.21l-1.57-2.2h-.31l-2.09,1.57v.31h0l1.57,2.2Z" fill="#231f20"/>
                  <path d="M282.24,51.51l1.57,2.2v.63l-2.09,1.57s-.42,.1-.63,0l-1.67-2.2v-.63l2.2-1.67s.31-.1,.42,0h.21v.1Zm-1.05,4.29h.21l2.2-1.67v-.21l-1.57-2.09h-.21l-2.2,1.57v.31h0l1.57,2.09Z" fill="#231f20"/>
                  <path d="M279.52,53.5l1.67,2.2v.63l-2.2,1.57h-.63l-1.57-2.2s-.1-.42,0-.52h0l2.09-1.78h.63v.1Zm-1.05,4.19h.31l2.2-1.57v-.21l-1.57-2.09h-.31l-2.2,1.57v.31l1.57,1.99Z" fill="#231f20"/>
                  <path d="M276.9,55.48l1.57,2.2v.63h0l-2.09,1.67h-.63l-1.67-2.2v-.63l2.2-1.57s.31-.21,.42,0h.21v-.1Zm-1.05,4.29h.21l2.2-1.57v-.31h0l-1.67-2.09h-.21l-2.2,1.57v.31l1.67,2.09Z" fill="#231f20"/>
                  <rect x="272.1" y="58.08" width="3.35" height="3.35" rx=".31" ry=".31" transform="translate(19.58 177.68) rotate(-37.2)" fill="#2a9149"/>
                  <path d="M274.18,57.47l1.67,2.2v.63l-2.2,1.67h-.63l-1.57-2.2v-.52l2.09-1.67s.42-.21,.52,0h0l.1-.1Zm-1.05,4.19h.31l2.09-1.57s.1-.21,0-.31h0l-1.57-2.09h-.21l-2.2,1.57v.31h0l1.57,2.09Z" fill="#231f20"/>
                  <path d="M271.56,59.57l1.57,2.09s.1,.42,0,.63l-2.2,1.67h-.63l-1.57-2.2v-.52l2.2-1.67h.63Zm-1.05,4.19h.21l2.2-1.57v-.21l-1.57-2.2h-.31l-2.09,1.57v.31h0l1.57,2.09Z" fill="#231f20"/>
                </g>
                <g>
                  <rect x="284.63" y="52.72" width="3.35" height="3.35" rx=".31" ry=".31" transform="translate(25.37 184.17) rotate(-37.2)" fill="#2a9149"/>
                  <path d="M286.84,52.24l1.67,2.09v.63l-2.2,1.67s-.31,.1-.42,0h-.21l-1.57-2.3v-.63l2.2-1.57h.52v.1Zm-1.05,4.08h.21l2.09-1.57v-.31h0l-1.57-2.09h-.31l-2.09,1.57s-.1,.21,0,.31h0l1.57,2.09h.1Z" fill="#231f20"/>
                  <rect x="281.97" y="54.74" width="3.35" height="3.35" rx=".31" ry=".31" transform="translate(23.61 182.97) rotate(-37.2)" fill="#2a9149"/>
                  <path d="M284.23,54.23l1.57,2.09s.1,.42,0,.63l-2.2,1.67h-.63l-1.67-2.2s-.1-.31,0-.42h.1l2.2-1.78h.63Zm-1.05,4.08h.21l2.2-1.57v-.31h0l-1.57-2.09h-.21l-2.2,1.67v.21l1.57,2.09Z" fill="#231f20"/>
                  <rect x="279.33" y="56.71" width="3.35" height="3.35" rx=".31" ry=".31" transform="translate(21.88 181.78) rotate(-37.2)" fill="#2a9149"/>
                  <path d="M281.5,56.22l1.67,2.09v.63l-2.2,1.67s-.31,.1-.42,0h0l-1.67-2.3s-.1-.31,0-.42h.1l2.2-1.78h.52l-.21,.1Zm-1.05,4.19h.31l2.2-1.67v-.21l-1.57-2.2h-.31l-2.2,1.67v.21l1.57,2.2Z" fill="#231f20"/>
                  <g>
                    <rect x="276.65" y="58.77" width="3.35" height="3.35" rx=".31" ry=".31" transform="translate(20.09 180.57) rotate(-37.2)" fill="#2a9149"/>
                    <path d="M278.89,58.21l1.57,2.2v.52l-2.2,1.67h-.63l-1.67-2.2s-.1-.31,0-.42h.1l2.2-1.78s.31-.21,.42,0h0v.21l.21-.21Zm-.94,4.19h.21l2.2-1.67v-.21l-1.67-2.2h-.21l-2.09,1.67v.21l1.57,2.2Z" fill="#231f20"/>
                  </g>
                  <g>
                    <rect x="273.93" y="60.7" width="3.35" height="3.35" rx=".31" ry=".31" transform="translate(18.36 179.32) rotate(-37.2)" fill="#2a9149"/>
                    <path d="M276.17,60.2l1.67,2.2v.63l-2.2,1.57s-.31,.1-.42,0h0l-1.67-2.2v-.63l2.09-1.67h.63l-.1,.1Zm-1.05,4.19h.31l2.2-1.67v-.21l-1.67-2.2h-.21l-2.2,1.67v.21l1.57,2.2Z" fill="#231f20"/>
                  </g>
                  <path d="M273.55,62.18l1.57,2.2s.21,.42,0,.52h0l-2.2,1.67h-.63l-1.57-2.09s-.1-.42,0-.63l2.2-1.67h.63Zm-1.05,4.19h.21l2.2-1.57v-.31h0l-1.57-2.2h-.31l-2.09,1.67v.21l1.57,2.2Z" fill="#231f20"/>
                </g>
              </g>
              <g>
                <path d="M304.95,62.39l.31-.73-.31-.63h.63l.52-.42v.73l.84,.31-.73,.31v.73l-.52-.52-.73,.21Z" fill="#111e96"/>
                <path d="M306.21,60.51v.84l.84,.42-.73,.42-.21,.84-.63-.63-.84,.21,.42-.84-.42-.73h.84l.73-.52Zm0,1.05v-.52l-.42,.42h-.52l.31,.42-.21,.52h.52l.31,.31v-.52l.42-.21-.42-.42Z" fill="#231f20"/>
              </g>
              <g>
                <path d="M279.62,63.65l.31-.63-.31-.63h.63l.52-.42v.73l.73,.31-.63,.31v.73l-.52-.52h-.73v.1Z" fill="#f2200a"/>
                <path d="M280.77,61.66v.94l.84,.31-.84,.42v.94l-.63-.63-.84,.21,.42-.84-.52-.84,.94,.21,.63-.73Zm0,1.05v-.52l-.31,.42h-.52l.21,.52-.21,.52h.52l.31,.31v-.52l.42-.21-.42-.52Z" fill="#231f20"/>
              </g>
              <g>
                <path d="M278.26,38.21l.31-.63-.42-.63h.73l.52-.42v.73l.73,.31-.63,.31v.73l-.63-.52h-.63v.1Z" fill="#2a9149"/>
                <path d="M279.52,36.43v.84l.84,.42-.84,.42v.84l-.63-.63-.84,.21,.31-.84-.42-.73h.94l.63-.52Zm0,1.05v-.52l-.31,.31h-.52l.21,.42-.21,.52h.52l.31,.31v-.52l.42-.21-.42-.31Z" fill="#231f20"/>
              </g>
              <g>
                <path d="M303.59,36.85l.31-.63-.31-.63h.73l.42-.42,.21,.73,.63,.31-.63,.31v.73l-.63-.52h-.73v.1Z" fill="#ffc50b"/>
                <path d="M304.85,35.07l.21,.84,.73,.42-.73,.42v.84l-.73-.63-.84,.21,.42-.84-.42-.73h.84l.52-.52Zm0,1.05v-.52l-.42,.31h-.52l.31,.42-.31,.52h.52l.42,.31v-.52l.52-.21-.52-.31Z" fill="#231f20"/>
              </g>
              <g>
                <path d="M306.42,68.15l-.21,1.15,.42-.31,.94,1.15,.63-.52-.94-1.15,.31-.21-1.15-.21h0v.1Z" fill="#f2200a"/>
                <path d="M307.78,68.15l-.42,.31,.94,1.26-.84,.63-1.05-1.15-.42,.31,.21-1.47,1.47,.21,.1-.1Zm.21,1.47l-1.05-1.15,.21-.21h-.84v.73l.21-.21,1.05,1.26,.42-.42Z" fill="#231f20"/>
              </g>
              <g>
                <path d="M273.86,63.65h-1.15l.21,.21-1.15,1.05,.52,.63,1.15-.94,.31,.31v-1.15l.1-.1Z" fill="#2a9149"/>
                <path d="M274.07,63.55l-.21,1.57-.42-.52-1.15,1.05-.73-.94,1.26-.94-.42-.52,1.57,.21,.1,.1Zm-.42,1.15v-.84h-.73l.21,.21-1.15,.94,.31,.52,1.15-.94h.21v.1Z" fill="#231f20"/>
              </g>
              <g>
                <path d="M278.36,31.2v-1.15l-.21,.21-.94-1.15-.73,.52,1.05,1.15-.42,.31h1.15l.1,.1Z" fill="#ffc50b"/>
                <path d="M278.68,29.84l-.21,1.57-1.57-.21,.52-.42-.94-1.15,.84-.73,.94,1.26,.52-.42-.1,.1Zm-.42,1.26v-.73h-.21l-1.05-1.15-.42,.31,.94,1.26h.63v.31h.1Z" fill="#231f20"/>
              </g>
              <g>
                <path d="M310.82,35.8h1.15l-.31-.21,1.26-1.05-.52-.63-1.15,.94-.31-.31-.21,1.15,.1,.1Z" fill="#111e96"/>
                <path d="M312.49,33.81l.63,.94-1.15,.94,.42,.52-1.57-.31,.21-1.47,.42,.52,1.15-1.05-.1-.1Zm.31,.84l-.31-.42-1.26,.94v.52h.73v-.21l.94-.84h-.1Z" fill="#231f20"/>
              </g>
            </g>
          </g>
          <g>
            <path d="M268.31,83.96s0,.73-.21,.94h0l-7.85,5.44h-.63l-3.66-10.47s0-.73,.21-1.05l7.01-6.49s.42-.21,.52,0h0v.21l4.61,11.52v-.1Z" fill="#fff"/>
            <path d="M268.31,83.96s.52,.52,.94,.63l8.58-.52s.42,0,.42-.31v-.31l-4.4-10.47s-.52-.63-.94-.73l-8.58-.73s-.42,0-.52,.31v.31l4.5,11.83Z" fill="#fff"/>
            <path d="M268,84.9l1.15-.42,8.48-.42s.42,0,0,.31l-7.85,4.82-1.15,.42-8.37,1.05s-.42,0,0-.31l7.85-5.44h-.1Z" fill="#fff"/>
          </g>
          <g opacity=".5">
            <path d="M260.99,89.19s-.94,.31-1.26,0h0s-.21-.31-.21-.42l-3.04-8.27c-.21-.73,0-1.57,.52-2.09l5.44-5.03s.63-.42,.94-.21h.1l.31,.52,3.66,9.53c.21,.73,0,1.47-.63,1.99l-3.56,2.41-2.09,1.47-.21,.21v-.1Zm9.32-.84c-.73,.42-1.57,.73-2.41,.84l-5.13,.63c-.73,0-.84,0-.21-.52l.42-.31,2.09-1.47,2.51-1.67c.73-.42,1.57-.73,2.41-.84l5.23-.31c.73,0,.84,.31,.21,.63l-5.13,3.14v-.1Zm1.57-4.5h-2.2c-.63,0-1.15-.52-1.26-1.15l-3.35-8.48-.73-1.67s.42-.52,1.15-.42l6.28,.52c.73,0,1.47,.63,1.78,1.26l3.56,8.27s0,.94-.31,1.15h-.52l-4.5,.42,.1,.1Z" fill="#fff"/>
          </g>
          <path d="M264.02,83.12c-.21-.63,.21-1.26,.84-1.47h.1c.63-.1,1.15,.42,1.15,1.36,.21,.63-.21,1.26-.84,1.47h-.1c-.63,.1-1.15-.42-1.15-1.36Zm5.23-1.26s-.52-1.15-.1-1.67h0s1.15,0,1.67,.73,.52,1.36,0,1.67-1.15,0-1.57-.73Zm-3.04-7.12c-.52-.73-.52-1.47,0-1.78s1.15,0,1.57,.73,.52,1.47,0,1.78-1.15,0-1.57-.73Zm8.27,7.12s-.42-1.15,0-1.57c.42-.31,1.05,0,1.36,.63s.52,1.26,0,1.57-1.15,0-1.47-.63h.1Zm-5.55,3.98c.73-.31,1.26-.31,1.36,0s-.42,.63-1.15,.94-1.26,.31-1.36,0,.42-.73,1.15-.94Zm-2.62,1.57c.73-.21,1.26-.31,1.26,0s-.31,.63-1.05,.94-1.15,.31-1.26,0,.42-.63,1.05-.94Zm-2.41,1.57c.63-.21,1.15-.31,1.15,0s-.42,.52-1.05,.84-1.15,.31-1.15,0,.42-.63,1.05-.84Zm5.23-.63c.63-.21,1.05-.21,1.15,0s-.31,.52-.84,.73-1.05,.31-1.15,0,.31-.52,.84-.73Zm2.51-1.57c.63-.21,1.15-.31,1.15,0s-.42,.52-1.05,.84-1.15,.31-1.15,0,.31-.52,1.05-.84Zm2.51-1.47s.94-.21,1.36-.21c0,.21-.52,.63-1.15,.94s-1.36,.31-1.36,.21,.42-.63,1.15-.94Zm-2.41-10.26s-.42-1.15,0-1.57c.31-.31,1.05,0,1.36,.63s.42,1.26,0,1.57-1.05,0-1.36-.63Zm-14.66,4.82c0-.73,.42-1.36,.94-1.36s1.05,.52,1.15,1.26c.21,.63-.21,1.15-.73,1.36h-.1s-1.05-.42-1.15-1.26h-.1Z" fill="#231f20"/>
          <g>
            <g>
              <path d="M289.36,101.86s0,.52-.21,.63h-.21l-12.46,2.72s-.73,0-.84-.42h0l-4.71-11.62s0-.63,.21-.73h0l13.19-3.35s.63,0,.84,.42l4.19,12.25v.1Z" fill="#fff"/>
              <path d="M289.36,101.86s.31,.31,.31,0l.52-4.92v-1.26l-3.35-10.47s-.31-.42-.42,0l-1.15,3.25v1.15l4.19,12.25h-.1Zm-18.22-9.42s-.42,0-.21-.31l3.25-3.98s.63-.52,1.05-.73l10.68-2.93s.52,.21,.42,.52l-1.15,3.25s-.42,.63-.84,.84l-13.19,3.35Z" fill="#fff"/>
            </g>
            <ellipse cx="277.55" cy="102.08" rx="1.26" ry="1.47" transform="translate(125.71 355.86) rotate(-79.3)" fill="#231f20"/>
            <ellipse cx="286.07" cy="101.72" rx="1.15" ry="1.47" transform="translate(131.63 363.13) rotate(-79)" fill="#231f20"/>
            <ellipse cx="282.61" cy="93.33" rx="1.26" ry="1.47" transform="translate(138.43 353.71) rotate(-79.3)" fill="#231f20"/>
            <path d="M288.73,96.63s.42,.52,.52,1.26,.21,1.26,0,1.26-.42-.52-.52-1.15,0-1.36,0-1.36Zm-.73-4.92s.42,.63,.52,1.26c.21,.42,.21,.94,0,1.36-.21,0-.42-.63-.63-1.26v-1.36h.1Zm-1.05-4.71s.42,.52,.52,1.26,0,1.26,0,1.26c0,0-.42-.52-.63-1.15s0-1.36,0-1.36h.1Zm-6.49,2.2s.52-.63,1.26-.94,1.47-.42,1.47-.21-.52,.63-1.15,.94c-.52,.21-1.05,.21-1.57,.21h0Zm.73-1.36s.52-.52,1.15-.84,1.36-.31,1.36-.21-.42,.63-1.15,.94-1.36,.31-1.47,0l.1,.1Zm.73-1.15s.42-.52,1.15-.84,1.15-.31,1.26,0-.42,.52-1.05,.84-1.26,.31-1.36,0Zm-8.27,4.5s.52-.63,1.26-.94c.42-.21,.94-.31,1.47-.21,0,.21-.52,.63-1.26,.94s-1.36,.42-1.47,.21Zm.73-1.36s.42-.52,1.15-.84,1.26-.31,1.36,0-.52,.52-1.15,.84-1.26,.31-1.36,0Zm.73-1.15s.42-.52,1.15-.73,1.15-.31,1.26,0c-.21,.42-.63,.63-1.15,.73-.63,.31-1.26,.31-1.26,0Z" fill="#231f20"/>
            <ellipse cx="274.88" cy="95.21" rx="1.26" ry="1.47" transform="translate(130.3 347.63) rotate(-79.3)" fill="#231f20"/>
          </g>
        </g>
        <g>
          <path d="M-14.55,365.05c-1.99,0-3.87-.52-5.55-1.36-2.3-1.26-4.08-3.35-5.02-5.76l-19.79-48.89c-1.15-2.83-1.15-5.97,0-8.79s3.35-5.02,6.18-6.07l48.89-19.79c5.86-2.3,12.56,.52,14.87,6.39l19.79,48.99c2.3,5.86-.52,12.46-6.28,14.87l-48.89,19.68c-1.36,.52-2.83,.84-4.29,.84h0l.1-.1Zm29.1-88.67c-1.05,0-2.2,.1-3.25,.63l-48.89,19.68c-2.09,.84-3.77,2.51-4.61,4.61s-.94,4.4,0,6.49l19.79,48.89c.63,1.88,1.99,3.35,3.66,4.29,2.2,1.26,4.92,1.47,7.33,.52l48.99-19.79c4.29-1.78,6.39-6.7,4.71-11.1l-19.79-48.89c-.73-1.88-2.2-3.45-4.08-4.4-1.15-.63-2.51-.94-3.77-.94h-.1Z" fill="#ec1c24"/>
          <path d="M16.75,402.73c-4.61,0-8.79-2.83-10.57-7.12l-19.68-48.99c-2.41-5.86,.42-12.46,6.18-14.87h0l48.89-19.68c5.86-2.3,12.46,.52,14.87,6.28l19.79,48.89c2.3,5.86-.52,12.56-6.39,14.87l-48.89,19.79c-1.36,.52-2.83,.84-4.29,.84h.1Zm29.21-88.57c-1.05,0-2.2,.21-3.25,.63l-48.89,19.79c-4.29,1.68-6.49,6.6-4.71,10.89h0l19.68,49.1c1.78,4.29,6.7,6.39,11.1,4.71l48.99-19.79c4.4-1.78,6.49-6.7,4.71-11.1h0l-19.79-48.99c-1.26-3.25-4.4-5.34-7.85-5.34h0v.1Z" fill="#fff100"/>
          <path d="M98.3,400.64c-4.71,0-8.9-2.83-10.57-7.12l-19.79-48.89c-2.3-5.86,.52-12.56,6.39-14.87l48.89-19.79c5.86-2.3,12.46,.52,14.87,6.28l19.68,48.99c2.41,5.86-.42,12.46-6.18,14.87h0l-48.89,19.68c-1.36,.63-2.83,.84-4.29,.84h-.1Zm29.1-88.57c-1.05,0-2.09,.21-3.14,.63l-48.89,19.79c-4.29,1.67-6.49,6.6-4.82,10.89v.21l19.79,48.89c1.78,4.4,6.7,6.49,11.1,4.71h0l48.89-19.79c4.29-1.67,6.49-6.6,4.82-10.89v-.21l-19.79-48.89c-1.36-3.25-4.4-5.23-7.85-5.34h-.1Z" fill="#ec1c24"/>
          <path d="M177.03,416.13c-4.71,0-8.9-2.83-10.57-7.22l-19.79-48.89c-2.3-5.86,.52-12.46,6.28-14.87l48.99-19.79c5.86-2.3,12.56,.52,14.87,6.39l19.68,48.89c2.41,5.86-.42,12.46-6.18,14.87h0l-48.89,19.79c-1.36,.52-2.83,.84-4.29,.84h-.1Zm29.1-88.57c-1.05,0-2.09,.21-3.14,.63l-48.99,19.68c-4.29,1.78-6.39,6.7-4.71,11.1l19.79,48.89c1.78,4.4,6.7,6.49,11.1,4.71h0l48.89-19.68c4.4-1.78,6.49-6.7,4.71-11.1h0l-19.68-48.99c-1.36-3.25-4.5-5.34-7.96-5.34h0v.1Z" fill="#ec1c24"/>
          <path d="M139.65,410.48c-4.71,0-8.9-2.83-10.57-7.22l-19.79-48.89c-2.3-5.86,.52-12.46,6.28-14.87l48.89-19.79c5.86-2.3,12.56,.52,14.97,6.39l19.68,48.89c2.41,5.86-.42,12.46-6.18,14.87h0l-48.89,19.79c-1.36,.52-2.83,.84-4.29,.84h-.1Zm29.1-88.67c-1.05,0-2.2,.31-3.25,.73l-48.89,19.68c-4.4,1.78-6.49,6.7-4.71,11.1h0l19.79,48.99c1.67,4.29,6.6,6.49,10.89,4.71h.1l48.99-19.79c4.29-1.78,6.39-6.7,4.71-11.1l-19.79-48.89c-.73-1.99-2.2-3.56-4.08-4.5-1.26-.52-2.51-.84-3.77-.94h0ZM17.69,136.41l-8.27-12.35c-.84-1.26-2.62-1.57-3.87-.84l-12.46,8.27s-.84,.94-1.15,1.47c-.21,.84-.1,1.67,.31,2.41L.63,147.92c.84,1.26,2.62,1.57,3.87,.84l12.46-8.38c1.26-.84,1.67-2.62,.84-3.87h-.1v-.1Z" fill="#fff100"/>
          <path d="M143.53,18.95c-4.08,0-7.22-3.35-7.22-7.43s3.35-7.22,7.43-7.22,7.22,3.35,7.22,7.43c0,3.35-2.3,6.18-5.55,7.01l-1.78,.21h-.1Zm0-12.88c-3.04,0-5.44,2.51-5.44,5.55s2.51,5.44,5.55,5.44,5.44-2.51,5.44-5.55c0-.42,0-.84-.21-1.26-.63-2.51-2.83-4.19-5.44-4.19h.1Z" fill="url(#uuid-b999a95e-3d8c-4d27-9017-c1257aaad771)"/>
        </g>
      </g>
    </g>
  </g>
  <g>
    <path d="M33.71,16.02s-.21,.63-.42,.84l-3.35,3.35-3.56-2.2v-1.99c0-.63,.42-1.15,.94-1.15h0c.52,0,1.05,.31,1.05,.94h0v2.93l3.35-3.35s1.05-.42,1.47,0c.31,.21,.42,.52,.42,.84m-1.15,9.84h-.42s-.31,0-.42-.21l-3.35-3.35v2.62c0,.52-.42,1.05-1.05,1.05h-.1s-.94-.31-1.05-.84v-2.2l3.56-2.09,3.35,3.35s.52,.84,.21,1.26c0,0-.1,.21-.21,.21-.21,.21-.42,.31-.73,.31m-2.83-5.55v-.21l-.94-.52-2.51-1.36-2.09-1.15h-.31v6.39s0,.21,.21,.31h0l2.09-1.15,3.35-1.99h0v-.21l.21-.1Zm-.84,0h0l-2.72,1.47-1.57,1.05h-.21v-5.03l.21-.21h0l1.57,.94,2.62,1.57v.21h.1Z" fill="#fff"/>
    <path d="M28.16,20.41h0l-1.99,1.15-1.15,.73h-.21v-3.66h.21l1.15,.73,1.99,1.15h0" fill="#fff"/>
    <g>
      <path d="M51.4,20.2h0l-3.04-1.47-1.78-.94h-.31v5.02s0,.21,.21,.21h0l1.78-1.05,3.04-1.57h0s.1,0,.1-.1,0-.1-.1-.1h.1Zm-.73,0h0l-2.3,1.15-1.36,.84h-.21v-3.87s0-.21,.21-.21h0l1.36,.84,2.3,1.15h0v.1Z" fill="#fff"/>
      <path d="M50.15,20.31h0l-1.67,.94-1.15,.63h-.21v-3.04l.21-.21,1.15,.63,1.78,.94m-14.34-2.41h2.72c1.05-.1,2.09,.73,2.2,1.78h0c0,1.05-.94,1.68-2.2,1.68h-1.36v1.68h-1.15v-5.23l-.21,.1Zm2.41,2.51c.73,0,1.05-.31,1.05-.73s-.42-.84-1.05-.84h-1.15v1.47h1.15v.1Zm7.22,1.78v1.05h-4.08v-5.23h1.15v4.19h2.93Zm7.33-1.05l-2.3-3.35h1.36l1.47,2.3,1.47-2.3h1.36l-2.3,3.35v1.88h-1.26v-1.88h.21Zm4.4-3.04h.63v2.93l2.93-2.93h.94l-2.41,2.41,2.62,2.83h-.84l-2.3-2.41-.94,.94v1.47h-.63v-5.23Zm5.02,2.51c.31-1.67,1.78-2.72,3.45-2.51,1.26,.21,2.2,1.15,2.41,2.41-.21,1.68-1.67,2.83-3.35,2.62h0c-1.26-.21-2.3-1.26-2.51-2.51Zm5.23,0c-.1-1.26-1.26-2.2-2.51-2.09h0c-1.05,0-1.99,1.05-1.99,2.09,.1,1.26,1.26,2.2,2.51,2.09h0c1.05,0,1.99-1.05,1.99-2.09Zm1.57,1.88l.42-.52s1.15,.73,1.88,.73c.94,0,1.26-.42,1.26-.94s-.52-.84-1.57-1.05-1.88-.52-1.88-1.36,.84-1.47,1.88-1.47c.73,0,1.47,.21,1.99,.73l-.42,.52s-1.05-.73-1.67-.73c-.52,0-1.05,.31-1.15,.94,0,.52,.63,.84,1.57,1.05s1.88,.52,1.88,1.36-.73,1.47-1.99,1.57c-.84,0-1.57-.31-2.2-.84h0Zm5.55-4.4h.63l2.2,3.56,2.09-3.56h.73v5.23h-.73v-3.98l-2.09,3.66-2.2-3.56v3.87h-.73v-5.23h.1Zm7.01,2.51c.21-1.57,1.67-2.72,3.25-2.51h.21c1.26,.1,2.3,1.15,2.51,2.41-.21,1.67-1.67,2.83-3.35,2.62h0c-1.26-.21-2.3-1.26-2.51-2.51h-.1Zm5.23,0c-.1-1.26-1.26-2.2-2.51-2.09h0c-1.15,0-1.99,.94-2.09,2.09,.1,1.26,1.26,2.2,2.62,2.09,1.05-.1,1.88-1.05,1.99-2.09Zm1.57,1.88l.42-.52s1.15,.73,1.88,.73c.94,0,1.26-.42,1.26-.94s-.52-.84-1.57-1.05-1.88-.52-1.88-1.36,.84-1.47,1.88-1.47c.73,0,1.47,.21,1.99,.73l-.42,.42s-1.05-.63-1.57-.63c-.84,0-1.26,.42-1.26,.94s.63,.73,1.57,.94,1.88,.63,1.88,1.47-.63,1.47-1.99,1.47c-.84,0-1.57-.21-2.2-.73Z" fill="#fff"/>
    </g>
  </g>
  <path d="M23.45,116.2H321.81v21.15H23.45v-21.15Z" fill="#fff100"/>
  <path d="M22.4,193.88c0,.84-.21,1.67-.52,2.41l-.63,.94-.42,.52-.63,.52-.42,.52-.31,.31-.31,.31-.21,.21-.21,.21-.42,.42-.42,.42-.31,.31-.52,.52-.21,.21h0l-1.05-1.05-2.83-2.83c-.52-.63-.94-1.36-1.15-2.09-.21-.63-.31-1.15-.31-1.78,0-2.2,1.47-4.08,3.35-4.92,1.26-.52,2.62-.52,3.87,0l1.57,1.05c.52,.42,.94,.94,1.26,1.57s.52,1.26,.52,1.99v.52h0l.31-.31Zm-2.51,0v-.42c0-.73-.42-1.36-1.05-1.78-1.05-.94-2.72-.94-3.77,0-.31,.31-.63,.73-.73,1.15-.21,.42-.21,.84,0,1.26,.21,1.15,1.15,2.2,2.3,2.41h.73c.84-.1,1.57-.63,2.09-1.26,.31-.42,.52-.94,.52-1.47l-.1,.1Zm-2.93,8.17h1.47l1.99,.21,1.05,.21,.42,.21s.21,.21,0,.31c-.21,.21-.42,.21-.63,.31l-1.57,.21h-5.76l-1.15-.31-.42-.21v-.31h0l.63-.21,1.67-.31h2.41l-.1-.1Z" fill="#fff"/>
  <path d="M20.73,230.31c0-.94-.63-1.78-1.57-1.78h0c-.63,0-1.26,.42-1.47,1.05l-1.57-.63-3.35-1.26s-.73,1.15-.73,2.72,.21,2.72,.63,2.72h0l3.35-1.36,1.47-.63c.31,.63,.94,1.05,1.57,1.15,.94,0,1.67-.84,1.67-1.78h0v-.21Z" fill="#fff100"/>
  <path d="M20.73,256.27c0-.94-.73-1.78-1.67-1.78-.73,0-1.26,.42-1.47,1.15l-1.57-.63-3.35-1.26s-.73,1.15-.73,2.72,.31,2.72,.73,2.72h0l3.35-1.36,1.47-.63c.31,.63,.84,.94,1.47,1.05,.94,0,1.67-.73,1.67-1.67h0l.1-.31Z" fill="#fff"/>
  <path d="M51.4,277.84c0-.94-.73-1.88-1.67-1.88h0c-.73,0-1.26,.42-1.57,1.15l-1.57-.63-3.35-1.36h0s-.73,1.15-.73,2.83,.31,2.72,.73,2.72l3.45-1.36,1.57-.63c.21,.73,.84,1.15,1.57,1.15,.94,0,1.67-.73,1.67-1.67h0l-.1-.31Z" fill="#fff100"/>
  <path d="M148.76,298.15c0-1.05-.73-1.99-1.78-1.99h0c-.73,0-1.36,.42-1.67,1.15l-1.67-.73-3.66-1.36s-.84,1.26-.84,3.04,.31,2.93,.84,2.93l3.66-1.36,1.67-.73c.31,.63,.94,1.15,1.67,1.15,1.05,0,1.88-.94,1.88-1.99h0l-.1-.1Zm-97.36,0c0-.94-.63-1.78-1.57-1.78h0c-.73,0-1.36,.42-1.57,1.05l-1.57-.73-3.35-1.26h0s-.73,1.15-.73,2.83,.31,2.72,.73,2.72l3.45-1.36,1.57-.63c.31,.84,1.26,1.36,2.2,1.05,.73-.21,1.15-.94,1.15-1.78h0l-.31-.1Z" fill="#fff"/>
  <path d="M225.5,299.93h86.16v21.15h-86.16v-21.15Z" fill="#fff100"/>
</svg>