<svg id="b9a9e369-b0ad-4e91-8b4e-b36d9abe780a" data-name="Layer 1" xmlns="http://www.w3.org/2000/svg" xmlns:xlink="http://www.w3.org/1999/xlink" width="335" height="335" viewBox="0 0 335 335">
  <defs>
    <clipPath id="fd7316b5-4f3e-4d54-b298-35e304f979ca">
      <rect width="335" height="335" fill="none"/>
    </clipPath>
    <radialGradient id="b86005ab-ba6e-4b08-bedc-6d36aa827af3" cx="167.5" cy="167.5" r="167.5" gradientUnits="userSpaceOnUse">
      <stop offset="0" stop-color="#1c75bc" stop-opacity="0.9"/>
      <stop offset="1" stop-color="#262262"/>
    </radialGradient>
  </defs>
  <g>
    <g clip-path="url(#fd7316b5-4f3e-4d54-b298-35e304f979ca)">
      <g>
        <g>
          <path d="M282,229.2a52.7,52.7,0,1,1-52.7,52.7v-7.5H187.8V214.1H214l-46.5-46.6-46.7,46.6h26.4V319.5h40.6V259.4h46.6A53,53,0,0,1,282,229.2Zm0,13.2a39.6,39.6,0,1,1-39.5,39.5A39.5,39.5,0,0,1,282,242.4Z" fill="#ffcd05" fill-rule="evenodd"/>
          <path d="M167.5,167.5l-46.6,46.6h26.3V334.6H334.7V187.8H214v26.3Z" fill="none" stroke="#010101" stroke-miterlimit="19.9" stroke-width="0.4"/>
          <path d="M147.2,214.1h66.9l15.1,15" fill="none" stroke="#010101" stroke-miterlimit="19.9" stroke-width="0.4"/>
          <path d="M147.2,229.1h82.1" fill="none" stroke="#010101" stroke-miterlimit="19.9" stroke-width="0.4"/>
          <path d="M147.2,244.2h82.1" fill="none" stroke="#010101" stroke-miterlimit="19.9" stroke-width="0.4"/>
          <path d="M147.2,259.3h82.1" fill="none" stroke="#010101" stroke-miterlimit="19.9" stroke-width="0.4"/>
          <path d="M147.2,274.3h82.1" fill="none" stroke="#010101" stroke-miterlimit="19.9" stroke-width="0.4"/>
          <path d="M147.2,289.4h82.1" fill="none" stroke="#010101" stroke-miterlimit="19.9" stroke-width="0.4"/>
          <path d="M147.2,304.5h82.1" fill="none" stroke="#010101" stroke-miterlimit="19.9" stroke-width="0.4"/>
          <path d="M147.2,319.5h82.1" fill="none" stroke="#010101" stroke-miterlimit="19.9" stroke-width="0.4"/>
          <path d="M187.8,214.1V335" fill="none" stroke="#010101" stroke-miterlimit="19.9" stroke-width="0.4"/>
          <path d="M229.2,187.8v41.4" fill="none" stroke="#010101" stroke-miterlimit="19.9" stroke-width="0.4"/>
          <path d="M244.3,187.8v41.4" fill="none" stroke="#010101" stroke-miterlimit="19.9" stroke-width="0.4"/>
          <path d="M259.3,187.8v41.4" fill="none" stroke="#010101" stroke-miterlimit="19.9" stroke-width="0.4"/>
          <path d="M274.4,187.8v41.4" fill="none" stroke="#010101" stroke-miterlimit="19.9" stroke-width="0.4"/>
          <path d="M289.5,187.8v41.4" fill="none" stroke="#010101" stroke-miterlimit="19.9" stroke-width="0.4"/>
          <path d="M304.5,187.8v41.4" fill="none" stroke="#010101" stroke-miterlimit="19.9" stroke-width="0.4"/>
          <path d="M319.6,187.8v41.4" fill="none" stroke="#010101" stroke-miterlimit="19.9" stroke-width="0.4"/>
          <path d="M334.9,229.2l-.2.2H229.3V229H334.7l.2.2Zm-.2-.2h.2v.2Zm0,105.9-.2-.2V229.2h.4V334.7l-.2.2Zm.2-.2v.2h-.2Zm-105.8,0,.2-.2H334.7v.4H229.3l-.2-.2Zm.2.2h-.2v-.2Zm0-105.9.2.2V334.7h-.4V229.2l.2-.2Zm-.2.2V229h.2Z" fill="#010101"/>
          <path d="M229.2,53a52.7,52.7,0,1,1,52.7,52.7h-7.5v41.5H214.1V121l-46.6,46.5,46.6,46.7V187.8H319.5V147.2H259.4V100.7A53,53,0,0,1,229.2,53Zm13.2,0a39.6,39.6,0,1,1,39.5,39.5A39.5,39.5,0,0,1,242.4,53Z" fill="#243e90" fill-rule="evenodd"/>
          <path d="M167.5,167.5l46.6,46.6V187.8H334.6V.3H187.8V121h26.3Z" fill="none" stroke="#010101" stroke-miterlimit="19.9" stroke-width="0.4"/>
          <path d="M214.1,187.8V120.9l15-15.1" fill="none" stroke="#010101" stroke-miterlimit="19.9" stroke-width="0.4"/>
          <path d="M229.1,187.8V105.7" fill="none" stroke="#010101" stroke-miterlimit="19.9" stroke-width="0.4"/>
          <path d="M244.2,187.8V105.7" fill="none" stroke="#010101" stroke-miterlimit="19.9" stroke-width="0.4"/>
          <path d="M259.3,187.8V105.7" fill="none" stroke="#010101" stroke-miterlimit="19.9" stroke-width="0.4"/>
          <path d="M274.3,187.8V105.7" fill="none" stroke="#010101" stroke-miterlimit="19.9" stroke-width="0.4"/>
          <path d="M289.4,187.8V105.7" fill="none" stroke="#010101" stroke-miterlimit="19.9" stroke-width="0.4"/>
          <path d="M304.5,187.8V105.7" fill="none" stroke="#010101" stroke-miterlimit="19.9" stroke-width="0.4"/>
          <path d="M319.5,187.8V105.7" fill="none" stroke="#010101" stroke-miterlimit="19.9" stroke-width="0.4"/>
          <path d="M214.1,147.2H335" fill="none" stroke="#010101" stroke-miterlimit="19.9" stroke-width="0.4"/>
          <path d="M187.8,105.8h41.4" fill="none" stroke="#010101" stroke-miterlimit="19.9" stroke-width="0.4"/>
          <path d="M187.8,90.7h41.4" fill="none" stroke="#010101" stroke-miterlimit="19.9" stroke-width="0.4"/>
          <path d="M187.8,75.7h41.4" fill="none" stroke="#010101" stroke-miterlimit="19.9" stroke-width="0.4"/>
          <path d="M187.8,60.6h41.4" fill="none" stroke="#010101" stroke-miterlimit="19.9" stroke-width="0.4"/>
          <path d="M187.8,45.5h41.4" fill="none" stroke="#010101" stroke-miterlimit="19.9" stroke-width="0.4"/>
          <path d="M187.8,30.5h41.4" fill="none" stroke="#010101" stroke-miterlimit="19.9" stroke-width="0.4"/>
          <path d="M187.8,15.4h41.4" fill="none" stroke="#010101" stroke-miterlimit="19.9" stroke-width="0.4"/>
          <path d="M229.2.1l.2.2V105.7H229V.3l.2-.2Zm-.2.2V.1h.2ZM334.9.3l-.2.2H229.2V.1H334.7Zm-.2-.2h.2V.3Zm0,105.8-.2-.2V.3h.4V105.7l-.2.2Zm.2-.2v.2h-.2Zm-105.9,0,.2-.2H334.7v.4H229.2l-.2-.2Zm.2.2H229v-.2Z" fill="#010101"/>
          <path d="M53,105.8a52.7,52.7,0,1,1,52.7-52.7v7.5h41.5v60.3H121l46.5,46.6,46.7-46.6H187.8V15.5H147.2V75.6H100.7A53,53,0,0,1,53,105.8Zm0-13.2A39.6,39.6,0,1,1,92.5,53.1,39.5,39.5,0,0,1,53,92.6Z" fill="#ed2224" fill-rule="evenodd"/>
          <path d="M167.5,167.5l46.6-46.6H187.8V.4H.3V147.2H121V120.9Z" fill="none" stroke="#010101" stroke-miterlimit="19.9" stroke-width="0.4"/>
          <path d="M187.8,120.9H120.9l-15.1-15" fill="none" stroke="#010101" stroke-miterlimit="19.9" stroke-width="0.4"/>
          <path d="M187.8,105.9H105.7" fill="none" stroke="#010101" stroke-miterlimit="19.9" stroke-width="0.4"/>
          <path d="M187.8,90.8H105.7" fill="none" stroke="#010101" stroke-miterlimit="19.9" stroke-width="0.4"/>
          <path d="M187.8,75.7H105.7" fill="none" stroke="#010101" stroke-miterlimit="19.9" stroke-width="0.4"/>
          <path d="M187.8,60.7H105.7" fill="none" stroke="#010101" stroke-miterlimit="19.9" stroke-width="0.4"/>
          <path d="M187.8,45.6H105.7" fill="none" stroke="#010101" stroke-miterlimit="19.9" stroke-width="0.4"/>
          <path d="M187.8,30.6H105.7" fill="none" stroke="#010101" stroke-miterlimit="19.9" stroke-width="0.4"/>
          <path d="M187.8,15.5H105.7" fill="none" stroke="#010101" stroke-miterlimit="19.9" stroke-width="0.4"/>
          <path d="M147.2,120.9V0" fill="none" stroke="#010101" stroke-miterlimit="19.9" stroke-width="0.4"/>
          <path d="M105.8,147.2V105.8" fill="none" stroke="#010101" stroke-miterlimit="19.9" stroke-width="0.4"/>
          <path d="M90.7,147.2V105.8" fill="none" stroke="#010101" stroke-miterlimit="19.9" stroke-width="0.4"/>
          <path d="M75.7,147.2V105.8" fill="none" stroke="#010101" stroke-miterlimit="19.9" stroke-width="0.4"/>
          <path d="M60.6,147.2V105.8" fill="none" stroke="#010101" stroke-miterlimit="19.9" stroke-width="0.4"/>
          <path d="M45.5,147.2V105.8" fill="none" stroke="#010101" stroke-miterlimit="19.9" stroke-width="0.4"/>
          <path d="M30.5,147.2V105.8" fill="none" stroke="#010101" stroke-miterlimit="19.9" stroke-width="0.4"/>
          <path d="M15.4,147.2V105.8" fill="none" stroke="#010101" stroke-miterlimit="19.9" stroke-width="0.4"/>
          <path d="M.1,105.8l.2-.2H105.7v.4H.3l-.2-.2Zm.2.2H.1v-.2ZM.3.1.5.3V105.8H.1V.3ZM.1.3V.1H.3ZM105.9.3l-.2.2H.3V.1H105.7l.2.2Zm-.2-.2h.2V.3Zm0,105.9-.2-.2V.3h.4V105.8Zm.2-.2v.2h-.2Z" fill="#010101"/>
          <path d="M105.8,282a52.7,52.7,0,1,1-52.7-52.7h7.5V187.8h60.3V214l46.6-46.5-46.6-46.7v26.4H15.5v40.6H75.6v46.6A53,53,0,0,1,105.8,282Zm-13.2,0a39.6,39.6,0,1,1-39.5-39.5A39.5,39.5,0,0,1,92.6,282Z" fill="#6abd45" fill-rule="evenodd"/>
          <path d="M167.5,167.5l-46.6-46.6v26.3H.4V334.7H147.2V214H120.9Z" fill="none" stroke="#010101" stroke-miterlimit="19.9" stroke-width="0.4"/>
          <path d="M120.9,147.2v66.9l-15,15.1" fill="none" stroke="#010101" stroke-miterlimit="19.9" stroke-width="0.4"/>
          <path d="M105.9,147.2v82.1" fill="none" stroke="#010101" stroke-miterlimit="19.9" stroke-width="0.4"/>
          <path d="M90.8,147.2v82.1" fill="none" stroke="#010101" stroke-miterlimit="19.9" stroke-width="0.4"/>
          <path d="M75.7,147.2v82.1" fill="none" stroke="#010101" stroke-miterlimit="19.9" stroke-width="0.4"/>
          <path d="M60.7,147.2v82.1" fill="none" stroke="#010101" stroke-miterlimit="19.9" stroke-width="0.4"/>
          <path d="M45.6,147.2v82.1" fill="none" stroke="#010101" stroke-miterlimit="19.9" stroke-width="0.4"/>
          <path d="M30.6,147.2v82.1" fill="none" stroke="#010101" stroke-miterlimit="19.9" stroke-width="0.4"/>
          <path d="M15.5,147.2v82.1" fill="none" stroke="#010101" stroke-miterlimit="19.9" stroke-width="0.4"/>
          <path d="M120.9,187.8H0" fill="none" stroke="#010101" stroke-miterlimit="19.9" stroke-width="0.4"/>
          <path d="M147.2,229.2H105.8" fill="none" stroke="#010101" stroke-miterlimit="19.9" stroke-width="0.4"/>
          <path d="M147.2,244.3H105.8" fill="none" stroke="#010101" stroke-miterlimit="19.9" stroke-width="0.4"/>
          <path d="M147.2,259.3H105.8" fill="none" stroke="#010101" stroke-miterlimit="19.9" stroke-width="0.4"/>
          <path d="M147.2,274.4H105.8" fill="none" stroke="#010101" stroke-miterlimit="19.9" stroke-width="0.4"/>
          <path d="M147.2,289.5H105.8" fill="none" stroke="#010101" stroke-miterlimit="19.9" stroke-width="0.4"/>
          <path d="M147.2,304.5H105.8" fill="none" stroke="#010101" stroke-miterlimit="19.9" stroke-width="0.4"/>
          <path d="M147.2,319.6H105.8" fill="none" stroke="#010101" stroke-miterlimit="19.9" stroke-width="0.4"/>
          <path d="M105.8,334.9l-.2-.2V229.3h.4V334.7l-.2.2Zm.2-.2v.2h-.2ZM.1,334.7l.2-.2H105.8v.4H.3l-.2-.2Zm.2.2H.1v-.2Zm0-105.8.2.2V334.7H.1V229.3l.2-.2Zm-.2.2v-.2H.3Zm105.9,0-.2.2H.3v-.4H105.8Zm-.2-.2h.2v.2Z" fill="#010101"/>
          <path d="M167.5,321.9a5.6,5.6,0,1,1-5.6,5.6A5.6,5.6,0,0,1,167.5,321.9Z" fill="#663614" stroke="#010101" stroke-miterlimit="19.9" stroke-width="0.4" fill-rule="evenodd"/>
          <path d="M207.6,261.4A5.6,5.6,0,1,1,202,267,5.6,5.6,0,0,1,207.6,261.4Z" fill="#fff" stroke="#010101" stroke-miterlimit="19.9" stroke-width="0.4" fill-rule="evenodd"/>
          <path d="M267.1,202.9a5.6,5.6,0,1,1-5.6,5.6A5.6,5.6,0,0,1,267.1,202.9Z" fill="#663614" stroke="#010101" stroke-miterlimit="19.9" stroke-width="0.4" fill-rule="evenodd"/>
          <path d="M321.9,167.5a5.6,5.6,0,1,1,5.6,5.6A5.6,5.6,0,0,1,321.9,167.5Z" fill="#663614" stroke="#010101" stroke-miterlimit="19.9" stroke-width="0.4" fill-rule="evenodd"/>
          <path d="M261.4,127.4a5.6,5.6,0,1,1,5.6,5.5A5.6,5.6,0,0,1,261.4,127.4Z" fill="#fff" stroke="#010101" stroke-miterlimit="19.9" stroke-width="0.4" fill-rule="evenodd"/>
          <path d="M203,67.9a5.6,5.6,0,1,1,5.5,5.6A5.6,5.6,0,0,1,203,67.9Z" fill="#663614" stroke="#010101" stroke-miterlimit="19.9" stroke-width="0.4" fill-rule="evenodd"/>
          <path d="M167.5,13.1a5.6,5.6,0,1,1,5.6-5.6A5.6,5.6,0,0,1,167.5,13.1Z" fill="#663614" stroke="#010101" stroke-miterlimit="19.9" stroke-width="0.4" fill-rule="evenodd"/>
          <path d="M127.4,73.5a5.6,5.6,0,1,1,5.6-5.6A5.6,5.6,0,0,1,127.4,73.5Z" fill="#fff" stroke="#010101" stroke-miterlimit="19.9" stroke-width="0.4" fill-rule="evenodd"/>
          <path d="M67.9,132a5.6,5.6,0,1,1,5.6-5.6A5.6,5.6,0,0,1,67.9,132Z" fill="#663614" stroke="#010101" stroke-miterlimit="19.9" stroke-width="0.4" fill-rule="evenodd"/>
          <path d="M13.1,167.5a5.6,5.6,0,1,1-5.6-5.6A5.6,5.6,0,0,1,13.1,167.5Z" fill="#663614" stroke="#010101" stroke-miterlimit="19.9" stroke-width="0.4" fill-rule="evenodd"/>
          <path d="M73.6,207.6A5.6,5.6,0,1,1,68,202,5.6,5.6,0,0,1,73.6,207.6Z" fill="#fff" stroke="#010101" stroke-miterlimit="19.9" stroke-width="0.4" fill-rule="evenodd"/>
          <path d="M132,267a5.6,5.6,0,1,1-5.5-5.5A5.6,5.6,0,0,1,132,267Z" fill="#663614" stroke="#010101" stroke-miterlimit="19.9" stroke-width="0.4" fill-rule="evenodd"/>
        </g>
        <rect width="335" height="335" fill="url(#b86005ab-ba6e-4b08-bedc-6d36aa827af3)"/>
      </g>
    </g>
    <g>
      <g>
        <path d="M33.5,20.4a1.6,1.6,0,0,1-.5,1.1l-5.2,5.2-5.5-3.2V20.4a1.7,1.7,0,0,1,1.6-1.7,1.8,1.8,0,0,1,1.7,1.7h0v3.9l5.1-5.1a1.7,1.7,0,0,1,2.3,0,1.7,1.7,0,0,1,.5,1.2" fill="#fff200"/>
        <path d="M31.9,35.4h-.7l-.5-.4-5.1-5.1v3.9a1.8,1.8,0,0,1-1.7,1.7,1.7,1.7,0,0,1-1.6-1.7V30.6l5.5-3.2L33,32.6a1.6,1.6,0,0,1-1.1,2.8" fill="#fff200"/>
        <path d="M27.6,26.9l-.2-.2h0L26,25.9l-3.7-2.1-3.2-1.9c-.1-.1-.4,0-.5.2v9.7c0,.2.1.4.3.4h.2l3.2-1.9,5.1-2.9h.1a.1.1,0,0,0,.1-.1h0Zm-1.3.2c0,.1,0,.2-.1.2l-4,2.3L19.8,31c-.2.1-.3.1-.4-.1h-.1V23.3a.5.5,0,0,1,.3-.3h.2l2.4,1.4,4,2.3c.1.1.2.2.1.3Z" fill="#fff200"/>
        <path d="M25.2,27.1h-.1l-3,1.8-1.8,1a.2.2,0,0,1-.3,0V24.3c0-.2.1-.3.2-.3a.1.1,0,0,1,.1.1l1.8,1,3,1.8c.1,0,.1,0,.1.1h0" fill="#fff200"/>
      </g>
      <g>
        <path d="M60.6,26.8h-.2l-4.6-2.3L53,23c-.2-.1-.5,0-.5.2v7.6a.3.3,0,0,0,.5.3l2.8-1.5,4.5-2.4.2-.2Zm-1.1.2h-.1L55.8,29l-2.1,1.2c-.2,0-.4-.1-.4-.2V24.1a.3.3,0,0,1,.3-.3h.1L55.8,25l3.5,1.7.2.2Z" fill="#fff200"/>
        <path d="M58.5,27h-.1l-2.6,1.4-1.7.9h-.2a.1.1,0,0,1-.1-.1V24.8a.2.2,0,0,1,.2-.2h.1l1.6.9,2.7,1.3h.1" fill="#fff200"/>
        <path d="M36.8,23.1h4c1.9,0,3.3,1.1,3.4,2.7s-1.4,2.7-3.3,2.7H38.8V31H36.9Zm3.8,3.7c1,0,1.6-.4,1.6-1.1s-.6-1.1-1.6-1.1H38.7v2.3Z" fill="#fff200"/>
        <path d="M51.6,29.5V31H45.3V23.2h1.9v6.4Z" fill="#fff200"/>
        <path d="M62.6,28l-3.5-5h2.2l2.3,3.4L65.8,23h2.1L64.5,28v2.9H62.7Z" fill="#fff200"/>
        <path d="M69.1,23.4h1.1v4.4l4.4-4.4h1.3L72.3,27l4,4.3H75l-3.4-3.7L70.2,29v2.3h-1Z" fill="#fff200"/>
        <path d="M76.8,27.3c-.1-2.2,2-4.1,4.4-4.1a4.3,4.3,0,0,1,4.6,4,4.5,4.5,0,0,1-4.5,4.2A4.4,4.4,0,0,1,76.8,27.3Zm8-.1a3.5,3.5,0,0,0-7,.1,3.3,3.3,0,0,0,3.5,3.2,3.4,3.4,0,0,0,3.5-3.3Z" fill="#fff200"/>
        <path d="M87.1,30.1l.6-.7a3.8,3.8,0,0,0,2.9,1.1c1.4,0,2.1-.7,2.1-1.4s-.9-1.1-2.4-1.4-2.9-.9-3-2.2,1.3-2.3,3-2.3a4.5,4.5,0,0,1,3.1,1.1l-.6.7a4.2,4.2,0,0,0-2.6-1,1.6,1.6,0,0,0-1.8,1.4c0,.8.8,1.1,2.4,1.4s2.9.9,2.9,2.2-1.1,2.3-3.1,2.4A5,5,0,0,1,87.1,30.1Z" fill="#fff200"/>
        <path d="M95.5,23.4h1l3.3,5.5,3.3-5.5h1v8h-1v-6l-3.2,5.5-3.4-5.4v5.9h-1Z" fill="#fff200"/>
        <path d="M106,27.3a4.3,4.3,0,0,1,4.5-4.1,4.3,4.3,0,0,1,4.5,4,4.5,4.5,0,0,1-9,.1Zm8-.1a3.5,3.5,0,0,0-7,.1,3.4,3.4,0,0,0,3.5,3.2,3.4,3.4,0,0,0,3.5-3.3Z" fill="#fff200"/>
        <path d="M116.3,30.1l.6-.7a3.8,3.8,0,0,0,2.9,1.1c1.4,0,2.1-.7,2.1-1.4s-.9-1.1-2.4-1.4-2.9-.9-2.9-2.2,1.2-2.3,2.9-2.3a4.5,4.5,0,0,1,3.1,1.1l-.6.7a4.2,4.2,0,0,0-2.6-1,1.6,1.6,0,0,0-1.8,1.4c0,.8.9,1.1,2.4,1.4s2.9.9,2.9,2.2-1,2.3-3.1,2.4A5,5,0,0,1,116.3,30.1Z" fill="#fff200"/>
      </g>
    </g>
    <g>
      <rect x="232.3" y="277.7" width="75.1" height="56.95" fill="#fff200"/>
      <g>
        <path d="M322.5,284.9l6.3,7.4a10.7,10.7,0,0,1,1.5,2.2c.3,2.1-1.6,3.1-3.5,3.3l-12,1.3-.4.2a57,57,0,0,0-5.8.6l-6.6.7h-.5a1.2,1.2,0,0,1-1.1.4l-8.6,1a6.2,6.2,0,0,1-1.9.2l-1.6.2-9.6,1.1-1.9.2a4.1,4.1,0,0,0-1.6.2,2.7,2.7,0,0,1-2-.2,2.1,2.1,0,0,1-.3-1.9,1.6,1.6,0,0,1,1.4-.5l17.4-2,20.8-2.3,11.3-1.3,1.4-.4c1.4-.5,1.7-1.3.8-2.5s-2.3-2.9-3.5-4.3l-14.2-17.2c-.3-.4-.7-.7-.6-1.3a1.6,1.6,0,0,1,1.6-.4c1.2,1.1,2,2.5,3.2,3.6a8.5,8.5,0,0,1,2.5,2.5l4.5,5.2a1.6,1.6,0,0,1,.5.9,8.8,8.8,0,0,0,1.2,1.5A2.2,2.2,0,0,1,322.5,284.9Z" fill="#262262"/>
        <path d="M293.5,256.9l1.9-.2a4.4,4.4,0,0,1,4.4,1.8v.2a28.5,28.5,0,0,0,2.3,2.6c.3.4.8.6.9,1.1l.2.2,5.4,6.4.6.7c-.4.4-1,.3-1.5.4s-.7-.3-.9-.5-2.2-2.6-3.3-3.9-3.7-4.5-5.6-6.8a3.3,3.3,0,0,0-2.9-1.4h-1.7C293,257.1,293.2,257,293.5,256.9Z" fill="#fff200"/>
        <path d="M215.6,306.9c1-2.3,2.3-4.4,3.4-6.7,0-.1-.1-.2,0-.4l.9-1.8c1.6-3.3,3.4-6.5,5.1-9.8.1-.1.1-.3.2-.4.8-1.7,1.7-3.3,2.6-4.9s.7-1.8,1.5-2.4.6-1.4,1.2-1.9,1-.5,1.6-.1-.1,1.1-.3,1.6l-10,19.9c-.8,1.7-1.7,3.3-2.5,5.1s0,2.1,1.4,2.2h1.7l5.5-.6c.5-.1,12.9-1.2,13.4-.8,11.8-1.1.9,1.3.6,1.9s-12.8,1.5-13.2,1.5l-6.2.7a23,23,0,0,1-2.6.3c-.3,0-.7.1-.9-.2a6.1,6.1,0,0,1-2.6-.8A1.4,1.4,0,0,1,215.6,306.9Z" fill="#ed1c24"/>
        <path d="M232.1,278.7c-.5-.2-1.1.2-1.6-.1l1.6-3.3c1.2-1.9,2.2-3.9,3.2-5.9s1.4-2.5,2-3.9.6-1.6,1.6-1.9,1-.7,1.7-.3v.3c-1.8,1.5-2.4,3.8-3.4,5.7s-2.9,5.6-4.3,8.5C232.7,278.1,232.6,278.6,232.1,278.7Z" fill="#006838"/>
        <path d="M240.2,305.6l-.2-.2c-.7-.8-1.1-1.7-1.9-2.5a.4.4,0,0,1,.2-.6,22,22,0,0,1,3.7-.6l9.4-1.1c2.9-.3,5.9-.7,8.9-.9a2.1,2.1,0,0,0,2.1-1.7,3.9,3.9,0,0,0,.2-1.5V282.9a3.7,3.7,0,0,0-.1-1.1,6.5,6.5,0,0,1,.3-2.8c.2-.3.6-.3.9-.5,2.3-.5,4.7-.4,7-.8s3.3-.3,4.9-.6h1.6l.5.2a1.7,1.7,0,0,1,.7,1.3c1.3,5.4,2.6,10.8,3.8,16.3.4,1.8,1.2,2.3,3,2.1l22.6-2.6,11.5-1.3.7-.2c.5-.1.7-.5.4-1l-.4-.5-11.9-15.6a2.6,2.6,0,0,0-2.8-1.2l-19.7,2.2-6.6.7a1.5,1.5,0,0,1-1.3-.2,1.4,1.4,0,0,1-.5-.8l-1.2-5c0-.3-.1-.6.1-.9a.8.8,0,0,1,.5-.5h.9c.2,0,.5.2.3.3s0,1.4.2,2a1.1,1.1,0,0,0,.2,1.5.9.9,0,0,1,.4,1.1c-.2.9.2,1.2,1.1,1.2l1.5-.2c.3,0,.7,0,.8-.4a.9.9,0,0,0-.5-.9c-.3-.2-.7-.3-.4-.8a1,1,0,0,1,.5-.4h.7a2,2,0,0,1,1.1.3.4.4,0,0,1-.1.5c-.3.9.1,1.5,1,1.5l1.6-.2c.3,0,.6,0,.7-.4s-.1-.5-.3-.8l-.5-.2c-.5-.2-.4-.5-.1-.9l.3-.8a.4.4,0,0,1,.6,0l.8.8a1.1,1.1,0,0,1,.3.8,1,1,0,0,0,1.1,1.1h2c.6-.1.6-.4.4-.8s-.8-.7-.8-1.2a.5.5,0,0,1,.2-.4,1,1,0,0,1,.5-.4l.6.3c.5.2.9.3.7,1s.3,1,1,1.1l1.8-.2c.2,0,.7.1.7-.3s-.2-.6-.6-.8l-.7-.2a.7.7,0,0,1-.4-.6,1.4,1.4,0,0,1,.8-.5l.6-.2h.5c.5.2,1.3.1.8,1.2s.4.8,1,.9a7.4,7.4,0,0,0,2.1,0c.7-.1.7-.3.3-.9l-.4-.5a1,1,0,0,1-.1-1.4,13.1,13.1,0,0,0,2.8,0c.3-.1.9.1.9-.4s-.5-.6-.9-.7a8.2,8.2,0,0,0-2.2.2c-.5.1-.3.6-.5.9h-.2c-.5.1-.7-.4-1-.7s-.7-.4-.7-.9-.1-.5.1-.8.4-.1.6,0a4.3,4.3,0,0,0,2.5.3c.3,0,.7,0,.7-.3s-.2-.5-.5-.7-.7-.4-.4-.9,0-1-.3-1.3-2.5-3.4-3.8-5a4.7,4.7,0,0,1-.6-.9,2.7,2.7,0,0,0-3.2-1.4c-2.7.4-5.5.6-8.3.9a53.8,53.8,0,0,1-6.9.7h-.4c-.4,0-.8,0-.8-.4a.8.8,0,0,1,.8-.8l1.8-.2a27,27,0,0,1,4.1-.6l7.4-.8c1.2-.2,2.4-.1,3.5-.2s3.4.6,4.6,2.2c2.9,3.6,5.9,7.2,8.9,10.7l12.3,15,6,7.4c1.4,1.6.8,3.1-1.3,3.4s-3,.4-4.5.6l-23.8,2.7-20.3,2.3-3.2.4a2.1,2.1,0,0,1-1.7.5l-12.4,1.4L248.4,305l-7.1.8C240.9,305.8,240.5,305.9,240.2,305.6Z" fill="#fff"/>
        <path d="M273.3,303.7c-1.9.6-3.8.4-5.7.7s-6,.6-9,1.1c-.6.7-1.4.5-2.2.6l-11.1,1.3-3.4.3a1.7,1.7,0,0,1-1.4-.2c-.3-.6-.1-1.3-.3-1.9l17.5-2,14.5-1.7h.8Z" fill="#ed1c24"/>
        <path d="M279.3,259.1c-.4.3-.9.1-1.4.1s-1,.1-.9.5.5.2.8.2h.3c-.1.4-.5.4-.8.4a1.9,1.9,0,0,0-1.2.7l-.7.9a3.3,3.3,0,0,1-1.1.9c-1.2.7-2.4.4-3.7.3a19.7,19.7,0,0,1-3.4-.4l-1.2-.2c-1-.3-2.1-.1-3.1-.3a42.1,42.1,0,0,0-5,.4,1.8,1.8,0,0,1-1-.2c-.3-.2-.1-.4.2-.5s.5-.1.8-.1-.8.1-1.1-.2,0-.4-.3-.4l-.4-.3a3.4,3.4,0,0,1-2.8-1.8l2.1-2.4c2.3-2.7,4.4-5.5,6.7-8.1a3.6,3.6,0,0,0,1-3.5c-1.1-4.8-2.1-9.5-3-14.3a10.1,10.1,0,0,0-.9-1.8,2.1,2.1,0,0,1,1.3-.7c.5,0,.5.4.5.6.7,4.2,1.7,8.3,2.5,12.4.3,1.3.5,2.6.8,3.8a2.3,2.3,0,0,0,2,1.9c2.9.5,5.9.8,8.8,1.2l6.3.8a7,7,0,0,0,2.9-.1h.2c-.1,2.2-1.8,3.5-3,5.1l-3.2,3.9-.4.4C278.2,259.1,279,258.5,279.3,259.1Z" fill="#ece9e8"/>
        <path d="M279.3,259.1h-1.2c-.2,0-.4.1-.5-.1s.2-.3.3-.5a21.9,21.9,0,0,0,3.6-.3l11.5-1.4h.5c0,.1-.3.2,0,.3h.8a54.1,54.1,0,0,1-5.8.7Z" fill="#fff200"/>
        <path d="M259.2,229.1a1.5,1.5,0,0,1,1.1,1.3c1.1,5.2,2.1,10.4,3.2,15.6.3,1.3-.4,2-1.1,2.9l-7.7,9.4a4.2,4.2,0,0,1-1.4.9c-.8-1-.7-2.4-1.1-3.5s-.1-.9-.2-1.3a1.1,1.1,0,0,1-.6-1.1c-.6-3-1.4-5.9-1.8-8.9a5.5,5.5,0,0,1-.1-3.1v-.2a1.9,1.9,0,0,1,.8-1.6c1.9-2.1,3.7-4.3,5.4-6.5l2.7-3.2Z" fill="#fff"/>
        <path d="M256.1,261a5.1,5.1,0,0,1,1.7.3l-1,.3c-.7.6-1.5.4-2.3.5-4.1.5-8.1,1.1-12.2,1.4-.6,0-1.2.4-1.7,0s-1.1.3-1.7.1l1.1-.5a53.1,53.1,0,0,1,8-1.1C250.7,261.6,253.5,261.5,256.1,261Z" fill="#006838"/>
        <path d="M250.4,239.5a4.8,4.8,0,0,0-.8,1.6.6.6,0,0,1-.2-.5C249.8,240.2,249.8,239.6,250.4,239.5Z" fill="#312f8f"/>
        <path d="M240.6,263.5c5.3-.8,10.8-1.4,16.2-1.9.6.2,1.2-.1,1.9-.1s-1.4.4-1.9.9-.5.5-.9.5-1,0-1.6.2l-11.1,1.2a2.3,2.3,0,0,0-1.9,1.4l-3.5,7.8c-.1.2-.3.5-.1.7l.4.3c.7.2.5.5.1.8l-.4.3c-.2.1-.5.3-.4.6s.4.2.6.3.6,0,.5.4-.3.4-.6.5a3.8,3.8,0,0,0-1,.3c-.6.4-.7.8-.2,1.3s.3.6-.1.7-1.5,1.2-1.7,2.3-.1.2-.2.3a4.6,4.6,0,0,0-2.1,2.6l-7.7,16.8c-.7,1.6-.5,2,1.3,1.9l3.4-.4a1.7,1.7,0,0,1,1,.1c24.9-2.7,11,2.3,10.7,2.5s-11.7.1-12,1l-7.5.8h-.7c-2.2,0-2.9-1.2-1.9-3.2l12.6-25.2.3-.6,6.7-13.4A2.9,2.9,0,0,1,240.6,263.5Z" fill="#fff"/>
        <path d="M284.3,249c-.6,1-1.6.7-2.5.6l-13.7-1.8-2.3-.4a2.5,2.5,0,0,1-1.8-1.8l-3.3-15.7c-.1-.5.2-1-.2-1.5s.1-.1.1-.2h0c1.5-.1,2.9.4,4.5.4a14,14,0,0,1,3.5.2,1.2,1.2,0,0,1,1.1.5l8.6,1.1a8.4,8.4,0,0,1,1.4.6,1.5,1.5,0,0,1,1,.9,2,2,0,0,1,.5,1.5.6.6,0,0,0,.1.4,2.2,2.2,0,0,1,.3,1.4c0,.2,0,.3.1.4s.4.9.3,1.4v.4l1.5,7.8A16.9,16.9,0,0,1,284.3,249Z" fill="#fff"/>
        <path d="M277.7,277.2l7.9-.8,8.9-1.1,10.9-1.2a2.8,2.8,0,0,1,3,1.3c3.9,5.3,8,10.5,12,15.8,1,1.3.8,1.9-.9,2.1l-12.1,1.4L286.9,297l-2.3.3a2.4,2.4,0,0,1-2.7-2.1c-.5-2.9-1.3-5.7-1.9-8.5s-1.2-4.8-1.7-7.2a9.4,9.4,0,0,0-.7-2.2h.1Z" fill="#262262"/>
        <path d="M238.2,302.5c-2.4-1.5,2.3-2.3,0,0l-12.7,1.4c-1.4.1-1.7-.4-1.2-1.6,2.8-6.3,5.7-12.5,8.5-18.7a2.5,2.5,0,0,1,1.8-1.5c.7-.6,1.6-.4,2.3-.6l3.9-.4,8.7-1.1,10.9-1.2,1.6-.2c.3.1.7.1.9.4a7,7,0,0,0,0,2.5,1.7,1.7,0,0,0-.1,1v14.7a1.8,1.8,0,0,1-.1,1,2.2,2.2,0,0,1-2.2,1.8l-8.1.9-10.8,1.2Z" fill="#ed1c24"/>
        <path d="M275.8,261.1c.4-1.2,1.5-.9,2.3-1.1l8.1-.9,8.1-.9a1.7,1.7,0,0,1,1.6.8l5.6,7.3c.4.6.4,1-.4,1.2a7.7,7.7,0,0,1-3.4.7h-1.3a3.9,3.9,0,0,0-2.1.3h-1.1a3.1,3.1,0,0,0-2.1.3c-2.8.5-5.7.7-8.5,1a21.3,21.3,0,0,0-2.5.3c-1.2.3-2.3-.1-3.4.1h-.8a36.5,36.5,0,0,1-1.3-5.5.7.7,0,0,1,.1-.6,2.5,2.5,0,0,1,2.5,0l.3.3a5.2,5.2,0,0,0,3.5,2.3,19.8,19.8,0,0,0,11.8-.4,6.1,6.1,0,0,0,2.4-1.5c1-1,1-1.9-.1-2.8a8.8,8.8,0,0,0-2.6-1.2,18.9,18.9,0,0,0-7.1-.6,23.6,23.6,0,0,0-5.1,1.2c-.3.1-.6.4-1,.3h-2.4C276.4,261.7,276,261.6,275.8,261.1Z" fill="#fff200"/>
        <path d="M296.4,267.9c1.6.1,3.1-.4,4.7-.4-.1.3,0,.4.3.4s.7.4,1,.8.2.6-.4.7a5,5,0,0,1-3.8-.4,4.4,4.4,0,0,0-3-.2c-.2.1-.6,0-.6.4a.6.6,0,0,0,.6.5,9.7,9.7,0,0,0,1.7,0c.5-.1,1-.3,1.4,0s.6.3.6.7-1.6.2-2.3.3-1.2.1-.9,1,0,.2-.1.2l-.4.4-.5-.6a1.4,1.4,0,0,0-1.5-.6h-.4c-.9,0-1.6.1-1.7,1.2l-.3.4-.3-.2c-.8-1.5-2-.9-3.2-.7s-.5.5-.8.7-.3-.1-.4.1a3.7,3.7,0,0,0-3.1-.3c-.5,0-.6.2-.5.7a1.3,1.3,0,0,1-.1.6l-.7.2c-.4-1.3-1.4-1.3-2.6-1.1s-.9.2-1.2-.2-.3-.4-.5-.6-.4-1.1.3-1.6h-1l7-.9,7.5-.8c.6-.4,1.4-.2,2-.3h1.1Z" fill="#eceae9"/>
        <path d="M277.3,277.3c-1.9.4-3.9.4-5.8.7a19.3,19.3,0,0,1-4.2.4c-1.2-.1-2.4.5-3.7.4s-.5.2-.7-.1a.4.4,0,0,1,.1-.3,67.9,67.9,0,0,1,6.7-4.2h.5c2.2.6,4.3,1.4,6.4,2.2C277,276.6,277.4,276.8,277.3,277.3Z" fill="#262262"/>
        <path d="M277.3,277.3c-.7-.9-1.8-.9-2.7-1.2s-3-1.2-4.6-1.8c0-.5.5-.7.8-.9l4.8-3.1c.2-.2.3-.1.5,0h.1q.6,3.2,1.5,6.3v.5h-.4Z" fill="#fff200"/>
        <path d="M273.1,293.8h.1c1.9.4,2,.5,2.2,2.5s-.3,1.3-1.2,1.4a31.6,31.6,0,0,0-3.2.3,1,1,0,0,1-1.3-1v-1.9c0-.6.5-.8,1-.9s1,.1,1.4-.3h-.6C272,293.2,272.5,293.3,273.1,293.8Z" fill="#eceae9"/>
        <path d="M281.6,296a.9.9,0,0,1-.8,1,23.3,23.3,0,0,1-3.7.4c-.9.1-1.4-.7-1.5-2.5s.4-1.3,1.2-1.3,2-.3,3-.3a1.1,1.1,0,0,1,1.4,1C281.3,294.9,281.5,295.4,281.6,296Z" fill="#eceae9"/>
        <path d="M269.2,296.6c0,1.5-.1,1.7-1.4,1.9a16.7,16.7,0,0,1-3.1.2c-.7,0-1-.3-1.1-1,0-2.9.1-2.5,2.6-2.8h.7C268.3,294.5,269.4,294.5,269.2,296.6Z" fill="#eceae9"/>
        <path d="M279.7,289.6c.9.7.7,1.8.9,2.7s-.3.4-.6.5-2.7.4-4,.5-.7-.8-.9-1.3.1-.2.1-.4-.2-1.6,1.4-1.7.9.1,1.3-.2S279.1,289.7,279.7,289.6Z" fill="#262262"/>
        <path d="M273.1,293.8a4.2,4.2,0,0,0-1.6.1h-.9c-.8,0-1.3-.2-1.2-1.2s-.6-1.2,0-1.8,1.2-.3,1.8-.5h.6c.4-.2.9.1,1.3-.2s1.6.2,1.5,1.3.1.5.1.8-.1,1.2-.9,1.3Z" fill="#262262"/>
        <path d="M263.6,293.1c0-1.5.1-1.7,1.5-1.9a13.2,13.2,0,0,1,2.8-.2h.6c.7.6.4,1.5.5,2.3s-.5.8-.9.9l-3.5.4C263.3,294.7,263.7,293.7,263.6,293.1Z" fill="#eceae9"/>
        <path d="M279.7,289.6h-1.8c-.5-.4-1.1-.2-1.6-.2a1.5,1.5,0,0,1-1.6-.5c-.4-.6-.3,0-.4.2s-.4-.5-.1-.8a.9.9,0,0,0,.3-.6c0-1,.6-1.3,1.5-1.3l2-.2c.9-.2,1.3.1,1.5.9a.4.4,0,0,1,.1.3c.3.9.5,1.7-1,1.8C279.1,289.6,279.5,289.4,279.7,289.6Z" fill="#eceae9"/>
        <path d="M274.2,288.4a2.2,2.2,0,0,0,.1.8c-.5,1-1.6.6-2.3.9s-.8-.1-1.2.1a1.7,1.7,0,0,1-1.7-2.6c.3-.5,1-.3,1.6-.5a3.2,3.2,0,0,1,2.7-.2C274.1,287.1,274,287.9,274.2,288.4Z" fill="#262262"/>
        <path d="M268.6,289.1c.4,1.1-.4,1.3-1.2,1.4a13.6,13.6,0,0,1-2.9.3.8.8,0,0,1-.9-.9c0-1.8.2-2.1,2.1-2.2h1.1C268.4,287.3,268.6,287.4,268.6,289.1Z" fill="#eceae9"/>
        <path d="M269.2,286.8c-.8-.6-.3-1.5-.4-2.2s.7-.4,1.1-.5l2.4-.3c1-.1,1.1.1,1.3,1.1s.1,1.5-.9,1.7S270.4,286.8,269.2,286.8Z" fill="#262262"/>
        <path d="M275.9,286.2c-1.4,0-2-.6-1.9-1.9s.3-.6.7-.7a16.5,16.5,0,0,1,3.1-.4c1.1.1,1,.9,1.2,1.7s-.4.9-.9,1Z" fill="#eceae9"/>
        <path d="M263.6,285.9c-.1-.8.3-1.1,1.2-1.2s1.7-.1,2.6-.3,1,.1,1,.8-.1,1.8-.8,1.9a29.6,29.6,0,0,1-3.1.3C263.5,287.5,263.6,286.7,263.6,285.9Z" fill="#eceae9"/>
        <path d="M272.7,281a1.8,1.8,0,0,1,.5,1.9,1.4,1.4,0,0,1-1.6.7,9,9,0,0,0-2.3.2c-.4,0-.5-.2-.6-.6V283c-.3-1.7-.4-1.5,1.3-1.8S271.8,280.9,272.7,281Z" fill="#262262"/>
        <path d="M273.6,281.7a.8.8,0,0,1,.7-1,15.1,15.1,0,0,1,3-.2c1.1,0,.9.9,1,1.6s-.4.7-.9.7a16.6,16.6,0,0,1-2.2.3C274.1,283.2,273.6,282.8,273.6,281.7Z" fill="#eceae9"/>
        <path d="M266.9,281.6c1.1,0,1.1,0,1.3,1.3s-.4,1-1.1,1.1a15.2,15.2,0,0,1-2.1.3c-.5,0-1.2.3-1.4-.6s.2-1.7,1-1.9h.2Z" fill="#eceae9"/>
        <path d="M268.8,280.9a1.6,1.6,0,0,1-.5-1.8c.1-.5.7-.4,1.1-.5l2.3-.2c1.2-.2,1,.8,1.1,1.3s-.4.8-.9.9h-.3C270.7,281.2,269.8,280.9,268.8,280.9Z" fill="#262262"/>
        <path d="M265.3,281.4c-1.6,0-1.8-.2-1.7-1.4s.3-.8.8-.8l2.5-.4a1,1,0,0,1,1.1,1c0,.7-.2,1.2-.9,1.4Z" fill="#eceae9"/>
        <path d="M299.8,271.2c-.3,1,.6,1.4,1,2s.3.9-.4,1a7,7,0,0,1-2.9.1,1.2,1.2,0,0,1-.7-1.9c-.3-.1-.6,0-.8-.2s.6-.4,1-.4,1.8,0,2.6-.6Z" fill="#eceae9"/>
        <path d="M274.8,280.3c-.8,0-1.5.1-1.6-1s.3-1.2,1.1-1.3h2.3c.9-.1,1,.7,1.1,1.3s-.5.9-1.1.9S275.4,280.4,274.8,280.3Z" fill="#eceae9"/>
        <path d="M290.6,272.8c.1.7.9.9,1.1,1.6s0,.8-.5.9l-2.3.2c-1.2,0-1.6-.5-1.5-1.7s-.1-.4-.1-.6A3.8,3.8,0,0,1,290.6,272.8Z" fill="#eceae9"/>
        <path d="M281.2,274c-.1.2-.1.3.2.4s1,.7,1,1.2-.7.7-1.1.8a15,15,0,0,1-2,.2c-.8-.1-1.5-1-1.1-1.7s-.2-.5-.3-.7A3.8,3.8,0,0,1,281.2,274Z" fill="#eceae9"/>
        <path d="M286,273.5l-.4.2a1.6,1.6,0,0,1,1.3.9c.4.7.1,1.2-.6,1.2l-1.9.2c-.7.2-1.2-.2-1.6-.9s.3-.9.6-1.3A2,2,0,0,1,286,273.5Z" fill="#eceae9"/>
        <path d="M294.3,272.5a.7.7,0,0,0,.7.4h.5a1.4,1.4,0,0,1,.9,1.3c0,.5-.6.4-1.1.4a6.5,6.5,0,0,1-2,.2,1.3,1.3,0,0,1-1.2-1.8c.1-.4-.5-.1-.6-.4A2.8,2.8,0,0,1,294.3,272.5Z" fill="#eceae9"/>
        <path d="M302.6,274c-.6-.1-1.6-1-1.6-1.5s.3-.5.6-.5l2.4-.2a1.9,1.9,0,0,1,1.6,1.2c.2.4,0,.5-.4.6S303.4,273.7,302.6,274Z" fill="#eceae9"/>
        <path d="M281.2,274c-1.1,0-2.2.3-3.3.2s-.2-.7-.4-1,0-.6.4-.7l2.2-.2c1.4-.2,1.6,0,1.6,1.5Z" fill="#fff200"/>
        <path d="M290.6,272.8a18.6,18.6,0,0,1-3.3.4c-.5,0-.7-.2-.8-.7s.1-1,.8-1.1h1.2c1.6-.3,1.7-.2,2.3,1.4Z" fill="#fff200"/>
        <path d="M299.8,271.2c-.3-1.2-.3-1.2,1-1.3l1.6-.2h.5c.6.2,1.2.7,1.2,1.3s-.7.3-1.1.4-2.2.5-3.2-.3Z" fill="#eceae9"/>
        <path d="M286,273.5a7.4,7.4,0,0,0-2.6.3c-.3-.1-.7,0-1-.2s-.9-1.6,1-1.7l1.3-.2a1.1,1.1,0,0,1,1.4.9C286.1,272.9,286.3,273.2,286,273.5Z" fill="#fff200"/>
        <path d="M294.3,272.5l-2.8.2-.4-.4a.6.6,0,0,0-.1-.4c-.5-.7-.2-.9.5-1h1.7c1.3-.2,1.8.2,2,1.5Z" fill="#fff200"/>
        <path d="M299.6,271.2c.2.7-.2.7-.6.8l-3,.2-.4-.3c.1-.4-.7-.8-.3-1.3s.9-.1,1.4-.2a4.1,4.1,0,0,1,2.2,0Z" fill="#fff200"/>
        <path d="M298.3,269.7a13.5,13.5,0,0,1-2.9.4c-.2,0-.5.1-.7-.1s-.8-.7-.7-1.2.7-.2,1-.3l1.1-.2a1.9,1.9,0,0,1,2.1.7Z" fill="#fff200"/>
        <path d="M262.9,278.7c.2.2.5,0,.7.1a.8.8,0,0,1-.7.2H262c.6-1.1.4-2.4.4-3.6a13,13,0,0,0-.2-3.4,4.5,4.5,0,0,0,.3-2.3v-4.7a2.6,2.6,0,0,1,.3-.8c0-.1.1-.1.2-.1l.3.2a12.3,12.3,0,0,1,.2,2.7c0,1,0,2-.1,3a1.5,1.5,0,0,0,.9,1.6c.2.7-.5.5-.7.8s-.3.7-.3,1.1v4A2,2,0,0,1,262.9,278.7Z" fill="#eceae9"/>
        <path d="M262.7,298.2c.1-5.5.1-10.9.1-16.4,0-.1.1-.2.1-.3v16.1A.7.7,0,0,1,262.7,298.2Z" fill="#eceae9"/>
        <path d="M269.2,286.8c1.2.1,2.3-.3,3.5-.2l.7.3-2.7.2C270.2,286.7,269.6,287.1,269.2,286.8Z" fill="#eceae9"/>
        <path d="M268.8,280.9l2.8-.2c.3.3.8,0,1.1.3l-2.8.2C269.6,280.9,269.1,281.2,268.8,280.9Z" fill="#eceae9"/>
        <path d="M270.8,290.2H272c.3.2.7.1,1.1.1a3.2,3.2,0,0,1-1.3.2C271.5,290.2,271.1,290.3,270.8,290.2Z" fill="#eceae9"/>
        <path d="M262.9,264v.8c-1-.3-2-.2-2.9-.4a2.5,2.5,0,0,0-1.2.2,28.7,28.7,0,0,1-3.8-.8c.2-.6-.7-.6-.8-1l2.6-.4h1.1c1.5.2,2.8.9,4.2,1S262.8,263.6,262.9,264Z" fill="#006838"/>
        <path d="M262.9,264l-.8-.3a9,9,0,0,1-4.2-1.3l3.8-.5a2.5,2.5,0,0,1,1.2.1,1.6,1.6,0,0,1,0,2Z" fill="#006838"/>
        <path d="M275.7,255c-.5,0-1.2,0-1.3-.7s.4-.9,1-1.1a2,2,0,0,1,1.7-.2.8.8,0,0,1,.8.6,1.1,1.1,0,0,1-.5.9A2.6,2.6,0,0,1,275.7,255Z" fill="#262262"/>
        <path d="M262.2,259.7c-.5-.1-1.2,0-1.3-.7s.5-1,1-1.2a3,3,0,0,1,1.6-.2c.4.1.8.2.9.7s-.2.7-.6.9A3,3,0,0,1,262.2,259.7Z" fill="#262262"/>
        <path d="M270.9,260.9c-.4,0-1,.1-1.2-.6s.4-.9.9-1.2a2.3,2.3,0,0,1,2-.1c.7.2.8.8.3,1.3A2.8,2.8,0,0,1,270.9,260.9Z" fill="#262262"/>
        <path d="M269.6,255.3c.8,0,1.4,0,1.5.6s-.4.9-.9,1.2a3.1,3.1,0,0,1-1.9.2c-.8-.3-.9-.9-.3-1.4A1.9,1.9,0,0,1,269.6,255.3Z" fill="#262262"/>
        <path d="M266.8,253.7c-.4,0-1,.1-1.2-.6s.5-1,1-1.2a2.5,2.5,0,0,1,1.9-.2c.7.3.9.9.3,1.4A2.4,2.4,0,0,1,266.8,253.7Z" fill="#262262"/>
        <path d="M274.4,262.5l.8-.7c1.1-.1,2.1-.3,3.1.4s-.4.9-.8,1.3a4.8,4.8,0,0,1-2.9.3l-.2-.2A1.1,1.1,0,0,1,274.4,262.5Z" fill="#7d5522"/>
        <path d="M267.2,262.5l3.4.4c.3.5-.3.5-.4.8s-.8.4-1.3.4a1.6,1.6,0,0,0-1,.2,1.2,1.2,0,0,1-1.1-.4A1.4,1.4,0,0,1,267.2,262.5Z" fill="#006838"/>
        <path d="M262.9,264v-2a17.3,17.3,0,0,1,3.2.3c-.1.4-.9.3-.6.9s-1.3.3-1.9.7-.4-.2-.5.1Z" fill="#9b9aa5"/>
        <path d="M278.3,262.4a7.8,7.8,0,0,0-2.1-.4,1.8,1.8,0,0,1-1-.2l.6-.7c.8.6,1.7.1,2.5.3s.7-.1,1,.2-.1.4-.2.5S278.6,262.5,278.3,262.4Z" fill="#c68b2c"/>
        <path d="M265.4,263.1c-.1-.3-.6-.1-.7-.4s.9-.3,1.4-.4.8,0,1.1.2-.4.7-.2,1.1-.2.5-.6.4Z" fill="#777386"/>
        <path d="M270.1,263.5c-.1-.4.4-.4.5-.6s2.6.5,3.8-.4a1.4,1.4,0,0,1,.1.9A6.1,6.1,0,0,1,270.1,263.5Z" fill="#595166"/>
        <path d="M260.1,245.5a4.2,4.2,0,0,1-.4,1.6c-.1.3-.3.6-.7.5s-.5-.4-.6-.7a3.8,3.8,0,0,1,.2-2.1c.2-.4.4-.8.8-.7s.6.5.6.8S260.1,245.4,260.1,245.5Z" fill="#ed1c24"/>
        <path d="M253.8,242.6a4.1,4.1,0,0,1-.3,1.6c-.2.3-.4.7-.8.6s-.5-.4-.6-.7a4.1,4.1,0,0,1,.3-2.2c.1-.3.3-.7.8-.6s.4.4.5.8A4.3,4.3,0,0,0,253.8,242.6Z" fill="#ed1c24"/>
        <path d="M258.3,237.2a3.3,3.3,0,0,1-.4,1.7.7.7,0,0,1-.6.4.6.6,0,0,1-.5-.6,3.3,3.3,0,0,1,.1-2.4c.2-.3.4-.7.8-.6s.5.5.6.8Z" fill="#ed1c24"/>
        <path d="M253.8,252a3.6,3.6,0,0,1,.4-1.9c.1-.2.3-.5.6-.4a.6.6,0,0,1,.6.5,3.6,3.6,0,0,1-.2,2.3c-.1.4-.3.8-.8.7s-.5-.5-.6-.9Z" fill="#ed1c24"/>
        <path d="M258.9,264.4c.1-.1.2-.4.5-.4l3,.2c.3,0,.3.4.5.6v6.5c0,.4-.3.5-.6.6s-1.4.5-2.1.6l-16,1.8a3.3,3.3,0,0,0-1.4.1,15.2,15.2,0,0,1-2.1.3,12.2,12.2,0,0,1-3.3-.1.5.5,0,0,1-.2-.8c1.4-2.8,2.6-5.6,3.8-8.4a2.2,2.2,0,0,1,2-1.4l6.5-.7,4.7-.5h.6c.3,0,.6,0,.7.3s-.4.2-.5.4-1.8.4-2.7.5a22.2,22.2,0,0,0-6.8,1.9,8.8,8.8,0,0,0-2.7,1.9c-1.1,1.2-.9,2.4.5,3.1a7.4,7.4,0,0,0,3,.8,21.4,21.4,0,0,0,10.5-2,6.4,6.4,0,0,0,2.7-1.9,1.7,1.7,0,0,0-.1-2.7C259.1,265,258.7,264.8,258.9,264.4Z" fill="#006838"/>
        <path d="M237.4,274.6l3.3-.3a1.4,1.4,0,0,1-.1,2c-.4.3-.6.4-.4,1s-.4,1.5-1.1,1.7h-.6c.7-.1,1.1.2,1,1a2,2,0,0,1-1.9,1.5c-.2,0-.5-.1-.7,0h0l-2.3.3c.2-.4,0-.8.2-1.2a1.8,1.8,0,0,1,1.9-1.4c-.1-.6-1-.1-.9-.8a1.9,1.9,0,0,1,1.5-1.6c.3,0,.7.2,1-.2s-.2-.1-.3-.1-1,.2-1.1-.4a1.2,1.2,0,0,1,.8-1.2l.7-.2C238.1,274.6,237.7,274.9,237.4,274.6Z" fill="#edecea"/>
        <path d="M269.7,234.5c-.1.6-.3,1-1,1a2.1,2.1,0,0,1-2-1.8.9.9,0,0,1,1-1A2.1,2.1,0,0,1,269.7,234.5Z" fill="#fff200"/>
        <path d="M277.4,242a2.1,2.1,0,0,1,2.2,1.8c.1.7-.3,1-.9,1a2,2,0,0,1-2-1.7C276.7,242.4,277,242,277.4,242Z" fill="#fff200"/>
        <path d="M272.8,237.4a1.9,1.9,0,0,1,1.8,1.8.9.9,0,0,1-1,1,2,2,0,0,1-1.8-1.9C271.8,237.7,272.1,237.3,272.8,237.4Z" fill="#fff200"/>
        <path d="M298.2,292.8a20.5,20.5,0,0,1-11.8-3.3,11.7,11.7,0,0,1-1.6-1.5c-2.4-2.7-2.2-5.8.6-8a13.3,13.3,0,0,1,6.6-2.7,22.6,22.6,0,0,1,14.5,2.2,10.2,10.2,0,0,1,3.5,3,5,5,0,0,1-.6,6.8,13,13,0,0,1-6.7,3.1A22.8,22.8,0,0,1,298.2,292.8Z" fill="#fff"/>
        <path d="M242.3,299.3c-3.1,0-5.2-.3-7.2-1.3s-3.7-4.4-2.2-7.4a12.4,12.4,0,0,1,5.3-5.1,22.4,22.4,0,0,1,14.5-3.2,9.1,9.1,0,0,1,5,2.2,4.6,4.6,0,0,1,1.4,5c-.9,2.7-2.8,4.4-5,5.9A22.9,22.9,0,0,1,242.3,299.3Z" fill="#fff"/>
        <path d="M242.7,274.2a23.2,23.2,0,0,1,4.5-.6l14.5-1.7h.6c.4.1.4.4.4.7v5.5c.1.6-.3.7-.7.8l-12.8,1.5-8.5.9c-.1-.1-.5.1-.6-.2s.7-.4,1.1-.4l1.5-.4c.4-.2.7-.5.5-.9s-.5-.3-.9-.2a4.3,4.3,0,0,1-1.6,0c-.2-.2-.6-.2-.6-.6s1.7-.3,2.6-.5,1-.2,1.2-.7.2-.6-.4-.6a5.5,5.5,0,0,1-2.2.1,1.5,1.5,0,0,1,1-2.5C242.4,274.3,242.7,274.5,242.7,274.2Z" fill="#edecea"/>
        <path d="M240.2,281.2h.5a23.2,23.2,0,0,1-3.8.5h-.3c-.2-.1,0-.1.1-.2h1a1.3,1.3,0,0,0,1.1-.6c.2-.4.6-.8.4-1.3s-.8-.1-1.1-.2a1.3,1.3,0,0,1-1-.2c.5-.3,1,0,1.4-.2s.6-.1.8-.3a1.3,1.3,0,0,0,.7-1.3c0-.6-.7-.1-1-.5,1.8-.8,2.1-1.1,1.7-2.5.7.2,1.4-.2,2-.1h.6c-1.4.3-2.5.7-2,2.5a9.3,9.3,0,0,0-1.1,1.9l.5.3c0,.3-.3.4-.5.6S239.5,280.6,240.2,281.2Z" fill="#fff"/>
        <path d="M292.7,260.7a6.8,6.8,0,0,1,2.6,1.2c1.3,1.1,1.3,2.3,0,3.4a9.4,9.4,0,0,1-3.6,1.8,20.9,20.9,0,0,1-11.1,0c-1.4-.5-2.7-1-3.3-2.5s.6-.9,1.1-1a15.3,15.3,0,0,1,3.7-.2h.3c.5.3,1.3-.1,1.8.5s-.5.5-.8.7-.6.1-.5.4.3.4.5.4a3.9,3.9,0,0,0,2.4-.1c.2-.1.4-.2.4-.4s-.3-.3-.4-.4a2.9,2.9,0,0,1-1-.3,1,1,0,0,1-.4-.5c.8-1.1.8-1.1-.6-1.5h-1.2c-.5-.1-1.1-.1-1.1-.8s.5-.6.9-.7a31.5,31.5,0,0,1,4.3-.5A24.5,24.5,0,0,1,292.7,260.7Z" fill="#fdfdfc"/>
        <path d="M266.5,264a1,1,0,0,1,.5-.4c0,.7.6.3.9.4s.8-.2,1.1.1-1,.3-1.3.8a1.8,1.8,0,0,0,2.5-.9.8.8,0,0,1,.6-.2h3.3c.2,0,.4,0,.5.2l.2.2c.4,2.1.9,4.1,1.3,6.1l-.4.2a13.7,13.7,0,0,1-3.4.7l-6.3.7a1.6,1.6,0,0,1-1.6-.3c-1.3,0-1.3,0-1.3-1.4V264a.8.8,0,0,1,.1-.4l.2.2a3.3,3.3,0,0,0,1.7.1A2.3,2.3,0,0,1,266.5,264Z" fill="#eeedeb"/>
        <path d="M292.7,260.7c-1.2.3-2.3-.4-3.5-.4a38.5,38.5,0,0,0-4.8.1l-2.2.4c-.2.1-.6.2-.6.5s.4.3.7.4,1.3-.1,1.8.3a3.3,3.3,0,0,1-2.2.6,3.4,3.4,0,0,1-1.4-.2c-.4-.2-.8-.5-.4-1a18,18,0,0,1,9.2-1.4A10.3,10.3,0,0,1,292.7,260.7Z" fill="#e3dede"/>
        <path d="M280.1,261.4c-.1.5.2.7.7.8l1.1.2c0,.4.4.8.4,1.2l-3.8.2c-.5.1-.8.5-1.2.8l-.2-.2c-.3-.5.1-.7.3-1a1.5,1.5,0,0,1,.7-.3c.7-.1,1-.4.9-1.1l.3-.4Z" fill="#c1bdc7"/>
        <path d="M277.5,263.5a1.9,1.9,0,0,0-.4.9c-.7-.4-1.5-.1-2.3-.2h-.1c-.1-.2-.4-.4-.1-.6a9.6,9.6,0,0,0,2.9-.3s.1.1,0,.1Z" fill="#be862c"/>
        <path d="M296.4,267.9a5.1,5.1,0,0,1-2.1.3C294.9,267.7,295.7,267.9,296.4,267.9Z" fill="#f1b23d"/>
        <path d="M293.2,268.3a12,12,0,0,1-2,.3C291.8,268.1,292.5,268.3,293.2,268.3Z" fill="#f1b23d"/>
        <path d="M262.9,278.7v-6.3c0-.4.1-.5.5-.5a37.7,37.7,0,0,1,5.7,1.8c.3.1.6.2.7.6A72.8,72.8,0,0,1,262.9,278.7Z" fill="#ed1c24"/>
        <path d="M269.8,274.3l-5.8-2-.6-.4,1-.3,9.3-1h2a12,12,0,0,1-2.6,1.8l-3.1,2Z" fill="#006838"/>
        <path d="M258.9,264.4l.8.6a1.8,1.8,0,0,1,.5,2.6,6.9,6.9,0,0,1-2.4,2.1,20.5,20.5,0,0,1-12.9,2.2,5,5,0,0,1-2-.8,1.9,1.9,0,0,1-.6-3.2,10.4,10.4,0,0,1,4.8-2.9,23.5,23.5,0,0,1,7.9-1.4A18,18,0,0,1,258.9,264.4Z" fill="#fefefd"/>
        <path d="M274.6,263.6a1.3,1.3,0,0,0,.1.6h-4.4a.9.9,0,0,1-1.3,0c-.3-.3-.8-.1-1.1-.2s1.6.1,2.2-.5h4.4Z" fill="#b5b6bc"/>
        <path d="M277.5,263.5v-.2l.8-.9.7-.4c.7,1,.7,1-.5,1.3Z" fill="#9f98a5"/>
        <path d="M266.5,264a7.8,7.8,0,0,1-2.6.4c-.4,0-.5-.3-.5-.6s1.4-.4,2-.7S266.6,263.1,266.5,264Z" fill="#006838"/>
        <path d="M301.9,287.7a5,5,0,0,1-3.1-1,1.3,1.3,0,0,1,.3-2.3,5.3,5.3,0,0,1,5,.5c1,.8.9,1.8-.3,2.4A4.1,4.1,0,0,1,301.9,287.7Z" fill="#262262"/>
        <path d="M293.8,284.8a4,4,0,0,1,2.7.8,1.3,1.3,0,0,1-.1,2.4,4.8,4.8,0,0,1-4.9-.3,1.3,1.3,0,0,1,.2-2.4A4.1,4.1,0,0,1,293.8,284.8Z" fill="#262262"/>
        <path d="M299.3,283.2a4.4,4.4,0,0,1-2.4-.7c-1.1-.7-1-1.7.1-2.2a4.7,4.7,0,0,1,4.6.4,1.2,1.2,0,0,1-.1,2.1A5.4,5.4,0,0,1,299.3,283.2Z" fill="#262262"/>
        <path d="M292.4,284a4,4,0,0,1-2.7-.8,1,1,0,0,1,0-1.8,4.5,4.5,0,0,1,5,.1c.6.7.6,1.4-.1,1.9A3.7,3.7,0,0,1,292.4,284Z" fill="#262262"/>
        <path d="M240.4,294.6h-1a1.3,1.3,0,0,1-.7-2.1,5,5,0,0,1,5.1-1.7c1.1.4,1.3,1.3.5,2.2A5.1,5.1,0,0,1,240.4,294.6Z" fill="#ed1c24"/>
        <path d="M250.4,289.7h.7c1.4.3,1.7,1.5.7,2.5a4.6,4.6,0,0,1-4.6,1.3c-1.3-.4-1.5-1.5-.6-2.5A4.6,4.6,0,0,1,250.4,289.7Z" fill="#ed1c24"/>
        <path d="M244,286.1l1,.2q1.4.6.6,1.8c-.8,1.3-3.5,2.1-5,1.5a1.1,1.1,0,0,1-.3-1.9A5.2,5.2,0,0,1,244,286.1Z" fill="#ed1c24"/>
        <path d="M249.3,289h-.7c-.6-.2-1.3-.3-1.5-1.1a1.6,1.6,0,0,1,.8-1.5,4.5,4.5,0,0,1,3.9-.9,1.4,1.4,0,0,1,1.2.9,1.6,1.6,0,0,1-.5,1.4A5.8,5.8,0,0,1,249.3,289Z" fill="#ed1c24"/>
        <path d="M240.2,281.2h-.8c-.2,0-.4-.2-.3-.4s.4-1.8,1.6-1.8l2.3-.2c.8-.1.8.2.7.9a1.7,1.7,0,0,1-1.6,1.3A4,4,0,0,0,240.2,281.2Z" fill="#ed1c24"/>
        <path d="M240.2,278.6a2,2,0,0,1,1.1-1.9l2.1-.2c.4,0,1-.3,1,.1a1.4,1.4,0,0,1-.7,1.6l-.9.2Z" fill="#ed1c24"/>
        <path d="M256.9,274.9c.3.1.8-.1.8.4s.2,1.3-.6,1.4l-2.9.4c-.3,0-.6-.1-.5-.5s-.1-1.2.7-1.3Z" fill="#ed1c24"/>
        <path d="M261,274.5c.4.1,1-.4,1.1.5s-.1,1.3-1,1.4l-2,.2c-.4,0-.9.2-1-.4s-.1-1.3.8-1.5Z" fill="#ed1c24"/>
        <path d="M245.4,278.1c-.3-.1-.7.1-.7-.2s.1-1.2.6-1.4a7.4,7.4,0,0,1,3.3-.5c.3,0,.3.3.3.5s-.2,1.2-1,1.3Z" fill="#ed1c24"/>
        <path d="M250.3,277.6c-.3-.2-1,.4-1.1-.4s.1-1.4,1-1.5l2-.2c.4,0,1-.3,1.1.3s0,1.4-.9,1.5Z" fill="#ed1c24"/>
        <path d="M289.7,265.3a4.1,4.1,0,0,1-1.6-.3c-.2-.1-.5-.3-.5-.6a.6.6,0,0,1,.5-.6,4.2,4.2,0,0,1,3.3-.1c.3.1.6.3.5.6a.6.6,0,0,1-.5.6A4.7,4.7,0,0,1,289.7,265.3Z" fill="#fff200"/>
        <path d="M284.9,264l1.1.2a1.1,1.1,0,0,1,.7.6.9.9,0,0,1-.5.7,4.7,4.7,0,0,1-3.3.1c-.3-.1-.6-.3-.6-.6s.3-.4.5-.6,1-.1,1.3-.4S284.6,263.9,284.9,264Z" fill="#fff200"/>
        <path d="M288.7,263.1a2.4,2.4,0,0,1-1.7-.3c-.6-.3-.6-.7,0-.9a4.2,4.2,0,0,1,3.3-.1c.2.1.4.2.4.4s-.2.4-.4.6A3,3,0,0,1,288.7,263.1Z" fill="#fff200"/>
        <path d="M282.3,263.6c-.7-.3-1.1-.6-.4-1.2a9.3,9.3,0,0,1,2.2-.4h.3c.5.1,1.2,0,1.2.7s-.7.6-1.1.8a4.1,4.1,0,0,1-2.2,0Z" fill="#fff200"/>
        <path d="M282.3,263.6h2.2l.4.4a1.1,1.1,0,0,1-.8,0C283.6,263.6,282.8,264.1,282.3,263.6Z" fill="#f1ddb4"/>
        <path d="M270.3,269c.6-.1.7.3.8.8s-.2.7-.6.7l-2.1.3c-.4,0-.9.1-.9-.5s0-.9.6-1A14.6,14.6,0,0,0,270.3,269Z" fill="#006838"/>
        <path d="M268,268.9c-.4.1-.6-.2-.6-.6s0-.7.4-.7l2.4-.3c.5,0,.6.3.7.7s-.2.6-.6.6Z" fill="#006838"/>
        <path d="M269.7,265.7c.5-.1.8,0,.9.6s-.4.6-.8.6l-2,.3c-.4,0-.5-.3-.6-.6s.2-.6.5-.6Z" fill="#006838"/>
        <path d="M269,264.2h1.3c.2.8-.1,1.1-.9,1.1l-1.6.2c-.4,0-.6,0-.7-.5s.1-.6.5-.6Z" fill="#006838"/>
        <path d="M247.4,270.1l-.7-.2c-.6-.2-.7-.5-.3-1a5.1,5.1,0,0,1,3.6-.7c.6.3.6.7.1,1A4.2,4.2,0,0,1,247.4,270.1Z" fill="#006838"/>
        <path d="M252.8,269.4c-.4,0-1.2.2-1.4-.5s.7-.9,1.2-1.1a4,4,0,0,1,2.4-.2c.3.1.6.2.6.5a.5.5,0,0,1-.3.6A4.1,4.1,0,0,1,252.8,269.4Z" fill="#006838"/>
        <path d="M253.3,267.2c-.5-.1-1.2,0-1.3-.6s.6-.8,1.1-1a3.6,3.6,0,0,1,2.3-.2c.2.1.5.2.6.4a.7.7,0,0,1-.4.7A6.2,6.2,0,0,1,253.3,267.2Z" fill="#006838"/>
        <path d="M248.2,267.7c-.4-.1-1.1.1-1.2-.5s.5-.8.9-.9a3.7,3.7,0,0,1,2.5-.3.5.5,0,0,1,.6.4c.1.3-.2.4-.3.6A5.2,5.2,0,0,1,248.2,267.7Z" fill="#006838"/>
      </g>
    </g>
    <g>
      <rect y="52.6" width="335" height="53.29" fill="#fff200"/>
      <g>
        <g>
          <g>
            <path d="M312.6,89.2a.7.7,0,0,1-.5-.8l.3-8.6a.4.4,0,0,1,.6-.4l9.7,3a1,1,0,0,1,.6.8l.9,8.7c0,.3-.2.5-.5.4Z" fill="#be1e2d"/>
            <path d="M312.6,89.2a.8.8,0,0,0-.9.3L307.3,96c-.2.2-.1.5.2.6l10.1,2.5a.8.8,0,0,0,.9-.3l5.3-5.9c.2-.2.2-.5-.1-.6Z" fill="#be1e2d"/>
            <path d="M312.1,88.4a3.6,3.6,0,0,1-.4,1.1L307.3,96c-.2.2-.3.2-.3-.1l.9-8.4a2.1,2.1,0,0,1,.4-1.1l3.9-6.7c.1-.3.2-.2.2.1Z" fill="#be1e2d"/>
          </g>
          <g opacity="0.5">
            <g>
              <path d="M312.8,81a.9.9,0,0,1,1.2-.9l7.7,2.5a2.2,2.2,0,0,1,1.3,1.5l.6,6.6c.1.7-.4,1.1-1,.9l-9-2.6a1.5,1.5,0,0,1-1.1-1.5l.2-3.9c0-.7.1-1.7.1-2.4Z" fill="#ed1c24"/>
              <path d="M308.3,88.2A5.7,5.7,0,0,1,309,86l2.4-4.1c.3-.5.5-.4.5.2v.5c0,.6-.1,1.7-.1,2.3v2.8a5.8,5.8,0,0,1-.8,2.2l-2.7,3.9c-.3.6-.6.5-.5-.2Z" fill="#ed1c24"/>
              <path d="M310.7,91.8a11.1,11.1,0,0,1,1.1-1.6c.2-.4.9-.5,1.6-.3l8,2.2,1.6.5c.2.1.1.5-.3,1l-3.9,4.3a2.2,2.2,0,0,1-1.9.6l-8.1-2a.9.9,0,0,1-.5-1.3Z" fill="#ed1c24"/>
            </g>
          </g>
          <path d="M315.6,86.5c.6.4.9,1.1.6,1.5s-1,.5-1.7.1-.9-1.1-.6-1.5S315,86.1,315.6,86.5Z" fill="#fff"/>
          <path d="M313.7,91c.7,0,1.3.4,1.3.9s-.7.9-1.4.8-1.4-.4-1.3-.9S312.9,90.9,313.7,91Z" fill="#fff"/>
          <path d="M320.5,92.7c.8.1,1.3.5,1.3,1s-.6.8-1.4.8a1.2,1.2,0,0,1-1.3-1C319.1,93.1,319.8,92.7,320.5,92.7Z" fill="#fff"/>
          <path d="M310.8,94.9c.7,0,1.2.4,1.2.8a1.1,1.1,0,0,1-1.3.7c-.7,0-1.2-.4-1.2-.8A1.1,1.1,0,0,1,310.8,94.9Z" fill="#fff"/>
          <path d="M311,88.6c-.2.7-.5,1.1-.7,1.1s-.3-.7-.1-1.3.5-1.1.7-1.1S311.1,88,311,88.6Z" fill="#fff"/>
          <path d="M311.2,85.8c-.2.6-.5,1.1-.7,1s-.2-.6,0-1.2.4-1.1.6-1S311.3,85.2,311.2,85.8Z" fill="#fff"/>
          <path d="M311.4,83.2c-.2.5-.4.9-.6.9s-.2-.6,0-1.1.4-1,.6-.9S311.6,82.6,311.4,83.2Z" fill="#fff"/>
          <path d="M308.9,87.3c-.1.5-.4.9-.5.9s-.2-.5-.1-1.1.4-.8.6-.8S309.1,86.8,308.9,87.3Z" fill="#fff"/>
          <path d="M308.7,89.9c-.2.6-.4,1.1-.6,1s-.2-.5,0-1.1.4-1.1.6-1S308.9,89.3,308.7,89.9Z" fill="#fff"/>
          <path d="M308.4,92.6c-.2.7-.4,1.2-.6,1.1s-.2-.6,0-1.2.5-1.2.6-1.1S308.6,92,308.4,92.6Z" fill="#fff"/>
          <path d="M317.2,96.6c.7,0,1.2.4,1.2.8s-.6.8-1.2.7-1.2-.4-1.2-.8S316.6,96.5,317.2,96.6Z" fill="#fff"/>
          <path d="M321.8,83.3c.6.3.9,1,.6,1.4a1.1,1.1,0,0,1-1.5.1c-.6-.4-.9-1-.6-1.4A1,1,0,0,1,321.8,83.3Z" fill="#fff"/>
        </g>
        <g>
          <g>
            <path d="M287.9,94.6a.5.5,0,0,1-.3-.7l5-10.6a.7.7,0,0,1,.8-.4l11,3a.6.6,0,0,1,.4.7L299.9,98a.5.5,0,0,1-.7.3Z" fill="#be1e2d"/>
            <path d="M287.9,94.6c-.3-.1-.4,0-.1.2l3.3,3.2a2.8,2.8,0,0,0,.9.6l9.6,3.3c.3.1.4,0,.2-.3L300,99a1.9,1.9,0,0,0-.8-.7Z" fill="#be1e2d"/>
            <path d="M304.8,86.6c.1-.3.3-.3.3,0l1.1,4.5a2.1,2.1,0,0,1,0,1.1l-3.9,9.4c-.1.3-.3.3-.5,0L300,99a1.6,1.6,0,0,1-.1-1Z" fill="#be1e2d"/>
          </g>
          <g opacity="0.5">
            <g>
              <path d="M300.4,100.3c.3.5.1.8-.5.6l-7.1-2.5a6.2,6.2,0,0,1-1.9-1.2l-1-.9c-.5-.5-.4-.7.3-.5l6.1,2.1,2.1.7a3,3,0,0,1,1.7,1.3Z" fill="#ed1c24"/>
              <path d="M305.6,90.5a4.1,4.1,0,0,1-.1,2.2l-3,7.4c-.3.6-.8.7-1.1.1l-.5-.7a2.3,2.3,0,0,1-.2-2.1l.9-2.3a13.3,13.3,0,0,0,.9-2.1l1.9-4.5c.3-.6.6-.6.8,0Z" fill="#ed1c24"/>
              <path d="M302,91.9a20.4,20.4,0,0,1-.9,2.2l-1.2,2.8a1.2,1.2,0,0,1-1.5.7h-.1l-2.3-.7-6.9-2.4a1,1,0,0,1-.7-1.4l4.2-8.8a1.3,1.3,0,0,1,1.6-.7l9.1,2.4a1,1,0,0,1,.6,1.4Z" fill="#ed1c24"/>
            </g>
          </g>
          <ellipse cx="294.3" cy="85.9" rx="1.4" ry="1.1" transform="translate(18.2 219.3) rotate(-42.1)" fill="#fff"/>
          <ellipse cx="291.3" cy="92.3" rx="1.4" ry="1.1" transform="translate(13.2 218.9) rotate(-42.1)" fill="#fff"/>
          <ellipse cx="297.8" cy="94.4" rx="1.4" ry="1.1" transform="translate(13.5 223.8) rotate(-42.1)" fill="#fff"/>
          <path d="M292.1,97c0,.2-.6,0-1.2-.3s-1-.6-.9-.8.6,0,1.2.3S292.2,96.9,292.1,97Z" fill="#fff"/>
          <path d="M296.1,99.2c-.1.1-.6,0-1.2-.3s-1.1-.7-1-.8.6,0,1.2.3A2.3,2.3,0,0,1,296.1,99.2Z" fill="#fff"/>
          <path d="M300.1,101.1c-.1.1-.6,0-1.2-.3a2.3,2.3,0,0,1-1-.8c.1-.2.6,0,1.2.3S300.2,101,300.1,101.1Z" fill="#fff"/>
          <path d="M302.1,95.2c.1,0,.1.7-.1,1.4s-.5,1.3-.7,1.2-.1-.7.1-1.4S301.9,95.1,302.1,95.2Z" fill="#fff"/>
          <path d="M302.7,96.4a2,2,0,0,1-.1,1.3c-.2.7-.5,1.2-.7,1.1s-.1-.6.1-1.3S302.5,96.4,302.7,96.4Z" fill="#fff"/>
          <path d="M303.2,97.6a1.7,1.7,0,0,1-.1,1.2c-.1.6-.4,1.1-.6,1s-.2-.6,0-1.2S303,97.6,303.2,97.6Z" fill="#fff"/>
          <path d="M304.5,89.1c.2,0,.1.7-.1,1.4s-.5,1.2-.7,1.2a2.3,2.3,0,0,1,.1-1.4C304,89.6,304.3,89,304.5,89.1Z" fill="#fff"/>
          <path d="M305.1,90.3c.2.1.1.6-.1,1.3s-.5,1.2-.6,1.1-.2-.6,0-1.3S304.9,90.3,305.1,90.3Z" fill="#fff"/>
          <path d="M305.6,91.5c.2,0,.2.6,0,1.2s-.5,1-.7,1a1.7,1.7,0,0,1,.1-1.2C305.2,91.9,305.4,91.4,305.6,91.5Z" fill="#fff"/>
          <ellipse cx="300.7" cy="87.8" rx="1.4" ry="1.1" transform="translate(18.7 224.1) rotate(-42.1)" fill="#fff"/>
        </g>
      </g>
    </g>
    <g>
      <path d="M27.1,216.8a2.2,2.2,0,0,0-2.2-2.3,2.3,2.3,0,0,0-2.1,1.3l-2-.8-4.5-1.7h-.1c-.5,0-.9,1.6-.9,3.5s.4,3.6.9,3.6h.1l4.5-1.8,2-.8a2.2,2.2,0,0,0,4.3-1Z" fill="#fff200"/>
      <path d="M153.2,216.8a2.2,2.2,0,0,0-2.2-2.3,2.3,2.3,0,0,0-2.1,1.3l-2-.8-4.4-1.7h-.2c-.5,0-.9,1.6-.9,3.5s.4,3.6.9,3.6h.1l4.5-1.8,2-.8a2.4,2.4,0,0,0,2.1,1.4,2.3,2.3,0,0,0,2.2-2.4Z" fill="#fff200"/>
    </g>
    <g>
      <rect x="15.3" y="144.9" width="294.7" height="1" fill="#fff"/>
      <rect x="15.3" y="149.5" width="294.7" height="1" fill="#fff200"/>
    </g>
    <path d="M27.2,162.1a2.3,2.3,0,0,0-2.3-2.4,2.3,2.3,0,0,0-2,1.4l-2.1-.8-4.4-1.8h-.2c-.5,0-.9,1.6-.9,3.6s.4,3.6.9,3.6h.1l4.5-1.8,2.1-.9a2.1,2.1,0,0,0,2,1.5,2.3,2.3,0,0,0,2.3-2.4Z" fill="#fff"/>
    <g>
      <rect x="15.3" y="194.7" width="228.5" height="1" fill="#fff"/>
      <rect x="15.3" y="199.3" width="228.5" height="1" fill="#fff200"/>
    </g>
    <path d="M28.2,182.8a2.6,2.6,0,0,0-2.5-2.6,2.7,2.7,0,0,0-2.2,1.5l-2.2-.8L16.4,179h-.1c-.6,0-1,1.7-1,3.8s.4,3.9,1,3.9h.1l4.9-2,2.2-.8a2.4,2.4,0,0,0,2.2,1.5,2.6,2.6,0,0,0,2.5-2.6Z" fill="#fff"/>
    <g>
      <path d="M27.1,265a6,6,0,0,1-.6,2.7l-.6,1-.5.5-.6.6-.5.5-.3.3-.4.4c0,.1-.1.1-.2.2s-.1.1-.1.2l-.5.4-.5.5-.3.4-.6.5v.2h-.2L20,272.3l-3-3.1a5.5,5.5,0,0,1-1.4-2.3,6.9,6.9,0,0,1-.3-2,5.4,5.4,0,0,1,.5-2.2,3.8,3.8,0,0,1,.9-1.5,5.5,5.5,0,0,1,2.3-1.7,5.2,5.2,0,0,1,2.1-.4,8.3,8.3,0,0,1,2.2.3,6.7,6.7,0,0,1,1.8,1.1,8.6,8.6,0,0,1,1.4,1.8,7.3,7.3,0,0,1,.6,2.1Zm-2.8.1v-.4a2.7,2.7,0,0,0-1.1-2,3,3,0,0,0-2.2-.8,3.4,3.4,0,0,0-2,.9,3.9,3.9,0,0,0-.8,1.4,2.9,2.9,0,0,0-.1,1.3,3.2,3.2,0,0,0,1,1.9,3.5,3.5,0,0,0,1.6.8h.8a3.1,3.1,0,0,0,2.3-1.4A2.6,2.6,0,0,0,24.3,265.1Z" fill="#fff"/>
      <path d="M21.1,274.2h1.6l2.2.2,1.2.3.4.2q.3.2,0,.3c-.2.2-.5.2-.7.3l-1.7.3H19.4l-1.8-.2a6.1,6.1,0,0,1-1.3-.3l-.4-.2a.2.2,0,0,1,0-.3c.2-.2.5-.2.7-.3a11.3,11.3,0,0,1,1.8-.3Z" fill="#fff"/>
    </g>
    <path d="M25.2,299.3a2,2,0,0,0-1.9-1.9,1.8,1.8,0,0,0-1.7,1.1l-1.7-.7-3.7-1.4h-.1c-.5,0-.8,1.3-.8,2.9s.3,3,.8,3h0l3.8-1.5,1.7-.7a1.8,1.8,0,0,0,1.7,1.2,2,2,0,0,0,1.9-2Z" fill="#fff200"/>
    <path d="M25.2,322.3a2,2,0,0,0-1.9-2,1.9,1.9,0,0,0-1.7,1.2l-1.7-.7-3.7-1.4h-.1c-.5,0-.8,1.4-.8,3s.3,3,.8,3h0l3.8-1.5,1.7-.7a1.8,1.8,0,0,0,1.7,1.2,2,2,0,0,0,1.9-2Z" fill="#fff200"/>
    <g>
      <path d="M324.3,199.5a3.7,3.7,0,0,1-1.5,2,4.7,4.7,0,0,1-1.6.4H252.5c-2.1,0-2.9-.6-3.7-2.5V182.9a3.5,3.5,0,0,1,2.1-2.3,2.7,2.7,0,0,1,1.3-.2h68.5c1.8,0,3,.6,3.6,2.3Zm-37.7-17.6H252.2a1.7,1.7,0,0,0-1.9,1.9v14.7a1.7,1.7,0,0,0,1.9,1.9H321a1.8,1.8,0,0,0,1.9-1.9V183.6a1.8,1.8,0,0,0-.6-1.3c-.3-.4-.8-.4-1.3-.4Z" fill="#fff"/>
      <path d="M287.3,155.9a19.4,19.4,0,0,1,3,1.3c-.2.2-.3.2-.4.2l-3,.7h-.5l-3.3-.8h-.2a13.5,13.5,0,0,1,3-1.4Z" fill="#fff"/>
      <path d="M315.7,179.7h-2.5a.5.5,0,0,1-.6-.4,27.7,27.7,0,0,0-5.9-8.4,28,28,0,0,0-15.2-7.9,27.4,27.4,0,0,0-18,2.8,28.2,28.2,0,0,0-12.9,13.5.6.6,0,0,1-.6.4h-5.4c-.1-.2.1-.2.2-.3s2.4-2.7,3.7-4a1.6,1.6,0,0,0,.4-.7l1.6-5.5c.1-.1.1-.2.1-.4a5.2,5.2,0,0,1,3.7-3.6l5.8-1.7.7-.4,4.6-4.3a4.7,4.7,0,0,1,2.7-1.4,10.6,10.6,0,0,1,2.5.2l5.4,1.3h1.2l5.7-1.3a4.9,4.9,0,0,1,5.3,1.5l4,3.8a4.1,4.1,0,0,0,1.1.7l5.2,1.5a5.7,5.7,0,0,1,4.3,4.4c.4,1.7,1,3.4,1.5,5.1a1.9,1.9,0,0,0,.5.9l3.7,3.9c0,.1.2.1.1.3h-2.9Z" fill="#fff"/>
      <path d="M286.6,165.3a25.3,25.3,0,0,1,17.6,6.9,26.2,26.2,0,0,1,5.4,7c.2.4.1.4-.3.5a1.7,1.7,0,0,1-1.9-1.1,24.3,24.3,0,0,0-38.3-4.2,19.8,19.8,0,0,0-3.7,4.9.5.5,0,0,1-.6.4h-.9c-.4,0-.4-.1-.3-.4a23.5,23.5,0,0,1,2.4-3.7,24.8,24.8,0,0,1,12.9-9.1A25.3,25.3,0,0,1,286.6,165.3Z" fill="#fff"/>
      <path d="M266.5,163.6a1.3,1.3,0,0,1,.4-.6l.6-.9a4.5,4.5,0,0,1,3.8-2.1h1.5v.2l-2.5,2.3h-.3l-3.2,1Z" fill="#fff"/>
      <path d="M306.7,163.7l-.9-.3-1.1-.3a5.6,5.6,0,0,1-3-1.7,6.8,6.8,0,0,0-1.2-1.2V160h.2a11.2,11.2,0,0,1,3.1.5l.9.5A8.3,8.3,0,0,1,306.7,163.7Z" fill="#fff"/>
      <path d="M314.2,171.1l.8.5.8.5a4.5,4.5,0,0,1,1.9,3.7c0,.4.1.9.1,1.3s0,.2-.1.2h-.2l-2.3-2.5v-.2c-.3-1.1-.6-2.1-1-3.2S314.1,171.1,314.2,171.1Z" fill="#fff"/>
      <path d="M255.4,176.9c.1-.7.1-1.4.2-2.1a4.1,4.1,0,0,1,1.7-2.6l1.5-1c.1-.1.2-.2.3-.1v.2c-.4,1.1-.7,2.1-1,3.1s-.1.3-.2.5l-2.1,2.1c-.1.2-.2.4-.3.3S255.4,177,255.4,176.9Z" fill="#fff"/>
      <path d="M257.5,202.6H260a.5.5,0,0,1,.6.4,28.5,28.5,0,0,0,27.8,16.6A28.3,28.3,0,0,0,305,213a28.9,28.9,0,0,0,7.6-10,.5.5,0,0,1,.6-.4h5.4c.1.1-.1.2-.2.3l-3.5,3.7a2.4,2.4,0,0,0-.6,1.1l-1.8,6a4.8,4.8,0,0,1-3.3,3.2l-5.7,1.8a2.8,2.8,0,0,0-1.5.8l-3.9,3.8a5.3,5.3,0,0,1-5.2,1.4l-5.8-1.4h-1l-6.1,1.4a4.9,4.9,0,0,1-4.5-1.1l-3.6-3.4-1.2-1.1c-.1-.2-.3-.2-.5-.3l-5.5-1.6-1-.4a4.6,4.6,0,0,1-2.9-2.9c-.5-1.5-.9-3.1-1.4-4.6l-.6-1.9c0-.2-.2-.4-.3-.6l-3.7-3.9c-.1-.1-.3-.2-.2-.3s.2-.1.4-.1Z" fill="#fff"/>
      <path d="M286.6,217a25.5,25.5,0,0,1-17.9-7.3,23,23,0,0,1-5-6.6c-.3-.5-.2-.4.2-.5a1.7,1.7,0,0,1,1.9,1,24.3,24.3,0,0,0,36.6,5.9,22.6,22.6,0,0,0,5.4-6.5.5.5,0,0,1,.6-.4h1c.3,0,.3.1.2.4a36.1,36.1,0,0,1-2.3,3.6,25.2,25.2,0,0,1-16.4,10l-1.2.2Z" fill="#fff"/>
      <path d="M255.4,205.4v-.5h.1l2.4,2.6c.1,0,.1.2.1.3s.7,2,1,3,.1.2,0,.3-.2-.1-.3-.1l-1.6-1.1a3.9,3.9,0,0,1-1.6-3A8.8,8.8,0,0,1,255.4,205.4Z" fill="#fff"/>
      <path d="M306.7,218.6c0,.1,0,.2-.1.2a9,9,0,0,1-1.4,2,4.5,4.5,0,0,1-3.3,1.4h-1.5a.3.3,0,0,1,.1-.2l2.5-2.4h.3l3.2-.9Z" fill="#fff"/>
      <path d="M317.8,205.6c-.1.6-.1,1.2-.2,1.8a4.1,4.1,0,0,1-1.5,2.5l-1.7,1.2c-.1.1-.2.2-.3.1a.1.1,0,0,1,0-.2c.3-1.1.7-2.2,1-3.2s.2-.3.3-.4l2-2.2c.1-.1.2-.3.3-.2s.1.2.1.3Z" fill="#fff"/>
      <path d="M266.5,218.7h.4l2.9.9.5.2,2.3,2.2c.1.1.2.1.2.3h-.3l-2.4-.2a4,4,0,0,1-2.2-1.4,11.8,11.8,0,0,1-1.3-1.8A.3.3,0,0,1,266.5,218.7Z" fill="#fff"/>
    </g>
    <path d="M27.1,238.1a2.3,2.3,0,0,0-2.2-2.4,2.4,2.4,0,0,0-2.1,1.4l-2-.8-4.5-1.7h-.1c-.5,0-.9,1.5-.9,3.5s.4,3.6.9,3.6h.1l4.5-1.8,2-.9a2.3,2.3,0,0,0,2.1,1.5,2.3,2.3,0,0,0,2.2-2.4Z" fill="#fff200"/>
  </g>
</svg>
