<?xml version="1.0" encoding="UTF-8"?><svg id="ab5fd0c6-80d3-4bb4-86fb-a06abfe87dfe" xmlns="http://www.w3.org/2000/svg" width="335" height="335" xmlns:xlink="http://www.w3.org/1999/xlink" viewBox="0 0 335 335"><defs><clipPath id="clippath"><rect width="335" height="335" fill="none"/></clipPath><radialGradient id="radial-gradient" cx="358.62" cy="-222.25" fx="358.62" fy="-222.25" r="257.18" gradientTransform="translate(-119.4 -10.3) scale(.8 -.8)" gradientUnits="userSpaceOnUse"><stop offset="0" stop-color="#23ff03"/><stop offset=".11" stop-color="#20dd07"/><stop offset=".35" stop-color="#1a970e"/><stop offset=".57" stop-color="#156013"/><stop offset=".76" stop-color="#123818"/><stop offset=".91" stop-color="#10201a"/><stop offset="1" stop-color="#0f171b"/></radialGradient><clipPath id="clippath-1"><circle cx="38.8" cy="95.6" r="15.7" fill="none"/></clipPath><clipPath id="clippath-2"><circle cx="309.2" cy="95.6" r="15.7" fill="none"/></clipPath></defs><g id="ada9c95c-b7ce-47fe-999f-90c39299face"><g><g clip-path="url(#clippath)"><rect width="335" height="335" fill="url(#radial-gradient)"/></g><g><path d="M132.5,174.5c25.4,20.8-10.2,82.7-36.1,93.2S-2.1,250,13.5,184.1c7.1-29.8,64-54.7,119-9.6Z" fill="#231f20" isolation="isolate" opacity=".3"/><path d="M133.4,171.5c25.4,20.8-10.3,82.7-36.1,93.2-25.8,10.5-98.5-17.7-82.9-83.5,7-29.9,63.9-54.8,119-9.7Z" fill="#231f20" isolation="isolate" opacity=".6"/><path d="M134.4,167.9c25.4,20.8-10.2,82.7-36.1,93.2C72.4,271.6-.2,243.4,15.4,177.6c7.1-29.9,64-54.8,119-9.7Z" fill="#fff"/><path d="M135,166c25.3,20.8-10.3,82.8-36.2,93.2C72.9,269.6,.4,241.5,15.9,175.7c7.1-29.9,64-54.8,119.1-9.7Z" fill="#fff"/><path d="M94.4,148.2c-19.8-5.7-40-3.7-55.6,5.4-10.2,6-17.3,14.7-19.4,23.7-9.9,41.7,17,69.4,48.1,78.3,11.5,3.3,22.4,3.4,29.9,.4,17.4-7.1,38.1-37.3,41.7-61,1.8-11.9-.9-21.2-7.6-26.7-11.8-9.7-24.3-16.4-37.1-20.1Z" fill="#3b54a5"/></g></g><g><g><path d="M32.4,20.2c.01,.3-.1,.58-.3,.8l-3.7,3.7-4-2.3v-2.2c0-.66,.54-1.2,1.2-1.2,.66,0,1.2,.54,1.2,1.2h0v2.8l3.6-3.6c.47-.47,1.23-.47,1.7,0h0c.2,.22,.31,.51,.3,.8" fill="#fff"/><path d="M31.2,30.9h-.4c-.1-.1-.3-.1-.4-.3l-3.6-3.6v2.8c0,.66-.54,1.2-1.2,1.2h0c-.66,0-1.2-.54-1.2-1.2h0v-2.3l4-2.3,3.7,3.7c.44,.49,.4,1.25-.09,1.69h0c-.22,.21-.5,.32-.8,.31" fill="#fff"/><path d="M28.2,24.9c0-.1-.1-.1-.1-.2h0l-1-.6-2.7-1.5-2.2-1.3c-.2-.1-.3,0-.4,.1h0v6.9c0,.11,.09,.2,.2,.2h.2l2.2-1.3,3.7-2.1h.1v-.2Zm-.9,.1q0,.1-.1,.1l-2.8,1.7-1.8,1h-.3v-5.5c0-.11,.09-.2,.2-.2h.1l1.8,1,2.8,1.7c.1,0,.1,.1,.1,.2Z" fill="#fff"/><path d="M26.5,25q0,.1-.1,.1h0l-2.1,1.2-1.3,.8c-.1,0-.2,0-.2-.1h0v-4c0-.1,0-.2,.1-.2h.1l1.3,.8,2.1,1.2h.1" fill="#fff"/></g><g><path d="M51.7,24.8h-.1l-3.3-1.6-2-1.1-.3,.2v5.4c0,.2,.2,.3,.4,.2l2-1,3.2-1.9q.1,0,.1-.1v-.1Zm-.8,.1q0,.1-.1,.1l-2.5,1.3-1.5,.9c-.1,0-.3,0-.3-.2v-4.2c0-.1,.1-.1,.2-.1h0l1.6,.8,2.5,1.2h.1v.2Z" fill="#fff"/><path d="M50.2,24.9q0,.1-.1,.1l-1.8,1-1.2,.6h-.2v-3.3q0-.1,.1-.1h.1l1.1,.6,1.9,1h.1" fill="#fff"/><path d="M34.8,22.1h2.8c1.4,0,2.4,.8,2.4,1.9-.1,1.16-1.13,2.01-2.28,1.9h-1.52v1.8h-1.4v-5.6Zm2.7,2.7c.7,0,1.1-.3,1.1-.8s-.5-.8-1.1-.8h-1.4v1.6h1.4Z" fill="#fff"/><path d="M45.3,26.7v1.1h-4.5v-5.6h1.3v4.5h3.2Z" fill="#fff"/><path d="M53.2,25.7l-2.5-3.6h1.5l1.6,2.4,1.6-2.5h1.5l-2.4,3.6v2.1h-1.3v-2Z" fill="#fff"/><path d="M57.8,22.4h.7v3.1l3.1-3.2h1l-2.6,2.6,2.9,3.1h-.9l-2.4-2.6-1,.9v1.7h-.7l-.1-5.6Z" fill="#fff"/><path d="M63.3,25.1c0-1.6,1.3-2.9,2.9-2.9h.2c1.71-.11,3.19,1.18,3.3,2.89h0c0,1.78-1.43,3.21-3.2,3.21s-3.2-1.43-3.2-3.2Zm5.7,0c-.11-1.34-1.26-2.36-2.6-2.3-1.29,0-2.35,1.01-2.4,2.3,0,1.38,1.12,2.5,2.5,2.5s2.5-1.12,2.5-2.5Z" fill="#fff"/><path d="M70.6,27.2l.5-.6c.54,.51,1.26,.79,2,.8,1,0,1.5-.5,1.5-1s-.6-.8-1.7-1-2.1-.6-2.1-1.6,.9-1.6,2.1-1.6c.81-.04,1.61,.25,2.2,.8l-.4,.5c-.51-.48-1.2-.73-1.9-.7-.7,0-1.3,.4-1.3,1s.6,.7,1.7,1,2.1,.6,2.1,1.6-.7,1.6-2.2,1.6c-.9,0-1.77-.29-2.5-.8Z" fill="#fff"/><path d="M76.6,22.4h.7l2.4,3.9,2.3-4h.7v5.6h-.7v-4.2l-2.3,4-2.4-3.9v4.2h-.7v-5.6Z" fill="#fff"/><path d="M84.1,25.1c0-1.77,1.43-3.2,3.2-3.2s3.2,1.43,3.2,3.2h0c0,1.77-1.43,3.2-3.2,3.2s-3.2-1.43-3.2-3.2Zm5.7,0c0-1.38-1.12-2.5-2.5-2.5s-2.5,1.12-2.5,2.5,1.12,2.5,2.5,2.5,2.5-1.12,2.5-2.5Z" fill="#fff"/><path d="M91.4,27.2l.5-.6c.54,.51,1.26,.79,2,.8,1,0,1.5-.5,1.5-1s-.6-.8-1.7-1-2.1-.6-2.1-1.6,.9-1.6,2.1-1.6c.81-.04,1.61,.25,2.2,.8l-.4,.5c-.48-.48-1.13-.73-1.8-.7-.8,0-1.4,.4-1.4,1s.7,.7,1.7,1,2.1,.6,2.1,1.6-.7,1.6-2.2,1.6c-.9,0-1.77-.29-2.5-.8Z" fill="#fff"/></g></g><rect x="61.5" y="110.6" width="211.9" height="21.9" fill="#fff"/><rect x="194.4" y="147.5" width="121.8" height="13.52"/><rect x="194.4" y="176.1" width="121.8" height="13.52"/><g><g><path d="M312.9,265.7c-1.82-.06-3.34,1.38-3.4,3.2h0c0,1.4,2.4,4.5,3.4,4.4s3.3-3.1,3.3-4.4c.06-1.77-1.33-3.24-3.1-3.3h-.2v.1Zm0,3.9c-.49,.06-.94-.3-1-.79h0v-.21c-.06-.49,.3-.94,.79-1h.21c.5,0,.9,.4,.9,.9h0c-.03,.52-.39,.97-.9,1.1Z" fill="#fff"/><path d="M306.3,269.8c-2.1,.05-3.75,1.8-3.7,3.9h0c.1,1.4,2.7,4.9,3.8,4.9s3.9-3.6,3.8-5.1c-.1-2-1.7-3.6-3.7-3.7h-.2Zm.1,4.1c-.61,0-1.1-.49-1.1-1.1s.49-1.1,1.1-1.1h0c.61,0,1.1,.49,1.1,1.1s-.49,1.1-1.1,1.1Z" fill="#fff"/></g><rect x="129.2" y="287" width="187" height="1.62" fill="#23ff03"/></g><g><rect x="159.3" y="204.6" width="156.9" height="16.4" fill="#fff"/><rect x="247.8" y="207.8" width="1.7" height="10.07"/></g><rect x="236.9" y="236.1" width="79.3" height="14.09" fill="#23ff03"/><g><g><polygon points="320.5 29.3 319.5 35.3 325.2 33.2 320.5 29.3" fill="#fff"/><polygon points="318.7 24.3 317.7 30.3 323.4 28.2 318.7 24.3" fill="#fff"/></g><g><polygon points="312.5 37.5 311.5 43.6 317.2 41.4 312.5 37.5" fill="#fff"/><polygon points="310.7 32.6 309.7 38.6 315.4 36.5 310.7 32.6" fill="#fff"/></g></g><g><g><polygon points="94.5 311.8 93.5 317.8 99.2 315.7 94.5 311.8" fill="#fff"/><polygon points="92.7 306.8 91.7 312.9 97.4 310.7 92.7 306.8" fill="#fff"/></g><g><polygon points="86.5 320.1 85.5 326.1 91.2 324 86.5 320.1" fill="#fff"/><polygon points="84.7 315.1 83.6 321.1 89.4 319 84.7 315.1" fill="#fff"/></g></g><g><circle cx="25.8" cy="95.6" r="15.7" fill="#23ff03"/><g clip-path="url(#clippath-1)"><g><line x1="36" y1="119.9" x2="63.1" y2="92.8" fill="none" stroke="#fff" stroke-miterlimit="10" stroke-width=".55"/><line x1="34.3" y1="118.3" x2="61.4" y2="91.2" fill="none" stroke="#fff" stroke-miterlimit="10" stroke-width=".55"/><line x1="32.7" y1="116.6" x2="59.8" y2="89.5" fill="none" stroke="#fff" stroke-miterlimit="10" stroke-width=".55"/><line x1="31" y1="115" x2="58.1" y2="87.9" fill="none" stroke="#fff" stroke-miterlimit="10" stroke-width=".55"/><line x1="29.4" y1="113.3" x2="56.5" y2="86.2" fill="none" stroke="#fff" stroke-miterlimit="10" stroke-width=".55"/><line x1="27.7" y1="111.7" x2="54.8" y2="84.6" fill="none" stroke="#fff" stroke-miterlimit="10" stroke-width=".55"/><line x1="26.1" y1="110" x2="53.2" y2="82.9" fill="none" stroke="#fff" stroke-miterlimit="10" stroke-width=".55"/><line x1="24.4" y1="108.4" x2="51.5" y2="81.3" fill="none" stroke="#fff" stroke-miterlimit="10" stroke-width=".55"/><line x1="22.8" y1="106.7" x2="49.9" y2="79.6" fill="none" stroke="#fff" stroke-miterlimit="10" stroke-width=".55"/><line x1="21.1" y1="105.1" x2="48.2" y2="78" fill="none" stroke="#fff" stroke-miterlimit="10" stroke-width=".55"/><line x1="19.5" y1="103.4" x2="46.6" y2="76.3" fill="none" stroke="#fff" stroke-miterlimit="10" stroke-width=".55"/><line x1="17.8" y1="101.8" x2="44.9" y2="74.7" fill="none" stroke="#fff" stroke-miterlimit="10" stroke-width=".55"/><line x1="16.2" y1="100.1" x2="43.2" y2="73" fill="none" stroke="#fff" stroke-miterlimit="10" stroke-width=".55"/><line x1="14.5" y1="98.5" x2="41.6" y2="71.4" fill="none" stroke="#fff" stroke-miterlimit="10" stroke-width=".55"/></g></g></g><g><circle cx="296.2" cy="95.6" r="15.7" fill="#23ff03"/><g clip-path="url(#clippath-2)"><g><line x1="306.4" y1="119.9" x2="333.5" y2="92.8" fill="none" stroke="#fff" stroke-miterlimit="10" stroke-width=".55"/><line x1="304.8" y1="118.3" x2="331.8" y2="91.2" fill="none" stroke="#fff" stroke-miterlimit="10" stroke-width=".55"/><line x1="303.1" y1="116.6" x2="330.2" y2="89.5" fill="none" stroke="#fff" stroke-miterlimit="10" stroke-width=".55"/><line x1="301.5" y1="115" x2="328.5" y2="87.9" fill="none" stroke="#fff" stroke-miterlimit="10" stroke-width=".55"/><line x1="299.8" y1="113.3" x2="326.9" y2="86.2" fill="none" stroke="#fff" stroke-miterlimit="10" stroke-width=".55"/><line x1="298.2" y1="111.7" x2="325.2" y2="84.6" fill="none" stroke="#fff" stroke-miterlimit="10" stroke-width=".55"/><line x1="296.5" y1="110" x2="323.6" y2="82.9" fill="none" stroke="#fff" stroke-miterlimit="10" stroke-width=".55"/><line x1="294.9" y1="108.4" x2="321.9" y2="81.3" fill="none" stroke="#fff" stroke-miterlimit="10" stroke-width=".55"/><line x1="293.2" y1="106.7" x2="320.3" y2="79.6" fill="none" stroke="#fff" stroke-miterlimit="10" stroke-width=".55"/><line x1="291.6" y1="105.1" x2="318.6" y2="78" fill="none" stroke="#fff" stroke-miterlimit="10" stroke-width=".55"/><line x1="289.9" y1="103.4" x2="317" y2="76.3" fill="none" stroke="#fff" stroke-miterlimit="10" stroke-width=".55"/><line x1="288.3" y1="101.8" x2="315.3" y2="74.7" fill="none" stroke="#fff" stroke-miterlimit="10" stroke-width=".55"/><line x1="286.6" y1="100.1" x2="313.7" y2="73" fill="none" stroke="#fff" stroke-miterlimit="10" stroke-width=".55"/><line x1="284.9" y1="98.5" x2="312" y2="71.4" fill="none" stroke="#fff" stroke-miterlimit="10" stroke-width=".55"/></g></g></g><g><rect x="332" y="129.1" width="3" height="64.03" fill="#23ff03"/><rect x="332" y="256.6" width="3" height="64.03" fill="#fff"/></g><rect y="192.8" width="3" height="64.03" fill="#23ff03"/><g><path d="M8.7,303.9l.3-1.3c.28-.93,.65-1.84,1.1-2.7,.1-.4,.3-.8,.4-1.2-.13-.62-.17-1.27-.1-1.9,.13-.54,.37-1.05,.7-1.5l.4-.4c.56-.3,1.24-.3,1.8,0,0-.3-.1-.7-.1-1-.1-.5-.1-1,0-1.5-.13-.86-.17-1.73-.1-2.6,.01-.54,.19-1.06,.5-1.5,.3-.5,.3-1.1,.8-1.6s.3-.2,.2-.3c-.07-.39-.21-.76-.4-1.1v-.3c-.07-.5-.03-1.01,.1-1.5,.22-.62,.49-1.22,.8-1.8,.21-.41,.48-.78,.8-1.1,.37-.67,.93-1.23,1.6-1.6,.56-.38,1.16-.68,1.8-.9,.41-.18,.87-.21,1.3-.1l2.5,.7c.1,0,.3,.1,.4,0l1-.7,1-1.1c.52-.61,1.17-1.09,1.9-1.4l1.8-.6,.8-.5c.88-.31,1.7-.78,2.4-1.4l2.7-.6,2.4-.4c.46-.02,.91-.16,1.3-.4l.9-.4,2.1-1.1,1.6-.3h2l2.2-.2c.28-.09,.59,0,.8,.2,.52,.2,1,.51,1.4,.9,.43,.61,.77,1.29,1,2,.29,.71,.53,1.45,.7,2.2,.28,.75,.51,1.52,.7,2.3,.1,.3,.1,.7,.2,1s0,2.5,.1,3.8,.1,1.4,.2,2.1l.5,.3c.11,.22,.18,.46,.2,.7,0,.4-.18,.77-.5,1-.08,.26-.12,.53-.1,.8l1.5,.2,.8-.6,1.7-1.2c.2-.1,.2-.4,.4-.6s.5,0,.7,0,.3,.4,.3,.7c-.02,.21-.09,.42-.2,.6,0,.2,.1,.4,.1,.6,.05,.25-.02,.51-.2,.7-.51,.42-.89,.98-1.1,1.6-.1,.6,0,1.3-.1,2-.11,.38-.36,.7-.7,.9-.39,.24-.84,.38-1.3,.4-.4-.1-.6-.5-.9-.8h-.2c.08,.54,.01,1.09-.2,1.6-.69,.37-1.43,.64-2.2,.8-.45,.17-.92,.24-1.4,.2-.26,.19-.58,.29-.9,.3l-1.3-.3c-.2,0-.3-.2-.4-.3-.23-.3-.4-.64-.5-1-.1-.2,0-.5,0-.7s-.4-.3-.5-.6c-.04-.28,.03-.57,.2-.8,.1-.38,.31-.73,.6-1v-.2h-2.8c-.31-.03-.59-.17-.8-.4,.02,.73-.02,1.47-.1,2.2,.2,.2,.4,.3,.5,.6s-.1,.3-.1,.5l-.6,1.6c.31,.32,.49,.75,.5,1.2,.1,.4,0,.8,.1,1.3l.4,.5,1.5,.7,.6,.2h3.1l.7,.3,2.4-.3h1.2l1.9-.8,1.7-.6c.66-.29,1.39-.4,2.1-.3h1.3l.9-.5c.5-.3,.6-.9,1.1-1.2,.42-.42,1.02-.61,1.6-.5,.4,0,.8-.4,1.2-.4s.4,0,.5,.2c.1,.26,.1,.54,0,.8l-.5,.2,.3,.4c.1,.3-.1,.4-.3,.6,.13,.09,.2,.24,.2,.4l-.4,.5v.3l-.3,.6c-.1,.2,0,.5-.2,.7l-1.2,.6c-.4,.3,.1,.6,.1,.9l-.7,.8-1.1,1.2-.8,.9c-.47,.39-1.02,.7-1.6,.9l-2.7,.7c-.96,.49-1.97,.89-3,1.2-.2,.1-.5,.2-.5,.4-.23,.34-.39,.71-.5,1.1,.02,.21-.1,.41-.3,.5l-2.2,.3-.7,.4h-.3l-1,1.2-.2,.3c-.1,.5-.1,1-.2,1.6l-.3,1.1c.02,.41,.08,.81,.2,1.2l-.9,.8c-.16,.31-.23,.65-.2,1l-.6,3c-.33,.95-.59,1.92-.8,2.9-.16,.86-.43,1.7-.8,2.5l-.6,1.1c-.2,.2-.3,.5-.6,.7-.36,.28-.76,.48-1.2,.6h-1.1l-1.3-.4-1.8,.4c-1.07,0-2.14-.1-3.2-.3l-1.9-.5h-.4l-1.2,.2c-.86-.01-1.7-.18-2.5-.5l-.9-.3-2.1-1.5h-.4c-.96,.37-2,.44-3,.2-.91-.33-1.61-1.07-1.9-2,0-.1-.1-.2-.2-.1-.17,0-.3,.13-.3,.3l-.7,.9-.6,1.1-.9,.5-1,.3c-.48,.2-.99,.3-1.5,.3l-2.1-.6-1.5-1.3c-.29-.31-.5-.69-.6-1.1-.34-.7-.57-1.44-.7-2.2-.07-.47-.03-.95,.1-1.4,.27-.66,.61-1.3,1-1.9,.2-.5,.3-.9,.5-1.3s.5,0,.6-.3,.6-1,1.2-1,.1-.5,.1-.7l-1.2-.7c-.48-.77-.82-1.61-1-2.5-.23-.34-.39-.71-.5-1.1-.22-.28-.49-.52-.8-.7l-.7-.6c-.29-.31-.5-.69-.6-1.1-.21-.81-.28-1.66-.2-2.5v.2Zm12.6-8.3h0c.2-.1,.5-.1,.7-.3l.9-.8-2.7-.2-.4,.6c-.08,.64-.02,1.29,.2,1.9,.36-.48,.8-.88,1.3-1.2Zm27-10.8h0l.3-.3c-.09-.68-.22-1.34-.4-2-.1-.6-.4-1-.5-1.5l-.6-1-.6-1c-.32-.58-.49-1.24-.5-1.9l-3.2,1.7c-.38,.3-.83,.5-1.3,.6-.63,.11-1.23,.31-1.8,.6-.02,.3,.02,.61,.1,.9l.3,1.1c0,.1,.1,.2,.3,.2h.9c.45,.37,.96,.67,1.5,.9,1.8,.7,3.5,1.7,5.4,2.3,0-.1-.1-.4,.1-.5v-.1Z"/><path d="M48.4,270.2c-.51-.34-1.16-.37-1.7-.1,.44,.1,.83,.34,1.1,.7l-.7-.2-2.5-.5c-.91-.15-1.84-.05-2.7,.3l-2.3,1.1-1.5,.7c.4,.1,1,0,1.3,.5s-1.7-.2-2.5,0l-2.2,.3c-.76,0-1.51,.18-2.2,.5l-2.4,1.4c-.2,.1-.3,.4-.5,.4l-2,.6c-.77,.29-1.44,.82-1.9,1.5l-.8,.9-.9,.5,.5,.2h1.1c.9,.2,1.8-.1,2.7,.2l-1.9,.3-.9,.3c.23,.3,.4,.64,.5,1l.6,1.4c.12,.39,.18,.79,.2,1.2,0,.2-.1,.4,.1,.6l.3,.7c.1,.5,.1,1,0,1.5h.1c.24-.39,.38-.84,.4-1.3,.11-.32,.18-.66,.2-1h.3c0,.4-.1,.8-.1,1.2-.1,.56-.1,1.14,0,1.7,.27-.13,.43-.41,.4-.7,.13-.45,.17-.93,.1-1.4,.6,0,.5,.7,.5,1.1l1.3-.7-.5,.6-.7,.8c-.29,.46-.49,.97-.6,1.5,0,.4-.2,.6-.3,1s-.4,0-.5,.2-.4,.2-.6,.2c-.31,.02-.58,.21-.7,.5-.35,.54-.55,1.16-.6,1.8l-.3,.9c.41,.42,.93,.7,1.5,.8,.88,.23,1.79,.36,2.7,.4l.5-.6,.4,.2-.5,1c-.1,.2-.4,.2-.6,.3h0l1.6,1c.1,.1,.2,.3,.1,.4l-.5,.2,.9,.7c.23,.17,.52,.24,.8,.2h2c.49-.03,.97-.16,1.4-.4l1-.2-1.5,.9-1.1,.4-1.1,.3c-.27,.16-.59,.23-.9,.2,1.13,.34,2.32,.47,3.5,.4l1.4-.3c.83-.21,1.64-.51,2.4-.9l.5-.6,1-1c.16-.31,.23-.65,.2-1,.23-1.19,.27-2.4,.1-3.6,.11,.29,.18,.59,.2,.9,.22,.68,.28,1.39,.2,2.1,.26-.47,.43-.97,.5-1.5,0-1.1-.39-2.16-1.1-3-.1,.3,0,.7-.1,1h-.2c0-.51-.1-1.02-.3-1.5,0,.2-.1,.3-.2,.5h-.2c.1-1.1,.3-2.1,.3-3.2,.08-.64,.02-1.29-.2-1.9-.3-.7-.3-1.6-.6-2.3-.17,.55-.24,1.13-.2,1.7,.11,.36,.18,.73,.2,1.1,.33,1.04,.37,2.15,.1,3.2q0-.1-.1-.1h0c-.1-.7,0-1.5-.1-2.3,.03-.17,0-.35-.1-.5-.28-.18-.52-.42-.7-.7-.2,1.1-.3,2.1-.5,3.2l-.6,2c-.1,.4-.1,.8-.4,1l-1.5,.9-2.2,.9c-.63,.1-1.27,.1-1.9,0-.4,0-1-.1-1.2-.5s-1.3-1.2-1.8-1.9l-.7-.5h.7l.9,.5c.38,.3,.83,.5,1.3,.6l1.4,.5c.4,.06,.81,.03,1.2-.1,.39,0,.77-.1,1.1-.3,.28-.2,.49-.48,.6-.8,.12,.15,.33,.19,.5,.1l.7-.4-.3-.5h.4c.1,.2,.2,.3,.2,.4s.5-.7,.8-.9c.27-.31,.44-.69,.5-1.1,0-.5,.1-.9,.1-1.4l-.2,.2c.1-.5,.1-.9,.2-1.4s0-1.2,.1-1.9c-.1-.73-.1-1.47,0-2.2-.07-.41,.08-.83,.4-1.1l.8-1.2c-.4,.2-.6,.6-1,.8s-.5,.7-.9,.9l-1.4,.6-2.4,.4c-.4,.17-.77,.41-1.1,.7,0-.5,.4-.8,.7-1.1-.43-.12-.79-.41-1-.8,.7-.3,1.5,.2,2.3,.2l1.2-.8,1.9-1.4,.6-.7c-.64,.38-1.36,.62-2.1,.7l2.2-1.4c.21-.07,.38-.22,.5-.4,.03-.54,.33-1.03,.8-1.3-.21,.65-.38,1.32-.5,2l.7-.9c.3-.3,.3-.7,.5-1,.17-.37,.41-.71,.7-1,.12-.18,.29-.33,.5-.4-.43,.58-.77,1.22-1,1.9-.1,.1,0,.2,.1,.3l.9-.2,1.8-.3,1.5-.5c.64-.54,1.18-1.18,1.6-1.9,.1-.2,.3-.1,.4-.1-.02,.24-.09,.48-.2,.7l-1.1,1.5c-.32,.52-.82,.91-1.4,1.1-.65,.43-1.36,.77-2.1,1l-1.5,.8-.8,.6,1.9-.8,1.7-.7c.76-.28,1.47-.68,2.1-1.2,.57-.44,1.04-.98,1.4-1.6,.2-.3,.6-.6,.5-1-.11-.25-.18-.52-.2-.8h.2c.1,.2,.1,.4,.2,.6s0-.6,.4-.6v1l-.4,.8-.3,.9c-.1,.2-.3,.4-.2,.6,.13,.6,.37,1.18,.7,1.7l.8,1.3c.2,.4,.6,.6,.9,.9,.4,.51,.7,1.09,.9,1.7l-.4-.3c.1,.5,.1,1,.2,1.5-.08,.74-.01,1.49,.2,2.2l1.7-.2c.4-.3,.3-.9,.3-1.3-.03-1.11-.17-2.21-.4-3.3,0-.11-.03-.22-.1-.3l.3,.5v-1.4c-.09-.61-.22-1.21-.4-1.8-.16-.86-.43-1.7-.8-2.5-.27-.57-.61-1.1-1-1.6l-1.7-1.8c.3,0,.5,.2,.8,.4l1.4,1.3c-.18-.73-.45-1.44-.8-2.1-.39-.42-.82-.79-1.3-1.1v.2Zm-3.2,1.3h0v.2c-.88,.03-1.75,.16-2.6,.4-.51,.2-1.05,.3-1.6,.3-.2,.1-.3-.1-.4-.2,.65-.04,1.29-.17,1.9-.4,.89-.2,1.79-.3,2.7-.3Zm-6,1.7h0l-1.4,.2c-.6,.1-1.2,.1-1.8,0,.41-.16,.86-.23,1.3-.2h1.9Zm-5.1,.5h0l-2,.9c.25-.27,.56-.47,.9-.6,.4-.2,.7-.4,1.1-.3Zm-1.1,2h0c.2,.1,.5,0,.6,.3,.08,.07,.09,.2,.02,.28l-.02,.02h-.3l-2.5-.6-.5-.2c.9-.03,1.81,.03,2.7,.2h0Zm-4,.6h0l-1.8,.8-1.2,.9,.7-.8,1.6-1,.7,.1Zm4.3,1.6h0l-.9,1.1c-.6,.5-1,1.1-1.6,1.5-.4,.21-.86,.28-1.3,.2h-1.7v-.2c.56-.06,1.1-.23,1.6-.5,.81-.68,1.58-1.42,2.3-2.2,.42-.27,.9-.44,1.4-.5,.3-.1,.4,.3,.3,.5l-.1,.1Zm-4.6,4.6h0c.2,.2,.6,.5,.5,.9s-.7-.6-1-.9c-.07-.08-.11-.19-.1-.3l.6,.3Zm6.9,.4h0c-.17,.49-.41,.97-.7,1.4l-.5,.5c.31-.7,.67-1.37,1.1-2l.1,.1Zm-4.3,2.9h0c-.41,.51-.92,.92-1.5,1.2l.9-.8,.6-.4h0Zm-1.1,3.5h0c-.2,.3-.3,.7-.7,.8,.06-.38,.33-.69,.7-.8Zm10.3,1.9h0c0,.2-.1,.5-.1,.8-.12,.83-.51,1.6-1.1,2.2,.1-.15,.13-.33,.1-.5,.1-.4,.4-.8,.5-1.2,.18-.42,.31-.85,.4-1.3h.2Zm-2.4,4.2h0l-1.8,.4c-.51,.2-1.05,.3-1.6,.3,.22-.27,.55-.42,.9-.4l2.5-.4v.1Zm-4.9,1.1h0v.3h-1.4v-.3h1.4Z" fill="#23ff03"/><path d="M47.9,279.4c-.5-.82-.9-1.69-1.2-2.6-.1,.2-.1,.5-.2,.7s.3,.8,.4,1.1,1.2,2.2,1.6,3.4c.09,.51,.22,1.01,.4,1.5,.1,.6,.1,1.2,.2,1.7h.2c.1-.6,0-1.2,.1-1.7,0-.93-.2-1.86-.6-2.7-.2-.6-.7-.9-.9-1.4Z" fill="#23ff03"/><path d="M23.4,279.1c-1.22-.43-2.5-.67-3.8-.7-.51,.13-.99,.37-1.4,.7-.73,.41-1.4,.91-2,1.5-.39,.39-.72,.83-1,1.3l-.5,1.2c-.31,.63-.31,1.37,0,2,.07-.82,.24-1.62,.5-2.4,.3-.4,.5-.8,1-.9-.4,.51-.7,1.09-.9,1.7l1-1q0,.1,.1,.1h0c-.16,.52-.23,1.06-.2,1.6,.1-.36,.27-.7,.5-1v1.6c.1,.1,0,.3,.2,.4h.4c-.19-.48-.19-1.02,0-1.5,.24,.54,.37,1.11,.4,1.7,.09-.41,.22-.82,.4-1.2l.3-.2v1.6c.3-.3,.3-.8,.4-1.2h.1c0,.58,.1,1.16,.3,1.7h.1l.3-1.9,.2-.3c.1,.5,.1,1,0,1.5,.22-.36,.36-.77,.4-1.2,.06-.47,.23-.91,.5-1.3h.2c-.21,.65-.31,1.32-.3,2,.2,0,.3,0,.3-.2,.09-.51,.22-1.01,.4-1.5,.07,.08,.11,.19,.1,.3,.1,.4,.1,.9,.2,1.3s0-.1,.1-.1h0c-.03-.61,.03-1.22,.2-1.8h.2c.1,.3,.1,.6,.2,1,.21-.48,.38-.99,.5-1.5,0-.2,.1-.5,.1-.7h.1c.2,.48,.3,.99,.3,1.5l.2-.2c-.02-.6,.02-1.2,.1-1.8,.17,.18,.3,.38,.4,.6,.28,.36,.48,.76,.6,1.2h.2c0-.2-.1-.4-.1-.6h.2c.26,.47,.43,.97,.5,1.5h.2v-1.2c.21,.38,.38,.78,.5,1.2h.2c.1-.65,0-1.31-.3-1.9-.3-.69-.71-1.33-1.2-1.9-.1-.2-.3-.3-.5-.5l-.9-.5Z" fill="#23ff03"/><path d="M41.2,282.6h-.9c.27,.95,.44,1.92,.5,2.9,.1,1-.1,2,.1,3s0,.6,.3,.8c.32,.38,.69,.72,1.1,1,.13-.73,.17-1.47,.1-2.2,.27,.81,.33,1.66,.2,2.5l.4,.5c.08-.83,.12-1.67,.1-2.5l-.3-1.6c-.08-.43-.12-.86-.1-1.3-.02-.34-.09-.68-.2-1h.2l.9,1.6c.41,1.02,1.4,1.7,2.5,1.7h1.9c0-.7,.3-1.4,.3-2.1-.41-.36-.88-.63-1.4-.8l-3.9-1.7,.3,.7c-.61-.61-1.32-1.12-2.1-1.5Zm4.7,2.7h0l1,.5c.3,.2,.8,.4,.8,.9l-.9-.5-1-.6c-.1-.1-.2-.1-.2-.2,.04-.1,.15-.16,.25-.12,.02,0,.03,.01,.05,.02h0Z" fill="#23ff03"/><path d="M52.9,284.6h-.2c0,.3,.1,.5-.1,.8s-.5,.3-.8,.4h-1.7l-1.1-.4-.3-.4c-.1,0-.2,0-.2,.1,0,.39,.1,.77,.3,1.1-.3,.2-.3,.6-.4,.9-.08,.19-.11,.39-.1,.6l.9,.7c-.06-.4-.03-.81,.1-1.2,0-.1,.1-.2,.1-.4-.17-.18-.3-.38-.4-.6,.7,.1,1.4,.1,2.1,0h.5l-.3,.5c.1,.6,.1,1.2,0,1.8,.35,.09,.71,.01,1-.2,0-.5,.1-1.1,.1-1.6s.5-.9,.6-1.5,.1-.4-.1-.6h0Z" fill="#23ff03"/><path d="M26.8,284.5c-.6,0-1,.5-1.6,.6s-.4,.5-.3,.7c0,.11,.03,.22,.1,.3,.2,0,.3-.1,.3-.2l.2-.5,.6-.4c.2-.2,.6,.1,.6,.4-.02,.31-.09,.61-.2,.9l-.6-.4c-.2,0-.4,.3-.5,.4l-.3,.6c-.1,.2-.2-.6-.5-.5-.08,.07-.09,.2-.02,.28l.02,.02h0c.2,.44,.31,.92,.3,1.4l-1.2-.7c-.4-.2-.8,.1-1.1,.3-.39-.24-.84-.38-1.3-.4-.21,.46-.51,.87-.9,1.2-.28,.41-.62,.78-1,1.1l-1,.5c.47,.21,.9,.48,1.3,.8l.7,.2c-.1-.2-.1-.4-.2-.6s.4,.3,.5,.6,1-1.2,1.8-1.3l-.8,.9,.7-.4c.2-.1,.4-.3,.6-.1s0,.2-.1,.2l-1,.7,.2,.2-.3,.4-.7-.4c-.1-.1-.3,.1-.4,.2l.7,.7c.12,.15,.33,.19,.5,.1l.5-.7-.2-.5c.1-.1,.3,0,.4,.1,.23,.2,.57,.2,.8,0,.41-.16,.86-.23,1.3-.2-.2,.2-.5,.2-.8,.3s-.5,.2-.4,.5l.7-.4c.02,.21-.1,.41-.3,.5l.2,.2,.9-.5c.35-.32,.59-.74,.7-1.2,.29-.46,.49-.97,.6-1.5,.14-.77,.07-1.56-.2-2.3q0-.1,.1-.2h.6c.1,0,.1-.3,.1-.4,.16-.49,.13-1.03-.1-1.5h0Zm-4.2,4.6h0c.4,0,.9-.3,1.3,0,.19,.23,.33,.51,.4,.8l-.5-.2-.2-.5-1.1,.2c-.34-.2-.59-.52-.7-.9,.4,0,.5,.4,.8,.6Z" fill="#23ff03"/><path d="M57.8,285h-.4l-.2,.5c.2,0,.4,.1,.3,.3h-1.1c-.52,.58-1.09,1.12-1.7,1.6,.1,.4,.3,.7,.4,1.1s0,.1-.1,.1h0c-.28-.22-.52-.49-.7-.8h-.6l-1-.4v.3l.8,.3,.6,.4c.2,0,.5,.1,.4,.4s-.4,.3-.5,.5-.3,.3-.2,.5l1.1,1.5h.6c.2,.1,.4-.1,.4-.3,.02-.31,.09-.61,.2-.9,.03-.61-.03-1.22-.2-1.8h.5c.11-.3,.32-.55,.6-.7l.7-.5c.1-.3-.2-.7-.1-1s.4-.3,.3-.6,0-.3-.1-.4v-.1Z" fill="#23ff03"/><path d="M14.8,286.8c-.5,.4-.5,1.2-1,1.6-.28,.3-.42,.69-.4,1.1-.1,.5-.1,1,0,1.5l.3,2.2,.9,2.6c.17,.23,.24,.52,.2,.8-.29-.51-.53-1.04-.7-1.6,.1,1.1,.1,2.1,.3,3.2l.3,1.6c.09,.35,.22,.69,.4,1,.2,.6,.5,1.1,.7,1.7s.7,1.1,.8,1.7h-.1c0-.3-.3-.5-.4-.7l-.6-1c.02,.17-.02,.35-.1,.5-.1,.1-.3,.2-.3,.4-.07,.47-.03,.95,.1,1.4,.3,.52,.51,1.1,.6,1.7l.6,1.2,.9,2.8c.29,.62,.63,1.22,1,1.8,.17,.55,.44,1.06,.8,1.5-.04-.52-.17-1.03-.4-1.5-.1-.7-.4-1.4-.5-2.1,.31,.58,.58,1.18,.8,1.8,.3,.6,.51,1.24,.6,1.9l1.3-.4c-.1-.3-.1-.5-.2-.8l-.3-1.6c-.23-1.16-.56-2.3-1-3.4-.2-.5-.2-1.1-.4-1.6l-.3,.2c-.2-.1-.2-.2-.1-.4s.3-1.3,.5-1.9c.03-.15,.1-.29,.2-.4,.2,.4,.2,.8,.4,1.2,.29,.51,.53,1.04,.7,1.6,.1,.5-.1,1.1,.1,1.6s.3,1.9,.5,2.8c.07,.62,.24,1.23,.5,1.8,.1,.2,.1,.5,.2,.7h.1c-.26-.91-.43-1.85-.5-2.8-.2-1-.3-2-.5-3s-.2-1.3-.4-2c0-.39-.1-.77-.3-1.1-.29-.48-.42-1.04-.4-1.6,0-.5,.3-1.1,.3-1.6,.01-1.92-.22-3.84-.7-5.7-.2,.29-.31,.64-.3,1,.18,.93,.32,1.86,.4,2.8,.07,.73,.03,1.47-.1,2.2,0,.4-.1,.7-.1,1.1l-.6,1.2c-.2-.4,0-.8,.1-1.2,.08-.53,.12-1.06,.1-1.6-.1-1.3-.3-2.6-.5-3.9l-.4,.4c.43-1.27,1.07-2.45,1.9-3.5,.1-.2,.4-.2,.6-.2,.94,0,1.88,.1,2.8,.3l1.4,.2,1.4,.2c-.77-.36-1.57-.62-2.4-.8l-2.9-.4c-.4,0-.9,0-1.1,.3l-1.1,1.1c-.1,.22-.23,.42-.4,.6l-1.2,1.4-.9,1c0-.4,.1-.8,.1-1.2,0-.27,.1-.52,.3-.7,.2-.2,.6-1.1,1-1.7,.21-.38,.38-.78,.5-1.2l.4-.9c.1-.33,.1-.67,0-1-.1-.4-.6-.5-.9-.8l-1.8-1.6c-.37-.55-.64-1.16-.8-1.8h0Zm-.7,4h0c.07,1.35,.41,2.68,1,3.9l.3,.7c.1,.2,0,.3-.1,.5l-.4-.8c-.37-.73-.64-1.5-.8-2.3-.13-.66-.17-1.33-.1-2h.1Zm1.2,.4h0c.03,.57-.04,1.15-.2,1.7-.1-.29-.1-.61,0-.9-.04-.28,.03-.57,.2-.8h0Zm2.4,13.1h0c.2,.1,.5,.3,.5,.6-.38-.1-.73-.31-1-.6v-.2l.5,.2Z" fill="#23ff03"/><path d="M53.2,288.8l-.5-.6c-.08,.26-.12,.53-.1,.8-.47,.23-.98,.36-1.5,.4l.6,.7c.26-.1,.54-.1,.8,0,.2,.18,.31,.43,.3,.7,.08,.63,.12,1.27,.1,1.9l-.4,.4c.3,0,.7-.1,.8-.4,.12-.83,.08-1.68-.1-2.5-.1-.5-.7-1,0-1.4Z" fill="#23ff03"/><path d="M48,288.5c-.3,.1-.3,.4-.5,.6-.27,.48-.51,.98-.7,1.5-.21,.25-.28,.59-.2,.9,.2,.28,.48,.49,.8,.6h.2q0-.1-.1-.1h0c-.1-.3-.4-.5-.3-.9l.6,.5c.2-.3,.6-.6,.5-1.1-.2-.65-.3-1.32-.3-2Z" fill="#23ff03"/><path d="M47.5,288.5c-.85,.22-1.73,.29-2.6,.2h-1.1c.49,.45,1.14,.67,1.8,.6,.5,.12,1.02,.08,1.5-.1,.2-.1,.2-.4,.4-.6v-.1Z" fill="#23ff03"/><path d="M49.2,289.2l-.5-.2c0,.6,.2,1.2,.2,1.8s-.6,.7-.6,1.1-.2,.3-.1,.5c.08,.29,.12,.6,.1,.9,0,.3,.8-.4,.8-.8,.2-.29,.31-.64,.3-1-.1-.8-.1-1.6-.2-2.3Z" fill="#23ff03"/><path d="M47.6,292.6c-.1,0-.4-.1-.4,.1,.02,.28,.09,.55,.2,.8h.6c-.17-.28-.31-.58-.4-.9Z" fill="#23ff03"/><path d="M65.7,294.2c-.38-.04-.76,.03-1.1,.2-.3,.2-.7,0-1,.2-.51,.1-.98,.39-1.3,.8l-.5,.7-1.2,.6h.8c.2,.1,.3,.3,.4,.4l.8,.2c.18-.31,.42-.58,.7-.8l-.4,1,.3,.4,.5-1c.2-.2,.2-.6,.5-.8h.5c.2-.1,.2-.3,.4-.5v.4l.4-.2c-.1-.1-.1-.3-.2-.4l-1.3,.4c.02-.21,.09-.42,.2-.6h.6l.3-.4c.1,0,.1,.2,.1,.3l.5-.2v-.7Z" fill="#23ff03"/><path d="M23.7,294.9c-.1-.2-.3-.3-.4-.4,0,.64,.1,1.29,.3,1.9h-.3c-.18-.31-.31-.65-.4-1l-1,.6c-.1,.2-.4,.2-.5,.5,0,.64,.1,1.29,.3,1.9h-.2c-.36-.6-.54-1.3-.5-2-.3,.2-.7,.4-.8,.8v1c.12,.76,.18,1.53,.2,2.3,.4,.3,.6,.9,1.1,1.1,.16,.16,.23,.38,.2,.6l-1.2-.4c0,.1-.1,.4,.1,.5l1.1,.5c.2,.1,.5-.1,.7-.3-.05-.33-.19-.64-.4-.9-.1-.2-.2-.5,0-.6s.3,.1,.4,.2l1.3,.7c.28,.3,.71,.41,1.1,.3l.7-.2-3-1.6c-.58-.28-1.09-.69-1.5-1.2h.2c.4,.11,.76,.36,1,.7,.37,.45,.85,.8,1.4,1,1.1,.53,2.29,.87,3.5,1-.2-.3-.5-.3-.7-.4l-1.8-.5-.7-.4,2.5,.7,.6,.2,2.3,1.1,2.1,1,1.4,.3,1.8,.2,.8,.2c-.73,.12-1.48,.08-2.2-.1l1.3,.7,2.6,1.3c.63,.3,1.31,.51,2,.6h-.1c-.75-.06-1.49-.23-2.2-.5l-2.6-1.1-1-.3c.63,.71,1.33,1.35,2.1,1.9l.2,.4c1.1,.3,2.2,.3,3.3,.6l1.5,.2c.5-.3,.8-.8,1.3-1.1,.02-.3-.02-.61-.1-.9-.3,0-.6,.4-1,.2s.8-.6,1-1v-.8c0-.2,.2-.3,.3-.4,.39-.1,.81-.1,1.2,0,0-1.1,.1-2.1,.2-3.2s-.2,.3-.2,.5c-.11,.49-.28,.96-.5,1.4h-.3l.3-1.1c-.4,.2-.7,.6-1.1,.7l-.2-.3c.31-.41,.72-.72,1.2-.9,.3-.1,.3-.4,.5-.6,.3-.73,.4-1.52,.3-2.3-.4,.2-.5,.5-.8,.8h-.3c.1-.5,.6-.7,.8-1.1,.47-.9,.54-1.95,.2-2.9,0,.74-.1,1.48-.3,2.2-.23,.61-.76,1.07-1.4,1.2-.5,.1-.8,.4-1.2,.5l-2.7,1.3c-1.26,.56-2.62,.84-4,.8-.56-.1-1.14-.1-1.7,0-.3,0-.6,.1-.9-.1l-2.3-1.1c-.82-.45-1.56-1.03-2.2-1.7-.47-.63-1.04-1.17-1.7-1.6-.08,.19-.11,.39-.1,.6,0,.1-.1,.1-.1,.2-.31-.33-.52-.75-.6-1.2-.1-.4-.1-.9-.2-1.3v.1Zm-.9,2.8h0c.2,.42,.43,.82,.7,1.2-.47-.08-.88-.37-1.1-.8-.2-.51-.2-1.09,0-1.6,.18,.38,.31,.79,.4,1.2h0Zm.9-.3h0l.9,.5,2.2,1.6,1.7,1.4c.98,.5,1.84,1.22,2.5,2.1-.73-.49-1.5-.93-2.3-1.3-.9-.5-1.7-1.3-2.6-1.9l-2.3-1.9c-.1-.1-.3-.1-.4-.3s.2-.3,.3-.2h0Zm19,2h0c-.07,.26-.21,.5-.4,.7-.1,.3-.2,.6-.6,.6h0l.8-1.3h.2Zm-1.9,.5h0c0,.1-.1,.3-.2,.3l-2,1-.8,.4c-1.21,.34-2.45,.57-3.7,.7l2.3-.6c.4-.2,1-.2,1.3-.6h-1.3l1.3-.5,2.4-.7h.7Zm-7.9,2.9h0l-1.2-.4c-.3-.1-.8-.2-.9-.6,.83-.07,1.63,.31,2.1,1Zm5.9-.4h1.1v.2c-.32,.22-.72,.29-1.1,.2-.2,.1-.3-.1-.5-.3s.3-.2,.5-.1h0Zm-2.2,.9h0l1.5,.4h2.3v.2c-.09,.2-.29,.32-.5,.3-1.03,.17-2.08,.13-3.1-.1l-1.2-.6-1.3-.4c.75-.1,1.51,0,2.2,.3l.1-.1Z" fill="#23ff03"/><path d="M42.6,294.6l-.3,.3c-.3,.72-.71,1.39-1.2,2l-.9,.9c-.43,.6-1.08,.99-1.8,1.1-1.14,.4-2.31,.71-3.5,.9l-2.5,.2c-.78,.1-1.57,0-2.3-.3-.56-.18-1.08-.49-1.5-.9l-1.4-1.3c-.42-.52-.88-.98-1.4-1.4v.5c0,.11,.03,.22,.1,.3l1.3,1.4c1.1,1.13,2.48,1.96,4,2.4v-.3h.6c.81,.21,1.66,.28,2.5,.2,1.62-.2,3.18-.71,4.6-1.5,.6-.4,1.4-.6,2.1-1s1.1-.4,1.3-.9c.35-.82,.45-1.72,.3-2.6h0Z" fill="#23ff03"/><path d="M26.6,295.1l-1.4-.3,1.9,1.4c.64,.67,1.38,1.25,2.2,1.7h.8l-2.4-2-1.1-.9v.1Z" fill="#23ff03"/><path d="M12.8,295c-.58-.22-1.23,.04-1.5,.6,.51-.2,1.05-.3,1.6-.3,0-.11-.03-.22-.1-.3h0Z" fill="#23ff03"/><path d="M12.5,295.7c-.44-.03-.89,.04-1.3,.2-.07,.34-.03,.68,.1,1l1.5-.7-.3-.5Z" fill="#23ff03"/><path d="M65.3,296.2c-.38-.02-.74,.13-1,.4-.08,.19-.11,.39-.1,.6,.1-.2,.3-.3,.4-.4l.3-.3c.1-.1,.4,0,.4-.3h0Z" fill="#23ff03"/><path d="M10.8,296.5c-.21,.4-.28,.86-.2,1.3,.1,.5,.4,.8,.5,1.3s.4,.2,.5,.3c.02-.5-.12-.99-.4-1.4-.1-.5-.3-1-.4-1.5h0Z" fill="#23ff03"/><path d="M13,297c-.18-.2-.43-.31-.7-.3l-1,.4c.1,.1,.1,.2,.1,.4l.4,.5,.9-.5c.2-.09,.32-.29,.3-.5Z" fill="#23ff03"/><path d="M60.5,297c-.74-.27-1.53-.34-2.3-.2l-2.1,.6c-.8,.2-1.5,.7-2.3,.9,.27,0,.52,.1,.7,.3h-.8l-1.6-.2-1,.2-1.7,.2c-.1,.63-.1,1.27,0,1.9,.1,.6,.1,1.3,.2,1.9l.4,.9,2.3-.4,2.6-.3c.78-.03,1.56-.16,2.3-.4l1.6-.3c.4-.2,.8-.3,1-.7,.16-.16,.23-.38,.2-.6-.1-.2-.2-.3-.4-.3l-.6-.4c-.97,.07-1.94,.03-2.9-.1l.9-.3,1.2-.2c.6-.13,1.18-.37,1.7-.7,.3-.2,.5-.6,.9-.6l-1,1.2-.3,.4,1.1,.6c.6,.1,1.2-.2,1.8-.1-.18,.31-.42,.58-.7,.8l-.8,.4c-.27,.11-.51,.28-.7,.5l-1,.6c.08,.12,.11,.26,.1,.4-.97,.39-1.97,.69-3,.9-1,.5-2,.7-2.9,1.1l-2.1,.8,.4,.6c.2,.1,.3,0,.5-.1l1.2-.5,2.6-1.1c.77-.36,1.57-.62,2.4-.8,.68-.2,1.32-.5,1.9-.9,.6-.42,1.14-.92,1.6-1.5,.11-.32,.32-.6,.6-.8,.43-.38,.68-.93,.7-1.5-.1-.5-.1-1.1-.5-1.4l-.9-.5-1.3-.3Z" fill="#23ff03"/><path d="M65.1,297.2h-.5l-.4,.6c.4-.1,.8-.2,.9-.6Z" fill="#23ff03"/><path d="M44.7,297.8c-.39-.14-.74-.38-1-.7-.08,.43-.12,.86-.1,1.3h1.6c.77-.03,1.55,.03,2.3,.2-.23,.3-.4,.64-.5,1l1.1-.7,.3-.4h.2c-.07,1.07-.03,2.14,.1,3.2,.1,.4,.1,.9,.2,1.3h.3c.1-.29,.1-.61,0-.9-.17-.69-.23-1.39-.2-2.1,.07-.67,.03-1.34-.1-2h-1.7l-3.4-.2v-.2l.9,.2Z" fill="#23ff03"/><path d="M13,297.8c-.4-.2-.8,.1-1.1,.3l.5,.7,.6-.5v-.5Z" fill="#23ff03"/><path d="M64.7,297.9h-.2c-.11,.27-.28,.51-.5,.7,.32-.12,.58-.38,.7-.7Z" fill="#23ff03"/><path d="M13.7,299.1c-.41,.12-.74,.41-.9,.8l1-.3c.03-.17,0-.35-.1-.5Z" fill="#23ff03"/><path d="M11.1,299.9c-.2-.1-.3-.4-.4-.6-.11,.25-.18,.52-.2,.8-.11,.33,.01,.7,.3,.9l1.1,.2c-.4-.3-.9-.3-1.2-.7,0-.11-.03-.22-.1-.3l1.2,.5,.7-.2c-.53,0-1.03-.22-1.4-.6h0Z" fill="#23ff03"/><path d="M46.4,299.9l-.8,.6v.8c.39-.38,.67-.87,.8-1.4Z" fill="#23ff03"/><path d="M14.4,300c-.2-.1-.3,0-.4,.1l-.6,.2-.3,.7c.12,.51,.29,1.02,.5,1.5-.02,.47,.02,.94,.1,1.4l.9,.9c0-1.1,.4-2.2,.3-3.4-.11-.49-.27-.96-.5-1.4h0Z" fill="#23ff03"/><path d="M10.4,301.1c-.2-.2-.2-.5-.3-.7-.29,.54-.53,1.11-.7,1.7-.11,.32-.18,.66-.2,1,.2-.3,.4-.7,.7-.8s-.6,.8-.8,1.3v1.7c.06,.66,.23,1.3,.5,1.9,.11,.21,.29,.39,.5,.5l.9,.6c0-.2,0-.3,.1-.4h.2l.6,2.4c.19,.34,.33,.71,.4,1.1,.1,.5,.6,.7,.9,.9l.9,.4c.1,0,.3-.1,.2-.2s-.2-.3-.4-.4-.9-.3-1.1-.7c-.39-.76-.69-1.57-.9-2.4h.4c.29,.72,.63,1.42,1,2.1,.1,.1,.2,.4,.4,.3,.72-.2,1.46-.3,2.2-.3h.9l.5,.2c-.5-1.1-.8-2.4-1.3-3.6s-.4-.5-.6-.7h-1.9c-.32-.07-.6-.25-.8-.5,.66,.1,1.34,.1,2,0-.02-.34-.09-.68-.2-1-.25-.35-.55-.65-.9-.9-.23-.17-.52-.24-.8-.2l-1.3,.4c-.3,.1-.5,.4-.7,.6,.07-.08,.11-.19,.1-.3-.57,.09-1.11,.3-1.6,.6-.08-.07-.09-.2-.02-.28l.02-.02h0l.4-.4,1.8-1.6c.1-.2,.3-.3,.2-.5,.1-.46,.1-.94,0-1.4l-1.3-.4h0Zm.7,5.8h0c.2,.2,.6,.4,.6,.8s-.2,.2-.3,.1c-.44-.33-.81-.73-1.1-1.2h0l.8,.4v-.1Zm3.1,.8h0c-.51,.2-1.09,.2-1.6,0,.12-.15,.33-.19,.5-.1l1.1,.1Z" fill="#23ff03"/><path d="M12.9,301.1l-.5,.3c.12,.69,.18,1.4,.2,2.1,.2,0,.4,.3,.6,.1,.1-.15,.13-.33,.1-.5,.01-.21-.02-.41-.1-.6l-.3-1.4Z" fill="#23ff03"/><path d="M45.8,302.8c-.2,0-.6,.1-.7,.4l-.4,.9c-.2,.3,0,.7-.2,1.1-.17,.25-.31,.51-.4,.8-.18,.19-.25,.45-.2,.7,.1,.6,0,1.2,.1,1.8h.5v-2c.07-.29,.21-.57,.4-.8h.1c.1,.3,.1,.6,.2,.9l.5,.2c.56,.21,1.1,.47,1.6,.8l1-.7c-.63-.58-1.38-1.03-2.2-1.3l-.4-.3c-.1-.2-.2-.5,0-.7,.47,.06,.91,.23,1.3,.5,.58,.16,1.12,.44,1.6,.8l.5,.6c.07,.08,.11,.19,.1,.3-.13,.32-.3,.62-.5,.9l-.3,.7-1,1.1c.08,.12,.11,.26,.1,.4,.11,.55,0,1.12-.3,1.6,.02,.28,.09,.55,.2,.8,.23-.71,.36-1.45,.4-2.2v-.7c.2-.1,.5-.1,.6-.4,.47-.68,.9-1.38,1.3-2.1,.06-.24,.03-.49-.1-.7-.1-.1-.1-.3-.3-.3s-1-.7-1.5-.9-.8-.7-1.3-.6c-.3,.01-.58-.1-.8-.3h-.8c.29-.2,.64-.31,1-.3,.02-.34-.02-.67-.1-1h0Z" fill="#23ff03"/><path d="M47.5,303.1c-.42-.13-.86-.17-1.3-.1v1l.3-.6h.2c0,.2-.1,.3-.1,.5l.9,.4v-1.2Z" fill="#23ff03"/><path d="M28.4,303.7c-.52-.16-1.06-.23-1.6-.2l-2.3,.4c-.72,.04-1.42,.17-2.1,.4,.48,.2,.99,.3,1.5,.3,.37,.03,.72,.17,1,.4,.31,.2,.49,.54,.5,.9h-.2l-.6-.8-.4-.2-2.3-.3c-.28-.23-.68-.27-1-.1-.07,0-.17,.1-.3,.3,.4-.1,.9-.3,1.3,0l-1.1,.2c.32,1,.49,2.05,.5,3.1,.1,.5,.1,.9,.2,1.4h.6c0,.3-.3,.5-.5,.6s.5,2.1,.6,3.1,.5,.1,.7,.3c.18,.49,.31,.99,.4,1.5l.5,.9,.4,.3,1.3,.5c.21-.02,.41,.1,.5,.3,0,.2,.1,.5,.1,.7s.3,.1,.4,.3l.3,1.7c.08,.65,.32,1.27,.7,1.8,.23,.54,.66,.97,1.2,1.2,.2,.2,.5,.1,.8,.2l1.2,.2c.45,.13,.93,.17,1.4,.1l-1-.5v-.2l1.8,.5h1.4l.9,.3,1.4,.6c.9,.07,1.81,.03,2.7-.1,.3-.2,.6-.6,.9-.4,.44,.19,.93,.22,1.4,.1,.7-.28,1.32-.73,1.8-1.3-.12,.42-.29,.82-.5,1.2-.2,.28-.48,.49-.8,.6l-1.1,.7c-.3,.2-.7,0-1.1-.1-.41-.18-.87-.21-1.3-.1h-1.5c-1.02-.26-2.05-.43-3.1-.5l-3.3,.3c-.54,.03-1.08-.04-1.6-.2-.27,0-.52-.1-.7-.3l-1.5-1.1h-.8c.46,.49,1,.89,1.6,1.2l.6,.5,1.3,.4c.65,.18,1.33,.22,2,.1,.3,0,.4-.2,.7-.3,.53-.27,1.11-.44,1.7-.5,0,.1,0,.2,.1,.2l-.8,.4,1.8,.4,2,.3c.9,.1,1.8-.5,2.8-.5s.3,.2,.5,.3h1c.26,.1,.54,.1,.8,0,.5,0,.8-.4,1.2-.5,.42-.4,.7-.93,.8-1.5,.09-.69,.3-1.37,.6-2,.4-1.2,.5-2.3,.9-3.5l.3-1.8c-.3,1.26-.77,2.47-1.4,3.6l.3-1.6c.3-.84,.51-1.71,.6-2.6,.13-.83,.17-1.67,.1-2.5,0-.2,0-.5-.1-.6l-.4-.2-.9-.3h-.7c-.3,.8-.7,1.6-1,2.5s-1.1,1.9-1.5,2.9c-.36,.67-.54,1.43-.5,2.2h1.6c-.26,.27-.62,.42-1,.4-.67,.04-1.33-.14-1.9-.5l-.9-.4c-.7-.31-1.44-.51-2.2-.6h-1.4l-.7,.2c-.12-.15-.33-.19-.5-.1,.5,.58,.87,1.26,1.1,2l-.2,.2c-.4-.5-.6-1-1-1.5-.63-.88-1.45-1.6-2.4-2.1l-1-.7c-.32-.11-.6-.32-.8-.6,.19-.11,.41-.11,.6,0,.41,.1,.79,.31,1.1,.6-.06-.66-.23-1.3-.5-1.9-.18-.52-.31-1.06-.4-1.6,.39,.6,.73,1.24,1,1.9,.08-1.14,.02-2.28-.2-3.4-.11-1-.38-1.98-.8-2.9-.32-.38-.69-.72-1.1-1-.3-.3-.5-.7-.9-.9h-.8v-.3c0-.1,.8,.1,1,.3,.46,.25,.87,.59,1.2,1,.47,.35,.82,.84,1,1.4,.28,.79,.51,1.59,.7,2.4,.2,1.3,.5,2.7,.8,4,.09,.6,.3,1.18,.6,1.7h.1l.6-1.2c.2-.61,.3-1.26,.3-1.9,.1-1.1,0-2.2,.2-3.3,.02-.5-.02-1-.1-1.5-.2-.4-.5-.7-.5-1.1-.12-.64-.29-1.28-.5-1.9-.44-.62-1.03-1.14-1.7-1.5-.4-.3-.8-.2-1.2-.4l-1.4-.8,.1,.4Zm.3,1.1h0l-.8,.3c.19-.25,.5-.36,.8-.3Zm1,.3h0c-.33,.29-.7,.53-1.1,.7,.3-.32,.68-.56,1.1-.7Zm-1,1.4h0c-.2-.1-.2-.4-.2-.6,.11,.18,.18,.39,.2,.6Zm-2.7,.2h0l-.6,.6c-.5,.3-.9,.7-1.4,.7,.51-.63,1.21-1.09,2-1.3h0Zm7,2.2h0l-.4-.5c-.23-.34-.39-.71-.5-1.1,.39,.47,.7,1.02,.9,1.6Zm-.8-.1h0l-1-.3h.1c.3,.1,.7,.1,.9,.4v-.1Zm-3.3-.2h0l.6,.8c.1,.2,.1,.3,0,.4l-.6,.5c-.2,.1-.3-.2-.5-.3s.6,0,.6-.3-.3-.6-.4-.9l.3-.2Zm-5.2,2.6h0c.1,.2,.1,.5,.2,.8,.11,.3,.28,.57,.5,.8l.8,1.4c.32,.43,.59,.9,.8,1.4,.1,.3-.1,.5-.2,.7s-.4,.2-.4,0c-.4-.72-.83-1.42-1.3-2.1l-.4-.3c-.27-.53-.44-1.11-.5-1.7-.1-.39-.1-.81,0-1.2,.2,0,.4,0,.5,.2h0Zm19.1,4.1h0c0,.55-.1,1.09-.3,1.6l-.9,1.6c.03-.59,.16-1.16,.4-1.7,.1-.3,.4-.5,.5-.9,.09-.41,.22-.82,.4-1.2,.01,.21-.02,.41-.1,.6Zm-15,1.6h0c.3,.1,.7,.2,.8,.6l-1.2-.4c-.2-.1-.4-.1-.5-.3s.6,.1,.9,.1h0Zm-.1,.6h0c.4,.1,.9,0,1.2,.3l-2.4-.2h1.2v-.1Zm5.2,2.2h0c.41,.42,.72,.94,.9,1.5l.6,1.4-.5-.7c-.17-.37-.41-.71-.7-1l-1.7-2.5c.51,.38,.98,.82,1.4,1.3h0Zm6.5,.6h0c.2,.07,.3,.17,.3,.3-.57-.1-1.09-.38-1.5-.8l1.2,.5Zm-8.9,1.9h0c-.38-.1-.73-.31-1-.6h0c.4,.1,1,.2,1,.7v-.1Zm10.4-.1h0c-.5,.61-1.22,1-2,1.1-.62,.1-1.25,0-1.8-.3h.8c.89-.13,1.76-.36,2.6-.7h.4v-.1Z" fill="#23ff03"/><path d="M48.6,303.8c-.2-.2-.5-.1-.7-.2,.01,.21-.02,.41-.1,.6h.3c.01,.21-.02,.41-.1,.6,.38,.1,.73,.31,1,.6v-.9c-.01-.26-.17-.49-.4-.6v-.1Z" fill="#23ff03"/><path d="M44.4,304.2l-.6,.5c-.01,.21,.02,.41,.1,.6l.4-.5c.08-.19,.11-.39,.1-.6Z" fill="#23ff03"/><path d="M42.6,304.3c-.3-.01-.58,.1-.8,.3,.08,.63,.12,1.27,.1,1.9,.1,.46,.1,.94,0,1.4,.02,.21-.1,.41-.3,.5l-.9,.8-1.6,.2c-1.15,.05-2.3-.23-3.3-.8,.5-.1,.9,.2,1.4,.3,.82,.18,1.67,.22,2.5,.1-.01-.14,.02-.28,.1-.4-1.1-.3-2.3-.4-3.4-.6l-1.5-.4c-.7-.1-1.1-.8-1.6-1.2,.12,.42,.29,.82,.5,1.2,.29,.38,.67,.69,1.1,.9,0,.11-.03,.22-.1,.3,.2,.1,.3,.4,.6,.5,1.39,.26,2.79,.43,4.2,.5-.18,.2-.43,.31-.7,.3h-2.3c.43,.24,.91,.37,1.4,.4h1.6c.73-.21,1.44-.52,2.1-.9,.07-.08,.11-.19,.1-.3,.1-.3,.3-.5,.3-.7,.16-.52,.23-1.06,.2-1.6v-1.6h.5c0,.3-.1,.5-.1,.8,.02,.44,.09,.88,.2,1.3,.12,.66,.18,1.33,.2,2,.2-.58,.3-1.19,.3-1.8,0-.71-.1-1.42-.3-2.1-.1-.5-.4-.9-.5-1.3h0Z" fill="#23ff03"/><path d="M49.9,305.9c.09-.55-.1-1.11-.5-1.5v1l.5,.5Z" fill="#23ff03"/><path d="M52.8,306.4l-.7,.4,.3,.3c.07-.26,.21-.5,.4-.7h0Z" fill="#23ff03"/><path d="M44.3,308.7l-.5,.3c-.21,.69-.38,1.39-.5,2.1-.11,.36-.18,.73-.2,1.1,.2-.2,.3-.6,.6-.6l1.9,.5c.43,.21,.81,.52,1.1,.9l.4,.9,.3-.3c0-.2,0-.5-.2-.6l-1-1.2c-.1-.2-.3-.4-.2-.7,.19-.26,.29-.58,.3-.9,.11-.3,.08-.63-.1-.9-.45-.28-.97-.42-1.5-.4-.18,.73-.45,1.44-.8,2.1v-1.1c.1-.4,.3-.8,.4-1.2h0Z" fill="#23ff03"/><path d="M42.2,309.3c-.07,.29-.21,.57-.4,.8-.08,.33-.12,.66-.1,1l-.3,1.2c-.1,.9-.1,1.8-.2,2.7l-.3,.9-.3,1.1c.39-.53,.73-1.1,1-1.7,.19-.26,.29-.58,.3-.9,.02-.57,.08-1.14,.2-1.7,.1-1.1,.1-2.3,.1-3.4Z" fill="#23ff03"/><path d="M35.8,310.2l-.9-.5c.29,.51,.53,1.04,.7,1.6,.5,1.18,.8,2.43,.9,3.7l-.6-1.8-1.2-2.1c-.16,.27-.23,.59-.2,.9-.12,.73-.18,1.46-.2,2.2,0,1-.1,2,0,3s.3,.7,.4,1.1c.65-.1,1.31,0,1.9,.3,.57,.13,1.16-.02,1.6-.4,.4-.2,.6-.6,.9-1,.4-.62,.7-1.29,.9-2,.27-.5,.44-1.04,.5-1.6,.1-1,.1-2,.1-3l-.7,.2c-.9,.07-1.81,.03-2.7-.1l-1.4-.5h0Zm3.8,3h0c-.02,.46-.16,.91-.4,1.3-.07-.47,.08-.95,.4-1.3Z" fill="#23ff03"/><path d="M17.6,312c-.2-.1-.4-.4-.7-.3l-.4,.4-.5,.4c.29,.07,.57,.21,.8,.4l.6,.8h.3c0,.1,0,.2-.2,.3-.27,.16-.59,.23-.9,.2-.16,0-.31-.07-.4-.2l-.7-1.2-.7,.3,.8,.8c.1,.15,.13,.33,.1,.5h.8v.2l-1.5,.2c-.3,0-.4-.4-.4-.6l.6,.3v-.2l-.6-.6c-.2-.3-.5-.1-.8-.2-.08,.33-.12,.66-.1,1,0,.2-.2,.3-.4,.5s.5,.7,.9,.5l.6-.5,.3,.3,.7,.4c.1,.2,0,.3,0,.5l-.5-.4v.2l-.5-.2c.11,.18,.18,.39,.2,.6l1.2,.5c0,.1-.1,.1-.1,.2s-.7-.5-1.1-.4-.6-.5-.9-.8h-.6c-.02,.34-.09,.68-.2,1-.1-.33-.1-.67,0-1l.4-.2-.5-.5-.8,1c.02-.28,.09-.55,.2-.8h-.6l-.8,1.7c-.18,.38-.31,.79-.4,1.2,.3,.1,.5-.1,.8-.2,.06,.24,.03,.49-.1,.7h.1c.1-.2,.2-.4,.4-.2l.6,.9c.1-.2,.1-.4,.2-.5s.3,.3,.4,.4l.4,.4c0-.2,.1-.5,.3-.4l.5,.5,.5-.4c.3-.3,.5-.8,.8-1.1l.4-.6h.1v.8h1.3l.7-.5c.3,0,.5,.2,.4,.5-.35,.61-.45,1.32-.3,2,.4,.1,.8,.4,1.2,.3l.3-.4c-.08-.73-.12-1.47-.1-2.2-.31-.09-.57-.31-.7-.6,0-.32,.11-.64,.3-.9,.1-.2-.1-.4-.1-.5-.11-.58-.27-1.15-.5-1.7-.06-.2-.02-.43,.1-.6l-.7-1.2-.5-1v.2Zm-.2,.6h0c.2,.2,.5,.4,.5,.7s-.4,0-.4-.1l-.9-.9c-.3-.3,.6,.1,.8,.3Zm.5,1.7h0l-.8,1.2c-.16,.41-.23,.86-.2,1.3-.39-.42-.39-1.08,0-1.5,.29-.4,.53-.84,.7-1.3,.1,.1,.3,.1,.3,.3Zm.7,.5h0c0,.58-.36,1.09-.9,1.3,.21-.49,.51-.93,.9-1.3Zm-5.9,1.8h0c-.18,.31-.42,.58-.7,.8,0-.2,0-.4,.2-.5l.5-.3Zm6.5,2.2h0c.07,.3,.03,.62-.1,.9l.3,.2v.5c-.2,0-.3,.1-.5,0s-.2-.5-.2-.7l.3-.9h.2Z" fill="#23ff03"/><path d="M17,313.9c-.19-.39-.51-.71-.9-.9,.05,.33,.19,.64,.4,.9h.5Z" fill="#23ff03"/><path d="M21.8,313.8c-.66,.06-1.3,.23-1.9,.5l-.8,.5c.27,.79,.61,1.56,1,2.3l.4-.2c.67-.39,1.43-.6,2.2-.6-.21-.52-.38-1.05-.5-1.6-.4,0-.9,.3-1.3,.1,.21-.3,.54-.52,.9-.6v-.4h0Z" fill="#23ff03"/><path d="M13.5,314.2h-.4l-.3,.4h.5c.2-.2,.3-.4,.2-.6v.2Z" fill="#23ff03"/><path d="M23.7,317c-.3-.1-.4-.3-.7-.3l-1.1,.2-1.1,.4v.6l1.5-.5c.17,.15,.28,.37,.3,.6l.3,1.3c0,.3,.2,.5,.2,.8s-.2,.2-.3,.2l-1.2,.5-.9,.3c.1,.3,.1,.6,.4,.7l1.5-.5,1.1-.6,.5-.3v-.3c-.2-.5-.3-.9-.5-1.3-.08-.22-.12-.46-.1-.7,0-.2-.1-.3,0-.5s.1-.4,.2-.6h-.1Z" fill="#23ff03"/><path d="M25.4,317.2l-1-.4c.11,.3,.28,.57,.5,.8h.6c0-.2,.1-.4-.1-.4Z" fill="#23ff03"/><path d="M25.5,319.4c.31-.43,.39-1,.2-1.5l-.4,.6c-.08,.19-.11,.39-.1,.6l.3,.3Z" fill="#23ff03"/><path d="M26.2,319.7l-.6,.2c.13,.34,.33,.65,.6,.9-.12,.14-.19,.32-.2,.5,.11,.18,.18,.39,.2,.6h-.2l-.3-.4-.4,.6c.18,.2,.43,.31,.7,.3,.2-.1,.5-.2,.5-.5,.1-.78,0-1.57-.3-2.3v.1Z" fill="#23ff03"/><path d="M24.9,320.6l-1.7,1-2,.8,.3,.4h.6c0-.2-.3-.4-.1-.5,.2,.28,.48,.49,.8,.6,.3,.1,.5-.1,.7-.2l-.4-.5h.1l.6,.4c.36,0,.71-.1,1-.3-.3-.2-.5-.5-.8-.6s-.1-.1-.1-.2h.3c.3,.1,.6,.4,1,.4,.2-.14,.31-.36,.3-.6l-.6-.7h0Z" fill="#23ff03"/><path d="M25.4,322.8l-.3-.2-.8,.4c.2,.1,.4,.3,.7,.2,.18-.08,.32-.22,.4-.4Z" fill="#23ff03"/><path d="M24,323.3l-.3-.2c-.2,0-.3,.2-.5,.3l.8-.1Z" fill="#23ff03"/></g></g></svg>