<svg width="335" height="335" viewBox="0 0 335 335" fill="none" xmlns="http://www.w3.org/2000/svg">
<g clip-path="url(#clip0_530_4785)">
<mask id="mask0_530_4785" style="mask-type:luminance" maskUnits="userSpaceOnUse" x="0" y="0" width="335" height="335">
<path d="M335 0H0V335H335V0Z" fill="white"/>
</mask>
<g mask="url(#mask0_530_4785)">
<path d="M276.3 109.5C276.585 108.063 276.544 106.581 276.181 105.162C275.817 103.743 275.141 102.423 274.2 101.3L274.5 103C273.404 100.906 271.694 99.196 269.6 98.1001L270.3 99.9001C268.745 97.8173 266.52 96.3339 264 95.7001C264.292 96.0993 264.527 96.5368 264.7 97.0001C263.7 95.8001 261.8 95.9001 260.5 96.6001C259.273 97.5398 258.309 98.7796 257.7 100.2C257.166 101.603 256.424 102.917 255.5 104.1C254.1 101.5 252.3 98.6001 249.3 98.0001C248.259 97.8384 247.193 97.9364 246.199 98.2853C245.205 98.6342 244.312 99.2232 243.6 100C242.172 101.602 241.235 103.581 240.9 105.7C240.6 107.4 240.6 109.4 241.7 110.7C242.8 112 245.5 111.9 246 110.2C246.5 108.5 246.1 109.3 246.5 109C246.731 108.875 246.999 108.836 247.255 108.891C247.512 108.946 247.741 109.091 247.9 109.3C249.4 110.5 249.8 112.6 249.8 114.6C249.8 116.6 249.1 118.4 249.1 120.4C247.4 118.7 245.5 116.9 243.1 116.5C241.852 116.333 240.583 116.47 239.4 116.9C232.4 118.9 227.7 126.1 220.6 127.7C218.6 128.2 216.5 128.2 214.6 128.9C212.7 129.6 210.8 131.2 210.8 133.2C208.101 127.876 204.4 123.122 199.9 119.2C198.547 118.129 197.307 116.923 196.2 115.6C195.3 114.4 194.7 113 193.7 111.9C192.7 110.8 190 109.4 188 108.5C188.273 107.59 188.361 106.634 188.258 105.689C188.155 104.744 187.863 103.83 187.4 103C186.8 101.617 186.098 100.28 185.3 99.0001C184.457 97.9758 183.482 97.0679 182.4 96.3001C174.5 90.3001 166.4 84.3001 157 81.2001C155.227 80.7362 153.539 79.9936 152 79.0001C152.4 76.4001 152.9 73.8001 153.5 71.3001C154.001 68.9936 154.001 66.6066 153.5 64.3001C153.063 62.9145 152.339 61.6368 151.374 60.551C150.409 59.4652 149.225 58.5959 147.9 58.0001C145.188 56.889 142.161 56.8178 139.4 57.8001C139.506 56.2634 139.166 54.7288 138.421 53.3807C137.676 52.0325 136.557 50.9281 135.2 50.2001C133.877 49.4003 132.396 48.8968 130.86 48.7241C129.323 48.5515 127.768 48.7139 126.3 49.2001C123.756 50.1153 121.509 51.7055 119.8 53.8001C116.066 58.0243 113.727 63.2973 113.1 68.9001C111.586 70.7133 109.913 72.3867 108.1 73.9001C105.9 75.5001 103.4 76.6001 101.1 78.0001C98.648 79.2538 96.6535 81.2482 95.3999 83.7001C94.8188 85.342 94.4819 87.0603 94.3999 88.8001C93.6999 98.0001 92.8999 107.2 92.0999 116.4C91.4074 119.832 91.7915 123.395 93.1999 126.6C94.1999 128.9 95.8999 131 96.2999 133.5C96.6999 136 95.4999 139.6 94.2999 142.5C92.3207 147.286 91.0734 152.343 90.5999 157.5C90.3166 161.865 90.3835 166.246 90.7999 170.6L91.6999 185.8C91.7999 189.1 92.4999 193.4 92.6999 197.7C92.8999 202 92.7999 205.8 90.8999 209.2C89.7354 211.114 88.3602 212.892 86.7999 214.5C80.1675 222.29 75.3208 231.438 72.5999 241.3C70.1999 250.6 69.3999 260.8 63.2999 268.1C61.7999 269.9 59.8999 271.5 58.9999 273.6C58.0999 275.7 58.3999 278.8 60.4999 279.9C61.2055 280.171 61.9464 280.34 62.6999 280.4C66.2999 280.8 70.0999 280.6 73.4999 282C76.8999 283.4 77.9999 284.7 80.4999 285.6C82.9999 286.5 87.5999 286.3 91.1999 285.7C94.7999 285.1 96.1999 284.2 96.0999 282C95.9999 279.8 93.8999 279 92.0999 278.4C90.2999 277.8 86.2999 276.3 83.4999 275.1C82.266 274.814 81.1909 274.062 80.4999 273C79.5999 271.5 80.2999 269.5 81.0999 267.9C87.8268 252.88 95.4058 238.256 103.8 224.1C103.493 223.854 103.121 223.704 102.73 223.669C102.339 223.633 101.946 223.714 101.6 223.9C108.485 212.893 113.424 200.783 116.2 188.1C116.1 189.3 117.1 190.7 118.1 192.1C119.1 193.5 122.6 197.5 124.1 200.6C128.8 210 125 221.4 127.5 231.6C127.439 231.481 127.354 231.375 127.251 231.289C127.148 231.203 127.028 231.139 126.9 231.1C126.4 232.2 126.9 233.5 127.3 234.5C129.506 239.684 131.181 245.078 132.3 250.6C133.05 253.645 133.152 256.813 132.6 259.9C131.9 262.8 130.1 265.5 129.8 268.5C129.665 269.106 129.736 269.739 130 270.3C130.253 270.645 130.585 270.924 130.967 271.115C131.35 271.306 131.772 271.404 132.2 271.4C135.2 271.8 138.2 270.8 141.2 270.5C148.1 269.8 155.1 272.7 161.9 271.3C162.525 271.18 163.109 270.905 163.6 270.5C164.4 269.7 164.1 268.3 163.4 267.4C162.534 266.668 161.505 266.153 160.4 265.9C156 264.7 151.4 264.2 147.4 262.1C146.775 261.837 146.249 261.381 145.9 260.8C145.688 260.295 145.619 259.742 145.7 259.2C145.8 251.1 146 243 146.2 234.9C146.466 228.558 146.232 222.205 145.5 215.9C145.4 215.1 145.1 214.1 144.3 214L143.3 215.7C143.882 212.198 144.016 208.636 143.7 205.1C143.201 202.319 142.499 199.579 141.6 196.9C139.9 191.4 138.3 185.8 136.6 180.3C137.6 180 137.7 178.6 137.7 177.6C137.191 166.205 133.406 155.199 126.8 145.9C128.6 141.9 126.6 138.3 125.7 134.9C124.2 129.5 125.4 123.7 126.7 118.3C130.8 119.8 135.2 121.3 139.6 120.9C140.22 120.928 140.827 120.715 141.294 120.304C141.76 119.894 142.049 119.319 142.1 118.7C144 111.5 145.6 104.3 147 97.0001C147.959 96.9229 148.865 96.5263 149.572 95.8736C150.279 95.221 150.746 94.35 150.9 93.4001C157.123 98.2573 162.85 103.717 168 109.7C168.266 110.13 168.647 110.476 169.1 110.7L170.7 111.1C173.1 111.4 175.3 112.7 177.5 113.9C179.02 114.681 180.432 115.655 181.7 116.8C183.219 118.422 184.408 120.324 185.2 122.4C186.587 125.813 187.724 129.322 188.6 132.9V133.4C188.4 134 187.7 134 187.1 134C184.366 133.73 181.608 134.179 179.1 135.3C178.349 135.577 177.675 136.031 177.136 136.622C176.596 137.214 176.207 137.927 176 138.7C175.7 140.3 176.7 141.8 177.2 143.4C177.7 145 177.9 145.6 178.3 146.7C178.503 147.254 178.871 147.732 179.353 148.072C179.835 148.411 180.41 148.596 181 148.6L182.5 148.1C184.6 147.2 187 147.1 189.3 146.7C191.6 146.3 193.9 145.8 195.5 144.1C195.8 148.6 199.6 153.3 200.7 158.7C201.2 161 201.2 163.4 201.5 165.8C202 170.3 203.7 174.7 205.3 179C209.3 189.3 213.3 199.7 217.2 210C217.378 210.317 217.488 210.667 217.522 211.029C217.557 211.391 217.515 211.756 217.4 212.1C217.05 212.572 216.56 212.922 216 213.1C212.6 214.8 210.4 218.3 209.5 222C208.767 225.753 208.531 229.586 208.8 233.4C209.3 232.6 210.2 233.7 210.3 234.5C210.9 238.8 211.5 243 212 247.3C212.5 251.6 213.1 255.6 211.8 259.5C210.5 263.4 209.1 265.5 210.9 267.9C212.7 270.3 214.9 269.8 217.2 269.7L236.4 268.9C238 268.8 240.2 268 239.8 266.4C239.4 264.8 238.7 265.2 237.9 264.9L229.6 261.5C228.698 261.235 227.875 260.754 227.2 260.1C225.9 258.7 226.1 256.6 226.4 254.7C227.497 246.343 228.098 237.928 228.2 229.5C228.2 226.6 228.2 223.5 227 220.8C226.687 220.361 226.513 219.839 226.5 219.3C226.623 218.706 226.899 218.155 227.3 217.7C228.529 216.075 229.42 214.22 229.918 212.245C230.416 210.269 230.512 208.213 230.2 206.2C229.673 205.058 229.206 203.89 228.8 202.7C229.236 199.753 229.47 196.779 229.5 193.8C229.4 187.7 227.8 181.9 225.8 176.2C226.399 173.57 227.521 171.087 229.1 168.9C232.8 164 238.8 161.5 244.5 159.1L260.9 152.5C264.7 151 268.6 149.4 271.4 146.6C272.7 145.3 273.7 143.8 273.6 142.1C273.359 140.34 272.467 138.735 271.1 137.6C269.8 136.4 264.9 132.3 264.6 128.5C264.3 124.7 266.8 122 269.1 119.4C271.4 116.8 275.4 114 276.3 109.5ZM135.1 83.7001C134.934 84.6237 134.867 85.5623 134.9 86.5001C134.9 86.9001 135.1 87.2001 135 87.6001C135 87.7592 134.937 87.9118 134.824 88.0244C134.712 88.1369 134.559 88.2001 134.4 88.2001H134.3L134 88.0001C133.06 87.3595 131.992 86.9295 130.87 86.7397C129.748 86.5498 128.599 86.6046 127.5 86.9001C128.192 86.7157 128.795 86.2901 129.2 85.7001L129.7 85.1001C129.9 84.9001 130.3 84.8001 130.2 84.5001V84.2001C130.2 84.0001 130.5 83.8001 130.7 83.8001H131.5C131.7 83.7001 131.8 83.3001 131.8 83.0001C131.701 82.7083 131.701 82.3919 131.8 82.1001L133.5 82.3001H134.1C134.7 82.1001 134.6 81.3001 134.5 80.7001C134.996 81.6173 135.205 82.6626 135.1 83.7001Z" fill="#1A1A1A"/>
<path opacity="0.95" d="M335 0H0V335H335V0Z" fill="#FFCF34"/>
<path d="M318.5 218.4H13V221.88H318.5V218.4Z" fill="#1A1A1A"/>
<path d="M318.5 241.7H13V245.18H318.5V241.7Z" fill="#1A1A1A"/>
<path d="M18.4002 209.3H7.7002V286.1H18.4002V209.3Z" fill="#EC2227"/>
<path d="M329.3 209.3H318.6V286.1H329.3V209.3Z" fill="#EC2227"/>
<path d="M111.9 212.4H105.6V286.11H111.9V212.4Z" fill="#EC2227"/>
<path d="M243.1 212.4H236.8V286.11H243.1V212.4Z" fill="#EC2227"/>
<path d="M335 248H0V331.95H335V248Z" fill="#1A1A1A"/>
<path d="M328.1 180.4C328.238 179.577 328.203 178.733 327.996 177.924C327.789 177.114 327.416 176.357 326.9 175.7C326.9 176 327 176.4 327 176.7C326.392 175.49 325.41 174.508 324.2 173.9C324.376 174.215 324.51 174.551 324.6 174.9C323.735 173.731 322.502 172.886 321.1 172.5L321.4 173.2C321.069 172.925 320.661 172.758 320.231 172.722C319.802 172.686 319.372 172.783 319 173C318.328 173.584 317.784 174.298 317.4 175.1C317.1 175.884 316.696 176.624 316.2 177.3C315.3 175.8 314.3 174.2 312.6 173.8C311.993 173.711 311.374 173.774 310.798 173.984C310.222 174.193 309.707 174.543 309.3 175C308.505 175.902 307.984 177.012 307.8 178.2C307.653 178.689 307.622 179.206 307.709 179.709C307.795 180.212 307.998 180.689 308.3 181.1C308.9 181.8 310.5 181.8 310.7 180.8C310.9 179.8 310.8 180.3 311 180.1C311.2 179.9 311.6 180.1 311.8 180.3C312.19 180.691 312.49 181.161 312.68 181.679C312.87 182.197 312.945 182.75 312.9 183.3C312.8 184.4 312.5 185.5 312.5 186.6C311.5 185.7 310.5 184.6 309.1 184.4C308.36 184.318 307.612 184.386 306.9 184.6C302.9 185.8 300.2 189.9 296.2 190.8C295.1 191.1 293.9 191.1 292.8 191.5C292.221 191.641 291.699 191.956 291.305 192.403C290.912 192.85 290.665 193.408 290.6 194C289.118 190.928 287.005 188.202 284.4 186C283.603 185.404 282.896 184.697 282.3 183.9C281.7 183.2 281.4 182.4 280.8 181.8C279.865 180.892 278.737 180.208 277.5 179.8C277.7 179.297 277.778 178.753 277.726 178.214C277.673 177.675 277.493 177.156 277.2 176.7L276 174.4C275.532 173.798 274.955 173.29 274.3 172.9C269.8 169.4 265.2 166 259.8 164.2C258.759 163.955 257.775 163.514 256.9 162.9C257.1 161.5 257.5 160 257.8 158.5C258.098 157.217 258.098 155.883 257.8 154.6C257.574 153.797 257.169 153.055 256.615 152.431C256.06 151.808 255.371 151.318 254.6 151C253.83 150.663 253.001 150.48 252.16 150.463C251.319 150.446 250.483 150.594 249.7 150.9C249.756 150.015 249.56 149.132 249.135 148.354C248.711 147.575 248.074 146.933 247.3 146.5C246.553 146.016 245.704 145.709 244.82 145.605C243.935 145.501 243.039 145.602 242.2 145.9C240.77 146.495 239.503 147.421 238.5 148.6C236.4 151.022 235.077 154.018 234.7 157.2C233.817 158.183 232.882 159.118 231.9 160C230.591 160.896 229.221 161.697 227.8 162.4C226.406 163.127 225.283 164.284 224.6 165.7C224.201 166.615 223.997 167.603 224 168.6C223.6 173.8 223.2 179.1 222.7 184.4C222.294 186.349 222.503 188.376 223.3 190.2C223.9 191.5 224.9 192.7 225.1 194.2C225.3 195.7 224.6 197.6 224 199.3C222.859 202.047 222.118 204.943 221.8 207.9C221.683 210.367 221.716 212.838 221.9 215.3L222.5 224C222.5 225.9 222.9 228.4 223.1 230.9C223.342 233.127 222.961 235.377 222 237.4C221.348 238.514 220.577 239.553 219.7 240.5C215.888 244.929 213.119 250.158 211.6 255.8C210.2 261.1 209.7 266.9 206.2 271.1C205.208 272.008 204.394 273.094 203.8 274.3C203.2 275.5 203.4 277.2 204.6 277.8C205.003 278.004 205.449 278.107 205.9 278.1C208 278.4 210.1 278.3 212.1 279.1C214.1 279.9 214.6 280.6 216.1 281.1C218.106 281.54 220.18 281.574 222.2 281.2C224.3 280.9 225.1 280.3 225 279C224.9 277.7 223.7 277.4 222.7 277L217.8 275.1C217.449 275.028 217.117 274.884 216.825 274.678C216.532 274.471 216.285 274.207 216.1 273.9C215.6 273.1 216 271.9 216.4 271C220.233 262.417 224.574 254.068 229.4 246C229.22 245.854 229.005 245.759 228.777 245.724C228.548 245.689 228.315 245.715 228.1 245.8C232.063 239.54 234.906 232.637 236.5 225.4C236.62 226.233 237.005 227.005 237.6 227.6C238.879 229.128 240.017 230.768 241 232.5C243.7 237.9 241.5 244.4 243 250.2L242.6 250C242.412 250.635 242.484 251.318 242.8 251.9C244.124 254.843 245.098 257.93 245.7 261.1C246.116 262.836 246.184 264.638 245.9 266.4C245.5 268.1 244.5 269.6 244.3 271.4C244.244 271.548 244.225 271.706 244.242 271.862C244.259 272.019 244.313 272.169 244.4 272.3C244.6 272.8 245.2 272.9 245.6 273C247.347 273.033 249.091 272.865 250.8 272.5C254.7 272.1 258.7 273.7 262.6 272.9C262.785 272.909 262.971 272.878 263.143 272.809C263.316 272.74 263.471 272.635 263.6 272.5C263.78 272.23 263.868 271.908 263.85 271.584C263.832 271.259 263.709 270.949 263.5 270.7C263.009 270.296 262.424 270.02 261.8 269.9C259.3 269.2 256.6 268.9 254.3 267.7C254 267.5 253.6 267.3 253.5 267C253.338 266.693 253.269 266.346 253.3 266L253.6 252.1C253.7 248.498 253.6 244.892 253.3 241.3C253.2 240.8 253 240.2 252.6 240.2L252 241.1C252.266 239.112 252.333 237.102 252.2 235.1C252.001 233.489 251.598 231.91 251 230.4C250.1 227.2 249.1 224.1 248.1 220.9C248.7 220.7 248.8 219.9 248.8 219.3C248.49 212.786 246.302 206.499 242.5 201.2C243.6 198.9 242.4 196.9 241.9 194.9C241.4 192.9 241.8 188.5 242.5 185.4C244.825 186.442 247.352 186.955 249.9 186.9C250.239 186.904 250.568 186.784 250.825 186.563C251.083 186.343 251.251 186.036 251.3 185.7C252.4 181.6 253.3 177.4 254.1 173.2C254.644 173.181 255.164 172.97 255.566 172.604C255.969 172.237 256.229 171.74 256.3 171.2C259.851 173.986 263.132 177.1 266.1 180.5L266.7 181.1L267.6 181.3C269.946 181.848 272.114 182.984 273.9 184.6C274.803 185.499 275.488 186.594 275.9 187.8C276.775 189.725 277.445 191.736 277.9 193.8V194.1C277.8 194.4 277.4 194.4 277 194.4C275.454 194.218 273.888 194.496 272.5 195.2C271.7 195.6 270.8 196.2 270.7 197.1C270.744 198.039 270.982 198.958 271.4 199.8L272 201.7C272.143 202.011 272.367 202.277 272.649 202.47C272.93 202.664 273.259 202.778 273.6 202.8L274.4 202.5C275.654 202.044 276.968 201.774 278.3 201.7C279.606 201.625 280.844 201.094 281.8 200.2C282 202.8 284.2 205.5 284.8 208.5C285.1 209.9 285.1 211.2 285.3 212.6C285.68 215.191 286.421 217.715 287.5 220.1C289.7 226.1 292 232 294.3 237.9C294.4 238.3 294.6 238.7 294.4 239.1C294.204 239.381 293.924 239.591 293.6 239.7C291.6 240.6 290.4 242.7 289.8 244.8C289.4 246.909 289.299 249.063 289.5 251.2C289.7 250.8 290.3 251.4 290.3 251.9C290.7 254.3 291 256.8 291.3 259.2C291.6 261.6 291.9 264 291.2 266.2C290.5 268.4 289.6 269.6 290.6 271C291.6 272.4 292.9 272.1 294.2 272L305.2 271.5C306.1 271.5 307.4 271 307.2 270.1C306.952 269.7 306.557 269.413 306.1 269.3L301.4 267.4L300 266.6C299.2 265.8 299.4 264.5 299.5 263.4C300.131 258.626 300.465 253.816 300.5 249C300.669 247.302 300.429 245.587 299.8 244C299.675 243.752 299.607 243.478 299.6 243.2C299.603 243.021 299.651 242.845 299.738 242.688C299.825 242.531 299.949 242.398 300.1 242.3C300.795 241.364 301.296 240.297 301.57 239.163C301.845 238.029 301.889 236.852 301.7 235.7C301.373 235.059 301.105 234.39 300.9 233.7C301.132 232.01 301.266 230.307 301.3 228.6C301.128 225.135 300.384 221.723 299.1 218.5C299.463 217.024 300.108 215.632 301 214.4C303.2 211.6 306.6 210.1 309.9 208.8L319.3 205C321.483 204.227 323.514 203.076 325.3 201.6C325.688 201.29 325.999 200.893 326.207 200.442C326.415 199.991 326.515 199.497 326.5 199C326.456 198.508 326.309 198.031 326.067 197.601C325.826 197.17 325.496 196.795 325.1 196.5C323.6 194.9 321.6 193.5 321.4 191.3C321.2 189.1 322.6 187.5 324 186.1C325.4 184.7 327.6 183 328.1 180.4ZM247.3 165.7C247.217 166.229 247.183 166.765 247.2 167.3C247.2 167.5 247.3 167.7 247.2 167.8C247.1 167.9 247.1 168.2 246.9 168.2H246.6C246.084 167.836 245.492 167.593 244.868 167.489C244.245 167.385 243.606 167.423 243 167.6C243.376 167.485 243.696 167.236 243.9 166.9L244.2 166.5C244.3 166.4 244.5 166.4 244.5 166.2V166L244.8 165.8H245.3C245.395 165.652 245.431 165.474 245.4 165.3V164.8H246.8C247.1 164.7 247.1 164.2 247 163.9C247.291 164.452 247.396 165.084 247.3 165.7Z" fill="#1A1A1A"/>
<path d="M335 265.4H0V272.28H335V265.4Z" fill="#1A1A1A"/>
<path d="M335 330H0V336.33H335V330Z" fill="#1A1A1A"/>
<path d="M333.5 1.0002C333.997 1.0002 334.4 0.597252 334.4 0.100195C334.4 -0.396861 333.997 -0.799805 333.5 -0.799805C333.003 -0.799805 332.6 -0.396861 332.6 0.100195C332.6 0.597252 333.003 1.0002 333.5 1.0002Z" fill="#EC2227"/>
<path d="M228.3 31.8001C229.184 31.8001 229.9 31.0838 229.9 30.2001C229.9 29.3164 229.184 28.6001 228.3 28.6001C227.417 28.6001 226.7 29.3164 226.7 30.2001C226.7 31.0838 227.417 31.8001 228.3 31.8001Z" fill="#EC2227"/>
<path d="M210.3 242.7C211.46 242.7 212.4 241.76 212.4 240.6C212.4 239.44 211.46 238.5 210.3 238.5C209.14 238.5 208.2 239.44 208.2 240.6C208.2 241.76 209.14 242.7 210.3 242.7Z" fill="#EC2227"/>
<path d="M24.9979 15.1257C26.2198 13.7735 26.712 12.227 26.0973 11.6716C25.4827 11.1162 23.9939 11.7622 22.772 13.1145C21.5501 14.4667 21.0579 16.0132 21.6725 16.5686C22.2872 17.124 23.776 16.478 24.9979 15.1257Z" fill="#EC2227"/>
<path d="M133.282 44.5215C134.047 44.0796 133.884 42.3644 132.918 40.6904C131.951 39.0163 130.547 38.0174 129.782 38.4593C129.017 38.9011 129.18 40.6163 130.146 42.2904C131.113 43.9644 132.517 44.9633 133.282 44.5215Z" fill="#EC2227"/>
<path d="M328.091 36.0767C329.741 34.2182 330.375 32.0874 329.508 31.3174C328.641 30.5474 326.6 31.4297 324.95 33.2882C323.3 35.1467 322.665 37.2775 323.533 38.0476C324.4 38.8176 326.441 37.9352 328.091 36.0767Z" fill="#EC2227"/>
<path d="M52.0478 315.671C53.3311 314.225 53.8358 312.578 53.175 311.991C52.5142 311.405 50.9382 312.101 49.6548 313.546C48.3714 314.992 47.8667 316.639 48.5275 317.226C49.1883 317.813 50.7644 317.116 52.0478 315.671Z" fill="#EC2227"/>
</g>
<path d="M319 0H254V59H319V0Z" fill="#1A1A1A"/>
<path d="M319 61H254V65H319V61Z" fill="#1A1A1A"/>
<path d="M33.5998 19.7998C33.5884 20.2481 33.4101 20.6761 33.0998 20.9998L27.6998 26.3998L21.8998 22.9998V19.7998C21.8862 19.5896 21.9143 19.3788 21.9825 19.1795C22.0506 18.9801 22.1574 18.7962 22.2967 18.6383C22.4361 18.4803 22.6053 18.3515 22.7946 18.2591C22.9839 18.1666 23.1895 18.1125 23.3998 18.0998H23.5998C24.0429 18.1238 24.4615 18.3106 24.7752 18.6244C25.089 18.9381 25.2758 19.3567 25.2998 19.7998V23.8998L30.6998 18.5998C30.8422 18.4389 31.0155 18.3083 31.2094 18.2158C31.4034 18.1234 31.6139 18.0709 31.8286 18.0616C32.0432 18.0522 32.2575 18.0862 32.4588 18.1615C32.66 18.2368 32.844 18.3519 32.9998 18.4998C33.0263 18.4998 33.0518 18.5103 33.0705 18.5291C33.0893 18.5478 33.0998 18.5733 33.0998 18.5998C33.4189 18.9178 33.5987 19.3494 33.5998 19.7998Z" fill="#1A1A1A"/>
<path d="M31.8999 35.3996H31.1999C30.9939 35.3247 30.8182 35.1841 30.6999 34.9996L25.2999 29.6996V33.7996C25.2759 34.2427 25.0891 34.6613 24.7753 34.975C24.4616 35.2888 24.043 35.4756 23.5999 35.4996C23.3897 35.5132 23.1789 35.4851 22.9796 35.417C22.7802 35.3488 22.5963 35.242 22.4384 35.1027C22.2804 34.9633 22.1516 34.7941 22.0592 34.6048C21.9668 34.4155 21.9126 34.2099 21.8999 33.9996V30.4996L27.6999 27.0996L33.0999 32.4996C33.2702 32.6498 33.4065 32.8344 33.4999 33.0413C33.5933 33.2482 33.6416 33.4726 33.6416 33.6996C33.6416 33.9266 33.5933 34.151 33.4999 34.3579C33.4065 34.5648 33.2702 34.7495 33.0999 34.8996C32.7762 35.2099 32.3482 35.3883 31.8999 35.3996Z" fill="#1A1A1A"/>
<path d="M27.4 26.5998C27.3 26.4998 27.3 26.4998 27.3 26.3998H27.2L25.8 25.5998L21.9 23.2998L18.6 21.3998C18.4923 21.3588 18.3737 21.3564 18.2644 21.3928C18.155 21.4293 18.0616 21.5024 18 21.5998V31.5998C18 31.7059 18.0421 31.8076 18.1172 31.8826C18.1922 31.9576 18.2939 31.9998 18.4 31.9998H18.6L21.9 30.0998L27.2 26.9998C27.3 26.9998 27.3 26.9998 27.3 26.8998H27.4V26.5998ZM26.1 26.7998V26.9998L21.9 29.3998L19.3 30.8998C19.2 30.9998 19 30.8998 18.9 30.7998V22.8998C18.9 22.8202 18.9316 22.7439 18.9879 22.6876C19.0441 22.6314 19.1204 22.5998 19.2 22.5998H19.3L21.9 24.0998L26 26.4998C26.0362 26.5403 26.0637 26.5879 26.0809 26.6395C26.0981 26.691 26.1046 26.7456 26.1 26.7998Z" fill="#1A1A1A"/>
<path d="M24.8999 26.7996H24.7999L21.6999 28.5996L19.7999 29.7996H19.4999C19.4999 29.6996 19.4999 29.6996 19.3999 29.6996V23.7996C19.3999 23.6996 19.4999 23.5996 19.6999 23.5996H19.7999L21.6999 24.6996L24.7999 26.4996V26.6996C24.8999 26.6996 24.8999 26.7996 24.7999 26.7996" fill="#1A1A1A"/>
<path d="M61.7999 26.4999H61.6999L56.8999 23.9999L53.9999 22.4999C53.6999 22.3999 53.3999 22.4999 53.3999 22.7999V30.6999C53.4434 30.7895 53.5187 30.8597 53.6112 30.8966C53.7037 30.9336 53.8066 30.9348 53.8999 30.8999H53.9999L56.9999 29.3999L61.6999 26.8999C61.7999 26.7999 61.7999 26.7999 61.7999 26.6999V26.4999ZM60.6999 26.6999C60.6999 26.7999 60.6999 26.7999 60.5999 26.7999L56.8999 28.7999L54.5999 29.9999C54.3999 30.0999 54.2999 29.9999 54.1999 29.7999V23.5999C54.1999 23.4999 54.2999 23.3999 54.4999 23.3999H54.5999L56.7999 24.5999L60.5999 26.3999C60.5999 26.4999 60.6999 26.4999 60.6999 26.5999V26.6999Z" fill="#1A1A1A"/>
<path d="M59.5998 26.6997C59.5998 26.7997 59.5998 26.7997 59.4998 26.7997L56.7998 28.2997L55.0998 29.1997H54.7998V24.3997C54.8998 24.2997 54.8998 24.1997 55.0998 24.1997L56.8998 25.0997L59.5998 26.4997C59.6998 26.4997 59.6998 26.4997 59.6998 26.5997" fill="#1A1A1A"/>
<path d="M37 22.5996H41.2C43.2 22.4996 44.7 23.6996 44.7 25.2996C44.7 26.8996 43.3 28.0996 41.3 28.0996H39.1V30.6996H37.1L37 22.5996ZM41 26.4996C42 26.4996 42.7 25.9996 42.7 25.2996C42.7 24.5996 42 24.1996 41 24.1996H39V26.4996H41Z" fill="#1A1A1A"/>
<path d="M52.4999 29.2997V30.8997H45.8999V22.6997H47.8999V29.3997L52.4999 29.2997Z" fill="#1A1A1A"/>
<path d="M63.9998 27.7996L60.2998 22.5996H62.5998L64.8998 26.1996L67.2998 22.5996H69.4998L65.9998 27.7996V30.6996H63.9998V27.7996Z" fill="#1A1A1A"/>
<path d="M70.7998 22.9999H71.7998V27.4999L76.3998 22.8999H77.7998L73.9998 26.6999L78.1998 31.0999H76.8998L73.2998 27.2999L71.8998 28.5999V31.0999H70.8998L70.7998 22.9999Z" fill="#1A1A1A"/>
<path d="M78.7002 26.9997C78.8538 25.8563 79.4141 24.8066 80.2784 24.0425C81.1428 23.2785 82.2534 22.8513 83.4069 22.8391C84.5605 22.827 85.6798 23.2307 86.5601 23.9764C87.4403 24.7221 88.0225 25.7598 88.2002 26.8997C88.0466 28.0431 87.4863 29.0928 86.622 29.8569C85.7576 30.6209 84.647 31.0481 83.4935 31.0603C82.3399 31.0724 81.2206 30.6687 80.3403 29.923C79.4601 29.1773 78.8778 28.1396 78.7002 26.9997ZM87.1002 26.8997C87.0747 26.4398 86.9586 25.9895 86.7587 25.5746C86.5588 25.1596 86.279 24.7882 85.9352 24.4816C85.5915 24.1751 85.1906 23.9393 84.7556 23.788C84.3206 23.6367 83.86 23.5727 83.4002 23.5997C82.9405 23.5864 82.4827 23.6638 82.053 23.8275C81.6232 23.9912 81.23 24.2379 80.8956 24.5537C80.5613 24.8694 80.2925 25.248 80.1045 25.6677C79.9166 26.0874 79.8131 26.54 79.8002 26.9997C79.9944 27.9563 80.5494 28.8016 81.3499 29.3601C82.1505 29.9186 83.1353 30.1477 84.1002 29.9997C84.868 29.8763 85.5752 29.5076 86.116 28.9488C86.6567 28.39 87.002 27.6711 87.1002 26.8997Z" fill="#1A1A1A"/>
<path d="M89.5 29.9997L90.2 29.1997C90.5961 29.5879 91.0651 29.8938 91.58 30.0997C92.0949 30.3057 92.6455 30.4077 93.2 30.3997C94.6 30.3997 95.3 29.6997 95.3 28.8997C95.3 28.0997 94.4 27.6997 92.8 27.3997C91.2 27.0997 89.8 26.4997 89.8 25.0997C89.8 23.6997 91.1 22.6997 92.8 22.6997C93.9877 22.7136 95.1415 23.0982 96.1 23.7997L95.4 24.5997C95.07 24.2478 94.6648 23.9751 94.2145 23.8019C93.7643 23.6288 93.2807 23.5596 92.8 23.5997C91.6 23.5997 90.8 24.2997 90.8 24.9997C90.8 25.6997 91.8 26.1997 93.3 26.4997C94.8 26.7997 96.4 27.3997 96.4 28.7997C96.4 30.1997 95.3 31.1997 93.2 31.1997C92.5344 31.257 91.864 31.1804 91.2285 30.9743C90.593 30.7681 90.0053 30.4368 89.5 29.9997Z" fill="#1A1A1A"/>
<path d="M98.2998 22.9999H99.2998L102.8 28.6999L106.2 22.8999H107.2V31.0999H106.2V24.8999L102.9 30.6999L99.3998 24.9999V31.1999H98.3998L98.2998 22.9999Z" fill="#1A1A1A"/>
<path d="M109.2 26.9999C109.226 26.4088 109.368 25.8285 109.618 25.2924C109.868 24.7562 110.222 24.2746 110.658 23.8752C111.095 23.4758 111.606 23.1664 112.162 22.9647C112.719 22.7631 113.309 22.6731 113.9 22.7C115.082 22.6681 116.232 23.0827 117.122 23.8611C118.011 24.6395 118.575 25.7245 118.7 26.8999C118.547 28.0433 117.986 29.0931 117.122 29.8571C116.258 30.6212 115.147 31.0484 113.993 31.0605C112.84 31.0727 111.721 30.6689 110.84 29.9233C109.96 29.1776 109.378 28.1398 109.2 26.9999ZM117.6 26.8999C117.575 26.4401 117.459 25.9897 117.259 25.5748C117.059 25.1599 116.779 24.7885 116.435 24.4819C116.091 24.1753 115.691 23.9396 115.256 23.7883C114.821 23.6369 114.36 23.5729 113.9 23.5999C113.441 23.5866 112.983 23.664 112.553 23.8277C112.123 23.9914 111.73 24.2382 111.396 24.5539C111.061 24.8697 110.792 25.2482 110.605 25.6679C110.417 26.0876 110.313 26.5403 110.3 26.9999C110.494 27.9566 111.049 28.8018 111.85 29.3603C112.651 29.9189 113.635 30.1479 114.6 29.9999C115.368 29.8766 116.075 29.5079 116.616 28.9491C117.157 28.3903 117.502 27.6714 117.6 26.8999Z" fill="#1A1A1A"/>
<path d="M120 29.9997L120.7 29.1997C121.096 29.5879 121.565 29.8938 122.08 30.0997C122.595 30.3057 123.145 30.4077 123.7 30.3997C125.1 30.3997 125.8 29.6997 125.8 28.8997C125.8 28.0997 124.9 27.6997 123.3 27.3997C121.7 27.0997 120.3 26.4997 120.3 25.0997C120.3 23.6997 121.6 22.6997 123.3 22.6997C124.488 22.7136 125.641 23.0982 126.6 23.7997L125.9 24.5997C125.57 24.2478 125.165 23.9751 124.715 23.8019C124.264 23.6288 123.781 23.5596 123.3 23.5997C122.1 23.5997 121.3 24.2997 121.3 24.9997C121.3 25.6997 122.3 26.1997 123.8 26.4997C125.3 26.7997 126.8 27.3997 126.9 28.7997C127 30.1997 125.8 31.1997 123.6 31.1997C122.95 31.2549 122.295 31.1769 121.676 30.9706C121.057 30.7642 120.487 30.4339 120 29.9997Z" fill="#1A1A1A"/>
<path d="M302.5 104C302.5 104 308.7 90.4998 314.7 89.1998C320.7 87.8998 320.3 93.3999 314.6 95.4999C308.9 97.5999 302.5 104 302.5 104Z" fill="#EC2227"/>
<path d="M296.1 102.6C296.1 102.6 297 93.7 294.2 91.2C291.4 88.7 290 91.7 292.3 94.5C294.6 97.3 296.1 102.6 296.1 102.6Z" fill="white"/>
<path d="M312.5 113.7C312.5 113.7 319 114.6 320.3 117C321.6 119.4 319.2 119.9 317.6 117.8C316.159 116.14 314.431 114.751 312.5 113.7Z" fill="#EC2227"/>
<path d="M306.1 108.2C306.1 108.2 320.7 100.2 328.5 105.2C332.8 107.9 334.3 111.1 331.2 112.2C328.1 113.3 327.9 110 322.1 107.8C314.7 105 306.1 108.2 306.1 108.2Z" fill="#6ABD45"/>
<path d="M293.5 304C293.5 304 299.7 290.5 305.7 289.2C311.7 287.9 311.3 293.4 305.6 295.5C299.9 297.6 293.5 304 293.5 304Z" fill="#EC2227"/>
<path d="M287.1 302.6C287.1 302.6 288 293.7 285.2 291.2C282.4 288.7 281 291.7 283.3 294.5C285.6 297.3 287.1 302.6 287.1 302.6Z" fill="white"/>
<path d="M303.5 313.7C303.5 313.7 310 314.6 311.3 317C312.6 319.4 310.2 319.9 308.6 317.8C307.159 316.14 305.431 314.751 303.5 313.7Z" fill="#EC2227"/>
<path d="M297.1 308.2C297.1 308.2 311.7 300.2 319.5 305.2C323.8 307.9 325.3 311.1 322.2 312.2C319.1 313.3 318.9 310 313.1 307.8C305.7 305 297.1 308.2 297.1 308.2Z" fill="#6ABD45"/>
<path d="M21.4 295.8C19.8 293.2 18.1 290.7 17.7 287.6C17.5612 286.948 17.5795 286.273 17.7534 285.629C17.9273 284.986 18.2518 284.393 18.7 283.9C19.1444 283.41 19.7183 283.057 20.3554 282.88C20.9926 282.703 21.6668 282.71 22.3 282.9C22.9904 283.054 23.6179 283.414 24.0999 283.931C24.5819 284.449 24.8957 285.101 25 285.8C25.2174 286.759 25.183 287.758 24.9 288.7C24.3 291.3 22.8 293.5 21.4 295.8ZM23.1 286.6C23.1028 286.156 22.9408 285.726 22.6454 285.393C22.35 285.061 21.942 284.85 21.5 284.8H21.4C20.9395 284.799 20.4962 284.975 20.1613 285.292C19.8265 285.608 19.6256 286.04 19.6 286.5C19.6 286.737 19.6466 286.971 19.7371 287.189C19.8275 287.407 19.9601 287.606 20.1273 287.773C20.2944 287.94 20.4928 288.073 20.7112 288.163C20.9296 288.254 21.1637 288.3 21.4 288.3C21.8431 288.276 22.2617 288.089 22.5755 287.776C22.8892 287.462 23.076 287.043 23.1 286.6Z" fill="#FFCF34"/>
<path d="M12.6 297.7H30.1C30.1046 297.646 30.0981 297.592 30.0809 297.54C30.0637 297.488 30.0362 297.441 30 297.4L27.6 291.9C27.5 291.6 27.4 291.5 27.1 291.5H25.3C25.425 291.116 25.5927 290.747 25.8 290.4L26.1 290.2H27.9C28.0432 290.198 28.1824 290.248 28.2925 290.339C28.4025 290.431 28.4761 290.559 28.5 290.7L31.8 298.1C32 298.6 31.7 299 31.1 299H11.8C11.5 299 11.2 299 11.1 298.8C11.0179 298.576 10.9839 298.338 11 298.1L14.2 290.7C14.4 290.4 14.6 290.2 14.9 290.2H16.7L17 290.4L17.5 291.5H15.6C15.4 291.5 15.3 291.7 15.2 291.8C14.4 293.7 13.5 295.6 12.7 297.6L12.6 297.7Z" fill="#FFCF34"/>
<path d="M143.9 98.8999H15.8999V111.14H143.9V98.8999Z" fill="white"/>
<path d="M146.8 98.8999H145.1V111.14H146.8V98.8999Z" fill="white"/>
<path d="M274.7 98.8999H151.4V111.14H274.7V98.8999Z" fill="white"/>
<path d="M278 98.8999H276.3V111.14H278V98.8999Z" fill="white"/>
<path d="M17.3999 155.9H15.8999V166.51H17.3999V155.9Z" fill="#1A1A1A"/>
<path d="M88.6001 155.9H87.1001V166.51H88.6001V155.9Z" fill="#1A1A1A"/>
<path d="M116.4 179.5H19.7998V194.77H116.4V179.5Z" fill="#1A1A1A"/>
<path d="M18.2999 179.5H15.8999V194.77H18.2999V179.5Z" fill="#1A1A1A"/>
<path d="M253.5 293.5H39.7998V302.48H253.5V293.5Z" fill="#FFCF34"/>
<path d="M190.8 315.5H39.7998V324.48H190.8V315.5Z" fill="#FFCF34"/>
</g>
<defs>
<clipPath id="clip0_530_4785">
<rect width="335" height="335" fill="white"/>
</clipPath>
</defs>
</svg>
