<svg xmlns="http://www.w3.org/2000/svg" width="335" height="300" data-name="Layer 1">
  <defs>
    <linearGradient id="a" x1="164" x2="169.2" y1="416.9" y2="79.8" gradientUnits="userSpaceOnUse">
      <stop offset="0" stop-color="#070556"/>
      <stop offset=".3" stop-color="#05033e" stop-opacity=".7"/>
      <stop offset="1" stop-color="#000002" stop-opacity="0"/>
      <stop offset="1" stop-opacity="0"/>
    </linearGradient>
  </defs>
  <path fill="red" d="M-.2 0h336.4v300H-.2z"/>
  <path fill="#333" d="M336.9 249.5v51.9H173.3l163.6-51.9z"/>
  <path fill="#fff" d="M336.9 293.3v7.8l-.8.3h-24.6l25.4-8.1zm0-14.4v7.8l-46 14.7h-24.6l70.6-22.5zm0-14.4v7.8l-91.3 29.1h-24.5l115.8-36.9zm0-14.4v7.8l-136.5 43.5h-24.5l161-51.3z" opacity=".8"/>
  <g fill="#fff" data-name="PRINT">
    <path d="M32.2 11.9c0 .6-.2 1.1-.6 1.5l-6.8 6.8-7.2-4.2v-4.1c0-1.2 1-2.1 2.1-2.1s2.1 1 2.1 2.1v5.2l6.7-6.7c.8-.8 2.2-.8 3 0 .4.4.6 1 .6 1.5Zm-.6 19c-.4.4-.9.6-1.5.6s-.6 0-.8-.2c-.3-.1-.5-.3-.7-.5l-2.3-2.3-4.4-4.4v5.2c0 1.2-1 2.1-2.1 2.1s-2.1-1-2.1-2.1v-4.1l7.2-4.2 4.5 4.5 2.3 2.3c.8.8.8 2.2 0 3Zm-7.1-10.4c0-.1-.1-.2-.2-.3l-1.8-1-4.9-2.8-4.1-2.4c-.2-.1-.5 0-.7.2v12.7c0 .3.2.5.5.5h.2l4.1-2.4 6.7-3.9s.1-.1.1-.2v-.3Zm-10.2-5 3.2 1.8 5.2 3s.1 0 .1.1v.3s0 .2-.2.2l-5.2 3-3.2 1.9c-.2 0-.4 0-.5-.1v-9.9c0-.2.2-.4.4-.4h.2Z"/>
    <path d="M21.5 20.7s0 .1-.1.2l-3.9 2.3-2.4 1.4c-.1 0-.3 0-.4-.1v-7.4c0-.2.1-.3.3-.3h.1l2.4 1.4 3.9 2.3s.1 0 .1.2v.2Zm45.8-.5-6-3-3.7-1.8c-.2-.1-.5 0-.6.2v10.1c.1.2.4.4.6.4h.4l3.4-1.9 2.1-1.1 3.8-2s.2-.1.2-.2v-.2c0-.1-.1-.2-.2-.2Zm-6 3-2.8 1.5c-.2 0-.4 0-.5-.1v-7.8c0-.2 0-.3.3-.3h.1l2.9 1.4 1 .5 3.6 1.8s.1 0 .2.2v.2s0 .1-.1.2l-4.6 2.4Z"/>
    <path d="M64.8 20.6s0 .1-.1.1l-3.4 1.8-2.1 1.1h-.3v-5.9c0-.1 0-.2.2-.2h.1l2.1 1.1 3.5 1.7.1.1v.1Zm-23-5.2h-5.2v10.4h2.6v-3.4h2.7c2.5 0 4.3-1.5 4.3-3.6 0-2-1.9-3.5-4.4-3.4Zm-.2 4.9h-2.4v-2.9h2.4c1.2 0 2.1.5 2.1 1.4 0 .9-.8 1.5-2 1.5Zm14.3 5.5-8.2.1-.2-10.3H50l.1 8.3 5.7-.1.1 2zm16.8-3.9v3.7l-2.5.1v-3.8l-4.6-6.5h2.9l2.9 4.5 2.9-4.6h2.8l-4.4 6.6zM88 26.1l-1.7.1-4.4-4.8-1.8 1.7v3.1h-1.3l-.1-10.3H80l.1 5.7 5.7-5.7 1.8-.1-4.8 4.8 5.2 5.5zm6.5-10.5c-3.2 0-5.9 2.5-5.8 5.4 0 2.9 2.8 5.3 6 5.3s5.8-2.5 5.8-5.4c0-2.9-2.8-5.3-5.9-5.2Zm.4 9.6c-2.5.2-4.7-1.7-4.9-4.2.1-2.3 1.9-4.1 4.2-4.3 2.5-.2 4.7 1.7 4.9 4.2-.1 2.3-1.9 4.1-4.2 4.3Zm15.8-2c0 1.6-1.3 3-4 3-1.7 0-3.3-.5-4.5-1.6l.8-.9c1 .9 2.4 1.5 3.8 1.4 1.8 0 2.7-.9 2.7-1.8 0-1.1-1.1-1.5-3.1-1.9-2.3-.5-3.8-1.1-3.8-2.9 0-1.6 1.6-3 3.8-3 1.5 0 2.9.5 4 1.4l-.8.9c-.9-.8-2.1-1.3-3.3-1.3-1.4 0-2.4.9-2.4 1.8 0 1.1 1.1 1.4 3.1 1.8 2.2.4 3.8 1.1 3.8 2.9Zm13.6 2.9H123l-.1-7.7-4.2 7.2-4.3-7.1.1 7.7-1.3.1-.1-10.4h1.3l4.3 7.2 4.2-7.3h1.3l.1 10.3zm8.2-10.5c-3.2 0-5.9 2.5-5.8 5.4 0 2.9 2.8 5.3 6 5.3s5.8-2.5 5.8-5.4c0-2.9-2.8-5.3-5.9-5.2Zm.4 9.6c-2.5.2-4.7-1.7-4.9-4.2.1-2.3 1.9-4.1 4.2-4.3 2.5-.2 4.7 1.7 4.9 4.2-.1 2.3-1.9 4.1-4.2 4.3Zm15.8-2c0 1.6-1.3 3-4 3-1.7 0-3.3-.5-4.5-1.6l.8-.9c1 .9 2.4 1.5 3.8 1.4 1.8 0 2.7-.9 2.7-1.8 0-1.1-1.1-1.5-3.1-1.9-2.3-.5-3.8-1.1-3.8-2.9 0-1.6 1.6-3 3.8-3 1.5 0 2.9.5 4 1.4l-.8.9c-.9-.8-2.1-1.3-3.3-1.3-1.4 0-2.5.9-2.4 1.8 0 1.1 1.2 1.4 3.1 1.8 2.2.4 3.8 1.1 3.8 2.9Z"/>
  </g>
  <path fill="#251924" d="M244 281.6h-6.9c.7-.1 1.5-.3 2.2-.4 3.3-.7 6.3-1.9 9.1-3.8.9-.6 1.7-1.4 2.6-2.1h8.6v.3c-1.3 1-2.6 1.9-3.9 2.9-2.5 1.3-5 2.4-7.8 2.8-1.3.2-2.6.3-3.9.4Z"/>
  <path fill="#01013d" d="M206 232.1c2.7.2 5.3.3 8 .5l8.8.9c1.8.2 3.5.5 5.3.7 6.6.9 13.2 2.2 19.6 3.9 1.8.5 3.6 1 5.4 1.4h.2c1.3.6 2.7 1 4 1.5 2.7 1.1 5.5 2.2 8.2 3.4.1 0 .3.2.4.3 3.8 1.9 7.3 4.1 10.5 6.9l.5.5c.1.2.3.3.4.5h-27.8c-.6-.3-1.1-.7-1.7-1-5.1-2.9-10.4-5.4-15.9-7.3-3.3-1.1-6.7-2-10-3-1.2-.3-2.5-.5-3.7-.7-1.3-1.3-2.5-2.7-3.9-3.9-2.4-2.1-5.2-3.5-8.1-4.6Z"/>
  <path fill="#070556" d="M249.3 252.6h27.8c1.4 1.2 1.5 2.4.5 4.4-.7.8-1.7 1-2.7 1.2h-23.2c-.2 0-.7.2-.7.4v2.8h1c.6.1 1.2.2 1.7.2 1.9 0 3.7.3 5.5 1 2.1.9 4 2.1 5.3 4h-39.4c.2-.7.4-1.4.7-2.1 0-.1.2-.3.3-.4 1.5-2.4 3.7-3.6 6.6-3.5 2.3 0 4.6.2 6.9.3h2.1v-2.7h-18.4c0-1.9-.1-3.7-.2-5.6h26.2Z"/>
  <path fill="#01013a" d="M264.6 266.6c-1.4-1.9-3.2-3.1-5.3-4-1.8-.7-3.6-1-5.5-1-.6 0-1.2-.1-1.7-.2.6 0 1.4.2 1.9 0 1.7-.8 3.4-.8 5.2-.8h2.1c1.8 0 3.5.2 5.3.3.5 0 .8-.1.7-.7v-2h7.6v3.2h3.4c2 .1 4 .2 5.9.4 2 .3 3.9 1.2 5.6 2.3 2.7 2.1 4.6 4.8 5.3 8.3.2.9.2 1.8.3 2.8h-27.7c-.2-1.1-.3-2.3-.5-3.4-.5-1.9-1.3-3.7-2.7-5.1Z"/>
  <path fill="#070556" d="M267.3 271.7c.2 1.1.3 2.3.5 3.4h-42.7v-3.4h42.2Z"/>
  <path fill="#443942" d="M259.5 275.1h8.1c-1 0-2 0-2.9.1h-4.2c-.3 0-.7.1-1 .2v-.3Z"/>
  <path fill="#070556" d="m11 243.9-7.5-5.1c-.5-.3-.7-.6-.7-1.2v-37.9h6.1c2 .6 4.1 1.1 6.1 1.6 1 .2 2 .2 3 .2 1.8-.2 2.6-1 2.9-3 0-.4 0-.7.6-.6h16.9v17c0 2.4-1.4 4.2-3.7 4.9h-.2c-.3.1-.5.2-.8.2q-1.2 0-1.2 1.3v11l2-1.6.9-.3c3.8-2.3 7.9-4.2 12.1-5.8 1.3-.5 2.5-1 3.8-1.5.6-.3 1.3-.6 1.9-.9.3-.2.7-.3 1-.5 2.7-1.5 5-3.3 7.2-5.4 3.3-3.2 5.3-7.3 7.9-11 1.6-1.6 3.1-3.2 4.7-4.8.2-.2.5-.4.7-.6 0 .2 0 .4-.2.6a91.4 91.4 0 0 0-7.3 19.7c0 .2-.2.5-.4.6-4.3 2.7-7.9 6.2-11 10.2h-6.4c-2.6 0-5.3-.1-7.9.5a25.9 25.9 0 0 0-13.3 7.6c-1.7 1.9-3.1 4-4.3 6.3-1-.3-2.1-.5-3.1-.8-.7-.2-1 0-1.3.5-.6 1.1-1.3 2.1-2 3.2-1.9-1.3-3.8-2.5-5.8-3.8-.3-.2-.5-.3-.8-.5Zm15.2-29c0-4.7-3.8-8.5-8.5-8.6-4.7 0-8.6 3.9-8.6 8.5 0 4.7 3.9 8.6 8.6 8.6 4.6 0 8.5-3.9 8.5-8.5Z"/>
  <path fill="#01013d" d="M158.4 231.4h25.1l-.1.1c-4.3 1-8.1 3.1-11.4 6-2 0-3.9.1-5.9.2-1.9 0-3.8.1-5.6.2-1.2 0-2.5.1-3.7.2l-10.4.3c-1.5 0-2.9 0-4.4-.2l-8.2-.3c-3.6-.2-7.1-.5-10.7-.7-.7 0-1.4-.2-1.7-1-.2-.6-.7-.9-1.3-1-1.3-.2-2.6-.5-3.9-.6-2.6-.2-5.2-.3-7.8-.3-2.7 0-5.4.7-8.1.3-1.9-.3-3.9-.4-5.9-.5-2.9-.2-5.8-.6-8.6-.6-4.5 0-8.9.1-13.4.3-1.3 0-2.5.4-3.8.6-3.7-2.2-7.7-3.3-12-3.5 2.7-3.6 5.9-6.7 9.7-9.1 1-.6 1.5-1.4 1.8-2.5 1.2-5.6 3.3-10.8 5.7-16 .7-1.5 1.3-3 2-4.5 4.4-3.2 9.3-5.2 14.6-6 2.5-.4 5-.4 7.5-.6h.7-.7c-1.3.2-2.6.6-3.4 1.8-.3.3-.8.5-1 .9-.8 1.6-1.8 3.2-2.4 4.8-1.1 3.2-1.7 6.6-1.9 10-.2 3-.2 6.1-.4 9.1v1h19.3c3.7 1.7 7.4 3.7 11.3 5.2 6.2 2.5 12.6 4.3 19.2 5.5 3.4.6 6.8.8 10.2.8.2.5.3 1.1.5 1.6.6 1.6 2.2 2.5 3.7 2.2 0-.9-.3-1.6-.9-2.2-.4-.4-.6-1-.9-1.6h7.1Zm-56.1-9.7H90.1c.5.2.7.4 1 .5 4 2 8.2 3.5 12.5 4.8 5.5 1.7 11 2.9 16.6 3.8 2.3.3 4.6.7 6.8 1 1.6.1 3.2.2 4.8.4 1.1 0 2.3.3 3.4.3h4.7c-.6 0-1.2 0-1.8-.2-4-1-8-1.8-11.9-3-6.2-1.9-12.1-4.5-18-7.3-.3-.1-.6-.3-.9-.3h-5Zm-23.6-13.4a6.7 6.7 0 1 0 .1 13.4c3.7 0 6.6-3 6.6-6.7s-3-6.7-6.7-6.7Z"/>
  <path fill="#070556" d="M38.4 197.9H38c1.4-.7 1.6-2 1.7-3.5h17.4v16.9c0 1-.4 2-.8 2.9-.6 1.3-1.9 1.7-3 2.3h-1.1c-.7 0-.9.2-.9.9v5.5c-1.3.5-2.5 1-3.8 1.5-4.2 1.6-8.2 3.5-12.1 5.8-.3.2-.6.2-.9.3v-10.7s.1 0 .2-.1c0 0 .1.1.2.1 2.6.4 5.4-1.9 5.4-4.6v-15.5q0-1.9-1.9-1.9Zm70 22h-7.5c-.1-2.9 0-5.7-.4-8.6-.3-2.9-.7-5.9-1.4-8.8-.7-3.2-1.9-6.2-4.5-8.4.8-1.2 2-1.6 3.4-1.8h.7c2.9 0 4.6 1.7 5.9 4 .7 1.2 1.1 2.5 1.7 3.8.6 2.9 1.2 5.7 1.7 8.6.1 3.3.3 6.5.4 9.8v1.3Z"/>
  <path fill="#01013a" d="M59.1 205.2c0 1.9-.1 3.8 0 5.6.2 3.4-2.4 6.1-5.8 5.7 1.2-.6 2.4-1 3-2.3.4-.9.8-1.9.8-2.9v-16.9H59v10.7Zm16.8-6.3c-.7 1.5-1.3 3-2 4.5-2.4 5.2-4.5 10.4-5.7 16-.3 1.2-.8 1.9-1.8 2.5-3.8 2.4-7 5.5-9.7 9.1h-.9c3.1-4 6.6-7.5 11-10.2.2-.1.4-.4.4-.6a91.4 91.4 0 0 1 7.3-19.7c0-.2.1-.4.2-.6l1.2-.9Z"/>
  <path fill="#d9dade" d="M52 194.4h-.2l.2-.2v.2Z"/>
  <path fill="#070556" d="M32.7 197.8H21.5c0-.5 0-1 .1-1.5h6.3l3.3.9c.5.1 1 .4 1.5.6Z"/>
  <path fill="#01013a" d="M32.7 197.8c-.5-.2-1-.5-1.5-.6l-3.3-.9c1.4.2 2.8.3 4.1.6 2 .4 3.9 1.1 6 .8h-5.3Zm-14.6 3.7c-1 0-2 0-3-.2-2.1-.4-4.1-1-6.1-1.5a63.89 63.89 0 0 1 9.1 1.8Z"/>
  <path fill="#070556" d="M8.8 199.7h-4 4Z"/>
  <path fill="#621c2e" d="M27.5 196.4Zm-3.9-.1-.1.1.1-.1z"/>
  <path fill="#01013a" d="M151.4 231.4c.3.5.5 1.1.9 1.6.6.7.9 1.4.9 2.2-1.5.3-3-.6-3.7-2.2-.2-.5-.4-1.1-.5-1.6v-1.3h-7.1c-1.2 0-1.9-.7-1.9-1.7s.7-1.7 2-1.7h7.4c1.3 0 1.9.6 1.9 1.9 0 .9.1 1.9.2 2.8Zm7 0h-2.3c0-.9 0-1.8.1-2.8 0-1.3.7-1.9 1.9-1.9h7.2c.6 0 1.1.3 1.6.5 1 1.4 0 3-1.7 2.9-2.2-.1-4.4 0-6.7 0l-.2 1.3Z"/>
  <path fill="#443942" d="M24 245.3a25.51 25.51 0 0 1 17.6-13.9c2.6-.6 5.2-.6 7.9-.5l2 .3c6.1 1.2 11.2 4.1 15.1 8.9 4.6 5.6 6.5 12.1 5.6 19.3-.6 5-2.5 9.5-5.8 13.3-3.3 3.8-7.4 6.6-12.3 7.9-1.3.3-2.6.6-4.1 1h7.2v.1H45.3c-1.5-.3-3-.5-4.4-.8-3.8-.9-7.2-2.7-10.2-5.3-.2-.2-.5-.3-.7-.5l-2-2.1-1.1-1.3c-.1-.2-.2-.4-.4-.6a25.2 25.2 0 0 1-4.8-16.2c.2-3.4 1-6.6 2.4-9.7Zm22.9 27c8.8 0 16-7.1 16.1-16 0-8.9-7.1-16.1-15.9-16.1-8.9 0-16.1 7-16.2 16a16 16 0 0 0 16 16.1Zm-1.1 6.9h1.4c.7-.1 1-.6 1-1.3 0-.7-.4-1.1-1-1.3h-.8c-6.3-.3-11.5-2.9-15.5-7.8a20.2 20.2 0 0 1-4.3-12.3c0-1-.5-1.5-1.3-1.5s-1.3.6-1.3 1.6c0 .9 0 1.9.2 2.8 1.3 10.9 10.6 19.4 21.6 19.9Zm24.1-23.9c-.4-6.7-3.1-12.2-8.2-16.6-4.2-3.6-9.1-5.4-14.6-5.4-1 0-1.5.4-1.6 1.3 0 .8.5 1.3 1.5 1.4h1.2c8.8.5 16.4 6.9 18.4 15.5.4 1.5.4 3.1.6 4.7.1.9.6 1.4 1.3 1.4.8 0 1.3-.6 1.3-1.5v-.8ZM172 237.5c3.3-2.9 7.1-5 11.4-6l.1-.1c2.9-.6 5.9-.6 8.8-.5h.7c.1.1.3.3.4.3 3 .5 5.8 1.4 8.4 3 5.6 3.3 9.5 7.9 11.5 14.1 1 2.9 1.4 5.8 1.2 8.8-.1 1.4-.1 2.8-.4 4.2a25.41 25.41 0 0 1-16.4 18.9c-1.7.6-3.5.9-5.3 1.4h6.9v.1h-11.8s-.2-.1-.3-.1c-2.6-.1-5.1-.8-7.5-1.7-3.3-1.3-6.1-3.4-8.7-5.8-2.1-2.2-3.8-4.8-5.1-7.6-1-2.5-1.7-5.1-2-7.8v-5.6c.4-2.5 1.1-4.8 2.1-7.1 1.4-3.2 3.5-6 6-8.5Zm33.3 18.7a16.05 16.05 0 1 0-32.1.1c0 8.9 7.2 16.1 16 16 8.9 0 16.1-7.2 16.1-16.1Zm6.9-1.1c-.7-8.4-4.6-14.8-11.9-19-3.4-1.9-7-2.8-10.9-2.8-.9 0-1.5.5-1.5 1.3s.5 1.3 1.4 1.4h1.3c8.1.5 15.2 5.9 17.9 13.6.7 2.1 1.1 4.3 1.1 6.5 0 .9.5 1.4 1.3 1.4s1.3-.5 1.3-1.4v-1Zm-24 24.1h1c.8 0 1.4-.5 1.4-1.3s-.5-1.3-1.3-1.3c-.6 0-1.2 0-1.8-.1-8.4-.7-15.6-6.6-17.8-14.8-.5-1.7-.5-3.6-.8-5.4-.1-.9-.6-1.4-1.4-1.4-.8 0-1.3.6-1.3 1.5 0 .8 0 1.7.2 2.5a23 23 0 0 0 21.7 20.3Zm36.8-7.5v3.4h25.9c-.9.7-1.7 1.5-2.6 2.1-2.8 1.9-5.8 3.1-9.1 3.8-.7.2-1.5.3-2.2.4h-4.5c-.6 0-1.2-.1-1.8-.2-3.8-.4-7.4-1.8-10.5-4-1.4-1-2.7-2.2-4-3.3 2.1-2.4 4-5 5.3-8l3.5 3.2v2.3Zm-123.2 9.8h-4.5c-5.9-.3-11-2.5-15.4-6.4h33.8c-.2.3-.5.6-.7.8a25.8 25.8 0 0 1-9.3 4.8c-1.3.3-2.5.6-3.8.8Z"/>
  <path fill="#251924" d="M101.8 281.5c1.3-.3 2.6-.5 3.8-.8 3.4-.9 6.5-2.6 9.3-4.8.3-.2.5-.5.7-.8h8.9c-4.4 4-9.7 6.1-15.6 6.4h-7.1Zm114.4-7.4c-1.1.9-2.1 1.8-3.2 2.6-3.6 2.6-7.5 4.2-12 4.7-.6 0-1.2.1-1.8.2h-6.9c1.7-.5 3.5-.8 5.3-1.4 3-1 5.7-2.7 8.2-4.8 4.4-3.8 7-8.5 8.2-14.1.3-1.4.3-2.8.4-4.2.3-3-.2-6-1.2-8.8-2.1-6.2-6-10.8-11.5-14.1-2.6-1.5-5.4-2.5-8.4-3-.1 0-.3-.2-.4-.3 4.4 0 8.8-.2 13 1.2 2.9 1.1 5.8 2.5 8.1 4.6 1.4 1.2 2.6 2.6 3.9 3.9 1.6 2.2 3 4.5 3.8 7.1.5 1.6.9 3.3 1.3 4.9 0 1.9.1 3.7.2 5.6 0 .7-.1 1.5-.2 2.2l-1.2 4.4-.5 1.4c-1.3 3-3.2 5.5-5.3 8Z"/>
  <path fill="#443942" d="M253 239.6c-1.8-.5-3.6-1-5.4-1.4-6.5-1.7-13-3-19.6-3.9-1.8-.2-3.5-.5-5.3-.7 3.8-1.9 7.7-2.8 12-2.7h3.2c.2.1.4.3.6.3 1.4.4 2.7.6 4.1 1.1 3.2 1 6 2.8 8.5 5 .8.7 1.3 1.5 2 2.3Z"/>
  <path fill="#251924" d="M253 239.6c-.7-.8-1.3-1.6-2-2.3-2.5-2.2-5.3-3.9-8.5-5-1.3-.4-2.7-.7-4.1-1.1-.2 0-.4-.2-.6-.3 2.8 0 5.6 0 8.4.2 3.2.3 6.2 1.4 9.1 3 .1 0 .3.1.5.2 3.1 1.9 5.7 4.3 7.9 7.3.6 1 1.1 1.9 1.7 2.9-2.7-1.1-5.4-2.3-8.2-3.4-1.3-.5-2.6-.9-4-1.4h-.2Zm-15.5-8.7Zm-45 0h-.2.2Z"/>
  <path fill="#070556" d="M223.1 252.6c-.4-1.6-.8-3.3-1.3-4.9-.8-2.6-2.3-4.9-3.8-7.1 1.2.2 2.5.4 3.7.7 3.3.9 6.7 1.9 10 3 5.6 1.9 10.8 4.3 15.9 7.3.6.3 1.2.7 1.7 1h-26.2Z"/>
  <path fill="#443942" d="M253.1 239.6Z"/>
  <path fill="#fecf3e" d="M225 271.7v-3.8l.2-1.2h39.4c1.4 1.5 2.2 3.2 2.7 5.1h-42.2Z"/>
  <path fill="#13232b" d="M223.1 260.4c0-.7.1-1.5.2-2.2h18.4v2.7h-2.1c-2.3 0-4.6-.2-6.9-.3-2.9 0-5 1.1-6.6 3.5 0 .1-.2.3-.3.4-1.3-1.1-2-2.6-2.7-4.1Z"/>
  <path fill="#443942" d="M259.2 260.5c-1.8 0-3.5 0-5.2.8-.5.3-1.3 0-1.9 0h-1v-2.8c0-.1.4-.4.7-.4h7.6c0 .8-.1 1.6-.2 2.4Z"/>
  <path fill="#251924" d="M259.2 260.5c0-.8.1-1.6.2-2.4h8v2c0 .6-.2.7-.7.7l-5.3-.3h-2.1Z"/>
  <path fill="#606475" d="M223.1 260.4c.7 1.5 1.4 3 2.7 4.1-.2.7-.4 1.4-.7 2.1 0 .4-.1.8-.2 1.2-1-1-2-2.1-3-3.1l1.2-4.4Z"/>
  <path fill="#01013d" d="M24 245.3c-1.4 3.1-2.2 6.3-2.4 9.7-.3 6 1.3 11.3 4.8 16.2.1.2.2.4.4.6H13.9c-.2 0-.3 0-.5-.1 0-.9-.2-1.7-.2-2.6-.1-4.2.3-8.3 1.2-12.4 1.1-2.8 2.1-5.6 3.2-8.4.7-1.1 1.4-2.1 2-3.2.3-.6.7-.7 1.3-.5 1 .3 2.1.5 3.1.8Z"/>
  <path fill="#070556" d="M27.8 273c.7.7 1.3 1.4 2 2.1H13.7V273h14.2Z"/>
  <path fill="#fecf3e" d="M27.8 273H13.6c0-.5-.1-.9-.2-1.4.2 0 .3.1.5.1h12.9c.4.4.7.9 1.1 1.3Z"/>
  <path fill="#251924" d="M72.8 275.1c-2.7 2.2-5.6 4.1-8.9 5.2-2.2.7-4.5 1.2-6.8 1.3h-7.2c1.5-.4 2.8-.6 4.1-1 4.9-1.3 9-4.1 12.3-7.9 3.3-3.8 5.2-8.3 5.8-13.3.8-7.2-1-13.6-5.6-19.3-3.9-4.8-9-7.7-15.1-8.9l-2-.3h7.3c4.3.2 8.3 1.4 12 3.5l.2.2c9.3 6.1 13.2 14.8 11.9 25.8-.5 1.7-.8 3.5-1.5 5.2-.9 2.1-2.2 4.1-3.3 6.1-.4.4-.7.9-1.1 1.3l-2.1 2.1Z"/>
  <path fill="#01013a" d="M26.2 214.9c0 4.6-3.9 8.5-8.5 8.5-4.7 0-8.6-3.9-8.6-8.6 0-4.7 3.9-8.5 8.6-8.5 4.6 0 8.5 3.9 8.5 8.6Zm12.2-17q1.9 0 1.9 1.9v15.5c0 2.7-2.7 5-5.4 4.6 0 0-.1 0-.2-.1 2.3-.7 3.7-2.5 3.7-4.9V198Zm-3.9 22v10.7c-.6.5-1.2.9-2 1.6v-11q0-1.3 1.2-1.3h.8Zm18.7-3.4v5.6c-.6.3-1.3.6-1.9.9v-5.5c0-.7.2-1 .9-.9h1.1Z"/>
  <path fill="#070556" d="M80.8 260.4c1.3-11-2.6-19.7-11.9-25.8l-.2-.2c1.3-.2 2.5-.6 3.8-.6 4.5-.2 8.9-.4 13.4-.3 2.9 0 5.8.4 8.6.6 2 .2 3.9.3 5.9.5 2.7.4 5.4-.3 8.1-.3 2.6 0 5.2.1 7.8.3 1.3 0 2.6.4 3.9.6.6 0 1 .4 1.3 1 .3.8.9.9 1.7 1 3.6.2 7.1.5 10.7.7 2.7.2 5.4.2 8.2.3 1.5 0 2.9.2 4.4.2 3.5 0 6.9-.2 10.4-.3 1.2 0 2.5-.1 3.7-.2 1.9 0 3.8-.1 5.6-.2 2 0 3.9-.1 5.9-.2-2.5 2.5-4.6 5.2-6 8.5-1 2.3-1.7 4.6-2 7.1-1.8.2-3.5.3-5.3.5-3.4.5-6.9.9-10.3 1.5-4.5.9-8.9 2.1-13 4.2-2.3 1.2-4.8 2-7.4 2.6-5.1 1-10.3 1.2-15.4 1.3-3.6 0-7.1-.1-10.7-.3-3.5-.2-7.1-.3-10.6-.7-3.5-.4-7-1.2-10.5-1.8Zm40.4-7.3.2.2c2.3 1.1 4.6 2.1 6.9 3.2 0-.2-.2-.5-.3-.8-.6-1.1-1.2-2.1-1.8-3.2-2.3-4.1-4.5-8.1-6.8-12.2-.1-.3-.5-.6-.8-.6-1.5.1-2.9.4-4.4.6-1.5.1-2.9.6-4.1 1.4-1.2.8-1.5 1.9-.8 3.1.4.7 1 1.4 1.6 1.9 2.2 2.1 4.9 3.6 7.6 5 .9.5 1.8.8 2.6 1.2Zm-29.6-2h-5.8c-1 0-1.5.4-1.4 1.1 0 .7.5 1.1 1.4 1.1h11.5c1 0 1.5-.4 1.4-1.1 0-.7-.5-1.1-1.4-1.1h-5.7Zm0-5.8h5.9c.8 0 1.3-.4 1.2-1.1 0-.7-.5-1-1.2-1.1H85.7c-.9 0-1.4.4-1.4 1.1 0 .7.5 1.1 1.4 1.1h5.8Zm0 1.9h-6.1c-.6 0-1 .2-1.1.8-.1.6.2 1 .7 1.2.3.1.7.2 1 .2h11.4c.8 0 1.3-.5 1.3-1.1 0-.7-.5-1-1.3-1h-5.8Z"/>
  <path fill="#01013a" d="M94.6 194.1c2.6 2.2 3.8 5.2 4.5 8.4.6 2.9 1.1 5.8 1.4 8.8.3 2.8.3 5.7.4 8.6H89.1v-1c.1-3 .2-6.1.4-9.1.2-3.4.8-6.8 1.9-10 .6-1.7 1.5-3.2 2.4-4.8.2-.4.6-.6 1-.9Z"/>
  <path fill="#fecf3e" d="M78.8 208.2c3.8 0 6.7 2.9 6.7 6.7 0 3.7-3 6.7-6.6 6.7-3.8 0-6.7-2.9-6.8-6.7 0-3.8 2.9-6.7 6.7-6.7Z"/>
  <path fill="#01013a" d="M127.1 231.7c-2.3-.3-4.6-.6-6.8-1-5.6-.9-11.2-2.1-16.6-3.8-4.3-1.3-8.5-2.8-12.5-4.8-.3-.1-.5-.3-1-.5h12.2l.4.4c.9.4 1.8.8 2.8 1.2 6.9 3.1 13.8 5.8 21 8 .2 0 .3.3.5.4Z"/>
  <path fill="#070556" d="M127.1 231.7c-.2-.2-.3-.4-.5-.4-7.2-2.2-14.2-4.9-21-8-.9-.4-1.9-.8-2.8-1.2-.2 0-.3-.3-.4-.4h5c.3 0 .6.2.9.3 5.8 2.8 11.7 5.5 18 7.3 3.9 1.2 7.9 2 11.9 3 .6.1 1.2.2 1.8.2h-4.7c-1.1 0-2.3-.2-3.4-.3-1.6-.1-3.2-.2-4.8-.4Z"/>
  <path fill="#f7f7f8" d="M46.9 272.3c-8.9 0-16.1-7.2-16-16.1 0-8.9 7.2-16 16.2-16 8.9 0 16 7.3 15.9 16.1 0 8.9-7.3 16-16.1 16Zm0-1.3c8.2 0 14.8-6.6 14.8-14.8 0-8.1-6.7-14.8-14.8-14.8a14.79 14.79 0 1 0 0 29.6Z"/>
  <path fill="#f7f7f8" d="M45.8 279.2c-11-.5-20.3-9-21.6-19.9-.1-.9-.2-1.9-.2-2.8 0-1 .5-1.6 1.3-1.6s1.3.5 1.3 1.5c.1 4.6 1.5 8.7 4.3 12.3 3.9 5 9.1 7.5 15.5 7.8h.8c.6.2 1 .6 1 1.3 0 .7-.3 1.2-1 1.3h-1.4Zm24.1-23.9v.8c0 1-.5 1.5-1.3 1.5s-1.2-.5-1.3-1.4c-.2-1.6-.3-3.2-.6-4.7-2-8.6-9.6-15-18.4-15.5h-1.2c-1 0-1.5-.6-1.5-1.4 0-.8.6-1.3 1.6-1.3 5.5 0 10.4 1.9 14.6 5.4 5.1 4.3 7.7 9.9 8.2 16.6Z"/>
  <path fill="#01013d" d="M80.8 260.4c3.5.6 7 1.4 10.5 1.8 3.5.4 7.1.5 10.6.7 3.6.2 7.1.4 10.7.3 5.2 0 10.3-.3 15.4-1.3 2.6-.5 5-1.3 7.4-2.6 4.1-2.1 8.5-3.3 13-4.2 3.4-.6 6.9-1.1 10.3-1.5 1.7-.2 3.5-.4 5.3-.5 0 1.9 0 3.7-.1 5.6-3.3.3-6.6.6-10 1.1-5.9.8-11.6 2.1-17.1 4.4l-8.7 3.6c-6.3 2.5-12.8 4-19.6 4H76c1.1-2 2.4-4 3.3-6.1.7-1.6 1-3.4 1.5-5.2Z"/>
  <path fill="#f7f7f8" d="M205.3 256.2c0 8.9-7.2 16-16.1 16.1a16.05 16.05 0 1 1 .1-32.1c8.9 0 16 7.2 16 16Zm-1.3 0c0-7.8-6.2-14.8-14.8-14.8-8.3 0-14.8 6.5-14.8 14.8 0 8 6.6 14.7 14.5 14.8 8.5.1 15.2-6.8 15.1-14.8Z"/>
  <path fill="#f7f7f8" d="M212.2 255.1v1c0 .9-.5 1.4-1.3 1.4s-1.3-.5-1.3-1.4a20.3 20.3 0 0 0-19-20.1h-1.3c-.9 0-1.4-.6-1.4-1.4 0-.8.6-1.3 1.5-1.3 3.9 0 7.5.9 10.9 2.8 7.3 4.2 11.2 10.6 11.9 19Zm-24.1 24.1c-11.2-.5-20.4-9.1-21.7-20.3 0-.8-.1-1.7-.2-2.5 0-.9.5-1.5 1.3-1.5s1.3.5 1.4 1.4c.2 1.8.3 3.7.8 5.4 2.2 8.1 9.4 14 17.8 14.8.6 0 1.2 0 1.8.1.8 0 1.3.6 1.3 1.3 0 .8-.5 1.3-1.4 1.3h-1Z"/>
  <path fill="#070556" d="M144 273v2.1H72.7l2.1-2.1H144Z"/>
  <path fill="#f7f7f8" d="M221.9 264.8c1 1 2 2.1 3 3.1v1.5l-3.5-3.2.5-1.4Z"/>
  <path fill="#fecf3e" d="M126.8 273h-52c.4-.4.7-.9 1.1-1.3h32.5c6.8 0 13.3-1.5 19.6-4 2.9-1.1 5.8-2.4 8.7-3.6.2.8.3 1.7.5 2.5a6.2 6.2 0 0 0 2.4 3.7c1.3 1 2.7 1.7 4.1 2.6h-16.9Z"/>
  <path fill="#01013a" d="M128.3 256.5c-2.3-1.1-4.6-2.1-6.9-3.2l-.2-.2c0-.1 0-.3-.1-.4-1.4-2.5-2.9-5.1-4.3-7.6-.9-1.6-1.7-3.1-2.6-4.7l4.4-.6c.2 0 .6.3.8.6 2.3 4.1 4.6 8.1 6.8 12.2.6 1.1 1.2 2.1 1.8 3.2.1.2.2.5.3.8Z"/>
  <path fill="#030326" d="M114.2 240.3c.9 1.6 1.7 3.2 2.6 4.7 1.4 2.6 2.8 5.1 4.3 7.6 0 .1 0 .3.1.4-.9-.4-1.8-.8-2.6-1.2-2.7-1.4-5.3-2.9-7.6-5-.6-.6-1.2-1.2-1.6-1.9-.7-1.2-.4-2.3.8-3.1 1.2-.8 2.6-1.3 4.1-1.4Z"/>
  <path fill="#020238" d="M91.6 251.1h5.7c.9 0 1.4.4 1.4 1.1 0 .7-.5 1.1-1.4 1.1H85.8c-1 0-1.4-.3-1.4-1.1 0-.7.5-1.1 1.4-1.1h5.8Zm-.1-5.8h-5.8c-.9 0-1.4-.4-1.4-1.1 0-.7.5-1.1 1.4-1.1h11.8c.6.1 1.1.4 1.2 1.1 0 .7-.4 1.1-1.2 1.1h-5.9Zm0 1.9h5.8c.9 0 1.3.4 1.3 1s-.5 1.1-1.3 1.1H85.9c-.3 0-.7 0-1-.2-.5-.2-.8-.6-.7-1.2.1-.6.5-.8 1.1-.8h6.1Z"/>
  <path fill="#621c2e" d="M128.3 256.5Z"/>
  <path fill="#251924" d="m121.2 253.1.2.2-.2-.2Z"/>
  <path fill="#606475" d="M47 271a14.79 14.79 0 1 1 14.8-14.8c0 8.2-6.6 14.8-14.8 14.8Zm-3.8-12.2c-.9.2-1.8.4-2.7.7-1.4.5-2.7 1.1-4.2 1.7.5.7.8 1.3 1.2 1.9.9 1.2.9 1.2 1.9.2.5-.5 1-.9 1.4-1.4l2.4-3Zm3.8.9c2 0 3.5-1.5 3.5-3.4 0-2-1.5-3.5-3.5-3.5s-3.5 1.5-3.5 3.5 1.5 3.5 3.5 3.5Zm-1-7.8h.3c0-2.3.1-4.5.2-6.7 0-.4 0-.9-.6-.8-.9.1-1.7.3-2.5.6-.2 0-.4.4-.3.6.7 2.2 1.7 4.3 3 6.3Zm-10.1 8.4c2.5-.9 4.7-1.8 6.7-3.3-2.5-.3-4.9-.7-7.4-.2l.7 3.5Zm2.4-12.3c-.7 1.1-1.3 1.8-1.7 2.6-.1.2 0 .7.1.8 2.1 1.1 4.2 1.8 6.5 2.3l.2-.2c-1.7-1.8-3.3-3.6-5.1-5.6Zm12.5 10.4-.2.3c1.5 2 3 3.8 5.1 5.4.7-1 1.3-2 2.1-3.1-2.5-.9-4.7-1.7-7-2.6Zm-11.9 6.4c1 .7 1.8 1.2 2.5 1.7.6.4.9.2 1.1-.4.5-1.3 1-2.5 1.5-3.8.3-.7.4-1.5.7-2.3l-.3-.2c-1.8 1.6-3.5 3.2-5.4 5Zm10.6-12.4.3.2c1.8-1.6 3.5-3.3 5.4-5.1-1.2-.8-2.2-1.4-3.2-2.1-1.1 2.4-2.1 4.6-2.5 7Zm8.6 8 .7-3.6c-2.6-.4-5-.1-7.4.2v.3c2.1 1 4.3 2 6.7 3.1Zm-7 6.9c-.9-2.5-1.8-4.7-3.2-6.7h-.3c0 2.5-.2 4.9-.3 7.5 1.4-.3 2.5-.5 3.7-.8Zm-9-21.9c-1.2.8-2.1 1.4-3 2.1 1.6 2.1 3.4 3.6 5.4 5l.3-.2c-.9-2.3-1.7-4.5-2.6-7Zm16.7 10.2-.7-3.4c-2.5.8-4.7 1.8-6.7 3.1v.3h7.4Zm-7.6-10.5c-1.3-.2-2.3-.5-3.3-.6-.1 0-.4.3-.4.5 0 2.3 0 4.6.2 6.9h.4c1-2.1 2-4.3 3.1-6.8Zm6.6 6.2-2.1-3.1c-2 1.6-3.6 3.4-5 5.3l.2.3c2.2-.8 4.4-1.7 6.8-2.6Zm-11.5 9.3h-.4c-1 2.1-2 4.3-3.1 6.7 1.4.3 2.5.5 3.8.8l-.3-7.4Zm5.5 6.4c1.2-.8 2.1-1.4 3.1-2.1-1.6-2-3.4-3.6-5.3-5l-.3.2c.8 2.2 1.6 4.4 2.6 6.9Zm-9.3-11.5v-.3c-1.9-1.2-4-2.2-6.2-2.9-.2 0-.5 0-.5.2-.3 1-.5 2-.7 3h7.4Z"/>
  <path fill="#868996" d="M126.8 273H144h-17.2Z"/>
  <path fill="#606475" d="M204 256.3c.1 8-6.6 14.9-15.1 14.8-7.9 0-14.6-6.8-14.5-14.8 0-8.3 6.5-14.8 14.8-14.8 8.6 0 14.9 7 14.8 14.8Zm-11-2.5c1.3-.4 2.6-.7 3.9-1.2 1-.3 1.9-.8 3-1.3-.7-1.1-1.4-2-2.1-3.1-1.4 1.5-2.6 2.8-3.9 4.1-.4.4-.7 1-1 1.5Zm-7.3 2.4c0 2 1.6 3.6 3.6 3.6 1.9 0 3.5-1.7 3.5-3.5 0-1.9-1.6-3.5-3.5-3.5-2.1 0-3.6 1.4-3.6 3.5Zm5.8-3.8.3.2c1.9-1.5 3.8-3 5.4-5.1-1-.7-2-1.3-3.2-2.1-.9 2.5-1.7 4.7-2.5 7Zm-13.4 8c2.5-.8 4.7-1.8 6.7-3.2-2.5-.4-4.9-.7-7.4-.3.2 1.2.5 2.3.7 3.5Zm.2-8.9 7.1 2.6.2-.3c-1.7-1.8-3.3-3.6-5.2-5.6l-2.2 3.3Zm10.5-7.1c-1.4.3-2.5.5-3.9.8 1.1 2.4 2.2 4.6 3.2 6.9h.4c0-2.5.2-5 .3-7.6Zm1.4 16.3h-.4c0 2.3-.1 4.5-.2 6.6 0 .6.3.7.8.6.7-.1 1.4-.3 2.1-.5.6-.1.7-.4.5-1-.6-1.3-1.1-2.5-1.6-3.8-.3-.7-.8-1.4-1.2-2.1Zm-.4-8.8h.4c1-2.1 2-4.3 3.1-6.7-1.1-.2-1.9-.4-2.7-.5-1-.2-1.1-.1-1.1.9 0 2.1.1 4.3.2 6.4Zm-3 8.3-.3-.2c-1.2 1-2.3 2-3.5 3-2 1.9-1.9 2.4.6 3.6.5.2.8.2 1-.3.6-1.5 1.2-3.1 1.8-4.6.2-.5.3-1 .4-1.5Zm6.2-1.6v.3c1.2 2 3 3.7 4.9 5.5l2.1-3.2c-2.5-.9-4.8-1.7-7-2.6Zm.7-1.5v.3c2 1 4.1 1.9 6.1 2.8.1 0 .5-.1.5-.2.2-1 .4-2 .7-3-2.6-.4-5-.1-7.3.2Zm6.6-5c-2.4 1.1-4.6 2.1-6.8 3.2v.4h7.5c-.2-1.1-.5-2.2-.7-3.6Zm-19.7 12.4c1.8-1.9 3.4-3.7 5-5.5l-.2-.4c-2.3.8-4.5 1.7-7 2.6l2.2 3.2Zm16.7.5c-2-1.8-3.7-3.4-5.5-5.1l-.2.2c.5 2.4 1.4 4.6 2.6 6.9 1-.7 1.9-1.3 3.1-2.1Zm-10.9-12.2.3-.2c-.6-2.4-1.4-4.6-2.6-6.9-1 .7-2 1.4-3.1 2.1 1.9 1.8 3.7 3.4 5.4 5Zm-1.7 2.8v-.4c-2-.9-4-1.8-6-2.6-.2 0-.7.1-.7.3-.3.9-.4 1.9-.6 3 2.6 0 5 .2 7.4-.3Zm3.8 5.2h-.3c-1.2 1.9-2.1 3.9-2.9 6 0 .2 0 .6.2.6 1 .3 2 .5 3.3.7l-.3-7.4Z"/>
  <path fill="#13232b" d="M47 259.7c-2.1 0-3.5-1.4-3.5-3.5s1.4-3.5 3.5-3.5c2 0 3.5 1.5 3.5 3.5s-1.5 3.4-3.5 3.4Zm0-.8c1.5 0 2.6-1.1 2.6-2.7 0-1.5-1.2-2.6-2.7-2.6-1.5 0-2.6 1.1-2.6 2.6 0 1.6 1.1 2.6 2.7 2.6Zm-1-6.9c-1.2-2-2.2-4.1-3-6.3 0-.2.2-.6.3-.6l2.5-.6c.6-.1.6.4.6.8 0 2.2-.1 4.4-.2 6.7h-.3Zm-10.1 8.4-.7-3.5c2.6-.5 5 0 7.4.2-2 1.5-4.3 2.4-6.7 3.3Zm2.4-12.3c1.8 2 3.5 3.8 5.1 5.6l-.2.2c-2.3-.5-4.4-1.3-6.5-2.3-.2 0-.2-.6-.1-.8.5-.8 1-1.6 1.7-2.6Zm12.5 10.4c2.3.8 4.5 1.7 7 2.6-.8 1.2-1.4 2.1-2.1 3.1a26 26 0 0 1-5.1-5.4l.2-.3Zm-12 6.4c1.9-1.8 3.7-3.4 5.4-5l.3.2c-.2.8-.4 1.5-.7 2.3-.5 1.3-1 2.5-1.5 3.8-.2.6-.6.8-1.1.4-.7-.5-1.5-1-2.5-1.7Zm10.6-12.4c.5-2.4 1.4-4.6 2.5-7 1 .7 2 1.3 3.2 2.1-1.9 1.8-3.7 3.4-5.4 5.1l-.3-.2Zm8.6 8-6.8-3.1v-.3c2.5-.3 4.9-.6 7.5-.2l-.7 3.6Zm-7 6.8c-1.2.3-2.4.5-3.7.8l.3-7.5h.3c1.3 2 2.3 4.2 3.2 6.7Zm-9-21.9c.9 2.5 1.8 4.7 2.6 7l-.3.2c-1.9-1.4-3.8-3-5.4-5 1-.7 1.9-1.3 3-2.1Zm16.8 10.2h-7.4v-.3c2-1.3 4.2-2.3 6.7-3.1l.7 3.4Zm-7.6-10.5c-1.1 2.4-2.1 4.7-3.1 6.9h-.4c0-2.4-.1-4.7-.2-6.9 0-.2.3-.5.4-.5 1 .1 2 .4 3.3.6Zm6.6 6.3c-2.4.9-4.6 1.7-6.8 2.6l-.2-.3c1.4-2 3-3.7 5-5.3l2.1 3.1Zm-11.5 9.3.3 7.4c-1.3-.3-2.5-.5-3.8-.8l3.1-6.8h.4Zm5.5 6.4c-.9-2.5-1.7-4.7-2.6-6.9l.3-.2c1.9 1.4 3.7 3 5.3 5-1 .7-1.9 1.3-3.1 2.1Zm-8.6-8.2-2.4 3c-.4.5-.9 1-1.4 1.4-1.1 1-1.1 1-1.9-.2-.4-.6-.7-1.1-1.2-1.9 1.5-.6 2.8-1.2 4.2-1.7.9-.3 1.8-.5 2.7-.7Zm-.7-3.3h-7.4c.2-.9.4-2 .7-3 0-.1.4-.3.5-.2 2.2.7 4.3 1.7 6.2 2.9v.3Zm.6 3.2Zm142.6-2.6c0-2 1.5-3.5 3.6-3.5 1.9 0 3.5 1.6 3.5 3.5s-1.7 3.5-3.5 3.5c-2 0-3.6-1.6-3.6-3.6Zm6.1 0c0-1.5-1.1-2.6-2.7-2.6-1.5 0-2.6 1.2-2.6 2.6 0 1.5 1.1 2.7 2.6 2.7s2.6-1.1 2.6-2.7Zm-.3-3.8c.8-2.3 1.6-4.5 2.5-7 1.2.8 2.1 1.4 3.2 2.1a26 26 0 0 1-5.4 5.1l-.3-.2Zm-13.4 8c-.2-1.2-.5-2.3-.7-3.5 2.6-.5 5 0 7.4.3-2 1.4-4.2 2.4-6.7 3.2Zm.2-8.9c.8-1.2 1.4-2.2 2.2-3.3 1.8 2 3.5 3.8 5.2 5.6l-.2.3-7.1-2.6Zm10.5-7.1-.3 7.6h-.4c-1-2.1-2.1-4.3-3.2-6.8 1.4-.3 2.5-.5 3.9-.8Zm1.4 16.3 1.2 2.1c.6 1.2 1.1 2.5 1.6 3.8.2.5.2.8-.5 1-.7.1-1.4.3-2.1.5-.5 0-.8 0-.8-.6 0-2.2.1-4.4.2-6.5h.4Zm-.4-8.8c0-2.1-.2-4.3-.2-6.4 0-1 0-1.1 1.1-.9.8.1 1.6.3 2.7.5-1.1 2.4-2.1 4.6-3.1 6.9h-.4Zm-3 8.2c-.1.5-.2 1-.4 1.5-.6 1.6-1.2 3.1-1.8 4.6-.2.5-.5.6-1 .3-2.5-1.2-2.6-1.7-.6-3.6 1.1-1.1 2.3-2 3.5-3l.3.2Zm6.2-1.6c2.3.8 4.5 1.7 7 2.6l-2.1 3.2c-1.9-1.8-3.7-3.5-5-5.5v-.3Zm.7-1.5c2.4-.3 4.8-.6 7.3-.2-.2 1.1-.4 2.1-.7 3 0 .1-.4.3-.5.2-2-.9-4.1-1.9-6.1-2.8v-.3Zm6.6-5c.3 1.4.5 2.5.7 3.6h-7.4v-.4c2.1-1 4.3-2 6.7-3.2Zm-19.7 12.4-2.2-3.2c2.5-.9 4.7-1.8 7-2.6l.2.4c-1.6 1.8-3.2 3.5-5 5.5Zm12.4-10.6c.3-.5.6-1.1 1-1.5 1.2-1.3 2.5-2.7 3.9-4.1.8 1.1 1.4 2 2.1 3.1-1.1.5-2.1 1-3 1.3-1.3.5-2.6.8-3.9 1.2Zm4.3 11.1c-1.2.8-2.1 1.4-3.1 2.1-1.2-2.3-2.1-4.5-2.6-6.9l.2-.2c1.8 1.6 3.5 3.3 5.5 5.1Zm-10.8-12.3c-1.7-1.6-3.5-3.2-5.4-5 1.1-.8 2-1.4 3.1-2.1 1.2 2.3 2.1 4.5 2.6 6.9l-.3.2Zm-1.7 2.9c-2.4.5-4.8.3-7.4.3.2-1.1.4-2 .6-3 0-.2.6-.4.7-.3 2 .8 4.1 1.7 6.1 2.6v.4Zm3.8 5.2.3 7.4c-1.2-.3-2.2-.5-3.3-.7-.1 0-.2-.5-.2-.6.7-2.1 1.6-4.2 2.9-6.1h.3Zm4.4-6.9Z"/>
  <path fill="#808390" d="M47 258.9c-1.6 0-2.7-1.1-2.7-2.6s1.1-2.6 2.6-2.6 2.7 1.1 2.7 2.6-1.1 2.7-2.6 2.7Zm144.8-2.7c0 1.6-1.1 2.7-2.6 2.7s-2.7-1.1-2.6-2.7c0-1.5 1.2-2.6 2.6-2.6 1.5 0 2.7 1.1 2.7 2.6Z"/>
  <path fill="#070556" d="M83.9 302.2h-84V80.9l15.4 40.7 6.4 16.8 23.7 62.5 38.5 101.3z" opacity=".8"/>
  <path fill="url(#a)" d="M-.5-.7h337.2v301.4H-.5z"/>
  <g fill="#070556">
    <path d="M335 0v-.7h-4.3V.7a44 44 0 0 1-88 0V-.7h-4.3V.7c0 26.7 21.6 48.3 48.3 48.3S335 27.3 335 .7V0Z" opacity=".8"/>
    <path d="M329.5.7c0 23.6-19.2 42.8-42.8 42.8S244 24.3 244 .7V-.7h85.5V.7Z" opacity=".8"/>
  </g>
  <path fill="#070556" d="M11.5 271.1h78.1v23.7H11.5z"/>
  <path fill="#fff" d="M89.6 271.1h171.8v23.7H89.6zM210 151.7c-2.7 0-4.9 2.2-4.9 4.9s.4 2.1 1 2.9l4 6.9 4-6.9c.6-.8.9-1.8.9-2.9 0-2.7-2.2-4.9-4.9-4.9Zm0 7.2c-1.2 0-2.2-1-2.2-2.2s1-2.2 2.2-2.2 2.2 1 2.2 2.2-1 2.2-2.2 2.2Z"/>
  <path fill="#070556" d="M39.3 83h258.3v27.4H39.3z" opacity=".8"/>
</svg>
