<svg id="ba935c49-efe5-4c2c-923d-84bac42970f1" data-name="Layer 1" xmlns="http://www.w3.org/2000/svg"
  width="335" height="335" viewBox="0 0 335 335">
  <defs>
    <clipPath id="f373d13c-efa8-49b1-9776-80a7a38badd6">
      <rect width="335" height="335" fill="none"/>
    </clipPath>
    <radialGradient id="f52f505e-fc6a-4168-b4e8-592561a42335" cx="151.75" cy="158.37" r="1299.17" gradientTransform="matrix(0.44, -0.06, 0.03, 0.44, 88.79, 100.77)" gradientUnits="userSpaceOnUse">
      <stop offset="0" stop-color="#146abc"/>
      <stop offset="0.06" stop-color="#0f5190"/>
      <stop offset="0.12" stop-color="#0b3c6a"/>
      <stop offset="0.18" stop-color="#082949"/>
      <stop offset="0.25" stop-color="#051a2e"/>
      <stop offset="0.32" stop-color="#030e1a"/>
      <stop offset="0.41" stop-color="#01060b"/>
      <stop offset="0.51" stop-color="#000103"/>
      <stop offset="0.67"/>
    </radialGradient>
    <radialGradient id="fd66cde7-6f6c-44c7-9bfa-ce027d7a59b3" cx="559.1" cy="-880.11" r="101.75" gradientTransform="matrix(0.36, -0.03, -0.03, -0.36, -35.54, -43.12)" gradientUnits="userSpaceOnUse">
      <stop offset="0" stop-color="#fff"/>
      <stop offset="1" stop-color="#8e8f9c" stop-opacity="0"/>
    </radialGradient>
    <radialGradient id="a8a00a60-392a-4f88-967b-f1dc473afe48" cx="48.35" cy="133.91" r="101.75" gradientTransform="matrix(-0.76, -0.41, -0.16, 0.3, 247.52, 232.49)" gradientUnits="userSpaceOnUse">
      <stop offset="0" stop-color="#fff"/>
      <stop offset="1" stop-color="#070000"/>
    </radialGradient>
  </defs>
  <g>
    <g clip-path="url(#f373d13c-efa8-49b1-9776-80a7a38badd6)">
      <rect width="335" height="335" opacity="0.97" fill="url(#f52f505e-fc6a-4168-b4e8-592561a42335)"/>
      <g>
        <path d="M114.5,259h0Z" fill="#ff931e"/>
        <path d="M247.8,258h0Z" fill="#ff931e"/>
        <path d="M537.6,295.9a29.7,29.7,0,0,0-5-.3c-2.8.3-6.1,0-8.7.3s-4.2.1-6.3.4-4.5-.3-6-1.9-2.7-1.3-4.6-1.1a9,9,0,0,1-2.3.2l-17.8-1.1c-2.1-.2-3.8-1.1-6.3-1l-2.1-1.3a4.6,4.6,0,0,0-2.8-.6c-3.7.8-8.5-.4-12.2.2a5.5,5.5,0,0,1-1.8-.5c-1-.4.2-.5.7-.6a6.5,6.5,0,0,1,2.9-.3h5c.6,0,.6-.2,0-.4s-.6-.5.4-.6h1.5c0-.3-.9-.3-1.6-.4a44.1,44.1,0,0,1-7.3-.8,23.1,23.1,0,0,0-10.2-.6,19.1,19.1,0,0,1-2.4,0l-8.5-.4a25.8,25.8,0,0,1-6.4-.6c-3.1-.1-5.7-.9-8.9-.9s-6.8-.2-10.2-.3-8.2.1-12.4.1a19.8,19.8,0,0,1-6-.8,13.8,13.8,0,0,0-3.8-.4h-3.2c0-.2.6-.3,1.5-.3l38.2,1a8.8,8.8,0,0,1,2.4.3,5.1,5.1,0,0,0,2.8-.1,5.4,5.4,0,0,1,3.4-.1,8.6,8.6,0,0,0,2.4.2c4.7.3,9.6.1,14.1,1l17,.6a9.2,9.2,0,0,0,2.4-.1,18.9,18.9,0,0,1,4.8-.2c3.1.1,5.5-.1,6.4-1.2s.7-.3,1-.5.5-.2,2.7.1a5.9,5.9,0,0,0,2.3,0,3.9,3.9,0,0,1,2.8.2c1.2.4.3.6-.3.9s-.4.4-.2.6,1.3.2,1.9.1a5.9,5.9,0,0,1,2.3,0l6.2.3a6.4,6.4,0,0,1,3.1.2c1.1.2,2.8-.1,3.1-.6s0-.8-1.5-.9l-.8-.2-.6-.2.5-.2h6.6c1,0,1.5-.7,2.8-.2s4.5.1,6.4.8,1.1.4,1.3.3c1.8-.2,3.5-.6,5.2-.9s2.3.2,3.5.1a29.4,29.4,0,0,1,4.2,0,3.6,3.6,0,0,0,1.1-.4l-.6-.2c-2.4-.4-5.1,0-7.4-.7s-4.9-.3-7.4-.5h-1.6c-2.8-1-6-.7-9-.8l-29.6-.6c-.7-.1-1.7-.1-.9-.6a2,2,0,0,0,.9-1c.2-.5.7-.8,2.1-.7h6.7c.5,0,1.2-.2,1.2-.4a1.9,1.9,0,0,0-.8-.7h-.7c-.7-.8-2.6-.7-4-.5s-2.2.5-3.5-.1a15,15,0,0,0-2.7-.7c-1.7-.2-1.7-.3,0-.5l2.7-.7,4.5-1a12.9,12.9,0,0,1,4.8.1,8.4,8.4,0,0,0,3.1.2c2.5-.5,5.4-.4,7.9-.8.3,0,.6-.3.5-.5s-.5-.5-.8-.5h-5c-.5-.1-.5-.3.1-.5s.6-.4.1-.5c-2.1-.4-5.1.4-7-.5l-2.5.8a11.2,11.2,0,0,1-3.2.3c-1.5,0-1.3-.6-1.9-.7-2.3-.6.8-1.5-1.4-2-.4-.1-.2-.6-.1-.9s.2-.2.4-.2a1.1,1.1,0,0,1,1.1.1c.2.2.2.5.6.5s1.1-.2,1.3-.4,1.5-.6,2.6-.7l9.3-.2c1-.1,1.7-.5,1.6-1s-.3-.8-1.7-.9-1.4-.2-1.5-.5.4-.7,2.2-.7,6.3-.8,8.8.2,7.9-.1,11.4-1.1q1.2-.4.9-.9a1.3,1.3,0,0,0-1.1-.3,14.2,14.2,0,0,1-4.7-.4c-1.5-.4-3.4,1-5.1.2s-6,.6-8.7,1.1c-5,1-9.9.8-14.8,1a1.5,1.5,0,0,1-1-.7c-.1-.3-.3-.6.6-.9l6-.7c1.2.5,3-.8,4.1-.1l5.3-.8.6-.2-.6-.2h-1.6c-1.6,0-2.9.1-1.5-.8s-.7-.3-1.4-.3l-24.6,1.3-6.8.4c-2.2.1-2-.2-1-.8s-.8-.4-1-.6-2.7-1.2-5.6-1l-5.1.4c-3.8.1-7.8.7-11.4.2a6.4,6.4,0,0,0-2.2.4,6.5,6.5,0,0,1-2.4.1c-.9-.1-.6-.4-.3-.6l2.9-1.9c-3.3.1-3.4.1-2.2-.9s-.4-.4-1-.4-2-.2-1.2-.8l.7-.5h-1.5l-2.2.5c-2.5-.6-4.5.3-6.7.6a14.3,14.3,0,0,1-2.1.4c-2.7-.3-6.6.4-9.1-.1.4-.7,1.8-1.1,4-1.3a47.1,47.1,0,0,1,6.5-.2c4,.3,5.5-.1,7.2-1.2s.4-.5-.2-.6a5.9,5.9,0,0,0-3.5,0,10.9,10.9,0,0,1-3.9.6,53.6,53.6,0,0,0-8.9.2c-.3.1-.6-.1-.9-.2l.7-.2,6.6-.6.6-.2h-.7a53.4,53.4,0,0,0-9.8,1,2.8,2.8,0,0,1-1.3,0,7.7,7.7,0,0,0-3.7.4,4.1,4.1,0,0,1-2.7,0c-.5-.4-1-.4-2.7,0s-2.6.4-4.5-.1a2.7,2.7,0,0,0-1.8.1,6.6,6.6,0,0,1-4.1.5h-1.6c-3.9,1-8.2.9-12.3,1.1-1.9-.3-3.4.2-5.2.5a10.1,10.1,0,0,1-3.9-.2,10.8,10.8,0,0,0-2.8-.5c-2.4,0-5,.3-7.2.1l-2.2.3-3.1.4c-.1.2-.6.4-1.5.4a69.2,69.2,0,0,1-12.8.2,4.3,4.3,0,0,0-2.9.5,2.9,2.9,0,0,1-1.9.3h-3.8c-.7,0-.8-.1-.2-.2l2.9-.5,2.9-.5a16.8,16.8,0,0,0-3.1.1l-1.8-.2c-1.7-.4-2.3-.4-3.2.1s-4.9,1.1-8,1.5h-2.2c-.6,0,.3-.4,1.4-.6l1.4-.2c.5-.1.3-.4-.2-.4a61,61,0,0,0-10.4.2l-.8.3c-.3.2-.1.3.6.2h4.2c.9,0,1.7,0,1.7.2s-.4.3-1,.5a45.6,45.6,0,0,1-7.5,1,66.7,66.7,0,0,0-8,.6h-1.6l.5-.3c.9-.2.7-.6,3.1-.8a13.8,13.8,0,0,0,2-.3l.4-.2h-1.2a39.2,39.2,0,0,0-5.2.6c-.1-.3.1-.7-2.5-.5a8.5,8.5,0,0,1-1.6,0,8.7,8.7,0,0,0-4,.3,6,6,0,0,1-2.7.1,14.6,14.6,0,0,0-3,.2,32.6,32.6,0,0,1-7,.3,29.5,29.5,0,0,0-6.6.1h-1.4a33.4,33.4,0,0,0-7.1.2c-3.5.5-7.9.2-11.2.7a9,9,0,0,1-2.5-.4h-1.7l-5,.2a20.9,20.9,0,0,1-2.5,0c-.8,0-.9,0-.4-.1s.9-.4-.9-.3a59.9,59.9,0,0,0-6.2.5c.4.1,1.1.2.9.3a21.2,21.2,0,0,1-4.4.1c-.6-.1,0,0,.5-.1s.6-.3-.4-.3h-9.4a40.1,40.1,0,0,1-4.9-.1c-1.5-.1-2.7.3-4.4.2h-.9c-.8,0-1.3-.1-1.2-.2s.3-.5-1.7-.5a55.8,55.8,0,0,1-5.8,0c-2.7-.2-5.5-.1-8.2-.1l-4.1.2c-1.5.1-.6.4-.8.6a3.2,3.2,0,0,1-1.6.4h-1.7a.4.4,0,0,1-.1-.3c-.3-.6-.5-.6-4.2-.3l-4.3.3h-.2a7.9,7.9,0,0,1-4.3.1,30.9,30.9,0,0,0-5.3-.1l-3,.2a12.3,12.3,0,0,1-5,.5l-1,.2c-.2.2-.8.3-2,.1a19.7,19.7,0,0,0-5.6-.2,17.9,17.9,0,0,1-3.2.1,14.5,14.5,0,0,0-5.1,0,64.6,64.6,0,0,1-8.8,0l-8.2-.3H116c-.8,0-1.3-.1-1.4-.3-1.7,0-3.7-.2-4.9-.1-3.2.3-6.5.1-9.8.1H94.5l.6-.2c.3-.2.5-.3.6-.5s-.5-.2-.8-.2h-.5c-.7.6-3.1.7-6.3.5a39.1,39.1,0,0,1-4.9-.3H81a19.2,19.2,0,0,1-4.8,0,32.8,32.8,0,0,0-4.3-.1,46.1,46.1,0,0,0-5.2-.2l-5.8-.2c-.8-.1-.7-.1-.2-.2s1-.3.8-.4-1.6-.1-2.4-.1a57.6,57.6,0,0,0-7.2,0,60.1,60.1,0,0,1-7.4-.4,15.8,15.8,0,0,0-3.2-.3l-7.6-.4c-4-.2-7.5.1-11.6-.3h-.3c.7.1,1.9.2,1.7.3a3.2,3.2,0,0,1-2.2.2,13.6,13.6,0,0,0-2.8-.1,5.4,5.4,0,0,1-2.4.2c-.5-.1-.4-.3-.6-.5s.1-.1,0-.2l-1-.2a12,12,0,0,1-3.8-.1c-1.4-.4-2.3.1-3.4-.2a6.1,6.1,0,0,0-2.7,0c-1.1.2-.9.5-1.2.7s-1.1.2-2,.1l-1.1-.2c-.2-.2,0-.3-.1-.4s-.2-.3-3.1-.8a19.1,19.1,0,0,0-4.7-.4,26.5,26.5,0,0,1-7.9-.5c-2,0-4,.2-5.9-.5a7.5,7.5,0,0,0-1.5,0,19.5,19.5,0,0,1-4.8-.1l-6.8-.5c-1.6-.1-2.6,0-2.9.4h-1.1c-1-.2-1.8-.5-2.2,0s-2.1.6-1.9,1.2-1.3.3-2.5,0a10.4,10.4,0,0,0-2.9-.5,49.5,49.5,0,0,1-5.5.1H-54l1.4.3,1.3.3c0,.3-3,.5-4,.3s-2.1-.5-2.4-.9h-2.8c-1.1,0-2.1-.1-2.3-.5-2.9.1-4.9.9-8.8.3-2.1.4-5.4-.2-7.8,0l-8.1.6-2.9.2a2.1,2.1,0,0,1-1.4-.2c-1.4-1-6.4-.9-7.5-2.1a9.2,9.2,0,0,0-3.7-.3c-.8.8-3,.6-5,.6-.4,0-.3.4-.4.6,2.9.4,3.2,1.8,7.1,1.8.7,0,.8.2.4.4s-1.3.3,0,.5h.8c2.2.1,4.7.5,6.5.2s3.9.7,6,.6l1.4-.2c.5-.1,1,0,1.1.2s0,.4-.3.4c-2.8.1-5.9-.1-8.6.2-6.6-.6-12,.6-18.7-.1h-.7c-2.7,0-4.8,1.1-8.1,0-1.2.1-3.1.1-3.5.4s-5.4.7-8.2.9-6.1-.5-8.8,0c-2-1.1-3.8-.3-5.8-.3s-4.2-1.1-3.2-1.5,1.2-1.8,1.6-2.7.6-.4,1.5-.4,1-.5,2.2-.4,2.6.2,3-.3,1.6-.6,1.5-1-.9-.7-2.1-.9a7.4,7.4,0,0,0-3.6.4l-2,1a4.5,4.5,0,0,1-2.9.2,2.7,2.7,0,0,1-1.2-.7c-.2-.2.1-.5-.2-.6a2.7,2.7,0,0,0-1.2-.5c-1-.2-1.7,0-1.8.3s0,1.4-3.1,1.1h-1.5a35.1,35.1,0,0,1-15.7-.7,11.4,11.4,0,0,0-3.2,0,10.6,10.6,0,0,0-1.9.4,4.8,4.8,0,0,1-3.7-.2,7.5,7.5,0,0,0-6.3-.8,17.9,17.9,0,0,1-3.6.4c-2.4.2-3.5.8-3.6,1.8s.6,1.7-1,2.3.5.5,1,.8a2.3,2.3,0,0,0,2,.1c.8-.3,1.5-.6,1.5-1.1l.6-.2c.3.2.9.3.9.5.6,1.8.4,1.9-3.7,2.6l-5,1c-.4.1-.6.4-.9.5a8,8,0,0,0,1.5.3l4.2.3c1.9.1,1.9.1,2.4,1.5l1.2.3c.3.5.1,1,.6,1.3s1.5,1.2-.4,1.7a24.9,24.9,0,0,0-2.9,1.1c2.2,1.3-.2,1-2,1.1a29.3,29.3,0,0,0-2.9.5c-2.1.2-3.7,1-6.1.8l-.7.2c.4.1.7.4,1.1.4l10.9.2c.2,0,.7.4.6.4s-2.2.8-2.5,1.3-1.7,1.1-3.6,1h-2.5c-1.3.2-.2.5.1.8s.4.4.6.6a12.3,12.3,0,0,0,2.5.5c2.5.1,2.6.8,2.7,1.5,2.6.2,4.5-.6,6.6-1a9.2,9.2,0,0,1,6,.3,7.4,7.4,0,0,0,3.6.7c1.7-.1,3.4,0,5.1,0s2.1.4,2.3,1,.6.8,1.6.5,5.8.1,7.9-.8c.2.1.5.3.5.5s-.5.5-1.5.6a5.8,5.8,0,0,0-1.4.3l1.3.3h2.5c2.5-.2,4.1.1,5.1,1a3.1,3.1,0,0,0,2.5-.4c.2-.3,0-.6.2-.9l1-.3.6.2a4.8,4.8,0,0,0,5,.2c1.1-.8,2.5-1.2,5.1-1.2s4.8.2,6.5-.3,4.1.3,6.2.2l2.4-.2a18.1,18.1,0,0,1,2.3-.3c1-.1,1.6.5,2.8.2s2.2-.2,3.1-.4a63.1,63.1,0,0,1,9.8-.5h4.2c1.1,0,2.9-.2,3,.2s-1.5.2-2.5.3-3.8.6-6.3.6-4.5.6-7.2.5-2.3.3-1.1,1.1-.1.5-.8.5l-4.2.2h-.7a4.5,4.5,0,0,0,1.1.3h2.5c.2,0,.6.1.6.2a1.9,1.9,0,0,1-.8.3h-3.4c-1.2,0-1.8-.2-2.1-.6s-1.8-1.5-4.6-1.5h-5.9l-7.8.9c-1.9.4-1.9,1.2-3.1,1.7s-.3.4.5.4h4.2c.8,0,1.3.2,1.4.5-3,.5-5.6,1.2-9.1,1.5s-6.3.9-9.7.9a19.5,19.5,0,0,0-4.9.4c-1.7.5-2.8-.4-4.6-.1a15.8,15.8,0,0,0-3.2.3c-2,.6-4.3.5-6.5.7l-5.1.2c-2.1-.1-3.3.8-5.4.9s-2.4.3-2.3,1.5,2.3,1.8,5.4,1.3,5.5-.7,7.7.1a6.5,6.5,0,0,0,2.1.4c3-.2,6.2,0,9.1-.8a9.4,9.4,0,0,1,4.7-.1,4,4,0,0,0,1.5.1c2.6-.7,4.6-.2,6.7,0l3.7.5c2.4.4,5.4-.3,7.7.3a19.7,19.7,0,0,1,6.5-.7,14.8,14.8,0,0,0,5.8-1.2,3.8,3.8,0,0,1,2.1-.1,5.1,5.1,0,0,0,3-.1l2.6-.8h.2c0,.1,0,.1.4.1s.3.2.2.3l-1.6,1.2-2.5.7c-1.6.6-.9,1.3-.6,1.9s1.8.1,2.9.2l2.2.2c.4,0,1,.2,1,.3s-.9.4-1.7.4-2.4.2-2.8.6a3.8,3.8,0,0,1-1.7,1,9.5,9.5,0,0,1-3.1.6c-1.3,0-2-.1-2.2-.5s-.9-.3-1.7,0a8.5,8.5,0,0,1-1.9.6,7.8,7.8,0,0,1-2.2.4c-1,0-1.6-.5-2.8,0s-2.9.4-3.3,1-.5.4-.8.6l-1-.6c-.4-.3-1.1-.2-1.2,0s-2.5,1.2-4.4,1.2c-6.5-.1-6.4-.2-11.8.8a15.6,15.6,0,0,1-6.4.3,8.9,8.9,0,0,0-4,.3,23,23,0,0,1-4.7.9c-1.1.1-1.6.7-.9,1.1s1.5,1.5,4.2,1.4,4.6.7,7.5.4,6.2-.8,9.3-.9,5.5-1.4,8.8-1.5,3.3-1.5,5.7-1.5,4.4.5,6.9-.5a3.3,3.3,0,0,1,1.4,0,21.6,21.6,0,0,0,7.1-.6c1.3-.3,1,.1,1.3.3l.9.3c2.1-.4,4.9-.5,5.9-1.4l7.5-.7c1.6-.1,2.7,0,2.8.5,2.3.3,4.7.8,7.4.2a46.6,46.6,0,0,1,6.4-.8c1.9-.2,4.2-.3,5.7-.6a39.6,39.6,0,0,1,8.2-.9c2.7-.1,4.9-.9,7.8-.6,1.4.1,3.9-.2,5.8-.3s3.9.3,6.2,0c.2-.2.3-.4,1.2-.4s.4.2.6.3h1.4a7.5,7.5,0,0,0,3.6-.2l2.5-.7a12.5,12.5,0,0,0,4.3-.3c1.5-.2,3.9.4,3.2.7s-.7.3-1.2.4h-2.4a6.8,6.8,0,0,0-4.1.4,4.8,4.8,0,0,1-2.7.2,9.1,9.1,0,0,0-2.3.1c-1.1.3-.4.8-2.4.9l-4.3.4h-.8a3.6,3.6,0,0,1-3.3.3h-1.7a6.1,6.1,0,0,0-3.4-.7,2.1,2.1,0,0,1-1.5.6l-2.5.2-1,.4c-.2.2.2.4,1.1.4h2.5l1,.2c-1.2.4-1,1-2.8,1.2a11,11,0,0,1-3.1.2,18.6,18.6,0,0,0-6.2.5,43,43,0,0,1-9.4,1.5c-2.5.1-5.4.7-7.5.6a26.1,26.1,0,0,0-7.9.6c-2.4.6-5.5.8-7.3,1.8a7.8,7.8,0,0,1-2.2.3,4.9,4.9,0,0,0-3.4.5,9.5,9.5,0,0,1-4.4.7,25.9,25.9,0,0,0-8.7,1,9.7,9.7,0,0,1-4.7.4,6.6,6.6,0,0,0-2.1.3,26.5,26.5,0,0,1-3,.6c-.8.9-3.4,1.7-3.9,2.6a5.1,5.1,0,0,1-2.2.5c-1.1.1-2-.1-3.1-.1a17.3,17.3,0,0,0-5.6.8,10.7,10.7,0,0,1-6.1.8c-1.1-.1-1.1.4-1.2.7s-.2,1.1,1.9.9h3.1c2.8.1,5.9-.5,8.7-.3a22.7,22.7,0,0,0,4.1-.5,7.7,7.7,0,0,0,3-.8,5.1,5.1,0,0,1,3.9-.8l4.4-1.3a3.4,3.4,0,0,1,1.4-.2l3,.2c2.7.1,5.3.4,8.1.3s5.3-1.5,8.3-2l2.4-.4a19.4,19.4,0,0,0,3.4-1.1c.8-.5,1-.6,2.8-.6,4.4-.1,5.1-.4,13.4-2.1a6.3,6.3,0,0,1,3-.2,6.3,6.3,0,0,0,3-.3,15.1,15.1,0,0,1,3.9-.7,13.3,13.3,0,0,0,4.3-.9c1.3-.7,2.2-.4,3.4-.3a3.3,3.3,0,0,0,2.3-.6,19.2,19.2,0,0,1,4.7-.3,15.6,15.6,0,0,0,4.8-.2c1.3-.1,2.2-.3,2.4-.6s.6-.4.9-.5l8.4-.6c1.8.5,3.3-.4,5-.5s.8-.3.4-.3l-5.3-.2h-.6l.5-.2c3-.4,6.2-.8,8.6-.3a19.5,19.5,0,0,0,5.4,0h1.6a.7.7,0,0,0-.4-.3l-1.7-.3c-.6-.1-.6-.2.3-.4a44.2,44.2,0,0,1,7.2-.2,8.6,8.6,0,0,0,1.5-.1.6.6,0,0,0-.5-.3c-.6-.1-.6-.2.2-.3a9.5,9.5,0,0,1,2.4-.1c2.2.1,2.3.1,3.6-.5l1.9-.4h1.5a60.4,60.4,0,0,0,10.5-.7,6.5,6.5,0,0,1,2.3-.2c1.7.3,4.4,0,6.2.2a9.9,9.9,0,0,0,3-.2l3.7-1a6.4,6.4,0,0,1,2,0c1.8.3,1.7.5-.4.8s-1.7.4-.5.5a4.3,4.3,0,0,0,2,0,21.4,21.4,0,0,1,5.2-1.1,96.6,96.6,0,0,1,10.8-.4,35.5,35.5,0,0,0,9.3-.7,7.3,7.3,0,0,1,2.2-.3l9.3-.4c1.4.3,3.1-.2,4.2-.2a28.1,28.1,0,0,0,6.7-.4,16.2,16.2,0,0,1,3.8-.2h3.1c1.5-.1,1.9.1,1.9.3s-.1.2,0,.3l.7.4c1.3-.2.9-.3,1-.5s-.1-.2,0-.3l.7-.3h1.6c.7,0,.8.1.4.2l-.8.3c-.2.1-.2.3.7.3a23.7,23.7,0,0,0,4.1-.2c.6-.2,0,0-.5-.1s-1.1-.2-.2-.4a59.9,59.9,0,0,1,8.3-.8c1.7,0,2.7,0,2.9.3a2.2,2.2,0,0,0,1.2,0,8.2,8.2,0,0,1,1.4-.1c2,.1,5-.1,6,.4a5.2,5.2,0,0,0,3-.1,2.3,2.3,0,0,1,1.9-.1c.3.1.1.3,1.4.1s3.9-.2,4.9-.6.5-.3,1-.4a9.4,9.4,0,0,1,2.6.2,15.3,15.3,0,0,0,3.1.1,61,61,0,0,1,8.6-.2,54.2,54.2,0,0,1,8.2-.3,67,67,0,0,1,9,.1c2.4-.1,5,0,7.4-.2h2.4c2.8-.1,5.7-.2,8.5-.1s6-.3,9-.3h19.6a31.1,31.1,0,0,0,6.1,0c4.8.5,9.3.1,13.6,0a100.8,100.8,0,0,1,12.3.1h9.1a32,32,0,0,0,5.3.1h1.7a93.3,93.3,0,0,0,12,.3c2.4.4,4.6-.1,6.9.1a21.1,21.1,0,0,0,3.6.2,114.3,114.3,0,0,1,11.7.4,54.1,54.1,0,0,0,9,.2h5.7c3.9.2,8,.1,11.6.7h.8c2.7-.3,6.3.2,8.8,0s6.1,0,9.1.1l9.4.4c1.9.6,4.6.3,6.7.5s5.6.4,8.3.6c1.1.1,2.3.1,3.3.3a34.7,34.7,0,0,0,7.2.3c2.5-.1,5.7.3,8,0a9.9,9.9,0,0,1,2.4.1,41.8,41.8,0,0,0,7.3.8c4.1.3,8.5.2,12.4,1.1s9.6.8,14.1.5a9.2,9.2,0,0,0,4.2-.4,28.1,28.1,0,0,0,6.5.7c3.6.1,6.5.9,9.8,1.1l17,1.3a15.3,15.3,0,0,0,3.8-.1c.9-.3,2.4-.2,3.4-.4a13.6,13.6,0,0,1,5.3.4,10.2,10.2,0,0,0,5.2,0,11.8,11.8,0,0,1,5.3,0c2.9.6,5.9.9,8.7,1.4a69.7,69.7,0,0,0,14.7,1.1,6.1,6.1,0,0,1,2.3.3c3.1,1,6.6.8,9.9,1.2a12.4,12.4,0,0,0,4.7.1,7.3,7.3,0,0,1,3.8.4c1.4,1.3,3.5,1.5,5.9,1.2s1.4.2,2.1.4a10.6,10.6,0,0,0,3.9.3c.9-.2-1.7-.8-.1-.9s2.5.2,3.2.1l7.3-2a15.8,15.8,0,0,1-1.2-1.5c-.3-.6.9-1,2.5-.7s5.1,1.2,8,1.3l.7.2c.3.2.1.5-.6.4-2.5-.3-1.6,1.2-3.8,1.1a1.5,1.5,0,0,1-.2.9q-.3.3-1.2,0c-.6-.2-1.3-.6-2-.2l-1.6,1.2c-.3.3.3.7,1.1.9l5,.7,3.1.8c1.2.2,2.4,0,2.5-.4a8.6,8.6,0,0,0,.1-1.6c.1-.7-.8-1.1-2.4-1.4s-.9-.4-.4-.4a24.9,24.9,0,0,0,3.4-.5c1.5-.7,2.7-.1,4.1.3s1.5,0,1.4-.4-1.4-.5-.2-.8c3.3-.6,7.6.2,11-.4.6-.1,2,.6,2.8.6s3-.4,4.4-.6,1.5-1.3-.2-1.9A25.2,25.2,0,0,0,537.6,295.9ZM493,276.3h0a1,1,0,0,1-.5.4H492C491.9,276.4,492.4,276.3,493,276.3Zm-5.9-16.1h.5v.2h-1Zm-26.9-.3h.5l-.5.2h-.5Zm-1,2.1h2.5c2.3-.1,3.7-1,6.3-.9s3.9-.1,5.9-.2l6.7-.4c2.2-.1,3,.5,2.1,1.4l-.6.2-.6-.2c-.2-.5-.8-.8-2.6-.7a32.5,32.5,0,0,0-3.3.2,34.5,34.5,0,0,1-3.9.7l-11.7.3c-.3.1-.5-.2-.7-.3h-2.5l-.5-.2a1.9,1.9,0,0,1,.8-.3C458.4,261.4,459.1,261.5,459.2,262Zm-3.2-2.5,1.1.2-2.4.7-.5-.2c-.1-.1-.1-.1,0-.2S455,259.5,456,259.5Zm-30.4-.9h1.3l1.4.2-1.4.3h-3.1Zm-10,.7h.5q.6.2-.3.3h-.2Zm-1.8-4.1,1.1-.2h0c-.2.1-.2.3-.5.3S413.5,255.4,413.8,255.2Zm-6.9,4.1h6c-.1.3-2.4.8-3.3.8s-2.8-.3-3-.7S406.8,259.4,406.9,259.3Zm-2.8.5h.5l-.5.2h-.6Zm-502-5.1c-.4-.1-.5-.3-.7-.4h0l-2.4-.2-.5-.2.9-.2c1.3,0,2,.3,2,.6h0l1.3.2C-97,254.7-97.5,254.8-97.9,254.7Zm-45.5-2a.7.7,0,0,1,.5.4h0l-1.1-.3C-144.3,252.7-143.9,252.5-143.4,252.7Zm4.3,15.2,1.3-.2c1,0,1.8.2,1.3.4h-1.3a5,5,0,0,1-1.3-.3Zm-19.8-11.7.8.6-.5.4c-.4-.1-1-.2-1-.3S-159.1,256.5-158.9,256.2Zm-7.1-.3,1,.3a1.9,1.9,0,0,1,.1.8h.2c.6,0,1.2.1,1.1.4h-.6l-.5-.4h-.2c-1.1-.2-1.7-.4-1.5-.9S-166.1,255.9-166,255.9Zm-8.1,0,.5.3h-.6l-.5-.2C-174.7,256-174.3,256-174.1,255.9Zm-15.1,17-.7-.2.5-.2.5.2Zm1.8-3.3a6.2,6.2,0,0,1-3.3.7c-.4-.1-1-.2-1.1-.4a.4.4,0,0,1,.2-.6,9.4,9.4,0,0,1,3.8-.2l.6.2Zm.2-1.5a1.3,1.3,0,0,1-1.2,0,9.5,9.5,0,0,0-3.8-.5l-1.2-.4,1.4-.2a8.5,8.5,0,0,1,1.6,0h2.4a1.9,1.9,0,0,1,1,.4C-186.9,267.7-187,267.9-187.2,268.1Zm1.1-10.5a4.7,4.7,0,0,1-.6-.9h1c.1.2.5.4.4.5S-185.8,257.4-186.1,257.6Zm17,14.3-1.1.4c-.6.2-1,.2-1.2-.1a.4.4,0,0,1-.1-.3c-.1-.3.5-.5,1.4-.5h1.4C-168.8,271.6-168.8,271.8-169.1,271.9Zm56.7-1.4a5,5,0,0,1-2.1.2,8.2,8.2,0,0,0-3.5-.1,8.6,8.6,0,0,1-3.9-.1,5.2,5.2,0,0,0-2.8.1,4.6,4.6,0,0,1-3.8-.1c-1.6-.5-2.2-.4-2.5.3a3,3,0,0,1-1.2.3h-4.2a54.3,54.3,0,0,0-9.9.4c-1.6.2-4.6.4-5.2-.9s-1.4-.3-2.2-.3a13.6,13.6,0,0,0-2.9.6,27.8,27.8,0,0,1-7.2.5c-1.7,0-2.5-.3-2.9-.9s-1-.7-1.5-1.1c-3.9,0-7.8-.5-11.4.4-.8.2-2.2-.2-2.1-.8s-.7-1.2-2.7-1.3c-.2,0-.4-.2-.6-.3h.7c1.1,0,2.2-.1,3.3,0a81.7,81.7,0,0,0,8.6.2,19.3,19.3,0,0,1,3.4,0c1.2.1,2.4.5,3.7.5l3.1-.3h.8l1.3.3c.3.3.4.7-.5.8l-2.2.4c-.5.1-.2.8.4.8h4.9c.9,0,1.1-.4,1.1-.7s-2.2-.6-.6-.9a5.9,5.9,0,0,1,2.3,0h.2c.1-.1.3-.4.5-.4,1.9,0,3.9-.1,5.8,0a13.4,13.4,0,0,0,4.6-.4c.7-.1,2.3.1,2.1.2a4.6,4.6,0,0,1-1,.5,6.5,6.5,0,0,1-2.9.3l-9.1-.2a.1.1,0,0,0-.1.1h-.1c0,.3-.1.6.2.8a6.6,6.6,0,0,0,3,.4,20.8,20.8,0,0,0,2.5,0c2.1-.6,4.7-.4,7.2-.4s5.1.2,7.1-.5c3.9.2,7.9.2,11.8.5h2.8c2.7-.1,5.6,0,8.4,0l.7.3A3.1,3.1,0,0,1-112.4,270.5Zm6.5-.8c-1,.1-1-.1-1.1-.3h-1.3c-.4-.2.1-.3.6-.2a.6.6,0,0,1,.5.3h.2l1.2.2Zm-38,12.1-.4-.3h-.1a.1.1,0,0,1,.1.1h1C-143,281.7-143.4,281.9-143.9,281.8Zm10.2-.3a.7.7,0,0,1-.5-.4l.8-.4h0l.7.3C-132.6,281.3-132.7,281.5-133.7,281.5Zm6.9,7a.7.7,0,0,1-.5-.4h1.1C-125.9,288.4-126.4,288.5-126.8,288.5Zm2.6,7.6c0-.1,0-.1-.1-.1s-1.1,0-1-.3h.6l.4.3h.1Zm2.4-8.5c-.2-.1-.5-.2-.5-.4l1-.4.5.6C-120.8,287.5-121.5,287.6-121.8,287.6Zm10.4,2.7h-.5l.6-.2.5.2Zm10.2-14.9-.5-.2h1.2Zm25.6-3.3-.5-.2h.6l.5.2Zm7.1-.5h-1.3l-.5.3c-.1,0-.6,0-.6-.1s.5-.2,1.1-.2h.3a.5.5,0,0,1,.4-.2C-68.6,271.4-68.2,271.5-68.5,271.6Zm11.7-.1-1.3.2a1.5,1.5,0,0,1-1.2-.1c-.2-.4.6-.6,1.9-.5h.7C-56.2,271.2-56.2,271.3-56.8,271.5Zm-24.2,28-.6.4h-6c-.2.1-.4,0-.6,0l.6-.2,6.6-.7C-79.6,299-80.7,299.3-81,299.5Zm5-4,1.1-.2h0a.6.6,0,0,1-.5.3C-75.8,295.8-76.3,295.7-76,295.5Zm4.2,2.5-3.7.8c-.2,0-.8,0-.8-.1s-.1-.9-1.4-1.1l1.2-.3,5,.3C-71.3,297.6-71.5,297.9-71.8,298Zm33.8-6.9c-2.1.2-3.7.8-6.1.8a.1.1,0,0,0,.1.1h-.2l-.5.3c-.5.1-.9,0-.6-.1l1.1-.2h.1a5.9,5.9,0,0,0-2.3-.2c-.7,0-.8-.2-.4-.3l5.3-.8a9.4,9.4,0,0,1,3.5.2C-37.6,290.9-37.5,291.1-38,291.1Zm.1-36.7c-.4,0-.9-.1-.6-.2h1.3c.1-.3.9-.3,2.1-.2l.6.2c-.1,0-.2.2-.5.2l-2.2-.2h-.2A.6.6,0,0,1-37.9,254.4Zm4.7,16.8h-1.9l-1.9-.2,2.3-.2h1.5Zm8.1-16.5a14.6,14.6,0,0,1-4.6-.2.7.7,0,0,1-.6-.3h-.3c-.6-.1-1.2-.1-1.1-.3h.6l.5.3h.3a20.5,20.5,0,0,0,4.3,0,4.3,4.3,0,0,1,1.6.1C-23.7,254.6-24.6,254.6-25.1,254.7Zm4.1.4h-.5l.5-.2.5.2Zm7,.4h-.3c-.8-.1-.7-.2.1-.2l.6.2Zm10.3.2h-.6l-3.9-.2h-.2c0,.3-.9.3-2,.2h2.2c.1-.2,1-.3,2.1-.2l2.3.2Zm78.2,6.5c-.8-.1-.8-.1.1-.2h-.1ZM91.7,271h-.8l.5-.2.8.2-.4.2Zm7.5-8-.8.3H96.9c-.8,0-.8-.1-.5-.2l1.5-.4h.5l.8.2C99.3,262.8,99.2,262.9,99.2,263Zm26.8.7h0Zm10.7,7.6h-1.4a.4.4,0,0,1-.1-.3h-1.3c-.3-.1.1-.1.6-.1a.6.6,0,0,1,.5.2h.2Q137,271,136.7,271.3Zm4.1-7.9H142l1.5.3h-.7a7.5,7.5,0,0,1-2.4-.1C140.3,263.6,140.5,263.5,140.8,263.4Zm3.1,7.9h-4l-.9-.2h.4a17.5,17.5,0,0,1,4.2-.2,4.2,4.2,0,0,1,1.6.2C145.4,271.2,144.6,271.2,143.9,271.3Zm6.4-.3h0Zm6.2-7.4h0Zm2.7-3.6h0Zm14.5-.2h0Zm1.7,4.3a15.3,15.3,0,0,1-3.7,0c-.4,0-.6-.2-.3-.3a32.3,32.3,0,0,1,4.4,0h.2A1.1,1.1,0,0,1,175.4,264.1Zm11.8-3.9a6.6,6.6,0,0,1-2-.1h2Zm4.5-1.9c-.9.1-1.7,0-1.3-.1h1.3Zm12.8.1h-.3c-1.5.1-3.3.1-4.7.3a7.9,7.9,0,0,1-2.3-.2c0-.1,0-.1.1-.1a55.8,55.8,0,0,1,7.1-.1h.1Zm18.5,1.3h0Zm17-.1h-8.3l-.7-.2c-.1-.1.4-.2.6-.3,2.3.4,5.3.1,8.1.1h.3Zm41.8-.9h-.6c-.9,0-.8-.1,0-.1Zm3.9,0h-1.4c-.1-.2.8-.2,1.4-.3H287Zm8.4-1.3a.1.1,0,0,0-.1.1h-.1c-.1.2-.1.5-.3.7s-.5.2-1.2.1-1.9-.2-.4-.5l1.9-.3h.2c.2-.4,1.9-.3,3.2-.4h0C297.1,257.4,295.4,257.4,294.1,257.4Zm69.6-2.3c-.2.2-.7.3-1.6.3s-1.5.1-1.5-.2,1-.5,2.1-.5S363.9,254.9,363.7,255.1Zm26.9,27.3H390c-.2-.3.4-.3,1-.3h0Zm7.5,9.1-2.5-.2h0l-3.3-.2c-.2,0-.7-.1-.6-.2a1,1,0,0,1,.7-.2,7.9,7.9,0,0,1,3.5-.1l2.2.4,1.3.3Zm16.2.4a10.9,10.9,0,0,1-2.6.4l-9.1-.6c-.6,0-1.4-.4-1.1-.5a2.9,2.9,0,0,1,1-.3l5.8.3h0l5.8.4c.2,0,.6.1.6.2Zm6.9.5c-.7.2-1,.5-1.6.7a3.8,3.8,0,0,1-2.1-.1c-1-.2-.9-.4-.5-.6a7.6,7.6,0,0,1,3.1-.5h.9C421.8,292.2,421.7,292.2,421.2,292.4Zm25.5.6c-1.9.4-3,1-3.3,1.7a4.5,4.5,0,0,1-1.3.1c-4.3-.8-8.7-1.5-12.7-2.4-.6-.1-.5-.3.1-.4a37.5,37.5,0,0,1,8.9-.4c2.9,0,5,1,7.9,1C447,292.6,447.2,292.9,446.7,293Z" fill="#ff931e"/>
        <path d="M174.3,258.7h0Z" fill="#ff931e"/>
        <path d="M166.1,258.3h2.6a6.7,6.7,0,0,0-2,0Z" fill="#ff931e"/>
        <path d="M174.3,258.7Z" fill="#ff931e"/>
        <path d="M172.2,258.5h-.6l.5.2h2.2C174.1,258.5,173.4,258.5,172.2,258.5Z" fill="#ff931e"/>
        <path d="M63.7,257.1a1.2,1.2,0,0,0,1,0h-1Z" fill="#ff931e"/>
        <path d="M248,258h0Z" fill="#ff931e"/>
        <path d="M249.1,257.8h-.6l-.5.2C248.6,258,249.3,257.9,249.1,257.8Z" fill="#ff931e"/>
        <path d="M252.2,257.8h0Z" fill="#ff931e"/>
        <path d="M115.8,258.9h-.6l-.4.2C115.4,259,116,259,115.8,258.9Z" fill="#ff931e"/>
        <path d="M114.8,259h0Z" fill="#ff931e"/>
      </g>
      <g>
        <path d="M158.8,360.4c-2.1-.8-2.5-2.9-3.3-4.6s-1.1-1.3-2.2-.5-2.1,2.5-3.5-1-1.9-5.1-1.4-7.9c-.7,1.8-1.3,3.6-2.8,4.9.7-2.8,1.4-5.6,2-8.5,2.5-11,.2-20.9-7.2-29.5a121.4,121.4,0,0,1-7.7-9.7,7.6,7.6,0,0,1-1.2-1.9c-.7-2.8-2.8-4.1-5.3-5.1s-3.4-1.7-3.5-3.8,1.8-3.1,3.4-4c4.3-2.3,9-3.3,13.7-4.1a177.2,177.2,0,0,1,36.3-2.3c11.3.4,22.5,1.2,33.3,4.7a15.6,15.6,0,0,1,6.1,3.2q2.5,2.4,0,4.8a14.9,14.9,0,0,1-5.7,3,4.7,4.7,0,0,0-3.6,3.1c-1.3,3.6-4,6.4-6.3,9.5s-7.1,8.9-9.1,14.5a84.7,84.7,0,0,0-2.5,8.6c-1,3.9.3,7.7.8,11.4s1.1,6.2,1.7,9.4a6.4,6.4,0,0,1-3.2-1c-.8-.6-1.1-.3-1.1.6v3.2a8.2,8.2,0,0,1-3.5-1.3c-1.2-.8-1.8-.7-2.2.7a2.4,2.4,0,0,1-.9,1.3,6.1,6.1,0,0,1,.3-1.3c.8-1.5.3-2.4-.9-3.4-3.2-2.5-3.2-2.6-5.2,1.2-.4.9-.3,1.3.5,1.7a35.9,35.9,0,0,1,4.7,2.7,8.1,8.1,0,0,1-5.4-1.7c-.9-.5-1.4-.4-1.9.5s-1.1,1.7-1.7,2.6-1.1,1.2-2.1.5l-4.1-3c-1-.9-1.6-.7-2.4.2a6,6,0,0,1-2.2,2c.3-1.3,1.5-2.1,2.3-3.2s.6-.9.2-1.5-1.4-2.6-2.2-3.8-.4-.9-.8-.6a11.7,11.7,0,0,0-3,2.4c-.6.7.4,1.4.6,2.1S158.8,358.4,158.8,360.4Zm17.9-74.2H162.6c-1,0-.5.7-.2,1l6,9.1c.6.9,1,.8,1.5,0l4-5.9Zm-10.6,10.9c.4.4.7.5,1,.2s-.1-.6-.3-.9l-6.4-9.4c-.7-.9-1.4-1.1-1.9.1-1.2,2.8-2.4,5.5-3.5,8.3-.5,1.1-.1,1.7,1.1,1.7Zm4.5.3c1.6.4,3,0,4.4,0l7.3-.2c1.1-.1,1.7-.4,1-1.6q-2.4-4.1-4.5-8.4c-.7-1.1-1-.4-1.4.2l-5.1,7.4Zm14.7-.6,7.5-8.5c.9-1,0-1-.6-1l-11-1c-1.2-.1-1,.5-.6,1.2Zm-31.5-10.2-7.5.7c-1,.1-1.3.4-.6,1.3,2,2.6,4,5.1,6.1,7.6s1.4.9,1.9-.5l2.4-6.7C157.1,286.2,157.1,286.5,153.8,286.6Zm4.1,29.9,1.3-3.2c.7-1.4,2.3-2.7,1.9-4.2s-2-2.3-3.1-3.5l-.3-.2c-.6-.8-1.1-.8-1.5.3s-1.2,3.5-1.9,5.3a1.9,1.9,0,0,0,.4,2Zm25.9-5.5c0-.2,0-.3-.1-.4-1-1.9-1.9-3.8-3-5.7s-.7-.3-1,0c-3.1,2.5-3.3,3.2-1.8,6.9l.5,1.2c1,2.7,1,2.7,3,.7l1.8-1.8C183.4,311.6,183.8,311.4,183.8,311Zm-19.6,1.4a.7.7,0,0,0-.7.4l-3,5.4a1.6,1.6,0,0,0,.3,1.7c2.6,3.1,2.6,3.1,5.2,0l.3-.4c2.1-2.9,2.2-2.9-.4-5.5A5.2,5.2,0,0,0,164.2,312.4Zm5,3.4.5-.6,2.4-3.1a1.3,1.3,0,0,0,.1-1.9,44.4,44.4,0,0,1-2.7-3.8c-.5-.7-1-.8-1.6,0l-2.5,3.6a1,1,0,0,0,.1,1.6,19.3,19.3,0,0,1,2.9,3.5C168.6,315.4,168.7,315.7,169.2,315.8Zm17.8-19,7.7-.8c.9-.2,1.3-.6,1.2-1.5s-.5-4.3-.8-6.9A58.7,58.7,0,0,0,187,296.8Zm-22.9,47.1.2-.3c2.5-2.5,2.7-3.6.7-6.7a14,14,0,0,0-1-1.6c-1.3-2.1-1.5-2.1-3.3-.4l-.8.9a1.1,1.1,0,0,0-.2,1.6l3.6,6C163.5,343.6,163.6,343.9,164.1,343.9Zm-1.4,1.2a.6.6,0,0,0-.1-.4,27.7,27.7,0,0,0-3.8-6.4l-.4-.2c-.7-.1-2.7,2.8-2.3,3.5s2.1,4.1,3.1,6.2c.2.3.3.6.7.5S162.8,345.5,162.7,345.1Zm10.8-32.8c-.3,0-.5.3-.7.5-3.1,3.2-3.2,4.9-.2,8.3.1.2.3.5.6.5s4.2-3.8,3.9-4.4l-3.2-4.6Zm-4.4,48.4h.4a13.6,13.6,0,0,0,2.2-4.1c.3-1.1-.9-1.5-1.6-2s-1.5-2.4-2.8-2.1-1.7,1.7-2.6,2.5a1,1,0,0,0,0,1.7,21.6,21.6,0,0,0,3.7,3.7Zm-16.6-15.2c.3,1.1.6,2.3,1,3.6,1.2,3.8,1.8,3.9,4.5,1.1.5-.5.7-.9.4-1.5l-2.9-6c-.1-.3-.2-.8-.8-.6S152.4,344.5,152.5,345.5Zm-9.7-57.6c-.5,2.4-.9,4.3-1.2,6.3s-.1,1.3.8,1.4a48.5,48.5,0,0,0,8.1,1Zm26.3,30.7c-.5,0-.6.3-.8.6s-1.3,1.6-2,2.3c-2,2.3-2,2.3.1,4.6s1.3,1.8,3,0c3.1-3.3,3.1-3.2.3-6.8Zm6.2,21.8h-.4a22.7,22.7,0,0,0-2.7,4.4.9.9,0,0,0,.3.6l2.9,3.3c.5.5.8.4,1.3-.1,2.8-2.9,2.8-4,0-6.9a4.7,4.7,0,0,0-1-1Zm0,10.3c-.1-.9-.7-1.2-1.1-1.6s-1.9-2.5-2.8-2.5-1.6,2-2.4,3.1-1.2,1.3-.4,2.2a9.1,9.1,0,0,0,3.7,2.8.2.2,0,0,0,.3-.1C173.6,353.3,174.5,351.9,175.3,350.7Zm-4.8-16.3a21.8,21.8,0,0,0-2.8-4.6c-.3-.1-.5.1-.8.3-3.3,2.1-3.4,2.2-1.2,5.6l1.4,2.3c.2.2.3.6.7.4A21.6,21.6,0,0,0,170.5,334.4Zm26.1-45.6c.2,1.7.5,3.3.8,4.9s-.2,1.4.6,1.6a2.1,2.1,0,0,0,2.2-.9c.8-1.3,1.7-2.5,2.6-3.8s.6-1.2-.4-1.4l-5-1.2C196.8,287.9,196.4,288.1,196.6,288.8ZM173,324.6l-.4.2-3.6,3.6c-.4.3-.2.7-.1,1,1.8,3.8,2.5,3.9,5.2.8l.6-.8a1.7,1.7,0,0,0,.1-2.5l-1-1.7C173.6,324.9,173.4,324.6,173,324.6Zm-32.9-36.4-4.9,1.4c-.4.1-.7.4-.3.9s1.8,2.7,2.8,4a2.6,2.6,0,0,0,2.4.6c.9-.1.6-1.1.7-1.7s.2-2.7.4-4S141,288.2,140.1,288.2ZM178,319.1c-.1.2-.4.3-.6.5l-2.1,2.2c-1.2.9-1.2,1.9-.4,3.1,1.8,2.7,1,2.7,3.4.7s3.1-3,.5-6C178.6,319.4,178.4,319.1,178,319.1Zm6.3-6.1c-4.5,3.5-4.8,4.3-2.8,8.1l.3.6a.4.4,0,0,0,.6.2c.7-.3,2.9-3,2.8-3.7S184.6,314.9,184.3,313Zm-17.6,38.2a2.5,2.5,0,0,0-.9-1.6c-2.7-3.7-1.6-3-4.9-.4-.4.4-.6.8-.3,1.3l2.1,3.5c.2.3.5.9.9.5Zm9.7-21.4H176a32.5,32.5,0,0,0-3.5,3.9c-.3.5,1.8,3.7,2.5,3.8s.6-.3.8-.6l2.3-3.1C178.5,333.2,177.1,329.9,176.4,329.8Zm-8.5,11.3-.8.5a23.6,23.6,0,0,0-2.2,3.8c-.4.9.7,1.7,1.1,2.5,1.4,2.3,1.5,2.3,2.8-.1l1.2-2.1a1.1,1.1,0,0,0-.1-1.5c-.6-.8-1.1-1.6-1.7-2.3A2.6,2.6,0,0,1,167.9,341.1Zm-16.6,5a3.5,3.5,0,0,0-1.5,4.7,21.4,21.4,0,0,1,.6,2.7c.6,2.7.6,2.7,2.7.9.5-.5,1.4-.8.9-1.8S152.1,348.3,151.3,346.1Zm-2.4-31.2c1.1-3.8,1-7.2-3.1-9.1C144.7,312,145,311.6,148.9,314.9Zm-3.8-1.4c-.1,4.1,1.6,9.8,4,10C149.8,319.4,149.4,315.7,145.1,313.5ZM174,338.8a30.9,30.9,0,0,0-2.5-3.1c-.2-.3-.5.2-.7.4s-1.4,2-2,3,1.3,4.3,2.2,4.4h.3C171.6,343.3,174,339.5,174,338.8Zm-30.9-23.6c-1.1-3.5-1.7-6.8-4.6-9a19.9,19.9,0,0,1-2-2.1l-1.6-1.8-1.5-1.5-.3.3A107.1,107.1,0,0,0,143.1,315.2Zm36.4,28.3,1.4-4.6c.2-.8-.9-3.7-1.6-3.9s-1.3,1.2-2,1.9a5.4,5.4,0,0,0-.9,1.2,1.2,1.2,0,0,0,0,1.6Zm12.5-38c-1.1,1.1-2.8,1.5-3,3a31.1,31.1,0,0,0-.1,5.3c0,.3.2.8.6.5s2.5-1.5,2.8-2.8A11.2,11.2,0,0,0,192,305.5ZM181,353c.5.1.6-.3.7-.6l.7-2.1c.4-1.3-.7-3.9-2.1-4.3s-1,1.3-1.7,1.9a6.2,6.2,0,0,0-1,1.6,1.1,1.1,0,0,0-.3.7C177.3,350.6,180.6,353,181,353Zm-27.3-39.5a18.7,18.7,0,0,1-.7,3.3c-.9,2.3.7,3.6,2,5s.6.2.9-.2c2-3.2,1.9-3.7-.7-6.4Zm13.1,14.9c0-.5-2.6-3.4-3.1-3.4a13,13,0,0,0-3.2,3.4,8.7,8.7,0,0,0,2.6,2.8C163.7,331.2,166.8,328.9,166.8,328.4Zm-18.9-26.5c-.5.1-1.5-.6-1.8.4a2.4,2.4,0,0,0,.6,2.5l2.7,2.6c.6.7,1,.5,1.2-.4l.3-1.1C152,302.1,152,302.1,147.9,301.9Zm36,.7c-2.4,0-2.4.1-1.4,2a35.4,35.4,0,0,1,1.6,3.4c.2.6.1,1.8.8,1.9s1.2-1,1.9-1.5.3-.9.1-1.4a13.8,13.8,0,0,1-.8-2.7C185.8,302.9,185.1,302.3,183.9,302.6Zm-1.1,24.9c-.3-.9-.4-2.3-1.3-2.7s-1.3,1-1.9,1.5a15.9,15.9,0,0,0-1.3,1.3,3,3,0,0,0,.6,4.2c1.2.7,1.3-1,1.9-1.4a11.4,11.4,0,0,0,1.5-1.6A1.4,1.4,0,0,0,182.8,327.5Zm-41.4-25.9c-.6,4.7.5,7.6,2.9,8.8C144.9,307,145.5,303.6,141.4,301.6Zm-1,5.1a18.7,18.7,0,0,1-.4-4.7c0-.6.1-1.2-.7-1.4l-5.2-1.1A36.6,36.6,0,0,0,140.4,306.7Zm53,3.9c2.7-1.8,4-5.2,3.2-7.8-.1-.3-.2-.6-.6-.5s-3,2.6-2.9,3.1S193.2,308.8,193.4,310.6Zm-40.2.4a25.8,25.8,0,0,1,1-3.3,16.9,16.9,0,0,1,1.3-3.1c.4-.8.6-1.6-.5-1.9s-1.9-.3-2.2,1a21.5,21.5,0,0,1-1.1,3.6C151,309,151.6,310.1,153.2,311Zm7.8-8.1h-2.2c-.4,0-.9-.3-1.1.2s.3.7.6,1,1.7,1.7,2.5,2.7,1.4,1.1,2.2-.2C165,302.9,165,303,161,302.9Zm1.4,20.8c0-.4-2.1-3.1-2.5-3.1s-1,1.2-1.4,1.9a5.1,5.1,0,0,0-.9,1.6c-.3.8,1.3,3,2,3A13,13,0,0,0,162.4,323.7Zm-.7,8.5a6.3,6.3,0,0,0-1.9-2.4c-.9-.5-1.2.6-1.8,1l-.9,1c-.4.4-.9.7-.4,1.4s.9,1.9,1.9,2.3S161.7,332.8,161.7,332.2ZM191.8,303c0-.7-.3-1.2-1.2-1.1l-2,.3c-2,.2-2.2.4-1.5,2.3s.4,1.8,1.3,2.1S191.8,303.9,191.8,303Zm-10,36.4c-1.8,4.6-1.5,6.7,1.5,7.4C183.3,344.3,184.9,341.4,181.8,339.4Zm-.2-3.2,2.2-2.7a7.1,7.1,0,0,0-.5-3.8c-.3-.3-.5-.1-.7.1C179.9,331.7,179.6,333.4,181.6,336.2Zm-8.5-33.3c2.4,4.7,3,4.8,5.7,1.1h.1c.6-.8.3-1-.5-1Zm13.3,41.4c-.9,4.4-.6,6.5,2.8,8.5C187.7,345.2,187.7,345.2,186.4,344.3Zm-34-23.3a1.9,1.9,0,0,0-.2.7c-.3,1.3-.5,2.6-.7,3.9a1.6,1.6,0,0,0,1.1,1.9c.8.2,1-.7,1.2-1.2C155.2,323.5,155.1,323.1,152.4,321Zm22.4-12.7a2.5,2.5,0,0,0-.4-.7c-.8-1.3-1.7-2.5-2.6-3.8s-.7-1.1-1.5-.6a1.2,1.2,0,0,0-.1,1.8l3,4.1c.2.3.4.7.8.5A1.7,1.7,0,0,0,174.8,308.3Zm8.8,18.7c2.5-2.2,2.6-2.8,2.1-5.7-.2-.9-.5-.8-1.1-.3S182.3,323.9,183.6,327Zm8.6-13.1c-1.5,1.5-3.9,2.4-3.1,5.2.1.4,0,.9.4,1.1s.8-.3,1.2-.5C192.7,318.2,192.3,316,192.2,313.9Zm5.2-6.7c1.7-1.8,3.7-2.7,3.2-5.3-.1-.5.1-1.3-.7-1.2s-1.7,0-1.8,1.1A42.2,42.2,0,0,1,197.4,307.2Zm-11.6,49.3a12.9,12.9,0,0,0-.3-2.3c-.2-1.2.1-2.5-1-3.4s-.8-.7-1.2.1c-1.4,2.8-1.4,2.9,1.1,4.7A6.8,6.8,0,0,0,185.8,356.5ZM154.6,330a2.6,2.6,0,0,0,1,1.6c.7.5.8-.3,1.1-.7a6.9,6.9,0,0,0,1.1-1.3c1-1.3.8-2.5-.6-3.3s-.5-.3-.6,0Zm41.5-16.7c1.5-2.5,4.6-4.1,4.4-7.7A9.2,9.2,0,0,0,196.1,313.3Zm-38.6,23.2-1.6-2.5a.4.4,0,0,0-.7.2,21.2,21.2,0,0,0-1.2,2c-.3.8.6,3.1,1.2,3.1S157.5,337.3,157.5,336.5Zm-7.1-22.2c.1.6-.3,1.5.2,2.4s.4.6.8.6.3-.3.4-.4.7-2.6.9-4a2,2,0,0,0-1.7-2c-.7-.1-.5,1.1-.6,1.7Zm33.4,25.6a19.1,19.1,0,0,1,2-3.8c.5-.7.2-1.2-.2-1.7s-.5-.7-.8-.4a11.9,11.9,0,0,0-2.2,3.3C182.2,338.3,183.1,338.9,183.8,339.9Zm-20-30.2.4-.2c1.2-1.6,2.3-3.2,3.4-4.9s-.1-1-.5-1.3-.7,0-.8.3-2,3.3-2.9,5A.7.7,0,0,0,163.8,309.7Zm23.7-.3c-1,1-2,1.6-1.9,2.4s.5,3.7.8,5.5C188.2,315,187.1,312.4,187.5,309.4Z" fill="#e6e6e6"/>
        <g>
          <path d="M138.4,296.1c-8.2-1.4-12.8-3.1-13.6-4.4s3.8-2.3,9.4-3.6c-.5-1.2-.9-2.4-1.3-3.7-10.6,2.4-12,5.3-12,7.3s1.8,5.7,16.8,8.3l4.2.6A30.2,30.2,0,0,1,138.4,296.1Z" fill="#ccc"/>
          <path d="M203.3,285.1l-1-.2c-.3,1.1-.6,2.3-1,3.4,8.3,1.3,13,3,13.7,4.3s-7.2,3.5-18.6,4.9a30.2,30.2,0,0,1-3.2,3.9c3.6-.4,7.1-.8,10.1-1.3,13.7-2.4,15.3-5.5,15.3-7.5S217,287.4,203.3,285.1Z" fill="#ccc"/>
        </g>
        <g id="e7542f24-3a5e-40b4-bb77-de1235d0e663">
          <g id="ec465e3a-624a-45ed-8a64-c03530d02f76">
            <g id="af5b40bf-e0fd-4951-abfc-062acd045510">
              <g>
                <path d="M205.4,272.9a36.4,36.4,0,0,1-72.6,6.2h0a36.4,36.4,0,0,1,72.6-6.3Z" fill="#fff"/>
                <path d="M205.4,272.9a36.4,36.4,0,0,1-72.6,6.2h0a36.4,36.4,0,0,1,72.6-6.3Z" fill="none" stroke-width="1.46" stroke="url(#fd66cde7-6f6c-44c7-9bfa-ce027d7a59b3)"/>
              </g>
            </g>
            <path id="b16d85a1-2acf-4ba8-89d7-adda7b103af3" d="M201.4,288.3c.8,1.3.3,3.9.3,3.9l2.6-7.1Z" fill="#ff931e" stroke="#ffb300" stroke-width="0.73" fill-rule="evenodd"/>
            <path id="a4bfe297-0772-42d5-89f1-7b52852d68ec" d="M177.9,303c-1.4,6.3-2,6.6-4.4,9.1,11.2-2.6,15.2-5.6,15.2-5.6s3.1-5.9,1.8-9.9C189.1,297.9,181.3,302.3,177.9,303Z" fill="#ff931e" stroke="#ffb300" stroke-width="0.73" fill-rule="evenodd"/>
            <path id="abf8cee8-86d5-477b-bea3-1ebca7e931c6" d="M133.9,266.6c-2.9,14.7,1.1,25.3,7.4,32.7a38.4,38.4,0,0,0,24.5,13s-14.1-4-21.6-20.9c-3-5.7-5.2-15.3-3.3-25.2C136.7,266.1,140.6,266.3,133.9,266.6Z" fill="#ff931e" stroke="#ffb300" stroke-width="0.73" fill-rule="evenodd"/>
            <path id="fe6aef81-d490-4a3f-9953-5f7b7c0127c9" d="M157.9,284.3c1.8,6.7,7.4,11.3,7.4,11.3s15.1-5.4,24.9-13,8.9-7.7,14.5-13a31.5,31.5,0,0,0-5.6-14.1c-.7,2.9-15.4,15.4-16.4,16.2S169.9,280.7,157.9,284.3Z" fill="#ff931e" stroke="#ffb300" stroke-width="0.73" fill-rule="evenodd"/>
            <path id="b4d2d0e2-47cb-4ea0-b167-588c7a22a630" d="M141.7,252.6c6.4-.8,15.5,1.4,15.8,1.5,8.8,2.9,12.6,7.3,12.6,7.3L156,269.8s-8.6-5.9-22-3.2C135.7,259.1,141.4,252.6,141.7,252.6Z" fill="#ff931e" stroke="#ffb300" stroke-width="0.73" fill-rule="evenodd"/>
            <path id="a7cdefdd-8189-4ef2-b585-9cae2ef75baa" d="M159.2,240.9c18.7,1,24.9,9.1,24.9,9.1a28.3,28.3,0,0,0,3.7-4.8C188.2,244.4,174.5,237,159.2,240.9Z" fill="#ff931e" stroke="#ffb300" stroke-width="0.73" fill-rule="evenodd"/>
            <g id="f288c9fa-05c7-4c10-bbba-9998b8d643f1">
              <path id="bd8f66ff-202c-4826-a83e-e03f81668791" d="M205.4,272.9a36.4,36.4,0,0,1-72.6,6.2h0a36.4,36.4,0,0,1,72.6-6.3Z" fill="none" stroke="#999" stroke-width="1.46"/>
              <path id="bc52a64d-a22e-450a-88ee-612e8a4c83b2" d="M134.1,266.6c14.5-2.2,21.7,3.4,21.7,3.4s12.6-6.8,21-13.2a47.1,47.1,0,0,0,11.1-11.6" fill="none" stroke="#999" stroke-width="1.46"/>
              <path id="bc73d755-0ce4-45fc-9a4c-e356b963de1e" d="M155.9,269.8C153.7,297.4,178,302,177.8,303c-1.2,5.9-3.3,7.9-4.4,9" fill="none" stroke="#999" stroke-width="1.46"/>
              <path id="e5d8f21f-a6c3-463e-ad47-e4fdc5cb4936" d="M177.7,302.9c20.3-8.1,27-18.4,26.8-18.5" fill="none" stroke="#999" stroke-width="1.46"/>
              <path id="e04f7be6-84d5-44c9-bd14-db2d9ba61364" d="M157.6,284.4c21.1-7.9,28.8-15.9,34.8-21.5s6.5-7.7,6.5-7.7" fill="none" stroke="#999" stroke-width="1.46"/>
              <path id="fc236eba-1bd6-41ab-812a-4bc93af2c3f4" d="M165.4,295.6c21-7.9,28.6-16.1,34.8-21.5s4.7-4.5,4.7-4.5" fill="none" stroke="#999" stroke-width="1.46"/>
              <path id="b7f2d6d4-24ac-4004-80b4-6114f2169851" d="M170.2,261.4c-11.9-11.1-28.9-9-28.9-9" fill="none" stroke="#999" stroke-width="1.46"/>
              <path id="a17da0d3-ed86-4142-87dc-dffda7ed9422" d="M184.1,249.9c-11.6-10.6-26.7-8.4-26.7-8.4h0" fill="none" stroke="#999" stroke-width="1.46"/>
              <path id="ed5ccfdf-c0ef-4729-a41a-a372a9e966f4" d="M190.7,296.4c1.2,4.5-2.2,10.3-2.2,10.3" fill="none" stroke="#999" stroke-width="1.46"/>
              <path id="a43d6970-bf0b-4b28-9f71-210e09c3239e" d="M201.4,288.2a7.6,7.6,0,0,1-.2,4.9" fill="none" stroke="#999" stroke-width="1.46"/>
              <path id="b1657a7e-96e8-4dd9-9acc-1079a780b388" d="M140.9,266.2c-3.8,20.1,9.7,36,13.5,39.2,6,5.1,9.3,6.4,14.1,6.9" fill="none" stroke="#999" stroke-width="1.46"/>
            </g>
            <path id="ac8d1b41-d0ed-46f3-81e4-c4a98f9f8de6" d="M205.4,272.9a36.4,36.4,0,0,1-72.6,6.2h0a36.4,36.4,0,0,1,72.6-6.3Z" stroke-width="1.46" opacity="0.19" stroke="url(#fd66cde7-6f6c-44c7-9bfa-ce027d7a59b3)" fill="url(#a8a00a60-392a-4f88-967b-f1dc473afe48)" style="isolation: isolate"/>
          </g>
        </g>
        <path d="M216.4,292.1a8.1,8.1,0,0,1-.9,1,15.6,15.6,0,0,1-6.1,3.2,84,84,0,0,1-11,2.7,2.2,2.2,0,0,1,.1.8c.5,2.6-1.5,3.5-3.2,5.3.2-2.2.7-3.8.7-5.4a.4.4,0,0,1,.1-.3l-6.6.8a1.4,1.4,0,0,1,.2.7c0,.9-2.8,3.7-3.4,3.5s-1-1.2-1.3-2-.5-1.5-.3-1.8h-1.5a1.9,1.9,0,0,1,.7,1.4,22.9,22.9,0,0,0,.9,2.8,1.2,1.2,0,0,1-.1,1.4c-.7.5-1.1,1.6-1.9,1.4s-.6-1.2-.9-1.8a20.7,20.7,0,0,0-1.5-3.4c-.4-.9-.7-1.4-.6-1.6H177c.2.1.1.4-.2.8h-.1c-2.7,3.6-3.3,3.6-5.5-.8h-1.9l.4.6c.9,1.2,1.8,2.5,2.6,3.8a1.6,1.6,0,0,1,.4.7,1.4,1.4,0,0,1-.8,1.2c-.4.3-.6-.1-.8-.4l-3-4.1a1.2,1.2,0,0,1,.1-1.8H165c.3.3.8.8.5,1.3s-2.3,3.2-3.4,4.9l-.4.2a.7.7,0,0,1-.4-1.1l2.8-5a.7.7,0,0,1,.5-.4h-2.9c.9.3.4,1.1-.8,3.4s-1.3,1.2-2.2.2a33.1,33.1,0,0,0-2.6-2.7c-.2-.3-.7-.6-.5-1a.2.2,0,0,1,.2-.2,142.7,142.7,0,0,1-16-2c-4.7-.8-9.4-1.8-13.7-4.1-1.2-.7-2.5-1.3-3.1-2.5a2.9,2.9,0,0,0-.3,1.4c.1,2.1,1.8,3.1,3.5,3.8s4.6,2.3,5.3,5.1a7.6,7.6,0,0,0,1.2,1.9,121.4,121.4,0,0,0,7.7,9.7c7.4,8.6,9.7,18.5,7.2,29.5-.6,2.9-1.3,5.7-2,8.6a9.7,9.7,0,0,0,2.1-3.3h0a3.5,3.5,0,0,1,1.5-4.7,40.6,40.6,0,0,0,2.7,6.5c.5,1-.4,1.3-.9,1.7a5.6,5.6,0,0,1-1.8,1.3l.6,1.5c1.4,3.5,1.1,3,3.5,1.1s1.5-1,2.2.4,1.2,3.8,3.3,4.6c0-1.9-1.6-3.2-2.2-4.9s-1.2-1.4-.6-2.1a14.4,14.4,0,0,1,3-2.4c.4-.3.6.2.8.6s1.5,2.5,2.2,3.8.1,1-.2,1.5-2,1.9-2.3,3.2a6,6,0,0,0,2.2-2c.8-.9,1.4-1,2.4-.2l4.1,3c1,.7,1.6.4,2.1-.5s1.2-1.7,1.7-2.6,1-1,1.9-.5a8.1,8.1,0,0,0,5.4,1.7,35.9,35.9,0,0,0-4.7-2.7c-.8-.4-.9-.8-.5-1.7,2-3.8,2-3.7,5.2-1.2,1.2,1,1.7,1.9.9,3.4a6.1,6.1,0,0,0-.3,1.3,2.4,2.4,0,0,0,.9-1.3c.4-1.3,1-1.5,2.2-.7a9.9,9.9,0,0,0,3.5,1.4v-3.3c0-.9.3-1.2,1.1-.6a6.4,6.4,0,0,0,3.2,1c-.6-3.2-1.3-6.3-1.7-9.3s-1.8-7.6-.8-11.5a84.7,84.7,0,0,1,2.5-8.6c2-5.5,5.7-9.9,9.1-14.5,2.3-3.1,5-5.9,6.3-9.5a4.9,4.9,0,0,1,3.6-3.1,13.7,13.7,0,0,0,5.7-3C216.8,294.6,217.1,293.3,216.4,292.1Zm-31.1,15.2c-.3,2.9.8,5.6-1,7.9-.3-1.8-.4-3.7-.8-5.5S184.4,308.3,185.3,307.3Zm-1.8,11.9c.6,2.9.4,3.5-2,5.7-1.4-3.1-1.2-4.3,1-6C183.1,318.4,183.3,318.3,183.5,319.2Zm-29.1,5c.2-.3.4-.2.7,0s1.6,2,.6,3.3l-1.1,1.3c-.3.3-.4,1.1-1.1.7a2.3,2.3,0,0,1-1-1.6C153.1,326.7,153.8,325.5,154.4,324.2Zm-1.6-4.5c-1.2-1.4-2.8-2.7-1.9-5a13.9,13.9,0,0,0,.6-3.3l1.6,1.6c2.6,2.8,2.6,3.3.7,6.5C153.5,319.9,153.3,320.3,152.8,319.7Zm23.4,3.7c-2.4,2-1.6,2.1-3.4-.6-.8-1.2-.8-2.2.3-3.1s1.5-1.5,2.2-2.2l.6-.5a.8.8,0,0,1,.7.5C179.3,320.5,179.3,321,176.2,323.4Zm3.1-.7c1,.4,1.1,1.8,1.4,2.7s-.2.9-.5,1.3l-1.5,1.6c-.7.4-.7,2-1.9,1.3a2.8,2.8,0,0,1-.6-4.1,8,8,0,0,1,1.3-1.3C178.1,323.6,178.6,322.4,179.3,322.7Zm-6.6,2.1a1.7,1.7,0,0,1-.1,2.5c-.3.2-.4.5-.7.8-2.6,3.1-3.3,3-5.1-.8-.2-.4-.3-.7.1-1l3.5-3.6.5-.3a.9.9,0,0,1,.7.6Zm-4.3,7.5a21.6,21.6,0,0,1-2.7,4c-.4.2-.6-.2-.7-.5l-1.5-2.3c-2.1-3.3-2.1-3.4,1.3-5.5.3-.2.4-.4.8-.3A29.6,29.6,0,0,1,168.4,332.3Zm-1.1-8.3c-1.7,1.8-1.3,1.7-3-.1s-2.1-2.2-.1-4.5c.7-.7,1.3-1.5,2-2.3s.3-.7.8-.6l.6.6C170.4,320.7,170.4,320.7,167.3,324Zm-2.6,2.3c0,.5-3.1,2.8-3.7,2.8a8.7,8.7,0,0,1-2.6-2.8,13,13,0,0,1,3.2-3.4C162,322.8,164.6,325.7,164.7,326.3Zm-7.2-1.4c-.7.1-2.3-2.2-2-2.9a8.9,8.9,0,0,1,.8-1.7c.5-.6.4-1.7,1.5-1.8s2.5,2.7,2.5,3.1A12.9,12.9,0,0,1,157.5,324.9Zm-4.4,7.2c.1-.3.4-.5.6-.2s1.2,1.8,1.7,2.5a5.9,5.9,0,0,1-2.3,2.8c-.6,0-1.6-2.3-1.2-3.1A10.6,10.6,0,0,1,153.1,332.1Zm1.4-1c-.5-.7.1-1.1.5-1.5a7.6,7.6,0,0,1,.9-.9c.6-.5.9-1.6,1.7-1.1a5.8,5.8,0,0,1,1.9,2.5c.1.6-2.6,3.5-3,3.3S155.2,331.8,154.5,331.1Zm3.3,2.6.8-.9c1.8-1.8,2-1.7,3.3.4a8.6,8.6,0,0,1,1,1.6c1.9,3,1.8,4.1-.7,6.6l-.3.4c-.4,0-.5-.3-.7-.5l-3.6-6A1.1,1.1,0,0,1,157.8,333.7Zm5,9.5a20,20,0,0,1,2.2-3.7l.7-.5a2.5,2.5,0,0,0,.4.7l1.7,2.4a1.2,1.2,0,0,1,.1,1.5l-1.2,2.1c-1.4,2.4-1.4,2.4-2.8.1C163.4,345,162.4,344.1,162.8,343.2Zm3.9-6.2,2-3c.1-.3.4-.7.7-.4s1.7,2.2,2.5,3.1-2.4,4.4-2.7,4.6h-.3C168,341.2,166.2,337.8,166.7,337Zm3.7-5.3a21.7,21.7,0,0,1,3.5-3.9h.3c.7.1,2.2,3.4,1.7,4a37.1,37.1,0,0,1-2.3,3.2c-.2.3-.4.6-.8.5S170,332.2,170.4,331.7Zm3.9,4.3a5.4,5.4,0,0,1,.9-1.2c.6-.7.7-2.1,2-1.9s1.8,3,1.6,3.9l-1.4,4.6c-1.2-1.4-2.1-2.7-3.1-3.9A1.1,1.1,0,0,1,174.3,336Zm5.4,1.3c3.1,2,1.4,4.8,1.5,7.4C178.2,343.9,177.8,341.9,179.7,337.3Zm-.2-3.2c-2-2.8-1.7-4.5.9-6.4.3-.2.4-.5.8-.2s.8,3.3.4,3.9S180.3,333.1,179.5,334.1Zm2.7-23.2c.3,1.9.6,3.5.8,5.2s-2.1,3.4-2.8,3.7-.4,0-.5-.2-.2-.4-.3-.6C177.4,315.2,177.7,314.4,182.2,310.9Zm-4.7-8.1c.4-.3.8-.6,1.1,0l3,5.7a.4.4,0,0,1,.1.3,1.8,1.8,0,0,1-.7,1l-1.8,1.8c-1.9,2-1.9,2-2.9-.7a5,5,0,0,1-.5-1.3C174.3,306,174.5,305.3,177.5,302.8Zm-6.1,7.4.4.3,3.2,4.6c.3.6-3.2,4.5-3.9,4.4a1.8,1.8,0,0,1-.7-.5c-2.9-3.4-2.8-5.1.3-8.4C170.9,310.4,171,310.2,171.4,310.2Zm-8.2-2.3,2.6-3.6c.5-.8,1-.8,1.6,0s1.7,2.5,2.6,3.7a1.3,1.3,0,0,1,0,2l-2.4,3.1-.5.5c-.5,0-.6-.4-.8-.6a20,20,0,0,0-2.9-3.5A1.1,1.1,0,0,1,163.2,307.9Zm-1.8,2.8a.6.6,0,0,1,.7-.4,6.1,6.1,0,0,1,1.7,1.5c2.5,2.7,2.5,2.7.4,5.5l-.4.4c-2.5,3.2-2.6,3.2-5.1,0a1.4,1.4,0,0,1-.3-1.7Zm-5.8-7.4c.1.1.2.1.2.2s2.8,2.2,3.2,3.5-1.3,2.8-1.9,4.2l-1.3,3.2-3.3-3.5a1.8,1.8,0,0,1-.3-2.1l1.9-5.2C154.4,302.5,154.9,302.5,155.6,303.3Zm-4.9-1.7c.3-1.4,1.2-1.4,2.2-1.1s.9,1.2.5,2a29.2,29.2,0,0,0-1.4,3.1,29.9,29.9,0,0,0-.9,3.2c-1.7-.9-2.2-1.9-1.5-3.6A24.7,24.7,0,0,0,150.7,301.6Zm-13.5-3.1c.8.1.7.8.7,1.3a19.5,19.5,0,0,0,.4,4.8,36.2,36.2,0,0,1-6.3-7.2Zm-6.2.5.3-.3,1.5,1.5,1.6,1.7a14.2,14.2,0,0,0,2,2.2c2.9,2.1,3.5,5.4,4.6,8.9A106.2,106.2,0,0,1,131,299Zm11.2,9.2q-3.7-1.6-3-8.7C143.3,301.4,142.8,304.9,142.2,308.2Zm4.8,13.2c-2.5-.2-4.2-6-4-10.1C147.2,313.6,147.7,317.3,147,321.4Zm-.2-8.6c-4-3.3-4.2-2.9-3.1-9.1C147.8,305.6,147.9,309,146.8,312.8Zm.4-7.5a31.9,31.9,0,0,0-2.6-2.6,2.2,2.2,0,0,1-.6-2.5c.3-1.1,1.2-.3,1.8-.4,4.1.2,4.1.2,3,4a4.5,4.5,0,0,0-.3,1.1C148.3,305.8,147.9,306,147.2,305.3Zm1.3,9.3a4.2,4.2,0,0,1-.2-2.4,10.5,10.5,0,0,1,0-1.8c.1-.6-.2-1.7.6-1.6a1.9,1.9,0,0,1,1.6,2,27,27,0,0,1-.8,3.9c-.1.2-.3.5-.4.5S148.7,314.9,148.5,314.6Zm.9,8.9c.1-1.3.4-2.6.6-4l.3-.6c2.6,2.1,2.8,2.5,1.4,5.3-.3.5-.4,1.4-1.2,1.1A1.4,1.4,0,0,1,149.4,323.5Zm6.5,24.6c-2.7,2.8-3.4,2.7-4.5-1.2-.4-1.2-.8-2.4-1.1-3.5s1.6-3.3,2.3-3.4.7.3.8.6c1,2,1.9,4,2.8,6A1.1,1.1,0,0,1,155.9,348.1Zm1.2-2.4-3.2-6.3c-.3-.6,1.7-3.5,2.4-3.5l.4.3a27.7,27.7,0,0,1,3.8,6.4.4.4,0,0,1,.1.3,9.9,9.9,0,0,1-2.8,3.3C157.4,346.3,157.2,345.9,157.1,345.7Zm4.4,6.7c-.4.3-.7-.2-.9-.5l-2.1-3.5c-.3-.6-.2-1,.3-1.3,3.3-2.6,2.2-3.3,4.9.3.3.5.8.9.9,1.6S162.6,351.3,161.5,352.4Zm8.1,1.9a14.4,14.4,0,0,1-2.3,4.2c0,.1-.2.1-.3.1l-.7-.4a25.9,25.9,0,0,1-3.7-3.7c-.6-.6-.7-1.1,0-1.7s1.6-2.3,2.6-2.5,1.8,1.4,2.8,2.1S169.9,353.3,169.6,354.3Zm.9-1.8h-.3a8.5,8.5,0,0,1-3.7-2.8c-.8-.9-.1-1.6.4-2.2s1.1-3.1,2.3-3.1,1.9,1.6,2.9,2.5,1,.7,1.1,1.6Zm2.8-5.9c-1-1-2-2.1-2.9-3.2a2.1,2.1,0,0,1-.4-.6,25.2,25.2,0,0,1,2.8-4.4l.3-.2c.2.2.4.3.5.5l1,.9c2.7,3,2.7,4,0,7C174.1,347.1,173.8,347.1,173.3,346.6Zm6.3,3.7c-.2.3-.2.6-.7.6a15,15,0,0,1-3.7-2.8,2.4,2.4,0,0,1,.2-.8c.4-.5.7-1.1,1.1-1.5s.5-2.2,1.7-1.9,2.5,3,2.1,4.3A17.2,17.2,0,0,0,179.6,350.3Zm2.7,3.2c-2.6-1.8-2.6-1.9-1.2-4.7.4-.8.7-.7,1.2-.2s.8,2.3,1.1,3.5a7.5,7.5,0,0,1,.2,2.3Zm-.7-15.7c-.6-1-1.5-1.6-1.1-2.6a9.1,9.1,0,0,1,2.2-3.3c.3-.3.6.1.8.4s.7,1,.2,1.6A20.1,20.1,0,0,0,181.6,337.8Zm2.7,4.3c1.3,1,1.3,1,2.8,8.6C183.7,348.7,183.4,346.6,184.3,342.1Zm4.2-24.6c-.3.3-.6.8-1.1.6s-.3-.7-.4-1.1c-.8-2.9,1.6-3.8,3.1-5.2C190.2,313.9,190.5,316.1,188.5,317.5Zm1.7-8.1c-.3,1.3-1.8,2-2.9,2.8s-.5-.2-.5-.6a30.1,30.1,0,0,1,.1-5.2c.2-1.5,1.8-2,3-3A12.3,12.3,0,0,1,190.2,309.4Zm1.1-.9c-.2-1.9.1-3.6-.3-5.2s2.4-3,2.9-3.1.5.1.6.4A7.4,7.4,0,0,1,191.3,308.5Zm2.7,2.6a9.2,9.2,0,0,1,4.4-7.6C198.5,307.1,195.5,308.7,194,311.1Z" fill="#ccc"/>
        <path d="M170.6,304.2c10.7,0,20.9-.5,30-1.4,1.5-1.6,2.9-3.3,4.2-5a287.8,287.8,0,0,1-34.2,1.8c-18.2,0-32.4-1.3-42.3-3,1.3,1.8,2.1,3.8,3.6,5.5C142.7,303.6,156.6,304.2,170.6,304.2Z" fill="#ccc"/>
      </g>
    </g>
    <g>
      <g>
        <g>
          <path d="M31.9,17.1a1.2,1.2,0,0,1-.4,1L27,22.7l-4.9-2.8V17.1a1.4,1.4,0,0,1,1.4-1.4A1.5,1.5,0,0,1,25,17.1h0v3.5l4.5-4.5a1.3,1.3,0,0,1,2,0,1,1,0,0,1,.4,1" fill="#ff931e"/>
          <path d="M30.5,30.3h-.6a.5.5,0,0,1-.4-.3L25,25.4v3.5a1.5,1.5,0,0,1-1.5,1.5,1.5,1.5,0,0,1-1.4-1.5V26.1L27,23.3l4.5,4.6a1.4,1.4,0,0,1-1,2.4" fill="#ff931e"/>
          <path d="M26.7,22.9v-.2h0L25.4,22l-3.3-1.9-2.8-1.6a.4.4,0,0,0-.5.1v8.6c0,.2.1.4.3.4h.2l2.8-1.6,4.5-2.6h0v-.2h0C26.8,23,26.8,23,26.7,22.9Zm-1.1.2h-.1L22,25.3l-2.2,1.2c-.1.1-.2,0-.3-.1h0V19.7l.2-.2h.1L22,20.8l3.5,2a.2.2,0,0,1,.1.3Z" fill="#ff931e"/>
          <path d="M24.7,23.1h-.1l-2.7,1.5-1.6.9H20v-5c0-.1.1-.1.2-.1h.1l1.6.9,2.7,1.5V23h0" fill="#ff931e"/>
        </g>
        <g>
          <path d="M55.8,22.8h-.1l-4.1-2-2.4-1.3c-.2-.1-.5,0-.5.2v6.7a.4.4,0,0,0,.5.3l2.4-1.4,4-2.1h.1Zm-1,.2a.1.1,0,0,1-.1.1l-3.1,1.6-1.9,1a.2.2,0,0,1-.3-.1V20.4l.3-.2h.1l1.9,1,3.1,1.5v.2Z" fill="#ff931e"/>
          <path d="M54,23h-.1l-2.3,1.3-1.5.7c0,.1-.2.1-.2,0h0V21c0-.1.1-.1.2-.1h.1l1.4.7,2.4,1.2H54" fill="#ff931e"/>
          <path d="M34.9,19.5h3.5c1.7,0,2.9.9,2.9,2.3s-1.2,2.4-2.9,2.4H36.6v2.3H35Zm3.3,3.3c.9,0,1.4-.4,1.4-1s-.6-1-1.4-1H36.6v1.9Z" fill="#ff931e"/>
          <path d="M47.9,25.2v1.3H42.4v-7H44v5.6Z" fill="#ff931e"/>
          <path d="M57.6,23.9l-3.1-4.4h2l1.9,3.1,2-3.1h1.9l-3,4.5v2.5H57.6Z" fill="#ff931e"/>
          <path d="M63.4,19.8h.9v3.9l3.9-3.9h1.2L66.1,23l3.6,3.7H68.5l-3-3.2-1.2,1.2v2.1h-.8Z" fill="#ff931e"/>
          <path d="M70.1,23.2A3.9,3.9,0,0,1,74,19.6a4,4,0,0,1,4.1,3.5,4,4,0,0,1-8,.1Zm7.1,0a3.2,3.2,0,0,0-3.1-2.9A3.1,3.1,0,0,0,71,23.2a3,3,0,0,0,3.1,2.9,3.1,3.1,0,0,0,3.1-2.9Z" fill="#ff931e"/>
          <path d="M79.2,25.7l.6-.6a3.4,3.4,0,0,0,2.5,1c1.2,0,1.8-.6,1.8-1.3s-.7-1-2.1-1.3-2.6-.7-2.6-1.9,1.1-2,2.6-2a3.8,3.8,0,0,1,2.7,1l-.5.6a3.1,3.1,0,0,0-2.2-.9c-1,0-1.7.6-1.7,1.2s.8,1,2.1,1.3,2.6.7,2.6,2-.9,2-2.7,2A4.5,4.5,0,0,1,79.2,25.7Z" fill="#ff931e"/>
          <path d="M86.6,19.8h.9l2.9,4.8,2.9-4.9h.9v7h-.8V21.5l-2.8,4.9-3-4.9v5.3h-.9Z" fill="#ff931e"/>
          <path d="M95.9,23.2a3.7,3.7,0,0,1,3.9-3.6c2.1,0,4,1.6,4,3.5a3.9,3.9,0,0,1-3.9,3.7A3.8,3.8,0,0,1,95.9,23.2Zm7,0a3,3,0,0,0-3.1-2.9,3.1,3.1,0,0,0-3.1,2.9,3.2,3.2,0,0,0,3.2,2.9,3,3,0,0,0,3-2.9Z" fill="#ff931e"/>
          <path d="M105,25.7l.5-.6a3.8,3.8,0,0,0,2.6,1c1.2,0,1.8-.6,1.8-1.3s-.8-1-2.1-1.3-2.6-.7-2.6-1.9,1.1-2,2.6-2a3.9,3.9,0,0,1,2.7,1l-.5.6a3.5,3.5,0,0,0-2.3-.9,1.5,1.5,0,0,0-1.6,1.2c0,.8.8,1,2.1,1.3s2.5.7,2.6,2-1,2-2.8,2A4.2,4.2,0,0,1,105,25.7Z" fill="#ff931e"/>
        </g>
      </g>
      <g id="a2d36ced-2a07-4813-81a3-2f8c51203f74">
        <g id="e23e2085-6008-44f7-bb79-60af109a5e91">
          <path d="M322.7,238.2a4.1,4.1,0,0,1-.4-8.2,4.1,4.1,0,0,1,3,1,3.9,3.9,0,0,1,1.5,2.8h0a4.1,4.1,0,0,1-3.8,4.4Zm0-8h-.4a4.1,4.1,0,0,0-3.6,4.2A3.9,3.9,0,0,0,323,238a3.9,3.9,0,0,0,2.7-1.3,4,4,0,0,0,.9-2.9h0A3.9,3.9,0,0,0,322.7,230.2Z" fill="#ff931e"/>
        </g>
        <g id="b0286300-b825-42af-a565-1e2b1c439d1a">
          <path d="M321.2,233.5h0a3.4,3.4,0,0,0-2.4-.3V233a3.9,3.9,0,0,1,2.4.3,9.2,9.2,0,0,0,2.3-1.4,5.5,5.5,0,0,0,1.2-1.2h.1a4.5,4.5,0,0,1-1.2,1.4,15.5,15.5,0,0,1-2.4,1.4Z" fill="#ff931e"/>
        </g>
        <g id="afca52e8-bfe0-4b3c-9f4c-8573158bfe14">
          <path d="M323.2,238.1h-.1a1.4,1.4,0,0,0,.4-.9h-.1a3.5,3.5,0,0,1-2.3-3.7h.2a3.2,3.2,0,0,0,2.2,3.5l.2.2a1.4,1.4,0,0,1-.5,1Z" fill="#ff931e"/>
        </g>
        <g id="b3452362-298a-4cb8-b6f0-b2f418b6aba8">
          <path d="M323.7,237.2V237a6.3,6.3,0,0,0,2.9-2h.2A6.7,6.7,0,0,1,323.7,237.2Z" fill="#ff931e"/>
        </g>
        <g id="bc606dcd-f46d-4d53-b976-7f5ab65aaa05">
          <path d="M321.4,235.1h0a12.5,12.5,0,0,0,3.7-2.3h.1l.7-.8h.1c0,.1,0,.3-.7.9h-.1A10.4,10.4,0,0,1,321.4,235.1Z" fill="#ff931e"/>
        </g>
        <g id="a297e2b3-46ae-4d4e-b561-d2b6260709f5">
          <path d="M322.3,236.4v-.2a9.2,9.2,0,0,0,3.6-2.2l.3-.2.5-.4h.1l-.5.6-.3.2A9.2,9.2,0,0,1,322.3,236.4Z" fill="#ff931e"/>
        </g>
        <g id="e414d90c-7ae0-4e8a-9786-47cff27a024c">
          <path d="M322.7,232.6a4.2,4.2,0,0,0-3.1-1v-.2a4.8,4.8,0,0,1,3.3,1Z" fill="#ff931e"/>
        </g>
        <g id="f862af89-a43c-44b9-9dd2-6d765fc29d95">
          <path d="M324.3,231.3a4.1,4.1,0,0,0-2.9-.9v-.2a4.1,4.1,0,0,1,3,1Z" fill="#ff931e"/>
        </g>
        <g id="b298e6b9-acc6-4e71-991e-19a178f22f26">
          <path d="M324.9,237.6h-.2a1.4,1.4,0,0,0,.3-1.1h.1C325.3,236.9,324.9,237.5,324.9,237.6Z" fill="#ff931e"/>
        </g>
        <g id="a3749c16-1474-4cb0-9878-d0e63f46ef44">
          <path d="M326.3,236h-.2a2,2,0,0,0,.1-.5h.1A.9.9,0,0,1,326.3,236Z" fill="#ff931e"/>
        </g>
        <g id="a90c4db4-c7cd-4be5-8dce-a9192b0db82a">
          <path d="M322.6,238.2a2.4,2.4,0,0,1-1.6-.8,5.1,5.1,0,0,1-1.5-4.4h.1a5,5,0,0,0,1.5,4.3,2.8,2.8,0,0,0,1.5.8Z" fill="#ff931e"/>
        </g>
      </g>
      <g id="b678f953-f062-44bf-8d56-d6088973212f">
        <g id="b649471a-e728-478f-89e7-47cff05f8caf">
          <path d="M20.1,128.2a4.1,4.1,0,0,1-.3-8.2,4.1,4.1,0,0,1,4.4,3.8h0a4.1,4.1,0,0,1-.9,3,4.4,4.4,0,0,1-2.8,1.4Zm0-8h-.3a3.9,3.9,0,1,0,3.3,6.5,4,4,0,0,0,.9-2.9h0A3.8,3.8,0,0,0,20.1,120.2Z" fill="#ff931e"/>
        </g>
        <g id="f6218f8c-9e25-4b56-8d19-3e3b15ed9750">
          <path d="M18.6,123.5h0a3.2,3.2,0,0,0-2.4-.3V123a3.5,3.5,0,0,1,2.4.3,9.2,9.2,0,0,0,2.3-1.4,5.5,5.5,0,0,0,1.2-1.2h.2a10.1,10.1,0,0,1-1.3,1.4,16.8,16.8,0,0,1-2.3,1.4Z" fill="#ff931e"/>
        </g>
        <g id="eec65ace-3002-4900-a002-df671cf974a5">
          <path d="M20.6,128.1h-.1c.2-.1.4-.3.5-.9h-.1a3.4,3.4,0,0,1-2.3-3.7h.1a3.2,3.2,0,0,0,2.2,3.5c.2.1.3.1.2.2a1.5,1.5,0,0,1-.4,1Z" fill="#ff931e"/>
        </g>
        <g id="bf4a0b0f-a3fe-48b2-b43b-a6d2aa241e29">
          <path d="M21.1,127.2V127a7.2,7.2,0,0,0,3-2c-.1,0-.1.1,0,.1h.1C24.1,125.2,23.3,126.3,21.1,127.2Z" fill="#ff931e"/>
        </g>
        <g id="e1b391e7-3334-4e45-b59f-9adaaf2b33d9">
          <path d="M18.9,125.1h-.1a10.1,10.1,0,0,0,3.7-2.3h.1c.7-.6.7-.8.7-.8h.2c0,.1-.1.3-.8.9h-.1A8.9,8.9,0,0,1,18.9,125.1Z" fill="#ff931e"/>
        </g>
        <g id="b79f212d-43a4-4d24-a917-7fc949de223c">
          <path d="M19.7,126.4v-.2a11.3,11.3,0,0,0,3.6-2.2l.2-.2.5-.4h.1c.1,0,.1.1-.5.6l-.2.2A10.9,10.9,0,0,1,19.7,126.4Z" fill="#ff931e"/>
        </g>
        <g id="b3d675c1-9cb4-4f4f-8176-8739c463e944">
          <path d="M20.2,122.6a4.4,4.4,0,0,0-3.2-1v-.2a4.7,4.7,0,0,1,3.3,1Z" fill="#ff931e"/>
        </g>
        <g id="b6583f92-ea90-43dc-88bf-49b97473130a">
          <path d="M21.7,121.3a4,4,0,0,0-2.9-.9v-.2a4.1,4.1,0,0,1,3,1Z" fill="#ff931e"/>
        </g>
        <g id="b5794b33-3e9a-4621-9051-0f6c6386ebf6">
          <path d="M22.3,127.6h-.1a2.3,2.3,0,0,0,.2-1.1h.2C22.7,126.9,22.3,127.5,22.3,127.6Z" fill="#ff931e"/>
        </g>
        <g id="fa491ae7-8781-4f05-bf0b-91b102cebe0a">
          <path d="M23.7,126h-.1a.8.8,0,0,0,0-.5h.2A.6.6,0,0,1,23.7,126Z" fill="#ff931e"/>
        </g>
        <g id="f71dcc8e-ba45-4816-9477-0005ea21d624">
          <path d="M20,128.2a2.4,2.4,0,0,1-1.6-.8,5.1,5.1,0,0,1-1.5-4.4h.2a5,5,0,0,0,1.4,4.3,3,3,0,0,0,1.6.8Z" fill="#ff931e"/>
        </g>
      </g>
      <polygon points="304.8 35 303.2 36.7 301.5 35 300.7 35.8 302.3 37.5 300.7 39.2 301.5 40 303.2 38.3 304.8 40 305.7 39.2 304 37.5 305.7 35.8 304.8 35" fill="#fff"/>
      <polygon points="14.8 235 13.2 236.7 11.5 235 10.7 235.8 12.3 237.5 10.7 239.2 11.5 240 13.2 238.3 14.8 240 15.7 239.2 14 237.5 15.7 235.8 14.8 235" fill="#fff"/>
      <polygon points="208.8 325 207.2 326.7 205.5 325 204.7 325.8 206.3 327.5 204.7 329.2 205.5 330 207.2 328.3 208.8 330 209.7 329.2 208 327.5 209.7 325.8 208.8 325" fill="#fff"/>
      <path d="M256,18V30a3.1,3.1,0,0,0,3.1,3H335V15H259.1A3,3,0,0,0,256,18Z" fill="#c1272d"/>
      <rect x="49.5" y="173.4" width="236.1" height="0.94" rx="0.5" fill="#ff931e"/>
      <rect x="56.1" y="103.4" width="222.9" height="21.95" rx="2.5" fill="#c1272d"/>
      <polygon points="98.8 141.5 96.8 139.9 96.8 141.8 98.1 142.9 96.8 143.9 96.8 145.8 98.8 144.2 98.8 145.8 100.7 144.2 100.7 145.8 104.2 142.9 100.7 139.9 100.7 141.5 98.8 139.9 98.8 141.5" fill="#fff"/>
      <polygon points="99.9 162.2 97.9 160.6 97.9 162.5 99.2 163.6 97.9 164.6 97.9 166.5 99.9 164.9 99.9 166.5 101.8 164.9 101.8 166.5 105.3 163.6 101.8 160.6 101.8 162.2 99.9 160.6 99.9 162.2" fill="#fff"/>
      <polygon points="68.3 211.5 66.5 210 66.5 211.7 67.7 212.7 66.5 213.7 66.5 215.4 68.3 213.9 68.3 215.4 70.1 213.9 70.1 215.4 73.3 212.7 70.1 210 70.1 211.5 68.3 210 68.3 211.5" fill="#fff"/>
      <polygon points="104.3 231.1 102.5 229.6 102.5 231.3 103.7 232.3 102.5 233.2 102.5 235 104.3 233.5 104.3 235 106.1 233.5 106.1 235 109.3 232.3 106.1 229.6 106.1 231.1 104.3 229.6 104.3 231.1" fill="#fff"/>
      <rect x="18.6" y="309" width="1.7" height="8.94" transform="translate(-294.1 332.9) rotate(-90)" fill="#fff"/>
    </g>
  </g>
</svg>
