<svg xmlns="http://www.w3.org/2000/svg" width="335" height="335" data-name="Layer 1">
  <defs>
    <filter id="b" data-name="drop-shadow-5" filterUnits="userSpaceOnUse">
      <feOffset/>
      <feGaussianBlur result="uuid-c849a0b4-4719-4a28-9147-d2e7fa8aafef" stdDeviation="3"/>
      <feFlood flood-color="#000" flood-opacity=".8"/>
      <feComposite in2="uuid-c849a0b4-4719-4a28-9147-d2e7fa8aafef" operator="in"/>
      <feComposite in="SourceGraphic"/>
    </filter>
    <filter id="c" data-name="drop-shadow-6" filterUnits="userSpaceOnUse">
      <feOffset dx="7" dy="7"/>
      <feGaussianBlur result="uuid-fc10cda4-44a8-4ac6-9920-764dcf3a6a7a" stdDeviation="5"/>
      <feFlood flood-color="#846549" flood-opacity=".8"/>
      <feComposite in2="uuid-fc10cda4-44a8-4ac6-9920-764dcf3a6a7a" operator="in"/>
      <feComposite in="SourceGraphic"/>
    </filter>
    <linearGradient id="a" x1="166.1" x2="168.1" y1=".4" y2="335.4" gradientUnits="userSpaceOnUse">
      <stop offset="0" stop-color="#e53241" stop-opacity="0"/>
      <stop offset="1"/>
    </linearGradient>
  </defs>
  <path fill="#bc081e" d="M-1-.1h335.8v335H-1z"/>
  <g fill="#91cc00">
    <path d="M318.5 45.9c.5-6.5 3.3-12.2 7.3-16.2 3.4 4.8 5.2 10.8 4.7 17.2s-3.3 12-7.5 16.2c-3.3-4.6-5-10.7-4.5-17.2Z"/>
    <path d="M294.2 43.8c.6-7.5-1.5-14.5-5.4-19.8 4.9-3.8 11.3-5.8 17.9-5.2s12.6 3.6 16.8 8.2c-4.7 4.6-7.9 11.2-8.6 18.6-.6 7.5 1.5 14.5 5.4 19.8-4.9 3.8-11.3 5.8-17.9 5.2a25.7 25.7 0 0 1-16.8-8.2c4.7-4.6 7.9-11.2 8.6-18.6Z"/>
    <path d="M290.7 43.5c.5-6.5-1.2-12.5-4.5-17.2-4.2 4.2-7 9.8-7.5 16.2a26.1 26.1 0 0 0 4.7 17.2c4-4 6.7-9.7 7.3-16.2Z"/>
  </g>
  <path d="m296.7 187.1-.9 2 4.1 3.2 1-2-4.2-3.2zm6-.5.8-1.7-4.6-2.3-.4.7 4.2 3.3zm-4.6-2.4-1 2 4.2 3.3 1-2-4.2-3.3zm.4 11 1-2-4.2-3.3-.9 2 4.1 3.3zm-4.6-2.4-.8 1.7 4.7 2.3.3-.7-4.2-3.3zm4.49-11.81.7-1.44 6.39 3.1-.7 1.44zm6.51 3.31-1.4.6-4.6-2.3-.4-1.5 6.4 3.2zm-13.88 11.93.7-1.44 6.39 3.1-.7 1.44z"/>
  <path d="m291.8 195 1.4-.7 4.7 2.3.3 1.5-6.4-3.1zm32-57.7c-3-1.5-15.9-6.8-23.5 6-8.1 13.6 3.1 26.3-.3 36.8l4.9 2.4c6.2-9.1 23.1-8.2 28.8-23 5.3-13.9-6.8-20.7-9.9-22.2Zm1.8 12.4c.2-.4.7-.6 1.1-.4s.6.7.4 1.1c-.2.4-.7.6-1.1.4s-.6-.7-.4-1.1Zm-1.9-5c.2-.4.7-.6 1.1-.4.4.2.6.7.4 1.1-.2.4-.7.6-1.1.4-.4-.2-.6-.7-.4-1.1Zm-1.6 3.3c.2-.4.7-.6 1.1-.4.4.2.6.7.4 1.1-.2.4-.7.6-1.1.4-.4-.2-.6-.7-.4-1.1Zm-.1 4c-.2.4-.7.6-1.1.4-.4-.2-.6-.7-.4-1.1.2-.4.7-.6 1.1-.4.4.2.6.7.4 1.1Zm-1.8-9.1c.2-.4.7-.6 1.1-.4.4.2.6.7.4 1.1-.2.4-.7.6-1.1.4-.4-.2-.6-.7-.4-1.1Zm-1.6 3.3c.2-.4.7-.6 1.1-.4.4.2.6.7.4 1.1s-.7.6-1.1.4c-.4-.2-.6-.7-.4-1.1Zm-.1 4c-.2.4-.7.6-1.1.4-.4-.2-.6-.7-.4-1.1.2-.4.7-.6 1.1-.4.4.2.6.7.4 1.1Zm-1.6 3.3c-.2.4-.7.6-1.1.4-.4-.2-.6-.7-.4-1.1s.7-.6 1.1-.4c.4.2.6.7.4 1.1Zm-.2-12.4c.2-.4.7-.6 1.1-.4s.6.7.4 1.1c-.2.4-.7.6-1.1.4s-.6-.7-.4-1.1Zm-1.6 3.3c.2-.4.7-.6 1.1-.4.4.2.6.7.4 1.1-.2.4-.7.6-1.1.4-.4-.2-.6-.7-.4-1.1Zm-1.6 3.3c.2-.4.7-.6 1.1-.4s.6.7.4 1.1c-.2.4-.7.6-1.1.4s-.6-.7-.4-1.1Zm-.1 4c-.2.4-.7.6-1.1.4-.4-.2-.6-.7-.4-1.1.2-.4.7-.6 1.1-.4.4.2.6.7.4 1.1Zm-4.7 5.9c.2-.4.7-.6 1.1-.4.4.2.6.7.4 1.1-.2.4-.7.6-1.1.4-.4-.2-.6-.7-.4-1.1Zm-.1 4c-.2.4-.7.6-1.1.4-.4-.2-.6-.7-.4-1.1.2-.4.7-.6 1.1-.4.4.2.6.7.4 1.1Zm1.8-7.4c.2-.4.7-.6 1.1-.4.4.2.6.7.4 1.1-.2.4-.7.6-1.1.4-.4-.2-.6-.7-.4-1.1Zm1.3-11.7c.2-.4.7-.6 1.1-.4.4.2.6.7.4 1.1-.2.4-.7.6-1.1.4-.4-.2-.6-.7-.4-1.1Zm-1.6 3.3c.2-.4.7-.6 1.1-.4.4.2.6.7.4 1.1-.2.4-.7.6-1.1.4-.4-.2-.6-.7-.4-1.1Zm-1.6 3.3c.2-.4.7-.6 1.1-.4.4.2.6.7.4 1.1-.2.4-.7.6-1.1.4-.4-.2-.6-.7-.4-1.1Zm-.1 4c-.2.4-.7.6-1.1.4-.4-.2-.6-.7-.4-1.1.2-.4.7-.6 1.1-.4.4.2.6.7.4 1.1Zm-1.6 3.3c-.2.4-.7.6-1.1.4-.4-.2-.6-.7-.4-1.1.2-.4.7-.6 1.1-.4s.6.7.4 1.1Zm-.2-12.4c.2-.4.7-.6 1.1-.4.4.2.6.7.4 1.1-.2.4-.7.6-1.1.4-.4-.2-.6-.7-.4-1.1Zm-1.6 3.3c.2-.4.7-.6 1.1-.4.4.2.6.7.4 1.1-.2.4-.7.6-1.1.4-.4-.2-.6-.7-.4-1.1Zm-1.6 3.3c.2-.4.7-.6 1.1-.4.4.2.6.7.4 1.1s-.7.6-1.1.4c-.4-.2-.6-.7-.4-1.1Zm7.2 23.5c-1.9 1-3.9 2.4-5.2 3.4a1 1 0 0 1-1.6-.8c0-1.6-.2-4-.5-6.2-.1-.8.7-1.4 1.5-1.1l2.9 1.4 2.9 1.4c.7.4.8 1.4 0 1.8Zm1.7-11c-.2.4-.7.6-1.1.4-.4-.2-.6-.7-.4-1.1.2-.4.7-.6 1.1-.4.4.2.6.7.4 1.1Zm1.6-3.3c-.2.4-.7.6-1.1.4-.4-.2-.6-.7-.4-1.1.2-.4.7-.6 1.1-.4.4.2.6.7.4 1.1Zm.1-4c.2-.4.7-.6 1.1-.4.4.2.6.7.4 1.1-.2.4-.7.6-1.1.4-.4-.2-.6-.7-.4-1.1Zm1.8 9.1c-.2.4-.7.6-1.1.4-.4-.2-.6-.7-.4-1.1.2-.4.7-.6 1.1-.4s.6.7.4 1.1Zm1.6-3.3c-.2.4-.7.6-1.1.4-.4-.2-.6-.7-.4-1.1.2-.4.7-.6 1.1-.4.4.2.6.7.4 1.1Zm1.6-3.3c-.2.4-.7.6-1.1.4-.4-.2-.6-.7-.4-1.1.2-.4.7-.6 1.1-.4s.6.7.4 1.1Zm.1-4c.2-.4.7-.6 1.1-.4.4.2.6.7.4 1.1s-.7.6-1.1.4c-.4-.2-.6-.7-.4-1.1Zm1.8 9.1c-.2.4-.7.6-1.1.4-.4-.2-.6-.7-.4-1.1s.7-.6 1.1-.4c.4.2.6.7.4 1.1Zm1.6-3.3c-.2.4-.7.6-1.1.4-.4-.2-.6-.7-.4-1.1.2-.4.7-.6 1.1-.4.4.2.6.7.4 1.1Zm1.6-3.3c-.2.4-.7.6-1.1.4-.4-.2-.6-.7-.4-1.1.2-.4.7-.6 1.1-.4s.6.7.4 1.1Zm.1-4c.2-.4.7-.6 1.1-.4s.6.7.4 1.1c-.2.4-.7.6-1.1.4-.4-.2-.6-.7-.4-1.1Zm1.8 9.1c-.2.4-.7.6-1.1.4-.4-.2-.6-.7-.4-1.1.2-.4.7-.6 1.1-.4.4.2.6.7.4 1.1Zm1.6-3.3c-.2.4-.7.6-1.1.4-.4-.2-.6-.7-.4-1.1.2-.4.7-.6 1.1-.4.4.2.6.7.4 1.1Zm1.6-3.3c-.2.4-.7.6-1.1.4-.4-.2-.6-.7-.4-1.1s.7-.6 1.1-.4c.4.2.6.7.4 1.1Z"/>
  <circle cx="239.9" cy="109.7" r="1.9"/>
  <path d="M303 190.3c-.2-1.2-4.8-4.1-4.8-4.1s-3.2.5-4.5 1c0 0-.8-1.8-2.4-3.2 0 0-1.2-10.1-7.8-18.5 0 0-2.2-6.5-4-9.8l-5.7 2.8 4.9-4s2.1-1 2.3-2.7c.2-1.6-4.8-5.1-9-9-4.2-3.9-9.3-11.9-21-7.2l-4.9 2.1c-.4 2.3-1.8 6-1.8 6 .2-2.4 0-5.3 0-5.3s1.3-3.5 1-6.4c0 0 1.8 1.4 3.4 1.7 0 0-1.6-3.2-1.6-7.1-3.3-.7-13.5-3-12.7-2.9 1 0 12.8 1.4 12.8 1.4s1.3 0 2-.1c.7-.2.4-16.6-16.7-17-9.1-.2-13.9 8.9-13.9 8.9s-14.6 3.5-14.1 5.1c.5 1.6 13.7 1.3 13.7 1.3s-.9 2.8-.1 5.3c0 .1.7 1.2 2.6 0 1.9-1.3 1.5-1.9 4.1-1.7 2.6.2 2.2.8 1.4 1.5-.3.3-1.4 3.2-5.1 2.3-1-.2-1.6-.3-2-.2.8 1.1 1 1.3.8 2.5-.3 1.4-2.2 4.5-1.5 5 .7.5 2.5.6 2.5.6s.4 1.4.8 1.5l2.7-.2-2.3 1.2c0 .3 0 .9.2 1 .3.2 1.1 1.9 1.6 3.9s5.8.2 7.6-1.2c.6-.5.8-.3.5.3s2.2 4.1 6.9 5.9c0 0-5.1-.8-8-4.2-.5.6-1.1 1.4-1.8 2.2 9.9 14.9 37 25.2 43 27.3-1.2-6-2.4-14.9-2.4-14.9s6.1 10.3 9.9 17.8c3.8 7.5 6.8 14 8.5 15.5.7.6 1.4 1.1 1.9 1.7 1 .9 2 1.7 3.2 2.2l3.7 1.7c.4 0 2.3-.5 2-2.3 0 0 1.6-.5 1.3-2.2 0 0 2.2-1.2 1.5-3.7 0 0 1.6-.8 1.4-2ZM219.9 137c0-.3.9-2.7 1.2-3.4v-.2l1.5 3.6c0 .3-2.8.3-2.8 0Zm2.2-19.2h-1.5c4.9-8.8 13.5-8.7 13.5-8.7-8.3 2.2-12.1 8.7-12.1 8.7Zm16.9 20.4c-.6 2-4.7 5-4.7 5s2.6-3.5 3.7-5.5 2.5-5.5 2.5-5.5-.9 3.9-1.5 5.9Zm4.5 16c-.5 0-1-.4-1-1s.4-1 1-1 1 .4 1 1c0 .5-.4 1-1 1Zm3.3 4.7a1 1 0 0 1 0-2c.6 0 1 .4 1 1s-.4 1-1 1Zm13.6-20.6c-2.3-.3-11.6.8-11.3.6.2-.2 10.1-2.8 12.3-1.8 2.3 1 8.9 6.9 8.9 6.9 1.7 1.5-7.6-5.4-9.9-5.7Zm-22.5 58.8s-.3 9.8-6.8 17c0 0 24.1 10.5 53.8 12.2 0 0-28.7-6.8-38.3-12.8l23.2 4.8s-16.6-6.6-20.5-8.8c0 0 19.9 4.5 30.1 4.4 0 0-14.9-3.8-19.3-5.7h17.5l-11-3.9-7.6.5s-9.2.2-13.1-1.4c-3.8-1.5-7.9-6.3-7.9-6.3Z"/>
  <path d="M290.4 198.2s-2.9-1-4.4.7c-1.5 1.7-1.6 2.5-5.9 2.3s-19.8-7.5-28.5-9.6c0 0-9.9-12.3-13-15.4 0 0 2.4-1.7 2.8-2.4.5-.7-5.2-7.1-5.2-7.1s4.5 4.2 6.9 5.6c2.4 1.5-1.5 4.1-1.5 4.1s9.1 11.1 10.9 12.8c1.8 1.7 24 9.1 26.4 9.7 2.4.6 2.7-.5 1-3.8-1.3-2.5-3.7-7.9-5.3-11.1l-1.6 1.5-7.2 5.5 6.6-8.4-6.9 3.1 3.3-2.5c1.3-1 2.4-2.4 3.1-3.9 2.4.1 4-.2 4-.2l-3.6-.9c-32.8-10.5-45.4-26.7-45.4-26.7-4.2 4.1-8.9 3.5-9.1 10.6-.2 7.1 5.9 16.5 5.5 18.8-.5 2.3 4.2 0 4.2 0s11.2 15.1 17.5 19.4c6.3 4.3 30.3 7.7 35.2 8.8 4.9 1.1 14.2 3.1 13.6-.4 0 0 1.2-.8 1.2-1.5s-.4-1.2-.4-1.2 1.4-.3.8-1.7c0 0 1.7.5 2.1-.9.4-1.3-.5-2.4-.7-2.7l-6.3-2.4ZM221.3 169c-4-9.3 1.4-13.1 1.4-13.1-3.3 4.8-1.4 13.1-1.4 13.1Z"/>
  <g fill="#91cc00">
    <path d="M188.7 216.6c.4-5 2.5-9.4 5.6-12.5 2.6 3.7 4 8.3 3.6 13.2s-2.5 9.2-5.8 12.4c-2.5-3.6-3.9-8.2-3.5-13.2Z"/>
    <path d="M169.9 215.1c.5-5.7-1.1-11.1-4.1-15.2 3.8-2.9 8.7-4.5 13.8-4s9.7 2.8 12.9 6.3c-3.6 3.6-6.1 8.6-6.6 14.3s1.1 11.1 4.1 15.2c-3.8 2.9-8.7 4.5-13.8 4-5.1-.4-9.7-2.8-12.9-6.3 3.6-3.6 6.1-8.6 6.6-14.3Z"/>
    <path d="M167.2 214.8c.4-5-.9-9.6-3.5-13.2-3.2 3.2-5.4 7.6-5.8 12.4s1 9.5 3.6 13.2c3.1-3.1 5.2-7.5 5.6-12.5Z"/>
  </g>
  <g fill="#91cc00">
    <path d="M251 216.6c.4-5 2.5-9.4 5.6-12.5 2.6 3.7 4 8.3 3.6 13.2s-2.5 9.2-5.8 12.4c-2.5-3.6-3.9-8.2-3.5-13.2Z"/>
    <path d="M232.3 215.1c.5-5.7-1.1-11.1-4.1-15.2 3.8-2.9 8.7-4.5 13.8-4s9.7 2.8 12.9 6.3c-3.6 3.6-6.1 8.6-6.6 14.3s1.1 11.1 4.1 15.2c-3.8 2.9-8.7 4.5-13.8 4-5.1-.4-9.7-2.8-12.9-6.3 3.6-3.6 6.1-8.6 6.6-14.3Z"/>
    <path d="M229.6 214.8c.4-5-.9-9.6-3.5-13.2-3.2 3.2-5.4 7.6-5.8 12.4s1 9.5 3.6 13.2c3.1-3.1 5.2-7.5 5.6-12.5Z"/>
  </g>
  <g fill="#91cc00">
    <path d="M312.1 216.6c.4-5 2.5-9.4 5.6-12.5 2.6 3.7 4 8.3 3.6 13.2-.4 4.9-2.5 9.2-5.8 12.4-2.5-3.6-3.9-8.2-3.5-13.2Z"/>
    <path d="M293.4 215.1c.5-5.7-1.1-11.1-4.1-15.2 3.8-2.9 8.7-4.5 13.8-4s9.7 2.8 12.9 6.3c-3.6 3.6-6.1 8.6-6.6 14.3-.5 5.7 1.1 11.1 4.1 15.2-3.8 2.9-8.7 4.5-13.8 4-5.1-.4-9.7-2.8-12.9-6.3 3.6-3.6 6.1-8.6 6.6-14.3Z"/>
    <path d="M290.7 214.8c.4-5-.9-9.6-3.5-13.2-3.2 3.2-5.4 7.6-5.8 12.4s1 9.5 3.6 13.2c3.1-3.1 5.2-7.5 5.6-12.5Z"/>
  </g>
  <path fill="url(#a)" d="M-1 .5h336.2v335H-1z"/>
  <g fill="#91cc00">
    <path d="M15.5 125c.9-.9 2-1.4 3.1-1.5 0 1.1-.6 2.2-1.4 3.1s-2 1.4-3.1 1.4c0-1.1.6-2.2 1.5-3.1Z"/>
    <path d="M12.1 121.7c1-1 1.6-2.3 1.7-3.6 1.2 0 2.4.5 3.3 1.5s1.4 2.1 1.5 3.3c-1.3 0-2.6.7-3.6 1.7s-1.6 2.3-1.7 3.6c-1.2 0-2.4-.5-3.3-1.5s-1.4-2.1-1.5-3.3c1.3 0 2.6-.7 3.6-1.7Z"/>
    <path d="M11.7 121.2c.9-.9 1.4-2 1.5-3.1-1.1 0-2.2.6-3.1 1.4s-1.4 2-1.4 3.1c1.1 0 2.2-.6 3.1-1.5Z"/>
  </g>
  <g fill="#91cc00">
    <path d="M15.5 148.9c.9-.9 2-1.4 3.1-1.5 0 1.1-.6 2.2-1.4 3.1s-2 1.4-3.1 1.4c0-1.1.6-2.2 1.5-3.1Z"/>
    <path d="M12.1 145.6c1-1 1.6-2.3 1.7-3.6 1.2 0 2.4.5 3.3 1.5s1.4 2.1 1.5 3.3c-1.3 0-2.6.7-3.6 1.7s-1.6 2.3-1.7 3.6c-1.2 0-2.4-.5-3.3-1.5s-1.4-2.1-1.5-3.3c1.3 0 2.6-.7 3.6-1.7Z"/>
    <path d="M11.7 145.1c.9-.9 1.4-2 1.5-3.1-1.1 0-2.2.6-3.1 1.4s-1.4 2-1.4 3.1c1.1 0 2.2-.6 3.1-1.5Z"/>
  </g>
  <path fill="#d61632" d="M.2 205.9h335v112.7H.2z" filter="url(#b)"/>
  <path d="M-.2.6h335v110.6H-.2z" opacity=".8"/>
  <path fill="none" stroke="#fbe281" stroke-miterlimit="10" stroke-width="4" d="M4.9 169.4h80.2v29.8H4.9z"/>
  <g fill="#fff" data-name="PRINT">
    <path d="M29.8 11.9c0 .6-.2 1.1-.6 1.5l-6.8 6.8-7.2-4.2v-4.1c0-1.2 1-2.1 2.1-2.1s2.1 1 2.1 2.1v5.2l6.7-6.7c.8-.8 2.2-.8 3 0 .4.4.6 1 .6 1.5Zm-.6 18.9c-.4.4-.9.6-1.5.6s-.6 0-.8-.2c-.3-.1-.5-.3-.7-.5l-2.3-2.3-4.4-4.4v5.2c0 1.2-1 2.1-2.1 2.1s-2.1-1-2.1-2.1v-4.1l7.2-4.2 4.5 4.5 2.3 2.3c.8.8.8 2.2 0 3Zm-7.1-10.3c0-.1-.1-.2-.2-.3l-1.8-1-4.9-2.8-4.1-2.4c-.2-.1-.5 0-.7.2v12.7c0 .3.2.5.5.5h.2l4.1-2.4 6.7-3.9s.1-.1.1-.2v-.3Zm-10.2-5 3.2 1.8 5.2 3s.1 0 .1.1v.3s0 .2-.2.2l-5.2 3-3.2 1.9c-.2 0-.4 0-.5-.1v-9.9c0-.2.2-.4.4-.4h.2Z"/>
    <path d="M19 20.7s0 .1-.1.2L15 23.2l-2.4 1.4c-.1 0-.3 0-.4-.1v-7.4c0-.2.1-.3.3-.3h.1l2.4 1.4 3.9 2.3s.1 0 .1.2v.2Zm45.9-.6-6-3-3.7-1.8c-.2-.1-.5 0-.6.2v10.1c.1.2.4.4.6.4h.4l3.4-1.9 2.1-1.1 3.8-2s.2-.1.2-.2v-.2c0-.1-.1-.2-.2-.2Zm-6 3-2.8 1.5c-.2 0-.4 0-.5-.1v-7.8c0-.2 0-.3.3-.3h.1l2.9 1.4 1 .5 3.6 1.8s.1 0 .2.2v.2s0 .1-.1.2L59 23.1Z"/>
    <path d="M62.3 20.5s0 .1-.1.1l-3.4 1.8-2.1 1.1h-.3v-5.9c0-.1 0-.2.2-.2h.1l2.1 1.1 3.5 1.7.1.1v.1Zm-23-5.1h-5.2v10.4h2.6v-3.4h2.7c2.5 0 4.3-1.5 4.3-3.6 0-2-1.9-3.5-4.4-3.4Zm-.2 4.9h-2.4v-2.9h2.4c1.2 0 2.1.5 2.1 1.4 0 .9-.8 1.5-2 1.5Zm14.3 5.5-8.2.1-.1-10.3h2.5l.1 8.3 5.7-.1v2zm16.8-3.9.1 3.7h-2.5l-.1-3.7-4.6-6.5 2.9-.1 2.9 4.5 3-4.5 2.7-.1-4.4 6.7zm15.3 4.2h-1.7l-4.4-4.7-1.8 1.7.1 3.1h-1.3l-.2-10.3h1.3l.1 5.7 5.8-5.8h1.7l-4.8 4.8 5.2 5.5zM92 15.6c-3.2 0-5.9 2.5-5.8 5.4 0 2.9 2.8 5.3 6 5.3s5.8-2.5 5.8-5.4c0-2.9-2.8-5.3-5.9-5.2Zm.4 9.6c-2.5.2-4.7-1.7-4.9-4.2.1-2.3 1.9-4.1 4.2-4.3 2.5-.2 4.7 1.7 4.9 4.2-.1 2.3-1.9 4.1-4.2 4.3Zm15.8-2c0 1.6-1.3 3-4 3-1.7 0-3.3-.5-4.5-1.6l.8-.9c1 .9 2.4 1.5 3.8 1.4 1.8 0 2.7-.9 2.7-1.8 0-1.1-1.1-1.5-3.1-1.9-2.3-.5-3.8-1.1-3.8-2.9 0-1.6 1.6-3 3.8-3 1.5 0 2.9.5 4 1.4l-.8.9c-.9-.8-2.1-1.3-3.3-1.3-1.4 0-2.4.9-2.4 1.8 0 1.1 1.1 1.4 3.1 1.8 2.2.4 3.8 1.1 3.8 2.9Zm13.7 2.9h-1.3l-.1-7.8-4.2 7.3-4.4-7.2.1 7.8h-1.3l-.1-10.3h1.3l4.4 7.1 4.1-7.2h1.3l.2 10.3zm8.2-10.5c-3.2 0-5.9 2.5-5.8 5.4 0 2.9 2.8 5.3 6 5.3s5.8-2.5 5.8-5.4c0-2.9-2.8-5.3-5.9-5.2Zm.4 9.6c-2.5.2-4.7-1.7-4.9-4.2.1-2.3 1.9-4.1 4.2-4.3 2.5-.2 4.7 1.7 4.9 4.2-.1 2.3-1.9 4.1-4.2 4.3Zm15.8-2c0 1.6-1.3 3-4 3-1.7 0-3.3-.5-4.5-1.6l.8-.9c1 .9 2.4 1.5 3.8 1.4 1.8 0 2.7-.9 2.7-1.8 0-1.1-1.1-1.5-3.1-1.9-2.3-.5-3.8-1.1-3.8-2.9 0-1.6 1.6-3 3.8-3 1.5 0 2.9.5 4 1.4l-.8.9c-.9-.8-2.1-1.3-3.3-1.3-1.4 0-2.5.9-2.4 1.8 0 1.1 1.2 1.4 3.1 1.8 2.2.4 3.8 1.1 3.8 2.9Z"/>
  </g>
  <path fill="#fbe281" d="M-.5 205.9h91.2v112.7H-.5z" filter="url(#c)"/>
  <path fill="#fcf5e3" d="M118 211.3c-8.2 0-14.9 6.7-14.9 14.9s1.1 6.3 2.9 8.8l12 20.8 12-20.8c1.8-2.5 2.9-5.5 2.9-8.8 0-8.2-6.7-14.9-14.9-14.9Zm0 21.7c-3.6 0-6.5-2.9-6.5-6.5s2.9-6.5 6.5-6.5 6.5 2.9 6.5 6.5-2.9 6.5-6.5 6.5Z"/>
</svg>
