<svg xmlns="http://www.w3.org/2000/svg" width="335" height="335"><g data-name="Layer 1"><path fill="#0a0b4b" d="M0 0h335v335H0z"/><path fill="#0a0b4b" d="M0 0h335v335H0z" opacity=".8"/><path fill="#e3ddab" d="M0 241.5h335V335H0z"/><path fill="#5872b4" d="M335 241v14.6L122.9 247 0 242v-14.6l123.1 5L335 241z"/><path fill="#df0c22" d="M335 255.6v3.6l-212.2-8.7-122.8-5V242l122.9 5 212.1 8.6z"/><path fill="#97abc4" d="M335 240v2.1l-211.9-8.6-123.1-5v-2.1l123.2 5L335 240z"/><path fill="#0c0c56" d="M335 0c-.7 29-12.9 55.3-32.1 74.6a109.1 109.1 0 0 1-77.2 32.1H109.3C50.1 106.7 1.5 58.9 0 0h335Z"/><g fill="#e3ddab" data-name="uuid-f3fdbca8-19af-4b99-a461-c604056463c2"><path d="M29.6 13.9c0 .5-.2 1-.6 1.4l-6.3 6.3-6.8-3.9v-3.9c0-1.1.9-2 2-2s2 .9 2 2v4.9l6.3-6.3c.8-.8 2.1-.8 2.8 0 .4.4.6.9.6 1.4ZM29 31.7c-.4.4-.9.6-1.4.6s-.5 0-.8-.2c-.2 0-.5-.2-.6-.4l-2.1-2.1-4.1-4.1v4.9c0 1.1-.9 2-2 2s-2-.9-2-2v-3.8l6.8-3.9 4.2 4.2 2.1 2.1c.8.8.8 2.1 0 2.8ZM22.4 22s0-.2-.2-.2l-1.7-1-4.6-2.6L12 16c-.2-.1-.5 0-.6.2V28.1c0 .2.2.5.4.5h.2l3.9-2.2 6.3-3.6s0-.1.1-.2v-.3Zm-9.6-4.7 3 1.7 4.9 2.8s.1 0 .1.1v.3s0 .2-.2.2l-4.9 2.8-3 1.7c-.2 0-.4 0-.5-.1V17.5c0-.2.1-.4.4-.4h.2Z"/><path d="M19.5 22.2s0 .1-.1.2l-3.7 2.1-2.3 1.3c-.1 0-.3 0-.4-.1V18.8c0-.1.1-.3.3-.3h.1l2.3 1.3 3.7 2.1s.1 0 .1.1v.1ZM62.5 21.6l-5.6-2.8-3.4-1.7c-.2-.1-.4 0-.5.1v9.5c.1.2.3.4.6.4h.4l3.2-1.8 2-1 3.5-1.9s.2-.1.2-.2V22s0-.2-.2-.2Zm-5.6 2.9-2.6 1.4c-.2 0-.3 0-.4-.1v-7.3c0-.2 0-.3.2-.3h.1l2.7 1.3 1 .5 3.4 1.7s.1 0 .2.2v.2s0 .1-.1.1l-4.3 2.3Z"/><path d="M60.1 22s0 .1-.1.1l-3.2 1.7-2 1.1h-.3v-5.4c0-.1 0-.2.2-.2l2 1 3.3 1.6.1.1v.1ZM38.5 17.2h-4.8v9.7h2.4v-3.2h2.5c2.3 0 4-1.4 4-3.4 0-1.9-1.8-3.2-4.1-3.2Zm-.2 4.6H36v-2.7h2.3c1.2 0 1.9.5 1.9 1.3s-.8 1.4-1.9 1.4ZM51.8 27l-7.7.1-.2-9.7h2.4l.1 7.8 5.3-.1.1 1.9zM67.5 23.3l.1 3.5h-2.4v-3.5l-4.3-6.1 2.7-.1 2.7 4.3 2.8-4.3 2.6-.1-4.2 6.3zM81.9 27.2l-1.6.1-4.1-4.5-1.7 1.6v2.9l-1.2.1-.1-9.7h1.2l.1 5.3 5.4-5.4h1.6L77 22l4.9 5.2zM88 17.3c-3 0-5.5 2.4-5.5 5.1 0 2.7 2.6 5 5.6 5 3 0 5.5-2.4 5.4-5.1 0-2.7-2.6-5-5.6-4.9Zm.4 9c-2.4.2-4.4-1.6-4.6-3.9a4.27 4.27 0 0 1 8.5-.1 4.2 4.2 0 0 1-3.9 4ZM103.2 24.5c0 1.5-1.2 2.8-3.8 2.8-1.6 0-3.1-.5-4.3-1.5l.8-.9c1 .9 2.2 1.4 3.6 1.4 1.7 0 2.5-.9 2.5-1.7 0-1-1-1.4-2.9-1.8-2.2-.4-3.6-1-3.6-2.7 0-1.5 1.5-2.8 3.6-2.8 1.4 0 2.7.4 3.8 1.3l-.7.9c-.8-.8-2-1.2-3.1-1.2-1.3 0-2.3.8-2.3 1.7 0 1 1.1 1.3 2.9 1.7 2.1.4 3.6 1.1 3.6 2.8ZM116 27.2h-1.2l-.1-7.3-3.9 6.8-4.1-6.7.1 7.3-1.3.1-.1-9.7h1.3l4 6.7 4-6.8h1.2l.1 9.6zM123.7 17.3c-3 0-5.5 2.4-5.5 5.1 0 2.7 2.6 5 5.6 5 3 0 5.5-2.4 5.4-5.1 0-2.7-2.6-5-5.6-4.9Zm.4 9c-2.4.2-4.4-1.6-4.6-3.9a4.2 4.2 0 0 1 3.9-4c2.4-.2 4.4 1.6 4.6 3.9a4.2 4.2 0 0 1-3.9 4ZM138.9 24.5c0 1.5-1.3 2.8-3.8 2.8-1.5 0-2.9-.4-4.1-1.3l-.2-.2.8-.9c.2.1.3.3.5.4.9.6 1.9 1 3 .9 1.7 0 2.5-.9 2.5-1.7 0-.8-.6-1.2-1.6-1.5-.3-.1-.7-.2-1.1-.3h-.2c-2.2-.4-3.6-1-3.6-2.7 0-1.5 1.5-2.8 3.6-2.8 1.4 0 2.7.4 3.8 1.3l-.7.9c-.9-.8-2-1.2-3.1-1.2-1.3 0-2.3.8-2.3 1.7 0 1 1.1 1.3 2.9 1.7.4 0 .8.2 1.1.3.4.1.7.2 1 .4.9.4 1.5 1.1 1.5 2.1Z"/></g><path fill="#df0c22" d="M162.8 132.2c-3.4 0-6.2 2.8-6.2 6.2s.4 2.6 1.2 3.6l5 8.6 5-8.6c.7-1 1.2-2.3 1.2-3.6 0-3.4-2.8-6.2-6.2-6.2Zm0 9c-1.5 0-2.7-1.2-2.7-2.7s1.2-2.7 2.7-2.7 2.7 1.2 2.7 2.7-1.2 2.7-2.7 2.7Z"/><path fill="#e3ddab" d="M320.9 51.8c-2.1-7.2-4.5-14.3-6.9-21.3.2-.1.3-.3.5-.4 1.1-1 2.4-1.9 3.6-2.9.6 1.3 1.1 2.6 1.7 3.8h.1c-.5-1.3-1.1-2.7-1.6-4 .6-.5 1.1-1 1.6-1.5.1-.1 0-.3-.2-.2-.6.3-1.1.7-1.6 1.1-.7-1.7-1.4-3.4-2.1-5.2 2.7-2.3 5.5-4.6 8.1-7 .2-.2 0-.5-.3-.3-2.8 2.1-5.4 4.5-8.1 6.8-.4-1-.8-1.9-1.2-2.9-.2-.5-.4-.9-.6-1.4 1.2-1 2.5-2 3.7-3 1.8-1.5 3.8-3 5.5-4.7.1-.1 0-.3-.2-.2-1.8 1.3-3.4 2.8-5.1 4.2-1.3 1.1-2.7 2.2-4 3.3-.6-1.5-1.2-3.1-1.8-4.6-.8-2.1-1.5-4.3-2.5-6.4 0-.2-.3 0-.3.1.6 2.2 1.6 4.4 2.4 6.6.6 1.5 1.2 3.1 1.8 4.6-.4.3-.8.6-1.2 1-.8.7-1.6 1.3-2.4 2-1.2-3.3-2.4-6.6-3.8-9.9 0-.2-.5 0-.4.2 1.1 3.4 2.5 6.7 3.8 10-1.4 1.2-2.9 2.3-4.3 3.5l-.9-1.8c0-.1-.3 0-.3.1l.6 2.1-3.3 2.7v.1l3.4-2.5c.5 1.4 1.1 2.7 1.6 4.1.1.3.2.6.3.8-5.6 5-11.1 10.1-16.4 15.4-.1.1 0 .3.2.2 5.4-5 10.9-10.1 16.3-15 .6 1.7 1.3 3.4 1.9 5.1-3.4 3-6.7 6.1-9.9 9.3 0 0 0 .2.1.1 3.3-3 6.6-5.9 10-8.8 1.5 4.2 3 8.4 4.5 12.5h.2c-1.3-4.3-2.7-8.6-4.2-12.9 1.4-1.2 2.7-2.4 4.1-3.6 2.4 7 4.7 14 7.1 21 0 .2.4.1.3 0Zm-3.2-25.3c-1.1.9-2.2 1.9-3.2 2.8-.3.2-.5.5-.8.7-.6-1.8-1.3-3.5-1.9-5.3 1.2-1 2.3-2.1 3.5-3.1l.2-.2a112 112 0 0 0 2.2 5.1Zm-5.5-8.8c.4-.4.9-.7 1.3-1.1.2.5.4 1.1.6 1.6.4.9.7 1.8 1.1 2.7-1.2 1.1-2.4 2.2-3.6 3.2-.6-1.5-1.1-3-1.7-4.5.8-.7 1.5-1.3 2.3-1.9Zm-7 5.6c1.5-1.1 2.9-2.2 4.3-3.4v.2c.5 1.5 1.1 2.9 1.6 4.4-1.4 1.2-2.8 2.5-4.2 3.7 0-.3-.2-.5-.3-.8l-1.5-4.2Zm3.9 10.7c-.6-1.7-1.3-3.4-1.9-5.2 1.4-1.3 2.8-2.5 4.2-3.7.6 1.8 1.3 3.5 1.9 5.3-1.4 1.2-2.8 2.4-4.1 3.6ZM66.9 103.5c-1.7.7-3.4 1.8-5 2.7-1.6.9-3.3 1.8-4.9 2.8-.5.3-.9.5-1.4.8-1-1.7-1.9-3.3-2.9-5 2.2-1.3 4.4-2.6 6.6-3.8.2-.1 0-.5-.2-.4-2.2 1.3-4.4 2.6-6.6 3.8-.7-1.1-1.4-2.3-2.1-3.4-.2-.4-.5-.8-.8-1.2 2-1.1 4.1-2.2 6.2-3.3 3.9-2 7.7-4 11.7-5.9v-.1c-6.1 2.8-12.1 5.8-17.9 9l-3-4.8c2.2-1.2 4.5-2.2 6.6-3.6.1 0 0-.4-.1-.3-2.3.9-4.5 2.3-6.7 3.5-1.3-2.1-2.6-4.4-4.2-6.3-.1-.1-.3 0-.2.2 1.1 2.2 2.7 4.2 4 6.3-1.7.9-3.3 1.8-4.9 2.7-1.3-2-2.5-3.9-3.8-5.8-2.4-3.6-5-7.1-7.6-10.6h-.1c3.9 5.4 7.6 11 11.2 16.6-.4.2-.8.5-1.3.7-1.1.7-2.3 1.3-3.4 2-1.3-2.2-2.6-4.3-3.9-6.5-.1-.2-.5 0-.4.2 1.3 2.2 2.6 4.3 3.9 6.5-1.7 1-3.3 2-5 3-.3-.5-.6-.9-.9-1.4l-3-4.8c-1-1.6-1.9-3.3-3.1-4.8-.1-.2-.3 0-.3.2.8 1.7 1.9 3.2 2.9 4.8l3 4.8c.3.5.6.9.9 1.4-1.4.9-2.9 1.8-4.3 2.7v.1c1.5-.9 2.9-1.7 4.4-2.6 1 1.7 2.1 3.3 3.1 5-2.1 1.3-4.3 2.7-6.4 4-3.7 2.4-7.2 4.8-10.7 7.4v.1c5.7-3.9 11.4-7.7 17.2-11.3.6.9 1.2 1.9 1.8 2.8.4.6.7 1.2 1.1 1.8-3.7 2.1-7.3 4.3-10.9 6.4l-9.6 5.7c-.1 0 0 .3.1.2 6.9-4 13.8-8 20.7-11.9l3 4.8-12.3 7.2c-.1 0 0 .2.1.2 4.2-2.3 8.3-4.7 12.5-7 2.5 4 5 8.1 7.5 12.1 0 .1.2 0 .2-.1-2.4-4.1-4.9-8.2-7.4-12.2 1.6-.9 3.2-1.8 4.9-2.7 2.2 3.6 4.4 7.3 6.6 10.9 1.9 3.2 3.9 6.4 5.8 9.5 0 .1.3 0 .2-.1-4.1-6.8-8.1-13.7-12.2-20.5.6-.3 1.2-.7 1.8-1 1-.5 2-1.1 2.9-1.6l3.6 6.6c2 3.8 4 7.7 6 11.6h.1c-2.9-6.2-6.1-12.3-9.5-18.3 1.7-1 3.4-1.9 5.1-2.9.9 1.5 1.7 2.9 2.6 4.4h.1c-.8-1.5-1.6-3-2.5-4.4.4-.2.8-.5 1.3-.7 1.6-.9 3.3-1.8 4.9-2.8 1.7-.9 3.5-1.8 5.1-2.9.1 0 0-.4-.1-.3Zm-16.8-2.1c.7 1.1 1.3 2.1 2 3.2-1.7 1-3.3 1.9-5 2.9-.9-1.6-1.9-3.2-2.8-4.7 1.7-.9 3.3-1.9 5-2.8.3.5.6.9.9 1.4Zm-3.3 6.3c-1.6.9-3.2 1.9-4.8 2.8-.9-1.6-1.9-3.2-2.8-4.8 1.6-.9 3.2-1.9 4.8-2.8 1 1.6 1.9 3.1 2.9 4.7ZM46 94.9l3 4.8c-1.7.9-3.3 1.8-5 2.8l-3-4.8c1.6-.9 3.3-1.8 5-2.7Zm-6.7 3.7c.5-.3 1-.5 1.4-.8l3 4.8c-1.6.9-3.2 1.8-4.8 2.8-.4-.7-.9-1.5-1.3-2.2-.5-.9-1.1-1.8-1.6-2.7 1.1-.6 2.2-1.3 3.3-1.9Zm-8.6 5c1.7-1 3.3-1.9 5-2.9 1 1.7 2 3.3 3 5-1.6 1-3.2 2-4.9 3-1-1.7-2.1-3.3-3.1-5Zm4.9 8c-.6-.9-1.1-1.8-1.7-2.7.5-.3 1.1-.7 1.6-1 1.1-.7 2.2-1.3 3.2-1.9 1 1.6 1.9 3.2 2.9 4.7-1.6.9-3.2 1.9-4.9 2.8-.4-.6-.8-1.3-1.2-1.9Zm4.3 7.1c-1-1.6-1.9-3.2-2.9-4.8 1.6-.9 3.2-1.9 4.9-2.8 1 1.6 1.9 3.2 2.9 4.8-1.6.9-3.2 1.9-4.9 2.8Zm7.2-4.1c-.7.4-1.3.8-2 1.1-1-1.6-1.9-3.2-2.9-4.8 1.6-.9 3.2-1.9 4.8-2.8 1 1.6 1.9 3.3 2.9 4.9-.9.5-1.8 1-2.8 1.6Zm3-1.7c-.3-.6-.6-1.1-.9-1.7-.6-1.1-1.3-2.2-1.9-3.3.7-.4 1.5-.9 2.2-1.3.9-.5 1.8-1.1 2.7-1.6 1 1.6 2 3.3 3 4.9-1.7 1-3.4 1.9-5.1 2.9ZM331.2 158.7c-1.7.7-3.4 1.8-5 2.7-1.6.9-3.3 1.8-4.9 2.8-.5.3-.9.5-1.4.8-1-1.7-1.9-3.3-2.9-5 2.2-1.3 4.4-2.6 6.6-3.8.2-.1 0-.5-.2-.4-2.2 1.3-4.4 2.6-6.6 3.8-.7-1.1-1.4-2.3-2.1-3.4-.2-.4-.5-.8-.8-1.2 2-1.1 4.1-2.2 6.2-3.3 3.9-2 7.7-4 11.7-5.9v-.1c-6.1 2.8-12.1 5.8-17.9 9l-3-4.8c2.2-1.2 4.5-2.2 6.6-3.6.1 0 0-.4-.1-.3-2.3.9-4.5 2.3-6.7 3.5-1.3-2.1-2.6-4.4-4.2-6.3-.1-.1-.3 0-.2.2 1.1 2.2 2.7 4.2 4 6.3-1.7.9-3.3 1.8-4.9 2.7-1.3-2-2.5-3.9-3.8-5.8-2.4-3.6-5-7.1-7.6-10.6h-.1c3.9 5.4 7.6 11 11.2 16.6-.4.2-.8.5-1.3.7-1.1.7-2.3 1.3-3.4 2-1.3-2.2-2.6-4.3-3.9-6.5-.1-.2-.5 0-.4.2 1.3 2.2 2.6 4.3 3.9 6.5-1.7 1-3.3 2-5 3-.3-.5-.6-.9-.9-1.4l-3-4.8c-1-1.6-1.9-3.3-3.1-4.8-.1-.2-.3 0-.3.2.8 1.7 1.9 3.2 2.9 4.8l3 4.8c.3.5.6.9.9 1.4-1.4.9-2.9 1.8-4.3 2.7v.1c1.5-.9 2.9-1.7 4.4-2.6 1 1.7 2.1 3.3 3.1 5-2.1 1.3-4.3 2.7-6.4 4-3.7 2.4-7.2 4.8-10.7 7.4v.1c5.7-3.9 11.4-7.7 17.2-11.3.6.9 1.2 1.9 1.8 2.8.4.6.7 1.2 1.1 1.8-3.7 2.1-7.3 4.3-10.9 6.4l-9.6 5.7c-.1 0 0 .3.1.2 6.9-4 13.8-8 20.7-11.9l3 4.8-12.3 7.2c-.1 0 0 .2.1.2 4.2-2.3 8.3-4.7 12.5-7 2.5 4 5 8.1 7.5 12.1 0 .1.2 0 .2-.1-2.4-4.1-4.9-8.2-7.4-12.2 1.6-.9 3.2-1.8 4.9-2.7 2.2 3.6 4.4 7.3 6.6 10.9 1.9 3.2 3.9 6.4 5.8 9.5 0 .1.3 0 .2-.1-4.1-6.8-8.1-13.7-12.2-20.5.6-.3 1.2-.7 1.8-1 1-.5 2-1.1 2.9-1.6l3.6 6.6c2 3.8 4 7.7 6 11.6h.1c-2.9-6.2-6.1-12.3-9.5-18.3 1.7-1 3.4-1.9 5.1-2.9.9 1.5 1.7 2.9 2.6 4.4h.1c-.8-1.5-1.6-3-2.5-4.4.4-.2.8-.5 1.3-.7 1.6-.9 3.3-1.8 4.9-2.8 1.7-.9 3.5-1.8 5.1-2.9.1 0 0-.4-.1-.3Zm-16.8-2.1c.7 1.1 1.3 2.1 2 3.2-1.7 1-3.3 1.9-5 2.9-.9-1.6-1.9-3.2-2.8-4.7 1.7-.9 3.3-1.9 5-2.8.3.5.6.9.9 1.4Zm-3.3 6.3c-1.6.9-3.2 1.9-4.8 2.8-.9-1.6-1.9-3.2-2.8-4.8 1.6-.9 3.2-1.9 4.8-2.8 1 1.6 1.9 3.1 2.9 4.7Zm-.8-12.8 3 4.8c-1.7.9-3.3 1.8-5 2.8l-3-4.8c1.6-.9 3.3-1.8 5-2.7Zm-6.7 3.7c.5-.3 1-.5 1.4-.8l3 4.8c-1.6.9-3.2 1.8-4.8 2.8-.4-.7-.9-1.5-1.3-2.2-.5-.9-1.1-1.8-1.6-2.7 1.1-.6 2.2-1.3 3.3-1.9Zm-8.6 5c1.7-1 3.3-1.9 5-2.9 1 1.7 2 3.3 3 5-1.6 1-3.2 2-4.9 3-1-1.7-2.1-3.3-3.1-5Zm4.9 8c-.6-.9-1.1-1.8-1.7-2.7.5-.3 1.1-.7 1.6-1 1.1-.7 2.2-1.3 3.2-1.9 1 1.6 1.9 3.2 2.9 4.7-1.6.9-3.2 1.9-4.9 2.8-.4-.6-.8-1.3-1.2-1.9Zm4.3 7.1c-1-1.6-1.9-3.2-2.9-4.8 1.6-.9 3.2-1.9 4.9-2.8 1 1.6 1.9 3.2 2.9 4.8-1.6.9-3.2 1.9-4.9 2.8Zm7.2-4.1c-.7.4-1.3.8-2 1.1-1-1.6-1.9-3.2-2.9-4.8 1.6-.9 3.2-1.9 4.8-2.8 1 1.6 1.9 3.3 2.9 4.9-.9.5-1.8 1-2.8 1.6Zm3-1.7c-.3-.6-.6-1.1-.9-1.7-.6-1.1-1.3-2.2-1.9-3.3.7-.4 1.5-.9 2.2-1.3.9-.5 1.8-1.1 2.7-1.6 1 1.6 2 3.3 3 4.9-1.7 1-3.4 1.9-5.1 2.9ZM54.8 36.5c.6-.5 1.1-1 1.6-1.5.3-.3 0-.7-.4-.5-.5.4-1.1.8-1.6 1.2-.3-.6-.5-1.2-.8-1.8-.2-.3-.7 0-.6.3.2.7.5 1.4.7 2.1-3 2.4-5.7 5.2-8.3 8-.1.1 0 .4.2.2 2.7-2.5 5.6-4.8 8.4-7.3 1.3 3.5 2.7 6.9 3.9 10.4 0 .2.4.1.3 0-1-3.6-2.1-7.4-3.5-11Z" opacity=".8"/><path fill="#e3ddab" d="M90.5 189.8v.7c-.3 11.2-9.6 20-20.8 19.7L0 208.3v-21l90.5 2.4Z"/><circle cx="61" cy="274" r="61" fill="#df0c22"/><circle cx="61" cy="274" r="57.5" fill="#5872b4"/><g fill="#f1f1f1"><path d="M36.6 301v6.1c0 1.5-1.3 2.8-2.8 2.8H20.1c-1.5 0-2.8-1.3-2.8-2.8v-13.7c0-1.5 1.3-2.8 2.8-2.8h6.2c.4 0 .8.3.8.8s-.3.8-.8.8h-5.9c-.9 0-1.7.8-1.7 1.7v13c0 .9.8 1.7 1.7 1.7h13c.9 0 1.7-.8 1.7-1.7v-5.8c0-.4.3-.8.8-.8.4 0 .8.3.8.8ZM37.5 289.7a3.16 3.16 0 0 1 0 4.52l-.35.35-4.53-4.52.36-.36a3.16 3.16 0 0 1 4.52 0Z"/><path d="m36.4 295.4-6.8 6.8h-.3l-4.4.6c-.2 0-.5-.2-.5-.5l.6-4.4v-.3l6.8-6.8 4.5 4.5Z"/></g><path fill="#ff4041" d="M242.2 250.3c2.6-3.3 4.1-7.5 4.2-11.7v-1.5c-.2-2.9-.9-5.7-2.1-8.2-1.8-3.7-4.8-6.8-8.5-8.7-1.8-1-3.7-1.6-5.7-2-2.2-.4-4.4-.3-6.5.3-4.3 1.1-8.2 3.6-11 7.1-2.6 3.3-4.1 7.5-4.2 11.7v1.5c.2 2.9.9 5.7 2.1 8.2 1.8 3.7 4.8 6.8 8.5 8.7 1.8 1 3.7 1.6 5.7 2 2.2.4 4.4.3 6.5-.3 4.3-1.1 8.2-3.6 11-7.1Z"/><path fill="#d68d65" d="M303.7 248.6c.2-.5.2-1 .2-1.5v-3.5c0-.4-.1-.9-.5-1.1-.5-.3-.6.5-.8.8-.2.3-.6.6-1 .7 0 .6 0 1.2-.1 1.8 0 0 0-.1.1-.1.2-.2.5 0 .6-.3.2-.3.1-.6.2-.9 0-.5.3-.9.9-1 .2 0 .3.4 0 .4-.6.1-.4 1-.5 1.4 0 .2-.2.4-.3.6-.1.1-.5.2-.5.4s.2.5.3.7c.1.3.2.6.2.9 0 .5-.2 1-.7 1.2-.1 0-.3 0-.2-.2.4-.5.4-1.2.1-1.7 0-.2-.2-.4-.2-.6 0 .1-.2.3-.4.2-.6-.5-.9-1.2-.9-1.9V243c0-.3-.2-.5-.3-.8-.4-.9-.2-1.9 0-2.9 0-.2.1-.5.2-.7 0-.3 0-.5-.3-.7-.4-.4-.7-.8-1-1.2-.6-.9-.9-2-.5-3-.5.1-1 0-1.5-.1v.5c0 .2-.3.3-.5.4-.3 0-.7 0-.9-.3-.2.3-.4.5-.6.7-.3.3-.7.6-1.1.8-.8.4-1.7.7-2.6.7h-1.4c-.1 0-.6 0-.7.2v.6c-.4.8-1.4.4-1.8-.2-.6.3-1.4.4-2.1.5-.8 0-1.7 0-2.4-.3-.4-.1-.8-.3-1.1-.5-.4-.2-.7-.5-1.1-.7-.4-.2-.9 0-1.3.1-.1 0-.3 0-.4.1-.5.8-.9 1.7-1.1 2.7-.2.8-.2 1.6-.2 2.4 0 .5.1 1.1.2 1.6 0 .6.1 1.2.2 1.8 0 .6 0 1.2.2 1.9l.3 1.8c.1 1.2.1 2.4.3 3.5.2 1 .7 1.9 1.2 2.8.6 1 1.2 1.9 1.4 3.1 0 .2-.3.4-.4.2-.2-.4-.3-.7-.5-1v.9c0 .8.2 1.5.5 2.2.3.8.8 1.3 1.3 1.9.2.3.5.5.7.8 0-.2-.1-.5-.2-.7 0-.2.2-.3.3-.1.4.5.6 1.1 1 1.7.3.5.7 1.1 1.2 1.5.4.4.8.7 1.4 1 .6.2 1.2.3 1.8.2.7 0 1.4-.2 2.1-.2.7 0 1.4 0 2.1-.1 1.2-.3 2.1-.9 2.9-1.8.5-.5.9-1.1 1.3-1.7l1.3-1.9c.1-.2.4 0 .3.2-.1.2-.2.5-.3.7.1-.1.3-.2.4-.3.3-.3.6-.5.9-.9.5-.7.9-1.5 1-2.3.2-1 .1-2 .1-3.1V249.8c0-.6 0-1.2.2-1.8 0-.2.3-.2.3 0 .1.5.1 1.1.2 1.7v2.5c.1.1.3.2.5 0 .4-.2.4-.8.4-1.1 0-.5.3-.8.6-1.2.3-.3.6-.6.8-1Z"/><path fill="#f28c5a" d="M286.3 246.1c-.4-.2-.6-.7-1-.9-.4-.2-.9-.3-1.4-.3-.9 0-2 .3-2.5 1.1 0 .1 0 .2.2.2.3-.1.6-.2.8-.3 0 .2 0 .5.2.6l.1.1c-.3 0-.6-.2-.9-.3h-.1v.2c.4.4.9.6 1.5.7.5 0 1.1 0 1.6-.4.1 0 0-.3-.1-.3h-.5s.2-.2.2-.3v-.4c.3 0 .5.1.7.3.1.1.2.2.4.3-.1.1 0 .4.2.4s.4 0 .5-.2v-.3Zm-2.9.1c-.2 0-.3 0-.4-.2v-.3c.3 0 .7-.1 1-.1.2.3-.3.6-.5.7Z"/><path fill="#f28c5a" d="M282.5 244.2c.5-.2 1.6-.5 2 0 .1.1 0 .4-.1.3h-.7c-.3 0-.6 0-.9.2-.5.1-1.2.4-1.5.9 0 .1-.2 0-.2 0 .2-.7.8-1.1 1.5-1.3Z"/><path fill="#244767" d="M286.4 241.5s0-.1-.1-.1c-.4-.2-.9-.2-1.4-.2h-2.8c-.4 0-.8 0-1.1.2-.7.6-1.2 1.3-1.7 2.1v.2h.1c.6-.3 1.1-.7 1.7-1 .5-.2.9-.2 1.4-.1.9.2 1.8.3 2.8.4.3 0 .9.2 1-.2V241.5ZM297.9 241.1l-.6-.6c-.3-.3-.7-.7-1.2-.8 0 0 0-.1-.1-.1h-.8c-.3 0-.5.1-.8.2-.5.1-1.1.2-1.6.4-1.1.2-2.2.5-3.3.8-.1 0-.2.1-.2.3 0 .5.1 1.6.8 1.5.3 0 .6-.3.9-.4a3 3 0 0 1 1-.4c.7-.3 1.4-.5 2.1-.7.4 0 .7-.2 1.1-.2.3 0 .6 0 .8-.2.7.4 1.5.7 2.2 1.2 0 0 .1 0 .1-.1-.1-.3-.2-.5-.4-.7Zm-1.2-.5.2.2s-.1 0-.2-.1Z"/><path fill="#f28c5a" d="M296.3 245c-.7-.7-1.7-.8-2.7-.7-.5 0-1 .2-1.3.5-.3.3-.5.7-.8 1-.1 0-.1.3 0 .3.2 0 .3.2.6.1 0 0 .1 0 .1-.1v-.2c.1-.1.2-.2.3-.4.2-.2.4-.3.7-.4 0 .2 0 .3.2.5 0 0 .1.2.2.3h-.5c-.1 0-.1.2 0 .3.5.3 1.2.3 1.8.2s1-.4 1.3-.9v-.1h-.1c-.3.2-.6.4-.9.5v-.2c.1-.2.2-.4.1-.6.3 0 .5.1.8.2.1 0 .2-.1.1-.2Zm-2.6 0h1c0 .3 0 .5-.3.6-.2 0-.8-.2-.7-.5Z"/><path fill="#f28c5a" d="M294.9 243.9h-.9c-.3 0-.5.1-.8.2-.2 0-.3-.1-.2-.3.4-.6 1.4-.4 2-.4.7.1 1.3.4 1.6 1 0 .1 0 .2-.2.1-.4-.4-1-.6-1.5-.6ZM292.1 251.7c.5.1.5.8.4 1.2-.1.4-.6.8-1.1.8-.1 0-.2-.3 0-.3.3-.1.5-.2.7-.5.1-.2.1-.8 0-1 0 0 0-.2.1-.2ZM291.3 252.8h-.8c-.3 0-.5.2-.7.3-.2.1-.3 0-.3-.3.3-.7 1.4-.9 1.9-.3 0 0 0 .3-.1.3ZM286.3 252.7c.5-.3 1.1-.1 1.5.3 0 0 0 .2-.1.2-.3 0-.6-.1-.9 0-.2 0-.5.1-.6-.2 0 0 0-.2.1-.2Z"/><path fill="#f28c5a" d="M286.9 253.7c.1 0 0 .2 0 .2-.4 0-.7 0-1-.2-.2-.2-.4-.4-.6-.7-.2-.5 0-1.3.6-1.4 0 0 .2 0 .1.2-.2.4-.4.7-.3 1.2.2.4.7.6 1.1.7Z"/><path fill="#f28c5a" d="M292 252.6s0 .1-.1 0c-.2-.4-.6-.7-1.1-.7-.5 0-.9.4-1.4.6l-.9.3h.2v.1c-.6 0-1.1-.3-1.5-.8h-.5c-.2 0-.4.2-.7.2 0 0-.1 0-.1-.1 0-.3.5-.4.7-.4h.4c-.2-.4-.1-.7 0-1.1.1-.3.3-.7.6-.9 0-.3 0-.6-.1-.8v-4.8c0-.2 0-.5-.1-.7 0-.2-.2-.4-.3-.6 0 0 0-.2.1-.1.5.1.6.7.7 1.1.1.6.1 1.2.1 1.8V249.9c0 .3-.3.5-.5.8-.2.3-.2.5 0 .9 0 .2.1.3.2.4.1 0 .3.2.4.2h.8c.5-.1.9-.4 1.3-.6.7-.3 1.6.1 1.8.9ZM288.9 256.3c-.1 0-.2-.1-.3-.3 0 0 0-.2.1-.2h.1V254.4h.1c0 .5.3.8.3 1.2 0 .3 0 .7-.5.7ZM287.1 260.1c.5.7 1.6.3 2.3.4.8 0 1.8.2 2.4-.3 0 0 .3 0 .2.1-.6.9-1.7.7-2.7.8-.9 0-2.3.4-2.6-.8 0-.3.3-.4.4-.2Z"/><path fill="#f28c5a" d="M290.3 243.7s.2 0 0 .1c-.3.3-.6.9-.7 1.3-.1.6 0 1.2 0 1.8 0 .2-.3.2-.3 0-.2-.6 0-1.4 0-2 .2-.5.4-.9.9-1.2ZM289.4 247.2H289.7v.4H289.4s-.2-.1-.2-.2c0 0 0-.2.2-.2ZM289.4 247.9H289.7c.1 0 .1.2 0 .3H289.4s-.1 0-.1-.2c0 0 0-.2.1-.2Z"/><path fill="#fff" d="M291.3 257.9c-.3 0-.6-.2-.9 0-.3 0-.5.2-.7.3-.4 0-.9 0-1.2-.3-.2.1-.5.2-.8.3h1.8c.7 0 1.4 0 2.1-.2-.1 0-.3 0-.4-.1Z"/><path fill="#ffc098" d="M328.1 324c0 .1-.2.2-.2.3 2.2-1.2 4.7-2.2 7.2-2.7v.7c-2.6.7-5 1.7-7.3 3-1.3.8-2.5 1.6-3.7 2.6-1.2.9-2.3 1.8-3.6 2.6-1.3.7-2.7 1.1-4.1 1.3-.7 0-1.5.1-2.2 0h-1c-.4 0-.8-.2-1.1-.3-.8-.2-1.6-.3-2.4-.5-.8-.2-1.6-.5-2.4-.8-1.5-.7-3.2-1.3-4.9-1.2-.3 0-.4-.5 0-.6 1.5-.2 3 .3 4.3.9 1.4.7 2.8 1.3 4.3 1.6.4 0 .7.2 1.1.2H315.5c1.5-.1 2.9-.5 4.2-1.1.4-.2.7-.4 1-.6h-2.3c-1.3 0-2.6-.3-3.9-.7-2.4-.8-4.6-2-7-2.7-.7-.2-1.3-.4-2-.5-.7 0-1.4 0-2.1-.1-.2 0-.3-.4 0-.4.6-.1 1.2-.1 1.8 0 .6 0 1.2.2 1.8.3 1.2.3 2.3.7 3.5 1.2 2.4 1 4.7 2.1 7.3 2.4.8 0 1.6.1 2.4 0 .5 0 1 0 1.5-.1.6-.4 1.2-.9 1.8-1.3 1.1-.8 2.1-1.6 3.3-2.3.4-1 1.1-1.9 1.8-2.7.7-.9 1.5-1.6 2.3-2.3 1.3-1 2.8-1.6 4.4-2v.7c-.2 0-.5.1-.7.2-1 .3-1.9.8-2.8 1.4-.9.6-1.7 1.3-2.4 2.1-.4.4-.7.9-1 1.4ZM278.5 268.4c-.1 2.8.2 5.5.9 8.2.6 2.3 1.4 4.7 3 6.6.4.4.8.8 1.2 1.1.2.2.4.3.7.4.1 0 .2.1.3.1H284.9v-.8c0-.3-.1-.6-.2-.9-.2-.6-.4-1.1-.7-1.6-.6-1.1-1.3-2.1-1.8-3.2-.6-1.1-1.1-2.3-1.4-3.6-.2-.7-.3-1.5-.3-2.3 0-.6 0-1.2.3-1.7s.7-.7 1.3-.6c.5.1.8.5.7.9 0 .3-.5.2-.5 0 0-.4-.6-.5-.8-.3-.4.4-.4 1.1-.4 1.6 0 1.3.4 2.7.9 3.9.9 2.3 2.6 4.1 3.4 6.4.2.6 1 2.9-.4 2.8-.5 0-1.1-.4-1.5-.7-.5-.3-.9-.7-1.2-1.1-1.6-1.7-2.4-4.1-3-6.3-.8-3-1.1-6.1-.8-9.2 0-.2.3-.2.3 0ZM261.1 288c.3.6.5 1.2.6 1.8 0 .3.1.6.1.9v1c0 .2-.3.2-.4 0-.1-.2-.2-.5-.2-.8 0-.3-.1-.6-.2-.9-.1-.6-.3-1.2-.5-1.8 0-.3.4-.5.5-.2ZM226.9 278.9c-.1-.1 0-.4.2-.3.3.1.6.2 1 .1 0 0 .2 0 0 .2-.3.3-1 .4-1.3 0ZM227.1 279.8c-.2-.1 0-.5.2-.4.5.2 1 .2 1.5-.1.2-.1.4.2.2.3-.5.4-1.3.6-1.9.2ZM231.3 288.6c.4 0 .7.1 1 .1.2 0 .2.3 0 .4-.4.1-.9.1-1.2-.1-.2-.1 0-.4.2-.4ZM230.8 289.3c.3.2.7.3 1 .4.1 0 .2.2 0 .2-.5 0-.9 0-1.2-.4-.1-.1 0-.3.2-.2Z"/><path fill="#d68d65" d="M226.2 273.8v-.6s-.2.1-.2.2c-.2.2-.2.5-.2.7 0 .4.5 1.4 1 1.1-.4-.4-.6-.8-.6-1.4ZM228.8 275.5c-.4-.4-.8-.8-1.3-1.1v.7l1.1.8c.3.2.6.4.9.5-.2-.3-.4-.6-.7-.9Z"/><path fill="#ffc098" d="M278.1 263.1c0 .1 0 .2-.1.4 0-.1 0-.2.1-.4Z"/><path fill="#ff4041" d="M279.5 261.3c.4-.2.7-.4 1.1-.5 0 0-.1-.2-.2-.3-.2.1-.3.3-.5.4-.2.1-.3.3-.5.4Z"/><path fill="#d68d65" d="M276.1 246.1c.1.4.4.8.6 1.2.2.4.3.9.4 1.4.2.9.2 1.8.5 2.7.1.3.2.6.4.9-.3-1.1-.4-2.3-.5-3.4 0-1 0-1.9-.1-2.9-.2-.2-.5-.7-.9-.6-.4.1-.3.6-.3.9Z"/><path fill="#244767" d="M302.9 238.6c0-.2 0-.5-.1-.7 0-.2-.2-.4-.3-.6V237c.2-.5.3-1.1.1-1.6 0-.3-.2-.5-.3-.8v-.8c.1-.2.3-.4.3-.7v-.6c0-.2-.2-.4-.3-.6-.1-.2-.3-.3-.5-.5 0 0 0 .1-.1.2-.1.2-.4 0-.3-.2.3-.7 0-1.5-.4-2.1-.5-.6-1.1-.8-1.8-1.2-.6-.3-1.2-.8-1.3-1.4v-.9s0-.2.1-.3h-.4s0 .2-.1.3c0 0 0 .1-.1.2-.1 0-.3 0-.3-.2v-.2c0-.4-.3-.7-.5-.9 0 0-.2-.2-.3-.2-.1 0-.1.2-.1.3 0 .3-.1.6-.1.9 0 .2-.2.2-.3.1a7.79 7.79 0 0 0-4.9-1.6c-1.1 0-2.1.2-3.2.4-.5 0-1 .2-1.6.3-.4 0-.9.1-1.3 0-.5-.2-.5-.5-.6-.9 0-.1 0-.3-.3-.2 0 0-.1.2-.2.2v.8s0 .1-.1.1c-.8.3-1.6.5-2.4 1-.7.5-1.4 1.1-2 1.7-.7.6-1.3 1.3-2 1.9-.7.5-1.4 1.1-2.3.8-.2 0-.8-.4-1-.2-.3.4.2.8.5 1 .2.1.2.4 0 .5 0 .5-.3.9-.4 1.4-.2.6-.3 1.1-.3 1.7 0 1.1.7 2.1.7 3.2 0 .6-.2 1.2-.1 1.7 0 .4.2.7.4 1 .4.7.9 1.3 1.4 2 .4.7 1 1.6.7 2.4.2 0 .3.2.4.3 0-.7-.1-1.4-.2-2.1 0-.7-.2-1.4-.1-2.1-.1-.7 0-1.5 0-2.2.2-.9.5-1.8 1-2.5h-.1c-.8-.1-1.6-.7-1.7-1.5 0-.2.2-.3.3-.1.3.6.9 1.1 1.7 1.1.8 0 1.5-.6 2.3-.4.4 0 .7.3 1 .5.3.2.7.4 1.1.5.7.3 1.5.4 2.3.4.4 0 .8 0 1.3-.1.4 0 .9-.3 1.3-.4.1 0 .3 0 .3.2.2.2.6.6.8.4v-.4c0-.2.2-.4.3-.4.7-.4 1.7-.2 2.5-.3.8 0 1.6-.3 2.3-.7.3-.2.7-.4 1-.7.3-.2.5-.5.8-.7 0-.1.2-.2.4 0s.4.5.7.4c.2-.1.1-.6.1-.8 0-.2.2-.3.3-.3.4 0 .8.3 1.3.3h.2c0-.1.2-.2.3-.2 0 0 .2-.2.2-.3 0-.2.4 0 .3.1 0 .2-.2.4-.4.6 0 .2.1.3.1.4-.1.9.2 1.8.7 2.6.5.7 1.2 1.4 1.1 2.3-.2.9-.5 1.9-.3 2.8 0 .5.3.8.4 1.3v1.3c0 .6 0 1.4.3 2 0-1 .1-1.9.2-2.9 0-.2.3-.2.3 0v.7c.2-.1.3-.3.4-.4.2-.2.2-.4.3-.7-.2-.3-.2-.7-.1-1 0-.6.2-1.1.3-1.6.2-.5.3-1 .3-1.5Z"/><path fill="#d68d65" d="M302.7 254.9c-.2-.8-.4-1.5-.5-2.3-.3.1-.6.2-.9 0v2c0 1.1 0 2.2-.2 3.3-.1.9-.5 1.8-1.1 2.5-.3.4-.6.7-1 1-.4.3-.8.5-1.3.6 0 .2-.2.3-.3.5-.3.6-.8 1.2-1.2 1.8-.8 1-1.9 1.8-3.1 2.2-.7.2-1.5.3-2.2.3-.8 0-1.5 0-2.3.2h-.9c.3 1 .5 2.1.8 3.1.2.5.4 1 .7 1.5.2.5.6.9.8 1.4.7.2 1.5.3 2.2.2 1.7 0 3.5-.5 5-1.2 1.5-.8 3-1.8 4-3.2 1.2-1.7 1.8-3.7 2.2-5.6.3-1.2.4-2.5.5-3.8v-1.8c-.3-.4-.6-.8-.8-1.2-.2-.4-.4-.9-.5-1.4Z"/><path fill="#efb200" d="M307.2 257.3a.9.9 0 0 0-.6-.6c-.4-.1-.7-.3-1-.5-.4-.3-1.2-.8-1.7-.3h.2c.7.7.9 1.7.9 2.7 0 1.2-.1 2.3-.3 3.5-.4 2.2-.9 4.5-2.1 6.4-2 3.2-5.8 5.2-9.5 5.4-1.1 0-2.1 0-3.1-.4-.9-.3-2-.8-2.5-1.7-.1-.2.1-.5.3-.3.5.4 1 .7 1.5 1-.1-.2-.3-.4-.4-.6-.3-.5-.6-1-.8-1.6-.2-.5-.4-1.1-.6-1.7-.2-.6-.3-1.2-.5-1.9h-.2c-.1 0-.2 0-.3-.1v2.1c0 .7 0 1.5.1 2.2.2 1.4 1.3 2.2 2.5 2.7.7.3 1.4.5 2.1.7.7.2 1.5.4 2.2.5.8 0 1.5 0 2.2-.2.7-.2 1.4-.5 2-.7 2.3-.9 4.6-2 6.3-3.9 1-1.1 1.6-2.4 2.1-3.7.6-1.4 1-2.8 1.2-4.3.1-.8.2-1.6.2-2.4 0-.8 0-1.6-.3-2.4Z"/><path fill="#ff4041" d="m319.7 260.1-1.8-.3c-.6-.2-1.2-.4-1.9-.6-1.2-.4-2.4-.6-3.7-.8-1.4-.2-2.8-.3-4.2-.4 0 .6.1 1.3 0 2 0 1-.1 2-.3 3 .7 0 1.4 0 1.9.6.3.2.5.6.5.9 0 .4 0 .7.4.9.3.1.7.1 1 .1h1.4c.8 0 1.7 0 2.5.2.6.2 1.2.5 1.6 1 .2-.3.4-.5.7-.8 1-1.1 2.1-1.9 3.5-2.5.9-.4 1.8-.6 2.7-.6-.6-.3-1.2-.8-1.8-1.3-.8-.7-1.7-1.2-2.7-1.4Z"/><path fill="#ff4041" d="M335 269.5v24.4a19 19 0 0 1-3.9-1.1c-.2 0-.3-.1-.5-.2 0 0-.2-.1-.3-.1-1.1-.4-2.2-1-3.2-1.5-.7-.4-1.3-.8-1.9-1.1-.3-.2-.7-.4-1-.6l-.9-.6c-.2 0-.3.1-.2.2.3.4.7.6 1 .9h.1c-2.1-.5-4.1-1.7-5.5-3.3-1.6-1.8-2.6-4.1-3.1-6.5-.3-1.2-.4-2.5-.5-3.8 0-1.3 0-2.7.3-4 .3-1.2.8-2.4 1.5-3.5.6-1 1.3-2 2.2-2.8 1.7-1.7 4.1-2.8 6.6-2.6.4.2.8.6 1.1.9.4.5.8.9 1.3 1.2.5.4 1.2.7 1.8 1 .6.3 1.3.7 1.9 1.1 1.1.7 2.2 1.3 3.3 2ZM335 294.7v2.3-2.3Z"/><path fill="#fff" d="M301.4 332.5c.7.3 1.4.5 2.1.7h-11.2l.9-.6c.9-.6 1.6-1.4 2.2-2.3.4-.7.8-1.5.9-2.4.2.2.3.5.5.7.6.8 1.2 1.6 2 2.3.8.7 1.7 1.2 2.6 1.6ZM335 327.1v6.2h-13.9l3.3-1.5c1.1-.6 2.1-1.3 3.1-2.1h.2c1.5-1.1 3.2-1.8 5.1-2.1.7-.2 1.5-.3 2.2-.3Z"/><path fill="#ff4041" d="M335 302.5v23.9c-1 0-2.1.2-3.1.5-.8.2-1.5.5-2.2.8 1.2-.9 2.5-1.7 4-1.7.4 0 .4-.7 0-.7-2.2 0-4 1.5-5.6 2.8-.7.6-1.5 1.2-2.3 1.8-.7.5-1.5.9-2.2 1.3-1.5.8-3 1.4-4.5 2 0 0-.2 0-.3.1-1.5.5-3 1.1-4.5 1.6-2.1-1-4.3-1.4-6.5-1.8h-.5c-2-.3-4-.7-5.8-1.5-.9-.4-1.7-1-2.4-1.6-.7-.7-1.3-1.5-1.9-2.3s-1-1.7-1.6-2.5c-.6-.8-1.2-1.6-1.9-2.4-.7-.8-1.2-1.6-1.5-2.6-.1-.5-.2-1-.2-1.6v-.5c.3.6.6 1.2 1 1.8.1.2.4 0 .4-.2-.2-.8-.6-1.5-1-2.2-.2-.3-.4-.6-.6-1-.2-.4-.5-.8-.7-1.1-.5-.7-.9-1.5-1.3-2.2a3 3 0 0 1-.4-.8c-.1-.2-.2-.5-.4-.7-.6-1.3-1.1-2.6-1.5-4-.5-1.3-.9-2.7-1.4-4a12 12 0 0 0-1.6-3.2c0-.1-.1-.2-.2-.3-.1-.1-.2-.3-.3-.4-.4-.6-.6-1.3-.8-2.1v-.2c-.2-.9-.3-1.8-.6-2.6-.6-1.7-1.8-3.2-3-4.6-.6-.7-1.2-1.4-1.6-2.2-.5-.9-.9-1.8-1.3-2.8-.8-2-1.5-4.1-1.8-6.3-.2-1.1-.2-2.3-.2-3.4v-3.5s-.2-.1-.2 0c-.2 1.3-.4 2.6-.5 3.9 0 1.3 0 2.6.2 3.8.3 2.2 1 4.4 1.9 6.5l.6 1.5c-.4-.3-.8-.5-1.2-.8a46 46 0 0 1-2.3-1.5l-2.1-1.8c-.7-.6-1.2-1.4-1.9-2-.2-.2-.4 0-.3.2.5.8 1.1 1.5 1.8 2.1.6.7 1.3 1.3 2 1.8.7.6 1.5 1.1 2.3 1.6.4.2.8.5 1.2.7.2.1.3.2.5.4-.6.1-1.2.3-1.7.3h-2.2c-.8 0-.3.4 0 .5.8.2 1.5.1 2.3 0 .7-.1 1.4-.3 2.1-.6h.2l.2.4.2.2c-2.4 1.1-5 1.5-7.7 1.3-.3 0-.3.4 0 .4 2.7.3 5.5-.2 7.9-1.4.1.2.2.3.4.5-.5.4-1 .8-1.4 1.3-.6.7-1 1.4-1.4 2.1-.2.4-.4.7-.9.7-.4 0-.9-.2-1.3-.3-.9-.3-1.9-.5-2.8-.7-1.6-.4-3.1-.9-4.4-1.9-1.2-1-2.1-2.2-2.8-3.5-.3-.6-.8-1.5-.9-2.3v-.3c0-.5.1-1 .5-1.4.6-.5 1.3-.8 1.6-1.6.2-.4.3-.8.4-1.2a17.42 17.42 0 0 1 3.4-4.8c1.1-1.3 2.2-2.7 3.1-4.1.9-1.5 1.7-3 2.4-4.6.3-.8.7-1.5 1.3-2.2.2-.3.5-.6.8-.8 0 .2-.1.4-.2.6-.3.9-.6 1.8-.7 2.7-.1.9-.3 1.9 0 2.8 0 .2.4.2.5 0 0-.5 0-1 .1-1.5 0-.5.1-1 .2-1.5.2-.9.4-1.7.7-2.6.2-.4.3-.8.5-1.2 0 0 .1-.1.1-.2.2-.3.3-.6.6-.9.4-.5 1-.8 1.6-1-.1.1-.2.3-.3.4-.5.7-1.1 1.5-.8 2.4 0 .2.2.3.4.2.8-.3.7-1.3 1.2-1.9.4-.6 1.2-1 1.8-1.3a9.02 9.02 0 0 0 1.8 1.9c.3.3.5.5.8.7 0 .1.1.2.2.3.3.7.8 1.3 1.4 1.8.2.1.3.3.5.4v3c0 .9 0 1.8.3 2.7.7 1.6 2.3 2.4 3.9 2.9s3.2 1 4.9.9c1.5-.1 3-.8 4.4-1.4 1.3-.5 2.5-1.2 3.7-2 1.2-.9 2.2-1.9 2.9-3.2.8-1.4 1.4-3 1.8-4.5 0-.4.2-.8.3-1.2.5 0 1 0 1.4.2.4.2.6.6.6 1.1 0 .9 1 1.2 1.8 1.2 1.1 0 2.2-.2 3.3 0 .8.1 1.5.4 2.1 1-.4.6-.8 1.3-1.2 2-.7 1.2-1.2 2.6-1.4 4-.2 1.4-.2 2.8-.1 4.2 0 1.3.3 2.7.7 4 .7 2.4 1.9 4.7 3.7 6.5 1.7 1.7 3.9 2.9 6.2 3 .7.5 1.5 1 2.2 1.4-.1 2.2-.3 4.3-.5 6.5-.4 3.9-.7 7.9-1.1 11.8-.2 2-.4 4-.5 5.9-.1 1.9-.2 3.9.2 5.8 0 .1.2.1.2 0 0-2.2 0-4.4.2-6.6.3-4 .7-7.9 1.1-11.8.4-3.7.6-7.5 1.1-11.2.6.3 1.3.6 2 .9 0 .3 0 .5-.1.8 0 .4-.1.8-.2 1.2-.1.8-.3 1.7-.4 2.5-.2 1.7-.4 3.3-.5 5 0 .2.2.2.3 0l.9-5c.1-.9.3-1.7.4-2.5 0-.4.1-.8.2-1.2 0-.2 0-.4.1-.6l1 .3c.8.3 1.7.5 2.5.6a32.72 32.72 0 0 0 .9 7.9Z"/><path fill="#d68d65" d="M224 289.1c.1.1.3.3.4.3.3.2.6.3.9.5.7.3 1.5.3 2.3.3.7 0 1.4-.2 2.2 0 .3 0 .6.2.8.4.1.1.3.3.5.4h.1c1.1 0 2.2.2 3.2.4 1.1.2 2.1.6 3.1.9a65 65 0 0 1 6.1 2.5c2 .8 4 1.6 6.1 2.2 2.2.6 4.5.9 6.8.8 1.4 0 2.9-.3 4.3-.5 1.4-.3 2.9-.6 4.3-.7.2 0 .2.3 0 .4h.8c.6-.2 1.2-.4 1.7-.8a8 8 0 0 0 1.3-1.3 5.55 5.55 0 0 0 .8-1.1c-1.2-.3-2.5-.6-3.6-1.3-1.4-.8-2.5-2-3.3-3.3-.4-.7-.8-1.3-1.2-2.1-.3-.6-.5-1.2-.6-1.9-.6-.2-1.2-.4-1.8-.5-.8-.2-1.6-.2-2.3-.2-1.7 0-3.4.3-5.1.6-1.8.3-3.6.7-5.4.8-1.9 0-3.8-.2-5.6-.3-1 0-2.1-.2-3.1-.2-.8 0-1.6-.2-2.4-.3.2.2.4.3.6.5.2.1 0 .4-.1.3-.8-.2-1.4-.8-1.9-1.4-.6-.7-1-1.4-1.5-2.2-.5-.8-.9-1.7-1.3-2.6-.2-.5-.3-.9-.5-1.4-.2-.4-.5-.7-.9-1-.8-.5-1.6-1-2.4-1.6-.2-.1-.3-.3-.5-.4-.6.7-1.5-.3-1.6-.9 0-.4 0-.8.2-1.2.1-.2.4-.5.6-.6-.2-.2-.7-.1-.9 0-.7.3-1.1 1-1.3 1.7-.2.9 0 1.7.4 2.5.5.8 1.3 1.3 2.1 1.8.1 0 .3 0 .4.2.4 1 0 2-.2 3s-.2 1.9 0 2.9c.1.8.4 1.6.9 2.2.2.3.5.6.9.8.3.2.7.3 1 .5.2.1 0 .4-.1.4-.8 0-1.5-.5-2.1-1-.1.2-.3.3-.4.4-.4.3-.9.3-1.3.3-.6 0-1.3 0-1.9-.2.1.4.3.7.5 1Z"/><path fill="#ff4041" d="M225.7 284.5c0 .4-.3.8-.6 1.1-.5.4-1.1.4-1.6.3 0 .5 0 1.1-.4 1.5.6.1 1.2.2 1.8.2h1.2c.2 0 .3-.1.5-.2 0 0 .1-.2.2-.3-.4-.5-.7-1.2-.9-1.8 0-.3-.1-.5-.1-.8Z"/><path fill="#d68d65" d="M224 282.4c-.4.1-.9 0-1.4 0-.3 0-.7-.1-1-.1h-1c0 .3-.2.7-.1 1 0 .4.2.8.5 1 .4.3.9.3 1.4.4 0-.4.1-.7.3-1 .1-.2.3-.4.5-.5.2-.1.5 0 .7 0 .4.2 1 .4 1 .9s-.5.8-.7 1.2c.2 0 .4 0 .5-.2.3-.2.4-.6.5-.9 0-.4-.1-.8-.4-1.1-.2-.3-.5-.5-.7-.7ZM223.4 281.3c0-.2 0-.3.2-.5 0 0 .1-.2 0-.3h-.3c-.4 0-.8 0-1.1.3-.2.3-.3.7 0 .9 0 0 0 .1.1.2.4 0 .8.2 1.2.2-.1-.2-.2-.5-.1-.7ZM221 286.7c.2.2.4.3.7.4 0-.1 0-.3.2-.4.2-.3.7-.7.4-1-.3-.3-.8-.1-1 .1-.2.2-.3.5-.3.9Z"/><path fill="#d68d65" d="M223.5 285.2h.2c0-.2 0-.3.2-.5.1-.2.3-.3.4-.5.1-.3-.2-.4-.4-.5-.1 0-.4-.2-.6-.2-.1 0-.3.2-.3.4-.2.3-.3.6-.3 1 .3.1.5.2.8.3ZM222.2 287.2c.3-.1.5-.4.6-.6.1-.3 0-.6.1-.9 0 0-.2 0-.2-.1h-.2c.2.2.3.4.2.7-.1.4-.6.7-.7 1.1h.2ZM219.4 285.4c0 .7.7.9 1.2 1.1.1-.6.6-1.2 1.2-1.2-.1 0-.3 0-.4-.1-.4-.1-.9-.3-1.2-.7-.1-.2-.2-.3-.3-.5-.3.4-.6.9-.5 1.4ZM220.1 280.6c0 .6.5.9 1.1 1h.3c-.2-.8.4-1.6 1.3-1.7.4 0 1.1 0 1.3.5 0 .2 0 .4-.2.6-.1.3-.3.6-.2.9.6-.1 1.1-.7 1-1.3 0-.7-.7-1.2-1.3-1.4-.3-.1-.7-.2-1-.2-.3 0-.6.1-1 .2-.1 0-.3-.1-.2-.3.1-.2.3-.3.5-.4V277.2c-.2.1-.5.1-.8.1-.2 0-.3 0-.4-.1v1.4c-.1.6-.4 1.2-.4 1.9ZM221.4 275.3c0-.2 0-.5-.2-.6-.3-.3-.8 0-.9.3v1c.2-.2.5-.3.7-.4h.2s.1 0 .1-.1Z"/><path fill="#d68d65" d="M221.6 272.6c-.2.1-.3.2-.5.3-.3.2-.6.4-.8.7-.1.2-.2.5-.2.7.2-.1.4-.2.7-.2.4 0 .7.3.8.7 0 .3.1.8-.2 1-.4.2-.9.3-1.1.7 0 .2.3.4.5.4.3 0 .7 0 1-.3.3-.3.6-.6.6-1v-.9c-.1 0-.2-.1-.2-.2 0-.5.1-1 0-1.5 0-.2-.2-.4-.3-.5-.1 0-.2.1-.3.2Z"/><path fill="#ff4041" d="M222.4 272.1c0 .3.2.5.3.8.1.5 0 1.1 0 1.6.3.6.3 1.3 0 1.9-.1.2-.3.4-.5.6v1.6c.5 0 1 0 1.4.2.8.3 1.5.9 1.7 1.8.1.7-.2 1.3-.7 1.6.5.3.9.8 1.1 1.3v.1c0-.5 0-1 .1-1.4.1-1 .4-2 .4-3.1-1.6-.5-2.9-2.2-3-3.8 0-.8.1-1.6.6-2.3.5-.6 1.2-1.2 2-1.1.4 0 .8.2.9.6.2.4 0 .9 0 1.3V274.6v-.5c.1-.5.4-.8.7-1.2.1-.1.3-.3.2-.5 0-.2-.3-.2-.4-.3-.5-.1-1-.1-1.6-.2-.6 0-1.2-.1-1.8-.2h-1.6c-.2.1-.2.4-.1.6Z"/><path fill="#244767" d="M216.3 255.2c1 1 1.9 2.1 2.8 3.2.9 1.1 1.7 2.2 2.3 3.4.7 1.3 1.3 2.7 1.6 4.2.4 1.6.6 3.2.3 4.8h.6l3.2.3c0-1.4.3-2.8.7-4.2.4-1.4 1-2.8 1.7-4.1 1.5-2.5 3.8-4.3 6.1-6 .5-.4 1-.8 1.5-1.1-1.2.7-2.5 1.3-3.9 1.8-1.3.5-2.7.8-4.1 1 .2.3.4.7.4 1 .1 1.1-.3 2.2-.7 3.1-.4 1-.9 1.9-1.5 2.8-.3.4-.6.8-1 1-.2.1-.6.2-.9.1-.2 0-.5 0-.7-.2-.4-.2-.7-.6-.9-1-.5-1-.8-2-1.1-3-.3-1-.6-2.2-.3-3.2 0-.4.3-.8.6-1.2-1-.3-2.1-.6-3.1-1.1-1.6-.7-3.1-1.6-4.5-2.7l.8.8Z"/><g fill="#f4c94c"><path d="M226 235.6c-.5 0-.9-.5-.8-1 0-.5.5-.9 1.1-.9.5 0 .8.5.8 1s-.5.9-1 .9ZM225.3 246c.5 0 .8.5.8 1s-.5.9-1 .9-.9-.5-.8-1c0-.5.5-.9 1.1-.9ZM225.3 244.8c-.5 0-.9-.5-.8-1 0-.5.5-.9 1.1-.9.5 0 .8.5.8 1s-.5.9-1 .9ZM225.5 241.7c-.5 0-.9-.5-.8-1 0-.5.5-.9 1.1-.9.5 0 .8.5.8 1s-.5.9-1 .9ZM225.7 238.7c-.5 0-.9-.5-.8-1 0-.5.5-.9 1.1-.9.5 0 .8.5.8 1s-.5.9-1 .9ZM226.6 226.4c-.5 0-.9-.5-.8-1 0-.5.5-.9 1.1-.9.5 0 .8.5.8 1s-.5.9-1 .9ZM226.2 232.5c-.5 0-.9-.5-.8-1 0-.5.5-.9 1.1-.9.5 0 .8.5.8 1s-.5.9-1 .9ZM226.4 229.4c-.5 0-.9-.5-.8-1 0-.5.5-.9 1.1-.9.5 0 .8.5.8 1s-.5.9-1 .9ZM229.1 235.8c-.5 0-.9-.5-.8-1 0-.5.5-.9 1.1-.9.5 0 .8.5.8 1s-.5.9-1 .9ZM228.5 246.2c.5 0 .8.5.8 1s-.5.9-1 .9-.9-.5-.8-1c0-.5.5-.9 1.1-.9ZM228.5 245c-.5 0-.9-.5-.8-1 0-.5.5-.9 1.1-.9.5 0 .8.5.8 1s-.5.9-1 .9ZM228.7 242c-.5 0-.9-.5-.8-1 0-.5.5-.9 1.1-.9.5 0 .8.5.8 1s-.5.9-1 .9ZM228.9 238.9c-.5 0-.9-.5-.8-1 0-.5.5-.9 1.1-.9.5 0 .8.5.8 1s-.5.9-1 .9ZM229.8 226.6c-.5 0-.9-.5-.8-1 0-.5.5-.9 1.1-.9.5 0 .8.5.8 1s-.5.9-1 .9ZM229.3 232.7c-.5 0-.9-.5-.8-1 0-.5.5-.9 1.1-.9.5 0 .8.5.8 1s-.5.9-1 .9ZM229.6 229.7c-.5 0-.9-.5-.8-1 0-.5.5-.9 1.1-.9.5 0 .8.5.8 1s-.5.9-1 .9ZM219.6 235.2c-.5 0-.9-.5-.8-1 0-.5.5-.9 1.1-.9.5 0 .8.5.8 1s-.5.9-1 .9ZM219 245.6c.5 0 .8.5.8 1s-.5.9-1 .9-.9-.5-.8-1c0-.5.5-.9 1.1-.9ZM219 244.4c-.5 0-.9-.5-.8-1 0-.5.5-.9 1.1-.9.5 0 .8.5.8 1s-.5.9-1 .9ZM219.2 241.3c-.5 0-.9-.5-.8-1 0-.5.5-.9 1.1-.9.5 0 .8.5.8 1s-.5.9-1 .9ZM219.4 238.2c-.5 0-.9-.5-.8-1 0-.5.5-.9 1.1-.9.5 0 .8.5.8 1s-.5.9-1 .9ZM220.3 225.9c-.5 0-.9-.5-.8-1 0-.5.5-.9 1.1-.9.5 0 .8.5.8 1s-.5.9-1 .9ZM219.8 232.1c-.5 0-.9-.5-.8-1 0-.5.5-.9 1.1-.9.5 0 .8.5.8 1s-.5.9-1 .9ZM220 229c-.5 0-.9-.5-.8-1 0-.5.5-.9 1.1-.9.5 0 .8.5.8 1s-.5.9-1 .9ZM222.8 235.4c-.5 0-.9-.5-.8-1 0-.5.5-.9 1.1-.9.5 0 .8.5.8 1s-.5.9-1 .9ZM222.1 245.8c.5 0 .8.5.8 1s-.5.9-1 .9-.9-.5-.8-1c0-.5.5-.9 1.1-.9ZM222.1 244.6c-.5 0-.9-.5-.8-1 0-.5.5-.9 1.1-.9.5 0 .8.5.8 1s-.5.9-1 .9ZM222.4 241.5c-.5 0-.9-.5-.8-1 0-.5.5-.9 1.1-.9.5 0 .8.5.8 1s-.5.9-1 .9ZM222.6 238.5c-.5 0-.9-.5-.8-1 0-.5.5-.9 1.1-.9.5 0 .8.5.8 1s-.5.9-1 .9ZM223.4 226.1c-.5 0-.9-.5-.8-1 0-.5.5-.9 1.1-.9.5 0 .8.5.8 1s-.5.9-1 .9ZM223 232.3c-.5 0-.9-.5-.8-1 0-.5.5-.9 1.1-.9.5 0 .8.5.8 1s-.5.9-1 .9ZM223.2 229.2c-.5 0-.9-.5-.8-1 0-.5.5-.9 1.1-.9.5 0 .8.5.8 1s-.5.9-1 .9ZM213.3 234.7c-.5 0-.9-.5-.8-1 0-.5.5-.9 1.1-.9.5 0 .8.5.8 1s-.5.9-1 .9ZM212.8 242.1c.5 0 .8.5.8 1s-.5.9-1 .9-.9-.5-.8-1c0-.5.5-.9 1.1-.9ZM212.8 240.9c-.5 0-.9-.5-.8-1 0-.5.5-.9 1.1-.9.5 0 .8.5.8 1s-.5.9-1 .9ZM213.1 237.8c-.5 0-.9-.5-.8-1 0-.5.5-.9 1.1-.9.5 0 .8.5.8 1s-.5.9-1 .9ZM213.5 231.6c-.5 0-.9-.5-.8-1 0-.5.5-.9 1.1-.9.5 0 .8.5.8 1s-.5.9-1 .9ZM216.4 234.9c-.5 0-.9-.5-.8-1 0-.5.5-.9 1.1-.9.5 0 .8.5.8 1s-.5.9-1 .9ZM215.8 245.4c.5 0 .8.5.8 1s-.5.9-1 .9-.9-.5-.8-1c0-.5.5-.9 1.1-.9ZM215.8 244.2c-.5 0-.9-.5-.8-1 0-.5.5-.9 1.1-.9.5 0 .8.5.8 1s-.5.9-1 .9ZM216 241.1c-.5 0-.9-.5-.8-1 0-.5.5-.9 1.1-.9.5 0 .8.5.8 1s-.5.9-1 .9ZM216.2 238c-.5 0-.9-.5-.8-1 0-.5.5-.9 1.1-.9.5 0 .8.5.8 1s-.5.9-1 .9ZM216.7 231.9c-.5 0-.9-.5-.8-1 0-.5.5-.9 1.1-.9.5 0 .8.5.8 1s-.5.9-1 .9ZM216.9 228.8c-.5 0-.9-.5-.8-1 0-.5.5-.9 1.1-.9.5 0 .8.5.8 1s-.5.9-1 .9ZM238.6 236.5c-.5 0-.9-.5-.8-1 0-.5.5-.9 1.1-.9.5 0 .8.5.8 1s-.5.9-1 .9ZM238 246.9c.5 0 .8.5.8 1s-.5.9-1 .9-.9-.5-.8-1c0-.5.5-.9 1.1-.9ZM238 245.7c-.5 0-.9-.5-.8-1 0-.5.5-.9 1.1-.9.5 0 .8.5.8 1s-.5.9-1 .9ZM238.2 242.6c-.5 0-.9-.5-.8-1 0-.5.5-.9 1.1-.9.5 0 .8.5.8 1s-.5.9-1 .9ZM238.4 239.6c-.5 0-.9-.5-.8-1 0-.5.5-.9 1.1-.9.5 0 .8.5.8 1s-.5.9-1 .9ZM238.8 233.4c-.5 0-.9-.5-.8-1 0-.5.5-.9 1.1-.9.5 0 .8.5.8 1s-.5.9-1 .9ZM239.1 230.3c-.5 0-.9-.5-.8-1 0-.5.5-.9 1.1-.9.5 0 .8.5.8 1s-.5.9-1 .9ZM241.8 236.7c-.5 0-.9-.5-.8-1 0-.5.5-.9 1.1-.9.5 0 .8.5.8 1s-.5.9-1 .9ZM241.4 244.1c.5 0 .8.5.8 1s-.5.9-1 .9-.9-.5-.8-1c0-.5.5-.9 1.1-.9ZM241.4 242.9c-.5 0-.9-.5-.8-1 0-.5.5-.9 1.1-.9.5 0 .8.5.8 1s-.5.9-1 .9ZM241.6 239.8c-.5 0-.9-.5-.8-1 0-.5.5-.9 1.1-.9.5 0 .8.5.8 1s-.5.9-1 .9ZM242 233.6c-.5 0-.9-.5-.8-1 0-.5.5-.9 1.1-.9.5 0 .8.5.8 1s-.5.9-1 .9ZM232.3 236c-.5 0-.9-.5-.8-1 0-.5.5-.9 1.1-.9.5 0 .8.5.8 1s-.5.9-1 .9ZM231.6 246.5c.5 0 .8.5.8 1s-.5.9-1 .9-.9-.5-.8-1c0-.5.5-.9 1.1-.9ZM231.7 245.3c-.5 0-.9-.5-.8-1 0-.5.5-.9 1.1-.9.5 0 .8.5.8 1s-.5.9-1 .9ZM231.9 242.2c-.5 0-.9-.5-.8-1 0-.5.5-.9 1.1-.9.5 0 .8.5.8 1s-.5.9-1 .9ZM232.1 239.1c-.5 0-.9-.5-.8-1 0-.5.5-.9 1.1-.9.5 0 .8.5.8 1s-.5.9-1 .9ZM232.9 226.8c-.5 0-.9-.5-.8-1 0-.5.5-.9 1.1-.9.5 0 .8.5.8 1s-.5.9-1 .9ZM232.5 233c-.5 0-.9-.5-.8-1 0-.5.5-.9 1.1-.9.5 0 .8.5.8 1s-.5.9-1 .9ZM232.7 229.9c-.5 0-.9-.5-.8-1 0-.5.5-.9 1.1-.9.5 0 .8.5.8 1s-.5.9-1 .9ZM235.5 236.3c-.5 0-.9-.5-.8-1 0-.5.5-.9 1.1-.9.5 0 .8.5.8 1s-.5.9-1 .9ZM234.8 246.7c.5 0 .8.5.8 1s-.5.9-1 .9-.9-.5-.8-1c0-.5.5-.9 1.1-.9ZM234.8 245.5c-.5 0-.9-.5-.8-1 0-.5.5-.9 1.1-.9.5 0 .8.5.8 1s-.5.9-1 .9ZM235 242.4c-.5 0-.9-.5-.8-1 0-.5.5-.9 1.1-.9.5 0 .8.5.8 1s-.5.9-1 .9ZM235.3 239.3c-.5 0-.9-.5-.8-1 0-.5.5-.9 1.1-.9.5 0 .8.5.8 1s-.5.9-1 .9ZM236.1 227c-.5 0-.9-.5-.8-1 0-.5.5-.9 1.1-.9.5 0 .8.5.8 1s-.5.9-1 .9ZM235.7 233.2c-.5 0-.9-.5-.8-1 0-.5.5-.9 1.1-.9.5 0 .8.5.8 1s-.5.9-1 .9ZM235.9 230.1c-.5 0-.9-.5-.8-1 0-.5.5-.9 1.1-.9.5 0 .8.5.8 1s-.5.9-1 .9Z"/></g><path fill="#fff" d="M295.9 244.9s-.5-.3-1.5-.2-1.9.3-2.2.8c-.4.4-.4.7-.4.7h2.3c.6 0 1.4-.3 1.4-.3s1.2-.6.4-1ZM285.6 246.3s-.2-.8-1-1c-.8-.1-2.2.2-2.3.2-.1 0-1 .6-1 .6s.5.4 1.1.6c.6.2 1.4.2 1.9.1.5 0 1.3-.6 1.3-.6Z"/><path fill="#00294e" d="M284.3 245.6s-.5.7-.8.8c-.3 0-.7-.4-.7-.4v-.4s.4-.2.8-.2.8.2.8.2ZM295 244.9s-.2.6-.4.8c-.3.3-1 0-1-.3s-.1-.6-.1-.6 1.1-.2 1.5 0Z"/><path fill="#f2c130" d="M307.3 259.8c.2.9.4 1.8.2 2.7-.1.9-.3 1.7-.5 2.6-.2.9-.5 1.7-.9 2.5-.3.8-.7 1.7-1.4 2.3-.3.3-.7.4-1.1.2-.4-.1-.7-.5-.6-.9 0-.9.4-1.7.6-2.5l.6-2.3c.2-.8.4-1.5.5-2.3 0-.4.2-.8.3-1.1.1-.4.3-.8.4-1.2.1-.4.5-.7.9-.7s.8.3.9.7Z" opacity=".9"/><path fill="#ffa46b" d="M299.6 259.3v-.1Z" opacity=".6"/><g fill="#f6d36e"><path d="M273.7 309.3c.4 4.2 3.5 7.6 7.4 9 .3-1 1.2-1.7 2-2.3 1.2-.8 2.5-1.4 3.8-2.1 2.2-1.2 4.4-2.9 4.7-5.5.2-1.3-.1-2.7-.6-3.9a6.9 6.9 0 0 0-2.1-3.2c-2.3-1.6-5.2-1.1-7.6-.3-1.4.4-2.7 1-4 1.6-.6.3-1.2.7-1.8 1.1-.5.4-.9.8-1.4 1.2-.5 1.4-.6 2.9-.5 4.4Z"/><path d="M274.9 303.3c.5-.4 1-.7 1.5-1 1.2-.7 2.4-1.2 3.7-1.6 2.6-.9 5.6-1.7 8.3-.6 1.2.5 2.2 1.5 2.8 2.7.7 1.3 1.2 2.7 1.3 4.1.1 1.4 0 2.8-.8 4-.6 1.1-1.6 2-2.7 2.8-1.3 1-2.8 1.6-4.3 2.4-1.1.6-2.6 1.3-3.1 2.5.1 0 .3 0 .4.1 2.2.5 4.6.4 6.7-.3 1.7-.8 3.3-1.9 4.5-3.3 1.6-1.8 2.5-4 2.7-6.4.2-2.5-.3-5.1-1.9-7-1.6-2-3.8-3.5-6.2-4.2-1.3-.3-2.8-.4-4.1-.3-.7 0-1.4.2-2.1.4h-.2c-.1 0-.3.1-.4.2-.3.1-.5.2-.8.3-.6.3-1.2.7-1.8 1.1-1.1.8-2.1 1.8-2.9 3-.2.4-.5.7-.7 1.1Z"/></g></g></svg>