<svg xmlns="http://www.w3.org/2000/svg" width="335" height="335"><defs><linearGradient id="a" x1=".8" x2="344.4" y1="326.6" y2="-1.3" gradientUnits="userSpaceOnUse"><stop offset="0" stop-color="#f7b734"/><stop offset=".3" stop-color="#ea6b62"/><stop offset=".5" stop-color="#ee793f"/><stop offset=".7" stop-color="#e6d79d"/><stop offset=".8" stop-color="#dbd79c"/><stop offset=".9" stop-color="#bed99c"/><stop offset="1" stop-color="#8fdb9c"/><stop offset="1" stop-color="#8cdc9c"/></linearGradient></defs><g data-name="Layer 1"><path fill="url(#a)" d="M0 0h335v335H0z"/><g fill="#211915" opacity=".7"><path fill-rule="evenodd" d="m134.8 206 1.7-1.1 2.4-1 .4-.5 1.4-1.1 2.7-1.9 3-1.6 2-1.2 1.8-1.3c.5-.4 1.1-.7 1.2-.9l.2-.2c0-.2.4-.5.4-.5l.2-.5v-1.4c0-.6.1-.5.2-.7v-2.3c0-.2.4 0 .5 0l.4.5.2 1 .1 1c0 .2.8.7 1 .8l.6-.1.4-.3c.1-.2.1-.3.4-.5.3-.3.4-.5.9-.7.4-.3.5-.1.6 0 .1.3 0 .5-.2.8l-.9 1 .2.5.3-.2.8-.5.9-.5c.9-.1.7.7.4.8-.2 0-.6.3-.9.6l-.8.5v.2l.4-.1c.2 0 .3-.2.6-.5.3-.2.5.2.5.4s-.3.5-.6.8c-.3.4-.4.3-.6.4l-.1.2c0 .2 0 .3.2.2h.6l.6-.2c.3-.1.3.4.2.5 0 .2-.2.2-.5.4h-.6l-.6.4-1 .4-1.3.3h-.6c-.2 0-.3.3-.5.4-.2.2-.3.1-.4 0h-.3a8 8 0 0 0-1.4 1.1l-3.4 2.8c-1.3 1-3.5 2.3-4.3 2.8a23.7 23.7 0 0 0-3 2l-2 1.6-4.7 3.9c-.8.6-1.8 1.5-2.7 2-2.7 1.8-2.9 2.5-3 2.6l.1.4c.1.2-.2.3-.3.4-.2 0-.1.3-.1.6s-.3.3-.3.3l-.3 1.1-1.2 3c-.4.9-.4.8-.5 2-.1 1.1 0 1 0 1.6 0 .5 0 1.1-.3 2-.2.8-.1 1 0 1.5 0 .5-.2.9-.3 1-.1.2.1.4.3.7 0 .3 0 .7-.3.9-.1.3 0 .5.5 1 .4.5.4 1.3.4 1.5v.3l.4.7.1.7.5 1c.2.3 0 .3-.1.4-.1.2 0 .1 0 .2 0 .2.2.1.3.2l.1.5c0 .1.3.5.4 1.1v1.3c0 .2 0 .3.2.4v.5c-.2.2 0 .2 0 .4l.6.7c.2.2.2.7.2 1l.2.5v.5l.3 1c0 .3.1.2.3.4.2.2.3.6.2 1.1l.1 1c.1.4.3.6.6.8.2.3.1.8.1 1 0 .4.3.4.4.8.2.3.3 1.1.4 1.9 0 .7.2 1 .3 1.6 0 .7.1.7.3 1l-.1.6.2 1.5.1.7.1.6.2 1 .1.7v.6l.2 1.3.5 1.4.3 1v1.7l.1.3.1.4c0 .2.1 0 .7.3.5.3.5.6.6 1 0 .5.3.8.6 1.4a11 11 0 0 1 1 3c.2.2.3.5.3.7l.1.4.1.4.2.5v.4l.3.9.2.4.1.4.3.8.3.9.1.5.5 1.6.6 1.6a292 292 0 0 1 1.5 5.8l.2.8.4 1 .3 1.2.3 1 .5 1.9c.2.7.3 1.8.2 2.3 0 .6-1.5 2.1-1.5 2.1l.6 1.6.7 1.2c.2.7.2 2.4 0 3.2 0 .9-.3 1.2-.7 1.6-.3.4-2.2 1-3 1-.7 0-.9-.7-1.4-2-.5-1.3-.4-1.9-.4-2.3l-.4-2.3c0-.2-2-.2-2.4-.4-.5-.2-.5-1-.5-1.7 0-.6-.4-2.5-.7-4-.2-1.5-.2-2.5-.7-5.5-.5-3-1-3.6-1.5-4.6-.5-1-1-3.1-1.5-4.7l-1-2.7c-.4-1-.5-1.9-.4-2.5 0-.5-.3-.6-.7-1-.4-.4-.4-.7-.4-1.4s-.4-1-.7-1.4c-.3-.3-.3-1-.5-1.9-.1-.8-.2-.7-.4-1-.3-.3-.4-.8-.4-1.2s0-.4-.3-.8c-.3-.3-.2-.7-.3-1.4-.1-.7-.6-1.2-1-1.8-.5-.7-.5-1.1-.7-2-.3-1-.6-1.8-2-4a17 17 0 0 0-3-3.6c-.5-.3-.7-.2-1.2-.2-.6 0-.7.2-1.8 1a46 46 0 0 0-3.4 3.2l-3.2 3.6c-.6.6-1 1.4-1.4 2-.4.7-1.2 1.6-1.6 2.6-.4 1-1.2 2.8-1.8 3.4-.5.5-.5 1-.7 1.6-.1.6-.6.8-1 1-.3.3-.4.5-.7 1.2-.2.8-.4 1.3-1 2-.5.6-.6 1.3-1.7 3.4-1.2 2.6-1.5 2.9-2.7 4.9a16 16 0 0 0-2 5c-.5 1.7-1.7 4.3-2.2 6l-.8 2.4c-.1.7-.1 1.2-.4 1.5-.2.4-1 .2-2.3 0-1.4-.2-2-.6-2-.7-.2 0-.4.7-.7 1.3-.4.6-.6 1.1-.7 1.7 0 .7-.4 1.3-.8 1.8-.4.6-.9 1-1.4 1.3-.4.2-.9 0-1.6-.3-.7-.2-1.6-1-2-1.4-.5-.5-.2-1.3 0-2.3 0-1 .3-1.3.6-1.8s.6-.7.8-.8c.2 0 .4-.3.8-.9.5-.5.9-1.3 1-1.4l-.6-.9-.5-1c-.2-.3.4-.9.7-1.5l1.5-2.2c.6-.9.8-1.4 1.2-2.5l1-2.5c.1-.4.5-1 .6-1l.2-.5.2-.4.4-.6c.2-.2.1-.2.2-.5l.5-.8.5-1 .5-.7.7-1.2.5-1 .7-1.2.6-1.1.6-1.2.6-1 .4-1c.1-.3.3-.4.4-.5.2 0 .3-.2.4-.5l.4-.6.2-.4c.2 0 .2-.3.3-.5l.4-.7c.1-.2.6-.6.7-.9.2-.2.1-.4.2-.7.1-.4.4-.5.6-.6l.5-.2.3-.7.2-.7c0-.6.2-.7.3-.9l.3-.5.4-.9.7-1.2.2-.5c0-.3 0-.3.2-.5l.6-1.4.6-1.4.4-.9c0-.4.2-.5.3-.6l.1-.5.2-.4.2-.5c0-.3.2-.4.3-.6v-.4l.3-.4.1-.5c0-.3.1-.3.2-.4l.1-.2.1-.3.2-.4.2-.4.4-.8c.2-.2.2-.5.2-1 0-.3 0-.3.3-.4h.5c.2.1.1 0 .2 0 .2-.2 0-.3 0-.6 0-.4.3-.5.4-.8l.2-.9c0-.3.2-.5.3-.6l.5-.9.2-.4v-.9c-.1-.3.7-.5.8-.6l.1-.2v-.4l.1-.2v-.4c.1 0 .2-.2.2-.5l.3-.9c.1-.5.1-.8.3-1v-1c0-.4-.1-.2-.7-.4-.7-.2-1.3-.2-1.6-.2s-.2-.3 0-.8a116.5 116.5 0 0 1 1.6-5v-1.1c-.2-.6 0-1-.2-2l-.2-4v-6.3l-.2-1-.1-.7c0-.3-.5-.3-.6-.4-.2 0 .1-.8.2-1 .1-.4 0-.4-.2-.8-.4-.8-1.3-1.6-3.4-3.3l-3.6-3.2-3.8-3.6c-.6-.7-.9-.6-1.3-.8-.4-.2-.6-.5-.9-.8l-2.6-2a75.4 75.4 0 0 1-4.3-3.4l-3.5-3c-.4-.4-.6-.4-1-.6h-.6c-.3 0-.6 0-1.1-.2l-1-.3c-.3 0-.5-.2-.7-.4l-.6-.1-.4-.1-.5-.3v-.5h1.5v-.3c.1-.2 0-.1-.1-.2-.3 0-.3-.1-.5-.4l-.4-.6c-.1-.1-.1-.3 0-.4 0-.2.2-.3.3-.3l.4.3v-.1l-.4-.5c-.1 0 0-.3 0-.4.2-.1.4-.2.5-.1l.4.2c.2 0 .5.3.6.5.1.1.1 0 .2-.3s0-.4-.1-.7c-.2-.2-.3-.5-.4-.9 0-.3 0-.5.3-.6.2 0 .5.2.6.4l.5.8c.1.3.2.3.4.5s.7.2.9 0c.1 0 .3 0 .5-.4.2-.3 0-.7-.1-1-.2-.5.4-1.2.7-1.5.7-.2.4.7.3 1 0 .3.3.8.6 1.2.3.3 0 .7 0 .9s0 1 0 1.4c.2.5 1.5 1.3 1.9 1.6.3.2 1.1.6 2.3 1.6 1.4 1.1 2.5 1.7 3.6 2.3l3 2c1.1.6 2 1.8 2.6 2.5.5.7.7.8 1.9 1.3 1.2.6 2.8 2.1 4.2 3.2 1.3 1.1 3 1.9 3.8 2.2.8.2 1.9.8 2 .9 0 0 .3 0 .7.3l1.5 1.1c.2.2.2.1.3 0 .2-.2.2-.1.4-.1s.2.6.2.8l.2.4c.1.2.2-.1.4-.5s1-1.5 1.2-2.2c.2-.6.2-1 .4-2.5.2-1.4.4-3 1.1-4.4.7-1.5 2.8-3.4 4.1-4.3 1.4-.8 1-1.3 3.1-2.4 2-1.1 3-.6 5.1-.4 2.1.2 3.6 2 4.2 3.4.5 1.2.6 3 .4 3.7-.2.7.8 2 1.2 3.4.3 1.5-.2 2.8-.1 2.9l1-.6Zm-9.1-12.1c1.8-.2 1.8.5 2 .7.2.1.2.2 0 .2l-2.1-.5c-1.5-.2-3 .3-3 .3-.3 0 1.3-.5 3-.7Zm5.5 2c-.5-.8-2.2-2-2.5-2.2-.4-.2-.4 0 0 .2l1.6 1.5 1.1 1.8c.3 0 .2-.7-.2-1.4ZM113 209.7l.1.2.3-.1.2-.8c0-.4-.4.5-.6.7Zm1 .1c-.2.2-.2.1-.3.1v-.4c.2-.3.8-1.7 1-1.8.2-.1-.6 2-.8 2.1Zm1.3-.4v.4h-.4l.6-1.6c.2-.1-.1 1-.2 1.2ZM207.2 221v.3H205c0-.6-2-2-2-2 0-.7-2.2-2-2.2-2a10 10 0 0 1-3-2.8c-.4-1.5-2-2-2-2l-1.5-1.4c.3-2.4-1.7-7.1-1.7-7.1-.3-.5-.6-2.5-.6-2.5l-.4-4c0-2.4 1.4-3 1.4-3 2-1.2 1-4 1-4l-.5-1.2c0-1.2-1 .2-1 .2-.3-.5-1-.2-1-.2-.4-.4-1.2.1-1.2.1-.2-.5-1.5.5-1.5.5-1.5-.2-1.4 4.6-1.4 4.6 0 .7.8 2.9.8 2.9.3.8-.3 4.9-.3 4.9-.4 2.7.8 8.2.8 8.2.2 2.7 1.4 3.6 1.4 3.6l3 4.7c-.1 1 .6 2.4.6 2.4.5.6 1.4 4 1.4 4-.1.5.8 3.5 1.4 5.2.6 1.7.7 4.8.7 4.8-.2.5 0 6.3 0 6.3-.7 3.6 0 9.8 0 9.8l-1 2c-.4 0-1.6 1.2-1.6 1.2-1.7-.5-4.2 4.3-4.3 5v.1c-.3.8-1.2 2-1.2 2-.5.5-1.7 3.3-1.7 3.3-2 2-1.6 3.2-1.6 3.2 0 .6-.7 2-.7 2l-2.7 4c-1.1 1.5-.5 6-.5 6-.2 1 .9 3.9 1.1 4.7l.1.1.9 3.1c-.1.8 1 3 1 3 .3.5-.2 1.3-.2 1.3l-1 1.8c-1 2.7 0 4.8 0 4.8 1.3 2.3 4.1.2 4.1.2 1.5-.7 2.6-5.8 2.6-5.8a8 8 0 0 1 1.9-3.4l1.4-2c.8-1.7-1-2.6-1-2.6.1-.4-.4-1.5-.4-1.5.5-1.1.8-6.3.8-6.3l1.5-1.5c.2-.6 2.8-2 2.8-2 1.3-.3 1.6 2.5 1.6 2.5.3.7.2 4 .2 4 .4 1.4-1.5 10.7-1.5 10.7-.9 1.8-2.3 18-2.3 18 .3 1-.4 6.8-.4 6.8-.2 1.2 1.8 1.4 1.8 1.4l.1 1.7c0 1.1 1.3 3 1.3 3 1.5 1.6.7 4 .7 4-.2 2.7 2.8 4.2 2.8 4.2 3.1.6 3.4-2 3.4-2 .3-1-.2-3.4-.2-3.4-.4-.7-.8-3.5-.8-3.5l-.1-3.2.2-2.3c0-.6 1.2-3.5 1.2-3.5.5-.5 2.2-11.8 2.2-11.8.2-.3 1.3-8 1.3-8 0-.8.6-3 .6-3 .5-.5 1.4-5.4 1.4-5.4a46.2 46.2 0 0 0 3-14.2c1.8-1.3 1.3-9 1.3-9 .3-1.3 0-2.9 0-2.9 1-.8 7-18.3 7-18.3a45 45 0 0 1 5-7c1.7-1.4 3.8-5.5 3.8-5.5.1-.6 2.5-2.7 2.5-2.7.5-.3 1.8-2 1.8-2 1.1-.3 1.7-3.9 1.7-3.9 0-.5.8-3.1.8-3.1 1-1 .6-8.4.6-8.4 0-.4.2-4.2 0-4.7V201c.4-3 0-4.1 0-4.1-.3-.8-1.8-.5-1.8-.5 0-.7-1.3-.4-1.3-.4-.4-.6-1.3.8-1.3.8-.3-.3-.9.5-.9.5-.6.9.5 2.1.5 2.1.3 2.1 1.5 3.2 1.5 3.2.5.6.1 2.5.1 2.5.1.6-.6 3.7-.6 3.7a35.2 35.2 0 0 0-2.5 9.2c-.1 1.3-.4 1.2-.4 1.2l-1.2.9-1.3.3c-.4-.1-2 .8-2 .8-.4.6-2.5 2-2.5 2-.1-.5-4.4 1.3-4.4 1.3-.7-1.2-2 .3-2 .3-.2-.5-1.3-.3-1.3-.3 0-.5-1.3-1.8-1.3-1.8.4-.3.8-3 .8-3 .3 0 .6-2.7.6-2.7.2-1.3-.1-1.5-.1-1.5.2-.6 0-1.8 0-1.8.3-.4 0-1.9 0-1.9.1-.4-.8-1.9-.8-1.9.1-.8-1.4-1.1-1.4-1.1.2-.4-1.7-.3-1.7-.3-.2-.4-1.7-.4-1.7-.4-.5-.2-1.4.7-1.4.7-.3-.3-1 .5-1 .5-.5-.2-1.1.3-1.1.3-.4-.3-1.2 1-1.2 1-.3 0-.6 2.1-.6 2.1-.5 1.3.4 4.2.4 4.2-.1.6.2 1.5.2 1.5-.1.6.3 2.7.3 2.7Z"/><path d="M210.2 230.3h.2c-.5 2.4 2.1 3.9 2.5 6.1 2 2.2 2.3 5.1 4.2 7.4 1.5 1.3 2 3.2 3.4 4.7 1.6 2 3.4 3.3 4.8 5.4 5 3.5 5.5 9.2 5.6 14.8-.1 1.8-1.4 3-2.2 4.5-1.1 3.6-3.8 6.4-4 10.5-.3 3.6 1.4 6.3 1.6 9.7.5 3 1.7 6 1.2 9.3-1 3.8-.7 8.2-.8 12.2.5 2.7.5 5.7.8 8.4 0 1-.8 2-.4 3.2.1.9.5 1.7.2 2.7.6.2 0 1 .3 1.6 0 .5.6 1 1 1.2.7.3 1.5 0 2 .4 1.7 2.1 4.5 2.2 7 2 .7 0 1.5-.4 1.9-1.1.6-2.1-2.2-2.9-3.1-4.4l-.4-1.9c0-3-.4-5.8-1.8-8.3-.4-2.1-1-4.1-.6-6.4.4-2.8 1.6-5.4 1-8.4-.6-.8-.3-1.9 0-2.8 0-2.5.3-5 .4-7.7 0-.6.1-1.5.4-2.1.5.5.7 1.5 1.1 2.2 1.8 2.5 2.8 5.3 4.2 8 .3.4 1.1.2 1 .8.3 1 .6 2 1.6 2.6.4.6.1 1.2 0 1.8a46 46 0 0 1-1.9 6.6c-.7 2-.1 4.7-1 6.7-.9 1.8-1 4-1.8 5.9l.1 1c0 .5-.3 1.2.2 1.5 1.4 1 3.4.8 5 .8.8 0 1.5-.8 2.4-.3 1.5.3 3 1.2 4.5.8 1-.3 2-.2 2.7-1 .2-.4.5-1 .3-1.5-.9-1.2-2.6-1-4-1.5-.7-.7-.4-1.8-1-2.7a2 2 0 0 1-.7-1.5c.9-2 1.6-4.2 1.7-6.6 0-2.5.3-4.7.3-7.2 0-1.6 1-2.9.6-4.5-2-4.7-4.3-9.2-5.2-14.2-.4-2-1.4-3.8-1.9-5.8-.9-1.3-.8-3.1-1-4.7 0-.5-.2-1.1.4-1.3.5-1.7 1.2-3.3 1.8-5 .1-2 .5-3.6.9-5.4 1-2.2 3-4 2.4-6.8-.4-2.3-2.4-4.3-1.4-6.9.6-2 2-3.6 3-5.4 0-1.2 1.3-2 1.7-3.1l1.4-2.6c2.3-1.7 2.2-4.4 3-6.8.8-3.4 1.2-6.9 2.2-10.3.3-.6-.2-1.4.3-1.9 0-.5-.1-1-.4-1.4 0-.6.2-1.5-.2-2-.5-.1-.8-.9-1.4-.6l-1.1.3c-.9-1.4.5-3.1-.8-4.2-.3 0-.3.3-.4.5 0 1.5-1 2.6-.7 4 0 .8-.6 1.4-.2 2.2.4 1.4 1.7 2.5 1.4 4-1.2 4.4-3.5 8.3-4.9 12.6-1 2.7-3.2 4.8-5.6 6.7-.2.4-.5.6-.9.8.3-1.3 0-2.6.3-4-.3-1-.8-2-1.8-2.2-.3-1.7-2-2.6-3.3-3.6-.4-.2-1-.5-1.5-.3-.3.2-.6.6-1 .7a4.3 4.3 0 0 0-4.5.3c-1 0-2 1-2.4 1.9-.4.6-.2 1.4-.3 2.1-.4.4-.3 1-.8 1.3l.2.2c-.1.4.1 1-.2 1.4l.2.1c.3.7 0 1.6.3 2.3.1.5 0 1-.3 1.3-.2.3-.4.4-.6.4l.2.7h-.2a28 28 0 0 0-4.3-4c-1.1-1.4-1.5-3.2-3-4.5a29 29 0 0 1-5-7.3c-.7-1.7-.3-3.3.1-5l-.3-6a1 1 0 0 0-.5-.7h-.7c-.8 1.7.1 3.8-.4 5.6-1-.1-1.9-1.2-2.7-.3-.1.4.5 1-.3 1.2-.2.3-.6.2-.7.7 0 .8 0 1.6.5 2.2Zm18.3 12.8h-.2v-.3c0-.2 0-.5.2-.5 0 .1.1.5 0 .8Zm.3 3.4v-.2.2Zm1.8-9c-.2.8-1.2 1-1.2 1.8-.1-.3 0-.7.2-1 .2-.4.6-.8 1-.8Zm-.7 1.7c0-.2 0-.4.2-.5l.1.2c0 .2-.1.4-.3.3Zm8-2.9-1-.1c.4-.2.8-.2 1 .1Zm1.1 1-1 .2c.1-.3-.1-.6-.3-.8h.2c.4.1.8.4 1.1.6ZM134.2 196.3h.2c-.5 3.1 2.8 5 3.2 7.8 2.7 3 3 6.7 5.6 9.6 1.9 1.7 2.6 4.1 4.3 6 2 2.6 4.3 4.3 6 7 6.6 4.5 7.3 11.8 7.3 19-.1 2.3-1.7 4-2.7 5.9-1.5 4.5-5 8.3-5.1 13.5-.5 4.6 1.7 8.1 2 12.4.6 4 2.1 7.8 1.5 12-1.2 5-1 10.6-1 15.8.6 3.5.6 7.3 1 10.7-.1 1.5-1 2.7-.6 4.2.2 1.1.7 2.2.3 3.4.8.4 0 1.4.4 2.1.1.7.8 1.2 1.4 1.6.8.4 1.8 0 2.6.5 2.1 2.7 5.7 2.9 8.8 2.7 1-.1 2-.7 2.5-1.6.9-2.7-2.8-3.6-4-5.5-.1-1-.2-1.7-.5-2.5.1-4-.5-7.5-2.3-10.7-.5-2.8-1.4-5.4-.8-8.2.6-3.7 2.1-7 1.3-10.9-.7-1-.3-2.4 0-3.6l.6-9.9c0-.8.1-2 .4-2.8.8.7.9 2 1.5 2.9 2.3 3.2 3.6 6.8 5.4 10.2.4.6 1.4.3 1.4 1.2.3 1.2.7 2.6 1.9 3.3.5.7.2 1.6 0 2.3-.6 3-1.3 5.8-2.4 8.5-.9 2.7-.2 6-1.2 8.6-1.3 2.3-1.5 5.1-2.4 7.6 0 .4-.1 1 .1 1.3 0 .6-.4 1.5.2 2 1.8 1.2 4.4 1 6.5 1 1 0 2-1 3-.4 2 .4 3.9 1.5 5.8 1 1.3-.3 2.7-.3 3.6-1.3.3-.5.6-1.1.4-1.9-1.2-1.6-3.5-1.3-5.3-1.9-.8-1-.5-2.4-1.2-3.4-.6-.6-.9-1.2-.9-2 1.1-2.7 2-5.4 2.2-8.5 0-3.3.3-6 .4-9.4 0-2 1.4-3.7.7-5.8-2.5-6-5.5-11.7-6.7-18.3-.5-2.6-1.7-4.8-2.3-7.4-1.2-1.8-1.1-4-1.4-6.1.1-.6-.2-1.4.5-1.7.7-2.2 1.6-4.3 2.4-6.5.1-2.4.6-4.6 1-6.8 1.4-2.9 4-5.3 3.2-8.8-.5-3-3-5.6-1.8-8.9.8-2.5 2.5-4.6 4-7 0-1.6 1.6-2.6 2-4l1.9-3.4c3-2.1 2.9-5.6 3.7-8.7 1.2-4.4 1.7-8.9 3-13.3.3-.7-.3-1.8.4-2.4 0-.7-.2-1.3-.6-1.8 0-.8.3-2-.2-2.7-.7 0-1-1-1.9-.7l-1.3.4c-1.1-1.7.6-4-1-5.5-.5 0-.5.5-.6.8 0 1.8-1.2 3.3-1 5.2 0 1-.6 1.8-.2 2.7.5 1.8 2.2 3.2 2 5.3-1.7 5.6-4.7 10.6-6.4 16.1a21.5 21.5 0 0 1-7.3 8.6c-.2.6-.7.9-1.1 1.1.4-1.7 0-3.4.3-5.2-.3-1.1-1-2.6-2.2-2.8-.5-2.2-2.7-3.3-4.3-4.6-.5-.3-1.2-.6-2-.3-.4.1-.7.7-1.1.7-1.8-1-4.3-.7-5.9.5-1.4 0-2.5 1.2-3 2.4-.6.7-.4 1.8-.5 2.7-.5.5-.4 1.3-1 1.7l.3.2c-.2.5.1 1.4-.3 1.8 0 .2.1.1.2.2.4.8.1 2 .5 2.9a2 2 0 0 1-.5 1.7c-.2.3-.5.4-.8.5l.3 1-.2-.1c-1.7-2-3.5-3.5-5.5-5-1.5-2-2-4.2-4-6-2.8-2.8-4.8-6-6.5-9.3-.7-2.2-.2-4.3.3-6.5-.3-2.5-.3-5.3-.5-7.8 0-.4-.3-.7-.6-.9h-.8c-1.1 2.3 0 5-.6 7.3-1.2-.2-2.4-1.6-3.4-.5-.2.6.5 1.4-.4 1.6-.3.4-.9.4-1 .9 0 1 0 2.1.7 2.8Zm23.6 16.5h-.3v-.5c.1-.2 0-.6.3-.6 0 .2.2.7 0 1Zm.4 4.4v-.3.3Zm2.3-11.7c-.2 1-1.5 1.4-1.6 2.4 0-.4 0-1 .3-1.4.3-.5.8-.9 1.3-1Zm-1 2.2c0-.2.2-.5.4-.6v.3c0 .2 0 .4-.4.3ZM170 204l-1.3-.1v-.1c.5-.1 1-.1 1.3.2Zm1.4 1.3c-.3.1-.8.3-1.2.2 0-.3-.2-.7-.4-1h.2l1.4.8Z"/><path fill-rule="evenodd" d="M120.7 334.7c2.6-1.5 1.9-3.3-.8-3.4-2.5-.1-2.4-1-3.6-2.8-.7-1.1-1-.8-.3-2 .4-.7.7-1.1.6-2V320c.2-3.3.2-6.6.6-9.9.1-1.2.4-2.3.6-3.5 0-.4-.7-2-.8-2.6-.3-2.2-.2-5-.3-7.4-.3-4.3-1.6-8.5-1.6-12.7 0-1.3-.3-2.4.2-3.7.2-.5-.6-.7-.3-1.2.5-.8-.3-2.6 1-2.6.6 0 6.3.3 6.6-.4.5-1.6-.6-5-.8-6.8-.3-2.5-.5-5.2 0-7.7.7-5.2 2.7-10.2 5.3-14.8 1.6-2.9 2.7-6 4-9a10 10 0 0 0 1-3.8c0-.6 1-1.2 1.2-1.8.4-1 .1-1.6.5-2.4.3-.8 4.7-3.3 4.6-3.5-.5-.6-2.8 1.4-3.3.6.6 1 3-5.3 1.5-3.2 0 0-2.2 2.6-2.2 2 0-.5 3-3.4 1.9-4-1-.5-2 3.4-3 3.4.5 0 1.7-6.8-.7-1.5-2.3 5.5-3-1.3-3.8-.6-.7.6.7 4.9.6 5.7-.1.4-.8.6-.8 1.7 0 1.3-1.3 1.4-1.1 3 0 1-1 2.4-1.4 3.2-.7 1.4-2 3.1-2.2 4.7-.4 2.5-1.4 2.1-2.5.5-1.7-2.7-5.8-3-8.1-1-2 1.6-5.5 5.5-5.2 8 0-.4-1.3.6-1.3.7-1.1 1-5.3-8.9-5.4-8.9-1.9.1-4.7-7.5-5.3-8.7-.8-1.7-2-4.2-3.2-5.6l-.8.4c.3 0-4.2-4.7-3.5-1.8A32 32 0 0 1 84 222c-.1.3.9 1.6 1 2.1-.5-.3-2.2-2.2-2.6-1.7-.6.8 2 3.3 2.6 3.7 1.5.8 3 1.4 4.5 2.5-1 1.4 2 3.8 2.4 5.3.7 2.9 2.6 5.6 4.2 8 1.1 1.7 1.8 4 2.7 6l1 2.8c.4.9 1.4 1.7 1.6 2.7A22.8 22.8 0 0 1 100 270c-.5 1.2-1 2.5-.8 3.7 0 .1-3.4 3.6-4.2 3.9-1.6.6-3.4 2.1-4.6 3.4-.7.7-2 1.2-3 .7-.8-.4-3.2 1.8-4 2.1-2.5 1-7.8 3-9.5 5.4.4-.6-.6-4.1-1-4.6-.9-1-1.9-1.7-3.2-.9a8 8 0 0 0-3.8 4c-.4.8 0 2.3-.3 3.1 0 .2.8 1.3.9 1.5.1.7-.1 1.3-.3 2-.2.5-.7 1.2-.9 2-.5 1.9 1.2 3.6 2.8 4.5 1.9 1.1 2.6-.6 4.1-1.8.7-.5 1 .7 1.5 1 1.5 1.3 2.2.6 3.9 0 3-1.2 5.4-4.1 8-6 1.8-1.4 4.4-4 6.6-4.5 5.4-1.3 10.7-4.2 13.2 2.7 1.7 4.8 3.4 9.4 4 14.4.3 2.2-.5 5-.7 7.3-.3 3.3-.7 6.7-1.2 10-.3 1.3-2.4 7.6-1 8.2.6.3.4 1.2.3 2-.4 3 4.7 1.2 6.2 1.2 2.7 0 5.2.9 7.7-.6m-12.3-86.2c0-.1.3-.5.3-1.2l-.3 1.2m-.1-1c0 .2.7-.9.5-1l-.5 1M166.8 220.4s.3-.5.2-1l-.2 1m-.1-.9c0 .2.7-.9.5-1-.1 0-.6.9-.5 1"/><path fill-rule="evenodd" d="M81.5 223.7v.3l-.4.2-.2.2-.3.4-.6.6-.2.7-.3.3-.6.3-.8.3a1 1 0 0 0-.6.2l-.8.6c-.3.3-1.2.6-1.3.7l-.3.2-1.4 1.2-2.5 2.5-1.5 1.2-.8.6-1.5 1.6-1.6 1.7-1.3 1.6-1.1 1.2-1 1.5-.3 1-.1 2.8-.3 2.8-.2 2v.4a34 34 0 0 1 .5 4.2v1.4l-.5 2.7a41.8 41.8 0 0 1-.7 4.2v.7l.2 1.1v1.9c0 .3-.2.4-.3.6l-.6 1.1-.6 1v.3c0 .3 0 1-.2 1.3l-.5 1v.6l.1.6v1.4c0 .1 0 .5.2.9v1.5l-.1 1.4c0 .5-.7.6-.8.7l-.1.1.3.8c.2.3.4 1.3.6 2l.4 1.5a9.6 9.6 0 0 1 .2 2.3v.2l.4 1.9c.1.5-.1 1-.4 1.5l-1.4 1.8v.4c0 .5.1 1.3.4 2.2l.3 2.3v1.2l-.1 1.6-.2 1.1v.6l.5.3c.4.2.7.4.8.7.1.2.2.4 0 .6 0 .2-.2.2-.7 0l-1.1-.8-1-.3v.1l.1.5c.1.2 0 .2 0 .2a5.4 5.4 0 0 0 0 .6c.1.3.2 1 .4 1.3 0 .3.3.8.4 1l.3.7.3 1.2v.6l.2.2v1.5c-.1.3-.4.4-1 .5-.5.2-2.2.2-2.2.2v.5l.1.2.2.4v.5c.1 0 .1 0 0 .1l.1.3v.1l.2.3c0 .4.1.5.2.7l.2.8.2.7a152.8 152.8 0 0 0 .4 3.6c0 .4-.3.7-.7 1.1-.4.4-1.8.5-2.6.5s-1.6-.7-2.2-1.4c-.7-.6-1-1.6-1-1.8l-.1-.8v-.5l-.1-.6-.1-.4v-1.2l-.1-.3-.1-.5-.2-1.7v-2.3l.2-1.1-.2-.2-.3-.5v-.7c.3-.4.7-.2.7-.2v-.4l.1-.7c0-.2-.1 0-.2-.2l-.5-1.4-.6-1.3-1-2.7-.8-2.3c-.2-.4-.1-.3 0-1 0-.6.4-1.2.4-1.5l-.3-1.5-.2-1.4-.2-.8-.5-1-.7-.8-.3-.4c-.2-.2-.3-.6-.3-1.1v-1c0-1 .3-2.1.4-2.2v-.3l-.5-1.6c-.2-.8 0-1.2 0-1.5l-.3-.6-1.6-3.3c-.4-.7-.6-1.7-.6-1.8v-.7l-.1-.5-.1-.7-.1-.4-.1-.8-.4-.9-.2-.5h-.1l-.4-.4-.4-.5v-1.9l.1-.3v-.7l-.2-1.2a38.2 38.2 0 0 1-.2-5.9v-1.7l-.2-1.2-.3-.9-.2-.6-.3-1.2-.6-2.4-.7-2.4-.4-1.6-.3-1.2-.2-.5-.1-.6v-.2l-1.4-.9-1.7-1.2-1.7-1.6L31 240l-1-.9-.1-.1-.7-.4-.7-.5-.8-.8h-.2l-.6-.3-.8-.5-.9-.5c-.3-.2-.6-.5-1.3-.8a68.5 68.5 0 0 1-3.3-2c-.2-.2-.5-.5-.7-.5l-.3-.1-.3-.2h-.1l-.2-.2-.1-.2-.7-.5a35.6 35.6 0 0 0-1.2-1h-.3l-1.1-.4-1.2-.6h-.2c-.3 0-.4-.2-.4-.2H12a1 1 0 0 1-.7-.2v-.5h1c.3 0 .7-.2.8-.3.2 0 .1-.3.1-.3l-.2-.3-.6-.4c-.2 0-.3-.2-.4-.3l-.6-.5-.8-.5-.5-.5c-.1-.3.2-.5.2-.5l.4.2.4.2.5.2v-.2l-.8-.7-.5-.5c-.3-.2-.3-.3-.4-.5 0-.3.2-.5.3-.5l.5.4 1 .7.7.6v-.2l-.5-.7-.1-.2-.3-.3-.5-.6c-.1-.3 0-.5.1-.5l.5.2 1 .8c.5.4 1.2 1.3 1.3 1.5l.6.6c.1.1.2 0 .2 0l-.1-.8v-.7c0-.3.2-.5.4-.6.1-.2.3 0 .3 0v.4l.5 1.6c.4 1 1.5 1.7 1.5 1.7l.8.5.1-.3v-.1l.5.1c.1.1.9.3 1 .5h1.4v.2l1.2.3c.6.2 1.5.6 2 1l1.3 1h.3l.7.2 1 .2.3.1.3.1c.2.1.3.7.4.8l.3.1 1.2.4.7.4.2.2h.3c.1.2.3.3.4.3l.5-.1s.1-.2.2 0l.3.3.1.2H33.7l.5.3c0 .1 0 0 .2 0l.5-.1c.3 0 .5-.2.7-.4.2-.2.8-.3 1.2-.3.4 0 .8.3.9.3l.3-.2.2-.2.4-.5c.2-.2.8-.3 1.2-.3l1-.2.8-.3.3-.1h.2c.2-.1.5 0 .9.1.4 0 1 .3 1 .3l-.4-.9-.3-1.1v-.4l-.2.1s-.3.1-.4 0l-.3-.3c0-.2-.2-.3-.5-.8l-.3-1.5-.2-.4v-1l.3-.1.3.1v-.6l-.2-.5-.1-.7-.1-.3v-2.3l.2-.8c.1-.1 0-.4.2-.7l.4-.8.4-.9c0-.2-.1 0-.1 0v-.2l.1-.3.2-.2h-.3l.1-.1.4-.2h.4c.3-.1.2-.2.2-.2l-.2-.2.5-.2.6-.1h.3l.2-.2-.3-.1h.8l.2-.1h1l.4-.1h1.2l.4.2.8.2.3.2.3.1s.4.2.6.5c.1.3.5.4.6.5l.4.4.2.6.1.2c.2 0 .3.2.4.5l.4 1c.2.1.3.6.3.7 0 .1.3.4.3.7a34.6 34.6 0 0 1-.3 2.9l-.1.5v.4l-.2.5h.4l.1.4-.2 1-.6 1.4c-.2.3 0 .3-.1.7-.2.5-.4.5-.4.5l-.1.6-.4 1h.1l1-1 1-.7 1-.3h.5l.7.2h.3l1.1-.4.5-.1h.8l.3.1c.2 0 .3.2.4.3h.3c.2-.2.5 0 .5 0l.3.1h1.1l.5-.1c.2 0 0 0 .4-.3.2-.3.5-.2.7-.2h.4l.5-.5v-.1c0-.1 0-.4.2-.7.2-.3.6-.3.8-.3l.7-.2 1.2-.7.4-.1 1.6-.7c.5-.2.4-.3.6-.6.2-.3.6-.5 1-.5.3 0 .5-.2.7-.3.3 0 1-.5 1.3-.5l1-.4 1.4-.6.7-.4v-.2c-.1-.2 0-.2.2-.3l.7-.8.3-.3H77.8l.8-.6.4-.4h.3l.4.4.6-.4.7-1 .6-1v-.2l.2-.4v-.2l.1-.4.1-.2v-.6l.1-.3h.3l.4.7v1.6l-.2.7c-.1.2 0 .2 0 .2.3 0 .4-.1.5-.2l.4-.3.6-.9.4-.3.7-1c.3-.1.7-.7.8-.8.2 0 .4-.2.5-.3 0 0 .2 0 .3.2.1.2 0 .4-.1.5l-.5.6-.2.4c0 .2-.3.6-.4.6l-.2.3-.2.5c0 .1 0 0 .2 0 .1-.2.2-.2.5-.3.3-.2 1-.3 1-.3l.6-.2h.7c.2 0 .2.2.3.3l-.1.4c-.2.2-.8.4-1 .4l-.2.1-.8.4-.2.1-.5.5a3 3 0 0 0-.5.6h3.3c.2 0 .2.1.3.3v.5c-.1.3-.7.2-1.2.3h-1.4l-1 .3-.2.1-.1.3c0 .2.3.6.5.7l1 .7.7.4v.3l-.1.2h-.4l-1.4-.4-.2-.2-.8-.4h-.7l-.4.1-1.3.3h-.2Z"/><path d="m256.9 256.7.1-1.2.5-1.1v-1l.3-1.8.2-2c0-.4 0-.7-.2-.9l-.2-.5-.3-.6.2-1.4.5-1.8c0-.6.2-.8.4-1.1l.3-1c.1-.3 0-.7.2-1 .1-.3.4-.4.6-.5l.4-.4-.1-.5v-1.1l-.7-.7-.4-1-.3-1-.2-1.6-.1-.9V225l.2-1.6.5-2v-2.5l.2-1.4V216l-1 .5c.3-1.1.1-2.3-.5-3.3-.5-.9-1.1-1.4-1.8-2l.3-.1 1-.5-.2-.5s-.1-.6-.3-.8l-.1-.7-.2-.7-.3-.4-.2-1-.2-.4-.1-.5-.3-.4-.2-.7-.2-.6c0-.5-.2-1.1-.3-1.4l-.1-.6c.3.3-1-1.1-1.4-1.8-.3-.5-.5-.4-.1-1.2l.5-.9-.1-.3-.2-.8-.2-.7-.2-.8v-1.5l.1-.7.4-1 .8-1c.4-.5.5-.6.5-.9.1-.3 0-.5.2-.7l.2-.5-.2-.3v-.3c0-.1-.3-.5-.3-.8 0-.2.2-.3.4-.3s.8.3 1.1.7c.4.3.9.9 1 1.2l.2 2.2v1.2c-.2.1-.5.8-.8 1l-.7 1.5v.5c0 .2.1.5.4.8.3.2.7.9 1.1 1.4l1.1 1.5v.4l.4.2 1.1.4 1 .8c.5.4.6.5 1 1.1l.6 1.2.3.7c.1.2.4.3.8.5.3.2.4.6.4.7l.2.3.3.3 1.1-.2h1l.8-.2.9-.1v-.4l.2-.5.2-.3v-.7l.4-1a9 9 0 0 0 .6-2.7s-.3.1-.4 0c-.1 0-.2-.1-.2-.3v-.4c-.2-.1-.2-.3-.2-.5v-.4c.2-.2.3-.6.3-.7l.3-.4.2-.6.3-.5h.4c0 .1.2.2.2 0l.3-.8a35.2 35.2 0 0 1 1.2-1.6l1-1 .9-.6a9 9 0 0 1 1-.4l1.2-.3h1.5l1.2.6.3.3 1 .8.5 1 .3 1 .2 1v1c.2.5 0 .9 0 1.1 0 .2-.2 1-.4 1.3l-.5 1.3c0 .1-.2.3-.1.4v.3c.1.2 0 .4-.2.5l-.3.5-.4 1c-.1.2 0 .5-.2.6h-.1s-.3.2-.4.5a3 3 0 0 1-.7 1l-.1.2v.1l.7.1.6.1h2.8l1.6-.3.3.3h.3c.2.2.3.2.5.2h.5l.9.1.4.3h2.3l.8-.1.9-.5h1.1c.7.1.7.1 1.6-.2l2.6-1 1.8-.7h.7c.3-.1 2.6-.2 3.4.4l.5.3c.1 0 .2 0 .3-.2 0-.2 1.4-1 3-1.5l1-.1h1l.5-.5c.2 0 .4 0 .6-.2l.3-.3 2.4-1.5 2.1-1.3h.4l.6-.6.6-.6c.1-.1.3-.4.4-1l.1-1.8c0-.6 0-1.2.2-1.5l.6-1.1.5-.8.4-.6c0-.3 0-.5.2-.7.2-.3.3-.4.5-.2s.3.8.2 1c0 .4 0 .8-.2 1l-.2.9v.6h.1l.7-1a17 17 0 0 1 2.7-2.6c.3-.2.6-.2.7.1.2.3 0 .6-.2.9l-1 1-.7 1.1-.6 1.2v.2l.5-.4c.2 0 .5-.4.9-.7l1-.8 1.4-1c.3-.2.7-.3.9 0 .1.3.2.4-.2.8l-1.3 1-1 1-.6.5-.3.5v.3l.1.2.6-.4.5-.4.6-.4c.2 0 .7-.4.8-.5l1.1-1c.3-.2.4-.3.7 0 .3.1.2.5 0 .8l-1.3 1.2-1 1-1 .8-.1.3.2.2h.6l.7-.2a3 3 0 0 0 1-.4c.3-.3.7-.5 1-.5.2 0 .4.3.2.6a5 5 0 0 1-1.3 1l-1 .5-1.2.4c-.2 0-.7.5-1 .7-.2.2-.5.6-1 .9l-1.5.6-.4.2-.5.4-.3.4h-.4l-.2.3-.7.6v.3l-.6.5c-.2.1-.1.2-.3.4l-.8.7-.3.3-.3.1-1.2 1c-.4.1-.4.5-.6.7l-.4.1-.5.3-.7.7-.4.2-1.6 1-1.4.8-2.2 1.2-1.2.8-.9.6-.6.3-1.5.5-.5.1-2 .4-2.5.7-2.9.8-2.4.5-.6.3-1.6 1c-.4.2-.8.1-1.2.2H285l-.1.2-.3.3s-.1.2 0 .4v1c0 .5-.3.7-.5 1l-1.3 2.2c-.2.5-.9 2.4-1 3.2l-.8 2.6c-.2.5-.3 2-.3 2.3l-.2 1.7c-.1.6-.1.8-.3 1a12.4 12.4 0 0 1-2.1 1.9h-.1l.4 1.1v.4l.4.5.5 1 .4 1 .5 1v.3l.3.3.2.4v1l.3.7.2.8.2.5c.2.5.1 1 .1 1.2l-.1 1 .2.6v2l.2 1.2V251.8c.2.2.2.8.2 1.2l-.1 1.3v1.8c.1 0 .4.5.6 1.1.1.5.2 1 .1 1.5 0 .4-.2 1.6-.1 1.7l.3 1.3.1 1.1a189.2 189.2 0 0 0 2.1 2.7l1 1.5.6.3.9.5 1.5 1 1.4 1.3 1.3 1.3a30.1 30.1 0 0 0 2.3 2.4l1.3 1.4 1 1 1 1.3.7 1.3.9 1.1c.2.4.5.6.5 1l.2 1-.2 1-.5 1.2c-.2.2-.3.3-.5.3l-.4.4.2 1.5v2.3h-.3c-.2 0-.2.3-.2.4l.2 2.2.2.4.1.6.1.9v1.1l-.2 1.2c0 .4-.4 1.3-1 2.5a6.6 6.6 0 0 1-1.4 2c-.3.3-.7.4-.7.4l-.2.1H293l-.9-.2c-.2-.1-.2 0-.6-.5-.5-.4-.4-1-.5-1.4v-2l.3-1.6v-.7l.1-1.2v-.3c-.1-.1 0-.2 0-.4V291.5l-.1-.2.2-.6c0-.1 0-.5-.2-.9v-.6l-.3-.7v-.7l-.3-.5c-.1-.3 0-.5-.2-.7-.3-.2-.4-.5-.5-.7l-.1-.4-.6-.3c-.2-.1-.4-.4-.5-.7l-.5-1.2-.4-1-.2-.2c-.3-.1-.4-.3-.6-.5l-.7-.6c.3.3-1.5-1.5-2.4-2.8l-.4-.2-.9-.5c-.2 0-.3 0-.4-.2-.2 0-.3-.2-.6-.5l-.8-.7-.8-.9-.7-.5-.7-.5c-.2-.1 0-.1-.2-.3-.2-.1-.3-.1-.5-.4l-.3-.7-.5-.4c-.3-.3-.8-.5-1-.6l-.6-.7-.8-.9-.8-.8-.5-.5-.8-1-1.1-1.3-1.5-1.9-.5-.7-.4.5-.4.6.4.6c.3.2.4.5.4.6l-.2.9v.7c0 .2.3.5.5.8l.5 1 .5 1.2.5 1.2.2.7.2 1.2.4 1.2.2 1.2.4.8c.3.3.6 1 .6 1l1.6.8c.5.4.7.7.9 1l.1 1-.2.8h-.2v.4l-.2.4h-.2v.3l-.2.3h-.3v.3l-.2.3h-.2v.3l-.3.3-.3-.2h-.3l-.5.8-.5 1.3v.9h-.1v.8h-.1v.8h-.2v.4l-.1.3h-.3v.5l-.2.3h-.2v.3c0 .2-.2.3-.3.3h-.2v.5l-.3.2h-.2v.3l-.3.3h-.3l-.2.4-.5.4h-.2c-.1 0 0 .2-.4.2s-.6 0-1.2-.3a6 6 0 0 1-.7-.4h-.2l-.1-.3-.6-.6-.1-.7.1-.6.3-1 .4-1.4.7-1.6.4-1c.1-.6-.1 0-.6-.3-.2 0-.2-.2-.2-.4 0-.3.3-.3.5-.3h.5l.1-.6c0-.3-.1-.4-.2-.5l.1-.6.2-.5.2-.5-.1-.4-.1-.5-.3-.6c0-.3 0-.5-.2-.7l-.5-.4c-.2-.2-.3-.2-.7-1-.5-.7-.8-1.7-1-1.9 0-.2-.3-.4-.5-.7l-.1-.4-.4-.8c0-.2-.2-.4-.3-.5l-.5-.7-.8-1-.3-.4-.4-.4-.8-.7-.6-.7-.6-1-.7-1.4-.2-.8-.3-.7-.2-1.4V263l-.2-.8-.4-1.1c-.2-.5-.8-1.9-1-2v-1.5l.1-1Z"/></g><g fill="#211915"><path d="M27.9 303.7c2 1 6.5 3.8 10 9.2a69.2 69.2 0 0 1 9.3 22.5h-5.7c-.7-3.8-1.7-8.2-3-12.1a55.5 55.5 0 0 0-7.6-14.5 18.6 18.6 0 0 0-3.9-3.6v-1.5h.9Z"/><path d="M.4 290.3s1-1 3.4-2.7c2.4-1.7 4.9-3.3 11-.5S25.5 300 25.5 300s-.4-4.9 0-7.4c.6-2.6 2.2-9 10.2-10 8-1 11.1 4.1 11.1 4.1l-6.2 5-3.8-2.2-.2 4s-1.5.5-3.8 1.7c-2.4 1.2-5 5-5 5s1.9-.8 5.4-1.8c3.5-1 9.8-2.4 13.8.3 4 2.8 5.4 13 5.4 13l-9-1.7s.2-.8 0-2c0-1.4-1-3-1-3s-.6.6-.8 1.7l-.2 3s-1.2-1.2-6-3.7a19.8 19.8 0 0 0-7.5-2.4l-1.2-.5-1.4.9L27 305a20 20 0 0 0 3 11.4s-1 .5-2.2.6c-1.4.1-2.3-.4-2.3-.4s.4.9 1.1 1.6c.8.7 2.8 2 2.8 2l.9 6.7s-2.3-.2-4.5-2a14 14 0 0 1-5-11c-.1-5.7 2.8-9.1 2.8-9.1s-1 .4-2 1.6-2 3.2-2 3.2l-1.4-1.4c-.6-.6-1.5-2.3-1.5-2.3s-.2 1.2 0 2.2l.9 3-3.4 3.3s-.6-.6-1.5-2.6c-1-2-1.6-4.5-1.6-4.5s-.3 1 0 3c.4 2.2 1.6 5.4 1.6 5.4l-3.6 4s-.8-1.3-1-2.2c-.4-.9-4.4-10.4.7-14.4 5.1-4 12.7-2 12.7-2s-1.8-1.4-5-3.4c-3.3-1.9-7.2-1.5-7.2-1.5l1-5.4-4.1 4.2-5.8-4.9Z"/><path d="m26.7 303.1 1.2.6h-1l.1 1.5c-1-.8-1.8-1.2-1.8-1.2l1.5-.9ZM59.1 321.8c.8-3.1 3-10.8 7.6-18.4 3.3-5.6 7.6-8.5 9.6-9.6h1v1.5c-1.2.9-2.7 2.2-3.8 3.7a56 56 0 0 0-7 14.8c-1.6 5.5-2.8 14.5-3.6 21.6h-5.8l2-13.6Z"/><path d="m77.5 293.2-1.2.6c-1.3.2-4.2.7-7.5 2.6-4.5 2.7-5.7 4-5.7 4l-.4-3c-.2-1.1-.8-1.7-.8-1.7s-.9 1.7-1 3c0 1.3.2 2 .2 2l-9 2s1-10.2 4.9-13c3.9-3 10.3-1.7 13.8-.9 3.5.8 5.5 1.6 5.5 1.6s-2.8-3.7-5.2-4.9-4-1.6-4-1.6l-.2-4-3.7 2.5-6.5-4.8s2.8-5.3 11-4.6c8 .7 9.9 7.1 10.4 9.7.6 2.5.5 7.4.5 7.4s4.2-10.2 10.2-13.3c6-3 8.5-1.6 11 0 2.4 1.7 3.4 2.6 3.4 2.6l-5.5 5-4.4-4 1.3 5.4s-4-.3-7 1.8c-3.2 2-5 3.6-5 3.6s7.5-2.3 12.8 1.5c5.2 3.7 1.6 13.4 1.3 14.3-.2 1-1 2.2-1 2.2l-3.7-3.8s1.1-3.2 1.3-5.4c.3-2.1 0-3 0-3s-.6 2.4-1.4 4.5-1.4 2.7-1.4 2.7L87 301l.7-3v-2.2l-1.5 2.3-1.4 1.5s-1-2-2.1-3.1c-1-1.2-2-1.6-2-1.6s3 3.3 3 9a14 14 0 0 1-4.4 11.2c-2.1 1.9-4.4 2.2-4.4 2.2l.6-6.8s2-1.3 2.7-2a6 6 0 0 0 1.1-1.7s-1 .6-2.3.5c-1.3 0-2.2-.5-2.2-.5s1.5-2.6 2-5.3c.4-1.7.5-4.5.5-6.2l1.7-1.2-1.5-.9Z"/><path d="m76.3 293.8 1.2-.6 1.4.8-1.7 1.3v-1.6l-.9.1Z"/></g><g fill="#211915" opacity=".9"><path d="M316.1 20.6c-1.4.7-4.3 2.5-6.7 6.2a46.6 46.6 0 0 0-6.2 15h3.8c.5-2.5 1.1-5.4 2-8 1.7-4.6 3.7-8 5.1-9.8.7-1 1.8-1.8 2.6-2.4v-1h-.6Z"/><path d="m334.6 11.6-2.3-1.7c-1.6-1.2-3.3-2.3-7.4-.4-4 2-7.2 8.6-7.2 8.6s.3-3.2 0-5c-.3-1.6-1.4-6-6.8-6.7-5.4-.6-7.5 2.8-7.5 2.8l4.2 3.4 2.6-1.5v2.6L313 15c1.5.8 3.3 3.4 3.3 3.4s-1.3-.6-3.6-1.2c-2.4-.7-6.6-1.7-9.3.2-2.7 1.8-3.6 8.7-3.6 8.7l6-1.1s-.1-.6 0-1.4c0-1 .7-2 .7-2s.4.4.5 1.1l.2 2s.8-.8 4-2.5c2.2-1.1 4.1-1.4 5-1.5l.9-.4.9.6-1.2.8c0 1.1-.1 3-.4 4.2-.5 1.8-1.6 3.4-1.6 3.4s.6.3 1.5.4c1 .1 1.6-.2 1.6-.2s-.3.6-.8 1a17 17 0 0 1-1.9 1.3l-.6 4.6s1.6-.2 3-1.4a9.4 9.4 0 0 0 3.3-7.3 9.6 9.6 0 0 0-1.8-6.2s.6.3 1.3 1.1 1.4 2.2 1.4 2.2l1-1 1-1.5v1.5c0 .7-.6 2-.6 2l2.2 2.2s.4-.4 1-1.8c.7-1.3 1-3 1-3s.3.7 0 2.1-1 3.6-1 3.6l2.4 2.6.7-1.4c.3-.6 3-7-.5-9.7-3.4-2.7-8.5-1.3-8.5-1.3s1.2-1 3.4-2.3c2.1-1.3 4.8-1 4.8-1l-.7-3.6 2.8 2.8 3.9-3.3Z"/><path d="m317 20.2-.9.4h.6v1l1.2-.8-1-.6ZM295.1 32.8c-.4-2.1-2-7.3-5-12.4a17.8 17.8 0 0 0-6.5-6.4h-.6v1c.8.6 1.8 1.5 2.5 2.5 1.3 1.8 3.2 5.2 4.6 9.9 1.2 3.6 2 9.7 2.5 14.5h4c-.6-3.8-1.2-8-1.5-9.1Z"/><path d="m282.8 13.6.8.4a19.5 19.5 0 0 1 8.9 4.4l.3-2 .5-1.2s.6 1.2.7 2l-.1 1.5 6 1.3s-.7-6.9-3.3-8.8c-2.6-2-7-1.1-9.3-.6-2.4.6-3.7 1.1-3.7 1.1s2-2.5 3.5-3.3 2.6-1 2.6-1l.3-2.7 2.4 1.6 4.4-3.2s-2-3.5-7.3-3c-5.5.4-6.7 4.7-7.1 6.4-.4 1.7-.3 5-.3 5s-2.8-6.9-6.8-9c-4-2-5.7-1-7.4 0l-2.3 1.8 3.7 3.4 3-2.7-1 3.6s2.7-.2 4.8 1.2c2.1 1.4 3.3 2.4 3.3 2.4s-5-1.5-8.5 1c-3.6 2.5-1.1 9-1 9.6.2.7.7 1.5.7 1.5l2.5-2.6s-.7-2.1-.9-3.6c-.1-1.4.1-2 .1-2s.4 1.6 1 3 .9 1.8.9 1.8l2.3-2.2-.5-2v-1.4a10 10 0 0 0 2 2.6s.7-1.4 1.4-2.2c.7-.7 1.3-1 1.3-1s-2 2.2-2 6c-.1 4 1.5 6.3 3 7.5 1.4 1.3 2.9 1.5 2.9 1.5l-.4-4.6-1.8-1.3c-.5-.5-.8-1.1-.8-1.1s.7.4 1.6.3c.9 0 1.5-.3 1.5-.3s-1-1.7-1.4-3.6c-.3-1.2-.3-3-.3-4.1L282 14l1-.5Z"/><path d="m283.6 14-.8-.4-1 .5 1.2.9v-1h.6Z"/></g><path fill="url(#a)" d="M0 0h335v335H0z" opacity=".8"/><path fill="#211915" d="M167.5 144a5.6 5.6 0 0 0-4.5 8.9l4.5 7.7 4.5-7.7c.7-1 1-2 1-3.3 0-3-2.4-5.6-5.5-5.6Zm0 8.1a2.4 2.4 0 1 1 0-4.8 2.4 2.4 0 0 1 0 4.8ZM38.6 35.1h259.1V74H38.6zM121 256.9h93.1v26.3H121z"/><g fill="#211915" data-name="PRINT"><path d="M29.6 14c0 .4-.2 1-.6 1.3l-6.3 6.4-6.8-4V14a2 2 0 0 1 4 0v4.9l6.3-6.3a2 2 0 0 1 3.4 1.4ZM29 31.7a2 2 0 0 1-2.8 0L24 29.6 20 25.4v4.9c0 1-1 2-2 2s-2-1-2-2v-3.9l6.8-3.9 4.2 4.2 2 2.2c.9.7.9 2 0 2.8ZM22.4 22l-.2-.3-1.8-1-4.5-2.6-3.9-2.3c-.2 0-.5 0-.6.2V27.9a.5.5 0 0 0 .6.4l3.9-2.2 6.2-3.6h.1l.1-.2V22Zm-9.6-4.8 3 1.8 4.9 2.8.1.1v.3l-.1.2-4.9 2.8-3 1.8c-.2 0-.4 0-.5-.2v-9.2c0-.2.1-.4.3-.4h.2Z"/><path d="m19.5 22.2-.2.1-3.6 2.1-2.3 1.3h-.3v-7c0-.2 0-.3.2-.3h.1l2.3 1.4 3.6 2 .2.2v.2ZM62.5 21.6 57 18.8l-3.4-1.7a.4.4 0 0 0-.6.1v9.5c.1.2.3.4.5.4l.2-.1.2-.1 3.2-1.7 2-1 3.5-2c.1 0 .2 0 .2-.2v-.2l-.2-.2ZM57 24.5l-2.6 1.4-.4-.1v-.2l-.2-7.2c0-.1.2-.3.4-.2l2.8 1.3 1 .5 3.3 1.7.2.2v.1l-.2.2-4.3 2.3Z"/><path d="M60.1 22v.1L56.7 24l-2 1h-.3v-.1l-.1-5.5.2-.2h.1l2 1 3.3 1.7.1.1v.1ZM38.5 17.2H33.7V27h2.4v-3.1h2.5c2.3-.1 4-1.5 4-3.4s-1.8-3.2-4-3.2Zm-.2 4.6H36v-2.7h2.3c1.1 0 2 .5 2 1.3 0 .9-.9 1.4-2 1.4ZM51.8 27l-7.7.1-.2-9.7h2.4l.1 7.8 5.3-.1.1 1.9zM67.5 23.3l.1 3.5h-2.4v-3.5l-4.3-6.1 2.7-.1 2.7 4.3 2.8-4.3 2.6-.1-4.2 6.3zM81.9 27.2l-1.6.1-4.1-4.5-1.7 1.6v2.9l-1.2.1-.1-9.7h1.2l.1 5.3 5.4-5.4h1.6L77 22.1l4.9 5.1zM88 17.3c-3 0-5.5 2.4-5.5 5.1 0 2.7 2.6 5 5.6 5 3 0 5.5-2.4 5.5-5.1 0-2.7-2.6-5-5.6-5Zm.4 9a4.3 4.3 0 0 1-4.7-4 4.3 4.3 0 0 1 8.6 0 4.3 4.3 0 0 1-4 4ZM103.2 24.5c0 1.6-1.3 2.8-3.8 2.8-1.5.1-3-.4-4.2-1.4l.7-.9a5 5 0 0 0 3.6 1.4c1.6 0 2.5-.9 2.5-1.8 0-1-1-1.4-3-1.8-2.1-.4-3.5-1-3.5-2.6s1.5-2.8 3.5-2.8c1.4 0 2.8.4 3.8 1.3l-.7.8c-.8-.7-2-1.2-3.1-1.2-1.3 0-2.3.9-2.3 1.7 0 1 1 1.4 3 1.8 2 .4 3.5 1 3.5 2.7ZM116 27.2h-1.2l-.1-7.3-3.9 6.8-4.1-6.7.1 7.3-1.3.1-.1-9.7h1.3l4 6.7 4-6.8h1.2l.1 9.6zM123.7 17.3c-3 0-5.5 2.4-5.5 5.1 0 2.7 2.6 5 5.6 5 3 0 5.5-2.4 5.5-5.1 0-2.7-2.6-5-5.6-5Zm.4 9a4.3 4.3 0 0 1-4.6-4 4.3 4.3 0 0 1 8.5 0 4.3 4.3 0 0 1-3.9 4ZM139 24.5c0 1.6-1.4 2.8-3.9 2.8A6.2 6.2 0 0 1 131 26l.7-.9.6.4c.8.6 1.9 1 3 1 1.6 0 2.5-.9 2.5-1.8 0-.7-.6-1.1-1.6-1.4l-1.2-.3h-.2c-2.1-.5-3.5-1-3.5-2.7 0-1.6 1.5-2.8 3.6-2.8 1.3 0 2.7.4 3.8 1.3l-.8.8c-.8-.7-2-1.2-3-1.2-1.4 0-2.4.9-2.4 1.7 0 1 1.1 1.4 3 1.8a14.6 14.6 0 0 1 2 .6c1 .4 1.5 1 1.5 2.1Z"/></g></g></svg>