<svg xmlns="http://www.w3.org/2000/svg" xmlns:xlink="http://www.w3.org/1999/xlink" width="335" height="335"><defs><radialGradient id="b" cx="167.5" cy="167.5" r="167.5" fx="167.5" fy="167.5" gradientUnits="userSpaceOnUse"><stop offset="0" stop-color="#7f2f91"/><stop offset="1" stop-color="#441a52"/></radialGradient><radialGradient id="a" cx="257.1" cy="122.4" r="9.7" fx="257.1" fy="122.4" gradientUnits="userSpaceOnUse"><stop offset="0" stop-color="#fff"/><stop offset=".4" stop-color="#fcfdfd"/><stop offset=".7" stop-color="#f2fafa"/><stop offset="1" stop-color="#e4f4f4"/></radialGradient><radialGradient xlink:href="#a" id="c" cx="265.7" cy="113.8" r="2.9" fx="265.7" fy="113.8" gradientTransform="rotate(-45 266.37 113.16)"/><radialGradient xlink:href="#a" id="d" cx="260.5" cy="119" r="5.9" fx="260.5" fy="119"/><radialGradient xlink:href="#a" id="f" cx="167.5" cy="158" r="7.6" fx="167.5" fy="158"/><linearGradient id="e" x1="60.4" x2="153.6" y1="184.7" y2="283.9" gradientUnits="userSpaceOnUse"><stop offset="0" stop-color="#ed3a8b"/><stop offset=".5" stop-color="#742263"/><stop offset="1" stop-color="#742263"/></linearGradient></defs><g data-name="Layer 1"><path fill="#441a52" d="M0 0h335v335H0z"/><path fill="#dc5092" d="M22.5 215.3Z"/><path fill="url(#b)" d="M0 0h335v335H0z" opacity=".8"/><circle cx="261.3" cy="85.5" r="70.7" fill="#ed3a8b"/><g fill="#fff" data-name="PRINT"><path d="M29.6 13.9c0 .5-.2 1-.6 1.4l-6.3 6.3-6.8-3.9v-3.8c0-1.1.9-2 2-2s2 .9 2 2v4.9l6.3-6.3c.8-.8 2.1-.8 2.8 0 .4.4.6.9.6 1.4ZM29 31.7c-.4.4-.9.6-1.4.6s-.5 0-.8-.2c-.2-.1-.5-.3-.6-.4l-2.1-2.1-4.1-4.1v4.9c0 1.1-.9 2-2 2s-2-.9-2-2v-3.8l6.8-3.9 4.2 4.2 2.1 2.1c.8.8.8 2.1 0 2.8ZM22.4 22s0-.2-.2-.2l-1.7-1-4.6-2.6L12 16c-.2-.1-.5 0-.6.2V28.1c0 .3.2.5.5.5h.2l3.9-2.2 6.3-3.6s0-.1.1-.2v-.3Zm-9.6-4.7 3 1.7 4.9 2.8s.1 0 .1.1v.3s0 .2-.2.2l-4.9 2.8-3 1.7c-.2 0-.4 0-.5-.1V17.5c0-.2.2-.3.3-.3h.2Z"/><path d="M19.5 22.2s0 .1-.1.2l-3.7 2.1-2.3 1.3H13V18.9c0-.1.1-.3.3-.3h.1l2.3 1.3 3.7 2.1s.1 0 .1.2v.1ZM62.5 21.6l-5.6-2.8-3.4-1.7c-.2-.1-.4 0-.5.2v9.5c.1.2.3.4.6.4h.4l3.2-1.8 2-1.1 3.5-1.9s.2-.1.2-.2V22s-.1-.2-.2-.2Zm-5.6 2.8-2.6 1.4c-.2 0-.3 0-.4-.1v-7.3c0-.2 0-.3.2-.3h.1l2.7 1.3 1 .5 3.4 1.7s.1 0 .2.2v.2s0 .1-.1.1l-4.3 2.3Z"/><path d="m60.1 22-.1.1-3.2 1.7-2 1.1h-.3v-5.4c0-.1 0-.2.2-.2l2 1 3.3 1.6.1.1v.1ZM38.5 17.2h-4.9v9.7H36v-3.2h2.5c2.3 0 4.1-1.4 4-3.4 0-1.9-1.8-3.2-4.1-3.2Zm-.2 4.6H36v-2.7h2.3c1.1 0 1.9.5 1.9 1.3s-.8 1.4-1.9 1.4ZM51.8 27l-7.7.1-.2-9.7h2.4l.1 7.8 5.3-.1.1 1.9zM67.5 23.3l.1 3.5h-2.4v-3.5l-4.3-6.1 2.7-.1 2.7 4.2 2.8-4.2 2.6-.1-4.2 6.3zM81.9 27.2l-1.6.1-4.1-4.5-1.7 1.6v2.9h-1.2l-.1-9.6h1.2l.1 5.3 5.4-5.4h1.6L77 22.1l4.9 5.1zM88 17.3c-3 0-5.5 2.3-5.5 5.1 0 2.7 2.6 5 5.6 4.9 3 0 5.5-2.4 5.5-5.1 0-2.7-2.6-5-5.6-4.9Zm.4 9c-2.4.2-4.4-1.6-4.6-3.9a4.27 4.27 0 0 1 8.5-.1 4.2 4.2 0 0 1-3.9 4ZM103.2 24.5c0 1.5-1.2 2.8-3.8 2.8-1.6 0-3.1-.5-4.3-1.5l.8-.9c1 .9 2.2 1.4 3.5 1.4 1.7 0 2.5-.9 2.5-1.7 0-1-1-1.4-2.9-1.8-2.2-.4-3.5-1-3.6-2.7 0-1.5 1.5-2.8 3.6-2.8 1.4 0 2.7.4 3.8 1.3l-.7.9c-.9-.8-2-1.2-3.1-1.2-1.3 0-2.3.8-2.3 1.7 0 1 1.1 1.3 2.9 1.7 2.1.4 3.5 1.1 3.6 2.8ZM116 27.2h-1.2l-.1-7.3-3.9 6.8-4.1-6.7.1 7.3-1.3.1-.1-9.7h1.3l4 6.7 4-6.8h1.2l.1 9.6zM123.7 17.3c-3 0-5.5 2.3-5.5 5.1 0 2.7 2.6 5 5.6 4.9 3 0 5.5-2.4 5.5-5.1 0-2.7-2.6-5-5.6-4.9Zm.4 9c-2.4.2-4.4-1.6-4.6-3.9a4.27 4.27 0 0 1 8.5-.1 4.2 4.2 0 0 1-3.9 4ZM138.9 24.5c0 1.5-1.3 2.8-3.8 2.8-1.5 0-2.9-.4-4.1-1.3l-.2-.2.8-.9c.2.2.3.3.5.4.9.6 1.9 1 3 .9 1.7 0 2.5-.9 2.5-1.7 0-.8-.6-1.2-1.6-1.5-.3-.1-.7-.2-1.2-.3h-.2c-2.2-.4-3.5-1-3.6-2.7 0-1.5 1.5-2.8 3.6-2.8 1.4 0 2.7.4 3.8 1.3l-.7.9c-.9-.8-2-1.2-3.1-1.2-1.3 0-2.3.8-2.3 1.7 0 1 1.1 1.3 2.9 1.7.4 0 .8.2 1.1.3.4.1.7.2 1 .4.9.4 1.5 1.1 1.5 2.1Z"/></g><circle cx="261.3" cy="85.5" r="67" fill="#d6b3d5"/><circle cx="261.3" cy="85.5" r="62.2" fill="#ed3a8b"/><path fill="url(#a)" d="M266.7 123.1v6.1c0 1.5-1.3 2.8-2.8 2.8h-13.7c-1.5 0-2.8-1.3-2.8-2.8v-13.7c0-1.5 1.3-2.8 2.8-2.8h6.2c.4 0 .8.3.8.8s-.3.8-.8.8h-5.9c-.9 0-1.7.8-1.7 1.7v13c0 .9.8 1.7 1.7 1.7h13c.9 0 1.7-.8 1.7-1.7v-5.8c0-.4.3-.8.8-.8.4 0 .8.3.8.8Z"/><path fill="url(#c)" d="M266.3 111.4c1.8 0 3.2 1.4 3.2 3.2v.5h-6.4v-.5c0-1.8 1.4-3.2 3.2-3.2Z" transform="rotate(45 266.34 113.12)"/><path fill="url(#d)" d="m266.5 117.6-6.8 6.8h-.3l-4.4.6c-.2 0-.5-.2-.5-.5l.6-4.4v-.3l6.8-6.8 4.5 4.5Z"/><path fill="#c95d00" d="M80.8 271.1s.7 10-5.5 16.2-5.2 24.2-3.8 26.7c0 0 2.1.9 1.8 2.3-.2 1.5-5.1 3.2-6.8-1s-1.7-16.6-2.4-28.9c-.7-12.3 16.7-15.4 16.7-15.4Z"/><path fill="#aa4a00" d="M73.3 290.1c-2.5 1.7-5.1 3.2-7.4 5-.5.4-.9.7-1.3 1.1-.1-3.2-.3-6.5-.5-9.8-.7-12.3 16.7-15.4 16.7-15.4s.7 10-5.5 16.2-1.4 1.7-2 2.8Z"/><path fill="#fff" d="M70.5 308.7c.2 2.6.6 4.6 1 5.3 0 0 2.1.9 1.8 2.3-.2 1.5-5.1 3.2-6.8-1-.7-1.8-1.1-5.1-1.4-9.2 1.6 1.2 3.5 2.1 5.5 2.6Z"/><path fill="#c95d00" d="M43 280s.9 12-4.8 17.1c-5.6 5.1-11.8 7.1-10.4 14.9l.4 2.1s1.5.6 1.6 1.7c.1 1.1-4.8 2.8-5.9-.7s.2-6.4-.5-10.9 1.3-2.8 4.5-6.2c3.2-3.4 1.5-7.3-.6-12.7-2.1-5.4 12.4-6.6 15.7-5.3Z"/><path fill="#fff" d="M23.5 304.7c.8 1 1.8 1.7 3.1 2 .6.1 1.2 0 1.7 0-.7 1.5-.9 3.3-.5 5.5l.4 2.1s1.5.6 1.6 1.7c.1 1.1-4.8 2.8-5.9-.7-1.1-3.4.2-6.2-.4-10.5Z"/><path fill="#aa4a00" d="M35.8 290.9c-2.2 1.1-4.3 2.5-6.2 4.2.6-2.7-.7-5.9-2.2-9.8-2.1-5.4 12.4-6.6 15.7-5.3 0 0 .3 4.1-.6 8.6-2.3.4-4.7 1.3-6.7 2.4Z"/><path fill="#c95d00" d="M4.2 266.8c1 2.9 3.5 5.3 6 6.4 4.9 2.3 14.9-3.9 14.9-3.9s6-1.4.5 3.2c-4.5 3.7-15.3 6.4-20.5-.4-1.4-1.8-2.2-3.4-2.6-4.8.6-.2 1.2-.5 1.8-.6Z"/><path fill="#fff" d="M4.2 266.8c-.6.3-1.1.5-1.7.8-2.1-6.6 4-9.9 4-9.9-2.9 3.1-3.2 6.3-2.2 9.1Z"/><path fill="#aa4a00" d="M16.3 273.2c4.4-1.2 8.8-3.9 8.8-3.9s6-1.4.5 3.2c-2.6 2.1-7.2 3.9-11.7 3.8.9-1 1.7-2.1 2.4-3.2Z"/><path fill="#e67200" d="M81.9 265.9s-1.3 3.3-1.3 8.6-2.6 14.6-17.8 16.7c-15.3 2.1-16.2-11.7-25.5-9.9-9.4 1.8-7.7 10.4-12.1 14.4-4.4 4-9.2 9.4-9.9 11.6-.6 2.2-.4 11.8-1.8 12.1-1.4.3-1.8-.4-1.8-.4s-1.3.8-1.7-.1c0 0-1.9.3-1.8-1.8.1-2.1 2.6-8.6 3.1-11.6s2.3-.3 3.6-5.9c1.3-5.6 2.1-6.8 2.1-11.6s1-16.7 14-23.1c13-6.4 20.8-4.5 20.8-4.5s7.8-4.7 12.8-4c5 .8 17.3 9.5 17.3 9.5Z"/><path fill="#fff" d="M10.9 307.1c.5.6 1.1 1.2 1.8 1.7.6.5 1.4.8 2.2 1-.3 3.6-.4 9.3-1.5 9.5-1.4.3-1.8-.4-1.8-.4s-1.3.8-1.7-.1c0 0-1.9.3-1.8-1.8.1-1.7 1.9-6.6 2.7-9.9Z"/><path fill="#c95d00" d="M65.8 265.2c-4.7-2.6-6.9-5.8-8-7.7 2.2-.8 4.7-1.4 6.7-1.1 5 .8 17.3 9.5 17.3 9.5s-8.7 3.4-16.1-.7Z"/><path fill="#e67200" d="M57.4 268.2c1-.8 2.1-1.3 3.4-1.7l3.4.6c2.2.4 4.3.8 6.5 1 .9.1 1.9.3 2.8.4.9 3.5 2 9.5-.2 12.3-3.2 4.1-8.7 6-9.4 14.6s-1.1 16.7 0 19.5 4 5 2 6.2c-2.1 1.2-8.2.4-7.7-4.8.5-5.1-.1-19.9-1.6-26.2 0 0 2.3-4 .1-8.2-2.2-4.1-4.5-9.9.7-13.9Z"/><path fill="#fff" d="M58.2 306.5c1.3 1.9 3.1 3.5 5 4.6 0 1.7.3 3.1.6 4 1.1 2.8 4 5 2 6.2-2.1 1.2-8.2.4-7.7-4.8.2-2.1.2-5.9 0-10Z"/><path fill="teal" d="M62.4 252.2s1.6-.6 6.1 1.4 16.9 5.3 16.2 7.4-16.8-1.9-16.8-1.9l-5.4-6.8Z"/><path fill="#c45a00" d="M63.7 240.1s4-.4 5.2 3c1.2 3.4 3-6.2 3-6.2l.7-1.6s-2.8-4.7-6.4-1c-3.6 3.7-2.5 5.8-2.5 5.8Z"/><path fill="#e67200" d="M72.9 235.2s-1.5-3-4.8-2.5-6 6.3-6 6.3 0 3.9.9 3.5c.9-.3 2.6-8.7 4.7-9.2s3.9.4 4.4 2.4c.5 2 .8-.5.8-.5Z"/><path fill="#c45a00" d="M93.1 239.5s-4-.4-5.2 3c-1.2 3.4-3-6.2-3-6.2l-.7-1.6s2.5-4.2 6.1-.5c3.6 3.7 2.8 5.3 2.8 5.3Z"/><path fill="#e67200" d="M83.4 234.9s1.5-3 4.8-2.5 6 6.3 6 6.3 0 3.9-.9 3.5c-.9-.3-2.6-8.7-4.7-9.2s-3.9.4-4.4 2.4-.8-.5-.8-.5ZM85.4 253.5s-.3 6.3-2.4 9.3c-2.1 3-19.1-8.3-19.1-8.3s3-7.8 5.8-10.5 15.8 9.4 15.8 9.4Z"/><path fill="#e67200" d="M79.5 234.9s5.4-2.5 7.9 3.8c2.8 7.1 1.6 10.5-.9 13.3-2.6 2.7-10.3 7.6-15.7-1.8-4.1-7.1-1.9-12.6 2.1-15 2.9-1.7 6.7-.3 6.7-.3Z"/><path fill="#f68408" d="M80.5 234.6s-1.2 4 .8 7 6.1 4.7 5.5 10.5c-.5 5.8-1.8 5.6-5.5 4.6s-4.9 2.8-7.8-1c-2.8-3.8-.6-9.2 3.3-12.7 4-3.5 1.3-8.4 1.3-8.4s.7.1 1.2.3c.6-.2 1-.3 1-.3Z"/><path fill="#aa4a00" d="M72.1 252.2c-4.2-4.8-5.8-13.5.7-17.1-6.5 4.1-4.4 11.9-.7 17.1ZM87.4 238.6c2 4 2.9 9-.3 12.6H87c3.1-3.8 2.2-8.6.4-12.6Z"/><path fill="none" stroke="#aa4a00" stroke-miterlimit="10" stroke-width=".2" d="M85 257s-.7 2.9-1.7 5"/><path fill="#aa4a00" d="M68 247.8c0 6.2 3.7 11.3 10.1 11.7-.7 0-1.4-.1-2.1-.3-5.3-1-8.3-6.4-7.9-11.5ZM86.1 239.9c-1 0-1.4 0-2.1.2-.7.2-1 .3-1.7 1-1-1-.1-2.8 1.1-3 1.2-.4 2.8.5 2.7 1.8ZM73.2 239.9c-.2-1.4 1.5-2.3 2.7-1.8 1.2.3 2.2 2 1.1 3-.7-.7-1-.8-1.7-1-.7-.2-1.1-.3-2.1-.2Z"/><circle cx="84.5" cy="242" r="1.3" fill="#561f00"/><path fill="#fff" d="M85.4 241.6c0 .3-.2.5-.5.5s-.5-.2-.5-.5.2-.5.5-.5.5.2.5.5Z"/><circle cx="74.8" cy="242" r="1.3" fill="#561f00"/><path fill="#fff" d="M75.7 241.6c0 .3-.2.5-.5.5s-.5-.2-.5-.5.2-.5.5-.5.5.2.5.5Z"/><path fill="#ff7979" d="m81.2 253.7 2.2 2.1s-.1 3.8-2.6 3.8c-2.7 0-2.7-3.9-2.7-3.9l2.1-2h1Z"/><g fill="#aa4a00"><path d="M80.9 253.5c-1.3-.9-1.2-2.5.3-3.1 1.4.9 1.2 2.5-.3 3.1Z"/><path d="M85.6 255.2c.2.5.2 1.2-.3 1.6-.2.2-.5.2-.8.1-1.7-.4-3-1.7-4.1-2.6.1.1.5.2.6.1-1.3 1.1-3.5 3.5-5.4 2-.6-.5-.8-1.1-1-1.8.5.4 1 .8 1.5.8.5.1.7 0 1.1-.4 1.1-.9 1.8-2.2 3.3-2.9.4-.1 1 0 1.4.3 0 0 .7.7.7.8l1.2 1.3c.4.4.8.9 1.1 1.2.1 0 .1.2.3 0 .2-.2.3-.5.5-.8Z"/></g><path fill="#aa4a00" d="M84.6 248.9c-.7-.6-1.3-.8-2-.9-2.2-.2-3.9-.2-6.1 1.2.2-3.2 4.4-4.3 6.8-2.7.8.5 1.5 1.5 1.3 2.5Z"/><path fill="#aa4a00" d="M80.8 247.9s2.4 0 3 1.2c.7 1.2-2.3 2.9-2.8 3-.5 0-1.9-.6-3-2.4-.7-1.1 2-1.8 2.7-1.8Z"/><g fill="#561f00"><path d="M83.5 250.5s-1 1.2-1.6.8c-.8-.6-.2-2 .7-2.1s0 1.5-.7 1.6c-.6.1.3 1.1 1.5-.2ZM78.6 250.5s1 1.2 1.6.8c.8-.6.2-2-.7-2.1s0 1.5.7 1.6c.6.1-.3 1.1-1.5-.2Z"/></g><path fill="#00e0e8" d="M83.7 265.4s-5.4 2.8-13.8-1.1c-8.3-3.9-9-7.4-9-7.4l1.4-4.7s5.1 8.1 22.3 8.7l-.9 4.5Z"/><path fill="#00d1d3" d="M76.2 259.9c2.4.5 5.2.9 8.5 1.1l-.9 4.5s-4.8 2.4-12.3-.5c2-1.4 3.6-3.1 4.8-5Z"/><path fill="#ffd9b2" d="M100.8 280c2.7 2.6 4.8 5.6 7.4 8.3 2.6 2.6 5.9 4.9 9.6 5 .9 0 2.2.2 2.3 1.1.1.8-.9 1.3-1.7 1.5-5.1.9-10.3-1.8-14.1-5.5-1.7-1.7-3.2-3.5-5-4.9-1.9-1.4-4.2-2.5-6.5-2.1-1.4.2-3.4-6.9-.8-7.7 2.8-.8 7 2.6 8.8 4.3Z"/><path fill="#fbf0e7" d="M120.1 294.4c-.1-.9-1.4-1.1-2.3-1.1-3.2-.1-6.1-1.8-8.5-3.9v.8c0 .6-.9-.1-1.3 0-.2 0-.2.3-.2.5s.2.4.3.5c-.3 0-.8-.3-1 0-.1.2 0 .5 0 .7H106c3.5 2.9 8 4.8 12.4 4 .8-.2 1.8-.7 1.7-1.5Z"/><path fill="#ffd9b2" d="M106.9 291c-1.9-2.4-3.7-4.9-5.8-7.1-1-1-2-1.8-3.4-1.8h-5c-.4 0-.8 0-1.1.2.4.7.8 1.2 1.2 1.2 2.3-.4 4.7.6 6.5 2.1 1.9 1.4 3.4 3.3 5 4.9 1.8 1.8 4 3.4 6.4 4.4-1.4-1.1-2.7-2.4-3.8-3.8Z"/><path fill="#edbd91" d="M75.9 301.4c1 1.3 2.4 2.3 3.7 3.4 1.3 1.1 2.6 2.3 3.2 3.8s.5 3.5-.7 4.7c-1.8-.1-3.8 1.2-3.3 3.1.2.6 4.3.7 6.4-.6.4-3.7 3.3-9.9 2.6-11.4s-2.4-6-1.8-9.1c.6-3.1 2.1-6 3.6-8.9.5-1-6.7-2.3-7.4-2.3-2.5 0-5.7.7-7.6 2.5-1.5 1.5-1.1 3.9-1.2 5.8 0 3.1.2 6.5 2.2 9Z"/><path fill="#ffd9b2" d="M85.3 306.7c.2-1.1 0-2.3-.2-3.4 0-.3-.1-.7-.3-1-.2-.3-.5-.5-.8-.5-.4 0-.8.4-1.1.7a5.15 5.15 0 0 1-4.9 1l1.7 1.4c1.3 1.1 2.6 2.3 3.2 3.8.2.4.3.8.3 1.2.1 0 .3-.1.4-.2.9-.6 1.5-1.7 1.6-2.9ZM44.7 278c-.5 7.9 2.4 15.7 4.8 21.1 1.2 2.8 2.3 5.6 3.1 8.5.4 1.4.9 7.8.9 7.8s-3.4.7-3.4 4c0 .7 5.2.3 5.8 0 1.5-.7 3.4-12.4 2.8-13.3-2.1-3.4.6-9.5.9-12 0 0-3.7-.4-8.6-4.8-4.9-4.4-6.3-11.3-6.3-11.3Z"/><path fill="#ffd9b2" d="M56.3 306.1c.2 1 .1 2-.4 2.9-.2.3-.4.6-.6.8-.3.2-.6.3-1 .2-.9-.3-1.7-2.6-1.2-3.3.5-.6 2.9-1.5 3.1-.5ZM54 299.3c1.1 1.2 2.5 2.3 3.9 3 .1-3.1 1.5-6.5 1.7-8.3 0 0-3.7-.4-8.6-4.8-2-1.8-3.4-4-4.4-6 .6 3.1 1.6 6.1 2.9 9 1.2 2.6 2.6 5 4.5 7Z"/><g fill="none" stroke="#000" stroke-linecap="round" stroke-linejoin="round" stroke-width=".2"><path d="M51.3 319.6c-.2-.9 0-1.8.7-2.4M53.8 319.7c0-1 .3-2 1-2.6M53.7 315.5h1.1M53.1 305.8c.6.3 1.4 0 1.7-.5"/></g><path fill="#ffd9b2" d="M45.6 283.9c.8 4.1 2.8 8.1 6.3 10.4 4 2.6 9.1 2.6 13.9 2.1 10.7-1.2 21.3-4.4 31.9-3.1 1.1-5.7 2.2-10-.3-14.1s-8.8-5.2-14.8-7.2-11.7-5-16.1-9.5c-5.8 3.2-11.9 5.4-18.1 7.5-5 1.7-3.5 9.8-2.7 13.9Z"/><path fill="#fbf0e7" d="M82.6 290.8c-5.1.1-9.9 2.8-14.9 3-1.8 0-3.8-.2-5.1-1.4-1.3-1.2-1.7-2.9-2.2-4.6-.9-3.8-1.9-7.5-2.8-11.3-.8-3-1.5-6-2-9.1-2.4.9-4.8 1.7-7.2 2.5-5 1.7-3.5 9.8-2.7 13.9.8 4.1 2.8 8.1 6.3 10.4 4 2.6 9.1 2.6 13.9 2.1 8.4-.9 16.9-3.1 25.3-3.4-2.5-1.5-5.5-2.4-8.5-2.3Z"/><path fill="#ffd9b2" d="M51.3 280.4c2.8.8 5.2.4 7.9-.5a15 15 0 0 0 6.9-5.3c.8-1 1.4-2.1 2-3.2.3-.6.5-1 1-1.4 1.8-1.2 3.4-.2 5.2.3 1.9.5 3.9.8 5.9.8-5.1-2-9.9-4.8-13.8-8.6-5.8 3.2-11.9 5.4-18.1 7.5-2.4.8-3.3 3.2-3.5 5.8 1.7 2.2 4 3.9 6.6 4.6ZM89.3 291.9c-5.1.4-10.2 1.4-15.3 1.5-5.1.1-10.4-.6-14.8-3.3-1.4-.9-2.8-2-4.4-2.5-1.6-.5-3.6-.4-4.6.9-.8 1-.9 2.3-.6 3.5v.3a20 20 0 0 0 2.2 1.9c4 2.6 9.1 2.6 13.9 2.1 10.7-1.2 21.3-4.4 31.9-3.1 0-.5.2-.9.3-1.3-2.9-.3-5.8-.3-8.7 0Z"/><path fill="#f74b56" d="M63.7 273.8c-4.7 4.7-12 5.9-16.1 3.7-4.1-2.2-4.5-10.1-.7-15.1 3.9-5 14.2-6.5 18.4-3.2 4.2 3.3 2.8 10.3-1.6 14.6Z"/><path fill="#ffd9b2" d="M43.4 257.3c2.1-4.9 7.9-7.4 13.2-7.3 2 0 4.1.4 5.8 1.5 1.7 1.2 2.9 3 3.9 4.8.9 1.6 1.9 3.2 2.1 5 .2 2-.6 4.1-1.7 5.8-3.2 5.2-9.2 8.6-15.3 8.8-2.1 0-4.2-.3-5.8-1.5-1.8-1.4-2.6-3.8-2.7-6.1 0-2.3.5-4.5 1.1-6.7.5-1.7-1.2-2.7-.5-4.3Z"/><path fill="#fbf0e7" d="M54.6 272.7c-1.3-1.1-3.1-1.8-3.8-3.3l-.3 2.3c-.7-1.4-1.7-2.6-2.9-3.5a8.3 8.3 0 0 0-.7 3.8 4 4 0 0 1-1-2.3c-.4 1.6-.5 3.3-.3 4.9 1.6 1.2 3.7 1.5 5.7 1.4 1.8 0 3.5-.4 5.2-.9-.5-.9-1.2-1.7-1.9-2.4Z"/><path fill="#dd9861" d="M50 243.6c-.7-.5-1.7-.5-2.6-.4-.9.1-1.8.3-2.7.3-.7 0-1.5-.4-2.2-.2-1.7.4-1.7 2.2-2.2 3.5-.7 1.6-1.7 3.1-3 4.4-.1.1-.2.2-.3.4-.4 1.2 3.2.8 3.7.6 1.5-.6 2.6-1.9 4.1-2.4.8-.3 1.8-.3 2.6-.5 1.8-.5 5-3.9 2.5-5.6Z"/><path fill="#ffd9b2" d="M43.8 246.1c-.6-.1-1.2.3-1.5.8-.3.5-.5 1.1-.8 1.6-.8 1.6-2.5 2.6-4.2 2.7 0 0-.2.2-.2.3-.4 1.2 3.2.8 3.7.6 1.5-.6 2.6-1.9 4.1-2.4l1.2-.3c-.3-.8-.7-1.6-1.1-2.3-.3-.4-.6-.9-1.2-1Z"/><path fill="none" stroke="#000" stroke-linecap="round" stroke-linejoin="round" stroke-width=".2" d="M39.5 250.9c1.1-1 2-2.2 2.7-3.5.1-.3.3-.6.5-.9.2-.3.5-.5.9-.5.5 0 .9.4 1.2.8"/><path fill="#ffd9b2" d="M42.6 250.8c.3-1.3.6-2.6 1.3-3.7.7-1.1 1.9-2 3.2-2.1 1 0 2 .5 3.1.6 1.8.2 3.5-.9 5.3-1.2 1.5-.2 3.2.2 4.6.7 1.5.5 3.1 1.2 4.2 2.4 1.3 1.4 1.8 3.3 1.9 5.2 0 2-.5 3.8-.7 5.7a5.6 5.6 0 0 1-1.9 3.8c-1.3 1.2-2.9 2-4.6 2.5-2.6.8-5.4.9-8.1 1-1.8 0-3.7 0-5.4-.6-1.5-.6-2.9-1.7-3.3-3.3-.4-1.4-1.1-2.9-.8-4.4l1.5-6.7Z"/><path fill="none" stroke="#000" stroke-linecap="round" stroke-linejoin="round" stroke-width=".2" d="M51.4 265.6c3.6.4 7.3-.5 10.3-2.4"/><path fill="#fbf0e7" d="M47.9 252.7c.4.7.7 1.5.9 2.3.2.8.2 1.7 0 2.4 0 0-4.6-.5-5-.6.3-.5 1.3-.7 1.8-1.1 1-.8 1.7-1.9 2.4-3Z"/><path fill="#dd9861" d="M42.6 256.3c-1 .1-2 .6-2.6 1.4-.7 1-.8 2.3-.8 3.5 0 1.8-.2 5.7 2 6.3.7.2 1.4 0 2-.3.6-.3.9-.7 1.5-1.1.5-.3.8-.2 1.4-.1 1.6.3 2.7 1.5 4.2 1.9.6.2 1.4 0 2-.2 1.7-.9 1.6-3.5 1.5-5.2-.2-2-1-3.9-2.7-5.1-1.2-.9-2.6-1.4-4.1-1.4-1.4 0-3 0-4.3.2Z"/><path fill="none" stroke="#000" stroke-linecap="round" stroke-linejoin="round" stroke-width=".2" d="M45.1 260.2c-.2 1.1 0 2.3.5 3.4M48.6 263.9c1.2.6 2.1 1.9 2.3 3.2"/><path fill="#c67842" d="M41.9 263.3c.5 1.4 2 2.3 3.4 2.3 1 0 2-.3 2.9-.8.7-.4 1-.7.1-1-2-.6-4.4-.6-6.5-.5Z"/><path fill="none" stroke="#000" stroke-linecap="round" stroke-linejoin="round" stroke-width=".2" d="M41.5 265.8c0-.8 0-1.7.5-2.4"/><g fill="none" stroke="#000" stroke-linecap="round" stroke-linejoin="round" stroke-width=".2"><path d="m46.8 261.5.6.2M47.8 260.7h.6M48.2 261.7l.4.3"/></g><g fill="none" stroke="#000" stroke-linecap="round" stroke-linejoin="round" stroke-width=".2"><path d="m43.1 261.5-.6.2M42.1 260.7h-.6M41.7 261.7l-.4.3"/></g><path fill="#ae5b28" d="M47.9 258.2c0 1.2-1.3 2.6-2.8 2.5-1.5 0-2.6-1.6-2.6-2.8 0-1.2 1.3-1.6 2.8-1.6 1.5 0 2.7.6 2.6 1.8Z"/><path d="M47.1 259.1c-.1.5-.5.8-.9.7s-.5-.6-.4-1c.1-.5.5-.8.9-.7.4 0 .5.6.4 1ZM43.1 259c.1.5.4.8.6.8s.2-.5.1-.9c-.1-.5-.4-.8-.6-.8-.2 0-.2.5-.1.9Z"/><path fill="#ffd9b2" d="M45.2 259c-.9 0-1.9-.3-2.6-.9.1 1.1 1.2 2.4 2.5 2.5 1.5 0 2.8-1.3 2.8-2.5v-.2c-.8.6-1.7 1-2.7 1Z"/><circle cx="53.8" cy="253.9" r="2" fill="#fff" transform="rotate(-75.9 53.75 253.8)"/><circle cx="53.6" cy="253.9" r="1.4"/><path fill="none" stroke="#000" stroke-linecap="round" stroke-miterlimit="10" stroke-width=".2" d="M51.8 253.3a2 2 0 0 1 2.5-1.4 2 2 0 0 1 1.4 2.5"/><circle cx="53" cy="253" r=".5" fill="#fff"/><path fill="#fff" d="M46.1 253.6c-.2 1.1-1 1.9-1.8 1.8-.8-.1-1.3-1.2-1.1-2.3.2-1.1 1-1.9 1.8-1.8.8.1 1.3 1.2 1.1 2.3Z"/><path d="M45.6 253.6c-.1.8-.7 1.3-1.3 1.2-.6-.1-.9-.8-.7-1.6.1-.8.7-1.3 1.3-1.2.6.1.9.8.7 1.6Z"/><path fill="#fff" d="M44.6 252.7c-.2.2-.5.3-.7.2-.2-.1-.2-.4 0-.7.2-.2.5-.3.7-.2.2.1.2.4 0 .7Z"/><path fill="none" stroke="#000" stroke-linecap="round" stroke-miterlimit="10" stroke-width=".2" d="M43.3 253.1c.2-1.1 1-1.9 1.8-1.8.8.1 1.3 1.2 1.1 2.3"/><path fill="#fbf0e7" d="M49 249.1c.9-1.6 2.3-3 3.9-4-.9.3-1.8.6-2.8.5-.6 0-1.2-.3-1.8-.4v.2c.2 1.2.5 2.5.7 3.7Z"/><path fill="none" stroke="#000" stroke-miterlimit="10" stroke-width=".2" d="M44 255.7c2-.7 4.3-.6 6.2.4M49.7 250.4c0 .4 0 .8.2 1.1s.5.5.9.6M46.7 251.5c.2-.3.4-.6.5-.9"/><ellipse cx="51.5" cy="280.1" fill="#eda12b" rx="2.3" ry="1.9" transform="rotate(-83.5 51.54 280.1)"/><path fill="#fdcc3b" d="M52.9 280.3c-.1 1.3-1.1 2.2-2.2 2.1-1.1-.1-1.8-1.3-1.7-2.6.1-1.3 1.1-2.2 2.2-2.1 1.1.1 1.8 1.3 1.7 2.6Z"/><path fill="#ffd9b2" d="M60.8 284.5c0 5.8 2.5 11.3 4.9 16.7 1.2 2.8 2.3 5.6 3.1 8.5.4 1.4.9 7.8.9 7.8s-3.4.7-3.4 4c0 .7 5.2.3 5.8 0 1.6-.8 3.7-17 2.9-17.9-2.2-2.6.5-9.5.7-11.8 0 0-.6-6.1-5.9-10.3-5.2-4.2-9.1 2.9-9.1 2.9Z"/><path fill="#fbf0e7" d="M74.4 307.5c-.3.5-.3 1-.3 1.6 0 .3 0 .7-.3.9-.4.2-.8-.1-1.1-.5-.3-.3-.7-.7-1.1-.5v1.7c-.5-.3-1-.6-1.6-.8h-1c.4 1.9.9 7.5.9 7.5s-3.4.7-3.4 4c0 .7 5.2.3 5.8 0 1.2-.6 2.7-9.6 3-14.6-.3.1-.6.3-.7.6Z"/><path fill="#ffd9b2" d="M72.5 306.1c0 1 0 2.1-.5 2.9-.2.3-.4.6-.6.8s-.6.3-1 .2c-.5-.2-.8-.8-1-1.2-.3-.6-.2-1.1.3-1.6.3-.3.7-.6.9-1.1.1-.3.2-.5.2-.8s.2-.6.4-.7c.2-.2.5-.3.8-.1.2.1.2.3.3.5.1.4.2.8.2 1.2Z"/><g fill="none" stroke="#000" stroke-linecap="round" stroke-linejoin="round" stroke-width=".2"><path d="M67.6 321.8c-.2-.7 0-1.5.4-2.1M70 321.8c-.2-.7 0-1.5.4-2M69.8 317.4c.5 0 1 0 1.4.1"/></g><path fill="none" stroke="#000" stroke-miterlimit="10" stroke-width=".2" d="M79.8 316.6c0-.7.1-1.3.5-1.8M81.9 316.6c0-.5 0-1.1.3-1.6M82.3 313.3c.7-.1 1.4 0 1.9.5M69.7 306.8c.4-.5.7-1 .8-1.6"/><path fill="#ffd9b2" d="M94.3 302.1c2.4 1.2 5 1.9 7.1 3.6 2.6 2.1 4.5 5.7 4 9.1 0 0-3.1 1.1-2.5 3.7.2.9 3.8 1 6.4 0-.6-6.1 1-15.5-1-17.1-2-1.6-3.4-1.9-4.2-3.8-.8-1.9-.9-3.9-1.2-6-1.1-7.2-6.5-15.3-14.9-13.1-7 1.8-5.2 10.3-2.6 15 2 3.7 5.1 6.9 8.9 8.8Z"/><path fill="#ffd9b2" d="M107.1 308.6c0-.7-.1-1.4-.2-1.9-.4-1.6-1.2-3-2-4.4-.3-.4-.5-.9-.9-1.2-1.3-1.2-1.4.3-2 1.2-.6 1-1.5 1.7-2.6 2 .7.4 1.4.8 2 1.3 1.8 1.5 3.3 3.6 3.8 5.9 1.5 0 1.9-1.6 1.8-3Z"/><g fill="none" stroke="#000" stroke-linecap="round" stroke-linejoin="round" stroke-width=".2"><path d="M103.8 318.9c0-.9.2-1.8.8-2.5M106.4 319.1c-.2-.8 0-1.7.4-2.4M105.4 314.8c.5 0 1 0 1.5.1M99.8 304c.7-.3 1.2-1 1.1-1.7"/></g><path fill="none" stroke="#000" stroke-linecap="round" stroke-linejoin="round" stroke-width=".2" d="M101.9 287.7c-.3-2.5-1.4-4.8-2.9-6.8"/><path fill="#ffd9b2" d="M68.3 261.3c-.2-1.8-1.1-3.4-2.1-5-.2-.3-.3-.5-.5-.8.2-1 .3-1.9.3-2.9 0-1.9-.6-3.8-1.9-5.2-.4-.4-.8-.8-1.3-1.1 0 1.3 0 2.7-.4 3.9 0 .4-.2.7-.3 1.1-.4 1.4-.9 2.7-.8 4.2.1 1.7 1.4 3.1 2.3 4.5l.6 1.2c.4 1.2.3 2.4 0 3.9-1 4-3.6 7.5-7 9.7 3.9-1.4 7.3-4.1 9.5-7.7 1.1-1.8 1.9-3.8 1.7-5.8Z"/><path fill="#dd9861" d="M60.4 243.1c.7.3 1.4.7 2.2.7 1.1 0 2.2-.5 3.1-.1.9.4 1.3 1.4 1.3 2.3 0 .9-.3 1.9-.5 2.8-.2.9-.3 1.9.1 2.8.2.4.6.8.5 1.3 0 .7-1 1-1.7 1-1.8-.2-3.1-1.6-4.1-3.1-1-1.5-1.8-3.2-3.2-4.2-.9-.7-2.4-1.7-1.7-3 .8-1.5 2.7-1 3.9-.4Z"/><path fill="#ffd9b2" d="M58.2 245.5c-.5-.2-.9 0-1.4 0 .4.4.9.8 1.3 1.1.9.7 1.5 1.6 2.2 2.6-.3-.6-.6-1.3-.8-1.9-.3-.7-.5-1.5-1.2-1.8Z"/><path fill="none" stroke="#000" stroke-linecap="round" stroke-linejoin="round" stroke-width=".2" d="M57.5 245.4c.4-.1.8 0 1 .3.3.3.4.6.6 1l1.1 2.5"/><path fill="url(#e)" d="m225.5 146-12.8 19.2-45.2 67.6L99.1 335H0v-93.4c.5-.6 1.1-1.2 1.6-1.7l120.7-74.8 45.2-28 31.4-19.4a70.66 70.66 0 0 0 26.7 28.3Z" opacity=".4"/><path fill="none" d="m1.6 239.9-1.6 1"/><g opacity=".8"><circle cx="218.8" cy="285.4" r="7.2" fill="#924198"/><circle cx="218.8" cy="285.4" r="6.4" fill="#b03f92"/><circle cx="218.8" cy="285.4" r="5.6" fill="#cd3c8e"/><circle cx="218.8" cy="285.4" r="4.8" fill="#ed3a8b"/><circle cx="218.8" cy="285.4" r="3.7" fill="#f075a5"/><circle cx="218.8" cy="285.4" r="2.7" fill="#f4a0bf"/><circle cx="218.8" cy="285.4" r="1.6" fill="#f8cce0"/></g><path fill="#ed3a8b" d="M211.9 263.9H335v35.2H211.9z"/><path fill="url(#f)" d="M167.5 149.1c-3.3 0-6 2.7-6 6s.4 2.5 1.2 3.5l4.8 8.3 4.8-8.3c.7-1 1.2-2.2 1.2-3.5 0-3.3-2.7-6-6-6Zm0 8.7c-1.5 0-2.6-1.2-2.6-2.6s1.2-2.6 2.6-2.6 2.6 1.2 2.6 2.6-1.2 2.6-2.6 2.6Z"/></g></svg>