<svg xmlns="http://www.w3.org/2000/svg" width="335" height="335">
    <g data-name="Layer 1">
        <path d="M289.1 109.1c-.8 1-1.6 1.9-2.5 2.9-2.4 2.7-5.1 5.1-8.4 6.6-4.3 2-8.5 2-12.5-.7-3.9-2.6-6.1-6.3-6.7-10.9-.6-4.6.4-8.9 2.2-13 1.6-3.7 3.9-6.9 6.8-9.7.3-.3.6-.4.9-.7.2 0 .4-.2.6-.3 2.7-1.8 5.4-3.7 8.2-5.4 3.3-2 6.8-3.5 10.7-3.8 4.7-.4 8.8 1 11.8 4.8 1.8 2.2 2.6 4.9 3.2 7.7.6 2.7 1.1 5.5 1.6 8.2.9 5.3 3.2 9.9 7 13.7.6.6 1.3 1.2 2 1.8l-.2.2c-.7.3-1.3.6-2 .9-4.1 1.7-8.2 2.7-12.7 2.1-2.5-.3-4.4-1.5-5.8-3.6-1.4-2.2-2.1-4.6-2.6-7.1s-.9-5.1-1.6-7.6c-1.5-5.4-5.9-7.6-11.6-7.7.2 0 .3.1.4.2 1.3.3 2.5.6 3.8 1.1 2.7.9 4.5 2.8 5.2 5.6.3 1 .5 2 .6 3.1.5 4 .5 8 1.5 11.9Zm-21.8-4.4c-1.5-.7-3.2.4-2.9 2.2-1.3 2.1-.5 4.9 1.8 6.2 1.7 1 3.9.6 5.3-.8 1.5-1.5 1.8-3.7.7-5.6-1-1.8-3.1-2.6-5-2.1Z" fill="#faaf42"/>
        <path d="M225.2 125.6c1.3 1.3 2.6 2.8 4.1 4 5.7 4.8 13.5 4.6 19-.3 0 0 0-.1.1-.1-1-1.1-2-2.2-2.9-3.4-.8-1.1-1.5-2.4-2.2-3.7-.3-.5-.4-1-.5-1.6-.3-2.1.6-3.6 2.7-4 4.3-.8 8.3 0 11.7 2.9 1 .8 1.9 1.8 2.7 2.9 1.3 2 .9 3.6-1.2 4.9-1.8 1-3.7 1.5-5.7 1.9-.9.2-1.7.3-2.6.4.1 3.2 1.5 5.8 4 7.6 5 3.7 10.5 4.4 16.4 2.5.2 0 .5-.2.8-.3-4.2 3.8-8.7 6.7-14.1 7.9-1.6.4-3.2.7-4.8 1-.5 0-.7.3-.9.8-.7 2.5-1.6 4.8-3.2 6.8-2.9 3.6-8.4 4.9-12.3 3-2.3-1.1-3.5-3.5-2.7-5.9.6-1.9 1.6-3.8 2.4-5.7.4-.9.9-1.8 1.3-2.7.2-.4 0-.6-.2-.8-6.3-4.6-9.8-10.9-11.7-18.3Zm22.1-7.5c.2 0 .5.2.7.2 2.7.5 5.3 1.1 7.7 2.4 1 .5 1.9 1.2 2.9 1.8-1.7-2.3-3.9-3.7-6.6-4.4-1.6-.4-3.1-.6-4.7-.1Zm-9.5 18.3c1.1 1.5 1.7 3.1 1.6 4.9 0 1.8-.6 3.5-1.3 5.1l-3 6.3c-.6 1.4-.2 2.9 1 3.9 1.4 1.2 3.1 1.5 4.9 1.4 4-.2 6.7-2.4 8-6.1 1.2-3.2 1.9-6.6 2.8-10 0-.3 0-.7-.1-1-.6-1.3-1.7-2.1-3.1-2.2-.9-.1-1.4.3-1.5 1.2v2.3c0 1.5 0 3-.5 4.4-.6 1.5-1.6 2.6-3.3 3.2.2-.4.3-.6.5-.9.4-.8.9-1.6 1.2-2.5 1-2.5 1.2-5-.7-7.2-1.6-1.9-3.9-2.6-6.4-3ZM252.9 76.4c-3.2-.5-5.3-2.3-6.7-5-1.4-2.6-2-5.4-2.7-8.2-.7-2.8-1.4-5.6-2.2-8.4-.8-2.7-2.2-5.3-4.3-7.3-1.2-1.1-1.9-1-2.5.5-1.1 2.7-2.1 5.4-3.2 8.1-1.9 4.7-3.8 9.4-5.5 14.1-1.5 4.1-2.4 8.4-2.4 12.9 0 1.7.3 3.3.5 5 0 .6.2 1.3.9 1.5.7.2 1.1-.4 1.5-.9 1.3-1.5 2.6-3.1 4-4.6 2.5-2.8 5.9-4.1 9.5-4.8.8-.1 1.7-.3 2.5-.4v.2c-.2.2-.6.4-.9.6-4.5 2.4-8.1 5.7-11.1 9.8-1 1.4-2.2 2.7-3.4 3.8-1.5 1.4-3.1 1.2-4.5-.4-.1-.2-.3-.3-.4-.5-.9-1.5-1.6-3-2-4.7-1.3-6.2-.6-12.2 1.5-18 1.6-4.3 3.4-8.4 5-12.7 1.8-4.8 3.4-9.6 5.1-14.4.2-.6.4-1.1.7-1.7.5-.9 1.2-1.2 2.2-.8 1.6.5 2.8 1.6 4 2.7 2.7 2.5 4.5 5.6 5.6 9.1 1.4 4 2.5 8 3.6 12.1 1 3.6 2 7.2 3.7 10.5.4.7.8 1.4 1.2 2.2Z" fill="#030303"/>
        <path d="M289.1 109.1c-1-3.9-1-7.9-1.5-11.9-.1-1-.4-2.1-.6-3.1-.7-2.8-2.5-4.6-5.2-5.6-1.2-.4-2.5-.7-3.8-1.1-.1 0-.2 0-.4-.2 5.7.1 10.1 2.3 11.6 7.7.7 2.5 1.1 5 1.6 7.6.5 2.5 1.2 5 2.6 7.1 1.4 2.1 3.3 3.3 5.8 3.6 4.5.6 8.6-.5 12.7-2.1.7-.3 1.3-.6 2-.9l.2-.2c-.7-.6-1.4-1.2-2-1.8-3.9-3.8-6.1-8.4-7-13.7-.5-2.7-1-5.5-1.6-8.2-.6-2.8-1.4-5.5-3.2-7.7-3-3.8-7.1-5.1-11.8-4.8-3.9.3-7.4 1.8-10.7 3.8-2.8 1.7-5.5 3.6-8.2 5.4l-.6.3V83c4.2-3.9 8.5-7.6 13.7-10.1 3.1-1.5 6.4-2.6 9.9-2.4 6.4.4 10.9 3.5 13.4 9.5 1.3 3.2 1.8 6.5 2.5 9.8.6 2.9 1.3 5.8 2.1 8.6 1 3.4 3.2 6.1 6 8.2 1 .8 2 1.5 2.9 2.3 1.1 1 1.1 1.6 0 2.6-1.4 1.2-3 2.1-4.7 2.9-5 2.2-10.2 3.2-15.7 2.5-3.2-.4-6.1-1.6-8-4.3-.8-1.2-1.3-2.6-2-3.9Z" fill="#040303"/>
        <path d="M201.4 136.2c-.2.1-.3.3-.5.4-1.8.9-3.5 2-4.9 3.5-3.4 3.6-3.2 7.8.7 10.9 2.4 2 5.2 3.2 8.3 3.7 3.9.6 6.6-1.1 7.9-4.8.9-2.6 1.1-6.4.6-9.9 1.1 2.6 2 5.3 1.9 8.2-.2 3-1.6 5.4-3.3 7.8 4.3.9 8.4-1.6 9.6-5.9.7-2.3.7-4.7.5-7.1-.2-2.2-.6-4.4-.9-6.7v-.7c1.8 3.6 3.2 7.3 3.5 11.4.2 3.1-.4 6-2.2 8.6-1.4 2.1-3.4 3.3-5.8 3.8-2.8.5-5.4 0-8.1-.7-.4-.1-.9-.1-1.3 0-5.8 1.8-11.7-.5-15.1-6-.4-.7-.8-1.3-1.1-2-.2-.6-.5-.8-1.2-.9-4.5-.9-7.6-3.4-8.9-8-1-3.7-.2-7.2 2.1-10.3 4.9-6.5 11.4-8.7 19.2-6.8 3.5.8 6.7 2.3 9.7 4.2 0 0 .1 0 .2.2-1.1-.4-2.3-.9-3.4-1.3-4-1.4-8.1-2.3-12.3-1.5-5.3 1-9.1 3.9-11 8.9-1.5 3.9-.3 7 3.3 9.1.6.3 1.1.6 1.8 1 .4-.8.8-1.6 1.1-2.4 1.9-3.8 5-6.1 9.2-6.8h.5Z" fill="#040404"/>
        <path d="M267.5 159c-.3 0-.5.1-.8.2-2.4.8-4.9 1.6-7.3 2.5-1.7.6-3.2 1.7-4.4 3-1.3 1.5-2 3.3-1.6 5.3.3 1.2.7 2.4 1.2 3.7 2.6-5.3 7-7.1 12.5-7l-.9.3c-2.6.9-5 2-7.1 3.9-2.5 2.4-2.9 5.2-1 8.1 1.7 2.5 3.9 4.4 6.6 5.7 3.6 1.6 6.9.3 8.5-3.4.8-1.9 1.2-3.9 1.2-5.9.5.5.8 2.5.6 4.2-.1 1.5-.5 2.9-1.3 4.1-.8 1.2-1.7 2.4-2.6 3.6 2.5 3.1 7 3.4 9.9.4 3.3-3.4 4.3-7.6 3.2-12.2-.9-3.6-3-6.6-5.5-9.2-1.1-1.2-2.3-2.3-3.5-3.5h-.3c.6.4 1.2.7 1.8 1.1 3.1 2.2 5.9 4.8 7.9 8.1 4.3 6.7 2.4 13.6-.8 17.7-4.3 5.6-12.2 5.7-16.4-.3-.3-.4-.5-.5-1-.5-3.8 0-7.1-1.2-9.7-4-1.6-1.8-2.5-3.9-2.8-6.3 0-.4-.2-.7-.4-1-.9-1.3-1.9-2.4-2.6-3.8-2.3-4.4-1.3-8.6 2.6-11.7 2.2-1.7 4.7-2.6 7.4-2.9 1.9-.3 3.9-.3 5.8-.4h.4v.2Z" fill="#050505"/>
        <path d="M248.7 104.3c-4.9-1.7-9.6-2.1-14.1 1.2v-.2c.8-1.2 1.7-2.4 2.7-3.6.8-.8 1.6-1.6 2.6-2.2 1.4-.9 2.8-.8 4.2 0 1.9 1.1 3.3 2.8 4.5 4.6Z" fill="#060606"/>
        <path d="M270.2 136.1c3.5 0 4.9 2.2 3.5 5.8 0-2.6-1.1-4.6-3.5-5.8Z" fill="#0e0e0e"/>
        <path d="M228.4 124c-2.4-.9-4.5-.1-6.5 1.2.5-1.2 2.4-2.6 3.6-2.7 1.3 0 2.2.6 3 1.5Z" fill="#101010"/>
        <path d="M268.3 132.6c-.5-.3-.6-1-.3-1.5s1-.6 1.5-.3.6 1 .3 1.5-1 .6-1.5.3Z" fill="#0d0d0d"/>
        <path d="M264.4 137.5c-.5-.3-.6-1-.3-1.5s1-.6 1.5-.3.6 1 .3 1.4c-.3.5-1 .7-1.5.3Z" fill="#0a0a0a"/>
        <path d="M262.4 131.3c-.5-.3-.6-1-.3-1.5s1-.6 1.5-.3.6 1 .3 1.5-1 .6-1.5.3Z" fill="#0b0b0b"/>
        <path d="M235.9 119.5c.5.3.6 1 .3 1.5s-1 .6-1.5.3-.6-1-.3-1.5 1-.6 1.5-.3ZM233.4 126.4c-.3.5-1 .7-1.5.4-.5-.3-.7-1-.4-1.5.3-.5 1-.7 1.5-.4.5.3.7 1 .4 1.5Z" fill="#0d0d0d"/>
        <path d="M239.6 124.3c.5.3.6 1 .3 1.5s-1 .6-1.5.3-.6-1-.3-1.5 1-.6 1.5-.3Z" fill="#0e0e0e"/>
        <path fill="#040404" d="M221.3 135.7h-.1v-.1l.1.1zM201.4 136.2v.1-.1z"/>
        <path d="M267.2 104.7c1.9-.5 4 .4 5 2.1 1.1 1.8.8 4-.7 5.6-1.4 1.4-3.6 1.7-5.3.8-2.3-1.3-3.1-4.1-1.8-6.2.7 1.6 2.4 2 3.4.8.8-.9.6-2.1-.5-3Z" fill="#040302"/>
        <path d="M267.2 104.7c1.1.9 1.3 2.1.5 3-1.1 1.2-2.7.9-3.4-.8-.3-1.8 1.4-2.9 2.9-2.2Z" fill="#f9f9f7"/>
        <path d="M237.8 136.4c2.5.5 4.7 1.1 6.4 3 1.9 2.2 1.7 4.7.7 7.2-.3.9-.8 1.7-1.2 2.5-.1.3-.3.5-.5.9 1.7-.6 2.8-1.7 3.3-3.2.5-1.4.5-2.9.5-4.4v-2.3c.1-.9.6-1.3 1.5-1.2 1.4.2 2.5.9 3.1 2.2.1.3.2.7.1 1-.9 3.3-1.6 6.7-2.8 10-1.3 3.6-4 5.9-8 6.1-1.8 0-3.5-.3-4.9-1.4-1.2-1-1.6-2.5-1-3.9.9-2.1 2-4.2 3-6.3.8-1.6 1.3-3.3 1.3-5.1 0-1.8-.5-3.4-1.6-4.9Z" fill="#ed1c24"/>
        <path d="M247.3 118.1c1.6-.4 3.2-.3 4.7.1 2.7.7 4.9 2.1 6.6 4.4-1-.6-1.9-1.3-2.9-1.8-2.4-1.3-5-1.9-7.7-2.4-.3 0-.5-.2-.7-.2ZM247.3 118Z" fill="#eee"/>
        <path d="M107.5 176.7c-9.3-4.3-18.3-9-26.8-14.2L36.8 0h41.4l29.3 176.7ZM174.6 0l-18.1 193.9c-8.4-2.1-16.7-4.6-24.7-7.4L124.8 0h49.8Z" fill="#a34020" opacity=".9"/>
        <path d="M131.8 186.5c-8.3-2.9-16.5-6.2-24.3-9.8L78.2 0h46.6l7 186.5ZM220 0l-44.1 198c-6.5-1.1-13-2.5-19.3-4.1L174.6 0h45.3Z" fill="#bf4d2e" opacity=".9"/>
        <path d="m272.4 0-73.9 201.1c-7.7-.7-15.2-1.8-22.7-3.1L220 0h52.5Z" fill="#a34020" opacity=".9"/>
        <path d="M322 0 218.2 202.4c-6.6-.2-13.2-.6-19.6-1.3L272.4 0h49.5Z" fill="#bf4d2e" opacity=".9"/>
        <path d="M335 0v71.7L245.2 202c-5.9.3-11.8.5-17.7.5s-6.3 0-9.4-.1L322 0h13Z" fill="#a34020" opacity=".9"/>
        <path d="M335 71.7v53.9l-64.5 73.8c-8.3 1.2-16.7 2.1-25.2 2.6l89.8-130.3Z" fill="#bf4d2e"/>
        <path d="M335 125.6v34.1l-43.7 35.9c-6.8 1.5-13.8 2.8-20.8 3.8l64.5-73.8Z" fill="#a34020" opacity=".9"/>
        <path d="M335 159.7v22.4c-1.8.7-3.7 1.5-5.6 2.2-12.3 4.6-25 8.4-38.1 11.3l43.7-35.9ZM80.6 162.5c-1.6-1-3.2-1.9-4.8-2.9-13-8.3-25.1-17.6-36.1-27.8L0 34.3V0h36.8l43.8 162.5Z" fill="#bf4d2e" opacity=".9"/>
        <path d="M39.7 131.8C24.2 117.4 10.8 101.1 0 83.5V34.3l39.7 97.5Z" fill="#a34020" opacity=".9"/>
        <path d="M69.1 153.6c10.9 8.5 23.6 9.1 27.9 9.1 11.6 0 20-4.4 23.6-6.3 9.8-5.3 15.7-12.3 18.5-16.3 2-4.5 5-13 4.3-23.9-.3-4.2-.8-19.4-12.9-31.1-10.2-9.8-27.7-15.6-40.7-14.2C65.6 73.6 56 96.6 55.3 98.2c-8.5 19.9-1.6 43.5 13.8 55.4Z" fill="#ed1c24"/>
        <path d="m110.8 39.9-16.5-4-13.8-19.7S86 12.5 91.8 14c5.8 1.5 11.6 9 12.9 12.2 1.4 3.2 6.3 11.6 6.3 11.6l-.2 2ZM40 52.4s3.6-4.2 2.7-8.1c-.9-3.9-3.7-11.7-3-13.3.8-1.6 3-4.9 4.2-5.5 1.2-.7 3-3.3-4.1-5.4-7.1-2.1-13.5 3.3-15.7 10.3-2.2 7 3.6 14.3 4 14.7.4.3 11.8 7.3 11.8 7.3Z" fill="#3a271d"/>
        <path d="M3.5 130.2c-2 1.3-5.6 5.8-2 11.2 3.5 5.4 6.7 7.4 9 8.2 2.3.8 4.2.3 4.2.3s1.5 5.7 5.4 7.8c4 2.1 12.9 6.1 22.1 4.4 9.2-1.7 22.8-1 23.8-.9 1 0 6.2.9 6.2.9s16 2 17.6.4c1.6-1.6 5.2-4.8-1.4-7.7-6.6-3-11.2 0-12.9-.5s-4.2-1.3-5.2-5.6-6.7-15.5-10.6-18.4c-3.9-2.9-7.3-5.1-7.3-5.1l-.4-5.5s11.2 2 12 2.1c.8.1 12.2.3 12.2.3s7.5 5.2 10.5 3.9c3-1.3 5.3-7.9 3-9.4s-6.1-.6-7.8-1.3c-1.7-.7-4.8 0-4.8 0s-16.3-8.8-18.4-10.7c-2.1-2-4.6-3.6-4.6-3.6s5.5-12.6 12-17.8c6.5-5.3 10.6-8.2 10.6-8.2s-19 2-23.3.9c-4.3-1.1-15.2-3.1-15.2-3.1s-4.3-.4-5.4 1.6c-1.1 2-2.6 3.4-2.4 4.3.1.9 1.3 4.9 1.3 4.9S23 90 19.9 95.1c-3.1 5.1-6.9 13.1-6.6 17 .3 3.8-.3 28.7-.3 28.7l-2.4-1s2.8-4.1-.2-6.8c-3.1-2.7-6.7-2.9-6.7-2.9Z" fill="#ea9e2f"/>
        <path d="m90.1 70.3 11.2-5.2s3.9.4 5.5 3.2c1.7 2.8 3.2 4.9 3.2 4.9s-14.9-3.8-19.9-2.9Z" fill="#82512a"/>
        <path d="M32.9 65.1s-3.4-3.7-2.5-7.6c.9-3.9 1.7-3.9 1.8-4.8 0-.8.9-3.4.9-3.4l7 3.1s2.3-4.1 2.5-5.6c.2-1.5-.3-5.5-.6-6.4-.3-.9-2.4-6-2.3-7.2 0-1.2 2-3.3 2.6-4.7.6-1.3 4.5-3.2 2.8-5.4-1.7-2.2-2.8-3.1-2.8-3.1s16.4-3.4 20.3-3.8c3.9-.3 17.3-1.7 17.3-1.7s5 2.3 8.1 6.7c3.1 4.4 7 12.3 7 12.3s5.3 11 5.7 13.2c.5 2.2 1.3 7.1 1.3 7.1s.4 3.3-3.3 5.1C95 60.7 60.9 76.3 33 65Z" fill="#ea9e2f"/>
        <path d="M133.8 109.2c.5 2.1 3.5 3 5.7 2.3 2.2-.8 3.7-5.5 3.7-5.5l-2.3-6.2-4.2-3.1 2.5 4.5s-6.6 2.1-5.3 8.1Z" fill="#82512a"/>
        <path d="m35.5 66.6-1.5-.5s-2.8 5.5 2.3 7.2c5.1 1.7 27.8 2.8 28.5 3 .7.1 30.1-7.1 30.1-7.1l6.4-4.1s.5-1.1.6-3.5c0-2.4-1.3-3.7-1.3-3.7s-23.7 15-65 8.7Z" fill="#c23007"/>
        <path d="M69.6 31.2s-2.1 7.4-5.8 9.2c-3.7 1.8-10.4 5.8-11.2 7.2-.8 1.5-.7 15.3 6.8 15.4 7.5.1 9.3-3 9.3-3s1.7 5.7 10.9 2.8c9.2-2.9 6.7-9.3 6.7-9.3s15.1.7 12.2-8.7c-2.8-9.4-5.6-9.2-9.5-10.1-3.9-.9-7 1-8.9-.1-1.9-1.2-7-2-7.6-3.2-.6-1.2-3-.2-3-.2Z" fill="#3a271d"/>
        <path d="m73 40.4-4 1.1s-1.5-.2-1-2.2c.4-2 1.4-3.7 3.5-4.5 2.1-.8 4.2-1.3 5.8-.8 1.7.5 3.7 1.8 3.7 2.6s-.6 2.9-1.6 2.5c-.9-.3-1.5-.4-1.5-.4s1.1 1.7-1.9 2.4-3.2.4-3.1-.7Z" fill="#121110"/>
        <path d="M68.9 59.3s1.5 5 5.2 3.8c3.8-1.2 3.3-4.9 3-6.7-.3-1.8-.8-3.2-.8-4.2s.5-3.3.5-3.3-4.9 3.6-6 6.3c-1.1 2.7-2 4.1-2 4.1Z" fill="#ff814c"/>
        <g fill="#3a271d">
            <path d="M58.8 36.5c.3 2.4-1.6 4.5-4.2 4.8-2.6.3-4.9-1.4-5.1-3.7-.3-2.4 1.6-4.5 4.2-4.8 2.6-.3 4.9 1.4 5.1 3.7ZM86.6 27.4c-2.6.3-4.4 2.5-4.2 4.8.1 1.1.7 2 1.5 2.7.9-.1 1.8-.3 2.7-.4 1.4-.4 2.9-.6 3.8.1 1-.9 1.5-2.2 1.4-3.5-.3-2.4-2.6-4.1-5.1-3.7Z"/>
        </g>
        <path d="M72.5 82.5c1.5 1.4 4.1.8 5.9.6s4.1-.9 6.1-1.3 2-.3.8-.1l2.4-.3c.8-.1.6 0 .8-.1.6-.1-.3 0-.3 0 .5-.2 1.3-.1 1.9-.2 2.1-.2 4.2-.2 6.3 0s2 .2 2.9.3 1 .2 1.5.2c-1.1.1-.8-.1-.3 0s.7.1 1 .2c1.9.3 3.9.8 5.7 1.5s1.8.8 2.8 1-1.1-.5-.5-.2.5.2.7.3c.5.2.9.4 1.4.7 1.8.9 3.6 1.9 5.3 3s1.7 1.2 2.6 1.8-.1-.1-.3-.2c.6.4 1.1.9 1.6 1.3s.8.6 1.3.9.4.3.6.4c.1 0 .2.2.3.2.3.2.2.2-.3-.3 0 .2 1 .9 1.2 1 1.3 1 2.7 2.1 4.3 2.5 2.6.6 5.3-1.2 5.3-4s-2-5.5-3.8-7.8-2.8-3.1-4.6-4.5c-4-3.1-8.3-5.4-13.2-7.1s-9.4-2.6-14.1-2.5-10.1.7-14.7 2.6-5.6 2.3-7.8 4.2-2 1.9-2.6 3.1-1.1 2.3-.2 3.1Z" fill="red"/>
        <path d="M29.3 87.4c-2.4.8-4.5 2.1-6.3 3.9s-3 4-4 6.2-2 5-2.4 7.7-.5 2.8-.6 4.3-.3 2.8.3 4.2 2 1.1 2.8.4 1.2-2.2 1.6-3.3.8-2.3 1.2-3.4c.8-2.2 1.5-4.4 2.5-6.4 1.8-3.8 4-6.8 7.1-9.6s0-4.6-2.3-3.9ZM15.2 116.9c-.2.4-.3.7-.5 1.1-.2.3-.2.6-.2.9 0 .2 0 .5.1.7 0 .2.2.4.4.6.2.2.5.4.8.4l-.4-.2h.1l-.5-.5v.3c.3.4.8.6 1.2.6.2 0 .4 0 .6-.2.2-.1.3-.3.4-.4l.2-.3-.8.6h.1c.2 0 .4-.2.6-.3.2-.1.3-.3.4-.5.2-.4.3-.9.2-1.3l-.3-1.2c-.1-.4-.2-.4-.3-.6s-.5-.3-.7-.3h-.7c-.3 0-.5.3-.6.5ZM34.6 130.7c2.1.9 4.2-.1 6.3-.6s3.6-.6 5.4-.2 3.9 1.2 5.8 1.9 4.5 1.9 6.1.7.8-1 .7-1.7c-.4-2.2-3.7-3.1-5.5-3.9s-4.1-1.8-6.3-2.3-4.7-.5-7.1.1-5.2 1.4-6.1 3.5-.3 2.1.7 2.5ZM35.1 75.9h-.7c-.6 0-1.1.2-1.5.7s-.4.5-.6.8c-.3.4-.5 1-.6 1.5s-.1.4-.2.5c-.3 1.1.2 2.1 1.1 2.7l-.4-.3-.6-1.5c0 .5.1 1 .2 1.5.2.8.8 1.5 1.6 1.6s1.8-.6 2-1.5.2-.7.3-1.1l-1 1.3-.5.2c.4-.1.8-.3 1.1-.7.5-.5.6-1 .7-1.7s0-.5 0-.7v.6c0-.9.4-1.9 0-2.8s-.2-.4-.3-.6c-.2-.3-.3-.6-.7-.6ZM49.9 104c2.5 2.2 4.8 4.7 7.3 7s2.7 2.4 4.3 3.1 1.7.8 2.6 1.1 2.1.4 2.8 0 .6-.6.5-.9c-.2-1.7-2.3-2.8-3.6-3.7s-2.8-1.7-4.1-2.8-1.3-1.1-1.9-1.6-1.5-1-2.4-1.4c-1.6-.8-3.2-1.2-5-1.5s-.9.5-.5.9ZM4.1 140.7c.1.3.3.5.5.7.3.3.8.6 1.2.7s.6 0 .9.1c.8 0 1.4-.2 2.1-.6s.9-.6 1.2-.9.5-.5.7-.8.2-.3.2-.4l.3-.6c.1-.3.1-.7 0-1 0-.2 0-.4-.2-.6-.1-.3-.3-.6-.5-.8h-.1l.5.7v-.1c-.2-.5-.5-.9-1-1.2s-1.1-.2-1.6 0 0 0-.1 0l1.5-.2h-.2c-.9-.3-1.8 0-2.5.6s-.2.2-.3.3l.5-.4c-.3.2-.6.5-.9.7l.5-.4c-.2.2-.5.3-.8.5l.6-.3c-.1 0-.2 0-.3.1-.3.1-.6.2-.9.4s-.2 0-.3.1c-.2.1-.4.3-.5.4-.3.3-.5.7-.6 1.1l.2-.6s0 .2-.1.3c0 .2-.1.3-.1.5v.6c0 .3 0 .5.3.8ZM21.3 155.3c0 .3 0 .6.2.9s.3.5.4.7l-.3-1c-.1 1.3 1.4 2.3 2.3 3.1s1.9 1 2.9 1.3 2.3.6 3.4.4c1.6-.2 3.4-.6 3.8-2.4l-.9 1.2c.8-.5 1.9-1.2 1.7-2.3s-.5-.9-1-1.1-.6-.1-.9-.2h-.3l1.2.9c-.4-.6-.9-1.1-1.6-1.3s-.7 0-1-.1h-.3.2-.5c-.6 0-1.2 0-1.8-.1s-.4 0-.6 0h.3-.3c-.8-.1-1.6-.4-2.4-.5s-2.1-.8-3.3-.2l1.5-.2c-.6-.2-1.1-.3-1.7-.1h.7-.5c-.8-.2-1.6.5-1.3 1.3ZM137.7 102.6c-.2.3-.2.6-.3.8v1.5-.6 1.7c0 .4 0 .7.2 1.1s0 .2 0 .3c.1.4.3.7.6 1.1l.4.3c.2.2.5.2.8.3.4 0 1 0 1.4-.3s.7-.5.8-.9.2-.4.3-.7.1-.3.2-.4c.1-.5 0-1 0-1.5V104.4c0-.2-.2-.4-.3-.7 0-.1-.1-.3-.2-.4s-.1-.3-.2-.4 0-.1-.1-.2c-.2-.4-.5-.6-.8-.9s-1.1-.4-1.6-.2-1 .5-1.2 1ZM76.6 118.6c.8.7 1.8 1.1 2.8 1.1h1.7c.6 0 1.4-.2 2.2-.4s.4-.1.6-.2c.6-.2 1-.5 1.5-.8l-.5.4c.5-.2-.4.1 0 0s.2 0 .3 0c.3 0 .6-.3.8-.4.6-.3.7-1 .7-1.6-.1-1-.9-1.6-1.7-2.1l.5.4c-.4-.4-.9-.7-1.5-.8s-.8-.1-1.2-.2h-2.2c-.7 0-1.1.2-1.6.2-1 .2-1.9.9-2.5 1.7s-.3 1-.3 1.5.3 1 .6 1.3ZM85.4 120.1h.2c.1 0 0 0 0 0h.4c.2 0 .5 0 .7.1s.3-.2.1-.3c-.5-.2-1.1-.4-1.6-.3s-.3.1-.3.3.2.3.4.2ZM82.7 124.6c.4.1.7.2 1.1.3s.6 0 .8 0 .7-.1 1-.4l.1-.1c.1-.2.2-.3.3-.5s0-.4-.1-.6 0-.1 0-.2c0 0-.1-.2-.2-.3-.2-.2-.4-.3-.6-.3s-.5-.2-.8-.2h-1.1c-.4 0-.6.1-.8.3s-.3.4-.3.7 0 .5.1.7.4.4.7.5ZM34.2 51.3c-.5 0-1 .2-1.5.4s-.6.5-.9.8-.5.6-.8 1-.4.8-.5 1.3c-.4 1.1-.7 2.4-.7 3.6s0 2.3.4 3.3.4 1.2.7 1.7.3.5.5.7c.6.7 1.4 1.1 2.3 1.1l-1.4-.4c-.4-.3-.4-.3-.2-.2.2.2.4.3.6.5.2.1.3.2.5.3 1.1.5 2.4.4 3.2-.6s.7-2.4-.2-3.3l-.3-.3.2.3c-.1-.2-.1-.1 0 .3v1.4c.3-.8 0-1.5-.3-2.3s.2.7 0 .2-.2-.6-.2-1v.8-1.2.8c0-.9 0-1.8.2-2.7v.8c0-.7 0-1.4.1-2.1v.8c0-.8.3-1.6.3-2.4V54.3c0-.2 0-.2 0 0v-.7c0-.5-.1-.9-.4-1.3-.4-.6-1.2-1.3-2-1.2ZM47.5 20.8c.4.6 1.1.7 1.7.9s1.6.2 2.4.2c1.6 0 3.2-.2 4.7-.5s1.4-.3 2.1-.5 1.4-.6 2.1-.5 1 .2 1.4.5.7.8 1.1 1.1.8 0 1-.3c.8-1.3-.6-2.7-1.6-3.3s-3.4-.8-4.9-.6-3.5.6-5.3.9-1.8.2-2.6.4-1.7.4-2.1 1.1-.1.5 0 .7ZM69.1 17.9c1.5-.3 3.1-.3 4.7-.2s.3 0 .5 0H76.1c1 0 2.3.2 3-.7l-.6.3h.1c.9-.4 1.2-1.4.5-2.1H79l.3.5c-.4-1.4-1.9-1.7-3.2-1.9s-.9-.1-1.4-.1-1.1.1-1.6.2c-1.8.3-3.5.9-5.1 1.7s-.7.9-.5 1.4.8.8 1.3.7ZM48 33.4c.8-.1 1.4-.2 2.2-.5s1-.4 1.5-.7.8-.5 1.2-.7.5-.2.7-.3.9-.4.3-.1c.9-.4 1.9-.7 2.8-1s1-.3 1.5-.5.7-.3 1.1-.4c.2 0 .2-.1 0 0 .1 0 .2-.1.4-.2.8-.3 1.5-1 1.4-1.9s-.6-1.7-1.4-1.9-1.3-.3-2-.2-1.4.2-2 .3c-1.1.2-2.2.5-3.3.9s-2.4 1-3.4 1.6-1.1.8-1.6 1.3-.9 1.3-1.2 2 .6 2.4 1.7 2.3ZM78.6 25.2c.2 0 .3-.1.5-.2s.2 0 .3 0c-.2 0 0 0 0 0 .2 0-.2 0 0 0h.2c.2 0 .4 0 .5.1s.2 0 .2 0c.2 0-.4-.2-.1 0s.6.3.9.3.8.2 1.1.4l-.5-.2c.4.2.9.3 1.3.5s.6.2.9.3c.4.2 1.2 0 1.5-.2s.6-.5.8-1c.4-1 0-1.9-.8-2.5s-1.3-.8-2-1-1.9-.3-2.7 0-1.2.5-1.8.8-.3.2-.4.3c0 0-.3.2-.2.1s0 0-.1 0c-.3.2-.6.4-.8.6-.7.6 0 1.8.9 1.5ZM55.8 42.6c-.4-.2-.7-.3-1.1-.4s-.5-.2-.8-.2-.7 0-1 .1c-1 .2-1.9.5-2.7 1.2s-.7.7-.9 1.1-.5.8-.6 1.3-.2.9-.1 1.4 0 .6.1.9c.2.6.7 1.3 1.4 1.5l-.4-.2-.4-.3c.1.1.3.3.5.4.4.2.9.3 1.3.2s.7-.4 1-.8 0-.1 0-.2l-.3.4-.8.4c.7-.2 1.3-.8 1.4-1.5s0-.3.1-.5l-.2.5c.2-.4.4-.8.7-1.1l-.4.5.6-.6-.5.4c.3-.2.5-.4.8-.6s.2-.2.4-.3l-.4.3c.4-.3.8-.5 1.2-.7s.8-.8 1.2-1.2.4-.6.3-1-.2-.8-.6-.9ZM82.2 50.6s.3-.5 0-.2-.3.5-.3.7c-.1.6 0 1.1 0 1.7v-.7c0 .8 0 1.5.1 2.3v-.7 2.2-.6c0 1-.3 2 .6 2.7l-.5-1.3c0 .5 0 1 .4 1.4.2.3.2.2 0-.1 0 0 0 .1 0 0v.2c-.1.3 0 .6.3.8s.6 0 .9-.1l.2-.2c-.1 0-.1 0 0 0 .7 0 1-.4 1.5-.8l-1.3.5c1.5.1 2.1-1.3 2.5-2.4s.4-1 .5-1.6.2-.9.2-1.3-.1-.9-.2-1.4-.2-.9-.4-1.3-.8-.8-1.3-1.1-1.3-.4-1.9-.1-1 .7-1.2 1.4ZM85.5 37.7h2.4c.8 0 1.4 0 2.1.1s1.1.3 1.6.5.4.3.6.4.2.2.4.3c.3.2.5.3.9.3h-.4c.4.1.8.7 1.3.3s0-1.1-.2-1.5v.4c.2-.9-.8-1.5-1.5-1.9s-1.4-.7-2.1-.9-1.8-.4-2.8-.2-1.7.3-2.6.6-.6 1.4.2 1.5Z" fill="#a96433" opacity=".4"/>
        <path d="M55.9 50.2c.4-.2-.4.2 0 0s.7-.4 1.1-.7.2-.2.3-.2c.2-.2.4-.5.6-.8l-.4.5c.3-.4.8-.8 1.2-1.2s.9-1.1 1.3-1.6.3-.5.4-.8c0-.1 0-.1 0 0l.2-.2.3-.3c.2-.2.4-.3.6-.5s.4-.2.5-.3c.2-.2.3-.5.3-.8l-.2.6s.2-.2.3-.2c.4-.4.1-1.3-.5-1.2s-.2 0-.3 0h.4c-.4-.1-.7-.1-1.1 0s-.4.2-.5.2-1.2.4-1.2.4.3 0 0 0h-.3c-.3 0-.7 0-1 .1-.5.1-1 .3-1.5.6-.9.5-1.6 1.3-2.2 2.2s-.9 2.5-.1 3.6 1.3 1 2.1.6ZM57.5 59.7c0 .3 0 .5.1.8 0 .4.3.7.7 1s.8.6 1.3.8 1.1.2 1.7 0 .6-.3.9-.5.3-.5 0-.7-.1 0-.1-.1c0 0 0 .1 0 0s-.1-.2-.2-.3c-.1-.2-.3-.4-.4-.6s-.1-.1-.2-.2-.3-.3-.5-.4l.3.2-.6-.6c-.2-.2-.6-.5-.9-.6s-.2 0-.3-.1c-.4-.2-.8 0-1.1.2s-.5.6-.5 1ZM88.4 49.6c.3.1.6.2.8.3s.4 0 .6 0c.3 0 .6-.1.8-.2.4-.2.8-.4 1-.8s.3-.7.1-1-.2-.3-.4-.4-.3-.1-.5-.1-.3 0-.5.1h.2c-.2 0-.4 0-.5.1s-.3.3-.5.4l.2-.2c-.1 0-.3.2-.4.3s-.2.1-.3.2 0 .1-.1.1 0 0-.1.1c0 0 .2-.1 0 0H88.5c-.2 0-.3.2-.4.4s0 .4.2.5ZM70.5 37c.9-.4 2-.6 3-.7s.9-.1 1.4-.1 1.2 0 1.7-.1.7-1.3 0-1.5-1.2-.2-1.8-.1-1.2 0-1.8.2c-1.2.2-2.2.8-3.1 1.7s.1 1 .6.8ZM72.5 37.5v.2c0 .1 0 .2.1.4l.2.4v-.2.3c0 .1 0 .1.1.2 0 .1.1.3.2.4V39c0 .2 0 .3.1.5v-.2c0 .2 0 .3.1.5s.1.2.2.2c.1.2.2.3.4.4h.2c.2.1.4 0 .6 0 0 0-.1 0 0 0 .2 0 .3-.3.4-.5s0-.4 0-.6c0-.4-.2-.8-.4-1.1s-.5-.6-.8-.8-.9-.4-1.3 0h.1c-.1 0-.2 0-.2.2ZM76.4 36.6c-.2.1-.3.5-.3.7v.9c0 .1.1.3.2.4 0 .2.2.4.3.5s.3.2.4.2h.5-.4c.1 0 .2.1.3.1.2 0 .5-.2.5-.5v-.2c0-.1 0 .2 0 0l-.2.4c.2-.2.3-.6.1-.9s-.2-.3-.2-.5v.2c0-.2 0-.3-.1-.5s-.1-.2-.2-.3 0 0 0-.1-.2-.3 0 0c0 0 0-.1-.1-.2-.1-.2-.4-.2-.6 0ZM74.6 49.6h.4c.1-.2.3-.2.4-.3l.9-.3c.6-.2 1.1-.4 1.5-.8.9-.9 1-2.4.4-3.4s-.5-.4-.8-.3h-.2s-.3.1 0 0c-.3.1-.4.5-.3.8s.1.4.2.7 0 .1 0 .2c0-.1 0 0 0 0v.3c0 .2 0 0 0 0v.5l-.1.1c-.1.1-.1.1 0 0h-.1c-.1 0-.2.1-.3.2-.2.1-.4.3-.6.4s-.5.3-.7.4-.3.1-.4.2h-.3v.1c-.4 0-.7.5-.5.8s.7.3.9 0ZM75 50.8c-.7.7-1 1.5-1.1 2.5s.2 1.9.2 2.9.1 2 0 3 0 .2 0 .1v.1c0-.1 0 0 0 0 .1 0 0 0 0 0-.4.2-.8.5-1.2.8-.6.6-.3 1.6.5 1.9 1.2.4 2.5-.1 3.1-1.2s.5-2.4.3-3.5-.3-2.2-.6-3.3-.5-1.9-.3-2.8-.6-1.1-1-.6Z" fill="#a96433" opacity=".4"/>
        <path d="M56 53.8c-1.6.9-1 4.3-.8 5.7s.6 3.5 1.9 4.8c2.9 2.7 7.8 1.1 10.7-.8s2.9-2.4 3.8-4.1 1.3-3.1 2.2-4.6c1.7-2.9 5.6-3.2 7.2-6.3h-2.9c1.1 1.5 2.4 1.7 4.2 1.8s1.7.4 2.6.7 1.8.4 2.6.6c3.3.7 6.3-1.6 6.4-4.9s-2.8-1.8-2.8 0-2.8 3.6-4.7 2-1.6-1.2-2.7-1.4-2.5.2-2.8-.3c-.7-1-2.2-1.1-2.9 0s-1.8 1.6-2.9 2.2-2.4 1.4-3.3 2.5c-1.8 2.2-2.2 5.3-4.1 7.4S65.4 61 64 61.5s-3.1 1.3-4.6.7-1.6-2.7-1.8-4.1-.1-3.6-1.3-4.3-.3 0-.5 0ZM74.5 64.5c.9.9 2.4.6 3.6.5s2.2-.5 3.2-1 1.8-1 2.4-1.7.7-.8.9-1.3c.4-.7.5-1.3.1-2s-1-.6-1.5-.4c.3-.1-.1 0-.2 0-.2.1-.3.3-.4.4s-.2.4-.3.6-.2.4-.3.5c0-.1-.2.2-.2.3l-.4.4-.1.1c.1-.1-.1 0-.1.1-.4.3-.8.5-1.2.7s-.2 0-.4.2-.4.1-.7.2c-.4.1-.9.2-1.3.3s-.8.2-1.2.2c-.5 0-1.1.1-1.6.4s-.6 1-.2 1.5Z" fill="#a96433" opacity=".4"/>
        <path d="M33.6 72.5c4.1 2 8.8 3 13.2 3.7s9.5.8 14.2.5 9.6-.9 14.4-1.7 9.3-1.6 13.8-2.9 4.6-1.5 6.7-2.6 4.3-2.8 6.3-4.3.3-4.4-1.9-3.3-3.5 2.4-5.3 3.5-3.7 1.9-5.6 2.5c-4.1 1.3-8.4 2-12.7 2.9-8.9 1.7-18 2.8-27.1 2.1s-5.1-.4-7.6-.9-4.9-1.2-7.4-1.9-2.4 1.7-1 2.4Z" fill="#a96433" opacity=".4"/>
        <path d="M33.7 73.9c.8 1.4 2.7 1.7 4.2 2.2s3.6 1 5.5 1.3c3.7.8 7.5 1.3 11.3 1.5s7.5.2 11.2-.2 3.7-.4 5.5-.7 4-.5 5.7-1.1 1.4-3.1-.4-2.9-3.5.6-5.3.9-3.6.5-5.4.6c-3.6.3-7.2.4-10.8.2s-7.2-.5-10.7-1.2-3.4-.7-5.1-1-3.4-1.1-5-1-1.2.8-.8 1.4ZM91.8 71.1c1.7 1.1 3.9-.4 5.4-1.3s1.7-1 2.5-1.5.9-.6 1.3-.8 1.1-.7 1.3-1.4-.2-1.4-.9-1.5-1.2.1-1.8.5l-1.2.8c-.8.5-1.5 1-2.3 1.5s-1.4.9-2.1 1.3-1.4.5-2.2.9-.6 1.3 0 1.6ZM32.4 50.2c.6 1.6 2.4 2.5 3.8 3.5s3 2.6 4.6 2.2 1.9-2 2.4-3.2 1.1-3.2 1.4-4.9c.7-3.5.4-6.8-.2-10.3s-1-6.8.1-10.2-2.1-2.8-2.8-1.2c-2.5 5.8.5 11.8.3 17.8s-.9 5.8-2.1 8.4-.7.8.2.5.2-.4-.3-.7-1.4-.9-2-1.4c-1.2-.8-2.6-1.9-4.1-1.9s-1.4.8-1.1 1.5Z" fill="#a96433" opacity=".4"/>
        <path d="M42.3 26.6c-2.4.7-3 4.1-3 6.2s.7 5.3 1.9 7.6 1.4.9 2.1.5.9-1.3.5-2.1c-.9-1.8-1.4-3.9-1.5-5.9s0-1.7.3-2.6.8-1.6 1-2.5-.5-1.5-1.3-1.3ZM51.3 40.4c-.1-.1-.4-.6-.5-.9 0-.2 0-.2 0 0 0-.1 0-.2-.1-.3 0-.2 0-.3-.1-.5 0-.2 0-.2 0 0v-2c.1-.8.4-1.4.9-2s1.4-.8 2.2-.9 1.7-.3 2.5 0 1.3.7 1.6 1.1c.6.7.9 1.6 1 2.5V38.3c0-.1 0-.2.2-.3 0 .2-.4.5-.5.6-.7 1 .2 2.5 1.4 2.4 2.9-.2 2.5-3.8 1.8-5.7s-2.3-3.9-4.6-4.5-2.3-.2-3.5 0-2 .5-2.9.9c-1.9 1-3 2.9-3.3 5s.3 5.1 2.7 5.9 1.2-.1 1.5-.6.2-1.1-.2-1.6ZM83.5 34c-1-.9-2.2-1.5-3.2-2.4l-1.2 2c.8.2 1.6.5 2.2 1s1.3.1 1.6-.3.4-1.2 0-1.7-1-.9-1.6-1.3-1-.8-1.5-1.1c-.8-.5-1.8.2-1.8 1.1s.4 1.9 1.1 2.5 1.6 1 2.5 1.4 1.2 0 1.5-.5.4-1.1.1-1.6-.8-1-1.3-1.4-.4-.3-.6-.4-.3-.3-.2-.1-.1-.1-.2-.1l-.1-.1c.1.1.1.2 0 0v-.1c0-.1 0-.1 0 0v-.4c0 .2 0-.1.1-.2-.1.2.1-.1.1-.2l.3-.3c-.2.1.2 0 .2-.1 1.1-.7 1.9-1 3.2-1.3s0 0 .2 0h1.7c-.1 0-.1 0 0 0h.4c.1 0 .3 0 .4.1s.5.2.3.1l1.1-2.6c-2.5-.5-5.2-.4-7.2 1.4s-2.2 4.7-.5 6.7l2.1-2.1c-.3-.3-.5-.6-.8-.9s-.6-.7-.7-.8c.1.2-.3-.4 0-.1 0-.2 0-.2 0 0V30.5c.1-.1.1-.1 0 0-.1 0-.1 0 0 0-.2 0-.2 0 0 0l-1-2.4c-.9 1.2-1.3 2.6-.6 4.1s1 .8 1.6.6 1.1-.7 1-1.3 0-.7 0-1.1c0 .3 0-.2.1-.3-.1.2.2-.2.2-.3.7-.9-.3-2.1-1.2-2.1-1.6 0-3 1.4-2.8 3s1.4 2.5 2.4 3.5 1.6.6 2.1 0 .5-1.5 0-2.1c.2.2 0-.2-.1-.2 0-.1 0-.1 0 0v-1.3c0-.1 0-.2 0 0 0 0 0-.2.1-.2s0-.2.2-.2c0 .1 0 0 0 0 .1-.2.3-.3.4-.4s-.2.1 0 0 .2-.1.2-.2c.2 0 .3-.2.5-.3s-.2 0 0 0h.3c.2 0 .5-.1.7-.2.7-.1 1.7 0 2.5.2s1.4-.1 1.7-.8 0-1.5-.6-1.8c-3-1.3-6.7-.9-9.4 1s-2.6 3-1.7 4.9.9 1.1 1.5 1.6.2.2.3.2.4.3.1 0c.1 0 .2.2.3.3l.2.2c-.1-.1-.1-.2 0 0l1.6-2.1c-.6-.1-.9-.3-1.4-.5s-.5-.4-.5-.6l-1.8 1.1c.4.3.9.5 1.3.9s.8.8 1.3 1.2l1.5-2c-.8-.6-1.9-.9-2.9-1.2s-1.1 0-1.4.6-.2 1.1.2 1.5c.6.5 1.3 1 2 1.4s1.5.6 2.3.7 1.1-1 .6-1.5ZM43.8 115.3c.1.4.2.8.4 1.1s.4.6.6 1l1.2 2.1c.4.7 0 .2.1.3s.1.2 0 .2 0 .2 0 .2v.3c.2.4.3.8.4 1.2.3.8.4 1.6.6 2.4l2.9-.8c-.3-1.1-.7-2.2-1.1-3.3s-.5-1.2-.8-1.8-.6-1-.8-1.5l-2 2c.2.2.5.3.7.5h.1c.1 0 .2.2.3.3l.6.6.3.3c-.2-.2 0 0 0 .1l2.7-2.1c-.5-.4-.9-.9-1.4-1.3l-2.1 2.7c.5.3.9.6 1.4.8s.2.1.3.2c.2.1-.4-.2 0 0 0 0-.1 0-.2-.2 0-.1 0-.1 0 0v-.1c.2 1.1.1 2.2.2 3.2l2.5-1.9c-.5-.2-1-.4-1.5-.5l1.4 2.4c.5-1.2.3-2.6-.2-3.8s-2.2-3-3.8-2.3-1.5 1.7-.9 2.7.4.5.8.8c0 0 .1 0 .2.1l-.2-.2s.2.1.2.2c0 0 0 .1.1.2-.2-.2-.2-.3-.1-.2 0 0 .1.2.2.3v.1-.2c0 .2.1.5.2.6-.1-.4 0-.3 0 0v.3-.2c0 .3-.2.7 0 .1-.3.6-.4 1.1 0 1.8s.7 1 1.3 1.1 1 .3 1.6.4 1.4 0 1.9-.5.6-1.2.5-1.9-.2-1.3-.3-1.9-.2-1.3-.4-1.9c-.6-1.3-1.9-1.9-3.1-2.6s-1.7-.2-2.3.5-.5 1.7.1 2.3 1 .9 1.4 1.3c.8.7 1.9.7 2.6-.2s.4-1.9-.5-2.5-1-.7-1.5-1-1-.7-1.5-1c-1.2-.7-2.7.7-2 2s.2.5.4.7.1.3.2.4v.2c.1.3.3.6.4.9s.1.3 0 .1c0 .1.1.3.2.4.4 1 .7 2.1 1 3.1s1.1 1.3 1.8 1 1.2-1 1-1.8c-.4-1.7-1.1-3.4-2-4.9s-1-1.5-1.7-2.1-.7-.6-1-.8-.8-.3-1.2-.5-.6.2-.5.5ZM53.5 98.5c-.1 0-.2-.2-.3-.3-.2-.2-.3-.3-.5-.4-.4-.2-.8-.4-1.2-.5-.8-.2-1.6-.3-2.4-.3s-1.5.2-2.2.5-1.8 1-1.8 2.1.5 1.1 1.1 1.1 1.3-.4 2-.7c.1 0 .1 0 0 0h.2c.1 0 .3 0 .4-.1.3 0 .5-.1.8-.2h.2c-.1 0-.1 0 0 0h2.4c.3 0 .5 0 .7-.1s.2-.1.3-.1c.5 0 .6-.7.2-.9Z" fill="#a96433" opacity=".4"/>
        <path d="M48.9 93.9c1.5.7 3 2.2 3.3 3.9s2.5 1.3 2.9 0c1-4 3.7-6.7 6.5-9.6s6.3-5.8 9.6-8.5-.4-3-1.7-2.3c-4.1 2.1-8 5.2-11.2 8.5s-6 7-6.1 11.4l2.8-.7c-1.2-2.2-3.2-3.7-5.8-3.5s-.6.6-.2.7ZM49 116.3c1.1 1.4 3.1 2.3 4.7 3s3.6 1.3 5.4 1.7c3.8.9 7.6 1.4 11.5 1.4s1.7-.2 2.5 0 1.3.8 1.9 1.3c1.4 1.1 2.9 2.1 4.6 2.9 3.2 1.4 7.8 1.7 10.1-1.4s-.6-2.8-1.8-2.4-2.9 1-4.5.8-2.9-.9-4.2-1.8-2.4-2.1-3.8-2.8-3.5-.7-5.2-.6c-3.4 0-6.9-.3-10.2-1.1s-3.5-.9-5.3-1.4-3.4-1.1-5.1-1.1-1.1.9-.6 1.5Z" fill="#a96433" opacity=".4"/>
        <path d="M83.8 121.9c.2.3.8.4 1.2.5s.8.2 1.3.3H86h.9c.3 0 .8 0 1.1.1s.9-.3 1.1-.6c.2 0 .3-.5.2-.8v.2c0-.3 0-.5-.3-.8s-.4-.4-.7-.4l-1.2-.3c-.4-.1-.7-.1-1 0s-.8 0-1.2.2-.3 0-.4.1-.2 0-.4.1c-.2 0-.3.2-.4.4-.2.3 0 .7.1 1ZM85.3 119.2h1.4c.1 0 0 0 0 0h.5c.3 0 .6.2.9.3.1 0 0 0 0 0s.2 0 .3.1h1c.4-.1.6-.5.5-.9-.2-.9-1.4-1.2-2.2-1.3s-.9-.1-1.4 0-.7.2-1 .3c-.7.2-.6 1.2.2 1.2ZM135.5 111.8l-.2-.3c0 .2.2.4.4.5s0 0 .1 0-.1 0 0 0c.2.1.2.2.4.3s0 0 .1 0h.3c.3 0 .5 0 .8.1s.6 0 .8 0c.4 0 .8-.2 1.1-.3s.5-.2.8-.4.4-.3.7-.5c.4-.4.4-1 0-1.4s-.9-.6-1.4-.3-.3.2-.5.3h-.1c.2-.1.2 0-.1 0 0 0-.2 0-.2.1h-.1c-.1 0 0 0 0 0h-.3c-.2 0-.3.1-.5.1-.3 0-.7.2-1 .2h-.1c.1 0 .2 0 0 0h-.1c-.2 0-.3 0-.5.1-.2 0-.4 0-.6.3l.3-.2h-.1c-.4 0-.5.6-.2.9ZM134.1 110.6c.3 0 .6-.1.9-.2s.7-.2 1.1-.3.6-.3.8-.4c.4-.3.8-.7.9-1.2s0-.5-.2-.7-.5-.2-.7-.2c-.4 0-.8.3-1.1.6s-.5.4-.7.6l-.3.3c-.1.1-.2.1 0 0 0 0-.1 0-.2.1-.3.2-.5.3-.8.4s-.3.4-.2.6.3.3.6.3ZM33.7 162.1c.6 0 1.2.3 1.8.4s1.2 0 1.8 0c1.2 0 2.4-.3 3.6-.5 2.4-.4 4.9-1 7.3-1.4 4.8-.8 9.7-.9 14.6-.2s9.3 2.2 14 3.2 10 2 14.2-.3.7-2.9-.8-2.9c-2.4 0-4.7.4-7.1.2s-4.4-.7-6.6-1.2c-4.8-1.2-9.4-2.7-14.4-3.1s-9.8 0-14.6 1.1-4.7 1.1-7 1.7-2.4.5-3.6.8-1.2.3-1.8.4-1.1.5-1.7.6-.4 1 .1 1.1Z" fill="#a96433" opacity=".4"/>
        <path d="M83.7 159.6c.4.2.7.3 1.1.4s.3 0 .4 0h1.4c.3 0 .4 0 0 0h.5c.6.1 1.1.2 1.7.4s1.2.4 1.9.5.9-.3 1.1-.7 0-.9-.2-1.3c-.5-.6-1.3-.9-2-1.1s-1.3-.4-2.1-.5c-1.3-.2-3-.3-4 .8s-.3 1.1.2 1.3ZM84.9 156.9h.5c.2 0 .2 0 .2-.1.2 0 .4-.1.6-.2s0 0 .1 0h-.1 1.3c.1 0-.2 0 0 0H88.1s-.3-.1 0 0 .3.1.5.2 0 0 .1 0h.4s-.3 0 0 0h.1c.3 0 .5.1.8 0 .6-.2 1-.8.8-1.4s-.5-.8-.9-1l-.2-.1c-.1 0-.3-.1-.4-.1h-1.6c-.2 0-.2 0 0 0h-.6c-.2 0-.4 0-.7.1s-.4.1-.6.3-.1 0-.2 0c-.4.2-1.2.5-1.3 1.1s0 .7.4.8ZM26.1 130.3c.5-.4 1-.8 1.6-1.1s1-.7 1.6-1 1-.5 1.6-.7 1.3-.3 1.9-.4.5 0 .8-.1c.6-.2 1-.8.8-1.4-.3-.9-1.5-.7-2.3-.6-1.3.2-2.6.7-3.7 1.4s-1.3.8-1.8 1.4-.9 1.2-1.2 1.9.3.9.7.6Z" fill="#a96433" opacity=".4"/>
        <path d="M23.9 123.5c2.1.8 4.4.5 6.6.8s1.8.4 2.6.9 2 1.6 3.2 1.3 1.1-.8 1-1.4-.1-.9-.5-1.2-.5-.4-.8-.6c-.4-.3-.9-.6-1.4-.8-1.2-.6-2.4-.9-3.6-1s-2.4 0-3.5.1-2.5.3-3.7.8-.3.9.1 1.1ZM29.6 120.7c.7.2 1.3 0 2 .1s.6 0 .9 0-.3 0 0 0h.2c.2 0 .3 0 .5.1.3 0 .6.1.9.2s.4.2.4.2-.3-.1 0 0 .1 0 .2 0c.3.1.6.3.9.4s.1 0 .2.1.6.2.3.1.2.1.2 0c.2 0 .4.1.6.1.8 0 1.6-.9 1.3-1.7s-1.1-1.5-2-1.9-1.5-.6-2.2-.7-1.6-.2-2.4 0-1.7.3-2.3 1-.3 1.5.5 1.7ZM5 133.8c-.8-.1-1.6-.1-2.3.3s-1.2 1.1-1.5 1.8c-.8 1.8-.4 3.8.4 5.6 1.4 3 4.1 5.6 7.2 6.7s3.2-2.4 1.4-3.3-1.4-.7-2-1.2-1.3-.9-1.7-1.5l-1.1 2.6c.8 0 1.6-.1 2.4-.2l-.4-3c-1.3.5-2.1 1.7-1.9 3.1s1.3 2.5 2.5 3.4l1.6-2.8c-1.6-.8-3.2-1.5-4.8-2s-1.3.1-1.6.7-.2 1.3.2 1.7c2 2.3 5.2 3.6 8 4.5s1.5-.1 1.9-.8.2-1.4-.3-2c-.7-.8-1.5-1.5-2.4-2.2s-1.6-1.1-2.2-1.8l.3.6c-.1 0-.1-.2 0-.2l-.2.7c-.2.1-.2.1-.1 0 0 0 .2-.1.3-.2l.6-.3c.4-.2.8-.5 1.2-.7l-1.7-2.2c-.7.7-1.3 1.4-1.5 2.4s.2 2 1 2.7c1.7 1.4 3.9 2.4 6.1 1.9l-2.3-1.8V146.9c0-.1 0-.1 0 0-.1.3-.2.1 0 0 .4-.1.5-.2.9.1-.8-.6-1.8-.8-2.6 0s-.8 2 0 2.6c1.3 1.1 3 1.2 4.2 0s1.2-2.1 1.2-3.3-1.2-2.1-2.3-1.8-1.9 0-2.7-.4-.4-.2-.6-.2c-.6-.2 0 0 0 0l.2-.3.6-.6c1.1-1.1-.3-2.9-1.7-2.2s-1.9.9-2.6 1.6-.5 2.1 0 3.1c1 1.7 2.9 2.5 4.1 4l1.6-2.8c-2.5-.7-5.1-1.3-6.9-3.3l-1.7 2.3c1.4.8 2.8 1.5 4.3 2.2s3.4-1.6 1.6-2.8-.8-.5-1-.9 0-.2 0-.2c0 .1-.3.2 0 .1 1.4-.6.7-2.9-.8-2.8s-1.6 0-2.4 0c-1.4 0-1.9 1.6-1.1 2.6s1 1.4 1.7 2 1.5 1.2 2.3 1.6l1.4-3.3c-1.9-.8-3.7-2-5-3.8s-1.3-2.1-1.3-3.4.6-1.8 1.5-2 .9-1.6 0-1.7ZM29.6 83.8c-.3.2-.5.5-.5.8 0 1.2.6 2.4 1.4 3.3s1.7 2 2.8 2.7 2.2 1.2 3.3 1.6 3 .8 4.3.1.9-1.1.8-1.7-.6-1.2-1.2-1.4-1.2-.1-1.8-.2-.2 0-.4 0h-.8c-.5-.1-.9-.3-1.4-.4s-.2-.1-.3-.2c-.2-.1-.5-.2-.7-.4-1-.5-1.5-.9-2.2-1.7s-1.3-1.6-2-2.3-.6-.3-.9-.2h-.2ZM38.2 20.6c-1.4-.2-2.6-.2-4 .2s-2.3.7-3.4 1.3c-2.1 1.3-4 3.1-5.2 5.3s-2 4.7-1.9 7.2.2 2.4.6 3.5.6 1.3 1.1 1.8 1.4.9 2.3 1c1.3.2 2.3-1.4 2-2.6s-.3-.9-.5-1.3-.3-.7-.1-.2c0-.2-.1-.4-.2-.6s0-.5 0-.2v-2.2c0-.3 0-.5.1-.8 0-.4.2-.9.3-1.3.3-.9.5-1.3 1-2.2.8-1.4 1.9-2.4 3.3-3.2s.7-.4 1.1-.6l.4-.2c-.2.1.4-.1.4-.2.9-.3 1.8-.6 2.7-.8s1.5-1.1 1.5-2-.6-1.9-1.5-2ZM87.7 16.2c.4.4.9.6 1.4.9s1.3.5 2 .8c1.2.5 2.3 1.3 3.3 2s2.4 1.7 3.6 2.5 1 .7 1.5 1 1 1 1.8.9l-.7-.2c.5.3.9.9 1.5.5s.6-1.1.6-1.7l-.2.7c.5-.9 0-1.6-.4-2.5s-1-1.3-1.7-1.8c-1.3-1-2.7-1.8-4.1-2.7s-2.6-1.6-4.2-1.9-1.8-.3-2.6 0-1.3.5-1.8 1-.1.3 0 .4ZM68 42.1c.8.1 1.5.1 2.2 0s1.4-.2 2-.6.8-.5 1-1 0-.4 0-.6 0 .2 0 0v-1.4c0-.4-.3-.6-.5-.9-.2-.5-.8-.6-1.3-.4s-.8.7-.6 1.2.2.5.4.7.1.2.2.3c0 0-.1-.1 0 0v-.2.2c0 .2 0-.1 0 0s.1-.1 0 0c.2-.2.1 0 0 0-.2 0 0 0 0 0h-.2c-.1 0-.2 0-.4.1-.2 0-.4.1-.6.2h.1H70c-.2 0-.5.2-.7.2h-.2c-.1 0 0 0 0 0H67.9c-.3 0-.6.1-.7.3s-.3.4-.3.6c0 .5.2 1.1.8 1.2ZM78.3 36.1c-.5-.3-1.1 0-1.4.4s-.2.7-.2 1 0 .7.1 1 .3.7.5 1 .8.6 1.3.6.8-.2 1.2-.4.4-.2.6-.4c.4-.3.8-.6 1-1.1s0-.8-.3-1.1c-.1-.1-.3-.2-.5-.3H80c-.4 0-.6.3-.9.6l.2-.2c-.3.2-.6.4-1 .6h.3-.3.3-.2.3-.1.3c0 .1 0 0-.1 0l.2.2-.1-.1.2.2s-.1-.2-.2-.3-.1-.2-.2-.3c-.1-.2-.2-.5-.3-.7v.2-.2.2-.1.4l-.1.1c-.1.1-.2.1 0 .1.2-.1.4-.4.4-.7s-.1-.5-.4-.7Z" fill="#a96433" opacity=".4"/>
        <g fill="#fff3e8">
            <path d="M52.6 38.4c.3 0 .6 0 .8-.2.3 0 .5-.2.7-.4.2-.2.4-.4.4-.7.1-.3.2-.5.2-.8v-.6c-.2-.4-.4-.7-.6-.9l-.4-.3c-.3-.2-.7-.3-1.1-.3-.3 0-.6 0-.8.2-.3 0-.5.2-.7.4-.2.2-.4.4-.4.7-.1.3-.2.5-.2.8v.6c.2.4.4.7.6.9l.4.3c.3.2.7.3 1.1.3ZM89 32.6c2.8 0 2.8-4.3 0-4.3s-2.8 4.3 0 4.3ZM72.8 35.5H76c.5 0 0-.1 0-.1-.5 0-1.1-.2-1.6-.1s-.5 0-.8 0-.3 0-.4.1-.4.2-.4.1 0 .2 0 0Z"/>
        </g>
        <path d="M335 176.2V335H0V86c17.3 22.2 37.8 41.8 60.9 58 4.8 3.4 9.7 6.7 14.7 9.8 0 0 .2 0 .3.1 4.8 3 9.8 5.9 14.8 8.6 7.2 3.9 14.6 7.5 22.2 10.8 6.6 2.9 13.3 5.5 20.1 7.8 6.9 2.4 13.9 4.5 21.1 6.4 5.3 1.4 10.6 2.6 16 3.7 6.2 1.3 12.5 2.3 18.9 3.2 5.2.7 10.4 1.2 15.7 1.7 7.1.6 14.4.9 21.7.9h1.3c5.7 0 11.3-.2 16.9-.5 2.1-.1 4.2-.3 6.4-.4 10.7-.8 21.3-2.3 31.7-4.3 18.2-3.5 35.8-8.7 52.6-15.5Z" fill="#fff"/>
        <circle cx="44.5" cy="210.5" r="44.5" fill="#239b3d"/>
        <path d="M168.1 308.4v6.3c0 6.6-7.2 12-15.9 12H.5v-30.3h151.7c8.7 0 15.9 5.4 15.9 12Z" fill="#f68e1d"/>
        <path fill="#239b3d" d="M0 288.5h84.3v46.1H0z"/>
        <path d="M128.2 264.8c0 .6-.1 1.1-.2 1.7-.3 1.6-.7 3.1-1.5 4.5-1.1 1.8-2.7 2.8-4.8 2.8-2.1 0-3.8-.9-5.1-2.5-1.3-1.6-2-3.4-2.3-5.4-.3-1.8-.2-3.5.2-5.3 0-.2.1-.3.2-.5 0 0 .1-.2.1-.3.6-1.3 1.1-2.7 1.7-4 .7-1.5 1.7-3 3.1-4 1.7-1.3 3.5-1.7 5.6-1.1 1.2.4 2.2 1.2 3.1 2.1.9.9 1.7 1.8 2.6 2.7 1.6 1.7 3.6 2.9 5.9 3.4.4 0 .8.1 1.2.2v.1c-.2.3-.3.6-.5.8-1.1 1.6-2.4 3-4.2 3.8-1 .5-2 .5-3 0-1.1-.5-1.9-1.2-2.7-2-.8-.8-1.6-1.7-2.4-2.4-1.9-1.7-4-1.4-6.2 0h.2c.6-.2 1.1-.4 1.7-.5 1.2-.3 2.3 0 3.3.8.3.3.7.6 1 1 1.2 1.3 2.1 2.9 3.4 4.1Zm-9.2 3.6c-.7 0-1.1.9-.5 1.5 0 1.1 1 2 2.2 1.9.9 0 1.6-.7 1.8-1.6.2-.9-.2-1.8-1.1-2.3-.8-.4-1.8-.2-2.4.4Z" fill="#faaf42"/>
        <path d="M108.3 286.3c.8.2 1.6.4 2.5.5 3.3.4 6.2-1.5 7-4.7-.6-.2-1.3-.3-1.9-.6-.6-.2-1.1-.5-1.7-.8-.2-.1-.4-.3-.5-.5-.6-.7-.6-1.5 0-2.1 1.4-1.3 3.1-2 5.1-1.7.6 0 1.2.2 1.7.4 1 .4 1.2 1.2.7 2.1-.4.8-1 1.5-1.7 2.1-.3.3-.6.5-.9.8.8 1.2 1.9 1.8 3.3 1.9 2.8.2 5-.9 6.7-3 0 0 .1-.2.2-.3-.7 2.4-1.6 4.6-3.4 6.4l-1.6 1.6c-.2.2-.2.3-.1.5.3 1.1.6 2.2.4 3.3-.2 2-2 3.9-3.9 4.1-1.1.1-2.2-.5-2.5-1.6-.2-.9-.3-1.8-.5-2.7 0-.4-.1-.9-.2-1.3 0-.2-.1-.2-.3-.2-3.4-.2-6.3-1.7-8.8-4Zm6.4-8.1h.3c1.1-.5 2.2-.9 3.5-1h1.5c-1.2-.4-2.3-.4-3.5 0-.7.2-1.3.5-1.8 1.1Zm.9 9.1c.8.3 1.4.8 1.8 1.4.4.7.6 1.4.7 2.2.1 1 .3 2.1.4 3.1.1.7.6 1.1 1.3 1.2.8 0 1.5-.2 2.2-.6 1.4-1 1.9-2.5 1.5-4.2-.3-1.5-.9-2.9-1.4-4.4 0-.1-.2-.3-.3-.3-.5-.3-1.1-.4-1.7 0-.4.2-.5.5-.3.8.2.3.3.6.5.9.4.6.7 1.1.9 1.8.2.7 0 1.4-.5 2v-.4c0-.4 0-.8-.1-1.2-.2-1.2-.8-2.1-2-2.5-1.1-.3-2.1 0-3.1.4ZM106.8 261.2c-1.3.6-2.5.4-3.7-.3-1.1-.6-2-1.6-3-2.4-.9-.9-1.9-1.8-2.8-2.6-1-.8-2.1-1.4-3.4-1.7-.7-.1-.9 0-.8.8.2 1.3.5 2.5.8 3.8.4 2.2.8 4.4 1.3 6.6.4 1.9 1.1 3.7 2.2 5.4.4.6.9 1.2 1.4 1.7.2.2.4.4.7.3.3-.1.3-.4.3-.7.1-.9.2-1.8.4-2.7.3-1.7 1.2-3 2.4-4.1.3-.3.6-.5.8-.8 0 .2-.1.4-.2.5-1.1 2-1.7 4.1-1.8 6.3 0 .8-.2 1.5-.4 2.3-.2.9-.9 1.2-1.8.9h-.3c-.7-.3-1.3-.7-1.9-1.3-2-2-3.2-4.4-3.8-7.1-.4-2-.8-4-1.2-5.9-.5-2.2-1-4.4-1.6-6.6 0-.3-.1-.5-.1-.8 0-.5.2-.7.6-.9.7-.2 1.4-.1 2.2 0 1.6.3 3 1 4.3 2 1.5 1.2 2.9 2.4 4.3 3.6 1.2 1.1 2.5 2.2 3.9 3 .3.2.6.3 1 .5Z" fill="#030303"/>
        <path d="M128.2 264.8c-1.3-1.2-2.3-2.7-3.4-4.1-.3-.4-.6-.7-1-1-.9-.9-2-1.1-3.3-.8-.6.1-1.1.3-1.7.5h-.2c2.2-1.3 4.3-1.6 6.2 0 .9.8 1.6 1.6 2.4 2.4.8.8 1.6 1.6 2.7 2 1 .5 2 .4 3 0 1.8-.8 3.1-2.2 4.2-3.8.2-.3.3-.5.5-.8v-.1c-.4 0-.8-.1-1.2-.2-2.4-.5-4.3-1.7-5.9-3.4-.8-.9-1.7-1.8-2.6-2.7-.9-.9-1.8-1.7-3.1-2.1-2-.7-3.9-.2-5.6 1.1-1.4 1.1-2.3 2.5-3.1 4-.6 1.3-1.2 2.7-1.7 4 0 0 0 .2-.1.3v-.1c.6-2.4 1.3-4.9 2.7-7.1.8-1.3 1.8-2.5 3.1-3.3 2.5-1.4 4.9-1.3 7.3.3 1.2.9 2.3 2 3.3 3.1.9.9 1.9 1.9 2.9 2.7 1.2 1 2.7 1.5 4.2 1.6.5 0 1.1 0 1.6.2.7.1.8.3.6 1-.2.8-.6 1.5-1 2.2-1.3 2-3 3.7-5.2 4.7-1.3.6-2.6.9-4 .3-.6-.2-1.1-.7-1.7-1Z" fill="#040303"/>
        <path d="M102 296v.3c-.5.8-.8 1.6-1 2.5-.4 2.2.7 3.7 2.9 3.9 1.4.2 2.7 0 4-.6 1.6-.7 2.2-2 1.8-3.7-.3-1.2-1.1-2.7-2.2-3.9 1 .7 2 1.5 2.7 2.6.7 1.1.7 2.4.6 3.7 1.8-.7 2.7-2.6 2.2-4.5-.3-1-.9-1.9-1.5-2.8-.6-.8-1.3-1.5-1.9-2.3 0 0-.1-.2-.2-.3 1.5.9 3 2 4 3.4.8 1.1 1.3 2.3 1.3 3.7 0 1.1-.5 2-1.2 2.8-.9.9-2 1.3-3.2 1.7-.2 0-.4.2-.5.3-1.7 2.1-4.5 2.6-7.1 1.4-.3-.1-.6-.3-.9-.5-.2-.2-.4-.2-.6 0-1.9.7-3.7.6-5.2-.8-1.3-1.1-1.8-2.6-1.7-4.3.3-3.6 2.2-6 5.6-7.2 1.5-.5 3-.8 4.6-.8h.1c-.5.1-1.1.2-1.6.3-1.8.4-3.6 1.1-4.9 2.4-1.7 1.6-2.4 3.6-2 6 .4 1.8 1.6 2.7 3.4 2.6h.9c0-.4-.1-.8-.1-1.2-.2-1.9.4-3.5 1.8-4.7l.1-.1Z" fill="#040404"/>
        <path d="M132.1 288.6s-.2.2-.2.3c-.7.9-1.5 1.8-2.1 2.7-.5.6-.8 1.4-.9 2.2-.1.9 0 1.7.7 2.3.4.4.9.7 1.4 1.1-.3-2.6.9-4.3 3-5.6 0 .1-.2.2-.2.3-.7 1-1.4 2-1.7 3.2-.4 1.5.2 2.6 1.6 3.2 1.2.5 2.5.7 3.8.5 1.7-.3 2.7-1.6 2.4-3.3-.1-.9-.5-1.7-1-2.5.3 0 .9.7 1.2 1.4.3.6.5 1.2.5 1.8v2c1.7.6 3.4-.4 3.8-2.2.4-2.1-.2-3.9-1.7-5.3-1.2-1.1-2.7-1.7-4.3-2.1-.7-.2-1.4-.3-2.1-.5h.9c1.7 0 3.3.4 4.9 1.1 3.2 1.5 4.2 4.5 4 6.8-.3 3.1-3.2 5.1-6.2 3.8h-.5c-1.4.9-2.9 1.3-4.6.9-1-.3-1.9-.8-2.6-1.7-.1-.1-.3-.2-.4-.3-.6-.3-1.3-.5-1.9-.8-1.9-1.1-2.6-2.9-1.8-5 .4-1.1 1.1-2.1 2-2.9.7-.6 1.4-1 2.1-1.6h.2Z" fill="#050505"/>
        <path d="M112 272.7c-2.2.5-4.1 1.5-4.9 3.8 0-.7 0-1.4.2-2 0-.5.2-1 .4-1.4.3-.7.9-1 1.6-1 1 0 1.9.3 2.8.6Z" fill="#060606"/>
        <path d="M127.6 279.4c1.3-.9 2.3-.4 2.7 1.3-.6-1-1.5-1.4-2.7-1.3Z" fill="#0e0e0e"/>
        <path d="M109.1 284.9c-1.1.2-1.7 1-2.2 2 0-.6.3-1.5.7-1.9.5-.3.9-.3 1.5-.2Z" fill="#101010"/>
        <path d="M126.1 278.5c-.3 0-.5-.2-.5-.5s.2-.5.5-.5.5.2.5.5-.2.5-.5.5Z" fill="#0d0d0d"/>
        <path d="M125.8 281.3c-.3 0-.5-.2-.5-.5s.2-.5.5-.5c.2 0 .4.2.5.5 0 .3-.2.5-.5.5Z" fill="#0a0a0a"/>
        <path d="M123.6 279.5c-.3 0-.5-.2-.5-.5s.2-.5.5-.5.5.2.5.5-.2.5-.5.5Z" fill="#0b0b0b"/>
        <path d="M110.9 281.4c.3 0 .5.2.5.5s-.2.5-.5.5-.5-.2-.5-.5.2-.5.5-.5ZM111.6 284.6c0 .3-.2.5-.5.5s-.5-.2-.5-.5.2-.5.5-.5.5.2.5.5Z" fill="#0d0d0d"/>
        <path d="M113.4 282.3c.3 0 .5.2.5.5s-.2.5-.5.5-.5-.2-.5-.5.2-.5.5-.5Z" fill="#0e0e0e"/>
        <path fill="#040404" d="M109.3 291zM102 296z"/>
        <path d="M119 268.4c.6-.7 1.6-.8 2.4-.4.8.4 1.3 1.3 1.1 2.3-.2.9-.9 1.5-1.8 1.6-1.2 0-2.2-.8-2.2-1.9.7.4 1.4.2 1.5-.5 0-.5-.3-.9-.9-1Z" fill="#040302"/>
        <path d="M119 268.4c.6 0 1 .4.9 1 0 .7-.8 1-1.5.5-.5-.6-.2-1.4.5-1.5Z" fill="#f9f9f7"/>
        <path d="M115.6 287.3c1-.4 2-.7 3.1-.4 1.2.4 1.8 1.3 2 2.5 0 .4 0 .8.1 1.2v.4c.5-.6.6-1.3.5-2-.1-.7-.5-1.2-.9-1.8-.2-.3-.4-.6-.5-.9-.2-.4 0-.6.3-.8.6-.3 1.1-.3 1.7 0 .1 0 .2.2.3.3.5 1.5 1 2.9 1.4 4.4.4 1.7 0 3.2-1.5 4.2-.6.5-1.4.7-2.2.6-.7 0-1.2-.5-1.3-1.2-.2-1-.3-2-.4-3.1-.1-.8-.3-1.5-.7-2.2-.4-.7-1-1.1-1.8-1.4Z" fill="#ed1c24"/>
        <path d="M114.8 278.2c.5-.5 1.1-.9 1.8-1.1 1.2-.4 2.3-.4 3.5 0h-1.5c-1.2 0-2.3.5-3.5 1h-.3ZM114.8 278.1Z" fill="#eee"/>
        <path d="M329.4 144.6c-14.3 7.6-29.2 14.1-44.8 19.3-6.6 2.2-13.3 4.2-20 5.9-8.3 2.1-16.7 3.8-25.3 5.2-8.8 1.4-17.7 2.4-26.7 3-6.2.4-12.4.6-18.7.6h-.4c-7 0-14-.2-20.9-.8-5.9-.4-11.8-1-17.6-1.8-7.5-1-14.9-2.3-22.2-3.9-7-1.5-13.9-3.2-20.7-5.2-7.4-2.2-14.8-4.7-21.9-7.4-4.8-1.8-9.5-3.8-14.1-5.9 0 0-.2 0-.3-.1-5-3.1-9.9-6.4-14.7-9.8C37.8 127.5 17.3 107.9 0 85.8v-57c10.8 20.3 24.2 38.9 39.7 55.5 11 11.8 23.1 22.4 36.1 31.9 1.6 1.2 3.2 2.3 4.8 3.4 8.6 6 17.5 11.4 26.8 16.3 7.9 4.2 16 7.9 24.3 11.3 8 3.2 16.3 6.1 24.7 8.5 6.3 1.8 12.8 3.4 19.3 4.7 7.4 1.5 15 2.7 22.7 3.6 6.5.7 13 1.2 19.6 1.5 3.1.1 6.2.2 9.4.2 6 0 11.9-.2 17.7-.6 8.5-.6 16.9-1.6 25.2-3 7-1.2 14-2.7 20.8-4.4 13.1-3.3 25.9-7.7 38.1-13Z" fill="#239b3d"/>
        <path d="M335 142.1V176c-16.8 6.7-34.4 12-52.6 15.5-10.4 2-20.9 3.5-31.7 4.3-2.1.2-4.2.3-6.4.4-5.6.3-11.2.5-16.9.5h-1.3c-7.3 0-14.5-.3-21.7-.9-5.3-.4-10.5-1-15.7-1.7-6.4-.9-12.7-1.9-18.9-3.2-5.4-1.1-10.7-2.3-16-3.7-7.1-1.9-14.2-4-21.1-6.4-6.8-2.4-13.5-5-20.1-7.8-7.6-3.3-15-6.9-22.2-10.8-5-2.7-9.9-5.5-14.8-8.5 4.7 2 9.4 4 14.1 5.8 7.2 2.8 14.5 5.2 21.9 7.4 6.8 2 13.7 3.8 20.7 5.2 7.3 1.6 14.7 2.9 22.2 3.9 5.8.8 11.7 1.4 17.6 1.8 6.9.5 13.9.8 20.9.8h.4c6.3 0 12.5-.2 18.7-.6 9-.6 18-1.6 26.7-3 8.6-1.4 17-3.1 25.3-5.2 6.8-1.7 13.5-3.7 20-5.9 15.6-5.2 30.6-11.7 44.8-19.3 1.9-.8 3.7-1.6 5.6-2.5Z" fill="#f68e1d"/>
        <g fill="#fff" data-name="PRINT">
            <path d="M30.7 13.8c0 .6-.2 1.1-.6 1.5l-6.8 6.8-7.2-4.2v-4.1c0-1.2 1-2.1 2.1-2.1s2.1 1 2.1 2.1V19l6.7-6.7c.8-.8 2.2-.8 3 0 .4.4.6 1 .6 1.5ZM30.1 32.7c-.4.4-.9.6-1.5.6s-.6 0-.8-.2c-.3-.1-.5-.3-.7-.5l-2.3-2.3-4.4-4.4v5.2c0 1.2-1 2.1-2.1 2.1s-2.1-1-2.1-2.1V27l7.2-4.2 4.5 4.5 2.3 2.3c.8.8.8 2.2 0 3ZM23 22.4c0-.1-.1-.2-.2-.3l-1.8-1-4.9-2.8-4.1-2.4c-.2-.1-.5 0-.7.2v12.7c0 .3.2.5.5.5h.2l4.1-2.4 6.7-3.9s.1-.1.1-.2v-.3Zm-10.2-5 3.2 1.8 5.2 3s.1 0 .1.1v.3s0 .2-.2.2l-5.2 3-3.2 1.9c-.2 0-.4 0-.5-.1V17.7c0-.2.2-.4.4-.4h.2Z"/>
            <path d="M19.9 22.6s0 .1-.1.2l-3.9 2.3-2.4 1.4c-.1 0-.3 0-.4-.1V19c0-.2.1-.3.3-.3h.1l2.4 1.4 3.9 2.3s.1 0 .1.2v.2ZM65.8 22l-6-3-3.7-1.8c-.2-.1-.5 0-.6.2v10.1c.1.2.4.4.6.4h.4l3.4-1.9 2.1-1.1 3.8-2s.2-.1.2-.2v-.2c0-.1-.1-.2-.2-.2Zm-6 3L57 26.5c-.2 0-.4 0-.5-.1v-7.8c0-.2 0-.3.3-.3h.1l2.9 1.4 1 .5 3.6 1.8s.1 0 .2.2v.2s0 .1-.1.2L59.9 25Z"/>
            <path d="M63.2 22.5s0 .1-.1.1l-3.4 1.8-2.1 1.1h-.3V19.6c0-.1 0-.2.2-.2h.1l2.1 1.1 3.5 1.7.1.1v.1ZM40.2 17.3H35v10.4h2.6v-3.4h2.7c2.5 0 4.3-1.5 4.3-3.6 0-2-1.9-3.5-4.4-3.4Zm-.2 4.9h-2.4v-2.9H40c1.2 0 2.1.5 2.1 1.4 0 .9-.8 1.5-2 1.5ZM54.3 27.7l-8.2.1-.1-10.3h2.5l.1 8.3 5.7-.1v2zM71.1 23.8l.1 3.7h-2.5l-.1-3.7-4.5-6.5 2.8-.1 3 4.5 2.9-4.5 2.7-.1-4.4 6.7zM86.4 28h-1.6l-4.5-4.7-1.8 1.7.1 3.1h-1.3l-.1-10.3h1.3v5.7l5.8-5.8H86l-4.8 4.8 5.2 5.5zM92.9 17.5c-3.2 0-5.9 2.5-5.8 5.4 0 2.9 2.8 5.3 6 5.3s5.8-2.5 5.8-5.4c0-2.9-2.8-5.3-5.9-5.2Zm.4 9.6c-2.5.2-4.7-1.7-4.9-4.2.1-2.3 1.9-4.1 4.2-4.3 2.5-.2 4.7 1.7 4.9 4.2-.1 2.3-1.9 4.1-4.2 4.3ZM109.1 25.1c0 1.6-1.3 3-4 3-1.7 0-3.3-.5-4.5-1.6l.8-.9c1 .9 2.4 1.5 3.8 1.4 1.8 0 2.7-.9 2.7-1.8 0-1.1-1.1-1.5-3.1-1.9-2.3-.5-3.8-1.1-3.8-2.9 0-1.6 1.6-3 3.8-3 1.5 0 2.9.5 4 1.4l-.8.9c-.9-.8-2.1-1.3-3.3-1.3-1.4 0-2.4.9-2.4 1.8 0 1.1 1.1 1.4 3.1 1.8 2.2.4 3.8 1.1 3.8 2.9ZM122.8 28h-1.3l-.1-7.8-4.2 7.3-4.4-7.2.1 7.8h-1.3l-.1-10.3h1.3l4.4 7.1 4.1-7.2h1.3l.2 10.3zM131 17.5c-3.2 0-5.9 2.5-5.8 5.4 0 2.9 2.8 5.3 6 5.3s5.8-2.5 5.8-5.4c0-2.9-2.8-5.3-5.9-5.2Zm.4 9.6c-2.5.2-4.7-1.7-4.9-4.2.1-2.3 1.9-4.1 4.2-4.3 2.5-.2 4.7 1.7 4.9 4.2-.1 2.3-1.9 4.1-4.2 4.3ZM147.2 25.1c0 1.6-1.3 3-4 3-1.7 0-3.3-.5-4.5-1.6l.8-.9c1 .9 2.4 1.5 3.8 1.4 1.8 0 2.7-.9 2.7-1.8 0-1.1-1.1-1.5-3.1-1.9-2.3-.5-3.8-1.1-3.8-2.9 0-1.6 1.6-3 3.8-3 1.5 0 2.9.5 4 1.4l-.8.9c-.9-.8-2.1-1.3-3.3-1.3-1.4 0-2.5.9-2.4 1.8 0 1.1 1.2 1.4 3.1 1.8 2.2.4 3.8 1.1 3.8 2.9Z"/>
        </g>
        <path d="M239 182.9c-3.9 0-7.1 3.2-7.1 7.1s.5 3 1.4 4.2l5.7 9.9 5.7-9.9c.9-1.2 1.4-2.6 1.4-4.2 0-3.9-3.2-7.1-7.1-7.1Zm0 10.3c-1.7 0-3.1-1.4-3.1-3.1s1.4-3.1 3.1-3.1 3.1 1.4 3.1 3.1-1.4 3.1-3.1 3.1Z" fill="#239b3d"/>
    </g>
</svg>
