<svg xmlns="http://www.w3.org/2000/svg" xmlns:xlink="http://www.w3.org/1999/xlink" width="335" height="335" data-name="Layer 1"><defs><linearGradient id="c" x1="327.4" x2="13.9" y1="333.6" y2="8" gradientUnits="userSpaceOnUse"><stop offset="0" stop-color="#fff"/><stop offset="1" stop-color="#eee7e8"/></linearGradient><linearGradient id="a" x1="-1122.2" x2="-1196.6" y1="464.8" y2="388.6" gradientTransform="matrix(-1 0 0 1 -843.8 -349)" gradientUnits="userSpaceOnUse"><stop offset="0" stop-color="#b31b32"/><stop offset=".5" stop-color="#572536"/><stop offset="1" stop-color="#2f2836"/></linearGradient><linearGradient xlink:href="#a" id="d" x1="-1137.1" x2="-1191.5" y1="486.7" y2="433.9"/><linearGradient xlink:href="#a" id="f" x1="-1203.1" x2="-1202.7" y1="-120.8" y2="-15.9" gradientTransform="rotate(135 -632.36 399.95)"/><radialGradient id="b" cx="18.4" cy="176.1" r=".6" fx="18.4" fy="176.1" gradientUnits="userSpaceOnUse"><stop offset="0" stop-color="#90bfdd"/><stop offset=".5" stop-color="#024b7b"/><stop offset="1" stop-color="#262b2e"/></radialGradient><radialGradient xlink:href="#b" id="e" cx="23.5" cy="286.6" r=".3" fx="23.5" fy="286.6"/></defs><path fill="url(#c)" d="M0 0h335v335H0z"/><path fill="#e81d33" d="M240.1 214.7c-2.7 0-4.9 2.2-4.9 4.9s.4 2.1 1 2.9l4 6.9 4-6.9c.6-.8.9-1.8.9-2.9 0-2.7-2.2-4.9-4.9-4.9Zm0 7.2c-1.2 0-2.2-1-2.2-2.2s1-2.2 2.2-2.2 2.2 1 2.2 2.2-1 2.2-2.2 2.2Z"/><g fill="#e81d33" data-name="PRINT"><path d="M30.4 13.8c0 .6-.2 1.1-.6 1.5L23 22.1l-7.2-4.2v-4.1c0-1.2 1-2.1 2.1-2.1s2.1 1 2.1 2.1V19l6.7-6.7c.8-.8 2.2-.8 3 0 .4.4.6.9.6 1.5ZM29.8 32.8c-.4.4-.9.6-1.5.6s-.6 0-.8-.2c-.3-.1-.5-.3-.7-.5l-2.3-2.3-4.4-4.4v5.2c0 1.2-1 2.1-2.1 2.1s-2.1-1-2.1-2.1v-4.1l7.2-4.2 4.5 4.5 2.3 2.3c.8.8.8 2.2 0 3ZM22.7 22.4c0-.1-.1-.2-.2-.3l-1.8-1-4.9-2.8-4.1-2.4c-.2-.1-.5 0-.7.2v12.7c0 .3.2.5.5.5h.2l4.1-2.4 6.7-3.9s.1-.1.1-.2v-.3Zm-10.2-5 3.2 1.9 5.2 3s.1 0 .1.1v.3s0 .2-.2.2l-5.2 3-3.2 1.9c-.2.1-.4 0-.5-.1V17.8c0-.2.2-.4.4-.4h.2Z"/><path d="M19.6 22.6s0 .1-.1.2L15.6 25l-2.4 1.4c-.1 0-.3 0-.4-.1V18.9c0-.2.1-.3.3-.3h.1l2.4 1.4 3.9 2.2s.1 0 .1.2v.2ZM65.5 22l-6-3-3.7-1.8c-.2-.1-.5 0-.6.2v10.1c.1.2.4.4.6.4h.4l3.4-1.9 2.1-1.1 3.8-2s.2-.1.2-.2v-.2c0-.1-.1-.2-.2-.2Zm-6 3-2.8 1.5c-.2.1-.4 0-.5-.1v-7.8c0-.2 0-.3.3-.3h.1l2.8 1.4 1 .5L64 22s.1 0 .2.2v.2s0 .1-.1.1l-4.6 2.4Z"/><path d="M63 22.5s0 .1-.1.1l-3.4 1.8-2.1 1.1h-.3V19.6c0-.1 0-.2.2-.2l2.1 1.1 3.5 1.8.1.1v.1ZM39.9 17.3h-5.2v10.4h2.6v-3.4H40c2.5 0 4.3-1.5 4.3-3.6 0-2-1.9-3.5-4.4-3.4Zm-.2 4.9h-2.4v-2.9h2.4c1.2 0 2.1.5 2.1 1.4 0 .9-.8 1.5-2 1.5ZM54.1 27.7l-8.3.1-.1-10.3h2.5l.1 8.3 5.7-.1.1 2zM70.9 23.8v3.7h-2.5v-3.7l-4.6-6.5h2.9l2.9 4.5 2.9-4.6h2.8l-4.4 6.6zM86.2 28h-1.7l-4.4-4.7-1.8 1.7v3.1H77l-.1-10.3h1.3l.1 5.7 5.7-5.7 1.7-.1-4.7 4.8 5.2 5.5zM92.6 17.5c-3.2 0-5.9 2.5-5.8 5.4 0 2.9 2.8 5.3 6 5.3s5.8-2.5 5.8-5.4c0-2.9-2.8-5.3-5.9-5.2Zm.4 9.6c-2.5.2-4.7-1.7-4.9-4.2.1-2.3 1.9-4.1 4.2-4.3 2.5-.2 4.7 1.7 4.9 4.2-.1 2.3-1.9 4.1-4.2 4.3ZM108.8 25.1c0 1.6-1.3 3-4 3-1.7 0-3.3-.5-4.5-1.6l.8-.9c1 1 2.4 1.5 3.8 1.4 1.8 0 2.7-.9 2.7-1.8 0-1.1-1.1-1.5-3.1-1.9-2.3-.5-3.8-1.1-3.8-2.9 0-1.6 1.6-3 3.8-3 1.5 0 2.9.5 4.1 1.4l-.8.9c-.9-.8-2.1-1.3-3.3-1.3-1.4 0-2.4.9-2.4 1.8 0 1.1 1.2 1.4 3.1 1.8 2.2.4 3.8 1.1 3.8 2.9ZM122.5 28h-1.3l-.1-7.8-4.2 7.3-4.3-7.1.1 7.7h-1.3l-.2-10.3h1.3l4.4 7.2 4.2-7.3h1.3l.1 10.3zM130.7 17.5c-3.2 0-5.9 2.5-5.8 5.4 0 2.9 2.8 5.3 6 5.3s5.9-2.5 5.8-5.4c0-2.9-2.8-5.3-5.9-5.2Zm.4 9.6c-2.5.2-4.7-1.7-4.9-4.2.1-2.3 1.9-4.1 4.2-4.3 2.5-.2 4.7 1.7 4.9 4.2-.1 2.3-1.9 4.1-4.2 4.3ZM146.9 25.1c0 1.6-1.3 3-4 3-1.7 0-3.3-.5-4.6-1.6l.8-.9c1 1 2.4 1.5 3.8 1.4 1.8 0 2.7-.9 2.6-1.8 0-1.1-1.1-1.5-3.1-1.9-2.3-.5-3.8-1.1-3.8-2.9 0-1.6 1.6-3 3.8-3 1.5 0 2.9.5 4.1 1.4l-.8.9c-.9-.8-2.1-1.3-3.3-1.3-1.4 0-2.4.9-2.4 1.8 0 1.1 1.2 1.4 3.1 1.8 2.2.4 3.8 1.1 3.8 2.9Z"/></g><path fill="#e81d33" d="M42.9 106.7v45.8l-.4.4L0 110.4V63.8l42.9 42.9z"/><path fill="#760a15" d="M42.5 152.9 0 195.4v-30.6l2.3-2.3 2.5-2.6 11.8-11.8 10.6-10.5 15.3 15.3z"/><g fill="#202938"><path d="M212.5 154.5c-.1-1.5-1.3-2-2.5-1.2l-5.1 3.9-1.8 1.5c-9.6 7.4-19.3 14.7-28.9 22.1-3.4 2.6-6.7 5.2-10.1 7.7-.8.6-1.4 1.4-2.6 1.4-.4-.6-.8-1.3-1.2-2-1.9-2.7-4.4-4.6-7.8-5l1.5-5.7c.8-2.9 1-5.8.7-8.8.6-3.5-1-6.1-3.6-8.1-2-1.6-4.4-2.1-6.8-2.5-.8-.1-1.6-.1-2.3-.2-1.8-3.1-4.4-5-7.9-5.6-4.9-.7-9.3 1.7-11.2 6.2-.7 1.6-1.2 3.3-1.9 5-.7 1.7-1.6 3.4-3.5 4.5-.6-.3-1.2-.6-1.9-1-1.2 3.4.2 6.7 3.5 8 4.3 1.7 9.2-.2 11.3-4.3.4-.9 1-1.6 1.5-2.5-.3 2.4 0 4.7 1 6.9.6 1.3 1.3 2.4 2.6 3.1v1.2l-1.2 1.8c-2.5.5-4.9 1.2-7.2 2.4-.2 0-.3 0-.4.1-4.7.9-8.7 3-12.4 6.1-3 2.5-6.1 4.8-9.4 6.7-.4.2-.8.6-1.2.8-3.8 2.3-5.2 5.7-4.8 10.1.3 3.6.8 7.1 1.9 10.5l1.8 6.3c.3 1 .6 2.1.7 3.2 0 2.5.8 4.7 2.1 6.7-1 .8-2 1.6-3.1 2.4-.8.6-1.7 1.1-2.4 1.7-22.4 17-44.7 34.1-67 51.1-.7.5-1.4 1-2.1 1.7-.8.7-.8 1.7-.2 2.4.5.6 1.5.8 2.2.3.7-.4 1.3-.9 1.9-1.4 18-13.7 36-27.5 54-41.2 4.6-3.5 9.1-7 13.7-10.4l1.8-1.5c1.4-1 2.7-2 4.1-3 1.5.4 3.1.8 4.6.2.1.2.2.2.2.3 0 0 .1.2.1.3v20.7c-.8.4-1.4.7-2 1.1-3.5.5-6.2 2.4-8.2 5.2l-3.2.3c-2.1.5-2.7 2.1-2.9 4-.2 1.4-.3 2.7-.5 4.1-.1.7-.5 1.3-.7 1.9-.2.9-.4 1.7-.5 2.6-.2 3 1.7 5.8 4.4 6.6.6.2 1.3 0 2 0 2.3-.7 2.9-1.3 3-3.3v-3.8c0-1.2.2-2.4.3-3.6v-1.9c.3 0 .6-.1.9-.2 2.4-.5 4.7-1.3 7.2-1.2l3.1-.6c.4 0 .8 0 1.1.1.6-.3 1.1-.5 1.7-.8 1.6-1.5 2.7-3.4 3.7-5.3 2.8-5.5 4.7-11.3 6.4-17.1.5-1.9 1-3.8 1.4-5.7h3.9c.4 3.5 1.6 6.9 3.2 10 .7 1.4 1.5 2.8 2.2 4.2 1.7 3.2 2.7 6.7 3.7 10.2.9 3.2.4 5.8-1.8 8.1-2 4-2.2 8.5-3 12.8-.3 1.4-.5 2.9-.8 4.3-1.2.7-1.9 1.8-2.4 3.1-2.1 2.6-2.3 4.5-.2 6.8 1.5 1.7 2.5 3.5 3.1 5.6.8 2.6 2.3 4.5 5 5.4v-.5c1.3.3 2.6.8 4 .6 1.4-.7 1.8-2 1.9-3.4.2-2.4-.4-4.7-1.6-6.8-.3-.6-.6-1.2-.9-1.7-.6-1.6-1.3-3.2-1.9-4.8-.1-.2-.2-.5-.3-.7v-1c.2-.3.5-.6.6-1 2-4.9 4.7-9.5 7.2-14.2 0-.2.3-.3.4-.4.5-1.3 1-2.6 1.6-3.8 1.3-3 1.6-6.1 1.3-9.3-.5-4.8-1-9.6-1.6-14.4-1-7.6-2.6-15-5.6-22-.2-.5-.6-1-.9-1.5v-7.1c.6-.9.6-1.9.6-3 .2-.3.5-.6.8-1.1 2.1.3 4.3.5 6.6.8 4.6.7 9 .1 13.4-1.3 2.4-.8 3.5-1.8 3.2-5.2-.2-1.7-.8-3.3-1.7-4.7-.8-1.2-1.7-2.4-2.5-3.7l-4.1-6.2c2.9-2.2 5.7-4.5 8.6-6.8 10.4-8 20.9-15.9 31.3-23.9.8-.6 1.8-.9 1.9-2.1.7 0 1.3 0 1.9-.5 1.3-1 2.6-2.1 4-3 1-.6 1.3-1.4 1.2-2.5Zm-58.3 41.2c-.4.4-.8.7-1.2 1.1-.1-.4-.2-.8-.4-1.2.5 0 1 0 1.5.1Zm-43.9 28.6c-1.6-.6-2.3-1.5-2.5-3.2-.2-3-.7-6.1-1-9.1-.2-2.1-.2-4.3 0-6.2.4-.3.5-.5.7-.5l12.9-5.7c.3-.1.6 0 .9-.1.4 4.2.7 8.5 1.1 12.8-1.9 3.2-3.7 6.5-5.6 9.7-.7 1.1-1.3 2.2-1.5 3.5-.4.6-.9 1.2-1.8 1.1-.8-1.1-2-1.7-3.1-2.1Zm48.3-22.6a89 89 0 0 1 2.1 3.2c-2.6 1-5.1 1.6-7.6 2-.3-1.7-.7-3.3-1-4.9 1.2-1.5 2.8-2.6 4.5-3.5.7 1.1 1.3 2.2 2 3.3Z"/><path d="M147.1 309.7c-1.4 1-2.7.9-4.1 0v-.5c1.3.3 2.6.8 4 .6ZM105.4 269.8c-.3.7-.6 1.4-.9 2v-1.9c.3 0 .6-.1.9-.2Z"/></g><path fill="url(#b)" d="M18.6 175.7v1.1l-.5-.6.5-.5z"/><path fill="url(#a)" d="m289.7 121.4 6.8 15.4 40-89.3.6-1.4-.6-1.4V16.9l-6.3 13.9-40.5 90.6z"/><path fill="url(#d)" d="m300.1 143.4 6.9 15.4 19.5-43.6 10.6-23.6V60.9l-37 82.5z"/><path fill="url(#e)" d="m23.4 286.7.2-.2v.4l-.2-.2z"/><path fill="#91041b" d="M16.1 176.2 0 192.3v-30.6l.8-.8 1.5 1.6 13.8 13.7z"/><path fill="#ec1b37" d="M16.6 130.2v45.5l-.5.5-13.8-13.7-2.3-2.4v-46.6l16.6 16.7z"/><path fill="url(#f)" d="M33.4 333.9v-21.7h128.2v2l19.7 19.7H33.4z"/><circle cx="61.2" cy="251.9" r="59.7" fill="#e81d33"/><g fill="#fff"><path d="M71.7 292.9v6.1c0 1.5-1.3 2.8-2.8 2.8H55.2c-1.5 0-2.8-1.3-2.8-2.8v-13.7c0-1.5 1.3-2.8 2.8-2.8h6.2c.4 0 .8.3.8.8s-.3.8-.8.8h-5.9c-.9 0-1.7.8-1.7 1.7v13c0 .9.8 1.7 1.7 1.7h13c.9 0 1.7-.8 1.7-1.7V293c0-.4.3-.8.8-.8.4 0 .8.3.8.8ZM72.65 281.58a3.16 3.16 0 0 1 0 4.53l-.35.35-4.53-4.52.35-.36a3.16 3.16 0 0 1 4.53 0Z"/><path d="m71.5 287.3-6.8 6.8h-.3l-4.4.6c-.2 0-.5-.2-.5-.5l.6-4.4v-.3l6.8-6.8 4.5 4.5Z"/></g></svg>