<?xml version="1.0" encoding="UTF-8"?><svg id="Layer_1" xmlns="http://www.w3.org/2000/svg" width="335" height="335" xmlns:xlink="http://www.w3.org/1999/xlink" viewBox="0 0 335 335"><defs><linearGradient id="linear-gradient" x1="167.5" y1="7.82" x2="167.5" y2="327.2" gradientTransform="translate(0 335) scale(1 -1)" gradientUnits="userSpaceOnUse"><stop offset="0" stop-color="#f9ecd4"/><stop offset=".24" stop-color="#f3dfb9"/><stop offset=".5" stop-color="#efd5a4"/><stop offset=".76" stop-color="#eccf97"/><stop offset="1" stop-color="#ebcd93"/></linearGradient><clipPath id="clippath"><rect x="11.3" y="230.4" width="310.4" height="93.54" fill="none"/></clipPath></defs><path d="M0,0H335V335H0V0Z" fill="#231f20"/><path d="M7.8,7.8H327.2V327.18H7.8V7.8Z" fill="url(#linear-gradient)"/><path d="M323.5,10.4V324.6H11.5V10.4H323.5Zm3.7-2.6H7.8V327.2H327.2V7.8h0Z" fill="#fff"/><path d="M11.5,281.6H323.4v42.33H11.5v-42.33Z" fill="#8b9d76"/><g clip-path="url(#clippath)"><path d="M189.7,233.7q-.1,0-.2,.3c-.1,.3-.1,.6-.1,.9-.07,.16-.1,.33-.1,.5l.9,.2h.9v.3c0,.1,0,.4-.1,.5-.05,.23-.08,.46-.1,.7-.1,.5-.3,1.7-.4,2.1s-.1,.8-.3,1.6c-.02,.24-.05,.47-.1,.7,0,.2-.1,.5-.1,.8-.11,.22-.18,.46-.2,.7-.05,.23-.08,.46-.1,.7-.07,.19-.11,.4-.1,.6-.1,.1-.1,.4-.1,.5-.02,.17-.06,.34-.1,.5-.05,.23-.08,.46-.1,.7-.1,.3-.1,.6-.2,.7-.07,.6-.17,1.21-.3,1.8-.1,.4-.2,1.2-.3,1.6s-.1,.5-.1,.7c-.12,.39-.19,.79-.2,1.2l-.4,1.7c-.1,1-.2,1.4-.2,1.6s-.2,.9-.3,1.7-.4,2-.5,1.9-.1,.1-.1,.2-.1,.4-.3,.4-.5,.1-.5,.3c-.27,.54-.47,1.11-.6,1.7,0,.3,.3,.6,.6,.9l.3,.2c0,.3-.04,.6-.1,.9-.1,.4-.2,1.1-.3,1.4s-.2,1-.2,1.3c-.06,.23-.09,.46-.1,.7l.8,.2,.2-.6c.1-.8,.4-2.5,.5-2.9,.06-.16,.09-.33,.1-.5h1.4c.6,.1,.7,.1,.9,.3s.2,.2,.2,.3l-.2,.3c-.02,.17-.06,.34-.1,.5l1.2,.6,1.3,.4,.8,.3,.9,.3,.8,.3,1.9,.6,.9,.2,1.1,.2,1,.2h1.5c1.21,.3,2.47,.37,3.7,.2h1.7c.1,0,.1,.2,.1,.3s0,.3-.1,.4-.3,.3-.4,.8v.5l-.5,.5-1.2,1.7q-.1,0-.1-.1c0-.1-.1-.1-.2,.2-.15,.31-.39,.55-.7,.7l-.9,.8c-.4,.2-.4,.3-.7,.3s-.4-.1-.1-.2,.7-.3,.8-.6c0-.08,.04-.15,.1-.2h-.3c-.23,.24-.57,.36-.9,.3-.43,0-.85-.15-1.2-.4l-.4-.3h.3c.45-.08,.87-.29,1.2-.6,.7-.5,1.1-.6,1.5-.5s.2-.2-.1-.3h-.6l-.8,.2c-.3,.2-.5,.3-.5,.2l.3-.3,1-.6c.3-.1,.2-.2-.2-.2-.56,.13-1.08,.4-1.5,.8-.6,.6-.8,.7-1.6,.4s-.6-.2-.3-.2c.36,0,.71-.1,1-.3l.2-.3c0-.2-.1-.2-.2,0-.24,.13-.53,.17-.8,.1l-1.5-.4-1-.2h-.2c.35-.25,.77-.39,1.2-.4,.4,0,.79,.14,1.1,.4,.2,.1,.3,0,.1-.2-.13-.29-.39-.51-.7-.6-.3-.1-.3-.2,.1-.2s.5-.1,0-.2h-1.1c-.41,0-.82,.06-1.2,.2l-.5,.2v-.2c0-.1,.1-.3,.1-.4s-.2-.6-.3-.6c0,.14-.03,.28-.1,.4-.04,.54-.39,1.01-.9,1.2-.3,.2-.6,.2-1.5,.3h-.8l1.3-.8,.3-.2c0-.1-.3-.1-.6,0-.43,.03-.84,.17-1.2,.4l-.3,.2c0-.1,.2-.3,.4-.5,.31-.26,.7-.4,1.1-.4h-.4c-.49,.02-.96,.24-1.3,.6l-.2,.2v-.7c-.04-.36-.18-.71-.4-1-.3-.4-.4-.4-.2,.3,.18,.3,.21,.67,.1,1h-.1v-.3c0-.14-.04-.28-.1-.4-.1,0-.2,.3-.3,.6s-.1,.5-.1,.5c-.06,0-.1-.04-.1-.1h0c0-.1-.1-.3-.2-.3s-.1,0-.1,.1-.2,.3-.7,.4h-.5q-.1,.1-.1-.2c0-.3,0-.4-.1-.4s-.1-.2-.1,.1c-.11,.31-.37,.54-.7,.6-.4,.11-.83,.08-1.2-.1h-1.5c.1-.1,.1-.2,.1-.4,.01-.14-.02-.28-.1-.4h-.1v.3c0,.16-.07,.31-.2,.4-.21,.21-.5,.32-.8,.3h-1c0-.13,.1-.23,.3-.3q.3-.2,.2-.2c-.65,.1-1.25,.42-1.7,.9-.43,.54-.77,1.15-1,1.8v.4h-.4c-1.25,.56-2.42,1.26-3.5,2.1-.3,.3-.5,.5-.5,.4s-.1-.2-.1-.3-1.4-2-1.9-2-.1,.1-.1,.3c.1,.33,.16,.66,.2,1,0,.4,.1,.9,.1,1.1,.16,1.29,.19,2.6,.1,3.9-.11,.93-.08,1.88,.1,2.8,.1,1,.2,1.9,.2,2.1,.11,.35,.32,.66,.6,.9,.24,.12,.42,.34,.5,.6,.1,.5,.4,2.8,.5,4.1s.1,.9,.2,1.2,.1,.8,.2,1.1c0,.24,.04,.47,.1,.7l.4,.3,.7,.5c.8,.7,.9,.7,1.6,.7,.48,0,.96-.1,1.4-.3,.26-.08,.48-.26,.6-.5l.4-.5c.39-.19,.71-.51,.9-.9,.2-.3,.1-.6-.1-1.1-.25-.43-.25-.97,0-1.4,.27-.39,.44-.83,.5-1.3l.3-1c.08-.3,.18-.61,.3-.9,.1-.5,.1-.6,.4-.9,.34-.4,.54-.88,.6-1.4-.02-.27,.09-.53,.3-.7,.18-.12,.38-.19,.6-.2,.32,0,.64,.11,.9,.3,1.14,.65,2.03,1.67,2.5,2.9,.5,1.3,.7,2.4,.5,5.6-.03,1.33,.17,2.65,.6,3.9,.17,.34,.24,.72,.2,1.1,.04,.53,.21,1.05,.5,1.5,0,.1,.3,.4,.5,.7l.5,.6c.1,.3-.8,2-1.9,3.8l-1.1,1.7c-.33,.75-.81,1.43-1.4,2-.41,.35-.72,.8-.9,1.3-.19,.27-.33,.58-.4,.9-.26,.54-.43,1.11-.5,1.7-.1,.4-.3,1-.8,2.4-.32,1.06-.72,2.1-1.2,3.1-.28,.46-.48,.97-.6,1.5-.15,.42-.22,.86-.2,1.3,0,.78-.1,1.55-.3,2.3,0,.2-.1,.5-.1,.6s-.1,.5-.1,.7c-.1,.33-.1,.67,0,1,0,.3,.1,.9,.1,1.4,.02,.3,.05,.6,.1,.9,.1,.4,.3,.4,.7,.2,.72-.53,1.39-1.14,2-1.8q1-.9,.9-1.7c-.1-.44-.3-.86-.6-1.2-.28-.2-.49-.48-.6-.8-.1-.3,0-.5,.5-1,.47-.4,.76-.98,.8-1.6,.08-.71,.21-1.41,.4-2.1,.3-.7,.8-2.2,1.1-3,.4-.77,.87-1.51,1.4-2.2,.9-1.12,1.95-2.13,3.1-3l1.2-1,.9-.8c.1-.1,.1,0,0,.2s-.2,.5-.3,.9l-.7,1.6-.5,.9v1c0,1.4,.1,2,.6,2.6,.72,1.03,1.32,2.14,1.8,3.3,.36,.98,.83,1.92,1.4,2.8,.4,.7,.8,1,2.7,2.1l1.1,.8c.26,.32,.61,.56,1,.7l1.3,.6c.9,.4,1.1,.5,1.3,.2v-.7c-.1-.8-.6-3-.7-3.4s-.4-.3-.8-.5c-.37-.18-.8-.21-1.2-.1-.4,.07-.82,.04-1.2-.1-.1,0-.1-.1-.1-.2-.12-.56-.4-1.08-.8-1.5-1.08-1.14-1.96-2.46-2.6-3.9l-.3-.7v-1c-.08-.72,.06-1.45,.4-2.1,.69-.86,1.32-1.76,1.9-2.7,.88-1.45,1.88-2.82,3-4.1h.6l5.7,.5c1.77,.1,3.53,.1,5.3,0l4.3-.8,3.9-.9,.4,.4c.05,.23,.08,.46,.1,.7,.05,.52,.18,1.03,.4,1.5l3.7,3.7,1.2,1c1.02,.93,2.13,1.77,3.3,2.5l1.2,.7c.7,.37,1.31,.88,1.8,1.5,.4,.6,.5,.9,.4,1.2-.54,1.46-1.2,2.86-2,4.2-.81,1.43-1.71,2.8-2.7,4.1-.76,.69-1.6,1.3-2.5,1.8-.25,.15-.45,.35-.6,.6-.26,.43-.56,.83-.9,1.2q-1,1.4,1.5,1.4h2c.3,0,.3-.1,.5-.3,.35-.4,.59-.88,.7-1.4v-.4l.5-.5,.7-.2,.8-.3c.4-.2,1-1,2.2-3.5,.67-1.45,1.44-2.85,2.3-4.2l1.1-1.8,.9-1.5,.6-.9c.3-.5,.3-.4,.3-1.8s-.2-.7-1.2-1.1l-.9-.5-.9-.5c-.54-.27-1.04-.61-1.5-1-.45-.6-.85-1.23-1.2-1.9q-.3-.6-.3-1v-.4h.7c.75,.64,1.46,1.35,2.1,2.1,1.38,1.62,3.04,2.97,4.9,4,.82,.35,1.52,.94,2,1.7,.19,.39,.47,.73,.8,1,.76,.85,1.46,1.75,2.1,2.7,.45,.64,.85,1.31,1.2,2,2.8,4.8,3.2,5.9,3.1,7.7,.04,.3,0,.61-.1,.9l-1,1.7c-.37,.44-.71,.91-1,1.4,0,.1,.1,.2,.2,.3,1.43,.17,2.88,.13,4.3-.1,.2-.1,.4-.5,.7-1,.18-.3,.21-.67,.1-1-.28-.78-.48-1.58-.6-2.4-.17-.69-.14-1.42,.1-2.1,.2-.51,.2-1.09,0-1.6-.33-.73-1.03-2.03-2.1-3.9l-.8-1.2c-.22-.39-.42-.79-.6-1.2l-1.6-2.9c-.41-.83-.75-1.7-1-2.6-.08-.4-.26-.77-.5-1.1l-.5-.5-2.4-2.2c-.52-.5-.96-1.07-1.3-1.7-.56-.83-1.07-1.7-1.5-2.6-.11-.7-.11-1.4,0-2.1v-1.7c0-.5,.1-1.4,.1-2.1,.11-.56,.11-1.14,0-1.7-.18-1.15-.56-2.27-1.1-3.3-.38-.73-.68-1.5-.9-2.3v-.2h.2c.8-.07,1.6,.1,2.3,.5,.91,.69,1.46,1.76,1.5,2.9-.03,.17,0,.35,.1,.5v1.6c.19-.41,.3-.85,.3-1.3,.1-.6,.2-.5,.2,.2-.02,1.02-.19,2.03-.5,3-.13,.57-.37,1.11-.7,1.6l-.2,.3c.1,.1,.4-.2,.6-.5,.56-.76,.91-1.66,1-2.6,.14-.96,.17-1.93,.1-2.9-.13-1.06-.47-2.08-1-3q-.1-.2,0-.1c.16,.1,.3,.24,.4,.4,.9,1.13,1.33,2.56,1.2,4,0,.6,.1,.7,.2,.3,.24-.5,.34-1.05,.3-1.6v-.3c.1,1.03,.1,2.07,0,3.1-.25,1.34-.65,2.65-1.2,3.9l-1,1.6c-.06,.05-.09,.12-.1,.2,.1,.1,.5-.1,.9-.5,1.3-1.51,2.07-3.41,2.2-5.4,.01-.27,.05-.54,.1-.8,.1-.3,.1,.2,0,1-.1,1.5-.51,2.96-1.2,4.3-.13,.26-.23,.52-.3,.8,.1,.1,.7-.7,1-1.2,.37-.9,.63-1.84,.8-2.8,.1-1.33,.1-2.67,0-4-.2-1.27-.64-2.49-1.3-3.6l-.2-.3c.1-.1,.6,.3,1,.7,.58,.61,.96,1.37,1.1,2.2,.1,1.1,.1,2.2,0,3.3-.1,.8-.2,1.1-.1,1.1,.34-.4,.54-.88,.6-1.4,.1-.3,.1-.4,.1-.2-.12,.88-.29,1.74-.5,2.6-.37,1.13-.57,2.31-.6,3.5-.1,.69,.04,1.4,.4,2,.27,.57,.73,1.03,1.3,1.3,.4,.2,.4,.1-.1-.6-.34-.42-.61-.89-.8-1.4,0-.3,0-.5,.1-.3,.22,.4,.53,.74,.9,1,.1,0,.1-.2-.2-.6-.26-.49-.4-1.04-.4-1.6-.05-.36-.05-.74,0-1.1,.13-.61,.3-1.21,.5-1.8v.4c-.15,.74,.04,1.51,.5,2.1,.27,.38,.65,.66,1.1,.8,.2,0,.2-.1-.1-.3-.52-.41-.9-.97-1.1-1.6-.11-.53-.08-1.09,.1-1.6,.1-.3,1-2.5,1.1-2.6v.6c-.03,1.33,.17,2.65,.6,3.9,.43,1.51,1.18,2.91,2.2,4.1,.8,1.2,1,1.5,1,1.9-.02,.34-.16,.66-.4,.9,.1,.1,.4-.2,.6-.5,.09-.19,.12-.39,.1-.6,0-.6-.1-.8-1.2-2.4-.44-.52-.81-1.09-1.1-1.7,.72,.61,1.39,1.28,2,2,.31,.39,.55,.83,.7,1.3,.02,.17,.06,.34,.1,.5q.1,.2,.2,.1c.05-.4,.05-.8,0-1.2,0-.2-.1-.3,0-.3,.17,.28,.3,.59,.4,.9,.09,.22,.12,.46,.1,.7,.03,.27,0,.55-.1,.8l-.7,.9c-.2,.4-.5,.6-.5,.7s.2,.1,.4-.1c.75-.36,1.33-1.01,1.6-1.8,.11-.53,.08-1.09-.1-1.6v-.3l1.2,1.2c.71,.8,1.23,1.76,1.5,2.8,.13,.59,.2,1.19,.2,1.8,0,.2,0,.4,.1,.4,.06-.12,.09-.26,.1-.4,.19-.72,.22-1.47,.1-2.2-.1-.72-.37-1.41-.8-2-.3-.5,.6,.3,.9,.7,.88,1.2,1.4,2.62,1.5,4.1,0,.9,.1,1.1,.2,.9,.3-1.01,.33-2.07,.1-3.1-.36-1.63-1.33-3.06-2.7-4-1.39-.79-2.32-2.21-2.5-3.8,.02-.76,.19-1.51,.5-2.2v.4c.04,.76,.21,1.5,.5,2.2,.22,.64,.74,1.13,1.4,1.3l1,.2c1.3,.2,1.7,.4,2.1,1s.6,1.4,.6,3.3,0,1.7,.3,.3c.1-.86,.1-1.74,0-2.6-.06-.16-.09-.33-.1-.5,0-.1,.3,.4,.4,.7,.4,.95,.5,1.99,.3,3-.06,.19-.1,.4-.1,.6,.1,.1,.2-.1,.4-.5,.3-.48,.44-1.04,.4-1.6,.1-1.75-.79-3.41-2.3-4.3-.63-.38-1.21-.85-1.7-1.4-.33-.4-.33-.5,0-.3,.36,.22,.77,.36,1.2,.4,.8-.06,1.59,.28,2.1,.9,.62,.52,.99,1.29,1,2.1,0,.17,.03,.34,.1,.5,.1,0,.3-.6,.3-1.1-.09-.66-.29-1.31-.6-1.9-.36-.48-.8-.88-1.3-1.2-.37-.19-.78-.29-1.2-.3h-.1l1-.4h-.7c-.9,0-1.2-.1-1.5-.4-.18-.12-.33-.29-.4-.5-.22-1.29-.22-2.61,0-3.9,.2-3.3,0-4.7-.7-6.1-.58-.96-1.37-1.78-2.3-2.4-.61-.25-1.25-.42-1.9-.5-1.93-.07-3.87-.03-5.8,.1h-1.1l-3,.5-3.8,1.2c-1.24,.6-2.63,.84-4,.7-1.2-.2-1.9-.5-4.8-2.1-1.34-.66-2.81-1.03-4.3-1.1h-2.7l-3.3,.2q-1.1,.1-.6-.1l1.4-1c.79-.44,1.39-1.15,1.7-2,.1-.4,.4-.5,1.3-.3s2.2-.1,2.4-.8,.1-.3-.8-.8-1.1-.6-1.1-.8l.4-.2,.8-.4c.39-.28,.65-.72,.7-1.2-.1-.2-.2-.2-.5-.2-.87,.02-1.73-.19-2.5-.6-1.32-.69-2.45-1.68-3.3-2.9-.3-.49-.64-.96-1-1.4l-.6-.7-1.6-2.2c-.4-.56-.87-1.06-1.4-1.5-1.2-.9-1.6-1.5-1.7-2.3s-.1-.4-.3-.8c-.45-.67-1.12-1.17-1.9-1.4-.38-.03-.73-.26-.9-.6l-.5-.6-.2-.2v-.3c.1-.1,.1-.3,.2-.4,0-.4,.03-.8,.1-1.2,.1-.7,.1-.8,0-1.1-.11-.7-.51-1.31-1.1-1.7q-.4-.2-.4-.5c-.01-.26-.17-.49-.4-.6-.23-.2-.57-.2-.8,0h-.6c-.48-.19-1.02-.19-1.5,0-.71,.13-1.33,.57-1.7,1.2-.5,.7-.7,1-1,1.1l-.8,.3c-1.1,.2-1.4,.4-1.2,.8s.1,.3,.1,.4c.35,.28,.76,.48,1.2,.6q.5,.2,.5,.4c0,.2,0,.4-.4,.9s-.3,.5,.1,.9l.3,.3v.3q-.1,.2,0,.3c.1,.1,.2,.2,.1,.3,0,.11,.03,.22,.1,.3,.1,0,.1,.2,.1,.3s.4,.7,1.3,.5,.6-.1,.9,.2c.19,.19,.19,.51,0,.7-.3,.3-.6,.3-1,0l-.4-.2h-1.5c-.81,.04-1.61-.03-2.4-.2h-1.1c-.72-.03-1.42-.16-2.1-.4l-.9-.2c-1.06-.16-2.1-.43-3.1-.8l-.9-.2-1.5-.4-1.1-.5c-.39-.32-.7-.73-.9-1.2-.1-.2-.2-.4-.3-.4s-.1-.1,0-.9c.5-2.5,.7-3.3,.7-3.4s.1-.3,.2-.5,.1-.6,.1-.9,.4-2.2,.5-2.7,.1-.6,.2-.7c-.01-.27,.02-.54,.1-.8,0-.2,.1-.6,.1-.7,.05-.23,.08-.46,.1-.7,.1-.2,.2-.8,.3-1.1,0-.41,.08-.81,.2-1.2,.03-.54,.13-1.08,.3-1.6,0-.24,.03-.47,.1-.7,.02-.24,.05-.47,.1-.7,.03-.24,.1-.48,.2-.7,0-.3,.1-.6,.1-.8,.05-.23,.08-.46,.1-.7,.07-.23,.1-.46,.1-.7,.1-.1,.1-.5,.2-.7,.02-.24,.05-.47,.1-.7,0-.2,.1-.5,.1-.7,.1-.29,.17-.59,.2-.9s.1-.61,.2-.9q.1-.6,.2-.6l1,.2h.9c.2-.51,.34-1.05,.4-1.6l-1.4-.4-2.3-.4-1.2-.3Zm5.4,36l-.5,.4c-.2,.21-.43,.38-.7,.5-.1-.1,.5-.7,.8-.8l.4-.1Zm.6,1.5c.3,0,.5,.1,.3,.2l-1.4,.4h-.7c.32-.25,.7-.42,1.1-.5l.7-.1Zm11.6,2c.1-.1,.7,.4,.7,.7s-.3,.4-.6,.6c-.58,.21-1.19,.31-1.8,.3,0-.11,.04-.21,.1-.3,.35-.46,.79-.83,1.3-1.1l.3-.2Zm1.1,.8l.4,.3,.9,.7c.56,.25,1,.72,1.2,1.3,.24,.65,.75,1.16,1.4,1.4,.6,.3,.7,.4,.7,.6,0,.25-.06,.49-.2,.7-.1,0-.1-.1-.2-.2s-.3-.3-.5-.3-.3,0-.5,.3l-.4,.3v-.4c0-.5-.1-.7-.2-.3-.04,.21-.1,.41-.2,.6-.6,1.09-1.76,1.74-3,1.7h-.4c.64-.05,1.25-.34,1.7-.8,.3-.4,.3-.5-.2-.3-.33,.29-.76,.44-1.2,.4l-1-.2c.1,0,.5-.4,.4-.5h-.3c-1,.2-1.4,0-1.8-.9-.08-.21-.18-.41-.3-.6l-.3-.3c0-.1,.6,.1,1.2,.4l1,.4c.49,.13,1,.17,1.5,.1l.6-.3h-.4c-.59,0-1.17-.15-1.7-.4l-1.1-.5-.4-.2c.1-.1,.9,.1,1.3,.2l.6,.2-.6-.6q-.2-.1-.1-.1c.49-.03,.97,.08,1.4,.3l.7,.3c.1,.12,.25,.19,.4,.2,.3,0-.3-.6-.9-.9l-.3-.3,1.1,.6,.8,.6c.3,.4,.4,.4,.4,.3-.12-.4-.32-.78-.6-1.1-.53-.55-1.18-.96-1.9-1.2h-.3l1.1-.2h.9c.4,.2,.5,.2,.2-.1-.27-.25-.63-.4-1-.4h-.2c-.1,0,0-.1,.1-.2s.1-.3,.1-.4c-.06-.03-.08-.09-.05-.15,.03-.06,.09-.08,.15-.05h0Z" fill="#8b9d76"/></g><g><path d="M34.9,22c.01,.3-.1,.58-.3,.8l-3.7,3.7-4-2.3v-2.3c0-.61,.49-1.1,1.1-1.1,.03,0,.07,0,.1,0,.63,0,1.15,.48,1.2,1.1v2.9l3.6-3.7c.5-.38,1.2-.38,1.7,0,.22,.25,.33,.57,.3,.9m-1.2,10.6h-.4l-.4-.3-3.6-3.6v2.8c-.05,.64-.56,1.15-1.2,1.2-.66,0-1.2-.54-1.2-1.2h0v-2.3l4-2.2,3.7,3.7c.45,.41,.48,1.11,.07,1.55-.25,.27-.61,.4-.97,.35m-3-6h-.1l-1-.6-2.7-1.5-2.2-1.3c-.2-.1-.3-.1-.4,.1v6.8c0,.2,.1,.3,.2,.3h.2l2.2-1.3,3.7-2.2h.1v-.3Zm-.9,.2h-.1l-2.8,1.6-1.8,1c-.07,.08-.2,.09-.28,.02l-.02-.02v-5.3c0-.11,.09-.2,.2-.2h.1l1.8,1,2.8,1.6c.07,.08,.11,.19,.1,.3Z" fill="#231f20"/><path d="M29,26.8h-.1l-2.1,1.3-1.3,.7h-.2v-4h.2l1.3,.7,2.1,1.3h.1" fill="#231f20"/><g><path d="M54.2,26.6c0-.1-.1-.1-.1-.2l-3.3-1.6-2-1c-.1-.1-.3,0-.3,.2v5.4c0,.2,.2,.3,.4,.2l2-1.1,3.2-1.7h.1v-.2Zm-.8,.1c0,.06-.04,.1-.1,.1l-2.5,1.3-1.5,.8c-.09,.06-.22,.04-.28-.05,0-.01-.02-.03-.02-.05v-4.2c0-.11,.09-.2,.2-.2h0l1.6,.8,2.5,1.3q.1,0,.1,.1v.1Z" fill="#231f20"/><path d="M52.7,26.7h-.1l-1.8,1-1.2,.7h-.2v-3.3q0-.1,.1-.1h.1l1.1,.6,1.9,.9h.1m-15.4-2.6h2.8c1.4-.1,2.4,.7,2.4,1.8-.11,1.18-1.12,2.06-2.3,2h-1.5v1.8h-1.3l-.1-5.6Zm2.7,2.7c.7-.1,1.1-.4,1.1-.9s-.5-.7-1.1-.7h-1.4v1.6h1.4Zm7.8,1.9v1.1h-4.5v-5.6h1.3v4.5h3.2Zm7.9-1.1l-2.5-3.5h1.5l1.6,2.5,1.6-2.5h1.5l-2.4,3.5v2h-1.3v-2Zm4.6-3.3h.7v3.2l3.1-3.2h1l-2.7,2.6,2.9,3h-.9l-2.4-2.6-1,1v1.7h-.7v-5.7Zm5.5,2.8c.05-1.67,1.43-3,3.1-3,1.71-.11,3.19,1.18,3.3,2.89h0c.03,1.78-1.38,3.24-3.15,3.26-1.77,.03-3.22-1.38-3.25-3.15Zm5.7-.1c-.03-1.38-1.17-2.48-2.55-2.45-1.38,.03-2.48,1.17-2.45,2.55,.1,1.3,1.19,2.3,2.5,2.3,1.34,0,2.45-1.06,2.5-2.4Zm1.6,2.1l.5-.5c.52,.54,1.25,.84,2,.8,1,0,1.5-.5,1.5-1s-.6-.8-1.7-1-2.1-.6-2.1-1.6,.9-1.6,2.1-1.6c.8-.08,1.6,.17,2.2,.7l-.4,.5c-.52-.4-1.14-.65-1.8-.7-.8,0-1.4,.5-1.4,1s.6,.8,1.7,1,2.1,.6,2.1,1.6-.7,1.7-2.2,1.7c-.92,.02-1.81-.3-2.5-.9Zm6-4.8h.7l2.4,3.9,2.3-3.9h.7v5.6h-.7v-4.2l-2.3,3.9-2.4-3.9v4.3h-.7v-5.7Zm7.5,2.8c.11-1.69,1.51-3,3.2-3,1.68-.06,3.09,1.23,3.2,2.9,.03,1.77-1.38,3.22-3.15,3.25-1.77,.03-3.22-1.38-3.25-3.15Zm5.7-.1c-.03-1.38-1.17-2.48-2.55-2.45-1.38,.03-2.48,1.17-2.45,2.55,.1,1.3,1.19,2.3,2.5,2.3,1.34,0,2.45-1.06,2.5-2.4Zm1.6,2.1l.5-.5c.53,.52,1.25,.81,2,.8,1,0,1.5-.5,1.5-1s-.6-.8-1.7-1-2.1-.6-2.1-1.6,.9-1.6,2.1-1.6c.8-.08,1.6,.17,2.2,.7l-.4,.5c-.51-.42-1.14-.66-1.8-.7-.8,0-1.4,.5-1.4,1s.7,.8,1.7,1,2.1,.6,2.1,1.6-.7,1.7-2.2,1.7c-.92,.02-1.81-.3-2.5-.9Z" fill="#231f20"/></g></g><path d="M43.3,128.7h119.1v12.4H43.3v-12.4Zm128.7,0h119.2v12.4h-119.2v-12.4Z" fill="#be1e2d"/><circle cx="267.9" cy="223.6" r="54" fill="#231f20"/><circle cx="267.9" cy="223.6" r="50.6" fill="#be1e2d"/><circle cx="267.9" cy="223.6" r="49.5" fill="#fff"/><circle cx="267.9" cy="223.6" r="48.4" fill="#2e3191"/><g><path d="M39.1,161.3c-.21-2.12-1.6-3.95-3.6-4.7-1.64-.76-3.56-.65-5.1,.3-1.78,.91-2.93,2.7-3,4.7,0,1.27,.34,2.52,1,3.6,.85,1.56,1.85,3.04,3,4.4l.2,.4c.1,.3,.3,.3,.4,.5,.1,.2,.7,.8,1,1.3s.3,.3,.4,0c.56-.62,1.06-1.29,1.5-2,.1,0,.1-.1,.2-.2,1.15-1.42,2.18-2.92,3.1-4.5,.69-1.14,1.01-2.47,.9-3.8Zm-2.7,1.9c-.3,0-.5-.1-.6-.5l-.3-.2c-.45-.14-.83-.42-1.1-.8q-.2-.2-.3,0c-.36,.24-.52,.69-.4,1.1,0,.59,.22,1.15,.6,1.6,.31,.47,.42,1.05,.3,1.6-.04,.16-.08,.33-.1,.5h-.2c-1.07-.07-2.1-.42-3-1-.87-.64-1.42-1.62-1.5-2.7,.02-.41,.08-.81,.2-1.2h.1c-.3,0-.5,.2-.8,.3,0-.11,.03-.22,.1-.3,.29-.61,.74-1.13,1.3-1.5l.8-.6h-.7v-.2c.9-.81,2.12-1.14,3.3-.9h.2c.3-.35,.67-.63,1.1-.8-.1,.1-.1,.3-.2,.5l.3-.2h.1c-.08,.19-.11,.39-.1,.6,.05,.31,.16,.62,.3,.9,.35,.49,.61,1.03,.8,1.6l.3,.7c.1,.2,.2,.3,.2,.5,.06,.46-.24,.9-.7,1h0Z" fill="#231f20"/><path d="M31.6,170c.1,.3,.3,.3,.4,.5,.1,.2,.7,.8,1,1.3s.3,.3,.4,0c.56-.62,1.06-1.29,1.5-2,.79,.13,1.54,.44,2.2,.9,.5,.24,.7,.84,.46,1.34-.1,.2-.26,.37-.46,.46-.76,.46-1.62,.73-2.5,.8-1.24,.13-2.49,.07-3.7-.2-.53-.11-1.04-.31-1.5-.6-.51-.21-.75-.8-.54-1.31,.09-.21,.24-.38,.44-.49,.6-.41,1.28-.68,2-.8,.09-.06,.22-.04,.28,.05,0,.01,.02,.03,.02,.05Z" fill="#231f20"/></g><path d="M296.2,135.4c0-.4,.14-.79,.4-1.1l.6-1.2c.32-1.12,.79-2.2,1.4-3.2,.35-.5,.55-1.09,.6-1.7,.02-.4-.02-.81-.1-1.2,0,0-.1-.1,0-.1h.1l.6,.4c-.04-.38-.14-.75-.3-1.1,.75,.42,1.43,.96,2,1.6,.1,.2,.3,.2,.5,.2,2.27-.45,4.61,.22,6.3,1.8,.1,.1,.2,.1,.2,.3l-1.4-.2,1.6,1.2c1.04,.77,1.89,1.76,2.5,2.9,0,.2,.1,.3,.1,.6-.45-.27-.91-.51-1.4-.7v.2c.33,.69,.46,1.44,.4,2.2-.12,2.09-1.19,4-2.9,5.2-1.71,1.12-3.67,1.81-5.7,2-.17,0-.3-.13-.3-.3-.12-.32-.19-.66-.2-1-.26-1.04-.04-2.14,.6-3,.61-.89,.99-1.92,1.1-3,.18-.81-.09-1.65-.7-2.2-.3-.3-.4-.3-.6,.1-.57,.73-1.33,1.28-2.2,1.6-.3,0-.4,.1-.5,.4-.15,.57-.72,.93-1.3,.8-.77,0-1.4-.62-1.4-1.4,0-.03,0-.07,0-.1h0Z" fill="#be1e2d"/><path d="M36.9,137c-.58,.13-1.15-.23-1.3-.8-.1-.3-.2-.4-.5-.4-.87-.32-1.63-.87-2.2-1.6q-.3-.4-.6-.1c-.61,.55-.88,1.39-.7,2.2,.11,1.08,.49,2.11,1.1,3,.64,.86,.86,1.96,.6,3,0,.34-.08,.68-.2,1,0,.17-.13,.3-.3,.3h0c-2.06-.21-4.05-.89-5.8-2-1.65-1.24-2.68-3.14-2.8-5.2-.06-.76,.07-1.51,.4-2.2v-.2c-.49,.19-.95,.43-1.4,.7-.02-.21,.01-.41,.1-.6,.61-1.14,1.46-2.13,2.5-2.9l1.6-1.2-1.4,.2c0-.2,.1-.2,.2-.3,1.69-1.58,4.03-2.25,6.3-1.8,.19,.02,.37-.06,.5-.2,.57-.64,1.25-1.18,2-1.6-.16,.35-.26,.72-.3,1.1l.5-.4h.2c.1,0,0,.1,0,.1-.08,.39-.12,.8-.1,1.2,.01,.6,.19,1.19,.5,1.7,.64,1,1.14,2.07,1.5,3.2,.14,.43,.34,.83,.6,1.2,.26,.31,.4,.7,.4,1.1,.06,.77-.53,1.44-1.3,1.5-.03,0-.07,0-.1,0h0Zm-3.4,54.2c-.2,.1-.4-.1-.5-.3s-.1-.2-.2-.2c-.43-.12-.79-.41-1-.8h-.3c-.27,.26-.42,.62-.4,1,.07,.48,.28,.93,.6,1.3,.25,.42,.33,.93,.2,1.4v.5h-.2c-.93-.06-1.83-.37-2.6-.9-.74-.54-1.22-1.38-1.3-2.3,.02-.37,.09-.74,.2-1.1l-.6,.3c-.06,0-.1-.05-.1-.1,0-.05,.04-.1,.1-.1,.26-.52,.63-.96,1.1-1.3l.8-.6h-.6c.76-.75,1.86-1.05,2.9-.8h.2c.25-.29,.56-.52,.9-.7-.1,.1-.1,.2-.1,.4h.3c-.07,.16-.11,.33-.1,.5,.1,.3,.1,.6,.3,.8,.3,.45,.51,.96,.6,1.5l.3,.5c.1,.2,.2,.3,.2,.5-.05,.33-.36,.55-.68,.5h-.02Z" fill="#be1e2d"/><path d="M33.5,212.1c-.24,0-.45-.16-.5-.4l-.2-.2c-.42-.08-.78-.34-1-.7q-.2-.2-.3,0c-.28,.25-.43,.62-.4,1,.12,.47,.32,.91,.6,1.3,.27,.42,.34,.93,.2,1.4v.4h-.2c-.93-.06-1.83-.37-2.6-.9-.78-.51-1.26-1.37-1.3-2.3,.02-.34,.09-.68,.2-1l-.6,.3c-.1-.2,0-.2,0-.3,.31-.48,.68-.91,1.1-1.3l.8-.5h-.6c.79-.7,1.86-1,2.9-.8h.2c.25-.29,.56-.52,.9-.7-.1,.15-.13,.33-.1,.5l.2-.2h.1c-.1,.15-.13,.33-.1,.5,.07,.28,.17,.54,.3,.8,.3,.42,.51,.89,.6,1.4l.3,.6c.1,.11,.17,.25,.2,.4,0,.4-.2,.6-.7,.7Z" fill="#231f20"/><path d="M28.3,230.6H106.2v10.21H28.3v-10.21Z" fill="#fff"/><path d="M34.2,260.9c.06,.33-.15,.64-.48,.7-.07,.01-.15,.01-.22,0-.24,0-.45-.16-.5-.4l-.2-.2c-.42-.08-.78-.34-1-.7q-.2-.1-.3,0c-.27,.26-.42,.62-.4,1,.1,.47,.3,.92,.6,1.3,.27,.42,.34,.93,.2,1.4v.5h-.2c-.92-.1-1.81-.41-2.6-.9-.74-.54-1.22-1.38-1.3-2.3,.02-.37,.09-.74,.2-1.1-.2,0-.4,.2-.6,.3s0-.2,0-.3c.31-.48,.68-.91,1.1-1.3l.8-.5h-.7c0-.1,.1-.1,.1-.2,.81-.67,1.86-.96,2.9-.8h.2c.22-.34,.53-.62,.9-.8-.08,.15-.12,.33-.1,.5l.2-.2h.1c-.08,.15-.12,.33-.1,.5,.1,.3,.1,.6,.3,.8,.3,.42,.51,.89,.6,1.4l.3,.6c.12,.14,.19,.32,.2,.5" fill="#231f20"/><path d="M257,19.7h66.1v14.2h-66.1v-14.2Z" fill="#be1e2d"/></svg>