<?xml version="1.0" encoding="UTF-8"?>
<svg id="uuid-9a6a94d6-dd50-4026-bfd1-d7a5e81f5953" data-name="Layer 1" xmlns="http://www.w3.org/2000/svg" width="335" height="335" xmlns:xlink="http://www.w3.org/1999/xlink" viewBox="0 0 335 335">
  <defs>
    <linearGradient id="uuid-b7ae53be-59cf-44db-a646-e3a9fe8735eb" x1="169.7" y1="-4.9" x2="165.6" y2="317.4" gradientTransform="matrix(1, 0, 0, 1, 0, 0)" gradientUnits="userSpaceOnUse">
      <stop offset="0" stop-color="#f25c05"/>
      <stop offset="1" stop-color="#f07508"/>
    </linearGradient>
  </defs>
  <rect y=".8" width="335" height="334.2" fill="url(#uuid-b7ae53be-59cf-44db-a646-e3a9fe8735eb)"/>
  <rect y=".8" width="335" height="334.2" fill="url(#uuid-b7ae53be-59cf-44db-a646-e3a9fe8735eb)" opacity=".8"/>
  <rect x="0" y="214.2" width="335" height="121.8"/>
  <g>
    <path d="M158.3,46.8c-.1-2.1-.2-4.2-.3-6.4,0-1.2,0-2.3,0-3.5,0-1.2,0-2.5,0-3.7,0-1.8,0-3.6,0-5.5,0-2.1,0-4.2-.1-6.4-.5-1-1.1-1.9-1.6-2.9-6-5.7-5.4-12.6-4.4-19.5-2.8,0-5.5-.2-8.1-.8,1.5,7.8,2.6,15.7,3.1,23.7,0,1.3,.2,2.6,.2,3.9,0,1.3,0,2.6,.1,3.9,0,.9,0,1.8,0,2.7,0,4.5-.2,9.1-.5,13.7,0,.6,.1,1.2,.2,1.9,2,.3,2.7,1.4,2.5,3.3-1.5,16.3-5.5,32-11.5,47.2-.9,2.3-1.9,4.7-2.9,7-1.3,3-2.6,5.9-4,8.8-2.2,4.8-4.5,9.6-6.8,14.4h0c-.8,2.9-1.4,5.7-2.2,8.5-.4,1.3-.8,2.6-1.2,3.9-.2,.6-.6,1.1-1,1.6-.1,.2-.3,.3-.4,.5-.2,.2-.3,.3-.5,.5-.5,.5-1,1-1.4,1.5,0,0-.2,.1-.2,.2h0s0,0,0,0c-1.4,.4-2.8,.7-4.3,1-1.5,.3-3,.6-4.4,.9-.6,2.4-1.7,4.3-4.7,4.4h-.2c-4.2,5-8.7,9.8-13.4,14.2,.4,.6,.7,1.1,1.1,1.7-1.1,0-2,0-2.9,0-1.3,0-2.5,0-3.9,0,.4,1.5,.3,2.7-.2,3.7-.8,1.9-2.8,3.1-4.7,4.2-.3,.2-.7,.4-1,.6-2.5,1.2-5.2,2-7.8,2.9,.7,.5,1.4,1,2.1,1.5,.8,.6,1.6,1.1,2.5,1.7,.3,0,.6,0,.9,0,.3,0,.6,0,.9,0-.7,.8-1.5,1.6-2.3,2.4-.6,.4-1.3,.9-1.9,1.3-1.5,1-3,2.1-4.5,3-7.1,4.6-14.5,8.5-22,11.8-8,3.5-16.1,6.4-24.5,8.5-4,1-8,1.9-12.1,2.7-3.2,.6-6.4,1.1-9.7,1.5v15.3s0,0,0,0c.5,0,1,0,1.4-.2,.2,0,.3,0,.4,0,.4,0,.9-.1,1.3-.2,.7-.1,1.4-.2,2.1-.4,.7-.1,1.4-.3,2.2-.4,.8-.2,1.5-.3,2.3-.5,.6-.1,1.1-.3,1.7-.4,.2,0,.3,0,.5-.1,.4-.1,.8-.2,1.2-.3,1.4-.3,2.9-.6,4.3-.8,.6,0,1.2-.2,1.8-.3h0c2.8-.5,5.5-1.1,8.1-2,.3-.1,.6-.2,.9-.3,.7-.3,1.3-.6,2-1,.3-.1,.5-.3,.8-.4,.7-.4,1.4-.9,2.1-1.5,.2-.1,.4-.3,.6-.4,.2-.1,.4-.2,.6-.3,1.3-.6,3-.8,4.5-1,0,0,.1,0,.2,0,.2,0,.4,0,.6,0,.6,0,1.3,0,1.9,0h.4c.2,0,.3,0,.5,0h0c.3,0,.6,0,.8,0,0,0,.2,0,.2,0,.1,0,.2,0,.4,0,.1,0,.2,0,.3,0,0,0,.2,0,.3,0,.1,0,.2,0,.4-.2,2-1,4-2,6.1-2.9,1-.4,2-.9,3-1.3,.4-.2,.7-.3,1.1-.5,2.9-1.2,5.7-2.4,8.5-3.7,.4-.2,.9-.4,1.3-.6,1.2-.6,2.4-1.2,3.6-1.9,.3-.1,.6-.3,.8-.5,.4-.2,.7-.4,1.1-.7,.4-.3,.9-.5,1.3-.8,.2-.1,.4-.3,.7-.4,.4-.3,.8-.6,1.2-.9,.7-.5,1.4-1,2-1.6,.4-.3,.7-.6,1.1-1,.7-.6,1.4-1.3,2.2-1.9,.4-.3,.8-.6,1.1-.9,.4-.3,.8-.6,1.2-.9h0c.5-.4,1.1-.7,1.7-1,.6-.3,1.2-.6,1.8-.9,.3-.1,.6-.2,.9-.4,.2,0,.4-.2,.7-.2,.4-.1,.7-.2,1.1-.3,.4,0,.9-.2,1.3-.2,.3,0,.6,0,.8,0,.3,0,.7,0,1,0,.6,0,1.1,0,1.7,0,.3-.4,.6-.9,.9-1.4,1.2-1.9,2.4-3.9,3.9-5.5,1.2-1.2,2.4-2.4,3.5-3.5,1.4-1.4,2.9-2.8,4.4-4.2,1.5-1.5,3.1-3,4.6-4.4,.6-.6,1.2-1.2,1.8-1.8,1-.9,1.9-1.9,2.8-2.8,.6-.6,1.3-1.3,1.9-1.9,1-1,2-2.1,3-3.1,.2-.2,.4-.5,.7-.7,.3-.3,.6-.6,.8-.9,.3-.3,.6-.6,.8-.9,.5-.6,1-1.3,1.5-1.9,.4-.5,.8-1,1.2-1.5,.4-.5,.8-1,1.1-1.6,2.1-2.9,4.1-5.9,6.3-8.8-.3-.2-.5-.4-.7-.7-.1-.1-.2-.2-.3-.4-.3-.4-.6-.7-.8-1.1-.2-.2-.3-.5-.4-.7-.3-.5-.4-1-.6-1.6,0-.2,0-.5-.1-.7,0-.4,0-.9,0-1.3,0-.2,0-.4,0-.5,0-.1,0-.2,0-.3,.1-.7,.3-1.5,.7-2.2,0-.3,.2-.5,.3-.8,.1-.2,.2-.4,.3-.7,.9-1.8,1.8-3.6,2.7-5.3h0c1.4-2.8,2.9-5.6,4.3-8.4,1.6-3.1,3.2-6.3,4.7-9.4h0c.2-.4,.4-.8,.6-1.2,0,0,0,0,0,0,.2-.3,.3-.6,.5-.9,1.2-2.4,2.4-4.9,3.5-7.3,1.9-4,2.7-8.5,4.1-12.8,.9-2.8,3.2-3.4,5.9-3.1h0c.3-1.2,.6-2.4,1-3.5,0-.1,0-.3,.1-.4,.3-1,.6-2.1,.9-3.1-.8-.2-1.5-.4-2.3-.7-.4-1.8-.9-3.6-1.3-5.5-.6-1.7-1-2.8-1-3.6s0-.3,0-.4c0-.1,0-.3,.1-.4,0-.1,.1-.3,.2-.4,0,0,0-.1,.2-.2l.2-.2c.5-.5,1.3-1.1,2.5-1.9h0c.2-.5,.3-1.1,.5-1.6,.3-1.1,.5-2.3,.7-3.4,0-.5,.2-1,.2-1.6,.1-.9,.2-1.8,.2-2.7,0-.4,0-.9,0-1.3,0-.4,0-.9,0-1.3,0-2,0-4.1-.1-6.1,0-1.6-.2-3.2-.3-4.8Z" fill="#ffb506"/>
    <path d="M183.9,75c-1.2,18.7-8.4,35.8-13.4,53.4-.2,.8-.4,1.6-.8,2.3-12.8,21.4-24.9,43.2-43.1,61.1-26.5,26.1-57.6,43.8-94.1,52.3-2.8,.6-5.7,.7-8.6,1-3-3.1-6.1-5-10.9-4.5-4.3,.5-8.7,0-13.1-.3v-11.4s0,0,0,0c.5,0,1,0,1.4-.2,.6,0,1.1-.1,1.7-.2,.7-.1,1.4-.2,2.1-.4,.7-.1,1.4-.3,2.2-.4,.8-.2,1.5-.3,2.3-.5,.7-.2,1.5-.4,2.2-.6,.4-.1,.8-.2,1.2-.3,1.4-.3,2.9-.6,4.3-.8,.6,0,1.2-.2,1.8-.3h0c2.8-.5,5.5-1.1,8.1-2,.3-.1,.6-.2,.9-.3,.7-.3,1.3-.6,2-1,.3-.1,.5-.3,.8-.4,.7-.4,1.4-.9,2.1-1.5,.2-.1,.4-.3,.6-.4,.2-.1,.4-.2,.6-.3,1.3-.6,3-.8,4.5-1,0,0,.1,0,.2,0,.2,0,.4,0,.6,0,.6,0,1.3,0,1.9,0s.6,0,.9,0h0c.3,0,.6,0,.8,0,0,0,.2,0,.2,0,.1,0,.2,0,.4,0,.1,0,.2,0,.3,0,0,0,.2,0,.3,0,.1,0,.2,0,.4-.2,2-1,4-2,6.1-2.9,1.4-.6,2.7-1.2,4.1-1.8,2.9-1.2,5.7-2.4,8.5-3.7,.4-.2,.9-.4,1.3-.6,1.2-.6,2.4-1.2,3.6-1.9,.3-.1,.6-.3,.8-.5,.4-.2,.7-.4,1.1-.7,.4-.3,.9-.5,1.3-.8,.2-.1,.4-.3,.7-.4,.4-.3,.8-.6,1.2-.9,.7-.5,1.4-1,2-1.6,.4-.3,.7-.6,1.1-1,.7-.6,1.4-1.3,2.2-1.9,.4-.3,.8-.6,1.1-.9,.4-.3,.8-.6,1.2-.9h0c.5-.4,1.1-.7,1.7-1,.6-.3,1.2-.6,1.8-.9,.3-.1,.6-.2,.9-.4,.2,0,.4-.2,.7-.2,.4-.1,.7-.2,1.1-.3,.4,0,.9-.2,1.3-.2,.3,0,.6,0,.8,0,.3,0,.7,0,1,0,.6,0,1.1,0,1.7,0,.6,.4,1.6,1.4,1.8,1.2,9.2-6.2,17.9-12.8,24.8-21.5,6.6-8.3,13.5-16.3,20-24.7,3.7-4.8,6.8-10,9.7-15.3,.7-1.4-.3-3.7-.6-5.6h0c2-5.3,2.8-11.7,6.4-15.7,3.8-4.3,5.9-8.7,7.3-13.8,3.7-1.4,4-4.9,5-8,1.4-4.3,2.5-8.7,3.8-13,1.4-4.5,2.1-9.2,4.7-14.1,.8,9.9-.6,18.6-3.4,27.1-2.1,6.6-3.8,13.4-5.6,20.2-.5,1.8,.3,3.1,2.7,3.2,.6-.9,1.5-1.8,1.9-2.9,7.7-20.6,10.6-41.9,10.2-63.7-.1-5.5,.6-10.6,3.2-15.4,3,14.2,.8,28.4-.1,42.6Z" fill="#ffb506"/>
    <path d="M23.9,245.2c-7.9,2.1-15.9,3.5-23.9,4.2v-9c4.4,.2,8.8,.8,13.1,.3,4.8-.5,7.9,1.4,10.9,4.5Z" fill="#ffb506"/>
    <path d="M183.8,31.3c-.5-.5-.9-1-1.1-1.5,0-.1-.1-.3-.2-.4,0-.1,0-.3-.1-.4,0-.1,0-.3,0-.4,0-.8,0-1.5,.4-2.4,0-.2,.2-.4,.3-.7-.2-.1-.3-.2-.4-.3-.1-.1-.2-.2-.3-.3-.1-.1-.2-.2-.3-.3-.1-.1-.2-.3-.3-.4,0,0,0-.2-.1-.3,0-.1,0-.2-.1-.4,0-.2,0-.5,0-.7s0-.3,0-.5c0-.2,0-.3,.1-.5,0-.1,0-.2,.1-.3,0,0,0-.2,0-.2,0-.2,.1-.3,.2-.5,0-.2,.2-.4,.3-.6,0,0-.1,0-.2-.1-.1,0-.2-.1-.3-.2-.1,0-.2-.1-.3-.2,0,0-.2-.1-.3-.2,0,0-.2-.2-.2-.3-.1-.2-.2-.3-.3-.5,0-.1-.1-.2-.1-.4-.1-.3-.1-.7,0-1.1,0-.2,0-.4,.2-.7,0-.1,0-.2,.1-.4,.1-.4,.3-.7,.5-1.1,0,0,0,0,0,0,0-.1,.1-.2,.2-.3h0c-.2,0-.4-.1-.6-.2-.2,0-.4-.2-.5-.3-.1,0-.2-.1-.3-.2-.2-.1-.3-.2-.5-.3-.2-.1-.3-.2-.4-.4-.2-.2-.4-.4-.5-.7-.1-.2-.3-.4-.4-.6-.4-.8-.7-1.7-1-2.6-1.1-4-2.3-7.8-3.7-11.6h-5.7c2.5,6.4,4.5,12.9,4.4,20,.4,.7,1,1.3,1.1,2,0,.5-.8,1-1.2,1.5-.2-.3-.5-.7-.5-1,0-.8,.1-1.5,.2-2.3h0c-.2-.2-.4-.4-.7-.6-1.7-1.4-3.7-2.6-4.3-4.3-1.7-4.9-3.2-9.8-4.7-14.8-2.2,.3-4.3,.6-6.5,.8,3.1,2.3,4.3,5.4,2.2,10.3-1.2,2.9-1.2,6.3-1.8,9.4,.5,1,1.1,1.9,1.6,2.9,2.8,2.4,6.6,4.3,5.4,9.1h0c3.7,2.9,4,7.1,4,11.1,.2,16.1-1.3,32.1-3.1,48.1-.4,3.2-1.7,6.3-2.5,9.4,3.7-1.4,4-4.9,5-8,1.4-4.3,2.5-8.7,3.8-13,1.4-4.5,2.1-9.2,4.7-14.1,.8,9.9-.6,18.6-3.4,27.1-2.1,6.6-3.8,13.4-5.6,20.2-.5,1.8,.3,3.1,2.7,3.2,.6-.9,1.5-1.8,1.9-2.9,7.7-20.6,10.6-41.9,10.2-63.7-.1-5.5,.6-10.6,3.2-15.4,.3-.4,.2-.8-.2-1.2Z" fill="#ffb506"/>
    <path d="M181.4,14.5s0,0,0,0h0s0,0,.1,0h-.1Z" fill="#ffb506"/>
    <path d="M182.3,20s0,0,0,0h0s0,0,0,0h0s0,0,0,0c0,0-.1-.2-.1-.2Z" fill="#ffb506"/>
    <path d="M183.1,25.4s0,0,0,.1c0,0,0,0,0,0,0,0,0,0,0,0v-.2Z" fill="#ffb506"/>
    <path d="M181.5,14.6s0,0-.1,0h0c-2.7-.8-3.6-2.9-4.2-5.3-1.1-4-2.3-7.8-3.7-11.6h5.1c0,0,0,.1,0,.2,1.5,5.5,1.9,11.2,2.8,16.8Z" fill="#ffb506"/>
    <path d="M182.4,20.2c-2.7-1.4-2.4-3.4-1.1-5.6,.4,1.9,.7,3.7,1.1,5.6Z" fill="#ffb506"/>
    <path d="M183.8,31.3c-1.9-1.7-1.8-3.7-.7-5.8,.2,1.9,.5,3.9,.7,5.8Z" fill="#ffb506"/>
    <path d="M183.2,25.7c-2.4-1.6-2.1-3.6-.9-5.7,.3,1.9,.6,3.8,.9,5.7Z" fill="#ffb506"/>
    <path d="M75.2,182.2c.6,0,1.3,.1,1.9,.2-.8,.8-1.5,1.6-2.3,2.4,.1-.9,.3-1.7,.4-2.6Z" fill="#ffb506"/>
    <path d="M161.5,99.1c-1.4,5.1-3.5,9.5-7.3,13.8-3.5,4-4.4,10.4-6.4,15.7-4.3,7.8-9.9,14.8-16.4,20.9-3.8-3.2-3.7-6.9-1.6-11,5.6-10.8,11.2-21.6,16.4-32.6,1.9-4,2.7-8.5,4.1-12.8,.9-2.8,3.2-3.4,5.9-3.1,2.4,.9,3.8,2.2,3.8,5,0,1.4,.9,2.8,1.4,4.1h0Z" fill="#ffb506"/>
    <path d="M161.5,99.1c-.5-1.4-1.4-2.8-1.4-4.1,0-2.7-1.4-4.1-3.8-5,.7-2.4,1.3-4.7,2-7.1,1.5-4.6,1.6-9-1.3-13.2,2.3-7.5,1.8-15.2,1.4-22.9-.5-8.5-.5-17-.7-25.4,2.8,2.4,6.6,4.3,5.4,9.1-.3,.3-.5,.6-.8,.8,.3-.3,.6-.5,.8-.8,3.7,2.8,4,7.1,4,11,.2,16.1-1.3,32.1-3.1,48.1-.4,3.2-1.7,6.3-2.5,9.4Z" fill="#ffb506"/>
    <path d="M131.5,149.5c6.6-6.1,12.1-13.1,16.4-20.9,.2,1.9,1.3,4.2,.6,5.6-2.9,5.3-6.1,10.5-9.7,15.4-6.4,8.4-13.4,16.4-20,24.6-6.9,8.7-15.6,15.4-24.8,21.5-.2,.1-1.2-.8-1.8-1.2,1.6-2.3,2.9-4.9,4.9-6.9,7.5-7.6,15.5-14.7,22.7-22.5,4.4-4.7,7.9-10.4,11.8-15.6Z" fill="#ffb506"/>
    <path d="M155.6-1.2c-1.3,.1-2.6,.2-3.9,.2-1,7-1.5,13.8,4.4,19.5,.6-3.2,.5-6.5,1.8-9.4,2.1-4.9,.9-8-2.2-10.3Z" fill="#ffb506"/>
    <path d="M157,69.7c3,4.2,2.9,8.6,1.3,13.2-.8-.2-1.5-.5-2.3-.7,.5-2,.6-4-1.3-5.5q-1.6-4.4,2.3-7.1Z" fill="#ffb506"/>
    <path d="M117.1,145.5c1.8-5.8,1.8-12.3,7-16.7-1.1,4.1-2,8.4-3.4,12.4-.6,1.7-2.3,2.9-3.6,4.3Z" fill="#ffb506"/>
    <path d="M154.7,76.8c1.9,1.5,1.8,3.4,1.3,5.5-.4-1.8-.9-3.6-1.3-5.5Z" fill="#ffb506"/>
    <path d="M167.5-2.9c-1.8,.3-3.6,.6-5.4,.9,1.5,5,3,9.9,4.7,14.8,.6,1.7,2.7,2.9,4.3,4.3,.2,.2,.5,.4,.7,.6h0c0,0,.3-.2,.3-.2,0-7.1-1.9-13.6-4.4-20,0-.2-.1-.3-.2-.5Z" fill="#ffb506"/>
    <path d="M172.1,17.6c.4,.6,1,1.3,1.1,2,0,.5-.8,1-1.2,1.5-.2-.3-.5-.7-.5-1,0-.8,.1-1.5,.2-2.3l.3-.2Z" fill="#ffb506"/>
    <path d="M131.8,58.7q2.4-6,7.9-5.5c-1.6,3.3-4.7,4.5-7.9,5.5Z" fill="#ffb506"/>
    <path d="M142.5,47.8c1.4-1.2,2.7-1.3,4,0,0,.5-.3,.8-.8,.8l-3.2-.9Z" fill="#ffb506"/>
    <path d="M142.5,47.8l3.2,.9c-1,.8-2,1.7-3,2.5,0-1.1-.1-2.3-.2-3.4Z" fill="#ffb506"/>
    <path d="M139.4,53c.2-1.9,1.3-2.5,3.1-2-1,.7-2.1,1.3-3.1,2Z" fill="#ffb506"/>
    <path d="M125.7,61.3c1.4-.5,2.7-1,4.1-1.5-1.4,.5-2.7,1-4.1,1.5Z" fill="#ffb506"/>
    <path d="M163.1,30.5c-.3,.3-.6,.5-.8,.8,.3-.3,.5-.6,.8-.8h0Z" fill="#ffb506"/>
    <path d="M78.5,176.1c-1.9,1.5-3.8,3-5.8,4.4-.7-.5-1.4-1-2.1-1.5,2.6-1,5.4-1.7,7.8-3Z" fill="#ffb506"/>
    <path d="M88.3,167.7c-1.3,1.2-2.7,2.5-4.1,3.6,.5-1,.6-2.2,.2-3.7,1.4,0,2.6,0,3.9,0Z" fill="#ffb506"/>
  </g>
  <g id="uuid-544ad99e-d8fe-494b-ac8d-a11259465ab2" data-name="PRINT">
    <g>
      <g>
        <path d="M29.6,13.9c0,.5-.2,1-.6,1.4l-6.3,6.3-6.8-3.9v-3.8c0-1.1,.9-2,2-2s2,.9,2,2h0v4.9l6.3-6.3c.8-.8,2.1-.8,2.8,0,.4,.4,.6,.9,.6,1.4h0Z" fill="#fff"/>
        <path d="M29,31.7c-.4,.4-.9,.6-1.4,.6s-.5,0-.8-.2c-.2-.1-.5-.3-.6-.4l-2.1-2.1-4.1-4.1v4.9c0,1.1-.9,2-2,2s-2-.9-2-2v-3.8l6.8-3.9,4.2,4.2,2.1,2.1c.8,.8,.8,2.1,0,2.8Z" fill="#fff"/>
        <path d="M22.4,22c0,0,0-.2-.2-.2,0,0,0,0,0,0l-1.7-1-4.6-2.6-3.9-2.2c-.2-.1-.5,0-.6,.2,0,0,0,.2,0,.2v11.7c0,.3,.2,.5,.5,.5s.2,0,.2,0l3.9-2.2,6.3-3.6s0,0,0,0c0,0,0-.1,.1-.2,0,0,0-.2,0-.3Zm-9.6-4.7l3,1.7,4.9,2.8c0,0,.1,0,.1,.1h0c0,0,0,.2,0,.3,0,0,0,.2-.2,.2l-4.9,2.8-3,1.7c-.2,0-.4,0-.5-.1,0,0,0-.1,0-.2v-9.1c0-.2,.2-.3,.3-.3s.1,0,.2,0Z" fill="#fff"/>
        <path d="M19.5,22.2c0,0,0,.1-.1,.2l-3.7,2.1-2.3,1.3c-.1,0-.3,0-.4,0,0,0,0,0,0-.1v-6.8c0-.1,.1-.3,.3-.3,0,0,0,0,.1,0l2.3,1.3,3.7,2.1c0,0,.1,0,.1,.2,0,0,0,0,0,.1h0Z" fill="#fff"/>
      </g>
      <g>
        <path d="M62.5,21.6l-5.6-2.8-3.4-1.7c-.2-.1-.4,0-.5,.2,0,0,0,.1,0,.2v9.3c.1,.2,.3,.4,.6,.4,0,0,.1,0,.2,0h.2l3.2-1.8,2-1.1,3.5-1.9c0,0,.2-.1,.2-.2,0,0,0-.1,0-.2,0,0-.1-.2-.2-.2Zm-5.6,2.8l-2.6,1.4c-.2,0-.3,0-.4-.1,0,0,0,0,0-.1v-7.2c0-.2,0-.3,.2-.3,0,0,0,0,.1,0l2.7,1.3,1,.5,3.4,1.7c0,0,.1,0,.2,.2,0,0,0,.1,0,.2h0s0,0,0,0c0,0,0,.1-.1,.1l-4.3,2.3Z" fill="#fff"/>
        <path d="M60.1,22c0,0,0,0-.1,.1l-3.2,1.7-2,1.1c-.1,0-.3,0-.3,0,0,0,0,0,0,0v-5.4c0-.1,0-.2,.2-.2,0,0,0,0,0,0l2,1,3.3,1.6c0,0,0,0,.1,.1,0,0,0,0,0,.1h0Z" fill="#fff"/>
        <path d="M38.5,17.2h-4.9v9.7h2.4v-3.2h2.5c2.3,0,4.1-1.4,4-3.4,0-1.9-1.8-3.2-4.1-3.2Zm-.2,4.6h-2.3v-2.7h2.3c1.1,0,1.9,.5,1.9,1.3,0,.8-.8,1.4-1.9,1.4Z" fill="#fff"/>
        <polygon points="51.8 27 44.1 27.1 43.9 17.4 46.3 17.4 46.4 25.2 51.7 25.1 51.8 27" fill="#fff"/>
        <polygon points="67.5 23.3 67.6 26.8 65.2 26.8 65.2 23.3 60.9 17.2 63.6 17.1 66.3 21.3 69.1 17.1 71.7 17 67.5 23.3" fill="#fff"/>
        <polygon points="81.9 27.2 80.3 27.3 76.2 22.8 74.5 24.4 74.5 27.3 73.3 27.3 73.2 17.7 74.4 17.7 74.5 23 79.9 17.6 81.5 17.6 77 22.1 81.9 27.2" fill="#fff"/>
        <path d="M88,17.3c-3,0-5.5,2.3-5.5,5.1,0,2.7,2.6,5,5.6,4.9,3,0,5.5-2.4,5.5-5.1,0-2.7-2.6-5-5.6-4.9Zm.4,9c-2.4,.2-4.4-1.6-4.6-3.9,.1-2.1,1.8-3.8,3.9-4,2.4-.2,4.4,1.6,4.6,3.9-.1,2.1-1.8,3.9-3.9,4Z" fill="#fff"/>
        <path d="M103.2,24.5c0,1.5-1.2,2.8-3.8,2.8-1.6,0-3.1-.5-4.3-1.5l.8-.9c1,.9,2.2,1.4,3.5,1.4,1.7,0,2.5-.9,2.5-1.7,0-1-1-1.4-2.9-1.8-2.2-.4-3.5-1-3.6-2.7,0-1.5,1.5-2.8,3.6-2.8,1.4,0,2.7,.4,3.8,1.3l-.7,.9c-.9-.8-2-1.2-3.1-1.2-1.3,0-2.3,.8-2.3,1.7,0,1,1.1,1.3,2.9,1.7,2.1,.4,3.5,1.1,3.6,2.8Z" fill="#fff"/>
        <polygon points="116 27.2 114.8 27.2 114.7 19.9 110.8 26.7 106.7 20 106.8 27.3 105.5 27.4 105.4 17.7 106.7 17.7 110.7 24.4 114.7 17.6 115.9 17.6 116 27.2" fill="#fff"/>
        <path d="M123.7,17.3c-3,0-5.5,2.3-5.5,5.1,0,2.7,2.6,5,5.6,4.9,3,0,5.5-2.4,5.5-5.1,0-2.7-2.6-5-5.6-4.9Zm.4,9c-2.4,.2-4.4-1.6-4.6-3.9,.1-2.1,1.8-3.8,3.9-4,2.4-.2,4.4,1.6,4.6,3.9-.1,2.1-1.8,3.9-3.9,4Z" fill="#fff"/>
        <path d="M138.9,24.5c0,1.5-1.3,2.8-3.8,2.8-1.5,0-2.9-.4-4.1-1.3,0,0-.1-.1-.2-.2l.8-.9c.2,.2,.3,.3,.5,.4,.9,.6,1.9,1,3,.9,1.7,0,2.5-.9,2.5-1.7,0-.8-.6-1.2-1.6-1.5-.3-.1-.7-.2-1.2-.3,0,0-.1,0-.2,0-2.2-.4-3.5-1-3.6-2.7,0-1.5,1.5-2.8,3.6-2.8,1.4,0,2.7,.4,3.8,1.3l-.7,.9c-.9-.8-2-1.2-3.1-1.2-1.3,0-2.3,.8-2.3,1.7,0,1,1.1,1.3,2.9,1.7,.4,0,.8,.2,1.1,.3,.4,.1,.7,.2,1,.4,.9,.4,1.5,1.1,1.5,2.1Z" fill="#fff"/>
      </g>
    </g>
  </g>
  <path d="M179.7,179.2c-.2-1-.5-2.1-1-3-.9-1.6-1.9-3.1-2.9-4.6-1.3-1.9-2.8-3.8-4.1-5.7-2.7-3.8-5.4-7.7-8-11.5-.3-.4-.5-1-.3-1.4,.6-2.4,1.4-4.8,2.1-7.1,0-.3,.2-.6,.3-.9,0,0-.2-.1-.3-.2-1.1,1.5-2.2,3-3.3,4.5h-.1c.7-2,1.3-4,2.1-6.2-.5,.3-.9,.5-1.1,.7-2.2,1.9-4.4,3.8-6.6,5.7-.2,.2-.6,.4-.9,.4-4,.1-7.9,0-11.8,.3-.3,0-.7,0-1,0-6.6,.5-13,1.8-19.2,4.1-.8,.3-1.6,.6-2.4,.9-.8,.3-1.5,.7-2.5,1.1-.6-3.2-1.1-6.3-1.7-9.3h0c0-.2,0-.5-.1-.7,.2-.1,.4-.3,.6-.4,.2-.1,.3-.2,.5-.3v-.5h-.1c-.3-1.5-.6-3.1-1-4.6-.7-2.6-1.5-5.2-3-7.6,0-.2-.2-.3-.3-.4-1.3-2.1-3.1-3.7-5.5-4.5,1.2-1.3,1.7-2.8,1.9-4.4,0-1,.5-1.3,1.4-1.5,.6-.1,1.3-.4,1.8-.8,.4-.2,.9-.8,.8-1.1-.1-.4-.6-.9-1.1-1.1-.6-.2-1.2-.3-1.9-.2-.7,0-1.1-.1-1.4-.8-1-2.1-2.4-3.9-4.8-4.6-3-.8-6.9,.8-8.5,3.4-.9,1.5-1.2,3.2-1,5,.2,1.6,0,3.3,1.6,4.4,.1,0,.1,.3,.3,.6-.8-.4-1.4-.7-1.9-1.1-5.4-3.8-11.6-4.4-18-4.1-1.2,0-2,.3-2.1,1.7,0,0,0,0,0,0-1.6,.1-3.2,.2-4.8,.3-.4,0-.7,0-1.1-.1-6.2-1.7-12.3-3.5-18.5-5.2-.7-.2-.9-.5-1-1.1-.6-2.2-1.2-4.4-1.9-6.7,.1,0,.5-.3,.8-.6,9.2-6.7,19-12.3,29.2-17.2,14.1-6.8,28.7-12.1,43.6-16.7,1.1-.3,2.1-.6,3.2-1,.5-.2,.8,0,1.2,.3,1.6,1.5,3.2,3.1,4.8,4.6,.3,.3,.7,.7,1.1,1,1-.6,.9-1.2,.5-1.9-.5-.8-1-1.5-1.6-2.2-2.7-3.6-6-6.7-9.4-9.7-.8-.7-1.7-1.4-2.5-2.1-.4,.3-.8,.6-1.2,.9,1.3,1.5,2.6,3,3.9,4.5,.8,.9,1.5,1.8,2.3,2.7-.4,.1-.7,.2-1,.3-.4,.1-.8,.2-1.2,.4-12.2,3.7-24.3,8-36,13.1-14.1,6.2-27.6,13.5-40,22.7-.4,.3-.9,.4-1.4,.4-1.1,0-2.1,.4-2.7,1.4-.4,.7-.8,1.4-1.2,2.1-.9,2-.5,3.6,1.5,4.6,1.8,.9,3.7,1.5,5.5,2.2,.5,.2,1.1,.4,1.5,.7,3.1,1.9,6.1,3.8,9.1,5.7,2.9,1.8,6.1,2.9,9.6,3.1,2.3,.1,4.5,.6,6.8,.9v1.7c2.1,.6,4.1,1.1,6.3,1.8-1.7,1.6-3.3,3-4.8,4.4-2.3,2.2-4.6,4.4-6.3,7.2-.7,1.1-1.1,2.3-.9,3.7,.3,1.9,1.5,3.2,3.3,3.5,.5,0,.9,.3,1.4,.4-.6,.2-1.2,.1-1.8,.2-.4,0-.9,.4-1,.7-1.2,2.9-2.4,5.7-3.4,8.7-.8,2.3-1.2,4.7-1.8,7,0,0-.1,0-.2,0-.3,0-.5-.1-.8-.2-5.8-1.9-11.6-2.2-17.6-1-6,1.2-11.5,3.3-16,7.6-.2,.2-.6,.1-.9,0-1.3-.3-2.7-.8-4-1-.8-.1-1.5-.3-2.2-.8-2-1.5-4.2-2.2-6.7-2.1-.4,0-.8-.2-1.2-.3-1.3-.4-2.5-1-3.8-1-2.4-.2-4.8,0-7.1,0-1.4,0-2.5,1.3-2.3,2.7,.2,1.4,1.5,2.2,3,1.9,.5-.1,1-.4,1.5-.5,.6-.1,1.2-.2,1.8-.1,1.2,.1,2.4,.4,3.6,.5,1.4,.1,2.6,.5,3.9,1.1,1.4,.7,3.1,1.4,4.7,1.5,1.7,.2,2.9,.9,4.1,1.9,1.6,1.4,1.6,1.4,.8,3.4,0,.2-.2,.4-.2,.6-2.1,5.4-2.5,11.1-1.8,16.7,.5,4.1-.7,7.6-3.5,10.6-2,2.1-4.2,3.9-6.8,5.1-2.2,1.1-3.7,2.6-4,5.2-.3,2-1,3.9-2.1,5.6-.4,.6-.8,1.3-1.1,1.9-.7,1.2-1.3,2.5-2,3.8-1.7,3.4-3.3,6.8-4.5,10.4-.4,1.3-.8,2.6-1.2,3.9-.6,2.5,0,4.5,1.8,6.2,.1,.1,.2,.2,.3,.3,2,1.7,4.5,2.4,7.1,2.5,.3,0,.7-.4,.8-.6,.2-.7,.4-1.4,.4-2.1,0-1.2-.3-2.4-.9-3.6-1.2-2.1-1.3-4.4-.7-6.7,.1-.5,.3-1,.4-1.4,1.5-5.1,3.9-9.7,7.6-13.7,.4-.4,.7-.8,1.1-1.1,7.5-7.7,16.1-13.9,25.4-19.3,.2-.1,.5-.2,.8-.3,0,0,0,.1,.1,.2-2.3,1.8-4.6,3.5-6.9,5.3,1.4,2.2,1.8,4.5,1.2,6.8,0,0,0,0,0,.1-.8,3.2-2.3,6-4.4,8.5-1.2,1.5-1.5,2.8-.6,4.5,.3,.6,.7,1.1,1.1,1.6,.1,.1,.2,.3,.3,.4,1,1.1,2.1,2.1,2.9,3.3,3,4.1,5.9,8.3,8.9,12.4,.9,1.3,1.8,2.6,2.7,3.9,.9,1.2,1.9,2.2,3.4,2.3,2.6,.2,5.1,.3,7.7,.4,.2-3.1-1.1-5.2-3.7-6.3-1.6-.7-3-1.6-4.2-2.7-.9-.7-1.7-1.6-2.4-2.4-1.6-1.8-2.9-3.8-4.5-5.6-2.6-3-3.1-5.9-1.2-9.4,0,0,0-.1,.1-.2,1.3-2.4,2.9-4.5,4.6-6.7,3.4-4.3,6-8.9,7.6-14.2,0-.2,.1-.4,.2-.6,.3-1.2,.6-2.4,.9-3.6,.2,0,.3,.1,.4,.2,.8,.5,1.6,1,2.4,1.4,5.3,3,10.9,4.9,16.8,6,1.1,.2,2.1,.4,3.2,.5,.9,.1,1.8,.2,2.7,.3,7,.7,13.9,.4,20.8-.4,2.2-.3,4.5-.6,6.7-.9,2.9-.5,2.9-.5,4.2,2.3,2,4.3,2.7,8.8,3.3,13.5,.3,2.2,.8,4.4,1.4,6.6,.3,1.4,1.1,2.6,1.3,4,.5,3.4,.8,6.8,1.2,10.3,.3,2.6,.8,5.2,3,7,.7,.6,1.5,1,1.9,1.9,.1,.4,.7,.7,1.1,.8,2.6,.8,5.3,.6,7.9,.2,.3-2.9-.7-4.8-3.4-6-1.5-.7-2.5-1.7-3.2-3.1-.2-.4-.4-.8-.5-1.2-1.1-3.3-2.1-6.7-3.1-10.1-.2-.5,0-1.2,.2-1.8,0-.9,.3-1.8,.2-2.7,0-.7-.3-1.4-.4-2.1-.6-5.9-.3-11.7,1.1-17.5,.1-.5,.2-1.1,.4-1.6,0,0,0,0,0,0v4.9c3.2,.4,6.4,1.3,9.3,2.9,2.3,1.3,4.9,2.5,6.6,4.3,3.3,3.5,5,7.8,5.4,12.7,.2,2.1,.4,4.3,.4,6.5,0,1.8,1.1,2.8,2.7,3.3,1.2,.3,2.5,.3,3.7,.5,.6,0,1-.3,1-1,0-1.5,.3-3,0-4.5-.4-2.5-1-4.9-1.7-7.3-.3-1-.9-2.1-1.7-2.9-2.6-2.6-4.2-5.7-5.2-9.1-.8-2.8-2.4-5-5-6.3-4.2-2.1-7.9-4.9-11.3-8-.8-.7-1.5-1.5-2.3-2.2,3.6-2.8,5.1-5.4,5.3-9.8,.1-2.3,0-4.6-.3-6.8-.1-1.6,0-1.8,1.5-1.9,2.2,0,4.5,0,6.7-.2,8.1-.6,15.8-2.6,22.3-7.7,.2-.2,.7-.2,1,0,1.4,.6,2.9,1.2,4.3,1.9,.3,.2,.7,.4,.8,.7,1.1,2,2.5,2.6,4.7,2,.6-.2,1.3-.2,1.9-.2,.7,0,1.1-.3,1.4-1,.3-.8,.6-1.6,1.1-2.2,.8-.9,.9-1.8,.7-2.8Zm-73.3-34.8c.5,.6,1,1.2,1.5,1.8,.6,.8,1.3,1.5,1.9,2.3,.3,0,.6-.2,1-.3,.7,2.3,1.4,4.6,2.2,6.9,.4,1.2,.8,2.5,1.2,3.7-.8,.5-1.6,1-2.4,1.6-.8,.6-1.6,1.3-2.4,1.9h0c-1.4,1.1-2.8,2.3-4.1,3.4-.7,.6-1.4,1.1-2.4,1.3-.5,0-1,.3-1.4,.4-.3-.5-.7-1.1-1.1-1.6-.5-.8-1-1.5-1.6-2.3-1.2-1.8-2.5-3.7-3.7-5.5,4.8-3.5,7.9-8.5,11.3-13.6Zm28,43c.7-1,1.2-1.9,1.8-2.8,2.4-3.5,5-6.9,8.3-9.6,1.8-1.5,3.7-2.6,6.1-3,.9-.2,1.6-.1,2.3,.8,.7,1,1.8,1.8,2.7,2.6,1.2,1,2.7,1.2,4.3,1-.1,.2-.3,.3-.5,.6,1.1,.9,2.2,1.8,3.3,2.8-8.4,6.3-18.1,7.6-28.4,7.6Z" fill="#010101"/>
  <path d="M223.3,196.2c-2.7,0-4.9,2.2-4.9,4.9s.4,2.1,1,2.9h0l4,6.9,4-6.9c.6-.8,.9-1.8,.9-2.9,0-2.7-2.2-4.9-4.9-4.9Zm0,7.2c-1.2,0-2.2-1-2.2-2.2s1-2.2,2.2-2.2,2.2,1,2.2,2.2-1,2.2-2.2,2.2Z" fill="#fff"/>
  <line x1="194.2" y1="140" x2="252.3" y2="140" fill="none" stroke="#fff" stroke-miterlimit="10" stroke-width="2"/>
  <rect x="184.7" y="162.1" width="77.1" height="19.6" rx="4.1" ry="4.1" fill="none" stroke="#fff" stroke-miterlimit="10" stroke-width="2"/>
  <path d="M12.6,140.5h0c2.9,0,5.3,2.4,5.3,5.3h0c0,.5-.4,1-1,1h-4.3c-.5,0-1-.4-1-1v-4.3c0-.5,.4-1,1-1Z" transform="translate(105.9 31.6) rotate(45)" fill="none" stroke="#fff" stroke-miterlimit="10" stroke-width="2"/>
  <path d="M12.6,174.7h0c2.9,0,5.3,2.4,5.3,5.3h0c0,.5-.4,1-1,1h-4.3c-.5,0-1-.4-1-1v-4.3c0-.5,.4-1,1-1Z" transform="translate(130 41.6) rotate(45)" fill="none" stroke="#fff" stroke-miterlimit="10" stroke-width="2"/>
</svg>