<svg xmlns="http://www.w3.org/2000/svg" xmlns:xlink="http://www.w3.org/1999/xlink" width="335" height="335" data-name="Layer 1">
  <defs>
    <radialGradient id="a" cx="127.5" cy="396.6" r="15.8" fx="127.5" fy="396.6" gradientTransform="scale(-1 1) rotate(-41.9 -234.4 793)" gradientUnits="userSpaceOnUse">
      <stop offset="0" stop-color="#0071bc"/>
      <stop offset=".3" stop-color="#026db9"/>
      <stop offset=".5" stop-color="#0a62b2"/>
      <stop offset=".7" stop-color="#1651a7"/>
      <stop offset=".9" stop-color="#283896"/>
      <stop offset="1" stop-color="#2e3192"/>
    </radialGradient>
    <radialGradient xlink:href="#a" id="b" cx="171.7" cy="219.6" r="17.6" fx="171.7" fy="219.6"/>
    <radialGradient xlink:href="#a" id="c" cx="25.3" cy="61.5" r="4.8" fx="25.3" fy="61.5" gradientTransform="translate(-12.5 57.8)"/>
    <radialGradient xlink:href="#a" id="d" cx="25.3" cy="85.4" r="4.8" fx="25.3" fy="85.4" gradientTransform="translate(-12.5 57.8)"/>
    <radialGradient xlink:href="#a" id="e" cx="281.6" cy="281.2" r="33.5" fx="281.6" fy="281.2"/>
  </defs>
  <path fill="#fff" d="M335 195.5v139.8H68.3l237-151.4 29.8 11.6Z"/>
  <path fill="#23aae2" d="m305.3 184-237 151.4H0V172.3l85-73.9L305.3 184Z"/>
  <g fill="#666">
    <path d="m192.7 230.4.6.4 2.6-1.6 1.7-1.1.6-.4.4-.2h.1l.3-.3.3-.2.3-.2h.2l.3-.3.3-.2.4-.2.5-.3.6-.4.4-.3h.2l.3-.3h.2l.4-.3.5-.3h.2l.4-.3.4-.3.3-.2.3-.2.3-.2.4-.3h.2l.4-.3.6-.4h.1l.4-.3.7-.5.4-.3h.1l.5-.4h.1l.3-.3h.3v-.2l.5-.3h.1l.3-.3h.2l.4-.4.4-.3h.1l.5-.4h.2l.4-.4h.2l.3-.3h.2l.4-.3h.2l.3-.3.2-.2.5-.3h.1l.3-.3.3-.2h.2l.3-.4 2.1-1.3 3.1-1.9v-.8l-3.2 2-2.1 1.3-.3.2-.3.2-.3.2-.3.2h-.1l-.5.3h-.2l-.4.4-.6.4h-.1l-.4.3h-.1l-.4.3h-.2l-.2.3-.3.2-.6.3-.5.3-.6.3-.7.4-.6.3-.7.4-.6.3-.8.5-.6.3-.7.4-.6.3-.7.4-.6.3-.5.4-.5.3-.6.4-.6.3-.4.2-.6.3-.6.4-.6.4-.4.2-.6.4-.5.3-.6.4-.5.3-.6.4-4.4 2.7Zm-3-1.9.6.4 2.5-1.5 2.2-1.4.6-.4.4-.3h.1l.4-.3h.2l.4-.4h.1l.3-.3.3-.2.5-.3.5-.3.7-.5.4-.3h.2l.5-.4h.2l.4-.3.6-.4h.2l.4-.3.6-.4.3-.2.3-.2h.2l.6-.5h.2l.4-.3h.1l.7-.5h.1l.4-.3.8-.5.4-.3h.1l.7-.5.3-.3h.2l.6-.5h.1l.3-.3h.2l.6-.5.5-.3.7-.5h.2l.3-.3.3-.2.5-.3.4-.3h.2l.5-.4h.1l.4-.3h.2l.3-.4.3-.2.4-.2.3-.2 2.7-1.7 2.9-1.8v-.7l-3.1 2-2.6 1.6-.3.2-.3.2-.3.2-.3.2h-.2l-.6.5h-.2v.2l-.4.2-.6.4-.2.2-.3.2-.6.3h-.2l-.7.6-.6.3-.4.3h-.2l-.6.5-.8.5-.6.4-.8.5-.6.3-.9.5-.5.3-.8.6-.6.3-.8.5-.6.4-.7.4-.5.3-.7.5-.6.3-.5.3-.6.3-.8.5-.6.4-.5.3-.6.4-.6.4-.6.4-.6.4-.6.4-4.7 3Zm-2.9-2.1.6.4 2.4-1.5 2.5-1.6.6-.4.5-.3h.1l.4-.3h.2l.5-.5h.1l.3-.3.3-.2.6-.4.4-.3h.1l.8-.6.4-.3h.2l.6-.5.5-.3.8-.5h.2l.4-.3.8-.5h.3l.3-.3h.1l.7-.5h.2l.3-.3h.1l.8-.6h.1l.4-.3.9-.6.4-.3h.1l.8-.6.4-.3h.2l.8-.6h.1l.3-.3h.2l.8-.6.4-.3h.1l.8-.6h.1l.4-.3h.2l.5-.4h.2l.4-.3h.2l.7-.6.4-.2h.2l.4-.4.4-.2.4-.2.2-.2 1.8-1.1 4.1-2.6-.1-.7-3 1.9-3 1.9h-.2l-.4.4h-.2l-.6.5h-.1l-.5.4h-.2v.2l-.4.2-.6.4-.7.5h-.2l-.3.3h-.1l-.9.6-.5.3h-.1l-.7.5-.3.2-.3.2h-.2l-.3.3-.4.2h-.2l-.4.3h-.1l-.4.3-.4.3-.6.3h-.1l-.9.6-.6.3-.3.2-.4.2-.3.2-.6.3-.9.6-.6.3-.8.5-.6.3-.8.5-.6.3-.6.4-.6.3-.9.5-.6.3-.6.4-.6.4-.7.4-.6.4-.7.4-.6.4-4.9 3Zm-2.7-2.1.5.5 2.4-1.5 2.5-1.6.6-.4.7-.4h.1l.3-.3.3-.2.6-.4h.1l.3-.3.3-.2.7-.4.4-.3h.1l.9-.6h.1l.4-.3.2-.2.8-.4.4-.3.9-.6h.1l.4-.3.8-.6h.2l.4-.4h.1l.9-.6h.2l.4-.3h.1l1-.7.4-.3 1.1-.7.5-.3.9-.6h.1l.4-.3h.2l.9-.7h.1l.4-.3h.2l.8-.6h.1l.4-.3h.1l1-.7h.1l.4-.4h.1l.7-.5h.2l.4-.4h.2l.7-.5h.2l.6-.4.4-.3.4-.2.4-.2h.2l2.9-1.9.3-.2 2.9-1.8-.1-.7-2.9 1.8-3.1 2h-.2l-.4.4h-.1l-.7.5h-.1l-.5.4-.8.5h-.2l-.4.3-.8.6-.5.3h-.2l-.9.7-.6.4-.8.6h-.1l-.4.3h-.1l-.3.2-.4.2h-.1v.2l-.7.3h-.1l-.9.7-.6.3-1.1.7-.6.3-1.2.7-.6.3-1 .6-.6.3-1 .6-.6.3-.9.6-.6.3-.8.5-.6.4-1 .6-.6.4-.8.5-.6.4-.8.5-.6.4-.8.5-.6.4-4.9 3Zm-2.8-2.4.5.5 2.8-1.7 2-1.2.6-.4.7-.4h.2l.4-.4h.2l.7-.5h.2l.4-.3h.2l.8-.6.4-.3h.1l1-.7.4-.3h.2l.4-.3.5-.3h.1l.4-.3 1-.7.5-.4h.1l1-.7.6-.3 1.1-.7.5-.3 1.3-.8.6-.3 1.2-.7.6-.3 1.2-.7.6-.3 1.1-.7.5-.4 1-.7.6-.3 1.3-.8.6-.3 1-.6.6-.3.9-.6.6-.4.9-.6.6-.4 6-3.8-.2-.7-2.3 1.5-3.6 2.3h-.2l-.4.4-.9.6h-.1l-.5.4-1 .6h-.2l-.4.4-1 .6-.3.2-.3.2h-.1l-1.1.8h-.1l-.4.3-1 .7h-.2l-.4.3-1.1.7h-.2l-.3.3h-.1l-1.1.8h-.1l-.4.3-1.2.8-.4.3-1.3.8-.4.3h-.2l-1 .8-.5.3h-.1l-1 .7-.5.3-1.1.7-.5.3-.9.6-.3.2-.3.2h-.2l-.9.7h-.1l-.4.4h-.1l-.8.6-.3.2-.3.2h-.2l-.7.6h-.2l-.8.6-.5.3-.6.4-1.6 1-3.1 1.9Zm-2.2-2.1.5.5 2.3-1.5 2.2-1.3.6-.3.8-.5h.2l.3-.3.3-.2.8-.5h.1l.3-.3.3-.2.9-.6.4-.3h.2l1.1-.8h.2l.3-.3h.2l1-.8.5-.3 1.2-.8.5-.3 1.2-.7h.1l.4-.3 1.1-.7h.2l.3-.3h.1l1.3-.9.5-.3 1.3-.8.5-.3 1.2-.8.4-.3h.1l1.2-.8.4-.3h.1l1.1-.8.5-.3 1.2-.8h.1l.6-.4.6-.4.4-.3.5-.3 1-.7.6-.3.5-.3h.1l.4-.3.6-.4 5.8-3.7-.2-.6-2.8 1.8-3 1.8h-.1l-.4.4-1 .7h-.1l-.5.4-1 .7h-.2l-.4.3-1.1.7h-.2l-.3.3h-.1l-1.3.9h-.1l-.4.3-1.1.7h-.2l-.4.3h-.1l-1.2.8h-.2l-.4.4h-.2l-1.1.8h-.1l-.4.3h-.1l-.9.7h-.3l-.6.5-.5.3-.9.6-.3.2h-.2l-1.2.9-.6.3-1.2.8-.6.3-1.2.7-.6.3-1 .7-.6.3-1.3.8-.6.4-1 .6-.6.4-1 .6-.6.4-1 .6-.6.4-4.4 2.8Zm-2.4-2.4.5.5 2.5-1.5 1.6-1 .6-.4.9-.6h.1l.4-.3h.2l.9-.7h.2l.3-.3.3-.2 1-.6h.1l.4-.3h.2l1.2-.9h.2l.3-.3.3-.2 1.1-.7.5-.3 1.3-.9.5-.3 1.3-.8.5-.3 1.2-.8h.2l.4-.3h.2l1.4-1 .4-.3h.1l1-.7h.1l.3-.2.6-.3.3-.2.5-.4 1.1-.7h.2l.5-.4.7-.4.6-.3 1.3-.8.6-.3 1.5-.9.5-.4 1.3-.8.6-.4 1.1-.7.6-.4 1.1-.7.6-.4 5.5-3.5-.2-.6-2.3 1.5h-.2l-2.9 2-.5.3-1.1.7-.5.3-1.1.8h-.2l-.4.4-1.3.8h-.2l-.4.3h-.1l-1.4 1-.4.3-1.3.9h-.2l-.4.3h-.1l-1.3.9h-.2l-.3.3h-.1l-1.3.9h-.1l-.4.3-1.3.9h-.1l-.4.3-1.4.9h-.1l-.4.3h-.2l-1.2.9-.5.3-1.3.9-.5.3-.4.2-.3.2-.6.4-.5.3-.8.4-.4.3-.6.3-1.4.9-.6.4-1.1.7-.6.4-1.1.7-.6.4-1.1.7-.6.4-4 2.5Zm-2-2.2.4.5 2.3-1.4 1.3-.9.6-.4 1-.6h.2l.3-.3h.2l1-.7h.2l.3-.3.3-.2 1.1-.7.4-.3h.2l1.3-1h.2l.3-.3.3-.2 1.3-.8.4-.3h.1l1.4-.9.4-.3 1.4-.9.5-.3 1.4-.9h.2l.4-.3h.1l1.6-1.1.4-.2h.1l1.5-1 .4-.3h.1l1.5-1 .4-.3h.2l1.4-1 .4-.3h.1l1.4-1 .5-.3 1.5-1h.1l.3-.3h.2l1.3-.9.4-.3h.1l1.2-.8.6-.4 1.1-.8.5-.4 1.6-1 3.6-2.2-.3-.6-2.9 1.8-2.2 1.3-.5.3-1.2.8-.4.3h-.2l-1.2.8-.6.4-1.3.9-.2.2-.3.2h-.2l-.4.4-.8.5-.3.2-.6.3-.8.5-.6.4-.5.3-1.5.9-.6.4-1.6 1-.6.3-1.5 1-.6.3-1.8 1.1-.6.3-1.4.9-.6.3-1.5.9-.6.3-1.4.9-.6.3-1.3.8-.6.3-1.5.9-.6.4-1.3.8-.6.4-1.2.7-.6.4-1.1.7-.6.4-.5.3-3 1.9Zm-2-2.3.4.5 2.3-1.5.8-.5.6-.4 1.1-.7h.1l.3-.2.3-.2 1.1-.7h.2l.3-.2.3-.2 1.2-.8h.1l.3-.3h.2l1.4-1h.2l.2-.3.4-.2 1.4-.9.4-.3h.2l1.5-1 .4-.3 1.6-1 .4-.3 1.5-1h.2l.3-.3 1.7-1.1.4-.3h.2l1.6-1.1.4-.3 1.6-1.1.4-.3h.2l1.5-1.1.4-.3h.1l1.5-1.1.5-.3 1.6-1.1.3-.2.3-.2 1.4-.9.4-.3h.1l1.3-.9h.1l.5-.4 1.3-.8h.2l.4-.3 2-1.3 2.7-1.7-.3-.6-2.9 1.8-1.6 1-.6.4-1.3.8-.6.4-1.3.8-.6.3-1.5.9-.6.3-1.8 1.1-.6.3-1.6 1-.6.3-1.6 1-.6.3-1.7 1.1-.6.3-1.6 1-.6.3-1.9 1.2-.6.3-1.5.9-.6.3-1.6 1-.6.3-.6.4h-.1l-.4.3-.4.2-.6.3-.4.2-1.1.7-.5.3-.3.2-1.4.9h-.2l-.4.4h-.2l-1.2.9h-.2l-.4.3h-.1v.2l-1.1.6h-.1l-.5.4h-.2l-1 .8-.6.3h-.1l-2.8 1.9Zm-2.4-3.1.4.5 2.3-1.4.5-.3h.1l1.2-.8h.1l.4-.3h.2l1.1-.8h.2l.3-.3h.2l1.3-1h.2l.4-.3h.2l1.5-1.1.3-.2.3-.2.3-.2 1.1-.7.4-.2.6-.3.5-.3.4-.2.8-.5.6-.3.8-.5.9-.5.6-.3 1.6-1 .5-.3 2-1.3.6-.3 1.7-1 .6-.3 1.8-1.2.6-.3 1.7-1.1.6-.3 1.7-1 .6-.3 1.9-1.2.6-.3 1.6-1 .6-.4 1.4-.9.6-.4 1.4-.9.6-.4 3.9-2.4-.3-.6-2.4 1.5-1.3.9-.4.2h-.2l-1.4 1-.4.3h-.2l-1.4 1h-.2l-.4.4-1.6 1h-.2l-.3.3h-.1l-1.8 1.2-.5.3-1.7 1.1h-.1l-.4.3-1.7 1.1h-.2l-.4.4-1.8 1.2h-.1l-.4.3-1.7 1.1h-.2l-.4.3-1.9 1.2h-.1l-.4.3h-.2l-1.6 1.1-.5.3-1.7 1.1h-.1l-.4.3-1.6 1.1h-.2l-.4.3h-.1l-1.5 1-.3.2h-.2l-.3.3-1.5.9-.3.2-.3.2-.4.2-1.1.7-.6.4-.3.2-1 .7-.5.3-.5.3-.5.3-.4.2-.6.4-2.1 1.3Zm-1.8-2.6.4.5 1.4-.9.6-.3.8-.5.3-.2.3-.2.3-.2h.3l1.2-.9.3-.2.3-.2.3-.2 1.4-.9h.2l.4-.4h.2l1.5-1.1.3-.2.3-.2.3-.2 1.2-.8.5-.3.5-.4.3-.2.9-.6.5-.3.6-.3 1.8-1.2.6-.3 1.7-1.1.6-.3 2.2-1.4.6-.4 1.8-1.1.6-.4 2-1.2.6-.3 1.9-1.1.6-.3 1.8-1.1.6-.3 2-1.3.6-.3 1.7-1.1.6-.3 1.5-1 .6-.4 1.5-.9.6-.4 3.2-2-.3-.6-2.3 1.5-.6.3h-.1l-.3.3-.3.2-1.4.9-.4.3h-.2l-1.5 1.1h-.1l-.5.3-1.8 1.1h-.2l-.4.3-1.9 1.3-.4.3-1.9 1.2h-.1l-.4.3-1.9 1.2h-.2l-.4.3-1.9 1.2-.5.3-1.8 1.1h-.2l-.4.4-2 1.3-.3.3h-.2l-1.7 1.2h-.1l-.4.3-1.9 1.2-.5.4-1.7 1.1-.3.2h-.3l-.2.3-1.5 1-.4.2h-.2l-.4.3-1.5 1h-.2l-.4.3-.3.2-1.3.8h-.3l-.3.4-.7.4-.7.5-.6.4-1.4.9-.6.4-1.3.8Zm-1.8-2.8.3.6.5-.3.6-.4 1.5-.9.3-.2.3-.2 1.4-.9h.2l.3-.3h.2l1.5-1.1.3-.2.4-.2h.2l1.7-1.2h.3l.4-.4h.2l1.1-.8.8-.5.4-.2h.2l1.8-1.3.6-.3 2-1.2.6-.3 1.8-1.1.6-.3 2.3-1.5.6-.3 1.9-1.2.6-.3 2.1-1.3.6-.3 2-1.2.6-.3 2-1.3.6-.3 2.1-1.3.6-.3 1.8-1.2.6-.4 1.6-1 .6-.4 1.4-.9h.2l.6-.5 2.3-1.5-.3-.6-2.2 1.3-.3.2-.3.2-1.5.9-.4.3-.2.2-1.6 1h-.1l-.5.4-1.9 1.2h-.2l-.4.3-2.1 1.3-.4.3-2 1.3h-.1l-.4.3-2 1.3h-.2l-.4.3-2 1.3-.5.3-1.9 1.2h-.2l-.3.3h-.1l-2.2 1.4-.4.3h-.2l-1.8 1.2h-.1l-.4.4-2 1.2-.5.4-1.8 1.2-.3.2-.3.2h-.2l-1.7 1.2-.4.3h-.1l-.3.2-1.7 1.1-.3.2-.3.2h-.2l-1.6 1.1-.3.2-.3.2-.3.2h-.2l-1.1.8-.5.4-1.5.9-.6.4-.3.2Zm-1.7-2.6s0 .2.2.3c0 .1 0 .2.2.3h.1l1.6-1 .6-.4h.2l1.3-.9h.2l.3-.3.3-.2 1.6-1h.2l.3-.3.3-.2 1.8-1.1.3-.2h.1l.4-.3 1.8-1.1h.2l.4-.3h.2l1.9-1.3.5-.4 2.1-1.3.4-.3h.1l1.7-1.1.2-.2.5-.3.6-.4.7-.4 1.2-.7.6-.3 2-1.2.6-.4 2.2-1.4.6-.3 2.1-1.3.6-.3 2.1-1.3.6-.3 2.3-1.4.6-.3 2-1.2.6-.4 1.7-1.1.6-.4 1.6-1 .6-.4 1.4-.9-.3-.6-1.2.8-.6.3-.6.4-.9.6h-.1l-.4.3h-.2l-1.7 1.2-.5.4-2 1.2h-.2l-.3.3-2.2 1.4-.5.3-2.1 1.3-.5.3-2.1 1.3h-.2l-.4.3-2.2 1.4-.5.3-2 1.3h-.2l-.3.3h-.1l-2.3 1.5-.4.3h-.2l-1.9 1.3h-.1l-.4.3-2.1 1.3h-.1l-.4.3-1.9 1.3-.6.3h-.2l-.3.3-.6.4-.8.5h-.2l-.6.4-.3.2-.9.5-1 .6-.6.4-1.9 1.2-.6.4-1.6 1-.6.3-1.5.9Zm-1.6-2.8.3.6.7-.4.6-.4 1.2-.7.3-.2h.2l.3-.3.3-.2 1.8-1.2h.2l.3-.3.3-.2 2-1.2.3-.2h.2l.4-.3 1.9-1.2h.2l.2-.3.4-.2 1.9-1.2h.2l.5-.4 1.1-.7 1.1-.7.6-.4 1-.6 1-.6.6-.3 2.6-1.6.6-.3 2.1-1.3.6-.3 2.3-1.5.6-.3 2.2-1.4.6-.3 2.2-1.4.6-.3 2.4-1.5.6-.3 2.1-1.3.6-.4 1.8-1.1.6-.4 1.7-1.1.6-.4.4-.2-.3-.6h-.2l-.6.5-1.7 1.1-.6.4-1.8 1.1h-.1l-.5.4-2.1 1.3h-.2l-.4.3h-.1l-2.3 1.5-.4.3-2.3 1.4h-.1l-.4.3-2.2 1.4h-.2l-.4.3-2.3 1.5-.5.3-2.1 1.3-.3.2-.3.2h-.2l-2.4 1.6h-.1l-.4.3h-.2l-2 1.4h-.1l-.4.3h-.1l-2.2 1.4h-.1l-.4.4-2 1.3-.4.2h-.2l-.3.3-1.9 1.2h-.1l-.4.3-.4.2-.6.4-.7.4-.6.4-.6.4-1.3.8-.7.4-.6.3-1.7 1.1-.6.4-.5.3Zm-1.5-2.8h.2v.2l.2.4h.2l1.8-1.2.6-.4h.2l1.7-1.2h.2l.3-.3.3-.2 2-1.3.4-.2h.2l.4-.4 2-1.2.3-.2.3-.2h.3l2.1-1.5.4-.3h.1l2.1-1.4.3-.2.4-.3h.1l1.7-1.1.4-.2.5-.4 2.8-1.7.6-.3 2.2-1.4.6-.3 2.5-1.6.6-.3 2.3-1.4.6-.3 2.4-1.5.6-.3 2.5-1.6.6-.3 2.2-1.4.6-.4 1.9-1.1.6-.4 1.7-1.1-.4-.5-1.5.9-.6.4-.6.4-1.3.8h-.1l-.5.4-2.2 1.4h-.1l-.4.3-2.5 1.6-.5.3-2.4 1.5-.4.3-2.3 1.5h-.2l-.4.3-2.5 1.6-.4.3-2.2 1.4-.3.2-.3.2h-.1l-2.5 1.7h-.2l-.4.3h-.2l-2.1 1.4h-.2l-.4.3h-.1l-2.2 1.5h-.2l-.4.4h-.1l-2.1 1.4-.5.3-.6.4-1.5.9h-.2l-.6.5-2.4 1.5-.6.4-1.2.7-1 .6-.6.4-1.7 1.1Zm-.7-3.3-.3.2c0 .2 0 .4.2.7l.7-.4.6-.4 1.6-1 .4-.2.3-.2h.2l.4-.3 2.2-1.4.3-.2.5-.3 2.2-1.3.3-.2h.2l.3-.3 2.3-1.4.4-.3h.1l2.4-1.6.4-.3h.1l2.1-1.4h.1l.5-.4 1-.6.7-.4 1.3-.8.6-.3 2.3-1.4.6-.3 2.6-1.6.6-.4 2.4-1.5.6-.3 2.5-1.6.6-.3 2.6-1.6.5-.3 2.3-1.4.6-.4 2-1.2.6-.4.4-.2-.5-.5-.6.4-2 1.2-.6.3-2.4 1.5h-.2l-.4.3-2.6 1.7-.5.3-2.5 1.6-.5.3-2.5 1.5h-.2l-.4.3-2.6 1.6-.5.3-2.3 1.5-.3.2h-.2l-.2.3-2.6 1.6h-.1l-.4.3h-.2l-2.2 1.5h-.2l-.4.3h-.1l-2.4 1.6h-.1l-.4.4-.3.2-1.2.8-.8.5-.4.2h-.2l-2.4 1.6-.5.4-2.5 1.6-.6.3-2.3 1.4-.6.4Zm.5-4-1.4.9v.8l1.8-1.2.6-.4.9-.6 1.4-.9.3-.2h.1l.4-.3 2.2-1.4.3-.2h.2l.4-.3 2.3-1.5.4-.3h.2l2.5-1.7h.1l.4-.3h.2l2.3-1.6h.2l.3-.3h.1l2.5-1.6.5-.3.2-.2.3-.2.4-.3 1.4-.9.6-.4.6-.3 1.4-.9 1.4-.9.6-.3 2.5-1.6.5-.3 2.7-1.7.6-.3 2.8-1.7.6-.3 2.4-1.5.6-.3 1.2-.8-.7-.4-.7.5-.6.4-2.5 1.5-.6.3h-.1l-2.6 1.7-.5.3-2.7 1.7-.5.3-2.6 1.6h-.1l-.4.3-2.7 1.7-.5.3-2.4 1.5-.3.2-.3.2h-.2l-2.7 1.8h-.2l-.4.4h-.2l-2 1.4-.3.2-.6.3h-.2l-.6.5-1.9 1.2-.6.3-2.5 1.5-.5.3-2.6 1.6-.6.3-2.7 1.6-.6.4Z"/>
    <path d="m206.7 169.2.5 2.4v.7l.7 2.7v.7l.5 1.4.2 1.1v.6h.1v.6l.6 2.2v.6h.1v.5l.6 2.2v.6h.1v.5l.7 2.7v.8l.7 2.4v.6h.1l.5 2.5v.7l.2.3.5 2.5v.7l.2.2.3 1.4.2.7v.7l.8 3v.7l.7 2.7.2.7.6 2.7v.7l.7 2.6.2.7 2.7 12.3.6-.3-.8-3.6-1.9-8.7v-.6h-.1l-.6-2.7v-.6h-.1l-.6-2.8v-.5h-.1l-.6-2.8v-.5h-.2l-.6-2.8v-.5l-.2-.5-.5-2.3v-.7l-.7-2.5v-.6l-.2-.2-.5-2.3v-.8h-.2l-.5-2.4v-.3l-.2-.4v-.2l-.3-1.3-.4-1.8v-.7l-.7-2.7v-.7l-.7-2.7v-.7l-.7-2.5v-.7l-.7-2.7-.2-.7v-.6l-.5-.5-.6-.9Z"/>
    <path d="m203 165.4.3 1.2.2.7.6 2.6.2.7.2.7.5 1.8v.3l.2.3v.5l.7 2.1v.5h.2v.5l.6 2.1v.6h.1v.5l.7 2.2v.5h.2v.6l.6 2.2v.5h.2v.6l.8 2.7v.5l.2.3.6 2.4v.6h.1l.6 2.4v.3l.2.4v.2l.7 2.5v.7h.2l.5 2.3v.7l.2.4.5 2v.5h.1l.2.7v.2l.2.6.5 1.9.2.7.7 2.7.2.7.6 2.5.2.7 2.7 11 .3 1.1.6-.3-.5-2.1-.2-.8-.2-.7-2.1-8.5v-.6h-.2l-.6-2.6-.2-.7-.7-2.7v-.6h-.1l-.7-2.6v-.6h-.2l-.7-2.8v-.5l-.2-.5-.6-2.3v-.6h-.2l-.6-2.7v-.6l-.2-.2-.6-2.3-.2-.7v-.2l-.6-2.2v-.7l-.4-.9v-.2l-.2-.8-.4-1.4-.2-.7-.2-.9-.4-1.7-.2-.7-.7-2.6-.2-.7-.6-2.5v-.7l-.7-2v-.6l-.3-.7v-.3h-.1l-.5-2.2-.2-.7-.6-2.6-.2-.7-.9-.8Zm-3.6-2 .5 1.7.2.6.6 2.2v.3l.2.7v.4h.1l.6 2.1v.5h.2v.6l.7 2v.6l.3.8.4 1.6v.2l.2.7v.3l.2.3.5 1.7v.2l.2.6.3 1.1.4 1.5v.4l.2.3.3 1.1.4 1.4.2.6v.4l.8 2.6v.2l.3.7v.5l.5 1.3.2.6.2.7.7 2.3.2.7.4 1.6.2.7v.4l.3.7.4 1.4.3.9.2.7.8 2.9.2.7.7 2.6.2.7.7 2.6.2.7.7 2.5.2.7 3.3 11.8.6-.3-.2-.7-.3-1.2v-.3l-2.8-9.6-.2-.7-.7-2.5v-.7h-.1l-.7-2.6-.2-.7-.7-2.6v-.6h-.2l-.7-2.7v-.3l-.2-.3v-.4l-.7-2.3v-.5h-.2l-.7-2.7v-.5l-.2-.2-.7-2.3-.2-.7-.6-2.3v-.3l-.2-.4-.8-2.9v-.3h-.1l-.2-.6-.6-2.2v-.4h-.1v-.7l-.8-2.2v-.4h-.1l-.2-.7-.6-2v-.4l-.2-.2v-.5l-.8-2.2v-.4l-.2-.2v-.5l-.8-2.1v-.4l-.2-.2v-.5l-.7-1.9-.2-.6-.2-.7-.7-2.5-.2-.7-.3-.9-.8-.3Zm-4-.7 1.4 4.3.2.6.8 2.4.2.6.8 2.5.2.6.8 2.5.2.6.9 2.6.2.6.8 2.4.2.6.8 2.5.2.7.8 2.5.2.6 1 3.1.2.6.8 2.3.2.6.7 2.3.2.7.8 2.6.2.6.7 2.2.2.7.9 2.8.2.7.8 2.5.2.6.8 2.5.2.7.8 2.5.2.6 3.7 11.4.6-.3v-.3l-.2-.3-.3-.8v-.2l-.2-.5-3.1-9.3-.2-.6-.8-2.5v-.2l-.2-.5-.8-2.5-.2-.6-.8-2.5-.2-.6-.8-2.6v-.2l-.2-.3v-.4l-.8-2.2-.2-.5-.8-2.6v-.6l-.2-.2-.7-2.3-.2-.6-.8-2.3v-.3l-.2-.3v-.2l-.9-2.6v-.3h-.2l-.2-.6-.7-2.2v-.3l-.2-.3v-.4l-.8-2.1v-.4h-.2l-.2-.6-.7-2.1v-.3l-.2-.3v-.3l-.8-2.2v-.3l-.2-.2v-.4l-.8-2.1v-.4l-.2-.2-.2-.4-.7-2.2v-.6l-.2-.4-.7-2.2v-.5h-.2v-.4l-1.4-3.9h-.6Zm-4.2.4 1.4 3.6.9 2.3v.2l.2.4v.2l.9 2.2v.3h.1v.3l.2.3.8 2.1v.3h.1v.3l.2.3.8 2.1v.4h.2v.3l.2.3.8 2.2v.3l.2.3v.2l.9 2.1v.2l.4.7.8 2.2.2.4v.2l.2.3.8 2.1v.2h.1v.4l.2.2.8 2.2v.3l.2.4v.3l.2.3.7 1.8.2.4.2.5.8 2.4.2.6v.4l.8 1.8v.3l.3.6.7 1.8.2.4.2.6.3.8.5 1.4.2.6.2.6.2.7.5 1.2.2.5.2.5.9 2.4v.2l.2.4v.2l.2.5.3.9.4 1 .2.6.2.6.2.6 3.6 9.4.2.5.5-.3-.2-.5-4-10.6-.2-.6-.9-2.4v-.2l-.2-.5-.9-2.5-.2-.6-.9-2.4-.2-.6-.9-2.5v-.2l-.2-.4v-.3l-.9-2.2-.2-.6-1-2.5-.2-.5v-.2l-.9-2.2v-.2l-.2-.5-.8-2.2-.2-.6v-.3l-1.1-2.5v-.5l-.3-.4-.8-2.2v-.3l-.2-.3v-.4l-.9-2.1v-.4h-.2l-.2-.6-.7-1.9-.3-.7v-.4l-.9-2-.2-.5v-.3l-.2-.4-.8-2v-.4l-.2-.3v-.4l-.8-2-.3-.8v-.3l-.9-2v-.4l-.3-.4v-.2l-.7-1.9-1.5-3.9h-.2l-.3.1h-.1Z"/>
    <path d="m187.3 164.2 1.4 3.3 1.5 3.6v.3l.3.3v.3h.1l.9 2 .3.6v.2l1 2.1v.3l.3.3v.2l1 2.1.2.4v.2l.2.3.8 1.9v.2l.3.6v.3l1 2v.3l.3.3v.3l.7 1.2.4.9.2.4v.2l.2.3.9 2 .2.4v.2l.2.3.8 2 .3.8.3.6.4.9.6 1.2.3.6.9 2.2.3.6 1.1 2.5.3.6.9 2.1.3.6 1.2 2.7.3.6 1 2.4.3.6 1.1 2.4.3.6 1 2.4.3.6 4.7 10.8.5-.3-.2-.5-.2-.5-.2-.4-4.1-9.4-.2-.6-1-2.3v-.2l-.2-.4-1-2.4-.2-.6-1-2.4-.2-.6-1.1-2.5v-.6l-.3-.3-.9-2.1-.2-.6-1.1-2.5-.2-.5-.9-2.3v-.2l-.3-.4-.9-2.2-.2-.4v-.2l-.2-.3-1.1-2.5v-.2l-.2-.3v-.3l-1-2.1v-.3l-.3-.3v-.3l-1.1-2.1v-.3l-.2-.3v-.3l-1.1-2.1v-.2l-.2-.3v-.3l-1.1-2.2v-.2l-.3-.3v-.3h-.1l-.9-2.2v-.2l-.3-.3v-.3l-1-2.1v-.2l-.3-.4v-.2l-.9-1.8-.2-.5-.2-.4v-.2l-1.4-3.2-1.5-3.6-.6.2Zm-3.7 1.4 1.9 3.9.6 1.4 1 2.1.3.6.8 1.6.2.3v.3l.5.6.4.8.4.8.4.7.3.6.7 1.4.4.9.3.6.7 1.4.5.9.3.6 1.1 2.2.3.6.7 1.5.4.9.3.6 1.1 2.3.3.6 1.4 2.9.3.6 1 2.1.3.6 1 2.1.3.6 1.2 2.4.3.6 1 2.1.3.6 1.3 2.6.3.6 1.1 2.3.3.6 1.1 2.4.3.6 1.1 2.3.3.6 5.1 10.5.6-.3-.4-.9-4.7-9.6v-.2l-.3-.4-1.1-2.3v-.2l-.3-.4-1.1-2.4-.2-.6-1.1-2.3-.2-.6-1.2-2.4v-.2l-.3-.3v-.3l-1.1-2.1-.2-.5-1.1-2.4-.2-.5-1-2.3v-.2l-.3-.4-1-2.1-.2-.4v-.2l-.2-.2-1.2-2.5v-.2l-.3-.3v-.3l-1.1-2.1v-.2l-.2-.2-.2-.3-1-2.1v-.2l-.2-.2-.2-.4-1-2.1v-.5l-.3-.3-1.1-2.2v-.2l-.2-.3v-.3l-1.2-2.1-.2-.5v-.2l-1.1-2.1v-.2l-.3-.3v-.3l-1.2-2.2-.2-.4v-.2l-2-4-1.6-3.3-.6.3Zm-3.9 1.9 1.7 3 2.4 4.5.3.6 1.2 2.2v.2h.1l.2.4v.2l1.2 2v.2l.3.4 1.2 2.2.3.6v.2l1.1 2 .3.7 1.1 2.1v.2h.1l.2.4v.2l1.2 2.1v.3l.3.3v.2l1.2 2v.3l.3.3.3.5.2.3.7 1.3.4.8v.2l.3.4.4.7.5.8.3.5.2.4v.2l.3.5.7 1.2.2.3.3.6.8 1.5.3.6v.3l.5.5.7 1.4.4.7v.2l.3.4.4.8.6 1.2.4.6.3.5.6 1.2.6 1.1.3.6.3.5v.2l1 1.6.3.6.5 1 .7 1.3.3.6 5.5 10.2.6-.3-.6-1-5-9.1-.2-.6-1.2-2.2v-.2l-.3-.4-1.2-2.3-.3-.6-1.2-2.3-.2-.6-1.3-2.4-.2-.5v-.3l-1.3-2-.3-.6-1.3-2.3-.3-.5-1.1-2.1v-.2l-.3-.4-1.1-2.1-.2-.4-.2-.5-1.3-2.3v-.2l-.2-.4v-.2l-1.2-2.1v-.2l-.3-.3v-.2l-1.3-2.1v-.2l-.3-.3v-.3l-1.2-2-.2-.6-1.2-2.3-.2-.5v-.2l-1.3-2.1-.2-.5v-.2l-1.2-2.1v-.2l-.3-.4v-.2l-1.3-2.1-.3-.5-2.3-4.2-1.8-3.4-.6.3Zm-3.4 1.9 4.5 7.5.3.6 1.3 2.1.3.6 1.3 2.2.3.6 1.3 2.2.3.6.2.3 1.1 1.9.3.5 1.2 2.1.3.6.9 1.5.2.3.2.4.3.6 1.3 2.2.3.6.5.9.7 1.2.4.7.3.6.2.3.8 1.4.2.3.3.6.9 1.6v.2l.2.3.3.5 1.1 1.9.2.4.3.5 1.2 2 .3.6 1.4 2.4.3.5 1.2 2.1.3.6 1.3 2.2.2.5v.2l1.3 2 .2.5v.2l5.4 8.9.6 1 .6-.3-4.2-7.1-.3-.4-1.4-2.4-.3-.6-1.1-2v-.2l-.4-.6v-.2l-1.3-2v-.2l-.3-.4-1.3-2.2-.3-.6-1.3-2.3v-.2l-.3-.4v-.2l-1.3-2-.3-.6-1.3-2.3-.3-.5-1.2-2v-.2l-.3-.3v-.2l-1.2-1.8-.3-.4-.2-.5-1.4-2.3-.2-.5v-.2l-1.4-2.1-.2-.4-.2-.3-1.2-2.1-.2-.4-.2-.3-1.2-2-.2-.5-1.3-2.3-.2-.5v-.2l-1.4-2.1-.2-.4v-.2l-1.3-2.1-.2-.5-1.3-2.3-.3-.5-2.9-4.9-1.6-2.7-.6.3Zm-6 37.4-.5-.4-2.2-1.7-.5-.4-.2-.2-.7-1.4 1.5 1.1.6.4 2.2 1.7.6.4.9.7.9.7.3.2.5.4 2.2 1.8.4.3h.1l.5.5 1.7 1.3.3.2.5.4 1.9 1.5.3.2.3.2 2.1 1.6h.2l.2.3.3.3 1.9 1.5.4.3h.1l2.2 1.9h.2v.3l.5.3 2 1.5.2.2.2.2.3.3 2 1.5.3.2.2.2.4.3 1.9 1.5.2.2.2.2.3.3 7.1 5.5 2.3 1.8-.6.3-3.6-2.8-5.8-4.5-.4-.3h-.2l-.2-.3-2-1.5-.4-.3h-.2l-.3-.3-2-1.5-.3-.3h-.2l-.2-.3-2-1.5-.4-.3h-.1l-.2-.2-2.3-1.7h-.1l-.3-.4-1.9-1.5-.4-.3h-.2l-.2-.3-2.1-1.6-.3-.3-.2-.2-1.9-1.5-.5-.4-.3-.3-1.7-1.3-.5-.5-.7-.6-1.5-1.1-.4-.3-.6-.4-2.1-1.7Z"/>
    <path d="m171.7 205.1-2.1-1.7-.6-.4-2-1.6-.5-.5-2.1-1.7-.4-.3-.4-.6-1.5-1.6v-.2l.3.3 2.1 1.7.5.4 2.1 1.8.5.4.4.3 1.6 1.3.4.4 2.1 1.8.5.4 2.1 1.8.5.4 2.1 1.8.5.4.5.5 1.6 1.3.3.3h.1l.4.4 1.8 1.4h.1l.3.4.2.2 2 1.6.2.2.2.2.3.2 1.9 1.5.4.4 2.2 1.8.4.3.3.3 1.9 1.5.2.2.2.2.3.2 1.9 1.6.2.2.3.2.3.2 1.8 1.5.2.2.2.2.3.2 8 6.6 1.2 1-.6.4-9.1-7.5-.5-.4-2.1-1.7-.5-.4-2.2-1.8-.5-.4-2.1-1.7-.5-.4-2.4-1.9-.5-.4-1.9-1.5-.6-.4-2.2-1.8-.5-.4-1.9-1.6-.5-.4-1.9-1.5-.5-.5-2.6-2.2-.5-.5-2.1-1.7-.5-.4Z"/>
    <path d="M160.4 191.3v.4l.1.7.5.5.5.5 2 1.8.5.4 2 1.7.5.5 2 1.8.5.4 1.9 1.7.5.5 2 1.8.5.4 2 1.8.5.5 2.5 2.2.5.5 1.8 1.6.5.5 1.8 1.6.5.5 2.1 1.8.5.5 1.8 1.6.5.5 2.3 2 .5.4 2 1.8.5.5 2.1 1.8.5.4 2 1.7.5.5 8.8 7.7.6-.3-1.1-1-7.8-6.8-.7-.6-1.8-1.6-.3-.2-.4-.4-1.9-1.6-.7-.6-1.8-1.6-.3-.2-.4-.4-2.1-1.8-.5-.5-1.8-1.6-.3-.2-.4-.4-1.9-1.7-.6-.5-1.7-1.5-.4-.3-.4-.3-1.6-1.4-1-.9-2.1-1.8-.5-.5-2-1.8h-.1l-.4-.4-2-1.8-.5-.5-1.9-1.7h-.1l-.4-.4-2-1.8-.6-.5-1.8-1.6-.5-.5-2-1.8-.5-.5-1.4-1.2Zm.1-4.5-.1.8 1.3 1.3.5.5 1.9 1.8.5.5 1.9 1.8.5.5 1.9 1.8.5.5 2 1.9.5.5 1.8 1.7.5.5 1.9 1.8.5.5 1.9 1.8.5.5 2.4 2.3.5.5 1.7 1.7.5.5 1.7 1.7.5.5 2 1.9.5.5 1.7 1.6.5.5.7.6.6.6.9.8.5.5.3.3.7.7.9.8.4.4h.1l1.3 1.3.7.7.2.2.3.3 1 .9.2.2.7.6.5.5 7.4 7 .8.7.3.3.6-.3-8.4-8-.2-.2-.5-.4-1.7-1.6-.3-.3-.4-.4-1.8-1.7-.2-.2-.3-.3h-.1l-1.8-1.8-.3-.2-.2-.2h-.2l-2-2-.4-.4-1.7-1.7-.2-.2-.4-.4-1.8-1.8-.2-.2-.4-.3-1.7-1.6-.3-.3-.2-.2-.3-.2-1.5-1.4-.5-.5-.4-.4-2-1.9-.4-.4-1.9-1.9-.4-.4-1.9-1.9-.5-.5-1.8-1.7h-.1l-.4-.5-1.9-1.9h-.2l-.3-.5-1.9-1.8h-.2l-.3-.5-1.8-1.8-.5-.5-1-.9-.8-.8-.5-.5-1.8-1.7Zm1.3-4.1-.3.6 3.4 3.5.5.5 1.8 1.8.5.5 1.8 1.9.5.5 1.8 1.8.5.5 1.8 1.9.5.5 1.7 1.8.5.5 1.8 1.9.5.5 1.8 1.9.5.5 2.3 2.4.5.5 1.7 1.7.5.5 1.7 1.7.5.5 1.9 2 .5.5 1.6 1.7.5.5 2 2.1.5.5 1.8 1.9.5.5 1.9 1.9.5.5 1.8 1.8.5.5 2.5 2.6h.1l4.8 5.1.6.6.4-.2h.1l-.2-.3-2.4-2.5-5.4-5.7-.2-.2-.3-.3-.2-.2-1.6-1.7-.3-.3-.2-.2-.2-.2-1.7-1.7-.2-.2-.3-.3h-.1l-1.7-1.9-.2-.2-.2-.3h-.1l-1.9-2.1-.4-.4-1.6-1.8-.2-.2-.3-.3-1.8-2-.4-.5-1.6-1.7-.3-.3h-.2l-.2-.4-1.5-1.5-.5-.5-.4-.4-1.9-2-.3-.4-1.8-2-.4-.4-1.8-2-.4-.4-1.7-1.9-.4-.5-1.8-1.9-.4-.5-1.8-1.9h-.1l-.3-.5-1.8-1.9h-.1l-.4-.5-1.7-1.8-.2-.2-.3-.3h-.1l-1-1.1-2.6-2.6Z"/>
    <path d="m164 179.4-.4.5 4.4 5 .4.5 1.7 1.9.4.5 1.7 1.9.4.5 1.7 1.9.4.5 1.7 2 .4.5 1.6 1.9.4.5 1.7 2 .4.5 1.7 1.9.4.5 2.1 2.4.5.5 1.5 1.8.4.5.5.6.6.7.5.5.4.5.4.5 1 1.2.2.2v.2l.5.4h.1l1.5 1.8.5.5 1.8 2.1.3.4.2.2 1.6 1.8v.2l.4.3.2.2 1.6 1.8.2.2.2.2.2.3 1.5 1.8v.2l.4.3.2.2 5.1 5.9 1.6 1.9.7.9h.1l.4-.3-7.6-8.6-.4-.5v-.2l-1.4-1.5-.3-.3-.4-.5-1.7-2-.4-.5-.2-.2-1.5-1.7-.2-.2-.2-.3-.2-.2-1.6-1.8v-.2l-.5-.5-1.5-1.8v-.2l-.4-.3-1.7-2-.4-.5-1.6-1.8-.2-.3-.2-.2-.2-.2-1.3-1.6-.4-.5-.4-.5-1.8-2-.3-.4-1.7-2-.3-.4h-.1l-1.7-2.1-.3-.4-1.6-2-.4-.5-1.7-2-.4-.4-1.7-2-.3-.5-1.7-1.9-.3-.5-1.7-1.9-.2-.2-.3-.3-2.3-2.7-2.2-2.5Zm2.2-2.4 4.8 6 .4.5 1.6 2 .4.5 1.6 2 .4.5 1.6 2 .4.5 1.7 2 .4.5.6.8.6.7.3.4.4.5.7.9.7.9.2.3.4.5.3.4 1.1 1.4.2.2.4.5.2.3 1.4 1.7.5.5.4.5 1.2 1.5.3.4.2.3.2.2 1.4 1.7.4.6 1.6 2 .3.5v.2l1.6 1.8.3.6 1.7 2.1v.2l.4.3.2.2 1.5 1.8v.2l.4.3.2.2 1.5 1.9v.2l.3.2.2.3 1.5 1.8.2.4.2.2 6.8 8.4.4.5.6-.3-7.2-8.9-.4-.5-1.6-2-.4-.5-1.6-2.1-.4-.5-.8-1-.3-.3-.6-.7-.4-.5-.5-.6-.7-1v-.2l-.6-.6-.4-.5-.3-.4v-.2l-1.1-1.2-.4-.5-.2-.2-1.4-1.7-.4-.6-1.5-1.8-.3-.3-.2-.2-.2-.2-1.3-1.6-.4-.5-.4-.5-1.6-2-.4-.5-1.6-2-.3-.4-1.5-2.1-.3-.4v-.2l-1.7-1.9-.3-.5-1.7-2.1-.3-.4-1.6-2.1-.3-.4-1.6-2.1-.3-.4-1.6-2-.4-.5-2.8-3.5-2.1-2.6-.5.5Z"/>
    <path d="m169.4 174.3 4.9 6.8.4.5 1.5 2 .4.5 1.5 2.1.4.5 1.5 2 .4.5.8 1.1.4.6.3.5.4.5.6.8.4.6.4.6.4.5 1.4 2 .4.6.2.3 1.3 1.8v.2h.1l.3.4 1.5 2.2.3.4.4.5 1.2 1.7v.2l.4.3.2.2 1.4 1.9.3.4 1.5 2.1v.2l.4.4 1.3 2v.2l.4.4 1.6 2.2.2.5v.2l1.6 2 .3.4v.2l1.6 2v.2l.3.3.2.3 1.4 1.9.2.4.2.2 5.7 7.9 1 1.4.6-.3-6.7-9.3-.4-.5-1.5-2-.4-.5-1.6-2.1-.4-.5-1.5-2.1-.4-.5-1.7-2.3-.4-.6-1.4-1.9-.4-.5-.5-.7-.8-1-.3-.5-.4-.5-.4-.6-.9-1.3-.4-.6h-.1v-.2l-1.2-1.7-.2-.3-.2-.2-.3-.4-1.6-2.2-.3-.5-1.4-2.1-.3-.5-1.4-2.1-.3-.5h-.1v-.2l-1.4-2-.3-.5-1.5-2.1-.4-.6-1.5-2-.3-.4-1.5-2.2-.3-.5-1.5-2.1-.3-.5-3.1-4.2-1.9-2.6-.5.4Zm3-2.3 1.9 2.8 2.9 4.4.3.5 1.4 2.1.3.5 1.4 2.1.3.6 1.4 2.1v.2l.3.4 1.4 2.2.3.5 1.3 2v.2l.4.3 1.4 2.1v.2l.4.4 1.4 2.1v.2l.4.3 1.5 2.3.2.4.3.5 1.2 1.8v.2l.3.3.2.2 1.3 1.9.3.5 1.5 2.3.3.4 1.3 2v.2l.4.3 1.5 2.3.3.5v.2l1.5 2 .2.5v.2l1.5 2.1.2.4.2.2 1.3 2 .2.5v.2l5.9 8.7.6.9.6-.3-6.4-9.6-.4-.5-1.4-2.1-.4-.5-1.5-2.2-.4-.5-1.4-2.1-.4-.6-1.6-2.4-.3-.6-1.3-1.9-.4-.5-1.5-2.2-.3-.6-1.3-1.9-.4-.5-1.3-1.9-.4-.5-1.8-2.7-.4-.6-1.4-2.1-.4-.5-1.5-2.1-.4-.6-1.4-2-.3-.6-1.5-2.2-.4-.5-1.4-2.1-.4-.5-1.4-2.1-.3-.6-1.4-2.1-.4-.5-4.8-7.2-.5.4Z"/>
  </g>
  <path fill="url(#a)" d="m215 242.8 1.3 3.1 2.4 2.3 1 1.1a28 28 0 0 1 3.2 4.7l.4.7 5.1 8.7v.1l4 6c2.5 4.1 3.3 5.7 5 6a4 4 0 0 0 4.5-3.8l.3-1.8-8.2-13.7-.2-.2-3.1-4.2a56.4 56.4 0 0 1-6.1-12.4c-.5-.2-1.1-.6-1.6-1.3a18.4 18.4 0 0 0-8.2 4.7Z"/>
  <path fill="#1a1a1a" d="M210.4 278.4c0 1.3.5 2.4 1.2 3.2l.4.5c.6.6 1.2 1 1.3 1l.9.4c.8.3 2 .4 5.4.9h.5c2.1.4 3.1.5 4 .9 2.2.8 2.6 1.7 4.6 2.9.8.5 3.8 2.1 7.6 2.1h1.8c1.3-.1 2.9-.6 4.4-1.7.6-.5 2.7-2 3.2-4.5.4-2.1-.4-3.9-1.3-5.8-.5-1.2-1-1.8-1.3-2.4l-.1-.2-.5-1.1-.2-.9a10 10 0 0 1 .1-3.9l-1.6 1.6-.7.5c-1.6 1-4.6 1.4-5 1.4.4 1.3.9 1.9 1.4 2.1.6.3 1.3.2 2.4.9l.3.2h.1c.5.3 1.7 1 2.2 2l.2.7c.1 1-.5 1.8-.7 2.2-.9 1.3-2.3 2-3.6 2.2-1.9.3-3.1-.9-6.9-3.9l-3.2-2.5a24.9 24.9 0 0 0-4.2-2.7c-1.8-.8-5.3-2.3-8.6-1-.4.2-3.9 1.7-4.1 4.6Zm5.3-2.5c1.7-.6 3.3-.4 4-.3h.3c.5 0 .9.2 1.3.3 1.3.4 2.4 1.1 3.8 2l.8.5.8.5 1.2.9 1.5 1.4.2.2c1.5 1.5 1.5 2.1 2.8 2.8 1.6.9 3.2 1 4.3 1h1.1a6 6 0 0 0 5.3-2.9c0 .8 0 2-.7 3.1-1.1 1.9-3.1 2.5-4.2 2.9l-1.4.4h-2a4 4 0 0 1-1.8-.7l-2.9-1.9a21.8 21.8 0 0 0-8.6-3.4l-1.3-.1h-3.7l-1-.2-1.3-.6c-.8-.5-1.1-1-1.3-1.2a3 3 0 0 1-.7-2.1c0-.3.2-.6.4-.9.7-1.1 2.3-1.7 2.8-1.9Z"/>
  <path fill="#fdbe31" d="m161.1 184-.6 2.3-.2 1.3v2.9a23.1 23.1 0 0 0 2.7 8 87.3 87.3 0 0 0 20.6 25.8c4.8 4 9 6.3 10.6 7.2 4.9 2.6 9.4 4.2 12.9 5.3 0 .3 0 .9.6 1.4.6.6 1.8.7 2.8.2l.4-.2 1.6 1.4a17.3 17.3 0 0 1 3.8 6.4c.5-1 1.5-2.7 3.5-4.2 1.6-1.2 2.7-1.2 5-2.4h-.2a.8.8 0 0 1-.4-.2l-.5-.4a7 7 0 0 1-.8-1l-.3-.7-.3-.7-.8-2.6c-.5-1.8-.3-2.2-.1-2.4l.3-.3c.3-.2.6-.2.8-.6.2-.4 0-.9-.2-1.4v-.2l-.2-.3a3 3 0 0 0-.5-.7l.7-3.6c.2-1.4.9-5.7.5-12.5-.5-7.5-2-13.3-2.4-14.9-2-7.1-4.4-11.9-7.6-18.1-.6-1.1-1.9-3.6-4-6.6-2.6-3.8-4-5.8-6.8-7.4a15.5 15.5 0 0 0-3.3-1.4l-1.1-.3-.8-.1-1.8-.2c-1.1 0-2.9 0-6.5 1-2.1.6-5.3 1.7-10.4 4.7-4 2.2-7.1 4-10.7 7.3-4.9 4.5-6 7.6-6.3 8.5Zm52.4 49.2 1.8-1.1c1-.5 2.1-.7 3.3-.3l.9 5.3c0 .3 0 .6-.2.8-.6.7-1.4 1.2-2.3 1.4-.3.1-.7 0-1-.2l-.6-.5-3.1-2.3c-.5-.4-.5-.5-.3-1.2.3-.8.8-1.4 1.4-1.9Zm-44.9-54.4a46.7 46.7 0 0 1 13.6-9.1l.2-.1 2.3-1 1.4-.6 2.1-.8 1.4-.4 1.4-.3 1-.1 1.6-.1h2.1c.8 0 1.4.2 1.8.3 2.1.5 3.5 1.5 3.9 1.7a13.3 13.3 0 0 1 3.4 3.6l.3.3.1.2.3.4 1 1.4.4.6a54.4 54.4 0 0 1 6 10.9l.6 1.3.4.9.1.3.7 1.8.5 1.2.7 1.8.4 1.2.5 1.6v.3l.4 1.3.5 1.6a35 35 0 0 1 1.5 6.4c.2 1 .2 2 .3 3.2v5.8c0 5.9-.3 8.3-.6 9.8l-.2 1-.2.8v.3l-.2.6-.2.8v.8h-1.6l-.5.1h-.2l-.5.2-.4.1-.4.2c-.1 0-.2 0-.3.2l-.4.2-.3.2-.4.3-.3.2-.4.3-.3.3-.4.4-.2.2-.3.3-.2.3-.4.5-.5.9h-.9c-.7 0-1.6-.2-2.6-.4a55 55 0 0 1-17.8-9 76.8 76.8 0 0 1-10.9-10 80.7 80.7 0 0 1-11.7-16.5c-.5-1.3-1.1-2.5-1.5-4.1l-.4-1.7v-.4l-.2-1.3v-3.5l.4-1.2 1-2.3v-.2l.8-1.4.9-1.2 1.5-1.8Z"/>
  <circle cx="171.7" cy="219.6" r="17.6" fill="url(#b)" opacity=".9"/>
  <path fill="#23aae2" d="m305.3 184-237 151.4H0V172.3l85-73.9L305.3 184Z" opacity=".7"/>
  <path fill="#fff" d="M85 98.4 0 172V65.4l85 33Z"/>
  <path fill="#fff" d="M335 195.5v139.8H68.3l237-151.4 29.8 11.6Z" opacity=".7"/>
  <path fill="#23aae2" d="M164.7.9 85 98.4l-85-33V.9h164.7z"/>
  <path fill="#fff" d="M335 .9v164.2L305.3 184 85 98.4 164.7.9H335zM87.8 159.5c-3.7 0-6.6 3-6.6 6.6s.5 2.8 1.3 3.9l5.3 9.3 5.3-9.3a6.6 6.6 0 0 0-5.3-10.5Zm0 9.7a2.9 2.9 0 1 1 0-5.8 2.9 2.9 0 0 1 0 5.8Z"/>
  <path fill="none" stroke="#1b3067" stroke-miterlimit="10" stroke-width="2" d="M39.4 290.1h96.7m-96.7-37h96.7"/>
  <path fill="none" stroke="#fff" stroke-miterlimit="10" stroke-width="2" d="M39.4 208h96.7"/>
  <path fill="#fff" d="M335 .9v164.2L305.3 184 85 98.4 164.7.9H335z" opacity=".8"/>
  <g fill="#fff" data-name="PRINT">
    <path d="M29.6 13.9c0 .5-.2 1-.6 1.4l-6.3 6.3-6.8-3.9v-3.8c0-1.1.9-2 2-2s2 .9 2 2v4.9l6.3-6.3c.8-.8 2.1-.8 2.8 0 .4.4.6.9.6 1.4ZM29 31.7c-.4.4-.9.6-1.4.6s-.5 0-.8-.2l-.6-.4-2.1-2.1-4.1-4.1v4.9c0 1.1-.9 2-2 2s-2-.9-2-2v-3.8l6.8-3.9 4.2 4.2 2.1 2.1c.8.8.8 2.1 0 2.8ZM22.4 22s0-.2-.2-.2l-1.7-1-4.6-2.6L12 16a.5.5 0 0 0-.6.2v11.9c0 .3.2.5.5.5h.2l3.9-2.2 6.3-3.6.1-.2v-.3Zm-9.6-4.7 3 1.7 4.9 2.8.1.1v.3s0 .2-.2.2l-4.9 2.8-3 1.7-.5-.1v-9.3c0-.2.2-.3.3-.3h.2Z"/>
    <path d="m19.5 22.2-.1.2-3.7 2.1-2.3 1.3H13v-6.9c0-.1.1-.3.3-.3h.1l2.3 1.3 3.7 2.1.1.2v.1Zm43-.6-5.6-2.8-3.4-1.7c-.2-.1-.4 0-.5.2v9.5c.1.2.3.4.6.4h.4l3.2-1.8 2-1.1 3.5-1.9.2-.2V22l-.2-.2Zm-5.6 2.8-2.6 1.4-.4-.1v-7.3c0-.2 0-.3.2-.3h.1l2.7 1.3 1 .5 3.4 1.7.2.2v.2l-.1.1-4.3 2.3Z"/>
    <path d="m60.1 22-.1.1-3.2 1.7-2 1.1h-.3v-5.4c0-.1 0-.2.2-.2l2 1 3.3 1.6.1.1v.1Zm-21.6-4.8h-4.9v9.7H36v-3.2h2.5c2.3 0 4.1-1.4 4-3.4 0-1.9-1.8-3.2-4.1-3.2Zm-.2 4.6H36v-2.7h2.3c1.1 0 1.9.5 1.9 1.3s-.8 1.4-1.9 1.4ZM51.8 27l-7.7.1-.2-9.7h2.4l.1 7.8 5.3-.1.1 1.9zm15.7-3.7.1 3.5h-2.4v-3.5l-4.3-6.1 2.7-.1 2.7 4.2 2.8-4.2 2.6-.1-4.2 6.3zm14.4 3.9-1.6.1-4.1-4.5-1.7 1.6v2.9h-1.2l-.1-9.6h1.2l.1 5.3 5.4-5.4h1.6L77 22.1l4.9 5.1zm6.1-9.9c-3 0-5.5 2.3-5.5 5.1 0 2.7 2.6 5 5.6 4.9 3 0 5.5-2.4 5.5-5.1 0-2.7-2.6-5-5.6-4.9Zm.4 9a4.3 4.3 0 0 1-4.6-3.9 4.3 4.3 0 0 1 8.5-.1 4.2 4.2 0 0 1-3.9 4Zm14.8-1.8c0 1.5-1.2 2.8-3.8 2.8-1.6 0-3.1-.5-4.3-1.5l.8-.9c1 .9 2.2 1.4 3.5 1.4 1.7 0 2.5-.9 2.5-1.7 0-1-1-1.4-2.9-1.8-2.2-.4-3.5-1-3.6-2.7 0-1.5 1.5-2.8 3.6-2.8 1.4 0 2.7.4 3.8 1.3l-.7.9c-.9-.8-2-1.2-3.1-1.2-1.3 0-2.3.8-2.3 1.7 0 1 1.1 1.3 2.9 1.7 2.1.4 3.5 1.1 3.6 2.8Zm12.8 2.7h-1.2l-.1-7.3-3.9 6.8-4.1-6.7.1 7.3-1.3.1-.1-9.7h1.3l4 6.7 4-6.8h1.2l.1 9.6zm7.7-9.9c-3 0-5.5 2.3-5.5 5.1 0 2.7 2.6 5 5.6 4.9 3 0 5.5-2.4 5.5-5.1 0-2.7-2.6-5-5.6-4.9Zm.4 9a4.3 4.3 0 0 1-4.6-3.9 4.3 4.3 0 0 1 8.5-.1 4.2 4.2 0 0 1-3.9 4Zm14.8-1.8c0 1.5-1.3 2.8-3.8 2.8-1.5 0-2.9-.4-4.1-1.3l-.2-.2.8-.9.5.4c.9.6 1.9 1 3 .9 1.7 0 2.5-.9 2.5-1.7 0-.8-.6-1.2-1.6-1.5l-1.2-.3h-.2c-2.2-.4-3.5-1-3.6-2.7 0-1.5 1.5-2.8 3.6-2.8 1.4 0 2.7.4 3.8 1.3l-.7.9c-.9-.8-2-1.2-3.1-1.2-1.3 0-2.3.8-2.3 1.7 0 1 1.1 1.3 2.9 1.7.4 0 .8.2 1.1.3l1 .4c.9.4 1.5 1.1 1.5 2.1Z"/>
  </g>
  <path fill="#fdbe31" d="M-.4 103.7H335v55.2H-.4z"/>
  <circle cx="12.8" cy="119.4" r="4.8" fill="url(#c)"/>
  <circle cx="12.8" cy="143.2" r="4.8" fill="url(#d)"/>
  <circle cx="281.6" cy="281.2" r="33.5" fill="url(#e)"/>
  <path fill="#23aae2" d="M335 165.1v30.4L305.3 184l29.7-18.9z"/>
</svg>
