<?xml version="1.0" encoding="UTF-8"?>
<svg id="uuid-f5642ab6-75a5-4d71-b65b-8f0e8140ad0e" data-name="Layer 1" xmlns="http://www.w3.org/2000/svg" width="335" height="335" xmlns:xlink="http://www.w3.org/1999/xlink" viewBox="0 0 335 335">
  <defs>
    <linearGradient id="uuid-d8f967c9-ef4d-4d54-9c4f-c6847c84ace8" x1="186" y1="204" x2="333.1" y2="1.7" gradientTransform="matrix(1, 0, 0, 1, 0, 0)" gradientUnits="userSpaceOnUse">
      <stop offset="0" stop-color="#fff"/>
      <stop offset="1" stop-color="#f7931e"/>
    </linearGradient>
    <filter id="uuid-01bb9617-2ae0-4d3b-8fda-ce8f2f5ca668" data-name="drop-shadow-1" filterUnits="userSpaceOnUse">
      <feOffset dx="0" dy="3"/>
      <feGaussianBlur result="uuid-28d6ab1e-5446-49fd-945c-17826d36de04" stdDeviation="3"/>
      <feFlood flood-color="#000" flood-opacity=".4"/>
      <feComposite in2="uuid-28d6ab1e-5446-49fd-945c-17826d36de04" operator="in"/>
      <feComposite in="SourceGraphic"/>
    </filter>
    <filter id="uuid-60c62585-da72-47e0-8935-db812a1ea1d0" data-name="drop-shadow-2" filterUnits="userSpaceOnUse">
      <feOffset dx="0" dy="3"/>
      <feGaussianBlur result="uuid-6992da72-871c-403a-ae0b-45a49a983bfc" stdDeviation="3"/>
      <feFlood flood-color="#000" flood-opacity=".4"/>
      <feComposite in2="uuid-6992da72-871c-403a-ae0b-45a49a983bfc" operator="in"/>
      <feComposite in="SourceGraphic"/>
    </filter>
    <filter id="uuid-fb81936d-7b84-43ec-91d8-42ccb02a09b7" data-name="drop-shadow-3" filterUnits="userSpaceOnUse">
      <feOffset dx="0" dy="3"/>
      <feGaussianBlur result="uuid-0ece04c1-1a2c-4038-8bd2-74a1d47841e4" stdDeviation="3"/>
      <feFlood flood-color="#000" flood-opacity=".4"/>
      <feComposite in2="uuid-0ece04c1-1a2c-4038-8bd2-74a1d47841e4" operator="in"/>
      <feComposite in="SourceGraphic"/>
    </filter>
    <filter id="uuid-1c0f4bdd-fdba-4510-8030-6905fbaa584c" data-name="drop-shadow-4" filterUnits="userSpaceOnUse">
      <feOffset dx="0" dy="3"/>
      <feGaussianBlur result="uuid-72d8650e-ed25-43d7-9760-5fb616ddbae5" stdDeviation="3"/>
      <feFlood flood-color="#000" flood-opacity=".4"/>
      <feComposite in2="uuid-72d8650e-ed25-43d7-9760-5fb616ddbae5" operator="in"/>
      <feComposite in="SourceGraphic"/>
    </filter>
    <filter id="uuid-88e0e174-9352-43c3-abda-fa7055f88938" data-name="drop-shadow-5" filterUnits="userSpaceOnUse">
      <feOffset dx="0" dy="3"/>
      <feGaussianBlur result="uuid-b5e10545-8e71-4c6d-9ce3-efd90cbb7fe2" stdDeviation="3"/>
      <feFlood flood-color="#000" flood-opacity=".4"/>
      <feComposite in2="uuid-b5e10545-8e71-4c6d-9ce3-efd90cbb7fe2" operator="in"/>
      <feComposite in="SourceGraphic"/>
    </filter>
    <filter id="uuid-7e8287f7-1e71-49f0-aee8-11bb808fd4ba" data-name="drop-shadow-6" filterUnits="userSpaceOnUse">
      <feOffset dx="0" dy="3"/>
      <feGaussianBlur result="uuid-2c5ce8c0-3327-4c97-8d3e-b1e2aa2ee3f4" stdDeviation="3"/>
      <feFlood flood-color="#000" flood-opacity=".4"/>
      <feComposite in2="uuid-2c5ce8c0-3327-4c97-8d3e-b1e2aa2ee3f4" operator="in"/>
      <feComposite in="SourceGraphic"/>
    </filter>
    <filter id="uuid-56e43cd1-aeb7-4c45-818a-b8faac87f9f2" data-name="drop-shadow-7" filterUnits="userSpaceOnUse">
      <feOffset dx="0" dy="3"/>
      <feGaussianBlur result="uuid-af930539-56f7-4cfb-b1ad-3ea10de38938" stdDeviation="3"/>
      <feFlood flood-color="#000" flood-opacity=".4"/>
      <feComposite in2="uuid-af930539-56f7-4cfb-b1ad-3ea10de38938" operator="in"/>
      <feComposite in="SourceGraphic"/>
    </filter>
    <filter id="uuid-45d7eccb-118b-4a2a-a0e9-eb339a006afa" data-name="drop-shadow-8" filterUnits="userSpaceOnUse">
      <feOffset dx="0" dy="3"/>
      <feGaussianBlur result="uuid-5178264c-49e5-487a-b6c7-8f51a3fef899" stdDeviation="3"/>
      <feFlood flood-color="#000" flood-opacity=".4"/>
      <feComposite in2="uuid-5178264c-49e5-487a-b6c7-8f51a3fef899" operator="in"/>
      <feComposite in="SourceGraphic"/>
    </filter>
    <filter id="uuid-8ff58a8f-c97e-4bcc-a77b-648acd62f1ca" data-name="drop-shadow-9" filterUnits="userSpaceOnUse">
      <feOffset dx="0" dy="3"/>
      <feGaussianBlur result="uuid-8a2e3cfb-e7d9-47f6-9d85-d012bf491b49" stdDeviation="3"/>
      <feFlood flood-color="#000" flood-opacity=".4"/>
      <feComposite in2="uuid-8a2e3cfb-e7d9-47f6-9d85-d012bf491b49" operator="in"/>
      <feComposite in="SourceGraphic"/>
    </filter>
    <filter id="uuid-88190fe3-7bec-40be-800c-7f2da704357e" data-name="drop-shadow-10" filterUnits="userSpaceOnUse">
      <feOffset dx="2" dy="5"/>
      <feGaussianBlur result="uuid-792844fe-b14f-48a5-878a-ff8c795146a0" stdDeviation="5"/>
      <feFlood flood-color="#000" flood-opacity=".8"/>
      <feComposite in2="uuid-792844fe-b14f-48a5-878a-ff8c795146a0" operator="in"/>
      <feComposite in="SourceGraphic"/>
    </filter>
    <filter id="uuid-e000947c-0432-48a6-9e75-ee5eb6c45ef6" data-name="drop-shadow-11" filterUnits="userSpaceOnUse">
      <feOffset dx="2" dy="5"/>
      <feGaussianBlur result="uuid-010f531b-1613-404e-aabe-2843d127ed71" stdDeviation="5"/>
      <feFlood flood-color="#000" flood-opacity=".8"/>
      <feComposite in2="uuid-010f531b-1613-404e-aabe-2843d127ed71" operator="in"/>
      <feComposite in="SourceGraphic"/>
    </filter>
  </defs>
  <rect y=".3" width="335" height="335" fill="#103055"/>
  <path d="M305.7,104.6c-.5,0-.9,0-1.4,0,0,0,0,0,.1,0,.2-.1,.5-.2,.8,0,.2,0,.3,0,.5,.1Z" fill="#ff8f14"/>
  <g id="uuid-748bcad6-4816-46eb-82db-2dd0ed763131" data-name="PRINT">
    <g>
      <g>
        <path d="M29.6,13.9c0,.5-.2,1-.6,1.4l-6.3,6.3-6.8-3.9v-3.8c0-1.1,.9-2,2-2s2,.9,2,2h0v4.9l6.3-6.3c.8-.8,2.1-.8,2.8,0,.4,.4,.6,.9,.6,1.4h0Z" fill="#efac23"/>
        <path d="M29,31.7c-.4,.4-.9,.6-1.4,.6s-.5,0-.8-.2c-.2-.1-.5-.3-.6-.4l-2.1-2.1-4.1-4.1v4.9c0,1.1-.9,2-2,2s-2-.9-2-2v-3.8l6.8-3.9,4.2,4.2,2.1,2.1c.8,.8,.8,2.1,0,2.8Z" fill="#efac23"/>
        <path d="M22.4,22c0,0,0-.2-.2-.2,0,0,0,0,0,0l-1.7-1-4.6-2.6-3.9-2.2c-.2-.1-.5,0-.6,.2,0,0,0,.2,0,.2v11.7c0,.3,.2,.5,.5,.5s.2,0,.2,0l3.9-2.2,6.3-3.6s0,0,0,0c0,0,0-.1,.1-.2,0,0,0-.2,0-.3Zm-9.6-4.7l3,1.7,4.9,2.8c0,0,.1,0,.1,.1h0c0,0,0,.2,0,.3,0,0,0,.2-.2,.2l-4.9,2.8-3,1.7c-.2,0-.4,0-.5-.1,0,0,0-.1,0-.2v-9.1c0-.2,.2-.3,.3-.3s.1,0,.2,0Z" fill="#efac23"/>
        <path d="M19.5,22.2c0,0,0,.1-.1,.2l-3.7,2.1-2.3,1.3c-.1,0-.3,0-.4,0,0,0,0,0,0-.1v-6.8c0-.1,.1-.3,.3-.3,0,0,0,0,.1,0l2.3,1.3,3.7,2.1c0,0,.1,0,.1,.2,0,0,0,0,0,.1h0Z" fill="#efac23"/>
      </g>
      <g>
        <path d="M62.5,21.6l-5.6-2.8-3.4-1.7c-.2-.1-.4,0-.5,.2,0,0,0,.1,0,.2v9.3c.1,.2,.3,.4,.6,.4,0,0,.1,0,.2,0h.2l3.2-1.8,2-1.1,3.5-1.9c0,0,.2-.1,.2-.2,0,0,0-.1,0-.2,0,0-.1-.2-.2-.2Zm-5.6,2.8l-2.6,1.4c-.2,0-.3,0-.4-.1,0,0,0,0,0-.1v-7.2c0-.2,0-.3,.2-.3,0,0,0,0,.1,0l2.7,1.3,1,.5,3.4,1.7c0,0,.1,0,.2,.2,0,0,0,.1,0,.2h0s0,0,0,0c0,0,0,.1-.1,.1l-4.3,2.3Z" fill="#efac23"/>
        <path d="M60.1,22c0,0,0,0-.1,.1l-3.2,1.7-2,1.1c-.1,0-.3,0-.3,0,0,0,0,0,0,0v-5.4c0-.1,0-.2,.2-.2,0,0,0,0,0,0l2,1,3.3,1.6c0,0,0,0,.1,.1,0,0,0,0,0,.1h0Z" fill="#efac23"/>
        <path d="M38.5,17.2h-4.9v9.7h2.4v-3.2h2.5c2.3,0,4.1-1.4,4-3.4,0-1.9-1.8-3.2-4.1-3.2Zm-.2,4.6h-2.3v-2.7h2.3c1.1,0,1.9,.5,1.9,1.3,0,.8-.8,1.4-1.9,1.4Z" fill="#efac23"/>
        <polygon points="51.8 27 44.1 27.1 43.9 17.4 46.3 17.4 46.4 25.2 51.7 25.1 51.8 27" fill="#efac23"/>
        <polygon points="67.5 23.3 67.6 26.8 65.2 26.8 65.2 23.3 60.9 17.2 63.6 17.1 66.3 21.3 69.1 17.1 71.7 17 67.5 23.3" fill="#efac23"/>
        <polygon points="81.9 27.2 80.3 27.3 76.2 22.8 74.5 24.4 74.5 27.3 73.3 27.3 73.2 17.7 74.4 17.7 74.5 23 79.9 17.6 81.5 17.6 77 22.1 81.9 27.2" fill="#efac23"/>
        <path d="M88,17.3c-3,0-5.5,2.3-5.5,5.1,0,2.7,2.6,5,5.6,4.9,3,0,5.5-2.4,5.5-5.1,0-2.7-2.6-5-5.6-4.9Zm.4,9c-2.4,.2-4.4-1.6-4.6-3.9,.1-2.1,1.8-3.8,3.9-4,2.4-.2,4.4,1.6,4.6,3.9-.1,2.1-1.8,3.9-3.9,4Z" fill="#efac23"/>
        <path d="M103.2,24.5c0,1.5-1.2,2.8-3.8,2.8-1.6,0-3.1-.5-4.3-1.5l.8-.9c1,.9,2.2,1.4,3.5,1.4,1.7,0,2.5-.9,2.5-1.7,0-1-1-1.4-2.9-1.8-2.2-.4-3.5-1-3.6-2.7,0-1.5,1.5-2.8,3.6-2.8,1.4,0,2.7,.4,3.8,1.3l-.7,.9c-.9-.8-2-1.2-3.1-1.2-1.3,0-2.3,.8-2.3,1.7,0,1,1.1,1.3,2.9,1.7,2.1,.4,3.5,1.1,3.6,2.8Z" fill="#efac23"/>
        <polygon points="116 27.2 114.8 27.2 114.7 19.9 110.8 26.7 106.7 20 106.8 27.3 105.5 27.4 105.4 17.7 106.7 17.7 110.7 24.4 114.7 17.6 115.9 17.6 116 27.2" fill="#efac23"/>
        <path d="M123.7,17.3c-3,0-5.5,2.3-5.5,5.1,0,2.7,2.6,5,5.6,4.9,3,0,5.5-2.4,5.5-5.1,0-2.7-2.6-5-5.6-4.9Zm.4,9c-2.4,.2-4.4-1.6-4.6-3.9,.1-2.1,1.8-3.8,3.9-4,2.4-.2,4.4,1.6,4.6,3.9-.1,2.1-1.8,3.9-3.9,4Z" fill="#efac23"/>
        <path d="M138.9,24.5c0,1.5-1.3,2.8-3.8,2.8-1.5,0-2.9-.4-4.1-1.3,0,0-.1-.1-.2-.2l.8-.9c.2,.2,.3,.3,.5,.4,.9,.6,1.9,1,3,.9,1.7,0,2.5-.9,2.5-1.7,0-.8-.6-1.2-1.6-1.5-.3-.1-.7-.2-1.2-.3,0,0-.1,0-.2,0-2.2-.4-3.5-1-3.6-2.7,0-1.5,1.5-2.8,3.6-2.8,1.4,0,2.7,.4,3.8,1.3l-.7,.9c-.9-.8-2-1.2-3.1-1.2-1.3,0-2.3,.8-2.3,1.7,0,1,1.1,1.3,2.9,1.7,.4,0,.8,.2,1.1,.3,.4,.1,.7,.2,1,.4,.9,.4,1.5,1.1,1.5,2.1Z" fill="#efac23"/>
      </g>
    </g>
  </g>
  <path d="M335,90.7V226.7c-140-.5-256.1-29.6-281.5-68h0c25.5-38.4,141.6-67.5,281.5-68Z" fill="url(#uuid-d8f967c9-ef4d-4d54-9c4f-c6847c84ace8)"/>
  <g>
    <path d="M335,103.5v77.4c-.7-.9-1.2-1.5-1.2-1.5l-6.6-9v-4.9l-4-6.2-1.6-4.6-2.4-5.7-5.6-3.9-2.4-4.6-6.6-7.3v-4.4h-1.6l-7.6,2.6h-4v-2h-3.7l-3.6-2.9s-.9-2.7-1.2-3.2c-.3-.4-2.6-1-2.6-1l-.6-2.2s0,0,0,0v-.3h-.1l-3.4-1.7v-2.9l-2.9-1.1-3-2.9,1.8-2-1.2-3.7,.7-2h63.4Z" fill="#93939f" filter="url(#uuid-01bb9617-2ae0-4d3b-8fda-ce8f2f5ca668)"/>
    <path d="M327,144.5c2.7-1.3,5.4-2.6,8-3.9v23.5c-.2,0-.5-.1-.8-.2l.7-3c-2.6-.7-5.2-1.5-7.8-2.2-.6-3.4-.7-7.9,2.5-9.3-1.2,0-2.5,0-3.4-.9-.9-.8-1.2-2.3-.5-3.2,.3-.4,.8-.6,1.2-.8Z" fill="#87878f" filter="url(#uuid-60c62585-da72-47e0-8935-db812a1ea1d0)"/>
    <path d="M335,103.5v34.5c-4.8,2.5-10,4.2-15.3,5.1-.3-1-.6-2-.8-3-1.2,.5-2.5,.6-3.8,.2,0,0,0-.2,0-.3,.3-1,0-2.1-.5-3.2-.4-.7-.9-1.4-1.4-2-1-1.1-2.1-2.2-2.7-3.6-.2-.5-.4-1-.4-1.5,0,0,.1,0,.2,0,.7-.2,1.3-.4,2-.5-1.5,0-2.1-2.2-1.2-3.5,.9-1.2,2.4-1.7,3.9-2.1,5.2-1.3,10.3-2.6,15.5-4-.2-.8-.6-1.5-1.2-2-8,2.4-16,4.7-24,7.1-3.8,1.1-7.8,2.2-11.6,1.2,.5-1.6-1.4-3.4-2.9-2.8,.3-.8,.5-1.9,.4-2.8-.1-.9-.5-1.5-1.4-1.7-.4,0-.9,0-1.4,.1-2.1,0-3-2.6-3.3-4.6,0,0,0,0,0,0-.2-1.2-.5-2.6-1.2-3.6h0c-.5-.7-1.1-1.2-2-1.2,.6-.7,1-1.7,.9-2.6,0,0,0,0,0-.1-1-.3-2-1-2.7-1.8,.1,.2,.6-.6,1-1.5h53.8Z" fill="#87878f" filter="url(#uuid-fb81936d-7b84-43ec-91d8-42ccb02a09b7)"/>
    <path d="M335,103.5v11.9c-.1,0-.2-.2-.3-.2-2-1.4-3.3-3.8-3.5-6.2,0-.2,0-.5-.2-.7-.1-.1-.3-.2-.5-.2-1.3-.2-2.5-.3-3.8-.5,0-.7,.2-1.4,.3-2.2-.9,0-1.9,0-2.5-.8-.3-.3-.4-.7-.5-1.1h11.1Z" fill="#9a9aa6" filter="url(#uuid-1c0f4bdd-fdba-4510-8030-6905fbaa584c)"/>
    <path d="M334,120.5c.3,0,.7,0,1-.1v4.3c-.1-.1-.3-.3-.4-.4-.8-1-.7-2.5-.6-3.8Z" fill="#9a9aa6" filter="url(#uuid-88e0e174-9352-43c3-abda-fa7055f88938)"/>
    <path d="M332.2,128.6c.9-.2,1.9-.4,2.8-.7v7.8c-1.6,.5-3.2,1.1-4.8,1.8-1.1,.5-2.3,1.1-3.6,1,0-.8,0-1.6,.1-2.4,0-.2,0-.5,.1-.7,.2-.2,.4-.4,.7-.5,1.3-.5,2.9-.4,3.7-1.6,.3-.5,.4-1.1,.3-1.7,0-.6-.1-1.1-.1-1.7,0-.2,0-.3,0-.5,0-.2,0-.4,.2-.5,.1-.2,.4-.2,.6-.3Z" fill="#9a9aa6" filter="url(#uuid-7e8287f7-1e71-49f0-aee8-11bb808fd4ba)"/>
    <path d="M331.9,143.9c1-.3,2.1-.7,3.1-1v4.8c-1,0-2,.2-2.9,.4,0-1.4-.1-2.8-.2-4.2Z" fill="#9a9aa6" filter="url(#uuid-56e43cd1-aeb7-4c45-818a-b8faac87f9f2)"/>
    <path d="M279.9,107.3c.4,.2,.7,.6,1.2,.6,.6,0,1.1-.5,1.6-.8,1-.6,2.5-.1,3,.9,.1,.3,.2,.6,.4,.7,.2,.2,.5,.2,.8,.2,7.2-.2,14.4-.8,21.6-1.9,1.5-.2,3.2-.4,4.3,.7,.4,.4,.7,1,1.2,1.1,.3,0,.6,0,.9,0,1.6-.4,3.1-.9,4.7-1.3,.6-.2,1.3-.3,1.9-.2s1.2,.7,1.2,1.3c-3.4,.1-7,.3-9.7,2.4-.5-1-1.2-2.1-2.3-2.4-.4,0-.7,0-1.1,0-5,.1-10,.6-14.9,1.4v1.1c-1.9,0-3.8,.1-5.7,.2-1.3,0-2.7,0-4-.2-.7-.2-1.5-.5-2.2-.2-.7,.3-1,1.4-.3,1.7,.6,.3,1.6-.4,1.9,.2,.2,.3,0,.6,0,1,0,.8,1.1,1,1.8,1,2,0,3.9-.2,5.9-.6,1.2-.2,2.7-.5,3.6,.3,.5,.4,.7,1.1,.6,1.7,2,.5,4.1,.3,6-.6,0,.5,.1,1,.2,1.5-2.1,.8-4.2,1.3-6.4,1.6-.2-.5-.3-1-.5-1.5,0-.2-.1-.3-.2-.4-.1-.1-.4-.1-.6-.2l-8.1-.4-.2,1.8c1.5,.5,3.1,.9,4.7,1.2,.1,.5,.3,1,.4,1.5-1.2,0-2.4,.2-3.6,.2v-1.2c-.7-.1-1.4-.2-2-.6-.6-.4-1.1-1-1.1-1.7,0-.2,0-.4,0-.7,0-.3-.3-.4-.5-.6-.9-.7-1.4-1.7-1.5-2.8l-1.6,.2c0-.9,0-1.8-.3-2.6-.3-.8-.9-1.6-1.8-1.8-.6-.2-1.4-.1-1.7-.7s0-.8-.4-1c-.4-.3-.9,.1-1.3,.3-1,.4-2.1-.6-2-1.7,.1-1,1.1-1.8,2.2-1.9,2.4-.1,2.4,1.3,2.6,3.1,.4-.3,.8-.2,1.2,0Z" fill="#72727c"/>
    <path d="M335,129.1v2.7c-.5-.2-1.1-.4-1.6-.4-.6,0-1.2,.1-1.7,.3h-.2c-3.3,1.1-6.6,2.3-9.8,3.7-.4,.2-.9,.6-.7,1-1.2-.3-2.4-.5-3.6-.8-.2,.4-.4,.8-.6,1.2l-1.4-.2c0,.7,.2,1.5,.4,2.2,1.3-.3,2.7-.5,4.1-.5,0,.4,.2,.8,.2,1.2-1.7,0-3.3,.3-4.9,.5-1,.2-1.9,.4-2.8,.6-.2-.2-.4-.5-.6-.8,.5,0,1,0,1.5-.1-.2-1.1,.4-2.4,1.5-2.9,0,0,0,0,0,0-.4-1.6-.8-3.3-1.1-4.9,0-.2,0-.4-.2-.5-.1-.1-.3-.1-.5-.1-.7,0-1.5,0-2.2,0-.5,0-1,0-1.4,0-.2,0-.4,0-.6,0-.2-.1-.2-.3-.3-.5-.4-1.4-.7-2.8-1-4.2,.6-.1,1.3-.2,1.9-.3-.1,.8-.2,1.5-.3,2.3,1-.7,1,.6,1.4,1.2,0,.1,.2,.2,.2,.3,.4,.3,1,.3,1.5,.3,4.4-.3,8.4-2.6,12.6-4.2,.2,0,.4-.1,.6,0s.3,.2,.4,.4c.5,.7,1.3,1.1,2.1,1.3-1.1,.5-2.1,1.1-3.1,1.7-.1,0-.3,.1-.4,.2-.3,0-.6-.2-.8-.4-1.1-.6-2.4,.2-3.5,.8-1.5,.8-3.2,1.3-4.9,1.4,0,.7,0,1.4,.2,2.1,1.3,0,2.6-.1,3.8-.2,0,.5,0,.9,0,1.3,1.8,0,3.4-.8,5.1-1.6,2.4-1.2,4.9-2.2,7.4-3.1,.3-.1,.6-.2,.8-.3,.9-.3,1.8-.5,2.7-.5Z" fill="#72727c"/>
    <g>
      <path d="M334.6,174.3c.1,0,.2,0,.4,0v2.2c-.2,.1-.3,.4-.3,.7,0,.1,.1,.3,.3,.5v3.3c-.7-.9-1.2-1.5-1.2-1.5l-6.6-9v-4.9l-4-6.2-1.6-4.6-2.4-5.7-5.6-3.9-2.4-4.6-6.6-7.3v-4.4h-1.6l-7.6,2.6h-4v-2h-3.7l-3.6-2.9s-.9-2.7-1.2-3.2c-.3-.4-2.6-1-2.6-1l-.6-2.2s0,0,0,0c.8,0,1.5,0,2.2-.3-.2,.9,1.2,1.6,1.8,.9-.3,.4,1.4,3.9,1.6,4.4,.6,1.3,1.5,2.5,3.2,2.2,.5,0,1.1-.4,1.7-.2,.8,.2,1.2,1,1.8,1.4,1,.8,2.5,.6,3.8,.4,3.5-.7,7-1.8,10.4-2.6,.2,.3,.3,.7,.3,1.1h-1.2c-.1,0-.2,0-.3,0,0,0,0,.2,0,.3,0,1.4,.1,2.8,.5,4.2,0,.2,.1,.4,.3,.5,.1,.1,.3,.2,.5,.4,.7,.6,1,2,1.6,2.7,.8,1,1.7,1.9,2.5,2.9,1.6,1.8,3.2,3.7,4.9,5.5,.7,.8,1.3,1.9,2.2,1.9,.9,0,2.6-1.1,3.4-1.4,.4-.2,.9-.3,1.3-.2,.4,0,.9,.4,.9,.9,0,.7-.9,1-1.6,1.2-1.3,.3-2.4,.7-1.7,1.9,.7,1.1,2.6,1.9,3.5,3.1-.9,.6-.7,2-.1,2.8,.6,.9,1.5,1.5,1.9,2.5,1.2,2.5,1,4.8,3.4,6.8,.4,.4,6.4,3.3,6.5,2.2,0,.4,0,.8,0,1.1-1.2,.4-2.4,.8-3.6,1.2,0-1.1-1.2-2-2.2-1.6,.2,1.2,.7,2.4,1.3,3.5,.2,.3,.3,.6,.6,.7,.3,.2,.7,.1,1.1,0,1-.1,2-.2,3-.4v1.8c-.6,.1-1.1,.3-1.7,.5-2.7,.9-.6,1.9,1.3,1.5Z" fill="#9a9aa6" filter="url(#uuid-45d7eccb-118b-4a2a-a0e9-eb339a006afa)"/>
      <path d="M270.9,105.6l1.2,3.7-1.8,2,3,2.9,2.9,1.1v2.9l3.4,1.7c-.2-.4-.4-.9-.6-1.3-.6,0-1.1,0-1.7,0,.2-1.4,.4-2.8,.6-4.1,1,0,2.1,0,3.1,0-.2-.4-.3-.8-.5-1.3h-2.9c-.2,0-.3,0-.4-.1-.2-.2,0-.5,0-.7,0-.6-.9-.7-1.5-.6-.6,.1-1.4,.2-1.6-.3,.4-.4,0-1.1-.4-1.5,0,0,0,0-.1-.1-.4-.3-.9-.6-1.1-1.1-.3-.6,0-1.4,0-2.1,0-.4-.2-.9,0-1.3,.1-.2,.4-.4,.6-.5,.3-.3,.5-.7,.4-1.2h-1.8l-.7,2Z" fill="#9a9aa6" filter="url(#uuid-8ff58a8f-c97e-4bcc-a77b-648acd62f1ca)"/>
    </g>
  </g>
  <g>
    <path d="M285.3,142.3s-3.6,.1-3.2,4.8h.4s-.6,1.3,.5,2.2c0,0,.1,1.1,.5,1.4s-.2,.3-.6,.4c-.4,.1-1.5,.6-1.6,2.3-.1,1.7-.3,3.7-.2,4.5,0,.8,0,1.7,1.3,1.6,1.3-.1,2.7-.8,3.2-.6,.5,.2,1,.7,1.6,1.2,.7,.5,1.9,1.4,2.2,1.7,.3,.3,1,.4,1.6,.9,.6,.5,1.6,1.1,2.5,1.3,.9,.2,1.4,1.1,2.6,1.1s2.8-.3,3.4-1.2c.5-.9,1.2-.9,1.7-1.1,.6-.2,2.1,0,3.2-.5,1.1-.5,2.8-1.1,3.4-1.3,.5-.2,1.7-.3,1.7,.5s.3,2.9,1.3,4.5,1.4,2.6,1.9,3.4c.5,.8,1.4,2.1,1,3.2s-.8,1.9-.8,2.5c0,.6,.3,1.4,1.4,1.7,1.1,.3,1.9,.1,3,0,1.1-.1,1.5,.5,2.4,.6,.8,.2,2.1,.3,3.6-.6,1.5-.9,1.8-1.8,1.6-2.4-.1-.5-.8-.9-1.4-1-.6,0-1.2,0-1.7-.2-.5-.2-.3-.4-.7-.4s.2-.3-.4-.3-.6-.1-.6-.1c0,0-.3,0-.4-.2s.2-.5-.2-.6c-.4-.2-1,0-1,0l-.3-.4h-.5c0,0-.4,0-.5-.5-.1-.5-.5-.8-.9-1.3-.4-.4-.9-1.9-1.7-4.5-.7-2.6-1-5.9-1.6-7-.5-1.1-.8-1.6-4-1.4-3.2,.2-6.2,.2-6.2,.2,0,0,1.4-1.5,4.3-2.8s1.8-1.3,3.3-1.4c1.4,0,4.5-.7,6.8-2,2.4-1.3,4-1.2,4.7-1.4s2.6,0,3.3-.1c.6,0,1.6,0,1.6-.6s-1.6-3.6-1.9-5.3-.8-3.8-1.6-4c-.8-.2-1.3,.1-1.5,.5-.3,.4-.4,.7-.2,1.3,.2,.6,.1,2-.5,3-.6,1-1.3,2.7-3.5,3.1-2.2,.4-4.9,.2-6.9,.9-2.1,.7-2.5,.8-3.3,.9s-1.5,.5-2.1,1c0,0-4.9,1-8.5,2.8,0,0-.5-.5-.8-1.4-.2-1-.5-1.6-.5-2s-.1-.5-1-.6c-.9,0-1,0-1,0,0,0-.3,.2-.6,.5-.3,.3-.7,.6-.2,.9,.5,.2,.8,0,.8,.3,0,.3,.3,.9,.2,1.2-.2,.3-1.3,1.7-1.6,1.8s-1.9-1-2.9-1.2c-1-.2-1.9-.1-1.9-.7,0-.6,.2-.9,.2-.9,0,0,.5-.5,.5-1.3,0-.8,0-2.6,0-2.6h.6s.5-4-3.4-4.3Z" fill="#2c102b"/>
    <polygon points="288.2 129.5 287.8 129.5 292.9 149.6 293.2 149.6 288.2 129.5" fill="#2c102b"/>
    <path d="M293.6,148.1s0,0,0,0c0,0,0,0-.1,0-.1,0-.2-.2-.3-.3,0-.2,0-.3,0-.5,0-.1-.1-.2-.2-.3,0-.2,0-.3,0-.5,0-.2,0-.4,.1-.5,0,0,.2-.1,.3-.2,.1,0,.2-.2,0-.3,0,0-.1,0-.2,0,0,0-.1,0-.1-.1,0,0,0,0,0,0,.1-.2,.1-.4,0-.6,0,0-.2,0-.3-.1-.2,0-.4-.1-.6-.2,0,0,0,0-.1,0,0,0,0,.1,0,.2,0,.2-.2,.3-.4,.4-.2,.2,0,.6,.2,.7,0,0,0,0,0,0,0,0,0,0,0,.1-.1,.2,0,.4,0,.6,0,.2,.1,.4,0,.6,0,0,0,0,0,.1v.3c-.3-.2-.5-.4-.7-.5,0,0,0,0,0,0,0,0,0,0,0,.1,0,.2,0,.5,0,.7,0,0,0,.1,0,.2,0,0,0,0,.1,0,.2,0,.3,.1,.5,.2,.1,.1,.2,.3,.2,.5,0,0,0,.2-.1,.2,0,.2,0,.4,0,.6,0,0,0,.2,.1,.2,0,0,.1,0,.2,0,.3,0,.6,0,.8-.1,0,0,0,0,0,0,0,0,0,0,0-.1,0-.2-.2-.3-.3-.4,0-.1,0-.2-.1-.4,0,0,0-.2,0-.3,0,0,0-.2-.2-.2,0,0-.2,0-.2,0,0,0,0,0,0,0,0-.4,0-.8,0-1.2,0,0,.2,0,.3,0s.1,.2,.2,.3c.1,.4,.1,.8,0,1.2,0,0,.2,0,.2,.2,0,0,0,.2,0,.3,0,.1,0,.2,0,.3,0,0,.1,.2,.2,.1,0,0,0-.3,0-.4,0-.3,0-.6,0-.9Z" fill="#2c102b"/>
    <path d="M291.5,143.1c-.1,0-.2-.2-.2-.3l-.3-1.1c0-.2-.1-.4-.3-.6-.1-.1-.3-.2-.5-.3-.2,0-.4-.2-.5-.3,0,0-.2,0-.2-.2,0,0,0-.2,0-.3,0,0,.2,0,.3,0,.1,0,.2,0,.4,.1,.1,0,.3,.1,.4,.2,0,0,.2,0,.3,0,.2,0,.2-.2,.3-.3,.2,0,.3,.2,.3,.4,.2,.6,.4,1.2,.7,1.8,0,.2,.2,.4,.1,.6,0,.2-.2,0-.4,0,0,0-.3,.1-.3,.1Z" fill="#2c102b"/>
    <path d="M292.2,150.5l-.4,.5s0,0,0,.2c0,0,0,0,0,.1,.3,.6,.7,1.1,1.1,1.6,.1,0,.2-.2,.1-.3s-.2-.2-.3-.3c-.3-.3-.4-.6-.6-.9,0,0,0,0,0-.1,0,0,0,0,0-.1,.1-.3,.3-.5,.5-.7,0,0,0,0,0,0,0,0,0,0,0,0,.3,.1,.8,0,1-.3,0-.2-.2-.4-.4-.4-.2,0-.8-.2-1,0,0,0,0,.2,0,.3,0,.2,0,.3-.2,.4Z" fill="#2c102b"/>
    <polygon points="288.5 129.5 288.2 129.5 293.8 149.6 294.1 149.6 288.5 129.5" fill="#2c102b"/>
  </g>
  <path d="M335,91.1v6.6h0c-4.3,0-8.5,0-12.8,.1-.5,0-1.1,0-1.6,0-2.4,0-4.9,0-7.2,.1-2.4,0-4.8,0-7.1,.2-2.1,0-4.2,.1-6.2,.2-1.5,0-3,0-4.4,.1-4.5,.1-8.9,.3-13.3,.5-3.6,.2-7.2,.3-10.8,.5-1.2,0-2.4,.1-3.6,.2-1,0-2,.1-3,.2-.5,0-1,0-1.5,0-119.7,7.2-208.2,30.9-211.2,59.1,3.2-37.2,128.2-67.3,282.8-67.9Z" fill="#efac23"/>
  <path d="M335,223.4v6.6c-155.6-.7-281-31-282.8-68.6,2,34,127.4,61.4,282.8,62Z" fill="#efac23"/>
  <path d="M335.6,97.3v5.3c-.2-.2-.4-.5-.6-.7v2.3h-1.2c-.9,0-1.7,0-2.6,0-2.3,0-4.5,0-6.8,0-2,0-3.9,0-5.9,0-.4,0-.8,0-1.1,0-.5,0-.9,0-1.4,0-.6,0-1.3,0-1.9,0-1.1,0-2.3,0-3.4,0-.1,0-.2,0-.3,0-.6,0-1.1,0-1.7,0-1,0-2,0-3,0-.2,0-.3,0-.5-.1-.3,0-.5,0-.8,0,0,0,0,0-.1,0-.2,0-.4,0-.5,0-.6,0-1.3,0-1.9,0-.3,0-.6,0-1,0-.9,0-1.9,0-2.8,0-.1,0-.3,0-.4,0h0c-2,0-3.9,.1-5.9,.2-.3,0-.7,0-1,0-.4,0-.7,0-1.1,0-2.1,0-4.1,.2-6.2,.2-3.5,.2-6.9,.3-10.3,.5-.5,0-1,0-1.5,0-111.2,6-198,27.5-219.6,54.6,0-.3,0-.5,0-.8,0-1.1,.3-2.2,.6-3.3,.1-.4,.2-.8,.4-1.2,.2-.6,.5-1.1,.8-1.7,.1-.3,.3-.5,.4-.8,0,0,0,0,0,0,.4-.8,.9-1.5,1.5-2.2,.1-.2,.3-.4,.4-.6,.2-.3,.5-.6,.8-1,.2-.2,.4-.5,.7-.8,.9-1,1.9-2,3-3,.5-.5,1.1-1,1.7-1.4,.9-.7,1.9-1.5,3-2.2,.3-.2,.7-.5,1.1-.7,.3-.2,.7-.5,1.1-.7,.7-.5,1.5-.9,2.3-1.4,2.8-1.6,5.9-3.2,9.2-4.8,.5-.2,1-.4,1.4-.7,.5-.2,1-.4,1.5-.7,.5-.2,1-.4,1.5-.7,.2-.1,.5-.2,.8-.3,.4-.2,.9-.4,1.3-.5,.4-.2,.7-.3,1.1-.4,.5-.2,1-.4,1.5-.6,.6-.2,1.2-.5,1.8-.7,.5-.2,1-.4,1.6-.6,9.5-3.5,20.4-6.8,32.8-9.8,.8-.2,1.5-.4,2.3-.5,2.3-.6,4.6-1.1,7-1.6,.8-.2,1.6-.3,2.4-.5,.8-.2,1.6-.4,2.4-.5,2.3-.5,4.7-1,7.2-1.5,.9-.2,1.8-.4,2.7-.5,1.7-.3,3.4-.7,5.1-1,1.7-.3,3.5-.6,5.2-1,1.8-.3,3.5-.6,5.3-.9,.9-.2,1.8-.3,2.7-.5,1.8-.3,3.6-.6,5.5-.9,3.7-.6,7.4-1.1,11.2-1.7,1-.1,1.9-.3,2.9-.4,1-.1,1.9-.3,2.9-.4,1-.1,1.9-.3,2.9-.4,4.9-.7,9.8-1.3,14.9-1.8,1-.1,2-.2,3-.3,3.6-.4,7.2-.8,10.9-1.1,.7,0,1.4-.1,2.1-.2,.3,0,.6,0,.9,0,1.4-.1,2.8-.3,4.3-.4,3.3-.3,6.7-.6,10.1-.9,1.1,0,2.1-.2,3.2-.3,1.1,0,2.2-.2,3.2-.2,1.1,0,2.2-.2,3.3-.2,1.1,0,2.2-.2,3.3-.2,1.1,0,2.2-.2,3.3-.2,2.9-.2,5.8-.4,8.7-.5,.4,0,.9,0,1.3,0,0,0,.1,0,.2,0,.3,0,.6,0,.9,0,.7,0,1.4,0,2.1-.1,.9,0,1.8-.1,2.8-.2,3.7-.2,7.5-.4,11.3-.6,.1,0,.2,0,.3,0,2.1,0,4.2-.2,6.4-.3,.8,0,1.6,0,2.3,0h0c1.5,0,3-.1,4.5-.2,.3,0,.6,0,.9,0,2.8,0,5.5-.2,8.3-.2,1.7,0,3.4,0,5.2-.1,2.2,0,4.4,0,6.6-.1,1.4,0,2.8,0,4.2,0,.5,0,.9,0,1.4,0h.3c1.6,0,3.2,0,4.9,0,1.3,0,2.7,0,4,0h.3c0-.1-.2-.2-.3-.3,1.5,0,2.9,0,4.4,0Z" fill="#ff8f14"/>
  <path d="M335,216.8v6.6c-1.3,0-2.6,0-3.8,0-7.2,0-14.3-.2-21.4-.3-3.2,0-6.4-.2-9.5-.3-3.9-.1-7.7-.3-11.6-.4-3.4-.1-6.8-.3-10.1-.4,0,0-.1,0-.2,0-2.3-.1-4.6-.2-6.8-.3-2.3-.1-4.5-.3-6.8-.4-1.1,0-2.2-.1-3.4-.2-2.1-.1-4.2-.3-6.3-.4-.1,0-.3,0-.4,0-2.1-.1-4.1-.3-6.1-.4-.2,0-.3,0-.5,0l-3.3-.3c-1.1,0-2.2-.2-3.3-.3-1.1,0-2.2-.2-3.2-.3-3.2-.3-6.4-.5-9.6-.8-2.1-.2-4.2-.4-6.3-.6-1-.1-2.1-.2-3.1-.3-2.9-.3-5.7-.6-8.5-.9-.2,0-.5,0-.7,0-1-.1-2-.2-3-.3-2.8-.3-5.5-.6-8.2-1-.3,0-.5,0-.8-.1-2-.2-3.9-.5-5.9-.8-1-.1-1.9-.3-2.9-.4-3.1-.4-6.2-.9-9.3-1.3-.7-.1-1.4-.2-2.1-.3-.9-.1-1.9-.3-2.8-.4-4.8-.7-9.4-1.5-14-2.3-.8-.1-1.5-.3-2.3-.4-3.5-.6-7-1.3-10.3-1.9-1.3-.3-2.6-.5-3.9-.8-3.7-.7-7.3-1.5-10.8-2.3l-2.1-.5c-3-.7-5.8-1.4-8.7-2.1-.6-.1-1.2-.3-1.8-.5-.8-.2-1.6-.4-2.3-.6-.6-.2-1.3-.3-1.9-.5-2.9-.8-5.7-1.6-8.4-2.4-.7-.2-1.3-.4-2-.6-.6-.2-1.2-.4-1.8-.6-2.6-.8-5.2-1.6-7.6-2.5-.6-.2-1.2-.4-1.8-.6-.4-.1-.8-.3-1.1-.4-.6-.2-1.2-.4-1.8-.6-.2,0-.5-.2-.7-.3-.5-.2-1.1-.4-1.6-.6-1.5-.6-3-1.2-4.4-1.7-.5-.2-1.1-.4-1.6-.7-.5-.2-1-.4-1.4-.6-3.1-1.4-6-2.7-8.7-4.2-.3-.1-.6-.3-.9-.5-2.7-1.5-5.2-3-7.4-4.5-.3-.2-.6-.4-.8-.6-1.1-.8-2.2-1.6-3.2-2.5-.3-.2-.6-.5-.9-.7-.8-.7-1.6-1.4-2.3-2.1-.2-.2-.3-.4-.5-.5-.5-.6-1-1.2-1.5-1.7-.1-.2-.3-.4-.4-.5,0-.1-.2-.2-.2-.3-.4-.5-.7-1-1-1.5-.2-.3-.3-.5-.5-.8-.1-.3-.3-.5-.4-.8-.3-.6-.5-1.1-.8-1.7-.2-.4-.3-.8-.4-1.2-.3-1.1-.5-2.2-.6-3.3,0-.3,0-.5,0-.8,25.2,31.8,140.3,55.8,279,56.3,1.3,0,2.6,0,3.8,0Z" fill="#ff8f14"/>
  <path d="M286.4,137.6l-21.8,19.5H51.2c0-6.8,6.3-13.3,18.1-19.5h217.1Z" fill="#40b9ef" filter="url(#uuid-88190fe3-7bec-40be-800c-7f2da704357e)"/>
  <path d="M278.8,156.6l-16.2,19.5H59.3c-5.6-5-8.5-10.1-8.6-15.5h0c0-1.4,.2-2.7,.5-4h227.5Z" fill="#efac23" filter="url(#uuid-e000947c-0432-48a6-9e75-ee5eb6c45ef6)"/>
  <path d="M.3,97.9v28.6c51.5-.1,94.2-6.2,103.5-14.3h0c-9.4-8.1-52.1-14.2-103.5-14.3Z" fill="#40b9ef"/>
  <path d="M29.6,236.5c-5.2,0-9.3,4.2-9.3,9.3s.7,4,1.8,5.5h0l7.5,13,7.5-13c1.1-1.5,1.8-3.5,1.8-5.5,0-5.2-4.2-9.3-9.3-9.3Zm0,13.6c-2.3,0-4.1-1.8-4.1-4.1s1.8-4.1,4.1-4.1,4.1,1.8,4.1,4.1-1.8,4.1-4.1,4.1Z" fill="#fff"/>
</svg>