<svg xmlns="http://www.w3.org/2000/svg" xmlns:xlink="http://www.w3.org/1999/xlink" width="335" height="335"><defs><radialGradient id="l" cx="166.6" cy="336" r="167.5" fx="166.6" fy="336" gradientUnits="userSpaceOnUse"><stop offset="0" stop-color="#d0d2d3"/><stop offset="0" stop-color="#d5ceb2"/><stop offset="0" stop-color="#ddca88"/><stop offset="0" stop-color="#e3c663"/><stop offset="0" stop-color="#e8c345"/><stop offset="0" stop-color="#ecc12e"/><stop offset="0" stop-color="#efbf1d"/><stop offset="0" stop-color="#f1be14"/><stop offset="0" stop-color="#f2be11"/><stop offset=".4" stop-color="#f2ba11"/><stop offset=".7" stop-color="#f2b114"/><stop offset=".9" stop-color="#f2a018"/><stop offset="1" stop-color="#f39b1a"/></radialGradient><radialGradient id="j" cx="298.2" cy="16.3" r="28.6" fx="298.2" fy="16.3" gradientUnits="userSpaceOnUse"><stop offset="0" stop-color="#ce7cb2"/><stop offset=".5" stop-color="#c24a9a"/><stop offset=".7" stop-color="#bd3292"/><stop offset="1" stop-color="#ba1b8c"/></radialGradient><radialGradient id="h" cx="307.1" cy="18.5" r="21.1" fx="307.1" fy="18.5" gradientUnits="userSpaceOnUse"><stop offset="0" stop-color="#d0e3a4"/><stop offset=".5" stop-color="#abd378"/><stop offset="1" stop-color="#76b83f"/></radialGradient><radialGradient id="g" cx="66.2" cy="30.7" r="23.9" fx="66.2" fy="30.7" gradientUnits="userSpaceOnUse"><stop offset="0" stop-color="#64c7d2"/><stop offset=".2" stop-color="#37bdc9"/><stop offset=".5" stop-color="#00b2c0"/><stop offset=".7" stop-color="#00aeb0"/><stop offset="1" stop-color="#00a899"/></radialGradient><radialGradient id="f" cx="197.3" cy="189.9" r="26" data-name="Autumn Yellow Radial" fx="197.3" fy="189.9" gradientTransform="rotate(-9.5 -876.9 768.1)" gradientUnits="userSpaceOnUse"><stop offset="0" stop-color="#fcf2dd"/><stop offset="0" stop-color="#fdebc0"/><stop offset="0" stop-color="#ffe089"/><stop offset=".6" stop-color="#ffcc02"/><stop offset=".7" stop-color="#f6c30c"/><stop offset="1" stop-color="#e2b024"/></radialGradient><radialGradient xlink:href="#f" id="x" cx="-1824.7" cy="472.5" r=".4" data-name="Autumn Yellow Radial" fx="-1824.7" fy="472.5" gradientTransform="rotate(118.5 -646 909.5)"/><radialGradient xlink:href="#g" id="y" cx="-851.5" cy="-216.9" r=".4" fx="-851.5" fy="-216.9" gradientTransform="rotate(67.3 -488.5 794.2)"/><radialGradient xlink:href="#h" id="z" cx="-1621.8" cy="224.9" r=".4" fx="-1621.8" fy="224.9" gradientTransform="rotate(107.3 -603.8 862.2)"/><radialGradient id="k" cx="-837.3" cy="-224" r=".4" fx="-837.3" fy="-224" gradientTransform="rotate(67.3 -488.5 794.2)" gradientUnits="userSpaceOnUse"><stop offset="0" stop-color="#f69353"/><stop offset=".5" stop-color="#f37521"/><stop offset="1" stop-color="#d4622a"/></radialGradient><radialGradient id="i" cx="-837.6" cy="-239.1" r=".4" fx="-837.6" fy="-239.1" gradientTransform="rotate(67.3 -488.5 794.2)" gradientUnits="userSpaceOnUse"><stop offset="0" stop-color="#f6967a"/><stop offset=".1" stop-color="#f58d71"/><stop offset=".5" stop-color="#f0563c"/><stop offset=".8" stop-color="#dd3b33"/><stop offset="1" stop-color="#ce242c"/></radialGradient><radialGradient xlink:href="#i" id="A" cx="-844.4" cy="-220.2" r=".4" fx="-844.4" fy="-220.2"/><radialGradient xlink:href="#i" id="J" cx="-926.2" cy="-11.1" r=".4" fx="-926.2" fy="-11.1"/><radialGradient id="K" cx="-1316.1" cy="168.4" r=".4" fx="-1316.1" fy="168.4" gradientTransform="rotate(86.9 -563 859.2)" gradientUnits="userSpaceOnUse"><stop offset="0" stop-color="#65c08a"/><stop offset=".5" stop-color="#00a551"/><stop offset="1" stop-color="#00914d"/></radialGradient><radialGradient xlink:href="#j" id="L" cx="-1029.3" cy="295.1" r=".4" fx="-1029.3" fy="295.1" gradientTransform="rotate(90 -372.4 741.5)"/><radialGradient xlink:href="#h" id="M" cx="-1025" cy="290.8" r=".4" fx="-1025" fy="290.8" gradientTransform="rotate(90 -372.4 741.5)"/><radialGradient xlink:href="#k" id="N" cx="-1001.7" cy="153.4" r=".4" fx="-1001.7" fy="153.4" gradientTransform="rotate(79.8 -418.9 766.9)"/><radialGradient xlink:href="#k" id="O" cx="-297.1" cy="-148.2" r=".4" fx="-297.1" fy="-148.2" gradientTransform="rotate(13.5 -1035.8 1606)"/><radialGradient xlink:href="#j" id="P" cx="-927.8" cy="-18.2" r=".4" fx="-927.8" fy="-18.2" gradientTransform="rotate(67.3 -488.5 794.2)"/><radialGradient xlink:href="#h" id="Q" cx="-1090.2" cy="805.2" r=".4" fx="-1090.2" fy="805.2" gradientTransform="rotate(137.9 -356.1 670.5)"/><radialGradient xlink:href="#k" id="R" cx="-927.7" cy="-26" r=".4" fx="-927.7" fy="-26"/><radialGradient xlink:href="#i" id="S" cx="-1149.2" cy="754.9" r=".4" fx="-1149.2" fy="754.9" gradientTransform="rotate(140 -402.9 637.8)"/><radialGradient xlink:href="#f" id="T" cx="258.4" cy="196.8" r="9.7" data-name="Autumn Yellow Radial" fx="258.4" fy="196.8"/><radialGradient xlink:href="#f" id="U" cx="267" cy="188.2" r="2.9" data-name="Autumn Yellow Radial" fx="267" fy="188.2"/><radialGradient xlink:href="#f" id="V" cx="261.9" cy="193.4" r="5.9" data-name="Autumn Yellow Radial" fx="261.9" fy="193.4"/><linearGradient id="a" x1="397.4" x2="397.4" y1="257.3" y2="254.5" data-name="Summer Hot Pink" gradientTransform="rotate(-9.5 -876.9 768.1)" gradientUnits="userSpaceOnUse"><stop offset="0" stop-color="#ce7cb2"/><stop offset=".5" stop-color="#c24a9a"/><stop offset=".7" stop-color="#bd3292"/><stop offset="1" stop-color="#ba1b8c"/></linearGradient><linearGradient xlink:href="#a" id="m" x1="299.5" x2="299.7" y1="59.6" y2="61" data-name="Summer Hot Pink" gradientTransform="rotate(9 356 29.4)"/><linearGradient id="b" x1="380.4" x2="380.4" y1="0" y2="-2.7" data-name="Yellow Green" gradientTransform="rotate(-2.4 1538.1 1564.5)" gradientUnits="userSpaceOnUse"><stop offset="0" stop-color="#d0e3a4"/><stop offset=".5" stop-color="#abd378"/><stop offset="1" stop-color="#76b83f"/></linearGradient><linearGradient xlink:href="#b" id="n" x1="380.5" x2="380.5" y1="-2.7" y2="-3.8" data-name="Yellow Green" gradientTransform="translate(-65.7 50.7)"/><linearGradient id="c" x1="67.7" x2="67.6" y1="114.9" y2="112.4" data-name="Summer Turquoise" gradientTransform="rotate(14.8 266.3 74.5)" gradientUnits="userSpaceOnUse"><stop offset="0" stop-color="#64c7d2"/><stop offset=".2" stop-color="#37bdc9"/><stop offset=".5" stop-color="#00b2c0"/><stop offset=".7" stop-color="#00aeb0"/><stop offset="1" stop-color="#00a899"/></linearGradient><linearGradient xlink:href="#c" id="o" x1="-48.4" x2="-48.2" y1="-29.1" y2="-27.9" data-name="Summer Turquoise" gradientTransform="rotate(9 -555.3 738.2)"/><linearGradient id="p" x1="202.7" x2="202.6" y1="223" y2="220.2" gradientTransform="rotate(-9.5 -876.9 768.1)" gradientUnits="userSpaceOnUse"><stop offset="0" stop-color="#fcf2dd"/><stop offset="0" stop-color="#fdebc0"/><stop offset="0" stop-color="#ffe089"/><stop offset=".6" stop-color="#ffcc02"/><stop offset=".7" stop-color="#f6c30c"/><stop offset="1" stop-color="#e2b024"/></linearGradient><linearGradient id="q" x1="101.8" x2="102" y1="56" y2="57.4" gradientTransform="rotate(9 146.8 26.6)" gradientUnits="userSpaceOnUse"><stop offset="0" stop-color="#e2b024"/><stop offset=".3" stop-color="#f6c30c"/><stop offset=".5" stop-color="#ffcc02"/><stop offset="1" stop-color="#ffe089"/><stop offset="1" stop-color="#fdebc0"/><stop offset="1" stop-color="#fcf2dd"/></linearGradient><linearGradient id="d" x1="-906" x2="-907.3" y1="679.1" y2="681.6" data-name="Orange" gradientTransform="rotate(-106.5 -529.3 -73.6)" gradientUnits="userSpaceOnUse"><stop offset="0" stop-color="#f69353"/><stop offset=".5" stop-color="#f37521"/><stop offset="1" stop-color="#d4622a"/></linearGradient><linearGradient xlink:href="#d" id="r" x1="-902.8" x2="-904.3" y1="678" y2="681" data-name="Orange"/><linearGradient id="e" x1="-905.7" x2="-904.2" y1="678.7" y2="681.6" data-name="Gold" gradientTransform="rotate(-106.5 -529.3 -73.6)" gradientUnits="userSpaceOnUse"><stop offset="0" stop-color="#ffe8a3"/><stop offset=".5" stop-color="#ffca05"/><stop offset="1" stop-color="#faac18"/></linearGradient><linearGradient xlink:href="#d" id="s" x1="-899.4" x2="-900.9" y1="677.2" y2="680.3" data-name="Orange"/><linearGradient xlink:href="#e" id="t" x1="-902.4" x2="-901" y1="677.7" y2="680.4" data-name="Gold"/><linearGradient xlink:href="#d" id="u" x1="-896" x2="-897.2" y1="678" y2="680.4" data-name="Orange"/><linearGradient xlink:href="#e" id="v" x1="-895.8" x2="-894.2" y1="677.8" y2="680.9" data-name="Gold"/><linearGradient xlink:href="#e" id="w" x1="-898.9" x2="-897.4" y1="677" y2="680" data-name="Gold"/><linearGradient xlink:href="#d" id="B" x1="-318.6" x2="-319.8" y1="129.2" y2="131.7" data-name="Orange" gradientTransform="rotate(-81.1 -153.2 -136.5)"/><linearGradient xlink:href="#d" id="C" x1="-315.3" x2="-316.8" y1="128" y2="131" data-name="Orange" gradientTransform="rotate(-81.1 -153.2 -136.5)"/><linearGradient xlink:href="#e" id="D" x1="-318.2" x2="-316.7" y1="128.7" y2="131.6" data-name="Gold" gradientTransform="rotate(-81.1 -153.2 -136.5)"/><linearGradient xlink:href="#d" id="E" x1="-311.9" x2="-313.4" y1="127.3" y2="130.3" data-name="Orange" gradientTransform="rotate(-81.1 -153.2 -136.5)"/><linearGradient xlink:href="#e" id="F" x1="-314.9" x2="-313.5" y1="127.7" y2="130.5" data-name="Gold" gradientTransform="rotate(-81.1 -153.2 -136.5)"/><linearGradient xlink:href="#d" id="G" x1="-308.5" x2="-309.7" y1="128" y2="130.4" data-name="Orange" gradientTransform="rotate(-81.1 -153.2 -136.5)"/><linearGradient xlink:href="#e" id="H" x1="-308.3" x2="-306.7" y1="127.8" y2="130.9" data-name="Gold" gradientTransform="rotate(-81.1 -153.2 -136.5)"/><linearGradient xlink:href="#e" id="I" x1="-311.4" x2="-309.9" y1="127" y2="130" data-name="Gold" gradientTransform="rotate(-81.1 -153.2 -136.5)"/></defs><g data-name="Layer 1"><path fill="url(#l)" d="M0 0h335v335H0z"/><path fill="#42210b" d="M173.6 238.6v.4c-5.3 2.3-9.2 4.5-14 2.6a15.2 15.2 0 0 1-7.1-6l.6.1c1.4 2 3.6 4.4 6.8 5.6 4.8 1.8 8.6-.3 13.7-2.7Z"/><path fill="#42210b" d="M217.1 243a38.4 38.4 0 0 0-43.1-4.6v-.3c.3-1.6.6-3 1-4.1l-.4-.3c-.5 1.7-.8 3.4-1 5v.3a43 43 0 0 0-.6 5.5c-.1 5.3-.4 16.6 7.5 25.4 1.3 1.5 8.3 9.3 19 9.5 13 .2 25.8-10.7 25.7-21.8-.1-7.3-5.9-12.6-8-14.7Zm-17.7 35.9a26.6 26.6 0 0 1-18.8-9.3c-7.6-8.6-7.4-19.6-7.3-24.8a43.2 43.2 0 0 1 .6-6c2.9-1.3 6-2.6 10-3.5 11-2.2 24.1.1 32.6 7.9 2.2 2 7.8 7.2 7.9 14.4 0 10.8-12.5 21.5-25 21.3Z"/><path fill="#263238" d="M62.9 267c0-.8-2-.9-2-.1v15c0 .8 2 .9 2 .1v-15Z"/><path fill="#665d12" d="M85.2 251c0 18.8-11.2 22.4-25 22.4s-25-3.6-25-22.5 11.1-45.8 25-45.8 25 27 25 45.8Z"/><path fill="#524a0e" d="M62 258.1c4 3 9 2.7 12.3-.9 6.4-7.3 6.1-17.2 5.2-26.3-2.3 3.5-5 7.3-9 8.8 10.2-8 4-22.8-4.4-29.9-2.5-2-5.6-3.3-8.9-4.3-12.4 3.4-22.1 28-22.1 45.4 0 19 11.2 22.5 25 22.5 4.4 0 8.5-.4 12-1.4 3-3 5.2-7 5.7-11.2-5.3 2-11.7 1.4-15.8-2.7Z"/><path fill="#263238" d="M285.6 277c0-.8-2.2-.9-2.2 0v16c0 1 2.2 1 2.2.2v-16.1Z"/><path fill="#665d12" d="M309.6 259.8c0 20.3-12 24.1-27 24.1s-26.9-3.8-26.9-24.1 12-49.4 27-49.4 26.9 29 26.9 49.4Z"/><path fill="#524a0e" d="M284.6 267.5c4.4 3.2 9.8 2.8 13.3-1 6.9-7.8 6.6-18.5 5.6-28.3-2.5 3.8-5.3 7.9-9.7 9.5 11-8.5 4.4-24.6-4.7-32.2-2.7-2.1-6-3.5-9.6-4.7-13.4 3.7-23.8 30.1-23.8 49 0 20.3 12 24.1 27 24.1 4.6 0 9-.3 12.9-1.5 3-3.1 5.5-7.5 6-12-5.6 2.1-12.6 1.5-17-2.9Z"/><path fill="#d4e157" d="M70.7 284A223.5 223.5 0 0 0 0 276.5V335h335v-48.9c-37.2 2-75.8 12.5-112.8 16.7C168 309.2 118 299.4 70.7 284Z"/><path fill="#e6ee9c" d="M222.2 302.8C168 309.2 118 299.4 70.7 284A223.5 223.5 0 0 0 0 276.5v3.8a199 199 0 0 1 60 6.8c-11.2 0-22.3-2-33.5-2.5 12 5 26 7 39.8 9.2 6.7 1.2 13 1.7 19.6 2.6 10.7.8 20.1 3.3 30.8 4.4 23.7 2.3 45.6 4.2 69.3 6.2a163 163 0 0 0 33 .3c21.5-2.3 42-4 61.7-9.5 8.4-2.6 18.3-3.7 28-4.8-3.5 3.4-10.2 3.6-15.1 5.6 13.3-2.6 27.3-4.1 41.4-4.5v-8c-37.2 2-75.8 12.5-112.9 16.7Z"/><path fill="#c0ca33" d="M70.7 316C49 313.5 24 313 0 313.2V335h335v-18.2c-37.2.7-75.8 4.6-112.8 6.2-54.1 2.4-104.1-1.2-151.5-7Z"/><path fill="#ff006e" d="M172 230.4c-.4-3-1.3-6.6-2-9.1-.5-1.3-.8-1.2-2.5-1-1.5.2-3.4-.5-3.8 1-.2.8.6 4.2.8 5.1l.8 3.7c2-.6 4.5-.4 6.7.4Z"/><g fill="#ffccbc"><path d="M172.6 237.7a49 49 0 0 0-.6-7.3c-2.2-.7-4.6-.9-6.7-.3.6 2.7 1.4 5.5 2.4 8.1.3.8.6 1.6 1.1 2.2s1.4 1 2.2.7c.6-.2 1.1-.7 1.3-1.4a6 6 0 0 0 .3-2ZM157.8 233.4c-.3-.7-.8-1.2-1.3-1.7-.3-.4-1-1-1.4-1.2l-2.8 3.1a4.1 4.1 0 0 0 2.9 2.6c.9.2 2 0 2.5-.8.3-.6.3-1.4 0-2Z"/><path d="M155.7 231c-.8-.7-1.2-1.4-2.1-2.1l-3.4-.4c-.1.2 0 .5.2.7l.6.3c.7.2 1.3.4 2 .4l1.8 2c.4 0 .7-.4 1-.8Z"/><path d="M155 232c-1-.8-1.4-1.5-2.4-2h-3.4l.3.6.6.3 2 .2 2 1.8c.5-.1.7-.6.9-1Z"/><path d="M154.3 233c-.9-.7-1.3-1.3-2.2-1.9h-3c0 .3 0 .5.2.6l.6.3 1.8.2 1.8 1.6c.4-.1.6-.5.7-.9Z"/><path d="M154.2 234c-.8-.6-1.3-1.2-2.1-1.7h-3c-.1.2 0 .4.2.6l.6.2c.6.2 1.1.2 1.7.2l1.9 1.6c.3 0 .5-.5.7-.8ZM169.6 236.6c1.1.2 2.5 1.6 2.5 2.7 0 1.7-1.2 2.8-2.8 2.9-1.7 0-14-6.6-14-6.6-.6-4.6 2.8-1.4 14.3 1Z"/></g><path fill="none" stroke="#ff8a65" stroke-linecap="round" stroke-linejoin="round" d="M153.7 230c0 .7.5 1.4 1.1 1.7a2 2 0 0 0 .3 1.8c.4.5 1 .8 1.7.7"/><path fill="#ffccbc" d="M167.2 272c2 1 4.2 2.5 6.2 3.6l-2.3 3.1-6.5-3.1c.7-1.3 1.6-2.6 2.6-3.6Z"/><path fill="#ff006e" d="M168.5 282c.5-1.2.5-2.7 0-4l2.7-.5c.3-.4.6-1 1-1.3-.3-.6-.3-1.3 0-2 1.4.3 3.1.7 4.5 1.4l-8.8 11.7c-.6-.7-.8-1.7-.7-2.6.2-.9 1-1.9 1.3-2.7Z"/><path fill="#fff3e0" d="m168 287.3 8.8-11.7.6.5-8.8 11.7zM168.7 280l2-.3s.1.2 0 .2l-2 .4c-.1 0-.2-.2 0-.2ZM168.6 280.9l2-.4v.3c-.7 0-1.3.2-2 .3-.1 0-.2-.2 0-.2ZM168.4 281.8c.7 0 1.3-.2 2-.3.1 0 .1.2 0 .2l-2 .4c-.1 0-.2-.2 0-.3Z"/><path fill="#263238" d="M176.1 242.6c-3.6.7-5.8-2-9.4-1.3.3 1.2-1.2 4.1-2.3 6.5-4 1.7-8 4.5-11.3 7.3-3.5 3.1-7.9 6.4-9.9 10.8-.7 1.5.4 2.6 1.7 3.2 4 2 10.8 3.9 21 7.5 1.3-.4 2.9-2.7 2.7-4.6-3.3-1.3-7.3-4.5-11.4-6.6 6-2.3 13.7-6 17.4-9.8 5-5 2-12.1 1.5-13Z"/><path fill="#a3492d" d="M159.2 203.1c-.6 1-.8 2.2-.3 3.2.7 1.3 2.2 2.3 2 3.8 0 1.2-1.2 1.9-2 2.8-1 1.2-1.3 3-.7 4.5s2 2.5 3.7 2.6c1.8.2 3.5-.8 5.4-1 2.5-.3 4.9 1 7.2 1.8 1.8.6 3.7 1 5.5.7 1.9-.1 3.7-1 4.8-2.4a5 5 0 0 0 .7-5.3c-.5-1-1.5-1.8-1.6-3 0-1.2.8-2.3.6-3.4 0-1.2-1.1-2-2.2-2.4-1.1-.4-2.3-.5-3.4-.9-2.1-.8-3.5-2.7-5.2-4.2-1.7-1.5-4-2.7-6.1-1.7-1.1.4-1.9 1.4-2.7 2.3-1 .9-1.8 1.2-3 1.3-1.1.1-2 .4-2.7 1.3Z"/><path fill="#6c301e" d="M160 203.8c-.7.9-.8 2-.3 3 .6 1.3 2 2.3 1.9 3.7-.1 1.1-1.2 1.8-2 2.7-1 1.2-1.2 3-.6 4.3.6 1.5 2 2.5 3.5 2.6 1.7.2 3.3-.8 5-1 2.3-.3 4.6 1 6.8 1.7 1.6.6 3.4 1 5.1.8 1.7-.2 3.5-1 4.5-2.4 1.1-1.4 1.4-3.5.6-5-.5-1-1.4-1.9-1.4-3-.1-1.1.7-2.2.5-3.3 0-1-1-1.9-2-2.3-1.1-.3-2.2-.4-3.2-.8-2-.8-3.3-2.6-5-4-1.5-1.5-3.7-2.7-5.6-1.8-1 .5-1.7 1.5-2.6 2.3-.8.8-1.6 1.1-2.8 1.3-1 0-1.8.3-2.4 1.2Z"/><path fill="#ffccbc" d="M160.6 295c0 2.4-.3 5-.4 7.2l-3.9-.6-.1-7.2c1.5 0 3 .2 4.4.7Z"/><path fill="#ff006e" d="M152.3 300.8c1.3-.2 2.6-.8 3.5-1.8l1.7 2.1 1.6.3c.4-.5 1-.8 1.7-1 .5 1.6.9 3.2.9 4.8l-14.4-2.5c.3-.9 1-1.6 2-1.8.8-.3 2 0 3-.1Z"/><path fill="#fff3e0" d="m147.2 303.5.2-.8 14.3 2.5-.1.8zM154 300l1.3 1.6c0 .2-.1.3-.2.2l-1.2-1.6c-.1-.1 0-.3.2-.1ZM153.3 300.4l1.2 1.5c.1.2-.1.3-.2.2l-1.2-1.6c-.1-.1 0-.3.2-.1ZM152.4 300.6l1.2 1.6c0 .1-.1.3-.2.1l-1.3-1.5c0-.2.2-.3.3-.2Z"/><path fill="#37474f" d="M171.7 254.3c-.4-1.2 0-5-.4-6.2 3.5-1 8.5 1 12 0 .5.8 4.2 7.6-.3 13a66.4 66.4 0 0 1-22.8 14.2c3.6 6 .4 15.4 1 21-1.6 1-4.4.7-5.3-.3-1.4-10.7-2.4-17.6-2.8-22-.1-.8 1.7-3.8 2.2-4.4 4.6-5 10.5-12.1 16.4-15.3Z"/><path fill="#ff006e" d="M166.5 227.2c.4 2.3 1.1 5.4 1 7.7-.2 2.4-.2 4.7-.9 7-.7 2.1-2 3.6-2.7 5.8a33 33 0 0 1 21.2 9.4l.3-.7c.3-.8.2-1.6.2-2.5v-.3a50 50 0 0 0-2-9.3c-.9-2.7-1.8-5-1.7-7.9 0-1.8 3.7-15.7 2.3-16.2a36.3 36.3 0 0 0-19.9.3c.6-.1 2 6.1 2.2 6.7Z"/><path fill="#ffccbc" d="M171.7 223.2c2-.5 4-1.6 5.5-3l-2.1-.3-1-3.8-1-4.4c-1 1-2.3 1.8-3.6 2.5.7 1.9.9 4 1 5.8l-1.3 1a2 2 0 0 0 2.6 2.2Z"/><path fill="#ffab91" d="M169.2 221a10 10 0 0 0 5-4.9l-1.1-4.4c-1 1-2.3 1.8-3.6 2.5.7 1.9.9 4 1 5.9l-1.3.8v.1Z"/><path fill="#ffccbc" d="m162.9 209.8.5 1a4 4 0 0 1 0 2.4c-.2.9.1 1.8 1 2.5.8.6 1.7 1.4 2.7 1.2 3.5-.6 6-2.8 6.4-4.7.7 0 1.3-.1 1.8-.5s.8-1 .7-1.6c0-.7-.6-1.2-1.2-1.2-.7 0-1.5.3-1.7 1l-1.5-2.2a3.4 3.4 0 0 0-3.7-3c-1.7 0-3.2.4-5.1.9l-.3 1.4c-.1 1 0 2 .4 2.8Z"/><path fill="none" stroke="#ff8a65" stroke-linecap="round" stroke-linejoin="round" d="M175 209.6a1 1 0 0 0-.8.2 1 1 0 0 0-.3.7c.1 0 .4 0 .4.2s0 .5-.3.5"/><path fill="#212121" d="M168.2 209.8v-.3l.3-.1h.2l.1.2.1.7v.3l-.2.1h-.2l-.2-.2-.1-.7ZM163.6 210.7v-.2l.3-.2h.2l.1.3.1.7v.2l-.2.2h-.3l-.1-.3-.1-.7Z"/><path fill="#6c301e" d="M167.8 207.7a4 4 0 0 1 2.2 0l.2.4-.4.2a3.3 3.3 0 0 0-2-.1c-.1 0-.3 0-.3-.2 0-.1 0-.3.3-.3ZM162.9 208.9l.1-.2a2 2 0 0 1 1.1-.5h.2l.2.2c0 .2-.1.3-.3.3h-.3l-.2.2-.3.2h-.4l-.1-.2Z"/><path fill="#fff" d="M168.7 213.2c0 1.7-2 2.9-3 1.7l3-1.7Z"/><path fill="none" stroke="#ff8a65" stroke-linecap="round" stroke-linejoin="round" d="M165.2 212c0 .4-.4.8-.8 1 .3.4.7.7 1.1.9"/><path fill="#6c301e" d="M170.4 209.3c1.5-.3 3-1.1 2.5-3-.2-.7-.8-1.4-1.5-1.8s-1.5-.6-2.2-.7c-1.5-.3-3-.4-4.4 0-1 .4-2.8 1.4-1.7 2.6a8.6 8.6 0 0 0 5.6 3l1.7-.1Z"/><path fill="#ff006e" d="M191.6 227a70 70 0 0 0-6.8-6.4c-1.2-1-1.3-.6-2.5.7-1 1-1.3 2.8-.8 4.3a6 6 0 0 0 1.6 2.3l2.7 2.6a12 12 0 0 1 5.8-3.4Z"/><g fill="#ffccbc"><path d="M196 232.8a47 47 0 0 0-4.4-5.7c-2.3.6-4.4 1.8-5.8 3.4 2 2 4.2 3.7 6.5 5.4.6.5 1.3 1 2 1.2.9.2 1.8 0 2.3-.5.4-.6.5-1.3.4-2-.2-.6-.6-1.2-1-1.8ZM181.3 237.4c-.6-.4-1.3-.6-2-.8l-1.8-.2-.6 4.2c1 .8 2.4 1 3.8.5.9-.3 1.7-1.1 1.6-2 0-.7-.4-1.3-1-1.7Z"/><path d="M178.3 236.6c-1.1-.2-1.8-.6-3-.7l-3 1.6c0 .2.3.4.5.4h.7a10 10 0 0 0 2-.7l2.5.7c.4-.3.4-.9.3-1.3Z"/><path d="M178.2 237.7c-1.2-.1-2-.4-3.1-.4l-2.8 2c0 .1.3.3.6.3l.7-.1 1.8-1 2.6.4c.3-.3.3-.8.2-1.2Z"/><path d="M178.1 239c-1-.2-1.7-.4-2.7-.4l-2.5 1.7c0 .2.2.3.5.3l.6-.1 1.6-.8 2.4.3c.2-.3.2-.7.1-1.1Z"/><path d="M178.7 240c-1-.2-1.7-.4-2.7-.4l-2.5 1.7c0 .2.2.3.5.3l.6-.1 1.6-.8 2.4.3c.2-.3.2-.7.1-1.1ZM193 233.5c1-.4 3 0 3.6 1 .9 1.3.5 3-.8 3.9-1.4 1-15.3 2.1-15.3 2.1-3-3.4 1.5-2.7 12.4-7Z"/></g><ellipse cx="165.7" cy="323.6" fill="#827717" opacity=".5" rx="16" ry="1.8"/><path fill="#42210b" d="M217.1 243a36 36 0 0 0-20.3-8.8l.2.6c7.2.8 14.2 3.6 19.5 8.4 2.2 2 7.8 7.2 7.9 14.4 0 10.8-12.5 21.5-25 21.3a26.6 26.6 0 0 1-18.8-9.3c-7.6-8.6-7.4-19.6-7.3-24.8a43.2 43.2 0 0 1 .6-6v-.5l.1-.2c.3-1.6.6-3 1-4.1l-.4-.3c-.5 1.7-.8 3.4-1 5v.3a43 43 0 0 0-.6 5.5c-.1 5.3-.4 16.6 7.5 25.4 1.3 1.5 8.3 9.3 19 9.5 13 .2 25.8-10.7 25.7-21.8-.1-7.3-5.9-12.6-8-14.7Z"/><g fill="#ffccbc"><path d="M181.3 237.4c-.6-.4-1.3-.6-2-.8l-1.8-.2-.6 4.2c1 .8 2.4 1 3.8.5.9-.3 1.7-1.1 1.6-2 0-.7-.4-1.3-1-1.7Z"/><path d="M178.3 236.6c-1.1-.2-1.8-.6-3-.7l-3 1.6c0 .2.3.4.5.4h.7a10 10 0 0 0 2-.7l2.5.7c.4-.3.4-.9.3-1.3Z"/><path d="M178.2 237.7c-1.2-.1-2-.4-3.1-.4l-2.8 2c0 .1.3.3.6.3l.7-.1 1.8-1 2.6.4c.3-.3.3-.8.2-1.2Z"/><path d="M178.1 239c-1-.2-1.7-.4-2.7-.4l-2.5 1.7c0 .2.2.3.5.3l.6-.1 1.6-.8 2.4.3c.2-.3.2-.7.1-1.1Z"/><path d="M178.7 240c-1-.2-1.7-.4-2.7-.4l-2.5 1.7c0 .2.2.3.5.3l.6-.1 1.6-.8 2.4.3c.2-.3.2-.7.1-1.1Z"/></g><path fill="url(#l)" d="M0 0h335v335H0z" opacity=".8"/><path fill="url(#a)" d="m297.6 53.9-.4-.7c0-.2-.2-.3-.3-.4l-.2-.5-.1-.5c-.1-.3-.3-.5-.6-.4-.3 0-.5.2-.8.3l-.5.1-.2.1v.6c0 .2 0 .4-.2.6l-.2.7v.4c0 .2.1.5.3.6.2.1.6-.1.8-.2h.8l.3-.1h.3l.7-.2h.4c.2-.1 0-.3 0-.4Z"/><rect width="3.8" height="1.3" x="293.6" y="50.5" fill="url(#m)" rx=".3" ry=".3" transform="rotate(-9.5 295.5 51)"/><path fill="url(#j)" d="M309.4 22.9c1.7 10-4 26-14 27.7-10 1.7-20.6-11.7-22.3-21.7C271.5 19 278 7.5 288 6c10-1.7 19.8 7 21.5 17Z"/><path fill="url(#b)" d="m316.5 50.4-.3-.7-.3-.4v-.5l-.2-.5c0-.3-.2-.5-.5-.5l-.7.2-.6.1h-.1v.7l-.3.5-.3.6-.1.4c0 .2 0 .5.2.6.3.2.6 0 .8-.1h.5l.3.1h.3a2.7 2.7 0 0 1 1-.1h.3c.2 0 0-.3 0-.4Z"/><rect width="3.6" height="1.2" x="313" y="46.9" fill="url(#n)" rx=".3" ry=".3" transform="rotate(-2.4 315.1 47.6)"/><path fill="url(#h)" d="M331.2 22.5c.4 9.6-6.8 24.2-16.4 24.6-9.7.4-18.1-13.5-18.5-23.1-.4-9.7 7-19.7 16.6-20.1 9.7-.4 17.9 9 18.3 18.6Z"/><path fill="url(#c)" d="M65.5 62.7v-.8l-.2-.4v-.4l.1-.5c0-.3 0-.5-.3-.5h-.7c-.2-.1-.4-.2-.5-.1h-.1l-.3.5-.3.4-.5.4-.1.4v.5c.1.2.5.1.7.2l.5.1.2.2h.6l.5.2s.3.2.4.1v-.3Z"/><rect width="3.3" height="1.1" x="63.1" y="59.1" fill="url(#o)" rx=".3" ry=".3" transform="rotate(14.8 64.8 59.7)"/><path fill="url(#g)" d="M86.2 42C84 50.7 73.5 61.5 65 59.2c-8.6-2.3-12.3-16.8-10-25.5 2.3-8.6 11.6-15.4 20.2-13.1 8.7 2.2 13.4 12.8 11.1 21.4Z"/><path fill="url(#p)" d="m99.9 52-.4-.7-.3-.3-.2-.5-.1-.5c-.1-.3-.4-.5-.7-.5l-.7.3-.6.2h-.1v.7l-.2.6-.2.7v.4c0 .2 0 .5.3.6.2.1.5-.2.8-.2h.7l.4-.1.3-.1.7-.1h.4c.1-.1 0-.3-.1-.4Z"/><rect width="3.8" height="1.3" x="95.9" y="48.6" fill="url(#q)" rx=".3" ry=".3" transform="rotate(-9.5 97.7 49.3)"/><path fill="url(#f)" d="M111.7 21c1.6 10-4 26.1-14 27.8C87.7 50.5 77 37 75.4 27 73.7 17 80.2 5.7 90.2 4c10-1.7 19.8 7 21.5 17Z"/><path fill="url(#d)" d="m299.6 74.6.4.2a39.5 39.5 0 0 0 2.3-.3l.2-1-.1-.3a18.1 18.1 0 0 1-3.5.3l.7 1Z"/><path fill="url(#r)" d="M297.5 71.5c.1.2.3.3.4.3H300.8l.3-.7c0-.2 0-.3-.2-.3h-1l-3-.3.7 1Z"/><path fill="url(#e)" d="m298.8 73 .1.5.7 1A19 19 0 0 1 301 71c.1 0 0-.2-.2-.2h-.7l-.3.1a17 17 0 0 0-1 2.1Z"/><path fill="url(#s)" d="m295.6 68.2.4.4 2.7.7h.2l.4-.6c.1-.1 0-.3-.2-.3a13 13 0 0 1-3.9-1.5l.4 1.3Z"/><path fill="url(#t)" d="M296.8 70v.5l.7 1a14 14 0 0 1 1.8-2.8c0-.1 0-.3-.2-.4l-.8-.1h-.3c-.4.6-.9 1.1-1.2 1.8Z"/><path fill="url(#u)" d="M295 64.3c0 .2 0 .4.2.5l2.2 1.4h.2l.6-.4c.1-.1 0-.3 0-.4l-.9-.6c-.7-.5-1.4-1.2-2-1.9a6 6 0 0 0-.3 1.4Z"/><path fill="url(#v)" d="M295.6 62.5c-.1.1-.3.3-.3.5-.2.4-.3.9-.3 1.3.8-.5 1-.7 2-1l1-.4c.2 0 .4-.3.3-.4l-.3-.5h-.3c-1 .1-1.2.2-2 .5Z"/><path fill="url(#w)" d="M295.3 66.4v.5l.3 1.3a12.1 12.1 0 0 1 2.6-2.4c.1-.1 0-.3 0-.4a9 9 0 0 1-.7-.4h-.3l-1.9 1.4Z"/><path fill="url(#x)" d="m299.5 82 .3-.6.6.4-.4.6-.5-.4z"/><path fill="url(#y)" d="m304.7 70.3-.3-.7.7-.2.3.7-.7.2z"/><path fill="url(#z)" d="m306.8 80 .2-.7.6.3-.2.7-.6-.3z"/><path fill="url(#k)" d="m316.8 80.6-.3-.7.6-.2.3.7-.6.2z"/><path fill="url(#i)" d="m330.6 74.5-.3-.7.6-.2.3.7-.6.2z"/><path fill="url(#A)" d="m310.5 75.6-.3-.7.7-.2.2.7-.6.2z"/><path fill="url(#B)" d="m83.6 68.8.3.4 2 .7h.2l.6-.8c.1-.1.1-.3 0-.4l-.8-.2a20 20 0 0 1-2.5-1l.2 1.3Z"/><path fill="url(#C)" d="M83 65.1c0 .2.2.4.3.5l2.3 1c0 .1.2.1.2 0l.6-.4V66a14.5 14.5 0 0 1-3.5-2L83 65Z"/><path fill="url(#D)" d="M83.6 67c-.1.1-.2.3-.1.5l.1 1.3a17.8 17.8 0 0 1 2.8-2.6v-.3l-.7-.4h-.3L83.6 67Z"/><path fill="url(#E)" d="M82.8 61.3c0 .2 0 .4.2.5a15 15 0 0 0 2 1.8h.3l.6-.3c.1 0 .1-.3 0-.4l-.9-.6c-.7-.7-1.4-1.5-2-2.4l-.2 1.4Z"/><path fill="url(#F)" d="M83 63.4s-.2.3-.1.4l.1 1.3a15.2 15.2 0 0 1 2.9-1.8c.1 0 .1-.3 0-.4l-.7-.5H85c-.6.2-1.3.6-1.9 1Z"/><path fill="url(#G)" d="M83.9 57.5v.5c.3.8.7 1.5 1.3 2.2l.2.1.7-.1c.2 0 .2-.3.2-.4a10.6 10.6 0 0 1-1.5-3.5l-1 1.2Z"/><path fill="url(#H)" d="M85.2 56.2c-.2 0-.4 0-.5.2l-.8 1.1c1 0 1.2-.2 2.3-.1l1 .1c.2 0 .4 0 .4-.2v-.6l-.3-.2c-1-.2-1.2-.3-2-.3Z"/><path fill="url(#I)" d="M83.3 59.6c-.2 0-.3.2-.3.4l-.2 1.3a12.5 12.5 0 0 1 3.3-1.1c.2 0 .2-.2.2-.4l-.5-.6-.2-.2-2.4.6Z"/><path fill="url(#J)" d="m86 80.5-.3-.6.7-.2.2.7-.6.1z"/><path fill="url(#K)" d="m85.3 69.7-.1-.7h.7v.8l-.6-.1z"/><path fill="url(#L)" d="M73.7 85v-.8l.7.1v.8l-.7-.1z"/><path fill="url(#M)" d="M78.1 89.3v-.7h.6v.8l-.6-.1z"/><path fill="url(#N)" d="m81.6 85.1-.1-.7h.6l.1.7h-.6z"/><path fill="url(#O)" d="m91.4 72.6-.7-.2.2-.6.7.1-.2.7z"/><path fill="url(#P)" d="m92 76.4-.3-.7.7-.2.2.7-.6.2z"/><path fill="url(#Q)" d="m97.4 78.2.6-.5.3.6-.5.5-.4-.6z"/><path fill="url(#R)" d="m99.2 73.4-.2-.6.6-.2.3.7-.7.1z"/><path fill="url(#S)" d="m92.7 67.9.5-.4.4.5-.6.5-.3-.6z"/><path fill="#1a2134" d="M335 56.4v70.8l-75.7 75.7-35.4-35.4 35.4-35.4L335 56.4z"/><path fill="#1a2134" d="M272.3 192.5H0v-50h272.3v50z"/><path fill="#1a2134" d="M335 207.8v70.8l-75.7-75.7-35.4-35.4 35.4-35.4 75.7 75.7zM99.8 308.3 73.1 335H0V208.6l99.8 99.7z"/><g fill="#1a2134" data-name="PRINT"><path d="M29.6 14c0 .4-.2 1-.6 1.3l-6.3 6.4-6.8-4V14a2 2 0 0 1 4 0v4.9l6.3-6.3a2 2 0 0 1 3.4 1.4ZM29 31.7a2 2 0 0 1-2.8 0L24 29.6 20 25.4v4.9c0 1-1 2-2 2s-2-1-2-2v-3.9l6.8-3.9 4.2 4.2 2 2.2c.9.7.9 2 0 2.8ZM22.4 22l-.2-.3-1.8-1-4.5-2.6-3.9-2.3c-.2 0-.5 0-.6.2V27.9a.5.5 0 0 0 .6.4l3.9-2.2 6.2-3.6h.1l.1-.2V22Zm-9.6-4.8 3 1.8 4.9 2.8.1.1v.3l-.1.2-4.9 2.8-3 1.8c-.2 0-.4 0-.5-.2v-9.2c0-.2.1-.4.3-.4h.2Z"/><path d="m19.5 22.2-.2.1-3.6 2.1-2.3 1.3h-.3v-7c0-.2 0-.3.2-.3h.1l2.3 1.4 3.6 2 .2.2v.2ZM62.5 21.6 57 18.8l-3.4-1.7a.4.4 0 0 0-.6.1v9.5c.1.2.3.4.5.4l.2-.1.2-.1 3.2-1.7 2-1 3.5-2c.1 0 .2 0 .2-.2v-.2l-.2-.2ZM57 24.5l-2.6 1.4-.4-.1v-.2l-.2-7.2c0-.1.2-.3.4-.2l2.8 1.3 1 .5 3.3 1.7.2.2v.1l-.2.2-4.3 2.3Z"/><path d="M60.1 22v.1L56.7 24l-2 1h-.3v-.1l-.1-5.5.2-.2h.1l2 1 3.3 1.7.1.1v.1ZM38.5 17.2H33.7V27h2.4v-3.1h2.5c2.3-.1 4-1.5 4-3.4s-1.8-3.2-4-3.2Zm-.2 4.6H36v-2.7h2.3c1.1 0 2 .5 2 1.3 0 .9-.9 1.4-2 1.4ZM51.8 27l-7.7.1-.2-9.7h2.4l.1 7.8 5.3-.1.1 1.9zM67.5 23.3l.1 3.5h-2.4v-3.5l-4.3-6.1 2.7-.1 2.7 4.3 2.8-4.3 2.6-.1-4.2 6.3zM81.9 27.2l-1.6.1-4.1-4.5-1.7 1.6v2.9l-1.2.1-.1-9.7h1.2l.1 5.3 5.4-5.4h1.6L77 22.1l4.9 5.1zM88 17.3c-3 0-5.5 2.4-5.5 5.1 0 2.7 2.6 5 5.6 5 3 0 5.5-2.4 5.5-5.1 0-2.7-2.6-5-5.6-5Zm.4 9a4.3 4.3 0 0 1-4.7-4 4.3 4.3 0 0 1 8.6 0 4.3 4.3 0 0 1-4 4ZM103.2 24.5c0 1.6-1.3 2.8-3.8 2.8-1.5.1-3-.4-4.2-1.4l.7-.9a5 5 0 0 0 3.6 1.4c1.6 0 2.5-.9 2.5-1.8 0-1-1-1.4-3-1.8-2.1-.4-3.5-1-3.5-2.6s1.5-2.8 3.5-2.8c1.4 0 2.8.4 3.8 1.3l-.7.8c-.8-.7-2-1.2-3.1-1.2-1.3 0-2.3.9-2.3 1.7 0 1 1 1.4 3 1.8 2 .4 3.5 1 3.5 2.7ZM116 27.2h-1.2l-.1-7.3-3.9 6.8-4.1-6.7.1 7.3-1.3.1-.1-9.7h1.3l4 6.7 4-6.8h1.2l.1 9.6zM123.7 17.3c-3 0-5.5 2.4-5.5 5.1 0 2.7 2.6 5 5.6 5 3 0 5.5-2.4 5.5-5.1 0-2.7-2.6-5-5.6-5Zm.4 9a4.3 4.3 0 0 1-4.6-4 4.3 4.3 0 0 1 8.5 0 4.3 4.3 0 0 1-3.9 4ZM139 24.5c0 1.6-1.4 2.8-3.9 2.8A6.2 6.2 0 0 1 131 26l.7-.9.6.4c.8.6 1.9 1 3 1 1.6 0 2.5-.9 2.5-1.8 0-.7-.6-1.1-1.6-1.4l-1.2-.3h-.2c-2.1-.5-3.5-1-3.5-2.7 0-1.6 1.5-2.8 3.6-2.8 1.3 0 2.7.4 3.8 1.3l-.8.8c-.8-.7-2-1.2-3-1.2-1.4 0-2.4.9-2.4 1.7 0 1 1.1 1.4 3 1.8a14.6 14.6 0 0 1 2 .6c1 .4 1.5 1 1.5 2.1Z"/></g><path fill="#1a2134" d="M167.5 219.2a4 4 0 0 0-3.2 6.3l3.2 5.5 3.2-5.5a4 4 0 0 0-3.2-6.3Zm0 5.8c-1 0-1.7-.8-1.7-1.8s.7-1.7 1.7-1.7 1.7.8 1.7 1.7-.7 1.8-1.7 1.8Z"/><circle cx="259.5" cy="167.5" r="59.6" fill="#1a2134"/><circle cx="259.5" cy="167.5" r="55.2" fill="#fff"/><path fill="url(#T)" d="M268 197.5v6.1c0 1.6-1.2 2.8-2.8 2.8h-13.7a2.8 2.8 0 0 1-2.7-2.8V190c0-1.5 1.2-2.8 2.7-2.8h6.3c.4 0 .7.4.7.8 0 .5-.3.8-.7.8h-6c-.9 0-1.6.8-1.6 1.7v13c0 .9.7 1.7 1.7 1.7h13c.8 0 1.6-.8 1.6-1.7v-5.9c0-.4.3-.7.8-.7.4 0 .7.3.7.7Z"/><path fill="url(#U)" d="m268.6 191.1-4.5-4.5.3-.3a3.2 3.2 0 0 1 4.5 0 3.2 3.2 0 0 1 0 4.5l-.3.3Z"/><path fill="url(#V)" d="m267.8 192-6.8 6.7h-.2l-4.4.6c-.3 0-.5-.2-.5-.5l.6-4.3v-.3l6.8-6.8 4.5 4.5Z"/><circle cx="259.7" cy="168.1" r="57.5" fill="none" stroke="#f8c021" stroke-miterlimit="10"/></g></svg>