<?xml version="1.0" encoding="UTF-8"?>
<svg id="uuid-b60876f2-a7ef-4ab5-bd56-cb182966a1cb" data-name="Layer 1" xmlns="http://www.w3.org/2000/svg" width="335" height="335" xmlns:xlink="http://www.w3.org/1999/xlink" viewBox="0 0 335 335">
  <defs>
    <linearGradient id="uuid-653c1269-6948-40fa-bbf8-04f6779f2896" x1="22.34" y1="343.95" x2="322.93" y2="-21.44" gradientTransform="matrix(1, 0, 0, 1, 0, 0)" gradientUnits="userSpaceOnUse">
      <stop offset="0" stop-color="#ad9b6a"/>
      <stop offset=".3" stop-color="#af9d6d"/>
      <stop offset=".55" stop-color="#b6a577"/>
      <stop offset=".79" stop-color="#c1b389"/>
      <stop offset="1" stop-color="#d1c5a0"/>
    </linearGradient>
    <filter id="uuid-5f2d201f-2df5-4685-8bf4-1f357a1a9e49" filterUnits="userSpaceOnUse">
      <feOffset dx="3" dy="3"/>
      <feGaussianBlur result="uuid-26edf8a7-95b8-473f-8b2f-12c5079e72d2" stdDeviation="3"/>
      <feFlood flood-color="#000" flood-opacity=".75"/>
      <feComposite in2="uuid-26edf8a7-95b8-473f-8b2f-12c5079e72d2" operator="in"/>
      <feComposite in="SourceGraphic"/>
    </filter>
    <filter id="uuid-1ba299b8-7ed9-41b8-b083-3b4cd9415f80" filterUnits="userSpaceOnUse">
      <feOffset dx="3" dy="3"/>
      <feGaussianBlur result="uuid-59714433-5428-4b7d-a9de-9fe74c6c5d9a" stdDeviation="3"/>
      <feFlood flood-color="#000" flood-opacity=".75"/>
      <feComposite in2="uuid-59714433-5428-4b7d-a9de-9fe74c6c5d9a" operator="in"/>
      <feComposite in="SourceGraphic"/>
    </filter>
    <filter id="uuid-61665160-e792-4262-bfeb-11c396fb442f" filterUnits="userSpaceOnUse">
      <feOffset dx="3" dy="3"/>
      <feGaussianBlur result="uuid-1706edc8-0512-4c45-836e-906bf2bba9ad" stdDeviation="3"/>
      <feFlood flood-color="#000" flood-opacity=".75"/>
      <feComposite in2="uuid-1706edc8-0512-4c45-836e-906bf2bba9ad" operator="in"/>
      <feComposite in="SourceGraphic"/>
    </filter>
    <filter id="uuid-d2430bdc-9caf-4e6a-aa03-5acae3e5b91d" filterUnits="userSpaceOnUse">
      <feOffset dx="3" dy="3"/>
      <feGaussianBlur result="uuid-54f141f6-a0c2-43f7-acdd-4bde06c016f1" stdDeviation="3"/>
      <feFlood flood-color="#000" flood-opacity=".75"/>
      <feComposite in2="uuid-54f141f6-a0c2-43f7-acdd-4bde06c016f1" operator="in"/>
      <feComposite in="SourceGraphic"/>
    </filter>
  </defs>
  <rect x="0" width="335" height="335" fill="url(#uuid-653c1269-6948-40fa-bbf8-04f6779f2896)"/>
  <g id="uuid-ee014a80-a437-4991-91c1-948c51e8ce0a">
    <g>
      <g>
        <path d="M30.43,13.84c0,.56-.23,1.1-.63,1.5l-6.76,6.76-7.22-4.17v-4.1c0-1.18,.96-2.14,2.14-2.14s2.14,.96,2.14,2.14h0v5.17l6.68-6.69c.84-.84,2.19-.83,3.03,0,.4,.4,.63,.95,.63,1.53h-.01Z" fill="#fff"/>
        <path d="M29.8,32.76c-.4,.4-.94,.63-1.51,.63-.28,0-.56-.06-.82-.16-.26-.11-.49-.27-.69-.47l-2.27-2.27-4.42-4.41v5.18c0,1.18-.95,2.13-2.13,2.13s-2.14-.95-2.14-2.13v-4.09l7.24-4.17,4.47,4.47,2.27,2.27c.84,.84,.83,2.19,0,3.02Z" fill="#fff"/>
        <path d="M22.73,22.4c-.03-.1-.1-.2-.19-.26-.01,0-.02-.01-.03-.02l-1.82-1.05-4.87-2.81-4.12-2.38c-.24-.14-.53-.06-.66,.17-.05,.08-.07,.16-.07,.25v12.48c0,.27,.22,.48,.48,.48,.09,0,.17-.02,.25-.06l4.12-2.38,6.69-3.86s.05-.03,.07-.05c.06-.05,.1-.11,.13-.18,.04-.1,.05-.22,.02-.33Zm-10.19-5.03l3.2,1.85,5.19,2.99c.06,.04,.11,.08,.14,.14h0c.05,.1,.06,.2,.03,.29-.02,.09-.09,.17-.17,.22l-5.19,3-3.2,1.85c-.18,.1-.41,.04-.51-.14-.04-.05-.05-.12-.05-.19v-9.69c0-.21,.16-.37,.37-.37,.07,0,.13,.01,.19,.05Z" fill="#fff"/>
        <path d="M19.65,22.62c-.02,.07-.07,.13-.13,.17l-3.9,2.25-2.4,1.39c-.13,.08-.31,.03-.38-.1-.02-.04-.04-.09-.04-.14v-7.29c0-.16,.13-.28,.28-.28,.05,0,.1,.01,.14,.04l2.41,1.39,3.9,2.25c.06,.04,.11,.09,.13,.16,.01,.05,.01,.11,0,.16h-.01Z" fill="#fff"/>
      </g>
      <g>
        <path d="M65.51,22.05l-5.96-2.99-3.67-1.84c-.21-.12-.47-.04-.58,.16-.03,.06-.05,.12-.06,.18l.12,9.9c.03,.23,.24,.41,.48,.38,.06,0,.12-.03,.17-.06l.23-.12,3.4-1.81,2.09-1.12,3.78-2.01c.09-.05,.16-.13,.19-.23,.03-.07,.03-.15,.01-.22-.04-.1-.11-.18-.2-.22Zm-5.96,3.03l-2.81,1.5c-.16,.1-.37,.05-.46-.11-.02-.04-.04-.09-.04-.14l-.1-7.68c.02-.18,.18-.32,.36-.3,.05,0,.09,.02,.14,.04l2.85,1.43,1.02,.51,3.6,1.81c.07,.03,.13,.09,.16,.17,.01,.05,.01,.11-.01,.16h.01s-.01,.02-.02,.03c-.02,.07-.07,.12-.13,.15l-4.57,2.43Z" fill="#fff"/>
        <path d="M62.97,22.47c-.02,.06-.06,.1-.11,.13l-3.43,1.83-2.12,1.13c-.12,.07-.27,.03-.34-.09-.02-.03-.03-.07-.03-.1l-.07-5.78c0-.14,.13-.24,.27-.23,.04,0,.07,.01,.1,.03l2.14,1.08,3.48,1.75c.06,.03,.1,.07,.12,.13,0,.04,0,.09,0,.13h0Z" fill="#fff"/>
        <path d="M39.94,17.31l-2.28,.03-2.89,.04,.03,2.82,.09,7.48,2.46-.03-.04-3.34,2.71-.04c2.5-.03,4.32-1.49,4.3-3.53-.03-2.04-1.89-3.46-4.38-3.43Zm-.21,4.94l-2.44,.03-.04-2.91,2.45-.03c1.22,0,2.06,.55,2.07,1.43,0,.89-.82,1.47-2.04,1.48Z" fill="#fff"/>
        <polygon points="54.06 27.73 45.85 27.83 45.73 17.53 48.21 17.5 48.31 25.81 54.03 25.73 54.06 27.73" fill="#fff"/>
        <polygon points="70.87 23.8 70.91 27.52 68.42 27.55 68.38 23.83 63.79 17.3 66.67 17.27 69.59 21.75 72.52 17.2 75.28 17.16 70.87 23.8" fill="#fff"/>
        <polygon points="86.18 28.03 84.5 28.05 80.07 23.31 78.28 25.04 78.32 28.13 77.01 28.14 76.89 17.84 78.19 17.83 78.26 23.53 84.02 17.75 85.74 17.73 80.96 22.5 86.18 28.03" fill="#fff"/>
        <path d="M92.65,17.48c-3.18,.04-5.86,2.5-5.83,5.4,.04,2.89,2.76,5.31,5.96,5.27,3.2-.04,5.85-2.52,5.81-5.42-.03-2.89-2.76-5.29-5.94-5.25Zm.42,9.57c-2.51,.2-4.72-1.67-4.92-4.19,.13-2.27,1.91-4.09,4.18-4.29,2.52-.21,4.73,1.66,4.94,4.18-.13,2.28-1.92,4.12-4.2,4.3Z" fill="#fff"/>
        <path d="M108.84,25.13c.02,1.64-1.33,2.99-4.02,3.02-1.66,.06-3.28-.5-4.54-1.58l.81-.93c1.03,.95,2.38,1.47,3.78,1.44,1.78-.02,2.67-.91,2.66-1.83-.01-1.1-1.11-1.52-3.12-1.91-2.32-.46-3.78-1.08-3.8-2.87-.02-1.65,1.6-2.96,3.81-2.98,1.48-.04,2.92,.47,4.05,1.42l-.79,.92c-.91-.81-2.09-1.27-3.31-1.28-1.43,.02-2.45,.87-2.44,1.82,0,1.07,1.15,1.43,3.11,1.82,2.21,.44,3.78,1.13,3.8,2.94Z" fill="#fff"/>
        <polygon points="122.51 28.01 121.21 28.03 121.11 20.25 116.93 27.48 112.58 20.35 112.67 28.13 111.36 28.15 111.24 17.84 112.54 17.83 116.9 24.96 121.08 17.72 122.38 17.71 122.51 28.01" fill="#fff"/>
        <path d="M130.72,17.48c-3.18,.04-5.86,2.5-5.83,5.4,.04,2.89,2.76,5.31,5.96,5.27,3.2-.04,5.85-2.52,5.81-5.42-.04-2.89-2.76-5.29-5.94-5.25Zm.42,9.57c-2.52,.2-4.72-1.67-4.93-4.19,.14-2.27,1.92-4.1,4.19-4.29,2.51-.21,4.72,1.66,4.94,4.18-.13,2.28-1.92,4.12-4.2,4.3Z" fill="#fff"/>
        <path d="M146.91,25.13c.02,1.64-1.34,2.99-4.02,3.02-1.66,.06-3.28-.51-4.55-1.58l.81-.93c1.03,.95,2.39,1.47,3.79,1.44,1.77-.02,2.67-.91,2.65-1.83,0-1.1-1.1-1.52-3.12-1.91-2.31-.46-3.78-1.08-3.8-2.87-.02-1.65,1.61-2.96,3.82-2.98,1.47-.04,2.91,.47,4.05,1.42l-.79,.92c-.92-.81-2.09-1.27-3.32-1.28-1.42,.02-2.45,.87-2.44,1.82,.02,1.07,1.16,1.43,3.12,1.82,2.2,.44,3.78,1.13,3.8,2.94h0Z" fill="#fff"/>
      </g>
    </g>
  </g>
  <circle cx="166.96" cy="159.1" r="81.14" fill="#f8aa10" filter="url(#uuid-5f2d201f-2df5-4685-8bf4-1f357a1a9e49)"/>
  <circle cx="274.46" cy="179.49" r="40.57" fill="#fff" filter="url(#uuid-1ba299b8-7ed9-41b8-b083-3b4cd9415f80)"/>
  <g opacity=".5">
    <g>
      <path d="M306.29,148.79l-3.22-9.74c1.12,1.29,2.02,2.82,2.59,4.55s.77,3.49,.64,5.19Z" fill="#6e1e27"/>
      <path d="M305.54,152.26l-5.14-15.54c.51,.33,1,.71,1.45,1.12l4.19,12.66c-.12,.6-.29,1.19-.5,1.76Z" fill="#6e1e27"/>
      <path d="M304.41,154.61l-6.32-19.11c.44,.18,.87,.39,1.28,.61l5.7,17.24c-.19,.43-.42,.85-.66,1.26Z" fill="#6e1e27"/>
      <path d="M303.11,156.41l-7.14-21.58c.4,.09,.8,.2,1.18,.33l6.71,20.28c-.23,.34-.49,.66-.75,.97Z" fill="#6e1e27"/>
      <path d="M301.68,157.83l-7.71-23.3c.38,.02,.75,.07,1.12,.13l7.41,22.4c-.26,.27-.53,.53-.82,.77Z" fill="#6e1e27"/>
      <path d="M300.15,158.96l-8.08-24.41c.36-.03,.71-.04,1.07-.03l7.89,23.84c-.28,.22-.57,.42-.88,.61Z" fill="#6e1e27"/>
      <path d="M298.54,159.82l-8.28-25.01c.34-.07,.68-.14,1.02-.18l8.18,24.73c-.3,.17-.61,.32-.93,.46Z" fill="#6e1e27"/>
      <path d="M297.24,160.34c-.13,.04-.25,.08-.39,.12l-8.32-25.13c.12-.05,.25-.1,.38-.14,.2-.07,.39-.12,.6-.18l8.31,25.12c-.2,.08-.39,.15-.59,.21Z" fill="#6e1e27"/>
      <path d="M296.09,160.65c-.33,.09-.67,.15-1.01,.2l-8.21-24.8c.3-.16,.61-.31,.93-.44l8.29,25.05Z" fill="#6e1e27"/>
      <path d="M294.29,160.95c-.35,.03-.71,.05-1.06,.05l-7.94-23.98c.28-.2,.58-.4,.88-.59l8.11,24.51Z" fill="#6e1e27"/>
      <path d="M292.41,160.99c-.37-.01-.75-.05-1.11-.1l-7.48-22.61c.26-.26,.54-.51,.84-.74l7.76,23.45Z" fill="#6e1e27"/>
      <path d="M290.43,160.74c-.4-.08-.79-.18-1.18-.3l-6.81-20.58c.24-.33,.49-.64,.77-.94l7.22,21.82Z" fill="#6e1e27"/>
      <path d="M288.33,160.13c-.43-.17-.86-.36-1.27-.57l-5.85-17.69c.21-.41,.44-.82,.68-1.21l6.44,19.48Z" fill="#6e1e27"/>
      <path d="M286.05,158.99c-.49-.31-.97-.66-1.42-1.03l-4.42-13.36c.14-.57,.31-1.13,.52-1.67l5.32,16.06Z" fill="#6e1e27"/>
      <path d="M283.44,156.85c-.76-.8-1.43-1.71-1.97-2.71l-1.51-4.57c-.16-1.13-.17-2.26-.04-3.36l3.52,10.65Z" fill="#6e1e27"/>
    </g>
  </g>
  <circle cx="49.89" cy="282.1" r="40.57" fill="#f8aa10" filter="url(#uuid-61665160-e792-4262-bfeb-11c396fb442f)"/>
  <circle cx="62.45" cy="172.64" r="33.08" fill="#fff" filter="url(#uuid-d2430bdc-9caf-4e6a-aa03-5acae3e5b91d)"/>
  <g>
    <path d="M270.15,266.91c4.79-11.85,12.94-22.72,24.58-30.84,3.74-2.61,7.77-4.69,12.16-6.01,2.31-.69,4.66-1.13,7.07-1.17,4.41-.07,8.21,1.43,11.39,4.5,3.08,2.97,5.19,6.57,6.8,10.49,2.64,6.41,3.82,13.13,4.06,20.03,.42,11.78-1.96,23.01-7.1,33.58-5.22,10.73-12.62,19.71-22.44,26.59-3.31,2.32-6.83,4.25-10.65,5.62-2.51,.9-5.08,1.51-7.75,1.71-5.2,.38-9.58-1.3-13.17-5.08-2.27-2.39-4-5.12-5.38-8.09-3.15-6.79-4.52-13.98-4.83-21.41-.41-9.89,1.22-19.44,5.25-29.93Zm34.85,55.44c-.42,.22-.83,.44-1.24,.68-.03,.02,.06,.24,.14,.5,.53-.2,1.05-.36,1.3-.96,1.9-1,3.67-2.19,5.2-3.71,2.21-1.79,4.37-3.63,6.15-5.87,4.63-4.65,8.22-10.06,11.13-15.9,2.33-4.68,4.11-9.58,5.3-14.69,1.92-8.26,2.37-16.57,1.13-24.95-.46-3.12-1.04-6.24-2.28-9.18-.69-2.88-1.97-5.49-3.56-7.97-1.42-2.75-2.97-4.52-4.5-5.26,1.25,1.76,2.58,3.63,3.91,5.51,1.13,2.69,2.26,5.38,3.4,8.07,.51,2.51,1.17,4.99,1.51,7.52,2.46,18.24-1.68,34.91-12.02,50.09-1.29,1.9-2.72,3.71-4.09,5.56-2.11,2.14-4.23,4.28-6.34,6.42-1.71,1.38-3.42,2.76-5.13,4.14Zm-3.71-7c-.46-.55,.06-1.02,.12-1.52,.2-.27,.39-.56,.61-.82,5.61-6.77,9.99-14.27,13.34-22.39,1.6-3.88,2.99-7.83,4.14-11.87,1.74-6.11,2.98-12.29,3.41-18.63,.06-.84,.05-1.71-.09-2.54-.83-4.83-2.23-9.5-4.38-13.91-1.28-2.62-2.77-5.11-5.06-7.28-1.23,.43-2.54,.81-3.8,1.33-7.72,3.17-14.36,7.9-19.98,14.05-4.96,5.42-8.74,11.57-11.61,18.32-2.87,6.75-4.68,13.75-5.24,21.06-.28,3.67-.08,7.34,.11,11.01l-.91,.75c-.15-.93-.34-1.85-.43-2.78-1.46-15.03,2.1-28.93,9.75-41.8,6.29-10.58,15.04-18.57,26.22-23.82,.45-.21,.86-.49,1.42-.81-.38-.22-.58-.4-.8-.44-1.83-.31-3.55,0-5.24,.79-5.82,2.71-10.87,6.5-15.39,11-8.31,8.25-14.05,18.06-17.51,29.23-.28,.9-.41,1.84-.61,2.76-.22,.64-.52,1.26-.66,1.92-1.45,6.87-2.03,13.79-1.37,20.8,.12,1.26,.38,2.5,.58,3.75,.2,1.26,.34,2.54,.61,3.79,1.01,4.72,2.56,9.24,5.11,13.38,1.5,2.42,3.31,4.57,5.63,6.26,2.39,1.74,4.93,2.23,7.77,1.29,2.22-.74,4.23-1.85,6.15-3.15,2.99-2.03,5.69-4.4,8.19-6.99,6.77-7.01,12.2-14.95,16.54-23.68,2.81-5.66,4.82-11.52,5.58-17.8,.08-.4,.21-.81,.22-1.21,0-.37,.31-.83-.29-1.14-.64,1.47-1.26,2.92-1.28,4.55-.4,1.12-.81,2.25-1.21,3.37-2.53,7.09-5.56,13.94-9.61,20.31-2.93,4.61-6.14,9.01-10.02,12.88Z" fill="#e1edd0"/>
    <path d="M323.47,276.58c-.76,6.28-2.77,12.14-5.58,17.8-4.34,8.73-9.77,16.67-16.54,23.68-2.5,2.59-5.2,4.96-8.19,6.99-1.92,1.3-3.94,2.41-6.15,3.15-2.83,.94-5.38,.45-7.77-1.29-2.33-1.69-4.13-3.83-5.63-6.26-2.55-4.13-4.11-8.65-5.11-13.38-.27-1.25-.41-2.52-.61-3.79,.22-.1,.43-.21,.65-.3q.83-.36,.57-1.42c-.17-1.38-.34-2.75-.52-4.13,0-1.1,.02-2.2,.01-3.31-.01-5.45,.61-10.84,1.79-16.16,.45-.88,.35-1.82,.12-2.83l-.72,1.86c-.16-.05-.31-.11-.45-.18,.2-.92,.33-1.86,.61-2.76,3.46-11.16,9.2-20.98,17.51-29.23,4.53-4.49,9.58-8.29,15.39-11,1.69-.79,3.41-1.1,5.24-.79,.22,.04,.42,.22,.8,.44-.56,.32-.98,.6-1.42,.81-11.18,5.25-19.93,13.25-26.22,23.82-7.65,12.87-11.21,26.77-9.75,41.8,.09,.93,.29,1.85,.43,2.78-.03,.17-.1,.34-.07,.5,.87,5.5,2.28,10.85,4.73,15.88,.84,2.44,1.57,3.72,3.07,5.13-1-2.15-1.86-3.98-2.71-5.81-1.86-5.19-3.28-10.49-3.91-15.98-.02-.16-.13-.31-.2-.46-.19-3.67-.39-7.33-.11-11.01,.56-7.32,2.37-14.31,5.24-21.06,2.87-6.75,6.66-12.9,11.61-18.32,5.63-6.15,12.26-10.88,19.98-14.05,1.25-.51,2.56-.9,3.8-1.33,2.29,2.16,3.78,4.66,5.06,7.28,2.16,4.41,3.55,9.08,4.38,13.91,.14,.83,.15,1.7,.09,2.54-.43,6.34-1.67,12.52-3.41,18.63-1.15,4.04-2.54,7.99-4.14,11.87-3.35,8.12-7.73,15.62-13.34,22.39-.22,.26-.4,.55-.61,.82-.21,.15-.46,.26-.62,.44-2.26,2.68-4.84,5.03-7.43,7.37-2.05,1.48-4.11,2.96-6.42,4.62,2.25-.54,4.2-1.71,6.72-3.91,2.76-2.09,5.43-4.3,7.63-7,3.88-3.88,7.08-8.28,10.02-12.88,4.05-6.37,7.08-13.22,9.61-20.31,.4-1.12,.81-2.25,1.21-3.37,.21-.43,.38-.89,.63-1.3,.2-.33,.48-.6,.72-.9Zm-49.46,15.49c-.2,1.46-.31,2.91,.35,4.34,.15-1.69,.3-3.39,.45-5.08,.21-1.26,.43-2.51,.63-3.77,.19-1.17,.38-2.34,.57-3.51,.44-1.67,.89-3.34,1.33-5.02,.3-.79,.64-1.57,.88-2.38,1.09-3.75,2.56-7.35,4.27-10.86,.93-1.9,1.89-3.78,2.84-5.67,.18-.18,.41-.33,.54-.54,.59-1.01,1.16-2.03,1.85-3.27-1.37,.61-1.84,1.7-2.49,2.63-1,1.64-1.99,3.28-2.99,4.93-.28,.52-.57,1.05-.85,1.57-3.47,6.53-5.74,13.45-6.72,20.79-.22,1.94-.43,3.89-.65,5.83Zm37.05-31.35c-.66,1.39-1.39,2.76-1.96,4.19-3.81,9.55-7.63,19.09-11.33,28.67-1.42,3.67-2.54,7.45-3.79,11.19l-.9,2.33,.28,.11,.9-2.33c2.32-5.52,4.71-11.02,6.94-16.58,2.14-5.32,4.15-10.7,6.15-16.08,1.4-3.77,2.67-7.59,4-11.39l.91-2.34-.28-.11c-.3,.78-.6,1.56-.91,2.34Zm-.22-5.65c1.19-2.64,2.23-5.33,2.57-8.74-.51,1.13-.85,1.81-1.13,2.51-.23,.55-.39,1.13-.59,1.69-8.79,20.44-16.83,41.17-24.12,62.19l-1.46,3.76c1.94-2.25,2.99-4.94,3.89-7.69,7.47-17.71,14.42-35.62,20.85-53.73Z" fill="#f8aa10"/>
    <path d="M316.46,311.79c1.37-1.85,2.79-3.66,4.09-5.56,10.33-15.17,14.48-31.85,12.02-50.09-.34-2.53-1-5.01-1.51-7.52l.76-.35c1.25,2.94,1.82,6.05,2.28,9.18,1.23,8.38,.79,16.7-1.13,24.95-1.19,5.11-2.97,10.02-5.3,14.69-2.91,5.84-6.49,11.25-11.13,15.9-.03-.4-.05-.81-.08-1.21Z" fill="#6e1e27"/>
    <path d="M269.34,277.03c.14,.07,.29,.14,.45,.18,.06,.39,.12,.78,.18,1.17-.25,.72-.62,1.43-.74,2.17-.48,2.94-1.06,5.87-1.28,8.83-.22,2.95-.39,5.94,.3,8.88-.28,1.15,.07,2.24,.31,3.34,.02,.09,.36,.11,.55,.16q.26,1.07-.57,1.42c-.22,.09-.43,.2-.65,.3-.2-1.25-.46-2.49-.58-3.75-.66-7-.08-13.93,1.37-20.8,.14-.66,.44-1.28,.66-1.92Z" fill="#d9e1e1"/>
    <path d="M272.84,302.16c.07,.15,.18,.3,.2,.46,.62,5.49,2.05,10.79,3.91,15.98-.12,.23-.24,.46-.35,.68-2.45-5.03-3.86-10.38-4.73-15.88-.02-.16,.05-.33,.07-.5l.91-.75Z" fill="#6e1e27"/>
    <path d="M301.29,315.35c-2.21,2.7-4.87,4.91-7.63,7-.1-.24-.2-.47-.3-.71,2.59-2.34,5.17-4.69,7.43-7.37,.16-.19,.41-.3,.62-.44-.06,.51-.58,.98-.12,1.52Z" fill="#6e1e27"/>
    <path d="M316.46,311.79c.03,.4,.05,.81,.08,1.21-1.78,2.24-3.95,4.07-6.15,5.87-.09-.22-.18-.44-.27-.65,2.11-2.14,4.23-4.28,6.34-6.42Z" fill="#d9e1e1"/>
    <path d="M331.82,248.28l-.76,.35c-1.13-2.69-2.26-5.38-3.4-8.07,.2-.08,.4-.16,.6-.24,1.59,2.48,2.87,5.09,3.56,7.97Z" fill="#d9e1e1"/>
    <path d="M328.26,240.31c-.2,.08-.4,.16-.6,.24-1.33-1.87-2.66-3.75-3.91-5.51,1.54,.74,3.08,2.52,4.5,5.26Z" fill="#6e1e27"/>
    <path d="M310.12,318.21c.09,.22,.18,.44,.27,.65-1.53,1.52-3.3,2.71-5.2,3.71l-.03-.18-.17-.04c1.71-1.38,3.42-2.76,5.13-4.14Z" fill="#abb2b2"/>
    <path d="M323.47,276.58c-.24,.3-.53,.57-.72,.9-.25,.41-.42,.86-.63,1.3,.02-1.63,.64-3.08,1.28-4.55,.59,.31,.29,.77,.29,1.14,0,.41-.14,.81-.22,1.21Z" fill="#6e1e27"/>
    <path d="M305.19,322.57c-.24,.6-.76,.75-1.3,.96-.07-.26-.17-.48-.14-.5,.4-.24,.82-.46,1.23-.68,0,0,.17,.04,.17,.04l.03,.18Z" fill="#7e7d7d"/>
    <path d="M287.56,312.72c7.29-21.02,15.33-41.75,24.12-62.19,.31,.89-.28,1.6-.46,2.39-.17,.71-.7,1.35-.38,2.15-6.43,18.11-13.38,36.02-20.85,53.73-.69,.32-.75,1.05-1.07,1.62-.43,.78-.5,1.78-1.36,2.31Z" fill="#6e1e27"/>
    <path d="M311.35,260.83c-1.33,3.8-2.6,7.62-4,11.39-1.99,5.38-4.01,10.75-6.15,16.08-2.23,5.56-4.62,11.06-6.94,16.58-.09-.04-.18-.08-.28-.11,1.26-3.73,2.38-7.52,3.79-11.19,3.7-9.59,7.53-19.13,11.33-28.67,.57-1.43,1.3-2.79,1.96-4.19,.09,.04,.19,.08,.29,.11Z" fill="#6e1e27"/>
    <path d="M274.66,286.24c.98-7.34,3.25-14.26,6.72-20.79,.28-.53,.57-1.05,.85-1.57,.41,.72-.05,1.32-.29,1.94-1.42,3.67-2.85,7.33-4.26,11.01-.27,.7-.69,1.4-.35,2.21-.44,1.67-.89,3.34-1.33,5.02-.19,.45-.33,.92-.57,1.33-.19,.32-.51,.57-.77,.86Z" fill="#6e1e27"/>
    <path d="M268.25,298.27c-.69-2.94-.52-5.93-.3-8.88,.22-2.96,.79-5.89,1.28-8.83,.12-.74,.49-1.45,.74-2.17,.12-.11,.27-.18,.43-.21-1.18,5.32-1.8,10.7-1.79,16.16,0,1.1,0,2.2-.01,3.31-.11,.21-.23,.42-.34,.63Z" fill="#6e1e27"/>
    <path d="M277.34,279.04c-.34-.81,.09-1.51,.35-2.21,1.41-3.67,2.84-7.34,4.26-11.01,.24-.62,.69-1.22,.29-1.94,1-1.64,1.99-3.28,2.99-4.93,.03,.39,.07,.78,.1,1.18-.95,1.89-1.91,3.78-2.84,5.67-1.72,3.5-3.19,7.1-4.27,10.86-.23,.81-.58,1.59-.88,2.38Z" fill="#6e1e27"/>
    <path d="M274.66,286.24c.26-.28,.58-.53,.77-.86,.24-.41,.39-.88,.57-1.33-.19,1.17-.37,2.34-.57,3.51-.21,1.26-.42,2.51-.63,3.77-.27,.24-.53,.49-.8,.73,.22-1.94,.43-3.89,.65-5.83Z" fill="#6e1e27"/>
    <path d="M293.36,321.64c.1,.24,.2,.47,.3,.71-2.52,2.2-4.47,3.37-6.72,3.91,2.32-1.67,4.37-3.15,6.42-4.62Z" fill="#6e1e27"/>
    <path d="M287.56,312.72c.87-.53,.93-1.53,1.36-2.31,.31-.57,.37-1.3,1.07-1.62-.9,2.75-1.95,5.43-3.89,7.69l1.46-3.76Z" fill="#968f8f"/>
    <path d="M310.84,255.07c-.32-.8,.22-1.44,.38-2.15,.19-.79,.77-1.5,.46-2.39,.19-.57,.36-1.14,.59-1.69,.28-.7,.62-1.38,1.13-2.51-.33,3.41-1.38,6.1-2.57,8.74Z" fill="#6e1e27"/>
    <path d="M276.59,319.28c.12-.23,.24-.46,.35-.68,.85,1.83,1.71,3.66,2.71,5.81-1.49-1.41-2.22-2.69-3.07-5.13Z" fill="#6e1e27"/>
    <path d="M274.01,292.07c.27-.24,.53-.49,.8-.73-.15,1.69-.3,3.39-.45,5.08-.65-1.43-.55-2.89-.35-4.34Z" fill="#6e1e27"/>
    <path d="M285.33,260.13c-.03-.39-.07-.78-.1-1.18,.65-.93,1.12-2.02,2.49-2.63-.7,1.23-1.26,2.26-1.85,3.27-.12,.21-.35,.36-.54,.54Z" fill="#6e1e27"/>
    <path d="M268.25,298.27c.11-.21,.23-.42,.34-.63,.17,1.38,.34,2.75,.52,4.13-.19-.05-.53-.07-.55-.16-.24-1.1-.59-2.19-.31-3.34Z" fill="#abb2b2"/>
    <path d="M270.39,278.18c-.16,.02-.3,.09-.43,.21-.06-.39-.12-.78-.18-1.17,.24-.62,.48-1.24,.72-1.86,.23,1.01,.33,1.95-.12,2.83Z" fill="#c5caca"/>
    <path d="M311.35,260.83c-.1-.03-.19-.07-.29-.11,.3-.78,.6-1.56,.91-2.34l.28,.11-.91,2.34Z" fill="#6e1e27"/>
    <path d="M293.98,304.77c.1,.03,.19,.07,.28,.11-.3,.78-.6,1.55-.9,2.33l-.28-.11,.9-2.33Z" fill="#968f8f"/>
  </g>
  <path d="M167.5,225.82c-2.61,0-4.73,2.12-4.73,4.73,0,1.05,.34,2.01,.92,2.8h0l3.82,6.61,3.82-6.61c.58-.78,.92-1.75,.92-2.8,0-2.61-2.12-4.73-4.73-4.73Zm0,6.9c-1.15,0-2.08-.93-2.08-2.08s.93-2.08,2.08-2.08,2.08,.93,2.08,2.08-.93,2.08-2.08,2.08Z" fill="#fff"/>
  <g>
    <path d="M271.08,280.4c.04-.83-.18-1.53-.64-2.15-2-2.75-3.51-5.77-4.88-8.87-.2-.44-.38-.89-.61-1.42-.12,.17-.24,.29-.3,.42-.34,.7-.68,1.39-.99,2.1-.57,1.32-1.65,2.11-2.86,2.73-.64,.33-1.33,.32-2,.05-.19-.07-.36-.17-.54-.26-.51-.26-1.01-.54-1.53-.78-2.3-1.06-4.21-2.66-6-4.4-.72-.7-1.39-1.45-2.08-2.17-.3-.31-.6-.62-.92-.9-1.4-1.21-1.94-2.72-1.65-4.54,.05-.31,.03-.63,.01-.94-.03-.64,.15-1.18,.62-1.63,.19-.18,.34-.38,.51-.57,.36-.4,.79-.65,1.34-.68,.23-.01,.45-.06,.68-.1,1.09-.18,1.74,.16,2.21,1.17,.06,.13,.12,.26,.19,.38,.03,.05,.08,.07,.18,.15,.04-.11,.09-.2,.1-.3,.02-.49,.04-.98,.25-1.43,.13-.28,.28-.57,.49-.8,.74-.79,1.97-.56,2.41,.44,.2,.46,.22,.96,.14,1.44-.12,.71-.12,1.42-.11,2.14,0,.36-.09,.74-.18,1.09-.09,.36-.22,.71-.34,1.07,.65,1,1.53,1.51,2.74,1.51,.06-.13,.12-.23,.14-.33,.24-1.02,.7-1.94,1.28-2.8,.1-.14,.19-.29,.29-.43,.25-.36,.37-.74,.4-1.19,.07-1.14,.21-2.28,.45-3.41,.33-1.53,1.11-2.69,2.62-3.26,.1-.04,.19-.12,.28-.17-.03-.18-.17-.13-.25-.14-.72-.08-1.12-.53-1.36-1.15-.09-.24-.14-.5-.21-.74-.05-.16-.08-.35-.19-.47-.44-.52-.44-1.09-.21-1.73-.32-.37-.58-.77-.57-1.32-.18-.09-.36-.16-.53-.26-.81-.46-1.07-1.28-.69-2.13,.19-.42,.37-.84,.59-1.24,.53-1.02,.69-2.11,.7-3.24,0-.6-.03-1.2,.15-1.79,.04-.12,.01-.29-.05-.4-.15-.26-.12-.51-.01-.74,.2-.41,.38-.84,.65-1.21,.98-1.36,2.31-2.21,3.96-2.51,1.8-.32,3.59-.26,5.37,.18,.65,.16,1.26,.42,1.75,.88,.69,.64,1.37,1.31,2.03,1.98,.33,.34,.49,.78,.59,1.23,.26,1.09,.42,2.2,.42,3.32,0,1.13-.27,2.22-.7,3.26-.33,.78-.27,1.49,.07,2.23,.13,.28,.24,.58,.38,.92,.27,.04,.55,.11,.83,.13,1.14,.06,2.2,.4,3.18,.96,.95,.54,1.93,1.01,2.93,1.44,.79,.34,1.52,.78,2.19,1.34,1.36,1.15,2.65,2.37,3.96,3.57,2.06,1.89,3.87,3.99,5.67,6.12,.33,.39,.64,.81,.96,1.21,.58,.72,.62,1.51,.33,2.35-.17,.5-.47,.92-.83,1.29-1.19,1.2-2.4,2.39-3.74,3.42-1.03,.79-2.13,1.44-3.35,1.94l-.58,1.48c.16,.28,.32,.58,.49,.87,.7,1.25,1.39,2.5,2.1,3.75,.24,.42,.49,.85,.79,1.22,.84,1.01,1.43,2.14,1.86,3.37,.38,1.11,.75,2.22,1.14,3.33,.23,.65,.46,1.3,.72,1.93,.18,.42,.38,.85,.65,1.21,1.09,1.46,1.67,3.12,2.1,4.86,.22,.89,.45,1.78,.69,2.66,.06,.21,.17,.42,.27,.68,.27-.1,.51-.18,.74-.29,1.6-.75,3.29-1.16,5.06-1.23,1.26-.05,2.52-.06,3.78-.08,.66-.01,1.32-.02,1.98-.01,1.21,.01,2.39-.28,3.58-.47,.88-.14,1.76-.25,2.62-.45,1.74-.4,3.29-1.17,4.49-2.54,.26-.3,.56-.58,.87-.83,.9-.74,1.91-1,3.05-.69,.24,.07,.51,.07,.76,.08,.68,.04,1.22,.33,1.54,.94,.16,.32,.37,.55,.65,.77,.51,.39,.76,.95,.67,1.59-.05,.39,.1,.66,.31,.94,1.07,1.43,2.46,2.47,4,3.33,.17,.1,.38,.13,.57,.19,1.03,.3,1.55,.94,1.55,1.99,0,.6,.21,1.04,.72,1.36,.51,.31,.86,.75,1,1.34,.04,.17,.1,.36,.05,.51-.19,.62-.04,1.25-.07,1.88-.05,1.04-.69,1.91-1.6,2.24-.75,.27-1.42,.11-2.02-.35-.29-.22-.55-.52-.73-.83-.86-1.47-2.13-2.47-3.66-3.14-1.05-.46-2.13-.83-3.21-1.22-.23-.08-.51-.14-.75-.11-.79,.12-1.57,.29-2.36,.43-1.01,.18-2.03,.39-3.05,.5-1.43,.16-2.82,.46-4.19,.91-2.56,.85-5.19,1.42-7.81,2.05-.36,.09-.73,.16-1.08,.28-1.96,.64-3.91,1.3-5.77,2.21-.69,.34-1.41,.63-2.15,.87-1.22,.4-2.46,.51-3.73,.18-.53-.14-1.02-.37-1.47-.69-.92-.64-1.74-1.41-2.46-2.27-.69-.81-1.35-1.64-2.01-2.47-.8-1.01-1.68-1.95-2.63-2.84-1.13-1.06-2.25-2.13-3.34-3.23-.52-.52-.97-1.12-1.48-1.71-.74,.23-1.49,.42-2.16,.82-1.57,.94-3.15,1.88-4.7,2.85-.85,.53-1.68,1.1-2.45,1.74-1.57,1.31-1.6,1.64-1.35,3.49,.25,1.88,.3,3.77,.15,5.66-.12,1.51-.19,3.03-.26,4.55-.07,1.45,.19,2.85,.51,4.25,.53,2.35,.99,4.71,1.72,7.01,.21,.66,.45,1.3,.66,1.95,.17,.55,.35,1.09,.46,1.65,.22,1.07,.03,2.06-.69,2.9-.18,.21-.25,.44-.34,.68-.38,1-1.06,1.46-2.11,1.39-.37-.02-.73-.03-1.1,.08-.45,.14-.93,.12-1.34-.13-.47-.29-.94-.21-1.41-.12-.7,.14-1.4,.32-2.1,.47-.42,.09-.85,.15-1.27,.22-.51,.08-1,.15-1.46,.44-.24,.16-.6,.19-.91,.18-.37,0-.74-.04-1.1,.05-.38,.09-.75,.05-1.1-.1-.28-.12-.54-.14-.83-.11-.49,.05-.97,.05-1.44-.16-.2-.09-.44-.07-.67-.07-.53,0-1.02-.12-1.45-.45-.2-.16-.43-.27-.65-.41-1.3-.83-1.33-2.74,.08-3.58,.45-.27,.95-.39,1.46-.48,1.27-.23,2.5-.6,3.71-1.05,.99-.37,1.79-1.02,2.57-1.69,.11-.09,.21-.21,.27-.33,.54-1.08,1.03-2.15,1-3.42-.05-2.66-.49-5.24-1.35-7.76-.58-1.71-1.16-3.42-1.54-5.19-.26-1.21-.45-2.43-.42-3.67,.02-.7-.1-1.37-.29-2.03-.29-1.05-.6-2.09-.84-3.16-.3-1.36-.33-2.73,.1-4.08,.36-1.13,.88-2.18,1.73-3.04,.5-.51,.91-1.1,1.27-1.73,1.3-2.31,2.89-4.41,4.71-6.34,.26-.27,.51-.54,.76-.82,1.38-1.55,2.92-2.91,4.65-4.06,.4-.27,.78-.57,1.16-.84Zm17.88,8.38c.22-.12,.42-.26,.55-.66-.33,.19-.55,.27-.71,.48l-.72,.51c-.05,.02-.11,.03-.16,.06-2.44,1.5-5.02,2.71-7.69,3.71-2.18,.82-4.16,1.99-6.08,3.28l-2.18,1.4c-.39,.18-.39,.19-.59,.5,.35-.14,.66-.24,.91-.47l2.23-1.22c.61-.32,1.23-.62,1.83-.95,1.31-.72,2.66-1.33,4.07-1.83,.97-.35,1.92-.76,2.85-1.19,1.8-.84,3.52-1.8,5.03-3.1l.67-.52Zm-6.07-28.74c-.36-.37-.66-.81-1.14-1.04-1.07-.94-2.34-1.27-3.73-1.23-.59,.02-1.12,.19-1.62,.5-.55,.33-1,.76-1.39,1.27-.56,.74-.95,1.57-1.16,2.47-.37,1.54-.5,3.11-.39,4.54,.39,.56,.69,1,1.01,1.44,.07,.1,.17,.19,.26,.29,.46-.53,.41-1.03,.07-1.54-.24-.36-.45-.73-.67-1.1-.21-.35-.33-.73-.27-1.15,.11-.76,.7-1.09,1.38-.72,.27,.14,.51,.37,.71,.6,.66,.76,1.31,1.52,1.82,2.39,.08,.13,.21,.23,.45,.49-.4-2.1-.78-4.01-.76-6.16,.38,1.22,.68,2.26,1.04,3.27,.37,1.04,.77,2.08,1.38,3.07,1-.62,1.88-1.3,2.66-2.1,.38-.38,.64-.87,.79-1.39-.74-1.3-1.56-2.49-2.58-3.56-.67-.71-1.42-1.33-2.33-1.73-.12-.05-.28-.08-.29-.28,.75-.09,1.48,0,2.18,.27,.43,.16,.83,.37,1.25,.56l1.03,.86c.2,.31,.46,.54,.79,.72-.08-.31-.22-.56-.49-.73Zm-9.23,19.48l3.06-.2c.46,0,.92,0,1.38-.01,1-.02,2,0,3,.16,1.16,.18,2.33,.32,3.49,.44,.9,.09,1.8-.01,2.7-.14-.02-.22-.15-.22-.26-.24-1.69-.33-3.37-.66-5.06-.98-1.02-.2-2.04-.32-3.08-.21-.94,.1-1.88,.19-2.81,.34-.76,.12-1.51,.32-2.26,.48l-.7,.17c-.22,.02-.42,.09-.57,.33,.41,.04,.77,.03,1.11-.14Zm12.41,20.44c.11,.09,.21,.18,.33,.26,.02,.01,.08-.03,.15-.07l-.32-.39c-.3-.38-.58-.78-.9-1.13-1.16-1.27-2.47-2.37-3.78-3.47-.13-.2-.28-.38-.61-.45,.13,.34,.23,.59,.46,.76,.37,.47,.72,.96,1.13,1.4,1.07,1.15,2.28,2.16,3.55,3.09Zm-8.99-44.22s.02,.06,.04,.07c.07,.03,.14,.04,.21,.06-.01-.06,0-.14-.04-.19-.04-.06-.12-.1-.18-.14-.12-.16-.24-.32-.37-.47-.36-.44-.73-.88-1.08-1.33-.48-.61-.84-1.29-1.12-2.02-.37-1-.36-2.01,.07-3.03-.1,.03-.16,.04-.19,.07-.59,.66-.8,1.44-.72,2.3,.07,.66,.26,1.29,.59,1.87,.68,1.19,1.58,2.16,2.79,2.82Zm-4.45-7.88c.13-.08,.28-.15,.23-.42l-.27,.19c-.11,.03-.24,.03-.31,.1-.48,.49-.92,1.01-1.28,1.6-.41,.68-.88,1.34-1.37,1.97-.3,.38-.66,.73-1.06,.99-.88,.57-1.83,.79-2.84,.34-.16-.17-.28-.39-.55-.48-.03,.35,.11,.54,.35,.68,.39,.43,.91,.56,1.46,.57,.91,0,1.75-.25,2.44-.85,.34-.3,.68-.61,.94-.98,.44-.62,.83-1.29,1.23-1.94,.35-.58,.69-1.17,1.03-1.76Zm-1.33,29.4c-.39-1.24-1.01-2.36-1.73-3.43-.56-.83-1.09-1.68-1.6-2.54-.41-.69-.77-1.41-1.15-2.11-.18-.34-.38-.67-.61-1.08,.03,.24,.02,.39,.06,.53,.53,1.82,1.25,3.56,2.34,5.13,.82,1.17,1.63,2.35,2.44,3.53,.06,.24,.16,.45,.47,.61-.05-.26-.07-.46-.21-.62Zm-7.67,12.92c.68,1.38,1.6,2.57,2.77,3.56,1.29,1.08,2.62,2.12,3.93,3.18,.03,.02,.08,.01,.19,.02-.09-.18-.16-.33-.24-.47-.56-.94-1.29-1.75-2.08-2.49-1.44-1.34-2.89-2.67-4.34-4.01-.09-.2-.23-.34-.48-.4,.01,.27,.07,.46,.26,.61Zm-8.26-21.87c-.8-.5-.84-.51-1.26-.42,.32,.23,.6,.45,.95,.56,.75,.47,1.49,.95,2.24,1.4,.27,.16,.55,.29,.84,.42,.68,.3,1.32,.21,1.94-.21,.61-.42,1.03-.97,1.34-1.63,.6-1.3,.98-2.67,1.23-4.08,.22-.59,.25-.8,.18-1.25-.05,.03-.12,.05-.14,.09-.09,.21-.16,.42-.24,.63-.22,.35-.28,.8-.66,1.13l.26-2.15c-.51-.22-1.01-.42-1.49-.65-.49-.23-.95-.5-1.45-.77-.39,.62-.62,1.25-.72,1.92,.74,1.36,1.2,2.77,1.03,4.33-.12-.13-.19-.27-.24-.42-.28-.82-.71-1.56-1.25-2.24-.39-.49-.83-.86-1.5-.85-.14,0-.27-.05-.41-.08-.54,2.26-.42,1.75-1.26,3.2l1.33,1.06-.31,.15-.4-.15Zm3.49,62.11c-.27-.21-.54-.42-.82-.63-.3-.23-.59-.24-.96-.1-1.13,.42-2.29,.73-3.48,.93-.25,.04-.51,.11-.74,.21-.2,.09-.4,.23-.55,.4-.45,.5-.28,1.22,.35,1.46,.21,.08,.44,.13,.66,.17,1.05,.18,2.11,.16,3.17,.07,.43-.04,.86-.06,1.28-.09,1.07,.1,2.08-.22,3.16-.4-.1-.04-.15-.08-.2-.08-.91,.07-1.81,.15-2.72,.23-.08,0-.16,.07-.24,.1l-2.05-.03c.18-.19,.42-.14,.64-.16,.2-.02,.4,.01,.56-.15,1.32-.23,2.65-.45,3.97-.7,2.36-.46,4.7-1,6.99-1.72,.21-.07,.41-.17,.62-.25,.05-.96-.3-1.71-.88-2.29-.53-.04-.99-.04-1.43-.13-.99-.2-1.8-.71-2.47-1.46-.19-.21-.37-.44-.58-.63-.34-.29-.73-.44-1.2-.23-.2,.47-.37,.95-.6,1.41-.24,.48-.52,.93-.78,1.4,.17,.24,.35,.46,.51,.7,.15,.23,.34,.45,.33,.87-.23-.22-.38-.37-.55-.51-.2-.17-.4-.32-.61-.47-.11-.08-.23-.19-.36-.03q.62,1.03,.58,1.49l-.25-.23c-.43-.6-.43-.6-1.07-.79l.54,.8c0,.05,.01,.1,.02,.16l-.21,.21c-.27-.24-.55-.49-.82-.73-.1-.08-.2-.08-.28,.06l.63,.97-.17,.18Zm72.42-30.61l-.18,.35c-.63-.87-1.43-1.56-2.31-2.15-1.17-.79-2.21-1.73-3.19-2.74-.48-.49-.94-1-1.44-1.48-.71-.67-1.42-1.33-2.17-1.96-.48-.4-1.01-.74-1.59-.97-.55,.51-1.08,1-1.6,1.49-.09,.09-.16,.19-.25,.31,.28,.15,.51,.27,.73,.39,1.38,.78,2.46,1.86,3.24,3.24,.37,.66,.42,.83-.13,1.35-.15,.14-.3,.32-.23,.62,.99-.2,1.96-.21,2.94-.23,.82-.02,1.53,.23,2.14,.74,.44,.36,.88,.75,1.24,1.18,.6,.73,1.15,1.5,1.71,2.26,.49,.67,.95,1.36,1.44,2.03,.2,.27,.45,.52,.71,.74,.41,.33,.78,.28,1.12-.12,.21-.24,.35-.52,.38-.85,.03-.4,.02-.8-.16-1.18-.12-.26-.23-.52-.34-.79-.02-.04,.02-.1,.03-.15l.52,.27c0-.17,.01-.25,0-.33-.08-.4-.35-.65-.69-.82-.2-.11-.4-.2-.53-.41-.34-.59-.71-1.18-1.05-1.77-.02-.04,.01-.1,.02-.17l.51,.21c-.02-.19,0-.34-.06-.45-.13-.27-.35-.44-.65-.53-.27-.08-.56-.14-.81-.28-1.66-.89-3.14-2.01-4.29-3.51-.72-.93-1.39-1.89-2.08-2.84-.02-.03,.01-.1,.02-.15l.37,.03c-.11-.63-.12-.66-.31-.82-.22-.19-.47-.21-.73-.16-.27,.05-.49,0-.74-.12-.25-.12-.53-.16-.79-.06-.04,.19,.09,.24,.17,.3,.78,.6,1.46,1.29,2.1,2.02,.68,.78,1.33,1.57,1.99,2.37,.86,1.04,1.79,2.01,2.85,2.85,.31,.25,.61,.52,.9,.8,.46,.44,.88,.9,1.16,1.48Zm-63.13-51.28l-2.04,1.86,.29,1.6c1.14,.08,2.16-.08,2.93-.95,.32-.36,.61-.76,.87-1.17,.29-.46,.54-.94,.79-1.43,.25-.49,.57-.93,.95-1.32,.14-.14,.27-.28,.44-.46l-.52-.14,.3-.47c-.35-.11-.65-.2-.94-.31-.12-.04-.22-.13-.36-.22,.36-.2,.75-.15,1.08-.4-.36-.33-.68-.61-.98-.92-.3-.32-.57-.67-.88-1.03-.3,.58-.62,1.05-1.18,1.29-.1,.04-.23,.03-.46,.06,.55-.54,.85-1.07,.97-1.72,.07-.38,.02-.74-.13-1.09-.15-.36-.43-.52-.83-.46-.22,.03-.43,.1-.74,.17,.16-.2,.25-.36,.38-.45,.16-.11,.36-.15,.53-.25,.13-.07,.36,.13,.4-.16-.17-.2-.4-.22-.62-.21-.65,.05-1.15,.35-1.45,.93-.13,.25-.2,.54-.34,.79-.09,.16-.24,.33-.4,.41-.2,.11-.44,.11-.68-.12,0-.15-.01-.35-.03-.55-.03-.34-.07-.68-.11-1.02-.08-.56-.32-1.03-.83-1.34-.2-.12-.37-.27-.4-.57,.05-.13,.11-.29,.18-.44,.08-.18,.2-.35,.27-.54,.22-.53,.06-.8-.51-.91-.08-.02-.17-.02-.26-.03-.86-.03-1.71,.02-2.55,.22-.43,.93-.27,1.87-.27,2.79,1.45,.22,1.65,.31,2.04,.91l-.99,.08c.19,.3,.6,.33,.62,.71q-1.25,.34-2.01,.13c-.36,.77-.73,1.54-1.08,2.31-.17,.38,.07,.74,.51,.76,.34,.02,.68,.04,1.05,.06-.05,.36-.08,.66-.13,.97-.08,.47,0,.62,.47,.72,.36,.08,.74,.11,1.1,.19,.13,.03,.24,.11,.39,.18-.09,.11-.13,.2-.19,.23-.13,.05-.28,.05-.41,.1-.27,.1-.55,.19-.78,.34-.35,.23-.33,.6,.03,.83,.14,.09,.29,.14,.49,.24-.4,.4-.22,.78-.08,1.16,.14,.4,.29,.51,.71,.47,.66-.06,1.31-.16,1.91-.46,1.08-.54,2.15-1.06,3.23-1.59l.21,.21Zm18.41,7.36c-.1-.2-.26-.34-.5-.38-.03,.29,.1,.45,.28,.6,.05,.1,.12,.2,.15,.31,.04,.11,.21,.22,.02,.37l-2.05-1.02c-1.05,.88-1.47,2.07-1.98,3.21,.42,.42,.81,.8,1.17,1.2,.36,.4,.7,.83,1.05,1.25,.43,0,.84-.02,1.23,0,.43,.03,.85,.1,1.27,.18,.74,.13,.74,.14,1.03,.4-.66,.1-1.33,.19-2,.29-.45,.06-.79,.29-1.1,.61-.5,.52-.92,1.1-1.24,1.74-.43,.87-1.06,1.56-1.82,2.14-.48,.37-.95,.73-1.45,1.08-.26,.18-.53,.34-.82,.47-.78,.37-1.52,.24-2.12-.38-.27-.29-.48-.64-.73-.95-.57-.75-1.15-1.5-1.73-2.25-.13-.17-.3-.33-.55-.27-.11,.29-.05,.53,.09,.76,.15,.25,.31,.48,.45,.73,.19,.35,.38,.71,.54,1.07,.12,.27,.14,.57,.03,.84-.15,.37-.32,.74-.53,1.08-.29,.45-.72,.48-1.06,.06-.23-.28-.4-.63-.61-.93-.07-.1-.17-.17-.39-.39,.09,.44,.15,.68,.2,.93,.09,.45,.21,.89,.26,1.35,.14,1.35,.9,2.25,2.03,2.9,.33,.19,.69,.27,1.08,.14,.54-.18,1.1-.32,1.62-.54,.91-.37,1.71-.92,2.53-1.45,.92-.59,1.84-1.17,2.77-1.72,1.41-.82,2.84-1.6,4.25-2.44,.71-.42,1.37-.93,2.05-1.41,.11-.08,.19-.22,.35-.42-.4,.1-.67,.17-.95,.25-.29,.08-.58,.16-1.01,.06,1.19-.74,2.23-1.49,2.95-2.55-.59-1.98-1.65-3.83-3.1-5.33-.54-.56-1.13-1.06-1.69-1.58Zm8.24,43.21c.08-.44,.38-.82,.4-1.37-.65,.37-1.23,.72-1.83,1.04-.58,.31-1.17,.61-1.76,.9-.61,.29-1.24,.56-1.9,.86,.1,.34,.19,.64,.29,.93,.1,.3,.23,.6,.26,1.02l-1.65-1.62-1.38,.38c.04,.11,.05,.2,.09,.26,.48,.61,.94,1.23,1.46,1.81,.46,.51,.94,1.01,1.47,1.44,1.44,1.15,3.07,1.59,4.91,1.31,1.12-.17,2.16-.54,3.19-.98,2.63-1.12,5.29-2.18,7.99-3.13,2.75-.97,5.53-1.86,8.41-2.42,.34-.07,.67-.12,1.07-.09l.24,1.03c.2-1.14,.09-2.23-.23-3.32-.29-.99-.83-1.81-1.58-2.51-.24-.23-.5-.34-.85-.25-.44,.1-.9,.15-1.36,.21-1.1,.17-2.19,.45-3.32,.43-.31,0-.63,0-.94,.02-.04,0-.08,.07-.11,.1,0,.26,.31,.39,.29,.72-.51-.23-.97-.44-1.44-.63-.24-.09-.49-.19-.74-.19-1.38-.04-2.75,.02-4.12,.2-1.46,.19-2.84,.65-4.15,1.35-.65,1.13-1.56,2.03-2.51,2.9-.17-.07-.17-.24-.2-.38Zm-27.53-3.41c-.21-.19-.43-.37-.64-.57-.61-.6-1.26-1.18-1.82-1.82-.72-.82-1.36-1.7-2.05-2.54-.11-.14-.17-.37-.47-.35-.43,.68-.91,1.37-1.32,2.09-.54,.95-1.16,1.84-1.9,2.65-.84,.91-1.27,2.03-1.48,3.24-.18,.98-.07,1.95,.15,2.9,.24,1.03,.54,2.05,.82,3.07,.16,.58,.31,1.17,.29,1.78-.06,1.91,.3,3.76,.85,5.58,.6,2,1.23,3.99,1.85,5.99,0,.03,.03,.05,.05,.07,2.14,.92,4.47,.85,5.89-.25l-1.73,.32c-.05-1.21,.06-2.38-.05-3.75-.37,.79-.51,1.46-.97,2.1,0-.35-.03-.57,0-.78,.18-1.01,.33-2.04,.59-3.03,.26-.99,.27-1.98,.16-2.98-.23-2.22-.44-4.45-.66-6.67-.02-.25-.08-.49-.12-.78-.54,.28-.72,.86-1.28,1.16,.06-.3,.08-.49,.14-.68,.27-.88,.63-1.73,1.1-2.51,.78-1.3,1.46-2.67,2.39-3.87,.07-.09,.11-.19,.21-.35Zm-18.98-35.77c.45-.21,.54-.64,.6-.95,.26-.14,.48-.19,.6-.32,.15-.18,.3-.33,.53-.4,.1-.03,.2-.11,.28-.19,.15-.13,.14-.39,0-.54-.22-.24-.5-.25-.79-.22-.28,.04-.56,.12-.84,.12-.75,0-.83,.8-1.34,1.09-.24,.13-.26,.45-.21,.71,.09,.46,0,.91-.07,1.36-.16,1.14,.12,2.17,.93,3.01,.42,.43,.88,.82,1.33,1.24,.97-.1,1.93-.21,2.91-.86-.69,.04-1.14,.46-1.82,.32,1.17-.65,1.95-1.56,2.74-2.47,.66-.75,.92-1.64,.9-2.61,0-.58,0-1.14,.09-1.71,.06-.33,.04-.69,0-1.03-.02-.2-.15-.38-.37-.42-.22-.04-.41,.06-.5,.25-.13,.28-.25,.58-.31,.88-.07,.42-.07,.86-.11,1.28-.03,.33-.12,.68-.46,.76-.4,.1-.54,.4-.73,.67-.36,.5-.71,1.02-1.15,1.45l-.22-.22c-.18,.19-.34,.38-.53,.55-.34,.32-.73,.56-1.19,.66-.51,.1-.84-.27-.69-.77,.02-.08,.05-.17,.09-.24,.3-.42,.36-.89,.29-1.42Zm2.42,5.51l2.61,2c1.36-.84,1.87-2.14,1.83-3.74-.17-.13-.32-.26-.49-.37-.16-.1-.25-.32-.54-.3-.65,1.34-1.86,1.99-3.41,2.41Zm34.09,6.38c-1.34,.31-2.79,.82-3.32,1.15l.07,1.1-1.16-.78-1.99,.63c.04,.07,.04,.11,.06,.12,1.31,.67,2.63,.73,3.93,0,.93-.52,1.69-1.26,2.41-2.21Zm40.91,20.46c-.01-.5-.09-.64-.53-.85-.11-.05-.26-.12-.35,.09,.27,.27,.49,.59,.88,.76Z" fill="#6e1e27"/>
    <path d="M295.01,299.49c.95-.87,1.87-1.77,2.51-2.9,1.31-.69,2.69-1.15,4.15-1.35,1.37-.18,2.74-.23,4.12-.2,.25,0,.51,.1,.74,.19,.47,.19,.93,.41,1.44,.63,.02-.33-.28-.46-.29-.72,.04-.03,.07-.1,.11-.1,.31-.01,.63-.03,.94-.02,1.13,.02,2.22-.26,3.32-.43,.45-.07,.91-.11,1.36-.21,.35-.08,.61,.03,.85,.25,.75,.7,1.29,1.52,1.58,2.51,.32,1.09,.42,2.18,.23,3.32l-.24-1.03c-.4-.03-.73,.03-1.07,.09-2.87,.56-5.65,1.45-8.41,2.42-2.7,.95-5.36,2.01-7.99,3.13-1.03,.44-2.08,.81-3.19,.98-1.84,.28-3.47-.15-4.91-1.31-.53-.43-1.02-.93-1.47-1.44-.52-.58-.98-1.2-1.46-1.81-.05-.06-.06-.15-.09-.26l1.38-.38,1.65,1.62c-.03-.42-.16-.72-.26-1.02-.1-.29-.18-.59-.29-.93,.65-.3,1.28-.56,1.9-.86,.59-.28,1.18-.58,1.76-.9,.59-.32,1.18-.67,1.83-1.04-.02,.55-.33,.93-.4,1.37-.19,.24-.32,.5-.31,.94l.51-.56Zm3.12,5.08c-.04-.07-.06-.15-.11-.2-.32-.31-.73-.43-1.16-.48-.98-.11-1.93,.03-2.86,.29-.1,.03-.18,.11-.31,.19,.73,.27,1.44,.27,2.14,.26,.37,0,.74-.05,1.11-.06,.39-.01,.78,0,1.19,0Z" fill="#f4b77a"/>
    <path d="M267.27,295.69c-.09,.16-.14,.26-.21,.35-.93,1.21-1.62,2.57-2.39,3.87-.47,.79-.83,1.63-1.1,2.51-.06,.19-.08,.38-.14,.68,.56-.31,.75-.88,1.28-1.16,.04,.29,.1,.53,.12,.78,.22,2.22,.43,4.45,.66,6.67,.1,1,.09,1.99-.16,2.98-.26,1-.41,2.02-.59,3.03-.04,.21,0,.43,0,.78,.46-.65,.6-1.32,.97-2.1,.11,1.37,0,2.54,.05,3.75l1.73-.32c-1.41,1.09-3.75,1.17-5.89,.25-.02-.02-.04-.05-.05-.07-.62-1.99-1.25-3.99-1.85-5.99-.55-1.82-.91-3.67-.85-5.58,.02-.61-.13-1.19-.29-1.78-.28-1.02-.58-2.04-.82-3.07-.22-.95-.33-1.92-.15-2.9,.22-1.21,.64-2.32,1.48-3.24,.74-.81,1.36-1.69,1.9-2.65,.41-.72,.88-1.4,1.32-2.09,.3-.03,.36,.21,.47,.35,.68,.85,1.33,1.72,2.05,2.54,.56,.64,1.21,1.22,1.82,1.82,.2,.2,.42,.38,.64,.57Zm-6.23,1.99l-.15,.02c.02,.19,0,.4,.07,.58,.3,.85,.12,1.63-.32,2.38-.38,.64-.76,1.28-1.14,1.92-.06,.11-.22,.21-.1,.37,1.03-.58,1.94-1.64,2.27-2.68,.21-.66,.19-1.3-.17-1.9-.14-.24-.31-.46-.47-.7Z" fill="#f4b77a"/>
    <path d="M286.57,255.89c.57,.53,1.16,1.03,1.69,1.58,1.45,1.5,2.51,3.35,3.1,5.33-.72,1.06-1.76,1.8-2.95,2.55,.43,.09,.72,.02,1.01-.06,.27-.07,.55-.14,.95-.25-.17,.2-.24,.34-.35,.42-.68,.48-1.34,.99-2.05,1.41-1.4,.84-2.84,1.61-4.25,2.44-.94,.55-1.86,1.13-2.77,1.72-.82,.52-1.63,1.08-2.53,1.45-.53,.21-1.08,.36-1.62,.54-.38,.13-.75,.05-1.08-.14-1.13-.65-1.89-1.54-2.03-2.9-.05-.45-.17-.9-.26-1.35-.05-.25-.11-.49-.2-.93,.22,.22,.33,.29,.39,.39,.21,.31,.37,.65,.61,.93,.35,.42,.78,.4,1.06-.06,.21-.34,.38-.71,.53-1.08,.11-.27,.09-.57-.03-.84-.17-.36-.35-.72-.54-1.07-.14-.25-.3-.49-.45-.73-.14-.23-.2-.47-.09-.76,.25-.06,.42,.1,.55,.27,.58,.74,1.15,1.5,1.73,2.25,.24,.32,.45,.67,.73,.95,.59,.62,1.34,.74,2.12,.38,.28-.13,.56-.29,.82-.47,.49-.35,.97-.71,1.45-1.08,.76-.58,1.39-1.27,1.82-2.14,.32-.64,.74-1.22,1.24-1.74,.31-.32,.66-.55,1.1-.61,.67-.09,1.34-.19,2-.29-.29-.26-.29-.27-1.03-.4-.42-.08-.85-.14-1.27-.18-.4-.03-.8,0-1.23,0-.35-.42-.69-.85-1.05-1.25-.36-.4-.76-.78-1.17-1.2,.51-1.14,.93-2.33,1.98-3.21l2.05,1.02c.19-.15,.02-.26-.02-.37-.03-.11-.1-.2-.15-.31l.22-.21Zm-6.56,14.99c1.52-.79,3.03-1.6,4.47-2.69-1.22,.21-3.04,1.19-4.8,2.54-.2,.08-.37,.19-.44,.53,.31-.14,.58-.15,.77-.38Z" fill="#f4b77a"/>
    <path d="M267.95,248.32c-1.08,.53-2.16,1.06-3.23,1.59-.6,.3-1.25,.4-1.91,.46-.41,.04-.56-.07-.71-.47-.13-.37-.32-.75,.08-1.16-.2-.1-.36-.15-.49-.24-.36-.23-.38-.6-.03-.83,.24-.15,.52-.24,.78-.34,.13-.05,.28-.05,.41-.1,.07-.03,.11-.12,.19-.23-.15-.07-.26-.15-.39-.18-.36-.07-.74-.11-1.1-.19-.47-.1-.55-.26-.47-.72,.05-.3,.08-.61,.13-.97-.37-.02-.71-.04-1.05-.06-.43-.02-.68-.38-.51-.76,.35-.78,.72-1.55,1.08-2.31q.76,.22,2.01-.13c-.02-.38-.43-.4-.62-.71l.99-.08c-.4-.61-.59-.69-2.04-.91,0-.92-.16-1.86,.27-2.79,.84-.19,1.69-.25,2.55-.22,.09,0,.17,.01,.26,.03,.58,.11,.73,.38,.51,.91-.07,.18-.19,.35-.27,.54-.07,.15-.13,.32-.18,.44,.02,.3,.2,.45,.4,.57,.51,.31,.75,.78,.83,1.34,.05,.34,.08,.68,.11,1.02,.02,.2,.02,.39,.03,.55,.24,.22,.48,.22,.68,.12,.16-.09,.31-.25,.4-.41,.14-.25,.2-.54,.34-.79,.31-.58,.81-.88,1.45-.93,.23-.02,.46,0,.62,.21-.04,.29-.27,.09-.4,.16-.17,.1-.38,.14-.53,.25-.13,.09-.22,.25-.38,.45,.31-.07,.52-.14,.74-.17,.4-.05,.68,.1,.83,.46,.14,.35,.2,.71,.13,1.09-.12,.64-.42,1.18-.97,1.72,.23-.03,.35-.01,.46-.06,.56-.24,.88-.71,1.18-1.29,.31,.36,.58,.71,.88,1.03,.29,.31,.62,.58,.98,.92-.32,.25-.72,.2-1.08,.4,.13,.08,.24,.17,.36,.22,.29,.11,.59,.19,.94,.31l-.3,.47,.52,.14c-.17,.18-.3,.32-.44,.46-.38,.39-.7,.83-.95,1.32-.25,.48-.5,.97-.79,1.43-.26,.41-.55,.81-.87,1.17-.77,.87-1.79,1.03-2.93,.95l-.29-1.6c.69-.63,1.37-1.24,2.04-1.86,.29-.18,.5-.42,.69-.89-.41,.27-.7,.41-.91,.68Zm.04-4.52c.08-.01,.16,0,.19-.03,.27-.26,.52-.54,.5-.95-.01-.27,.12-.42,.31-.56,.08-.06,.2-.13,.13-.27-.48-.1-.72-.09-.97,.07-.18,.11-.3,.28-.29,.49,.03,.42,.08,.83,.12,1.25Z" fill="#f4b77a"/>
    <path d="M331.3,299.81c-.29-.57-.71-1.04-1.16-1.48-.29-.28-.59-.55-.9-.8-1.06-.84-1.99-1.81-2.85-2.85-.66-.79-1.31-1.59-1.99-2.37-.64-.73-1.33-1.43-2.1-2.02-.08-.06-.21-.11-.17-.3,.26-.11,.54-.06,.79,.06,.24,.11,.47,.17,.74,.12,.25-.05,.51-.03,.73,.16,.19,.17,.21,.19,.31,.82-.14-.01-.25-.02-.37-.03,0,.05-.04,.12-.02,.15,.69,.95,1.37,1.91,2.08,2.84,1.16,1.5,2.63,2.62,4.29,3.51,.25,.13,.53,.19,.81,.28,.29,.09,.52,.26,.65,.53,.05,.11,.04,.26,.06,.45l-.51-.21c0,.07-.04,.14-.02,.17,.35,.59,.71,1.17,1.05,1.77,.13,.22,.32,.31,.53,.41,.34,.18,.61,.43,.69,.82,.02,.08,0,.16,0,.33l-.52-.27c-.01,.05-.05,.11-.03,.15,.11,.27,.21,.53,.34,.79,.18,.38,.19,.77,.16,1.18-.03,.33-.17,.6-.38,.85-.35,.4-.72,.45-1.12,.12-.26-.22-.51-.47-.71-.74-.5-.67-.95-1.36-1.44-2.03-.56-.76-1.11-1.53-1.71-2.26-.36-.44-.8-.82-1.24-1.18-.61-.51-1.33-.76-2.14-.74-.97,.02-1.94,.04-2.94,.23-.07-.29,.08-.47,.23-.62,.54-.52,.5-.69,.13-1.35-.78-1.38-1.86-2.46-3.24-3.24-.22-.13-.45-.24-.73-.39,.09-.11,.16-.22,.25-.31,.52-.49,1.04-.97,1.6-1.49,.58,.23,1.11,.56,1.59,.97,.74,.63,1.46,1.29,2.17,1.96,.5,.47,.96,.98,1.44,1.48,.98,1.01,2.01,1.95,3.19,2.74,.89,.59,1.69,1.28,2.31,2.15,.36,.73,.72,1.46,1.08,2.19,.15,.45,.28,.9,.59,1.28-.06-.5-.15-.99-.4-1.44-.26-.84-.55-1.67-1.09-2.38Z" fill="#eabe26"/>
    <path d="M281.56,259.2c-.42-.19-.82-.4-1.25-.56-.7-.27-1.43-.36-2.18-.27,0,.2,.17,.23,.29,.28,.9,.41,1.65,1.02,2.33,1.73,1.01,1.07,1.84,2.26,2.58,3.56-.15,.53-.42,1.01-.79,1.39-.78,.8-1.66,1.48-2.66,2.1-.61-.99-1.01-2.03-1.38-3.07-.36-1.01-.66-2.05-1.04-3.27-.02,2.16,.36,4.06,.76,6.16-.24-.26-.38-.36-.45-.49-.51-.87-1.16-1.64-1.82-2.39-.2-.23-.45-.46-.71-.6-.68-.36-1.27-.04-1.38,.72-.06,.42,.06,.79,.27,1.15,.22,.37,.44,.74,.67,1.1,.33,.51,.38,1-.07,1.54-.09-.09-.19-.18-.26-.29-.31-.44-.62-.89-1.01-1.44-.11-1.43,.02-3,.39-4.54,.22-.9,.6-1.73,1.16-2.47,.38-.51,.84-.94,1.39-1.27,.5-.3,1.04-.48,1.62-.5,1.39-.04,2.66,.29,3.73,1.23l-.19,.2Z" fill="#efd650"/>
    <path d="M260.24,329.56l.25,.23q.05-.45-.58-1.49c.13-.16,.25-.05,.36,.03,.21,.15,.41,.31,.61,.47,.16,.14,.31,.29,.55,.51,0-.41-.18-.64-.33-.87-.16-.24-.34-.46-.51-.7,.26-.46,.55-.92,.78-1.4,.23-.46,.4-.94,.6-1.41,.47-.22,.86-.07,1.2,.23,.22,.19,.39,.41,.58,.63,.67,.75,1.49,1.26,2.47,1.46,.44,.09,.91,.08,1.43,.13,.58,.59,.93,1.33,.88,2.29-.21,.08-.41,.18-.62,.25-2.3,.71-4.64,1.26-6.99,1.72-1.32,.26-2.65,.47-3.97,.7-.86,0-1.72-.02-2.58-.03-.32-.23-.68-.16-1.03-.15-.1-.15-.22-.23-.42-.03l.43,.03c.23,.26,.54,.34,.88,.33,.51,.04,1.01,.27,1.54,.17l2.05,.03c.03,.05,.03,.1,0,.15-.43,.03-.86,.05-1.28,.09-1.06,.09-2.12,.11-3.17-.07-.22-.04-.45-.09-.66-.17-.63-.24-.8-.95-.35-1.46,.15-.16,.35-.3,.55-.4,.23-.11,.49-.17,.74-.21,1.19-.2,2.35-.51,3.48-.93,.36-.14,.66-.13,.96,.1,.27,.21,.54,.42,.81,.63,.06,.09,.11,.19,.18,.26,.06,.06,.12,.19,.29,.09-.08-.18-.09-.4-.31-.52l-.63-.97c.08-.14,.18-.14,.28-.06,.28,.24,.55,.48,.82,.73q.21,.34,.58,.6c-.14-.33-.13-.61-.37-.81-.01-.05-.02-.1-.02-.16,.04-.13,.02-.36,.27-.17,.08,.06,.18,.11,.27,.17Z" fill="#eabe26"/>
    <path d="M256.09,268.31l-1.33-1.06c.84-1.45,.72-.94,1.26-3.2,.14,.03,.27,.09,.41,.08,.67-.02,1.11,.35,1.5,.85,.54,.68,.96,1.42,1.25,2.24,.05,.15,.12,.29,.24,.42,.17-1.56-.29-2.96-1.03-4.33,.11-.67,.34-1.3,.72-1.92,.5,.26,.97,.53,1.45,.77,.48,.23,.98,.43,1.49,.65l-.26,2.15c.38-.33,.44-.78,.66-1.13,.26,.11,.11,.36,.19,.53-.25,1.41-.63,2.78-1.23,4.08-.31,.66-.72,1.22-1.34,1.63-.62,.42-1.25,.51-1.94,.21-.29-.13-.57-.25-.84-.42-.75-.46-1.5-.94-2.24-1.4l.32-.15,.4,.15c.3,.27,.68,.37,1.19,.56-.31-.39-.56-.59-.88-.71Z" fill="#f4b77a"/>
    <path d="M248.3,259.93c.06,.52,0,1-.29,1.42-.05,.07-.07,.16-.09,.24-.14,.5,.19,.87,.69,.77,.46-.09,.85-.34,1.19-.66,.18-.17,.35-.36,.53-.55l.22,.22c.44-.43,.78-.95,1.15-1.45,.2-.27,.34-.58,.73-.67,.34-.08,.43-.43,.46-.76,.04-.43,.03-.86,.11-1.28,.05-.3,.18-.6,.31-.88,.09-.2,.28-.29,.5-.25,.22,.04,.35,.22,.37,.42,.03,.34,.05,.69,0,1.03-.1,.57-.1,1.14-.09,1.71,.02,.97-.25,1.86-.9,2.61-.79,.9-1.57,1.82-2.74,2.47,.68,.14,1.13-.28,1.82-.32-.99,.66-1.94,.76-2.91,.86-.46-.42-.92-.81-1.33-1.24-.81-.84-1.09-1.87-.93-3.01,.06-.45,.15-.9,.07-1.36-.05-.26-.02-.57,.21-.71,.51-.29,.59-1.09,1.34-1.09,.28,0,.56-.09,.84-.12,.29-.04,.57-.02,.79,.22,.14,.15,.15,.41,0,.54-.08,.08-.18,.16-.28,.19-.24,.07-.38,.22-.53,.4-.12,.14-.33,.19-.6,.32-.06,.31-.14,.74-.6,.95Z" fill="#eabe26"/>
    <path d="M273.82,279.15c.75-.16,1.5-.36,2.26-.48,.93-.15,1.87-.24,2.81-.34,1.04-.11,2.06,.02,3.08,.21,1.69,.33,3.37,.65,5.06,.98,.1,.02,.23,.02,.26,.24-.9,.12-1.8,.23-2.7,.14-1.17-.12-2.33-.26-3.49-.44-1-.15-2-.18-3-.16-.46,.01-.92,0-1.38,.01-.79,0-1.58,0-2.37,0-.19,0-.4,.04-.53-.16Z" fill="#eabe26"/>
    <path d="M288.28,289.3c-1.52,1.29-3.24,2.26-5.03,3.1-.93,.43-1.88,.84-2.85,1.19-1.41,.5-2.76,1.12-4.07,1.83-.6,.33-1.22,.63-1.83,.95-.15-.02-.31-.03-.36-.21,1.92-1.29,3.9-2.45,6.08-3.28,2.67-1.01,5.25-2.22,7.69-3.71,.05-.03,.11-.04,.16-.06l.21,.19Z" fill="#eabe26"/>
    <path d="M250.72,265.43c1.55-.42,2.76-1.07,3.41-2.41,.29-.02,.38,.2,.54,.3,.17,.11,.32,.24,.49,.37,.04,1.6-.48,2.9-1.83,3.74l-2.61-2Z" fill="#eabe26"/>
    <path d="M263.86,289.97c1.45,1.34,2.9,2.67,4.34,4.01,.8,.74,1.52,1.55,2.08,2.49,.08,.14,.15,.29,.24,.47-.11-.01-.16,0-.19-.02-1.31-1.06-2.64-2.1-3.93-3.18-1.17-.98-2.09-2.18-2.77-3.56l.22-.21Z" fill="#eabe26"/>
    <path d="M284.81,271.81c-.71,.96-1.47,1.69-2.41,2.21-1.3,.73-2.62,.67-3.93,0-.02-.01-.03-.05-.06-.12l1.99-.63,1.16,.78-.07-1.1c.53-.33,1.98-.84,3.32-1.15Z" fill="#efd650"/>
    <path d="M271.06,277.27c-.81-1.18-1.62-2.35-2.44-3.53-1.09-1.57-1.81-3.3-2.34-5.13-.04-.13-.03-.28-.06-.53,.24,.42,.43,.75,.61,1.08,.38,.7,.74,1.42,1.15,2.11,.51,.86,1.04,1.71,1.6,2.54,.72,1.07,1.34,2.19,1.73,3.43h-.26Z" fill="#eabe26"/>
    <path d="M265.74,252.62c1.01,.46,1.96,.23,2.84-.34,.4-.26,.76-.61,1.06-.99,.5-.63,.96-1.28,1.37-1.97,.36-.59,.8-1.11,1.28-1.6,.07-.07,.21-.07,.31-.1l.04,.23c-.34,.59-.68,1.18-1.03,1.76-.4,.65-.78,1.32-1.23,1.94-.26,.37-.6,.68-.94,.98-.69,.61-1.52,.86-2.44,.85-.56,0-1.07-.13-1.46-.57l.21-.2Z" fill="#eabe26"/>
    <path d="M277.09,255.74c-1.21-.66-2.12-1.63-2.79-2.82-.33-.58-.52-1.21-.59-1.87-.09-.86,.13-1.64,.72-2.3,.03-.03,.09-.03,.19-.07-.43,1.02-.44,2.03-.07,3.03,.27,.72,.64,1.41,1.12,2.02,.35,.45,.72,.88,1.08,1.33,.13,.15,.25,.31,.37,.47l-.03,.21Z" fill="#eabe26"/>
    <path d="M281.55,295.16c1.31,1.1,2.62,2.21,3.78,3.47,.33,.36,.6,.75,.9,1.13l-.16,.2c-1.27-.93-2.47-1.94-3.55-3.09-.41-.44-.75-.93-1.13-1.4,.01-.12,0-.26,.15-.31Z" fill="#eabe26"/>
    <path d="M274.14,296.16c.05,.18,.21,.18,.36,.21-.74,.41-1.48,.81-2.23,1.22l-.31-.03,2.18-1.4Z" fill="#c5caca"/>
    <path d="M331.3,299.81c.54,.71,.83,1.54,1.09,2.38l-.19,.15c-.36-.73-.72-1.46-1.08-2.19l.18-.35Z" fill="#736c6c"/>
    <path d="M257.8,332.84c.03-.05,.04-.1,0-.15,.08-.03,.15-.09,.24-.1,.91-.08,1.81-.16,2.72-.23,.05,0,.09,.04,.2,.08-1.08,.18-2.09,.51-3.16,.4Z" fill="#7e7d7d"/>
    <path d="M273.82,279.15c.13,.2,.34,.16,.53,.16,.79,0,1.58,0,2.37,0-1.02,.07-2.04,.13-3.06,.2-.18-.06-.43,.06-.54-.19l.7-.17Z" fill="#c5caca"/>
    <path d="M255.76,332.65c-.53,.1-1.02-.13-1.54-.17l.15-.17c.86,0,1.72,.02,2.58,.03-.15,.17-.36,.14-.56,.15-.22,.02-.46-.04-.64,.16Z" fill="#736c6c"/>
    <path d="M325.72,292.27c-.39-.17-.62-.48-.88-.76,.1-.21,.25-.15,.35-.09,.44,.21,.51,.35,.53,.85Z" fill="#c5caca"/>
    <path d="M255.38,268.31l-.32,.15c-.35-.12-.63-.33-.95-.56,.42-.1,.46-.08,1.26,.42Z" fill="#c5caca"/>
    <path d="M260.24,329.56c-.09-.05-.18-.1-.27-.17-.25-.19-.23,.04-.27,.17l-.54-.8c.64,.19,.64,.19,1.07,.79Z" fill="#c5caca"/>
    <path d="M281.56,259.2l.19-.2c.48,.24,.78,.67,1.14,1.04h-.3l-1.03-.84Z" fill="#d9e1e1"/>
    <path d="M256.09,268.31c.32,.12,.57,.32,.88,.71-.51-.19-.89-.28-1.19-.56,.1-.05,.21-.1,.31-.15Z" fill="#7e7d7d"/>
    <path d="M262.65,264.36c-.08-.17,.07-.43-.19-.53,.08-.21,.15-.43,.24-.63,.02-.04,.09-.06,.14-.09,.07,.45,.04,.66-.18,1.25Z" fill="#abb2b2"/>
    <path d="M267.95,248.32c.21-.27,.5-.41,.91-.68-.2,.47-.41,.71-.69,.89l-.21-.21Z" fill="#7e7d7d"/>
    <path d="M282.59,260.05h.3c.27,.16,.41,.41,.49,.72-.33-.18-.59-.41-.79-.72Z" fill="#968f8f"/>
    <path d="M273.12,279.33c.12,.25,.36,.13,.54,.19-.34,.17-.7,.18-1.11,.14,.15-.24,.35-.31,.57-.33Z" fill="#968f8f"/>
    <path d="M281.55,295.16c-.16,.05-.14,.19-.15,.31-.24-.17-.33-.42-.46-.76,.33,.07,.48,.25,.61,.45Z" fill="#abb2b2"/>
    <path d="M288.28,289.3l-.21-.19,.72-.51,.16,.18-.67,.52Z" fill="#c5caca"/>
    <path d="M259.73,329.73c.23,.2,.22,.49,.37,.81q-.37-.25-.58-.6l.21-.21Z" fill="#7e7d7d"/>
    <path d="M265.74,252.62l-.21,.2c-.23-.14-.37-.33-.35-.68,.28,.09,.4,.31,.55,.48Z" fill="#abb2b2"/>
    <path d="M271.97,297.56l.31,.03c-.25,.23-.55,.33-.91,.47,.2-.31,.2-.32,.59-.5Z" fill="#7e7d7d"/>
    <path d="M295.01,299.49l-.51,.56c-.01-.44,.12-.7,.31-.94,.03,.15,.03,.31,.2,.38Z" fill="#736c6c"/>
    <path d="M286.57,255.89l-.22,.21c-.18-.14-.31-.3-.28-.6,.25,.05,.4,.18,.5,.38Z" fill="#abb2b2"/>
    <path d="M288.95,288.78l-.16-.18c.16-.21,.38-.29,.71-.48-.13,.4-.33,.54-.55,.66Z" fill="#968f8f"/>
    <path d="M271.06,277.27h.26c.15,.15,.17,.35,.21,.61-.31-.16-.41-.37-.47-.61Z" fill="#abb2b2"/>
    <path d="M259.04,330.25c.22,.12,.22,.34,.31,.52-.18,.11-.23-.02-.29-.09-.08-.07-.12-.17-.18-.26l.17-.18Z" fill="#968f8f"/>
    <path d="M263.86,289.97l-.22,.21c-.18-.15-.24-.34-.26-.61,.25,.06,.39,.19,.48,.4Z" fill="#abb2b2"/>
    <path d="M286.07,299.96l.16-.2,.32,.39c-.08,.04-.14,.08-.15,.07-.11-.08-.22-.17-.33-.26Z" fill="#c5caca"/>
    <path d="M272.64,247.86l-.04-.23,.27-.19c.05,.27-.1,.34-.23,.42Z" fill="#c5caca"/>
    <path d="M277.09,255.74l.03-.21c.06,.05,.14,.08,.18,.14,.04,.05,.03,.13,.04,.19-.07-.02-.14-.04-.21-.06-.02,0-.03-.04-.04-.07Z" fill="#c5caca"/>
    <path d="M298.13,304.57c-.42,0-.81,0-1.19,0-.37,.01-.74,.05-1.11,.06-.71,.01-1.41,.01-2.14-.26,.13-.08,.21-.17,.31-.19,.94-.26,1.89-.4,2.86-.29,.43,.05,.83,.18,1.16,.48,.05,.05,.08,.13,.11,.2Z" fill="#6e1e27"/>
    <path d="M261.04,297.68c.16,.23,.33,.46,.47,.7,.36,.6,.39,1.25,.17,1.9-.34,1.04-1.25,2.11-2.27,2.68-.12-.17,.03-.26,.1-.37,.37-.64,.76-1.28,1.14-1.92,.44-.75,.62-1.53,.32-2.38-.06-.18-.05-.39-.07-.58l.15-.02Z" fill="#6e1e27"/>
    <path d="M279.68,270.73c1.76-1.36,3.58-2.33,4.8-2.54-1.44,1.09-2.95,1.9-4.47,2.69-.12-.02-.28,.02-.33-.15Z" fill="#6e1e27"/>
    <path d="M279.68,270.73c.06,.17,.21,.13,.33,.15-.19,.22-.47,.23-.77,.38,.07-.34,.23-.45,.44-.53Z" fill="#6e1e27"/>
    <path d="M267.98,243.8c-.04-.42-.09-.83-.12-1.25-.02-.22,.11-.38,.29-.49,.24-.16,.49-.17,.97-.07,.08,.14-.05,.21-.13,.27-.19,.14-.33,.3-.31,.56,.02,.41-.23,.69-.5,.95-.03,.03-.11,.02-.19,.03Z" fill="#6e1e27"/>
    <path d="M332.2,302.35l.19-.15c.25,.45,.34,.94,.4,1.44-.31-.38-.44-.83-.59-1.28Z" fill="#abb2b2"/>
    <path d="M254.37,332.32l-.15,.17c-.34,.02-.64-.06-.88-.33h0c.35,0,.72-.07,1.03,.16Z" fill="#abb2b2"/>
    <path d="M253.34,332.16l-.43-.03c.21-.2,.32-.12,.42,.03h0Z" fill="#c5caca"/>
  </g>
  <g opacity=".5">
    <path d="M322.35,34.74l-3.22-9.74c1.12,1.29,2.02,2.82,2.59,4.55s.77,3.49,.64,5.19Z" fill="#fff"/>
    <path d="M321.6,38.21l-5.14-15.54c.51,.33,1,.71,1.45,1.12l4.19,12.66c-.12,.6-.29,1.19-.5,1.76Z" fill="#fff"/>
    <path d="M320.48,40.56l-6.32-19.11c.44,.18,.87,.39,1.28,.61l5.7,17.24c-.19,.43-.42,.85-.66,1.26Z" fill="#fff"/>
    <path d="M319.18,42.36l-7.14-21.58c.4,.09,.8,.2,1.18,.33l6.71,20.28c-.23,.34-.49,.66-.75,.97Z" fill="#fff"/>
    <path d="M317.75,43.79l-7.71-23.3c.38,.02,.75,.07,1.12,.13l7.41,22.4c-.26,.27-.53,.53-.82,.77Z" fill="#fff"/>
    <path d="M316.22,44.91l-8.08-24.41c.36-.03,.71-.04,1.07-.03l7.89,23.84c-.28,.22-.57,.42-.88,.61Z" fill="#fff"/>
    <path d="M314.61,45.78l-8.28-25.01c.34-.07,.68-.14,1.02-.18l8.18,24.73c-.3,.17-.61,.32-.93,.46Z" fill="#fff"/>
    <path d="M313.3,46.29c-.13,.04-.25,.08-.39,.12l-8.32-25.13c.12-.05,.25-.1,.38-.14,.2-.07,.39-.12,.6-.18l8.31,25.12c-.2,.08-.39,.15-.59,.21Z" fill="#fff"/>
    <path d="M312.16,46.61c-.33,.09-.67,.15-1.01,.2l-8.21-24.8c.3-.16,.61-.31,.93-.44l8.29,25.05Z" fill="#fff"/>
    <path d="M310.36,46.91c-.35,.03-.71,.05-1.06,.05l-7.94-23.98c.28-.2,.58-.4,.88-.59l8.11,24.51Z" fill="#fff"/>
    <path d="M308.48,46.94c-.37-.01-.75-.05-1.11-.1l-7.48-22.61c.26-.26,.54-.51,.84-.74l7.76,23.45Z" fill="#fff"/>
    <path d="M306.5,46.7c-.4-.08-.79-.18-1.18-.3l-6.81-20.58c.24-.33,.49-.64,.77-.94l7.22,21.82Z" fill="#fff"/>
    <path d="M304.4,46.09c-.43-.17-.86-.36-1.27-.57l-5.85-17.69c.21-.41,.44-.82,.68-1.21l6.44,19.48Z" fill="#fff"/>
    <path d="M302.11,44.95c-.49-.31-.97-.66-1.42-1.03l-4.42-13.36c.14-.57,.31-1.13,.52-1.67l5.32,16.06Z" fill="#fff"/>
    <path d="M299.51,42.81c-.76-.8-1.43-1.71-1.97-2.71l-1.51-4.57c-.16-1.13-.17-2.26-.04-3.36l3.52,10.65Z" fill="#fff"/>
  </g>
  <g opacity=".5">
    <path d="M34.73,314.03l-3.22-9.74c1.12,1.29,2.02,2.82,2.59,4.55s.77,3.49,.64,5.19Z" fill="#fff"/>
    <path d="M33.98,317.5l-5.14-15.54c.51,.33,1,.71,1.45,1.12l4.19,12.66c-.12,.6-.29,1.19-.5,1.76Z" fill="#fff"/>
    <path d="M32.86,319.85l-6.32-19.11c.44,.18,.87,.39,1.28,.61l5.7,17.24c-.19,.43-.42,.85-.66,1.26Z" fill="#fff"/>
    <path d="M31.55,321.65l-7.14-21.58c.4,.09,.8,.2,1.18,.33l6.71,20.28c-.23,.34-.49,.66-.75,.97Z" fill="#fff"/>
    <path d="M30.13,323.07l-7.71-23.3c.38,.02,.75,.07,1.12,.13l7.41,22.4c-.26,.27-.53,.53-.82,.77Z" fill="#fff"/>
    <path d="M28.59,324.2l-8.08-24.41c.36-.03,.71-.04,1.07-.03l7.89,23.84c-.28,.22-.57,.42-.88,.61Z" fill="#fff"/>
    <path d="M26.98,325.06l-8.28-25.01c.34-.07,.68-.14,1.02-.18l8.18,24.73c-.3,.17-.61,.32-.93,.46Z" fill="#fff"/>
    <path d="M25.68,325.58c-.13,.04-.25,.08-.39,.12l-8.32-25.13c.12-.05,.25-.1,.38-.14,.2-.07,.39-.12,.6-.18l8.31,25.12c-.2,.08-.39,.15-.59,.21Z" fill="#fff"/>
    <path d="M24.53,325.89c-.33,.09-.67,.15-1.01,.2l-8.21-24.8c.3-.16,.61-.31,.93-.44l8.29,25.05Z" fill="#fff"/>
    <path d="M22.74,326.19c-.35,.03-.71,.05-1.06,.05l-7.94-23.98c.28-.2,.58-.4,.88-.59l8.11,24.51Z" fill="#fff"/>
    <path d="M20.85,326.23c-.37-.01-.75-.05-1.11-.1l-7.48-22.61c.26-.26,.54-.51,.84-.74l7.76,23.45Z" fill="#fff"/>
    <path d="M18.87,325.98c-.4-.08-.79-.18-1.18-.3l-6.81-20.58c.24-.33,.49-.64,.77-.94l7.22,21.82Z" fill="#fff"/>
    <path d="M16.77,325.37c-.43-.17-.86-.36-1.27-.57l-5.85-17.69c.21-.41,.44-.82,.68-1.21l6.44,19.48Z" fill="#fff"/>
    <path d="M14.49,324.23c-.49-.31-.97-.66-1.42-1.03l-4.42-13.36c.14-.57,.31-1.13,.52-1.67l5.32,16.06Z" fill="#fff"/>
    <path d="M11.88,322.09c-.76-.8-1.43-1.71-1.97-2.71l-1.51-4.57c-.16-1.13-.17-2.26-.04-3.36l3.52,10.65Z" fill="#fff"/>
  </g>
  <g opacity=".5">
    <path d="M246.49,300.58l7.83-6.64c-.78,1.52-1.86,2.93-3.25,4.1s-2.95,2.02-4.57,2.53Z" fill="#f8aa10"/>
    <path d="M242.99,301.19l12.49-10.59c-.12,.6-.28,1.19-.49,1.76l-10.17,8.63c-.6,.11-1.21,.18-1.82,.2Z" fill="#f8aa10"/>
    <path d="M240.39,301.03l15.35-13.02c0,.48-.03,.95-.09,1.42l-13.85,11.74c-.47-.02-.95-.07-1.42-.15Z" fill="#f8aa10"/>
    <path d="M238.23,300.49l17.34-14.7c.07,.4,.12,.81,.14,1.22l-16.3,13.82c-.4-.09-.79-.21-1.18-.34Z" fill="#f8aa10"/>
    <path d="M236.38,299.7l18.72-15.87c.12,.36,.22,.72,.3,1.08l-18,15.26c-.35-.14-.69-.3-1.02-.47Z" fill="#f8aa10"/>
    <path d="M234.76,298.7l19.61-16.63c.16,.32,.3,.65,.43,.98l-19.15,16.24c-.31-.18-.6-.38-.9-.59Z" fill="#f8aa10"/>
    <path d="M233.35,297.53l20.1-17.04c.2,.29,.38,.58,.55,.88l-19.87,16.85c-.27-.22-.53-.45-.78-.69Z" fill="#f8aa10"/>
    <path d="M232.39,296.51c-.09-.1-.17-.2-.25-.31l20.19-17.12c.1,.09,.18,.2,.27,.3,.14,.16,.26,.32,.39,.49l-20.18,17.11c-.14-.15-.28-.3-.42-.46Z" fill="#f8aa10"/>
    <path d="M231.67,295.57c-.2-.28-.39-.57-.56-.86l19.93-16.9c.26,.22,.52,.45,.76,.7l-20.12,17.06Z" fill="#f8aa10"/>
    <path d="M230.72,294.02c-.16-.32-.31-.64-.45-.96l19.27-16.34c.3,.19,.59,.39,.87,.6l-19.69,16.7Z" fill="#f8aa10"/>
    <path d="M229.98,292.28c-.13-.35-.24-.71-.33-1.07l18.16-15.4c.34,.15,.68,.31,1,.5l-18.84,15.97Z" fill="#f8aa10"/>
    <path d="M229.47,290.35c-.08-.4-.13-.8-.17-1.21l16.54-14.02c.39,.1,.78,.22,1.16,.36l-17.53,14.87Z" fill="#f8aa10"/>
    <path d="M229.25,288.18c0-.46,.01-.93,.05-1.39l14.21-12.05c.46,.04,.92,.1,1.38,.18l-15.65,13.27Z" fill="#f8aa10"/>
    <path d="M229.45,285.64c.1-.57,.25-1.14,.43-1.7l10.73-9.1c.58-.08,1.17-.13,1.75-.14l-12.91,10.94Z" fill="#f8aa10"/>
    <path d="M230.46,282.42c.46-1.01,1.06-1.97,1.78-2.85l3.67-3.12c.99-.57,2.03-1,3.1-1.29l-8.55,7.25Z" fill="#f8aa10"/>
  </g>
  <g opacity=".5">
    <g>
      <path d="M101.36,193.85l-3.22-9.74c1.12,1.29,2.02,2.82,2.59,4.55s.77,3.49,.64,5.19Z" fill="#6e1e27"/>
      <path d="M100.61,197.32l-5.14-15.54c.51,.33,1,.71,1.45,1.12l4.19,12.66c-.12,.6-.29,1.19-.5,1.76Z" fill="#6e1e27"/>
      <path d="M99.49,199.67l-6.32-19.11c.44,.18,.87,.39,1.28,.61l5.7,17.24c-.19,.43-.42,.85-.66,1.26Z" fill="#6e1e27"/>
      <path d="M98.18,201.47l-7.14-21.58c.4,.09,.8,.2,1.18,.33l6.71,20.28c-.23,.34-.49,.66-.75,.97Z" fill="#6e1e27"/>
      <path d="M96.76,202.89l-7.71-23.3c.38,.02,.75,.07,1.12,.13l7.41,22.4c-.26,.27-.53,.53-.82,.77Z" fill="#6e1e27"/>
      <path d="M95.23,204.02l-8.08-24.41c.36-.03,.71-.04,1.07-.03l7.89,23.84c-.28,.22-.57,.42-.88,.61Z" fill="#6e1e27"/>
      <path d="M93.61,204.89l-8.28-25.01c.34-.07,.68-.14,1.02-.18l8.18,24.73c-.3,.17-.61,.32-.93,.46Z" fill="#6e1e27"/>
      <path d="M92.31,205.4c-.13,.04-.25,.08-.39,.12l-8.32-25.13c.12-.05,.25-.1,.38-.14,.2-.07,.39-.12,.6-.18l8.31,25.12c-.2,.08-.39,.15-.59,.21Z" fill="#6e1e27"/>
      <path d="M91.17,205.71c-.33,.09-.67,.15-1.01,.2l-8.21-24.8c.3-.16,.61-.31,.93-.44l8.29,25.05Z" fill="#6e1e27"/>
      <path d="M89.37,206.01c-.35,.03-.71,.05-1.06,.05l-7.94-23.98c.28-.2,.58-.4,.88-.59l8.11,24.51Z" fill="#6e1e27"/>
      <path d="M87.48,206.05c-.37-.01-.75-.05-1.11-.1l-7.48-22.61c.26-.26,.54-.51,.84-.74l7.76,23.45Z" fill="#6e1e27"/>
      <path d="M85.5,205.8c-.4-.08-.79-.18-1.18-.3l-6.81-20.58c.24-.33,.49-.64,.77-.94l7.22,21.82Z" fill="#6e1e27"/>
      <path d="M83.4,205.19c-.43-.17-.86-.36-1.27-.57l-5.85-17.69c.21-.41,.44-.82,.68-1.21l6.44,19.48Z" fill="#6e1e27"/>
      <path d="M81.12,204.06c-.49-.31-.97-.66-1.42-1.03l-4.42-13.36c.14-.57,.31-1.13,.52-1.67l5.32,16.06Z" fill="#6e1e27"/>
      <path d="M78.51,201.91c-.76-.8-1.43-1.71-1.97-2.71l-1.51-4.57c-.16-1.13-.17-2.26-.04-3.36l3.52,10.65Z" fill="#6e1e27"/>
    </g>
  </g>
  <g opacity=".5">
    <path d="M29.42,95.38l7.83-6.64c-.78,1.52-1.86,2.93-3.25,4.1s-2.95,2.02-4.57,2.53Z" fill="#f8aa10"/>
    <path d="M25.92,95.98l12.49-10.59c-.12,.6-.28,1.19-.49,1.76l-10.17,8.63c-.6,.11-1.21,.18-1.82,.2Z" fill="#f8aa10"/>
    <path d="M23.32,95.82l15.35-13.02c0,.48-.03,.95-.09,1.42l-13.85,11.74c-.47-.02-.95-.07-1.42-.15Z" fill="#f8aa10"/>
    <path d="M21.17,95.29l17.34-14.7c.07,.4,.12,.81,.14,1.22l-16.3,13.82c-.4-.09-.79-.21-1.18-.34Z" fill="#f8aa10"/>
    <path d="M19.31,94.5l18.72-15.87c.12,.36,.22,.72,.3,1.08l-18,15.26c-.35-.14-.69-.3-1.02-.47Z" fill="#f8aa10"/>
    <path d="M17.69,93.5l19.61-16.63c.16,.32,.3,.65,.43,.98l-19.15,16.24c-.31-.18-.6-.38-.9-.59Z" fill="#f8aa10"/>
    <path d="M16.29,92.33l20.1-17.04c.2,.29,.38,.58,.55,.88l-19.87,16.85c-.27-.22-.53-.45-.78-.69Z" fill="#f8aa10"/>
    <path d="M15.32,91.31c-.09-.1-.17-.2-.25-.31l20.19-17.12c.1,.09,.18,.2,.27,.3,.14,.16,.26,.32,.39,.49l-20.18,17.11c-.14-.15-.28-.3-.42-.46Z" fill="#f8aa10"/>
    <path d="M14.6,90.37c-.2-.28-.39-.57-.56-.86l19.93-16.9c.26,.22,.52,.45,.76,.7l-20.12,17.06Z" fill="#f8aa10"/>
    <path d="M13.65,88.81c-.16-.32-.31-.64-.45-.96l19.27-16.34c.3,.19,.59,.39,.87,.6l-19.69,16.7Z" fill="#f8aa10"/>
    <path d="M12.91,87.08c-.13-.35-.24-.71-.33-1.07l18.16-15.4c.34,.15,.68,.31,1,.5l-18.84,15.97Z" fill="#f8aa10"/>
    <path d="M12.4,85.15c-.08-.4-.13-.8-.17-1.21l16.54-14.02c.39,.1,.78,.22,1.16,.36l-17.53,14.87Z" fill="#f8aa10"/>
    <path d="M12.18,82.97c0-.46,.01-.93,.05-1.39l14.21-12.05c.46,.04,.92,.1,1.38,.18l-15.65,13.27Z" fill="#f8aa10"/>
    <path d="M12.38,80.43c.1-.57,.25-1.14,.43-1.7l10.73-9.1c.58-.08,1.17-.13,1.75-.14l-12.91,10.94Z" fill="#f8aa10"/>
    <path d="M13.39,77.21c.46-1.01,1.06-1.97,1.78-2.85l3.67-3.12c.99-.57,2.03-1,3.1-1.29l-8.55,7.25Z" fill="#f8aa10"/>
  </g>
</svg>