<svg id="ec556d23-1623-4053-9f47-6b5bf946f35f" data-name="e58eeb22-f81b-4260-83b8-fc3c0ec02046" xmlns="http://www.w3.org/2000/svg" xmlns:xlink="http://www.w3.org/1999/xlink" width="335" height="335" viewBox="0 0 335 335">
  <defs>
    <clipPath id="a7b157df-152a-4991-9ec0-a0519a5a3801">
      <rect width="335" height="335" fill="none"/>
    </clipPath>
    <linearGradient id="e6a4d4c7-6c01-4d77-942c-d681a49ca93d" x1="167.5" y1="-312" x2="167.5" y2="2.57" gradientTransform="matrix(1, 0, 0, -1, 0, 23)" gradientUnits="userSpaceOnUse">
      <stop offset="0" stop-color="#f6921e"/>
      <stop offset="1" stop-color="#f16522"/>
    </linearGradient>
    <linearGradient id="b44b517b-723d-496a-8bc2-7946d208120b" x1="209.9" y1="-118.16" x2="388" y2="-118.16" xlink:href="#e6a4d4c7-6c01-4d77-942c-d681a49ca93d"/>
    <linearGradient id="af5fe726-22dd-4a4c-8ee9-e445df2c8266" x1="245.79" y1="-274.62" x2="324.5" y2="-274.62" xlink:href="#e6a4d4c7-6c01-4d77-942c-d681a49ca93d"/>
  </defs>
  <g id="be35f7c3-a2e5-481b-8b4e-c1151c52717e">
    <g clip-path="url(#a7b157df-152a-4991-9ec0-a0519a5a3801)">
      <g>
        <g>
          <rect width="335" height="48.05" fill="#231f20"/>
          <g>
            <path d="M0,335H335V31.4c-2.1-.1-3.7-1.1-1.6-3.3-.5-2.2-15.1.4-5.1.7-.3.8-7.3-.9-9.4-.2.5-1-.8-3.1-2.4-4.1,2.4-1.5,1.7-1.7-11.2.8-2.6-1.6-8.8-2.9-9.9-2-2.3-2.2-12.7-1.1-10.6-1.7-7.6-1.1,3.7,1.3-10.7.9-1.7.9-5,3.4-6.4,0-2.4-5.3-4.4,1.4-7.3,0s-4.8,7.3-7,.5c-2.2,3.8-4.4,3-6.7,2.4-2,1.6-3.7,2.8-5.8,2.9s-3.9,2.6-6.2,1.7c-3.7,1.7-6.8-4.3-9.5,4.2s-1.8-1.3-3.7,2.8c-2.3.4-4.9,9-7.1,2.2-2.1.9-.7-.1-1.3,2.5-.7-.2-3.3,5.4-5.2,1.4-3.2-1.2-6.5.3-9.8,0s-4.9-1.6-7.4.3-5.1.6-7-1.8c-1.7-4.3-2.7-4.7-4.6-4.2-2.1,3.1-4.6-.1-6.8-.9-.7-3.3-1.4,3.5-2.1.1-1.1-1.4-2.1-2.3-3.1-.5-1.9,0-5,1.4-6.7-.5-1-7.9-1.5-4.5-2.6-1.7-2.2.2-5.7-3.5-8.1-1.2-2.2-.4-2.2-.8-3.6,1.8-1.2,8.3-3.2,4.2-4.9,2.8s-1.4,3.2-2.2,1c-2.5-4.3-4.4-.7-7.5,3.3-1.8.4-4,1.1-5.7,1-.7,3.2-1.3.5-2,1.3-1.9-.9-4.1.4-6,.3s-1.7,1.3-3.1,1.7c-1.1-1.7-2.6-3.5-3.7,0-2.3-.7-4.7,5.5-7.1-.2-2.4-.2-4.8,1.7-7,.7-2.7,3.1-5.9.4-8.6-.5s-5.8,2.3-9.3,0-4.7-6-7,.1c-2.3,1.8-4.6.9-6.9-.1-1.9.8-1.9.2-3.9-1.8s-5.2-2.3-8.5-3.8c-2.5,1-2.3-1.7-3.9-3,.1-1-.8-6.5-2.9-6.1-2.6,2.3-3.9,3.3-5.9-1a10.4,10.4,0,0,0-5.8-.2c-4-2.1-3.4,8-4.2-.2-3.7-3.6-3.2-4.7-4.8-2.6-3.7,2.6-6.2-.7-8.9-.1-5,.4-4.3,4.3-6.3,1-.1-.1-.1-.1-.1-.2L9.4,29c-1.6.7-3.6,1.4-3.2,0-1.7-.1-4,1.1-5,.1s-.5.2-1.2,0V66.7H0v10a4.2,4.2,0,0,1,0,2.7Z" fill="none" stroke="#fff" stroke-linecap="round" stroke-linejoin="round" stroke-width="2"/>
            <path d="M0,335H335V31.4c-2.1-.1-3.7-1.1-1.6-3.3-.5-2.2-15.1.4-5.1.7-.3.8-7.3-.9-9.4-.2.5-1-.8-3.1-2.4-4.1,2.4-1.5,1.7-1.7-11.2.8-2.6-1.6-8.8-2.9-9.9-2-2.3-2.2-12.7-1.1-10.6-1.7-7.6-1.1,3.7,1.3-10.7.9-1.7.9-5,3.4-6.4,0-2.4-5.3-4.4,1.4-7.3,0s-4.8,7.3-7,.5c-2.2,3.8-4.4,3-6.7,2.4-2,1.6-3.7,2.8-5.8,2.9s-3.9,2.6-6.2,1.7c-3.7,1.7-6.8-4.3-9.5,4.2s-1.8-1.3-3.7,2.8c-2.3.4-4.9,9-7.1,2.2-2.1.9-.7-.1-1.3,2.5-.7-.2-3.3,5.4-5.2,1.4-3.2-1.2-6.5.3-9.8,0s-4.9-1.6-7.4.3-5.1.6-7-1.8c-1.7-4.3-2.7-4.7-4.6-4.2-2.1,3.1-4.6-.1-6.8-.9-.7-3.3-1.4,3.5-2.1.1-1.1-1.4-2.1-2.3-3.1-.5-1.9,0-5,1.4-6.7-.5-1-7.9-1.5-4.5-2.6-1.7-2.2.2-5.7-3.5-8.1-1.2-2.2-.4-2.2-.8-3.6,1.8-1.2,8.3-3.2,4.2-4.9,2.8s-1.4,3.2-2.2,1c-2.5-4.3-4.4-.7-7.5,3.3-1.8.4-4,1.1-5.7,1-.7,3.2-1.3.5-2,1.3-1.9-.9-4.1.4-6,.3s-1.7,1.3-3.1,1.7c-1.1-1.7-2.6-3.5-3.7,0-2.3-.7-4.7,5.5-7.1-.2-2.4-.2-4.8,1.7-7,.7-2.7,3.1-5.9.4-8.6-.5s-5.8,2.3-9.3,0-4.7-6-7,.1c-2.3,1.8-4.6.9-6.9-.1-1.9.8-1.9.2-3.9-1.8s-5.2-2.3-8.5-3.8c-2.5,1-2.3-1.7-3.9-3,.1-1-.8-6.5-2.9-6.1-2.6,2.3-3.9,3.3-5.9-1a10.4,10.4,0,0,0-5.8-.2c-4-2.1-3.4,8-4.2-.2-3.7-3.6-3.2-4.7-4.8-2.6-3.7,2.6-6.2-.7-8.9-.1-5,.4-4.3,4.3-6.3,1-.1-.1-.1-.1-.1-.2L9.4,29c-1.6.7-3.6,1.4-3.2,0-1.7-.1-4,1.1-5,.1s-.5.2-1.2,0V66.7H0v10a4.2,4.2,0,0,1,0,2.7Z" fill="url(#e6a4d4c7-6c01-4d77-942c-d681a49ca93d)"/>
          </g>
          <g>
            <path d="M0,338H335V270.2c-2.1-.1-3.7-1.1-1.6-3.4-.5-2.2-15.1.5-5.1.8-.3.8-7.3-.9-9.4-.2.5-1-.8-3.1-2.4-4.2,2.4-1.4,1.7-1.6-11.2.8-2.6-1.5-8.8-2.8-9.9-1.9-2.3-2.2-12.7-1.1-10.6-1.7-7.6-1.1,3.7,1.2-10.7.9-1.7.8-5,3.3-6.4-.1-2.4-5.2-4.4,1.4-7.3,0s-4.8,7.4-7,.5c-2.2,3.9-4.4,3-6.7,2.4-2,1.7-3.7,2.9-5.8,3s-3.9,2.5-6.2,1.6c-3.7,1.8-6.8-4.3-9.5,4.3s-1.8-1.3-3.7,2.8c-2.3.3-4.9,8.9-7.1,2.2-2.1.9-.7-.1-1.3,2.5-.7-.3-3.3,5.4-5.2,1.4-3.2-1.2-6.5.3-9.8,0s-4.9-1.7-7.4.3-5.1.5-7-1.8c-1.7-4.3-2.7-4.7-4.6-4.3-2.1,3.1-4.6,0-6.8-.8-.7-3.4-1.4,3.5-2.1,0-1.1-1.3-2.1-2.2-3.1-.5-1.9.1-5,1.4-6.7-.4-1-8-1.5-4.5-2.6-1.7-2.2.2-5.7-3.6-8.1-1.2-2.2-.5-2.2-.9-3.6,1.8-1.2,8.3-3.2,4.2-4.9,2.7-1.2.1-1.4,3.2-2.2,1.1-2.5-4.4-4.4-.7-7.5,3.2a22.1,22.1,0,0,1-5.7,1.1c-.7,3.2-1.3.4-2,1.2-1.9-.8-4.1.5-6,.4s-1.7,1.2-3.1,1.7c-1.1-1.7-2.6-3.6-3.7,0-2.3-.7-4.7,5.5-7.1-.2-2.4-.2-4.8,1.6-7,.6-2.7,3.2-5.9.5-8.6-.4s-5.8,2.3-9.3,0-4.7-6.1-7,.1c-2.3,1.8-4.6.8-6.9-.1-1.9.8-1.9.1-3.9-1.8s-5.2-2.3-8.5-3.8c-2.5,1-2.3-1.7-3.9-3.1.1-.9-.8-6.4-2.9-6-2.6,2.3-3.9,3.2-5.9-1.1a11.4,11.4,0,0,0-5.8-.2c-4-2-3.4,8.1-4.2-.1-3.7-3.7-3.2-4.7-4.8-2.6-3.7,2.6-6.2-.7-8.9-.1-5,.3-4.3,4.2-6.3,1-.1-.1-.1-.1-.1-.2l-.5,1c-1.6.8-3.6,1.4-3.2.1-1.7-.2-4,1.1-5,0a2.5,2.5,0,0,1-1.2.1v37.5H0v10.1a6.2,6.2,0,0,1,0,2.7Z" fill="none" stroke="#231f20" stroke-linecap="round" stroke-linejoin="round" stroke-width="2"/>
            <path d="M0,338H335V270.2c-2.1-.1-3.7-1.1-1.6-3.4-.5-2.2-15.1.5-5.1.8-.3.8-7.3-.9-9.4-.2.5-1-.8-3.1-2.4-4.2,2.4-1.4,1.7-1.6-11.2.8-2.6-1.5-8.8-2.8-9.9-1.9-2.3-2.2-12.7-1.1-10.6-1.7-7.6-1.1,3.7,1.2-10.7.9-1.7.8-5,3.3-6.4-.1-2.4-5.2-4.4,1.4-7.3,0s-4.8,7.4-7,.5c-2.2,3.9-4.4,3-6.7,2.4-2,1.7-3.7,2.9-5.8,3s-3.9,2.5-6.2,1.6c-3.7,1.8-6.8-4.3-9.5,4.3s-1.8-1.3-3.7,2.8c-2.3.3-4.9,8.9-7.1,2.2-2.1.9-.7-.1-1.3,2.5-.7-.3-3.3,5.4-5.2,1.4-3.2-1.2-6.5.3-9.8,0s-4.9-1.7-7.4.3-5.1.5-7-1.8c-1.7-4.3-2.7-4.7-4.6-4.3-2.1,3.1-4.6,0-6.8-.8-.7-3.4-1.4,3.5-2.1,0-1.1-1.3-2.1-2.2-3.1-.5-1.9.1-5,1.4-6.7-.4-1-8-1.5-4.5-2.6-1.7-2.2.2-5.7-3.6-8.1-1.2-2.2-.5-2.2-.9-3.6,1.8-1.2,8.3-3.2,4.2-4.9,2.7-1.2.1-1.4,3.2-2.2,1.1-2.5-4.4-4.4-.7-7.5,3.2a22.1,22.1,0,0,1-5.7,1.1c-.7,3.2-1.3.4-2,1.2-1.9-.8-4.1.5-6,.4s-1.7,1.2-3.1,1.7c-1.1-1.7-2.6-3.6-3.7,0-2.3-.7-4.7,5.5-7.1-.2-2.4-.2-4.8,1.6-7,.6-2.7,3.2-5.9.5-8.6-.4s-5.8,2.3-9.3,0-4.7-6.1-7,.1c-2.3,1.8-4.6.8-6.9-.1-1.9.8-1.9.1-3.9-1.8s-5.2-2.3-8.5-3.8c-2.5,1-2.3-1.7-3.9-3.1.1-.9-.8-6.4-2.9-6-2.6,2.3-3.9,3.2-5.9-1.1a11.4,11.4,0,0,0-5.8-.2c-4-2-3.4,8.1-4.2-.1-3.7-3.7-3.2-4.7-4.8-2.6-3.7,2.6-6.2-.7-8.9-.1-5,.3-4.3,4.2-6.3,1-.1-.1-.1-.1-.1-.2l-.5,1c-1.6.8-3.6,1.4-3.2.1-1.7-.2-4,1.1-5,0a2.5,2.5,0,0,1-1.2.1v37.5H0v10.1a6.2,6.2,0,0,1,0,2.7Z" fill="#fff"/>
          </g>
        </g>
        <g>
          <rect y="131.8" width="255.8" height="19.55" fill="#fff"/>
          <rect y="166.3" width="282.2" height="19.55" fill="#231f20"/>
        </g>
        <g>
          <g>
            <rect x="225.4" y="67.5" width="147.1" height="147.12" rx="17.9" transform="translate(-12.2 252.7) rotate(-45)" fill="#8f55a2"/>
            <path d="M299,242.4a21.1,21.1,0,0,1-14.8-6.1l-80.5-80.5a20.8,20.8,0,0,1-6.1-14.7,21.1,21.1,0,0,1,6.1-14.8l80.5-80.4a20.9,20.9,0,0,1,29.5,0l80.5,80.4a20.9,20.9,0,0,1,0,29.5l-80.5,80.5A20.8,20.8,0,0,1,299,242.4Zm0-197.3a15.6,15.6,0,0,0-11,4.5l-80.5,80.5a15.7,15.7,0,0,0,0,22L288,232.5a15.6,15.6,0,0,0,21.9,0l80.5-80.4a15.7,15.7,0,0,0,0-22L309.9,49.6A15.4,15.4,0,0,0,299,45.1Z" fill="#fff"/>
          </g>
          <path d="M299,230.1a18.8,18.8,0,0,1-13.3-5.5l-70.3-70.3a18.7,18.7,0,0,1-.1-26.4h.1l70.3-70.3a19,19,0,0,1,26.5,0l70.3,70.3a18.7,18.7,0,0,1,.1,26.4h-.1l-70.3,70.3A18.6,18.6,0,0,1,299,230.1ZM299,53a17.1,17.1,0,0,0-12.6,5.2l-70.3,70.3a17.7,17.7,0,0,0-.1,25h.1l70.3,70.3a17.7,17.7,0,0,0,25,.1h.1l70.3-70.3a17.7,17.7,0,0,0,.1-25h-.1L311.5,58.2A17.3,17.3,0,0,0,299,53Z" fill="url(#b44b517b-723d-496a-8bc2-7946d208120b)"/>
        </g>
        <g>
          <g>
            <path d="M-2.8,108.6a11.1,11.1,0,0,1-10.9-11A10.9,10.9,0,0,1-2.8,86.7h0a10.9,10.9,0,0,1,11,10.8h0A11,11,0,0,1-2.7,108.6h-.1Zm0-20.8a9.8,9.8,0,0,0-9.8,9.8h0a9.8,9.8,0,0,0,9.8,9.8h0a10,10,0,0,0,9.9-9.8A10,10,0,0,0-2.8,87.8Z" fill="#fff"/>
            <path d="M-2.8,106.4a8.7,8.7,0,0,1-8.7-8.7h0a8.9,8.9,0,0,1,8.7-8.8A8.7,8.7,0,0,1,6,97.5H6a8.7,8.7,0,0,1-8.6,8.8h-.2Zm0-16.4a7.6,7.6,0,0,0-7.6,7.6,7.7,7.7,0,0,0,7.6,7.7,7.6,7.6,0,0,0,7.7-7.5h0v-.2A7.6,7.6,0,0,0-2.7,90Z" fill="#fff"/>
            <path d="M-2.8,104.2a6.8,6.8,0,0,1-6.6-6.6A6.8,6.8,0,0,1-2.8,91a6.8,6.8,0,0,1,6.6,6.6,6.5,6.5,0,0,1-6.4,6.6h-.2Zm0-12.1a5.5,5.5,0,0,0-5.5,5.5h0a5.5,5.5,0,0,0,5.5,5.5,5.5,5.5,0,0,0,5.5-5.5A5.5,5.5,0,0,0-2.8,92.1Z" fill="#fff"/>
            <path d="M-2.8,102.1a4.7,4.7,0,0,1-4.4-4.5,4.4,4.4,0,0,1,4.4-4.4h0a4.7,4.7,0,0,1,4.5,4.4,4.5,4.5,0,0,1-4.5,4.5Zm0-7.8a3.3,3.3,0,0,0-3.3,3.3h0A3.5,3.5,0,0,0-2.8,101,3.4,3.4,0,0,0,.6,97.6h0A3.5,3.5,0,0,0-2.8,94.3Z" fill="#fff"/>
          </g>
          <path d="M-4.5,110.1A11.1,11.1,0,0,1-15.5,99a11,11,0,0,1,11-11,11,11,0,0,1,11,11A11.1,11.1,0,0,1-4.5,110.1Zm0-21.8A10.7,10.7,0,0,0-15.2,99,10.7,10.7,0,0,0-4.6,109.8h.1A10.8,10.8,0,0,0,6.3,99h0A10.9,10.9,0,0,0-4.5,88.3Z" fill="#231f20"/>
        </g>
        <g>
          <path d="M327.2,8.4c.7-.4.9-.1.6.6L326,12.1a2.8,2.8,0,0,0,0,2.5l1.8,3.1c.3.6.1.9-.6.6L318.6,14c-.7-.4-.7-1,0-1.3Z" fill="#fff"/>
          <path d="M339.2,8.4c.7-.4.9-.1.6.6L338,12.1a2.8,2.8,0,0,0,0,2.5l1.8,3.1c.3.6.1.9-.6.6L330.6,14c-.7-.4-.7-1,0-1.3Z" fill="#fff"/>
        </g>
        <g>
          <g>
            <circle cx="312.3" cy="128.8" r="2" fill="#fff"/>
            <circle cx="312.3" cy="134.6" r="1.9" fill="#fff"/>
            <path d="M312.3,138.8a1.6,1.6,0,0,1,1.7,1.5h0v.2a1.8,1.8,0,0,1-1.7,1.7h0a1.7,1.7,0,0,1,0-3.4Z" fill="#fff"/>
            <circle cx="312.3" cy="146.4" r="1.6" fill="#fff"/>
            <circle cx="312.4" cy="152.3" r="1.4" fill="#fff"/>
            <circle cx="312.3" cy="158.1" r="1.3" fill="#fff"/>
            <circle cx="312.2" cy="163.9" r="1.2" transform="translate(41.3 389.6) rotate(-67.5)" fill="#fff"/>
            <path d="M312.3,168.8a1,1,0,1,1-1,1,.9.9,0,0,1,.8-1h.2Z" fill="#fff"/>
            <path d="M312.3,174.7a.9.9,0,1,1-.9.9h0A.9.9,0,0,1,312.3,174.7Z" fill="#fff"/>
            <path d="M312.3,180.7a.8.8,0,1,1-.8.8h0A.9.9,0,0,1,312.3,180.7Z" fill="#fff"/>
          </g>
          <g>
            <circle cx="319" cy="128.8" r="2" fill="#fff"/>
            <path d="M319,132.8a1.9,1.9,0,0,1,1.5,2.2,2.1,2.1,0,0,1-1.4,1.5H319a2,2,0,0,1-2.3-1.4,1.9,1.9,0,0,1,1.4-2.3h0A1.4,1.4,0,0,1,319,132.8Z" fill="#fff"/>
            <circle cx="319" cy="140.5" r="1.7" fill="#fff"/>
            <path d="M319,144.8a1.6,1.6,0,0,1,1.6,1.6h0a1.6,1.6,0,1,1-1.6-1.6Z" fill="#fff"/>
            <path d="M319,150.8a1.4,1.4,0,0,1,1.4,1.4,1.5,1.5,0,0,1-1.4,1.5,1.5,1.5,0,0,1-1.5-1.5A1.5,1.5,0,0,1,319,150.8Z" fill="#fff"/>
            <circle cx="319" cy="158" r="1.3" transform="translate(112 447.6) rotate(-80.8)" fill="#fff"/>
            <circle cx="319" cy="163.9" r="1.2" fill="#fff"/>
            <path d="M319,168.8a1,1,0,1,1-1,1,.9.9,0,0,1,.8-1h.2Z" fill="#fff"/>
            <path d="M319,174.7a.9.9,0,1,1-.9.9h0A.9.9,0,0,1,319,174.7Z" fill="#fff"/>
            <path d="M319,180.7a.8.8,0,1,1-.8.8h0A.9.9,0,0,1,319,180.7Z" fill="#fff"/>
          </g>
          <g>
            <circle cx="325.6" cy="128.8" r="2" fill="#fff"/>
            <circle cx="325.6" cy="134.6" r="1.9" fill="#fff"/>
            <circle cx="325.6" cy="140.5" r="1.7" fill="#fff"/>
            <circle cx="325.6" cy="146.4" r="1.6" fill="#fff"/>
            <path d="M325.6,150.8a1.5,1.5,0,0,1,1.5,1.4,1.5,1.5,0,0,1-1.5,1.5,1.5,1.5,0,0,1-1.4-1.5A1.4,1.4,0,0,1,325.6,150.8Z" fill="#fff"/>
            <circle cx="325.6" cy="158.1" r="1.3" fill="#fff"/>
            <circle cx="325.6" cy="163.9" r="1.2" fill="#fff"/>
            <path d="M325.6,168.8a1,1,0,1,1-1,1,.9.9,0,0,1,.8-1h.2Z" fill="#fff"/>
            <path d="M325.6,174.7a.9.9,0,1,1-.9.9h0A.9.9,0,0,1,325.6,174.7Z" fill="#fff"/>
            <path d="M325.6,180.7a.8.8,0,1,1-.8.8h0A.9.9,0,0,1,325.6,180.7Z" fill="#fff"/>
          </g>
          <g>
            <circle cx="332.4" cy="128.8" r="2" fill="#fff"/>
            <path d="M332.3,132.8a2.1,2.1,0,0,1,1.9,1.9,1.9,1.9,0,1,1-3.8,0h0A2.1,2.1,0,0,1,332.3,132.8Z" fill="#fff"/>
            <circle cx="332.3" cy="140.5" r="1.7" fill="#fff"/>
            <path d="M332.3,144.8a1.6,1.6,0,0,1,1.6,1.6h0a1.6,1.6,0,1,1-1.6-1.6Z" fill="#fff"/>
            <circle cx="332.3" cy="152.2" r="1.4" fill="#fff"/>
            <circle cx="332.3" cy="158.1" r="1.3" fill="#fff"/>
            <circle cx="332.3" cy="163.9" r="1.2" fill="#fff"/>
            <path d="M332.3,168.8a1,1,0,1,1-1,1,.9.9,0,0,1,.8-1h.2Z" fill="#fff"/>
            <path d="M332.3,174.7a.9.9,0,1,1-.9.9h0A.9.9,0,0,1,332.3,174.7Z" fill="#fff"/>
            <path d="M332.3,180.7a.8.8,0,1,1-.8.8h0A.9.9,0,0,1,332.3,180.7Z" fill="#fff"/>
          </g>
        </g>
        <g>
          <g>
            <polygon points="218.5 311.4 263.8 301.7 279.6 304.6 236.8 314.6 218.5 311.4" fill="#231f20"/>
            <polygon points="240.7 315.4 286 305.7 301.9 308.5 259 318.6 240.7 315.4" fill="#231f20"/>
            <polygon points="263 319.3 308.3 309.7 324.1 312.5 281.3 322.6 263 319.3" fill="#231f20"/>
          </g>
          <path d="M266.3,293.5l2.4-.5a1,1,0,0,0-.5-.6c-.4.1-2.7.5-1.9,1.1m-4.2,2.1c-.5-.5-.6-.7-.8,0Zm3.9-2.5a3.4,3.4,0,0,1,1.2-1.2c-.5-.3-.8-.5-1-.4a1.5,1.5,0,0,0-.8,1.1Zm-2.3,1.8c.4-.4,1-.6,1.3-1.1a1.3,1.3,0,0,0-.9-.7c-1.6,1.4-.8.9-.4,1.8Zm26.6,6.8c.2-1.9,1-1.9,1-1.9,15.7-3.8,26.8-7.7,33.2-11.9q-10.8,8.3-34.2,13.8Zm27.8-20.3c-9.2,7-29.3,13-40.9,14.8a75.5,75.5,0,0,0,17-2.2q16.2-3.7,24-8.4c-5.6,3.9-13.5,7.2-23.8,9.9l.3,1.5a34.5,34.5,0,0,0,10-2.7c-2.9,1.8-6.8,3-11.7,3.7h-.4a4.3,4.3,0,0,0-2.2.6,2.7,2.7,0,0,0-1.1,1.8c0,.2-.1.6-.2,1.2l-.3,1.2c.2.3,1,.4,2.3.1a17.6,17.6,0,0,0,4.4-1.5l.6,1.5c4.4-.9,7.8-2,10.1-3.4-4.2,3-12.4,5.5-17.6,5.7-.3-1.2-.5-1.8-.5-1.8h-1.3c-4,1.3-8.2,2.6-12.5,3.6a67,67,0,0,1-12.6,1.7c-3.8.2-8,.3-9.2-.1,4.3,3.2,25.6,1.4,32.4-.1l4.5-.8c2.1-.2,6.6-.3,7.7-2.3,1.3,2.3-1.7,3.2-3.5,3.3a9.2,9.2,0,0,1-3.7.5,8,8,0,0,1-3.4.7,8,8,0,0,1-3.4.7,5.9,5.9,0,0,1-3.2.6c-.8.7-2.5.7-3.5.7-14.4,3.3-29.2,1.6-18.4.7,3.6-.3.3-.2-.1-1l-.5.4c-1.8-.1-3-.4-3.5-.9h-.4c-2.5-.4-8-2.5-7.7-5.6a5.5,5.5,0,0,1,2.4-4,3.7,3.7,0,0,1,1.8-.8c2.8-.8,7.5-2.6,9.1-4.8,1-.3,3-.5,6.8,2,1,.7.5-.9-1.2-2,2.3-.8,2.3.1,3.2,0s-.5-1.5-1.4-1.5c2.1-1.4,2.8-.2,4.5-.1s.3-.1.3-.3a1.9,1.9,0,0,0-1.6-1.1c-1-.1-.2-.6-.6-.9h2.3l1.6.4c.3,0,.6.2.7-.1s-2.6-1.5-2-1.9a3.6,3.6,0,0,1,2.3.2c5.7,2-.6-2.6-4.6-1.7a5.4,5.4,0,0,1,1.6-1.4l.5-.3.6-.2.7-.6c1-.9,4-3.5,5.4-3.4s4.7,3.1,4,5.4a2.9,2.9,0,0,1-.9,1.5h.5a13.4,13.4,0,0,0,3.9-3.2c.8-1,1.3-2,2.3-2.5a2,2,0,0,1,2.1,0c1,.5,1.9,2.4,2.6,4.1a34.3,34.3,0,0,1-4.4,1.9c8.3-.3,22.9-4.4,29.8-8.8Zm-51,9.4c.4.9,4.2.5,4.2.5-.8-2.1-4.5.6-2.9-1l.4-.5c-.9-.3-1.7,1-1.7,1Z" fill="url(#af5fe726-22dd-4a4c-8ee9-e445df2c8266)"/>
        </g>
      </g>
    </g>
    <g>
      <g>
        <path d="M34.6,11.7a.9.9,0,0,1-.4.8l-3.5,3.6-3.8-2.2V11.7a1.1,1.1,0,0,1,2.2,0h0v2.7l3.6-3.5a1.1,1.1,0,0,1,1.5,0,.9.9,0,0,1,.4.8" fill="#fff"/>
        <path d="M33.4,22H33l-.3-.2-3.6-3.5V21a1.1,1.1,0,0,1-2.2,0V18.7l3.8-2.2,3.5,3.6a1.1,1.1,0,0,1,0,1.6h0a1.1,1.1,0,0,1-.8.3" fill="#fff"/>
        <path d="M30.5,16.2h-.1l-1-.6L26.9,14l-2.2-1.2c-.1-.1-.2,0-.3.1h-.1v6.6l.3.2h.1l2.2-1.3,3.5-2h.1Zm-.8.2c-.1,0-.1,0-.1.1h0L26.8,18l-1.6,1c-.1.1-.2,0-.3-.1h0V13.7l.2-.2h.1l1.6.9L29.6,16a.4.4,0,0,1,.1.3Z" fill="#fff"/>
        <path d="M28.9,16.3h-.1l-2,1.2-1.3.7h-.2v-4c.1,0,.1,0,.1.1l1.3.7,2,1.2c.1,0,.1,0,.1.1h0" fill="#fff"/>
      </g>
      <g>
        <path d="M53.1,16.2V16L50,14.5l-1.9-1c-.2-.1-.4,0-.4.2v5.2c0,.1.2.2.3.2L49.9,18,53,16.4h.1Zm-.7.1h-.1l-2.4,1.2-1.5.8c-.1.1-.2,0-.2-.1v-4a.2.2,0,0,1,.2-.2h.1l1.5.8L52.4,16h.1Z" fill="#fff"/>
        <path d="M51.7,16.3h-.1l-1.8,1-1.1.6h-.2V14.7h.2l1.1.6,1.8.9h.1" fill="#fff"/>
        <path d="M36.9,13.6h2.7a2.1,2.1,0,0,1,2.3,1.9h0a2.2,2.2,0,0,1-2.3,1.8H38.2V19H36.9Zm2.6,2.5c.6,0,1-.3,1-.7a.9.9,0,0,0-1-.8H38.2v1.6Z" fill="#fff"/>
        <path d="M47,18v1H42.7V13.7H44V18Z" fill="#fff"/>
        <path d="M54.5,17l-2.4-3.5h1.5l1.6,2.4,1.5-2.4h1.5L55.8,17v1.9H54.6Z" fill="#fff"/>
        <path d="M59,13.8h.7v3l3.1-3h.9l-2.5,2.5,2.7,2.9H63l-2.3-2.5-.9.9v1.6h-.7Z" fill="#fff"/>
        <path d="M64.2,16.5a3.2,3.2,0,0,1,3.1-2.9,3,3,0,0,1,3.1,2.8,3,3,0,0,1-2.8,2.8h-.2A3.1,3.1,0,0,1,64.2,16.5Zm5.5-.1a2.3,2.3,0,0,0-2.4-2.2h0a2.4,2.4,0,0,0-2.4,2.3,2.5,2.5,0,0,0,2.5,2.2,2.3,2.3,0,0,0,2.3-2.3Z" fill="#fff"/>
        <path d="M71.3,18.4l.4-.5a3,3,0,0,0,2,.8c1,0,1.4-.5,1.4-1s-.5-.8-1.6-1-2-.6-2-1.5.8-1.5,2-1.6a3.2,3.2,0,0,1,2.1.8l-.4.5a2.2,2.2,0,0,0-1.7-.7c-.8,0-1.3.5-1.3,1s.6.7,1.6.9,2,.6,2,1.6-.7,1.5-2.1,1.6A3.6,3.6,0,0,1,71.3,18.4Z" fill="#fff"/>
        <path d="M77.1,13.8h.7l2.3,3.8,2.2-3.8H83v5.4h-.7V15.1l-2.2,3.8-2.3-3.8v4.1h-.6Z" fill="#fff"/>
        <path d="M84.3,16.5a3.1,3.1,0,0,1,3-2.9,3.2,3.2,0,0,1,3.2,2.8,3,3,0,0,1-3.1,2.8,2.9,2.9,0,0,1-3.1-2.7Zm5.5-.1a2.7,2.7,0,0,0-5.2-.4,2.4,2.4,0,0,0,1.8,2.7h.1a1.4,1.4,0,0,0,.9,0A2.4,2.4,0,0,0,89.8,16.4Z" fill="#fff"/>
        <path d="M91.3,18.4l.5-.5a3,3,0,0,0,2,.8c.9,0,1.4-.5,1.4-1s-.6-.8-1.7-1-2-.6-2-1.5.9-1.5,2-1.6a3.5,3.5,0,0,1,2.2.8l-.5.5a2.2,2.2,0,0,0-1.7-.7,1.2,1.2,0,0,0-1.3,1c0,.5.6.7,1.7.9s1.9.6,2,1.6-.7,1.5-2.2,1.6A4.2,4.2,0,0,1,91.3,18.4Z" fill="#fff"/>
      </g>
    </g>
    <g>
      <path d="M12.5,300.2c-.6.3-.9,0-.5-.6l1.6-2.9a3.1,3.1,0,0,0,0-2.3L12,291.6c-.4-.7-.1-.9.5-.6l8,4c.7.3.7.8,0,1.2Z" fill="#231f20"/>
      <path d="M119.5,300.2c-.7.3-.9,0-.6-.6l1.6-2.9a2.4,2.4,0,0,0,0-2.3l-1.6-2.8q-.5-1.1.6-.6l8,4c.6.3.6.8,0,1.2Z" fill="#231f20"/>
      <path d="M12.5,322.3c-.6.3-.9.1-.5-.5l1.6-2.9a3.1,3.1,0,0,0,0-2.3L12,313.7c-.4-.6-.1-.9.5-.5l8,4c.7.3.7.8,0,1.1Z" fill="#231f20"/>
      <path d="M119.5,322.5c-.7.3-.9,0-.6-.6l1.7-3a2.4,2.4,0,0,0,0-2.3l-1.7-3c-.3-.6-.1-.9.6-.6l8.2,4.1c.7.4.7.9,0,1.2Z" fill="#231f20"/>
    </g>
    <g>
      <path d="M19.6,202.3a4.4,4.4,0,0,0-5.1-1.1,4.3,4.3,0,0,0-2.9,3.9c-.2,3.4,3,4.8,4.3,7.3.1.3.6.1.9-.2a42.9,42.9,0,0,0,3.6-4.8A4.1,4.1,0,0,0,19.6,202.3Zm-3.3,4.3a1.4,1.4,0,1,1,1.4-1.4h0A1.4,1.4,0,0,1,16.3,206.6Z" fill="#231f20"/>
      <path d="M16.2,215.6a10.1,10.1,0,0,1-5.9-1.1c-1.2-.6-2-1.6-1-2.8a3.3,3.3,0,0,1,3.9-1.4c.8.3.5,1-.3,1.3s-1.7.2-1.6,1.1,1.3.8,2.1,1a12.2,12.2,0,0,0,6.3-.1c.6-.1,1.4-.1,1.5-.9s-.7-.8-1.2-.9-1.5-.3-1.1-1.2,1.1-.6,1.7-.4,2.7.7,2.9,2.2-1.2,2.1-2.4,2.6A11.6,11.6,0,0,1,16.2,215.6Z" fill="#231f20"/>
    </g>
  </g>
</svg>
