<svg id="e204d699-a0ab-4005-8ac0-d16003b0fbe0" data-name="Layer 1"
  xmlns="http://www.w3.org/2000/svg" width="335" height="335" viewBox="0 0 335 335">
  <defs>
    <clipPath id="f665ac84-0808-4382-92bb-3f1bda7f8fcd">
      <rect width="335" height="335" fill="none" />
    </clipPath>
    <linearGradient id="ea891a88-db89-4107-a366-6dfc5a7fb357" x1="167.5" y1="335" x2="167.5"
      gradientUnits="userSpaceOnUse">
      <stop offset="0.01" />
      <stop offset="1" stop-color="#c1272d" />
    </linearGradient>
    <filter id="e43c5a5a-0f36-4d5b-8ccc-21bc7f4cfc25" x="269.99" y="74.99" width="9" height="17">
      <feOffset dx="-1.39" dy="1.39" />
      <feGaussianBlur stdDeviation="0.84" result="e7c0a4ba-9456-4643-802d-18bd7980a956" />
      <feFlood />
      <feComposite operator="in" in2="e7c0a4ba-9456-4643-802d-18bd7980a956" />
      <feComposite in="SourceGraphic" />
    </filter>
    <filter id="fb35dcd6-dc7f-4d47-9b83-558aed5fc47e" x="271.99" y="90.99" width="19" height="16">
      <feOffset dx="-1.39" dy="1.39" />
      <feGaussianBlur stdDeviation="0.84" result="a8846417-5ffc-4dac-ba0c-8c474a7ee452" />
      <feFlood />
      <feComposite operator="in" in2="a8846417-5ffc-4dac-ba0c-8c474a7ee452" />
      <feComposite in="SourceGraphic" />
    </filter>
    <filter id="f88428d8-7137-43f0-b070-a0abf9de7b12" x="106.13" y="203.13" width="211" height="8">
      <feOffset dx="-1.31" dy="1.31" />
      <feGaussianBlur stdDeviation="0.79" result="a84e16a3-1729-49ec-b83b-9b5540c62ffa" />
      <feFlood />
      <feComposite operator="in" in2="a84e16a3-1729-49ec-b83b-9b5540c62ffa" />
      <feComposite in="SourceGraphic" />
    </filter>
    <filter id="b082367c-ead1-4358-bf29-07bfcd1763e5" x="106.13" y="248.13" width="211" height="7">
      <feOffset dx="-1.31" dy="1.31" />
      <feGaussianBlur stdDeviation="0.79" result="e4848be9-b193-4441-a41b-5752b201023e" />
      <feFlood />
      <feComposite operator="in" in2="e4848be9-b193-4441-a41b-5752b201023e" />
      <feComposite in="SourceGraphic" />
    </filter>
  </defs>
  <g>
    <g clip-path="url(#f665ac84-0808-4382-92bb-3f1bda7f8fcd)">
      <rect width="335" height="335" fill="url(#ea891a88-db89-4107-a366-6dfc5a7fb357)" />
      <g>
        <g>
          <polygon points="254.1 6.1 254.1 24.6 280.8 9.2 307.5 24.6 307.5 6.1 280.8 -9.3 254.1 6.1"
            fill="#fff" />
          <polygon
            points="250.3 52.9 250.3 74.1 280.8 56.5 311.3 74.1 311.3 52.9 280.8 35.3 250.3 52.9"
            fill="#fff" />
          <polygon
            points="241.7 107.4 241.7 134.5 280.8 111.9 319.9 134.5 319.9 107.4 280.8 84.8 241.7 107.4"
            fill="#fff" />
        </g>
        <g>
          <path
            d="M309-26.7c-1.6.3-6.1,2.7-6.1,2.7L288-26.3l-.6,4.9v3l.6,4.6,1.2,2.9c.1.5.5,4.9.5,4.9s-1.2,10.8-1.3,15.6-.5,13.5-.4,16,3.6,12.9,2.8,16.9a15.4,15.4,0,0,0,1.1,9.4c1.2,2.5.7,5.7,1.2,7.5a19.1,19.1,0,0,0,.7,2.4l-5.2,5.9-3,18.5.3,1.1s4.6-2.5,4.6-3a44.9,44.9,0,0,1,1.5-9,101.9,101.9,0,0,1,4.6-11.1l.2-.2a12.5,12.5,0,0,0,1.1-2.3h0a111.8,111.8,0,0,0,4.4-17.2c.6-4.2-.2-8.2-.4-11.9s1.4-16.9,1.9-20,4.8-16,5.7-19.5,4.2-20.6,4.2-20.6-3,.4-4.7.8Z"
            fill="#995845" />
          <path
            d="M295.8-10c-.2-.3-5-2.1-7-5-.5-.8-.7-5.7-.8-6.7s-.2-2.6-.4-1.3-.2,1.6-.2,3.9c0,.6-1.2,44-1.2,45.6s3.4.6,3.1-2,3.9-11.9,5.3-14,1.3-20.2,1.2-20.5Z"
            fill="#e09b8d" />
          <path
            d="M258.9-24s3.5,16.1,4.2,20.2,5.4,24,5.5,24.7-.6,2.7-.6,3.6.6,7.9,2,9.8,7.2,6.4,7.2,6.4l5.6-11.8s-3.7.8-4-2.8-1-9.1-1-9.1L276,7l-6.3-33.7L258.9-24Z"
            fill="#cf8d78" />
          <path
            d="M265.7-23.6s3.4,14.2,4.6,17.4,2.8,14.5,3.3,16.9,1.5,5.9,1.3,7.2.3,4.5,1,5.6,3.9,4.9,4.6,6.1,5.9,5.6,5.9,5.6l1.6-4.7-.6-8s-.3-5.6-.4-10-.1-20-.2-23,.5-14.4.4-16.2-18.2-2.6-19.6-2-1.9,5.1-1.9,5.1Z"
            fill="#995845" />
          <path
            d="M287.8,68.4a22.2,22.2,0,0,0-4.6-.4s.7,5.4.2,6.8a24.8,24.8,0,0,1-1.9,3.1l-1.3,2.6c-.2.7.7,2.6,1,3.1a7.5,7.5,0,0,0,2.2,2.6c.8.4,1.7,1.1,2.5.8S289,73.3,289,72.1s-.3-3.4-1.2-3.8Z"
            fill="#e09b8d" />
          <path d="M271.3,11.4s1.4,4.7.4,7c0,0-.2-3.4-.4-4.4A7,7,0,0,1,271.3,11.4Z" fill="#995845"
            opacity="0.3" style="isolation: isolate" />
          <path d="M268.7,21.7s3-3.2,4.2-3.1a4.5,4.5,0,0,0-4.2,3.1Z" fill="#995845" opacity="0.3"
            style="isolation: isolate" />
          <path d="M295.3,18.6l-1.4,7s.6,1.8.9.9a78.3,78.3,0,0,0,.8-7.9c0-.5-.3,0-.3,0Z"
            fill="#824436" opacity="0.2" style="isolation: isolate" />
          <path d="M299.6,18.3l-.8,9.3s1.9,2,2.1.8-.6-9.6-.8-10.2-.5.1-.5.1Z" fill="#824436"
            opacity="0.3" style="isolation: isolate" />
          <path d="M296.1,23.4l2,.5s.6-.1.3-.2l-2.3-.4c-.2,0,0,.1,0,.1Z" fill="#824436"
            opacity="0.3" style="isolation: isolate" />
          <polygon
            points="276.8 100.4 278.4 102.1 279.5 102.4 280.9 101.2 280.3 99.9 278.2 99.1 276.8 100.4"
            fill="#60203a" />
          <path
            d="M276.8,74a6,6,0,0,1,4.1-4.4l2.7,2V74a7.7,7.7,0,0,1-1.3,3l-2.5,2.8c-.2.3-1.6.2-1.8-.1s-1.2-1.2-1.2-1.6V74Z"
            fill="#8f819a" />
          <path
            d="M278.8,78.8l1,.4-1,2.9v3.7l.5,1.5,1.9.7,2.3.9,3.1.6h2.1l1.8-1.1.3-1.2a47.3,47.3,0,0,1,.1,5.4c-.2.3-6,1.1-7.1.9a31.6,31.6,0,0,1-4.7-2.1c-.2-.1-2.3-3.4-2.3-3.4V85.9a26,26,0,0,0,0-2.8c0-.2,2-4.3,2-4.3Z"
            fill="#c5bccd" />
          <path
            d="M277.3,48a23.6,23.6,0,0,1-.5-3.3c0-1.1.4-3.4.3-4.3s0-2,0-3.3.2-2.2.2-2.7,1.4-3.9,2.4-4.6.8.8,1.5,1.9,1.6,1.4,1.6,3.1a44.7,44.7,0,0,0,0,6.4c.2.5-1.9,8-1.9,8.3s-1.7,3.8-1.1,4.7.5,2.7.7,3.5.2,1.9.4,2.7,1.6,4.7,1.9,6.1a53.7,53.7,0,0,0,2.1,6.2,9.9,9.9,0,0,1-4.7-3.6c-1.5-2.5-2.4-6.6-2.9-9.5s0-10,0-10.8V48Z"
            fill="#b4a9aa" />
          <path
            d="M294.5,33.8s-1.5,10.7,0,13.8a5.6,5.6,0,0,1,.7,3.3c0,1.2-5.2-1.4-5.3-3.3s-.8-7.5,0-9.2,4.6-4.6,4.6-4.6Z"
            fill="#544847" />
          <path
            d="M278.7,49.5l-.6.9-.3,2.6v3.3l.4,2,.5,2.8.8,2.7.6,3.2,1.7,2.6,1-.9-1.6-4.9-.9-5.3a41.5,41.5,0,0,0,0-5c-.3-.6-1.3-4-1.3-4Z"
            fill="#904350" />
          <path
            d="M292.9,47.2a28.7,28.7,0,0,1,2.4,3.3,5.4,5.4,0,0,1-.1,1.6v.8h1l.9,2.9-.6,1.1.2.6.4.2s.1,2.9,0,3.5-1.3.8-1.3.8l.2.8.8.6s-.7,2.4-1.3,4a11.9,11.9,0,0,1-3.6,4.7c-1.8,1.4-4.7,2.1-6.4,1a19.8,19.8,0,0,1-4.1-3.8c-.2-.2.8-1.1.8-1.1l-.3-.5-1.6-.2s-1.5-2.7-1.4-3.9l1.2-.2V62l-1.8-.5a19,19,0,0,1-.5-2.7V58l1.1-.2V56.7l-1.7-1V52.5H279V51l-1.1-.7s1.2-4.6,1.7-4.6v-1l.9-2.7.4-2.2-.4-3.2-.9-2.5.5-4.6v-3l.7-1.4a4.8,4.8,0,0,1,2.6-2.9,21.3,21.3,0,0,1,7.8-.3c.4.3,0,1.5,0,1.5l.7.4.6-.7a5.1,5.1,0,0,1,1.9,2.4,24.1,24.1,0,0,1,.7,7.1,11,11,0,0,1-1.3,4.1c-.8.9-2.4,7.4-1.9,8"
            fill="#0d0d0b" />
          <g>
            <rect x="293.9" y="29.8" width="1.3" height="1.11" fill="#904350" />
            <path d="M294.5,49.5Z" fill="#904350" />
            <path
              d="M293.4,39.7l.8-2.3a4,4,0,0,0,0-1.1s-1.5-.2-1.7,0,.9.7.9.8-2.6,5.7-2.1,7,1.2,2.1.7,2.1a.8.8,0,0,0-.7.5l1.4.9a10.5,10.5,0,0,1,1.8,1.9,8.1,8.1,0,0,1-1.6-4.1c0-1.9,0-4.5.5-5.7Z"
              fill="#904350" />
            <path
              d="M281.1,38.9a6.5,6.5,0,0,1,.5-2.7c.3-.6-.4-.7-.4-.7l-.9-.6a16,16,0,0,1-.3-2.3,8.4,8.4,0,0,1,0-1.6l1.2-1.2v-.4l-.9-.5.4-2.9a7.2,7.2,0,0,1,1.6-2.9,3.9,3.9,0,0,0-1.7,1.6,9.1,9.1,0,0,0-1,3.3c0,.7.2,1.6-.2,1.8s-.1,2.2-.3,2.9.5,3.1.7,4.4a18.6,18.6,0,0,1,.1,4.1c0,1.3-.8,3.3-.8,4v1.3a6.3,6.3,0,0,0,1.4,0,.9.9,0,0,0,.7-.6,1,1,0,0,0-.6-.7c-.3,0-.7-.6-.7-1.1a5.8,5.8,0,0,1,1.3-2.2c.2-.2.9,0,1.1,0s.5-.7.5-.7l-.9-.7a4,4,0,0,1-.8-1.6Z"
              fill="#904350" />
          </g>
          <path
            d="M285.3,27.1s3.2-1.3,4.1,0,1.5,5.1,1,6.4-2.6,6.4-2.4,7.9a26.2,26.2,0,0,0,.5,3.3h-2.8s-2.5,4.9-2.4,6.2v.5h6.9l.4,1.1H283s-1.3,3.2-.7,3.7h9.2l.5,1.7h-9.8s.6,4.1,1.1,4.3h8.1v1.3h-8s1.6,3.6,2.1,3.9h6.1l.3,1.3h-6.8s-4.3-6-4-11.4,2.3-11.4,3.4-12.8l1.4-.8-.9-1.2a25,25,0,0,0,0-5.6,32.6,32.6,0,0,1-.8-5.7,9.4,9.4,0,0,1,1-4.1Z"
            fill="#2f2d2a" />
          <path
            d="M282.8,76.9s-2.8,3.8-2.5,4.3a22,22,0,0,0,2.8,3.6,7.3,7.3,0,0,0,2.1,1.6c.5.3.9.1,1.4,0l1.9-.8,1.3-.7.7-1.2s.7.4.7.7-.3,2.4-.3,2.4l-1.8,2.5-3.4-.5a22.4,22.4,0,0,0-2.4-.3l-2.4-.5s-.8-.4-.9-.6a2.3,2.3,0,0,1-.7-1.5c0-.8-.1-2.3,0-3.2s-.4-1.6,0-1.9.4-1.3,1-1.9a10.8,10.8,0,0,1,1.3-1.5,4.2,4.2,0,0,1,1.2-.5Z"
            fill="#fbf8fc" />
          <path
            d="M276.5,86.6a14.9,14.9,0,0,1,.8,3.9c0,1.1-.4,3.5-.3,4s-.1,2.3.3,2.7a9.1,9.1,0,0,1,1,2l1.1-.2.9.7,4.9,1.5h2.1l1.5-1.4a15.5,15.5,0,0,0,.4-1.5,5.1,5.1,0,0,1,0-1.8c.2-.6.4-1.8.5-2.1a8.1,8.1,0,0,1,1.2-1.8c.1-.1.2-.7-.3-.4l-2,.9a4.8,4.8,0,0,1-2.9,0,35.9,35.9,0,0,1-4.3-1.4c-1-.5-3.1-1.6-3.4-2.1a20.1,20.1,0,0,1-1-1.8,30.5,30.5,0,0,1,0-3.1,7.7,7.7,0,0,1,.8-2.7c.3-.8.8-2.4,1.3-2.6s.7-1.5.5-1.3-.9.5-.8,0a9.1,9.1,0,0,1,.3-1.2,3.1,3.1,0,0,1,1.2-.7l1.9-.6c.3,0,.6-.6.3-.6h-1.3L278,76.9l-1-1.1V74.7s.6-2.1.8-2,2.1-2.3,2.1-2.3a15.3,15.3,0,0,0-2.1,1.3c-.7.8-1.6,3-2,3.5a3.8,3.8,0,0,0-.5,2.2v2.3c-.1.2-.4,1.5-.4,1.5l.6,2.2.9,2.1v1.1Z"
            fill="#1f2020" />
          <path
            d="M276.8,88l-1.1-1.3.3-1.2-.6-.4-.3-.7-.5-.5v-1l.5-.4-.5-.7V79.5l.5-.3-.5-.6.3-.8v-.9l.3-.3s.6,1,.4,1.2a8.2,8.2,0,0,0-.5,3.3,15.3,15.3,0,0,0,.8,2.6l.8,1.6c.4.5,0,2.7,0,2.7Z"
            fill="#ffc8db" filter="url(#e43c5a5a-0f36-4d5b-8ccc-21bc7f4cfc25)" />
          <path
            d="M277.3,92.2s-1.3,3.2-1.2,3.9-.3,3.8.1,4.3l2.2,1.7,1.1-2.6.4.2-.8,2.7s4.8.6,6.1.6a4.1,4.1,0,0,0,2.5-.7,8.4,8.4,0,0,0,1.2-1.9,3.2,3.2,0,0,0,0-1.4l-3.2,1.4a32.7,32.7,0,0,1-4.8-.7c-.7-.4-3-1-3.1-2.1s-.3-4.8-.5-5.4Z"
            fill="#9a3a5c" filter="url(#fb35dcd6-dc7f-4d47-9b83-558aed5fc47e)" />
          <path
            d="M281.2,77.9l-.6.7-.3,1-.9,1.6v3.1l.4,2.2a6.3,6.3,0,0,0,1.4,1.2l2.3,1,3.4.5a5.3,5.3,0,0,0,1.8-.1c.4-.1,1.1-1,1.1-1l.6-1.2c.1-.1.3-.4.5-.3s0,1.9,0,1.9v1.6H289c-.3-.1-1.2-.4-1.2-.1s.1.6.1,1a4.5,4.5,0,0,1-.6,1.4l-.3,1.1a2.3,2.3,0,0,1-1.2.1,9.4,9.4,0,0,1-2.8-1,1.3,1.3,0,0,1-.2-1.1,4.1,4.1,0,0,0,.3-1.2,5.3,5.3,0,0,0-.3-1.1l-1.6-.6a4.7,4.7,0,0,1-1.8-.3,15.1,15.1,0,0,1-.9-1.4,3.9,3.9,0,0,1-.4-2.5c.2-1,.3-2.7.6-3.6a17.3,17.3,0,0,1,2.5-2.7Z"
            fill="#6e193c" />
        </g>
      </g>
      <g>
        <g>
          <path
            d="M32,17.9a1.7,1.7,0,0,1-.5,1.2l-5.4,5.4-5.8-3.3V17.9A1.8,1.8,0,0,1,22,16.2a1.7,1.7,0,0,1,1.7,1.7h0V22l5.4-5.3a1.6,1.6,0,0,1,2.4,0,1.8,1.8,0,0,1,.5,1.2"
            fill="#fff" />
          <path
            d="M30.3,33.6l-.6-.2c-.3,0-.4-.2-.6-.3l-5.4-5.4v4.2A1.7,1.7,0,0,1,22,33.6a1.8,1.8,0,0,1-1.7-1.7V28.6l5.8-3.3,5.4,5.4a1.7,1.7,0,0,1-1.2,2.9"
            fill="#fff" />
          <path
            d="M25.9,24.8c-.1-.1-.1-.2-.2-.2h0l-1.5-.9-3.9-2.2L17,19.6c-.2-.2-.4-.1-.5.1s-.1.1-.1.2v10a.4.4,0,0,0,.4.4c.1,0,.2,0,.2-.1l3.3-1.9,5.4-3.1h0c.1-.1.1-.1.1-.2h.1Zm-1.3.2h-.2l-4.1,2.4L17.7,29a.2.2,0,0,1-.4-.1h-.1V21a.3.3,0,0,1,.3-.3h.2l2.6,1.5,4.1,2.4a.5.5,0,0,1,.2.4Z"
            fill="#fff" />
          <path
            d="M23.4,24.9a.3.3,0,0,1-.1.2l-3.1,1.8-2,1.1c-.1.1-.2,0-.3-.1h0V22c0-.2.1-.3.2-.3a.1.1,0,0,1,.1.1l2,1.1,3.1,1.8h.1"
            fill="#fff" />
        </g>
        <g>
          <path
            d="M60.3,24.7a.2.2,0,0,0-.2-.2l-4.8-2.4-2.9-1.5a.4.4,0,0,0-.5.3v7.9a.3.3,0,0,0,.5.3l2.9-1.6L60.1,25a.2.2,0,0,0,.2-.2Zm-1.2.1V25l-3.7,1.9-2.2,1.2c-.2.1-.4,0-.4-.2V21.8a.3.3,0,0,1,.3-.3.1.1,0,0,1,.1.1l2.3,1.1L59,24.6h.1Z"
            fill="#fff" />
          <path
            d="M58.1,24.8H58l-2.8,1.5-1.6.9a.2.2,0,0,1-.3-.1h0V22.5a.2.2,0,0,1,.2-.2h.1l1.7.8L58,24.6h.1"
            fill="#fff" />
          <path
            d="M35.5,20.7h4.1c2,0,3.5,1.1,3.5,2.7s-1.4,2.8-3.4,2.9H37.5V29h-2Zm4,4c1-.1,1.6-.5,1.6-1.2s-.7-1.2-1.7-1.2H37.5v2.3Z"
            fill="#fff" />
          <path d="M50.9,27.4V29H44.4V20.9h2v6.7Z" fill="#fff" />
          <path d="M62.4,25.9l-3.7-5.2h2.4l2.3,3.6,2.3-3.7h2.2l-3.5,5.3v3H62.5Z" fill="#fff" />
          <path d="M69.2,21.1h1.1v4.6l4.6-4.6h1.4l-3.8,3.9,4.2,4.4H75.3l-3.5-3.8-1.4,1.4v2.5H69.3Z"
            fill="#fff" />
          <path
            d="M77.2,25.2a4.6,4.6,0,0,1,4.7-4.4A4.5,4.5,0,0,1,86.6,25,4.6,4.6,0,0,1,82,29.4C79.4,29.4,77.2,27.5,77.2,25.2Zm8.4-.1a3.6,3.6,0,0,0-3.7-3.4,3.5,3.5,0,0,0-3.6,3.4A3.6,3.6,0,0,0,82,28.5a3.6,3.6,0,0,0,3.6-3.4Z"
            fill="#fff" />
          <path
            d="M88,28.1l.6-.7a4.4,4.4,0,0,0,3,1.1c1.5,0,2.2-.7,2.2-1.4s-.9-1.3-2.5-1.6-3.1-.8-3.1-2.3,1.3-2.3,3.1-2.4A4.7,4.7,0,0,1,94.5,22l-.6.7a4.5,4.5,0,0,0-2.7-1,1.7,1.7,0,0,0-1.9,1.4c0,.9.9,1.2,2.5,1.5s3,.9,3,2.4-1,2.4-3.2,2.4A5.3,5.3,0,0,1,88,28.1Z"
            fill="#fff" />
          <path d="M96.7,21.1h1.1l3.5,5.7,3.3-5.8h1.1v8.3h-1.1V23l-3.4,5.8-3.5-5.7v6.3H96.8Z"
            fill="#fff" />
          <path
            d="M107.7,25.2a4.6,4.6,0,0,1,4.6-4.4c2.6,0,4.8,1.9,4.8,4.2a4.6,4.6,0,0,1-4.6,4.4C109.9,29.4,107.7,27.5,107.7,25.2Zm8.3-.1a3.5,3.5,0,0,0-3.6-3.4,3.6,3.6,0,0,0-3.7,3.4,3.7,3.7,0,0,0,3.7,3.4,3.5,3.5,0,0,0,3.6-3.4Z"
            fill="#fff" />
          <path
            d="M118.5,28.1l.6-.7a4.2,4.2,0,0,0,3,1.1c1.5,0,2.2-.7,2.2-1.4s-.9-1.3-2.5-1.6-3.1-.8-3.1-2.3,1.3-2.3,3.1-2.4A4.7,4.7,0,0,1,125,22l-.6.7a4.5,4.5,0,0,0-2.7-1,1.7,1.7,0,0,0-1.9,1.4c0,.9.9,1.2,2.5,1.5s3,.9,3,2.4-1.1,2.4-3.2,2.4A5.3,5.3,0,0,1,118.5,28.1Z"
            fill="#fff" />
        </g>
      </g>
    </g>
    <g>
      <polygon points="50.8 312.5 45 312.5 49.8 320.9 45 329.2 50.8 329.2 55.6 320.9 50.8 312.5"
        fill="#fff" />
      <polygon points="37.2 312.5 31.4 312.5 36.3 320.9 31.4 329.2 37.2 329.2 42.1 320.9 37.2 312.5"
        fill="#fff" />
      <polygon points="23.7 312.5 17.9 312.5 22.7 320.9 17.9 329.2 23.7 329.2 28.5 320.9 23.7 312.5"
        fill="#fff" />
    </g>
    <rect x="110.2" y="204.9" width="205.2" height="1.58" fill="#ff0"
      filter="url(#f88428d8-7137-43f0-b070-a0abf9de7b12)" />
    <rect x="110.2" y="249.3" width="205.2" height="1.58" fill="#ff0"
      filter="url(#b082367c-ead1-4358-bf29-07bfcd1763e5)" />
    <rect x="6.3" y="219" width="88" height="17.78" rx="2.7" fill="#fff" />
    <polygon
      points="189.9 28 186.5 31.4 183.1 28 179.2 31.9 182.6 35.3 179.2 38.7 183.1 42.7 186.5 39.3 189.9 42.7 193.8 38.7 190.5 35.3 193.8 31.9 189.9 28"
      fill="none" stroke="#fff" stroke-miterlimit="10" stroke-width="0.59" opacity="0.4" />
    <polygon
      points="16.1 201.2 12.7 204.6 9.3 201.2 5.3 205.2 8.7 208.6 5.3 212 9.3 215.9 12.7 212.5 16.1 215.9 20 212 16.6 208.6 20 205.2 16.1 201.2"
      fill="none" stroke="#fff" stroke-miterlimit="10" stroke-width="0.59" opacity="0.4" />
    <g>
      <path
        d="M307.5,164.5c-1.1.5-1.1,1.3-.1,1.9l6.1,3.3c1.1.5,1.9,0,1.9-1.2v-5.6a1.2,1.2,0,0,0-1.9-1.2Z"
        fill="#fff" />
      <circle cx="305.5" cy="165.4" r="0.8" fill="#fff" />
    </g>
    <g>
      <path
        d="M307.5,186.2c-1.1.5-1.1,1.3-.1,1.9l6.1,3.3c1.1.5,1.9,0,1.9-1.2v-5.6a1.2,1.2,0,0,0-1.9-1.2Z"
        fill="#fff" />
      <circle cx="305.5" cy="187.1" r="0.8" fill="#fff" />
    </g>
    <g>
      <path
        d="M311,295.4c-1,.5-1,1.3,0,1.9l6.1,3.3a1.2,1.2,0,0,0,1.9-1.1v-5.7a1.2,1.2,0,0,0-1.9-1.2Z"
        fill="#fff" />
      <circle cx="309.1" cy="296.3" r="0.8" fill="#fff" />
    </g>
    <g>
      <path
        d="M311.9,317.1c-1.1.5-1.1,1.3-.1,1.9l6.2,3.3a1.1,1.1,0,0,0,1.8-1.1v-5.7a1.2,1.2,0,0,0-1.9-1.2Z"
        fill="#fff" />
      <circle cx="309.9" cy="318" r="0.8" fill="#fff" />
    </g>
    <g>
      <path
        d="M118.5,174c0,1.2-1.5,2.3-3.3,2.3H15.1c-1.8,0-3.2-1.1-3.2-2.3V163.3c0-1.3,1.4-2.3,3.2-2.3H115.2c1.8,0,3.3,1,3.3,2.3Z"
        fill="#ff0" />
      <g>
        <path
          d="M22.2,167.6c.9.4.9,1.1.1,1.6l-5.2,2.7c-.9.5-1.6.1-1.6-.9v-4.7a1.1,1.1,0,0,1,1.6-1.1Z" />
        <circle cx="23.9" cy="168.4" r="0.7" />
      </g>
    </g>
    <g>
      <g>
        <path
          d="M105.4,136.9c1.3.6,1.3,1.6.1,2.2L98.2,143c-1.2.7-2.2.1-2.2-1.3V135a1.5,1.5,0,0,1,2.3-1.4Z"
          fill="#fff" />
        <circle cx="107.8" cy="138" r="1" fill="#fff" />
      </g>
      <g>
        <rect x="11.9" y="130.7" width="75.7" height="15.29" rx="2.3" fill="#ff0" />
        <g>
          <path d="M21.3,137.3c.9.4.9,1.1.1,1.6l-5,2.6c-.8.5-1.5.1-1.5-.9v-4.5c0-1,.7-1.4,1.5-1Z" />
          <circle cx="23" cy="138.1" r="0.7" />
        </g>
      </g>
    </g>
  </g>
</svg>
