<?xml version="1.0" encoding="UTF-8"?>
<svg id="uuid-317cddaf-4285-4f63-98fa-c8e3a88fd290" data-name="uuid-d9ada2eb-60b5-4cb8-846c-f6a2a8cb22b2" xmlns="http://www.w3.org/2000/svg" width="335" height="335" xmlns:xlink="http://www.w3.org/1999/xlink" viewBox="0 0 335 335">
  <defs>
    <radialGradient id="uuid-57ce4513-9789-46fe-a5d4-bdba0a4611be" cx="167.5" cy="167.5" fx="167.5" fy="167.5" r="167.5" gradientTransform="translate(0 335) scale(1 -1)" gradientUnits="userSpaceOnUse">
      <stop offset="0" stop-color="#fff"/>
      <stop offset="1" stop-color="#e6e7e8"/>
    </radialGradient>
    <radialGradient id="uuid-2e8e0d1e-a3b9-45e2-bd9d-dd25c466ba7a" cx="322.18" cy="136.17" fx="322.18" fy="136.17" r="3.1" gradientTransform="translate(0 335) scale(1 -1)" gradientUnits="userSpaceOnUse">
      <stop offset="0" stop-color="#fff"/>
      <stop offset="1" stop-color="#e6e7e8"/>
    </radialGradient>
    <radialGradient id="uuid-00682490-a496-414c-968e-4e4fd38b958f" cx="322.18" cy="157.46" fx="322.18" fy="157.46" r="3.1" gradientTransform="translate(0 335) scale(1 -1)" gradientUnits="userSpaceOnUse">
      <stop offset="0" stop-color="#fff"/>
      <stop offset="1" stop-color="#e6e7e8"/>
    </radialGradient>
    <radialGradient id="uuid-9d18803b-c9ad-4de1-adfb-b2541426eed9" cx="321.11" cy="107.11" fx="321.11" fy="107.11" r="4.64" gradientTransform="translate(0 335) scale(1 -1)" gradientUnits="userSpaceOnUse">
      <stop offset="0" stop-color="#fff"/>
      <stop offset="1" stop-color="#e6e7e8"/>
    </radialGradient>
    <radialGradient id="uuid-34b8cb13-2d43-4e55-ac33-83aeaad25e41" cx="321.11" cy="100.88" fx="321.11" fy="100.88" r="2.73" gradientTransform="translate(0 335) scale(1 -1)" gradientUnits="userSpaceOnUse">
      <stop offset="0" stop-color="#fff"/>
      <stop offset="1" stop-color="#e6e7e8"/>
    </radialGradient>
    <radialGradient id="uuid-f845a7ec-02ea-4e31-a2ee-50adb752bce8" cx="322.18" cy="77.11" fx="322.18" fy="77.11" r="3.1" gradientTransform="translate(0 335) scale(1 -1)" gradientUnits="userSpaceOnUse">
      <stop offset="0" stop-color="#fff"/>
      <stop offset="1" stop-color="#e6e7e8"/>
    </radialGradient>
    <radialGradient id="uuid-536ff11e-47d8-4469-9c96-97b268cbd3f7" cx="322.18" cy="55.25" fx="322.18" fy="55.25" r="3.1" gradientTransform="translate(0 335) scale(1 -1)" gradientUnits="userSpaceOnUse">
      <stop offset="0" stop-color="#fff"/>
      <stop offset="1" stop-color="#e6e7e8"/>
    </radialGradient>
  </defs>
  <g>
    <rect width="335" height="335" fill="url(#uuid-57ce4513-9789-46fe-a5d4-bdba0a4611be)"/>
    <path d="M321.64,132.72c-7.53,5.34-15.93,8.83-24.79,11.29-22.61,6.28-46.43,6.41-69.67,4.79-42.85-2.98-85.54-10.9-128.63-9.09-20.55,.86-41.47,4.02-60.35,12.55-14.6,6.61-27.54,16.21-38.2,28.16v154.58H335V119.41c-3.45,5.28-8.26,9.7-13.36,13.32h0Z" fill="#0a1a3f"/>
    <g>
      <path d="M321.64,125.72c-7.53,5.34-15.93,8.83-24.79,11.29-22.61,6.28-46.43,6.41-69.67,4.79-42.85-2.98-85.54-10.9-128.63-9.09-20.55,.86-41.47,4.02-60.35,12.55-14.6,6.61-27.54,16.21-38.2,28.16v4.36c10.66-11.95,23.6-21.55,38.2-28.15,18.87-8.53,39.8-11.69,60.35-12.55,43.09-1.81,85.78,6.11,128.63,9.09,23.24,1.62,47.06,1.49,69.67-4.79,8.85-2.46,17.26-5.95,24.79-11.29,5.1-3.62,9.91-8.04,13.36-13.32v-4.36c-3.45,5.28-8.26,9.7-13.36,13.32h0Z" fill="#0a1a3f"/>
      <path d="M321.64,137.72c-7.53,5.34-15.93,8.83-24.79,11.29-22.61,6.28-46.43,6.41-69.67,4.79-42.85-2.98-85.54-10.9-128.63-9.09-20.55,.86-41.47,4.02-60.35,12.55-14.6,6.61-27.54,16.21-38.2,28.16v4.36c10.66-11.95,23.6-21.55,38.2-28.15,18.87-8.53,39.8-11.69,60.35-12.55,43.09-1.81,85.78,6.11,128.63,9.09,23.24,1.62,47.06,1.49,69.67-4.79,8.85-2.46,17.26-5.95,24.79-11.29,5.1-3.62,9.91-8.04,13.36-13.32v-4.36c-3.45,5.28-8.26,9.7-13.36,13.32h0Z" fill="#ec1c24"/>
    </g>
  </g>
  <g>
    <g>
      <g>
        <path d="M27.59,17.21c0,.28-.11,.54-.31,.73l-3.3,3.3-3.53-2.04v-2c0-.58,.47-1.04,1.04-1.04s1.04,.47,1.04,1.04h0v2.53l3.27-3.27c.41-.41,1.07-.41,1.48,0,.2,.2,.31,.47,.31,.75" fill="#0a1a3f"/>
        <path d="M26.54,26.76c-.14,0-.27-.03-.4-.08s-.24-.13-.34-.23l-3.27-3.26v2.53c0,.58-.47,1.04-1.04,1.04s-1.04-.47-1.04-1.04v-2l3.54-2.04,3.3,3.3c.66,.66,.19,1.78-.74,1.78" fill="#0a1a3f"/>
        <path d="M23.83,21.39s-.05-.1-.09-.13h-.01l-.89-.52-2.38-1.37-2.02-1.16c-.11-.07-.26-.03-.32,.09-.02,.04-.03,.08-.03,.12v6.1c0,.13,.11,.24,.24,.24,.04,0,.08-.01,.12-.03l2.02-1.16,3.27-1.89s.02-.01,.03-.02c.03-.02,.05-.05,.06-.09v-.03s.02-.09,.01-.13v-.02Zm-.81,.12s-.04,.08-.08,.11l-2.54,1.46-1.56,.9c-.09,.05-.2,.02-.25-.07-.02-.03-.02-.06-.02-.09v-4.74c0-.1,.08-.18,.18-.18,.03,0,.06,0,.09,.02l1.56,.9,2.54,1.46c.07,.04,.11,.13,.08,.21h0v.02Z" fill="#0a1a3f"/>
        <path d="M22.32,21.5s-.03,.06-.06,.08l-1.91,1.1-1.17,.68c-.07,.04-.15,.02-.19-.05-.01-.02-.02-.04-.02-.07v-3.56c0-.08,.06-.14,.14-.14,.02,0,.05,0,.07,.02l1.18,.68,1.91,1.1s.05,.05,.06,.08v.08" fill="#0a1a3f"/>
      </g>
      <g>
        <path d="M44.83,21.33s-.05-.09-.1-.11l-2.91-1.46-1.79-.9c-.14-.07-.31,.02-.31,.17l.06,4.84c0,.14,.18,.23,.32,.16l1.77-.94,2.87-1.53s.08-.06,.1-.11c0-.03,0-.07,0-.11h0Zm-.7,.09s-.04,.07-.07,.09l-2.23,1.19-1.38,.73c-.11,.06-.24-.01-.24-.12l-.05-3.76c0-.09,.09-.16,.18-.15,.02,0,.05,0,.07,.02l1.39,.7,2.26,1.13s.06,.05,.08,.08v.08h0Z" fill="#0a1a3f"/>
        <path d="M43.49,21.43s-.03,.05-.06,.06l-1.68,.89-1.03,.55c-.06,.03-.13,.02-.17-.04,0-.01,0-.03-.02-.05l-.03-2.82c0-.07,.06-.12,.13-.11,.02,0,.04,0,.05,.02l1.05,.53,1.7,.85s.05,.04,.06,.06v.06" fill="#0a1a3f"/>
        <path d="M29.71,18.94l2.53-.03c1.22-.01,2.13,.68,2.14,1.68s-.88,1.71-2.1,1.73l-1.32,.02,.02,1.63-1.2,.02-.06-5.04h-.01Zm2.43,2.37c.6,0,1-.29,1-.72s-.42-.71-1.01-.7h-1.19l.02,1.44,1.19-.02h-.01Z" fill="#0a1a3f"/>
        <path d="M39.12,23.02v.97l-4,.05-.06-5.03h1.21l.05,4.05,2.8-.04Z" fill="#0a1a3f"/>
        <path d="M46.13,22.09l-2.24-3.19,1.41-.02,1.43,2.19,1.43-2.22,1.35-.02-2.15,3.25,.02,1.82-1.22,.02-.02-1.82h0Z" fill="#0a1a3f"/>
        <path d="M50.29,19.16h.64l.03,2.78,2.81-2.82h.84l-2.34,2.32,2.55,2.7h-.82l-2.16-2.31-.87,.85,.02,1.51h-.64l-.06-5.03Z" fill="#0a1a3f"/>
        <path d="M55.14,21.63c-.02-1.42,1.29-2.62,2.85-2.64s2.89,1.15,2.9,2.57-1.28,2.63-2.84,2.64-2.89-1.16-2.91-2.57Zm5.1-.06c0-1.12-1.04-2.06-2.25-2.05s-2.22,.98-2.21,2.1,1.05,2.07,2.26,2.05,2.21-.98,2.2-2.11h0Z" fill="#0a1a3f"/>
        <path d="M61.72,23.43l.39-.45c.48,.42,1.06,.71,1.85,.7,.87-.01,1.3-.44,1.3-.9,0-.53-.54-.74-1.52-.93-1.13-.22-1.85-.53-1.86-1.4,0-.81,.78-1.45,1.86-1.46,.72-.02,1.43,.23,1.98,.69l-.39,.45c-.47-.4-1.03-.63-1.62-.63-.7,0-1.2,.43-1.19,.89,0,.52,.56,.7,1.52,.89,1.08,.21,1.85,.55,1.86,1.44,0,.8-.65,1.46-1.96,1.48-.92,0-1.65-.28-2.22-.77Z" fill="#0a1a3f"/>
        <path d="M67.07,19.16h.64l2.13,3.48,2.04-3.54h.64l.06,5.03h-.64l-.05-3.79-2.04,3.54-2.13-3.49,.05,3.8h-.64l-.06-5.03Z" fill="#0a1a3f"/>
        <path d="M73.74,21.63c-.02-1.42,1.29-2.62,2.85-2.64s2.89,1.15,2.9,2.57-1.28,2.63-2.84,2.64-2.89-1.16-2.91-2.57Zm5.1-.06c-.01-1.12-1.04-2.06-2.25-2.05s-2.22,.98-2.21,2.1,1.05,2.07,2.26,2.05,2.21-.98,2.2-2.11h0Z" fill="#0a1a3f"/>
        <path d="M80.32,23.43l.4-.45c.48,.42,1.06,.71,1.85,.7,.87-.01,1.3-.44,1.3-.9,0-.54-.54-.74-1.52-.93-1.13-.22-1.85-.53-1.86-1.4-.01-.81,.78-1.45,1.86-1.46,.72-.02,1.43,.23,1.98,.69l-.39,.45c-.47-.4-1.03-.63-1.62-.62-.7,0-1.2,.42-1.19,.89,0,.52,.57,.7,1.52,.89,1.08,.21,1.85,.55,1.86,1.44,.01,.8-.65,1.46-1.96,1.48-.92,0-1.65-.28-2.22-.78h-.01Z" fill="#0a1a3f"/>
      </g>
    </g>
    <g>
      <g>
        <polygon points="302.42 82.74 301.8 82.69 301.23 82.88 299.76 83.71 299.3 84.1 299.02 84.65 294.37 101.3 294.33 101.92 294.52 102.49 294.91 102.95 295.46 103.23 312.11 107.88 312.73 107.93 313.3 107.74 314.77 106.91 315.23 106.52 315.51 105.96 320.16 89.31 320.2 88.69 320.01 88.12 319.62 87.67 319.07 87.38 302.42 82.74" fill="#5a4e3e"/>
        <polygon points="300.95 83.57 317.6 88.21 318.15 88.5 318.54 88.95 318.73 89.52 318.69 90.14 314.04 106.79 313.9 107.07 313.58 107.05 296.93 102.41 296.38 102.12 295.99 101.66 295.8 101.09 295.84 100.47 300.49 83.82 300.63 83.54 300.95 83.57" fill="#5a4e3e"/>
        <path d="M302.42,82.74c-.21-.06-.42-.07-.62-.05-.2,.03-.4,.09-.57,.19-.17,.1-.33,.23-.46,.39-.13,.16-.22,.35-.28,.55l-4.65,16.65c-.06,.21-.07,.42-.05,.62,.03,.2,.09,.4,.19,.57s.23,.33,.39,.46,.35,.22,.55,.28l16.65,4.65c.21,.06,.42,.07,.62,.05,.2-.03,.4-.09,.57-.19,.17-.1,.33-.23,.46-.39,.13-.16,.22-.35,.28-.55l4.65-16.65c.06-.21,.07-.42,.04-.62-.03-.2-.09-.4-.19-.57s-.23-.33-.39-.46-.35-.22-.55-.28l-16.65-4.65h0Z" fill="#fdd8a8"/>
      </g>
      <path d="M310.43,90l-1.85-.52-5.49,8.8,1.33,.37,1.59-2.59,3.06,.85-.03,3.02,1.4,.39v-10.33h0Zm-3.86,5.1l2.2-3.64s.06-.1,.1-.16c.03-.06,.05-.1,.07-.12,.09-.16,.17-.32,.24-.49-.02,.19-.03,.48-.04,.87l-.06,4.24-2.51-.7Z" fill="#231f20"/>
      <path d="M313.46,100.95c-.13,.14-.31,.27-.56,.39-.24,.12-.51,.2-.81,.25l-.13,.45c.16-.01,.35-.05,.56-.1,.21-.06,.39-.12,.53-.2l-.83,2.97,.47,.13,1.06-3.81-.3-.08h0Z" fill="#231f20"/>
    </g>
    <g>
      <g>
        <g>
          <polygon points="119.74 156.57 119.13 156.7 118.64 157.03 117.44 158.23 117.1 158.73 116.98 159.34 116.98 176.62 117.1 177.23 117.44 177.73 117.94 178.07 118.55 178.19 135.83 178.19 136.44 178.07 136.94 177.73 138.14 176.54 138.47 176.04 138.6 175.43 138.6 158.14 138.47 157.53 138.14 157.03 137.64 156.7 137.03 156.57 119.74 156.57" fill="#5a4e3e"/>
          <polygon points="118.55 157.77 135.83 157.77 136.44 157.89 136.94 158.23 137.28 158.73 137.4 159.34 137.4 176.62 137.34 176.93 137.03 177 119.74 177 119.13 176.87 118.64 176.54 118.3 176.04 118.18 175.43 118.18 158.14 118.24 157.83 118.55 157.77" fill="#5a4e3e"/>
          <path d="M119.74,156.57c-.22,0-.42,.04-.61,.12s-.36,.19-.5,.34c-.14,.14-.26,.31-.34,.5-.08,.19-.12,.39-.12,.61v17.29c0,.22,.04,.42,.12,.61s.19,.36,.34,.5c.14,.14,.31,.26,.5,.34s.39,.12,.61,.12h17.28c.22,0,.42-.04,.61-.12s.36-.19,.5-.34c.14-.14,.26-.31,.34-.5s.12-.39,.12-.61v-17.29c0-.22-.04-.42-.12-.61s-.19-.36-.34-.5c-.14-.14-.31-.26-.5-.34s-.39-.12-.61-.12h-17.28Z" fill="#fdd8a8"/>
        </g>
        <path d="M131.5,167.03c-.29-.4-.75-.7-1.38-.88,1.07-.33,1.61-1.05,1.61-2.16,0-.43-.1-.85-.31-1.25-.21-.4-.48-.7-.83-.9-.26-.15-.55-.26-.87-.32-.32-.06-.77-.09-1.35-.09h-3.02v9.95h3.45c.69,0,1.27-.1,1.73-.31,.47-.21,.82-.52,1.06-.94,.24-.41,.36-.92,.36-1.51,0-.65-.15-1.18-.44-1.58h0Zm-4.74-4.54h1.27c.19,0,.43,0,.71,.03,.28,.02,.46,.04,.54,.06,.31,.08,.55,.24,.73,.48,.17,.24,.26,.54,.26,.9,0,.4-.07,.72-.22,.96s-.39,.41-.74,.51c-.35,.1-.79,.16-1.35,.16h-1.19v-3.1h0Zm3.57,6.93c-.11,.25-.28,.44-.48,.57-.17,.11-.36,.18-.57,.21-.21,.03-.53,.05-.98,.05h-1.54v-3.58h1.03c.81,0,1.4,.08,1.78,.23,.28,.11,.51,.31,.68,.62s.26,.66,.26,1.05c0,.32-.06,.6-.17,.84h0Z" fill="#231f20"/>
      </g>
      <path d="M135,171.15c-.31,0-.57,.09-.78,.27-.21,.18-.34,.43-.4,.75l.48,.09c.04-.24,.12-.41,.24-.53,.13-.12,.28-.18,.47-.18s.35,.06,.46,.18c.12,.12,.18,.26,.18,.44,0,.22-.08,.39-.25,.5s-.35,.16-.56,.16h-.08l-.05,.43c.14-.04,.25-.05,.34-.05,.22,0,.41,.07,.55,.22,.15,.14,.22,.33,.22,.55s-.08,.43-.24,.59-.35,.24-.58,.24c-.19,0-.35-.06-.49-.18-.13-.12-.23-.32-.28-.59l-.48,.06c.03,.33,.16,.6,.39,.8,.23,.21,.52,.31,.86,.31,.38,0,.7-.12,.95-.36s.38-.53,.38-.88c0-.25-.06-.47-.19-.64s-.31-.28-.54-.33c.18-.08,.31-.19,.4-.33s.14-.29,.14-.47-.05-.35-.14-.51c-.1-.16-.24-.29-.42-.38-.18-.09-.38-.14-.59-.14h0v-.02Z" fill="#231f20"/>
    </g>
    <g>
      <g>
        <g>
          <polygon points="151.73 178.21 151.12 178.34 150.62 178.67 149.42 179.87 149.09 180.37 148.96 180.98 148.96 198.26 149.09 198.87 149.42 199.37 149.92 199.7 150.53 199.83 167.82 199.83 168.43 199.7 168.92 199.37 170.12 198.17 170.46 197.67 170.58 197.07 170.58 179.78 170.46 179.17 170.12 178.67 169.62 178.34 169.01 178.21 151.73 178.21" fill="#5a4e3e"/>
          <polygon points="150.53 179.41 167.82 179.41 168.43 179.53 168.92 179.87 169.26 180.37 169.38 180.98 169.38 198.26 169.32 198.57 169.01 198.63 151.73 198.63 151.12 198.51 150.62 198.17 150.28 197.67 150.16 197.07 150.16 179.78 150.22 179.47 150.53 179.41" fill="#5a4e3e"/>
          <path d="M151.73,178.21c-.22,0-.42,.04-.61,.12s-.36,.19-.5,.34c-.14,.14-.26,.31-.34,.5s-.12,.39-.12,.61v17.29c0,.22,.04,.42,.12,.61s.19,.36,.34,.5c.14,.14,.31,.26,.5,.34s.39,.12,.61,.12h17.28c.22,0,.42-.04,.61-.12s.36-.19,.5-.34c.14-.14,.26-.31,.34-.5s.12-.39,.12-.61v-17.29c0-.22-.04-.42-.12-.61s-.19-.36-.34-.5c-.14-.14-.31-.26-.5-.34s-.39-.12-.61-.12h-17.28Z" fill="#fdd8a8"/>
        </g>
        <path d="M163.49,188.67c-.29-.4-.75-.7-1.38-.88,1.07-.33,1.61-1.05,1.61-2.16,0-.43-.1-.85-.31-1.25-.21-.4-.48-.7-.83-.9-.26-.15-.55-.26-.87-.32-.32-.06-.77-.09-1.35-.09h-3.02v9.95h3.45c.69,0,1.27-.1,1.73-.31,.47-.21,.82-.52,1.06-.94,.24-.41,.36-.92,.36-1.51,0-.65-.15-1.18-.44-1.58h0Zm-4.74-4.54h1.27c.19,0,.43,0,.71,.03,.28,.02,.46,.04,.54,.06,.31,.08,.55,.24,.73,.48,.17,.24,.26,.54,.26,.9,0,.4-.07,.72-.22,.96s-.39,.41-.74,.51c-.35,.1-.79,.16-1.35,.16h-1.19v-3.1h0Zm3.57,6.93c-.11,.25-.28,.44-.48,.57-.17,.11-.36,.18-.57,.21-.21,.03-.53,.05-.98,.05h-1.54v-3.58h1.03c.81,0,1.4,.08,1.78,.23,.28,.11,.51,.31,.68,.62s.26,.66,.26,1.05c0,.32-.06,.6-.17,.84h0Z" fill="#231f20"/>
      </g>
      <path d="M166.98,192.78c-.31,0-.57,.09-.78,.27-.21,.18-.34,.43-.4,.75l.48,.09c.04-.24,.12-.41,.24-.53,.13-.12,.28-.18,.47-.18s.35,.06,.46,.18c.12,.12,.18,.26,.18,.44,0,.22-.08,.39-.25,.5s-.35,.16-.56,.16h-.08l-.05,.43c.14-.04,.25-.05,.34-.05,.22,0,.41,.07,.55,.22,.15,.14,.22,.33,.22,.55s-.08,.43-.24,.59-.35,.24-.58,.24c-.19,0-.35-.06-.49-.18-.13-.12-.23-.32-.28-.59l-.48,.06c.03,.33,.16,.6,.39,.8,.23,.21,.52,.31,.86,.31,.38,0,.7-.12,.95-.36s.38-.53,.38-.88c0-.25-.06-.47-.19-.64s-.31-.28-.54-.33c.18-.08,.31-.19,.4-.33s.14-.29,.14-.47-.05-.35-.14-.51c-.1-.16-.24-.29-.42-.38-.18-.09-.38-.14-.59-.14h0v-.02Z" fill="#231f20"/>
    </g>
    <g>
      <g>
        <g>
          <polygon points="16.34 116.98 15.81 117.31 15.46 117.79 14.74 119.32 14.59 119.91 14.69 120.52 20.57 136.77 20.9 137.31 21.38 137.66 21.97 137.81 22.58 137.71 38.83 131.83 39.36 131.51 39.72 131.02 40.43 129.49 40.58 128.91 40.49 128.29 34.6 112.04 34.28 111.51 33.79 111.15 33.21 111.01 32.6 111.1 16.34 116.98" fill="#5a4e3e"/>
          <polygon points="15.63 118.51 31.88 112.63 32.49 112.54 33.08 112.68 33.56 113.04 33.89 113.57 39.77 129.82 39.82 130.13 39.55 130.3 23.3 136.18 22.68 136.28 22.1 136.13 21.61 135.77 21.29 135.24 15.4 118.99 15.36 118.68 15.63 118.51" fill="#5a4e3e"/>
          <path d="M16.34,116.98c-.2,.07-.38,.19-.53,.32-.15,.14-.27,.3-.35,.49-.09,.18-.14,.38-.15,.58-.01,.2,.02,.41,.09,.62l5.89,16.25c.07,.2,.19,.38,.32,.53,.14,.15,.3,.27,.49,.35,.18,.09,.38,.14,.58,.15s.41-.02,.62-.09l16.25-5.89c.2-.07,.38-.19,.53-.32,.15-.14,.27-.3,.35-.49,.09-.18,.14-.38,.15-.58,0-.2-.02-.41-.09-.62l-5.89-16.25c-.07-.2-.19-.38-.32-.53-.14-.15-.3-.27-.49-.35-.18-.09-.38-.14-.58-.15s-.41,.02-.62,.09l-16.25,5.89Z" fill="#fdd8a8"/>
        </g>
        <path d="M26.24,118.36c-.55,.2-1.01,.49-1.38,.88-.37,.39-.63,.85-.79,1.39-.16,.54-.21,1.15-.16,1.82,.06,.67,.22,1.37,.48,2.1s.6,1.4,.97,1.93c.37,.53,.79,.95,1.26,1.26s.96,.49,1.49,.55c.52,.06,1.06-.02,1.61-.22s1.04-.51,1.41-.92c.37-.4,.62-.89,.76-1.45s.15-1.16,.04-1.81l-1.36,.23c.09,.44,.1,.87,.03,1.27-.07,.4-.21,.74-.42,1.02-.21,.28-.49,.47-.81,.59-1.52,.55-2.74-.47-3.67-3.04-.28-.76-.43-1.46-.45-2.08s.09-1.15,.32-1.57c.24-.43,.59-.72,1.05-.89,.33-.12,.65-.14,.96-.08,.31,.07,.61,.22,.89,.46,.28,.24,.54,.57,.79,.99l1.18-.71c-.55-.87-1.18-1.44-1.9-1.73s-1.49-.28-2.32,.02h.02Z" fill="#231f20"/>
      </g>
      <path d="M35.65,125.49c-.29,.11-.51,.28-.64,.52-.14,.24-.18,.52-.12,.85l.48-.08c-.05-.24-.03-.43,.05-.58,.08-.15,.2-.26,.38-.33s.34-.06,.5,0c.15,.07,.26,.19,.32,.35,.08,.21,.06,.39-.06,.55-.12,.16-.28,.27-.47,.34-.02,0-.04,.01-.08,.02l.09,.42c.12-.08,.22-.13,.3-.17,.21-.08,.41-.07,.59,.01,.19,.09,.32,.23,.39,.44,.07,.21,.07,.43-.02,.63-.09,.2-.25,.34-.46,.42-.18,.07-.35,.06-.52,0-.17-.07-.32-.22-.47-.46l-.43,.23c.14,.3,.36,.5,.64,.62s.59,.12,.92,0c.36-.13,.62-.35,.77-.66s.17-.63,.06-.95c-.09-.24-.22-.42-.4-.53-.18-.12-.39-.16-.62-.13,.14-.14,.23-.29,.27-.45,.04-.16,.03-.32-.03-.48-.06-.17-.16-.31-.31-.43-.14-.12-.32-.19-.52-.21-.2-.03-.4,0-.61,.07h0Z" fill="#231f20"/>
    </g>
    <g>
      <g>
        <g>
          <polygon points="304.19 299.94 303.58 300.07 303.08 300.4 301.89 301.6 301.55 302.1 301.43 302.71 301.43 319.99 301.55 320.6 301.89 321.1 302.39 321.44 303 321.56 320.28 321.56 320.89 321.44 321.39 321.1 322.58 319.9 322.92 319.41 323.04 318.8 323.04 301.51 322.92 300.9 322.58 300.4 322.09 300.07 321.48 299.94 304.19 299.94" fill="#5a4e3e"/>
          <polygon points="303 301.14 320.28 301.14 320.89 301.26 321.39 301.6 321.73 302.1 321.85 302.71 321.85 319.99 321.79 320.3 321.48 320.36 304.19 320.36 303.58 320.24 303.08 319.9 302.75 319.41 302.62 318.8 302.62 301.51 302.69 301.2 303 301.14" fill="#5a4e3e"/>
          <path d="M304.19,299.94c-.22,0-.42,.04-.61,.12-.19,.08-.36,.19-.5,.34-.14,.14-.26,.31-.34,.5s-.12,.39-.12,.61v17.29c0,.22,.04,.42,.12,.61,.08,.19,.19,.36,.34,.5,.14,.14,.31,.26,.5,.34s.39,.12,.61,.12h17.28c.22,0,.42-.04,.61-.12,.19-.08,.36-.19,.5-.34,.14-.14,.26-.31,.34-.5s.12-.39,.12-.61v-17.29c0-.22-.04-.42-.12-.61-.08-.19-.19-.36-.34-.5-.14-.14-.31-.26-.5-.34s-.39-.12-.61-.12h-17.28Z" fill="#fdd8a8"/>
        </g>
        <polygon points="310.11 304.79 310.11 314.73 316.14 314.73 316.14 313.52 311.52 313.52 311.52 310.15 314.92 310.15 314.92 308.94 311.52 308.94 311.52 305.95 315.92 305.95 315.92 304.79 310.11 304.79" fill="#231f20"/>
      </g>
      <path d="M319.72,314.52c-.08,.17-.23,.35-.43,.53-.2,.18-.44,.34-.71,.46v.47c.15-.06,.32-.14,.51-.25s.34-.22,.46-.33v3.08h.48v-3.96h-.31Z" fill="#231f20"/>
    </g>
    <g>
      <g>
        <g>
          <polygon points="14.72 299.94 14.11 300.07 13.61 300.4 12.42 301.6 12.08 302.1 11.96 302.71 11.96 319.99 12.08 320.6 12.42 321.1 12.91 321.44 13.52 321.56 30.81 321.56 31.42 321.44 31.92 321.1 33.11 319.9 33.45 319.41 33.57 318.8 33.57 301.51 33.45 300.9 33.11 300.4 32.61 300.07 32 299.94 14.72 299.94" fill="#5a4e3e"/>
          <polygon points="13.52 301.14 30.81 301.14 31.42 301.26 31.92 301.6 32.25 302.1 32.38 302.71 32.38 319.99 32.31 320.3 32 320.36 14.72 320.36 14.11 320.24 13.61 319.9 13.27 319.41 13.15 318.8 13.15 301.51 13.21 301.2 13.52 301.14" fill="#5a4e3e"/>
          <path d="M14.72,299.94c-.22,0-.42,.04-.61,.12s-.36,.19-.5,.34c-.14,.14-.26,.31-.34,.5s-.12,.39-.12,.61v17.29c0,.22,.04,.42,.12,.61,.08,.19,.19,.36,.34,.5,.14,.14,.31,.26,.5,.34s.39,.12,.61,.12h17.28c.22,0,.42-.04,.61-.12,.19-.08,.36-.19,.5-.34,.14-.14,.26-.31,.34-.5s.12-.39,.12-.61v-17.29c0-.22-.04-.42-.12-.61-.08-.19-.19-.36-.34-.5-.14-.14-.31-.26-.5-.34s-.39-.12-.61-.12H14.72Z" fill="#fdd8a8"/>
        </g>
        <polygon points="21.08 304.79 21.08 314.73 26.68 314.73 26.68 313.51 22.49 313.51 22.49 304.79 21.08 304.79" fill="#231f20"/>
      </g>
      <path d="M30.25,314.52c-.09,.17-.23,.35-.43,.53s-.44,.34-.71,.46v.47c.15-.06,.32-.14,.51-.25s.34-.22,.46-.33v3.08h.48v-3.96h-.31Z" fill="#231f20"/>
    </g>
    <g>
      <g>
        <polygon points="307.2 35.52 306.58 35.5 306.02 35.72 304.58 36.61 304.14 37.02 303.88 37.58 299.92 54.41 299.9 55.03 300.12 55.59 300.53 56.03 301.09 56.29 317.92 60.25 318.54 60.27 319.1 60.06 320.54 59.17 320.98 58.76 321.24 58.19 325.2 41.37 325.22 40.74 325 40.18 324.59 39.74 324.03 39.48 307.2 35.52" fill="#5a4e3e"/>
        <polygon points="305.77 36.41 322.59 40.37 323.16 40.63 323.57 41.07 323.78 41.63 323.76 42.26 319.8 59.08 319.67 59.37 319.35 59.36 302.53 55.4 301.96 55.14 301.55 54.7 301.34 54.14 301.36 53.52 305.32 36.69 305.45 36.4 305.77 36.41" fill="#5a4e3e"/>
        <path d="M307.2,35.52c-.21-.05-.42-.05-.62-.02-.2,.03-.39,.11-.56,.21-.17,.11-.32,.24-.44,.41-.12,.16-.21,.35-.26,.57l-3.96,16.83c-.05,.21-.05,.42-.02,.62s.11,.39,.21,.56c.11,.17,.24,.32,.41,.44,.16,.12,.36,.21,.57,.26l16.83,3.96c.21,.05,.42,.05,.62,.02,.2-.03,.39-.11,.56-.21,.17-.11,.32-.24,.44-.41,.12-.16,.21-.35,.26-.56l3.96-16.83c.05-.21,.05-.42,.02-.62s-.11-.39-.21-.56c-.11-.17-.24-.32-.41-.44-.16-.12-.35-.21-.57-.26l-16.83-3.96h0Z" fill="#fdd8a8"/>
      </g>
      <path d="M314.99,47.68c.64-.08,1.17-.29,1.57-.63s.67-.79,.81-1.37,.11-1.08-.08-1.57c-.18-.49-.49-.88-.93-1.18-.26-.18-.52-.31-.77-.4s-.67-.21-1.26-.35l-2.64-.62-2.28,9.68,1.37,.32,1.02-4.35,1.77,.42,.79,4.78,1.48,.35-.86-5.07h0Zm-.07-1.15c-.19,.05-.4,.07-.61,.05-.22-.02-.53-.08-.94-.17l-1.3-.31,.75-3.18,1.09,.26c.6,.14,1.07,.3,1.41,.48,.18,.1,.32,.24,.44,.41s.19,.37,.23,.59c.03,.22,.02,.45-.04,.69-.07,.31-.2,.57-.38,.77s-.4,.34-.65,.4h0Z" fill="#231f20"/>
      <path d="M318.98,53.26c-.12,.15-.3,.29-.54,.42-.24,.13-.5,.23-.8,.29l-.11,.46c.16-.02,.34-.06,.55-.13,.21-.06,.38-.14,.52-.22l-.71,3,.47,.11,.91-3.85-.3-.07h0Z" fill="#231f20"/>
    </g>
    <g>
      <g>
        <polygon points="20.28 53.95 19.7 53.73 19.1 53.74 17.45 54.12 16.9 54.36 16.47 54.81 7.24 69.42 7.02 70 7.03 70.6 7.28 71.15 7.73 71.58 22.34 80.81 22.92 81.04 23.52 81.02 25.17 80.65 25.72 80.4 26.15 79.95 35.38 65.34 35.6 64.76 35.59 64.16 35.34 63.61 34.89 63.18 20.28 53.95" fill="#5a4e3e"/>
        <polygon points="18.63 54.32 33.24 63.55 33.69 63.98 33.94 64.53 33.96 65.13 33.73 65.71 24.5 80.33 24.28 80.56 23.99 80.44 9.38 71.21 8.93 70.78 8.68 70.23 8.67 69.63 8.89 69.05 18.12 54.43 18.34 54.21 18.63 54.32" fill="#5a4e3e"/>
        <path d="M20.28,53.95c-.18-.12-.38-.19-.58-.22-.2-.03-.41-.03-.6,.02-.2,.04-.38,.13-.55,.24-.17,.12-.31,.27-.43,.45l-9.23,14.61c-.12,.18-.19,.38-.22,.58-.03,.2-.03,.41,.02,.6,.04,.2,.13,.38,.24,.55,.12,.17,.27,.31,.45,.43l14.61,9.23c.18,.12,.38,.19,.58,.22s.41,.03,.6-.02c.2-.04,.38-.13,.55-.24,.17-.12,.31-.27,.43-.45l9.23-14.61c.12-.18,.19-.38,.22-.58,.03-.2,.03-.41-.02-.6-.04-.2-.13-.38-.24-.55-.12-.17-.27-.31-.45-.43l-14.61-9.23h0Z" fill="#fdd8a8"/>
      </g>
      <path d="M25.07,62.49c-.49-.31-1-.49-1.54-.55-.53-.05-1.02,.03-1.47,.24-.45,.22-.81,.55-1.09,.99-.57,.9-.61,1.8-.13,2.69,.15,.26,.29,.47,.42,.63,.13,.17,.37,.45,.71,.85,.48,.56,.76,1.02,.85,1.4,.09,.38,0,.77-.25,1.17s-.58,.62-1.01,.69c-.43,.08-.86-.03-1.3-.3-.49-.31-.81-.69-.94-1.13-.13-.44-.1-1.01,.09-1.7l-1.34-.42c-.2,.54-.28,1.06-.22,1.58,.05,.51,.23,.99,.53,1.43,.3,.44,.71,.83,1.23,1.16,.39,.25,.79,.42,1.2,.51,.4,.09,.79,.1,1.17,.03s.73-.22,1.05-.45c.32-.22,.59-.51,.82-.88,.26-.41,.41-.84,.45-1.29,.04-.45-.04-.87-.24-1.27-.26-.51-.65-1.07-1.19-1.69-.35-.41-.6-.74-.74-1s-.21-.5-.19-.72c.01-.22,.1-.45,.26-.71s.35-.43,.59-.55,.49-.16,.77-.14c.27,.02,.55,.12,.82,.3,.84,.53,1.05,1.33,.63,2.41l1.26,.45c.19-.51,.28-1,.25-1.47s-.17-.9-.41-1.28c-.25-.39-.59-.72-1.04-1h0v.02Z" fill="#231f20"/>
      <path d="M25.63,74.56c-.16,.1-.38,.17-.65,.22-.27,.04-.55,.05-.85,.01l-.25,.4c.16,.03,.34,.05,.56,.06,.22,0,.41,0,.57-.04l-1.65,2.61,.41,.26,2.11-3.35-.26-.17h.01Z" fill="#231f20"/>
    </g>
    <g>
      <g>
        <polygon points="25.45 183.18 22.47 183.78 20.03 185.43 14.19 191.27 12.55 193.7 11.94 196.68 11.94 281.14 12.55 284.12 14.19 286.56 16.63 288.2 19.61 288.81 104.07 288.81 107.05 288.2 109.48 286.56 115.32 280.72 116.97 278.28 117.57 275.3 117.57 190.84 116.97 187.86 115.32 185.43 112.89 183.78 109.91 183.18 25.45 183.18" fill="#5a4e3e"/>
        <polygon points="19.61 189.02 104.07 189.02 107.05 189.62 109.48 191.27 111.13 193.7 111.73 196.68 111.73 281.14 111.42 282.66 109.91 282.97 25.45 282.97 22.47 282.36 20.03 280.72 18.39 278.28 17.78 275.3 17.78 190.84 18.09 189.33 19.61 189.02" fill="#5a4e3e"/>
        <path d="M25.45,183.18c-1.06,0-2.06,.21-2.98,.6s-1.74,.95-2.44,1.64c-.69,.69-1.25,1.52-1.64,2.43-.39,.92-.6,1.92-.6,2.98v84.47c0,1.06,.21,2.06,.6,2.98,.39,.92,.95,1.74,1.64,2.44,.69,.69,1.52,1.26,2.44,1.64,.92,.39,1.92,.6,2.98,.6H109.91c1.06,0,2.06-.21,2.98-.6,.92-.39,1.74-.95,2.44-1.64,.69-.69,1.25-1.52,1.64-2.44s.6-1.92,.6-2.98v-84.47c0-1.06-.21-2.06-.6-2.98s-.95-1.74-1.64-2.43c-.69-.69-1.52-1.25-2.44-1.64-.92-.39-1.92-.6-2.98-.6H25.45Z" fill="#fdd8a8"/>
      </g>
      <path d="M25.45,185.8c-1.06,0-2.06,.2-2.98,.57-.92,.37-1.74,.9-2.44,1.56-.69,.66-1.25,1.44-1.64,2.31s-.6,1.82-.6,2.82v80.03c0,1,.21,1.96,.6,2.82,.39,.87,.95,1.65,1.64,2.31,.69,.66,1.52,1.19,2.44,1.56s1.92,.57,2.98,.57H109.91c1.06,0,2.06-.2,2.98-.57,.92-.37,1.74-.9,2.44-1.56,.69-.66,1.25-1.44,1.64-2.31s.6-1.82,.6-2.82v-80.03c0-1-.21-1.95-.6-2.82-.39-.87-.95-1.65-1.64-2.31s-1.52-1.19-2.44-1.56c-.92-.37-1.92-.57-2.98-.57H25.45Z" fill="#2eff81"/>
    </g>
    <path d="M319.56,195.73c-.07,0-.13,0-.19,.04-.06,.02-.11,.06-.15,.1-.04,.04-.08,.09-.1,.15-.02,.06-.04,.12-.04,.19v5.25c0,.07,.01,.13,.04,.19,.02,.06,.06,.11,.1,.15s.09,.08,.15,.1,.12,.04,.19,.04h5.25c.07,0,.13,0,.19-.04,.06-.02,.11-.06,.15-.1,.04-.04,.08-.09,.1-.15,.02-.06,.04-.12,.04-.19v-5.25c0-.07-.01-.13-.04-.19-.02-.06-.06-.11-.1-.15s-.09-.08-.15-.1-.12-.04-.19-.04h-5.25Z" fill="url(#uuid-2e8e0d1e-a3b9-45e2-bd9d-dd25c466ba7a)"/>
    <path d="M319.56,174.44c-.07,0-.13,0-.19,.04-.06,.02-.11,.06-.15,.1-.04,.04-.08,.09-.1,.15-.02,.06-.04,.12-.04,.19v5.25c0,.07,.01,.13,.04,.19,.02,.06,.06,.11,.1,.15s.09,.08,.15,.1,.12,.04,.19,.04h5.25c.07,0,.13,0,.19-.04,.06-.02,.11-.06,.15-.1,.04-.04,.08-.09,.1-.15,.02-.06,.04-.12,.04-.19v-5.25c0-.07-.01-.13-.04-.19-.02-.06-.06-.11-.1-.15s-.09-.08-.15-.1-.12-.04-.19-.04h-5.25Z" fill="url(#uuid-00682490-a496-414c-968e-4e4fd38b958f)"/>
    <g>
      <path d="M325.29,227.03c-.01,.66-.15,1.3-.46,1.89-.12,.24-.27,.47-.43,.68-.1,.12-.21,.23-.31,.35-.14,.16-.3,.29-.44,.45-.11,.12-.23,.23-.35,.34-.08,.08-.16,.17-.24,.25s-.17,.15-.24,.24c-.06,.06-.13,.11-.18,.18-.02,.03-.06,.06-.08,.08-.11,.12-.23,.23-.35,.34-.1,.1-.2,.21-.3,.31-.09,.09-.18,.17-.27,.26-.12,.12-.23,.25-.36,.37-.05,.04-.09,.1-.14,.14-.04,.03-.06,.02-.09,0l-.77-.77c-.72-.72-1.43-1.43-2.14-2.15-.47-.47-.8-1.03-1-1.66-.14-.45-.21-.91-.2-1.38,.01-.54,.13-1.07,.34-1.57,.16-.39,.38-.74,.65-1.06,.44-.52,.98-.92,1.62-1.18,.47-.19,.97-.3,1.48-.31,.54-.02,1.06,.07,1.57,.25,.46,.16,.87,.42,1.24,.73,.41,.35,.74,.77,.99,1.25s.4,.99,.45,1.53c.01,.14,.02,.28,.02,.42v.02Zm-1.98,.05c0-.09,0-.18-.01-.26-.07-.59-.32-1.07-.77-1.45-.46-.39-1-.56-1.6-.51-.54,.04-1,.25-1.39,.63-.27,.26-.46,.58-.57,.95-.09,.32-.11,.64-.07,.97,.08,.52,.32,.95,.71,1.31,.32,.29,.7,.47,1.12,.54,.05,0,.11,.04,.16,0h.02s.04,.02,.06,.02h.31c.7-.07,1.25-.4,1.65-.97,.25-.37,.38-.78,.38-1.22h0Z" fill="url(#uuid-9d18803b-c9ad-4de1-adfb-b2541426eed9)"/>
      <path d="M321.01,233.51c.44,0,.78,0,1.13,.02,.52,.03,1.04,.07,1.55,.14,.29,.04,.57,.09,.85,.18,.1,.03,.19,.07,.28,.13,.13,.09,.13,.19,0,.28-.14,.1-.3,.14-.46,.18-.41,.1-.82,.16-1.24,.2-.59,.06-1.18,.08-1.78,.09-.52,0-1.03,0-1.55-.04-.41-.02-.83-.06-1.24-.12-.31-.05-.62-.1-.92-.2-.09-.03-.18-.07-.26-.12-.12-.08-.12-.18,0-.26,.14-.1,.3-.14,.46-.19,.42-.11,.85-.16,1.29-.2,.66-.07,1.32-.09,1.89-.09h0Z" fill="url(#uuid-34b8cb13-2d43-4e55-ac33-83aeaad25e41)"/>
    </g>
    <g>
      <rect x="43.57" y="300.74" width="247.86" height="20.03" fill="#fdd8a8"/>
      <g>
        <rect x="137.9" y="302.98" width="1.23" height="15.54" fill="#0a1a3f"/>
        <rect x="195.82" y="302.98" width="1.23" height="15.54" fill="#0a1a3f"/>
      </g>
    </g>
    <rect x="254.12" y="13.93" width="71.16" height="15.06" fill="#0a1a3f"/>
    <path d="M319.56,254.79c-.07,0-.13,0-.19,.04-.06,.02-.11,.06-.15,.1-.04,.04-.08,.09-.1,.15-.02,.06-.04,.12-.04,.19v5.25c0,.07,.01,.13,.04,.19,.02,.06,.06,.11,.1,.15s.09,.08,.15,.1c.06,.02,.12,.04,.19,.04h5.25c.07,0,.13-.01,.19-.04,.06-.02,.11-.06,.15-.1s.08-.09,.1-.15c.02-.06,.04-.12,.04-.19v-5.25c0-.07-.01-.13-.04-.19-.02-.06-.06-.11-.1-.15s-.09-.08-.15-.1-.12-.04-.19-.04h-5.25Z" fill="url(#uuid-f845a7ec-02ea-4e31-a2ee-50adb752bce8)"/>
    <path d="M319.56,276.64c-.07,0-.13,.01-.19,.04-.06,.02-.11,.06-.15,.1s-.08,.09-.1,.15c-.02,.06-.04,.12-.04,.19v5.25c0,.07,.01,.13,.04,.19,.02,.06,.06,.11,.1,.15s.09,.08,.15,.1c.06,.02,.12,.04,.19,.04h5.25c.07,0,.13-.01,.19-.04,.06-.02,.11-.06,.15-.1s.08-.09,.1-.15c.02-.06,.04-.12,.04-.19v-5.25c0-.07-.01-.13-.04-.19-.02-.06-.06-.11-.1-.15s-.09-.08-.15-.1c-.06-.02-.12-.04-.19-.04h-5.25Z" fill="url(#uuid-536ff11e-47d8-4469-9c96-97b268cbd3f7)"/>
  </g>
</svg>