<svg id="ffce7d54-a07f-4f18-a0d7-c4df5992c7ee" data-name="Layer 1" xmlns="http://www.w3.org/2000/svg"
  width="335" height="335" viewBox="0 0 335 335">
  <defs>
    <clipPath id="eaa64b7b-361a-41d9-a185-5767bd7548e2">
      <rect width="335" height="145.12" fill="none"/>
    </clipPath>
  </defs>
  <g>
    <g>
      <rect width="335" height="335" fill="#fff"/>
      <g clip-path="url(#eaa64b7b-361a-41d9-a185-5767bd7548e2)">
        <g>
          <path d="M110.4,175.2c-.1-.1-2.2-8.3-4.8-18.2s-4.7-18.5-4.7-19.5-.1-1.6-.4-1.8-1.9-5.5-9-33.2c-4.1-16.4-6.6-25.9-11.6-45.2-3.2-12.1-4-16.6-3.4-17.6s1.4-.5,20.4-2.8l8.7-1.3c.2-.1-.8-3.5-2.6-9.3-2.7-8.4-3-9.3-3-11.5a11.6,11.6,0,0,1,.3-2.9c.2-.3,3.2-.7,13.1-1.6l13.1-1.2c.2,0,.5.4.7.8l.4.8.6-.8c.7-.7.9-.8,12.6-1.8s11.9-1.1,12.5-.5.6.6,1.1-.1,1-.7,11.5-1.7c6.5-.6,11.3-.9,11.6-.8s.7.1,1.2-.1,4.7-.7,10.4-1.2l11.4-.9C212.6,1.6,220.6.9,220.9,1S231.5,18.2,232,19.3s-1.7,4-2.5,4.7-9.4,1.6-19.1,2.7l-13,1.7c-7.2.9-10.4,1.2-10.8,1s-.6-.2-.8.1-3.6.8-10.5,1.7l-10.5,1.6a9.2,9.2,0,0,0,.9,2.7c.5,1.4,2.5,5.8,4.3,9.9,3.7,8.5,4.4,10,4.6,10a5.8,5.8,0,0,0,.7-1.2,6,6,0,0,1,.8-1.3l11.6-1.8c6.4-1.1,12-1.8,12.5-1.8a1.6,1.6,0,0,0,1.3-.2c.6-.5,22.3-3.9,22.8-3.5s.6.2,1-.2,20.8-4,21.8-3.5a1.1,1.1,0,0,0,1.4-.2c.4-.4,2.8-.9,8.8-1.9l9.7-1.6h1.4l6.7,10.3c3.7,5.8,6.7,10.6,6.7,10.8a7.9,7.9,0,0,1-1.9,2.3L278,63.4l-9.1,1.9c-5.8,1.2-9.5,1.8-10.2,1.7a2.2,2.2,0,0,0-1.8.4c-1.1.8-20.4,4.8-21.5,4.5a1.7,1.7,0,0,0-1.4.3,93.5,93.5,0,0,1-9.7,2.3l-9.6,2.2c-.2.2,1.9,4.7,5.7,12.3l6,12-1.6,1.9a7,7,0,0,1-2.5,2c-11.2,2.7-22.9,5.9-22.9,6.3s2.9,6.9,6.5,14.9,6.5,14.8,6.5,15.1A4.3,4.3,0,0,1,211,143c-1.3,1.3-1.5,1.4-15.6,5.8-11.4,3.5-14.4,4.4-14.7,4.1s-12.5-31.7-12.5-32.6a1.5,1.5,0,0,1,.3-.8c.6-.4.4-.7-.7-1s-1.1-.3-1.5.2-3.9,1.5-15.3,4.4l-15,4c-.1.1,2.3,7.9,5.4,17.3s5.5,17.5,5.5,17.9a3.2,3.2,0,0,1-.8,1.7c-.8.9-1.9,1.3-17.6,6.2l-17.3,5.3c-.4,0-.7-.1-.8-.3Zm24.8-49.1c0-.6-.4-1.2-.6-1.1s-.4,1.4.1,1.4.5-.1.5-.3ZM116.7,63.7a1.1,1.1,0,0,1,.7-1.2c.4-.1,5.6-1.1,11.6-2,14.8-2.3,14.9-2.3,14.9-2.7s-1.7-4.7-3.8-10-3.7-9.9-3.7-10.3a4,4,0,0,0-.6-1.6c-.7-.9-.7-.9-1.2-.2s-1.7.7-12.5,2.1c-13.2,1.7-14.4,1.8-14.4,2.1s1.6,4.9,3.4,10.7,3.4,10.8,3.4,11.1a16.4,16.4,0,0,0,.8,2.2c.7,1.6.9,1.8,1.1,1.2a5.8,5.8,0,0,0,.3-1.4ZM60.2,145a20.3,20.3,0,0,1-.7-2.7c-.1-1-1.6-9.2-3.3-18.1s-3.1-16.5-3.1-16.9.3-.7,1.2-.9c3.6-1,34.3-7,34.5-6.8s2.2,7.7,4.5,16.8c4.3,16.2,4.9,19.4,4.1,20.2s-35.2,9.2-36.2,9.2-.8-.2-1-.8Z" fill="#e9cc75"/>
          <path d="M110.1,173.9c-2.3-8.1-9.2-35.4-9.2-36.4a4.6,4.6,0,0,0-.5-2.1c-.4-.5-2.4-7.7-4.7-16.9l-12-47.2c-.2-.7-1.9-7-3.7-14-2.8-10.6-3.4-13.2-3.4-15.1a5.3,5.3,0,0,1,.3-2.4c.2-.1,28-3.5,28.9-3.5s-.3-2.4-2.9-10.4-3-9.2-2.8-11.5a5.8,5.8,0,0,1,.5-2.5l3.4-.5,12.7-1.1c10.3-.9,9.8-.9,10.7.5s.3.5.7-.3l.5-.9,10.5-1c13-1.2,13.9-1.2,14.2-.4s.5.8,1.1-.3.7-1,2.3-1l11.1-.8c5.9-.6,9.4-.8,9.6-.6s.6.1,1.1-.2a3.9,3.9,0,0,1,2-.5l7.7-.6,10.3-1L211.4,2c8.4-.8,9.2-.8,9.7-.3s2.6,4.1,5.2,8.6l5.2,8.9c.4.6.3.8-.7,2.7a6.5,6.5,0,0,1-1.7,2.2c-.5.1-18.6,2.5-20,2.5l-10.8,1.5a103.6,103.6,0,0,1-11.2,1.2c-.6,0-1.2,0-1.4.2s-5.3.9-11.3,1.7c-10.8,1.4-10.8,1.4-11.3.8s-.6-.6-5.3.4c-6.5,1.5-15.6,4-16.7,4.8s-.4.5-.2,1.3,6.1,17.1,6.4,17.4,5.8-.8,12.6-1.9c8.9-1.4,12.6-1.8,12.9-1.6s.4,1.1-.3,1.5L160.1,56l-11.9,2c-.1.1,9.5,25.2,9.7,25.5s25.6-5,25.9-5.3a114.8,114.8,0,0,0-4.6-11l-4.8-10.8.8-1.6c.5-1.1.9-1.6,1.3-1.5s1,1.2,1.7,2.9c3.6,8.1,9.3,20.7,9.5,21s23.4-4.1,23.6-4.7-2.2-5.2-5.2-11.1-5.5-10.8-5.5-11a3,3,0,0,1,.7-.9c.5-.5.7-.5,1-.3s3,5.4,6.1,11.6c4,7.9,5.8,11.3,6.2,11.3s20.4-4,21-4.3-.5-1.9-5.2-10.4c-3.1-5.6-5.7-10.4-5.7-10.7a2,2,0,0,1,1.6-1.5c.3,0,2.6,3.9,6.5,10.9S238.9,67,239.1,67s19.5-3.7,19.8-4S248,44.7,247.5,44.2s-.3-1.3.5-2,1.9-.9,2.4,0,3,5,6.1,10.2,5.8,9.6,6.1,9.7a10.8,10.8,0,0,0,2.5-.3l4.4-1c1.3-.3,2.1-.7,2.1-.9a5.5,5.5,0,0,0-.9-1.6c-.9-1.3-.9-1.3-2.4-1-3.6.6-3.3.7-6.1-3.7l-3.9-6.2a10,10,0,0,1-1.5-3c0-.5-.5-1-1.6-1.8s-1.5-1.2-1-1.4,12.8-2.5,13.5-2.4,2.2,2.5,6.8,9.7c3.4,5.2,6.4,9.8,6.8,10.2l.6.7-1.8,1.8a7.8,7.8,0,0,1-2.9,2.2l-9.7,2.1c-6.4,1.3-8.7,1.7-9.1,1.4s-.7-.1-1.3.3-21.2,5-21.8,4.5-.6-.1-1.2.3-3.8,1.2-10.2,2.5l-9.6,2.1c-.4.1-.7-.2-1.4-1.3s-.8-.5-11.5,1.7c-13.5,2.7-12.5,2.5-12.5,2.9s2.2,5.3,9.4,21.1c1.4,3.1,2.6,5.3,2.9,5.3l12.1-2.9,12.2-2.9c.9,0,.4,1-1,2.6l-1.5,1.6-11.8,3-12.4,3a2.8,2.8,0,0,1-1.3-.4c-.5-.3-.7-.2-1,.2s-4.2,1.5-12.6,3.6l-12.4,3.3c-.2.3,5.9,15.5,6.8,16.9l.5.8,3.3-.2,3.4-.3c.1-.2-.8-2.9-2.8-8.1a23.2,23.2,0,0,1-1.6-5.2,2.8,2.8,0,0,1,1.4-.8l5.8-1.5c5.9-1.6,6-1.6,6.8.1s.8,2.3.1,2.6a26.2,26.2,0,0,1-4.3,1.3l-3.8,1.1a9.7,9.7,0,0,0,.6,1.5c.4,1,.7,1.4,1,1.3s7.8-2.1,8.1-1.9,1.7,2.7,1.7,3.6-.6.7-3.1,1.5l-4,1.1c-1.1.2-1.2.5-.4,1.9s.7.9,2.1.8l4.3-.9a12.9,12.9,0,0,1,3.5-.6,12.9,12.9,0,0,0,3.4-.4l2.6-.5.7.9a4,4,0,0,1,.8,1.2c0,.1.8,1.9,1.8,4a40,40,0,0,1,1.9,4.1,4.8,4.8,0,0,1-1.5,1.6c-1.4,1.1-2.9,1.6-15.2,5.4-7.4,2.4-13.9,4.2-14.2,4.2s-1.6-2.4-6.8-16.2c-3.4-8.8-6.1-16.2-6.1-16.5l.4-1c.2-.4.1-.5-.4-.5a1.5,1.5,0,0,1-.9-.4c-.3-.3-.6-.2-1.1.3s-3.9,1.5-15.2,4.4c-8,2-14.8,3.7-15.1,3.6s-.7-.4-.8-.8-.7-.9-1,.2-.2,1.2.1,1.4,1.4,2.1,6.7,17.8l5.6,16.5c.4.7.3.9-.4,2a3.7,3.7,0,0,1-2.3,1.7c-8.5,2.8-32.3,10.1-32.8,10.1s-.7-.4-1-1.6Zm21.7-50.4c1.7-.3,2-.5,1.9-1s-1.7-5.7-6.4-20.4a51.7,51.7,0,0,1-1.9-6.5,7.9,7.9,0,0,0-.5-1.5c-.4-.9-.8-1.3-1.1-1.2l-7.1,1.6c-9.6,2-13.3,2.9-13.3,3.2a37.7,37.7,0,0,0,3.7,6.9c1.5,2.4,1.8,2.3,1.2-.6s-.5-2.8,1.5-3.2,3.2-.6,4.3,3.2c3.6,11.8,4.1,13,5.3,14,3.2,2.5,9.2,6.2,9.8,6.1l2.6-.6Zm20.6-4.9,14.4-3.7c.2-.1-9-24.4-10.3-27.3-.5-1.1-.7-1.3-1.3-1.2l-14.1,3-13.5,2.8c-.2.2,9.9,29.9,10.2,29.9l14.6-3.5Zm-9.7-6.2c-.4-.7-1.8-4.7-3.2-9-2.3-6.9-2.5-7.7-2-8s12.6-3,13.2-2.8,1.5,2.5,1.3,3.1-1.2.8-5.8,1.8-3.5.6-2.6,2.8.4.8,1.1.7l4.2-.9a19.1,19.1,0,0,1,3.8-.6c.5.1,1.3,2,1.3,2.9s-.6,1-4.9,1.9l-3.6.9c-.3.3.9,3.3,1.3,3.3l4.7-1c3.4-.7,4.5-.9,4.8-.6s1.3,3.1.9,3.5-12.4,3.3-13.4,3.3-.8-.4-1.1-1.3Zm41-1.6,13.2-3.4-2.2-5.3c-3.4-7.7-9.5-21.5-9.7-21.6s-25.7,5.1-26,5.3,3.4,9.4,9.7,25.1a10.5,10.5,0,0,0,1.6,3.1c.2,0,6.3-1.4,13.4-3.2Zm-9.4-6.4-3.4-8.3c-3.1-7.7-3.1-7.7-.2-7.8h1.6l2.7,6.5c2.5,5.9,2.8,6.4,3.5,6.4l4.2-.9c2.5-.6,3.7-.8,4-.6s1.5,2.8,1.1,3.3-10.9,3-12.1,3-.9-.3-1.4-1.6ZM111.5,92.8l11.9-2.4L119.8,79,116,67.6l.4-2.1c.4-2.3.7-2.8,1.3-2.6s2.2,5.9,4.7,13.5c3.1,9.7,4.4,13.3,4.8,13.3s26.9-5.3,27.5-5.5.5-.4-8-22.1c-.9-2.3-1.5-3.6-1.9-3.7s-1.7-3.1-4.4-10.3c-2.2-5.6-4-10.5-4-10.9a3.4,3.4,0,0,0-.7-1.7c-.8-.9-.8-.9-1-.3a1.3,1.3,0,0,1-.7.9,54.6,54.6,0,0,1-5.7.8c-8.8,1-20.9,2.6-21,2.8a40.5,40.5,0,0,0,1.2,4.8c1.4,4.4,2.9,10.1,2.9,10.6A9.6,9.6,0,0,1,110,57a26.8,26.8,0,0,0-2.3,3l-1,1.3,2.2-.2a25.3,25.3,0,0,1,3.8-.3h1.7v2.8l-4.3.8c-6.1,1.1-6,1.1-6.5,2.4a20.4,20.4,0,0,1-.9,2.2l-.5,1.1h2.1a8.8,8.8,0,0,1,5.4,1.6c1.7,1.2,1.6,2-.6,3.1s-1.8.8-2.7.4c-3.7-1.6-6,.2-5.1,4.1s5.4,7.2,7.2,3.8l.6-1.2,2.1.2a8,8,0,0,1,2.4.3c.2.2.3.7.2,1.5-.5,3.9-6.3,6.4-11.5,5-2-.5-2-.6-1,3,.6,2.1.7,2.4,1.4,2.4l8.8-1.5ZM130.7,83c-.5-.3-.5-.9.1-7.4,1.1-10.7.9-9.9,2-10.3a7.1,7.1,0,0,1,2.1-.3c1.1,0,1.3.2,6.8,6.9,3.5,4.3,5.7,7.3,5.7,7.7s-.8,1-3.1,1.1-1.3-.1-2.6-1.7-1.4-1.8-4.2-1.3l-1.8.4-.2,2a6,6,0,0,1-.6,2.3c-.7.6-3.6,1.1-4.2.6Zm6.7-9.3a6.3,6.3,0,0,0-.8-1.1l-.7-1v1.2c-.2,1.1-.1,1.1.7,1.1S137.4,73.8,137.4,73.7ZM60.6,145.5a8.1,8.1,0,0,1-1-3.7,67,67,0,0,0-1-6.8c-3.6-18.7-5.2-27.8-5-28s33.5-6.8,34.4-6.8,1.2,2.7,3.4,11c5,19.4,5.3,20.6,5.7,21.3s.6,3.6.1,4-35.2,9.3-36,9.3l-.6-.3ZM204.1,97.7c-2.2-4.2-6.6-14.1-6.5-14.6s.6-.8,2.4-1.2c3.5-.8,5.9-.8,7.9.2,4.9,2.4,8,9,6,12.8-1,1.8-2.2,2.6-5.4,3.4s-3.7.8-4.4-.6Zm5.9-4.6c.9-2.5-2-7.6-4.7-8.2-1-.2-2.5.1-2.5.5l2.1,4.7,2.2,4.5,1.3-.4a2,2,0,0,0,1.6-1.1ZM163.8,76.6c-.6-.5-6.1-14-6-14.8s.5-.8,1.9-1.1c5.7-1.2,9.7-.1,11.1,3s-.6,5.5-4.3,6.4l-1,.2a23.6,23.6,0,0,0,1,2.6,9.1,9.1,0,0,1,.9,3c-.1.3-.6.5-1.1.7l-1.5.3c-.2.1-.7-.1-1-.3Zm2.8-10.7c1.1-1-.1-2.2-2.2-2.2s-1.5,0-1.3.9a4.1,4.1,0,0,0,.7,1.5c.3.6.6.6,1.4.4A4.5,4.5,0,0,0,166.6,65.9Zm28.7,3.2a138.4,138.4,0,0,1-5.8-12.7c0-.7.8-1,2.4-1H193l3.1,6.4c1.7,3.5,3.1,6.8,3.2,7.2s-.5,1.5-2.2,1.5-1.1-.1-1.8-1.4Zm23.2-8.9-2.8-5.5-1,.2c-3.6.7-3.5.7-4.2-.5s-.8-2-.1-2.2,9.9-1.7,10.9-1.7,1,.2,1.5,1,.4,2-1.5,2.2l-1.7.4c0,.2,1.1,2.4,2.5,5.1a45.5,45.5,0,0,1,2.6,5.5c0,.6-.6.9-2.1.9h-1.2l-2.9-5.4Zm21.7,1.3a125.7,125.7,0,0,1-2.2-13c0-.9.8-1.4,2.2-1.4s1.6.6,6.8,5.7c3.3,3.3,5.8,6.1,5.8,6.4s-1.1,1.1-2.4,1.1a2.6,2.6,0,0,1-1.9-1.1c-1.5-1.5-2-1.7-3.6-1.5l-1.4.2.2,1.6c.2,1.9,0,2.3-1.9,2.6s-1.4.1-1.6-.6Zm3-7.3a.5.5,0,0,0-.3-.5c-.1-.1-.3,0-.3.3s.2.5.3.5A.3.3,0,0,0,243.2,54.2Zm-90.3-3.8c-.7-.8-5.7-13.1-5.6-13.6s1.1-1.1,4.6-1.3,5.5.2,7.2,1.8,2.1,3.1,1.3,4.7-2.5,2.4-4.2,2.8-.9.3-.8.7l.9,2.4c.8,2.3.7,2.5-1.5,2.8s-1.7,0-1.9-.3Zm2.7-9.5c1.3-.7.2-1.9-1.7-1.9s-1,.6-.5,1.6,1.3.8,2.2.3Z" fill="#cdb467"/>
          <path d="M110.7,174.8c-.6-1.6-9.4-36.4-9.4-37s.5-1.4.8-.2,2.3,8.6,4.7,17.8,4.5,17,4.7,17.1,7.9-2.1,17.3-5l17.3-5.3c.5,0,.2.9-.5,1.7s-3.4,1.6-17.4,6l-17.1,5.3a.4.4,0,0,1-.4-.4Zm8.5-14.5c-.5-.6-5.7-19.6-5.5-20.4s.5-.8,3.9-1.7,6.7-1.2,9-.1,5.5,5,6.2,9.2-1.2,8.8-4.7,10.6l-4.3,1.5-3.8,1.1a.8.8,0,0,1-.8-.2Zm6.6-5.8c2-.9,2.8-2.7,2.5-5.7s-1.9-6.5-4.3-7.4a3.9,3.9,0,0,0-3-.2l-2,.6c-.3.3.1,1.9,1.5,6.7s1.9,6.6,2,6.7,1.6.1,3.3-.7Zm54.8-2.6c-.2-.3-2.9-7.6-6.2-16-5.8-15.2-5.9-15.4-5.4-16.3s.4-1.7-.4-1.4-.7-.1-1.1-.4-.6-.5-1.2.3-2.1,1.2-15.3,4.6l-15.1,3.6a.8.8,0,0,1-.4-.7,6.3,6.3,0,0,0-.4-1.4c-.8-1.7-9.2-28-9.2-28.6a4.8,4.8,0,0,0-.4-1.5,14.2,14.2,0,0,1-.8-1.8c-.3-.8-.3-.8-.9-.4s-5.8,1.6-15.9,3.7c-14,2.9-15.5,3.2-15.5,3.8s8,32.2,8.4,32.5,7.6-1.7,16.6-4,16.7-4,16.8-3.9a8.6,8.6,0,0,1-.8,2.8L117.6,131l-16.2,4.2c-.5.1-.8,0-1-.4s-2.1-7.7-4.4-16.4-5.8-22.6-7.9-30.8-3.8-15.2-3.8-15.7a4.1,4.1,0,0,0-.5-1.7c-.6-1.4-6.9-25.8-6.9-26.9s.4-1.1.7-.2,1.5,5.6,3,11.6,3,11,3.2,11.1,7-.9,15.2-2.2,14.9-2.2,15-2,0,1.2-.8,1.4L99.1,65.3,84.9,67.6c-.6.2-.7.3-.5,1.3s7.2,27.9,7.5,28.2,31.7-5.9,32.1-6.3-1.5-5.4-3.6-11.8c-3.4-10.5-3.8-11.8-3.6-13.2s.7-2.5.9-1.7l4.4,13.2c2.3,7,4.2,12.9,4.3,13s29.2-5.6,29.3-5.9-8.1-22.2-9.7-25.8a1.2,1.2,0,0,0-.9-.7c-.4,0-.8-.5-1.2-1.6s-2.1-5.5-3.9-10.2-3.2-8.7-3.3-9.1-1.4-3-1.9-3-.4.3-.5.6-.7,1.3-3.6,1.5L118,37.6a102,102,0,0,1-10.4,1,2.8,2.8,0,0,1-.8-1.5c-.2-.7-1.7-5.6-3.4-10.8-3-9.4-3.3-10.9-2.8-12.9.2-.5.3-.6.5-.3l3.6,10.7c1.8,5.7,3.4,10.5,3.6,10.7s25.9-2.7,26.5-3.2-.1-1.8-3.2-9.6-3.5-9.2-3.3-10.1.4-1,.6-.9,2,4.7,4.2,10.3,4,10.2,4.2,10.3,23-2.3,24.1-2.7.7-.6.7-.8-1.8-4.4-3.9-9.1-3.9-8.9-3.9-9.3.5-1.8.8-1.5,2,4.4,4.4,9.7,4.4,9.8,4.6,10.2.6.5,11.3-.8c8.7-1,11-1.4,11.5-1.8s.4-.9-4-9.6-4.8-9.9-4-9.9,2.5,4.4,5.2,9.7l4.8,9.8h1.2L200.4,24c6.7-.9,9.3-1.3,9.7-1.7s.6-.5-5.1-10.7c-2.2-4-4.1-7.4-4.1-7.5s1.4,1,5.4,8.5c2.6,4.6,4.9,8.8,5.2,9.2l.5.7,9.3-1.2c5.1-.6,9.4-1.1,9.4-1s-1.7,3.3-2.1,3.3l-9.9,1.2c-5.2.7-9.6,1.2-9.8,1.1a1.2,1.2,0,0,0-1,.1c-.3.2-5.2.9-10.7,1.6-8,1-10.3,1.2-10.8.9s-.7-.2-1,.2-2.7.7-10.1,1.7l-10.2,1.2a1.4,1.4,0,0,1-1-.9c-1-1.8-1.7-1.8-14.7-.1-6.4.8-11.7,1.6-11.8,1.7a2,2,0,0,0,.2,1.2l4.7,11.7c2.3,6,4.3,11.1,4.5,11.3s5-.5,12.3-1.7,12.5-1.9,12.8-1.8-1.5.7-12.5,2.4c-8.3,1.4-11.8,2.1-12,2.4s9.4,25.3,10,25.9,3-.1,13.4-2.2l13.3-2.8a.7.7,0,0,0,.3-.6c0-.2-2.2-5.2-4.8-11.1-4.7-10.5-4.8-10.7-4.3-11.7a2.5,2.5,0,0,1,.7-1.2c.1-.1,2.6,5,5.4,11.3s5.4,11.8,5.6,12.1,1.1.5,12.7-1.8L212.2,73c.1-.2-2.2-5.1-5.2-11.1-4.9-9.8-5.9-12.1-5.2-12s2.8,5,5.9,11.3,5.9,11.3,6.1,11.4,22.4-4.2,22.8-4.5a15.4,15.4,0,0,0-1.9-4.1L229,53.6c-2-3.6-3.7-6.7-3.7-6.8s.2-.4.5-.6,1.5,1.7,6.5,10.6,6.2,10.9,6.6,10.9l10.5-2c7.5-1.6,10.1-2.2,10.1-2.6s-2.5-4.8-5.7-10.2c-5.1-8.4-5.8-9.7-5.5-10.1s.6-.4.8-.2,3,4.8,6.3,10.2c5.5,9.2,6,9.9,6.8,9.9a70.7,70.7,0,0,0,9.4-1.6c4.6-.9,8.7-1.7,9-1.6s.3.4-1,1.8L278,63l-9.5,1.9c-8.2,1.7-9.5,1.9-10.1,1.6s-.7-.3-1.4.3-2.6,1-10.9,2.8-10.3,2-10.8,1.8-.8-.2-1.2.3-3.2,1.1-10.3,2.5c-9.1,1.9-9.7,2-10,1.5s-.1-1.7-12.7.8l-12.3,2.6c-.3,0-.5.4-.5.7s11.8,26.9,12.3,27.1,5.8-1.2,12.4-2.9,12.1-2.9,12.2-2.8-.3,1.2-1.5,2.2-2,1.3-12.8,4l-11.7,3-1.3-.5c-1.2-.5-1.3-.5-1.8.1s-3.4,1.3-12.3,3.6l-12.4,3.1c-.4.1-.7.4-.7.6s11.8,30.8,12.4,32,.4.6.7.6l13.8-4.2c7.3-2.3,13.5-4,13.6-4s-.2.7-.7,1.2-2.3,1.5-15,5.4l-14.2,4.3a.8.8,0,0,1-.7-.7Zm-27.9-32.8c8.2-2,14.7-3.8,14.8-4s-10.6-28.5-11.1-29-4,.4-14.7,2.6l-14.6,3.1c-.2.2,9.5,30.1,10,30.8a1.1,1.1,0,0,0,.7.3l14.9-3.8Zm-9.4-6.7c-2.1-5.7-5.6-16.4-5.4-16.6s11.5-2.7,12.3-2.7,1.5,2.1,1.1,2.5a35,35,0,0,1-4.5,1.2l-4.5,1.1a9.4,9.4,0,0,0,1.4,3.7,27.3,27.3,0,0,0,4.5-.8c4.6-1.1,4.9-1,5,.9v1.1l-3.4.8-4.3,1c-1,.2-1,.6-.2,2.8s.9,1.7,1.3,1.7l4.5-.9,4.3-.9c.4,0,1.3,1.7,1.3,2.4s-.4.4-1,.6-11.5,2.8-12,2.8a1,1,0,0,1-.5-.7Zm39.7-.8c15-3.8,14.6-3.7,14.6-4.1s-11.7-26.9-12.2-27.6-25.6,5-26.5,5.3a.7.7,0,0,0-.5.6c0,.2,2.4,6.6,5.3,14.1l5.5,14.2a1.1,1.1,0,0,0,.9.6l12.9-3.1Zm-7.9-6.7c-.2-.3-1.7-3.9-3.3-7.9-3.2-8-3.2-8-1.2-8.4s1.3-.2,4.3,7.2c1.3,3.2,2.6,5.9,2.7,6a24.9,24.9,0,0,0,4.3-.8,19.3,19.3,0,0,1,4.4-.7,2.6,2.6,0,0,1,1,2.2,89.8,89.8,0,0,1-11.4,2.9.9.9,0,0,1-.8-.5ZM60.4,144.2a4,4,0,0,1-.2-1.7c.2-.3,35.6-9.3,36.6-9.3s.5.3.4,1.6v1.6L79.3,141l-18.1,4.5c-.2,0-.5-.6-.8-1.3Zm127.5-6.8c-3.6-8.7-6.2-15.3-6-15.7s10.4-3.3,11.7-3.3,1.7,2.3,1.4,2.6a22.2,22.2,0,0,1-4.3,1.4c-2.7.8-4.1,1.3-4.2,1.6a6.5,6.5,0,0,0,.6,2c.9,1.8.9,1.8,5.8.5l3.5-1,.6,1c1.1,1.8.8,2.1-3.4,3.3a16.3,16.3,0,0,0-4,1.5c-.2.6,1.5,4.4,1.9,4.4l4.5-1.3c3-.9,4.2-1.1,4.5-.9s1.2,2.5.8,2.8a121.1,121.1,0,0,1-12,3.7,8.2,8.2,0,0,1-1.4-2.6ZM75.2,129.1c-.2-.4-2-8.8-2-9L68.8,116c-2.5-2.1-4.4-4.1-4.4-4.4s2-1.1,3.5-1.2a13.7,13.7,0,0,1,3.5,2.8c1.7,1.5,3.1,2.7,3.3,2.6l1.6-3.7c1.5-3.7,1.7-4,4.2-4.4s1.3-.1,1.3.3a47.4,47.4,0,0,1-2,5.5,47.4,47.4,0,0,0-2,5.5c0,.4.4,2.5.9,4.8a31.9,31.9,0,0,1,.9,4.6,4,4,0,0,1-1.8.7c-2,.5-2.5.5-2.6,0Zm38.4-9.9c-.2-.5-1.3-4.6-2.6-9-2.6-8.9-2.6-8.5-.1-8.9h1.5c.3.3,5.2,16.7,5.2,17.4s-.7,1.1-2.4,1.4-1.2.1-1.6-.9Zm91.2-21.3c-.2-.2-1.8-3.6-3.6-7.5-2.5-5.4-3.2-7.1-2.9-7.4s5.9-1.5,7.2-1.2c5.5,1,10.1,8.6,7.8,13.1-.7,1.4-1.7,2-4.8,2.8s-3.4.7-3.7.2Zm4.5-3.5c1.4-.7,1.7-2,1.1-4.2-1.2-4.2-4.3-6.5-7.5-5.6-.4.1-.7.4-.7.6s1,2.4,2.2,5c2.5,5.2,2.6,5.3,4.9,4.2ZM102.2,88c-2.7-1.2-4.5-3.4-5.6-6.7s-.3-7.5,3.1-9.4c1.5-.8,2-.9,4.5-.9s3,.1,4.1.8,2,1.7.3,2.4-1.4.6-2.2.1a5.4,5.4,0,0,0-4.8.2c-2.4,1.7-1.7,6.6,1.3,9.6a3.8,3.8,0,0,0,2.7,1.2c1.8.1,2.8-.4,3.5-1.8a1.3,1.3,0,0,1,1.5-.9c1.9.1,2.5.4,2.5,1.3a5.1,5.1,0,0,1-2.8,3.5c-1.2.7-1.9.9-4.2,1a11.3,11.3,0,0,1-3.9-.4ZM131,82.4c-.2-.5,1.3-16.1,1.5-16.4a4.2,4.2,0,0,1,1.7-.3l1.5-.2,5.5,6.7c3.1,3.7,5.6,6.9,5.7,7.1s-.5.6-1.6.8l-1.6.3L142.4,79a18.8,18.8,0,0,1-1.3-1.7c0-.5-1.3-.6-3.4-.1a10.6,10.6,0,0,0-2.5.6,9.3,9.3,0,0,0-.3,2.1c-.1,1.6-.3,1.9-.9,2.2s-2.8.8-3,.3Zm7-8.4c.3-.3-1.8-3-2.3-3s-.4.7-.4,1.8v1.8h1.3c.7-.1,1.4-.3,1.5-.5Zm26,2c-.5-.5-5.6-13.3-5.6-13.9s.5-.8,3.8-1.2,5.6.1,7.2,1.7,1.3,5.6-2.8,6.8c-.8.3-1.3.6-1.4.9a7.7,7.7,0,0,0,.9,2.9,7.9,7.9,0,0,1,.7,2.6c-.5.5-2.5.7-2.8.2Zm2.5-9.5c2.1-1.7-.4-4-3.4-3.2-.9.2-.9.6-.1,2.4s.7,1.4,1.7,1.4a3.2,3.2,0,0,0,1.8-.6Zm29.8,3.3c-.6-.8-6.2-12.6-6.2-13.2s1.9-1,2.4-.4a129.6,129.6,0,0,1,6.3,13c0,.4-.2.6-1.3.8a1,1,0,0,1-1.2-.2Zm25.4-4.9c-.2-.2-1.4-2.4-2.7-4.9-3.1-6-3-5.9-4.8-5.5s-2.9.4-3.4-.6-.3-1.1-.2-1.1l5.5-1.1,5.4-.9.5.6c1,1.3.8,1.6-1.7,2-.6.1-1.2.3-1.3.5a29.8,29.8,0,0,0,2.5,5.2c2.6,4.8,3,5.9,2.2,5.9l-1,.2a1.1,1.1,0,0,1-1-.3Zm18.9-3.6c-.3-.6-2.1-12.6-1.9-13.1s.5-.5,1.2-.5,1.6.6,6.7,5.7c3.3,3.3,5.6,5.8,5.5,6a2.4,2.4,0,0,1-1.4.3c-1,0-1.4-.2-2.5-1.4s-1.5-1.4-2.8-1.2-2.5.3-2.3,2.3.2,1.8-.5,2-1.8.2-2-.1Zm3.1-6.4c.7-.3.6-.7-.4-1.7s-1.7-1.2-1.4.3.5,1.9,1.8,1.4ZM89,59c-.1-.5,2.6-14.7,3-15.3a3.4,3.4,0,0,1,1.7-.5l1.6-.2,3.1,3.8c6.9,8.7,7.6,9.6,7.3,9.9a7.9,7.9,0,0,1-2,.5H102l-1.3-1.7c-1.3-1.6-1.5-1.8-2.3-1.6l-2.6.4-1.9.4a4.4,4.4,0,0,0-.5,1.9c-.3,1.7-.8,2.4-2,2.4l-1.5.2c-.5.1-.7,0-.9-.3Zm7.4-7.6c.7,0,.7-.6-.3-1.9s-1.4-1.3-1.7.1-.1,2.2.8,2l1.2-.2Zm168,4.4C260.2,49,258,45.4,258,45.1s1.4-1,1.9-.7l3.3,5c3.3,5.4,2.9,5.1,6.7,4.3,2.2-.5,2.4-.5,3,0s.7,1.7-.1,1.9L265.6,57c-.3,0-.8-.6-1.2-1.2ZM152.7,48.5c-2.2-4.9-4.6-11-4.4-11.4s1.1-.5,2.8-.8c4.1-.5,6.7.2,8.2,2s.5,4.9-3.1,5.8c-1,.2-1.6.5-1.6.8a13.1,13.1,0,0,0,.9,2.6c.9,2.3.8,2.6-1.1,2.7s-1.1-.2-1.7-1.7Zm3.5-7.2c.5-.5.7-.8.5-1.4s-1.2-1.5-3-1.5-1.8.6-1.1,2.2.7,1.2,1.8,1.2a3.5,3.5,0,0,0,1.8-.5ZM117.1,27.8c-1.6-.5-3.5-1.9-3.5-2.5s.5-.6,1.2-.8,1.3-.3,2.1.3a3.9,3.9,0,0,0,3.4.8c1.2-.2,1.8-1.1,1.3-2s-2.9-1.5-4.3-1.5a9.5,9.5,0,0,1-5.2-2c-2.7-2.7.4-5.8,5.4-5.4,2,.2,3.9,1.1,4.1,1.9s-1.9,1.3-3,.9-3.2-.3-3.6.3.7,1.7,3.4,2.1c4.4.7,6.5,2,6.8,4.2a2.3,2.3,0,0,1-.6,2.2c-1.5,1.7-4.8,2.4-7.5,1.5Zm23.8-2.4a51.4,51.4,0,0,1,.2-6c.4-6.3.6-6.9,2.4-6.9s1.3.3,7.7,7.4c2.2,2.3,3.4,3.9,3.2,4.1l-1.4.4c-1.1.2-1.3.1-2.7-1.2l-1.5-1.5h-2a8.3,8.3,0,0,0-2.2.4,4.9,4.9,0,0,0-.4,1.6c-.2,1.2-.3,1.5-1,1.7s-2.1.3-2.3-.1Zm5.4-6.1c.4-.2.3-.4-.4-1.2s-1-1-1.2-1-.2.6-.2,1.3.1,1.2.7,1.2a2,2,0,0,0,1.1-.3ZM171,21.9c-2.4-.7-3.8-2.2-5.9-6.4a28.5,28.5,0,0,1-1.8-4.3c0-.5,1.6-.9,2.3-.6a15.8,15.8,0,0,1,2,3.6c1.9,4.1,3.3,5.7,5,5.7s2.4-1.5.2-5.9-1.8-4.4,0-4.2,1.2.1,2.8,3.5,2.4,6.4,1.2,7.6a6.4,6.4,0,0,1-3.8,1.5l-2-.5Zm24.2-2.5c-3-1.1-6.3-5.4-6.3-8.1s1.8-3.4,4.7-3.4c1.3,0,3.8.8,4.3,1.4s-.3,1.4-1.4,1.2c-2.8-.5-3.2-.5-3.9-.2s.5,5.9,3.3,7,2.2.6,2.9-.3a2.6,2.6,0,0,1,3.1-.5c.6.4.1,1.8-1,2.6s-4,1-5.7.3Zm19.5-3.3c-4.1-7.1-5.1-9-4.7-9.3a13.2,13.2,0,0,1,4.2-.7c3.6-.4,3.9-.4,4.4.2s.5,1.5-2.1,1.7-3.3.4-2.6,1.7.8,1,1.5.8l2.8-.3c1.8-.2,2.1-.1,2.6.4s.5,1.5-2.2,1.8a11.5,11.5,0,0,0-2.7.4c-.1.2.2.8.5,1.4s.8,1.1,2,1c4.3-.6,4.8-.6,5.4-.1s.8,1.4-.1,1.6-5.8.7-7.1.7-1.2-.1-1.9-1.3Z" fill="#2f2a1a"/>
        </g>
        <rect width="335" height="145.12" fill="#821618" opacity="0.9"/>
      </g>
    </g>
    <g>
      <g>
        <path d="M36.5,243.6,50,250.1a6.3,6.3,0,0,1,2.1,1.2,1.1,1.1,0,0,1-.8.3h-1a16,16,0,0,1-5.4.5c-.9,0-1.6.8-2.5,1a42.2,42.2,0,0,1-5.9.9c-2.3.2-4.4.9-6.6,1.1a2.2,2.2,0,0,1-1.8-.2.7.7,0,0,0-.9.1c-1.2.5-2.3,1.3-3.5.1h-.6c-1.4.7-2.5,0-3.7-.7a18.7,18.7,0,0,0-6.3-2.8c-.4-.1-.8-.3-.8-.6s-.9-1.2-1.7-1.1A5.3,5.3,0,0,1,8,247.4c.2-.2.5-.2.8-.3l21.3-3.2c1.2-.2,2.5-.1,3.7-.3Z" fill="#b4a895"/>
        <path d="M33.8,243.6l-7.3,1.2-10.7,1.6-7.1,1.1a1.1,1.1,0,0,0-.8.2c-2,1.3-1.8,3.4-1.4,5.3s.1,2.5-1.1,3.3H5.1c0-3.9,0-7.9-.1-11.8,0-.8.3-.9,1-.9Z" fill="#fff"/>
        <path d="M5.1,256.3h.2c.4.4.3,1,.4,1.5s.2,1.7-.4,2.4H5.1Z" fill="#e5daca"/>
        <path d="M16.8,277.7a21,21,0,0,1,2.2-3,.1.1,0,0,0,.1.1c.4.9.3,2,1.1,2.8s-.2.7-.5,1.1c2.6.1,5,.5,7.5.6s6.4.5,9.5.6l4.5.2c2.4.1,4.8-.2,7.3-.1.5,0,1,0,1.2-.6a.4.4,0,0,1,.3-.4c1-.1,1.7-.9,2.5-1.1s2.5-1.4,3.5-2.5a5.6,5.6,0,0,0,.5-.8c.4-.3.8-.4,1.1,0s.2.4,0,.5c-1.5,1.9-2.4,4.3-4.8,5.5a2.1,2.1,0,0,0,0,1.9c.4.5-.5.9-.4,1.5v1.7c.1,1.4-.8,2-2.1,1.8a18.8,18.8,0,0,0-4.1-.2,2.3,2.3,0,0,1-1.7-.5c-.7-.6-1.2-1.2-.9-2.2a3.7,3.7,0,0,0,.1-1.1c.1-.4.4-.9-.2-1.1s-.9.2-1.2.7a1.7,1.7,0,0,0,.1,2.1c.4.4.9.7.5,1.3a1.2,1.2,0,0,1-1.4.5c-.9-.2-1.5.4-2.2.7s-3.9-.3-5.8-.6a21.9,21.9,0,0,1-3.4-1,9.9,9.9,0,0,0-3-.2,23,23,0,0,0-6.3,1.4c-.8.1-1.4-.4-2.1-.6-2.8-1.2-3.6-4-1.8-6.7.3-.4.5-.7,0-1.1A.9.9,0,0,1,16.8,277.7Z" fill="#604228"/>
        <path d="M20.4,310.1l-6.5-1-2.1-.5a2.8,2.8,0,0,1-2.5-2.7,14.8,14.8,0,0,1-.1-2.1c0-1.8,1.4-2.8,3.4-2.6s1.5.2,2.1-.5a1.1,1.1,0,0,0,.5-1.2,4.1,4.1,0,0,1,1.6-4h0a1.4,1.4,0,0,1,1.1.4l.2.3,2.8,5a3,3,0,0,0,1.8,1.7c0-1-1.1-1.9-.1-2.8s.5.3.5.6a2.1,2.1,0,0,0,2.3,1.7c.7,0,1,.3.9,1s.8.4,1.2.4a21.1,21.1,0,0,1,2.5.2,32.9,32.9,0,0,0,6.4.9,1.5,1.5,0,0,1,.9.2,2.1,2.1,0,0,0,2.3.2.5.5,0,0,1,.6.1,1.2,1.2,0,0,1,0,1,22.5,22.5,0,0,1-1.5,4.6c-.4.8.7.7.7,1.3a2.7,2.7,0,0,1-2.3.3l-2-.2-7.3-1.1c-1.6-.6-3.1-1.6-4.9-1.5a4.7,4.7,0,0,0-1.7.4h-.8Z" fill="#715134"/>
        <path d="M63.6,319.2a5.4,5.4,0,0,1-.7,3.9c-.2.2-.2.6-.6.4a1.4,1.4,0,0,0-2-.5,5.5,5.5,0,0,1-3.1,0c-.5-.1-.9-.1-1.1.4s-1.6,1.2-2.5,1.6a.4.4,0,0,1-.5,0c-1.3-1.3-3-.6-4.5-1.2s-.8.3-1.1.6-1,.7-1.2-.3c-.2.5,0,.9,0,1.3s-.2,1.3-.9,1.5-1.1.2-1.2-.6-.6-.1-.6.2-.2.9-.8.6-2.2,0-3.2.5-1.3.7-1.8-.6-.2-.5-.5-.5a.6.6,0,0,0-.6.6,8.6,8.6,0,0,1-.5,2.3c0,.1-.1.2-.1.3l-.3.2-.6.2h-.4l-.6-.6c.1-.5.6-.7.7-1.1s.5-3.1.2-4.7a1.8,1.8,0,0,0-1.3-1.5,22.6,22.6,0,0,0-2.2-1.1,1,1,0,0,1-.8-.8l.2-.3a1.9,1.9,0,0,1,1.8.3,9.3,9.3,0,0,0,7.3.7c2.2-.7,4.5-.9,6.7-1.5a1.4,1.4,0,0,1,1.1,0,4.6,4.6,0,0,0,3.6.5.9.9,0,0,0,.4-1.2c-.2-.5,0-.8.4-1.1a.7.7,0,0,0,.4-1,.9.9,0,0,0-1-.6h-.1c-.6,0-1.2.1-1.5-.5s.1-.6.4-.8,1-.9,1.7-.3.1.1.3.1-1.2-2.6.4-3.7c.9.5,1,1.6,1.4,2.4a2.2,2.2,0,0,1,.2,1.4,11,11,0,0,1-.2,2.6c.8.4,1.4-.5,2.2-.2a15.8,15.8,0,0,0,3.8-.3l1.3-.2C63.3,316.7,63.4,318,63.6,319.2Z" fill="#6a4b32"/>
        <path d="M57.6,274.8c-.4-.3-.7-.3-1,0l-.4.2a21.7,21.7,0,0,0-2.5-.4c-.7.1-.9-.5-.9-1.1v-.3c0,.5.1,1-.7,1.3s-1.2.1-1.4-.6-.4.6-.5.9-.2,1.2-.9.2-1.7,0-1.8.5-.1.5-.4.5-.6-.2-.6-.4-1-1.5-.6-2.4-.1,0-.1.1-.6.2-.8-.2.4-1.3,1-1.8,3.8-1.9,5.8-2.7,1.7-1,1-2.7a.5.5,0,0,1,0-.5c1-.4,1.4.4,1.7,1s.8.6,1.4.4a8,8,0,0,1,3.2-.9,7.7,7.7,0,0,0,2.7-.7l.5-.2c2-.9,2.9-.4,2.8,1.8a12.9,12.9,0,0,1-.1,3.4,2.5,2.5,0,0,1-1.4,1.6L60,273.4c-.6.5-1.4.8-1.8,1.5A.5.5,0,0,1,57.6,274.8Z" fill="#98774f"/>
        <path d="M5.3,260.2v-2.4c.2-.2.1-.4.1-.6s1.2-2,2.5-1.2l7.2,4.2a4.9,4.9,0,0,0,2.1.8,5.7,5.7,0,0,0,3.3,2c.3-.2.3-.6.4-.9s.2-.9.8-.8a1.6,1.6,0,0,1,.5,2.2c-.2.6-.2.8.3,1.2a7.4,7.4,0,0,1,1.6,3.2,1.5,1.5,0,0,1-.7,1.6c-.6.4-.9.1-1-.4s.2.6-.2.8a1.9,1.9,0,0,1-1.6-.4l-4.3-2c-.7-.3-1.1-.1-1.2.7a5.2,5.2,0,0,0,.2,2.5c.1.6.3,1.2-.2,1.7-.9-1.6-.7-3.3-.6-5a1.1,1.1,0,0,0-.7-1.3l-6.4-2.9A3.1,3.1,0,0,1,5.3,260.2Z" fill="#b3906b"/>
        <path d="M17.1,261.1a2,2,0,0,1-2-.7,1.9,1.9,0,0,1-.9-1.9c0-1.7-.4-3.4.1-5.1s-.2-.5-.6-.7a6.3,6.3,0,0,1-2.8-2c-.2-.4-.6-.6-.3-1.1h.3c.7.1,1.7-.5,1.6.9s.3.9,1,.8h.3l6,2.8c.2,1.5,1.9.2,2.3,1.3l.5-.3c.5-.4,1.1-.8,1.5.1a.8.8,0,0,0,1,.3c.6-.5,1.6,0,2.1-.9a.7.7,0,0,1,1.1.1c.3.6,1,.3,1.5.2s3.2-.7,4.8-.9l5.4-.6a7.5,7.5,0,0,0,3.7-1.1,4,4,0,0,1,3.4-.3.8.8,0,0,0,.8,0c1.3-.8,2.7-.6,4.2-.6a3.1,3.1,0,0,1,1.4,2.8v2c-.7-.2-.5-.7-.5-1.2a4.7,4.7,0,0,0-.4-1.7,1.5,1.5,0,0,0-1.7-.8,28,28,0,0,1-2.8.6c-7.3.9-14.4,2.2-21.7,3.3a25.8,25.8,0,0,1-3.9.4c-.9-.1-.6.5-.5,1s.5,2.5-.4,3.7a1,1,0,0,0-.5,1,1.3,1.3,0,0,1-.5,1.1,1.4,1.4,0,0,1-.7-1.3c-.1-1-.1-2-.3-3a2.9,2.9,0,0,0-.7-2c-.5-.5-.4-1.2-.2-2s-1.1.3-1.2-.4-1-.7-1.6-.9-.5.3-.5.5a10.4,10.4,0,0,0,0,4.3c0,.6.5.8,1,1.1S17.5,260.4,17.1,261.1Z" fill="#b19a7a"/>
        <path d="M52.1,283.9a.8.8,0,0,1,.3-.8l.3-.4c-1.2-.6-.1-1.6-.4-2.4,1.3-.1,1.9.2,2,1.4s.5,3-.2,4.5-.2.5.1.6.2-.1.3-.2,1.2-.4,1.5.4-.1.9.1,1.3.1,2,.1,2.9a2.5,2.5,0,0,1-.1.9c-1.3,2.1-.2,4.4-.5,6.7s-.2,1.6-1.1,1.9a.8.8,0,0,1-.7.1.3.3,0,0,1,0-.4,4,4,0,0,0,.8-4.8c-.2-.3-.1-.6-.1-.9s-.4-.5-.8-.4a43.9,43.9,0,0,1-7.2.7c-.6,0-1.1-.2-1.2-.9s-.3-.6-.5-.8-.6-.9-.1-1.3a.9.9,0,0,1,1.4,0,1.1,1.1,0,0,0,1.5.4c.5-.2.9,0,1.1.6s.2.7.7.6a.8.8,0,0,0,.6-.8,4.1,4.1,0,0,0,.1-1.1,1.9,1.9,0,0,1,.7-1.8,1.1,1.1,0,0,0,.5-.9,2.3,2.3,0,0,1,.9-1.9c.6-.5.2-1.3.6-1.8a2.4,2.4,0,0,0,.3-.9c.1-.4-.1-.4-.4-.3S52.2,284.1,52.1,283.9Z" fill="#735030"/>
        <path d="M14.2,287.5a3.7,3.7,0,0,1-1.3-2.8,17,17,0,0,1,0-4.5,1.3,1.3,0,0,1,.8-1.1,5,5,0,0,0,1.7,2.3c.5.2.4.6.5,1a19.4,19.4,0,0,0,.2,2.4A1.5,1.5,0,0,0,17,286l1.1.4a18,18,0,0,1,4.5,3.3,1.2,1.2,0,0,1,.5,1,40,40,0,0,1,0,4.9.9.9,0,0,1-.3.6c-.6.3-.9-.3-1.3-.6s-.7-1.1-1.5-1.1-1.5-2.3-2.4-3.2a6,6,0,0,1-2.4-4C14.8,287.3,14.6,287.9,14.2,287.5Z" fill="#cab095"/>
        <path d="M34.3,329.5l.5.4a1.1,1.1,0,0,1,.2.8c.1,2.2,1.2,3.2,3.4,3.3a24.5,24.5,0,0,0,5.4-1c4.9-1.1,9.7-2.7,14.6-3.8a6.6,6.6,0,0,0,3-1.5c1-.9,1-1.6.2-2.7s-.7-.7-.5-1.3a1.2,1.2,0,0,1,1.3-.2c.3,0,.1-.5.5-.4,2.1,2.2,1.6,4.1.7,5.2a5.4,5.4,0,0,1-3.6,2.1l-16.4,4.1a24.7,24.7,0,0,1-5.3,1,4.6,4.6,0,0,1-4.7-6.2C33.9,329,34.2,329.2,34.3,329.5Z" fill="#ededee"/>
        <path d="M34.3,329.5l-.7-.2-.2-.3a8.5,8.5,0,0,0-1.9-1.4,3.2,3.2,0,0,1-1.5-1.3,1.6,1.6,0,0,0-1.1-.7,6.2,6.2,0,0,1-2.5-1.1A3.9,3.9,0,0,0,25,324a9,9,0,0,1-2.9-1.6c.1-.7.8-1,.8-1.8s.2-.3.4-.3a.4.4,0,0,1,.4.4,2.5,2.5,0,0,0,.6,1.4c.2.2.5.5.8.3s.3-.5.2-.7a3.7,3.7,0,0,0-.3-1.5c-.1-.4-.4-.8,0-1.1a2.5,2.5,0,0,1,1.7-.1,11.6,11.6,0,0,0,3.7.7.6.6,0,0,1,.6.5.3.3,0,0,1-.1.2,12.8,12.8,0,0,0-.6,3.5c.1,1.5,1.2,2.1,2.1,2.7s1.6,1.5,2.6,1.9S34.6,329.2,34.3,329.5Z" fill="#7d5e41"/>
        <path d="M15.1,272.4c.2-1-.4-2-.4-3v-.7c.3-2.2.5-2.1,2.1-1.3l3.9,1.9c.1.9.1,1.8.2,2.7s-.9,1.8-1.4,2.6-.3.3-.5.3-.1-.1,0-.2-.4-.6-.8-.7S15.9,273.5,15.1,272.4Z" fill="#8b6640"/>
        <path d="M18.3,320.1c-1.7-.6-1.9-2.1-2.1-3.4a19.3,19.3,0,0,1-.1-3.4c.1-1.2,1-2,2.6-2.3a1.7,1.7,0,0,0,1,1.9,1.7,1.7,0,0,1,.6,1v1c.1-1-.4-2,.3-2.9s.6.6.6,1-.3.9-.1,1.3v.4a6.1,6.1,0,0,0,.1,3,1.4,1.4,0,0,0,.6,1.2.7.7,0,0,1,.2,1,.8.8,0,0,1-1.1.2,16.3,16.3,0,0,1-1.9-.9h-.9C17.9,319.5,18.4,319.7,18.3,320.1Z" fill="#a6815c"/>
        <path d="M56.1,288.3a7.4,7.4,0,0,0-.4-1.4c-.2-.7-.6-.7-1-.1s-.5-.5-.4-.8a5.8,5.8,0,0,0,.1-2.6c-.3-1.7.5-3,1.3-4.3a12.3,12.3,0,0,0,1.2-2.6c.2-.5.2-1.2,1.2-1a1.2,1.2,0,0,1,.2-.7c-.1-1.2,1-1.1,1.7-1.4,0,2.3.3,4.7-1.2,6.7s-1.7,3-2.6,4.4a2,2,0,0,0-.2,2.1A2.5,2.5,0,0,1,56.1,288.3Z" fill="#cbbeaf"/>
        <path d="M56.4,317.3a7,7,0,0,1-2.5.5,9.2,9.2,0,0,0,.4-2.9c.1-.3.3.4.4-.1s-.3-.8-.3-1.3a3.3,3.3,0,0,1,0-1.4c.1-.6.4-.9,1.1-.6s4.3,2,6.3,3.3,1.6,1.1,1.5,2.2c-1.9-.8-3.9-.4-5.9.2Z" fill="#8c7459"/>
        <path d="M65,270.2c0-1.1.1-2.3,0-3.5s-.4-2.1-2.4-1.5-1.4.9-2.3.5l-.6.3c-.6,1.1-1,.6-1.4-.4-.2.9-.4,1.7-1.4.9s-.4.1-.5.2-.9.8-1.7.5-.5.1-.5-.5-.5-1.3-1.4-1.3a.4.4,0,0,1-.1-.3c.3-.6.3-1.3,1.1-1.6a2.9,2.9,0,0,1,1.6-.1c.3,0,.7.1.7.5s-.3.5-.7.6H55a2.2,2.2,0,0,0,1.8-.8c.6-.1.6.5.7.7a13.1,13.1,0,0,1,5.1-.9c1.9.3,2.6,1,2.6,2.9S65.6,269,65,270.2Z" fill="#9b846a"/>
        <path d="M16.8,295.5a5,5,0,0,0-1.2,4.4c.1,1-1.5,2-2.6,1.7a3.4,3.4,0,0,0-2,.1,1.8,1.8,0,0,0-1.5,1.8,6.2,6.2,0,0,0,.8,4.2,1.3,1.3,0,0,0,.9.5,8.6,8.6,0,0,1,2.7.9h-.1c-1.6-.3-3.7.2-4.5-2.1s-.3-5.6,1.7-7.1Z" fill="#897259"/>
        <path d="M14.2,287.5c.7,0,.6-.7,1-1.2.5,1.2.5,2.5,1.3,3.5a13.9,13.9,0,0,0,2.1,2.1,4.8,4.8,0,0,1,1.6,2.6,1.3,1.3,0,0,1,.9,1.3.7.7,0,0,1-.8.6c-.9-.3-1.8-.1-2.6-.5l-.9-.5a2.5,2.5,0,0,0-.1-.8,10.3,10.3,0,0,1-1.7-5.1A3,3,0,0,0,14.2,287.5Z" fill="#ccc0b3"/>
        <path d="M54.7,314.9c-.1.8-.3-.1-.4,0s0-2.1-1-2.7.4-1.1-.5-1.2h-.1l.3-5.8c.1-1,.2-2,.2-3s-.6.3-.9.2l-1.6.8-1.1.3a1.4,1.4,0,0,1-1.8-.5c-.4-.8.3-1.1.8-1.5a29.8,29.8,0,0,1,5.1-.7h.8a1.3,1.3,0,0,0-.5,1.1c.2,2.7.3,5.3.4,7.9a1.8,1.8,0,0,0,1.1,1.8c-.6,0-.8.2-.8.8v1.6A.7.7,0,0,1,54.7,314.9Z" fill="#a68a69"/>
        <path d="M18.3,320.1c-.2-.2-.3-.4-.5-.5s-.4-.6-.2-.9.5.1.7.1a5.4,5.4,0,0,1,2.7,1.1c.2.1.6.3.8-.1s.1-.5-.3-.7a1.5,1.5,0,0,1-.6-1.1c.2-.2,0-.6.3-.8s.4.2.6.4a2.9,2.9,0,0,0,2.4,1.3.8.8,0,0,1,.8.3,7.2,7.2,0,0,1,.7,2.5c0,.4.2.9-.3,1.1a1.2,1.2,0,0,1-1.4-.4,2.5,2.5,0,0,1-.6-2c-.4.8-.3,1.7-1.3,2Z" fill="#8d6c4a"/>
        <path d="M62.6,263.5a9.5,9.5,0,0,1-2.9.7,8.1,8.1,0,0,0-2.2.7c-.2.2-.7.1-.3-.4s0-.5-.3-.7-2.3,0-3.3-.7-.6-1.3-.1-2a1.5,1.5,0,0,0,1.1.8A70.8,70.8,0,0,1,62.6,263.5Z" fill="#a4917a"/>
        <path d="M53.5,261.1c-.1.7.3,1.3.3,1.9h-.3A1.3,1.3,0,0,1,53,262a2.6,2.6,0,0,0-1.2-2.6c-.5-.3-.2-1,.2-1.6a3.8,3.8,0,0,0,.5-3.3c-.5-1.5-1.4-1.9-2.8-1.1s-1.2,0-1.5-.7a15.9,15.9,0,0,1,3-.6,1.6,1.6,0,0,1,1.9,1.4c.2.9-.1,1.8.4,2.6A27.8,27.8,0,0,0,53.5,261.1Z" fill="#96734b"/>
        <path d="M16.9,286.3c-1.3-.6-1.3-1.7-1.3-2.7a2.2,2.2,0,0,0-1-2.5,1.8,1.8,0,0,1-.9-2c.9-.6,2.2-.2,2.9-1.2.6,1.1.1,2.1-.3,3.1s0,2.8.4,4.2S17.2,285.9,16.9,286.3Z" fill="#b2916d"/>
        <path d="M25,324c.5-.5.9,0,1.2.2s1.6,1.1,2.4,1,1.5,1.1,2.2,1.7,1.8,1.1,2.6,1.8a.2.2,0,0,1,0,.3C30.5,327.4,27.7,325.8,25,324Z" fill="#6a4b32"/>
        <path d="M56.4,317.3c1.7-.5,3.4-1.3,5.3-1a2.9,2.9,0,0,1,1.6.7,3.3,3.3,0,0,1,.3,2.2l-.2-.4c-.5-1.6-1.5-2.2-3-1.7s-2.4,0-3.5.6S56.5,317.5,56.4,317.3Z" fill="#87613f"/>
        <path d="M16.9,286.3c-.3-1.1-.7-2.1-.9-3.2a5.2,5.2,0,0,1,.1-2.5,5.2,5.2,0,0,0,.5-2.7l.2-.2c0,.5,0,1.1.7,1.3s.5.3.1.7a4.3,4.3,0,0,0-.3,5.9c.4.5,1.1.4,1.4.9a.6.6,0,0,1-.7.1Z" fill="#8b643c"/>
        <path d="M20.2,313.6l-1.2-.8c-.7-.5-1-1.1-.3-1.8l1-.2c.7-.3.8.3.8.8A6.4,6.4,0,0,1,20.2,313.6Z" fill="#896b52"/>
        <path d="M20.2,313.6v-2c0-.4,0-.8-.5-.8s.7-.2.7-.7h.2c.4.3.3.7.3,1.1s-.2.5-.2.8a14.6,14.6,0,0,0-.3,3.6h-.2Z" fill="#b09476"/>
        <path d="M10.6,249.6a5,5,0,0,0,3.4,2.8c.9.3.7.5.6,1.2-.3,2.3-.6,4.6.5,6.8a55.8,55.8,0,0,1-6.3-3.5l-.9-.6c-1.3-.7-2-.4-2.4.9a1.4,1.4,0,0,1-.2.6v-1.5a7,7,0,0,0,.8-4A17.7,17.7,0,0,1,6,250a2.1,2.1,0,0,1,1.9-2.3C9.1,248,9.6,249.1,10.6,249.6Z" fill="#c5aa85"/>
        <path d="M26.2,250.9l2.9,1.6c-.9.3-1.6.6-2.3.2l-7.1-3.8c-.1,0-.2-.1-.4-.4l6.8-1a12,12,0,0,1,5,0h1c.6.2,1.4.3,1.4,1s-.8.8-1.3,1a45.9,45.9,0,0,1-5.1,1C26.8,250.6,26.5,250.5,26.2,250.9Z" fill="#26221c"/>
        <path d="M41.3,251.8c.2-.1.6-.3.1-.5a8.6,8.6,0,0,0-1.6,0c-.2,0-.4,0-.3-.3h.4c.4,0,.7-.2,1.1-.1h.4c.4.2,1.3-.1,1.2.6s-.8.6-1.3.5h0Z" fill="#4d4233"/>
        <path d="M40.1,250.6c-1.1-.5-2.2.2-3.2.1a4,4,0,0,1,3.5-.4A.3.3,0,0,1,40.1,250.6Z" fill="#524738"/>
        <path d="M41.3,251.8v.2a3.6,3.6,0,0,1-2.5.2v-.4Z" fill="#6f6353"/>
        <path d="M40.1,250.6l.3-.3a.6.6,0,0,1,.6.5c-.3.4-.7.3-1.1.1Z" fill="#4c4031"/>
        <path d="M53,285.1c-.1,1.1-.1,2.2-1.2,2.9s-.2.5-.2.7a1.5,1.5,0,0,1-.8,1.7c-.8.5-.3,1.4-.4,2.1s0,1.2-.7,1.5-1.2.3-1.2-.7-.3-.9-1-.6-1.3.6-1.5-.5a.5.5,0,0,0-.7-.3c-.3.1-.5.2-.6.5s0,.7.2.7.8.6.7,1.2.4.4.7.4-.9.5-1.4.5-1.8-.4-2.3.4a49.9,49.9,0,0,1-5.4.7l-7.9,1a6.2,6.2,0,0,1-1.9.1,5.3,5.3,0,0,0-1.8-.4c-1,0-1.6-.9-1.5-2.2a14.5,14.5,0,0,0-.2-3.6,3.5,3.5,0,0,0-1.7-2.4c-.4-.4-1-.6-.8-1.3a.6.6,0,0,1,.7-.1c1,.5,1.8,1.5,3.1,1.7a2.8,2.8,0,0,0,2,0c.8-.3,1.7.1,2.6,0a19.7,19.7,0,0,1,3.5-.4c1.1.1,2.2.6,3.3.8a1.2,1.2,0,0,1,1,.5c.4.9,1,.6,1.5.3s1.2-.7,1.9-.1a2.7,2.7,0,0,1,1.2,2.2v.6c0,.3,0,.6.3.7a.7.7,0,0,0,.7-.4,4.8,4.8,0,0,0,.7-2c.2-1.8.4-2.1,2.2-2.2s.9-.2.9-.6-.5-.4-.8-.4a13.4,13.4,0,0,0-2,0H42a5.8,5.8,0,0,1-2.6-.6c.7-.5,1.2-1.4,2.3-.8a.7.7,0,0,0,1-.3c.3-.4-.1-.6-.3-.8s-.9-3.1.8-3.6,1.2-.1,1,.8l-.3,1.5c-.2,1.9.8,2.7,2.7,2.7s2.8-.3,4.1.4,1.6-.8,1.5-1.3a8.3,8.3,0,0,1-.1-2.2h.7A1.1,1.1,0,0,1,53,285.1Z" fill="#6c4a2b"/>
        <path d="M19,274.9l.3-.3h.3l4.1,1.3,2.9,1.1,5.4,1.7c3.9,1.1,7.8.7,11.6,1.1a5.4,5.4,0,0,0,3.3-.6l8.6-3.5c.3-.1.6-.3.9-.1S54.6,277,54,278s-.7.1-1,.1-.9-.1-1,.6-.7.4-1.1.4-1.2,0-1,.9-.2.4-.6.4c-2.1.1-4.1-.4-6.2.2s-1.6-.3-2.4-.3l-11.4-.6c-2.8-.2-5.6-.6-8.4-.6a5.2,5.2,0,0,1-2.1-.4c.2-.5.7-.2,1-.5s.4-.5.1-.7S19.1,275.8,19,274.9Z" fill="#412b17"/>
        <path d="M56.4,275.5a33.5,33.5,0,0,1-5.5,2.3c-2.6,1-5.1,2.8-8.3,2.3s-6-.1-9-.8c-1.5-.4-3.4-.2-4.7-1.5s-3.9-1.4-5.9-1.9-2.7-.2-3.5-1.3.6-.5,1.1-.5c2.9.6,5.7,1.2,8.6,1.6l3.2.4a12.4,12.4,0,0,1,3.1,1c1.7.6,3.5.8,5.2,1.3l1.3.2,1.3.2H45a9.3,9.3,0,0,0,3.9-1.2l5.9-2.5c.4-.2.9-.1,1.4-.3h.4Z" fill="#21150d"/>
        <path d="M22.1,287.5H20.9c-.2-.1-.3-.2-.2-.4s.5-.6.8-.7a25.1,25.1,0,0,1,6-1c2-.2,3.8.5,5.7,1a21.6,21.6,0,0,0,6.2.9l2.6.3c-.1.5-.5.5-.9.5a24.1,24.1,0,0,1-6,.2,1.4,1.4,0,0,0-.9-.1c-3.6.2-7.2-.5-10.7-.5A2.3,2.3,0,0,1,22.1,287.5Z" fill="#20150c"/>
        <path d="M58.3,274.8c0,.5.2,1-.7,1s-.4,1.2-.7,1.8a22.3,22.3,0,0,1-2,3.3l-.2.3a52.3,52.3,0,0,0,0,5.6,1.3,1.3,0,0,1-.9.7,2.7,2.7,0,0,1,.2-2c.6-1.5,0-2.9-.2-4.4s-.7-.9-1.5-.8a5.5,5.5,0,0,0,3.2-2.6,30.6,30.6,0,0,1,2.1-2.9Z" fill="#b69e80"/>
        <path d="M20.7,287.3l.2.2,1.9,1.6a2.4,2.4,0,0,1,1,2.1c.1,1.5.1,3.1.3,4.6s0,.9-.4,1.1-.9,0-1.2-.4a.6.6,0,0,1,.1-.4,17.5,17.5,0,0,0,.1-5.6,2.2,2.2,0,0,0-1.3-1.6c-1.4-.4-1.9-2.1-3.4-2.3h.7A5,5,0,0,1,20.7,287.3Z" fill="#bf9c71"/>
        <path d="M52.3,302.1c.3-.1.5-.6,1-.4a1.4,1.4,0,0,1-.4,1.5c-.7.7-1.1,1.7-2,2.3s-.3,1.3,0,2,.5.5.3.8,0,1.5.7,1.9a2.4,2.4,0,0,1,.9.8h0c-.7,1.1-.3,2.1,0,3.2s.4.7.1,1-.6-.2-.9-.4-1.8.1-1.7.5.8.5,1.2.5,1-.4,1.3.4.8,1.5-.5,1.8-.3.2-.3.4c.3,2.2-.3,2.7-2.6,1.9-.2,0-.3-.1-.4,0s-1,0-1-.6.5-.6,1.7-.7a31.6,31.6,0,0,1-7.5-.5,22.9,22.9,0,0,0-10.4.6c-.6.2-1.4-.1-1.9.5s-.8.1-1.1-.4a.8.8,0,0,1,.2-1c.2-.2.4-.5.6-.6a3.6,3.6,0,0,0,2.1-1.9.9.9,0,0,1,1.3-.4c.6.4,1,.3,1.4-.4a.9.9,0,0,1,1.1-.4,14.5,14.5,0,0,0-2.8.4c-.6.2-1.2.3-1.2-.7a.4.4,0,0,0-.5-.4,7.2,7.2,0,0,1-2.9-.6c-1.9-.9-4.1.2-6-1s-1-.5-1.2-1.1-.3-.5.2-.6c4.1.7,8.2,1.1,12.4,1.5.5,0,1,.5,1.5,0s2.2.3,3.2.2.9.1,1.2-.2.8-.4,1.3-.4,2.7.8,4.1.2a5.5,5.5,0,0,1,2.8-.6c-1-.4-1-.9-.3-1.6s0-2.6.7-3.8,2.4-2.3,3.7-3.3Z" fill="#553820"/>
        <path d="M22.6,296.4c.3.2.5.5.9.5a10.9,10.9,0,0,1,3.6.2c2.5-.1,5-.5,7.4-.8l2.7-.4a2.3,2.3,0,0,0,.7,1c.8.5.7,1.3.7,2.1s-.8.9-1.4,1a4.8,4.8,0,0,0-1.9.9,2.4,2.4,0,0,1-1.1.6,12.8,12.8,0,0,0-2.6,1.6,11,11,0,0,1-5.4.2c.1-1.2-1.2-.8-1.4-.8s-1.6-1-2-1.9,0-.5-.2-.6A3.6,3.6,0,0,1,22.6,296.4Z" fill="#583c25"/>
        <path d="M20.9,310.5c.5,1.1,2.7,2.4,3.9,2s1.6.3,2.3-.2.4.2.5.3.1.3.2.5,2.1.8,3.4.3.8,0,.7.5.4.9.9.6,1.7,0,2.4-.4.6.2.8.4a.5.5,0,0,1,.1.7c-.2.2-.3,0-.5-.2s-1.1-.1-1.2.4-.6.7-1.1.5-1.6-.4-1.8.8-.3.7-1,.8-1.2.7-1.6,1.2.3.9.9,1a.6.6,0,0,1,.7-.1.2.2,0,0,1,0,.3,9.1,9.1,0,0,1-4-.6,3.8,3.8,0,0,0-1.5-.1,3.6,3.6,0,0,1-3.9-2,3.3,3.3,0,0,1-.2-2.6v-.2a.7.7,0,0,1,.1-.6,2,2,0,0,0-.4-2.3v-1.4l.3-.3.2.3A.5.5,0,0,1,20.9,310.5Z" fill="#614228"/>
        <path d="M26.2,303.3c1.8-.2,3.7-.1,5.5-.4s6-1.9,9.2-1.2h2.3l.3.2c.1.4-.2.6-.5.8-2,1.4-4.1,2.4-6.7,2l-6.3-.7a18.7,18.7,0,0,1-4.7-.4C25.5,303.2,25.9,303.4,26.2,303.3Z" fill="#140f0d"/>
        <path d="M48.5,301.7c-.1.4-1.1.7-.3,1.2s.9.7,1.4.2.7-.2,1-.2a3.3,3.3,0,0,1-2.7,1.7c-.7,0-1.5.5-2.4.1s-1.4.4-1.5,1.2-1.5,2-2,3.2-.6.1-.9-.1.3,1.8-.5,2.6a1.8,1.8,0,0,1-1.1-2.3,15.5,15.5,0,0,0,.3-3.1c.4-.2.3-.6.3-.9s0-.3.3-.3.2.8.4,1.2,2.1-1.7,2.3-3.2a4.6,4.6,0,0,1,1.2-1.2C45.7,301.6,47,300.9,48.5,301.7Z" fill="#927350"/>
        <path d="M22.6,296.4a21.6,21.6,0,0,0,0,3.6,2.2,2.2,0,0,0,.4,2.2c.1.3.5.6,0,.8a.7.7,0,0,1-.9,0,5.8,5.8,0,0,1-1.3-1.4c-.9-1.9-2.1-3.6-3-5.4a2,2,0,0,1,1.5.2c.8.6,1.4,1.6,2.5,1.9a6.7,6.7,0,0,0-.7-2.4l-.2-.3-.7-1.1c0-.4.2-.4.4-.2l2,1.8Z" fill="#a37a52"/>
        <path d="M20.9,310.5v-.4c1.4-.6,2.8-.2,4.2,0l2.5.7,5.9.9,1.5.3c.3.6-.1.5-.4.4l-11.3-1.1A4.9,4.9,0,0,1,20.9,310.5Z" fill="#271910"/>
        <path d="M40.3,305.1l-.2.2a2.9,2.9,0,0,1-3.1,0c-1.1-.5-2.5-.3-3.8-.4a18.7,18.7,0,0,1-3.2-.8c2.7-.1,5.4.7,8.1.5a9.7,9.7,0,0,0,5.3-2.7c.4-.2.7-.3.8.2l-1,1A5.9,5.9,0,0,1,40.3,305.1Z" fill="#4d331c"/>
        <path d="M39.8,306.2c.6,1.3-.2,2.6.1,3.9s-.1,1.4.9,1.4a.2.2,0,0,1,.3,0,.3.3,0,0,1-.3.3l-1.4.2c-.9.1-1.5-.1-1-1.1A25.4,25.4,0,0,0,39.8,306.2Z" fill="#805e3d"/>
        <path d="M27.6,310.8l-5.2-.7a7.5,7.5,0,0,0-1.5,0v-.3C23.3,308.7,25.5,309.8,27.6,310.8Z" fill="#614228"/>
        <path d="M19.2,296.6l-1.4-.4c0-.1-.1-.2-.1-.3a4.9,4.9,0,0,1,2.4.2c.4.2.7.1.8-.5h.2a.9.9,0,0,1,.3.6c.2.8-.1,1.2-.9.9A3.8,3.8,0,0,1,19.2,296.6Z" fill="#cab095"/>
        <path d="M62.4,323.5c-.3.4-.8.2-1.2.3a4.1,4.1,0,0,1-1.9.8c-2.4.4-4.7,1.2-7.1,1.6l-1.6.4-1.4.4c-2.3.5-4.6,1.2-6.9,1.6a14.1,14.1,0,0,1-4.9,1.2c-.5,0-1,.1-1.4-.3s.5-1.8.4-2.8.7-.7,1.1-.7.6.4.7.9-.4.7.2.9a.9.9,0,0,0,1-.5c.4-.9,1.4-.2,2-.7s1.3-.4,1.8.6c-.4-1.5.5-1.5,1.4-1.5s-.5.7,0,1a1.3,1.3,0,0,0,1-.2.9.9,0,0,0,.4-1.1,2.7,2.7,0,0,1,.2-2c.8.2.4.8.5,1.2s.5-.6.9-.8.5-.9,1.4-.2a5.5,5.5,0,0,0,2.7.4h1.1c.3.2.1,1,.7.6s1.8-.2,2.2-1.2.6-.6.7-1.1.2-.2.3-.1,2.1.5,3.2.5l.6-.2C61.7,321.7,62,322.7,62.4,323.5Z" fill="#583b26"/>
        <path d="M35,328.5a1.2,1.2,0,0,1-1.5-.8.6.6,0,0,0-.8-.5c-.4.1-.5-.1-.6-.4s-.3-.6-.4-.6c-1.8-.2-1.5-1.7-1.7-2.8a3.2,3.2,0,0,1,1-3,6.4,6.4,0,0,0,2.6,1.3,2.7,2.7,0,0,1,1.9,2.6A15.1,15.1,0,0,1,35,328.5Z" fill="#8a694a"/>
        <path d="M30.5,319.7h-.7c-.3-.5,0-.7.4-.7s2.4-.8,3.5-.8a34.2,34.2,0,0,1,4.6-.4c4.1.2,8.1,1.2,12.3.9a.4.4,0,0,1,.4.3c-.9.6-2.1.2-3,.7H46.8a40.5,40.5,0,0,1-5,.4c-2.5,0-5-.4-7.5.2S31.8,319.9,30.5,319.7Z" fill="#1f150c"/>
        <path d="M59.3,324.3l1.9-.5a1,1,0,0,0,.4.7c1.4,1.6,1.1,3-.8,4.1a14.1,14.1,0,0,1-4.8,1.5c-2.8.6-5.5,1.7-8.3,2.3s-6,1.7-9.1,1.9a3.4,3.4,0,0,1-3.8-4.4h.4c.6,0,.4.4.5.7a2.4,2.4,0,0,0,.8,2c.1.1.2.1.2.2s2.6.6,3.9.3l1-.3a7.8,7.8,0,0,0,2.1-.4c4.6-1,9-2.7,13.7-3.7a6.6,6.6,0,0,0,2.6-1.1q1.7-1.2,0-2.4C59.7,325,59.2,324.8,59.3,324.3Z" fill="#dcdcdc"/>
        <path d="M41.5,333.1a1,1,0,0,1-.9.2c-1.4.2-2.8.5-4.1-.4h0a2.8,2.8,0,0,1-.7-3.2h.7a1.3,1.3,0,0,1,.1.6c0,1.7,1,2.7,2.7,2.4,4.1-.9,8.3-1.6,12.3-3.2a24.3,24.3,0,0,1,4.8-1.4,6.3,6.3,0,0,0,2.2-.7,1.1,1.1,0,0,0,.7-.9c0-.5-.4-.7-.8-.8a4.2,4.2,0,0,0-2.7.2,14.2,14.2,0,0,1-2.2.7c-.6.1-1.3.2-1.5-.7l7.2-1.6c.1.3.4.4.7.5s1.6,2.3,0,3.2a8.5,8.5,0,0,1-2.8,1c-4.3.9-8.5,2.6-12.8,3.5h-.7Z" fill="#cfd0d0"/>
        <path d="M36.4,329.8H36v-.2c2.2.2,4.2-.6,6.2-1.2.4-.2.7-.2.8.2s-.2.5-.4.6l-2.1.9a2.9,2.9,0,0,0-1,.3c-.2.1-.4.2-.4.4s.3.3.5.4h.6a73.7,73.7,0,0,0,7.9-1.6,1.9,1.9,0,0,0,.9-.4c1.2-.5,1.2-.8.4-1.7s-.4-.4-.2-.7l1.4-.4.9.4c.5.3,1.2.5,1.2,1.3s-.6,1.1-1.1,1.4a17.7,17.7,0,0,1-5.9,1.9l-5.2,1.2-1.7.2a2,2,0,0,1-2-2.1A.9.9,0,0,0,36.4,329.8Z" fill="#b0b1b1"/>
        <path d="M30.5,319.7a5.5,5.5,0,0,1,2.2.2c1.3.5,2.6-.4,3.9-.3s4.3,0,6.4.2,2.5-.2,3.8-.1c-1.2.7-2.5.5-3.8.9l-3.6.9a7.9,7.9,0,0,1-6.2-.7,3.5,3.5,0,0,0-2.2-.6l-.5-.3Z" fill="#472f1a"/>
        <path d="M35.8,329.7a4.1,4.1,0,0,0,.7,3.2c-1.1-.5-1.1-1.4-1.1-2.4s.1-.4-.2-.6S35.5,329.7,35.8,329.7Z" fill="#d3d3d3"/>
        <path d="M51.8,268.8c-1.9.8-3.7,2-5.7,2.7a3.7,3.7,0,0,1-3.8.7,12.3,12.3,0,0,0-4.2-.7,18.1,18.1,0,0,0-2.3-.3.8.8,0,0,1-1-.7,2.4,2.4,0,0,1,2-.3c1.2.3,2.5.3,3.7.6s.9.1,1.1-.4,1.3-1.1,2.2-.9a1.7,1.7,0,0,0,1.2-.2,4.6,4.6,0,0,0,2-1.6c.2-.3.5-.3.8-.4s2.5-.8,3.8-1.3a4.8,4.8,0,0,0-1.7,0c-1.8.4-3.8.3-5.6.8h-.6c-3-.5-5.4.8-8,2a4.3,4.3,0,0,1-2,.7c.3.5,1.1.2,1.1.9s-.8.3-1.2.4-1.8.1-2.3,1-.4.2-.6,0a1.8,1.8,0,0,1,.8-2.9,1.6,1.6,0,0,0,1.2-.8,1.2,1.2,0,0,1,1.5-.8c.2.1.3,0,.4-.3a6.1,6.1,0,0,0-.1-3c-.4,0-.3.3-.4.5s-.7.9-1.3.3a1.1,1.1,0,0,0-1.8-.1c-.1.1-.3.3-.4.2-1.6-.4-2.9.4-4.4.6h-.1a1.2,1.2,0,0,1-1.4-.8c-.2-.8.5-.8.9-1,5-.8,10-2,15.1-2.7a41.3,41.3,0,0,0,4.9-.7h1.3c1,.4.9,1.3.9,2s.1,1.6,1.3,1.4a12.7,12.7,0,0,0,2-.1c.9-.2,1.3.3,1.5,1s-.1.8.2,1.1S52.9,268,51.8,268.8Z" fill="#50371f"/>
        <path d="M37.9,271.2a20.9,20.9,0,0,1,5.1.8c1,.2,1.7.4,2.4-.4h.7c-.3.5-1.1.8-1,1.6s-1.1,1.1-1,2.2.2,2.7-.9,3.8a1.7,1.7,0,0,1-1.2-.2c-.8-.6-1.7-1.1-2.4-1.7l-.5-.5c-.5-.4-.2-1.3-.5-1.4l-1.5-.7c-.2,0-.3-.3-.3-.5a16.4,16.4,0,0,0,.2-2.2C37.1,271.4,37.6,271.4,37.9,271.2Z" fill="#6f4f34"/>
        <path d="M43.2,279.1c.6-.9.1-2.2.7-3.1a3.4,3.4,0,0,0,0-1c-.5-1.6-.4-1.7,1.2-1.9s.9-.5,1.5-.8c-1.4,1.5.6,2.3.4,3.6-.1-1.7,1.5-1,2.1-1.5s.3.7.8.9-.1-.9.2-1.4.1-.7.5-.7.4.5.5.8.1.3.1.4.4-.8,1-.4.3-.2.3-.4,0-1.9.1-2.8-.2-.8.4-1.2v3.6c0,.8.2,1.4,1.2,1.1s1.3.3,2,.5a1.5,1.5,0,0,1-1.2.5,86.4,86.4,0,0,1-8.3,2.4c-.9.2-.9,1.1-1.6,1.4Z" fill="#7f5f3b"/>
        <path d="M51.8,268.8v-.2c1.7-1.2.6-2.7.4-4.1s-.5-.9-1-.6-2.2-.4-3.3.4-.2-.2-.3-.4a3.2,3.2,0,0,1-.2-1.7,1.9,1.9,0,0,0-.5-1.6c.3-1,1.1-.8,1.8-.8s1.2.1,1.4.8.3.9.7.8c1.9-.2,1.6,1.5,2.1,2.6a1.1,1.1,0,0,1-.2,1.2v.2c.1.5.6.7.7,1.2S53.4,268.3,51.8,268.8Z" fill="#67482d"/>
        <path d="M37.9,271.2c-1.2.8-.3,2.1-.9,3.1s1.3,1,2.3.2c0,.7-.8,1.3-.2,1.9s.9,1,1.5,1.2,1,.8,1.4,1.3a1.8,1.8,0,0,1-1.2-.3,25.7,25.7,0,0,1-5.4-3.4c-.3-.3-.5-.5-.9-.5s-1-.1-.9-.8-.3-.3-.6-.4a3.6,3.6,0,0,0-2.9-.1,1.3,1.3,0,0,1-1.3-.2c-.7-.5-1.1-.3-1.6.2s-.8.7-1.7.6-1.9.3-3,.3H20.6c-.4.1-.8-.2-1.1.3h-.2a5.4,5.4,0,0,0,1.1-4.7c0-.2,0-.5.3-.6l1.4.5a10.6,10.6,0,0,1,1.9.4c.6.1.8,0,.7-.6s0-2.4-.1-3.6a1.8,1.8,0,0,0-.6-1.3c-.3-.5-.6-.9-.1-1.3s.8.1,1.2.3l.4.3c-.1.3-.9.2-.6.7s.5.8,1,.6,2,0,2.7-.8.3.1.4,0,1.8,1,2.1-.6h.2c.4.6,1.5-.2,1.6.9s.5.3.7.3.2-.4.2-.6-.1-.9.6-.8.6.4.6.9a8,8,0,0,1-.3,3.4c-.8-.4-1.4-.5-1.8.6s-1,.9-1.7,1-1,.4-.5,1,.1.9.2,1.4,1-.8,1.3-1.3.2-.2.2-.2,1.6-.3,2.4.1h0c.5.3,1,.7,1.7.3S37.4,271.4,37.9,271.2Z" fill="#63452c"/>
        <path d="M17.1,261.1a1.1,1.1,0,0,0-.9-1.1,1.6,1.6,0,0,1-1.3-1.8,17.9,17.9,0,0,1,.2-4c.2-.6,0-1.2,1.1-.6s1.8.3,1.6,1.6.5-.3.7-.4.3-.3.4-.2.3.4.2.6a1.7,1.7,0,0,0,.5,2.3c.6.5.3,2,.5,3s-.2,2.1.5,3C19.3,262.9,17.9,262.5,17.1,261.1Z" fill="#c5aa85"/>
        <path d="M25,265.9a14.8,14.8,0,0,0,.2,4.2c.1.5-.3.7-.7.6s-1.8-.2-2.4-.9.2-.7.3-1,.2,1,.7.6,1.1-1.1.7-1.6-.4-2.8-2.2-3.2-.2-.4,0-.6a1.9,1.9,0,0,0,0-2.6,7.2,7.2,0,0,0-.1-4.1c-.3-.8.1-1,.8-.9-.1,1.7.5,3.4.6,5.1s-.2,2.4,1.1,3.1S24.5,265.6,25,265.9Z" fill="#9d7345"/>
        <path d="M25,265.9c-.3,0-.6.1-.7-.3s-.1-.5-.3-.6c-1.8-1-1.3-2.7-1.5-4.3s-.6-2.5-.3-3.8.1-.3.1-.5c3.3-.2,6.6-.9,9.8-1.4,5.4-.7,10.7-1.9,16.1-2.3.7,1.3,1.7.3,2.2.1s1.8.3,2.1,1a3.9,3.9,0,0,1-.4,4.5c-.4.4-.6.9.3,1.2s.8.9.8,1.5a12,12,0,0,0,.3,2,.8.8,0,0,1,.3.8c-.7.2-.3,1.2-1,1.4s-.6-2.1-.8-3.3-.4-.3-.6-.1-1.2-.1-1.4-.7,0-1-.4-.9-1.3-.3-1.9,0l-.7.4-7.8,1c-2.7.4-5.3,1.1-7.9,1.5l-5.8.9c-.4,0-.7,0-.9-.3s-.3-.5-.6-.1-.2.5.1.7A3.2,3.2,0,0,1,25,265.9Z" fill="#745435"/>
        <path d="M20.9,256.9c.4.9-.1,1.5,0,2.1s-.2.3-.4.3-.3-.2-.3-.4A4.4,4.4,0,0,1,20.9,256.9Z" fill="#c5aa85"/>
        <path d="M44.2,302.1a1.1,1.1,0,0,0-.8-.2h-.2a.8.8,0,0,1-.6-1c.1-.8-.1-1.5,0-2v1.2a.6.6,0,0,1-.5.8.6.6,0,0,1-.8-.5c-.3-.9-1-1.8-.1-2.7s.2-.2,0-.2-.9-.5-.7-1,1.1-.9,1.5-.6a1.9,1.9,0,0,0,2,.4c.1,0,.2.5.3,0s.4-.8.9-.7.8.4.9.9A10.3,10.3,0,0,1,46,299a.9.9,0,0,1,.1-.5c.2-1.9,1.2-3.2,3.1-3.3a9.5,9.5,0,0,0,2.9-.7c.5-.2,1.4.4,1.9-.5s1,.3.8.8a2.1,2.1,0,0,0,.3,1.3,3.8,3.8,0,0,1-1.4,4.6c-1,.8-2.3.4-3.5.7a8.6,8.6,0,0,1-1.7.3A15.3,15.3,0,0,0,44.2,302.1Z" fill="#62442a"/>
        <path d="M54,294c-.4,1.4-.4,1.4-1.5.8s-.5-.1-.8.1-1.1,1.3-2.1.4-.6.3-.9.4-2.4,1.5-2.6,3.2.1.6-.3.9v-2.9c0-.5-.1-1-.6-1.1s-.8.3-.8.8,0,.4-.2.2-.8.3-1.3.5-.7-1.7-1.9-1-.5.7-.1,1.1-.1-.8.5-.5.5.5.1.8,0,1.8.1,2.7.3.3.5.3.4-.4.4-.7-.5-1.4-.1-2.2c1.1.7.1,1.8.4,2.7s.2,1,.4,1.4a3.3,3.3,0,0,1-2.4.1,11.4,11.4,0,0,0-5.5.3,15.1,15.1,0,0,1-3.6.6c.3-1,.4-2.1,1.9-1.5s.8-.2,1.1-.5a6.9,6.9,0,0,1,3-1.4c.4,0,.8-.3.6-.7s.3-1.5-.6-1.6-.8-.7-.5-1.3a34.5,34.5,0,0,0,5.5-.7,2.5,2.5,0,0,1,1.9-.2c.6-.1,1.2.2,1.7-.3C48.9,294.8,51.4,294.1,54,294Z" fill="#4e331d"/>
        <path d="M53,285.1c-.4-.3-.1-.8-.2-1.2s.2-.4.5-.4.2.3.1.5S53.6,284.9,53,285.1Z" fill="#604228"/>
        <path d="M20.6,311.5c1.2.7,1.3,1.5.3,2.9-.4-.3-.2-.7-.1-1.1s.3-.9-.1-1.3S20.4,311.7,20.6,311.5Z" fill="#92704f"/>
        <path d="M20.9,314.6a11,11,0,0,0,.2,2.6c0,.3.1.6-.2.8S20.3,315.7,20.9,314.6Z" fill="#92704f"/>
        <path d="M54.7,314.9v-1c.4,0,.7.2.7.6S55,314.9,54.7,314.9Z" fill="#3c2e1e"/>
        <path d="M53.8,263.8l-.3-.8h.3c.9.6,2.2-.1,3.1.8s-1.7.8-2.9,1c.7-.6,1.4-.4,2-.8S54.5,263.8,53.8,263.8Z" fill="#4b3e2e"/>
        <path d="M41,311.5h-.2c-.3-.9.2-1.8-.2-2.7a.4.4,0,0,1,.3-.5c.3-.1.3.1.4.3s.1.5.5.6a4.4,4.4,0,0,1,1.5-2.2,1.5,1.5,0,0,0,.4-.9,1,1,0,0,1,.8-1.2c.3-.1.6-.2.6-.6s.2-.4.4-.3c2.3.7,2.6.6,5.1-1.1a5.3,5.3,0,0,1,1.7-.8l-3.2,2.7c-.3.3-.7.5-.9.9a5.5,5.5,0,0,1-1.8,1.3,5.5,5.5,0,0,0-2.1,1.9,9.6,9.6,0,0,1-2.2,2.3C41.8,311.4,41.5,311.7,41,311.5Z" fill="#805f3d"/>
        <path d="M52.8,311a6,6,0,0,1-1.5-.9c-.8-.5-1.4-.9-.4-1.7a.3.3,0,0,0,0-.5c-1-.4-.4-1.3-.7-1.9s0-.7.5-1a5.1,5.1,0,0,0,2.6-3.3c.5.7.2,1.6.2,2.4S53.5,308.8,52.8,311Z" fill="#6a4a2f"/>
        <path d="M21.9,248.7a24,24,0,0,1,7.9-.7l.6.2c.4.1.8.1.9.5s-.5.6-.8.7a19.5,19.5,0,0,1-5.3.8C24,250.3,23.1,249.5,21.9,248.7Z" fill="#afa390"/>
        <path d="M44.4,287.8a14.7,14.7,0,0,1,2.1,0c.5,0,1.2-.2,1.1.5s-.6,1.3-1.4,1.2-2,0-2,1.7a6.2,6.2,0,0,1-.7,2.3.9.9,0,0,1-1.1.6c-.6-.1-.7-.6-.6-1.2a2.3,2.3,0,0,0-1.4-2.8c-.3-.1-.6-.2-.7.2s-.6.3-.8.4-1.1,0-1.7-.6-1.8-.6-2.8-.9l-1-.2c.3-.9.9-.6,1.5-.6h6.9A1.8,1.8,0,0,0,44.4,287.8Z" fill="#604228"/>
        <path d="M35,288.7c-.5.1-1.1-.2-1.6.3s-3.8.4-5.7.3a10.1,10.1,0,0,1-3,0,8.1,8.1,0,0,1-2.6-1.8c3.3.2,6.7,0,10,.7.5.1,1-.2,1.6-.2s.9-.2,1.3.2S35.2,288.6,35,288.7Z" fill="#4b3119"/>
        <path d="M27.1,297.1c-1.2-.1-2.4.3-3.6-.2s.3-.3.3-.5c-.1-2-.2-3.9-.4-5.9a1.7,1.7,0,0,0-1.1-1.5,5,5,0,0,1-1.4-1.5h.5l.5.6c2.6,1.4,2.7,3.8,2.5,6.3s0,2,1.8,2.1S26.8,296.9,27.1,297.1Z" fill="#91693c"/>
        <path d="M35,288.7v-.5a35.3,35.3,0,0,0,6.5-.2c.2,0,.4,0,.5-.2h2.4a1.9,1.9,0,0,0-.5,1c-.1.4-.6.7-.8.5s-2.2-.5-3.3-.7A13,13,0,0,0,35,288.7Z" fill="#4c311a"/>
        <path d="M49.9,288.4c-.5.3-.6,1-1.1,1.1s-.6-.5-.6-.9a.7.7,0,0,1,.7-.8C49.2,287.9,49.7,287.9,49.9,288.4Z" fill="#604228"/>
        <path d="M47.9,290c.5.2.4.6.5,1s.1.5-.2.5-.9-.2-.9-.6A1.1,1.1,0,0,1,47.9,290Z" fill="#735030"/>
        <path d="M43.1,285c-.5,0-.3-.5-.4-.7s-.2-.7.2-.8a.7.7,0,0,1,.7.6A1.1,1.1,0,0,1,43.1,285Z" fill="#604228"/>
        <path d="M44.6,295a4,4,0,0,1-1.9.2h-.3A1.7,1.7,0,0,1,44.6,295Z" fill="#735030"/>
        <path d="M20.6,274.3c1.1-.1,2.1-.6,3.2-.3s.5-.3.7-.2,1.2-.9,1.7.1.4-.1.6-.3,1-1.8,2.3-.6a1.7,1.7,0,0,0,2.1-.2c.4-.5.9-.8,1.1.2s.5.1.8.1,1.3-.2.8.8.1.7.5.5.9.1,1.2.6a10.2,10.2,0,0,0,3,2.1,17,17,0,0,1,2.2,1.5,24,24,0,0,1-5.3-1.2,5.8,5.8,0,0,0-1.8-.4h-.5c-1.4-1-3.2-.4-4.7-.9s-3.4-.4-5-1.1S21.5,274.9,20.6,274.3Z" fill="#4f351f"/>
        <path d="M45.1,279.1a2.2,2.2,0,0,1,2.1-1.9c1.2-.1,2.3-.9,3.3-1s2.9-1,4.5-.9a74.1,74.1,0,0,1-9.2,3.8Z" fill="#624323"/>
        <path d="M41,311.5l1-.5c1.3-.5,2.2-1.6,3.4-2.3s1.3-.9,1.8.5l.3.6c-1,.8-.4,1,.4,1.2s.5,0,.5.4-.4.2-.6.2a4.5,4.5,0,0,0-3.2.6c-.8.5-1.7.1-2.5,0s-1.1.5-1.3-.4S41,311.6,41,311.5Z" fill="#3f2814"/>
        <path d="M47.5,309.8c-.6,0-.7-.5-.7-1s-.3-.7-.8-.3L42.9,311c-.3.2-.6.4-.9,0a13.7,13.7,0,0,0,2.3-2.5,9.7,9.7,0,0,1,3.9-2.8C47.7,307.1,47.9,308.5,47.5,309.8Z" fill="#24180f"/>
        <path d="M40.3,305.1l2.9-2c-.4.7.2,1.9-1.1,2.2s-.7.4-.8.8,0,.7-.4.7-.4-.4-.5-.6S40.4,305.5,40.3,305.1Z" fill="#a8865d"/>
        <path d="M19.2,296.6h.7c1.5.5,1.5.5,1.2-1l.3.2c.4.9,1,1.8.5,2.9a4.8,4.8,0,0,1-2-1.5C19.8,297,19.3,297,19.2,296.6Z" fill="#b4906b"/>
        <path d="M36.4,329.8c.3.1,1-.5.8.5s.3,1.9,1.6,2.1a10.6,10.6,0,0,0,3.1-.5c2.9-.7,6-1,8.7-2.4a2,2,0,0,0,.8-.4c1.5-.9,1.5-1.3,0-2.1s-.7-.3-.8-.7a4.2,4.2,0,0,1,1.5-.4,1.5,1.5,0,0,0,1.8.3l2.7-.9a3.3,3.3,0,0,1,2.4.2c1,.5,1.1,1.4.2,2a6.7,6.7,0,0,1-1.8.7c-2.7.4-5.2,1.6-7.8,2.4A95.8,95.8,0,0,1,39.3,333C37.1,333.5,35.9,331.9,36.4,329.8Z" fill="#c0bfbf"/>
        <path d="M49.2,326.7c0,.4.4.4.6.6s1,1.1,0,1.8-3.6,1.2-5.4,1.6l-3.9.7H39.4a.9.9,0,0,1-.9-.6c-.1-.5.4-.6.7-.7l3.2-1.2c.2-.1.5-.1.4-.4s-.4-.2-.6-.2Z" fill="#a09e9e"/>
        <path d="M36.5,332.9a9.4,9.4,0,0,0,4.1.4C39.1,333.8,37.7,334.1,36.5,332.9Z" fill="#d3d3d3"/>
        <path d="M41.5,333.1a4.2,4.2,0,0,1,2.2-.5A4.2,4.2,0,0,1,41.5,333.1Z" fill="#d3d3d3"/>
        <path d="M34.8,270.5c-.5-.4-1.2-.3-1.9-.7.8-.7,1.9-.6,2.7-1.2s3.2-1.2,4.7-2.1a3.4,3.4,0,0,1,2-.1c3,.3,6-.8,9-.8.3,0,.8-.3.9.1a.8.8,0,0,1-.7.9c-1.4.3-2.5,1.1-3.9,1.1s-.8.6-1,1.1-.1,1-1,.4-.6.8-1.1,1.2a1.4,1.4,0,0,0-1.8-.7c-.7.2-.8.5-.8,1.2s-.8.3-1.2.2a39.3,39.3,0,0,0-5.9-.6Z" fill="#25170f"/>
        <path d="M47.1,300.7c0,.9-1.1.1-1.2.8s-.3-.2-.3-.4a2.2,2.2,0,0,1,1.1-1.2C47.2,299.8,46.9,300.4,47.1,300.7Z" fill="#4e331d"/>
      </g>
      <g>
        <path d="M172,231.5a5.4,5.4,0,0,1-.5,2.1l-.4.7-.4.4-.5.5-.3.3-.3.3-.2.2-.2.2h-.1l-.4.4-.3.3-.3.3-.4.4-.2.2h-.1l-.8-.9-2.3-2.3a4.2,4.2,0,0,1-1.1-1.8,7.7,7.7,0,0,1-.2-1.5,3.5,3.5,0,0,1,.4-1.7,2.6,2.6,0,0,1,.7-1.1,3.7,3.7,0,0,1,1.7-1.3,4.5,4.5,0,0,1,1.6-.3,5.1,5.1,0,0,1,1.7.3,3.3,3.3,0,0,1,1.3.7,4.9,4.9,0,0,1,1.1,1.4,4.8,4.8,0,0,1,.5,1.7Zm-2.1.1v-.3a2.6,2.6,0,0,0-.9-1.6,2.6,2.6,0,0,0-3.2.1,2.4,2.4,0,0,0-.6,1.1,3.4,3.4,0,0,0-.1,1,2.5,2.5,0,0,0,.8,1.4,2.7,2.7,0,0,0,1.2.6h.6a2.1,2.1,0,0,0,1.8-1A2.2,2.2,0,0,0,169.9,231.6Z" fill="#231f20"/>
        <path d="M167.4,238.5h1.2l1.7.2.9.2h.3a.2.2,0,0,1,0,.3l-.5.2-1.3.2h-3.6l-1.3-.2-1-.2h-.3a.2.2,0,0,1,0-.3l.5-.2,1.4-.2Z" fill="#231f20"/>
      </g>
      <g>
        <g>
          <g>
            <path d="M27,16.3a1.4,1.4,0,0,1-.5,1l-4.4,4.5L17.3,19V16.3a1.4,1.4,0,0,1,1.4-1.4,1.4,1.4,0,0,1,1.4,1.4h0v3.4l4.4-4.4a1.5,1.5,0,0,1,2,0,1.4,1.4,0,0,1,.5,1" fill="#fff"/>
            <path d="M25.5,29.2H25l-.5-.3-4.4-4.4v3.4a1.4,1.4,0,0,1-1.4,1.4,1.4,1.4,0,0,1-1.4-1.4V25.1l4.8-2.7,4.4,4.4a1.4,1.4,0,0,1-1,2.4" fill="#fff"/>
            <path d="M21.9,22a.2.2,0,0,0-.2-.2h0l-1.2-.7-3.2-1.9-2.7-1.5c-.2-.1-.3-.1-.4.1h-.1v8.3a.5.5,0,0,0,.3.3h.2l2.7-1.5,4.4-2.6h.1a.1.1,0,0,1,.1-.1h0Zm-1.1.1c0,.1-.1.1-.1.2l-3.4,1.9-2.1,1.3h-.4V18.9c0-.2.1-.3.2-.3h.2l2.1,1.3,3.4,1.9a.4.4,0,0,1,.1.3Z" fill="#fff"/>
            <path d="M19.8,22.1h0l-2.6,1.5-1.6.9c-.1.1-.2,0-.3-.1h0V19.6c0-.1.1-.1.2-.1h.1l1.6.9,2.6,1.5h0c.1,0,.1.1,0,.1" fill="#fff"/>
          </g>
          <g>
            <path d="M50.2,21.9c0-.1-.1-.1-.1-.2l-3.9-1.9-2.5-1.3c-.2-.1-.4.1-.4.3v6.5c0,.2.2.3.4.2l2.4-1.3,3.9-2c0-.1.1-.1.1-.2Zm-.9.1a.1.1,0,0,1-.1.1l-3,1.6-1.9,1a.2.2,0,0,1-.3-.1V19.5a.2.2,0,0,1,.2-.2h.1l1.9,1,3.1,1.5h.1Z" fill="#fff"/>
            <path d="M48.4,22a.1.1,0,0,1-.1.1l-2.2,1.2-1.4.7c-.1.1-.2.1-.2,0a.1.1,0,0,1-.1-.1V20.1c0-.1.1-.1.2-.1h0l1.4.7,2.3,1.1h.1" fill="#fff"/>
            <path d="M29.8,18.6h3.4c1.7,0,2.9.9,2.9,2.3a2.5,2.5,0,0,1-2.8,2.3H31.5v2.2H29.9Zm3.3,3.3c.8,0,1.3-.4,1.3-1s-.5-1-1.3-1H31.5v1.9Z" fill="#fff"/>
            <path d="M42.5,24.2v1.3H37.1V18.7h1.7v5.5Z" fill="#fff"/>
            <path d="M52,22.9l-3-4.3h1.9l1.9,2.9,1.9-3h1.8l-2.9,4.4v2.4H52Z" fill="#fff"/>
            <path d="M57.6,19h.8v3.8l3.8-3.8h1.1L60.3,22l3.4,3.7H62.6l-2.9-3.1-1.2,1.1v2h-.8Z" fill="#fff"/>
            <path d="M64.1,22.3A3.9,3.9,0,0,1,68,18.7a3.8,3.8,0,0,1,3.9,3.5,3.8,3.8,0,0,1-3.8,3.6A3.9,3.9,0,0,1,64.1,22.3Zm6.9-.1a3,3,0,0,0-3-2.8,3.1,3.1,0,0,0-3,2.9A2.9,2.9,0,0,0,68.1,25,2.8,2.8,0,0,0,71,22.2Z" fill="#fff"/>
            <path d="M73,24.7l.5-.6A3.2,3.2,0,0,0,76,25c1.2,0,1.8-.5,1.8-1.2s-.7-1-2.1-1.2-2.5-.7-2.5-1.9a2.3,2.3,0,0,1,2.5-2,3.8,3.8,0,0,1,2.7,1l-.5.6a3.1,3.1,0,0,0-2.2-.9,1.5,1.5,0,0,0-1.6,1.2c0,.7.8,1,2.1,1.2s2.4.8,2.5,2-.9,1.9-2.7,2A4.4,4.4,0,0,1,73,24.7Z" fill="#fff"/>
            <path d="M80.2,19h.9L84,23.6l2.7-4.7h.9v6.8h-.9V20.5L84,25.3l-2.9-4.7v5.1h-.9Z" fill="#fff"/>
            <path d="M89.2,22.3a3.9,3.9,0,0,1,3.9-3.6A3.8,3.8,0,0,1,97,22.2a3.8,3.8,0,0,1-3.8,3.6A3.9,3.9,0,0,1,89.2,22.3Zm6.9-.1a3,3,0,0,0-3-2.8,3.1,3.1,0,0,0-3,2.9A2.9,2.9,0,0,0,93.2,25a2.8,2.8,0,0,0,2.9-2.8Z" fill="#fff"/>
            <path d="M98.1,24.7l.6-.6a2.9,2.9,0,0,0,2.4.9c1.2,0,1.8-.5,1.8-1.2s-.7-1-2.1-1.2-2.5-.7-2.5-1.9a2.3,2.3,0,0,1,2.5-2,3.8,3.8,0,0,1,2.7,1l-.5.6a3.1,3.1,0,0,0-2.2-.9,1.5,1.5,0,0,0-1.6,1.2c0,.7.8,1,2.1,1.2s2.5.8,2.5,2-.9,1.9-2.7,2A4.4,4.4,0,0,1,98.1,24.7Z" fill="#fff"/>
          </g>
        </g>
        <g>
          <path d="M27,16.3a1.4,1.4,0,0,1-.5,1l-4.4,4.5L17.3,19V16.3a1.4,1.4,0,0,1,1.4-1.4,1.4,1.4,0,0,1,1.4,1.4h0v3.4l4.4-4.4a1.5,1.5,0,0,1,2,0,1.4,1.4,0,0,1,.5,1" fill="#fff"/>
          <path d="M25.5,29.2H25l-.5-.3-4.4-4.4v3.4a1.4,1.4,0,0,1-1.4,1.4,1.4,1.4,0,0,1-1.4-1.4V25.1l4.8-2.7,4.4,4.4a1.4,1.4,0,0,1-1,2.4" fill="#fff"/>
          <path d="M21.9,22a.2.2,0,0,0-.2-.2h0l-1.2-.7-3.2-1.9-2.7-1.5c-.2-.1-.3-.1-.4.1h-.1v8.3a.5.5,0,0,0,.3.3h.2l2.7-1.5,4.4-2.6h.1a.1.1,0,0,1,.1-.1h0Zm-1.1.1c0,.1-.1.1-.1.2l-3.4,1.9-2.1,1.3h-.4V18.9c0-.2.1-.3.2-.3h.2l2.1,1.3,3.4,1.9a.4.4,0,0,1,.1.3Z" fill="#fff"/>
          <path d="M19.8,22.1h0l-2.6,1.5-1.6.9c-.1.1-.2,0-.3-.1h0V19.6c0-.1.1-.1.2-.1h.1l1.6.9,2.6,1.5h0c.1,0,.1.1,0,.1" fill="#fff"/>
        </g>
        <g>
          <path d="M50.2,21.9c0-.1-.1-.1-.1-.2l-3.9-1.9-2.5-1.3c-.2-.1-.4.1-.4.3v6.5c0,.2.2.3.4.2l2.4-1.3,3.9-2c0-.1.1-.1.1-.2Zm-.9.1a.1.1,0,0,1-.1.1l-3,1.6-1.9,1a.2.2,0,0,1-.3-.1V19.5a.2.2,0,0,1,.2-.2h.1l1.9,1,3.1,1.5h.1Z" fill="#fff"/>
          <path d="M48.4,22a.1.1,0,0,1-.1.1l-2.2,1.2-1.4.7c-.1.1-.2.1-.2,0a.1.1,0,0,1-.1-.1V20.1c0-.1.1-.1.2-.1h0l1.4.7,2.3,1.1h.1" fill="#fff"/>
          <path d="M29.8,18.6h3.4c1.7,0,2.9.9,2.9,2.3a2.5,2.5,0,0,1-2.8,2.3H31.5v2.2H29.9Zm3.3,3.3c.8,0,1.3-.4,1.3-1s-.5-1-1.3-1H31.5v1.9Z" fill="#fff"/>
          <path d="M42.5,24.2v1.3H37.1V18.7h1.7v5.5Z" fill="#fff"/>
          <path d="M52,22.9l-3-4.3h1.9l1.9,2.9,1.9-3h1.8l-2.9,4.4v2.4H52Z" fill="#fff"/>
          <path d="M57.6,19h.8v3.8l3.8-3.8h1.1L60.3,22l3.4,3.7H62.6l-2.9-3.1-1.2,1.1v2h-.8Z" fill="#fff"/>
          <path d="M64.1,22.3A3.9,3.9,0,0,1,68,18.7a3.8,3.8,0,0,1,3.9,3.5,3.8,3.8,0,0,1-3.8,3.6A3.9,3.9,0,0,1,64.1,22.3Zm6.9-.1a3,3,0,0,0-3-2.8,3.1,3.1,0,0,0-3,2.9A2.9,2.9,0,0,0,68.1,25,2.8,2.8,0,0,0,71,22.2Z" fill="#fff"/>
          <path d="M73,24.7l.5-.6A3.2,3.2,0,0,0,76,25c1.2,0,1.8-.5,1.8-1.2s-.7-1-2.1-1.2-2.5-.7-2.5-1.9a2.3,2.3,0,0,1,2.5-2,3.8,3.8,0,0,1,2.7,1l-.5.6a3.1,3.1,0,0,0-2.2-.9,1.5,1.5,0,0,0-1.6,1.2c0,.7.8,1,2.1,1.2s2.4.8,2.5,2-.9,1.9-2.7,2A4.4,4.4,0,0,1,73,24.7Z" fill="#fff"/>
          <path d="M80.2,19h.9L84,23.6l2.7-4.7h.9v6.8h-.9V20.5L84,25.3l-2.9-4.7v5.1h-.9Z" fill="#fff"/>
          <path d="M89.2,22.3a3.9,3.9,0,0,1,3.9-3.6A3.8,3.8,0,0,1,97,22.2a3.8,3.8,0,0,1-3.8,3.6A3.9,3.9,0,0,1,89.2,22.3Zm6.9-.1a3,3,0,0,0-3-2.8,3.1,3.1,0,0,0-3,2.9A2.9,2.9,0,0,0,93.2,25a2.8,2.8,0,0,0,2.9-2.8Z" fill="#fff"/>
          <path d="M98.1,24.7l.6-.6a2.9,2.9,0,0,0,2.4.9c1.2,0,1.8-.5,1.8-1.2s-.7-1-2.1-1.2-2.5-.7-2.5-1.9a2.3,2.3,0,0,1,2.5-2,3.8,3.8,0,0,1,2.7,1l-.5.6a3.1,3.1,0,0,0-2.2-.9,1.5,1.5,0,0,0-1.6,1.2c0,.7.8,1,2.1,1.2s2.5.8,2.5,2-.9,1.9-2.7,2A4.4,4.4,0,0,1,98.1,24.7Z" fill="#fff"/>
        </g>
      </g>
      <g>
        <rect x="88" y="166" width="158.9" height="19.49" fill="#231f20"/>
        <rect x="78.7" y="138.5" width="177.7" height="19.49" fill="#9e1f22"/>
      </g>
      <g>
        <rect x="26.1" y="107.6" width="282.8" height="22.86" fill="#231f20"/>
        <g>
          <rect x="133.7" y="110.2" width="1.4" height="17.73" fill="#fff"/>
          <rect x="199.8" y="110.2" width="1.4" height="17.73" fill="#fff"/>
        </g>
      </g>
      <path d="M63.7,275.5l.3-.4a1.3,1.3,0,0,0,.7-.6.8.8,0,0,1,.4-.4h0A2.6,2.6,0,0,1,63.7,275.5Z" fill="#b99b7a"/>
      <path d="M63.6,326h0a12.2,12.2,0,0,0,.2-3.3,3.9,3.9,0,0,0-.2-1.5c0-.3-.2-.6-.1-.9a2.3,2.3,0,0,1,.3,1.1,16.1,16.1,0,0,1,.1,3.1,2.1,2.1,0,0,1-.1,1.1v.2Z" fill="#d7d8d9"/>
      <g>
        <g>
          <polygon points="259.3 278.6 267.1 283.4 262.9 278.2 259.3 278.6" fill="#231f20"/>
          <polygon points="315.2 271.7 311.8 276.7 318.3 271.6 315.2 271.7" fill="#231f20"/>
          <polygon points="281.1 267.8 285.9 275.1 284.9 269.2 281.1 267.8" fill="#231f20"/>
          <polygon points="258.8 304.4 264.1 300.1 258.9 301.9 258.8 304.4" fill="#231f20"/>
          <polygon points="317.4 306.1 313.3 302.5 316.9 310 317.4 306.1" fill="#231f20"/>
        </g>
        <g>
          <circle cx="292.7" cy="271" r="0.4" fill="#9f1d20"/>
          <circle cx="303.2" cy="273.3" r="0.2" fill="#9f1d20"/>
          <circle cx="319.4" cy="280.6" r="0.4" fill="#9f1d20"/>
          <circle cx="320" cy="291.5" r="0.2" fill="#9f1d20"/>
          <path d="M262.5,286.8a.4.4,0,1,1-.4-.4A.4.4,0,0,1,262.5,286.8Z" fill="#9f1d20"/>
          <path d="M264.7,292.2a.2.2,0,0,1-.2.2c-.2,0-.3-.1-.3-.2s.1-.2.3-.2A.2.2,0,0,1,264.7,292.2Z" fill="#9f1d20"/>
          <path d="M258.2,297a.3.3,0,0,1-.3.3c-.2,0-.4-.1-.4-.3s.2-.3.4-.3A.3.3,0,0,1,258.2,297Z" fill="#9f1d20"/>
          <path d="M268.3,279.4c0,.1-.1.2-.3.2a.2.2,0,1,1,0-.4C268.2,279.2,268.3,279.3,268.3,279.4Z" fill="#9f1d20"/>
          <path d="M275.8,279.1h-.2c0-.1,0-.1.1-.1A.1.1,0,0,1,275.8,279.1Z" fill="#9f1d20"/>
          <circle cx="280.3" cy="272.2" r="0.3" fill="#9f1d20"/>
          <circle cx="281.7" cy="308.6" r="0.4" fill="#9f1d20"/>
          <circle cx="290.2" cy="310.5" r="0.3" fill="#9f1d20"/>
          <circle cx="298.4" cy="307.2" r="0.2" fill="#9f1d20"/>
          <circle cx="309.6" cy="309.6" r="0.3" fill="#9f1d20"/>
          <path d="M319.6,299a.2.2,0,1,1-.2-.2A.2.2,0,0,1,319.6,299Z" fill="#9f1d20"/>
          <path d="M323.1,297.8a.4.4,0,0,1-.4.4.5.5,0,0,1-.5-.4.5.5,0,0,1,.5-.5A.5.5,0,0,1,323.1,297.8Z" fill="#9f1d20"/>
        </g>
      </g>
      <rect x="251.7" y="284.4" width="78.6" height="16.63" fill="#9f1d20"/>
    </g>
  </g>
</svg>
