<svg id="e49f0638-e828-4859-8c0e-f1bf160ab30b" data-name="Layer 1" xmlns="http://www.w3.org/2000/svg" xmlns:xlink="http://www.w3.org/1999/xlink" width="335" height="473.8" viewBox="0 0 335 473.8">
  <defs>
    <clipPath id="e02b44db-1cda-4adb-a374-dad5eb3614a2">
      <rect width="335" height="473.79" fill="none"/>
    </clipPath>
    <radialGradient id="fd163953-c7bf-4da1-b326-b1b5c5cafd70" cx="167.5" cy="236.89" r="205.15" gradientUnits="userSpaceOnUse">
      <stop offset="0" stop-color="#fff"/>
      <stop offset="1" stop-color="#d1d3d4"/>
    </radialGradient>
  </defs>
  <g>
    <g clip-path="url(#e02b44db-1cda-4adb-a374-dad5eb3614a2)">
      <rect width="335" height="473.79" fill="url(#fd163953-c7bf-4da1-b326-b1b5c5cafd70)"/>
      <rect x="-1.4" y="243.9" width="336.4" height="98.06" fill="#151213"/>
      <g>
        <rect x="25.2" y="188.2" width="130.1" height="97.85" fill="#ed1c24"/>
        <path d="M17.5,182.8V291.5H162.9V182.8ZM159.3,287.4c0,.7-.9,1.3-2,1.3H23.1c-1.1,0-2-.6-2-1.3V186.9c0-.7.9-1.2,2-1.2H157.3c1.1,0,2,.5,2,1.2Z" fill="#ed1c24"/>
      </g>
      <g>
        <path d="M163,458.6c.2-1.9.2-3.7.5-5.3,1-4,1.1-8.2,2.7-12,.2-.4.3-1.1.9-1.1s.7.7.8,1.1a15.4,15.4,0,0,1,1,5.6,1.5,1.5,0,0,0,.7,1.3,7.2,7.2,0,0,1,2.5,3.6c.5,1,.4.9,1.4.4,2.6-1.6,5.1-3.4,8-4.3.4-.1.8-.3,1,.1s0,.6-.2.9a19,19,0,0,1-3.4,4.1c-.5.5-.7.8,0,1.3a18.5,18.5,0,0,1,2.8,2.8l5.6,5.5c.4.5.7.5,1.2.1a10.2,10.2,0,0,1,3.5-1.6c.9-.1,1.2.2,1,1a17.3,17.3,0,0,1-1.6,3c-.3.4-.2.6.2.9a21.4,21.4,0,0,0,3.8,2.3,61,61,0,0,1,5.4,3.4,2.1,2.1,0,0,0,1.5.5h.4a2.8,2.8,0,0,0,2.9.2c.4-.3.9.3,1,.8a18.7,18.7,0,0,1-.3,5.8c-.1.9-.9,1.2-1.5.6s-1-.5-1.5-.1-1.6,0-2.5.2l2.6,1.5a22.9,22.9,0,0,1,4.3,3.2c.3.3.6.5.5,1s-.5.4-.9.5.9.2,1.2.6-.5.2-.7.2l-14-2.6a105.3,105.3,0,0,1-15.6-4.1,1,1,0,0,0-1.2.3c-.4.5-.9,1-1.3,1.6a2.4,2.4,0,0,1-1.1,1.3l-8.3,5.8c-.5.4-1.1.5-1.4,1.2s-.9.2-1.3.1l-2.8-.6-5.4-1.6c-.4-.1-.8-.1-.8-.6s.4-.3.8-.4,1.1-.9.8-1.9a3.6,3.6,0,0,1-.4-.9c-.3-1.3-.3-1.4-1.6-1.2l-16.6,1.8h-.9c-.6-.2-1.1-.5-1.6.2s-.5.2-.8.1a3.6,3.6,0,0,1-2.7-2.4c-.2-.6-.6-.2-.9-.2s-1.2.3-1.5-.2.3-.9.5-1.3.8-.8.5-1.1a2.3,2.3,0,0,0-1.6-.6h-.7c-.5-.1-.9-.3-.4-.8s.1-.5-.1-.8a4.2,4.2,0,0,1-.1-5,2.4,2.4,0,0,1,2.6-1.1l4.2.3c1,.1,2,0,3,.2a2.4,2.4,0,0,0,2.4-1.2c.3-.4.9-.8.9-1.2s-.8-.4-1.1-.7-2.4-1.4-3.3-2.3a4.7,4.7,0,0,1-1-1c-.2-.2-.4-.4-.3-.7s.5-.3.7-.3a18.3,18.3,0,0,1,6.2,1,16.3,16.3,0,0,0,3,.7,1.4,1.4,0,0,0,.9-.3l7-5.1c.6-.4.4-.6,0-1a33,33,0,0,1-6-6.4c-.2-.3-.5-.6-.2-1s.6-.2,1-.1a12.4,12.4,0,0,1,3.2,1.2,45.1,45.1,0,0,1,5.7,3.1c.7.6,1.3.8,2.1,0s1.8-.6,2.8-.2A5.7,5.7,0,0,1,163,458.6Zm-25.6,16.2a8.7,8.7,0,0,1,1.1,4.1c0,.7.3.8.9.7l16.1-1a5.8,5.8,0,0,0,3.3-1,4,4,0,0,1,1.9-.7l2.6-.5c.5-.1.6-.3.4-.7a1.7,1.7,0,0,0-1.8-1.1H138.1A.9.9,0,0,0,137.4,474.8Zm4.8-5.7a6.5,6.5,0,0,1,3.2,2.9c.2.5.4.4.7.1l14.8-10.8a.5.5,0,0,0,.3-.6,3.1,3.1,0,0,0-4.6-2.1l-6.6,4.8Zm24.2,5.1c-1.2-2.6-.9-4.2,1.2-6.2a1.4,1.4,0,0,0,.3-1.1c.1-4.2.2-8.4.2-12.6,0-1.7-.1-1.8-1.8-1.8h-.6c-.7.1-1,.3-1,1.1-.1,2.6-.3,5.2-.5,7.8s-.5,8-.7,12.1c-.1.4.1.7.6.6A9.1,9.1,0,0,1,166.4,474.2Zm5.7-18c-1.5,0-1.8.4-1.4,1.8l2.1,9.3a1.7,1.7,0,0,0,1.4,1.5l2.1.7c.2.1.5.4.8.1s0-.5-.1-.7l-3.3-11.5A1.4,1.4,0,0,0,172.1,456.2Zm-10.9,21.9a4.6,4.6,0,0,0-4.7,4.7,5.2,5.2,0,0,0,5.1,5.3,4.8,4.8,0,0,0,4.6-5A5,5,0,0,0,161.2,478.1Zm28.6-3.1-.3-.2L172,468.5a2.6,2.6,0,0,0-2.4.5c-.2.2-.5.4-.5.7s.4.3.7.4l16.4,5.8c1.1.4,2.1.7,2.9-.5Zm-25.5,1.7c2.7,1.4,3.2,2,4.2,5,.1.4.3.4.6.2l5.5-2.9a.6.6,0,0,0,.3-.8,3.6,3.6,0,0,0-3.7-2.6Zm23.2-13,.2-.3c-2.7-2.6-5.4-5.3-8.1-7.8a2.7,2.7,0,0,0-3-.3c-.4.3-.5.5-.1.9l8,7.9c.2.2.4.4.8.2A4,4,0,0,1,187.5,463.7Zm11.2,9h-2.4c-1.7,0-1.6,0-1.3,1.6s.4.9,1.1.9l5,.2c1.9,0,1.9,0,1.8-1.8s-.2-.9-.8-.9Zm-61.2,0-5.7-.4a1.9,1.9,0,0,0-2.1,1.3,5.7,5.7,0,0,0-.4,1.4c-.2,1.2.1,1.4,1.3,1.4s.7-.3.9-.8,1.8-1.7,2.8-1,1.1.2,1.5-.3A5.3,5.3,0,0,1,137.5,472.7Zm69.9,12.1A29.5,29.5,0,0,0,198,479a1.6,1.6,0,0,0-1.8.3c-.4.3-.5.7.2.9C200.1,481.6,203.7,483.4,207.4,484.8ZM159.9,464a2.9,2.9,0,0,0-2.9,2.8,3.4,3.4,0,0,0,3.3,3.3,2.7,2.7,0,0,0,2.8-2.8A3.2,3.2,0,0,0,159.9,464Zm34.6,10.7a12.2,12.2,0,0,0-3.4-6.3,1.7,1.7,0,0,0-1.7-.1c-.5.2-.7.4-.2.9a22.8,22.8,0,0,1,2.2,2.2Zm-27.4-34a11.6,11.6,0,0,0-1.2,4.4c-.3,1.5-.2,1.5,1.3,1.7s.8-.1.8-.7,0-1.7-.1-2.5A8.4,8.4,0,0,0,167.1,440.7Zm12.4,29.4a5.2,5.2,0,0,1,1.5.7c1.4.9,1.4.9,2.6-.3l.6-.5c.4-.4.3-.6-.2-.9s-2-1.1-3.8.4Zm-31.9-16.9v.2L153,457c.3.2.6.6.9.2s.2-.9-.2-1.1A20.1,20.1,0,0,0,147.6,453.2Zm37.2,19.4c2.5.8,4.9,2,7.5,2.3C190.1,473.3,187.8,471.7,184.8,472.6Zm-53.2,5.8c.1-.5.1-.8.2-1.1a.9.9,0,0,1,.8-.7c.4,0,.6.3.7.7a5,5,0,0,1,.2,3.6c-.1.4-.3.8-.8.8s-.6-.4-.8-.8a5,5,0,0,1-.3-1.3,7.2,7.2,0,0,0,.6,2.9,1,1,0,0,0,.6.5c.3,0,.5-.3.6-.5a9.1,9.1,0,0,0-.3-6.7c-.3-.7-.8-.6-1.1,0A4.4,4.4,0,0,0,131.6,478.4Zm69-6.3-3.7-2.3c-.4-.2-.6-.2-.7.2s-.6.7,0,1S198.8,472.5,200.6,472.1Zm-31.3-22.6a22.3,22.3,0,0,0,.4,2.3c0,.2,0,.5.3.5a6.8,6.8,0,0,0,1.5-.2c.1-.1,0-.3,0-.4a8.4,8.4,0,0,0-1.5-2.6c-.1-.1-.2-.4-.5-.3S169.4,449.2,169.3,449.5Zm12.1-.9h-.1a20.4,20.4,0,0,0-2.2.9,27.7,27.7,0,0,0-3.7,2.2c-.3.2-.5.4-.2.8s.4,0,.6-.1Zm-43.6,24.6a3.7,3.7,0,0,0,3.2,1c.3-.1.5-.2.3-.5S139.2,471.6,137.8,473.2Zm2.8-2c-.4,0-.8.1-.9.4s.3.4.5.5a5.5,5.5,0,0,1,1.7,1.7c.1.2.3.5.6.3s.6-.4.5-.8A3.8,3.8,0,0,0,140.6,471.2Zm-5.3,7.2a7.2,7.2,0,0,0-.7-2.7,1.6,1.6,0,0,0-.6-.8h-.6c-.1.1,0,.3.1.4a9.7,9.7,0,0,1,1,3.3l.3.8c0,.1.2.2.3.2l.2-.3Zm31.4-30.8c-.6.1-1.3,0-1.3.9s.7.6,1.2.7h.7c.3,0,.7.4.8-.2s.2-1-.5-1.2ZM141.1,470a5.8,5.8,0,0,1,3,2.5c.1.3.3.4.6.2s.3-.4.1-.7a5,5,0,0,0-2-2.1A1.7,1.7,0,0,0,141.1,470Zm54.7,7.9c-1.4-.8-2.3-.7-3,.2s-.4.3,0,.5a2,2,0,0,0,2.5-.3Zm-59.2.7a5,5,0,0,0-.7-2.7c-.1-.2-.3-.4-.5-.3s-.1.4-.1.6a7.1,7.1,0,0,1,.6,2.4c0,.3-.1.8.4.8S136.6,478.9,136.6,478.6Zm55-.4a7.5,7.5,0,0,0,1.8-1.3c0-.3-.3-.3-.4-.4a2,2,0,0,0-1.8.7c-.2.2-.6.4-.4.7S191.3,478.2,191.6,478.2Zm3.8-9.1a1.2,1.2,0,0,0-1.2-.8c-.6,0-.8.7-.8,1.1s.7.6,1.2.7S195.2,469.5,195.4,469.1Z" fill="#151213"/>
        <path d="M158,466.9a2,2,0,0,1,2-2,2.3,2.3,0,0,1,2.2,2.3,2,2,0,0,1-2,2A2.4,2.4,0,0,1,158,466.9Zm2-1.1a1,1,0,0,0-1.1,1.1,1.3,1.3,0,0,0,1.3,1.4,1,1,0,0,0,1.1-1.1C161.4,466.4,160.9,465.9,160,465.8Z" fill="#151213"/>
      </g>
      <g id="b716bcf5-b122-4e0f-b4df-3f27c906a468">
        <path d="M254.4,183.2a.1.1,0,0,1,.1.1l-.5.5-.5.7a.8.8,0,0,1-.4.4h-.2l.9-1c.3-.5.5-.6.6-.6Zm-2.3-4c.3.4.3.5,0,.6s-.7.6-1,1.5a1.2,1.2,0,0,0-.1,1v.4a1.5,1.5,0,0,0,.3.5c.2.4.3.5.5.6h.2c.3.1.2.3-.4.5l-.6.4h-.3a1.4,1.4,0,0,1-.7-.6h-.1a7.5,7.5,0,0,1-.6-1.3h0a3.7,3.7,0,0,1-.1-1.6,2.8,2.8,0,0,1,2.3-2.1h.4C252,179,252.1,179,252.1,179.2Zm-5-6.1,1.5,1.4a4.3,4.3,0,0,1,1,1.2,3.6,3.6,0,0,0,.8.9c.1.1.1.1.1.2h.1l.4.3.4.5c.1.1.2.2.1.2s-1.9-.1-2.7.6-.4.4-.8,1.3-.4,1-.3,1.5a4.3,4.3,0,0,0,.2,1.1c.2.5.7,1.4.9,1.4s.1.1,0,.2h.1l.3.2a5.2,5.2,0,0,0,2.1,1.4l1.1.4h.4c.2,0,.1.1,0,.2l-.3.3a1.9,1.9,0,0,0-.4.8c-.2.5-.3.7-.2.9v.3a.8.8,0,0,0,.1.4c.1.2.1.4-.2,1.2s-.4,1.3-.3,1.8a1.2,1.2,0,0,0,.4.8l.4.9a3.4,3.4,0,0,0,.7,1.5c.3.3.3.4.2.5l-.9.8a14.6,14.6,0,0,1-2.4,1.7h-.2l-1.3,1c-1.2.7-1.6,1-1.7.9a.1.1,0,0,1-.1-.1,4.5,4.5,0,0,0-.3-1.1c-.1-.5-.3-1-.3-1.1a3.9,3.9,0,0,0-.1-.9c-.1-.4-.2-2.3-.2-2.4v-.8c0-.5-.1-1.1-.1-1.3v-1.8a4.9,4.9,0,0,0-.1-1.1v-.6c-.1,0-.1-.1,0-.2v-1.1c0-.5.1-.9,0-1a.4.4,0,0,1,.1-.3v-.3a13.6,13.6,0,0,1,.1-1.6c0-.7.1-1.4.1-1.5a7.5,7.5,0,0,1,.1-1.2,9.3,9.3,0,0,0,.2-1.4c0-.3.1-.6.1-.8s.1-.5.1-.7.1-.5.1-.7.3-2,.3-2.1-.1-1.2-.1-1.3a14.9,14.9,0,0,1-.2-2.1c0-.1.1-.2.2-.1S246.9,172.8,247.1,173.1ZM264,213l.2.4c-.1.1,0,.2.1.4a1.1,1.1,0,0,1,.2.9c0,.1-.2.1-.3,0l-1.2-.3h-.1l-.5-.3-1.6-.4h-.1l.4-.4a3.3,3.3,0,0,1,2.5-.7h.2A.5.5,0,0,1,264,213Zm-2.3-12a4,4,0,0,1,.3.9l.4,1.1a3.4,3.4,0,0,1,.3.8,6.1,6.1,0,0,1,.5,1.2,6.2,6.2,0,0,0,.3,1,15.6,15.6,0,0,1,.5,2.2,1.5,1.5,0,0,1,.1.6,3.7,3.7,0,0,0,.2,1.6,1.5,1.5,0,0,1,0,1.3c-.1.3-.2.4-.4.4h-1.7a5.3,5.3,0,0,0-1.4.8l-.3.2h0l-.4.2a3.4,3.4,0,0,1-1.1.5h0v-.4a8.6,8.6,0,0,0-.1-1.5,3.4,3.4,0,0,1-.1-.9c-.1-.2-.3-1-.6-1.7a3.7,3.7,0,0,0-.8-1.5,1,1,0,0,1-.3-.8,6.5,6.5,0,0,1,.9-3.2,6,6,0,0,1,.6-1.1l.4-.7.3-.4h.2a6.2,6.2,0,0,0,1.8-.2l.4-.2Zm-65.4-91.1c-.7.2-.9.5-1.2,1.2a1.1,1.1,0,0,1-.7.8,3.1,3.1,0,0,0-1.3,1.2c-.3.6-.2.9.9,2l1.6,1.6.4.5.4.4,1.8,1.9.4.3.5.6.7.7.5.5.9.9.4.4h.2l.5.6.5.4.4.5.6.5,1,1,.4.5.5.4.3.4.5.4.6.6,1,1.1,1.3,1.3.5.5.9.9,1,1.1.5.4.3.3.2.2v.2h.1l.3.2a3.8,3.8,0,0,0,.9.9l1,1.1.4.4.4.4.5.4.4.5.6.6a2.1,2.1,0,0,1,.4.7l.2.4-.3.2h-.3a.1.1,0,0,1-.1-.1l-.4-.2h-.4v.3l1.1,1.1h.2l.4.3h0c.3.1.3.1.3-.2s.2-.4.6-.4h.4l.2.2.3.3.5.5.4.4.3.3.4.4.7.7.3.3-.3.8a7.8,7.8,0,0,0-.3.9c.1,0,.1.2,0,.3s.3.9,1.3,1.3.8.4.9.8l.2.2.3.5v.2l1,1.4,1.6,2.3.4.4.4.5.6.7.2.3-.4,1.1c-.3.5-.5,1-.4,1.1a3.1,3.1,0,0,1-.3,1.3.8.8,0,0,0,.1.8l1,1,.4.3a2.4,2.4,0,0,1,1.1,1.3,3.2,3.2,0,0,1,.2,1.5,4.6,4.6,0,0,1-.8,2.4,2.8,2.8,0,0,0-.7,2.4,4,4,0,0,0,1,1.2l.4.5.4.4.2.3c0,.1.1.3.2.3s.3.3.4.6.3.6.5.6l.6.5.7.7.7.6.4.3.2.3a1.1,1.1,0,0,0,.3.6,3.6,3.6,0,0,1,.6,1.3c-.1.1,0,.1,0,.2a7.8,7.8,0,0,1,.3,2.2c-.1,0-.1.2,0,.4a2.5,2.5,0,0,1-.1.8,2.2,2.2,0,0,1-.1.8v.6a2.2,2.2,0,0,0-.1.8c-.1.2-.1.5-.2.8s-.1.5-.1.7a3.7,3.7,0,0,1-.2.9c0,.3-.1.6-.1.8s0,.4-.1.5-.1.2,0,.3v.3a8.9,8.9,0,0,0-.2,1.1,12.4,12.4,0,0,1-.2,1.8v.4a2.2,2.2,0,0,1-.2,1v.3a.2.2,0,0,1,0,.3c0,.1-.1.5-.1.8a2,2,0,0,1-.1.9v.6a8.4,8.4,0,0,0-.2,1v.4c0,.2-.1.5-.1.8s-.1.7-.1,1a3.1,3.1,0,0,0-.1.9c-.1.1-.1.4-.2.5v.3c.1,0,.1.1,0,.2s-.1.6-.2,1.1a11.3,11.3,0,0,1-.2,1.9c-.1.9-.3,3-.3,3.3v.3a.6.6,0,0,0-.1.4v1a4.4,4.4,0,0,0-.1.9c0,.1-.2.1-.5-.1H232l-.4-.2c-.4-.2-.5-.1-.8-.1a.7.7,0,0,0-.4.5,1.7,1.7,0,0,0,.3,1.8,2.4,2.4,0,0,0-.1.7c-.2.4-.2.6-.1.8s.1.3-.1.6-.4.7-.7,1.8a3.2,3.2,0,0,0,0,1.4v1.7c0,.4.1,1.5.1,2.4s.1,1.8.1,2-.1.4-.1.6a5.1,5.1,0,0,0,.4,1.4,16.2,16.2,0,0,1,1.1,3.3h0a7.1,7.1,0,0,1,.2,1.9v.3a3.5,3.5,0,0,1,.1.6,5.1,5.1,0,0,0,1.5,2.9l.6.6.2.2.5.4.4.4.5.4,1.3,1.3.4.3.2.2,1,.8.9.9.3.2h.2a6.5,6.5,0,0,0,2.3,1.6c1.2.5,1.7.8,1.7,1l.4.2.3.2a.2.2,0,0,0,.2.2l.4.2a7.1,7.1,0,0,0,1.2,1.1l.5.3.5.4c.8.5,2.6,1.6,2.9,1.9l.5.3.4.2.4.3c.2.2.6.3.7.5s.4.2.3.4l-.5.7-.7.7-.4.5-.2.2-.2.3-.6.6-.6.6v.2l-.2.3-.9.8-1.6,1.6-.2.3-.6.6a2,2,0,0,0-.5.5l-.4.4-1.2,1.2-1.4,1.3a3.3,3.3,0,0,0-.6.6h-.1a.1.1,0,0,0-.1.1,4.9,4.9,0,0,1-1,.9h0l61.4,24.7h0c.4-.8.9-1.9,1.7-3.4,1.9-4,3.9-8.5,5.8-13.2.9-2.2,1.3-3.1,1.4-3v.2c0,.2,0,.2.1.3h.1c.2.1.2,0,.4-.9a1.8,1.8,0,0,1,.5-1.2c.5-.8.6-.9.5-1.1a9.9,9.9,0,0,1,1.3-1.6l.2-.2.2-.2c.1,0,.2-.2.2-.3l.4-.5a1.6,1.6,0,0,0,.3-1.2,1.5,1.5,0,0,1,.1-.6,6.5,6.5,0,0,1,.2-1.1,21.2,21.2,0,0,1,1-3.6l.2-.7c-.1,0,0-.2,0-.3s.1-.2,0-.2v-.3a.4.4,0,0,0,.1-.3,10.1,10.1,0,0,1,0-1.8v-.5a.4.4,0,0,1,.1-.3c0-.2,0-.3-.1-.3s-.1-.2,0-.5a1.9,1.9,0,0,0,.2-.8c.1-.7.3-1.7.5-2.8a2.4,2.4,0,0,0,.2-.8,5.8,5.8,0,0,1,.2-1c.1-1.1.2-1.3.2-1.7s.1-.4.1-.5V238a9.5,9.5,0,0,0-.2-3,11.9,11.9,0,0,0-1.2-2.9l-.5-.8a1.5,1.5,0,0,1-.6-1.3v-.8c0-.2.1-.5.1-.6v-.4a10.1,10.1,0,0,0-.4-1.8,10.3,10.3,0,0,1-.3-1.2c-.1-.2-.1-.4-.2-.5a13,13,0,0,1-.6-1.9c.1,0,0-.3-.1-.6s-.2-.7-.3-1l-.2-.5c-.1-.1-.1-.1.1-.5s.1-.3.2-.2.3-.6.2-.8l.2-.8c.3-.5.3-.6.2-1a.8.8,0,0,1,.1-.8,3.3,3.3,0,0,0,.1-2.6c-.3-.9-.4-1.1-.6-1.2h-.4l-1.2-.2h-2.3l.2-.6c.3-.6.3-.6.1-.9s-.1-.6.2-.6a1,1,0,0,0,.7-.6,1.7,1.7,0,0,0-.2-1.1V208a.4.4,0,0,1-.1-.3,1.7,1.7,0,0,0-.1-1,1.9,1.9,0,0,1-.2-.7v-.4l.4-.4,1-.6c.4-.2.6-.3.5-.8a.5.5,0,0,1,.2-.4.2.2,0,0,0,.2-.2h.1l.3-.3.4-.2h1.4c.1.1.2,0,.2-.2s.1-.2-.1-.3-.2-.5.4-.3h.5c.3,0,.3-.3.2-.5s-.2-.3,0-.4l.3-.3c.3-.3.3-.5.1-.7h-.1a1.2,1.2,0,0,0-1,.1h-.3c.1-.3.2-1,.3-1.3a.8.8,0,0,0,.1-.4c-.1,0-.1-.2,0-.3a2,2,0,0,0,.1-.9,11,11,0,0,1,.3-1.6c.3-1,.5-1.7.3-1.8h0a6.7,6.7,0,0,0,0-2v-.2c.1,0,.1-.2.1-.2s-.1-.4-.1-.8v-1.5h0c-.1,0-.1-.2-.1-.4s-.2-.9-.3-1.4l-.5-1.5a41,41,0,0,0-1.6-3.9,11.1,11.1,0,0,0-1.6-2.4l-.6-.7h-.1a.2.2,0,0,1-.2-.2l-.3-.3-.4-.6-.4-.7a.8.8,0,0,1-.2-.8,1.1,1.1,0,0,0-.2-.6l-1.2-.9c-.4-.1-.7-.1-.8.1s-.1.2-.3.1h-.3l-.6-.4-2.6-1.5-.7-.5a24.2,24.2,0,0,0-4.5-2.4h-.4a4.5,4.5,0,0,0-2.6-.2h-1a5.3,5.3,0,0,0-2,.6,12.5,12.5,0,0,0-3.1,1.5l-.9.5-1.5,1-1.6,1-1,.5-1,.6-.7.4h-.4c-.1.2-.8.7-1,.6l-3.4-1.2-8.4-2.9a1.6,1.6,0,0,0-1.4.6l-.8,1.3a8.7,8.7,0,0,0-.6,1.6,4.9,4.9,0,0,0,.1,2.4,6.2,6.2,0,0,0,1.4,2.5,10.5,10.5,0,0,0,2.8,2.2l3.1,1.4,2.5.9.7.2h.1v.3a7.7,7.7,0,0,0,.2,2.9l.2.8-.2.2h-.3c0,.1-.2.2-.5.4l-2.1,1.8-.2.3h-.2l-.5.5c-.3.2-.6.5-.6.6h-.2l-.2.3c0,.2-.1.3-.3.2l-.4-.4-.4-.6h-.1l-.2-.3-.5-.6-.6-.8a8.7,8.7,0,0,1-1.3-1.6,2.3,2.3,0,0,1,.1-.7,15.4,15.4,0,0,0,.3-1.6v-.6a7.2,7.2,0,0,0,0-1.5,4,4,0,0,0-.6-2.1l-.9-.7s-.2-.1-.2-.2l-1-.7-.9-.2h-.7l-.8.4-.8.3h0a1.7,1.7,0,0,1-.7-1l-.2-.6a3.7,3.7,0,0,1-.3-1.5.6.6,0,0,0-.1-.4l-.4-.8a1.2,1.2,0,0,0-.5-.8,2.1,2.1,0,0,1-.6-1l-.4-.7.4-.2a1.4,1.4,0,0,0,.9-1.2c0-.5-.1-.7-.5-.8h-.2l-1-.3h-.3l-.3-.2-.2-.2a.4.4,0,0,1-.2-.3,4.9,4.9,0,0,0-.8-1.1l-.7-1.2-.2-.4a6.1,6.1,0,0,1-.4-.6,4.7,4.7,0,0,0-.6-1c-.1-.1-.2-.2-.1-.2l-.5-.4c-.3-.2-.5-.4-.4-.5h-.3l-.2-.2a.2.2,0,0,0-.2-.2l-.3-.2a8.4,8.4,0,0,0-1.3-1.2l-.5-.4-.3-.2-.2-.2a.7.7,0,0,0-.3-.3l-.6-.5-.4-.4-.9-.8-2.2-2h-.2l-.3-.2-1-1-.9-.9-1.1-1-.4-.4-.5-.5c-1.1-1-1.5-1.4-1.5-1.5h-.2l-.2-.2h-.1l-1.3-1.3-.9-.8a3.7,3.7,0,0,0-.9-.9l-.9-1-1-.9-.7-.7-.8-.7-1.2-1.2-1.2-1.2v-.2l-.9-.8-.2-.2-.4-.4-.4-.4-.4-.4-1.2-1.1-.8-.8-.4-.4-.3-.3-.3-.3-.4-.4-.8-.8c-.1-.1-.3-.2-.4-.4l-.3-.2-.4-.4-.5-.5-.3-.3-.4-.4-.3-.3-.4-.3-.4-.5-.4-.3-.4-.5-.5-.5-.3-.2c0-.1,0-.1-.1-.2h-.2c.1-.1,0-.1-.1-.2h-.3a.5.5,0,0,0-.3-.4l-.6-.7-.5-.4-.7-.7-.6-.7-.5-.4v-.2l-.5-.4-.5-.5-.4-.4-.3-.3-1.4-1.4-.4-.4-.4-.4c-.1-.1-.3-.2-.3-.3l-.5-.5-.7-.7-.6-.5-.8-.9-.4-.4-.6-.5-.7-.7-.4-.4-.3-.4-.5-.4-.5-.6-.4-.4c-.1,0-.2-.2-.4-.4l-.5-.4-.3-.3-.5-.5-.8-.9c-1.5-1.4-1.5-1.4-1.4-1.8s.1-.3-.1-.5l-.4-.4-.5-.4-.4-.4a6,6,0,0,0-.8-.8.5.5,0,0,1-.3-.4h-.2l-.5-.4a.7.7,0,0,0-.3-.3l-.3-.2c0-.1-.2-.3-.4-.4l-.3-.4a1.1,1.1,0,0,0-.6-.3h0A1,1,0,0,0,196.3,109.9Z" fill="#151213"/>
      </g>
    </g>
    <g>
      <g>
        <g>
          <path d="M41.4,22.3a1.6,1.6,0,0,1-.5,1.1l-5.3,5.3-5.7-3.2V22.3a1.7,1.7,0,1,1,3.4,0h0v4l5.2-5.2a1.6,1.6,0,0,1,2.4,0,1.7,1.7,0,0,1,.5,1.2" fill="#151213"/>
          <path d="M39.7,37.6l-.6-.2c-.2,0-.4-.2-.6-.3l-5.2-5.2v4a1.7,1.7,0,0,1-3.4,0V32.7l5.7-3.3,5.3,5.3a1.7,1.7,0,0,1-1.2,2.9" fill="#151213"/>
          <path d="M35.3,29c0-.1,0-.2-.1-.2h0l-1.5-.9-3.8-2.2-3.2-1.8c-.2-.1-.4-.1-.5.1s-.1.1-.1.2V34c0,.2.2.3.4.3h.2l3.2-1.9,5.3-3h0c.1-.1.1-.1.1-.2h0C35.4,29.1,35.4,29,35.3,29Zm-1.2.2h-.2l-4,2.4-2.5,1.4c-.2.1-.4.1-.4-.1a.1.1,0,0,1-.1-.1V25.3a.3.3,0,0,1,.3-.3h.2l2.5,1.5,4,2.3c.2.1.2.2.2.4Z" fill="#151213"/>
          <path d="M32.9,29.1v.2l-3,1.7-1.9,1.1c-.1.1-.2,0-.3-.1h0V26.2a.2.2,0,0,1,.2-.2h.1l1.9,1.1,3,1.8a.1.1,0,0,1,.1.1h0" fill="#151213"/>
        </g>
        <g>
          <path d="M69,28.9a.2.2,0,0,0-.2-.2l-4.6-2.3-2.9-1.5a.3.3,0,0,0-.5.3v7.7a.3.3,0,0,0,.5.3l2.8-1.5,4.6-2.5A.2.2,0,0,0,69,29Zm-1.1.1-.2.2-3.5,1.9L62,32.2c-.2.1-.4,0-.4-.2V26c0-.1.1-.2.3-.2h.1l2.2,1.1,3.6,1.9h.2Z" fill="#151213"/>
          <path d="M66.8,29h0l-2.7,1.5-1.7.8a.2.2,0,0,1-.3,0h0V26.8a.2.2,0,0,1,.2-.2h.1l1.6.9,2.8,1.3h0c.1.1.1.1,0,.1" fill="#151213"/>
          <path d="M44.8,25h4c2,0,3.4,1.1,3.4,2.7s-1.4,2.7-3.3,2.7H46.8v2.6H44.9Zm3.9,3.9c.9-.1,1.6-.5,1.6-1.2s-.7-1.1-1.7-1.1H46.7v2.3Z" fill="#151213"/>
          <path d="M59.9,31.6v1.5H53.4v-8h1.9v6.5Z" fill="#151213"/>
          <path d="M71.1,30.1,67.5,25h2.2L72,28.5l2.3-3.6h2.2L73,30.1V33h-2Z" fill="#151213"/>
          <path d="M77.7,25.4h1.1v4.5l4.5-4.6h1.4L80.9,29,85,33.4H83.7l-3.5-3.7L78.8,31v2.5H77.8Z" fill="#151213"/>
          <path d="M85.5,29.3a4.5,4.5,0,0,1,4.6-4.2,4.4,4.4,0,0,1,4.6,4.1c.1,2.3-2,4.2-4.5,4.3A4.5,4.5,0,0,1,85.5,29.3Zm8.2-.1a3.6,3.6,0,0,0-7.1.1,3.6,3.6,0,0,0,7.1-.1Z" fill="#151213"/>
          <path d="M96.1,32.2l.6-.7a4.2,4.2,0,0,0,2.9,1.1c1.4,0,2.1-.7,2.1-1.4s-.8-1.2-2.4-1.5-3-.8-3-2.2,1.3-2.4,3-2.4a5.2,5.2,0,0,1,3.2,1.1l-.7.8a3.1,3.1,0,0,0-2.5-1c-1.2,0-2,.6-2,1.4s.9,1.1,2.5,1.4,2.9.9,3,2.3-1.1,2.3-3.2,2.4A5,5,0,0,1,96.1,32.2Z" fill="#151213"/>
          <path d="M104.6,25.4h1.1l3.4,5.6,3.2-5.7h1.1v8.1h-1.1V27.3l-3.3,5.6-3.4-5.5v6.1h-1.1Z" fill="#151213"/>
          <path d="M115.3,29.3a4.5,4.5,0,0,1,4.6-4.2,4.4,4.4,0,0,1,4.6,4.1c.1,2.3-2,4.2-4.5,4.3A4.5,4.5,0,0,1,115.3,29.3Zm8.2-.1a3.6,3.6,0,0,0-7.1.1,3.6,3.6,0,0,0,7.1-.1Z" fill="#151213"/>
          <path d="M125.9,32.2l.6-.7a4.2,4.2,0,0,0,2.9,1.1c1.4,0,2.1-.7,2.1-1.4s-.8-1.2-2.4-1.5-3-.8-3-2.2,1.3-2.4,3-2.4a5.2,5.2,0,0,1,3.2,1.1l-.7.8a3.1,3.1,0,0,0-2.5-1c-1.2,0-2,.6-2,1.4s.9,1.1,2.5,1.4,2.9.9,3,2.3-1.1,2.3-3.2,2.4A5,5,0,0,1,125.9,32.2Z" fill="#151213"/>
        </g>
      </g>
      <path d="M172.3,265.9h.5l.4-.2.3-.2a5.3,5.3,0,0,1,.1-1.2v-1.1a4.9,4.9,0,0,0,.1-1.2,5.7,5.7,0,0,0-.1-1.3v-1.1a4.9,4.9,0,0,1-.1-1.2l-.3-.2h-.4l-.5-.2v-.7a3.8,3.8,0,0,1,1.5.5,3.2,3.2,0,0,1,1,1,3.5,3.5,0,0,1,.6,1.4,5.8,5.8,0,0,1,.3,1.9,5.2,5.2,0,0,1-.3,1.8,3.9,3.9,0,0,1-.6,1.5,2.8,2.8,0,0,1-1,.9,3.8,3.8,0,0,1-1.5.5Z" fill="#151213"/>
      <g>
        <g>
          <path d="M167.5,358.2V357h0v-.3c0-.4.1-.3,0-.3h.3s.1.1,0,.1h0a6.1,6.1,0,0,1,.1,1.4c.1.6,0,.4,0,.9h0a7.8,7.8,0,0,1-.1.9c-.1,0-.1,0-.1-.1a1.9,1.9,0,0,1-.1-.8h-.1v-.5Z" fill="#151213"/>
          <path d="M167.9,356.4h0s.3-.1.3,0h0s0-.2.3,1.5v.5h0c.1.1,0,1-.1.9l-.2-.3c0-.3-.1-.8-.1-.9S167.9,356.4,167.9,356.4Z" fill="#151213"/>
          <path d="M168.5,356.1h.1l.4,1.6v.2c.2.6.2.8.1,1h0c-.1,0-.2-.3-.3-.7h0c-.1,0,0,0-.1-.2s-.1-.1-.1-.5-.1-.6-.3-1.3h0C168.2,356.2,168.5,356.1,168.5,356.1Z" fill="#151213"/>
          <path d="M168.7,356.1h.4v.2a6.3,6.3,0,0,1,.4,1.3h.1v.5a2.3,2.3,0,0,1,.1.7h-.1a1.6,1.6,0,0,1-.3-.8,1,1,0,0,1-.1-.3h-.1l-.5-1.4h0Z" fill="#151213"/>
          <path d="M169.6,357.6Z" fill="#151213"/>
          <path d="M169.6,357.6Z" fill="#151213"/>
          <path d="M169.2,356h-.1c0-.1.3-.2.3-.1h0c0,.1,0,0,.1.1a13.3,13.3,0,0,0,.6,1.2c0,.1,0,.1.1.3h0v.2c.3.9-.2.5-.5-.2s-.1-.1-.1-.3C168.6,354.8,169.7,357.5,169.2,356Z" fill="#151213"/>
          <path d="M169.5,355.9h.2c.1,0,0-.1.6.8v.2l.3.5c.2.6-.2.2-.5-.4s-.1,0-.2-.2Z" fill="#151213"/>
          <path d="M169.8,355.6Z" fill="#151213"/>
          <path d="M169.8,355.6Z" fill="#151213"/>
          <path d="M169.9,355.8v-.2h0s.2-.2.2-.1h0s0-.1.1,0l.6.8c0,.2,0,.1.1.3h0l.3.5c0,.2-.6-.6-.6-.6s-.1-.1-.1-.2Z" fill="#151213"/>
          <path d="M170,355.4h.2c0-.1,0,0,.1,0h0l.8.9c.1.1.1.1.1.2s.4.7.1.4a.3.3,0,0,1-.1-.2H171l-.2-.2Z" fill="#151213"/>
          <path d="M170.4,355.3h-.1s.1-.2.2-.2h.1c1.1,1.1.5.5.8.9h0l.3.4c-.1.1-.4-.3-.5-.4H171Z" fill="#151213"/>
          <path d="M170.6,355h.2c.9.8,1,.8,1,.9h0C171.6,356,171.4,355.7,170.6,355Z" fill="#151213"/>
          <path d="M170.8,354.7h0c-.1,0,.1-.3.2-.2h0l.9.6h.1l.2.2H172c-.2,0-.1,0-.2-.1h0a4.9,4.9,0,0,1-1-.8Z" fill="#151213"/>
          <path d="M171.1,354.4H171v-.3h.3c.4.2.7.4.7.6s0,.2-.3.1S171.1,354.5,171.1,354.4Z" fill="#151213"/>
          <path d="M171.3,354h0c0-.1.1,0,.1,0h0l.8.3h.2c.1,0,0,0,0,.1s0,.1-.2.1,0-.1-.1-.1H172C171.3,354,171.3,354.1,171.3,354Z" fill="#151213"/>
          <path d="M171.5,353.7h-.1c0-.1,0-.2.1-.2h.7l.3.2v.2h-.3Z" fill="#151213"/>
          <path d="M171.6,353.3h.9c.1,0,.3.1.3.2s-.4,0-.5,0Z" fill="#151213"/>
          <path d="M171.7,353h-.1s0-.4.1-.3h.1c.1,0,.8.1.9.3s-.5.1-.7,0Z" fill="#151213"/>
          <path d="M171.7,352.6h-.1c0,.1,0-.2.1-.2h.7c.3,0,.3.3-.1.3Z" fill="#151213"/>
          <path d="M171.7,352.3h0c0-.2-.1-.1.3-.1h0c-.4,0-.3-.1-.3-.1Z" fill="#151213"/>
        </g>
        <g>
          <path d="M161.4,352.1h1.9v.3H160l.9-.2h.5Z" fill="#151213"/>
          <path d="M163.2,352.5h.1s.1.3,0,.3h-.1l-1.6.3a.1.1,0,0,0-.2,0h-.2c-.2,0-1,0-.9-.1l.3-.2h.9Z" fill="#151213"/>
          <path d="M163.4,353.1h0l-1.6.4h-.2a1.9,1.9,0,0,1-1,.1h-.1c0-.1.3-.3.7-.3h.3c.2-.1,0-.1.5-.1l1.3-.3h0C163.4,352.8,163.4,353.1,163.4,353.1Z" fill="#151213"/>
          <path d="M163.4,353.3c.1-.1.2.1.2.3h-.3l-1.3.4h-1.2l.7-.3c0-.1.3-.1.4-.2h.1l1.4-.4Z" fill="#151213"/>
          <path d="M162,354.1Z" fill="#151213"/>
          <path d="M162,354.1Z" fill="#151213"/>
          <path d="M163.6,353.7h0s.2.3.1.3h-.1a5.2,5.2,0,0,1-1.3.6h-.5c-1,.4-.5-.1.2-.4l.3-.2Z" fill="#151213"/>
          <path d="M163.7,354.1h.1a1,1,0,0,1,.1.3h-.1l-.8.5h-.2l-.5.2c-.6.2-.2-.2.4-.5h.1C163.7,354,163.6,354.1,163.7,354.1Z" fill="#151213"/>
          <path d="M164,354.4Z" fill="#151213"/>
          <path d="M164,354.4Z" fill="#151213"/>
          <path d="M163.7,354.5h.3s.2.1.1.2H164l-.9.5-.2.2h-.1l-.5.3c-.2,0,.6-.6.6-.6l.2-.2Z" fill="#151213"/>
          <path d="M164.2,354.6h0l-1,.8a.1.1,0,0,1-.1.1c-.4.3-.7.4-.5.1a.2.2,0,0,0,.2-.2h.2c0-.1,0-.1.2-.2Z" fill="#151213"/>
          <path d="M164.3,355h.2c.1.1,0,.1,0,.1h0c-1.1,1.1-.5.5-.9.8h-.1l-.3.3c-.2-.1.3-.4.3-.6h.1Z" fill="#151213"/>
          <path d="M164.5,355.2h.2a.3.3,0,0,1,.1.2h-.1c-.8.9-.8,1-1,1h-.1C163.6,356.2,163.8,356,164.5,355.2Z" fill="#151213"/>
          <path d="M164.9,355.4h0s.3.2.2.3h0s0-.1-.6.9h-.1l-.2.2h-.1l-.2-.2v-.2h.1l.7-1h.1Z" fill="#151213"/>
          <path d="M165.1,355.7h.4a.1.1,0,0,1-.1.1h0c-.2.4-.4.8-.6.8s-.2,0-.1-.3Z" fill="#151213"/>
          <path d="M165.5,355.9h.3a2.5,2.5,0,0,0-.3.8h-.2c0,.1,0,0-.2,0v-.2c0-.1.1-.1,0-.1h.1C165.6,355.8,165.5,355.9,165.5,355.9Z" fill="#151213"/>
          <path d="M165.9,356.1h0c0-.1,0-.1.1-.1s.2.1.2.2h-.1l-.2.6c-.1.3-.1.3-.1.2s-.2,0-.2-.1v-.2Z" fill="#151213"/>
          <path d="M166.2,356.2h.1c0-.1.1,0,.1,0h.1c-.1.3-.1.1-.2.5v.2h0c-.1.1-.1.3-.3.3s.1-.5.1-.6Z" fill="#151213"/>
          <path d="M166.6,356.3h.3a.1.1,0,0,1-.1.1h.1c-.1.2-.1.9-.3,1s-.1-.5-.1-.7Z" fill="#151213"/>
          <path d="M167,356.3h0c-.1,0,.2,0,.2.1h0v.6h0c0,.4-.4.3-.3,0A1.5,1.5,0,0,1,167,356.3Z" fill="#151213"/>
          <path d="M167.3,356.3c0-.1,0-.1.1-.1s.1,0,.1.3,0,.7-.1.7-.1-.4-.1-.6v-.3Z" fill="#151213"/>
        </g>
        <g>
          <path d="M167.5,346v1.1h0v.3c0,.4-.1.3,0,.4h-.3c0-.1-.1-.1,0-.1h0a5.3,5.3,0,0,1-.1-1.3c-.1-.6,0-.4,0-.9h0a7.8,7.8,0,0,1,.1-.9h.1a2.5,2.5,0,0,1,.1.8c0,.1.1,0,.1.1v.5Z" fill="#151213"/>
          <path d="M167.1,347.8h0s-.3.1-.3,0h0l-.3-1.6v-.4h0c-.1-.2,0-1,.1-1l.2.4c0,.2.1.8.1.9Z" fill="#151213"/>
          <path d="M166.5,348a.1.1,0,0,1-.1-.1l-.4-1.5v-.2c-.2-.7-.2-.8-.1-1.1h0c.1,0,.2.3.3.6h0c.1.1,0,.1.1.3s.1,0,.1.4a12,12,0,0,0,.3,1.4h0C166.8,348,166.5,348,166.5,348Z" fill="#151213"/>
          <path d="M166.3,348c0,.1-.2.1-.3.2h-.1v-.2a6.3,6.3,0,0,1-.4-1.3h-.1c0-.1-.1-.3-.1-.4h0a2.6,2.6,0,0,1-.1-.7h.1a1.7,1.7,0,0,1,.3.7v.3c0,.1,0,.1.1.2l.5,1.4Z" fill="#151213"/>
          <path d="M165.4,346.6Z" fill="#151213"/>
          <path d="M165.4,346.6Z" fill="#151213"/>
          <path d="M165.8,348.1h-.3a13.9,13.9,0,0,0-.6-1.3v-.2h0c0-.1,0-.1-.1-.2s.2-.5.5.2.1.1.1.3C166.4,349.3,165.3,346.7,165.8,348.1Z" fill="#151213"/>
          <path d="M165.5,348.3h-.2c-.1,0,0,.1-.6-.9v-.2l-.3-.4c-.2-.6.2-.2.5.4h.2C165.5,348.3,165.5,348.2,165.5,348.3Z" fill="#151213"/>
          <path d="M165.2,348.6h0Z" fill="#151213"/>
          <path d="M165.2,348.6Z" fill="#151213"/>
          <path d="M165.1,348.3v.2h-.3l-.6-.9v-.2h0a1.5,1.5,0,0,1-.3-.6c0-.1.6.7.6.7h.1Z" fill="#151213"/>
          <path d="M165,348.8h-.3l-.8-1h-.1c-.3-.4-.4-.7-.1-.5a.3.3,0,0,0,.1.2h.1v.2h0c.1,0,.1,0,.2.2Z" fill="#151213"/>
          <path d="M164.6,348.9h-.2l-.8-.8h0a.5.5,0,0,1-.3-.4c.1-.1.4.4.5.4h.2Z" fill="#151213"/>
          <path d="M164.4,349.1h-.2c-.9-.8-1-.8-1-1h0C163.4,348.2,163.6,348.4,164.4,349.1Z" fill="#151213"/>
          <path d="M164.2,349.4h0c.1,0-.1.3-.2.2h0l-.9-.6c-.1-.1-.1-.1-.1-.2h-.2a.2.2,0,0,1,.2-.2h.2l1,.8Z" fill="#151213"/>
          <path d="M163.9,349.7h.1v.2c0,.1-.1.1-.1,0h-.2c-.4-.3-.7-.4-.7-.6s0-.2.3-.1Z" fill="#151213"/>
          <path d="M163.7,350.1h.1v.2h-.2l-.8-.3h-.1c0-.1,0-.1-.1-.1s0-.1,0-.2h.4Z" fill="#151213"/>
          <path d="M163.5,350.5h.1s0,.2-.1.2h-.1l-.6-.2-.3-.2h.4S163.5,350.4,163.5,350.5Z" fill="#151213"/>
          <path d="M163.4,350.8h.1c0,.1,0,.1-.1.1h0c0-.1,0,0-.1,0l-.5-.2h-.3l-.3-.2c0-.1.4,0,.5,0Z" fill="#151213"/>
          <path d="M163.3,351.2h.1s0,.3-.1.2h-.1c-.1,0-.8,0-.9-.2s.5-.1.7-.1Z" fill="#151213"/>
          <path d="M163.3,351.5h.1s0,.3-.1.3h-.7c-.3,0-.3-.3.1-.2Z" fill="#151213"/>
          <path d="M163.3,351.9h0c0,.1.1.1-.3.1s-.6,0-.6-.1h.9Z" fill="#151213"/>
        </g>
        <g>
          <path d="M173.6,352.1h-1.4c-.5,0-.4-.1-.4,0h-.1v-.3a.1.1,0,0,1,.1-.1h2.3c.3-.1.9,0,.9.1h-1.4Z" fill="#151213"/>
          <path d="M171.8,351.7h-.1s-.1-.4,0-.4h.1l1.6-.3h.4c.2-.1,1-.1.9.1h-.3l-.9.2Z" fill="#151213"/>
          <path d="M171.6,351h0c.1.1-.3.1,1.6-.3.1-.1,0,0,.2,0l1-.2a.1.1,0,0,1,.1.1l-.7.3H173l-1.3.3h0C171.6,351.4,171.6,351.1,171.6,351Z" fill="#151213"/>
          <path d="M171.6,350.9c-.1,0-.2-.2-.2-.3a.1.1,0,0,1,.1-.1h.2l1.3-.5h.5a1,1,0,0,1,.7-.1h0l-.7.4H173l-1.4.4Z" fill="#151213"/>
          <path d="M173,350Z" fill="#151213"/>
          <path d="M173,350Z" fill="#151213"/>
          <path d="M171.4,350.4s.1.1,0,.1h0s-.2-.3-.1-.3h.1l1.3-.6h.5c1-.3.5.1-.2.5h-.3C170.2,351,172.9,349.9,171.4,350.4Z" fill="#151213"/>
          <path d="M171.3,350.1h-.1a.3.3,0,0,1-.1-.2h.1l.8-.5c.2,0,.1,0,.2-.1l.5-.2c.6-.2.2.2-.4.5a.1.1,0,0,1-.1.1Z" fill="#151213"/>
          <path d="M171,349.8Z" fill="#151213"/>
          <path d="M171,349.8Z" fill="#151213"/>
          <path d="M171.3,349.7H171s-.2-.2-.1-.2h.1l.9-.6h.3c.3-.3.5-.3.5-.3s-.6.6-.6.6h-.2C171.9,349.3,171.7,349.4,171.3,349.7Z" fill="#151213"/>
          <path d="M170.8,349.5a.1.1,0,0,1-.1-.1h.1a4.3,4.3,0,0,1,1-.9h.1c.4-.3.7-.5.5-.2l-.2.2h-.1c0,.1-.1.1-.1.2h0l-.2.2Z" fill="#151213"/>
          <path d="M170.7,349.2h-.1v-.2h0c1.1-1.1.5-.5.9-.8h.1c.1-.2.3-.4.3-.3s-.3.4-.3.5-.1.1-.1.2Z" fill="#151213"/>
          <path d="M170.5,348.9c-.1.1-.1,0-.1,0h-.1v-.2h.1c.8-.9.8-1,1-1h.1C171.4,348,171.2,348.2,170.5,348.9Z" fill="#151213"/>
          <path d="M170.1,348.8h0s-.3-.1-.2-.2h0c0-.1,0,0,.6-.9v-.2h.5c-.1.3-.1.2-.1.3h-.1l-.7.9s-.1.1,0,.1Z" fill="#151213"/>
          <path d="M169.9,348.4a.1.1,0,0,0-.1.1h0l-.3-.2h.1v-.2a1.8,1.8,0,0,1,.6-.8s.2.1.1.4Z" fill="#151213"/>
          <path d="M169.5,348.3h-.3a7.2,7.2,0,0,0,.3-.8h.4c0,.1-.1.1,0,.1h-.1C169.4,348.3,169.5,348.2,169.5,348.3Z" fill="#151213"/>
          <path d="M169.1,348.1h-.2a4.2,4.2,0,0,1,.2-.6v-.3h.2v.2A4.9,4.9,0,0,1,169.1,348.1Z" fill="#151213"/>
          <path d="M168.8,348h-.2a.1.1,0,0,1-.1-.1h0l.2-.6h0c.1-.1.1-.4.3-.3s-.1.4-.1.5S168.8,347.9,168.8,348Z" fill="#151213"/>
          <path d="M168.4,347.9h0s-.3,0-.3-.1h0c.1-.1.1-.8.3-.9s.1.5.1.7A.5.5,0,0,0,168.4,347.9Z" fill="#151213"/>
          <path d="M168,347.8c0,.1.1.1,0,.1h0c.1.1-.2.1-.2,0h0v-.5h0c0-.3.4-.3.3.1S168,347.8,168,347.8Z" fill="#151213"/>
          <path d="M167.7,347.9h-.1c-.1,0-.1.1-.1-.3s0-.7.1-.6.1.4.1.5v.4Z" fill="#151213"/>
        </g>
      </g>
      <g>
        <g>
          <path d="M167.5,406.9v-1.2h0v-.3c0-.5.1-.4,0-.4h.3s.1.1,0,.1h0a6.6,6.6,0,0,1,.1,1.4c.1.6,0,.4,0,.9h0a7.8,7.8,0,0,1-.1.9h-.1a2.8,2.8,0,0,1-.1-.9h-.1v-.5Z" fill="#151213"/>
          <path d="M167.9,405.1h0s.3-.1.3,0h0s0-.1.3,1.6v.4h0c.1.2,0,1-.1.9l-.2-.3c0-.2-.1-.8-.1-.9S167.9,405.1,167.9,405.1Z" fill="#151213"/>
          <path d="M168.5,404.9h.1c0,.1-.1-.3.4,1.6v.2c.2.7.2.8.1,1.1h0c-.1,0-.2-.3-.3-.7h0c-.1,0,0,0-.1-.2s-.1,0-.1-.5-.1-.6-.3-1.3h0C168.2,404.9,168.5,404.9,168.5,404.9Z" fill="#151213"/>
          <path d="M168.7,404.9l.3-.2h.1v.2a6.3,6.3,0,0,1,.4,1.3h.1v.4h0a2.6,2.6,0,0,1,.1.7h-.1a1.7,1.7,0,0,1-.3-.7,2.3,2.3,0,0,1-.1-.4h-.1l-.5-1.4Z" fill="#151213"/>
          <path d="M169.6,406.3Z" fill="#151213"/>
          <path d="M169.6,406.3Z" fill="#151213"/>
          <path d="M169.2,404.7s-.1.1-.1,0h0s.3-.2.3-.1h.1a13.9,13.9,0,0,0,.6,1.3.3.3,0,0,0,.1.2h0v.2c.3,1-.2.5-.5-.2s-.1-.1-.1-.3C168.6,403.5,169.7,406.2,169.2,404.7Z" fill="#151213"/>
          <path d="M169.5,404.6h.2c.1,0,0-.1.6.8v.3l.3.4c.2.6-.2.2-.5-.4h-.2Z" fill="#151213"/>
          <path d="M169.8,404.3Z" fill="#151213"/>
          <path d="M169.8,404.3Z" fill="#151213"/>
          <path d="M169.9,404.6c-.1-.2,0-.1-.1-.2h.3l.6.9c0,.1,0,0,.1.2h0l.3.5c0,.2-.6-.6-.6-.6s-.1-.1-.1-.2S170.2,405,169.9,404.6Z" fill="#151213"/>
          <path d="M170,404.1h.3a8.7,8.7,0,0,1,.8,1h.1c.3.4.4.7.1.5v-.2H171l-.2-.2Z" fill="#151213"/>
          <path d="M170.4,404h.2c1.1,1.1.5.5.8.9h0a.7.7,0,0,1,.3.3c-.1.2-.4-.3-.5-.3H171Z" fill="#151213"/>
          <path d="M170.6,403.8h.1a.1.1,0,0,0,.1.1h0c.9.8,1,.8,1,1h0C171.6,404.7,171.4,404.5,170.6,403.8Z" fill="#151213"/>
          <path d="M170.8,403.4h0c-.1,0,.1-.3.2-.2h0l.9.6h.1l.2.2h0a.2.2,0,0,1-.2.2h-.2l-1-.7h0Z" fill="#151213"/>
          <path d="M171.1,403.2H171c0-.1.1-.2.1-.3h.3c.4.2.7.4.7.6s0,.2-.3.1Z" fill="#151213"/>
          <path d="M171.3,402.8h.1l.8.3h.2c.1,0,0,0,0,.2H172C171.3,402.7,171.3,402.8,171.3,402.8Z" fill="#151213"/>
          <path d="M171.5,402.4h-.1c0-.1,0-.2.1-.2h.1l.6.2h.3v.2h-.3S171.5,402.5,171.5,402.4Z" fill="#151213"/>
          <path d="M171.6,402.1h.1l.5.2h.3c.1.1.3.1.3.3h-1.2Z" fill="#151213"/>
          <path d="M171.7,401.7h-.1s0-.3.1-.3h0c0-.1,0-.1.1-.1s.8.1.9.3-.5.1-.7.1Z" fill="#151213"/>
          <path d="M171.7,401.3h-.1c0,.1,0-.2.1-.2h.7c.3,0,.3.4-.1.3Z" fill="#151213"/>
          <path d="M171.7,401h0c0-.1-.1-.1.3-.1h-.3Z" fill="#151213"/>
        </g>
        <g>
          <path d="M161.4,400.8h1.9v.3h-1.5c-.6.1-.4,0-.9,0h.5Z" fill="#151213"/>
          <path d="M163.2,401.2h.1s.1.3,0,.3h-.1l-1.6.3h-.4c-.2.1-1,0-.9-.1l.3-.2h.9Z" fill="#151213"/>
          <path d="M163.4,401.8h0l-1.6.4h-.2c-.6.2-.8.2-1,.1h-.1l.7-.3h.1c0-.1,0,0,.2-.1s0-.1.5-.1l1.3-.3h0C163.4,401.5,163.4,401.8,163.4,401.8Z" fill="#151213"/>
          <path d="M163.4,402c.1,0,.2.2.2.3h-.3l-1.3.5h-1.2l.7-.3h.5l1.4-.5Z" fill="#151213"/>
          <path d="M162,402.9Z" fill="#151213"/>
          <path d="M162,402.9Z" fill="#151213"/>
          <path d="M163.6,402.5s-.1-.1,0-.1h0s.2.3.1.3h0c-.1,0-.1,0-.1.1l-1.3.6h-.5c-1,.3-.5-.2.2-.5h.3C164.8,401.9,162.1,403,163.6,402.5Z" fill="#151213"/>
          <path d="M163.7,402.8h.1a.3.3,0,0,1,.1.2h0c-.1,0-.1,0-.1.1l-.8.5h-.2l-.5.3c-.6.2-.2-.2.4-.5h.1Z" fill="#151213"/>
          <path d="M164,403.1Z" fill="#151213"/>
          <path d="M164,403.1Z" fill="#151213"/>
          <path d="M163.7,403.2h.3s.2.2.1.2H164l-.9.6h-.3l-.5.3c-.2,0,.6-.6.6-.6h.2Z" fill="#151213"/>
          <path d="M164.2,403.3c0,.1.1.1.1.2h-.1l-1,.8a.1.1,0,0,1-.1.1c-.4.3-.7.4-.5.1h.4c0-.1,0-.1.2-.2Z" fill="#151213"/>
          <path d="M164.3,403.7h.1a.3.3,0,0,1,.1.2h0c-1.1,1.1-.5.5-.9.8h-.1a.7.7,0,0,1-.3.3c-.2-.1.3-.4.3-.5v-.2Z" fill="#151213"/>
          <path d="M164.5,403.9h.3a.1.1,0,0,0-.1.1h0c-.8.9-.8,1-1,1h-.1C163.6,404.9,163.8,404.7,164.5,403.9Z" fill="#151213"/>
          <path d="M164.9,404.1h0c0-.1.3.1.2.2h0l-.6.9h-.4a.2.2,0,0,1-.2-.2v-.2h.1l.7-1h.1Z" fill="#151213"/>
          <path d="M165.1,404.4h.4a.1.1,0,0,1-.1.1v.2c-.2.4-.4.7-.6.7s-.2,0-.1-.3Z" fill="#151213"/>
          <path d="M165.5,404.6h.1c0-.1,0-.1.1-.1h.1a7.2,7.2,0,0,0-.3.8h-.2c0,.1,0,0-.2,0v-.2c0-.1.1,0,0-.1h.1C165.6,404.6,165.5,404.6,165.5,404.6Z" fill="#151213"/>
          <path d="M165.9,404.8h.1c.1,0,.2,0,.2.1h-.1l-.2.6v.3h-.2v-.3Z" fill="#151213"/>
          <path d="M166.2,404.9h.3c-.1.3-.1.1-.2.5v.2h0c-.1.1-.1.3-.3.3s.1-.4.1-.5S166.2,404.9,166.2,404.9Z" fill="#151213"/>
          <path d="M166.6,405h0s.3,0,.3.1h-.1c.1,0,.1,0,.1.1s-.1.8-.3.9-.1-.5-.1-.7A.5.5,0,0,0,166.6,405Z" fill="#151213"/>
          <path d="M167,405h0c-.1,0,.2,0,.2.1h0v.5h0c0,.3-.4.3-.3-.1A2.2,2.2,0,0,1,167,405Z" fill="#151213"/>
          <path d="M167.3,405h.1c.1,0,.1-.1.1.3s0,.6-.1.6-.1-.4-.1-.6V405Z" fill="#151213"/>
        </g>
        <g>
          <path d="M167.5,394.7v1.2h0v.3c0,.5-.1.4,0,.4h-.3s-.1-.1,0-.1h0a6.6,6.6,0,0,1-.1-1.4c-.1-.6,0-.4,0-.9h0a7.8,7.8,0,0,1,.1-.9h.1a2.8,2.8,0,0,1,.1.9h.1v.5Z" fill="#151213"/>
          <path d="M167.1,396.5h-.3s0,.1-.3-1.6v-.4h0c-.1-.2,0-1,.1-.9l.2.3c0,.3.1.8.1.9Z" fill="#151213"/>
          <path d="M166.5,396.7h-.1l-.4-1.6v-.2c-.2-.6-.2-.8-.1-1h0c.1,0,.2.3.3.7h0c.1,0,0,0,.1.2s.1.1.1.5.1.6.3,1.3h0C166.8,396.7,166.5,396.7,166.5,396.7Z" fill="#151213"/>
          <path d="M166.3,396.7c0,.1-.2.2-.3.2h-.1v-.2a6.3,6.3,0,0,1-.4-1.3h-.1c0-.1-.1-.3-.1-.4h0a2.6,2.6,0,0,1-.1-.7h.1a1.7,1.7,0,0,1,.3.7v.4h.1l.5,1.4Z" fill="#151213"/>
          <path d="M165.4,395.3Z" fill="#151213"/>
          <path d="M165.4,395.3Z" fill="#151213"/>
          <path d="M165.8,396.9h.1s-.3.2-.3.1h0c0-.1,0-.1-.1-.1a13.9,13.9,0,0,0-.6-1.3.3.3,0,0,0-.1-.2h0c0-.1,0,0-.1-.2s.2-.5.5.2.1.1.1.3C166.4,398.1,165.3,395.4,165.8,396.9Z" fill="#151213"/>
          <path d="M165.5,397h-.2c-.1,0,0,.1-.6-.8v-.2l-.3-.5c-.2-.6.2-.2.5.4h.2C165.5,397,165.5,396.9,165.5,397Z" fill="#151213"/>
          <path d="M165.2,397.3Z" fill="#151213"/>
          <path d="M165.2,397.3Z" fill="#151213"/>
          <path d="M165.1,397c.1.3,0,.1.1.2h0s-.2.2-.2.1h-.1l-.6-.9v-.2h0l-.3-.5c0-.2.6.6.6.6v.2Z" fill="#151213"/>
          <path d="M165,397.5h-.3a8.7,8.7,0,0,1-.8-1,.1.1,0,0,1-.1-.1c-.3-.4-.4-.7-.1-.4h.3l.2.2Z" fill="#151213"/>
          <path d="M164.6,397.6h.1l-.2.2h-.1c-1.1-1.1-.5-.5-.8-.9h0l-.3-.3c.1-.2.4.3.5.3h.2Z" fill="#151213"/>
          <path d="M164.4,397.8h-.1a.1.1,0,0,0-.1-.1h0c-.9-.8-1-.8-1-1h0C163.4,396.9,163.6,397.1,164.4,397.8Z" fill="#151213"/>
          <path d="M164.2,398.2h0c.1,0-.1.3-.2.2h0l-.9-.6H163l-.2-.2h0c0-.1.1-.2.2-.1h.2l1,.7h0Z" fill="#151213"/>
          <path d="M163.9,398.4h.1c0,.1-.1.2-.1.3a.1.1,0,0,1-.1-.1h-.2c-.4-.2-.7-.4-.7-.6s0-.2.3-.1Z" fill="#151213"/>
          <path d="M163.7,398.8h-.1l-.8-.3h-.2c-.1,0,0,0,0-.2h.2c.1.1,0,.1.1,0h.1Z" fill="#151213"/>
          <path d="M163.5,399.2h.1c0,.1,0,.2-.1.2h-.1l-.6-.2h-.3v-.2h.3Z" fill="#151213"/>
          <path d="M163.4,399.5h.1c0,.1,0,.1-.1.1h-.9c-.1-.1-.3-.1-.3-.3s.4.1.5.1Z" fill="#151213"/>
          <path d="M163.3,399.9h.1s0,.3-.1.3h-.1c-.1-.1-.8-.1-.9-.3s.5-.1.7-.1Z" fill="#151213"/>
          <path d="M163.3,400.3h.1c0-.1,0,.2-.1.2h-.7c-.3,0-.3-.4.1-.3Z" fill="#151213"/>
          <path d="M163.3,400.6h0c0,.1.1.1-.3.1s-.6,0-.6-.1h.9Z" fill="#151213"/>
        </g>
        <g>
          <path d="M173.6,400.8h-1.4c-.5,0-.4-.1-.4,0h-.1v-.3s.1-.1.1,0h1.8Z" fill="#151213"/>
          <path d="M171.8,400.4h-.1s-.1-.3,0-.3h.1l1.6-.3h.4c.2-.1,1,0,.9.1l-.3.2h-.9Z" fill="#151213"/>
          <path d="M171.6,399.8h0l1.6-.4h.2c.6-.2.8-.2,1-.1h.1c0,.1-.3.2-.7.3h-.1c0,.1,0,0-.2.1H173l-1.3.3h0C171.6,400.1,171.6,399.8,171.6,399.8Z" fill="#151213"/>
          <path d="M171.6,399.6c-.1,0-.2-.2-.2-.3h.1c0,.1,0,0,.2,0l1.3-.4h0c.1.1.3-.1.4-.1h.8l-.7.3c0,.1-.3.1-.4.1H173l-1.4.5Z" fill="#151213"/>
          <path d="M173,398.7Z" fill="#151213"/>
          <path d="M173,398.7Z" fill="#151213"/>
          <path d="M171.4,399.1c0,.1.1.1,0,.1h0s-.2-.3-.1-.3h.1l1.3-.6h.5c1-.3.5.2-.2.5h-.3C170.2,399.7,172.9,398.6,171.4,399.1Z" fill="#151213"/>
          <path d="M171.3,398.8h-.1v-.2h.1c0-.1-.1,0,.8-.6h.2l.5-.3c.6-.2.2.2-.4.5s0,.1-.1.2Z" fill="#151213"/>
          <path d="M171,398.5Z" fill="#151213"/>
          <path d="M171,398.5Z" fill="#151213"/>
          <path d="M171.3,398.4H171s-.2-.2-.1-.2h.1l.9-.6h.3l.5-.3c.2,0-.6.6-.6.6h-.2C171.9,398,171.7,398.1,171.3,398.4Z" fill="#151213"/>
          <path d="M170.8,398.3c0-.1-.1-.1-.1-.2h.1l1-.8h.1c.4-.3.7-.4.5-.1H172l-.2.2Z" fill="#151213"/>
          <path d="M170.7,397.9a.1.1,0,0,0-.1.1h0v-.2h0c1.1-1.1.5-.5.9-.8h.1a.7.7,0,0,1,.3-.3c.2.1-.3.4-.3.5s-.1.1-.1.2Z" fill="#151213"/>
          <path d="M170.5,397.7h-.1c0,.1-.1,0-.1,0h-.1c.1,0,.1,0,.1-.1h0c.8-.9.8-1,1-1h.1C171.4,396.7,171.2,396.9,170.5,397.7Z" fill="#151213"/>
          <path d="M170.1,397.5h0c0,.1-.3-.1-.2-.2h0l.6-.9h.1l.2-.2h.1a.2.2,0,0,1,.2.2c-.1.2-.1.1-.1.2h-.1l-.7,1h-.1Z" fill="#151213"/>
          <path d="M169.9,397.2h-.3v-.2c.2-.4.4-.7.6-.7s.2,0,.1.3Z" fill="#151213"/>
          <path d="M169.5,397h-.3a7.2,7.2,0,0,0,.3-.8h.4v.2c0,.1-.1,0,0,.1h-.1C169.4,397,169.5,397,169.5,397Z" fill="#151213"/>
          <path d="M169.1,396.8h-.2l.2-.6v-.3h.2v.3Z" fill="#151213"/>
          <path d="M168.8,396.7h-.2c-.1,0-.1,0-.1-.1h0c.1-.3.1-.1.2-.5v-.2h0c.1-.1.1-.3.3-.3s-.1.4-.1.5S168.8,396.7,168.8,396.7Z" fill="#151213"/>
          <path d="M168.4,396.6h-.2c-.1,0-.1,0-.1-.1s.1-.8.3-.9.1.5.1.7A.5.5,0,0,0,168.4,396.6Z" fill="#151213"/>
          <path d="M168,396.6h-.2V396h0c0-.3.4-.3.3.1A2.2,2.2,0,0,1,168,396.6Z" fill="#151213"/>
          <path d="M167.7,396.6h-.1c-.1,0-.1.1-.1-.2s0-.7.1-.7.1.4.1.6v.3Z" fill="#151213"/>
        </g>
      </g>
      <g>
        <g>
          <path d="M46.2,131.7H43.1c-.2,0-.3-.2-.5-.6h-.1c-.1.5-.3.6-.5.6h-.1c-.3,0-.5-.1-.7-1.4a24.1,24.1,0,0,1,0-6,3,3,0,0,1,.2-1c.1-.3.2-.5.4-.5h.3c.1,0,.3.1.4.5s.1.2.1,0,.3-.5.5-.5h6.2c.2,0,.3.1.4.4s.7.9,1.1.9h1.1q.1,0,.3.3c0,.2.1.1.1.1a5,5,0,0,1,2.4,1,5.1,5.1,0,0,1,1.2,1.3c0,.1.1.1.1.2a.9.9,0,0,1,0,.7l-.4.6a4.8,4.8,0,0,1-2.7,1.8h-.7c-.1.4-.2.3-.4.3H50.4l-.4.4c-.3.7-.6.9-1.1.9Zm-4-3.5c0,.4-.1.6-.2.6v.5c.2.1.2.5.2.9s-.1-.2-.1-.2.1.5.3.6a9.3,9.3,0,0,1-.3-2.4,24.8,24.8,0,0,1,.2-3.8l-.3.3v.2h.1c0,.2,0,.2-.1.2s-.1.3-.2.7v1.6c0,.3,0,.6.1.6S42.1,128.2,42.2,128.2Zm7.6-1v-.5c0-.2,0-.3-.1-.3l-.6-.9c-.1,0-.1,0-.1.3a17.1,17.1,0,0,0,0,3.2c0,.2,0,.3.1.3h.5c.1-.2.2-.1.2.4v.4c.1.2,0,.3,0,.4l-.3.5c-.3.3-.5.3-.6-.5a22,22,0,0,1-.2-4.5c0-.3,0-.5-.1-.5H42.6c-.2,0-.2,0-.3.5v2.7c.1.6.1.6.3.6h6.1s.1,0,.1.2.1.9.2,1.3,0,.3-.1.3H42.8c.1.2.2.2.3.2,1.9,0,3.9-.1,5.9,0,.4,0,.7-.2,1-.9s.2-.3.4-.3h1.3a25.3,25.3,0,0,1-.1-4.8c0,.5-.1.5-.3.5H50.1s-.1,0-.2.2a5.6,5.6,0,0,1,1.3,0h.2a1,1,0,0,1,.1.3.4.4,0,0,0-.1.3H50.2C50,126.5,49.8,126.3,49.8,127.2Zm5.2,1a.1.1,0,0,1-.1.1,3.7,3.7,0,0,1-2.4,1.1h-.7c0,.2.1.2.1.2H52a4.3,4.3,0,0,0,2.7-1,4.3,4.3,0,0,0,1.1-1.2.3.3,0,0,0,.1-.2h-.1l-.3-.3a3.8,3.8,0,0,0-3.6-1.2h-.1a.3.3,0,0,0-.1.2H52a4.4,4.4,0,0,1,2.7.5,1,1,0,0,1,.5.4l-1.3-.5a5,5,0,0,0-2.1.1c-.1,0-.1.1-.1.3V128c0,.3,0,.5.2.5h1.5l1.5-.3Zm-9.3-3.6h-3c-.1,0-.2-.1-.2.1s.1.1.2.1h6.2c0-.1,0-.1-.1-.1H45.7ZM42,130.1a16.1,16.1,0,0,1-.1-4.9,5.7,5.7,0,0,1,.3-1.5v-.2c0-.2,0-.2-.1-.3s-.2,0-.2.2a1.4,1.4,0,0,0-.2.7,24.2,24.2,0,0,0-.2,3.9v-.2c.1,0,0,.1.1.2v0c0,.3.1.7.1,1.1v-.2c.1.2,0,.3,0,.4a3.4,3.4,0,0,0,.2,1.4c0-.3-.1-.4-.1-.7v.1Zm-.6-.5c.1,0,.1-.1.1-.5a20.4,20.4,0,0,1,0-3.5c0-.2,0-.4-.1-.4s-.2-.2-.2.3-.1,1.5-.1,2.3.1.5.2.4.1.1.1.4,0,.3-.1.4-.1.1-.1.3S41.3,129.6,41.4,129.6ZM54.9,126a3.5,3.5,0,0,0-3-1.1A4.7,4.7,0,0,1,54.9,126Zm-5.8-1.3h0l.6.8h.1v-.2c-.2-.2-.3-.4-.5-.5Z" fill="#151213"/>
          <path d="M48.7,128.1a.8.8,0,0,1-.5.5H42.7l-.2-.2c-.1,0-.1-.2-.1-.4s.1-.3.1-.4H48A.9.9,0,0,1,48.7,128.1Z" fill="#151213"/>
          <path d="M49.8,128c.1.5.2.5.3.5h1.2c.1,0,.2.1.2.4a1.3,1.3,0,0,0,.1.6c0,.3,0,.4-.1.4H50.2c-.1.2-.2.1-.2-.2A8.8,8.8,0,0,1,49.8,128Z" fill="#151213"/>
          <path d="M50.9,127.4c.1,0,.2-.1.3,0s.2.1.2.3-.1.3-.2.3h-1c-.1,0-.1,0-.1-.2s0-.1.1-.2Z" fill="#151213"/>
          <path d="M49.2,128.3c0-.1-.1,0-.1-.2v-.2l.3-.2h.1v.2Z" fill="#151213"/>
        </g>
        <g>
          <path d="M46.2,165.4H43.1c-.2,0-.3-.2-.5-.6s-.1-.1-.1,0-.3.6-.5.6h-.1c-.3,0-.5-.1-.7-1.4a24.1,24.1,0,0,1,0-6,3,3,0,0,1,.2-1c.1-.3.2-.5.4-.5h.3c.1,0,.3.1.4.5s.1.2.1,0,.3-.5.5-.5h6.2c.2,0,.3.1.4.3s.7,1,1.1.9h1.1l.3.3c0,.2.1.1.1.1a5.9,5.9,0,0,1,2.4.9,8.7,8.7,0,0,1,1.2,1.4v.2a.9.9,0,0,1,0,.7l-.4.6a4.8,4.8,0,0,1-2.7,1.8h-.6a.1.1,0,0,0-.1.1c-.1.4-.2.3-.4.3H50.4l-.4.3c-.3.8-.6,1-1.1,1Zm-4-3.5c0,.4-.1.5-.2.6v.5c.2.1.2.5.2.9s-.1-.2-.1-.2.1.5.3.6a9.9,9.9,0,0,1-.3-2.4,24.2,24.2,0,0,1,.2-3.8c-.1.1-.2.1-.3.3v.2h.1c0,.2,0,.2-.1.2s-.1.3-.2.6v1.7c0,.3,0,.6.1.5S42.1,161.8,42.2,161.9Zm7.6-1v-.5c0-.2,0-.3-.1-.3l-.6-.9c-.1,0-.1,0-.1.3a17.1,17.1,0,0,0,0,3.2c0,.2,0,.3.1.3h.5c.1-.2.2-.1.2.4v.4c.1.2,0,.3,0,.4l-.3.5c-.3.3-.5.3-.6-.5a22,22,0,0,1-.2-4.5c0-.4,0-.5-.1-.5H42.6c-.2,0-.2.1-.3.6v2.7c.1.6.1.6.3.6h6.1s.1,0,.1.2.1.9.2,1.2,0,.4-.1.3H43c-.1,0-.1-.1-.2,0s.2.1.3.1H49c.4,0,.7-.2,1-.9s.2-.3.4-.3h1.2a.1.1,0,0,0,.1-.1,25.5,25.5,0,0,1-.1-4.8c0,.5-.1.5-.3.5H50.1s-.1-.1-.2.1h1.5v.5H50.2C50,160.2,49.8,160,49.8,160.9Zm5.2.9c0,.2-.1.2-.1.2a4.3,4.3,0,0,1-2.4,1.1h-.7a.3.3,0,0,0,.1.2H52a4.3,4.3,0,0,0,2.7-1,4.3,4.3,0,0,0,1.1-1.2v-.4l-.3-.2a4.1,4.1,0,0,0-3.6-1.3h-.1v.2H52a4.4,4.4,0,0,1,2.7.5,1,1,0,0,1,.5.4l-1.3-.5a5,5,0,0,0-2.1.1c-.1,0-.1.1-.1.3v1.3c0,.3,0,.5.2.5h1.5l1.5-.3Zm-9.3-3.5h-3c-.1,0-.2-.1-.2.1s.1.1.2.1h3ZM42,163.8a16.7,16.7,0,0,1-.1-5,5.8,5.8,0,0,1,.3-1.4c.1-.1.1-.1.1-.2s0-.3-.1-.3-.2,0-.2.2a1.4,1.4,0,0,0-.2.7,24.2,24.2,0,0,0-.2,3.9v-.2c.1,0,0,.1.1.2v0c0,.3.1.7.1,1.1v-.2c.1.2,0,.3,0,.4a3.4,3.4,0,0,0,.2,1.4c0-.3-.1-.5-.1-.7v.1Zm-.6-.6c.1.1.1-.1.1-.4a20.4,20.4,0,0,1,0-3.5c0-.2,0-.4-.1-.4s-.2-.2-.2.3-.1,1.5-.1,2.3.1.4.2.4.1.1.1.4,0,.3-.1.3-.1.2-.1.4S41.3,163.3,41.4,163.2Zm13.5-3.6a3.7,3.7,0,0,0-3-1A4.5,4.5,0,0,1,54.9,159.6Zm-5.8-1.2h0l.6.8h.1v-.2l-.5-.6Z" fill="#151213"/>
          <path d="M48.7,161.8a.8.8,0,0,1-.5.5H42.5c-.1-.1-.1-.2-.1-.4s.1-.3.1-.4H48A.9.9,0,0,1,48.7,161.8Z" fill="#151213"/>
          <path d="M49.8,161.7c.1.5.2.5.3.5h1.2c.1,0,.2.1.2.4a1.3,1.3,0,0,0,.1.6c0,.3,0,.4-.1.4H50.2c-.1.2-.2.1-.2-.2A8.8,8.8,0,0,1,49.8,161.7Z" fill="#151213"/>
          <path d="M50.9,161.1h.3c.1.1.2.1.2.3s-.1.3-.2.3-.5,0-.7,0h-.3c-.1,0-.1,0-.1-.2s0-.1.1-.2A.8.8,0,0,1,50.9,161.1Z" fill="#151213"/>
          <path d="M49.2,162c0-.1-.1,0-.1-.2s0-.2.1-.2l.3-.2h.1v.2Z" fill="#151213"/>
        </g>
      </g>
      <g>
        <g>
          <path d="M43.6,211.7H40.4c-.2,0-.4-.1-.5-.6h-.2c-.1.5-.3.6-.5.6h-.1c-.3.1-.5-.1-.7-1.5a22.2,22.2,0,0,1,0-6.3,3,3,0,0,1,.2-1c.1-.4.2-.6.4-.5h.3c.1,0,.3.1.4.5s.1.2.2,0,.3-.5.5-.5h6.5c.2,0,.3.1.4.3s.7,1.1,1.1,1h1.2c.1,0,.2,0,.3.2s.1.2.2.2a4,4,0,0,1,2.4.9,8.9,8.9,0,0,1,1.3,1.4v.3a.5.5,0,0,1,0,.7l-.4.7a5,5,0,0,1-2.8,1.8h-.8c-.1.3-.2.3-.4.3H48.1c-.2,0-.3,0-.4.3s-.8,1-1.2,1Zm-4.2-3.6a.8.8,0,0,1-.2.6v.2a.4.4,0,0,0,.1.3c.2.1.2.5.2.9h-.1c.1.4.1.5.3.5a9.3,9.3,0,0,1-.3-2.4,26.1,26.1,0,0,1,.2-4q-.1,0-.3.3v.2h.1v.2c-.2.1-.2.3-.3.7v1.7c0,.4,0,.7.1.6Zm8-1.1v-.6a.4.4,0,0,0-.1-.3l-.7-.9s-.1,0-.1.3a19.3,19.3,0,0,0,0,3.4c.1.2.1.3.2.3h.5c.1-.2.2-.1.2.4v.4c.1.2,0,.3,0,.4s-.2.5-.4.6-.4.3-.5-.5a19.1,19.1,0,0,1-.2-4.8c0-.3,0-.5-.2-.5H39.8c-.2,0-.2,0-.3.6a27.2,27.2,0,0,0,.1,2.8c0,.6,0,.6.2.6h6.4l.2.2c0,.5.1.9.1,1.3s.1.3,0,.3H40.1c.1.2.2.1.2.1h6.2c.4,0,.8-.2,1.1-1a.5.5,0,0,1,.4-.3h1.4a21.8,21.8,0,0,1-.1-5.1c0,.5-.1.5-.3.5H47.7s-.1,0-.1.2h1.5v.6H47.8C47.6,206.2,47.4,206,47.4,207Zm5.5,1h-.1a4.4,4.4,0,0,1-2.6,1.2h-.7c0,.2.1.2.1.2h.1a4.8,4.8,0,0,0,2.9-1,6.9,6.9,0,0,0,1.1-1.3v-.4l-.3-.3a4.1,4.1,0,0,0-3.8-1.2h-.1c-.1,0-.1.1-.1.2h.3a5.4,5.4,0,0,1,2.8.5,1.3,1.3,0,0,1,.6.5,4.2,4.2,0,0,0-1.4-.6,5.3,5.3,0,0,0-2.2.2c-.1,0-.1.1-.1.3v1.3c0,.4,0,.5.2.5h1.6l1.6-.3Zm-9.8-3.7H39.9c-.1,0-.2-.1-.2.1s.1.1.2.1h6.6c0-.2-.1-.1-.1-.1H43.1ZM39.2,210a18.1,18.1,0,0,1-.1-5.2,5.4,5.4,0,0,1,.4-1.5c0-.1.1-.1.1-.2s-.1-.3-.2-.3-.2,0-.2.2a1.4,1.4,0,0,0-.2.7,18.5,18.5,0,0,0-.2,4.1v0a1.1,1.1,0,0,1,.1.6v-.6c0,.4.1.7.1,1.2v-.3c0,.3-.1.4,0,.5a3.2,3.2,0,0,0,.2,1.4c0-.2-.1-.4-.1-.7v.1Zm-.6-.5c.1,0,.1-.1.1-.5a22.9,22.9,0,0,1,0-3.7c0-.2,0-.4-.1-.4s-.2-.2-.2.3a19.3,19.3,0,0,0-.1,2.4c0,.3,0,.5.2.5a.4.4,0,0,1,.1.3.6.6,0,0,1-.1.4c-.1,0-.1.2-.1.4S38.5,209.5,38.6,209.5Zm14.1-3.8a3.7,3.7,0,0,0-3.1-1.1A4.4,4.4,0,0,1,52.7,205.7Zm-6-1.3h-.1v.2l.6.8h.1v-.2l-.5-.6Z" fill="#fff"/>
          <path d="M46.3,208c-.2.3-.4.3-.6.4h-6c0-.1-.1-.2-.1-.4a2,2,0,0,1,.1-.5h5.8A1,1,0,0,1,46.3,208Z" fill="#fff"/>
          <path d="M47.4,207.8c.1.5.2.5.4.5H49c.1,0,.2.1.2.5a1.3,1.3,0,0,0,.1.6c0,.3,0,.4-.1.4H47.8c-.1.1-.2,0-.2-.3A9,9,0,0,1,47.4,207.8Z" fill="#fff"/>
          <path d="M48.5,207.2h.4c.1.1.1.1.1.3s0,.3-.1.4a1.1,1.1,0,0,1-.8-.1h-.3s-.1,0-.1-.2v-.2Z" fill="#fff"/>
          <path d="M46.8,208.1h-.2c0-.2.1-.2.1-.3l.4-.2v.2a.1.1,0,0,1-.1.1Z" fill="#fff"/>
        </g>
        <g>
          <path d="M43.6,236H40.4c-.2,0-.4-.1-.5-.5s-.1-.2-.2,0-.3.6-.5.5h-.1c-.3.1-.5,0-.7-1.4a22.9,22.9,0,0,1,0-6.4,3.6,3.6,0,0,1,.2-1c.1-.3.2-.5.4-.5h.3c.1,0,.3.1.4.5s.1.3.2,0,.3-.5.5-.5h6.5c.2,0,.3.1.4.4s.7,1,1.1.9h1.2c.1,0,.2,0,.3.3h.2a5,5,0,0,1,2.4,1,6,6,0,0,1,1.3,1.4v.2c.2.3.2.5,0,.7a4.3,4.3,0,0,1-.4.7,5,5,0,0,1-2.8,1.8h-.8c-.1.3-.2.3-.4.3H48.1c-.2,0-.3.1-.4.4s-.8,1-1.2.9Zm-4.2-3.6c0,.4-.1.6-.2.6v.5c.2.1.2.5.2.9h-.1c.1.4.1.5.3.6a10.1,10.1,0,0,1-.3-2.5,26.8,26.8,0,0,1,.2-4l-.3.3v.2h0c.1-.1.1-.1.1.1v.2c-.2,0-.2.2-.3.6v1.8c0,.3,0,.6.1.5Zm8-1.1v-.5c0-.2,0-.3-.1-.4a2.7,2.7,0,0,0-.7-.8c0-.1-.1,0-.1.2a19.3,19.3,0,0,0,0,3.4c.1.2.1.3.2.3s.3.1.5-.1.2,0,.2.4.1.3.1.5,0,.3,0,.4-.2.4-.4.5-.4.3-.5-.5a18.3,18.3,0,0,1-.2-4.7c0-.4,0-.5-.2-.5H39.8c-.2,0-.2,0-.3.6a26.2,26.2,0,0,0,.1,2.8c0,.6,0,.6.2.6h6.4c.1,0,.1,0,.2.3s.1.8.1,1.2.1.4,0,.4H40.1l.2.2h6.2c.4,0,.8-.2,1.1-.9s.3-.4.4-.3h1.4a21.7,21.7,0,0,1-.1-5.1c0,.5-.1.6-.3.6a5.7,5.7,0,0,0-1.3,0s-.1-.1-.1.1h1.5v.5H47.8C47.6,230.6,47.4,230.4,47.4,231.3Zm5.5,1v.2a5.1,5.1,0,0,1-2.6,1.2h-.6s-.1-.1-.1.1h.2a3.8,3.8,0,0,0,2.9-1,3.6,3.6,0,0,0,1.1-1.3s.1,0,.1-.2h-.1l-.3-.3a4.2,4.2,0,0,0-3.8-1.3.1.1,0,0,0-.1.1h.2a4.5,4.5,0,0,1,2.8.5l.6.4-1.4-.5a5.4,5.4,0,0,0-2.2.1c-.1,0-.1.1-.1.3v1.3c0,.4,0,.6.2.6h1.6l1.6-.3S52.8,232.2,52.9,232.3Zm-9.8-3.7H39.9c-.1,0-.2-.1-.2.1s.1.1.2.1h6.5a.1.1,0,0,0,.1-.1H43.1Zm-3.9,5.8a18.1,18.1,0,0,1-.1-5.2,6.2,6.2,0,0,1,.4-1.6s.1,0,.1-.2l-.2-.3c-.1,0-.2.1-.2.3a1.1,1.1,0,0,0-.2.6,19.1,19.1,0,0,0-.2,4.2V232h0a1.3,1.3,0,0,1,.1.6v-.6c0,.4.1.8.1,1.2v-.2c0,.2-.1.4,0,.4a3.9,3.9,0,0,0,.2,1.5c0-.3-.1-.5-.1-.8v.2Zm-.6-.6c.1.1.1-.1.1-.5a22.8,22.8,0,0,1,0-3.7c0-.1,0-.4-.1-.4s-.2-.2-.2.3a20.1,20.1,0,0,0-.1,2.5c0,.2,0,.4.2.4a.6.6,0,0,1,.1.4,1,1,0,0,1-.1.4c-.1,0-.1.1-.1.3S38.5,233.8,38.6,233.8ZM52.7,230a3.7,3.7,0,0,0-3.1-1.1A4.9,4.9,0,0,1,52.7,230Zm-6-1.3a.1.1,0,0,0-.1.1h.1l.6.9c.1,0,.1.1.1-.1h0l-.5-.6Z" fill="#fff"/>
          <path d="M46.3,232.3a.7.7,0,0,1-.6.4h-6c0-.1-.1-.2-.1-.4s.1-.3.1-.4h5.8A1,1,0,0,1,46.3,232.3Z" fill="#fff"/>
          <path d="M47.4,232.1c.1.6.2.6.4.6H49c.1,0,.2.1.2.4a1.7,1.7,0,0,0,.1.7c0,.2,0,.3-.1.3H47.8c-.1.2-.2,0-.2-.2A11.1,11.1,0,0,1,47.4,232.1Z" fill="#fff"/>
          <path d="M48.5,231.5h.4c.1,0,.1,0,.1.3s0,.3-.1.3a2.2,2.2,0,0,1-.8,0l-.3-.2h-.1c0-.2.1-.2.1-.2Z" fill="#fff"/>
          <path d="M46.8,232.4c-.1,0-.1.1-.2-.1a.3.3,0,0,1,.1-.2c.2-.2.3-.3.4-.2h.1v.2Z" fill="#fff"/>
        </g>
        <g>
          <path d="M43.6,266.1H40.4c-.2,0-.4-.1-.5-.5s-.1-.2-.2,0-.3.6-.5.5h-.1c-.3.1-.5,0-.7-1.4a22.2,22.2,0,0,1,0-6.3,3.6,3.6,0,0,1,.2-1.1c.1-.3.2-.5.4-.5h.3c.1,0,.3.2.4.5s.1.3.2,0,.3-.5.5-.5h6.5c.2,0,.3.1.4.4s.7,1,1.1.9h1.2c.1,0,.2,0,.3.3s.1.1.2.1a5,5,0,0,1,2.4,1,6,6,0,0,1,1.3,1.4c0,.1.1.1.1.2a.6.6,0,0,1,0,.8l-.4.6a5.2,5.2,0,0,1-2.8,1.9H50a.1.1,0,0,0-.1.1c-.1.4-.2.4-.4.4H48.1c-.2,0-.3.1-.4.4s-.8,1-1.2,1Zm-4.2-3.6c0,.4-.1.6-.2.6v.3a.3.3,0,0,0,.1.2c.2.1.2.6.2,1v-.2c.1.4.1.5.3.6a10.1,10.1,0,0,1-.3-2.5,26.8,26.8,0,0,1,.2-4l-.3.3v.2h0c.1,0,.1-.1.1.1v.2c-.2,0-.2.3-.3.6v1.8c0,.3,0,.6.1.5A.2.2,0,0,1,39.4,262.5Zm8-1.1v-.5c0-.1,0-.3-.1-.3a3.1,3.1,0,0,0-.7-.9c0-.1-.1,0-.1.2a20.5,20.5,0,0,0,0,3.5c.1.2.1.3.2.3a.6.6,0,0,0,.5-.2c.1-.1.2,0,.2.4a4.3,4.3,0,0,0,.1.5c.1.2,0,.3,0,.4a1,1,0,0,1-.4.5c-.2.3-.4.4-.5-.5a18.3,18.3,0,0,1-.2-4.7c0-.4,0-.5-.2-.5H39.8c-.2,0-.2,0-.3.6a25.3,25.3,0,0,0,.1,2.8c0,.6,0,.7.2.7h6.4c.1,0,.1-.1.2.2s.1.9.1,1.3.1.3,0,.3H40.3c-.1,0-.2,0-.2.1s.2.1.2.1h6.2c.4,0,.8-.1,1.1-.9a.4.4,0,0,1,.4-.3h1.3a.1.1,0,0,0,.1-.1,21.5,21.5,0,0,1-.1-5.1c0,.5-.1.6-.3.6H47.7s-.1-.1-.1.1h1.5v.6H47.8C47.6,260.7,47.4,260.5,47.4,261.4Zm5.5,1v.2a5.1,5.1,0,0,1-2.6,1.2h-.7a.3.3,0,0,0,.1.2h.1a4.4,4.4,0,0,0,2.9-1.1,4.3,4.3,0,0,0,1.1-1.2c0-.1.1-.1.1-.2s-.1-.2-.1-.2l-.3-.3a4.5,4.5,0,0,0-3.8-1.3h-.1a.1.1,0,0,0-.1.1c0,.2.1.2.1.2h.2a4.5,4.5,0,0,1,2.8.5l.6.4-1.4-.5a5.4,5.4,0,0,0-2.2.1c-.1,0-.1.1-.1.3v1.4c0,.3,0,.5.2.5h1.6l1.6-.3Zm-9.8-3.7H39.9c-.1,0-.2-.1-.2.1s.1.1.2.1h6.4a.1.1,0,0,0,.1-.1h.1a.1.1,0,0,0-.1-.1H43.1Zm-3.9,5.8a18.1,18.1,0,0,1-.1-5.2,4.6,4.6,0,0,1,.4-1.5c0-.1.1-.1.1-.3l-.2-.2c-.1-.1-.2,0-.2.2a1.4,1.4,0,0,0-.2.7,18.5,18.5,0,0,0-.2,4.1v0a.7.7,0,0,1,.1.5v-.5c0,.3.1.7.1,1.1v-.2c0,.2-.1.4,0,.5a3.4,3.4,0,0,0,.2,1.4c0-.3-.1-.4-.1-.7v.1Zm-.6-.6c.1.1.1-.1.1-.4a22.8,22.8,0,0,1,0-3.7.7.7,0,0,0-.1-.5c-.1,0-.2-.1-.2.3a20.9,20.9,0,0,0-.1,2.5c0,.3,0,.5.2.4a.8.8,0,0,1,0,.8c-.1,0-.1.1-.1.3S38.5,263.9,38.6,263.9Zm14.1-3.8a3.7,3.7,0,0,0-3.1-1.1A5.6,5.6,0,0,1,52.7,260.1Zm-6-1.3h-.1a.1.1,0,0,0,.1.1l.6.9c.1,0,.1.1.1,0v-.2l-.5-.6Z" fill="#fff"/>
          <path d="M46.3,262.4a1.3,1.3,0,0,1-.6.5h-6a4.3,4.3,0,0,1-.1-.5c0-.2.1-.3.1-.4h5.8Z" fill="#fff"/>
          <path d="M47.4,262.2c.1.6.2.6.4.6H49c.1,0,.2.1.2.5a1.3,1.3,0,0,0,.1.6c0,.3,0,.4-.1.4H48c-.1,0-.2-.1-.2,0s-.2.1-.2-.2A11.1,11.1,0,0,1,47.4,262.2Z" fill="#fff"/>
          <path d="M48.5,261.6h.4c.1,0,.1.1.1.3s0,.3-.1.3H47.8c0-.1-.1,0-.1-.2s.1-.2.1-.2Z" fill="#fff"/>
          <path d="M46.8,262.6c-.1-.1-.1,0-.2-.2v-.2c.2-.2.3-.3.4-.2s.1,0,.1.1v.2Z" fill="#fff"/>
        </g>
      </g>
      <g>
        <path d="M308.8,25.8V18l-7.6,1.2h-.1v7.8l7.7-1.3h0Zm-5.1-4.4,2.7-.5v2.8l-2.7.4Z" fill="#151213"/>
        <path d="M314.7,30.4V22.7l-7.6,1.2h-.1v7.7l7.6-1.2h.1Zm-5.1-4.3,2.7-.5v2.8l-2.7.4Z" fill="#151213"/>
      </g>
      <g>
        <path d="M19.6,457.3v-7.8l-7.6,1.2H12v7.8l7.7-1.3h0Zm-5.1-4.4,2.7-.4v2.7l-2.7.4Z" fill="#151213"/>
        <path d="M25.5,461.9v-7.7l-7.7,1.2h0v7.7l7.6-1.2h.1Zm-5.1-4.3,2.7-.5v2.8l-2.7.4Z" fill="#151213"/>
      </g>
      <rect x="216.6" y="257.9" width="118.4" height="29.69" fill="#fff"/>
    </g>
  </g>
</svg>
