<?xml version="1.0" encoding="UTF-8"?><svg id="af4f9596-3606-4acf-9dcc-383c9786356a" xmlns="http://www.w3.org/2000/svg" xmlns:xlink="http://www.w3.org/1999/xlink" viewBox="0 0 335 335"><defs><style>.cls-1{fill:#fff;}.cls-2{fill:#151213;}.cls-3{fill:#be1e2d;}.cls-4{fill:url(#radial-gradient);}.cls-5{fill:none;}</style><radialGradient id="radial-gradient" cx="167.5" cy="777.58" fx="167.5" fy="777.58" r="205.01" gradientTransform="translate(0 -384.06) scale(1 .71)" gradientUnits="userSpaceOnUse"><stop offset="0" stop-color="#fff"/><stop offset="1" stop-color="#d1d3d4"/></radialGradient></defs><g><rect class="cls-4" width="335" height="335"/><rect class="cls-2" y="158.5" width="335" height="67.15"/><path class="cls-2" d="M265.6,120.9h.1l-.2,.4c-.08,.19-.15,.39-.2,.6,0,.2,0,.3-.1,.4h-.1l.3-.8c.1-.4,.1-.5,.2-.5v-.1Zm-2.3-2q.3,.2,.1,.4c-.23,.32-.34,.71-.3,1.1-.02,.25,.05,.5,.2,.7,0,.08,.04,.15,.1,.2,0,.13,.1,.23,.3,.3l.4,.3h.2c.2,0,.2,.1-.2,.4-.1,.11-.17,.25-.2,.4h-.2l-.6-.2h-.1c-.1,0-.7-.6-.6-.7h-.1c-.1,0-.3-.6-.4-.9-.04-.74,.3-1.46,.9-1.9h.5v-.1Zm-3.5,1.1c-.08-.12-.11-.26-.1-.4-.2-1-.3-1.3-.3-1.4s-.3-.8-.4-.8l-.6-1.3c0-.06,.04-.1,.1-.1h0l.3,.2,1.2,.6,.9,.5,.8,.4h.1l.3,.2,.4,.2h.1c-.9,.2-1.2,.3-1.5,.9s-.2,.4-.2,1-.1,.7,.1,1l.4,.6c.2,.3,.7,.8,.9,.8h0c0,.06,.04,.1,.1,.1h.2c.54,.24,1.11,.37,1.7,.4h1c.1,0,.1,.1,0,.2v.2c-.05,.2-.08,.4-.1,.6,0,.4,0,.5,.1,.6,.06,.05,.09,.12,.1,.2l.2,.2c.1,.1,.1,.3,.1,.8s0,.9,.2,1.2l.4,.5c.22,.04,.41,.19,.5,.4l.8,.8c.2,.1,.3,.1,.2,.2l-.4,.7c-.27,.59-.64,1.13-1.1,1.6h-.1l-.6,.9c-.5,.8-.7,1-.8,1h-.1c-.1-.25-.23-.49-.4-.7l-.5-.6-.2-.5-.7-1.4-.2-.6c-.14-.25-.24-.52-.3-.8-.14-.22-.24-.45-.3-.7-.1-.2-.2-.3-.2-.4-.09-.22-.16-.46-.2-.7-.1,0-.1-.1-.1-.2h-.1c0-.1,0-.2-.1-.2-.06-.19-.09-.4-.1-.6-.1-.19-.16-.39-.2-.6-.1,0-.1-.1-.1-.2v-.2c-.1,0-.2-.5-.3-.9-.13-.32-.23-.66-.3-1l-.2-.8c-.09-.29-.16-.59-.2-.9m18.4,16.3c.07,.08,.11,.19,.1,.3h.2c.2,.2,.4,.4,.3,.6h-2.6l.2-.3c.3-.54,.8-.94,1.4-1.1h.1l.3,.5Zm-4.2-6.9l.4,.4c.2,.3,.4,.6,.5,.6l.4,.5,.5,.6c.18,.16,.32,.37,.4,.6l.9,1.2v.4c.1,.33,.27,.64,.5,.9,.23,.2,.34,.5,.3,.8q0,.3-.1,.4h-.4l-.6,.2h0c-.28,.22-.52,.49-.7,.8l-.2,.2h0c-.06,.05-.09,.12-.1,.2-.1,.2-.5,.6-.6,.6h0c-.06-.05-.09-.12-.1-.2-.09-.35-.22-.69-.4-1-.1-.2-.3-.4-.3-.5l-.7-.9-.9-.8-.4-.4c-.14-.73-.17-1.47-.1-2.2,0-.3,.1-.6,.1-.8,.07-.19,.11-.4,.1-.6,0-.1,.1-.2,.1-.3h.1c.35-.13,.69-.29,1-.5l.3-.2h0Zm-61.4-42.1c-.35,.25-.54,.67-.5,1.1,0,.3,0,.4-.2,.6-.26,.28-.44,.62-.5,1-.1,.5,0,.6,1,1.1l1.3,.7h.4l.3,.2,1.6,.8h.3l.5,.2,.5,.3,.4,.2,.8,.4h.5l.5,.2,.4,.2,.3,.2,.5,.2,.9,.4,.3,.2,.4,.2h.3l.4,.2,.5,.3,.9,.4,1.1,.5,.4,.2,.8,.4,.9,.4,.4,.2h.5c0,.06,.04,.1,.1,.1h.2l.8,.3,.9,.5h.3l.3,.2h.4l.4,.2,.5,.3,.4,.3,.2,.3h-.9c0,.1,0,.2,.1,.2l.9,.4q.1,0,.1,.1h.3c.2,0,.3,0,.2-.1s0-.3,.3-.4h.7l.4,.2h.5l.4,.2,.6,.3h.3v.6c-.06,.2-.06,.4,0,.6v.2c0,.3,.4,.5,1.1,.5,.3-.02,.59,.09,.8,.3h.1l.3,.2h.2l.9,.7,1.5,1,.4,.2c0,.1,.2,.1,.3,.2l.5,.4h.2v1.6c.12,.25,.19,.52,.2,.8q0,.3,.2,.5l.9,.4h.3c.38,.06,.72,.24,1,.5,.19,.31,.32,.65,.4,1,.2,.51,.2,1.09,0,1.6-.2,.8-.1,1.3,.2,1.6,.21,.26,.49,.47,.8,.6l.4,.2,.3,.2h.4l.4,.3,.5,.3,.4,.2,.7,.3,.5,.2h.3l.2,.2,.4,.3c.25,.18,.46,.42,.6,.7h0c.2,0,.7,1.1,.7,1.3,.07,.08,.11,.19,.1,.3,.1,.1,.1,.3,.2,.5v.5c0,.1,.1,.3,.1,.4s.1,.4,.1,.5,.1,.4,.1,.5c.02,.17,.06,.34,.1,.5,0,.2,.1,.4,.1,.6,.02,.17,.06,.34,.1,.5v.4h.1c0,.11,.03,.22,.1,.3-.02,.24,.01,.48,.1,.7,0,.1,.3,.9,.3,1.1v.3l.2,.7h.1v.2c.05,.2,.08,.4,.1,.6l.2,.5v.4c.02,.24,.05,.47,.1,.7v.3c.05,.13,.08,.26,.1,.4,.02,.24,.09,.48,.2,.7,0,.2,.1,.5,.1,.6v.3c0,.1,0,.2,.1,.2v.2l.2,.6c.12,.42,.19,.86,.2,1.3,.2,.6,.5,2,.6,2.2v.4l.2,.6c.1,.3,.1,.6,.2,.6h-.9c-.3,0-.3,.1-.5,.2s-.1,.1-.1,.4,.1,.7,.5,1,.1,.2,.1,.5c0,.18,.08,.36,.2,.5,.1,.1,.1,.2,0,.4-.11,.39-.11,.81,0,1.2,.07,.31,.17,.61,.3,.9l.4,1.1,.7,1.5c.17,.39,.3,.79,.4,1.2,.08,.12,.11,.26,.1,.4,.12,.29,.33,.54,.6,.7l1.4,1.9h0c.27,.32,.47,.7,.6,1.1v.2c.07,.08,.11,.19,.1,.3,.38,.64,.93,1.16,1.6,1.5l.6,.2h.5l.4,.2h.4l1.1,.5,.3,.2h.2l.7,.3,.8,.3h.2c.1,0,.2,0,.2,.1,.58,.23,1.18,.36,1.8,.4l1.3,.2h1l1,.3,.3,.2h.4l2.3,.5h1.6q.2,.1,.2,.3l-.2,.5c-.02,.21-.09,.42-.2,.6-.03,.15-.1,.29-.2,.4v.4l-.2,.5c-.09,.15-.16,.32-.2,.5-.1,0-.1,.1-.1,.2v.2c-.07,.25-.17,.48-.3,.7l-.6,1.4v.2l-.2,.5-.3,.4c0,.11-.03,.22-.1,.3l-.5,1.1-.6,1.1-.2,.5h-.1c-.09,.29-.22,.56-.4,.8h0l43.8,1.6h0c.1-.6,.2-1.4,.3-2.6,.3-2.9,.5-6.1,.7-9.5-.02-.73,.02-1.47,.1-2.2h.1c0,.08,.04,.15,.1,.2h.1c.1,0,.1-.1,0-.7-.02-.27,.02-.54,.1-.8v-.8c-.1-.1,.2-.9,.4-1.3v-.2c0-.1,0-.2,.1-.2v-.6c.2-.2,.1-.6,0-.8s-.1-.2-.1-.4c-.08-.22-.12-.46-.1-.7-.17-.82-.23-1.66-.2-2.5,0-.2,0-.5-.1-.5v-.2h-.1v-.2c0-.1,0-.2-.1-.2-.1-.41-.23-.81-.4-1.2,0-.11-.03-.22-.1-.3v3.6h-.1q-.1-.1-.1-.3c0-.2-.03-.41-.1-.6-.03-.6-.1-1.2-.2-1.8-.08-.19-.11-.39-.1-.6-.1-.1-.1-.4-.2-.6,0-.38-.07-.75-.2-1.1v-.7c-.1,0-.1-.2-.2-.4-.23-.65-.5-1.28-.8-1.9-.41-.55-.88-1.05-1.4-1.5l-.5-.4c-.4-.2-.7-.5-.7-.7,0-.06-.04-.1-.1-.1h0c0-.14-.03-.28-.1-.4,0-.1-.1-.3-.1-.4v-.2c-.12-.4-.32-.78-.6-1.1l-.5-.6-.2-.3-.8-1-.2-.4-.4-.5c-.13-.2-.23-.3-.3-.3-.1,0-.1-.1,0-.3v-.2c.11-.19,.11-.41,0-.6v-.5c.02-.24-.01-.48-.1-.7-.2-.2-.2-.3-.1-.5-.02-.58-.23-1.15-.6-1.6l-.6-.7h-1.1q0,.1-.1,.1h0l-.4,.2-.8,.3h-.1v-.4c0-.4,0-.5-.1-.6-.11,.03-.22-.04-.25-.15-.03-.11,.04-.22,.15-.25,.19-.11,.33-.29,.4-.5,0-.2-.2-.4-.4-.7-.07-.08-.11-.19-.1-.3-.06-.05-.09-.12-.1-.2l-.2-.2c.1-.1-.1-.4-.3-.6l-.2-.4v-.2l.2-.3,.4-.6c.3-.2,.3-.4,.2-.6v-.5h0c.1,0,.1-.1,.2-.2s.1-.3,.2-.3h.4l.4-.2h.1q0-.2-.1-.2c-.1,0-.3-.3,.1-.3h.4c.1-.1,.1-.2-.1-.4s-.1-.1,0-.2v-.3c.1-.2,.1-.4-.1-.4h0c-.23,.02-.45,.13-.6,.3h-.2c-.08-.26-.12-.53-.1-.8v-.5l-.2-.6c0-.2-.1-.7-.1-1l-.2-1.2h-.1c-.06-.42-.19-.83-.4-1.2-.06,0-.1-.04-.1-.1h0v-.2l-.2-.5c-.08-.21-.18-.41-.3-.6v-.3h0v-.2c-.18-.28-.38-.55-.6-.8l-.6-.8c-.57-.75-1.21-1.46-1.9-2.1-.42-.46-.93-.83-1.5-1.1l-.5-.3h-.3l-.3-.2-.3-.2-.5-.4-.3-.5c0-.1-.1-.2-.2-.3l-1-.3c-.3,0-.5,.1-.5,.3h-.7l-1.9-.4h-.6c-1.08-.28-2.19-.45-3.3-.5h-.3c-.6,.03-1.18,.2-1.7,.5l-.6,.3q-.5,.2-1.1,.8l-1.6,1.6c-.7,.7-.4,.5-.4,.6l-.8,.9-.7,1-.5,.5-.5,.6-.3,.4-.2,.2h0c0,.1-.4,.6-.6,.6h-8.2c-.3,0-.6,.4-.8,.7s-.1,.6-.1,1c-.07,.36-.1,.73-.1,1.1,.08,.51,.28,.99,.6,1.4,.35,.58,.87,1.04,1.5,1.3,.68,.4,1.42,.67,2.2,.8h4.6v.2c.17,.65,.48,1.27,.9,1.8l.2,.4v.2c-.06,0-.1,.04-.1,.1h0l-.2,.4c-.35,.5-.66,1.04-.9,1.6v.4l-.2,.4-.2,.4v.4c0,.1,0,.2-.1,.2l-.4-.2-.4-.2h-.2l-.5-.3-.5-.3c-.45-.19-.85-.46-1.2-.8-.06-.12-.09-.26-.1-.4-.1-.7-.2-.9-.2-1.1-.06-.12-.09-.26-.1-.4,0-.1-.2-.5-.3-.9-.2-.47-.51-.88-.9-1.2l-.7-.2h-.2l-.8-.2h-.6l-.4,.2-.4,.4c-.2,.3-.3,.4-.4,.4h0c-.2,0-.7-.3-.7-.5l-.2-.3c-.26-.21-.47-.49-.6-.8v-.3l-.5-.4c-.12-.18-.29-.33-.5-.4l-.6-.4-.4-.4,.2-.2c.3-.3,.5-.7,.3-1s-.2-.4-.4-.4h-2.3l-.8-.5-.7-.6-.2-.2-.4-.3-.6-.5c-.06,0-.1-.04-.1-.1h-.4l-.4-.2h-.7l-1.1-.5-.4-.2h-.7l-.4-.2-.4-.2-.8-.2-1.8-.8h-.3l-.9-.4-.7-.3-1-.4h-.3l-.4-.2-1.3-.6h-.4l-1.1-.5-.7-.3-.8-.4-.8-.3-.8-.4-.6-.2-.7-.4-1-.4-1-.5h-.1l-.8-.4h-.1l-.4-.2-.3-.2h-.4l-.9-.5-.7-.3h-.3l-.4-.2h-.5l-.7-.3-.3-.2h-.6l-.4-.2h-.3l-.3-.2h-.6l-.4-.2-.3-.2h-.4l-.4-.2h-.2c0-.06-.04-.1-.1-.1h-.8l-.5-.3-.4-.2-.6-.2-.5-.3-.4-.2h-.1l-.4-.2-.5-.2-.3-.2h-.3l-1.1-.5-.4-.2h-.3l-.3-.2-.4-.2-.6-.2-.5-.3-.7-.3-.3-.2-.5-.2-.6-.2-.3-.2h-.3l-.4-.2-.5-.2-.3-.2h-.3l-.5-.2h-.2l-.4-.2-.8-.4q-1.2-.5-1.2-.8c0-.3,0-.2-.2-.3l-.3-.2h-.4l-.4-.2-.6-.3h-1.3l-.4-.2h-.7c1.16-.17,1.97-1.24,1.8-2.4-.17-1.16-1.24-1.97-2.4-1.8Z"/><g><path class="cls-5" d="M174.6,319.7l4.7-3.3-1.9,.8c-1.14,.5-2.22,1.14-3.2,1.9-.2,.1-.4,.3-.2,.6,.2,.3,.4,.1,.6,0Z"/><path class="cls-5" d="M170.9,319c-.28-.76-.68-1.47-1.2-2.1-.2-.2-.3-.4-.5-.3-.2,.1-.1,.3-.2,.6l.3,1.9c.1,.2,.1,.5,.4,.5l1.2-.2c.1-.1,0-.3,0-.4Z"/><path class="cls-5" d="M172.8,323.9c-.1-.62-.67-1.06-1.3-1-1.3,0-1.6,.3-1.3,1.5l1.8,7.9c.06,.67,.54,1.23,1.2,1.4l1.8,.6c.2,0,.5,.3,.7,0s0-.4-.1-.6c-.9-3.3-1.9-6.6-2.8-9.8Z"/><path class="cls-5" d="M167.2,314.9c1.3,.2,.7-.1,.7-.6,.02-.7-.02-1.4-.1-2.1,0-.9-.2-1.79-.6-2.6h0c-.61,1.18-.98,2.47-1.1,3.8q-.2,1.3,1.1,1.5Z"/><path class="cls-5" d="M175.3,322.2c-.4,.2-.5,.4-.1,.7l6.8,6.7c.2,.2,.4,.4,.7,.2,.53-.36,1.16-.54,1.8-.5l.2-.3-6.9-6.7c-.72-.58-1.74-.62-2.5-.1Z"/><path class="cls-5" d="M190.2,333.2c-.5,0-.6,.6-.6,.9s.6,.6,1,.6,.5-.5,.7-.8h0c-.2-.43-.63-.7-1.1-.7Z"/><path class="cls-5" d="M167.6,315.7l-.8-.2c-.5,.1-1.1,.1-1.1,.9s.6,.4,1,.5q.4,.1,.6,0c.2-.1,.6,.3,.7-.2,.1-.5,.2-.8-.4-1Z"/><path class="cls-5" d="M161,329.6c-1.33,0-2.4,1.07-2.4,2.4,.05,1.51,1.29,2.7,2.8,2.7,1.27,.06,2.34-.93,2.4-2.2h0c-.05-1.55-1.26-2.8-2.8-2.9Zm.51,4.3h-.21c-1.01-.09-1.81-.89-1.9-1.9,.05-.92,.78-1.65,1.7-1.7,1.01,.09,1.81,.89,1.9,1.9,.06,.88-.61,1.64-1.49,1.7Z"/><path class="cls-5" d="M161.44,331.11h-.34c-.5,.03-.91,.4-1,.89,.04,.61,.5,1.11,1.1,1.2,.7,0,1-.3,1-.9,.12-.54-.22-1.07-.76-1.19Z"/><path class="cls-5" d="M155.7,323c-1.57-1.07-3.29-1.91-5.1-2.5v-.2l-.2,.2,4.8,3.1c.2,.1,.4,.5,.7,.1,.19-.19,.19-.51,0-.7h-.2Z"/><path class="cls-2" d="M188,331.3c-.3-.3-.3-.4-.1-.8,.57-.79,1.01-1.67,1.3-2.6,.2-.7,0-1-.8-.8-1.1,.22-2.13,.7-3,1.4-.4,.3-.7,.3-1-.1l-4.8-4.8c-.73-.84-1.53-1.61-2.4-2.3-.6-.5-.4-.7,0-1.1,1.1-1.08,2.08-2.29,2.9-3.6,.2-.2,.4-.3,.2-.7-.2-.4-.5-.2-.8-.1-2.45,.9-4.76,2.11-6.9,3.6-.8,.5-.8,.6-1.2-.3-.39-1.21-1.12-2.29-2.1-3.1-.37-.19-.61-.58-.6-1-.01-1.63-.28-3.25-.8-4.8-.2-.4-.2-1-.7-1s-.6,.6-.8,1c-1.4,3.2-1.5,6.8-2.3,10.2-.23,1.52-.37,3.06-.4,4.6-.41-.71-.99-1.29-1.7-1.7-.8-.3-1.7-.5-2.3,.2l-.3,.3c-.5,.32-1.16,.19-1.5-.3-1.58-1-3.21-1.9-4.9-2.7l-2.8-1c-.2,0-.6-.2-.8,.1s0,.6,.2,.9c1.49,1.99,3.2,3.8,5.1,5.4,.4,.3,.5,.5,0,.8l-6,4.4c-.2,.1-.4,.3-.7,.2-.88-.06-1.76-.23-2.6-.5-1.7-.61-3.5-.88-5.3-.8-.2,0-.5-.1-.6,.2-.1,.3,.1,.4,.3,.6l.8,.8c.89,.72,1.83,1.39,2.8,2,.3,.2,1,.2,1,.6,0,.17-.1,.31-.22,.46h1.41c-.19-.1-.39-.19-.59-.26,.4-.33,.96-.37,1.4-.1,.21,.1,.41,.22,.59,.36h.51c-.47-.44-1.01-.8-1.6-1.06l6.7-4.9,5.6-4,1-.4c1.39-.19,2.7,.73,3,2.1,0,.3-.2,.4-.4,.6l-10.41,7.66h12.86l.45-7.66c.2-2.2,.3-4.4,.4-6.6,0-.7,.3-.9,.9-1h.4c1.5,0,1.7,.1,1.6,1.6,0,3.6-.1,7.1-.2,10.7,.03,.35-.04,.69-.2,1-.75,.66-1.2,1.29-1.43,1.96h3.96l-.73-.26c-.2-.1-.5,0-.5-.3s.2-.4,.4-.6c.55-.47,1.31-.62,2-.4l4.39,1.56h2.58l-.56-.26,.6-.5c.93-.78,2.25-.9,3.3-.3,.4,.2,.5,.4,.1,.8l-.26,.26h5.57l-1.01-.96c-.4-.4-.3-.6,.2-.8,.49-.22,1.05-.18,1.5,.1,.47,.51,.88,1.08,1.26,1.66h2.85c.03-.08,.07-.16,.09-.26,.1-.4,.4-.4,.6-.2,.29,.14,.57,.31,.86,.46h.81c-.93-.61-1.88-1.2-2.87-1.76-1.18-.47-2.3-1.11-3.3-1.9Zm-32.1-7.6c-.3,.4-.5,0-.7-.1l-4.8-3.1,.2-.2v.2c1.81,.59,3.53,1.43,5.1,2.5h.2c.19,.19,.19,.51,0,.7Zm7.9,8.8c-.06,1.27-1.13,2.25-2.4,2.2-1.51,0-2.75-1.19-2.8-2.7,0-1.33,1.07-2.4,2.4-2.4,1.54,.1,2.75,1.36,2.8,2.9h0Zm2.3-19.1c.12-1.33,.49-2.62,1.1-3.8h0c.4,.81,.6,1.7,.6,2.6,.08,.7,.12,1.4,.1,2.1,0,.5,.6,.8-.7,.6s-1.3-.2-1.1-1.5Zm1.9,3.3c-.1,.5-.5,.1-.7,.2q-.2,.1-.6,0c-.4-.1-1,.3-1-.5s.6-.8,1.1-.9l.8,.2c.6,.2,.5,.5,.4,1Zm6.2,2.4c.98-.76,2.06-1.4,3.2-1.9l1.9-.8-4.7,3.3c-.2,.1-.4,.3-.6,0-.2-.3,0-.5,.2-.6Zm-4.9,0l-.3-1.9c.1-.3,0-.5,.2-.6,.2-.1,.3,.1,.5,.3,.52,.63,.92,1.34,1.2,2.1,0,.1,.1,.3,0,.4l-1.2,.2c-.3,0-.3-.3-.4-.5Zm6.4,15.2c-.2,.3-.5,0-.7,0l-1.8-.6c-.66-.17-1.14-.73-1.2-1.4l-1.8-7.9c-.3-1.2,0-1.5,1.3-1.5,.63-.06,1.2,.38,1.3,1,.9,3.2,1.9,6.5,2.8,9.8,.1,.2,.3,.3,.1,.6Zm8.8-5c-.64-.04-1.27,.14-1.8,.5-.3,.2-.5,0-.7-.2l-6.8-6.7c-.4-.3-.3-.5,.1-.7,.76-.52,1.78-.48,2.5,.1l6.9,6.7-.2,.3Zm6.8,4.6c-.2,.3-.3,.8-.7,.8s-1-.3-1-.6,.1-.9,.6-.9c.47,0,.9,.27,1.1,.7h0Z"/><path class="cls-2" d="M161.1,330.3c-.92,.05-1.65,.78-1.7,1.7,.09,1.01,.89,1.81,1.9,1.9h.21c.88-.06,1.55-.82,1.49-1.7-.09-1.01-.89-1.81-1.9-1.9Zm1.1,2c0,.6-.3,.9-1,.9-.6-.09-1.06-.59-1.1-1.2,.09-.49,.5-.86,1-.9h.34c.54,.13,.88,.66,.76,1.2Z"/></g></g><g><g><path class="cls-2" d="M31.2,19.4c0,.32-.11,.64-.3,.9l-4,4-4.2-2.5v-2.4c0-.66,.54-1.2,1.2-1.2h0c.66-.06,1.24,.43,1.3,1.09h0v3.11l3.9-4c.53-.4,1.27-.4,1.8,0,.19,.26,.29,.58,.3,.9"/><path class="cls-2" d="M30,30.9h-.5l-.4-.3-3.9-3.9v3c0,.72-.58,1.3-1.3,1.3h0c-.66,0-1.2-.54-1.2-1.2h0v-2.6l4.2-2.4,4,3.9c.48,.5,.48,1.3,0,1.8-.22,.27-.55,.42-.9,.4"/><path class="cls-2" d="M26.7,24.5c0-.1,0-.2-.1-.2h0l-1.1-.6-2.8-1.7-2.4-1.4h-.4c0,.1-.1,.1-.1,.2v7.3l.3,.3h.2l2.4-1.4,3.9-2.2h.1v-.3Zm-.9,.1h-.1l-3.1,1.8-1.8,1.1c-.1,0-.3,0-.3-.1h-.1v-5.7c0-.1,.1-.2,.3-.2h.1l1.8,1.1,3.1,1.7c.07,.08,.11,.19,.1,.3Z"/><path class="cls-2" d="M24.9,24.6h0l-2.3,1.4-1.4,.8c-.1,.1-.2,0-.3-.1h0v-4.3l.2-.2h.1l1.4,.8,2.3,1.3h0"/></g><g><path class="cls-2" d="M51.9,24.4c0-.1-.1-.1-.1-.2l-3.5-1.7-2.2-1.1c-.1-.1-.3,0-.3,.2v5.8c0,.2,.2,.3,.4,.2h0l2.2-1.1,3.4-1.9q.1,0,.1-.1v-.1Zm-.8,.1q-.1,0-.1,.1l-2.7,1.4-1.6,.9c-.2,.1-.3,0-.3-.1v-4.5c0-.2,.1-.2,.2-.2h.1l1.7,.8,2.6,1.4h.1v.2Z"/><path class="cls-2" d="M50.3,24.5q0,.1-.1,.1l-2,1-1.2,.7c-.1,0-.2,0-.2-.1h0v-3.4c0-.1,.1-.1,.2-.1h0l1.3,.6,2,1h.1"/><path class="cls-2" d="M33.8,21.5h3c1.5,0,2.6,.8,2.6,2s-1.1,2-2.5,2h-1.6v1.9h-1.4l-.1-5.9Zm2.9,2.9c.7,0,1.2-.4,1.2-.9s-.5-.8-1.2-.8h-1.5v1.7h1.5Z"/><path class="cls-2" d="M45.1,26.4v1.2h-4.8v-6h1.5v4.8h3.3Z"/><path class="cls-2" d="M53.5,25.3l-2.7-3.8h1.7l1.7,2.7,1.7-2.7h1.6l-2.6,3.9v2.2h-1.4v-2.3Z"/><path class="cls-2" d="M58.5,21.8h.7v3.3l3.3-3.4h1l-2.8,2.8,3.1,3.3h-1l-2.5-2.8-1,1v1.8h-.8v-6Z"/><path class="cls-2" d="M64.3,24.7c.05-1.77,1.53-3.15,3.3-3.1h.1c1.79-.12,3.34,1.22,3.5,3-.11,1.8-1.6,3.2-3.4,3.2-1.82,.11-3.39-1.27-3.5-3.09h0Zm6.1-.01c0-1.49-1.21-2.7-2.7-2.7s-2.7,1.21-2.7,2.7,1.21,2.7,2.7,2.7h0c1.49,0,2.7-1.21,2.7-2.7Z"/><path class="cls-2" d="M72.2,26.9l.4-.6c.58,.58,1.38,.9,2.2,.9,1.1,0,1.6-.5,1.6-1.1s-.7-.9-1.8-1.1-2.2-.6-2.3-1.7,1-1.7,2.3-1.7c.86,0,1.7,.29,2.4,.8l-.5,.5c-.58-.42-1.28-.67-2-.7-.65-.12-1.28,.31-1.39,.97v.03h0c0,.6,.7,.8,1.8,1s2.3,.7,2.3,1.8-.8,1.7-2.4,1.7c-.94,.09-1.88-.19-2.6-.8Z"/><path class="cls-2" d="M78.6,21.8h.7l2.6,4.1,2.4-4.2h.8v6h-.8v-4.5l-2.5,4.2-2.5-4.1v4.5h-.8l.1-6Z"/><path class="cls-2" d="M86.6,24.7c.05-1.77,1.53-3.15,3.3-3.1h.1c1.79-.12,3.34,1.22,3.5,3-.11,1.8-1.6,3.2-3.4,3.2-1.82,.11-3.39-1.27-3.5-3.09h0Zm6.1-.01c0-1.49-1.21-2.7-2.7-2.7-1.49,0-2.7,1.21-2.7,2.7s1.21,2.7,2.7,2.7h0c1.49,0,2.7-1.21,2.7-2.7Z"/><path class="cls-2" d="M94.4,26.9l.5-.6c.58,.58,1.38,.9,2.2,.9,1.1,0,1.6-.5,1.6-1.1s-.7-.9-1.8-1.1-2.2-.6-2.3-1.7,1-1.7,2.3-1.7c.83,.02,1.64,.3,2.3,.8l-.4,.5c-.58-.42-1.28-.67-2-.7-.65-.12-1.28,.31-1.39,.97v.03h0c0,.6,.7,.8,1.8,1s2.2,.7,2.3,1.8-.8,1.7-2.4,1.7c-.96,.04-1.92-.24-2.7-.8Z"/></g></g><g><path class="cls-2" d="M17.3,97.8h-2.5c-.1,0-.3-.1-.4-.4s-.1-.2-.1,0c0,.22-.18,.4-.4,.4h-.1c-.2,.1-.4-.1-.5-1.1-.28-1.62-.32-3.27-.1-4.9,.1-.3,.1-.6,.2-.8s.2-.5,.3-.4h.3c.07,0,.17,.1,.3,.3,0,.2,.1,.2,.1,.1s.2-.4,.4-.4h5.1c.1,0,.2,0,.3,.3,.11,.37,.42,.64,.8,.7h1s.1,0,.2,.2,0,.1,.1,.1c.69,.02,1.36,.27,1.9,.7,.38,.32,.72,.69,1,1.1,0,.1,.1,.1,.1,.2,.11,.19,.11,.41,0,.6l-.3,.5c-.56,.7-1.33,1.19-2.2,1.4h-.6c-.1,.3-.2,.3-.3,.3h-1.1c-.2,0-.3,0-.4,.2s-.5,.8-.8,.8l-2.3,.1Zm-3.3-2.8c.09,.17,.05,.38-.1,.5v.4c.1,0,.1,.4,.1,.7s0-.2-.1-.1,.1,.4,.3,.4c-.12-.63-.18-1.26-.2-1.9-.03-1.04,.03-2.08,.2-3.1l-.2,.2c0,.1-.1,.1-.1,.2h.1q.1,0,.1,.1h-.1c-.1,.1-.1,.3-.2,.5v1.4c0,.3,0,.5,.1,.4s.1,.2,.1,.3Zm6.3-.9c-.08-.12-.11-.26-.1-.4v-.2l-.5-.7c-.1-.1-.1,0-.1,.2-.1,.86-.1,1.74,0,2.6,0,.2,0,.3,.1,.3h.4q.1-.1,.2,.3v.3c.07,.2,.07,.3,0,.3-.1,.2-.2,.3-.2,.5s-.4,.2-.5-.4c-.18-1.22-.22-2.47-.1-3.7,0-.3,0-.4-.2-.4h-4.9q-.2,0-.2,.5c-.1,.73-.1,1.47,0,2.2q0,.5,.2,.5h4.9c.1,0,.1-.1,.1,.2,.02,.31,.09,.61,.2,.9,.1,.3,0,.3-.1,.3h-4.9c0,.2,.1,.2,.2,.2h4.8c.3,0,.6-.2,.8-.8s.2-.2,.3-.2h1.1c-.18-1.29-.22-2.6-.1-3.9,0,.4-.1,.4-.2,.4h0c.1,0,.1,.1,.1,.2s0,.2-.1,.2h-.9c-.2,.1-.3-.1-.3,.6Zm4.2,.8h-.1c-.51,.52-1.18,.87-1.9,1h-.6q0,.2,.1,.2h0c.83-.02,1.64-.3,2.3-.8,.32-.29,.59-.62,.8-1,.1,0,.1-.1,.1-.2h-.1l-.2-.2c-.72-.82-1.82-1.2-2.9-1h-.1c-.1,0-.1,.1-.1,.2h.3c.73-.12,1.47,.02,2.1,.4l.5,.3-1.1-.4c-.57-.12-1.15-.09-1.7,.1-.1,0-.1,.1-.1,.2v1.1c0,.3,0,.4,.1,.4h1.3l1.2-.2,.1-.1Zm-7.6-2.9h-2.6c0,.2,.1,.1,.1,.1h2.5v-.1Zm-3,4.5c-.23-1.32-.27-2.67-.1-4,0-.42,.11-.83,.3-1.2,0-.1,.1-.1,.1-.2v-.2c-.1,0-.2,0-.2,.2s-.1,.3-.2,.5c-.17,1.06-.23,2.13-.2,3.2h.1v.4c0-.2,0-.3,.1-.4v.7c0,.2-.1,.3-.1,.4,.02,.37,.09,.74,.2,1.1,0-.2-.1-.4-.1-.6h.1v.1Zm-.5-.4c.1,0,.1-.1,.1-.4-.1-.96-.1-1.94,0-2.9,0-.1,0-.3-.1-.3s-.1-.1-.2,.2v1.9c0,.3,0,.4,.1,.4s.1,.1,.1,.3,0,.3-.1,.3-.1,.1,0,.2,0,.3,.1,.3Zm11-3c-.63-.7-1.58-1-2.5-.8,.9,0,1.77,.29,2.5,.8Zm-4.7-1h0l.5,.6h0l-.3-.5-.2-.1Z"/><path class="cls-2" d="M19.4,94.9l-.4,.4h-4.7c-.11-.19-.11-.41,0-.6h4.5l.6,.2Z"/><path class="cls-2" d="M20.3,94.8c0,.4,.1,.4,.2,.4h1c.1,0,.1,.1,.2,.4v.4q0,.3-.1,.3h-1.1c0,.1-.1,0-.1-.2-.08-.43-.12-.86-.1-1.3Z"/><path class="cls-2" d="M21.1,94.3h.3q.1,.1,.1,.3t-.1,.2h-.9c0-.1,0-.2,.1-.2l.5-.3Z"/><path class="cls-2" d="M19.8,95h-.1v-.2c.1-.1,.2-.2,.3-.1h.1l-.3,.3Z"/></g><g><path class="cls-2" d="M17.5,118.3h-2.6c-.2,0-.3-.1-.5-.5h-.1c-.1,.4-.2,.5-.4,.5h0c-.3,0-.5-.1-.6-1.2-.28-1.69-.32-3.4-.1-5.1,.1-.3,.1-.5,.2-.8s.2-.4,.3-.4h.3c.1,0,.2,.1,.3,.4s.1,.2,.2,0,.2-.4,.3-.4h5.3l.3,.3c.3,.6,.6,.8,.9,.8h.9l.3,.3h.1c.74,.03,1.45,.31,2,.8,.38,.32,.72,.69,1,1.1v.2c.09,.15,.09,.35,0,.5l-.4,.6c-.54,.72-1.32,1.22-2.2,1.4h-.6c-.1,.2-.2,.2-.3,.2h-1.1c-.13,0-.23,.1-.3,.3-.3,.6-.6,.8-.9,.8l-2.3,.2Zm-3.4-2.9c0,.3-.1,.4-.2,.4v.3c0,.1,.1,.1,.1,.2,.02,.24,.09,.48,.2,.7h-.1c0,.3,.1,.4,.2,.4-.12-.63-.18-1.26-.2-1.9-.07-1.07-.03-2.14,.1-3.2-.1,0-.1,.1-.2,.2v.2h0c-.1,.1-.1,.3-.1,.6-.08,.46-.12,.93-.1,1.4,0,.2,0,.5,.1,.4s.1,.2,.2,.3Zm6.4-.9v-.4c0-.11-.03-.22-.1-.3l-.5-.7c-.1-.1-.1,0-.1,.2-.1,.9-.1,1.8,0,2.7,0,.2,0,.3,.1,.3h.4c.1-.1,.2-.1,.2,.3-.01,.14,.02,.28,.1,.4,0,.11-.03,.22-.1,.3l-.2,.4c-.1,.1-.4,.3-.5-.4-.17-1.26-.23-2.53-.2-3.8,.1-.3,0-.4-.1-.4h-5.1c-.2,0-.2,.1-.2,.5v2.3q0,.5,.2,.5h5.1q.1,0,.1,.2c.02,.34,.09,.68,.2,1,.1,.3,0,.2-.1,.2h-5.1c.1,.2,.2,.1,.2,.1h5c.3,0,.6-.1,.8-.7s.2-.3,.4-.3h1.1c-.18-1.36-.22-2.73-.1-4.1,0,.4-.1,.5-.2,.5h-1.1s-.1-.1-.1,.1h1.2c.07,.08,.11,.19,.1,.3v.2h-1c-.2,0-.4-.1-.4,.6Zm4.3,.8h0c-.59,.53-1.32,.88-2.1,1h-.4c.83-.02,1.64-.3,2.3-.8l.9-1c0-.1,.1-.1,.1-.2h-.1l-.2-.3c-.8-.77-1.9-1.13-3-1h0c.79-.07,1.58,.07,2.3,.4l.4,.4-1.1-.5c-.6-.07-1.21-.03-1.8,.1,0,.1-.1,.1,0,.3v1.1c0,.3,0,.4,.1,.4h1.3l1.3-.2v.3Zm-7.8-3h-2.5c-.1,0-.2,0-.2,.1h2.7v-.1Zm-3.1,4.6c-.23-1.35-.27-2.74-.1-4.1l.3-1.2v-.2c0-.2-.1-.2-.1-.2h-.2c-.02,.21-.09,.42-.2,.6-.13,1.09-.17,2.2-.1,3.3v.4c.1-.2,0-.3,.1-.5v.8c0,.2-.1,.3-.1,.4,.02,.37,.09,.74,.2,1.1,.1,.3-.1-.3,0-.6v.3c.1-.2,0-.3,0-.5l.2,.4Zm-.5-.4c.1,0,.1-.1,.1-.4-.1-.96-.1-1.94,0-2.9,0-.2,0-.4-.1-.4s-.1-.1-.2,.3v1.9c0,.2,0,.4,.1,.4s.1,.1,.1,.3,0,.3-.1,.3v.3q0,.2,.1,.2Zm11.3-3c-.62-.72-1.57-1.06-2.5-.9,.91-.01,1.8,.31,2.5,.9Zm-4.8-1.1h0l.5,.7h0l-.3-.5-.2-.2Z"/><path class="cls-2" d="M19.6,115.3c-.2,.2-.3,.3-.5,.3h-4.8v-.7h4.7c.26,.01,.49,.17,.6,.4Z"/><path class="cls-2" d="M20.5,115.1c0,.5,.1,.5,.2,.5h1.1c.08,.12,.11,.26,.1,.4s.02,.28,.1,.4c0,.3,0,.4-.1,.4h-1.1c-.1,.1-.2,0-.2-.2-.08-.5-.12-1-.1-1.5Z"/><path class="cls-2" d="M21.4,114.6h.3c.07,.08,.11,.19,.1,.3v.2h-.9s-.1,0-.1-.2,0-.1,.1-.1l.5-.2Z"/><path class="cls-2" d="M20,115.4q-.1,0-.1-.1v-.2l.4-.2h0v.2l-.3,.3Z"/></g><g><g><g><path class="cls-1" d="M17.5,176.1h-2.6c-.2,0-.3-.2-.4-.5h-.2c-.1,.4-.2,.5-.4,.5h0c-.3,0-.5-.1-.6-1.2-.28-1.69-.32-3.4-.1-5.1,.1-.3,.1-.6,.2-.8s.2-.5,.3-.4h.3c.1-.1,.2,.1,.3,.3s.1,.3,.2,.1,.2-.4,.3-.4h5.3c.2,0,.4,.1,.4,.3s.5,.8,.8,.7h1c.1,0,.2,0,.2,.2s.1,.1,.2,.1c.69,.12,1.34,.39,1.9,.8l1.1,1.1c0,.1,0,.2,.1,.2,.11,.19,.11,.41,0,.6l-.4,.5c-.54,.78-1.37,1.32-2.3,1.5h-.6c0,.2-.2,.2-.3,.2h-1.2l-.3,.3c-.13,.41-.48,.71-.9,.8l-2.3,.2Zm-3.4-2.8c0,.2-.1,.4-.2,.4v.4c.2,.1,.2,.5,.2,.8h-.1c0,.3,.1,.4,.2,.4-.12-.63-.18-1.26-.2-1.9,0-1.1,0-2.2,.1-3.3l-.2,.3h.1q0,.2-.1,.2c-.1,0-.1,.2-.1,.5-.08,.5-.12,1-.1,1.5,0,.2,0,.5,.2,.4l.2,.3Zm6.5-1c-.08-.12-.11-.26-.1-.4v-.2c-.1-.3-.4-.5-.6-.7s-.1,0-.1,.2v2.7c0,.11,.03,.22,.1,.3h.4c.1-.2,.2-.1,.2,.3s.1,.2,.1,.4v.3l-.3,.4c-.2,.2-.3,.3-.4-.4-.22-1.25-.28-2.53-.2-3.8,0-.3,0-.4-.1-.4h-5.2q-.2,0-.2,.5v2.2c.1,.5,0,.5,.2,.5h5.2s.1,0,.1,.2,.1,.7,.1,1.1v.2h0c.3,0,.6-.1,.9-.7l.3-.3h1.1c-.18-1.36-.22-2.73-.1-4.1,0,.4-.1,.4-.2,.4h.1v.4h-1.1c-.1,.4-.3,.2-.2,.9Zm4.3,.9q0,.1-.1,.1c-.54,.54-1.24,.89-2,1h-.5s-.1-.1-.1,0v.2h.1c.86,.02,1.68-.3,2.3-.9,.38-.26,.69-.6,.9-1h.1v-.2l-.2-.2c-.79-.86-1.96-1.24-3.1-1h.1c.79-.12,1.6,.02,2.3,.4,.1,.1,.3,.1,.4,.3l-1.1-.4c-.6-.12-1.22-.08-1.8,.1-.1,0-.1,.1-.1,.3v1c0,.3,.1,.4,.2,.4h1.2l1.3-.3,.1,.2Zm-7.8-3h-2.6c-.1,0-.2-.1-.2,.1h5.5q0-.1-.1-.1h-2.6Zm-3.2,4.6c-.18-1.39-.22-2.8-.1-4.2l.3-1.2c.1,0,.1-.1,.1-.2v-.2c-.1,0-.2,0-.2,.2s-.1,.3-.2,.5c-.13,1.13-.17,2.27-.1,3.4v-.2h0c-.02,.17,.02,.35,.1,.5,0-.2-.1-.4,0-.5,.1,.33,.1,.67,0,1v-.2c0,.2-.1,.3-.1,.4,.02,.37,.09,.74,.2,1.1,.1,.4-.1-.3,0-.6v.3c0-.2-.1-.3-.1-.5l.1,.4Zm-.5-.4c.1,0,.1-.1,.1-.4-.1-1-.1-2,0-3,0-.1,0-.3-.1-.3s-.1-.2-.2,.2v2c0,.2,0,.4,.1,.3s.1,.1,.1,.3,0,.3-.1,.4v.2q0,.3,.1,.3Zm11.4-3.1c-.68-.63-1.58-.95-2.5-.9,.91-.01,1.8,.31,2.5,.9Zm-4.8-1h-.1l.6,.7h0c-.07-.21-.22-.38-.4-.5l-.1-.2Z"/><path class="cls-1" d="M19.6,173.2c-.1,.2-.2,.3-.4,.3h-4.9v-.3c0-.2,0-.3,.1-.4s0-.1,.1-.1h4.5l.6,.5Z"/><path class="cls-1" d="M20.6,173c0,.4,.1,.5,.2,.5h1c.1,0,.2,0,.2,.3v.5c.1,.3,0,.3,0,.3h-1.2c-.1,.1-.1,0-.1-.2-.13-.45-.17-.93-.1-1.4Z"/><path class="cls-1" d="M21.4,172.5h.3q.1,0,.1,.2c0,.2,0,.3-.1,.3h-.9l.6-.5Z"/><path class="cls-1" d="M20,173.3c0-.1-.1,0-.1-.1v-.2l.3-.2h0l-.2,.5Z"/></g><g><path class="cls-1" d="M17.5,195.7h-2.6c-.2,0-.3-.1-.4-.4s-.1-.1-.2,0-.2,.5-.4,.4h0c-.3,.1-.5,0-.6-1.1-.28-1.69-.32-3.4-.1-5.1,.1-.3,.1-.6,.2-.8s.2-.5,.3-.5c.07,.08,.2,.09,.28,.02l.02-.02h0c.1,0,.2,.2,.3,.4s.1,.2,.2,.1,.2-.5,.3-.5c1.77,.1,3.53,.1,5.3,0,.2,0,.3,.1,.4,.3s.5,.9,.8,.8c.33-.1,.67-.1,1,0,.1,0,.2,0,.2,.2h.2c.69,.12,1.34,.39,1.9,.8,.42,.31,.79,.68,1.1,1.1v.2c.11,.19,.11,.41,0,.6l-.4,.5c-.56,.76-1.38,1.3-2.3,1.5h-.6c0,.3-.2,.3-.3,.3h-1.1c-.1,0-.2,0-.3,.3-.13,.41-.48,.71-.9,.8l-2.3,.1Zm-3.4-2.9c0,.3-.1,.5-.2,.5v.4c.2,.1,.2,.5,.2,.8s-.1-.2-.1-.2c0,0,.1,.5,.2,.5-.12-.66-.18-1.33-.2-2,0-1,0-2.1,.1-3.2l-.2,.2v.2h.1q0,.2-.1,.2c-.1,0-.1,.2-.1,.5-.08,.5-.12,1-.1,1.5,0,.2,0,.4,.2,.4s-.1,.1,0,.2h.2Zm6.5-.9c-.08-.12-.11-.26-.1-.4v-.2c-.1-.3-.4-.5-.6-.7s-.1,0-.1,.1v2.8c0,.2,.1,.2,.1,.3s.3,0,.4-.2,.2,0,.2,.4c.07,.08,.11,.19,.1,.3v.4l-.3,.4c-.2,.2-.3,.3-.4-.4-.22-1.25-.28-2.53-.2-3.8,0-.3,0-.4-.1-.4h-5.2q-.2,0-.2,.5v2.2c.1,.5,0,.5,.2,.5h5.2s.1,0,.1,.2,.1,.7,.1,1.1h0c.3,0,.6-.1,.9-.7l.3-.3h1.1c-.18-1.33-.22-2.67-.1-4,0,.4-.1,.4-.2,.4h.1v.4h-1.1c-.1,.4-.3,.2-.2,.9v.2Zm4.3,.9h-.1c-.49,.59-1.23,.92-2,.9h-.6v.2h.1c.86,.02,1.68-.3,2.3-.9,.38-.26,.69-.6,.9-1h.1v-.2l-.2-.2c-.79-.86-1.96-1.24-3.1-1h.1c.79-.12,1.6,.02,2.3,.4,.1,.1,.3,.1,.4,.3l-1.1-.4c-.6-.12-1.22-.08-1.8,.1-.1,0-.1,.1-.1,.2v1.1c0,.3,.1,.4,.2,.4h1.2l1.3-.3q.1,.3,.1,.4Zm-7.8-3h-2.6c-.1,0-.2-.1-.2,.1h5.5c0-.2-.1-.1-.1-.1h-2.6Zm-3.2,4.6c-.18-1.39-.22-2.8-.1-4.2l.3-1.2v-.2q0-.1-.1-.2c-.1-.1-.2,0-.2,.2s-.1,.3-.2,.5c-.13,1.09-.17,2.2-.1,3.3h0c-.02,.17,.02,.35,.1,.5,0-.2-.1-.4,0-.5,.1,.33,.1,.67,0,1v-.2c0,.2-.1,.3-.1,.4,.02,.37,.09,.74,.2,1.1,.1,.4-.1-.4,0-.6v.3c0-.2-.1-.3-.1-.5l.3,.3Zm-.5-.4c.1,0,.1-.1,.1-.4-.1-1-.1-2,0-3,0-.1,0-.3-.1-.3s-.1-.2-.2,.2v2c0,.2,0,.4,.1,.3s.1,.1,.1,.3,0,.3-.1,.3v.3c0,.2,0,.3,.1,.3h0Zm11.4-3.1c-.68-.63-1.58-.95-2.5-.9,.91-.01,1.8,.31,2.5,.9Zm-4.8-1h-.1l.6,.7h0c-.07-.21-.22-.38-.4-.5l-.1-.2Z"/><path class="cls-1" d="M19.6,192.8c-.1,.2-.2,.3-.4,.3h-4.9v-.4c0-.11,.03-.22,.1-.3h4.6c.2,.1,.4,.1,.6,.4Z"/><path class="cls-1" d="M20.6,192.6c0,.4,.1,.5,.2,.5h1c.1,0,.2,.1,.2,.4v.5c.1,.3,0,.3,0,.3h-1.2c-.1,.1-.1,0-.1-.2-.13-.49-.17-1-.1-1.5Z"/><path class="cls-1" d="M21.4,192.1h.3q.1,.1,.1,.3t-.1,.3h-.9l.6-.6Z"/><path class="cls-1" d="M20,192.9h-.1c0-.2,.1-.2,.1-.2l.3-.2h0c0,.2-.2,.3-.3,.4Z"/></g><g><path class="cls-1" d="M17.5,215.4h-2.6c-.2,0-.3-.1-.4-.5h-.2c-.1,.4-.2,.5-.4,.5h0c-.3,.1-.5-.1-.6-1.2-.28-1.69-.32-3.4-.1-5.1,.1-.3,.1-.6,.2-.8s.2-.4,.3-.4h.3c.1,0,.2,.1,.3,.4s.1,.2,.2,0,.2-.4,.3-.4h5.3c.2,0,.3,.1,.4,.3s.5,.8,.8,.7h1c.1,0,.2,.1,.2,.3h.2c.71,0,1.4,.29,1.9,.8l1.1,1.1v.2c.09,.15,.09,.35,0,.5l-.4,.6c-.56,.76-1.38,1.3-2.3,1.5h-.6c0,.3-.2,.3-.3,.3h-1.1c-.1-.1-.2,0-.3,.2s-.6,.8-.9,.8l-2.3,.2Zm-3.4-2.9c0,.18-.08,.36-.2,.5v.2q0,.1,.1,.2c.11,.22,.18,.46,.2,.7h-.1c0,.18,.08,.36,.2,.5-.12-.66-.18-1.33-.2-2,0-1.1,0-2.2,.1-3.2l-.2,.2v.2h0c-.1,.1-.1,.3-.1,.6-.08,.46-.12,.93-.1,1.4,0,.3,0,.5,.2,.4l.1,.3Zm6.5-.9c-.08-.12-.11-.26-.1-.4v-.3l-.6-.7c-.1-.1-.1,0-.1,.2v2.8q0,.1,.1,.2h.4c.1-.1,.2,0,.2,.3,.08,.12,.11,.26,.1,.4v.3l-.3,.5c-.2,.2-.3,.2-.4-.5-.22-1.25-.28-2.53-.2-3.8,0-.3,0-.4-.1-.4h-5.2c-.2,0-.2,.1-.2,.5v2.3c.1,.5,0,.5,.2,.5h5.2s.1,0,.1,.2,.1,.7,.1,1v.3h-5.2c.1,.2,.2,.1,.2,.1h5c.3,0,.6-.2,.9-.8s.2-.3,.3-.3h1.1c-.18-1.36-.22-2.73-.1-4.1,0,.4-.1,.5-.2,.5h-1c-.1,0-.1-.1-.2,.1h1.3v.5h-1.1c-.1,0-.3-.1-.2,.6Zm4.3,.8h-.1c-.54,.54-1.24,.89-2,1h-.4c.83-.02,1.64-.3,2.3-.8l.9-1v-.2h-.1l-.2-.3c-.84-.77-1.97-1.13-3.1-1h.1c.79-.07,1.58,.07,2.3,.4,.1,.1,.3,.2,.4,.4l-1.1-.5h-1.7q-.1,.1-.1,.3v1.1c0,.3,.1,.4,.2,.4h1.2l1.3-.2,.1,.4Zm-7.8-3h-2.8c0,.2,.1,.1,.2,.1h2.6v-.1Zm-3.2,4.7c-.18-1.39-.22-2.8-.1-4.2l.3-1.2v-.2c0-.2-.1-.2-.1-.2h-.2l-.2,.6c-.13,1.09-.17,2.2-.1,3.3h0c-.01,.14,.02,.28,.1,.4,0-.2-.1-.3,0-.4,.1,.29,.1,.61,0,.9h0c0,.2-.1,.3-.1,.4,.02,.41,.08,.81,.2,1.2,.1,.4-.1-.4,0-.6v.3c0-.2-.1-.4-.1-.6l.3,.3Zm-.5-.5c.1,0,.1-.1,.1-.4-.1-.96-.1-1.94,0-2.9,0-.2,0-.4-.1-.4s-.1-.1-.2,.2v2c0,.2,0,.4,.1,.4s.1,.1,.1,.3,0,.3-.1,.3v.3q0,.2,.1,.2Zm11.4-3c-.62-.72-1.57-1.06-2.5-.9,.91-.01,1.8,.31,2.5,.9Zm-4.8-1.1h-.1l.6,.7h0l-.4-.5-.1-.2Z"/><path class="cls-1" d="M19.6,212.4l-.4,.4h-4.9v-.3c0-.2,0-.3,.1-.3h4.6l.6,.2Z"/><path class="cls-1" d="M20.6,212.3c0,.4,.1,.4,.2,.4h1c.1,0,.2,.1,.2,.4v.5c.1,.2,0,.3,0,.3h-1.2c-.1,.2-.1,.1-.1-.2-.13-.45-.17-.93-.1-1.4Z"/><path class="cls-1" d="M21.4,211.8c.1,0,.2-.1,.3,0s.1,.1,.1,.3,0,.2-.1,.2h-.9s-.1,0-.1-.2h.1c.14-.2,.36-.31,.6-.3Z"/><path class="cls-1" d="M20,212.5h-.1v-.2c.04-.1,.15-.16,.25-.12,.02,0,.03,.01,.05,.02h.1v.2l-.3,.1Z"/></g></g><rect class="cls-3" x="247.2" y="181.1" width="87.8" height="22.01"/></g><g><g><path class="cls-2" d="M167.5,273.8v-.9h0v-.6h.3v1c.1,.5,0,.4,0,.7h0c0,.2,0,.6-.1,.6h0c-.08-.19-.11-.39-.1-.6h-.1v-.2h0Z"/><path class="cls-2" d="M167.8,272.4h.3l.2,1.3h0v.2h0c0,.1,0,.8-.1,.8s-.1-.2-.1-.3c-.08-.22-.12-.46-.1-.7-.11-.42-.18-.86-.2-1.3Z"/><path class="cls-2" d="M168.3,272.3c.1-.1,.1,0,.1,0,0,0-.1-.2,.3,1.3h0c.08,.26,.12,.53,.1,.8q0,.1-.1,.1h0l-.2-.5h0v-.2c-.1-.2-.1-.1-.1-.4,0-.39-.1-.77-.3-1.1h.2Z"/><path class="cls-2" d="M168.4,272.2h.3s.1,.1,0,.1h.1l.3,1.1h0v.3h0c.08,.15,.12,.33,.1,.5h0c-.17-.15-.28-.37-.3-.6q-.1-.1-.1-.2h-.1l-.3-1.1h0s.1,0,0-.1Z"/><path class="cls-2" d="M168.8,272.2h.3c.18,.31,.31,.65,.4,1v.2h.1c.3,.8-.1,.4-.4-.1s0-.1-.1-.2c-.7-1.9,.2,.2-.3-.9Z"/><path class="cls-2" d="M169.1,272h.2s0-.1,.4,.6v.2c.13,.09,.2,.24,.2,.4,.2,.4-.1,.1-.4-.3v-.2c-.4-.7-.4-.6-.4-.7Z"/><path class="cls-2" d="M169.4,272c-.1-.2,0-.1-.1-.1h.2l.5,.7v.2h0l.3,.5c-.1,.1-.5-.5-.5-.5v-.2c0-.1-.2-.3-.4-.6Z"/><path class="cls-2" d="M169.5,271.7h.2l.7,.8h0c.3,.3,.4,.6,.1,.4s-.1-.1-.1-.2h-.3l-.6-1Z"/><path class="cls-2" d="M169.8,271.5h.1l.7,.7h0l.2,.3c-.1,.1-.3-.3-.4-.3h-.1q-.5-.6-.5-.7Z"/><path class="cls-2" d="M170,271.4h.1l.8,.8h0l-.9-.8Z"/><path class="cls-2" d="M170.1,271.1h0s.1-.3,.2-.2h-.1q.1,0,.1,.1h0c0-.1-.1-.1,.7,.4h.1v.2h0c0,.1-.1,.2-.1,.1h-.2l-.8-.7,.1,.1Z"/><path class="cls-2" d="M170.4,270.9h-.1v-.2h.1c.4,.2,.6,.3,.7,.5s0,.2-.3,0l-.4-.3Z"/><path class="cls-2" d="M170.5,270.6h0c-.1-.1-.1,0,0-.2h.1l.6,.2h-.7Z"/><path class="cls-2" d="M170.7,270.3h-.1s-.1,0,0-.1h.2l.4,.2h.2c0,.1,0,.2-.1,.2h-.1l-.5-.3Z"/><path class="cls-2" d="M170.7,270h0c-.1,0,0-.1,0-.1h.7l.3,.2h-1v-.1Z"/><path class="cls-2" d="M170.8,269.7h-.1c0,.1,0-.2,.1-.2h0q0-.1,.1-.1l.7,.2c0,.2-.4,.1-.5,.1s-.3,.1-.3,0Z"/><path class="cls-2" d="M170.9,269.5h-.1s-.1-.2,0-.2h.5c.3,0,.3,.3,0,.2h-.4Z"/><path class="cls-2" d="M170.8,269.2h0c0-.1-.1-.1,.2-.1s.6,0,.5,.1h-.7Z"/></g><g><path class="cls-2" d="M162.7,269h1.5s-.1,0,0-.1v.3h-1.5v-.2Z"/><path class="cls-2" d="M164.1,269.4h.1s.1,.2,0,.2h-.1l-1.2,.2h-1.1c0-.1,.1-.1,.3-.2h2v-.2Z"/><path class="cls-2" d="M164.3,269.9h-.1l-1.2,.3h-.2c-.5,.2-.6,.2-.8,.1h0l.5-.2h.3c.1,0,0-.1,.3-.1l1.1-.2h0c.1-.2,.1,0,.1,.1Z"/><path class="cls-2" d="M164.3,270v.2q0,.1-.1,.1h-.1l-1.1,.4h0s-.2,0-.2,.1h-.7l.6-.3s.2,0,.2-.1h.2l1-.4h.2Z"/><path class="cls-2" d="M164.4,270.3h0c.1,0,.2,.2,.1,.2h-.1l-1,.5h-.4c-.8,.3-.4-.1,.2-.3l.2-.2,1-.2Z"/><path class="cls-2" d="M164.5,270.6h.1q.1,.1,.1,.2h-.1l-.7,.4h-.2l-.3,.2c-.5,.1-.2-.2,.3-.4s0-.1,.1-.1l.7-.3Z"/><path class="cls-2" d="M164.5,270.9h.2s.2,.2,.1,.2h-.1l-.6,.4-.3,.2h0l-.4,.2c-.2,0,.5-.5,.5-.5h.1l.5-.5Z"/><path class="cls-2" d="M164.9,271.1h0l-.8,.6h-.1c-.3,.2-.5,.3-.3,.1s.1-.1,.1-.2h.2q0-.1,.1-.1h0l.8-.4Z"/><path class="cls-2" d="M165,271.3h.1c0-.1,.1,.1,.1,.1h-.1l-.7,.6h0l-.3,.3c-.1-.1,.2-.3,.3-.5h.1l.5-.5Z"/><path class="cls-2" d="M165.2,271.5h0c0-.1,.1,0,.1,0,0,0,.1,.1,0,.1h0l-.8,.8h0c-.1-.1,.1-.3,.7-.9Z"/><path class="cls-2" d="M165.4,271.6h0c.1,0,.3,.1,.2,.2h0l-.5,.7h-.1v.2h-.1l.6-.7h0l-.1-.4Z"/><path class="cls-2" d="M165.6,271.9h.3c-.1,0,0,0-.1,.1s-.3,.6-.4,.6-.2,0-.1-.3l.3-.4Z"/><path class="cls-2" d="M165.9,272.1h.1s0-.1,.1,0h0c.1,.1,0,.1-.2,.6h-.1c-.1,.1-.1,0-.2,0h0c0-.1,.1-.1,0-.1h.1q-.1-.1,0-.1c.1,0,.2-.4,.2-.4Z"/><path class="cls-2" d="M166.2,272.2s.1,0,0-.1h.2v.5l-.2,.2h-.2v-.2l.2-.4Z"/><path class="cls-2" d="M166.5,272.3h.2c-.1,.3,0,.2-.1,.5h-.1c0,.1-.1,.3-.2,.2s.1-.3,.1-.4l.1-.3Z"/><path class="cls-2" d="M166.8,272.3h0c0-.1,.3-.1,.2,0h0c0,.1-.1,.7-.2,.7s-.1-.3-.1-.5l.1-.2Z"/><path class="cls-2" d="M167.1,272.4h.2c0,.1-.1,.1,0,.1v.4c.1,.1,0,.1,0,.1,0,0-.2,.2-.2-.1-.09-.15-.09-.35,0-.5Z"/><path class="cls-2" d="M167.4,272.3h0q.1,0,.1,.3c0,.3,0,.5-.1,.5s0-.4,0-.5v-.3Z"/></g><g><path class="cls-2" d="M167.5,264.2v.9h0v.5h-.3v-1.1c-.1-.5,0-.3,0-.7h0c0-.2,0-.7,.1-.7h0c.08,.22,.12,.46,.1,.7h.1v.4h0Z"/><path class="cls-2" d="M167.2,265.6h-.3l-.2-1.3v-.2h0c0-.1,0-.7,.1-.7s.1,.2,.1,.3c.08,.22,.12,.46,.1,.7,.12,.39,.18,.79,.2,1.2Z"/><path class="cls-2" d="M166.7,265.8h-.1s.1,.2-.3-1.3h0c-.08-.29-.12-.6-.1-.9h.1l.2,.5h0v.2c.1,.2,.1,0,.1,.4l.3,1h0c0,.1-.2,.1-.2,.1Z"/><path class="cls-2" d="M166.6,265.8h-.3v-.2l-.3-1h0c0-.1-.1-.2-.1-.3h0c-.08-.15-.12-.33-.1-.5h0l.3,.6c0,.1,.1,.2,.1,.3h.1l.3,1.1Z"/><path class="cls-2" d="M166.2,265.9h0s-.2,.1-.2,0h-.1l-.4-.9q0-.1-.1-.2h0v-.2c-.2-.7,.1-.3,.4,.2v.2l.4,.9Z"/><path class="cls-2" d="M165.9,266h-.2l-.4-.6v-.2c-.1-.11-.17-.25-.2-.4-.2-.5,.1-.1,.4,.3s0,0,.1,.2l.3,.7Z"/><path class="cls-2" d="M165.6,266.1h-.1l-.5-.7v-.2h0l-.3-.4c.1-.1,.5,.5,.5,.5h.1c.2,.22,.31,.5,.3,.8Z"/><path class="cls-2" d="M165.5,266.4h-.2c-.18-.31-.42-.58-.7-.8h0c-.3-.3-.4-.6-.1-.4s.1,.1,.1,.2h.3l.6,1Z"/><path class="cls-2" d="M165.2,266.5h-.1l-.7-.7h0l-.2-.3c.1-.1,.3,.3,.4,.3h.1l.5,.7Z"/><path class="cls-2" d="M165,266.7h-.1l-.8-.7h0c.1,0,.3,.1,.9,.7Z"/><path class="cls-2" d="M164.9,267h0s-.1,.2-.2,.1h0l-.7-.4h-.1v-.2h.3l.8,.6h-.1v-.1Z"/><path class="cls-2" d="M164.6,267.2h.1c0,.1,0,.2-.1,.2h-.1c-.4-.2-.6-.3-.7-.5s0-.2,.3-.1l.5,.4Z"/><path class="cls-2" d="M164.5,267.5h0q.1,0,0,.1h-.1l-.6-.3h.1l.6,.2Z"/><path class="cls-2" d="M164.3,267.8h.1v.2h-.2l-.4-.2h-.2q0-.2,.1-.2h.1s.5,.1,.5,.2Z"/><path class="cls-2" d="M164.3,268h0c.1,0,0,.1,0,.1h-.7c-.1-.1-.3-.1-.3-.2h1v.1Z"/><path class="cls-2" d="M164.2,268.3h.1c0-.1,0,.2-.1,.1h-.1c-.1,0-.7,0-.7-.2s.4-.1,.5,0l.3,.1Z"/><path class="cls-2" d="M164.1,268.6h.1s.1,.2,0,.2h-.5c-.3,0-.3-.3,0-.3l.4,.1Z"/><path class="cls-2" d="M164.2,268.9h0c0,.2,.1,.1-.2,.1s-.6,.1-.5-.1h.7Z"/></g><g><path class="cls-2" d="M172.3,269h-1.5v-.2h1.5v.2Z"/><path class="cls-2" d="M170.9,268.7h-.1s-.1-.2,0-.2h.1l1.2-.2h.4c.1-.1,.8-.1,.7,0h-.3l-.7,.2-1.3,.2Z"/><path class="cls-2" d="M170.7,268.2h.1l1.2-.3h1l-.5,.2h-.6l-1.1,.2h0c-.1,.2-.1,0-.1-.1Z"/><path class="cls-2" d="M170.7,268.1v-.3h.2l1.1-.4h.9l-.6,.3h-.4l-1,.4h-.2Z"/><path class="cls-2" d="M170.6,267.7h0c-.1-.04-.16-.15-.12-.25,0-.02,.01-.03,.02-.05h.1l1-.5h.4c.8-.3,.4,0-.2,.3h-.2c-1.9,1,.2,.1-1,.5Z"/><path class="cls-2" d="M170.5,267.5h-.1v-.2h.1c0-.1-.1,0,.7-.4h.2l.3-.2c.5-.1,.2,.2-.3,.4h-.1l-.8,.4Z"/><path class="cls-2" d="M170.5,267.1h-.2l.6-.5h.3l.4-.2c.2,0-.5,.5-.5,.5h-.1l-.5,.2Z"/><path class="cls-2" d="M170.1,267h0l.8-.6h.1c.3-.2,.5-.3,.3-.1h-.4l-.8,.7Z"/><path class="cls-2" d="M170,266.8h-.1c.9-.9,.4-.4,.7-.6h0l.3-.2c.1,.1-.2,.3-.3,.4v.2c-.6,.1-.6,.2-.6,.2Z"/><path class="cls-2" d="M169.8,266.6h-.1q-.1-.1,0-.1h0l.8-.8h0c.1,.1-.1,.3-.7,.9Z"/><path class="cls-2" d="M169.6,266.5h0c-.1,0-.3-.2-.2-.2h0c0-.1,0,0,.5-.7s.1-.1,.1-.1h.2c0,.1,.1,.1,.1,.2s0,.1-.1,.1h0l-.6,.7Z"/><path class="cls-2" d="M169.4,266.2h-.2c.1-.1,.3-.6,.4-.6s.2,0,.1,.2l-.3,.4Z"/><path class="cls-2" d="M169.1,266q-.1,0-.1,.1h-.2q.1,0,.1-.1h0c-.1,0,0,0,.2-.6h.3c0,.1-.1,.1,0,.1h-.1q.1,0,0,.1c-.1,.11-.17,.25-.2,.4Z"/><path class="cls-2" d="M168.8,265.9h0s-.1,0,0,.1h-.2v-.5l.2-.2h.1v.6h-.1Z"/><path class="cls-2" d="M168.5,265.8h-.2c.1-.2,0-.1,.1-.4s0-.1,.1-.1h0c0-.1,.1-.3,.2-.3s-.1,.4-.1,.5l-.1,.3Z"/><path class="cls-2" d="M168.2,265.7h-.2c0-.1,.1-.7,.2-.7s.1,.3,.1,.5l-.1,.2Z"/><path class="cls-2" d="M167.9,265.7h-.2c0-.2,.1-.3,.1-.5h0c0-.2,.2-.2,.2,0s-.1,.3-.1,.5Z"/><path class="cls-2" d="M167.6,265.7h0c-.1-.1-.1,0-.1-.3s0-.5,.1-.5,0,.3,0,.5v.3Z"/></g></g><g><path class="cls-3" d="M308.8,25.8v-7.8l-7.6,1.2h-.1v7.8l7.7-1.3h0v.1Zm-5.1-4.4l2.7-.5v2.8l-2.7,.4v-2.7Z"/><path class="cls-3" d="M314.7,30.4v-7.7l-7.6,1.2h-.1v7.7l7.6-1.2h.1Zm-5.1-4.3l2.7-.5v2.8l-2.7,.4v-2.7Z"/></g><g><path class="cls-3" d="M21.1,320.6v-7.7l-7.7,1.2h0v7.7l7.6-1.2h.1Zm-5.2-4.3l2.7-.5v2.8l-2.7,.4v-2.7Z"/><path class="cls-3" d="M27,325.3v-7.7l-7.7,1.2h-.1v7.7l7.6-1.2h.2Zm-5.2-4.3l2.7-.5v2.8l-2.7,.4v-2.7Z"/></g></svg>