<svg xmlns="http://www.w3.org/2000/svg" xmlns:xlink="http://www.w3.org/1999/xlink" width="335" height="335" data-name="Layer 1"><defs><linearGradient id="b" x1="-.2" x2="42.5" y1="286.6" y2="337.9" gradientUnits="userSpaceOnUse"><stop offset="0" stop-color="#971699"/><stop offset="1" stop-color="#bd0b8a"/></linearGradient><linearGradient xlink:href="#b" id="d" x1="307.1" x2="318" y1="7.2" y2="74.2"/><linearGradient xlink:href="#b" id="e" x1="178.8" x2="328.7" y1="214.3" y2="214.3"/><radialGradient id="a" cx="167.5" cy="167.5" r="167.5" fx="167.5" fy="167.5" gradientUnits="userSpaceOnUse"><stop offset="0" stop-color="#290376"/><stop offset="1" stop-color="#1b0359"/></radialGradient><radialGradient xlink:href="#a" id="c" r="167.5"/></defs><g fill="#fcfbfb" opacity=".5"><path d="M65 156.1c-.2-.3-.2-.7-.2-1.1v-20.4c.1-2.1 1.1-3.8 2.7-5.1 1.3-1 2.7-1.5 4.2-1.9 1-.2 2-.3 3.1-.4h.5c0-.3-.2-.5-.3-.6-2.4-3.6-2.6-7.3-.8-11.2.6-1.3 1.6-2.3 2.8-3.2 3.1-2.1 7-1.8 9.7.9l.7.7c.2.3.4.7.6 1 .2.4.4.7.5 1.1 1.5 3.7 1.2 7.2-1 10.6-.1.2-.3.4-.5.6 1.1.2 2.1.2 3 .3.2 0 .3.1.5.2.6.2 1.2.3 1.8.5 1.5.5 2.8 1.4 4 2.6l.2.3v.2h.1c0 .2.1.3.2.5.6 1.1.8 2.3.8 3.5v20.6H65Zm25.6-17.2h-.1v-.6h.7v-.4c0-2.3-1-4.4-2.5-6.1h-.2c-.1-.2-.2-.4-.3-.5-1.2-1.1-2.6-2-4.2-2.4-.8-.2-1.6-.3-2.3-.4V125s0-.2-.1-.3h-.7v3.8l-1 .2c-2 .2-3.7 1.1-5.2 2.5a9.73 9.73 0 0 0-3.3 7.1h-3.3c-.2 0-.4 0-.5.2-.1.2-.1.5 0 .7.2.2.4.2.7.2h3.2c0 .6.1 1.2.3 1.7.6 2.2 1.6 4 3.5 5.4.5.6 1.2 1 1.9 1.2 1.2.7 2.5 1 3.9 1 .1 1.4 0 2.7 0 4.1h.6v-4.1c3.8-.2 6.5-2 8.4-5.2.3-.6.6-1.1.7-1.8.4-.8.5-1.6.4-2.4h-.6Zm4.6-.7s-.1-.2-.2-.2h-3.6c-.1.3-.1.5 0 .8H95c.1 0 .2-.1.3-.2v-.6Z"/><path d="M75.7 138.2c-.2 0-.4-.1-.6-.1h-3c0-4.2 3.2-7.9 7.3-8.7.5 0 1-.1 1.4-.2v3.7c-.9.1-1.7.3-2.5.8-1.6 1.1-2.5 2.5-2.5 4.4h-.2ZM80.8 128.5h.8v.7h-.8v-.7ZM90.4 139c0 .9-.3 1.7-.4 2.6-.4.9-.8 1.7-1.4 2.4a9.12 9.12 0 0 1-6.9 3.6v-3.7c2 0 4.2-1.6 4.9-3.8.1-.4.2-.7.2-1.1 1.2.2 2.4.1 3.6 0ZM81.7 148.4h-.9v-.9h.8v.9ZM90.4 138.1h-3.7c0-1.1-.3-2.1-1.1-2.9 0 0-.2-.1-.2-.2-.7-1-1.7-1.6-2.9-1.8l-.9-.2v-3.7c2.3.1 4.3 1 6 2.5.5.6 1 1.2 1.4 1.8a8.3 8.3 0 0 1 1.4 4.6Z"/><path d="m76.1 146-1.7-1.4-.4-.4c-.6-.9-1.2-1.9-1.5-3-.2-.7-.4-1.3-.3-2h3.7a5 5 0 0 0 2.3 3.8c.8.7 1.7.9 2.7 1v3.7c-1.4 0-2.6-.4-3.9-1-.3-.2-.6-.3-.9-.5ZM81.7 133.1v5h-.9v-5.2h.8v.2ZM81.8 138.9h-.1v-.7h5.1v.7h-5ZM80.9 138.9h-5v-.6h5v.7ZM80.8 143.9v-4.8h.8v4.8h-.8ZM72.1 138.3v.6h-.7v-.6h.8Z"/></g><path fill="url(#a)" d="M0 0h335v335H0z"/><g fill="#e13c00"><path d="M60 335h-.5L19.3 99.4l-.1-.4-.4-2.6-.1-.4-.4-2.5-.1-.4-.4-2.6-.1-.4-.4-2.5-.1-.5-.4-2.3v-.5l-.5-2.5-.1-.4-.4-2.6-.1-.4-.4-2.4-.1-.4-.4-2.6-.1-.4-.4-2.6-.1-.4-.4-2.4v-.4l-.5-2.6-.1-.4-.4-2.5v-.4l-.5-2.6-.1-.4-.4-2.5-.1-.4-.4-2.4-.1-.5-.4-2.5v-.4l-.5-2.6-.1-.4-.4-2.4v-.4l-.5-2.6-.1-.4-.4-2.5-.1-.5L2.3 0h.5l6.4 37.3v.5l.5 2.5v.4l.5 2.6v.4l.5 2.4v.5l.5 2.5v.4l.5 2.6v.4l.5 2.4v.4l.5 2.5v.5l.5 2.5v.4l.5 2.5v.5l.5 2.5v.4l.5 2.4v.5l.5 2.5v.4l.5 2.6v.4l.5 2.4v.4l.5 2.6v.4l.5 2.5v.5l.5 2.4v.4l.5 2.5v.4l.5 2.6v.4l.5 2.5v.4l.5 2.6v.4L60 335zM53.9 335h-.4L13.4 100.7v-.5l-.5-2.5v-.4l-.5-2.5v-.5l-.5-2.5v-.4l-.5-2.6-.1-.4-.4-2.4v-.4l-.5-2.5v-.5l-.5-2.5v-.4l-.5-2.5v-.4l-.5-2.5v-.5l-.5-2.5v-.4L8 68.5l-.1-.4-.5-2.6v-.4l-.5-2.5v-.4l-.5-2.6v-.4l-.5-2.6v-.4l-.4-2.4-.1-.4-.5-2.5v-.4l-.5-2.6v-.4L4 45.1l-.1-.5-.5-2.5v-.4l-.5-2.6v-.4L0 21.9v-2.5l3.3 19.2v.4l.5 2.6.1.4.4 2.5.1.5.4 2.4v.4l.5 2.6.1.4.4 2.5.1.5.4 2.3v.5l.5 2.5v.4l.5 2.6.1.4.4 2.5.1.4.4 2.6.1.4.4 2.4v.4l.5 2.6v.4l.5 2.5.1.4.4 2.5v.4l.5 2.5v.5l.5 2.5.1.4.4 2.4v.5l.5 2.5v.4l.5 2.6v.4l.5 2.5v.4l.5 2.6.1.4 40 234.4zM56.9 335h-.4L16.4 100l-.1-.4-.4-2.5-.1-.4-.4-2.6-.1-.4-.4-2.5-.1-.4-.4-2.6-.1-.4-.4-2.4-.1-.4-.4-2.6-.1-.4-.4-2.5-.1-.5-.4-2.4-.1-.4-.4-2.6-.1-.4-.4-2.5-.1-.5-.4-2.3-.1-.5-.4-2.5-.1-.4-.4-2.5-.1-.5-.4-2.5-.1-.4-.4-2.6-.1-.4-.4-2.4-.1-.4-.4-2.6-.1-.4-.4-2.5-.1-.4-.4-2.5-.1-.4-.4-2.5-.1-.5-.4-2.5-.1-.4L0 4.1V1.5L6.2 38l.1.4.4 2.5.1.5.4 2.5.1.4.4 2.5.1.4.4 2.5.1.4.4 2.6.1.4.4 2.4.1.4.4 2.6.1.4.4 2.5.1.5.4 2.5.1.4.4 2.5.1.5.4 2.4.1.4.4 2.5.1.4.4 2.6.1.4.4 2.5.1.4.4 2.5.1.4.4 2.6.1.4.4 2.4.1.4.4 2.6.1.4.4 2.5.1.4.4 2.6.1.4.4 2.5.1.5 40.1 235zM50.9 335h-.4L10.6 101.3l-.1-.4-.4-2.6-.1-.4-.4-2.5-.1-.4-.4-2.6L9 92l-.4-2.5-.1-.5-.4-2.4-.1-.4-.4-2.5-.1-.5-.4-2.5-.1-.4-.4-2.5-.1-.4-.4-2.5-.1-.4-.4-2.6-.1-.4-.4-2.4-.1-.4-.4-2.6-.1-.4-.4-2.5-.1-.4-.4-2.6-.1-.4-.4-2.5-.1-.5-.4-2.3-.1-.5-.4-2.5-.1-.4-.4-2.6-.1-.4-.4-2.4-.1-.5-.4-2.5-.1-.4-.5-2.6v-3.1l.5 2.6v.4l.5 2.6v.4l.5 2.6v.4L2 48v.4l.5 2.6v.4l.5 2.5v.5l.4 2.4.1.4.5 2.5v.4l.5 2.6v.4l.5 2.5v.4l.5 2.6v.4l.4 2.4.1.4.5 2.6v.4l.5 2.5v.5l.4 2.4.1.4.5 2.6v.4l.5 2.5v.4l.4 2.4.1.5.4 2.5.1.4.5 2.6v.4l.5 2.5v.4l.5 2.6v.4L50.9 335zM44.8 335h-.4L4.7 102.6v-.5l-.5-2.5v-.4l-.5-2.6v-.4h-.1l-.4-2.5-.1-.4-.4-2.6-.1-.4-.4-2.4v-.4l-.5-2.6v-.4L1.2 82l-.1-.4-.4-2.5v-.4l-.5-2.5v-.5l-.2-.8v-2.6.4l.1.4.5 2.5v.5l.5 2.5.1.4.4 2.5v.4l.5 2.5v.4l.5 2.6.1.4.4 2.4v.4l.5 2.6v.4l.5 2.5v.5l.5 2.5v.4l.5 2.5.1.5L44.8 335zM47.9 335h-.4L7.7 101.9l-.1-.4-.4-2.5-.1-.5-.4-2.5-.1-.4-.4-2.6-.1-.4-.5-2.5v-.4l-.4-2.4-.1-.5-.4-2.5-.1-.4-.4-2.6-.1-.4-.4-2.4-.1-.4-.4-2.6-.1-.4-.4-2.5-.1-.5-.4-2.4-.1-.4-.4-2.5-.1-.5-.4-2.5-.1-.4-.4-2.5-.1-.5-.4-2.5-.2-.4v-3 .5l.5 2.4.1.4.4 2.5.1.5.4 2.5.1.4.4 2.5.1.5.4 2.5.1.4L3 72l.1.5.4 2.5.1.4L4 78l.1.4.4 2.4.1.5.4 2.5.1.4.4 2.6.1.4.4 2.4.1.4.4 2.5.1.5.4 2.5.1.4.4 2.6.1.4.4 2.5.1.4L47.9 335zM42 335h-.5L2 103.1l-.1-.4-.5-2.5v-.4l-.5-2.6v-.4l-.5-2.5v-.4L0 91.8v-2.6l.3 1.6v.4l.5 2.6v.4l.5 2.5v.5l.5 2.5.1.4.4 2.5.1.5L42 335zM35.9 335h-.5L0 127.5V125l35.9 210zM38.9 335h-.4L0 109.6v-2.5L38.9 335zM29.8 335h-.5L0 163.1v-2.6L29.8 335zM32.8 335h-.4L0 145.2v-2.6L32.8 335z"/></g><g fill="#e13c00"><path d="M26.9 335h-.4L0 180v-2.5L26.9 335zM20.8 335h-.5L0 215.8v-2.6L20.8 335zM23.8 335h-.4L0 197.9v-2.5L23.8 335zM17.8 335h-.4L0 233v-2.5L17.8 335zM11.8 335h-.5L0 268.7v-2.5L11.8 335zM14.8 335h-.4L0 250.8v-2.5L14.8 335zM8.9 335h-.5L0 285.6v-2.5L8.9 335zM2.8 335h-.5L0 321.3v-2.5L2.8 335zM5.8 335h-.4L0 303.5v-2.6L5.8 335z"/></g><g fill="#e13c00"><path d="M268.7 84.5c-2-1.8-3.8-3.8-5.4-5.9-.5-.7-1-1.4-1.4-2.2-.3-.5-.2-.7.1-1 3-2.5 6.1-4.8 9.7-6.5 1.1-.5 2.3-.8 3.5-1.1h1.5c2 .2 3.3 1.7 3.3 3.6 0 .9-.1 1.8-.4 2.7-.6 2-1.5 3.8-2.8 5.5-1.6 2-3.2 4-5.1 5.7-.3.2-.6.4-.9.7-.2-.2-.6-.2-.6-.5l.6-.9c1.7-1.9 3.2-3.9 4.5-6 .8-1.3 1.6-2.7 2.1-4.2.3-1 .6-2 .6-3.1q0-.6-.2-1c-.2.4-.1.7 0 1.1-.2 1.3-.7 2.5-1.4 3.7-1.7 3-3.8 5.6-6.2 8-.3.2-.5.5-.8.7-.3.2-.5.5-.8.7ZM253.1 102.6c-.9-.6-1.9-1.1-2.7-1.8-.6-.6-1.3-1.2-1.9-1.9-1.3-1.4-2.7-2.9-3.7-4.5-.5-.8-.9-1.7-1-2.6v-.9c0-.1.2-.2.3-.3.2 0 .3 0 .4.3 0 .4 0 .8.3 1.2.1.8.5 1.5 1 2.1 1.2 1.8 2.7 3.2 4.1 4.7.8.8 1.7 1.6 2.7 2.2.4.2.8.6 1.3.5.2.2.6.3.6.8-.1.5-.6.4-.9.4h-.3c0-.2 0-.2-.2-.2Z"/><path d="M254.1 101.3a6.7 6.7 0 0 1-2.7-1.6c-2.5-2.1-4.6-4.5-6.3-7.3 0 0 0-.1-.1-.2 0-.4-.1-.7-.2-1.1.3-.3.6-.5.8-.8 4.9-4.4 9.8-8.9 14.8-13.3.2-.2.4-.4.6-.5.1 0 .3 0 .4-.1.7 1.6 1.8 2.9 3 4.2 1.3 1.4 2.6 2.8 4 4.2-.3.3-.6.7-.9 1-4.6 4.1-9.2 8.3-13.7 12.4-.3.2-.5.5-.7.8 0 .4.4.6.7.8l.2.2s.1 0 .2.1h.3c.3-.2.6-.5.9-.7 4.5-4.2 9-8.3 13.5-12.5.2-.2.4-.4.6-.5.4-.4.4-.4 1.1.1-.1.4-.5.6-.7.8-2.7 2.4-5.4 4.8-8 7.3-2.5 2.3-5 4.5-7.5 6.8Z"/></g><g fill="#e13c00"><path d="m135 155.6-5.1 5.1c-.2.2-.4.4-.5.6 0 .2-.1.3 0 .5v.2l.3.2c.2.2.4.3.5.5.3.3.5.6.3 1v.2h-.1c-.5.6-1.1 1.1-1.7 1.7-.3.3-.6.6-.9 1 .2.3.3.5.5.7 0 .1.2.2.2.4s.2.3.3.5c.8 1.1 1.6 2.3 2.4 3.4l1.3 1.9c.2.3.2.6.2.9 0 .1 0 .2-.1.4l-2.7 2.6c-.3.2-.5.4-.7.7l-.5.5c-.3.2-.5.5-.8.7-.1.1-.3.2-.4.3-.3.2-.6 0-.8-.2 0-.1-.1-.2-.2-.3-.2-.4-.3-.8-.5-1.2 0 0 0-.2-.1-.2-.2-.7-.5-1.3-.9-2v-.3c-.3-.4-.5-.8-.6-1.3-.2-.4-.3-.7-.5-1.1-.3-.9-.9-1.7-1.6-2.5-.4-.4-.9-.6-1.4-.7-.5 0-1.1 0-1.6-.1h-.4v-.5l.2-.6h.2V168.9v-.6c.1-.8-.1-1.4-.8-1.9 0-.1 0-.2-.2-.2 0 .1 0 .2.2.2.1.2.3.3.4.5.1.2.2.3.2.6-.5.2-1 0-1.4 0l-.5-.3c0-.3 0-.4.2-.5.3-.1.5-.2.8-.3l-.2-.4v-.1c.3-.2.5-.5.4-.9v-.1c0-.3.3-.5.6-.5h.4l.5-.5c3.9-3.9 7.8-7.9 11.8-11.8l.3-.3c.2-.2.4-.2.6-.2.2 0 .3.2.5.3l1.7 1.7.1.1c.1.2.2.3 0 .6v.4s0 .2.1.3l-.6.6Zm-8.9 19.9v.3l.2.2.6 1.5c0 .2.2.3.5.3h.3c0-.2.2-.2.3-.3l2.5-2.5s.2-.2.2-.4c.3-.4.3-.8 0-1.3l-3.9-6.3c-.2-.3-.4-.6-.8-.9-.5-.3-1-.4-1.5 0-.5.3-.9.7-1.1 1.2 0 .2-.1.4-.2.6-.2.5-.1.9.1 1.4v.1l1.5 3.3v.2l.6 1.2v.2l.2.3v.2h.1c0 .1 0 .2.1.3v.2Zm.8-11.3c-.1.3 0 .5 0 .7.2.2.4.4.7.4.3 0 .7 0 .9-.3.3-.2.6-.4.8-.7.5-.6.5-.8 0-1.3q-.4-.5-.6-1.1c-.3.2-.5.5-.8.7 0 .3 0 .6.2.8v.3c.2.1.3.2.4.4l.2.2c.1.1 0 .3 0 .4-.1 0-.3 0-.4.1-.5 0-1-.2-1.4-.6Zm5.9-12c-.1 0-.2.2-.3.3-4.3 4.3-8.6 8.6-12.8 12.9l-.3.3h.2l.3-.3c4.2-4.2 8.4-8.4 12.6-12.7.2-.2.4-.3.5-.6 0-.1-.1-.1-.1 0Zm-4.9 9.1-2.1 2.1s-.2.2-.2.3l.3-.3c2.9-2.9 5.8-5.8 8.6-8.7l.4-.4c0-.1-.1-.1-.2 0-.1 0-.2.2-.3.3l-2.8 2.8c-.1.1-.3.3-.4.5v-.3c0-.2.2-.4.4-.5l2.7-2.7c.1-.1.3-.2.3-.4h-.1s-.2 0-.2.2l-3 3c-.3.3-.4.7-.4 1.1l-3.1 3.1Zm-7.4 6.1.8.8c.3.4.7.9 1 1.4.1.2.2.3.3.5.1-.1 0-.2 0-.3-.3-.7-.8-1.4-1.4-2-.4-.4-.8-.8-1.3-1.2h-.1c.2.4.4.6.7.9Z"/><path d="M123.7 167.6c.2-.6.6-1 1.1-1.3.4-.3.8-.2 1.2 0 .3.2.5.5.7.8.3.5.7 1 1 1.6 1 1.5 1.9 3.1 2.9 4.6.2.3.3.6.2.9l-3 3s-.1.1-.2.1c-.1.1-.3 0-.4 0 0-.1-.1-.2-.2-.3-.1-.3-.3-.6-.4-.8v-.3c-.9-2.1-1.8-4.2-2.8-6.3 0 0 0-.2-.1-.2-.2-.5-.3-1-.2-1.5 0 0 .1-.2.1-.3Zm1.4.9c.2.2.5.2.7 0 .2-.2.2-.5 0-.7-.2-.2-.5-.2-.7 0-.2.2-.2.5 0 .7Zm4.1 6.2c.2-.2.2-.5 0-.7-.2-.2-.5-.2-.7 0-.2.2-.2.5 0 .7.2.2.5.2.7 0Z"/></g><g fill="#e13c00"><path d="M169.9 237.9Zm0 24.4Zm-.8 0Zm0-24.4ZM185.9 248.1v-1.6c0-1.5-.2-2.9-.8-4.2 0-.2-.1-.4-.2-.6 0 0 0-.2-.1-.3v-.1c0-.1-.1-.2-.2-.4-1.1-1.4-2.4-2.5-3.9-3.2-.6-.2-1.2-.4-1.7-.6-.2 0-.3-.1-.5-.2-1 0-1.9-.2-3-.3.2-.3.3-.5.5-.8 2.3-4 2.5-8.3 1-12.8-.1-.5-.4-.9-.5-1.3l-.6-1.2c-.2-.3-.5-.6-.7-.9-2.7-3.3-6.6-3.8-9.7-1.1-1.2 1-2.1 2.3-2.7 3.8-1.9 4.7-1.7 9.2.8 13.6.1.2.4.4.3.8h-.5c-1 .2-2 .3-3 .5-1.5.4-2.9 1.1-4.2 2.3a8.51 8.51 0 0 0-2.7 6.2v24.6c0 .4 0 .9.2 1.3h13.6v64h5.3v-64h13.6c.2-.5 0-1 0-1.4v-22Zm-7.1 2.7h.6c.1 1 0 2-.4 3-.1.8-.4 1.5-.7 2.2-1.8 4-4.6 6.1-8.3 6.4v4.8c0 1.6 0 .1-.1.2h-.6c-.1-1.7 0-3.3 0-5-1.3-.1-2.6-.4-3.8-1.3-.7-.3-1.4-.8-1.9-1.5-1.9-1.6-2.9-3.9-3.5-6.5l-.3-2.1h-3.2c-.2 0-.5 0-.6-.2-.1-.3-.1-.6 0-.9.1-.3.4-.2.5-.2h3.3c.1-3.4 1.2-6.3 3.3-8.6 1.5-1.6 3.2-2.7 5.2-3 .3 0 .7-.1 1-.2v-4.5h.7c0 .1.1.2.1.3v4.2c.8.2 1.5.3 2.3.5 1.6.5 3 1.5 4.2 2.9l.3.6s.1 0 .1.1c1.5 2.1 2.4 4.6 2.5 7.4v.3c-.2 0-.4 0-.7.1v.8h.1Zm4.6 0c-.1 0-.2.2-.3.2h-3.3s-.1 0-.2-.1c-.1-.3-.1-.7 0-1h3.6l.2.2v.7Z"/><path d="M163.9 249.9c-.2 0-.4-.1-.6-.1h-2.9c0-5.1 3.2-9.6 7.2-10.5l1.4-.3v4.5c-.9.1-1.7.4-2.5 1a6.8 6.8 0 0 0-2.5 5.4h-.2ZM169 238.9h.1-.1zM169.9 238.9zM169.9 237.9v1h-.8v-1h.8ZM178.6 250.9c0 1.1-.3 2.1-.4 3.1-.4 1-.8 2-1.4 2.9-1.8 2.7-4 4.3-6.9 4.4v-4.5c2 0 4.2-1.9 4.9-4.6.1-.4.2-.9.2-1.3 1.2.2 2.4.2 3.6 0ZM169.1 261.3zM169.9 261.3zM169.9 261.3v1h-.9v-1h.8ZM178.6 249.7H175c0-1.3-.3-2.6-1.1-3.6 0 0-.2-.2-.2-.3-.7-1.3-1.7-1.9-2.9-2.2l-.9-.3v-4.5c2.3.2 4.2 1.3 6 3.1.5.7.9 1.4 1.4 2.2.9 1.7 1.4 3.6 1.4 5.6Z"/><path d="m164.4 259.4-1.7-1.7v-.1l-.4-.5c-.6-1.1-1.2-2.3-1.5-3.6-.2-.8-.4-1.6-.3-2.4h3.7c.2 1.9.9 3.5 2.3 4.6.8.8 1.7 1.1 2.7 1.2v4.5c-1.4 0-2.6-.5-3.8-1.3l-.9-.6ZM169.9 243.7v6h-.9v-6.3h.8v.3ZM170 250.8h-.1v-.8h5.1v.8h-5ZM169.1 250.8h-5v-.8h5v.8Z"/><path d="M169.1 256.8V251h.8v5.8h-.8ZM160.3 250v.8h-.7v-.8h.7Z"/></g><path fill="url(#c)" d="M0 0h335v335H0z" opacity=".9"/><path fill="#fc0263" d="M325.7 214.3c0 39.8-32.2 72-72 72s-72-32.2-72-72 32.2-72 72-72 72 32.2 72 72Z"/><g fill="#fff"><path d="M262.3 266.8v6.1c0 1.5-1.3 2.8-2.8 2.8h-13.7c-1.5 0-2.8-1.3-2.8-2.8v-13.7c0-1.5 1.3-2.8 2.8-2.8h6.2c.4 0 .8.3.8.8s-.3.8-.8.8h-5.9c-.9 0-1.7.8-1.7 1.7v13c0 .9.8 1.7 1.7 1.7h13c.9 0 1.7-.8 1.7-1.7v-5.8c0-.4.3-.8.8-.8.4 0 .8.3.8.8ZM263.2 255.57a3.16 3.16 0 0 1 0 4.53l-.35.35-4.52-4.52.35-.36a3.16 3.16 0 0 1 4.53 0Z"/><path d="m262.1 261.3-6.8 6.8h-.3l-4.4.6c-.2 0-.5-.2-.5-.5l.6-4.4v-.3l6.8-6.8 4.5 4.5Z"/></g><path fill="#fff" d="M17.9 130.8c-3.4 0-6.2 2.8-6.2 6.2s.4 2.6 1.2 3.6l5 8.6 5-8.6c.7-1 1.2-2.3 1.2-3.6 0-3.4-2.8-6.2-6.2-6.2Zm0 9c-1.5 0-2.7-1.2-2.7-2.7s1.2-2.7 2.7-2.7 2.7 1.2 2.7 2.7-1.2 2.7-2.7 2.7Z"/><path fill="#451b34" d="m59.9 238.5-.2-.3c.6-1 1.7-1.7 2.2-2.8l.6.3v-.5c.6.2 1 .4 1.4.7.2.2.2.5.2.8v4H63c-.3 0-.5.2-.6.5 0 .2-.1.4-.1.6v1.2l-1.1-.7.4-1.7-.9-1.2c-.1-.2-.3-.3-.6-.3v-.3Z"/><path fill="#e38b86" d="M64.1 240.6v-4c0-.3 0-.6-.2-.8.7-.3 1.4-.2 2.1-.2.3 0 .5.2.6.5v4.4h-2.4Zm.5-2.9v1.4s.1.2.2.3c.4.2.5.2.8-.2 0-.5.2-1 0-1.6-.3-.1-.6-.3-.9 0Z"/><path fill="#3a172c" d="M66.5 240.6v-4.4h.4s.2.1.2.2c.2.3.2.6.2.9v2.4c0 .3.1.5.4.7.3.2.7.3.9.6.3.2.5.3.9.2.7-.2 1.4-.3 2.1-.5.9-.2 1.8-.4 2.6-.9.1 0 .3 0 .5-.1v.2c-.5.4-1 .8-1.6 1.2-.2.1-.4.2-.5.2-.4 0-.9.1-1.3.2-.2 0-.3 0-.5.1h-1c-.6 0-1.2.2-1.8.3 0-.9-.3-1.2-1.2-1.2h-.3Z"/><path fill="#301125" d="M60 238.9c.2 0 .4.2.6.3l.9 1.2-.4 1.7 1.1.7v2.1l-.8-.4c-.4-.3-.8-.5-1.1-.8 0-.7 0-1.4.1-2.1v-.4c.1-.7 0-1.3-.3-1.9 0 0 0-.2-.1-.3ZM59.9 238.5Z"/><path fill="#6f3657" d="M114.9 253.4v.7s-.1.2-.2.3c-.2-.2-.5-.1-.8-.1h-14c0-.3-.2-.3-.4-.3H97c-1 0-2 0-3 .2-.3 0-.6 0-.8.4v2.5c-.2 0-.5 0-.7.2-.7 0-1.4.1-2.1.2-.3 0-.6.1-.9.1-.3 0-.6 0-.8.3 0 0-.1-.1-.1-.2v-1l-.2-.2v-.4c.1-.4.1-.4-.2-.5h-1.6c-.7.1-1.4.1-2.1.1h-3.4c-.2-1-.5-1.3-1.4-1.3h-1.1c0-.6.2-1.2.3-1.9h35.8c.1.2.4.2.6.2h3.6v.1h-4v.6Zm-26.1-.4v.2s.1.1.2.1h25.1c.1 0 .2 0 .2-.2H88.9Zm-3.3-.2h-1.1c-.3 0-.3.3-.1.5.2.2.4.3.6.3h1.8c.1 0 .2-.2.2-.3 0-.1 0-.3-.2-.3h-1.1Z"/><path fill="#451b34" d="M79 252.5c0 .6-.2 1.2-.3 1.9-.1.1-.3.1-.3 0v-.5h-4.9c-.6.6-1.6 2.1-1.9 2.8l.6.3c1.3.7 2.6 1.3 3.8 2-.4.6-1.1.9-1.6 1.4h-.5l-2.7 1.2c-.8.4-1.6.7-2.5 1.1-.1-.5-.4-.8-.8-1-.1-.2-.3-.3-.3-.5-.2-1.1-.5-2.1-.5-3.2s-.2-2.3-.2-3.4c0-.4-.1-.8-.3-1.2v1.1c0 .8.2 1.6.3 2.4 0 .8 0 1.6.2 2.5.1.8.3 1.5.4 2.3h.4v.6c.5 0 .4.5.6.6h.6c-.2.2-.5.3-.9.5 0-.2 0-.3-.1-.4 0-.1-.1-.3-.2-.3-.4 0-.3-.4-.6-.5-.3 0-.2-.5-.2-.8-.1-.4-.2-.8-.2-1.2 0-.6-.2-1.1-.2-1.7 0-1.4-.2-2.7-.3-4 0-.4-.2-.7-.5-1-.3-.3-.6-.5-.7-.9h13.9Zm-8.2 3.7c.4-.6.8-1.2 1-1.8-1.4-.1-3.8-.1-4.5 0 1.2.7 2.3 1.2 3.5 1.8Z"/><path fill="#ffa1bd" d="M71.2 247.2c0 .2 0 .4-.1.7-.4 1.2-.8 2.4-1.2 3.5-.2.5-.2.6-.8.6h-1c-.5 0-.8-.2-1-.5-.1-.2-.3-.4-.4-.5-.1-.3-.3-.6-.4-.8-.7-1.1-1.5-2.2-2.2-3.2h2.8c.8 0 1-.2 1.1-1v-.2c0-.1.1-.2.2-.4.2-.7.2-1.5.5-2.2.6-.2 1.2-.5 1.9-.6 0 .2.1.3.2.4.2.8.3 1.6.4 2.4.1.6.1 1.1-.4 1.4v.1l.4.3Z"/><path fill="#4b263f" d="M114.8 252.5H81.1v-.1s.2-.1.3-.2h.3c1.2-.5 1.3-.5 2.6-.3h1c.5-.1 1-.1 1.5 0h3.8c.5 0 .9-.1 1.4 0H114.7v.3l.2.2V252.7Zm-19.3-.2q.2-.1 0-.3H94.3c0 .2 0 .2.2.2h.9Zm6.1-.2c-.4 0-.8-.1-1.3 0 .3.3.7.4 1.3 0Zm7.7.1c1 .2 1.2.2 1.4-.1-.8-.1-.8-.1-1.4.1Zm-4.6 0c-.7-.2-.8-.2-1.3 0 .3.2.5.2 1 .2 0 0 .2 0 .3-.2Zm7.5 0c.5.2.8.2 1.1.2 0 0 .2-.1.3-.3-.5 0-.9 0-1.5.1Zm-4.6 0h-1.2c.3.3.4.3.9.2.1 0 .3 0 .3-.3Zm-9 0q-.6-.2-1.2 0c0 .3.2.2.4.2.3 0 .6.1.9-.2Z"/><path fill="#451b34" d="M74.8 239.5c-.2 0-.4 0-.5.1-.8.5-1.7.6-2.6.9-.7.2-1.4.3-2.1.5-.3 0-.6 0-.9-.2l-.9-.6c-.3-.1-.4-.4-.4-.7v-2.4c0-.3 0-.6-.2-.9h.5c2.2.6 4.4 1.5 6.4 2.6.3.2.5.4.7.5ZM96.4 261.9c-.4.2-.8.3-1.2.5H95c-.2-.3-.4-.6-.7-.9 0 0-.2-.1-.3-.2 0-.4-.2-.6-.3-.9-.3-.6-.6-1.3-.7-2h.4l2.5-.7h.7c0 .4 0 .9.2 1.3l.6 1.8c0 .2 0 .4-.1.6l-.9.4Z"/><path fill="#ffa1bd" d="M103 258.4c-.9-.1-1.7.1-2.4.8-.4.4-.9.7-1.3 1-.5-.9-1-1.9-1.5-2.8.5-.3 1-.6 1.5-.8.4-.2.9-.6 1.4-.6l1.3 2.3h1.1v.1Z"/><path fill="#4b263f" d="M97.8 257.4c.5.9 1 1.9 1.5 2.8.3.6.6 1.1.9 1.8-.4.1-.8 0-1.2 0h-1c-.4-.1-.4-.5-.7-.6.1-.2.2-.3.1-.6l-.6-1.8c-.2-.5-.3-.9-.2-1.4.2 0 .4-.2.5-.2h.7Z"/><path fill="#e9486f" d="M64 246.9c.7 1.1 1.5 2.1 2.2 3.2.2.3.3.5.4.8v.9l-1.1.3v.2h-.7l-.3-.2-.2-.2c0-.2 0-.3-.2-.5-.1-.1-.3-.2-.4-.4.1 0 .3 0 .4-.1.3-.2.6-.5.9-.8-.2-.5-.3-1-.5-1.5-.1-.3-.3-.5-.6-.7-.3-.2-.6-.3-.9-.5-.4-.2-.7-.5-.8-1l.1-.1c.2.1.5.2.8.2h.8Z"/><path fill="#fcf5f5" d="m125.6 251.5-1 .8c.4.2.9.2 1.3.3.4 0 .9.2 1.3.3.4 0 .9.2 1.3.3-.6 0-1.2.1-1.8.2H125c.3.9 1.2 1.3 1.6 2.2h-.3c-.8-.6-1.6-1.2-2.5-1.8-.5-.4-.5-.8-.4-1.4.6-.5 1.5-.9 2.2-1.1Z"/><path fill="#e9486f" d="m71.2 247.2-.4-.3v-.1c.5-.4.5-.9.4-1.4-.2-.8-.3-1.6-.4-2.4 0-.1 0-.3-.2-.4-.7 0-1.3.4-1.9.6-.3.7-.3 1.5-.5 2.2 0 .1-.1.3-.2.4v-3.9l1.8-.3h1c.1.8.3 1.7.4 2.5 0 .6.2 1.3.3 1.9 0 .5.1 1-.3 1.4Z"/><path fill="#3a172c" d="M99.8 254.2h14c.3 0 .6 0 .8.1-.3.3-.6.5-1 .4-2.3 0-4.5-.1-6.8-.2H103.2c-.2-.2-.4-.2-.6-.2H100s-.2 0-.2-.2Z"/><path fill="#733755" d="M103 258.4v-.1c0-1 .1-1.9.2-2.9.2 0 .3.2.4.3l.4.2v-.8h.6c0 .2-.1.4.1.5.1 0 .2.1.5.2l-.7.4.6.4-.3.4.5.5-.4.3.4.5c-.1.3-.3.2-.4.2-.4 0-.9.1-1.3.1-.2 0-.3 0-.4-.2Z"/><path fill="#451b34" d="M114.9 253.4v-.5h4.1c.2.4.6.3 1 .3.1 0 .2-.1.1-.3-.3-.1-.7 0-1.1 0v-.1h1.4v.8c-1.5 0-3.1-.2-4.6-.1h-.8Z"/><path fill="#733755" d="M81.1 252.3v.1H66c.2-.2.5-.1.8-.1h14.3Z"/><path fill="#fcf5f5" d="M120.3 253.5v-.8c.4-.2.8-.2 1.2-.1.3 0 .4.2.4.5s-.1.5-.4.5h-1.2Z"/><path fill="#6f3657" d="M104.6 255h-.5v-.5h1v.3l-.4.2h-.2Z"/><path fill="#8a6f7d" d="m104.8 255 .3-.2c0 .2-.2.2-.3.2Z"/><path fill="#fcf5f5" d="M114.9 252.3v-.1ZM125.6 251.4h.1Z"/><path fill="#6f3657" d="M36.6 320.6c-.3-.5-.7-1.1-.9-1.6-.3-.5-.3-1.1-.2-1.8h1.2v-.6c0-.4-.2-.7-.3-1.1-.2-.4 0-.8.2-1.2.5-.7.9-1.5 1.4-2.1 1.4-1.9 3-3.6 4.8-5.2 1.8-1.6 3.6-3.1 5.6-4.4.5-.3.9-.8 1.2-1.3.2.2.5.2.7.2h1.5c.2.4.4.7.5.9 0 .4.2.6.4.9.4.7.8 1.4 1.2 2.2 0 .1 0 .3.1.4-.1 0-.2.2-.4.2-.8.4-1.6.7-2.4 1.1-.2.1-.4.3-.6.5-.8 1.4-1.5 2.8-2.3 4.3l-.6 1.2-2.7 5.1c-.2.3-.3.7-.3 1.1-.2.2-.4.5-.6.7-.3.3-.5.7-.4 1.1 0 .4 0 .9-.1 1.3 0 .4-.2.5-.7.4-.7 0-1.4-.2-2.1-.3-.2 0-.3-.2-.5-.2-1.3-.4-2.5-.9-3.4-1.9h-.2ZM52 298.6c.2-.2.2-.4 0-.7-.9-1.7-1.9-3.4-2.8-5.2-1-1.8-1.9-3.7-2.9-5.5-.7-1.3-1.1-2.6-1.1-4.1 0-1.3.2-2.6.8-3.9.1-.3.2-.5.3-.8h.2c.1 0 .2.1.4.1h1.3c-.2.8-.4 1.5-.5 2.4 1.3-.5 2.4-1.1 3.6-1.5v.7h-.5c-.7.3-1.3.6-2 .9l-1.2.6c-.1.4-.3.9-.4 1.3v.4c.8-.4 1.6-.7 2.3-1 .5-.2.9-.4 1.4-.6l-.2 2h-.4c-.6.4-1.2.3-1.9.1 0 0-.2 0-.2.1.6.3 1.3.4 1.8.8v.8c1.4.3 2.6.7 3.8 1 .3 0 .5 0 .6-.3.3-.7.6-1.5.9-2.2.3-.8.7-1.6 1-2.4 0-.1.2-.2.3-.5 0 1.3-.5 2.4-.3 3.6.6.4 1.3.6 2 .8.7.2 1.3.6 2 .7l.6-2.7c.2-1 .5-2 .6-3.1 0-.3 0-.6.2-.8 0 0 .2-.1.3-.2 0 1 0 1.9-.1 2.9-.1.8 0 1.7-.2 2.5 0 .9-.2 1.7-.3 2.6-.6.2-.9.6-1.2 1.1-.5 1-.8 2-.8 3.2v2.7c-.4 1.4-1.3 2-2.7 2.1-.8 0-1.7.2-2.5.2-.4 0-.6.2-.9.4-.2.2-.4.4-.3.7l-.3.5H52Z"/><path fill="#200917" d="M52 298.6h.7s.2-.2.3-.4c.5-.4 1.1-.6 1.7-.5h2.1c1 .2 1.9.4 2.8.8 0 .1 0 .2.1.3.3.4.4.8.4 1.3 0 1.1-.2 2.2-.6 3.2-.3.9-.8 1.6-1.7 2-.6 0-1.3-.1-1.9-.2-.2 0-.5-.1-.7-.3-.3-.2-.6-.4-.9-.7-.6-.5-1.2-1.1-1.8-1.6-.1 0-.2-.1-.4-.2l-.5-.9c-.4-.1-1 0-1.5 0-.2 0-.5 0-.7-.2.3-.4.7-.8 1-1.2l1.3.3h.2c.2 0 .3-.1.4-.3 0-.2 0-.3-.1-.4-.2-.1-.4-.2-.5-.3 0 0 0-.2-.1-.3l.5-.5Zm2.7 3.2.2.2c.5.4.9.8 1.4 1.2h.2v.2l.2.2.9.6c.2.2.4.2.5 0 .3 0 .5-.3.7-.6.4-.4.7-.9.7-1.5.2-.2.2-.4.1-.6 0-.3-.2-.6-.5-.8-.2-.1-.3-.3-.5-.4-.8-.3-1.6-.5-2.5-.7h-.2c-.4-.3-.8-.3-1.2 0l-.2.2v.1c-.6.9-.6 1.2.2 1.9h.2Z"/><path fill="#4a2b58" d="M46.9 276.8c0-.8 0-1.6.1-2.5v-.6c0-.3.2-.4.5-.3h.3c.2.1.4.2.6 0 0-.4.1-.9.2-1.3.2 0 .4.3.4.5v.8c.2 0 .3.2.4.2.6.2 1.2.4 1.7.6.3 0 .6.2.8.3.2.1.2.4.3.6 1.1.3 2.2.5 3.2.8.7.2 1.3.3 2 .5.3 0 .6.2.6.6 0 .3.3.4.5.4.5 0 1 .2 1.5.5-.4 0-.8 0-1.2-.1-.4-.1-.9-.1-1.2.3h-.8c-.8 0-1.6-.2-2.4-.3-.3 0-.5 0-.6-.3-.1-.2-.3-.2-.5-.2l-.3-.3c-1-.4-2-.6-3.1-.7h-.8c-.2 0-.3.1-.3.3v.5h-.5l-.2-.2c-.3 0-.7 0-1-.2Z"/><path fill="#e38b86" d="m63.7 251.3.4.4c.2.1.3.3.2.5-.3-.2-.5-.3-.8-.5-1-.7-2.2-1.2-3.4-1.4h-.5c-.5.2-.9 0-1.4.1h-2.7l-.4.7c-.2.1-.3.3-.3.5-.1 0-.3.1-.3.3-.5.9-1.1 1.8-1.6 2.8-.8 1.6-1.5 3.2-2.1 4.8-.5 1.3-.9 2.6-1.4 3.9-.1.3-.1.7-.4 1l-.7-.5c.5-1.4 1-2.8 1.5-4.1 1.1-2.7 2.3-5.4 3.6-7.9.3-.5.6-1.1.9-1.6.3-.5.7-.8 1.3-.8 1.3 0 2.5-.3 3.8-.2l.4.2-.6.3-.3.2h-.2v.1h.2v-.2l.3-.2h.8c.2 0 .4 0 .6.1 1 .5 2 .9 3 1.4Z"/><path fill="#ffa1bd" d="M63.7 251.3c-1-.5-2-.9-3-1.4-.2 0-.4-.1-.6-.1h-.8l.6-.3-.4-.2c.4-1.1.8-2.1 1.2-3.2.2-.4.3-.9.6-1.3.2.4.4.8.5 1.2 0 .3.1.6.4.8 0 .5.4.7.8 1 .3.2.6.4.9.5.3.2.5.4.6.7.2.5.3 1 .5 1.5-.3.3-.6.5-.9.8-.1 0-.3 0-.4.1Z"/><path fill="#6f3657" d="M48.4 263.9c.2.2.5.3.7.5.2.3.5.5.9.5v1.1c0 .7-.2 1.4-.3 2.2 0 1-.2 2.1-.4 3.1l-.7-.2c-.5-.4-1.1-.6-1.7-.7l-.2-.2c.1-.6.2-1.2.3-1.7.3-1.3.6-2.6.9-4 0-.2.1-.4.2-.5h.3Z"/><path fill="#200917" d="M38.5 325.9c-.3 0-.5-.1-.8-.2l-1.2-.6c-.2-.1-.5-.2-.8-.2l.9-4.2h.2c1 .9 2.1 1.5 3.4 1.9.2 0 .4.2.5.2l-.7.9c-.3 0-.5-.1-.8-.2-.7-.4-1.4-.7-2.1-1.1-.1 0-.3-.1-.4-.2-.3.4-.3.5 0 .6.5.3 1.1.6 1.7.8.3.1.5.3.8.5.2.1.2.3.2.5l-.2.2c-1-.4-1.8-1-2.8-1.3-.3.4-.3.5 0 .7.4.2.9.5 1.4.7.3.2.6.3.9.5v.5h-.1ZM48.1 277.1h.5c-.1.5-.2 1-.3 1.6h-.5c-.1 0-.2-.2-.4-.2h-1c-.1 0-.1-.2 0-.3.3-.3.4-.7.3-1.1 0-.3.1-.3.3-.4.3.2.7.2 1 .2h.2Z"/><path fill="#e38b86" d="M47.7 273.4h-.3c-.3 0-.4 0-.5.3-.4-.2-.5-.6-.5-1 0-.6.1-1.2.2-1.8l.1-.1c.2.1.5.2.7.3.2.1.3.3.3.5v1.4s-.1.2-.2.3Z"/><path fill="#5b4172" d="m37.8 327.1.9.6c0 .2 0 .3-.2.4-.2-.3-.3-.3-.5-.2-.3-.1-.6-.3-.8-.4l-1.8-.9v-.1c0-.2 0-.3.2-.5 0-.1 0-.2.1-.4 0 .2.1.4.4.5.6.3 1.3.6 1.9.9Z"/><path fill="#e9486f" d="M47.7 273.4s.2-.2.2-.3v-1.4c0-.3-.1-.4-.3-.5-.2-.1-.5-.2-.7-.3v-.5c.6.2 1.2.3 1.7.7v1.2l-.2 1.3c-.2.1-.5 0-.6 0Z"/><path fill="#200917" d="M37.8 327.1c-.6-.3-1.2-.6-1.9-.9-.2-.1-.3-.3-.4-.5v-.2h.7l1.8.9c0 .2 0 .4-.2.6Z"/><path fill="#733755" d="M51.5 299.2s0 .2.1.3c.2.1.3.2.5.3.2 0 .2.3.1.4 0 .2-.2.3-.4.3h-.2l-1.3-.3c.3-.1.6-.4.8-.7 0-.1.2-.2.3-.3Z"/><path fill="#e9486f" d="M62.3 246.8a.9.9 0 0 1-.4-.8c0-.4-.3-.8-.5-1.2v-.4l.8.4v.8c0 .3 0 .7.2 1l-.1.1Z"/><path fill="#c2554e" d="M35.3 326.5v.1s-.1 0-.2.1h-.5c.2-.1.5-.2.7-.2Z"/><path fill="#e38b86" d="m46.7 270.2.2.2-.2-.2Z"/><path fill="#200917" d="M82 326.1V325.3c-.1-2.1-.3-4.1-.4-6.2.7 0 1.3 0 2-.2.3 0 .7 0 .9-.3.4 0 .8 0 1.2-.1.3 0 .3.1.4.3v.3c-.4 0-.8 0-1.1.1l-.2.2s.1.2.2.2c.2.1.5 0 .7.2v.3h-.8c-.2 0-.2.1-.2.4h.7c.2 0 .2.2.1.3-.4 0-.7.1-1.1.2l-.2.2s.1.2.2.2h.9v.3c-.4 0-.8 0-1.1.2 0 0-.2.1-.2.2 0 .2 0 .3.2.3h.9v.2c-.2.1-.5.2-.7.2h-.5c-.2 0-.3.2-.2.4.4.1.8 0 1.2 0 0 .5-.2 1.1-.2 1.6 0 .3-.2.7 0 1 .9.1 1.7.1 2.6.1.9.2 1.9.2 2.8 0 .4 0 .7 0 1 .2.7.4 1.3.9 1.9 1.4.3.3.6.5.8.7.2.2.5.4.7.8H81c-.3 0-.5-.3-.4-.6.1-.6.3-1.3.8-1.7.2-.1.3-.3.5-.5s.3-.5 0-.8ZM35.1 326.8s.1 0 .2-.1l1.8.9c.3.1.6.3.8.4l.2.2c.1.3.3.7.4 1 .2.5.3 1 .5 1.5.1.5 0 1-.5 1.2-.6.3-1.2.7-1.9.6h-2c-.8 0-1.6-.2-2.3-.5-.1 0-.3-.1-.4-.2-.3-.2-.4-.6-.1-.8.3-.3.5-.6.9-.8l.6-.6c.5-.6 1-1.1 1.3-1.8.2-.3.3-.7.5-1.1Z"/><path fill="#8a6f7d" d="m38.2 328.1-.2-.2c.2-.1.3-.1.5.2h-.4ZM38.5 328.1c.2 0 .2-.3.2-.4.1 0 .2.2.2.3 0 0 0 .2-.1.2h-.2Z"/><path fill="#200917" d="M62.4 246.7c-.1-.3-.2-.6-.2-1V241.6c0-.2 0-.4.1-.6.1-.3.3-.5.6-.5h3.8c.9 0 1.2.3 1.2 1.2v4.1c-.1.9-.3 1-1.1 1H63.2c-.3 0-.5 0-.8-.2Zm3.4-4.8h-1.2c-.2 0-.3 0-.4-.2H66.1c-.5-.1-1.3-.1-1.8 0l-.1.1c-.5 0-.6.5-.6.9v2.9c0 .5.1.7.6.7h1.9c.2 0 .4-.1.4-.3.2 0 .2-.3.2-.4v-3.3V246.1c0-.1-.2-.2-.2-.3v-2.9c0-.3 0-.5-.3-.6Z"/><path fill="#733755" d="M65.6 239.2c-.3.4-.4.4-.8.2V237.8c.3-.3.6-.2.9 0-.2 0-.4.1-.4.4v1.1h.5Z"/><path fill="#451b34" d="M65.6 239.2h-.5V238c0-.2.2-.3.4-.4.3.5.2 1 0 1.6Z"/><path fill="#431a34" d="M64.6 237.7V239.3s-.2-.2-.2-.3v-1.4ZM77.4 283.6c1.2.5 2.4.9 3.5 1.4.7.3 1.5.6 2.2.9.5.2 1 .5 1.6.7h.2c0 .2-.1.2-.2.3-1 .4-1.2 1-.8 1.9 0 .2.1.3.2.5-.2.3-.4.6-.6.8-.9 1-1.6 2.2-2.2 3.4-.2.4-.4.7-.6 1.1h-2.8c-1-.2-2-.4-3-.7-.3 0-.4-.4-.3-.7.1-.2.4-.4.3-.8-.3 0-.6-.2-1-.2-.8-.1-1.7-.2-2.5-.4l-3.7-.6c-1.1-.2-2.3-.3-3.4-.5-.4 0-.5-.2-.5-.5V284.3c-.2-.6-.1-1.1-.1-1.7v-3.3h.5c3.3.9 6.6 2 9.9 3.1 1.1.4 2.3.8 3.5 1.2ZM86.1 318.7c0-.2-.1-.4-.4-.3-.4.1-.8.1-1.2.1-.2-.4-.3-.7-.5-1 .1-.4.7-.4.9-.8-.8-.2-1.5 0-2.2-.2v-9.7c0-.5.1-.9.3-1.3.2-.6.5-1.2.6-1.8v-.7c-.3-1.4-.5-2.7-.8-4 0-.3-.1-.5-.3-.7v-.4s-.2-.1-.3-.2c-.2-.2-.2-.3 0-.5.2.3.5.2.8.1.6 0 1.3-.2 1.9-.3.5 0 1.1 0 1.6-.2.7-.2 1.3-.2 1.6.5.6.2 1.1 0 1.6-.1 0 .8-.1 1.5-.2 2.3 0 .7-.2 1.5-.2 2.2v.7c0 .2 0 .3-.1.5-.2 1.6-.4 3.3-.5 4.9-.3 2.5-.6 4.9-.8 7.4 0 .4-.1.7 0 1.1l.5.2c0 .5-.1.9-.3 1.3-.1 0-.2.1-.3.2-.4.2-.8.3-1.3.5l-.2.4Z"/><path fill="#451b34" d="M83.1 267.5c-.8.3-1.5.6-2.3.9-.3.1-.5.2-.8.1-1.6-.2-3.1-.4-4.7-.7-.2-.2-.4-.1-.7-.2 0-.1 0-.3.2-.4.9-1 1.7-2.1 2.6-3.2.7.2.7.2 1.2-.3.8-.8 1.5-1.7 2.3-2.5.3 0 .6.2 1 .2h.6c.2 0 .3 0 .3-.2 0-.1 0-.3-.2-.3h-.3c-.9-.2-1.7-.4-2.6-.7v-.3h2.5c.4 0 .6 0 .8-.5 0-.3.3-.5.4-.8 0-.1.2-.2.3-.1-.2.5-.4 1-.7 1.6 0 .1-.2.2 0 .4.3 0 .6 0 .9-.2 1.2-.3 2.5-.5 3.7-.8.6-.1 1.2-.2 1.7-.4 0 .3 0 .6.2.9.4 1.4 1 2.7 1.9 3.9-.8.3-1.5.7-2.3 1-1.8.8-3.5 1.5-5.3 2.2a3 3 0 0 0-.8.4Z"/><path fill="#200917" d="M85 286.7c.3 0 .6 0 .9-.1.2 0 .5.1.7.2.8.3 1.4.7 1.8 1.5l-.2.2v.5h-.1v.5l.2.2v.2l.2.2v.2l.2.2v.2c.3.4.5.9.7 1.3.1.3.3.6.6.8h.2c0 .1.1.1.2.2h.2c0 .1 0 .1.1.1 0 .2.1.4.2.7.2.9 0 1.6-.8 2.1-.1 0-.3.2-.4.3-.5 0-1 0-1.5-.1s-.9 0-1.3 0c-1.1.2-2.2.5-3.3.9-.5.2-1 .3-1.4.5v-.3c1.6-1.2 3.6-1.8 5.5-2.4v-.3c-.4-.7-1-1.3-1.5-1.9 0 0-.1 0-.2-.1 0-.6-.4-.8-.7-1.2-.3.2-.5.4-.8.6-1 .9-1.8 1.9-2.5 3-.3.5-.6.9-.6 1.5-.4.4-.6.3-.9 0 .2-.1.2-.3.2-.4v-.8c.2-.4.4-.7.6-1.1.6-1.2 1.3-2.4 2.2-3.4.2-.2.4-.5.6-.8 0-.2 0-.3-.2-.5-.4-1-.2-1.5.8-1.9 0 0 .1 0 .2-.1h.1ZM91.5 263.9c-.8-1.2-1.5-2.5-1.9-3.9 0-.3-.1-.6-.2-.9l-.2-1c0-.3-.2-.3-.4-.3.2-.2.5-.3.8-.3.3 0 .6 0 .9-.1.7 0 1.4-.1 2.1-.2l.3.2v.2c0 .3 0 .6.2.8v.2c.1.7.4 1.3.7 2 .2.3.4.6.3.9-.3-.1-.5-.5-.6-.8-.2-.4-.5-.9-.7-1.3 0-.5-.2-1-.3-1.5-.2.6 0 1.1.2 1.6 0 .7.5 1.2.8 1.8.1.2.3.4.5.5v-.3c.2 0 .3.1.4.2.2.3.5.5.7.8-1.1.5-2 1.3-3 2l-.6-.4Zm-.7-2.2-.3-.7c0-.4-.1-.8-.3-1.1-.1-.4 0-.8-.3-1.1 0 .1-.1.2-.1.3 0 .4.1.8.2 1.2 0 .3.3.6.4.9 0 .3 0 .5.3.7.3.8.7 1.2 1.3 1.5-.5-.5-.9-1-1.3-1.5Zm1.7.2c.3.6.3.6.8.8-.2-.3-.5-.6-.8-.8 0-.1 0-.2-.1-.3-.5-.7-.8-1.5-1-2.3 0-.3-.1-.6-.2-1.1v.4c0 .8.3 1.5.6 2.3.2.4.4.8.8 1.1Z"/><path fill="#301125" d="M82.2 297.1c.5-.2 1-.3 1.4-.5 1.1-.4 2.2-.6 3.3-.9h1.3c.4 0 1 .1 1.5.1l-.2 1.4c-.5 0-1 .3-1.6.1-.4-.6-.9-.7-1.6-.5-.5.2-1.1.1-1.6.2-.6 0-1.3.2-1.9.3-.3 0-.6.1-.8-.1v-.1Z"/><path fill="#451b34" d="m88.3 288.4.2-.2c.6 0 1 .3 1.2.8.2.3.4.6.5.9.2.4.3.8.5 1.2 0 0 0 .2.1.3l.2.5v.5c-.6 0-.9-.2-1.2-.7l-.3-.6c-.2-.3-.2-.7-.5-.9 0-.2 0-.4-.2-.6-.2-.4-.4-.7-.4-1.1l-.1-.1Z"/><path fill="#8a6f7d" d="M89 290.3c.3.2.4.6.5.9l.3.6c.3.5.6.7 1.2.7v.4h-.2s-.2 0-.2-.1h-.4c-.3-.3-.5-.6-.6-.9-.2-.4-.4-.9-.6-1.3v-.2Z"/><path fill="#200917" d="M78 257.4v-.5c.2-.4.5-.7.8-1.1h5.9v1.2l-.7 1.4c-.1 0-.2 0-.1.2-.2 0-.3 0-.3.2-.1.3-.3.5-.4.8-.1.4-.4.5-.8.5h-2.7c-.2-.2-.3-.5-.5-.7-.4-.6-.7-1.2-1.1-1.8Zm3.1-.8c-.2 0-.4.2-.4.5-.1.5-.3 1-.4 1.6v.5c.7.2.9.2 1.7 0 .3 0 .5-.2.5-.4v-1.7c0-.1 0-.3-.1-.4 0 0-.1-.2-.2-.2-.4 0-.7-.2-1 .1Z"/><path fill="#8a6f7d" d="M88.8 253H114.2c0 .2 0 .2-.2.2H88.9s-.2 0-.3-.1v-.2ZM103.1 254.6h-3c-.2 0-.4 0-.5.2-.2.2-.4.3-.7.2-.8 0-1.7-.1-2.5-.1h-1.7c-.5 0-.9 0-1.3-.3h-.2c.2-.3.5-.3.8-.4 1-.2 2-.1 3-.2h2.5c.2 0 .4 0 .4.3 0 .2.1.2.2.2h2.6c.2 0 .5 0 .6.2h-.2Z"/><path fill="#ffa1bd" d="M88.5 256.1c0-.2-.1-.3-.3-.3h-1.4c-.4.4-.4.8-.2 1.2-.2 0-.4-.2-.6-.2h-.4c-.2 0-.5 0-.7.1h-.2v-1.2c.7 0 1.4 0 2.1-.1h1.6c.3 0 .3 0 .2.5Z"/><path fill="#8a6f7d" d="M85.5 252.8h1.1s.2.2.2.3c0 .1-.1.2-.2.3h-1.8c-.2 0-.4 0-.6-.3-.2-.2-.1-.5.1-.5h1.1Z"/><path fill="#4b263f" d="m92.9 257.3-.3-.2c.2-.3.5-.1.7-.2 0 .1-.1.2-.2.3h-.2Z"/><path fill="#5b4172" d="M58.3 250.4c.5 0 .9 0 1.4-.1h.5c1.3.1 2.4.7 3.4 1.4.3.2.5.3.8.5l.2.2c0 .1.2.2.3.2h.2c0 .4.4.6.7.9.3.3.5.6.5 1 .2 1.3.3 2.7.3 4 0 .6.1 1.1.2 1.7 0 .4.1.8.2 1.2 0 .3 0 .7.2.8.3 0 .2.5.6.5 0 0 .2.2.2.3 0 .1 0 .2.1.4.4-.2.7-.2.9-.5.1 0 .3 0 .3-.2.1 0 .3 0 .3-.2.3 0 .7 0 .9-.3.1 0 .3 0 .3-.2.5 0 .9 0 1.2-.5.1 0 .3 0 .3-.2.2 0 .4 0 .6-.1.3 0 .5-.2.8-.2v.7c-.2 0-.4.2-.5.3-1.5 1.1-3.1 2.2-4.6 3.3-.2.1-.3.2-.6.3-.4-.4-.8-.8-1.1-1.2-.2-.2-.4-.3-.7-.2-.2 0-.4.2-.6 0v-1.5c-.4 0-.7-.2-.9-.2-.3 0-.6 0-1-.2-.2-1-.4-2-.5-3 0-.6-.2-1.1-.2-1.7-.1-.8-.3-1.7-.4-2.5-.2-1.1-.4-2.2-.5-3.3 0-.2-.1-.4-.3-.5-.6-.3-1.1-.5-1.7-.8 0 0-.2 0-.3.1 0 0 .2.1.3.2.4.2.9.4 1.3.6.3.1.4.3.5.6 0 .4.1.8.2 1.3.1.8.3 1.7.4 2.5l.6 3.5c.1.9.2 1.8.4 2.7 0 .2.2.4.2.5.6.2 1.2.2 1.7.4.1.6 0 1.1.1 1.7h.8c.2 0 .4 0 .5.2.4.4.7.8 1.1 1.2-.2.3-.3.4-.5.2-.1 0-.2-.2-.3-.3l-.9-.9c-.4-.1-.7.3-1.1 0v-1.4q-.6-.3-1.1-.3c-.7 0-.8 0-.9-.7v-.3c-.1-.9-.2-1.8-.4-2.7l-.6-3.5c-.2-1.2-.4-2.5-.6-3.8-.7-.5-1.6-.7-2.3-1.1-.3-.2-.7-.3-1-.4v-.4Z"/><path fill="#4b263f" d="m76 258.9.3-.2c.2 0 .4.2.5.3.8.5 1.5.9 2.3 1.4.1 0 .3 0 .4.1.4.4.9.6 1.4.9-.8.8-1.5 1.7-2.3 2.5-.5.5-.5.5-1.2.3-.1-.3-.2-.5-.3-.7-.4-.5-.7-1-1.1-1.4-.3-.4-.6-.7-.9-1l-.5-.5v-.2c.5-.5 1.2-.8 1.6-1.4Z"/><path fill="#8a6f7d" d="M74.4 260.3v.2l-.2.6c0 .2 0 .5-.3.6v-1.1c-.3.2-.7.3-1 .4-.1 0-.3.2-.4.3-.1 0-.3 0-.3.2-.5 0-.9.2-1.2.5-.1 0-.3 0-.3.2-.3 0-.6 0-.9.3-.1 0-.3 0-.3.2-.1 0-.3 0-.3.2h-.6c-.2-.2 0-.7-.6-.6v-.6c.4.2.6.5.8 1 .8-.4 1.7-.7 2.5-1.1l2.7-1.2h.5ZM68 261.7h-.4c-.2-.8-.3-1.5-.4-2.3-.1-.8-.1-1.6-.2-2.5 0-.8-.2-1.6-.3-2.4v-1.1c.2.4.3.8.3 1.2 0 1.1.2 2.3.2 3.4s.3 2.1.5 3.2c0 .2.2.3.3.5Z"/><path fill="#6f3657" d="M95.6 252.3v-.3q.2.2 0 .3Z"/><path fill="#200917" d="M100.7 256.1c.1-.5.4-.8.7-1.1h1.4l.5.5c0 1-.1 1.9-.2 2.9H102l-1.3-2.3Z"/><path fill="#e38b86" d="M64.9 252.5c-.2 0-.3 0-.3-.2l.3.2ZM64.6 252.3l-.2-.2.2.2Z"/><path fill="#ffa1bd" d="m103.3 255.4-.5-.5c.1 0 .2-.2.3-.3h1v1.3c-.2 0-.3-.1-.4-.2-.1-.1-.2-.3-.4-.3Z"/><path fill="#6f3657" d="M119 252.8h1.1c0 .2 0 .3-.1.3-.4 0-.7.1-1-.3Z"/><path fill="#612b50" d="M57.8 305.5c-.1.2-.3.4-.4.5-3.5 3.4-6.8 6.9-10 10.5-.8.8-1.5 1.7-2.3 2.5l-.4.4c0-.4 0-.7.3-1.1l2.7-5.1.6-1.2c.8-1.4 1.5-2.8 2.3-4.3.1-.2.3-.4.6-.5.8-.4 1.6-.7 2.4-1.1.1 0 .2-.1.4-.2 0-.2 0-.3-.1-.4-.4-.7-.8-1.4-1.2-2.2-.2-.3-.4-.6-.4-.9.1 0 .3 0 .4.2.6.5 1.2 1.1 1.8 1.6.3.2.6.5.9.7.2.1.5.2.7.3.6 0 1.3.2 1.9.2Z"/><path fill="#301125" d="m79.9 295.7-2.2-.3-5.1-.6-4.9-.6-5-.6c-.7 0-1.3-.1-2-.2 0-.2.1-.4.1-.7.2-1.1.3-2.3.5-3.4 0-.5.1-.9.1-1.4 0-.9.2-1.7.3-2.6 0-.8 0-1.7.2-2.5.2-1 .1-1.9.1-2.9v-.2c.1 0 .3 0 .3-.2s0-.3-.1-.4l-.2-.2c.5 0 1 0 1.5.3v3.3c0 .6 0 1.1.1 1.7V290.1c0 .4.1.5.5.5 1.1.2 2.3.3 3.4.5l3.7.6c.8.1 1.7.2 2.5.4.3 0 .7.1 1 .2 0 .4-.2.6-.3.8-.2.3 0 .6.3.7 1 .2 2 .5 3 .7h2.8v.8c0 .2 0 .3-.2.4h-.5Z"/><path fill="#612b50" d="M62 279.7v.2s-.2 0-.3.2c0 .3-.2.5-.2.8-.1 1-.4 2-.6 3.1-.1.9-.4 1.8-.6 2.7-.8 0-1.4-.5-2-.7-.7-.2-1.4-.3-2-.8-.1-1.2.2-2.3.3-3.6-.2.2-.3.4-.3.5-.3.8-.7 1.6-1 2.4-.3.7-.6 1.5-.9 2.2-.1.3-.3.3-.6.3-1.2-.3-2.4-.7-3.7-1v-.8c-.7-.4-1.4-.5-2-.8 0-.2.2-.2.2-.1.6.2 1.3.2 1.9-.1h.4c0 .3 0 .6-.1.8v.6c.4.3.8.2 1.2.3.4 0 .8.3 1.3 0 0-.6.2-1.2.2-1.8.2-1.7.4-3.3.7-5 0-.2.1-.4.2-.6h.4l.2.8 2.6.2v.6c0 .2 0 .3.2.4-.2.2-.4.4-.3.7 0 .3 0 .5-.1.8 0 .3-.2.6.1.9 0 0-.3.2-.3.3-.1.4-.2.8-.2 1.1 0 .3.2.5.5.4.4-.1.7-.3 1.1-.4.3-.1.7-.3 1-.4v1.2c.1-.3.2-.4.2-.5.3-1.3.6-2.6.9-4 0-.3.1-.6.3-.8h1.2Z"/><path fill="#e38b86" d="M54.2 278.4c0 .2-.1.4-.2.6-.2 1.7-.4 3.3-.7 5 0 .6-.2 1.2-.2 1.8-.5.2-.9 0-1.3 0s-.8 0-1.2-.3v-.6c0-.3 0-.6.1-.8 0-.7.1-1.4.2-2 0-.6.2-1.1.3-1.7v-.7c.1-.3.2-.6.2-1 0-.2 0-.5.3-.7h1.5c.2 0 .4 0 .6.1.2 0 .3 0 .4.3Zm-1.5.2c-.2 0-.4.2-.4.4s.2.4.4.4.3-.1.3-.3c0-.2-.1-.4-.3-.4Z"/><path fill="#612b50" d="M61.5 287.9c0 .5 0 1-.1 1.4-.2 1.1-.3 2.3-.5 3.4 0 .2 0 .4-.1.7l-.6 3.4c0 .5-.2 1-.3 1.5 0 .1 0 .2-.1.3-.9-.4-1.9-.6-2.8-.8h-2.1c-.6 0-1.2 0-1.7.5 0-.3.1-.5.3-.7.3-.2.5-.4.9-.4.8 0 1.7-.2 2.5-.2 1.4 0 2.3-.7 2.7-2.1v-2.7c0-1.1.3-2.2.8-3.2.2-.5.6-.9 1.2-1.1Z"/><path fill="#431a34" d="M53.2 278h-1.5c-.3.2-.2.5-.3.7 0 .3-.1.6-.2 1-1.2.5-2.3 1-3.6 1.5 0-.9.3-1.6.5-2.4.1-.5.2-1 .3-1.6v-.5c0-.2.2-.3.3-.3h.8c1 .1 2.1.3 3.1.7.1 0 .2.2.3.3v.7ZM51.3 280.3c0 .6-.2 1.1-.3 1.7-.5.2-.9.4-1.4.6-.7.3-1.5.7-2.3 1v-.4c.1-.4.2-.9.4-1.3l1.2-.6c.7-.3 1.3-.6 2-.9h.4Z"/><path fill="#4b263f" d="M46.5 278.6h.8c.1 0 .2 0 .4.1h-.8c-.1 0-.2 0-.4-.1Z"/><path fill="#451b34" d="M55.8 299.5h.2c.8.2 1.7.4 2.5.7.2 0 .3.3.5.4 0 .2.1.4.1.6 0 .3.1.6.2.9-.3.4-.5.9-.7 1.3h-.1c-.7.6-.9.6-1.6 0-.1-.1-.3-.2-.5-.3-.1-.1-.2-.3-.3-.4-.5-.5-1-.9-1.6-1.4-.4-.4-.5-.6-.3-1.1 0-.2.2-.3.2-.5v-.2l.2-.2h1.2Z"/><path fill="#8a6f7d" d="M54.4 299.6s.1.1 0 .2c0 .2-.1.3-.2.5-.2.5-.1.7.3 1.1.5.5 1 .9 1.6 1.4.1.1.2.3.3.4h-.2c-.5-.4-.9-.8-1.4-1.2l-.2-.2-.2-.2c-.8-.7-.8-1-.2-1.9v-.1ZM56.4 303.2c.2.1.3.2.5.3.7.6.9.6 1.6 0h.1v.1c-.2.3-.4.5-.7.6h-.5l-.9-.6-.2-.2v-.2Z"/><path fill="#5b4172" d="M58.6 303.5v-.1c.1-.5.3-1 .7-1.4 0 .6-.3 1.1-.7 1.5ZM59.3 302c0-.3-.1-.6-.2-.9 0-.2 0-.4-.1-.6.3.2.4.5.5.8 0 .2 0 .4-.1.6ZM55.8 299.5h-1.2c.4-.3.8-.3 1.2 0Z"/><path fill="#451b34" d="M57.4 304.1h.5c-.2.2-.3.2-.5 0ZM56.4 303.4l.2.2-.2-.2ZM56.4 303.2v.2h-.2c0-.2.1-.2.2-.2ZM54.7 301.9l.2.2-.2-.2ZM54.5 301.7Z"/><path fill="#4b263f" d="M62.1 278v.8c-.6 0-1.1-.4-1.7-.6l-.4-.2c-.4-.3-1-.4-1.5-.5-.3 0-.5-.1-.5-.4 0-.4-.3-.5-.6-.6-.7-.2-1.3-.3-2-.5-1.1-.3-2.1-.5-3.2-.8l-.3-.6c-.2-.2-.5-.2-.8-.3-.6-.2-1.2-.4-1.7-.6-.1 0-.2-.1-.4-.2v-.8c0-.3-.2-.4-.4-.5V271c.2 0 .4.1.7.2v.9c.8.4 1.5.7 2.3.9.2 0 .1.4.4.5 0-.1 0-.2.1-.3.3-1.6.7-3.2 1-4.8 0-.2.1-.3.3-.4v.4c-.2 1.2-.4 2.4-.6 3.7v1.5c.6.2 1.3.4 1.9.6.2 0 .3 0 .5-.1.3.1 0 .3 0 .5 0 0 .1.2.2.2 0 0 .2 0 .2-.1.2-.4.3-.8.4-1.2.2-.5.3-1.1.5-1.6 0-.1.2-.2.3-.3-.1.6-.2 1.2-.4 1.8v.2c0 .4 0 .5.3.7.1 0 .3.2.5.2.6.3 1.3.5 1.9.8 0 .4-.1.8-.1 1.2v.5l3 .4v.5Z"/><path fill="#431a34" d="m60 278 .4.2c0 .4-.1.8-.2 1.2-.1 0-.3 0-.4.1-.7.3-1.4.6-2.2.9-.2-.1-.2-.3-.2-.4v-.6c0-.1.2-.2.2-.4v-.8c.3-.4.8-.4 1.2-.3.4.1.8.1 1.2.1Z"/><path fill="#200917" d="M57.6 278.2v.8c0 .1-.1.2-.2.4-.9 0-1.7-.1-2.6-.2l-.2-.8h-.4c0-.2-.2-.3-.4-.3s-.4 0-.6-.1v-.7c.2 0 .4 0 .5.2.1.3.4.3.6.3.8 0 1.6.2 2.4.3h.8Z"/><path fill="#431a34" d="M48.1 277.1Z"/><path fill="#4a2b58" d="M58.3 250.4v.4c-.4 0-.7.3-1 .5a9.13 9.13 0 0 0-3.1 5.1c-.1.5-.2 1-.3 1.6 0 .1.2.2.3.3.2.4.6.6.7 1.1 0 0-.1.2 0 .3l2.1 3.9s0 .2.1.2l2.1 3.9c.2.3.2.6.2.9v2.7c-.4-.3-.9-.6-1.3-.9-.2-.1-.5-.2-.8-.3 0-.4 0-.8.1-1.1l-.3-.3s-.2 0-.3-.1v-.2c0-.3-.1-.5-.4-.7l-1.5-.9h-.3c-.1-.3-.4-.4-.6-.4l-.2.3c-.3-.1-.5-.5-.8-.3v-.4c.2-.3 0-.6-.2-.7l-.6-.3c-.6-.3-1.2-.7-1.8-1 0-.2 0-.3.1-.5 1.1-3.4 2.4-6.8 3.9-10.1.2-.5.6-1 .6-1.6.2-.1.3-.3.3-.5l.4-.7h2.7Z"/><path fill="#e9486f" d="M54.9 251.7c0 .6-.4 1.1-.6 1.6-1.5 3.3-2.8 6.7-3.9 10.1 0 .2 0 .3-.1.5-.2.3-.3.6-.3 1-.4 0-.6-.2-.9-.5.3-.3.3-.7.4-1 .5-1.3.9-2.6 1.4-3.9l2.1-4.8c.5-1 1-1.9 1.6-2.8 0-.1.2-.2.3-.3Z"/><path fill="#fec1a5" d="M59 249.9v.2h-.2v-.1h.2Z"/><path fill="#e9486f" d="M55.2 251.1c0 .2 0 .4-.3.5 0-.3 0-.4.3-.5Z"/><path fill="#fec1a5" d="m59 249.9.3-.2-.3.2Z"/><path fill="#8a6f7d" d="M49.9 264.9c0-.4.1-.7.3-1 .6.3 1.2.7 1.8 1l.6.3c.3.1.4.4.4.7 0 0 0 .1-.1.2v.2l-.9 5c-.1.6-.2 1.2-.4 1.8-.8-.3-1.6-.5-2.3-.9v-.9c.2-1 .3-2 .4-3.1 0-.7.2-1.4.3-2.2v-1.1Zm2.5.6-.5-.2c-.5-.4-1.1-.7-1.7-.9v1c-.2 2.2-.4 4.5-.8 6.7.6.3 1.2.6 1.9.7 0-.3.2-.6.2-.9.2-1.2.4-2.4.6-3.7.1-.8.2-1.6.4-2.3 0-.1 0-.3-.2-.3Z"/><path fill="#533562" d="m40.1 323.7-.7 1c0-.2 0-.4-.2-.5-.3-.1-.5-.3-.8-.5-.6-.3-1.1-.6-1.7-.8-.3-.1-.3-.2 0-.6.1 0 .3 0 .4.2.7.3 1.4.7 2.1 1.1.3.1.5.3.8.2ZM39.2 324.8l-.7 1v-.5c-.2-.2-.5-.3-.8-.5-.5-.2-.9-.4-1.4-.7-.3-.2-.3-.3 0-.7 1 .4 1.8.9 2.8 1.3Z"/><path fill="#301125" d="M79.8 305.4c0-.4.1-.7.1-1.1 0-.8.1-1.5.2-2.3 0-.3.1-.6.3-.8.2-.2.3-.5.5-.8.2-.2.4-.4.5-.7.3-.5.7-1 1-1.5.2.2.3.4.3.7.3 1.3.5 2.7.8 4v.7l-.6 1.8c-.2.4-.3.8-.3 1.3v9.7c.7.2 1.5 0 2.2.2-.2.4-.7.4-.9.8.1.3.3.7.5 1-.3.3-.6.2-.9.3-.7.1-1.3.2-2 .2h-1l-.5-1.1-1.1-.2c-.1-.4 0-.8.2-1.1.4-.2.9 0 1.3-.2l-.3-1.9c-.4-2.5-.4-5-.3-7.5V305.3Z"/><path fill="#533562" d="M86 319c0 .5-.2.9-.3 1.4l-.2-.2v-.4c-.1-.2-.4 0-.6-.2l-.2-.2s0-.2.2-.2c.4 0 .7 0 1.1-.1ZM85.3 321.9c0 .2 0 .5-.2.7h-.9c-.2 0-.3-.1-.2-.3 0 0 0-.2.2-.2.4-.2.7-.2 1.1-.2ZM85.6 321c0 .2 0 .5-.2.7h-.9s-.2-.1-.2-.2c0 0 .1-.2.2-.2.4 0 .7-.1 1.1-.2Z"/><path fill="#5b4172" d="M85.2 322.8c0 .2 0 .5-.2.7h-1.2c0-.2 0-.4.2-.4h.5c.3 0 .5 0 .7-.2Zm-.1.5c-.4-.2-.6-.1-.9 0h.9Z"/><path fill="#8a6f7d" d="M85.6 321c0-.1 0-.3-.1-.3h-.7c0-.3 0-.4.2-.4h.7v.1H85c.3.1.6.2.9 0 0 .3 0 .5-.1.6ZM66.3 245.7c0 .2-.3.3-.4.3H64c-.4 0-.6-.2-.6-.7v-2.9c0-.4.1-.8.6-.9 0 .2.3.2.4.2h.7v.2c-.3.6-.5 1.2-.8 1.8-.2.4-.3.7-.4 1.1 0 .3 0 .3.1.7.2-.3.4-.6.5-1 .4-.9.8-1.9 1.2-2.8.3.1.3.4.3.6v2.9c0 .1.1.2.2.3Z"/><path fill="#6f3657" d="M65.8 241.8c-.4.9-.8 1.9-1.2 2.8-.1.3-.3.7-.5 1-.2-.4-.2-.4-.1-.7.1-.4.3-.7.4-1.1.3-.6.5-1.2.8-1.8v-.2h.5Z"/><path fill="#8a6f7d" d="M66.3 245.7V241.9v3.3c0 .2 0 .3-.2.4Z"/><path fill="#5b4172" d="M64.1 241.6s0-.1.1-.1H66 64.1Z"/><path fill="#e38b86" d="M62.1 278v-.5l-3.1-.4v-.5c0-.4 0-.8.1-1.2v-.1c.1-.8.3-1.6.4-2.5 0-.4.1-.8.2-1.2 0-.3.1-.6.2-.9.2-1 .3-1.9.5-2.9.1.1.2.2.3.4.6 1 1.3 2 1.9 3 .2.3.3.6.3 1v.8c0 .5 0 .9.3 1.4 0 .5 0 1.1-.2 1.6 0 .4-.1.8-.1 1.2 0 .4-.2.7-.6.8h-.4Z"/><path fill="#4a2b58" d="M75 261c.3.3.6.7.9 1 .4.5.8.9 1.1 1.4.2.2.2.5.3.7-.8 1.1-1.6 2.2-2.6 3.2l-.2.4s-.1 0-.2.1l-4.6 5.7h-1.9c-.5 0-1-.1-1.4-.1-.5 0-.8-.2-1.1-.5-.5-.6-1.1-1.2-1.6-1.7 0-.1-.2-.2-.2-.3-.6-.8-1.2-1.5-1.8-2.3 0-.1.2-.2.3-.1.6.4 1.2.8 1.7 1.2.2.1.4.3.6.4.5-.3.5-.3 1-.1 0 0 .1 0 .2.1.4.2.4.2.8-.2v-.1s.2-.2.4 0c-.1.6-.3 1.3-.4 2 0 .3-.1.6 0 .9l1.9.2.5-.6.7.5c.2-.2.3-.3.4-.5.7-.8 1.3-1.7 1.9-2.6l2.1-2.7c.5-.7 1-1.3 1.6-2 .2-.2.3-.4.3-.7-.2-.6-.5-1.1-.7-1.7-.2-.5-.5-.9-.4-1.5Z"/><path fill="#e9486f" d="M61.8 268.5c.6.8 1.2 1.5 1.8 2.3 0 .1.2.2.2.3-.2.5-.3 1-.3 1.5 0 .6-.1 1.2-.2 1.8-.2-.4-.3-.9-.3-1.4v-.8c0-.3 0-.6-.3-1-.7-1-1.3-2-1.9-3 0-.1-.2-.2-.3-.4v-.8c.1 0 .2.1.3.2.3.4.6.8 1 1.1Z"/><path fill="#5b4172" d="M74.5 267.9s.1 0 .2-.1c.2 0 .5 0 .7.2h-.9Z"/><path fill="#301125" d="M82.5 298.3c-.3.5-.7 1-1 1.5-.2.2-.3.4-.5.7 0-.3-.1-.5-.4-.7l1-1.3-.4-.4c0-.2-.1-.4-.2-.6-.5.1-.6-.4-.9-.5 0-.4 0-.8-.2-1.2h.5c.3.4.5.4.9 0l.5.2-.2.5.4.3v.4c-.2.1-.2.3 0 .5 0 0 .2.1.3.2.2 0 0 .2 0 .4Z"/><path fill="#e38b86" d="M79.6 260.5c-.1 0-.3 0-.4-.1-.8-.4-1.6-.9-2.3-1.4-.2 0-.3-.2-.5-.3.4-.2.7-.5 1-.8.2-.2.4-.4.6-.5.4.6.7 1.2 1.1 1.8.2.3.3.5.5.7v.5Z"/><path fill="#200917" d="M79.6 260.5v-.2c1 .4 1.8.5 2.7.7h.3s.2.2.2.3c0 .2-.1.2-.3.2h-.6c-.3 0-.6-.2-1-.2-.5-.3-1-.5-1.4-.9Z"/><path fill="#fec1a5" d="M90.5 289.9s.1 0 .1.1v.1-.2Z"/><path fill="#431a34" d="m82.1 296.8-.4-.3.2-.5-.5-.2.6-.3c.4-.4.7-.9 1.1-1.3a6 6 0 0 1 1.9-1.6c.4-.2.7-.4 1-.6 0 0 .2 0 .2.1.5.6 1.1 1.2 1.5 1.9v.3c-1.9.6-3.9 1.2-5.5 2.4Z"/><path fill="#301125" d="M85.9 292c-.3.2-.7.4-1 .6-.8.3-1.3.9-1.9 1.6-.4.4-.7.9-1.1 1.3-.1.2-.4.2-.6.3 0-.6.4-1 .6-1.5.7-1.1 1.5-2.1 2.5-3 .2-.2.5-.4.8-.6.3.4.8.7.7 1.2Z"/><path fill="#8a6f7d" d="M88.3 288.4s.1 0 .1.1c0 .4.2.8.4 1.1 0 .2.1.4.2.6h-.2v-.2s0-.1-.1-.2v-.2s0-.1-.1-.2v-.2l-.2-.2V288.1Z"/><path fill="#451b34" d="M88.2 288.9v.2-.1ZM88.3 289.3s0 .1.1.2c0 0 0-.1-.1-.2ZM88.4 289.6s0 .1.1.2v-.2ZM88.6 290s0 .1.1.2c0 0 0-.1-.1-.2ZM90.5 292.7s.2 0 .2.1c0 0-.2 0-.2-.1ZM90.1 292.5ZM88.8 290.3h.2v.2s0-.1-.1-.2Z"/><path fill="#4b263f" d="M92.5 261.9c-.4-.3-.6-.7-.8-1.1-.3-.7-.6-1.4-.6-2.3v-.4c0 .5.2.8.2 1.1.2.8.5 1.6 1 2.3 0 0 0 .2.1.3ZM92.7 259.3c.2.4.5.9.7 1.3.2.3.3.6.6.8v.3c-.3-.1-.5-.3-.6-.5-.3-.6-.7-1.1-.8-1.8ZM90.5 261c-.1-.3-.3-.6-.4-.9-.1-.4-.2-.8-.2-1.2 0 0 0-.1.1-.3.4.3.2.8.3 1.1.1.4.2.8.3 1.1ZM90.9 261.7l1.3 1.5c-.6-.2-1-.7-1.3-1.5ZM92.7 259.3c-.3-.5-.4-1-.2-1.6.1.5.3 1 .3 1.5ZM92.6 261.8c.3.2.5.5.8.8-.5-.2-.5-.2-.8-.8ZM90.8 261.7c-.3-.2-.3-.4-.3-.7l.3.6Z"/><path fill="#ffa1bd" d="M82 259.1c-.8.1-.9.1-1.7 0v-.5c.1-.5.3-1 .4-1.6 0-.2.2-.4.4-.5.2 0 .4 0 .5.1.2.2.3.5.3.8 0 .5 0 1 .1 1.5v.2Z"/><path fill="#5b4172" d="M81.6 256.7c-.2 0-.4 0-.5-.1.3-.3.7-.2 1-.1 0 0 .1 0 .2.2 0 .1.1.3.1.4v1.7c0 .3-.2.5-.5.4v-.2c.2-.1.3-.2.3-.5 0-.6 0-1.3-.3-1.9h-.4Z"/><path fill="#451b34" d="M83.9 258.3s0 .1-.1.2c0-.1 0-.2.1-.2Z"/><path fill="#533562" d="M61.8 268.5c-.3-.4-.6-.8-1-1.1 0 0-.2-.1-.3-.2-.1-.3-.2-.5-.3-.8-.7-1-1.4-1.9-2.1-2.8-.9-1.2-1.8-2.4-2.7-3.7-.1-.2-.3-.3-.5-.5 0-.5-.5-.7-.7-1.1 0-.1-.2-.2-.3-.3l.3-1.6c.5-2 1.6-3.7 3.1-5.1.3-.2.6-.5.9-.5.3.1.7.2 1 .4.8.4 1.6.6 2.3 1.1l.6 3.8.6 3.5c.1.9.3 1.8.4 2.7v.3c.2.7.2.7.9.7q.5 0 1 .3v1.4c.5.3.8-.1 1.2 0l.9.9c0 .1.2.2.3.3.2.1.3 0 .5-.2.3 0 .6-.2.8-.4.2-.2.4-.3.6-.5.7-.5 1.5-1 2.2-1.6.6-.4 1.2-.9 1.9-1.3.2-.1.3-.2.3-.5.2-.1.3-.4.3-.6l.2-.6.5.5c0 .5.2 1 .4 1.5.2.6.5 1.1.7 1.7 0 .3-.2.5-.3.7-.5.7-1 1.3-1.6 2l-2.1 2.7c-.7.8-1.3 1.7-1.9 2.6-.1.2-.3.3-.4.5l-.7-.5-.5.6-1.9-.2c-.2-.3-.1-.6 0-.9.1-.7.3-1.3.4-2-.2-.2-.3 0-.4 0v.1c-.3.4-.4.4-.8.2 0 0-.1-.1-.2-.1-.4-.2-.4-.2-1 .1-.2-.1-.4-.2-.6-.4-.6-.4-1.2-.8-1.7-1.2-.2-.1-.3 0-.3.1Z"/><path fill="#8a6f7d" d="M74 261.7c0 .2-.1.4-.3.5-.6.4-1.2.9-1.9 1.3-.7.5-1.5 1-2.2 1.6-.2.1-.4.3-.6.5-.2.2-.5.4-.8.4-.4-.4-.7-.8-1.1-1.2-.1-.2-.3-.2-.5-.2h-.8c-.2-.5 0-1.1-.1-1.7-.5-.2-1.1-.2-1.7-.4 0-.1-.2-.3-.2-.5-.1-.9-.2-1.8-.4-2.7l-.6-3.5c-.1-.8-.3-1.7-.4-2.5 0-.4-.1-.8-.2-1.3 0-.3-.2-.5-.5-.6-.4-.2-.9-.4-1.3-.6 0 0-.2-.1-.3-.2 0-.2.2-.2.3-.1.6.3 1.1.5 1.7.8.2 0 .3.2.3.5.2 1.1.3 2.2.5 3.3.1.8.3 1.7.4 2.5 0 .6.2 1.1.2 1.7.2 1 .4 2.1.5 3 .3.2.7 0 1 .2.3 0 .5.1.8.2v1.5c.3.2.5 0 .7 0 .3 0 .5 0 .7.2.4.4.8.8 1.1 1.2l.6-.3c1.5-1.1 3.1-2.2 4.6-3.3.2-.1.3-.2.5-.3Z"/><path fill="#451b34" d="M72.6 261.3c.1 0 .3-.2.4-.3.3-.1.7-.3 1.1-.4v.4c-.4 0-.6.2-.9.2-.2 0-.4 0-.6.1ZM71.1 262c.3-.3.7-.5 1.2-.5-.3.4-.7.5-1.2.5ZM69.9 262.5c.2-.2.5-.4.9-.3-.2.4-.5.4-.9.3ZM69.2 262.9c0-.2.2-.2.3-.2 0 .2-.2.2-.3.2ZM69.5 262.7c0-.2.2-.2.3-.2 0 .2-.2.2-.3.2Z"/><path fill="#451b34" d="M70.7 262.2c0-.2.2-.2.3-.2 0 .2-.2.2-.3.2ZM72.3 261.5c0-.2.2-.2.3-.2 0 .2-.2.2-.3.2Z"/><path fill="#ffe7db" d="M71.7 305.4Z"/><path fill="#200917" d="M60.1 279.4c0-.4.1-.8.2-1.2.6.2 1.1.6 1.7.7l.2.2c.2.1.2.3.1.4 0 .2-.2.2-.3.2h-1.2c-.2.2-.2.5-.3.8-.3 1.3-.6 2.6-.9 4 0 .1-.1.2-.2.5-.1-.5 0-.8 0-1.2.3-.6.4-1.3.5-2V280.1c.1-.2.2-.4.2-.7Z"/><path fill="#6f3657" d="M59.8 281.8c-.1.7-.1 1.4-.5 2-.3.1-.7.3-1 .4-.4.1-.7.3-1.1.4-.3 0-.5 0-.5-.4s.1-.8.2-1.1c0-.1.2-.2.3-.3.3-.1.6-.3.9-.4.5-.2 1.1-.4 1.6-.6Z"/><path fill="#431a34" d="M59.8 281.8c-.5.2-1.1.4-1.6.6-.3.1-.6.3-.9.4-.3-.3-.2-.6-.1-.9 0-.3 0-.5.1-.8.6-.1 1.2-.4 1.8-.7.3-.1.6-.3.9-.3V281.8Z"/><path fill="#6f3657" d="M60 280.1c-.4 0-.6.2-.9.3-.6.3-1.1.6-1.8.7 0-.3.1-.5.3-.7.7-.3 1.4-.6 2.2-.9.1 0 .3 0 .4-.1 0 .2 0 .5-.2.7Z"/><path fill="#733755" d="M52.7 278.5c.2 0 .4.2.3.4 0 .2-.1.3-.3.3-.2 0-.4-.2-.4-.4s.2-.4.4-.4Z"/><path fill="#6f3657" d="M59.8 271.7c0 .4 0 .8-.2 1.2-.1.8-.3 1.6-.4 2.5v.1c-.6-.3-1.3-.5-1.9-.8-.2 0-.3-.1-.5-.2-.3-.2-.4-.3-.3-.7v-.2c.1-.6.2-1.2.4-1.8 0-.5 0-1.1.4-1.5.3.1.5.2.8.3.5.3.9.6 1.3.9l.5.3Z"/><path fill="#8a6f7d" d="m53.7 266.6.2-.3c.3 0 .5.1.6.4H54v1.2c-.2.6-.3 1.2-.4 1.8-.2 1.2-.3 2.4-.6 3.6v.2c.4.2.9.3 1.3.4.4.1.5 0 .7-.4l1.2-4.4c0-.3.1-.6.2-.9-.1-.3-.4-.4-.7-.5h-.1c-.2-.3-.4-.4-.7-.5h-.1l-.2-.3h.3l1.5.9c.3.2.4.4.3.7 0 0 0 .2-.1.3l-.4 1.5c-.1 0-.2.2-.1.4v.3c-.2 0-.2.2-.2.4l-.6 2.2c-.1 0-.2.2-.1.4v.3c-.2 0-.3.2-.5.1-.6-.2-1.2-.4-1.9-.6v-1.5c.2-1.2.4-2.4.6-3.7v-.4c0-.2 0-.4.1-.6v-.9Z"/><path fill="#200917" d="M53.7 266.6v.8c0 .2 0 .4-.1.6-.2 0-.3.2-.3.4-.3 1.6-.7 3.2-1 4.8 0 0 0 .1-.1.3-.3 0-.2-.4-.4-.5.1-.6.3-1.2.4-1.8l.9-5c.4-.1.6.2.8.3ZM56 270.9v-.3c.3-.1.3-.2.1-.4.1-.5.3-1 .4-1.5h.1c.1 0 .2 0 .3.1.1 0 .2.2.3.3 0 .4 0 .8-.1 1.1-.3.5-.3 1-.4 1.5l-.3.3c-.2.5-.3 1.1-.5 1.6-.1.4-.3.8-.4 1.2l-.2.1s-.2-.1-.2-.2c0-.2.2-.4 0-.5v-.3c.4-.1.4-.1.2-.4l.6-2.2c.3-.1.3-.2.1-.4Z"/><path fill="#4b263f" d="m59.8 271.7-.5-.3v-2.7c0-.3 0-.6-.2-.9l-2.1-3.9s0-.2-.1-.2l-2.1-3.9v-.3l.5.5c.9 1.2 1.8 2.4 2.7 3.7.7.9 1.4 1.9 2.1 2.8.2.2.2.5.3.8v.8c-.2 1-.3 1.9-.5 2.9 0 .3-.1.6-.2.9ZM56.8 268.7h-.1s0-.2.1-.3v.2ZM52.8 266.1s0-.1.1-.2c0 0 0 .1-.1.2Z"/><path fill="#431a34" d="M52.6 265.8c-.1.8-.2 1.6-.4 2.3-.2 1.2-.4 2.4-.6 3.7 0 .3-.1.6-.2.9-.7-.1-1.3-.4-1.9-.7.4-2.3.6-4.5.8-6.7 0-.2.2-.3.3-.5.3.1.5.3.8.3.2 0 .4 0 .6.1.2 0 .3.1.5.2 0 .1.1.2.2.3Z"/><path fill="#4a2b58" d="M52 265.2c-.2 0-.4 0-.6-.1-.3 0-.5-.2-.8-.3-.1.2-.2.3-.3.5v-1c.6.3 1.2.5 1.7.9ZM52.6 265.8c0-.1-.1-.2-.2-.3.2 0 .2.2.2.3Z"/><path fill="#301125" d="M85.7 320.3c-.3.2-.6 0-.9 0H85.7ZM85.1 323.3h-.9c.2-.1.5-.2.9 0Z"/><path fill="#3a172c" d="M81.6 256.7h.4c.2.5.3 1.1.3 1.8 0 .2-.1.4-.3.5 0-.5 0-1-.1-1.5 0-.3 0-.6-.3-.8Z"/><path fill="#431a34" d="M56.4 268.2c0 .3 0 .6-.2.9l-1.2 4.4c-.1.4-.3.5-.7.4-.5-.1-.9-.2-1.3-.4v-.2c.4-1.2.4-2.4.6-3.6 0-.6.2-1.2.2-1.8v-.9H54.6c0 .4.4.5.7.5h.1c0 .4.3.5.7.5Z"/><path fill="#4a2b58" d="M54.7 267.1H54v-.4h.5l.2.4ZM56.4 268.2c-.3 0-.6 0-.7-.5.3 0 .6.2.7.5ZM55.6 267.6c-.4 0-.7 0-.7-.5.3 0 .5.2.7.5Z"/><path fill="#4b263f" d="M56.2 270.2c.2.2.2.2-.1.4 0-.1 0-.3.1-.4ZM56 270.9c.2.2.2.2-.1.4 0-.1 0-.3.1-.4ZM55.4 273.4c.2.2.2.2-.1.4 0-.1 0-.3.1-.4Z"/><path fill="#4a2b58" d="M54 267.6v.4-.4ZM53.6 267.5v-.2.2Z"/><g fill="#ff0068" data-name="PRINT"><path d="M30.4 13.8c0 .6-.2 1.1-.6 1.5L23 22.1l-7.2-4.2v-4.1c0-1.2 1-2.1 2.1-2.1s2.1 1 2.1 2.1V19l6.7-6.7c.8-.8 2.2-.8 3 0 .4.4.6.9.6 1.5ZM29.8 32.8c-.4.4-.9.6-1.5.6s-.6 0-.8-.2c-.3-.1-.5-.3-.7-.5l-2.3-2.3-4.4-4.4v5.2c0 1.2-1 2.1-2.1 2.1s-2.1-1-2.1-2.1v-4.1l7.2-4.2 4.5 4.5 2.3 2.3c.8.8.8 2.2 0 3ZM22.7 22.4c0-.1-.1-.2-.2-.3l-1.8-1-4.9-2.8-4.1-2.4c-.2-.1-.5 0-.7.2v12.7c0 .3.2.5.5.5h.2l4.1-2.4 6.7-3.9s.1-.1.1-.2v-.3Zm-10.2-5 3.2 1.9 5.2 3s.1 0 .1.1v.3s0 .2-.2.2l-5.2 3-3.2 1.9c-.2.1-.4 0-.5-.1V17.8c0-.2.2-.4.4-.4h.2Z"/><path d="M19.6 22.6s0 .1-.1.2L15.6 25l-2.4 1.4c-.1 0-.3 0-.4-.1V18.9c0-.2.1-.3.3-.3h.1l2.4 1.4 3.9 2.2s.1 0 .1.2v.2ZM65.5 22l-6-3-3.7-1.8c-.2-.1-.5 0-.6.2v10.1c.1.2.4.4.6.4h.4l3.4-1.9 2.1-1.1 3.8-2s.2-.1.2-.2v-.2c0-.1-.1-.2-.2-.2Zm-6 3-2.8 1.5c-.2.1-.4 0-.5-.1v-7.8c0-.2 0-.3.3-.3h.1l2.8 1.4 1 .5L64 22s.1 0 .2.2v.2s0 .1-.1.1l-4.6 2.4Z"/><path d="M63 22.5s0 .1-.1.1l-3.4 1.8-2.1 1.1h-.3V19.6c0-.1 0-.2.2-.2l2.1 1.1 3.5 1.8.1.1v.1ZM39.9 17.3h-5.2v10.4h2.6v-3.4H40c2.5 0 4.3-1.5 4.3-3.6 0-2-1.9-3.5-4.4-3.4Zm-.2 4.9h-2.4v-2.9h2.4c1.2 0 2.1.5 2.1 1.4 0 .9-.8 1.5-2 1.5ZM54.1 27.7l-8.3.1-.1-10.3h2.5l.1 8.3 5.7-.1.1 2zM70.9 23.8v3.7h-2.5v-3.7l-4.6-6.5h2.9l2.9 4.5 2.9-4.6h2.8l-4.4 6.6zM86.2 28h-1.7l-4.4-4.7-1.8 1.7v3.1H77l-.1-10.3h1.3l.1 5.7 5.7-5.7 1.7-.1-4.7 4.8 5.2 5.5zM92.6 17.5c-3.2 0-5.9 2.5-5.8 5.4 0 2.9 2.8 5.3 6 5.3s5.8-2.5 5.8-5.4c0-2.9-2.8-5.3-5.9-5.2Zm.4 9.6c-2.5.2-4.7-1.7-4.9-4.2.1-2.3 1.9-4.1 4.2-4.3 2.5-.2 4.7 1.7 4.9 4.2-.1 2.3-1.9 4.1-4.2 4.3ZM108.8 25.1c0 1.6-1.3 3-4 3-1.7 0-3.3-.5-4.5-1.6l.8-.9c1 1 2.4 1.5 3.8 1.4 1.8 0 2.7-.9 2.7-1.8 0-1.1-1.1-1.5-3.1-1.9-2.3-.5-3.8-1.1-3.8-2.9 0-1.6 1.6-3 3.8-3 1.5 0 2.9.5 4.1 1.4l-.8.9c-.9-.8-2.1-1.3-3.3-1.3-1.4 0-2.4.9-2.4 1.8 0 1.1 1.2 1.4 3.1 1.8 2.2.4 3.8 1.1 3.8 2.9ZM122.5 28h-1.3l-.1-7.8-4.2 7.3-4.3-7.1.1 7.7h-1.3l-.2-10.3h1.3l4.4 7.2 4.2-7.3h1.3l.1 10.3zM130.7 17.5c-3.2 0-5.9 2.5-5.8 5.4 0 2.9 2.8 5.3 6 5.3s5.9-2.5 5.8-5.4c0-2.9-2.8-5.3-5.9-5.2Zm.4 9.6c-2.5.2-4.7-1.7-4.9-4.2.1-2.3 1.9-4.1 4.2-4.3 2.5-.2 4.7 1.7 4.9 4.2-.1 2.3-1.9 4.1-4.2 4.3ZM146.9 25.1c0 1.6-1.3 3-4 3-1.7 0-3.3-.5-4.6-1.6l.8-.9c1 1 2.4 1.5 3.8 1.4 1.8 0 2.7-.9 2.6-1.8 0-1.1-1.1-1.5-3.1-1.9-2.3-.5-3.8-1.1-3.8-2.9 0-1.6 1.6-3 3.8-3 1.5 0 2.9.5 4.1 1.4l-.8.9c-.9-.8-2.1-1.3-3.3-1.3-1.4 0-2.4.9-2.4 1.8 0 1.1 1.2 1.4 3.1 1.8 2.2.4 3.8 1.1 3.8 2.9Z"/></g><path fill="url(#b)" d="M53.4 315.1c0 7.4-2.4 14.3-6.5 19.9H0v-47.1c-.2-.1-.3-.2-.5-.3.2-.1.3-.2.5-.3 1.7-1.2 3.6-2.3 5.5-3.1 1.8-.8 3.7-1.5 5.6-1.9 2.6-.7 5.4-1 8.3-1s2.8 0 4.1.2c2 .2 3.9.6 5.8 1.2a34.13 34.13 0 0 1 24.1 32.5Z"/><path fill="#e13c00" d="M41.3 278.5c-1.8-1-3.6-1.9-5.6-2.7-1.2-.5-2.5-1-3.8-1.3-1.4-.4-2.8-.8-4.2-1-1.8-.4-3.6-.6-5.4-.7h-2.9c-2.8 0-5.6.3-8.3.8a38 38 0 0 0-5.1 1.3c-1.4.5-2.8 1-4.1 1.6-.6.3-1.3.6-1.9.9-.6.3-1.1.6-1.7.9.4.5.8.9 1.2 1.4.2 0 .4-.2.5-.3 1-.6 2.1-1.1 3.2-1.5 1.4-.6 2.9-1.1 4.4-1.6a34 34 0 0 1 7.2-1.4c1.2-.1 2.3-.2 3.5-.2h1c2.3 0 4.6.2 6.8.6 1.5.2 3.1.6 4.5 1 1.3.4 2.6.8 3.9 1.3 1.9.8 3.8 1.7 5.6 2.7 12.5 7.2 21 20.8 21 36.3s-1.6 13.1-4.4 18.7h2c2.7-5.7 4.2-12 4.2-18.7 0-16.1-8.8-30.2-21.8-37.8ZM312.1 76.2c-5.2 0-10.3-1-14.9-2.7-15.8-6-27-21.2-27-39.1S277.3 7.7 288.1.1h-3c-10.2 8-16.7 20.4-16.7 34.3 0 20.8 14.6 38.3 34.1 42.6 3.1.7 6.2 1 9.5 1 8.4 0 16.2-2.4 22.9-6.5v-2.1a41.9 41.9 0 0 1-22.9 6.8Z" opacity=".8"/><path fill="#fc0263" d="M335 299.5V335h-54a34.06 34.06 0 0 1 15.3-38.2l2.1-1.2c1-.5 2-.9 3-1.3 2.9-1.1 5.9-1.9 9.1-2.2.4 0 .9 0 1.3-.1H316.5c2.1.2 4.1.5 6 1a33.54 33.54 0 0 1 12.4 6.3Z"/><path fill="url(#d)" d="M335 6.2v58.9c-5 2.9-10.7 4.5-16.9 4.5a32.86 32.86 0 0 1-20.9-7.2c-8-6.2-13.1-15.9-13.1-26.8 0-18.8 15.2-34 34-34S330 3.2 335 6.1Z"/><path fill="url(#e)" d="M253.7 139.3c-41.4 0-75 33.6-75 75s33.6 75 75 75 74.9-33.5 74.9-75-33.5-75-74.9-75Zm0 146.9c-39.8 0-72-32.2-72-72s32.2-72 72-72 72 32.2 72 72-32.2 72-72 72Z"/></svg>