<?xml version="1.0" encoding="UTF-8"?><svg id="Layer_1" xmlns="http://www.w3.org/2000/svg" width="335" height="335" xmlns:xlink="http://www.w3.org/1999/xlink" viewBox="0 0 335 335"><defs><clipPath id="clippath"><rect width="335" height="335" fill="none"/></clipPath><linearGradient id="linear-gradient" x1="5.6" y1="94.57" x2="329.4" y2="94.57" gradientTransform="matrix(1, 0, 0, 1, 0, 0)" gradientUnits="userSpaceOnUse"><stop offset="0" stop-color="#404041"/><stop offset=".09" stop-color="#302e2f"/><stop offset=".18" stop-color="#262324"/><stop offset=".28" stop-color="#231f20"/><stop offset=".75" stop-color="#231f20"/><stop offset=".89" stop-color="#211d1e"/><stop offset=".94" stop-color="#1a1718"/><stop offset=".98" stop-color="#0f0d0d"/><stop offset="1" stop-color="#020202"/></linearGradient></defs><path d="M0,0H335V335H0V0Z" fill="#fff"/><g clip-path="url(#clippath)"><g><rect x="5.6" y="7.6" width="323.8" height="323.76" rx="14.5" ry="14.5" fill="#231f20"/><path d="M19.1,329.4H313.9c8.01,0,14.5-6.49,14.5-14.5V0H4.6V314.9c0,8.01,6.49,14.5,14.5,14.5Z" fill="#231f20"/><g><polygon points="43.08 138.8 124.3 138.8 124.3 153.13 328.4 189.14 328.4 0 5.6 0 5.6 132.19 43.08 138.8" fill="url(#linear-gradient)"/><path d="M122.5,282.02v1.55H11.3v-21.63l-5.7-1.03v53.99c0,8.01,6.49,14.5,14.5,14.5H314.9c6.49,0,11.97-4.26,13.83-10.13l-206.23-37.24Z" fill="#fff"/><polygon points="11.3 261.69 5.6 260.69 5.6 260.91 11.3 261.94 11.3 261.69" fill="#231f20"/><path d="M124.3,281.63v.14h-1.8v.25l206.23,37.24c.15-.49,.28-.99,.39-1.51l-204.81-36.13Z" fill="#231f20"/><polygon points="124.3 158.13 329.4 194.31 329.4 189.31 124.3 153.13 124.3 158.13" fill="#fff"/><polygon points="43.08 138.8 5.6 132.19 5.6 137.19 14.74 138.8 43.08 138.8" fill="#fff"/><polygon points="124.3 160.13 329.4 196.31 329.4 194.31 124.3 158.13 124.3 160.13" fill="#231f20"/><polygon points="13.1 138.8 14.74 138.8 5.6 137.19 5.6 139.19 13.1 140.51 13.1 138.8" fill="#231f20"/><polygon points="11.3 140.6 13.1 140.6 13.1 140.51 5.6 139.19 5.6 260.69 11.3 261.69 11.3 140.6" fill="#e2521a"/><path d="M124.3,281.63l204.81,36.13c.19-.93,.29-1.88,.29-2.86v-118.59l-205.1-36.18v121.5Z" fill="#e2521a"/><polygon points="13.1 281.77 13.1 140.6 11.3 140.6 11.3 261.69 11.3 261.94 11.3 283.57 122.5 283.57 122.5 282.02 122.5 281.77 13.1 281.77" fill="#231f20"/><path d="M13.1,138.8v142.97H124.3V138.8H13.1Zm109.4,1.8h.3v139.3H14.5V140.6H122.5Z" fill="#fff"/><polygon points="14.5 140.6 14.5 279.9 122.8 279.9 122.8 140.6 122.5 140.6 14.5 140.6" fill="#4e00bf"/></g></g></g><g><path d="M30.9,10.8c-.01,.26-.12,.51-.3,.7l-3.3,3.3-3.5-2v-2c-.06-.49,.29-.94,.79-1,.07,0,.14,0,.21,0,.55-.06,1.04,.35,1.09,.89,0,.03,0,.07,0,.11v2.5l3.2-3.3c.46-.39,1.16-.33,1.55,.13,.14,.16,.22,.36,.25,.57m-1,9.6h-.4l-.4-.2-3.2-3.2v2.5c-.05,.57-.53,1-1.1,1-.55,0-1-.45-1-1v-2l3.5-2,3.3,3.3c.44,.33,.53,.96,.2,1.4-.22,.27-.55,.42-.9,.4m-2.8-5.5l-.9-.5-2.4-1.5-2-1.2h-.3v6.1c0,.1,.1,.3,.2,.3h.1l2-1.2,3.2-2h.1Zm-.7,.1h-.1l-2.6,1.5-1.5,.9h-.3v-4.9h.3l1.6,.9,2.5,1.4v.1l.1,.1Z" fill="#fff"/><path d="M25.6,15.1l-1.9,1.1-1.2,.7c-.1,.1-.1,0-.2,0v-3.7h.2l1.2,.7,1.9,1.1h.1" fill="#fff"/><g><path d="M48.2,14.9h-.1l-3-1.5-1.7-.9h-.4v4.8c0,.1,.1,.2,.3,.2l1.8-1,2.9-1.5h.1l.1-.1Zm-.7,.1h-.1l-2.3,1.2-1.3,.7h-.3v-3.8h.3l1.3,.7,2.3,1.1h.1v.1Z" fill="#fff"/><path d="M46.8,15l-1.7,.9-1,.5h-.2v-2.8h.1l1.1,.5,1.7,.9h.1m-13.9-2.5h2.5c1.3,0,2.2,.7,2.2,1.7s-.9,1.7-2.1,1.7h-1.4v1.6h-1.2v-5Zm2.4,2.4c.6,0,1-.3,1-.8s-.4-.7-1-.7h-1.2v1.5h1.2Zm7.1,1.7v1h-4v-5h1.2v4.1l2.8-.1Zm7-1l-2.3-3.1h1.4l1.4,2.1,1.5-2.2h1.3l-2.1,3.3v1.8h-1.3l.1-1.9Zm4.1-2.9h.6v2.8l2.9-2.8h.8l-2.3,2.3,2.6,2.7h-.9l-2.1-2.3-.9,.8v1.5h-.6l-.1-5Zm4.9,2.5c.1-1.54,1.43-2.71,2.98-2.61,.04,0,.08,0,.12,.01,1.38,.05,2.5,1.13,2.6,2.5-.27,1.58-1.76,2.64-3.34,2.38-1.18-.2-2.12-1.1-2.36-2.28Zm5.1-.1c-.16-1.23-1.26-2.12-2.5-2-1.1,.1-1.95,1-2,2.1,.29,1.24,1.53,2,2.76,1.72,.89-.21,1.57-.92,1.74-1.82Zm1.5,1.9l.3-.5c.49,.51,1.19,.77,1.9,.7,.9,0,1.3-.4,1.3-.8s-.5-.8-1.5-1-1.9-.5-1.9-1.4,.8-1.4,1.9-1.4c.74-.06,1.46,.19,2,.7l-.4,.4c-.48-.39-1.08-.6-1.7-.6-.7,0-1.2,.4-1.2,.9s.6,.6,1.5,.9,1.9,.5,1.9,1.4-.7,1.4-2,1.5c-.78,.02-1.53-.27-2.1-.8h0Zm5.3-4.3h.6l2.1,3.5,2-3.5h.7v5h-.6v-3.8l-2,3.5-2.1-3.4v3.8h-.7v-5.1Zm6.7,2.5c.1-1.54,1.43-2.71,2.98-2.61,.04,0,.08,0,.12,.01,1.38,.05,2.5,1.13,2.6,2.5-.27,1.58-1.76,2.64-3.34,2.38-1.18-.2-2.12-1.1-2.36-2.28Zm5.1-.1c-.16-1.23-1.26-2.12-2.5-2-1.1,.1-1.95,1-2,2.1,.29,1.24,1.53,2,2.76,1.72,.89-.21,1.57-.92,1.74-1.82Zm1.5,1.9l.3-.5c.49,.51,1.19,.77,1.9,.7,.9,0,1.3-.4,1.3-.8s-.5-.8-1.5-1-1.9-.5-1.9-1.4,.8-1.4,1.9-1.4c.74-.06,1.46,.19,2,.7l-.4,.4c-.45-.38-1.01-.59-1.6-.6-.7,0-1.2,.4-1.2,.9s.5,.7,1.5,.9,1.8,.5,1.8,1.4-.6,1.5-2,1.5c-.77,0-1.52-.29-2.1-.8h0Z" fill="#fff"/></g></g><circle cx="321.9" cy="250.2" r="2.6" fill="#fff"/><circle cx="321.9" cy="270.2" r="2.6" fill="#fff"/><g><path d="M147.8,83.6h2.6v33.49h-2.6v-33.49Z" fill="#fff"/><circle cx="16.8" cy="89.5" r="2.6" fill="#fff"/><circle cx="16.8" cy="108.8" r="2.6" fill="#fff"/></g><path d="M322.4,224.7c-3,1.8-4.9,2.7-7.6,2.6s-9.8-5-9.8-6c-.12-.79,.02-1.6,.4-2.3,2.7,2.69,6.22,4.41,10,4.9,4.3,.3,8.7-3,8.5-3.9,.5,1.5,1.4,2.8-1.5,4.7Zm-6.3-1.7c-3-.2-9.2-2.7-10-4.3s4.7-2.9,7.3-2.7,9.9,2.2,10,3.3-4.4,3.8-7.4,3.7h.1Zm-5-6l-1.2,.3,.7,1.3,1.1-.4-.6-1.2Zm.7-.4l.7,1.5h2.3c.24-.39,.38-.84,.4-1.3-.4-.4-3.4,0-3.4,0v-.2Zm4.2,.5l-.5,1.1,1.1,.4,.6-1.3-1.2-.2Zm2.1,.4l-.6,1.4,1,.3,.9-1.3-1.3-.4Zm1.7,.8c-.5,1.6-3.3,2.2-4.9,2.2-2.18-.31-4.2-1.29-5.8-2.8,0,0-1.1-.1-.8,.8s5.1,2.5,7.1,2.7c1.84,.02,3.64-.58,5.1-1.7,.6-.4,.1-.9-.7-1.1v-.1Z" fill="#fff"/><g><circle cx="320.5" cy="140" r="2.7" fill="#fff"/><circle cx="222.6" cy="140" r="2.7" fill="#fff"/><circle cx="320.5" cy="160.6" r="2.7" fill="#fff"/></g><path d="M54.2,299.7l-.9,.7-6,4.5,.1,.1,1.3-.3,.2-.1,1.8-.3,.8-.2,.4-.1,1.5-.3h.2l1.1-.3h.1l.2,1.4,.8-.6,.2-.1,1-.7-2.8-3.7Z" fill="#e2521a"/><path d="M54.9,305.2l-.3-1.5-7.3,1.5-.3-.4,7.3-5.4,3,4.1h-.2l-2.2,1.7Zm-.7-5.2l-6.2,4.6,6.9-1.4,.3,1.2,1.5-1-2.5-3.4Z" fill="#fff"/><path d="M51.6,303.6v-.2h.1v.2l.3-.2v.2h-.3c-.1,.04-.16,.15-.12,.25,0,.02,.01,.03,.02,.05h.2l1.5-.3c-.03-.15-.1-.29-.2-.4-.45-.59-1.29-.72-1.9-.3-.39,.27-.58,.74-.5,1.2h.7c-.07-.19,.01-.41,.2-.5h0Z" fill="#fdfeff"/><path d="M55.6,303.8c-.12-.17-.16-.4-.1-.6,.05-.4,.39-.7,.8-.7l.7,.9-2.8-3.7,.7,.9c-.09,.43-.52,.71-.95,.61-.02,0-.03,0-.05-.01-.36-.09-.61-.43-.6-.8l-6,4.5,.9-.7c.2,0,.3,.1,.4,.3s.1,.1,.2,.2h.2l-.2-.3-.4-.3,4.8-3.5c-.02,.17,.02,.35,.1,.5l.7,.4,.8-.2,.3-.4,1.1,1.5c-.44,.04-.81,.36-.9,.8-.04,.28,.03,.57,.2,.8l.4,.3,.2-.2c-.21,.02-.41-.1-.5-.3h0Z" fill="#fdfeff"/><path d="M48.6,304.5c-.1-.2-.2-.3-.4-.3l-.9,.7h.1l1.3-.3s0-.1-.1-.1h0Zm4.6-3.9l.9-.7-.9,.7Zm.3,.3c.21,.33,.64,.42,.97,.21,.05-.03,.09-.07,.13-.11,.2-.1,.3-.2,.3-.4l-.7-.9-.9,.7c0,.2,.1,.3,.2,.5h0Zm2.8,1.6c-.41,0-.75,.3-.8,.7-.06,.2-.02,.43,.1,.6,.07,.16,.22,.28,.4,.3l1-.7-.7-.9Z" fill="#e2521a"/><path d="M55.5,303.9c-.19-.18-.27-.45-.2-.7,0-.5,.4-.8,.9-.9l-1.1-1.5c-.08,.18-.22,.32-.4,.4-.2,.15-.45,.22-.7,.2-.28-.03-.53-.17-.7-.4-.1-.1-.1-.3-.2-.5l-4.7,3.5,.4,.3c0,.1,.1,.2,.1,.3l1.9-.4c-.08-.46,.11-.93,.5-1.2,.61-.42,1.45-.29,1.9,.3,.13,.09,.2,.24,.2,.4h.2l1.1-.2,.3,1.4,.8-.6-.3-.4Z" fill="#e2521a"/><path d="M51.7,303.9c-.06-.09-.04-.22,.05-.28,.01,0,.03-.02,.05-.02h.3v-.2l-.3,.2v-.2h-.1v.2c-.15,.12-.19,.33-.1,.5h.2l-.1-.2Z" fill="#e2521a"/><g><path d="M57.3,300.9l-1,.4-7,2.7v.1l1.4,.1h.2l1.9,.1,.8,.1h.3l1.6,.1h.2l1.1,.1v1.4l.9-.4h.2l1.1-.5-1.7-4.2h0Z" fill="#e2521a"/><path d="M56.5,306.4v-1.6l-7.4-.5-.2-.4,8.5-3.3,1.8,4.7h-.2l-2.5,1.1Zm-6.5-2.5l7.1,.5v1.3l1.7-.7-1.5-3.9-7.3,2.8Z" fill="#fff"/></g><g><path d="M53.8,303.9v-.3h.1v.2h.4v.2h-.4c-.1,0-.2,.1-.1,.3h1.7c.01-.14-.02-.28-.1-.4-.28-.72-1.08-1.07-1.8-.8-.42,.17-.73,.55-.8,1h.8c.04-.09,.11-.16,.2-.2h0Z" fill="#fdfeff"/><path d="M57.6,305.2c-.18-.4,0-.88,.39-1.06,.03-.02,.07-.03,.11-.04h.5l.4,1-1.7-4.3,.4,1.1c-.24,.37-.73,.48-1.11,.24-.13-.08-.23-.2-.29-.34-.11-.19-.11-.41,0-.6l-7,2.7v0l1-.4c.16,.07,.28,.22,.3,.4,.07,.08,.11,.19,.1,.3h.2c.01-.14-.02-.28-.1-.4-.02-.18-.14-.33-.3-.4l5.5-2.1c-.02,.17,.02,.35,.1,.5,.08,.26,.26,.48,.5,.6,.26,.1,.54,.1,.8,0l.4-.3,.7,1.7c-.46-.08-.92,.17-1.1,.6-.19,.42-.07,.92,.3,1.2h.2l-.3-.4Z" fill="#fdfeff"/><path d="M50.7,304c-.08-.18-.22-.32-.4-.4l-1,.4h1.4Zm5.4-2.5l1-.4-1,.4Zm.2,.3c.1,.2,.2,.4,.4,.4,.33,.2,.76,.1,.96-.23,.01-.02,.03-.05,.04-.07l-.4-1-1,.4c-.12,.15-.12,.35,0,.5Zm2.3,2.3c-.43-.12-.87,.13-.99,.55,0,.02,0,.03-.01,.05-.12,.15-.12,.35,0,.5,0,.1,.2,.3,.3,.4l1.1-.5-.4-1Z" fill="#e2521a"/><path d="M57.4,305.3c-.1-.26-.1-.54,0-.8,.18-.43,.64-.68,1.1-.6l-.7-1.7-.4,.3c-.26,.1-.54,.1-.8,0l-.5-.6c-.07-.16-.11-.33-.1-.5l-5.5,2.1c.16,.07,.28,.22,.3,.4,.07,.08,.11,.19,.1,.3l1.8,.2c.12-.48,.45-.88,.9-1.1,.72-.27,1.52,.08,1.8,.8,0,.1,.1,.3,.1,.4h1.3v1.5l.9-.4-.3-.3Z" fill="#e2521a"/><path d="M53.8,304.3c-.06-.09-.04-.22,.05-.28,.01,0,.03-.02,.05-.02h.4v-.2h-.4v-.2h-.1v.3c-.19,.09-.27,.31-.2,.5h.2v-.1Z" fill="#e2521a"/></g><g><path d="M45,304v.6h.9l-.9-.6Zm.8,.6h-.9v10.4h15.1l-14.2-10.4Z" fill="#231f20"/><path d="M60.5,304.6v-.4c0-.22-.18-.4-.4-.4h-14.9c-.11,0-.2,.09-.2,.2h0l.9,.6h14.6Z" fill="#323333"/><path d="M60,315h.5v-10.4h-14.7l14.2,10.4Z" fill="#262324"/><path d="M60,315h-15.1c0,.19,.12,.35,.3,.4h14.9c.2,0,.3-.1,.3-.2s.1-.1,.1-.2h-.5Zm1.3-4.3c0,.17-.13,.3-.3,.3h-4.8c-.2,0-.3-.2-.3-.4v-2c0-.2,.1-.4,.3-.4h4.8c.2,0,.3,.2,.3,.4v2.1Z" fill="#323333"/><path d="M57.8,309.6c0,.41-.3,.75-.7,.8-.42-.04-.76-.38-.8-.8,.05-.4,.39-.7,.8-.7,.39,0,.7,.31,.7,.7h0Z" fill="#d5d4d2"/></g><g><path d="M309.3,8.9l1,.8c.6-.4,.8-.4,1.6,.2,.5-.48,1.3-.48,1.8,0l.2,.3c1.02,1.31,1.71,2.86,2,4.5,.13,.79,.17,1.6,.1,2.4,.06,2.21,.43,4.4,1.1,6.5,.7,3.64,1.2,7.31,1.5,11,.15,2.85-.66,5.67-2.3,8l-4.2,6.2c-.18,.19-.25,.45-.2,.7,.61,1.68,1.01,3.42,1.2,5.2,.2,1.3,.3,2.6,.4,4s.2,4.7,.2,7.1-.2,3.7-.3,5.5v.9c-.5,1.4,.1,2.6,.7,3.8,.46,.91,.86,1.84,1.2,2.8l-5.6,1.7c-3.11,.82-6.29,1.28-9.5,1.4h-4.9l-4-.4-6.2-1v-.3l1-.7,6.7-6.9c.3-.24,.42-.64,.3-1-.6-1.7-1-3.5-1.5-5.2,0-.2-.2-.4-.3-.6l-3.4-3.1-2.4,3c-1.89,2.28-4.29,4.1-7,5.3l-1.8,.9c-.98,.43-2.03,.67-3.1,.7l-1.9,.2c-.63,.14-1.27-.2-1.5-.8-.3-1-.6-2-.8-3-.31-1.7,.13-3.45,1.2-4.8,.9-1.16,2.07-2.09,3.4-2.7,.35-.25,.65-.55,.9-.9l3.2-4.2c.71-1.04,1.12-2.25,1.2-3.5,.3-1.1,.5-2.3,.7-3.5,.06-.05,.09-.12,.1-.2,1.01-1.52,2.49-2.67,4.2-3.3,2.2-.6,4.5-.1,5.6,2.3,.2-.38,.2-.82,0-1.2l-1.4-2.7-.3-.4c-.66-.78-1.02-1.78-1-2.8-.02-.31-.09-.61-.2-.9-.46-.75-.67-1.62-.6-2.5,.05-.92-.08-1.84-.4-2.7-.22-.66-.07-1.39,.4-1.9,.96-1.32,2.39-2.22,4-2.5,.85-.2,1.72-.3,2.6-.3,1.02,.02,2.03,.19,3,.5,2.5,.8,3.5,2.8,3.9,5.2,.1,1.67,0,3.35-.3,5-.01,.77,.02,1.54,.1,2.3l2.3-.7,1-.2c.9,.2,1.1-.4,1.4-1,1.21-2.41,3.04-4.44,5.3-5.9,1.07-.56,1.7-1.7,1.6-2.9-.13-1.96-.17-3.93-.1-5.9,0-1.6,0-3.2-.1-4.8,.03-.24-.09-.48-.3-.6-1.03-.51-1.9-1.31-2.5-2.3-.2-.36-.43-.69-.7-1-1.11-1.22-1.9-2.7-2.3-4.3-.1-.2-.1-.7,.1-.7,.29-.21,.65-.29,1-.2,.7,.3,1,1,1.4,1.7,.17,.37,.41,.71,.7,1l.5,.2v-.6c-.34-1.19-.95-2.29-1.8-3.2-.18-.08-.32-.22-.4-.4-.6-.6-.6-1.1-.3-1.5s.8-.4,1.5-.1l.6-1h.7Zm-7.9,60.2c1.9,1.5,3.6,3.3,6.3,3.7l-1.4-4.4,.4,.5c1.03,1.39,2.28,2.61,3.7,3.6l1.7,.7c1.22-7.11,.98-14.39-.7-21.4-.08,.12-.11,.26-.1,.4-.08,.97-.21,1.94-.4,2.9-.2,.82-.96,1.37-1.8,1.3-.29-.07-.57-.21-.8-.4-.58-.45-1.12-.95-1.6-1.5-1.3-1.72-2.22-3.7-2.7-5.8-.4-1.5-.7-3.1-1-4.7h-1.2c-.55,0-1,.45-1,1-.3,2.14-.98,4.2-2,6.1-.51,1.17-1.34,2.18-2.4,2.9-1.03,.91-2.61,.82-3.53-.22-.02-.03-.05-.06-.07-.08-.71-.69-1.28-1.5-1.7-2.4l-.6-1.3c.09,1.06-.27,2.12-1,2.9,.7,1.1,.5,1.7-.7,2.2-.94,.25-1.71,.91-2.1,1.8-.12,.25-.16,.53-.1,.8,.5,1.1,1,2.2,1.6,3.3,.76,1.23,1.71,2.35,2.8,3.3l.4-1.8c1.1,3.4,1.9,7,3.9,10h.2l.5-2.8c.27,.7,.61,1.36,1,2,.27,.46,.7,.82,1.2,1,.66,.31,1.37,.48,2.1,.5,1.23,.28,2.51,.21,3.7-.2-.52-.59-.99-1.23-1.4-1.9l-1.2-2h0Zm10.5-47.6v.8c.1,4,.2,8,.4,12,0,.42-.23,.81-.6,1-2.93,1.84-5.23,4.52-6.6,7.7-.09,.22-.12,.46-.1,.7-.07,2.85,.37,5.7,1.3,8.4l.3,.6h.2l.9-7,3.3-2.3c-.17,1.1-.74,2.1-1.6,2.8-.36,.14-.54,.54-.4,.9,.67,2.28,.53,4.72-.4,6.9v.3c1.38-.11,2.41-1.31,2.3-2.68v-.02c.05-.93,.05-1.87,0-2.8,.02-.31,.09-.61,.2-.9,1.68-2.98,3.11-6.09,4.3-9.3,0-.1,.1-.2,.1-.3h.2l-.5,3.6c.63-1.03,1.19-2.1,1.7-3.2,.21-.69,.38-1.39,.5-2.1,.27-5.12-.27-10.25-1.6-15.2l-.3-1.1-1.8,.2c.29-.32,.62-.59,1-.8,.53-.35,.8-.98,.7-1.6-.1-1,.1-2.1-.1-3.1-.14-1.02-.37-2.02-.7-3-.33-.64-.73-1.25-1.2-1.8-.21-.13-.46-.16-.7-.1-.4,.1-.2,.4,0,.7s.5,.9,.8,1.4,.3,1.1,.4,1.7h-.2l-.3-.7c-.21-1.12-.73-2.16-1.5-3-.2-.3-.6-.5-.9-.2s0,.5,.1,.7c.57,.86,1.01,1.81,1.3,2.8v.6l-.4-.4c-.5-1.4-1.21-2.71-2.1-3.9-.3-.4-.6-.7-1.1-.4s0,.7,.1,1c.79,1.06,1.4,2.24,1.8,3.5,.08,.15,.12,.33,.1,.5h-.2c-.1-.2-.1-.4-.2-.5s-1.5-2.6-2.4-3.7c-.1-.26-.38-.39-.64-.29-.06,.02-.11,.05-.16,.09h-.1c-.3,.3-.2,.6,.1,.9l.9,1.1c.83,.93,1.38,2.07,1.6,3.3,.1,.5-.3,.9-.8,.6-.48-.31-.91-.68-1.3-1.1l-1.2-1.7h-.6c-.11,.19-.11,.41,0,.6,.41,1.3,1.09,2.49,2,3.5,.28,.2,.49,.48,.6,.8,.91,1.59,2.43,2.74,4.2,3.2l-.7,.3Zm-34.8,45.4h-.1c.23-.42,.5-.82,.8-1.2,1.2-2,2.8-3.7,3.5-6,.14-.65,.73-1.12,1.4-1.1l1-.2c.93-.29,1.74-.89,2.3-1.7,.46-1.01,1.34-1.77,2.4-2.1,.4-.1,.8-.3,.7-.8s-.6-.5-1-.5c-1.55,.29-2.94,1.15-3.9,2.4v-.7l-2.1,.5c.1-.4,.3-.7,.2-.8-.3-.62-.41-1.32-.3-2,0-.28-.08-.55-.2-.8-.5-1.07-.39-2.33,.3-3.3,.21-.35,.44-.68,.7-1-1.11,.52-1.92,1.51-2.2,2.7-.4,1.3-.6,2.6-.9,3.9-.19,.84-.5,1.64-.9,2.4-1.8,2.3-3.5,4.8-5.2,7.2l-.5,.7h-.1l.6-1.7c-1.1,.6-2,1.5-2.6,2.6-.92,1.75-1.17,3.78-.7,5.7,.2,1.1,.3,1.2,1.4,1h.4c1.86-.02,3.64-.73,5-2,1.7-1.7,2.3-3.9,3-6.2l-3,3Zm10.1-29.5c-.19,.96-.01,1.96,.5,2.8,.1,.1,.1,.4,.1,.6-.02,.95,.23,1.88,.7,2.7,.6,1.1,1.3,2.1,2,3.2,.28,.9,1.24,1.39,2.13,1.11,.21-.07,.4-.17,.57-.31,1.27-.65,2.48-1.42,3.6-2.3,.74-.58,1.18-1.46,1.2-2.4-.01-.37,.02-.74,.1-1.1l.3-.4c.1-.2,.4-.4,.5-.7,.33-1.16,.26-2.39-.2-3.5,0-.2-.3-.3-.4-.5l-.4,.5c-.2,.4-.3,.9-.5,1.4s-.3,.6-.5,.3-1.4-1.3-1.1-2.4c.13-.9-.42-1.76-1.3-2-.55-.2-1.15-.2-1.7,0-1.46,.6-3.02,.91-4.6,.9h-.5c-.35,.05-.6,.35-.6,.7h.1v1.4h0Zm2.4,13.1c.01-1.95-1.46-3.59-3.4-3.8-2.09-.2-3.94,1.33-4.14,3.42-.16,1.67,.79,3.24,2.34,3.88,.35,.15,.75,.15,1.1,0,.77-.48,1.61-.82,2.5-1,.61-.09,1.11-.51,1.3-1.1,.15-.46,.25-.92,.3-1.4Zm2.6-1.1c.17,.65,.41,1.29,.7,1.9,.44,1.31,1.86,2.01,3.17,1.56,.55-.19,1.02-.56,1.33-1.06,.79-.92,1.34-2.02,1.6-3.2,.6-1.9,.1-3.7-.5-5.5-.2,2.8-1.1,5-4,6.1l.7,2.3h-.2l-1.3-2.1h-1.5Zm-6.6,10.9c-1.12,3.1-2.97,5.88-5.4,8.1,2-.99,3.77-2.39,5.2-4.1,.53-.71,.97-1.48,1.3-2.3,.12-.15,.12-.35,0-.5l-1.1-1.2Zm8.5,13.7c.3,.3,.5,.7,.9,.9,1,.58,2.08,1.01,3.2,1.3,3.07,.5,6.2,.6,9.3,.3h.3c-4.7-.5-9.4-.6-13.7-2.5h0Z" fill="#fff"/><path d="M310.4,15.1c.99-.68,2.23-.9,3.4-.6l-3.4,.6Zm-17.4,23.6h1.1c-.6,.6-1.1,1.2-1.9,.5l-.3,.5h-.2c.1-.4,0-1,.3-1.2s1.8-1,2.8-.2c-.7,0-1.4-.3-1.8,.4Zm-2.8,1.4c-.8-.3-1.4,.7-2-.2l.3-.3-.6-.2c.48-.6,1.32-.76,2-.4,.1,.1,.1,.6,.3,1.1h0Zm-.1,2.5l.7-.4,1.4-.2,.5,.2c-.1,.1-.1,.3-.2,.4l-.9,.7-1.4-.5-.1-.2Zm5.3,2l-.6-3,1.5-1c.14,.44-.08,.92-.5,1.1-.27,.17-.36,.52-.2,.8,.18,.7,.11,1.44-.2,2.1h0Zm-4.7,0c.2-.2,.3-.8,.9-.5s.2,0,.3,0,1.1,0,1.7,.1l-2.9,.4Zm7.5-4.5c0-.8-.4-1.6,.3-2.5v2.5h-.3Zm-6.3,5.8l-.8-.6,1.7-.3-.9,.9Zm-4.8,6.9l-1.6,.8h-.4c-1.6-1.2-2.9-3.2-1.4-5.4,0-.06,.04-.1,.1-.1h0l1.1,2.7c.47,.91,1.25,1.62,2.2,2h0Z" fill="#fff"/></g><g><path d="M198,309.9c.06,.55-.35,1.04-.89,1.09-.55,.06-1.04-.35-1.09-.89-.06-.55,.35-1.04,.89-1.09,.03,0,.06,0,.09,0,.52,0,.95,.39,1,.9Zm3.7,0c0,.5-.4,.9-.89,.91-.04,0-.07,0-.11,0-.5,0-.9-.4-.9-.9,0-.52,.39-.95,.9-1,.55,0,1,.45,1,1Zm3.7,0c0,.5-.4,.9-.9,.9-.52,0-.95-.39-1-.9,.04-.5,.41-.91,.9-1,.49-.06,.94,.3,.99,.79,0,.04,0,.07,0,.11v.1Zm3.8,0c-.05,.51-.48,.9-1,.9-.5,0-.9-.4-.9-.9,0-.52,.39-.95,.9-1,.53,.05,.95,.47,1,1Zm3.7,0c.06,.55-.34,1.04-.89,1.1h0c-.52-.03-.97-.39-1.1-.9,0-.54,.37-1,.9-1.1h.2c.5,0,.9,.4,.9,.9h0Zm3.7,0c.06,.55-.35,1.04-.89,1.09-.55,.06-1.04-.35-1.09-.89-.06-.55,.35-1.04,.89-1.09,.03,0,.06,0,.09,0,.49-.06,.94,.3,.99,.79,0,.04,0,.07,0,.11,0,0,.1,0,0,0Zm3.8,0c0,.5-.4,.9-.89,.91-.04,0-.07,0-.11,0-.5,0-.9-.4-.9-.9,0-.52,.39-.95,.9-1,.55,0,1,.45,1,1Zm3.7,0c0,.5-.4,.9-.9,.9-.52,0-.95-.39-1-.9,.05-.53,.47-.95,1-1,.51,.05,.9,.48,.9,1Zm3.8,0c.06,.49-.29,.94-.79,1-.07,0-.14,0-.21,0-.49,.06-.94-.3-.99-.79,0-.04,0-.07,0-.11-.06-.49,.3-.94,.79-.99,.04,0,.07,0,.11,0h.1c.5,.04,.91,.41,1,.9Zm3.7,0c.06,.49-.3,.94-.79,.99-.04,0-.07,0-.11,0-.52,.2-1.09-.06-1.29-.58-.2-.52,.06-1.09,.58-1.29,.2-.08,.41-.09,.62-.03,.52,0,.95,.39,1,.9Zm3.8,0c.06,.49-.29,.94-.79,1-.07,0-.14,0-.21,0-.53-.14-.85-.69-.71-1.22,.08-.31,.31-.56,.61-.68h.1c.49,.07,.88,.42,1,.9Z" fill="#231f20"/><path d="M198,314c0,.5-.4,.9-.89,.91-.04,0-.07,0-.11,0-.5,0-.9-.4-.9-.9,0-.52,.39-.95,.9-1,.55,0,1,.45,1,1Zm3.7,0c0,.55-.45,1-1,1-.51-.05-.9-.48-.9-1,.18-.52,.76-.79,1.28-.61h.02c.29,.1,.51,.32,.6,.61h0Zm3.7,0c0,.5-.4,.9-.9,.9-.52,0-.95-.39-1-.9,.05-.53,.47-.95,1-1,.51,.05,.9,.48,.9,1Zm3.8,0c-.05,.51-.48,.9-1,.9-.44,.04-.83-.28-.88-.72-.04-.44,.28-.83,.72-.88,.16-.02,.32,.02,.46,.09,.31,.09,.57,.31,.7,.6Zm3.7,0c0,.52-.39,.95-.9,1-.55,0-1-.45-1-1,.18-.52,.76-.79,1.28-.61h.02c.29,.1,.51,.32,.6,.61h0Zm3.7,0c0,.5-.4,.9-.9,.9s-.9-.4-.9-.9h0c-.06-.49,.3-.94,.79-.99,.04,0,.07,0,.11,0,.51,.05,.9,.48,.9,1h0Zm3.8,0c0,.5-.4,.9-.89,.91-.04,0-.07,0-.11,0-.5,0-.9-.4-.9-.9,.18-.52,.76-.79,1.28-.61h.02c.29,.1,.51,.32,.6,.61h0Zm3.7,0c0,.52-.39,.95-.9,1-.53-.05-.95-.47-1-1,.18-.52,.76-.79,1.28-.61h.02c.29,.1,.51,.32,.6,.61h0Zm3.8,0c0,.55-.45,1-1,1s-1-.45-1-1,.45-1,1-1,1,.45,1,1Zm3.7,0c.06,.49-.29,.94-.79,1-.07,0-.14,0-.21,0-.55,0-1-.45-1-1s.45-1,1-1c.49-.06,.94,.29,1,.79,0,.07,0,.14,0,.21Zm3.8,0c0,.55-.45,1-1,1s-1-.45-1-1,.45-1,1-1,1,.45,1,1Z" fill="#231f20"/><path d="M198,318.2c0,.55-.45,1-1,1s-1-.45-1-1c-.06-.49,.29-.94,.79-1,.07,0,.14,0,.21,0h.1c.5,0,.9,.4,.9,.9v.1Zm3.7,0c-.05,.53-.47,.95-1,1-.55,0-1-.45-1-1-.06-.49,.29-.94,.79-1,.07,0,.14,0,.21,0,.49-.06,.94,.3,.99,.79,0,.04,0,.07,0,.11v.1Zm3.7,0c0,.55-.45,1-1,1-.53-.05-.95-.47-1-1,0-.55,.45-1,1-1,.49-.06,.94,.3,.99,.79,0,.04,0,.07,0,.11v.1Zm3.8,0c-.05,.53-.47,.95-1,1-.55,0-1-.45-1-1-.06-.49,.29-.94,.79-1,.07,0,.14,0,.21,0,.52,0,.95,.39,1,.9v.1Zm3.7,0c0,.55-.45,1-1,1-.53-.05-.95-.47-1-1,0-.55,.45-1,1-1h.1c.5,0,.9,.4,.9,.9v.1Zm3.7,0c0,.55-.45,1-1,1-.53-.05-.95-.47-1-1,0-.55,.45-1,1-1,.49-.06,.94,.3,.99,.79,0,.04,0,.07,0,.11,.1,0,.1,.1,0,.1Zm3.8,0c-.05,.53-.47,.95-1,1-.55,0-1-.45-1-1-.06-.49,.29-.94,.79-1,.07,0,.14,0,.21,0,.49-.06,.94,.3,.99,.79,0,.04,0,.07,0,.11v.1Zm3.7,0c0,.55-.45,1-1,1-.53-.05-.95-.47-1-1,0-.55,.45-1,1-1h.1c.5,0,.9,.4,.9,.9v.1Zm3.8,0c-.05,.53-.47,.95-1,1-.55,0-1-.45-1-1-.06-.49,.29-.94,.79-1,.07,0,.14,0,.21,0,.55,0,1,.45,1,1Zm3.7,0c0,.55-.45,1-1,1-.53-.05-.95-.47-1-1,0-.55,.45-1,1-1,.49-.06,.94,.29,1,.79,0,.07,0,.14,0,.21Zm3.8,0c-.05,.53-.47,.95-1,1-.55,0-1-.45-1-1-.06-.49,.29-.94,.79-1,.07,0,.14,0,.21,0,.55,0,1,.45,1,1Z" fill="#231f20"/></g><g><path d="M118.8,200.1c.5,0,.9,.4,.91,.89,0,.04,0,.07,0,.11-.05,.51-.48,.9-1,.9-.49-.09-.86-.5-.9-1,0-.5,.4-.9,.9-.9h.1Zm0-3.8c.51,.05,.9,.48,.9,1-.09,.49-.5,.86-1,.9-.5,0-.9-.4-.9-.9,0-.52,.39-.95,.9-1h.1Zm0-3.7c.55,0,1,.45,.99,1.01,0,.55-.45,1-1,.99-.55,0-1-.45-.99-1,0-.03,0-.06,0-.09,0-.5,.4-.9,.9-.9h.1Zm0-3.8c.53,.05,.95,.47,1,1,0,.55-.45,1-1,1-.49,.06-.94-.29-1-.79,0-.07,0-.14,0-.21,0-.52,.39-.95,.9-1h.1Zm0-3.7c.55,0,1,.45,1,1s-.45,1-1,1c-.49,.06-.94-.29-1-.79,0-.07,0-.14,0-.21,0-.52,.39-.95,.9-1h.1Zm0-3.7c.5,0,.9,.4,.91,.89,0,.04,0,.07,0,.11-.05,.51-.48,.9-1,.9-.49-.09-.86-.5-.9-1,0-.5,.4-.9,.9-.9h.1Zm0-3.8c.53-.14,1.08,.17,1.22,.71,.14,.53-.17,1.08-.71,1.22-.2,.05-.42,.04-.62-.03-.5,0-.9-.4-.9-.9-.06-.49,.3-.94,.79-.99,.04,0,.07,0,.11,0h.1Zm0-3.7c.51,.05,.9,.48,.9,1-.09,.49-.5,.86-1,.9-.5,0-.9-.4-.9-.9,0-.52,.39-.95,.9-1h.1Zm0-3.8c.49,.09,.86,.5,.9,1-.1,.6-.5,1-1,.9-.5,0-.9-.4-.9-.9-.1-.5,.3-.9,.9-1h.1Zm0-3.7c.55,0,1,.45,1,1s-.45,1-1,1c-.49,.06-.94-.29-1-.79,0-.07,0-.14,0-.21,0-.5,.4-.9,.9-.9l.1-.1Zm0-3.7c.55,0,1,.45,1,1-.05,.53-.47,.95-1,1-.55,0-1-.45-1-1-.12-.43,.14-.87,.56-.98,.11-.03,.23-.04,.34-.02h.1Z" fill="#231f20"/><path d="M122.9,200.1c.49-.06,.94,.29,1,.79,0,.07,0,.14,0,.21,0,.55-.45,1-1,1-.53-.05-.95-.47-1-1,.05-.53,.47-.95,1-1Zm0-3.8c.55,0,1,.45,1,1,.06,.49-.29,.94-.79,1-.07,0-.14,0-.21,0-.55,0-1-.45-1-1,.05-.53,.47-.95,1-1Zm0-3.7c.49-.06,.94,.29,1,.79,0,.07,0,.14,0,.21,0,.55-.45,1-1,1-.53-.05-.95-.47-1-1,.05-.53,.47-.95,1-1Zm0-3.8c.55,0,1,.45,1,1,.06,.49-.29,.94-.79,1-.07,0-.14,0-.21,0-.55,0-1-.45-1-1,.08-.52,.48-.92,1-1Zm0-3.7c.55,0,1,.45,1,1s-.45,1-1,1-1-.45-1-1,.45-1,1-1Zm0-3.7c.49-.06,.94,.29,1,.79,0,.07,0,.14,0,.21,0,.55-.45,1-1,1-.53-.05-.95-.47-1-1,.05-.53,.47-.95,1-1Zm0-3.8c.55,0,1,.45,1,1,.06,.49-.29,.94-.79,1-.07,0-.14,0-.21,0-.55,0-1-.45-1-1,.05-.53,.47-.95,1-1Zm0-3.7c.49-.06,.94,.29,1,.79,0,.07,0,.14,0,.21,0,.55-.45,1-1,1-.53-.05-.95-.47-1-1,0-.55,.45-1,1-1Zm0-3.8c.55,0,1,.45,1,1,.06,.49-.29,.94-.79,1-.07,0-.14,0-.21,0-.55,0-1-.45-1-1,.04-.5,.41-.91,.9-1h.1Zm0-3.7c.55,0,1,.45,1,1s-.45,1-1,1-1-.45-1-1c.05-.51,.48-.9,1-.9v-.1Zm0-3.7c.49-.06,.94,.29,1,.79,0,.07,0,.14,0,.21,0,.55-.45,1-1,1-.53-.05-.95-.47-1-1-.06-.49,.3-.94,.79-.99,.04,0,.07,0,.11,0h.1Z" fill="#231f20"/><path d="M127.1,200.1c.5,0,.9,.4,.9,.9,0,.52-.39,.95-.9,1-.55,0-1-.45-1-1,0-.5,.4-.9,.89-.91,.04,0,.07,0,.11,0Zm0-3.8c.5,0,.9,.4,.91,.89,0,.04,0,.07,0,.11,0,.5-.4,.9-.9,.9-.52,.2-1.09-.06-1.29-.58-.2-.52,.06-1.09,.58-1.29,.2-.08,.41-.09,.62-.03h.1Zm0-3.7c.5,0,.9,.4,.9,.9,.06,.49-.3,.94-.79,.99-.04,0-.07,0-.11,0-.49,.06-.94-.29-1-.79,0-.07,0-.14,0-.21,0-.5,.4-.9,.89-.91,.04,0,.07,0,.11,0Zm0-3.8c.55,0,1,.45,1,1h0c0,.52-.39,.95-.9,1-.55,.06-1.04-.34-1.1-.89h0c-.06-.56,.35-1.05,.89-1.1,.03,0,.07,0,.11,0Zm0-3.7c.52,0,.95,.39,1,.9,.03,.55-.4,1.02-.95,1.05s-1.02-.4-1.05-.95c0-.52,.39-.95,.9-1h.1Zm0-3.7c.5,0,.9,.4,.9,.9,0,.52-.39,.95-.9,1-.55,0-1-.45-1-1,0-.5,.4-.9,.89-.91,.04,0,.07,0,.11,0Zm0-3.8c.5,0,.9,.4,.91,.89,0,.04,0,.07,0,.11,0,.5-.4,.9-.9,.9-.49,.06-.94-.3-.99-.79,0-.04,0-.07,0-.11-.06-.49,.29-.94,.79-1,.07,0,.14,0,.21,0Zm0-3.7c.5,0,.9,.4,.9,.9,.06,.49-.3,.94-.79,.99-.04,0-.07,0-.11,0-.53-.14-.85-.69-.71-1.22,.08-.31,.31-.56,.61-.68h.1Zm0-3.8c.51,.05,.9,.48,.9,1,0,.5-.4,.9-.9,.9-.52,0-.95-.39-1-.9,.04-.5,.41-.91,.9-1h.1Zm0-3.7c.52,0,.95,.39,1,.9,.03,.55-.4,1.02-.95,1.05s-1.02-.4-1.05-.95c0-.5,.4-.9,.9-.9l.1-.1Zm0-3.7c.49-.06,.94,.3,.99,.79,0,.04,0,.07,0,.11,0,.54-.37,1-.9,1.1-.55,.06-1.04-.35-1.09-.89,0-.03,0-.07,0-.11-.06-.49,.3-.94,.79-.99,.04,0,.07,0,.11,0h.1Z" fill="#231f20"/></g></svg>