<svg id="a54202d2-b798-4965-b080-3730135eda86" data-name="Layer 1" xmlns="http://www.w3.org/2000/svg" xmlns:xlink="http://www.w3.org/1999/xlink" width="335" height="335" viewBox="0 0 335 335">
  <defs>
    <linearGradient id="f6e26f6a-ce53-4d02-a670-f841ac34b938" data-name="New Gradient Swatch 1" x1="0.27" y1="142.88" x2="335" y2="142.88" gradientUnits="userSpaceOnUse">
      <stop offset="0.04" stop-color="#005ead"/>
      <stop offset="0.14" stop-color="#0355a1"/>
      <stop offset="0.64" stop-color="#122a65"/>
      <stop offset="0.87" stop-color="#18194e"/>
    </linearGradient>
    <linearGradient id="bdb37746-5ee3-4203-852e-138eab2b5976" x1="201.33" y1="114.98" x2="246.98" y2="114.98" xlink:href="#f6e26f6a-ce53-4d02-a670-f841ac34b938"/>
    <clipPath id="af81206b-c6ce-4374-a28a-3c8a66d7369b">
      <rect width="335" height="262.64" fill="none"/>
    </clipPath>
    <linearGradient id="b350bed4-1115-4922-8cae-e37ab3d40765" x1="320.28" y1="-23.46" x2="7.85" y2="294.01" gradientUnits="userSpaceOnUse">
      <stop offset="0.04" stop-color="#662d91"/>
      <stop offset="0.08" stop-color="#5f2b89"/>
      <stop offset="0.21" stop-color="#4d2575"/>
      <stop offset="0.36" stop-color="#402168"/>
      <stop offset="0.55" stop-color="#381f5f"/>
      <stop offset="0.87" stop-color="#361e5d"/>
    </linearGradient>
    <filter id="b1b99e71-cf76-4a1c-87b4-8d15f7bf8e49" x="0" y="258.64" width="335" height="8" filterUnits="userSpaceOnUse">
      <feOffset dy="3" input="SourceAlpha"/>
      <feGaussianBlur stdDeviation="3" result="bba080f0-a409-4a1b-a37a-c6c7b82343a5"/>
      <feFlood/>
      <feComposite operator="in" in2="bba080f0-a409-4a1b-a37a-c6c7b82343a5"/>
      <feComposite in="SourceGraphic"/>
    </filter>
  </defs>
  <g>
    <g>
      <path d="M335,253.8c-8.4,1.2-16.7,2.5-25.1,3.3-5.4.6-9.7,3.1-13.6,6.3a15.2,15.2,0,0,1-10.2,3.4q-80.6-.2-161,.1c-4.9,0-7.1-1.6-8.5-6.3-4.3-14.1-11.4-27.2-15.5-41.4-1-3.6-3.8-5.3-7.2-6.3s-7.6-4.5-10.6-8.1c-9.5-11.4-19.9-21.9-35.5-24.6-5.4-.9-9.1-4.5-12.6-8.2a22,22,0,0,0-15.7-7.5c-3.4-.1-6-1.9-8.6-3.7a24.7,24.7,0,0,0-7.8-3c-1.4-.4-2.9-1.1-2.8-2.7s2-1.5,3.3-1.6,2.5.4,3.5-.5a1.5,1.5,0,0,0-.2-1c-1.5-1.4-4.8-1.6-4.3-4s3.3-3.3,5.8-3.8c10.9-2.2,21.4-2.8,30.5,5a5.7,5.7,0,0,0,5.6.8c5.3-1.4,10.1-.2,14.7,2.3a9.1,9.1,0,0,0,8.2.5,25,25,0,0,1,16-.4c5.5,1.6,10.4.5,15.9-1,12.8-3.4,25.7-8,39.2-3.3,2.7.9,4-.8,5.3-2.5,4.9-6.4,6.4-13.9,7.3-21.7.2-1.7-.1-3.5.3-5.2,1.8-7.2-2.6-12.2-6.1-17.5s-2.2-14-2.7-21.1a5.3,5.3,0,0,1,4-5.1c4.1-1.2,3.5-4,3.1-7.1-1.8-11.9.1-22.8,7.9-32.6s17.3-11,26.8-15.3,14,2.7,21.2,1.6c1.5-.2,3.5,2,5.1,3.4,8,6.7,17.3,12.5,18.8,24.4a115.2,115.2,0,0,1,.3,24.9c-.1,1.1-1.9,3,.8,3.2s4.4,2.5,4.2,5.4-3.4,3-5.4,3c-13.9.5-27.2,14.5-29.8,28.2s2.2,23.1,10.7,32.2c1.9,2,4.3,3.6,3.9,7-.2,1.6,1.5,2.4,2.9,2.6s1.2-1.4,1.4-2.3c1.1-4.3,4.5-4.4,7.9-4.4,6.7,0,13.4,1.2,19.8-1.9a5.1,5.1,0,0,0,1.6-1.1,193.9,193.9,0,0,1-25.3-.8c-3-.3-6-.7-8.2-3s-3.4-4.1-2.3-7,3.5-3.2,6.1-3.1c9.4.4,18.6-1,27.9-2,4.2-.4,7.5-2.3,11.5-5.9-6-.4-11-.9-15.9-1.1a172,172,0,0,1-20.4-2.3c-3.6-.6-6.7-1.9-6.5-6.2s3.3-5.8,7-6.4,7,.6,10.5.7c10.3.5,20.4-.5,30.7-1.8l-22.8-3-5.7-.9c-2.6-.4-4.9-1.1-5.1-4.3s1.6-4.9,4.4-5.8c5.5-1.9,11.1-1.3,16.7-.7a56.4,56.4,0,0,0,27.2-3c13.2-4.9,27-3.4,38.5,5.8,5.7,4.7,12.2,6.8,18.9,8.7v48.5c-6-8.3-15.8-10.3-24.2-14.7-1.2-.7-2.2-.2-3.4.2-10.2,3.7-19.6,9.3-30.5,11a21.9,21.9,0,0,0-9.6,4.3,23,23,0,0,1-7,3.5c-10.9,3.7-22,5.5-33.7,3.9,8,6.8,14.3,7.8,23.5,4.1a31.9,31.9,0,0,1,8.5-2.5c20.2-2.6,40.3-2.8,60.1,2.7,5.5,1.5,10.6,3.8,16.3,4.4ZM197.6,161.2a20.9,20.9,0,0,0-8.3,3.5c-12.3,7.1-25.4,10.2-39.5,7.3-7.5-1.5-14.5-4.1-18.3-12.6-.1,8.4,2.5,12.4,10.7,15C162.7,181,180.3,174.9,197.6,161.2Zm-4.5,92.3c-4.9-31.8,7.5-57.1,30.6-79.3C204.7,184.6,182.1,217.4,193.1,253.5Zm-67.6-95.6c-8.4,4.6-13.4,11.9-16.3,20.9-5.5,17.5,1,34.3,2.6,51.3-.1-7.9-.5-15.7-1.3-23.5C108.6,188.2,110.7,171.2,125.5,157.9Z" fill="url(#f6e26f6a-ce53-4d02-a670-f841ac34b938)"/>
      <path d="M247,90c-5,.4-8.7.3-12.3,1-8.9,2-10.6,7.5-4.3,14.5-2.9,1.2-5.6.5-8.3.7-5.9.4-9.4,2.8-9.8,6.9s2.4,8.9,7.6,10.7,11.8,1.3,17.8,1.4a41.2,41.2,0,0,1,9.2.7,33.3,33.3,0,0,1-14.4,3.6H220.4c-9.3.2-12.3,4.1-9.9,13.1-10.4-8.6-12.2-27-4.1-39.8S233,83.5,247,90Z" fill="url(#bdb37746-5ee3-4203-852e-138eab2b5976)"/>
    </g>
    <g clip-path="url(#af81206b-c6ce-4374-a28a-3c8a66d7369b)">
      <path d="M0,0H335.9V262.6H0Z" opacity="0.97" fill="url(#b350bed4-1115-4922-8cae-e37ab3d40765)"/>
    </g>
    <rect y="266.9" width="335" height="68.14" fill="#fff"/>
    <g>
      <path d="M335,209.6l-12.1,1.5a12.3,12.3,0,0,0-6.6,3.1c-1.5,1.2-2.6,48.4-4.5,48.4-25.9,0-50.8,1-76.8,1-2.4.1-5-48.5-5.7-50.8-2.1-6.8-5.5-13.1-7.5-20a4.3,4.3,0,0,0-3.5-3c-2.2-.6-3.6-2.2-5.1-4-4.6-5.5-9.6-10.6-17.2-11.9-2.6-.4-4.4-2.1-6-3.9a10.9,10.9,0,0,0-7.6-3.7c-1.7,0-2.9-.9-4.2-1.7a11.2,11.2,0,0,0-3.8-1.5c-.6-.2-1.4-.5-1.3-1.3s.9-.7,1.6-.8,1.2.2,1.7-.3-.1-.3-.2-.4-2.3-.8-2-2,1.6-1.6,2.8-1.8c5.2-1,10.3-1.3,14.8,2.4a2.6,2.6,0,0,0,2.7.4,9.4,9.4,0,0,1,7.1,1.1,4.2,4.2,0,0,0,3.9.3,12.3,12.3,0,0,1,7.8-.2c2.6.7,5,.2,7.7-.5,6.1-1.6,12.4-3.9,18.9-1.6,1.3.4,2-.4,2.6-1.2,2.4-3.1,3.1-6.7,3.5-10.5a21.1,21.1,0,0,1,.2-2.5c.8-3.5-1.3-5.9-3-8.5s-1.1-6.8-1.3-10.2a2.8,2.8,0,0,1,1.9-2.5c2-.6,1.8-1.9,1.5-3.4-.8-5.8.1-11,3.9-15.8s8.3-5.3,13-7.4,6.7,1.3,10.2.8c.7-.1,1.7,1,2.5,1.6,3.8,3.3,8.3,6.1,9.1,11.9a53.5,53.5,0,0,1,.1,12c0,.5-.9,1.5.4,1.5s2.1,1.3,2,2.7-1.6,1.4-2.6,1.4c-6.7.3-13.2,7-14.4,13.6s1.1,11.2,5.2,15.6c.9,1,2.1,1.8,1.9,3.4s.7,1.2,1.4,1.3.5-.7.6-1.1c.6-2.1,2.2-2.2,3.9-2.2,3.2,0,6.5.6,9.5-.9a1.4,1.4,0,0,0,.8-.5,98.8,98.8,0,0,1-12.2-.4,5.8,5.8,0,0,1-4-1.4c-.9-1-1.7-2.1-1.1-3.5s1.7-1.5,2.9-1.4a101,101,0,0,0,13.5-1,9.4,9.4,0,0,0,5.6-2.8l-7.7-.6a83.3,83.3,0,0,1-9.9-1.1c-1.7-.3-3.2-.9-3.1-3s1.6-2.8,3.4-3.1,3.4.3,5.1.3a74,74,0,0,0,14.8-.9l-11-1.4-2.8-.4c-1.2-.2-2.4-.6-2.4-2.1a2.5,2.5,0,0,1,2.1-2.8,17.1,17.1,0,0,1,8.1-.3,26.8,26.8,0,0,0,13.1-1.5,18.5,18.5,0,0,1,18.6,2.8c2.8,2.3,5.9,3.3,9.2,4.2v23.5c-2.9-4-7.6-5-11.7-7.1-.6-.4-1.1-.1-1.7.1-4.9,1.7-9.4,4.5-14.7,5.3a9.7,9.7,0,0,0-4.6,2.1,11.1,11.1,0,0,1-3.5,1.6,35.6,35.6,0,0,1-16.2,2c3.8,3.2,6.9,3.7,11.3,1.9a19.3,19.3,0,0,1,4.1-1.2c9.8-1.2,19.5-1.4,29.1,1.3,2.7.7,5.2,1.8,7.9,2.1Zm-66.5-44.9a11.7,11.7,0,0,0-4,1.7c-6,3.5-12.3,5-19.1,3.6-3.6-.8-7-2-8.8-6.1-.1,4.1,1.2,6,5.1,7.2C251.6,174.3,260.2,171.3,268.5,164.7Zm-2.2,44.7C264,194,270,181.8,281.2,171,271.9,176,261,191.9,266.3,209.4Zm-32.6-46.3a16.5,16.5,0,0,0-7.9,10.2c-2.7,8.4.4,16.5,1.2,24.8a108.8,108.8,0,0,0-.6-11.4C225.4,177.8,226.5,169.6,233.7,163.1Z" fill="#fff"/>
      <path d="M292.4,130.3a44.9,44.9,0,0,0-5.9.5c-4.3.9-5.2,3.6-2.1,7-1.4.6-2.7.2-4,.3-2.9.2-4.6,1.4-4.8,3.3a4.9,4.9,0,0,0,3.7,5.2c2.8,1,5.7.7,8.6.7a17.1,17.1,0,0,1,4.5.4,17.2,17.2,0,0,1-7,1.7h-5.9c-4.5.1-5.9,2-4.8,6.3-5-4.1-5.9-13-1.9-19.2S285.7,127.1,292.4,130.3Z" fill="#fff"/>
    </g>
    <path d="M310.8,20.1H125.5v2H309.8V261.6H26.2V34.5h-2V262.6a.9.9,0,0,0,1,1H310.8a.9.9,0,0,0,1-1V21.1A.9.9,0,0,0,310.8,20.1Z" fill="#fff"/>
    <rect y="258.6" width="335" height="8" fill="#ef4136" filter="url(#b1b99e71-cf76-4a1c-87b4-8d15f7bf8e49)"/>
    <g>
      <g>
        <path d="M37.9,14.8a1.6,1.6,0,0,1-.5,1.1l-4.9,4.9-5.2-3.1V14.8a1.6,1.6,0,0,1,1.6-1.6,1.6,1.6,0,0,1,1.5,1.6h0v3.7l4.9-4.8a1.5,1.5,0,0,1,2.1,0,1.6,1.6,0,0,1,.5,1.1" fill="#fff"/>
        <path d="M36.3,29l-.5-.2a.9.9,0,0,1-.5-.3l-4.9-4.8v3.7A1.6,1.6,0,0,1,28.9,29a1.6,1.6,0,0,1-1.6-1.6V24.5l5.3-3.1,4.8,4.9A1.6,1.6,0,0,1,36.3,29" fill="#fff"/>
        <path d="M32.3,21c0-.1,0-.1-.1-.2h0L30.8,20l-3.5-2-3-1.7c-.1-.1-.4-.1-.4.1s-.1.1-.1.2v9a.4.4,0,0,0,.4.4h.1l3-1.7,4.9-2.8h0c.1-.1.1-.1.1-.2h0Zm-1.2.2a.1.1,0,0,1-.1.1l-3.7,2.2-2.4,1.3c-.1.1-.3.1-.3-.1h-.1v-7a.3.3,0,0,1,.3-.3h.1l2.4,1.4L31,20.9c.1,0,.2.1.1.3Z" fill="#fff"/>
        <path d="M30.1,21.1c0,.1-.1.1-.1.2l-2.8,1.6-1.8,1c-.1.1-.2,0-.3-.1h0V18.5c0-.2.1-.3.2-.3a.1.1,0,0,1,.1.1l1.8,1L30,20.9h.1" fill="#fff"/>
      </g>
      <g>
        <path d="M63.5,20.9l-.2-.2L59,18.6l-2.7-1.4c-.2-.1-.4.1-.4.3v7.2c0,.2.2.3.4.2l2.7-1.4,4.2-2.3h.2Zm-1.1.1c0,.1,0,.2-.1.2L59,22.9,57,24c-.2.1-.4,0-.4-.2V18.3c0-.2.2-.3.3-.2h.1l2.1,1,3.3,1.7h.1Z" fill="#fff"/>
        <path d="M61.5,21a.1.1,0,0,1-.1.1l-2.5,1.4-1.5.8h-.3V19l.2-.2h.1l1.6.8,2.5,1.3a.1.1,0,0,1,.1.1h0" fill="#fff"/>
        <path d="M41,17.4h3.8c1.8,0,3.1,1,3.2,2.5s-1.3,2.5-3.2,2.6H42.9v2.4H41.1Zm3.6,3.5c.9,0,1.5-.4,1.5-1.1s-.6-1-1.5-1H42.8v2.1Z" fill="#fff"/>
        <path d="M55,23.4v1.5H49.1V17.5h1.8v6.1Z" fill="#fff"/>
        <path d="M65.4,22l-3.3-4.7h2.1l2.1,3.2,2.1-3.3h2L67.2,22v2.7H65.4Z" fill="#fff"/>
        <path d="M71.6,17.7h.9v4.1l4.2-4.2H78l-3.5,3.5,3.8,4H77.1l-3.2-3.4-1.3,1.2v2.2h-1Z" fill="#fff"/>
        <path d="M78.8,21.3c-.1-2.1,1.9-3.8,4.2-3.9a4.1,4.1,0,0,1,4.3,3.8,4.3,4.3,0,0,1-4.2,4A4.2,4.2,0,0,1,78.8,21.3Zm7.5-.1a3.2,3.2,0,0,0-3.3-3,3.3,3.3,0,0,0-3.3,3.1,3.3,3.3,0,0,0,3.4,3.1,3.2,3.2,0,0,0,3.2-3.2Z" fill="#fff"/>
        <path d="M88.5,24l.6-.7a3.7,3.7,0,0,0,2.7,1.1c1.3,0,2-.7,1.9-1.3s-.8-1.1-2.2-1.4-2.7-.8-2.8-2.1,1.2-2.1,2.8-2.2a4.4,4.4,0,0,1,2.9,1.1l-.5.6a3.8,3.8,0,0,0-2.4-.9c-1.1,0-1.8.6-1.8,1.3s.8,1.1,2.2,1.3,2.8.9,2.8,2.2-1,2.1-2.9,2.2A4.9,4.9,0,0,1,88.5,24Z" fill="#fff"/>
        <path d="M96.4,17.7h1l3.1,5.1,3.1-5.2h.9v7.5h-.9V19.4l-3,5.3-3.2-5.2v5.6h-1Z" fill="#fff"/>
        <path d="M106.3,21.3a4.3,4.3,0,0,1,8.6-.1,4.3,4.3,0,0,1-8.6.1Zm7.6-.1a3.2,3.2,0,0,0-3.3-3,3.3,3.3,0,0,0-3.3,3.1,3.2,3.2,0,0,0,3.3,3.1,3.3,3.3,0,0,0,3.3-3.2Z" fill="#fff"/>
        <path d="M116.1,24l.6-.7a3.5,3.5,0,0,0,2.7,1.1c1.3,0,1.9-.7,1.9-1.3s-.8-1.1-2.2-1.4-2.8-.8-2.8-2.1,1.2-2.1,2.8-2.2a4.6,4.6,0,0,1,2.9,1.1l-.6.6a3.6,3.6,0,0,0-2.4-.9c-1,0-1.7.6-1.7,1.3s.8,1.1,2.2,1.3,2.8.9,2.8,2.2-1,2.1-2.9,2.2A4.9,4.9,0,0,1,116.1,24Z" fill="#fff"/>
      </g>
    </g>
  </g>
  <rect x="34.6" y="107.7" width="79.8" height="1.95" fill="#ef4136"/>
  <path d="M35.8,177.6l1.5,2.2h0l-1.5,2.3H34.6l1.3-2.3-1.3-2.3Zm2.3,0,1.6,2.2h0l-1.6,2.3H36.9l1.4-2.3-1.4-2.3Z" fill="#fff"/>
  <path d="M35.8,195.5l1.5,2.2h0l-1.5,2.3H34.6l1.3-2.3-1.3-2.3Zm2.3,0,1.6,2.2h0l-1.6,2.3H36.9l1.4-2.3-1.4-2.3Z" fill="#fff"/>
  <g>
    <circle cx="36.7" cy="162.2" r="2.1" fill="#ef4136"/>
    <circle cx="44.6" cy="162.2" r="2.1" fill="#ef4136"/>
    <circle cx="52.5" cy="162.2" r="2.1" fill="#ef4136"/>
  </g>
  <g>
    <g>
      <rect x="36.4" y="213.8" width="64" height="10.18" fill="#ef4136"/>
      <rect x="34.6" y="213.8" width="0.8" height="10.18" fill="#ef4136"/>
    </g>
    <g>
      <rect x="106.5" y="213.8" width="53.5" height="10.18" fill="#ef4136"/>
      <rect x="104.5" y="213.8" width="0.9" height="10.18" fill="#ef4136"/>
    </g>
  </g>
  <g>
    <g>
      <rect x="36.4" y="238.1" width="75.1" height="10.18" fill="#fff"/>
      <rect x="34.6" y="238.1" width="0.8" height="10.18" fill="#fff"/>
    </g>
    <g>
      <path d="M123,240.2a1.1,1.1,0,0,0-.2-.6.8.8,0,0,0-1-.2h-.1l-.6-1c-.1-.1-.1-.1,0-.2a.4.4,0,0,1,.6-.2l.7.2,2.2.7h.3a.9.9,0,0,1,.6.6l.3.8c.5,1,.9,2,1.3,3s.7,1.6,1,2.5v.5a.5.5,0,0,1-.2.4l-.5.2-2.5,1.2-1.5.8-.4.2H123a.4.4,0,0,1-.5-.2l-.3-.4c-.5-1.4-1.1-2.7-1.7-4.1s-.6-1.4-.8-2.1-.1-.4-.2-.5a1.4,1.4,0,0,1,.2-.7c.3-.8.7-1.6,1-2.3h.1a4.7,4.7,0,0,1,.5,1c.1,0,.1.1,0,.1a1.9,1.9,0,0,0,.2.8c.2.3.5.3.9.3a.9.9,0,0,0,.6-.6Z" fill="#fff"/>
      <path d="M120,239.8c0,.2-.1.3-.1.4l-.5,1a1.5,1.5,0,0,0,0,1.3,4.2,4.2,0,0,0,.4,1c.6,1.6,1.3,3.3,2,4.9s.1.1-.1.1h-2.4a.6.6,0,0,1-.7-.7,4.9,4.9,0,0,1,.1-1.2v-5a1.2,1.2,0,0,1,.4-.9l.6-.6.3-.2Z" fill="#fff"/>
      <path d="M118.5,237.9l.2.5a3.6,3.6,0,0,0,.7,1l.2.2c0,.1.1.1,0,.1l-.2.2h-.1a5.7,5.7,0,0,1-1.1-1.6,1.6,1.6,0,0,1,0-.7,1,1,0,0,1,.8-.6,1,1,0,0,1,.9.2l.8.8a7.2,7.2,0,0,1,1.2,2.1c.1.1,0,.2-.1.2s-.2,0-.2-.1a8.2,8.2,0,0,0-1.2-2l-.7-.7a1,1,0,0,0-.9,0C118.6,237.6,118.5,237.7,118.5,237.9Z" fill="#fff"/>
      <path d="M122.7,240.2a.6.6,0,0,1-.1.4h0a1,1,0,0,0-.7-.9h0c.2-.2.6-.1.8.3Z" fill="#fff"/>
      <path d="M122.9,243.4a.5.5,0,0,1-.5.4.4.4,0,0,1-.4-.4c0-.3.2-.4.5-.4A.4.4,0,0,1,122.9,243.4Z" fill="#fff"/>
      <path d="M125.1,244.9c-.3,0-.4-.2-.4-.5a.4.4,0,0,1,.4-.4.5.5,0,0,1,.5.4A.5.5,0,0,1,125.1,244.9Z" fill="#fff"/>
    </g>
  </g>
  <g>
    <polygon points="151.6 98.5 148.7 101.4 145.8 98.5 143.6 100.8 146.5 103.6 143.6 106.5 145.8 108.8 148.7 105.9 151.6 108.8 153.9 106.5 151 103.6 153.9 100.8 151.6 98.5" fill="#fff"/>
    <path d="M151.2,106.8h-.1l-2.8-2.7-3.3,2.4h-.2l-2.3-2.3h0v-.2l3.2-2.4-2.7-2.7a.2.2,0,0,1,0-.3l2.2-2.2a.2.2,0,0,1,.3,0l2.8,2.7,2.7-2.7a.2.2,0,0,1,.3,0l2.2,2.2v.2a.1.1,0,0,1-.1.1l-2.7,2.8,2.7,2.7a.2.2,0,0,1,0,.3l-2.2,2.2Zm-2.8-3.3h.1l2.7,2.7,2-2-2.7-2.7a.2.2,0,0,1,0-.3l2.7-2.7-2-2-2.7,2.7a.2.2,0,0,1-.3,0l-2.7-2.7-2,2,2.7,2.7v.2h-.1l-3.3,2.4,2,2,3.3-2.4Z" fill="#ef4136"/>
  </g>
  <g>
    <polygon points="303.9 31.3 301 34.2 298.1 31.3 295.8 33.6 298.7 36.5 295.8 39.3 298.1 41.6 301 38.7 303.9 41.6 306.1 39.3 303.2 36.5 306.1 33.6 303.9 31.3" fill="#fff"/>
    <path d="M303.5,39.6h-.1l-2.8-2.8-3.3,2.4H297l-2.2-2.3h0l3.3-2.4-2.8-2.8v-.2l2.3-2.3c.1-.1.2-.1.2,0l2.8,2.8,2.8-2.8c0-.1.1-.1.2,0l2.3,2.3h0l-2.8,2.8,2.8,2.7v.3l-2.3,2.3Zm-2.9-3.2h.1l2.8,2.8,2-2-2.8-2.8v-.2l2.8-2.8-2-2-2.8,2.7c0,.1-.2.1-.2,0l-2.8-2.7-2,2,2.8,2.8h0a.1.1,0,0,1-.1.1l-3.2,2.4,2,2,3.3-2.4Z" fill="#ef4136"/>
  </g>
  <g>
    <polygon points="216.2 203.5 213.4 206.4 210.5 203.5 208.2 205.7 211.1 208.6 208.2 211.5 210.5 213.8 213.4 210.9 216.2 213.8 218.5 211.5 215.6 208.6 218.5 205.7 216.2 203.5" fill="#fff"/>
    <path d="M215.9,211.8h-.2l-2.7-2.8-3.3,2.5h-.3l-2.2-2.2v-.2h.1l3.2-2.4-2.7-2.7a.2.2,0,0,1,0-.3l2.3-2.2h.2l2.8,2.7,2.7-2.7h.3l2.3,2.2v.2h0l-2.8,2.7,2.8,2.8v.2l-2.3,2.3Zm-2.9-3.3h.1l2.8,2.7,2-2-2.8-2.7a.2.2,0,0,1,0-.3l2.8-2.7-2-2.1-2.8,2.8h-.2l-2.8-2.8-2,2.1,2.8,2.7h0v.2l-3.2,2.4,2,2,3.3-2.5Z" fill="#ef4136"/>
  </g>
  <g>
    <polygon points="27.2 316.9 24.4 319.8 21.5 316.9 19.2 319.2 22.1 322.1 19.2 324.9 21.5 327.2 24.4 324.3 27.2 327.2 29.5 324.9 26.6 322.1 29.5 319.2 27.2 316.9" fill="#361e5d"/>
    <path d="M26.9,325.2h-.2L24,322.4l-3.3,2.4h-.3l-2.2-2.3a.1.1,0,0,1-.1-.1h.1l3.2-2.4-2.7-2.8c-.1,0-.1-.2,0-.2l2.3-2.3c0-.1.2-.1.2,0l2.8,2.8,2.7-2.8a.2.2,0,0,1,.3,0l2.2,2.3c.1,0,.1,0,.1.1a.1.1,0,0,1-.1.1l-2.7,2.8,2.7,2.7a.2.2,0,0,1,0,.3L27,325.2ZM24,322h.1l2.8,2.8,2-2L26.1,320c-.1-.1-.1-.2,0-.2l2.8-2.8-2-2-2.8,2.7c-.1.1-.2.1-.2,0L21.1,315l-2,2,2.7,2.8h.1a.1.1,0,0,1-.1.1l-3.2,2.4,2,2,3.3-2.4Z" fill="#ef4136"/>
  </g>
</svg>
