<?xml version="1.0" encoding="UTF-8"?>
<svg id="uuid-61867a9d-4a7c-45ae-8865-7611afe1c429" data-name="uuid-80bf3688-344b-45b6-980d-5ad5f198d28c" xmlns="http://www.w3.org/2000/svg" width="335" height="335" xmlns:xlink="http://www.w3.org/1999/xlink" viewBox="0 0 335 335">
  <defs>
    <radialGradient id="uuid-88e95efb-eae3-4a36-8bb5-4da96112cc3e" cx="167.5" cy="111.42" fx="167.5" fy="111.42" r="205.15" gradientTransform="translate(0 247.3) scale(1 -.71)" gradientUnits="userSpaceOnUse">
      <stop offset="0" stop-color="#fff"/>
      <stop offset="1" stop-color="#e6e7e8"/>
    </radialGradient>
    <radialGradient id="uuid-f805c1cc-d947-431a-a35a-41774ecbadf8" cx="318.35" cy="237.37" fx="318.35" fy="237.37" r="1.95" gradientTransform="translate(0 333.2) scale(1 -1)" gradientUnits="userSpaceOnUse">
      <stop offset="0" stop-color="#fff"/>
      <stop offset="1" stop-color="#e6e7e8"/>
    </radialGradient>
    <radialGradient id="uuid-843b88a7-9bc8-49b4-9f83-8167f40e32cf" cx="321.42" cy="235.48" fx="321.42" fy="235.48" r=".62" gradientTransform="translate(0 333.2) scale(1 -1)" gradientUnits="userSpaceOnUse">
      <stop offset="0" stop-color="#fff"/>
      <stop offset="1" stop-color="#e6e7e8"/>
    </radialGradient>
    <radialGradient id="uuid-8023e964-b2ca-454b-a346-fe07606a35f7" cx="18.84" cy="13.91" fx="18.84" fy="13.91" r="2.14" gradientTransform="translate(0 333.2) scale(1 -1)" gradientUnits="userSpaceOnUse">
      <stop offset="0" stop-color="#fff"/>
      <stop offset="1" stop-color="#e6e7e8"/>
    </radialGradient>
    <radialGradient id="uuid-a63e7ea1-5901-4d1c-b9c2-9f0866edc532" cx="22.22" cy="11.83" fx="22.22" fy="11.83" r=".68" gradientTransform="translate(0 333.2) scale(1 -1)" gradientUnits="userSpaceOnUse">
      <stop offset="0" stop-color="#fff"/>
      <stop offset="1" stop-color="#e6e7e8"/>
    </radialGradient>
    <radialGradient id="uuid-dc2b22a9-5770-4a2d-9888-472184e17fc3" cx="309.84" cy="81.26" fx="309.84" fy="81.26" r="1.55" gradientTransform="translate(0 333.2) scale(1 -1)" gradientUnits="userSpaceOnUse">
      <stop offset="0" stop-color="#fff"/>
      <stop offset="1" stop-color="#e6e7e8"/>
    </radialGradient>
    <radialGradient id="uuid-111fde03-dd5d-4e3b-b4f9-80c165bc317c" cx="312.29" cy="79.75" fx="312.29" fy="79.75" r=".49" gradientTransform="translate(0 333.2) scale(1 -1)" gradientUnits="userSpaceOnUse">
      <stop offset="0" stop-color="#fff"/>
      <stop offset="1" stop-color="#e6e7e8"/>
    </radialGradient>
  </defs>
  <rect y="0" width="335" height="335" fill="url(#uuid-88e95efb-eae3-4a36-8bb5-4da96112cc3e)"/>
  <g>
    <g>
      <rect x="223.82" y="111.29" width="102.11" height="1.47" transform="translate(1.3 227.18) rotate(-45)" fill="#eb008b"/>
      <rect x="225.62" y="113.09" width="102.11" height="1.47" transform="translate(.55 228.98) rotate(-45)" fill="#eb008b"/>
      <rect x="222.23" y="109.46" width="102.11" height="1.47" transform="translate(2.13 225.52) rotate(-45)" fill="#eb008b"/>
    </g>
    <circle cx="274.87" cy="112.02" r="39.54" fill="#90278e"/>
    <g>
      <circle cx="247.2" cy="81.91" r="11.87" fill="#eb008b"/>
      <circle cx="260.56" cy="69.28" r="3.21" fill="#eb008b"/>
      <circle cx="233.46" cy="93.77" r="3.21" fill="#eb008b"/>
    </g>
    <g>
      <circle cx="301.19" cy="160.49" r="3.21" fill="#eb008b"/>
      <circle cx="308.03" cy="133.58" r="11.87" fill="#eb008b"/>
      <circle cx="319.9" cy="121.72" r="3.21" fill="#eb008b"/>
    </g>
    <path d="M274.87,148.39c-20.05,0-36.37-16.32-36.37-36.37s16.32-36.37,36.37-36.37,36.37,16.32,36.37,36.37-16.32,36.37-36.37,36.37Zm0-71.17c-19.19,0-34.8,15.61-34.8,34.8s15.61,34.8,34.8,34.8,34.8-15.61,34.8-34.8-15.61-34.8-34.8-34.8Z" fill="#fff"/>
    <g>
      <path d="M302.23,164.58c-.68-.7-.72-.79-.72-1.45s.05-.75,.64-1.39c.76-.81,.8-1.19,.26-2.24-.43-.83-.45-1.51-.08-2.66,.15-.47,.37-1.35,.49-1.96,.25-1.24,.36-1.52,.81-1.97,.53-.53,.59-2.03,.37-8.02-.07-1.8-.16-3.4-.2-3.55s-.15-.73-.24-1.3c-.23-1.45-.56-2.86-.77-3.27-.23-.44-.24-1.82-.02-2.43,.13-.36,.13-.52,0-.73-.26-.41-.06-1.31,.35-1.64,.25-.19,.22-.37-.07-.53-.31-.16-.43-.74-.19-.89,.07-.04,.16-.26,.2-.49s.3-.64,.56-.91c.52-.53,.57-.77,.32-1.37-.18-.42-.91-1.27-1.1-1.27-.13,0-1.84-.82-2.56-1.23-1.65-.32-2.43-1.62-4.16-2.46-1.26-.2-1.78-1.12-2.74-1.81-.53-.36-1.6-1.29-2.39-2.06s-1.63-1.49-1.88-1.58-.57-.39-.73-.64c-.71-1.16-1.62-.74-1.62,.74,0,.19-.09,.53-.19,.77s-.33,.83-.5,1.32-.41,1.07-.54,1.3c-.29,1.41-.84,2.11-1.48,3.27-.23,.74-.88,1.22-1.25,1.87,0,.11-1.64,2.58-2.62,3.93-.33,.46-.45,.79-.5,1.37-.07,.9-.3,1.23-.8,1.13-.33-.06-.35-.04-.26,.36,.08,.37,.05,.45-.25,.58-.48,.22-.53,.46-.22,1.01,.32,.57,.34,1.03,.08,1.54-.26,.48-1.76,1.93-2.54,2.44-.67,.44-1.82,1-2.06,1-.08,0-.4,.18-.72,.39-.87,.6-1.73,.84-3.02,.84-.63,0-2.24,.52-2.27,.46-.06-.14,.75-1.3-.65-1.69-.06-.02-.44-.34-.83-.75-.52-.55-.73-.69-.79-.55-.12,.31,.31,.86,1.02,1.31,.35,.22,.64,.48,.64,.56,0,.44-.47,.15-1.55-.94-1.36-1.37-1.57-1.85-1.74-3.84-.08-.99,.95-2.49,1.15-2.49,.18,0-.8,1.52-.8,2.29,0,.88,.28,2.07,.58,2.45,.12,.15,.65,.25,.65,.13,0-.02-.15-.35-.34-.72-.3-.59-.34-.85-.34-2.08s-.18-1.44,.07-1.92c.16-.32,.53-.74,.55-.87s.14-.37,.28-.53c.38-.43,1.69-1.28,2.28-1.5,.65-.23,1.28-.88,1.44-1.49-.05-.48,1.24-.55,.65-.77-.36,.14-.25-.71,.15-1.18,.33-.39,.35-.49,.27-1.32-.05-.49-.02-1.29,.06-1.78s.2-1.38,.27-1.98,.22-1.52,.33-2.05,.21-1.39,.21-1.91,.12-1.42,.27-1.98,.27-1.31,.27-1.66,.13-1.02,.28-1.49,.27-1.03,.27-1.24c.18-.64,.54-.94,.39-1.69-.1-.37-.03-.85,.35-2.42,.27-1.08,.64-2.27,.82-2.65s.34-.78,.34-.89,.12-.34,.27-.53c.19-.24,.27-.56,.27-1.11,.82-1.22,1.47-3.25,3.42-4.09,1.05-.38,1.14-.43,1.86-.97,1.23-.74,2.59-.97,3.76-1.87,1.17-1.23,2.8-1.77,4.15-2.72,1.13-.8,3.07-1.25,3.33-2.5,.07-.5-.31-.68-1.46-.68-.87,0-1.08,.05-1.45,.33-.24,.18-.7,.4-1.04,.48-2.01,1.1-2.89,.82-5.39,.88l-3.14,.06-.89,.43c-1.07,.53-1.8,.86-2.52,1.17-.3,.13-.99,.65-1.53,1.17-1.07,1.02-1.43,1.21-2.22,1.21-.29,0-.9,.12-1.37,.27s-.94,.27-1.04,.27c-.12,0-.19,.16-.19,.42,0,.28-.13,.55-.4,.82-.34,.34-.5,.4-1.13,.4-.4,0-.94,.07-1.21,.15-.27,.09-1.2,.14-2.14,.13-1.06-.02-1.69,.03-1.75,.12-1.56-1.17-.14-.88-.5-1.74-.22-.46-.93-1.14-.48-1.31,.7-.26,.22-.63,.22-.82,0-.21,.18-.56,.46-.85,.49-.54,.85-.64,2.92-.81,.68-.06,1.07-.16,1.26-.34,.33-.31,.68-.33,.78-.05,.12,.31,.66,.25,1.22-.14,.28-.19,.66-.34,.86-.34,1.44-.16,2.06-1.44,3.91-2.4,1.42-.75,.98-.17,1.86-1.06,.7-.38,1.62-1.16,1.62-1.38,0-.09,.22-.42,.48-.73s.48-.63,.48-.72c0-.3,.4-.56,1.31-.85,.98-.31,1.42-.64,1.42-1.07,0-.17,.09-.27,.24-.27,.13,0,.54-.28,.9-.61s.72-.61,.79-.61,.36-.15,.63-.34c.58-.39,1.17-.43,1.8-.12,.3,.15,1.09,.26,2.45,.35,1.1,.07,2.59,.18,3.3,.25s1.87,.17,2.58,.22c2.5,.2,4.25-.6,6.11-.66,2.48,.55,1.87,.42,3.86-.11,1.24-.45,3.74-1.09,4.69-1.93,.59-.62,.65-1.03,.24-1.79-.15-.28-.27-.6-.27-.72,0-.13-.13-.21-.35-.21-.44,0-.82-.2-.93-.48-.05-.12,.07-.66,.25-1.2,.71-2.36,.27-3.24,1.84-5.46,.75-1.12,1.35-1.65,2.65-2.3,.69-.35,.95-.4,1.95-.4,.64,0,1.42-.07,1.74-.15,.45-.11,.81-.1,1.58,.06,.85,.43,3.76,1.66,4.25,2.16,.08,.16,.59,.76,1.13,1.33,.65,.7,1.04,1.25,1.18,1.65,.11,.33,.34,.88,.51,1.22,.26,.52,.31,.83,.31,2.08,0,1.33-.02,1.47-.25,1.47-.26,0-1.34,.98-1.64,1.49-.15,.25-.14,.37,.03,.73,.27,.54,.28,.52-.16,.52-.64,0-.76,.16-.59,.76,.08,.29,.15,.85,.15,1.24,0,.6-.06,.78-.41,1.16-.23,.25-.41,.55-.41,.68s-1.44,.66-1.65,.91c-.51,.61,1.46,1.18,1.9,2.04,.53,1.03,.78,1.84,.92,2.58s-.41,2.44-.31,3.16c-1.16,2.75-1.93,1.94-2.47,3.16-.5,1.13-.1,2.54-.62,3.67-.43,.94-1.13,1.8-1.99,2.38-1.05,.71-2.7,.29-3.62,1.19-.94,.9-1.17,1.39-1.18,2.38,0,.97-.32,2.28-.55,2.28-.46,0-.7,.38-1.03,1.64-.19,.71-.41,1.52-.49,1.8-.12,.44-.1,.56,.18,.95,.33,.46,.4,.76,.24,1-.05,.08-.13,.35-.19,.61s-.19,.6-.29,.75c-.27,.39-.23,.7,.15,1.27,.38,.56,.44,1.27,.16,1.81-.43,.83-.4,.99,.36,1.79,.39,.41,.9,.84,1.12,.95s.67,.45,.99,.77c.99,.6,.8,.56,1.2,1.13,.17,0,.19,.12,.12,.68l.33,.68c.52,0,1.09,.47,1.65,1.34,.42,.65,.42,.68,.42,2.44,0,1.4-.06,1.96-.27,2.64-.15,.47-.27,.92-.27,1.01s-.08,.31-.19,.51-.26,.67-.35,1.06-.22,.74-.29,.78-.16,.38-.21,.75c-.07,.53-.14,.68-.34,.68-.14,0-.46,.18-.72,.41-.26,.23-.62,.41-.82,.41-.58,0-.9,.44-.9,1.24v.7l-.51-.06c-.79-.1-2.45-.59-2.83-.84-.21-.14-.63-.22-1.09-.22-.66,0-.76,.03-.76,.27,0,.19,.09,.27,.31,.27,.17,0,.68,.11,1.13,.25,1.91,.6,2.76,.84,2.97,.84,.14,0,.23,.11,.23,.27,0,.37-.61,.37-1.16,0-.23-.15-.56-.27-.75-.28s-.77-.12-1.3-.27c-1.15-.32-1.43-.33-1.43-.08,0,.35,.42,.62,.96,.62,.29,0,.7,.06,.9,.14,.67,.26,2.36,.68,2.71,.68,.33,0,.34,.03,.34,.92,0,.57-.08,1.08-.21,1.33-.12,.23-.27,.84-.33,1.37s-.19,1.36-.27,1.84c-.56,3.32-.68,5.72-.34,7.11,.19,.79,.32,1.03,.73,1.36,.27,.22,.55,.41,.61,.41s.38,.18,.71,.41,.64,.41,.69,.41c.16,0,1.42,1,1.42,1.13,0,.07-.13,.15-.28,.19-.83,.22,.74,1.02,2.76,1.41,.84,.16,1.68,.36,1.86,.45,.48,.22,.75,.86,.82,1.96,.06,.86,.03,1.01-.23,1.26-.16,.16-.41,.29-.56,.29-.24,0-.27,.09-.27,.68v.68c1.75-.35,1.38,2.13,.27,2.7-.97,1.98-4,2.45-6.64,.52-.95-.96-1.14-1.46-.82-2.16,.38-.85,.39-1.03,.08-1.35-.27-.27-.4-.29-1.54-.23-1.35,.07-1.99,.31-2.36,.86-.23,.35-.24,.3,.41,1.49,.12,.23,.22,.71,.22,1.07,0,.59-.06,.72-.53,1.2l-.53,.53h-1.35c-.8,0-1.57-.09-1.89-.21h0c-.49-.21-.89-.57-1.26-.94h0l.02,.1Zm2.77-55.3c-.05-1.21-.28-3.02-.4-3.23-.05-.08-.38-1.17-.59-1.17-.3,0-1.04,.13-1.34,.58-.48,.72-.41,2.02,.02,2.47,.16,.17,.96,1,1.08,1.28,.25,.59,.71,1.06,1.04,1.06,.2,0,.23-.13,.19-.99h0Zm-19.04-.72c.4-.34,.8-.61,.89-.61,.16,0,.88-.62,3.67-3.18,1.11-1.02,1.9-1.83,5.99-6.17,.67-.71,1.39-1.55,1.61-1.88,.66-.98,1.21-2.24,1.21-2.77,0-.28,.13-.78,.28-1.12,.32-.69,.31-.98-.04-1.2-.44-.28-.71,.06-.8,1.02-.08,.85-.51,1.87-1.21,2.85-.15,.21-.27,.45-.27,.53,0,.14-.57,.8-3.58,4.09-2.12,2.32-3.45,3.65-4.48,4.49-.48,.39-1.19,.96-1.56,1.27s-1.05,.86-1.5,1.23-1.1,.88-1.43,1.13c-.86,.63-.88,.92-.09,.92,.53,0,.71-.08,1.33-.61h-.02Zm-1.41-1.04c.65-.44,1.23-.9,2.55-2.03,.4-.34,1.08-.89,1.52-1.23,.97-.74,3.7-3.48,5.11-5.11,.56-.66,1.34-1.54,1.72-1.97,.75-.84,2.29-3.07,2.53-3.68,.14-.34,.22-.86,.47-2.99l.08-.7-.53-.09c-.29-.05-.72-.13-.96-.17l-.43-.08-.05,.95c-.05,.86-.11,1.02-.61,1.69-.31,.4-.63,.94-.71,1.19-.17,.51-1.03,1.52-3.17,3.72l-1.44,1.49h-1.98c-1.86,0-2,.02-2.46,.33-.27,.18-.74,.4-1.05,.5s-.91,.46-1.33,.81-.99,.71-1.28,.8-.63,.28-.76,.42-.47,.34-.74,.43c-.64,.2-1.11,.64-1.11,1.02,0,.44,.34,1.34,.98,2.62,.4,.79,.8,1.35,1.37,1.89,.94,.89,1.18,.91,2.27,.17h0v.02Zm29.61-15c.08-.05,.37-.17,.64-.26,.68-.22,1.2-.85,1.2-1.45s-.27-.61-.73,0c-.19,.25-.58,.57-.85,.7-.48,.23-.52,.23-.86-.02-.37-.27-1.37-2.08-1.67-3-.09-.29-.22-.59-.27-.66s-.21-.51-.34-.96c-.51-1.75-1.47-4.65-1.6-4.81-.07-.09-.22-.17-.32-.17-.23,0-.26,.93-.05,1.81,.44,1.93,.72,2.93,.96,3.46,.15,.33,.27,.63,.27,.68,0,.17,.47,1.1,.83,1.63,.2,.3,.41,.7,.47,.89,.22,.75,.92,2.05,1.19,2.25,.28,.2,.82,.17,1.13-.06h0v-.03Zm-62.63,70.35c-.19-.06-.74-.12-1.22-.13-.97-.02-1.3-.22-1.44-.84-.1-.46,.2-1.18,.69-1.64,.18-.17,.83-.15,.83-.25,0-.24-1.06-.48-1.54-.23-.24,.12-.76,.2-1.33,.2-.91,0-.96-.02-1.47-.53s-.53-.56-.53-1.5c0-.89,.04-1.01,.42-1.45,.54-.61,1.17-.78,2.54-.69,1.05,.07,1.08,.07,1.5-.34,.32-.31,.46-.62,.58-1.27,.09-.47,.22-1.15,.29-1.52,.15-.75,.17-1.74,.05-2.06-.05-.13,.22-.91-.05-.91-.24,0-1.08,.59-1.3,.47-2.16,1.5-3.9,.79-3.91-1.47-.19-.69-.08-1.82,.22-2.4,.35-.68,1.13-1.4,2.46-.76,4.01,1.95,3.49,.13,5.08,0,1.13-.09,1.31-.07,1.81,.19,.31,.16,.64,.29,.75,.29,.22,0,1.55-1.74,1.89-2.47,.12-.27,.41-.72,.64-1.02s.52-.75,.65-1.02,.45-.83,.73-1.25c.45-.68,.72-1.13,1.19-1.99,.08-.14,.52-1.04,.98-2s.91-1.76,.96-1.82c3.7-3.73,.12,.2,.12,.53,0,.74,.45,2.28,.89,3.04,.18,.31,.85,1.06,1.5,1.67,1,.95,1.25,1.11,1.65,1.11,.31,0,1.49-.45,1.49-.32,0,.22-2.59,2.29-3.41,2.89-.56,.41-3.51,3.42-4.86,4.96-.42,.48-.84,1.08-.95,1.35s-.31,.66-.46,.88c-.17,.25-.3,.69-.33,1.16-.05,.69-.01,.8,.37,1.21,.87,.94,1.39,2.72,1.12,3.86-.09,.38-.16,.87-.16,1.09,0,.4-.3,.56-.48,.26-.05-.08-.21-.14-.37-.14-.27,0-.26-.02,.08-.36,.41-.41,.44-.76,.16-1.83-.11-.41-.2-1.01-.2-1.33,0-.4-.09-.67-.27-.85-.43-.43-.55-.33-.55,.44,0,.39-.12,1.18-.27,1.74s-.27,1.29-.27,1.6c0,.4-.09,.67-.28,.85-.21,.21-.27,.46-.27,1.09,0,.71-.03,.82-.25,.82-.2,0-.29-.17-.43-.82-.19-.89-.41-1.09-.41-.38,0,.93-.38,1.9-.95,2.49-.95,1.06-1.24,1.21-2.04,1.43-.54,.15-1.47-.06-1.67-.12h0l.03,.09Z" fill="#404041"/>
      <path d="M260.14,102.89s.17,.05,.26,.12c.1,.07,.43,.3,.73,.54,1.15,.87,1.71,1.28,1.98,1.46,.16,.1,.37,.24,.48,.33,.28,.21,1.52,1.01,1.56,1.01,.02,0,.1,.05,.19,.11,.09,.07,.33,.17,.53,.25,.21,.07,.43,.15,.5,.18,.06,.03,.25,.08,.41,.11,.16,.04,.42,.09,.57,.13,.15,.03,.72,.06,1.26,.07,.54,0,1.08,.04,1.19,.07s.36,.09,.56,.11c.39,.06,1.14,.21,1.59,.34,.16,.04,.44,.12,.62,.15,.35,.08,.52,.12,.97,.26,.16,.05,.56,.15,.88,.22s.68,.15,.79,.18c.35,.09,1.05,.18,1.31,.19h.01c.52,0,1.62-.3,2.61-.71,.25-.1,.49-.15,.7-.15s.37,.05,.47,.16c.08,.08,.15,.18,.15,.24,0,.11-.18,.9-.23,1.03q-.23,.59-.27,2.8c-.08,4.78-.15,7.01-.22,7.09-.04,.03-.08,.18-.08,.32,0,.22-.07,.55-.23,1.05-.05,.15-.31,.63-.49,.91-.16,.25-.49,1-.54,1.23-.03,.15-.09,.36-.13,.47-.11,.33-.24,.96-.33,1.64-.02,.18-.09,.44-.13,.58-.07,.2-.07,.36-.04,.74,.08,.73,.08,2.15,0,2.44-.05,.2-.06,.29,.02,.5,.05,.14,.08,.43,.08,.64,0,.35,.02,.42,.17,.61,.23,.3,.27,.46,.15,.67-.05,.1-.14,.26-.19,.36-.07,.14-.1,.43-.12,1.46-.03,1.49-.05,1.59-.46,1.59h-.02c-.26,0-.42-.04-.92-.24-.18-.07-.47-.17-.65-.24-.18-.06-.4-.14-.5-.19-.16-.07-.54-.2-1.41-.53-.19-.07-.4-.16-.45-.19-.06-.04-.13-.06-.17-.06s-.15-.04-.25-.09c-.11-.05-.39-.16-.63-.23-.42-.14-1.38-.51-2.02-.77-.16-.07-.36-.13-.44-.15-.08,0-.2-.05-.26-.08-.06-.02-.42-.16-.79-.3-1.21-.45-1.31-.49-1.72-.67-.22-.1-.44-.17-.48-.17-.07,0-.45-.16-.74-.31-.06-.03-.13-.05-.17-.05-.08,0-1.09-.43-1.37-.58-.09-.05-.37-.16-.6-.23-.23-.08-.48-.17-.53-.2-.06-.03-.34-.13-.63-.23-1.1-.37-2.29-.81-2.34-.86-.04-.03-.13-.05-.21-.05s-.18-.02-.21-.05c-.03-.03-.28-.13-.55-.21-.28-.09-.55-.19-.62-.22-.06-.03-.28-.11-.47-.17-.19-.07-.46-.16-.59-.22s-.68-.26-1.23-.46c-1.04-.37-1.15-.43-1.15-.59,0-.08,.06-.11,.28-.13,.12,0,.29-.01,.49-.01,.61,0,1.49,.04,1.88,.1,.28,.04,.81,.09,1.19,.13,.21,.02,.38,.03,.51,.03,.36,0,.49-.08,.63-.3,.1-.14,.1-.29,.09-1.34,0-1.04,0-1.21,.1-1.4,.08-.16,.16-.23,.27-.26,.25-.05,.33-.19,.39-.67,.03-.25,.09-.5,.13-.57,.04-.06,.07-.29,.07-.5s.04-.51,.09-.66c.05-.16,.12-.45,.16-.64,.08-.4,.16-.7,.28-1.09,.05-.15,.09-.32,.09-.39,0-.22-.25-.67-.59-1.05-.43-.47-.48-.57-.53-1.07-.04-.41-.1-.88-.2-1.47-.02-.16-.07-.35-.11-.41-.03-.06-.12-.28-.19-.47s-.16-.44-.21-.55c-.04-.11-.09-.3-.11-.44-.03-.25-.11-.6-.26-1.1-.1-.35-.09-1.48,.01-1.89,.07-.27,.07-.42,.02-.81-.04-.26-.09-1.07-.11-1.78-.06-1.63-.07-1.86-.15-2.07-.03-.09-.06-.52-.06-.95,0-.72,.02-.79,.14-.96,.18-.24,.4-.42,.52-.43h.02Zm59.44-38.37c-.07,0-.15,.03-.19,.07-.04,.05-.15,.1-.25,.12-.09,.02-.17,.06-.17,.09s-.06,.07-.13,.09c-.08,.02-.3,.16-.49,.31-.52,.4-1.21,.83-1.47,.92-.13,.05-.49,.13-.8,.19-.31,.06-.68,.14-.83,.17s-.45,.08-.68,.11c-.41,.06-.55,.08-1.36,.24-.48,.1-1.24,.3-1.32,.35-.03,.02-.17,.05-.31,.08-.26,.05-1.82,.5-2.41,.69-.18,.06-.47,.15-.65,.21-.35,.11-.44,.16-1.33,.7-.9,.55-1.66,.93-2.19,1.09-.26,.09-.53,.18-.59,.21-.12,.05-.97,.34-1.77,.61-.26,.09-.88,.29-1.39,.47-.5,.17-1.27,.43-1.71,.57-1.68,.55-3.46,1.2-4.01,1.45-.18,.08-.55,.29-.83,.47-.44,.28-1.34,.8-3.01,1.77-.63,.36-.95,.47-1.65,.58-.8,.12-2.7,.36-3.39,.42-.32,.03-.69,.08-.82,.11-.39,.09-4.47,.24-6.06,.24-.28,0-.48,0-.57-.02-.17-.02-.83-.07-1.46-.11-1.23-.07-1.45-.12-2.26-.46l-.52-.22-1.62-.02h-.99c-.62,0-.72,.02-.92,.11-.18,.08-.32,.12-.46,.12-.15,0-.3-.05-.47-.14-.21-.11-.29-.21-.36-.4-.05-.14-.09-.3-.09-.35,0-.06-.05-.25-.11-.44-.06-.18-.16-.55-.23-.81-.19-.7-.3-.98-.48-1.25-.27-.41-1.14-1.09-1.74-1.35-.15-.07-.3-.15-.35-.19-.13-.11-.65-.21-1.43-.29-.26-.03-.45-.04-.61-.04-.2,0-.37,.02-.63,.06-1.76,.32-3.18,1.3-3.77,2.64-.34,.75-.53,1.83-.55,3.1v.09h-.14c-.09,0-.44,.03-1.04,.08-.09,0-.45,.07-1.08,.19l-.81,.08s-.12,.02-.23,.05h0l-.22,.02-.99,.16-.87,.1c-.25,.04-.44,.07-.59,.1-.26,.06-.51,.15-.75,.26h0c-.09-.01-.16-.03-.23-.04-.1-.02-.19-.05-.27-.09-.06-.03-.16-.09-.29-.18-.04-.02-.09-.04-.13-.06-.03-.01-.07-.02-.1-.03-.11,0-.22-.01-.31-.03h-.02c-.09,0-.13,.07-.13,.22v.19h0c-.23,.03-.48,.06-.64,.09-.22,.03-.52,.07-.65,.08-.13,0-.5,.05-.82,.1-.32,.05-.81,.12-1.09,.14-.75,.07-1.88,.21-2.18,.28-.73,.15-4.92,.35-8.47,.4-1.3,.02-2.31,.06-2.8,.13-3.01,.36-2.9,.35-3.65,.58-.26,.08-.5,.17-.53,.19-.03,.03-.44,.21-.92,.4-.47,.2-.94,.39-1.04,.44-.56,.25-3.39,1.35-3.47,1.35h0s-1.27,.47-1.92,.73c-.5,.2-.99,.47-1.21,.67-.07,.06-.43,.34-.8,.64-1.34,1.06-1.54,1.22-1.54,1.27,0,.02-.11,.12-.25,.2-.14,.09-.46,.37-.71,.61l-.45,.45-.06,.41c-.03,.22-.05,.85-.06,1.41,0,.99,0,1.01,.16,1.32,.36,.7,.65,.99,1.29,1.26,.32,.14,.63,.21,.92,.21,.51,0,.95-.21,1.29-.62,.14-.18,.3-.36,.36-.41,.46-.48,1.86-2.03,2.14-2.39l.21-.26v-.9c0-.58,.04-.92,.08-.96,.07-.06,.97-.3,2.61-.68,.43-.1,1.15-.23,1.59-.29s1.22-.16,1.74-.22c.55-.07,1.51-.14,2.3-.16,1.33-.04,1.68-.07,2.44-.23,.21-.05,.57-.12,.8-.17,.81-.17,2.62-.36,3.44-.36h.04c.57,0,1.41,.11,1.85,.21,.18,.05,.65,.15,1.06,.22s.83,.15,.94,.18c.36,.09,1.58,.24,2.64,.31,.56,.04,1.22,.1,1.44,.13,.46,.07,1,.13,2.82,.31,1.4,.13,2.14,.23,2.44,.31,.12,.04,.35,.09,.53,.12,.39,.08,1.18,.49,2.38,1.24,2.18,1.35,2.07,1.26,4.77,3.94,1.9,1.89,2,1.99,2.19,2.33,.22,.39,.25,.5,.04,.5-.05,0-.12,0-.2-.02-.19-.02-.41-.08-.5-.13-.09-.05-.18-.08-.21-.08s-.3-.12-.6-.27c-.51-.25-.69-.34-1.4-.76-.85-.51-1.02-.56-2.11-.67-.64-.06-.99-.1-1.28-.1s-.52,.03-.92,.1c-1.29,.22-1.64,.33-1.99,.64-.21,.19-1.13,1.5-1.42,2.03-.45,.8-.43,.75-.47,1.55-.02,.46,0,.85,.03,1.02,.07,.29,0,1.06-.16,1.88-.21,1.03-.24,1.47-.18,2.34,.07,.9,.18,1.65,.35,2.49,.12,.58,.28,1.96,.28,2.41,0,.16,.03,.4,.05,.53s.11,.52,.19,.88c.19,.89,.33,2,.38,3.15,.02,.54,.08,1.38,.12,1.88s.08,1.25,.08,1.66v.74l.31,.43c.24,.33,.33,.5,.38,.76,.03,.18,.1,.42,.14,.52,.05,.11,.09,.31,.08,.44,0,.22-.03,.28-.26,.5-.34,.32-.38,.51-.2,.93,.13,.28,.17,.32,.4,.38,.14,.04,.29,.08,.33,.09,.04,.02,.13,.15,.19,.29,.14,.32,.11,.38-.37,1.09-.39,.57-.99,1.16-1.35,1.34-.13,.06-.4,.11-.66,.13-.24,.02-.65,.09-.91,.16-.26,.07-.65,.18-.87,.25-.27,.07-.53,.21-.83,.42-.24,.17-.47,.31-.5,.31h0s-.35-.15-.69-.33c-.71-.36-.98-.44-1.94-.5-.15,0-.28-.01-.41-.01-.88,0-1.37,.22-1.5,.68-.08,.29-.09,1.19,0,1.64,.11,.64,.34,1.01,1.29,2.11,1.36,1.57,2.11,2.32,2.67,2.7,1.06,.72,2.88,1.69,3.48,1.86,1,.27,1.13,.37,1.05,.85-.06,.33-.1,.38-.48,.42-.44,.05-1.02,.23-1.13,.36-.34,.37-.6,.88-.6,1.2,0,.26,.18,.89,.33,1.16,.26,.44,.36,.49,1.08,.49h.06c.69,0,.98-.1,1.27-.42,.2-.22,.41-.81,.47-1.33,.08-.66,.19-.75,.92-.76h.02c.21,0,.45-.02,.56-.04,.21-.05,.22-.06,.39-.44,.07-.15,.14-.22,.25-.22,.06,0,.13,.02,.21,.07,.07,.04,.38,.16,.69,.28,.31,.11,.82,.3,1.12,.42,.31,.11,.8,.3,1.09,.41s.78,.29,1.09,.41c.3,.12,.76,.29,1,.37s.49,.17,.56,.21c.06,.03,.55,.22,1.09,.41s1.02,.39,1.09,.42c.06,.04,.2,.08,.29,.11,.1,.03,.32,.11,.5,.19,.18,.07,.43,.17,.56,.21,.13,.05,.38,.14,.56,.21s.39,.15,.47,.18c.08,.02,.33,.12,.56,.21,.23,.08,.62,.23,.88,.33,.26,.09,.66,.24,.88,.33,.37,.15,.67,.26,1.67,.64,.18,.07,.4,.14,.5,.17,.1,.02,.6,.2,1.11,.39,.52,.19,1.14,.4,1.38,.49,.24,.08,.57,.2,.73,.26,.16,.07,.67,.25,1.14,.42,.85,.31,1.01,.37,1.94,.72,.96,.37,1.13,.45,1.27,.62,.12,.15,.14,.21,.1,.42-.02,.13-.04,.29-.04,.35,0,.12,.24,.55,.56,.97,.19,.25,.19,.41,.02,.65-.08,.1-.24,.33-.36,.5-.58,.81-.34,1.91,.5,2.3,.13,.05,.3,.14,.38,.17,.07,.04,.26,.07,.43,.07h.04c.77,0,1.39-.67,1.47-1.57,.03-.3,0-.39-.12-.62-.08-.15-.2-.38-.27-.53-.1-.25-.11-.28-.02-.54,.09-.28,.46-.7,.59-.7h0s.42,.16,.86,.35c.43,.19,1.09,.46,1.46,.58l.67,.23,3.03,.02c.68,0,1.22,0,1.65,0,1.83,0,1.93-.08,2.97-.57,.99-.47,1.28-1.01,1-1.87-.2-.61-.53-.88-1.61-1.3-1.78-.69-3.17-1.11-4.16-1.24-.71-.1-1.88-.4-3.51-.92-.1-.04-.25-.11-.34-.18-.32-.26-.32-.31-.31-2.25,.01-1.58,.03-1.8,.11-1.83,.02,0,.04,0,.07,0,.1,0,.2,.07,.27,.19,.22,.38,.43,.67,.49,.7h.02s.06-.09,.06-.33c0-.29-.04-.44-.19-.78-.34-.7-.36-.86-.21-1.21,.07-.16,.13-.38,.13-.49s.03-.35,.07-.53c.06-.3,.05-.36-.05-.57-.19-.37-.17-.44,.38-.96,.66-.63,.65-.62,.34-1.76-.22-.82-.23-.91-.16-1.05,.04-.07,.32-.38,.62-.68,.49-.5,.56-.59,.62-.87,.09-.39,.09-.82,0-1.06-.03-.09-.22-.32-.42-.49-.47-.42-.8-.77-.8-.87,0-.09,.13-.45,.46-1.34,.34-.9,.36-.96,.62-1.58,.35-.83,.64-1.62,.81-2.23,.13-.46,.15-.7,.18-1.85,.02-.73,.08-1.79,.11-2.35,.04-.56,.1-1.51,.14-2.1,.06-.96,.09-1.12,.25-1.62,.27-.77,.27-1.17-.01-2.04-.13-.38-.2-.72-.18-.8s.14-.27,.27-.43c.27-.34,.29-.42,.12-.91-.13-.41-.15-.79-.04-1.17,.12-.43,.03-1.04-.32-2.06-.2-.61-.83-1.78-1.12-2.11-.5-.56-2.18-1.79-2.46-1.8-.04,0-.15-.04-.26-.1-.16-.08-.21-.15-.32-.51-.17-.55-.32-.74-.75-.98-.37-.21-.69-.54-.74-.78-.02-.08-.09-.31-.15-.5-.12-.33-.12-.45-.09-1.85,.01-1.11,0-1.66-.06-2.12-.12-.85-.24-1.94-.28-2.47-.02-.24-.06-.55-.09-.69-.07-.35-.18-2.22-.13-2.39,.06-.23,1.59-1.46,2.09-1.68,.19-.09,.31-.12,.72-.12h1.4l.12-.14c.07-.08,.13-.21,.15-.28,.15-.68,.24-1.02,.31-1.1,.09-.11,.74-.38,1.43-.59,.24-.08,.51-.17,.59-.2,.14-.06,1.46-.47,1.95-.6,.11-.03,.34-.11,.5-.17s.33-.11,.37-.11h0s.3-.07,.58-.17c.29-.09,.72-.22,.96-.29s.59-.18,.77-.24c.24-.08,.59-.11,1.3-.14,1.81-.05,1.96-.08,2.98-.57,.49-.23,1.09-.53,1.33-.67,.24-.13,.6-.32,.79-.42s.39-.21,.44-.24c1.29-.76,1.73-1.06,2.48-1.63,1.04-.81,2.04-1.55,5-3.71,1.21-.88,1.4-1.01,1.7-1.16,.28-.14,.71-.28,.85-.28h0c.15,0,.65,.19,.94,.36,.56,.32,.76,.36,1.8,.37h.45c.78,0,.93-.05,1.57-.34,.69-.32,.83-.36,1.34-.41,.58-.05,.79-.14,1.01-.4,.25-.3,.21-.4-.38-1.05-.36-.39-.4-.53-.23-.67,.1-.09,.86-.46,.93-.46h0s.15-.05,.28-.11c.14-.06,.59-.21,1.01-.32,1.03-.27,1.9-.59,2.54-.92,1.18-.61,1.7-.98,1.77-1.24,.02-.09,.12-.32,.22-.53l.19-.37-.13-.14c-.08-.08-.2-.16-.28-.18h-.04c-.22,0-.88,.25-1.71,.67-.64,.32-1.41,.59-1.65,.59-.03,0-.05,0-.07-.02-.05-.05-.02-.11,.07-.24,.07-.09,.13-.19,.13-.2,0-.02,.08-.16,.18-.33,.23-.37,.23-.66,0-.69h-.04l-.02,.09Z" fill="#404041"/>
    </g>
  </g>
  <g>
    <g>
      <path d="M28.52,15.49c0,.36-.14,.7-.4,.95l-4.28,4.28-4.58-2.64v-2.6c0-.75,.61-1.35,1.35-1.35s1.35,.61,1.35,1.35h0v3.28l4.23-4.23c.53-.53,1.39-.53,1.92,0,.26,.26,.4,.6,.4,.97" fill="#404041"/>
      <path d="M27.16,27.87c-.18,0-.35-.04-.52-.1-.16-.07-.31-.17-.44-.29l-4.23-4.23v3.28c0,.75-.61,1.35-1.35,1.35s-1.35-.61-1.35-1.35v-2.59l4.58-2.65,4.27,4.27c.85,.85,.25,2.31-.96,2.31" fill="#404041"/>
      <path d="M23.64,20.91c-.02-.07-.06-.13-.12-.16h-.02l-1.15-.68-3.08-1.78-2.61-1.51c-.15-.08-.33-.03-.42,.11-.03,.05-.04,.1-.04,.15v7.91c0,.17,.14,.31,.3,.31,.05,0,.11-.01,.15-.04l2.61-1.51,4.24-2.45s.03-.02,.04-.03c.04-.03,.06-.07,.08-.11,0-.01,0-.02,.01-.04,.02-.06,.02-.11,0-.17h.01Zm-1.03,.15c-.02,.06-.06,.11-.11,.14l-3.29,1.9-2.03,1.17c-.11,.07-.26,.03-.32-.09-.02-.04-.03-.08-.03-.12v-6.14c0-.13,.11-.24,.24-.24,.04,0,.08,.01,.12,.03l2.03,1.17,3.29,1.9c.09,.05,.14,.17,.11,.27h-.01Z" fill="#404041"/>
      <path d="M21.69,21.05s-.04,.08-.08,.11l-2.47,1.43-1.52,.88c-.09,.05-.19,.02-.24-.06-.02-.03-.02-.06-.02-.09v-4.62c0-.1,.08-.18,.18-.18,.03,0,.06,0,.09,.02l1.53,.88,2.47,1.43s.07,.06,.08,.1v.1" fill="#404041"/>
    </g>
    <g>
      <path d="M50.87,20.83c-.02-.06-.07-.11-.13-.14l-3.77-1.89-2.33-1.17c-.18-.09-.41,.03-.4,.22l.08,6.27c0,.19,.23,.3,.41,.2l2.3-1.22,3.72-1.99c.06-.03,.1-.08,.12-.14,.02-.04,.02-.09,0-.14Zm-.91,.13s-.05,.09-.1,.11l-2.89,1.54-1.78,.95c-.14,.07-.32-.01-.32-.16l-.06-4.87c0-.12,.11-.2,.23-.19,.03,0,.06,.01,.08,.03l1.81,.9,2.93,1.47s.08,.06,.1,.11v.1h0Z" fill="#404041"/>
      <path d="M49.13,20.95s-.04,.07-.07,.08l-2.17,1.16-1.34,.71c-.08,.04-.17,.02-.22-.06,0-.02-.02-.04-.02-.06l-.04-3.66c0-.09,.08-.15,.17-.15,.02,0,.05,0,.07,.02l1.36,.68,2.2,1.11s.06,.05,.07,.08v.08" fill="#404041"/>
      <path d="M31.27,17.73l3.28-.04c1.58-.02,2.76,.88,2.77,2.17s-1.14,2.22-2.72,2.24l-1.72,.02,.03,2.12-1.56,.02-.08-6.53Zm3.15,3.09c.77,0,1.3-.38,1.29-.94s-.54-.92-1.31-.9l-1.55,.02,.02,1.84,1.55-.02Z" fill="#404041"/>
      <path d="M43.47,23.02v1.26l-5.18,.06-.08-6.53,1.57-.02,.06,5.27,3.63-.05h0Z" fill="#404041"/>
      <path d="M52.56,21.82l-2.9-4.14,1.82-.02,1.85,2.84,1.85-2.88,1.75-.02-2.79,4.21,.03,2.36-1.58,.02-.03-2.36h0Z" fill="#404041"/>
      <path d="M57.95,18.02h.83l.04,3.6,3.65-3.66h1.09l-3.03,3.01,3.31,3.5h-1.07l-2.81-2.99-1.13,1.1,.02,1.96h-.83l-.08-6.52h0Z" fill="#404041"/>
      <path d="M64.24,21.21c-.02-1.83,1.68-3.4,3.69-3.42s3.74,1.49,3.76,3.33c.02,1.83-1.66,3.4-3.68,3.43-2.03,.02-3.75-1.5-3.77-3.34Zm6.62-.08c-.02-1.45-1.35-2.67-2.92-2.65s-2.88,1.27-2.86,2.73,1.36,2.68,2.93,2.66,2.87-1.27,2.85-2.73h0Z" fill="#404041"/>
      <path d="M72.77,23.55l.51-.59c.62,.54,1.38,.92,2.4,.91,1.12-.01,1.69-.58,1.68-1.16,0-.69-.7-.96-1.98-1.21-1.47-.29-2.39-.68-2.41-1.81-.01-1.05,1.02-1.88,2.42-1.89,.94-.02,1.85,.3,2.57,.9l-.5,.59c-.61-.52-1.34-.82-2.1-.81-.9,.01-1.55,.55-1.54,1.15,0,.67,.73,.9,1.97,1.15,1.4,.28,2.4,.71,2.41,1.86,.01,1.04-.85,1.89-2.55,1.91-1.19,.01-2.14-.37-2.88-1Z" fill="#404041"/>
      <path d="M79.71,18.02h.83l2.76,4.51,2.65-4.58h.83l.08,6.52h-.83l-.06-4.92-2.65,4.58-2.76-4.52,.06,4.93h-.83l-.08-6.52Z" fill="#404041"/>
      <path d="M88.36,21.21c-.02-1.83,1.68-3.4,3.69-3.42s3.74,1.49,3.76,3.33-1.66,3.4-3.68,3.43c-2.03,.02-3.75-1.5-3.77-3.34Zm6.62-.08c-.02-1.45-1.35-2.67-2.92-2.65s-2.88,1.27-2.86,2.72,1.36,2.68,2.93,2.66,2.87-1.27,2.85-2.73h0Z" fill="#404041"/>
      <path d="M96.88,23.55l.51-.59c.62,.54,1.38,.92,2.4,.91,1.12-.01,1.69-.58,1.68-1.16,0-.69-.7-.96-1.98-1.21-1.47-.29-2.39-.68-2.41-1.81-.01-1.05,1.02-1.88,2.42-1.89,.94-.02,1.85,.3,2.57,.9l-.5,.59c-.61-.52-1.34-.82-2.1-.81-.9,.01-1.55,.55-1.55,1.15,0,.67,.73,.9,1.97,1.15,1.4,.28,2.4,.71,2.41,1.86,.01,1.04-.85,1.89-2.55,1.91-1.19,.01-2.14-.37-2.88-1h.01Z" fill="#404041"/>
    </g>
  </g>
  <g>
    <rect x="283.82" y="0" width="33.03" height="44.66" fill="#eb008b"/>
    <rect x="283.82" y="46.8" width="33.03" height="3.84" fill="#eb008b"/>
  </g>
  <rect y="169.35" width="149.35" height="19.66" fill="#eb008b"/>
  <rect x="153.4" y="169.35" width="149.35" height="19.66" fill="#eb008b"/>
  <g>
    <path d="M164.07,228.13c0-1.7,1.34-3.18,3-3.4,1.9-.25,3.62,1.18,3.85,3,.06,.51-.02,.99-.18,1.47-.22,.68-.51,1.32-.81,1.96-.49,1.02-1.04,2.01-1.62,2.99-.2,.34-.41,.68-.62,1.02-.1,.16-.27,.16-.37,0-.96-1.55-1.87-3.14-2.61-4.81-.24-.53-.44-1.07-.57-1.64-.05-.2-.07-.4-.06-.57v-.02Zm3.42-1.82c-.92,0-1.64,.72-1.64,1.64s.72,1.64,1.64,1.64,1.65-.72,1.64-1.65c0-.92-.73-1.64-1.65-1.64h0Z" fill="#90278e"/>
    <path d="M167.45,236.57c-.66,0-1.33-.12-1.94-.47-.23-.13-.43-.29-.59-.51-.34-.47-.25-1.06,.22-1.47,.25-.21,.53-.36,.83-.47,.07-.03,.1,0,.14,.05q.16,.26-.12,.38c-.25,.1-.48,.24-.66,.43-.28,.29-.27,.66,0,.95,.2,.21,.44,.35,.71,.45,1.07,.37,2.12,.37,3.16-.1,.18-.08,.35-.2,.49-.35,.28-.3,.28-.67,0-.96-.22-.22-.48-.37-.77-.47-.15-.06-.16-.06-.08-.2,.14-.26,.08-.24,.36-.12,.3,.13,.59,.29,.81,.55,.45,.53,.39,1.16-.15,1.61-.42,.35-.91,.52-1.43,.63-.3,.06-.61,.08-.96,.08h-.02Z" fill="#90278e"/>
    <path d="M167.5,227.4c.32,0,.56,.24,.56,.56s-.24,.57-.57,.57-.56-.24-.56-.57,.24-.56,.56-.56h.01Z" fill="#90278e"/>
  </g>
  <rect x="17.5" y="267.85" width="136.73" height="21.16" fill="#404041"/>
  <rect x="158.04" y="267.85" width="159.46" height="21.16" fill="#404041"/>
  <rect y="124.64" width="5.51" height="67.29" fill="#eb008b"/>
  <rect x="329.49" y="171.24" width="5.51" height="111.17" fill="#eb008b"/>
  <rect y="197.38" width="137.36" height="22.58" fill="#404041"/>
  <rect x="140.44" y="197.38" width="137.36" height="22.58" fill="#404041"/>
  <rect x="111.6" y="309.88" width="111.8" height="18.56" fill="#eb008b"/>
  <g>
    <path d="M245.85,38.3c-.65-5.63-1.4-12.43,2.04-17.36,2.9-4.15,8.55-5.09,13.24-5.34,1.35-.07,1.2-2.16-.15-2.09-5.25,.28-10.78,1.46-14.35,5.63-4.37,5.1-3.59,13.13-2.88,19.3,.16,1.34,2.25,1.2,2.09-.15h.01Z" fill="#eb008b"/>
    <path d="M249.35,36.79c-.51-4.42-1.14-9.82,1.64-13.64,1.98-2.71,5.65-3.76,8.84-4.01,1.35-.11,1.2-2.2-.15-2.09-3.71,.29-7.39,1.54-9.96,4.33-3.68,4-3.05,10.6-2.47,15.55,.16,1.34,2.25,1.2,2.09-.15h0Z" fill="#eb008b"/>
    <path d="M253.1,34.85c-.35-2.99-.74-6.51,1.03-9.15,1.15-1.73,3.32-2.39,5.29-2.56,1.34-.11,1.2-2.2-.15-2.09-2.61,.22-5.05,1.18-6.72,3.27-2.3,2.89-1.94,7.25-1.54,10.67,.16,1.34,2.25,1.2,2.09-.15h0Z" fill="#eb008b"/>
  </g>
  <g>
    <path d="M319.54,96.53v-1.73c0-1.13-.91-2.04-2.04-2.04h-.04c-1.13,0-2.04,.91-2.04,2.04v1.73h-1.73c-1.13,0-2.04,.91-2.04,2.04v.04c0,1.13,.91,2.04,2.04,2.04h1.73v1.73c0,1.13,.91,2.04,2.04,2.04h.04c1.13,0,2.04-.91,2.04-2.04v-1.73h1.73c1.13,0,2.04-.91,2.04-2.04v-.04c0-1.13-.91-2.04-2.04-2.04h-1.73Z" fill="#652d90"/>
    <path d="M317.12,94.52c.97,.24,.83,2.36,.85,3.06,.01,.28,.21,.45,.48,.48,.34,.04,.67,.01,1.01,0,.62-.02,.62-.99,0-.97-.34,.01-.67,.04-1.01,0l.48,.48c-.05-1.25,.03-3.59-1.56-3.99-.6-.15-.86,.78-.26,.93h0Z" fill="url(#uuid-f805c1cc-d947-431a-a35a-41774ecbadf8)"/>
    <path d="M321.08,98.14c.14,.05,.29,.07,.43,.1,.26,.05,.52-.07,.59-.34,.07-.24-.08-.54-.34-.59-.15-.03-.29-.05-.43-.1-.25-.08-.53,.09-.59,.34-.07,.26,.09,.51,.34,.59h0Z" fill="url(#uuid-843b88a7-9bc8-49b4-9f83-8167f40e32cf)"/>
  </g>
  <g>
    <path d="M20.15,320.06v-1.9c0-1.24-1-2.24-2.24-2.24h-.05c-1.24,0-2.24,1-2.24,2.24v1.9h-1.9c-1.24,0-2.24,1-2.24,2.24v.05c0,1.24,1,2.24,2.24,2.24h1.9v1.9c0,1.24,1,2.24,2.24,2.24h.05c1.24,0,2.24-1,2.24-2.24v-1.9h1.9c1.24,0,2.24-1,2.24-2.24v-.05c0-1.24-1-2.24-2.24-2.24h-1.9Z" fill="#652d90"/>
    <path d="M17.48,317.85c1.07,.27,.91,2.6,.94,3.37,.01,.31,.23,.5,.53,.53,.38,.04,.74,.01,1.12,0,.68-.02,.69-1.09,0-1.06-.38,.01-.74,.04-1.12,0l.53,.53c-.05-1.37,.04-3.95-1.72-4.39-.67-.17-.95,.86-.28,1.02h0Z" fill="url(#uuid-8023e964-b2ca-454b-a346-fe07606a35f7)"/>
    <path d="M21.84,321.84c.16,.05,.32,.07,.48,.11,.28,.06,.57-.08,.65-.37,.07-.26-.09-.6-.37-.65-.16-.03-.32-.06-.48-.11-.28-.09-.58,.1-.65,.37-.08,.29,.1,.56,.37,.65h0Z" fill="url(#uuid-a63e7ea1-5901-4d1c-b9c2-9f0866edc532)"/>
  </g>
  <g>
    <path d="M310.79,252.5v-1.38c0-.9-.73-1.62-1.62-1.62h-.03c-.9,0-1.62,.73-1.62,1.62v1.38h-1.38c-.9,0-1.62,.73-1.62,1.62v.03c0,.9,.73,1.62,1.62,1.62h1.38v1.38c0,.9,.73,1.62,1.62,1.62h.03c.9,0,1.62-.73,1.62-1.62v-1.38h1.38c.9,0,1.62-.73,1.62-1.62v-.03c0-.9-.73-1.62-1.62-1.62h-1.38Z" fill="#652d90"/>
    <path d="M308.86,250.9c.77,.19,.66,1.88,.68,2.44,0,.23,.17,.36,.38,.38,.27,.03,.54,0,.81,0,.5-.02,.5-.79,0-.77-.27,0-.54,.03-.81,0l.38,.38c-.04-.99,.03-2.86-1.24-3.18-.48-.12-.69,.62-.2,.74h0Z" fill="url(#uuid-dc2b22a9-5770-4a2d-9888-472184e17fc3)"/>
    <path d="M312.01,253.78c.11,.04,.23,.05,.35,.08,.21,.04,.41-.06,.47-.27,.05-.19-.06-.43-.27-.47-.12-.02-.23-.04-.35-.08-.2-.07-.42,.07-.47,.27-.06,.21,.07,.41,.27,.47h0Z" fill="url(#uuid-111fde03-dd5d-4e3b-b4f9-80c165bc317c)"/>
  </g>
  <polygon points="312.33 206.86 317.58 211.29 317.58 206.15 314.22 203.31 317.58 200.47 317.58 195.32 312.33 199.76 312.33 195.32 307.08 199.76 307.08 195.32 297.63 203.31 307.08 211.29 307.08 206.86 312.33 211.29 312.33 206.86" fill="#404041"/>
</svg>