<?xml version="1.0" encoding="UTF-8"?>
<svg id="uuid-6634457c-ff77-4ec1-a5b4-1fcc74114f82" data-name="uuid-dcb7a557-f62d-4c7b-be53-20a1b312f4e2" xmlns="http://www.w3.org/2000/svg" width="335" height="335" xmlns:xlink="http://www.w3.org/1999/xlink" viewBox="0 0 335 335">
  <defs>
    <linearGradient id="uuid-829e6e35-6527-4a4e-a6b3-3e0c944264a1" x1="335" y1="204.76" x2="0" y2="204.76" gradientTransform="translate(0 335) scale(1 -1)" gradientUnits="userSpaceOnUse">
      <stop offset="0" stop-color="#ee2a7b"/>
      <stop offset=".02" stop-color="#df2979"/>
      <stop offset=".1" stop-color="#b42773"/>
      <stop offset=".19" stop-color="#8e266f"/>
      <stop offset=".28" stop-color="#6d246a"/>
      <stop offset=".38" stop-color="#532367"/>
      <stop offset=".49" stop-color="#3f2365"/>
      <stop offset=".61" stop-color="#302263"/>
      <stop offset=".76" stop-color="#282262"/>
      <stop offset="1" stop-color="#262262"/>
    </linearGradient>
  </defs>
  <g>
    <path d="M335,0V335H154.79c-10.1,0-19.43-5.39-24.47-14.14l-21.91-37.97-7.97-13.82c-.12-.22-.25-.43-.36-.65-.02-.04-.05-.08-.07-.12-.54-1.01-1.02-2.05-1.43-3.1-.59-1.52-1.05-3.07-1.36-4.65-.38-1.85-.56-3.72-.56-5.6,0-4.88,1.26-9.76,3.78-14.14L207.12,55.98l24.15-41.85c5.05-8.74,14.38-14.13,24.48-14.13h79.25Z" fill="#ed1c24"/>
    <path d="M335,260.48v74.52H154.79c-10.1,0-19.43-5.39-24.47-14.13l-19.99-60.39h224.68Z" fill="#231f20"/>
    <polygon points="0 0 335 0 335 260.48 160.2 260.48 0 260.48 0 0" fill="url(#uuid-829e6e35-6527-4a4e-a6b3-3e0c944264a1)"/>
    <path d="M135.06,29.95c-3.88,2.25-4.75,3.5-4.75,6.75,0,2.25-.5,4.12-1,4.12s-2,1.75-3.25,3.75c-1.62,2.88-2,5.12-1.38,8.75,.5,2.75,1.38,5.25,2,5.75,1.88,1.12,1.25,4.25-.75,4.25-1,0-1.88,.88-1.88,1.88,0,.88-.75,2.25-1.62,2.75-1,.5-2,2-2.5,3.12-.38,1.25-1.62,2.25-2.75,2.25-3,0-2.25,3,1.62,6.38,5.75,4.88,11.12,7.5,14.25,6.75,1.62-.38,4,0,5.38,1,2,1.62,2.12,2.12,.75,3.88-.88,1.12-2.62,2-3.88,2-1.12,0-4,2-6.38,4.38-4.25,4.25-4.38,4.38-15.12,4.38-8.62,0-12,.5-16,2.62-2.75,1.5-5,3.25-5,4.12,0,.75-.88,2.88-1.75,4.75-1,2-1.38,3.5-.75,3.5s1.25,1.25,1.5,2.75c.25,1.62,2.25,3.62,5,5.12,2.62,1.25,4.75,3.13,4.75,4.13,0,.88,2,2,4.75,2.38,7.12,1.25,9,1.88,9,3.25,0,.62,2.25,3.62,5,6.62l5,5.5-11.5-.75c-6.38-.25-12.25-1-13-1.62s-8.5-1.75-17.25-2.5c-15.62-1.38-16-1.38-18.88,1.38-3.5,3.38-4.62,8-2.38,10.88,.88,1.25,1.75,3.5,1.75,5.12,0,1.5,.88,3.12,1.88,3.5s3,2.62,4.38,4.88c4,6.5,14.75,12.38,12.88,7.12-.38-1.12-.38-1.75,.12-1.25,.5,.38,1.12,1.62,1.25,2.75,.38,2.62,4.25,6.75,9.75,10.25,5.62,3.62,8.25,8.62,7.5,14.62-.38,3.62-.12,4.62,1.5,4.62,2.75,0,2.5,2.12-.38,2.88-1.38,.25-2.62,1.88-2.88,3.5-.12,1.62-1.25,3.12-2.25,3.25s-6.75,.88-12.75,1.62c-9.25,1.25-11.5,2-15.38,5.38-4.12,3.62-4.5,4.62-4.62,10.75-.12,5.25,.38,7.12,2.25,8.62,2.12,1.62,2,1.75-2.62,1.12-8.25-1.25-13.88-1.88-11-1.25,1.5,.25,3.38,1.38,4.12,2.38,1.62,1.88,11.25,2.5,13.12,.75,.75-.62,4.5-1.75,8.38-2.62,4-.88,7.5-2.12,7.88-2.75,.5-.62,1.75-1.12,3-1.12s4.75-1.38,7.75-2.88c3-1.62,7.12-3.38,9.12-3.88s5.12-2,6.75-3.38c1.75-1.25,3.62-2.38,4.25-2.38s3.62-1.88,6.62-4c3-2.25,7-5.12,9-6.25,5.75-3.62,8.5-5.38,9.12-6.12,.38-.38,4.62-4.12,9.38-8.25,8.88-7.75,15.25-14,23.12-22.88,2.38-2.75,5.12-5,6-5,2.38,0,12.75-11.38,12.75-14,0-1.25,.62-2.25,1.25-2.25,.75,0,1.25-.75,1.25-1.62,0-2.12,5.62-8,8.75-9s3.12-2,.12-5.75l-2.38-3,4.62-2.75c4.12-2.5,4.75-2.5,6.62-.75,2.5,2.25,1.88,4.12-1.38,4.12-2.25,0-6,3.25-5,4.38,.75,.62,11.12-1.62,13.75-3.12,3.25-1.62,15.5-2.88,20.88-1.88,4.38,.62,5.25,1.38,5.88,4.5,.5,2,.75,3.88,.75,4.38-.12,.38-4.88,.88-10.62,1s-11.25,.88-12.12,1.62c-1,.75-3.75,1.75-6.12,2.25s-6.12,2.25-8.25,3.88-4.5,3-5.12,3c-1.62,0-16.12,15.25-24.88,26.25-5.38,6.62-6.62,7.5-10.5,7.5-3.62,0-5.5,1-9.62,5.25-2.88,3-5.62,7-6.12,8.88-.75,3.12-7.38,9.62-9.75,9.62-.62,0-2.75,1.25-4.88,2.75-4.62,3.38-7.62,5-22.88,12.75-6.25,3.12-12.25,5.75-13.12,5.75-1,0-2.88,.75-4.25,1.75-1.38,.88-4.5,2.12-6.88,2.62s-6,1.62-8.12,2.5c-10.38,4.5-34.12,5.88-39.12,2.38-2.25-1.62-2.62-2.38-1.38-3.75,1.12-1.38,1-1.75-.62-1.75-2.88,0-2.5,5.38,.5,8.12,4.38,3.88,19.75,11.88,22.88,11.88,1.38,0,2.12,1,2.12,3.12,0,5.12,4.12,8.12,11.25,8.12,3.5,0,6.5-.62,7.12-1.62,3.12-4.75,7.88-5,15.88-.75,1.62,.88,2.75,.88,3.62,0,2.38-2.38,7.12-1.62,7.12,1,0,5.62,13.25,9.12,14.62,3.88,.38-1.38,1.12-2.5,1.75-2.5s1.12-1.88,1.12-4.25c0-4.62-1-4.25,17.25-6.5,3.5-.5,6.5-1.25,6.5-1.75s3.5-1.62,7.88-2.5c4.25-.88,8.38-2,9-2.5,.75-.5,3.25-1.38,5.62-1.88s5.5-1.62,6.88-2.5,4.38-2,6.75-2.5,6.88-2.25,10.12-3.88,6.5-3,7.12-3,3.25-1.12,6-2.5l4.88-2.5,1.75,3.75c1,2.25,2.75,3.75,4.12,3.75s2.38,.5,2.38,1.25c0,.62,2.88,1.25,6.25,1.25,8.88,0,11.62-3,12.25-13.62,.5-6.75,.25-8.38-1.75-9.75-2.25-1.62-2.25-1.88,.75-4.12,1.75-1.38,3.62-2.5,4.12-2.5,2.88,0,29.62-24.62,29.62-27,0-1,.62-1.75,1.25-1.75,.75,0,1.25-.88,1.25-2,0-1,1.75-2.5,3.88-3.25,5-1.75,6-4.88,5.25-15.25-.75-8.5-.75-8.62-6.12-11.88-4.88-2.88-7.5-7.62-4.25-7.62,.75,0,1.25-1.25,1.25-2.88,0-4.25-5-8.38-10.12-8.38-3.25,0-5.38-1-8-3.75-2-2.12-4.12-3.75-4.88-3.75-.62,0-2.5-1.25-4.12-2.75-2.38-2.25-3.38-2.5-5.62-1.25-1.62,.75-5.12,1.75-7.88,2.12-4.12,.62-5.5,.25-7.38-1.75-1.88-2.12-3.75-2.5-12.25-2.38-9.25,0-10.25-.25-13.62-3.5-2-1.88-3.62-4.12-3.62-4.75,0-.75-2-2.75-4.38-4.38-2.88-2-4.38-3.88-4.38-5.88,0-1.88-.75-3-1.88-3-1,0-1.88-.5-1.88-1.12s-3.12-1.5-6.75-2c-3.75-.38-8.25-1.88-9.88-3.12s-4.5-2.75-6.25-3.12c-1.88-.5-3.38-1.38-3.38-2s-2-1.12-4.38-1.12-4.38-.62-4.38-1.25c0-.75,.88-1.25,1.88-1.25s1.88-1,1.88-2.12,.88-3.12,2.12-4.38c1.88-2,1.88-2.38,0-4.5-1.75-2-1.75-2.38,.38-5.25,1.38-1.75,2.5-5.12,2.5-7.88,0-2.5,.62-4.62,1.38-4.62,1,0,1-.5,0-1.75-.75-.88-1.62-6.62-1.88-12.5-.62-14.88-1.5-15.75-15.62-15.75-8.75,.12-11.62,.62-15.38,2.87Zm25.38,1c3.62,2.5,3.75,3,3.38,10.88l-.38,8.38-8,.38c-4.5,.25-8.62-.25-9.25-.88-.75-.75-3.25-1.38-5.62-1.38-3.5,0-4.38-.62-6-4.38-3.12-7.62-2.5-10,3.62-11.88,2.88-.88,5.75-2.12,6.5-2.75,2.38-2,12-1.12,15.75,1.62Zm9.38,63c1.75,1.62,5.38,3.38,7.88,3.88,9,1.38,10.5,3.38,3.62,4.75-4.88,1-11.5,6.38-10.25,8.38,.5,1-.12,1.12-2.12,.5-1.62-.5-3-1-3.12-1.12,0,0-1-1.62-2.12-3.5-2.25-3.5-8.38-7.88-6.38-4.5,.5,.88-.25,.5-1.75-.75-3.5-3-3.5-6.38,0-8.75,4.25-3,10.38-2.5,14.25,1.12Zm-61.38,15.25c1.75,1.88,3.12,4.38,3.12,5.62,0,1.12,.62,2.5,1.25,2.88,1,.62,.88,1.38-.12,2.62-1.12,1.38-1,1.75,.62,1.75,2.25,0,2.5-2.12,.88-9.12-.62-2.5-.62-4.88-.12-5.25,1.12-.75,2.5,5.5,2.5,11.25,0,4.88-4.88,8.38-8.12,5.62-1.25-1-1.88-1.12-1.88-.12,0,2.12-1.75,1.62-4.75-1.25-1.5-1.38-3.38-2.12-4-1.75-.75,.38-.88-.12-.5-1.12,.5-1.12-.12-2.25-1.25-2.75-4.25-1.62-1.5-8.75,4.25-10.88,3.5-1.25,4.88-.88,8.12,2.5Zm33.88-.12c.75,.88,1.88,1.75,2.38,1.75,.62,0,2.88,1.5,5.25,3.25s4.62,2.88,5,2.5c.5-.38,0-.75-.88-.75s-1.38-.38-1-.75c.5-.38,2.62,.25,4.75,1.38,2.25,1.12,3.62,1.5,3.25,.75-1.5-2.25,2.5-1.5,5.88,1.12,1.75,1.38,3.75,2.5,4.38,2.5,.75,0,2.88,1.38,4.88,3,1.88,1.62,5.5,3.25,7.88,3.75,4.88,.88,13.62,7.5,12.12,9.13-.62,.5-1.75,.12-2.5-1-.88-1-2.38-2.25-3.5-2.62-1.62-.62-2-.25-1.5,1.62,.38,1.25,1.12,2.38,1.75,2.38,.5,0,1.75,1.25,2.5,2.75,1,1.83,.5,2.08-1.5,.75-1.62-1.25-5.5-3.38-8.62-4.88s-6.75-3.38-8.12-4c-2.12-1-2.12-.75,.5,2.12,1.75,1.75,2.75,3.5,2.38,3.88-1,1.12-12.25-2-12.25-3.25,0-.62-1.75-1.12-3.75-1.12-2.88,0-4.12-.75-5-3.12-.62-1.75-1.62-3.12-2.12-3.12-.62,0-1.62-1.25-2.25-2.75-.75-1.5-2-3-2.88-3.25-1.5-.5-1.5,0-.12,2.38,.88,1.62,2.38,4.88,3.12,7.12,1.5,4,1.38,4.12-.75,2.12-1.25-1.12-3-3.88-3.88-6-.88-2.25-2.38-4.5-3.25-5s-1.62-1.75-1.62-2.62c0-1.62-6.38-8.25-8-8.25-.5,0-1.75-.88-2.75-1.88-2.5-2.38-.5-2.5,2.75,0,2.88,2.12,4.25,2.38,4.25,.62,0-.75-1.25-1.88-2.75-2.62-2.5-1-2.38-1.12,.88-.5,2.12,.38,4.38,1.62,5.12,2.62Zm-16,3.25c1.38,3,2.75,7,3.25,9,.62,2.25,5.25,7.88,12.12,14.75,9.12,9,10.75,11.25,9,11.88-1.25,.5-2.75,1.38-3.25,2.12-.75,.88-.88,.5-.38-.88,.5-1.5,0-2.12-1.75-2.12-1.25,0-4-1.38-6-3.12-2.12-1.75-4.25-3.12-4.88-3.12-.5,0-3-1.62-5.38-3.62-2.38-1.88-6.5-4.25-9-5.25-2.62-.88-4.75-2.12-4.75-2.62,0-1.38,7.25-1.25,8.12,.12,.62,1.12,7.75,5.12,9,5.12,.12,0,.38-.62,.38-1.25,0-.75-.62-1.25-1.38-1.25s-3-1.38-5.12-3.12c-2.75-2.38-4.5-2.88-6.88-2.38-3.12,.88-3.25,.75-1.38-1.88,1.5-2.12,1.88-4.75,1.38-10.25-.62-6.88-.5-7.38,1.88-7.38,2,0,3.38,1.5,5,5.25Zm135.5,20.63c2.75,2.38,2.88,3.88,.5,6.5-1.12,1.12-2,5.25-2.25,9.75-.38,8.62-1.62,9.75-6,5.38-2.25-2.25-2.5-3.75-2-10.38,.25-4.25,0-8.88-.62-10.25-.88-1.75-1-1.12-.5,2.5,.62,4.62,.5,4.88-1.25,2.62-2.25-3-2.5-6.5-.25-7.38,3.38-1.38,10.12-.75,12.38,1.25Zm-184.38,11.88c1.62,1.5,2.88,3.75,2.88,5s.62,2.25,1.25,2.25c.75,0,1.25,1.12,1.25,2.5,0,3.12-2.12,3.25-2.88,.25-.5-2-.62-2-.75,0,0,1.25,.88,3.25,2.12,4.5s2.25,3.5,2.12,5.12c-.12,1.5,.38,2.5,1.12,2.25,1.38-.5,1.38-2.38,0-12.5-.75-5-.5-5.88,1.25-5.88,1.38,0,1.75-.62,1.25-1.5-.62-.88-.38-1,.62-.5,.88,.62,1.38,3,1.25,5.75-.25,3.12,.38,5.62,1.62,7.12,1.12,1.25,3.5,5.12,5.25,8.62s4,7.12,5,7.88c1,.88,1.5,2.38,1.12,3.38-.38,.88,.25,2.12,1.38,2.5,1.38,.5,2,2.38,2,5.75,0,5.38-2.12,6-4.5,1.25-2.12-4.38-5.75-7.75-7.75-7.5-1,.25-2.12-.5-2.38-1.5-.5-1.62-.38-1.62,.75,0,1,1.38,1.38,1.38,1.38,.25,0-.88-1.25-2-2.75-2.62-3.88-1.5-9-7.12-7.88-8.75,.38-.88-.38-1.5-2.12-1.5l-2.88-.25,2.88-.5c5.12-1,2.75-2.62-5.25-3.38-7.62-.88-7.88-1-9.12-5.12-1.75-5.5-.25-12.5,2.5-12.38,1.12,.12,2.12-.5,2.12-1.5,0-2.62,3.88-2.12,7.12,1Zm34.5,2.88c5.38,.25,10.38,1,11.25,1.62,.88,.75,5.88,1.62,11.25,2.12,9.5,.88,9.75,1,9.12,3.88-.5,2,0,3.38,1.75,4.62,2.38,1.62,2,1.88-5.75,2.75-5.5,.5-8.75,.38-9.62-.5-1-1-1-1.38,.12-1.38,3.5,0,1.12-2.5-3.5-3.75-2.62-.75-5.25-1.88-5.62-2.5-.88-1.5-3.12-1.62-3.12-.25,0,.5,2.5,2.88,5.62,5.25,6,4.75,6.88,6.88,3.38,7.75-2.62,.75-5.25-1-7.25-4.62-.75-1.38-2.62-3.12-4-3.88-1.5-.75-3.75-2.25-4.88-3.25-3.5-3.12-11.25-7.12-12.12-6.38-.62,.75,2.88,3.38,9.5,7.38,3.88,2.38,7.25,5.88,7.25,7.62,0,.88,.88,2,1.88,2.38,2.25,.88,2.5,5.5,.38,5.5-.75,0-2.5,.88-3.75,2-3,2.75-4.88,1-7.12-6.25-.88-3.12-2.12-5.75-2.75-5.75s-1.12-.75-1.12-1.62c0-.75-2.5-4.25-5.62-7.62-3.12-3.25-5.62-6.38-5.62-6.62,0-.38,2.38-.25,5.38,.25,2.88,.5,9.62,1,15,1.25Zm67.88,6.5c-.12,1.75,.62,2.12,3.38,1.88s3.62,.38,4.62,3c1.25,3.12,.88,3.88-3.38,8.25-2.5,2.62-5.12,4.75-5.75,4.75s.12-1.12,1.75-2.5c3.62-2.88,.62-3.5-3.38-.62-1.5,1-6.12,1.88-11,2.12-9.12,.25-10.75-.75-10.62-6.5l.12-3.12,.88,3c.75,2.62,1,2.75,2.5,.88,.88-1.12,2.75-2,3.88-2,3.62,0,6.25-1.38,6.25-3.25,0-.88,1.38-2,3.12-2.5,2-.5,3.12-1.62,3.12-3.12s.88-2.38,2.38-2.38,2.25,.88,2.12,2.12Zm-23.62,17.25c3.88,4,4.88,4.38,11.25,4.38,6.75,0,7,.12,5,2.12-1.25,1.25-3.38,3.75-4.75,5.62-1.38,2-3.38,3.5-4.38,3.5s-1.75,.88-1.75,1.88c0,2.12-3.12,2.5-4.38,.62-.38-.75-5.25-1.25-10.62-1.25s-10.25,.5-10.62,1.25c-.38,.62-2.25,1.25-4,1.25-4,0-12.88,2.5-15.38,4.25-4.25,3.12-7.62,4.5-8.88,3.88-.62-.5-1-4-.75-7.88,.5-6.62,.88-7.38,6.38-12.25,3.25-2.88,8.25-5.88,11.12-6.75s6.38-2,7.75-2.62c2.88-1.12,7.75-1.88,14.88-2.25,4-.12,5.62,.62,9.12,4.25Zm1.62,21.75c0,2.62-3.88,3.62-15.62,4.12-6.88,.38-13.62,1.12-15,1.88s-4.12,2-6,2.75c-4.5,1.75-5.5,4.75-2.62,7.62,4.12,4,8.25,4.25,11.75,.75,1.62-1.88,2.25-3.25,1.5-3.25s-2,1.12-2.75,2.5-2.25,2.5-3.38,2.5c-1.62,0-1.5-.62,.88-3.12,1.62-1.75,3.62-3.12,4.62-3.12,.88,0,1.62-.88,1.62-1.88,0-2.5-2.38-2.38-3.38,.12-1,2.62-6.38,4.5-8.75,3.12-1.62-.88-1.5-1.38,.88-3,1.62-1.12,3.38-1.75,4-1.38s1.75,.12,2.62-.5,3.12-1.25,5.12-1.25c1.88,0,4-.75,4.62-1.62,.62-1,1.12-1.25,1.12-.62,0,.75-1.5,2.88-3.38,4.75-4.88,5-1.88,4.25,3.88-1,3.38-3.12,5.25-4,6.12-3.12s1.75,.88,2.88,0c1-.88,1.75-.88,2.38,.12,.38,.62,.25,1.25-.5,1.25-.62,0-3,1.5-5.25,3.38-3.62,3.12-3.88,3.12-2.5,.62,.75-1.5,2.12-2.75,2.88-2.75s1-.38,.62-.75c-.5-.5-3,1-5.62,3.38-10.75,9.5-13.12,11.12-15.25,11.12-1.38,0-2.75-.62-3.12-1.25-.38-.75-1.88-1.25-3.12-1.25-1.38,0-4.25-1.62-6.5-3.62-4-3.5-4-3.62-1.88-6.88,1.88-2.88,9.88-7.5,17.12-9.88,3.25-1.12,30-.88,30,.25Zm19.25,2.5c3,3.25,3.12,20.12,.25,24.5-1.12,1.75-2,3.75-2,4.62,0,1.88-8.75,11-10.62,11-.62,0-2.88-1.5-4.75-3.12-6.75-6-5.88-21.75,1.62-30.88,3.62-4.38,8.88-8.12,12-8.38,.75-.12,2.38,1,3.5,2.25Zm10.25,5.5c4.25,3.88,4.62,4.75,4.5,11-.12,12.25-8.75,24.88-17,24.88-5,0-6-2.25-2-4.75,1.38-.88,2.5-2.38,2.5-3.38s.5-1.88,1-1.88c.62,0,1.75-2.38,2.62-5.38,.88-2.88,2.12-6.25,2.75-7.38,1.5-3,1.38-13.12-.12-14.12-.62-.38-1.25-1.25-1.25-2,0-2.12,2.5-1.12,7,3Zm28-1.62c0,.62-2.12,1.25-4.62,1.25-6.38,0-8.62,1.5-6,3.75,1.62,1.38,2.5,1.38,4.62,.12,1.88-1.12,2.88-1.12,4.25,0,1.12,1,2.25,1,3.38,.12,.75-.62,4.38-1.5,7.75-2,4.5-.62,5.75-.5,4.38,.5-1.62,1.12-1.62,1.38,0,2.5,1.5,1,1.12,1.25-1.38,1.25-1.88,0-4,.88-4.88,1.88s-2.88,1.88-4.62,1.88c-1.62,0-2.75,.5-2.38,1.12,.38,.5-1.25,2.12-3.62,3.38-3.38,1.75-4.62,2-5.88,.75-1.12-1.12-.88-2,.88-4,1.25-1.38,1.88-2.88,1.25-3.5-.5-.5-1.25-.12-1.5,.75-.5,1.25-1,1.25-2.5,.12-1.38-1.25-2.38-1.25-4.25-.12-3.75,2.38-3-.88,1.5-6.38,3.25-3.88,4.62-4.62,8.75-4.62,2.62,0,4.88,.5,4.88,1.25Zm-92.12,17.5c2.38,0,2.38,.25,.88,1.88-1,1-6.88,4.38-13.12,7.62l-11.25,5.88-13.75,.25c-7.5,.12-15,.62-16.5,1.12-2.5,.75-2.88,.5-2.88-2.25,0-5.25,4.38-8.38,13.62-10,4.5-.75,8.88-1.75,9.75-2.38,.75-.5,5.62-1.12,10.88-1.38,7.5-.38,9.5-.12,9.5,1.25,0,1,1.12,1.75,2.5,1.75s2.5-.62,2.5-1.25c0-.75,1-1.25,2.25-1.25,1.88,0,1.88-.25,.25-1.38-1.5-1.12-1.5-1.25,.38-.62,1.25,.38,3.5,.75,5,.75Zm117.62,5c1.75,.62,3.25,2,3.25,3.12,0,1,.62,1.88,1.25,1.88,1.75,0,1.62,5.62-.25,9.12-.75,1.5-1.75,3.62-2.25,4.62-.5,1.12-3,2-6.5,2.25-4.5,.25-6.12-.25-8.88-2.75-3.38-3.12-4.5-7-2.12-7,.75,0,1.62,.88,2,1.88,.5,1,1.38,1.5,2,1.12,.75-.5,1,.25,.5,2.12l-.88,3,2.5-2.88c1.62-1.88,2.88-5.62,3.38-10.38,.88-7.88,1.12-8,6-6.12Z" fill="#fff" isolation="isolate" opacity=".05"/>
    <path d="M276.75,335H0v-74.52H203.07c9.3,0,18.08,2.72,24.65,7.4,2.48,1.77,4.65,3.83,6.41,6.12l4.88,6.37,1.92,2.52,12.7,16.58,4.92,6.43,1.27,1.65,.75,.97,1.16,1.52,5.35,7,4.99,6.51c2.7,3.53,4.26,7.41,4.68,11.35h0s0,.06,0,.09h0Z" fill="#fff"/>
    <g>
      <circle cx="271.23" cy="198.66" r="54.74" fill="#fff200"/>
      <circle cx="271.23" cy="198.66" r="53.37" fill="#231f20"/>
      <circle cx="271.23" cy="198.66" r="51.55" fill="#fff"/>
      <circle cx="271.23" cy="198.66" r="49.11" fill="#a5ff62"/>
      <circle cx="271.23" cy="198.66" r="58.44" fill="none" stroke="#fff200" stroke-miterlimit="10" stroke-width=".97"/>
      <g>
        <circle cx="225.43" cy="162.35" r="2.38" fill="#fff200"/>
        <circle cx="220.9" cy="228.86" r="2.38" fill="#fff200"/>
      </g>
    </g>
    <g>
      <g>
        <path d="M32.41,17.19c0,.31-.12,.6-.34,.82l-3.7,3.7-3.95-2.28v-2.24c0-.65,.52-1.17,1.17-1.17s1.17,.52,1.17,1.17h0v2.83l3.66-3.66c.46-.46,1.2-.46,1.66,0,.22,.22,.34,.52,.34,.83" fill="#fff"/>
        <path d="M31.24,27.89c-.15,0-.31-.03-.45-.09-.14-.06-.27-.15-.38-.25l-3.66-3.65v2.83c0,.65-.52,1.17-1.17,1.17s-1.17-.52-1.17-1.17v-2.23l3.96-2.28,3.69,3.69c.74,.74,.21,2-.83,2" fill="#fff"/>
        <path d="M28.2,21.88c-.02-.06-.05-.11-.11-.14h-.02l-1-.59-2.66-1.54-2.26-1.3c-.13-.07-.29-.03-.36,.1-.02,.04-.04,.09-.04,.13v6.83c0,.15,.12,.26,.26,.26,.05,0,.09-.01,.13-.04l2.26-1.3,3.66-2.11s.03-.02,.04-.03c.03-.03,.06-.06,.07-.1,0-.01,0-.02,.01-.03,.01-.05,.01-.1,0-.15h0Zm-.89,.13c-.01,.05-.05,.09-.09,.12l-2.84,1.64-1.75,1.01c-.1,.06-.22,.02-.28-.07-.02-.03-.03-.07-.03-.1v-5.3c0-.11,.09-.21,.2-.21,.04,0,.07,0,.1,.03l1.75,1.01,2.84,1.64c.08,.05,.12,.14,.09,.23h0Z" fill="#fff"/>
        <path d="M26.51,21.99s-.04,.07-.07,.09l-2.14,1.23-1.31,.76c-.07,.04-.17,.02-.21-.06-.01-.02-.02-.05-.02-.08v-3.99c0-.09,.07-.15,.15-.15,.03,0,.05,0,.08,.02l1.32,.76,2.14,1.23s.06,.05,.07,.09c0,.03,0,.06,0,.09" fill="#fff"/>
      </g>
      <g>
        <path d="M51.7,21.8c-.02-.05-.06-.1-.11-.12l-3.26-1.63-2.01-1.01c-.16-.08-.35,.02-.35,.19l.07,5.42c0,.16,.2,.26,.35,.18l1.99-1.06,3.21-1.71c.05-.03,.09-.07,.11-.12,.01-.04,.01-.08,0-.12h0Zm-.79,.11s-.04,.08-.08,.1l-2.5,1.33-1.54,.82c-.12,.06-.27-.01-.27-.14l-.05-4.2c0-.1,.1-.17,.2-.16,.03,0,.05,.01,.07,.02l1.56,.78,2.53,1.27s.07,.05,.08,.09c0,.03,0,.06,0,.09h0Z" fill="#fff"/>
        <path d="M50.21,21.92s-.03,.06-.06,.07l-1.88,1-1.16,.62c-.07,.04-.15,.02-.19-.05,0-.02-.02-.04-.02-.05l-.04-3.16c0-.08,.07-.13,.15-.13,.02,0,.04,0,.06,.02l1.17,.59,1.9,.96s.05,.04,.06,.07c0,.02,0,.05,0,.07" fill="#fff"/>
        <path d="M34.78,19.13l2.83-.03c1.36-.02,2.38,.76,2.39,1.88s-.98,1.92-2.35,1.93l-1.48,.02,.02,1.83-1.35,.02-.07-5.64h0Zm2.72,2.67c.67,0,1.12-.33,1.12-.81s-.47-.79-1.14-.78l-1.34,.02,.02,1.59,1.34-.02h0Z" fill="#fff"/>
        <path d="M45.32,23.7v1.09l-4.47,.05-.07-5.64,1.35-.02,.06,4.55,3.13-.04Z" fill="#fff"/>
        <path d="M53.16,22.66l-2.51-3.57,1.57-.02,1.6,2.45,1.6-2.49,1.51-.02-2.41,3.63,.02,2.03-1.36,.02-.02-2.03h0Z" fill="#fff"/>
        <path d="M57.82,19.38h.71l.04,3.11,3.15-3.16h.94l-2.62,2.6,2.86,3.03h-.92l-2.42-2.59-.98,.95,.02,1.69h-.71l-.07-5.63h0Z" fill="#fff"/>
        <path d="M63.25,22.14c-.02-1.58,1.45-2.93,3.19-2.95s3.23,1.29,3.25,2.87c.02,1.58-1.43,2.94-3.18,2.96s-3.24-1.3-3.26-2.88Zm5.71-.07c-.02-1.25-1.16-2.31-2.52-2.29s-2.49,1.1-2.47,2.35c.02,1.25,1.17,2.32,2.53,2.3s2.48-1.1,2.46-2.36h0Z" fill="#fff"/>
        <path d="M70.61,24.16l.44-.51c.54,.47,1.19,.8,2.07,.79,.97-.01,1.46-.5,1.45-1,0-.6-.61-.83-1.71-1.05-1.27-.25-2.07-.59-2.08-1.57-.01-.9,.88-1.62,2.09-1.63,.81-.02,1.6,.26,2.22,.78l-.43,.51c-.53-.45-1.15-.71-1.81-.7-.78,0-1.34,.48-1.33,.99,0,.58,.63,.78,1.7,1,1.21,.24,2.07,.62,2.08,1.61,.01,.89-.73,1.63-2.2,1.65-1.03,0-1.85-.32-2.49-.87h0Z" fill="#fff"/>
        <path d="M76.61,19.38h.71l2.38,3.89,2.29-3.96h.71l.07,5.63h-.71l-.05-4.25-2.29,3.96-2.38-3.9,.05,4.26h-.71l-.07-5.63h0Z" fill="#fff"/>
        <path d="M84.08,22.14c-.02-1.58,1.45-2.93,3.19-2.95s3.23,1.29,3.25,2.87-1.43,2.94-3.18,2.96-3.24-1.3-3.26-2.88Zm5.71-.07c-.01-1.25-1.16-2.31-2.52-2.29s-2.48,1.1-2.47,2.35,1.17,2.32,2.53,2.3,2.48-1.1,2.46-2.36h0Z" fill="#fff"/>
        <path d="M91.43,24.16l.44-.51c.54,.47,1.19,.8,2.07,.79,.97-.01,1.46-.5,1.45-1,0-.6-.61-.83-1.71-1.05-1.27-.25-2.07-.59-2.08-1.57-.01-.9,.88-1.62,2.09-1.63,.81-.02,1.6,.26,2.22,.78l-.43,.51c-.53-.44-1.15-.71-1.81-.7-.78,0-1.34,.48-1.33,.99,0,.58,.63,.78,1.7,1,1.21,.24,2.07,.62,2.08,1.61,.01,.89-.73,1.63-2.2,1.65-1.03,0-1.85-.32-2.49-.87Z" fill="#fff"/>
      </g>
    </g>
    <g>
      <g>
        <circle cx="274.35" cy="301.63" r="4.29" fill="#fff"/>
        <circle cx="288.38" cy="301.63" r="4.29" fill="#fff200"/>
        <circle cx="302.41" cy="301.63" r="4.29" fill="#fff"/>
      </g>
      <g opacity=".1">
        <polygon points="57.76 258.36 41.51 277.42 34.41 271.37 44.61 259.41 32.64 249.21 38.69 242.11 50.66 252.31 50.66 252.31 57.76 258.36" fill="#fff"/>
        <polygon points="80.52 256.01 64.27 275.07 57.17 269.02 67.36 257.06 55.4 246.86 61.45 239.76 73.42 249.96 73.42 249.96 80.52 256.01" fill="#fff"/>
        <polygon points="103.13 253.68 86.88 272.74 79.78 266.69 89.98 254.73 78.01 244.53 84.06 237.43 96.03 247.63 96.03 247.63 103.13 253.68" fill="#fff"/>
        <polygon points="126.11 251.31 109.86 270.37 102.76 264.32 112.96 252.36 100.99 242.15 107.04 235.06 119.01 245.26 119.01 245.26 126.11 251.31" fill="#fff"/>
        <path d="M42.91,275.52l-7.65-6.52,10.19-11.96-11.97-10.2,6.52-7.65,19.62,16.72-16.72,19.61h0Zm-6.63-6.6l6.55,5.58,15.78-18.51-6.55-5.58-.28-.23-11.69-9.97-5.58,6.55,11.97,10.2-10.19,11.96h0Z" fill="#3f3f3f"/>
        <path d="M65.67,273.18l-7.65-6.52,10.19-11.96-11.97-10.2,6.52-7.65,19.62,16.72-16.72,19.61Zm-6.63-6.6l6.55,5.58,15.78-18.51-6.55-5.59-.27-.23-11.69-9.97-5.58,6.55,11.97,10.2-10.19,11.96h0Z" fill="#3f3f3f"/>
        <path d="M88.29,270.84l-7.65-6.52,10.19-11.96-11.97-10.2,6.52-7.65,19.62,16.72-16.72,19.61h0Zm-6.63-6.6l6.55,5.58,15.78-18.51-6.55-5.59-.27-.23-11.69-9.97-5.58,6.55,11.97,10.2-10.19,11.96h0Z" fill="#3f3f3f"/>
        <path d="M111.26,268.47l-7.65-6.52,10.19-11.96-11.97-10.2,6.52-7.65,19.62,16.72-16.72,19.61h0Zm-6.63-6.6l6.55,5.58,15.78-18.51-6.55-5.59-.27-.23-11.69-9.97-5.58,6.55,11.97,10.2-10.19,11.96h0Z" fill="#3f3f3f"/>
      </g>
      <g opacity=".1">
        <polygon points="225.86 240.67 209.61 259.73 202.51 253.68 212.7 241.72 200.74 231.52 206.79 224.42 218.76 234.62 218.76 234.62 225.86 240.67" fill="#fff"/>
        <polygon points="248.61 238.32 232.36 257.38 225.26 251.33 235.46 239.37 223.49 229.17 229.54 222.07 241.51 232.27 241.51 232.27 248.61 238.32" fill="#fff"/>
        <polygon points="271.23 235.99 254.98 255.05 247.88 249 258.07 237.04 246.11 226.84 252.16 219.74 264.13 229.94 264.13 229.94 271.23 235.99" fill="#fff"/>
        <polygon points="294.2 233.62 277.95 252.68 270.86 246.63 281.05 234.67 269.08 224.47 275.14 217.37 287.1 227.57 287.1 227.57 294.2 233.62" fill="#fff"/>
        <path d="M211.01,257.84l-7.65-6.52,10.19-11.96-11.97-10.2,6.52-7.65,19.62,16.72-16.72,19.61h0Zm-6.63-6.6l6.55,5.58,15.78-18.51-6.55-5.58-.28-.23-11.69-9.97-5.58,6.55,11.97,10.2-10.2,11.96h0Z" fill="#3f3f3f"/>
        <path d="M233.76,255.49l-7.65-6.52,10.19-11.96-11.97-10.2,6.52-7.65,19.62,16.72-16.72,19.61Zm-6.63-6.6l6.55,5.58,15.78-18.51-6.55-5.59-.27-.23-11.69-9.97-5.58,6.55,11.97,10.2-10.19,11.96h0Z" fill="#3f3f3f"/>
        <path d="M256.38,253.16l-7.65-6.52,10.19-11.96-11.97-10.2,6.52-7.65,19.62,16.72-16.72,19.61h0Zm-6.63-6.6l6.55,5.58,15.78-18.51-6.55-5.59-.27-.23-11.69-9.97-5.58,6.55,11.97,10.2-10.19,11.96h0Z" fill="#3f3f3f"/>
        <path d="M279.36,250.79l-7.65-6.52,10.19-11.96-11.97-10.2,6.52-7.65,19.62,16.72-16.72,19.61h0Zm-6.63-6.6l6.55,5.58,15.78-18.51-6.55-5.59-.27-.23-11.69-9.97-5.58,6.55,11.97,10.2-10.19,11.96h0Z" fill="#3f3f3f"/>
      </g>
      <g>
        <g>
          <polygon points="25.45 282.5 21.65 284.69 17.86 286.88 17.86 282.5 17.86 278.12 21.65 280.31 25.45 282.5" fill="#fff200"/>
          <path d="M17.75,287.06v-9.14l7.91,4.57-7.91,4.57h0Zm.22-8.76v8.39l7.26-4.19-7.26-4.19h0Z" fill="#262262"/>
        </g>
        <g>
          <polygon points="32.31 274.31 28.52 276.5 24.73 278.69 24.73 274.31 24.73 269.93 28.52 272.12 32.31 274.31" fill="#fff200"/>
          <path d="M24.62,278.87v-9.14l7.91,4.57-7.91,4.57Zm.22-8.76v8.39l7.26-4.19-7.26-4.19Z" fill="#262262"/>
        </g>
        <g>
          <polygon points="17.43 274.31 13.64 276.5 9.84 278.69 9.84 274.31 9.84 269.93 13.64 272.12 17.43 274.31" fill="#fff200"/>
          <path d="M9.74,278.87v-9.14l7.91,4.57-7.91,4.57Zm.22-8.76v8.39l7.26-4.19-7.26-4.19Z" fill="#262262"/>
        </g>
        <path d="M16.35,284.48v-9.14l7.91,4.57-7.91,4.57h0Zm.22-8.76v8.39l7.26-4.19-7.26-4.19h0Z" fill="#262262"/>
        <path d="M23.22,276.29v-9.14l7.91,4.57-7.91,4.57h0Zm.22-8.76v8.39l7.26-4.19-7.26-4.19Z" fill="#262262"/>
        <path d="M8.34,276.29v-9.14l7.91,4.57-7.91,4.57h0Zm.22-8.76v8.39l7.26-4.19-7.26-4.19Z" fill="#262262"/>
      </g>
      <g>
        <g>
          <polygon points="305.79 36.16 310.16 35.8 314.52 35.45 312.03 31.85 309.55 28.24 307.67 32.2 305.79 36.16" fill="#fff200"/>
          <path d="M305.61,36.28l3.92-8.25,5.19,7.52-9.11,.73h0Zm.36-.25l8.36-.67-4.76-6.9-3.6,7.58h0Z" fill="#262262"/>
        </g>
        <g>
          <polygon points="295.49 33.32 299.85 32.96 304.22 32.61 301.73 29.01 299.24 25.4 297.36 29.36 295.49 33.32" fill="#fff200"/>
          <path d="M295.31,33.44l3.92-8.25,5.19,7.52-9.11,.73Zm.36-.25l8.36-.67-4.76-6.9-3.6,7.58h0Z" fill="#262262"/>
        </g>
        <g>
          <polygon points="307.73 24.86 312.1 24.51 316.47 24.16 313.98 20.55 311.49 16.95 309.61 20.91 307.73 24.86" fill="#fff200"/>
          <path d="M307.56,24.99l3.92-8.25,5.19,7.52-9.11,.73Zm.36-.25l8.36-.67-4.76-6.9-3.6,7.58h0Z" fill="#262262"/>
        </g>
        <path d="M305.29,33.36l3.92-8.25,5.19,7.52-9.11,.73h0Zm.36-.25l8.36-.67-4.76-6.9-3.6,7.58h0Z" fill="#262262"/>
        <path d="M294.99,30.52l3.92-8.25,5.19,7.52-9.11,.73Zm.36-.25l8.36-.67-4.76-6.9-3.6,7.58h0Z" fill="#262262"/>
        <path d="M307.24,22.07l3.92-8.25,5.19,7.52-9.11,.73Zm.36-.25l8.36-.67-4.76-6.9-3.6,7.58h0Z" fill="#262262"/>
      </g>
    </g>
  </g>
  <circle cx="170.97" cy="98.32" r="4.45" fill="#fff"/>
  <g>
    <rect x="53.67" y="117.77" width="106.69" height="17.13" fill="none" stroke="#fff" stroke-miterlimit="10" stroke-width="1.05"/>
    <rect x="174.64" y="117.77" width="106.69" height="17.13" fill="none" stroke="#fff" stroke-miterlimit="10" stroke-width="1.05"/>
  </g>
  <g>
    <path d="M14.53,181.89c.01-2.16,1.71-4.06,3.82-4.33,2.42-.31,4.62,1.51,4.91,3.82,.08,.65-.03,1.26-.23,1.87-.28,.86-.65,1.69-1.04,2.5-.63,1.3-1.33,2.56-2.06,3.81-.26,.44-.52,.87-.79,1.3-.13,.2-.34,.2-.47,0-1.22-1.98-2.38-4-3.33-6.14-.3-.68-.57-1.37-.73-2.1-.06-.26-.09-.51-.08-.73h0Zm4.37-2.32c-1.17,0-2.09,.92-2.09,2.1,0,1.18,.92,2.09,2.09,2.09,1.18,0,2.1-.92,2.1-2.11,0-1.17-.93-2.09-2.1-2.09h0Z" fill="#fff200"/>
    <path d="M18.84,192.66c-.84,0-1.69-.16-2.48-.6-.29-.16-.55-.37-.75-.65-.43-.6-.31-1.36,.28-1.87,.31-.27,.67-.46,1.06-.6,.09-.03,.13-.02,.18,.06,.2,.34,.2,.34-.16,.48-.32,.13-.61,.3-.84,.55-.35,.37-.35,.84,0,1.21,.25,.27,.56,.45,.9,.57,1.36,.48,2.71,.47,4.03-.12,.24-.1,.44-.26,.62-.44,.36-.38,.36-.85,0-1.22-.27-.29-.62-.47-.98-.6-.2-.07-.2-.07-.1-.25,.18-.33,.1-.31,.46-.16,.39,.16,.75,.37,1.03,.7,.57,.67,.49,1.48-.19,2.05-.53,.44-1.16,.67-1.83,.8-.39,.08-.78,.1-1.22,.1h0Z" fill="#fff200"/>
    <path d="M18.91,180.95c.41,0,.72,.3,.72,.72,0,.42-.31,.72-.73,.72-.41,0-.71-.31-.71-.72,0-.41,.31-.71,.72-.71h0Z" fill="#fff200"/>
  </g>
</svg>