<svg xmlns="http://www.w3.org/2000/svg" xmlns:xlink="http://www.w3.org/1999/xlink" width="335" height="335" data-name="Layer 1">
  <defs>
    <radialGradient id="a" cx="68.5" cy="134" r="4.6" fx="68.5" fy="134" gradientUnits="userSpaceOnUse">
      <stop offset="0" stop-color="#d0e2e2"/>
      <stop offset=".3" stop-color="#d5e5e5"/>
      <stop offset=".8" stop-color="#e5eeef"/>
      <stop offset="1" stop-color="#f2f5f7"/>
    </radialGradient>
    <radialGradient xlink:href="#a" id="c" cx="-873.4" cy="753.7" r=".7" fx="-873.4" fy="753.7" gradientTransform="rotate(-107.3 -631.6 93.6)"/>
    <radialGradient xlink:href="#a" id="d" cx="71.7" cy="129.4" r=".5" fx="71.7" fy="129.4"/>
    <radialGradient xlink:href="#a" id="e" cx="69.3" cy="127.8" r=".4" fx="69.3" fy="127.8"/>
    <radialGradient xlink:href="#a" id="f" cx="65.3" cy="129.7" r=".4" fx="65.3" fy="129.7"/>
    <radialGradient xlink:href="#a" id="g" cy="110.2" r="4.6" fy="110.2"/>
    <radialGradient xlink:href="#a" id="h" cx="-850.7" cy="760.7" r=".7" fx="-850.7" fy="760.7" gradientTransform="rotate(-107.3 -631.6 93.6)"/>
    <radialGradient xlink:href="#a" id="i" cx="71.7" cy="105.7" r=".5" fx="71.7" fy="105.7"/>
    <radialGradient xlink:href="#a" id="j" cx="69.3" cy="104" r=".4" fx="69.3" fy="104"/>
    <radialGradient xlink:href="#a" id="k" cx="65.3" cy="106" r=".4" fx="65.3" fy="106"/>
    <linearGradient id="b" x1="0" x2="335.1" y1="98.6" y2="98.6" gradientUnits="userSpaceOnUse">
      <stop offset="0" stop-color="#0149a9"/>
      <stop offset=".3" stop-color="#034dab"/>
      <stop offset=".6" stop-color="#095ab3"/>
      <stop offset=".9" stop-color="#146fc0"/>
      <stop offset="1" stop-color="#1978c6"/>
    </linearGradient>
  </defs>
  <path fill="#d0e9f4" fill-rule="evenodd" d="M258.7 173.4.9 268.3v-137c34.9 2.2 121.7 9.4 169.7 28.6 56.6 22.5 84.3 14.8 88.1 13.6Z"/>
  <path fill="#dfeef4" d="m334.5 136.9.3 198H.2V227.5c9.4-7.5 20.4-14.9 34.9-22 72.6-35.3 202-63.2 299.4-68.6Z"/>
  <path fill="#b7dae5" d="M240.4 202.2s-38.9 19.3-78 22.9c-39.1 3.6-37.9 36.7-93.5 35.2-12.1-7.2-35.2-7.5-35.2-7.5s47.3 1.2 78.6-14.9c31.3-16.2 39.7-18.2 62.1-19.8C196.8 216.4 233 203 233 203l7.4-.8Z"/>
  <path fill="#edf9f7" d="M.2 246.2s7.6-.7 8.7.4c3.8.2 1 0 7.6.4-.2-4.9 295 15.6 318.3 42.8v45.1H.2v-88.6Z"/>
  <path fill="#a8cedd" d="M11.6 247.1s16.4.8 33.8 22.9c13.6 17.3 48.8 35.7 77.6 38.4 28.8 2.7 30 4.1 30 4.1l-35.6 17.3s-65.3-2.4-86.1-45.2c-11.7-24.2-30.4-38-30.4-38l10.6.5Z"/>
  <path fill="#fff" d="M68.4 334.9s61.9-45.4 75.4-36c25.7-7.2 45.1-12.8 76.4-15.3 5.2-7.8 93.7-5.7 114.6-4v55.3H68.4Z"/>
  <path fill="#b4daed" d="M269.3 283s80.7 17.3 63.3 51.9l-142.1-.7s30.7-17.9 2.4-35.8c0 0 30.2-11.4 76.4-15.3Z"/>
  <path fill="#272c3a" d="M274.9 294.2c-.3 1-1.9 2.4-6.5 4.6-3.8 1.8-10.8 6.3-16.3 9.6-3.4 2.1-6.2 3.7-7.3 4.1-2.8.9-11.4 1.1-11.6-.6-.3-1.7 4.2-3.3 4.2-3.3 3.1-.6 5.2 1.1 5.2 1.1.3-.2 20.2-12.6 22.4-13.9 2.2-1.3 9.4-3.8 9.9-2.6.1.3.2.6 0 1Z"/>
  <path fill="#3f444f" d="M274.9 294.2c-.2.5-1.1 1-3.3 2.1-3 1.5-26.3 15-26.9 15-.6 0-2.2-1.6-2.2-1.6.3-.2 20.2-12.6 22.4-13.9 2.2-1.3 9.4-3.8 9.9-2.6.1.3.2.6 0 1Z"/>
  <path fill="#424344" d="M254.6 296c-1.9-.8-2.2-1.6-1.6-3.6-1.2 0-1.7-.5-1.7-1.3-1 .9-1.5 1.5-1.5 1.5s-.5 1.2-.3 1.9.7 1.1.5 1.7c-.2.7-.3 1.9.1 2.3.5.4 1.6.9 1.9 1.5.2.6-.1 1 .3 1.8.3.5.9 1 1.5 1.1-2.4-2-1.3-5.6.8-7.2Z"/>
  <path fill="#232323" d="M259.8 292.5c.5 0 0 1.4.5 2.2h.8c-.4 1.2.7 1.6 1.6 2v-1.2c0-.9.2-1.7-.6-2.5 0 0-1-1.3-.8-1.7.1-.4 0-1.6-2-2-.5-.1-1.1-.2-1.8-.3.4 1.3.6 2.8 2.3 3.4Z"/>
  <path fill="#383838" d="M261.1 295.2v-.5h-.8c-.5-.8 0-2.2-.5-2.2-1.7-.6-1.9-2.1-2.3-3.4-1.8-.2-4 0-5.1 1.1l-1.1 1.1c0 .8.5 1.3 1.7 1.3-.5 1.9-.3 2.7 1.6 3.6 2-.9 4.2-.8 6.5-.8Z"/>
  <path fill="#3f3f3f" d="M262.7 296.7c-.8-.4-1.6-.7-1.6-1.5-2.3 0-4.5 0-6.5.8-1.4 1-2.3 2.9-2.1 4.7 1 .8 2.3 1.1 3.5.5 2.4-1.1 6.2-1.3 6.8-4.5Z"/>
  <path fill="#232323" d="M263.4 297.7c-.4-.4-.6-.7-.7-1-.5 3.2-4.4 3.5-6.8 4.5-1.3.6-2.5.3-3.5-.5 0 .9.5 1.8 1.3 2.5.4.1.9.1 1.3 0 .9-.4 9.2-4 9.2-4.4 0-.5 0-.2-.8-1Z"/>
  <path fill="#182742" d="M233.1 258s2 5.3 6.9 5.8q.1 1.2 1.2 2.4c1.1 1.2-.5 2.1.5 3.2s1.2 2.8 1.2 2.8 1.2 3.4 1.8 5.6c.6 2.2 0 3.4.8 3.9.7.5-.3 4.4 1.4 5.1 1.8.7 0 3.4 1.1 4.1 1.2.7 1.5 2.6 1.5 2.6s3.3-4 6.6-3.3c3.2.7 3.2 1.3 4.9 1.2.1-2.3.4-3.4 0-5-.9-3.3-2.7-4.3-2.7-4.3s.4-1.6 0-2.1c-.5-1-1.2-1.9-1.2-1.9s0-1.4-.4-3.6c-.5-2.9-2.4-6.8-2.6-7.2-.2-.5-.4-2.1-.4-2.4s-1-2.7-1-2.7.8-1.1-.7-2.5-2.2-2.2-2.2-2.2-1.4-3.5-3.8-5.1c-2.4-1.5-3.1-4.5-6.2-2.9s-7.1 4.3-6.7 8.5Z"/>
  <path fill="#101d30" d="M260.9 286.6c-.9-3.3-2.7-4.3-2.7-4.3s.4-1.6 0-2.1c-.5-1-1.2-1.9-1.2-1.9s0-1.4-.4-3.6c-.5-2.9-2.4-6.8-2.6-7.2-.2-.5-.4-2.1-.4-2.4s-1-2.7-1-2.7.8-1.1-.7-2.5-2.2-2.2-2.2-2.2-1.4-3.5-3.8-5.1c-2.4-1.5-3.1-4.5-6.2-2.9-.4.2-.9.5-1.3.7 4.4 1.4 9.3 3.1 10.6 8-.8.3-1.6-.3-2.5.3 2.5.5 4.6 2.7 5.2 5.7.3.8 1.4 2.2 1.4 3.6-.5-.2-.9 0-1.4 0 2.4 1.9 3.3 4.4 3 7.6 0 .3 1.1.8 1.1 1.4.5 2.5-.8 4.4 1.6 5.7-1.6-.3-2.7-1.4-4.4-.5-.3 0 .3 1.1.5 1.4 1.9.5 4.1.3 4.9 2.5.6 2.1 1.4 3.9 2 5.7h.3c.1-2.3.4-3.4 0-5Z"/>
  <path fill="#263851" d="M251.1 288.9c2.2-.5 4.4-.8 6.6-1.9-2.5 0-5.2 1.4-6.8.3-1.6-.8.3-4.6-3-3.6.5-2.5.3-4.9-.5-7.4 0-.3-1.1 0-1.9 0 .8-3.3-.3-7.1 1.6-9.8-1.4 1.1-1.6 3-3 4.1-1.4-2.2.8-6.8-2.7-6.8 0-1.6 0-4.1 2.5-4.1s.3-.8.3-1.1c-.8-.5-1.6-.5-2.5-.8-1.4-.5.5-1.9 0-2.7-.3-.3-1.4.3-1.9 0-1.4-1.6 1.6-3.3 1.4-4.9 0-.2-.2-.5-.4-.8-.2 0-.5.2-.7.3-3.1 1.6-7.1 4.3-6.7 8.5 0 0 2 5.3 6.9 5.8q.1 1.2 1.2 2.4c1.1 1.2-.5 2.1.5 3.2s1.2 2.8 1.2 2.8 1.2 3.4 1.8 5.6c.6 2.2 0 3.4.8 3.9.7.5-.3 4.4 1.4 5.1 1.8.7 0 3.4 1.1 4.1 1.2.7 1.5 2.6 1.5 2.6s1.8-2.1 4-3c-.9-.2-1.9-.3-3-.6-.3 0 .3-.8.5-1.1Z"/>
  <path fill="#2d0604" d="M246 199.2c-3.7 0-6.8 3.4-6.8 7.7s5.5 8.7 9.2 8.7 4-5.8 4-10-2.7-6.4-6.4-6.4Z"/>
  <path fill="#cca587" d="M241.6 202.3s-.7 4.6-1.5 6.6 2.2 4.7 5.3 5.1c3.3.4 6.3-1.7 6-3.4-.3-1.7-.5-5.5.2-8.2-3.4-.2-10 0-10 0Z"/>
  <path fill="#5e4631" d="M252.4 190.5c-.1-.1-2-.9-2.5-1-2.6-.7-5.3-.4-6.4.4-1.2.8-1.8 1.7-2.3 2.9-.9 1.9-.7 3.5-.5 5.4.2 1.9-.4 1.3 1.3 3 1.7 1.7 9.4 3.2 9.4 3.2s1.8-.6 2-2.1c0-.6.2-1.3.3-2.1.1-1 .3-2 .5-2.8.3-1.4.6-5-1.6-6.9Z"/>
  <path fill="#493323" d="M253.8 198.6c0-.4.1-.8.2-1.2.3-1.4.6-5-1.6-6.9-.1-.1-2-.9-2.5-1 3.5 1.7 3.5 5.5 3.9 9.1Z"/>
  <path fill="#5e4631" d="M249.9 189.5c-2.6-.7-5.2-.4-6.4.4-1.2.8-1.8 1.7-2.3 2.9-.9 1.9-.7 3.5-.5 5.4.2 1.9-.4 1.3 1.3 3 1.7 1.7 9.4 3.2 9.4 3.2s1.8-.6 2-2.1c0-.6.2-1.3.3-2.1 0-.6.2-1.1.2-1.6-.4-3.6-.4-7.4-3.9-9.1Z"/>
  <path fill="#685344" d="M243.1 194c0-.5 1.6-.3 2.2-1.1.3-.5-.5-1.4-.3-1.9.5-.5 1-1.2 1-1.9-1 0-1.9.3-2.4.7-1.2.8-1.8 1.7-2.3 2.9-.9 1.9-.7 3.5-.5 5.4.2 1.9-.4 1.3 1.3 3 .2.2.4.3.7.5 0-.2 0-.3.1-.5.8-2.5 0-4.6.3-7.1Z"/>
  <path fill="#f7cda9" d="M253 195.4c-.3-1.1-1.5-1.4-2.2-.8-.7.6-2.1 0-2.1 0s-2.2-1.1-3.6-.7c-1.4.4-3.4 5-3.4 5s0-1-1.4-.3c-1.5.7 1.4 4.6 1.4 4.6s0 .5.2 2.6c0 1.3 2.5 3.8 3.7 4.2 1.2.4 1.6.2 2.3.2 1.2 0 2.4-2.2 3-2.7.6-.5 1.3-3.9 1.4-4.7.1-.8.7-1.5.6-1.8 0-.4.3-4.4 0-5.5Z"/>
  <path fill="#f7cda9" d="M250.8 194.6c-.7.6-2.1 0-2.1 0s-2.2-1.1-3.6-.7c-1.4.4-3.4 5-3.4 5s0-1-1.4-.3c-1.5.7 1.4 4.6 1.4 4.6s0 .5.2 2.6c0 1.3 2.5 3.8 3.7 4.2 1.2.4 1.6.2 2.3.2.9 0 1.7-1.1 2.4-2 1.1-3 2.2-5.9 2.4-9.3 0-.3-.8-.8-.8-1.1 0-1.1 1-1.8 1-2.7-.4-.9-1.5-1.1-2.1-.5Z"/>
  <path fill="#dda983" d="M253 195.4v-.3c0 .9-1 1.6-1 2.7s.8.8.8 1.1c-.2 3.4-1.3 6.3-2.4 9.3.3-.3.5-.6.7-.8.6-.5 1.3-3.9 1.4-4.7.1-.8.7-1.5.6-1.8 0-.4.3-4.4 0-5.5Z"/>
  <path fill="#f2d6c2" d="M244.8 204.7c-.5-.3-1.1-.5-1.1-.5-.8-1.4.8-3 .5-4.1 0-2.1 1-4.1 1.1-6.2h-.2c-1.4.4-3.4 5-3.4 5s0-1-1.4-.3c-1.5.7 1.4 4.6 1.4 4.6s0 .5.2 2.6c0 1.3 2.5 3.8 3.7 4.2.7.2 1.2.2 1.5.2-.4-.2-.7-.4-1-.7-1.4-1.1-3-3.3-1.4-4.9Z"/>
  <path fill="#f9d3b7" d="M248 201.6s0 .5-.7 1.8c-.2.4-.3.7-.3.9.3.3.7.5 1.1.6-.1-1 .2-2.3 0-3.3Z"/>
  <path fill="#eab68f" d="M248.7 203.6c-.2-.5-.3-2-.3-2h-.2c0 1.2.6 2.2.2 3.3.2 0 .3 0 .5-.2 0-.3 0-.7-.2-1.1Z"/>
  <path fill="#dba783" d="M249 204.7s0 .1-.1.2c-.1 0-.2 0-.3.1h-.3c-.1.1-.5-.2-.6-.4h-.2c-.2 0-.3-.2-.4-.4.6.5 1.4 1 2 .4Z"/>
  <path fill="#f7cda9" d="M248.2 201.6h-.2c.2 1-.2 2.3 0 3.3.1.1.3.2.5 0 .4-1.2-.3-2.2-.2-3.3Z"/>
  <path fill="#c6906b" d="M247.3 204.7h.2l.3.2c0-.2-.3-.4-.5-.3Zm1.4.2c-.1.1-.4.1-.5.1 0 0 .2 0 .3-.1h.2Z"/>
  <path fill="#692116" d="M253.6 200.4c-1.7-.2-3.3 0-5-.3h-.8c-1.7 0-3.4-.5-5-.6 0 .2.7.5.6 1.1-.2.9 0 1.9 1 2.3 1.1.4 2.3.3 3-.7.2-.2.3-.4.7-.4.5 0 .5.2.7.5.5 1.1 1.6 1.5 2.8 1.3 1-.2 1.5-1.1 1.4-2 0-.6.3-.3.6-.4v-.7Z"/>
  <path fill="#692116" d="m240.6 198.5 2.8 2.2.8-1-3.4-1.8-.2.6z"/>
  <path fill="#606060" d="m244.2 200 3.4.5c.1 0 .2.1.1.2-.2.6-1 2.1-2.1 2-1.4 0-2.5-.9-1.6-2.6h.2Zm8.5.8-3.6-.2s-.2 0-.2.2c-.5 1.8 1.1 2.6 2.5 2.4 1.2-.2 1.4-1.8 1.5-2.2 0 0 0-.1-.1-.1Z"/>
  <path fill="#232323" d="M291.1 301c0 .4.2.7.4 1.1 1.1-1 3-1.8 3.9-2.2.4-.2.6-.4.8-.6a3 3 0 0 0-.4-.8c-1.4.4-2.6 1.5-3.7 2.4-.3.1-.6.1-1 .1Z"/>
  <path fill="#3f3f3f" d="M296.2 299.3c.2-.3.2-.6.1-.9h-.5c.1.3.2.5.4.8Z"/>
  <path fill="#3f444f" d="M303.4 309.4s-2.7-3.5-4.9-6.3-3.9-6-4.6-6.2c-.7-.2-5.4.7-5.6 1.3-.2.5-.9 1.8-.8 2.3 0 .5 3.2 4.9 4 6.1.8 1.3 2.3 3.3 2.9 5.1.6 1.8.3 4 .3 4s3.8-1 4-1.2l4.8-5.1Z"/>
  <path fill="#272c3a" d="M296.2 316.7c-1.3.3-2.4-.8-2-2.1.5-1.6 1.8-3.7 5-4.9 4-1.5 4.3-.4 4.4.3 0 .4-4.3 5.9-7.4 6.7Z"/>
  <path fill="#182742" d="M295.4 299.9c-1.3.6-4.6 2.1-4.6 3.5s-.2 1.8-1.2.7c-1.1-1.1-5.1-4.7-5-5.2 0 0-.2 0-.6-.3-.5-.3-1.4-1.1-2-2.5-.7-1.6-2.2-2-3.2-2.5s0 0-.1 0-.2-.1-.3-.2h-.2l-.1-.2c-.4-1-2.5-3.4-2.5-3.4s-2.4-1-3.5-2.7c-1.1-1.7-1.8-2-2.4-2.6-.6-.5-2.9-1.8-3.3-2.4-.4-.6-2.8-2.4-3.5-3.8-.7-1.5-4-5.6-4.3-6.3v-.3c-.3-.5-.9-1.4-1.6-2.3 0 0 0-.1-.1-.2l-.6-.9-.2-.2s-.1-.2-.2-.3c0 0 0-.1-.1-.2 0 0-.1-.2-.2-.2-.2-.2-.3-.4-.4-.6l-.1-.2-1.5-2.3-9-10.3-2-5.1s3.7-2.1 4.1-2.1c.4 0 6.2 1.9 6.2 1.9l6.3.8 3.6 1h.2l2.6 2.3s.5 2 .9 2.4c.4.4 1.3 1.2 1.6 1.9.3.7 0 2.2.3 3.2s1 1.8 1.1 2.4c.1.6-.3 2.3.9 3.9 1.1 1.6 2.4 2.8 2.7 3.3.3.5.5 1.8.5 1.8s3.9.4 6.7 3.7c2.8 3.4 1.8 3.6 1.9 3.7 0 .1 2.1.5 2.4 1.2.3.6 3.9 5.7 3.9 6.2s-.5 1.5 0 1.9c.5.3 2.4.6 2.5 1.5.2.9.6 1.4 1.7 2.4l.2.2c1.2 1 3 2.8 3.2 3.4.3.6.5 1.6.6 2.3.1.7.6 1.5-.7 2.1Z"/>
  <path fill="#101d30" d="M292.2 292.2c-.2 0-.4 0-.6-.1-.2 0-.5 0-.7-.1-.8-.3-.5-1.4-1.1-1.9-.8-.3-1.4 1.1-2.2.8.3-1.9-1.9-3.3-1.1-5.2-1.1-.3-1.4-1.1-1.6-2.2-.3-.3-.8.5-1.1.3-.5-.5 0-1.4-.3-1.9-.5-.8-1.6-1.1-2.5-1.1.3-2.5-1.6-1.4-2.7-3 1.1-.5 1.1-1.9 0-2.5-1.6-.5-3-1.1-4.6-1.6.5-.5 0-.8-.3-1.4-.5.5-.8 1.1-1.6.8.3-.5.5-1.1.3-1.6-1.6-2.2-3.3-3.8-3.8-6.6-.3-.3-.5-.3-1.1-.3 0-.8 1.1-1.4.8-2.2-.3-.3-.8-.5-1.4-.8-1.1-1.4.5-3.3-.8-4.6-2.1-1.8-2.4-4.4-3.7-6.6h.2l2.6 2.3s.5 2 .9 2.4c.4.4 1.3 1.2 1.6 1.9.3.7 0 2.2.3 3.2s1 1.8 1.1 2.4c.1.6-.3 2.3.9 3.9 1.1 1.6 2.4 2.8 2.7 3.3.3.5.5 1.8.5 1.8s3.9.4 6.7 3.7c2.8 3.4 1.8 3.6 1.9 3.7 0 .1 2.1.5 2.4 1.2.3.6 3.9 5.7 3.9 6.2s-.5 1.5 0 1.9c.5.3 2.4.6 2.5 1.5.2.9.6 1.4 1.7 2.4l.2.2Z"/>
  <path fill="#263851" d="M277.3 290c-.5-.5.8-1.1.5-1.6-.8-1.1-2.2-.5-3.3-1.1-1.1-1.1 1.1-1.4 1.1-1.9.3-2.7-4.1-.8-5.7-1.9-.3-.5-.5-1.1-1.1-1.6-1.1-1.4-3.6-1.6-3.6-3.3.3-3.3-.3-6.6-3-8.7-2-2-5.3-1.5-7.7-3.2.6.8 3.3 4.5 3.6 5.1.3.7 3.6 4.8 4.3 6.3.7 1.5 3.1 3.2 3.5 3.8.4.6 2.7 1.9 3.3 2.4.6.5 1.3.8 2.4 2.6 1.1 1.7 3.5 2.7 3.5 2.7s2.1 2.4 2.5 3.4c.1.3.5.5 1 .7.4-1.4.3-2.6-1.4-3.6Z"/>
  <path fill="#3f3f3f" d="M295.4 299.9c-1.3.6-4.6 2.1-4.6 3.5s-.2 1.8-1.2.7c-1.1-1.1-5.1-4.7-5-5.2 0 0-.2 0-.6-.3.2-.9.5-1.8.7-1.9.5-.2.8-2.4 2.1-3.3 1.1-.7 3.8-1.2 4.8-1.3h.4l.2.2c1.2 1 3 2.8 3.2 3.4.3.6.5 1.6.6 2.3.1.7.6 1.5-.7 2.1Z"/>
  <path fill="#232323" d="M295.5 295.6c-.3-.6-2.1-2.4-3.2-3.4l-.2-.2h-.9c.8.8.8 2.2 1.7 3.1h1.1c.8 1.1 1.7 3 2.2 4.1.1 0 0-.9.1-.9 0-.2-.1-.4-.1-.6-.1-.6-.3-1.6-.6-2.3Z"/>
  <path fill="#424344" d="M288.5 299.8c-.5-.5.3-1.6 0-1.6-1.9-.2-3.7-1.4-3.1-2.9-.3.7-.5 1.3-.8 1.4-.3.1-.6 1-.7 1.9.3.2.6.3.6.3 0 .5 4 4.1 5 5.2 1 1.1 1.2.7 1.2-.7 0-.4.3-.8.7-1.2-.2-.3-.3-.7-.4-1.1-.3 0-.7-.1-1-.1.3 0 .6 0 1 .1 0-.4-.1-.8-.1-1.2-.8.3-1.6.3-2.5 0Z"/>
  <path fill="#232323" d="M296.2 299.3s2.3 3.5 1.3 5.2c-1.1 1.7-4.2 2.5-7.1.1-2.9-2.3 4.6-6.5 5.8-5.4Z"/>
  <path fill="#2e2e2f" d="M230 246.9c-.1 0-.2.1-.3.2-.3.2-.6.3-.9.5 0 0-.2.1-.2.2l.2-.2-.5.4c-.7.5-1.4 1-2.2 1.5-.7.4-2.6 1.3-2.9 0-.1-.5.2-.9.6-1.2.6-.4 1.3-.7 2-1 .7-.2 1.3-.4 2-.5.5 0 1-.2 1.5-.1h.5-.3c-.5 0-1 0-1.4.1-.5 0-1 .2-1.5.4-.6.2-1.1.4-1.7.7-.5.3-1.4.6-1.4 1.4.2 1.5 2.9-.4 3.5-.8.9-.6 1.7-1.2 2.6-1.7.1 0 .3-.1.4-.2.2 0 .3.2.1.3Z"/>
  <path fill="#00122e" d="m185.8 289.6-.8.7c-.1.1-.3.2-.4.3-.4.3-.8.5-.9.4-.1-.1 0-.5.5-.9l.4-.4.8-.7.3.3s.2.2.2.3Z"/>
  <path fill="#cc3925" d="M185.9 291.2c-.3.3-.9.1-1.5-.4 0 0-.2-.2-.3-.2 0 0-.2-.2-.2-.3-.4-.6-.6-1.2-.3-1.5.3-.3.9-.1 1.4.3l.3.3s.2.2.2.3c.4.6.5 1.2.3 1.5Z"/>
  <path fill="#f55933" d="M186 291.1c-.3.3-.9.1-1.5-.4 0 0-.2-.2-.3-.2 0 0-.2-.2-.2-.3-.4-.6-.6-1.2-.3-1.5.3-.3.9-.1 1.4.3l.3.3s.2.2.2.3c.4.6.5 1.2.3 1.5Z"/>
  <path fill="#e54c2e" d="M185.8 290.8c-.3.2-.9 0-1.3-.5-.5-.5-.7-1.1-.4-1.4.3-.2.9 0 1.3.5.5.5.7 1.1.4 1.4Z"/>
  <path fill="#cc3925" d="M185.8 290.8c.2-.3 0-.8-.5-1.3-.4-.5-.9-.7-1.2-.5.3-.2.9 0 1.3.5.5.5.7 1.1.4 1.4Z"/>
  <path fill="#00122e" d="m229.2 248.7-43.8 41.4h-.3l-.1-.1-.1-.1v-.3l43.8-41.4c.6-.6 1.2-.9 1.3-.7 0 0 0 .3-.1.5s-.4.5-.7.8Z"/>
  <path fill="#f55933" d="m228.3 250-.5.4c.1.2.1.4 0 .6-.1.1-.4.1-.5 0l-.7.6c-.1.1-.4.1-.5 0l-.6-.6c-.1-.1-.1-.3 0-.5l3.9-3.6v-.2s0-.2.1-.2c.1-.1.4-.1.5 0l1.2 1.2c.1.1.1.4 0 .5h-.4l-.7.6c.1.2.1.4 0 .6-.1.1-.4.1-.5 0l-.5.4c.1.2.1.4 0 .6-.1.1-.4.1-.5 0Z"/>
  <path fill="#fff" d="M227.9 251c-.1.1-.4.1-.5 0l-1.1-1.2.5-.5 1 1.1c.1.2.1.4 0 .6Zm1-.9c-.1.1-.4.1-.5 0l-1-1.2.5-.5 1 1.1c.1.2.1.4 0 .6Zm.9-.9c-.1.1-.4.1-.5 0l-1-1.2.5-.5 1 1.1c.1.2.1.4 0 .6Zm1.3-1.2h-.4l-1.2-1.2v-.2s0-.2.1-.2c.1-.1.4-.1.5 0l1.2 1.2c.1.1.1.4 0 .5Z"/>
  <path fill="#2e2e2f" d="M276.7 249.2h.4c.3 0 .7 0 1 .1h.7c.9 0 1.8 0 2.7.1.8 0 2.9.5 2.3 1.8-.2.5-.7.6-1.2.6-.7 0-1.5-.2-2.2-.4-.7-.2-1.3-.5-2-.8-.4-.2-.9-.4-1.3-.7l-.1-.1-.2-.2s.2 0 .3.1c.4.2.8.5 1.2.7.5.2 1 .5 1.5.6.6.2 1.1.3 1.7.4.6 0 1.5.3 1.9-.3.7-1.3-2.6-1.4-3.2-1.5-1 0-2.1 0-3.1-.2h-.4c-.2 0-.1-.3 0-.3Z"/>
  <path fill="#00122e" d="m278.4 248.2 59.9-7.1c.1 0 .2 0 .2.2v.4c0 .1 0 .2-.2.2l-59.9 7.1c-.8 0-1.5 0-1.5-.2 0-.1.1-.2.4-.3.3 0 .6-.2 1-.2Z"/>
  <path fill="#f55933" d="M279.9 247.6h.6v-.2c0-.2.1-.4.3-.4.2 0 .4.1.4.3h1c.2 0 .4.1.4.3v.8c.1.2 0 .4-.2.4l-5.3.6v.3s-.1.1-.2.1c-.2 0-.4-.1-.4-.3l-.2-1.7c0-.2.1-.4.3-.4.2 0 .3.1.3.3h1v-.2c0-.2.1-.4.3-.4.2 0 .4.1.4.3h.6c0-.3.1-.4.3-.5.2 0 .4.1.4.3Z"/>
  <path fill="#fff" d="M280.8 247.1c.2 0 .4.1.4.3l.2 1.6h-.7l-.2-1.4c0-.3.1-.5.3-.5Zm-1.3.1c.2 0 .4.1.4.3l.2 1.6h-.7l-.2-1.4c0-.3.1-.5.3-.5Zm-1.3.2c.2 0 .4.1.4.3l.2 1.6h-.7l-.2-1.4c0-.3.1-.5.3-.5Zm-1.7.2c.2 0 .3.1.3.3l.2 1.7v.2s-.1.1-.2.1c-.2 0-.4-.1-.4-.3l-.2-1.7c0-.2.1-.4.3-.4Z"/>
  <path fill="#383838" d="M220.1 250.3s-.9 3.1 0 3.9 2.5 2.5 3.1 2.5.9-.4.8-.8c0 0 1.5.4 2.9-1 1.3-1.4 1.4-2 1.4-2s1.7-1.3.5-2.5-3.1-3.6-3.2-3.7l-3.7-.5-1.8 4.1Z"/>
  <path fill="#424344" d="M222.1 248.2c-.2-.4-.3-.9-.5-1.4l-1.5 3.5s-.9 3.1 0 3.9c.8.8 2.4 2.4 3 2.5-1-1.1-1.5-2.7-1.8-3.9-.8-1.6 1.1-3 .8-4.6Z"/>
  <path fill="#232323" d="M228.8 250.4c-1.2-1.2-3.1-3.6-3.2-3.7l-3.7-.5-.2.4c2.6 1.3 5.7 3 7.4 5.4.2-.5.3-1-.3-1.6Zm-4.8 5.5-2.4-2.2s-.5-.3.2.4 2.4 2.5 2.2 1.9Zm2-.6-3.2-2.9s-.6-.4.3.5c.9.9 3.2 3.3 2.9 2.4Zm2.3-2.5-3.2-2.9s-.6-.4.3.5c.9.9 3.2 3.3 2.9 2.4Zm-1.1 1.4-3.2-2.9s-.6-.4.3.5c.9.9 3.2 3.3 2.9 2.4Z"/>
  <path fill="#383838" d="M283.7 241.8s3 1.2 3 2.5.2 3.7-.2 4.1c-.4.4-1 .5-1.2.2 0 0-.7 1.5-2.7 1.7-2 .2-2.5 0-2.5 0s-2.2.6-2.3-1.1c0-1.8-.6-4.9-.6-5l2.2-3.4 4.3 1.1Z"/>
  <path fill="#424344" d="M280.7 242.2c-.2-.4-.5-.8-.8-1.3l3.8 1s3 1.2 3 2.5c0 1.2.2 3.5-.2 4.1-.2-1.5-1.1-3-1.7-4-.7-1.7-3.1-1-4.1-2.3Z"/>
  <path fill="#232323" d="M277.8 249.1c0-1.8-.6-4.9-.6-5l2.2-3.4h.4c-.8 3.1-1.6 6.7-.9 9.6-.5 0-1-.4-1-1.2Zm7.5-.4v-3.4.4c0 1 .3 3.7 0 3Zm-1.9 1.3v-4.5s0-.8.1.5c0 1.3.3 4.8-.1 4Zm-3.5.3v-4.5s0-.8.1.5c0 1.3.3 4.8-.1 4Zm1.8 0v-4.5s0-.8.1.5c0 1.3.3 4.8-.1 4Z"/>
  <path fill="#a02d2d" d="M282.2 239.7c-1.4-.3-2.7-3.9-3-5.3-.3-1.4-4.6-5.9-4.6-5.9L263 213.7l-8.4-4.5-1.5-.3-.9-5s1.8 11.4-6.4 8c-8.2-3.5-4.9-10-4.9-10s-.4 0-1 .9-1.4 5.3-1.9 6.5c-.5 1.2-8.7 4.4-8.8 5.3-.1.8-9.5 11.9-10.4 13.9-.9 2.1-2.1 2.7-1.5 4.2.6 1.5-1.8 4.3-2.3 5.9-.4 1.6 2.5 7.2 2.5 7.2s-.5 1.6-.4 3c0 1.4 1.6-.1 1.6 1.1 0 1.2 1.1 1.2 1.1 1.2s.7-1.2 2.1-3.3c1.4-2.1 5.4 1 5.4 1s-.3-2.5 0-3.4c.3-.8-1-3.2-.3-3.3.7-.1.6-.7.2-1.8-.4-1.1 0-1.3 0-1.3l4.9-7.4s0 3.2-3 5.6c-3.1 2.4.5 5.7-.5 9.3-1 3.6 1.4 3.2 2.1 6 .6 2.8.9 7.9 2.3 5.7 2.1-3.4 1.7-5.3 4.9-7.5 3.2-2.3 6.4 1 10.5 1.6 4 .6 16.5 0 16.5 0s0-.4-1-2.7c-1-2.3.3-6.9.2-8.8 0-1.8-3.1-6.4-2.9-7.6.1-1.2-1.5-4.2-.7-4s4.2 4.4 4.6 6.9c.4 2.5 6.2 5.6 7.7 7.8 1.6 2.2 5 4.2 5 4.2V247c.3-1.8.9-3.2 2.1-4.3.8-.7 1.8-1.2 2.8-1.3 0 0 .8-1.6-.5-1.8Z"/>
  <path fill="#a02d2d" d="M282.2 239.7c-1.4-.3-2.7-3.9-3-5.3-.3-1.4-4.6-5.9-4.6-5.9L263 213.7l-8.4-4.5-1.5-.3-.9-5s1.8 11.4-6.4 8c-8.2-3.5-4.9-10-4.9-10s-.4 0-1 .9-1.4 5.3-1.9 6.5c-.5 1.2-8.7 4.4-8.8 5.3-.1.8-9.5 11.9-10.4 13.9-.9 2.1-2.1 2.7-1.5 4.2.6 1.5-1.8 4.3-2.3 5.9-.4 1.6 2.5 7.2 2.5 7.2s-.5 1.6-.4 3c0 1.4 1.6-.1 1.6 1.1 0 1.2 1.1 1.2 1.1 1.2s.7-1.2 2.1-3.3c1.4-2.1 5.4 1 5.4 1s-.3-2.5 0-3.4c.3-.8-1-3.2-.3-3.3.7-.1.6-.7.2-1.8-.4-1.1 0-1.3 0-1.3l4.9-7.4s0 3.2-3 5.6c-3.1 2.4.5 5.7-.5 9.3-1 3.6 1.4 3.2 2.1 6 .6 2.8.9 7.9 2.3 5.7 2.1-3.4 1.7-5.3 4.9-7.5 3.2-2.3 6.4 1 10.5 1.6 1.2.2 3 .3 5.1.3 1-.3 2.1-.5 2.6-1 1.2-2.4-3-4.8-1.8-6.1 1.2-1.8 8.5-.6 6.7-4.8 0-.6-2.4 1.2-4.2.6-.6 0-.6-1.8-.6-1.8 7.9-2.4-1.8-9.7 1.2-13.3 1.2-1.8 6.1-.6 7.9 2.4 1.7 4.7 3.1 10 6.3 14 .6.5 1.1 1 1.4 1.4 0 .1.2.3.3.4 1.7 2 4.7 3.9 4.7 3.9v-1.1c.3-1.8.9-3.2 2.1-4.3.8-.7 1.8-1.2 2.8-1.3 0 0 .8-1.6-.5-1.8Z"/>
  <path fill="#182742" d="M252.3 211.7c.5-.9.8-1.8 1.1-2.7h-.3l-.9-5.1s1.8 11.4-6.4 8c-8.2-3.5-4.9-10-4.9-10s-.4 0-1 .9c-.5.8-1.3 4.6-1.7 6.1 3.5 4.7 10.4 7.8 14.2 2.8Z"/>
  <path fill="#7f1f1f" d="M237.8 229.3c-3.6-.6-6.1 1.8-7.9 4.8-.6.6-1.8 0-2.4-.6 0 1.2.6 3 0 4.2-1.2.6-3 0-4.8-.6 0 2.4 3.6 1.8 3.6 4.2-.6 1.2-1.8 0-2.4 0 1.7 1.7 4 4.5 2.7 6.9.5.3.7.5.7.5s-.3-2.5 0-3.4c.3-.8-1-3.2-.3-3.3.7-.1.6-.7.2-1.8-.4-1.1 0-1.3 0-1.3l4.9-7.4s0 .5-.2 1.3c1.5-1.7 4.5-1.8 5.9-3.6Zm22.4-4.3c-3 3.6 3.7 12.2-4.2 14.6 0 0 0 1.8.6 1.8 1.8.6 4.2-1.2 4.2-.6 1.8 4.2-5.5 3-6.7 4.8-1.2 1.2 3 3.6 1.8 6.1-.5.5-1.5.7-2.6 1 5.1 0 11.5-.3 11.5-.3s0-.4-1-2.7c-1-2.3.3-6.9.2-8.8 0-1.8-3.1-6.4-2.9-7.6.1-1.2-1.5-4.2-.7-4s4.2 4.4 4.6 6.9c.3 2 4.1 4.4 6.4 6.4-4.6-5.5-5.4-13.5-8-13.9-2.6-.4-2-5.6-3.2-3.7Z"/>
  <path fill="#c44141" d="M238 209.3c-.5 1.2-8.7 4.4-8.8 5.3-.1.8-9.5 11.9-10.4 13.9-.9 2.1-2.1 2.7-1.5 4.2.6 1.5-1.8 4.3-2.3 5.9-.4 1.6 2.5 7.2 2.5 7.2s-.5 1.6-.4 3c0 1.4 1.6-.1 1.6 1.1 0 .3 0 .5.2.7 1.6-1.1 2.7-3 2.1-4.9-.5-1.1-1.9-1.9-2.5-2.7-1.1-1.4 1.1-2.2 1.4-3 .8-3.8-3-7.7-.5-11.5 1.1-1.6 2.5-3.8 4.9-3 0-.5-.3-1.4 0-1.4 1.1-.5 1.4-1.6 1.9-1.9 2.2-1.6 1.9-3 2.7-5.2.3-.8 1.1-.3 1.4.8.5-.3 1.1-.8 1.4-1.4.3 1.1-.3 2.2-.3 3.3.8-3.8 5.2-7.9 9.3-6.6.2.2 0-.9.5-1.2 0 0-1.4-.6-2.9-3.6-.1.4-.2.7-.3.9Z"/>
  <path fill="#243a5b" d="M244.6 211.3c-6.7-3.6-3.8-9.4-3.8-9.4s-.4 0-1 .9c-.3.5-1.2 4.1-1.6 5.6.8 1.9 1.7 2.7 2.9 3.6l.3-.1c1.2 0 2.3-.1 3.1-.5Z"/>
  <path fill="#dba37d" d="M245.6 206.3h1.9c.6.2.9 0 1.1 0 .2 0 1 .2 1 .2s-.9.5-1.7.5c-.8 0-1.5-.2-2.4-.7Z"/>
  <path fill="none" stroke="#2d0604" stroke-miterlimit="10" d="M247.6 213.9s-1.8 12.8.5 14.3 0 4.1-.7 6.4c-.8 2.4.8 6.7 2.1 8.7 2.1 3.4-.7 3.2-1.9 4.6-2.8 3.2 1.5 5 1.5 5"/>
  <rect width="3.7" height="18.1" x="208.8" y="301.9" fill="#fff" rx="1.8" ry="1.8"/>
  <path fill="url(#b)" d="M334.5 151.2c-2.3 0-3.8-.7-4.8-1.2-1.4-.9-1.7-1.6-3.1-2.1-2.1-.8-3.5 0-3.9-.6-.3-.4 0-1.4 2.2-3.8-3.3 2.2-7.1 4-11.4 5.1-6.7 1.6-8.1-.1-16.8 1.6-4.1.8-4.9 1.4-12.3 3.1-3.3.7-6 1.3-7.9 1.6 7-5.8 8.6-7.2 8.5-7.3-.1-.1-4.2 5.2-9.7 5.3-1.7 0-4.3-.5-5.6 1-.6.7-.6 1.4-1.2 1.6-1.4.4-3.4-2.4-3.6-2.3-.1 0 2.2 2 1.8 3.3-.3.9-2.4 1.4-6.6 2.2-1.3.3-2.9.5-2.9 1.1 0 .4.9.5 1.1 1.1.3 1.3-3.5 3.8-5.1 2.9-.7-.4-.5-1.3-1.2-1.7-1.6-1-5.3 1.3-5.1 2.2.1.5 1.7.2 2 1 .3.8-.9 2.4-2.3 2.6-1.4.2-1.7-1.3-3.4-1.9-2.4-.7-3.2 1.7-7.8 2.6-2.8.5-4 0-5.3 1.2-1.1 1-1.1 2.1-2.2 2.5-1.1.4-1.8-.3-3.3-.8-2.8-1-5.5 0-7.8.7-2.5.8-4.1 1.4-5.5 2.9-.6.7-1 1.4-1.9 1.7-1.3.3-2.6-.7-3-1-2.9-2-9.5 1.3-17.6 5-10 4.5-15 6.7-16.8 7.1-2.5.5-5.3.9-7.5 3.1-2 2.1-2.2 4.3-4.2 4.9-1.9.5-4.3-.6-4.5-1.7-.2-1.6 4-1.6 7.9-5.8 2.6-2.9 2.7-5.1 5.4-6 1.4-.4 3.3-.4 3.5-1.4.2-.6-.4-.9-.3-1.6.2-1 1.5-.9 3.2-2.2 1.3-1 1-1.3 2-1.9 1.8-1.1 3.5-.2 4-1 .4-.7-.6-1.9-.7-2-1.3-1.6-3.1-.9-4.1-2.2-.9-1.2-.3-3.2.2-4.2.8-1.6 2.1-2 1.9-2.4-.2-.6-3.1-.6-5.4.8-1.3.8-2 1.7-2.5 2.3-3.7 4.4-11.7 4.1-11.7 4.3 0 .2 6-.5 6.1-.2 0 .3-4.4.4-9.4 3-1.7.9-3.7 2.2-6.5 2.7-1.1.2-2.1.4-3.4 0-1.2-.3-1.6-.9-2.5-.8-1.2 0-1.5 1.1-2.6 1.6-1.9.9-3-1-6-1-3.2 0-5.2 2.1-6.2 1.1-.6-.6-.1-1.7-.7-2-1.1-.6-3.8 2.9-4.2 2.6-.3-.2.6-2.2 2.1-4.2 4.9-6.2 13.1-7.3 13-7.5 0-.1-5 .6-11.9 3.4-4.3 1.8-4.7 2.5-7.2 2.8-5.2.7-9-1.5-10.4-2.3-.7-.4-3.9-2.3-3.6-3.6.3-1.2 3.4-.6 5.8-3 .7-.7 1.6-1.9 1.3-2.5-.4-.6-2.6.1-3 .2-2.7.9-3.7 2.5-4.5 2.1-.8-.4 0-2.2-.8-2.7-1.2-.8-4.3 2.4-5 1.8-.4-.3.7-1.6.2-2.2-.7-.9-4.1.3-4.2.4-1.7.7-1.9 1.2-2.8 1.1-1.2-.1-1.4-1.2-2.8-1.4-1-.1-2.2.4-2.3.9 0 .7 2 1.2 1.9 1.8 0 .2-.3.6-5.9.9-1.8 0-2.3 0-2.9.5-1.7 1.1-1.9 3.6-2.1 3.5-.2 0 .5-1.7-.2-2.8-.7-1-2.5-1.3-3.8-1-2 .5-2.9 2.2-3.6 1.8-.5-.3-.1-1-.7-1.5-.8-.7-2.5-.3-3.6.6-1 .9-.7 1.7-1.5 2.5-1.7 1.9-5.8 1.2-6 .4-.2-.7 2.7-1 3.8-3.5.7-1.7-.2-2.3.5-3.5 1.4-2.6 6.2-1.4 7.1-3.7.3-.7-.1-.8 0-2.1.2-2.9 1.9-4.8 1.8-4.9-.1 0-1.2 1.6-3.3 3.2-1.4 1.1-2 1.6-2.7 1.4-1.5-.4-.9-3.8-3.1-5-1.2-.6-2.4-.2-2.6-.8-.3-.9 1.5-2.1 1.2-2.5-.3-.6-3.3 1.1-4.1.2-.8-.9 1.8-3.4.8-5.2-.5-.9-1.7-1.3-2.2-1-.6.5.8 2.4 0 3.5-.8 1.2-3.2-.2-5.1 1.1-1.6 1.2-1.3 3.3-2.3 3.4-.9.1-2.1-1.4-1.8-2.3.3-1 2.1-.7 2.6-1.8.4-1-.6-1.7-.2-2.6.6-1.4 3.6-.9 3.6-1.4 0-.6-4.2-2.4-5.4-1-.8.9.3 2.3-.6 3.3-.6.7-1.5.4-4.3.6-3.1.2-4.7.7-5 .1-.2-.6 1.5-1.4 1.3-2.3-.1-.4-.7-.8-3.6-1.2-3.3-.5-4.5-.4-4.7-.8-.2-.8 3.6-2.4 3.6-2.6-.1-.3-9.3 3.5-9.4 3.1-.2-.3 7.7-4.1 7.6-4.5-.2-.3-9.6.9-17.6 6.8-1.4 1-4.6 3.6-6.4 2.6-1-.6-.8-1.8-1.7-2.5-.9-.7-2.9-.9-7.5 1.7C0 96.4 0 48.8 0 1.2h335.1c-.2 50-.4 100-.5 150Z"/>
  <path fill="#0149a9" d="M104.4 172.4c-4.4 0-7.9 3.5-7.9 7.9s.6 3.4 1.5 4.7l6.4 11 6.4-11c1-1.3 1.5-2.9 1.5-4.7 0-4.4-3.5-7.9-7.9-7.9Zm0 11.5c-1.9 0-3.5-1.6-3.5-3.5s1.6-3.5 3.5-3.5 3.5 1.6 3.5 3.5-1.6 3.5-3.5 3.5ZM1.1 299.9h288.4c12.1 0 21.9 9.8 21.9 21.9H1.1v-21.9Z"/>
  <rect width="3.7" height="18.1" x="136.7" y="301.9" fill="#fff" rx="1.8" ry="1.8"/>
  <rect width="3.7" height="18.1" x="220.8" y="301.9" fill="#fff" rx="1.8" ry="1.8"/>
  <path fill="#0149a9" d="M272.9 261h62.5v23.3h-85.8c0-12.9 10.4-23.3 23.3-23.3Z"/>
  <g fill="#fff" data-name="PRINT">
    <path d="M29.6 13.9c0 .5-.2 1-.6 1.4l-6.3 6.3-6.8-3.9v-3.8c0-1.1.9-2 2-2s2 .9 2 2v4.9l6.3-6.3c.8-.8 2.1-.8 2.8 0 .4.4.6.9.6 1.4ZM29 31.7c-.4.4-.9.6-1.4.6s-.5 0-.8-.2c-.2-.1-.5-.3-.6-.4l-2.1-2.1-4.1-4.1v4.9c0 1.1-.9 2-2 2s-2-.9-2-2v-3.8l6.8-3.9 4.2 4.2 2.1 2.1c.8.8.8 2.1 0 2.8ZM22.4 22s0-.2-.2-.2l-1.7-1-4.6-2.6L12 16c-.2-.1-.5 0-.6.2v11.9c0 .3.2.5.5.5h.2l3.9-2.2 6.3-3.6s0-.1.1-.2v-.3Zm-9.6-4.7 3 1.7 4.9 2.8s.1 0 .1.1v.3s0 .2-.2.2l-4.9 2.8-3 1.7c-.2 0-.4 0-.5-.1v-9.3c0-.2.2-.3.3-.3h.2Z"/>
    <path d="M19.5 22.2s0 .1-.1.2l-3.7 2.1-2.3 1.3H13v-6.9c0-.1.1-.3.3-.3h.1l2.3 1.3 3.7 2.1s.1 0 .1.2v.1Zm43-.6-5.6-2.8-3.4-1.7c-.2-.1-.4 0-.5.2v9.5c.1.2.3.4.6.4h.4l3.2-1.8 2-1.1 3.5-1.9s.2-.1.2-.2V22s-.1-.2-.2-.2Zm-5.6 2.8-2.6 1.4c-.2 0-.3 0-.4-.1v-7.3c0-.2 0-.3.2-.3h.1l2.7 1.3 1 .5 3.4 1.7s.1 0 .2.2v.2s0 .1-.1.1l-4.3 2.3Z"/>
    <path d="m60.1 22-.1.1-3.2 1.7-2 1.1h-.3v-5.4c0-.1 0-.2.2-.2l2 1 3.3 1.6.1.1v.1Zm-21.6-4.8h-4.9v9.7H36v-3.2h2.5c2.3 0 4.1-1.4 4-3.4 0-1.9-1.8-3.2-4.1-3.2Zm-.2 4.6H36v-2.7h2.3c1.1 0 1.9.5 1.9 1.3s-.8 1.4-1.9 1.4ZM51.8 27l-7.7.1-.2-9.7h2.4l.1 7.8 5.3-.1.1 1.9zm15.7-3.7.1 3.5h-2.4v-3.5l-4.3-6.1 2.7-.1 2.7 4.2 2.8-4.2 2.6-.1-4.2 6.3zm14.4 3.9-1.6.1-4.1-4.5-1.7 1.6v2.9h-1.2l-.1-9.6h1.2l.1 5.3 5.4-5.4h1.6L77 22.1l4.9 5.1zm6.1-9.9c-3 0-5.5 2.3-5.5 5.1 0 2.7 2.6 5 5.6 4.9 3 0 5.5-2.4 5.5-5.1 0-2.7-2.6-5-5.6-4.9Zm.4 9c-2.4.2-4.4-1.6-4.6-3.9a4.27 4.27 0 0 1 8.5-.1 4.2 4.2 0 0 1-3.9 4Zm14.8-1.8c0 1.5-1.2 2.8-3.8 2.8-1.6 0-3.1-.5-4.3-1.5l.8-.9c1 .9 2.2 1.4 3.5 1.4 1.7 0 2.5-.9 2.5-1.7 0-1-1-1.4-2.9-1.8-2.2-.4-3.5-1-3.6-2.7 0-1.5 1.5-2.8 3.6-2.8 1.4 0 2.7.4 3.8 1.3l-.7.9c-.9-.8-2-1.2-3.1-1.2-1.3 0-2.3.8-2.3 1.7 0 1 1.1 1.3 2.9 1.7 2.1.4 3.5 1.1 3.6 2.8Zm12.8 2.7h-1.2l-.1-7.3-3.9 6.8-4.1-6.7.1 7.3-1.3.1-.1-9.7h1.3l4 6.7 4-6.8h1.2l.1 9.6zm7.7-9.9c-3 0-5.5 2.3-5.5 5.1 0 2.7 2.6 5 5.6 4.9 3 0 5.5-2.4 5.5-5.1 0-2.7-2.6-5-5.6-4.9Zm.4 9c-2.4.2-4.4-1.6-4.6-3.9a4.27 4.27 0 0 1 8.5-.1 4.2 4.2 0 0 1-3.9 4Zm14.8-1.8c0 1.5-1.3 2.8-3.8 2.8-1.5 0-2.9-.4-4.1-1.3l-.2-.2.8-.9c.2.2.3.3.5.4.9.6 1.9 1 3 .9 1.7 0 2.5-.9 2.5-1.7 0-.8-.6-1.2-1.6-1.5-.3-.1-.7-.2-1.2-.3h-.2c-2.2-.4-3.5-1-3.6-2.7 0-1.5 1.5-2.8 3.6-2.8 1.4 0 2.7.4 3.8 1.3l-.7.9c-.9-.8-2-1.2-3.1-1.2-1.3 0-2.3.8-2.3 1.7 0 1 1.1 1.3 2.9 1.7.4 0 .8.2 1.1.3.4.1.7.2 1 .4.9.4 1.5 1.1 1.5 2.1Z"/>
  </g>
  <circle cx="68.5" cy="134" r="4.6" fill="url(#a)"/>
  <circle cx="70.1" cy="128.8" r=".7" fill="url(#c)"/>
  <circle cx="71.7" cy="129.4" r=".5" fill="url(#d)"/>
  <circle cx="69.3" cy="127.8" r=".4" fill="url(#e)"/>
  <circle cx="65.3" cy="129.7" r=".4" fill="url(#f)"/>
  <circle cx="68.5" cy="110.2" r="4.6" fill="url(#g)"/>
  <circle cx="70.1" cy="105.1" r=".7" fill="url(#h)"/>
  <circle cx="71.7" cy="105.7" r=".5" fill="url(#i)"/>
  <circle cx="69.3" cy="104" r=".4" fill="url(#j)"/>
  <circle cx="65.3" cy="106" r=".4" fill="url(#k)"/>
</svg>
