<svg xmlns="http://www.w3.org/2000/svg" xmlns:xlink="http://www.w3.org/1999/xlink" width="335" height="335" data-name="Layer 1"><defs><linearGradient id="a" x1="175.8" x2="180.71" y1="157.29" y2="287.97" gradientTransform="matrix(1 0 0 -1 0 335)" gradientUnits="userSpaceOnUse"><stop offset="0" stop-color="#022e31"/><stop offset="1" stop-color="#001f21"/></linearGradient><linearGradient xlink:href="#a" id="f" x1="139.78" x2="143.63" y1="135.06" y2="237.46"/><linearGradient xlink:href="#a" id="g" x1="213.94" x2="217.15" y1="148.9" y2="234.43"/><linearGradient id="b" x1="53.22" x2="206.21" y1="57.34" y2="57.34" gradientTransform="matrix(1 0 0 -1 0 335)" gradientUnits="userSpaceOnUse"><stop offset="0" stop-color="#b2360b"/><stop offset="1" stop-color="#db490f"/></linearGradient><linearGradient xlink:href="#b" id="h" x1="40.7" x2="196.16" y1="61.13" y2="61.13"/><linearGradient id="c" x1="97.61" x2="240.77" y1="156.15" y2="119.34" gradientTransform="matrix(1 0 0 -1 0 335)" gradientUnits="userSpaceOnUse"><stop offset="0" stop-color="#e88d0a"/><stop offset="1" stop-color="#db490f"/></linearGradient><linearGradient xlink:href="#b" id="i" x1="227.24" x2="181.84" y1="106.06" y2="143.69"/><linearGradient id="d" x1="126.05" x2="165" y1="129.52" y2="126.15" gradientTransform="matrix(1 0 0 -1 0 335)" gradientUnits="userSpaceOnUse"><stop offset="0" stop-color="#bc5e11"/><stop offset="1" stop-color="#db490f"/></linearGradient><linearGradient xlink:href="#c" id="j" x1="208.49" x2="180.88" y1="172.7" y2="162.27"/><linearGradient id="k" x1="142.69" x2="170.5" y1="148.85" y2="176.25" gradientTransform="matrix(1 0 0 -1 0 335)" gradientUnits="userSpaceOnUse"><stop offset="0" stop-color="#e88d0a"/><stop offset="1" stop-color="#ffac3e"/></linearGradient><linearGradient xlink:href="#d" id="l" x1="143.28" x2="168.79" y1="158.39" y2="158.39"/><linearGradient id="m" x1="136.11" x2="162.49" y1="187.4" y2="170.84" gradientTransform="matrix(1 0 0 -1 0 335)" gradientUnits="userSpaceOnUse"><stop offset="0" stop-color="#39b4ff"/><stop offset="1" stop-color="#2c88db"/></linearGradient><linearGradient xlink:href="#c" id="n" x1="172.83" x2="79.98" y1="79.13" y2="39.45"/><linearGradient xlink:href="#c" id="o" x1="167.22" x2="43.7" y1="76.31" y2="39.91"/><radialGradient id="e" cx="167.5" cy="167.5" r="167.5" fx="167.5" fy="167.5" gradientUnits="userSpaceOnUse"><stop offset="0" stop-color="#0297cf"/><stop offset=".96" stop-color="#006788"/><stop offset="1" stop-color="#006788"/></radialGradient><radialGradient xlink:href="#e" id="p" cx="61.28" cy="308.73" r="9.66" fx="61.28" fy="308.73"/><radialGradient xlink:href="#e" id="q" cx="69.89" cy="300.18" r="2.89" fx="69.89" fy="300.18" gradientTransform="rotate(-45 70.54 299.52)"/><radialGradient xlink:href="#e" id="r" cx="64.74" cy="305.33" r="5.95" fx="64.74" fy="305.33"/></defs><path fill="#f0f8ff" d="M0 0h335v335H0z"/><path fill="#8ab0df" d="M67.22 189.11c87.53-134.98 178.1-102.01 190.83-58.7 8.59 29.24-4.5 50.73-14.72 68.72-10.22 17.99 20.24 13.09 25.15-11.25s53.38 0 7.37 64.82c-62.86 88.54-308.68 90.67-208.63-63.6Z"/><path fill="#47678d" d="M179.92 144.1c37.64-29.05 90.07-35.77 75.49 31.39 5.14-12.87 7.78-27.59 2.63-45.11-12.71-43.31-103.28-76.28-190.81 58.7-20.63 31.8-26.56 56.97-22.4 76.09 7.35-13.3 19.38-32.93 35.29-51.54 27.61-32.3 20.05 33.55 25.36 31.3 5.29-2.25 36.78-71.79 74.42-100.83Z"/><path fill="#8ab0df" d="M78.68 155.97c-3.06 6.75-11.87 4.09-7.78-4.09 4.09-8.18 10.84-2.66 7.78 4.09ZM95.86 141.25c-1.84 6.75-7.97 4.71-6.75-.41s8.59-6.34 6.75.41ZM270.27 150.46c-3.52-9.48-.07-23.14 5.65-12.2 5.72 10.94-3.16 18.93-5.65 12.2Z"/><path fill="#c0e0ff" d="M144.74 240.84c-63.22 29.5-86.5 48.67-57.33 65.9 31.59 10.58 75.28 8.3 114.02-4.52a708.29 708.29 0 0 0 33.07-14.36c14.6-8.09 27.33-17.97 36.92-29.48 13.3-30.56-53.58-51.66-126.68-17.54Z"/><path fill="#47678d" d="M101.98 306.69s-4.71 1.44-9.4 5.93c-5.79 5.55-13.85-1.48-6.96-6.99 8.4-6.72 16.37 1.05 16.37 1.05ZM48.41 304.4s-3.8-.77-7.82-3.92c-4.98-3.9-10.74 2.23-4.93 6.01 7.08 4.62 12.75-2.08 12.75-2.08Z"/><path fill="#8ab0df" d="M161.61 255.51s48.17-12.61 60.85-17.11-8.38 11.46-36.8 25.56c-28.43 14.09-34.98 16.37-42.14 19.84-7.15 3.47 16.97-3.88 23.71-5.93 6.75-2.03 1.44 2.03-27.81 13.09-29.24 11.05-59.99 12.73-59.99 12.73s66.95-33.33 82.89-39.79c15.94-6.46-.72-8.37-.72-8.37"/><path fill="#021013" d="m223.04 181.64-17.88-3.08 16.16-6.73-1.34-7.63h-16.87l15.38-8.47-2.73-15.44h-12.65l11.58-6.1-1.8-10.29h-9.78l8.95-4.74-8.36-47.54-4.69 1.7 3.69-7.37-.34-1.87-4.71 1.05 3.97-5.31-5-28.52-6.6 37.71 4.21 3.64-4.6-1.46-.93 5.45 3.47 4.88-4.16-.95-4.53 25.89 10.75 5.14 2.03 7.52-13.95-5.91-3.54 20.24 11.34 5.48-12.03-1.51-2.47 13.98 14.5 15.55-15.81-7.92-7.06 40.37 22.54 23.93h15.02l20.51-28.72-2.27-12.97z"/><path fill="#021013" d="M190.81 231.63s4.79-143 4.79-150.61 2.06-11.13 2.06 0-.69 150.61-.69 150.61h-6.15Z"/><path fill="url(#a)" d="m204.76 172.26-19.62-3.37 17.73-7.4-1.49-8.35h-18.49l16.87-9.31-3-16.94h-13.87l12.7-6.7-1.98-11.29h-10.72l9.81-5.19-9.17-52.17-5.14 1.87 4.04-8.11-.36-2.04-5.19 1.15 4.38-5.84-5.5-31.27-7.23 41.37 4.59 4-5.02-1.61-1.05 5.99 3.82 5.36-4.57-1.06-4.95 28.41 11.77 5.64 2.25 8.26-15.34-6.51-3.87 22.23 12.46 6.01-13.23-1.66-2.68 15.37 15.91 17.03-17.37-8.68-7.75 44.31 24.77 26.25h16.48l22.5-31.51-2.49-14.24z"/><path fill="#021013" d="M169.39 227.13s5.24-156.92 5.24-165.27 2.25-12.23 2.25 0-.74 165.27-.74 165.27h-6.75Z"/><path fill="url(#f)" d="m162.45 195.69-15.36-2.66 13.88-5.79-1.15-6.56h-14.5l13.23-7.29-2.34-13.26h-10.89l9.98-5.26-1.58-8.86h-8.4l7.7-4.07-7.2-40.87-4.02 1.46 3.16-6.36-.26-1.6-4.07.9 3.42-4.57-4.31-24.5-5.67 32.42 3.62 3.12-3.95-1.25-.82 4.69 2.99 4.21-3.58-.83-3.88 22.25 9.24 4.43 1.74 6.46-12.01-5.08-3.04 17.42 9.76 4.69-10.36-1.29-2.1 12.04 12.46 13.35-13.61-6.8-6.06 34.72 19.39 20.56h12.92l17.63-24.67-1.96-11.15z"/><path fill="#021013" d="M134.74 261.18s4.12-143.38 4.12-151.01 1.77-11.17 1.77 0-.6 151.01-.6 151.01h-5.29Z"/><path fill="url(#g)" d="m232.87 182.55-12.82-2.22 11.6-4.84-.98-5.48h-12.11l11.06-6.08-1.96-11.1h-9.1l8.33-4.38-1.29-7.39h-7.04l6.44-3.4-6.01-34.14-3.37 1.22 2.66-5.32-.24-1.34-3.4.77 2.87-3.83-3.61-20.46-4.74 27.06 3.01 2.64-3.27-1.06-.7 3.93 2.51 3.49-2.99-.69-3.25 18.61 7.7 3.69 1.49 5.38-10.03-4.23-2.56 14.55 8.16 3.92-8.66-1.08-1.75 10.05 10.41 11.15-11.36-5.67-5.08 29.01 16.2 17.18h10.79l14.74-20.63-1.65-9.31z"/><path fill="#021013" d="M209.73 237.28s3.45-119.76 3.45-126.15 1.48-9.33 1.48 0-.5 126.15-.5 126.15h-4.43Z"/><path fill="url(#b)" d="M53.22 299.13s.19 5.84 8.78 7.47 40.89-11.65 61.97-20.24 80.16-34.77 81.6-35.58c1.44-.81 0-2.18 0-2.18s-18.07 8.52-30.51 11.89c-12.44 3.37-71.36 28.74-91.38 36.51-20.03 7.75-30.46 2.13-30.46 2.13Z"/><path fill="url(#h)" d="M40.7 290.83s-.12 5.84 8.38 7.94c8.49 2.11 41.47-9.4 62.98-16.82s81.96-30.34 83.42-31.06c1.48-.74.12-2.18.12-2.18s-18.5 7.51-31.11 10.22c-12.61 2.68-72.81 24.79-93.25 31.44-20.44 6.63-30.53.45-30.53.45Z"/><path fill="#0f2b44" d="M166.11 210.26s-12.68 12.87-15.34 18.62c-2.66 5.72-5.93 12.28-5.93 12.28s-1.84 0-3.06 1.84-2.03 5.72-2.03 5.72-2.46 2.66-3.88 4.71c-1.44 2.03-2.66 5.31-3.88 8.18 1.84 6.53 11.25 7.97 11.25 7.97s7.56-9.62 8.59-10.84c1.03-1.22.24-5.38.24-5.38l39.22-41.04-25.17-2.06Z"/><path fill="#0a1e2d" d="M97.39 232.97s1.44 34.77 1.44 35.8 1.03 1.44 1.03 0v-34.55l-2.46-1.24Z"/><path fill="url(#c)" d="M147.5 172.02c-4.71 1.44-8.59 2.87-15.55 12.68-8.59 9.81-9.4 9.81-10.84 11.65s-1.63 3.69-1.63 3.69-4.28 4.28-6.53 7.78c-2.25 3.47-2.87 5.72-2.87 5.72l7.37 9s4.09-2.25 9.62-6.13c5.53-3.88 6.34-6.13 6.34-6.13s1.03 0 6.13-3.69a157.2 157.2 0 0 0 9.4-7.37s12.68 9 17.18 11.06c12.68.41 25.15 2.03 25.15 2.03s11.25 5.93 17.8 16.97c3.06-.81 8.59-5.12 10.62-7.97 2.03-2.87 1.63-9 1.63-9s1.84-3.88 2.46-6.53-.22-4.5-8.38-15.74c-8.16-11.25-14.72-16.97-14.72-16.97s-1.63-3.88-3.69-6.53c-2.03-2.66-17.18-3.28-17.18-3.28l-19.84 8.18-12.49.57Z"/><path fill="url(#i)" d="M178.99 190.83c1.77.79 12.28 6.96 12.28 6.96s12.87 9.4 16.77 10.62a12.13 12.13 0 0 1 5.72-5.31c1.63-.81-2.87 2.46-4.09 6.75a24.26 24.26 0 0 1-.62 4.28s3.28 7.97 2.25 10.03-11.25-2.87-11.25-2.87 4.71-3.47 6.13-5.53c1.44-2.03-3.88 2.46-10.43.62-6.53-1.84-4.5-4.09-4.5-4.09s7.15 1.63 13.71-1.44c-12.87-5.91-29.65-21.66-25.96-20.03Z"/><path fill="#ffcd03" d="M122.18 207.22c.1.19.17.34.26.48.6.91.33.5-.26-.48Z"/><path fill="#ffac3e" d="M119.79 203.01a57.54 57.54 0 0 0 2.39 4.21 9.65 9.65 0 0 1 2.73-10.96c4.5-3.88 9.62-14.72 18.5-19.62 3.06-1.7 2.85-2.85 1.24-3.64-3.59 1.41-7.18 3.92-12.68 11.73-8.59 9.81-9.4 9.81-10.84 11.65s-1.63 3.69-1.63 3.69-4.28 4.28-6.53 7.78c-2.25 3.47-2.87 5.72-2.87 5.72s5.6-8.3 9.69-10.55Z"/><path fill="url(#d)" d="M143.4 189.42c.22 1.84 1.84 6.53 1.63 6.96-.22.41-10.84 10.22-12.28 9.4s-4.09-6.13-4.28-4.91 1.03 4.91 1.03 6.13-.41 2.03-4.28 5.93c-3.88 3.88-7.56 5.03-7.56 5.03s.48 1.63-1.17 3.4l.98 1.2s4.09-2.25 9.62-6.13 6.34-6.13 6.34-6.13 1.03 0 6.13-3.69a157.2 157.2 0 0 0 9.4-7.37s12.68 9 17.18 11.06c2.61.1 5.19.22 7.66.38-6.65-6.77-11.96-2.85-19.53-8.76-7.59-5.98-11.05-14.36-10.86-12.51Z"/><path fill="url(#j)" d="M168.79 175.52c-2.27 3.69-2.08 8.59-3.71 11.84s3.28-2.87 6.34-7.78 6.75-2.03 12.87-6.53 8.18-4.71 10.62-5.31q-.81-1.84-14-4.5c-12.28 5.31-12.13 12.28-12.13 12.28Z"/><path fill="#193f68" d="M110.07 212.96s10.03.38 7.97 11.63c-3.47 3.06-5.53 3.28-5.53 3.28s-2.87 3.06-4.28 3.69c-1.44.62-2.66-.62-2.66-.62s-2.66 3.28-4.91 4.09-3.28-.81-3.28-.81c-1.84 1.03-3.88-1.03-4.28-3.47-.41-2.46-1.44-5.12 3.28-8.38 4.71-3.25 6.96-1.03 6.96-1.03s2.85-4.67 6.72-8.38Z"/><path fill="url(#k)" d="M163.24 148.72s11.87 1.22 13.9 2.46c2.03 1.22 2.03 3.47 2.03 3.47s2.46 1.84 2.25 6.75c-.22 4.91-8.59 6.53-13.71 15.96-5.12 9.4-11.99 8.57-16.15 9.21-4.09.62-4.91-1.22-6.13-3.47s-.41-6.34-1.22-9.62 19.02-24.77 19.02-24.77Z"/><path fill="url(#l)" d="M143.28 177.48c4.12 6.92 8.61 10.6 15.36 3.85 8.38-4.71 10.15-13.02 10.15-13.02l-9.76 4.36-15.75 4.81Z"/><path fill="#bc5e11" d="M162.81 175.52s7.8-9.4 10.24-12.28c2.46-2.87 1.84-3.47 2.25-8.18.22-1.44-1.63 3.06-3.06 5.31s-3.69 4.71-3.69 4.71 4.09-11.25 4.5-12.06-4.91-1.03-8.59-1.84-1.63 14.52-1.63 14.52l-.02 9.81Z"/><path fill="#0a1e2d" d="M166.21 158.62c3.28-2.46.41-5.31 1.84-8.38-3.28 2.25-3.3 6.08-3.3 6.08l1.46 2.3Z"/><path fill="#0a1e2d" d="M163.55 155.77c7.15 3.69 3.47-4.28 10.22-6.53-3.06 2.87 1.22 6.53-2.03 13.5a5.91 5.91 0 0 0 2.03-3.47c1.03 9.81-4.91 11.65-11.06 16.37-6.13 4.71-7.97-5.72-7.97-5.72l8.81-14.14Z"/><path fill="url(#m)" d="M136.46 164.05s-1.03-.22-1.44-1.03c-.41-.81-1.44-8.38 2.03-14.31s16.39-12.25 24.74-3.28c10.84 11.65 1.63 28.43 1.22 29.65-.41 1.22-4.86 4.47-5.91 4.5-1.05 0 1.12-1.48 1.58-3.4.45-1.91.55-7.01-.43-9.57-.1-4.71-6.29-7.68-6.29-7.68l-15.51 5.12Z"/><path fill="#175ca0" d="M158.55 156.47c-12.87-2.46-22.71 6.34-22.71 6.34l.77 1.17 15.39-5.05s6.17 2.97 6.29 7.68c.98 2.56.86 7.66.43 9.57s-2.63 3.4-1.58 3.4c.43-.17 5.26-2.34 4.67-13.5-.81-4.91-2.85-9.62-3.25-9.62Z"/><path fill="#94dbff" d="M139.53 162.21h-3.04s1.6-1.84 3.45-3.47c-4.09-9 3.47-14.72 3.47-14.72s-9.5 3.23-8.73 17.16c.77 13.9 4.86 1.03 4.86 1.03Z"/><path fill="#edbb79" d="M139.53 171.83c3.06 6.13 8.38 10.43 10.03 11.06 1.63.62 6.75-.22 8.81-5.53 2.03-5.31-.41-11.87-.41-11.87l-9-1.63-9.43 7.97Z"/><path fill="#d58e4f" d="M154.22 182.12a8.77 8.77 0 0 0 4.12-4.76c2.03-5.31-.41-11.87-.41-11.87l-9-1.63-9.28 7.87 1.03 2.15c.17.26.34.55.53.81.38-.02 1.56-.07 3.28 0 2.13.1 1.7-2.97 2.32-2.34s1.63 2.66 4.28 2.46c2.66-.22 5.93-3.69 5.93-3.69s2.8 6.65-2.8 10.98Z"/><path fill="#0a1e2d" d="M135.84 162.81s1.22 6.96 1.63 8.18 2.66 1.84 4.71 2.03c2.03.22 2.25-.41 2.87-2.03s.81-1.84 2.66-.62 3.88 2.66 6.96-.22c3.06-2.87 4.91-4.5 4.5-5.72s-2.66-6.34-3.06-7.15c-.43-.81-14.96.02-20.27 5.53Z"/><path fill="#193f68" d="M191.26 212.32s-21.68-.22-23.71 0-3.06 1.44-3.06 1.44-3.06 0-6.53 2.25-4.71 5.72-5.72 18.4c-1.01 12.68.22 22.09 0 22.9 9.21 3.47 20.24-.62 21.06-.81s-1.84-6.96-1.84-6.96 1.03-1.63.81-2.87c-.22-1.22-1.84-4.5-1.84-4.5s1.22-.81 2.03-6.75c18.21 3.47 27.21 4.28 36.61-6.13.81-1.03-4.5-9.62-17.8-16.97Z"/><path fill="#193f68" d="M150.77 228.88c-2.66 5.72-5.93 12.28-5.93 12.28s-1.84 0-3.06 1.84-2.03 5.72-2.03 5.72-2.46 2.66-3.88 4.71c-1.44 2.03-2.66 5.31-3.88 8.18a8.8 8.8 0 0 0 2.97 4.38s-.93-1.53-.53-3.37c.41-1.84 1.44-4.09 2.87-6.96s3.28-4.28 3.28-4.28-.22 3.28 2.46 4.91c.81.81-1.44-1.44-.81-6.13.62-4.71 1.22-5.72 3.69-6.13-.41 2.25 1.22 4.5 1.22 4.5s-.41-5.31 1.03-7.97 3.47-9.62 5.53-10.84c.53-.31.69-1.08.67-2.06 22.97-6.84 37.26-8.66 36.97-15.31-4.81-1.94-25.15-2.03-25.15-2.03s-12.75 12.85-15.41 18.57Z"/><path fill="url(#n)" d="M204.35 248.71c-3.61 1.56-98.78 35.17-116.58 42.55-17.8 7.37-29.86 7.97-33.33 7.37-3.47-.6.22 6.13 14.12 4.91 13.9-1.22 133.95-52.14 135.79-52.98 1.84-.81 1.44-2.46 0-1.84Z"/><path fill="url(#o)" d="M194.37 248.76c-3.69 1.34-100.55 29.72-118.73 36.11-18.19 6.39-30.25 6.34-33.69 5.53-3.45-.81-.12 6.13 13.83 5.67 13.95-.45 136.61-44.75 138.5-45.46 1.87-.74 1.56-2.39.1-1.84Z"/><path fill="#0a1e2d" d="M100.05 229.28c-2.34 1.24-6.13-.81-2.66-3.69 3.47-2.85 6.13 1.84 2.66 3.69Z"/><path fill="#3677b2" d="M160.08 214.83c-.67.29-1.41.67-2.15 1.15-3.47 2.25-4.71 5.72-5.72 18.4-1.01 12.68.22 22.09 0 22.9 1.99.74 4.04 1.15 6.05 1.32-1.29-.96-3.4-2.68-3.4-3.97 0-1.84-.81-15.34 0-21.68.81-6.32.22-14.98 5.22-18.11Z"/><path fill="#0f2b44" d="M209.06 229.28c.5-.62-1.32-4.12-5.86-8.42-1.36 1.75-5.5 5.74-14.17 4.93-11.06-1.03-18.62-6.75-16.56-3.88 2.03 2.87 10.84 9.81 5.53 8.18-5.31-1.63-12.47-6.13-14.72-7.97s0 5.12 2.87 8.18a32.87 32.87 0 0 0 6.34 5.12c18.14 3.47 27.16 4.28 36.56-6.15Z"/><path fill="#ffac3e" d="M158.55 183.08c-1.82.29-2.25 2.2 0 2.42 2.25.24 2.66-2.85 0-2.42ZM147.5 183.08c-1.27-.53-1.84 2.23 0 2.85 1.84.62 2.46-1.84 0-2.85ZM156.68 201.12c-1.17-4.33-1.53-4.88-2.08-5.72-.29-.45-.62-.96-1.22-2.34-1.2-2.87-1.15-4.79-1.03-7.44.02-.84.07-1.68.07-2.66h-1.22c0 .96-.02 1.79-.07 2.61-.1 2.7-.17 4.86 1.12 7.97.62 1.51 1.01 2.08 1.32 2.54.45.72.79 1.22 1.94 5.36.31 1.12.65 2.13 1.03 3.01.65.43 1.32.89 1.99 1.32a19.5 19.5 0 0 1-1.84-4.64Z"/><path fill="#0f2b44" d="M117.63 217.97s.62 2.13-2.03 4.19c-2.66 2.03-7.56 6.13-7.78 5.12-.22-1.03-2.25-3.06-2.25-3.06s.22 1.22 0 3.06-1.63 3.06-3.88 5.72c-2.25 2.66-4.28 1.22-4.28 1.22s1.03 1.63 3.28.81c2.25-.81 4.91-4.09 4.91-4.09s1.22 1.22 2.66.62c1.44-.62 4.28-3.69 4.28-3.69s2.03-.22 5.53-3.28c.5-2.87.24-5.03-.43-6.63Z"/><path fill="#0a1e2d" d="M222.34 235.62s77.31-11.06 78.53-11.25 1.22 1.03 0 1.22l-78.53 12.68v-2.66Z"/><path fill="#193f68" d="M209.06 214.16s7.63-3.69 12.3 0c.55 10.03-.02 13.09-.02 13.09s2.27 3.9 2.66 6.53c.81 5.53-1.44 6.96-2.66 8.18s-2.66.62-2.66.62-1.44.41-2.87.22c-2.03.62-3.69 0-3.69 0s-1.44 2.46-2.46 2.03-3.28-2.03-3.47-6.34c-.22-4.28.22-6.94 1.53-12.47 1.32-5.53 1.34-11.87 1.34-11.87Z"/><path fill="#0a1e2d" d="M211.31 238.09c.43 2.42-2.66 4.09-3.28 1.22-.62-2.87 2.46-5.93 3.28-1.22ZM158.02 256.39s-4.91.62-5.72.81c-.81.22-13.81 11.15-15.03 12.37s-3.69 3.06-4.71 3.69.81 5.31 6.75 4.5c5.93-.81 35.17-13.9 35.58-14.93s0-7.15-.22-8.59-2.08-1.44-2.08-1.44l-14.57 3.59Z"/><path fill="#ffac3e" d="M200.66 173.05s-1.63-3.88-3.69-6.53c-1.65-2.15-11.92-2.97-15.74-3.21 1.94.48 12.66 3.21 13.59 4.33 1.03 1.22 3.47 12.68 3.47 15.34s1.84-6.13 1.84-6.13 19.43 24.55 20.65 27.61c1.22 3.06 0 7.78 0 7.78s.19.07.5.14v-.05s1.84-3.88 2.46-6.53-.22-4.5-8.38-15.74c-8.16-11.25-14.72-17.01-14.72-17.01Z"/><path fill="#29abe2" d="M137.85 163.81s.96 5.05 1.36 5.86 3.06 1.63 3.47 1.22 1.79-3.23 3.06-3.47c2.03-.41 4.28 2.25 6.13 2.03s4.71-4.09 4.91-4.5c.22-.41-1.84-5.53-2.25-5.72-.38-.22-8.97-.22-16.68 4.57Z"/><g fill="#fff"><path d="m144.86 160.66-4.31 9.95c.89.36 1.89.53 2.13.29.41-.41 1.75-3.13 3.01-3.47l3.37-7.8c-1.29.24-2.7.55-4.21 1.03ZM150.15 159.46l-3.45 7.97c.38.07.77.22 1.12.38l3.69-8.52-1.36.17Z"/></g><path fill="#0a1e2d" d="M131.85 261.08s-15.31 11.01-16.75 11.44 1.41 3.69 4.47 2.68c2.46-.81 22.23-6.92 25.53-8.06 3.3-1.15 0-4.28 0-4.28s-8.14.48-13.26-1.77Z"/><path fill="url(#e)" d="M0 0h335v335H0z" opacity=".95"/><path fill="#fff" d="M334.42 335H.58v-35.49s66.77-9.06 253.28-31.48c56.65-6.81 80.57 8.14 80.57 8.14v58.82Z"/><path fill="#fff" d="M57.99 295.76s34.73-17.28 70.74-10.5c0 0 40.1-24.08 68.93 6.3 0 0-67.47 37.9-139.68 4.2Z"/><path fill="#eefaf9" d="M136.6 292.19s31.22-25.37 59.47-2.23c-28.7-27.9-67.34-4.7-67.34-4.7-36.02-6.79-70.74 10.5-70.74 10.5 1.68.78 43.13-13.06 78.61-3.57Z"/><path fill="#fff" d="M175.6 283.42s26.28-16.54 55.52-14.01c0 0 30.02-22.38 55.42-.48 0 0-50.73 35.57-110.93 14.49Z"/><path fill="#eefaf9" d="M237.94 274.3s22.84-22.7 47.2-6.52c-25.09-19.94-54.02 1.63-54.02 1.63-29.23-2.53-55.52 14.01-55.52 14.01 1.4.49 33.32-13.85 62.34-9.12Z"/><path fill="#fff" d="M90.65 301.83c-22.97-30.11-61.35-12.35-61.35-12.35-9.8-2.96-19.7-3.84-28.72-3.66v21.48c103.27 31.4 90.07-5.47 90.07-5.47Z"/><path fill="#eefaf9" d="M29.29 289.48c-9.8-2.96-19.7-3.84-28.72-3.66v.16c4.53.74 25.5 4.4 35.12 10.49 0 0 30.52-19.78 53.68 3.77-23.09-27.87-60.08-10.76-60.08-10.76Z"/><path fill="#fff" d="M80.22 308.81c15.76 15.76 22.21 14.51 32.71 14.83 29.82.6 50.73-5.68 50.73-5.68-24.25-40.54-74.31-23.93-74.31-23.93a106.25 106.25 0 0 0-18.46-5.96c-5.44 4.97.61 12.01 9.33 20.73Z"/><path fill="#eefaf9" d="M89.35 294.03a106.25 106.25 0 0 0-18.46-5.96c17.34 4.72 25.42 15.52 25.42 15.52s40.61-20.23 66 12.21c-24.7-37.78-72.96-21.77-72.96-21.77Z"/><path fill="#fff" d="M282.75 279.31c7.23 7.23 10.19 6.66 15 6.8 13.67.28 23.27-2.6 23.27-2.6-11.12-18.59-34.08-10.98-34.08-10.98a49.06 49.06 0 0 0-8.47-2.73c-2.49 2.28.28 5.51 4.28 9.51Z"/><path fill="#eefaf9" d="M286.94 272.53a49.06 49.06 0 0 0-8.47-2.73c7.95 2.17 11.66 7.12 11.66 7.12s18.63-9.28 30.27 5.6c-11.33-17.33-33.46-9.99-33.46-9.99Z"/><path fill="#fff" d="M150.07 286.85c9.47 3.85 11.97 2.17 16.47.43 12.71-5.07 20.43-11.45 20.43-11.45-17.48-12.81-35.67 3.14-35.67 3.14-3.05-.02-6.02.27-8.87.78-1.41 3.07 2.4 4.97 7.64 7.1Z"/><path fill="#eefaf9" d="M151.29 278.98c-3.05-.02-6.02.27-8.87.78 8.17-1.1 13.51 2.03 13.51 2.03S169.48 266 186 275.18c-17.18-11.56-34.71 3.81-34.71 3.81Z"/><path fill="#fff" d="M123.58 294.14c9.47 3.85 11.97 2.17 16.47.43 12.71-5.06 20.43-11.45 20.43-11.45-17.48-12.81-35.67 3.14-35.67 3.14-3.05-.02-6.02.27-8.86.78-1.41 3.07 2.4 4.97 7.64 7.1Z"/><path fill="#eefaf9" d="M124.8 286.27c-3.05-.02-6.02.27-8.86.78 8.17-1.1 13.51 2.03 13.51 2.03s13.55-15.79 30.07-6.61c-17.18-11.56-34.71 3.81-34.71 3.81Z"/><path fill="#0c1e33" d="M314.03 241.36c-6.57-46.3-1.94-59.02-10.44-69.91-.97-1.23-2.81-1.7-4.62-1.52-1.79.33-3.43 1.29-4.01 2.74-5.13 12.82 2.85 23.75 9.42 70.05 6.67 47.03.63 56.11 9.86 65.83 1.02 1.07 2.82 1.46 4.58 1.28 1.75-.32 3.37-1.19 4.05-2.51 6.16-11.91-2.17-18.95-8.84-65.98Z"/><path fill="#112742" d="M317.1 308.15c-9.23-9.72-3.19-18.81-9.86-65.83-6.57-46.3-14.55-57.23-9.42-70.05a4.52 4.52 0 0 1 2.62-2.34 7.03 7.03 0 0 0-1.45 0c-1.79.33-3.43 1.29-4.01 2.74-5.13 12.82 2.85 23.75 9.42 70.05 6.67 47.03.63 56.11 9.86 65.83 1.02 1.07 2.82 1.46 4.58 1.28.48-.09.95-.22 1.4-.39a4.8 4.8 0 0 1-3.13-1.3Z"/><path fill="#fff" d="M311.64 243.28c-1.49-10.5 1.02-13.6-2.49-15.84-.4-.26-1.22-.3-2.05-.2-.82.13-1.6.41-1.91.76-2.74 3.13.53 5.4 2.02 15.91 1.51 10.67-1.52 12.96 2.35 14.91.43.22 1.23.25 2.04.15.8-.13 1.57-.38 1.92-.71 3.18-2.95-.37-4.32-1.89-14.98Z"/><path fill="#ab1e2b" d="m308.59 183.93-13.81 8.77a71 71 0 0 1-1.38-9.19l12.7-8.06a29.83 29.83 0 0 1 2.49 8.49ZM309.38 190.98c.23 2.83.41 6.02.64 9.66l-11.84 7.52c-.71-3.25-1.37-6.17-1.96-8.82l13.17-8.35Z"/><path fill="#0a1726" d="M309.11 254.83a.76.76 0 0 1-.86-.65.76.76 0 0 1 .65-.86l3.76-.53c.42-.06.8.23.86.65.06.42-.23.8-.65.86l-3.76.53ZM305.94 232.46a.76.76 0 0 1-.86-.65.75.75 0 0 1 .65-.86l3.76-.53c.42-.06.8.23.86.65a.75.75 0 0 1-.65.86l-3.76.53Z"/><path fill="#0c1e33" d="M285.4 246.07c4.3-46.57 11.74-57.88 5.98-70.43-.65-1.43-2.34-2.3-4.14-2.54-1.82-.09-3.63.46-4.54 1.74-7.95 11.29-2.71 23.77-7.01 70.34-4.37 47.3-12.34 54.74-5.61 66.33.74 1.28 2.4 2.07 4.16 2.31 1.77.09 3.55-.38 4.52-1.51 8.74-10.17 2.26-18.94 6.63-66.24Z"/><path fill="#112742" d="M272.95 311.77c-6.74-11.59 1.24-19.03 5.61-66.33 4.3-46.57-.94-59.05 7.01-70.34a4.48 4.48 0 0 1 3.09-1.67 6.73 6.73 0 0 0-1.41-.33c-1.82-.09-3.63.46-4.54 1.74-7.95 11.29-2.71 23.77-7.01 70.34-4.37 47.3-12.34 54.74-5.61 66.33.74 1.28 2.4 2.07 4.16 2.31.49.02.98 0 1.45-.06a4.84 4.84 0 0 1-2.75-1.99Z"/><path fill="#fff" d="M282.63 247.39c.97-10.56 4.13-12.99 1.24-15.99-.33-.34-1.12-.58-1.94-.67-.83-.06-1.65.03-2.03.3-3.39 2.41-.73 5.38-1.71 15.94-.99 10.73-4.47 12.26-1.15 15.06.37.31 1.14.53 1.95.62.81.06 1.61-.01 2.03-.25 3.78-2.14.63-4.29 1.62-15.01Z"/><path fill="#c22132" d="m293.35 188.94-15.46 5.34c.12-3.58.33-6.6.78-9.26l14.22-4.91a30 30 0 0 1 .46 8.83ZM292.5 195.98c-.43 2.81-.99 5.95-1.61 9.55l-13.26 4.58c.06-3.32.09-6.32.13-9.04l14.74-5.09Z"/><path fill="#0a1726" d="M277.49 258.05a.76.76 0 1 1 .14-1.52l3.78.35a.76.76 0 1 1-.14 1.52l-3.78-.35ZM279.57 235.55a.76.76 0 1 1 .14-1.52l3.78.35a.76.76 0 1 1-.14 1.52l-3.78-.35Z"/><path fill="#0c1e33" d="M299.53 244.33h-.19c-3.03-.29-3.06-7.09-3.08-13.67 0-2.24-.02-4.35-.16-5.92-.2-2.2-.6-2.39-.67-2.41a1.23 1.23 0 0 0-1.39.57.4.4 0 0 1-.53.17.39.39 0 0 1-.21-.42.47.47 0 0 1 .03-.23c.03-.06.66-1.44 1.97-1.68.89-.16 1.84.25 2.81 1.22 2.78 2.78 5.39 16.6 3.35 20.93-.55 1.16-1.31 1.44-1.92 1.44Zm-4.15-22.8.2.03c1.35.29 1.43 3.32 1.46 9.09.02 5.35.05 12.67 2.37 12.89.21.02.83.08 1.33-.98 1.91-4.06-.63-17.48-3.2-20.04-.78-.78-1.49-1.11-2.11-1h-.05Z"/><path fill="#ab1e2b" d="M293.51 311.29a.4.4 0 0 1-.41-.41v-5.1a.4.4 0 0 1 .41-.41.4.4 0 0 1 .41.41v5.1a.4.4 0 0 1-.41.41Z"/><path fill="#ab1e2b" d="M292.8 233.88h1.41v73.96h-1.41z"/><path fill="#cf2434" d="M292.8 233.88h.53v73.96h-.53z"/><path fill="#143357" d="M291.52 222.72h3.98v12.98h-3.98z"/><path fill="#193e6b" d="M291.52 222.72h1.28v12.98h-1.28z"/><path fill="#112a48" d="M295.99 222.58c0 .19-.15.34-.34.34h-4.27a.34.34 0 0 1-.34-.34c0-.19.15-.34.34-.34h4.27c.19 0 .34.15.34.34ZM295.99 235.7c0 .19-.15.34-.34.34h-4.27a.34.34 0 0 1-.34-.34c0-.19.15-.34.34-.34h4.27c.19 0 .34.15.34.34ZM297.04 307.84a.5.5 0 0 1-.49.49h-6.08a.5.5 0 0 1 0-.98h6.08a.5.5 0 0 1 .49.49Z"/><path fill="#0c1e33" d="M325.44 253.63a1.34 1.34 0 0 1-.18-.07c-2.81-1.16-.86-7.67 1.03-13.97.64-2.14 1.25-4.17 1.57-5.71.45-2.16.12-2.46.05-2.5a1.26 1.26 0 0 0-1.5.14.4.4 0 0 1-.56 0 .4.4 0 0 1-.08-.46c0-.07.04-.15.09-.21.04-.05 1.05-1.18 2.37-1.03.9.1 1.69.77 2.34 1.98 1.86 3.47.33 17.45-2.88 21-.86.95-1.67.99-2.25.82Zm2.67-23.02.18.09c1.21.67.41 3.59-1.25 9.12-1.53 5.12-3.63 12.14-1.48 13.02.19.08.77.32 1.56-.55 3.01-3.33 4.48-16.91 2.77-20.1-.52-.97-1.1-1.5-1.73-1.57h-.05Z"/><path fill="#ab1e2b" d="M300.2 315.94a.4.4 0 0 1-.27-.51l1.49-4.89a.4.4 0 0 1 .51-.27c.22.07.34.3.27.51l-1.49 4.89a.4.4 0 0 1-.51.27Z"/><path fill="#ab1e2b" d="m300.52 312.42 21.54-70.75 1.35.4-21.54 70.76z"/><path fill="#cf2434" d="m300.5 312.42 21.56-70.75.5.16-21.55 70.75z"/><path fill="#143357" d="m320.3 243.06 3.77-12.42 3.81 1.16-3.77 12.42z"/><path fill="#193e6b" d="m320.27 243.02 3.78-12.42 1.22.38-3.77 12.41z"/><path fill="#112a48" d="M328.38 231.79a.35.35 0 0 1-.43.23l-4.09-1.24a.35.35 0 0 1-.23-.43.35.35 0 0 1 .43-.23l4.09 1.24c.18.06.28.25.23.43ZM324.57 244.34c-.05.18-.25.28-.43.23l-4.09-1.24a.35.35 0 0 1-.23-.43.35.35 0 0 1 .43-.23l4.09 1.24c.18.06.28.25.23.43ZM304.58 313.67a.5.5 0 0 1-.61.33l-5.82-1.77a.5.5 0 0 1-.33-.61.5.5 0 0 1 .61-.33l5.82 1.77c.26.08.4.35.33.61Z"/><path fill="#0c1e33" d="m51.32 214.71-.25-.01c-3.95-.37-3.99-9.24-4.02-17.82a97 97 0 0 0-.21-7.72c-.26-2.86-.78-3.12-.88-3.14a1.62 1.62 0 0 0-1.81.74.51.51 0 0 1-.69.22.52.52 0 0 1-.27-.54c-.02-.1 0-.2.04-.3.04-.08.86-1.88 2.56-2.19 1.17-.22 2.4.32 3.67 1.59 3.63 3.62 7.03 21.64 4.37 27.3-.71 1.51-1.71 1.87-2.5 1.87Zm-5.41-29.74.26.04c1.77.38 1.87 4.33 1.9 11.85.03 6.97.07 16.52 3.09 16.81.27.03 1.08.1 1.73-1.28 2.49-5.3-.82-22.79-4.17-26.13-1.01-1.01-1.94-1.45-2.75-1.3l-.06.01Z"/><path fill="#ab1e2b" d="M43.47 302.04a.54.54 0 0 1-.54-.54v-6.66c0-.3.24-.54.54-.54.3 0 .53.24.53.54v6.66c0 .3-.24.54-.53.54Z"/><path fill="#ab1e2b" d="M42.55 201.09h1.84v96.45h-1.84z"/><path fill="#cf2434" d="M42.55 201.09h.69v96.45h-.69z"/><path fill="#143357" d="M40.88 186.53h5.18v16.93h-5.18z"/><path fill="#193e6b" d="M40.88 186.53h1.67v16.93h-1.67z"/><path fill="#112a48" d="M46.7 186.35c0 .25-.2.45-.45.45h-5.57a.45.45 0 0 1-.45-.45c0-.25.2-.45.45-.45h5.57c.25 0 .45.2.45.45ZM46.7 203.46c0 .25-.2.45-.45.45h-5.57a.45.45 0 0 1-.45-.45c0-.25.2-.45.45-.45h5.57c.25 0 .45.2.45.45ZM48.07 297.53c0 .35-.28.64-.64.64H39.5a.64.64 0 0 1-.64-.64c0-.35.29-.64.64-.64h7.93c.35 0 .64.28.64.64Z"/><path fill="#0c1e33" d="M68.91 214.8a1.17 1.17 0 0 1-.24-.09c-3.67-1.51-1.12-10 1.34-18.22.84-2.8 1.63-5.44 2.04-7.44.58-2.82.16-3.21.07-3.26a1.63 1.63 0 0 0-1.95.18c-.2.2-.52.21-.73 0a.52.52 0 0 1-.1-.6c.01-.1.05-.19.12-.27.06-.06 1.37-1.54 3.09-1.35 1.18.13 2.2 1 3.05 2.58 2.42 4.52.43 22.75-3.76 27.39-1.12 1.24-2.18 1.3-2.94 1.07Zm3.48-30.02c.08.03.15.07.23.12 1.58.88.53 4.68-1.63 11.89-2 6.68-4.74 15.83-1.93 16.98.25.1 1.01.41 2.03-.72 3.92-4.35 5.84-22.05 3.61-26.22-.67-1.26-1.43-1.95-2.25-2.05h-.06Z"/><path fill="#ab1e2b" d="M36 296.07a.55.55 0 0 1-.36-.67l1.94-6.37a.54.54 0 0 1 .67-.36c.28.09.44.39.36.67l-1.94 6.37a.55.55 0 0 1-.67.36Z"/><path fill="#ab1e2b" d="m36.41 291.48 28.09-92.27 1.76.54-28.09 92.27z"/><path fill="#cf2434" d="m36.41 291.48 28.1-92.27.66.2-28.1 92.27z"/><path fill="#143357" d="m62.2 201.01 4.92-16.2 4.95 1.5-4.92 16.2z"/><path fill="#193e6b" d="m62.2 200.98 4.92-16.2 1.6.49-4.93 16.2z"/><path fill="#112a48" d="M72.75 186.33a.45.45 0 0 1-.56.3l-5.33-1.62a.45.45 0 0 1-.3-.56.45.45 0 0 1 .56-.3l5.33 1.62c.24.07.37.32.3.56ZM67.77 202.69a.45.45 0 0 1-.56.3l-5.33-1.62a.45.45 0 0 1-.3-.56.45.45 0 0 1 .56-.3l5.33 1.62c.24.07.37.32.3.56ZM41.71 293.1a.62.62 0 0 1-.79.42l-7.58-2.31a.62.62 0 0 1-.42-.79c.1-.34.46-.53.79-.43l7.58 2.31c.34.1.53.46.42.8Z"/><path fill="#fff" d="M218.18 309.59s28.62-14.24 58.3-8.65c0 0 33.04-19.84 56.8 5.19 0 0-55.6 31.23-115.1 3.46Z"/><path fill="#eefaf9" d="M282.96 306.65s25.72-20.91 49.01-1.83c-23.64-22.99-55.49-3.87-55.49-3.87-29.68-5.59-58.3 8.65-58.3 8.65 1.38.65 35.54-10.77 64.78-2.94Z"/><path fill="#fff" d="M256.9 329.36c-23.46 8.84-29.49 4.56-40.4.02-30.83-13.22-49.35-29.36-49.35-29.36 43.66-30.29 87.25 9.96 87.25 9.96 7.47.14 14.74 1.05 21.69 2.46 3.27 7.62-6.2 12.03-19.18 16.92Z"/><path fill="#eefaf9" d="M254.4 309.98c7.47.14 14.74 1.05 21.69 2.46-19.95-3.21-33.25 4.11-33.25 4.11s-32.23-39.57-73.3-18.11c42.85-27.25 84.86 11.54 84.86 11.54Z"/><g fill="#fff" data-name="PRINT"><path d="M29.59 13.92c0 .53-.21 1.03-.59 1.4l-6.34 6.34-6.78-3.92v-3.85a2.01 2.01 0 0 1 4.02 0v4.86l6.27-6.27a2.02 2.02 0 0 1 3.43 1.43ZM28.99 31.68a1.99 1.99 0 0 1-2.84 0l-2.13-2.13-4.15-4.14v4.86a2 2 0 0 1-4.01 0v-3.84l6.8-3.91 4.2 4.2 2.13 2.13a2 2 0 0 1 0 2.83ZM22.36 21.96a.43.43 0 0 0-.18-.24s-.02 0-.03-.02l-1.71-.99-4.57-2.64L12 15.84c-.23-.13-.5-.06-.62.16a.41.41 0 0 0-.07.23v11.71a.45.45 0 0 0 .68.39l3.87-2.23 6.28-3.62.07-.05a.4.4 0 0 0 .12-.17.47.47 0 0 0 .02-.31Zm-9.56-4.72 3 1.74 4.87 2.81c.06.04.1.08.13.13.05.09.06.19.03.27a.36.36 0 0 1-.16.21l-4.87 2.82-3 1.74a.36.36 0 0 1-.48-.13c-.04-.05-.05-.11-.05-.18v-9.09c0-.2.15-.35.35-.35.07 0 .12 0 .18.05Z"/><path d="M19.46 22.16a.28.28 0 0 1-.12.16l-3.66 2.12-2.26 1.3a.26.26 0 0 1-.36-.1.33.33 0 0 1-.04-.13v-6.84c0-.15.12-.27.27-.26.05 0 .09.01.13.03l2.26 1.31 3.66 2.12c.06.03.1.09.12.15v.15ZM62.51 21.63l-5.59-2.81-3.44-1.73a.4.4 0 0 0-.54.15.58.58 0 0 0-.06.17l.11 9.29c.03.22.23.38.45.36.06 0 .11-.03.16-.06l.22-.11 3.19-1.7 1.96-1.05 3.55-1.89a.4.4 0 0 0 .18-.22.26.26 0 0 0 0-.21.4.4 0 0 0-.19-.21Zm-5.59 2.84-2.64 1.41c-.15.09-.35.05-.43-.1a.28.28 0 0 1-.04-.13l-.09-7.21c.02-.17.17-.3.34-.28.05 0 .08.02.13.04l2.67 1.34.96.48 3.38 1.7c.07.03.12.08.15.16v.15s0 .02-.02.03a.24.24 0 0 1-.12.14l-4.29 2.28Z"/><path d="M60.13 22.02a.22.22 0 0 1-.11.12l-3.22 1.72-1.99 1.06a.23.23 0 0 1-.32-.08.16.16 0 0 1-.03-.09l-.07-5.42c0-.13.12-.23.25-.22a.2.2 0 0 1 .1.03l2.01 1.01 3.26 1.64c.05.02.09.07.11.12v.12ZM38.51 17.18l-2.14.03-2.71.04.03 2.65.08 7.02 2.31-.03-.04-3.13 2.54-.04c2.35-.03 4.05-1.4 4.04-3.31-.03-1.91-1.77-3.25-4.11-3.22Zm-.2 4.64-2.29.03-.04-2.73 2.3-.03c1.15 0 1.93.52 1.94 1.34 0 .84-.77 1.38-1.91 1.39ZM51.76 26.96l-7.7.1-.12-9.67 2.33-.03.1 7.8 5.37-.08.02 1.88zM67.54 23.27l.04 3.49-2.34.03-.04-3.49-4.3-6.13 2.7-.03 2.74 4.21 2.75-4.27 2.59-.04-4.14 6.23zM81.91 27.24l-1.58.02-4.15-4.45-1.68 1.63.03 2.9-1.23.01-.11-9.67 1.22-.01.07 5.35 5.4-5.43 1.62-.01-4.49 4.47 4.9 5.19zM87.98 17.34c-2.98.04-5.5 2.35-5.47 5.07.04 2.71 2.59 4.98 5.59 4.95 3-.04 5.49-2.37 5.45-5.09-.03-2.71-2.59-4.97-5.58-4.93Zm.39 8.98a4.29 4.29 0 0 1-4.62-3.93 4.3 4.3 0 0 1 8.56-.11 4.3 4.3 0 0 1-3.94 4.04ZM103.18 24.52c.02 1.54-1.25 2.81-3.77 2.83a6.18 6.18 0 0 1-4.26-1.48l.76-.87a5.07 5.07 0 0 0 3.55 1.35c1.67-.02 2.51-.85 2.5-1.72 0-1.03-1.04-1.43-2.93-1.79-2.18-.43-3.55-1.01-3.57-2.69-.02-1.55 1.5-2.78 3.58-2.8a5.66 5.66 0 0 1 3.8 1.33l-.74.86a4.74 4.74 0 0 0-3.11-1.2c-1.34.02-2.3.82-2.29 1.71 0 1 1.08 1.34 2.92 1.71 2.07.41 3.55 1.06 3.57 2.76ZM116.01 27.22l-1.22.02-.1-7.3-3.92 6.79-4.08-6.7.08 7.31-1.23.02-.11-9.68 1.22-.01 4.09 6.69 3.93-6.79 1.22-.01.12 9.66zM123.71 17.34c-2.98.04-5.5 2.35-5.47 5.07.04 2.71 2.59 4.98 5.59 4.95 3-.04 5.49-2.37 5.45-5.09-.04-2.71-2.59-4.97-5.58-4.93Zm.39 8.98a4.3 4.3 0 0 1-4.63-3.93 4.3 4.3 0 0 1 8.57-.11 4.3 4.3 0 0 1-3.94 4.04ZM138.91 24.52c.02 1.54-1.26 2.81-3.77 2.83a6.2 6.2 0 0 1-4.27-1.48l.76-.87a5.04 5.04 0 0 0 3.56 1.35c1.66-.02 2.51-.85 2.49-1.72 0-.75-.55-1.16-1.58-1.47-.33-.1-.72-.2-1.15-.28-.07 0-.13-.03-.2-.04-2.17-.43-3.55-1.01-3.57-2.69-.02-1.55 1.51-2.78 3.59-2.8a5.7 5.7 0 0 1 3.8 1.33l-.74.86a4.76 4.76 0 0 0-3.12-1.2c-1.33.02-2.3.82-2.29 1.71.02 1 1.09 1.34 2.93 1.71.38.08.75.16 1.09.26.37.1.69.23.99.38.92.43 1.48 1.08 1.49 2.12Z"/></g><path fill="#fff" d="M167.5 155.14a3.93 3.93 0 0 0-3.18 6.27l3.18 5.51 3.18-5.51a3.94 3.94 0 0 0-3.18-6.27Zm0 5.75c-.96 0-1.74-.78-1.74-1.73a1.74 1.74 0 0 1 3.47 0c0 .95-.78 1.73-1.73 1.73Z"/><path fill="#c22132" d="M251.08 8.12h84.17v17.34h-84.17z"/><path fill="#0c1e33" d="M115.47 276.07a57.16 57.16 0 0 1-114.22 0h4.36a52.8 52.8 0 0 0 105.5 0h4.36Z"/><path fill="#c22132" d="M115.47 271.35h-4.36a52.8 52.8 0 0 0-105.5 0H1.25a57.16 57.16 0 0 1 114.22 0Z"/><circle cx="58.36" cy="273.71" r="49.85" fill="#64e6fe"/><g opacity=".95"><path fill="url(#p)" d="M70.93 309.48v6.12a2.79 2.79 0 0 1-2.78 2.78H54.41a2.79 2.79 0 0 1-2.78-2.78v-13.74a2.79 2.79 0 0 1 2.78-2.78h6.25c.43 0 .77.35.77.77v.03c0 .43-.35.77-.77.77h-5.92c-.93 0-1.7.76-1.7 1.7v12.97c0 .93.76 1.7 1.7 1.7h12.97c.93 0 1.7-.76 1.7-1.7v-5.83a.77.77 0 0 1 1.54 0Z"/><path fill="url(#q)" d="M70.55 297.7a3.2 3.2 0 0 1 3.19 3.19v.46h-6.38v-.46a3.2 3.2 0 0 1 3.19-3.19Z" transform="rotate(45 70.55 299.52)"/><path fill="url(#r)" d="m70.69 303.89-6.76 6.76-.29.04-4.36.58c-.25.03-.51-.23-.48-.48l.58-4.36.04-.29 6.76-6.76 4.51 4.51Z"/></g></svg>