<svg xmlns="http://www.w3.org/2000/svg" xmlns:xlink="http://www.w3.org/1999/xlink" width="335" height="335" data-name="Layer 1">
  <defs>
    <linearGradient id="a" x1="68.8" x2="306.1" y1="137.9" y2="-32.8" gradientUnits="userSpaceOnUse">
      <stop offset="0" stop-color="#1a5a9b"/>
      <stop offset="1" stop-color="#accae7"/>
    </linearGradient>
    <linearGradient xlink:href="#a" id="c" x1="7.8" x2="309.9" y1="181.6" y2="-35.8"/>
    <filter id="b" data-name="drop-shadow-3" filterUnits="userSpaceOnUse">
      <feOffset dy="9"/>
      <feGaussianBlur result="uuid-5c9a778f-b127-4431-8804-57fafad08444" stdDeviation="5"/>
      <feFlood flood-color="#000" flood-opacity=".8"/>
      <feComposite in2="uuid-5c9a778f-b127-4431-8804-57fafad08444" operator="in"/>
      <feComposite in="SourceGraphic"/>
    </filter>
    <filter id="d" data-name="drop-shadow-4" filterUnits="userSpaceOnUse">
      <feOffset dy="9"/>
      <feGaussianBlur result="uuid-4c48bd75-ef13-41f3-9821-7391aeb96f20" stdDeviation="5"/>
      <feFlood flood-color="#000" flood-opacity=".8"/>
      <feComposite in2="uuid-4c48bd75-ef13-41f3-9821-7391aeb96f20" operator="in"/>
      <feComposite in="SourceGraphic"/>
    </filter>
  </defs>
  <path fill="#9f1f21" d="M335.7 78v257H0V139.5l179.8-32.9L335.7 78z"/>
  <path fill="#f6a621" d="M176.9 183.8h114.6v21.6H176.9z"/>
  <path fill="none" stroke="#f6a621" stroke-miterlimit="10" d="M42.2 187.1h136.1v15H42.2z"/>
  <path fill="#f6a621" d="M166.6 255.4h2.5v30.7h-2.5z"/>
  <path fill="url(#a)" d="M335.7 0v132.9l-155.5 17.6L.7 170.8V0h335z" filter="url(#b)"/>
  <path fill="#fe122e" d="M173.5 68c-.5.7-1.1 1.2-1.8 1.7a3 3 0 0 1-2.6.4c-.7-.2-1.3-.4-1.9-.8-.3-.4-.5-.4-.9-.2h-.5c-1.3.2-2.4-.3-3-1.5l-.4-.7v-.2c0-.4-.2-.4-.5-.2 0 0-.2 0-.2.2h-.3c-2.2.1-3.9-.6-4.9-2.6H155a7 7 0 0 1-2-.3c-.9-.3-1.6-.8-2-1.6l-.2-.1-.5.2h-.5l-2.1-.1a6.3 6.3 0 0 1-3-1.6l-.4-.4-1.4.3-1.1.2h-.5l-.5-.1a4.6 4.6 0 0 1-2.9-1.3l-.3-.2-1.6.5h-1.7c-1.1-.3-2.2-.7-3.1-1.3l-1.6.5a7 7 0 0 1-2.9 0c-.9-.2-1.8-.6-2.4-1.3l-.2-.1-.8.5-.9.4a5 5 0 0 1-3.2-.3l-.9-.4a6 6 0 0 1-6.7.2 8.6 8.6 0 0 1-3.7 1.5h-.6c-.7 0-1.5 0-2.2-.4l-.4.3c-.7.7-1.6 1.2-2.6 1.4l-1.3.2h-1.1c-.5-.1-.9 0-1.3.3-.6.5-1.4.8-2.2 1-.8.2-1.7.2-2.6.2l-.9 1-.6.4a6 6 0 0 1-3.7.4l-1.3 1.5-.4.3c-.5.2-1.1.5-1.7.5h-1.9c-.2.9-.8 1.6-1.5 2.1l-.3.3-.7.2-1.4.3c-.7 0-1.2.1-1.7.5l-.6.4-.5.4c-.3 0-.5.2-.8.3a3 3 0 0 1-2.8 0c-.6-.2-1.3-.4-1.7-.9-.4 0-.4-.4-.5-.7l.4-.9a32 32 0 0 1 2.9-5.1c0 .5.3.9.5 1.3l.5.8c.8 1.2 1.6 2.4 2.8 3.2l.3-.1-1.6-2.5-1.2-1.8c-.3-.4-.5-1-1-1.2.9-1.5 2-2.8 3.1-4.1.1.5.4.9.7 1.4 1 1.6 2.1 3 3.2 4.4.3.4.6.8 1.1 1h.4l-.2-.4-2.3-3.2c-.7-1.1-1.4-2.1-2-3.3-.1-.2-.2-.5-.5-.5a32 32 0 0 1 4.4-4.6l.3.9 1.5 2.8c.9 1.8 2 3.4 3.2 5 0 .1.2.2.4 0l-.3-.6-2.1-4.1-2-4-.2-.5 2.8-2.3 2-1.4.7 2.8c.4 1.5 1 2.8 1.6 4.2a31.5 31.5 0 0 0 3.3 5.2v-.4l-.3-.7-2.1-5.4c-.6-1.7-1.3-3.3-1.8-5l-.3-1.4a39 39 0 0 1 4.4-2.6c0 .2 0 .5.2.7l1.9 5.7.7 1.9 1.3 3.2 1.1 2.2.1-.2v-.4c0-.4-.2-.7-.3-1.1l-1-3.5c-.4-1.3-.7-2.7-1.2-4l-.8-2.5-.8-2.4c.2 0 .3-.2.5-.3l3.7-1.5 1.9-.6v.7l.4 1.5 1.8 6.3.8 2.8 1 3.5.2.5v-.6c-.2-.5-.2-1-.2-1.5v-.5l-.3-1.5-.8-4a178 178 0 0 1-1.7-7V43l.3-.1c2.2-.6 4.4-1.1 6.7-1.4v.8l.3 2 .4 2.8.7 4.1c0 .9.4 1.9.5 2.8l.5 3.2c0 .1 0 .2.3.2v-6.1c0-.8 0-1.6-.2-2.4 0-1.2-.3-2.4-.4-3.6l-.2-1.4a10 10 0 0 1-.3-2.5l4.4-.4 2.3-.1v1c.2.5.1 1.1.1 1.6v2.4l.1 1v2.5c.2.5.1 1 .1 1.5v1.3l.1 1.5v.7c.2.5.1 1 .2 1.5l.1.7c0 .2 0 .4.2.7v-1.8l.1-1v-8.9c-.2-.6-.1-1.3-.2-1.9v-2.8c1.9-.2 3.8-.2 5.7-.2v2.5l-.1.9v9.2l.1 1.1v2.5c.2-.7.4-1.3.3-2V53c.2-.5.1-1 .1-1.6v-.6c.3-.8.1-1.7.2-2.6v-.9l.1-1.4v-3.3c.2-.6.2-1.3.2-1.9h.8c2.1 0 4.1.2 6.2.4l-.4 2.4-.2 1.4-.3 2.1c0 .8-.3 1.6-.2 2.5v.3c-.2.4-.1.8-.1 1.2v1.7l-.1 1.6v3.3l.2.4.4-1.3.4-3 .5-2.7.4-3.1.3-2.1.2-1.6c.2-1 .4-1.9.3-2.9l1.3.1c2 .2 4 .6 6 1l-.2.8-1.4 6.3a64.7 64.7 0 0 0-1.5 7c0 .6-.2 1.2-.1 1.9l.3-.8 1.3-4.7 1-3.2.5-1.7a220.5 220.5 0 0 1 1.1-5.3h.5l3.8 1.1 2.8 1.1-.2.3-2.2 6.7-.6 2-1.4 5.2v.5l.4-.4a33 33 0 0 0 1.9-4.3 275.5 275.5 0 0 0 3-9.8l1 .4c1.8.8 3.6 1.7 5.3 2.8l-.4.7c-.4 1.4-.7 2.8-1.3 4.1l-1.1 2.7-2.1 5.6v.4l.3-.3.8-1.2c1-1.6 2-3.2 2.7-5 .5-1.3 1-2.6 1.3-3.9l.6-2.6.4.2c1.9 1.3 3.8 2.7 5.5 4.3-.3.1-.4.5-.5.7l-2.5 4.8-1.1 1.9-1.2 2c0 .1-.2.3 0 .5l.4-.2 1.5-1.8c.9-1.3 1.7-2.7 2.4-4.1l1.6-3.2c1.7 1.5 3.1 3.2 4.4 5l-.3.3c-.5 1-1.1 1.9-1.8 2.8l-1.1 1.6-1.9 2.6c0 .1-.1.2 0 .4 0 0 .2 0 .3-.2 1.5-1.3 2.7-2.9 3.8-4.6l1.2-1.8.3-.2a20 20 0 0 1 2.5 3.9c-.1 0-.3 0-.3.2l-.5.8c-.8 1.2-1.4 2.6-2.4 3.7v.3c.6-.2.7-.3 1-.6.7-.9 1.4-1.7 1.9-2.7.2-.3.3-.7.7-.8.1.2.3.3.3.5l1.5 3.1.4.6Zm-85.9-5.3h.2-.1v.2Zm69.5.4v-.2.1h.1Z"/>
  <path fill="#ffd4dd" d="M162.7 52.6a38.7 38.7 0 0 0-5.9-4.5l-.8-.5c-1.7-1.1-3.4-2-5.3-2.8l-1-.4-.9-.4-2.8-1.1-3.8-1.1h-.5l-1.1-.3c-2-.5-4-.8-6-1l-1.3-.1-1.3-.2a129 129 0 0 0-6.2-.4h-2.1c-1.9 0-3.8 0-5.7.2h-1.3l-2.3.2-4.4.4-1.5.2c-2.3.3-4.5.8-6.7 1.4l-.3.1c-.5 0-.9.2-1.3.4l-1.9.6-3.7 1.5c-.2 0-.3.2-.5.3l-1.1.5c-1.6.7-3 1.6-4.4 2.6l-1.1.7-2 1.4-2.8 2.3a32 32 0 0 0-5.1 5.2l-.4.5a40.1 40.1 0 0 0-3.1 4.1l-.2.3a32 32 0 0 0-2.9 5.1l-.4.9c-.7-.2-.8-.8-1-1.3-.2-.7-.3-1.5-.2-2.3l.6-2.7.9-1.9 1.3-2.4 2.1-3.3 2.8-3.7c1.4-1.7 3.1-3.2 4.6-4.8.8-.8 1.8-1.5 2.7-2.1 1.2-.9 2.5-1.8 3.8-2.5 1.3-.7 2.5-1.5 3.9-2l2.7-1.1 4.1-1.4 2.8-.8 3.4-.7 2.9-.5c.7-.1 1.4 0 2-.2.9-.2 1.8 0 2.6-.3h.6c.6 0 1.2 0 1.8-.2h10.6l1 .1h.6c.7 0 1.3 0 2 .2.8.2 1.7.1 2.6.2l1.8.2 4.4.7a72.6 72.6 0 0 1 11.9 3.2l3.6 1.4 4.7 2.2c1.7.9 3.3 1.9 4.9 3.1l2.5 2.1 1.2 1.1 2.2 2.5 1.7 2.3c.5.9 1.1 1.7 1.5 2.6a25 25 0 0 1 2 5.8c.1.8.3 1.6.2 2.4 0 .6 0 1.2-.2 1.7-.2.6-.5 1.1-1.1 1.5a2 2 0 0 0-.4-.6l-1.5-3.1c0-.2-.2-.3-.3-.5l-.4-.7c-.8-1.4-1.5-2.7-2.5-3.9l-.6-.9a35 35 0 0 0-4.4-5l-.6-.6ZM71.5 63.3c-.3.5-.5 1-.6 1.7l.3-.2.6-1.2A55.5 55.5 0 0 1 97 41.4c0-.7-.2-1.3-.5-1.9a55.8 55.8 0 0 0-14.9 9 45.5 45.5 0 0 0-10.1 14.9Zm101.3-1.7a47.2 47.2 0 0 0-11.7-15.1A54 54 0 0 0 147 39h-.6l-.2 1c0 .3-.2.6 0 1l3.7 1.5c9.4 4.4 17 10.9 22.8 19.5.1.2.2.5.5.6 0-.4 0-.6-.3-.8Zm-34.6-24.4-.5-.2-3.3-.7a65.4 65.4 0 0 0-20.2-.5 81.3 81.3 0 0 0-9.1 1.5V39h.8a70.2 70.2 0 0 1 15-1.7c2.9 0 5.8.3 8.8.6 2.7.3 5.4.7 8.1 1.3h.5v-2Zm35.1 25.4Zm0 .3Z"/>
  <path fill="#feabb9" d="M141.2 60.4h.5l-.5 2.8-.6 3.1-.9 4.8-.9 5-1.1 5.7-1 5.1-1 5.6c-.1.7-.3 1.3-.3 2-.1.1-.2.3 0 .5v-.4l.4-.5.7-1.5 1.7-3.8 2.9-6.7 2.4-5.5 2.9-6.6 3-6.8.3-1h.5l-.3.9-1.7 3.9-1.7 3.8-1.6 3.7-2.4 5.4-2.2 5.1-2.6 6c-.3.7-.7 1.3-.8 2.1l-.2.4-.1.2v-.2l.3-.3.4-.4 1.6-2.6 4.9-7.6 5.6-8.7 6.3-9.8h.4c0 .2 0 .4-.2.6a216 216 0 0 1-4 6.2l-3.1 4.9-6.5 10.1-4.4 6.8-.2.4v.4c.5-.3.7-.6 1-.9l3.9-4.4 2.4-2.7 1.8-2 3.9-4.4 2.4-2.7 1.8-2 3.9-4.4 2.4-2.7c.2-.2.4-.3.3-.6l.2-.2c.4-.2.4-.2.5.2v.2l-.2.2-2.3 2.6-2.6 2.8-3.7 4.2-3.3 3.6-3.4 3.8-3.1 3.4-4.3 4.7-.5.7v.1h.1c.3-.1.5-.4.7-.6l2.2-2 2.2-1.9 2.3-2.1 1.8-1.6 3.6-3.1 3.9-3.4 3.8-3.3 3.7-3.3 2-1.7c.3-.3.7-.6.9-1 .5-.2.6-.2.9.2h-.3l-1.7 1.4-2.4 2-1.6 1.4-2.1 1.9-2.2 1.9-.1.1-2.4 2.2-3.3 2.9-2.8 2.5-3.2 2.9-3 2.7-3.8 3.3-2.2 2-1 .9c-.2-.1-.5-.2-.7 0V59h.5v35l.2-.2.9-4.9a83 83 0 0 1 1-5.3l.9-4.6 1-5.2 1-5.3 1.1-5.7.4-2.6Zm-3.9 33.5h.1ZM86.8 65.5l.4-.3 3 4.7 5.6 8.8 6.3 9.9 2.2 3.5c.2.3.3.6.6.8.2-.3 0-.4 0-.6l-1.6-3.6-2.3-5.3-2.5-5.6-3.6-8.3-2.4-5.6c0-.2-.2-.4-.4-.5l.6-.4 1.1 2.5 2.5 5.7 1.6 3.5 2.9 6.6 2.4 5.5a181.8 181.8 0 0 1 3.2 7v-.9l-1.2-6.3-.8-4.3-1.2-6.4-.9-4.6-.6-2.9-1.2-6.4-.3-1.5h.6l.1.9.8 4.4 1.2 6.4.9 4.6.6 2.9 1.4 7.5.9 4.6c.1.6.2 1.2.5 1.9V59h.6c-.2.3-.2.7-.2 1.1v36.8h-.6l-.3-.1-1.5-1.3-2.4-2.2-2.1-1.8-.2-.2-2.4-2.2-1.7-1.5-1.6-1.4-1.6-1.4-2-1.7-1.5-1.3-2-1.8-2.6-2.2-.2-.2-2.4-2.2-2-1.6-.3-.3-2.2-2-1.4-1.2-.2-.3.5-.4.1.3a587.2 587.2 0 0 1 6.6 5.8l3.9 3.4 1.7 1.5 2.2 1.9 2.3 2 1.6 1.4 2.4 2.1 2.3 2 1.5 1.3c.1.1.3.2.4 0l-.4-.6-3.3-3.7a66.4 66.4 0 0 0-4.5-4.9l-3.8-4.3-2.6-2.8-1.8-2-2.6-2.9-1.5-1.7-.1-.3.3-.3 1.7 2 2.2 2.5 2.5 2.8 2.2 2.5 3.9 4.4 2.4 2.7a36 36 0 0 0 1.9 2.1l2.5 2.8 2.6 2.9c.2.2.3.4.6.4l.2.3-.2-.5-.2-.4-2.2-3.5-5-7.7-4.6-7.2-4.5-7-1.1-1.8Zm16.3 27.4-.2-.3.2.3Z"/>
  <path fill="#0b0a06" d="m114.5 125-.6-.6c-.4-.7-.4-1.5-.6-2.2v-.2l.2-2.5c0-.1 0-.3-.2-.4l-.8-1.4.2-.3.8 1v-1l1.4-1.9.7 3.8.9.2c.1-.6 0-1.1 0-1.6l-.1-1.6-.1-1.6-.2-1.6c-.9-.5-.9-.7-1.1-1.6l-.3-2.1c0-.4.2-.6.6-.7h1.8l.3 1.2v1.7c0 .5-.1 1-.5 1.3l-.2.2a56.5 56.5 0 0 1 .5 6.6l1.9.3h1.8c.6 0 1.3.1 1.9-.2l.4-6.6c-.8-.4-1-1-.9-1.8v-.6l.2-1.1v-.7c1-.2 1.8 0 2.6.5l-.3 2.2c0 .7-.3 1.3-.9 1.6 0 1.1-.2 2.2-.3 3.2 0 1.1-.3 2.2-.2 3.3.5 0 1 0 1.4-.2.2-.8.2-1.7.2-2.5v-1.6c0-.1 0-.2.2-.2l.7 1.2.8 1v1.5h.1l.6-1.4.3.4-.9 2v.4h.1l1.2-1.8c.2-.1.4 0 .4.2l-1.5 2.1c-.2.3-.3.5-.3.9l-.1 1.3c-.2 1-.7 1.8-1.6 2.3v-.1l-.3-.7-1.9 1.1a4 4 0 0 0-1.7 1.7l-1.2 1.8-.6.7c0-.2-.2-.2-.3 0l-.5-1-1-1.6c-.6-.9-1.8-2.2-2.8-2.8l-.5.5Zm2.8.3.8 1.3 1.1 2.2c0 .1 0 .3.3.3.5-1.1 1-2.2 1.8-3.2l.4-.4c.7-.7 1.5-1.2 2.4-1.6l.5-.2c0-.3.1-.7-.1-1l-2.2.4H120c-.7 0-1.5 0-2.2-.2l-2.2-.6-.3 1.1 1.9 1.8Zm0-3.8c1.7.5 4.4.6 5.6.2v-1h-4.3l-1.4-.1v1Zm6.2-.9c-.2.6-.2.6 0 1.1l1.3-.2c.1-.3.2-.6.1-1h-1.4Zm-7.7-.4v.8l.4.2.5.1c0-.4.1-.7-.1-1l-.8-.2Z"/>
  <path fill="#faab8c" d="m126.5 137.5.2 1.7.2 1.4c0 .8-.2 1.4-.7 1.9-1.4 1.4-2.5 3.1-3.6 4.7l-.5 1.2c-.4 0-.5.4-.8.6-.4-.7-1-1.3-1.8-1.7l1.3-4.2c.3-.8.8-1.6 1.4-2.3.3-.3.3-.6.2-1l-.4-1.6v-.7a5.5 5.5 0 0 1 4.3-.7l.3.7Zm-12.9-.1c-.1.1-.1.2 0 .4l.5 1.8.1 1v3.4l-.1.7c-.8.2-1.5.7-2.2 1.3-.2-.4-.2-.7-.6-.8 0-.7-.2-1.4-.4-2.1-.3-1.3-.6-2.6-1.1-3.8l-.5-1.4c-.2-.7-.2-1.3.2-2l.3-.9c.3 0 .5-.4.9-.4 1.2 0 2.7.8 3.6 1.9 0 .4-.4.6-.6.9Z"/>
  <path fill="#03a9bf" d="M121.3 127.5a4 4 0 0 1 1.7-1.7h.8c.5 0 .9-.2 1.4-.4v.7l1.1 4.8.2 1.7.2 2.7-1.5-.4c-1-.3-1.7-.9-2.2-1.9l-.7-2-.8-3.4c0-.2-.2-.3-.4-.3Z"/>
  <path fill="#13c3d1" d="M113.6 137.4c.2-.3.5-.5.6-.9a5.2 5.2 0 0 0-3.6-1.9c-.4 0-.6.3-.9.4v-.6l1-2v.4c1 .2 2 .2 2.7-.2a3 3 0 0 0 1.3-.9c.6-.6 1-1.4 1.4-2.1l1-2.1c0-.2.2-.4.5-.4l1 1.6.5 1-.4.9-1.3 2.5c-.2.1-.4.3-.4.6l-2.1 2.9c-.4.5-.8.8-1.4.7Zm7.7-9.9c.2 0 .3.1.4.3a41.8 41.8 0 0 0 1.5 5.4c.5 1 1.2 1.6 2.2 1.9l1.5.4.2 1.2c0 .5-.1.7-.5.9l-.3-.7c-1.5-.4-2.9 0-4.3.7v.7c-.6 0-.8-.4-1-.8l-.6-2c0-.3-.2-.5-.3-.8.2-.2 0-.4 0-.6l-.6-4.1.6-.7 1.2-1.8Z"/>
  <path fill="#faab8c" d="M128.8 118.9c0-.2-.2-.4-.4-.2 0-.3 0-.5-.4-.6l-.3-.4-.3-.4 2.4-2.2.5.4c0 .3 0 .4.3.6l1.7 2.5c.8 1.1 1.6 2.3 2.1 3.6l.5 1 .4.3c0 .2 0 .4.2.5l.5.4.6.5c.1.1.2.4.4.4v-.2c.4.2.5.4.4.8l-.3.6c-.5 0-.6-.2-.7-.5 0-.6-.5-.6-.9-.7l-.5.6c-.2 0-.5-.1-.6-.4 0-.5-.4-.7-.7-1.1l-1.6-1.9-.9-1.1-1.3-1.6c-.3-.3-.6-.7-1-.9Z"/>
  <path fill="#03a9bf" d="M117.8 127.3c-.3 0-.4.2-.5.4l-1 2.1a11 11 0 0 1-1.4 2.1 3 3 0 0 1-1.3.9c-.7.3-1.7.3-2.7.2v-.7c.8-1.3 1.4-2.7 2-4.1l1-1.9c.2-.4.5-.8.5-1.2l.5-.5c1 .7 2.2 1.9 2.8 2.8Z"/>
  <path fill="#faab8c" d="m112.8 117.5-.2.3c-.1 0-.2 0-.3.2l-2 2.1-2.4 2.8-1.2 1.4-.4.8c-.1.3-.3.5-.6.5l-.5-.6c-.5 0-.9.2-1 .7q-.3.5-.8.4c-.2-.3-.2-.7-.1-1 0-.2.1-.4.3-.5l.1.5a2 2 0 0 1 1-1c.3-.2.6-.4.7-.8.5-.4.7-.9.9-1.4.4-.9.8-1.8 1.4-2.6a81 81 0 0 1 2.6-3.6l.3-.3 2.3 2v.3Z"/>
  <path fill="#1a1618" d="M130.5 116c-.2-.1-.3-.3-.3-.6l.7-1.4c2-4.4 2.8-9 3.1-13.8v-.5l-.2.5-4.3 13.5v.3-.1c-.3-.2-.4-.4-.5-.8l.3-.9 2.9-9 1.9-5.8c.2-.2.5-.2.7 0l-.1 2.7v1l-.4 2.7-.6 3.1c-.7 3.1-1.6 6.2-3.2 9Zm-23.6-19h.6l4.6 13.9.4 1c0 .3-.2.6-.5.8l-1-3.1-3-9.5c0-.2 0-.5-.4-.6v.8a48.6 48.6 0 0 0 3.3 13.7c0 .2 0 .4-.3.5-.4-1-.9-1.9-1.2-2.9-1-2.7-1.6-5.4-2-8.2l-.3-2-.2-2.7v-1.8Z"/>
  <path fill="#fe122e" d="m121.9 149.5.4 1.1H121c-.4 0-.7 0-1 .3v.3h.2c.7-.3 1.5-.3 2.3-.2l.2.5-1-.1c-.5 0-1 .1-1.5.5v.4c1-.3 1.8-.4 2.7-.3l.5 1.1c.2.6.2 1.1-.1 1.6l-1.1.4c-.9.4-1.6.1-1.9-.8l-.4-1.5-.4-2.9c0-.4 0-.8-.3-1.1l.2-.7.4.7c.4.5.9.7 1.5.7h.7Zm-12-1.3c0-.3.2-.5.4-.7 0 .2.1.3.3.3.6 0 1.2.3 1.7.6l.4.2c.3-.2.3-.3.1-.5-.4-.3-.8-.5-1.3-.6l-1-.2c.2-.4.3-.7.6-1l.5.2c.8.3 1.4.1 2-.4l.4-.4v.6l-.4.8-.5 1.6-.9 2.1-.4.7c-.6.8-1.2.9-2 .4l-1.1-.7c-.2-.9.1-1.7.7-2.4l.3-.4.1.2 1.2.3 1.1.5c.2-.2.2-.4 0-.5-.6-.6-1.4-.7-2.2-.7Z"/>
  <path fill="#feabb9" d="m106.9 98.8.2 2.7c-.2.2-.2.4-.2.7l-.2 2.4-.3 2.2-.2 2.3-.2 1.6-.3 2.2-.3 2.8-.2 1.9a199 199 0 0 1-.5 4.8h-.6l.4-2.8.3-2.5.2-2.2.3-2.5.2-2.1.3-2.5.2-2 .3-2.6.2-2.2.2-2.1v-.2Zm27.4 5.2.4-2.7.1.2.2 3.1.3 3.1v.2l.2 3.1.3 3v.3l.2 3 .3 3.1v.3c0 .7 0 1.3.2 2h-.6v-.5l-.3-3.1-.2-3v-.2l-.3-3-.2-3.2v-.2a42 42 0 0 1-.4-3.7c0-.6 0-1.2-.3-1.8Z"/>
  <path fill="#1a1618" d="m108.6 151.2 1.1.7c.8.5 1.5.4 2-.4l.4-.7.9-2.1.5-1.6c.1-.3.2-.6.5-.8.2.5.1 1-.2 1.5l-.9 2.1-.7 1.7c-.3.5-.7 1-1.3 1.3-.5.2-.9 0-1.4 0-.4-.1-.5-.4-.6-.7l-.3-.9Zm10.4-2.3c.3.3.3.7.3 1.1l.4 2.9c0 .5.2 1 .4 1.5.4.9 1 1.1 1.9.8l1.1-.4c-.5 1.2-1.1 1.4-2.7 1.3-.6-.4-.8-1.1-1-1.8l-.3-2a4 4 0 0 0-.4-1.8c-.2-.5-.2-1.1.1-1.6Z"/>
  <path fill="#120f0b" d="M121.9 149.5h-.7c-.6 0-1.1-.2-1.5-.7l-.4-.7.2-.9c.8.4 1.3.9 1.8 1.7.3-.1.4-.6.8-.6l-.2 1.2Zm-7.9-3.8-.4.4c-.6.5-1.2.7-2 .4l-.5-.2.1-1.1c.4.1.5.5.6.8.6-.6 1.3-1.1 2.2-1.3v1.1Z"/>
  <path fill="#1a1618" d="M136.1 122.6h.6c.3.8.4 1.6.4 2.4v.2c-.3 0-.3-.3-.5-.4l-.6-.5-.5-.4c-.2-.1-.3-.3-.2-.5l.8-.8Z"/>
  <path fill="#120f0b" d="M104 122.4h.6l.8.8c0 .4-.4.6-.7.8-.4.3-.8.5-1 1l-.1-.5c0-.8.1-1.5.4-2.2Z"/>
  <path fill="#1a1618" d="M120.1 134c0 .2.2.4 0 .6-1.1 0-2.1-.1-3-.7 0-.3.2-.4.4-.6a4 4 0 0 0 2.6.7Zm-9.7 13.3 1 .2c.5 0 .9.3 1.3.6.2.1.1.3-.1.5l-.4-.2c-.5-.3-1.1-.6-1.7-.6-.2 0-.3-.1-.3-.3l.2-.3Zm-.5.9c.8 0 1.6.2 2.2.7.2.2.2.3 0 .5l-1.1-.5-1.2-.3-.1-.2.2-.2Zm12.9 3.9c-.9-.2-1.7 0-2.5.3v-.4a2 2 0 0 1 1.4-.5l1 .1.2.5Z"/>
  <path fill="#120f0b" d="M122.4 151.1c-.8-.2-1.5-.1-2.3.2h-.2v-.3a2 2 0 0 1 1-.3h1.3l.2.5Z"/>
  <path fill="#1a1618" d="m134.9 125.9.5-.6c.4 0 .9.1.9.7l-.7.1c-.3 0-.6 0-.8-.2Zm-30.7-.2c.1-.5.5-.6 1-.7l.5.6-.2.2c-.4 0-.9.1-1.3-.1Z"/>
  <path fill="#e50229" d="m132.3 40.3 1.3.2c0 1-.1 1.9-.3 2.9l-.2 1.6-.3 2.1-.4 3.1-.5 2.7-.4 3c0 .4-.2.8-.4 1.3l-.2-.4v-3.3l.1-1.6v-1.7l.1-1.2v-.3l.2-2.5.3-2.1.2-1.4.4-2.4Zm-23.5.6 1.5-.2.3 2.5.2 1.4c0 1.2.4 2.4.4 3.6.2.8.2 1.6.2 2.4v6.1c-.2 0-.3 0-.3-.2l-.5-3.2c0-.9-.4-1.9-.5-2.8-.1-1.4-.5-2.7-.7-4.1l-.4-2.8-.3-2v-.8Zm40.1 3.2.9.4c0 .5 0 .9-.2 1.4l-2.8 8.4c-.5 1.5-1.3 2.9-1.9 4.3 0 .2-.2.3-.4.4v-.5l1.4-5.2.6-2 2.2-6.7.2-.3Zm-25-4.2h1.3c0 .7 0 1.3-.2 1.9v3.3l-.1 1.4v.9c0 .9.1 1.7-.2 2.6v.6l-.1 1.6v1.9a7 7 0 0 1-.3 2v-2.5l-.1-1.1v-9.2l.1-.9v-2.5Zm-30.7 5.8 1.1-.5.8 2.4.8 2.5c.5 1.3.8 2.7 1.2 4l1 3.5c0 .4.2.7.3 1.1v.4l-.1.2-1.1-2.2a43 43 0 0 1-2-5.1 126.9 126.9 0 0 1-2.1-6.4Zm47.6-4.1 1.1.3c0 .5 0 1-.2 1.5l-.9 3.8-.5 1.7-1 3.2a82.3 82.3 0 0 0-1.6 5.5l.1-1.9.4-2.3 1.1-4.7 1.4-6.3.2-.8Zm-23.9-1.5h1.3v2.7c0 .6 0 1.3.2 1.9v8.9l-.1 1v1.8c-.3-.3-.2-.5-.2-.7l-.1-.7c0-.5 0-1-.2-1.5v-.7l-.1-1.5V50l-.1-1.5V46l-.1-1v-2.4l-.1-1.6v-1Zm-16.4 2.7c.4-.2.8-.4 1.3-.4v.6a178 178 0 0 1 1.7 7c.3 1.3.7 2.7.8 4l.3 1.5v.5c0 .5 0 1 .2 1.5v.6l-.2-.5-1-3.5-.8-2.8c-.7-2.1-1.3-4.1-1.8-6.3l-.4-1.5v-.7Zm55.6 4.8.8.5-.6 2.6c-.3 1.4-.8 2.6-1.3 3.9-.7 1.8-1.7 3.4-2.7 5l-.8 1.2-.3.3v-.4l2.1-5.6 1.1-2.7c.6-1.3.9-2.7 1.3-4.1 0-.3.1-.5.4-.7ZM87.7 49l1.1-.7a42.4 42.4 0 0 0 2.1 6.4l2.1 5.4.3.7v.4L93 61a41.4 41.4 0 0 1-3-5c-.6-1.4-1.2-2.7-1.6-4.2l-.7-2.8Zm75 3.6.6.6-1.6 3.2c-.7 1.4-1.5 2.8-2.4 4.1l-1.5 1.8-.4.2c-.2-.2 0-.4 0-.5l1.2-2 1.1-1.9 2.5-4.8c.1-.3.2-.6.5-.7Zm-80.5.8c.2-.3.4-.5.7-.6 0 .2 0 .4.2.5l2 4 2.1 4.1.3.6c-.2.2-.3.1-.4 0a32.7 32.7 0 0 1-3.2-5l-1.5-2.8c-.1-.3-.3-.5-.3-.9Zm85.5 4.8.6.9-.3.2-1.2 1.8a21.2 21.2 0 0 1-3.8 4.6l-.3.2c-.2-.1-.1-.3 0-.4l1.9-2.6 1.1-1.6c.6-.9 1.3-1.8 1.8-2.8l.3-.3Zm-90.4.3.4-.5c.3 0 .4.2.5.5l2 3.3 2.3 3.2.2.4h-.4a70.7 70.7 0 0 1-5-6.8ZM74 62.9l.2-.3c.5.2.7.8 1 1.2l1.2 1.8 1.6 2.5c0 .2-.2.2-.3.1-1.2-.8-2-2-2.8-3.2l-.5-.8c-.2-.4-.5-.8-.5-1.3Zm96.9.1.4.7c-.4.2-.5.5-.7.8-.5 1-1.2 1.8-1.9 2.7-.2.3-.4.4-1 .6v-.3c.9-1.1 1.6-2.5 2.4-3.7l.5-.8.3-.2Zm-83.3-.3v-.2h.2v.2h-.2Zm69.5.4h-.1V63h.2v.2Z"/>
  <path fill="#fff" d="m161.8 66.5-.2.2c0-.2.1-.1.2-.2Z"/>
  <path fill="#fe122e" d="M138.2 37.3v2h-.5a75.8 75.8 0 0 0-16.9-1.9c-2.3 0-4.7 0-7 .4-2.7.3-5.4.7-8 1.3h-.8v-1.7l.7-.2a81.3 81.3 0 0 1 28.6-.8l3.3.7.5.2Zm34.4 24.6a55.3 55.3 0 0 0-22.8-19.5c-1.2-.6-2.4-1-3.7-1.5v-1l.2-1h.6a64.5 64.5 0 0 1 14.1 7.5c2.7 1.9 4.9 4.3 6.8 7 1.9 2.6 3.5 5.3 4.9 8.1l-.2.2ZM71.5 63.3c1.3-3 2.8-5.9 4.7-8.7a32 32 0 0 1 5.4-6.2c1.2-1.1 2.5-2 3.9-3 3.2-2.3 6.5-4.2 10.1-5.7.3-.1.5-.3.9-.3l.5 1.9a54.9 54.9 0 0 0-25.2 22.2l-.3-.2Z"/>
  <path fill="#ec9174" d="m71.5 63.3.3.2-.6 1.2-.3.2c0-.7.3-1.2.6-1.7Z"/>
  <path fill="#fff" d="M135.4 94.4v.4c-.3-.2-.2-.3 0-.5Zm1.3-1.1.2-.4-.2.3Zm0 0v.2h-.2l.1-.3Zm.6.6Zm-.1-.1h.1Zm1.9-.8h-.1Zm-34.7.1.2.4-.2-.3Zm.1.4Zm-1.6-.8Zm.2.2-.2-.2.2.2Zm-.1 0Z"/>
  <path fill="#fe122e" d="M125.2 109.6c1 .2 1.7.7 2.3 1.5l.8 1.2.7 1c0 .3.2.6.5.8v.1c.2.3.5.5.2.9l-2.4 2.2c-.2 0-.3.2-.5.3-.4-.2-.6-.6-.8-1l-.7-1.2c-.2 0-.2.1-.2.2v1.6c0 .8 0 1.7-.2 2.5-.4.2-.9.2-1.4.2-.1-1.1 0-2.2.2-3.3 0-1.1.2-2.1.3-3.2.6-.3.9-.9.9-1.6l.3-2.2Zm-7.7.4.2.2c.8 1.2 2 1.5 3.4 1.4.6 0 1-.4 1.4-.8v.6c0 .8.1 1.5.9 1.8l-.4 6.6c-.6.3-1.2.1-1.9.2h-1.8c-.6 0-1.3-.1-1.9-.3l-.1-.7c0-2-.2-3.9-.4-5.9l.2-.2c.4-.3.6-.8.5-1.3v-1.7Zm4.9 6.8c.5-1.3.1-2.3-1.1-3.1l-.4-.6c-.5-.2-.9 0-1.2.4-1.5.1-2.7 2.2-1.6 3.7v.3c-.2.6-.1.7.4 1l.5-.4.5.2c.8.2 1.6.2 2.2-.5.6-.2.7-.4.8-1Zm-9.9-4.8.8-1.1c.4-.6.8-1 1.5-1.3l.3 2.1c.1 1 .2 1.1 1.1 1.6l.2 1.6.1 1.6.1 1.6c0 .5.2 1 0 1.6l-.9-.2-.7-3.8-1.4 1.9-.8-.2-2.3-2c-.1-.3 0-.5.1-.7.2-.1.3-.3.3-.5.5-.3.7-.8 1-1.3.3-.2.4-.5.5-.8Zm4.8 13.3-1.9-1.8.3-1.1 2.2.6 2.2.2h2.3c.7 0 1.4-.2 2.2-.4.3.4 0 .7.1 1l-.5.2c-.9.4-1.7.9-2.4 1.6l-.4.4h-.3c-1.3 0-2.5-.3-3.8-.6Z"/>
  <path fill="#faab8c" d="m122.6 109.7-.3.2c-.6 1-1.6 1-2.6.9-.9-.1-1.4-.7-1.8-1.5-.1-.3-.2-.6 0-.8l.3-.4h.2c.7.7 1.6.8 2.6.5l.9-.2.7.6-.1.7Z"/>
  <path fill="#fe122e" d="M117.3 121.5v-1l1.4.1h4.3v1a12 12 0 0 1-5.6-.2Z"/>
  <path fill="#13c3d1" d="M117.3 125.3c1.2.3 2.5.6 3.8.6h.3c-.8 1-1.3 2.1-1.8 3.2-.3 0-.2-.2-.3-.3l-1.1-2.2-.8-1.3Z"/>
  <path fill="#e50229" d="M123.5 120.6c.5-.1.9-.2 1.4 0 .1.4 0 .6-.1 1l-1.3.2v-1.1Zm1.7 4.8-1.4.4h-.8l1.9-1.1.3.7Zm-9.4-5.2.8.2c.2.3.1.6.1 1l-.5-.1a.8.8 0 0 1-.4-.2v-.8Z"/>
  <path fill="#faab8c" d="m122.7 103.4.2.1c.2.5.3 1.1-.3 1.5l-.2.3-.6 1.4c-.3 0-.4.2-.6.4-.7.7-1 .7-1.8.2l-.8-.5-.7-1.4c0-.2-.2-.3-.3-.4a1 1 0 0 1-.2-1.3l.3-.2c0 .3.2.5.3.8.3.4.7.6 1.1.5.4 0 .7-.2.8-.7.3-.1.5 0 .7.2.7.8 1.6.6 2-.4v-.4Z"/>
  <path fill="#120f0b" d="M122.7 103.4v.4h-.2c0-.3 0-.5-.2-.7l-.2-.3c0-.8-.6-1.1-1.3-1.3h-1.1c-.7 0-1.3.4-1.5 1.2v.3l-.3.2h-.2c-.2-.8-.3-1.7-.1-2.6 0-.3.2-.6.6-.6.4 0 .6-.3.8-.5.5-.5.7-.5 1.4-.2l1.2.4c.7.2 1.1.5 1.1 1.2v2.5Z"/>
  <path fill="#ec9174" d="m118.6 106.8.8.5c.8.5 1.1.5 1.8-.2.2-.2.3-.4.6-.4l.2 1.6-.9.2c-.9.3-1.8.2-2.6-.5h-.2l.2-1.3Z"/>
  <path fill="#1a1618" d="M117.7 103.3h.2v.4c.1.7.6.9 1.2.8.3 0 .5-.2.7-.4 0 .5-.4.6-.8.7-.5 0-.8-.1-1.1-.5l-.3-.8v-.2Z"/>
  <path fill="#fecd46" d="m118.9 118.1-.5.4c-.6-.3-.6-.4-.4-1v-.3l.2-.3 1.4-3.1v-.4c.3-.4.7-.5 1.2-.4l.4.6v.4l1.1 2.7c0 .5-.2.7-.8 1 0-.4-.2-.8-.4-1.1-.5 0-.9.2-1.3.3-.6.1-.9.5-.9 1.1Zm1-2c.3 0 .6 0 .9-.2 0-.3 0-.6-.3-.8q-.4.4-.6 1Z"/>
  <path fill="#f2f3f3" d="M119.7 113.5v.4a42.3 42.3 0 0 1-1.6 3.4c-1.1-1.5 0-3.6 1.6-3.7Z"/>
  <path fill="#fff" d="M118.9 118.1c0-.6.3-1 .9-1.1.4 0 .8-.4 1.3-.3.3.3.4.7.4 1.1-.6.7-1.4.7-2.2.5l-.5-.2Z"/>
  <path fill="#f2f3f3" d="m122.4 116.9-1.1-2.7v-.4c1.2.8 1.6 1.8 1.1 3.1Z"/>
  <path fill="#1a1618" d="M122.5 103.8h.1c-.5 1-1.3 1.2-2 .4-.2-.2-.4-.3-.7-.2l.3-.3.6.6c.4.3 1 .3 1.3 0l.3-.3Z"/>
  <path fill="#fe122e" d="m122.5 103.8-.3.3c-.4.3-.9.4-1.3 0l-.6-.6-.3.3-.7.4c-.6.2-1.1 0-1.2-.8v-.4l.3-.2c1.4-.2 2.7-.3 4.1 0 .2.2.1.5.2.7Z"/>
  <path fill="#faab8c" d="M118.2 102.7c.1-.8.7-1.2 1.5-1.2h1.1c.7.1 1.2.5 1.3 1.3-1-.1-2.1-.2-3.2 0h-.7Z"/>
  <path fill="#1a1618" d="M118.2 102.7h.7c1.1-.1 2.1 0 3.2 0l.2.3a9.5 9.5 0 0 0-4.1 0v-.3Z"/>
  <path fill="#f2f3f3" d="M120 116.2q.2-.6.6-1c.2.2.3.5.3.8-.3.2-.5.3-.9.2Z"/>
  <path fill="url(#c)" d="M335.7 0v132.9l-155.9 17.6L0 170.8V0h335.7z" opacity=".9"/>
  <path fill="#f6a621" d="M336.3 121.6v1.9l-.3.4.1.3h-.4v69.5l-119.3-43.8-24.8-9.1 84.6-15.7 1.8-.3 6.4-1.2 2-.4 8.7-1.6L320 117l2.1-.4 11.5-2.1 2-.4v7.5h.5Z" filter="url(#d)"/>
  <path fill="#d1cfd1" d="M312.7 26.2a201 201 0 0 1 18.3 8.3l4.9 2.5v-4.6c-4.4-2.2-8.8-4.4-13.4-6.4l-7.4-3.2c-1.1-.4-2.2-1-3.4-1.1-1 1.6-2.3 1.7-3.5 0l-1 .1-6.4 2.5-8.3 3.6-5 2.5-5.2 2.5-10.7 5.5-5.7 3-3.3 1.8-5.7 3.3-5.7 3.2-6.5 3.9-8.4 5.2L230 63c-3.1 2.2-6.2 4.3-9.2 6.6l-9.3 7-4.3 3.3-3.8 3.1-3.3 2.9-4.1 3.5c-2.9 2.8-5.8 5.5-8.4 8.7-.7.8-1.2 1.7-1.5 2.6.5 0 .9-.2 1.4-.5l-.2-.4 3.4-2.4.4-.3.7-.5.2-.1.7-.7 17-13.1.6-.4 1.3.9 1.1 1 5.5 4.1.2.6c1.2.3 1.9 1.4 2.9 2.1l-.1.6c.5 0 1-.2 1.5.2l8 6 .3.4 1.2.9 12.5 9.3 14.6 10.9 14.6 10.9 1.3 1 1.1 1.4h7v-.2c-.2 0-.3-.1-.2-.4v-1.6h-5.4c0-1.3.4-2.4.9-3.4 1-2.5 1.9-5 3.1-7.4l5.4-11 5.2-9.5 4.6-8.2 1.3-2.1 4-.1-1.4-.2h-2.2v-.6l9.9-16.4.2-.2c.2-.5.4-1 .9-1.4.5.6 1 1.3 1.2 2.1l4.1 6.7.1.5 2.1 3.3 2.9 4.8c.2.3.4.7.3 1.1l1 1.1 5.6 9.7 5.4 9.5 3 5.5.8 1.6v-1.7a67 67 0 0 0-2-3.7l-7-12.5-5.2-9-.2-.5-2-3.2a110.1 110.1 0 0 1-4.2-7.4l-4.7-7.9-.3-.3-.8-1.1-.8.8-2.1 3.5-8.7 14.4c-.3.6-.6 1.2-1.2 1.5l-.5 1.4-3.2 5.6-1.9 3.3-2.7 4.9-5.2 9.8c-1.5 3-2.8 6.1-4.2 9.1 0 .2-.2.3-.4.6a2 2 0 0 1-.1-1.5l1.3-6.1 2-9.3a178 178 0 0 1 1.7-7c.7-2.5 1.5-5.1 2-7.6.2-.9.7-1.3 1.4-1.6h-.8c0-.3 0-.6.2-.9l5.2-15.7 2.5-7c.2-.6.4-1.1 1-1.4-.2-.2-.4-.4-.2-.7l1.4-3.6.1-.5.3-.3c-.2-.6.2-1.2.4-1.7l7.3-18.8.9-1.9.8-2.3 1.9-4.7A158 158 0 0 1 310 26c.6.6.7 1.2.9 1.8l.7 1.8 1.6 3.6 1.9 4.9 2.2 5.5 6.1 15.7.6 1.9c.7 1.2 1 2.6 1.6 3.9l-.7.2c1 .4 1.4 1.2 1.5 2.2l1.3 3.2c2.2 6.2 4.4 12.4 6.3 18.8l.3 1.1 1.8 6.4v-3l-.4-1.4c-.1-.4-.2-.9.2-1.2-.4-.3-.8-.6-.9-1.1-2.2-7.8-5-15.4-7.7-23.1l-.2-.6c0-.2 0 0 0 0h.1v-.2l-.6-.7-1.1-3 .1-.6c-.6-.3-.7-.9-1-1.5l-5.1-13.3-2.4-6.1-.6-1.9-1.2-2.9-3.5-8.7c-.2-.5-.5-.9-.4-1.6.6-.1 1 .2 1.4.4Zm-34.2 98.1v-.1h.2v.1Zm29.8-96.2L304 38.6l-1.9 5.1-6 15.7c-.2.6-.4 1.3-.9 1.7 0 1.1-.6 2.1-.9 3.1l-.5 1.3-.9.6q.7.1.4.7l-.3.7-.8 2.7c-2.2 6-4.3 12.1-6.2 18.2l-.4 1.6c0 .4-.3.7-.6.9.1 1-.2 1.8-.5 2.7l-2.9 11.1c-1.3 5.2-2.4 10.5-3.4 15.7l-1.6 9-.1.5c-.1.4-.6.6-1 .4l-.4-.3-2.2-1.7-3.6-2.8-2.9-2.2-6.8-5-6.4-4.9-3.8-2.8-5.1-3.9-10-7.5c-.6-.5-1.3-.8-1.6-1.6-.3 0-.7 0-.9-.3l-1-.8-1-.8-.7-.5-1.6-1.2h-.1v-.2l-3.7-2.5.4-.6c-.6 0-1.2-.2-1.7-.6L221 89c-.2-.2-.2-.5-.3-.7-.3 0-.7 0-.9-.2l-5.7-4.4c-.9-.5-1.7-1.2-2.6-1.9l1-.9c11.5-9.6 24-17.7 36.9-25.2a833.2 833.2 0 0 1 30.8-17 289 289 0 0 1 28.2-13.2l1.2-.4c-.4 1-.6 1.9-1.1 2.7Z"/>
  <path fill="#1e83e7" d="M221.3 91.8c.5 0 1-.2 1.5.2a555.5 555.5 0 0 0 8.3 6.4l-2.6 1.4c-.6.4-1.2.5-1.9.4-6.5-.3-12.9.3-19.2 2.2h-.3c-1.4.7-2.9.6-4.3.4l-7.9-.8-1-.1.6-.5 10.1-3.6h.5v3.8l.2.2h.1c.7-1.5 1.6-3 2.6-4.3.2-.2.2-.6.4-.9l4.6-1.7 8.3-3Z"/>
  <path fill="#fe122e" d="m187.6 100.6-.2-.4 3.4-2.4.4-.3c.4 0 .6-.1.7-.5l.2-.1c.6 0 1-.2 1.5-.5l6.8-4.3L212 85l.9-.3 5.5 4.1.2.6-7 2.5-18.5 6.8-5.5 2.1Z"/>
  <path fill="#d1cfd1" d="M326.3 132.8h-31.7l-1.3-.1-.1-.2.2-.4v-1.5l.4-.5c.5.6 1.2.3 1.9.3H326v1.4l.3.7Z"/>
  <path fill="#120f0b" d="M311.7 21.8c-1 1.6-2.3 1.7-3.5 0l1.2-15.6.3-3.6c.2-.2.4-.2.7 0l.8 10.8.6 8.4Z"/>
  <path fill="#faab8c" d="M326.3 132.8h1.5c0-.8.2-1.5.3-2.2l.3-.7c.5-.7 1-1.1 1.9-.8l1.3.1c1.1 0 1.8.4 2.1 1.4v2.2l-.4.5a2 2 0 0 1-2.1 1c-1.3-.1-2.6-.2-3.6-1.2l-1.3-.4Z"/>
  <path fill="#d33484" d="M292.3 132.9c-.1 1-.9 1.5-1.6 1.9a6.1 6.1 0 0 1-5.6.5c-.4-.7-.8-1.5-.7-2.4h1.3l.3.4c.4.8 1.1 1.1 1.9 1l2.3-.2c.7 0 1.2-.5 1.4-1.2h.8Zm35.3.3c1 1 2.4 1 3.6 1.2.8 0 1.6-.2 2.1-1l.4-.5h1.7v.7c-.4 1.6-1.3 2.2-2.8 2.2-1.3 0-2.4-.4-3.6-.9-.8-.3-1.2-.9-1.4-1.7Z"/>
  <path fill="#0c6ad0" d="M208.5 96.6c-.1.3-.2.7-.4.9-1 1.3-1.9 2.8-2.6 4.3h-.1l-.2-.2v-3.8l3.4-1.2Z"/>
  <path fill="#9c9c9c" d="M310.3 2.6c-.2-.2-.4-.2-.7 0V1l.1-1 .5.5v2.1Z"/>
  <path fill="#1a1618" d="M285.8 132.8h-2.5v-.2h1.3l1.2-.3v.6Zm50.4-.1h-.3l-.4.2h-1.7v-.3h2.3l.1.2Zm-43.9.2h-.8v-.4h1.5l.1.2-.9.2Z"/>
  <path fill="#fe122e" d="M335.9 47.2v18.4l-4.7-1.8-5.7-2.1c-.6-.3-.7-.9-1-1.5l-5.1-13.3-2.4-6.1-.6-1.9c.6-.1 1.2.2 1.7.4l6.2 2.7 6.4 2.7 3.6 1.6 1.6.7Zm-32-8.6-1.9 5.1-6 15.7c-.2.6-.4 1.3-.9 1.7l-1.7.5-65.3 24-7.7 2.9c-.3 0-.7 0-.9-.2l-5.7-4.4.6-.5 6.4-3.7 7.2-4.2 6.9-3.8 7.4-4 .6-.3 8-4.3c6.7-3.4 13.4-6.9 20.3-10l9.7-4.5 8.7-3.9 11-4.8 3.4-1.3Z"/>
  <path fill="#e50229" d="m303.9 38.6-3.4 1.3-11 4.8-8.7 3.9-9.7 4.5c-6.9 3.1-13.5 6.6-20.3 10-2.7 1.3-5.3 2.9-8 4.3l-.6.3-7.4 4-6.9 3.8-7.2 4.2-6.4 3.7-.6.5c-.9-.5-1.7-1.2-2.6-1.9l1-.9c11.5-9.6 24-17.7 36.9-25.2a833.2 833.2 0 0 1 30.8-17A289 289 0 0 1 308 25.7V28l-4.3 10.5Zm27.1-4.1 4.9 2.5v10.2l-1.6-.7-3.6-1.6-6.4-2.7-6.2-2.7c-.6-.3-1.1-.6-1.7-.4l-1.2-2.9-3.5-8.7c-.2-.5-.5-.9-.4-1.6.6-.1 1 .2 1.4.4a201 201 0 0 1 18.3 8.3Z"/>
  <path fill="#1e83e7" d="M335.9 69.2v22h-.2c-.4-.4-.8-.6-.9-1.2-2.2-7.8-5-15.4-7.7-23.1l-.2-.6c0-.2 0 0 0 0h.1v-.2l8.2 3 .6.2Zm-51.1 21.7-4.5 1.8a40.2 40.2 0 0 0-28.7 4.7 32 32 0 0 0-19.1.5c-.3 0-.7 0-.9-.3l-2.7-2.1.5-.6c1.4-2.4 2.7-4.9 4.6-7l.2-.6.7-.4 10.4-3.7 5.4-1.9v2l.1 1.8.2 1.8c0 1.3-.1 2.6.3 3.9V95l.4 1.2.6-1.6.4-1.4a55.2 55.2 0 0 1 9.7-15.2c.3-.3.5-.6.4-1l.9-.4 7-2.5 8-2.9.4 7.7v.5c.3.7.3 1.5.2 2.3 0 2.2.5 4.4.4 6.6v.5l.2 2.1v1.2l.2-.4c.9-4.4 2.6-8.5 4.6-12.5l2.5-4.4c1.3-2.4 2.9-4.5 4.4-6.8l.3-.4h.5l-.8 2.7c-2.2 6-4.3 12.1-6.1 18.2l-.4 1.6c0 .4-.3.7-.6.9Zm2.3-.6h-.8c0-.4 0-.7.2-1l5.2-15.7 2.5-7c.2-.6.4-1.1 1-1.4l1.6-.5 11.6-4.2.1.6.2 6.5.1 1.8-2.1 3.5-8.7 14.4c-.3.6-.6 1.2-1.2 1.5-3.3 0-6.5.6-9.7 1.4Zm34.4-1.8-2-3.2a110.1 110.1 0 0 1-4.2-7.4l.6-.5c1-1.6 2.3-3 3.6-4.3l.4-.5.6-.6 1.6-1.4c1.3-1.3 2.7-2.4 4.3-3.3l1.3 3.2c2.2 6.2 4.4 12.4 6.3 18.8l.3 1.1-1.6-.4a37 37 0 0 0-11-1.5Z"/>
  <path fill="#fe122e" d="M315 37.9a90 90 0 0 1 2.2 5.5l6 15.7.6 1.9-6.1-2.3-6.7-2.6v-1c0-5.6.2-11.1.3-16.7v-1.5l1.6.4 2 .6Z"/>
  <path fill="#0c6ad0" d="M326.3 67.4c-1.5.9-3 2.1-4.3 3.3l-1.6 1.4-.6.6-.4.5a24.9 24.9 0 0 0-3.6 4.3l-.6.5-4.7-7.9.1-.8c0-2.5.2-4.9.3-7.4l.1-1.6 4.8 1.7 9 3.2c1 .4 1.4 1.2 1.5 2.2Z"/>
  <path fill="#fe122e" d="M296.7 60.1c-.2-.6.2-1.2.4-1.7l7.3-18.8.9-1.9 1.4-.4c.5-.2.9-.3 1.4-.3v.8l.1 17.7v.7l-10.3 3.7c-.4.1-.8.4-1.2.2Z"/>
  <path fill="#0c6ad0" d="m278.9 71.2 5.7-2.1 8.2-3q.7.1.4.7c-.4.1-.4.4-.3.7h-.5l-.3.4c-1.5 2.2-3.1 4.4-4.4 6.8-.8 1.5-1.8 2.9-2.5 4.4-2 4-3.7 8.1-4.6 12.5l-.2.4v-1.2l-.2-2.1v-.5c.2-2.2-.4-4.4-.4-6.6 0-.8 0-1.5-.2-2.3v-.5l-.4-7.7Z"/>
  <path fill="#0b0a06" d="M308.3 56.2v-.7l-.1-17.7v-7.2l1.9-4.8c.6.6.7 1.2.9 1.8l.7 1.8-.1.3v8.7l-.3 16.7v5.2l-.1 1.6c0 2.5-.2 4.9-.3 7.4l-.1.8-1.1-1.5-.8.8-.1-1.8-.2-6.5-.1-.6v-4.3Z"/>
  <path fill="#1e83e7" d="m305.6 89.1-3.6-.3-1.4-.2h-2.2V88l9.9-16.4.2-.2v1.1l.3 9.1.3 8.1-1.8-.4.8-6c.2-.8.5-1.5.4-2.6l-.5 1.1-.4 1.6-.3.7v.3l-.3.7v.3l-.3.7-1.1 3.2Zm14.6-.6c-2.2 0-4.4.2-6.6.5l-1.7-5.1 1.7-3.2c.3-.6.6-1.1 1.2-1.4l2.1 3.3 2.8 4.8c.2.3.4.7.3 1.1Z"/>
  <path fill="#0c6ad0" d="M314.9 79.3c-.6.3-.9.9-1.2 1.4l-1.7 3.2a22 22 0 0 1-.9-2.1c-.2.9 0 1.4 0 2l.8 5.5-1.9.4.2-4.6.4-11.7v-1.3l4.1 6.7.1.5Z"/>
  <path fill="#e50229" d="m212.9 84.6-.9.3-11.6 7.1-6.8 4.3c-.5.3-.9.6-1.5.5l.7-.7 17-13.1.6-.4 1.3.9 1.1 1Z"/>
  <path fill="#120f0b" d="M310.7 72.1v1.3l-.4 11.7-.2 4.6c-.1 1.6 0 3.2-.4 4.7v.1h-.2l-.2-4.9-.3-8.1-.3-9.1v-1.1c.2-.5.4-1 .9-1.4.5.6 1 1.3 1.2 2.1Z"/>
  <path fill="#0c6ad0" d="m226.6 90 7.6-2.7c0 .2 0 .5-.2.6-1.9 2.1-3.2 4.5-4.6 7l-.5.6-1.6-1.2-.2-.2c0-1.4 0-2.8-.4-4.1Z"/>
  <path fill="#e50229" d="M311.4 36.9v-7.2l.1-.3 1.6 3.6 1.9 4.9-2-.6-1.6-.4Zm-3.3-6.3V37c-.5 0-1 0-1.4.3l-1.4.4.8-2.3 1.9-4.7Z"/>
  <path fill="#1e83e7" d="M226.6 90c.5 1.3.3 2.7.4 4.1l-3.6-2.5.3-.6 2.9-.9Z"/>
  <path fill="#0b0a06" d="m285.7 132.2-1.2.3h-1.3l-.2-.3v-1c.9-.5 1.9-.5 2.8 0v1Zm50.6 0-.2.4h-2.3v-1.7h2.5v1.3Z"/>
  <path fill="#1a1618" d="M308.2 28.1v-2.3l1.2-.4c-.4 1-.6 1.9-1.1 2.7Zm-22.5 103.1c-.9-.5-1.9-.5-2.8 0v-.6h2.9v.6Zm50.6-.6v.3h-2.5v-.3h2.5Z"/>
  <path fill="#e50229" d="M191.9 96.9c0 .4-.3.6-.7.6l.7-.6Z"/>
  <path fill="#fff" d="M278.4 124.4h-.1v-.1h.2Z"/>
  <path fill="#1e83e7" d="M292.8 67.5c0-.3 0-.6.3-.7l-.3.7Z"/>
  <path fill="#e50229" d="m191.2 97.5-.4.3.4-.3Z"/>
  <path fill="#fe122e" d="M296.7 60.1c0 .3-.2.2-.3.3l.3-.3Z"/>
  <path fill="#1e83e7" d="m227.1 94.2.2.2h-.1v-.2Z"/>
  <path fill="#1a1618" d="m282.9 132.2.2.3c-.2 0-.3-.1-.2-.3Z"/>
  <path fill="#d33484" d="M285.8 130.6h-1.7l.4-1.9c.3-1.9.9-3.7 2.1-5.1 2.3-2.9 4.7-5.8 7.5-8.3 1-.9 2.2-1.6 3.3-2.4l1.3 5.2-1.2-.5c-.7-.3-1.1 0-.9.8 0 .4.3.7.5 1l1.1 1.8c.2.3.2.7-.3 1.1h-1.5c-.9 0-1.2.5-.9 1.3l.2.4c.4.9.4 1.8-.2 2.6l-.5 1c0 .3 0 .7.3.9l-1.4 1.6-.4.5h-1.9l-.4-.7c-.4-.7-1-1-1.8-.8l-1.6.1c-1 0-1.7.4-1.9 1.4Z"/>
  <path fill="#1a1618" d="M325.9 130.6h2.1l-.3 2.1h-1.6c-.1-.2-.3-.4-.3-.7v-1.4Z"/>
  <path fill="#0b0a06" d="M293.1 132.5h-1.5v-1.6h1.8v1.3l-.2.4Z"/>
  <path fill="#1a1618" d="M293.3 130.9h-1.8v-.3h1.9v.2Z"/>
  <path fill="#d33484" d="m328 130.6-1.7-.1-1.8-2.1c0-.9 0-1.7-.7-2.4-.4-.3-.3-.8-.2-1.2l.4-.9c.2-.5.2-.9-.1-1.5a21 21 0 0 1-2.5-.2c.2-1.5.3-1.6.9-2.5l.8-1.4c0-.2 0-.5-.2-.7a.5.5 0 0 0-.7 0c-.6.2-.9.8-1.6.8l1.5-5.9a24 24 0 0 1 6.1 4.9l3.4 3.8c2.3 2.4 3.7 5.1 4.1 8.4l.2 1h-2.1c-.3-1-1.1-1.4-2.1-1.4l-1.3-.1c-.9-.3-1.5.1-1.9.8l-.3.7Z"/>
  <path fill="#faab8c" d="M291.5 130.6v2.1c-.2.7-.6 1.1-1.4 1.2l-2.3.2c-.8 0-1.5-.3-1.9-1l-.3-.4v-2.2c.3-1 .9-1.4 1.9-1.4l1.6-.1c.8-.2 1.4.1 1.8.8l.4.7Z"/>
  <path fill="#0c6ad0" d="m250.8 81.3 3.7-1.4 7.4-2.7 1.1-.3c0 .4-.2.7-.4 1a60.9 60.9 0 0 0-6.2 8.2 30.6 30.6 0 0 0-3.5 7l-.4 1.4-.6 1.6-.4-1.2v-4.2c-.4-1.3-.2-2.6-.3-3.9L251 85l-.1-1.8v-2Z"/>
  <path fill="#0b0a06" d="M320.3 111.3c-.4 0-.6 0-.8.4l-1.3 2.1c-.8 1.4-1.4 2.9-2.2 4.2-.5.8-.9 1.6-1.5 2.3a6.1 6.1 0 0 1-4.7 2.3c-1.5 0-2.8-.5-3.9-1.5-1-.9-1.7-2-2.3-3.2l-3-5.9c-.2-.4-.4-.8-.9-.9l-2.2 1.5 1.3 5.2 1.4 5.2.1 1 .3.3c1.9 2.7 4.6 4 7.8 4h2.6c3 0 5.4-1.3 7.3-3.6l.9-1.1 1.4-5.6 1.5-5.9a25 25 0 0 1-1.7-1.2Zm-4.7 14a7.9 7.9 0 0 1-4.7 1.9c-1.8.2-3.5 0-5.2-.6-1.1-.4-2-.9-2.7-1.8-.5-.6-.5-.8 0-1.5l.7-.8.6.2c3.3 2 6.7 2 10.2.4l.7-.3 1.1 1.3c0 .6-.3.9-.6 1.2Z"/>
  <path fill="#fe122e" d="m305.6 89.1 1.1-3.2c.3-.2.3-.4.3-.7v-.3c.3-.2.3-.4.3-.7v-.3c.3-.2.3-.4.3-.7h.6l-.8 6c-.3 2.2-.7 4.4-.9 6.7l-.9 7.8a7.7 7.7 0 0 0-3.3 5.7l-.2.6-.9.4-1.5.7c.4-2.8 1.1-5.6 1.9-8.4l4-13.6Z"/>
  <path fill="#d33484" d="m299.7 111.1 1.5-.7.9-.4.3 2.4c.3 2.2 1.1 4.3 2.5 6 2.3 3 6.6 3.7 9.6 0a12 12 0 0 0 2.2-4.7l.5-4.1 1.4.5 1 .5.8.6c-.4 0-.6 0-.8.4l-1.3 2.1-2.2 4.2c-.4.8-.9 1.6-1.5 2.3a6.1 6.1 0 0 1-4.7 2.3c-1.5 0-2.8-.5-3.9-1.5-1-.9-1.7-2-2.3-3.2l-3-5.9c-.2-.4-.4-.8-.9-.9l.1-.2Z"/>
  <path fill="#fe122e" d="m319.5 110.7-1-.5-1.4-.5v-.8a6.4 6.4 0 0 0-3.4-5.5l-.1-1.5-1.6-12.6-.8-5.5c0-.6-.3-1.1 0-2l.9 2.1 1.7 5.1a603 603 0 0 1 3.8 12.6c.9 3 1.6 6 2.1 9.1Z"/>
  <path fill="#bc2475" d="M308.2 83.3h-.6l.4-1.6c0-.3.3-.6.5-1.1.2 1.1-.2 1.9-.4 2.6Zm-1.3 1.9c0 .3 0 .5-.3.7l.3-.7Zm.7-1.9c0 .3 0 .5-.3.7l.3-.7Zm-.3.9c0 .3 0 .5-.3.7l.3-.7Zm-8.7 33.8 1.4 5.2.1 1-5 4.4c-.3-.2-.4-.5-.3-.9 0-.4.2-.8.5-1 .6-.8.7-1.7.2-2.6l-.2-.4c-.3-.8 0-1.3.9-1.3h1.5c.4-.4.4-.8.3-1.1l-1.1-1.8-.5-1c-.1-.7.3-1 .9-.8l1.2.5Zm20.5 5.9 1.4-5.6c.7 0 1-.6 1.6-.8.3 0 .6-.2.7 0 .1.2.3.5.2.7l-.8 1.4c-.6.8-.7 1-.9 2.5l2.5.2c.4.5.3 1 .1 1.5l-.4.9c-.2.4-.2.9.2 1.2.8.7.8 1.5.7 2.4-.5-.4-1.1-.7-1.6-1.2l-3.8-3.3Zm-4-1.1 1.1 1.3c0 .6-.3.9-.6 1.2a7.9 7.9 0 0 1-4.7 1.9c-1.8.2-3.5 0-5.2-.6-1.1-.4-2-.9-2.7-1.8-.5-.6-.5-.8 0-1.5l.7-.8.6.2c3.3 2 6.8 2 10.2.4l.7-.3Z"/>
  <path fill="#d1cfd1" d="M317 108.9c-.2-2.4-1.2-4.3-3.4-5.4-.7-.2-1.4-.6-2.2-.6-2-.2-4-.1-5.9 1a7.7 7.7 0 0 0-3.3 5.7l-.2.6.3 2.4c.3 2.2 1.1 4.3 2.5 6 2.3 3 6.6 3.7 9.6 0a12 12 0 0 0 2.2-4.7l.5-4.1v-.8Zm-1.4 2.9c.2.9-.2 1.8-.7 2.5l-.3.6c0 .8-.3 1.5-1 2l-.3.7-.3.3c0 .8-.7 1.1-1.4 1.5-.7.4-1.5.6-2.4.4a5.7 5.7 0 0 1-3.8-2.6c-.6-1-1.3-2-1.4-3.3-.2-.7-.6-1.4-.2-2.2l-.3-1c.5-.3.8-.1 1.1 0 1.4 0 2.7.5 4 .4 1.5 0 2.9-.3 4.3-.6l1.1-.2c.6-.2 1.1-.4 1.8-.3 0 .5.2 1-.4 1.4Z"/>
  <path fill="#faab8c" d="M304 114c-.2-.7-.6-1.4-.2-2.2q.6 0 .8-.9c1.3 0 2.7.5 4 .4 1.5 0 2.9-.3 4.3-.5l1.1-.2c.2.9.2.9 1.2 1l.3.2c.2.9-.2 1.8-.7 2.5l-.3.7c-.5.5-.8 1.2-1 2l-.4.7-.3.3-.5.4c-1.5 1.3-3 1.3-4.7.3-1.3-.8-2.2-2-2.7-3.4-.2-.6-.5-1-1-1.2Z"/>
  <path fill="#9c9c9c" d="M304 114c.5.3.8.7 1 1.2a6.5 6.5 0 0 0 2.7 3.4c1.7 1.1 3.1 1 4.7-.3l.5-.4c0 .8-.7 1.1-1.4 1.5-.7.4-1.5.6-2.4.4a5.7 5.7 0 0 1-3.8-2.6c-.6-1-1.3-2-1.4-3.3Z"/>
  <path fill="#1a1618" d="m315.6 111.8-.3-.2c-.9 0-.9 0-1.2-1 .6-.2 1.1-.4 1.8-.3 0 .5.2 1-.4 1.4Zm-10.9-.8q-.2.8-.8.9l-.2-1c.5-.3.8-.1 1.1.1Z"/>
  <path fill="#9c9c9c" d="M313.6 117c.2-.8.5-1.4 1-2 0 .8-.3 1.5-1 2Zm1-2 .3-.7-.3.7Zm-1.4 2.7.4-.7-.4.7Zm-.3.3.3-.4-.3.4Z"/>
  <path fill="#9f1f21" d="M.7 8.6h158.4V37H.7z"/>
  <path fill="#f6a621" d="M12.2 97.1v9.3l12.1-5.7 2.5-1.2-8.6-2.1H18l-.7-.2h-.2l-.9-.3-2.5-.6h-.2l-1.2-.3h-.2v.9Zm.1 32.5v9.3l12.1-5.7 2.5-1.2-8.6-2.1h-.2l-.7-.2h-.2l-.9-.3-2.5-.6h-.2l-1.2-.3h-.2v.9Z"/>
  <path fill="#fff" d="M23.3 221c-5.2 0-9.3 4.2-9.3 9.3s.7 4 1.8 5.5l7.5 13 7.5-13a9.3 9.3 0 0 0-7.5-14.8Zm0 13.6c-2.3 0-4.1-1.8-4.1-4.1s1.8-4.1 4.1-4.1 4.1 1.8 4.1 4.1-1.8 4.1-4.1 4.1Z"/>
  <path fill="none" stroke="#f6a621" stroke-miterlimit="10" d="M8.9 218.7h318.6v69H8.9z"/>
  <g fill="#fff" data-name="PRINT">
    <path d="M30.3 13.9c0 .5-.2 1-.6 1.4l-6.3 6.3-6.8-3.9v-3.8c0-1.1.9-2 2-2s2 .9 2 2v4.9l6.3-6.3c.8-.8 2.1-.8 2.8 0 .4.4.6.9.6 1.4Zm-.6 17.8c-.4.4-.9.6-1.4.6s-.5 0-.8-.2l-.6-.4-2.1-2.1-4.1-4.1v4.9c0 1.1-.9 2-2 2s-2-.9-2-2v-3.8l6.8-3.9 4.2 4.2 2.1 2.1c.8.8.8 2.1 0 2.8ZM23 22s0-.2-.2-.2l-1.7-1-4.6-2.6-3.9-2.2a.5.5 0 0 0-.6.2v11.9c0 .3.2.5.5.5h.2l3.9-2.2 6.3-3.6.1-.2v-.3Zm-9.6-4.7 3 1.7 4.9 2.8.1.1v.3s0 .2-.2.2l-4.9 2.8-3 1.7-.5-.1v-9.3c0-.2.2-.3.3-.3h.2Z"/>
    <path d="m20.1 22.2-.1.2-3.7 2.1-2.3 1.3h-.4v-6.9c0-.1.1-.3.3-.3h.1l2.3 1.3L20 22l.1.2v.1Zm43.1-.6-5.6-2.8-3.4-1.7c-.2-.1-.4 0-.5.2v9.5c.1.2.3.4.6.4h.4l3.2-1.8 2-1.1 3.5-1.9.2-.2V22l-.2-.2Zm-5.6 2.8L55 25.8l-.4-.1v-7.3c0-.2 0-.3.2-.3h.1l2.7 1.3 1 .5 3.4 1.7.2.2v.2l-.1.1-4.3 2.3Z"/>
    <path d="m60.8 22-.1.1-3.2 1.7-2 1.1h-.3v-5.4c0-.1 0-.2.2-.2l2 1 3.3 1.6.1.1v.1Zm-21.6-4.8h-4.9v9.7h2.4v-3.2h2.5c2.3 0 4.1-1.4 4-3.4 0-1.9-1.8-3.2-4.1-3.2Zm-.2 4.6h-2.3v-2.7H39c1.1 0 1.9.5 1.9 1.3s-.8 1.4-1.9 1.4ZM52.4 27l-7.7.1-.1-9.7h2.3l.1 7.8 5.4-.1V27zm15.8-3.7v3.5h-2.3v-3.5l-4.3-6.1 2.7-.1 2.7 4.2 2.8-4.2 2.5-.1-4.1 6.3zm14.4 3.9-1.6.1-4.2-4.5-1.6 1.6v2.9H74l-.1-9.6h1.2V23l5.5-5.4h1.6l-4.5 4.5 4.9 5.1zm6.1-9.9c-3 0-5.5 2.3-5.5 5.1 0 2.7 2.6 5 5.6 4.9 3 0 5.5-2.4 5.5-5.1 0-2.7-2.6-5-5.6-4.9Zm.4 9a4.3 4.3 0 0 1-4.6-3.9 4.3 4.3 0 0 1 8.5-.1 4.2 4.2 0 0 1-3.9 4Zm14.7-1.8c0 1.5-1.2 2.8-3.8 2.8-1.6 0-3.1-.5-4.3-1.5l.8-.9c1 .9 2.2 1.4 3.5 1.4 1.7 0 2.5-.9 2.5-1.7 0-1-1-1.4-2.9-1.8-2.2-.4-3.5-1-3.6-2.7 0-1.5 1.5-2.8 3.6-2.8 1.4 0 2.7.4 3.8 1.3l-.7.9c-.9-.8-2-1.2-3.1-1.2-1.3 0-2.3.8-2.3 1.7 0 1 1.1 1.3 2.9 1.7 2.1.4 3.5 1.1 3.6 2.8Zm12.9 2.7h-1.2l-.1-7.3-4 6.8-4-6.7v7.3l-1.2.1-.1-9.7h1.2l4.1 6.7 3.9-6.8h1.3l.1 9.6zm7.7-9.9c-3 0-5.5 2.3-5.5 5.1 0 2.7 2.6 5 5.6 4.9 3 0 5.5-2.4 5.5-5.1 0-2.7-2.6-5-5.6-4.9Zm.4 9a4.3 4.3 0 0 1-4.6-3.9 4.3 4.3 0 0 1 8.5-.1 4.2 4.2 0 0 1-3.9 4Zm14.8-1.8c0 1.5-1.3 2.8-3.8 2.8-1.5 0-2.9-.4-4.1-1.3l-.2-.2.8-.9.5.4c.9.6 1.9 1 3 .9 1.7 0 2.5-.9 2.5-1.7 0-.8-.6-1.2-1.6-1.5l-1.2-.3h-.2c-2.2-.4-3.5-1-3.6-2.7 0-1.5 1.5-2.8 3.6-2.8 1.4 0 2.7.4 3.8 1.3l-.7.9c-.9-.8-2-1.2-3.1-1.2-1.3 0-2.3.8-2.3 1.7 0 1 1.1 1.3 2.9 1.7.4 0 .8.2 1.1.3l1 .4c.9.4 1.5 1.1 1.5 2.1Z"/>
  </g>
</svg>
