<svg xmlns="http://www.w3.org/2000/svg" xmlns:xlink="http://www.w3.org/1999/xlink" width="335" height="335" data-name="Layer 1">
  <defs>
    <radialGradient id="d" cx="167.5" cy="167.5" r="205.43" fx="167.5" fy="167.5" gradientUnits="userSpaceOnUse">
      <stop offset="0" stop-color="#059f1b"/>
      <stop offset="1" stop-color="#023b12"/>
    </radialGradient>
    <radialGradient id="c" cx="276.63" cy="121.8" r="18.07" fx="276.63" fy="121.8" gradientUnits="userSpaceOnUse">
      <stop offset="0" stop-color="#1b1c1c"/>
      <stop offset=".42" stop-color="#181919"/>
      <stop offset=".73" stop-color="#0f0f0f"/>
      <stop offset="1"/>
    </radialGradient>
    <radialGradient id="a" cx="37.48" cy="196.62" r="56.54" fx="37.48" fy="196.62" gradientUnits="userSpaceOnUse">
      <stop offset="0" stop-color="#fbd400"/>
      <stop offset=".39" stop-color="#fad100"/>
      <stop offset=".68" stop-color="#fac700"/>
      <stop offset=".93" stop-color="#f9b700"/>
      <stop offset="1" stop-color="#f9b200"/>
    </radialGradient>
    <radialGradient xlink:href="#a" id="f" cx="119.38" r="56.92" fx="119.38"/>
    <radialGradient id="h" cx="42.62" cy="272.88" r="18.07" fx="42.62" fy="272.88" gradientUnits="userSpaceOnUse">
      <stop offset="0" stop-color="#e23333"/>
      <stop offset=".33" stop-color="#df2f2f"/>
      <stop offset=".65" stop-color="#d92323"/>
      <stop offset=".95" stop-color="#ce1010"/>
      <stop offset="1" stop-color="#cc0d0d"/>
    </radialGradient>
    <radialGradient id="b" cx="295.61" cy="308.36" r="18.07" fx="295.61" fy="308.36" gradientUnits="userSpaceOnUse">
      <stop offset="0" stop-color="#a50404"/>
      <stop offset=".4" stop-color="#a20303"/>
      <stop offset=".69" stop-color="#980202"/>
      <stop offset=".94" stop-color="#800"/>
      <stop offset="1" stop-color="#840000"/>
    </radialGradient>
    <radialGradient xlink:href="#a" id="k" cx="167.5" cy="57.34" r="119.21" fx="167.5" fy="57.34"/>
    <radialGradient xlink:href="#b" id="l" cx="280.3" cy="262.3" r="40.96" fx="280.3" fy="262.3"/>
    <radialGradient xlink:href="#c" id="n" cx="311.28" cy="6.52" r="13.11" fx="311.28" fy="6.52"/>
    <radialGradient xlink:href="#a" id="o" cx="263.14" cy="77.92" r="18.07" fx="263.14" fy="77.92"/>
    <radialGradient id="p" cx="317.34" cy="30.59" r="17.86" fx="317.34" fy="30.59" gradientUnits="userSpaceOnUse">
      <stop offset="0" stop-color="#640a99"/>
      <stop offset=".46" stop-color="#610996"/>
      <stop offset=".79" stop-color="#57068c"/>
      <stop offset="1" stop-color="#4d0382"/>
    </radialGradient>
    <radialGradient id="q" cx="290.45" cy="54.25" r="18.07" fx="290.45" fy="54.25" gradientUnits="userSpaceOnUse">
      <stop offset="0" stop-color="#11a51d"/>
      <stop offset=".46" stop-color="#0fa21a"/>
      <stop offset=".79" stop-color="#099812"/>
      <stop offset="1" stop-color="#038e0a"/>
    </radialGradient>
    <radialGradient id="r" cx="256.31" cy="42.44" r="18.07" fx="256.31" fy="42.44" gradientUnits="userSpaceOnUse">
      <stop offset="0" stop-color="#ef6406"/>
      <stop offset=".41" stop-color="#ee6105"/>
      <stop offset=".71" stop-color="#ea5703"/>
      <stop offset=".97" stop-color="#e54700"/>
      <stop offset="1" stop-color="#e54600"/>
    </radialGradient>
    <radialGradient id="s" cx="249.48" cy="12.51" r="15.54" fx="249.48" fy="12.51" gradientUnits="userSpaceOnUse">
      <stop offset="0" stop-color="#0947c6"/>
      <stop offset=".35" stop-color="#0945c3"/>
      <stop offset=".61" stop-color="#093eb9"/>
      <stop offset=".84" stop-color="#0a34a9"/>
      <stop offset="1" stop-color="#0b2999"/>
    </radialGradient>
    <radialGradient id="t" cx="283.62" cy="18.77" r="18.07" fx="283.62" fy="18.77" gradientUnits="userSpaceOnUse">
      <stop offset="0" stop-color="#fff"/>
      <stop offset=".43" stop-color="#fcfdfd"/>
      <stop offset=".74" stop-color="#f2fafa"/>
      <stop offset="1" stop-color="#e4f4f4"/>
    </radialGradient>
    <radialGradient xlink:href="#a" id="u" cx="283.62" cy="18.77" r="16.92" fx="283.62" fy="18.77"/>
    <radialGradient xlink:href="#a" id="v" cx="79.87" cy="240.46" r="9.65" fx="79.87" fy="240.46"/>
    <radialGradient xlink:href="#a" id="w" cx="88.46" cy="231.91" r="2.88" fx="88.46" fy="231.91"/>
    <radialGradient xlink:href="#a" id="x" cx="83.31" cy="237.06" r="5.94" fx="83.31" fy="237.06"/>
    <filter id="e" data-name="drop-shadow-11" filterUnits="userSpaceOnUse">
      <feOffset dx="3" dy="3"/>
      <feGaussianBlur result="uuid-36c0def4-9d5c-419f-8dd7-6d95b4dfe72e" stdDeviation="3"/>
      <feFlood flood-color="#000" flood-opacity=".75"/>
      <feComposite in2="uuid-36c0def4-9d5c-419f-8dd7-6d95b4dfe72e" operator="in"/>
      <feComposite in="SourceGraphic"/>
    </filter>
    <filter id="g" data-name="drop-shadow-12" filterUnits="userSpaceOnUse">
      <feOffset dx="3" dy="3"/>
      <feGaussianBlur result="uuid-c689e146-f2b5-49ee-8939-8dcddf3c4b72" stdDeviation="3"/>
      <feFlood flood-color="#000" flood-opacity=".75"/>
      <feComposite in2="uuid-c689e146-f2b5-49ee-8939-8dcddf3c4b72" operator="in"/>
      <feComposite in="SourceGraphic"/>
    </filter>
    <filter id="i" data-name="drop-shadow-13" filterUnits="userSpaceOnUse">
      <feOffset dx="3" dy="3"/>
      <feGaussianBlur result="uuid-527054b4-074a-4a55-892f-a2b7722b7c93" stdDeviation="3"/>
      <feFlood flood-color="#000" flood-opacity=".75"/>
      <feComposite in2="uuid-527054b4-074a-4a55-892f-a2b7722b7c93" operator="in"/>
      <feComposite in="SourceGraphic"/>
    </filter>
    <filter id="j" data-name="drop-shadow-14" filterUnits="userSpaceOnUse">
      <feOffset dx="3" dy="3"/>
      <feGaussianBlur result="uuid-93123199-3214-445d-b1f0-197ef939ded5" stdDeviation="3"/>
      <feFlood flood-color="#000" flood-opacity=".75"/>
      <feComposite in2="uuid-93123199-3214-445d-b1f0-197ef939ded5" operator="in"/>
      <feComposite in="SourceGraphic"/>
    </filter>
    <filter id="m" data-name="drop-shadow-15" filterUnits="userSpaceOnUse">
      <feOffset dx="3" dy="3"/>
      <feGaussianBlur result="uuid-18da4c35-b67f-4e79-a314-5b34200a53a5" stdDeviation="3"/>
      <feFlood flood-color="#000" flood-opacity=".75"/>
      <feComposite in2="uuid-18da4c35-b67f-4e79-a314-5b34200a53a5" operator="in"/>
      <feComposite in="SourceGraphic"/>
    </filter>
  </defs>
  <path fill="url(#d)" d="M0 0h335v335H0z"/>
  <g filter="url(#e)">
    <path fill="url(#c)" d="M293.7 127.71a18.07 18.07 0 1 1-34.15-11.84 18.07 18.07 0 0 1 34.15 11.84Z"/>
    <circle cx="276.63" cy="121.8" r="7.81" fill="#e4f4f4"/>
    <path fill="#2c2c2d" d="M275.27 121.08a1.73 1.73 0 0 1-.41-.66 1.5 1.5 0 0 1 .03-.89c.17-.5.55-.83 1.13-.98a2.7 2.7 0 0 1 1.58.14c.8.28 1.33.63 1.61 1.07a1.48 1.48 0 0 1-.32 2.02c-.17.13-.41.24-.71.32.27.27.44.55.51.86.07.31.05.62-.06.93s-.27.55-.5.77a1.9 1.9 0 0 1-.71.43c-.25.07-.53.09-.85.05a4.48 4.48 0 0 1-.98-.23 3.82 3.82 0 0 1-1.37-.73 1.7 1.7 0 0 1-.53-.92c-.07-.35-.05-.7.08-1.06s.31-.62.55-.8c.25-.19.56-.29.95-.3Zm.17 1.62a.92.92 0 0 0 .02.73c.1.22.26.37.46.44s.41.05.62-.07c.22-.12.37-.3.46-.56s.09-.51-.01-.73c-.1-.22-.26-.37-.46-.44s-.41-.05-.62.06a.98.98 0 0 0-.46.58Zm.98-2.54a.75.75 0 0 0 .02.57c.08.17.23.29.45.37.19.07.37.06.53-.03a.68.68 0 0 0 .35-.42.7.7 0 0 0-.44-.93.69.69 0 0 0-.92.44Z"/>
  </g>
  <path fill="url(#a)" d="M12.74 191.59a64.47 64.47 0 0 0 0 10.06 65.32 65.32 0 0 0 62.21 60.22v5.39a70.7 70.7 0 0 1-66.93-59.61H0v-6h7.34a69.81 69.81 0 0 1 0-10.06H0v-6h8.02a70.7 70.7 0 0 1 66.93-59.61v5.39a65.32 65.32 0 0 0-62.21 60.22Z"/>
  <path fill="url(#f)" d="M157.97 204.65a3 3 0 0 1-3 3h-7.26a70.7 70.7 0 0 1-66.93 59.61v-5.39a65.32 65.32 0 0 0 0-130.5v-5.39a70.7 70.7 0 0 1 66.93 59.61h7.26c1.65 0 3 1.35 3 3s-1.35 3-3 3h-6.58a69.81 69.81 0 0 1 0 10.06h6.58a3 3 0 0 1 3 3Z"/>
  <g filter="url(#g)">
    <path fill="url(#h)" d="M59.69 278.79a18.06 18.06 0 1 1-34.14-11.82A18.06 18.06 0 0 1 59.7 278.8Z"/>
    <circle cx="42.62" cy="272.88" r="7.81" fill="#e4f4f4" transform="rotate(-57.81 42.62 272.87)"/>
    <path fill="#2c2c2d" d="m42.25 271.34-1.47-.82c.3-.45.69-.75 1.15-.89a2.77 2.77 0 0 1 1.71.15c.78.27 1.29.61 1.54 1.02a1.45 1.45 0 0 1-.31 1.91 1.9 1.9 0 0 1-.83.33c.21.14.36.26.46.38.16.19.25.4.29.64.04.24.01.49-.08.77a2.06 2.06 0 0 1-1.66 1.36c-.4.05-.88-.02-1.44-.21s-.95-.4-1.22-.64a2.06 2.06 0 0 1-.58-.83 2.7 2.7 0 0 1-.15-1.09l1.73.35c-.05.36-.03.62.06.8.09.18.24.3.46.37.22.08.44.06.64-.05s.35-.3.45-.57.1-.52 0-.72a.83.83 0 0 0-.5-.43 2.26 2.26 0 0 0-.57-.09l.5-1.15a.8.8 0 0 0 .21.09c.22.08.42.07.62-.02.19-.09.32-.23.39-.42s.06-.35-.01-.49c-.07-.15-.2-.25-.39-.32s-.37-.06-.54.01c-.16.08-.32.25-.46.53Z"/>
  </g>
  <g filter="url(#i)">
    <path fill="url(#b)" d="M312.68 314.26a18.05 18.05 0 1 1-34.13-11.8 18.05 18.05 0 0 1 34.13 11.8Z"/>
    <circle cx="295.61" cy="308.35" r="7.81" fill="#e4f4f4"/>
    <path fill="#2c2c2d" d="m294.22 304.53 4.84 1.68-.39 1.12c-.55.23-1.05.52-1.48.87-.53.42-1.01.92-1.43 1.51a9.57 9.57 0 0 0-.95 1.71l-1.65-.57c.47-.93.96-1.67 1.46-2.24a9.65 9.65 0 0 1 2.06-1.66l-2.95-1.02.48-1.4Z"/>
  </g>
  <g filter="url(#j)">
    <path fill="#efbb67" d="M335 156.17v20.36l-25.61-57.51-6.09-13.67 4.26-1.92.71-.32h.01l2.24-1.01 6.17 13.64L335 156.17Z"/>
    <path fill="#fbd798" d="M335 162.44v14.09l-25.61-57.51-6.09-13.67 4.26-1.92.71-.32h.01l6.15 13.65L335 162.44Z"/>
    <path fill="#a11" d="m305.24 90.44-7.15 3.21-1.41-3.17c-1.2-2.69-1.4-5.21-.46-5.63l3.69-1.66c.94-.42 2.68 1.41 3.9 4.09l1.43 3.16Z"/>
    <path fill="#bc2626" d="M296.21 84.85c-.94.42-.73 2.94.46 5.63l1.41 3.17 4.93-2.21-3.61-8.02-3.19 1.43Z"/>
    <path fill="#bae9f4" d="m316.69 115.74-7.3 3.28-12.17-27.34 7.13-3.2 12.34 27.27Z"/>
    <path fill="#e4f4f4" d="m297.21 91.67 12.17 27.34 5.03-2.26-12.29-27.29-4.92 2.21Z"/>
  </g>
  <g fill="#fff" data-name="PRINT">
    <path d="M29.59 13.92c0 .53-.21 1.03-.59 1.4l-6.34 6.34-6.78-3.92v-3.85a2.01 2.01 0 0 1 4.02 0v4.86l6.27-6.27a2.02 2.02 0 0 1 3.43 1.43Zm-.6 17.76a1.99 1.99 0 0 1-2.84 0l-2.13-2.13-4.15-4.14v4.86a2 2 0 0 1-4.01 0v-3.84l6.8-3.91 4.2 4.2 2.13 2.13a2 2 0 0 1 0 2.83Zm-6.63-9.72a.43.43 0 0 0-.18-.24s-.02 0-.03-.02l-1.71-.99-4.57-2.64L12 15.84c-.23-.13-.5-.06-.62.16a.41.41 0 0 0-.07.23v11.71a.45.45 0 0 0 .68.39l3.87-2.23 6.28-3.62.07-.05a.4.4 0 0 0 .12-.17.47.47 0 0 0 .02-.31Zm-9.56-4.72 3 1.74 4.87 2.81c.06.04.1.08.13.13.05.09.06.19.03.27a.36.36 0 0 1-.16.21l-4.87 2.82-3 1.74a.36.36 0 0 1-.48-.13c-.04-.05-.05-.11-.05-.18v-9.09c0-.2.15-.35.35-.35.07 0 .12 0 .18.05Z"/>
    <path d="M19.46 22.16a.28.28 0 0 1-.12.16l-3.66 2.12-2.26 1.3a.26.26 0 0 1-.36-.1.33.33 0 0 1-.04-.13v-6.84c0-.15.12-.27.27-.26.05 0 .09.01.13.03l2.26 1.31 3.66 2.12c.06.03.1.09.12.15v.15Zm43.05-.53-5.59-2.81-3.44-1.73a.4.4 0 0 0-.54.15.58.58 0 0 0-.06.17l.11 9.29c.03.22.23.38.45.36.06 0 .11-.03.16-.06l.22-.11 3.19-1.7 1.96-1.05 3.55-1.89a.4.4 0 0 0 .18-.22.26.26 0 0 0 0-.21.4.4 0 0 0-.19-.21Zm-5.59 2.84-2.64 1.41c-.15.09-.35.05-.43-.1a.28.28 0 0 1-.04-.13l-.09-7.21c.02-.17.17-.3.34-.28.05 0 .08.02.13.04l2.67 1.34.96.48 3.38 1.7c.07.03.12.08.15.16v.15s0 .02-.02.03a.24.24 0 0 1-.12.14l-4.29 2.28Z"/>
    <path d="M60.13 22.02a.22.22 0 0 1-.11.12l-3.22 1.72-1.99 1.06a.23.23 0 0 1-.32-.08.16.16 0 0 1-.03-.09l-.07-5.42c0-.13.12-.23.25-.22a.2.2 0 0 1 .1.03l2.01 1.01 3.26 1.64c.05.02.09.07.11.12v.12Zm-21.62-4.84-2.14.03-2.71.04.03 2.65.08 7.02 2.31-.03-.04-3.13 2.54-.04c2.35-.03 4.05-1.4 4.04-3.31-.03-1.91-1.77-3.25-4.11-3.22Zm-.2 4.64-2.29.03-.04-2.73 2.3-.03c1.15 0 1.93.52 1.94 1.34 0 .84-.77 1.38-1.91 1.39Zm13.45 5.14-7.7.1-.12-9.67 2.33-.03.1 7.8 5.37-.08.02 1.88zm15.78-3.69.04 3.49-2.34.03-.04-3.49-4.3-6.13 2.7-.03 2.74 4.21 2.75-4.27 2.59-.04-4.14 6.23zm14.37 3.97-1.58.02-4.15-4.45-1.68 1.63.03 2.9-1.23.01-.11-9.67 1.22-.01.07 5.35 5.4-5.43 1.62-.01-4.49 4.47 4.9 5.19zm6.07-9.9c-2.98.04-5.5 2.35-5.47 5.07.04 2.71 2.59 4.98 5.59 4.95 3-.04 5.49-2.37 5.45-5.09-.03-2.71-2.59-4.97-5.58-4.93Zm.39 8.98a4.29 4.29 0 0 1-4.62-3.93 4.3 4.3 0 0 1 8.56-.11 4.3 4.3 0 0 1-3.94 4.04Zm14.81-1.8c.02 1.54-1.25 2.81-3.77 2.83a6.18 6.18 0 0 1-4.26-1.48l.76-.87a5.07 5.07 0 0 0 3.55 1.35c1.67-.02 2.51-.85 2.5-1.72 0-1.03-1.04-1.43-2.93-1.79-2.18-.43-3.55-1.01-3.57-2.69-.02-1.55 1.5-2.78 3.58-2.8a5.66 5.66 0 0 1 3.8 1.33l-.74.86a4.74 4.74 0 0 0-3.11-1.2c-1.34.02-2.3.82-2.29 1.71 0 1 1.08 1.34 2.92 1.71 2.07.41 3.55 1.06 3.57 2.76Zm12.83 2.7-1.22.02-.1-7.3-3.92 6.79-4.08-6.7.08 7.31-1.23.02-.11-9.68 1.22-.01 4.09 6.69 3.93-6.79 1.22-.01.12 9.66zm7.7-9.88c-2.98.04-5.5 2.35-5.47 5.07.04 2.71 2.59 4.98 5.59 4.95 3-.04 5.49-2.37 5.45-5.09-.04-2.71-2.59-4.97-5.58-4.93Zm.39 8.98a4.3 4.3 0 0 1-4.63-3.93 4.3 4.3 0 0 1 8.57-.11 4.3 4.3 0 0 1-3.94 4.04Zm14.81-1.8c.02 1.54-1.26 2.81-3.77 2.83a6.2 6.2 0 0 1-4.27-1.48l.76-.87a5.04 5.04 0 0 0 3.56 1.35c1.66-.02 2.51-.85 2.49-1.72 0-.75-.55-1.16-1.58-1.47-.33-.1-.72-.2-1.15-.28-.07 0-.13-.03-.2-.04-2.17-.43-3.55-1.01-3.57-2.69-.02-1.55 1.51-2.78 3.59-2.8a5.7 5.7 0 0 1 3.8 1.33l-.74.86a4.76 4.76 0 0 0-3.12-1.2c-1.33.02-2.3.82-2.29 1.71.02 1 1.09 1.34 2.93 1.71.38.08.75.16 1.09.26.37.1.69.23.99.38.92.43 1.48 1.08 1.49 2.12Z"/>
  </g>
  <path fill="url(#k)" d="M335 51.98H231.49l1.85 10.37H335v4.7H234.18a7.97 7.97 0 0 1-7.84 9.37H0V38.26h222.36a7.97 7.97 0 0 1 7.84 6.56l.44 2.46H335v4.7Z"/>
  <path fill="url(#l)" d="M335 243.22v38.16H233.57a7.97 7.97 0 0 1-7.84-9.37h-.1l.87-4.7h.07l1.85-10.37 1.31-7.06a8.14 8.14 0 0 1 8.01-6.66H335Z"/>
  <path fill="#038e0a" d="M297.83 56.81a7.8 7.8 0 1 1-14.76-5.11 7.8 7.8 0 0 1 14.76 5.11Z"/>
  <path fill="#11a51d" d="M297.83 56.81a7.8 7.8 0 1 1-14.76-5.11 7.8 7.8 0 0 1 14.76 5.11Z"/>
  <path fill="#fbd400" d="m268.06 25.31.35.8.23.08-.58-.88Zm23.74 8.22c-.33.12-.67.23-1 .33l.23.08.77-.41Z"/>
  <g filter="url(#m)">
    <path fill="url(#n)" d="m328.63 0-.28.88A18.07 18.07 0 0 1 293.93 0h34.7Z"/>
    <path fill="#e4f4f4" d="M317.25 0a7.79 7.79 0 0 1-11.96 0h11.96Z"/>
    <path fill="#840000" d="M283.64 0a17.99 17.99 0 0 1-13.69 0h13.69Z"/>
    <path fill="#a50404" d="M278.99 0c-1.31.16-2.67.16-4.04 0h4.04Z"/>
    <path fill="url(#o)" d="M280.21 83.83a18.07 18.07 0 1 1-34.15-11.84 18.07 18.07 0 0 1 34.15 11.84Z"/>
    <circle cx="263.14" cy="77.92" r="7.81" fill="#e4f4f4" transform="rotate(-70.91 263.13 77.92)"/>
    <path fill="#2c2c2d" d="M264.53 75c-.3.32-.66.55-1.06.69-.4.15-.91.22-1.54.2l-.47 1.36a5.53 5.53 0 0 0 2.04-.26l-1.37 3.98 1.67.58 2.1-6.07-1.37-.48Z"/>
    <path fill="url(#p)" d="M335 25.22v10.72l-.18.55a18.05 18.05 0 0 1-30.81 5.82 18.03 18.03 0 0 1-3.32-17.63 18.04 18.04 0 0 1 24.18-10.69A18.03 18.03 0 0 1 335 25.22Z"/>
    <circle cx="317.76" cy="30.59" r="7.81" fill="#e4f4f4"/>
    <path fill="#2c2c2d" d="m320.67 28.2-1.45-.5-4.26 2.54-.47 1.36 3.02 1.05-.39 1.11 1.45.5.38-1.11.75.26.45-1.29-.75-.26 1.27-3.66Zm-2.72 3.16-1.59-.55 2.24-1.32-.65 1.87Z"/>
    <path fill="url(#q)" d="M304.01 42.31a17.92 17.92 0 0 0-8.95-5.52 18.06 18.06 0 1 0 8.95 5.52Zm-6.18 14.5a7.8 7.8 0 1 1-14.76-5.11 7.8 7.8 0 0 1 14.76 5.11Z"/>
    <path fill="#e4f4f4" d="M297.83 56.81a7.8 7.8 0 1 1-14.76-5.11 7.8 7.8 0 0 1 14.76 5.11Z"/>
    <path fill="#2c2c2d" d="M291.35 53.45c-.27-.1-.53-.13-.77-.11-.24.03-.5.11-.77.24.28-.63.5-1.02.68-1.17.24-.22.5-.29.77-.19.15.05.25.14.32.27s.09.32.05.56l1.72.37c.02-.35-.03-.67-.14-.94a1.76 1.76 0 0 0-.52-.72 3.19 3.19 0 0 0-1.07-.56 2.59 2.59 0 0 0-2.14.1c-.63.35-1.13 1.06-1.5 2.13a4.47 4.47 0 0 0-.29 1.89c.06.52.24.95.53 1.27.29.33.73.6 1.33.81.5.17.94.23 1.33.18.38-.06.73-.21 1.03-.48.29-.26.51-.58.65-.98.2-.58.18-1.13-.05-1.63a1.9 1.9 0 0 0-1.16-1.04Zm-.38 2.17c-.11.33-.27.55-.48.67a.77.77 0 0 1-.63.06.84.84 0 0 1-.5-.48 1.2 1.2 0 0 1 .02-.85c.11-.32.27-.53.49-.65a.77.77 0 0 1 .66-.06c.23.08.39.24.48.46.09.23.08.52-.04.85Z"/>
    <path fill="url(#r)" d="M273.38 48.34a18.05 18.05 0 1 1-11.81-23.19c.22.07.44.13.65.21a18.07 18.07 0 0 1 11.16 22.98Z"/>
    <circle cx="256.31" cy="42.44" r="7.81" fill="#e4f4f4"/>
    <path fill="#2c2c2d" d="m259.1 41.49.46-1.33-3.94-1.36-1.63 3.03 1.34.69c.18-.11.34-.17.47-.18a.97.97 0 0 1 .51.04c.25.09.42.24.52.46.09.21.08.5-.04.86-.12.34-.29.58-.5.7a.77.77 0 0 1-.66.07.8.8 0 0 1-.46-.4 1.03 1.03 0 0 1-.08-.71l-1.74-.4c0 .31.01.58.06.81a2.13 2.13 0 0 0 .91 1.25 4 4 0 0 0 .97.46c.55.19 1.03.25 1.45.19.42-.07.78-.25 1.1-.53.31-.29.53-.63.67-1.02a1.9 1.9 0 0 0-.09-1.55 2.15 2.15 0 0 0-1.26-1.05c-.18-.06-.37-.1-.56-.12-.2-.02-.4 0-.62.01l.45-.85 2.67.93Z"/>
    <path fill="url(#s)" d="M266.55 12.86A18.06 18.06 0 1 1 232.8 0h33.35a17.99 17.99 0 0 1 .4 12.86Z"/>
    <path fill="#e4f4f4" d="M256.86 9.51A7.81 7.81 0 1 1 245.93 0h7.1a7.8 7.8 0 0 1 3.83 9.51Z"/>
    <path fill="#2c2c2d" d="M252.42 5.48a1.78 1.78 0 0 0-.56-.88c-.27-.24-.7-.47-1.29-.67a3.56 3.56 0 0 0-1.38-.24c-.37.03-.68.14-.95.35-.26.2-.51.52-.73.97l1.61.7c.16-.32.34-.52.52-.61a.77.77 0 0 1 .58-.02c.21.07.35.2.44.37.09.18.11.36.04.54a.9.9 0 0 1-.38.46c-.21.14-.61.31-1.22.5-1 .31-1.72.64-2.16.97s-.77.74-1 1.21l4.98 1.72.47-1.35-2.59-.9a9.52 9.52 0 0 1 1.36-.48c.69-.2 1.21-.43 1.54-.68.32-.26.55-.57.68-.94.11-.34.13-.68.04-1.02Z"/>
    <path fill="url(#t)" d="M300.69 24.68a18.07 18.07 0 0 1-34.14-11.82 18.05 18.05 0 1 1 34.14 11.82Z"/>
    <path fill="url(#u)" d="M300.69 24.68a18 18 0 0 1-8.14 9.78l-5.72-1.98h-.01l-14.2-4.92-5.73-1.98a18.04 18.04 0 0 1 7.79-22.51l.95.33 24.71 8.55c1.6 3.92 1.84 8.41.35 12.73Z"/>
    <circle cx="283.62" cy="18.77" r="7.81" fill="#e4f4f4" transform="rotate(-70.91 283.61 18.78)"/>
    <path fill="#2c2c2d" d="M286.38 17.71a2.3 2.3 0 0 0-.53-1.28c-.29-.33-.73-.6-1.33-.8-.5-.17-.94-.23-1.32-.18-.39.05-.73.21-1.03.47s-.52.59-.66.99c-.2.58-.18 1.12.05 1.63a1.99 1.99 0 0 0 1.93 1.14c.25-.02.5-.1.77-.23-.28.62-.5 1.01-.68 1.17-.24.22-.5.28-.76.19a.54.54 0 0 1-.33-.28c-.07-.13-.09-.31-.05-.56l-1.72-.36c0 .35.03.66.14.94.11.27.28.51.52.72.23.2.59.38 1.07.55.8.28 1.51.24 2.14-.1.63-.34 1.13-1.05 1.5-2.13a4.4 4.4 0 0 0 .29-1.88Zm-1.69.29c-.11.32-.27.54-.48.65a.8.8 0 0 1-.67.06.76.76 0 0 1-.48-.46c-.09-.23-.07-.51.04-.84.12-.33.28-.56.48-.67a.7.7 0 0 1 .63-.06c.23.08.4.24.5.48.1.24.09.52-.02.84Z"/>
    <path fill="#efbb67" d="m332.31 42.72-63.96 55.84a13.3 13.3 0 0 1-13.24 2.58 13.3 13.3 0 0 1-8.82-10.22L230.54 7.49c-.48-2.55-.2-5.15.74-7.49h-5.16a18.3 18.3 0 0 0-.39 8.4l15.75 83.43a18.14 18.14 0 0 0 12.03 13.93 18.14 18.14 0 0 0 18.06-3.51L335 46.86v-7.37a13.81 13.81 0 0 1-2.69 3.23ZM330.88 0 335 21.38V0h-4.12Z"/>
    <path fill="#fbd798" d="M334.74 0H332l3 15.56V1.36L334.74 0Zm-1.71 43.55-63.95 55.84a14.38 14.38 0 0 1-14.33 2.79c-5-1.73-8.56-5.86-9.54-11.05L229.46 7.7c-.49-2.61-.25-5.27.65-7.7h-2.84c-.8 2.62-.98 5.43-.45 8.19l15.74 83.44a17.04 17.04 0 0 0 11.31 13.09 17.05 17.05 0 0 0 16.98-3.3l63.95-55.85.2-.19v-3.95c-.57.77-1.23 1.48-1.97 2.12Z"/>
  </g>
  <circle cx="77.86" cy="196.62" r="62.35" fill="#fff"/>
  <path fill="#fff" d="M242.86 116.55a3.93 3.93 0 0 0-3.18 6.27l3.18 5.51 3.18-5.51a3.94 3.94 0 0 0-3.18-6.27Zm0 5.75c-.96 0-1.74-.78-1.74-1.73a1.74 1.74 0 0 1 3.47 0c0 .95-.78 1.73-1.73 1.73Z"/>
  <path fill="url(#v)" d="M89.5 241.21v6.12a2.79 2.79 0 0 1-2.78 2.78H73a2.79 2.79 0 0 1-2.78-2.78v-13.74a2.79 2.79 0 0 1 2.78-2.78h6.24c.43 0 .77.35.77.77v.03c0 .43-.34.77-.77.77h-5.91a1.7 1.7 0 0 0-1.69 1.7v12.97c0 .93.76 1.7 1.69 1.7h12.95a1.7 1.7 0 0 0 1.69-1.7v-5.83a.77.77 0 0 1 1.54 0Z"/>
  <path fill="url(#w)" d="m90.08 234.8-4.5-4.51.33-.33a3.17 3.17 0 0 1 4.5 0 3.2 3.2 0 0 1 0 4.51l-.33.33Z"/>
  <path fill="url(#x)" d="m89.25 235.62-6.75 6.76-.29.04-4.35.58c-.25.03-.51-.23-.48-.48l.58-4.36.04-.29 6.75-6.76 4.5 4.51Z"/>
</svg>
