<svg xmlns="http://www.w3.org/2000/svg" xmlns:xlink="http://www.w3.org/1999/xlink" width="335" height="335" xmlns:v="https://vecta.io/nano"><style><![CDATA[.B{fill:#fff}.C{fill:none}.D{fill:#010101}.E{fill:#be1e2d}.F{fill:#401c0e}.G{fill:#431d0f}.H{fill:#451d0f}.I{fill:#481f0f}.J{fill:#491f0f}.K{fill:#4d200d}.L{fill:#50200d}.M{fill:#52210e}.N{fill:#53210e}.O{fill:#562410}.P{fill:#592410}.Q{fill:#5b250f}.R{fill:#5f260d}.S{fill:#60260c}.T{fill:#62280e}.U{clip-path:url(#I)}.V{fill:#a9804d}.W{fill:#ad8450}.X{fill:#b38753}.Y{fill:#b88b55}.Z{fill:#bc8f57}.a{fill:#c29359}.b{fill:#c7975a}.c{fill:#cb9a5d}.d{fill:#d09e61}.e{fill:#d6a262}.f{fill:#dca766}.g{fill:#e0ab68}.h{fill:#e6af6a}.i{fill:#eab26c}.j{fill:#f0b66f}.k{fill:#f4b870}.l{fill:#fabd73}.m{fill:#fdc176}.n{fill:#fec986}.o{fill:#fecd8d}.p{fill:#fece92}.q{fill:#fed097}.r{fill:#fed29b}.s{fill:#fed39e}.t{fill:#fed5a1}.u{fill:#fed6a4}.v{fill:#fed7a7}.w{fill:#ffd8a9}.x{fill:#ffdaac}.y{fill:#ffdbaf}.z{fill:#ffdcb1}.AA{fill:#ffddb3}.AB{fill:#ffdeb6}.AC{fill:#ffdfb7}.AD{fill:#ffe0b9}.AE{fill:#ffe1bb}.AF{fill:#ffe1bd}.AG{fill:#ffe2bf}.AH{fill:#39190e}.AI{fill:#3d1a0d}.AJ{fill:#3f1a0d}.AK{fill:#906d43}.AL{fill:#957144}.AM{fill:#997446}.AN{fill:#9e784a}.AO{fill:#a37c4b}.AP{fill:#ffe3c1}]]></style><defs><clipPath id="A"><path d="M0 0h335v335H0z" class="C"/></clipPath><mask id="B" x="-92.3" y="297.4" width="360.8" height="100.4" maskUnits="userSpaceOnUse"><path d="M127.3 297.4l-219.4.1-.2 9.6L-3 397.8l269-44 2.4-9-141.2-47.3z" class="D"/><path fill="#282727" d="M-92.2 307l.1-9.4 219.4-.1 141 47.3-2.3 9-269 44-89.2-90.8z"/><path fill="#464443" d="M-92.2 307l.2-9.4h219.3l141 47.2-2.3 8.8-269 44-89.3-90.7z"/><path fill="#686565" d="M-92 307v-9.3h219.2l141 47.2-2.3 8.7-268.8 44L-92 307z"/><path fill="#908d8d" d="M-92 307l.2-9 219-.1L268 345l-2.2 8.5-268.8 44-89-90.6z"/><path fill="#c0bdbd" d="M-92 307l.2-9 219-.1L268 345l-2.2 8.4-268.7 44-89-90.5z"/><path d="M-91.8 307l.1-9h219L268 345l-2.2 8.3-268.5 44-89-90.4z" class="B"/></mask><clipPath id="C"><path d="M133.4 301l-1 7a.4.4 0 0 0-.1-.3l-.3-.3-.6-.3-.8-.3-2.2-.7-2.6-.5-2.6-.3h-4l-.5.2c-.1.1-.1.1-.1.2l1-6.8c0-.1.1-.2.2-.3h4.6l2.6.4 2.6.5a11.6 11.6 0 0 1 2.2.6l.8.3.6.3.3.3c.1-.1.1 0 .1.1z" class="C"/></clipPath><clipPath id="D"><path d="M35.4 307.6l1-8c0-.2.1-.3.3-.4l.8-.3 1.3-.2h4.8l3 .4 2.8.6 2.2.7-1 8-2-.7-2.8-.6-3-.4H38l-1.3.3a1.2 1.2 0 0 0-.8.3z" class="C"/></clipPath><linearGradient id="E" x1="-96.2" y1="317.5" x2="263.8" y2="368.4" xlink:href="#Q"><stop offset="0" stop-color="#fff"/><stop offset="1" stop-color="#010101"/></linearGradient><radialGradient id="F" cx="67.3" cy="28.8" r="38.1" gradientTransform="matrix(0.99, 0.14, 0.14, -0.99, 4.69, 312.28)" xlink:href="#Q"><stop offset="0" stop-color="#97979a"/><stop offset="1" stop-color="#010101"/></radialGradient><linearGradient id="G" x1="-351.6" y1="1599.4" x2="-351.7" y2="1616" gradientTransform="matrix(1.6, -0.27, 0.06, 0.37, 541.42, -406.61)" xlink:href="#Q"><stop offset="0" stop-color="#fff" stop-opacity=".5"/><stop offset="1" stop-color="#fff" stop-opacity="0"/></linearGradient><linearGradient id="H" x1="283.9" y1="-410" x2="326.4" y2="-410" gradientTransform="matrix(0.99, 0.14, 0.14, -0.99, -208.43, -137.13)" xlink:href="#Q"><stop offset="0" stop-color="#f68b1f"/><stop offset="1" stop-color="#f04d23"/></linearGradient><clipPath id="I"><circle cx="124.5" cy="321.2" r="21.2" class="C"/></clipPath><linearGradient id="J" x1="605.1" y1="-290.7" x2="589.1" y2="-276.4" gradientTransform="matrix(0.07, 0.88, 1, -0.1, 352.29, -225.44)" xlink:href="#Q"><stop offset="0" stop-color="#010101"/><stop offset="1" stop-color="#ccc"/></linearGradient><radialGradient id="K" cx="717" cy="822.7" r="21.3" gradientTransform="matrix(-0.68, 0.55, 0.79, 0.96, -17.42, -880.24)" xlink:href="#Q"><stop offset="0" stop-color="#fff"/><stop offset="1" stop-color="#fff" stop-opacity="0"/></radialGradient><clipPath id="L"><path d="M192.8 346.2h-.5c-.2 0-.3.2-.5.3l-.4.6-.3.7c-.1.3-.1.6-.2 1s.1.6.1 1a2 2 0 0 0 .4.8.8.8 0 0 0 .5.5l-220.2-20v-.3a.8.8 0 0 0 .2-.4c0-.2.1-.4.1-.6v-1a.8.8 0 0 0-.1-.4c0-.1 0-.1-.1-.2h-.1z" class="C"/></clipPath><clipPath id="M"><path d="M192.3 351.3L-28.5 331h-.1v-.2c0-.1-.1-.2-.1-.4v-1a1.5 1.5 0 0 0 .1-.6l.2-.5c.1-.1.1-.2.2-.2h.1l221 18.4h.3a.1.1 0 0 0 .1.1 1.2 1.2 0 0 1 .5.5 2 2 0 0 1 .4.8v1a4.1 4.1 0 0 1-.1 1.1l-.3.7c-.1.3-.3.4-.4.6l-.5.3z" class="C"/></clipPath><path id="N" d="M191 348l-219-19h0 0 0 0l219 19h0 0 0 0 0z"/><path id="O" d="M191 348.6l-219-19.2h0 0 0 0l219 19.2h0 0 0 0 0z"/><path id="P" d="M194 349l-223-19.6h0 0 0 0L194 349h0 0 0 0 0z"/><linearGradient id="Q" gradientUnits="userSpaceOnUse"/></defs><g clip-path="url(#A)"><path fill="#006838" d="M0 0h335v335H0z"/><ellipse cx="128.2" cy="370.3" rx="78.8" ry="177.7" transform="matrix(.28 -.96 .96 .28 -263.2 389.6)" class="E"/><ellipse cx="126.6" cy="375.8" rx="78.8" ry="177.7" transform="matrix(.28 -.96 .96 .28 -269.6 392)" class="B"/><g mask="url(#B)"><path fill="#006838" d="M127.3 297.4l141.2 47.3L-1.7 382-92 297.5l219.4-.1z"/><path d="M36.3 308.7s5.3 2 8.6 1.8a9.8 9.8 0 0 0 5.6-2.2l34-3 35.3 2s3.2 2.3 10.6 1.5 12 1.6 12 1.6l-11.4-7.5-12.6-1.8-48.4.7-31 1-11.8 1.7z" fill="#1a0d0c"/><g clip-path="url(#C)"><path d="M133.4 301l-1 7a.4.4 0 0 0-.1-.3l-.3-.3-.6-.3-.8-.3h-.3l1.2-6.8h.2l.8.3.6.3.3.3c.1 0 .1.1.1.2z" fill="#37190e"/><path d="M131.4 300l-1.2 6.8h-.4c0-.1 0-.1-.1-.1l1-6.8h.6z" class="AH"/><path d="M130.8 299.7l-1 6.8h-.2a.1.1 0 0 0-.1-.1h-.1l1-6.8h.4z" class="AI"/><path d="M130.4 299.6l-1 6.8h-.4l1-6.8h.4z" class="AJ"/><path d="M130 299.5l-1 6.8h-.4l1-6.8h.2c0 .1 0 .1.1.1z" class="F"/><path d="M129.6 299.4l-1 6.8h-.4l1-6.8h.4z" class="G"/><path d="M129.2 299.3l-1 6.8h-.1a.1.1 0 0 1-.1-.1h-.2l1-6.8a.1.1 0 0 1 .1.1h.3z" class="H"/><path d="M128.8 299.2l-1 6.8h-.3l1-6.7h.4z" class="I"/><path d="M128.4 299.2l-1 6.7h-.4l1-6.8h.3z" class="J"/><path d="M128 299l-1 6.8h-.4l1-6.8h.1a.1.1 0 0 1 .1.1h.2z" class="K"/><path d="M127.7 299l-1 6.8h-.3l1-6.7h.4z" class="L"/><path d="M127.3 299l-1 6.7h-.4l1-6.8h.3z" class="M"/><path d="M127 299l-1 6.8h-.4l1-6.8h.4z" class="N"/><path d="M126.6 298.8l-1 6.8h-.2a.1.1 0 0 1-.1-.1l1-6.7h.4z" class="O"/><path d="M126.2 298.8l-1 6.7h-.4l1-6.8h.3z" class="P"/><path d="M126 298.7l-1 6.8h-.4l1-6.7h.4z" class="Q"/><path d="M125.5 298.7l-1 6.7h-.3l1-6.8h.4z" class="R"/><path d="M125 298.6l-1 6.8h-.5l1-6.8h.4z" class="S"/><path d="M124.7 298.6l-1 6.8h-1l1-6.8h1z" class="T"/><path d="M123.7,298.5l-1,6.8h-.1l1-6.8Z" fill="#63280f"/><path d="M123.6 298.5l-1 6.8h-1.4l1-6.8h1.3z" class="T"/><path d="M122.3 298.4l-1 6.8h-.7l1-6.8h.7z" class="S"/><path d="M121.6 298.4l-1 6.8h-.4l1-6.8h.5z" class="R"/><path d="M121 298.4l-1 6.8h-.1a.1.1 0 0 0-.1.1h-.2l1-6.8h.3z" class="Q"/><path d="M120.8 298.5l-1 6.8h-.3l1-6.8h.3z" class="P"/><path d="M120.5 298.5l-1 6.8h-.2l1-6.8h.2z" class="O"/><path d="M120.3 298.5l-1 6.8h-.2l1-6.8h.2z" class="N"/><path d="M120 298.6l-1 6.8h-.1l1-6.8h.2z" class="M"/><path d="M120 298.6l-1 6.8h-.2l1-7h.1z" class="L"/><path d="M119.8 298.6l-1 7h-.1l1-6.8h.1z" class="K"/><path d="M119.7 298.7l-1 6.8h-.1l1-6.8h.1z" class="J"/><path d="M119.6 298.8l-1 6.8h-.1l1-7h.1z" class="I"/><path d="M119.5 298.8l-1 7h0l1-6.8h0z" class="H"/><path d="M119.5 299l-1 6.8h0l1-7h.1z" class="G"/><path d="M119.4 299l-1 7h0 0 0 0l1-6.8h0 0 0 0 0z" class="F"/></g><path fill="#51210d" d="M121 300l-1 7-69.3 1.3 1-8 69.5-.4z"/><g clip-path="url(#D)"><path d="M51.6 300.4l-1 8h-.1c-.1 0-.1 0-.1-.1l1-8h.2z" fill="#37190e"/><path d="M51.4 300.3l-1 8H50a.1.1 0 0 1-.1-.1l1-8h.5z" class="AH"/><path d="M51 300l-1 8h-.2a.1.1 0 0 1-.1-.1h-.1l.8-8h.5z" class="AI"/><path d="M50.4 300l-.8 8h-.4l.8-8h.2c.1 0 .1 0 .1.1z" class="AJ"/><path d="M50 300l-.8 8h-.4l.8-7.8h.4z" class="F"/><path d="M49.6,299.8l-.8,7.8h-.3a.1.1,0,0,1-.1-.1l.8-7.8h.4Z" class="G"/><path d="M49.2 299.7l-.8 7.8H48c-.1 0-.1 0-.1-.1l.8-7.8h.4z" class="H"/><path d="M48.8 299.6l-.8 7.8h-.4l.8-8h.4z" class="I"/><path d="M48.4 299.5l-.8 8h-.4l.8-8h.4z" class="J"/><path d="M48 299.4l-.8 8c-.1 0-.1 0-.1-.1h-.3l.8-8h.4z" class="K"/><path d="M47.6 299.3l-.8 8h-.4l.8-8h.4z" class="L"/><path d="M47.2 299.2l-.8 8H46l1-7.8h.4z" class="M"/><path d="M46.8 299.2l-1 7.8h-.4l1-8h.4z" class="N"/><path d="M46.4 299l-1 8H45l1-8h.1a.1.1 0 0 0 .1.1h.2z" class="O"/><path d="M46 299l-1 8h-.4l1-7.8h.4z" class="P"/><path d="M45.6 299l-1 7.8h-.4l.8-8h.5z" class="Q"/><path d="M45 299l-.8 8h-.5l1-7.8h.4z" class="R"/><path d="M44.7 299l-1 7.8h-.5l.8-8h.6z" class="S"/><path d="M44 298.8l-.8 8H42l.8-8H44z" class="T"/><path d="M43 298.7l-.8 8H42l.8-8z" fill="#63280f"/><path d="M42.8 298.7l-.8 8h-1.7l.8-8h1.7z" class="T"/><path d="M41 298.6l-.8 8h-1l.8-8h1z" class="S"/><path d="M40.2 298.6l-.8 8h-.6a.1.1 0 0 1-.1.1l.8-8h.7z" class="R"/><path d="M39.5 298.6l-.8 8h-.5l.8-8h.5z" class="Q"/><path d="M39 298.7l-.8 8h-.4l.8-8h.4z" class="P"/><path d="M38.6 298.7l-.8 8h-.4l.8-8h.4z" class="O"/><path d="M38.2 298.7l-.8 8H37l.8-8h.3z" class="N"/><path d="M38 298.8l-.8 8a.1.1 0 0 0-.1.1h-.2l.8-8h.3z" class="M"/><path d="M37.6,298.8l-.8,8h-.2l.8-8h.2Z" class="L"/><path d="M37.4 299l-.8 8h-.3l1-8h.2z" class="K"/><path d="M37.2 299l-1 8h-.1l.8-8h.1c0-.1 0-.1.1-.1z" class="J"/><path d="M37 299l-1 8H36l.8-8h.2z" class="I"/><path d="M36.8 299l-.8 8h-.2l.8-8h.2z" class="H"/><path d="M36.6 299l-.8 8h-.1l.8-8h.1z" class="G"/><path d="M36.5,299.2l-.8,8h-.1l.8-8h.1Z" class="F"/><path d="M36.4 299.3l-.8 8h-.1l.8-8h.1z" class="AJ"/><path d="M36.3 299.4l-.8 8h0a.1.1 0 0 0-.1.1h0l1-8h0z" class="AI"/><path d="M36.3 299.5l-1 8h0 0 0 0l1-8h0 0 0v-.1h0z" class="AH"/></g><path fill="#35180e" d="M237.2 338l-2 9-105-38.4 1-7 106 36.5z"/><path fill="#51210d" d="M37.3 300.5l-.8 8-97.3 2 .4-9.5 97.7-.5z"/><path d="M-92 297.5h219.4l141.2 47.3L-1.7 382zm343 42.8l-3.7-1-3.7-.8-3.5-.4a12.2 12.2 0 0 0-2.7 0l-106-36.5h1.7c.4-.1.6-.2.6-.4s-.1-.3-.4-.5l-1.4-.6a11.6 11.6 0 0 0-2.2-.6l-2.6-.5-2.6-.4h-2.4l-1.7.2c-.4 0-.6.1-.7.3a.9.9 0 0 0 .3.5l1.4.6-69.5.4-2.2-.7-2.8-.6-3-.4h-3H38a3.9 3.9 0 0 0-1.4.4.4.4 0 0 0-.3.6c.1.2.4.4 1 .7l-97.7.5a5.7 5.7 0 0 0-1.9-.8l-3-.7-3.7-.5h-4.2a22.4 22.4 0 0 0-3.8.2l-2.7.4a2.6 2.6 0 0 0-1.5.8c-.2.2-.2.5.2 1a6.7 6.7 0 0 0 1.9.9l3 .7 4 .5h4.3l73 60a29.4 29.4 0 0 0-5 1 10.4 10.4 0 0 0-3.2 1.4 2.5 2.5 0 0 0-1.1 2.1 3.2 3.2 0 0 0 1.3 2.4 12.2 12.2 0 0 0 3.8 2.1 20.2 20.2 0 0 0 5.4 1.5 42 42 0 0 0 6.2.7 32.9 32.9 0 0 0 6.3-.3 17.4 17.4 0 0 0 5.1-1.2 7.2 7.2 0 0 0 2.9-1.8 2.6 2.6 0 0 0 .7-2.1 4.2 4.2 0 0 0-1.8-2.3l122.8-14.7a20.8 20.8 0 0 0 4 1.5 34.1 34.1 0 0 0 4.6 1 37.1 37.1 0 0 0 4.5.6 25.7 25.7 0 0 0 4-.1 6.7 6.7 0 0 0 2.5-.8 1 1 0 0 0 .6-1.1 2.2 2.2 0 0 0-1-1.5 14.1 14.1 0 0 0-2.8-1.5l75-9 3.8 1 4 .8 3.6.5h2.7c.8-.1 1.2-.2 1.4-.5s.1-.5-.2-.8a5.5 5.5 0 0 0-1.6-1.1l-3-1.2z" fill="#3f1c0e"/><path opacity=".5" fill="url(#E)" style="mix-blend-mode:overlay" d="M127.3 297.4l141.2 47.3L-1.7 382-92 297.5l219.4-.1z"/></g><path d="M109.6 312.5a25.5 25.5 0 1 1-21.8-28.4c14 2 23.7 14.7 21.8 28.4z" stroke="#010101" stroke-linejoin="round" stroke-width=".5" fill="url(#F)"/><g class="B"><path d="M86.5 302.2a10.6 10.6 0 0 1-10.4 9.1c-5-.1-8.6-4.4-8-9.6a10.5 10.5 0 0 1 10.5-9 8.1 8.1 0 0 1 7.8 9.5z"/><g fill-rule="evenodd"><path d="M61.3 301.6c3.4-5.8 4-8.5 9.5-12a24.3 24.3 0 0 1 13.4-4.6 30.8 30.8 0 0 1 9.1 1.9c-5.7-2.6-10.7-.5-17.6 2.3a41.2 41.2 0 0 0-14.4 12.5zm18 31.5s7 1.7 11 .5a32 32 0 0 0 12.9-8.3 27 27 0 0 0 5.8-10.3c.4-3 1-7.6.4-9.8l-1.7-5s1 6.5-.1 10.8a36 36 0 0 1-6.5 12.6c-3.8 5.3-5.5 6-10 8.4a24.7 24.7 0 0 1-12 1z" fill-opacity=".2"/></g></g><path d="M76.7 301.4a2.7 2.7 0 0 0-1.8-.7 2 2 0 0 0-1.4.6 1.6 1.6 0 0 0-.5 1.4 2.4 2.4 0 0 0 1.1 1.4 2.3 2.3 0 0 0 1.7.7 2.2 2.2 0 0 0 1.5-.6 1.6 1.6 0 0 0 .4-1.4 2.2 2.2 0 0 0-1-1.4m-1-1.4a3.4 3.4 0 0 1-.7-1.5c0-.5.5-1 1-1.4a2.6 2.6 0 0 1 2.1-.7 3.8 3.8 0 0 1 2.2 1.1 3.7 3.7 0 0 1 1.7 2.1 2 2 0 0 1-.5 1.9 2.7 2.7 0 0 1-1.4.7 2.9 2.9 0 0 1-1.8-.3 2.4 2.4 0 0 1 .8 1.6 4.6 4.6 0 0 1-.8 2.5 3.6 3.6 0 0 1-2.7.8c-1 0-1.8-.8-3-1.6s-1-1.8-1.2-2.6a2.4 2.4 0 0 1 .7-2.2 3.5 3.5 0 0 1 1.6-.8 4.8 4.8 0 0 1 2 .4m1-1.8a1.3 1.3 0 0 0-.4 1.2 2.7 2.7 0 0 0 1 1.2 2.4 2.4 0 0 0 1.5.6 2.1 2.1 0 0 0 1.3-.5 1.5 1.5 0 0 0 .4-1.2 2.4 2.4 0 0 0-1-1.3 3.3 3.3 0 0 0-1.7-.8c-.5 0-.7.4-1 .8" class="D"/><path d="M94.2 286.6c-1.3-1.6-6.8-3.2-14.5-2.3s-11.3 4.8-13 6.7c.3 1.8 6.5 1 14-.3s13.7-2.4 13.4-4z" fill="url(#G)"/><path d="M59,313.6a21.2,21.2,0,1,0-23.9,18.1A21.2,21.2,0,0,0,59,313.6" fill="url(#H)"/><path d="M45.5,319.7a10.1,10.1,0,1,0-11.4,8.5,10,10,0,0,0,11.4-8.5" class="B"/><path d="M37.7 315l-2.2 2h0a3.2 3.2 0 0 1 1.4.2 3.4 3.4 0 0 1 1.1.7 4.5 4.5 0 0 1 1.1 1.3 3.9 3.9 0 0 1 0 3 4.2 4.2 0 0 1-.9 1.4 5.3 5.3 0 0 1-1.4 1.2 5.3 5.3 0 0 1-1.7.4 5.5 5.5 0 0 1-1.8-.2 6 6 0 0 1-1.5-.9 5.3 5.3 0 0 1-1.2-1.4 3.4 3.4 0 0 1-.6-1.5 2.2 2.2 0 0 1 0-1.6 4 4 0 0 1 .8-1.6l2 1.7a2.3 2.3 0 0 0-.4 1.4 1.8 1.8 0 0 0 .8 1.3 1.4 1.4 0 0 0 .8.5h1l.8-.3.7-.6a3.5 3.5 0 0 0 .5-.8 2.8 2.8 0 0 0 .1-.9 1.3 1.3 0 0 0-.2-.8l-.5-.7a1.8 1.8 0 0 0-1.1-.5 2 2 0 0 0-1.1 0l-1.7-1.4 5.4-4.5 5.4 4.5-1.4 1.6-4-3.4z" class="D"/><path d="M35.7 296.6c9.8 1.4 17 9 17.8 17.7a13.1 13.1 0 0 0 2.1-5.5c1-7.7-4.8-14.8-13.2-16a15.6 15.6 0 0 0-12.7 3.8 24.1 24.1 0 0 1 6 0z" opacity=".5" class="B"/><g class="U D"><path d="M138 337.7a21.2 21.2 0 1 1 3-29.9 21.3 21.3 0 0 1-3 29.9z"/></g><g class="U"><path d="M138 337.7a21.2 21.2 0 1 1 3-29.9 21.3 21.3 0 0 1-3 29.9z" fill="#d91f26" opacity=".8"/><path d="M123 330.5c-5.8.6-11-3-11.4-8.3s4-10 9.8-10.5 11 3.2 11.4 8.4-4 10-9.8 10.4z" fill="url(#J)"/></g><path d="M125.2 324.2a2 2 0 0 1-.1 1.3 2.1 2.1 0 0 1-1 1.1 4.4 4.4 0 0 1-3.8.7 10.5 10.5 0 0 1-4.4-2.1 5.7 5.7 0 0 1-2-2.6 1.7 1.7 0 0 1 .7-2.1 1.8 1.8 0 0 1 1.3-.4 2.2 2.2 0 0 1 1.3.4 1.5 1.5 0 0 1 .6 1.1 1 1 0 0 1-.5.9l-1 .6-1 .3a.5.5 0 0 0 .3.4 1.7 1.7 0 0 0 .6.6l1 .6 1.2.2a3 3 0 0 0 1.3-.2 6.6 6.6 0 0 0 1.5-.7l.7-.7a1.8 1.8 0 0 0 .5-.8 2.5 2.5 0 0 0-.1-.8 3.2 3.2 0 0 0-.8-.9l-1-.8 1-.7.7.6a2.5 2.5 0 0 0 1.9.7 4.8 4.8 0 0 0 2.3-.9c.6-.5 1-1 1-1.4s-.2-1-.7-1.4l-.5-.4-.6-.2-.6.7a2.3 2.3 0 0 1-.7.7 1.7 1.7 0 0 1-1.2.3 2.1 2.1 0 0 1-1.3-.5 1.1 1.1 0 0 1-.5-1.1 1.2 1.2 0 0 1 .6-.9 3 3 0 0 1 2.7-.3 7.3 7.3 0 0 1 3.4 1.7 6.1 6.1 0 0 1 1.6 1.7 2.6 2.6 0 0 1 .5 1.5 1.4 1.4 0 0 1-.2 1.1 2.3 2.3 0 0 1-.7.7l-1 .5-1.2.2-1.6-.2-1.7-.7h-.1a4.5 4.5 0 0 1 .9 1 5.4 5.4 0 0 1 .5 1.1z" class="D"/><g class="U"><path d="M142.3 325c-4.2 3-9-.4-14-6.5s-7.6-11.8-4-15.5 12-1.6 17 4.5 6 14.2 1 17.5z" fill="url(#K)"/></g><g clip-path="url(#L)"><path d="M192.8,346.2l-221-18.4h.1a.1.1,0,0,1,.1.1h0l220,18.4c0-.1.1-.1.2-.2h.6Z" fill="#86653e"/><path d="M192 346.5L-28 328h0l219.8 18.5h.2z" fill="#8b693f"/><path d="M191.8 346.6L-28 328h.1l219.6 18.5h.1z" class="AK"/><path d="M191.7 346.7L-28 328.2h0l219.6 18.5h0z" class="AL"/><path d="M191.7 346.8L-28 328.3h0L191.6 347h.1z" class="AM"/><path d="M191.6 347L-28 328.3h0L191.5 347h.1z" class="AN"/><path d="M191.5 347L-28 328.4h0L191.5 347z" class="AO"/><path d="M191.5 347L-28 328.4h0L191.4 347h.1z" class="V"/><path d="M191.4 347.2L-28 328.5h0L191.4 347z" class="W"/><path d="M191.4 347.2L-28 328.6h0l219.2 18.7h.1z" class="X"/><path d="M191.3 347.3L-28 328.6h0l219.2 18.7z" class="Y"/><path d="M191.3 347.4L-28 328.7h0l219 18.7h.1z" class="Z"/><path d="M191.2 347.4l-219-18.7h0l219 18.7h0z" class="a"/><path d="M191.2 347.5l-219-18.7h0l219 18.8h0z" class="b"/><path d="M191.2 347.6l-219-18.8h0l219 18.8h.1z" class="c"/><path d="M191 347.7L-28 329h0l219 19h0z" class="d"/><path d="M191 347.8l-219-19h0l219 19z" class="e"/><path d="M191 348l-219-19h0l219 19z" class="f"/><path d="M191 348l-219-19h0l219 19h0z" class="g"/><path d="M191 348l-219-19h0l219 19z" class="h"/><path d="M191 348l-219-19h0l219 19h0z" class="i"/><use xlink:href="#N" class="j"/><path d="M191 348l-219-19h0v.1h0 0l219 19h0 0 0 0 0z" class="k"/><path d="M191 348l-219-19h0l219 19h0z" class="l"/><path d="M191 348.2l-219-19h0 0 0 0l219 19h0 0 0 0 0z" class="m"/><path d="M191 348.2l-219-19h0l219 19h0z" class="n"/><path d="M191 348.3l-219-19h0 0 0v.1l219 19h0 0 0 0 0z" class="o"/><path d="M191 348.3l-219-19h0 0 0 0l219 19h0 0 0 0 0z" class="p"/><path d="M191 348.3l-219-19h0 0 0 0l219 19h0v-.1h0 0 0z" class="q"/><path d="M191 348.4l-219-19h0 0 0 0l219 19h0 0 0 0 0z" class="r"/><path d="M191 348.4l-219-19h0 0 0 0l219 19h0 0 0 0 0z" class="s"/><path d="M191 348.4l-219-19h0 0 0 0l219 19h0 0 0 0 0z" class="t"/><path d="M191 348.4l-219-19h0v.1h0 0l219 19h0 0 0v-.1h0z" class="u"/><path d="M191 348.5l-219-19h0 0 0 0l219 19h0 0 0 0 0z" class="v"/><path d="M191 348.5l-219-19h0 0 0 0l219 19h0 0 0 0 0z" class="w"/><path d="M191 348.5l-219-19h0 0 0 0l219 19.2h0 0v-.1h0 0z" class="x"/><use xlink:href="#O" class="y"/><use xlink:href="#O" class="z"/><path d="M191 348.6l-219-19.2v.1h0 0 0l219 19.2v-.1h0 0 0 0z" class="AA"/><path d="M191 348.7l-219-19.2h0 0 0 0l219 19.2h0 0 0 0 0z" class="AB"/><path d="M191 348.7l-219-19.2h0 0 0 0l219 19.2h0 0 0 0 0z" class="AC"/><path d="M191 348.7l-219-19.2h0 0 0 0L191 348.8h.1 0v-.1h0 0z" class="AD"/><path d="M191 348.8L-28 329.5h0 0v.1h0L191 348.8h0 0 0 0 0z" class="AE"/><path d="M191 348.8L-28 329.6h0L191 348.8z" class="AF"/><path d="M191 348.8L-28 329.6h0L191 349h0z" class="AG"/><path d="M191 349L-28 329.6h0L191 349h0z" class="AP"/><path fill="#ffe3c4" d="M191 349L-28 329.7h0 0 0 0L191 349h0 0 0 0 0z"/><path d="M191 349L-28 329.7h0l219 19.5h-.1z" class="AP"/><path d="M191 349.2l-219-19.4h0l219 19.4z" class="AG"/><path d="M191 349.2l-219-19.4h0 0 0v.1l219 19.4h0 0 0v-.1h0z" class="AF"/><path d="M191 349.3L-28 330h0 0 0 0l219 19.4h0 0 0 0 0z" class="AE"/><path d="M191 349.3L-28 330h0l219 19.5h0z" class="AD"/><path d="M191 349.4L-28 330h0l219 19.5z" class="AC"/><path d="M191 349.4L-28 330h-.1l219 19.6z" class="AB"/><path d="M191 349.5L-28 330h0 0 0 0l219 19.5h0 0 0 0 0z" class="AA"/><path d="M191 349.5L-28 330h0 0 0 0l219 19.5h0 0 0 0 0z" class="z"/><path d="M191 349.5L-28 330h0 0 0 0l219 19.6v-.1h0 0 0 0z" class="y"/><path d="M191 349.6L-28 330h0 0 0 0l219 19.6h0 0 0 0 0z" class="x"/><path d="M191,349.6-28,330h0l219,19.6Z" class="w"/><path d="M191 349.6L-28 330h0 0 0 0l219 19.5h0 0 0 0 0z" class="v"/><path d="M191 349.6L-28 330h0l219 19.6h0z" class="u"/><path d="M191 349.7L-28 330h0 0 0 0l219 19.6h0 0 0 0 0z" class="t"/><path d="M191 349.7L-28 330h0 0 0 0l219 19.7h0v-.1h0 0 0z" class="s"/><path d="M191 349.8L-28 330h0l219 19.7z" class="r"/><path d="M191 349.8L-28 330h0 0v.1h0l219 19.6h0 0 0 0 0z" class="q"/><path d="M191 349.8l-219-19.6h0L191 350h-.1z" class="p"/><path d="M191 350l-219-19.7h0L191 350z" class="o"/><path d="M191 350l-219-19.7h0 0 0 0L191 350h0 0 0 0 0z" class="n"/><path d="M191 350l-219-19.8h0L191 350z" class="m"/><path d="M191 350l-219-19.7h0L191 350h0z" class="l"/><path d="M191 350l-219-19.8h-.1L191 350h0z" class="k"/><path d="M191 350.2L-28 330.4h0l219.3 20h-.1z" class="j"/><path d="M191.2 350.3l-219.3-20h0l219.3 20z" class="i"/><path d="M191.2 350.4l-219.3-20h0l219.4 20h-.1z" class="h"/><path d="M191.3 350.5l-219.4-20h0l219.4 20z" class="g"/><path d="M191.3 350.5l-219.4-20h-.1l219.6 20h-.1z" class="f"/><path d="M191.4,350.6l-219.6-20h0l219.6,20h0Z" class="e"/><path d="M191.4 350.7l-219.6-20h0l219.7 20h-.1z" class="d"/><path d="M191.5 350.8l-219.7-20h0l219.7 20z" class="c"/><path d="M191.5 350.8l-219.7-20h0l219.8 20h-.1z" class="b"/><path d="M191.6 351l-219.8-20h0L191.6 351h0z" class="a"/><path d="M191.6 351l-219.8-20.2a.1.1 0 0 1-.1.1h0l220 20.2h-.1z" class="Z"/><path d="M191.7 351l-220-20.2h0l220 20.2z" class="Y"/><path d="M191.8 351l-220-20.2h0l220 20.2z" class="X"/><path d="M191.8 351l-220-20.2h0L192 351h-.1z" class="W"/><path d="M192 351L-28.3 331h0 0 0 0L192 351h0 0 0 0 0z" class="V"/></g><g clip-path="url(#M)"><path d="M192.3 351.3L-28.5 331h-.2L193 351a.1.1 0 0 1-.1.1h-.7z" fill="#86653e"/><path d="M193 351l-221.8-20.3h0l222 20.3h-.2z" fill="#8b693f"/><path d="M193.3 351l-222-20.3h0l222 20.2h-.1z" class="AK"/><path d="M193.4 350.8l-222-20.2h0l222 20.2h0z" class="AL"/><path d="M193.4 350.7l-222-20.2h0l222.2 20.2h-.1z" class="AM"/><path d="M193.5 350.6l-222.2-20.2h-.1l222.4 20h-.1z" class="AN"/><path d="M193.6 350.5l-222.4-20h0l222.4 20z" class="AO"/><path d="M193.6 350.4l-222.4-20h0l222.5 20h-.1z" class="V"/><path d="M193.7 350.4l-222.5-20h0l222.5 20h0z" class="W"/><path d="M193.7 350.3l-222.5-20h0l222.6 20h0a.1.1 0 0 0-.1.1z" class="X"/><path d="M193.8 350.2l-222.6-20h0l222.6 20h0z" class="Y"/><path d="M193.8 350l-222.6-20h0L194 350h-.1z" class="Z"/><path d="M194 350l-222.7-20h0L194 350h0z" class="a"/><path d="M194 350l-222.7-20h0L194 350h0z" class="b"/><path d="M194 349.8l-222.7-20h0L194 349.7h-.1z" class="c"/><path d="M194 349.7L-28.8 330h0L194 349.6z" class="d"/><path d="M194,349.6-28.8,329.8h0L194,349.6Z" class="e"/><path d="M194,349.6-28.8,329.8h0L194,349.5h0Z" class="f"/><path d="M194,349.5-28.8,329.7h0L194,349.5Z" class="g"/><path d="M194,349.5-28.8,329.7h0L194,349.4h0Z" class="h"/><path d="M194,349.4-28.8,329.7h0L194,349.3Z" class="i"/><path d="M194 349.3l-222.8-19.7h0 0 0 0l223 19.7h0 0 0-.1 0z" class="j"/><path d="M194 349.3l-223-19.7h0l223 19.7z" class="k"/><path d="M194 349.3l-223-19.7h0 0 0 0l223 19.6h0 0v.1h0 0z" class="l"/><path d="M194 349.2l-223-19.6h0l223 19.7z" class="m"/><path d="M194 349.2l-223-19.7h0L194 349z" class="n"/><use xlink:href="#P" class="o"/><use xlink:href="#P" class="p"/><use xlink:href="#P" class="q"/><path d="M194 349l-223-19.6h0 0v-.1h0L194 349h0 0 0 0 0z" class="r"/><use xlink:href="#P" class="s"/><use xlink:href="#P" class="t"/><use xlink:href="#P" class="u"/><path d="M194 349l-223-19.5h0 0 0 0L194 349h0 0 0 0 0z" class="v"/><path d="M194 349l-223-19.5h0L194 349z" class="w"/><path d="M194 349l-223-19.5v-.1h0 0 0l223 19.5h0v.1h0 0 0z" class="x"/><path d="M194 348.8l-223-19.5h0 0 0 0l223 19.5h0 0 0 0 0z" class="y"/><path d="M194 348.8l-223-19.5h0 0 0 0l223 19.5h0 0 0 0 0z" class="z"/><path d="M194 348.8l-223-19.5h0 0 0 0l223 19.4v.1h0 0 0 0z" class="AA"/><path d="M194 348.7l-223-19.4h0l223 19.4z" class="AB"/><path d="M194 348.7l-223-19.4h0l223 19.5z" class="AC"/><path d="M194 348.7l-223-19.5h0 0 0 0l223 19.4h0 0v.1h0 0z" class="AD"/><path d="M194 348.6l-223-19.4h0l223 19.4z" class="AE"/><path d="M194 348.6l-223-19.4h0 0 0 0l223 19.3v.1h0 0 0 0z" class="AF"/><path d="M194 348.5l-223-19.3h.1L194 348.5z" class="AG"/><path d="M194 348.4L-28.7 329h0L194 348.4h0z" class="AP"/><path d="M194 348.3L-28.7 329h0L194 348.3h0z" class="AG"/><path d="M194 348.2L-28.7 329h0L194 348h0z" class="AF"/><path d="M194 348L-28.7 329h0 0 0 0L194 348h0 0 0 0 0z" class="AE"/><path d="M194 348L-28.7 329h0L194 348h0z" class="AD"/><path d="M194 348l-222.8-19h0 0v-.1h0L194 348h0 0 0 0 0z" class="AC"/><path d="M194 348l-222.8-19.2h0 0 0 0L194 348h0 0 0 0 0z" class="AB"/><path d="M194 348l-222.8-19.2h0L194 348h0z" class="AA"/><path d="M194 348l-222.8-19h0 0 0 0L194 348h0 0 0 0 0z" class="z"/><path d="M194 348l-222.8-19h0 0 0 0L194 348h0 0 0 0 0z" class="y"/><path d="M194 348l-222.8-19h0v-.1h0 0l222.8 19h0 0 0v.1h0z" class="x"/><path d="M194 347.8l-222.8-19h0l222.8 19z" class="w"/><path d="M194 347.8l-222.8-19h0 0 0 0l222.8 19h0 0 0 0 0z" class="v"/><path d="M194 347.8l-222.8-19h0 0 0 0l222.8 19h0 0 0v.1h0z" class="u"/><path d="M194 347.7l-222.8-19h0l222.8 19z" class="t"/><path d="M194 347.7l-222.8-19v-.1h0 0 0l222.8 19h0 0 0 0 0z" class="s"/><path d="M194 347.7l-222.8-19h0l222.8 19z" class="r"/><path d="M194 347.7l-222.8-19h0l222.8 19h0z" class="q"/><path d="M194 347.6l-222.8-19h.1l222.7 19z" class="p"/><path d="M194 347.6l-222.7-19h0l222.6 19h.1z" class="o"/><path d="M194,347.5l-222.6-19h0l222.6,19Z" class="n"/><path d="M194 347.5l-222.6-19h0l222.6 19h0z" class="m"/><path d="M194 347.4l-222.6-19h0l222.6 19z" class="l"/><path d="M194 347.4l-222.6-19h0l222.6 19h0z" class="k"/><path d="M194 347.3l-222.6-19h0l222.5 19h.1z" class="j"/><path d="M194 347.2l-222.5-19h0L194 347h0z" class="i"/><path d="M194 347l-222.5-18.8h.1L193.8 347h.1z" class="h"/><path d="M193.8,347-28.5,328.2h0l222.3,18.7h0Z" class="g"/><path d="M193.8 347l-222.3-18.7h0L193.7 347z" class="f"/><path d="M193.7 346.8L-28.5 328h0l222.2 18.7z" class="e"/><path d="M193.7 346.8L-28.5 328h0l222 18.6h.1z" class="d"/><path d="M193.6 346.7l-222-18.6h.1l222 18.6h0z" class="c"/><path d="M193.6 346.6l-222-18.6h0l222 18.6h.1z" class="b"/><path d="M193.5 346.6l-222-18.6h0l222 18.5h0z" class="a"/><path d="M193.5,346.5-28.4,328h0l221.8,18.5h.1Z" class="Z"/><path d="M193.4 346.4L-28.4 328h0l221.8 18.5z" class="Y"/><path d="M193.4 346.4L-28.4 328h.1l221.6 18.5h.1z" class="X"/><path d="M193.3 346.4L-28.3 328h0l221.5 18.4h.1z" class="W"/><path d="M193.2 346.3L-28.3 328h0l221.5 18.4z" class="V"/><path d="M193.2 346.3L-28.3 328h0L193 346.3h.1z" class="AO"/><path d="M193 346.2l-221.4-18.4h0L193 346.2h.1z" class="AN"/><path d="M193 346.2l-221.3-18.4h.1l221 18.4z" class="AM"/><path d="M193 346.2l-221-18.4h0l221 18.4z" class="AL"/><path d="M192.8 346.2l-221-18.4h0 0 0 0l221 18.4h0 0 0 0 0z" class="AK"/></g></g><g class="B"><path d="M30 13.3a1.6 1.6 0 0 1-.3.9l-4 4-4-2.4v-2.4a1.2 1.2 0 1 1 2.4 0h0v3l3.8-4a1.5 1.5 0 0 1 1.8 0 1.6 1.6 0 0 1 .3.9m-1.3 11.2h-.5l-.4-.2-3.8-4v3a1.2 1.2 0 0 1-2.4 0V21l4-2.4 4 3.8a1.2 1.2 0 0 1-.9 2.1"/><path d="M25.5 18.2h-.1l-1-.6-2.8-1.6-2.4-1.4c-.1-.1-.3 0-.4.1h0V22a.3.3 0 0 0 .3.3h.1l2.4-1.3 3.8-2.3h0c.1 0 .1 0 .1-.1h0zm-1 .2h-.1l-3 1.7-1.8 1c-.1 0-.3 0-.3-.1h0v-5.6c0-.1 0-.2.2-.2h.1l1.8 1 3 1.7a.4.4 0 0 1 .1.3zm-.7 0h-.1l-2.3 1.3-1.3.8a.2.2 0 0 1-.3 0h0v-4.3h.3l1.3.8 2.4 1.3m26.4-.1V18l-3.5-1.7-2-1a.2.2 0 0 0-.3.1V21c0 .2.2.3.4.2l2-1 3.4-1.8h.1zm-1 .1h0l-2.7 1.4-1.6.8a.2.2 0 0 1-.3-.1V16a.2.2 0 0 1 .2-.2h.1l1.6.8 2.7 1.4h0c.1 0 .1 0 0 .1z"/><path d="M48.6 18.3h-.1l-2 1-1.2.6c-.1.1-.2.1-.2 0a.1.1 0 0 1-.1-.1v-3.3c0-.1.1-.1.2-.1h0l1.2.6 2 1h.1m-16-2.7h3c1.4 0 2.5.8 2.5 2s-1 2-2.5 2H34v2h-1.4zm3 2.8c.7 0 1.2-.3 1-.8s-.4-.8-1-.8H34v1.7z"/><path d="M43.5 20v1.2h-4.7v-6h1.4V20zm8.2-1L49 15.3h1.6l1.7 2.6 1.7-2.7h1.6L53 19v2.2h-1.4zm5-3.4h.7V19l3.3-3.3h1l-2.8 2.8 3 3.2H61L58.4 19l-1 1v1.8h-.7zm5.7 3a3.4 3.4 0 0 1 6.7-.1 3.2 3.2 0 0 1-3.3 3.1 3.2 3.2 0 0 1-3.4-3zm6-.1a2.6 2.6 0 0 0-2.7-2.4 2.6 2.6 0 0 0-2.6 2.5 2.7 2.7 0 0 0 2.7 2.4 2.6 2.6 0 0 0 2.6-2.5zm1.7 2.2l.5-.5a2.9 2.9 0 0 0 2.1.8c1 0 1.6-.5 1.6-1s-.7-1-1.8-1-2.2-.7-2.2-1.7 1-1.7 2.2-1.7a3.8 3.8 0 0 1 2.3.8l-.4.6a3.1 3.1 0 0 0-1.9-.8c-1 0-1.5.5-1.4 1s.6.8 1.7 1 2.2.7 2.2 1.7-.7 1.7-2.3 1.7a3.7 3.7 0 0 1-2.6-.9zm6.3-5h.7l2.5 4 2.4-4.2h.8v6H82V17l-2.4 4-2.5-4v4.4h-.7zm7.7 3a3.3 3.3 0 0 1 3.4-3.1 3.3 3.3 0 0 1 3.4 3 3.4 3.4 0 0 1-6.8.1zm6-.1a2.5 2.5 0 0 0-2.6-2.4 2.6 2.6 0 0 0-2.6 2.5 2.5 2.5 0 0 0 2.6 2.4 2.5 2.5 0 0 0 2.6-2.5zm1.8 2.2l.5-.5a3.3 3.3 0 0 0 2.2.8c1 0 1.5-.5 1.5-1s-.6-1-1.8-1-2.2-1-2.2-2a2 2 0 0 1 2.2-1.7 3.6 3.6 0 0 1 2.3.8l-.4.6a2.9 2.9 0 0 0-1.9-.8 1.3 1.3 0 0 0-1.4 1.1c0 .6.7.8 1.8 1s2 .7 2.2 1.7-.8 1.7-2.4 1.7a3.9 3.9 0 0 1-2.6-.9zM71 79.7h193v29H71z"/></g><path d="M74 189.2h187v10.3H74zm21.2 23.2h144.6v10.3H95.2z" class="E"/><g class="B"><path d="M171.5 149.2a4.1 4.1 0 0 1-.8 2.5 20.7 20.7 0 0 1-1.7 2.4l-1 1.6c-.2.3-.5.3-.8 0s-.7-1-1-1.5-1.2-1.5-1.7-2.3a4.8 4.8 0 0 1-.9-2.6 4 4 0 0 1 3.7-4 4.2 4.2 0 0 1 4.3 3.4zm-2.7.2a1.3 1.3 0 0 0-1.3-1.3 1.2 1.2 0 0 0-1.3 1.2 1.3 1.3 0 0 0 1.3 1.3 1.2 1.2 0 0 0 1.3-1.2zm-1.6 7.6a10 10 0 0 0 3.2-.4c.3 0 .5-.2.8-.3a.4.4 0 0 0 0-.6 1.9 1.9 0 0 0-.9-.4l-1.3-.2h0c.3-.4.3-.4.8-.3a4.3 4.3 0 0 1 1.6.5 1 1 0 0 1 .5.4.8.8 0 0 1-.1 1 2.1 2.1 0 0 1-1.3.7 6.7 6.7 0 0 1-2.4.4 8.5 8.5 0 0 1-3.2-.3l-1.2-.5h-.1c-.6-.5-.6-1 0-1.4a5 5 0 0 1 2-.8h.2a.8.8 0 0 1 .2.4h-.4l-1.2.3-.5.3a.4.4 0 0 0 0 .6l.7.3a9.3 9.3 0 0 0 2.6.5z"/><rect x="133" y="235.6" width="69" height="12.5" rx="2.7"/></g><path d="M303.7 121.8H335v10.5h-31.3zM0 121.8h31.6v10.5H0z" class="E"/><g class="B"><circle cx="167.5" cy="127.1" r="4.8"/><circle cx="167.5" cy="265.9" r="4.8"/></g><path d="M217 300h27.4v4.6H217z" class="E"/></svg>