<?xml version="1.0" encoding="UTF-8"?>
<svg id="uuid-59c4a1e9-1d49-4e3e-b582-0ffb2d39fb05" data-name="uuid-d86623fc-68c2-4c58-9176-f17de31488a6" xmlns="http://www.w3.org/2000/svg" width="335" height="335" xmlns:xlink="http://www.w3.org/1999/xlink" viewBox="0 0 335 335">
  <defs>
    <radialGradient id="uuid-67b366c5-571b-47ae-9568-4541b8628836" cx="167.5" cy="165.7" fx="167.5" fy="165.7" r="167.5" gradientTransform="translate(0 333.2) scale(1 -1)" gradientUnits="userSpaceOnUse">
      <stop offset="0" stop-color="#fff"/>
      <stop offset="1" stop-color="#e6e7e8"/>
    </radialGradient>
  </defs>
  <rect y="0" width="335" height="335" style="fill: url(#uuid-67b366c5-571b-47ae-9568-4541b8628836);"/>
  <g>
    <circle cx="272.31" cy="146.92" r="58.6" style="fill: #bbbdbf;"/>
    <circle cx="270.51" cy="145.12" r="58.6" style="fill: #fff;"/>
    <circle cx="270.51" cy="145.12" r="37.47" style="fill: #9e1f63;"/>
    <circle cx="270.51" cy="145.12" r="21.33" style="fill: #fff;"/>
    <path d="M320.97,89.03c-.29-.27-.6-.15-.86,.03-.33,.23-.65,.49-.92,.78-.66,.73-1.29,1.48-1.94,2.22-.1-.1-.2-.21-.3-.31,.96-1.36,1.93-2.7,2.87-4.09,.38-.57,1.12-1.29,.32-1.87-.72-.51-1.28,.31-1.74,.84-.35,.41-.63,.88-.96,1.3-.66,.84-1.21,1.77-2.11,2.42,.93-1.85,1.94-3.66,2.92-5.47,.22-.42,.54-.95-.04-1.32-.56-.36-1.04-.04-1.4,.4-.22,.28-.38,.61-.57,.92-.99,1.63-2.25,3.06-2.97,4.98-.48-.57-.29-.91-.22-1.24,.34-1.45,.68-2.88,1.01-4.33,.12-.52,.08-1.05-.48-1.26-.57-.21-.98,.22-1.18,.66-.32,.74-.56,1.52-.77,2.29-.49,1.78-.8,3.61-1.83,5.19-.33,.5-.53,1.25-1.37,1.07-.78-.17-1.19-.79-1.43-1.49-.15-.46-.16-.98-.31-1.44-.22-.71-.7-1.21-1.5-1.02-.82,.19-.63,.92-.55,1.46,.39,2.52,1.25,4.86,2.88,6.86,.49,.61,.54,1.15,.27,1.96-.75,2.26-2.08,4.17-3.29,6.17-2.09,3.49-4.91,6.57-6.04,10.63-.16,.59-.57,1.11-1.13,1.47-2.63,1.72-4.76,3.97-6.72,6.4-.47,.57-1.01,.99-1.72,1.24-3.68,1.34-7.04,3.21-9.73,6.13-.36,.4-.73,.57-1.19,.55-.15,0-.31-.04-.49-.08-.47-.13-.85-.31-1.17-.57-.49-.4-.78-.96-.87-1.67-.15-1.2-.23-2.52,1.02-3.25,1.79-1.02,2.74-2.59,3.04-4.53,.29-1.79,1.06-3.55,.52-5.42-.53-1.85-1.87-3.21-2.96-4.71-.84-1.16-2.22-1.85-3.41-2.36-2.56-1.1-5.09-.57-7.23,1.36-.16,.14-.39,.33-.19,.55,.75,.81-.12,1.23-.46,1.68-.52,.69-1.04,1.36-1.18,2.24-.13,.89-.57,1.73-.7,2.57-.37,2.33-1.24,4.81,.88,6.86,.21,.2,.34,.55,.37,.84,.14,1.43,.29,2.87,.34,4.3,.02,.46,.04,.94-.14,1.34-.13,.29-.38,.53-.81,.66-.57,.18-1.1,.31-1.63,.23-.42-.06-.83-.26-1.21-.68-2.52-2.73-5.67-4.56-9.13-5.83-1.1-.4-1.93-1.06-2.65-1.97-1.66-2.08-3.51-4-5.73-5.49-1-.66-1.63-1.51-1.98-2.62-.63-1.94-1.63-3.67-2.74-5.39-2.23-3.42-4.82-6.62-6.21-10.55-.32-.91-.29-1.5,.29-2.19,1.63-1.95,2.38-4.29,2.79-6.75,.09-.55,.27-1.26-.55-1.45-.74-.17-1.21,.27-1.46,.92-.15,.41-.2,.87-.3,1.3-.19,.84-.62,1.54-1.49,1.74-.9,.21-1.09-.65-1.43-1.18-.79-1.23-1.15-2.62-1.5-4.02-.28-1.09-.59-2.16-.98-3.22-.19-.5-.6-1.01-1.24-.78-.61,.22-.61,.82-.48,1.38,.35,1.44,.71,2.88,1.05,4.32,.08,.32,.3,.69-.15,.94-.44-.26-.48-.75-.71-1.12-.96-1.52-1.9-3.04-2.88-4.54-.31-.48-.81-.8-1.38-.48-.6,.33-.32,.85-.11,1.3,.36,.77,.72,1.54,1.19,2.26,.66,1,1.19,2.07,1.76,3.12-1.13-1-2.01-2.14-2.87-3.29-.3-.4-.57-.81-1.02-1.06-.31-.18-.66-.38-1-.08-.31,.28-.31,.66-.14,1,.22,.44,.49,.85,.77,1.27,.86,1.26,1.74,2.5,2.61,3.75l-.31,.27c-.88-.96-1.73-1.95-2.65-2.87-.27-.27-.7-.51-1.09-.13-.35,.34-.05,.67,.13,.97,.46,.77,.95,1.52,1.61,2.16,2.36,2.3,4.24,5.04,6.03,7.74,2.07,3.14,2.97,6.9,3.93,10.57,.97,3.76,2.15,7.54,5.03,10.3,2.33,2.23,4.33,4.68,6.27,7.21,1.07,1.4,2.24,2.7,3.69,3.73,2.55,1.81,4.39,4.23,5.88,6.93,.34,.62,.82,1.18,1.08,1.83,.1,.25,.17,.52,.18,.82,.15,3.68,1.5,7.1,2.31,10.64,.4,1.76,.99,3.46,1.84,5.06,1.01,1.86,1.5,3.8,1.53,5.82,3.07,2.28,6.87,3.63,10.98,3.63s7.86-1.33,10.91-3.57c0-1.75,.34-3.47,1.18-5.04,2.19-4.1,2.76-8.62,4.1-12.94,.44-1.42,.03-3.03,.67-4.37,.02-.04,.04-.09,.06-.13,1.63-3,3.31-5.98,6.18-8.07,1.01-.74,1.99-1.56,2.82-2.5,2.78-3.12,5.16-6.56,8.18-9.48,2.7-2.6,3.68-6.23,4.66-9.75,1.35-4.85,2.64-9.68,6.11-13.62,1.45-1.64,2.59-3.56,4.15-5.14,.56-.57,.97-1.29,1.41-1.97,.17-.25,.34-.57,.03-.85l.02-.03Z" style="fill: #404041;"/>
  </g>
  <path d="M301.53,41.91c-9.33,0-16.9,7.57-16.9,16.9s7.57,16.9,16.9,16.9,16.9-7.57,16.9-16.9-7.57-16.9-16.9-16.9Zm0,24.87c-4.4,0-7.97-3.57-7.97-7.97s3.57-7.97,7.97-7.97,7.97,3.57,7.97,7.97-3.57,7.97-7.97,7.97Z" style="fill: #9e1f63;"/>
  <g>
    <path d="M263.18,58.81c-6.39,0-11.58-5.2-11.58-11.58s5.2-11.58,11.58-11.58,11.58,5.2,11.58,11.58-5.2,11.58-11.58,11.58Zm0-22c-5.75,0-10.42,4.67-10.42,10.42s4.67,10.42,10.42,10.42,10.42-4.67,10.42-10.42-4.67-10.42-10.42-10.42Z" style="fill: #9e1f63;"/>
    <path d="M263.18,53.69c-3.57,0-6.47-2.9-6.47-6.47s2.9-6.47,6.47-6.47,6.47,2.9,6.47,6.47-2.9,6.47-6.47,6.47Zm0-12.28c-3.21,0-5.82,2.61-5.82,5.82s2.61,5.82,5.82,5.82,5.82-2.61,5.82-5.82-2.61-5.82-5.82-5.82Z" style="fill: #9e1f63;"/>
  </g>
  <g>
    <g>
      <path d="M33.47,16.47c0,.38-.15,.74-.42,1l-4.52,4.52-4.83-2.79v-2.74c0-.79,.64-1.43,1.43-1.43s1.43,.64,1.43,1.43h0v3.46l4.47-4.47c.56-.56,1.47-.56,2.02,0,.27,.27,.42,.64,.42,1.02" style="fill: #9e1f63;"/>
      <path d="M32.04,29.54c-.19,0-.37-.04-.55-.11-.17-.07-.33-.18-.46-.31l-4.47-4.47v3.46c0,.79-.64,1.43-1.43,1.43s-1.43-.64-1.43-1.43v-2.73l4.84-2.79,4.51,4.51c.9,.9,.26,2.44-1.01,2.44" style="fill: #9e1f63;"/>
      <path d="M28.33,22.2c-.02-.07-.07-.13-.13-.17h-.02l-1.22-.72-3.25-1.88-2.76-1.59c-.15-.09-.35-.04-.44,.12-.03,.05-.04,.1-.04,.16v8.35c0,.18,.14,.32,.32,.32,.06,0,.11-.01,.16-.04l2.76-1.59,4.47-2.58s.03-.02,.05-.03c.04-.03,.07-.07,.09-.12,0-.01,.01-.03,.01-.04,.02-.06,.02-.12,0-.18h0Zm-1.09,.15c-.02,.06-.06,.12-.12,.15l-3.47,2-2.14,1.24c-.12,.07-.27,.03-.34-.09-.02-.04-.03-.08-.03-.13v-6.48c0-.14,.11-.25,.25-.25,.04,0,.09,.01,.13,.03l2.14,1.24,3.47,2c.1,.06,.15,.18,.12,.29h0Z" style="fill: #9e1f63;"/>
      <path d="M26.26,22.34s-.04,.09-.09,.11l-2.61,1.51-1.61,.93c-.09,.05-.21,.02-.26-.07-.02-.03-.03-.06-.03-.09v-4.87c0-.1,.08-.19,.19-.19,.03,0,.06,0,.09,.02l1.61,.93,2.61,1.51s.07,.06,.09,.11v.1" style="fill: #9e1f63;"/>
    </g>
    <g>
      <path d="M57.06,22.11c-.02-.07-.07-.12-.13-.15l-3.98-1.99-2.46-1.23c-.19-.1-.43,.03-.42,.23l.08,6.62c0,.2,.24,.32,.43,.22l2.43-1.29,3.92-2.1c.06-.03,.11-.09,.13-.15,.02-.05,.02-.1,0-.15h0Zm-.96,.13s-.05,.09-.1,.12l-3.05,1.63-1.88,1c-.15,.08-.33-.01-.33-.17l-.06-5.14c0-.12,.12-.21,.24-.2,.03,0,.06,.01,.09,.03l1.91,.95,3.09,1.55s.09,.06,.1,.12v.11h0Z" style="fill: #9e1f63;"/>
      <path d="M55.23,22.24s-.04,.07-.08,.09l-2.29,1.22-1.42,.75c-.08,.05-.18,.02-.23-.06,0-.02-.02-.04-.02-.07l-.05-3.86c0-.09,.09-.16,.18-.15,.02,0,.05,0,.07,.02l1.43,.72,2.32,1.17s.06,.05,.08,.09v.09" style="fill: #9e1f63;"/>
      <path d="M36.37,18.84l3.46-.04c1.67-.02,2.91,.93,2.93,2.29s-1.2,2.34-2.87,2.36l-1.81,.02,.03,2.24-1.65,.02-.08-6.89h0Zm3.32,3.26c.82,0,1.37-.4,1.36-.99s-.57-.97-1.39-.95l-1.63,.02,.02,1.95,1.63-.02h0Z" style="fill: #9e1f63;"/>
      <path d="M49.25,24.43l.02,1.33-5.48,.07-.08-6.89,1.66-.02,.07,5.56,3.83-.05h-.02Z" style="fill: #9e1f63;"/>
      <path d="M58.84,23.16l-3.06-4.37,1.92-.02,1.95,3,1.96-3.04,1.85-.02-2.95,4.44,.03,2.49-1.67,.02-.03-2.49h0Z" style="fill: #9e1f63;"/>
      <path d="M64.53,19.15h.87l.05,3.8,3.85-3.86h1.15l-3.2,3.17,3.49,3.7h-1.13l-2.96-3.16-1.19,1.16,.03,2.07h-.87l-.09-6.88Z" style="fill: #9e1f63;"/>
      <path d="M71.18,22.52c-.02-1.94,1.77-3.58,3.9-3.61,2.13-.03,3.95,1.58,3.97,3.51,.02,1.94-1.75,3.59-3.88,3.62-2.14,.03-3.96-1.59-3.98-3.52h-.01Zm6.98-.09c-.02-1.53-1.42-2.82-3.08-2.8s-3.04,1.34-3.02,2.88c.02,1.53,1.43,2.83,3.09,2.81s3.03-1.34,3.01-2.89h0Z" style="fill: #9e1f63;"/>
      <path d="M80.17,24.98l.54-.62c.66,.57,1.46,.98,2.53,.96,1.19-.01,1.78-.61,1.78-1.23,0-.73-.74-1.01-2.09-1.28-1.55-.3-2.53-.72-2.54-1.91-.01-1.1,1.07-1.98,2.55-1.99,.99-.02,1.95,.31,2.71,.95l-.53,.62c-.64-.54-1.41-.87-2.22-.86-.95,.01-1.64,.58-1.63,1.21,0,.71,.77,.95,2.08,1.22,1.47,.29,2.53,.75,2.54,1.97,.01,1.09-.89,1.99-2.69,2.02-1.26,.01-2.26-.39-3.04-1.06h0Z" style="fill: #9e1f63;"/>
      <path d="M87.5,19.15h.87l2.91,4.76,2.79-4.84h.87l.09,6.88h-.87l-.06-5.19-2.8,4.84-2.91-4.77,.06,5.2h-.87l-.09-6.88h.01Z" style="fill: #9e1f63;"/>
      <path d="M96.63,22.52c-.02-1.94,1.77-3.58,3.9-3.61,2.13-.03,3.95,1.58,3.97,3.51s-1.75,3.59-3.88,3.62c-2.14,.03-3.96-1.59-3.98-3.52h-.01Zm6.98-.09c-.02-1.53-1.42-2.82-3.08-2.8s-3.04,1.34-3.02,2.88,1.43,2.83,3.09,2.81,3.03-1.34,3.01-2.89h0Z" style="fill: #9e1f63;"/>
      <path d="M105.62,24.98l.54-.62c.66,.57,1.46,.98,2.53,.96,1.19-.01,1.78-.61,1.78-1.23,0-.73-.74-1.01-2.09-1.28-1.55-.3-2.53-.72-2.54-1.91-.01-1.1,1.07-1.98,2.55-1.99,.99-.02,1.95,.31,2.71,.95l-.53,.62c-.65-.54-1.41-.87-2.22-.86-.95,.01-1.64,.58-1.63,1.21,0,.71,.77,.95,2.08,1.22,1.47,.29,2.53,.75,2.54,1.97,.01,1.09-.89,1.99-2.69,2.02-1.26,.01-2.26-.39-3.04-1.06h0Z" style="fill: #9e1f63;"/>
    </g>
  </g>
  <g>
    <path d="M25.94,212.71c-.08,1.99-1.25,3.62-3.19,4.32-.53,.19-.7,.45-.69,.99,.03,1.96,0,3.91,.01,5.87,0,.46-.07,.88-.56,1.06-.58,.22-1.06-.21-1.07-.98-.01-1.93-.03-3.86,0-5.8,.01-.66-.18-.97-.83-1.21-2.32-.84-3.54-3.23-2.92-5.59,.59-2.27,2.86-3.77,5.17-3.43,2.42,.36,4.17,2.4,4.07,4.76h.01Zm-4.45-2.35c-.41-.03-.8,.03-.86,.53-.05,.42,.19,.68,.59,.75,.58,.09,.9,.41,1,.98,.07,.42,.33,.63,.75,.57,.44-.07,.54-.4,.53-.8-.03-1.03-.98-1.99-2.01-2.03Z" style="fill: #404041;"/>
    <path d="M26.25,221.59h2.14c.68,0,1.1,.3,1.22,1,.29,1.6,.62,3.19,.89,4.79,.15,.87-.42,1.33-1.23,.99-1.15-.47-2.29-.98-3.42-1.51-.43-.2-.81-.18-1.23,.04-.9,.48-1.82,.9-2.72,1.37-.47,.25-.9,.24-1.37,0-.85-.45-1.74-.84-2.58-1.31-.53-.29-.98-.27-1.51-.02-.98,.47-1.99,.89-2.99,1.34-.41,.18-.81,.35-1.21,0-.36-.31-.32-.7-.23-1.12,.29-1.47,.55-2.95,.83-4.42,.18-.93,.45-1.16,1.39-1.17h4.12c.6,0,1.2,.14,1.19,.87s-.62,.84-1.22,.84c-1.07,0-2.14,.02-3.2,0-.46,0-.72,.16-.8,.61-.09,.55-.22,1.1-.31,1.65-.08,.45,.05,.65,.53,.43,.65-.3,1.31-.57,1.94-.88,.52-.26,1-.26,1.52,.02,.87,.47,1.78,.87,2.65,1.35,.43,.24,.79,.22,1.21,0,.85-.46,1.73-.85,2.58-1.31,.54-.29,1.05-.3,1.6-.03,.62,.3,1.25,.57,1.88,.85,.17,.07,.36,.28,.55,.11,.14-.13,.04-.34,.01-.51-.26-1.51-1.16-2.27-2.69-2.27-.64,0-1.27,0-1.91-.02-.5-.03-.93-.25-.95-.8-.02-.6,.42-.85,.95-.87,.79-.03,1.58,0,2.36,0h.01Z" style="fill: #404041;"/>
  </g>
  <rect x="78.29" y="284.36" width="178.42" height="1.69" style="fill: #9e1f63;"/>
  <g>
    <path d="M108.44,170.46c-9.93,0-108.44,.12-108.44,.12v-21.28H108.44c11.12,0,9.93,21.16,0,21.16Z" style="fill: #9e1f63;"/>
    <path d="M124.3,162.95c-.09,.06-1.81-1.02-1.92-1.02s-1.91,1.07-1.99,1.01c-.09-.06,.48-2.05,.45-2.15-.03-.1-1.57-1.43-1.53-1.53s2.11-.24,2.2-.31c.09-.06,.93-1.96,1.05-1.96,.11,0,.83,1.9,.91,1.96,.09,.06,2.15,.22,2.18,.32s-1.6,1.42-1.64,1.52,.39,2.09,.3,2.16h-.01Z" style="fill: #9e1f63;"/>
  </g>
  <path d="M269.35,280.4h65.65v-23.13h-65.65c-28.77,0-25.69,23.13,0,23.13Z" style="fill: #9e1f63;"/>
  <g>
    <path d="M176.6,174.58c-2.7,0-4.88,2.19-4.88,4.88s2.19,4.88,4.88,4.88,4.88-2.19,4.88-4.88-2.19-4.88-4.88-4.88Zm0,7.79c-1.61,0-2.91-1.3-2.91-2.91s1.3-2.91,2.91-2.91,2.91,1.3,2.91,2.91-1.3,2.91-2.91,2.91Z" style="fill: #9e1f63; fill-rule: evenodd;"/>
    <path d="M182.5,173.71c-2.02,1.76-3.79,3.83-5.68,5.68" style="fill: none; stroke: #404041; stroke-miterlimit: 10; stroke-width: .16px;"/>
  </g>
  <g>
    <path d="M11.45,317.54c-2.7,0-4.88,2.19-4.88,4.88s2.19,4.88,4.88,4.88,4.88-2.19,4.88-4.88-2.19-4.88-4.88-4.88Zm0,7.79c-1.61,0-2.91-1.3-2.91-2.91s1.3-2.91,2.91-2.91,2.91,1.3,2.91,2.91-1.3,2.91-2.91,2.91Z" style="fill: #9e1f63; fill-rule: evenodd;"/>
    <path d="M17.34,316.66c-2.02,1.76-3.79,3.83-5.68,5.68" style="fill: none; stroke: #404041; stroke-miterlimit: 10; stroke-width: .16px;"/>
  </g>
  <path d="M14.86,113.8c-.08,.06-1.67-.95-1.78-.95s-1.76,.99-1.84,.93,.44-1.89,.41-1.99-1.45-1.32-1.41-1.41c.03-.1,1.95-.22,2.03-.28s.86-1.81,.96-1.81,.76,1.75,.84,1.81,1.98,.2,2.01,.3-1.47,1.31-1.51,1.4c-.03,.1,.36,1.93,.28,1.99h.01Z" style="fill: #9e1f63;"/>
  <path d="M14.86,134.31c-.08,.06-1.67-.95-1.78-.95s-1.76,.99-1.84,.93c-.08-.06,.44-1.89,.41-1.99s-1.45-1.32-1.41-1.41c.03-.1,1.95-.22,2.03-.28s.86-1.81,.96-1.81,.76,1.75,.84,1.81,1.98,.2,2.01,.3-1.47,1.31-1.51,1.4c-.03,.1,.36,1.93,.28,1.99h.01Z" style="fill: #9e1f63;"/>
  <path d="M15.64,192.25c-.1,.07-1.95-1.1-2.07-1.1s-2.05,1.16-2.15,1.09c-.09-.07,.51-2.21,.48-2.32-.03-.11-1.69-1.54-1.65-1.65,.04-.11,2.27-.26,2.37-.33,.1-.07,1.01-2.11,1.13-2.11s.89,2.05,.98,2.12c.09,.07,2.32,.24,2.35,.35s-1.72,1.53-1.76,1.64,.42,2.26,.32,2.32h0Z" style="fill: #9e1f63;"/>
</svg>