<?xml version="1.0" encoding="UTF-8"?>
<svg id="uuid-fce14317-6f34-4079-b5b1-c4fbee11f262" data-name="b460704a-6aa2-46fe-98a7-a0d5f531cc2b" xmlns="http://www.w3.org/2000/svg" width="335" height="335" xmlns:xlink="http://www.w3.org/1999/xlink" viewBox="0 0 335 335">
  <defs>
    <filter id="uuid-06d4cac5-a2ae-4676-96a6-bae5e488a30d" data-name="ec0f5014-8925-4d41-9b17-9761ca5c54ac" x="-6.12" y="212.04" width="269.28" height="55.68">
      <feOffset dx="3" dy="2"/>
      <feGaussianBlur result="ed85be47-8375-440b-bb6a-b212430a64f5" stdDeviation="3"/>
      <feFlood/>
      <feComposite in="ed85be47-8375-440b-bb6a-b212430a64f5" operator="in"/>
      <feComposite in="SourceGraphic"/>
    </filter>
    <linearGradient id="uuid-3d5dac39-d45a-45e6-afb9-4633205a4142" x1="0" y1="98.12" x2="251.12" y2="98.12" gradientTransform="translate(0 336) scale(1 -1)" gradientUnits="userSpaceOnUse">
      <stop offset="0" stop-color="#ec1c24"/>
      <stop offset="0" stop-color="#ea1c24"/>
      <stop offset=".19" stop-color="#d21d29"/>
      <stop offset=".36" stop-color="#c31e2c"/>
      <stop offset=".5" stop-color="#be1e2d"/>
      <stop offset="1" stop-color="#231f20"/>
    </linearGradient>
    <filter id="uuid-8e429667-e983-408f-95a3-789da168b3e3" data-name="f22400d8-2014-4ec3-9cf5-d1e84edaa845" x="-6.12" y="199.56" width="353.28" height="26.88">
      <feOffset dx="3" dy="-3"/>
      <feGaussianBlur result="b989e947-610e-45e8-8182-fa15101f73c3" stdDeviation="3"/>
      <feFlood/>
      <feComposite in="b989e947-610e-45e8-8182-fa15101f73c3" operator="in"/>
      <feComposite in="SourceGraphic"/>
    </filter>
    <filter id="uuid-79ccc179-f2ad-4fa0-a421-96d1dcd457a5" data-name="ba56da12-d3e3-4868-8f79-e51045f57a34" x="-6.12" y="85.32" width="353.28" height="26.64">
      <feOffset dx="3" dy="2"/>
      <feGaussianBlur result="a2dccd36-f0dd-4156-9fe8-2db9f72c4d0f" stdDeviation="3"/>
      <feFlood/>
      <feComposite in="a2dccd36-f0dd-4156-9fe8-2db9f72c4d0f" operator="in"/>
      <feComposite in="SourceGraphic"/>
    </filter>
    <linearGradient id="uuid-73227d8e-5168-44cf-87f7-361e9a06241f" x1="0" y1="181.38" x2="202.57" y2="181.38" gradientTransform="translate(0 336) scale(1 -1)" gradientUnits="userSpaceOnUse">
      <stop offset="0" stop-color="#ec1c24"/>
      <stop offset="0" stop-color="#ea1c24"/>
      <stop offset=".19" stop-color="#d21d29"/>
      <stop offset=".36" stop-color="#c31e2c"/>
      <stop offset=".5" stop-color="#be1e2d"/>
      <stop offset="1" stop-color="#231f20"/>
    </linearGradient>
    <linearGradient id="uuid-5240a5bc-646d-409a-be13-7385c76762e5" x1="228.13" y1="306.32" x2="322.16" y2="306.32" gradientTransform="translate(0 336) scale(1 -1)" gradientUnits="userSpaceOnUse">
      <stop offset="0" stop-color="#ec1c24"/>
      <stop offset="0" stop-color="#ea1c24"/>
      <stop offset=".19" stop-color="#d21d29"/>
      <stop offset=".36" stop-color="#c31e2c"/>
      <stop offset=".5" stop-color="#be1e2d"/>
      <stop offset="1" stop-color="#231f20"/>
    </linearGradient>
    <linearGradient id="uuid-2e089088-2e7e-4c9a-a2e3-9be150a38b9d" x1="324.15" y1="306.31" x2="325.44" y2="306.31" gradientTransform="translate(0 336) scale(1 -1)" gradientUnits="userSpaceOnUse">
      <stop offset="0" stop-color="#ec1c24"/>
      <stop offset="0" stop-color="#ea1c24"/>
      <stop offset=".19" stop-color="#d21d29"/>
      <stop offset=".36" stop-color="#c31e2c"/>
      <stop offset=".5" stop-color="#be1e2d"/>
      <stop offset="1" stop-color="#231f20"/>
    </linearGradient>
    <linearGradient id="uuid-e5ca4b8d-34c3-4054-b994-3ea2fb916fab" x1="327.69" y1="306.31" x2="335" y2="306.31" gradientTransform="translate(0 336) scale(1 -1)" gradientUnits="userSpaceOnUse">
      <stop offset="0" stop-color="#ec1c24"/>
      <stop offset="0" stop-color="#ea1c24"/>
      <stop offset=".19" stop-color="#d21d29"/>
      <stop offset=".36" stop-color="#c31e2c"/>
      <stop offset=".5" stop-color="#be1e2d"/>
      <stop offset="1" stop-color="#231f20"/>
    </linearGradient>
  </defs>
  <g>
    <rect width="335" height="96.69" fill="#f1f1f2"/>
    <polygon points="335 215.73 194.94 215.29 193.79 96.69 335 96.69 335 215.73" fill="#231f20"/>
    <rect x="199.61" y="96.69" width="135.39" height="120.29" fill="#006838"/>
    <rect y="215.96" width="335" height="119.04" fill="#080826"/>
    <g filter="url(#uuid-06d4cac5-a2ae-4676-96a6-bae5e488a30d)">
      <polygon points="214.89 256.66 251.12 219.1 0 219.1 0 256.66 214.89 256.66" fill="url(#uuid-3d5dac39-d45a-45e6-afb9-4633205a4142)"/>
    </g>
    <g filter="url(#uuid-8e429667-e983-408f-95a3-789da168b3e3)">
      <rect y="211.69" width="335" height="8.54" fill="#fff100"/>
    </g>
    <g filter="url(#uuid-79ccc179-f2ad-4fa0-a421-96d1dcd457a5)">
      <rect y="92.42" width="335" height="8.54" fill="#fff100"/>
    </g>
    <polygon points="0 52.57 199.22 52.57 202.57 256.2 0 256.66 0 52.57" fill="url(#uuid-73227d8e-5168-44cf-87f7-361e9a06241f)"/>
  </g>
  <g>
    <g>
      <path d="M32.92,18.76c0,.28-.11,.54-.31,.73l-3.3,3.31-3.53-2v-2c0-.57,.47-1.04,1.04-1.04s1.04,.47,1.04,1.04h0v2.52l3.27-3.32c.41-.41,1.08-.41,1.48,0,.19,.2,.3,.46,.31,.74" fill="#080826"/>
      <path d="M31.87,28.32c-.14,0-.27-.03-.4-.08-.13-.06-.24-.13-.34-.23l-3.27-3.26v2.52c0,.57-.47,1.04-1.04,1.04s-1.04-.47-1.04-1.04v-2l3.53-2,3.3,3.29c.44,.33,.53,.96,.2,1.4-.22,.29-.58,.44-.94,.39" fill="#080826"/>
      <path d="M29.15,23c-.01-.05-.05-.1-.09-.13h0l-.89-.51-2.37-1.38-2-1.16c-.11-.06-.25-.03-.32,.08h0s-.01,.08,0,.12v6.1c0,.13,.09,.23,.22,.24h.01s.08,0,.12,0l2-1.16,3.17-1.98h0s.05-.05,.06-.08h0s.07-.09,.09-.14Zm-.79,.11s-.05,.09-.09,.11l-2.53,1.47-1.57,.9c-.09,.05-.2,.02-.25-.06h0s0-.07,0-.1v-4.78c0-.1,.08-.18,.18-.19,.03,0,.06,0,.09,0l1.57,.9,2.53,1.47c.07,.04,.11,.12,.09,.2l-.02,.08Z" fill="#080826"/>
      <path d="M27.64,23.05s-.03,.07-.06,.08l-1.91,1.1-1.17,.68c-.06,.04-.14,.03-.18-.03v-.02s-.02-.05,0-.07v-3.56c0-.07,.06-.13,.13-.13h.08l1.18,.68,1.9,1.11s.06,.04,.07,.08v.07" fill="#080826"/>
    </g>
    <g>
      <path d="M50.15,22.88s0-.08-.1-.11l-2.91-1.45-1.79-.9c-.09-.06-.22-.04-.28,.06-.02,.03-.03,.07-.03,.1l.06,4.84c.02,.12,.13,.2,.25,.18,.02,0,.05-.01,.07-.02l1.77-.95,2.87-1.53s.08-.06,.09-.11c0-.04,0-.07,0-.11Zm-.7,.1s-.04,.07-.08,.09l-2.23,1.19-1.37,.74c-.08,.05-.19,.02-.23-.07,0-.02-.02-.03-.02-.05v-3.76c.01-.08,.09-.15,.17-.14h.07l1.39,.69,2.26,1.14s.06,.04,.08,.08c0,.03,0,.05,0,.08h-.04Z" fill="#080826"/>
      <path d="M48.82,23s-.03,.05-.06,.06l-1.68,.9-1,.55c-.05,.04-.12,.04-.17,0,0-.02,0-.03,0-.05v-2.83c0-.06,.07-.11,.13-.11h0l1.05,.52,1.7,.86s.05,.03,.06,.06v.04" fill="#080826"/>
      <path d="M35,20.49h2.53c1.22,0,2.13,.68,2.14,1.68s-.88,1.71-2.1,1.72h-1.32v1.63h-1.21l-.04-5.03Zm2.43,2.38c.6,0,1-.29,1-.72s-.42-.7-1-.7h-1.19v1.42h1.19Z" fill="#080826"/>
      <path d="M44.45,24.58v1l-4,.05-.06-5h1.21v4.06l2.85-.11Z" fill="#080826"/>
      <path d="M51.46,23.65l-2.24-3.19h1.4l1.43,2.19,1.43-2.23h1.35l-2.16,3.24v1.82h-1.22v-1.83Z" fill="#080826"/>
      <path d="M55.61,20.72h.64v2.79l2.81-2.82h.84l-2.29,2.31,2.55,2.7h-.83l-2.16-2.32-.87,.85v1.51h-.64l-.05-5.02Z" fill="#080826"/>
      <path d="M60.47,23.18c.14-1.59,1.55-2.76,3.14-2.62,1.37,.12,2.46,1.19,2.61,2.55-.14,1.59-1.55,2.76-3.14,2.62-1.37-.12-2.46-1.19-2.61-2.55Zm5.11-.06c-.13-1.23-1.23-2.12-2.46-1.99-1.07,.11-1.91,.97-2,2.04,.13,1.23,1.23,2.12,2.46,1.99,1.07-.11,1.91-.97,2-2.04Z" fill="#080826"/>
      <path d="M67.05,25l.39-.45c.5,.46,1.17,.72,1.85,.7,.87,0,1.3-.44,1.3-.89s-.54-.74-1.53-.94-1.84-.52-1.85-1.4,.78-1.44,1.86-1.45c.73-.02,1.44,.22,2,.69l-.39,.45c-.46-.42-1.06-.64-1.68-.64-.69,0-1.19,.42-1.19,.89s.57,.69,1.52,.89,1.85,.55,1.86,1.43-.65,1.46-2,1.48c-.78,.01-1.54-.26-2.14-.76Z" fill="#080826"/>
      <path d="M72.4,20.72h.6l2.13,3.49,2-3.54h.64l.06,5h-.64v-3.81l-2,3.54-2.14-3.4v3.8h-.64v-5.08Z" fill="#080826"/>
      <path d="M79.07,23.18c.14-1.59,1.55-2.76,3.14-2.62,1.37,.12,2.46,1.19,2.61,2.55-.14,1.59-1.55,2.76-3.14,2.62-1.37-.12-2.46-1.19-2.61-2.55Zm5.11-.06c-.13-1.23-1.23-2.12-2.46-1.99-1.07,.11-1.91,.97-2,2.04,.13,1.23,1.23,2.12,2.46,1.99,1.07-.11,1.91-.97,2-2.04Z" fill="#080826"/>
      <path d="M85.65,25l.39-.45c.5,.46,1.17,.71,1.85,.7,.87,0,1.3-.44,1.3-.89s-.54-.74-1.53-.94-1.84-.52-1.85-1.4,.78-1.44,1.86-1.45c.73-.02,1.44,.22,2,.69l-.39,.45c-.45-.39-1.02-.61-1.62-.62-.69,0-1.19,.42-1.19,.89s.57,.69,1.52,.89,1.85,.55,1.86,1.43-.65,1.46-2,1.48c-.8,.02-1.59-.26-2.2-.78Z" fill="#080826"/>
    </g>
  </g>
  <path d="M185,253.08c.41,0,.82,0,1.22-.07s.7,0,.69-.45-.38-.45-.68-.5-.73-.07-1.26-.11c.63-.32,1.19-.27,1.66-.52,.18-.09,.44-.13,.43-.39s-.27-.29-.47-.34c-.43-.1-.87-.1-1.3,0-.28,.09-.58,.05-.82-.12,.45-.21,.89-.46,1.3-.75,.21-.19,.42-.38,.25-.67s-.44-.32-.74-.2c-.71,.27-1.42,.56-2.14,.8-.72,.24-.83,0-.73-.63,.07-.45,.16-.9,.21-1.36,0-.29,0-.61-.37-.69s-.37,.26-.44,.48c-.09,.27-.23,.53-.42,.74-.32,.33-.55,.75-.64,1.2-.3,1.6-1.59,1.9-2.81,1.69-1.22-.21-2.35-.46-3.54-.66-.94-.3-1.86-.66-2.75-1.08-.26-.12-.54-.19-.82-.23-1.3,0-2.4-.72-3.61-1-.15-.05-.28-.13-.38-.25-1.42-1.36-3.08-2.44-4.89-3.21-.91-.34-1.62-1.07-1.91-2-.42-1.24-.12-2.61,.77-3.57,.38-.38,.73-.78,1.06-1.2,.43-.57,.55-1.32,.33-2-.2-.88-.58-1.7-1.13-2.41-.19-.22-.28-.51-.26-.8,.05-.39-.13-.78-.46-1-.88-.61-1.7-1.3-2.43-2.08-.11-.11-.23-.2-.37-.26-.58-.24-1.31-.34-1-1.29,0-.12-.13-.22-.28-.21-.44,0-.87-.16-1.21-.44-.25-.16-.47-.25-.68,.06s-.57,.29-.88,.33c-1.17,.2-2.28,.65-3.25,1.33-.12,.06-.28,.17-.23,.3,.22,.54-.21,.76-.49,1-.9,1.08-1.65,2.28-2.24,3.56-.08,.12-.19,.29-.08,.43s.3-.07,.48-.07c-.02,1.34,.12,2.69,.41,4,.23,.87,.74,1.64,1.45,2.2,.42,.35,.82,.74,1.18,1.16,.13,.14,.38,.31,.21,.53s-.43,.14-.64,.05c-.46-.19-.9-.42-1.32-.68-.8-.52-1.74-.8-2.7-.79-1.18,0-2.36,.06-3.54,.1-1.73,.14-3.48-.07-5.13-.6-1.44-.45-2.96-.61-4.46-.49-2.17,.03-4.33-.33-6.38-1.07-1.21-.4-2.34-.93-3.5-1.41-2.03-.78-4.13-1.34-6.28-1.68-1.35-.26-2.68-.59-4-.94-1.5-.44-2.79-1.39-3.65-2.69-.61-.94-1.36-1.79-2.22-2.52-.47-.38-.81-.89-1-1.46-.07-.18-.14-.38-.38-.36s-.31,.21-.37,.38c-.18,.43-.14,.93,.1,1.33,.2,.32,.43,.63,.64,.95,.09,.14,.23,.28,.1,.46s-.34,.15-.52,.08c-.71-.29-1.35-.71-1.9-1.24l-1.31-1.19c-.11-.11-.23-.2-.36-.27-.29-.17-.59-.24-.84,0s-.09,.54,.09,.77c.51,.64,1.05,1.26,1.64,1.83,.26,.19,.45,.46,.54,.77-.36,.03-.72-.08-1-.32-.78-.51-1.51-1.1-2.33-1.56-.33-.18-.67-.29-.91,.06s0,.62,.29,.81c.95,.68,1.91,1.32,2.87,2,.16,.11,.37,.19,.46,.5-.75-.1-1.48-.26-2.2-.49-.25-.09-.51-.17-.77-.22-.33-.09-.68,.1-.79,.42-.1,.34,.21,.5,.47,.62,.79,.28,1.6,.5,2.43,.65,.38,.05,.74,.16,1.08,.34-.51,.28-1.07,.44-1.65,.47-.44,0-.86,.19-1.16,.52-.12,.16-.24,.31-.14,.52s.26,.19,.44,.21c.74,.01,1.49-.07,2.21-.25,1.19-.19,2.41-.05,3.52,.41,.98,.4,1.98,.73,3,1,1,.34,1.93,.83,2.78,1.45,1.7,1.06,3.49,1.95,5.36,2.68,1.93,.76,3.79,1.69,5.72,2.47,1.18,.42,2.41,.71,3.65,.87,2.71,.54,5.33,1.47,7.78,2.75,1.19,.57,2.41,1.06,3.61,1.6,.55,.21,1.07,.51,1.53,.88,.19,.19,.45,.3,.72,.3,.93,.06,1.8,.43,2.49,1.05,1.15,.88,2.08,2.01,2.74,3.3,.3,.53,.65,1,.94,1.57,.18,.38,.58,.6,1,.56h20.54c.48,0,.79-.06,.64-.66-.07-.28,.1-.56,.37-.63,.75-.34,1.53-.59,2.33-.76,.82-.04,1.64,.09,2.4,.39,.77,.2,1.59,.2,2.36,0,1-.31,2.09-.58,3.14-.87,.87-.22,1.79-.22,2.66,0,1.34,.29,2.65-.16,4-.07,.2,.03,.39-.1,.43-.3,0-.26-.17-.36-.37-.44-.31-.12-.78-.04-1.19-.41Z" fill="#080826"/>
  <g>
    <path d="M15,169c-.08,.06-1.53-.86-1.62-.86s-1.61,.91-1.68,.85,.4-1.73,.37-1.82-1.32-1.2-1.29-1.29,1.78-.2,1.85-.26,.79-1.65,.89-1.65,.69,1.61,.77,1.66,1.81,.19,1.83,.27-1.34,1.2-1.38,1.29,.33,1.76,.26,1.81h0Z" fill="#fff100"/>
    <path d="M15,187.69c-.08,.05-1.53-.87-1.62-.87s-1.61,.91-1.68,.86,.4-1.73,.37-1.82-1.32-1.2-1.29-1.29,1.78-.21,1.85-.26,.79-1.65,.89-1.65,.69,1.6,.77,1.66,1.81,.18,1.83,.27-1.34,1.19-1.38,1.28,.33,1.76,.26,1.82h0Z" fill="#fff100"/>
  </g>
  <path d="M235.39,37.87h86.77V21.5h-86.77c-10.22,0-9.13,16.37,0,16.37Z" fill="url(#uuid-5240a5bc-646d-409a-be13-7385c76762e5)"/>
  <g>
    <rect x="324.15" y="21.5" width="1.3" height="16.37" fill="url(#uuid-2e089088-2e7e-4c9a-a2e3-9be150a38b9d)"/>
    <rect x="327.69" y="21.5" width="7.31" height="16.37" fill="url(#uuid-e5ca4b8d-34c3-4054-b994-3ea2fb916fab)"/>
  </g>
  <g>
    <path d="M235.39,316.35h86.77v-16.35h-86.77c-10.22,0-9.13,16.35,0,16.35Z" fill="#f1f1f2"/>
    <g>
      <rect x="324.15" y="299.98" width="1.3" height="16.37" fill="#fff100"/>
      <rect x="327.69" y="299.98" width="7.31" height="16.37" fill="#fff100"/>
    </g>
  </g>
  <path d="M321,55.9c-.08,.06-1.6-.9-1.69-.9s-1.68,.94-1.76,.89,.42-1.81,.4-1.9-1.38-1.25-1.35-1.35,1.85-.21,1.93-.27,.83-1.72,.92-1.72,.73,1.67,.81,1.73,1.89,.19,1.91,.29-1.4,1.24-1.44,1.33,.35,1.84,.27,1.9h0Z" fill="#080826"/>
  <path d="M321,74.93c-.08,.06-1.56-.88-1.66-.88s-1.64,.93-1.72,.87,.42-1.77,.39-1.86-1.36-1.23-1.32-1.32,1.82-.21,1.89-.27,.81-1.68,.91-1.68,.71,1.64,.78,1.69,1.86,.19,1.88,.28-1.37,1.22-1.41,1.31,.34,1.81,.26,1.86h0Z" fill="#080826"/>
  <g>
    <circle cx="7.73" cy="45.53" r="3.86" fill="#080826"/>
    <circle cx="319.15" cy="87.56" r="3.86" fill="#080826"/>
  </g>
  <g>
    <polygon points="215 266.72 7.73 266.72 7.73 265.72 214.56 265.72 250.34 227.52 319.15 227.52 319.15 228.52 250.77 228.52 215 266.72" fill="#f1f1f2"/>
    <circle cx="7.73" cy="266.22" r="3.86" transform="translate(-258.51 273.41) rotate(-89.88)" fill="#f1f1f2"/>
    <circle cx="319.21" cy="228.02" r="3.86" fill="#f1f1f2"/>
  </g>
  <g>
    <path d="M21,282.13c-.04,1.44-.97,2.71-2.34,3.16-.33,.07-.55,.39-.51,.73v4.31c0,.33-.05,.64-.41,.78s-.74-.11-.74-.72v-4.25c.07-.41-.19-.8-.6-.89-1.68-.59-2.62-2.38-2.15-4.1,.49-1.84,2.39-2.93,4.23-2.44,1.54,.42,2.6,1.84,2.55,3.44l-.03-.02Zm-3.26-1.73c-.31,0-.59,0-.64,.38-.05,.25,.11,.49,.36,.54,.03,0,.05,0,.08,0,.39,.03,.7,.33,.73,.72,0,.25,.22,.44,.47,.43,.03,0,.06,0,.09-.01,.32-.05,.39-.3,.38-.59-.05-.78-.66-1.4-1.43-1.48h-.04Z" fill="#f1f1f2"/>
    <path d="M21.26,288.64h1.57c.44-.05,.85,.27,.9,.71v.02c.21,1.18,.45,2.34,.65,3.52,.11,.64-.31,1-.9,.73-.85-.35-1.68-.72-2.51-1.11-.28-.14-.62-.14-.9,0-.66,.35-1.33,.66-2,1-.31,.18-.69,.18-1,0-.62-.33-1.27-.62-1.89-1-.34-.2-.77-.2-1.11,0-.72,.35-1.46,.66-2.19,1-.3,.14-.59,.26-.89,0-.21-.22-.28-.54-.17-.82,.21-1.08,.4-2.16,.61-3.24,.13-.68,.33-.85,1-.86h3c.44,0,.88,.11,.87,.64s-.45,.62-.89,.62h-2.35c-.34,0-.53,.11-.58,.45s-.16,.8-.23,1.2,0,.48,.39,.32,1-.42,1.42-.65c.35-.19,.77-.19,1.12,0,.64,.34,1.3,.64,1.94,1,.27,.17,.62,.17,.89,0,.62-.34,1.27-.63,1.89-1,.36-.2,.81-.2,1.17,0,.45,.22,.92,.42,1.38,.62,.13,.05,.26,.2,.4,.08s0-.25,0-.38q-.29-1.66-2-1.66h-1.4c-.47,0-.68-.19-.69-.59s.3-.63,.69-.64h1.73l.08,.04Z" fill="#f1f1f2"/>
  </g>
  <g>
    <path d="M185.22,34.64l.7,.35,18-17.73c-.1-.24-.22-.47-.34-.71l-18.36,18.09Z" fill="#080826"/>
    <path d="M188.79,36l.89,.16,15.32-15.16c0-.3-.09-.6-.15-.89l-16.06,15.89Z" fill="#080826"/>
    <path d="M186.9,35.4c.26,.1,.52,.19,.79,.27l16.88-16.67c-.08-.27-.17-.53-.26-.79l-17.41,17.19Z" fill="#080826"/>
    <path d="M183.73,33.69c.21,.15,.41,.3,.63,.43l18.71-18.44c-.14-.22-.28-.43-.42-.63l-18.92,18.64Z" fill="#080826"/>
    <path d="M186.35,10.41c-3.12,1.35-5.61,3.82-7,6.92l7-6.92Z" fill="#080826"/>
    <path d="M178.19,23.29l14.14-13.94h-1.05l-13.09,12.9c-.02,.35-.02,.69,0,1.04Z" fill="#080826"/>
    <path d="M191,36.24h1l13.1-12.9c0-.35,0-.7,0-1.05l-14.1,13.95Z" fill="#080826"/>
    <path d="M204.67,26.17c.11-.43,.2-.87,.27-1.31l-11.43,11.27c.44-.06,.88-.15,1.32-.25l9.84-9.71Z" fill="#080826"/>
    <path d="M182.4,32.59l.56,.5,19.09-18.83c-.16-.19-.32-.38-.49-.56l-19.16,18.89Z" fill="#080826"/>
    <path d="M178.6,19.42c-.11,.43-.2,.87-.27,1.31l11.43-11.27c-.44,.07-.88,.15-1.31,.26l-9.85,9.7Z" fill="#080826"/>
    <path d="M178.29,24.56c.04,.3,.09,.6,.15,.9l16.05-15.82c-.3-.07-.6-.12-.9-.16l-15.3,15.08Z" fill="#080826"/>
    <path d="M196.92,35.18c1.56-.66,2.97-1.61,4.17-2.8,1.22-1.18,2.21-2.58,2.91-4.12l-7.08,6.92Z" fill="#080826"/>
    <path d="M178.71,26.56c.08,.27,.16,.53,.26,.79l17.41-17.16-.79-.27-16.88,16.64Z" fill="#080826"/>
    <path d="M179.36,28.34c.11,.23,.23,.47,.35,.7l18.34-18.04c-.23-.13-.46-.25-.7-.36l-17.99,17.7Z" fill="#080826"/>
    <path d="M181.23,31.33c.15,.19,.32,.38,.48,.56l19.17-18.89-.56-.49-19.09,18.82Z" fill="#080826"/>
    <path d="M180.21,29.92c.13,.21,.27,.42,.42,.63l18.92-18.65-.63-.43-18.71,18.45Z" fill="#080826"/>
  </g>
  <g>
    <path d="M298.05,281.92c.23,.13,.46,.25,.7,.36l18-17.73c-.1-.24-.22-.48-.34-.71l-18.36,18.08Z" fill="#fff100"/>
    <path d="M301.61,283.24c.3,.07,.6,.12,.9,.16l15.3-15.08c-.04-.3-.09-.6-.15-.9l-16.05,15.82Z" fill="#fff100"/>
    <path d="M299.72,282.69c.26,.1,.52,.19,.79,.27l16.88-16.64c-.08-.27-.17-.53-.26-.79l-17.41,17.16Z" fill="#fff100"/>
    <path d="M296.55,281l.63,.43,18.71-18.43c-.13-.21-.27-.42-.42-.63l-18.92,18.63Z" fill="#fff100"/>
    <path d="M299.17,257.7c-1.55,.66-2.96,1.61-4.16,2.8-1.2,1.18-2.17,2.58-2.86,4.12l7.02-6.92Z" fill="#fff100"/>
    <path d="M291,270.58l14.14-13.94h-1l-13.14,12.89v1.05Z" fill="#fff100"/>
    <path d="M303.77,283.53h1.05l13.09-12.91c.02-.33,.02-.67,0-1l-14.14,13.91Z" fill="#fff100"/>
    <path d="M317.49,273.46c.12-.43,.21-.87,.27-1.31l-11.42,11.27c.44-.07,.87-.15,1.31-.26l9.84-9.7Z" fill="#fff100"/>
    <path d="M295.22,279.88c.18,.17,.37,.33,.56,.49l19.09-18.82c-.15-.19-.32-.38-.49-.56l-19.16,18.89Z" fill="#fff100"/>
    <path d="M291.43,266.71c-.12,.43-.21,.87-.27,1.31l11.43-11.27c-.45,.06-.88,.15-1.32,.25l-9.84,9.71Z" fill="#fff100"/>
    <path d="M291.11,271.85c0,.3,.09,.6,.15,.89l16.05-15.81c-.3-.07-.59-.12-.89-.17l-15.31,15.09Z" fill="#fff100"/>
    <path d="M309.75,282.47c3.12-1.35,5.61-3.82,7-6.92l-7,6.92Z" fill="#fff100"/>
    <path d="M291.53,273.85c.08,.27,.17,.53,.26,.79l17.41-17.16c-.26-.1-.52-.19-.79-.27l-16.88,16.64Z" fill="#fff100"/>
    <path d="M292.19,275.62c.1,.24,.22,.47,.34,.71l18.34-18.09-.7-.35-17.98,17.73Z" fill="#fff100"/>
    <path d="M294.05,278.62c.16,.19,.32,.38,.49,.56l19.16-18.89c-.18-.17-.37-.34-.56-.49l-19.09,18.82Z" fill="#fff100"/>
    <path d="M293,277.2l.42,.63,18.92-18.64c-.21-.15-.41-.3-.63-.43l-18.71,18.44Z" fill="#fff100"/>
  </g>
  <g>
    <path d="M7.13,149.49l-7.13,7v.63l7.33-7.23c-.06-.11-.13-.26-.2-.4Z" fill="#f1f1f2"/>
    <path d="M7.9,151.68l-7.9,7.78v.64l8-7.88-.1-.54Z" fill="#f1f1f2"/>
    <path d="M7.58,150.52l-7.58,7.48v.63l7.73-7.63c-.04-.16-.1-.32-.15-.48Z" fill="#f1f1f2"/>
    <path d="M6.56,148.57l-6.56,6.43v.64l6.82-6.64-.26-.43Z" fill="#f1f1f2"/>
    <path d="M0,145.1v.27l.27-.27h-.27Z" fill="#f1f1f2"/>
    <path d="M8.05,153.63v-.63L.05,160.93v.57h.02l7.98-7.87Z" fill="#f1f1f2"/>
    <path d="M1.8,161.27l6-5.91c.07-.26,.12-.53,.16-.8l-7,6.87c.28-.04,.56-.09,.84-.16Z" fill="#f1f1f2"/>
    <path d="M5.9,147.75l-5.9,5.82v.64l6.2-6.11-.3-.35Z" fill="#f1f1f2"/>
    <path d="M1,145.18l-1,1v.63l1.59-1.56c-.2-.04-.39-.06-.59-.07Z" fill="#f1f1f2"/>
    <path d="M5.61,159.14c.74-.72,1.33-1.57,1.75-2.51l-4.29,4.22c.95-.4,1.81-.98,2.54-1.71Z" fill="#f1f1f2"/>
    <path d="M2.26,145.45l-2.26,2.23v.64l2.74-2.71-.48-.16Z" fill="#f1f1f2"/>
    <path d="M3.34,145.86l-3.34,3.29v.64l3.76-3.71-.42-.22Z" fill="#f1f1f2"/>
    <path d="M5.15,147l-5.15,5.1v.63l5.48-5.4-.33-.33Z" fill="#f1f1f2"/>
    <path d="M4.29,146.39l-4.29,4.23v.64l4.67-4.61-.38-.26Z" fill="#f1f1f2"/>
  </g>
  <polyline points="7.73 45.53 203.29 45.03 203.62 87.56 319.15 87.56" fill="none" stroke="#080826" stroke-miterlimit="10"/>
</svg>