<svg xmlns="http://www.w3.org/2000/svg" width="335" height="335" data-name="Layer 1"><defs><linearGradient id="a" x1="0" x2="335" y1="167.6" y2="167.6" gradientUnits="userSpaceOnUse"><stop offset="0" stop-color="#f6a621"/><stop offset="1" stop-color="#f6a621"/></linearGradient><linearGradient id="b" x1="38.2" x2="301.8" y1="344.5" y2="-15.7" gradientUnits="userSpaceOnUse"><stop offset="0" stop-color="#f6a621"/><stop offset="1" stop-color="#fc0"/></linearGradient></defs><path fill="url(#a)" d="M0 0h335v335.3H0z"/><path fill="url(#b)" d="M0 0h335v335.6H0z" opacity=".9"/><g fill="#fff" data-name="PRINT"><path d="M30.3 13.9c0 .5-.2 1-.6 1.4l-6.3 6.3-6.8-3.9v-3.8c0-1.1.9-2 2-2s2 .9 2 2v4.9l6.3-6.3c.8-.8 2.1-.8 2.8 0 .4.4.6.9.6 1.4ZM29.7 31.7c-.4.4-.9.6-1.4.6s-.5 0-.8-.2c-.2-.1-.5-.3-.6-.4l-2.1-2.1-4.1-4.1v4.9c0 1.1-.9 2-2 2s-2-.9-2-2v-3.8l6.8-3.9 4.2 4.2 2.1 2.1c.8.8.8 2.1 0 2.8ZM23 22s0-.2-.2-.2l-1.7-1-4.6-2.6-3.9-2.2c-.2-.1-.5 0-.6.2V28.1c0 .3.2.5.5.5h.2l3.9-2.2 6.3-3.6s0-.1.1-.2v-.3Zm-9.6-4.7 3 1.7 4.9 2.8s.1 0 .1.1v.3s0 .2-.2.2l-4.9 2.8-3 1.7c-.2 0-.4 0-.5-.1V17.5c0-.2.2-.3.3-.3h.2Z"/><path d="M20.1 22.2s0 .1-.1.2l-3.7 2.1-2.3 1.3h-.4V18.9c0-.1.1-.3.3-.3h.1l2.3 1.3L20 22s.1 0 .1.2v.1ZM63.2 21.6l-5.6-2.8-3.4-1.7c-.2-.1-.4 0-.5.2v9.5c.1.2.3.4.6.4h.4l3.2-1.8 2-1.1 3.5-1.9s.2-.1.2-.2V22s-.1-.2-.2-.2Zm-5.6 2.8L55 25.8c-.2 0-.3 0-.4-.1v-7.3c0-.2 0-.3.2-.3h.1l2.7 1.3 1 .5 3.4 1.7s.1 0 .2.2v.2s0 .1-.1.1l-4.3 2.3Z"/><path d="m60.8 22-.1.1-3.2 1.7-2 1.1h-.3v-5.4c0-.1 0-.2.2-.2l2 1 3.3 1.6.1.1v.1ZM39.2 17.2h-4.9v9.7h2.4v-3.2h2.5c2.3 0 4.1-1.4 4-3.4 0-1.9-1.8-3.2-4.1-3.2Zm-.2 4.6h-2.3v-2.7H39c1.1 0 1.9.5 1.9 1.3s-.8 1.4-1.9 1.4ZM52.4 27l-7.7.1-.1-9.7h2.3l.1 7.8 5.4-.1V27zM68.2 23.3v3.5h-2.3v-3.5l-4.3-6.1 2.7-.1 2.7 4.2 2.8-4.2 2.5-.1-4.1 6.3zM82.6 27.2l-1.6.1-4.2-4.5-1.6 1.6v2.9H74l-.1-9.6h1.2V23l5.5-5.4h1.6l-4.5 4.5 4.9 5.1zM88.7 17.3c-3 0-5.5 2.3-5.5 5.1 0 2.7 2.6 5 5.6 4.9 3 0 5.5-2.4 5.5-5.1 0-2.7-2.6-5-5.6-4.9Zm.4 9c-2.4.2-4.4-1.6-4.6-3.9a4.27 4.27 0 0 1 8.5-.1 4.2 4.2 0 0 1-3.9 4ZM103.8 24.5c0 1.5-1.2 2.8-3.8 2.8-1.6 0-3.1-.5-4.3-1.5l.8-.9c1 .9 2.2 1.4 3.5 1.4 1.7 0 2.5-.9 2.5-1.7 0-1-1-1.4-2.9-1.8-2.2-.4-3.5-1-3.6-2.7 0-1.5 1.5-2.8 3.6-2.8 1.4 0 2.7.4 3.8 1.3l-.7.9c-.9-.8-2-1.2-3.1-1.2-1.3 0-2.3.8-2.3 1.7 0 1 1.1 1.3 2.9 1.7 2.1.4 3.5 1.1 3.6 2.8ZM116.7 27.2h-1.2l-.1-7.3-4 6.8-4-6.7v7.3l-1.2.1-.1-9.7h1.2l4.1 6.7 3.9-6.8h1.3l.1 9.6zM124.4 17.3c-3 0-5.5 2.3-5.5 5.1 0 2.7 2.6 5 5.6 4.9 3 0 5.5-2.4 5.5-5.1 0-2.7-2.6-5-5.6-4.9Zm.4 9c-2.4.2-4.4-1.6-4.6-3.9a4.27 4.27 0 0 1 8.5-.1 4.2 4.2 0 0 1-3.9 4ZM139.6 24.5c0 1.5-1.3 2.8-3.8 2.8-1.5 0-2.9-.4-4.1-1.3l-.2-.2.8-.9c.2.2.3.3.5.4.9.6 1.9 1 3 .9 1.7 0 2.5-.9 2.5-1.7 0-.8-.6-1.2-1.6-1.5-.3-.1-.7-.2-1.2-.3h-.2c-2.2-.4-3.5-1-3.6-2.7 0-1.5 1.5-2.8 3.6-2.8 1.4 0 2.7.4 3.8 1.3l-.7.9c-.9-.8-2-1.2-3.1-1.2-1.3 0-2.3.8-2.3 1.7 0 1 1.1 1.3 2.9 1.7.4 0 .8.2 1.1.3.4.1.7.2 1 .4.9.4 1.5 1.1 1.5 2.1Z"/></g><path fill="#fff" d="M55.4 169.6h225.7v2.2H55.4z"/><path fill="none" stroke="#fff" stroke-miterlimit="10" d="M281.1 208.3H55.4"/><path fill="#1b1464" d="M36.7 174.2c-6.6 0-12 5.4-12 12s.9 5.1 2.3 7.1l9.6 16.7 9.6-16.7a12.04 12.04 0 0 0-9.7-19.1Zm0 17.4c-2.9 0-5.3-2.4-5.3-5.3s2.4-5.3 5.3-5.3 5.3 2.4 5.3 5.3-2.4 5.3-5.3 5.3ZM215.9-.2h120.2v26.4H215.9zM11.8 46.8h311.4v70.7H11.8z"/><path fill="#fff" d="M327.3 42.2v9.2h-7.4v-3.3H15.1v3.3H7.7v-9.2h319.6zM327.3 120.2V98.8h-7.4v15.5H15.1V98.8H7.7v21.4h319.6z"/><path fill="#1b1464" d="M262.1 250.7c-.7.3-1.4.6-2.1 1-.6.3-1.2.6-1.7.9-.1 0-.2.1-.3.2-.6.3-1.2.7-1.8 1-.4.2-.8.5-1.2.7-.8.5-1.5 1-2.2 1.5-.9.6-1.8 1.3-2.7 2-.5.4-1.1.8-1.6 1.3-.4.3-.8.7-1.1 1-.3.2-.6.5-.8.7l-1.4 1.4c-.2.2-.3.3-.4.5 0 0-.2 0-.2.1-.6.6-1.2 1.1-1.7 1.7-.2.3-.5.5-.7.8-.2.3-.5.6-.7.9-.2.2-.4.5-.6.7-.3.3-.5.7-.8 1-.2.3-.5.6-.7.9-.4.5-.8 1.1-1.1 1.6-.2.2-.4.5-.5.7-.4.7-.9 1.4-1.3 2-.3.5-.7 1.1-1 1.6-.2.3-.3.6-.5.9-.4.7-.8 1.4-1.1 2.2-.4.7-.7 1.4-1 2.2l-.6 1.5c-.2.6-.5 1.1-.7 1.7-.2.5-.4 1-.5 1.5-.2.5-.4 1.1-.5 1.6-.2.7-.4 1.4-.6 2-.3.9-.5 1.7-.7 2.6-.1.6-.3 1.2-.4 1.9 0 .3-.1.6-.2 1 0 .4-.1.7-.2 1.1 0 .4-.2.9-.2 1.3 0 .5-.1.9-.2 1.4 0 .3 0 .6-.1.9V311.7c0 .3 0 .6.1.9 0 .2 0 .4.1.6 0 .6.2 1.2.3 1.8.1.7.3 1.5.5 2.2.2.7.3 1.4.5 2l.6 2.1.9 2.7c.2.5.4 1.1.6 1.6.2.5.4 1.1.7 1.6 0 .2.2.4.3.6.2.4.4.7.5 1.1.4.9.9 1.8 1.3 2.7.2.4.4.7.6 1.1.1.3.3.5.4.8.3.5.6 1 .9 1.4.6.9 1.2 1.9 1.9 2.8.4.6.9 1.2 1.4 1.8l1.2 1.5.6.6c.2.2.4.4.5.6l.9.9c.3.4.7.7 1 1 .5.6 1.1 1.1 1.6 1.6s1.1 1 1.6 1.5c.3.3.6.5.9.8.2.2.5.4.7.6.4.3.7.6 1.1.9.3.2.6.4.8.7l1.2.9c1 .8 2.1 1.5 3.2 2.1.5.3 1 .6 1.6.9.6.3 1.1.6 1.7 1 1 .5 2.1 1.1 3.1 1.6.6.3 1.2.5 1.8.8.9.4 1.8.7 2.7 1.1.7.3 1.5.5 2.3.8 1.3.4 2.6.8 3.9 1.1.5.1 1.1.3 1.6.4.6.1 1.2.3 1.8.4l1.7.3c.4 0 .8 0 1.2.2.3 0 .6 0 .8.1h12.5c.5 0 .9 0 1.4-.2h1.6c.4 0 .8-.1 1.2-.2.3 0 .6 0 .9-.2.7-.1 1.4-.3 2.2-.5.7-.2 1.4-.3 2-.5.8-.2 1.5-.4 2.3-.7l2.7-.9c.8-.3 1.7-.6 2.5-1 .5-.2 1.1-.5 1.6-.7.4-.2.7-.3 1.1-.5.7-.4 1.5-.7 2.2-1.1.6-.3 1.3-.7 1.9-1.1.5-.3.9-.5 1.4-.8.2-.1.4-.2.6-.4.6-.4 1.3-.8 2-1.3l.9-.6c.5-.4 1-.7 1.5-1.2.3-.3.7-.6 1.1-.8.2-.2.4-.3.6-.5.2-.2.5-.4.7-.6.3-.3.6-.6.9-.8l.9-.9c1-.9 1.8-1.8 2.8-2.8.1-.1.2-.3.2-.4 0-.1.2-.2.3-.3.2-.1.3-.3.4-.4v-.1c.3-.3.6-.7.9-1.1.3-.4.6-.7.9-1.1.2-.2.4-.5.6-.7.3-.4.6-.8.8-1.2.2-.3.5-.6.7-1 .4-.7.9-1.3 1.3-2 .5-.7.9-1.4 1.3-2.2.4-.7.7-1.3 1.1-2 0 0 0-.2.1-.3.4-.9.9-1.8 1.3-2.7.3-.6.5-1.1.7-1.7l.6-1.5c.2-.5.4-.9.5-1.4.3-.8.6-1.6.8-2.4.3-.9.5-1.8.8-2.8.1-.5.2-1 .4-1.4 0-.4.2-.8.2-1.2l.3-1.8c0-.3.1-.6.2-.9 0-.2 0-.5.1-.7 0-.3 0-.6.1-.9v-.9c0-.3 0-.6.1-.9V307.9c0-.7.1-1.4 0-2.1V297c0-.5-.1-1-.2-1.4 0-.6-.2-1.1-.3-1.7 0-.5-.2-1.1-.3-1.6-.1-.7-.3-1.3-.5-2-.3-1.2-.6-2.3-1-3.4-.3-.9-.6-1.9-1-2.8l-1.2-3c-.3-.7-.6-1.4-1-2.1-.3-.7-.7-1.4-1.1-2.1-.3-.6-.7-1.2-1-1.8-.4-.7-.8-1.4-1.3-2.1-.4-.6-.8-1.1-1.2-1.7-.2-.4-.5-.7-.8-1.1-.5-.7-1.1-1.4-1.6-2.1-.3-.4-.7-.8-1-1.3-.2-.2-.4-.4-.6-.7-.3-.3-.5-.6-.8-.9-.5-.5-1-1.1-1.5-1.6-.3-.3-.6-.7-.9-1-.5-.5-1.1-1-1.6-1.5-.5-.4-.9-.8-1.4-1.2-.8-.6-1.5-1.3-2.3-1.8-.7-.5-1.3-1-2-1.5-.6-.4-1.2-.9-1.9-1.3-.9-.6-1.8-1.1-2.7-1.6-.6-.4-1.3-.7-1.9-1.1-.8-.4-1.5-.8-2.2-1.1-.7-.3-1.3-.6-2-.9l-1.5-.6c-.7-.3-1.5-.6-2.2-.8-.6-.2-1.3-.4-2-.6-1.1-.4-2.3-.7-3.5-.9l-2.8-.6c-.5 0-1-.2-1.5-.2-.4 0-.8-.1-1.2-.2h-.6c-.5 0-1 0-1.5-.1-.3 0-.7 0-1-.1H279.1c-.3 0-.7 0-1 .1h-.7c-.4 0-.9.1-1.3.2-.3 0-.7.1-1 .2-.6.1-1.2.2-1.7.4l-1.4.3c-.6.1-1.2.3-1.8.5-.6.2-1.2.3-1.8.5-.9.3-1.9.6-2.8.9-.6.2-1.2.5-1.8.7 0 0-.1 0-.2.1-.5.2-1 .4-1.5.7Z"/><path fill="#2e3192" d="m328.8 343-2.1 1.5c-.7.5-1.4.9-2.2 1.3-.5.3-1.1.6-1.7.9-.7.4-1.5.8-2.2 1.2-.5.3-1 .5-1.5.7-.3.1-.6.3-.9.4-.6.3-1.2.5-1.8.8-1.1.5-2.3.9-3.4 1.3-.9.3-1.8.6-2.7.8-.3 0-.6.2-.9.3-.5.1-1 .2-1.5.4l-1.5.3-1.5.3c-.4 0-.8.2-1.2.2h-.8c-.3 0-.6.1-.9.1H288.6c-.5 0-1.1-.1-1.6-.2h-1.4c-.5 0-1.1-.2-1.6-.3-.4 0-.8-.2-1.1-.2-1-.2-2-.4-3-.7l-1.3-.3c-.5-.2-1.1-.3-1.6-.5s-1-.3-1.5-.5c-.8-.3-1.7-.6-2.5-.9-.8-.3-1.6-.6-2.4-1-.5-.3-1.1-.5-1.6-.7-.5-.3-1.1-.5-1.6-.8-1-.5-1.9-1-2.9-1.6-1-.6-2-1.2-2.9-1.8-.5-.3-1-.7-1.5-1.1a7 7 0 0 1-1-.8c-.4-.3-.8-.6-1.2-1-.4-.3-.8-.6-1.2-1-.3-.3-.6-.5-.9-.8-.5-.4-.8-.8-1.3-1.2-.7-.6-1.3-1.2-1.9-1.8-.3-.4-.7-.7-1-1.1-.3-.3-.5-.6-.8-.9l-.1-.1c-.3-.3-.6-.6-.8-1-.3-.3-.5-.6-.8-1-.2-.2-.4-.5-.6-.7-.3-.4-.6-.8-.9-1.1-.2-.2-.3-.4-.5-.6l-1.8-2.7c-.4-.6-.8-1.2-1.2-1.9l-1.2-2.1c-.4-.7-.8-1.4-1.1-2.1-.3-.7-.6-1.4-.9-2-.3-.8-.7-1.5-1-2.3-.4-.9-.7-1.9-1-2.8-.5-1.5-1-3.1-1.4-4.7-.2-.9-.4-1.9-.6-2.9 0-.4-.2-.8-.2-1.3 0-.4-.2-.8-.2-1.2v-.8c0-.3 0-.6-.1-.9v-14c0-.3 0-.7.1-1v-.6c0-.5.2-1 .3-1.5.1-.9.3-1.8.5-2.6.1-.6.3-1.3.4-1.9 0-.4.2-.8.3-1.1.3-.9.5-1.8.8-2.7.2-.8.5-1.5.8-2.3.2-.5.4-1 .5-1.5.2-.4.3-.8.5-1.2.5-1.3 1.2-2.6 1.8-3.9.3-.6.6-1.2 1-1.8.3-.5.5-.9.8-1.4.1-.3.3-.5.5-.8.2-.4.5-.7.7-1.1v-.1c0-.2.2-.4.4-.5.5-.4.9-.9 1.4-1.3.3-.3.6-.5.8-.7.4-.3.7-.7 1.1-1 .5-.4 1.1-.8 1.6-1.3.9-.7 1.8-1.3 2.7-2 .7-.5 1.5-1 2.2-1.5.4-.2.8-.5 1.2-.7.6-.3 1.2-.7 1.8-1 .1 0 .2-.1.3-.2.6-.3 1.1-.6 1.7-.9.7-.3 1.4-.7 2.1-1 .5-.2 1-.4 1.5-.7.3 0 .6-.1.9-.2l2.4-.6c.6-.2 1.3-.3 1.9-.4.6-.1 1.3-.3 1.9-.4.4 0 .9-.2 1.3-.2.2 0 .5 0 .7-.1H287.6c.4 0 .8 0 1.2.1.5 0 .9.1 1.3.2.4 0 .8.1 1.2.2.7.1 1.4.2 2.2.4l2.6.6 2.2.6c.6.2 1.1.3 1.7.5.6.2 1.2.4 1.7.6.6.2 1.2.5 1.9.7.5.2.9.3 1.4.5.2 0 .4.2.6.3 1 .4 1.9.8 2.9 1.3.5.3 1.1.5 1.6.8.3.2.7.4 1 .6.4.2.9.5 1.3.7.3.2.6.4.9.5.2.1.5.3.7.4.5.3 1.1.7 1.6 1 .9.6 1.8 1.2 2.7 1.9l1.4 1.1c.4.3.8.7 1.3 1 .4.3.8.7 1.1 1 .3.3.6.6.9.8 1.1.9 2.1 2 3.1 3 .2.3.6.6.9.9.2.3.5.6.7.8l.7.7c.3.3.5.6.8 1l1 1.3c.3.3.5.6.7 1 .4.6.8 1.1 1.2 1.7.6.9 1.2 1.7 1.7 2.6.4.7.8 1.4 1.2 2 .7 1.2 1.4 2.5 2 3.8.2.4.4.9.6 1.3.2.4.4.8.6 1.3.3.8.7 1.6 1 2.5.3 1 .7 2 1 3 .2.6.4 1.3.6 1.9.2.8.4 1.6.6 2.3.1.5.2 1.1.4 1.6 0 .4.2.8.3 1.2 0 .4.1.7.2 1.1 0 .2 0 .5.1.7v1.4c0 .3 0 .6.1.8v1.5c0 .5 0 1 .1 1.4v10.9c0 .3 0 .6-.1.9v.4c-.1.5-.2.9-.4 1.4-.2.9-.5 1.9-.8 2.8-.3.8-.5 1.6-.8 2.4-.2.5-.3.9-.5 1.4l-.6 1.5c-.2.6-.5 1.1-.7 1.7-.4.9-.9 1.8-1.3 2.7 0 0 0 .2-.1.3-.4.7-.7 1.3-1.1 2-.4.7-.9 1.5-1.3 2.2-.4.7-.9 1.3-1.3 2l-.7 1c-.3.4-.6.8-.8 1.2-.2.2-.4.5-.6.7-.3.4-.6.7-.9 1.1-.3.4-.6.7-.9 1.1v.1c-.1.2-.3.3-.4.4-.1 0-.3.1-.3.3h-.1Zm5.9-53.4v-1.3c0-.5-.1-.9-.2-1.4-.1-.5-.2-1-.4-1.5-.2-.8-.4-1.6-.7-2.3-.2-.4-.3-.8-.5-1.2 0-.2-.2-.4-.3-.6-.4-.9-.8-1.7-1.3-2.6-.4-.7-.9-1.5-1.3-2.2-.6-1-1.3-1.9-2-2.8-.2-.3-.5-.6-.8-1-.2-.2-.4-.4-.5-.7-.3-.3-.5-.6-.8-.9-.5-.5-1-1-1.5-1.4-.4-.3-.7-.7-1.1-1-.7-.6-1.4-1.1-2.2-1.6-.6-.4-1.2-.8-1.9-1.2-.6-.3-1.1-.6-1.7-.9-.5-.2-1-.4-1.4-.6-.6-.2-1.1-.4-1.7-.5-.3 0-.5 0-.8-.1h-.5c-.4-.1-.9 0-1.3 0-.5 0-1 .1-1.4.3-.6.2-1.2.4-1.7.7-.3.2-.6.4-.9.7-.2.2-.3.4-.5.5-.3.3-.5.7-.7 1.1-.2.5-.1 1 0 1.5.2.4.5.7.8.9.4.2.7.5 1.1.7.4.2.7.5 1.1.7.5.4 1.1.8 1.6 1.2.4.3.8.6 1.1.9.3.2.6.5.9.8.5.4.9.9 1.4 1.3.3.2.6.5.8.8.4.5.9.9 1.4 1.4.4.4.8.8 1.2 1.3.5.6 1 1.1 1.4 1.7.7.8 1.3 1.7 2 2.6.6.8 1.2 1.6 1.7 2.4.4.6.8 1.3 1.2 2 .3.5.5.9.8 1.4.3.5.5.9.8 1.4.2.3.3.6.5 1 .1.3.3.5.4.8.4.8.7 1.6 1.1 2.3.3.6.5 1.3.8 1.9.2.4.3.7.4 1.1.3.6.7.9 1.3 1.1.7.2 1.3 0 1.9-.5.2-.2.4-.3.6-.5.4-.4.8-.9 1-1.5.2-.4.4-.8.5-1.2l.3-1.2c0-.4.1-.8.2-1.2V289.8ZM302 263.2c.5-.4 1-.9 1.2-1.5.2-.4.3-.9.3-1.4 0-.4-.1-.8-.3-1.2-.2-.5-.6-.9-.9-1.4-.6-.7-1.4-1.1-2.3-1.5-.5-.2-1.1-.4-1.7-.3h-.5c-.6 0-1.1.1-1.7.3a3 3 0 0 0-1 .4c-.4.2-.7.4-1 .7l-.6.6c-.2.3-.4.7-.5 1.1v.7c0 .4 0 .7.2 1a5.39 5.39 0 0 0 1.9 2.5c.6.5 1.2.8 1.9 1.1.3.1.7.2 1 .2h.4c1.4 0 2.6-.5 3.7-1.3Zm-43.9 19.1c.2.8.6 1.5 1.2 2.2.4.5.8.9 1.2 1.3.5.4 1.1.8 1.7 1 .5.2.9.3 1.4.4.2 0 .5 0 .7.1H265.2c.6 0 1.2-.1 1.8-.3.4-.1.9-.3 1.3-.5s.8-.4 1.1-.7c.3-.2.5-.4.8-.6.1-.1.2-.3.3-.4.4-.4.7-.9 1-1.4.4-.7.6-1.6.8-2.4v-1.7c0-.3 0-.6-.2-.9-.1-.6-.3-1.1-.6-1.6-.2-.4-.5-.9-.8-1.3-.3-.4-.6-.7-1-1-.2-.2-.5-.4-.8-.6-.5-.3-1.1-.6-1.7-.8-.4 0-.7-.2-1.1-.3H264.4c-.6 0-1.1.2-1.6.3-.7.2-1.3.5-1.9 1-.2.1-.4.3-.6.5-.1.1-.3.2-.4.3-.3.3-.5.6-.7.9a6.64 6.64 0 0 0-1.3 3.1c0 .4-.1.8 0 1.2 0 .8.1 1.5.3 2.2Zm31.9 2.6c.5 0 .9-.1 1.4-.2.6-.1 1.1-.4 1.6-.7.4-.2.8-.5 1.2-.8.2-.2.3-.3.5-.4.5-.4.8-1 1.1-1.5.4-.6.6-1.3.8-2.1 0-.3.1-.6.1-.9V276.9c0-.8-.2-1.5-.5-2.2-.2-.5-.5-1-.8-1.4-.4-.5-.8-1-1.3-1.3-.1 0-.2-.2-.3-.3-.7-.5-1.4-.9-2.2-1.1-.6-.2-1.2-.3-1.8-.3h-.7c-.6 0-1.1.1-1.6.3-.4.1-.8.3-1.2.5-.7.3-1.3.8-1.8 1.3-.4.4-.8.8-1.1 1.3-.5.8-.8 1.6-1 2.5 0 .4-.1.9-.1 1.3 0 .7.1 1.4.3 2 .2.6.5 1.2.8 1.8.4.7.9 1.2 1.5 1.7.4.3.8.6 1.2.8.4.2.8.4 1.3.5.4.1.8.2 1.3.3h1.5Z"/><path fill="#1b1464" d="M328.9 342.9h-.1l-2.1 1.5c-.7.5-1.4.9-2.2 1.3-.5.3-1.1.6-1.7.9-.7.4-1.5.8-2.2 1.2-.5.3-1 .5-1.5.7-.3.1-.6.3-.9.4-.6.3-1.2.5-1.8.8-1.1.5-2.3.9-3.4 1.3-.9.3-1.8.6-2.7.8-.3 0-.6.2-.9.3-.5.1-1 .2-1.5.4l-1.5.3-1.5.3c-.4 0-.8.2-1.2.2h-.8c-.3 0-.6.1-.9.1H288.6c-.5 0-1.1-.1-1.6-.2h-1.4c-.5 0-1.1-.2-1.6-.3-.4 0-.8-.2-1.1-.2-1-.2-2-.4-3-.7l-1.3-.3c-.5-.2-1.1-.3-1.6-.5s-1-.3-1.5-.5c-.8-.3-1.7-.6-2.5-.9-.8-.3-1.6-.6-2.4-1-.5-.3-1.1-.5-1.6-.7-.5-.3-1.1-.5-1.6-.8-1-.5-1.9-1-2.9-1.6-1-.6-2-1.2-2.9-1.8-.5-.3-1-.7-1.5-1.1a7 7 0 0 1-1-.8c-.4-.3-.8-.6-1.2-1-.4-.3-.8-.6-1.2-1-.3-.3-.6-.5-.9-.8-.5-.4-.8-.8-1.3-1.2-.7-.6-1.3-1.2-1.9-1.8-.3-.4-.7-.7-1-1.1-.3-.3-.5-.6-.8-.9l-.1-.1c-.3-.3-.6-.6-.8-1-.3-.3-.5-.6-.8-1-.2-.2-.4-.5-.6-.7-.3-.4-.6-.8-.9-1.1-.2-.2-.3-.4-.5-.6l-1.8-2.7c-.4-.6-.8-1.2-1.2-1.9l-1.2-2.1c-.4-.7-.8-1.4-1.1-2.1-.3-.7-.6-1.4-.9-2-.3-.8-.7-1.5-1-2.3-.4-.9-.7-1.9-1-2.8-.5-1.5-1-3.1-1.4-4.7-.2-.9-.4-1.9-.6-2.9 0-.4-.2-.8-.2-1.3 0-.4-.2-.8-.2-1.2v-.8c0-.3 0-.6-.1-.9v-14c0-.3 0-.7.1-1v-.6c0-.5.2-1 .3-1.5.1-.9.3-1.8.5-2.6.1-.6.3-1.3.4-1.9 0-.4.2-.8.3-1.1.3-.9.5-1.8.8-2.7.2-.8.5-1.5.8-2.3.2-.5.4-1 .5-1.5.2-.4.3-.8.5-1.2.5-1.3 1.2-2.6 1.8-3.9.3-.6.6-1.2 1-1.8.3-.5.5-.9.8-1.4.1-.3.3-.5.5-.8.2-.4.5-.7.7-1.1v-.1s-.2 0-.2.1c-.6.6-1.2 1.1-1.7 1.7-.2.3-.5.5-.7.8-.2.3-.5.6-.7.9-.2.2-.4.5-.6.7-.3.3-.5.7-.8 1-.2.3-.5.6-.7.9-.4.5-.8 1.1-1.1 1.6-.2.2-.4.5-.5.7-.4.7-.9 1.4-1.3 2-.3.5-.7 1.1-1 1.6-.2.3-.3.6-.5.9-.4.7-.8 1.4-1.1 2.2-.4.7-.7 1.4-1 2.2l-.6 1.5c-.2.6-.5 1.1-.7 1.7-.2.5-.4 1-.5 1.5-.2.5-.4 1.1-.5 1.6-.2.7-.4 1.4-.6 2-.3.9-.5 1.7-.7 2.6-.1.6-.3 1.2-.4 1.9 0 .3-.1.6-.2 1 0 .4-.1.7-.2 1.1 0 .4-.2.9-.2 1.3 0 .5-.1.9-.2 1.4 0 .3 0 .6-.1.9V311.3c0 .3 0 .6.1.9 0 .2 0 .4.1.6 0 .6.2 1.2.3 1.8.1.7.3 1.5.5 2.2.2.7.3 1.4.5 2l.6 2.1.9 2.7c.2.5.4 1.1.6 1.6.2.5.4 1.1.7 1.6 0 .2.2.4.3.6.2.4.4.7.5 1.1.4.9.9 1.8 1.3 2.7.2.4.4.7.6 1.1.1.3.3.5.4.8.3.5.6 1 .9 1.4.6.9 1.2 1.9 1.9 2.8.4.6.9 1.2 1.4 1.8l1.2 1.5.6.6c.2.2.4.4.5.6l.9.9c.3.4.7.7 1 1 .5.6 1.1 1.1 1.6 1.6s1.1 1 1.6 1.5c.3.3.6.5.9.8.2.2.5.4.7.6.4.3.7.6 1.1.9.3.2.6.4.8.7l1.2.9c1 .8 2.1 1.5 3.2 2.1.5.3 1 .6 1.6.9.6.3 1.1.6 1.7 1 1 .5 2.1 1.1 3.1 1.6.6.3 1.2.5 1.8.8.9.4 1.8.7 2.7 1.1.7.3 1.5.5 2.3.8 1.3.4 2.6.8 3.9 1.1.5.1 1.1.3 1.6.4.6.1 1.2.3 1.8.4l1.7.3c.4 0 .8 0 1.2.2.3 0 .6 0 .8.1h12.5c.5 0 .9 0 1.4-.2h1.6c.4 0 .8-.1 1.2-.2.3 0 .6 0 .9-.2.7-.1 1.4-.3 2.2-.5.7-.2 1.4-.3 2-.5.8-.2 1.5-.4 2.3-.7l2.7-.9c.8-.3 1.7-.6 2.5-1 .5-.2 1.1-.5 1.6-.7.4-.2.7-.3 1.1-.5.7-.4 1.5-.7 2.2-1.1.6-.3 1.3-.7 1.9-1.1.5-.3.9-.5 1.4-.8.2-.1.4-.2.6-.4.6-.4 1.3-.8 2-1.3l.9-.6c.5-.4 1-.7 1.5-1.2.3-.3.7-.6 1.1-.8.2-.2.4-.3.6-.5.2-.2.5-.4.7-.6.3-.3.6-.6.9-.8l.9-.9c1-.9 1.8-1.8 2.8-2.8.1-.1.2-.3.2-.4ZM263.8 250c.3 0 .6-.1.9-.2l2.4-.6c.6-.2 1.3-.3 1.9-.4.6-.1 1.3-.3 1.9-.4.4 0 .9-.2 1.3-.2.2 0 .5 0 .7-.1H287.2c.4 0 .8 0 1.2.1.5 0 .9.1 1.3.2.4 0 .8.1 1.2.2.7.1 1.4.2 2.2.4l2.6.6 2.2.6c.6.2 1.1.3 1.7.5.6.2 1.2.4 1.7.6.6.2 1.2.5 1.9.7.5.2.9.3 1.4.5.2 0 .4.2.6.3 1 .4 1.9.8 2.9 1.3.5.3 1.1.5 1.6.8.3.2.7.4 1 .6.4.2.9.5 1.3.7.3.2.6.4.9.5.2.1.5.3.7.4.5.3 1.1.7 1.6 1 .9.6 1.8 1.2 2.7 1.9l1.4 1.1c.4.3.8.7 1.3 1 .4.3.8.7 1.1 1 .3.3.6.6.9.8 1.1.9 2.1 2 3.1 3 .2.3.6.6.9.9.2.3.5.6.7.8l.7.7c.3.3.5.6.8 1l1 1.3c.3.3.5.6.7 1 .4.6.8 1.1 1.2 1.7.6.9 1.2 1.7 1.7 2.6.4.7.8 1.4 1.2 2 .7 1.2 1.4 2.5 2 3.8.2.4.4.9.6 1.3.2.4.4.8.6 1.3.3.8.7 1.6 1 2.5.3 1 .7 2 1 3 .2.6.4 1.3.6 1.9.2.8.4 1.6.6 2.3.1.5.2 1.1.4 1.6 0 .4.2.8.3 1.2 0 .4.1.7.2 1.1 0 .2 0 .5.1.7v1.4c0 .3 0 .6.1.8v1.5c0 .5 0 1 .1 1.4v10.9c0 .3 0 .6-.1.9v.4c0-.4.2-.8.2-1.2l.3-1.8c0-.3.1-.6.2-.9 0-.2 0-.5.1-.7 0-.3 0-.6.1-.9v-.9c0-.3 0-.6.1-.9V307.9c0-.7.1-1.4 0-2.1V297c0-.5-.1-1-.2-1.4 0-.6-.2-1.1-.3-1.7 0-.5-.2-1.1-.3-1.6-.1-.7-.3-1.3-.5-2-.3-1.2-.6-2.3-1-3.4-.3-.9-.6-1.9-1-2.8l-1.2-3c-.3-.7-.6-1.4-1-2.1-.3-.7-.7-1.4-1.1-2.1-.3-.6-.7-1.2-1-1.8-.4-.7-.8-1.4-1.3-2.1-.4-.6-.8-1.1-1.2-1.7-.2-.4-.5-.7-.8-1.1-.5-.7-1.1-1.4-1.6-2.1-.3-.4-.7-.8-1-1.3-.2-.2-.4-.4-.6-.7-.3-.3-.5-.6-.8-.9-.5-.5-1-1.1-1.5-1.6-.3-.3-.6-.7-.9-1-.5-.5-1.1-1-1.6-1.5-.5-.4-.9-.8-1.4-1.2-.8-.6-1.5-1.3-2.3-1.8-.7-.5-1.3-1-2-1.5-.6-.4-1.2-.9-1.9-1.3-.9-.6-1.8-1.1-2.7-1.6-.6-.4-1.3-.7-1.9-1.1-.8-.4-1.5-.8-2.2-1.1-.7-.3-1.3-.6-2-.9l-1.5-.6c-.7-.3-1.5-.6-2.2-.8-.6-.2-1.3-.4-2-.6-1.1-.4-2.3-.7-3.5-.9l-2.8-.6c-.5 0-1-.2-1.5-.2-.4 0-.8-.1-1.2-.2h-.6c-.5 0-1 0-1.5-.1-.3 0-.7 0-1-.1H278.9c-.3 0-.7 0-1 .1h-.7c-.4 0-.9.1-1.3.2-.3 0-.7.1-1 .2-.6.1-1.2.2-1.7.4l-1.4.3c-.6.1-1.2.3-1.8.5-.6.2-1.2.3-1.8.5-.9.3-1.9.6-2.8.9-.6.2-1.2.5-1.8.7 0 0-.1 0-.2.1Z"/><path fill="#1b1464" d="M334.7 290.4v-2.1c0-.5-.1-.9-.2-1.4-.1-.5-.2-1-.4-1.5-.2-.8-.4-1.6-.7-2.3-.2-.4-.3-.8-.5-1.2 0-.2-.2-.4-.3-.6-.4-.9-.8-1.7-1.3-2.6-.4-.7-.9-1.5-1.3-2.2-.6-1-1.3-1.9-2-2.8-.2-.3-.5-.6-.8-1-.2-.2-.4-.4-.5-.7-.3-.3-.5-.6-.8-.9-.5-.5-1-1-1.5-1.4-.4-.3-.7-.7-1.1-1-.7-.6-1.4-1.1-2.2-1.6-.6-.4-1.2-.8-1.9-1.2-.6-.3-1.1-.6-1.7-.9-.5-.2-1-.4-1.4-.6-.6-.2-1.1-.4-1.7-.5-.3 0-.5 0-.8-.1h-.5c-.4-.1-.9 0-1.3 0-.5 0-1 .1-1.4.3-.6.2-1.2.4-1.7.7-.3.2-.6.4-.9.7-.2.2-.3.4-.5.5-.3.3-.5.7-.7 1.1-.2.5-.1 1 0 1.5.2.4.5.7.8.9.4.2.7.5 1.1.7.4.2.7.5 1.1.7.5.4 1.1.8 1.6 1.2.4.3.8.6 1.1.9.3.2.6.5.9.8.5.4.9.9 1.4 1.3.3.2.6.5.8.8.4.5.9.9 1.4 1.4.4.4.8.8 1.2 1.3.5.6 1 1.1 1.4 1.7.7.8 1.3 1.7 2 2.6.6.8 1.2 1.6 1.7 2.4.4.6.8 1.3 1.2 2 .3.5.5.9.8 1.4.3.5.5.9.8 1.4.2.3.3.6.5 1 .1.3.3.5.4.8.4.8.7 1.6 1.1 2.3.3.6.5 1.3.8 1.9.2.4.3.7.4 1.1.3.6.7.9 1.3 1.1.7.2 1.3 0 1.9-.5.2-.2.4-.3.6-.5.4-.4.8-.9 1-1.5.2-.4.4-.8.5-1.2l.3-1.2c0-.4.1-.8.2-1.2v-1.6ZM298.3 264.5c1.4 0 2.6-.5 3.7-1.3.5-.4 1-.9 1.2-1.5.2-.4.3-.9.3-1.4 0-.4-.1-.8-.3-1.2-.2-.5-.6-.9-.9-1.4-.6-.7-1.4-1.1-2.3-1.5-.5-.2-1.1-.4-1.7-.3h-.5c-.6 0-1.1.1-1.7.3a3 3 0 0 0-1 .4c-.4.2-.7.4-1 .7l-.6.6c-.2.3-.4.7-.5 1.1v.7c0 .4 0 .7.2 1a5.39 5.39 0 0 0 1.9 2.5c.6.5 1.2.8 1.9 1.1.3.1.7.2 1 .2h.4ZM257.8 278.9c0-.7.3-1.3.6-2 .2-.4.4-.8.7-1.1.2-.3.5-.6.7-.9.1-.1.3-.2.4-.3.2-.2.4-.3.6-.5.6-.4 1.2-.7 1.9-1 .5-.2 1.1-.3 1.6-.3H266c.4 0 .7.2 1.1.3.6.2 1.2.4 1.7.8.3.2.6.4.8.6.3.3.7.6 1 1 .3.4.6.8.8 1.3.3.5.5 1.1.6 1.6 0 .3.1.6.2.9v1.7c-.2.8-.4 1.7-.8 2.4-.3.5-.6 1-1 1.4-.1.1-.2.3-.3.4-.2.2-.5.4-.8.6-.3.3-.7.5-1.1.7-.4.2-.8.4-1.3.5-.6.2-1.2.3-1.8.3H264.2c-.2 0-.5 0-.7-.1-.5 0-1-.2-1.4-.4-.6-.3-1.2-.6-1.7-1s-.9-.8-1.2-1.3c-.5-.7-.9-1.4-1.2-2.2-.2-.7-.4-1.4-.3-2.2v-1.2Zm10.6 5.5c.4-.2.7-.6.9-.9a5.44 5.44 0 0 0-3.3-8.8c-1.8-.4-3.5.1-4.8 1.4-.4.3-.7.7-.9 1.1 0 .1-.1.3-.2.4-.3.4-.4.9-.5 1.4-.6 3 1.3 6.1 4.5 6.6 1.5.3 2.9 0 4.2-1h.1ZM288.5 284.9c-.4 0-.8-.2-1.3-.3-.4-.1-.8-.4-1.3-.5-.5-.2-.9-.5-1.2-.8-.6-.5-1.1-1-1.5-1.7-.3-.6-.6-1.2-.8-1.8-.2-.7-.3-1.3-.3-2 0-.4 0-.9.1-1.3a6.89 6.89 0 0 1 2.1-3.8c.5-.5 1.1-1 1.8-1.3.4-.2.8-.4 1.2-.5.5-.1 1.1-.3 1.6-.3h.7c.6 0 1.2 0 1.8.3.8.2 1.6.6 2.2 1.1.1 0 .2.2.3.3a6.38 6.38 0 0 1 2.1 2.7c.3.7.5 1.4.5 2.2V278.6c0 .3 0 .6-.1.9-.2.7-.4 1.4-.8 2.1-.3.5-.7 1.1-1.1 1.5-.2.2-.3.3-.5.4-.4.3-.8.6-1.2.8-.5.3-1 .5-1.6.7-.5.1-.9.2-1.4.2h-1.5Zm5.2-3.6c.7-.9 1.2-1.8 1.3-3 .2-1.5-.2-3-1.2-4.2a5.66 5.66 0 0 0-8.1-.5c-.4.4-.7.8-1 1.2 0 0 0 .2-.1.2-.3.4-.4.9-.5 1.4-.6 3 1.2 5.8 4 6.5 1.7.4 3.3.1 4.7-.9l.1-.1c.3-.2.6-.4.8-.7Z"/><path fill="#dccf31" d="M260 277.6c-.3.4-.4.9-.5 1.4-.6 3 1.3 6.1 4.5 6.6 1.5.3 2.9 0 4.2-1h.1V283c0-.2 0-.5-.1-.7-.2-.9-.6-1.6-1.1-2.3-.4-.6-1-1-1.6-1.4-.3-.2-.6-.3-.8-.5-.8-.4-1.7-.6-2.6-.6h-.2c-.5 0-1 0-1.6.2h-.3Z"/><path fill="#cdae2c" d="M260 277.6h.3c.5-.2 1-.2 1.6-.2h.2c.9 0 1.7.2 2.6.6.3.1.6.3.8.5.6.4 1.1.9 1.6 1.4.5.7.9 1.5 1.1 2.3 0 .2 0 .5.1.7.1.5 0 1.1 0 1.6.4-.2.7-.6.9-.9a5.44 5.44 0 0 0-3.3-8.8c-1.8-.4-3.5.1-4.8 1.4-.4.3-.7.7-.9 1.1 0 .1-.1.3-.2.4ZM268.4 284.4Z"/><path fill="#dccf31" d="M284.6 275.1c-.3.4-.4.9-.5 1.4-.6 3 1.2 5.8 4 6.5 1.7.4 3.3.1 4.7-.9l.1-.1v-.8c0-.4 0-.7-.1-1.1-.1-.6-.3-1.1-.5-1.6s-.5-.9-.9-1.3c-.3-.4-.7-.7-1.1-1-.5-.3-1-.6-1.5-.8-.6-.2-1.2-.4-1.9-.4s-1.3 0-2 .2h-.3Z"/><path fill="#cdae2c" d="M284.6 275.1h.3c.7-.2 1.3-.3 2-.2a6.46 6.46 0 0 1 5.4 3.5c.3.5.4 1.1.5 1.6 0 .3.1.7.1 1.1v.8c.3-.2.6-.4.8-.7.7-.9 1.2-1.8 1.3-3 .2-1.5-.2-3-1.2-4.2a5.66 5.66 0 0 0-8.1-.5c-.4.4-.7.8-1 1.2 0 0 0 .2-.1.2Z"/><path fill="#1b1464" d="m134.5 292.2-26 26h-99v-26h125z"/><path fill="#fff" d="M325.5 292.2v26h-217l26-26h191zM9 252.6h316.8v2.2H9z"/></svg>