<?xml version="1.0" encoding="UTF-8"?>
<svg id="uuid-c709fb11-e518-4e84-966a-8a285b9e4757" data-name="ffca2fad-5577-4f9f-be86-b934d26179dd" xmlns="http://www.w3.org/2000/svg" width="335" height="335" xmlns:xlink="http://www.w3.org/1999/xlink" viewBox="0 0 335 335">
  <defs>
    <radialGradient id="uuid-c4ad4e46-3152-4320-828a-7fe7568b1339" cx="167.5" cy="91.7" fx="167.5" fy="91.7" r="167.5" gradientTransform="translate(0 75.8)" gradientUnits="userSpaceOnUse">
      <stop offset="0" stop-color="#fff"/>
      <stop offset="1" stop-color="#f1f1f2"/>
    </radialGradient>
    <linearGradient id="uuid-fc9383d0-090d-47df-9c4c-0a787d78931e" x1="167.5" y1="-54.45" x2="167.5" y2="207" gradientTransform="translate(0 75.8)" gradientUnits="userSpaceOnUse">
      <stop offset="0" stop-color="#be1e2d"/>
      <stop offset=".1" stop-color="#b6203d"/>
      <stop offset=".36" stop-color="#a62360"/>
      <stop offset=".6" stop-color="#9a2579"/>
      <stop offset=".82" stop-color="#932789"/>
      <stop offset="1" stop-color="#90278e"/>
    </linearGradient>
    <clipPath id="uuid-84f2d968-a893-4410-b95e-d87ab5a12c63">
      <path d="M330.2,27.8c0,3.9-8.9,11.4-8.9,7,0,5-10.1,.6-10.1,2.9,0,6.8-10.2-1.2-10.2-3,0,2.5-10-2.2-10-3.6,0-4.6-8-6.8-8-3.7,0-.3-9,2.7-9,1.6s-8.4-6.5-8.4-2.3c0,.1-9,.9-9-2.6,0,9.4-8,4.1-8,4.7s-7.4,2.9-7.4,4.9c0,7.1-12.2,4.7-12.2,2.5,0,2-9.6-6.2-9.6-6,0-3-10-2.2-10-3.1,0,.9-10.8-4.1-10.8,.9,0,2.3-9.8,3.9-9.8,3.7,0,4.5-8.1,1.4-8.1,5.1,0-.6-10.5,3.2-10.5,2.5,0,5.3-8.9-3-8.9,1.5,0,1-8.9-10.4-8.9-4.7,0,0-9,7.8-9,3.7,0-.8-8.9-.6-8.9,1.4s-8.9-2-8.9,.3c0-3-8.8-3.7-8.8-3.8,0-3.7-8.9-4.6-8.9,0,0-4.1-10.2-6.8-10.2-2.8s-8.7-8.2-8.7-3.3c0-4.2-10-6.5-10-3.8,0,7.6-11.1-8-11.1-6.3,0-1.8-9,13.4-9,8.3,0,2.7-9.6,6.6-9.6,3,0,1.5-8.7,9.6-8.7,7.6,0,.3-10.7,4.5-10.7,1s-9.4-11.2-9.4-6.9-10.9-.7-10.9,.6c0-1.6-8-3.2-8-6.7l-1.6,1.8v242.2c2.1-1.6,9.9-4.6,9.9-1.7s12.5,.5,12.5,.7c0,5.5,10.8-7.1,10.8-7.6s7.7,3.2,7.7,6.4,8.5-1.7,8.5-2.9c0,.9,1-11.2,1-10.3,0,5.6,9.5-9.9,9.5-4.2,0,2.6,9.5,5.2,9.5,1,0-2,7.3,4,7.3,5.3,0-4.5,6.8,5.5,6.8,5.1s8.9-3.8,8.9-1.6c0-2.7,8.2-.6,8.2,3.4,0-1.2,8.5-2.1,8.5-3.7,0,2.6,8.7,5.7,8.7,5.7,0,0,8.5-2.2,8.5-1.5s9.4-1.3,9.4-1.7c0,1.7,8.9,2,8.9,1.6,0-4.7,8.4,7.5,8.4,2.8,0,0,6.3,9.3,6.3,9.8,0,4,9.4,3.1,9.4-1.2,0,.8,8.9-1,8.9-.4s8.4-4.8,8.4-.4c0-.2,12.3,3.9,12.3,3.3,0,2.7,11-2,11-1.6,0-1.3,10.8-7.7,10.8-7.5s11,1.1,11,1.5,9.7,1.8,9.7,1.5,9.1-3.2,9.1-2c0-.7,8.5-3.1,8.5-3.1,0,0,9.1,3.6,9.1-2.5,0,.7,9.3,3.9,9.3,1.6,0,1.5,9.6,2.7,9.6-.4,0,.7,9.3,3.6,9.3,1.9,0-.2,7.1,9.6,7.1,8,0,1.5,11.2-.4,11.2-2.9,0-.1,8,6.8,8,5.1,0,1.6,11.6,2.2,11.6,2.9,0-3.3,1.1-14,1.1-9.2,0,.6,.1,.3,.3-.6V24c-2.4,.1-4.8,1-4.8,3.8Z" fill="none"/>
    </clipPath>
    <linearGradient id="uuid-ee1607f4-112e-4726-8f8f-b59b1cb3d78f" x1="312.87" y1="243.2" x2="322.13" y2="243.2" gradientTransform="translate(0 75.8)" gradientUnits="userSpaceOnUse">
      <stop offset="0" stop-color="#be1e2d"/>
      <stop offset=".1" stop-color="#b6203d"/>
      <stop offset=".36" stop-color="#a62360"/>
      <stop offset=".6" stop-color="#9a2579"/>
      <stop offset=".82" stop-color="#932789"/>
      <stop offset="1" stop-color="#90278e"/>
    </linearGradient>
    <linearGradient id="uuid-253523b4-5ddc-45bb-8082-729597922a60" x1="12.86" y1="243.2" x2="22.12" y2="243.2" gradientTransform="translate(0 75.8)" gradientUnits="userSpaceOnUse">
      <stop offset="0" stop-color="#be1e2d"/>
      <stop offset=".1" stop-color="#b6203d"/>
      <stop offset=".36" stop-color="#a62360"/>
      <stop offset=".6" stop-color="#9a2579"/>
      <stop offset=".82" stop-color="#932789"/>
      <stop offset="1" stop-color="#90278e"/>
    </linearGradient>
  </defs>
  <g>
    <rect y="0" width="335" height="335" fill="url(#uuid-c4ad4e46-3152-4320-828a-7fe7568b1339)"/>
    <path d="M330.2,28.8c0,3.9-8.9,11.4-8.9,7,0,5-10.1,.6-10.1,2.9,0,6.8-10.2-1.2-10.2-3,0,2.5-10-2.2-10-3.5,0-4.7-8-6.9-8-3.8,0-.3-9,2.7-9,1.6s-8.4-6.5-8.4-2.3c0,.1-9,1-9-2.6,0,9.4-8,4.1-8,4.7s-7.4,2.9-7.4,4.9c0,7.1-12.2,4.7-12.2,2.5,0,2-9.6-6.2-9.6-6,0-3-10-2.2-10-3.1,0,.9-10.8-4.1-10.8,.9,0,2.3-9.8,3.9-9.8,3.7,0,4.5-8.1,1.4-8.1,5.1,0-.6-10.5,3.2-10.5,2.5,0,5.3-8.9-3-8.9,1.5,0,1-8.9-10.4-8.9-4.6,0,0-9,7.7-9,3.6,0-.8-8.9-.6-8.9,1.4s-8.9-2-8.9,.4c0-3-8.8-3.8-8.8-3.9,0-3.7-8.9-4.6-8.9,0,0-4.1-10.2-6.8-10.2-2.8s-8.7-8.2-8.7-3.2c0-4.3-10-6.6-10-3.9,0,7.6-11.1-8-11.1-6.3,0-1.8-9,13.4-9,8.3,0,2.7-9.6,6.6-9.6,3,0,1.5-8.7,9.6-8.7,7.6,0,.3-10.7,4.5-10.7,1s-9.4-11.2-9.4-6.9-10.9-.7-10.9,.6c0-1.6-8-3.2-8-6.7l-1.6,1.8v242.2c2.1-1.6,9.9-4.6,9.9-1.7s12.5,.5,12.5,.7c0,5.5,10.8-7.1,10.8-7.6s7.7,3.2,7.7,6.4,8.5-1.7,8.5-2.9c0,.9,1-11.2,1-10.3,0,5.6,9.5-9.9,9.5-4.2,0,2.6,9.5,5.2,9.5,1,0-2,7.3,4,7.3,5.3,0-4.5,6.8,5.5,6.8,5.1s8.9-3.8,8.9-1.6c0-2.7,8.2-.6,8.2,3.4,0-1.2,8.5-2.1,8.5-3.7,0,2.6,8.7,5.7,8.7,5.7,0,0,8.5-2.2,8.5-1.5s9.4-1.3,9.4-1.7c0,1.7,8.9,2,8.9,1.6,0-4.7,8.4,7.5,8.4,2.8,0,0,6.3,9.3,6.3,9.8,0,4,9.4,3.1,9.4-1.2,0,.8,8.9-1,8.9-.4s8.4-4.8,8.4-.4c0-.2,12.3,3.9,12.3,3.3,0,2.7,11-2,11-1.6,0-1.3,10.8-7.7,10.8-7.5s11,1.1,11,1.5,9.7,1.8,9.7,1.5,9.1-3.2,9.1-2c0-.7,8.5-3.1,8.5-3.1,0,0,9.1,3.6,9.1-2.5,0,.7,9.3,3.9,9.3,1.6,0,1.5,9.6,2.7,9.6-.4,0,.7,9.3,3.6,9.3,1.9,0-.2,7.1,9.6,7.1,8,0,1.5,11.2-.4,11.2-2.9,0-.1,8,6.8,8,5.1,0,1.6,11.6,2.2,11.6,2.9,0-3.3,1.1-14,1.1-9.2,0,.6,.1,.3,.3-.6V25c-2.4,.1-4.8,1-4.8,3.8Z" fill="#231f20"/>
    <g>
      <path d="M330.2,27.8c0,3.9-8.9,11.4-8.9,7,0,5-10.1,.6-10.1,2.9,0,6.8-10.2-1.2-10.2-3,0,2.5-10-2.2-10-3.6,0-4.6-8-6.8-8-3.7,0-.3-9,2.7-9,1.6s-8.4-6.5-8.4-2.3c0,.1-9,.9-9-2.6,0,9.4-8,4.1-8,4.7s-7.4,2.9-7.4,4.9c0,7.1-12.2,4.7-12.2,2.5,0,2-9.6-6.2-9.6-6,0-3-10-2.2-10-3.1,0,.9-10.8-4.1-10.8,.9,0,2.3-9.8,3.9-9.8,3.7,0,4.5-8.1,1.4-8.1,5.1,0-.6-10.5,3.2-10.5,2.5,0,5.3-8.9-3-8.9,1.5,0,1-8.9-10.4-8.9-4.7,0,0-9,7.8-9,3.7,0-.8-8.9-.6-8.9,1.4s-8.9-2-8.9,.3c0-3-8.8-3.7-8.8-3.8,0-3.7-8.9-4.6-8.9,0,0-4.1-10.2-6.8-10.2-2.8s-8.7-8.2-8.7-3.3c0-4.2-10-6.5-10-3.8,0,7.6-11.1-8-11.1-6.3,0-1.8-9,13.4-9,8.3,0,2.7-9.6,6.6-9.6,3,0,1.5-8.7,9.6-8.7,7.6,0,.3-10.7,4.5-10.7,1s-9.4-11.2-9.4-6.9-10.9-.7-10.9,.6c0-1.6-8-3.2-8-6.7l-1.6,1.8v242.2c2.1-1.6,9.9-4.6,9.9-1.7s12.5,.5,12.5,.7c0,5.5,10.8-7.1,10.8-7.6s7.7,3.2,7.7,6.4,8.5-1.7,8.5-2.9c0,.9,1-11.2,1-10.3,0,5.6,9.5-9.9,9.5-4.2,0,2.6,9.5,5.2,9.5,1,0-2,7.3,4,7.3,5.3,0-4.5,6.8,5.5,6.8,5.1s8.9-3.8,8.9-1.6c0-2.7,8.2-.6,8.2,3.4,0-1.2,8.5-2.1,8.5-3.7,0,2.6,8.7,5.7,8.7,5.7,0,0,8.5-2.2,8.5-1.5s9.4-1.3,9.4-1.7c0,1.7,8.9,2,8.9,1.6,0-4.7,8.4,7.5,8.4,2.8,0,0,6.3,9.3,6.3,9.8,0,4,9.4,3.1,9.4-1.2,0,.8,8.9-1,8.9-.4s8.4-4.8,8.4-.4c0-.2,12.3,3.9,12.3,3.3,0,2.7,11-2,11-1.6,0-1.3,10.8-7.7,10.8-7.5s11,1.1,11,1.5,9.7,1.8,9.7,1.5,9.1-3.2,9.1-2c0-.7,8.5-3.1,8.5-3.1,0,0,9.1,3.6,9.1-2.5,0,.7,9.3,3.9,9.3,1.6,0,1.5,9.6,2.7,9.6-.4,0,.7,9.3,3.6,9.3,1.9,0-.2,7.1,9.6,7.1,8,0,1.5,11.2-.4,11.2-2.9,0-.1,8,6.8,8,5.1,0,1.6,11.6,2.2,11.6,2.9,0-3.3,1.1-14,1.1-9.2,0,.6,.1,.3,.3-.6V24c-2.4,.1-4.8,1-4.8,3.8Z" fill="url(#uuid-fc9383d0-090d-47df-9c4c-0a787d78931e)"/>
      <g clip-path="url(#uuid-84f2d968-a893-4410-b95e-d87ab5a12c63)">
        <path d="M67.6,151c.5-5.2,4.4-7.9,7.4-11.4,2.46-2.93,5.78-5,9.5-5.9,.9-.21,1.77-.51,2.6-.9,5.7-2.5,6-4.2,1.5-8.6-3-3-4.4-6.1-3.4-10.8,1.01-3.7,.79-7.63-.6-11.2-2.1-4.9-.4-8.8,4.3-11.3s10-2.4,13.2,1.8c.62,.82,1.4,1.5,2.3,2,7.4,3.6,11.2,9.7,11.8,17.9-.02,.88,.11,1.76,.4,2.6,2,4.4,1.3,8.6-.7,12.7-1,2-.6,3.3,1.7,3.6l.7,.2c13.5,4.1,18,11.3,16.1,25.3-1.4,10-4,19.9-3.2,30.1,.5,6.4,1.3,12.5,4,18.4s5.4,13.3,8.1,20c1.94,4.82,3.28,9.86,4,15,.9,6.82,2.92,13.45,6,19.6,4.5,9.6,5,20,6.3,30.2,.5,4,1,8,1.7,12,.2,1.6,.6,3.2,2.4,3.7s2.4-1.1,3.2-2c5.6-5.8,12-5.1,15.5,1.6,.9,1.95,1.01,4.17,.3,6.2-2.9,9-9.3,15.1-16.7,20.5-3.8,2.8-7.7,2.9-11.8,2.4s-4.5-1.9-4.9-4.5c-.5-4.8-1.9-9.6,.9-14.2,.9-1.5,.3-3.3-.2-4.9-1.89-6.95-4.34-13.74-7.3-20.3-2.1-5.1-4.1-10.3-4.6-15.8-.9-9.1-5-16.7-10.7-23.6s-11.7-13.7-16.8-21.1c-1.9-2.8-7.3-2-9.2,1.1-5.3,8.7-10.8,17.4-15.7,26.4s-12.4,15.2-21,19.9-11.5,9.2-10.6,17.9c.3,2.9-.3,5.8-.6,8.8s-1.9,5.7-5.3,6.6-7,.7-9.6-2.4c-2.22-2.63-3.17-6.11-2.6-9.5,1.2-6.5,2.9-12.9,3.7-19.5,.3-2.6,1.5-4.3,4.5-4.5s3.5-1.6,4.5-3.2c4-6.9,9-12.7,16.5-15.8,2.1-.9,2.6-3,3-5,1.2-6.5,2.2-13.1,4.1-19.5,1.2-4.1,2.7-8.1,4.2-12.1,4.6-12.3,9.2-24.6,10.5-37.9,.5-5.1,.3-5.7-4.4-8.2s-7-3.6-10.4-5.6c-1.5-.9-2.6-.9-3.8,.4-3.9,4.3-8.9,6.7-14.4,8.3-8.69,2.43-17.13,5.68-25.2,9.7-4.4,2.2-9.3,1.6-13.9,2-2.5,.2-2.9-1.5-1.7-3.9-2.71,.68-5.51,.92-8.3,.7-.8,0-1.7-.2-1.9-1.1s.6-1.6,1.5-1.9c4-1.3,7.9-3.3,12.1-2.7,8.8,1.2,15.2-3.8,22.2-7.6,3.3-1.9,6.5-4,9.7-6s5-6.7,3.1-10.2c-2.9-5.3-1.4-10.3,.6-15.2,.73-1.86,1.17-3.81,1.3-5.8,.67-8-.67-16.05-3.9-23.4-.62-1.44-1.32-2.84-2.1-4.2-6.51-10.18-8.5-22.6-5.5-34.3,1-4.4,2.8-8.4,6.5-11.1,4.52-3.57,10.97-3.32,15.2,.6,6,5.3,8.5,12.4,9.5,20,1.41,9.98-1.1,20.13-7,28.3-5.3,7.4-7.1,16.7-6.4,26-.03,.67,.22,1.32,.7,1.8,1.9,1.7,3.9,3.2,4.6,5.7s1.2,4.5,1.7,6.8l.8,.3Z" isolation="isolate" opacity=".1"/>
      </g>
    </g>
  </g>
  <g>
    <g>
      <circle cx="268.9" cy="132.7" r="52.9" fill="#fff"/>
      <circle cx="268.9" cy="132.7" r="49.7" fill="#fff"/>
      <circle cx="268.9" cy="132.7" r="47.7" fill="#74f000"/>
    </g>
    <path d="M268.9,191.3c-32.36,0-58.6-26.24-58.6-58.6s26.24-58.6,58.6-58.6c32.36,0,58.6,26.24,58.6,58.6h0c-.06,32.34-26.26,58.54-58.6,58.6Zm0-115.7c-31.54,0-57.1,25.56-57.1,57.1s25.56,57.1,57.1,57.1,57.1-25.56,57.1-57.1h0c0-31.54-25.56-57.1-57.1-57.1h0Z" fill="#fff"/>
    <path d="M213.8,106.1c-2.12,.79-3.21,3.15-2.42,5.27,.79,2.12,3.15,3.21,5.27,2.42,2.09-.78,3.18-3.08,2.45-5.19-.74-2.14-3.08-3.27-5.22-2.53-.03,0-.06,.02-.08,.03Zm-.2,4.4c-.37,.12-.76-.08-.88-.45,0-.02-.01-.04-.02-.05-.17-.28-.08-.65,.2-.82,.06-.04,.13-.06,.2-.08,.34-.18,.76-.06,.95,.28,.02,.04,.04,.08,.05,.12,.13,.41-.09,.86-.5,1Zm1.5-1.8c-.34,.18-.76,.06-.95-.28-.02-.04-.04-.08-.05-.12h0c-.17-.28-.08-.65,.2-.82,.06-.04,.13-.06,.2-.08h0c.44-.07,.85,.22,.92,.65,.06,.34-.11,.69-.42,.85l.1-.2Z" fill="#fff"/>
  </g>
  <g>
    <g>
      <path d="M32.9,13.8c-.01,.26-.12,.51-.3,.7l-3.3,3.3-3.5-2v-2c-.06-.49,.29-.94,.79-1,.07,0,.14,0,.21,0,.55-.06,1.04,.35,1.09,.89,0,.03,0,.07,0,.11h0v2.5l3.2-3.3c.46-.39,1.16-.33,1.55,.13,.14,.16,.22,.36,.25,.57" fill="#231f20"/>
      <path d="M31.9,23.3h-.4l-.4-.2-3.2-3.2v2.5c-.05,.57-.53,1-1.1,1-.55,0-1-.45-1-1v-2l3.5-2,3.3,3.3c.44,.33,.53,.96,.2,1.4-.22,.27-.55,.42-.9,.4" fill="#231f20"/>
      <path d="M29.1,18h0l-.9-.5-2.4-1.5-2-1.2h-.3v6.1c0,.1,.1,.3,.2,.3h.1l2-1.2,3.2-2h.1Zm-.7,.1h-.1l-2.6,1.5-1.5,.9h-.3v-4.9h.3l1.6,.9,2.5,1.4c.06,.05,.09,.12,.1,.2Z" fill="#231f20"/>
      <path d="M27.6,18h0l-1.9,1.1-1.2,.7c-.1,.1-.1,0-.2,0h0v-3.6h.2l1.2,.7,1.9,1.1c.06,0,.1,.04,.1,.1h0" fill="#231f20"/>
    </g>
    <g>
      <path d="M50.2,17.9h-.1l-3-1.5-1.7-.9h-.4v4.8c0,.1,.1,.2,.3,.2h0l1.8-1,2.9-1.5c0-.06,.04-.1,.1-.1h.1Zm-.7,.1c-.06,0-.1,.04-.1,.1l-2.3,1.2-1.3,.7h-.3v-3.9c0-.1,.1-.1,.2-.1h.1l1.3,.7,2.3,1.1h.1v.2Z" fill="#231f20"/>
      <path d="M48.8,18h0l-1.7,.9-1,.5h-.2v-2.8h.1l1.1,.5,1.7,.9h.1" fill="#231f20"/>
      <path d="M35,15.5h2.5c1.3,0,2.2,.7,2.2,1.7s-.9,1.7-2.1,1.7h-1.4v1.6h-1.2v-5Zm2.4,2.4c.6,0,1-.3,1-.8s-.4-.7-1-.7h-1.2v1.5h1.2Z" fill="#231f20"/>
      <path d="M44.5,19.6v1h-4v-5h1.2v4.1l2.8-.1Z" fill="#231f20"/>
      <path d="M51.5,18.6l-2.3-3.1h1.4l1.4,2.1,1.5-2.2h1.3l-2.1,3.3v1.8h-1.3l.1-1.9Z" fill="#231f20"/>
      <path d="M55.6,15.7h.6v2.8l2.9-2.8h.8l-2.3,2.3,2.6,2.7h-.9l-2.1-2.3-.9,.8v1.5h-.6l-.1-5Z" fill="#231f20"/>
      <path d="M60.5,18.2c.1-1.54,1.43-2.71,2.98-2.61,.04,0,.08,0,.12,.01,1.38,.05,2.5,1.13,2.6,2.5-.27,1.58-1.76,2.64-3.34,2.38-1.18-.2-2.12-1.1-2.36-2.28Zm5.1-.1c-.16-1.23-1.26-2.12-2.5-2-1.1,.1-1.95,1-2,2.1,.29,1.24,1.53,2,2.76,1.72,.89-.21,1.57-.92,1.74-1.82Z" fill="#231f20"/>
      <path d="M67.1,20l.3-.5c.49,.51,1.19,.77,1.9,.7,.9,0,1.3-.4,1.3-.8s-.5-.8-1.5-1-1.9-.5-1.9-1.4,.8-1.4,1.9-1.4c.74-.06,1.46,.19,2,.7l-.4,.4c-.48-.39-1.08-.6-1.7-.6-.7,0-1.2,.4-1.2,.9s.6,.6,1.5,.8,1.9,.6,1.9,1.5-.7,1.4-2,1.5c-.78,.02-1.53-.27-2.1-.8Z" fill="#231f20"/>
      <path d="M72.4,15.7h.6l2.1,3.5,2-3.5h.7v5h-.6v-3.8l-2,3.5-2.1-3.4v3.8h-.7v-5.1Z" fill="#231f20"/>
      <path d="M79.1,18.2c.1-1.54,1.43-2.71,2.98-2.61,.04,0,.08,0,.12,.01,1.38,.05,2.5,1.13,2.6,2.5-.27,1.58-1.76,2.64-3.34,2.38-1.18-.2-2.12-1.1-2.36-2.28Zm5.1-.1c-.16-1.23-1.26-2.12-2.5-2-1.1,.1-1.95,1-2,2.1,.29,1.24,1.53,2,2.76,1.72,.89-.21,1.57-.92,1.74-1.82Z" fill="#231f20"/>
      <path d="M85.7,20l.3-.5c.49,.51,1.19,.77,1.9,.7,.9,0,1.3-.4,1.3-.8s-.5-.8-1.5-1-1.9-.5-1.9-1.4,.8-1.4,1.9-1.4c.74-.06,1.46,.19,2,.7l-.4,.4c-.45-.38-1.01-.59-1.6-.6-.7,0-1.2,.4-1.2,.9s.5,.7,1.5,.9,1.8,.5,1.8,1.4-.6,1.5-2,1.5c-.77,0-1.52-.29-2.1-.8Z" fill="#231f20"/>
    </g>
  </g>
  <path d="M17.9,150c-2.39,.86-3.63,3.5-2.77,5.89,.86,2.39,3.5,3.63,5.89,2.77,2.38-.86,3.62-3.47,2.78-5.85-.84-2.4-3.47-3.66-5.87-2.81h-.03Zm-.3,5.01c-.35,.17-.77,.03-.94-.32-.03-.06-.05-.12-.06-.18h0c-.18-.4,0-.88,.39-1.06,.03-.02,.07-.03,.11-.04,.44-.14,.92,.08,1.1,.5,.13,.47-.14,.96-.6,1.1Zm1.7-2c-.44,.14-.92-.08-1.1-.5-.18-.4,0-.88,.39-1.06,.03-.02,.07-.03,.11-.04,.5-.02,.92,.37,.93,.86,.01,.28-.11,.56-.33,.74Z" fill="#fff"/>
  <path d="M17.9,175.3c-2.4,.86-3.66,3.5-2.8,5.9,.86,2.4,3.5,3.66,5.9,2.8,2.4-.84,3.66-3.47,2.81-5.87v-.03c-.86-2.4-3.48-3.66-5.88-2.81h-.03Zm-.3,5.01c-.41,.13-.86-.09-1-.5h0c-.18-.4,0-.88,.39-1.06,.03-.02,.07-.03,.11-.04,.44-.14,.92,.08,1.1,.5,.08,.46-.17,.92-.6,1.1Zm1.7-2c-.44,.14-.92-.08-1.1-.5-.18-.4,0-.88,.39-1.06,.03-.02,.07-.03,.11-.04,.44-.14,.92,.08,1.1,.5,.14,.44-.08,.92-.5,1.1Z" fill="#fff"/>
  <path d="M316,314.6c-2.33,1.15-3.27,3.97-2.12,6.3,.96,1.93,3.11,2.96,5.22,2.5,2.33-1.15,3.27-3.97,2.12-6.3-.96-1.93-3.11-2.96-5.22-2.5Zm-.2,5c-.4,.18-.88,0-1.06-.39-.02-.03-.03-.07-.04-.11-.18-.4,0-.88,.39-1.06,.03-.02,.07-.03,.11-.04,.46-.08,.92,.17,1.1,.6h0c.12,.43-.13,.87-.55,.99-.02,0-.03,0-.05,.01h.1Zm1.6-2c-.4,.18-.88,0-1.06-.39-.02-.03-.03-.07-.04-.11-.14-.44,.08-.92,.5-1.1,.47-.13,.96,.14,1.1,.6,.13,.41-.09,.86-.5,1Z" fill="url(#uuid-ee1607f4-112e-4726-8f8f-b59b1cb3d78f)"/>
  <path d="M16,314.6c-2.33,1.15-3.27,3.97-2.12,6.3,.96,1.93,3.11,2.96,5.22,2.5,2.33-1.15,3.27-3.97,2.12-6.3-.96-1.93-3.11-2.96-5.22-2.5Zm-.2,5c-.4,.18-.88,0-1.06-.39-.02-.03-.03-.07-.04-.11-.18-.4,0-.88,.39-1.06,.03-.02,.07-.03,.11-.04,.46-.08,.92,.17,1.1,.6h0c.12,.43-.13,.87-.55,.99-.02,0-.03,0-.05,.01h.1Zm1.6-2c-.4,.18-.88,0-1.06-.39-.02-.03-.03-.07-.04-.11h0c-.2-.39-.04-.88,.35-1.08,.02,0,.03-.02,.05-.02,.44-.22,.98-.04,1.2,.4v.2c.17,.35,.03,.77-.32,.94-.06,.03-.12,.05-.18,.06h0Z" fill="url(#uuid-253523b4-5ddc-45bb-8082-729597922a60)"/>
  <g>
    <path d="M26,201.1c-3.53,.3-7,1.11-10.3,2.4l-.8,.3h-.1l.5,.4c1.4,1.07,2.58,2.4,3.5,3.9l.2,.3h-.8v4h21.3v-4h-.7l.3-.6c.88-1.38,2-2.6,3.3-3.6,.21-.07,.38-.22,.5-.4l-.6-.2c-3.1-1.28-6.37-2.12-9.7-2.5-1,0-5.6-.1-6.6,0Zm2.6,5.7v1.7h-2.3v-3.4h2.3v1.7Zm2.2-1.7h.7v3.4h-2.3v-3.5h1.6v.1Zm-5.1,1.8v1.6h-2.3v-1.5c0-1.4,0-1.6,.1-1.6h2.1c.07,.56,.1,1.13,.1,1.7v-.2Zm7.6-1.6h1c.08,.53,.12,1.06,.1,1.6v1.5h-2.4v-3.4h.2l1.1,.3Zm-10.5,1.7v1.5h-3.2l-.3-.5-.6-.9-.3-.5h.5c1.28-.4,2.58-.7,3.9-.9v1.3Zm13.2-1.2c.95,.16,1.89,.4,2.8,.7h.5l-.3,.4-.6,1-.3,.5h-3.2v-3h.1l1,.4Zm-13.2,5v1.2h-2.3c-.08-.71-.22-1.41-.4-2.1q0-.1,1.3-.1h1.4v1Zm2.9,0v1.2h-2.3v-2.3h2.3v1.1Zm2.9,0v1.2h-2.3v-2.3h2.3v1.1Zm2.9,0v1.2h-2.3v-2.3h2.3v1.1Zm2.8,0v1.2h-2.3v-2.3h2.3v1.1Zm3.2-.6l-.3,1.7h-2.3v-2.3h2.8l-.2,.6Z" fill="#fff"/>
    <path d="M17.3,214.1l-1.1,1.2h25l-.8-1.1-.9-1.2H18.3l-1,1.1Z" fill="#fff"/>
  </g>
  <path d="M34,239.8c-.18,.27-.18,.63,0,.9l.4,.4h.8l2.4-2.4c.17-.15,.21-.4,.1-.6,1.45-.93,3.09-1.51,4.8-1.7h0l2.1-.7c.95-.38,1.83-.92,2.6-1.6,.76-.81,1.15-1.89,1.1-3-.09-1.81-1.22-3.41-2.9-4.1l-1.7-.4c-1.08,.04-2.11,.46-2.9,1.2-.9,1.09-1.58,2.35-2,3.7-.11,.43-.17,.86-.2,1.3-.23,1.59-.77,3.12-1.6,4.5h-.2l-.4,.2-2.4,2.3Zm5.6-6.3h0Zm0,.6c-.11-.19-.11-.41,0-.6l.3,.3-.3,.3Zm0-1.4v-.2l.4-.5,.8,.8-.8,.8-.5-.6h0v-.3h.1Zm2.5-1.1l-.8-.8,.8-.8,.7,.8-.7,.8Zm-1-.6l.7,.8-.7,.8-.8-.8,.8-.8Zm1.2,.8l.8-.8,.7,.8-.7,.8-.8-.8Zm.8-1.2l-.8-.8,.8-.7,.7,.7-.7,.8Zm.2,.2l.7-.8,.8,.8-.8,.8-.7-.8Zm1.7-.2l-.7-.8,.7-.7,.8,.7-.8,.8Zm.3,.2l.7-.8,.8,.8-.8,.8-.7-.8Zm-.3,.2l.8,.8-.8,.8-.7-.8,.7-.8Zm-1,1l.8,.8-.8,.8-.7-.8,.7-.8Zm-1,1l.8,.8-.8,.8-.7-.8,.7-.8Zm-.2-.2l-.8,.8-.7-.8,.7-.8,.8,.8Zm-1.7,.2l.8,.8-.8,.8-.8-.8,.8-.8Zm-1.3-1.3h0Zm.1-.3l.5-1.1,.5,.5-.8,.8-.2-.2Zm.6-1.4l.6-1,.8,.8-.8,.7-.6-.5Zm1.2-1.6l.5-.3,.7,.7-.8,.8-.8-.8h0l.5-.4h-.1Zm2.1-.7h.1l-.8,.8-.7-.7,1.3-.2,.1,.1Zm-.5,1.1l.8-.8,.8,.8-.8,.8-.8-.8Zm1-1.1l1.1,.5-.4,.4-.7-.8v-.1Zm1.8,1l.4,.4-.5,.5-.8-.8,.5-.4,.4,.3Zm.6,.7c.19,.34,.33,.71,.4,1.1h-.1l-.8-.8,.5-.3Zm.5,1.8c-.02,.44-.09,.88-.2,1.3l-.8-.7,.8-.8,.2,.2Zm-.4,1.6h0Zm0,0l-.8,.8-.8-.8,.8-.8,.8,.8Zm-1.1,1.2l-.8,.5-.6-.6,.8-.8,.8,.8-.2,.1Zm-1.1,.6l-1.1,.5-.2-.2,.8-.8,.5,.5Zm-1.2,.5h0Zm-.2,0h-.3l.2-.2,.1,.2Zm-1.1,.3h-.2l-.6-.6,.8-.8,.8,.8-.6,.5h-.2v.1Zm-.7,0h-.6l.3-.4,.4,.4h-.1Zm-.9-.1h0Zm-.5-.3c-.15-.13-.26-.3-.3-.5l.4-.4,.8,.7-.5,.5-.4-.3Zm-.4-.7h0Zm0,1.7l-1,.4c.18-.31,.31-.65,.4-1l.3,.4,.3,.3v-.1Z" fill="#fff"/>
  <path d="M133.1,260.9c-.2,.23-.2,.57,0,.8h0l.4,.4c.23,.2,.57,.2,.8,0h.1l2.3-2.4c.2-.13,.28-.38,.2-.6,1.5-1.2,4.7-1.7,4.7-1.7h0c.76-.13,1.5-.36,2.2-.7,.91-.36,1.75-.87,2.5-1.5,.79-.79,1.19-1.89,1.1-3-.2-2.44-2.16-4.36-4.6-4.5-1.06,0-2.07,.44-2.8,1.2-.92,1.08-1.6,2.34-2,3.7l-.3,1.3c-.17,1.57-.72,3.08-1.6,4.4h-.2l-.4,.2-2.4,2.4h0Zm5.6-6.4h0Zm0,.7v-.7l.3,.3-.3,.4Zm0-1.5v-.2l.4-.4,.8,.7-.8,.8-.5-.5h0v-.3l.1-.1Zm2.5-1.1l-.8-.7,.8-.8,.7,.8-.7,.7Zm-1-.5l.7,.7-.7,.8-.8-.8,.8-.7Zm1.2,.7l.8-.7,.7,.7-.7,.8-.8-.8Zm.8-1.2l-.8-.7,.8-.8,.7,.8-.7,.7Zm.2,.3l.8-.8,.7,.8-.7,.7-.8-.7Zm1.8-.3l-.8-.7,.8-.8,.7,.8-.7,.7Zm.2,.3l.7-.8,.8,.8-.8,.7-.7-.7Zm-.2,.2l.7,.7-.7,.8-.8-.8,.8-.7Zm-1,1l.7,.8-.7,.7-.8-.7,.8-.8Zm-1,1l.7,.7-.7,.8-.8-.8,.8-.7Zm-.3-.2l-.7,.7-.8-.7,.8-.8,.7,.8Zm-1.7,.2l.7,.7-.7,.8-.8-.8,.8-.7Zm-1.2-1.3h0Zm.1-.3c.11-.39,.27-.76,.5-1.1l.5,.5-.8,.7-.2-.1Zm.6-1.4l.6-1,.8,.7-.8,.8-.6-.6v.1Zm1.2-1.6l.4-.3,.8,.7-.8,.7-.8-.7h0l.4-.5h0v.1Zm2.1-.7h0l-.7,.7-.7-.6c.36-.21,.79-.28,1.2-.2l.2,.1Zm-.5,1.1l.8-.8,.7,.8-.7,.7-.8-.7Zm1-1.1l1.1,.5-.4,.3-.8-.7h.1v-.1Zm1.8,1l.4,.4-.5,.4-.8-.7,.5-.5,.4,.4h0Zm.5,.7c.23,.34,.39,.71,.5,1.1h-.1l-.8-.7,.4-.4h0Zm.6,1.8c0,.45-.11,.89-.3,1.3l-.7-.7,.8-.8,.2,.2Zm-.4,1.6l-.2,.2,.2-.2Zm0,0l-.8,.7-.8-.7,.8-.8,.8,.8Zm-1.1,1.1l-.8,.5-.6-.6,.7-.8,.8,.8-.1,.1Zm-1.1,.6l-1.1,.5-.2-.2,.7-.8,.6,.5Zm-1.3,.5h0Zm-.1,.1h-.4l.2-.2,.2,.2Zm-1.1,.2h-.2l-.6-.6,.7-.8,.8,.8-.5,.6h-.2Zm-.7,.1h-.7l.4-.3,.4,.4-.1-.1Zm-1.5-.5l-.3-.5,.5-.4,.7,.7-.4,.5-.5-.3Zm-.3-.7h0Zm0,1.7l-1,.4,.4-1c.03,.15,.1,.29,.2,.4l.4,.3v-.1Z" fill="#fff"/>
  <g>
    <path d="M218.9,313.7h-85v-21.3h85v21.3Zm-84-.9h83.1v-19.4h-83.2l.1,19.4Z" fill="#231f20"/>
    <path d="M123.9,313.7H28.9v-21.3H123.9v21.3Zm-94-1H122.9v-19.3H29.9v19.3Z" fill="#231f20"/>
    <path d="M306.1,313.7h-77.2v-21.2h77.2v21.2Zm-76.3-.9h75.4v-19.4h-75.4v19.4Z" fill="#231f20"/>
  </g>
  <g>
    <rect x="234.5" y="44.5" width="68.7" height="18.89" fill="#231f20"/>
    <rect x="235.3" y="45.3" width="67.1" height="17.3" fill="#fff"/>
  </g>
</svg>