<svg xmlns="http://www.w3.org/2000/svg" xmlns:xlink="http://www.w3.org/1999/xlink" width="335" height="335" data-name="Layer 1"><defs><radialGradient id="a" cx="822.3" cy="211" r="62.6" fx="822.3" fy="211" gradientTransform="matrix(.6 0 0 1 -185.9 0)" gradientUnits="userSpaceOnUse"><stop offset="0" stop-color="#e23333"/><stop offset=".3" stop-color="#df2f2f"/><stop offset=".6" stop-color="#d92323"/><stop offset="1" stop-color="#ce1010"/><stop offset="1" stop-color="#cc0d0d"/></radialGradient><radialGradient xlink:href="#a" id="d" cx="276.3" cy="273.1" r="49.1" fx="276.3" fy="273.1"/><radialGradient xlink:href="#a" id="e" cx="276.3" cy="273.1" r="44.8" fx="276.3" fy="273.1"/><radialGradient xlink:href="#a" id="f" cx="103.2" cy="311.3" r="62.6" fx="103.2" fy="311.3"/><radialGradient id="g" cx="29.7" cy="144.8" r="35.3" fx="29.7" fy="144.8" gradientUnits="userSpaceOnUse"><stop offset="0" stop-color="#fff"/><stop offset=".4" stop-color="#fcfdfd"/><stop offset=".7" stop-color="#f2fafa"/><stop offset="1" stop-color="#e4f4f4"/></radialGradient><radialGradient xlink:href="#a" id="i" cx="16.5" cy="136" r="23" fx="16.5" fy="136"/><radialGradient xlink:href="#a" id="j" cx="103.2" cy="188.3" r="9.1" fx="103.2" fy="188.3"/><linearGradient id="c" x1="347" x2="13.9" y1="-43.9" y2="348.5" gradientUnits="userSpaceOnUse"><stop offset="0" stop-color="#08abc6"/><stop offset=".7" stop-color="#0b9cbe"/></linearGradient><linearGradient id="b" x1="233.7" x2="318.8" y1="273.1" y2="273.1" gradientUnits="userSpaceOnUse"><stop offset="0" stop-color="#0082ad"/><stop offset=".5" stop-color="#025290"/><stop offset="1" stop-color="#30286f"/></linearGradient><linearGradient xlink:href="#b" id="h" x1="29" x2="81.7" y1="81.8" y2="81.8"/></defs><path fill="#fff" d="M168.9 197c-2.2.5-4.4.7-6.7.7s-4.5-.2-6.7-.7c2.2.3 4.4.4 6.7.4s4.5-.1 6.7-.4Z"/><path fill="#fff" d="M168.9 197c-2.2.5-4.4.7-6.7.7s-4.5-.2-6.7-.7c2.2.3 4.4.4 6.7.4s4.5-.1 6.7-.4Z"/><path fill="url(#c)" d="M0 0h335v335H0z"/><rect width="85.1" height="85.1" x="233.7" y="230.5" fill="url(#b)" rx="6.2" ry="6.2"/><g fill="#fff"><path d="M285 302.7v6.1c0 1.5-1.3 2.8-2.8 2.8h-13.7c-1.5 0-2.8-1.3-2.8-2.8v-13.7c0-1.5 1.3-2.8 2.8-2.8h6.2c.4 0 .8.3.8.8s-.3.8-.8.8h-5.9c-.9 0-1.7.8-1.7 1.7v13c0 .9.8 1.7 1.7 1.7h13c.9 0 1.7-.8 1.7-1.7v-5.8c0-.4.3-.8.8-.8.4 0 .8.3.8.8ZM285.85 291.44a3.16 3.16 0 0 1 0 4.53l-.36.35-4.52-4.53.35-.35a3.16 3.16 0 0 1 4.53 0Z"/><path d="m284.7 297.1-6.8 6.8h-.3l-4.4.6c-.2 0-.5-.2-.5-.5l.6-4.4v-.3l6.8-6.8 4.5 4.5Z"/></g><rect width="98.8" height="20.7" x="226.9" y="200.6" fill="url(#a)" rx="5.9" ry="5.9"/><path fill="url(#d)" d="M236.5 319.7c-3.8 0-6.8-3-6.8-6.8v-19.2h-2.5v21.7c0 3.8 3 6.8 6.8 6.8h20.9v-2.5h-18.5Zm-6.8-86.4c0-3.8 3-6.8 6.8-6.8h18.4V224h-20.8c-3.8 0-6.8 3-6.8 6.8v21.7h2.5v-19.3Zm93.2 60.3v19.2c0 3.8-3 6.8-6.8 6.8h-18.7v2.5h21.1c3.8 0 6.8-3 6.8-6.8v-21.7h-2.5Zm-4.3-69.6h-21.2v2.5h18.8c3.8 0 6.8 3 6.8 6.8v19.3h2.5v-21.7c0-3.8-3-6.8-6.8-6.8Z"/><path fill="url(#e)" d="M314.9 228.3h-77.2c-3.4 0-6.2 2.8-6.2 6.2v77.2c0 3.4 2.8 6.2 6.2 6.2h77.2c3.4 0 6.2-2.8 6.2-6.2v-77.2c0-3.4-2.8-6.2-6.2-6.2Zm4 81.2c0 3.4-2.8 6.2-6.2 6.2H240c-3.4 0-6.2-2.8-6.2-6.2v-72.7c0-3.4 2.8-6.2 6.2-6.2h72.7c3.4 0 6.2 2.8 6.2 6.2v72.7Z"/><rect width="175.8" height="20.7" x="15.3" y="300.9" fill="url(#f)" rx="5.9" ry="5.9"/><path fill="url(#g)" d="M59.4 104.6v30c0 27.6-22.6 50.2-50.2 50.2H0v-20.5c2.3 0 4.5-.2 6.7-.7 29.5-3.4 52.7-28.6 52.7-59Z"/><path fill="url(#h)" d="M59.4 0v104.6c0 30.4-23.2 55.7-52.7 59 15-3.1 26.2-16.4 26.2-32.3V0h26.5Z"/><path fill="url(#i)" d="M33 107.9v23.5c0 15.9-11.3 29.2-26.2 32.3-2.2.3-4.4.4-6.7.4v-23.2c18.2 0 33-14.8 33-32.9Z"/><g fill="#fff" data-name="PRINT"><path d="M30.5 13.8c0 .6-.2 1.1-.6 1.5l-6.8 6.8-7.2-4.2v-4.1c0-1.2 1-2.1 2.1-2.1s2.1 1 2.1 2.1V19l6.7-6.7c.8-.8 2.2-.8 3 0 .4.4.6.9.6 1.5ZM29.9 32.8c-.4.4-.9.6-1.5.6s-.6 0-.8-.2c-.3-.1-.5-.3-.7-.5l-2.3-2.3-4.4-4.4v5.2c0 1.2-1 2.1-2.1 2.1s-2.1-1-2.1-2.1v-4.1l7.2-4.2 4.5 4.5 2.3 2.3c.8.8.8 2.2 0 3ZM22.8 22.4c0-.1-.1-.2-.2-.3l-1.8-1-4.9-2.8-4.1-2.4c-.2-.1-.5 0-.7.2v12.7c0 .3.2.5.5.5h.2l4.1-2.4 6.7-3.9s.1-.1.1-.2v-.3Zm-10.2-5 3.2 1.9 5.2 3s.1 0 .1.1v.3s0 .2-.2.2l-5.2 3-3.2 1.9c-.2.1-.4 0-.5-.1V17.8c0-.2.2-.4.4-.4h.2Z"/><path d="M19.8 22.6s0 .1-.1.2L15.8 25l-2.4 1.4c-.1 0-.3 0-.4-.1V18.9c0-.2.1-.3.3-.3h.1l2.4 1.4 3.9 2.2s.1 0 .1.2v.2ZM65.6 22l-6-3-3.7-1.8c-.2-.1-.5 0-.6.2v10.1c.1.2.4.4.6.4h.4l3.4-1.9 2.1-1.1 3.8-2s.2-.1.2-.2v-.2c0-.1-.1-.2-.2-.2Zm-6 3-2.8 1.5c-.2.1-.4 0-.5-.1v-7.8c0-.2 0-.3.3-.3h.1l2.8 1.4 1 .5 3.6 1.8s.1 0 .2.2v.2s0 .1-.1.1l-4.6 2.4Z"/><path d="M63.1 22.5s0 .1-.1.1l-3.4 1.8-2.1 1.1h-.3V19.6c0-.1 0-.2.2-.2l2.1 1.1 3.5 1.8.1.1v.1ZM40 17.3h-5.2v10.4h2.6v-3.4h2.7c2.5 0 4.3-1.5 4.3-3.6 0-2-1.9-3.5-4.4-3.4Zm-.2 4.9h-2.4v-2.9h2.4c1.2 0 2.1.5 2.1 1.4 0 .9-.8 1.5-2 1.5ZM54.2 27.7l-8.2.1-.2-10.3h2.5l.1 8.3 5.7-.1.1 2zM71 23.8v3.7h-2.5v-3.7l-4.6-6.5h2.9l2.9 4.5 2.9-4.6h2.8L71 23.8zM86.3 28h-1.7l-4.4-4.7-1.8 1.7v3.1h-1.3L77 17.8h1.3l.1 5.7 5.7-5.7 1.7-.1-4.7 4.8 5.2 5.5zM92.8 17.5c-3.2 0-5.9 2.5-5.8 5.4 0 2.9 2.8 5.3 6 5.3s5.8-2.5 5.8-5.4c0-2.9-2.8-5.3-5.9-5.2Zm.4 9.6c-2.5.2-4.7-1.7-4.9-4.2.1-2.3 1.9-4.1 4.2-4.3 2.5-.2 4.7 1.7 4.9 4.2-.1 2.3-1.9 4.1-4.2 4.3ZM108.9 25.1c0 1.6-1.3 3-4 3-1.7 0-3.3-.5-4.5-1.6l.8-.9c1 1 2.4 1.5 3.8 1.4 1.8 0 2.7-.9 2.7-1.8 0-1.1-1.1-1.5-3.1-1.9-2.3-.5-3.8-1.1-3.8-2.9 0-1.6 1.6-3 3.8-3 1.5 0 2.9.5 4.1 1.4l-.8.9c-.9-.8-2.1-1.3-3.3-1.3-1.4 0-2.4.9-2.4 1.8 0 1.1 1.2 1.4 3.1 1.8 2.2.4 3.8 1.1 3.8 2.9ZM122.6 28h-1.3l-.1-7.8-4.2 7.3-4.3-7.1.1 7.7h-1.3l-.2-10.3h1.4L117 25l4.2-7.3h1.3l.1 10.3zM130.8 17.5c-3.2 0-5.9 2.5-5.8 5.4 0 2.9 2.8 5.3 6 5.3s5.9-2.5 5.8-5.4c0-2.9-2.8-5.3-5.9-5.2Zm.4 9.6c-2.5.2-4.7-1.7-4.9-4.2.1-2.3 1.9-4.1 4.2-4.3 2.5-.2 4.7 1.7 4.9 4.2-.1 2.3-1.9 4.1-4.2 4.3ZM147 25.1c0 1.6-1.3 3-4 3-1.7 0-3.3-.5-4.6-1.6l.8-.9c1 1 2.4 1.5 3.8 1.4 1.8 0 2.7-.9 2.6-1.8 0-1.1-1.1-1.5-3.1-1.9-2.3-.5-3.8-1.1-3.8-2.9 0-1.6 1.6-3 3.8-3 1.5 0 2.9.5 4.1 1.4l-.8.9c-.9-.8-2.1-1.3-3.3-1.3-1.4 0-2.4.9-2.4 1.8 0 1.1 1.2 1.4 3.1 1.8 2.2.4 3.8 1.1 3.8 2.9Z"/></g><path fill="#fff" d="M57.8 175c-2.1-.3-3.1-1.4-3.5-2.2 0 .3 0 .7-.1 1.1-1.7-1.7-3.8-3-6-3.6-1.9-.5-3.6-.5-5.3-.2-.3-.7-.4-1.4.3-1.8 1.4-.7 4.5-.2 4.5-.2s0-4.7 3.1-6.6c3-1.9 6.1.2 6.1.2s1-5.1 3.7-5.4c2.7-.3 3.5-.2 4.9 1.8 0 0 1-1.5 3.2-1.8 2.2-.3 2.1 2.1 2.1 2.1s.3-2.4 2.1-1.5c1.1.5 1.2 1.2 1.1 1.7.7 0 1.4.3 2.1.9 0 0-1.5-2.7 4.3-3.1 5.8-.3 7.4 2.2 7.4 2.2s.6-2.9 3.7-2.5c3.1.3 5 2.8 5 2.8s1-3.2 4.6-1.1c0 0-1-2.2.5-2.5 1.5-.3 2.9 2.2 2.9 2.2s-1-1.9.5-3.9c1.6-2 6.2 1.4 6.2 1.4s-.3-3.3 1.1-2.8c1.4.5 3.4 3.2 3.4 3.2s2.3-3.6 5.3-2.7c3 .8 4.3 4.7 4.3 4.7s3.1-3.1 5.2-1.4c2.1 1.7 2.6 2.5 2.7 5 0 0 1.4-.4 3.1 1 1.7 1.4.6 3.1.6 3.1s1.2-1.6 2.2.4c.9 2-.3 2.3-.3 2.3s1.6 1.2.8 3.4-2.4-1.2-2.4-1.2-1.4 2.5-3 1.7-2.4-5.3-2.4-5.3-1.3 2.5-2.5 1.9c-1.2-.6-1.5-3-1.5-3s-1.7 4.2-5.5 2.6-3.7-4.7-3.7-4.7-1.3 2.7-2.9 2.1c-1.6-.6-2.1-3-2.1-3s-.6 3.8-3.1 4.1c-2.5.3-4.9-1.2-4.9-1.2s1.4 2-.8 2.3c-2.2.4-2.6-2.6-2.6-2.6s-.7 2.1-2.8 2.3c-1.8.2-2.4-1.9-2.5-2.5.2.9.9 5.5-3.5 5.4-4.7 0-5.4-3.2-5.4-3.5 0 .2.5 3.6-2.3 4.7-1.4.5-2.6-.3-3.6-1.4-1.2-1.3-1.9-3-1.9-3s-.6 1.5-1.8 2.5c-.9.7-2 1.1-3.5.4-.1 0-.2-.1-.3-.2-1.1 1.4-2.8 2.3-5.4.8 0 0-1.4 3.5-3.5 3.5-1.7 0-3.3-2-4-2.9-.1.2-.3.4-.4.5-.4 1.4-1.3 3.8-3.7 3.4Z"/><path fill="#9a3c2a" d="M95.5 160.7c3.9 2.5 6.3 6.7 9.8 9.8 3 2.6 6.6 4.3 10.3 5.7 3.8 1.4 7.8 2.6 11.8 2.1-.1.9-.3 1.7-.4 2.6 0 .2 0 .4-.2.5-.1.1-.3.2-.5.2-1.2.2-2.3.5-3.5.7-1.3.3-2.6.5-3.9.7a33 33 0 0 1-16.4-2.3c-5.2-2-9.9-5.2-14.2-8.8"/><path fill="#fc542d" d="m98 164.3-12 6.8h1s8.6-3.4 11.8-7.1"/><path fill="#a9533d" d="M103.2 165.9h-.5v-.2l-2.7-.8-.7-.2s.9.2-.3 0-3.2 1.3-3.2 1.3l3.9-8.2.5.3 1.3.7 4.5-3.2-1.4 6.8-1.4 3.7Z"/><path fill="#3b363d" d="M69 186.8c0 .2 0 .3.1.5-.1-.1-.2-.3-.1-.5Z"/><path fill="#a9533d" d="M106.2 169.6c1.4 0 2.9 0 4.2-.5.3-.1.6-.2.9-.4.4-.2.8-.4 1.1-.7.6-.4 1.1-.8 1.6-1.1 1.3-.8 2.8-1.3 4.3-1.5 0 0 1.5-8.9-2.2-12-3.2-2.8-8.1-1.5-9.2-1.1-1.2 1.9-1.4 4.2-2.4 6.3-.5 1-1.2 1.9-1.8 2.9-.2.3-.3.6-.4.9h.3a4.2 4.2 0 0 0 0 3.3c0 .1 0 .2.1.3v.1c.5 1.1 1.4 2.1 2.2 3 .1.1.2.3.4.3.2.1.5.1.8.1Z"/><path fill="#833424" d="M108.2 166.8c.3 0 .1.4.1.6v.3c.2.3.6.3.8.4s.7.3.9.2.4-.4.4-.7c0-.4.1-.8.3-1.2s.5-.6.8-.8c.7-.5 1.6-.5 2.4-.4s.2-.2 0-.2c-1.3-.3-2.9 0-3.5 1.4s-.2.8-.3 1.1 0 .3-.1.3c-.1.1-.3.1-.5 0s-.4-.1-.6-.2-.5-.1-.6-.4 0-.3 0-.4c0-.2-.2-.4-.4-.4s-.2.2 0 .2Z"/><path fill="#341a1a" d="M114.5 165.3h.5c.3 0 .5.1.8.2.2 0 .5.2.6.5l-.7.4c-.1 0-.2.1-.3 0 0 0-.1 0-.2-.1l-.8-.9M113.1 163.5c0-.2.3-.3.4-.4.2-.2.2-.4.2-.6 0-.2-.1-.4-.3-.6-.5-1-1.2-1.9-2.3-2.3l1.5 3c.2.3.3.6.3 1"/><path fill="#f5f1e2" d="M111 164.1s-.2-.1-.4-.4c-.3-.3-.8-.8-1-1.2-.3-.7-.3-1.2-.2-1.7.5.2 1 .4 1.5.9.1.2.3.4.4.6.2.5.2.9.1 1.2-.1.4-.3.6-.4.6ZM113.3 167.2c-.1 0-.2 0-.3-.1-.2-.1-.4-.3-.6-.6v-.2c-.1-.3 0-.7 0-1 .3.1.7.3 1 .4 0 0 .2.1.3.2.1 0 .2.2.3.4v.2c0 .2-.2.4-.3.6l-.2.2h-.1Z"/><path fill="#763823" d="M110.5 163.7c-.3-.3-.8-.8-1-1.2v-.1c.1-.6.7-.9 1.2-.8.1.2.3.4.4.6.2.5.2.9.1 1.2-.2.2-.5.3-.8.3ZM112.9 167c-.2-.1-.4-.3-.6-.6v-.2c0-.2.3-.4.6-.5h.5s.2.1.3.2c.1 0 .2.2.3.4v.2c0 .2-.3.4-.6.5h-.4Z"/><path fill="#833424" d="M109.3 160.8c.5.2 1 .4 1.3.8s.8 1.1.6 1.8-.1.4-.3.5.1 0 .1 0c-.4-.3-.8-.7-1.1-1.1s-.3-.7-.4-1 0-.4 0-.5v-.4h-.1c-.2-.1 0 .1 0 0v-.1c0-.1-.1-.2-.2-.1s0 0 0 .1v.3c0 .4 0 .8.1 1.1.2.7.7 1.2 1.2 1.7s.3.3.4.3.2-.2.3-.3c.4-.7.3-1.4-.1-2s-.5-.6-.8-.8-.6-.3-1-.5-.3.1-.1.2ZM112.4 165.5c.3 0 .6.2.9.3s.3.2.4.3.1.3 0 .4-.2.3-.3.4 0 .1-.2.1h-.2c-.3-.1-.5-.3-.6-.6s-.2-.7 0-1.1-.1-.3-.2-.1c-.2.4-.2.8 0 1.2s.4.6.7.8.4.2.6 0 .2-.1.2-.2.1-.2.2-.3c.1-.2.2-.4.1-.6s-.2-.3-.3-.4c-.4-.3-.8-.5-1.3-.6s-.2.2 0 .2Z"/><path fill="#59241e" d="M106.3 166.5c.4.2.8.5 1.3.7 0 0 .1 0 .1.1v.3c0 .1.1.2.2.3s.3 0 .3.2c.1.1.1.3.1.4 0 .1-.1.3-.2.4-.6-.8-1.2-1.6-1.8-2.3"/><path fill="#81352d" d="M106.3 166.4c-.2.8.1 1.7.8 2.2.3.2.7.4 1 .2"/><path fill="#4a1917" d="M106.2 166.5c.4.4.8.8 1 1.2s.2.4.4.5.3.3.4.5.3 0 .2 0c-.1-.5-.6-.7-.8-1.1s-.7-.9-1.1-1.3-.3 0-.2.2Z"/><path fill="#c75a51" d="M105.9 163.3V162s.1-.2.2-.2c.2-.1.4-.3.6-.4.4-.1.8 0 1.1.2.3.2.5.6.7.9.1.3.3.6.3.9 0 .3 0 .7-.4.9-.3.2-.6.3-1 .2-.8-.1-1.5-.7-1.7-1.5v.2ZM112.4 168.1c-.4.2-.7.5-1.1.7-.3.1-.6.3-.9.4 0-.5.3-1 .7-1.3 0 0 .2-.2.3-.2h.5c.2.1.4.2.6.4Z" opacity=".3"/><g fill="#a9533d"><path d="M58.7 141.5c.1 0 .2-.2.2-.4s0-.3-.1-.4c-.6-1.1-1.1-2.2-1.7-3.4-.3-.5-.5-1.2 0-1.7.8 1.4 1.7 2.9 2.9 3.8l-2.2-4.9c-.2-.3-.2-.9 0-1.1.4.1.7.6.9 1 .7 1.2 1.4 2.5 2.1 3.7-.5-1.4-1-2.9-1.4-4.3v-.6c.1 0 .3 0 .3.2.6 1.3 1.2 2.6 1.8 3.8v-3.6c.6 1.7 1 3.5 1 5.5"/><path d="M65.2 142.2c-3 1-6.1 1.7-9.2 2.3 0-.7.6-1.2 1.2-1.5.6-.3 1.3-.7 1.5-1.3.2-.4 0-1 .3-1.4.2-.3.5-.5.8-.6.6-.4 1.3-.7 1.9-1.1h.3c.1 0 .2.1.3.2.5.7 1.2 1.2 2.1 1.3.4 0 .9.1.9.5"/></g><path fill="#a9533d" d="m72.3 174.4 1-1.9c.8.2 1.6 0 2.4-.3 2.1-.7 4.5-1.6 5.5-3.5v.1c-.9 2.7 1.6 3.9 3.2 3.4.6-.2 1.5-.5 2.7-1 2.5-1.1 5.7-2.8 7-3.9 2-1.8 4.7-3.1 6-5.5l.5-3.5c-.8-1.7-2-3.2-3.3-4.4-.4-.4-2-1.8-4.7-3-5-2.3-9.8-2-11.6-1.8-5.3.6-6.6 2.5-12.8 4.6a45.4 45.4 0 0 1-13.8 2.5c0 4.3-.6 6.7-1 8 0 0-.7 2-.8 4.4v1.1c0 .2 0 .5.1.7.5 2.4 2.4 4.2 4.2 5.7 3.2 2.7 6.7 5.1 10.5 7.1.2 0 .3.2.5.3l4.6-9Z"/><path fill="#fc542d" d="m72.3 174.4 1-1.9c.8.2 1.6 0 2.4-.3 2.1-.7 4.5-1.6 5.5-3.5v.1c-.8 2.6 1.4 3.8 3 3.5-.4-.9-.8-1.7-1.1-2.7-.6-2.5-.1-5.4 1.1-7.6 1.3-2.5 3.4-4.2 5.5-5.8-2.6.8-5.4 0-6.7-2.1-1.4-2.2-.5-4.8-.4-5.1-1.5.1-3.9.4-6.6 1.3-3.2 1-3.5 1.8-6.9 3.1-3.2 1.2-6 1.6-8.8 2.1-2.5.4-4.5.6-6 .7 0 4.3-.6 6.7-1 8 0 0-.7 2-.8 4.4v1.1c0 .2 0 .5.1.7.5 2.4 2.4 4.2 4.2 5.7 3.2 2.7 6.7 5.1 10.5 7.1.2 0 .3.2.5.3l4.6-9Z"/><path fill="#9a3c2a" d="M83.9 164.5c-.4.5-1 .6-1.6.5 0 1.2-.4 2.3-.8 3.6-.2.7-.3 1.4-.4 2 0 .2.2.3.3.5 1-.7 1.6-2.1 2.3-3 1.2-1.5 3-2.3 4.6-3.4-1.4-.3-2.8-.5-3.8-1.3-.1.4-.3.7-.5 1Z"/><path fill="#a9533d" d="M85 159c-.2-.2-.1-.7.2-.6-.5-.2-1-.5-1.5-.7.5.7 1.1 1.4 1.6 2 0 0 0-.2.2-.3-.2-.1-.3-.2-.5-.4ZM98.9 155.7l-5.5-8.6c-1.3-2.1-2.7-4.1-4.2-6-1.5-1.8-3.3-3.5-5-5.1-1-.9-2-1.8-3.3-2-.9 0-1.7.2-2.5.5-5.3 1.9-10.6 3.7-15.9 5.6-.5.7-.1 1.8.6 2.2.7.4 1.7.4 2.5.4 3.4 0 6.8-.2 10.3-.3.6 0 1.3 0 1.8.4.3.2.4.5.6.8 1.9 3.1 5.1 5.3 6.7 8.6.9 1.9.2 3.3-.6 4.2s8.4 1 8.4 1"/><path fill="#fc542d" d="M81.2 158.8c-.2 1.3-.6 2.6-.3 3.8.2 1 .9 1.9 1.5 2.7 0 0 .1.2.3.2.2 0 .4 0 .6-.1 1.6-.9 3-2 4.1-3.5 1.1-1.5 1.7-3.3 1.6-5.1 0-.2 0-.4-.1-.5-.1-.2-.3-.3-.5-.3-1.3-.6-2.7-1-4.1-1.2-.3 0-.6 0-.9.2-1.1.9-1.9 2-2.2 3.8Z"/><path fill="#9a3c2a" d="M126.1 180.4c1.2-.3 2.5-.2 3.7 0 .9 0 1.8.1 2.7.2.8 0 1.6 0 2.3-.3 1-.7 1.1-2.2 2.1-2.9-.4-.2-1-.2-1.4.2-.5.4-.6 1.2-1.1 1.5-.6.3-1.3 0-1.7-.4-.5-.4-.9-1-1.4-1.2-.6-.2-1.3-.1-1.7.3-.5.4-.7 1.1-1.3 1.4-.4.3-.9.3-1.3.4-.4.1-.9.4-1 .9"/><path fill="#fc542d" d="M81.1 168.8c.2-.3.6-.5 1-.5h-.3c2.1 0 4 1.2 5.2 2.9-1.1.5-2.1.9-2.7 1-1.6.4-4.1-.8-3.2-3.4Z"/><path fill="#9a3c2a" d="M126.1 180.8c.3-.4.7-.7 1.1-1 .2-.1.4-.3.7-.3.8-.2 1.4.7 2.2.9 1 .3 2.1-.5 3.2-.7.2 0 .5 0 .4.2 0 0 0 .2-.2.2-.6.5-1.2.9-1.8 1.3-.4.3-1 .6-1.5.4-.3 0-.5-.3-.8-.4-.4-.1-.8 0-1.2 0-1.3.3-2.6 0-3.6-.8"/><path fill="#9a3c2a" d="M126.7 178.5c.7 0 1.2-.6 1.6-1.1.4-.6.6-1.2 1-1.8 0-.1.2-.2.3-.3.2 0 .4 0 .6.1.5.2 1.1.2 1.7 0 0 .5-.3.9-.7 1-.2 0-.5 0-.6.2-.3.2-.3.7-.3 1.2 0 1.4-1.5 2.5-2.8 2.3"/><path fill="#fc805f" d="m71.1 163-.4-.5c.1.2.3.3.4.5Z"/><path fill="#fc542d" d="m100.3 157.9-12.9-2.2.4 3.7 12.5-1.5z"/><path fill="#9a3c2a" d="M108.2 155.6s-1.3-2.1-3.2-.4c-2 1.7-.4 3.5-.4 3.5l3.7-3.1ZM102.8 166c0-.1 0-.2-.1-.3l-2.6-.8-.7-.2h-.3c.3-1.4 1.2-2.6 2.6-3.7.5-.4 1.2-.8 1.9-1.2.2-.1.5-.3.8-.4 0 0-.1.2-.3.7-.5 1.2-1.4 3.6-1.2 5.7v.3Z"/><path fill="#fc542d" d="M69.7 161.8c.3.1.6.3.9.5v-.2c-.5-1.4-4-6.2-4-6.2.4.9 1.7 5.5 1.7 5.5.4 0 .9.2 1.3.4Z"/><path fill="#14387d" d="M118.3 165.4c-.8-1.4-2.1-3.4-4.3-5.5-4.1-3.9-7.7-4.4-7.7-6.3 0-1.8 3.4-3.6 6.3-3.7 3.9-.2 8.5 2.6 9.2 7.2.5 3.1-.9 6.2-3.6 8.2Z"/><path fill="#fff" d="M14.9 182.2c1.5-2.7 3-.5 3-.5s-1.3-2.4 1.1-4.3c2.4-1.9 4.3-1.3 4.3-1.3.4-3.5 1.2-4.5 4.2-6.9 3-2.4 6.9 1.8 6.9 1.8s2.1-5.2 6.4-6.4c4.3-1.2 7 3.6 7 3.6s3-3.7 5-4.4c1.9-.7 1.3 3.8 1.3 3.8s6.6-4.6 8.6-2c1.9 2.6.4 5.3.4 5.3s2.1-3.4 4.2-3c2.1.4.4 3.4.4 3.4 5.2-2.8 6.2 1.5 6.2 1.5s2.9-3.4 7.2-3.9c4.3-.5 4.8 3.4 4.8 3.4s2.3-3.4 10.3-3c7.9.5 5.6 4.3 5.6 4.2 1-.8 2-1.2 3-1.2 0-.6.1-1.5 1.7-2.3 2.6-1.2 2.7 2 2.7 2s.2-3.1 3.1-2.8c2.9.3 4.1 2.4 4.1 2.4 2.1-2.7 3.2-3 6.9-2.5 3.6.4 4.5 7.3 4.5 7.3s4.4-2.8 8.3-.3c3.9 2.5 3.6 8.9 3.6 8.9s.5 0 1.3-.2c-.4.9-.7 1.9-1 2.9-.4 0-.8.2-1.2.3-3.1.8-6 2.6-8.6 4.9v-1.5c-.6 1.1-2 2.6-4.9 3-3.3.5-4.3-2.7-4.7-4.6-.2-.2-.4-.5-.6-.7-.9 1.2-3.4 4-5.7 4-2.9 0-4.4-4.8-4.4-4.8-3.7 2-5.9.9-7.3-1-.2 0-.3.2-.5.3-2 1-3.6.5-4.7-.5a8.12 8.12 0 0 1-2.2-3.4s-1.2 2.2-2.9 4c-1.5 1.5-3.3 2.7-5.1 2-3.8-1.5-2.8-6-2.7-6.3 0 .3-1.3 4.7-7.7 4.8-6 .2-4.6-6.2-4.3-7.4-.2.8-1.3 3.6-3.7 3.4-2.8-.3-3.5-3.1-3.5-3.1s-.9 4.1-3.8 3.6c-2.9-.5-.9-3.1-.9-3.2 0 0-3.3 2.1-6.8 1.6-3.4-.4-3.8-5.5-3.9-5.5 0 0-1 3.2-3.2 4-2.2.8-3.7-2.8-3.7-2.8s-.2 4.2-5.5 6.4-7.2-3.5-7.2-3.5-.7 3.2-2.3 4.1c-1.6.9-3.1-2.6-3.2-2.6 0 0-1.5 6.1-3.8 7.2-2.2 1.1-4-2.3-4-2.3s-2.4 4.6-3.4 1.6c-1-2.9 1.4-4.6 1.4-4.6s-1.6-.5-.2-3.2Z"/><path fill="url(#j)" d="M103.2 177.6c-4 0-7.2 3.2-7.2 7.2s.5 3.1 1.4 4.2l5.8 10 5.8-10a7.17 7.17 0 0 0-5.8-11.4Zm0 10.5c-1.7 0-3.2-1.4-3.2-3.2s1.4-3.2 3.2-3.2 3.2 1.4 3.2 3.2-1.4 3.2-3.2 3.2Z"/></svg>