<svg xmlns="http://www.w3.org/2000/svg" xmlns:xlink="http://www.w3.org/1999/xlink" width="335" height="335" data-name="Layer 1">
  <defs>
    <linearGradient id="a" x1="288.9" x2="65.9" y1="377.5" y2="-5.5" gradientUnits="userSpaceOnUse">
      <stop offset="0" stop-color="#0082ad"/>
      <stop offset=".5" stop-color="#025290"/>
      <stop offset="1" stop-color="#30286f"/>
    </linearGradient>
    <linearGradient xlink:href="#a" id="b" x1="133.8" x2="125.6" y1="303" y2="288.8"/>
    <linearGradient xlink:href="#a" id="c" x1="107.7" x2="99.5" y1="331.9" y2="317.7"/>
    <linearGradient xlink:href="#a" id="d" x1="149.6" x2="140.7" y1="299.3" y2="284"/>
    <linearGradient xlink:href="#a" id="e" x1="82.9" x2="74.1" y1="322" y2="306.7"/>
    <linearGradient xlink:href="#a" id="f" x1="194.3" x2="140.7" y1="351.9" y2="260"/>
    <linearGradient xlink:href="#a" id="g" x1="219" x2="216.4" y1="305.1" y2="300.6"/>
    <linearGradient xlink:href="#a" id="h" x1="214.6" x2="211.9" y1="307.7" y2="303.1"/>
    <linearGradient xlink:href="#a" id="i" x1="189.8" x2="132.5" y1="334.2" y2="235.6"/>
    <linearGradient xlink:href="#a" id="j" x1="194.2" x2="140.8" y1="367.2" y2="275.3"/>
    <linearGradient xlink:href="#a" id="k" x1="309.5" x2="279" y1="329.3" y2="276.9"/>
    <linearGradient xlink:href="#a" id="l" x1="310.5" x2="278" y1="307" y2="251.1"/>
  </defs>
  <path fill="url(#a)" d="M0 0h335v338H0z"/>
  <g fill="#fff" data-name="PRINT">
    <path d="M30.5 13.8c0 .6-.2 1.1-.6 1.5l-6.8 6.8-7.2-4.2v-4.1c0-1.2 1-2.1 2.1-2.1s2.1 1 2.1 2.1V19l6.7-6.7c.8-.8 2.2-.8 3 0 .4.4.6.9.6 1.5Zm-.6 19c-.4.4-.9.6-1.5.6s-.6 0-.8-.2c-.3-.1-.5-.3-.7-.5l-2.3-2.3-4.4-4.4v5.2c0 1.2-1 2.1-2.1 2.1s-2.1-1-2.1-2.1v-4.1l7.2-4.2 4.5 4.5 2.3 2.3c.8.8.8 2.2 0 3Zm-7.1-10.4c0-.1-.1-.2-.2-.3l-1.8-1-4.9-2.8-4.1-2.4c-.2-.1-.5 0-.7.2v12.7c0 .3.2.5.5.5h.2l4.1-2.4 6.7-3.9s.1-.1.1-.2v-.3Zm-10.2-5 3.2 1.9 5.2 3s.1 0 .1.1v.3s0 .2-.2.2l-5.2 3-3.2 1.9c-.2.1-.4 0-.5-.1v-9.9c0-.2.2-.4.4-.4h.2Z"/>
    <path d="M19.8 22.6s0 .1-.1.2L15.8 25l-2.4 1.4c-.1 0-.3 0-.4-.1v-7.4c0-.2.1-.3.3-.3h.1l2.4 1.4 3.9 2.2s.1 0 .1.2v.2Zm45.8-.6-6-3-3.7-1.8c-.2-.1-.5 0-.6.2v10.1c.1.2.4.4.6.4h.4l3.4-1.9 2.1-1.1 3.8-2s.2-.1.2-.2v-.2c0-.1-.1-.2-.2-.2Zm-6 3-2.8 1.5c-.2.1-.4 0-.5-.1v-7.8c0-.2 0-.3.3-.3h.1l2.8 1.4 1 .5 3.6 1.8s.1 0 .2.2v.2s0 .1-.1.1l-4.6 2.4Z"/>
    <path d="M63.1 22.5s0 .1-.1.1l-3.4 1.8-2.1 1.1h-.3v-5.9c0-.1 0-.2.2-.2l2.1 1.1 3.5 1.8.1.1v.1ZM40 17.3h-5.2v10.4h2.6v-3.4h2.7c2.5 0 4.3-1.5 4.3-3.6 0-2-1.9-3.5-4.4-3.4Zm-.2 4.9h-2.4v-2.9h2.4c1.2 0 2.1.5 2.1 1.4 0 .9-.8 1.5-2 1.5Zm14.4 5.5-8.2.1-.2-10.3h2.5l.1 8.3 5.7-.1.1 2zM71 23.8v3.7h-2.5v-3.7l-4.6-6.5h2.9l2.9 4.5 2.9-4.6h2.8L71 23.8zM86.3 28h-1.7l-4.4-4.7-1.8 1.7v3.1h-1.3L77 17.8h1.3l.1 5.7 5.7-5.7 1.7-.1-4.7 4.8 5.2 5.5zm6.5-10.5c-3.2 0-5.9 2.5-5.8 5.4 0 2.9 2.8 5.3 6 5.3s5.8-2.5 5.8-5.4c0-2.9-2.8-5.3-5.9-5.2Zm.4 9.6c-2.5.2-4.7-1.7-4.9-4.2.1-2.3 1.9-4.1 4.2-4.3 2.5-.2 4.7 1.7 4.9 4.2-.1 2.3-1.9 4.1-4.2 4.3Zm15.7-2c0 1.6-1.3 3-4 3-1.7 0-3.3-.5-4.5-1.6l.8-.9c1 1 2.4 1.5 3.8 1.4 1.8 0 2.7-.9 2.7-1.8 0-1.1-1.1-1.5-3.1-1.9-2.3-.5-3.8-1.1-3.8-2.9 0-1.6 1.6-3 3.8-3 1.5 0 2.9.5 4.1 1.4l-.8.9c-.9-.8-2.1-1.3-3.3-1.3-1.4 0-2.4.9-2.4 1.8 0 1.1 1.2 1.4 3.1 1.8 2.2.4 3.8 1.1 3.8 2.9Zm13.7 2.9h-1.3l-.1-7.8-4.2 7.3-4.3-7.1.1 7.7h-1.3l-.2-10.3h1.4L117 25l4.2-7.3h1.3l.1 10.3zm8.2-10.5c-3.2 0-5.9 2.5-5.8 5.4 0 2.9 2.8 5.3 6 5.3s5.9-2.5 5.8-5.4c0-2.9-2.8-5.3-5.9-5.2Zm.4 9.6c-2.5.2-4.7-1.7-4.9-4.2.1-2.3 1.9-4.1 4.2-4.3 2.5-.2 4.7 1.7 4.9 4.2-.1 2.3-1.9 4.1-4.2 4.3Zm15.8-2c0 1.6-1.3 3-4 3-1.7 0-3.3-.5-4.6-1.6l.8-.9c1 1 2.4 1.5 3.8 1.4 1.8 0 2.7-.9 2.6-1.8 0-1.1-1.1-1.5-3.1-1.9-2.3-.5-3.8-1.1-3.8-2.9 0-1.6 1.6-3 3.8-3 1.5 0 2.9.5 4.1 1.4l-.8.9c-.9-.8-2.1-1.3-3.3-1.3-1.4 0-2.4.9-2.4 1.8 0 1.1 1.2 1.4 3.1 1.8 2.2.4 3.8 1.1 3.8 2.9Z"/>
  </g>
  <path fill="#fff" d="M47.9 34.7H287a25 25 0 0 1 25 25c0 4.5-3.7 8.2-8.2 8.2H31.1c-4.5 0-8.2-3.7-8.2-8.2a25 25 0 0 1 25-25Zm119.6 115c-3.9 0-7.1 3.2-7.1 7.1s.5 3 1.4 4.2l5.7 9.9 5.7-9.9c.9-1.2 1.4-2.6 1.4-4.2 0-3.9-3.2-7.1-7.1-7.1Zm0 10.3c-1.7 0-3.1-1.4-3.1-3.1s1.4-3.1 3.1-3.1 3.1 1.4 3.1 3.1-1.4 3.1-3.1 3.1ZM335 264.1v70.8H8.8c-2-3-3.4-6.1-4-9.3-3.5-16.2 11.5-31.6 16.9-37.2 55.9-57.6 219.5-36.6 292.5-27.2 6.9.9 13.9 1.8 20.8 2.9Z"/>
  <path fill="url(#b)" d="M118.2 296.6c2.8 1.9 8 .2 12.7.4 4.7.2 12.1.6 12.1.6-6.9-3.2-12.1-5.2-19-5.5-6.9-.3-8.6 2.6-5.8 4.5Z"/>
  <path fill="url(#c)" d="M92.1 325.6c2.8 1.9 8 .2 12.7.4 4.7.2 12.1.6 12.1.6-6.9-3.2-12.1-5.2-19-5.5-6.9-.3-8.6 2.6-5.8 4.5Z"/>
  <path fill="url(#d)" d="M146 292.5c3 1.7 7.7 4.3 7.7 4.3-3.2-5-5.8-8.5-10.2-10.9-4.4-2.4-6.8-.3-5.8 2.2s5.2 2.6 8.2 4.3Z"/>
  <path fill="url(#e)" d="M79.3 315.3c3 1.7 7.7 4.3 7.7 4.3-3.2-5-5.8-8.5-10.2-10.9s-6.8-.3-5.8 2.2 5.2 2.6 8.2 4.3Z"/>
  <path fill="url(#f)" d="M260.7 307.3h.2c-19.7 0-21 7.3-46.3 7.9h-4.7c-3.8 0-8.5 0-13-.6-17-1.7-20.4 2-17.4 2.9 3 .8 11.5 2 26.1 2.2 0 0-10.3 1.7-17.2 2-3.7.1-10.2.3-14.3 0-9.2-.7-8.6-6.2-22.5-3.1-8.4 1.9-15.8 3.1-23.6 1-4.2-1.2-13.2-4.2-13.2-4.2s5.2.5 14.4 2.2c2.4.4 6 1.3 8.3 0 3.5-2.1-2.2-5.1-16.1-6.2-12.1-1-19.1-4.9-36.6-7.2-7.2 0-14.2 0-20.5.3 22.3 2.9 32.4 9.2 48.1 16.1 5.2 2.3 14.5 5.1 24.9 6.6 8.6 1.3 26.2 1.6 26.2 1.6s-20.6 4.8-36.5 1.1c7 5.5 23.2 10.1 45.9 7 21.9-3 47.9-11.6 56.5-15 14.6-5.9 28.3-12.4 41.7-14.6H261Z"/>
  <path fill="url(#g)" d="M220 304.5c.6 0-2.5-2.6-2.8-3-.4-.4-1.5-.7-1.5-.3 0 .2.1 1.4 1.2 2.2.9.7 2.8 1.1 3.1 1.1Z"/>
  <path fill="url(#h)" d="M216.2 305.4c-.2-.2-.4-.5-.7-1-.2-.3-.5-.7-.9-1.1-.6-.5-2.1 0-3.2.5-.6.2-1.2.4-1.4.3 0 0 0 1.2.7 2.2.8 1.3 2.4 2.2 2.4 2.2s3.3-1.7 3.5-2.4c.1-.4 0-.5-.4-.8Z"/>
  <path fill="url(#i)" d="M80.6 271.6c1.1 0 3.3.4 3.3.4s-2 .7-1.5 2.1c.5 1.4 2.9 1.5 5.4 1.2 2.5-.3 8.4-.6 9.5-.4 0 0-2.9 1.4-3.6 2.1-.8.7-.3 2.5.4 2.5.8 0 4.1-2.2 6.5-2 2.4.3 5.2 1.1 8-1.2 2.7-2.4 3.9-4.1 6.9-5.1 3.1-1 13.4-2.4 17.7-1 4.4 1.4 9.3 1.8 13.1 1.4 3.9-.4 3.8-1.1 5-.2 1.2.9 7.5 17.8 14.9 24.3-2.8 2.5-7.7 5.4-12.7 5.8-2.9.2-7.7 1.1-12.9 2s.8.1 2 .3c.3 0 .5 0 .8.1.6 0 1.2.2 1.9.3.3 0 .6 0 .8.1 1.7.2 3.6.5 5.3.6 2.8.2 7.8-.8 11.3-1.7 2.4-.6 4.1-1.1 4.1-1.1s-.8.4-2.1 1c-2.8 1.2-7.7 3.3-10.2 3.5-2.5.2-13.4-1-20.5-1.9-.5 0-1-.1-1.5-.2-6.3.3-12.9.3-19.5.3 8.6 1.3 18.1 5.6 27 6.8 18 2.4 30.4.8 39.1.2-6.7-1.2-13.4-2.8-13.4-2.8 11.5 1.1 16.5.9 21.3-1 1.1-.4 2-1 2.8-1.6.7-.6 1.3-1.2 1.7-1.8 1.1-1.5 1.4-2.8 1.4-2.8s.4 1.8.6 3.9v.2c.2 2.4 0 5.2-1.3 6.5 5.1.7 10.3 1.2 15.3 1.4h7.1c11.4-.4 18.4-3.7 21.7-7-6.3-.3-10.5-.7-13.7-1.2-1.4.8-2.9 1.5-4.1 2.2-.7.4-3 1.2-5.5 1.9h-3.6v-.1c.2-.5.8-.3 1.3-.6h.1c-.2-.4-1.2-1.3-1.4-1.5-.6-.6-.9-1.1-1.2-1.1-.3 0-.1 1.2 0 1.8v1.5c-.9-.1-1.6-.2-1.8-.3-4-.9-3.9-4.3-2.6-7.1.8-1.7 2.1-3.2 3.2-3.7 4.2-2 3.5-5.2 4.1-8.2 1.9.5 3.9 1.4 4 1.7.1.4-.3 2.9 1.4 4.7 1.1 1.1 2.7 2 4.1 2.1 1.5 0 2.8-.7 3.3-.4.6.2.8.7.9 1.1-.8.6-1.4 1.2-1.3 2.4 0 1.2.8 1.9.8 1.9s.4.1 1 0c-.2-.3-.4-.7-.5-1.3-.1-.8.3-1.3.3-1.3s.2 1.5.7 1.6c.4 0 1.2-.3 1.9-.7.2-.1.4-.3.6-.4.4-.3.5-.7.5-.9v-.4h.3c.3 0 .6.2.9.5.4-.5.5-.7.5-.7s-.4-.3-.9-.6c-.7-.5-1.7-1-2.2-1.1-.5 0-.9 0-1.2.1-.2-1.1-1.2-1.7-1.4-2.1-.2-.5 0-2.5-2.1-4.7s-4.5-1.3-5.9-1.7c-.9-.3-3.1-1.6-4.5-2.5 1-1.4 2.6-1.8 6.7-1 6.8 1.3 12 5.1 13.6 6.3.3.2.5.4.5.4.2-.4.5-.7.7-1.1 0-.8-.4-1.8-1-2.8-.3-.6-.7-1.2-1.2-1.7-.7-.8-1.5-1.7-2.5-2.4-.8-.6-1.6-1.2-2.5-1.7a14.32 14.32 0 0 1 6.9 2.2s-5.9-6.7-9.8-8c0 0 5.7 1.3 9.6 4.2-.5-.7-1-1.4-1.7-2.2-4.2-5.1-10.9-8-15.3-8.3-4.4-.3-8.4.8-11.9 5.1-2.9 3.6-3.3 7.1-3.8 11.3-.3 2.6-.7 3.4-1.3 5.3 2.5-1.8 4-6.6 4.4-8.2-.3 1.4-.4 3.7-.6 5.5-.2 1.4-.7 2.4-1.3 3.3-.3.5-1 1.7-2.8 3-1.7 0-2.8-.2-3.5-3.5-1.2-5.8-2.6-8.1-2.6-8.1-.5-1.9-1.5-3.8-3.7-6.1-4.7-4.9-10-4.9-10-4.9s-8.7-10.3-19.1-13.4c-1.8-.5-3-1.6-4.6-2.5 2.1 2.8.3 5.3 2.2 5.3 4.3.1 7.8 1.7 10.6 3.6 3.1 2.6 6 6.2 7 9.2 1.1 3 5 3.7 7.2 4.2 0 0-5.9-2.4-5.8-5.6 2.1.9 2.1 1.7 6.9 3.3 4.8 1.7 8 8.1 7.3 13.4-.5 4-2.2 6.5-3.5 7.9-.4.4-.7.7-1 .9-.4.3-.7.5-.7.5l.4-.4c.3-.3.6-.6.9-1 2.2-2.7 2.6-5.5 2.5-7.9 0-.9-.1-1.7-.2-2.6-.4-3.5-5.7-6.5-10.9-8.2-5.1-1.6-8.4-3.1-9.3-5.5-.8-2.4-3.7-4.2-8.5-6.4s-6.8-7.3-6.8-7.3c-1.7 4.3-4.7 3.6-4.7 3.6.6-.6 2.3-2.9 1.8-4.5-.6-1.6-8 1.8-13.9 1.7-5.9 0-14.7.3-18.1.8-3.4.5-10.6-.5-12-1.6 0 0 4.2.9 9.8.3 1.7-.2 6.2-.4 8-.6 5.8-.5 16.8-4 22.9-5.5h-3.7c-11.4.6-22 4.4-27.4 4.7-3.9.2-7.9-.9-10.8-1.2-3-.4-4.4-.2-7.2.5s-7.2 1.1-9 1.7c-1.8.6-2.7.9-2.4 1.6.3.7 1.7.7 1.7.7s-2.5.4-4.3.6c-1.8.2-2.7.6-2.2 1.7.4 1 1.2.9 1.4.9-.4 0-3.2.7-4 1.9-.9 1.3.2 2.7 1.3 2.7Zm139.1 19.7c1.2.2 1.5.9 1.5.9-1.3-.3-3.3.1-3.6 1.2s.1 1.9 1.1 2.7 2.5 1.3 2.5 1.3c-1.3 0-2.3-.3-3.5-1.2-1.2-.9-1.2-2.1-1.2-2.8 0-.7-.1-1.4-.1-1.4s1.8-1.1 3.3-.8Zm-50 1.1c0 .1.1.3.2.4 1.6 3.1 5.2 6.1 8.8 6.3 5.8.3 8.3-4 8.3-4s-.7 3-5.2 4.5c-4.4 1.5-10.3-1.8-14-5.8-3.7-4.1-2.7-6-6.9-11 0 0 7.3 6.4 8.7 9.6ZM80.2 269c.7-.3 6-.3 8.7-.9 2.7-.6 4.8-1.3 6.5-2s1.5-1.7 1.3-1.6c-.2 0-4 .7-5.8.8-1.8.2-4.5.2-5.6.3-1.2.1-2-.3-1.4-.5.6-.2 5-.4 8.6-1 3.5-.7 4.5-1.3 4.9-1.9.4-.6-.9-.5-2.5-.3s-3.8.5-5.6.6c-1.8.2 0-.1.7-.5.8-.3 2.6-.3 4.8-.9 2.2-.6 4.5-.3 4.3.1s-.3 1.2-.4 1.5c0 .3-.6.8-.1 1.3.5.4 1.4 1.3 1.4 1.3-.5.3-3.2 2-5.6 2.8s-5.1 1.8-9.2 1.7c-4.1-.1-5.5-.5-4.9-.8Z"/>
  <path fill="#fff" d="M335 253.1v4c-86.9-12-264.2-34-326.1 34.6-2.1 2.4-5.5 6.1-8.9 10.9v-9c1.9-2.3 3.7-4.2 5-5.6 62.6-68.2 240.9-46.9 330-34.9ZM81.1 154.4v.5c3.9 0 7 .9 7 1.9s-3.1 1.9-7 1.9v.5c3.9 0 7 .9 7 1.9s-3.1 1.9-7 1.9v.4c3.9 0 7 .9 7 1.9s-3.1 1.9-7 1.9v.8h-82v-.8h-.2v-3.9h.2v-.4h-.2V159h.2v-.5h-.2v-3.9h.2v-.5h-.2v-3.9h.2v-.5h-.2v-3.9h.2v-.6h82v.7c3.9 0 7 .9 7 1.9s-3.1 1.9-7 1.9v.5c3.9 0 7 .9 7 1.9s-3.1 1.9-7 1.9Z"/>
  <path fill="url(#j)" d="M79.6 310.9h175.8v20.7H79.6z"/>
  <path fill="none" stroke="url(#k)" stroke-miterlimit="10" d="M253.5 292.6H335v21.1h-81.5z"/>
  <path fill="none" stroke="url(#l)" stroke-miterlimit="10" d="M253.5 266.1H335V292h-81.5z"/>
  <path fill="#fff" d="M186 72.3c-.9-2.4-3.9-4.1-7.6-4.1h-21.5c-3.7 0-6.7 1.8-7.6 4.1h-6.7v4.1h6.5c.5 2.7 3.8 4.8 7.8 4.8h4.9c1.8 0 3.5-.7 4.4-1.8l.3-.4.3-.3c.7-.8 2.3-.8 3 0l.3.3.3.4c.9 1.1 2.6 1.8 4.4 1.8h3.8c4 0 7.3-2.1 7.8-4.8h6.5v-4.1h-6.7Zm-3.3 3.2c0 2-2.3 3.6-5.1 3.6h-1.9c-1.8 0-3.5-.7-4.4-1.8l-1.7-2c-.7-.8-2.3-.8-3 0l-1.7 2c-.9 1.1-2.6 1.8-4.4 1.8h-3c-2.8 0-5.1-1.6-5.1-3.6v-1.9c0-2 2.3-3.6 5.1-3.6h19.9c2.8 0 5.1 1.6 5.1 3.6v1.9Z"/>
  <path fill="none" stroke="#fff" stroke-miterlimit="10" d="M196.2 70.7H286m-89.8 3.7h76.7m-76.7 4.2h60.4m-117.8-7.9H49m89.8 3.7H62.1m76.7 4.2H78.4"/>
</svg>
