<svg xmlns="http://www.w3.org/2000/svg" xmlns:xlink="http://www.w3.org/1999/xlink" width="335" height="335"><defs><radialGradient id="e" cx="167.5" cy="167.5" r="167.5" fx="167.5" fy="167.5" gradientUnits="userSpaceOnUse"><stop offset="0" stop-color="#294770"/><stop offset="1" stop-color="#101c2c"/></radialGradient><radialGradient id="d" cx="305.3" cy="24.1" r="24.1" fx="305.3" fy="24.1" gradientUnits="userSpaceOnUse"><stop offset="0" stop-color="#a50404"/><stop offset=".4" stop-color="#a20303"/><stop offset=".7" stop-color="#980202"/><stop offset=".9" stop-color="#800"/><stop offset="1" stop-color="#840000"/></radialGradient><radialGradient id="a" cx="289.3" cy="11.9" r="5.4" fx="289.3" fy="11.9" gradientTransform="rotate(76.7 289.35 11.93)" gradientUnits="userSpaceOnUse"><stop offset="0" stop-color="#fff"/><stop offset=".4" stop-color="#fcfdfd"/><stop offset=".7" stop-color="#f2fafa"/><stop offset="1" stop-color="#e4f4f4"/></radialGradient><radialGradient xlink:href="#a" id="g" cy="11.9" r="5.3" fy="11.9" gradientTransform="rotate(76.7 289.35 11.93)"/><radialGradient id="b" cx="22.7" cy="16.8" r="6" fx="22.7" fy="16.8" gradientUnits="userSpaceOnUse"><stop offset="0" stop-color="#fbd400"/><stop offset=".4" stop-color="#fad100"/><stop offset=".7" stop-color="#fac700"/><stop offset=".9" stop-color="#f9b700"/><stop offset="1" stop-color="#f9b200"/></radialGradient><radialGradient xlink:href="#b" id="k" cx="22.7" cy="27.4" r="5.9" fx="22.7" fy="27.4"/><radialGradient xlink:href="#b" id="l" cx="16.8" cy="22.1" r="5.9" fx="16.8" fy="22.1"/><radialGradient xlink:href="#b" id="m" cx="16.3" cy="22.1" r="3.5" fx="16.3" fy="22.1"/><radialGradient xlink:href="#b" id="n" cx="57.8" cy="22.1" r="5" fx="57.8" fy="22.1"/><radialGradient xlink:href="#b" id="o" cx="57.3" cy="22" r="2.9" fx="57.3" fy="22"/><radialGradient xlink:href="#b" id="p" cx="38.1" cy="22" r="4.7" fx="38.1" fy="22"/><radialGradient xlink:href="#b" id="q" cx="47.9" cy="22.2" r="4.4" fx="47.9" fy="22.2"/><radialGradient xlink:href="#b" id="r" cx="66.3" cy="21.9" r="5.1" fx="66.3" fy="21.9"/><radialGradient xlink:href="#b" id="s" cx="77.6" cy="22.5" r="4.6" fx="77.6" fy="22.5"/><radialGradient xlink:href="#b" id="t" cx="88" cy="22.3" r="5.3" fx="88" fy="22.3"/><radialGradient xlink:href="#b" id="u" cx="99.2" cy="22.4" r="4.5" fx="99.2" fy="22.4"/><radialGradient xlink:href="#b" id="v" cx="110.7" cy="22.5" r="5.1" fx="110.7" fy="22.5"/><radialGradient xlink:href="#b" id="w" cx="123.8" cy="22.3" r="5.3" fx="123.8" fy="22.3"/><radialGradient xlink:href="#b" id="x" cx="134.9" cy="22.4" r="4.5" fx="134.9" fy="22.4"/><radialGradient xlink:href="#b" id="y" cx="83.1" cy="251.9" r="83.1" fx="83.1" fy="251.9"/><radialGradient xlink:href="#d" id="C" cx="73" cy="158.6" r="57.8" fx="73" fy="158.6"/><radialGradient xlink:href="#b" id="D" cx="73.2" cy="159" r="54.2" fx="73.2" fy="159"/><radialGradient xlink:href="#a" id="E" cx="71.7" cy="188.4" r="9.7" fx="71.7" fy="188.4"/><radialGradient xlink:href="#a" id="F" cx="80.3" cy="179.8" r="2.9" fx="80.3" fy="179.8"/><radialGradient xlink:href="#a" id="G" cx="75.2" cy="185" r="5.9" fx="75.2" fy="185"/><radialGradient xlink:href="#a" id="I" cx="286.1" cy="307.6" r="39.9" fx="286.1" fy="307.6"/><radialGradient xlink:href="#a" id="J" cx="286.1" cy="307.6" r="39.9" fx="286.1" fy="307.6"/><radialGradient xlink:href="#a" id="K" cx="329.6" cy="307.6" r="20.2" fx="329.6" fy="307.6"/><linearGradient id="c" x1="-1494.5" x2="-1494.5" y1="-47.3" y2="-73.5" data-name="Degradado sin nombre 230" gradientTransform="scale(-1 1) rotate(34.4 -1091.1 1886.16)" gradientUnits="userSpaceOnUse"><stop offset="0" stop-color="#fff"/><stop offset=".5" stop-color="#fff"/><stop offset=".6" stop-color="#d9c6c3"/><stop offset=".7" stop-color="#ab827a"/><stop offset=".8" stop-color="#8a5044"/><stop offset=".9" stop-color="#753123"/><stop offset=".9" stop-color="#6e2617"/></linearGradient><linearGradient id="h" x1="8" x2="8" y1="126.1" y2="105.9" data-name="Degradado sin nombre 177" gradientUnits="userSpaceOnUse"><stop offset="0"/><stop offset="0" stop-color="#090909"/><stop offset="0" stop-color="#373737"/><stop offset="0" stop-color="#626262"/><stop offset=".1" stop-color="#878787"/><stop offset=".2" stop-color="#a8a8a8"/><stop offset=".3" stop-color="#c3c3c3"/><stop offset=".3" stop-color="#d9d9d9"/><stop offset=".4" stop-color="#eaeaea"/><stop offset=".5" stop-color="#f6f6f6"/><stop offset=".6" stop-color="#fdfdfd"/><stop offset="1" stop-color="#fff"/></linearGradient><linearGradient id="i" x1="5.5" x2="5.5" y1="119.8" y2="108.2" data-name="Degradado sin nombre 183" gradientUnits="userSpaceOnUse"><stop offset="0" stop-color="#fff" stop-opacity="0"/><stop offset="0" stop-color="#fff" stop-opacity="0"/><stop offset=".2" stop-color="#fff" stop-opacity=".4"/><stop offset=".4" stop-color="#fff" stop-opacity=".6"/><stop offset=".5" stop-color="#fff" stop-opacity=".8"/><stop offset=".6" stop-color="#fff"/><stop offset=".7" stop-color="#fff"/><stop offset="1" stop-color="#fff" stop-opacity="0"/></linearGradient><linearGradient id="j" x1="-1.2" x2="-1.2" y1="-230.1" y2="-237.7" data-name="Degradado sin nombre 198" gradientTransform="translate(137.3 481.7)" gradientUnits="userSpaceOnUse"><stop offset="0" stop-color="#fff"/><stop offset=".4" stop-color="#fdfdfd"/><stop offset=".5" stop-color="#f6f6f6"/><stop offset=".6" stop-color="#eaeaea"/><stop offset=".7" stop-color="#d9d9d9"/><stop offset=".7" stop-color="#c3c3c3"/><stop offset=".8" stop-color="#a8a8a8"/><stop offset=".9" stop-color="#878787"/><stop offset=".9" stop-color="#626262"/><stop offset="1" stop-color="#373737"/><stop offset="1" stop-color="#090909"/><stop offset="1"/></linearGradient><linearGradient id="z" x1="76.8" x2="76.8" y1="335" y2="275.2" data-name="Degradado sin nombre 174" gradientUnits="userSpaceOnUse"><stop offset="0" stop-color="#fff"/><stop offset="0" stop-color="#fff"/><stop offset=".2" stop-color="#fff" stop-opacity=".8"/><stop offset=".4" stop-color="#fff" stop-opacity=".6"/><stop offset=".7" stop-color="#fff" stop-opacity=".4"/><stop offset="1" stop-color="#fff" stop-opacity="0"/><stop offset="1" stop-color="#fff" stop-opacity="0"/></linearGradient><linearGradient xlink:href="#c" id="B" x1="-442.7" x2="-442.7" y1="-536.9" y2="-599.9" data-name="Degradado sin nombre 230" gradientTransform="rotate(34.4 -1493.05 587.67)"/><linearGradient id="L" x1="116.2" x2="131.3" y1="130.6" y2="104.6" data-name="Degradado sin nombre 236" gradientTransform="rotate(76.7 123.8 117.64)" gradientUnits="userSpaceOnUse"><stop offset="0" stop-color="#6e2617"/><stop offset="0" stop-color="#8a5044"/><stop offset=".2" stop-color="#a97e75"/><stop offset=".3" stop-color="#c3a59f"/><stop offset=".5" stop-color="#d8c6c2"/><stop offset=".6" stop-color="#e9dfdc"/><stop offset=".7" stop-color="#f5f0ef"/><stop offset=".9" stop-color="#fcfbfb"/><stop offset="1" stop-color="#fff"/></linearGradient><filter id="f" data-name="drop-shadow-7" filterUnits="userSpaceOnUse"><feOffset dx="7" dy="7"/><feGaussianBlur result="uuid-15e7af12-57a2-4a23-ae4c-93efdc3ab728" stdDeviation="5"/><feFlood flood-color="#505050" flood-opacity=".4"/><feComposite in2="uuid-15e7af12-57a2-4a23-ae4c-93efdc3ab728" operator="in"/><feComposite in="SourceGraphic"/></filter><filter id="A" data-name="drop-shadow-8" filterUnits="userSpaceOnUse"><feOffset dx="7" dy="7"/><feGaussianBlur result="uuid-ef7e7027-cc4c-47a6-a7a0-59231a0d0985" stdDeviation="5"/><feFlood flood-color="#505050" flood-opacity=".4"/><feComposite in2="uuid-ef7e7027-cc4c-47a6-a7a0-59231a0d0985" operator="in"/><feComposite in="SourceGraphic"/></filter><filter id="H" data-name="drop-shadow-9" filterUnits="userSpaceOnUse"><feOffset dx="7" dy="7"/><feGaussianBlur result="uuid-21360225-4d3e-48d1-9716-9987cbf944dd" stdDeviation="5"/><feFlood flood-color="#505050" flood-opacity=".4"/><feComposite in2="uuid-21360225-4d3e-48d1-9716-9987cbf944dd" operator="in"/><feComposite in="SourceGraphic"/></filter></defs><g data-name="Layer 1"><path fill="#101c2c" d="M0 0h335v335H0z"/><path fill="url(#e)" d="M0 0h335v335H0z" opacity=".9"/><g filter="url(#f)"><path fill="#deab6e" d="M317.4 42c2.2-1.6 9.5-7 9.3-6.6 0 0-4.7 9.1 7.7 22.5 1.2 1.3.4 3.7-1.7 5.1l-1.3.9c-2.1 1.4-4.6 1.3-5.4-.2-8-16.4-18.2-15.3-18.2-15.3-.5 0 7.2-4.8 9.5-6.3Z"/><path fill="url(#c)" d="M317.4 42c2.2-1.6 9.5-7 9.3-6.6 0 0-4.7 9.1 7.7 22.5 1.2 1.3.4 3.7-1.7 5.1l-1.3.9c-2.1 1.4-4.6 1.3-5.4-.2-8-16.4-18.2-15.3-18.2-15.3-.5 0 7.2-4.8 9.5-6.3Z" opacity=".1"/><circle cx="305.3" cy="24.2" r="24.1" fill="#f1bd75" transform="rotate(-.6 286.38 20.6)"/><path fill="url(#d)" d="M285.3 37.9c-7.5-11-4.7-26 6.3-33.6 11-7.5 26-4.7 33.6 6.3 3.8 5.6 5 12.3 3.7 18.5l-27.7 19c-6.2-1.1-12-4.5-15.9-10.2Z"/></g><g transform="rotate(-76.7 289.37 11.81)"><circle cx="289.3" cy="11.9" r="5.4" fill="url(#a)"/><circle cx="289.3" cy="11.9" r="5.3" fill="url(#g)" opacity=".4"/></g><path fill="#fff" d="M311.9 166.2c-4.4 0-7.9 3.5-7.9 7.9s.6 3.4 1.5 4.7l6.4 11.1 6.4-11.1c1-1.3 1.5-2.9 1.5-4.7 0-4.4-3.5-7.9-7.9-7.9Zm0 11.6c-1.9 0-3.5-1.6-3.5-3.5s1.6-3.5 3.5-3.5 3.5 1.6 3.5 3.5-1.6 3.5-3.5 3.5ZM235.3 335h-5.9l-.4.4-.3-.4-7.5-7.5-2.6-2.6-5.3-5.2-2.6-2.7-7.8-7.8-2.7-2.6-10.4-10.5-2.6-2.6-5.3-5.2-2.6-2.7-5.2-5.2-2.6-2.6-7.9-7.8-2.6-2.7-10.5-10.4-2.6-2.7-7.2-7.1-.6-.7-2.6-2.6-.6-.6-2.1-2-2.6-2.7-7.8-7.8-2.6-2.6-10.5-10.5-2.6-2.6-7.9-7.9-2.6-2.6-5.2-5.2-2.7-2.6-5.2-5.3-2.6-2.6L72 178.4l-2.6-2.7-7.8-7.8-2.6-2.6-5.3-5.3-2.6-2.6-5.2-5.2-2.7-2.6-10.4-10.5-2.6-2.6-7.9-7.9-2.6-2.6-5.2-5.2-.9-.9 3.3-3.3L235.3 335z"/><path fill="#d6d6d6" d="M235.3 335H234L16.3 117.3l.6-.7L235.3 335z"/><path fill="#c1c1c1" d="m9.7 113.1 7.08 7.08-.28.28-7.07-7.07z"/><circle cx="16.4" cy="120.3" r=".6" fill="#001628"/><path fill="#005a86" d="m15.3 110.8-4 4-.3.3-11 11v-8.4l11.1-11.1c.9-.9 2.3-.9 3.2 0l1 1c.9.9.9 2.3 0 3.2Z"/><path fill="url(#h)" d="m15.3 110.8-4 4-.3.3-11 11v-8.4l11.1-11.1c.9-.9 2.3-.9 3.2 0l1 1c.9.9.9 2.3 0 3.2Z" opacity=".5"/><g fill="none" stroke="#fff" stroke-miterlimit="10" stroke-width=".2" opacity=".5"><path d="M229.5 335h-.1l-2.6-2.6-2.6-2.7-2.6-2.6-2.6-2.6-2.7-2.6-2.6-2.6-2.6-2.6-2.6-2.7-2.6-2.6-2.6-2.6-2.7-2.6-2.6-2.6-2.6-2.6-2.6-2.7-2.6-2.6-2.6-2.6-2.7-2.6-2.6-2.6-2.6-2.6-2.6-2.7-2.6-2.6-2.6-2.6-2.7-2.6-2.6-2.6-2.6-2.6-2.6-2.7-2.6-2.6-2.6-2.6-2.7-2.6-2.6-2.6-2.6-2.6-2.6-2.7-2.6-2.6-2.6-2.6-2.7-2.6-2.6-2.6-2.6-2.6-2.6-2.7-2.6-2.6-2.6-2.6-2.7-2.6-2.6-2.6-2.6-2.6-2.6-2.7-2.6-2.6-2.7-2.6-2.6-2.6-2.6-2.6-2.6-2.6-2.6-2.7-2.6-2.6-2.6-2.6-2.7-2.6-2.6-2.6-2.6-2.7-2.6-2.6-2.6-2.6-2.6-2.6-2.7-2.6-2.6-2.6-2.6-2.6-2.6-2.7-2.6-2.6-2.6-2.6-2.7-2.6-2.6-2.6-2.6-2.6-2.6-2.7-2.6-2.6-2.7-2.6-2.6-2.6-2.6-2.6-2.6-2.7-2.6-2.6-2.6-2.6-2.7-2.6-2.6-2.6-2.6-2.6-2.6-2.7-2.6-2.6-2.6-2.6-2.6-2.6M12.3 123l2.6 2.6 2.6 2.6 2.6 2.7 2.6 2.6 2.6 2.6 2.7 2.6 2.6 2.6 2.6 2.6 2.6 2.7 2.6 2.6 2.6 2.6 2.7 2.6 2.6 2.6 2.6 2.6 2.6 2.6 2.6 2.7 2.6 2.6 2.7 2.6 2.6 2.6 2.6 2.6 2.6 2.7 2.6 2.6 2.6 2.6 2.7 2.6 2.6 2.6 2.6 2.6 2.6 2.6 2.6 2.7 2.6 2.6 2.7 2.6 2.6 2.6 2.6 2.6 2.6 2.7 2.6 2.6 2.6 2.6 2.7 2.6 2.6 2.6 2.6 2.6 2.6 2.6 2.6 2.7 2.6 2.6 2.7 2.6 2.6 2.6 2.6 2.6 2.6 2.7 2.6 2.6 2.1 2 .5.6 2.7 2.6.6.7 2 1.9 2.6 2.6 2.6 2.7 2.6 2.6 2.6 2.6 2.7 2.6 2.6 2.6 2.6 2.6 2.6 2.6 2.6 2.7 2.6 2.6 2.7 2.6 2.6 2.6 2.6 2.6 2.6 2.7 2.6 2.6 2.6 2.6 2.7 2.6 2.6 2.6 2.6 2.6 2.6 2.6 2.6 2.7 2.6 2.6 2.7 2.6 2.6 2.6 2.6 2.6 2.6 2.6 2.6 2.7 2.6 2.6 2.7 2.6 2.6 2.6 2.6 2.6 2.6 2.7h.1M9.7 125.6l2.6 2.6 2.6 2.6 2.6 2.6 2.6 2.7 2.6 2.6 2.7 2.6 2.6 2.6 2.6 2.6 2.6 2.6 2.6 2.7 2.6 2.6 2.7 2.6 2.6 2.6 2.6 2.6 2.6 2.6 2.6 2.7 2.6 2.6 2.7 2.6 2.6 2.6 2.6 2.6 2.6 2.6 2.6 2.7 2.6 2.6 2.7 2.6 2.6 2.6 2.6 2.6 2.6 2.6 2.6 2.7 2.6 2.6 2.7 2.6 2.6 2.6 2.6 2.6 2.6 2.6 2.6 2.7 2.6 2.6 2.7 2.6 2.6 2.6 2.6 2.6 2.6 2.6 2.6 2.7 2.7 2.6 2.6 2.6 2.6 2.6 2.6 2.6 2.6 2.7 2.6 2.6 2.1 2 .6.6 2.6 2.6.6.7 2 1.9 2.6 2.6 2.6 2.6 2.6 2.7 2.7 2.6 2.6 2.6 2.6 2.6 2.6 2.6 2.6 2.7 2.6 2.6 2.6 2.6 2.7 2.6 2.6 2.6 2.6 2.6 2.6 2.7 2.6 2.6 2.7 2.6 2.6 2.6 2.6 2.6 2.6 2.6 2.6 2.6 2.6 2.7 2.7 2.6 2.6 2.6 2.6 2.6 2.6 2.6 2.6 2.7 2.6 2.6 2.6 2.6 2.7 2.6 2.6 2.6 2.6 2.6.1.1M7.1 128.2l2.6 2.6 2.6 2.6 2.6 2.6 2.6 2.7 2.7 2.6 2.6 2.6 2.6 2.6 2.6 2.6 2.6 2.6 2.6 2.7 2.7 2.6 2.6 2.6 2.6 2.6 2.6 2.6 2.6 2.6 2.6 2.7 2.6 2.6 2.7 2.6 2.6 2.6 2.6 2.6 2.6 2.6 2.6 2.7 2.6 2.6 2.7 2.6 2.6 2.6 2.6 2.6 2.6 2.6 2.6 2.7 2.7 2.6 2.6 2.6 2.6 2.6 2.6 2.6 2.6 2.6 2.6 2.7 2.7 2.6 2.6 2.6 2.6 2.6 2.6 2.6 2.6 2.6 2.6 2.7 2.7 2.6 2.6 2.6 2.6 2.6 2.6 2.6 2.6 2.7 2.6 2.6 2.1 2 .5.6 2.7 2.6.6.7 2 1.9 2.6 2.6 2.6 2.6 2.6 2.7 2.7 2.6 2.6 2.6 2.6 2.6 2.6 2.6 2.6 2.7 2.6 2.6 2.7 2.6 2.6 2.6 2.6 2.6 2.6 2.6 2.6 2.6 2.6 2.7 2.7 2.6 2.6 2.6 2.6 2.6 2.6 2.6 2.6 2.7 2.6 2.6 2.7 2.6 2.6 2.6 2.6 2.6 2.6 2.6 2.6 2.7 2.6 2.6 2.6 2.6 2.7 2.6 2.6 2.6.1.1M4.5 130.8C73 199 141 267 209.3 335.6M1.9 133.4C69 202 137 268 204.1 335.6M.2 137C66 204 133 269 198.9 335.7M193.4 335.3C129 270 65 206 .1 142M187.9 335C125 273 62 210 0 147.1M.2 135c4.9-4.8 9.7-9.8 14.6-14.6"/><path d="M0 140.6c5.9-5.8 11.7-11.7 17.5-17.5M-.2 146c7.8-5.7 12.7-14.4 20.3-20.4M22.7 128.3 1.8 149.2M25.3 130.9 4.4 151.8M27.9 133.5 7 154.4M30.6 136.1 9.6 157M33.2 138.7l-20.9 20.9M35.8 141.3l-20.9 20.9M38.4 144l-20.9 20.9M41 146.6l-20.9 20.9M43.6 149.2l-20.9 20.9M46.3 151.8l-21 20.9M48.9 154.4 28 175.3M51.5 157l-20.9 20.9M54.1 159.7l-20.9 20.9M56.7 162.3l-20.9 20.9M59.3 164.9l-20.9 20.9M62 167.5l-21 20.9M64.6 170.1 43.7 191M67.2 172.7l-20.9 20.9M69.8 175.4l-20.9 20.9M72.4 178l-20.9 20.9M75 180.6l-20.9 20.9M77.7 183.2l-21 20.9M80.3 185.8l-20.9 20.9M82.9 188.4 62 209.3M85.5 191.1 64.6 212M88.1 193.7l-20.9 20.9M90.7 196.3l-20.9 20.9M93.4 198.9l-21 20.9M96 201.5l-20.9 20.9M98.6 204.1 77.7 225M101.2 206.8l-20.9 20.9M103.8 209.4l-20.9 20.9M106.4 212l-20.9 20.9M109.1 214.6l-21 20.9M111.7 217.2l-20.9 20.9M114.3 219.8l-20.9 20.9M116.9 222.5 96 243.4M119.5 225.1 98.6 246M122.1 227.7l-20.9 20.9M124.8 230.3l-21 20.9M127.4 232.9l-20.9 20.9M130 235.5l-20.9 20.9M132.6 238.2l-20.9 20.9M135.2 240.8l-20.9 20.9M137.8 243.4l-20.9 20.9M140.5 246l-21 20.9M143.1 248.6l-20.9 20.9M145.7 251.2l-20.9 20.9M148.3 253.9l-20.9 20.9M150.9 256.5 130 277.4M153.5 259.1 132.6 280M156.2 261.7l-21 20.9M158.8 264.3l-20.9 20.9M161.4 266.9l-20.9 20.9M164 269.6l-20.9 20.9M166.6 272.2l-20.9 20.9M169.2 274.8l-20.9 20.9M171.9 277.4l-21 20.9M174.5 280l-20.9 20.9M177.1 282.6l-20.9 20.9M179.7 285.3l-20.9 20.9M182.3 287.9l-20.9 20.9M184.9 290.5 164 311.4M187.6 293.1l-21 20.9M190.2 295.7l-20.9 20.9M192.8 298.3l-20.9 20.9M195.4 301l-20.9 20.9M198 303.6l-20.9 20.9M200.6 306.2l-20.9 20.9M203.3 308.8l-20.9 20.9M205.9 311.4 185 332.3M208.5 314l-20.9 20.9M192.1 335.6c6.3-6.3 12.7-12.6 19-19M197.7 335.3c5.3-5.3 10.6-10.7 16-16M202.6 335.6l13.8-13.8M207.9 335.6c3.7-3.7 7.4-7.3 11.1-11.1M213.3 335.4l8.3-8.3M218.9 335l.1-.1 2.6-2.6 2.2-2.2.4-.4M226.8 332.4l-.4.4-2.2 2.2M229.4 335l-.4.4M0 147.1C63 210 125 272 187.9 335M182.7 335C131 284 81 232 28 179S10 162 .7 153M177.8 335.2C118 276 58 217-.3 157.2M172.4 335.1C115 277 57 220 .2 162.9M0 167.9 106.1 274l3.9 3.8 57.1 57.2M-.3 156.5l4.9-4.9M0 161.5l7.3-7.3M9.8 156.9l-9.5 9.4M12.4 159.5 2.1 169.8M15 162.1 4.8 172.4M17.6 164.7 7.4 175M20.2 167.3 10 177.6M22.9 170l-10.3 10.2M25.5 172.6l-10.3 10.2M28.1 175.2l-10.3 10.3M30.7 177.8l-10.2 10.3M33.3 180.4l-10.2 10.3M35.9 183l-10.2 10.3M38.6 185.7l-10.3 10.2M41.2 188.3l-10.3 10.2M43.8 190.9l-10.3 10.3M46.4 193.5l-10.2 10.3M49 196.1l-10.2 10.3M51.6 198.7 41.4 209M54.3 201.4 44 211.6M56.9 204l-10.3 10.2M59.5 206.6l-10.3 10.3M62.1 209.2l-10.2 10.3M64.7 211.8l-10.2 10.3M67.3 214.4l-10.2 10.3M70 217.1l-10.3 10.2M72.6 219.7l-10.3 10.2M75.2 222.3l-10.3 10.3M77.8 224.9l-10.2 10.3M80.4 227.5l-10.2 10.3M83 230.1l-10.2 10.3M85.7 232.8 75.4 243M88.3 235.4 78 245.6M90.9 238l-10.3 10.3M93.5 240.6l-10.2 10.3M96.1 243.2l-10.2 10.3M98.7 245.8l-10.2 10.3M101.4 248.5l-10.3 10.2M104 251.1l-10.3 10.2M106.6 253.7 96.3 264M109.2 256.3 99 266.6M111.8 258.9l-10.2 10.3M114.4 261.5l-10.2 10.3M117.1 264.2l-10.3 10.2M119.7 266.8 109.4 277M122.3 269.4 112 279.7M124.9 272l-10.2 10.3M127.5 274.6l-10.2 10.3M130.1 277.2l-10.2 10.3M132.8 279.9l-10.3 10.2M135.4 282.5l-10.3 10.2M138 285.1l-10.3 10.3M140.6 287.7 130.4 298M143.2 290.3 133 300.6M145.8 292.9l-10.2 10.3M148.5 295.6l-10.3 10.2M151.1 298.2l-10.3 10.2M153.7 300.8l-10.3 10.3M156.3 303.4l-10.2 10.3M158.9 306l-10.2 10.3M161.5 308.6l-10.2 10.3M164.2 311.3l-10.3 10.2M166.8 313.9l-10.3 10.2M169.4 316.5l-10.3 10.3M172 319.1l-10.2 10.3M174.6 321.7 164.4 332M177.2 324.3 167 334.6"/><path d="m171.8 335 .3-.2 2.6-2.6 2.6-2.6 2.4-2.5.2-.1M176.8 335.2l5.7-5.7M181.7 335.6l3.4-3.4M187.5 335l.1-.1.1-.1"/></g><path fill="#636363" d="m167.5 334.1-5.2-5.2-2.6-2.6-28.8-28.8-2.6-2.6-5.2-5.2-2.6-2.6-7.8-7.8-2-2-.7-.7-2.6-2.6-.6-.6-2-2-13.1-13.1-2.6-2.6-5.2-5.2-2.6-2.6-2.6-2.6-2.6-2.6-2.6-2.6-2.6-2.6-2.6-2.6-2.6-2.6-2.6-2.6L50 216.6l-2.6-2.6-2.6-2.6-2.6-2.6-13.1-13.1-2.6-2.6-2.6-2.6-13.1-13.1-2.6-2.6-2.6-2.6-2.6-2.6L.4 167H0l-.2-.3v.7l.2.2v1l166.7 166.7h1.7l-.9-.9Z"/><path fill="#353535" d="m167.5 334.1-5.2-5.2-2.6-2.6-28.8-28.8-2.6-2.6-5.2-5.2-2.6-2.6-7.8-7.8-2-2-.7-.7-2.6-2.6-.6-.6-2-2-13.1-13.1-2.6-2.6-5.2-5.2-2.6-2.6-2.6-2.6-2.6-2.6-2.6-2.6-2.6-2.6-2.6-2.6-2.6-2.6-2.6-2.6L50 216.6l-2.6-2.6-2.6-2.6-2.6-2.6-13.1-13.1-2.6-2.6-2.6-2.6-13.1-13.1-2.6-2.6-2.6-2.6-2.6-2.6L.4 167H0l-.2-.3v.7l.2.2 2.3 2.3 10.5 10.5 2.6 2.6 2.6 2.6 2.6 2.6 10.5 10.5 2.6 2.6 5.2 5.2 2.6 2.6L52 219.6l2.6 2.6 2.6 2.6 2.6 2.6 10.5 10.5 2.6 2.6 2.6 2.6 2.6 2.6 2.6 2.6 2.6 2.6 7.8 7.8 2.6 2.6 2.6 2.6 2.6 2.6 5.2 5.2 2 2 .6.6 2.6 2.6.7.7 2 1.9 2.6 2.6 2.6 2.6 2.6 2.6 10.5 10.5 2.6 2.6 2.6 2.6 2.6 2.6 13.1 13.1 2.6 2.6 2.6 2.6 2.6 2.6 7.8 7.8.5.5h.7l-.9-.9Z"/><path fill="none" stroke="url(#i)" stroke-miterlimit="10" stroke-width=".9" d="M10.9 108.5 0 119.5" opacity=".3"/><path fill="#eaeaea" d="m136.96 243.1 3.89 3.88-31.04 31.04-3.9-3.89z"/><path fill="url(#j)" d="M133.4 244h5.5v7.6h-5.5z" opacity=".2" transform="rotate(45 136.16 247.8)"/><g data-name="PRINT"><path fill="url(#b)" d="M29.6 13.9c0 .5-.2 1-.6 1.4l-6.3 6.3-6.8-3.9v-3.8c0-1.1.9-2 2-2s2 .9 2 2v4.9l6.3-6.3c.8-.8 2.1-.8 2.8 0 .4.4.6.9.6 1.4Z"/><path fill="url(#k)" d="M29 31.7c-.4.4-.9.6-1.4.6s-.5 0-.8-.2c-.2-.1-.5-.3-.6-.4l-2.1-2.1-4.1-4.1v4.9c0 1.1-.9 2-2 2s-2-.9-2-2v-3.8l6.8-3.9 4.2 4.2 2.1 2.1c.8.8.8 2.1 0 2.8Z"/><path fill="url(#l)" d="M22.4 22s0-.2-.2-.2l-1.7-1-4.6-2.6L12 16c-.2-.1-.5 0-.6.2V28.1c0 .3.2.5.5.5h.2l3.9-2.2 6.3-3.6s0-.1.1-.2v-.3Zm-9.6-4.7 3 1.7 4.9 2.8s.1 0 .1.1v.3s0 .2-.2.2l-4.9 2.8-3 1.7c-.2 0-.4 0-.5-.1V17.5c0-.2.2-.3.3-.3h.2Z"/><path fill="url(#m)" d="M19.5 22.2s0 .1-.1.2l-3.7 2.1-2.3 1.3H13V18.9c0-.1.1-.3.3-.3h.1l2.3 1.3 3.7 2.1s.1 0 .1.2v.1Z"/><path fill="url(#n)" d="m62.5 21.6-5.6-2.8-3.4-1.7c-.2-.1-.4 0-.5.2v9.5c.1.2.3.4.6.4h.4l3.2-1.8 2-1.1 3.5-1.9s.2-.1.2-.2V22s-.1-.2-.2-.2Zm-5.6 2.8-2.6 1.4c-.2 0-.3 0-.4-.1v-7.3c0-.2 0-.3.2-.3h.1l2.7 1.3 1 .5 3.4 1.7s.1 0 .2.2v.2s0 .1-.1.1l-4.3 2.3Z"/><path fill="url(#o)" d="m60.1 22-.1.1-3.2 1.7-2 1.1h-.3v-5.4c0-.1 0-.2.2-.2l2 1 3.3 1.6.1.1v.1Z"/><path fill="url(#p)" d="M38.5 17.2h-4.9v9.7H36v-3.2h2.5c2.3 0 4.1-1.4 4-3.4 0-1.9-1.8-3.2-4.1-3.2Zm-.2 4.6H36v-2.7h2.3c1.1 0 1.9.5 1.9 1.3s-.8 1.4-1.9 1.4Z"/><path fill="url(#q)" d="m51.8 27-7.7.1-.2-9.7h2.4l.1 7.8 5.3-.1.1 1.9z"/><path fill="url(#r)" d="m67.5 23.3.1 3.5h-2.4v-3.5l-4.3-6.1 2.7-.1 2.7 4.2 2.8-4.2 2.6-.1-4.2 6.3z"/><path fill="url(#s)" d="m81.9 27.2-1.6.1-4.1-4.5-1.7 1.6v2.9h-1.2l-.1-9.6h1.2l.1 5.3 5.4-5.4h1.6L77 22.1l4.9 5.1z"/><path fill="url(#t)" d="M88 17.3c-3 0-5.5 2.3-5.5 5.1 0 2.7 2.6 5 5.6 4.9 3 0 5.5-2.4 5.5-5.1 0-2.7-2.6-5-5.6-4.9Zm.4 9c-2.4.2-4.4-1.6-4.6-3.9a4.27 4.27 0 0 1 8.5-.1 4.2 4.2 0 0 1-3.9 4Z"/><path fill="url(#u)" d="M103.2 24.5c0 1.5-1.2 2.8-3.8 2.8-1.6 0-3.1-.5-4.3-1.5l.8-.9c1 .9 2.2 1.4 3.5 1.4 1.7 0 2.5-.9 2.5-1.7 0-1-1-1.4-2.9-1.8-2.2-.4-3.5-1-3.6-2.7 0-1.5 1.5-2.8 3.6-2.8 1.4 0 2.7.4 3.8 1.3l-.7.9c-.9-.8-2-1.2-3.1-1.2-1.3 0-2.3.8-2.3 1.7 0 1 1.1 1.3 2.9 1.7 2.1.4 3.5 1.1 3.6 2.8Z"/><path fill="url(#v)" d="M116 27.2h-1.2l-.1-7.3-3.9 6.8-4.1-6.7.1 7.3-1.3.1-.1-9.7h1.3l4 6.7 4-6.8h1.2l.1 9.6z"/><path fill="url(#w)" d="M123.7 17.3c-3 0-5.5 2.3-5.5 5.1 0 2.7 2.6 5 5.6 4.9 3 0 5.5-2.4 5.5-5.1 0-2.7-2.6-5-5.6-4.9Zm.4 9c-2.4.2-4.4-1.6-4.6-3.9a4.27 4.27 0 0 1 8.5-.1 4.2 4.2 0 0 1-3.9 4Z"/><path fill="url(#x)" d="M138.9 24.5c0 1.5-1.3 2.8-3.8 2.8-1.5 0-2.9-.4-4.1-1.3l-.2-.2.8-.9c.2.2.3.3.5.4.9.6 1.9 1 3 .9 1.7 0 2.5-.9 2.5-1.7 0-.8-.6-1.2-1.6-1.5-.3-.1-.7-.2-1.2-.3h-.2c-2.2-.4-3.5-1-3.6-2.7 0-1.5 1.5-2.8 3.6-2.8 1.4 0 2.7.4 3.8 1.3l-.7.9c-.9-.8-2-1.2-3.1-1.2-1.3 0-2.3.8-2.3 1.7 0 1 1.1 1.3 2.9 1.7.4 0 .8.2 1.1.3.4.1.7.2 1 .4.9.4 1.5 1.1 1.5 2.1Z"/></g><path fill="url(#y)" d="M166.3 335H0V168.7L166.3 335z"/><path fill="url(#z)" d="M108.3 278.4 51.7 335h-6.4l59.8-59.8 3.2 3.2z"/><g filter="url(#A)"><path fill="#deab6e" d="M43.8 201.7c-5.2-3.9-22.8-16.9-22.4-15.8 0 0 11.3 21.8-18.5 54C.1 243 2 248.7 7 252.1l3 2.1c5.1 3.5 11.1 3.2 12.9-.6 19.3-39.4 43.7-36.8 43.7-36.8 1.1 0-17.3-11.6-22.9-15.1Z"/><path fill="url(#B)" d="M43.8 201.7c-5.2-3.9-22.8-16.9-22.4-15.8 0 0 11.3 21.8-18.5 54C.1 243 2 248.7 7 252.1l3 2.1c5.1 3.5 11.1 3.2 12.9-.6 19.3-39.4 43.7-36.8 43.7-36.8 1.1 0-17.3-11.6-22.9-15.1Z" opacity=".1"/><circle cx="73" cy="159" r="58" fill="#f1bd75" transform="rotate(-89.4 73.06 159)"/><path fill="url(#C)" d="M120.9 191.7c18.1-26.4 11.3-62.5-15.1-80.6C79.4 93 43.3 99.8 25.2 126.2c-9.2 13.5-12 29.5-8.9 44.4l66.6 45.5a57.97 57.97 0 0 0 38.1-24.4Z"/></g><circle cx="73.2" cy="159" r="54.2" fill="url(#D)"/><path fill="url(#E)" d="M81.4 189.1v6.1c0 1.5-1.3 2.8-2.8 2.8H64.9c-1.5 0-2.8-1.3-2.8-2.8v-13.7c0-1.5 1.3-2.8 2.8-2.8h6.2c.4 0 .8.3.8.8s-.3.8-.8.8h-5.9c-.9 0-1.7.8-1.7 1.7v13c0 .9.8 1.7 1.7 1.7h13c.9 0 1.7-.8 1.7-1.7v-5.8c0-.4.3-.8.8-.8.4 0 .8.3.8.8Z"/><path fill="url(#F)" d="m81.9 182.7-4.5-4.5.3-.3c1.2-1.2 3.3-1.2 4.5 0 1.2 1.2 1.2 3.3 0 4.5l-.3.3Z"/><path fill="url(#G)" d="m81.1 183.5-6.8 6.8H74l-4.4.6c-.2 0-.5-.2-.5-.5l.6-4.4v-.3l6.8-6.8 4.5 4.5Z"/><g filter="url(#H)"><path fill="url(#I)" d="M334 307.6c.4 6.2 1.5 26.1.8 28 0 .1-.1.2-.2.1 0 0-18-22.1-85.4-15.7h-1.1c-6 0-10.9-4.7-10.9-10.6v-3.7c0-6.3 5.6-11.2 12-10.6 67.4 6.5 85.4-15.7 85.4-15.7s.1 0 .2.1c.7 1.9-.5 21.8-.8 28Z"/><path fill="url(#J)" d="M334 307.6c.4 6.2 1.5 26.1.8 28 0 .1-.1.2-.2.1 0 0-18-22.1-85.4-15.7h-1.1c-6 0-10.9-4.7-10.9-10.6v-3.7c0-6.3 5.6-11.2 12-10.6 67.4 6.5 85.4-15.7 85.4-15.7s.1 0 .2.1c.7 1.9-.5 21.8-.8 28Z" opacity=".1"/><path fill="url(#K)" d="M334.8 335.6c-.2-.3-.4-.5-.6-.8 0 0 0-.1-.1-.2l-.9-1.2c-.3-.3-.5-.7-.7-1l-.6-.9c-.2-.3-.4-.6-.6-1l-.3-.5c-.2-.2-.3-.5-.5-.7-.1-.2-.3-.5-.4-.7-.1-.2-.3-.5-.4-.7 0-.1-.2-.3-.2-.5-.2-.3-.3-.6-.5-.9 0-.1-.1-.3-.2-.4-.2-.3-.3-.6-.4-.9v-.2c-.2-.4-.3-.8-.5-1.1-.2-.4-.3-.8-.5-1.2-.1-.3-.2-.5-.3-.8 0-.2-.2-.5-.3-.7 0-.1 0-.3-.1-.4-.1-.4-.2-.7-.4-1.1-.1-.5-.3-.9-.4-1.4v-.1l-.3-1.3c-.2-.7-.3-1.4-.4-2 0-.3-.1-.6-.2-.9 0-.5-.1-1-.2-1.5 0-.5-.1-.9-.1-1.4v-6c0-.5 0-.9.1-1.4 0-.5.1-1 .2-1.5 0-.3 0-.6.2-.9.1-.7.2-1.3.4-2l.3-1.3v-.1c.1-.5.3-.9.4-1.4 0-.3.2-.6.3-1 0-.2.1-.4.2-.6 0-.2.1-.4.2-.6 0-.3.2-.6.3-.9.2-.4.3-.9.5-1.3.1-.3.3-.6.4-.9 0-.1.1-.3.2-.4v-.2c.2-.4.4-.9.6-1.3.2-.3.3-.6.5-.9 0-.2.2-.3.2-.5.1-.2.3-.5.4-.7.1-.2.3-.5.4-.7.1-.2.3-.5.5-.7l.3-.5.6-.9c.1-.2.3-.5.5-.7 0 0 0-.1.1-.2.3-.4.6-.8.8-1.2l.9-1.2s0-.1.1-.2c.2-.3.4-.5.6-.8.7 1.9-.5 21.8-.8 28 .4 6.2 1.5 26.1.8 28Z"/></g><g transform="rotate(-76.7 123.8 117.57)"><circle cx="123.8" cy="117.6" r="15.3" fill="#ecaf0b"/><circle cx="123.8" cy="117.6" r="15" fill="url(#L)" opacity=".4"/></g></g></svg>