<svg xmlns="http://www.w3.org/2000/svg" width="335" height="335" data-name="Layer 1"><path fill="#f2f2f2" d="M335 0v335H3.9a57 57 0 0 1-3.9-3.3V0h335Z"/><path fill="#171d29" d="M0 164.3c5.5 11.4 16.6 30.8 37.3 48.2 7.1 6 32.3 26.6 68.8 31.8 39.6 5.6 44.5-13.7 85.2-12 50.5 2 87.2 33.6 98.1 43A184.2 184.2 0 0 1 335 335V0H0v164.3Z"/><path fill="#e4e4e4" d="M111.5 179.4c.5 0 1 0 1.5.1.3 0 .6 0 .9.1.1-.3.2-.5.3-.8-1-.3-1.9-.2-2.7.6Z"/><path fill="#e4e4e4" d="M105.7 188c2.5 1.7 3.9 4.9 6.1 6.8 0-.7 0-1.3-.1-2 0-.2.1-.4.2-.6.7-.8 1.5-1.7 2.3-2.5 1.5-1.4 3.1-2.7 4.6-4 .4-.3 1-.5 1.5-.7 0-.1-.2-.3-.3-.5 0 0 0-.1-.1-.2-.3-1.7-.6-3.4-.9-5.2h-1.6c-.3 0-.6.2-.7.4-.8 1.5-1.6 3-2.4 4.4-.1.2-.2.4-.3.5-.7 1.7-1.4 3.4-2.2 5.1-.7.4-1.1-.2-1.5-.5-.1-.1 0-.7 0-1 0-.4.2-.8.4-1.2.2-.6.5-1.2.7-1.8l3.1-7.1c-.1.2-.3.3-.4.5-1.1-.2-2.2-.3-3.2-.5-.2 0-.3-.1-.5-.2-.4-.1-.7-.3-1.1-.4-.2 0-.4-.2-.5-.2-1.9-.7-1.9-.8-1.8-3v-.9c-.7 1-.5 2.8.5 4-.1 0-.3.2-.4.3-2.3 2-4 4.4-5.6 7-.2.3-.3.7-.5 1 1.6.6 3.1 1.4 4.6 2.3Zm8.5-9.2c0 .3-.2.5-.3.8-.3 0-.6 0-.9-.1-.5 0-1 0-1.5-.1a3 3 0 0 1 2.7-.6Z"/><path fill="#122d66" d="M127.6 123.1c-.2 0-.5 0-.6-.1l-.3-1c-.5 0-1.1-.2-1.6-.3-1.3-.1-2.6-.3-3.8-.4 0 .1 0 .2-.1.3-.2.4-.5.6-.8.9-.3.3-.7.5-.9.7-.2 0-.4-.1-.5-.2v1.4c0 1.4.4 2.6 1.7 3.2.2.1.4.5.6.7 1 .9 2 .6 3.1.3s2.1-.8 3.2-1.2l.4-.4c-.2-.3-.5-.5-.7-.8-1-.3-1.1-.6-1-1.6v-.4c.1-1.1 1-.9 1.6-1.1h.3v-.4h-.5Zm-.8 4c-.2.1-.5.3-.7.5-1 .4-2 .8-3 1-1.2.3-1.9-.4-2.3-1.6-.5-1.9-.3-3.7.8-5.5.6.9 1.2 1.7 1.8 2.6.4.5.7 1 1.2 1.4.7.6 1.4 1 2.2 1.6Z"/><path fill="#f0d37e" d="M229 131.1v.8c-.6 1.8-.8 3.6.2 5.3l-6.3.9c-.9-1-2.2-1.8-2.6-3.3v-.5c1.5.8 2.4.6 2.8-.6.2-.7.3-1.4.5-2 .9-.7 1.9-1.4 2.8-2v.3c.8 1.8.8 1.8 2.4 1.2Z"/><path fill="#080707" d="M230.5 139.6c-.2.2-.4.4-.5.6h-2.5c-.1-.1-.2-.3-.3-.3l-3.6-.9-.2-.2-.4-.4v-.4l6.3-.9c-1-1.8-.8-3.6-.4-5.3.2.2.3.4.5.6l1.2 1.5c1.4 1.9 1.2 3.7 0 5.6Z"/><path fill="#807d74" d="m213.5 234.3-.2-.2h-.5c-.6 0-1.2.2-1.8.2-.2 0-.3-.3-.5-.4.2-.2.4-.4.6-.5.3-.1.6 0 .9 0 .6-.7 1-.2 1.5.2.4.2.8.3 1.2.5l-.6-.6c-.4-.3-.7-.7-1.1-1h-.2c-.6-.3-1.2-.5-1.8-.8-.9-.5-1.7-1.1-2.6-1.6-.6-.5-1.3-.8-1.7-1.4-.4-.4-.7-.6-1-.5 0 0 .2 0 .2-.1-.3-1-.6-1.9-.9-2.6-1.2.1-2.4.3-3.6.4-.2 0-.4-.2-.7-.2 0-.1-.1-.3-.2-.4l.2-.2c-.6-.9-1-1.9-.9-3 0-.2.1-.3.2-.4-.2-.5-.3-1-.5-1.6-.7.2-1 0-1.3-.8-.8-2-1.9-3.8-1.6-6.1 0-.2 0-.4-.1-.5-1.3-2.7-1.8-5.7-2.6-8.6-.1-.5-.2-1.2 0-1.7.4-1.2-.1-2-.7-2.8.4 1.3.7 2.5.2 3.8v.3c.6 2.4 1.2 4.8 1.9 7.1.4 1.4 1.2 2.6 1 4.2 0 .3 0 .6.2.9.6 1.4 1.1 2.8 1.7 4.1 0 .2.3.4.5.4.7 0 .8.4.8 1v1.5c.1 2.3.4 4.6 0 6.9-.3 2 .4 3.2 2.2 3.7.7.2 1.4.2 2.1.5 2 .9 4.1 1.1 6.2 1h4c-.1 0-.2-.2-.3-.3Zm-7.8-4.3c0 .1-.1.2-.2.4 0-.1.1-.2.2-.4Zm-.8-1.6h-.1.1Zm-.4.2h.1Zm-.5-1.4c-.6.6-1.7.7-2.3 0h2.3Z"/><path fill="#f0d37e" d="M221.2 123.7c0 1.7-.2 3.5-1.1 5l-1.5 2.4c0 .1-.2.2-.2.3l-.2.2c0-.1-.1-.3-.2-.5 0-.3-.2-.5-.3-.8 0-.1 0-.2.1-.3.8-.9.8-.9 0-1.9 0-.1-.1-.2-.2-.4v-.1h.2c.9-.2 1-.3.6-1.2-.2.3-.3.5-.5.8-.2 0-.3-.1-.5-.2-.3-.3-.5-.5-.8-.9.1-.4.3-.8.5-1.3l.2-.2.2-.2c0-.2.1-.4.2-.6 0-.1.2-.2.3-.3h.9c.3 0 .6 0 .9.1 0-.1 0-.3.1-.4-.7-.3-1.4-.6-2-.9.1-.6.2-1.2.4-1.9.2 0 .4.2.7.3.4.3 1.1.6 1.1 1 0 1 .7 1.4 1.3 1.8Z"/><path fill="#080707" d="M196.3 134.7h.4c.7.5 1.5 1 2.2 1.5.2.1.5.2.8.2.6 0 .7.2.5.7v.9c0 .7-.1 1.3-.2 2h-.2l-.5-.4c0 1 0 1.6.9 1.8h.3l-.6.6h-2.4l-.6-.3c.2-.3.3-.6.5-.9h-1.7c.2-.3.4-.3.5-.5.1-.1.1-.4.2-.6l-.5-.3h-.7l-.4.2-.2-.3.5-.2.5-.2h.2c.5-.3.8-.6.2-1.1.2-.2.4-.4.7-.6l-.2-.9-.8.3h-.2v-.3c.9 0 .7-1 1-1.6ZM199.9 221.5l-.5-1.6 5.3-.9h1.4v2.5h-.2l-.2.2v.2l-.5.2c-1.5.7-3 .5-4.5 0-.3 0-.5-.4-.8-.6ZM230.3 127.6c-.4 1.2-.8 2.3-1.2 3.5-1.6.7-1.7.7-2.4-1.2 0 0 0-.2-.1-.3 0-.1-.1-.3-.2-.4 1.2-.6 2.5-1.2 3.7-1.9 0 0 .2.1.2.2Z"/><path fill="#807d74" d="M208.3 230c-.6-.5-1.3-.8-1.7-1.4-.4-.4-.7-.6-1-.5 0 0 .2 0 .2-.1-.3-1-.6-1.9-.9-2.6-1.2.1-2.4.3-3.6.4-.2 0-.4-.2-.7-.2 0-.1-.1-.3-.2-.4l.2-.2c1.2 1 2.5.7 3.8.1 1-.5 1.4-2.2.8-3 .2 0 .3-.1.5-.2 0 .9 0 1.8-.3 2.8-.3.8-.3 1.9.5 2.7.8.8 1.6 1.8 2.4 2.7Z"/><path fill="#4f453f" d="M230.4 115.3c-.1.2-.2.4-.2.6l-.2-.2c.3-.7.8-1.5-.2-2-1.9-.9-3.7-2.2-5.9-2.1.3-.1.5-.3.8-.3 2 .2 3.7 1.4 5.4 2.3.6.3.7 1 .3 1.7Z"/><path fill="#807d74" d="M206.2 219.5v-.6c.5-.1 1.2-.3 1.9-.4-.3-1.5-.6-3-.9-4.4l.4.4c.2 1 .4 2.1.7 3.1.3 1-.1 1.3-.9 1.4-.4 0-.8.3-1.2.4Z"/><path fill="#f0d37e" d="M195.5 140.5h1.7c-.2.5-.3.8-.5 1.1-.9.3-1.4 0-1.7-.8l.4-.2ZM195.3 136.6H195.9l-.4-.4c-.3.5-.5 1-.8 1.5l-.4.2-.3-.4c-.2-.9.2-1.4 1.4-1.6v.2s-.2.1-.3.2l.3.2Z"/><path fill="#807d74" d="M194.6 137.9c.3-.5.5-1 .8-1.5l.4.4h-.4c.2 0 .5-.2.8-.3l.2.9c-.3.2-.5.4-.7.5-.4 0-.8.1-1.2.2ZM195.3 136.3v-.2c0-.4-.2-.7-.2-1.1.4 0 .8-.2 1.2-.3-.3.6 0 1.5-1 1.5Z"/><path fill="#312621" d="m217.8 122.5 2 .9v.4c-.4 0-.7 0-1-.1h-.9v-1.1Z"/><path fill="#807d74" d="M195 140.7c-1-.3-.7-1.3-1.1-2 .2 0 .4.1.6.2v.2c0 .1.1.2.2.3-.3.5 0 .8.4.6.4 0 .8-.4 1.1-.6 0 .2 0 .4-.2.6-.1.2-.3.2-.5.4l-.4.2Z"/><path fill="#f0d37e" d="m213.9 234.6-.3-.3H213.3c0-.2 0-.4.1-.7l1.2.5v.7h-.7Z"/><path fill="#807d74" d="M217.5 127c-.1 0-.2.2-.3.2-1-.6-1-1.3 0-2.4l-.5 1.3.8.9ZM211 231.5l-.1.1c-.9-.5-1.7-1.1-2.6-1.6.9.5 1.8 1 2.8 1.5ZM212.8 232.4h-.2c-.6-.3-1.2-.5-1.8-.8h.1c.4 0 .7 0 1.1.2.3.1.5.4.8.6Z"/><path fill="#4f453f" d="M199.1 141.8h.6c-.4.3-.9.5-1.3.8l.7-.9Z"/><path fill="#f0d37e" d="M194.4 139.1c-.2 0-.4-.1-.6-.2 0-.1-.1-.3-.2-.4l.2-.2.5.8ZM195.8 137.8c.7.5.3.8-.2 1.1l.2-1.1Z"/><path fill="#4f453f" d="M197.3 141.9ZM196.8 143.8l.8-.6-.9.6Z"/><path fill="#807d74" d="m217.6 123.9-.2.6.2-.6Z"/><path fill="#4f453f" d="m197.6 143.2.5-.4-.5.4Z"/><path fill="#f0d37e" d="m195.5 138.8-.5.2.5-.2ZM193.9 137.8l.3.4-.3-.4ZM217.8 122.9Z"/><path fill="#4f453f" d="M198.1 142.9Z"/><path fill="#807d74" d="M205.7 221.7ZM205.9 221.6ZM217.5 124.5l-.2.2.2-.2ZM217.3 124.7l-.2.2.2-.2ZM196.6 134.6v.1Z"/><path fill="#080707" d="m126 162.8-.3 1.2c0 .2-.1.4-.2.5-.5-.2-.5 0-.5.5-.4.5-.8.9-1.2 1.4 0-.2 0-.5.2-.7.3-.7.7-1.4 1-2.1.5-1.4.2-2.6-.9-3.6-.5.4-1 .9-1.4 1.4-.2.2-.3.5-.3.8 0 .6 0 1.2.1 1.8l-.3 1.9-1.8 6.6c-.4.8-.7 1.6-1.1 2.3-.3.5-.6 1.1-.9 1.6-.4.7-.8 1.4-1.3 2.1h2v.4h-1.6c-.3 0-.6.2-.7.4-.8 1.5-1.6 3-2.4 4.4-.1.2-.2.4-.3.5-.7 1.7-1.4 3.4-2.2 5.1-.7.4-1.1-.2-1.5-.5-.1-.1 0-.7 0-1 0-.4.2-.8.4-1.2.2-.6.5-1.2.7-1.8l3.1-7.1c.2-.2.5-.5.6-.8 1.4-2.1 2.6-4.4 3.1-7 .3-.8.6-1.6.8-2.5.3-1.4.5-2.8.7-4.1v-1c0-.8-.5-.6-.9-.6s-.8 0-1.2.1c0-.2-.1-.4-.2-.5-.2-.5-.5-.9-.7-1.4v-.6l.9-.3c1.3-.5 2.5-1.4 4-1.2h.5c.3 0 .6.2.9.3h.1c.2 0 .3 0 .5.1 0 .1.1.3.2.4 0 0 0 .1.2.2 0 .2.2.4.3.7.3.8.7 1.5 1 2.3-.3.5 0 .5.3.6Z"/><path fill="#4f453f" d="m191.7 187.5.2-.4 1.2 12.4c-.1 0-.2-.2-.3-.3-.3-3.9-.7-7.8-1-11.7Z"/><path fill="#e4e4e4" d="M119.9 163.8c-.2 1.4-.4 2.7-.7 4.1-.2.9-.5 1.7-.8 2.5-.5 2.6-1.7 4.9-3.1 7-.2.3-.4.5-.6.8-.1.2-.3.3-.4.5-1.1-.2-2.2-.3-3.2-.5-.2 0-.3-.1-.5-.2-.4-.1-.7-.3-1.1-.4-.2 0-.4-.2-.5-.2-1.9-.7-1.9-.8-1.8-3v-1.3c.5-1 1.3-1.5 2.2-1.9.4-.2.8-.4 1.1-.6 1.4-.7 2.4-1.7 3.1-3.1.6-1.1 1.2-2.3 1.8-3.4.4-1.3 1.5-1.4 2.4-1.6.4 0 .8-.2 1.2-.1.4 0 .9-.2.9.6v1Z"/><path fill="#131214" d="m114.9 153.8-.2.2c-.1 0-.2 0-.3-.1v-.3h.6v.2Z"/><path fill="#312621" d="M115.4 156.1h-.2v-.1h.2v.1Z"/><path fill="#fcf7e5" d="M207.2 214.1v-.5c-.3-2.1-.8-4.2-1-6.3-.2-3.8-.4-7.5-1.6-11.1v-1.4c0-.9.2-1.8 0-2.6-.4-1.7-.4-3.3-.2-5v-.9c.1-.8.3-1.7.3-2.5 0-1.4 0-2.8-.1-4.2v-.9c0-.2 0-.4.1-.6 0-.2 0-.4.1-.6v-.5c-.1 0-.2-.1-.3-.2-.2-.1-.3-.3-.5-.4-.2-.1-.3-.2-.5-.3a7 7 0 0 1-.8-1c-.3 0-.5-.2-.8-.3-.7-.4-1.4-.7-2-1v7.4c0 .7-.2 1-.9 1-.6-.2-1.3-.3-1.9-.4 0-.3-.1-.6-.2-.9v-8.2c0-.2-.2-.5-.4-.6-1-.5-1.9-1-2.9-1.5v-.3c-.1-1.5-.3-3.1-.4-4.6 0-.5-.3-.5-.7-.5-1.5 0-1.6-.2-1.7-1.8v-.3c0-2 .1-4 0-5.9 0-.7-.4-1.4-.5-2 0-.3-.3-.6-.2-.8.3-.9 0-1.6-.2-2.4-.1-.5-.3-1.2-.1-1.7.4-1.3 1.1-2.5 1.6-3.7 0-.1.3-.1.4-.2.3-.4.5-.9.8-1.3.1-.4.1-.5-.2-.5-1.3-.3-2.7-.5-4-.7-3.3-1.4-6.7-2.9-10-4.3-1.9-.6-3.9-1.1-5.8-1.7-.6-.2-1.1-.6-1.7-1-1.4-.9-2.7-1.8-4.2-2.5-.5-.3-1-.5-1.2-1-.5-1-1.2-1.5-2.1-1.9l-3.9-1.5c-3.1-1.1-6.1-2.2-9.2-3.2-1.5-.5-3-.5-3.8 1.4h-.2l-.2.2c0 .1-.1.2-.2.4l-.3 2.6v.7c0 .4 0 .7.1 1.1v.5c0 .3.1.7.2 1 .3.2.6.5.9.8l.2.2c.1.1.2.2.3.4.2.1.3.2.5.4.5.4 1 .7 1.5 1.1.1 0 .2.1.3.2 0 0 .1.2.2.2.8.6 1.7 1.2 2.5 1.8l.2.2c.4.3.9.6 1.4.9.3.3.7.6 1 .9.9.6 1.7 1.2 2.6 1.9 1.2.5 2.4 1.1 3.6 1.6.2.1.5.2.7.4.6.2 1.1.4 1.7.5l2 1.7c.8.5 1.6 1.1 2.4 1.7.2.2.5.4.7.5.2.2.5.4.7.6.2.2.4.4.7.5.2.2.3.4.5.5.2 0 .4.2.6.3 1.4 1.1 2.7 2.2 4.1 3.3.2.2.5.3.7.4 0 0 .1 0 .2.2 0 0 .1.2.2.3.1.2.2.3.3.5.2.1.3.2.5.4 0 0 0 .1.2.2l.2.2c.2 0 .4 0 .5.2 2 1.4 4 2.8 5.9 4.2l.9.6c.6.8 1.2 1.7 1.8 2.5 1.1 1.7 2.3 3.3 2.1 5.5-.4 4 1.3 7.6 2.2 11.4v.6c0 .4.1.7.2 1.1v.7l.6 2.9 1.2 12.4c.5.8 1.1 1.7.7 2.8-.2.5-.2 1.2 0 1.7.7 2.9 1.2 5.9 2.6 8.6 0 .2.2.4.1.5-.2 2.3.9 4.1 1.6 6.1.3.7.6 1 1.3.8 1.8-.3 3.5-.6 5.3-1h1.5c.7-.1 1.3-.3 2.1-.4-.3-1.5-.6-3-.9-4.4Zm-47.8-70.6h-.1Zm11.1 3.9Zm19.6 14.2-.2-.2c.1 0 .2.1.2.2Zm4.3 16.9s-.1-.2-.2-.2c0 0 .1 0 .2.1v.1Zm12.4 36.1v.1Z"/><path fill="#4f453f" d="M207.2 213.6c-.3-2.1-.8-4.2-1-6.3-.2-3.8-.4-7.5-1.5-11.1 0 0 .3.2.3.3.4 1.5.8 2.9 1 4.4.3 2.2.3 4.3.5 6.5v.4c.3 1.6.5 3.2.7 4.8v1Z"/><path fill="#21201f" d="m110.5 177.9-1.4-.2.2-.2 1.1.4Z"/><path fill="#fefefe" d="M121.2 128.5c1 .9 2 .6 3.1.3s2.1-.8 3.2-1.2c.3 0 .6.1.9 0 1.5 0 2.9.5 4.2 1.2-.1.9-.3 1.8-.4 2.8-4.8.5-9.9.8-14.8 2.9-.6-3.9-2.4-6.8-4.9-9.3l-1.4-2 .2-.3h1.2c1.6.2 3.2.6 4.9.7.8 0 1 .4 1 1.2 0 2.1.9 3.1 2.8 3.6Z"/><path fill="#807d74" d="M142.6 127.5c.1-.2.3-.5.5-.8-.7-.2-1.3-.5-2-.7-1.2-.4-2.3-.9-3.5-1.3-.8-.3-1.5-.5-2.2-.8-.9-.5-1.9-.9-2.8-1.4-1.1 0-2.1 0-3.2-.2-.4.3-.8.6-1.2.8 0 0 0 .1-.1.2 0 .2 0 .3-.1.5h-.2c-.4.2-.7.3-1.2.5.3.2.6.3.8.5 0 .5-.2 1-.3 1.5.2.3.5.5.7.8-.1.1-.3.2-.4.4.3 0 .6.1.9.1 1.5 0 2.9.5 4.2 1.2h.5c.1 0 .2.1.3.2 0 0 .2 0 .3.1.7.2 1.3.3 2 .5.5.2.9.5 1.3.8l.2.2.2.2.2.2.2.2c.2.3.4.5.6.8.6.2 1.1.4 1.7.5.5 0 1-.1 1.5-.2.3 0 .7-.1 1.1-.2 0-.2-.1-.3-.2-.5-.5-1.2 0-2.3.5-3.3 0-.4.1-.7.2-1.1-.2 0-.3 0-.5.2Zm-5.2 2.3c-1-.2-1.9-.4-2.9-.8-1.4-.5-2.9-1.1-4.3-1.7-.2 0-.4-.2-.6-.2h1c1.6.6 3.2 1.2 4.8 1.7.4.1.9 0 1.3 0v-.3c.1.2.3.5.4.7l.2.2v.2l.1.1h-.2Z"/><path fill="#c67f17" d="M126.1 127.6c-1 .4-2 .8-3 1-1.2.3-1.9-.4-2.3-1.6-.5-1.9-.3-3.7.7-5.5.6.9 1.2 1.7 1.8 2.6 0 0-.2.2-.2.3.1 1.5.6 2.4 1.9 2.8.3 0 .6.3.9.4Z"/><path fill="#4f453f" d="M126.1 127.6c-.3-.1-.6-.3-.9-.4-1.3-.4-1.8-1.4-1.9-2.8 0 0 .1-.2.2-.3.4.5.7 1 1.2 1.4.7.6 1.4 1 2.2 1.6l-.7.5Z"/><path fill="#f0d37e" d="m127.8 123.9-1.2.5.8.5-.3 1.5c-.9-.3-1.1-.6-1-1.6v-.4c.1-1.1 1-.9 1.6-1.1v.5Z"/><path fill="#4f453f" d="M127.8 123.9v-.5h.3v.5h-.3Z"/><path fill="#807d74" d="M126.2 124.5v.4-.4Z"/><path fill="#cc1c19" d="M110.2 122.4Z"/><path fill="#4f453f" d="M127.6 123.1Z"/><path fill="#312621" d="M220.4 134.8c.4 1.5 1.6 2.3 2.6 3.3v.4c-.8-.7-1.6-1.5-2.4-2.2l-.2-.2v-.2h-.1l.2.2.2.2c.1.3.2.6.3 1l-.8-.8c-.8-1.4-.9-3.1-2.3-4.1-.1 0-.1-.3-.2-.5h.6c0 .9 1 1.5 1.8 1.2.4-.1.8-.3 1.2-.5-.1.2-.2.3-.3.5 0 0 0 .1.1.2 1-.8 2.1-1.6 3.1-2.5.3-.2.5-.5.8-.7.5-.3 1-.5 1.5-.8 0 .1.1.3.2.4-.9.7-1.9 1.4-2.8 2-.9.6-1.8 1.3-2.8 1.8s-.8.7-.5 1.3Z"/><path fill="#4f453f" d="M220.4 134.8c-.3-.6-.2-1 .5-1.3 1-.5 1.9-1.2 2.8-1.8-.2.7-.3 1.4-.5 2-.4 1.2-1.3 1.4-2.8.6v.5Z"/><path fill="#cb1917" d="m198.2 142.9.2-.2c.4-.3.9-.5 1.3-.8.2-.2.4-.3.6-.5.6-.4 1.2-.8 1.8-1.3l.3-.3 1.2-.8.7-.5.7-.4 1.2-.9c.3-.1.7-.2 1-.4l6.6-4.2c.6 1.6 1.3 3.2 1.9 4.8 0 .2.3.4.4.6v.5c.8 1.9 1.7 3.8 2.6 5.7.2.5.5.4.9.2 1-.4 2-.9 3.1-1 1.3-.1 2.7.1 4 .2l1.4.3c1.2.2 2.3.6 3.3 1.4.2.2.5.3 1 .5-.1-.8-.2-1.4-.3-2l.1-.1.3.6c.4.9.2 2.2 1.7 2.3l-.2.3-2.1 1.1c0-.5-.2-.9-.2-1.3-.2-1-1.2-1-1.9-1.3l-.4-.4c-1-.3-1.9-.7-2.9-1-2.9-.7-5.6-.6-8 1.7-.2 0-.4-.1-.6-.1-4.1.3-7.9 1.7-11.2 4.5-2.4 2-4.6 4.1-6.9 6.2-.1 0-.3-.1-.4-.2-.7-.4-1.4-.9-2-1.3-2.1-1.5-3.6-3.4-3.5-6.4.2-1.5.8-2.8 1.6-4l.4-.3.7-.6.9-.6.5-.4Z"/><path fill="#fcf7e5" d="M231.9 157.1c0-2.8-.2-5.7-.4-8.5v-.6c-.2-.4-.4-.8-.7-1.1-1-1-2.4-1.2-3.7-1.3-1.6-.1-3.2-.3-4.8-.3-.4 0-.9.4-1.3.6-.3.2-.6.3-.9.5-.2.1-.5.2-.7.3-.2 0-.3 0-.5-.1-.5 1.3-.2 2.5.4 3.7 0 .5 0 1.1.2 1.6.2 1.2.5 2.3.8 3.4.2.7.5 1.4.8 2.1-1.1.7-2 1.3-3 1.9v.2c.9-.5 1.8-1 2.6-1.5.3-.2.5-.3.7.1.2.5.1.9-.2 1.3-.3.4-.5.9-.8 1.4-.2.2-.4.6-.6.6-.1 0-.4-.3-.6-.5-.2-.2-.3-.4-.5-.5v.3l.9 1.5h.3l.2-.2s0 .1.1.2c.2.3.3.5.4.8.3.5.5 1.1.8 1.7V169.1c.2 1.5-.1 2-1.4 2.2v-.2c0-.1.1-.2.2-.4 0-.2 0-.4.1-.6-1.2.2-2.1-.3-3-1.2.3-.2.5-.4.7-.5-.5-.3-1.5.5-1.7-.8-.2 0-.3 0-.5-.2.3 3.6 5.3 6.6 8 4.5.6-.4 1.2-.7 1.9-1.1 1.5-1 3-2 4.4-3.1.4-.3.8-1 .9-1.6.1-1 0-2.1 0-3.1 0-.5 0-1 .1-1.5.2-1.6.5-3.1.5-4.7Zm-15 12.2v.1Zm6.8-6.2Z"/><path fill="#c9c8c8" d="m220 136.5.8.8 1.1 1.1.5.4c1.5 1.1 3.2 1.6 5 1.5h.3c.3 0 .6.1.9.2.6.2 1.1.4 1.7.6l.9 1.9 1 2.4-.2.2a8.9 8.9 0 0 0-4.6-1.9c-2.8-.6-5.6-1-8.2.8-.2-.5-.3-.8-.5-1.2-.8-1.7-1.7-3.4-2.5-5.2-.5-1.4-1.1-2.8-1.6-4.2-.2-.5-.3-1-.4-1.5l1-.7.7-.6c0 .3 0 .9.1 1 1 .6 1.4 1.6 1.8 2.7.4 1.1 1.2 1.7 2.3 1.7Z"/><path fill="#131214" d="M221.5 164.8c-.1 0-.2.1-.3.2-.2.3-.5.5-.7.8-.9 1.5-2.2 2.2-3.9 2-.2 0-.3 0-.5-.2-.2 0-.5-.2-.7-.3-.2-.5-.4-1-.7-1.4-.5-1-1.1-1.9-2.3-1.8-.1 0-.3-.2-.4-.3v-1.1h.2c-.3-.3-.6-.5-1-.8 0-.2.3-.5.3-.7l-.6-3.5c0-.7-.2-1-.9-.9.6-.2 1.1-.5 1.7-.5.7 0 1.5.2 2.2.3-.9.2-1.8.3-2.7.5.2 1.2.3 1.3 1 1.4v.2c-.3 0-.5.2-.8.3 0 .4.1.7.2 1l.3.6c0 1.2 0 1.2 1.2 1.1h2v.3c-.5 0-1.1.2-1.6.2-1 0-1.1.3-1 1.4.7 0 1.3.1 2 .2.4 0 .8.2 1.2.3v.1c-.4 0-.9.1-1.6.2.5.5.9 1 1.3 1.2 1.4.8 3.1 0 3.9-1.8l.3-1.7h.6c.2.3.3.5.4.8.3.5.5 1.1.8 1.7Z"/><path fill="#cb1917" d="m231.1 142.9-.9-1.9-.3-.8c.4.5.8 1 1.1 1.6.2.3.3.6.4 1l-.1.1h-.3Z"/><path fill="#312621" d="m230 140.3.3.8c-.6-.2-1.1-.4-1.7-.6-.3 0-.6-.1-.9-.2h2.2ZM229.6 145.3l.4.4-.4-.4Z"/><path fill="#cb1917" d="M232 143.6c0 .1.1.2.2.4l-.1.1c0-.1-.1-.2-.2-.4l.1-.1ZM231.9 143.7v-.3s0 .2.1.2l-.1.1ZM231.5 142.8v.2l-.1-.1.1-.1Z"/><path fill="#312621" d="M227.4 140.2c-1.8 0-3.5-.4-5-1.5.3 0 .6 0 .9.1l.2.2 3.6.9c.1 0 .2.2.3.3Z"/><path fill="#8e1212" d="M223.3 138.9c-.3 0-.6 0-.9-.1-.2-.2-.3-.3-.5-.4l-1.1-1.1c0-.3-.2-.6-.3-.9.8.7 1.6 1.4 2.4 2.2l.4.4ZM223.5 139.1l-.2-.2.2.2Z"/><path fill="#807d74" d="M205.7 230c0 .1-.1.2-.2.4 0-.1.1-.2.2-.4Zm-1-1.6h.1-.1Zm-.3.2h-.1Z"/><path fill="#c9c8c8" d="M205.2 222.1c.7.8.2 2.6-.8 3-1.3.6-2.5.8-3.8-.1-.6-.9-1-1.9-.9-3 0-.2.1-.3.2-.4.3.2.5.6.8.6 1.5.4 3 .6 4.5 0Z"/><path fill="#f0d37e" d="M212.7 234.2c-.6 0-1.2.2-1.8.2-.2 0-.4-.3-.5-.4.2-.2.4-.4.6-.5.3-.1.6 0 .9 0 .4.1.9.2.8.8Z"/><path fill="#e79d61" d="M212.7 234.2c0-.7-.4-.7-.8-.8.6-.7 1-.1 1.5.2 0 .2 0 .4-.1.7h-.5ZM213.4 234.3h.1-.1Z"/><path fill="#807d74" d="M220 136.5c-1.1 0-1.9-.6-2.3-1.7-.4-1.1-.9-2-1.8-2.7-.2-.1 0-.7-.1-1l.3-.4v-.2c0-.2 0-.4.2-.6.3-.6.6-1.3.9-1.9l.3-.2c0 .1.1.3.2.4q.7 1 0 1.9s0 .2-.1.3h-.2s0-.2 0 0c0-.1 0 0 0 0v1.5c0 .2 0 .4.2.5 1.4 1 1.5 2.7 2.3 4.1Z"/><path fill="#131214" d="M221.5 123.5s-.2 0-.3.1c-.6-.5-1.2-.8-1.3-1.8 0-.4-.7-.7-1.1-1 0 0 .2-.2.2-.3 1.7.3 2.2.9 2.5 3Z"/><path fill="#8e1212" d="m220.3 128.8-.1-.1c.9-1.5 1-3.3 1.1-5 .1 0 .2 0 .3-.1 0 1.9-.1 3.7-1.3 5.2ZM220.3 128.8v.7c-.2.3-.3.6-.5.9-.2.2-.3.4-.5.6l-.2.2h-.4l1.5-2.4.1.1Z"/><path fill="#e79d61" d="M217.8 127.6v-.4c.3-.3.4-.5.6-.8.4.9.3 1-.6 1.2Z"/><path fill="#4f453f" d="M217.5 130.4h.2c0 .3.2.5.3.8 0 .2.1.3.2.5v.2h-.6v-1.5Z"/><path fill="#131214" d="M218.7 131.1h.4l-.5.4-.1-.1.2-.3Z"/><path fill="#8e1212" d="m217.6 127.8-.3.2.3-.3v.1Z"/><path fill="#131214" d="M218.3 131.5h.1l.1.1-.2.2v-.2Z"/><path fill="#4f453f" d="M218.3 131.5v.2h-.1l.2-.2Z"/><path fill="#e0e0e0" d="M200 138c.5-.3 1-.5 1.5-.8v.3c-.4 1.1-1 2.2-1.5 3.1l-.2-.7c0-.7.1-1.3.2-2Z"/><path fill="#4f453f" d="m199.8 140 .2.7c.5-1 1-2.1 1.6-3.1h.3c-.8 1-1.3 2-1.3 3.4l1.4-.7c-.6.4-1.2.8-1.8 1.3-.1 0-.2 0-.3-.1l-.3-1.3h.2Z"/><path fill="#f0d37e" d="M196.1 139.6c-.4.2-.7.5-1.1.6-.5.1-.7-.1-.4-.6.1 0 .2 0 .4-.1h.7l.5.2ZM199.7 140l.3 1.3c-.8-.3-.9-.9-.9-1.8l.5.5Z"/><path fill="#807d74" d="m195.3 136.6-.3-.2s.2-.1.3-.2v.4ZM195.6 139.3Z"/><path fill="#fcf7e5" d="m202.1 140.2-1.4.7c0-1.3.4-2.4 1.3-3.3l5.6-1.7v.3c-.4.4-.9.8-1.4 1.2l-1.2.9-.7.4-.7.5-1.2.7-.3.3ZM211.1 130.6c1.8-.9 3.5-1.8 5.3-2.6v.2c-.3.7-.6 1.4-1 2.2l-2.6 2.7-.7-1.1c.5-.1 1.1-.2.9-1.1l-1.8-.2Z"/><path fill="#e0e0e0" d="m209.6 133.9.3-1.9c1 0 2 0 2.4 1.2l-1.9 1c-.2-.1-.5-.3-.7-.4Z"/><path fill="#b3afa1" d="M212.3 133.3c-.4-1.2-1.4-1.3-2.4-1.2l1.2-1.4 1.8.2c.2.9-.4 1-.9 1.1l.7 1.1-.5.2Z"/><path fill="#8e1212" d="M217.3 128c-.3.6-.6 1.3-.9 1.9 0 .2-.2.4-.3.6v.1l-.3.4-.7.6c0-.2-.1-.4 0-.5 0-.3.2-.5.3-.8.2-.3.5-.5.7-.7l1.3-1.6Z"/><path fill="#e4e4e4" d="M209.6 133.9c.2.1.5.3.7.4l-.2.2-1.9 1.4c.2-1.1.5-1.8 1.4-2Z"/><path fill="#e0e0e0" d="m210.2 134.5.2-.2-.2.2Z"/><path fill="#807d74" d="M204.7 219Z"/><path fill="#b3afa1" d="M159.4 143.5Z"/><path fill="#e0e0e0" d="M142.9 128.4c1.2-2 1.8-2.2 4.1-1.3l-.5 1.1-.2.2-.2.4c-.7.7-.5 1.7-.5 2.6l-1.2-.4-.4-.2-.2-.3-.8-1-.2-1.1Z"/><path fill="#807d74" d="M143 127.2Z"/><path fill="#cb1917" d="M230.7 127c-.1.2-.4.3-.6.4-1.2.6-2.5 1.2-3.7 1.9-.5.3-1 .5-1.5.8-.3.2-.5.5-.8.7-1 .8-2.1 1.6-3.1 2.5 0 0 0-.1-.1-.2 0-.2.2-.3.3-.5l.2-.2c.1 0 .2-.1.3-.2v-.2s.2-.1.2-.2.1-.3.2-.5c0-.2.1-.6 0-.7-.4-.4-.9-.8-1.3-1.2h-.6v-.7c1.1-1.6 1.4-3.4 1.3-5.2-.3-2.1-.8-2.7-2.5-3 0 .1-.2.2-.2.3-.2 0-.4-.2-.7-.3-.6-.4-.8-.9-.5-1.6.6-1.9 1.2-3.7 2.5-5.3 1-1.2 2.2-2.2 3.9-2.2 2.2 0 4 1.2 5.9 2.2 1 .5.5 1.3.2 2l.2.2c.4.6.9 1.2 1.3 1.9 0 0 .1.2.2.3.8.5 1.1 1.3 1.2 2.2.3 2.7-.9 4.8-2.2 6.9Z"/><path fill="#fcf7e5" d="M195.7 144.7c-.9 1.2-1.4 2.5-1.6 4-.1.3-.2.5-.3.8 0-1-.1-1.9-.2-2.9 0-.1 0-.2 0 0 0-.1 0 0 0 0 0 .3-.2.6-.2.9 0 1.3.1 2.6.3 3.9l.6 4.3c-1-.3-1.9-.6-2.8-1-.2 0-.5-.4-.5-.6-.2-.8-.4-1.7-.6-2.6 0-.5-.2-1 0-1.4.5-1.3 1.1-2.6 1.7-3.9.4-.4.7-.8 1.1-1.1.7-.5 1.6-.9 2.4-1.3.1 0 .8-.3.5.5l-.4.3Z"/><path fill="#080707" d="m195 140.7.4-.2-.4.2Z"/><path fill="#0b1f48" d="M115.4 156.1v-1.8c.9.3 1.9.6 2.8.9 1.7.5 3.3.9 5 1.4.9.2 1.6-.1 1.9-.9.7-1.7 1.7-2.6 3.4-2.7.4 0 .8-.7 1.2-1 .2-.1.5-.2.7-.2.6 0 1.2.2 1.8.3.2.6.5 1.2.7 1.9-.9.4-1.9.8-2.8 1.3-1.4.7-2.4 1.9-2.8 3.5-.2.8-.8.5-1.3.5-.8-.1-1.5-.3-2.2-.5-.7-.2-1.3-.4-2-.5-1.5-.2-2.7.7-4 1.2l-.9.3-1.2-2.1c-.2-.4-.3-1-.4-1.5Z"/><path fill="#e0e0e0" d="m120 184.3-5.6-.4c.8-1.5 1.5-3 2.4-4.4.1-.2.5-.4.7-.4h1.6l.9 5.2ZM124.6 160l-.3-.7c.9.2 1.8.3 2.8.5.5.1.6.5.3 1-.6.5-1.2 1-1.7 1.5-.3-.8-.7-1.5-1-2.3Z"/><path fill="#e0e0e0" d="M191.4 184.2v1.2c-.2.9-.4 1.7-.7 2.5-.2.3-.7.4-1.1.6h-.7c-.3 0-.6 0-.8-.3-.4-.4-.7-1-1.1-1.5-.5-.4-1-.8-1.6-1.1-.9-.4-1.7-1.4-1.6-2.2 0-1.5-.2-2.9-.3-4.4 1.1.3 1.9.5 2.8.7v-.3c-1.6-.4-1.6-.4-1.7-2.1 0-1.1-.4-1.9-1.3-2.4-1.2-.8-2.4-1.8-3.6-2.6-1.3-.8-2.8-1.4-4.3-1.4-.4 0-.9 0-1.2-.3-1.4-.8-2.9-.9-4.4-.8-.8 0-1.6-.2-2.4-.5-.7-.2-1.2-.6-1.9-.9-1.6-.8-3.3-.9-5-.4-.3 0-.5.1-.8.2-.7-.4-1.3-.8-2-1.2-.2-.1-.5-.2-.7-.2-1.5.3-2.4-.9-3.4-1.6-1-.7-2-1.6-3.1-2.3-.7-.5-1.2-1-1.3-1.9-.2-1-.8-1.7-1.5-2.2-2.2-1.4-4.4-2.8-6.7-4.1-.2-.2-.5-.2-.8-.3v.3c2.4 1.4 4.7 2.9 7.1 4.3 1.2.7 1.6 1.8 1.8 3.1l-3.3-2.1c-1.5-.9-2.9-1.9-4.4-2.8-.4-.2-.9-.4-1.4-.5-.7-.2-1.2.2-1.6.7-1 1.2-2 2.3-3.1 3.4-1.5 1.5-3 2.9-4.5 4.3-.2.2-.4.3-.7.5.6-1.7 1.9-2.9 3-4.1.5-.5 1.1-1 1.6-1.5a14 14 0 0 0 3.2-4.7h-.4c-.3-.2-.6-.4-.9-.7-.5-.1-1-.3-1.5-.4-2.7-.2-5 .7-6.8 3-.7 1-1 2.1-.6 3.3 0 .1-.1.2-.2.3h-.3l-1.4 1.7-.3 1.2c0 .2-.1.4-.2.5-.5-.2-.5 0-.5.5-.4.5-.8.9-1.2 1.4l-.2.2c0 .1 0 .3-.2.4 0 0-.1-.2-.2-.2.1 0 .2 0 .4-.2v-.2h.2c0-.2 0-.5.2-.7.3-.7.7-1.4 1-2.1.5-1.4.2-2.6-.9-3.6-.5.4-1 .9-1.4 1.4-.2.2-.3.5-.3.8 0 .6 0 1.2.1 1.8l-.3 1.9-1.8 6.6h.3c0-.2.2-.4.2-.6h.3c0 .6-.2 1.2-.3 1.9-.1 1.2-.2 2.4-.4 3.7.5 0 1 .1 1.5.2-.2.4-.3.7-.5 1.1l.2.2c-.4 0-.8.2-1.4.3 0 1.5.1 3 .2 4.5h.1c0 .1.2.3.2.4 1.9-.9 3.4-1.9 4.3-4.1.7-1.6 2.1-2.8 4.1-3.1 3-.4 5.9-.7 8.7-2.2.2 0 .4-.2.6-.1 2.1.2 4.2.1 6.3.5 3.9.8 7.9 1.9 11.9 2.1 1.6 0 3.2.6 4.8.9.3 0 .7.1 1 .3 2.1 1.1 4.1 2.1 6.2 3.3 1.6.9 3.3 1.5 5.2 1 1.2-.3 2.4-.1 3.6.3 1.3.5 2.7.9 4.1 1.2 1.2.2 2.3.3 3.1 1.3 0 0 .2.2.3.2 1.1 0 1.6.9 2.1 1.7 1.3 2.2 3.6 2.3 4.3-.3h.3c0-.2.1-.3.2-.4l-.6-2.9Zm-7.5-7h.2c0 .6 0 1.1.1 1.7h-.3c-.6-.5 0-1.1 0-1.7Zm-57.4 1.1s-.1 0-.2.1h.2c0-.1 0-.3.1-.4l.2.2s-.2.1-.3.2Z"/><path fill="#c9c8c8" d="m119.5 177-.3 1.7H117c.5-.8.9-1.5 1.3-2.2l1.2.5Z"/><path fill="#a0a0a0" d="m119.5 177-1.2-.5c.3-.5.6-1.1.9-1.6l.6.2-.4 1.9ZM114.2 178.8c0 .3-.2.5-.3.8-.3 0-.6 0-.9-.1-.5 0-1 0-1.5-.1a3 3 0 0 1 2.7-.6Z"/><path fill="#e0e0e0" d="M120.5 177.5c.5 0 1 .1 1.5.2l-.5 1.1h-1.2l.2-1.3Z"/><path fill="#c9c8c8" d="M120.7 172.6c-.2.8-.5 1.7-.7 2.5l-.6-.2c.4-.8.7-1.6 1.1-2.3h.3Z"/><path fill="#312621" d="M125.6 162.3c.6-.5 1.1-1 1.7-1.5v.3l-1.4 1.7c-.3 0-.6-.1-.3-.6Z"/><path fill="#807d74" d="m124.1 159.1.2.2-.2-.2Z"/><path fill="#312621" d="M120.5 183.8v-.2Z"/><path fill="#a0a0a0" d="m149.1 162.2-3.3-2.1c-1.5-.9-2.9-1.9-4.4-2.8-.4-.2-.9-.4-1.4-.5-.7-.2-1.2.2-1.6.7-1 1.2-2 2.3-3.1 3.4-1.5 1.5-3 2.9-4.5 4.3-.2.2-.4.3-.7.5.6-1.7 1.9-2.9 3-4.1.5-.5 1.1-1 1.6-1.5a14 14 0 0 0 3.2-4.7c.7-.6 1.4-.8 2.2-.6 2.4 1.4 4.7 2.9 7.1 4.3 1.2.7 1.6 1.8 1.8 3.1Z"/><path fill="#807d74" d="M188.8 187.3v1.3c-.3 0-.6 0-.8-.3-.4-.4-.7-1-1.1-1.5-.5-.4-1-.8-1.6-1.1-.9-.4-1.7-1.4-1.6-2.2 0-1.5-.2-2.9-.3-4.4 1.1.3 1.9.5 2.8.7l4.2 1.8c.2 0 .4.4.5.6-.7 1.6-1.5 3.3-2.2 4.9Z"/><path fill="#c67f17" d="M191.4 184.1v1.3c-.2.9-.4 1.7-.7 2.5-.2.3-.7.4-1.1.6-.4-1-.2-1.4.6-1.9.2-.1.3-.3.4-.5.2-.8.5-1.6.7-2.4l.2.5Z"/><path fill="#131214" d="M191.2 183.7c-.2.8-.4 1.6-.7 2.4 0 .2-.2.4-.4.5-.8.6-.9.9-.6 1.9h-.7v-1.3c.7-1.6 1.4-3.3 2.1-4.9h.2l.2 1.1-.2.3Z"/><path fill="#807d74" d="M183.9 178.8c-.6-.5 0-1.1 0-1.7h.2c0 .5 0 1.1.1 1.6h-.3Z"/><path fill="#a0a0a0" d="M126.5 178.3c0-.1 0-.3.1-.4l.2.2s-.2.2-.3.2ZM126.5 178.3h-.2.2Z"/><path fill="#21201f" d="m111 178.1-.5-.2.5.2Z"/><path fill="#0b1f48" d="M112.3 125.4h.2c2.5 2.4 4.3 5.3 4.9 9.2 4.9-2 10-2.4 14.8-2.9.1-1 .3-1.9.4-2.8h.5c.1 0 .2.1.3.2 0 .2-.1.3-.2.5l-.2.4V131.2c0 1.4.6 2.5 1.6 3.3.9.7 1.4 1.5 1.9 2.6.9 1.9 1.1 3.9 1.3 5.9v.5c-.2-.3-.4-.6-.5-1-.4-2.6-1.4-4.9-2.7-7-.4-.6-1-1.4-1.6-1.5-1.3-.2-2.6-.1-3.9 0-.9 0-1.3.8-1 1.7.3.9.7 1.8.9 2.8.7 2.6 1.2 5.2 1.9 7.8-1.4.1-3 .8-4.2.3-2-.8-4.2-.7-6.2-1.7-1.3-.6-2.8-.9-4.1-1.3-.3-.1-.7-.2-.8-.5-.1-1.6-.3-3.2-.3-4.9 0-.3.3-.5.4-.8.3-.4.8-.9.8-1.3.3-2.4-.2-4.8-1.5-6.8-.7-1-1.5-1.9-2.2-2.9-.2-.3-.3-.6-.4-.9Z"/><path fill="#e0e0e0" d="M139.8 143.1v.1h.2c-.1 0-.2-.1-.3-.1Z"/><path fill="#e4e4e4" d="M153.5 152.1c-.7.5-1.3 0-1.9-.3-1.8-1-2-4-.5-5.4.3-.3.6-.6 1-.9.4-.3.9-.6 1.4-1-.5 0-.9-.1-1.4-.3-1.4-.4-2.8-.8-4.1-1.4-.4-.2-.6-.9-1-1.3a9 9 0 0 1-2.3-3.9c-.2-.8-.9-1.5-1.3-2.3-.6-.9-1.2-1.9-1.8-2.8-.5 0-1 .1-1.5.2h-.7c-.4-.2-.7-.4-1.1-.6-.2-.1-.5-.2-.7-.4 0 0 0-.2-.1-.2 0 0 0-.1-.1-.2l-.2-.2-.2-.2-.2-.2h-.2c-.4-.2-.8-.5-1.2-.6l-1.8-.6c-.2 0-.3 0-.5.2 0 .1-.1.3-.2.4V131.3s.2 0 .2.1c.3 1.5 1 2.6 2.2 3.4.4.3.7.8 1 1.3.7 1.2 1.3 2.4 1.9 3.6 0 0-.2.2-.2.3 0 0-.3 0-.3.1 0 .6.1 1.1.2 1.7 0 .5.1.9.1 1.3 0 .7.3 1 1 .9.7-.1 1.5 0 2.2 0v.2l.3.6c.1.3.3.7.5 1h-.1c-.3.4-.6.7-.9 1-.4.2-.9.5-1.3.7 1.4 2.1 3.2 3.5 5.3 4.6 1.8 1 3.8.8 5.7.7 1.2 0 2.3-.3 3.5-.5-.2-.1-.5-.3-.7-.4Zm-13.6-8.9v-.1h.3-.2Zm7 .7v-.2l.1.1ZM124.6 149.2c-.5 2-1 4-1.5 5.9 0 .4 0 .7.1 1.1-1.6-.4-3.2-.9-4.8-1.3-1.2-.3-2.3-.8-3.5-1.1-.2 0-.4 0-.6-.1-2.6-.9-4.6-2.7-6-5.2-.7-1.4-1.3-2.8-2-4.1-.5-1.2-.9-2.4-1.3-3.6-.5-1.2-.5-2.4-.2-3.6 1-4.1 2.8-7.8 5.6-10.8l.5-.5c.3 0 .6 0 .8.3l2.1 3c.4.9.8 1.7 1.2 2.6 0 .1.1.2.2.4 0-.1.2-.2.3-.4l.3 1.2h-.4c.2.7.4 1.3.7 1.9 0 1.6-.1 2-1 2.4-.7-2-1.4-3.9-2.2-5.9-.2-.3-.4-.7-.6-1h-.2c.2.8.5 1.6.7 2.4l.2.2.3 1.1c0 .1 0 .3.1.4.3.8.6 1.6.8 2.4v.3s.2 0 .2.1c.3 1.8.7 3.6.2 5.4 0 .2-.4.4-.6.6l-1.2.6s.2.1.3.2c.8-.4 1.5-.3 2.3-.1 3.2.7 6.2 2.4 9.6 2.6.1 0 .2.2.3.2-.3.9-.6 1.7-.9 2.6Z"/><path fill="#122d66" d="M130.8 146.2c-.6-2.6-1.2-5.2-1.9-7.8-.2-.9-.6-1.8-.9-2.8-.3-1 0-1.7 1-1.7 1.3 0 2.6-.2 3.9 0 .6.1 1.2.9 1.6 1.5 1.4 2.1 2.3 4.5 2.7 7 0 .4.3.7.5 1 0 .2 0 .4-.1.6h-.2l-4.3 1.2c-.8.2-1.5.6-2.3.9ZM133 154c-.2-.6-.5-1.2-.7-1.9.6-.4 1.2-.9 1.9-1.2 1.3-.6 2.5-1 3.8-1.5h.5c.3 1.2.6 2.4.8 3.7.2.9-.8 1.9-1.6 1.6-1.5-.6-3.1-.7-4.8-.7Z"/><path fill="#a0a0a0" d="M137.6 145.1c-.2-.2-.4-.5-.6-.7v-.2c-1.8.8-3.6 1.5-5.4 2.3-.1 0-.3.1-.3.2-.3 1.1-.7 2.1-.9 3.2 0 .5 0 1.1.4 1.5.5.5 1.1.5 1.7.1.9-.5 1.9-.9 2.8-1.2.5-.2.7-.4.4-.9v-1.3s-.2-.1-.6-.2q2-.4 1.9-1.5t.7-1.2Zm-2.8 2.8Zm.7-1.8v-.3l1.7-.3v.3l-1.6.3ZM129.2 151.8c0 .2-.3.5-.5.7h-.3c-.9.3-1.7.4-2.6.6-.5 0-1 0-1.7.1.3-1 .5-1.9.7-2.7l.9-3.5h1.3c1.5 0 1.5 0 1.7 1.6 0 .1.1.2.2.3v.4c.1.8.3 1.6.4 2.4ZM140.1 143.2h-.2.3Z"/><path fill="#312621" d="m124.8 150.5-.7 2.7h1.7v.3c-.4 0-.9.1-1.3.1-.6 0-.8.3-.8.9-.4.5-.3 1 0 1.5l-.5.2v-1.1c.4-2 .8-4 1.4-5.9.2-.9.6-1.7.9-2.6l.2.4-.9 3.5Z"/><path fill="#c67f17" d="M140.6 146.2c-.1.2-.2.6-.4.6-1 .3-1.9.6-3 .9-.3-.5-.2-.9.4-1 1-.2 1.9-.3 2.9-.5ZM137.6 145.1c.2-.2.4-.5.6-.6.7-.2 1.4-.3 2.2-.4.2 0 .5.2.7.3-.2.1-.4.4-.6.4-1 .1-1.9.2-2.9.2Z"/><path fill="#e79d61" d="M140.4 145.9h-1l-.7.2-.8.2v-.8c1.1-.1 2.2-.3 3.3-.4.2 0 .4.4.6.7h-1.4Z"/><path fill="#e0e0e0" d="M123.8 156c-.3-.5-.4-1 0-1.5l1.8-.6c-.3.6-.6 1.2-1 1.8-.1.2-.5.1-.7.2Z"/><path fill="#c67f17" d="M136.1 149.5c-.2-.8.7-1.1 2.3-.9v.3l-2.3.6Z"/><path fill="#a0a0a0" d="m125.5 154-1.8.6c0-.6.2-.9.8-.9.4 0 .8 0 1.2-.1l-.3.5Z"/><path fill="#4f453f" d="M115.1 131.5c-.4-.9-.8-1.7-1.2-2.6l.7.4v.2l.5 2Z"/><path fill="#807d74" d="m116.2 134.6-.7-1.7.4-.2.3 1.9ZM115.1 131.5l-.5-2 1 2.1c0 .1-.2.2-.3.4 0-.1-.1-.3-.2-.4Z"/><path fill="#4f453f" d="M140.4 145.9h.7c-.2.1-.4.2-.5.3l-.2-.3Z"/><path fill="#e0e0e0" d="M128.8 149.3Z"/><path fill="#4f453f" d="M138.8 146.2Z"/><path fill="#0b1f48" d="M137.4 144.1h.2-.2Z"/><path fill="#4f453f" d="M139.5 146Z"/><path fill="#807d74" d="M114.6 129.5v-.2.2Z"/><path fill="#e0e0e0" d="m113.1 132.8-.2-.2.2.2Z"/><path fill="#21201f" d="M199.6 156.4c.1 0 .3.1.4.2.2.3.5.6.7.9.4.5.7 1.1 1.1 1.6-.2.3-.5.6-.7.9l-.5.6c-.4.4-.8.9-1.2 1.3-.5.6-.8 1.3-.5 2.2.2 1.3.3 2.7.5 4v.9c.3 1.2.5 2.4.6 3.6 0 .6.3.9.8 1.2.8.4 1.5.9 2.3 1.4-.3 0-.5-.1-.8-.3-.7-.3-1.4-.7-2-1v7.4c0 .7-.2 1-.9 1l-1.9-.4-.2-.9v-8.2c0-.2-.2-.5-.4-.6-.9-.5-1.9-1-2.9-1.5v-.3c-.2-1.5-.3-3.1-.5-4.6h.3c.2 1.4.3 2.7.5 4.1 0 .2 0 .6.2.7.9.5 1.8 1 2.8 1.5-.1-1.5-.3-2.9-.4-4.2v-3.2c.3-2.6 1.2-5.1 2.3-7.3l.4-.8Z"/><path fill="#4f453f" d="M193.7 165.7h-.3c0-.5-.3-.5-.7-.5-1.5 0-1.6-.1-1.7-1.8v-.3c0-2 .1-4 0-5.9 0-.7-.4-1.4-.5-2 0-.3-.3-.6-.2-.8.3-.9 0-1.6-.2-2.4-.1-.5-.3-1.2-.1-1.7.4-1.3 1.1-2.5 1.6-3.7 0-.1.3-.1.4-.2-.6 1.3-1.2 2.5-1.7 3.9-.2.4 0 .9 0 1.4.1.9.3 1.7.6 2.6 0 .3.3.5.5.6.9.4 1.8.6 2.8 1-.2-1.4-.5-2.9-.6-4.3l-.3-3.9c0-.3.1-.6.2-.9 0 .9.1 1.9.2 2.9l.3 2 .3 2.1c.5 2.9.9 5.8-.6 8.6-.7.8-.7 2.2-2.2 2.3.4.2.7.3 1 .3.4 0 .8.1 1.2.2v.7Zm-2.3-9.6v7.7l.3.2c.3-.3.7-.5 1-.9.4-.5.6-1.2.9-1.7.6-1.1.9-2.3.8-3.6 0-1.5-1.1-2.3-2.9-2.3v.7Z"/><path fill="#807d74" d="M168.2 149.3c-.8-.6-1.6-1.1-2.4-1.7l2.4 1.7ZM169.5 150.5l-.7-.6.7.6ZM168.8 149.9l-.7-.6.7.6ZM170.2 151l-.7-.6.7.6Z"/><path fill="#4f453f" d="m189.9 161.4.2.2-.2-.2Z"/><path fill="#807d74" d="m170.7 151.6-.5-.6.5.6Z"/><path fill="#312621" d="m191.2 183.7.2-.3v.7l-.2-.5Z"/><path fill="#b3afa1" d="m194.3 178.2.2.2s-.1 0-.2-.1ZM206.8 214.6Z"/><path fill="#4f453f" d="M130.6 127.1c1.6.6 3.2 1.2 4.9 1.7.4.1.9 0 1.3 0v-.3l.5.7.2.2v.2c-1-.2-1.9-.4-2.9-.8-1.4-.5-2.9-1.1-4.3-1.7h.1v-.2h.2ZM130.2 127.3l-.6-.2h.7v.2Z"/><path fill="#e0e0e0" d="M130.3 127.1h.1Z"/><path fill="#c9c8c8" d="M142.7 132.5v-.4l-.3-.5v-.9c.2-.5.5-.9.7-1.3l.8 1 .2.3.4.2c-.2 1.1-.7 1.6-1.5 1.7h-.3Z"/><path fill="#312621" d="M136.6 130.7c-.4-.2-.7-.5-1.1-.6l-1.8-.6v-.2c.7.2 1.3.3 1.9.5.5.2.9.6 1.4.8l-.2.2h-.2ZM143.1 129.5c-.2.4-.5.9-.7 1.3v.9c-.5-1.2 0-2.3.5-3.3l.2 1.1ZM139.3 132.6l-1-.6 1.7.5h-.7ZM138.3 132.1l-.7-.4v-.4l.7.8Z"/><path fill="#4f453f" d="M137.9 129.9Z"/><path fill="#131214" d="M133.7 129.2v.2c-.2 0-.3.1-.5.2 0-.2.1-.3.2-.5 0 0 .2 0 .3.1Z"/><path fill="#312621" d="m137.3 130.9.2.2-.2.2-.2-.2v-.2Z"/><path fill="#312621" d="m137.1 130.7.2.2v.2l-.3-.2.2-.2ZM136.9 130.5l.2.2-.2.2-.2-.2.2-.2Z"/><path fill="#131214" d="M133 128.9Z"/><path fill="#312621" d="m137.5 131.1.2.2-.2.2v-.4Z"/><path fill="#4f453f" d="M137.4 129.6h.1c0 .1-.1 0-.2 0Z"/><path fill="#8e1212" d="M222.1 131.3c0 .2-.1.3-.2.5 0 0-.2.1-.2.2v.1c-.1 0-.2.1-.3.2l-.2.2c-.4.2-.8.3-1.2.5-.8.3-1.7-.3-1.8-1.2v-.2h.2l.2-.2c.2-.1.3-.3.5-.4l.2-.2c.2-.2.3-.4.5-.6.3-.2.6-.4 1-.7.4.5.9 1.1 1.3 1.7ZM220.4 136.1v-.2.2ZM220.4 136.1l.2.2s-.1 0-.2-.2ZM201.8 159.1c-.4-.5-.7-1.1-1.1-1.6-.2-.3-.5-.6-.7-.9 2.3-2.1 4.5-4.3 6.9-6.2 3.3-2.7 7.1-4.1 11.2-4.5.2 0 .4 0 .6.1v3.2c0 .4.4.7.6 1 0 .5 0 1.1.2 1.6.2 1.2.5 2.3.8 3.4.2.7.5 1.4.8 2.1-1.1.7-2 1.3-3 1.9-.4-.2-.9-.4-1.3-.7-.5-.3-1-.8-1.5-1.2l-.3-.2-.5-.4-.5-.2c-.7 0-1.5-.3-2.2-.3-.6 0-1.1.3-1.7.5-.2.6-.3 1.2-.5 1.8v.8l.8-.5c.4.3.3.6 0 .9-.2.3-.4.7.2.8l.3 1.1c0 .7.7 1.4-.2 2-1.4.6-2.8 1-4.4.7l-.9-.8-1.8-2.2c-.2-.3-.4-.6-.7-.9h-.1v-.2l-1.1-1.5Z"/><path fill="#807d74" d="m194.1 151.5-.3-2c.1-.3.2-.5.3-.8-.1 3 1.4 4.9 3.5 6.4.7.5 1.3.9 2 1.3-.1.3-.3.5-.4.8-.7-.6-1.3-1.4-2-1.9-1.3-1-2.7-1.9-3-3.7l-.1-.1Z"/><path fill="#312621" d="m205 138.3 1.2-.9-1.2.9ZM202.4 139.9l1.2-.8-1.2.8ZM203.6 139.2l.7-.5-.7.5ZM204.3 138.7l.7-.4-.7.4Z"/><path fill="#4f453f" d="m195.7 144.7.4-.3-.4.3Z"/><path fill="#21201f" d="M203.7 161.7c.6.7 1.2 1.5 1.8 2.2-.2.4-.5.7-.7 1.1-.9 1.8-1.3 3.6-.7 5.6.4 1.2 1 2.2 1.6 3.3.2.4.6.7 1 1.1h.1c.3.3.6.7.9 1 2.2 1.5 4.3 3 6.5 4.5.3.2.5.5.9.7l-1.3 1.5c-.9-.8-1.7-1.7-2.7-2.4-1.6-1.3-3.3-2.4-4.9-3.6h-.4v-.5c-.5-.8-1-1.7-1.5-2.5-.4-1.9-.9-3.8-1.3-5.7l.3-3.6.4-2.3v-.3Z"/><path fill="#807d74" d="m211.3 163.9-.6 8.8h-.2l.3-6.7v-2.2h.5Z"/><path fill="#21201f" d="M211.3 163.9h-.5c.8-.6.3-1.4.2-2.1h.3l1 .9h-.2v1.2h-.7ZM203 175.3c.6.4 1.2.8 1.9 1.1.3.2.6.2.9.4l-.4.4h-.2l-.3-.2-.5-.4-.5-.3-.8-1Z"/><path fill="#807d74" d="M205.2 177.2h.2c0 .2 0 .4-.1.6h-.1v-.5Z"/><path fill="#b3afa1" d="M223.8 163.2Z"/><path fill="#4f453f" d="M221.6 168.6v.6c-.2.1-.3.3-.5.4.6-1.5.4-3 .2-4.6 0 0 .2-.1.3-.2v3.8Z"/><path fill="#b3afa1" d="M223.8 163.2Z"/><path fill="#312621" d="m220.8 137.2 1.1 1.1-1.1-1.1ZM221.9 138.4c.2.1.3.3.5.4-.2-.1-.3-.3-.5-.4Z"/><path fill="#807d74" d="M218.8 160.8c0 .2-.2.4-.3.6l-.6 1.8c.6.7.1 1.1-.4 1.3-.1-.2-.3-.4-.4-.6 0 0-.2-.1-.2-.2l.1-.1c1-2 .7-3.7-.9-5.1-.3-.3-.5-.7-.8-1-.1 0-.2-.1-.3-.2-.2-.1-.3-.2-.5-.4-.2 0-.4-.1-.5-.2l-2.7.6c.2 1.2.3 1.3 1 1.4.7-.3 1.4-.8 2.2-.6v.4c-.8.1-1.5.3-2.3.4-.3 0-.5.2-.8.3 0 .4.1.7.2 1 .9-.2 1.7-.5 2.6-.6.2 0 .5.2.8.3-.2.2-.5.4-.7.5-.8.2-1.5.3-2.3.4 0 1.2 0 1.2 1.2 1.1h2v.3c-.5 0-1.1.2-1.6.2-1 0-1.1.3-1 1.4.7 0 1.3.1 2 .2.4 0 .8.2 1.2.3v.1c-.4 0-.9.1-1.6.2.5.5.9 1 1.3 1.2 1.4.8 3.1 0 3.9-1.8l.3-1.7-.9-1.5Zm-.2 2.2v.3-.2ZM221 169.6c0 .1-.1.2-.2.4l-.2.4h-.2c-1.2.2-2.1-.3-3-1.2.3-.2.5-.4.7-.5-.5-.3-1.5.5-1.7-.8 1.7.2 3-.5 3.9-2 .2-.3.5-.5.7-.8.2 1.5.4 3.1-.2 4.6Z"/><path fill="#f0d37e" d="M211.3 162h-.3c-.1-.5-.2-.8-.3-1.2l-.2-.8c.2-.3.4-.6 0-.9l.6-1.2.6 3.5c0 .2-.2.4-.3.7ZM211 157.8l-.6 1.2c-.2.1-.4.3-.8.5v-.8l.5-1.8c.7-.1 1 .2.9.9Z"/><path fill="#807d74" d="m211.7 160.2 2.6-.6c.2 0 .5.2.8.3-.2.2-.5.4-.7.5-.8.2-1.5.3-2.3.4l-.3-.6Z"/><path fill="#312621" d="M212.3 158.7c.7-.3 1.4-.8 2.2-.6v.4l-2.2.4v-.2Z"/><path fill="#fcf7e5" d="m220 162.2.2-.2v.2h-.2Z"/><path fill="#a0a0a0" d="M220.2 171.4v-.2c0-.1.1-.2.2-.4l.3-.6c0-.1.1-.3.2-.4s.1-.2.2-.4c.2-.1.3-.3.5-.4.2 1.5-.1 2-1.4 2.2Z"/><path fill="#4f453f" d="m220.7 170.3-.3.6c0-.2 0-.4.1-.6h.2ZM217 169.4ZM220.4 170.9l-.2.4.2-.4Z"/><path fill="#a0a0a0" d="M220.2 171.4Z"/><path fill="#807d74" d="M204 227.2c-.6.6-1.7.7-2.3 0h2.3ZM205.7 230c0 .1-.1.2-.2.4 0-.1.1-.2.2-.4ZM204.5 228.5h.1ZM204.9 228.4h-.2.1ZM205.5 230.4l-.2.2.2-.2ZM205.7 229.9Z"/><path fill="#c9c8c8" d="m215.8 131.1.3-.4-.3.4Z"/><path fill="#4f453f" d="M217.5 130.4s-.1-.1 0 0c0-.2 0 0 0 0Z"/><path fill="#c9c8c8" d="M216.1 130.8v-.1l.1.1h-.1Z"/><path fill="#131214" d="M222.1 131.3c-.4-.6-.9-1.1-1.3-1.7-.4.3-.7.5-1 .7.2-.3.3-.6.5-.9.2 0 .5-.2.6 0 .5.4.9.8 1.3 1.2v.7ZM219.7 130.4l-.5.6.5-.6ZM219.2 130.9l-.2.2.2-.2Z"/><path fill="#4f453f" d="M143 132.6c.8 0 1.2-.5 1.5-1.7l1.2.4h.2v.8s0 .1-.1.2l-.8-1c-.7 1.4.3 1.5.9 1.8h.2v.5c-.8-.4-1.5-1.2-2.5-.8-.1 0-.3-.1-.5-.2Z"/><path fill="#807d74" d="m157.7 143.5-2.6-1.8 2.6 1.8ZM145.8 131.3h-.2c0-.9-.2-1.9.5-2.6l-.3 2.6ZM149.5 137.4l-1.5-1.1 1.5 1.1ZM154.1 140.7l-1.4-.9 1.4.9ZM155.2 141.6l-1-.9 1 .9ZM147 135.4l-.9-.7.9.7ZM146 133.2h-.2v-.9s0-.1.1-.2c0 .4 0 .7.1 1.1ZM162 145.5l-.7-.4.7.4ZM146.1 134.6c0-.3-.1-.7-.2-1 0 .3.1.7.2 1ZM148 136.3l-.5-.4.5.4ZM147.5 135.9l-.3-.4.3.4ZM146.1 128.7l.2-.4-.2.4ZM149.9 137.6l-.3-.2.3.2ZM154.2 137.6v.2-.2ZM152.8 139.8s-.2-.1-.2-.2c0 0 .2.1.2.2Z"/><path fill="#fcf7e5" d="M159.4 143.5ZM159.4 143.5l-.2-.2.2.2Z"/><path fill="#807d74" d="m147.2 135.6-.2-.2.2.2ZM150.1 137.8l-.2-.3.2.3ZM146.3 128.4l.2-.2-.2.2Z"/><path fill="#4f453f" d="m144.4 130.9-.4-.2.4.2ZM144.1 130.8l-.2-.3.2.3Z"/><path fill="#807d74" d="m137.4 129.5-.2-.2.2.2Z"/><path fill="#131214" d="m221.9 131.8.2-.5-.2.5Z"/><path fill="#312621" d="m221.1 132.6.2-.2-.2.2ZM221.6 132.2v-.1.2ZM221.6 132.1s.2-.1.3-.2c0 0-.2.1-.3.2Z"/><path fill="#4f453f" d="M193.6 146.6c0-.1 0-.2 0 0 0-.1 0 0 0 0Z"/><path fill="#080707" d="M123.6 166.7c0 .1 0 .3-.2.4 0 0-.1-.2-.2-.2.1 0 .2 0 .4-.2ZM123.8 166.5l-.2.2v-.2h.2Z"/><path fill="#131214" d="m154.5 152.7-.3-.2-.7-.4v-.3c.5-.4 0-.5-.2-.5-1.5-.3-2.2-1.4-2.4-2.8-.1-.5.1-1.1.2-1.6v-.4l.9-.9.2.4c.3.4.6.7.2 1.3-.6.1-.7.4-.5 1l.6 1.5h.8l.2.3c-.5.5-.5.9.3 1l.2.3c-.1.5.1.7.6.6.3 0 .6-.1.9-.2l.2.4c.5-.1 1-.2 1.5-.4s.6-.5.4-1h.6l.2.4c-.7.5-1.3 1-2 1.5h-.7c-.2-.1-.4-.2-.7-.4l.2.6h-.4c0-.2-.1-.4-.2-.7l-.3.6Z"/><path fill="#807d74" d="m176.8 156.5.5.4-.5-.4Z"/><path fill="#4f453f" d="m177.5 157.1.2.2-.2-.2Z"/><path fill="#807d74" d="m177.4 156.9.2.2-.2-.2Z"/><path fill="#312621" d="m154.5 152.7.3-.6c0 .3.2.5.2.7h-.3l-.2-.2ZM155.4 152.7l-.2-.6c.3.2.5.3.7.4-.2 0-.3 0-.5.1Z"/><path fill="#131214" d="m154.5 152.7.2.2h-.2v-.2ZM133 130ZM133.2 129.6c0 .1-.1.3-.2.4 0-.1.1-.3.2-.4Z"/><path fill="#4f453f" d="M151 146.4v.4c-.2.4-.5.8-.6 1.3-.5 2.1 1.1 4.2 3 3.7v.3c-.7.5-1.3 0-1.9-.3-1.8-1-2-4-.5-5.4ZM147.3 143.5s0 .1-.1.2v-.2h.2ZM146.8 143.7ZM147.3 143.4Z"/><path fill="#b3afa1" d="m137.2 145.8-1.6.3v-.3l1.6-.3v.3Z"/><path fill="#131214" d="M134.8 148Z"/><path fill="#4f453f" d="M115.1 131.5c0 .1.1.3.2.4 0-.1-.1-.3-.2-.4Z"/><path fill="#fcf7e5" d="M196.9 167.8c.1 1.3.2 2.7.4 4.2-1.1-.6-2-1-2.8-1.5-.1 0-.2-.4-.2-.7-.2-1.4-.3-2.7-.5-4.1v-.7c-.4 0-.8-.1-1.2-.2-.3 0-.6-.1-1-.3 1.4 0 1.5-1.5 2.2-2.3 1.6-2.7 1.1-5.7.7-8.6l-.3-2.1s.1 0 .1.1c.3 1.9 1.7 2.7 3 3.8.7.6 1.3 1.3 2 1.9-1.2 2.3-2 4.7-2.2 7.3 0 .6-.1 1.1-.2 1.7v1.5ZM205.8 176.2c-.5-.8-1-1.7-1.5-2.5-.4-1.9-.9-3.8-1.3-5.7l.3-3.6c.1-.8.2-1.5.4-2.3v-.3c-.2-.3-.4-.6-.7-.9v-.2h-.2c-.4-.5-.7-1-1.1-1.5-.2.3-.5.6-.8.9-.2.2-.3.4-.5.6-.4.4-.8.9-1.2 1.3-.4.6-.8 1.3-.5 2.2.2 1.3.3 2.7.5 4 0 .3 0 .6.1.9.2 1.2.4 2.4.5 3.6 0 .6.2.9.8 1.2.8.4 1.5.9 2.3 1.4.6.4 1.2.8 1.9 1.1.3.2.6.2.9.4l.2-.1v-.5Zm-4.9-4.5c-.1 0-.2-.1-.3-.2h-.2l.2.2h.4v.2Z"/><path fill="#b3afa1" d="M196.9 167.8Z"/><path fill="#fcf7e5" d="M170.5 147.3ZM176.5 156.1l-.2-.3.2.3ZM176.3 155.8l-.2-.2.2.2ZM193.6 161.4c-.3.6-.6 1.2-.9 1.7-.2.4-.6.6-1 .9 0 0-.2-.1-.3-.2v-7.7c0-.2 0-.5.1-.7 1.8 0 2.9.8 2.9 2.3.1 1.3-.2 2.5-.8 3.6Z"/><path fill="#b3afa1" d="M204.9 178.8c0-.2 0-.4.1-.6 0 .2 0 .4-.1.6Z"/><path fill="#131214" d="M218.8 160.8c0 .2-.2.4-.3.6l-.6 1.8-.8.6h-.1c1-2.1.7-3.8-.8-5.3-.3-.3-.5-.7-.8-1l1.5 1.2c.4.3.9.4 1.3.7v.2l.6.9v.3Z"/><path fill="#21201f" d="m207.4 165.1-.9-.4c1.5.3 3-.1 4.4-.7v.2c-.9.3-1.8.6-2.7 1h-.7Z"/><path fill="#131214" d="M210.1 156.9c-.2.6-.3 1.2-.5 1.8.2-.6.3-1.2.5-1.8Z"/><path fill="#f0d37e" d="m210.7 160.8.3 1.1-.3-1.1Z"/><path fill="#21201f" d="m210.5 159.9.2.8c-.6-.2-.4-.5-.2-.8Z"/><path fill="#131214" d="m215.1 157.3-.5-.4.5.4ZM214.6 156.9l-.5-.2.5.2ZM215.4 157.5l-.3-.2.3.2Z"/><path fill="#b3afa1" d="M203.1 160.8Z"/><path fill="#fcf7e5" d="M207.4 171c0 1.3-.5 2.7-.7 4-.3-.4-.7-.7-1-1.1-.6-1.1-1.2-2.2-1.6-3.3-.7-1.9-.2-3.8.7-5.5.2-.4.5-.7.8-1.1.3.3.6.5.9.8.3.1.6.3.9.4 0 .7-.1 1.5-.2 2.2 0 1.2.3 2.5.2 3.7Z"/><path fill="#b3afa1" d="M200.6 171.5h-.2v-.2c.1 0 .2.1.2.2ZM200.6 171.5c.1 0 .2.1.4.2-.1 0-.2 0-.3-.2ZM208.1 165.1l2.7-1v2c0 2.2-.2 4.4-.3 6.7-.4.7-.6 0-.8-.2-.6-1.3-1.1-2.6-1.7-3.9v-3.6Z"/><path fill="#807d74" d="M208 168.5Z"/><path fill="#b3afa1" d="m204.9 177-.5-.4.5.4Z"/><path fill="#131214" d="m217.1 163.9-.2-.2h.2v.3Z"/><path fill="#4f453f" d="m220.9 170-.2.4.2-.4ZM221.1 169.6l-.2.4.2-.4Z"/><path fill="#c9c8c8" d="M217.1 163.9v-.1l.8-.6c.6.7.1 1.1-.4 1.3-.1-.2-.3-.4-.4-.6ZM218.7 163v.3-.2ZM218.7 163v-.1.1z"/><path fill="#f0d37e" d="M145.7 132.2v.9c-.5-.4-1.6-.4-.9-1.8l.8 1Z"/><path fill="#a0a0a0" d="m158.4 150.8-.4-.2-1.8-2.4c0-1-.7-1.5-1.5-1.8-.2.2-.4.4-.6.7-.2.4-.5.4-.8 0h-.8c.4-.5 0-.9-.2-1.3 1.5-1.4 2.7-1.1 4.2-.4.2 0 .3.2.4.4.5 1.7 1.1 3.3 1.6 5Z"/><path fill="#c67f17" d="M153.9 151c-.7-.1-.8-.5-.3-1 .3-.3.7-.5 1-.8l1.5-.9c.3.7 0 1.3-.6 1.7-.5.4-1.1.7-1.7 1.1Z"/><path fill="#c9c8c8" d="M153.5 151.8c-1.9.5-3.5-1.6-3-3.7.1-.5.4-.9.6-1.3 0 .5-.3 1.1-.2 1.6.3 1.4.9 2.6 2.4 2.8.2 0 .7.1.2.5Z"/><path fill="#c67f17" d="M155.7 151.7c-.3 0-.6.2-.9.2-.5 0-.7-.1-.6-.6.9-.6 1.8-1.2 2.8-1.8.5.4.4.9-.2 1.4-.4.3-.7.6-1.1.9Z"/><path fill="#312621" d="M155.7 151.7c.4-.3.7-.6 1.1-.9.6-.5.7-1 .2-1.4-1 .6-1.9 1.2-2.8 1.8l-.2-.3 1.7-1.1c.6-.4.8-.9.6-1.7l1.8 2.4h-.3c-.6.5-1.3 1-1.9 1.5l-.2-.4ZM156.2 148.2l-1.5.9c-.4.2-.7.5-1 .8l-.2-.2.2-.3 2.1-1.8c-.5-.6-.9-1.1-1.5-.3l-.2-.2.6-.7c.8.3 1.5.8 1.5 1.8Z"/><path fill="#e79d61" d="m153.6 149.3-.2.3h-.8v-2.1c.7-.3.8.3 1.1.8v1Z"/><path fill="#c67f17" d="M155.9 152.1c.6-.5 1.3-.9 1.9-1.4.2.5 0 .8-.4 1-.5.2-1 .3-1.5.4Z"/><path fill="#312621" d="M153.7 148.3c-.3-.4-.4-1.1-1.1-.8l-.6.6c-.2-.6 0-.9.5-1h.8c.3.3.6.3.8 0l.2.2c-.2.4-.4.7-.6 1.1Z"/><path fill="#c67f17" d="m152 148.1.6-.6v2.1l-.6-1.5ZM153.7 148.3c.2-.4.4-.7.6-1.1.6-.8 1-.3 1.5.3l-2.1 1.8v-1Z"/><path fill="#171d29" d="M0 164.3c5.5 11.4 16.6 30.8 37.3 48.2 7.1 6 32.3 26.6 68.8 31.8 39.6 5.6 44.5-13.7 85.2-12 50.5 2 87.2 33.6 98.1 43A184.2 184.2 0 0 1 335 335V0H0v164.3Z" opacity=".8"/><path fill="#e01339" d="M335 0v208.3a324.3 324.3 0 0 0-21.3-28.3c-7.4-8.9-18.7-22.3-34.4-35.3-21.5-17.7-39.4-32.5-63-33.1-19.5-.6-20.6 9.1-49.7 14.2-28.4 5-52 .1-62.8-2.6-34.3-8.6-56.5-28.4-66.5-37.4A174.22 174.22 0 0 1 0 37.5V0h335Z"/><g fill="#fff" data-name="uuid-f3fdbca8-19af-4b99-a461-c604056463c2"><path d="M29.6 13.9c0 .5-.2 1-.6 1.4l-6.3 6.3-6.8-3.9v-3.9c0-1.1.9-2 2-2s2 .9 2 2v4.9l6.3-6.3c.8-.8 2.1-.8 2.8 0 .4.4.6.9.6 1.4ZM29 31.7c-.4.4-.9.6-1.4.6s-.5 0-.8-.2c-.2 0-.5-.2-.6-.4l-2.1-2.1-4.1-4.1v4.9c0 1.1-.9 2-2 2s-2-.9-2-2v-3.8l6.8-3.9 4.2 4.2 2.1 2.1c.8.8.8 2.1 0 2.8ZM22.4 22s0-.2-.2-.2l-1.7-1-4.6-2.6L12 16c-.2-.1-.5 0-.6.2V28.1c0 .2.2.5.4.5h.2l3.9-2.2 6.3-3.6s0-.1.1-.2v-.3Zm-9.6-4.7 3 1.7 4.9 2.8s.1 0 .1.1v.3s0 .2-.2.2l-4.9 2.8-3 1.7c-.2 0-.4 0-.5-.1V17.5c0-.2.1-.4.4-.4h.2Z"/><path d="M19.5 22.2s0 .1-.1.2l-3.7 2.1-2.3 1.3c-.1 0-.3 0-.4-.1V18.8c0-.1.1-.3.3-.3h.1l2.3 1.3 3.7 2.1s.1 0 .1.1v.1ZM62.5 21.6l-5.6-2.8-3.4-1.7c-.2-.1-.4 0-.5.1v9.5c.1.2.3.4.6.4h.4l3.2-1.8 2-1 3.5-1.9s.2-.1.2-.2V22s0-.2-.2-.2Zm-5.6 2.9-2.6 1.4c-.2 0-.3 0-.4-.1v-7.3c0-.2 0-.3.2-.3h.1l2.7 1.3 1 .5 3.4 1.7s.1 0 .2.2v.2s0 .1-.1.1l-4.3 2.3Z"/><path d="M60.1 22s0 .1-.1.1l-3.2 1.7-2 1.1h-.3v-5.4c0-.1 0-.2.2-.2l2 1 3.3 1.6.1.1v.1ZM38.5 17.2h-4.8v9.7h2.4v-3.2h2.5c2.3 0 4-1.4 4-3.4 0-1.9-1.8-3.2-4.1-3.2Zm-.2 4.6H36v-2.7h2.3c1.2 0 1.9.5 1.9 1.3s-.8 1.4-1.9 1.4ZM51.8 27l-7.7.1-.2-9.7h2.4l.1 7.8 5.3-.1.1 1.9zM67.5 23.3l.1 3.5h-2.4v-3.5l-4.3-6.1 2.7-.1 2.7 4.3 2.8-4.3 2.6-.1-4.2 6.3zM81.9 27.2l-1.6.1-4.1-4.5-1.7 1.6v2.9l-1.2.1-.1-9.7h1.2l.1 5.3 5.4-5.4h1.6L77 22l4.9 5.2zM88 17.3c-3 0-5.5 2.4-5.5 5.1 0 2.7 2.6 5 5.6 5 3 0 5.5-2.4 5.4-5.1 0-2.7-2.6-5-5.6-4.9Zm.4 9c-2.4.2-4.4-1.6-4.6-3.9a4.27 4.27 0 0 1 8.5-.1 4.2 4.2 0 0 1-3.9 4ZM103.2 24.5c0 1.5-1.2 2.8-3.8 2.8-1.6 0-3.1-.5-4.3-1.5l.8-.9c1 .9 2.2 1.4 3.6 1.4 1.7 0 2.5-.9 2.5-1.7 0-1-1-1.4-2.9-1.8-2.2-.4-3.6-1-3.6-2.7 0-1.5 1.5-2.8 3.6-2.8 1.4 0 2.7.4 3.8 1.3l-.7.9c-.8-.8-2-1.2-3.1-1.2-1.3 0-2.3.8-2.3 1.7 0 1 1.1 1.3 2.9 1.7 2.1.4 3.6 1.1 3.6 2.8ZM116 27.2h-1.2l-.1-7.3-3.9 6.8-4.1-6.7.1 7.3-1.3.1-.1-9.7h1.3l4 6.7 4-6.8h1.2l.1 9.6zM123.7 17.3c-3 0-5.5 2.4-5.5 5.1 0 2.7 2.6 5 5.6 5 3 0 5.5-2.4 5.4-5.1 0-2.7-2.6-5-5.6-4.9Zm.4 9c-2.4.2-4.4-1.6-4.6-3.9a4.2 4.2 0 0 1 3.9-4c2.4-.2 4.4 1.6 4.6 3.9a4.2 4.2 0 0 1-3.9 4ZM138.9 24.5c0 1.5-1.3 2.8-3.8 2.8-1.5 0-2.9-.4-4.1-1.3l-.2-.2.8-.9c.2.1.3.3.5.4.9.6 1.9 1 3 .9 1.7 0 2.5-.9 2.5-1.7 0-.8-.6-1.2-1.6-1.5-.3-.1-.7-.2-1.1-.3h-.2c-2.2-.4-3.6-1-3.6-2.7 0-1.5 1.5-2.8 3.6-2.8 1.4 0 2.7.4 3.8 1.3l-.7.9c-.9-.8-2-1.2-3.1-1.2-1.3 0-2.3.8-2.3 1.7 0 1 1.1 1.3 2.9 1.7.4 0 .8.2 1.1.3.4.1.7.2 1 .4.9.4 1.5 1.1 1.5 2.1Z"/></g><g fill="#fff" opacity=".5"><path d="M11.9 64.1c0 .6-.5 1-1 1s-1-.5-1-1 .5-1 1-1 1 .5 1 1ZM17.9 64.1c0 .6-.5 1-1 1s-1-.5-1-1 .5-1 1-1 1 .5 1 1ZM23.9 64.1c0 .6-.5 1-1 1s-1-.5-1-1 .5-1 1-1 1 .5 1 1ZM29.9 64.1c0 .6-.5 1-1 1s-1-.5-1-1 .5-1 1-1 1 .5 1 1ZM35.9 64.1c0 .6-.5 1-1 1s-1-.5-1-1 .5-1 1-1 1 .5 1 1ZM11.9 70.1c0 .6-.5 1-1 1s-1-.5-1-1 .5-1 1-1 1 .5 1 1ZM17.9 70.1c0 .6-.5 1-1 1s-1-.5-1-1 .5-1 1-1 1 .5 1 1ZM23.9 70.1c0 .6-.5 1-1 1s-1-.5-1-1 .5-1 1-1 1 .5 1 1ZM29.9 70.1c0 .6-.5 1-1 1s-1-.5-1-1 .5-1 1-1 1 .5 1 1ZM35.9 70.1c0 .6-.5 1-1 1s-1-.5-1-1 .5-1 1-1 1 .5 1 1Z"/><circle cx="10.9" cy="76.1" r="1"/><path d="M17.9 76.1c0 .6-.5 1-1 1s-1-.5-1-1 .5-1 1-1 1 .5 1 1ZM23.9 76.1c0 .6-.5 1-1 1s-1-.5-1-1 .5-1 1-1 1 .5 1 1ZM29.9 76.1c0 .6-.5 1-1 1s-1-.5-1-1 .5-1 1-1 1 .5 1 1Z"/><circle cx="34.9" cy="76.1" r="1"/><path d="M11.9 82.1c0 .6-.5 1-1 1s-1-.5-1-1 .5-1 1-1 1 .5 1 1ZM17.9 82.1c0 .6-.5 1-1 1s-1-.5-1-1 .5-1 1-1 1 .5 1 1ZM23.9 82.1c0 .6-.5 1-1 1s-1-.5-1-1 .5-1 1-1 1 .5 1 1ZM29.9 82.1c0 .6-.5 1-1 1s-1-.5-1-1 .5-1 1-1 1 .5 1 1ZM35.9 82.1c0 .6-.5 1-1 1s-1-.5-1-1 .5-1 1-1 1 .5 1 1ZM11.9 88.1c0 .6-.5 1-1 1s-1-.5-1-1 .5-1 1-1 1 .5 1 1ZM17.9 88.1c0 .6-.5 1-1 1s-1-.5-1-1 .5-1 1-1 1 .5 1 1ZM23.9 88.1c0 .6-.5 1-1 1s-1-.5-1-1 .5-1 1-1 1 .5 1 1ZM29.9 88.1c0 .6-.5 1-1 1s-1-.5-1-1 .5-1 1-1 1 .5 1 1ZM35.9 88.1c0 .6-.5 1-1 1s-1-.5-1-1 .5-1 1-1 1 .5 1 1Z"/></g><g fill="#171d29" opacity=".5"><path d="M164.5 266.3c0 .6-.5 1-1 1s-1-.5-1-1 .5-1 1-1 1 .5 1 1ZM170.5 266.3c0 .6-.5 1-1 1s-1-.5-1-1 .5-1 1-1 1 .5 1 1ZM176.5 266.3c0 .6-.5 1-1 1s-1-.5-1-1 .5-1 1-1 1 .5 1 1ZM182.5 266.3c0 .6-.5 1-1 1s-1-.5-1-1 .5-1 1-1 1 .5 1 1ZM188.5 266.3c0 .6-.5 1-1 1s-1-.5-1-1 .5-1 1-1 1 .5 1 1ZM164.5 272.3c0 .6-.5 1-1 1s-1-.5-1-1 .5-1 1-1 1 .5 1 1ZM170.5 272.3c0 .6-.5 1-1 1s-1-.5-1-1 .5-1 1-1 1 .5 1 1ZM176.5 272.3c0 .6-.5 1-1 1s-1-.5-1-1 .5-1 1-1 1 .5 1 1ZM182.5 272.3c0 .6-.5 1-1 1s-1-.5-1-1 .5-1 1-1 1 .5 1 1ZM188.5 272.3c0 .6-.5 1-1 1s-1-.5-1-1 .5-1 1-1 1 .5 1 1Z"/><circle cx="163.5" cy="278.3" r="1"/><path d="M170.5 278.3c0 .6-.5 1-1 1s-1-.5-1-1 .5-1 1-1 1 .5 1 1ZM176.5 278.3c0 .6-.5 1-1 1s-1-.5-1-1 .5-1 1-1 1 .5 1 1ZM182.5 278.3c0 .6-.5 1-1 1s-1-.5-1-1 .5-1 1-1 1 .5 1 1Z"/><circle cx="187.4" cy="278.3" r="1"/><path d="M164.5 284.3c0 .6-.5 1-1 1s-1-.5-1-1 .5-1 1-1 1 .5 1 1ZM170.5 284.3c0 .6-.5 1-1 1s-1-.5-1-1 .5-1 1-1 1 .5 1 1ZM176.5 284.3c0 .6-.5 1-1 1s-1-.5-1-1 .5-1 1-1 1 .5 1 1ZM182.5 284.3c0 .6-.5 1-1 1s-1-.5-1-1 .5-1 1-1 1 .5 1 1ZM188.5 284.3c0 .6-.5 1-1 1s-1-.5-1-1 .5-1 1-1 1 .5 1 1ZM164.5 290.3c0 .6-.5 1-1 1s-1-.5-1-1 .5-1 1-1 1 .5 1 1ZM170.5 290.3c0 .6-.5 1-1 1s-1-.5-1-1 .5-1 1-1 1 .5 1 1ZM176.5 290.3c0 .6-.5 1-1 1s-1-.5-1-1 .5-1 1-1 1 .5 1 1ZM182.5 290.3c0 .6-.5 1-1 1s-1-.5-1-1 .5-1 1-1 1 .5 1 1ZM188.5 290.3c0 .6-.5 1-1 1s-1-.5-1-1 .5-1 1-1 1 .5 1 1Z"/></g><g fill="#fff" opacity=".5"><path d="M303.8 129.3c0 .6-.5 1-1 1s-1-.5-1-1 .5-1 1-1 1 .5 1 1ZM309.8 129.3c0 .6-.5 1-1 1s-1-.5-1-1 .5-1 1-1 1 .5 1 1ZM315.7 129.3c0 .6-.5 1-1 1s-1-.5-1-1 .5-1 1-1 1 .5 1 1ZM321.7 129.3c0 .6-.5 1-1 1s-1-.5-1-1 .5-1 1-1 1 .5 1 1ZM327.7 129.3c0 .6-.5 1-1 1s-1-.5-1-1 .5-1 1-1 1 .5 1 1ZM303.8 135.3c0 .6-.5 1-1 1s-1-.5-1-1 .5-1 1-1 1 .5 1 1ZM309.8 135.3c0 .6-.5 1-1 1s-1-.5-1-1 .5-1 1-1 1 .5 1 1ZM315.7 135.3c0 .6-.5 1-1 1s-1-.5-1-1 .5-1 1-1 1 .5 1 1ZM321.7 135.3c0 .6-.5 1-1 1s-1-.5-1-1 .5-1 1-1 1 .5 1 1ZM327.7 135.3c0 .6-.5 1-1 1s-1-.5-1-1 .5-1 1-1 1 .5 1 1Z"/><circle cx="302.7" cy="141.3" r="1"/><path d="M309.8 141.3c0 .6-.5 1-1 1s-1-.5-1-1 .5-1 1-1 1 .5 1 1ZM315.7 141.3c0 .6-.5 1-1 1s-1-.5-1-1 .5-1 1-1 1 .5 1 1ZM321.7 141.3c0 .6-.5 1-1 1s-1-.5-1-1 .5-1 1-1 1 .5 1 1Z"/><circle cx="326.7" cy="141.3" r="1"/><path d="M303.8 147.3c0 .6-.5 1-1 1s-1-.5-1-1 .5-1 1-1 1 .5 1 1ZM309.8 147.3c0 .6-.5 1-1 1s-1-.5-1-1 .5-1 1-1 1 .5 1 1ZM315.7 147.3c0 .6-.5 1-1 1s-1-.5-1-1 .5-1 1-1 1 .5 1 1ZM321.7 147.3c0 .6-.5 1-1 1s-1-.5-1-1 .5-1 1-1 1 .5 1 1ZM327.7 147.3c0 .6-.5 1-1 1s-1-.5-1-1 .5-1 1-1 1 .5 1 1ZM303.8 153.2c0 .6-.5 1-1 1s-1-.5-1-1 .5-1 1-1 1 .5 1 1ZM309.8 153.2c0 .6-.5 1-1 1s-1-.5-1-1 .5-1 1-1 1 .5 1 1ZM315.7 153.2c0 .6-.5 1-1 1s-1-.5-1-1 .5-1 1-1 1 .5 1 1ZM321.7 153.2c0 .6-.5 1-1 1s-1-.5-1-1 .5-1 1-1 1 .5 1 1ZM327.7 153.2c0 .6-.5 1-1 1s-1-.5-1-1 .5-1 1-1 1 .5 1 1Z"/></g><g fill="#fff" opacity=".5"><path d="m296.6 38-11.7 6.9a18.13 18.13 0 0 1 11.7-6.9ZM301.3 38l-18.7 11c.3-.8.6-1.5 1-2.2l15.2-9c.8 0 1.6 0 2.4.2ZM304.6 38.8l-23 13.5c.1-.6.3-1.2.4-1.8l20.7-12.2c.6.1 1.2.3 1.8.5ZM307.3 39.9l-25.9 15.3v-1.6l24.4-14.4c.5.2 1 .4 1.5.7ZM309.6 41.4l-28 16.5c0-.5-.1-1-.1-1.5l26.9-15.9c.4.3.8.5 1.2.8ZM311.4 43.1l-29.3 17.3-.3-1.4 28.7-16.9c.4.3.7.6 1 1ZM313 44.9l-30.1 17.7c-.2-.4-.4-.8-.5-1.3l29.7-17.5c.3.3.6.7.9 1.1ZM314 46.5c0 .2.2.3.3.5l-30.2 17.8c-.1-.1-.2-.3-.3-.5-.1-.2-.3-.5-.4-.7l30.2-17.8c.2.2.3.5.4.7ZM314.8 47.8c.2.4.4.8.5 1.3l-29.8 17.6c-.3-.3-.6-.7-.8-1.1l30.1-17.7ZM315.7 50.1c.1.4.3.9.4 1.4l-28.8 17c-.3-.3-.7-.6-1-1l29.5-17.3ZM316.2 52.5c0 .5.1 1 .2 1.5l-27.2 16-1.2-.9 28.2-16.6ZM316.5 55.2v1.6l-24.7 14.6c-.5-.2-1-.5-1.4-.7l26.2-15.4ZM316.3 58c-.1.6-.2 1.2-.4 1.8l-21.3 12.5c-.6-.2-1.2-.3-1.8-.5L316.2 58ZM315.4 61.3l-.9 2.1-16.1 9.5c-.8 0-1.6 0-2.3-.2l19.3-11.4ZM313.4 65.3c-.8 1.2-1.8 2.3-3 3.3l-5.5 3.2c-1.4.5-2.9.9-4.3 1l12.8-7.5Z"/></g><g fill="#171d29" opacity=".5"><path d="m289.7 295.5-11.7 6.9a18.13 18.13 0 0 1 11.7-6.9ZM294.4 295.5l-18.7 11c.3-.8.6-1.5 1-2.2l15.2-9c.8 0 1.6 0 2.4.2ZM297.8 296.3l-23 13.5c.1-.6.3-1.2.4-1.8l20.7-12.2c.6.1 1.2.3 1.8.5ZM300.5 297.5l-25.9 15.3v-1.6l24.4-14.4c.5.2 1 .4 1.5.7ZM302.7 299l-28 16.5c0-.5-.1-1-.1-1.5l26.9-15.9c.4.3.8.5 1.2.8ZM304.6 300.6l-29.3 17.3-.3-1.4 28.7-16.9c.4.3.7.6 1 1ZM306.2 302.5l-30.1 17.7c-.2-.4-.4-.8-.5-1.3l29.7-17.5c.3.3.6.7.9 1.1ZM307.2 304c0 .2.2.3.3.5l-30.2 17.8c-.1-.1-.2-.3-.3-.5-.1-.2-.3-.5-.4-.7l30.2-17.8c.2.2.3.5.4.7ZM307.9 305.4c.2.4.4.8.5 1.3l-29.8 17.6c-.3-.3-.6-.7-.8-1.1l30.1-17.7ZM308.8 307.6c.1.4.3.9.4 1.4l-28.8 17c-.3-.3-.7-.6-1-1l29.5-17.3ZM309.4 310.1c0 .5.1 1 .2 1.5l-27.2 16-1.2-.9 28.2-16.6ZM309.6 312.7v1.6l-24.7 14.6c-.5-.2-1-.5-1.4-.7l26.2-15.4ZM309.4 315.6c-.1.6-.2 1.2-.4 1.8l-21.3 12.5c-.6-.2-1.2-.3-1.8-.5l23.4-13.8ZM308.6 318.9l-.9 2.1-16.1 9.5c-.8 0-1.6 0-2.3-.2l19.3-11.4ZM306.5 322.8c-.8 1.2-1.8 2.3-3 3.3l-5.5 3.2c-1.4.5-2.9.9-4.3 1l12.8-7.5Z"/></g><g fill="#171d29"><rect width="89.6" height="1.8" x="238.6" y="10.3" rx=".9" ry=".9"/><rect width="89.6" height="1.8" x="238.6" y="13.4" rx=".9" ry=".9"/><rect width="89.6" height="1.8" x="238.6" y="16.5" rx=".9" ry=".9"/><rect width="89.6" height="1.8" x="238.6" y="19.6" rx=".9" ry=".9"/><rect width="89.6" height="1.8" x="238.6" y="22.6" rx=".9" ry=".9"/><rect width="89.6" height="1.8" x="238.6" y="7.2" rx=".9" ry=".9"/></g><path fill="#fff" d="M239.7 155.6c-3.4 0-6.2 2.8-6.2 6.2s.4 2.6 1.2 3.6l5 8.6 5-8.6c.7-1 1.2-2.3 1.2-3.6 0-3.4-2.8-6.2-6.2-6.2Zm0 9c-1.5 0-2.7-1.2-2.7-2.7s1.2-2.7 2.7-2.7 2.7 1.2 2.7 2.7-1.2 2.7-2.7 2.7Z"/><g fill="#fff" opacity=".5"><path d="m133.8 143.2-11.7 6.9a18.13 18.13 0 0 1 11.7-6.9ZM138.5 143.2l-18.7 11c.3-.8.6-1.5 1-2.2l15.2-9c.8 0 1.6 0 2.4.2ZM141.9 144l-23 13.5c.1-.6.3-1.2.4-1.8l20.7-12.2c.6.1 1.2.3 1.8.5ZM144.6 145.2l-25.9 15.3v-1.6l24.4-14.4c.5.2 1 .4 1.5.7ZM146.8 146.7l-28 16.5c0-.5-.1-1-.1-1.5l26.9-15.9c.4.3.8.5 1.2.8ZM148.7 148.3l-29.3 17.3-.3-1.4 28.7-16.9c.4.3.7.6 1 1ZM150.3 150.2l-30.1 17.7c-.2-.4-.4-.8-.5-1.3l29.7-17.5c.3.3.6.7.9 1.1ZM151.3 151.7c0 .2.2.3.3.5L121.4 170c-.1-.1-.2-.3-.3-.5-.1-.2-.3-.5-.4-.7l30.2-17.8c.2.2.3.5.4.7ZM152 153.1c.2.4.4.8.5 1.3L122.7 172c-.3-.3-.6-.7-.8-1.1l30.1-17.7ZM152.9 155.4c.1.4.3.9.4 1.4l-28.8 17c-.3-.3-.7-.6-1-1l29.5-17.3ZM153.5 157.8c0 .5.1 1 .2 1.5l-27.2 16-1.2-.9 28.2-16.6ZM153.7 160.4v1.6L129 176.6c-.5-.2-1-.5-1.4-.7l26.2-15.4ZM153.5 163.3c-.1.6-.2 1.2-.4 1.8l-21.3 12.5c-.6-.2-1.2-.3-1.8-.5l23.4-13.8ZM152.7 166.6l-.9 2.1-16.1 9.5c-.8 0-1.6 0-2.3-.2l19.3-11.4ZM150.7 170.6c-.8 1.2-1.8 2.3-3 3.3l-5.5 3.2c-1.4.5-2.9.9-4.3 1l12.8-7.5Z"/></g><circle cx="77.8" cy="255.4" r="77.8" fill="#e01339"/><g fill="#f2f2f2"><path d="M87 314.6v6.1c0 1.5-1.3 2.8-2.8 2.8H70.5c-1.5 0-2.8-1.3-2.8-2.8V307c0-1.5 1.3-2.8 2.8-2.8h6.2c.4 0 .8.3.8.8s-.3.8-.8.8h-5.9c-.9 0-1.7.8-1.7 1.7v13c0 .9.8 1.7 1.7 1.7h13c.9 0 1.7-.8 1.7-1.7v-5.8c0-.4.3-.8.8-.8.4 0 .8.3.8.8ZM87.92 303.35a3.16 3.16 0 0 1 0 4.52l-.35.36-4.53-4.53.36-.35a3.16 3.16 0 0 1 4.52 0Z"/><path d="m86.7 309-6.8 6.8h-.3l-4.4.6c-.2 0-.5-.2-.5-.5l.6-4.4v-.3l6.8-6.8 4.5 4.5Z"/></g></svg>