<?xml version="1.0" encoding="UTF-8"?><svg id="uuid-b953e32d-6f4c-43ee-93c6-78896f8bbee1" xmlns="http://www.w3.org/2000/svg" width="335" height="335" xmlns:xlink="http://www.w3.org/1999/xlink" viewBox="0 0 335 335"><defs><clipPath id="uuid-b93fc3de-e54a-476c-8853-6d844d2b1b06"><rect width="335" height="335" fill="none"/></clipPath></defs><g clip-path="url(#uuid-b93fc3de-e54a-476c-8853-6d844d2b1b06)"><g><path d="M0,0H335V335H0V0Z" fill="#fff"/><path d="M335,167.5L0,141.8V0H335V167.5Z" fill="#ed1c24"/><path d="M335,156.5L0,141.8V0H335V156.5Z" fill="#231f20"/><path d="M277.5,256.9l-38.6,42,65.4-12.8-26.8-29.2Zm-23,20.2l-31,23.2,6.6,4,24.3-27.2h0Zm-21.8,56.4l102.3-31.5v33l-102.3-1.5ZM0,142.3v18.2l335,2.3L0,142.3Z" fill="#ed1c24"/><g><path d="M324,115c-1.7-1.6-4-2-5.2-2.7-1-.6-1.9-1.3-2.8-2.1-.6-.7-1.5-1.1-2.4-1.2-1.6-.3-3-1.2-4-1.5-1.3-.5-2.5-1-3.7-1.7-.5-.8-1-1.6-1.6-2.3-.1,0,1.7-4.7,1-7,0-.3-.2-.6-.4-.8,0,0,0-.2-.1-.2,0-.2,0-.5-.2-.7l-.4-.8h-.1l.4,.4-.4-.6c-.2-.4-.5-.7-.9-1l-.4-.2-.3-.2,.5,.2,.6,.2-.5-.4-1-.3c0,0-.1-.3-.1-.4v-.2c-.1-.4-.4-.7-.7-1h-.1l-.7-.3h-.8l-.5-.2h.1c-.5-.2-1-.4-1.6-.4h-1.3c-.3,0-.6,0-.9,0h-3l.7,.2h-.4l-.5-.2,.3,.3h-1.5l-1,.3h-1l.7,.3h-1l-.7-.2,.6,.3h-.3l.4,.2h-.7l-.5-.3,.4,.4h-1l-.5-.2,.3,.2h-.6l-.4-.2,.2,.2h-.4l.2,.2h-.2q0,0,.1,0h-.4q-.1,0-.1,0h-.1c0,0-.1,0-.1,.2h-.2v.2h0v.2l-.2-.2v.2h0v.2c0,.2-.1,.3-.1,.5,0,.4,0,.9,.2,1.3l.2,.3v.3h0l.3,.4h0v-.2l-.4-.5c0,.2,.2,.4,.4,.6,0,.1,.1,.2,.3,.3h0l.6,.4,.4,.3c-.1,.6-.2,1.1-.1,1.7,0,.7,0,1.4-.3,2-.3,.8-.3,1.6-.1,2.4,.4,.8,1,1,.8,1.3l-.2,.3s-4.7-1-6.2-.8-4.4,1.2-5,1c-1-.4-2-.6-3.1-.7h-3c-.4,0-3-.4-4,0s-3-.3-4-.4l-11,.5c-1.9,.2-3.8,.6-5.6,1.2-1.8,.5-2.3,0-3,0-.4,.1-.7,.6-.6,1-.1,.2,.1,1-.2,1h-1.9l-3.6-1.3h-.5c-.1,0-.2,.3-.3,.3-.2,0-.4,0-.5,.2-1,.9-1.8,1.9-2.4,3.1-.1,.5,.1,.7,.4,1l.3,.4c-.1,0-.3,.5-.2,.7l.6,.8c.3,0,.7,0,1,0,.3,0,.5,0,.7,.2l.8,.2,1,.5c.2,0,.4-.4,.4-.5,0-.2,.1-.4,.2-.6,.6,.1,1.3,0,1.9,0l1.6-.5c.1,0,.1-.2,.5,0,.3,.2,.5,.4,.7,.7v1.7c-.1,.2,.5,.4,1.2,.5s3-.2,4.4,.5,3.8-.2,6-.8,6.6,1.2,10,1.6h0l3.7,.3,5,1.3c.7,0,1.4,.1,2.1,.4l-1.7,2.7-2.3,3s-4-3.8-6-3.4-3,.3-4-.2-2-1-2-.7-.5,3-.5,3c-1.9,.8-3.9,1.5-5.9,2.1-1.2,.2-3.3,0-4.4,.5s-1.4,.2-2.4,0c-.9-.1-1.7,0-2.6,0-.7,0-2.5,1-3.5,1s-3-.3-3.6-.2-5.6,.2-7,.6-5.2,.7-7.4,2c-2.2,1.3-5,.3-5.5,.5l-1.3,.6-.3,1-2.8,.2c-.7,0-1.4,0-2.1,.2-.8,.2-2-.3-2.8-.3l-2,.2-.6-.4h-.4s0-.6-.7-.4c-.5,.1-1,.6-1.1,1.1,0,.4-.2,1-.2,1.5,.2,.6,.4,1.1,.7,1.6,.2,.5,.1,.8,.3,1.4,.3,.5,.7,1,1.2,1.3h.8c.4,.1,.9,0,1.3-.1,.4-.1,.7-.3,1-.6h3l2.6-.5,1.8-.5c.6,1,1.1,2.1,1.6,3.2,1,2.4,1.7,2.4,2.6,2.2,4.3-.7,8.6-1.2,13-1.4,2.4,.1,3.4,.5,4.3,.4l2.2-.2c.7,.8,1.5,1.5,2.4,2,2,.9,4,1.6,6.1,2.1,2.2,.4,3,0,4,.3l4.3,1.3c-.8,1.7-2,3.5-1,3.5s6.7,2.5,11.3,3.5,7.4,0,10.6,1c1.1,.4,2.3,.5,3.5,.3,.3,.5,.5,1,2,1s4.3-.5,4.5-.5-.1-.3,.6,0,5.5-5.7,6-6.5-.6-4.6-.6-4.6c.9,1.7,2.5,2.9,4.3,3.3,2.8,.3,6.4,2.2,9,4.3s3,4,3.3,3.7,2.2-2,2.2-2c-1.1-2.2-2.9-4.1-5.1-5.3-3.3-1.6-6.5-2.2-7.7-2.8-1.6-1-3-2.2-4.3-3.6l-1.4-1-.3-1c1.4,1.1,2.9,2.2,4.5,3.1l6,3.3,1.2-2.2-8.7-4.5-2.7-1.5c.6-.2,1.2-.6,1.7-1,1-1,1.3-1.5,2.3-1.5,1.1,.2,2.2,.1,3.3-.1,2.3-.3,3.4-1.4,4.2-1.6l2.5-.6c.3,0,1.7-3.5,3-3.6,1.1-.1,2.1-.4,3.1-.7l-3.3,3.7c-.6,.7-1.2,1.2-2,1.7l-3,1.5c-.7,.4-1.2,1-1.7,1.6-.7,.3-1.3,.8-1.8,1.3-.4,.5-.5,1-.3,1l1,.4,.4,.8,.6,.3c0,.3,.2,.6,.5,.8l1,.2c.7,.5,1.4,.9,2.1,1.2,.6,.2,1,.1,1-.1l.4-.3h.7c.4-.2,2.3-2,2.4-2.7s0-2.2,.3-2.4l4.2-4c.7,.2,1.5,.1,2.2-.2,1.3-.5,1.6-1.4,2.4-1.6s.6-2.7,1.4-3c1.4-.7,2.8-1.7,3.9-2.8,.6-.9,1.1-1.8,1.5-2.8,.2-1.1,.2-2.1,.2-3.2,.1-.5,.3-1-1.3-2.6l-.2-.4Zm-62,23.7h-1.5l-1.6-.2-1.6,1.3c-1.5-.1-3-.4-4.5-.8-.7-.2-1.3-.6-1.7-1.2,.5,0,3.2,.7,4.2-.1s2-.6,3.7-.6c1.5,0,3.1,0,4.6-.2,3.6-.7,0,.7-1.5,1.8h-.1Zm35.7-49.2h0l.7,.2h-.1l-.6-.2Zm-11,6h0q0,0-.1,0h0q0,0-.1,0h.2Zm-.6-4.4h0l.3,.2h-.3q0,0-.1,0h.1Zm-1,.7h0c.1,0,.1,.2,.2,.2h-.2v-.2Zm-.3,0h0c.1,0,.1,0,.1,.3v.2c0,.2,0,.4,.1,.6v.2h0c0-.3-.1-.6-.1-.8,0-.2-.1-.3-.1-.5Zm.5,2.3h0c0,0-.1-.2-.1-.3h0v.2c0,.2,.1,.3,.2,.5v-.4Z" fill="#fff" fill-rule="evenodd"/><path d="M153.4,304.4c-1,1.2-1,1.5-1,1.8,0,.8,0,1.5,.2,2.3,.6,1.7,2,3.1,3.7,3.8,.5,.2,.4,2,1,2s.8,.8,1.7,1c.5,.3,1,.3,1.5,.1l3,2.7c0,.5,.1,1.1,.1,1.6,.4,.7,1,1.4,1.7,1.9,.3,.2,.4,0,.4,0l.3,.2c.2,.2,.5,.2,.8,.1l1.4-.8,.8-.2c.2,0,.4-.3,.3-.5h0c.3-.2,.5-.4,.7-.7l.6-.3c.2-.2,.1-.5-.2-.8-.3-.4-.8-.7-1.2-.9-.3-.4-.7-.8-1.2-1.1l-2-1c-.6-.3-1-.7-1.4-1.2-.8-.8-1.6-1.6-2.3-2.5l2,.4c.8,.1,1.8,2.5,2,2.5l1.7,.4c.9,.6,1.9,1,2.9,1.2,.7,.2,1.5,.2,2.2,0,.7,0,1,.4,1.6,1,.4,.3,.8,.5,1.2,.6l-1.8,1-6,3,1,1.5,4-2.2c1.2-.7,2.2-1.5,3-2l-.2,.7-1,.7c-.8,1-1.8,1.8-2.9,2.5-.8,.4-3,1-5.3,2-1.5,.8-2.7,2.1-3.5,3.6l1.5,1.5c.2,.2,.5-1,2.3-2.5,1.8-1.5,3.9-2.6,6.2-3,1.2-.3,2.3-1,2.9-2.1-.3,1-.4,2.1-.4,3.1,.2,.6,3.6,4.6,4,4.5h.4c1,.2,2.1,.3,3.1,.3,1,0,1-.3,1.3-.6,.8,0,1.6,0,2.4-.2,2.2-.7,4.2,0,7.3-.7s6.8-2.4,7.7-2.4-.1-1.2-.7-2.4l3-1c.6-.2,1,.1,2.6-.2,1.5-.3,2.9-.8,4.2-1.4,.6-.3,1.2-.8,1.6-1.4l1.5,.2c.6,.1,1.3-.2,3-.3,3,.2,6,.5,8.9,1,.6,.1,1,.1,1.7-1.5,.3-.8,.7-1.5,1.2-2.2l1.2,.3c.6,.2,1.2,.3,1.8,.3h2l.7,.4c.3,.1,.6,.2,.9,.1h.6c.2-.2,.7-.6,.8-1s0-.6,.2-1c.2-.3,.3-.7,.4-1.1,.1-.4-.1-.7-.1-1s-.2-.6-.7-.7-.5,.2-.5,.2h-.3l-.4,.3-1.3-.2-2,.2c-.5-.1-.9-.2-1.4-.1l-2-.2-.3-.7-.8-.4c-.4-.2-2.3,.5-3.8-.4s-4-1-5-1.4-4.2-.1-4.8-.3-1.8,.2-2.5,.1-1.8-.7-2.3-.8h-1.8c-.7,0-1,.4-1.6-.1s-2.2-.2-3-.3l-4-1.4s-.3-2-.4-2-.6,.2-1.3,.5c-.9,.3-1.9,.3-2.8,.1-1.4-.2-4,2.4-4,2.4l-1.6-2c-.4-.6-.8-1.2-1.1-1.9,.4-.2,.9-.2,1.4-.2,.6,.1,2-.5,3.3-1l2.6-.2h0c2.4-.3,5.3-1.5,7-1s3,1,4.2,.5c1-.2,1.9-.3,2.9-.3,.6-.1,1-.2,1-.4v-1c.1-.2,.3-.4,.4-.4h.4l1,.4c.4,0,.9,0,1.3,0l.2,.4c-.1,.1,.1,.4,.2,.4l.6-.4h.5l.5-.2c.2,.1,.6,.2,.7,.1s.4-.3,.4-.5,0-.5-.1-.5l.2-.3c.2-.3,.4-.4,.3-.8l-1.6-2h-.4c-.1,0-.1-.1-.2-.2h-.4l-2.6,1h-1c-.2,.1-.1-.5-.1-.7s0-.5-.5-.6c-.7,0-1.3,0-2-.1-1.2-.4-2.5-.7-3.8-.8l-7.5-.4c-.6,.1-2,.6-2.7,.3-.9-.2-1.8-.2-2.7,0h-2c-.7,0-1.4,.2-2.1,.5l-3.4-.8c-1.4,0-2.8,.2-4.2,.5,0,0-.2,.1-.2-.1s.3-.4,.6-1c.2-.5,.1-1.1-.1-1.6-.2-.5-.2-1-.2-1.5,0-.4,0-.8-.1-1.1l.3-.2,.4-.3h.1v-.2l.2-.4-.3,.4h-.1v-.2h0v-.2h.1c.1-.3,.2-.6,.2-.9,0-.1-.1-.3-.1-.4h0q0-.1-.1-.1h-.1q.1-.1,.1-.2h-.1c0-.1-.1-.1-.1-.2h0q0-.1-.1-.1h-1.2l.2-.2h-.8l.3-.2h-.4q-.1,0-.1,.1h-.3l.4-.2h-1.2l.4-.2h-.7l-.7-.2h-4.4l-1,.2h.1q0-.1,.1-.1h-.2c0,.1-.2,.1-.3,.1h-.5l-.5,.2h0c-.2,.2-.4,.4-.5,.7h0q0,.1-.1,.2l-.6,.3-.4,.3,.4-.2h-.1l-.6,.7-.3,.4,.3-.2h-.1c-.1,.1-.2,.3-.2,.5-.1,.2-.2,.3-.2,.5h-.1c0,.2,0,.4-.2,.6-.6,1.6,.7,4.7,.6,4.8-.4,.5-.8,1-1.1,1.6l-2.5,1c-.8,.2-1.7,1-2.7,1-.7,0-1.3,.3-1.7,.8-.6,.5-1.2,1-1.9,1.4-.8,.5-2.4,.7-3.6,1.8v.3Zm42.4,16.3h-.1c-1-.8-3.5-1.7-1-1.2h3c1.2,0,2-.2,2.6,.4s2.5,.1,3,.1c-.3,.4-.7,.7-1.2,.8-1,.3-2.1,.5-3.1,.6l-1-1c-.3-.1-.7,.1-1.2,.1l-1,.2Zm-16-32.5q0,.1,.1,.1h-.1Zm.2,.4h0Zm.1,0q.1,0,.1,.1h0c0,.1-.1,.2-.1,.3,0,.2,0,.4-.1,.6h0c0-.1,.1-.3,.1-.5h0v-.5Zm-.4,1.8v-.3h0v.2h0c-.1,0-.2,0-.2,.1h.2Z" fill="#231f20" fill-rule="evenodd"/></g><g><path d="M327.3,3.7c-.4,0-.7-.3-.7-.7h0c0-.4,.4-.8,.8-.8,.4,0,.7,.4,.7,.8,0,.4-.4,.7-.8,.7Zm-.1,4.8c-.4,0-.8-.4-.8-.8,0-.4,.4-.7,.8-.7,.4,0,.7,.3,.7,.7h0c0,.4-.3,.7-.7,.7h0Zm-.2,4.8c-.4,0-.7-.3-.7-.7h0c0-.4,.4-.8,.8-.8,.4,0,.7,.4,.7,.8,0,.4-.3,.7-.7,.7h0Z" fill="#fff"/><path id="uuid-7ce6e362-1899-4be3-9478-0a41818023ed" d="M327,18c-.4,0-.7-.4-.7-.8,0-.4,.3-.7,.7-.7h0c.4,0,.8,.4,.8,.8,0,.4-.4,.7-.8,.7Z" fill="#fff"/><path id="uuid-8e1836b6-c052-46e4-a5b5-9b947523e041" d="M326.8,22.8c-.5-.1-.8-.4-.8-.8s.3-.7,.7-.7h.1c.4,0,.7,.3,.7,.7h0c0,.4-.3,.7-.7,.8h0Z" fill="#fff"/><path d="M326.6,27.5c-.4,.1-.9,0-1-.5-.1-.4,.1-.9,.6-1,0,0,0,0,0,0,.1-.1,.4-.1,.5,0,.4-.1,.9,0,1,.5,.1,.4-.1,.9-.6,1,0,0,0,0,0,0-.1,.1-.4,.1-.5,0Zm-.1,4.8c-.4,0-.7-.3-.7-.7h0c0-.4,.3-.7,.7-.7h0c.4,0,.8,.3,.7,.7s-.2,.7-.6,.8h-.1Zm-.2,4.6c-.4,0-.7-.3-.7-.7h0c-.1-.4,0-.9,.5-1,.4-.1,.9,.1,1,.6,0,0,0,0,0,0,.1,.1,.1,.4,0,.5,0,.4-.3,.7-.7,.7h0Zm-2.3-33.5c-.4,0-.8-.3-.7-.7,0-.4,.3-.7,.7-.8,.4,0,.8,.4,.7,.8,0,.4-.3,.7-.7,.7h0Zm-.2,4.8c-.4,0-.8-.4-.8-.8,0-.4,.4-.8,.8-.8,.4,0,.8,.4,.8,.8h0c0,.4-.3,.7-.7,.7h0Zm-.1,4.7c-.4,0-.7-.3-.7-.7h0c0-.4,.3-.8,.7-.7,.4,0,.7,.3,.7,.7,0,.4-.3,.7-.7,.7Zm-.1,5c-.4,0-.8-.4-.8-.8-.1-.4,.1-.9,.5-1,.4-.1,.9,.1,1,.5,0,.2,0,.4,0,.5,0,.4-.3,.7-.7,.7h0Zm-.2,4.7c-.4,.1-.9-.1-1-.5-.1-.4,.1-.9,.5-1,.2,0,.4,0,.5,0,.4,0,.7,.3,.7,.7h0c0,.4-.4,.8-.8,.8h0Z" fill="#fff"/><path id="uuid-c6055453-5f29-4582-8a78-80396feed088" d="M323.3,27.4c-.4,0-.7-.3-.7-.7h0c0-.4,.3-.7,.7-.7h0c.4,0,.8,.4,.8,.8,0,.4-.4,.6-.8,.6Z" fill="#fff"/><path d="M323.2,32.2c-.4,0-.8-.4-.8-.8,0-.4,.4-.7,.8-.7,.4,0,.7,.3,.7,.7h0c.1,.4-.2,.7-.6,.8h-.1Z" fill="#fff"/><circle cx="323.5" cy="34.8" r=".7" transform="translate(218.6 342.8) rotate(-77.3)" fill="#fff"/><path d="M320.7,3.5c-.4,0-.7-.2-.8-.6h0c0-.4,.4-.8,.8-.8,.4,0,.7,.4,.7,.8,0,.3-.3,.7-.7,.6Zm-.2,4.8c-.4,0-.7-.4-.7-.8,0-.4,.3-.7,.7-.7h.1c.4,.2,.6,.6,.4,1,0,0,0,0,0,0-.1,.2-.3,.3-.5,.4Zm-.1,4.7c-.4-.1-.8-.4-.8-.8,0-.4,.3-.7,.7-.7,0,0,0,0,.1,0,.4,.1,.8,.3,.7,.7,0,.4-.3,.7-.7,.8Z" fill="#fff"/><path id="uuid-ac571140-b4c3-4175-96a4-287caf80322b" d="M320.2,17.8c-.4,0-.8-.4-.8-.8s.4-.8,.8-.8c.4,0,.8,.4,.8,.8h0c0,.4-.4,.8-.8,.8Z" fill="#fff"/><path id="uuid-06dd3c3f-c4b9-4323-8653-496659ab5f69" d="M320,22.6c-.4,0-.7-.4-.7-.8,0-.4,.3-.7,.7-.7h0c.4-.1,.7,.2,.8,.6h0c0,.5-.3,.8-.8,.9Z" fill="#fff"/><path d="M320,27.3c-.4,.1-.7-.2-.8-.6v-.2c-.1-.4,0-.9,.5-1,.4-.1,.9,.1,1,.6,0,0,0,0,0,0,.1,.1,.1,.4,0,.5,0,.4-.3,.7-.7,.7h0Zm-.2,4.7c-.4-.2-.6-.6-.4-1,0,0,0,0,0,0,.1-.2,.3-.3,.5-.4,.4,0,.7,.3,.7,.7h0c0,.4-.4,.8-.8,.8h0Zm-.1,4.8c-.4,0-.8-.3-.7-.7s.2-.7,.6-.8h.1c.4,0,.8,.4,.8,.8,0,.4-.4,.7-.8,.7Zm-2.4-33.4c-.4,0-.7-.3-.7-.7h0c0-.4,.4-.8,.8-.8,.4,0,.7,.4,.7,.8,0,.4-.3,.7-.7,.7h0Zm-.1,4.8c-.4,0-.7-.3-.7-.7h0c0-.4,.3-.7,.7-.7h0c.4,0,.8,.4,.8,.8,0,.4-.4,.6-.8,.6Z" fill="#fff"/><path id="uuid-718e2274-824c-4470-81e5-e6ddb5a0aa55" d="M317,13c-.4,0-.7-.4-.7-.8,0-.4,.3-.7,.7-.7h.1c.4,0,.7,.3,.7,.7h0c0,.4-.4,.8-.8,.8h0Z" fill="#fff"/><path id="uuid-ebde7bdb-f6e6-4ddc-aed6-a2b204210276" d="M317,17.7c-.4,.1-.9,0-1-.5-.1-.4,.1-.9,.6-1,0,0,0,0,0,0h.5c.4,.2,.6,.6,.4,1,0,0,0,0,0,0-.1,.2-.3,.3-.5,.4Z" fill="#fff"/><path d="M316.8,22.5c-.4,0-.8-.4-.8-.8,0-.4,.4-.7,.8-.7,.4,0,.8,.3,.7,.7s-.2,.7-.6,.8h-.1Zm-.2,4.7c-.4,0-.7-.3-.7-.7h0c0-.4,.4-.8,.8-.8s.8,.4,.8,.8-.4,.8-.8,.8h0Zm-.1,4.7c-.4,0-.7-.4-.7-.8,0-.4,.3-.7,.7-.7h0c.4,0,.7,.3,.8,.7,0,.4-.4,.8-.8,.8Zm-.1,4.7c-.4,0-.7-.2-.8-.6h0c0-.4,.4-.8,.8-.8,.4,0,.7,.4,.7,.8,0,.4-.3,.7-.7,.7h0Zm-2.4-33.5c-.4,0-.7-.3-.7-.7h0c0-.4,.3-.8,.7-.7,.4,0,.7,.3,.7,.7s-.3,.7-.7,.7h0Z" fill="#fff"/><path id="uuid-c8b88177-24f5-41ce-9482-b724fd88aa10" d="M314,8c-.4,0-.8-.4-.8-.8-.1-.4,0-.9,.5-1,.4-.1,.9,.1,1,.6,0,0,0,0,0,0,.1,.1,.1,.4,0,.5,0,.4-.3,.7-.7,.7h0Z" fill="#fff"/><path d="M313.7,13c-.4,0-.7-.4-.7-.8,0-.4,.3-.7,.7-.7h.1c.4,0,.7,.3,.7,.7h0c0,.4-.4,.8-.8,.8h0Zm-.1,4.6c-.4,0-.7-.3-.7-.7h0c0-.4,.3-.7,.7-.7h0c.4,0,.7,.3,.7,.7h0c0,.4-.3,.7-.7,.7h0Zm-.2,4.8c-.4,.1-.9,0-1-.5-.1-.4,.1-.9,.6-1,0,0,0,0,0,0h.5c.4,0,.7,.3,.7,.7h0c.1,.4-.2,.7-.6,.8h-.2Z" fill="#fff"/><path id="uuid-bbf8f74b-c0ec-4a63-8009-f18c87a15587" d="M313.3,27c-.4,0-.7-.3-.7-.7h0c-.1-.4,.2-.7,.6-.8h.1c.4,0,.8,.4,.8,.8,0,.4-.4,.7-.8,.7Z" fill="#fff"/><path id="uuid-b12b96a6-8514-4814-b2b1-60aacb6f7678" d="M313.2,32c-.4,0-.8-.4-.8-.8,0-.4,.4-.7,.8-.7,.4,0,.7,.3,.7,.7h0c0,.4-.3,.7-.7,.7h0Z" fill="#fff"/><circle cx="313.4" cy="34.6" r=".7" transform="translate(211 332.8) rotate(-77.3)" fill="#fff"/><path d="M310.7,3.3c-.4,0-.8-.4-.8-.8,0-.4,.3-.7,.7-.7,0,0,0,0,.1,0,.4,0,.7,.3,.7,.7h0c0,.4-.3,.7-.7,.8Zm-.2,4.7c-.4,0-.8-.4-.8-.8,0-.4,.4-.8,.8-.8,.4,0,.8,.4,.8,.8h0c0,.4-.4,.8-.8,.8Zm-.1,4.8c-.4,0-.7-.4-.7-.8,0-.4,.3-.7,.7-.7h0c.4,0,.7,.3,.8,.7-.1,.4-.4,.8-.8,.8Zm-.1,4.7c-.4,.1-.7-.2-.8-.6v-.2c-.1-.4,0-.9,.5-1,.4-.1,.9,.1,1,.6,0,0,0,0,0,0,.1,.1,.1,.4,0,.5,0,.4-.3,.7-.7,.7h0Zm-.3,4.8c-.4,0-.7-.4-.7-.8,0-.4,.3-.7,.7-.7h.1c.4,0,.7,.3,.7,.7h0c0,.4-.4,.8-.8,.8h0Zm0,4.7c-.4,0-.7-.3-.8-.7,.1-.5,.4-.8,.8-.8,.4,0,.7,.3,.7,.7h0c0,.4-.3,.7-.7,.7h0Zm-.2,4.9c-.4-.2-.6-.6-.4-1,0,0,0,0,0,0,.1-.2,.3-.3,.5-.4,.4,0,.7,.3,.7,.7h0c0,.4-.4,.8-.8,.8h0Zm-.1,4.7c-.4,0-.7-.3-.7-.7h0c0-.4,.3-.7,.7-.8,.5,0,.8,.4,.8,.8,0,.4-.4,.7-.8,.7Zm-2.4-33.3c-.4,0-.7-.4-.7-.8,0-.4,.3-.7,.7-.7h.1c.4,0,.7,.3,.7,.7h0c0,.4-.4,.8-.8,.8h0Zm-.1,4.8c-.4,0-.7-.3-.7-.7h0c0-.4,.3-.7,.7-.7h0c.4,0,.8,.4,.8,.8,0,.4-.4,.6-.8,.6Z" fill="#fff"/><path id="uuid-f8798494-63a4-46ed-b7fb-dccf1d7ff967" d="M307,12.7c-.4,0-.8-.4-.8-.8,0-.4,.4-.7,.8-.7,.4,0,.7,.3,.7,.7h0c.1,.4-.2,.7-.6,.8h-.1Z" fill="#fff"/><path d="M307,17.4c-.4,0-.7-.3-.7-.7h0c0-.4,.4-.8,.8-.8,.4,0,.8,.4,.8,.8s-.4,.8-.8,.8h0Zm-.2,4.7c-.4,0-.7-.3-.7-.7h0c0-.4,.3-.7,.7-.7h0c.4,0,.7,.3,.8,.7-.1,.4-.4,.7-.8,.7Z" fill="#fff"/><path id="uuid-e3f11190-781c-45fc-9cd0-eab4b45bd4f8" d="M306.6,27c-.4,0-.7-.3-.7-.7h0c0-.4,.4-.8,.8-.8,.4,0,.7,.4,.7,.8,0,.4-.3,.7-.7,.7h0Z" fill="#fff"/><path d="M306.5,31.7c-.4,0-.7-.4-.7-.8-.1-.4,0-.9,.5-1,.4-.1,.9,.1,1,.6,0,0,0,0,0,0,.1,.1,.1,.4,0,.5,0,.4-.4,.7-.8,.7Zm-.1,4.7c-.4,0-.7-.3-.8-.7,.1-.4,.4-.8,.8-.8,.4,0,.7,.3,.7,.7,0,0,0,0,0,.1,0,.4-.3,.7-.7,.7h0Zm-2.4-33.4c-.4,0-.7-.4-.7-.8,0-.4,.3-.7,.7-.7h.1c.4,0,.7,.3,.7,.7h0c0,.4-.4,.8-.8,.8h0Zm0,4.8c-.4,0-.8-.4-.8-.8,0-.4,.4-.7,.8-.7,.4,0,.7,.3,.7,.7h0c0,.4-.3,.7-.7,.7h0Zm-.3,4.9c-.4,.1-.9,0-1-.5-.1-.4,.1-.9,.6-1,0,0,0,0,0,0h.5c.4,0,.7,.3,.7,.7h0c0,.4-.4,.8-.8,.8h0Z" fill="#fff"/><circle cx="303.9" cy="15.2" r=".7" transform="translate(222.5 308.4) rotate(-77.3)" fill="#fff"/><path d="M303.5,22c-.4,0-.8-.4-.8-.8,0-.4,.4-.7,.8-.7,.4,0,.7,.3,.7,.7h0c0,.4-.3,.7-.7,.7h0Zm-.2,4.9c-.4,0-.7-.3-.7-.7h0c-.1-.4,.2-.7,.6-.8h.2c.4,.2,.6,.6,.4,1,0,0,0,0,0,0-.1,.2-.3,.3-.5,.4Zm-.1,4.8c-.4,0-.7-.3-.7-.7h0c0-.4,.3-.7,.7-.7h0c.4,0,.7,.3,.7,.7h0c0,.4-.3,.7-.7,.7h0Zm-.2,4.7c-.4,0-.7-.3-.7-.7h0c0-.4,.4-.8,.8-.8,.4,0,.7,.4,.7,.8,0,.4-.3,.7-.7,.7h0Zm-2.3-33.3c-.4,0-.8-.4-.7-.8,0-.4,.3-.7,.7-.7h0c.4,0,.7,.3,.8,.7-.1,.4-.4,.8-.8,.8Zm-.2,4.7c-.4,0-.7-.3-.7-.7h0c-.1-.4,0-.9,.5-1,.4-.1,.9,.1,1,.6,0,0,0,0,0,0,.1,.1,.1,.4,0,.5,0,.4-.3,.7-.7,.7h0Zm-.1,4.7c-.4,0-.7-.4-.7-.8,0-.4,.3-.7,.7-.7h0c.4-.1,.7,.2,.8,.6h0c0,.5-.3,.8-.8,.9Z" fill="#fff"/><circle cx="300.1" cy="15.8" r=".7" transform="translate(209.9 302.4) rotate(-75.5)" fill="#fff"/><path id="uuid-1860878e-0720-40c8-8a80-4a6e86a6714c" d="M300,22c-.4,.1-.9,0-1-.5-.1-.4,.1-.9,.6-1,0,0,0,0,0,0,.1-.1,.4-.1,.5,0,.4,0,.7,.3,.7,.7h0c0,.4-.4,.8-.8,.8h0Z" fill="#fff"/><path d="M300,26.7c-.4,0-.7-.3-.7-.7h0c0-.4,.3-.7,.7-.8,.4,.1,.8,.4,.8,.8,0,.4-.4,.7-.8,.7Zm0,4.8c-.4,0-.8-.4-.8-.8-.1-.4,0-.9,.5-1,.4-.1,.9,.1,1,.6,0,0,0,0,0,0,.1,.1,.1,.4,0,.5,0,.4-.3,.7-.7,.7h0Zm-.3,4.7c-.4,0-.7-.3-.7-.7h0c0-.4,.4-.8,.8-.8,.4,0,.7,.4,.7,.8,0,.4-.3,.7-.7,.7h0Zm-2.3-33.2c-.4,0-.8-.4-.8-.8,0-.4,.4-.7,.8-.7,.4,0,.7,.3,.7,.7h0c.1,.4-.2,.7-.6,.8h-.1Zm-.2,4.6c-.4,0-.7-.3-.7-.7h0c0-.4,.3-.7,.7-.7h.1c.4,.2,.6,.6,.4,1,0,0,0,0,0,0-.1,.2-.3,.3-.5,.4h0Zm-.2,4.7c-.4,0-.7-.3-.7-.7h0c0-.4,.3-.7,.7-.7h0c.4,0,.8,.3,.7,.7s-.2,.7-.6,.8h-.1Zm0,4.5c-.4,0-.7-.3-.7-.7h0c0-.4,.4-.8,.8-.8,.4,0,.7,.4,.7,.8,0,.4-.3,.7-.7,.7h0Z" fill="#fff"/><path id="uuid-cd8965ab-1a2d-41a6-b999-598756cb49f8" d="M296.8,22c-.4,0-.7-.4-.7-.8,0-.4,.3-.7,.7-.7h0c.4-.1,.7,.2,.8,.6v.2c0,.4-.4,.7-.8,.7Z" fill="#fff"/><path d="M296.7,26.6c-.4,.1-.7-.2-.8-.6h0c0-.4,.4-.8,.8-.8,.4,0,.7,.4,.7,.8,0,.4-.3,.7-.7,.7h0Zm-.2,4.7c-.4,0-.8-.4-.8-.8s.4-.8,.8-.8c.4,0,.8,.4,.8,.8h0c0,.4-.4,.8-.8,.8Z" fill="#fff"/><path id="uuid-06c9a117-ccf5-4c4f-9de2-60190fe35aec" d="M296.4,36c-.4,0-.8-.3-.7-.7s.3-.8,.7-.7c.4,0,.7,.3,.8,.7-.1,.4-.4,.8-.8,.7Z" fill="#fff"/><path d="M294,2.8c-.4,0-.7-.4-.7-.8,0-.4,.4-.7,.8-.7,.4,0,.7,.3,.7,.7h0c0,.4-.4,.8-.8,.8Zm0,4.7c-.4,0-.8-.3-.7-.7s.2-.7,.6-.8h.1c.4,0,.8,.4,.8,.8,0,.4-.4,.7-.8,.7Zm-.3,4.8c-.4,.1-.9,0-1-.5-.1-.4,.1-.9,.6-1,0,0,0,0,0,0,.1-.1,.4-.1,.5,0,.4,.2,.6,.6,.4,1,0,0,0,0,0,0-.1,.2-.3,.3-.5,.4Zm-.1,4.7c-.4,0-.7-.3-.7-.7h0c-.1-.4,.2-.7,.6-.8h.2c.4-.1,.9,0,1,.5,.1,.4-.1,.9-.6,1,0,0,0,0,0,0-.1,.1-.4,.1-.5,0Zm-.1,4.8c-.4,0-.8-.4-.8-.8,0-.4,.4-.7,.8-.7,.4,0,.7,.3,.7,.7h0c0,.4-.3,.7-.7,.7h0Zm-.2,4.8c-.4,0-.7-.3-.7-.7h0c0-.4,.4-.8,.8-.8,.4,0,.7,.4,.7,.8,0,.4-.3,.7-.7,.7h0Zm-.1,4.8c-.4,0-.7-.4-.7-.8,0-.4,.3-.7,.7-.7h0c.4,0,.8,.4,.8,.8,0,.4-.4,.7-.8,.7Zm-.2,4.7c-.5,0-.8-.4-.8-.8s.3-.7,.7-.7h.1c.4,0,.7,.3,.7,.7h0c0,.4-.3,.7-.7,.8h0Zm-2.3-33.3c-.4,0-.7-.4-.7-.8,0-.4,.3-.7,.7-.7h0c.4-.1,.7,.2,.8,.6h0c0,.5-.3,.8-.8,.9Zm-.1,4.7c-.4,0-.7-.2-.8-.6h0c0-.4,.4-.8,.8-.8,.4,0,.7,.4,.7,.8,0,.4-.3,.7-.7,.7h0Zm-.2,4.7c-.4,.1-.9,0-1-.5-.1-.4,.1-.9,.6-1,0,0,0,0,0,0h.5c.4,0,.7,.3,.7,.7h0c0,.4-.4,.8-.8,.8h0Z" fill="#fff"/><path id="uuid-cd13bc78-0934-468f-9f9d-0a478ab8430f" d="M290.3,17c-.4,0-.8-.3-.7-.7,0-.4,.3-.7,.7-.8,.4,.1,.8,.4,.8,.8,0,.4-.4,.7-.8,.7Z" fill="#fff"/><path id="uuid-bf44ffdb-a35a-4972-90a5-509a7aea6e51" d="M290,21.7c-.4,0-.8-.4-.8-.8s.4-.8,.8-.8c.4,0,.8,.4,.8,.8h0c0,.4-.3,.7-.7,.7h0Z" fill="#fff"/><path d="M290,26.4c-.4,0-.7-.3-.7-.7h0c0-.4,.3-.7,.7-.8,.5,.1,.8,.4,.8,.8s-.3,.7-.7,.7h0Zm0,4.8c-.4,0-.8-.4-.8-.8-.1-.4,.1-.9,.5-1,.4-.1,.9,.1,1,.5,0,.2,0,.4,0,.5,0,.4-.3,.7-.7,.7h0Zm-.3,4.8c-.4,0-.7-.4-.7-.8,0-.4,.3-.7,.7-.7h.1c.4,0,.7,.3,.7,.7h0c0,.4-.4,.8-.8,.8h0Zm-2.3-33.4c-.4,0-.8-.4-.8-.8,0-.4,.4-.7,.8-.7,.4,0,.7,.3,.7,.7h0c.1,.4-.2,.7-.6,.8h-.1Zm-.2,4.7c-.4,0-.7-.3-.7-.7h0c0-.4,.4-.8,.8-.8,.4,.2,.6,.6,.4,1,0,0,0,0,0,0-.1,.2-.3,.3-.5,.4h0Zm-.2,4.7c-.4,0-.7-.4-.7-.8,0-.4,.3-.7,.7-.7h0c.4,0,.8,.4,.8,.8,0,.4-.4,.7-.8,.7Zm0,4.8c-.4,.1-.7-.2-.8-.6h0c0-.4,.4-.8,.8-.8,.4,0,.7,.4,.7,.8,0,.4-.3,.7-.7,.7h0Zm-.2,4.7c-.4,0-.7-.4-.7-.8,0-.4,.3-.7,.7-.7h.1c.4,.2,.6,.6,.4,1,0,0,0,0,0,0-.1,.2-.3,.3-.5,.4Zm-.1,4.7c-.4,0-.8-.3-.7-.7s.3-.8,.7-.7,.8,.3,.7,.7-.3,.8-.7,.7Zm-.2,4.7c-.4,0-.8-.4-.8-.8s.4-.8,.8-.8c.4,0,.8,.4,.8,.8h0c0,.4-.3,.7-.7,.7h0Zm-.1,5.1c-.4,0-.7-.4-.7-.8,0-.4,.3-.7,.7-.7h0c.4,0,.7,.2,.8,.6h0c0,.5-.3,.8-.8,.9Zm-2.4-33.5c-.4,0-.7-.4-.7-.8,0-.4,.4-.7,.8-.7,.4,0,.7,.3,.7,.7h0c0,.4-.3,.7-.7,.7h0Zm0,4.8c-.4,0-.7-.3-.7-.7h0c-.1-.4,.2-.7,.6-.8h.1c.4,0,.8,.4,.8,.8,0,.4-.4,.7-.8,.7Zm-.2,4.8c-.4,0-.8-.4-.8-.8,0-.4,.4-.7,.8-.7,.4,0,.7,.3,.7,.7h0c0,.4-.3,.7-.7,.7h0Zm-.2,4.8c-.4,0-.7-.3-.7-.7h0c0-.4,.4-.8,.8-.8,.4,0,.7,.4,.7,.8,0,.4-.3,.7-.7,.7h0Zm-.1,4.8c-.4,0-.7-.3-.7-.7h0c0-.4,.3-.7,.7-.7h0c.4,0,.8,.4,.8,.8,0,.4-.4,.6-.8,.6Zm-.2,4.8c-.4,0-.7-.4-.7-.8,0-.4,.3-.7,.7-.7h.1c.4,0,.7,.3,.7,.7h0c0,.4-.4,.8-.8,.8h0Zm-.1,4.7c-.4,0-.7-.4-.7-.8,0-.4,.3-.7,.7-.7h.1c.4,.2,.6,.6,.4,1,0,0,0,0,0,0-.1,.2-.3,.3-.5,.4Zm-.2,4.8c-.4,0-.8-.4-.8-.8,0-.4,.4-.7,.8-.7,.4,0,.8,.3,.7,.7,0,.4-.3,.7-.7,.8Z" fill="#fff"/></g></g></g><g><path d="M31.7,18.6c0,.3-.1,.7-.4,.9l-4,4-4.3-2.5v-2.5c0-.7,.4-1.2,1.1-1.3h.1c.7,0,1.3,.6,1.3,1.3h0v3l4-4c.5-.5,1.3-.5,1.8,0,.3,.2,.4,.6,.4,.9m-1.3,12h-.4l-.5-.2-4-4v3c0,.7-.5,1.2-1.2,1.2h-.1c-.7,0-1.2-.5-1.2-1.2h0v-2.6l4.3-2.5,4,4c.5,.4,.6,1.2,.1,1.7-.3,.3-.6,.4-1,.4m-3.4-6.4c0-.1,0-.2-.1-.2h0l-1-.6-3-1.7-2.5-1.5h-.4v7.7c0,.1,.1,.3,.2,.3h.2l2.5-1.4,4-2.3h0q.1-.1,.1-.2h0Zm-1,0q0,.1-.1,.1l-3,1.8-2,1c0,0-.2,0-.3,0h0v-6l.2-.2h.1l2,1,3,1.8c.1,.1,.2,.2,.1,.3v.2Zm-.7,.1q-.1,0-.1,.1h0l-2.4,1.3-1.4,1h-.4v-4.6h.3l4,2.2m27.7-.3c0-.1,0-.1,0-.2l-3.6-1.7-2.2-1.2c-.2,0-.4,.1-.4,.2v6c0,.2,.2,.3,.4,.2l2-1.2,3.6-2h.3Zm-1,0h0l-2.7,1.5-1.7,1-.3-.2v-4.5c0-.1,0-.2,.3-.2h0l1.8,1,2.7,1.4h0Z" fill="#fff"/><path d="M51.2,23.8h0l-2.2,1.2-1.3,.6h-.2v-3.6q0-.1,0-.2h0l3.4,1.7m-16.8-2.8h3c1.3-.2,2.5,.7,2.7,2.1h0c0,1.2-1,2-2.6,2h-1.4v2h-1.5l-.2-6.1Zm3,3c.7,0,1.2-.4,1.2-1s-.5-1-1.2-1h-1.5v1.8l1.5,.2Z" fill="#fff"/><path d="M46,25.8v1h-5v-6h1.5v5h3.5Zm8.5-1.2l-2.8-4h1.8l1.7,2.7,1.8-2.8h1.6l-2.6,4v2.2h-1.5v-2.1Zm5-3.6h.8v3.4l3.7-3.4h1l-3,2.8,3.2,3.3h-1l-2.6-2.8-1,1v2h-.6l-.5-6.3Zm6,3c.3-2,2.1-3.3,4.1-3,1.5,.3,2.7,1.5,3,3-.3,2-2.2,3.3-4.1,3-1.5-.3-2.7-1.4-3-3Zm6.3,0c-.1-1.5-1.3-2.6-2.8-2.6-1.4,0-2.6,1.2-2.7,2.6,.3,1.5,1.8,2.5,3.3,2.2,1.1-.2,2-1.1,2.2-2.2Zm1.8,2.3l.5-.6c.6,.6,1.4,.9,2.3,.9,1-.1,1.6-.6,1.6-1s-.7-1-2-1.2-2.3-.6-2.3-1.7c.2-1.1,1.2-1.9,2.3-1.8,.9,0,1.7,.3,2.4,.9l-.5,.5c-.5-.5-1.2-.8-1.9-.8-1,.1-1.5,.6-1.5,1s.7,1,2,1,2.2,.7,2.2,1.8-.7,1.7-2.4,1.7c-1,0-1.9-.3-2.7-.9v.2Zm6.6-5.3h.8l2.6,4.3,2.4-4.3h.8v6h-.8v-4.6l-2.5,4.3-2.7-4.3v4.6h-.7v-6Zm8.3,3c0-1.7,1.6-3.2,3.5-3.2,1.8,0,3.4,1.4,3.5,3.2,0,1.9-1.6,3.5-3.5,3.5s-3.5-1.6-3.5-3.5Zm6.2,0c0-1.5-1.2-2.7-2.7-2.7s-2.7,1.2-2.7,2.7,1.1,2.5,2.5,2.5h.2c1.4,0,2.6-1.1,2.7-2.5Zm1.8,2.3l.5-.6c.6,.6,1.4,.9,2.3,.9,1-.1,1.6-.6,1.6-1s-.7-1-2-1.2-2.3-.6-2.3-1.7c.2-1.1,1.2-1.9,2.3-1.8,.9,0,1.7,.3,2.4,.9l-.4,.5c-.6-.5-1.3-.8-2-.8-1,.1-1.5,.6-1.5,1s.7,1,2,1,2.3,.7,2.3,1.8-.8,1.8-2.4,1.8c-1,0-2-.3-2.8-.9h0Z" fill="#fff"/></g><g><path d="M20,107.5h-1.6l-.7-.3-.8-.2h-2.2c-.2,0-.4,0-.5,.3l-.7,.2-.6,.2h-.2q.1,0,.1,0h.8l.2,.2,.2,.4c0,.6,0,1.2,.1,1.8v1.4c0,.3,0,.5-.1,.6h-.5c-.2,0-.3,0-.4-.3l-.3-.3c-.1,0-.1-.4-.1-1,0-.4-.1-.9-.3-1.3l-.2-.8v-.2h.1v-.2h.2v-.2l.4-.2h.4l.5-.3,.4-.3h1.2c.1,0,.2,0,.2-.2l.3-.3h.6c.3,0,.6,0,.8,.2l.4,.2h.7c.3,0,.6,0,.8,.2,.2,0,.3,.2,.4,.4l.3,.3v-.2Z" fill="#facb0d" fill-rule="evenodd"/><path d="M13.6,112.2h-.2l-.4-.2-.3-.4c-.1,0-.1-.4-.1-1l-.3-1.3-.2-.8v-.2h.1v-.2h.3l.3-.2h.5l.5-.2,.4-.3h1.2c.1,0,.2,0,.2-.2l.3-.3h.6c.3,0,.6,0,.8,.2l.4,.2h1.5c.2,0,.3,.3,.5,.5h-2.1c-.2-.2-.5-.2-.8-.2h-2.2l-.5,.3-.7,.2-.6,.2h-.2q.1,0,.1,0h.8l.2,.2c.1,0,.1,.2,.2,.4,0,.4,0,.7,.1,1.1v1.4c0,.3,0,.5-.1,.6h-.3v.3Zm-1.5-4h-.1v.2l.2,.8c.2,.4,.3,.9,.3,1.3,0,.3,0,.6,.1,.9l.3,.3c.1,.2,.2,.3,.4,.3h.5c.1,0,.1-.3,.1-.6,0-.5,0-.9-.1-1.4v-1c-.1-.2-.1-.3-.2-.4l-.2-.2h-.7l.6-.2h.7c.1-.2,.3-.2,.5-.3h2.2l1,.2c.2,.2,.5,.2,.6,.3h.8l.6,.2h.2l-.2-.2-.4-.4c-.2-.2-.5-.2-.8-.2h-.7l-.5-.2-.7-.2h-.6l-.3,.3-.3,.2h-1.2l-.4,.3c-.1,.2-.2,.2-.5,.3h-.8v.2h-.2c0,0,0,.2-.1,.2v-.7Z" fill="#facb0d"/></g><g><path d="M17,107.4h.4l.4,.2,.3,.4c.1,0,.1,.3,.1,.6,0,.3,0,.5-.1,.8-.1,.4-.2,.7-.2,1.1-.1,.4-.2,.7-.2,1.1l-.2,.6h-1l-.2-.2c0-.1,0-.3-.1-.4,0-.2,0-.5,.1-.7v-.7c0-.4-.1-.8-.1-1.2,0-.3,0-.7-.1-1,0-.1,0-.2,.1-.3,0,0,.2,0,.3-.2h.5Z" fill="#fccc0b" fill-rule="evenodd"/><path d="M17,112.3h-.6l-.2-.2c0,0-.1-.2-.1-.4,0-.2,0-.5,.1-.7v-.7c0-.4-.1-.9-.1-1.3,0-.3,0-.7-.1-1,0-.1,0-.2,.1-.3,0,0,.2-.2,.3-.2h1l.4,.2,.3,.4c.1,0,.1,.3,.1,.6,0,.3,0,.5-.1,.8-.1,.4-.2,.7-.2,1.1-.1,.4-.1,.8-.2,1l-.2,.6h-.5Zm1-3.2c0-.3,.1-.5,.1-.8,0-.3,0-.5-.1-.6l-.3-.4-.4-.2-.3,.3h-.6l-.3,.2c0,0-.1,.2-.1,.3,0,.3,.1,.7,.1,1,0,.6,.1,1,.1,1.2v.7c0,.3-.1,.5,0,.7v.4h1.2c.1-.2,.1-.4,.2-.6" fill="#fccc0b"/></g><g><path d="M20.2,110.6v-.4h.3c.1,.1,.2,.3,.2,.5v.3h0v.7h0l-.2,.4-.5,.8-.6,.6h-1.2l-.2-.2-.7-.2h-.3c-.1,0-.1-.2-.1-.4s-.1-.3,0-.4h2.1l.2-.2h0l.2-.2,.3-.8,.5-.5Z" fill="#facb0d" fill-rule="evenodd"/><path d="M19,114.4h-.8c0,0-.1,0-.2-.2h-.7l-.4-.2-.2-.4c0-.2,0-.3,.1-.4h2.2l.2-.2v-.2c.1,0,.1,0,.2-.3,.2-.2,.3-.4,.3-.7,.2-.3,.3-.6,.3-1v-.4h.3c.1,.1,.2,.3,.2,.5q.2,.3,.1,.3h0v.7q.1,0,.1,0h0v.2h0l-.2,.4-.5,.8-.6,.6-.4,.4Zm-1.7-1.6h-.5c-.1,0-.1,.2,0,.4s0,.3,.1,.4h.4l.7,.2,.2,.2h1.3l.6-.7,.5-.7c.1-.2,.1-.4,.2-.4h0v-.2h0v-.7h0v-.3c0-.2,0-.4-.2-.5h-.3v.4c0,.4,0,.7-.3,1l-.3,.8-.2,.2h0l-.2,.2h-2v-.3Z" fill="#facb0d"/><path d="M18.7,107.7h.2l.6,.3,.6,.4c.1,0,.1,.2,.1,.4v.5c0,.2,0,.5-.2,.7,0,.4-.2,.8-.4,1.2l-.3,.9-.3,.4h-.8l-.3-.2c0-.1,0-.3-.1-.4,0-.3,0-.6,.2-.9,0-.4,.1-.8,.1-1.2,0-.3,.1-.7,.1-1,0-.3,.1-.6,.1-.8s.1-.3,.2-.3h.2Z" fill="#facb0d" fill-rule="evenodd"/><path d="M18.5,112.6h-.3l-.3-.2c0-.1,0-.3-.1-.4,0-.3,0-.6,.2-.9,0-.4,.1-.8,.1-1.2,0-.3,.1-.7,.1-1,0-.3,.1-.6,.1-.8s.1-.3,.2-.3h.4l.6,.3,.6,.4c0,0,.1,.2,.1,.4v.5c0,.2,0,.5-.2,.7,0,.4-.2,.8-.4,1.2l-.3,1-.3,.4h-.5Zm.2-5.1h-.2s-.1,0-.2,.3c0,.3,0,.5-.1,.8,0,.3,0,.7-.1,1,0,.4,0,.8-.1,1.2-.1,.4-.2,.7-.1,1v.4l.3,.2h.8l.3-.4,.3-1c.1-.4,.3-.8,.4-1.2,.1-.2,.2-.5,.2-.7v-.5c0-.2,0-.3-.1-.4l-.6-.4-.6-.3h-.2Z" fill="#facb0d"/><path d="M15,107.7h.5l.2,.3c.1,.5,.2,1.1,.1,1.6v1.8c0,.3,0,.5-.1,.6v.2h-.8l-.3-.3c-.1,0-.1-.2-.1-.5v-2c0-.3,0-.5-.1-.6,0-.1-.1-.3-.1-.4,0-.1,0-.2,.1-.3,.1-.2,.1-.3,.3-.3h.3Z" fill="#facb0d" fill-rule="evenodd"/><path d="M15,112.3h-.4l-.3-.3c-.1,0-.1-.2-.1-.5v-2c0-.2,0-.4-.1-.6,0-.1-.1-.3-.1-.4,0-.1,0-.2,.1-.3,0-.2,.1-.3,.3-.3h.4c.2,0,.3,0,.5,0l.2,.3c.1,.5,.2,1.1,.1,1.6,.1,.6,.1,1.2,0,1.8v.6l-.2,.2h-.4Zm-.2-4.7h-.4l-.3,.3c0,0-.1,.2-.1,.3,0,.1,0,.3,.1,.4,.1,0,.1,.3,.1,.6v2c0,.2,0,.3,.1,.5l.3,.3h.8c.1,0,.1-.3,.1-.6v-1.8c0-.5,0-1.1-.1-1.6l-.2-.3h-.4Z" fill="#facb0d"/><path d="M20,129h-1.6l-.7-.3-.8-.2h-2.2l-.5,.2c-.2,.2-.4,.2-.7,.3h0l.2,.2,.2,.3c0,.4,0,.8,.1,1.2v1.4c0,.3,0,.5-.1,.6h-.5c-.2,0-.3-.1-.4-.3s-.3-.2-.3-.4c0-.3,0-.5-.1-.8,0-.5,0-.9-.3-1.3-.1-.3-.2-.6-.2-.9h.3l.4-.2h.4l.5-.2,.4-.3h1.2l.2-.2,.3-.3h.6c.3,0,.6,0,.8,.2l.4,.2h1.3c.2,.1,.3,.3,.4,.5l.3,.3h.3Z" fill="#facb0d" fill-rule="evenodd"/><path d="M13.6,133.5h-.2c-.2,0-.3-.1-.4-.3s-.3-.2-.3-.4c0-.3,0-.5-.1-.8,0-.4-.1-.9-.3-1.3-.1-.3-.2-.6-.2-.9h0v-.2h.3l.3-.2h.5l.5-.2,.4-.3h1.2l.2-.2,.3-.3h.6c.3,0,.6,0,.8,.2l.4,.2h1.4l.5,.5v.2h-.2l-.6-.2h-.7l-.7-.3-.8-.2h-2c-.2,.1-.4,.1-.5,.3l-.7,.2-.6,.2h.7l.2,.2,.2,.3c0,.4,0,.8,.1,1.2v1.4c0,.3,0,.5-.1,.6h-.3v.3Zm-1.4-4h0c0,.3,0,.6,.2,.9,.2,.4,.3,.8,.3,1.3,0,.5,0,.7,.1,.8l.3,.4c.1,.2,.2,.3,.4,.3h.5c.1-.1,.1-.3,.1-.6,0-.5,0-.9-.1-1.4v-1.2l-.2-.3-.2-.2h-.7l.6-.2c.3-.1,.5-.1,.7-.3h3.7l.6,.3h1.5l-.2-.2-.4-.5h-1.5l-.5-.2c-.2-.2-.4-.2-.7-.2h-.6l-.3,.3-.3,.2h-1.2l-.4,.3-.5,.2h-.3l-.4,.2v.2h-.2v.2h0l-.3-.3Z" fill="#facb0d"/></g><g><path d="M17,128.8h.4l.4,.2,.3,.4c.1,.1,.1,.3,.1,.6,0,.3,0,.5-.1,.8-.1,.4-.2,.7-.2,1.1-.1,.4-.2,.7-.2,1.1l-.2,.6h-1l-.2-.2c0-.1,0-.3-.1-.4,0-.2,0-.5,.1-.7v-.8c0-.4-.1-.7-.1-1.1,0-.3,0-.7-.1-1,0-.1,0-.2,.1-.3l.3-.2h.5Z" fill="#fccc0b" fill-rule="evenodd"/><path d="M17,133.7h-.6l-.2-.2c0-.1-.1-.2-.1-.4,0-.2,0-.5,.1-.7v-.8c0-.4-.1-.7-.1-1.1,0-.3,0-.7-.1-1,0-.1,0-.2,.1-.3l.3-.2h1l.4,.2,.3,.4c.1,.1,.1,.3,.1,.6,0,.3,0,.5-.1,.8-.1,.4-.2,.7-.2,1.1-.1,.4-.1,.7-.2,1l-.2,.6h-.5Zm1-3.2c0-.3,.1-.5,.1-.8,0-.3,0-.5-.1-.6l-.3-.4-.4-.2-.3,.2h-.6l-.3,.2c0,0-.1,.2-.1,.3,0,.3,.1,.7,.1,1,0,.5,.1,1,.1,1v.8c0,.3-.1,.5,0,.7v.4l.2,.2h1l.2-.6" fill="#fccc0b"/></g><g><path d="M20.2,132v-.4h.3c.1,.1,.2,.3,.2,.5v.3h0v.8h0v.2c-.1,0-.1,.2-.2,.3l-.5,.8-.6,.7h-1l-.3-.2h-.1l-.7-.2h-.3c-.1-.1-.1-.2-.1-.4s-.1-.3,0-.4h2.1l.2-.2v.3c.1,0,.1-.1,.2-.3,.2-.2,.3-.4,.3-.7,.2-.3,.3-.7,.4-1.1h.1Z" fill="#facb0d" fill-rule="evenodd"/><path d="M19,135.8h-.8l-.2-.2-.7-.2h-.3l-.2-.4c0-.2,0-.3,.1-.4h1.1l.7,.2h.4l.2-.2v-.6c.1,0,.1-.1,.2-.3,.2-.2,.3-.5,.3-.8,.2-.3,.3-.6,.3-.9v-.4h.2v.2c.1,.1,.2,.3,.2,.5q.2,.3,.1,.3h0v.8h.1v.3l-.2,.3-.5,.8-.6,.7-.4,.3Zm-1.7-1.6c-.3,0-.5,0-.5,.1s-.1,.2,0,.4,0,.3,.1,.4h.4l.7,.2h.2l.3,.2h1l.6-.7,.5-.8c.1-.1,.1-.3,.2-.3v-.3h-.1v-.8h0v-.3c0-.2,0-.4-.2-.5v-.2h-.2v.4c0,.4,0,.7-.3,1,0,.3-.1,.5-.3,.7-.1,.2-.1,.3-.2,.3v.2l-.2,.2h-2v-.2Z" fill="#facb0d"/><path d="M18.7,129h.2l.6,.3,.6,.4c.1,.1,.1,.2,.1,.4v.5c0,.2,0,.5-.2,.7,0,.4-.2,.8-.4,1.2l-.3,1-.3,.4h-.8l-.3-.2c0-.1,0-.3-.1-.4,0-.3,0-.6,.2-.9,0-.4,.1-.8,.1-1.2,0-.4,.1-.7,.1-1.1,0-.2,.1-.5,.1-.7,0-.2,0-.3,.2-.4h.2Z" fill="#facb0d" fill-rule="evenodd"/><path d="M18.5,134h-.3l-.3-.2c0-.1,0-.3-.1-.4,0-.3,0-.6,.2-.9,0-.4,.1-.8,.1-1.2,0-.4,.1-.7,.1-1.1,0-.2,.1-.5,.1-.7s.1-.4,.2-.4h.4l.6,.3c.4,.2,.6,.3,.6,.4s.1,.2,.1,.4v.5c0,.2,0,.5-.2,.7,0,.4-.2,.8-.4,1.2l-.3,1-.3,.4h-.5Zm.2-5h-.2s-.1,0-.2,.3c0,.2,0,.5-.1,.7,0,.4,0,.7-.1,1.1,0,.4,0,.8-.1,1.2-.1,.4-.2,.7-.1,1v.4h1l.3-.4,.3-1,.4-1.2c.1-.2,.2-.5,.2-.7v-.5c0-.2,0-.3-.1-.4l-.6-.4-.6-.3v.2Z" fill="#facb0d"/><path d="M15,129h.5l.2,.3c.1,.5,.2,1.1,.1,1.6v1.8c0,.3,0,.5-.1,.6v.2h-.8l-.3-.3c0-.1-.1-.3-.1-.5v-2c0-.2,0-.5-.1-.7-.1-.2-.1-.4,0-.6,.1-.2,.1-.3,.3-.3h.3Z" fill="#facb0d" fill-rule="evenodd"/><path d="M15,133.7h-.4l-.3-.3c0-.1-.1-.3-.1-.5v-2c0-.2,0-.4-.1-.6,0-.1-.1-.3-.1-.4,0-.1,0-.2,.1-.3,0-.2,.1-.3,.3-.3h0l.4-.2h.5c.1,.1,.2,.1,.2,.3,.1,.5,.2,1.1,.1,1.6,.1,.6,.1,1.2,0,1.8v.6l-.2,.2h-.4Zm0-4.6h-.4l-.3,.3c-.1,.2-.1,.4,0,.6,0,.2,.1,.5,.1,.7v2c0,.2,.1,.3,.1,.5s.1,.2,.3,.2h.8v-.2c.1-.1,.1-.3,.1-.6v-1.5c0-.5,0-1.1-.1-1.6l-.2-.3h-.4Z" fill="#facb0d"/></g><g><path d="M12,92.2H161.4v1H12v-1Z" fill="#ed1c24"/><path d="M20.7,207c0-.9-.2-1.8-.7-2.6-.5-.6-1-1.2-1.7-1.6-1.1-.6-2.3-.8-3.5-.7-1.5,.2-2.8,1.1-3.6,2.4-.9,1.6-.9,3.6,0,5.2l.6,1,2,3c.9,1.5,1.6,3.1,1.9,4.8h0c.6-2.5,1.7-4.8,3.2-6.9l1.2-2c.2-.4,.4-.8,.5-1.2,.2-.5,.3-1,.2-1.5h-.1Zm-5,1.9c-1,0-1.8-.8-1.8-1.8,0-1,.8-1.8,1.8-1.8s1.8,.8,1.8,1.8-.8,1.8-1.8,1.8h0Z" fill="#ed1c24" fill-rule="evenodd"/></g><path d="M35,311.7h96.4v23.3H35v-23.3Zm0-4.4h96.4v2.6H35v-2.6Zm265.5-33.5h-.7v-.6h.7v.6Zm-1.5,0h-1v-.6h1v.6Zm-1.7,0h-.8v-.6h.8v.6Zm-1.6,0h-1v-.6h1v.6Zm-1.7,0h-.8v-.6h.8v.6Zm-1.6,0h-1v-.6h1v.6Zm-1.7,0h-.8v-.6h.8v.6Zm-1.6,0h-1v-.6h1v.6Zm-1.7,0h-.8v-.6h.8v.6Zm-1.7,0h-.8v-.6h.8v.6Zm-1.6,0h-.8v-.6h.8v.6Zm-1.7,0h-.8v-.6h.8v.6Zm-1.6,0h-.8v-.6h.8v.6Zm-1.7,0h-.8v-.6h.8v.6Zm-1.6,0h-.8v-.6h.8v.6Zm-1.7,0h-.8v-.6h.8v.6Zm-1.6,0h-.8v-.6h.8v.6Zm-1.7,0h-.8v-.6h.8v.6Zm-1.6,0h-.8v-.6h.8v.6Zm-1.7,0h-.8v-.6h.8v.6Zm-1.6,0h-.8v-.6h.8v.6Zm-1.7,0h-.8v-.6h.8v.6Zm-1.6,0h-.8v-.6h.8v.6Zm-1.7,0h-.8v-.6h.8v.6Zm-1.6,0h-.8v-.6h.8v.6Zm-1.7,0h-.8v-.6h.8v.6Zm-1.6,0h-.8v-.6h.8v.6Zm-1.7,0h-.8v-.6h.8v.6Zm-1.6,0h-.8v-.6h.8v.6Zm-1.7,0h-.8v-.6h.8v.6Zm-1.6,0h-.8v-.6h.8v.6Zm-1.7,0h-.7v-.7h.7v.7Zm0-1.6h-.7v-.8h.7v.8Zm0-1.7h-.7v-1h.7v1Zm0-1.7h-.7v-1h.7v1Zm0-1.8h-.7v-.8h.7v.8Zm0-1.7h-.7v-.8h.7v.8Zm0-1.7h-.7v-1h.7v1Zm0-1.7h-.7v-1h.7v1Zm0-1.8h-.7v-.8h.7v.8Zm0-1.7h-.7v-1h.7v1Zm0-1.7h-.7v-1h.7v1Zm0-1.7h-.7v-.7h.7v.7h0Zm50,0h-.7v-.7h.7v.7Zm-1.6,0h-.8v-.7h.8v.7Zm-1.6,0h-.8v-.7h.8v.7Zm-1.7,0h-.8v-.7h.8v.7Zm-1.6,0h-1v-.7h1v.7Zm-1.7,0h-.8v-.7h.8v.7Zm-1.6,0h-1v-.7h1v.7Zm-1.7,0h-.8v-.7h.8v.7Zm-1.6,0h-1v-.7h1v.7Zm-1.7,0h-.8v-.7h.8v.7Zm-1.6,0h-1v-.7h1v.7Zm-1.7,0h-.8v-.7h.8v.7Zm-1.6,0h-1v-.7h1v.7Zm-1.7,0h-.8v-.7h.8v.7Zm-1.6,0h-1v-.7h1v.7Zm-1.7,0h-.8v-.7h.8v.7Zm-1.6,0h-1v-.7h1v.7Zm-1.7,0h-.8v-.7h.8v.7Zm-1.6,0h-1v-.7h1v.7Zm-1.7,0h-.8v-.7h.8v.7Zm-1.6,0h-1v-.7h1v.7Zm-1.7,0h-.8v-.7h.8v.7Zm-1.6,0h-1v-.7h1v.7Zm-5.8,0h-.5v-.7h.5v.7Zm-1.4,0h-.8v-.7h.8v.7Zm-1.6,0h-.8v-.7h.8v.7Zm-1.7,0h-.8v-.7h.8v.7Zm-1.6,0h-.8v-.7h.8v.7Zm49.4,0h-.7v-.7h.7v.7Zm0,17.2h-.6v-.8h.6v.8Zm0-1.7h-.6v-1h.6v1Zm0-1.7h-.6v-1h.6v1Zm0-1.8h-.6v-.8h.6v.8Zm0-1.7h-.6v-.8h.6v.8Zm0-1.7h-.6v-1h.6v1Zm0-1.7h-.6v-1h.6v1Zm0-1.8h-.6v-.8h.6v.8Zm0-1.7h-.6v-1h.6v1Zm0-1.7h-.6v-1h.6v1Z" fill="#231f20"/><path d="M234.6,256.5h79.7v15h-79.7v-15Z" fill="#ed1c24"/><g><path d="M20,235h-3.5v.8c0,.3,.1,.5,.1,.8,0,.2,0,.3-.1,.4h-.5v-.5c0-.3,0-.5-.2-.8,0-.1,0-.3-.1-.4h4c.1,.1,.2,.1,.3,.3v-.6Z" fill="#231f20" fill-rule="evenodd"/><path d="M16.5,237.6h-.3l-.2-.2v-.5c0-.3,0-.5-.2-.8,0-.1-.1-.3-.1-.4h4c.1,.1,.2,.1,.3,.3h-3.2l-.4,.2h.2v.8c0,.3,.1,.5,.1,.8,0,.2,0,.3-.1,.4h-.2v-.6Zm-.7-2.3h0c0,.1,.1,.3,.1,.4,.1,.3,.2,.5,.2,.8v.5l.2,.2h.5c0-.1,.1-.2,.1-.4,0-.3,0-.5-.1-.8v-.8h-.2l.4-.2h3l-.2-.3h-1.6c-.2,0-.3,0-.3,.1h-1.2l-.3,.2h-.7v.3Z" fill="#231f20"/><path d="M18.4,235h.6c0,0,.1,.2,.1,.3,0,.2,0,.3-.1,.5,0,.2-.1,.4-.1,.6s-.1,.4-.1,.6c0,.1-.1,.3-.1,.4h-.7v-.7c.1-.1,.1-.3,0-.4v-1.3h.4Z" fill="#231f20" fill-rule="evenodd"/><path d="M18.4,237.6h-.4v-.7c.1-.1,.1-.3,0-.4v-1.2c-.1-.1,0-.1,0-.2h1l.2,.2c0,0,.1,.2,.1,.3,0,.2,0,.3-.1,.5,0,.2-.1,.4-.1,.6s-.1,.4-.1,.6c0,.1-.1,.3-.1,.4h-.5Zm0-2.8h-.4v1.4c.1,.1,.1,.3,0,.4v.7h.7c0-.1,0-.3,.1-.4,0-.2,.1-.4,.1-.6s.1-.4,.1-.6c0-.2,.1-.3,.1-.5,0-.1,0-.2-.1-.3l-.2-.2h-.4Z" fill="#231f20"/><path d="M20.3,236.7v-.2h.2v.5h0v.4h0v.2l-.3,.5-.3,.4h-1.5v-.5h1.6c.1-.1,.1-.3,.2-.5,0-.3,.1-.5,.1-.8h0Z" fill="#231f20" fill-rule="evenodd"/><path d="M19.6,238.8h-1.2v-.8h1.6c.1-.1,.1-.3,.2-.5s.1-.4,.2-.5v-.3h.2v.5h0v.4h0c0,.1-.1,.1-.1,.3l-.3,.4-.3,.4h-.3Zm-1-.9h-.3v.4h1.5c0-.1,.1-.2,.3-.4l.3-.5c0-.1,.1-.1,.1-.2h0v-.4h0v-.5h-.2v.2c0,.2-.1,.3-.2,.5s-.1,.4-.2,.5h-1.3v.4Z" fill="#231f20"/><path d="M19.4,235h.5l.3,.2c0,0,.1,.2,.1,.3v.2c0,.2-.1,.3-.1,.5l-.3,.6c0,.2,0,.3-.1,.5l-.2,.2h-.6v-.2c0-.2,.1-.3,.1-.5,0-.2,.1-.5,.1-.7v-.6c0-.1,.1-.3,.1-.4q0-.1,.1-.2h0Z" fill="#231f20" fill-rule="evenodd"/><path d="M19.3,237.8h-.3v-.2c0-.2,.1-.3,.1-.5,0-.2,.1-.5,.1-.7v-.6c0-.1,.1-.3,.1-.4v-.2h.6l.3,.2c0,0,.1,.2,.1,.3v.2c0,.2-.1,.3-.1,.5l-.3,.6c0,.2,0,.3-.1,.5l-.2,.2c0,.1-.1,.1-.2,.1h-.1Zm.1-2.7h-.1v.2c0,.1,0,.3-.1,.4v.6c0,.2,0,.5-.1,.7,0,.2-.1,.3-.1,.5v.2h.6l.2-.2c0-.2,.1-.3,.1-.5,.1-.2,.2-.4,.2-.6l.2-.5v-.5l-.3-.2h-.6Z" fill="#231f20"/><path d="M17.3,235h.4c0,.3,0,.6,.1,.9v1c0,.1-.1,.3-.1,.4h-.7v-.2c0,0-.1-.2-.1-.3v-.5c.1-.2,.1-.4,0-.6v-.4h.1c0-.1,0-.2,.1-.2h.2Z" fill="#231f20" fill-rule="evenodd"/><path d="M17.4,237.6h-.4v-.2c0,0-.1-.2-.1-.3v-.5c.1-.2,.1-.4,0-.6v-.4h.1c0-.1,0-.2,.1-.2v-.2h.7c0,.3,0,.6,.1,.9v1c0,.1-.1,.3-.1,.4h-.4Zm-.1-2.5h-.3v.2c-.1,0-.1,.1-.1,.2h.1c0,.1,0,.3,.1,.4v.6c0,.2-.1,.3-.1,.5v.5h.6v-.4c.1-.3,.1-.7,0-1v-1h-.3Z" fill="#231f20"/><path d="M20,255.3h-1l-.4-.2h-1.6l-.3,.2h-.2v1c0,.2,.1,.5,.1,.7,0,.2,0,.3-.1,.4h-.3l-.2-.2h0c0-.2,0-.5-.2-.7,0-.2,0-.3-.1-.5h.2c.1,0,.2,0,.2-.1h.6l.2-.2h.8l.2-.2h.7l.3,.2h.8l.3,.3v-.7Z" fill="#231f20" fill-rule="evenodd"/><path d="M16.5,258h-.1l-.2-.2-.2-.2v-.5c0-.2,0-.5-.2-.7,0-.2-.1-.3-.1-.5h1l.2-.2h.8l.2-.2h.7l.3,.2h.8l.3,.3h-.8l-.4-.2h-1.8l-.3,.2h-.2v1c0,.2,.1,.5,.1,.7,0,.2,0,.3-.1,.4h0Zm-.8-2.3h0c0,.2,.1,.3,.1,.5,.1,.2,.2,.5,.2,.7v.5l.2,.2,.2,.2h.3c0-.1,.1-.2,.1-.4,0-.2,0-.5-.1-.7v-1q-.1,0-.1-.1h.3l.3-.2h2.8l-.2-.3h-.8l-.3-.2h-.7l-.2,.2h-.8l-.2,.2h-1v.4Z" fill="#231f20"/><path d="M18.4,255.2h.4l.2,.2c.1,.1,.1,.2,.1,.4,0,.2,0,.3-.1,.5,0,.2-.1,.3-.1,.5s-.1,.5-.1,.7v.3h-.8c-.1,0-.1-.1-.1-.2v-.4c.1-.2,.1-.3,0-.4v-1.4h.5v-.2Z" fill="#231f20" fill-rule="evenodd"/><path d="M18.4,258h-.4v-.6c.1-.2,.1-.3,0-.4v-1.2q-.1,0-.1-.1h1l.2,.2c.1,.1,.1,.2,.1,.4,0,.2,0,.3-.1,.5,0,.2-.1,.3-.1,.5s-.1,.5-.1,.7v.3l-.5-.3Zm0-2.8h-.4v1.4c.1,.1,.1,.2,0,.4v.4c0,.1,0,.2,.1,.2h.7v-.3c0-.2,.1-.4,.1-.7s.1-.3,.1-.5c0-.2,.1-.3,.1-.5,0-.2,0-.3-.1-.4l-.2-.2h-.4v.2Z" fill="#231f20"/><path d="M20.3,257v-.2h.2v.4h0v.5h0v.2l-.3,.4-.3,.4h-1.5q-.1-.1-.1-.2v-.2h1.5q.1-.1,.1-.2v-.4c.1-.3,.1-.5,.2-.7h.2Z" fill="#231f20" fill-rule="evenodd"/><path d="M19.6,259.2h-1.2c0-.1-.1-.2-.1-.3v-.2h1.5q.1-.1,.1-.2v-.4c.1-.3,.1-.5,.2-.6v-.2h.2v.4h0v.5h0v.2q-.1,.1-.1,.2l-.3,.4-.3,.4v-.2Zm-1-1h-.3v.2q0,.1,.1,.2t.3,.1h1.3c0-.1,.1-.2,.3-.4l.3-.4q0-.1,.1-.2v-.2h0v-.5h-.2v.2c-.1,.2-.1,.4-.2,.6l-.2,.4q0,.1-.1,.2h-1.3v-.2Z" fill="#231f20"/><path d="M19.4,255.4h.2l.3,.2c.2,0,.3,.1,.3,.2v.5c0,.1-.1,.2-.1,.4l-.3,.7c0,.2-.1,.3-.1,.5h-.7q-.1,0-.1-.1h0v-.2c0-.2,.1-.3,.1-.5,0-.2,.1-.5,.1-.7v-.6c0-.1,.1-.3,.1-.4v-.2l.2,.2Z" fill="#231f20" fill-rule="evenodd"/><path d="M19.3,258h-.3q-.1,0-.1-.1h0v-.2c0-.2,.1-.3,.1-.5,0-.2,.1-.5,.1-.7v-.6c0-.1,.1-.3,.1-.4v-.2h.6l.3,.3c.1,0,.1,.1,.1,.2v.3c0,.1-.1,.2-.1,.4l-.3,.7c0,.2-.1,.3-.1,.5l-.2,.2h-.2Zm.1-2.6h-.1v.2c0,.1,0,.3-.1,.4v.6c0,.2,0,.5-.1,.7,0,.2-.1,.3-.1,.5v.2q0,.1,.1,.1h.7c0-.2,.1-.3,.1-.5,.1-.2,.2-.5,.2-.7l.2-.4v-.5c0-.1-.1-.2-.3-.2l-.3-.2-.3-.2Z" fill="#231f20"/><path d="M17.3,255.4h.4c0,.3,0,.6,.1,.9v1c0,0-.1,.2-.1,.3h-.7c0-.1-.1-.2-.1-.3v-.6c.1-.2,.1-.4,0-.6v-1l.4,.3Z" fill="#231f20" fill-rule="evenodd"/><path d="M17.4,258h-.4v-1c.1-.2,.1-.4,0-.6v-1h.7c0,.3,0,.6,.1,.9v1c0,0-.1,.2-.1,.3h-.3v.4Zm-.1-2.5h-.3v.2q-.1,.1-.1,.2h0c0,.1,0,.2,.1,.3v.6c0,.2-.1,.4-.1,.6,0,0,.1,.2,.1,.3h.7v-.3c0-.4,0-.7,0-1.1v-1h-.4v.2Zm-1.6,19.5H121.4v12.4H15.7v-12.4Z" fill="#231f20"/></g><g><path d="M334.2,270.3c-.4,.1-.9,0-1-.5-.1-.4,.1-.9,.6-1,0,0,0,0,0,0,.1-.1,.4-.1,.5,0,.4,0,.7,.3,.7,.7h0c0,.4-.4,.8-.8,.8h0Z" fill="#ed1c24"/><path id="uuid-65e06359-1c9d-4cda-bde0-c65acd80b3e4" d="M334.1,275c-.4,0-.7-.3-.7-.7h0c-.1-.4,.2-.7,.6-.8h.1c.4,0,.8,.4,.8,.8,0,.4-.4,.7-.8,.7Z" fill="#ed1c24"/><path d="M334,279.8c-.4,0-.8-.4-.8-.8,0-.4,.4-.7,.8-.7,.4,0,.7,.3,.7,.7h0c.1,.4-.2,.7-.6,.8h-.1Zm-.2,4.7c-.4,0-.7-.3-.7-.7h0c-.1-.4,.2-.7,.6-.8h.2c.4-.1,.9,0,1,.5,.1,.4-.1,.9-.6,1,0,0,0,0,0,0-.1,.1-.4,.1-.5,0Zm-.1,4.8c-.4,0-.7-.3-.7-.7h0c0-.4,.3-.7,.7-.7h0c.4,0,.7,.3,.7,.7h0c0,.4-.3,.7-.7,.7h0Zm-.2,4.7c-.4,0-.7-.3-.7-.7h0c0-.4,.4-.8,.8-.8,.4,0,.7,.4,.7,.8,0,.4-.3,.7-.7,.7h-.1Z" fill="#ed1c24"/><path id="uuid-b04fcb7b-632b-413e-84a5-a2414695c2bb" d="M333.5,298.8c-.4,0-.7-.4-.7-.8,0-.4,.3-.7,.7-.7h0c.4,0,.8,.4,.8,.8,0,.4-.4,.7-.8,.7Z" fill="#ed1c24"/><path d="M333.3,303.5c-.4,0-.7-.3-.8-.7,.1-.4,.4-.8,.8-.7,.4,0,.7,.3,.7,.7h0c0,.4-.3,.8-.7,.7Z" fill="#ed1c24"/><path id="uuid-a4d9afe5-7f62-4d37-a2f1-4b667155afe4" d="M333.1,308.3c-.4,0-.8-.4-.8-.8s.4-.8,.8-.8c.4,0,.8,.4,.8,.8h0c0,.4-.4,.8-.8,.8Z" fill="#ed1c24"/><path d="M333,313c-.4,0-.7-.4-.7-.8,0-.4,.3-.7,.7-.7h0c.4,0,.7,.3,.8,.7-.1,.4-.4,.8-.8,.8Zm-.2,4.8c-.4,0-.7-.3-.7-.7h0c.2-.4,.6-.6,1-.4,0,0,0,0,0,0,.2,.1,.3,.3,.4,.5,0,.4-.3,.7-.7,.7h-.1Z" fill="#ed1c24"/><path id="uuid-0288ca72-969d-4e80-a637-0ce59bca1abc" d="M332.7,322.6c-.4,0-.7-.4-.7-.8,0-.4,.3-.7,.7-.7h.1c.4,0,.7,.3,.7,.7h0c0,.4-.4,.8-.8,.8h0Z" fill="#ed1c24"/><path id="uuid-620f2a3e-57f1-443a-9729-abec0c03bc06" d="M330.9,270.2c-.4,0-.7-.4-.7-.8,0-.4,.3-.7,.7-.7h0c.4-.1,.7,.2,.8,.6h0c0,.5-.3,.8-.8,.9Z" fill="#ed1c24"/><path d="M330.8,275c-.4,0-.7-.3-.8-.7,.1-.5,.4-.8,.8-.8,.4,0,.7,.4,.7,.8,0,.4-.3,.7-.7,.7h0Zm-.3,4.7c-.4-.2-.6-.6-.4-1,0,0,0,0,0,0,.1-.2,.3-.3,.5-.4,.4,0,.7,.3,.7,.7h0c0,.4-.4,.8-.8,.8h0Zm0,4.7c-.4,0-.7-.3-.7-.7h0c0-.4,.3-.7,.7-.8,.4,.1,.8,.4,.8,.8,0,.4-.4,.7-.8,.7Z" fill="#ed1c24"/><path id="uuid-f5eff1e6-1cf1-4c9b-af55-5af420d32a70" d="M330.5,289.2c-.4,0-.8-.4-.8-.8,0-.4,.4-.7,.8-.7,.4,0,.7,.3,.7,.7h0c0,.4-.3,.7-.7,.7h0Z" fill="#ed1c24"/><path id="uuid-a4555c71-01a9-4470-a3cc-0d11f2e0ad40" d="M330.2,294c-.4,0-.7-.3-.7-.7h0c0-.4,.4-.8,.8-.8,.4,0,.7,.4,.7,.8,0,.4-.3,.7-.7,.7h0Z" fill="#ed1c24"/><path d="M330.1,298.7c-.4,0-.8-.4-.8-.8,0-.4,.4-.7,.8-.7,.4,0,.7,.3,.7,.7h0c0,.4-.3,.7-.7,.7h0Z" fill="#ed1c24"/><path id="uuid-aa214242-0445-4301-bb3c-df818bd55da5" d="M329.9,303.5c-.4,0-.7-.4-.7-.8,0-.4,.3-.7,.7-.7h.1c.4,0,.7,.3,.7,.7h0c0,.4-.4,.8-.8,.8h0Z" fill="#ed1c24"/><path id="uuid-210ab755-36e4-43b9-8d1f-fda2166cb14e" d="M329.8,308.2c-.4,0-.7-.3-.7-.7h0c0-.4,.3-.7,.7-.7h0c.4,0,.8,.4,.8,.8,0,.4-.4,.6-.8,.6Z" fill="#ed1c24"/><path d="M329.7,313c-.5-.1-.8-.4-.8-.8,0-.4,.4-.7,.8-.7,.4,0,.7,.3,.7,.7h0c0,.4-.3,.7-.7,.8Zm-.2,4.7c-.4,0-.7-.3-.7-.7h0c0-.4,.4-.8,.8-.8s.8,.4,.8,.8-.4,.8-.8,.8h-.1Zm0,4.7c-.4,0-.7-.3-.7-.7h0c0-.4,.3-.7,.7-.7h0c.4,0,.7,.3,.8,.7-.1,.4-.4,.7-.8,.7Zm-2-52.5c-.4,0-.8-.4-.8-.8,0-.4,.4-.7,.8-.7,.4,0,.8,.3,.7,.7s-.2,.7-.6,.8h-.1Zm0,4.8c-.4,0-.7-.3-.7-.7h0c0-.4,.4-.8,.8-.8,.4,.2,.6,.6,.4,1,0,0,0,0,0,0-.1,.2-.3,.3-.5,.4h0Z" fill="#ed1c24"/><path id="uuid-95c86043-ef7a-4aa3-a73c-4b0cc0a1b36e" d="M327.3,279.6c-.4,0-.7-.4-.7-.8,0-.4,.3-.7,.7-.7h0c.4-.1,.7,.2,.8,.6v.2c0,.4-.4,.7-.8,.7Z" fill="#ed1c24"/><path d="M327.2,284.3c-.4,.1-.7-.2-.8-.6h0c0-.4,.4-.8,.8-.8,.4,0,.7,.4,.7,.8,0,.4-.3,.7-.7,.7h0Z" fill="#ed1c24"/><path id="uuid-497cc33b-d4f4-4d71-b0e2-56973483c972" d="M327,289c-.4,0-.8-.4-.8-.8s.4-.8,.8-.8c.4,0,.8,.4,.8,.8h0c0,.4-.4,.8-.8,.8Z" fill="#ed1c24"/><path id="uuid-f185dedf-ed42-46c8-9f5f-7f633645b510" d="M326.9,293.8c-.4,0-.8-.3-.7-.7s.3-.8,.7-.7c.4,0,.7,.3,.8,.7-.1,.4-.4,.8-.8,.7Z" fill="#ed1c24"/><path id="uuid-87cd6be4-b64e-408f-af10-af7c8569e510" d="M326.7,298.6c-.4,0-.8-.4-.8-.8s.4-.8,.8-.8c.4,0,.8,.4,.8,.8h0c0,.4-.3,.7-.7,.7h0Z" fill="#ed1c24"/><path id="uuid-7c162799-b7d4-452e-a6fa-7e1ee675e28e" d="M326.5,303.4c-.4,0-.7-.4-.7-.8,0-.4,.3-.7,.7-.7h.1c.4,0,.7,.3,.7,.7h0c0,.4-.4,.8-.8,.8h0Z" fill="#ed1c24"/><path id="uuid-8683ce04-7667-47e9-b4d1-a46f60b86b29" d="M326.5,308c-.4,0-.8-.4-.8-.8,0-.4,.4-.7,.8-.7,.4,0,.7,.3,.7,.7h0c0,.4-.3,.7-.7,.7h0Z" fill="#ed1c24"/><path d="M326.3,313c-.4-.2-.6-.6-.4-1,0,0,0,0,0,0,.1-.2,.3-.3,.5-.4,.4,0,.7,.3,.7,.7h0c0,.4-.4,.8-.8,.8h0Z" fill="#ed1c24"/><path id="uuid-18df3726-6c13-4910-891b-22b226af67d7" d="M326.2,317.6c-.4,0-.7-.3-.7-.7h0c-.1-.4,.2-.7,.6-.8h.1c.4,0,.8,.4,.8,.8,0,.4-.4,.7-.8,.7Z" fill="#ed1c24"/><path d="M326.1,322.4c-.4,0-.8-.4-.8-.8,0-.4,.4-.7,.8-.7,.4,0,.7,.3,.7,.7h0c.1,.4-.2,.7-.6,.8h-.1Z" fill="#ed1c24"/><circle cx="324.1" cy="269.1" r=".7" fill="#ed1c24"/><path d="M324.1,274.7c-.4,0-.7-.3-.7-.7h0c-.1-.4,.2-.7,.6-.8h.2c.4,.2,.6,.6,.4,1,0,0,0,0,0,0-.1,.2-.3,.3-.5,.4Zm-.1,4.8c-.4,0-.8-.4-.8-.8,0-.4,.4-.7,.8-.7,.4,0,.7,.3,.7,.7h0c0,.4-.3,.7-.7,.7h0Zm-.2,4.8c-.4,0-.7-.3-.7-.7h0c0-.4,.4-.8,.8-.8,.4,0,.7,.4,.7,.8,0,.4-.3,.7-.7,.7h-.1Z" fill="#ed1c24"/><path id="uuid-6b4d1042-4c78-4bae-8de7-e2384fc9177f" d="M323.7,289c-.4,0-.7-.4-.7-.8,0-.4,.3-.7,.7-.7h0c.4,0,.8,.4,.8,.8,0,.4-.4,.7-.8,.7Z" fill="#ed1c24"/><path d="M323.5,293.7c-.4,0-.7-.3-.7-.7s.3-.7,.7-.7h0c.4,0,.7,.3,.7,.7h0c0,.4-.3,.8-.7,.7h0Zm0,4.8c-.4,0-.7-.4-.7-.8,0-.4,.3-.7,.7-.7h.1c.4,.2,.6,.6,.4,1,0,0,0,0,0,0-.1,.2-.3,.3-.5,.4Zm-.2,4.8c-.4-.1-.8-.4-.7-.8,0-.4,.3-.7,.7-.7h0c.4,0,.8,.3,.7,.7,0,.4-.3,.7-.7,.8Zm-.2,4.7c-.4,0-.7-.3-.7-.7h0c-.1-.4,0-.9,.5-1,.4-.1,.9,.1,1,.6,0,0,0,0,0,0,.1,.1,.1,.4,0,.5,0,.4-.3,.7-.7,.7h-.1Z" fill="#ed1c24"/><path id="uuid-94a8f5d9-f60f-4519-b48e-f41dc74c7c15" d="M323,312.8c-.4,0-.7-.4-.7-.8,0-.4,.3-.7,.7-.7h0c.4-.1,.7,.2,.8,.6h0c0,.5-.3,.8-.8,.9Z" fill="#ed1c24"/><path d="M322.9,317.5c-.4,0-.7-.3-.8-.7,.1-.5,.4-.8,.8-.8,.4,0,.7,.4,.7,.8,0,.4-.3,.7-.7,.7h0Z" fill="#ed1c24"/><path id="uuid-ef7f11fe-eb53-4fae-b2e5-2d4cd731bb17" d="M322.7,322.3c-.4,.1-.9,0-1-.5-.1-.4,.1-.9,.6-1,0,0,0,0,0,0,.1-.1,.4-.1,.5,0,.4,0,.7,.3,.7,.7h0c0,.4-.4,.8-.8,.8h0Z" fill="#ed1c24"/><path d="M320.9,270c-.4,0-.7-.4-.7-.8-.1-.4,0-.9,.5-1,.4-.1,.9,.1,1,.6,0,0,0,0,0,0,.1,.1,.1,.4,0,.5,0,.4-.4,.7-.8,.7h0Zm-.1,4.6c-.4,0-.8-.3-.7-.7,0-.4,.3-.7,.7-.8,.4,.1,.8,.4,.7,.8,0,.4-.3,.7-.7,.7h0Z" fill="#ed1c24"/><path id="uuid-66593320-a349-4cd9-a806-d44bdd9576f9" d="M320.5,279.4c-.4,.1-.9,0-1-.5-.1-.4,.1-.9,.6-1,0,0,0,0,0,0h.5c.4,.2,.6,.6,.4,1,0,0,0,0,0,0-.1,.2-.3,.3-.5,.4Z" fill="#ed1c24"/><path d="M320.5,284c-.4,0-.7-.3-.7-.7h0c0-.4,.3-.7,.7-.8,.5,.1,.8,.4,.8,.8s-.3,.7-.7,.7h-.1Zm0,5c-.4,0-.8-.4-.8-.8,.2-.4,.7-.6,1.1-.4,.2,0,.4,.3,.4,.5,0,.4-.3,.7-.7,.7h0Z" fill="#ed1c24"/><path id="uuid-fc24e934-27bc-42bd-92e2-f6f7aabf314c" d="M320.2,293.7c-.4,0-.7-.4-.7-.8,0-.4,.3-.7,.7-.7h.1c.4,0,.7,.3,.7,.7h0c0,.4-.4,.8-.8,.8h0Z" fill="#ed1c24"/><path id="uuid-7dbe0835-b014-4ced-b93a-51b47f1d0107" d="M320.1,298.4c-.4,0-.7-.3-.7-.7h0c0-.4,.3-.7,.7-.7h0c.4,0,.8,.4,.8,.8,0,.4-.4,.6-.8,.6Z" fill="#ed1c24"/><path d="M320,303.2c-.5-.1-.8-.4-.8-.8,0-.4,.4-.7,.8-.7,.4,0,.7,.3,.7,.7h0c0,.4-.3,.7-.7,.8Zm-.2,4.8c-.4-.2-.6-.6-.4-1,0,0,0,0,0,0,.1-.2,.3-.3,.5-.4,.4-.1,.9,0,1,.5,.1,.4-.1,.9-.6,1,0,0,0,0,0,0-.1,.1-.4,.1-.5,0Zm-.1,4.7c-.4,0-.8-.4-.8-.8,0-.4,.4-.7,.8-.7,.4,0,.8,.3,.7,.7s-.2,.7-.6,.8h-.1Zm-.2,4.7c-.4,0-.7-.3-.7-.7h0c0-.4,.4-.8,.8-.8,.4,.2,.6,.6,.4,1,0,0,0,0,0,0-.1,.2-.3,.3-.5,.4h0Z" fill="#ed1c24"/><path id="uuid-45a917af-f25d-4522-b02a-62c3ce5f221b" d="M319.5,322.2c-.4,0-.7-.4-.7-.8,0-.4,.3-.7,.7-.7h0c.4-.1,.7,.2,.8,.6v.2c0,.4-.4,.7-.8,.7Z" fill="#ed1c24"/></g></svg>