<svg xmlns="http://www.w3.org/2000/svg" xmlns:xlink="http://www.w3.org/1999/xlink" width="335" height="335">
  <defs>
    <linearGradient id="c" x1="167.44" x2="167.7" y1="246.44" y2="-88.65" gradientUnits="userSpaceOnUse">
      <stop offset="0" stop-color="#8df0fd"/>
      <stop offset=".51" stop-color="#2c52d3"/>
      <stop offset="1" stop-color="#09166b"/>
    </linearGradient>
    <linearGradient id="a" x1="256.43" x2="332.93" y1="43.57" y2="43.57" gradientUnits="userSpaceOnUse">
      <stop offset="0" stop-color="#15c30d"/>
      <stop offset="1" stop-color="#087e05"/>
    </linearGradient>
    <linearGradient xlink:href="#a" id="d" x1="257.72" x2="331.65" y1="43.57" y2="43.57"/>
    <linearGradient id="e" x1="0" x2="335" y1="194.9" y2="194.9" data-name="Degradado sin nombre 488" gradientUnits="userSpaceOnUse">
      <stop offset="0" stop-color="#1e2c66"/>
      <stop offset="1" stop-color="#294b8a"/>
    </linearGradient>
    <linearGradient id="f" x1="0" x2="335" y1="194.9" y2="194.9" data-name="Degradado sin nombre 173" gradientUnits="userSpaceOnUse">
      <stop offset="0" stop-color="#eef7a6"/>
      <stop offset="1" stop-color="#fff"/>
    </linearGradient>
    <linearGradient xlink:href="#a" id="g" x1="-1252.5" x2="-1252.5" y1="125.41" y2="367.91" gradientTransform="matrix(1 0 0 -1 1420 536.94)"/>
    <linearGradient id="h" x1="-1252.5" x2="-1252.5" y1="137.1" y2="358.14" gradientTransform="matrix(1 0 0 -1 1420 535)" gradientUnits="userSpaceOnUse">
      <stop offset=".15" stop-color="#19c511"/>
      <stop offset=".94" stop-color="#068900"/>
    </linearGradient>
    <linearGradient id="i" x1="-1278.92" x2="-1278.92" y1="195.91" y2="231.03" gradientTransform="matrix(-1 0 0 1 -1085 0)" gradientUnits="userSpaceOnUse">
      <stop offset="0" stop-color="#11bd09"/>
      <stop offset="1" stop-color="#a6f7c0" stop-opacity="0"/>
    </linearGradient>
    <linearGradient id="j" x1="-1157.26" x2="-1157.26" y1="195.91" y2="231.03" gradientTransform="matrix(-1 0 0 1 -1085 0)" gradientUnits="userSpaceOnUse">
      <stop offset="0" stop-color="#15c40d"/>
      <stop offset="1" stop-color="#a6f7c0" stop-opacity="0"/>
    </linearGradient>
    <linearGradient id="k" x1="-1252.5" x2="-1252.5" y1="194.16" y2="232.81" gradientTransform="matrix(1 0 0 -1 1420 418.01)" gradientUnits="userSpaceOnUse">
      <stop offset="0" stop-color="#068900"/>
      <stop offset="1" stop-color="#3c993c" stop-opacity="0"/>
    </linearGradient>
    <linearGradient id="b" x1="-1762.64" x2="-1762.64" y1="125.41" y2="367.91" data-name="Degradado sin nombre 161" gradientTransform="matrix(-1 0 .67020017 1 -1778.2 0)" gradientUnits="userSpaceOnUse">
      <stop offset="0" stop-color="#a6f7c0"/>
      <stop offset="1" stop-color="#fff"/>
    </linearGradient>
    <linearGradient xlink:href="#b" id="l" x1="1" x2="132.65" y1="267.37" y2="267.37" data-name="Degradado sin nombre 161"/>
  </defs>
  <g data-name="Layer 1">
    <path fill="url(#c)" d="M0 0h335v334.82H0z"/>
    <g fill-rule="evenodd">
      <path fill="url(#a)" d="M325.97 21.57a38.24 38.24 0 1 0-62.58 43.99 38.25 38.25 0 1 0 62.58-43.99Zm-10.03 52.24a36.95 36.95 0 0 1-51.49-8.99 36.97 36.97 0 1 1 51.49 8.99Z"/>
      <path fill="url(#d)" d="M315.94 73.81a36.95 36.95 0 0 1-51.49-8.99 36.97 36.97 0 1 1 51.49 8.99Z"/>
      <path fill="#fff" d="M324.19 21.32c-1.96 6.87-11.07 8.1-26 11.63-15.48 3.66-23.55 20.95-20.65 31.77 2.9 10.82 17.18 18.65 33.07 12.21a36.65 36.65 0 0 1-15.25 3.6c-9.55-.83-17.53-6.28-20.35-14.97-4.32-13.28 5.87-31.12 21.36-34.78 15.1-3.57 24.74-3.99 27.05-10.48l.79 1.01ZM310.6 76.93Z"/>
      <path fill="#fff" d="M324.19 21.32c-1.96 6.87-11.07 8.1-26 11.63-15.48 3.66-23.55 20.95-20.65 31.77 2.9 10.82 17.18 18.65 33.07 12.21a36.4 36.4 0 0 1-8.79 2.92c-11.84 1.14-22.2-4.66-25.55-14.97-4.32-13.28 5.66-29.22 21.14-32.88 14.73-3.48 24.09-4.72 26.67-10.84l.12.16ZM310.6 76.93Z"/>
    </g>
    <path fill="url(#e)" d="M0 187.78h335v14.23H0z"/>
    <path fill="url(#f)" d="M0 190.22h335v9.35H0z"/>
    <g fill="#fff" data-name="uuid-f3fdbca8-19af-4b99-a461-c604056463c2">
      <path d="M29.59 13.92c0 .53-.21 1.03-.59 1.4l-6.34 6.34-6.78-3.92v-3.85a2.01 2.01 0 0 1 4.02 0v4.86l6.27-6.27a2.02 2.02 0 0 1 3.43 1.43h-.01Zm-.6 17.76a1.99 1.99 0 0 1-2.84 0l-2.13-2.13-4.15-4.14v4.86a2 2 0 0 1-4.01 0v-3.84l6.8-3.91 4.2 4.2 2.13 2.13a2 2 0 0 1 0 2.83Zm-6.63-9.72a.43.43 0 0 0-.18-.24s-.02 0-.03-.02l-1.71-.99-4.57-2.64L12 15.84c-.23-.13-.5-.06-.62.16a.41.41 0 0 0-.07.23v11.71a.45.45 0 0 0 .68.39l3.87-2.23 6.28-3.62.07-.05a.4.4 0 0 0 .12-.17.47.47 0 0 0 .02-.31h.01Zm-9.56-4.71 3 1.74 4.87 2.81c.06.04.1.08.13.13.05.09.06.19.03.27a.36.36 0 0 1-.16.21l-4.87 2.82-3 1.74a.36.36 0 0 1-.48-.13c-.04-.05-.05-.11-.05-.18v-9.09c0-.2.15-.35.35-.35.07 0 .12 0 .18.05v-.02Z"/>
      <path d="M19.46 22.16a.28.28 0 0 1-.12.16l-3.66 2.12-2.26 1.3a.26.26 0 0 1-.36-.1.33.33 0 0 1-.04-.13v-6.84c0-.15.12-.27.27-.26.05 0 .09.01.13.03l2.26 1.31 3.66 2.12c.06.03.1.09.12.15v.15Zm43.05-.53-5.59-2.81-3.44-1.73a.4.4 0 0 0-.54.15.58.58 0 0 0-.06.17l.11 9.29c.03.22.23.38.45.36.06 0 .11-.03.16-.06l.22-.11 3.19-1.7 1.96-1.05 3.55-1.89a.4.4 0 0 0 .18-.22.26.26 0 0 0 0-.21.4.4 0 0 0-.19-.21v.02Zm-5.59 2.84-2.64 1.41c-.15.09-.35.05-.43-.1a.28.28 0 0 1-.04-.13l-.09-7.21c.02-.17.17-.3.34-.28.05 0 .08.02.13.04l2.67 1.34.96.48 3.38 1.7c.07.03.12.08.15.16v.15s0 .02-.02.03a.24.24 0 0 1-.12.14l-4.29 2.28Z"/>
      <path d="M60.13 22.02s-.06.1-.11.12l-3.22 1.72-1.99 1.06a.23.23 0 0 1-.32-.08.16.16 0 0 1-.03-.09l-.07-5.42c0-.13.12-.23.25-.22a.2.2 0 0 1 .1.03l2.01 1.01 3.26 1.64s.09.07.11.12v.12h.01Zm-21.62-4.84-2.14.03-2.71.04.03 2.65.08 7.02 2.31-.03-.04-3.13 2.54-.04c2.35-.03 4.05-1.4 4.04-3.31-.03-1.91-1.77-3.25-4.11-3.22Zm-.2 4.63-2.29.03-.04-2.73 2.3-.03c1.15 0 1.93.52 1.94 1.34 0 .84-.77 1.38-1.91 1.39Zm13.45 5.15-7.7.1-.12-9.67 2.33-.03.1 7.8 5.37-.08.02 1.88zm15.78-3.69.04 3.49-2.34.03-.04-3.49-4.3-6.13 2.7-.03 2.74 4.21 2.75-4.27 2.59-.04-4.14 6.23zm14.37 3.97-1.58.02-4.15-4.45-1.68 1.63.03 2.9-1.23.01-.11-9.67 1.22-.01.07 5.35 5.4-5.43 1.62-.01-4.49 4.47 4.9 5.19zm6.07-9.9c-2.98.04-5.5 2.35-5.47 5.07.04 2.71 2.59 4.98 5.59 4.95 3-.04 5.49-2.37 5.45-5.09-.03-2.71-2.59-4.97-5.58-4.93h.01Zm.39 8.98a4.29 4.29 0 0 1-4.62-3.93 4.3 4.3 0 0 1 8.56-.11 4.3 4.3 0 0 1-3.94 4.04Zm14.81-1.8c.02 1.54-1.25 2.81-3.77 2.83a6.18 6.18 0 0 1-4.26-1.48l.76-.87a5.07 5.07 0 0 0 3.55 1.35c1.67-.02 2.51-.85 2.5-1.72 0-1.03-1.04-1.43-2.93-1.79-2.18-.43-3.55-1.01-3.57-2.69-.02-1.55 1.5-2.78 3.58-2.8a5.66 5.66 0 0 1 3.8 1.33l-.74.86a4.74 4.74 0 0 0-3.11-1.2c-1.34.02-2.3.82-2.29 1.71 0 1 1.08 1.34 2.92 1.71 2.07.41 3.55 1.06 3.57 2.76h-.01Zm12.83 2.7-1.22.02-.1-7.3-3.92 6.79-4.08-6.7.08 7.31-1.23.02-.11-9.68 1.22-.01 4.09 6.69 3.93-6.79 1.22-.01.12 9.66zm7.7-9.88c-2.98.04-5.5 2.35-5.47 5.07.04 2.71 2.59 4.98 5.59 4.95 3-.04 5.49-2.37 5.45-5.09-.04-2.71-2.59-4.97-5.58-4.93h.01Zm.39 8.98a4.3 4.3 0 0 1-4.63-3.93 4.3 4.3 0 0 1 8.57-.11 4.3 4.3 0 0 1-3.94 4.04Zm14.81-1.8c.02 1.54-1.26 2.81-3.77 2.83a6.2 6.2 0 0 1-4.27-1.48l.76-.87a5.04 5.04 0 0 0 3.56 1.35c1.66-.02 2.51-.85 2.49-1.72 0-.75-.55-1.16-1.58-1.47-.33-.1-.72-.2-1.15-.28-.07 0-.13-.03-.2-.04-2.17-.43-3.55-1.01-3.57-2.69-.02-1.55 1.51-2.78 3.59-2.8a5.7 5.7 0 0 1 3.8 1.33l-.74.86a4.76 4.76 0 0 0-3.12-1.2c-1.33.02-2.3.82-2.29 1.71.02 1 1.09 1.34 2.93 1.71.38.08.75.16 1.09.26.37.1.69.23.99.38.92.43 1.48 1.08 1.49 2.12Z"/>
    </g>
    <path fill="url(#g)" d="M0 202.12h335v132.7H0z" transform="rotate(-180 167.5 268.47)"/>
    <path fill="url(#h)" d="M0 207.02h335v120.96H0z" transform="rotate(-180 167.5 267.5)"/>
    <path fill="url(#i)" d="M125.68 207.02h101.58l34.9 19.21h-98.01l-38.47-19.21z"/>
    <path fill="url(#j)" d="M4.01 207.02h101.58l34.91 19.21H42.48L4.01 207.02z"/>
    <path fill="url(#k)" d="M0 202.12h335v13.77H0z" transform="rotate(-180 167.5 209)"/>
    <path fill="url(#b)" d="M20.14 202.12H13.3l276.44 132.7h25.75L20.14 202.12z"/>
    <path fill="#0a1665" d="M239.19 301.35H335v26.63h-95.81zm76.3-128.88a7.77 7.77 0 0 0-6.27 12.36l6.27 10.86 6.27-10.86a7.77 7.77 0 0 0-6.27-12.36Zm0 11.33a3.42 3.42 0 1 1 0-6.84 3.42 3.42 0 0 1 0 6.84Z"/>
    <circle cx="66.82" cy="267.37" r="65.82" fill="url(#l)"/>
    <circle cx="66.82" cy="267.37" r="59.5" fill="#0071bc"/>
    <g fill="#fff">
      <path d="M78.77 311.31v6.12a2.79 2.79 0 0 1-2.78 2.78H62.25a2.79 2.79 0 0 1-2.78-2.78v-13.74a2.79 2.79 0 0 1 2.78-2.78h6.25c.43 0 .77.35.77.77v.03c0 .43-.35.77-.77.77h-5.92c-.93 0-1.7.76-1.7 1.7v12.97c0 .93.76 1.7 1.7 1.7h12.97c.93 0 1.7-.76 1.7-1.7v-5.83a.77.77 0 0 1 1.54 0Zm.58-6.41-4.51-4.51.33-.33a3.18 3.18 0 0 1 4.51 0 3.18 3.18 0 0 1 0 4.51l-.33.33Z"/>
      <path d="m78.52 305.72-6.76 6.76-.29.04-4.36.58c-.25.03-.51-.23-.48-.48l.58-4.36.04-.29 6.76-6.76 4.51 4.51Z"/>
    </g>
  </g>
</svg>
