<svg xmlns="http://www.w3.org/2000/svg" xmlns:xlink="http://www.w3.org/1999/xlink" width="335" height="335"><defs><linearGradient id="a" x1="73.5" x2="73.5" y1="91.1" y2="196.9" data-name="Degradado sin nombre 22" gradientUnits="userSpaceOnUse"><stop offset="0" stop-color="#00a0a3"/><stop offset=".1" stop-color="#0da4a7" stop-opacity=".9"/><stop offset=".3" stop-color="#31b1b4" stop-opacity=".8"/><stop offset=".6" stop-color="#6bc6ca" stop-opacity=".5"/><stop offset=".9" stop-color="#bbe3e7" stop-opacity=".1"/><stop offset="1" stop-color="#ceeaee" stop-opacity="0"/></linearGradient><linearGradient xlink:href="#a" id="f" x1="272.3" x2="272.3" y1="107.7" y2="185.1" data-name="Degradado sin nombre 22"/><linearGradient id="g" x1="156.4" x2="156.4" y1="188.4" y2="280.9" data-name="Degradado sin nombre 8" gradientUnits="userSpaceOnUse"><stop offset=".1" stop-color="#145468"/><stop offset=".4" stop-color="#125064"/><stop offset=".7" stop-color="#0e4758"/><stop offset=".9" stop-color="#0a3b49"/></linearGradient><linearGradient id="c" x1="-655.3" x2="-551.2" y1="276.2" y2="285.5" data-name="Degradado sin nombre 2" gradientTransform="rotate(84.1 -144.3 710.2)" gradientUnits="userSpaceOnUse"><stop offset="0" stop-color="#ff2d4b"/><stop offset=".3" stop-color="#fb2c49"/><stop offset=".5" stop-color="#ee2945"/><stop offset=".8" stop-color="#db253d"/><stop offset="1" stop-color="#c82137"/></linearGradient><linearGradient id="b" x1="22.2" x2="22.2" y1="111.8" y2="127.8" data-name="Degradado sin nombre 3" gradientUnits="userSpaceOnUse"><stop offset=".1" stop-color="#ffb131"/><stop offset=".6" stop-color="#f9a11e"/><stop offset="1" stop-color="#f69814"/></linearGradient><linearGradient xlink:href="#b" id="l" x1="14.4" x2="14.4" y1="111.8" y2="127.8" data-name="Degradado sin nombre 3"/><linearGradient xlink:href="#b" id="m" x1="32.5" x2="32.5" y1="111.8" y2="127.8" data-name="Degradado sin nombre 3"/><linearGradient xlink:href="#c" id="o" x1="313" x2="313" y1="8.9" y2="38.6" data-name="Degradado sin nombre 2"/><linearGradient xlink:href="#c" id="p" x1="307.1" x2="307.1" y1="8.9" y2="38.6" data-name="Degradado sin nombre 2"/><linearGradient xlink:href="#c" id="q" x1="320.9" x2="320.9" y1="8.9" y2="38.6" data-name="Degradado sin nombre 2"/><filter id="e" data-name="drop-shadow-14" filterUnits="userSpaceOnUse"><feOffset dx="4" dy="4"/><feGaussianBlur result="uuid-99571bea-1f02-4dc1-9eb7-2f0fc37c1f73" stdDeviation="4"/><feFlood flood-color="#000" flood-opacity=".4"/><feComposite in2="uuid-99571bea-1f02-4dc1-9eb7-2f0fc37c1f73" operator="in"/><feComposite in="SourceGraphic"/></filter><filter id="h" data-name="drop-shadow-15" filterUnits="userSpaceOnUse"><feOffset dx="4" dy="4"/><feGaussianBlur result="uuid-b2835421-245f-4739-a6cb-25fce06b0b7d" stdDeviation="4"/><feFlood flood-color="#000" flood-opacity=".4"/><feComposite in2="uuid-b2835421-245f-4739-a6cb-25fce06b0b7d" operator="in"/><feComposite in="SourceGraphic"/></filter><filter id="i" data-name="drop-shadow-16" filterUnits="userSpaceOnUse"><feOffset dx="4" dy="4"/><feGaussianBlur result="uuid-ca8d8680-6feb-4104-92df-2148158f1cad" stdDeviation="4"/><feFlood flood-color="#000" flood-opacity=".4"/><feComposite in2="uuid-ca8d8680-6feb-4104-92df-2148158f1cad" operator="in"/><feComposite in="SourceGraphic"/></filter><filter id="j" data-name="drop-shadow-17" filterUnits="userSpaceOnUse"><feOffset dx="4" dy="4"/><feGaussianBlur result="uuid-da9887d3-fc1c-4d2a-aa39-78313516348b" stdDeviation="4"/><feFlood flood-color="#000" flood-opacity=".4"/><feComposite in2="uuid-da9887d3-fc1c-4d2a-aa39-78313516348b" operator="in"/><feComposite in="SourceGraphic"/></filter><filter id="k" data-name="drop-shadow-18" filterUnits="userSpaceOnUse"><feOffset dx="3.3" dy="3.3"/><feGaussianBlur result="uuid-d863ead2-5a7f-4d55-9011-d1424a365492" stdDeviation="3.3"/><feFlood flood-color="#000" flood-opacity=".4"/><feComposite in2="uuid-d863ead2-5a7f-4d55-9011-d1424a365492" operator="in"/><feComposite in="SourceGraphic"/></filter><filter id="n" data-name="drop-shadow-19" filterUnits="userSpaceOnUse"><feOffset dx="4" dy="4"/><feGaussianBlur result="uuid-06708ec2-321e-48fa-8009-7162c5b92952" stdDeviation="4"/><feFlood flood-color="#000" flood-opacity=".4"/><feComposite in2="uuid-06708ec2-321e-48fa-8009-7162c5b92952" operator="in"/><feComposite in="SourceGraphic"/></filter><radialGradient id="d" cx="184.3" cy="167.5" r="212.1" data-name="Degradado sin nombre 10" fx="184.3" fy="167.5" gradientTransform="matrix(.99 0 0 .99 -15.1 3)" gradientUnits="userSpaceOnUse"><stop offset="0" stop-color="#ceeaee"/><stop offset=".1" stop-color="#94e6e9"/><stop offset=".3" stop-color="#55e1e5"/><stop offset=".4" stop-color="#26dee1"/><stop offset=".5" stop-color="#0adcdf"/><stop offset=".6" stop-color="#00dcdf"/><stop offset=".9" stop-color="#00b1b4"/><stop offset="1" stop-color="#00a0a3"/></radialGradient></defs><g data-name="Layer 1"><path fill="url(#d)" d="M0 0h335v335H0z"/><g filter="url(#e)"><path fill="#fff" d="M236.5 49.2a3.2 3.2 0 0 0-4.9-2.3 6.4 6.4 0 0 0-8.4-3.2 9.2 9.2 0 0 0-16.8-.4l-1.3-.1a6.4 6.4 0 0 0-5.7 3.5c-.4-.2-.8-.3-1.3-.3-1.6 0-2.9 1.2-3.1 2.8h41.5Z"/><path fill="#e7e7e7" d="M214.6 49.2h22a3.2 3.2 0 0 0-5-2.3 6.4 6.4 0 0 0-8.4-3.2 9.2 9.2 0 0 0-8.5-5.6h-.1v11Z"/></g><path fill="url(#a)" d="M92.5 87.4c-4.8-4-11.7-3.9-16.4.1l-18.8 16a10 10 0 0 1-14.4-1.4L0 46.5l.4 158.3h146.7v-72.2L92.5 87.4Z" opacity=".6"/><path fill="url(#f)" d="m266.3 116.5-11.8-11.9a8.6 8.6 0 0 0-12.3 0l-28.8 29c.7-.8-3.9 72-3.9 72H335V59.9l-56.5 56.7a8.6 8.6 0 0 1-12.2 0Z" opacity=".6"/><g fill="#145468"><path d="M134.9 125.6c-4.1-.3-8.5 1.2-11.7 4.2-3-2.4-7.3-5.6-11-5-.2.3 0 .6.2.7 4.5 1.4 7.4 5.1 10 8.6.8.5 1.8.1 2.3-.7 1.9-3.5 5.8-6.3 10.2-6.9.5 0 .6-.9 0-.9ZM247.2 171.8c-4-.3-8.4 1.2-11.7 4.3-3-2.5-7.3-5.6-11-5-.1.2 0 .5.2.6 4.5 1.5 7.4 5.2 10 8.7.9.4 1.9 0 2.3-.8 1.9-3.5 5.8-6.3 10.3-6.8.5 0 .5-1 0-1ZM238.3 139.7c-4-.3-8.4 1.2-11.7 4.2-3-2.5-7.3-5.6-11-5-.1.3 0 .5.2.6 4.5 1.5 7.4 5.2 10 8.7.9.4 1.9.1 2.3-.7 1.9-3.6 5.8-6.4 10.3-7 .5 0 .5-.8 0-.8Z" opacity=".8"/></g><path fill="url(#g)" fill-rule="evenodd" d="m177.8 256-1.8-.6v-2.8l-4.6-1-.3-.6c-1.2-2.3-2-5.2-2-5.2s.6.4.4-1.4c-.1-1.9-.6-4-.7-5.1l.1-2.6s.9-.4.6-1.4l-.4-3.5s.5.2.3-1.3a2220 2220 0 0 1-1.6-16.5s.8.2 1.3.5c.4.4 2.3.3 3.2-1.3.8-1.7 1.1-3 1.2-3.8 0-.8.8-2.1.7-3 0-.8.2-2.5-.3-3.1-.6-.6-.5-1.4-.7-2-.1-.7 0-.8-.3-1l-.6-1 1.4-3.3-1.4-2.2-1.3-.3-1.3 2.7-.7-.4-2.3-4.1c-.5-1-1-1.8-1.6-2.4a3 3 0 0 0-1.3-1c-.5-.2.2-.4-.8-.8a4 4 0 0 1-2-1.9l-.3-.6s.5.2.6-.3c.1-.4-.5-1.3-.5-1.3s.4-1.2.2-1.8c-.2-.5-.6-.8-.6-.8l-.2-1s.2.4.4 0c.3-.5.2-.8 0-1.7l-.3-.6 5-1.4-5.6.3-.7-.9 3.6-3-4.5 2.2-.5-.3-.8-.4.6-3.2.2-1.2-1.4 2.8-.5 1.2h-.3l-1.2-.1-.4-.7-.9-1.2-2.1-3 1.7 3.7.5 1.3-1.3.7-.5-.2-5-2.4 4.5 3 .4.4-.4 1-1 .2-3.1.5v-.1c0-.9-1-4-2.1-6.2-1-2.3-.8-2-1.3-3.6-.6-1.7-.5-2.2-.9-3.2-.3-1.1-.7-2-1.2-2.6l-.6-.6v-1.3s.5-.2.5-.4l-.2-.5s1.8-.4 1.8-.7c0-.3.6-.5.3-1-.2-.5-.6-.8-.4-1.2.2-.4.6-.7.6-.7h-.6l.2-.5-.8.2-.2-.5-1.2.2V153c.2 0 .3-.3.6-.9.2-.5 1.5-1.6 1.6-2.1 0-.5.2-.9 0-1.1-.1-.3-.5.5-1 .9-.5.3-.8 0-1.2.2-.5.3 0-1-.5-1.3-.5-.2-1 .5-1.4 1-.4.5-.7.1-1.3 1-.6.7 0 1.8.4 2.4l.3.7-.6-.2-.4.6h-.9l-.1.3h-.6l.1.4h-.5s.7.3.7.8c0 .2-.1.8-.3 1-.2.1-.2.4 0 .6s.4.6 1 .7l.4.2c-.2.2.1.5.6.8l.3.6v.5s-.5 0-.5.3c0 .5.3.8.3.8s-.3 0-.2.5c0 .4.4.6.4.6s-.5.2-.2.7c.3.6.6.6.6.6s.3 1.3.1 1.7l-.1.7s-.3.2-.1.5c.1.4.4.4.4 1s.2.7.2.7.4 1 .7 1c.4 0 .7-.5.7-.7l.4 2.3c.2 1 .8 4.3 1.5 6l1.3 3.6c.3.9.5 1.7.3 2.2-.3.5-1.1 2.6-1.1 4.2v2.2c.1.3.3.4.6.4.8-.1.9.3 1.1.2l.1.1c0 .3 0 1 .4 1.4.6.5.7.2 1 1.8.2 1.6.1 1.7.6 3l.7 1.5s-1.6 2-2.2 4.8c-.7 2.8-.5 5.2 0 5.9l.7 1s-.6 2.4-.4 4.4a24.3 24.3 0 0 0 1.2 7c.2.6.2 1.4.2 1.4s.1 4.2.4 5.6l.6 3.2 1 3.5 1 2.7v2.6c0 1.8-.4 7.2-1.3 8.5-.8 1.3-2.3 2.2-3.4 3a2 2 0 0 0-.3.3l-4.7.6v2.9L138 256l1 1.6v3.3l37.7-.6v-2.5l1-1.7ZM148 178.7c-.3-.4-.5-.8-.7-.8-.3 0-.6-.2-.7-.9h2.5l1.5.1v.2c.1.5.4.7.4.7v.1l-1.3.4-1.5.6-.2-.4Zm3.9 4.1-.4 1-1.6-.8c-.4-.3-.4-.4-.6-.7v-.2c-.2-.5-.1-.8-.4-1.3l-.3-.7-.3-.9h1l1.8-.2v.7l.2.8c.1.6.2 1 .5 1s.5-.3.5-.3v.5l-.4 1.2Z" filter="url(#h)"/><path fill="url(#c)" d="m250.8 254-1.7 3.3 14.8-.1-2.7-3.4h-.4l-5.7-8.3-1.8-2.7-.4-.6-.4-.7-.9-1.3-3-5.5v-.3l-.1-2.6h.4v-.7H247a85.6 85.6 0 0 1-5.2-16.6c.4-.2.7-.6.9-1l.5-2.1h-2l-.2-.7a153.6 153.6 0 0 1-2.3-19.1l-.2-3.3-.2-3.2-1.3-22.7c0-.6.4-1 1-1.1v-3h-.4v-.5h-.6v-.6c0-.3-.2-.6-.5-.6-.4 0-.7.2-.7.5h-.4v-.5c0-.3-.2-.6-.5-.6l-.3-4.1h-.1l-.2 4c-.2.2-.4.4-.4.7v.5h-.4c-.1-.3-.4-.5-.8-.5-.3 0-.5.4-.5.7v.5h-.5v.6h-.5v3c.6 0 1.1.4 1 1l-.6 22.8-.1 3.2-.1 3.3a196.9 196.9 0 0 1-1.9 19.2v.7h-2.1l.6 2c.1.5.5.9.9 1a107.2 107.2 0 0 1-4.8 16.8h-2.5v.7h.5v3.8c-.7 1.6-1.5 3.2-2.4 4.7l-.8 1.4-.4.6-.4.7-1.7 2.7-4.7 7.6-.7 1h-.4l-2.4 3.1H223l-1.8-3.3h-.5l-.5-1 2.2-3.8.8-1.4.8-1.5.4-.7.1-.1a14.2 14.2 0 0 1 22.8-.2l.4.7.8 1.4.9 1.4 2.4 3.8-.5 1h-.4ZM235 198c.4 2 1 9.6 1.4 13.6H234l1-13.6Zm-4.6 33.5a87.8 87.8 0 0 0 2.7-11.4h4.4a108.8 108.8 0 0 0 3 11.2l-10.1.2Z" filter="url(#i)"/><path fill="url(#d)" d="M0 0h335v335H0z" opacity=".8"/><path fill="#004063" d="M167.5 148.3a3.6 3.6 0 0 0-2.9 5.7l2.9 5 2.9-5a3.5 3.5 0 0 0-2.9-5.7Zm0 5.2a1.6 1.6 0 1 1 0-3.1 1.6 1.6 0 0 1 0 3.1Z"/><path fill="#fff" d="m296.3 109.8-2.3-6.3 2.2-6.4c.2-.2.1-.5 0-.7a.6.6 0 0 0-.8 0l-6.7 4.9h-14.4l8.7-15.5a.8.8 0 0 0-.7-1.2H281c-.2 0-.5.1-.6.3l-4.3 5h-3.7c-.4 0-.7.3-.7.7v1.1c0 .5.3.8.7.8h1.4l-2.5 2.8H268c-.4 0-.7.4-.7.8v1.2c0 .4.3.7.7.7h1l-3 3.3h-9.6c-1.2 0-2.3.5-3.1 1.4-.7.7-.7 1.8 0 2.4.8.9 2 1.3 3 1.3h9.8l2.8 3.2h-1c-.3 0-.7.3-.7.7v1.2c0 .4.4.8.8.8h3.2l2.5 2.8h-1.4c-.4 0-.7.3-.7.7v1.2c0 .4.3.7.7.7h3.7l4.3 5 .6.2h1.5c.6 0 1-.7.7-1.2l-8.8-15.3h15.3l5.9 4.2c.2.2.5.1.7 0 .2-.3.2-.5 0-.8Z" filter="url(#j)"/><path fill="none" stroke="#fff" stroke-dasharray="0 0 .42 6.37" stroke-linecap="round" stroke-linejoin="round" stroke-width="3" d="M296.4 233c26.8-13.5 44-51.7 37.1-79s-24.8-48.2-51.6-50.3"/><g fill="#ff8e00"><path d="M48.4 229.1a2 2 0 0 0 2.4 1.7h.3l.7 2.5-.3.1a2.1 2.1 0 0 0 1.5 4l.2-.2 1.2 2.5H54c-1 .7-1.3 2-.8 3s1.9 1.3 2.9.7l.2-.2 1.6 2.2-.3.2a2 2 0 0 0 2.7 3.2l.2-.2 2 1.9-.3.2a2 2 0 0 0 .3 3 2 2 0 0 0 3-.3l.1-.3 2.2 1.6-.2.2a2 2 0 0 0 3.6 2.1l.2-.2 1.8.8-3.8 8.7v.3c0 .2.2.2.3.2H76c.1 0 .3-.1.3-.3l2.1-7 2 .5v.3a2 2 0 0 0 4 .7v-.3l2.7.3v.3c0 1.1 1 2 2 2s2.2-.9 2.2-2v-.3c.9 0 1.8-.2 2.6-.3v.3a2 2 0 0 0 2.5 1.7 2 2 0 0 0 1.7-2.4l-.1-.3 2-.5 2 7c.1.2.3.3.4.3h6.1c.2 0 .3 0 .4-.2v-.3l-3.8-8.7 1.8-.8.1.2a2 2 0 0 0 2.9.8 2 2 0 0 0 .6-3.1l2.2-1.6c0 .1 0 .2.2.3a2 2 0 0 0 3.2-2.7l-.3-.2 2-2c0 .2 0 .2.2.3a2 2 0 0 0 3-.3 2 2 0 0 0-.4-3h-.2l1.5-2.3.3.2a2 2 0 0 0 2-3.6l-.2-.1 1.2-2.5.2.1a2.1 2.1 0 0 0 1.5-3.9h-.3l.7-2.7.3.1a2 2 0 0 0 .7-4.1h-.3l.2-2.7h.3c1.2 0 2.1-1 2.1-2s-1-2.2-2-2.2h-.4l-.2-2.6h.3a2 2 0 0 0 1.7-2.5 2 2 0 0 0-2.5-1.7l-.2.1-.7-2.6h.2a2.1 2.1 0 0 0-1.4-4l-.3.1a42 42 0 0 0-1-2.4l.2-.1c1-.6 1.3-1.9.7-2.9a2 2 0 0 0-3-.6 38 38 0 0 0-1.6-2.2l.2-.1a2 2 0 0 0-2.6-3.2c-.1 0-.2 0-.3.2l-1.9-2c.1 0 .2 0 .3-.2a2 2 0 0 0-.3-2.9 2 2 0 0 0-3 .3l-.1.2-2.2-1.5.1-.3a2 2 0 0 0-3.6-2v.2l-2.5-1.1v-.3a2.1 2.1 0 0 0-3.8-1.4l-.1.2-2.6-.7v-.2a2 2 0 0 0-4-.8v.3l-2.8-.2v-.3c0-1.2-.9-2.1-2-2.1s-2.1 1-2.1 2v.4l-2.7.2v-.3a2 2 0 0 0-2.4-1.7 2 2 0 0 0-1.6 2.7l-2.6.7-.1-.3a2.1 2.1 0 0 0-4 1.5l.2.2-2.5 1.2v-.3a2 2 0 0 0-3-.7 2 2 0 0 0-.5 3l-2.2 1.6-.2-.2a2 2 0 0 0-3.2 2.6l.2.3-1.9 1.9-.2-.3a2 2 0 0 0-3 .3 2 2 0 0 0 .3 3l.3.1-1.6 2.2-.2-.1A2 2 0 0 0 54 204h.3l-1.2 2.5-.3-.1a2.1 2.1 0 0 0-1.4 4h.3l-.7 2.6h-.3a2 2 0 0 0-.7 4h.3L50 220h-.3c-1.1 0-2 .9-2 2s.9 2.1 2 2.1h.3l.3 2.7H50a2 2 0 0 0-1.7 2.4Zm16.4 22.4 1-1.2c1.5 1.2 3 2.3 4.7 3.3l-.8 1.3c-1.7-1-3.3-2.1-4.8-3.4Zm1.5-1.7 20.4-24.3-15.9 27.4-4.5-3.1Zm16.6 10 .3-1.6c1.8.3 3.7.5 5.6.5v1.6c-2 0-4-.2-5.9-.6Zm6.7.4v-1.5c1.9 0 3.8-.2 5.6-.5l.3 1.5c-2 .4-4 .5-6 .5Zm19.1-5.3-.8-1.3c1.7-1 3.2-2 4.7-3.3l1 1.2a39.1 39.1 0 0 1-4.9 3.4Zm-1.1-2-16-27.5 20.5 24.3a36 36 0 0 1-4.6 3.2Zm-56.7-30.6h1.5c0 1.9.2 3.8.5 5.6l-1.5.3c-.4-2-.5-4-.5-6Zm2.9-7c.3-1.9.8-3.7 1.4-5.4L85 220.8l-31.2-5.5Zm31 6.2H53.3c0-1.9.1-3.7.4-5.5l31.3 5.5Zm-29.3-12.3c.6-1.7 1.4-3.4 2.3-5l27.5 15.9-29.8-10.9ZM77.2 188c1.8-.6 3.5-1.1 5.4-1.4l5.5 31.2L77.2 188Zm10.2 30-15.9-27.4c1.6-1 3.3-1.7 5-2.4L87.4 218Zm-4-31.6c1.7-.3 3.5-.4 5.4-.5v31.8l-5.5-31.3Zm6.2-.5c1.9 0 3.7.2 5.5.5l-5.5 31.3v-31.8Zm6.2.6c1.9.4 3.7.9 5.4 1.5l-10.9 29.8 5.5-31.2Zm6 1.7c1.8.7 3.5 1.5 5 2.4L91 218 102 188Zm21.4 21.8c.6 1.7 1 3.5 1.4 5.4l-31.2 5.5 29.8-10.9Zm-30 10.2 27.4-16c.9 1.7 1.7 3.4 2.3 5.1L93.1 220Zm31.6-4.1c.3 1.8.4 3.6.4 5.5H93.5l31.3-5.5Zm.4 6.3c0 1.8-.1 3.7-.4 5.5l-31.3-5.5h31.7Zm-.6 6.2c-.3 1.8-.8 3.6-1.4 5.4L93.4 223l31.2 5.5Zm-1.7 6c-.6 1.8-1.4 3.5-2.3 5l-27.5-15.8 29.8 10.9Zm-67.7-.6c-.6-1.8-1-3.6-1.4-5.4L85 223l-29.8 10.9Zm30-10.2-27.4 15.9c-.9-1.6-1.7-3.3-2.3-5l29.8-10.9Zm-31.6 4c-.3-1.7-.4-3.6-.4-5.4h31.7l-31.3 5.5Zm-2.7-6.2c0-2 .1-4 .5-6l1.5.4c-.3 1.8-.5 3.7-.5 5.6h-1.5Zm.6-6.6c.4-2 .9-4 1.5-5.8l1.5.6A37 37 0 0 0 53 215l-1.5-.2Zm1.8-6.5a38 38 0 0 1 2.5-5.4l1.3.8-2.4 5.1-1.4-.5Zm2.9-6c1-1.7 2.1-3.3 3.4-4.9l1.2 1c-1.2 1.5-2.3 3-3.3 4.7l-1.3-.8Zm5.2-3.4 24.2 20.4-27.4-15.9c1-1.6 2-3 3.2-4.5Zm.4-.6a36 36 0 0 1 4-3.9L86 218.8l-24.3-20.4Zm4.5-4.4A36 36 0 0 1 71 191l15.8 27.4L66.3 194Zm-.5-.5-1-1.2c1.6-1.3 3.2-2.4 4.9-3.5l.8 1.4c-1.7 1-3.2 2-4.7 3.2Zm4.6-5a38 38 0 0 1 5.3-2.5l.6 1.4c-1.8.7-3.5 1.5-5.2 2.4l-.7-1.3Zm6-2.8a39 39 0 0 1 5.8-1.5l.2 1.5c-1.8.3-3.7.8-5.4 1.5l-.6-1.5Zm12.4-2.2v1.6c-2 0-3.8.2-5.6.5l-.3-1.6c2-.3 3.9-.5 6-.5Zm.8 0c2 0 4 .2 5.9.5l-.3 1.6c-1.8-.3-3.7-.5-5.6-.5v-1.6Zm6.6.7c2 .3 3.9.8 5.8 1.5l-.6 1.5a37 37 0 0 0-5.4-1.5l.2-1.5Zm6.5 1.8a38 38 0 0 1 5.3 2.5l-.7 1.3c-1.7-1-3.4-1.7-5.2-2.4l.6-1.4Zm10.8 6.3-1 1.2c-1.4-1.2-3-2.3-4.6-3.3l.8-1.3c1.7 1 3.3 2.1 4.8 3.4Zm-1.4 1.7-20.4 24.3 15.8-27.4c1.6.9 3.1 2 4.6 3.1Zm.5.5a36 36 0 0 1 4 4l-24.3 20.3 20.3-24.3Zm4.4 4.5a36 36 0 0 1 3.2 4.6l-27.4 15.8L117 199Zm.6-.5 1.2-1c1.3 1.6 2.4 3.2 3.4 4.9l-1.3.7c-1-1.6-2-3.1-3.3-4.6Zm5 4.5a38 38 0 0 1 2.5 5.4l-1.5.5c-.6-1.7-1.4-3.5-2.4-5l1.4-.9Zm2.8 6.1a39 39 0 0 1 1.5 5.8l-1.5.2c-.4-1.9-.9-3.7-1.5-5.4l1.5-.6Zm2.1 12.4H126c0-2-.2-3.8-.5-5.6l1.5-.3c.4 2 .5 3.9.5 5.9Zm0 .8c0 2-.1 4-.5 5.9l-1.5-.3c.3-1.8.5-3.7.5-5.6h1.5Zm-.6 6.6c-.4 2-.9 3.9-1.5 5.7l-1.5-.5a37 37 0 0 0 1.5-5.5l1.5.3Zm-1.8 6.4a38 38 0 0 1-2.5 5.4l-1.3-.7c.9-1.7 1.7-3.4 2.4-5.2l1.4.5Zm-2.9 6c-1 1.8-2.1 3.4-3.4 5l-1.2-1c1.2-1.5 2.3-3 3.3-4.7l1.3.8Zm-5.2 3.4-24.2-20.3 27.4 15.8c-1 1.6-2 3.1-3.2 4.6Zm-.4.6a36 36 0 0 1-4 4l-20.3-24.4 24.3 20.4Zm-9.7 8-3 1.5-11.7-27 14.7 25.5Zm-7.8 3.2c-1 .4-2.2.6-3.3.8l-5.1-29 8.4 28.2Zm-4 1c-1.8.2-3.7.4-5.5.4v-31.7l5.5 31.3Zm-11.8 0 5.5-31.3v31.7c-1.9 0-3.7-.2-5.5-.5Zm-.7-.2-3.3-.8 8.4-28.2-5.1 29Zm-8.1-2.5-3-1.5 14.7-25.4-11.7 26.9Zm-8.8-5.6a36 36 0 0 1-3.9-3.9L86.1 225l-20.4 24.3Zm-4.4-4.5a36 36 0 0 1-3.1-4.5l27.4-15.9-24.3 20.4Zm-.5.5-1.2 1a39.1 39.1 0 0 1-3.4-4.8l1.3-.8c1 1.6 2 3.2 3.3 4.6Zm-5-4.5a38 38 0 0 1-2.5-5.3l1.4-.6c.7 1.8 1.5 3.5 2.4 5.1l-1.3.8Zm-2.8-6a39 39 0 0 1-1.5-5.8l1.5-.3c.4 2 .9 3.7 1.5 5.5l-1.5.5Zm11.3-42 1 1.3a37.8 37.8 0 0 0-4 4l-1.2-1c1.3-1.6 2.7-3 4.2-4.2Zm54 4.3-1.2 1a37.8 37.8 0 0 0-4-4l1-1.2c1.5 1.2 3 2.6 4.2 4.1Zm-4.2 54-1-1.2c1.5-1.2 2.8-2.6 4-4l1.2 1a39.5 39.5 0 0 1-4.2 4.2Zm-9.3 5.9-.6-1.4 3-1.6.8 1.4-3.2 1.6Zm-5 1.8a38 38 0 0 1-3.6.9L96 258l3.3-.7.5 1.4Zm-21.2 0 .5-1.4 3.3.7-.2 1.6a38 38 0 0 1-3.6-.9Zm-5-1.8-3.3-1.6.8-1.4 3 1.6-.6 1.4ZM60 246.8l1.2-1c1.2 1.4 2.5 2.8 4 4l-1 1.2a39.5 39.5 0 0 1-4.2-4.2ZM37.1 195.6l-2.2 2.7-1.6-2.2a.5.5 0 0 0-.6-.2c-.3.2-.3.5-.2.7l2 2.8.3.2c.2 0 .3 0 .4-.2l2.6-3.3a.5.5 0 1 0-.7-.6Z"/><path d="M42.9 190.6h-.7v-4.9h.3c.2 0 .4-.1.4-.3v-.5l-1.2-1.2v-3.8c0-.3-.2-.5-.4-.5s-.5.2-.5.4v2.8a14 14 0 0 1-2.3-4.2v-3.8h.1c.3 0 .5-.2.5-.5v-1c0-.2-.2-.4-.5-.4h-.3c-.5-.9-2.5-4.5-3-9.8h.2c.2 0 .4-.2.4-.5s-.2-.4-.4-.4h-.2v-3.1c0-.3-.2-.5-.4-.5s-.5.2-.5.5v3h-.1c-.3 0-.5.3-.5.5s.2.5.5.5c-.3 5.3-2.4 9-2.9 9.8h-.3c-.2 0-.4.2-.4.4v1c0 .3.2.5.4.5v3.8a14 14 0 0 1-2.2 4.2V180c0-.3-.2-.5-.5-.5s-.4.2-.4.4v3.9l-1 1.2c-.2.1-.3.3-.2.5 0 .2.2.3.4.3h.3v5H27c-.3 0-.5.1-.5.4v16c0 .3.2.5.5.5h.6v53.9c0 .2.3.4.5.4h13.7c.3 0 .5-.2.5-.5v-53.8h.7c.2 0 .4-.2.4-.5v-16c0-.3-.2-.5-.4-.5Zm-14 16.1h-.7v-.4c0-.2.1-.3.3-.3s.3.1.3.3v.4ZM39 187c0-.3.3-.6.6-.6s.6.3.6.6v3H39v-3Zm1 7v2a6 6 0 0 0-2-2h2Zm-5.1 10.2a5 5 0 1 1 0-10.2 5 5 0 0 1 0 10.2Zm.3 2v.5h-.7v-.4c0-.2.2-.3.4-.3s.3.1.3.3Zm-1-16.3V187c0-.3.3-.6.7-.6s.6.3.6.6v3h-1.2Zm3.7 0h-1.2V187c0-.3.2-.6.5-.6s.6.3.6.6v3Zm-.8-7.4c0-.2.1-.3.3-.3s.3.1.3.3v.9h-.6v-1Zm-.8-7.1c0-.2.2-.3.3-.3s.4.1.4.3v2h-.7v-2Zm-.5 5.3c0-.2.2-.3.3-.3s.4.1.4.3v.9h-.7v-.9Zm-.7-5.3c0-.2.2-.3.4-.3s.3.1.3.3v2H35v-2Zm-.2 6.8c.1 0 .3.1.3.3v.9h-.7v-1l.4-.2Zm-1-6.8c0-.2.2-.3.4-.3s.3.1.3.3v2H34v-2Zm0 5.3v.9h-.6v-.9c0-.2.1-.3.3-.3s.3.1.3.3Zm-1.1-5.3c0-.2.1-.3.3-.3s.3.1.3.3v2h-.6v-2Zm-.8 7 .3-.2c.1 0 .4.1.4.3v.9H32v-1ZM32 187c0-.3.2-.6.6-.6s.6.3.6.6v3h-1.2v-3Zm-.2 7a6 6 0 0 0-2 2v-2h2Zm-2.2-7c0-.3.3-.6.6-.6s.6.3.6.6v3h-1.2v-3Zm0 19.3c0-.2.1-.3.3-.3s.3.1.3.3v.4h-.6v-.4Zm1.4 52.1c0 .3-.2.5-.4.5s-.5-.2-.5-.5v-4.3c0-.3.2-.5.5-.5s.4.2.4.5v4.3Zm0-7c0 .3-.2.5-.4.5s-.5-.2-.5-.4v-1.6c0-.2.2-.4.5-.4s.4.2.4.4v1.6Zm0-4c0 .2-.2.4-.4.4s-.5-.2-.5-.5v-7.9c0-.3.2-.5.5-.5s.4.2.4.5v8Zm0-10.6c0 .3-.2.5-.4.5s-.5-.2-.5-.5v-1.6c0-.2.2-.4.5-.4s.4.2.4.4v1.6Zm0-4.1c0 .2-.2.4-.4.4s-.5-.2-.5-.4v-8c0-.2.2-.4.5-.4s.4.2.4.4v8Zm0-10.6c0 .3-.2.5-.4.5s-.5-.2-.5-.5v-1.5c0-.3.2-.5.5-.5s.4.2.4.5v1.5Zm0-4.1c0 .2-.2.4-.4.4s-.5-.2-.5-.4v-8c0-.2.2-.4.5-.4s.4.2.4.4v8Zm.5-11.3h-.6v-.4c0-.2 0-.4.3-.4s.3.2.3.4v.4Zm-1.6-2.5v-2a6 6 0 0 0 1.9 2h-1.9Zm2.2 2 .3-.3c.1 0 .4.2.4.4v.4H32v-.4Zm1.1 52.2c0 .3-.2.5-.4.5s-.5-.3-.5-.5v-4.3c0-.3.2-.5.5-.5s.4.2.4.5v4.3Zm0-7c0 .3-.2.5-.4.5s-.5-.2-.5-.4v-1.6c0-.2.2-.4.5-.4s.4.2.4.4v1.6Zm0-4c0 .2-.2.4-.4.4s-.5-.2-.5-.5v-8c0-.2.2-.4.5-.4s.4.2.4.5v8Zm0-10.6c0 .3-.2.5-.4.5s-.5-.3-.5-.5v-1.6c0-.2.2-.4.5-.4s.4.2.4.4v1.6Zm0-4.2c0 .3-.2.5-.4.5s-.5-.2-.5-.5v-7.9c0-.3.2-.5.5-.5s.4.3.4.5v8Zm0-10.5c0 .3-.2.5-.4.5s-.5-.2-.5-.5v-1.5c0-.3.2-.5.5-.5s.4.2.4.5v1.5Zm0-4.1c0 .2-.2.4-.4.4s-.5-.2-.5-.4v-8c0-.2.2-.4.5-.4s.4.2.4.4v8Zm.8-11.3h-.6v-.4c0-.2.1-.4.3-.4s.3.2.3.4v.4Zm1.4 51.7c0 .3-.2.5-.4.5s-.5-.3-.5-.5v-4.3c0-.3.2-.5.5-.5s.4.2.4.5v4.3Zm0-7c0 .3-.2.5-.4.5s-.5-.2-.5-.4v-1.6c0-.2.2-.4.5-.4s.4.2.4.4v1.6Zm0-4c0 .2-.2.4-.4.4s-.5-.2-.5-.5v-8c0-.2.2-.4.5-.4s.4.2.4.5v8Zm0-10.6c0 .3-.2.5-.4.5s-.5-.3-.5-.5v-1.6c0-.2.2-.4.5-.4s.4.2.4.4v1.6Zm0-4.2c0 .3-.2.5-.4.5s-.5-.2-.5-.5v-7.9c0-.3.2-.5.5-.5s.4.3.4.5v8Zm0-10.5c0 .3-.2.5-.4.5s-.5-.2-.5-.5v-1.5c0-.3.2-.5.5-.5s.4.2.4.5v1.5Zm0-4.1c0 .2-.2.4-.4.4s-.5-.2-.5-.4v-8c0-.2.2-.4.5-.4s.4.2.4.4v8Zm1.2-11.3h-.7v-.4c0-.2.2-.4.4-.4s.3.2.3.4v.4Zm1 51.7c0 .3-.2.5-.4.5s-.5-.3-.5-.5v-4.3c0-.3.2-.5.5-.5s.4.2.4.5v4.3Zm0-7c0 .3-.2.5-.4.5s-.5-.2-.5-.4v-1.6c0-.2.2-.4.5-.4s.4.2.4.4v1.6Zm0-4c0 .2-.2.4-.4.4s-.5-.2-.5-.5v-8c0-.2.2-.4.5-.4s.4.2.4.5v8Zm0-10.6c0 .3-.2.5-.4.5s-.5-.3-.5-.5v-1.6c0-.2.2-.4.5-.4s.4.2.4.4v1.6Zm0-4.2c0 .3-.2.5-.4.5s-.5-.2-.5-.5v-7.9c0-.3.2-.5.5-.5s.4.3.4.5v8Zm0-10.5c0 .3-.2.5-.4.5s-.5-.2-.5-.5v-1.5c0-.3.2-.5.5-.5s.4.2.4.5v1.5Zm0-4.1c0 .2-.2.4-.4.4s-.5-.2-.5-.4v-8c0-.2.2-.4.5-.4s.4.2.4.4v8Zm.2-11.3h-.6v-.4c0-.2.1-.4.3-.4s.3.2.3.4v.4Zm2.3-4.4v1.9h-2a6 6 0 0 0 2-2Zm-1.6 4c0-.2.1-.4.3-.4s.3.2.3.4v.4h-.6v-.4Zm1.4 52.1c0 .3-.3.5-.5.5s-.5-.3-.5-.5v-4.3c0-.3.2-.5.5-.5s.5.2.5.5v4.3Zm0-7c0 .3-.3.5-.5.5s-.5-.2-.5-.4v-1.6c0-.2.2-.4.5-.4s.5.2.5.4v1.6Zm0-4c0 .2-.3.4-.5.4s-.5-.2-.5-.5v-8c0-.2.2-.4.5-.4s.5.2.5.5v8Zm0-10.6c0 .3-.3.5-.5.5s-.5-.3-.5-.5v-1.6c0-.2.2-.4.5-.4s.5.2.5.4v1.6Zm0-4.2c0 .3-.3.5-.5.5s-.5-.2-.5-.5v-7.9c0-.3.2-.5.5-.5s.5.3.5.5v8Zm0-10.5c0 .3-.3.5-.5.5s-.5-.2-.5-.5v-1.5c0-.3.2-.5.5-.5s.5.2.5.5v1.5Zm0-4.1c0 .2-.3.4-.5.4s-.5-.2-.5-.4v-8c0-.2.2-.4.5-.4s.5.2.5.4v8Zm.5-11.3h-.7v-.4c0-.2.2-.4.4-.4s.3.2.3.4v.4Zm1.2 0H41v-.4c0-.2.1-.4.3-.4s.3.2.3.4v.4Z"/><path d="M335 236.5h-9.3v5.5H322v8.4h-3.6v-11.1h-2.8V230h-9v27.1h-4.4v-20.8h-1.6v-12.2h-7.4v18h-2v-10.9h-7.6v34.9h-6.5v-4.4H270v-24.5h-7.6v4.8h-2v-18H253v12.4h-1.6V257h-4.4v-27h-9v9.2h-2.8v11h-3.6V242h-3.7v-5.5h-8.2v19.3h-4v-9.4H210v-19.3h-9.5v35.6h-4.7v-21h-7.9v2.8h-1.6v6h-2.8v-3.9h-10.7v7.6h-2v-14.3h-10.7v7.5h-3.8v18.2h-3.8v-33h-2v-5.5l-3.6-3.6h-5.2v16.4h-4.1v10.8H131v-2.9h-1.7v11H127v7.3H125v-8h-2v-5H121v1.5h-1.2v3H114v7.7h-10.3v.8h-6.9v-3.4h-8v3.4H77.2v-4.2h-4.8v-11.8H61.4v6.3h-2v-2.8H54v-13.2h-2v-2.7H44v2.7h-4.1V256h-3.3v-4.5h-4.2v-12.3h-4.7v-11.9H16.5v6.3h-2.8v5H9.2v-21H0V335h335v-98.5ZM2.6 239.7h-1v-1.8h1v1.8Zm0-3.5h-1v-1.8h1v1.8ZM7.8 225h-1v-1.8h1v1.8Zm0-3.5h-1v-1.8h1v1.8Zm10.4 30.3H17V250h1v1.8Zm2.5-7h-1v-1.8h1v1.8Zm0-3.5h-1v-1.8h1v1.8Zm2.5-10.5h-1v-1.8h1v1.8Zm2.5 7h-1v-1.8h1v1.8Zm0-3.5h-1v-1.8h1v1.8Zm0-3.5h-1v-1.8h1v1.8Zm2.9 19.9H28v-10h.5v10Zm1.3 0h-.5v-10h.5v10Zm1.3 0h-.5v-10h.5v10Zm19.2-11.2h-4.1v-.6h4v.6Zm2.3 8.2H52V246h.7v1.8Zm0-3.5H52v-1.8h.7v1.8ZM65.6 266h-1.1v-.1h1v.1Zm0-1.8h-1.1v-1.8h1v1.8Zm2.5-10.5H67v-1.8h1v1.8Zm2.5 7h-1.1v-1.8h1v1.8Zm0-3.5h-1.1v-1.8h1v1.8Zm0-3.5h-1.1v-1.8h1v1.8Zm2.9 12.3H73v-2.4h.5v2.4Zm1.3 0h-.5v-2.4h.5v2.4Zm1.3 0h-.5v-2.4h.5v2.4Zm19.2 0h-4.1v-.3h4v.3Zm0-1.4h-4.1v-.6h4v.6Zm28.4.7H120v-.6h3.8v.6Zm0-1.5H120v-.5h3.8v.5Zm0-1.5H120v-.5h3.8v.5Zm0-1.5H120v-.5h3.8v.5Zm18.5-8.8h-1v-1.8h1v1.8Zm2-21.8h-1v-1.8h1v1.8Zm0-3.5h-1v-1.8h1v1.8Zm6.8 22.7h-1v-1.8h1v1.8Zm.3-8h-3.8v-.6h3.8v.6Zm0-1.5h-3.8v-.5h3.8v.5Zm0-1.5h-3.8v-.5h3.8v.5Zm0-1.5h-3.8v-.5h3.8v.5Zm0-1.5h-3.8v-.5h3.8v.5Zm7.8 29.7h-1v-1.8h1v1.8Zm0-3.5h-1v-1.8h1v1.8Zm0-7h-1v-1.8h1v1.8Zm3.2 10.5h-1v-1.8h1v1.8Zm0-3.5h-1v-1.8h1v1.8Zm0-17.5h-1v-1.8h1v1.8Zm2.5 10.5h-1v-1.8h1v1.8Zm0-7h-1v-1.8h1v1.8Zm0-3.5h-1v-1.8h1v1.8Zm7 17.2h-1v-1.8h1v1.8Zm3.1-10.5h-1V249h1v1.8Zm2.6 10.5h-1.1v-1.8h1v1.8Zm0-7h-1.1v-1.8h1v1.8Zm0-3.5h-1.1V249h1v1.8Zm11.7 13h-1v-1.9h1v1.8Zm0-3.6h-1v-1.8h1v1.8Zm5.2-11h-1v-1.9h1v1.8Zm0-3.6h-1v-1.8h1v1.8Zm12.6 5.1h-.8v-1.2h.8v1.2Zm0-2.3h-.8V247h.8v1.3Zm2.1-16.8h-.7v-1.2h.7v1.2Zm0-2.3h-.7V228h.7v1.2Zm3.7 24.5h-.3v-6.7h.3v6.7Zm1 0h-.4v-6.7h.3v6.7Zm.8 0h-.3v-6.7h.3v6.7Zm6.7-1h-.7v-1.3h.7v1.2Zm0-2.4h-.7v-1.2h.7v1.2Zm0-2.4h-.7v-1.2h.7v1.2Zm0-2.3h-.7v-1.2h.7v1.2Zm0-2.4h-.7v-1.2h.7v1.2Zm0-2.3h-.7v-1.2h.7v1.2Zm0-2.4h-.7v-1.2h.7v1.2Zm1.7 14.1h-.7v-1.2h.7v1.2Zm0-2.3h-.7v-1.2h.7v1.2Zm0-2.4h-.7v-1.2h.7v1.2Zm0-2.3h-.7v-1.2h.7v1.2Zm0-2.4h-.7v-1.2h.7v1.2Zm0-2.3h-.7v-1.2h.7v1.2Zm0-2.4h-.7v-1.2h.7v1.2Zm7.8 14.5h-2.5v-.4h2.5v.4Zm0-1h-2.5v-.4h2.5v.4Zm0-1h-2.5v-.4h2.5v.4Zm0-1h-2.5v-.4h2.5v.4Zm0-1h-2.5v-.4h2.5v.4Zm0-1h-2.5v-.4h2.5v.4Zm0-1h-2.5v-.4h2.5v.4Zm0-1h-2.5v-.4h2.5v.4Zm0-1h-2.5v-.4h2.5v.4Zm0-1h-2.5v-.4h2.5v.4Zm0-1h-2.5v-.4h2.5v.4Zm6.3 9.9h-.8v-1.2h.8v1.2Zm0-2.4h-.8v-1.2h.8v1.2Zm4-14h-.7v-1.3h.7v1.2Zm0-2.4h-.7v-1.3h.7v1.3Zm0-2.4h-.7v-1.2h.7v1.2Zm1.7 0h-.7v-1.2h.7v1.2Zm1.7 9.4h-.8V240h.8v1.2Zm0-2.4h-.8v-1.2h.8v1.3Zm1.6 15h-.7v-1.2h.8v1.2Zm0-2.3h-.7v-1.3h.8v1.3Zm0-5.6h-.7v-1.2h.8v1.2Zm0-11.7h-.7v-1.3h.8v1.3Zm0-2.4h-.7v-1.2h.8v1.2Zm6.8 18.6h-.8v-1.2h.8v1.2Zm0-2.3h-.8v-1.2h.8v1.2Zm1.6-15h-.7v-1.3h.7v1.2Zm0-4.8h-.7v-1.2h.7v1.2Zm0-2.3h-.7v-1.2h.7v1.2Zm1.7 14h-.8v-1.2h.8v1.3Zm0-2.3h-.8v-1.2h.8v1.2Zm0-11.7h-.8v-1.2h.8v1.2Zm3.3 14h-.7v-1.2h.7v1.3Zm0-2.3h-.7v-1.2h.7v1.2Zm0-4.7h-.7v-1.2h.7v1.2Zm0-4.7h-.7v-1.2h.7v1.2Zm0-2.3h-.7v-1.2h.7v1.2Zm4.3 19.8h-2.7v-.4h2.7v.4Zm0-1.2h-2.7v-.4h2.7v.4Zm0-1.2h-2.7v-.4h2.7v.4Zm28.6 2.4h-2.7v-.4h2.7v.4Zm0-1.2h-2.7v-.4h2.7v.4Zm0-1.2h-2.7v-.4h2.7v.4Zm2.3-3.3h-.7v-1.3h.7v1.3Zm0-2.4h-.7v-1.2h.7v1.2Zm0-4.7h-.7v-1.2h.7v1.2Zm0-4.7h-.7v-1.2h.7v1.2Zm0-2.3h-.7v-1.2h.7v1.2Zm3.4 14h-.8v-1.2h.8v1.3Zm0-2.3h-.8v-1.2h.8v1.2Zm0-11.7h-.8v-1.2h.8v1.2Zm1.6 7h-.7v-1.2h.7v1.2Zm0-4.7h-.7v-1.2h.7v1.2Zm0-2.3h-.7v-1.2h.7v1.2Zm1.7 24.4h-.7v-1.2h.7v1.2Zm0-2.3h-.7v-1.2h.7v1.2Zm6.7 5.7h-.7v-1.2h.7v1.2Zm0-2.4h-.7v-1.2h.7v1.2Zm0-5.5h-.7v-1.2h.7v1.2Zm0-11.8h-.7V233h.7v1.2Zm0-2.3h-.7v-1.2h.7v1.2Zm1.7 9.4h-.8V240h.8v1.2Zm0-2.4h-.8v-1.2h.8v1.2Zm1.6-7h-.7v-1.2h.7v1.2Zm1.7 4.7h-.7v-1.2h.7v1.2Zm0-2.4h-.7V233h.7v1.2Zm0-2.3h-.7v-1.2h.7v1.2Zm4 21.2h-.7v-1.3h.8v1.3Zm0-2.4h-.7v-1.2h.8v1.2Zm8.1 2.4h-2.5v-.4h2.5v.4Zm0-1h-2.5v-.4h2.5v.4Zm0-1h-2.5v-.4h2.5v.4Zm0-1h-2.5v-.4h2.5v.4Zm0-1h-2.5v-.4h2.5v.4Zm0-1h-2.5v-.4h2.5v.4Zm0-1h-2.5v-.4h2.5v.4Zm0-1h-2.5v-.4h2.5v.4Zm0-1h-2.5v-.4h2.5v.4Zm0-1h-2.5v-.4h2.5v.4Zm0-1h-2.5v-.4h2.5v.4Zm6 9.6h-.7v-1.2h.7v1.2Zm0-2.3h-.7V249h.7v1.3Zm0-2.4h-.7v-1.2h.7v1.2Zm0-2.3h-.7v-1.3h.7v1.3Zm0-2.4h-.7V242h.7v1.2Zm0-2.3h-.7v-1.3h.7v1.3Zm0-2.4h-.7v-1.2h.7v1.2Zm1.7 14h-.7v-1.1h.7v1.2Zm0-2.3h-.7V249h.7v1.2Zm0-2.3h-.7v-1.2h.7v1.2Zm0-2.4h-.7v-1.2h.7v1.2Zm0-2.3h-.7V242h.7v1.2Zm0-2.4h-.7v-1.2h.7v1.2Zm0-2.3h-.7v-1.2h.7v1.2Z"/><path d="M287.3 201.6c-.2 0-2.1-.9-2.9-.9h-.7l.2-.7h.4c.2 0 .3 0 .4-.3 0-.1-.1-.3-.3-.3l-6.5-2.7-.1-.1v-.1l1.4-.7a.3.3 0 0 0-.1-.7l-1-.2-.3-.7-.4-.2h-1.7l-.2-.7-.3-.2h-.4v-5.6c0-.2-.1-.4-.3-.4s-.4.2-.4.4v5.6h-.3c-.2 0-.3 0-.3.2l-.2.7h-1.7c-.2 0-.3 0-.4.2l-.3.7-1 .2-.3.3c0 .1 0 .3.2.4l1.3.7.1.1v.1l-6.7 2.7a.4.4 0 0 0 .2.6h.4l.2.7h-.7c-.8 0-2.7.8-3 .9l-.1.3c0 .2 0 .3.2.4 0 0 1.6.5 2.7.6l.5 1.3-1.1.4-.2.4s0 .2.2.3c.1 0 2.4.8 5.1 1 .4 2.5 3.6 21.6 3.6 23.7v11.3c0 3.5-4.3 31.6-3.1 25h10.2c1.2 6.6-3.1-21.5-3.1-25V230c0-2 3.1-21.2 3.6-23.8 2.7 0 5-.9 5-1 .2 0 .3-.1.3-.2 0-.2 0-.3-.2-.4l-1.1-.4.5-1.3c1.1 0 2.6-.6 2.7-.6l.2-.4c0-.1 0-.2-.2-.3Zm-14.8 64h-3l3-18.5v18.4Zm-1.1-62.1c0-.2.1-.4.3-.4s.3.2.3.4v.3h-.6v-.3Zm-1-3.4c0-.2.2-.3.4-.3s.3.1.3.3v.3h-.7v-.3Zm-3 .3h-.6v-.3c0-.2.1-.3.3-.3s.3.1.3.3v.3Zm1 3.4h-.7v-.3c0-.2.1-.4.3-.4s.3.2.3.4v.3Zm.9-3.4h-.7v-.3c0-.2.2-.3.3-.3s.3.1.3.3v.3Zm.2 3 .3-.3.4.3v.4h-.7v-.4Zm3 21-2.9-18.2h2.9v18.2Zm.4-24h-.6v-.3c0-.2.1-.3.3-.3s.3.1.3.3v.3Zm1 3.4h-.7v-.3c0-.2.2-.4.3-.4s.4.2.4.4v.3Zm.9-3.4h-.7v-.3c0-.2.2-.3.4-.3s.3.1.3.3v.3Zm3-.3c0-.2.2-.3.4-.3s.3.1.3.3v.3h-.7v-.3Zm-.9 3.4c0-.2.2-.4.3-.4s.4.2.4.4v.3h-.7v-.3Zm-1.2.3h-.6v-.3c0-.2.1-.4.3-.4s.3.2.3.4v.3Zm3.8 61.7h-3v-4h2.3l.7 4Zm-.8-4.7h-2.3v-4h1.6l.7 4Zm-.8-4.7h-1.5v-9l1.5 9Zm-2-55.7v-.3c0-.2.2-.3.4-.3s.3.1.3.3v.3h-.6Zm.5 24v-18.2h3l-3 18.2Zm3-20.6h-.6v-.4c0-.1.1-.3.3-.3s.3.2.3.3v.4Zm1-3.4h-.7v-.3c0-.2.1-.3.3-.3s.3.1.3.3v.3Zm.9 3.4h-.7v-.4l.3-.3.3.3v.4Zm.9-3.4h-.7v-.3c0-.2.2-.3.3-.3s.4.1.4.3v.3Z"/></g><g fill="#ff8e00" data-name="PRINT"><path d="M29.6 14c0 .4-.2 1-.6 1.3l-6.3 6.4-6.8-4V14a2 2 0 0 1 4 0v4.9l6.3-6.3a2 2 0 0 1 3.4 1.4ZM29 31.7a2 2 0 0 1-2.8 0L24 29.6 20 25.4v4.9c0 1-1 2-2 2s-2-1-2-2v-3.9l6.8-3.9 4.2 4.2 2 2.2c.9.7.9 2 0 2.8ZM22.4 22l-.2-.3-1.8-1-4.5-2.6-3.9-2.3c-.2 0-.5 0-.6.2V27.9a.5.5 0 0 0 .6.4l3.9-2.2 6.2-3.6h.1l.1-.2V22Zm-9.6-4.8 3 1.8 4.9 2.8.1.1v.3l-.1.2-4.9 2.8-3 1.8c-.2 0-.4 0-.5-.2v-9.2c0-.2.1-.4.3-.4h.2Z"/><path d="m19.5 22.2-.2.1-3.6 2.1-2.3 1.3h-.3v-7c0-.2 0-.3.2-.3h.1l2.3 1.4 3.6 2 .2.2v.2ZM62.5 21.6 57 18.8l-3.4-1.7a.4.4 0 0 0-.6.1v9.5c.1.2.3.4.5.4l.2-.1.2-.1 3.2-1.7 2-1 3.5-2c.1 0 .2 0 .2-.2v-.2l-.2-.2ZM57 24.5l-2.6 1.4-.4-.1v-.2l-.2-7.2c0-.1.2-.3.4-.2l2.8 1.3 1 .5 3.3 1.7.2.2v.1l-.2.2-4.3 2.3Z"/><path d="M60.1 22v.1L56.7 24l-2 1h-.3v-.1l-.1-5.5.2-.2h.1l2 1 3.3 1.7.1.1v.1ZM38.5 17.2H33.7V27h2.4v-3.1h2.5c2.3-.1 4-1.5 4-3.4s-1.8-3.2-4-3.2Zm-.2 4.6H36v-2.7h2.3c1.1 0 2 .5 2 1.3 0 .9-.9 1.4-2 1.4ZM51.8 27l-7.7.1-.2-9.7h2.4l.1 7.8 5.3-.1.1 1.9zM67.5 23.3l.1 3.5h-2.4v-3.5l-4.3-6.1 2.7-.1 2.7 4.3 2.8-4.3 2.6-.1-4.2 6.3zM81.9 27.2l-1.6.1-4.1-4.5-1.7 1.6v2.9l-1.2.1-.1-9.7h1.2l.1 5.3 5.4-5.4h1.6L77 22.1l4.9 5.1zM88 17.3c-3 0-5.5 2.4-5.5 5.1 0 2.7 2.6 5 5.6 5 3 0 5.5-2.4 5.5-5.1 0-2.7-2.6-5-5.6-5Zm.4 9a4.3 4.3 0 0 1-4.7-4 4.3 4.3 0 0 1 8.6 0 4.3 4.3 0 0 1-4 4ZM103.2 24.5c0 1.6-1.3 2.8-3.8 2.8-1.5.1-3-.4-4.2-1.4l.7-.9a5 5 0 0 0 3.6 1.4c1.6 0 2.5-.9 2.5-1.8 0-1-1-1.4-3-1.8-2.1-.4-3.5-1-3.5-2.6s1.5-2.8 3.5-2.8c1.4 0 2.8.4 3.8 1.3l-.7.8c-.8-.7-2-1.2-3.1-1.2-1.3 0-2.3.9-2.3 1.7 0 1 1 1.4 3 1.8 2 .4 3.5 1 3.5 2.7ZM116 27.2h-1.2l-.1-7.3-3.9 6.8-4.1-6.7.1 7.3-1.3.1-.1-9.7h1.3l4 6.7 4-6.8h1.2l.1 9.6zM123.7 17.3c-3 0-5.5 2.4-5.5 5.1 0 2.7 2.6 5 5.6 5 3 0 5.5-2.4 5.5-5.1 0-2.7-2.6-5-5.6-5Zm.4 9a4.3 4.3 0 0 1-4.6-4 4.3 4.3 0 0 1 8.5 0 4.3 4.3 0 0 1-3.9 4ZM139 24.5c0 1.6-1.4 2.8-3.9 2.8A6.2 6.2 0 0 1 131 26l.7-.9.6.4c.8.6 1.9 1 3 1 1.6 0 2.5-.9 2.5-1.8 0-.7-.6-1.1-1.6-1.4l-1.2-.3h-.2c-2.1-.5-3.5-1-3.5-2.7 0-1.6 1.5-2.8 3.6-2.8 1.3 0 2.7.4 3.8 1.3l-.8.8c-.8-.7-2-1.2-3-1.2-1.4 0-2.4.9-2.4 1.7 0 1 1.1 1.4 3 1.8a14.6 14.6 0 0 1 2 .6c1 .4 1.5 1 1.5 2.1Z"/></g><path fill="#004063" d="M120.2 309.2h94.6V335h-94.6z"/><g filter="url(#k)"><path fill="#fff" d="M38.8 111.2a19 19 0 1 0-27 27l5.7 5.5c2.8 2.9 4.4 6.7 4.4 10.8h6.9c0-4 1.6-8 4.4-10.8l5.6-5.6a19 19 0 0 0 0-27Z"/><path fill="url(#b)" d="M22.6 143.6c.8 2 1.2 4.1 1.4 6.3h1.3v-44.3a2 2 0 0 0-.9-.2 2 2 0 0 0-.9.3 47 47 0 0 0-1 38Z"/><path fill="#e6f3fa" d="M13.8 117.2a24.3 24.3 0 0 0-.4 14.2 41 41 0 0 0 6.4 12.2 18 18 0 0 1 2.7 6.3H24c-.2-2.2-.6-4.4-1.5-6.3a46.9 46.9 0 0 1 1-37.9c-.2 0-.5-.1-.8 0-.4 0-.8.1-1 .3a24.3 24.3 0 0 0-8 11.2Z"/><path fill="url(#l)" d="M19.8 143.6a40.4 40.4 0 0 1-6.4-12.2 24.3 24.3 0 0 1 8.4-25.5 19 19 0 0 0-9.9 32.2l5.6 5.6c1.7 1.8 3 3.9 3.7 6.2h1.3a18 18 0 0 0-2.7-6.3Z"/><path fill="#e6f3fa" d="M38.8 138.1a19 19 0 0 0 0-27A19 19 0 0 0 29 106a24.3 24.3 0 0 1 8.4 25.4 41 41 0 0 1-6.4 12.2 18 18 0 0 0-2.8 6.3h1.3c.7-2.3 2-4.4 3.7-6.2l5.6-5.6Z"/><path fill="#e6f3fa" d="M26.8 150c.2-2.3.6-4.5 1.4-6.4 5-11.8 4.7-26.2-1-37.9a2.3 2.3 0 0 0-1.9 0v44.2h1.5Z"/><path fill="url(#m)" d="M28.2 143.6c-.8 2-1.2 4.1-1.4 6.3h1.4a18 18 0 0 1 2.8-6.3c2.6-3.8 5.1-7.7 6.4-12.2A24.3 24.3 0 0 0 29 106a2 2 0 0 0-.8-.4 2 2 0 0 0-1 .1c5.6 11.6 6 26 1 38Z"/><path fill="#ffb131" d="M28.2 150h-7c.5 1.4.7 2.9.7 4.4h6.9c0-1.5.2-3 .6-4.5h-1.2ZM29.1 158.5h-7.6c-.2 0-.4.2-.4.4s.2.4.4.4l.1.2c.2.4.3.8.3 1.3v3.2c0 .2.2.4.4.4h6c.3 0 .5-.2.5-.4v-3.2c0-.5 0-1 .3-1.3v-.2c.3 0 .4-.2.4-.4s-.1-.4-.4-.4Z"/><path fill="#ffb131" d="M22.2 154h.3v4.8h-.3zM23.9 154h.3v4.8h-.3zM26.3 154h.3v4.8h-.3zM28.2 154h.3v4.9h-.3z"/><g fill="#b4731d"><path d="M21.6 161.9c.4.3 1 .3 1.4 0 .4-.4.4-1 0-1.4l-.2-.1-.3-.9H22c0 .4 0 .6-.3.9h-.1c-.4.5-.4 1.1 0 1.5ZM24.6 161.9c.4.3 1 .3 1.4 0 .4-.4.3-1 0-1.4l-.2-.1-.3-.9H25c0 .4-.1.6-.3.9h-.1c-.4.5-.5 1.1 0 1.5ZM27.6 161.9c.4.3 1 .3 1.4 0 .3-.4.3-1 0-1.4l-.2-.1c-.2-.3-.4-.6-.4-.9h-.3c0 .4-.1.6-.3.9h-.2c-.4.5-.4 1.1 0 1.5ZM29 159.5h-7.4l-.1-.3h7.7l-.2.3z"/></g></g><g filter="url(#n)"><path fill="#fff" d="M325.7 12.7a14.5 14.5 0 1 0-20.4 20.4l4.2 4.4c2.1 2.1 3.3 5 3.3 8.1h5.2c0-3 1.2-6 3.4-8.2l4.3-4.2a14.5 14.5 0 0 0 0-20.5Z"/><path fill="url(#o)" d="M313.3 37.4c.6 1.4 1 3 1.1 4.7h1V8.5l-.6-.1-.8.2a35.6 35.6 0 0 0-.7 28.8Z"/><path fill="#e6f3fa" d="M306.6 17.3a18.4 18.4 0 0 0-.3 10.8c1 3.4 2.9 6.4 4.9 9.3 1 1.4 1.7 3 2 4.8h1.2c-.2-1.7-.5-3.4-1-4.8-4-9-3.6-20 .6-28.8h-.6c-.3 0-.6 0-.7.2-2.8 2.1-5 5.2-6 8.5Z"/><path fill="url(#p)" d="M311.2 37.4a31 31 0 0 1-4.8-9.3 18.4 18.4 0 0 1 6.3-19.3 14.5 14.5 0 0 0-7.5 24.4l4.3 4.2c1.3 1.4 2.3 3 2.8 4.8h1c-.4-1.8-1-3.4-2.1-4.8Z"/><path fill="#e6f3fa" d="M325.7 33.2a14.5 14.5 0 0 0 0-20.5 14.4 14.4 0 0 0-7.5-4 18.4 18.4 0 0 1 6.4 19.4c-1 3.4-2.9 6.4-4.9 9.3-1 1.4-1.7 3-2 4.8h.9c.5-1.8 1.5-3.4 2.8-4.8l4.3-4.2Z"/><path fill="#e6f3fa" d="M316.5 42.1c.2-1.6.5-3.3 1.1-4.7 3.9-9 3.5-20-.7-28.8a1.9 1.9 0 0 0-1.5-.1V42h1.1Z"/><path fill="url(#q)" d="M317.6 37.4c-.6 1.4-1 3-1 4.7h1c.4-1.7 1.1-3.3 2.1-4.8a31 31 0 0 0 4.9-9.2 18.4 18.4 0 0 0-6.4-19.3l-.6-.3h-.7c4.2 9 4.6 19.8.7 28.9Z"/><path fill="#ff2d4b" d="M317.6 42.1h-5.3c.4 1.1.5 2.3.5 3.5h5.2c0-1.2.2-2.4.6-3.5h-1ZM318.3 48.6h-5.8l-.3.3.3.3.1.2.2 1v2.4c0 .2.1.4.3.4h4.6c.2 0 .3-.2.3-.4v-2.4l.2-1 .1-.2c.2 0 .3 0 .3-.3s-.1-.3-.3-.3Z"/><path fill="#ff2d4b" d="M313 45.3h.2v3.6h-.2zM314.4 45.3h.2v3.6h-.2zM316.2 45.3h.2v3.6h-.2zM317.6 45.3h.2V49h-.2z"/><g fill="#a93234"><path d="M312.6 51.2c.3.3.8.3 1 0 .3-.3.3-.7 0-1V50a1 1 0 0 1-.4-.7h-.2c0 .3-.1.5-.3.7-.4.4-.4.8-.1 1.1ZM314.9 51.2c.3.3.7.3 1 0 .3-.3.3-.7 0-1l-.1-.1a1 1 0 0 1-.3-.7h-.3c0 .3 0 .5-.2.7h-.1c-.3.4-.3.8 0 1.1ZM317.1 51.2c.3.3.8.3 1 0 .4-.3.3-.7 0-1V50a1 1 0 0 1-.3-.7h-.3c0 .3 0 .5-.3.7-.3.4-.4.8 0 1.1Z"/><path d="M318.2 49.5h-5.6l-.1-.3h5.9l-.2.3z"/></g></g></g></svg>