<?xml version="1.0" encoding="UTF-8"?>
<svg id="uuid-46d95746-5ec2-4bd7-9de3-4bf24dd7e6a6" data-name="Layer 1" xmlns="http://www.w3.org/2000/svg" width="335" height="335" xmlns:xlink="http://www.w3.org/1999/xlink" viewBox="0 0 335 335">
  <defs>
    <radialGradient id="uuid-621cb30d-1415-4058-8ca3-0c8440aa10f3" cx="167.5" cy="167.5" fx="167.5" fy="167.5" r="167.5" gradientTransform="translate(0 335) scale(1 -1)" gradientUnits="userSpaceOnUse">
      <stop offset="0" stop-color="#ffdd15"/>
      <stop offset=".05" stop-color="#fcd415"/>
      <stop offset=".37" stop-color="#ed9d15"/>
      <stop offset=".65" stop-color="#e27616"/>
      <stop offset=".87" stop-color="#db5d16"/>
      <stop offset="1" stop-color="#d95517"/>
    </radialGradient>
  </defs>
  <g>
    <rect width="335" height="335" fill="url(#uuid-621cb30d-1415-4058-8ca3-0c8440aa10f3)"/>
    <path d="M0,335l-.67-8.73c2.14-.21,4.15-.48,4.12-.72-.3-2.27,9.18-.11,9.02-1.26-.33-2.47,9.12-.9,9.14-.71,.08,.59,8.71-2.05,8.51-3.58-.09-.7,9.2-.71,9.29-.04-.29-2.15,7.87-7.15,8.11-5.35-.11-.82,8.81-3.24,9.16-.66-.18-1.34,9.43-1.14,10.01,3.19-.18-1.35,8.42-3.46,8.25-4.76,.31,2.3,9.11-2.46,8.83-4.58,.64,4.8,10.09,2.04,10.01,1.43,.12,.88,9.36-1.04,9.51,.11-.38-2.86,9.34,.15,9.31-.08,.47,3.54,9.68,.51,9.28-2.5-.18-1.36,9.46,1.05,9.33,.05,.05,.38,8.4,1.25,8.64,3.06,.07,.54,9.11,4.89,8.76,2.21,.15,1.11,9.67,9.45,8.94,3.93-.26-1.94,9.86-4.11,10.13-2.12-.26-1.94,9.01-.99,9.36,1.64,.74,5.54,8.43,2.71,8.85,5.84,.08,.62,9.18,2.17,9.32,3.23-.46-3.42,10.44,3.33,9.82-1.32,.11,.81,10.15-2.01,9.94-3.58,.02,.16,9.37,9.58,9.05,7.23,.26,1.97,9.46-9.86,10.03-5.57-.05-.36,9.6,1.88,9.53,1.35-.44-3.26,9.3-.76,9.55,1.12,0-.08,9.7,5.22,9.51,3.84,.16,1.19,9.29-5.54,9.35-5.11-.54-4.08,9.35-.52,9.52,.78,.42,3.12,9.7-3.23,10.25,.84-.32-2.41,9.89,.01,9.33-4.12-.39-2.92,7.23-6.94,7.16-7.44-.36-2.67,9.72-1.69,9.41-4.01,.45,3.35,4.6-8.09,4.27-10.51-.04-.34,10.38,.73,13.08-.05v36.96H0Z" fill="#fff"/>
    <g opacity=".05">
      <path d="M4.16,209.4c.91-.81,2.07-1,3.19-1.26,3.65-.88,6.12-3.02,7.5-6.53,.97-2.47,2.17-4.84,3.16-7.3,1.8-4.46,4.85-7.85,8.82-10.43,2.13-1.39,3.7-3.18,4.75-5.45,2.26-4.9,5.13-9.44,8.14-13.89,1.04-1.53,1.64-3.1,1.12-4.98-1.55-5.54,0-10.29,4.1-14.09,2.59-2.41,2.96-5.41,3.13-8.52,.38-7.36,2.33-14.34,4.76-21.22,.82-2.3,.78-2.29-1.65-2.83-3.33-.73-6.74-1.78-10.06-1.43-5.36,.57-10.72,.08-16.05,.51-1.15,.09-1.9,.93-2.65,1.76-1.3,1.44-2.77,2.64-4.86,2.65-.46,0-1.03,.09-1.24-.47-.22-.59,.31-.82,.69-1.09,.38-.27,.86-.47,1.14-.82,.38-.47,.69-1.08,.45-1.71-.29-.74-.96-.59-1.58-.51-1.28,.16-2.56,.33-3.85,.48-1.26,.15-2.32-.06-2.68-1.52-.35-1.44-.19-2.79,1.21-3.53,2.79-1.46,5.93-2.17,8.88-1.42,2.32,.59,4.43,.43,6.6,.07,7.4-1.23,14.85-1.81,22.33-1.8,2.49,0,4.86-.58,7.25-1.04,2.09-.41,4.05-.13,6,.57,.53,.19,1.11,.79,1.63,.07,.45-.62,.76-1.42,.19-2.08-1.76-2.04-1.64-4.55-1.71-6.96-.1-3.45,1.19-5.35,4.37-6.6,4.11-1.62,8.13-1.33,11.97,.87,1.66,.95,2.4,2.28,2.3,4.37-.12,2.58-.82,5.26,.47,7.8,.33,.64,.3,1.45-.5,1.74-1.33,.49-1.92,1.66-2.24,2.74-.66,2.23-1.86,2.61-3.79,1.73-.24-.11-.5-.14-.92-.26,.96,2,1.85,3.85,2.73,5.7,.21,.45,.48,.84,.96,1,2.25,.74,4.19,1.94,5.71,3.78,.56,.68,.94,.24,1.26-.27,2.26-3.6,3.9-8.1,.84-12.17-.9-1.2-1.49-2.64-.68-4.2,.22-.42,.48-.91,1.05-.78,.53,.12,.39,.63,.39,1.02,0,.74-.15,1.74,.85,1.76,.79,.02,.78-.97,.93-1.61,.25-1.07,.32-2.13,.17-3.24-.15-1.05,.41-1.47,1.48-1.33,1.68,.22,2.92,.99,3.64,2.57,1.08,2.39,1.33,4.94,.62,7.38-1.86,6.43-2.6,13.05-3.71,19.61-.1,.6-.17,1.22-.34,1.8-.77,2.69-2.48,3.46-4.95,2.15-3-1.59-5.65-3.77-8.76-5.21-1.51-.7-2.13-.43-2.71,1.05-2.41,6.21-4.87,12.41-7.38,18.58-.62,1.53-.21,1.93,1.31,1.85,1.63-.08,3.28,.09,4.9-.05,6.84-.59,13.01,1.67,19.08,4.38,2.71,1.21,4.04,4.06,3.27,6.9-.61,2.24-1.53,4.32-3.03,6.17-3.12,3.86-6.02,7.9-9.19,11.72-2.56,3.08-3.21,6.84-4.26,10.48-.11,.4-.2,.89,.14,1.16,2.51,1.95,1.98,4.93,2.45,7.51,.4,2.18,.8,4.12,3.08,5.1,.81,.35,1.22,1.08,1.08,2.01-.16,1.07-.88,1.62-1.85,1.96-3.51,1.23-9.14-1.33-10.92-5.23-.83-1.81-1.76-3.11-3.68-4.01-1.94-.91-3.36-2.73-4.66-4.49-.29-.4-.56-.89-.29-1.33,1.32-2.12,2.52-4.45,4.92-5.5,.9-.39,1.55-.8,1.9-1.63,2.03-4.79,4.87-9.29,5.14-14.72,.09-1.91,1.38-3.51,2.05-5.67-2.99,.36-5.73,.59-8.45,1.03-3.22,.51-6.4,1.3-9.63,1.76-1.56,.22-2.33,1.01-3.08,2.27-2.69,4.57-5.12,9.31-8.66,13.32-.76,.86-1.59,1.68-2.45,2.45-2.06,1.87-4.23,3.63-5.71,6.06-.91,1.49-2.55,2.2-3.92,3.2-7.55,5.58-13.48,12.58-18.03,20.77-.19,.35-.47,.89-.34,1.13,1.42,2.61-.34,4.59-1.39,6.59-1.18,2.26-1.27,4.04,.58,6.05,1.79,1.94,1.39,2.85-1.45,4.73h-2.45c-.34-.22-.67-.47-1.03-.66-3.46-1.86-5.7-4.44-5.79-8.64-.07-3.01-1.06-5.87-2.16-8.66v-3.27l.05,.05Z" fill="#754c28"/>
      <path d="M330.84,132.63c-1.23,1.05-2.56,1.53-4.11,.66-.23-.13-.59-.35-.73-.26-3.49,2.13-7.55,.14-11.14,1.55-.63,.25-1.35,.26-1.97,.51-6.86,2.75-13.95,2.28-21.11,1.82-4.54-.29-9.1-.81-13.62-.71-3.46,.07-6.89,1.41-10.32,2.22-.9,.21-1.16,1.07-1.56,1.78-2.27,4.09-3.36,8.6-4.77,13-.12,.36-.41,.83,.01,1.13,.46,.32,.91-.07,1.33-.25,3.95-1.69,7.93-3.22,12.24-3.78,2.27-.29,4.48-.08,6.68,.37,2.13,.43,3.1,1.94,3.71,3.9,2.08,6.59,3.13,13.35,3.82,20.2,.3,2.96,.31,5.99,1.5,8.81,.43,1.01,.76,2.08,2.31,1.56,.75-.25,1.48,.26,2.06,.71,3.06,2.36,6.38,2.73,10.01,1.57,1.71-.54,3.35-.27,4.7,1.12,1.02,1.04,1.04,1.98-.02,2.97-2.6,2.41-5.63,4.66-9.09,4.64-4.21,0-7.64,1.95-12.03,3.13,3.65,1.34,6.63,3.02,10.17,3.09,1.26,.02,2.76-.3,3.25,1.37,.48,1.64-.75,2.43-1.87,3.26-2.75,2.04-5.75,2.7-9.06,1.72-2.14-.63-4.28-.55-6.47-.25-2.69,.38-5.26-.4-7.83-1.03-.95-.23-1.2-.98-1.3-1.85-.23-1.89-.53-3.77-.74-5.66-.07-.66-.16-1.46,.13-2,1.84-3.45,1.1-6.84-.07-10.23-.44-1.29-.91-2.57-1.48-3.8-1.32-2.87-1.23-5.81-.58-8.79,.11-.52,.46-1.12,0-1.55-.56-.54-1.14,.04-1.68,.22-3.84,1.33-6.83,4.17-10.44,5.91-3.9,1.88-7.69,3.95-12.33,3.72-8.87-.44-14.51-7.21-12.62-15.87,1.23-5.66,1.55-11.43,2.51-17.12,1.42-8.46,5.63-15.44,11.68-21.27,2.45-2.36,5.61-3.99,8.47-5.91,1.49-1,2.22-1.84,1.26-3.94-2.43-5.32,1.42-12.13,7.15-13.04,4.69-.75,8.73,.78,12.14,3.98,1.44,1.34,1.77,2.86,1.26,4.97-.62,2.56-1.8,5.11-1.25,7.92,.25,1.26,.16,2.57-1.9,2.4,.87,1.19,1.82,1.62,2.85,1.17,8.17-3.58,17.06-3.88,25.61-5.74,2.2-.48,3.81-1.51,4.77-3.41,1.16-2.29,3.13-2.86,5.39-2.96,1.36-.06,2.72-.01,4.08,.04,.48,.02,.97,.23,1.1,.76,.17,.67-.33,1.02-.83,1.23-.62,.26-1.33,.33-1.93,.62-.59,.29-2.88-.4-1.02,1.6,.41,.44-.4,.9-.8,1.23-2.64,2.09-5,4.59-8.66,5.02-1.25,.15-2.27,1.09-3.39,2.14,5.3,1.1,10.4,1.67,15.57,1.15,.9-.09,1.64-.64,2.37-1.15,4-2.8,4.63-3.1,8.6,1.31v4.08h-.01Z" fill="#754c28"/>
      <path d="M194.45,40.75c4.48,2.6,5.95,6.67,4.79,12-.55,2.56-.48,5.27-.58,7.92-.12,3.06-.06,6.12-.4,9.17-.15,1.31-.57,2.41-1.88,2.9-4.02,1.49-8.03,2.99-12.08,4.39-1.74,.6-3.57,.83-5.42,.89-.83,.03-1.77,.07-1.55,1.32,1.31,7.51-.33,14.9-.93,22.33-.14,1.7,.39,2,1.85,1.93,2.32-.11,4.62-.34,6.86-.91,6.36-1.61,12.72-.19,19.08-.09,1.75,.03,2.6,1.15,3.01,2.8,.94,3.73,.74,7.57,1.16,11.35,.68,6.08,1.07,12.19,2.05,18.23,.13,.82,.23,1.45,1.3,1.38,1.04-.06,1.69,.67,1.97,1.52,1.24,3.88,4.4,4.43,7.77,4.48,1.69,.03,2.72,.64,3.6,2.12,.68,1.14,.16,1.34-.63,1.7-2.03,.92-4.23,1.09-6.38,1.13-3.47,.07-6.87,.16-10.26,1.22-3.03,.95-3.81,.23-4.46-2.86-.39-1.85-.34-3.46,.36-5.43,.86-2.44,.17-5.4-1.05-7.89-2.49-5.1-4.65-10.28-5.1-16.02-.09-1.13-.63-1.51-1.78-1.23-2.77,.68-5.55,1.26-8.2,2.42-5.41,2.38-11.24,3.15-17,4.17-1.82,.32-3.01,1.05-3.95,2.7-2.55,4.49-5.42,8.8-8.32,13.08-3.07,4.52-7.42,7.53-11.7,10.65-1.45,1.06-3.28,.61-4.96,.25-7.91-1.72-15.81-3.47-23.73-5.15-1.98-.42-4.01-.63-6.01-.96-1.05-.18-1.89,.04-2.37,1.08-.63,1.36-1.73,1.88-3.17,1.66-3.61-.54-6.46,1.2-9.17,3.18-.8,.59-1.42,1.01-2.34,.43-.95-.59-1.62-1.42-1.2-2.54,1.16-3.11,2.11-6.4,5.66-7.79,1.12-.44,1.88-1.31,2.46-2.35,.36-.65,.72-1.31,1.11-1.95,2.45-4.01,3.79-4.31,7.65-1.7,4.47,3.02,9.49,2.94,14.54,2.54,3.39-.27,6.76-.65,10.17-.68,1.59-.02,2.98,.28,4.06,1.48,.78,.86,1.45,.84,2.16-.07,.79-1.02,1.82-1.91,2.4-3.03,1.99-3.85,4.65-7.19,7.47-10.42,.83-.95,1.03-2,.98-3.21-.15-3.69,.1-7.35,1.25-10.89,.81-2.5,2.13-4.69,4.02-6.54,1.68-1.65,2.33-3.72,1.81-5.97-1.32-5.74-1.52-11.59-1.74-17.43-.07-1.77-.55-2.26-2.32-1.8-3.48,.91-7.19,.31-10.65,1.61-.96,.36-1.64,.62-2.07,1.62-1.15,2.71-1.95,5.53-2.56,8.38-.39,1.8,.64,3.57,1.01,5.35,.22,1.07,.58,2.11,.31,3.21-.15,.6-.42,1.29-1.13,1.25-.82-.05-.44-.82-.53-1.3-.05-.24-.12-.47-.26-1.04-.92,1.27-1.24,2.4-1.23,3.63,.02,1.77-.85,1.91-2.23,1.33-1.75-.74-2.31-2.24-2.45-3.93-.16-2.06,.1-4.09,.93-5.99,.71-1.62,.88-3.27,.5-4.98-.95-4.28,.99-8,2.31-11.83,.24-.71,.99-.86,1.63-1.09,6.06-2.22,12.1-4.48,18.16-6.69,1.72-.63,3.45-1.28,5.36-.76,.55,.15,1.09,.04,1.37-.57,.26-.57,.11-.99-.33-1.45-2.11-2.24-2.48-5.12-2.45-7.96,.04-2.8,2.72-5.06,6.64-5.99,2.08-.5,4.19-.47,6.26,.11,3.04,.85,3.4,1.59,4.04,4.72,.44,2.15,0,4.5,1.44,6.45,.47,.65,.47,1.39-.42,1.9-.85,.48-1.2,1.4-1.17,2.26,.07,2.28-1.11,3.19-3.41,3.25,2.42,.77,4.57,.72,6.79,0,2.29-.75,4.73-.41,7.1-.44,1.21-.01,1.93-.49,2.63-1.52,2.33-3.43,2.82-7.31,2.95-11.27,.05-1.49-.22-2.97-1.16-4.26-1.14-1.57-.64-3.57-1.29-5.29-.22-.59,.41-.81,.92-.47,.44,.29,.79,.71,1.25,1.13,.38-2.01-2.09-2.95-1.59-4.87h2.47Z" fill="#754c28"/>
    </g>
  </g>
  <g>
    <g>
      <g>
        <path d="M30.94,16.05c0,.28-.12,.56-.32,.76l-3.41,3.41-3.65-2.11v-2.07c0-.6,.48-1.08,1.08-1.08s1.08,.48,1.08,1.08h0v2.61l3.38-3.38c.42-.42,1.11-.42,1.53,0,.2,.2,.32,.48,.32,.77" fill="#f6f2f2"/>
        <path d="M29.86,25.92c-.14,0-.28-.03-.41-.08s-.25-.13-.35-.23l-3.38-3.37v2.61c0,.6-.48,1.08-1.08,1.08s-1.08-.48-1.08-1.08v-2.06l3.66-2.11,3.41,3.41c.68,.68,.2,1.84-.76,1.84" fill="#f6f2f2"/>
        <path d="M27.05,20.37s-.05-.1-.1-.13h-.01l-.92-.54-2.46-1.42-2.08-1.2c-.12-.07-.27-.03-.33,.09-.02,.04-.03,.08-.03,.12v6.31c0,.13,.11,.24,.24,.24,.04,0,.09-.01,.12-.03l2.08-1.2,3.38-1.95s.02-.02,.03-.02c.03-.02,.05-.06,.07-.09v-.03s.02-.09,.01-.14h0Zm-.82,.11s-.04,.09-.09,.11l-2.62,1.51-1.62,.93c-.09,.05-.21,.02-.26-.07-.02-.03-.03-.06-.03-.1v-4.9c0-.1,.08-.19,.19-.19,.03,0,.07,0,.09,.03l1.62,.93,2.62,1.51c.08,.04,.11,.13,.09,.22h0v.02Z" fill="#f6f2f2"/>
        <path d="M25.49,20.48s-.03,.07-.07,.08l-1.97,1.14-1.21,.7c-.07,.04-.15,.02-.19-.05-.01-.02-.02-.05-.02-.07v-3.68c0-.08,.06-.14,.14-.14,.02,0,.05,0,.07,.02l1.22,.7,1.97,1.14s.06,.05,.07,.08v.08" fill="#f6f2f2"/>
      </g>
      <g>
        <path d="M48.76,20.31s-.05-.09-.1-.11l-3.01-1.51-1.86-.93c-.14-.07-.32,.02-.32,.17l.06,5c0,.15,.18,.24,.33,.16l1.83-.98,2.96-1.58s.08-.07,.1-.12c0-.04,0-.07,0-.11h0Zm-.73,.11s-.04,.07-.08,.09l-2.31,1.23-1.42,.76c-.11,.06-.25-.01-.25-.13l-.05-3.88c0-.09,.09-.16,.18-.15,.02,0,.05,0,.07,.02l1.44,.72,2.34,1.17s.06,.05,.08,.09v.08h0Z" fill="#f6f2f2"/>
        <path d="M47.38,20.41s-.03,.05-.06,.07l-1.73,.92-1.07,.57c-.06,.04-.14,.02-.17-.04,0-.02,0-.03-.02-.05l-.04-2.92c0-.07,.07-.12,.13-.12,.02,0,.04,0,.05,.02l1.08,.54,1.76,.88s.05,.04,.06,.07v.07" fill="#f6f2f2"/>
        <path d="M33.13,17.83l2.61-.03c1.26-.02,2.2,.7,2.21,1.73s-.91,1.77-2.17,1.79l-1.37,.02,.02,1.69-1.25,.02-.06-5.21h.01Zm2.51,2.45c.62,0,1.04-.3,1.03-.75s-.43-.73-1.05-.72l-1.24,.02,.02,1.47,1.23-.02h.01Z" fill="#f6f2f2"/>
        <path d="M42.86,22.06v1.01l-4.13,.05-.06-5.2,1.25-.02,.05,4.2,2.89-.04Z" fill="#f6f2f2"/>
        <path d="M50.11,21.1l-2.32-3.3,1.45-.02,1.47,2.26,1.48-2.3,1.4-.02-2.23,3.36,.02,1.88-1.26,.02-.02-1.88h0Z" fill="#f6f2f2"/>
        <path d="M54.41,18.07h.66l.04,2.87,2.91-2.92h.87l-2.42,2.4,2.64,2.79h-.85l-2.24-2.39-.9,.87,.02,1.56h-.66l-.06-5.2v.02Z" fill="#f6f2f2"/>
        <path d="M59.43,20.61c-.02-1.46,1.34-2.71,2.94-2.73s2.98,1.19,3,2.65-1.32,2.71-2.94,2.73-2.99-1.2-3.01-2.66h.01Zm5.28-.06c-.01-1.16-1.08-2.13-2.33-2.12s-2.3,1.01-2.28,2.17,1.08,2.14,2.33,2.12,2.29-1.01,2.27-2.18h.01Z" fill="#f6f2f2"/>
        <path d="M66.22,22.48l.41-.47c.5,.43,1.1,.74,1.91,.73,.9-.01,1.35-.46,1.34-.93,0-.55-.56-.77-1.58-.97-1.17-.23-1.91-.55-1.92-1.45,0-.83,.81-1.5,1.93-1.51,.75-.02,1.47,.24,2.05,.72l-.4,.47c-.49-.41-1.07-.66-1.67-.65-.72,0-1.24,.44-1.23,.92,0,.54,.58,.72,1.57,.92,1.11,.22,1.91,.57,1.92,1.48,0,.83-.68,1.51-2.03,1.53-.95,0-1.71-.29-2.3-.8h0Z" fill="#f6f2f2"/>
        <path d="M71.76,18.07h.66l2.2,3.6,2.11-3.66h.66l.07,5.2h-.66l-.05-3.92-2.11,3.66-2.2-3.6,.05,3.93h-.66l-.07-5.2h0Z" fill="#f6f2f2"/>
        <path d="M78.66,20.61c-.02-1.46,1.34-2.71,2.94-2.73s2.98,1.19,3,2.65-1.32,2.71-2.94,2.73-2.99-1.2-3.01-2.66h.01Zm5.28-.06c-.01-1.16-1.07-2.13-2.33-2.12s-2.29,1.01-2.28,2.17,1.08,2.14,2.33,2.12,2.29-1.01,2.27-2.18h.01Z" fill="#f6f2f2"/>
        <path d="M85.46,22.48l.41-.47c.5,.43,1.1,.74,1.91,.73,.9-.01,1.35-.46,1.34-.93,0-.55-.56-.77-1.58-.97-1.17-.23-1.91-.55-1.92-1.45-.01-.83,.81-1.5,1.93-1.51,.75-.02,1.47,.24,2.05,.72l-.4,.47c-.49-.41-1.07-.66-1.67-.65-.72,0-1.24,.44-1.23,.92,0,.54,.58,.72,1.57,.92,1.11,.22,1.91,.57,1.92,1.48,.01,.83-.67,1.51-2.03,1.53-.95,0-1.71-.29-2.3-.8h0Z" fill="#f6f2f2"/>
      </g>
    </g>
    <g>
      <rect x="22.89" y="82.28" width="91.04" height="112.45" fill="#231f20"/>
      <rect x="24.68" y="82.28" width="88" height="109.46" fill="#fff"/>
      <rect x="26.99" y="85.15" width="83.38" height="103.72" fill="#75c043"/>
    </g>
    <g>
      <polygon points="316.28 20.65 325.43 29.79 325.43 29.27 316.28 20.12 316.28 20.65" fill="#fff"/>
      <polygon points="316.28 25.38 325.43 34.53 325.43 34.01 316.28 24.86 316.28 25.38" fill="#fff"/>
      <polygon points="316.28 30.11 325.43 39.26 325.43 38.74 316.28 29.59 316.28 30.11" fill="#fff"/>
      <polygon points="316.28 34.85 325.43 44 325.43 43.47 316.28 34.33 316.28 34.85" fill="#fff"/>
      <polygon points="316.28 39.58 325.43 48.73 325.43 48.21 316.28 39.06 316.28 39.58" fill="#fff"/>
      <polygon points="316.28 44.32 325.43 53.47 325.43 52.94 316.28 43.79 316.28 44.32" fill="#fff"/>
      <polygon points="316.28 49.05 325.43 58.2 325.43 57.68 316.28 48.53 316.28 49.05" fill="#fff"/>
      <polygon points="316.28 53.79 325.43 62.93 325.43 62.41 316.28 53.26 316.28 53.79" fill="#fff"/>
      <polygon points="316.28 58.52 325.43 67.67 325.43 67.15 316.28 58 316.28 58.52" fill="#fff"/>
      <polygon points="316.28 63.25 325.43 72.4 325.43 71.88 316.28 62.73 316.28 63.25" fill="#fff"/>
      <polygon points="316.28 67.99 325.43 77.14 325.43 76.62 316.28 67.47 316.28 67.99" fill="#fff"/>
      <polygon points="316.28 72.72 325.43 81.87 325.43 81.35 316.28 72.2 316.28 72.72" fill="#fff"/>
      <polygon points="316.28 77.46 325.43 86.61 325.43 86.08 316.28 76.94 316.28 77.46" fill="#fff"/>
      <polygon points="316.28 82.19 325.43 91.34 325.43 90.82 316.28 81.67 316.28 82.19" fill="#fff"/>
    </g>
    <g>
      <polygon points="6.16 109.41 15.31 118.56 15.31 118.04 6.16 108.89 6.16 109.41" fill="#fff"/>
      <polygon points="6.16 114.15 15.31 123.3 15.31 122.77 6.16 113.63 6.16 114.15" fill="#fff"/>
      <polygon points="6.16 118.88 15.31 128.03 15.31 127.51 6.16 118.36 6.16 118.88" fill="#fff"/>
      <polygon points="6.16 123.62 15.31 132.77 15.31 132.24 6.16 123.09 6.16 123.62" fill="#fff"/>
      <polygon points="6.16 128.35 15.31 137.5 15.31 136.98 6.16 127.83 6.16 128.35" fill="#fff"/>
      <polygon points="6.16 133.09 15.31 142.23 15.31 141.71 6.16 132.56 6.16 133.09" fill="#fff"/>
      <polygon points="6.16 137.82 15.31 146.97 15.31 146.45 6.16 137.3 6.16 137.82" fill="#fff"/>
      <polygon points="6.16 142.55 15.31 151.7 15.31 151.18 6.16 142.03 6.16 142.55" fill="#fff"/>
      <polygon points="6.16 147.29 15.31 156.44 15.31 155.91 6.16 146.77 6.16 147.29" fill="#fff"/>
      <polygon points="6.16 152.02 15.31 161.17 15.31 160.65 6.16 151.5 6.16 152.02" fill="#fff"/>
      <polygon points="6.16 156.76 15.31 165.91 15.31 165.38 6.16 156.23 6.16 156.76" fill="#fff"/>
      <polygon points="6.16 161.49 15.31 170.64 15.31 170.12 6.16 160.97 6.16 161.49" fill="#fff"/>
      <polygon points="6.16 166.23 15.31 175.37 15.31 174.85 6.16 165.7 6.16 166.23" fill="#fff"/>
      <polygon points="6.16 170.96 15.31 180.11 15.31 179.59 6.16 170.44 6.16 170.96" fill="#fff"/>
    </g>
    <g>
      <polygon points="293.6 119.83 289.63 122.35 293.6 124.87 293.6 119.83" fill="#fff"/>
      <polygon points="314.12 119.83 310.15 122.35 314.12 124.87 314.12 119.83" fill="#fff"/>
      <polygon points="245.32 119.83 241.35 122.35 245.32 124.87 245.32 119.83" fill="#fff"/>
      <polygon points="265.84 119.83 261.87 122.35 265.84 124.87 265.84 119.83" fill="#fff"/>
      <polygon points="274.54 119.83 270.57 122.35 274.54 124.87 274.54 119.83" fill="#fff"/>
    </g>
    <g>
      <polygon points="293.6 182.6 289.63 185.12 293.6 187.64 293.6 182.6" fill="#fff"/>
      <polygon points="314.12 182.6 310.15 185.12 314.12 187.64 314.12 182.6" fill="#fff"/>
      <polygon points="245.32 182.6 241.35 185.12 245.32 187.64 245.32 182.6" fill="#fff"/>
      <polygon points="265.84 182.6 261.87 185.12 265.84 187.64 265.84 182.6" fill="#fff"/>
      <polygon points="274.54 182.6 270.57 185.12 274.54 187.64 274.54 182.6" fill="#fff"/>
    </g>
    <g>
      <polygon points="13.37 274.97 10.73 270.82 8.09 274.97 13.37 274.97" fill="#fff"/>
      <polygon points="13.37 296.44 10.73 292.29 8.09 296.44 13.37 296.44" fill="#fff"/>
      <polygon points="13.37 224.46 10.73 220.31 8.09 224.46 13.37 224.46" fill="#fff"/>
      <polygon points="13.37 245.93 10.73 241.78 8.09 245.93 13.37 245.93" fill="#fff"/>
      <polygon points="13.37 255.03 10.73 250.87 8.09 255.03 13.37 255.03" fill="#fff"/>
    </g>
    <g>
      <rect x="180.9" y="134.43" width="133.22" height="12.14" fill="none" stroke="#fff" stroke-miterlimit="10" stroke-width=".96"/>
      <rect x="180.9" y="134.43" width="133.22" height="12.14" fill="#231f20"/>
    </g>
    <g>
      <rect x="180.9" y="160.9" width="133.22" height="12.14" fill="none" stroke="#fff" stroke-miterlimit="10" stroke-width=".96"/>
      <rect x="180.9" y="160.9" width="133.22" height="12.14" fill="#231f20"/>
    </g>
    <g>
      <path d="M311.99,204.22c-1.91-1.88-5.01-1.88-6.92,0s-1.91,4.93,0,6.81l3.46,3.4,3.46-3.4c1.91-1.88,1.91-4.93,0-6.81h0Zm-3.46,5.01c-.41,0-.79-.16-1.08-.45-.6-.6-.6-1.57,0-2.16,.29-.29,.67-.45,1.08-.45s.79,.16,1.08,.45c.6,.6,.6,1.57,0,2.16-.29,.29-.67,.45-1.08,.45Z" fill="#231f20"/>
      <path d="M311.99,204.22c-1.91-1.88-5.01-1.88-6.92,0s-1.91,4.93,0,6.81l3.46,3.4,3.46-3.4c1.91-1.88,1.91-4.93,0-6.81h0Zm-3.46,5.01c-.41,0-.79-.16-1.08-.45-.6-.6-.6-1.57,0-2.16,.29-.29,.67-.45,1.08-.45s.79,.16,1.08,.45c.6,.6,.6,1.57,0,2.16-.29,.29-.67,.45-1.08,.45Z" fill="none" stroke="#fff" stroke-miterlimit="10" stroke-width=".84"/>
      <path d="M311.99,204.22c-1.91-1.88-5.01-1.88-6.92,0s-1.91,4.93,0,6.81l3.46,3.4,3.46-3.4c1.91-1.88,1.91-4.93,0-6.81h0Zm-3.46,5.01c-.41,0-.79-.16-1.08-.45-.6-.6-.6-1.57,0-2.16,.29-.29,.67-.45,1.08-.45s.79,.16,1.08,.45c.6,.6,.6,1.57,0,2.16-.29,.29-.67,.45-1.08,.45Z" fill="#231f20"/>
    </g>
    <g>
      <path d="M311.69,240.22c0-.59-.01-3.42,.26-4.49l-1.05-.87v5.15c-.06,0-.12-.02-.19-.04v-5.11l-1.21,.81c.16,.7,.23,3.14,.25,4.18h-.21c0-.32,0-.62,.02-.93-.01-.43-.03-.92-.06-1.38l-.2-.06v-.48h.17c-.04-.56-.08-1.05-.14-1.29l-.03-.13,.28-.19-.22-.07,.08-.42,.3,.09-.04,.32,.15-.1c.13-1.07,.24-1.79,.24-1.79l-1.44-1.15v7.53h-.14v-7.63l-1.61,1.24s.06,.37,.13,.97l.37,.27v-.34l.33-.13v.4l-.25,.13,.36,.27-.03,.13c-.18,.66-.32,2.07-.41,3.27,.03,.48,.04,.97,.05,1.46-.09,0-.18,0-.27,.02,.06-1.09,.25-3.79,.52-4.8l-1.27-.94v5.85c-.06,0-.13,.02-.19,.03v-5.88l-1.25,.93c.32,1.1,.43,4.51,.45,5.17-1.54,.52-1.82,1.34-1.82,1.34h9.79s-.16-.82-1.74-1.34h.02Zm-2.15-6.78l.36,.17-.05,.45-.35-.13,.04-.49h0Zm-.04,.69l.33,.14-.07,.5-.31-.12,.04-.52h.01Zm-2.08-.07l-.1-.42,.34-.18,.09,.47-.33,.13h0Zm-.21,1.01l.32,.17-.07,.32-.27-.08,.02-.4h0Zm-.05,.57l.26,.07-.03,.35-.23-.09v-.32h0Zm-.03,.5l.23,.09-.03,.39-.23-.11,.03-.38h0Zm-.05,.58l.21,.04-.02,.35-.18-.06v-.33h-.01Zm-.04,.53h.22v.39l-.22-.02v-.37Zm-.11,1.97l-.24-.06v-.4l.24,.1v.36h0Zm0-.56l-.24-.06v-.4l.24,.1v.36h0Zm0-.56l-.24-.06v-.4l.24,.1v.36h0Zm0-.56l-.24-.06v-.4l.24,.1v.36h0Zm0-.56l-.24-.06v-.4l.24,.1v.36h0Zm0-.56l-.24-.06v-.4l.24,.1v.36h0Zm0-.56l-.24-.06v-.4l.24,.1v.36h0Zm0-.56l-.24-.06v-.4l.24,.1v.36h0Zm.23,3.9h-.16v-.35h.16v.35Zm0-.56h-.16v-.35h.16v.35Zm0-.56h-.16v-.35h.16v.35Zm.5-1.72l.2-.12,.04,.5-.24,.03v-.41h0Zm.3,2.49h-.17v-.46h.17v.46Zm0-.69l-.2,.03v-.51l.2-.04v.52h0Zm-.2-.73v-.42l.15-.05,.05,.45h-.2v.02Zm.58,1.37l-.2,.1v-.52l.2-.12v.54Zm0-.74l-.2,.11v-.52l.2-.13v.54h0Zm0-.74l-.2,.11v-.52l.2-.13v.54h0Zm0-.74l-.25,.11v-.52l.25-.13v.54h0Zm0-.74l-.27,.11v-.52l.27-.13v.54h0Zm0-.74l-.27,.1v-.52l.27-.12v.54Zm0-.74l-.3,.14v-.52l.3-.16v.54h0Zm0-.74l-.34,.13v-.52l.34-.15v.54Zm.57-.54l.36,.2v.49l-.36-.19v-.51h0Zm.17,5.81l-.17-.06v-.49l.17,.06v.49Zm0-.72l-.17-.06v-.63l.17,.11v.58Zm.05-.75l-.23-.16v-.52l.23,.17v.51h0Zm0-.73l-.23-.17v-.51l.23,.19v.49h0Zm.03-.77l-.26-.13v-.51l.26,.15v.49Zm.03-.7l-.29-.16v-.51l.29,.18v.49h0Zm0-.76l-.29-.13v-.51l.29,.15v.49Zm.24,4.43l-.17-.06v-.49l.17,.06v.49Zm.03-.69l-.18-.03v-.49l.18,.04v.48h0Zm1.99-2.49l.27,.13v.3l-.27-.15v-.27h0Zm-.05,1.86l.18,.06v.3l-.18-.09v-.28h0Zm0,.49l.18,.06v.3l-.18-.09v-.28h0Zm0,.49l.18,.06v.3l-.18-.09v-.28h0Zm-.15,1l-.21-.08v-.34l.21,.1v.32h0Zm0-.45l-.21-.08v-.34l.21,.1v.32h0Zm0-.45l-.21-.08v-.34l.21,.1v.32h0Zm0-.45l-.21-.08v-.34l.21,.1v.32h0Zm0-.45l-.21-.08v-.34l.21,.1v.32h0Zm0-.45l-.21-.08v-.34l.21,.1v.32h0Zm0-.45l-.21-.08v-.34l.21,.1v.32h0Zm0-.45l-.21-.08v-.34l.21,.1v.32h0Zm0-.45l-.21-.08v-.34l.21,.1v.32h0Zm.36,3.44l-.2-.06v-.27l.2,.03v.3Zm0-1.88l-.2-.12v-.27l.2,.09v.3Zm.06-.45l-.27-.12v-.31l.27,.13v.3h0Zm0-.45l-.27-.15v-.27l.27,.13v.3h0Z" fill="#231f20"/>
      <path d="M311.69,240.22c0-.59-.01-3.42,.26-4.49l-1.05-.87v5.15c-.06,0-.12-.02-.19-.04v-5.11l-1.21,.81c.16,.7,.23,3.14,.25,4.18h-.21c0-.32,0-.62,.02-.93-.01-.43-.03-.92-.06-1.38l-.2-.06v-.48h.17c-.04-.56-.08-1.05-.14-1.29l-.03-.13,.28-.19-.22-.07,.08-.42,.3,.09-.04,.32,.15-.1c.13-1.07,.24-1.79,.24-1.79l-1.44-1.15v7.53h-.14v-7.63l-1.61,1.24s.06,.37,.13,.97l.37,.27v-.34l.33-.13v.4l-.25,.13,.36,.27-.03,.13c-.18,.66-.32,2.07-.41,3.27,.03,.48,.04,.97,.05,1.46-.09,0-.18,0-.27,.02,.06-1.09,.25-3.79,.52-4.8l-1.27-.94v5.85c-.06,0-.13,.02-.19,.03v-5.88l-1.25,.93c.32,1.1,.43,4.51,.45,5.17-1.54,.52-1.82,1.34-1.82,1.34h9.79s-.16-.82-1.74-1.34h.02Zm-2.15-6.78l.36,.17-.05,.45-.35-.13,.04-.49h0Zm-.04,.69l.33,.14-.07,.5-.31-.12,.04-.52h.01Zm-2.08-.07l-.1-.42,.34-.18,.09,.47-.33,.13h0Zm-.21,1.01l.32,.17-.07,.32-.27-.08,.02-.4h0Zm-.05,.57l.26,.07-.03,.35-.23-.09v-.32h0Zm-.03,.5l.23,.09-.03,.39-.23-.11,.03-.38h0Zm-.05,.58l.21,.04-.02,.35-.18-.06v-.33h-.01Zm-.04,.53h.22v.39l-.22-.02v-.37Zm-.11,1.97l-.24-.06v-.4l.24,.1v.36h0Zm0-.56l-.24-.06v-.4l.24,.1v.36h0Zm0-.56l-.24-.06v-.4l.24,.1v.36h0Zm0-.56l-.24-.06v-.4l.24,.1v.36h0Zm0-.56l-.24-.06v-.4l.24,.1v.36h0Zm0-.56l-.24-.06v-.4l.24,.1v.36h0Zm0-.56l-.24-.06v-.4l.24,.1v.36h0Zm0-.56l-.24-.06v-.4l.24,.1v.36h0Zm.23,3.9h-.16v-.35h.16v.35Zm0-.56h-.16v-.35h.16v.35Zm0-.56h-.16v-.35h.16v.35Zm.5-1.72l.2-.12,.04,.5-.24,.03v-.41h0Zm.3,2.49h-.17v-.46h.17v.46Zm0-.69l-.2,.03v-.51l.2-.04v.52h0Zm-.2-.73v-.42l.15-.05,.05,.45h-.2v.02Zm.58,1.37l-.2,.1v-.52l.2-.12v.54Zm0-.74l-.2,.11v-.52l.2-.13v.54h0Zm0-.74l-.2,.11v-.52l.2-.13v.54h0Zm0-.74l-.25,.11v-.52l.25-.13v.54h0Zm0-.74l-.27,.11v-.52l.27-.13v.54h0Zm0-.74l-.27,.1v-.52l.27-.12v.54Zm0-.74l-.3,.14v-.52l.3-.16v.54h0Zm0-.74l-.34,.13v-.52l.34-.15v.54Zm.57-.54l.36,.2v.49l-.36-.19v-.51h0Zm.17,5.81l-.17-.06v-.49l.17,.06v.49Zm0-.72l-.17-.06v-.63l.17,.11v.58Zm.05-.75l-.23-.16v-.52l.23,.17v.51h0Zm0-.73l-.23-.17v-.51l.23,.19v.49h0Zm.03-.77l-.26-.13v-.51l.26,.15v.49Zm.03-.7l-.29-.16v-.51l.29,.18v.49h0Zm0-.76l-.29-.13v-.51l.29,.15v.49Zm.24,4.43l-.17-.06v-.49l.17,.06v.49Zm.03-.69l-.18-.03v-.49l.18,.04v.48h0Zm1.99-2.49l.27,.13v.3l-.27-.15v-.27h0Zm-.05,1.86l.18,.06v.3l-.18-.09v-.28h0Zm0,.49l.18,.06v.3l-.18-.09v-.28h0Zm0,.49l.18,.06v.3l-.18-.09v-.28h0Zm-.15,1l-.21-.08v-.34l.21,.1v.32h0Zm0-.45l-.21-.08v-.34l.21,.1v.32h0Zm0-.45l-.21-.08v-.34l.21,.1v.32h0Zm0-.45l-.21-.08v-.34l.21,.1v.32h0Zm0-.45l-.21-.08v-.34l.21,.1v.32h0Zm0-.45l-.21-.08v-.34l.21,.1v.32h0Zm0-.45l-.21-.08v-.34l.21,.1v.32h0Zm0-.45l-.21-.08v-.34l.21,.1v.32h0Zm0-.45l-.21-.08v-.34l.21,.1v.32h0Zm.36,3.44l-.2-.06v-.27l.2,.03v.3Zm0-1.88l-.2-.12v-.27l.2,.09v.3Zm.06-.45l-.27-.12v-.31l.27,.13v.3h0Zm0-.45l-.27-.15v-.27l.27,.13v.3h0Z" fill="none" stroke="#fff" stroke-linecap="round" stroke-linejoin="round" stroke-width=".65"/>
      <path d="M311.69,240.22c0-.59-.01-3.42,.26-4.49l-1.05-.87v5.15c-.06,0-.12-.02-.19-.04v-5.11l-1.21,.81c.16,.7,.23,3.14,.25,4.18h-.21c0-.32,0-.62,.02-.93-.01-.43-.03-.92-.06-1.38l-.2-.06v-.48h.17c-.04-.56-.08-1.05-.14-1.29l-.03-.13,.28-.19-.22-.07,.08-.42,.3,.09-.04,.32,.15-.1c.13-1.07,.24-1.79,.24-1.79l-1.44-1.15v7.53h-.14v-7.63l-1.61,1.24s.06,.37,.13,.97l.37,.27v-.34l.33-.13v.4l-.25,.13,.36,.27-.03,.13c-.18,.66-.32,2.07-.41,3.27,.03,.48,.04,.97,.05,1.46-.09,0-.18,0-.27,.02,.06-1.09,.25-3.79,.52-4.8l-1.27-.94v5.85c-.06,0-.13,.02-.19,.03v-5.88l-1.25,.93c.32,1.1,.43,4.51,.45,5.17-1.54,.52-1.82,1.34-1.82,1.34h9.79s-.16-.82-1.74-1.34h.02Zm-2.15-6.78l.36,.17-.05,.45-.35-.13,.04-.49h0Zm-.04,.69l.33,.14-.07,.5-.31-.12,.04-.52h.01Zm-2.08-.07l-.1-.42,.34-.18,.09,.47-.33,.13h0Zm-.21,1.01l.32,.17-.07,.32-.27-.08,.02-.4h0Zm-.05,.57l.26,.07-.03,.35-.23-.09v-.32h0Zm-.03,.5l.23,.09-.03,.39-.23-.11,.03-.38h0Zm-.05,.58l.21,.04-.02,.35-.18-.06v-.33h-.01Zm-.04,.53h.22v.39l-.22-.02v-.37Zm-.11,1.97l-.24-.06v-.4l.24,.1v.36h0Zm0-.56l-.24-.06v-.4l.24,.1v.36h0Zm0-.56l-.24-.06v-.4l.24,.1v.36h0Zm0-.56l-.24-.06v-.4l.24,.1v.36h0Zm0-.56l-.24-.06v-.4l.24,.1v.36h0Zm0-.56l-.24-.06v-.4l.24,.1v.36h0Zm0-.56l-.24-.06v-.4l.24,.1v.36h0Zm0-.56l-.24-.06v-.4l.24,.1v.36h0Zm.23,3.9h-.16v-.35h.16v.35Zm0-.56h-.16v-.35h.16v.35Zm0-.56h-.16v-.35h.16v.35Zm.5-1.72l.2-.12,.04,.5-.24,.03v-.41h0Zm.3,2.49h-.17v-.46h.17v.46Zm0-.69l-.2,.03v-.51l.2-.04v.52h0Zm-.2-.73v-.42l.15-.05,.05,.45h-.2v.02Zm.58,1.37l-.2,.1v-.52l.2-.12v.54Zm0-.74l-.2,.11v-.52l.2-.13v.54h0Zm0-.74l-.2,.11v-.52l.2-.13v.54h0Zm0-.74l-.25,.11v-.52l.25-.13v.54h0Zm0-.74l-.27,.11v-.52l.27-.13v.54h0Zm0-.74l-.27,.1v-.52l.27-.12v.54Zm0-.74l-.3,.14v-.52l.3-.16v.54h0Zm0-.74l-.34,.13v-.52l.34-.15v.54Zm.57-.54l.36,.2v.49l-.36-.19v-.51h0Zm.17,5.81l-.17-.06v-.49l.17,.06v.49Zm0-.72l-.17-.06v-.63l.17,.11v.58Zm.05-.75l-.23-.16v-.52l.23,.17v.51h0Zm0-.73l-.23-.17v-.51l.23,.19v.49h0Zm.03-.77l-.26-.13v-.51l.26,.15v.49Zm.03-.7l-.29-.16v-.51l.29,.18v.49h0Zm0-.76l-.29-.13v-.51l.29,.15v.49Zm.24,4.43l-.17-.06v-.49l.17,.06v.49Zm.03-.69l-.18-.03v-.49l.18,.04v.48h0Zm1.99-2.49l.27,.13v.3l-.27-.15v-.27h0Zm-.05,1.86l.18,.06v.3l-.18-.09v-.28h0Zm0,.49l.18,.06v.3l-.18-.09v-.28h0Zm0,.49l.18,.06v.3l-.18-.09v-.28h0Zm-.15,1l-.21-.08v-.34l.21,.1v.32h0Zm0-.45l-.21-.08v-.34l.21,.1v.32h0Zm0-.45l-.21-.08v-.34l.21,.1v.32h0Zm0-.45l-.21-.08v-.34l.21,.1v.32h0Zm0-.45l-.21-.08v-.34l.21,.1v.32h0Zm0-.45l-.21-.08v-.34l.21,.1v.32h0Zm0-.45l-.21-.08v-.34l.21,.1v.32h0Zm0-.45l-.21-.08v-.34l.21,.1v.32h0Zm0-.45l-.21-.08v-.34l.21,.1v.32h0Zm.36,3.44l-.2-.06v-.27l.2,.03v.3Zm0-1.88l-.2-.12v-.27l.2,.09v.3Zm.06-.45l-.27-.12v-.31l.27,.13v.3h0Zm0-.45l-.27-.15v-.27l.27,.13v.3h0Z" fill="#231f20"/>
    </g>
    <g>
      <g>
        <path d="M303.15,260.21c-.34,0-.61,.27-.61,.61v8.56c0,.34,.27,.61,.61,.61s.61-.27,.61-.61v-8.56c0-.34-.27-.61-.61-.61Z" fill="#231f20"/>
        <path d="M311.71,260.21h-6.12c-.34,0-.61,.27-.61,.61v4.89c0,.34,.27,.61,.61,.61h6.12c.34,0,.61-.27,.61-.61v-4.89c0-.34-.27-.61-.61-.61Zm-.61,4.59c0,.17-.14,.31-.31,.31h-4.28c-.17,0-.31-.14-.31-.31v-3.06c0-.17,.14-.31,.31-.31h4.28c.17,0,.31,.14,.31,.31v3.06h0Z" fill="#231f20"/>
      </g>
      <g>
        <path d="M303.15,260.21c-.34,0-.61,.27-.61,.61v8.56c0,.34,.27,.61,.61,.61s.61-.27,.61-.61v-8.56c0-.34-.27-.61-.61-.61Z" fill="none" stroke="#fff" stroke-miterlimit="10" stroke-width=".67"/>
        <path d="M311.71,260.21h-6.12c-.34,0-.61,.27-.61,.61v4.89c0,.34,.27,.61,.61,.61h6.12c.34,0,.61-.27,.61-.61v-4.89c0-.34-.27-.61-.61-.61Zm-.61,4.59c0,.17-.14,.31-.31,.31h-4.28c-.17,0-.31-.14-.31-.31v-3.06c0-.17,.14-.31,.31-.31h4.28c.17,0,.31,.14,.31,.31v3.06h0Z" fill="none" stroke="#fff" stroke-miterlimit="10" stroke-width=".67"/>
      </g>
      <g>
        <path d="M303.15,260.21c-.34,0-.61,.27-.61,.61v8.56c0,.34,.27,.61,.61,.61s.61-.27,.61-.61v-8.56c0-.34-.27-.61-.61-.61Z" fill="#231f20"/>
        <path d="M311.71,260.21h-6.12c-.34,0-.61,.27-.61,.61v4.89c0,.34,.27,.61,.61,.61h6.12c.34,0,.61-.27,.61-.61v-4.89c0-.34-.27-.61-.61-.61Zm-.61,4.59c0,.17-.14,.31-.31,.31h-4.28c-.17,0-.31-.14-.31-.31v-3.06c0-.17,.14-.31,.31-.31h4.28c.17,0,.31,.14,.31,.31v3.06h0Z" fill="#231f20"/>
      </g>
    </g>
    <g>
      <rect x="36.25" y="258.59" width="64.08" height="13.04" fill="none" stroke="#fff" stroke-miterlimit="10"/>
      <rect x="36.25" y="258.59" width="64.08" height="13.04" fill="#231f20"/>
    </g>
    <circle cx="127" cy="291.52" r="3.3" fill="#231f20"/>
    <circle cx="241.12" cy="291.52" r="3.3" fill="#231f20"/>
  </g>
</svg>