<svg xmlns="http://www.w3.org/2000/svg" width="335" height="335" data-name="Layer 1">
  <path fill="#c6c5c9" d="M335 .5v246.9l-47.5-22.1-7-3.2-8.2-3.8-152.7-71-3.7-1.7-2.9-1.4-3.6-1.7L0 91.6V.5h335Z"/>
  <path fill="#050505" d="M257.2 119.9c-1.1-3.4-2-6.9-3.9-9.8-2.2-3.4-5.4-6.2-8.2-9.2-2.4-2.6-4.8-2.9-6.9-.2-2.7 3.3-5.9 4.1-9.8 3.9-4.8-.3-9.8-.7-14.5-.2-4.1.5-8.2 1.8-12 3.5-2.9 1.3-4.9 1-7-1.2l-13.8-14.6c-.9-1-1.5-2.5-2-3.8-1.8-5.4-4.2-10.4-9.9-12.7-3-1.2-3.2-3.9-3.6-6.4-.3-1.7 0-3.4 0-4.8l4.9-3.2-.6 3.7c2.5-2.1 4.9-3.2 4.1-6.8-.3-1.4 1.3-3.2 2.3-5.2l-2.7-2.9c-.6-.7-1.6-1.9-1.4-2.4 1.9-3.9-.3-6.3-2.9-9.3 1.6 0 3.2-.3 4.7 0 4.6 1 9.1 2.8 13.7 3.2 7.3.8 14.6.7 21.9 1 3.1.2 6.1.8 9.2.9 1.5 0 3.3-.3 4.5-1.1 2.3-1.6 3.3-.7 3.9 1.8l3.9-5.1c-3.2-3.8-5-4.4-8.7-2-2.6 1.7-5 1.4-7.8.9-10.6-1.8-21.3-3.2-31.9-5.4-5-1-9.8-3.4-14.6-5.2 2.8-5.6 2.4-7.1-1.5-11.8-2.6-3.1-5-6.4-7.3-9.7-2.1-3-6.7-4.9-10.2-3.9-4.8 1.4-8.7 6.4-8.6 11v.4l-.5 4.4v1.2c0 1 .2 2 .7 3l.2.5c.1.2 0 .5-.2.8-.3.5-.8 1.1-1.2 1.4-.4.4-.9.7-1.5 1-1 .6-2 1.2-2.6 2.1-3.3 5.5-9.1 7.8-14.1 11.2-4 2.7-6.6-.6-9.4-2.1-2.1-1.1-3.7-2.9-2.4-6.1.5-1.4-.3-4.3-1.5-5.1l-.3-.2c-.4-.2-.8-.2-1.3-.2-1.2 0-2.8.5-3.7 1.1l-.5.5-.4 1.1c-.2.9-.3 2-.1 2.8 1.2 6.8 6.1 11.2 11 15.5 4.6 4 4.7 3.8 10.2.7l18.9-10.8v8.8c.1 2.2.4 4.4.9 6.5l4.8 22.3c-3.3-.5-5.5-1.2-7.6-1.2-7.9 0-15.9 0-23.8.5-1.4 0-3 2.4-3.9 4-4.7 8.6-9.1 17.3-13.9 25.9-4.6 8.1-8.8 8.7-16.3 3.1-1.3-.9-2.8-1.5-4.2-2.3 0 1.9-.5 4 .2 5.5 1.2 2.3 3.2 4.2 4.9 6.2 1.8 2.2 3.6 4.5 5.6 6.5 1.2 1.2 3.4 3.1 4.1 2.7 2-1.1 3.9-2.9 5.2-4.9 1.5-2.2 1.9-5.1 3.5-7.2 2.6-3.6 6.1-6.6 8.7-10.2 3-4.2 5.8-8.6 8.1-13.2 1.3-2.5 2.5-3.3 5.1-2.5l25.9 8c1.2.4 2.5.8 3.6.6 5.4-1.1 8.6 2 12 5.6a70.3 70.3 0 0 0 27.4 19.5c2.3.8 5.3.5 7.8 0 10.7-2.5 21.4-5.2 32-7.9 5.1-1.3 9 1.8 13.2 3.4 3.1 1.2 5.6 3.7 8.5 5.5.7.5 1.9.9 2.6.7.6-.3 1.3-1.7 1.1-2.3Zm-91.4-77.4c1.9 2.8 3.6 4.5 4.3 6.5.9 2.4.9 5.1 1.3 7.6l-6.6 5.6.9-19.7Z"/>
  <path fill="#313131" d="M335 .5v238.1L292.7 220l-7.2-3.1-8.3-3.6-156.1-68.5-3.1-1.3-4.7-2-3.2-1.4C73.5 123.8 36.7 107.7 0 91.6V.5h335Z" opacity=".8"/>
  <g fill="#f79d01" data-name="PRINT">
    <path d="M29.6 13.9c0 .5-.2 1-.6 1.4l-6.3 6.3-6.8-3.9v-3.8c0-1.1.9-2 2-2s2 .9 2 2v4.9l6.3-6.3c.8-.8 2.1-.8 2.8 0 .4.4.6.9.6 1.4ZM29 31.7c-.4.4-.9.6-1.4.6s-.5 0-.8-.2l-.6-.4-2.1-2.1-4.1-4.1v4.9c0 1.1-.9 2-2 2s-2-.9-2-2v-3.8l6.8-3.9 4.2 4.2 2.1 2.1c.8.8.8 2.1 0 2.8ZM22.4 22s0-.2-.2-.2l-1.7-1-4.6-2.6L12 16a.5.5 0 0 0-.6.2v11.9c0 .3.2.5.5.5h.2l3.9-2.2 6.3-3.6.1-.2v-.3Zm-9.6-4.7 3 1.7 4.9 2.8.1.1v.3s0 .2-.2.2l-4.9 2.8-3 1.7-.5-.1v-9.3c0-.2.2-.3.3-.3h.2Z"/>
    <path d="m19.5 22.2-.1.2-3.7 2.1-2.3 1.3H13v-6.9c0-.1.1-.3.3-.3h.1l2.3 1.3 3.7 2.1.1.2v.1Zm43-.6-5.6-2.8-3.4-1.7c-.2-.1-.4 0-.5.2v9.5c.1.2.3.4.6.4h.4l3.2-1.8 2-1.1 3.5-1.9.2-.2V22l-.2-.2Zm-5.6 2.8-2.6 1.4-.4-.1v-7.3c0-.2 0-.3.2-.3h.1l2.7 1.3 1 .5 3.4 1.7.2.2v.2l-.1.1-4.3 2.3Z"/>
    <path d="m60.1 22-.1.1-3.2 1.7-2 1.1h-.3v-5.4c0-.1 0-.2.2-.2l2 1 3.3 1.6.1.1v.1Zm-21.6-4.8h-4.9v9.7H36v-3.2h2.5c2.3 0 4.1-1.4 4-3.4 0-1.9-1.8-3.2-4.1-3.2Zm-.2 4.6H36v-2.7h2.3c1.1 0 1.9.5 1.9 1.3s-.8 1.4-1.9 1.4ZM51.8 27l-7.7.1-.2-9.7h2.4l.1 7.8 5.3-.1.1 1.9zm15.7-3.7.1 3.5h-2.4v-3.5l-4.3-6.1 2.7-.1 2.7 4.2 2.8-4.2 2.6-.1-4.2 6.3zm14.4 3.9-1.6.1-4.1-4.5-1.7 1.6v2.9h-1.2l-.1-9.6h1.2l.1 5.3 5.4-5.4h1.6L77 22.1l4.9 5.1zm6.1-9.9c-3 0-5.5 2.3-5.5 5.1 0 2.7 2.6 5 5.6 4.9 3 0 5.5-2.4 5.5-5.1 0-2.7-2.6-5-5.6-4.9Zm.4 9a4.3 4.3 0 0 1-4.6-3.9 4.3 4.3 0 0 1 8.5-.1 4.2 4.2 0 0 1-3.9 4Zm14.8-1.8c0 1.5-1.2 2.8-3.8 2.8-1.6 0-3.1-.5-4.3-1.5l.8-.9c1 .9 2.2 1.4 3.5 1.4 1.7 0 2.5-.9 2.5-1.7 0-1-1-1.4-2.9-1.8-2.2-.4-3.5-1-3.6-2.7 0-1.5 1.5-2.8 3.6-2.8 1.4 0 2.7.4 3.8 1.3l-.7.9c-.9-.8-2-1.2-3.1-1.2-1.3 0-2.3.8-2.3 1.7 0 1 1.1 1.3 2.9 1.7 2.1.4 3.5 1.1 3.6 2.8Zm12.8 2.7h-1.2l-.1-7.3-3.9 6.8-4.1-6.7.1 7.3-1.3.1-.1-9.7h1.3l4 6.7 4-6.8h1.2l.1 9.6zm7.7-9.9c-3 0-5.5 2.3-5.5 5.1 0 2.7 2.6 5 5.6 4.9 3 0 5.5-2.4 5.5-5.1 0-2.7-2.6-5-5.6-4.9Zm.4 9a4.3 4.3 0 0 1-4.6-3.9 4.3 4.3 0 0 1 8.5-.1 4.2 4.2 0 0 1-3.9 4Zm14.8-1.8c0 1.5-1.3 2.8-3.8 2.8-1.5 0-2.9-.4-4.1-1.3l-.2-.2.8-.9.5.4c.9.6 1.9 1 3 .9 1.7 0 2.5-.9 2.5-1.7 0-.8-.6-1.2-1.6-1.5l-1.2-.3h-.2c-2.2-.4-3.5-1-3.6-2.7 0-1.5 1.5-2.8 3.6-2.8 1.4 0 2.7.4 3.8 1.3l-.7.9c-.9-.8-2-1.2-3.1-1.2-1.3 0-2.3.8-2.3 1.7 0 1 1.1 1.3 2.9 1.7.4 0 .8.2 1.1.3l1 .4c.9.4 1.5 1.1 1.5 2.1Z"/>
  </g>
  <path fill="#d88103" d="M335 238.6v96.9L0 335V91.6l335 147Z"/>
  <path fill="#a10101" d="M335 176.2v159.3l-153.5-.5L335 176.2Zm0-24.3v12.5l-49.3 52.3-.2.1-4.9 5.3-26.5 28.1-6.3-5.9 24.6-26 4.8-5.1 1.6-1.7 56.2-59.6z"/>
  <path fill="#fff" d="M116.3 137.2c-4.2 0-7.6 3.4-7.6 7.6s.5 3.2 1.5 4.5l6.1 10.7 6.2-10.7a7.6 7.6 0 0 0-6.1-12.1Zm0 11.1c-1.9 0-3.4-1.5-3.4-3.4s1.5-3.4 3.4-3.4 3.4 1.5 3.4 3.4-1.5 3.4-3.4 3.4Z"/>
</svg>
