<svg xmlns="http://www.w3.org/2000/svg" xmlns:xlink="http://www.w3.org/1999/xlink" width="335" height="335" data-name="Layer 1"><defs><radialGradient id="a" cx="-45.1" cy="-23.4" r="217.7" fx="-45.1" fy="-23.4" gradientUnits="userSpaceOnUse"><stop offset="0" stop-color="#9500ac"/><stop offset=".2" stop-color="#83009e"/><stop offset=".5" stop-color="#550079"/><stop offset=".9" stop-color="#0c0040"/><stop offset="1" stop-color="#000036"/></radialGradient><radialGradient xlink:href="#a" id="d" cx="-1152.1" cy="92.2" r="92.9" fx="-1152.1" fy="92.2" gradientTransform="matrix(1.4 0 0 -1 1597.4 208)"/><radialGradient xlink:href="#a" id="e" cx="-1152.1" cy="117.2" r="92.9" fx="-1152.1" fy="117.2" gradientTransform="matrix(1.4 0 0 -1 1597.4 258)"/><radialGradient xlink:href="#a" id="f" cx="412.9" cy="6.5" r="92.9" fx="412.9" fy="6.5" gradientTransform="matrix(.6 0 0 1 -30.8 0)"/><radialGradient xlink:href="#a" id="g" cx="-13" cy="57.8" r="67" fx="-13" fy="57.8"/><radialGradient xlink:href="#a" id="h" cx="26.8" cy="117.4" r="9.7" fx="26.8" fy="117.4"/><radialGradient xlink:href="#a" id="i" cx="35.4" cy="108.8" r="2.9" fx="35.4" fy="108.8" gradientTransform="rotate(-45 36.1 108.15)"/><radialGradient xlink:href="#a" id="j" cx="30.2" cy="114" r="5.9" fx="30.2" fy="114"/><linearGradient id="b" x1="21" x2="325.4" y1="19.1" y2="327.4" gradientUnits="userSpaceOnUse"><stop offset="0" stop-color="#58007c"/><stop offset=".5" stop-color="#00347f"/><stop offset="1" stop-color="#720090"/></linearGradient><linearGradient id="c" x1="163.9" x2="169.2" y1="378.5" y2="239" gradientUnits="userSpaceOnUse"><stop offset="0" stop-color="#fff"/><stop offset=".3" stop-color="#f690fb" stop-opacity=".4"/><stop offset="1" stop-color="#9500ac" stop-opacity="0"/></linearGradient></defs><path fill="url(#b)" d="M0 0h335v335H0z"/><path fill="url(#c)" d="M0 232h335v103H0z"/><path fill="url(#a)" d="M0 0h335v335H0z" opacity=".9"/><path d="M315.5 303.8Z"/><path fill="#9e005d" d="M302.4 312.3c-.6-.9-.6-1.9-.4-2.9.1-.6.3-1.2.5-1.8.5-1.4 1-2.8 1.6-4.1v-.2c-.1-.2-.1-.4-.2-.6-.3-.9-.6-1.8-.9-2.8-.3-.7-.6-1.5-.9-2.2-.3-.6-.7-1.1-1.1-1.6-.4-.5-.9-.9-1.5-1.1-.5-.1-1-.1-1.5 0-1.2.1-2.3.6-3.3 1.4-.3.2-.5.5-.6.8v.2c0 .2-.2.4-.3.7 0 .2-.1.5-.2.7 0 .6-.1 1.1 0 1.7 0 .6.1 1.3.3 1.9.2 1.1.6 2.2.9 3.3.4 1.1.7 2.3 1.2 3.4.3.7.6 1.4 1.1 2 .6 1 1.5 1.6 2.5 2.1.1 0 .2 0 .3.2h.5c.6 0 1.2 0 1.9-.2.3 0 .5-.2.7-.4-.2-.2-.4-.3-.5-.6Zm-2.7.3c-.6-.2-1.1-.6-1.6-1.1-.3-.3-.6-.7-.8-1.1-.2-.3-.3-.6-.4-.8a19 19 0 0 1-1.4-4c-.4-1.4-.7-2.8-1-4.2-.1-.8-.3-1.6-.2-2.4 0-.6.2-1.1.6-1.6 0 0 0-.2.2-.2-.1.2-.2.3-.3.5-.3.6-.4 1.2-.3 1.8 0 1.5.5 2.9.8 4.3.3 1.1.6 2.3 1 3.4.3 1 .7 1.9 1.1 2.8.4.8.9 1.4 1.6 2 .3.3.7.5 1.2.6h-.4Z"/><path fill="#ccc" d="M294.4 288.2c.3.3.7.5 1.1.6 0 0 .2 0 .2-.1 0-.5.3-.9.5-1.3a6.89 6.89 0 0 1 1.8-2.7l.6-.6c.3-.3.6-.5 1-.7l1.2-.6c.4-.2.9-.3 1.3-.4h.3c.2 0 .5 0 .7-.1 0-.1.2-.1.3-.2.9-.2 1.8-.3 2.7-.2.7.1 1.3.3 1.9.6l1.2.6c.8.5 1.6 1.1 2.3 1.8.4.3.8.7 1.1 1.1.5.6.9 1.2 1.1 2 0 .3.2.6.2 1 0 .1 0 .2.2.2h.3c1 0 2-.1 3 0 .2 0 .5 0 .7.1v-.1c-.4-1.3-1-2.5-1.7-3.6-1.7-2.4-3.9-4.2-6.7-5.3-.7-.3-1.5-.5-2.2-.6H305c-1.9.2-3.6.7-5.3 1.5-1.3.6-2.4 1.6-3.4 2.7-1 1-1.8 2.1-2.3 3.5 0 0 0 .2-.1.3v.2c.2.2.4.5.7.7ZM316.8 301.7c-.5-.3-1.1-.4-1.7-.4-.5 0-.9 0-1.3.3-.7.4-1.4.7-1.9 1.3-.7.7-1.5 1.5-2.1 2.3-.3.4-.6.8-.8 1.3-.2.4-.5.8-.9 1.1-.2.1-.4.2-.6.2-.3 0-.4 0-.4.4-.1.6-.3 1.2-.3 1.8 0 .8.2 1.5.6 2.1.2.3.4.5.7.7.2 0 .3.2.5.4.3.3.6.4 1 .5.5.2.9 0 1.4 0h1.4c.3-.1.6-.3.9-.6h-.4c-.2 0-.4-.1-.6-.2-.4-.1-.7-.4-1.1-.6 0 0-.1-.2-.2-.3-.2-.4-.3-.8-.2-1.3 0-.9.4-1.8.7-2.6.3-.8.8-1.4 1.3-2 .3-.3.5-.6.8-.9a7 7 0 0 1 1.7-1.3c.1 0 .2-.1.4 0-.2.1-.4.2-.5.3-.7.4-1.2.9-1.7 1.5-.5.5-.9 1.1-1.2 1.7-.4.7-.7 1.4-.9 2.2 0 .3-.1.6-.2.9 0 .6 0 1.1.2 1.7.2 0 .3.2.5.2-.4-.6-.5-1.3-.4-2.1.2-.9.4-1.7.9-2.4.4-.7.9-1.5 1.5-2.1.5-.6 1-1.1 1.6-1.5a3 3 0 0 1 1-.4c-.2-.1-.4-.1-.6-.3h-.1c.5 0 1 0 1.3.3.1 0 .3 0 .4.1.3.2.4.4.5.7 0 .2.1.4.2.7.2-.8.2-1.7.2-2.5-.2-.7-.7-1.1-1.3-1.4Z"/><path fill="#9e005d" d="M304.3 313.4c.1-.1.2-.3.4-.4.1-.1.2-.2.1-.4-.2-.7-.2-1.4 0-2.1.2-.8.4-1.6.7-2.4.4-1.4 1-2.7 1.6-4 .4-.8.8-1.6 1.4-2.3.7-.9 1.4-1.6 2.1-2.4.5-.6 1.2-1.1 1.8-1.5.4-.2.8-.5 1.2-.7-.2 0-.4-.2-.6-.3-.3 0-.6 0-.9.1-1.1.3-1.8 1.1-2.6 1.9-.5.5-1 1.1-1.4 1.6l-.9 1.2c-.6.9-1 1.8-1.5 2.8-.2.4-.4.7-.7 1 0 0-.1.1-.2.1-.2 0-.4 0-.5-.2-.1-.3 0-.7 0-1v-.3.1c-.2.5-.4 1-.7 1.6-.5 1.2-.9 2.5-1.2 3.8 0 .5-.1 1 0 1.5 0 .6.3 1.1.8 1.5.3.3.7.5 1 .8h.2Zm-.6-3c.1-.6.3-1.2.4-1.8.4-1.4 1-2.7 1.6-4 .4-.9.9-1.9 1.5-2.7.6-.9 1.3-1.8 2.1-2.5 0 0 0-.1.2-.1l-.5.5c-.6.6-1.1 1.2-1.5 1.9-.7 1.2-1.4 2.4-1.9 3.7-.4 1-.8 1.9-1.2 2.9l-.6 2.1c-.2.8 0 1.6.2 2.3v.3s-.1 0-.1-.1c-.4-.8-.6-1.5-.4-2.4Z"/><path fill="#ccc" d="M316.7 304.4c-.4 0-.7 0-1.1.2-.7.4-1.3.9-1.8 1.5-.1.3-.3.6-.5 1-.3.7-.6 1.4-.8 2.2-.1.4-.2.9-.2 1.3v1.1c0 .4.5.7.9.6.5 0 1-.3 1.4-.6 0 0 .2-.2.3-.2 0 0 .2-.2.2-.3.6-.8 1.1-1.6 1.6-2.5.3-.6.6-1.3.8-2 .1-.6.1-1.2-.1-1.8-.1-.3-.4-.5-.7-.6Z"/><path fill="#ccc" d="M317.4 296.9c-.2.2-.4.2-.6.2h-1.2c-.3 0-.6 0-.8-.2-.2.2-.4.3-.6.4-.3.2-.7.4-1 .7-.1.2-.3.4-.5.5l-.9.9c-.5.7-1.1 1.3-1.6 2-.8 1-1.5 2.1-2.1 3.2-.1.2-.2.5-.4.6 0 .1-.1.3-.2.4-.2.4-.3.9-.4 1.3v.3c0 .2.2.2.3 0 .1-.1.2-.3.3-.4.3-.6.7-1.3 1-1.9 1.2-2.1 2.8-3.9 4.9-5.1.7-.5 1.5-.8 2.4-1 .6-.1 1.2 0 1.7.3h.1c.3 0 .6.4.8.6.6.6.8 1.3.9 2.1V303.4v-.2c.3-.8.4-1.7.3-2.5 0-.6-.2-1.2-.5-1.8-.3-.4-.6-.8-1-1.2-.3-.2-.6-.5-.8-.9h-.2Z"/><path fill="#f2f2f2" d="M301.9 282.5c0-.1.2-.1.3-.2h.2c-.5 0-1 .2-1.4.4-1.4.6-2.6 1.6-3.5 2.8-.4.5-.6 1.2-.9 1.8-.2.4-.4.9-.5 1.3 0 .2-.1.2-.3.2.7.1 1.4.2 2.1.2h.9c.2 0 .3-.1.3-.3.2-.6.5-1.1.8-1.6.9-1.3 2-2.3 3.2-3.2.7-.5 1.5-.9 2.4-1.1h-.4c-.3-.2-.6-.2-.9-.3-.7 0-1.4 0-2.1.2Z"/><path fill="#1b1464" d="M295.8 288.6c.1-.5.3-.9.5-1.3.3-.6.5-1.2.9-1.8 1-1.2 2.1-2.2 3.5-2.8.5-.2.9-.4 1.4-.4h.1-.3c-.4.1-.9.2-1.3.4l-1.2.6c-.3.2-.7.4-1 .7l-.6.6c-.4.4-.8.8-1.1 1.3-.3.4-.4.9-.7 1.4-.2.4-.4.9-.5 1.3 0 .1-.1.1-.2.1.2 0 .2 0 .3-.2ZM304.2 304.4v.8c0 .4.3.5.6.2s.6-.6.8-1c.3-.5.5-1.1.8-1.6.7-1.3 1.6-2.5 2.6-3.6.5-.6 1-1.2 1.7-1.6.5-.4 1.2-.7 1.8-.9h.5c0-.2-.2-.2-.4-.2-.7 0-1.4-.2-2.2 0-.8.2-1.6.6-2.2 1.1-.6.5-1.1 1.1-1.6 1.7-1 1.5-1.8 3.1-2.5 4.8v.3Z"/><path fill="#1b1464" d="M304.1 305.4c0 .2.2.3.5.2 0 0 .2 0 .2-.1.3-.3.6-.6.7-1 .5-.9.9-1.9 1.5-2.8l.9-1.2c.5-.6 1-1.1 1.4-1.6.7-.8 1.5-1.6 2.6-1.9.3-.1.6-.2.9-.1-.2-.1-.3-.1-.5 0-.7.2-1.3.4-1.8.9-.6.5-1.1 1.1-1.7 1.6a18.31 18.31 0 0 0-3.4 5.2c-.2.4-.4.7-.8 1-.3.2-.5.1-.6-.2v-1.1.3c0 .3-.1.7 0 1Z"/><path fill="#ccc" d="M314.3 289.5v.2c.2.7.3 1.4.4 2.1v1.2c0 .1 0 .2.1.2.3 0 .6.1.9.1.7 0 1.3 0 2 .1h.3c.5 0 .5 0 .7-.5l.3-1c0-.4-.1-.9-.2-1.3 0-.1 0-.3-.1-.4a.9.9 0 0 0-.6-.6c-.2 0-.4-.1-.7-.2h-3.1Z"/><path fill="#f2f2f2" d="M309.1 313.8c-.3 0-.5-.2-.7-.4-.2-.2-.4-.3-.7-.5-.6-.4-.8-1-1.1-1.6-.3-.8-.1-1.5 0-2.3 0-.2 0-.5.2-.7.2-.4 0-.4.5-.4-.5 0-.7-.3-.8-.7v-.1c0-.3 0-.5.1-.8.3-1 .7-1.9 1.1-2.8v-.2c-.1.2-.3.5-.4.7-1 2-1.7 4-2.3 6.1l-.3 1.2c0 .5 0 .9.2 1.4 0 0 .1 0 .2-.1.2-.2.4-.2.6 0 .3.2.5.4.7.6.2.3.2.5 0 .8-.1.2-.3.4-.4.6.1.1.3.2.4.2.5.1.9.2 1.4.2 1 0 2-.1 3-.5.4-.1.9-.3 1.3-.6-1 .2-2.1.3-3.1 0Z"/><path fill="#1b1464" d="M309.4 313.8c-.4-.1-.8-.2-1-.5-.1-.2-.3-.3-.5-.4-.3-.2-.5-.4-.7-.7-.4-.6-.7-1.3-.6-2.1 0-.6.2-1.2.3-1.8 0-.3 0-.3.4-.4-.4 0-.4 0-.5.4 0 .2-.1.5-.2.7-.2.8-.3 1.5 0 2.3.2.6.5 1.2 1.1 1.6.2.2.5.3.7.5.2.2.5.4.7.4 1 .4 2.1.2 3.1 0h-2.8Z"/><path fill="#f2f2f2" d="M318.6 293.2c0 .1-.2.2-.3.2h-.4c-.9 0-1.8 0-2.7-.1-.7 0-.6-.1-.6-.7 0-.9-.1-1.9-.4-2.8 0-.1-.1-.2 0-.3h-.3c-.5 0-.9.3-1 .8 0 .1-.1.2 0 .4 0 .7.1 1.5.2 2.2 0 .4 0 .8.2 1.1.1.4.4.7.8.7.6 0 1.1.1 1.7 0h1.1c.5 0 .9 0 1.4.1.6 0 .7-.1.8-.6v-1c0-.5 0-1-.2-1.4 0 .5-.1.9-.3 1.3Z"/><path fill="#1b1464" d="M318.7 292.9c-.2.6-.1.5-.7.5h-.3c-.7 0-1.3-.1-2-.1-.3 0-.6-.1-.9-.1-.1 0-.1-.1-.1-.2v-1.2c0-.7-.2-1.4-.4-2.1v-.2c-.2 0 0 .2 0 .3.3.9.4 1.8.4 2.8 0 .6 0 .7.6.7.9 0 1.8.1 2.7.1h.4c.1 0 .2-.1.3-.2.2-.4.3-.9.3-1.3 0 .3-.2.7-.3 1Z"/><path fill="#f2f2f2" d="M308.3 307.2c.2-.2.4-.5.5-.7.9-1.6 2-2.9 3.4-4 .8-.6 1.6-1.1 2.6-1.2 1.2 0 2.2.3 3 1.2.2.2.2.4.3.6 0-.9-.2-1.8-.5-2.7 0-.2-.2-.5-.2-.7 0-.3-.3-.4-.5-.5h-.3c-.4 0-.9.1-1.3.3-1 .4-1.9 1-2.7 1.7-1.5 1.2-2.7 2.7-3.6 4.4-.3.5-.6 1.1-.9 1.6-.1.2-.3.4-.6.6.4 0 .7-.3 1-.6Z"/><path fill="#1b1464" d="M308 307.7c.4-.3.7-.7.9-1.1a11.5 11.5 0 0 1 2.9-3.6c.6-.6 1.2-.9 1.9-1.3.4-.2.9-.3 1.3-.3.6 0 1.2 0 1.7.4.6.4 1.1.8 1.3 1.4 0-.2 0-.5-.3-.6-.8-.9-1.8-1.3-3-1.2-1 0-1.9.6-2.6 1.2-1.4 1.1-2.5 2.5-3.4 4-.1.3-.3.5-.5.7-.3.3-.5.6-1 .6.2 0 .4 0 .6-.2Z"/><path fill="#f2f2f2" d="M295.3 293.5c.5 0 1 .1 1.6.1.4 0 .6-.2.7-.5.2-.4.3-.9.5-1.4.3-.9.6-1.7.7-2.6-.7.2-1.4.3-2.2.2h-.9c0 .2.2.3.4.4-.2.2-.3.5-.4.7-.2.4-.4.7-.6 1.1-.4.6-.9 1-1.6 1.1-.2 0-.3.1-.5.1.2.2.4.3.7.3.6.2 1.1.3 1.7.5Z"/><path fill="#1b1464" d="M299.3 313.3c-1.1-.5-1.9-1.3-2.5-2.4-.6-1.1-1.1-2.2-1.4-3.4-.4-1.3-.9-2.6-1.2-3.9-.4-1.5-.6-3.1-.5-4.6 0-.6.3-1.1.5-1.6l-.2.2c-.4.7-.7 1.5-.8 2.3v2.2c0 1.2.3 2.3.6 3.5.2.9.5 1.7.8 2.6.3.9.7 1.8 1.2 2.7.2.4.5.8.8 1.1.6.6 1.4 1 2.1 1.3H299.6c.1 0 .3.1.4.1-.2-.1-.4-.2-.5-.3Z"/><path fill="#1b1464" d="M299.9 313.5c-.1 0-.2-.1-.3-.2-1-.4-1.9-1.1-2.5-2.1-.4-.6-.8-1.3-1.1-2-.5-1.1-.8-2.3-1.2-3.4-.4-1.1-.7-2.2-.9-3.3-.1-.6-.2-1.2-.3-1.9v-1.7c0-.2.1-.5.2-.7 0-.2.2-.5.3-.7v-.2c-.2.5-.4 1.1-.5 1.6-.2 1.6 0 3.1.5 4.6l1.2 3.9c.4 1.2.8 2.3 1.4 3.4.6 1 1.4 1.9 2.5 2.4.2 0 .4.1.5.3s.1 0 0 0Z"/><path fill="#f2f2f2" d="M313.9 288.8c-.2-1.4-.9-2.6-1.9-3.6a15.4 15.4 0 0 0-4.5-3c-1-.4-2.1-.6-3.3-.3-.2 0-.5 0-.7.1-.1 0-.3 0-.4.1h.9c.5 0 .9 0 1.3.2.4 0 .9.2 1.3.4 1 .4 1.8 1 2.7 1.5 1.2.8 2.1 1.8 2.9 3 .4.6.8 1.3.8 2.1.3-.2.7-.3 1.1-.4-.1 0-.2 0-.2-.2Z"/><path fill="#1b1464" d="M313.9 288.8c0-.3 0-.7-.2-1-.2-.7-.6-1.4-1.1-2-.3-.4-.7-.8-1.1-1.1-.7-.6-1.5-1.3-2.3-1.8l-1.2-.6c-.6-.3-1.3-.5-1.9-.6-.9-.1-1.8 0-2.7.2-.1 0-.2 0-.3.2h.1c.1 0 .2 0 .4-.1.2 0 .5 0 .7-.1 1.1-.2 2.2 0 3.3.3 1.7.7 3.1 1.7 4.5 3 1 1 1.7 2.1 1.9 3.6 0 .1.1.2.2.2-.1 0-.2 0-.2-.2Z"/><path fill="#f2f2f2" d="M293.7 294.1c.2.4.1.8-.2 1.1-.2.2-.5.3-.7.4-.5.2-.9.6-1.3 1-.2.2-.5.5-.6.8-.2.3-.3.7-.3 1 0 .3-.1.6-.2 1 0 .8 0 1.7.1 2.5.2 1.1.6 2.1 1 3.1 0 .2.2.4.4.5 0-.3 0-.6-.2-.9l-.6-2.1c-.2-1.1-.3-2.1 0-3.2 0-.4.3-.8.5-1.2.2-.3.4-.5.7-.6.2 0 .3-.2.4-.3.7-1 1.7-1.6 3-1.8.1 0 .2 0 .3-.1h-.1c-.3.1-.7.1-1 0-.2 0-.4-.1-.6-.3h1.6c.2 0 .2 0 .2-.2 0-.1 0-.2-.2-.1h-1c-.2 0-.4 0-.5-.2h.2c.4.1.8 0 1.1 0h.2s.2 0 .2-.1 0 0-.2 0c-.4 0-.9-.1-1.3-.3-.2 0-.4-.1-.7-.2v1c.1-.1 0-.3 0-.4Z"/><path fill="#1b1464" d="M288.3 319.6c.6.3 1.2.5 1.9.6h.4c.5 0 .9 0 1.3-.3.1 0 .2-.1.2-.4 0-.3 0-.6.2-.8v-.1c-.1-.3-.4-.6-.7-.8l-.9-.3c-.3 0-.6 0-.8-.1-.5 0-.9-.2-1.4-.2-.4 0-.8.3-.8.7 0 .6 0 1.2.6 1.5Z"/><path fill="#ccc" d="M295.1 291.1c.2-.4.5-.8.7-1.2 0-.2.1-.3 0-.4 0 0-.1-.1 0-.2h-.2c-.6-.1-1.1-.4-1.4-.8-.1-.1-.2-.3-.3-.4-.2-.2-.2-.2-.3 0v.1l-.3 1c-.2.8-.4 1.6-.6 2.3-.1.5 0 .9.4 1.2.1-.1.3-.1.4-.2.8-.2 1.4-.6 1.8-1.4Z"/><path fill="#1b1464" d="M295 291.4c.2-.4.4-.7.6-1.1.1-.2.3-.5.4-.7-.2-.1-.3-.2-.4-.4v.2c.2.1.1.3 0 .4-.2.4-.5.8-.7 1.2-.4.8-1 1.2-1.8 1.4-.2 0-.3 0-.4.2.2 0 .3 0 .5-.1.7-.1 1.2-.5 1.6-1.1ZM292.7 319.8c.6 0 1.1.1 1.7 0 .6 0 1.2 0 1.7-.1 1.5-.2 2.8-.8 4.2-1.4.3-.1.6-.3.8-.4.5-.3 1-.6 1.5-1 .6-.4 1.1-.9 1.6-1.4-.2-.2-.4-.3-.5-.6-.1.3-.3.4-.5.6-.4.3-.7.6-1.1.9l-.2.2c-.8.5-1.6.9-2.4 1.2-.6.3-1.2.5-1.8.7-1.3.4-2.6.6-3.9.5h-1c-.3 0-.4.1-.4.4 0 .2 0 .3.4.3Z"/><path fill="#f2f2f2" d="M294.7 309.4c-.8-1.8-1.3-3.6-1.6-5.6-.2-1.3-.3-2.7-.2-4 0-.9.4-1.8.9-2.6.4-.5.8-1 1.3-1.4h-.2c-.6.2-1.1.6-1.5 1a4 4 0 0 0-1 1.8 9.2 9.2 0 0 0-.2 3.3 23.2 23.2 0 0 0 2 7.5c.2.1.4 0 .6.1Z"/><path fill="#f2f2f2" d="m295.3 310.7-.6-1.2c-.2.1-.4.1-.6-.1.3.8.7 1.6 1.3 2.2-.3-.2-.7-.5-.9-.8-.4-.6-.7-1.2-1-1.9h-.1c-.4-.3-.8-.7-1.1-1.1v.1c.4.9.8 1.8 1.2 2.6.2.5.5.9.9 1.2.3.3.7.5 1.1.7.7.4 1.5.5 2.2.7h.4a5.7 5.7 0 0 1-2.8-2.5Z"/><path fill="#f2f2f2" d="M294.7 309.4c-.2 0-.4 0-.6-.1.2.2.4.2.6.1ZM313.4 312.3c-.5 0-.9-.2-1-.8v-1.7c.3-1.3.7-2.6 1.5-3.7l-.1.1c-.6.8-1.2 1.6-1.6 2.5-.4.7-.6 1.5-.7 2.4 0 .5.1 1 .4 1.4.4.6 1.3.7 1.8.3a8 8 0 0 0 1.3-1.3c-.4.5-.9.8-1.6.9Z"/><path fill="#1b1464" d="M314.7 311.6c-.4.3-.8.5-1.4.6-.4 0-.8-.2-.9-.6v-1.1c0-.4.1-.9.2-1.3.2-.8.5-1.5.8-2.2.1-.3.4-.6.5-1-.8 1.1-1.2 2.4-1.5 3.7-.1.6-.2 1.2 0 1.7 0 .5.5.8 1 .8.7 0 1.2-.4 1.6-.9-.1 0-.2.1-.3.2Z"/><path fill="#f2f2f2" d="M314.8 296.8c.4.2.8.2 1.3.2h.7c.2 0 .4 0 .5-.1 0 0 .2-.2.3 0 0-.2-.1-.4-.1-.7v-.7c0-.1 0-.2-.2-.2h-.6c-.5 0-1 .1-1.5 0-.1 0-.2 0-.2.2v.7c0 .2 0 .4-.2.6h.1Z"/><path fill="#1b1464" d="M316.7 297.1c.2 0 .5 0 .6-.2h.2c-.1-.2-.2 0-.3 0-.2.1-.3.2-.5.1h-.7c-.4 0-.9 0-1.3-.2h-.1c.3.2.5.2.8.2h1.2Z"/><path fill="#f2f2f2" d="M319.4 302.9v-1.4c-.2-1-.8-1.8-1.6-2.4l.2.2c.5.5.7 1.1.7 1.8 0 .4 0 .8-.3 1.1v1c0 .8 0 1.6-.2 2.4 0 .2 0 .3-.1.5.3-.5.6-1 .9-1.6.2-.4.4-.7.5-1.1-.2-.1-.1-.4 0-.5Z"/><path fill="#1b1464" d="M319.4 303.2V301.9c-.1-.8-.4-1.5-.9-2.1-.2-.2-.5-.5-.8-.6.8.6 1.4 1.3 1.6 2.4 0 .5.1.9 0 1.4 0 .2-.1.4 0 .5v-.3Z"/><path fill="#469a77" d="M293.7 294.4v-.2.2Z"/><path fill="#ccc" d="M291.8 305.7v-.1c-.2 0-.3-.2-.4-.4-.4-1-.8-2-1-3-.2-.9-.2-1.9-.1-2.8.1-.8.2-1.7.8-2.3.5-.6 1-1.1 1.8-1.4 0 0 .2 0 .2-.1.5-.3.7-.6.6-1.1l-.1.1c0 .4-.3.6-.6.8-.3.2-.6.3-1 .5-.8.3-1.3.9-1.6 1.7-.3.7-.4 1.5-.3 2.3 0 .6 0 1.2.2 1.8.2 1.2.5 2.4 1 3.5 0 .2.2.4.3.5 0 0 0 .1.2.1Z"/><path fill="#ccc" d="M293.7 294.4v-.2.2c0 .5-.1.8-.6 1.1 0 0-.2 0-.2.1-.7.3-1.3.8-1.8 1.4-.6.7-.7 1.5-.8 2.3-.1.9 0 1.9.1 2.8.2 1.1.6 2.1 1 3 0 .2.2.4.4.4-.2-.1-.3-.3-.4-.5-.4-1-.8-2-1-3.1-.1-.8-.2-1.7-.1-2.5 0-.3.1-.7.2-1 0-.3.2-.7.3-1 .2-.3.4-.6.6-.8.4-.4.8-.8 1.3-1 .3-.1.5-.2.7-.4.3-.3.4-.7.2-1.1v.4s.1 0 .1-.1Z"/><path fill="#1b1464" d="M304.4 315.4c.1.1.2.1.3 0 .6-.5 1.1-1.1 1.6-1.7v-.2c0-.1 0-.2-.1-.3-.1-.2-.3-.3-.4-.4-.2-.1-.3-.1-.4 0-.2.2-.5.4-.7.6-.3.3-.6.7-.9 1 0 .1-.1.2 0 .4l.6.6Z"/><path fill="#f2f2f2" d="M292.5 307.8c.3.4.7.7 1.1 1 0-.1 0-.3-.1-.4-.8-2.1-1.4-4.3-1.6-6.6v-.2c-.1.3-.1.6 0 .9 0 .4.1.8.2 1.3v.2c0 .3.2.6.2 1v.6c0 .1 0 .3-.2.4-.1.1-.3 0-.4 0 .2.6.4 1.2.7 1.8h.2Z"/><path fill="#f2f2f2" d="M293.5 308.8c-.4-.3-.8-.6-1.1-1 0 0 0-.1-.2 0 .3.4.7.7 1.1 1.1 0 0 0 .1.1 0ZM312.5 298.3c.2-.1.3-.2.5-.4h-.2c-1.5 1-2.6 2.2-3.6 3.7-.6.9-1.1 1.9-1.5 2.9 0 .2-.2.4-.2.6.9-1.9 2.2-3.6 3.6-5.3.5-.6.9-1.1 1.4-1.6Z"/><path fill="#f2f2f2" d="M310.1 301.4c.5-.7 1.1-1.3 1.6-2l.9-.9c.2-.2.4-.3.5-.5-.1.1-.3.2-.5.4-.5.5-1 1.1-1.4 1.6-1.4 1.6-2.6 3.4-3.6 5.3.2-.2.3-.4.4-.6.6-1.1 1.3-2.2 2.1-3.2ZM311 312.3c-.2-.6-.3-1.2-.2-1.8.4-2.2 1.5-3.9 3.1-5.5.4-.4.8-.6 1.2-.9-.6.3-1.2.7-1.7 1.3-.7.7-1.4 1.5-1.8 2.4-.5.9-.9 1.9-1 3v.7c0 .5.3.9.8 1.2.2 0 .4.2.6.4-.1-.2-.3-.3-.4-.4-.2 0-.5 0-.6-.3Z"/><path fill="#f2f2f2" d="M311.1 312.4c-.2-.5-.3-1.1-.2-1.7 0-.3.1-.6.2-.9.2-.8.5-1.5.9-2.2.4-.6.8-1.2 1.2-1.7.5-.6 1-1.1 1.7-1.5.2 0 .3-.2.5-.3h-.4c-.7.3-1.2.8-1.7 1.3-.3.3-.5.6-.8.9-.5.6-1 1.3-1.3 2-.3.8-.7 1.7-.7 2.6 0 .4 0 .9.2 1.3 0 .1 0 .2.2.3.3.2.7.5 1.1.6-.2-.2-.4-.3-.6-.4-.5-.2-.7-.6-.8-1.2v-.7c.1-1.1.5-2.1 1-3 .5-.9 1.1-1.7 1.8-2.4a7 7 0 0 1 1.7-1.3 9.83 9.83 0 0 0-4.3 6.4c-.1.6 0 1.2.2 1.8.1.2.4.4.6.3-.2 0-.3-.1-.5-.2Z"/><path fill="#5a967d" d="M291.8 301.6z"/><path fill="#ccc" d="M291.6 301.8s0-.2.2-.2v-.3c0-1 0-2 .3-3v-.3h-.1c-.4.4-.6 1-.7 1.6-.2 1.1 0 2.2.2 3.3 0 .3.1.7.3 1 0-.5-.2-1-.3-1.5v-.7Z"/><path fill="#5a967d" d="M291.8 303.7c0-.4-.2-.8-.2-1.3v-.9c-.1 0-.1.1-.2.2v.7c0 .5.2 1 .3 1.5v-.2Z"/><path fill="#ccc" d="M314.2 296.7c-.1 0-.3-.1-.4-.2v-.1h.1c.2 0 .3.2.5.2q.2-.4-.1-.6v-.1h.1c.2 0 .2 0 .3-.1v-.1c0-.1 0-.2-.2-.2h-.3c-.1 0-.2 0-.2.1 0 .2-.2.3-.3.4-.1 0-.2.2-.3.3-.1.1-.2.3 0 .5.2.4.6.4.9 0Z"/><path fill="#232423" d="M303.2 282.2h-.2c-.2.1-.5.1-.7.2h-.2c.8-.2 1.6-.2 2.5 0 .1 0 .2 0 .3.1.1-.1.3-.1.4-.2-.7 0-1.4-.2-2.1 0Z"/><path fill="#1b1464" d="M302.3 282.3c.2 0 .5 0 .7-.1-.2 0-.5 0-.7.1Z"/><path fill="#1b1464" d="M302.1 282.3h.2H302s-.2 0-.3.2c.7-.2 1.4-.2 2.1-.2.3 0 .6 0 .9.1 0 0-.2-.1-.3-.1a7 7 0 0 0-2.5 0Z"/><path fill="#232423" d="M302.3 282.3h-.1.1Z"/><path fill="#1b1464" d="M304 282.1h-.9H305.4c-.4-.1-.9-.2-1.3-.2Z"/><path fill="#232423" d="M303.1 282.1h-.1Z"/><path fill="#1b1464" d="M320.3 300.8c0-1.2-.4-2.3-1.3-3.1-.2-.2-.4-.3-.6-.5-.2-.2-.4-.5-.5-.8v-1.1h.7c.5 0 .9-.2 1-.7.1-.4.2-.9.1-1.3 0-.8-.2-1.6-.3-2.4 0-.3-.1-.7-.2-1-.1-.3-.3-.6-.5-.7 0 0-.1-.1-.1-.2 0-.3 0-.5-.2-.7-.3-.8-.7-1.7-1.1-2.5-1.3-2.2-3.1-4-5.3-5.3-1.3-.8-2.8-1.4-4.3-1.5-1.7-.2-3.5-.2-5.2.3-1.3.4-2.6.8-3.7 1.5-2.1 1.3-3.6 3.1-4.7 5.2a3 3 0 0 0-.4 1c0 .2 0 .3-.3.4l-.2.2c0 .2-.1.3-.2.5l-.6 2.2c-.1.4-.2.8-.2 1.2 0 .5 0 .9.4 1.2.3.3.6.5 1 .7v.7c0 .3-.2.6-.4.8-.3.2-.6.4-1 .5-.7.3-1.3.8-1.7 1.5-.4.7-.5 1.4-.6 2.2 0 .7 0 1.4.1 2.1.2 1.4.5 2.7 1.2 4v.2c.3.9.6 1.7.9 2.6.4.9.7 1.8 1.2 2.7.2.4.4.8.8 1.1.6.5 1.3 1 2.1 1.2.7.3 1.5.4 2.3.6.7.2 1.3.3 2 .3.8 0 1.6 0 2.4-.4.2 0 .4-.3.6-.3.2 0 .4.2.6.4-.1.2-.3.3-.4.5-.2.2-.2.4 0 .6v.2l-.9.9c-.5.5-1.2.8-1.8 1.2-1.1.6-2.3 1-3.5 1.4-1.5.4-2.9.6-4.5.4-.1 0-.2 0-.2-.1-.2-.6-.6-.9-1.1-1.1-.6-.2-1.3-.4-2-.5h-.9c-.7 0-1.2.4-1.4 1-.2 1 .1 1.7.9 2.1.1 0 .3.2.5.2.6.2 1.1.3 1.7.4.5 0 1 0 1.4-.2.2 0 .4-.2.5-.3h3.5c2-.3 3.9-1 5.7-2.1.9-.6 1.8-1.2 2.6-2 .1-.1.2-.3.5-.2h.2c.2-.1.4-.3.6-.5l.4-.4c0-.1.2-.1.3 0 .2 0 .3.2.5.2a7.64 7.64 0 0 0 5.1-.6c1.5-.7 2.7-1.8 3.8-3.1 1.1-1.4 1.8-2.9 2.4-4.6 0-.1 0-.2.2-.3.8-.9 1.4-1.9 1.8-3 .3-.8.4-1.7.4-2.6Zm-1.7-10.7c0 .1.1.3.1.4 0 .4.2.8.2 1.3.1.5.1.9.2 1.4v1c-.1.5-.2.7-.8.6-.5 0-.9 0-1.4-.1h-2.8c-.4 0-.7-.3-.8-.7-.1-.4-.1-.7-.2-1.1-.1-.7-.1-1.5-.2-2.2v-.4c.2-.5.6-.7 1-.8h.3c1 0 2.1-.1 3.1 0 .2 0 .4 0 .7.2.3.1.5.3.6.6Zm-4.4 5.7q.3.2.1.6c-.2 0-.4-.1-.5-.2h-.1v.1c.1.1.3.2.4.2-.3.4-.7.3-.9 0v-.5c0-.1.2-.2.3-.3.1-.1.3-.2.3-.4 0-.1 0-.2.2-.1h.3c.1 0 .2 0 .2.2v.1c0 .2 0 .2-.3.1h-.1v.1Zm-15.1-6.9v-.4c.5-.9 1-1.7 1.7-2.5 1-1 2.1-2 3.4-2.6.6-.3 1.1-.5 1.7-.6h.3l1.2.6c.4.2.8.5 1.2.7 1 .6 1.8 1.4 2.5 2.4.5.6.9 1.2 1.2 1.9.2.4.2.7.2 1.1 0 1.3 0 2.6.1 3.9 0 .2 0 .4.2.7.2.4.4.7.9.9 0 .2-.1.3-.3.5-.2.2-.4.3-.5.5 0 .1-.1 0-.2 0-.7-.2-1.4-.2-2.2-.2-.8 0-1.4.4-2.1.8-.6.4-1.1.9-1.5 1.4-.9 1.1-1.7 2.4-2.3 3.7-.1.3-.3.6-.4.9v-.4c-.2-1.1-.6-2.1-1-3.1-.2-.5-.3-.9-.5-1.4-.4-.9-1-1.7-1.7-2.4-.5-.6-1.2-.9-1.9-.9-.9 0-1.8 0-2.6.4h-.2c0-.3-.2-.6-.1-.9 0-.2 0-.2.2-.2h.7c.4 0 .7-.3.9-.7.2-.3.3-.7.4-1 .3-.8.5-1.7.7-2.6v-.8Zm-5.4-1.7c0-.1 0-.2.1-.3.5-1.3 1.4-2.4 2.3-3.5 1-1.1 2.1-2 3.4-2.7 1.7-.8 3.5-1.3 5.3-1.5h2.5c.8 0 1.5.3 2.2.6 2.8 1.1 5 2.9 6.7 5.3.8 1.1 1.3 2.3 1.7 3.6v.1c-.2 0-.5 0-.7-.1h-3.3c-.4 0-.7.2-1.1.4 0-.8-.4-1.4-.8-2.1-.8-1.2-1.7-2.2-2.9-3-.9-.6-1.7-1.1-2.7-1.5-.4-.2-.8-.3-1.3-.4-.1 0-.3 0-.4.2h.4v.2c-.9.2-1.6.6-2.4 1.1-1.2.9-2.3 1.9-3.2 3.2-.3.5-.7 1-.8 1.6 0 .2-.2.2-.3.3h-.9c-.7 0-1.4 0-2.1-.2-.4 0-.8-.3-1.1-.6-.2-.2-.4-.5-.7-.7v-.2Zm-.8 5.4c-.4-.3-.5-.7-.4-1.2.2-.8.4-1.6.6-2.3 0-.3.2-.7.3-1v-.1c.1-.2.2-.3.3 0 .1.1.2.3.3.4.4.5.9.7 1.4.8h1.1c.7 0 1.5 0 2.2-.2-.2.9-.5 1.8-.7 2.6-.1.5-.3.9-.5 1.4-.1.3-.4.5-.7.5-.5 0-1.1 0-1.6-.1-.6-.1-1.2-.3-1.7-.5-.2 0-.5-.2-.7-.3Zm-1.6 12.4c-.6-1.1-.8-2.3-1-3.5 0-.6-.2-1.2-.2-1.8 0-.8 0-1.5.3-2.3.3-.8.8-1.3 1.6-1.7.3-.1.7-.3 1-.5.3-.2.5-.4.6-.8v-1c.2 0 .4.1.7.2l1.3.3h.2c0 .1 0 .1-.2.1h-1.5c.1.1.3.2.5.2.3 0 .7.1 1 0 .1 0 .2 0 .2.1s0 .2-.2.2H294c.2.2.4.3.6.3h1.1s-.2 0-.3.1c-1.3.1-2.3.7-3 1.8 0 .1-.2.2-.4.3-.3.2-.5.4-.7.6-.2.4-.4.8-.5 1.2a8.6 8.6 0 0 0 0 3.2l.6 2.1c0 .3.2.6.2.9v.1s-.1 0-.2-.1c-.1-.2-.3-.3-.3-.5Zm6.7 8.2h-.2c-.8-.2-1.5-.4-2.2-.7-.4-.2-.8-.4-1.1-.7-.4-.3-.7-.7-.9-1.2-.4-.9-.8-1.7-1.2-2.6v-.1c-.3-.6-.5-1.2-.7-1.8h.4c.1-.1.1-.3.2-.4v-.6c0-.3-.2-.6-.2-1l-.3-1a7.4 7.4 0 0 1-.2-3.3c0-.6.3-1.1.7-1.6h.1v.3c-.3 1-.4 2-.3 3v.5c.2 2.3.8 4.5 1.6 6.6 0 .1 0 .3.1.4.3.6.6 1.3 1 1.9.2.4.5.6.9.8-.7-.6-1-1.4-1.3-2.2-.3-.5-.5-1.1-.7-1.7-.7-1.9-1.1-3.8-1.3-5.8 0-1.1 0-2.2.2-3.3a4 4 0 0 1 1-1.8c.4-.4.9-.8 1.5-1h.2c-.5.4-.9.9-1.3 1.4-.5.8-.8 1.7-.9 2.6-.1 1.4 0 2.7.2 4 .3 1.9.9 3.8 1.6 5.6l.6 1.2c.6 1.2 1.6 2 2.8 2.5h-.2Zm4.2.1c-.6.2-1.2.2-1.9.2h-.5c-.1 0-.3 0-.4-.1h-.9c-.7-.4-1.5-.7-2.1-1.3-.3-.3-.6-.7-.8-1.1-.5-.8-.9-1.8-1.2-2.7-.3-.9-.5-1.7-.8-2.6-.3-1.1-.5-2.3-.6-3.5V300c.1-.8.4-1.6.8-2.3 0 0 0-.2.2-.2.2-.3.4-.6.6-.8.9-.9 2-1.3 3.3-1.4h1.5c.6.2 1.1.5 1.5 1.1.4.5.7 1 1.1 1.6.4.7.7 1.4.9 2.2.3.9.6 1.8.9 2.8 0 .2 0 .4.2.6v.2c-.6 1.3-1.1 2.7-1.6 4.1-.2.6-.4 1.2-.5 1.8-.2 1-.1 2 .4 2.9.1.2.3.4.5.6-.2.2-.4.3-.7.4Zm.9-.7c-.5-.4-.7-.9-.8-1.5v-1.5c.2-1.3.7-2.5 1.2-3.8.2-.5.4-1 .7-1.6v-.1c.7-1.7 1.5-3.3 2.5-4.8.4-.6.9-1.3 1.6-1.7.7-.5 1.4-.9 2.2-1.1.7-.1 1.4 0 2.2 0 .1 0 .4 0 .4.2.1.1.3.2.6.3-.4.2-.8.5-1.2.7-.7.4-1.3.9-1.8 1.5-.7.8-1.5 1.6-2.1 2.4-.5.7-1 1.5-1.4 2.3-.6 1.3-1.1 2.6-1.6 4-.3.8-.5 1.6-.7 2.4-.2.7-.2 1.4 0 2.1 0 .2 0 .3-.1.4l-.4.4s-.2.1-.2 0c-.3-.3-.7-.5-1-.8Zm-10.8 6.2c-.3.2-.2.5-.2.8 0 .2 0 .3-.2.4-.4.2-.9.3-1.3.3h-.4c-.7 0-1.3-.2-1.9-.6-.6-.4-.7-1-.6-1.5 0-.4.4-.7.8-.7.5 0 .9 0 1.4.2.3 0 .6.1.8.1.3 0 .6.1.9.3.3.2.5.4.7.8v.1Zm10.3-1.9c-.5.3-1 .6-1.5 1a3 3 0 0 1-.8.4c-1.3.6-2.7 1.2-4.2 1.4-.6 0-1.2.1-1.7.1h-1.7c-.3 0-.4-.1-.4-.3 0-.3.1-.4.4-.4h1c1.3.1 2.6 0 3.9-.5.6-.2 1.2-.4 1.8-.7.8-.4 1.7-.7 2.4-1.2 0 0 .1 0 .2-.2.4-.3.7-.6 1.1-.9.2-.2.4-.4.5-.6.1.2.3.4.5.6-.5.5-1 1-1.6 1.4Zm2.1-1.6c-.1.1-.2.1-.3 0l-.6-.6c-.1-.1-.1-.2 0-.4.3-.4.6-.7.9-1 .2-.2.4-.4.7-.6.2-.1.2-.1.4 0s.3.2.4.4c0 0 .1.2.1.3v.2c-.5.6-1 1.2-1.6 1.7Zm12.8-8.7c-.1.7-.5 1.3-.8 2-.4.9-1 1.7-1.6 2.5 0 0-.2.2-.2.3a8 8 0 0 1-1.3 1.3c-.5.4-1.4.3-1.8-.3-.3-.4-.4-.9-.4-1.4 0-.8.3-1.6.7-2.4.4-.9 1-1.7 1.6-2.5l.1-.1c.5-.6 1.1-1.1 1.8-1.5.3-.2.7-.2 1.1-.2.3 0 .6.2.7.6.2.6.2 1.2.1 1.8Zm.3-1.1c0-.2-.1-.5-.2-.7 0-.3-.2-.6-.5-.7-.1 0-.3 0-.4-.1h-.6c-.4 0-.7.2-1 .4-.6.4-1.2.9-1.6 1.5-.6.7-1 1.4-1.5 2.1-.4.8-.7 1.6-.9 2.4-.1.7 0 1.4.4 2.1l.4.4c.2 0 .4.1.6.2h.4l-.9.6c-.4.3-.8.5-1.3.6-1 .3-2 .5-3 .5-.5 0-.9-.1-1.4-.2-.2 0-.3-.1-.4-.2.1-.2.3-.4.4-.6.2-.2.2-.5 0-.8-.2-.3-.4-.5-.7-.6-.2-.1-.4-.1-.6 0l-.2.1c-.1-.5-.2-.9-.2-1.4 0-.4.1-.8.3-1.2.6-2.1 1.3-4.1 2.3-6.1.1-.2.2-.5.4-.7v.2c-.4.9-.8 1.8-1.1 2.8 0 .3-.1.5-.1.8v.1c0 .5.3.7.8.7.2-.1.4-.3.6-.6.3-.5.6-1.1.9-1.6.9-1.7 2.1-3.2 3.6-4.4.8-.7 1.7-1.3 2.7-1.7.4-.2.8-.3 1.3-.3h.3c.3 0 .5.1.5.5 0 .2.2.5.2.7.4.9.5 1.8.5 2.7 0 .8 0 1.7-.2 2.5Zm-.3-6c.7.5.8 1.1.7 1.8-.1-.6-.4-1.2-.7-1.8Zm2 3.6v.2c-.1.4-.3.8-.5 1.1-.3.6-.6 1.1-.9 1.6 0-.2 0-.3.1-.5.2-.8.2-1.6.2-2.4v-1c.2-.3.2-.7.3-1.1 0-.7-.2-1.3-.7-1.8 0 0-.2-.1-.2-.2h-.1c-.5-.4-1.1-.4-1.7-.3-.9.2-1.6.5-2.4 1-2.1 1.3-3.7 3-4.9 5.1-.4.6-.7 1.3-1 1.9 0 .2-.2.3-.3.4-.1.1-.2 0-.3 0v-.3c0-.5.2-.9.4-1.3 0-.1.1-.3.2-.4 0-.2.2-.4.2-.6.4-1 .9-2 1.5-2.9.9-1.5 2.1-2.7 3.6-3.7h.2c.3-.3.7-.4 1-.7.2-.1.4-.3.6-.4.1-.2.2-.4.2-.6v-.7c0-.1 0-.2.2-.2h2.1c.1 0 .2 0 .2.2v.7c0 .2 0 .5.1.7.2.4.5.6.8.9.4.3.7.7 1 1.2.3.5.5 1.1.5 1.8 0 .9 0 1.7-.3 2.5Z"/><path fill="#499876" d="M315.5 303.8z"/><path fill="#f2f2f2" d="M315.6 303.8c.2 0 .4 0 .5.3h.6c-.4 0-.7-.3-1.1-.3Z"/><path fill="#499876" d="M315.6 303.8Z"/><path fill="#f2f2f2" d="M315.4 303.8h.1c.4 0 .8.2 1.1.3-.4-.2-.8-.3-1.3-.3Z"/><path fill="#f2f2f2" d="M315.6 303.8c.2.1.4.1.6.3-.1-.2-.3-.2-.5-.3Z"/><path fill="#3e3e3e" d="M299.5 313.4h-.2.2ZM299.3 313.3h.2-.2ZM299.2 313.3h-.2.2ZM299 313.3h.2-.2Z"/><path fill="#5a967d" d="M291.8 301.8v-.2.2ZM291.8 301.6v.2-.2Z"/><path fill="#1b1464" d="M300 312.7c-.4-.2-.8-.3-1.2-.6-.6-.6-1.2-1.2-1.6-2-.5-.9-.8-1.8-1.1-2.8-.4-1.1-.7-2.3-1-3.4-.3-1.4-.7-2.8-.8-4.3 0-.6 0-1.2.3-1.8 0-.2.2-.3.3-.5-.1 0-.2.1-.2.2-.4.5-.5 1-.6 1.6 0 .8 0 1.6.2 2.4.3 1.4.6 2.8 1 4.2.4 1.4.8 2.7 1.4 4 .1.3.2.6.4.8l.8 1.1c.4.5 1 .8 1.6 1.1h.4ZM304.3 312.9v-.3c-.2-.8-.4-1.5-.2-2.3.1-.7.3-1.4.6-2.1.3-1 .8-1.9 1.2-2.9.5-1.3 1.2-2.5 1.9-3.7.4-.7.9-1.3 1.5-1.9.1-.2.3-.3.5-.5-.1 0-.2 0-.2.1-.8.7-1.5 1.5-2.1 2.5-.6.9-1.1 1.8-1.5 2.7-.6 1.3-1.2 2.7-1.6 4-.2.6-.3 1.2-.4 1.8-.1.8 0 1.6.4 2.4 0 0 0 .1.1.1ZM49.3 44.3c-.8-1.8-1.8-3.5-2.7-5.3-.7-1.5-1.8-2.8-3.3-3.6-.2 0-.3-.2-.3-.4 0-.3-.2-.6-.5-.8-.3-.2-.5-.2-.8-.3-1.5-.3-2.9-.3-4.4-.2-.2 0-.4 0-.6.1-.6.1-1.1.5-1.4 1-.3.5-.7 1-1.3 1.2-1 .3-2 .5-2.9.8h-.3c-.2-.2-.5-.3-.8-.2-.8 0-1.7.3-2.5.6h-.2c-.2 0-.4.2-.4.4s-.1.2-.3.3c-.9.2-1.8.4-2.8.6-.4 0-.9 0-1.3-.2-.2-.1-.5-.2-.7-.4-.4-.3-.8-.3-1.3-.3-.3 0-.7.1-1 .2-1.1.4-2.1.9-3.1 1.5-.4.3-.8.5-1.1.9-.3.4-.5.8-.2 1.3v.3s0 .1-.1.2c-.9 1.2-1.3 2.6-1.3 4.2 0 2.4-.2 4.8-.2 7.2v4.7c0 1.7.1 3.5.5 5.2 0 .4.2.9.3 1.3.2.7.5 1.5 1 2.1.4.6.9.9 1.6 1 .8.1 1.5 0 2.2-.4a5.3 5.3 0 0 0 2.3-2.6c.4-1 .6-2.1.8-3.2l.6-2.6c.1-.4.3-.8.6-1.2.3-.5.7-.8 1.2-.9 2.4-.5 4.8-1.1 7.3-1.6.3 0 .7-.2 1-.3.8-.1 1.7-.4 2.5-.6 2-.5 4-.9 6-1.4h.7c.6.2 1.1.6 1.5 1.1.6.6 1.1 1.2 1.6 1.9.7.9 1.4 1.8 2.2 2.6.6.6 1.4 1 2.2 1.3 1 .3 1.9.2 2.8-.2.8-.4 1.3-1.1 1.4-2v-2.2c-.4-2.1-1.1-4-2-5.9-.8-1.7-1.7-3.4-2.5-5.1Zm-13.4-9.6c.3-.2.6-.4.9-.4.6 0 1.3-.2 1.9-.2 1.1 0 2.2 0 3.3.4.4.1.6.3.6.7-.8-.2-1.6-.3-2.4-.4-.8 0-1.6 0-2.4.1-.8.1-1.6.3-2.4.6.2-.4.4-.7.6-.9Zm-8.5 2.9c.1 0 .2-.1.4-.2.7-.2 1.4-.3 2.1-.5h.5-.2c-.4 0-.9.2-1.3.3l-1.4.3h-.1v-.1Zm-11.8 3.2c0-.1.2-.3.3-.4.8-.7 1.8-1.3 2.7-1.7.6-.3 1.2-.5 1.9-.7.4-.1.9-.1 1.3.2.2.1.4.3.6.3-.7 0-1.5.2-2.2.4-.5.2-.9.3-1.4.5-1.1.5-2.1 1-3 1.8h-.2v-.4Zm.3 25.8a4 4 0 0 1-1-1.8c-.4-1.4-.6-2.9-.7-4.4-.2-3.2-.2-6.3-.1-9.5v-1.7c.2.1.2.3.2.5.3.8.7 1.4 1.1 2.2.4.9.6 1.8.5 2.8 0 .6 0 1.2-.2 1.8v1.8c.1.5.3 1 .6 1.4 0 .1.1.3.2.4.1.3.2.6.2 1 0 .7-.2 1.3-.5 1.9-.2.5-.3 1-.3 1.6 0 .5 0 .9.3 1.3.3.6.7 1 1.3 1.3 0 0 .2 0 .3.2-.8 0-1.4 0-2-.6Zm35.3-7.2c-.1 0-.2.1-.4.1-.6 0-1.2-.2-1.8-.4-.8-.4-1.4-1-2-1.6-.7-.8-1.3-1.7-2.1-2.6-.5-.6-1-1.1-1.6-1.6-.6-.5-1.2-.8-2-.7-.4 0-.7 0-1.1.2-1.1.2-2.1.4-3.2.7-2.7.7-5.4 1.3-8 1.9-1.3.3-2.6.6-3.8.8-.4 0-.7.2-1.1.3-.7.3-1.2.8-1.5 1.4-.5 1.1-.8 2.3-1 3.5-.2 1.2-.5 2.3-1 3.4-.4.9-1 1.6-1.9 2-.2.1-.4.2-.7 0-.9-.3-1.6-.9-1.7-1.8-.1-.7 0-1.4.2-2.1.2-.6.4-1.2.5-1.8.1-.7 0-1.3-.4-1.9-.2-.4-.4-.8-.5-1.3-.2-.7-.1-1.4 0-2.2.1-.8.1-1.6 0-2.3 0-.9-.4-1.7-.8-2.5-.3-.7-.7-1.3-.9-2-.2-.5-.3-1-.3-1.5v-1.9c.1-1 .4-1.9.9-2.8 0-.1.1-.2.2-.4.3-.5.6-.8 1.1-1.2a15.09 15.09 0 0 1 5-2.2c.6 0 1.3-.2 1.9-.2.5 0 1 0 1.5-.2l5.2-1.2 2.5-.6c.8-.2 1.5-.4 2.3-.8.2-.1.5-.2.7-.3.6-.2 1.3-.4 2-.5.9-.1 1.7-.2 2.6-.1.8 0 1.6.1 2.4.4.3.1.6.3.9.5.9.7 1.7 1.4 2.2 2.4.4.8.8 1.6 1 2.4.3 1 .2 1.9.2 2.9 0 .6 0 1.2.1 1.8.1.6.3 1.1.6 1.7.3.6.6 1.1 1 1.7.3.5.6 1 .7 1.6v1.3c0 .9.2 1.6.8 2.3.3.3.5.6.8.9.5.5.8 1 1.1 1.6.4 1.1 0 2.3-.9 2.8Zm2.2-3.2v1.6c-.1.6-.5 1.1-1 1.4-.2 0-.3.2-.6.2.1-.2.3-.3.3-.4.6-1 .6-1.9 0-2.9-.2-.5-.6-.9-1-1.3s-.8-.8-1.1-1.3c-.3-.4-.4-.8-.4-1.3v-1.5c0-.7-.4-1.3-.8-1.8-.3-.5-.6-.9-.9-1.4-.7-1-.9-2.2-.8-3.4v-2.5c.1 0 .2.2.2.3.8 1.4 1.5 2.9 2.2 4.3.9 1.9 1.8 3.8 2.6 5.7.3.8.6 1.5.8 2.3.2.6.4 1.3.4 1.9Z"/><path fill="#f2f2f2" d="M52 56.6c-.2-.6-.6-1.1-1.1-1.6-.3-.3-.6-.6-.8-.9-.6-.7-.9-1.4-.8-2.3v-1.3c-.1-.6-.4-1.1-.7-1.6-.4-.5-.7-1.1-1-1.7-.3-.5-.5-1.1-.6-1.7-.1-.6-.1-1.2-.1-1.8 0-1 0-1.9-.2-2.9-.2-.9-.5-1.7-1-2.4-.6-1-1.3-1.8-2.2-2.4-.3-.2-.6-.4-.9-.5-.8-.2-1.6-.3-2.4-.4-.9 0-1.7 0-2.6.1-.7 0-1.3.3-2 .5-.2 0-.5.1-.7.3-.7.4-1.5.6-2.3.8l-2.5.6-5.2 1.2c-.5.1-1 .2-1.5.2-.7 0-1.3.1-1.9.2-.8.1-1.5.4-2.2.7-1 .4-1.9.9-2.8 1.5-.4.3-.8.7-1.1 1.2 0 .1-.1.2-.2.4-.5.9-.8 1.8-.9 2.8v1.9c0 .5.1 1 .3 1.5.3.7.6 1.3.9 2 .4.8.8 1.6.8 2.5v2.3c-.1.7-.2 1.4 0 2.2.1.5.3.9.5 1.3.3.6.5 1.2.4 1.9-.1.6-.3 1.2-.5 1.8-.2.7-.3 1.4-.2 2.1.2.9.8 1.5 1.7 1.8h.7c.9-.5 1.5-1.2 1.9-2 .5-1.1.8-2.2 1-3.4.2-1.2.5-2.4 1-3.5.3-.6.8-1.1 1.5-1.4.3-.2.7-.2 1.1-.3 1.3-.3 2.6-.6 3.8-.8 2.7-.6 5.4-1.2 8-1.9 1-.3 2.1-.5 3.2-.7.3 0 .7-.1 1.1-.2.8 0 1.4.3 2 .7.6.5 1.1 1 1.6 1.6.7.9 1.3 1.8 2.1 2.6.6.6 1.2 1.2 2 1.6.6.3 1.1.4 1.8.4.1 0 .3 0 .4-.1.8-.5 1.3-1.7.9-2.8Zm-6.5-16.5c.1.6.1 1.3 0 1.9-.2.8-.4 1.5-.7 2.3-.4 1.1-.7 2.2-1.1 3.3-.3.9-.6 1.7-1 2.5-.2.4-.6.7-.9 1.1-.5.4-1 .7-1.6.9-.7.3-1.5.4-2.2.6l-1.5.3c-.5 0-.9.2-1.4.2-.3 0-.5 0-.7-.2-.5-.3-.8-.6-1.3-1-.3-.2-.6-.4-.9-.2-.7.2-.8.2-1.1.9-.1.3-.3.5-.4.8-.2.5-.6.7-1.1.9-1.3.4-2.7.7-4 1-.6.1-1.1.2-1.7.1-.9 0-1.7-.4-2.4-1-1.1-.9-2.1-1.9-3.1-3-.8-.9-1.6-1.7-2.4-2.6-.9-1.1-1.3-2.3-1.1-3.7.1-.7.3-1.4.6-2.1.2-.6.6-.9 1.1-1.2 1.3-.9 2.6-1.6 4-2.2.6-.3 1.3-.3 2-.3 1 0 1.9 0 2.9-.4 1.8-.6 3.6-1 5.5-1.4l2-.3c.9-.1 1.6-.4 2.4-.9.4-.2.8-.4 1.2-.5h4.2c.4 0 .8 0 1.3.2.6.1 1 .3 1.4.8.6.6 1.1 1.2 1.5 1.8.2.4.4.8.5 1.2Z"/><path fill="#9e005d" d="M49.6 46.2c-.7-1.5-1.4-2.9-2.2-4.3 0-.1 0-.2-.2-.3v2.5c0 1.2.2 2.3.8 3.4.3.5.6.9.9 1.4.4.6.7 1.2.8 1.8v1.5c0 .5 0 .9.4 1.3.3.5.7.9 1.1 1.3.4.4.8.8 1 1.3.5 1 .5 2 0 2.9 0 .1-.2.3-.3.4.2 0 .4-.1.6-.2.6-.3.9-.8 1-1.4 0-.5.1-1.1 0-1.6 0-.7-.3-1.3-.4-1.9-.2-.8-.5-1.6-.8-2.3-.8-1.9-1.7-3.8-2.6-5.7ZM17.6 67c-.6-.3-1-.7-1.3-1.3-.2-.4-.3-.9-.3-1.3 0-.5.1-1.1.3-1.6.2-.6.4-1.2.5-1.9 0-.3 0-.7-.2-1 0-.1-.1-.3-.2-.4-.2-.4-.4-.9-.6-1.4-.1-.6-.1-1.2 0-1.8 0-.6.1-1.2.2-1.8 0-1-.1-1.9-.5-2.8-.3-.7-.8-1.4-1.1-2.2 0-.1 0-.3-.2-.5v1.7c0 3.2 0 6.3.1 9.5 0 1.5.3 3 .7 4.4a4 4 0 0 0 1 1.8c.5.6 1.2.7 2 .6 0-.1-.2-.1-.3-.2Z"/><path fill="#ccc" d="M15.7 41.3c.9-.8 1.9-1.3 3-1.8.4-.2.9-.3 1.4-.5.7-.3 1.4-.3 2.2-.4-.2 0-.4-.2-.6-.3-.4-.3-.9-.3-1.3-.2-.6.2-1.3.4-1.9.7-1 .5-1.9 1-2.7 1.7-.1.1-.2.2-.3.4v.4c0 .1.1.2.2 0ZM37.7 35c.8-.1 1.6-.1 2.4-.1.8 0 1.6.1 2.4.4 0-.5-.2-.6-.6-.7-1.1-.3-2.2-.4-3.3-.4-.6 0-1.3 0-1.9.2-.3 0-.7.2-.9.4-.2.2-.5.5-.6.9.8-.3 1.6-.5 2.4-.6Z"/><path fill="#9e005d" d="m27.5 37.7 1.4-.3c.4 0 .9-.2 1.3-.3h.2-.5c-.7.2-1.4.3-2.1.5-.1 0-.3 0-.4.2v.1h.1Z"/><path fill="#1b1464" d="M43.6 37c-.4-.4-.9-.7-1.4-.8-.4 0-.8-.1-1.3-.2-1.2-.1-2.4-.1-3.5 0h-.7c-.4.1-.8.3-1.2.5-.7.4-1.5.7-2.4.9-.7 0-1.3.2-2 .3-1.8.4-3.7.8-5.5 1.4-.9.3-1.9.4-2.9.4-.7 0-1.4 0-2 .3-1.4.6-2.8 1.3-4 2.2-.5.3-.9.7-1.1 1.2-.2.7-.5 1.4-.6 2.1-.2 1.4.2 2.6 1.1 3.7.8.9 1.6 1.7 2.4 2.6 1 1 2 2.1 3.1 3 .7.6 1.5.9 2.4 1 .6 0 1.2 0 1.7-.1 1.3-.3 2.7-.6 4-1 .5-.2.9-.4 1.1-.9.1-.3.2-.5.4-.8.3-.7.4-.8 1.1-.9.4-.1.6 0 .9.2.4.3.8.7 1.3 1 .2.1.4.2.7.2.5 0 .9-.1 1.4-.2.5 0 1-.2 1.5-.3.7-.2 1.5-.3 2.2-.6.6-.2 1.2-.4 1.6-.9.3-.3.7-.6.9-1.1.4-.8.7-1.7 1-2.5.4-1.1.7-2.2 1.1-3.3.2-.8.5-1.5.7-2.3.1-.6.2-1.3 0-1.9 0-.4-.3-.8-.5-1.2-.4-.7-.9-1.3-1.5-1.8Zm1.6 4.4c-.1.8-.4 1.5-.6 2.3-.4 1.2-.7 2.4-1.2 3.6-.3.9-.7 1.7-1 2.6-.3.7-.9 1.1-1.6 1.4-.5.2-1 .4-1.5.5-.5.1-1.1.2-1.6.4-.5.1-1 .2-1.6.4-.3 0-.7.1-1 .1-.1 0-.3 0-.4-.1-.2-.1-.4-.3-.6-.5-.3-.3-.6-.5-.9-.7-.3-.2-.5-.2-.8-.1-.2 0-.3 0-.5.1-.5 0-.7.3-.9.7-.2.3-.3.7-.5 1-.2.5-.6.8-1.1.9l-3.9.9c-.6.1-1.2.2-1.8.2-.7 0-1.2-.3-1.7-.8-1.2-1.1-2.5-2.2-3.6-3.4-.7-.8-1.5-1.6-2.2-2.5-.5-.6-.9-1.3-.9-2.1 0-.5 0-1.1.1-1.6 0-.2.2-.5.2-.7.2-.8.6-1.3 1.3-1.7 1.3-.8 2.7-1.6 4.1-2.2.4-.2.8-.2 1.3-.2h1.6c.4 0 .8 0 1.2-.2.7-.1 1.3-.3 1.9-.5.9-.3 1.9-.5 2.8-.7.8-.2 1.6-.3 2.4-.4.6-.2 1.1-.2 1.7-.4.6-.2 1.1-.4 1.6-.7.5-.3 1-.5 1.5-.5h1.2c1.2 0 2.4 0 3.6.2.7 0 1.2.3 1.7.9.4.5.9 1 1.2 1.5.4.8.5 1.6.4 2.4Z"/><path fill="#ccc" d="M43.6 37.5c-.4-.5-1-.8-1.7-.9-1.2-.1-2.4-.2-3.6-.2h-1.2c-.5 0-1 .3-1.5.5-.5.3-1 .5-1.6.7-.6.2-1.2.2-1.7.4-.8 0-1.6.3-2.4.4-1 .2-1.9.4-2.8.7-.6.2-1.3.4-1.9.5-.4.2-.8.2-1.2.2h-1.6c-.4 0-.9 0-1.3.2-1.4.6-2.8 1.4-4.1 2.2-.7.4-1.1 1-1.3 1.7 0 .2-.2.5-.2.7-.1.5-.2 1.1-.1 1.6 0 .8.4 1.5.9 2.1.7.9 1.5 1.6 2.2 2.5 1.1 1.2 2.3 2.4 3.6 3.4.5.4 1 .7 1.7.8.6 0 1.2 0 1.8-.2l3.9-.9c.5-.1.9-.4 1.1-.9.1-.4.3-.7.5-1 .2-.4.4-.7.9-.7.2 0 .3 0 .5-.1.3 0 .6 0 .8.1.3.2.6.4.9.7.2.2.4.4.6.5.1 0 .3.1.4.1.3 0 .7 0 1-.1.5-.1 1-.2 1.6-.4.5-.1 1.1-.2 1.6-.4.5-.1 1-.3 1.5-.5.7-.3 1.2-.7 1.6-1.4.4-.8.7-1.7 1-2.6.5-1.2.8-2.4 1.2-3.6.2-.7.5-1.5.6-2.3.1-.9 0-1.7-.4-2.4-.3-.6-.8-1-1.2-1.5Zm-4.3-.4c.8-.2 1.7.4 1.8 1.1.2.9-.3 1.7-1.2 1.9a1.5 1.5 0 1 1-.7-2.9Zm-2 3.2c.9-.2 1.6.4 1.8 1.1.2 1-.5 1.8-1.2 1.9-.7.2-1.7-.4-1.8-1.1-.2-.9.3-1.7 1.2-1.9Zm-13.1 8.2c0-.3 0-.5.4-.6.2 0 .4 0 .6-.1.2 0 .4-.1.7-.2.3 0 .5 0 .6.4 0 .2 0 .3.1.5.2.5 0 .9-.2 1.2-.1.2-.2.3-.3.5-.2.2-.4.3-.6.1-1.2-.8-1-.5-1.3-1.8Zm-4 .1c-1.6.3-3-.6-3.4-2.1-.4-1.6.5-3.1 2.1-3.4 1.4-.5 3.1.7 3.4 2 .4 1.7-.8 3.2-2.2 3.5Zm4.2 3.8H24c-.2 0-.3 0-.5.1-.3 0-.5 0-.5-.3-.1-.5-.3-1-.3-1.6 0-.1 0-.2.2-.3.2 0 .3-.2.5-.2h.8c.2 0 .3 0 .5.2.3.1.6.3.8.5.1.1.2.3 0 .4l-.6.9c-.1.1-.2.2-.4.2Zm3.3.9c0 .3 0 .5-.3.5-.2 0-.4.1-.7.2-.2 0-.4.1-.6.1-.3 0-.4 0-.6-.3-.1-.2-.2-.4-.2-.6v-.1c-.1-.4 0-.7.2-1 .1-.2.2-.4.3-.5.2-.2.3-.3.6-.1l.9.6s.1.2.2.3c0 .3.2.7.2 1Zm1.4-3.3c0 .3.1.6.1.9 0 .2 0 .4-.3.5-.3 0-.5.1-.8.2-.2 0-.5 0-.7-.1-.2-.2-.5-.3-.7-.5-.3-.2-.3-.3-.2-.6.2-.4.4-.7.7-.9.4-.3.9-.4 1.4-.3.2 0 .3.2.4.4 0 .2 0 .4.1.6Zm-.7-6.6c-.1.5-.7.8-1.2.5-.5-.3-1-.6-1.4-1-.4-.4-.8-.7-1.2-1.1-.5-.4-.4-1 0-1.2.1 0 .2-.1.4-.2.3-.1.6 0 .8.3.7.6 1.4 1.1 2.2 1.7.3.3.5.6.4 1Zm2.9 5.1c-.7.2-1.4-.3-1.6-1.1-.2-.8.2-1.4 1-1.6.8-.2 1.5.2 1.6 1 .3.7-.3 1.5-1 1.7Zm1.3-5.6c-.7.2-1.2-.4-1-1.1 0-.2.2-.4.3-.7.4-.7.7-1.5 1.1-2.2.3-.5.9-.7 1.3-.4.2.2.4.6.2.9-.3.7-.6 1.4-.9 2.2-.2.4-.3.7-.6 1-.1.1-.3.2-.4.2Zm5.2 8c-1.3.3-3.1-.5-3.4-2.2-.5-1.3.7-3 2.1-3.4 1.6-.4 3 .7 3.4 2.1.4 1.5-.5 3.1-2.1 3.4Zm3.3-5.6c-.8.2-1.8-.4-1.8-1.2-.2-.8.3-1.7 1.1-1.9.8-.2 1.7.4 1.8 1.1.2.9-.4 1.7-1.1 1.9Zm2-3.2c-.8.2-1.6-.2-1.8-1.1-.2-.9.3-1.7 1.1-1.9.9-.2 1.7.3 1.9 1.1.2.9-.2 1.6-1.1 1.9Z"/><path fill="#1b1464" d="M22.5 45.2c-.3-1.4-2-2.5-3.4-2-1.6.3-2.5 1.8-2.1 3.4.4 1.6 1.8 2.5 3.4 2.1 1.3-.3 2.5-1.7 2.2-3.5Zm-2.2 3.1c-1.1.2-2.1-.3-2.7-1.3v-.2c-.3-.5-.2-1 0-1.5s.5-1 .9-1.3c1.2-.9 3-.5 3.6 1 .2.3.2.7.2 1.1-.1 1.2-.8 1.9-1.9 2.2ZM36.7 45.5c-1.4.3-2.6 2-2.1 3.4.3 1.7 2.1 2.5 3.4 2.2 1.5-.4 2.4-1.9 2.1-3.4-.3-1.4-1.8-2.5-3.4-2.1Zm3 2.4c.2 1-.4 2.1-1.3 2.6-.4.2-.9.3-1.4.2-1 0-2.2-1.2-2.1-2.3v-.3c0-.6.2-1.1.6-1.5 1.2-1.3 3.2-.8 3.9.4.2.3.2.5.3.8ZM33.8 41.7c.3-.7.6-1.4.9-2.2.1-.3 0-.7-.2-.9-.4-.3-1-.2-1.3.4-.4.7-.7 1.5-1.1 2.2-.1.2-.2.4-.3.7-.2.6.3 1.2 1 1.1.2 0 .3-.1.4-.2.3-.3.5-.7.6-1Zm0-3c.3 0 .6 0 .6.3s-.1.7-.4.7c-.3 0-.6-.1-.6-.4 0-.3 0-.6.4-.7Zm-1.1 4c-.3 0-.6 0-.6-.4 0-.3.1-.6.4-.7.3 0 .5.2.6.5 0 .3 0 .5-.4.6Zm-.5-1.3c.3-.7.6-1.3.9-2 .2.5.6.7 1.1.5-.2.4-.3.7-.5 1-.1.3-.3.6-.5.9-.3-.4-.6-.6-1.1-.4ZM25.9 40.8c-.3-.2-.5-.4-.8-.3-.2 0-.3 0-.4.2-.3.3-.4.9 0 1.2.4.3.8.7 1.2 1.1.4.4.9.8 1.4 1 .5.2 1 0 1.2-.5.1-.4 0-.8-.4-1-.7-.6-1.4-1.1-2.2-1.7Zm-1.3.4c0-.2.1-.4.4-.5.3 0 .6.1.7.4 0 .2-.2.6-.4.6-.3 0-.6-.2-.7-.6Zm2.2 2.1c-.6-.4-1.1-.9-1.7-1.3.6 0 .8-.4.9-.9.2 0 1 .6 1.7 1.3-.2 0-.4.1-.6.3-.2.1-.2.4-.3.6Zm1 .5c-.3 0-.6 0-.7-.4 0-.3 0-.6.4-.7.3 0 .6.2.7.4 0 .3-.1.6-.4.6ZM40 40.1c.9-.2 1.4-1 1.2-1.9-.1-.7-1-1.3-1.8-1.1a1.5 1.5 0 1 0 .7 2.9Zm-1.4-1.8c.1-.8 1.2-1.2 1.9-.7.4.3.6.6.5 1.1-.1 1-1.1 1.5-1.9.9-.4-.3-.6-.9-.4-1.3ZM38 43.4c.7 0 1.4-.9 1.2-1.9-.2-.7-.9-1.3-1.8-1.1-.8.2-1.4 1-1.2 1.9.1.7 1.1 1.3 1.8 1.1Zm-1.5-1.6c0-.6.5-1.1 1-1.1.6 0 1.2.3 1.4.8.1.3 0 .6 0 .9-.2.6-.8.9-1.4.7-.6-.1-1-.7-1-1.3ZM30.9 45.9c-.8.2-1.2.8-1 1.6.2.8.9 1.2 1.6 1.1.7-.1 1.3-1 1-1.7-.1-.8-.8-1.2-1.6-1Zm1 2.1c-.3.3-.9.4-1.4 0-.3-.3-.4-.6-.2-1 .2-.8 1.3-1 1.8-.3.4.5.2 1.1-.1 1.4ZM40.6 42.4c-.8.2-1.4 1.1-1.1 1.9 0 .7 1 1.4 1.8 1.2.8-.2 1.3-1 1.1-1.9-.2-.7-1-1.3-1.8-1.1Zm1.5 2c-.2.7-1 .9-1.5.7-.7-.2-1-1-.8-1.6 0-.4.6-.9 1.1-.9.5 0 1.1.3 1.2.8.1.3.2.6 0 .9ZM42.5 39.2c-.8.3-1.3 1-1.1 1.9.2.8 1 1.3 1.8 1.1.9-.3 1.4-.9 1.1-1.9-.2-.8-.9-1.3-1.9-1.1Zm1.7 1.6c0 .9-.8 1.2-1.3 1.2-.8-.1-1.3-.8-1.1-1.5.1-.7.8-1 1.4-.9.6 0 1.1.7 1.1 1.3ZM25.6 50.4c.3.2.4.1.6-.1.1-.1.2-.3.3-.5.2-.4.4-.8.2-1.2 0-.2 0-.3-.1-.5 0-.3-.3-.4-.6-.4-.2 0-.4.1-.7.2-.2 0-.4 0-.6.1-.3 0-.5.3-.4.6.3 1.3 0 1 1.3 1.8Zm-1-2.1 1.3-.3c.3 0 .4 0 .4.3s.1.5.2.8v.2c-.2.3-.3.5-.5.8 0 .1-.2.2-.3 0-.3-.2-.5-.3-.8-.6 0 0-.2-.2-.2-.3 0-.3-.1-.7 0-1ZM28.7 49.2c-.5 0-1 0-1.4.3-.3.2-.5.6-.7.9-.1.3-.1.4.2.6.2.2.5.3.7.5.2.1.5.2.7.1.3 0 .5-.1.8-.2.2 0 .3-.2.3-.5s0-.6-.1-.9c0-.2 0-.4-.1-.6 0-.2-.2-.4-.4-.4Zm.1.5c0 .4.1.9.2 1.3 0 .1 0 .2-.1.2-.3 0-.6.1-.9.2h-.3c-.3-.2-.5-.3-.8-.5-.2 0-.2-.2 0-.3.1-.3.3-.5.5-.7.1-.1.3-.2.4-.3h.7c.2 0 .2 0 .3.2ZM25.5 51.3v-.4c-.2-.2-.5-.4-.8-.5-.2 0-.3-.2-.5-.2h-.8c-.2 0-.3.1-.5.2-.1 0-.2.2-.2.3 0 .5.2 1.1.3 1.6 0 .3.3.4.5.3.2 0 .3 0 .5-.1h.4c.2 0 .3-.1.4-.2l.6-.9Zm-.9.8s-.1.1-.2.1c-.2 0-.5.1-.7.2-.3 0-.4 0-.4-.3 0-.4-.1-.8-.2-1.2 0-.2 0-.2.2-.3.1 0 .3 0 .5-.1.3-.2.7 0 1 .2.1.1.3.2.5.3.1 0 .2.2 0 .3-.2.3-.4.5-.6.8ZM27.4 52.1c-.3-.2-.6-.5-.9-.6-.3-.1-.4 0-.6.1-.1.2-.2.4-.3.5-.2.3-.4.6-.2 1v.1c0 .2 0 .4.2.6.1.3.3.3.6.3.2 0 .4 0 .6-.1.2 0 .5 0 .7-.2.3 0 .4-.2.3-.5 0-.3-.2-.7-.2-1 0-.1 0-.2-.2-.3Zm.1 1.1c0 .4 0 .4-.3.5-.3 0-.6.1-.9.2h-.4s-.1 0-.1-.1c0-.3-.2-.7-.2-1v-.1c.1-.3.3-.6.5-.8 0-.1.2-.2.3 0 0 0 .2.1.3.2.7.6.6.3.8 1.3Z"/><path fill="#9e005d" d="M20.7 47.5c.2 0 .3-.1.5-.2.4-.3.7-.7.8-1.2v-.2c.1-.3.1-.6 0-1-.6-1.5-2.5-1.9-3.6-1-.4.3-.8.8-.9 1.3-.2.5-.2 1 0 1.5l.6.6c.8.5 1.7.5 2.5.2Z"/><path fill="#ccc" d="M22 45c.4.7-.1 2.2-1.1 2.6-.7.2-1.4.4-2.1.2-.6-.2-1-.4-1.3-1v.2c.6 1 1.6 1.5 2.7 1.3 1.2-.2 1.8-1 1.9-2.2 0-.4 0-.8-.2-1.1Z"/><path fill="#1b1464" d="M18.8 47.7c.7.2 1.4 0 2.1-.2.9-.3 1.5-1.8 1.1-2.6.1.3.1.6 0 1v.2c0 .5-.3.9-.8 1.2-.1 0-.3.1-.5.2-.9.4-1.7.4-2.5-.2l-.6-.6c.3.5.8.8 1.3 1Z"/><path fill="#9e005d" d="M35.5 46.6c-.4.4-.6.9-.6 1.5.2.3.3.6.5.9.4.5 1 .8 1.6.9.8.2 1.4-.1 2-.7.2-.2.4-.5.5-.8 0-.2 0-.3.2-.5 0-.3-.1-.6-.3-.8-.7-1.3-2.7-1.7-3.9-.4Z"/><path fill="#ccc" d="M37.7 50c-1.2 0-2.6-.8-2.8-1.9v.3c0 1.1 1.1 2.2 2.1 2.3.5 0 1 0 1.4-.2.9-.5 1.6-1.6 1.3-2.6-.1 1.2-.9 2.1-2 2.2Z"/><path fill="#9e005d" d="M39.5 48.4c0 .3-.2.6-.5.8-.5.6-1.2.9-2 .7-.6-.1-1.2-.4-1.6-.9-.2-.3-.4-.6-.5-.9.2 1.1 1.7 2 2.8 1.9 1 0 1.8-1 2-2.2 0 .1-.1.3-.2.5Z"/><path fill="#ccc" d="M34.2 40c-.5.1-.9 0-1.1-.5-.3.7-.6 1.3-.9 2 .5-.1.9 0 1.1.4.2-.3.3-.6.5-.9.2-.3.3-.6.5-1Z"/><path fill="#9e005d" d="M32.4 41.7c-.3 0-.5.3-.4.7 0 .3.3.5.6.4.3 0 .5-.3.4-.6 0-.3-.3-.5-.6-.5ZM34.1 39.9c.2 0 .4-.4.4-.7 0-.3-.3-.4-.6-.3-.3 0-.4.4-.4.7 0 .3.4.5.6.4Z"/><path fill="#ccc" d="M27.7 42.5c-.7-.7-1.5-1.2-1.7-1.3 0 .5-.3.8-.9.9.6.4 1.1.9 1.7 1.3 0-.2.1-.4.3-.6l.6-.3Z"/><path fill="#9e005d" d="M27.5 42.8c-.3 0-.4.4-.4.7 0 .3.3.5.7.4.3 0 .5-.4.4-.6 0-.3-.4-.5-.7-.4ZM25.7 41.2c0-.3-.4-.5-.7-.4-.3 0-.5.3-.4.5.1.4.4.6.7.6.2 0 .4-.4.4-.6ZM40.4 39.2c.2-.1.3-.3.5-.5 0-.5-.1-.9-.5-1.1-.7-.5-1.8-.1-1.9.7.1.4.3.7.6.9.4.3.9.3 1.2 0Z"/><path fill="#ccc" d="M40.9 38.8c-.1.3-.4.5-.7.7-.8.3-1.7-.2-1.7-1.1-.1.5 0 1.1.4 1.3.8.6 1.8.1 1.9-.9Z"/><path fill="#1b1464" d="M40.3 39.4c.3-.1.5-.4.7-.7l-.5.5c-.4.3-.8.3-1.2 0-.3-.2-.5-.6-.6-.9 0 .9.9 1.5 1.7 1.1Z"/><path fill="#9e005d" d="M37.8 42.7c.3 0 .6-.1.9-.3h.1c.2-.3.2-.6 0-.9-.2-.6-.8-.9-1.4-.8-.6 0-1 .5-1 1.1.3.5.7.9 1.3.9Z"/><path fill="#ccc" d="M37.5 43.1c.6.1 1.1-.1 1.4-.7-.4.4-.8.5-1.3.4-.5-.2-.9-.4-1-1 0 .7.4 1.2 1 1.3Z"/><path fill="#1b1464" d="M37.5 42.8c.5.2 1 0 1.3-.4h-.1c-.3.1-.6.3-.9.3-.6 0-1-.5-1.3-.9.1.5.5.8 1 1Z"/><path fill="#9e005d" d="M31.8 47.5c.2-.2.3-.5.2-.8-.5-.7-1.6-.5-1.8.3 0 .1.2.3.3.4.3.4 1 .4 1.3 0Z"/><path fill="#ccc" d="M32 46.7c.2.3 0 .6-.1.9-.3.3-.6.4-1 .2-.3-.1-.6-.4-.6-.8-.1.4 0 .7.2 1 .5.5 1.1.3 1.4 0 .4-.3.5-.9.1-1.4Z"/><path fill="#1b1464" d="M30.8 47.8c.4.2.7 0 1-.2.2-.2.3-.5.1-.9 0 .3 0 .6-.2.8-.3.4-1 .4-1.3 0-.1-.1-.2-.3-.3-.4 0 .4.3.6.6.8Z"/><path fill="#9e005d" d="M40.9 42.7c-.5 0-1.1.4-1.1.9 0 0 0 .2.1.2.3.8 1 1.1 1.8.8.1 0 .2-.1.4-.2.2-.3.1-.6 0-.9-.2-.5-.7-.8-1.2-.8Z"/><path fill="#ccc" d="M40.7 44.8c-.6-.2-.9-.6-1-1.2-.2.6.1 1.4.8 1.6.5.1 1.3 0 1.5-.7-.4.4-.8.5-1.3.4Z"/><path fill="#1b1464" d="M39.9 43.8s0-.2-.1-.2c0 .6.4 1 1 1.2.5.1 1 0 1.3-.4-.1 0-.2.1-.4.2-.8.4-1.5 0-1.8-.8Z"/><path fill="#9e005d" d="M43.1 39.5c-.5 0-1.2.2-1.4.9.3.8.7 1 1.5 1 .2 0 .4-.1.6-.3.1-.1.2-.3.3-.4 0-.6-.4-1.2-1.1-1.3Z"/><path fill="#ccc" d="M42.9 41.5c-.5 0-1.1-.6-1.1-1.1-.2.8.3 1.4 1.1 1.5.6 0 1.3-.3 1.3-1.2-.3.6-.6.8-1.3.7Z"/><path fill="#1b1464" d="M43.3 41.5c-.8 0-1.2-.2-1.5-1 0 .5.6 1 1.1 1.1.7 0 1.1-.1 1.3-.7-.1.1-.2.3-.3.4-.2.2-.3.3-.6.3Z"/><path fill="#9e005d" d="M25.4 49.5c.3.2.3.2.6 0 .1-.2.3-.3.4-.5 0-.3-.1-.5-.2-.8 0-.3-.1-.3-.4-.3-.5 0-.9.2-1.3.3 0 .6.3 1 .9 1.3Z"/><path fill="#ccc" d="M25.6 50.1h.3c.2-.3.3-.5.5-.8v-.2c-.4.9-.7.9-1.4.4-.4-.3-.5-.7-.5-1.1v1c0 .1 0 .2.2.3.2.2.5.4.8.6Z"/><path fill="#1b1464" d="M25.1 49.4c.8.5 1 .5 1.4-.4-.1.2-.3.3-.4.5-.3.3-.3.3-.6 0-.5-.3-.8-.7-.9-1.3 0 .4 0 .8.5 1.1Z"/><path fill="#9e005d" d="M28.5 49.4h-.7c-.2 0-.3.1-.4.3-.2.2-.4.5-.5.7.4.2.8.4 1.3.4h.9c0-.4-.2-.9-.2-1.3 0-.2 0-.3-.3-.2Z"/><path fill="#ccc" d="M27.9 51.1c-.3 0-.6-.2-.9-.3 0 0-.2-.1-.1-.2-.1.1-.1.2 0 .3.3.2.5.3.8.5h.3c.3 0 .6-.1.9-.2.1 0 .1-.1.1-.2-.3.3-.7.1-1.1.1Z"/><path fill="#1b1464" d="M28.2 51c-.5 0-.9-.2-1.3-.4 0 .1 0 .2.1.2.3.1.6.3.9.3.4 0 .8.2 1.1-.1-.3.1-.6 0-.9 0Z"/><path fill="#9e005d" d="M25.2 51c-.2 0-.3-.2-.5-.3-.3-.2-.7-.4-1-.2-.2 0-.3 0-.5.1-.1 0-.2.1-.2.3 0 .4.1.8.2 1.2 0 .3.1.3.4.3.2 0 .5-.1.7-.2 0 0 .2 0 .2-.1.2-.3.4-.5.6-.8V51ZM26.8 51.9s-.2-.1-.3-.2c-.1-.1-.3 0-.3 0-.2.3-.4.5-.5.8 0 .2.2.4.2.7 0 0 .1.2.2.1.5-.1 1 0 1.5-.3-.2-.9 0-.7-.8-1.3Z"/><path fill="#ccc" d="M27.3 53.4c-.4 0-.7 0-1.1.2-.2 0-.4 0-.4-.3 0-.2-.2-.4-.1-.6v.1c0 .4.1.7.2 1 0 0 0 .1.1.1h.4c.3 0 .6-.1.9-.2.4 0 .4-.1.3-.5 0 .1-.2.1-.3.2Z"/><path fill="#1b1464" d="M26.1 53.5c-.1 0-.2 0-.2-.1 0-.2-.2-.4-.2-.7 0 .2 0 .4.1.6 0 .2.2.3.4.3.4 0 .7 0 1.1-.2.1 0 .2 0 .3-.2-.5.2-1 .1-1.5.3Z"/><g fill="#fff" data-name="PRINT"><path d="M30.5 13.8c0 .6-.2 1.1-.6 1.5l-6.8 6.8-7.2-4.2v-4.1c0-1.2 1-2.1 2.1-2.1s2.1 1 2.1 2.1V19l6.7-6.7c.8-.8 2.2-.8 3 0 .4.4.6.9.6 1.5ZM29.9 32.8c-.4.4-.9.6-1.5.6s-.6 0-.8-.2c-.3-.1-.5-.3-.7-.5l-2.3-2.3-4.4-4.4v5.2c0 1.2-1 2.1-2.1 2.1s-2.1-1-2.1-2.1v-4.1l7.2-4.2 4.5 4.5 2.3 2.3c.8.8.8 2.2 0 3ZM22.8 22.4c0-.1-.1-.2-.2-.3l-1.8-1-4.9-2.8-4.1-2.4c-.2-.1-.5 0-.7.2v12.7c0 .3.2.5.5.5h.2l4.1-2.4 6.7-3.9s.1-.1.1-.2v-.3Zm-10.2-5 3.2 1.9 5.2 3s.1 0 .1.1v.3s0 .2-.2.2l-5.2 3-3.2 1.9c-.2.1-.4 0-.5-.1V17.8c0-.2.2-.4.4-.4h.2Z"/><path d="M19.8 22.6s0 .1-.1.2L15.8 25l-2.4 1.4c-.1 0-.3 0-.4-.1V18.9c0-.2.1-.3.3-.3h.1l2.4 1.4 3.9 2.2s.1 0 .1.2v.2ZM65.6 22l-6-3-3.7-1.8c-.2-.1-.5 0-.6.2v10.1c.1.2.4.4.6.4h.4l3.4-1.9 2.1-1.1 3.8-2s.2-.1.2-.2v-.2c0-.1-.1-.2-.2-.2Zm-6 3-2.8 1.5c-.2.1-.4 0-.5-.1v-7.8c0-.2 0-.3.3-.3h.1l2.8 1.4 1 .5 3.6 1.8s.1 0 .2.2v.2s0 .1-.1.1l-4.6 2.4Z"/><path d="M63.1 22.5s0 .1-.1.1l-3.4 1.8-2.1 1.1h-.3V19.6c0-.1 0-.2.2-.2l2.1 1.1 3.5 1.8.1.1v.1ZM40 17.3h-5.2v10.4h2.6v-3.4h2.7c2.5 0 4.3-1.5 4.3-3.6 0-2-1.9-3.5-4.4-3.4Zm-.2 4.9h-2.4v-2.9h2.4c1.2 0 2.1.5 2.1 1.4 0 .9-.8 1.5-2 1.5ZM54.2 27.7l-8.2.1-.2-10.3h2.5l.1 8.3 5.7-.1.1 2zM71 23.8v3.7h-2.5v-3.7l-4.6-6.5h2.9l2.9 4.5 2.9-4.6h2.8L71 23.8zM86.3 28h-1.7l-4.4-4.7-1.8 1.7v3.1h-1.3L77 17.8h1.3l.1 5.7 5.7-5.7 1.7-.1-4.7 4.8 5.2 5.5zM92.8 17.5c-3.2 0-5.9 2.5-5.8 5.4 0 2.9 2.8 5.3 6 5.3s5.8-2.5 5.8-5.4c0-2.9-2.8-5.3-5.9-5.2Zm.4 9.6c-2.5.2-4.7-1.7-4.9-4.2.1-2.3 1.9-4.1 4.2-4.3 2.5-.2 4.7 1.7 4.9 4.2-.1 2.3-1.9 4.1-4.2 4.3ZM108.9 25.1c0 1.6-1.3 3-4 3-1.7 0-3.3-.5-4.5-1.6l.8-.9c1 1 2.4 1.5 3.8 1.4 1.8 0 2.7-.9 2.7-1.8 0-1.1-1.1-1.5-3.1-1.9-2.3-.5-3.8-1.1-3.8-2.9 0-1.6 1.6-3 3.8-3 1.5 0 2.9.5 4.1 1.4l-.8.9c-.9-.8-2.1-1.3-3.3-1.3-1.4 0-2.4.9-2.4 1.8 0 1.1 1.2 1.4 3.1 1.8 2.2.4 3.8 1.1 3.8 2.9ZM122.6 28h-1.3l-.1-7.8-4.2 7.3-4.3-7.1.1 7.7h-1.3l-.2-10.3h1.4L117 25l4.2-7.3h1.3l.1 10.3zM130.8 17.5c-3.2 0-5.9 2.5-5.8 5.4 0 2.9 2.8 5.3 6 5.3s5.9-2.5 5.8-5.4c0-2.9-2.8-5.3-5.9-5.2Zm.4 9.6c-2.5.2-4.7-1.7-4.9-4.2.1-2.3 1.9-4.1 4.2-4.3 2.5-.2 4.7 1.7 4.9 4.2-.1 2.3-1.9 4.1-4.2 4.3ZM147 25.1c0 1.6-1.3 3-4 3-1.7 0-3.3-.5-4.6-1.6l.8-.9c1 1 2.4 1.5 3.8 1.4 1.8 0 2.7-.9 2.6-1.8 0-1.1-1.1-1.5-3.1-1.9-2.3-.5-3.8-1.1-3.8-2.9 0-1.6 1.6-3 3.8-3 1.5 0 2.9.5 4.1 1.4l-.8.9c-.9-.8-2.1-1.3-3.3-1.3-1.4 0-2.4.9-2.4 1.8 0 1.1 1.2 1.4 3.1 1.8 2.2.4 3.8 1.1 3.8 2.9Z"/></g><path fill="#fff" d="M167.5 157.8c-2.6 0-4.7 2.1-4.7 4.7s.3 2 .9 2.8l3.8 6.5 3.8-6.5c.6-.8.9-1.7.9-2.8 0-2.6-2.1-4.7-4.7-4.7Zm0 6.8c-1.1 0-2.1-.9-2.1-2.1s.9-2.1 2.1-2.1 2.1.9 2.1 2.1-.9 2.1-2.1 2.1Z"/><path fill="url(#d)" d="M69.6 93.7H335v20.7H69.6z" transform="rotate(-180 202.3 104)"/><path fill="url(#e)" d="M69.6 118.6H335v20.7H69.6z" transform="rotate(-180 202.3 129)"/><path fill="url(#f)" d="M222.3 8H335v20.7H222.3z"/><circle cx="52.4" cy="116.5" r="51.5" fill="url(#g)"/><circle cx="52.5" cy="116.5" r="45.9" fill="#fff"/><path fill="url(#h)" d="M36.4 118.1v6.1c0 1.5-1.3 2.8-2.8 2.8H19.9c-1.5 0-2.8-1.3-2.8-2.8v-13.7c0-1.5 1.3-2.8 2.8-2.8h6.2c.4 0 .8.3.8.8s-.3.8-.8.8h-5.9c-.9 0-1.7.8-1.7 1.7v13c0 .9.8 1.7 1.7 1.7h13c.9 0 1.7-.8 1.7-1.7v-5.8c0-.4.3-.8.8-.8.4 0 .8.3.8.8Z"/><path fill="url(#i)" d="M36 106.4c1.8 0 3.2 1.4 3.2 3.2v.5h-6.4v-.5c0-1.8 1.4-3.2 3.2-3.2Z" transform="rotate(45 36.07 108.24)"/><path fill="url(#j)" d="m36.2 112.6-6.8 6.8h-.3l-4.4.6c-.2 0-.5-.2-.5-.5l.6-4.4v-.3l6.8-6.8 4.5 4.5Z"/></svg>