<svg data-name="Layer 1" xmlns="http://www.w3.org/2000/svg" width="335" height="335"><defs><clipPath id="a"><path fill="none" d="M0 0h335v335H0z"/></clipPath></defs><g clip-path="url(#a)"><path fill="#ffdd15" d="M0 0h335v335H0z"/><g fill="#fff100"><path d="m257.9 176 2.2-1.9 2.1 2.1-2.2 1.9zM155 176.1l2.1-2.2c.8.8 1.4 1.6 2.2 2.3l-2.1 1.9zM64.5 178.1l-2.2-2 2.3-2 2.2 2.1zM249.6 178l-2-1.8 2.4-2 1.8 2zM167.6 174l2.1 2-2.3 2-2.1-1.9zM52.2 176l2.2-2 1.9 2.3-2 1.8zM231.4 176.2l-2.2 2.1-2.2-2.2 2.1-2.1zM239.6 174.1l1.9 2-2 2-2-2zM138.8 176.3l-2.1 2-2-2.2 2.2-1.9zM146.9 173.9l2.2 2.2-2.3 1.9-1.9-1.9zM44 174l2.2 2.2-2.1 2.1-2.2-2.2zM31.6 176.1l2.1-1.9 2.1 2.1-2 1.9zM270.1 178.1l-1.9-2 2.2-2.1 1.9 2.3zM85 178.1l-1.9-2 2.2-2.2 2.1 2.2zM175.6 176l2.2-2 2.1 2.1-2.1 2zM186.1 176l1.9-2.1 2.2 2.3-2.2 1.8zM72.8 176l2.1-2.1 1.9 2.4-1.9 1.9zM334.2 176.2l-2 2.1-2.2-2.2 2.3-2zM282.7 176.2l-1.9 2c-.8-.7-1.5-1.5-2.2-2.2l2.1-2zM246.6 171l-1.9 2.2-2.1-2.3 2.2-1.9zM126.4 174l2.2 2.1-2.2 2.1-2.1-2.3zM15.3 176.3l-2.2 2-2-2.1 2.2-2.1zM23.4 178.2l-2-2a22.8 22.8 0 0 0 2.2-2.2l2.1 2.2zM198.3 178.2l-2-2.1 2.1-2 2 2zM93.4 176l2.1-2 2.1 2.2-2.1 2.1zM107.8 176.2l-2 2.2-2-2.3 2-1.9a18.8 18.8 0 0 1 2 2zM118.1 176.1l-2 2.2-2.2-2.1 2.2-2.3zM49.4 169.1l1.8 1.9-2 2.2-1.9-2.3zM67.7 170.9l2.1-2.1 2 2.1-2.3 2zM206.5 176.2l2.1-2.3a22.8 22.8 0 0 1 2.2 2.2l-2.2 2.2zM5.1 176.2l-2.2 2.1L.7 176l2.1-2.1zM218.9 178.3l-2-2 2.1-2.3 2.2 2.1zM319.8 176.1l2-2.2 2.1 2.3-2.1 1.9zM311.6 174l2.1 2.1-2.3 2-1.9-2.1zM303.4 176.1a22.8 22.8 0 0 1-2.2 2.2l-2.1-2.3c.7-.7 1.3-1.4 2.1-2.1a22.8 22.8 0 0 1 2.2 2.2zM288.9 176.1l2.1-2.3 2.1 2.3-2.3 2.1zM172.5 173l-2-2 2.2-1.9 1.9 1.9zM13.2 163.7l2 2.1-2.2 1.8-1.8-1.9zM2.9 167.7l-2.1-1.9 2.3-1.9 1.7 2.1zM16.4 170.9l2-1.9 1.9 2-2 2zM26.4 171l2.3-2.1c.5.7 1.2 1.4 1.8 2.1l-2.1 1.9zM38.9 168.8l2.1 2.1-2.2 1.9L37 171zM252.9 170.8l2-1.9 1.9 2.1-2 2.1zM267.2 171l-1.9 2.2c-.7-.9-1.3-1.6-1.9-2.5l1.7-1.8zM287.8 171.1a20.8 20.8 0 0 1-2.1 2c-.6-.8-1.2-1.5-1.7-2.3l1.9-1.8zM296 172.9l-2-2 2.1-1.9 1.7 2.2zM308.3 171l-1.9 2-2.1-2.2 2.2-1.7zM318.6 171.1l-1.9 2-1.9-2.3 2.1-1.7zM328.8 171c-.5.7-1.1 1.3-1.8 2.1l-2.1-2.2 2-2.1zM182.8 173.1l-1.9-2.2 2.1-1.8 1.9 1.9zM193.3 168.9l2 2.1-2.1 2.2-1.9-2.3zM139.7 171l2.2-2.1 1.9 2.2-2 1.9zM131.4 168.8l2.2 2.1a21.8 21.8 0 0 0-2.2 2.1l-2-2.1zM123.3 171.1c-.7.6-1.3 1.3-2 2l-2-2.3 2-1.9zM203.6 168.9l1.9 2-2.1 2-1.9-2zM213.6 172.9l-1.9-1.9 2.2-2 1.9 2zM112.9 171l-2.1 2-2-2 2.2-1.9zM275.4 172.9l-1.9-2 2-1.9 2 2zM100.6 169l2.1 2-2.2 2-1.8-2.1zM92.3 171l-2 2.1-1.9-2.2 2.1-1.7zM78.2 170.8l1.8-2 2 2.3-2 2.1zM8.1 168.9l1.9 2-2 2-2.1-2zM61.5 171.1l-2 2.1-1.9-2.4 1.9-2zM223.9 173l-1.9-2.1 2-2.1 2 2.2zM151.9 172.9l-2.1-2 2.4-2 1.8 2zM234.4 172.9l-2.1-2 2.2-1.8 1.8 2zM160.2 171l2.1-2.2 2.1 2.3-2.1 1.9zM313.6 165.9l-2.2 2-1.9-1.9 2.1-2.3zM301.3 167.8l-2.1-2 2.2-1.9 1.9 2zM260.3 163.9l1.9 2-2.2 1.9-1.7-2zM217 165.8a20.3 20.3 0 0 1 2.1-2l1.9 2.1-2.2 1.7zM208.5 167.7l-1.8-1.9 1.9-2.2 2.1 2.4zM200.3 166l-2 1.9-2-2.1 2.2-1.9zM159.1 166.1l-1.8 1.7-2.1-2 2-1.9zM117.9 166.1l-1.9 1.7-2-2.1 2.1-2zM105.7 167.6l-2.1-1.8 2.2-2.2 1.8 2.5zM224.3 158.9l1.7 1.9-1.9 1.7-1.9-2zM195.2 160.8l-2 1.9-1.8-2.3 1.9-1.6zM185 160.6l-2.2 2.1-1.8-2.2 2-1.8zM172.7 158.8l1.9 1.8-2.1 2-1.7-2.2zM143.8 160.7l-1.9 1.9-1.8-2.2 2-1.5zM133.4 160.9l-1.8 1.6-1.9-2 1.9-1.7zM88.6 160.4l1.9-1.5 1.6 1.8-2 1.7zM80.2 158.8l1.8 1.7-2.1 2.1-1.6-2.1zM47.3 160.4l1.9-1.7 2.1 2.1-2 1.9zM39 162.7l-2.2-2.1 2.2-1.8 2 1.9zM28.8 158.8l1.8 1.8-2.1 1.9-1.9-1.9zM234.5 158.8l1.8 2-1.8 1.8-2-2zM332.1 163.7l2.1 2.2-2.4 1.7-1.8-1.7zM323.8 165.8l-2.2 1.9-1.8-1.8 2-2.1zM289 165.7l2.1-1.9 1.5 2.2.4-.3-2.2 1.9zM280.5 167.8l-1.9-1.8 2.3-2 1.6 2zM270.3 167.8l-1.9-2 2-1.9 1.9 2.1zM251.7 166.1l-2 1.7-1.7-2.2 1.7-1.7zM239.6 163.9c.6.6 1.3 1.2 2 2l-2.2 1.9-1.6-2zM229 167.6l-1.8-1.7 2-2.1 1.9 2.2zM325 160.6l2.1-1.8 1.7 1.9-2 1.9zM186.1 165.7l2.1-1.8 1.9 2-2 1.9zM179.7 165.8l-1.8 2.1-2-2.1 2-1.9zM167.4 167.6l-1.9-1.9 2.1-1.7 1.7 1.9zM287.6 160.7l-1.9 1.9-1.7-2.1 2-1.5zM146.9 163.7l2.1 2.1-2.2 1.9a21.8 21.8 0 0 1-1.7-2.1zM136.6 163.7l2.2 2.1-2.3 1.9-1.8-1.9zM128.4 165.9l-2.1 2-1.9-2.1 2-2zM277.5 160.6l-2 2.2-1.9-2.2 2-1.9zM246.6 160.6l-2 2.1-2-2.1 2.2-1.9zM95.7 163.9l1.7 1.9-2 1.9-1.8-1.8zM85.2 167.6l-2.2-1.7 2.2-2.2L87 166a14.5 14.5 0 0 1-1.8 1.6zM74.9 163.8l1.9 2.2-1.8 1.7-2.1-2zM64.5 167.6l-1.9-1.6 2.1-2.2 1.6 2.2zM56.3 166l-2 1.8-1.8-2.2 1.7-1.7c.7.7 1.4 1.3 2.1 2.1zM42.1 165.8l1.9-2.1 2.1 2.2-2.2 1.9zM33.6 167.7l-1.8-1.8 2-2.1 2 2.2zM21.4 165.8l2-2.1 2.2 2.2-2.3 1.8zM200.3 155.6l-1.9 1.9-1.8-2 2-1.9zM210.5 155.6l-1.9 1.9-1.9-1.9 2.1-1.8zM217.2 155.3l1.7-1.5 2 1.9-2 1.7zM229.2 153.5l2 2-2.3 1.8-1.5-1.9zM4.7 155.6l-1.8 2-2-2 2.1-1.8zM308.3 150.5l-2 1.8a23.9 23.9 0 0 0-1.6-2.2l1.8-1.4zM247.8 155.6l1.9-2.1 1.8 2.3-1.6 1.7zM258.2 155.4l1.8-1.7 2 2-1.9 1.8zM268.5 155.3l1.8-1.8 2 2.1-1.9 1.9zM280.7 153.8l1.9 1.7-2 1.9-1.8-1.9zM289 155.5l2.1-1.9 1.8 2-2.1 1.9zM299.4 155.3l1.7-1.7 1.9 2.1-1.8 1.8a21.3 21.3 0 0 1-1.8-2.2zM311.6 153.8l1.8 1.9-2 1.8-1.8-1.9zM319.8 155.6l2-2.2 2 2.1-2.1 2zM332.3 153.7l1.8 1.9-2.2 1.9-1.7-1.9zM59.5 158.9l2 1.7-2.2 2-1.9-1.9zM71.9 160.7l-2.1 1.9-1.9-2 1.9-1.8zM150.1 160.5l1.9-1.9 2 2.2-2 1.6zM162.5 162.7c-.8-.8-1.5-1.3-2.3-2l2.3-1.9 1.9 1.8zM253 160.7l1.9-2.1 1.9 2-2.1 1.9zM265.3 162.7l-2.1-2 2.1-2 2 1.9zM314.9 150.3l1.8-1.7 2 1.8-2 1.8zM8.1 158.7l2 2-2.1 1.9-1.7-2.1zM18.3 162.7c-.6-.7-1.2-1.3-1.8-2.1l2.1-1.7 1.8 1.7zM100.8 158.8l1.7 1.8-2 1.9-1.7-1.9zM119.4 160.7l1.7-2 2 2.1-1.8 1.8zM203.5 158.7l2.1 2-2.1 1.9-1.8-2.1zM213.8 162.6l-2-2 2-1.9 2 1.9zM296.2 158.7l1.7 1.9-1.9 2-1.6-2.2zM308.4 160.8l-1.9 1.8-2-2.1 1.9-1.8zM316.5 162.4l-1.9-1.7 2.1-2 2 1.9zM224.3 148.6l1.7 1.8-2 1.7-1.6-1.8zM213.8 148.7l2 1.7-2 1.9-1.6-2.2zM203.5 148.7l2 1.7-2 1.9-1.6-2.2zM193.4 148.6l1.7 1.7-2 1.9-1.5-2.1zM123 150.6l-1.7 1.7-1.7-2.1 1.7-1.6zM112.7 150.5l-1.8 1.9-1.8-2.1 1.9-1.7zM98.7 150.3l2-1.7 1.8 1.9-1.9 1.7zM18.3 152.2l-2-1.8 2.1-1.9 1.7 2.2zM10 150.4l-1.9 1.9-1.8-2.1a20.3 20.3 0 0 0 1.8-1.5zM112.8 160.8l-1.7 1.8c-.7-.7-1.4-1.3-2-2l1.9-2zM13.4 153.8l1.6 1.8-1.9 1.9-1.9-1.9zM32 155.3l1.8-1.5 1.8 1.8-1.9 1.8zM54.3 157.5l-1.9-1.9 2.1-1.8 1.7 1.9zM64.7 153.7l1.9 1.9-2.2 1.7-1.7-1.6zM76.8 155.7l-1.8 1.8-1.9-2.2 1.8-1.8zM83.2 155.5l2-2 1.9 2.2-2.1 1.7zM95.7 153.7l1.7 1.9-2.1 1.8-1.8-1.8zM105.9 153.7l1.7 1.9-1.9 1.8-1.7-1.9zM116.2 153.7l1.9 1.8-2.1 1.9-1.8-1.9zM25.4 155.6l-2 1.8-1.8-2 1.9-1.7zM126.1 157.2l-1.6-1.8 1.9-1.8 1.9 2zM138.6 155.6l-1.9 2-1.9-2.1 2-1.8zM146.8 157.4l-1.9-1.9 2-1.8 1.8 2zM294.1 150.4l2-1.9 1.8 2-1.7 1.8zM157.1 157.4l-2-1.9 2.1-1.8 1.9 1.9zM167.4 157.4l-1.9-1.9 1.9-1.9 2 2zM187.7 157.3l-1.5-1.7 2.1-1.8 1.6 1.9zM311.6 143.4l1.8 1.8-1.9 1.8c-.5-.6-1.1-1.2-1.6-1.9zM106 143.5l1.7 1.7-2.2 1.8-1.4-1.9zM208.7 147.1l-1.8-1.9 1.8-1.7 1.7 2zM13.2 147.2l-1.9-1.9 2-1.8 1.6 2zM239.5 153.5l2 2.1-2.2 1.7-1.8-1.7zM179.4 155.7l-1.7 1.7-1.6-1.9 1.8-1.7zM45.9 155.7l-1.8 1.8-1.9-2 1.9-1.7zM326.9 152.4l-1.9-2 2.1-1.7 1.7 1.8zM287.7 150.3l-2 1.9-1.7-1.9 2.1-1.5zM273.7 150.3l1.8-1.9 1.7 1.9-1.9 1.8zM265.2 152.2l-1.9-1.9 2-1.7 1.7 1.9zM246.5 150.3l-1.8 2.1-2-2 1.9-2c.7.7 1.4 1.3 1.9 1.9zM232.5 150.3l2-1.8 1.7 1.9-1.9 1.7zM184.9 150.3l-2.1 2-1.8-1.9 2.2-1.6zM172.6 152.2l-1.9-1.9 2-1.7 1.7 1.9zM152 152.2l-1.9-1.9 2-1.8 1.8 2zM141.7 148.4l2 2.1-1.9 1.8-1.9-2zM131.4 152.3l-1.9-1.9 2.1-1.7 1.7 1.7zM88.4 150.4l2-2 1.7 2.1-1.8 1.9zM78.3 150.1l1.7-1.6 1.9 2-1.8 1.7zM70 148.6l1.7 1.7-2.1 1.9-1.6-2zM47.2 150.4l2-2 2 2-2 2zM38.9 148.6l2 1.7-2.2 1.7-1.7-1.7zM26.7 150.4l2-1.9 1.7 2-1.8 1.9zM320.2 145.2l1.5-1.9 2.1 1.9-2 1.9zM303.1 145.4l-1.7 1.7-1.9-2 1.8-1.8zM290.7 147l-1.6-1.7 2.1-1.7 1.5 1.6zM231.2 145.2l-2.1 1.9-1.4-2.1 1.6-1.7zM217.2 145.2l1.7-1.9 1.9 1.9-2 1.8zM196.7 145l1.8-1.6 1.6 1.9-1.8 1.6zM187.9 147l-1.7-1.7 2-1.8 1.5 1.9zM124.8 144.9l1.6-1.6 1.7 2.2a17.7 17.7 0 0 0-1.8 1.5zM116.1 143.6l1.9 1.6-2 1.9-1.6-2zM95.6 143.4l1.7 1.9-2 1.7-1.7-1.7zM25.1 145.4l-1.8 1.7-1.7-1.9 2-1.7zM4.6 145.3 3 147.1l-1.7-1.9 1.7-1.8zM256.7 140.1l-1.8 1.9-1.8-2a26.1 26.1 0 0 0 2-1.7zM244.7 142l-2-1.9 2-1.6 1.7 1.8zM253 150.4l2-1.8 1.7 2-1.8 1.6zM164.1 150.6l-1.7 1.6-1.8-1.9 1.8-1.7zM80.2 138.3l1.7 1.9-1.9 1.6-1.7-1.8zM69.8 142c-.7-.6-1.2-1.2-1.9-1.9l1.8-1.7 1.9 1.8zM273.8 139.9l1.8-1.6 1.7 1.8-1.8 1.6zM265.2 138.4l1.9 1.7-1.9 1.9-1.8-2zM59.6 138.4l1.8 1.7-1.9 1.9-1.8-2zM49.2 138.2l1.9 2-1.9 1.6-1.7-1.9zM234.3 138.2l1.8 1.9-1.9 1.8-1.6-1.9zM37.2 139.9l1.7-1.7 1.7 1.9-1.8 1.6zM61.4 150.4l-1.8 1.9-1.8-2.1 1.8-1.7zM181.2 140.1l1.7-1.8 1.9 1.8-2.1 1.7zM170.9 140l1.6-1.7 1.9 1.9c-.5.6-1.1 1.1-1.8 1.8zM162.3 141.8l-1.8-1.7 1.8-1.9 1.9 1.9zM152.1 142l-2-1.9 2-1.6 1.7 1.8zM139.9 140l1.9-1.7 1.6 1.9-1.8 1.6zM259.9 136.7l-1.5-1.7 1.8-1.8 1.6 1.7zM270.2 136.6l-1.7-1.7 2-1.6 1.5 1.9zM328.6 140.1l-1.5 1.9-2.1-1.9 2-1.8zM314.8 140l1.9-1.9 1.6 2.3-1.7 1.3zM304.6 139.9l1.7-1.6 1.8 1.8a14.9 14.9 0 0 1-1.8 1.7zM298 140.2l-2 1.6-1.8-1.7 1.9-1.7zM287.6 140.3l-1.8 1.7-1.7-2.1 1.7-1.7zM282.3 135.1l-1.7 1.7-1.7-2 1.9-1.5zM222.3 140.2c.7-.8 1.2-1.3 1.8-2.1l1.7 2.1-1.6 1.8zM215.3 140.3l-1.5 1.5-1.7-1.8 2-1.4zM203.4 141.9l-1.7-1.8 1.9-1.7 1.7 1.8zM195.2 140.2l-2.1 1.6-1.8-1.7 1.8-1.8zM131.8 138.4l1.5 1.6-1.8 2-1.8-2zM121.3 138.3l1.6 2-1.7 1.6c-.6-.6-1.1-1.2-1.9-1.9zM111 138.4l1.7 1.7-1.8 1.8-1.7-2zM98.9 139.9l1.7-1.6 1.6 2-1.9 1.4zM90.3 141.9l-1.9-1.8 1.9-1.8 1.8 1.8zM28.9 138.5l1.6 1.6-1.8 1.9-2.1-1.9zM18.4 138.3l1.8 1.8-1.8 1.8-1.9-1.9zM145.3 134.7l1.6-1.5 1.5 1.9-1.6 1.5zM156.9 136.5l-1.5-1.6 2-1.5 1.4 1.7zM331.9 136.6l-1.6-1.6 2-1.6 1.4 1.6zM169.1 135.2l-1.5 1.6-1.6-2 1.6-1.5zM179.5 135l-1.8 1.7-1.6-1.8 1.9-1.6zM186.4 134.8l1.7-1.7 1.7 1.9-1.8 1.6zM230.9 135.1l-1.8 1.6-1.6-1.8 1.9-1.6zM241.2 135l-1.7 1.9-1.7-2 1.9-1.6zM248.2 134.8l1.6-1.6 1.5 2-1.6 1.4zM32.3 134.7l1.4-1.6 1.8 1.8-1.9 1.6zM45.8 135l-1.7 1.8-1.5-2.1 1.5-1.3zM54.1 136.4l-1.5-1.5 1.7-1.6 1.6 1.8zM66.2 135l-1.7 1.7-1.6-1.8 1.9-1.5zM332.3 143.5l1.7 1.7-2.2 1.8-1.4-1.9zM278.8 145.1l1.9-1.7 1.5 2.1-1.6 1.5zM270.1 146.8l-1.6-1.5 2.1-1.8 1.5 1.9zM261.9 145.2l-1.7 1.9-1.8-1.9 1.7-1.6zM251.6 145.4l-1.7 1.7-1.8-1.9 1.8-1.7zM239.7 143.5l1.7 1.8-2.1 1.6-1.4-1.9zM76.6 135.1l-1.7 1.5-1.6-1.7 1.7-1.6zM177.8 147l-1.9-1.7 1.9-1.8 1.7 1.8zM165.7 145l1.8-1.7 1.7 2.1-1.8 1.5zM159 145.3l-1.8 1.8-1.8-1.8a15.4 15.4 0 0 1 1.9-1.7zM147 147.1l-1.9-1.8 1.9-1.8 1.8 1.7zM138.5 145.4l-1.9 1.8-1.6-2.2 1.6-1.6zM85.1 147.1l-1.8-1.8 1.9-2 1.5 2.2zM76.5 145.5l-1.7 1.5-1.5-2 1.6-1.7zM64.7 147.2l-2-1.9 1.8-2 1.9 1.8zM54.3 147l-1.8-1.7 1.9-1.8 1.7 1.8zM42.3 145.2l1.8-1.8 1.8 1.8L44 147zM33.6 147l-1.6-1.8 1.7-1.7 1.9 1.8zM83.6 134.9l1.7-1.7 1.6 1.8-1.8 1.6zM136.9 133.6l1.5 1.5-1.9 1.6-1.5-1.9zM265.4 128.2l1.7 1.6-2 1.8-1.4-2zM162.4 128l1.7 1.8-1.9 1.6-1.4-1.7zM69.6 131.5l-1.6-1.7 1.8-1.8 1.6 1.9zM59.3 131.5l-1.6-1.7 2-1.7 1.6 1.8zM254.7 131.4l-1.4-1.7 1.8-1.4 1.3 1.8zM152.1 127.9l1.8 1.9-1.8 1.9-1.9-1.9zM9.9 140.2 8 141.9l-1.9-1.8 1.9-1.7zM73.5 124.5l1.4-1.7 1.7 1.9-1.8 1.5zM145.3 124.5l1.6-1.5 1.6 1.8-1.6 1.6zM270.3 126.4l-1.8-1.8 2-1.5 1.3 1.7zM171 129.8l1.6-1.7 1.7 1.9-1.8 1.5zM49.2 128l1.8 1.8-2 1.7-1.6-1.6zM181.5 129.6l1.4-1.7 1.8 2-1.8 1.5zM234.5 131.5l-2-1.6 1.9-1.9 1.7 1.8zM244.6 131.6l-1.6-1.9 1.7-1.7 1.7 1.9zM291.2 133.4l1.5 1.6-1.9 1.6-1.6-1.7zM126 136.5l-1.5-1.6 1.9-1.6 1.6 1.9zM275.4 131.4l-1.6-1.7 1.6-1.7 1.8 2zM39.1 128.3l1.3 1.6-1.6 1.7-1.5-1.8zM81.8 129.9l-1.8 1.7-1.7-1.9 1.8-1.7zM140.1 129.7l1.8-1.8c.5.7.9 1.4 1.4 2l-1.6 1.8zM260.1 123l1.8 1.7-1.8 1.6-1.7-1.8zM248.3 124.5l1.6-1.4 1.3 1.7-1.5 1.4zM167.7 123.1l1.4 1.6a20.3 20.3 0 0 0-1.8 1.5l-1.4-1.6zM157 126.2l-1.6-1.5 2-1.6a14.7 14.7 0 0 1 1.3 1.7zM64.7 123l1.7 1.6-1.9 1.6-1.5-1.7zM52.6 124.5l1.7-1.6 1.6 1.9-1.6 1.4zM333.8 124.6l-1.7 1.9-1.8-1.9 2-1.5zM322.2 123.3l1.3 1.4-1.9 1.6-1.7-1.7zM311.7 123l1.5 1.7-1.9 1.3-1.3-1.6zM301.4 123.3l1.6 1.3-1.9 1.8-1.7-1.8zM290.7 126.1l-1.6-1.5 2-1.5a12.9 12.9 0 0 0 1.3 1.8zM280.9 123.1l1.5 1.5-1.7 1.8-1.6-1.9zM241 124.9l-1.4 1.5-1.7-1.9 1.7-1.3zM229.4 123l1.4 1.6-1.8 1.7-1.5-1.7zM217.2 124.5l1.7-1.5 1.7 1.7-1.8 1.5zM210.3 124.6l-1.7 1.7-1.8-1.7 1.8-1.5zM200.2 124.7l-1.9 1.7-1.7-1.8 1.9-1.6zM188.1 123.1l1.8 1.6-1.9 1.4-1.6-1.6zM177.9 123.1l1.4 1.7-1.8 1.4-1.4-1.6zM136.4 126.2l-1.6-1.6 2.2-1.3 1.2 1.4zM126.7 123.3l1.3 1.3-1.9 1.5-1.4-1.7zM115.9 126.1l-1.6-1.4 1.9-1.7 1.6 1.6zM107.4 124.8l-1.7 1.5-1.7-1.7 1.8-1.5zM97.3 124.7a15.3 15.3 0 0 0-1.8 1.8l-1.8-2 2-1.4zM86.8 124.9l-1.6 1.4-1.7-1.7 1.9-1.5zM44.3 123.1l1.4 1.5-1.8 1.7-1.5-1.7zM33.6 126.2l-1.7-1.5 1.9-1.6 1.5 1.7zM23.2 126.2l-1.6-1.6 2.1-1.3 1.4 1.5zM13.3 123l1.6 1.6-1.9 1.5-1.5-1.5zM1.1 124.7 3 123l1.6 1.6-1.9 1.7zM328.4 119.7l-1.6 1.4-1.3-1.7 1.5-1.4zM318.2 119.7l-1.6 1.4-1.4-1.9 1.6-1.4zM307.9 119.8l-1.6 1.5-1.4-1.8 1.6-1.4zM297.6 119.7l-1.6 1.5a11.9 11.9 0 0 0-1.5-1.8l1.6-1.6zM224.1 121l-1.7-1.4 1.6-1.8 1.6 1.9zM203.4 121.2l-1.6-1.7 1.8-1.5 1.4 1.8zM193.2 117.7l1.6 1.9-1.8 1.5-1.3-1.8zM121.3 117.8l1.6 1.7-1.9 1.6-1.5-1.7zM112.5 119.7l-1.6 1.6-1.6-1.9 1.7-1.4zM100.5 121.2l-1.6-1.7 1.8-1.7 1.4 1.8zM90.3 117.7l1.7 1.9-1.8 1.6-1.4-1.8zM27.2 119.3a20.6 20.6 0 0 0 1.5-1.5l1.6 1.9-1.8 1.3zM18.2 121.1l-1.6-1.5c.6-.6 1.2-1.1 1.8-1.8l1.6 1.8zM6.4 119.5l1.7-1.7 1.4 1.9-1.5 1.6zM322 133.4l1.6 1.5-1.8 1.6-1.7-1.6zM309.7 134.9l1.8-1.8 1.8 1.8-1.8 1.9zM301.5 133.5l1.6 1.4c-.8.6-1.3 1.2-2 1.8l-1.7-1.8zM212.2 119.4l1.7-1.6 1.4 1.8-1.8 1.3zM220.6 135l-1.6 1.7-1.9-1.7 2-1.7zM208.7 136.8l-1.9-1.8 1.9-1.9 1.7 1.9zM196.7 134.8l1.7-1.6 1.8 1.7-1.9 1.6zM116.3 133.3l1.5 1.7-1.6 1.7-1.8-1.8zM104.1 134.7l1.7-1.6 1.7 1.9-1.7 1.8zM93.8 134.9l1.6-1.7 2 1.8-2 1.7zM25.3 135l-1.8 1.7-1.6-1.9 1.6-1.7zM11.4 134.8l1.9-1.5 1.7 1.8-1.9 1.5zM1 135l1.9-1.8 1.7 1.9-1.8 1.2v.4zM327 131.6l-1.9-1.8 1.9-1.8 1.5 2.1zM318.3 129.7l-1.6 2-1.7-1.8 1.7-1.9zM306.1 131.3l-1.2-1.6 1.6-1.5 1.3 1.8zM294.3 129.8l1.7-1.7 1.7 1.9-1.7 1.5zM287.4 130l-1.7 1.7-1.5-2 1.7-1.5zM222.2 129.8l1.9-1.8 1.6 2.1-1.6 1.5zM214 128.2l1.4 1.6-1.7 1.6-1.6-1.5zM201.7 129.8l1.8-1.8 1.5 2.2-1.4 1.4zM191.7 129.7l1.6-1.5 1.6 1.7-1.6 1.7zM133.1 129.9l-1.6 1.8-1.7-2 1.7-1.8zM119.4 129.9l1.8-1.9 1.5 2.2-1.5 1.3zM112.5 129.7l-1.6 2-1.7-1.8 1.9-1.8zM99.2 129.5l1.4-1.4 1.5 1.9-1.7 1.3zM92 130l-1.7 1.7-1.6-2 1.7-1.5zM30.2 129.9l-1.7 1.6-1.5-1.9 1.6-1.7zM16.8 129.7l1.6-1.5L20 130l-1.7 1.6zM7.9 131.5l-1.5-1.7 1.8-1.5 1.3 1.7zM164 119.5l-1.7 1.9-1.4-1.9 1.6-1.5zM208.6 115.9l-1.6-1.6 1.7-1.6 1.6 1.8zM253.2 119.5l1.8-1.6 1.6 1.7-2 1.3zM59.6 118l1.7 1.6-1.9 1.6-1.3-1.8zM167.4 116l-1.5-1.8 1.8-1.3 1.4 1.7zM145.4 114.3l1.6-1.4 1.4 1.6-1.7 1.3zM136.6 116l-1.7-1.7 2-1.4 1.4 1.5zM126.3 112.7l1.8 1.6-1.8 1.6-1.5-1.6zM115.9 116l-1.6-1.6 1.8-1.7 1.6 1.7zM105.7 115.9l-1.7-1.6 2-1.4 1.4 1.6zM97.1 114.2l-1.5 1.8-1.7-1.6 1.5-1.7zM323.5 114.4l-1.8 1.6-1.5-1.7a20.3 20.3 0 0 0 1.8-1.5zM311.6 116l-1.8-1.5 1.8-1.6 1.5 1.4zM86.8 114.5l-1.6 1.5-1.6-1.9 1.8-1.3zM76.4 114.6 75 116l-1.6-1.7 1.6-1.4zM64.7 113l1.5 1.5-1.7 1.4-1.4-1.7zM52.6 114.4l1.9-1.6 1.2 1.8-1.5 1.4zM44 116.1l-1.6-1.8 1.8-1.3 1.4 1.6zM33.7 116l-1.6-1.6 1.7-1.6 1.7 1.6-2.1 1.1zM23.5 112.7l1.5 1.8-1.6 1.5-1.6-1.6zM11.7 114.3l1.4-1.6 1.8 1.7-1.7 1.7zM181.5 109.2l1.4-1.7 1.6 1.9-1.9 1.2zM2.7 115.9l-1.5-1.6 1.9-1.4 1.2 1.6zM301.5 112.9l1.4 1.6-1.8 1.1-1.3-1.3zM290.9 112.6l1.5 1.8-1.6 1.4-1.5-1.4zM280.7 112.7l1.5 1.6-1.6 1.5-1.5-1.5zM326.7 110.6l-1.2-1.5 1.7-1.1 1.1 1.4zM184.6 119.6l-1.7 1.8-1.4-2 1.4-1.6zM286 107.8l1.5 1.4-1.8 1.5-1.3-1.6zM275.7 107.7l1.5 1.6-1.9 1.5-1.2-1.6zM268.9 114.3l1.5-1.7 1.5 1.8-1.5 1.6zM248.2 114.3l1.7-1.5 1.3 1.9-1.4 1.4zM246.1 109.3l-1.3 1.5-1.7-1.7 1.7-1.4zM232.8 109.3l1.5-1.8 1.5 1.9-1.6 1.4zM240.9 114.7l-1.4 1.4-1.7-1.8 1.9-1.3zM171 109.3l1.6-1.7 1.4 1.9-1.6 1.1zM227.8 114.4c.5-.6 1-1 1.5-1.7l1.6 1.7-1.7 1.6zM218.9 116l-1.7-1.6 1.8-1.7 1.6 1.7zM198.3 112.7l1.5 1.7-1.5 1.4-1.6-1.3zM143.2 109.4l-1.4 1.5-1.7-1.6 1.7-1.8zM129.8 109.2c.6-.6 1.1-1 1.7-1.7l1.4 1.8-1.6 1.5zM81.3 109.5l-1.4 1.3-1.5-1.7 1.8-1.4zM189.6 114.5 188 116l-1.6-1.6 1.7-1.8zM38.6 110.6l-1.4-1.4 1.8-1.4 1.3 1.6zM90.5 107.7l1.5 1.6-1.8 1.4-1.3-1.5zM287.4 119.7l-1.6 1.6-1.6-1.8 1.8-1.3zM274 119.5c.5-.6 1-1.1 1.5-1.8l1.7 1.9-1.8 1.5zM263.7 119.3l1.5-1.5 1.7 1.8-1.8 1.6c-.4-.6-.9-1.1-1.4-1.9zM244.9 118l1.5 1.5-1.9 1.7-1.3-1.8zM236 119.7l-1.6 1.5-1.8-1.7 1.9-1.6zM176.2 114.2l1.6-1.5 1.6 1.7-1.8 1.3zM172.5 121l-1.4-1.5 1.7-1.5 1.5 1.5zM152.1 117.9l1.8 1.7-1.9 1.3-1.4-1.6zM140.1 119.4l1.7-1.5 1.6 1.7-1.6 1.7zM129.8 119.6l1.7-1.8 1.8 1.8-2 1.4zM80.2 118l1.6 1.5-1.8 1.8-1.5-2zM71.3 119.6l-1.5 1.7-1.8-1.8 1.9-1.6zM50.8 119.7l-1.7 1.6-1.5-1.8 1.8-1.4zM38.9 121.3l-1.5-1.9 1.7-1.3 1.5 1.5zM330.4 114.3l1.8-1.6 1.3 1.9-1.6 1.2zM285.8 179l2 2.1h-4zM47.3 181.1l1.9-1.9 1.7 1.9zM39.1 179.3l2 1.8H37zM28.8 179.4l1.7 1.7h-3.9zM139.6 181.1l2.2-2.1 1.8 2.1zM162.6 179.2l1.9 1.9h-3.9zM170.7 181.1l2-2 1.8 2zM184.8 181.1h-3.7l1.9-1.9zM232.2 181.1l2.2-2.1 1.6 2.1zM59.8 179.3l1.8 1.8h-4zM328.8 181.2h-4l2.4-1.8zM92.3 181.1h-3.8l2-1.9zM133.6 181.2h-4.3l2.4-2zM246.4 181.2h-3.7l2.2-1.9a17.3 17.3 0 0 0 1.5 1.9zM256.9 181.1h-3.8l2-1.8zM263.4 181.1l1.9-2 1.8 2zM275.6 179.2l1.8 1.9h-3.7c.6-.6 1.2-1.3 1.9-1.9zM150.2 181.1l1.9-2 2 2zM78 181.1l2.1-2 1.8 2zM71.7 181.1H68l1.9-1.9zM301.2 105.8l-1.5-1.8 1.7-1.4 1.2 1.6zM199.7 104.2l-1.4 1.6-1.4-1.9 1.6-1zM208.7 102.7l1.6 1.4-1.7 1.7-1.4-1.8zM220.5 104.2l-1.7 1.5-1.3-1.8 1.5-1.3zM266.9 109.2l-1.6 1.7-1.5-1.8 1.4-1.4a12.9 12.9 0 0 0 1.7 1.5zM256.6 109.2l-1.7 1.6-1.4-1.8 1.5-1.3zM22 103.9l1.6-1.4 1.4 1.6-1.7 1.3zM230.9 104.1l-1.8 1.6-1.2-1.8 1.4-1.3zM282.2 104.1l-1.5 1.6-1.5-1.8 1.8-1.1zM162.5 107.7l1.4 1.6-1.6 1.5-1.3-1.9zM153.6 109.4l-1.6 1.5-1.5-1.8 1.7-1.3zM69.8 107.8l1.5 1.6-1.7 1.3-1.4-1.5zM292.5 104.2l-1.6 1.5-1.4-1.8 1.5-1.3zM57.9 109.1l1.7-1.5 1.5 1.7-1.8 1.4zM47.6 109.2a13.3 13.3 0 0 0 1.6-1.7l1.5 1.9-1.7 1.4zM311.3 105.6l-1.4-1.5 1.6-1.4 1.4 1.5zM321.8 105.7l-1.5-1.8 1.5-1.2 1.5 1.4zM93.9 104.1l1.6-1.6L97 104l-1.5 1.6zM331.9 105.6l-1.4-1.6 1.6-1.3 1.6 1.5zM85.5 102.8l1.3 1.4-1.6 1.4-1.3-1.8zM107.2 104.2l-1.5 1.3-1.3-1.7 1.3-1.1zM115.9 105.6l-1.2-1.5 1.6-1.4 1.4 1.4zM126.2 102.7l1.8 1.4-1.7 1.6-1.5-1.8zM137.9 104.5l-1.4 1.2a14.5 14.5 0 0 0-1.2-1.9l1.5-1zM186.5 104.1l1.6-1.6 1.5 1.8-1.6 1.2zM13.2 105.8l-1.4-1.7 1.6-1.4 1.4 1.4zM1.3 104.1l1.6-1.6 1.5 1.6-1.4 1.6zM33.7 102.6l1.7 1.4-1.6 1.7-1.5-1.8zM7.9 110.6l-1.6-1.3 1.8-1.8 1.5 1.9zM18.3 110.9l-1.6-1.7 1.9-1.4 1.1 1.6zM28.7 107.6l1.6 1.7-1.7 1.5-1.4-1.6zM100.8 107.7l1.5 1.6-1.8 1.5-1.5-1.6zM112.6 109.3l-1.9 1.4-1.1-1.7 1.3-1.4zM121.4 107.8l1.5 1.5-1.8 1.5-1.4-1.7zM191.8 109.1l1.3-1.5 1.8 1.7-1.9 1.2zM203.7 107.8l1.5 1.4-1.7 1.6-1.4-1.7zM212.3 109.1l1.5-1.6 1.6 1.9-1.8 1.2zM222.9 108.8l1.2-1.1 1.6 1.5-1.7 1.7zM294.7 109.1l1.5-1.3 1.2 1.7-1.6 1zM304.8 109.2l1.5-1.6 1.7 1.6-1.9 1.4zM316.6 110.8l-1.5-1.6 1.6-1.7 1.4 2zM157.3 116l-1.8-1.6 1.9-1.5 1.4 1.4zM260.1 116l-1.6-1.8 1.7-1.4 1.2 1.8zM8.1 90.1l-1.6-1.4 1.7-1.4 1.2 1.4zM109.4 88.7l1.6-1.6 1.2 1.8-1.5.9zM202.2 88.4l1.3-1.2 1.3 1.5-1.4 1.5zM213.6 89.9l-1.2-1.4 1.5-1.2 1.5 1.4zM307.9 88.7l-1.6 1.5-1.1-1.9 1.2-1zM23.5 95.3l-1.6-1.4 1.6-1.7 1.4 1.8zM208.7 92.4l1.6 1.4-1.7 1.4-1.4-1.6zM6.5 98.9 8 97.5 9.6 99l-1.7 1.3zM19.9 99l-1.7 1.5-1.1-1.9 1.5-1zM27.2 98.8l1.5-1.5 1.2 1.9-1.3 1.3zM91.8 98.9l-1.5 1.7-1.4-1.8 1.6-1zM102.1 98.9l-1.6 1.6-1.3-1.6 1.5-1.2zM111.3 97.9l1.2 1.1-1.7 1.4-1-1.7zM121.4 97.5l1.4 1.6-1.9 1.2-1.1-1.6zM194.6 99.1l-1.4 1.5-1.4-1.8 1.7-1.2zM203.3 100.3 202 99l1.6-1.5 1.4 1.6zM215.3 99l-1.6 1.6-1.5-1.7 1.9-1.2zM225.5 98.9l-1.5 1.6-1.5-1.7 1.8-1.3zM297.3 99.2l-1.2 1.4-1.4-1.7 1.6-1.4zM307.6 99.2l-1.2 1.3-1.5-1.5 1.5-1.6zM315.3 98.9l1.4-1.6 1.4 1.8-1.7 1zM327.2 97.6l1.3 1.5-1.6 1.2-1.3-1.4zM52.7 104l1.7-1.5 1.4 1.8-1.4 1.3zM66.3 104.1l-1.7 1.7-1.5-1.7 1.7-1.5zM148.6 104.1l-1.8 1.5-1.2-1.7 1.4-1.3zM158.7 104.2l-1.6 1.3-1.5-1.4 1.6-1.6zM166 103.9l1.7-1.3 1.2 1.5-1.7 1.4zM249.7 102.6l1.7 1.4-1.8 1.6a13.3 13.3 0 0 0-1.2-1.6zM260.1 105.7l-1.8-1.6 1.9-1.4 1.4 1.3zM271.7 104.1l-1.3 1.7-1.6-1.8 1.6-1.5zM217.5 93.7l1.3-1.4 1.6 1.6-1.5 1.5zM115.9 95.2l-1.3-1.4 1.6-1.4 1.5 1.5zM104.4 93.6l1.4-1.4 1.6 1.7-1.8 1.4zM198.2 95.3l-1.4-1.6 1.7-1.3 1.4 1.4zM313.1 93.8l-1.6 1.4-1.5-1.4 1.7-1.4zM301.4 95.1l-1.8-1.3 1.7-1.5a9.3 9.3 0 0 1 1.3 1.5zM11.7 93.7l1.4-1.4 1.5 1.6-1.6 1.4zM4.4 93.7l-1.6 1.8-1.2-1.8 1.3-1.4zM211.8 181.1l2.1-2 1.9 2zM304.3 181.1a20.8 20.8 0 0 0 2.1-2.1l1.8 2.1zM298.3 181.2H294l1.9-2zM224.1 179l2.1 2.1h-4.1zM201.5 181.1l2.1-1.9 2.1 1.9zM195.4 181.2h-4.1l2.1-1.9zM119.2 181.1l2.1-1.9 1.6 1.9zM113 181.2h-4l2.2-2zM98.8 181.1l1.9-2.1 2 2.1zM20.2 181.1h-3.7l1.9-1.9zM6.1 181.1l2.1-1.9 2 1.9zM316.8 179.3l1.9 1.8h-4zM85.3 95.4l-1.7-1.7 1.7-1.4 1.3 1.3zM35.2 93.9l-1.5 1.3-1.4-1.3 1.6-1.4zM239.6 102.5l1.5 1.5-1.6 1.6-1.6-1.5zM275.5 97.6 277 99l-1.7 1.3-1.1-1.4zM285.9 97.6l1.3 1.4-1.4 1.5-1.5-1.7zM172.9 97.6l1.4 1.4-1.8 1.3-1.2-1.5zM38.8 100.3 37.4 99l1.7-1.4 1.4 1.4zM141.9 97.5l1.4 1.6-1.8 1.2-1.4-1.4zM234.2 100.3l-1.4-1.4 1.8-1.3 1.3 1.4zM49.4 97.5l1.4 1.5-1.7 1.4-1.4-1.6zM332.1 92.4l1.5 1.5-1.7 1.4-1.1-1.7zM321.8 92.4l1.4 1.4-1.5 1.4-1.2-1.6zM292.3 93.9l-1.3 1.5-1.4-1.7 1.4-1.5zM230.7 93.8l-1.4 1.5-1.6-1.5 1.8-1.3zM76.2 104.2l-1.3 1.6-1.4-2 1.5-1.2zM188 92.4l1.5 1.3-1.4 1.7a13 13 0 0 1-1.5-1.8zM127.8 93.8l-1.6 1.5-1.3-1.5 1.5-1.5zM243.2 98.7l1.6-1.3 1.1 1.8-1.4 1.1zM95.3 95.2l-1.4-1.4 1.6-1.5 1.3 1.5zM266.6 99l-1.4 1.4-1.5-1.6 1.7-1zM177.8 105.7l-1.6-1.6 1.6-1.6 1.5 1.6zM43.9 105.6l-1.3-1.6 1.6-1.2 1.6 1.3zM183.1 97.6l1.3 1.3-1.4 1.6-1.3-1.7zM131.6 97.6l1.3 1.5-1.5 1.1-1.4-1.4zM18.4 87.3l1.4 1.4-1.6 1.4-1.3-1.5zM152 100.3l-1.6-1.4 1.9-1.3 1.4 1.3zM80 97.4l1.6 1.7-1.7 1.2-1.4-1.3zM71.4 98.9l-1.7 1.6-1.5-1.5 1.5-1.7zM70 87.4l1.2 1.3-1.5 1.4-1.5-1.5zM58 88.7l1.5-1.6 1.4 1.7-1.6 1.2zM47.9 88.6l1.2-1.3 1.4 1.6-1.4 1zM38.9 90l-1.5-1.4 1.7-1.3 1.4 1.4zM30 88.8l-1.4 1.4-1.3-1.7 1.4-1.4zM279.4 83.6l1.2-1.6 1.6 1.7-1.7 1a11.3 11.3 0 0 1-1.1-1.1zM270.3 84.8l-1.5-1.3 1.5-1.4 1.5 1.4zM260.1 82.2l1.4 1.2-1.6 1.5-1.1-1.5zM249.7 84.9l-1.3-1.5 1.3-1.3 1.5 1.5zM239.2 84.7l-1.1-1.1 1.5-1.3 1.4 1.2zM176.3 83.5l1.4-1.4 1.6 1.5-1.6 1.2zM166.1 83.5l1.5-1.4 1.2 1.5-1.2 1.4zM155.9 83.5l1.3-1.4 1.5 1.5-1.5 1.4zM146.8 82.1l1.6 1.4-1.5 1.3-1.3-1.2zM138 83.5l-1.3 1.5-1.6-1.5 1.6-1.2zM160.9 78.5l1.5-1.7 1.2 1.8-1.3.8zM74.9 82l1.4 1.6-1.4 1.5-1.1-1.9zM66 83.5l-1.4 1.6-1.3-1.7 1.4-1.2zM55.6 83.6l-1.2 1.3-1.5-1.4 1.6-1.3zM45.4 83.6 44 85l-1.4-1.6 1.5-1.4zM50.4 78.4l-1.1 1.4-1.5-1.3 1.5-1.6zM169 93.8l-1.4 1.5-1.7-1.6 1.7-1.2zM275.5 79.8l-1.4-1.5 1.5-1.4 1.1 1.6a6.4 6.4 0 0 1-1.2 1.3zM265.3 79.7l-1.6-1.3 1.6-1.5 1 1.7zM254.9 79.8l-1.4-1.5 1.5-1.2 1.3 1.2zM244.5 79.7l-1.3-1.4 1.5-1.4 1.4 1.5zM234.1 79.5l-1-1.2 1.3-1.4 1.2 1.7zM181.6 78.4l1.4-1.6 1 1.9-1.2 1zM171.3 78.2l1.4-1.2 1.1 1.5-1.1 1.3zM151.7 79.5l-1-1.1 1.5-1.5 1.2 1.7zM141.8 76.9l1.4 1.4-1.3 1.4-1.4-1.4zM80 79.8l-1.4-1.5 1.6-1.2 1.1 1.4zM69.8 76.9l1.3 1.5-1.4 1.4-1.3-1.4zM59.5 79.8 58 78.3l1.7-1.3 1.2 1.3zM38.8 79.8l-1.3-1.6 1.5-1.1 1.2 1.4zM258.7 73.2l1.3-1.3 1.6 1.4-1.6 1.2zM158.6 73.2l-1.4 1.5-1.4-1.6 1.5-1.1zM253.5 98.8l1.5-1.5 1.1 2-1.2 1.2zM280.7 92.3l1.4 1.4-1.6 1.6-1.3-1.5zM269 93.9l1.4-1.8 1.3 1.9-1.4 1.2zM260.1 92.3l1.4 1.4-1.4 1.7c-.6-.6-.9-1.1-1.5-1.8zM249.6 95.2l-1.4-1.4 1.7-1.4 1.4 1.4zM239.4 95.2l-1.3-1.5 1.4-1.5 1.3 1.9zM176.3 93.9l1.6-1.6 1.3 1.6-1.4 1.4zM157.1 92.3a12.1 12.1 0 0 1 1.6 1.6l-1.6 1.2-1.2-1.1zM148.1 93.9a11 11 0 0 1-1.2 1.6l-1.4-1.9a6.4 6.4 0 0 0 1.5-1.2zM136.6 95.4l-1.5-1.7 1.6-1.2 1.5 1.4zM76.3 93.7l-1.4 1.7-1.5-1.7 1.5-1.4zM63.3 73.1l1.4-1.1 1.3 1.2-1.4 1.5zM64.6 92.3l1.5 1.6-1.5 1.5-1.5-1.7zM53.2 93.7l1.1-1.5 1.5 1.6-1.5 1.6zM45.6 93.9 44 95.4l-1.3-1.7 1.5-1.2zM54.3 71.8l1.5 1.4-1.5 1.5-1.5-1.5zM59.6 100.4 57.9 99l1.8-1.4 1.2 1.4zM326.9 90.1l-1.5-1.4 1.6-1.5 1.5 1.5zM316.6 90.1l-1.5-1.5 1.7-1.2 1.1 1.4zM296.1 89.9l-1.5-1.1 1.5-1.6a21.1 21.1 0 0 0 1.5 1.5zM287.3 88.8l-1.5 1.4-1.5-1.6 1.8-1.2zM275.5 90.1l-1.4-1.4 1.4-1.6 1.3 1.7zM266.7 88.6l-1.5 1.6-1.5-1.5 1.6-1.2zM253.4 88.7l1.5-1.6 1.5 1.6-1.7 1.2zM243.3 88.5l1.4-1.4 1.3 1.6-1.3 1.4zM235.9 88.7l-1.6 1.5-1.3-1.6 1.3-1.4zM222.7 88.6l1.4-1.5 1.5 1.6-1.6 1.5a18.3 18.3 0 0 0-1.3-1.6zM193.1 90l-1.4-1.4 1.6-1.3 1.4 1.4zM182.9 90.2l-1.5-1.4 1.6-1.7 1.2 1.7zM171.2 88.7l1.5-1.5 1.4 1.4-1.5 1.6zM162.4 87.1l1.4 1.6-1.4 1.4-1.5-1.4zM153.5 88.7l-1.4 1.5-1.5-1.6 1.7-1.2a8.1 8.1 0 0 1 1.2 1.3zM142.1 87.4l1 1.3-1.4 1.5-1.3-1.6zM162.4 97.4 164 99l-1.8 1.3-1.2-1.4zM129.9 88.6l1.7-1.4 1.1 1.7-1.2 1.2zM121.2 87.2l1.6 1.5-1.7 1.4-1.3-1.5zM99.2 88.5l1.6-1.2 1.2 1.5-1.4 1.4zM90.4 87.1l1.4 1.6-1.7 1.3-1.2-1.3zM80.2 87.4l1.3 1.4-1.6 1.3-1.4-1.4zM126.3 82.1l1.5 1.5-1.4 1.4-1.4-1.7zM321.7 85l-1.5-1.5 1.7-1.5a17.7 17.7 0 0 0 1.2 1.7zM333.3 83.7l-1.1 1.2-1.5-1.5 1.5-1.2zM198.3 85l-1.3-1.6 1.4-1.4 1.3 1.7zM188 85l-1.2-1.7 1.3-1.2 1.5 1.5zM290.7 84.8l-1.1-1.2 1.6-1.4 1.1 1.5zM97 83.6l-1.5 1.3-1.5-1.4 1.6-1.4zM86.6 83.7l-1.5 1.2-1.2-1.6 1.4-1.2zM32.4 83.4l1.4-1.4 1.2 1.7-1.4 1.2zM23.6 82.1l1.3 1.5-1.5 1.4-1.2-1.7zM218.9 84.7l-1.6-1.2 1.8-1.4 1.1 1.6zM230.7 83.6l-1.7 1.3-1.1-1.4 1.2-1.4zM326.8 69.4a11.8 11.8 0 0 1-1.1-1.5l1.4-1 1.2 1.3zM81.5 68.1l-1.6 1.2-1.3-1.3 1.5-1.2zM68.3 68.1l1.6-1.5.9 1.8-1.3.9zM119.9 78.2l1.3-1.2 1.4 1.3-1.4 1.5zM284.5 68l1.3-1.2 1.4 1.3-1.6 1.2zM275.5 66.7l1.3 1.4-1.2 1.3-1.5-1.4zM284.6 78.1l1.1-1.1 1.4 1.3-1.3 1.5zM246 68.1l-1.3 1.4-1.5-1.5 1.6-1.2zM233 68.1l1.3-1.3 1.4 1.3-1.3 1.3zM47.9 68.1l1.2-1.4 1.4 1.3-1.3 1.4zM37.5 68.1l1.5-1.2 1.2 1.2-1.3 1.3zM224.1 77l1.3 1.6-1.4 1.1-1.4-1.4zM181.6 68.1l1.5-1.3 1.1 1.5-1.3 1.1zM171.3 68.1l1.2-1.4 1.4 1.3-1.1 1.3zM131.4 79.8l-1.4-1.5 1.6-1.2 1.2 1.2zM142.9 68.1l-1.2 1.4-1.3-1.5 1.4-1.2zM328.3 78.3l-1.3 1.5-1.4-1.4 1.4-1.5zM100.5 79.6l-1.3-1.3 1.6-1.1 1.2 1.1zM91.7 78.4l-1.3 1.5-1.4-1.6 1.6-1.2zM27.3 78.5l1.3-1.6 1.4 1.4-1.3 1.5zM18.3 79.8l-1.5-1.5 1.7-1.2 1.3 1.3zM89.2 67.9l1.2-1.1 1.4 1.3-1.5 1.4zM311.5 85l-1.5-1.5 1.6-1.2 1.3 1.1zM302.5 83.7l-1.4 1.3-1.1-1.7 1.3-1.1zM32.5 73l1.2-1.1 1.4 1.2-1.5 1.4zM114.8 83.3l1.3-1.3 1.4 1.6-1.6 1.3zM107.3 83.5l-1.5 1.5-1.5-1.5 1.6-1.3zM193.2 76.9l1.4 1.6-1.5 1.3-1.3-1.5zM131.6 69.4l-1.6-1.3 1.6-1.3 1.2 1.3zM316.6 77l1.5 1.3-1.4 1.5-1.4-1.6zM42.6 73.2 44 72l1.5 1.3-1.6 1.3zM13 84.9l-1.2-1.3 1.4-1.5 1.3 1.5zM2.9 82.2l1.6 1.4-1.8 1.2-1.2-1.5zM333.4 73.2l-1.3 1.5-1.3-1.6 1.3-1.3zM320.6 73l1.2-1.1 1.3 1.3-1.4 1.5a12.6 12.6 0 0 1-1.1-1.7zM291 74.5l-1.5-1.3 1.5-1.3 1.3 1.4zM280.8 72l1.4 1.3-1.7 1.3-1.1-1.5zM270 74.2l-1.1-1a8.9 8.9 0 0 0 1.4-1.3l1.5 1.4zM249.8 71.9l1.4 1.4-1.4 1.3-1.3-1.3zM238.4 72.9l1.1-1.2 1.4 1.6-1.5 1.3zM229.3 71.8l1.2 1.6-1.3 1.3-1.4-1.5zM179 73.4l-1.3 1.2-1.2-1.5 1.3-1.3zM167.5 71.9l1.3 1.3-1.3 1.5-1.3-1.6zM297.5 78.4l-1.4 1.5-1.4-1.5 1.4-1.6zM146.9 71.9l1.4 1.5-1.4 1.1-1.3-1.4zM136.9 72.1l1.1 1.2-1.6 1.2-1-1.4zM127.7 73.3l-1.4 1.3-1.1-1.6 1.3-1zM95.5 71.9l1.4 1.5-1.5 1.1-1-1.4zM85.1 71.9l1.6 1.3-1.5 1.3-1.3-1.2zM74.8 74.6l-1.4-1.3 1.6-1.5 1.2 1.6zM186.7 73.1l1.5-1.2 1.3 1.4-1.6 1.1zM172.6 56.6l1.3 1.1-1.2 1.4-1.4-1.3zM243.3 57.8l1.5-1.2 1.1 1.2-1.2 1.2zM265.2 59.2l-1.2-1.5 1.3-1.2 1 1.4zM275.5 59.2l-1.3-1.5 1.4-1 1.1 1.1zM125.1 62.8l1.3-1.2 1.2 1.5-1.4 1zM292.2 62.9l-1.3 1.4-1.2-1.4 1.2-1.2zM117.3 62.9l-1.3 1.4-1.1-1.5 1.1-1.3zM198.4 61.7l1.3 1.3-1.5 1.2-1.1-1.3zM220.3 63l-1.4 1.3-1.1-1.6 1.1-1.2zM13.2 61.6l1.4 1.4-1.6 1.1-1.1-1.3zM23.5 61.6l1.4 1.4-1.6 1.1-1.1-1.3zM33.7 64.2l-1.2-1.3 1.5-1.1 1.1 1.3zM96.8 63l-1.4 1.2-1.3-1.2 1.4-1.3zM105.8 61.7l1.4 1.3-1.5 1.2-1.1-1.3zM210.1 83.5l-1.5 1.5-1.4-1.5 1.5-1.5zM320.6 62.9l1.3-1.3 1.2 1.4-1.3 1.3zM311.7 72l1.3 1.3-1.5 1.2-1.3-1.2zM299.8 73.2l1.4-1.4 1.4 1.5-1.4 1.2zM59.4 69.5 58.2 68l1.2-1.2 1.4 1.2zM24.8 73.2l-1.4 1.3-1.3-1.3 1.5-1.3zM13 74.5l-1.2-1.3 1.5-1.2 1.2 1.2zM3 71.9l1.3 1.4-1.6 1.2-1.2-1.3zM311.5 64.2l-1.3-1.3 1.3-1.2 1.3 1.2zM265.3 66.8l1.3 1.2-1.5 1.5-1-1.7zM217.7 73.1l1.3-1.2 1.3 1.5-1.6 1zM299.9 62.9l1.6-1.1c.2.3.6.7.9 1.2l-1.1 1.2zM198.2 74.5l-1.2-1.2 1.4-1.5 1.2 1.6zM253.7 67.9l1.2-1.2 1.3 1.4-1.3 1.4zM162.4 66.8l1.4 1.3-1.4 1.3L161 68zM150.7 68l1.4-1.2 1.3 1.4-1.4 1.3zM49.2 56.5l1.3 1.4-1.3 1.1-1.3-1.1zM69.8 59.1l-1.3-1.2 1.3-1.4 1.2 1.3zM114.7 73.2l1.4-1.4 1.3 1.4-1.2 1.4zM106 72l1.2 1.3-1.5 1.2-1.2-1.2zM140.5 57.7l1.4-1.1 1.1 1.3-1.3 1.3zM152.1 59.1l-1.4-1.3 1.4-1.3 1.2 1.3zM2.8 64.1 1.6 63l1.2-1.4L4.3 63zM189.3 62.9l-1.2 1.3-1.3-1.2 1.2-1.3zM229 64.1l-1.1-1.2 1.5-1.3 1 1.6zM208.7 71.9l1.3 1.3-1.5 1.3-1.3-1.3zM73.6 63l1.3-1.5 1.3 1.4-1.3 1.4zM63.3 62.9l1.2-1.3L66 63l-1.6 1.2zM54.2 64.2 53.1 63l1.2-1.3 1.5 1.3zM44 64.3l-1.3-1.4 1.5-1.2 1.1 1.2zM307.5 57.9l-1 1.1-1.4-1.2 1.3-1.4zM255 59l-1.4-1.3 1.4-1.1 1.2 1.2zM213.9 59.1l-1.4-1.2 1.3-1.4 1.2 1.2zM203.6 56.6l1.1 1.2-1.2 1.2-1.3-1.2zM163.7 57.7l-1.2 1.4-1.4-1.3 1.2-1.2zM111 56.4l1 1.4-1 1.2-1.3-1.2zM60.7 57.8 59.5 59l-1.3-1.2 1.2-1.2zM18.4 59.1l-1.3-1.2 1.3-1.4 1.3 1.2zM9 58.1l-1 1-1.2-1.3 1.3-1.4zM270.3 54l-1.1-1.3 1.1-1.3 1.3 1.2zM261.4 52.6l-1.3 1.2-1.2-1.1 1.2-1.3zM251 52.6l-1.1 1.3-1.3-1.2 1.1-1.3zM168.7 52.6l-1.1 1.3-1.3-1.2 1.2-1.3zM157.1 53.7l-1.1-1 1.2-1.2 1.3 1.2zM145.6 52.6l1.4-1.1 1.1 1.1-1.1 1.3zM65.8 52.6l-1.1 1.3-1.3-1.2 1.3-1.3zM55.4 52.8l-1 1.1-1.3-1.2 1.3-1.3zM59.5 46.3l1.2 1.3-1.1 1.1-1.4-1.3zM260.1 41.1l1.1 1.2-1.1 1.2-1.2-1.1zM157.2 41.1l1.1 1.2-1.1 1.2-1.3-1.2zM306.5 79.8l-1.6-1.4 1.5-1.4 1.2 1.4a13.4 13.4 0 0 1-1.1 1.4zM213.8 76.9l1.3 1.5-1.5 1.2-1.1-1.5zM202.1 78.3l1.5-1.2 1.2 1.2-1.3 1.4zM111 76.9l1.2 1.7-1.3 1.2-1.3-1.7zM9.3 78.6l-1.3 1-1.4-1.3L8.2 77zM315.4 68.1l1.3-1.4 1.3 1.5-1.5 1.2zM306.4 66.8l1.3 1.4-1.2 1.2-1.4-1.3zM294.7 68l1.3-1.3 1.4 1.3-1.3 1.3zM224 69.4l-1.2-1.3 1.2-1.3 1.4 1.2zM215.2 68.1l-1.3 1.3-1.4-1.3 1.3-1.4zM203.5 66.7l1.3 1.5-1.3 1.1-1.4-1.3zM193.2 66.8l1.4 1.4-1.5 1.1-1.3-1.3zM119.9 68.1l1.3-1.5 1.2 1.7-1.3 1.1zM110.9 66.8l1.4 1.4-1.5 1.1-1.2-1.2zM99.4 68l1.2-1.3 1.3 1.3-1.3 1.5zM29.9 68.1l-1.4 1.3-1.2-1.3 1.3-1.3zM17 68.1l1.3-1.3 1.3 1.2-1.3 1.4zM9.4 68.2l-1.3 1.2-1.4-1.2 1.4-1.5zM281.9 62.9l-1.2 1.3-1.3-1.2 1.3-1.4zM271.6 62.9l-1.2 1.3-1.3-1.2 1.2-1.3zM260.1 64.3l-1.3-1.3 1.2-1.3 1.3 1.2zM248.4 63l1.3-1.3 1.4 1.2-1.3 1.3zM239.5 64.3l-1.3-1.3 1.2-1.3 1.3 1.2zM208.6 61.7l1.3 1.2-1.2 1.3-1.3-1.3zM179.1 62.9l-1.3 1.4-1.3-1.3 1.3-1.3zM166.1 62.9l1.3-1.2 1.4 1.3-1.3 1.2zM157.5 61.8l1 1.1-1.2 1.3-1.5-1.3zM146.8 64.2l-1.2-1.2 1.3-1.3 1.4 1.3zM136.6 64.3l-1.3-1.4 1.3-1.2 1.3 1.2zM253.7 47.5l1.2-1.2 1.2 1.2-1.1 1.2zM265.3 48.7l-1.3-1.1 1.3-1.4 1.3 1.4zM161.2 47.3l1.3-.9 1.2 1.2-1.5 1.2zM150.9 47.6l1.1-1.3 1.4 1.3-1.4 1.2zM289.7 52.6l1.2-1.1 1.3 1.1-1.2 1.3zM280.6 51.5l1.2 1.1-1.1 1.3-1.3-1.3zM328.1 57.9l-1.2 1.1-1.2-1.2 1.3-1.4zM182.9 56.5l1.3 1.4-1.3 1.1-1.3-1.3zM229.2 51.4l1.2 1.2-1.1 1.2-1.3-1.1zM218.9 53.9l-1.3-1.3 1.3-1.4 1.1 1.5zM276.7 47.5l-1.1 1.2-1.3-1.1 1.2-1.3zM198.1 53.7l-.9-1 1.1-1.3 1.4 1.3zM187.2 52.4l.8-.9 1.3 1.1-1.2 1.3zM177.7 51.3l1.2 1.3-1.1 1.3-1.2-1.2zM238.3 52.7l1.2-1.4 1.1 1.5-1 1.1zM243.4 47.6l1.2-1.3 1.3 1.3-1.3 1.1zM136.7 51.5l1.1 1.2-1.2 1.2-1.1-1.3zM126.3 53.9l-1.2-1.3 1.2-1.2 1.2 1.2zM235.6 47.5l-1.2 1.1-1.2-1 1.1-1.3zM182.9 48.7l-1.3-1.2 1.3-1.3 1.4 1.3zM95.5 53.9l-1.2-1.3 1.1-1.2 1.3 1.2zM83.9 52.7l1.2-1.3 1.3 1.2-1.2 1.3zM74.8 53.8l-1.1-1.2 1.1-1.2 1.4 1.3zM83.9 62.9l1.3-1.2 1.2 1.2-1.2 1.3zM171.4 47.5l1.3-1.3 1.1 1.3-1.1 1.2zM44 53.9l-1.2-1.2 1.2-1.2 1.3 1.1zM34.9 52.6l-1.1 1.3-1.2-1.2 1.1-1.2zM24.7 52.6l-1.2 1.3-1.3-1.2 1.2-1.3zM3 51.3l1.1 1.4-1.3 1.2-1.1-1.2zM287 57.8l-1.1 1.2-1.5-1.3 1.6-1zM249.8 41.1l1.2 1.2-1.1 1.2-1.2-1.1zM235.5 57.9l-1.2 1.2-1.1-1.3 1.2-1.3zM224.1 56.5l1.2 1.3-1.2 1.2-1.2-1.1zM142.9 47.7l-1 1-1.3-1.2 1.2-1.3zM193.2 59.1l-1.3-1.3 1.3-1.2 1.2 1.2zM80.1 48.7l-1.3-1.2 1.2-1.2 1.2 1.1zM69.7 48.8l-1.3-1.3 1.4-1 1.1.9zM315.4 57.9l1.2-1.3 1.4 1.3-1.3 1.1zM47.9 47.5l1.3-1.3 1 1.4-.9 1zM37.6 47.5l1.2-1.2 1.3 1.2-1.1 1.2zM131.5 56.5l1.3 1.2-1.3 1.2-1.2-1.1zM122.4 57.8l-1.2 1.4-1.2-1.3 1.1-1.3zM100.6 59.1l-1.2-1.3 1.2-1.2 1.3 1.2zM90.3 59.1l-1.2-1.3 1.2-1.2 1.3 1.1zM80.9 58.1l-1 1-.9-1.4 1.1-1.2zM38.9 59l-1.2-1.2 1.3-1.4 1.1 1.5zM27.3 57.7l1.2-1.2 1.4 1.3-1.2 1.2zM54.3 43.6l-1.1-1.2 1.1-1.2 1.2 1.1zM64.7 41.1l1 1.3-1.1 1.1-1.1-1.1zM168.7 42.3l-1.2 1.2-1.1-1.1 1.2-1.3zM296.1 56.6a13.6 13.6 0 0 1 1.2 1.2 13.6 13.6 0 0 1-1.2 1.2l-1.3-1.2zM332.1 61.6l1.2 1.3-1.2 1.3-1.1-1.1zM332.1 53.9l-1.2-1.2 1.1-1.2 1.3 1.1zM320.5 52.7l1.4-1.3 1.1 1.2-1.2 1.3zM13.2 41.2l1.1 1.2-1.2 1.2-1-1.2zM4.1 42.4l-1.2 1.1-1.1-1.1 1.1-1.2zM326.8 38.3l-1-1 1.1-1.2 1.3 1.2zM316.7 38.3l-1.1-1 1-1.2 1.2 1zM306.3 38.4l-1-1.3 1.1-1.1 1.1 1.3zM294.9 37.2l1.3-1.2 1 1.3-1.1 1zM284.7 37.3l1-1.2 1.3 1.2-1.2 1zM223 37.2l1-1.1 1.2 1.1-1.1 1.1zM214.9 37.2l-1.1 1.1-1.2-1.1 1.1-1.1zM202.4 37.2l1.2-1.1 1 1.1-1.1 1.1zM193.2 38.3l-1.1-1.1 1.2-1.2.9 1.3zM132.7 37.3l-1.2 1-1.1-1 1-1.1zM121.2 36.1l1.1 1.1-1 1.1-1.2-1zM111 38.3l-1.2-1 1.1-1.1 1.2 1zM100.6 38.4l-1.2-1.2 1.2-1.1 1.2 1.2zM91.5 37.2l-1.2 1.1-1.1-1.1 1.1-1.1zM28.7 36.1l1.1 1.1-1.3 1.2-1-1.2zM18.3 36.1l1.2 1.1-1.3 1.2-1-1.2zM8.1 38.3l-1.1-1 1-1.1 1.2 1zM332.2 33.1l-1.2-1 1.1-1.1 1.1 1zM321.9 30.9l.9 1.2-1 1.2-1.1-1.1zM312.7 32.1l-1.3 1.1-1-1.1 1.2-1.2zM302.4 32.1l-1.1 1.2-1.2-1.1 1.1-1.2zM289.8 32.1l1.1-1.3 1.2 1.2-1.1 1.2zM281.8 32.1l-1.1 1.1-1.1-1.1 1-1.1zM240.5 32.2l-.9 1-1.2-1 1.2-1.4zM229.2 33.2l-1.1-1 1.1-1.2 1.1 1zM219 30.9l.9 1.3-.9 1-1.1-1.1zM209.8 32.1l-1.2 1.1-1-1.1 1.1-1.2zM198.4 33.2l-1.2-1 1.1-1.2 1.1 1zM189.2 32.1l-1.2 1.1-1-1.1 1-1.1zM176.6 32l1.3-1.1 1 1.1-1 1.2zM136.6 31l1.1 1-1 1.1-1.1-1zM126.4 30.9l1.1 1.1-1.1 1.2-1.1-1.1zM85.1 43.6l-1-1.2 1-1.2 1.2 1.1zM115 32.1l1-1.1 1.1 1-1 1.2zM105.8 33.2l-1.2-1 1.1-1.2 1.1 1zM95.5 30.9l1 1.2-1 1.1-1.1-1zM86.3 32.1l-1 1.1-1.2-1.1 1-1.1zM34.9 32.1l-1 1.1-1.2-1.1 1-1.1zM22.4 32.1l1.2-1.2.9 1.2-1.1 1.2zM12.1 32.1l1-1.1 1.2 1-1.1 1.2zM104.6 42.3l1.2-1.2 1 1.4-1 1zM317.9 26.9l-1.2 1.2-1.2-1.2 1.2-1.2zM306.4 28l-1.1-1.1 1-1.1 1.1 1.1zM297.3 27l-1.2.9-1.1-.9 1-1.2zM213.8 28l-1.1-1.1 1-1.1 1.1 1.1zM312.8 52.8l-1.3 1.1-1.1-1.2 1.2-1.3zM302.5 52.7l-1.4 1.2-1-1.3 1.1-1.1zM203.4 28l-1-1 1.1-1.1 1 1zM121.2 28l-1.2-1.1 1.2-.9 1.1.9zM109.8 26.9l1.1-1 1.1 1-1 1.1zM208.6 53.9l-1.2-1.1 1.3-1.4 1.2 1.2zM100.7 25.9l1 .9-1 1.1c-1.3-.6-1.2-1.3 0-2zM18.4 28l-1.1-1.1 1-1.1 1.1 1.1zM9.2 27l-1.1.9-1.2-1 1.1-1zM117.3 52.8l-1.2 1-1.2-1.1 1.1-1.3zM105.8 51.4l1.1 1.3-1.2 1.2-1.2-1.1zM14.3 52.6l-1.1 1.3-1.2-1.2 1.3-1.3zM327.1 46.3l1.1 1.3-1.4.9-1.1-.9zM316.6 48.7l-1.1-1.1 1.1-1.2 1.2 1.1zM306.6 46.5l1 .9-1.2 1.3-1.4-1.3zM296 46.2l1.3 1.2-1.2 1.2-1.2-1.1zM285.8 46.4l1.3 1.1-1.2 1.2-1.3-1.2zM225.3 47.5l-1.2 1.1-1.2-1.1 1.1-1.1zM212.5 47.4l1.3-1 1.2 1.1-1.2 1.1zM204.8 47.6l-1.3 1-1.2-1.1 1.1-1.2zM194.4 47.5l-1.1 1.2-1.2-1.1 1-1.2zM131.6 46.3l1.1 1.1-1.1 1.3-1.4-1.2zM122.4 47.5l-1.1 1.2-1.2-1.2 1-1.1zM109.6 47.4l1.2-1.1 1.4 1.3-1.2 1.1zM100.7 46.5l1.1 1-1.1 1.1-1.3-1.2zM90.3 48.8l-1.2-1.4 1.1-1.1 1.4 1.3zM29.9 47.6l-1.3 1-1.3-1.1 1.4-1.1zM18.3 46.2l1.2 1.3-1.1 1.2-1.3-1.2zM8.2 46.3l1 1.1-1.1 1.3-1.3-1.2zM333.3 42.4l-1.2 1.2-1.2-1.1 1.1-1.3zM323 42.4l-1.3 1.2-1-1.5 1.1-.9zM311.6 41.1l1 1.2-1.2 1.3-.9-1.3zM300 42.3l1.3-1 1 1-1.1 1.3zM290.9 43.6l-1-1.2 1.1-1.3 1.1 1.2zM279.4 42.3l1.2-1 1.2 1-1.2 1.3zM270.4 41.2l1.3 1.2-1.3 1.1-1.2-1.1zM239.4 43.6l-1.1-1.1 1.3-1.4 1.1 1.2zM229.2 43.6l-1.1-1.2 1.2-1.3 1 1.3zM217.8 42.4l1.2-1.2 1.1 1-1.1 1.3zM208.7 41.2l1.1 1.2-1.1 1.1-1.2-1zM199.6 42.4l-1.2 1.1-1.2-1 1.1-1.3zM188 43.6l-1.1-1.1 1.1-1.3 1.2 1.1zM179 42.4l-1.1 1.2-1.2-1.2 1-1.2zM148.1 42.4l-1.2 1.2-1.1-1.2 1.1-1.1zM136.7 41.1l1.1 1.2-1.1 1.2-1.2-1.1zM127.6 42.4l-1.3 1.1-1-1.1 1-1.2zM114.8 42.3l1.3-1 1.1.9-1.1 1.3zM95.5 41.2l1.2 1-1.2 1.3-1.1-1.1zM2.9 33.3l-1.1-1.1 1-1.2L4 32zM73.8 42.2l1.1-1 1.4 1.2-1.6 1.1zM44.1 41.2l1.1 1.1-1.1 1.2-1.2-1.1zM33.8 41.2l1.1 1.2-1.1 1.1-1.2-1.1zM23.5 41.2l1.1 1.1-1 1.2-1.2-1.1zM81.3 37.3l-1.3.9-1-.9 1.2-1.3zM68.5 37.1l1.2-1 1.2 1.1-1.1 1.1zM48 37.2l1.1-1.2 1.2 1.2-1.1 1.1zM38.9 35.9l1 1.4-1 1-1.1-1zM208.6 20.7l1.1 1-1.1 1.2-1-1.1zM276.8 37.3l-1.3.9-1.2-1.1 1.2-1zM234.4 36l1.1 1.1-1.1 1.2-1.2-1.1zM13.1 20.7l1.1 1-1.1 1.2-.9-1.3zM181.7 37.2l1.2-1.1 1.2 1.2-1.3 1.1zM173.9 37.3l-1.2 1-1.2-1 1.2-1.3zM266.4 37.3l-1.2 1-1.1-1 1.1-1.2zM152.1 36l1.2 1.3-1.1 1.1-1.2-1.1zM141.8 36l1.3 1.3-1.6 1-.9-1.2zM193.3 28l-1.1-1.1 1-1 1.2 1.1zM224 25.8l1.2 1.2-1.2.8-1.1-.9zM243.5 37.2l1.2-1 1 1-1 1.1zM85.2 10.5l1.1.9-1 1.2-1.1-1zM40 27.1l-1 .9-1.1-1 1.1-1.2zM28.6 25.9l1.1 1.2-1.1.8-1-.9zM145.9 32l1-.9 1 .9c-.6 1.2-1.2 1.4-2 0zM74.9 31l1.1 1.1-1.1 1.1-1.1-1.1zM55.5 32.1l-1.1 1.2-1.3-1.2 1.2-1.3zM333.2 21.8l-1.1 1.2-1.1-1.1 1.2-1.3zM302.3 21.8l-1.1 1-1.2-1 1.3-1zM292 21.8l-1.1 1-.9-1 .9-1zM280.7 22.9l-1.2-1.2 1-1 1.2 1zM239.6 20.8l.9 1-.9 1c-.3-.3-.7-.4-.7-.7a2.5 2.5 0 0 1 .2-1.2zM230.3 21.8l-1 1-1.1-1 1-1zM219 20.7l1 1-1.1 1.2-1-1zM197.4 21.9c.7-1.2 1.2-1.2 1.9-.1l-1 1.1zM188.1 22.8l-1.1-1 1.1-1.1 1.1 1.2zM176.6 21.8l1.2-.9 1 .8-1 1.1zM136.7 22.8l-1.1-1 1-1 1.2 1zM141.8 25.8l1.2 1.1-1.1 1.1-1.1-1zM127.4 21.8l-1 1-1.1-1 1-1zM116.1 20.7l1 1.1-1.1 1.1-1-1.1zM106.7 21.9l-.9.9-1-.9 1.1-1.3zM96.5 22l-1 .9-1.2-1.2 1.3-1zM137.7 11.6l-1.1 1.1-1-1.1.9-1zM86.1 21.9l-.9.9-1-1 1.1-1.2zM74.9 22.9l-1.1-1 1.1-1.1 1 .9zM44.1 20.7l1 1-1 1.1-1-1zM34.7 21.9l-1 1-1-1c.7-1.2 1.3-1.3 2 0zM235.3 16.8l-1 .9-.9-.9c.7-1.3 1.3-1.2 1.9 0zM224.1 17.7l-1.1-1 1.1-1.2.9 1.2zM23.4 22.9l-.9-1c.3-.4.5-.9.8-.9s.7.4 1.2.6zM192.2 16.6l1-1 1 1-.9 1zM4 21.8 2.9 23l-1-1.1 1-1.1zM181.8 16.6l1.2-.9 1 1-1.2 1.1zM325.8 16.7l1.1-1.2 1.1 1.2-1 1.1zM142.8 16.7l-.9 1-1.1-1 .9-1zM29.5 16.7l-.9 1.1-1-1.1 1.1-1.2zM132.5 16.8l-1.1.9-.9-.9c.7-1.3 1.3-1.2 2 0zM43 32.1l1-1.1 1.1 1.1-1 1.1zM121.1 15.7c1.2.6 1.1 1.2.1 1.8l-1-.8zM333.1 11.5l-1.1 1.1-1-1.2 1.2-1zM296 17.7l-.8-1a7.6 7.6 0 0 1 .8-1.1l1.1 1zM286.8 16.8l-1 .8-1-.9c.3-.3.5-.7.7-.7l1.3.3zM274.4 16.7l1-1.1 1.1 1-1 1zM280.7 12.6l-1.2-1.1 1.3-1.1.7 1.2a4.9 4.9 0 0 0-.8 1zM323 21.8l-1.4 1.1-1-1.1a6.8 6.8 0 0 0 1.2-1.2zM161.2 37.2l1.1-1 1.1 1-1.2 1.3zM81.1 16.8l-1.2.9-1-1.1 1.2-1.1zM91.4 16.8l-1.2.9-1-1.1 1.2-1.1zM255 36l1.1 1.2-1.1 1.1-1.2-1zM312.5 22l-1 .9-.9-1c.6-1.3 1.2-1.2 1.9.1zM327 25.8l.9 1.1-.9 1-1.1-.9zM38.9 15.6l1.1 1.2-1.2 1-.8-1.2zM285.9 25.8 287 27l-1.1 1-1.1-1zM274.4 26.8l1-.9 1.2 1.1-1.2.9zM244.7 25.9l1.1 1.2-1.2.8-1.1-1zM234.4 28l-1.1-1 1-1.1 1.2 1.1zM181.8 26.9l1.1-1.2 1.2 1.3-1.1 1zM171.4 26.9l1.3-1 1 1-1 1.1zM130.4 26.9l1.1-1.2 1 1.2-1 1.1zM271.6 32.2l-1.3 1.1-1-1.4 1.2-1zM249.9 31l.9 1.1-.9 1.1-1.3-1.2zM167.6 31.1l.9 1-.9 1c-1.2-.6-1.4-1.2 0-2zM89.4 26.7l.9-.8 1.1 1.1-1.1 1.2zM80.1 28l-1.3-1 1.2-1.1 1.1 1zM49.2 28.1 48 26.9l1.2-1.1 1.1 1zM23.5.3l.8.9c-.5 1-1.1 1-1.7 0zM33.6 2.1l-.7-.8.8-1c1 .6 1.2 1.1-.1 1.8zM94.6 1.1l.8-.8 1 .9c-.6.9-1.1 1.1-1.8-.1zM105.8.2l.9.9c-.6 1-1.1 1.2-1.8.1zM115 1.2l1-.9c.9.6 1.2 1.1 0 1.7zM126.3.3c.9.6 1.2 1.1.1 1.8l-1-.8zM186.9 1.5 188 .3l1 .9c-.2.2-.4.6-.6.6zM198.3.3l.9.9c-.5.9-1.1 1.1-1.7 0zM217.7 1.4 219 .2l.8 1c-.2.2-.4.6-.5.6a6.2 6.2 0 0 1-1.6-.4zM228.3 1.1l.9-.8.9.8c-.6 1.2-1.1 1.1-1.8 0zM291 .3l.9.9-.9.9c-1.1-.6-1-1.1 0-1.8zM301.2 2.3l-.8-1.1.9-1.1c.3.4.7.7.7 1s-.4.7-.8 1.2zM311.4.3c.9.6 1.3 1.1.1 1.7l-.9-.7zM320.8 1.2l.9-.9c1 .6 1.2 1.1.1 1.8zM1.8 11.4l1.2-1 .8 1.1-.8 1zM12.1 11.5l1-1 1.1 1-1 1zM24.4 11.5l-.9.9-1.1-1 1.1-.8zM33.7 12.6l-1.1-1.1 1.2-.9 1 .9zM95.4 10.5l1.2 1-1.1.9-1-.8zM104.7 11.5l1-.9 1.1.8-1 1.1zM116.1 10.4l.9 1.1-.9.9-1-.8zM125.3 11.4l1-.9 1.1 1.1-1 .8zM187 11.5l1-1.1 1.2 1.1-1.1 1zM199.4 11.5l-1 .9-1-.8.9-1.1zM207.5 11.4l1.2-.8 1 .8-1 1.1zM217.9 11.5l1.1-1 .9.9-.9 1.1zM173.7 16.7l-1.1 1-1.1-1.1 1.2-1.1zM162.3 17.8l-.9-1.1.9-1.1 1.1 1zM153.1 16.7l-1 1-1.1-1 1-1.1zM265.2 17.7l-1-.9 1-1.2 1 1zM255 15.5l.9 1.1-.9 1-1.1-.9zM68.7 26.9l1-1 1.1 1-1 1.1zM59.5 28.1 58.4 27l1.1-1.2 1.1 1.2zM50.3 16.6l-1.2 1.1-1-1.1 1.1-1.1zM162.4 27.9l-1.1-.9 1-1.1 1.1 1zM13.5 2.4l-1.4-1.2 1-.9c.3.2.6.4.6.6s-.1.7-.2 1.5zM152.1 25.8l1.1 1.2-1.1 1-1.1-1zM244.7 15.5l1.1 1.2-1.2 1-1-1.2zM60.6 37.2l-1.2 1.1-1.1-1.1 1.2-1.1zM69.8 15.6l1 .9-1 1.1-1-.9zM266.4 26.9l-1.1 1.1-1.1-1 1.1-1.1zM59.5 15.5l.9 1.1-.8 1-1.1-.9zM323 11.5l-1.1 1-1.2-1.1 1.2-.8zM312.6 11.5l-1 1-1.1-.9.9-1.1zM301.1 12.5l-.8-1 1-1 1.1 1zM291 12.7l-1-1.1 1-1.2 1 1.1zM254.8 27.9l-.9-.9 1.1-1.2 1.1 1.2zM230.2 11.5l-1 1-.9-.9.9-1.1zM2.8 0 4 1.3l-1 .8-.7-.5A4.1 4.1 0 0 1 2.8 0z"/></g><path fill="#fff" d="M0 259.7h335v75.29H0z"/><path fill="#07073f" d="M335 176.3 0 117.2v14.7l335 58.4v-14z"/><path fill="#fff" d="M335 178.3 0 119.2v14.7l335 58.4v-14z"/><path fill="#07073f" d="M335 188 0 127.8v123.8l335 60.2V188z"/><path fill="#be1e2d" d="M335 193 0 132.8v123.8l335 47.1V193z"/><path fill="#07073f" d="M335 197.3 0 138.2v121.5l335 37v-99.4z"/><path fill="#07073f" d="M211.5 145.3h110.4v144.81H211.5z"/><path fill="#fff" d="M213.3 146.5h110.4v144.81H213.3z"/><path fill="#006838" d="M215.1 147.5h110.4v141.97H215.1z"/><g><ellipse cx="302.1" cy="114.3" rx="21.4" ry="21.3" fill="#231f20"/><g fill="#fff" fill-rule="evenodd"><path d="M290.2 108.9c7.2-1.4 9.4-2.3 9.4-2.3 1.2-4.6 3.9-8.5 7.5-9.9s7.8 1.1 7.8 1.1c-5.6-4.4-10.3-4.5-10.3-4.5h-.1c-10.3.2-14.3 15.6-14.3 15.6zM285 109.3c.9-11.9 8.8-14.8 8.8-14.8s-9.9 3.5-12.1 13.5c.6 1 2.2 1.3 3.3 1.3zM287.6 130.4c1.6.9 1.9 1.5 4.4 1.7 3 2.5 2.5 2.1 3.9 2.7a22.4 22.4 0 0 1-8.3-4.4zM321.1 123a21.8 21.8 0 0 1-13.5 11.8c-1.8 0-4.9.7-10.4-2.8a92.9 92.9 0 0 0 9.3-2.3c2.8 1.7 9.3 3.6 14.6-6.7z"/></g><path d="M285.2 109.3a22.8 22.8 0 0 0 4.9-.3c5.8-17.3 15.2-15.7 15.2-15.7s-18.9-4-20.1 16zM280.7 116.9c5.5 1.4 24.2-2.2 25-1.9s1.9 5.6 2 6.1-19.3 9.7-24.4 3.7h-.1a17.4 17.4 0 0 1-2.5-7.8zM303.7 98.9c1.1-1.1 3.2-2.3 4.3-2.2 16.6 9.4 14.1 25.7 9.9 30.8a9.1 9.1 0 0 1-4.3 3.2c6-15.7-9.1-31.3-9.9-31.8zM291.9 132.1a50.9 50.9 0 0 0 5.2-.1c5.6 4.5 12.5 2.1 11.7 2.4-11.9 3.8-16.9-2.3-16.9-2.3z" fill="#fc0" fill-rule="evenodd"/><g fill="#07073f" fill-rule="evenodd"><path d="M283.4 103.3c-1 2.5-1.7 4.7-1.7 4.7 1.8 3.5 15.1-.6 17.9-1.2s6.3 8 6.3 8c-20.4 3.3-25 2.4-25.1 2.2s-.4-.4-.5-1.6a21.2 21.2 0 0 1 3.1-12.1zM283.2 124.7c.7 1.4 1.6 3.7 5.9 6.8h.2c4 2 16.8-1.4 17.4-1.9s1.8-6.3 1-8.5c-20 10.4-24.5 3.6-24.5 3.6z"/><path d="M299.7 106.6c.4-2.2 3.8-7.9 4.2-7.5 13.7 13.6 11.8 29.3 9.5 31.5a6.9 6.9 0 0 1-6.7-.9c4.8-12.4-7-23.1-7-23.1z"/><path d="M308 96.5c14.4 8.5 15.4 24 10 30.9 3.6-3.7 7.4-12 2.5-21.7-.2-3.4-5.9-8.6-6.1-8.4s.9 1.1 0 .5c-3.7-2.1-6.4-1.3-6.4-1.3z"/></g></g><g><ellipse cx="29.7" cy="86.6" rx="21.4" ry="21.3" fill="#231f20"/><g fill="#fff" fill-rule="evenodd"><path d="M17.8 81.2a83 83 0 0 0 9.4-2.3c1.2-4.7 3.9-8.5 7.4-9.9s7.9 1.1 7.9 1.1c-5.6-4.5-10.3-4.6-10.3-4.6s3.9 0-.1.1c-10.3.1-14.3 15.6-14.3 15.6zM12.6 81.5c.9-11.9 8.8-14.7 8.8-14.7s-9.9 3.4-12.1 13.5c.6 1 2.2 1.3 3.3 1.2zM15.1 102.6c1.7 1 2 1.6 4.5 1.8 3 2.5 2.5 2 3.8 2.7a21.9 21.9 0 0 1-8.3-4.5zM48.6 95.2c-4.3 9.1-11.6 11.3-13.4 11.8s-4.9.8-10.4-2.8a87.5 87.5 0 0 0 9.3-2.2c2.8 1.7 9.3 3.6 14.5-6.8z"/></g><path d="M12.8 81.6a17.2 17.2 0 0 0 4.9-.4C23.4 64 32.8 65.6 32.8 65.6s-18.8-4-20 16zM8.2 89.2c5.6 1.4 24.3-2.2 25.1-1.9s1.9 5.6 1.9 6.1-19.2 9.7-24.3 3.7h-.1a17.2 17.2 0 0 1-2.6-7.8zM31.3 71.2c1.1-1.2 3.2-2.4 4.3-2.2 16.5 9.4 14.1 25.7 9.9 30.8a8.2 8.2 0 0 1-4.3 3.1c5.9-15.7-9.2-31.2-9.9-31.7zM19.5 104.4a50.9 50.9 0 0 0 5.2-.1c5.6 4.5 12.5 2.1 11.7 2.4-11.9 3.8-16.9-2.3-16.9-2.3z" fill="#fc0" fill-rule="evenodd"/><g fill="#07073f" fill-rule="evenodd"><path d="M11 75.5c-1 2.6-1.7 4.8-1.7 4.8 1.8 3.5 15.1-.7 17.9-1.2s6.3 8 6.3 8c-20.4 3.3-25 2.4-25.2 2.1a2.7 2.7 0 0 1-.4-1.5A21.4 21.4 0 0 1 11 75.5zM10.8 97c.6 1.4 1.6 3.7 5.9 6.8h.2c4 2 16.8-1.4 17.4-1.9s1.8-6.3 1-8.5c-20 10.4-24.5 3.6-24.5 3.6z"/><path d="M27.3 78.9c.4-2.3 3.8-7.9 4.2-7.5C45.2 85 43.3 100.7 41 102.8c-1.5.4-3.6 1.3-6.7-.9 4.8-12.3-7-23-7-23z"/><path d="M35.6 68.8c14.3 8.5 15.4 24 10 30.9a19.1 19.1 0 0 0 2.5-21.8c-.2-3.3-5.9-8.5-6.1-8.3s.9 1.1 0 .5c-3.8-2.2-6.4-1.3-6.4-1.3z"/></g></g><g><g fill="#07073f"><path d="M34.9 18a1.1 1.1 0 0 1-.3.8l-3.7 3.7-4-2.3v-2.3a1.1 1.1 0 0 1 1.2-1.1 1.2 1.2 0 0 1 1.2 1.1v2.9l3.6-3.7a1.4 1.4 0 0 1 1.7 0 1.2 1.2 0 0 1 .3.9M33.7 28.6h-.4l-.4-.3-3.6-3.6v2.8a1.3 1.3 0 0 1-1.2 1.2 1.2 1.2 0 0 1-1.2-1.2v-2.3l4-2.2 3.7 3.7a1.1 1.1 0 0 1-.9 1.9M30.7 22.6h-.1l-1-.6-2.7-1.5-2.2-1.3c-.2-.1-.3-.1-.4.1v6.8c0 .2.1.3.2.3h.2l2.2-1.3 3.7-2.2h.1zm-.9.2h-.1l-2.8 1.6-1.8 1a.2.2 0 0 1-.3 0v-5.3a.2.2 0 0 1 .2-.2h.1l1.8 1 2.8 1.6a.4.4 0 0 1 .1.3z"/><path d="M29 22.8h-.1l-2.1 1.3-1.3.7h-.2v-4h.2l1.3.7 2.1 1.3h.1"/><g><path d="M54.2 22.6c0-.1-.1-.1-.1-.2l-3.3-1.6-2-1c-.1-.1-.3 0-.3.2v5.4c0 .2.2.3.4.2l2-1.1 3.2-1.7h.1zm-.8.1a.1.1 0 0 1-.1.1l-2.5 1.3-1.5.8a.2.2 0 0 1-.3-.1v-4.2a.2.2 0 0 1 .2-.2l1.6.8 2.5 1.3c.1 0 .1 0 .1.1z"/><path d="M52.7 22.7h-.1l-1.8 1-1.2.7h-.2v-3.3c0-.1 0-.1.1-.1h.1l1.1.6 1.9.9h.1M37.3 19.9h2.8c1.4-.1 2.4.7 2.4 1.8a2.2 2.2 0 0 1-2.3 2h-1.5v1.8h-1.3zm2.7 2.7c.7-.1 1.1-.4 1.1-.9s-.5-.7-1.1-.7h-1.4v1.6zM47.8 24.5v1.1h-4.5V20h1.3v4.5zM55.7 23.4l-2.5-3.5h1.5l1.6 2.5 1.6-2.5h1.5L57 23.4v2h-1.3zM60.3 20.1h.7v3.2l3.1-3.2h1l-2.7 2.6 2.9 3h-.9L62 23.1l-1 1v1.7h-.7zM65.8 22.9a3.1 3.1 0 0 1 3.1-3 3.1 3.1 0 0 1 3.3 2.9 3.2 3.2 0 0 1-6.4.1zm5.7-.1a2.5 2.5 0 0 0-5 .1 2.5 2.5 0 0 0 2.5 2.3 2.5 2.5 0 0 0 2.5-2.4zM73.1 24.9l.5-.5a2.6 2.6 0 0 0 2 .8c1 0 1.5-.5 1.5-1s-.6-.8-1.7-1-2.1-.6-2.1-1.6.9-1.6 2.1-1.6a2.9 2.9 0 0 1 2.2.7l-.4.5a3.4 3.4 0 0 0-1.8-.7c-.8 0-1.4.5-1.4 1s.6.8 1.7 1 2.1.6 2.1 1.6-.7 1.7-2.2 1.7a3.7 3.7 0 0 1-2.5-.9zM79.1 20.1h.7l2.4 3.9 2.3-3.9h.7v5.6h-.7v-4.2l-2.3 3.9-2.4-3.9v4.3h-.7zM86.6 22.9a3.2 3.2 0 0 1 3.2-3 3.1 3.1 0 0 1 3.2 2.9 3.2 3.2 0 0 1-6.4.1zm5.7-.1a2.5 2.5 0 0 0-5 .1 2.5 2.5 0 0 0 2.5 2.3 2.5 2.5 0 0 0 2.5-2.4zM93.9 24.9l.5-.5a2.8 2.8 0 0 0 2 .8c1 0 1.5-.5 1.5-1s-.6-.8-1.7-1-2.1-.6-2.1-1.6.9-1.6 2.1-1.6a2.9 2.9 0 0 1 2.2.7l-.4.5a3.1 3.1 0 0 0-1.8-.7c-.8 0-1.4.5-1.4 1s.7.8 1.7 1 2.1.6 2.1 1.6-.7 1.7-2.2 1.7a3.7 3.7 0 0 1-2.5-.9z"/></g></g><path d="M148.9 138.6h2.2a41.1 41.1 0 0 0 1.3-5.8c-.5-.6-3.5-.6-3.5-.6z" fill="#07073f"/><path d="M153.5 133.8c.7-1.8 3.7-5.3 3.7-5.3h2.7s4 4.8 4 6.7a3.1 3.1 0 0 1-.1 1l-4.8 1.7zM157.2 128.5s-3.7-2.9-2.9-3.8 2.7 1.1 2.7 1.1 1.1-1.6 1.6-1.6 1.6 1.6 1.6 1.6 2.2-1.6 2.6-1.1-2.9 3.8-2.9 3.8z" fill="#be1e2d"/><path d="m155 136.4 2.9.5h.9l.9-.2a1.5 1.5 0 0 0-1.3-1.6l-6.1-1.3-1 4 5.1 1.7c1.3.5 1.5.5 4.3-.7l3.8-1.7a1.8 1.8 0 0 0-2.2-.9l-2.6.6" fill="#be1e2d"/><g fill="#07073f"><path d="M151.1 138.9h-2.2c-.1 0-.2-.1-.2-.3V132h1.7c1.5.2 1.9.4 2.1.6s.1.1.1.2a47.6 47.6 0 0 1-1.4 5.9.2.2 0 0 1-.1.2zm-1.9-.5h1.7a42.5 42.5 0 0 0 1.2-5.5l-1.6-.3h-1.3z"/><path d="M157.6 140a2.4 2.4 0 0 1-1.3-.4l-5.1-1.6a.5.5 0 0 1-.2-.4c.1-.1.2-.2.4-.1l5 1.6h.1c1.2.5 1.3.5 4.1-.6l3.5-1.6a1.6 1.6 0 0 0-1.7-.6l-2.6.7-.3-.2c-.1-.2 0-.3.2-.4l2.6-.6a2.1 2.1 0 0 1 2.4 1.1v.2c0 .1-.1.1-.1.2l-3.7 1.7h-.1a9.5 9.5 0 0 1-3.2 1z"/><path d="M158.3 137.3h-.4l-2.9-.6a.3.3 0 0 1-.3-.3l.4-.2 2.9.6h.8l.7-.2c-.1-.7-.4-1-1.2-1.2l-6-1.4c-.2 0-.3-.2-.2-.3s.1-.2.3-.2l6 1.4a1.7 1.7 0 0 1 1.6 1.8c0 .1-.1.2-.2.3l-.9.2z"/><path d="M163.8 136.5c-.2 0-.3-.2-.2-.3s.1-.7.1-1-2.8-5-3.9-6.5h-2.4a32.3 32.3 0 0 0-3.7 5.2c0 .2-.2.2-.3.2a.5.5 0 0 1-.2-.4 34.4 34.4 0 0 1 3.8-5.4h2.9c.1 0 .2 0 .2.1s1 1.2 2 2.7 2.1 3.4 2.1 4.2a4.1 4.1 0 0 1-.1 1.1s-.1.1-.3.1z"/><path d="M161.2 128.7h-5.3c-.2 0-.3-.1-.3-.2a.3.3 0 0 1 .3-.3h5.3a.3.3 0 0 1 .3.3c0 .1-.1.2-.3.2z"/><path d="M159.9 128.7h-2.8c-.3-.2-3.1-2.3-3.2-3.6a.8.8 0 0 1 .2-.5.6.6 0 0 1 .5-.3 6.1 6.1 0 0 1 2.3 1.1l.5-.6c.7-.8 1-.9 1.2-.9s.5.1 1.2.9a1.5 1.5 0 0 0 .4.6 6.1 6.1 0 0 1 2.3-1.1c.3 0 .5.2.5.3s.2.3.2.5-2.8 3.4-3.1 3.6zm-2.6-.5h2.5c1.1-.8 2.8-2.4 2.9-3.1s0-.2-.1-.2h-.1a6.5 6.5 0 0 0-2.2 1.1h-.3c-.6-.8-1.2-1.5-1.4-1.5s-.9.7-1.4 1.5h-.4a6.5 6.5 0 0 0-2.2-1.1h-.1v.2c0 .7 1.7 2.3 2.8 3.1z"/></g><path fill="#be1e2d" d="M96.5 114.9h141.9v1H96.5z"/><circle cx="15.3" cy="318.8" r="4.5" fill="#be1e2d"/><circle cx="152.4" cy="318.8" r="4.5" fill="#be1e2d"/><path d="M13.4 185.8c2.7 0 4.7 2.3 5.1 4.9a7.4 7.4 0 0 1-.7 4.4c-1.3 2.2-2.6 4.3-3.8 6.5a1.3 1.3 0 0 1-2.1.1 35.4 35.4 0 0 1-2.6-4.1 15.9 15.9 0 0 1-1.9-4.2 5.9 5.9 0 0 1 1.9-6.4c1.3-1 2.1-1.1 4.1-1.2zm1.6 6a3 3 0 0 0-1.6-2.8h-.8a2.8 2.8 0 0 0-1.7 2.8 3.3 3.3 0 0 0 1.5 3.1h.6a3.1 3.1 0 0 0 2-3.1zm-3.1-5.4-1.5 1v-.3h-.2a9.1 9.1 0 0 0-1.1 1.6 6.2 6.2 0 0 0-.8 4.6 21.7 21.7 0 0 0 1.9 4.1 24.6 24.6 0 0 0 1.7 2.7h.1c-.1-.1-.1-.3-.2-.4a50.5 50.5 0 0 1-2.5-4.7 6.7 6.7 0 0 1 0-6.3l.3-.5h.1l-.6 1.4zm3.7 7.8a2.4 2.4 0 0 0 .8-2.1z" fill="#ffdd15"/><circle cx="13.8" cy="224.2" r="2.9" fill="#ffdd15"/><circle cx="13.8" cy="245" r="2.9" fill="#ffdd15"/><g fill="#07073f"><path d="M250.1 14.5h72.8v16.33h-72.8zM249.9 0h72.8v4.46h-72.8zM249.9 7.1h72.8v4.46h-72.8z"/></g><circle cx="113.6" cy="295.7" r="4.5" fill="#07073f"/><circle cx="15.3" cy="295.7" r="4.5" fill="#07073f"/><path d="M100.6 308.3v-1H85.5a1.3 1.3 0 0 1 0 1zM124.5 308.3v-1h-15.1a1.3 1.3 0 0 1 0 1zM76.7 308.3v-1H61.6c0 .2.1.3.1.5s-.1.3-.1.5zM37.7 307.3c0 .2.1.3.1.5s-.1.3-.1.5h15.1v-1zM148.5 308.3a1.3 1.3 0 0 1 0-1h-15.1v1zM181.2 307.3v1h18v-1zM172.4 308.3a1.3 1.3 0 0 1 0-1h-15.1v1zM28.9 307.8v-.5H10.8v1h18.1z" fill="#be1e2d"/></g></g></svg>