<svg id="bb6a5aee-ec47-4031-bc7d-8276bb8fb798" data-name="Layer 1" xmlns="http://www.w3.org/2000/svg" xmlns:xlink="http://www.w3.org/1999/xlink" width="335" height="335" viewBox="0 0 335 335">
  <defs>
    <clipPath id="a344f87d-7046-4bcf-9a54-258d0898184a">
      <rect width="335" height="335" fill="none"/>
    </clipPath>
    <radialGradient id="aa60dbd8-5669-4d36-929a-6c443f53c8c7" cx="-419.77" cy="236.77" r="32.88" gradientTransform="matrix(1.71, -0.31, -0.3, -1.66, 1057.61, 478.69)" gradientUnits="userSpaceOnUse">
      <stop offset="0" stop-color="#fff"/>
      <stop offset="1" stop-color="#ccc"/>
    </radialGradient>
    <linearGradient id="a293c2c3-9791-4b34-a7d0-9798dc8e07b4" x1="1006.57" y1="-612.97" x2="1012.79" y2="-644.12" gradientTransform="matrix(0.57, -0.1, -0.1, -0.57, -345.99, 4.88)" gradientUnits="userSpaceOnUse">
      <stop offset="0" stop-color="#dad024"/>
      <stop offset="1" stop-color="#d3ab2a"/>
    </linearGradient>
  </defs>
  <g clip-path="url(#a344f87d-7046-4bcf-9a54-258d0898184a)">
    <rect width="335" height="335" fill="#ffde17"/>
    <g>
      <path d="M148.7,223.8l.7-.6c.1-.1.2-.3.4-.3h.2c.3.2.5.4.4.8a.5.5,0,0,1-.2.4h-.1c-.2,0-.2-.2-.2-.4l-.2-.3c-.5.7-.7.9-1,.9h-.4c-.4-.4-.2-.8,0-1.3s-.1.6.1.8h.3m2.3-6.3q.1-.6.6-.6h0a.6.6,0,0,1,.6.6H151m120.7-33.3a8.3,8.3,0,0,1-5.2-1.9c-1.3-1.1-2.4-2.3-3.6-3.5a21.6,21.6,0,0,0-2.7-2.5,9.7,9.7,0,0,0-3.1-1.8,21,21,0,0,1-4.2-2.2c-1.4-1-2.8-2-4.3-2.9s-.5-.5,0-.9a6,6,0,0,1,1.9-.6h1.4a10.3,10.3,0,0,1,3,.4,10,10,0,0,1,3.5.9,18.6,18.6,0,0,1,2.7,2.2,108.4,108.4,0,0,1,8.5,8.1c1.3,1.4,2.6,2.9,3.9,4.6l-1.8.2m-39.4-32.3a109.9,109.9,0,0,0-10.6-5.9c-2.8-1.5-5.6-2.9-8.2-4.6a38.3,38.3,0,0,1-7.3-5.4,20.6,20.6,0,0,1-6-9.6,21.3,21.3,0,0,1-.7-4.4,1.3,1.3,0,0,1,.5-1.2l1.1-1c.4-.2.5-.4.7-.4s.3.2.6.4c2.3,1.9,4.4,4,6.5,6.1,4.4,4.5,8.4,9.3,12.5,14.1s7,7.9,10.8,11.6a.2.2,0,0,1,.1.3M129.5,50.5c-.9,0-1.2.4-1.2,1.4.2,3.1.3,6.2.5,9.3a11.5,11.5,0,0,1-.1,1.9,12.1,12.1,0,0,0,.1,3.8,13.7,13.7,0,0,0,3.1,5.8c1,1.2,2.2,2.4,3.4,3.6a26.1,26.1,0,0,1,3.7,4.4c2.2,3.2,2.2,6.5.6,10a19.6,19.6,0,0,0-1.6,3.6c-1,2.7-1.7,5.4-2.5,8.1a57.6,57.6,0,0,1-2.7,7.3,20.8,20.8,0,0,1-4.3,5.9,2.7,2.7,0,0,1-1.2.6,29.1,29.1,0,0,0-9,3.5c-2.7,1.5-5.1,3.3-7.7,4.9a45,45,0,0,1-6.4,3.8,25.4,25.4,0,0,1-8.5,2.6H91.8a1.7,1.7,0,0,1-1-.3,11.9,11.9,0,0,1-3.3-2.6,21.4,21.4,0,0,1-3.2-5.5,55.5,55.5,0,0,0-2.4-5.6,2,2,0,0,1,0-2.5c.8-1,.6-1.9-.2-2.9l-.9-.9-1.2-1.2a2.8,2.8,0,0,1-.9-3,.7.7,0,0,0-.5-.9,28.9,28.9,0,0,0-10.1-2.1h-.4a28.1,28.1,0,0,0-9.9,1.9,41.1,41.1,0,0,0-8,4.3,2.1,2.1,0,0,1-1.3.5,7.4,7.4,0,0,0-6.4,4,28.7,28.7,0,0,0-1.8,4c-.9,2.3-1.7,4.7-3.4,6.7-.3.3-.2.6-.1.9a4.8,4.8,0,0,1-.2,2.9c-.2.6-.3,1.2-.5,1.7a9.2,9.2,0,0,0-.5,2.8,2.8,2.8,0,0,0,.7,2.3,10,10,0,0,1,2.3,4.3c.3,1.5.5,3.1.7,4.6a26.2,26.2,0,0,0,1.1,4,1.4,1.4,0,0,0,1.1,1,6.5,6.5,0,0,1,2.2,1.1,12.8,12.8,0,0,1,2.8,2.9l2.4,3a9.7,9.7,0,0,0,5.4,3.9c.5.1.6.3.4.7s-.9,3-1.4,4.6a13.6,13.6,0,0,1-.9,2.3,5.5,5.5,0,0,1-1.8,2.2,2.5,2.5,0,0,1-1.6.6c-9.5.5-19.1,1.1-28.6,1.3l-4.4.2c-2.9.2-5.7.2-8.5.5.2,2.6.3,5.3.4,7.9,3.4-.2,6.8-.4,10.2-.4l12.2-.5,10-.3h4.2c.6,0,.6.1.4.6a49.5,49.5,0,0,0-3.5,9.5l-1.8,6.6a2.1,2.1,0,0,0-.1,1.1,28.2,28.2,0,0,1,.2,7.1,76,76,0,0,1-2.6,12.4c-.5,2-1.1,4.1-1.5,6.1a1.6,1.6,0,0,1-.8,1.2l-6.6,4.6-12.1,8.6-4.4,3.1-.2.2.6.2h.5l14.9-.7,4.1-.2h1l26.3-1.3.9-.3,20.8-1h.5l.7.2,70.3-3.6c.1-.2.3-.2.6-.2l6.2-.3,25.6-1.3,10.2-.5,10.1-.6,2.7-.2h3.4c3.9-.3,7.9-.4,11.8-.6l11.8-.6h1.7a2.2,2.2,0,0,1,1.4-.3l33.5-1.7h1l59.3-3c.3-.2.7-.1,1.1-.3l-.2-.2a2.6,2.6,0,0,1-1.7-2.2,37.8,37.8,0,0,1-1.3-5.6,1.6,1.6,0,0,0-.7-1.1c-3.5-2.2-5.3-5.6-6-9.6-.4-2.3-.6-4.6-.8-6.9a42.7,42.7,0,0,0-1-8,14.2,14.2,0,0,0-4.2-7.2c-.1,0-.2-.1-.2-.3l1.6-.8a3.3,3.3,0,0,0,2-2.7,1.3,1.3,0,0,1,.7-.9c2.5-.9,3-2.7,2.6-5.1a22.1,22.1,0,0,0-.5-2.5,7.8,7.8,0,0,1-.2-2.2,2.4,2.4,0,0,1,1.8-2.4h.6c1-.2,1-.4.4-1.2l-.4-.5c-.5-.6-.3-1.1.5-1.3l2.7-.3H330c-.2-2.7-.3-5.4-.4-8.1h-1.3l-7.5.4h-.1a1.9,1.9,0,0,1-1.4-.5,18.2,18.2,0,0,1-3.1-3.1c-1.4-1.7-2.7-3.5-4-5.4a1.7,1.7,0,0,0-1.4-.8H299.3a45.3,45.3,0,0,0-7.4.8,23,23,0,0,0-6.8,1.9,17.4,17.4,0,0,0-7,5.6,19.1,19.1,0,0,0-1.6,2.7c-.1.4-.3.7-.7.7h-.2a6.8,6.8,0,0,1-3.7-1.6l-2.9-2.8a167.8,167.8,0,0,0-18.9-14.7c-7.6-5.1-15.5-9.9-23.2-14.9l-1.3-.5a37.4,37.4,0,0,1-7.2-2.9,42.2,42.2,0,0,1-10.9-8.8,133.1,133.1,0,0,1-9.7-12.7A143,143,0,0,0,189,86.7l-1.2-1.4-.4-.3h-.2a4.9,4.9,0,0,0-1.4,1.1c-.3.4-.1.8,0,1.2a67,67,0,0,0,2.4,7.6c.9,2.5,1.9,4.9,2.7,7.5a1.5,1.5,0,0,1,0,1.3,7.6,7.6,0,0,0-.6,3.9,17.4,17.4,0,0,0,1.1,3.9c.4,1.3.9,2.7,1.2,4.1a6.9,6.9,0,0,1-.5,4c-.2.6-.3.8-.6.8l-.7-.2-1.2-.6a34.7,34.7,0,0,1-6.8-5.9,73.9,73.9,0,0,0-6.7-7c-1.1-1-1.1-1.2-1.8-1.2h-1.4c-1.1,0-1.3.5-1,1.6a12.6,12.6,0,0,0,1.3,2.6,33.6,33.6,0,0,0,3.4,4.1,27.9,27.9,0,0,1,3.5,4.2,6.6,6.6,0,0,1,1.2,2.7h-.1a1.3,1.3,0,0,1-.9-.4,68.6,68.6,0,0,0-12.8-5.5,2.6,2.6,0,0,0-1.1-.2c-.4,0-.5.2-1,1l-.2.3c-.2.3-.1.5.1.6l.5.3,11.3,7.5a1.9,1.9,0,0,1,.7.6,5.4,5.4,0,0,1-2.1.5h-.5a15.5,15.5,0,0,1-3.6-.8,38.1,38.1,0,0,0-4.5-1.3l-1.8-.2a7.6,7.6,0,0,0-2.1.3c-.8.3-.9.5-.4,1.2a7.7,7.7,0,0,0,3.9,3,25,25,0,0,0,4.5,1.2,22.6,22.6,0,0,1,4.5,1,9.1,9.1,0,0,1,2.6,1.3c.4.4.4.6-.1.8a10.3,10.3,0,0,1-2.5.7,54.1,54.1,0,0,1-5.8.7,16.5,16.5,0,0,0-3.2.6c-.3.1-.7.1-.8.5a2,2,0,0,0,.1,1.3c.1.2.2.2.3.2h1.3a22.8,22.8,0,0,1,4.5-.4h2.6a33.5,33.5,0,0,1,10.8,3.1,53.4,53.4,0,0,1,11.5,7.9,111.5,111.5,0,0,1,12.5,13.2c.1,0,.2.1.1.3a10.8,10.8,0,0,1-2.4-1.2l-9.8-5a26.4,26.4,0,0,1-2.9-1.5,2.4,2.4,0,0,0-1.6-.5h-.3l-31.8,1.6-26.6,1.4a4.4,4.4,0,0,0-2.5.8l-7.5,5.4a.6.6,0,0,1-.5.2l-.4-.4a30,30,0,0,1-3.9-9,2.1,2.1,0,0,1,.9-2.4l29.9-22.8,2.2-1.9a19.4,19.4,0,0,0,4.6-9,59.5,59.5,0,0,0,1.4-11.9c.2-2.6.4-5.1.8-7.7A3.1,3.1,0,0,0,159,94a70.3,70.3,0,0,1-5.4-18.9,56.7,56.7,0,0,1-.4-9.2,1.7,1.7,0,0,0-.5-1.4l-.9-.7a1.7,1.7,0,0,0-1.2-.5,1.9,1.9,0,0,0-1.5.9,23.9,23.9,0,0,0-1.3,2.1,7.1,7.1,0,0,1-1,1.4c-.3.2-.5.4-.7.4s-.3-.2-.6-.5a13.4,13.4,0,0,1-2.9-5.2c-.6-1.9-1-3.8-1.4-5.7a22.7,22.7,0,0,0-1.6-4.6.9.9,0,0,0-.9-.7H138a1.5,1.5,0,0,0-.8,1.2c-.2.5-.2,1.1-.4,1.6a1.6,1.6,0,0,1-1.5,1.2,1.9,1.9,0,0,1-1.2-.4,7.9,7.9,0,0,1-1.4-1.8l-.9-1.7a2.5,2.5,0,0,0-1.9-1.1h-.4" fill="#262261" opacity="0.05"/>
      <path d="M176.4,22.9h0m-3.9,32.8,5.5-.3a30.1,30.1,0,0,0,10.2-2.6l.6-.2a1.6,1.6,0,0,1-.5.8c-1.1.9-2.2,1.9-3.4,2.7a37.8,37.8,0,0,1-6.4,3.1,23.9,23.9,0,0,1-4.6,1.2,25.8,25.8,0,0,1-4,.4h-.4a27.4,27.4,0,0,1-5-.4h-.9a3.1,3.1,0,0,1-2.2-1.1,30.9,30.9,0,0,1-4-5.5,2.9,2.9,0,0,1-.3-1l1.6.7a31,31,0,0,0,8.5,2l5.3.2m-5-9h.7a19.4,19.4,0,0,0,2.4-.2,10.9,10.9,0,0,1,2.6-.3,19.1,19.1,0,0,0,5.7-1.9,23.2,23.2,0,0,0,3.1-1.9,1.2,1.2,0,0,1,.9-.4l.7.2a23.9,23.9,0,0,1,8.4,5.3l.4.4a.6.6,0,0,1,.1.7,10.7,10.7,0,0,0-1.3,2.1l-.7.5a21.3,21.3,0,0,1-6.4,2.7,49.8,49.8,0,0,1-9.4,1.5h-2.2a39.4,39.4,0,0,1-13.1-2,8.1,8.1,0,0,1-2.1-1,3.9,3.9,0,0,1-1.5-2.1,24.4,24.4,0,0,1-1.4-4.6,4.8,4.8,0,0,1,.4-2.6c.1-.1.2-.3.4-.3l.3.2c2.3,2.4,5.2,3.2,8.3,3.4l3.7.3m25.4.9a.4.4,0,0,1-.4-.2,25.8,25.8,0,0,0-8.9-5.6,1.3,1.3,0,0,1-.9-1.3,4.1,4.1,0,0,1-.1-1.1,31.2,31.2,0,0,1,.5-6.8,5.6,5.6,0,0,1,.4-1.2c.2-.3.4-.5.6-.5h.5l3.8,2a51,51,0,0,1,7.7,6.2c.6.7.5.7.2,1.4a41.4,41.4,0,0,1-1.9,4.9,12.2,12.2,0,0,1-1.2,1.9l-.3.2m-38.5-4.7c-.9-2.3.5-9.7,2.7-13.1A52.5,52.5,0,0,0,155.2,41c-.2,1.3-.1,1.5-.8,1.9M196.5,39l-.2-.2-.6-.5a43.4,43.4,0,0,0-9.2-6.7l-1.7-.8c-1-.4-1.1-.6-.8-1.7a17.3,17.3,0,0,1,1.1-3.2c.2-.6.5-1.1.7-1.7s.4-.6.8-.6h.4l3.3.9a32.4,32.4,0,0,1,6,2.7c.3.2.8.4.5.9a14.8,14.8,0,0,1,.3,1.9,21.6,21.6,0,0,1,.2,4.4l-.3,3.3c-.1.3-.1.7-.2,1a.3.3,0,0,1-.3.3m-.3-12.3-.4-.2-3.9-1.9a19.5,19.5,0,0,0-5.4-1.4,4.5,4.5,0,0,1,1-1.8,10.1,10.1,0,0,1,3.8-3.6.6.6,0,0,1,.5-.2c.2,0,.3.1.7.4a12,12,0,0,1,1.5,2.4,22.2,22.2,0,0,1,2.4,6v.2h-.1M164.3,46.2h-.4a14.9,14.9,0,0,1-7-2.3,4.1,4.1,0,0,1-1-.9,1.5,1.5,0,0,1-.4-1.1,52,52,0,0,1,2.2-12.4,17.8,17.8,0,0,1,4.9-7.2,28.8,28.8,0,0,1,9.1-6,1.8,1.8,0,0,1,1.1-.4h.3c-.7.6-1.4,1-2,1.6a29.5,29.5,0,0,0-7.5,15.3,31.4,31.4,0,0,0-.1,8.1,16.7,16.7,0,0,0,1.1,4.4q.3.9-.3.9m2.1.1c-.9,0-1.2-.3-1.5-1.1a24.9,24.9,0,0,1-1.3-6.6,28.3,28.3,0,0,1,1.8-11.2,25.4,25.4,0,0,1,5.5-9.2,16.9,16.9,0,0,1,4.1-2.9,16.2,16.2,0,0,1,6.1-1.2h.2a1.4,1.4,0,0,1,1.2.6c0,.3-.2.3-.3.5a27.5,27.5,0,0,0-5.2,6.5,1.8,1.8,0,0,0-.4,1c.4-.4.7-1,1.1-1.5a30.6,30.6,0,0,1,5.2-6.2,3,3,0,0,1,2.2-.8h.5a13.6,13.6,0,0,1,4.4.8,1.4,1.4,0,0,1,1,1.1c.1.4.7.7.5,1.1s-.7.4-1,.7a13.9,13.9,0,0,0-4.5,5.4,39,39,0,0,0-2,4.7,4.7,4.7,0,0,0-.5,2.4,1.3,1.3,0,0,1-.1.6,9.5,9.5,0,0,0-1,4,25.7,25.7,0,0,0-.2,4.8,1.9,1.9,0,0,0,.1.8c.3.9-.1,1.4-.9,1.9a23.7,23.7,0,0,1-6.2,3,9.5,9.5,0,0,1-2.3.5h-.6c-.6,0-.6-.2-.6-1.1a31.9,31.9,0,0,1,.2-6.9,47.7,47.7,0,0,1,2-9.1,53.2,53.2,0,0,1,2.1-5,1.8,1.8,0,0,0,.4-.9c-.4.3-.5.7-.8,1.1A37.1,37.1,0,0,0,172,34.8a39.2,39.2,0,0,0-.7,8.4v2.2c-.1.4-.2.7-.7.8h-4.2m14.7-32.7h-.5l-2.7.3a7.7,7.7,0,0,0-2.9,1,6.1,6.1,0,0,1-1.8.5,5.5,5.5,0,0,0-2.2.6,30.5,30.5,0,0,0-8.5,5.8,29.3,29.3,0,0,0-5.7,7.4,28.3,28.3,0,0,0-3,14.3,23.9,23.9,0,0,0,1.1,5.3,6.5,6.5,0,0,0,.9,2.3,9.1,9.1,0,0,1,1.1,2.2,2,2,0,0,0,.4.8c.9,1.4,1.8,2.8,2.8,4.1a7.7,7.7,0,0,0,1.8,1.8,4.9,4.9,0,0,1,1.8,1.7,10.6,10.6,0,0,0,1.5,1.5l3.2,2.3a24.7,24.7,0,0,0,13.2,4h.4a25.8,25.8,0,0,0,4-.4,29.8,29.8,0,0,0,8.3-2.1,6.8,6.8,0,0,0,2.3-1.4l.5-.3A19.2,19.2,0,0,0,200,64a4.2,4.2,0,0,0,1.5-1.1,7.8,7.8,0,0,1,2.4-2.4h0a32,32,0,0,0,4.2-5.5,5.8,5.8,0,0,0,.9-2.3,2,2,0,0,1,.5-.9,4.3,4.3,0,0,0,.4-.7,27.1,27.1,0,0,0,1.7-11.3,23.5,23.5,0,0,0-1-5.9,28.6,28.6,0,0,0-18.8-18.9c-1.2-.4-2.4-.6-3.7-.9a9.9,9.9,0,0,0-2.4-.3,4.6,4.6,0,0,0-2.3.5H183a.7.7,0,0,1-.6-.2,2,2,0,0,0-1.3-.4" fill="#262261" opacity="0.05"/>
    </g>
    <g>
      <path d="M335,227.8C223.8,230.4,111.2,237.3,0,262V170.9c111.2,24.7,223.8,31.6,335,34.2Z" fill="#ed1c24"/>
      <path d="M335,230.2c-111.2,2.5-223.8,9.5-335,34.1v-91c111.2,24.6,223.8,31.6,335,34.1Z" fill="#262262"/>
    </g>
    <g>
      <path d="M281.8,146.5a3.1,3.1,0,0,1-.1-2.1c-2-.1-6.6.5-10.7.2-1.2.2-9.5-7-14.3-10.7-.4-.3-.8-.3-1.3-.6a17.3,17.3,0,0,1-2.1-1.7,8.2,8.2,0,0,0-2.5-1c-.8-.1-1.6-.1-1.6-.6s3.9.2,3.7-.3a1.4,1.4,0,0,0-.7-.9,20.8,20.8,0,0,0-3-1.3c-.9-.5-.8-.7-.6-.8s3.8,1.4,4.1.8a3.1,3.1,0,0,0-1.2-1.2c-.6-.3-2.1-.5-2.6-.8s-.3-.6-.1-.6a5.8,5.8,0,0,1,4.3,1.1c.3-.2.2-.8-.2-1.3a3.7,3.7,0,0,0-1.9-.9c-.6-.1-.4-.9.2-.9,2.8.2,2.8,1.7,4.1,3.4s.2-.5.2-1,.9-1.2,1.2-.6,0,1.9.2,2.3.9,2.9,1.4,3.4c3.6,3.5,9.9,6.1,15,8.2a19.6,19.6,0,0,0,9.1-1.3c2.7-1.1,4.7-2.1,6.9-1.9l1.4-.9,1.7-1a2.6,2.6,0,0,0,.1-1.5c-.3-1.2-3.4-.3-3.8-1.2a4.2,4.2,0,0,0-.4-1.5c-.1-.2-.5-.2-.6-.5s0-.6,0-.8-.3-.3-.4-.4.2-.7.1-1-.5.1-.7-.2.7-1.4,1-1.8c-.5-3.6,1.7-6.9,3.1-7.6,4.1-2.1,7.8-2.7,11.7.1.1,0,1.7-2.6,3.8-1.3a2.2,2.2,0,0,1,1.3-.4,2.2,2.2,0,0,1,1.3.4,1.9,1.9,0,0,1,2.5.4c.4,0,.9-.3,1.4-.1a1.6,1.6,0,0,1,.9.5c1.5-.2,1.6,1.6,1.5,1.8s.7.3.7,1a1.2,1.2,0,0,1-.6.8c.4,1.2-1,1.8-1.8,1.8s-1.5.4-1.9.5a1.8,1.8,0,0,1-1.8-.2,1.3,1.3,0,0,1-1.7,0h-.3a1.1,1.1,0,0,1-1.2,0c-.1.4-.7.2-.7.3s-.3.1-.4.2a.9.9,0,0,0-.3.6c-.6,2.7-1.8,4.9-3.6,5.4v1.6c2.5-.9,3.2-2,8.2-3,1.7-1,3.5-3,5-4.2s4.6-3.5,4.7-4-4.1-3.8-8.7-7.1a14,14,0,0,0-4.4-2.2c-1.6-.3-2.1-.1-3.4-.6s-3.1-.9-3.4-1.3-.2-.5.5-.6,1.2,0,1-.3-1.7-1-2.2-1.5-.5-.9-.4-1,1.9.7,2.7,1.1,2,1,2,.7-1-1.1-1.5-1.8-1.4-1.8-.9-2,1.4.9,2.2,1.2.8-.5,1.4-.1,2.3,2.2,3.3,2.1-.7-1.4-.3-1.7a1.3,1.3,0,0,1,1.2.6c.5.4.6,1.3.9,1.4a4.1,4.1,0,0,1,2.3,1.6c5.2,1.2,12,5.3,14.5,7.4.8.6,2.1.9,2.3,2,.9,4.9-7.8,11-15,16.1a8.6,8.6,0,0,1-2.4,2.8,29.5,29.5,0,0,1-5,3.4,25.8,25.8,0,0,1-4.1,5l-3.4,3.9c-1.6,2.2-7.3,10.6-5.9,13.6.6,1.3,2,2.6,2.8,4.6s.4,2.5.7,3.6a22.1,22.1,0,0,1,.6,3.4c.1,1.8-.8,3.7-1.4,5.2a12.4,12.4,0,0,0-.2,6.1c4.5-2.9,11.1-5.1,15.4-8.8,1.7-1.5.7-4.7,2.2-5.7s3.9.7,7.1-.7c.5-.3,4.9-3,8.4-3.2s7.2,1.4,4.6,3.1c1.7.2,1.6,1.2,1.3,1.6-1.5,2-5.8,1.6-10.9,4.8a146.5,146.5,0,0,0-13.8,9.4A53.4,53.4,0,0,0,300,196c.3,2,.9,3.5,2.1,4.4,7.1-9.1,16.1-5.5,24.8-10.5,2-1.2,1.8-4.5,3.6-4.9s3.9,2.6,6,3a34.4,34.4,0,0,1,5.6.9c1.2.3,1.5.9,2.4,1.2a20.7,20.7,0,0,1,2.7,1.1c1.5.9,1.2,1.8,0,1.8a59.8,59.8,0,0,0-13.2,1.4,41.3,41.3,0,0,0-10.3,3.1c-4.3,1.9-11.1,6.2-16.7,9.4-2.8,1.7-4.7,3.5-7.3,3.3s-4.4-2.6-6.8-6.2c-2,2.5-5,3.6-6.5,3.4-4-.8-4.4-5-5.7-8.8a45.7,45.7,0,0,1-2.9-13.6,51.7,51.7,0,0,1,1.1-12.9c-1.5-2.3-2.1-7.7-1.1-12.4,1.5-6.8,1.2-8.9,4-13.2Zm24.4-29c-.5,1-2.4.9-2.7.7a6.6,6.6,0,0,1,1.7,4.5c.1-.2.2-.4.7-.4a.7.7,0,0,1,.7-.7c0-.2,1-.8,1.4-.3a2.3,2.3,0,0,1,1-.4,1.4,1.4,0,0,1,1,.4,1.7,1.7,0,0,1,1.8,0,1.4,1.4,0,0,1,1.4-.4c0-.8.8-.7.8-.9s-.3-.6-.1-1a1.3,1.3,0,0,1-.9-.9c-.4.3-1,.4-1.9-.2a2.3,2.3,0,0,1-2.6-.2C308.1,117.9,306.7,118.4,306.2,117.5Z" fill="#262262" fill-rule="evenodd"/>
      <path d="M260.6,117.3a7.5,7.5,0,1,1,7.5-7.5A7.6,7.6,0,0,1,260.6,117.3Z" fill="#262262" fill-rule="evenodd"/>
    </g>
    <g>
      <path d="M322.6,212.7a40.5,40.5,0,1,1-47-32.3A40.3,40.3,0,0,1,322.6,212.7Z" fill="url(#aa60dbd8-5669-4d36-929a-6c443f53c8c7)"/>
      <path d="M249.7,185.3s-16.8,14.1-12.5,39.2,25,32.6,25,32.6l-1.6-5.4s-11.9-5.9-15.9-28.2c-1.7-9.6,6-25.3,6-25.3Z" fill="#262262"/>
      <path d="M250.6,198.7s18.5-1.9,26.8-3.4c17.4-3,26.1-7.3,26.1-7.3L300,175.6s-5-2.7-7.8-3.3a40.7,40.7,0,0,0-7-1,1.9,1.9,0,0,0-1.3.4l-.5-.5a89.9,89.9,0,0,0-10.2,1c-3.3.7-9.8,3-9.8,3l-.8.7-1,.2a66.2,66.2,0,0,0-7.1,4,51.3,51.3,0,0,0-4.8,4.4l-.5,1.2,1.3,12.3Z" fill="#262262"/>
      <path d="M299.8,175.6a44.2,44.2,0,0,1,25.6,32.7c4.9,26.1-12.7,39.2-12.7,39.2l.5-5.7s8.9-9.6,4.8-31.8c-1.8-9.6-14.5-21.7-14.5-21.7Z" fill="#262262"/>
      <path d="M260.2,251.7s18.3-3.1,26.6-4.7c17.3-3.2,26.4-5.3,26.4-5.3l-.3,5.6a44.8,44.8,0,0,1-6.1,5.8,42.1,42.1,0,0,1-6.3,3.4,1.6,1.6,0,0,1-1.3,0l-.2.7a70.1,70.1,0,0,1-9.8,3.5c-3.3.7-10.2.6-10.2.6l-1-.4-1.1.2a55.2,55.2,0,0,1-8-1.3,44.4,44.4,0,0,1-6.1-2.4l-.8-.9-1.5-3.1Z" fill="url(#a293c2c3-9791-4b34-a7d0-9798dc8e07b4)"/>
      <path d="M278.4,208c-11.6,2.1-34.3,8.4-34.3,8.4l.3.9s22.6-6.3,34.1-8.4,37.7-4.6,37.7-4.6v-.9s-25.2,2.3-37.7,4.6Zm-31.6,26.4v.9s23.4-2,35-4,37-9,37-9l-.3-.9s-24.4,6.7-36.8,8.9-35,4.1-35,4.1Z" fill="#010101" opacity="0.1" style="isolation: isolate"/>
      <path d="M283.5,171.3h0s.7,2.4.9,3.4c.7,6-.1,17.5-.3,19.3l1.1-.2c.1-2.5.9-13.2.2-19.2-.2-1-.6-2.6-.8-3.3l-.7.4-.4-.4Zm-20.3,4.1-.6.5h-.4a25.1,25.1,0,0,0,.4,2.7c1.4,5.8,5.7,15.3,6.8,17.8h1.1c-.9-1.9-5.5-12.1-6.9-17.9-.2-.8-.3-2.4-.4-3.1Z" fill="#010101" opacity="0.1" style="isolation: isolate"/>
      <path d="M296.2,245.2l-1,.2a82.9,82.9,0,0,1,3.9,11.1.3.3,0,0,0,.1.2v-.2a1.8,1.8,0,0,0,1,.1c0-.1-.1-.2-.1-.4a92.1,92.1,0,0,0-3.9-11Zm-19.1,3.6a87.6,87.6,0,0,0,.2,11.6,1.3,1.3,0,0,1,.1.6h.6l.5.2c-.1-.3-.1-.6-.2-.9a88.4,88.4,0,0,1-.1-11.6l-1.1.2Z" fill="#010101" opacity="0.1" style="isolation: isolate"/>
      <path d="M278.4,208.3c-11.4,2.1-33.2,8.2-33.8,8.4v.2c.7-.2,22.5-6.3,33.9-8.4s36.7-4.4,37.3-4.5v-.2c-.7.1-25.1,2.3-37.4,4.5Zm-31.2,26.4v.2c.6,0,23.2-2,34.6-4s35.9-8.7,36.5-8.8v-.2c-.6.1-24.3,6.6-36.6,8.8s-33.9,3.9-34.6,4Z" fill="#010101" opacity="0.3" style="isolation: isolate"/>
    </g>
    <g>
      <g>
        <path d="M29.6,20.4a1.2,1.2,0,0,1-.5,1l-4.9,4.9-5.2-3v-3a1.5,1.5,0,0,1,1.5-1.5,1.6,1.6,0,0,1,1.6,1.5h0v3.8l4.8-4.8a1.4,1.4,0,0,1,2.2,0,1.3,1.3,0,0,1,.5,1.1" fill="#262262"/>
        <path d="M28,34.5h-.6l-.5-.3-4.8-4.9V33a1.6,1.6,0,0,1-1.6,1.5A1.5,1.5,0,0,1,19,33V30l5.2-3,4.9,4.9A1.5,1.5,0,0,1,28,34.5" fill="#262262"/>
        <path d="M24,26.6a.3.3,0,0,0-.1-.2h-.1l-1.3-.8-3.5-2-3-1.8a.4.4,0,0,0-.5.2h0v9.1a.3.3,0,0,0,.3.3H16l3-1.7L23.8,27H24Zm-1.2.1c0,.1,0,.2-.1.2l-3.8,2.2-2.3,1.3c-.1.1-.3,0-.4-.1h0V23.1c0-.1.1-.2.3-.2h.1l2.3,1.4,3.8,2.1c.1.1.2.2.1.3Z" fill="#262262"/>
        <path d="M21.8,26.7a.1.1,0,0,1-.1.1l-2.9,1.7-1.7,1h-.3V24a.2.2,0,0,1,.2-.2h.1l1.7,1,2.9,1.7a.1.1,0,0,1,.1.1h0" fill="#262262"/>
      </g>
      <g>
        <path d="M55.1,26.5c0-.1,0-.2-.1-.2l-4.3-2.2L48,22.8c-.2-.1-.4,0-.4.3v7.1a.4.4,0,0,0,.5.3l2.6-1.4L55,26.8c.1,0,.1-.1.1-.2Zm-1,.1H54l-3.3,1.8-2.1,1.1c-.1.1-.3,0-.3-.2V23.8c0-.1.1-.2.3-.2h.1l2,1L54,26.4a.1.1,0,0,1,.1.1Z" fill="#262262"/>
        <path d="M53.2,26.6h-.1L50.6,28l-1.6.8h-.2V24.5c0-.1.1-.2.2-.1H49l1.5.8,2.6,1.2a.1.1,0,0,0,.1.1h0" fill="#262262"/>
        <path d="M32.7,22.9h3.8c1.8,0,3.1,1,3.1,2.5s-1.3,2.5-3.1,2.5H34.6v2.5H32.8Zm3.6,3.5c.9,0,1.5-.4,1.5-1s-.6-1.1-1.5-1.1H34.5v2.1Z" fill="#262262"/>
        <path d="M46.7,29v1.4H40.8V23h1.8v6Z" fill="#262262"/>
        <path d="M57.1,27.6l-3.4-4.7h2.1l2.1,3.3,2.2-3.3h2l-3.2,4.8v2.7H57.1Z" fill="#262262"/>
        <path d="M63.2,23.3h1v4.2l4.2-4.2h1.2l-3.4,3.4,3.8,4H68.7l-3.2-3.5-1.3,1.3v2.2h-1Z" fill="#262262"/>
        <path d="M70.4,26.9A4.1,4.1,0,0,1,74.7,23,4.2,4.2,0,0,1,79,26.8a4.1,4.1,0,0,1-4.3,3.9A4.2,4.2,0,0,1,70.4,26.9Zm7.6-.1a3.1,3.1,0,0,0-3.3-3,3.2,3.2,0,0,0-3.3,3.1,3.1,3.1,0,0,0,3.3,3A3.2,3.2,0,0,0,78,26.8Z" fill="#262262"/>
        <path d="M80.2,29.6l.6-.7a3.5,3.5,0,0,0,2.7,1c1.3,0,1.9-.6,1.9-1.3s-.8-1.1-2.2-1.4-2.8-.7-2.8-2S81.6,23,83.2,23a4.5,4.5,0,0,1,2.9,1l-.6.7a3.6,3.6,0,0,0-2.4-.9c-1,0-1.7.6-1.7,1.3s.8,1,2.2,1.3,2.8.8,2.8,2.1-1,2.2-2.9,2.2A4.9,4.9,0,0,1,80.2,29.6Z" fill="#262262"/>
        <path d="M88.1,23.3h1l3.1,5.2,3-5.2h1v7.4h-1V25l-3.1,5.2-3.1-5.1v5.6h-1Z" fill="#262262"/>
        <path d="M98,26.9a4.3,4.3,0,0,1,8.5-.1,4,4,0,0,1-4.2,3.9A4.1,4.1,0,0,1,98,26.9Zm7.6-.1a3.2,3.2,0,0,0-3.4-3,3.1,3.1,0,1,0,.1,6.1,3.2,3.2,0,0,0,3.3-3.1Z" fill="#262262"/>
        <path d="M107.8,29.6l.5-.7a3.7,3.7,0,0,0,2.8,1c1.3,0,1.9-.6,1.9-1.3s-.8-1.1-2.3-1.4-2.7-.7-2.7-2,1.2-2.2,2.8-2.2a4.5,4.5,0,0,1,2.9,1l-.6.7a3.6,3.6,0,0,0-2.4-.9c-1,0-1.8.6-1.8,1.3s.9,1,2.3,1.3,2.7.8,2.8,2.1-1,2.2-3,2.2A4.8,4.8,0,0,1,107.8,29.6Z" fill="#262262"/>
      </g>
    </g>
    <g>
      <rect x="89.9" y="125.7" width="155.2" height="17.23" fill="#262262"/>
      <rect x="86" y="105.3" width="163" height="17.23" fill="#262262"/>
    </g>
    <g>
      <g>
        <path d="M233.4,196.5l-14.6-1,8.2-12.1Zm-13.3-1.6,12.1.8-5.3-10.9Z" fill="#ed1c24"/>
        <polygon points="223.6 185.1 219.5 190.6 226.3 191.4 223.6 185.1" fill="#262262"/>
      </g>
      <g>
        <path d="M200.7,257.4l-7.1-17.1,18.3,2.4Zm-5.7-16,5.9,14.2,9.4-12.2Z" fill="#ed1c24"/>
        <polygon points="193.1 245.1 196 253.3 201.6 246.7 193.1 245.1" fill="#262262"/>
      </g>
      <g>
        <path d="M312.5,293.9l-5.8-14.1,15.1,2Zm-4.7-13.2,4.9,11.8,7.8-10.2Z" fill="#ed1c24"/>
        <polygon points="316.2 292.3 320.8 286.8 313.8 285.5 316.2 292.3" fill="#262262"/>
      </g>
      <g>
        <path d="M23,119.1a2.6,2.6,0,0,1,0,3.7,2.7,2.7,0,0,1-3.7,0,2.8,2.8,0,0,1,0-3.8A2.6,2.6,0,0,1,23,119.1Z" fill="#262262"/>
        <path d="M22.9,133.4a2.5,2.5,0,0,1,0,3.7,2.6,2.6,0,1,1,0-3.7Z" fill="#262262"/>
        <path d="M30.2,126.3a2.6,2.6,0,0,1-.1,3.7,2.6,2.6,0,1,1-3.7-3.7A2.6,2.6,0,0,1,30.2,126.3Z" fill="#ed1c24"/>
        <path d="M16,126a2.9,2.9,0,0,1-.1,4.1,2.8,2.8,0,0,1-4-.1,2.8,2.8,0,0,1,.1-4A2.8,2.8,0,0,1,16,126Z" fill="#262262"/>
      </g>
      <g>
        <polygon points="14.2 321.8 12.2 323.7 10.3 321.7 8.2 323.8 10.2 325.7 8.2 327.7 10.2 329.8 12.2 327.8 14.1 329.8 16.2 327.7 14.3 325.8 16.2 323.8 14.2 321.8" fill="#ed1c24"/>
        <polygon points="22.7 313.3 20.7 315.3 18.8 313.3 16.7 315.3 18.7 317.3 16.7 319.3 18.8 321.3 20.7 319.4 22.7 321.3 24.7 319.3 22.8 317.3 24.8 315.4 22.7 313.3" fill="#262262"/>
      </g>
      <path d="M251.9,35.6a2.5,2.5,0,0,1-1.2-.2,3.5,3.5,0,0,1-1.8-1.8,3.3,3.3,0,0,1,0-2.4,3.2,3.2,0,0,1,1.8-1.8,3.2,3.2,0,0,1,4.2,1.7h0a3.2,3.2,0,0,1-1.7,4.3Zm0-5.6a1.5,1.5,0,0,0-.9.2,2.1,2.1,0,0,0-1.3,1.3,2.8,2.8,0,0,0,0,1.8,2.4,2.4,0,0,0,1.3,1.3,2.1,2.1,0,0,0,1.9,0,2.5,2.5,0,0,0,1.3-3.2h0A2.4,2.4,0,0,0,251.9,30Z" fill="#262262"/>
    </g>
    <rect x="35.6" y="298.2" width="234.8" height="12.45" fill="#262262"/>
    <rect x="35.9" y="315.1" width="170.9" height="12.45" fill="#262262"/>
    <g>
      <path d="M28.9,276.9A6.3,6.3,0,0,1,28,280c-.7,1.1-1.4,2-2.1,3l-1.4,1.9c-.3.4-.7.4-.9.1a21.4,21.4,0,0,1-1.3-1.9l-2.2-2.9a6,6,0,0,1-1-3.2,4.9,4.9,0,0,1,4.5-4.8,5,5,0,0,1,5.3,4.1C28.9,276.5,29,276.8,28.9,276.9Zm-3.3.2a1.6,1.6,0,0,0-3.2,0,1.7,1.7,0,0,0,1.6,1.6A1.6,1.6,0,0,0,25.6,277.1Z" fill="#262262"/>
      <path d="M23.6,286.6a15.9,15.9,0,0,0,4-.4,1.9,1.9,0,0,0,.9-.4c.3-.3.3-.5.1-.7a2.2,2.2,0,0,0-1.1-.5,4.5,4.5,0,0,0-1.6-.3c-.2-.1-.2-.1-.1-.3s.3-.5.9-.4l2,.7.6.5a.8.8,0,0,1-.1,1.2,3.2,3.2,0,0,1-1.6.9,15.7,15.7,0,0,1-3,.5,17.2,17.2,0,0,1-3.9-.4,4.7,4.7,0,0,1-1.5-.6h-.1c-.8-.6-.8-1.3,0-1.8a7,7,0,0,1,2.4-.9h.2a.7.7,0,0,1,.4.5h-.5l-1.5.4-.7.4c-.2.2-.2.4.1.6l.8.4A10.6,10.6,0,0,0,23.6,286.6Z" fill="#262262"/>
    </g>
    <g>
      <path d="M316.9,36.5l-65.5,3.8c-5,.3-9.5-1.5-10-4L238,21.8c-.5-2.5,3-4.7,8-5L311.5,13c4.9-.3,9.4,1.5,10,4l3.4,14.5C325.4,34,321.9,36.3,316.9,36.5Z" fill="#262262"/>
      <g>
        <rect x="240.9" y="15.2" width="81" height="22.86" rx="6.2" fill="#ed1c24"/>
        <path d="M313.2,38.4H249.7c-5.1,0-9.3-2.1-9.3-4.7V19.6c0-2.5,4.2-4.6,9.3-4.6h63.5c5.1,0,9.3,2.1,9.3,4.6V33.7C322.5,36.3,318.3,38.4,313.2,38.4ZM249.7,15.5c-4.6,0-8.2,1.8-8.2,4.1V33.7c0,2.3,3.6,4.1,8.2,4.1h63.5c4.5,0,8.2-1.8,8.2-4.1V19.6c0-2.3-3.7-4.1-8.2-4.1Z" fill="#ed1c24"/>
      </g>
    </g>
    <path d="M63.4,232.5H62.3V210.6h1.1Z" fill="#fff"/>
  </g>
</svg>
