<?xml version="1.0" encoding="UTF-8"?>
<svg id="uuid-c8fca4db-e62f-4859-bf40-ca18625cf103" data-name="Layer 1" xmlns="http://www.w3.org/2000/svg" width="335" height="335" viewBox="0 0 335 335">
  <polygon points="335.3 42.5 335.3 49.7 174.4 190.6 174.4 183.3 335.3 42.5" fill="#fff" opacity=".9"/>
  <polygon points="335.3 27.8 335.3 35.1 174.4 176 174.4 168.7 335.3 27.8" fill="#fff" opacity=".9"/>
  <path d="M122.5-2.2c-3.1,.2-6.2,.4-9.3,.5-4.9,.2-13.5,.8-20.6-.5h-8.8c0,0-.2,0-.2,0-1.3,.4-2.5,.3-3.4,0H.3V334.2L335.3,85.9V-2.2H122.5Z" fill="#dc4415"/>
  <polygon points="335.3 73.6 335.3 79.7 .3 327.1 .3 321 335.3 73.6" fill="#111727"/>
  <path d="M335.3,61.9v6.1l-107.6,79.5-31.9,23.5c-1.3-1.4-2.5-2.8-3.2-3.7l24.2-17.8,118.6-87.6Z" fill="#111727"/>
  <path d="M335.3,49.6v6.1l-125.3,92.6h0l-20.6,15.2c-.4-.7-.9-1.4-1.4-2.3-.4-.8,.6-2,2.3-3.1-.2-.3-.4-.5-.7-.9l10.4-7.7,1.1-.8h0l4.2-3.1L335.3,49.6Z" fill="#111727"/>
  <polygon points="335.3 85.5 335.3 335 .3 335 .3 333.7 335.3 85.5" fill="#111727"/>
  <polygon points="335.3 91.7 335.3 97.8 17.1 335 8.8 335 335.3 91.7" fill="#fff"/>
  <path d="M325.5,192.7c-2.6,0-4.7,2.1-4.7,4.7s.3,2,.9,2.8h0l3.8,6.5,3.8-6.5c.6-.8,.9-1.7,.9-2.8,0-2.6-2.1-4.7-4.7-4.7Zm0,6.8c-1.1,0-2.1-.9-2.1-2.1s.9-2.1,2.1-2.1,2.1,.9,2.1,2.1-.9,2.1-2.1,2.1Z" fill="#fff"/>
  <rect x="228.3" y="165.4" width="105.3" height="23.4" fill="none" stroke="#dc4415" stroke-miterlimit="10" stroke-width="2"/>
  <rect x="10.8" y="80.2" width="6.1" height="6.1" fill="none" stroke="#fff" stroke-miterlimit="10"/>
  <rect x="10.8" y="116" width="6.1" height="6.1" fill="none" stroke="#fff" stroke-miterlimit="10"/>
  <g>
    <path d="M112.6,60.8c-.8,1.2-1.8,2.5-2.8,3.9-.4,.6-.8,1.1-1.3,1.7-2.3,3.1-4.8,6.5-7.4,9.9-.4,.5-.8,1-1.2,1.5-.6,.8-1.2,1.6-1.9,2.4-3.8,4.9-7.3,9.2-9.4,11.3-7,7-16.9,22-24.6,31.6-5.3,6.6-13.8,21.2-18.5,29.6-.5,.8-.9,1.6-1.3,2.3,.4-.7,.8-1.5,1.3-2.4-.4-1.3-1.1-1.5-2.1,.2l-1.9,3.2-11.3-6.7c.6-1.1,1.3-2.6,2.1-4.8,0-.2,.2-.5,.3-.7,0-.1,.1-.3,.2-.5,.5-1.1,1.1-2.7,1.9-4.7,5-11.7,15.6-35.4,18.2-42.4,3.2-8.6,20.1-23.6,23.6-28.1,.2-.3,.5-.7,.7-1.2,0,0,0,0,0,0,.3-.5,.6-1.2,.9-2,.3-.8,.6-1.6,1-2.6,0-.2,.2-.5,.3-.7,.6-1.7,1.3-3.7,2-5.9,0-.3,.2-.6,.3-.9,.3-.9,.6-1.9,.9-2.9,.1-.3,.2-.7,.3-1,.2-.8,.5-1.5,.7-2.3,.2-.6,.3-1.1,.5-1.7,0,0,0-.1,0-.2,.3-.9,.6-1.9,.8-2.8,.3-1.1,.6-2.2,.9-3.3,.2-.6,.3-1.1,.5-1.7,.5-1.7,.9-3.4,1.4-5,0-.3,.2-.6,.2-.8,.6-2.3,1.2-4.3,1.6-6,0,.1,0,.2,.1,.3,.2,.5,.4,1,.6,1.5,.1,.2,.2,.5,.3,.8,2.5,5.4,6.9,11.9,11.8,18.5,.5,.6,.9,1.2,1.4,1.8,2.8,3.6,5.8,7.2,8.7,10.6Z" fill="#111727"/>
    <path d="M103.9,50.2c2.8,3.6,5.8,7.2,8.7,10.6-.8,1.2-1.8,2.5-2.8,3.9-.4,.6-.8,1.1-1.3,1.7-2.3,3.1-4.8,6.5-7.4,9.9-.4,.5-.8,1-1.2,1.5-.6,.8-1.2,1.6-1.9,2.4-10.5-2.9-17.1-8.6-20.9-13.2,0,0,0,0,0,0,.3-.5,.6-1.2,.9-2,.3-.8,.6-1.6,1-2.6,0-.2,.2-.5,.3-.7,.6-1.7,1.3-3.7,2-5.9,0-.3,.2-.6,.3-.9,.3-.9,.6-1.9,.9-2.9,.1-.3,.2-.7,.3-1,.2-.8,.5-1.5,.7-2.3,.2-.6,.3-1.1,.5-1.7,0,0,0-.1,0-.2,.3-.9,.6-1.9,.8-2.8,.3-1.1,.6-2.2,.9-3.3,.2-.6,.3-1.1,.5-1.7,.5-1.7,.9-3.4,1.4-5,0-.3,.2-.5,.2-.8,.6-2.3,1.2-4.3,1.6-6,0,.1,0,.2,.1,.3,.2,.5,.4,1,.6,1.5,.1,.2,.2,.5,.3,.8,2.5,5.4,6.9,11.9,11.8,18.5,.5,.6,.9,1.2,1.4,1.8Z" fill="#111727"/>
    <path d="M49.4,145.4c-1.4,2.7-2.7,5.2-3.8,7.3-.4-1.3-1.1-1.5-2.1,.2l-1.9,3.2-11.3-6.7c.6-1.1,1.3-2.6,2.1-4.8,0-.2,.2-.5,.3-.7,0-.1,.1-.3,.2-.5,.4-1.1,1-2.5,1.8-4.8,0,0,.1,0,.2,.1,3.1,2.1,9,5.1,14.7,6.7Z" fill="#111727"/>
    <g>
      <path d="M60.3,174.2c-1.6,1-5.3,2.6-12,1.7-9.9-1.3-9.9-4.2-15.3-8.9-3.6-3.2-9-4.7-12.1-5.3,2.1-3.5,6.1-7.8,6.1-9.1,0-1.9,2.2-3.8,2.2-3.8l1.1,.7,11.3,6.7,1.9-3.2c1-1.7,1.7-1.5,2.1-.2-.5,.9-.9,1.7-1.3,2.4,.4-.7,.8-1.5,1.3-2.3,.4,1.2,.6,3.2,.7,5.5,.3,5.1,1.6,5.8,1.6,5.8,0,0,2.2,2.9,4.5,5.1,1.7,1.7,5.9,3.5,7.9,5Z" fill="#111727"/>
      <path d="M45.6,152.7c-.5,.8-.9,1.6-1.3,2.3,.4-.7,.8-1.5,1.3-2.4,0,0,0,0,0,0Z" fill="#111727"/>
      <path d="M61.4,175.5c0,1.6-1.6,4.5-9.9,4.2-8.3-.3-9.6-2.6-16.3-7-6.7-4.5-13.4-4.5-15.3-7-.2-.3-.3-.8-.2-1.3,0,0,0-.2,0-.3,.1-.5,.3-1,.6-1.6,0-.1,.1-.3,.2-.4,0-.1,.2-.3,.3-.5,3.1,.6,8.5,2.1,12.1,5.3,5.4,4.8,5.4,7.7,15.3,8.9,6.8,.9,10.4-.6,12-1.7,.2,.1,.3,.2,.5,.4,0,0,.1,.1,.2,.2,.3,.3,.5,.6,.5,.8Z" fill="#111727"/>
      <path d="M61.4,175.5c0,1.6-1.6,4.5-9.9,4.2-8.3-.3-9.6-2.6-16.3-7-6.7-4.5-13.4-4.5-15.3-7-.2-.3-.3-.8-.2-1.3,0,0,0-.2,0-.3,.1-.5,.3-1,.6-1.6,0-.1,.1-.3,.2-.4,0-.1,.2-.3,.3-.5,3.1,.6,8.5,2.1,12.1,5.3,5.4,4.8,5.4,7.7,15.3,8.9,6.8,.9,10.4-.6,12-1.7,.2,.1,.3,.2,.5,.4,0,0,.1,.1,.2,.2,.3,.3,.5,.6,.5,.8Z" fill="#111727"/>
    </g>
    <path d="M189.3,155.4s-6.5,3-9.9,5.8c-.2-.3-.4-.6-.6-.9-.5-.7-1.1-1.6-1.8-2.5-.1-.2-.3-.4-.4-.5-1.6-2.3-3.5-5-5.7-8-7.2-10.1-16.4-23.2-21.6-30.6-9.3-13.1-10.6-32.3-10.6-32.3l-8.3-7c-.4-.3-.7-.6-1.2-1,2.5-3.4,9.7-11.1,25-12.9,2.8,6.2,6.2,14.6,7.5,20.3,2.2,9.9,16,39.6,18.5,49.5,.6,2.2,1.4,4.3,2.4,6.4,.9,1.9,1.9,3.7,2.9,5.3,.2,.4,.5,.8,.7,1.2,.2,.3,.4,.6,.6,.9,0,0,0,0,0,0,.2,1.4,.5,2.5,.8,3.4,.7,2.1,1.5,2.9,1.5,2.9Z" fill="#111727"/>
    <path d="M154.4,65.4c-15.3,1.9-22.5,9.5-25,12.9-.2-.2-.4-.3-.6-.6-.2-.1-.3-.3-.5-.5-.1,0-.2-.2-.3-.3-.4-.4-.9-.8-1.3-1.2-.9-.8-1.8-1.8-2.7-2.7-.3-.3-.6-.6-.9-.9-3.1-3.2-6.7-7.1-10.4-11.4-2.9-3.4-5.9-7-8.7-10.6-.5-.6-.9-1.2-1.4-1.8-5-6.5-9.3-13-11.8-18.5-.1-.3-.2-.5-.3-.8-.2-.5-.4-1-.6-1.5,0-.1,0-.2-.1-.3h0c-4.6-11.9-3.9-21.2-3.2-25.3,.3,.3,.8,.6,1.4,.9,1.7,.7,17.8,7.1,34.8,7.1s10.3-.7,12-1.5l-2.3,14.3s17.3,32.6,18.2,34.2c.1,.2,.5,.9,.9,1.8,0,.1,.1,.3,.2,.5,0,0,0,0,0,.1,0,.1,.1,.3,.2,.4,0,0,0,.2,.1,.2,.2,.4,.4,.9,.7,1.4,.5,1.2,1.1,2.5,1.8,3.9Z" fill="#111727"/>
    <path d="M189.3,155.4s-6.5,3-9.9,5.8c-.2-.3-.4-.6-.6-.9-.5-.7-1.1-1.6-1.8-2.5-.1-.2-.3-.4-.4-.5-1.6-2.3-3.5-5-5.7-8,5.1-2.2,9.1-5.1,11.8-7.5h0c.9,1.9,1.9,3.6,2.9,5.3,.2,.4,.5,.8,.7,1.2,.2,.3,.4,.6,.6,.9,0,0,0,0,0,0,.2,1.4,.5,2.5,.8,3.4,.7,2.1,1.5,2.9,1.5,2.9Z" fill="#111727"/>
    <path d="M189.4,152.7c-.3-.4-.6-.8-.9-1.3,.3,.5,.6,.9,.9,1.3Z" fill="#111727"/>
    <g>
      <path d="M220.9,146.8c-.3-.2-.6-.3-1.1-.3,.5,0,.8,0,1.1,.3Z" fill="#111727"/>
      <path d="M219.8,146.5h0s0,0,0,0Z" fill="#111727"/>
      <path d="M217.5,147.4c-1.7,1-3.7,2.2-5.9,3.1-2.7,1.1-5.6,2-8.8,2s-.4,0-.6,0c-2.2,0-4.2-.7-5.8-1.3h0c-2.2-.9-3.5-1.9-3.5-1.9l-.5-.8-1.4-2.1s-4.8-4.5-4.2,1.3c0,.5,.1,.9,.2,1.3,0,0,0,0,0,0,.2,1.4,.5,2.5,.8,3.4,.7,2.1,1.5,2.9,1.5,2.9,0,0-6.5,3-9.9,5.8-1.4,1.2-2.3,2.3-1.9,3.2,.4,.9,.8,1.7,1.2,2.3,.9,1.5,1.7,2.5,1.7,2.5,0,0,.4,.6,1,1.5,.7,1,1.7,2.4,2.8,3.8,.8,1,1.7,2.1,2.6,3,.4-.2,.8-.6,1.4-.9,3.5-2.4,10-6.9,13.6-10.2,4.5-4.2,13.3-9.3,16.7-16.3,.5-1,.9-2.1,1.1-3.2,0-.1,0-.2,0-.3-.6,0-1.4,.4-2.3,.9Zm-28.7,4.3c0-.1-.1-.2-.2-.3,0,.1,.1,.2,.2,.3,.2,.4,.5,.7,.7,1-.2-.3-.5-.6-.7-1Z" fill="#111727"/>
      <path d="M187,149.1s0,0,0,0c.5,.8,1.1,1.6,1.5,2.3-.5-.7-1-1.4-1.5-2.2Z" fill="#111727"/>
      <path d="M189.4,152.7c-.3-.4-.6-.8-.9-1.3,.3,.5,.6,.9,.9,1.3Z" fill="#111727"/>
      <path d="M220.7,152.2c-1.6,5.1-8.3,13.7-13.7,16.3-5.4,2.6-11.5,10.5-15,11.8-.2,0-.3,0-.6,0s-.2,0-.4,0c-.1,0-.2,0-.4,0-.5-.1-.9-.4-1.4-.8-.2-.1-.3-.2-.5-.3-.1,0-.2-.2-.3-.3-.2-.2-.4-.3-.6-.5-.2-.2-.4-.4-.6-.6-.1-.1-.2-.2-.3-.3,2.8-1.8,10.8-7.3,15-11.2,5.1-4.8,16-10.9,17.9-19.5,0-.1,0-.2,0-.3,.5,0,.8,0,1.1,.3,.8,.7,.7,2.5-.2,5.4Z" fill="#111727"/>
      <path d="M220.7,152.2c-1.6,5.1-8.3,13.7-13.7,16.3-5.4,2.6-11.5,10.5-15,11.8-.2,0-.3,0-.6,0s-.2,0-.4,0c-.1,0-.2,0-.4,0-.5-.1-.9-.4-1.4-.8-.2-.1-.3-.2-.5-.3-.1,0-.2-.2-.3-.3-.2-.2-.4-.3-.6-.5-.2-.2-.4-.4-.6-.6-.1-.1-.2-.2-.3-.3,2.8-1.8,10.8-7.3,15-11.2,5.1-4.8,16-10.9,17.9-19.5,0-.1,0-.2,0-.3,.5,0,.8,0,1.1,.3,.8,.7,.7,2.5-.2,5.4Z" fill="#111727"/>
    </g>
    <path d="M135.6-1.3c-4.5,0-9,.1-13.4-.8h-.6c-.3,.3-.5,.6-.6,.7-1,1-8.3,2.9-10.5,2.2-.5-.2-1.4-.8-2.3-1.6-1.8,.1-3.6,.2-5.4,.3-4.1,.1-11.4,.8-17-.7-.1,1.4-.2,2.2-.2,2.2,0,0,.2,.5,.9,1.1,.3,.3,.8,.6,1.4,.9,1.7,.7,17.8,7.1,34.8,7.1s10.3-.7,12-1.5c2.6-1.2,1.3-2.7,1.3-2.7,0,0,0-2.5-.1-7.2Z" fill="#111727"/>
    <path d="M108.1-.8c1,.8,1.8,1.4,2.3,1.6,2.2,.6,9.6-1.3,10.5-2.2,.1-.1,.4-.4,.6-.6-4.5,.5-9,1-13.5,1.3Z" fill="#111727"/>
  </g>
  <g id="uuid-a436e916-0aee-4093-84b3-f846062a7aaf" data-name="PRINT">
    <g>
      <g>
        <path d="M30.5,13.8c0,.6-.2,1.1-.6,1.5l-6.8,6.8-7.2-4.2v-4.1c0-1.2,1-2.1,2.1-2.1s2.1,1,2.1,2.1h0v5.2l6.7-6.7c.8-.8,2.2-.8,3,0,.4,.4,.6,.9,.6,1.5h0Z" fill="#fff"/>
        <path d="M29.9,32.8c-.4,.4-.9,.6-1.5,.6s-.6,0-.8-.2c-.3-.1-.5-.3-.7-.5l-2.3-2.3-4.4-4.4v5.2c0,1.2-1,2.1-2.1,2.1s-2.1-1-2.1-2.1v-4.1l7.2-4.2,4.5,4.5,2.3,2.3c.8,.8,.8,2.2,0,3Z" fill="#fff"/>
        <path d="M22.8,22.4c0-.1-.1-.2-.2-.3,0,0,0,0,0,0l-1.8-1-4.9-2.8-4.1-2.4c-.2-.1-.5,0-.7,.2,0,0,0,.2,0,.2v12.5c0,.3,.2,.5,.5,.5s.2,0,.2,0l4.1-2.4,6.7-3.9s0,0,0,0c0,0,.1-.1,.1-.2,0-.1,0-.2,0-.3Zm-10.2-5l3.2,1.9,5.2,3c0,0,.1,0,.1,.1h0c0,.1,0,.2,0,.3,0,0,0,.2-.2,.2l-5.2,3-3.2,1.9c-.2,.1-.4,0-.5-.1,0,0,0-.1,0-.2v-9.7c0-.2,.2-.4,.4-.4s.1,0,.2,0Z" fill="#fff"/>
        <path d="M19.8,22.6c0,0,0,.1-.1,.2l-3.9,2.2-2.4,1.4c-.1,0-.3,0-.4-.1,0,0,0,0,0-.1v-7.3c0-.2,.1-.3,.3-.3s.1,0,.1,0l2.4,1.4,3.9,2.2c0,0,.1,0,.1,.2,0,0,0,.1,0,.2h0Z" fill="#fff"/>
      </g>
      <g>
        <path d="M65.6,22l-6-3-3.7-1.8c-.2-.1-.5,0-.6,.2,0,0,0,.1,0,.2v9.9c.1,.2,.4,.4,.6,.4,0,0,.1,0,.2,0h.2l3.4-1.9,2.1-1.1,3.8-2c0,0,.2-.1,.2-.2,0,0,0-.1,0-.2,0-.1-.1-.2-.2-.2Zm-6,3l-2.8,1.5c-.2,.1-.4,0-.5-.1,0,0,0,0,0-.1v-7.7c0-.2,0-.3,.3-.3,0,0,0,0,.1,0l2.8,1.4,1,.5,3.6,1.8c0,0,.1,0,.2,.2,0,0,0,.1,0,.2h0s0,0,0,0c0,0,0,.1-.1,.1l-4.6,2.4Z" fill="#fff"/>
        <path d="M63.1,22.5c0,0,0,.1-.1,.1l-3.4,1.8-2.1,1.1c-.1,0-.3,0-.3,0,0,0,0,0,0-.1v-5.8c0-.1,0-.2,.2-.2,0,0,0,0,0,0l2.1,1.1,3.5,1.8c0,0,0,0,.1,.1,0,0,0,0,0,.1h0Z" fill="#fff"/>
        <path d="M40,17.3h-5.2v10.4h2.6v-3.4h2.7c2.5,0,4.3-1.5,4.3-3.6,0-2-1.9-3.5-4.4-3.4Zm-.2,4.9h-2.4v-2.9h2.4c1.2,0,2.1,.5,2.1,1.4,0,.9-.8,1.5-2,1.5Z" fill="#fff"/>
        <polygon points="54.2 27.7 46 27.8 45.8 17.5 48.3 17.5 48.4 25.8 54.1 25.7 54.2 27.7" fill="#fff"/>
        <polygon points="71 23.8 71 27.5 68.5 27.5 68.5 23.8 63.9 17.3 66.8 17.3 69.7 21.8 72.6 17.2 75.4 17.2 71 23.8" fill="#fff"/>
        <polygon points="86.3 28 84.6 28 80.2 23.3 78.4 25 78.4 28.1 77.1 28.1 77 17.8 78.3 17.8 78.4 23.5 84.1 17.8 85.8 17.7 81.1 22.5 86.3 28" fill="#fff"/>
        <path d="M92.8,17.5c-3.2,0-5.9,2.5-5.8,5.4,0,2.9,2.8,5.3,6,5.3,3.2,0,5.8-2.5,5.8-5.4,0-2.9-2.8-5.3-5.9-5.2Zm.4,9.6c-2.5,.2-4.7-1.7-4.9-4.2,.1-2.3,1.9-4.1,4.2-4.3,2.5-.2,4.7,1.7,4.9,4.2-.1,2.3-1.9,4.1-4.2,4.3Z" fill="#fff"/>
        <path d="M108.9,25.1c0,1.6-1.3,3-4,3-1.7,0-3.3-.5-4.5-1.6l.8-.9c1,1,2.4,1.5,3.8,1.4,1.8,0,2.7-.9,2.7-1.8,0-1.1-1.1-1.5-3.1-1.9-2.3-.5-3.8-1.1-3.8-2.9,0-1.6,1.6-3,3.8-3,1.5,0,2.9,.5,4.1,1.4l-.8,.9c-.9-.8-2.1-1.3-3.3-1.3-1.4,0-2.4,.9-2.4,1.8,0,1.1,1.2,1.4,3.1,1.8,2.2,.4,3.8,1.1,3.8,2.9Z" fill="#fff"/>
        <polygon points="122.6 28 121.3 28 121.2 20.2 117 27.5 112.7 20.4 112.8 28.1 111.5 28.1 111.3 17.8 112.7 17.8 117 25 121.2 17.7 122.5 17.7 122.6 28" fill="#fff"/>
        <path d="M130.8,17.5c-3.2,0-5.9,2.5-5.8,5.4,0,2.9,2.8,5.3,6,5.3,3.2,0,5.9-2.5,5.8-5.4,0-2.9-2.8-5.3-5.9-5.2Zm.4,9.6c-2.5,.2-4.7-1.7-4.9-4.2,.1-2.3,1.9-4.1,4.2-4.3,2.5-.2,4.7,1.7,4.9,4.2-.1,2.3-1.9,4.1-4.2,4.3Z" fill="#fff"/>
        <path d="M147,25.1c0,1.6-1.3,3-4,3-1.7,0-3.3-.5-4.6-1.6l.8-.9c1,1,2.4,1.5,3.8,1.4,1.8,0,2.7-.9,2.6-1.8,0-1.1-1.1-1.5-3.1-1.9-2.3-.5-3.8-1.1-3.8-2.9,0-1.6,1.6-3,3.8-3,1.5,0,2.9,.5,4.1,1.4l-.8,.9c-.9-.8-2.1-1.3-3.3-1.3-1.4,0-2.4,.9-2.4,1.8,0,1.1,1.2,1.4,3.1,1.8,2.2,.4,3.8,1.1,3.8,2.9h0Z" fill="#fff"/>
      </g>
    </g>
  </g>
</svg>