<svg xmlns="http://www.w3.org/2000/svg" xmlns:xlink="http://www.w3.org/1999/xlink" width="335" height="335" data-name="Layer 1"><defs><radialGradient id="b" cx="167.5" cy="167.5" r="167.5" fx="167.5" fy="167.5" gradientUnits="userSpaceOnUse"><stop offset="0" stop-color="#0071bc"/><stop offset="1" stop-color="#1b1464"/></radialGradient><radialGradient id="a" cx="276.9" cy="193.7" r="42.4" fx="276.9" fy="193.7" gradientUnits="userSpaceOnUse"><stop offset="0" stop-color="#fff"/><stop offset=".4" stop-color="#fcfdfd"/><stop offset=".7" stop-color="#f2fafa"/><stop offset="1" stop-color="#e4f4f4"/></radialGradient><radialGradient xlink:href="#a" id="d" cx="4.8" cy="159.6" r="1.8" fx="4.8" fy="159.6"/><radialGradient xlink:href="#a" id="f" cx="4.8" cy="202.6" r="1.8" fx="4.8" fy="202.6"/><radialGradient xlink:href="#a" id="h" cx="4.8" cy="237.1" r="1.8" fx="4.8" fy="237.1"/><radialGradient xlink:href="#a" id="j" cx="18.8" cy="137" r="10.1" fx="18.8" fy="137"/><radialGradient xlink:href="#a" id="k" cx="166.7" cy="271.9" r="118.6" fx="166.7" fy="271.9"/><radialGradient xlink:href="#a" id="m" cx="276.1" cy="271.9" r="50" fx="276.1" fy="271.9"/><radialGradient xlink:href="#b" id="n" cx="279.7" cy="310.3" r="9.7" fx="279.7" fy="310.3"/><radialGradient xlink:href="#b" id="o" cx="288.3" cy="301.7" r="2.9" fx="288.3" fy="301.7" gradientTransform="rotate(-45 288.93 301.12)"/><radialGradient xlink:href="#b" id="p" cx="283.2" cy="306.9" r="5.9" fx="283.2" fy="306.9"/><radialGradient xlink:href="#a" id="r" cx="19.6" cy="70.6" r="26.5" fx="19.6" fy="70.6"/><radialGradient xlink:href="#a" id="s" cx="11.6" cy="67.4" r="24.3" fx="11.6" fy="67.4"/><radialGradient xlink:href="#a" id="t" cx="28.1" cy="67.4" r="24.3" fx="28.1" fy="67.4"/><radialGradient xlink:href="#a" id="u" cx="276.1" cy="271.9" r="57.3" fx="276.1" fy="271.9"/><radialGradient xlink:href="#a" id="w" cx="75.6" cy="22.5" r="54.5" fx="75.6" fy="22.5"/><radialGradient xlink:href="#b" id="y" cx="22.7" cy="16.8" r="6" fx="22.7" fy="16.8"/><radialGradient xlink:href="#b" id="z" cx="22.7" cy="27.4" r="5.9" fx="22.7" fy="27.4"/><radialGradient xlink:href="#b" id="A" cx="16.8" cy="22.1" r="5.9" fx="16.8" fy="22.1"/><radialGradient xlink:href="#b" id="B" cx="16.3" cy="22.1" r="3.5" fx="16.3" fy="22.1"/><radialGradient xlink:href="#b" id="C" cx="57.8" cy="22.1" r="5" fx="57.8" fy="22.1"/><radialGradient xlink:href="#b" id="D" cx="57.3" cy="22" r="2.9" fx="57.3" fy="22"/><radialGradient xlink:href="#b" id="E" cx="38.1" cy="22" r="4.7" fx="38.1" fy="22"/><radialGradient xlink:href="#b" id="F" cx="47.9" cy="22.2" r="4.4" fx="47.9" fy="22.2"/><radialGradient xlink:href="#b" id="G" cx="66.3" cy="21.9" r="5.1" fx="66.3" fy="21.9"/><radialGradient xlink:href="#b" id="H" cx="77.6" cy="22.5" r="4.6" fx="77.6" fy="22.5"/><radialGradient xlink:href="#b" id="I" cx="88" cy="22.3" r="5.3" fx="88" fy="22.3"/><radialGradient xlink:href="#b" id="J" cx="99.2" cy="22.4" r="4.5" fx="99.2" fy="22.4"/><radialGradient xlink:href="#b" id="K" cx="110.7" cy="22.5" r="5.1" fx="110.7" fy="22.5"/><radialGradient xlink:href="#b" id="L" cx="123.8" cy="22.3" r="5.3" fx="123.8" fy="22.3"/><radialGradient xlink:href="#b" id="M" cx="134.9" cy="22.4" r="4.5" fx="134.9" fy="22.4"/><filter id="c" data-name="drop-shadow-17" filterUnits="userSpaceOnUse"><feOffset dy="4"/><feGaussianBlur result="uuid-40d939c4-eb51-40fd-9df8-383cd3ef7578" stdDeviation="3"/><feFlood flood-color="#000" flood-opacity=".8"/><feComposite in2="uuid-40d939c4-eb51-40fd-9df8-383cd3ef7578" operator="in"/><feComposite in="SourceGraphic"/></filter><filter id="e" data-name="drop-shadow-18" filterUnits="userSpaceOnUse"><feOffset dx="3" dy="3"/><feGaussianBlur result="uuid-1f6d8875-8b51-4f5a-a18b-7feec26fcf23" stdDeviation="3"/><feFlood flood-color="#000" flood-opacity=".8"/><feComposite in2="uuid-1f6d8875-8b51-4f5a-a18b-7feec26fcf23" operator="in"/><feComposite in="SourceGraphic"/></filter><filter id="g" data-name="drop-shadow-19" filterUnits="userSpaceOnUse"><feOffset dx="3" dy="3"/><feGaussianBlur result="uuid-f07a3806-eb88-46ad-94bb-6f844439cbe3" stdDeviation="3"/><feFlood flood-color="#000" flood-opacity=".8"/><feComposite in2="uuid-f07a3806-eb88-46ad-94bb-6f844439cbe3" operator="in"/><feComposite in="SourceGraphic"/></filter><filter id="i" data-name="drop-shadow-20" filterUnits="userSpaceOnUse"><feOffset dx="3" dy="3"/><feGaussianBlur result="uuid-44913e83-9216-457f-8f05-aa7ccce52798" stdDeviation="3"/><feFlood flood-color="#000" flood-opacity=".8"/><feComposite in2="uuid-44913e83-9216-457f-8f05-aa7ccce52798" operator="in"/><feComposite in="SourceGraphic"/></filter><filter id="l" data-name="drop-shadow-21" filterUnits="userSpaceOnUse"><feOffset dy="4"/><feGaussianBlur result="uuid-ab4e77f0-e831-4fdf-a2e2-c43024d1f471" stdDeviation="3"/><feFlood flood-color="#000" flood-opacity=".8"/><feComposite in2="uuid-ab4e77f0-e831-4fdf-a2e2-c43024d1f471" operator="in"/><feComposite in="SourceGraphic"/></filter><filter id="q" data-name="drop-shadow-22" filterUnits="userSpaceOnUse"><feOffset dy="4"/><feGaussianBlur result="uuid-3e4a5fe7-8dc1-4f30-af21-d0c526eeda41" stdDeviation="3"/><feFlood flood-color="#000" flood-opacity=".8"/><feComposite in2="uuid-3e4a5fe7-8dc1-4f30-af21-d0c526eeda41" operator="in"/><feComposite in="SourceGraphic"/></filter><filter id="v" data-name="drop-shadow-23" filterUnits="userSpaceOnUse"><feOffset dy="4"/><feGaussianBlur result="uuid-71db4f45-a472-4147-9b04-a5bcfdf6aa0f" stdDeviation="3"/><feFlood flood-color="#000" flood-opacity=".8"/><feComposite in2="uuid-71db4f45-a472-4147-9b04-a5bcfdf6aa0f" operator="in"/><feComposite in="SourceGraphic"/></filter><filter id="x" data-name="drop-shadow-24" filterUnits="userSpaceOnUse"><feOffset dy="4"/><feGaussianBlur result="uuid-a3754b8f-9fc0-46da-8a6f-14296bc91a21" stdDeviation="3"/><feFlood flood-color="#000" flood-opacity=".8"/><feComposite in2="uuid-a3754b8f-9fc0-46da-8a6f-14296bc91a21" operator="in"/><feComposite in="SourceGraphic"/></filter></defs><path fill="url(#b)" d="M0 0h335v335H0z"/><path fill="#ccd4e6" d="M155.3 187.3c2.7-6.2 8.2-19.2 5.5-32.6-.7-3.5-2.1-9.8-7.6-14.7-1.3-1.1-4.8-4.2-10.5-5.2-1-.2-6.1-1-11.8 1.4-3.7 1.6-5.9 3.8-8.4 6.3-2.7 2.8-8.6 8.6-10.8 18-1.1 4.9-1 8.6-.7 15 .1 2.8.4 7 1.6 12.4 1.4 6.1 2.6 7.4 3 12.1.2 3.4-.3 4.1-1 9.9-.6 4.9-1.4 11.9-.3 19.9.8 5.8 1.2 8.8 3.6 12 4.4 5.8 11.3 7.2 13.6 7.5 2.3.3 10.3 1.2 16.5-4.1 6-5.1 6.4-12.4 6.5-14.6.2-3.4-.5-7-1.1-9.9-.6-3.4-1-3.9-1.6-6.6-.3-1.2-1.7-8.1-.7-15.1.7-4.8 2.2-7.3 4.1-11.5Zm-2.2 45.5c0 .4-.2.9-.3 1.3-.2 1.2-.8 2.3-1.2 3.4 0 .2-.2.2-.4.1-1.1-.5-2.3-1.1-3.4-1.6-1.8-.8-3.7-1.7-5.6-2.6-.5-.2-1.1-.5-1.6-.8-.6-.3-.6-1.2 0-1.6 1.2-.6 2.3-1.3 3.5-1.9s.8-.3 1.1-.3h8.3c0 1.3-.2 2.6-.3 3.8Zm-.7-8.5h-8.6c-1 0-1.8.3-2.7.8-1.8 1.1-3.7 2.2-5.6 3.4-.2.1-.5.3-.7.4-1 .5-1.8.1-2.6-.4-1.9-1.2-3.8-2.3-5.7-3.5-.9-.6-1.8-.7-2.8-.7h-8.5v-4.4h9.2c.7 0 1.3-.2 1.8-.6 1.5-.9 3.1-1.8 4.6-2.8.6-.4 1.2-.8 1.9-1.1.8-.5 1.7-.5 2.5 0 1.9 1.1 3.7 2.2 5.6 3.4.5.3 1.1.6 1.6.9.3.1.6.2 1 .2h9c.2 1.4.4 2.9.7 4.4h-.6Zm-31.7-63.9-6.5-1.5c.6-1.7 1.1-3.3 1.9-4.8 1.5.5 3 1 4.4 1.4.6.2 1.2.4 1.9.7.4.1.5.5.4.9 0 .3-.3.7-.4 1-.2.5-.3 1-.4 1.5-.1.6-.8 1-1.4.9Zm.1 4.8c0 .8-.1 1.6-.2 2.4 0 .6-.5.9-1.1.8-1.6 0-3.1-.2-4.7-.3-.8 0-1.6 0-2.5-.2.3-1.7.5-3.4.8-5.2.8.2 1.5.3 2.2.4 1.6.3 3.2.6 4.7 1 .5.1.8.5.8 1Zm16.8-10.2c.6-.1 1.1 0 1.6.2 1.8.8 3.6 1.5 5.4 2.3l3.6 1.5c.5.2.7.6.8 1.1V162.5c.1.7-.8 1.3-1.5 1-1.7-.8-3.4-1.5-5.1-2.3-1.8-.8-3.5-1.6-5.3-2.4-.3-.1-.6 0-.9 0-3.2 1.1-6.4 2.1-9.5 3.2-.5.2-.9.3-1.4.5-.5.2-.9 0-1.2-.4-.3-.3 0-.7 0-1 .2-.6.4-1.3.6-2 .1-.4.3-.8.5-1.1.1-.2.4-.4.6-.4 3.9-.8 7.8-1.7 11.7-2.5Zm-7.2-4c.8-1.3 1.7-2.5 2.7-3.6.8-.9 1.8-1.6 2.8-2.2 1-.5 2-.8 3.2-.8 1.4 0 2.6.5 3.7 1.5.7.7 1.3 1.4 1.8 2.2.7 1.1 1.2 2.3 1.6 3.5 0 .3.2.5.3.8.3.8-.6 1.3-1.1 1.2-.9-.2-1.7-.4-2.6-.7-.5-.1-.6-.7-.8-1.1-.3-.8-.6-1.7-1.2-2.3-.4-.4-.8-.8-1.3-1.1-.9-.5-1.8-.3-2.6.2s-1.4 1.1-1.9 1.8c-.3.4-.6.9-.9 1.2-.2.2-.6.5-.9.5-.7.2-1.4.2-2.1.3-.4 0-.8 0-1-.4-.2-.4-.2-.7 0-1Zm-1.3 14.5 4.5-1.5c.8-.3 1.7-.6 2.6-.9.5-.2 1.1-.1 1.6.1 1.5.7 2.9 1.5 4.4 2.2 1.9 1 3.9 1.9 5.9 2.9.4.2.6.5.5.8-.1.8-.3 1.6-.5 2.3-.1.5-.2 1.1-.4 1.6-.2.9-1 1.1-1.7.7-1.5-1-3-1.9-4.6-2.9-1-.6-2-1.3-3-1.9-.7-.5-1.5-.9-2.2-1.4a.9.9 0 0 0-1 0c-1.1.6-2.2 1.2-3.4 1.9-1.8 1-3.5 1.9-5.3 2.9-.7.4-1.4.8-2.2 1.2-.3.1-.6.2-.9.2-.5 0-.8-.3-.8-.9v-2.5c0-.6 0-1.3.1-2 0-.5.2-.8.8-1 1.8-.6 3.6-1.2 5.5-1.8Zm16.1 14.2c-.4.8-.7 1.6-1.2 2.4-.3.7-1.1.8-1.9.2-1-.7-1.9-1.5-2.9-2.2-1-.8-2.1-1.6-3.1-2.4a.9.9 0 0 0-1 0c-1 .6-2.1 1.2-3.1 1.8-1.6.9-3.1 1.8-4.6 2.7-.7.4-1.3.8-1.9 1.2-.8.5-1.6.1-1.7-.8-.1-.8-.2-1.7-.3-2.4 0-.6.3-.9.6-1.1 1-.6 1.9-1.1 2.9-1.7 1.6-.9 3.1-1.8 4.7-2.7.9-.5 1.8-1 2.7-1.6.9-.6 1.8-.5 2.7 0 1.5 1 3 1.9 4.5 2.8 1 .6 1.9 1.2 2.8 1.8 0 0 .1 0 .2.1 1 .6 1 .8.6 1.8Zm-22.3 12.7h21.2c1 0 1.3.3 1.3 1.3v1.4c0 .6-.3.9-.9 1h-21.7c-.5 0-.9 0-1.1-.5 0-.2-.2-.4-.2-.5v-1.3c0-1 .3-1.3 1.4-1.3Zm-.2 7.9h21.5c.8 0 1.1.3 1.1 1.1v1.5c0 .6-.3.9-.9 1h-21.7c-.5 0-.9 0-1.1-.5 0-.2-.2-.4-.2-.5v-1.5c0-.7.4-1.2 1.2-1.2Zm7.1 10.3h.5c.1.1.3.3.3.5s-.1.4-.3.5c-.6.4-1.3.8-2 1.1-.9.5-1.9 1-2.8 1.5-.6.3-1.2.7-1.9 1-.3.1-.6.2-.9.2h-7.3l.3-4.8h14Zm21.3 4.9h-6.3c-.4 0-.8-.2-1.1-.4l-5.4-3c-.3-.2-.6-.3-.9-.5-.3-.2-.3-.6 0-.8.1 0 .3-.2.5-.2H150l1.2 4.8Zm4.5-31.2c-.3.6-.6 1.2-.8 1.7-.2.5-.5 1-.8 1.6 0 .2-.2.3-.5.2-2.3-1-4.7-2-7-2.9-.5-.2-.7-.6-.5-1.1.4-.8.8-1.6 1.2-2.5 0-.1.2-.3.2-.4.3-.6.7-.8 1.3-.6l1.8.6 5.4 1.8h.2l-.6 1.5Zm1.3-36.1c.3.9.7 1.8 1 2.8.1.3.3.6.4 1-.9 0-1.7.1-2.5.2l-4.1.3c-.6 0-1.3-.3-1.4-1-.1-.6-.4-1.2-.6-1.9-.2-.4.3-1.1.9-1.1l3.1-.3c.9 0 1.9-.2 2.8-.3.2 0 .3 0 .4.2Zm2.4 7.4c.2 1.5.5 3 .8 4.6h-7c-.9 0-1.2-.4-1.3-1.1 0-.7-.1-1.4-.2-2.1-.1-.8.2-1.2 1.1-1.3 1.5 0 3.1-.1 4.6-.2h2Zm-5.8 21.7c-1-.3-1.9-.6-2.9-.8-.5-.1-.7-.5-.8-.9 0 0 0-.3.1-.4l.6-2.1c0-.2.1-.4.2-.6.3-.5.6-.7 1.2-.6l5.1 1.2c.7.2 1.3.3 2 .4-.4 1.8-.8 3.4-1.3 5l-4.2-1.2Zm3.5-8.3-4.4-.6c-.8-.1-1-.5-.9-1.2 0-.8.2-1.5.2-2.3 0-.6.5-1 1.2-1 1.7.1 3.5.3 5.2.4.6 0 1.2 0 2 .1 0 1.7-.2 3.4-.5 5-1-.1-1.9-.2-2.8-.4Zm-13.8-32.7c.5.1 1 .3 1.6.4.8.3 1.6.6 2.4 1 1.5.7 2.9 1.6 4.1 2.7.9.8 1.7 1.6 2.5 2.4.5.5.9 1 1.4 1.6-.7 0-1.3.2-2 .2-1.5.2-2.9.3-4.4.5-.8.1-1.2-.3-1.7-.8-.7-.8-1.3-1.6-2.1-2.2-1.4-1.1-3-1.6-4.8-1.7-2.1-.1-4.1.3-5.9 1.2-1.2.6-2.3 1.4-3.3 2.3-.5.5-1 1-1.4 1.5-.4.4-.8.4-1.3.2-1.7-.7-3.3-1.4-5-2.1 2.3-2.5 4.4-4.7 7.9-6.2 5.4-2.3 10.2-1.6 11.2-1.4.3 0 .5.1.8.2Zm-20.3 11.2 3 1.2c.5.2.8.7.5 1.2-.4.7-.8 1.5-1.2 2.2-.2.4-.8.5-1.3.4-1.7-.6-3.4-1.1-5.1-1.7-.2 0-.5-.2-.8-.2.9-1.3 1.7-2.6 2.6-3.9.8.3 1.5.6 2.3.9Zm-10.4 28.4c0-1.4-.1-2.7-.2-3.9h7c.9 0 1.3.4 1.3 1.2v2.5c0 .6-.2 1-.9 1.1l-7.2.6v-1.5Zm.5 6.2 3.8-.6c1.1-.2 2.1-.4 3.2-.5.8-.1 1.2.1 1.3.9.1.8.2 1.5.4 2.2v.2c.2.6 0 1.1-.5 1.3-1.7.6-3.5 1.1-5.2 1.7-.7.2-1.3.4-2 .7-.5-2.2-.8-4.1-1-5.9Zm2.7 47h6.5c.7 0 1.4 0 2.1.4 1.1.6 2.2 1.2 3.3 1.9.5.3.5 1 0 1.3l-2.4 1.2c-.9.4-1.9.9-2.8 1.3-1.7.8-3.3 1.5-5 2.3-.8-2.2-1.1-4.7-1.6-8.3Zm29.2 16.9c-.3.2-.6.3-.8.4-.3.2-.7.3-1.1.5-.3.1-.6.2-1 .4-.2 0-.5.2-.7.2-.2 0-.4.1-.6.2-.2 0-.5.1-.7.2-.2 0-.5.1-.7.2-.4 0-.8.1-1.2.2-.4 0-.8 0-1.1.1h-2.9c-.7 0-1.2-.1-1.7-.2h-.7a24.04 24.04 0 0 1-9.2-4.2c-.7-.5-1.3-1.1-1.9-1.6-.2-.2-.5-.4-.8-.7.7-.3 1.3-.6 2-.9.9-.4 1.9-.9 2.9-1.3 1.8-.8 3.7-1.7 5.5-2.5.9-.4 1.8-.8 2.7-1.3.8-.4 1.5-.4 2.3 0 1.5.7 3 1.5 4.6 2.2 2.1 1 4.1 1.9 6.1 2.9 1 .5 2 1 3.1 1.5-.5.8-1 1.4-1.6 2-.3.3-.6.6-1 .9-.4.4-.9.7-1.4 1Z"/><path fill="#1a66b3" d="M155.1 144.3c-.7 0-1.3.2-2 .2-1.5.2-2.9.3-4.4.5-.8.1-1.2-.3-1.7-.8-.7-.8-1.3-1.6-2.1-2.2-1.4-1.1-3-1.6-4.8-1.7-2.1-.1-4.1.3-5.9 1.2-1.2.6-2.3 1.4-3.3 2.3-.5.5-1 1-1.4 1.5-.4.4-.8.4-1.3.2-1.7-.7-3.3-1.4-5-2.1 2.3-2.5 4.4-4.7 7.9-6.2 5.4-2.3 10.2-1.6 11.2-1.4.3 0 .5.1.8.2.5.1 1 .3 1.6.4.8.3 1.6.6 2.4 1 1.5.7 2.9 1.6 4.1 2.7.9.8 1.7 1.6 2.5 2.4.5.5.9 1 1.4 1.6ZM153 224.3h-9.2c-1 0-1.8.3-2.7.8-1.8 1.1-3.7 2.2-5.6 3.4-.2.1-.5.3-.7.4-1 .5-1.8.1-2.6-.4-1.9-1.2-3.8-2.3-5.7-3.5-.9-.6-1.8-.7-2.8-.7h-8.5v-4.4h9.2c.7 0 1.3-.2 1.8-.6 1.5-.9 3.1-1.8 4.6-2.8.6-.4 1.2-.8 1.9-1.1.8-.5 1.7-.5 2.5 0 1.9 1.1 3.7 2.2 5.6 3.4.5.3 1.1.6 1.6.9.3.1.6.2 1 .2h9c.2 1.4.4 2.9.7 4.4ZM148.5 169c-.1.8-.3 1.6-.5 2.3-.1.5-.2 1.1-.4 1.6-.2.9-1 1.1-1.7.7-1.5-1-3-1.9-4.6-2.9-1-.6-2-1.3-3-1.9-.7-.5-1.5-.9-2.2-1.4a.9.9 0 0 0-1 0c-1.1.6-2.2 1.2-3.4 1.9-1.8 1-3.5 1.9-5.3 2.9-.7.4-1.4.8-2.2 1.2-.3.1-.6.2-.9.2-.5 0-.8-.3-.8-.9v-2.5c0-.6 0-1.3.1-2 0-.5.2-.8.8-1 1.8-.6 3.6-1.2 5.5-1.8l4.5-1.5c.8-.3 1.7-.6 2.6-.9.5-.2 1.1-.1 1.6.1 1.5.7 2.9 1.5 4.4 2.2 1.9 1 3.9 1.9 5.9 2.9.4.2.6.5.5.8Z"/><path fill="#1a66b3" d="M145.2 179.5c-.4.8-.7 1.6-1.2 2.4-.3.7-1.1.8-1.9.2-1-.7-1.9-1.5-2.9-2.2-1-.8-2.1-1.6-3.1-2.4a.9.9 0 0 0-1 0c-1 .6-2.1 1.2-3.1 1.8-1.6.9-3.1 1.8-4.6 2.7-.7.4-1.3.8-1.9 1.2-.8.5-1.6.1-1.7-.8-.1-.8-.2-1.7-.3-2.4 0-.6.3-.9.6-1.1 1-.6 1.9-1.1 2.9-1.7 1.6-.9 3.1-1.8 4.7-2.7.9-.5 1.8-1 2.7-1.6.9-.6 1.8-.5 2.7 0 1.5 1 3 1.9 4.5 2.8 1 .6 1.9 1.2 2.8 1.8 0 0 .1 0 .2.1 1 .6 1 .8.6 1.8ZM149.1 162.4c.1.7-.8 1.3-1.5 1-1.7-.8-3.4-1.5-5.1-2.3-1.8-.8-3.5-1.6-5.3-2.4-.3-.1-.6 0-.9 0-3.2 1.1-6.4 2.1-9.5 3.2-.5.2-.9.3-1.4.5-.5.2-.9 0-1.2-.4-.3-.3 0-.7 0-1 .2-.6.4-1.3.6-2 .1-.4.3-.8.5-1.1.1-.2.4-.4.6-.4 3.9-.8 7.8-1.7 11.7-2.5.6-.1 1.1 0 1.6.2 1.8.8 3.6 1.5 5.4 2.3l3.6 1.5c.5.2.7.6.8 1.1V162.5ZM145.4 201.2v1.5c0 .6-.3.9-.9 1h-21.7c-.5 0-.9 0-1.1-.5 0-.2-.2-.4-.2-.5v-1.5c0-.7.4-1.2 1.2-1.2h21.5c.8 0 1.1.3 1.1 1.1ZM145.4 193.5v1.4c0 .6-.3.9-.9 1h-21.7c-.5 0-.9 0-1.1-.5 0-.2-.2-.4-.2-.5v-1.3c0-1 .3-1.3 1.4-1.3h21.2c1 0 1.3.3 1.3 1.3Z"/><path fill="#5a6b75" d="M153.4 228.9c0 1.3-.2 2.6-.3 3.8 0 .4-.2.9-.3 1.3-.2 1.2-.8 2.3-1.2 3.4 0 .2-.2.2-.4.1-1.1-.5-2.3-1.1-3.4-1.6-1.8-.8-3.7-1.7-5.6-2.6-.5-.2-1.1-.5-1.6-.8-.6-.3-.6-1.2 0-1.6 1.2-.6 2.3-1.3 3.5-1.9s.8-.3 1.1-.3h8.3Z"/><path fill="#1a66b3" d="M145.6 153.5c-.9-.2-1.7-.4-2.6-.7-.5-.1-.6-.7-.8-1.1-.3-.8-.6-1.7-1.2-2.3-.4-.4-.8-.8-1.3-1.1-.9-.5-1.8-.3-2.6.2s-1.4 1.1-1.9 1.8c-.3.4-.6.9-.9 1.2-.2.2-.6.5-.9.5-.7.2-1.4.2-2.1.3-.4 0-.8 0-1-.4-.2-.4-.2-.7 0-1 .8-1.3 1.7-2.5 2.7-3.6.8-.9 1.8-1.6 2.8-2.2 1-.5 2-.8 3.2-.8 1.4 0 2.6.5 3.7 1.5.7.7 1.3 1.4 1.8 2.2.7 1.1 1.2 2.3 1.6 3.5 0 .3.2.5.3.8.3.8-.6 1.3-1.1 1.2Z"/><path fill="#5a6b75" d="m127.4 232.5-2.4 1.2c-.9.4-1.9.9-2.8 1.3-1.7.8-3.3 1.5-5 2.3-.8-2.2-1.1-4.7-1.6-8.3h6.5c.7 0 1.4 0 2.1.4 1.1.6 2.2 1.2 3.3 1.9.5.3.5 1 0 1.3ZM148.8 241.9c-.5.8-1 1.4-1.6 2-.3.3-.6.6-1 .9-.4.4-.9.7-1.4 1-5.2 3-10.8 2.5-12.8 2.2h-.4a24.04 24.04 0 0 1-9.2-4.2c-.7-.5-1.3-1.1-1.9-1.6-.2-.2-.5-.4-.8-.7.7-.3 1.3-.6 2-.9.9-.4 1.9-.9 2.9-1.3 1.8-.8 3.7-1.7 5.5-2.5.9-.4 1.8-.8 2.7-1.3.8-.4 1.5-.4 2.3 0 1.5.7 3 1.5 4.6 2.2 2.1 1 4.1 1.9 6.1 2.9 1 .5 2 1 3.1 1.5ZM130.7 210.9c0 .2-.1.4-.3.5-.6.4-1.3.8-2 1.1-.9.5-1.9 1-2.8 1.5-.6.3-1.2.7-1.9 1-.3.1-.6.2-.9.2h-7.3l.3-4.8h14.5c.1.1.3.3.3.5ZM151.3 215.2H145c-.4 0-.8-.2-1.1-.4l-5.4-3c-.3-.2-.6-.3-.9-.5-.3-.2-.3-.6 0-.8.1 0 .3-.2.5-.2h12.1l1.2 4.8ZM156.2 182.5l-.6 1.5c-.3.6-.6 1.2-.8 1.7-.2.5-.5 1-.8 1.6 0 .2-.2.3-.5.2-2.3-1-4.7-2-7-2.9-.5-.2-.7-.6-.5-1.1.4-.8.8-1.6 1.2-2.5 0-.1.2-.3.2-.4.3-.6.7-.8 1.3-.6l1.8.6 5.4 1.8h.2ZM158.9 173.3c-.4 1.8-.8 3.4-1.3 5l-4.2-1.2c-1-.3-1.9-.6-2.9-.8-.5-.1-.7-.5-.8-.9 0 0 0-.3.1-.4l.6-2.1c0-.2.1-.4.2-.6.3-.5.6-.7 1.2-.6l5.1 1.2c.7.2 1.3.3 2 .4ZM160.1 164.2c0 1.7-.2 3.4-.5 5-1-.1-1.9-.2-2.8-.4l-4.4-.6c-.8-.1-1-.5-.9-1.2 0-.8.2-1.5.2-2.3 0-.6.5-1 1.2-1 1.7.1 3.5.3 5.2.4.6 0 1.2 0 2 .1ZM160 160h-7c-.9 0-1.2-.4-1.3-1.1 0-.7-.1-1.4-.2-2.1-.1-.8.2-1.2 1.1-1.3 1.5 0 3.1-.1 4.6-.2h2c.2 1.5.5 3 .8 4.6ZM120.6 175.6c0 .6-.2 1-.9 1.1l-7.2.6v-1.5c0-1.4-.1-2.7-.2-3.9h7c.9 0 1.3.4 1.3 1.2v2.5ZM121.2 185.5c-1.7.6-3.5 1.1-5.2 1.7-.7.2-1.3.4-2 .7-.5-2.2-.8-4.1-1-5.9l3.8-.6c1.1-.2 2.1-.4 3.2-.5.8-.1 1.2.1 1.3.9.1.8.2 1.5.4 2.2v.2c.2.6 0 1.1-.5 1.3ZM158.3 151.8c-.9 0-1.7.1-2.5.2l-4.1.3c-.6 0-1.3-.3-1.4-1-.1-.6-.4-1.2-.6-1.9-.2-.4.3-1.1.9-1.1l3.1-.3c.9 0 1.9-.2 2.8-.3.2 0 .3 0 .4.2.3.9.7 1.8 1 2.8.1.3.3.6.4 1ZM126.4 149.8c-.4.7-.8 1.5-1.2 2.2-.2.4-.8.5-1.3.4-1.7-.6-3.4-1.1-5.1-1.7-.2 0-.5-.2-.8-.2.9-1.3 1.7-2.6 2.6-3.9.8.3 1.5.6 2.3.9l3 1.2c.5.2.8.7.5 1.2ZM122.9 157c0 .3-.3.7-.4 1-.2.5-.3 1-.4 1.5-.1.6-.8 1-1.4.9l-6.5-1.5c.6-1.7 1.1-3.3 1.9-4.8 1.5.5 3 1 4.4 1.4.6.2 1.2.4 1.9.7.4.1.5.5.4.9ZM120.8 165.1c0 .8-.1 1.6-.2 2.4 0 .6-.5.9-1.1.8-1.6 0-3.1-.2-4.7-.3-.8 0-1.6 0-2.5-.2.3-1.7.5-3.4.8-5.2.8.2 1.5.3 2.2.4 1.6.3 3.2.6 4.7 1 .5.1.8.5.8 1Z"/><path fill="#ccd4e6" d="M183.8 138.5c1 7-.4 13.8-.7 15.1-.6 2.8-1 3.2-1.6 6.6-.6 3-1.3 6.5-1.1 9.9.1 2.2.5 9.5 6.5 14.6 6.2 5.3 14.2 4.5 16.5 4.1 2.2-.3 9.2-1.7 13.6-7.5 2.4-3.2 2.8-6.2 3.6-12 1.1-8 .3-15-.3-19.9-.7-5.7-1.2-6.5-1-9.9.3-4.6 1.6-6 3-12.1 1.2-5.4 1.5-9.6 1.6-12.4.3-6.4.5-10.1-.7-15-2.2-9.3-8-15.2-10.7-18-2.5-2.5-4.6-4.7-8.4-6.3-5.7-2.4-10.7-1.6-11.8-1.4-5.7 1-9.2 4-10.5 5.2-5.5 4.9-6.9 11.2-7.6 14.7-2.7 13.4 2.9 26.4 5.5 32.6 1.8 4.3 3.3 6.7 4.1 11.5Zm-2.2 30.1h8.3c.4 0 .8.1 1.1.3 1.2.6 2.3 1.2 3.5 1.9.6.3.6 1.3 0 1.6-.5.3-1.1.5-1.6.8-1.9.9-3.7 1.7-5.6 2.6-1.1.5-2.3 1.1-3.4 1.6-.2 0-.3 0-.4-.1-.4-1.1-1-2.2-1.2-3.4 0-.4-.3-.9-.3-1.3l-.3-3.8Zm.4-4.7c.2-1.5.4-2.9.7-4.4h9c.3 0 .7 0 1-.2.6-.3 1.1-.6 1.6-.9 1.9-1.1 3.7-2.3 5.6-3.4.8-.5 1.6-.5 2.5 0 .6.4 1.2.8 1.9 1.1 1.5.9 3.1 1.8 4.6 2.8a3 3 0 0 0 1.8.6h9.2v4.4h-8.5c-1 0-1.9.2-2.8.7-1.9 1.2-3.8 2.3-5.7 3.5-.8.5-1.7.8-2.6.4-.2-.1-.5-.3-.7-.4-1.9-1.1-3.7-2.2-5.6-3.4-.8-.5-1.7-.8-2.7-.8h-9.2Zm30.9-64.8c0-.5-.3-1-.4-1.5-.1-.3-.3-.7-.4-1 0-.4 0-.8.4-.9.6-.2 1.2-.5 1.9-.7 1.5-.5 2.9-.9 4.4-1.4.8 1.5 1.4 3.2 1.9 4.8-2.2.5-4.4 1-6.5 1.5-.6.1-1.3-.2-1.4-.9Zm2 4.6c1.6-.3 3.1-.6 4.7-1 .7-.2 1.4-.3 2.2-.4.3 1.7.5 3.4.8 5.2-.9 0-1.7.1-2.5.2-1.6 0-3.1.2-4.7.3-.7 0-1.1-.3-1.1-.8 0-.8-.2-1.6-.2-2.4 0-.5.3-.9.8-1Zm-5.9-6.8c.2 0 .5.2.6.4.2.4.4.7.5 1.1l.6 2c.1.4.3.7 0 1-.3.4-.7.6-1.3.4-.5-.2-.9-.3-1.4-.5-3.2-1.1-6.3-2.2-9.5-3.2-.3 0-.6-.1-.9 0-1.8.8-3.6 1.6-5.3 2.4-1.7.8-3.4 1.5-5.1 2.3-.7.3-1.6-.3-1.5-1V99.4c0-.5.3-.9.8-1.1l3.6-1.5c1.8-.7 3.6-1.5 5.4-2.3.5-.2 1-.3 1.6-.2 3.9.8 7.8 1.6 11.7 2.5Zm-4.5-5.5c-.2.4-.6.5-1 .4-.7 0-1.4-.1-2.1-.3-.3 0-.7-.3-.9-.5l-.9-1.2a6.5 6.5 0 0 0-1.9-1.8c-.8-.5-1.7-.7-2.6-.2-.5.3-1 .7-1.3 1.1-.6.7-.9 1.5-1.2 2.3-.1.4-.3 1-.8 1.1-.9.2-1.7.5-2.6.7-.5.1-1.4-.4-1.1-1.2.1-.3.2-.5.3-.8.4-1.2.9-2.4 1.6-3.5.5-.8 1.1-1.6 1.8-2.2 1.1-1 2.3-1.5 3.7-1.5 1.2 0 2.2.3 3.2.8 1.1.5 2 1.3 2.8 2.2 1.1 1.1 1.9 2.3 2.7 3.6.2.3.3.7 0 1Zm6.7 15.3c.5.2.7.5.8 1 0 .7 0 1.5.1 2v2.5c0 .5-.3.8-.8.9-.3 0-.6 0-.9-.2-.7-.4-1.4-.8-2.2-1.2-1.7-1-3.5-2-5.3-2.9-1.1-.6-2.2-1.3-3.4-1.9a.9.9 0 0 0-1 0c-.8.5-1.5.9-2.2 1.4-1 .6-2 1.3-3 1.9-1.5 1-3 1.9-4.6 2.9-.8.5-1.5.2-1.7-.7-.1-.5-.2-1.1-.4-1.6-.2-.8-.3-1.5-.5-2.3 0-.4.1-.6.5-.8 2-.9 3.9-1.9 5.9-2.9 1.5-.7 3-1.4 4.4-2.2.5-.2 1.1-.3 1.6-.1.9.3 1.7.6 2.6.9l4.5 1.5c1.8.6 3.6 1.2 5.5 1.8Zm-21 10.5s.1 0 .2-.1c1-.6 1.9-1.2 2.8-1.8 1.5-.9 3-1.8 4.5-2.8.9-.6 1.8-.6 2.7 0 .9.5 1.8 1.1 2.7 1.6 1.6.9 3.1 1.8 4.7 2.7 1 .6 1.9 1.1 2.9 1.7.4.2.6.5.6 1.1 0 .7-.2 1.5-.3 2.4-.1.9-.9 1.2-1.7.8-.6-.4-1.3-.8-1.9-1.2-1.5-.9-3.1-1.8-4.6-2.7-1-.6-2.1-1.2-3.1-1.8a.9.9 0 0 0-1 0c-1 .8-2.1 1.6-3.1 2.4-1 .7-1.9 1.5-2.9 2.2-.8.6-1.5.5-1.9-.2l-1.2-2.4c-.5-1.1-.4-1.2.6-1.8Zm23.1 15.9v1.3c0 .2 0 .4-.2.5-.2.4-.6.5-1.1.5H190.3c-.6 0-.9-.4-.9-1V133c0-1 .3-1.3 1.3-1.3h21.2c1 0 1.4.3 1.4 1.3Zm0 7.7v1.5c0 .2 0 .4-.2.5-.3.4-.7.5-1.1.5h-21.7c-.6 0-.9-.4-.9-1v-1.5c0-.5.3-1.1 1.1-1.1H212c.7 0 1.2.4 1.2 1.2Zm5.3 9.1h.4l.3 4.8H212c-.3 0-.7 0-.9-.2-.6-.3-1.2-.7-1.9-1-.9-.5-1.9-1-2.8-1.5-.7-.4-1.3-.7-2-1.1-.1 0-.3-.3-.3-.5s.2-.4.3-.5h14.1Zm-35 4.8 1.2-4.8h12.1c.2 0 .4 0 .5.2.3.2.3.6 0 .8-.3.2-.6.4-.9.5l-5.4 3c-.3.2-.7.4-1.1.4h-6.3Zm-4.4-31.2-.6-1.5h.2l5.4-1.8 1.8-.6c.6-.2 1 0 1.3.6 0 .2.2.3.2.4.4.8.8 1.6 1.2 2.5.2.5 0 .9-.5 1.1-2.3 1-4.7 2-7 2.9-.3 0-.4 0-.5-.2-.3-.5-.5-1-.8-1.6-.3-.6-.5-1.1-.8-1.7Zm-.8-36.3 2.8.3 3.1.3c.6 0 1.1.7.9 1.1-.2.6-.5 1.2-.6 1.9-.2.7-.8 1.1-1.4 1l-4.1-.3c-.8 0-1.6-.1-2.5-.2.2-.4.3-.7.4-1 .3-.9.7-1.8 1-2.7 0-.2.2-.3.4-.2Zm-.8 7.7c1.5 0 3.1.1 4.6.2.8 0 1.2.5 1.1 1.3 0 .7-.2 1.4-.2 2.1 0 .7-.3 1.1-1.3 1.1h-7c.3-1.6.6-3.1.8-4.6h2Zm-.4 22.9c-.5-1.6-.9-3.2-1.3-5 .7-.1 1.3-.3 2-.4l5.1-1.2c.6-.1 1 0 1.2.6.1.2.2.4.2.6l.6 2.1c0 .1.2.3.1.4-.2.4-.3.8-.8.9-1 .2-2 .5-2.9.8l-4.2 1.2Zm-2.1-9.1c-.2-1.6-.4-3.3-.5-5 .7 0 1.3 0 2-.1 1.7-.1 3.5-.3 5.2-.4.7 0 1.2.3 1.2 1 0 .8.1 1.5.2 2.3 0 .8-.2 1.1-.9 1.2l-4.4.6c-.9.1-1.8.2-2.8.4Zm17.3-33.2c1-.2 5.8-1 11.2 1.4 3.5 1.5 5.6 3.7 7.9 6.2-1.7.8-3.3 1.5-5 2.1-.5.2-.9.2-1.3-.2-.5-.5-.9-1-1.4-1.5-1-1-2.1-1.7-3.3-2.3-1.9-1-3.8-1.4-5.9-1.2-1.8.1-3.4.6-4.8 1.7-.8.6-1.4 1.4-2.1 2.2-.5.5-.9.9-1.7.8-1.5-.2-2.9-.4-4.4-.5-.6 0-1.2-.2-2-.3.5-.6.9-1.1 1.4-1.6.8-.8 1.6-1.6 2.5-2.4 1.2-1.1 2.6-1.9 4.1-2.7.8-.4 1.6-.7 2.4-1 .5-.2 1-.3 1.6-.4.3 0 .5-.1.8-.2ZM214.2 86c.9 1.3 1.7 2.6 2.6 3.9-.3 0-.5.2-.8.2-1.7.6-3.4 1.2-5.1 1.7-.4.2-1.1 0-1.3-.4-.4-.7-.8-1.4-1.2-2.2-.3-.5 0-1 .5-1.2l3-1.2c.7-.3 1.5-.6 2.3-.9Zm8.1 30.8-7.2-.6c-.6 0-.9-.4-.9-1.1 0-.8.1-1.7 0-2.5s.4-1.2 1.3-1.2h7c0 1.2-.1 2.5-.2 3.9v1.5Zm-1.4 10.6c-.7-.2-1.4-.4-2-.7-1.7-.6-3.5-1.1-5.2-1.7-.6-.2-.8-.7-.5-1.3v-.2c.1-.7.3-1.5.4-2.2.1-.8.5-1.1 1.3-.9 1.1.2 2.1.4 3.2.5 1.2.2 2.5.4 3.8.6-.2 1.7-.5 3.7-1 5.9Zm-3.3 49.5c-1.7-.8-3.3-1.5-5-2.3-.9-.4-1.9-.9-2.8-1.3l-2.4-1.2c-.5-.3-.5-1 0-1.3 1.1-.6 2.2-1.2 3.3-1.9.7-.4 1.4-.4 2.1-.4h6.5c-.5 3.7-.8 6.2-1.6 8.3Zm-27.6 8.6c-.5-.3-.9-.7-1.4-1-.3-.3-.7-.6-1-.9-.6-.6-1.2-1.2-1.6-2 1.1-.5 2.1-1 3.1-1.5 2-1 4.1-1.9 6.1-2.9 1.5-.7 3-1.5 4.6-2.2.8-.4 1.5-.4 2.3 0 .9.5 1.8.9 2.7 1.3 1.8.8 3.7 1.7 5.5 2.5 1 .4 1.9.9 2.9 1.3.6.3 1.3.6 2 .9-.3.3-.5.5-.8.7-.7.5-1.3 1.1-1.9 1.6-1.4 1-2.9 2-4.6 2.7-1.5.7-3 1.2-4.6 1.5h-.7c-.4 0-1 .1-1.7.2H198c-.4 0-.7 0-1.1-.1-.4 0-.8-.1-1.2-.2-.2 0-.5 0-.7-.2-.2 0-.5-.1-.7-.2-.2 0-.4-.1-.6-.2-.2 0-.5-.2-.7-.2-.3-.1-.6-.2-1-.4-.3-.2-.7-.3-1.1-.5-.3-.1-.6-.3-.8-.4Z"/><path fill="#1a66b3" d="M179.9 84c.7 0 1.3.2 2 .3 1.5.2 2.9.3 4.4.5.8.1 1.2-.3 1.7-.8.7-.8 1.3-1.6 2.1-2.2 1.4-1.1 3-1.6 4.8-1.7 2.1-.1 4.1.3 5.9 1.2a15.03 15.03 0 0 1 4.7 3.8c.4.4.8.4 1.3.2 1.7-.7 3.3-1.4 5-2.1-2.3-2.5-4.4-4.7-7.9-6.2-5.4-2.3-10.2-1.6-11.2-1.4-.3 0-.5.1-.8.2-.5.1-1 .3-1.6.4-.8.3-1.6.6-2.4 1-1.5.7-2.9 1.6-4.1 2.7-.9.8-1.7 1.6-2.5 2.4-.5.5-.9 1-1.4 1.6ZM182 164h9.2c1 0 1.8.3 2.7.8 1.8 1.1 3.7 2.2 5.6 3.4.2.1.5.3.7.4 1 .5 1.8.1 2.6-.4 1.9-1.2 3.8-2.3 5.7-3.5.9-.6 1.8-.7 2.8-.7h8.5v-4.4h-9.2c-.7 0-1.3-.2-1.8-.6-1.5-.9-3.1-1.8-4.6-2.8-.6-.4-1.2-.8-1.9-1.1-.8-.5-1.7-.5-2.5 0-1.9 1.1-3.7 2.2-5.6 3.4-.5.3-1.1.6-1.6.9-.3.1-.6.2-1 .2h-9c-.2 1.4-.4 2.9-.7 4.4ZM186.5 108.7c.1.8.3 1.6.5 2.3.1.5.2 1.1.4 1.6.2.9 1 1.1 1.7.7 1.5-1 3-1.9 4.6-2.9 1-.6 2-1.3 3-1.9.7-.5 1.5-.9 2.2-1.4.3-.2.7-.2 1 0 1.1.6 2.2 1.3 3.4 1.9 1.7 1 3.5 1.9 5.3 2.9.7.4 1.4.8 2.2 1.2.3.1.6.2.9.2.5 0 .8-.3.8-.9v-2.5c0-.6 0-1.3-.1-2 0-.5-.2-.8-.8-1-1.8-.6-3.6-1.2-5.5-1.8l-4.5-1.5c-.8-.3-1.7-.6-2.6-.9-.5-.2-1.1-.1-1.6.1-1.5.7-2.9 1.5-4.4 2.2-1.9 1-3.9 1.9-5.9 2.9-.4.2-.6.5-.5.8Z"/><path fill="#1a66b3" d="M189.8 119.2c.4.8.7 1.6 1.2 2.4.3.7 1.1.8 1.9.2 1-.7 1.9-1.5 2.9-2.2 1-.8 2.1-1.6 3.1-2.4.3-.2.7-.2 1 0 1 .6 2.1 1.2 3.1 1.8 1.6.9 3.1 1.8 4.6 2.7.7.4 1.3.8 1.9 1.2.8.5 1.6.1 1.7-.8.1-.8.2-1.7.3-2.4 0-.6-.3-.9-.6-1.1-1-.6-1.9-1.1-2.9-1.7-1.6-.9-3.1-1.8-4.7-2.7-.9-.5-1.8-1-2.7-1.6-.9-.6-1.8-.5-2.7 0-1.5 1-3 1.9-4.5 2.8-1 .6-1.9 1.2-2.8 1.8 0 0-.1 0-.2.1-1 .6-1 .8-.6 1.8ZM185.9 102.1c-.1.7.8 1.3 1.5 1 1.7-.8 3.4-1.5 5.1-2.3 1.8-.8 3.5-1.6 5.3-2.4.3-.1.6 0 .9 0 3.2 1.1 6.4 2.1 9.5 3.2.5.2.9.3 1.4.5.5.2.9 0 1.3-.4.3-.3 0-.7 0-1-.2-.6-.4-1.3-.6-2-.1-.4-.3-.8-.5-1.1-.1-.2-.4-.4-.6-.4-3.9-.8-7.8-1.7-11.7-2.5-.6-.1-1.1 0-1.6.2-1.8.7-3.6 1.5-5.4 2.3l-3.6 1.5c-.5.2-.7.6-.8 1.1V102.2ZM189.6 140.9v1.5c0 .6.3.9.9 1h21.7c.5 0 .9 0 1.1-.5 0-.2.2-.4.2-.5v-1.5c0-.7-.4-1.2-1.2-1.2h-21.5c-.8 0-1.1.3-1.1 1.1ZM189.6 133.2v1.4c0 .6.3.9.9 1h21.7c.5 0 .9 0 1.1-.5 0-.2.2-.4.2-.5v-1.3c0-1-.3-1.3-1.4-1.3h-21.2c-1 0-1.3.3-1.3 1.3Z"/><path fill="#5a6b75" d="M181.6 168.6c0 1.3.2 2.6.3 3.8 0 .4.2.9.3 1.3.2 1.2.8 2.3 1.2 3.4 0 .2.2.2.4.1 1.1-.5 2.3-1.1 3.4-1.6 1.8-.8 3.7-1.7 5.6-2.6.5-.2 1.1-.5 1.6-.8.6-.3.6-1.2 0-1.6-1.2-.6-2.3-1.3-3.5-1.9s-.7-.3-1.1-.3h-8.3Z"/><path fill="#1a66b3" d="M189.4 93.2c.9-.2 1.7-.4 2.6-.7.5-.1.6-.7.8-1.1.3-.8.6-1.7 1.2-2.3.4-.4.8-.8 1.3-1.1.9-.5 1.8-.3 2.6.2.7.5 1.4 1.1 1.9 1.8.3.4.6.9.9 1.2.2.2.6.5.9.5.7.2 1.4.2 2.1.3.4 0 .8 0 1-.4.2-.4.2-.7 0-1-.8-1.3-1.7-2.5-2.7-3.6-.8-.9-1.7-1.6-2.8-2.2-1-.5-2-.8-3.2-.8-1.4 0-2.6.5-3.7 1.5-.7.7-1.3 1.4-1.8 2.2-.7 1.1-1.3 2.3-1.6 3.5 0 .3-.2.5-.3.8-.3.8.6 1.3 1.1 1.2Z"/><path fill="#5a6b75" d="m207.6 172.2 2.4 1.2c.9.4 1.9.9 2.8 1.3 1.7.8 3.3 1.5 5 2.3.8-2.2 1.1-4.7 1.6-8.3h-6.5c-.7 0-1.4 0-2.1.4-1.1.6-2.2 1.2-3.3 1.9-.5.3-.5 1 0 1.3ZM186.2 181.6a10.8 10.8 0 0 0 2.6 2.9c.4.4.9.7 1.4 1 5.2 3 10.8 2.5 12.8 2.2h.4a24.04 24.04 0 0 0 9.2-4.2c.7-.5 1.3-1.1 1.9-1.6.2-.2.5-.4.8-.7-.7-.3-1.3-.6-2-.9-.9-.4-1.9-.9-2.9-1.3-1.8-.8-3.7-1.7-5.5-2.5-.9-.4-1.8-.8-2.7-1.3-.8-.4-1.5-.4-2.3 0-1.5.7-3 1.5-4.6 2.2-2.1 1-4.1 1.9-6.1 2.9-1 .5-2 1-3.1 1.5ZM204.3 150.6c0 .2.1.4.3.5.6.4 1.3.8 2 1.1.9.5 1.9 1 2.8 1.5.6.3 1.2.7 1.9 1 .3.1.6.2.9.2h7.3l-.3-4.8h-14.5c-.1.1-.3.3-.3.5ZM183.7 154.9h6.3c.4 0 .8-.2 1.1-.4l5.4-3c.3-.2.6-.3.9-.5.3-.2.3-.6 0-.8-.1 0-.3-.2-.5-.2h-12.1l-1.2 4.8ZM178.8 122.2l.6 1.5c.3.6.6 1.2.8 1.7.2.5.5 1 .8 1.6 0 .2.2.3.5.2 2.3-1 4.7-2 7-2.9.5-.2.7-.6.5-1.1-.4-.8-.8-1.6-1.2-2.5 0-.1-.2-.3-.2-.4-.3-.6-.7-.8-1.3-.6l-1.8.6-5.4 1.8h-.2ZM176.1 113c.4 1.8.8 3.4 1.3 5l4.2-1.2c1-.3 1.9-.6 2.9-.8.5-.1.7-.5.8-.9 0 0 0-.3-.1-.4l-.6-2.1c0-.2-.1-.4-.2-.6-.3-.5-.6-.7-1.2-.6l-5.1 1.2c-.7.2-1.3.3-2 .4ZM174.9 103.9c0 1.7.2 3.4.5 5 1-.1 1.9-.2 2.8-.4l4.4-.6c.8-.1 1-.5.9-1.2 0-.8-.2-1.5-.2-2.3 0-.6-.5-1-1.2-1-1.7.1-3.5.3-5.2.4-.6 0-1.3 0-2 .1ZM175 99.7h7c.9 0 1.2-.4 1.3-1.1 0-.7.1-1.4.2-2.1.1-.8-.2-1.2-1.1-1.3-1.5 0-3.1-.1-4.6-.2h-2c-.3 1.5-.5 3-.8 4.6ZM214.4 115.3c0 .6.2 1 .9 1.1l7.2.6v-1.5c0-1.4.1-2.7.2-3.9h-7c-.9 0-1.3.4-1.3 1.2v2.5ZM213.8 125.2c1.7.6 3.5 1.1 5.2 1.7.7.2 1.3.4 2 .7.5-2.2.8-4.1 1-5.9l-3.8-.6c-1.1-.2-2.1-.4-3.2-.5-.8-.1-1.2.1-1.3.9-.1.7-.3 1.5-.4 2.2v.2c-.2.6 0 1.1.5 1.3ZM176.7 91.5c.9 0 1.7.1 2.5.2l4.1.3c.6 0 1.3-.3 1.4-1 .1-.6.4-1.2.6-1.9.2-.4-.3-1.1-.9-1.1l-3.1-.3c-.9 0-1.9-.2-2.8-.3-.2 0-.3 0-.4.2-.3.9-.7 1.8-1 2.7-.1.3-.3.6-.4 1ZM208.6 89.5c.4.7.8 1.5 1.2 2.2.2.4.8.5 1.3.4 1.7-.6 3.4-1.1 5.1-1.7.2 0 .5-.2.8-.2-.9-1.3-1.7-2.6-2.6-3.9-.8.3-1.5.6-2.3.9l-3 1.2c-.5.2-.8.7-.5 1.2ZM212.1 96.7c0 .3.3.7.4 1 .2.5.3 1 .4 1.5.1.6.8 1 1.4.9l6.5-1.5c-.6-1.7-1.1-3.3-1.9-4.8-1.5.5-3 1-4.4 1.4-.6.2-1.3.4-1.9.7-.4.1-.5.5-.4.9ZM214.2 104.8c0 .8.1 1.6.2 2.4 0 .6.5.9 1.1.8 1.6 0 3.1-.2 4.7-.3.8 0 1.6 0 2.5-.2-.3-1.7-.5-3.4-.8-5.2-.8.2-1.5.3-2.2.4-1.6.3-3.2.6-4.7 1-.5.1-.8.5-.8 1Z"/><path fill="url(#b)" d="M0 0h335v335H0z" opacity=".9"/><path fill="url(#a)" d="M218.8 178.9H335v29.7H218.8z" filter="url(#c)"/><path fill="url(#d)" d="M3.7 161.9v-4.6l2.3 2.3-2.3 2.3z" filter="url(#e)"/><path fill="url(#f)" d="M3.7 204.9v-4.6l2.3 2.3-2.3 2.3z" filter="url(#g)"/><path fill="url(#h)" d="M3.7 239.4v-4.6l2.3 2.3-2.3 2.3z" filter="url(#i)"/><path fill="url(#j)" d="M18.8 125.2c-4.4 0-7.9 3.5-7.9 7.9s.6 3.4 1.5 4.7l6.4 11.1 6.4-11.1c1-1.3 1.5-2.9 1.5-4.7 0-4.4-3.5-7.9-7.9-7.9Zm0 11.6c-1.9 0-3.5-1.6-3.5-3.5s1.6-3.5 3.5-3.5 3.5 1.6 3.5 3.5-1.6 3.5-3.5 3.5Z"/><path fill="url(#k)" d="M0 253h333.3v37.7H0z" filter="url(#l)"/><path fill="url(#m)" d="M226.1 221.9h100v100h-100z"/><g opacity=".9"><path fill="url(#n)" d="M289.3 311v6.1c0 1.5-1.3 2.8-2.8 2.8h-13.7c-1.5 0-2.8-1.3-2.8-2.8v-13.7c0-1.5 1.3-2.8 2.8-2.8h6.2c.4 0 .8.3.8.8s-.3.8-.8.8h-5.9c-.9 0-1.7.8-1.7 1.7v13c0 .9.8 1.7 1.7 1.7h13c.9 0 1.7-.8 1.7-1.7v-5.8c0-.4.3-.8.8-.8.4 0 .8.3.8.8Z"/><path fill="url(#o)" d="M289 299.3c1.8 0 3.2 1.4 3.2 3.2v.5h-6.4v-.5c0-1.8 1.4-3.2 3.2-3.2Z" transform="rotate(45 288.9 301.06)"/><path fill="url(#p)" d="m289.1 305.5-6.8 6.8h-.3l-4.4.6c-.2 0-.5-.2-.5-.5l.6-4.4v-.3l6.8-6.8 4.5 4.5Z"/></g><g filter="url(#q)"><path fill="url(#r)" d="M21.6 33.2v73l-1.8 1.8-2.2-2.3V33.2h4z"/><path fill="url(#s)" d="M13.6 33.2v68.5l-4-4.1V33.2h4z"/><path fill="url(#t)" d="M30.1 33.2v64.4l-4 4.1V33.2h4z"/></g><path fill="url(#u)" d="M218.8 214.6v114.6h114.6V214.6H218.8ZM330 325.8H222.1V217.9H330v107.9Z" filter="url(#v)"/><path fill="url(#w)" d="M0 7.7h151.2v29.7H0z" filter="url(#x)"/><g data-name="PRINT"><path fill="url(#y)" d="M29.6 13.9c0 .5-.2 1-.6 1.4l-6.3 6.3-6.8-3.9v-3.8c0-1.1.9-2 2-2s2 .9 2 2v4.9l6.3-6.3c.8-.8 2.1-.8 2.8 0 .4.4.6.9.6 1.4Z"/><path fill="url(#z)" d="M29 31.7c-.4.4-.9.6-1.4.6s-.5 0-.8-.2c-.2-.1-.5-.3-.6-.4l-2.1-2.1-4.1-4.1v4.9c0 1.1-.9 2-2 2s-2-.9-2-2v-3.8l6.8-3.9 4.2 4.2 2.1 2.1c.8.8.8 2.1 0 2.8Z"/><path fill="url(#A)" d="M22.4 22s0-.2-.2-.2l-1.7-1-4.6-2.6L12 16c-.2-.1-.5 0-.6.2V28.1c0 .3.2.5.5.5h.2l3.9-2.2 6.3-3.6s0-.1.1-.2v-.3Zm-9.6-4.7 3 1.7 4.9 2.8s.1 0 .1.1v.3s0 .2-.2.2l-4.9 2.8-3 1.7c-.2 0-.4 0-.5-.1V17.5c0-.2.2-.3.3-.3h.2Z"/><path fill="url(#B)" d="M19.5 22.2s0 .1-.1.2l-3.7 2.1-2.3 1.3H13V18.9c0-.1.1-.3.3-.3h.1l2.3 1.3 3.7 2.1s.1 0 .1.2v.1Z"/><path fill="url(#C)" d="m62.5 21.6-5.6-2.8-3.4-1.7c-.2-.1-.4 0-.5.2v9.5c.1.2.3.4.6.4h.4l3.2-1.8 2-1.1 3.5-1.9s.2-.1.2-.2V22s-.1-.2-.2-.2Zm-5.6 2.8-2.6 1.4c-.2 0-.3 0-.4-.1v-7.3c0-.2 0-.3.2-.3h.1l2.7 1.3 1 .5 3.4 1.7s.1 0 .2.2v.2s0 .1-.1.1l-4.3 2.3Z"/><path fill="url(#D)" d="m60.1 22-.1.1-3.2 1.7-2 1.1h-.3v-5.4c0-.1 0-.2.2-.2l2 1 3.3 1.6.1.1v.1Z"/><path fill="url(#E)" d="M38.5 17.2h-4.9v9.7H36v-3.2h2.5c2.3 0 4.1-1.4 4-3.4 0-1.9-1.8-3.2-4.1-3.2Zm-.2 4.6H36v-2.7h2.3c1.1 0 1.9.5 1.9 1.3s-.8 1.4-1.9 1.4Z"/><path fill="url(#F)" d="m51.8 27-7.7.1-.2-9.7h2.4l.1 7.8 5.3-.1.1 1.9z"/><path fill="url(#G)" d="m67.5 23.3.1 3.5h-2.4v-3.5l-4.3-6.1 2.7-.1 2.7 4.2 2.8-4.2 2.6-.1-4.2 6.3z"/><path fill="url(#H)" d="m81.9 27.2-1.6.1-4.1-4.5-1.7 1.6v2.9h-1.2l-.1-9.6h1.2l.1 5.3 5.4-5.4h1.6L77 22.1l4.9 5.1z"/><path fill="url(#I)" d="M88 17.3c-3 0-5.5 2.3-5.5 5.1 0 2.7 2.6 5 5.6 4.9 3 0 5.5-2.4 5.5-5.1 0-2.7-2.6-5-5.6-4.9Zm.4 9c-2.4.2-4.4-1.6-4.6-3.9a4.27 4.27 0 0 1 8.5-.1 4.2 4.2 0 0 1-3.9 4Z"/><path fill="url(#J)" d="M103.2 24.5c0 1.5-1.2 2.8-3.8 2.8-1.6 0-3.1-.5-4.3-1.5l.8-.9c1 .9 2.2 1.4 3.5 1.4 1.7 0 2.5-.9 2.5-1.7 0-1-1-1.4-2.9-1.8-2.2-.4-3.5-1-3.6-2.7 0-1.5 1.5-2.8 3.6-2.8 1.4 0 2.7.4 3.8 1.3l-.7.9c-.9-.8-2-1.2-3.1-1.2-1.3 0-2.3.8-2.3 1.7 0 1 1.1 1.3 2.9 1.7 2.1.4 3.5 1.1 3.6 2.8Z"/><path fill="url(#K)" d="M116 27.2h-1.2l-.1-7.3-3.9 6.8-4.1-6.7.1 7.3-1.3.1-.1-9.7h1.3l4 6.7 4-6.8h1.2l.1 9.6z"/><path fill="url(#L)" d="M123.7 17.3c-3 0-5.5 2.3-5.5 5.1 0 2.7 2.6 5 5.6 4.9 3 0 5.5-2.4 5.5-5.1 0-2.7-2.6-5-5.6-4.9Zm.4 9c-2.4.2-4.4-1.6-4.6-3.9a4.27 4.27 0 0 1 8.5-.1 4.2 4.2 0 0 1-3.9 4Z"/><path fill="url(#M)" d="M138.9 24.5c0 1.5-1.3 2.8-3.8 2.8-1.5 0-2.9-.4-4.1-1.3l-.2-.2.8-.9c.2.2.3.3.5.4.9.6 1.9 1 3 .9 1.7 0 2.5-.9 2.5-1.7 0-.8-.6-1.2-1.6-1.5-.3-.1-.7-.2-1.2-.3h-.2c-2.2-.4-3.5-1-3.6-2.7 0-1.5 1.5-2.8 3.6-2.8 1.4 0 2.7.4 3.8 1.3l-.7.9c-.9-.8-2-1.2-3.1-1.2-1.3 0-2.3.8-2.3 1.7 0 1 1.1 1.3 2.9 1.7.4 0 .8.2 1.1.3.4.1.7.2 1 .4.9.4 1.5 1.1 1.5 2.1Z"/></g></svg>