<svg id="b7f73d06-b26f-452a-8aff-6385258ac507" data-name="e25e4b86-7aaa-41e0-bb75-c382284879ed" xmlns="http://www.w3.org/2000/svg" xmlns:xlink="http://www.w3.org/1999/xlink" width="335" height="335" viewBox="0 0 335 335">
  <defs>
    <linearGradient id="ab187866-83fa-4dad-8133-0a947d5626a2" x1="167.5" x2="167.5" y2="335" gradientTransform="matrix(1, 0, 0, -1, 0, 335)" gradientUnits="userSpaceOnUse">
      <stop offset="0" stop-color="#ed1c24"/>
      <stop offset="0.46" stop-color="#572558"/>
      <stop offset="0.62" stop-color="#262262"/>
      <stop offset="1" stop-color="#262262"/>
    </linearGradient>
    <radialGradient id="bc3b6c00-5b78-42a3-8fcf-a67f69bf8fb0" cx="167.5" cy="81.05" r="131.58" gradientTransform="matrix(1, 0, 0, -1, 0, 335)" gradientUnits="userSpaceOnUse">
      <stop offset="0" stop-color="#f1f2f2"/>
      <stop offset="1" stop-color="#d1d3d4"/>
    </radialGradient>
    <radialGradient id="bc948a3b-bfb0-46a5-9622-fe70e31d8039" cx="28.06" cy="313.82" r="5.47" xlink:href="#bc3b6c00-5b78-42a3-8fcf-a67f69bf8fb0"/>
    <radialGradient id="ef4342a0-da35-427d-afea-c376e387545d" cx="28.05" cy="304.07" r="5.46" xlink:href="#bc3b6c00-5b78-42a3-8fcf-a67f69bf8fb0"/>
    <radialGradient id="ad24c735-3cb9-4f72-938a-161108da3c4a" cx="22.65" cy="308.95" r="5.45" xlink:href="#bc3b6c00-5b78-42a3-8fcf-a67f69bf8fb0"/>
    <radialGradient id="a059a146-237b-4fbe-bdbf-d03489422360" cx="22.1" cy="308.95" r="3.18" xlink:href="#bc3b6c00-5b78-42a3-8fcf-a67f69bf8fb0"/>
    <radialGradient id="b675a21b-1121-411c-b086-61987b51edba" cx="60.25" cy="308.98" r="4.56" xlink:href="#bc3b6c00-5b78-42a3-8fcf-a67f69bf8fb0"/>
    <radialGradient id="ebfc0ef8-b6c7-4523-9c6d-fa3745c2ea94" cx="59.77" cy="309" r="2.66" xlink:href="#bc3b6c00-5b78-42a3-8fcf-a67f69bf8fb0"/>
    <radialGradient id="b50fad21-e92d-4af3-8036-a2aaecb36959" cx="42.2" cy="308.98" r="4.3" xlink:href="#bc3b6c00-5b78-42a3-8fcf-a67f69bf8fb0"/>
    <radialGradient id="ab4b8e60-1fef-4e09-ace9-aaa80e39029c" cx="51.13" cy="308.84" r="4.04" xlink:href="#bc3b6c00-5b78-42a3-8fcf-a67f69bf8fb0"/>
    <radialGradient id="bca94d3b-c6b3-4b82-9ea8-224e9d638192" cx="68.06" cy="309.1" r="4.72" xlink:href="#bc3b6c00-5b78-42a3-8fcf-a67f69bf8fb0"/>
    <radialGradient id="b16ba24c-7635-444c-9a74-b16e9de62e65" cx="78.4" cy="308.6" r="4.25" xlink:href="#bc3b6c00-5b78-42a3-8fcf-a67f69bf8fb0"/>
    <radialGradient id="b607cedc-4c56-40fc-972c-0a1b0b960e6e" cx="88.03" cy="308.71" r="4.84" xlink:href="#bc3b6c00-5b78-42a3-8fcf-a67f69bf8fb0"/>
    <radialGradient id="ab87f405-2539-4704-b668-04f3e6024ad9" cx="98.25" cy="308.7" r="4.17" xlink:href="#bc3b6c00-5b78-42a3-8fcf-a67f69bf8fb0"/>
    <radialGradient id="fcb3817b-3d72-46dc-bb3a-c10f2d1d88c7" cx="108.86" cy="308.61" r="4.68" xlink:href="#bc3b6c00-5b78-42a3-8fcf-a67f69bf8fb0"/>
    <radialGradient id="ba6e6002-fc4a-4872-aecb-5a9c51204ad8" cx="120.85" cy="308.71" r="4.84" xlink:href="#bc3b6c00-5b78-42a3-8fcf-a67f69bf8fb0"/>
    <radialGradient id="e00f6b22-dc3e-407d-a67e-add1a7359d62" cx="131.06" cy="308.7" r="4.17" xlink:href="#bc3b6c00-5b78-42a3-8fcf-a67f69bf8fb0"/>
    <radialGradient id="ab6712ad-268c-4a8a-a8f2-ea3f6226440c" cx="167.45" cy="201.39" r="61.4" xlink:href="#bc3b6c00-5b78-42a3-8fcf-a67f69bf8fb0"/>
    <radialGradient id="be936780-0de8-42ec-b4ab-5ecf70054d69" cx="167.45" cy="172.19" r="61.4" xlink:href="#bc3b6c00-5b78-42a3-8fcf-a67f69bf8fb0"/>
    <radialGradient id="b7e7df90-794c-43af-8cb5-f7ed7db270ef" cx="176.11" cy="296.37" r="18.97" gradientTransform="matrix(1.66, 0, 0, -1, -0.5, 335)" xlink:href="#bc3b6c00-5b78-42a3-8fcf-a67f69bf8fb0"/>
  </defs>
  <g>
    <g>
      <rect width="335" height="335" fill="url(#ab187866-83fa-4dad-8133-0a947d5626a2)"/>
      <g>
        <polygon points="235.2 172.9 99.8 172.9 0 230.8 0 335 335 335 335 229.9 235.2 172.9" fill="url(#bc3b6c00-5b78-42a3-8fcf-a67f69bf8fb0)"/>
        <polygon points="104.4 172.9 96.7 175.2 96.7 115 104.4 115 104.4 172.9" fill="#231f20"/>
        <polygon points="230.6 172.9 238.3 175.2 238.3 115 230.6 115 230.6 172.9" fill="#231f20"/>
        <g>
          <polygon points="100.6 162.6 0 224 0 219.7 100.6 160 100.6 162.6" fill="#be1e2d"/>
          <polygon points="100.6 142.1 0 205.9 0.7 200.8 100.6 139.5 100.6 142.1" fill="#be1e2d"/>
          <polygon points="100.6 121.6 0 185.4 0 180.7 100.6 119 100.6 121.6" fill="#be1e2d"/>
        </g>
        <g>
          <polygon points="234.4 162.6 335 226.4 335.2 221.8 234.4 160 234.4 162.6" fill="#be1e2d"/>
          <polygon points="234.4 142.1 335.2 206 335 201.2 234.4 139.5 234.4 142.1" fill="#be1e2d"/>
          <polygon points="234.4 121.6 335 185.4 335 180.7 234.4 119 234.4 121.6" fill="#be1e2d"/>
        </g>
        <g>
          <rect x="100.6" y="119" width="133.9" height="2.54" fill="#be1e2d"/>
          <rect x="100.6" y="139.5" width="133.9" height="2.54" fill="#be1e2d"/>
          <rect x="100.6" y="160" width="133.9" height="2.54" fill="#be1e2d"/>
        </g>
        <rect y="324.4" width="335" height="10.62" fill="#be1e2d"/>
      </g>
    </g>
    <path d="M267,65.1a8.7,8.7,0,0,0-4.3-3.5v-.9H74.3v.4a9,9,0,0,0-6.3,4c-3.5,5.2.6,17.5-8.5,19.5,9.1,1.9,5,14.3,8.5,19.5a9,9,0,0,0,6.3,4v.4H262.7v-1a8.1,8.1,0,0,0,4.3-3.4c3.5-5.2-.6-17.6,8.5-19.5C266.4,82.6,270.5,70.3,267,65.1Z" fill="#be1e2d" stroke="#fff" stroke-linecap="round" stroke-linejoin="round" stroke-width="2.11"/>
    <g>
      <g>
        <path d="M34.3,18.6a1.7,1.7,0,0,1-.5,1.2L28,25.7l-6.2-3.6V18.5a1.8,1.8,0,1,1,3.6,0h0V23l5.8-5.8a1.9,1.9,0,0,1,2.6,0,1.6,1.6,0,0,1,.5,1.4" fill="url(#bc948a3b-bfb0-46a5-9622-fe70e31d8039)"/>
        <path d="M32.5,35.4h-.7l-.6-.4-5.8-5.8v4.5a1.8,1.8,0,1,1-3.6,0h0V30L28,26.4l5.8,5.9a1.8,1.8,0,0,1,.1,2.5,2,2,0,0,1-1.4.6" fill="url(#ef4342a0-da35-427d-afea-c376e387545d)"/>
        <path d="M27.7,25.9l-.2-.2h0l-1.6-.9-4.1-2.4-3.6-2.1a.5.5,0,0,0-.6.2V31.4c0,.3.2.4.4.5h.2l3.6-2.1,5.7-3.3h.1c0-.1.1-.1.1-.2h0Zm-1.4.2v.2l-4.5,2.6L19,30.5c-.1.1-.3,0-.4-.1s-.1-.1-.1-.2V21.9c0-.2.2-.3.4-.3H19l2.8,1.6,4.5,2.6c.1,0,.1.2.1.3Z" fill="url(#ad24c735-3cb9-4f72-938a-161108da3c4a)"/>
        <path d="M25.1,26.1l-.2.2-3.3,1.9-2.1,1.2c-.1.1-.2,0-.3-.1h0c-.1,0-.1,0-.1-.1h0V22.9c0-.1.1-.2.3-.2h.1l2.1,1.2,3.3,1.9.2.2h0" fill="url(#a059a146-237b-4fbe-bdbf-d03489422360)"/>
      </g>
      <g>
        <path d="M64.8,25.8l-.2-.2-5.1-2.5-3.2-1.6a.4.4,0,0,0-.5.1c-.1.1-.1.1-.1.2v8.5c0,.2.4.4.6.3l3.1-1.7,5.1-2.7.2-.2Zm-1.3.2c0,.1-.1.1-.1.2l-4,2L57,29.5c-.2.1-.4,0-.4-.2V22.7a.3.3,0,0,1,.3-.3c.1,0,.1,0,.1.1l2.5,1.2,4,2v.2Z" fill="url(#b675a21b-1121-411c-b086-61987b51edba)"/>
        <path d="M62.4,26h-.1l-3,1.6-1.8,1h-.3v-5c0-.1.1-.2.3-.2h.1l1.8,1,3,1.5h.1" fill="url(#ebfc0ef8-b6c7-4523-9c6d-fa3745c2ea94)"/>
        <path d="M38.1,21.6h4.4c2.2,0,3.8,1.2,3.8,3s-1.5,3-3.7,3H40.3v2.9H38.2Zm4.3,4.2c1,0,1.7-.5,1.7-1.3s-.7-1.2-1.8-1.2H40.2v2.5Z" fill="url(#b50fad21-e92d-4af3-8036-a2aaecb36959)"/>
        <path d="M54.7,28.8v1.7H47.6V21.7h2.2v7.2Z" fill="url(#ab4b8e60-1fef-4e09-ace9-aaa80e39029c)"/>
        <path d="M67.1,27.2l-4-5.7h2.5l2.5,3.9,2.5-4H73l-3.8,5.7v3.3H67.1Z" fill="url(#bca94d3b-c6b3-4b82-9ea8-224e9d638192)"/>
        <path d="M74.4,22h1.1v4.9l4.9-5H82L77.9,26l4.5,4.8H81l-3.9-4.1-1.5,1.5v2.7H74.5Z" fill="url(#b16ba24c-7635-444c-9a74-b16e9de62e65)"/>
        <path d="M83,26.3c-.1-2.5,2.2-4.6,5-4.6s5.1,2,5.1,4.5a5.1,5.1,0,0,1-10.1.1Zm9-.1a3.9,3.9,0,0,0-4-3.6,3.9,3.9,0,0,0-3.9,3.7,3.9,3.9,0,0,0,4,3.7A4,4,0,0,0,92,26.2Z" fill="url(#b607cedc-4c56-40fc-972c-0a1b0b960e6e)"/>
        <path d="M94.6,29.5l.7-.8A4.2,4.2,0,0,0,98.5,30c1.5-.1,2.3-.8,2.3-1.6s-.9-1.3-2.7-1.7-3.2-.9-3.3-2.4,1.4-2.6,3.3-2.6a5.5,5.5,0,0,1,3.5,1.2l-.7.8a4.3,4.3,0,0,0-2.8-1.1c-1.3,0-2.1.8-2.1,1.6s1,1.2,2.7,1.6,3.2.9,3.2,2.5-1.1,2.6-3.4,2.6A6.2,6.2,0,0,1,94.6,29.5Z" fill="url(#ab87f405-2539-4704-b668-04f3e6024ad9)"/>
        <path d="M104,22h1.1l3.8,6.1,3.6-6.2h1.1v8.9h-1.1V24.1l-3.6,6.2-3.7-6.1v6.7h-1.1Z" fill="url(#fcb3817b-3d72-46dc-bb3a-c10f2d1d88c7)"/>
        <path d="M115.8,26.3c-.1-2.5,2.3-4.6,5-4.6s5.1,2,5.1,4.5a4.8,4.8,0,0,1-5,4.7C118.2,30.9,115.8,28.8,115.8,26.3Zm9-.1a4,4,0,0,0-4.6-3.3,4.2,4.2,0,0,0-3.3,3.4,4,4,0,0,0,4,3.7A4,4,0,0,0,124.8,26.2Z" fill="url(#ba6e6002-fc4a-4872-aecb-5a9c51204ad8)"/>
        <path d="M127.4,29.5l.7-.8a4.2,4.2,0,0,0,3.2,1.3c1.6-.1,2.3-.8,2.3-1.6s-.9-1.3-2.7-1.7-3.2-.9-3.2-2.4,1.3-2.6,3.2-2.6a5.5,5.5,0,0,1,3.5,1.2l-.7.8a4.3,4.3,0,0,0-2.8-1.1,2,2,0,0,0-2.1,1.6c0,.9,1,1.2,2.7,1.6s3.2.9,3.3,2.5-1.2,2.6-3.5,2.6A6.2,6.2,0,0,1,127.4,29.5Z" fill="url(#e00f6b22-dc3e-407d-a67e-add1a7359d62)"/>
      </g>
    </g>
    <path d="M167,79.7V78.5h1v1.2Z" fill="#231f20"/>
    <rect x="62.4" y="256.6" width="210.1" height="32.51" fill="#262262"/>
    <rect x="146.5" y="216" width="41.9" height="0.93" fill="#262262"/>
    <path d="M169.9,184.9a1.7,1.7,0,0,0-.4-1.2,3,3,0,0,0-.8-.8,2.2,2.2,0,0,0-1.6-.3,2.3,2.3,0,0,0-1.6,1.1,1.7,1.7,0,0,0-.4,1.2,2.8,2.8,0,0,0,.3,1.3l.3.5.9,1.4a9.2,9.2,0,0,1,.9,2.3h0a9.9,9.9,0,0,1,1.5-3.3l.6-.9a1.4,1.4,0,0,0,.2-.6A1.7,1.7,0,0,0,169.9,184.9Zm-2.4.9a.9.9,0,0,1-.8-.8h0a.8.8,0,1,1,1.6,0h0c.1.4-.3.8-.7.9Z" fill="#be1e2d" fill-rule="evenodd"/>
    <g>
      <rect x="81.2" y="123.6" width="172.5" height="20.02" fill="url(#ab6712ad-268c-4a8a-a8f2-ea3f6226440c)"/>
      <circle cx="101.5" cy="133.6" r="2" fill="#262262"/>
    </g>
    <g>
      <rect x="81.2" y="152.8" width="172.5" height="20.02" fill="url(#be936780-0de8-42ec-b4ab-5ecf70054d69)"/>
      <circle cx="101.7" cy="162.8" r="2" fill="#262262"/>
    </g>
    <path d="M310.9,246.7h0a3.8,3.8,0,0,1-3.7-3.7,3.6,3.6,0,0,1,1.1-2.6,3.7,3.7,0,0,1,5.2,0h0a3.7,3.7,0,0,1,.1,5.2h-.1A3.5,3.5,0,0,1,310.9,246.7Zm0-6.4a2.7,2.7,0,0,0-2.7,2.7h0a2.2,2.2,0,0,0,.8,2,2.8,2.8,0,0,0,3.8,0,2.7,2.7,0,0,0,.2-3.8,2.7,2.7,0,0,0-2.1-.9Z" fill="#be1e2d"/>
    <path d="M13.7,309.6h0a3.6,3.6,0,0,1-2.6-1.1,3.9,3.9,0,0,1-1.1-2.7,3.7,3.7,0,0,1,6.3-2.5h0a3.7,3.7,0,0,1,0,5.2,3.6,3.6,0,0,1-2.6,1.1Zm0-6.5a2.7,2.7,0,0,0-1.9.8,2.8,2.8,0,0,0-.9,1.9,3,3,0,0,0,.8,2,3,3,0,0,0,2,.8,2.8,2.8,0,0,0,2.2-3.3,2.8,2.8,0,0,0-2.2-2.2Z" fill="#be1e2d"/>
    <path d="M94.3,48.6h0a3.6,3.6,0,0,1-2.6-1.1,3.9,3.9,0,0,1-1.1-2.7,3.6,3.6,0,0,1,1.1-2.6,3.8,3.8,0,0,1,5.3.1h0a3.8,3.8,0,0,1-.4,5.4A3.6,3.6,0,0,1,94.3,48.6Zm0-6.5a2.7,2.7,0,0,0-2.7,2.7,3,3,0,0,0,.8,2,2.7,2.7,0,0,0,1.9.8,3.2,3.2,0,0,0,2-.8,2.9,2.9,0,0,0,0-3.9A3,3,0,0,0,94.3,42.1Z" fill="#fff"/>
    <path d="M317.3,21.4h0a3.8,3.8,0,0,1-3.7-3.7,3.7,3.7,0,0,1,6.2-2.7h.1a3.6,3.6,0,0,1,.1,5.1h-.1A3.6,3.6,0,0,1,317.3,21.4Zm0-6.5a2.7,2.7,0,0,0-1.9.8,3,3,0,0,0-.8,2,2.7,2.7,0,0,0,2.7,2.7,2,2,0,0,0,1.9-.8,2.7,2.7,0,0,0,.1-3.8A2.9,2.9,0,0,0,317.3,14.9Z" fill="#fff"/>
    <rect x="250.2" y="30.2" width="84.8" height="16.85" fill="url(#b7e7df90-794c-43af-8cb5-f7ed7db270ef)"/>
    <g>
      <rect x="26.2" y="316" width="258.6" height="0.63" fill="#262262"/>
      <rect x="26.2" y="301.1" width="258.6" height="0.63" fill="#262262"/>
      <rect x="130.1" y="303.2" width="0.6" height="11.4" fill="#262262"/>
      <rect x="204.3" y="303.2" width="0.6" height="11.4" fill="#262262"/>
    </g>
  </g>
</svg>
