<?xml version="1.0" encoding="UTF-8"?><svg id="Layer_1" xmlns="http://www.w3.org/2000/svg" width="335" height="335" xmlns:xlink="http://www.w3.org/1999/xlink" viewBox="0 0 335 335"><defs><clipPath id="clippath"><rect width="335" height="335" fill="none"/></clipPath><linearGradient id="linear-gradient" x1="0" y1="167.5" x2="335" y2="167.5" gradientTransform="translate(0 335) scale(1 -1)" gradientUnits="userSpaceOnUse"><stop offset="0" stop-color="#1b75bb"/><stop offset=".1" stop-color="#165f99"/><stop offset=".26" stop-color="#0f436a"/><stop offset=".41" stop-color="#0a2b44"/><stop offset=".57" stop-color="#061826"/><stop offset=".72" stop-color="#020b11"/><stop offset=".86" stop-color="#010304"/><stop offset="1" stop-color="#000"/></linearGradient></defs><g clip-path="url(#clippath)"><g><path d="M0,0H335V335H0V0Z" fill="url(#linear-gradient)"/><path d="M198.5,281.5c0-.66,.39-1.25,1-1.5,.58-.18,1.2-.22,1.8-.1,.1,0,.1,.1,0,.1-.41,.16-.74,.49-.9,.9-.11,.22-.18,.46-.2,.7-.08,.12-.11,.26-.1,.4-.13,.54-.56,.97-1.1,1.1h-1.3c-.1-.1-.1-.2,0-.2,.38-.22,.67-.58,.8-1v-.4Zm2.6,.7c0,.5-.5,.8-.8,1s-.1,.1,0,.1c.49,.13,1,.17,1.5,.1l.3-.2c.4-.12,.68-.48,.7-.9v-.3c0-.28,.08-.55,.2-.8,.22-.38,.58-.66,1-.8h0c.1-.1,.1-.2,0-.2h-1.6c-.76,.15-1.31,.82-1.3,1.6v.4h0Zm-5.3-.6c-.06,.48-.36,.9-.8,1.1-.1,0-.1,.1,0,.1h1.8c.37-.21,.63-.58,.7-1,.05-.09,.09-.19,.1-.3,0-.28,.08-.55,.2-.8,.14-.42,.43-.77,.8-1,.1,0,.1-.1,0-.1-.53-.1-1.07-.1-1.6,0-.69,.24-1.16,.87-1.2,1.6v.4h0Zm13.3,1.6c-.13,.46-.46,.83-.9,1,0,.06,.04,.1,.1,.1h0c.45,.13,.93,.17,1.4,.1,.54-.07,.98-.47,1.1-1v-.3c0-.28,.08-.55,.2-.8,.22-.38,.58-.66,1-.8,.1-.1,.1-.2,0-.2s-2.6-.2-2.9,1.5v.4h0Zm-2.7-.4c-.1,.6-.7,.9-.9,1.1s-.1,.1,0,.1h1.5l.3-.2c.39-.16,.68-.49,.8-.9v-.3l.3-.8c.19-.35,.51-.6,.9-.7,.1-.1,.1-.2,0-.2h-1.6c-.68,.22-1.18,.8-1.3,1.5v.4Zm-2.6-.3c-.13,.46-.46,.83-.9,1,0,.06,.04,.1,.1,.1,.45,.13,.93,.16,1.4,.1,.57-.08,1.02-.53,1.1-1.1v-.3c.02-.24,.09-.48,.2-.7,.18-.43,.55-.76,1-.9,0,0,0-.2-.1-.2s-2.6-.1-2.8,1.6v.4Zm-26.7-2c-.04,.46-.3,.87-.7,1.1-.1,0,0,.1,0,.1,.5,.07,1.01,.03,1.5-.1,.54-.14,.92-.64,.9-1.2v-.3c0-.2,.1-.5,.1-.7,.16-.44,.48-.8,.9-1h0c.1,0,.1-.1,0-.1-.29-.1-.61-.1-.9,0l-.9,.2c-.61,.29-.97,.93-.9,1.6v.4h0Zm16,.9c-.13,.46-.46,.83-.9,1,0,.1,0,.2,.1,.2h1.4c.57-.15,1-.62,1.1-1.2v-.3c.1-.2,.1-.5,.2-.7,.18-.43,.55-.76,1-.9,0-.1,0-.2-.1-.2s-2.6-.1-2.8,1.7v.4Zm-10.7-.7c-.12,.45-.41,.84-.8,1.1,.5,.07,1.01,.04,1.5-.1,.53-.12,.93-.56,1-1.1v-.3c.1-.3,.1-.6,.2-.8,.19-.37,.51-.66,.9-.8,.1-.1,.1-.2,0-.2s-2.6,0-2.8,1.8v.4h0Zm29.3,2.9c-.09,.47-.44,.86-.9,1h.1c.45,.14,.93,.17,1.4,.1h.4c.36-.18,.62-.51,.7-.9v-.3l.3-.8c.17-.42,.55-.73,1-.8h0s0-.2-.1-.2h-1.6c-.68,.22-1.18,.8-1.3,1.5v.4h0Zm-31.9-3c0,.5-.5,.9-.8,1.1,0,.06,.04,.1,.1,.1h1.8c.38-.24,.6-.65,.6-1.1,.05-.09,.09-.19,.1-.3-.02-.24,.02-.48,.1-.7,.09-.49,.38-.93,.8-1.2,.1,0,.1-.1,0-.1-.53-.12-1.09-.08-1.6,.1-.72,.23-1.18,.94-1.1,1.7v.4h0Zm8,.4c-.05,.46-.36,.85-.8,1,0,.1,0,.2,.1,.2,.47,.05,.93,.05,1.4,0,.55-.16,.94-.63,1-1.2,.05-.09,.09-.19,.1-.3,0-.28,.08-.55,.2-.8,.14-.39,.43-.71,.8-.9,.1,0,0-.1,0-.2s-2.7,0-2.8,1.8v.4Zm-2.7-.2c-.12,.48-.45,.88-.9,1.1,0,.06,.04,.1,.1,.1,.5,.05,1,.05,1.5,0l.3-.2c.39-.2,.65-.57,.7-1v-.3c.03-.27,.1-.54,.2-.8,.16-.41,.49-.74,.9-.9,.1,0,.1-.1,0-.1-.53-.12-1.09-.08-1.6,.1-.7,.22-1.19,.86-1.2,1.6v.4h0Zm5.4,.5c-.13,.42-.42,.78-.8,1-.1,.1-.1,.2,0,.2,.5,.07,1.01,.03,1.5-.1h.3c.37-.21,.63-.58,.7-1,0-.11,.03-.22,.1-.3,0-.3,.1-.6,.1-.8,.16-.46,.48-.85,.9-1.1h-.1c-.53-.12-1.09-.08-1.6,.1-.6,.2-1,.6-1.1,1.6v.4h0Zm-37.4,5.9c.1-.1,.1-.2,0-.2s-2.6,.4-2.5,2.1v.4c-.02,.49-.28,.94-.7,1.2,0,.06,.04,.1,.1,.1,.48,.03,.95-.04,1.4-.2,.52-.21,.84-.74,.8-1.3,.05-.09,.09-.19,.1-.3-.05-.26-.05-.54,0-.8,.16-.41,.44-.76,.8-1h0Zm2.7-.2c0-.06-.04-.1-.1-.1-.52,0-1.03,.1-1.5,.3-.66,.3-1.06,.98-1,1.7v.4c-.02,.49-.28,.94-.7,1.2,0,.07,.03,.1,.1,.1,.48,.04,.95-.03,1.4-.2l.3-.2c.37-.19,.61-.58,.6-1v-.4c-.02-.24,.02-.48,.1-.7,.09-.47,.38-.87,.8-1.1h0Zm-5.3,.4c0-.1,0-.2-.1-.2-.52,.03-1.03,.16-1.5,.4-.67,.27-1.05,.99-.9,1.7v.4c.02,.48-.21,.93-.6,1.2-.1,.1,0,.1,0,.1,.51,.03,1.02-.04,1.5-.2l.3-.2c.32-.27,.51-.68,.5-1.1v-.3c-.02-.27,0-.54,.1-.8,.1-.41,.35-.76,.7-1Zm5.3-.4h0Zm-8,.6h0c.1-.1,.1-.2,0-.2s-2.6,.4-2.5,2.2v.4c-.08,.45-.29,.87-.6,1.2-.1,0,0,.1,0,.1,.51,0,1.02-.1,1.5-.3,.52-.21,.84-.74,.8-1.3v-.3c-.01-.27,.02-.54,.1-.8,.08-.42,.34-.78,.7-1h0Zm-7.9,.8c.1-.1,0-.2-.1-.2l-1.5,.4c-.6,.39-.91,1.09-.8,1.8v.4c-.05,.51-.3,.98-.7,1.3h.1l1.4-.3,.3-.2c.37-.28,.56-.74,.5-1.2v-.3c-.01-.27,.02-.54,.1-.8,.08-.39,.34-.72,.7-.9h0Zm35.6-6.9c.31-.25,.52-.61,.6-1v-.3c0-.28,.08-.55,.2-.8,.14-.44,.42-.83,.8-1.1h0c.1,0,.1-.1,0-.1-.54-.03-1.08,.04-1.6,.2-.67,.25-1.1,.89-1.1,1.6v.4c-.09,.49-.38,.93-.8,1.2-.1,0,0,.1,0,.1h1.5l.4-.2h0Zm-30.3,6.3c.1,0,0-.1-.1-.1-.52,0-1.03,.1-1.5,.3-.66,.34-1.03,1.07-.9,1.8v.4c-.03,.47-.24,.9-.6,1.2-.1,.1-.1,.2,0,.2,.48-.04,.95-.14,1.4-.3l.4-.2c.3-.29,.48-.68,.5-1.1v-.3c-.05-.26-.05-.54,0-.8,.13-.45,.41-.84,.8-1.1h0Zm74.5-3.2l-.2,.4c-.12,.44-.46,.78-.9,.9,0,.1,0,.2,.1,.2,.46,.09,.93,.12,1.4,.1,.55-.04,1.01-.45,1.1-1,.05-.09,.09-.19,.1-.3l.3-.7c.22-.38,.58-.66,1-.8,.1,0,.1-.2,0-.2-.59-.15-1.21-.15-1.8,0-.65,.14-1.12,.73-1.1,1.4h0Zm2.6,.9c-.2,.42-.56,.75-1,.9v.2l1.5,.2h.4c.36-.18,.62-.51,.7-.9v-.3l.3-.9c.21-.41,.63-.68,1.1-.7v-.2c-.56-.13-1.13-.17-1.7-.1-.7,.13-1.22,.7-1.3,1.4v.4Zm-5.3-1c-.1,.5-.6,.8-.9,1s-.1,.1,0,.1c.49,.13,1,.17,1.5,.1h.3c.39-.16,.68-.49,.8-.9,.05-.09,.09-.19,.1-.3,0-.27,.1-.52,.3-.7,.15-.44,.48-.8,.9-1,.1,0,0-.1,0-.1-.56-.13-1.13-.17-1.7-.1-.6,.1-1.1,.5-1.3,1.5v.4h0Zm-58.5,4.1v.5c0,.5-.5,.9-.7,1.1s-.1,.1,0,.1h1.5l.3-.2c.3-.29,.48-.68,.5-1.1v-.3c-.02-.27,0-.54,.1-.8,.11-.49,.44-.89,.9-1.1,.1,0,0-.2-.1-.2-.51,.04-1.01,.14-1.5,.3-.66,.3-1.06,.98-1,1.7Zm-.1-1.7h0c.1,0,.1-.2,0-.2s-2.6,.3-2.5,2.1v.4c-.03,.44-.25,.84-.6,1.1-.1,.1-.1,.2,0,.2l1.4-.2c.54-.21,.9-.72,.9-1.3v-.3c0-.3,.1-.5,.1-.8,.13-.4,.37-.74,.7-1h0Zm2.5-8.7c-.51,.04-1.01,.14-1.5,.3-.68,.27-1.1,.97-1,1.7v.4c-.02,.49-.28,.94-.7,1.2h1.5l.4-.2c.3-.29,.48-.68,.5-1.1,0-.11,.03-.22,.1-.3-.02-.27,0-.54,.1-.8,.09-.41,.34-.77,.7-1,.1,0,0-.2-.1-.2Zm-18.4,9.9c.1-.1,.1-.2,0-.2-.59,.06-1.17,.23-1.7,.5-.57,.36-.85,1.04-.7,1.7v.4c-.03,.47-.24,.9-.6,1.2-.1,.1,0,.2,0,.1l1.4-.2c.54-.25,.86-.81,.8-1.4v-.3c-.01-.27,.02-.54,.1-.8,.12-.4,.37-.75,.7-1h0Zm86.8-1.4c-.03-.25,.04-.51,.2-.7,.22-.38,.58-.66,1-.8,.1,0,.1-.1,0-.1-.51-.21-1.06-.28-1.6-.2-.73,.09-1.31,.67-1.4,1.4v.4c-.2,.42-.56,.75-1,.9-.1,0-.1,.1,0,.1,.48,.16,.99,.23,1.5,.2h.3c.39-.19,.71-.51,.9-.9,0-.3,.1-.3,.1-.3Zm-2.6-.7c-.01-.24,.02-.48,.1-.7h0c.23-.4,.64-.66,1.1-.7,.1,0,.1-.2,0-.2s-2.6-.4-3,1.3v.3c-.16,.47-.53,.84-1,1,0,.06,.04,.1,.1,.1,.45,.17,.92,.24,1.4,.2,.55-.02,1.03-.38,1.2-.9,0-.14,.02-.28,.1-.4h0Zm5,1.4c.07-.29,.21-.57,.4-.8h0c.25-.33,.6-.58,1-.7,.1,0,.1-.1,0-.1s-2.6-.6-3,1.1v.4c-.2,.42-.56,.75-1,.9-.1,0-.1,.1,0,.1l1.4,.3c.55-.02,1.03-.38,1.2-.9v-.3h0Zm-13.7,5.5c0-.28,.08-.55,.2-.8,.2-.42,.56-.74,1-.9,.1,0,.1-.1,0-.1-.52-.14-1.07-.17-1.6-.1-.6,.1-1.1,.5-1.3,1.5v.3c-.09,.47-.44,.86-.9,1v.2c.5,.08,1,.12,1.5,.1h.3c.39-.16,.68-.49,.8-.9v-.3h0Zm16.3-4.7c.05-.3,.19-.58,.4-.8,.22-.38,.58-.66,1-.8,.1,0,.1-.1,0-.1-.5-.22-1.06-.29-1.6-.2-.72,.04-1.31,.59-1.4,1.3v.4c-.24,.43-.63,.75-1.1,.9,0,.06,.04,.1,.1,.1l1.4,.3h.4c.39-.1,.7-.41,.8-.8v-.3h0Zm-13.7,5.1c0-.3,.1-.58,.3-.8,.17-.42,.55-.73,1-.8h-.1c-.56-.13-1.13-.17-1.7-.1-.61,.23-1.07,.76-1.2,1.4v.4c-.09,.47-.44,.86-.9,1l1.5,.2c.53-.1,.96-.48,1.1-1v-.3h0Zm2.3-1.3c-.75,.13-1.32,.74-1.4,1.5v.4c-.12,.44-.46,.78-.9,.9-.1,0-.1,.1,0,.1,.45,.16,.92,.23,1.4,.2h.4c.4-.1,.6-.5,.8-.9,0-.11,.03-.22,.1-.3-.02-.27,0-.54,.1-.8h0c.24-.41,.64-.7,1.1-.8v-.2c-.52-.13-1.06-.16-1.6-.1h0Zm19.1-1.6c.09-.25,.23-.49,.4-.7,.25-.36,.66-.58,1.1-.6v-.2c-.58-.2-1.19-.3-1.8-.3-.6,.1-1,.5-1.3,1.3l-.2,.4c-.2,.4-.56,.7-1,.8v.2l1.4,.3c.58,0,1.09-.36,1.3-.9,.05-.09,.09-.19,.1-.3h0Zm2.5,.9l.4-.7c.26-.35,.66-.57,1.1-.6,.1,0,.1-.1,0-.2-.51-.21-1.05-.31-1.6-.3-.72-.01-1.36,.49-1.5,1.2v.4c-.24,.43-.63,.75-1.1,.9-.1,0-.1,.1,0,.1s1,.4,1.4,.3h.4c.41-.12,.74-.41,.9-.8v-.3h0Zm2.5,1.3c.03-.13,.03-.27,0-.4l.4-.6c.28-.35,.67-.6,1.1-.7h.1c-.57-.23-1.18-.36-1.8-.4-.66,.09-1.21,.56-1.4,1.2v.4c-.22,.43-.63,.72-1.1,.8v.2l1.4,.3c.56,.04,1.09-.28,1.3-.8Zm-10.1-3.8l.3-.7c.28-.35,.67-.6,1.1-.7,.1,0,.1-.1,0-.1s-2.5-.6-3,1l-.2,.4c-.2,.42-.56,.75-1,.9l1.4,.3c.59,.03,1.12-.34,1.3-.9l.1-.2h0Zm12.6,2.6c-.72-.01-1.36,.49-1.5,1.2l-.2,.3c-.2,.6-.8,.7-1.1,.8s-.1,.1,0,.2c.45,.18,.92,.31,1.4,.4h.4c.39-.08,.72-.34,.9-.7,.07-.12,.1-.26,.1-.4h0l.4-.7c.3-.36,.73-.57,1.2-.6,0,0,.1-.1,0-.1-.51-.23-1.05-.36-1.6-.4h0Zm-34.1,.9c.02-.28,.09-.55,.2-.8,.22-.38,.58-.66,1-.8,.1,0,.1-.1,0-.1-.56-.15-1.14-.15-1.7,0-.6,.1-1,.5-1.2,1.4v.4c-.12,.43-.41,.79-.8,1-.1,0-.1,.1,0,.1,.45,.13,.93,.17,1.4,.1,.54-.07,.98-.47,1.1-1v-.3h0Zm24.1-2.7c.06-.25,.16-.49,.3-.7,.26-.37,.65-.62,1.1-.7,.1,0,.1-.1,0-.1-.51-.2-1.05-.3-1.6-.3-.72,.09-1.31,.6-1.5,1.3v.4c-.2,.4-.56,.7-1,.8-.07,.07-.07,.13,0,.2l1.4,.3h.4c.39-.1,.7-.41,.8-.8l.1-.4h0Zm-62.5-2.9c.1,0,.1-.1,0-.1-.54-.03-1.08,.04-1.6,.2-.67,.25-1.1,.89-1.1,1.6v.4c-.09,.49-.38,.93-.8,1.2,0,.06,.04,.1,.1,.1h1.4l.4-.2c.31-.25,.52-.61,.6-1v-.3c0-.28,.08-.55,.2-.8,.14-.44,.42-.83,.8-1.1h0Zm13.3,.7c.1,0,0-.1-.1-.2s-2.5,0-2.7,1.8v.4c-.13,.42-.42,.78-.8,1-.1,.1-.1,.2,0,.2h1.4c.55-.16,.94-.63,1-1.2v-.3c0-.28,.08-.55,.2-.8,.18-.43,.55-.76,1-.9h0Zm-3.5,.6c.16-.36,.44-.64,.8-.8,.1,0,.1-.1,0-.1-.53-.12-1.09-.08-1.6,.1-.6,.2-1,.6-1.1,1.6v.4c-.06,.48-.36,.9-.8,1.1,.5,.05,1,.05,1.5,0l.4-.2c.34-.23,.55-.6,.6-1,0-.11,.03-.22,.1-.3-.01-.27,.02-.54,.1-.8h0Zm6.1-.4h0c.1,0,.1-.1,0-.2-.54-.03-1.08,.04-1.6,.2-.6,.1-1.1,.6-1.1,1.6v.4c-.13,.42-.42,.78-.8,1-.07,.07-.07,.13,0,.2h1.8c.37-.21,.63-.58,.7-1v-.3c0-.28,.08-.55,.2-.8,.09-.47,.38-.87,.8-1.1h0Zm21.1,2.7c.1-.1,.1-.2,0-.2-.53-.1-1.07-.1-1.6,0-.6,.1-1.1,.5-1.3,1.5v.4c-.1,.5-.6,.8-.9,1,0,.06,.04,.1,.1,.1,.45,.14,.93,.17,1.4,.1h.4c.36-.18,.62-.51,.7-.9v-.4c.02-.24,.09-.48,.2-.7,.2-.42,.56-.74,1-.9h0Zm-34.3-3.5c0-.06-.04-.1-.1-.1h-.9l-.8,.2c-.61,.29-.97,.93-.9,1.6v.4c0,.5-.5,.9-.7,1.1s-.1,.1,0,.1,1.1,.1,1.4-.1c.55-.16,.94-.63,1-1.2v-.3c.1-.2,.1-.5,.2-.7,.1-.44,.4-.8,.8-1Zm5.3,.3c.1-.1,0-.2-.1-.2s-2.5,0-2.7,1.8v.4c-.12,.45-.41,.84-.8,1.1,0,.06,.04,.1,.1,.1,.47,.07,.95,.03,1.4-.1,.53-.12,.93-.56,1-1.1v-.3c0-.28,.08-.55,.2-.8,.16-.41,.49-.74,.9-.9h0Zm-2.7-.2c.1,0,.1-.1,0-.1-.53-.12-1.09-.08-1.6,.1-.6,.2-1,.7-1.1,1.7v.4c-.15,.44-.43,.82-.8,1.1-.1,0-.1,.1,0,.1,.5,.07,1.01,.03,1.5-.1h.3c.38-.24,.6-.65,.6-1.1v-.3c0-.2,.1-.5,.1-.7,.2-.47,.55-.86,1-1.1Zm12.4,1.9c.16-.41,.49-.74,.9-.9,.1-.1,0-.2-.1-.2s-2.5-.1-2.7,1.7v.4c-.09,.44-.39,.82-.8,1v.2c.5,.05,1,.05,1.5,0,.55-.16,.94-.63,1-1.2,0-.11,.03-.22,.1-.3,0-.2,.1-.5,.1-.7Zm10.4,1.9c.02-.28,.09-.55,.2-.8,.14-.37,.43-.66,.8-.8h0c.1-.1,.1-.2,0-.2s-2.6-.2-2.8,1.6v.4c-.1,.5-.6,.8-.8,1s-.1,.1,0,.1c.45,.13,.93,.16,1.4,.1,.57-.08,1.02-.53,1.1-1.1,0-.11,.03-.22,.1-.3h0Zm2.8-.2c.16-.46,.48-.85,.9-1.1h-.1c-.5-.1-1-.1-1.5,0-.75,.1-1.31,.74-1.3,1.5v.4c-.09,.47-.44,.86-.9,1,0,.1,0,.2,.1,.2,.47,.05,.93,.05,1.4,0h.4c.39-.2,.65-.57,.7-1,0-.11,.03-.22,.1-.3,.02-.24,.09-.48,.2-.7h0Zm2.4,.9c.02-.24,.09-.48,.2-.7,.2-.36,.52-.64,.9-.8,.1-.1,.1-.2,0-.2s-2.6-.2-2.9,1.5v.4c-.12,.43-.41,.79-.8,1-.1,0-.1,.1,0,.1,.45,.13,.93,.16,1.4,.1,.57-.08,1.02-.53,1.1-1.1,.05-.09,.09-.19,.1-.3Zm-7.9-1.1c.1-.3,.1-.6,.2-.8,.21-.35,.52-.63,.9-.8,.1,0,.1-.1,0-.1-.53-.1-1.07-.1-1.6,0-.7,.22-1.19,.86-1.2,1.6v.3c-.12,.48-.45,.88-.9,1.1,.49,.13,1,.17,1.5,.1l.4-.2c.34-.2,.59-.52,.7-.9v-.3h0Zm-1.5-1.9h-.1c-.57-.12-1.15-.08-1.7,.1-.63,.24-1.06,.83-1.1,1.5v.4c-.1,.5-.6,.8-.9,1h.1c.45,.13,.93,.17,1.4,.1,.52-.14,.9-.57,1-1.1,.05-.13,.08-.26,.1-.4,.02-.24,.09-.48,.2-.7,.22-.41,.57-.72,1-.9Zm-3.8,1.5c0-.28,.08-.55,.2-.8,.14-.45,.47-.82,.9-1h0c.1,0,.1-.1,0-.1-.53-.1-1.07-.1-1.6,0-.7,.22-1.19,.86-1.2,1.6v.4c-.06,.48-.36,.9-.8,1.1-.1,0,0,.1,0,.1,.5,.05,1,.05,1.5,0h.3c.37-.21,.63-.58,.7-1v-.3h0Zm17.3-5.9c-.09,.47-.44,.86-.9,1-.1,0-.1,.1,0,.1l1.5,.2c.54-.13,.97-.56,1.1-1.1,0-.11,.03-.22,.1-.3,.02-.24,.09-.48,.2-.7,.2-.36,.52-.64,.9-.8,.1-.1,.1-.2,0-.2-.59-.15-1.21-.15-1.8,0-.6,.22-1.03,.76-1.1,1.4v.4Zm11.4,10.5l.2-.8c.24-.41,.64-.7,1.1-.8-1.2-.3-2.6-.5-3,1.2v.4c-.14,.34-.39,.62-.71,.8h2.05c.11-.15,.21-.31,.25-.5,.05-.09,.09-.19,.1-.3h0Zm2.8-.2c.2-.39,.57-.65,1-.7,.1,0,.1-.2,0-.2l-1.5-.2c-.73,.09-1.31,.67-1.4,1.4v.4c-.04,.11-.09,.21-.15,.3h1.78c.03-.07,.06-.13,.07-.2l.2-.8h0Zm6.2,.5c-.52-.16-1.06-.23-1.6-.2-.48,.05-.88,.32-1.14,.7h2.04c.21-.15,.44-.26,.7-.3,.1,0,.1-.1,0-.2h0Zm-2.6-.5c.1-.1,.1-.2,0-.2s-2.5-.5-3,1.2h1.86c.03-.11,.08-.21,.14-.3,.2-.39,.57-.65,1-.7Zm-59.18-4.8l-.21,5.8h-9.75l.03-7.93c.16-.26,.35-.5,.61-.67,.1,0,.1-.1,0-.1-.21,.02-.41,.05-.61,.09l-.02-4.9,1.43-.19,.3-.2c.4-.2,.5-.6,.6-1.1v-.3c0-.2,.1-.5,.1-.7,.13-.46,.46-.83,.9-1,0-.1,0-.2-.1-.2-.55,0-1.09,.1-1.6,.3-.6,.2-1,.7-1,1.7v.4c0,.42-.35,.76-.64,.98l-.02-2.49c.17-.27,.39-.51,.66-.68,.1,0,0-.1-.1-.1-.03,0-.26,.02-.57,.08l-.03-3.18c-.06-1.42,.99-2.64,2.4-2.8h5.6c1.52,.05,2.75,1.28,2.8,2.8l-.22,3.12c-.77,.18-1.82,.63-1.88,1.78v.4c0,.6-.5,.9-.7,1.1s-.1,.2,0,.2c.48,.04,.95-.03,1.4-.2,.55-.16,.94-.63,1-1.2v-.3c0-.12,.06-.22,.08-.34l-.35,7.05c-.69,.23-1.43,.7-1.43,1.68v.4c-.09,.47-.38,.87-.8,1.1,0,.1,0,.2,.1,.2,.48,.03,.95-.04,1.4-.2,.25-.06,.46-.21,.62-.4h0Zm-3.92-9.4v.4c-.02,.47-.29,.89-.7,1.1-.1,.1-.1,.2,0,.2,.51,.03,1.02-.04,1.5-.2h.3c.38-.24,.6-.65,.6-1.1,.05-.09,.09-.19,.1-.3-.02-.27,0-.54,.1-.8,.12-.48,.41-.9,.8-1.2h-.1c-.54-.03-1.08,.04-1.6,.2-.68,.27-1.1,.97-1,1.7h0Zm-3.5,1.6h1.5c.53-.23,.91-.72,1-1.3v-.4c-.01-.27,.02-.54,.1-.8,.19-.42,.5-.77,.9-1h-.1c-1.1,0-2.6,.2-2.6,1.9v.4c-.09,.49-.38,.93-.8,1.2h0Zm-.1,6.7c.02-.24,.09-.48,.2-.7,.03-.44,.3-.82,.7-1h0c.06,0,.1-.04,.1-.1s-.04-.1-.1-.1c-.55,0-1.09,.09-1.6,.3-.6,.2-1,.7-1,1.7v.4c-.04,.46-.3,.87-.7,1.1v.2l1.5-.2,.3-.2c.41-.21,.65-.64,.6-1.1v-.3h0Zm2.7-.7c.18-.42,.45-.8,.8-1.1h0c.1,0,.1-.1,0-.1s-2.6,.2-2.6,1.9v.4c-.1,.47-.34,.89-.7,1.2-.1,0-.1,.1,0,.1h1.4c.53-.23,.91-.72,1-1.3v-.3c-.01-.27,.02-.54,.1-.8h0Zm2.5,.8c.02-.28,.09-.55,.2-.8,.09-.47,.38-.87,.8-1.1h0c.1,0,.1-.1,0-.1-.54-.04-1.09,.03-1.6,.2-.68,.29-1.12,.96-1.1,1.7v.4c-.02,.47-.29,.89-.7,1.1-.1,.1-.1,.2,0,.2,.51,.03,1.02-.04,1.5-.2h.3c.35-.26,.57-.66,.6-1.1v-.3h0Zm2.9-9.3c.16-.38,.44-.7,.8-.9,.1-.1,.1-.2,0-.2-.28,.02-.55,.06-.82,.12l-.1,1.45c.04-.16,.06-.32,.12-.46h0Zm-.3,9.49c.05-.09,.09-.19,.1-.3-.02-.24,.02-.48,.1-.7,.13-.46,.46-.83,.9-1h0c0-.1,0-.2-.1-.2-.05,0-.59,.02-1.17,.22l-.12,2.78c.18-.22,.29-.5,.28-.8h0Zm-18.3-6.8c-.06,0-.1,.04-.1,.1s.04,.1,.1,.1l1.5-.2c.48-.27,.82-.75,.9-1.3v-.3c-.02-.27,0-.54,.1-.8,.12-.43,.41-.79,.8-1,.1,0,0-.2-.1-.2s-2.6,.3-2.5,2.1v.4c-.04,.46-.3,.87-.7,1.1h0Zm-2.7,.2c.51,.04,1.02-.03,1.5-.2l.3-.2c.37-.19,.61-.58,.6-1v-.4c-.02-.24,.02-.48,.1-.7,.15-.41,.43-.76,.8-1,.1,0,0-.1,0-.1-.55,0-1.09,.09-1.6,.3-.66,.3-1.06,.98-1,1.7v.4c-.02,.49-.28,.94-.7,1.2h0Zm8.7-2v.5c-.04,.46-.3,.87-.7,1.1,0,.06,.04,.1,.1,.1h1.4c.54-.21,.9-.72,.9-1.3v-.3c0-.3,.1-.5,.1-.8,.06-.15,.15-.28,.24-.42v-.7c-.77,.16-2.03,.61-2.03,1.82h-.01Zm-11.3,2.3c.51,.03,1.02-.04,1.5-.2,.5-.24,.81-.75,.8-1.3v-.3c0-.3,.1-.5,.1-.8,.16-.41,.44-.76,.8-1,.1-.1,.1-.2,0-.2s-2.6,.4-2.6,2.1v.4c-.03,.47-.24,.9-.6,1.2-.1,0,0,.1,0,.1h0Zm106.3,11.7c.1,0,.2-.2,.1-.2-.51-.23-1.05-.36-1.6-.4-.6-.1-1.2,.2-1.6,1.1l-.2,.3c-.09,.15-.21,.28-.34,.4h2.14c.07-.26,.21-.5,.4-.7,.28-.31,.68-.49,1.1-.5h0Zm13.4,.9l-7-3.8c-1.3-.49-2.75,.13-3.3,1.4l-1.03,2.37c-.63-.18-1.77-.39-2.41,.33h14.11c-.1-.1-.21-.19-.33-.27l-.04-.03Zm-17.4-.5c.02-.1,.02-.2,0-.3l.4-.7c.31-.33,.75-.51,1.2-.5,0,0,.1-.2,0-.2-.54-.22-1.12-.35-1.7-.4-.68,0-1.29,.45-1.5,1.1v.4c-.26,.39-.65,.68-1.1,.8-.1,0-.1,.1,0,.1l1.4,.5c.55,.01,1.06-.3,1.3-.8h0Zm-104.3-13.2c-.06,.48-.32,.91-.7,1.2-.1,.1,0,.1,0,.1,.51,.03,1.02-.04,1.5-.2l.3-.2c.35-.26,.57-.66,.6-1.1v-1.1c.13-.42,.42-.78,.8-1,.1-.1,.1-.2,0-.2-.55,.04-1.09,.17-1.6,.4-.67,.27-1.05,.99-.9,1.7v.4h0Zm-61.4,13.6c.28-.33,.39-.78,.3-1.2v-.2c-.09-.26-.12-.53-.1-.8,0-.45,.18-.88,.5-1.2,.1-.1,0-.2,0-.1-.54,.13-1.05,.37-1.5,.7-.58,.44-.79,1.23-.5,1.9v.4c.03,.31-.02,.61-.13,.9h1l.23-.1c.1-.1,.2-.2,.2-.3h0Zm-2.2-.2c-.02-.1-.02-.2,0-.3-.08-.26-.11-.53-.1-.8,0-.45,.18-.88,.5-1.2,.1-.1,0-.2-.1-.1s-2.4,1-1.9,2.7v.3h1.58c.04-.2,.05-.4,.02-.6Zm21.9-.1c0-.1,0-.2-.1-.2-.06,0-.96,.29-1.57,.9h1.04c.11-.31,.34-.57,.64-.7h-.01Zm-2.7,.6c-.11,.02-.22,.07-.33,.1h.35s.05-.07,.08-.1h-.1Zm-27.55-2.53c-.52-1.22-1.93-1.79-3.15-1.27l-7,3.8-.04,.03-.09,.07h11.44l-1.11-2.5s-.03-.09-.05-.13Zm6.25,.63c0-.1,0-.2-.1-.1-.52,.11-1,.35-1.4,.7-.41,.36-.62,.88-.61,1.4h1.71c-.09-.26-.12-.53-.1-.8-.04-.46,.15-.91,.5-1.2Zm-2.6,1c.1-.1,0-.2-.1-.2-.06,0-.97,.44-1.5,1.2h1.12c.03-.39,.15-.77,.38-1.1l.1,.1Zm83.5-12.7c-.3,.2,0,.2,.1,.2h.07v-.32c-.06,.04-.11,.09-.16,.12h-.01Zm-47.2,12.7v-.3c0-.3-.1-.6,0-.8,.09-.39,.3-.74,.6-1,.06,0,.1-.04,.1-.1s-.04-.1-.1-.1c-.62,.08-1.2,.32-1.7,.7-.49,.41-.69,1.08-.5,1.7v.4c.01,.17,0,.34-.05,.5h1.43c.21-.28,.31-.64,.22-1h0Zm2.5-.4v-.4c-.09-.22-.09-.48,0-.7,.1-.47,.34-.89,.7-1.2,.1,0,0-.1,0-.1-.53,.06-1.04,.23-1.5,.5-.64,.4-.96,1.16-.8,1.9v.4c.07,.36-.11,.72-.3,1h1.2l.3-.3c.28-.3,.42-.69,.4-1.1h0Zm42.9-5.3v.4c-.04,.46-.3,.87-.7,1.1h1.5c.48-.27,.82-.75,.9-1.3v-.3c-.01-.27,.02-.54,.1-.8,.05-.12,.12-.22,.19-.33v-.68c-.77,.17-1.99,.65-1.99,1.91h0Zm-48,6.4v-1.1c.07-.45,.28-.87,.6-1.2h0c.1,0,0-.1,0-.1-.53,.06-1.04,.23-1.5,.5-.66,.39-.95,1.18-.7,1.9v.3h1.64c0-.1-.01-.2-.04-.3h0Zm-2.7-.6c.12-.43,.36-.81,.7-1.1h0c.1-.1,.1-.2,0-.1-.09,.09-2.21,.63-2.23,2.1h1.63v-.2c-.08-.22-.12-.46-.1-.7h0Zm-1.8-.5h-.1c-.54,.09-1.05,.3-1.5,.6-.29,.2-.5,.48-.61,.8h1.51v-.1c.04-.51,.29-.99,.7-1.3Zm15.2-9.5c.04,.46-.15,.91-.5,1.2-.06,0-.1,.04-.1,.1s.04,.1,.1,.1c.48-.07,.95-.21,1.4-.4,.54-.25,.86-.81,.8-1.4v-.3c-.1-.26-.1-.54,0-.8,.09-.44,.34-.83,.7-1.1,.1,0,0-.1-.1-.1s-2.5,.6-2.3,2.3v.4h0Zm-10.8,0c0-.1,0-.2-.1-.2-.54,.09-1.05,.3-1.5,.6-.63,.41-.91,1.18-.7,1.9v.4c.02,.46-.16,.9-.5,1.2,0,.1,0,.2,.1,.1,.49-.03,.97-.16,1.4-.4l.3-.2c.27-.34,.41-.77,.4-1.2,0-.11-.03-.22-.1-.3v-.8c.05-.45,.31-.86,.7-1.1Zm2.6-.6c.1-.1,0-.2-.1-.1-.58,.05-1.13,.25-1.6,.6-.57,.4-.82,1.13-.6,1.8v.4c.08,.46-.11,.93-.5,1.2,0,.1,0,.2,.1,.2l1.4-.5c.48-.3,.75-.84,.7-1.4v-.3c-.09-.26-.12-.53-.1-.8,.09-.44,.34-.83,.7-1.1h0Zm4.5,1.2v-1.1c.08-.47,.37-.88,.8-1.1,0-.1,0-.2-.1-.2-.6,.09-1.18,.3-1.7,.6-.49,.46-.72,1.14-.6,1.8v.4c-.02,.45-.2,.87-.5,1.2-.1,.1-.1,.2,0,.2,.48-.07,.95-.21,1.4-.4,.5-.28,.77-.83,.7-1.4Zm-1.9-1.7c.1-.1,.1-.2,0-.2-.56,.11-1.1,.31-1.6,.6-.58,.4-.86,1.11-.7,1.8v.4c-.03,.49-.25,.96-.6,1.3,0,.06,.04,.1,.1,.1,.48-.07,.95-.21,1.4-.4l.3-.3c.28-.3,.42-.69,.4-1.1v-.3c-.1-.26-.1-.54,0-.8,.1-.44,.34-.83,.7-1.1Zm-13.8,4.8v-.7c.1-.47,.34-.89,.7-1.2,.1-.1,0-.2-.1-.1s-2.5,.8-2.1,2.5v.4c.02,.46-.16,.9-.5,1.2,0,.1,0,.2,.1,.2l1.3-.5c.52-.26,.81-.83,.7-1.4,.01-.14-.02-.28-.1-.4Zm5.3-2c.1-.44,.3-.86,.6-1.2h0c.1,0,.1-.1,0-.1s-2.5,.8-2.2,2.5v.4c.05,.44-.1,.88-.4,1.2-.06,0-.1,.04-.1,.1s.04,.1,.1,.1l1.4-.5c.48-.3,.75-.84,.7-1.4-.05-.09-.09-.19-.1-.3v-.8h0Zm-7.2,.8c.1-.1,0-.2-.1-.2-.53,.15-1.04,.39-1.5,.7-.59,.44-.83,1.2-.6,1.9v.4c.1,.5-.3,1-.5,1.3,0,.06,.04,.1,.1,.1l1.4-.5,.3-.3c.31-.31,.43-.78,.3-1.2v-.3c-.09-.26-.12-.53-.1-.8,.08-.45,.33-.84,.7-1.1Zm4.6-.2c.07-.42,.28-.81,.6-1.1,.1-.1,0-.2-.1-.2-.53,.11-1.04,.31-1.5,.6-.56,.45-.8,1.2-.6,1.9v.4c.07,.47-.08,.95-.4,1.3-.1,0,0,.1,0,.1l1.4-.5,.3-.2c.29-.33,.44-.76,.4-1.2-.05-.09-.09-.19-.1-.3v-.8h0Zm22.3,3.1h0c0-.1,0-.2-.1-.2-.53,.06-1.04,.23-1.5,.5-.6,.39-.91,1.09-.8,1.8v.4c.04,.49-.14,.97-.5,1.3-.1,0,0,.1,0,.1l1.4-.3,.3-.3c.34-.26,.52-.67,.5-1.1v-.3c-.1-.26-.1-.54,0-.8,.05-.45,.31-.86,.7-1.1h0Zm2.6-.4h0c.1-.1,0-.2-.1-.2s-2.5,.6-2.3,2.3v.4c.04,.46-.15,.91-.5,1.2-.06,0-.1,.04-.1,.1s.04,.1,.1,.1c.48-.07,.95-.21,1.4-.4,.52-.21,.84-.74,.8-1.3v-.3c-.05-.26-.05-.54,0-.8,.05-.45,.31-.86,.7-1.1h0Zm-10.5,1.7c.1,0,.1-.1,0-.1-.6,.09-1.18,.3-1.7,.6-.49,.46-.72,1.14-.6,1.8v.4c-.01,.47-.23,.91-.6,1.2,0,.07,.03,.1,.1,.1,.49-.03,.97-.16,1.4-.4,.45-.28,.71-.77,.7-1.3v-.4c-.09-.22-.09-.48,0-.7,.1-.47,.34-.89,.7-1.2Zm13.1-2.1c.1,0,.1-.1,0-.1-.55,.04-1.09,.17-1.6,.4-.6,.39-.91,1.09-.8,1.8v.4c.05,.51-.18,1.01-.6,1.3h.1l1.4-.3,.3-.3c.35-.25,.54-.67,.5-1.1v-1.1c.12-.4,.36-.75,.7-1h0Zm-7.8,1.2s0-.2-.1-.1-2.5,.5-2.3,2.3v.4c.02,.46-.16,.9-.5,1.2,0,.1,0,.2,.1,.1,.45,0,.9-.1,1.3-.3,.54-.25,.86-.81,.8-1.4v-.3c-.1-.26-.1-.54,0-.8,.09-.44,.34-.83,.7-1.1h0Zm-2.7,.5c.1-.1,.1-.2,0-.2-.53,.06-1.04,.23-1.5,.5-.64,.4-.96,1.16-.8,1.9v.4c.02,.46-.16,.9-.5,1.2l1.5-.3,.3-.3c.28-.3,.42-.69,.4-1.1v-.3c-.1-.26-.1-.54,0-.8,.09-.39,.3-.74,.6-1h0Zm2.3-6.7c-.06,.46-.27,.88-.6,1.2-.1,.1,0,.1,0,.1,.51,0,1.02-.1,1.5-.3l.3-.3c.29-.29,.43-.69,.4-1.1v-1.1c.12-.45,.41-.84,.8-1.1,.1,0,.1-.2,0-.1-.55,.04-1.09,.17-1.6,.4-.62,.42-.93,1.16-.8,1.9v.4Zm8-1.2c-.06,.46-.27,.88-.6,1.2-.1,0,0,.1,.1,.1,.48,0,.96-.1,1.4-.3,.47-.27,.77-.76,.8-1.3v-.3c-.1-.26-.1-.54,0-.8,.1-.44,.34-.83,.7-1.1,.1-.1,.1-.2,0-.2s-2.6,.5-2.4,2.3v.4h0Zm-2.7,.3c.05,.51-.18,1.01-.6,1.3,0,.06,.04,.1,.1,.1,.48-.04,.95-.14,1.4-.3,.1-.1,.3-.2,.3-.3s.5-.6,.5-1.1v-1.1c.15-.44,.43-.82,.8-1.1,0-.06-.04-.1-.1-.1h0l-1.5,.4c-.66,.34-1.03,1.07-.9,1.8v.4h0Zm-2.6,.4c-.01,.5-.23,.97-.6,1.3h.1l1.4-.3c.5-.29,.81-.82,.8-1.4v-.3c-.1-.26-.1-.54,0-.8,.08-.42,.34-.78,.7-1,.1,0,0-.2-.1-.1s-2.5,.5-2.3,2.2v.4h0Zm12.6-.4c-.06,0-.1,.04-.1,.1s.04,.1,.1,.1c.51-.05,1.01-.15,1.5-.3l.3-.2c.34-.26,.52-.67,.5-1.1v-.3c-.02-.27,0-.54,.1-.8,.06-.5,.36-.95,.8-1.2h-.1c-.55,0-1.09,.1-1.6,.3-.6,.39-.95,1.08-.9,1.8v.4c.02,.48-.21,.93-.6,1.2Zm2.7-.2c.48,0,.96-.1,1.4-.3,.56-.18,.93-.71,.9-1.3v-.3c-.01-.27,.02-.54,.1-.8,.12-.4,.37-.75,.7-1h0c.1-.1,.1-.2,0-.2s-2.6,.4-2.5,2.2v.4c-.08,.45-.29,.87-.6,1.2-.1,0,0,.1,0,.1h0Zm-7.4-.5c.03,.51-.19,1-.6,1.3,0,.06,.04,.1,.1,.1,.48-.05,.95-.15,1.4-.3l.3-.2c.37-.28,.56-.74,.5-1.2v-.3c-.02-.24,.02-.48,.1-.7,.05-.45,.31-.86,.7-1.1h0c.06,0,.1-.04,.1-.1s-.04-.1-.1-.1l-1.6,.4c-.66,.34-1.03,1.07-.9,1.8v.4h0Zm2.7-.3c-.03,.47-.24,.9-.6,1.2-.06,0-.1,.04-.1,.1s.04,.1,.1,.1l1.4-.3c.56-.24,.91-.79,.9-1.4v-.3c-.1-.2,0-.5,0-.7,.13-.45,.41-.84,.8-1.1,.1-.1,0-.2-.1-.2-.59,.07-1.16,.24-1.7,.5-.57,.36-.85,1.04-.7,1.7v.4h0Zm-45,7c.1-.1,0-.2-.1-.2s-2.4,.9-2,2.6v.4c.07,.47-.08,.95-.4,1.3,0,.1,0,.2,.1,.1l1.3-.5c.48-.34,.71-.93,.6-1.5v-.3c-.09-.26-.12-.53-.1-.8,.04-.43,.26-.83,.6-1.1Zm4.6,.4c-.08-.22-.12-.46-.1-.7,.1-.47,.34-.89,.7-1.2,.1-.1,0-.2-.1-.2s-2.5,.9-2.1,2.6v.4c.04,.47-.1,.94-.4,1.3-.1,0,0,.1,.1,.1l1.3-.5c.48-.34,.71-.93,.6-1.5v-.3h0Zm-7.1,.3c0-.06-.04-.1-.1-.1h0c-.53,.17-1.03,.41-1.5,.7-.58,.44-.79,1.23-.5,1.9v.4c.05,.5-.1,1-.4,1.4-.1,0,0,.1,0,.1l1.4-.6,.3-.3c.22-.36,.29-.79,.2-1.2v-.3c-.09-.26-.12-.53-.1-.8,.05-.48,.31-.92,.7-1.2Zm45.1-1.1c0-.1,0-.2-.1-.2s-2.5,.5-2.4,2.3v.4c-.06,.46-.27,.88-.6,1.2-.1,0,0,.1,0,.1,.48,0,.96-.1,1.4-.3,.5-.24,.81-.75,.8-1.3v-1.1c.16-.46,.48-.85,.9-1.1h0Zm-40-.4h0c.1-.1,0-.2-.1-.1-.51,.09-.98,.3-1.4,.6-.62,.42-.87,1.2-.6,1.9v.4c.02,.51-.16,1.01-.5,1.4,0,.06,.04,.1,.1,.1,.4-.2,1.1-.3,1.4-.6l.3-.2c.19-.37,.29-.78,.3-1.2v-.3c-.08-.26-.11-.53-.1-.8,.07-.45,.28-.87,.6-1.2h0Zm23.9-3.4c.04,.48-.19,.94-.6,1.2,0,.1,0,.2,.1,.2,.48-.07,.95-.21,1.4-.4l.3-.3c.3-.29,.48-.68,.5-1.1-.05-.09-.09-.19-.1-.3v-.8c.1-.44,.34-.83,.7-1.1,.06,0,.1-.04,.1-.1s-.04-.1-.1-.1l-1.6,.5c-.63,.41-.91,1.18-.7,1.9v.4h0Zm-31.7,5.6c-.6,.16-1.15,.47-1.6,.9-.48,.47-.63,1.17-.4,1.8v.4c.13,.46,.01,.95-.3,1.3-.1,0,0,.1,0,.1,.51-.09,.98-.3,1.4-.6,.44-.32,.64-.87,.5-1.4l.1-.4c-.08-.22-.12-.46-.1-.7,0-.45,.18-.88,.5-1.2,.1-.1,0-.2-.1-.2h0Z" fill="#f6921e"/><path d="M0,295.3H335v39.69H0v-39.69Z" fill="#231f20"/></g></g><g><path d="M130.8,228.8c-.8-.34-1.47-.94-1.9-1.7-.65-1.3-.96-2.75-.9-4.2,.1-3.4-.6-6.7-.7-10.1,0-1.42-.2-2.84-.6-4.2-1.1-3.6-2-7.3-3.1-10.9s-3.6-9.7-6.9-13.6c-3.5-4.44-7.49-8.46-11.9-12-2-1.5-3.8-3.4-6.1-4.4l-10.2-4.5c-2.49-1.05-5.12-1.75-7.8-2.1l-4.5-.7c-3.8-.7-7.7-.7-11.3-1.9h-1.2c-4.9-.6-9.5,.9-14.3,1.4-2.2,.2-3.9,1.5-6,2.1-1.19,.38-2.24,1.11-3,2.1-2,2.1-3.8,4.5-6.5,5.9-1.83,.9-3.49,2.12-4.9,3.6-2.36,2.43-4.56,5-6.6,7.7-.74,1.14-1.65,2.15-2.7,3-1.92,1.46-3.44,3.39-4.4,5.6-1.7,3.5-3.1,7.2-4.5,10.8-1.1,3.03-1.8,6.19-2.1,9.4-.3,1.7-.3,3.5-.6,5.2-.6,3.6-.8,7.1,.5,10.6,.2,.48,.3,.99,.3,1.5,.04,3.73,.97,7.4,2.7,10.7,.8,1.6,1.8,3.2,1.8,5.1,0,2.72,1.39,5.25,3.7,6.7,.46,.26,.84,.64,1.1,1.1,1.09,2.52,2.46,4.9,4.1,7.1,3.63,5.45,8.33,10.11,13.8,13.7,1.81,1.3,3.8,2.35,5.9,3.1,2.2,.8,4.4,1.5,6.5,2.4,1.27,.77,2.66,1.34,4.1,1.7l5.4,1.2c2.14,.5,4.31,.8,6.5,.9,1.7,0,3.6-.3,5.2,.1,1.45,.25,2.92,.39,4.4,.4,3.4,.12,6.8-.25,10.1-1.1,1.59-.28,3.15-.65,4.7-1.1,2.67-.95,5.25-2.16,7.7-3.6,1.8-.9,3.8-1.6,5.4-3.1,3.3-3.1,6.9-5.9,10.1-9.2,2.42-2.6,4.59-5.41,6.5-8.4,2-3.4,4-6.8,5.8-10.2,1.61-2.6,2.57-5.55,2.8-8.6,.1-1.6,.8-2.2,2.4-2.3,1.47-.25,2.6-1.42,2.8-2.9,.3-1.4-.6-1.9-1.6-2.3h0Zm-8.2,.5c-.08,1.71-.52,3.38-1.3,4.9l-2.1,2.9c-.43,.67-1.21,1.02-2,.9-1-.3-1,.9-1.7,1.1s-2.3,1-3.6,1.2-.9,.1-.7,.7,.5,.3,.9,.3h1.4c-.5,1-1.3,.8-1.7,1.2s-.6,.5-.4,.8,.5,.1,.7-.1,.9-.3,.8,.5,.6,1.3-.7,1.6-.6,1.6-.3,2.4,.2,3.1,.9,4.5,0,.3,0,.4-.7,2.1-1.4,2.7c-3,2.7-5.5,5.8-8.6,8.3-4.51,3.5-9.58,6.2-15,8-3.92,1.5-8.02,2.48-12.2,2.9-3.1,.3-6,1.5-9.1,1.4-1.55,0-3.1-.2-4.6-.6-3.1-.8-6.2-1.4-9.2-2.3-2.53-.71-4.93-1.82-7.1-3.3-1.8-1.2-3.7-2.2-5.5-3.3-2.85-1.6-5.56-3.44-8.1-5.5-2.26-1.78-4.37-3.76-6.3-5.9-1.6-1.7-2.8-3.7-4.5-5.2s-.2-1.7-.5-2.6c-.29-1.18-.8-2.3-1.5-3.3-2-2.5-2.6-5.5-3-8.6s-.9-4.9-1.4-7.4c-.25-1.76-.25-3.54,0-5.3,.22-1.82,.28-3.66,.2-5.5-.22-2.38,.12-4.78,1-7,.97-2.49,1.8-5.02,2.5-7.6,.83-2.47,1.97-4.82,3.4-7,1.29-2.1,2.33-4.35,3.1-6.7,1.3-3.04,3.41-5.67,6.1-7.6,2-1.5,3.7-3.3,5.9-4.5,1.78-.83,3.62-1.53,5.5-2.1,2.2-.8,4.1-2.3,6.3-3.2s6.6-2.9,10.3-3.3c4.23-.67,8.53-.84,12.8-.5,1.9,.1,3.7,.9,5.5,1.3,1.52,.31,3.03,.71,4.5,1.2,1.2,.3,2.2,.9,3.4,1.2,2.56,.5,5.04,1.3,7.4,2.4,2.3,1,4.1,2.5,6.2,3.7,4.32,2.53,8.09,5.9,11.1,9.9,3.1,4.3,5.78,8.89,8,13.7,1.54,3.49,2.68,7.15,3.4,10.9,.4,2.4,1.1,4.8,1.3,7.2,.37,3.39,.33,6.82-.1,10.2h0ZM11.5,253.5c-.72,0-1.31,.57-1.32,1.28,0,.07,0,.14,.02,.22,0,1,.5,1.5,1.6,1.5s1.2-.5,1.1-1.4-.5-1.6-1.4-1.6Zm120.9-31c-.6-.07-1.15,.37-1.21,.97,0,.11,0,.22,0,.33,0,.6,.3,1.4,1.1,1.3s1.4-.4,1.4-1.2-.5-1.5-1.3-1.4h0Zm-21.9,21.3c-.2,0-.5-.2-.7,.1s.1,.6,.3,.8c.22,.32,.29,.72,.2,1.1,0,.2,0,.4,.3,.5s.3-.2,.4-.4c-.02-.3,.02-.61,.1-.9,.03-.17,0-.35-.1-.5,0-.3,0-.7-.5-.7h0Z" fill="#f6921e"/><circle cx="67.8" cy="221" r="50.2" fill="#f6921e"/></g><circle cx="67.8" cy="221" r="46.8" fill="#00a551"/><g><path d="M34.9,18c0,.3-.1,.58-.3,.8l-3.7,3.7-4-2.3v-2.3c0-.61,.49-1.1,1.1-1.1h.1c.63,0,1.15,.48,1.2,1.1v2.9l3.6-3.7c.5-.38,1.2-.38,1.7,0,.22,.25,.33,.57,.3,.9m-1.2,10.6h-.4l-.4-.3-3.6-3.6v2.8c-.05,.64-.56,1.15-1.2,1.2-.66,0-1.2-.54-1.2-1.2h0v-2.3l4-2.2,3.7,3.7c.45,.41,.48,1.11,.07,1.55-.25,.27-.61,.4-.97,.35m-3-6h-.1l-1-.6-2.7-1.5-2.2-1.3c-.2-.1-.3-.1-.4,.1v6.8c0,.2,.1,.3,.2,.3h.2l2.2-1.3,3.7-2.2h.1v-.3Zm-.9,.2h-.1l-2.8,1.6-1.8,1c-.07,.08-.2,.09-.28,.02l-.02-.02v-5.3c0-.11,.09-.2,.2-.2h.1l1.8,1,2.8,1.6c.07,.08,.11,.19,.1,.3Zm-.8,0h-.1l-2.1,1.3-1.3,.7h-.2v-4h.2l1.3,.7,2.1,1.3h.1m25.2-.2c0-.1-.1-.1-.1-.2l-3.3-1.6-2-1c-.1-.1-.3,0-.3,.2v5.4c0,.2,.2,.3,.4,.2l2-1.1,3.2-1.7h.1v-.2Zm-.8,.1c0,.06-.04,.1-.1,.1l-2.5,1.3-1.5,.8c-.09,.06-.22,.04-.28-.05,0-.01-.02-.03-.02-.05v-4.2c0-.11,.09-.2,.2-.2h0l1.6,.8,2.5,1.3c.07,0,.1,.03,.1,.1v.1Z" fill="#fff"/><path d="M52.7,22.7h-.1l-1.8,1-1.2,.7h-.2v-3.3c0-.07,.03-.1,.1-.1h.1l1.1,.6,1.9,.9h.1m-15.4-2.6h2.8c1.4-.1,2.4,.7,2.4,1.8-.11,1.18-1.12,2.06-2.3,2h-1.5v1.8h-1.3l-.1-5.6Zm2.7,2.7c.7-.1,1.1-.4,1.1-.9s-.5-.7-1.1-.7h-1.4v1.6h1.4Zm7.8,1.9v1.1h-4.5v-5.6h1.3v4.5h3.2Zm7.9-1.1l-2.5-3.5h1.5l1.6,2.5,1.6-2.5h1.5l-2.4,3.5v2h-1.3v-2Zm4.6-3.3h.7v3.2l3.1-3.2h1l-2.7,2.6,2.9,3h-.9l-2.4-2.6-1,1v1.7h-.7v-5.7Zm5.5,2.8c.05-1.67,1.43-3,3.1-3,1.71-.11,3.19,1.18,3.3,2.89h0c.03,1.78-1.38,3.24-3.15,3.26-1.77,.03-3.22-1.38-3.25-3.15Zm5.7-.1c-.03-1.38-1.17-2.48-2.55-2.45s-2.48,1.17-2.45,2.55c.1,1.3,1.19,2.3,2.5,2.3,1.34,0,2.45-1.06,2.5-2.4Zm1.6,2.1l.5-.5c.52,.54,1.25,.84,2,.8,1,0,1.5-.5,1.5-1s-.6-.8-1.7-1-2.1-.6-2.1-1.6,.9-1.6,2.1-1.6c.8-.08,1.6,.17,2.2,.7l-.4,.5c-.52-.4-1.14-.65-1.8-.7-.8,0-1.4,.5-1.4,1s.6,.8,1.7,1,2.1,.6,2.1,1.6-.7,1.7-2.2,1.7c-.92,.02-1.81-.3-2.5-.9Zm6-4.8h.7l2.4,3.9,2.3-3.9h.7v5.6h-.7v-4.2l-2.3,3.9-2.4-3.9v4.3h-.7v-5.7Zm7.5,2.8c.11-1.69,1.51-3,3.2-3,1.68-.06,3.09,1.23,3.2,2.9,.03,1.77-1.38,3.22-3.15,3.25s-3.22-1.38-3.25-3.15Zm5.7-.1c-.03-1.38-1.17-2.48-2.55-2.45s-2.48,1.17-2.45,2.55c.1,1.3,1.19,2.3,2.5,2.3,1.34,0,2.45-1.06,2.5-2.4Zm1.6,2.1l.5-.5c.53,.52,1.25,.81,2,.8,1,0,1.5-.5,1.5-1s-.6-.8-1.7-1-2.1-.6-2.1-1.6,.9-1.6,2.1-1.6c.8-.08,1.6,.17,2.2,.7l-.4,.5c-.51-.42-1.14-.66-1.8-.7-.8,0-1.4,.5-1.4,1s.7,.8,1.7,1,2.1,.6,2.1,1.6-.7,1.7-2.2,1.7c-.92,.02-1.81-.3-2.5-.9Zm-22.1,104h191.5v1.02H71.8v-1.02h0Zm121.6,142.2h128.3v.99H193.4v-.99Z" fill="#fff"/></g><g><rect x="301.1" y="211.8" width="20.5" height="5.69" rx=".7" ry=".7" fill="#f6921e"/><path d="M303.6,204.2h1v7.99h-1v-7.99Zm14.7,0h1v7.99h-1v-7.99Z" fill="#f6921e"/><path d="M304,205.6h14.7v.3h-14.7v-.3Zm0,1.6h14.7v.3h-14.7v-.3Zm0,1.5h14.7v.3h-14.7v-.3Zm0,1.6h14.7v.3h-14.7v-.3Z" fill="#f6921e"/><path id="C" d="M314.2,151v-14.7h.3v14.7h-.3Zm1.7,0v-14.7h.3v14.7h-.3Zm1.4,0v-14.7h.3v14.7h-.3Zm1.6-.1v-14.7h.3v14.7h-.3Z" fill="#f6921e"/><path id="C-2" d="M196.9,151v-14.7h.3v14.7h-.3Zm1.7,0v-14.7h.3v14.7h-.3Zm1.4,0v-14.7h.3v14.7h-.3Zm1.6-.1v-14.7h.3v14.7h-.3Z" fill="#f6921e"/><path d="M15.9,151v-14.7h.3v14.7h-.3Zm1.6-.1v-14.7h.3v14.7h-.3Zm1.5,.1v-14.7h.3v14.7h-.3Zm1.5,0v-14.7h.3v14.7h-.3Zm68.4-.1v-14.7h.3v14.7h-.3Zm1.6,.1v-14.7h.3v14.7h-.3Zm1.5,0v-14.7h.3v14.7h-.3Zm1.6,0v-14.7h.3v14.7h-.3Z" fill="#f6921e"/></g><path d="M305,182.2c.2,1.8,2.2,2.6,3.7,2.9s4.2,.7,5.8-.5c1.55-.97,2.31-2.82,1.9-4.6-.2-.89-.61-1.71-1.2-2.4h.9c.2,.3,.1,.6,.1,.9s.7,.1,1,.3c.05,.36,.05,.74,0,1.1h2.3c-.12-1.98,.19-3.95,.9-5.8,.4-.9,.8-1.6,1.3-2.5s-.2-.2-.3-.2l-4.2-.2-.5-.2-1.8-2.4c-.4-.3-1-.1-1.5-.2s-.1-.3-.1-.4l.9-1.2c.2-.4-.3-.5-.5-.5s-1.2,1.3-1.9-.1-1,.4-1.5,.3c-.5-.66-1.44-.8-2.1-.3h0c-.28-.03-.57,.04-.8,.2l.2,.2c.65,.7,1.16,1.51,1.5,2.4,0,.2,0,.3-.2,.4-.56,0-1.09,.22-1.5,.6-.5,.7,.5,1.2,0,1.8s0,.8,.1,1.2,.4,.2,.5,.4,.8,.9,.7,2c-2.2,1.7-3.9,4.1-3.7,6.8h0Zm4.5-12c-.03,.31-.17,.59-.4,.8-.5,.1-.9,.2-1.2,0-.06-.24-.03-.49,.1-.7,.49-.14,1-.17,1.5-.1Zm7.4,2.5v-.7c.1,0,.4-.1,.4,.1l-.2,5.6c-.14,.12-.36,.12-.5,0l.3-5h0Zm-4,.4c.3-.4,.1-1.1,0-1.6s-.6-1-1.2-1.2-.9,1.1-1.7,1l-.2-.2c.31-.67,.68-1.3,1.1-1.9h3.6c.71,.77,1.35,1.61,1.9,2.5,.08,1.7,.02,3.41-.2,5.1h-1.7c-.59-.62-1.13-1.29-1.6-2,.09-.56,.09-1.14,0-1.7h0Zm-.5-.4c-.1,.2-.2,.4-.4,.4l-3.7-.3c-.29-.05-.5-.3-.5-.6,.2-.8,1.3-.4,2.2-.4,.78-.01,1.55,.09,2.3,.3,.2,.2,.3,.4,.1,.6Zm-2.9,2.4h2.3c.33,0,.6,.27,.6,.6h0c0,.2-.2,.3-.4,.3h-2.3c-.3,0-.3-.1-.4-.2s0-.6,.2-.7h0Zm-.9-1.3c0-.2,.3-.3,.5-.3h2.9c.24,.05,.4,.26,.4,.5-.1,.2-.2,.4-.5,.4h-2.8c-.29-.05-.5-.3-.5-.6h0Z" fill="#fff"/><g><path d="M322.9,94.4l-.2-.2c-.08-.15-.12-.33-.1-.5,0-.4-.1-.8-.1-1.2,.01-.14-.02-.28-.1-.4l-.3-1.3c-.16-.58-.44-1.12-.8-1.6-.42-.48-.89-.92-1.4-1.3-.19-.22-.43-.39-.7-.5l-1.2-.6-.9-.2h-.5l-1.3-.2h-.1c-.57-.03-1.15,.04-1.7,.2l-.6,.2c-.16,0-.31,.07-.4,.2-.15,.3-.4,.55-.7,.7l-.6,.4-.8,.9c-.1,.1-.1,.3-.3,.4-.22,.15-.39,.36-.5,.6l-.5,1.2c-.11,.36-.17,.73-.2,1.1-.08,.19-.11,.39-.1,.6-.11,.4-.08,.83,.1,1.2v.2c0,.42,.1,.83,.3,1.2,.11,.18,.18,.39,.2,.6,0,.31,.15,.61,.4,.8h.2l.4,.8c.43,.63,.97,1.17,1.6,1.6l.7,.4,.7,.2,.5,.2,.6,.2h1.9c.37,.07,.75,.04,1.1-.1h.6l.9-.4,.6-.4,1.1-1,.8-1,.7-1.2c.16-.31,.26-.65,.3-1,0-.2,.1-.2,.3-.2s.2-.2,.3-.4l-.2-.2h0Zm-.9,0c-.1,.2-.1,.4-.2,.6l-.2,.3c-.1,.1-.2,.2-.3,.1s-.1,.1-.2,.2h-.2c0,.1-.1,.1-.2,.2h.1c.06,0,.1,.04,.1,.1,0,.06-.04,.1-.1,.1h0c-.1,0-.1,.2-.1,.2,0,0,0,.4,.1,.6-.02,.1-.05,.21-.1,.3l-1,1c-.51,.4-1.09,.7-1.7,.9-.48,.2-.99,.3-1.5,.3l-1,.2h-.5l-1.1-.2-.8-.4-.6-.4-1-.6c-.21-.26-.44-.49-.7-.7l-.5-.6c-.1-.1,0-.2-.1-.3s-.1-.3-.1-.4c-.23-.28-.37-.63-.4-1,0-.3-.1-.5-.1-.8-.11-.19-.11-.41,0-.6v-.5c-.01-.27,.02-.54,.1-.8l.3-.9c.11-.28,.25-.54,.4-.8l.3-.7c.15-.36,.39-.67,.7-.9l.7-.5,.6-.3c.3,0,.5-.2,.8-.3,.36-.23,.77-.37,1.2-.4h1.4l.7,.2h.5l.4,.2,.8,.2,.7,.5c.52,.25,.96,.63,1.3,1.1,.39,.48,.7,1.02,.9,1.6,.18,.38,.31,.79,.4,1.2,.1,.3,.1,.6,.2,.9v1.1h0Zm-12.8,2.8c-.11,0-.2,.09-.2,.2h0l.2,.2c.11,0,.2-.09,.2-.2s-.09-.2-.2-.2Z" fill="#f6921e"/><path d="M323.1,93.6l-.2,.2c0,.11,.09,.2,.2,.2h0c.07-.07,.1-.13,.1-.2,0-.1,0-.2-.1-.2Zm-2.5,2.5h-.1c0,.06,.04,.1,.1,.1h0v-.1Zm2.3,215.3c-.1-.1-.2-.1-.2-.2-.08-.15-.12-.33-.1-.5,0-.4-.1-.8-.1-1.2,.01-.14-.02-.28-.1-.4l-.3-1.3c-.16-.58-.44-1.12-.8-1.6-.42-.48-.89-.92-1.4-1.3-.19-.22-.43-.39-.7-.5l-1.2-.6-.9-.2h-.5l-1.3-.2h-.1c-.57-.03-1.15,.04-1.7,.2l-.6,.2-.4,.2c-.15,.3-.4,.55-.7,.7l-.6,.4-.8,.9c-.1,.2-.1,.3-.3,.4-.22,.15-.39,.36-.5,.6l-.5,1.2c-.11,.36-.17,.73-.2,1.1-.08,.19-.11,.39-.1,.6-.11,.4-.08,.83,.1,1.2v.2c-.02,.42,.08,.84,.3,1.2,.11,.18,.18,.39,.2,.6,0,.31,.15,.61,.4,.8h.2l.4,.9c.46,.58,1,1.08,1.6,1.5l.7,.4c.2,.1,.5,.1,.7,.3h.5l.6,.2h1.9c.37,.07,.75,.04,1.1-.1h.6l.9-.4,.6-.4,1.1-1,.8-1,.7-1.2c.16-.31,.26-.65,.3-1,0-.1,.1-.2,.3-.2s.2-.2,.3-.4c-.04-.07-.12-.11-.2-.1h0Zm-.9,0c-.1,.2-.1,.4-.2,.6s-.2,.2-.2,.3-.2,.2-.3,.1-.1,.1-.2,.2h-.4c-.06,0-.1,.04-.1,.1h.3l-.2,.2c.07,0,.1,.03,.1,.1,0,.1,.1,.1,0,.2s-.1,.2-.1,.2c0,0,0,.4,.1,.6v.3l-1,1c-.51,.4-1.09,.7-1.7,.9-.48,.2-.99,.3-1.5,.3l-1,.2h-.6l-1.1-.2-.8-.4-.6-.4-1-.6-.7-.7-.5-.6c-.1-.1,0-.2-.1-.3s-.1-.3-.1-.4c-.23-.28-.37-.63-.4-1,0-.3-.1-.5-.1-.8-.11-.19-.11-.41,0-.6v-.7c-.01-.27,.02-.54,.1-.8l.3-.8c.07-.29,.21-.57,.4-.8l.3-.8c.15-.36,.39-.67,.7-.9l.7-.5,.6-.2,.8-.4,1.2-.4h1.4l.7,.2h.5l.4,.2c.29,0,.58,.11,.8,.3l.7,.4c.52,.25,.96,.63,1.3,1.1,.39,.48,.7,1.02,.9,1.6,.18,.38,.31,.79,.4,1.2,.1,.3,.1,.6,.2,.9v1.1h0Zm-12.8,2.8l-.2,.2c0,.11,.09,.2,.2,.2s.2-.09,.2-.2-.09-.2-.2-.2Zm13.9-3.5c-.1,0-.2,0-.2,.1,0,.11,.09,.2,.2,.2h0c.1,0,.1-.1,.1-.2s0-.2-.1-.1ZM25.9,278l-.3-.2c0-.2-.1-.3-.1-.5v-1.2c-.1-.15-.13-.33-.1-.5-.09-.41-.22-.82-.4-1.2-.16-.58-.44-1.12-.8-1.6-.38-.51-.82-.98-1.3-1.4-.27-.11-.51-.28-.7-.5l-1.2-.5-.9-.2h-.5l-1.3-.2h-.2c-.54-.02-1.07,.02-1.6,.1l-.7,.3-.3,.2-.8,.7c-.21,.07-.38,.22-.5,.4l-.8,.9c-.1,.1-.2,.3-.3,.3-.22,.19-.39,.43-.5,.7-.21,.38-.38,.78-.5,1.2-.15,.35-.25,.72-.3,1.1v.6c-.1,.39-.1,.81,0,1.2,0,.1,.1,.1,.1,.2,0,.42,.11,.83,.3,1.2,0,.2,.2,.4,.2,.6-.02,.32,.13,.62,.4,.8h.1c.11,.3,.28,.57,.5,.8,.37,.67,.93,1.23,1.6,1.6l.7,.4,.7,.2,.5,.2,.6,.2h.7c.2,0,.4-.1,.6,0h2.2l.9-.4c.2-.1,.5-.2,.6-.4l1.2-1.1,.7-.9c.27-.38,.5-.78,.7-1.2,.2-.29,.31-.64,.3-1,.07-.13,.17-.2,.3-.2,.2,0,.3-.2,.3-.4s0-.3-.1-.3h0Zm-1,0c.01,.21-.02,.41-.1,.6l-.3,.3c0,.1-.1,.1-.2,.1h-.2l-.4,.2h.1s.1,.1-.1,.2v.2c-.01,.21,.02,.41,.1,.6l-.2,.3-1,1c-.51,.4-1.09,.7-1.7,.9-.45,.16-.92,.26-1.4,.3l-1,.2h-.6l-1-.3c-.29-.04-.56-.14-.8-.3l-.7-.4-.9-.7-.7-.6-.5-.6c-.07-.08-.11-.19-.1-.3,0-.16-.07-.31-.2-.4-.2-.29-.31-.64-.3-1-.1-.3-.1-.6-.2-.8v-.7c0-.2,.1-.4,0-.6,.02-.28,.09-.55,.2-.8l.3-.9,.3-.8c.17-.21,.31-.45,.4-.7,.11-.38,.36-.7,.7-.9,.19-.22,.43-.39,.7-.5l.6-.3,.7-.3c.36-.22,.77-.36,1.2-.4h1.5l.6,.2h.9l.9,.3,.7,.5c.5,.28,.94,.65,1.3,1.1l.9,1.6c.18,.38,.31,.79,.4,1.2,0,.3,.1,.6,.1,.9,.11,.53,.11,1.07,0,1.6h0Zm-12.7,2.8c-.11,0-.2,.09-.2,.2h0c0,.1,.1,.1,.2,.1s.1,0,.1-.1,0-.2-.1-.2Zm13.8-3.6v.2c0,.07,.03,.1,.1,.1,.1,0,.2,0,.2-.1,.02-.11-.06-.21-.17-.23-.05,0-.09,0-.13,.03Zm-2.5,2.5c.06,0,.1-.04,.1-.1h0c0,.07-.03,.1-.1,.1ZM0,41H5.6v59.48H0V41Z" fill="#f6921e"/></g></svg>