<svg data-name="Layer 1" xmlns="http://www.w3.org/2000/svg" xmlns:xlink="http://www.w3.org/1999/xlink" width="335" height="335"><defs><radialGradient id="j" cx="310.84" cy="314.9" r="1.49" xlink:href="#a"/><radialGradient id="s" cx="315.51" cy="286.5" r="1.48" xlink:href="#a"/><radialGradient id="d" cx="49.59" cy="211.22" r="71.02" gradientTransform="rotate(34.1 77.537 253.404)" gradientUnits="userSpaceOnUse"><stop offset="0" stop-color="#006838"/><stop offset=".5" stop-color="#009345"/><stop offset="1" stop-color="#37b34a"/></radialGradient><radialGradient id="a" data-name="New Gradient Swatch 1" cx="48.86" cy="209.6" r="69.48" gradientTransform="rotate(34.1 77.537 253.404)" gradientUnits="userSpaceOnUse"><stop offset="0" stop-color="#37b34a"/><stop offset=".18" stop-color="#22a748"/><stop offset=".42" stop-color="#009345"/><stop offset="1" stop-color="#006838"/></radialGradient><radialGradient id="r" cx="310.84" cy="286.5" r="1.49" xlink:href="#a"/><radialGradient id="f" cx="2259.58" cy="-9.77" r="23.4" gradientTransform="matrix(-1.33 0 0 1.27 3317.38 31.76)" xlink:href="#a"/><radialGradient id="g" cx="2467.99" cy="210.4" r="23.4" gradientTransform="matrix(-1.33 0 0 1.27 3317.38 31.76)" xlink:href="#a"/><radialGradient id="h" cx="316.07" cy="317.91" r="2.92" xlink:href="#a"/><radialGradient id="i" cx="310.27" cy="317.91" r="2.92" xlink:href="#a"/><radialGradient id="c" data-name="New Gradient Swatch 2" cx="167.84" cy="166.95" r="257.17" gradientTransform="matrix(.8 0 0 .8 33 33.7)" gradientUnits="userSpaceOnUse"><stop offset="0" stop-color="#fff100"/><stop offset="1" stop-color="#faaf40"/></radialGradient><radialGradient id="k" cx="315.51" cy="314.9" r="1.48" xlink:href="#a"/><radialGradient id="l" cx="220.56" cy="317.91" r="2.92" xlink:href="#a"/><radialGradient id="m" cx="214.75" cy="317.91" r="2.92" xlink:href="#a"/><radialGradient id="n" cx="215.32" cy="314.9" r="1.49" xlink:href="#a"/><radialGradient id="o" cx="219.99" cy="314.9" r="1.48" xlink:href="#a"/><radialGradient id="p" cx="316.07" cy="289.51" r="2.92" xlink:href="#a"/><radialGradient id="q" cx="310.27" cy="289.51" r="2.92" xlink:href="#a"/><clipPath id="e"><path d="M123.9 179.1c18.2 28.5 10 65.2-18.2 81.9s-65.9 7-84.1-21.5-10-65.2 18.2-81.8L91 127.5z" fill="none"/></clipPath><clipPath id="b"><path fill="none" d="M0 0h335v335H0z"/></clipPath></defs><g clip-path="url(#b)"><path fill="url(#c)" d="M0 0h335v335H0z"/><path d="m133.2 174.4.4.4c.5.4.5.6.5 2.4s0 3.7.4 4.5.3 1.3-.4 2.5a2.8 2.8 0 0 0-.4 1.2 2.7 2.7 0 0 0 1.5 2.1c.6.4.7.6.7 1.2a2.1 2.1 0 0 1-.4 1.2 8.9 8.9 0 0 0-1.4 3.2 2.7 2.7 0 0 0 .5 1.3 2.8 2.8 0 0 1 .5.9l-.7 1a3 3 0 0 0-.7 1c0 .3-.3.8-1 1.9a3.2 3.2 0 0 0 .1 3.4l.5.6-.5 1.4c-.4.7-.8 1.6-1.1 2s-1.3 1.8-1.5 4.2-.2 2.3-1.7 5a2.4 2.4 0 0 0 .1 2.8c.6.8.6 1-.2 2.5a4.6 4.6 0 0 0-.6 2.5c0 1.3-.2 1.5-1.3 1.5l-.9.4c-.5.4-.6.5-.5 1.6s-.1 1.2-.5 1.6a1.5 1.5 0 0 0-.3 2c.2.3.3.6.2.7h-.4l-5.3-.2-11.1-.2-11.2.2h-6.8c-.7-.1-.7-.4 0-.6l1.3-.5 1.6-.6 2.1-.8 1.5-.5 1.3-.5 3.2-1.2 3.6-1.4 1-.4 1.4-.5 1.6-.7A62.4 62.4 0 0 0 121 216l1.6-1.3c4.1-3.3 4.7-4 5.3-5.2l.8-1.3a21.4 21.4 0 0 0 1.3-2.9 8.8 8.8 0 0 0 .3-2.2c.1-.9.2-2.4.3-3.3s.4-3 .6-4.6.4-3.7.5-4.6c.4-3.6.8-7.5 1.2-12.9zm73.2 0 .2 3c.2 1.7.4 4.1.5 5.4.3 3 .5 5.5.8 7.8s.3 3 .5 4.6.4 3.7.5 4.6.3 2.4.3 3.3a19.5 19.5 0 0 0 .3 2.2 19.9 19.9 0 0 0 1.4 2.9l.7 1.3c.6 1.2 1.3 1.9 5.4 5.2l1.6 1.3a59.8 59.8 0 0 0 12.7 7.5l1.5.7 1.5.5 1 .4 3.6 1.4 3.2 1.2 1.3.5 1.5.5 2.1.8 1.5.6 1.4.5c.7.2.7.5 0 .6H243l-11.2-.2-11.1.2-5.3.2h-.3c-.1-.1 0-.4.1-.7a1.4 1.4 0 0 0-.2-2c-.5-.4-.5-.6-.5-1.6s0-1.2-.5-1.6a2.1 2.1 0 0 0-1-.4c-1.1 0-1.2-.2-1.2-1.5a4 4 0 0 0-.7-2.5c-.7-1.5-.7-1.7-.2-2.5a2.3 2.3 0 0 0 .1-2.8c-1.5-2.7-1.4-2.6-1.7-5s-.3-2.7-1.4-4.2a12 12 0 0 1-1.1-2l-.6-1.4.6-.6a3 3 0 0 0 0-3.4 6.5 6.5 0 0 1-.9-1.9 3 3 0 0 0-.7-1l-.7-1a2.8 2.8 0 0 1 .5-.9 2.7 2.7 0 0 0 .5-1.3 7.7 7.7 0 0 0-1.5-3.2 2.1 2.1 0 0 1-.3-1.2c0-.6.1-.8.7-1.2a3 3 0 0 0 1.5-2.1 2.8 2.8 0 0 0-.4-1.2c-.8-1.2-.8-1.7-.4-2.5s.5-1.6.4-4.5 0-2 .4-2.4zm-40.2 93.5a15.4 15.4 0 0 1 4.3.5 16.5 16.5 0 0 1 2.6.8l2.1.9c1.1.5 1.2.6 1.2 1.1s-.1.6-.4.7a1.6 1.6 0 0 0-.8.5c-.2.1-2.1 1-4.3 1.8-3.9 1.6-4.9 2.1-5.1 2.4h-.1l-2-.8-4-1.8-1.8-.7-1.6-.8.8-.5c1.8-1.2 5.6-3.6 6-3.7a8.6 8.6 0 0 1 3.1-.4zm-6.4-250.2h-.9l-.6.3-1.3.5-1.2.5c-.1 0-.3 0-.3.2l-.6.2c-.4 0-.8 0-.8.1a3.6 3.6 0 0 1-1 .6 8.6 8.6 0 0 0-1.6 1 24.9 24.9 0 0 0-4 3.8l-1.6 2.1a32.3 32.3 0 0 0-3.5 5.6c-.9 1.7-1.1 2.3-1.1 3.1a4.3 4.3 0 0 1-.3 1.7c-.1.4-.6 1.9-1.1 3.3a23.8 23.8 0 0 1-1 3 9.3 9.3 0 0 0-.6 2.2c-.2 1-.6 2.7-.9 3.8a16.5 16.5 0 0 0-.5 2.3 2.2 2.2 0 0 1-.3 1 12.4 12.4 0 0 0-.6 2.7c-.3 2-.5 3.1-.9 5.2s-.8 4.3-1.1 6.2-.2 6.2-.1 11c.1 2 .1 2-1.8 5.9-.7 1.4-1.2 2.6-1.2 2.6l-1 2.2c-.5 1.2-1.2 2.7-1.5 3.5s-.8 1.7-1 2a50.8 50.8 0 0 0-3 8.1c-.7 3.2-.8 3.4-.8 4a9.8 9.8 0 0 1-1.7 3.6l-1.2 1.4a7 7 0 0 1-2.8 2.4 23.8 23.8 0 0 0-2.7 1.8 15.4 15.4 0 0 0-3.8 4.2l-.3 1.1h.1v1.3c-.1.6-.1 1.2-.2 1.7v.5h.1a9.9 9.9 0 0 1-.1 1.5c-.2 1.3-.4 3.4-.8 7-.1 1-.2 2.5-.3 3.2a39.3 39.3 0 0 0 .7 7.3l.4 2.2a16.9 16.9 0 0 0 .5 2.4c.3 1.3.6 2.6.9 4.6a4.9 4.9 0 0 0 .3 1.3 48 48 0 0 1-.1 8.4c-.1.8-.2 1.9-.2 2.4s-.1 1.1-.2 1.1a3.5 3.5 0 0 0-.2 1.6 12.5 12.5 0 0 1-.2 2.4 97.4 97.4 0 0 0-.8 11.7c-.2 7.3-.5 9.9-1.2 11.7l-.4 1-.3.8c-.1.5-.8 1.3-1.1 1.3h-.2l-1.8 1.3a38.3 38.3 0 0 0-7.6 6.4 53.4 53.4 0 0 1-6.2 5.5l-3.6 2.7-1.2.8-.5.3a19.5 19.5 0 0 1-3.6 2.5l-.4.4a2.4 2.4 0 0 1-.9.5l-.9.6-1.4.8-3.4 2a19.9 19.9 0 0 1-8.6 2.9H67c-2.3-.4-2.7-.5-3.2-.8-2.6-1.9-4.2-2.5-8.3-2.9a12.2 12.2 0 0 1-3.5-.5 5 5 0 0 0-1.6-.5l-2.7-.8-1.5-.5-1.3-.6-1.4-.2h-.1a2.1 2.1 0 0 0-1.6.5c-1 .7-1.4 1.5-1 2s.3.8-.3 1.2a12.9 12.9 0 0 0-1.8 2.4l-1.7 2.8a2.1 2.1 0 0 0-.6 1.5 5.6 5.6 0 0 1-.5 1.8 11.6 11.6 0 0 0-.6 1.5 28.5 28.5 0 0 1-2 4.7c-.1.2-.5.3-.9.3l-1.1.2H31l-.4-.3a4.6 4.6 0 0 0-1-1 2.8 2.8 0 0 1-.6-1 11 11 0 0 0-1.5-3.3 3.2 3.2 0 0 0-2.8-1.5h-.3c-.9.1-1 .1-1.4.9a12.7 12.7 0 0 0-.1 5.5 46.5 46.5 0 0 0 2.6 4l1 1.5a2.8 2.8 0 0 0 1.5 1.7 4.3 4.3 0 0 0 2 .3l3.2-.3h2.3c1.9.6 1.8.6 2.5 2.1s1.2 1.3 4.2 1.3l3.9-.2 1.1-.2.9.9c.9.9.9.9 2.2.9s1.5-.1 4-1.3l4.5-2.3a8.3 8.3 0 0 0 2-1.1.7.7 0 0 1 .6-.3h.3l-.5 1a3.6 3.6 0 0 0-.5 1.3c0 .2-.4 1.4-.7 2.5-1.1 3-1.2 5.4-.5 9.4a34.2 34.2 0 0 0 .9 3.9 15.3 15.3 0 0 0 2.4 4.6 23.9 23.9 0 0 0 4.8 3.7l.8.5.9.5a7 7 0 0 1 1.9 1.2c2.8 2.1 8.5 5.4 9.2 5.4l5.2 2.6c.4.3.8.7.8.9s.6.7 1.9 1.4a22.7 22.7 0 0 1 3.4 1.9 8.6 8.6 0 0 0 1.9 1l.5.2a35.1 35.1 0 0 0 4.1 2.3 29.8 29.8 0 0 0 4.1 1.8.4.4 0 0 1 .4.2c0 .1.3.2.5.2s.5.3-.3 1.1a11.6 11.6 0 0 0-1.8 2.2 3.8 3.8 0 0 1-2.7 1.7 1.9 1.9 0 0 0-1.2.5.3.3 0 0 1-.3.3 10.1 10.1 0 0 0-2.7 3.1c0 .1-.2.3-.3.5a.7.7 0 0 0-.3.5 5.4 5.4 0 0 1-.4 1.2 8.3 8.3 0 0 0-.9 4.4v2.1l-.8 1.1a3.1 3.1 0 0 0-.9 2.3c-.1 1-.1 1.2.3 1.5a.9.9 0 0 1 .4.5c0 .5.4.8 1 .8s.4.2.5.7a4.2 4.2 0 0 0 .6 1.4c.3.5.4.7.8.7h1.4a1.3 1.3 0 0 1 1.1.5 1.4 1.4 0 0 0 1.4.6c.5 0 .9.1.9.3s.1.1.5.1h.7c1.5-.2 2-.3 2-.7s.5-.6 1.4-.7a1.9 1.9 0 0 0 .9-.4c0-.2.7-.6 1.5-1a6.4 6.4 0 0 0 1.4-.8l.9-.4 1.7-.6 1.1-.4 1.1-.4 1.1-.4.7-.2 2.2-.5 1.8-.5c0-.1.3-.2.6-.2s.7-.1.7-.2l1.3-.2a50.8 50.8 0 0 0 8.1-1.4 28.7 28.7 0 0 1 4-.6c3.4-.3 7.1-.7 9.5-1.1a22.6 22.6 0 0 1 4.2-.3 112.7 112.7 0 0 1 14.2 1.1l4.5.5 4.2.5 3.9.5 4.1.6 2.9.4a62.2 62.2 0 0 1 8.6 1.6l7.2 2.1 1.4.4a15.6 15.6 0 0 0 4.2 1.1c1.2.3 2.9.6 3.7.9l7.5 1.3 2.3.3a62 62 0 0 0 9.6 1.1c3 .3 6.1.5 6.9.7h12.5l1.4.7a6.4 6.4 0 0 1 1.6 1.2c.2.6 2.6 2 3.7 2.2a2.8 2.8 0 0 1 1.1.4 4.3 4.3 0 0 0 2.2.6h1.3l2.6-.6c.9-.3 1.1-.4 1.5-1.2a2.1 2.1 0 0 0 .4-1.8 10.1 10.1 0 0 0-2.2-3.8 2.8 2.8 0 0 1-.6-1.8 5.2 5.2 0 0 0-.3-1.7 2.1 2.1 0 0 1-.2-.6 20.7 20.7 0 0 0-1.2-3 3.9 3.9 0 0 1-.4-.9 25.6 25.6 0 0 0-2.7-3.2l-1.6-1.1a6 6 0 0 1-1.4-1.2 15.2 15.2 0 0 0-4.4-5c-2-1.3-2.2-1.4-4.1-1.7h-1.7a68.3 68.3 0 0 0-7.8.6h-2.8a36 36 0 0 1-5.6-.3c-.5-.2-.8-.3-.8-.6s-.1-.5-.3-.5a.9.9 0 0 1-.3-.5 2 2 0 0 0-.6-1.1c-.5-.6-.6-.7-.3-1.2a2 2 0 0 1 .6-.7.7.7 0 0 0 .3-.5c0-.1.2-.3.4-.5s.6-.8 1-2.5l.3-.9h1.1a8.5 8.5 0 0 0 2.2-.4c1-.4 3.9-1.2 7.2-2s6.4-1.8 8.4-2.6l2.8-.9a21.4 21.4 0 0 0 4.4-2 20.5 20.5 0 0 1 2.6-1.5 14.7 14.7 0 0 0 2.2-1.2 11.9 11.9 0 0 1 2.4-1.3 21.4 21.4 0 0 0 3.7-2.3 5.2 5.2 0 0 1 1.5-.9l.2-.2a56.4 56.4 0 0 1 7-4.7l2.1-1.6h.1a8.1 8.1 0 0 1 2.3-2.1l.7-.4c0-.1.4-.3.9-.5l1.1-.7a2 2 0 0 1 .9-.6 8.8 8.8 0 0 0 2.5-2.7c0-.2.1-.3.2-.3a13.3 13.3 0 0 0 1.4-3.1 15.6 15.6 0 0 0 .8-3.8c.1-.7.3-1.9.4-2.8a13.4 13.4 0 0 0-.6-7.5 27.2 27.2 0 0 0-1.1-2.8 20.9 20.9 0 0 0-4.3-6.1c-.9-.9-1.2-1.4-.9-1.4h.1l.8.3.9.3 1.7.6a6.3 6.3 0 0 0 3.4.8l3.3.5 1.7.3a4.2 4.2 0 0 0 1.5-.4 3.3 3.3 0 0 1 1.3-.4l1.5.3h.7c.8 0 1.6-.5 2.8-1.7s1.5-1.5 2-1.5l2.3-.6a14.4 14.4 0 0 1 2.6-.8l2.9-.7 2.7-.7c2.8-.7 3.1-1 3.6-3.9a15.8 15.8 0 0 1 .4-2.1c.9-3.5 1-7.1.2-8.6s-2.2-2.7-3.3-2.7h-.5c-.8.4-1.3 2.2-1.5 5.7a14.3 14.3 0 0 1-1 4.6c-.2.4-.4.7-.5.7s-1-1.2-2.5-4.5a9.4 9.4 0 0 1-.7-1.9 1.1 1.1 0 0 0-.2-.6 9.4 9.4 0 0 1-.8-2 13.4 13.4 0 0 0-2.2-4.4l-.4-.7a12 12 0 0 0-2.1-3.7 2.4 2.4 0 0 0-1.6-1h-.3a4.3 4.3 0 0 0-2.9 1.3 5.5 5.5 0 0 1-1.4.9l-1.7 1.3a12.8 12.8 0 0 1-2.1 1.4l-1.4.8c-.4.5-1.3.8-3.1 1.2a20.8 20.8 0 0 0-7 3.5 20.9 20.9 0 0 1-4.7 2.4l-1.1.2H267a27.2 27.2 0 0 1-6.6-1.7l-1-.4-3.4-1.4a67.5 67.5 0 0 1-8.2-4.3l-1.4-.7h-.2l-1.8-1.3c-2.5-1.7-4.1-2.9-6.1-4.4a9.6 9.6 0 0 0-1.9-1.4l-.2-.2a8.9 8.9 0 0 0-1.7-1.3 19.6 19.6 0 0 1-4.6-4.3 10.2 10.2 0 0 0-1.5-1.9c-1.1-1.2-1.3-1.3-1.5-2.5-.5-3-.7-5.6-1.2-11.6-.1-1.7-.3-3.6-.4-4.1a18.1 18.1 0 0 1-.2-2.5 6.7 6.7 0 0 0-.1-1.8 9.7 9.7 0 0 1-.3-3.4c-.1-1.8-.2-4.2-.3-5.4a38.4 38.4 0 0 1 .1-4.7 51.4 51.4 0 0 1 1-6.1 18.8 18.8 0 0 0 .6-3.1 23.4 23.4 0 0 0 .4-2.6 55.5 55.5 0 0 0 .5-10.8c-1-13-2-16-6.3-19.2-.7-.5-4.4-2.6-6.7-3.8s-2.1-1.2-2.1-1.6-.1-.4-.3-.4a9.5 9.5 0 0 1-2.4-1.9l-.6-.7c-.3-.3-.5-.5-.5-.7s-.2-.3-.4-.4a7.2 7.2 0 0 1-1.4-2.7l-.6-2a28.6 28.6 0 0 1-1-4.6c-.1-.6-.3-1.5-.4-1.9a45.1 45.1 0 0 1-1-5.7 7.8 7.8 0 0 0-.2-1.6c-.1-.4-.3-1.2-.4-1.8l-.4-2.3c-.1-.6-.3-2.2-.4-3.6a21 21 0 0 0-.7-4.5c-.1-.1-.1-.3.1-.3-.1-.4-.1-1-.2-1.6a10.4 10.4 0 0 0-.3-2.1 48.9 48.9 0 0 1-1.1-6.2c-.1-1-.3-2.2-.3-2.6a15.7 15.7 0 0 1-.2-2.5v-1.2c0-.2-.1-.4-.1-.6s-.1-.3-.1-.5-.1-1.1-.2-1.6h.1a4.7 4.7 0 0 1-.6-1.7c-.2-.9-.5-2.2-.6-2.9a26.1 26.1 0 0 1-.6-3.2 38.1 38.1 0 0 0-1-4.6 4.9 4.9 0 0 1-.6-1.6 16.5 16.5 0 0 0-1.7-4.1 8.8 8.8 0 0 1-.5-1 1.2 1.2 0 0 0-.4-.8 2 2 0 0 1-.4-.8 1.4 1.4 0 0 0-.4-.9 1.7 1.7 0 0 1-.4-.7 2.1 2.1 0 0 0-.6-.8l-.6-.8a8.7 8.7 0 0 0-1.3-1.7l-1.5-1.8a16.3 16.3 0 0 0-2.1-1.9 4.9 4.9 0 0 1-1-.8l-1.2-.9a5.8 5.8 0 0 1-1.2-.8 2.3 2.3 0 0 0-1-.5c-.4-.2-.7-.4-.7-.5h-.5l-.4-.2-.9-.5-.7-.2-1.7-.5-1.8-.2-2.5-.2-2-.3-3-.3a2.4 2.4 0 0 1-1.2-.4h-1.4l-1.7-.2-1.6-.5h-1.3z" fill="#006838" data-name="layer1" opacity=".1"/><path fill="#006838" d="M0 181h335v33.15H0z"/><path d="M128.1 178.5c19.8 31.1 10.9 71-19.9 89.2-30.8 18.1-71.8 7.7-91.6-23.4-19.9-31.1-11-71 19.8-89.2l55.8-32.8z" fill="url(#d)"/><path d="M127.3 177.3c19.4 30.4 10.7 69.4-19.4 87.2-30.2 17.8-70.3 7.6-89.7-22.8-19.4-30.4-10.7-69.5 19.4-87.3l54.6-32.1z" fill="url(#a)"/><g clip-path="url(#e)"><path d="M123.9 179.1c18.2 28.5 10 65.2-18.2 81.9s-65.9 7-84.1-21.5-10-65.2 18.2-81.8L91 127.5z" fill="#fff"/></g></g><g fill="#be1e2d"><path d="M21.1 128.6c-.5-.2-1.2.3-1.4.8l-.2.2a1.5 1.5 0 0 0 0 2.1 1.8 1.8 0 0 0 2 .4 1.8 1.8 0 0 0 .9-2.1 1.8 1.8 0 0 0-1.3-1.4zm-1.1 2.2.2.2zM21.1 118c-.5-.3-1.2.2-1.4.7h-.2a1.5 1.5 0 0 0 0 2.1 1.7 1.7 0 0 0 2 .4 1.6 1.6 0 0 0 .9-2 1.8 1.8 0 0 0-1.3-1.2zm-1.1 2.2zM21.1 107.3c-.5-.2-1.2.3-1.4.8l-.2.2a1.5 1.5 0 0 0 0 2.1 1.8 1.8 0 0 0 2 .4 1.8 1.8 0 0 0 .9-2.1 1.8 1.8 0 0 0-1.3-1.4zm-1.1 2.2.2.2zM21.1 96.7c-.5-.3-1.2.2-1.4.7h-.2a1.5 1.5 0 0 0 0 2.1 1.7 1.7 0 0 0 2 .4 1.6 1.6 0 0 0 .9-2 1.8 1.8 0 0 0-1.3-1.2zM20 98.9zM21.1 86c-.5-.2-1.2.3-1.4.8l-.2.2a1.5 1.5 0 0 0 0 2.1 1.8 1.8 0 0 0 2 .4 1.7 1.7 0 0 0 .9-2.1 1.8 1.8 0 0 0-1.3-1.4zM20 88.2l.2.2zM21.1 75.4c-.5-.3-1.2.2-1.4.7h-.2a1.5 1.5 0 0 0 0 2.1 1.7 1.7 0 0 0 2 .4 1.6 1.6 0 0 0 .9-2 1.8 1.8 0 0 0-1.3-1.2zM20 77.6c.1 0 .1.1.2.2z"/><g><path d="M14 160.6c-.6-.3-1.2.2-1.5.7h-.2a1.7 1.7 0 0 0 2 2.5 1.7 1.7 0 0 0 1-2 2 2 0 0 0-1.3-1.2zm-1.1 2.2zM14 149.9a1.3 1.3 0 0 0-1.5.8c0 .1-.1.1-.2.2a1.5 1.5 0 0 0 .1 2.1 1.7 1.7 0 0 0 1.9.4 1.8 1.8 0 0 0 1-2.1 2.3 2.3 0 0 0-1.3-1.4zm-1.1 2.2.2.2zM14 139.3c-.6-.3-1.2.2-1.5.7h-.2a1.7 1.7 0 0 0 2 2.5 1.7 1.7 0 0 0 1-2 2 2 0 0 0-1.3-1.2zm-1.1 2.2zM14 128.6c-.6-.2-1.2.3-1.5.8l-.2.2a1.5 1.5 0 0 0 .1 2.1 1.7 1.7 0 0 0 1.9.4 1.8 1.8 0 0 0 1-2.1 2.3 2.3 0 0 0-1.3-1.4zm-1.1 2.2.2.2zM14 118c-.6-.3-1.2.2-1.5.7h-.2a1.7 1.7 0 0 0 2 2.5 1.7 1.7 0 0 0 1-2A2.3 2.3 0 0 0 14 118zm-1.1 2.2zM14 107.3c-.6-.2-1.2.3-1.5.8 0 .1-.1.1-.2.2a1.5 1.5 0 0 0 .1 2.1 1.7 1.7 0 0 0 1.9.4 1.8 1.8 0 0 0 1-2.1 2.3 2.3 0 0 0-1.3-1.4zm-1.1 2.2a.2.2 0 0 0 .2.2.2.2 0 0 1-.2-.2z"/></g></g><g fill="#be1e2d"><path d="M329.8 291.9a1.1 1.1 0 0 0-1.4.7h-.3a1.7 1.7 0 0 0 2 2.5 1.7 1.7 0 0 0 1-2 2 2 0 0 0-1.3-1.2zm-1.1 2.2zM329.8 281.2a1.2 1.2 0 0 0-1.4.8h-.1c0 .1-.1.1-.2.2a1.5 1.5 0 0 0 .1 2.1 1.7 1.7 0 0 0 1.9.4 1.8 1.8 0 0 0 1-2.1 2.3 2.3 0 0 0-1.3-1.4zm-1.1 2.2a.2.2 0 0 0 .2.2c-.1-.1-.2-.1-.2-.2zM329.8 270.6a1.1 1.1 0 0 0-1.4.7h-.3a1.7 1.7 0 0 0 2 2.5 1.7 1.7 0 0 0 1-2 2.3 2.3 0 0 0-1.3-1.2zm-1.1 2.2zM329.8 259.9a1.2 1.2 0 0 0-1.4.8h-.1c0 .1-.1.1-.2.2a1.5 1.5 0 0 0 .1 2.1 1.7 1.7 0 0 0 1.9.4 1.8 1.8 0 0 0 1-2.1 2.3 2.3 0 0 0-1.3-1.4zm-1.1 2.2.2.2zM329.8 249.3a1.1 1.1 0 0 0-1.4.7h-.3a1.5 1.5 0 0 0 .1 2.1 1.6 1.6 0 0 0 1.9.4 1.7 1.7 0 0 0 1-2 2.3 2.3 0 0 0-1.3-1.2zm-1.1 2.2.2.2zM329.8 238.6a1.2 1.2 0 0 0-1.4.8h-.1l-.2.2a1.5 1.5 0 0 0 .1 2.1 1.7 1.7 0 0 0 1.9.4 1.8 1.8 0 0 0 1-2.1 2.3 2.3 0 0 0-1.3-1.4zm-1.1 2.2.2.2z"/></g><path d="M290.5 24.7c1.1-7.9 8.7-13.5 17-12.4s14.1 8.4 13 16.3S311.7 42 303.4 41s-14.1-8.4-12.9-16.3z" fill="url(#f)"/><path d="M13.2 304.3c1.1-7.9 8.8-13.5 17.1-12.4s14.1 8.4 12.9 16.3-8.7 13.5-17 12.4-14.1-8.4-13-16.3z" fill="url(#g)"/><g fill="#006838"><path d="M32.4 20.2a1.1 1.1 0 0 1-.3.8l-3.7 3.7-4-2.3v-2.2a1.2 1.2 0 0 1 1.2-1.2 1.2 1.2 0 0 1 1.2 1.2V23l3.6-3.6a1.2 1.2 0 0 1 1.7 0 1.1 1.1 0 0 1 .3.8M31.2 30.9h-.4c-.1-.1-.3-.1-.4-.3L26.8 27v2.8a1.2 1.2 0 0 1-1.2 1.2 1.2 1.2 0 0 1-1.2-1.2v-2.3l4-2.3 3.7 3.7a1.2 1.2 0 0 1-.9 2M28.2 24.9c0-.1-.1-.1-.1-.2l-1-.6-2.7-1.5-2.2-1.3c-.2-.1-.3 0-.4.1v6.9a.2.2 0 0 0 .2.2h.2l2.2-1.3 3.7-2.1h.1zm-.9.1c0 .1 0 .1-.1.1l-2.8 1.7-1.8 1h-.3v-5.5a.2.2 0 0 1 .2-.2h.1l1.8 1 2.8 1.7c.1 0 .1.1.1.2z"/><path d="M26.5 25a.1.1 0 0 1-.1.1l-2.1 1.2-1.3.8c-.1 0-.2 0-.2-.1v-4c0-.1 0-.2.1-.2h.1l1.3.8 2.1 1.2h.1"/><g><path d="M51.7 24.8h-.1l-3.3-1.6-2-1.1-.3.2v5.4c0 .2.2.3.4.2l2-1 3.2-1.9a.1.1 0 0 0 .1-.1zm-.8.1c0 .1 0 .1-.1.1l-2.5 1.3-1.5.9c-.1 0-.3 0-.3-.2v-4.2c0-.1.1-.1.2-.1l1.6.8 2.5 1.2h.1z"/><path d="M50.2 24.9a.1.1 0 0 1-.1.1l-1.8 1-1.2.6h-.2v-3.3a.1.1 0 0 1 .1-.1h.1l1.1.6 1.9 1h.1M34.8 22.1h2.8c1.4 0 2.4.8 2.4 1.9a2.1 2.1 0 0 1-2.3 1.9h-1.5v1.8h-1.4zm2.7 2.7c.7 0 1.1-.3 1.1-.8s-.5-.8-1.1-.8h-1.4v1.6zM45.3 26.7v1.1h-4.5v-5.6h1.3v4.5zM53.2 25.7l-2.5-3.6h1.5l1.6 2.4 1.6-2.5h1.5l-2.4 3.6v2.1h-1.3zM57.8 22.4h.7v3.1l3.1-3.2h1L60 24.9l2.9 3.1H62l-2.4-2.6-1 .9V28h-.7zM63.3 25.1a3 3 0 0 1 3.1-2.9 3.1 3.1 0 0 1 3.3 2.9 3.2 3.2 0 0 1-6.4 0zm5.7 0a2.5 2.5 0 0 0-2.6-2.3 2.4 2.4 0 0 0-2.4 2.3 2.5 2.5 0 0 0 5 0zM70.6 27.2l.5-.6a2.6 2.6 0 0 0 2 .8c1 0 1.5-.5 1.5-1s-.6-.8-1.7-1-2.1-.6-2.1-1.6.9-1.6 2.1-1.6a3 3 0 0 1 2.2.8l-.4.5a2.8 2.8 0 0 0-1.9-.7c-.7 0-1.3.4-1.3 1s.6.7 1.7 1 2.1.6 2.1 1.6-.7 1.6-2.2 1.6a4.1 4.1 0 0 1-2.5-.8zM76.6 22.4h.7l2.4 3.9 2.3-4h.7v5.6H82v-4.2l-2.3 4-2.4-3.9V28h-.7zM84.1 25.1a3.2 3.2 0 0 1 6.4 0 3.2 3.2 0 0 1-6.4 0zm5.7 0a2.5 2.5 0 0 0-5 0 2.5 2.5 0 0 0 5 0zM91.4 27.2l.5-.6a2.8 2.8 0 0 0 2 .8c1 0 1.5-.5 1.5-1s-.6-.8-1.7-1-2.1-.6-2.1-1.6.9-1.6 2.1-1.6a3 3 0 0 1 2.2.8l-.4.5a2.6 2.6 0 0 0-1.8-.7c-.8 0-1.4.4-1.4 1s.7.7 1.7 1 2.1.6 2.1 1.6-.7 1.6-2.2 1.6a4.1 4.1 0 0 1-2.5-.8z"/></g></g><g fill="#be1e2d"><path d="M178.4 140h142.2v-15H190.4l-12 15zM179.7 125h7.3l-12 15h-7.3l12-15zM173.5 125h3.9l-12 15h-3.9l12-15zM167.1 125h3.9l-12 15h-3.9l12-15z"/><g><path d="M178.4 166h142.2v-14.9H190.4l-12 14.9zM179.7 151h7.3l-12 15h-7.3l12-15zM173.5 151h3.9l-12 15h-3.9l12-15zM167.1 151h3.9l-12 15h-3.9l12-15z"/></g></g><path d="M318.8 191.6a6.3 6.3 0 0 0-9 0 6.6 6.6 0 0 0 0 9.2l4.5 4.6 4.5-4.6a6.6 6.6 0 0 0 0-9.2zm-4.5 8.7a4 4 0 0 1 0-7.9 4 4 0 0 1 0 7.9z" fill="#fff"/><path d="M313.1 320.8h.1a5.8 5.8 0 0 0 5.8-5.8 5.9 5.9 0 0 0-5.9 5.8z" fill="url(#h)"/><path d="M307.3 315a5.9 5.9 0 0 0 5.9 5.8 5.8 5.8 0 0 0-5.8-5.8z" fill="url(#i)"/><path d="M313.2 320.3a5.3 5.3 0 0 1 1.7-3.6 5.8 5.8 0 0 0-1.7-4.1 5.4 5.4 0 0 0-1.7 4.1 6.4 6.4 0 0 1 1.7 3.6z" fill="#be1e2d"/><path d="M312 314.3a5.7 5.7 0 0 0-1.8-1.2 6.9 6.9 0 0 0-.5 2.4 5.7 5.7 0 0 1 1.8 1.2 5.2 5.2 0 0 1 .5-2.4z" fill="url(#j)"/><path d="M314.9 316.7a6.6 6.6 0 0 1 1.7-1.2 5.2 5.2 0 0 0-.5-2.4 5.2 5.2 0 0 0-1.7 1.2 6.9 6.9 0 0 1 .5 2.4z" fill="url(#k)"/><g fill="#231f20"><path d="M313.2 321h-.1v-.2a4.6 4.6 0 0 1 .5-2.3 6.2 6.2 0 0 1 1.2-1.9 5.9 5.9 0 0 1 1.9-1.3 6.9 6.9 0 0 1 2.4-.5.2.2 0 0 1 .2.2 5.9 5.9 0 0 1-.5 2.3 6.2 6.2 0 0 1-3.2 3.2 5.9 5.9 0 0 1-2.4.5zm5.6-5.8a4.5 4.5 0 0 0-2 .4 5.7 5.7 0 0 0-1.8 1.2 4.4 4.4 0 0 0-1.2 1.8 5.4 5.4 0 0 0-.5 2.1 8 8 0 0 0 2.1-.5 5.5 5.5 0 0 0 3-3 4.5 4.5 0 0 0 .4-2z"/><path d="M313.2 321a6.9 6.9 0 0 1-2.4-.5 5.9 5.9 0 0 1-1.9-1.3 6.2 6.2 0 0 1-1.2-1.9 4.6 4.6 0 0 1-.5-2.3.3.3 0 0 1 .1-.2h.1a5.9 5.9 0 0 1 2.3.5 6.2 6.2 0 0 1 3.2 3.2 5.9 5.9 0 0 1 .5 2.3.2.2 0 0 1-.2.2zm-5.7-5.8a4.6 4.6 0 0 0 .5 2 3.6 3.6 0 0 0 1.2 1.8 5.7 5.7 0 0 0 1.8 1.2 6.5 6.5 0 0 0 2 .5 5.2 5.2 0 0 0-.4-2.1 5.7 5.7 0 0 0-1.2-1.8 7.1 7.1 0 0 0-1.8-1.2 5.2 5.2 0 0 0-2.1-.4z"/><path d="m313.2 320.5-.2-.2a5.3 5.3 0 0 0-1.7-3.5 5.9 5.9 0 0 1 .4-2.3 6.4 6.4 0 0 1 1.3-1.9h.1c0-.1.1-.1.2 0a5 5 0 0 1 1.3 1.9 5.9 5.9 0 0 1 .4 2.3 5.8 5.8 0 0 0-1.7 3.5c0 .1 0 .2-.1.2zm-1.6-3.9a6.3 6.3 0 0 1 1.6 2.7 6.1 6.1 0 0 1 1.5-2.7 5.2 5.2 0 0 0-.4-2.1 6.2 6.2 0 0 0-1.1-1.7 5.7 5.7 0 0 0-1.2 1.8 6.5 6.5 0 0 0-.4 2z"/><path d="M311.5 316.8h-.2a5.2 5.2 0 0 0-1.7-1.2 3.9 3.9 0 0 1 .5-2.4c0-.1.1-.2.2-.1a5.7 5.7 0 0 1 1.8 1.2v.2a5.9 5.9 0 0 0-.5 2.3.1.1 0 0 1-.1.1zm-1.6-1.4a4.2 4.2 0 0 1 1.4.9 5.9 5.9 0 0 1 .5-1.9 7.2 7.2 0 0 0-1.5-1.1 5.2 5.2 0 0 0-.4 2.1zM314.9 316.8h-.2a4.6 4.6 0 0 0-.5-2.3c0-.1 0-.2.1-.2a6.6 6.6 0 0 1 1.7-1.3h.1c0-.1.1 0 .2.1a6 6 0 0 1 .5 2.4c0 .1 0 .1-.1.1a6.6 6.6 0 0 0-1.7 1.2zm-.3-2.5a7.1 7.1 0 0 1 .4 2 4.6 4.6 0 0 1 1.5-.9 5.4 5.4 0 0 0-.5-2.1 7.1 7.1 0 0 0-1.4 1z"/></g><g><path d="M217.6 320.8h.1a5.8 5.8 0 0 0 5.8-5.8 5.8 5.8 0 0 0-5.9 5.8z" fill="url(#l)"/><path d="M211.8 315a5.8 5.8 0 0 0 5.9 5.8 5.8 5.8 0 0 0-5.8-5.8z" fill="url(#m)"/><path d="M217.7 320.3a5.3 5.3 0 0 1 1.7-3.6 5.8 5.8 0 0 0-1.7-4.1h-.1a5.8 5.8 0 0 0-1.7 4.1 5.9 5.9 0 0 1 1.8 3.6z" fill="#be1e2d"/><path d="M216.5 314.3a5.7 5.7 0 0 0-1.8-1.2 6.9 6.9 0 0 0-.5 2.4 6.6 6.6 0 0 1 1.7 1.2 5.3 5.3 0 0 1 .6-2.4z" fill="url(#n)"/><path d="M219.4 316.7a6.6 6.6 0 0 1 1.7-1.2 5.2 5.2 0 0 0-.5-2.4 5.2 5.2 0 0 0-1.7 1.2 6.9 6.9 0 0 1 .5 2.4z" fill="url(#o)"/><g fill="#231f20"><path d="M217.7 321h-.1c-.1 0-.1-.1-.1-.2a5.9 5.9 0 0 1 .4-2.3 6.4 6.4 0 0 1 1.3-1.9 5.9 5.9 0 0 1 1.9-1.3 6.9 6.9 0 0 1 2.4-.5c.1 0 .1.1.1.2a5.9 5.9 0 0 1-.4 2.3 6.4 6.4 0 0 1-1.3 1.9 5.9 5.9 0 0 1-1.9 1.3 6.4 6.4 0 0 1-2.3.5zm5.6-5.8a4.5 4.5 0 0 0-2 .4 5.7 5.7 0 0 0-1.8 1.2 4.6 4.6 0 0 0-1.3 1.8 7.8 7.8 0 0 0-.4 2.1 8 8 0 0 0 2.1-.5 9.4 9.4 0 0 0 1.8-1.2 5.7 5.7 0 0 0 1.2-1.8 6.5 6.5 0 0 0 .4-2z"/><path d="M217.7 321a6.4 6.4 0 0 1-2.4-.5 5.9 5.9 0 0 1-1.9-1.3 6.4 6.4 0 0 1-1.3-1.9 5.9 5.9 0 0 1-.4-2.3c0-.1 0-.2.1-.2h.1a6.4 6.4 0 0 1 2.3.5 5.9 5.9 0 0 1 1.9 1.3 6.4 6.4 0 0 1 1.3 1.9 5.9 5.9 0 0 1 .4 2.3c0 .1 0 .2-.1.2zm-5.7-5.8a6.5 6.5 0 0 0 .4 2 5.7 5.7 0 0 0 1.2 1.8 9.4 9.4 0 0 0 1.8 1.2 8 8 0 0 0 2.1.5 7.8 7.8 0 0 0-.4-2.1 5.7 5.7 0 0 0-1.2-1.8 9.4 9.4 0 0 0-1.8-1.2 5.2 5.2 0 0 0-2.1-.4z"/><path d="M217.7 320.5a.2.2 0 0 1-.2-.2 5.3 5.3 0 0 0-1.7-3.5 5.9 5.9 0 0 1 .4-2.3 6.4 6.4 0 0 1 1.3-1.9.2.2 0 0 1 .3 0 6.4 6.4 0 0 1 1.3 1.9 5.9 5.9 0 0 1 .4 2.3 5.3 5.3 0 0 0-1.7 3.5zm-1.6-3.9a6.3 6.3 0 0 1 1.6 2.7 6.1 6.1 0 0 1 1.5-2.7 5.2 5.2 0 0 0-.4-2.1 9.9 9.9 0 0 0-1.1-1.7 5.7 5.7 0 0 0-1.2 1.8 6.5 6.5 0 0 0-.4 2z"/><path d="M215.9 316.8h-.1a5.2 5.2 0 0 0-1.7-1.2.1.1 0 0 1-.1-.1 6 6 0 0 1 .5-2.4c.1-.1.2-.2.3-.1a9.4 9.4 0 0 1 1.8 1.2v.2a5.9 5.9 0 0 0-.5 2.3.1.1 0 0 1-.1.1zm-1.5-1.4a4.2 4.2 0 0 1 1.4.9 4.1 4.1 0 0 1 .5-1.9 7.2 7.2 0 0 0-1.5-1.1 5.2 5.2 0 0 0-.4 2.1zM219.4 316.8h-.1a.1.1 0 0 1-.1-.1 5.9 5.9 0 0 0-.5-2.3c0-.1 0-.2.1-.2a6.6 6.6 0 0 1 1.7-1.2c.1-.1.2 0 .3.1a6 6 0 0 1 .5 2.4.1.1 0 0 1-.1.1 5.2 5.2 0 0 0-1.7 1.2zm-.3-2.5a7.1 7.1 0 0 1 .4 2 4.6 4.6 0 0 1 1.5-.9 8 8 0 0 0-.5-2.1 7.1 7.1 0 0 0-1.4 1z"/></g></g><g><path d="M313.1 292.4h.1a5.8 5.8 0 0 0 5.8-5.8 5.9 5.9 0 0 0-5.9 5.8z" fill="url(#p)"/><path d="M307.3 286.6a5.9 5.9 0 0 0 5.9 5.8 5.8 5.8 0 0 0-5.8-5.8z" fill="url(#q)"/><path d="M313.2 291.9a5.3 5.3 0 0 1 1.7-3.6 5.8 5.8 0 0 0-1.7-4.1 5.4 5.4 0 0 0-1.7 4.1 6.4 6.4 0 0 1 1.7 3.6z" fill="#be1e2d"/><path d="M312 285.9a5.7 5.7 0 0 0-1.8-1.2 6.9 6.9 0 0 0-.5 2.4 5.7 5.7 0 0 1 1.8 1.2 5.2 5.2 0 0 1 .5-2.4z" fill="url(#r)"/><path d="M314.9 288.3a6.6 6.6 0 0 1 1.7-1.2 5.2 5.2 0 0 0-.5-2.4 5.2 5.2 0 0 0-1.7 1.2 6.9 6.9 0 0 1 .5 2.4z" fill="url(#s)"/><g fill="#231f20"><path d="M313.2 292.6h-.1a.3.3 0 0 1-.1-.2 4.6 4.6 0 0 1 .5-2.3 6.2 6.2 0 0 1 1.2-1.9 5.9 5.9 0 0 1 1.9-1.3 6.9 6.9 0 0 1 2.4-.5.2.2 0 0 1 .2.2 5.9 5.9 0 0 1-.5 2.3 6.2 6.2 0 0 1-3.2 3.2 5.9 5.9 0 0 1-2.3.5zm5.6-5.8a4.5 4.5 0 0 0-2 .4 5.7 5.7 0 0 0-1.8 1.2 4.4 4.4 0 0 0-1.2 1.8 5.4 5.4 0 0 0-.5 2.1 8 8 0 0 0 2.1-.5 5.5 5.5 0 0 0 3-3 4.5 4.5 0 0 0 .4-2z"/><path d="M313.2 292.6a6.9 6.9 0 0 1-2.4-.5 5.9 5.9 0 0 1-1.9-1.3 6.2 6.2 0 0 1-1.2-1.9 4.6 4.6 0 0 1-.5-2.3.3.3 0 0 1 .1-.2h.1a5.9 5.9 0 0 1 2.3.5 6.2 6.2 0 0 1 3.2 3.2 5.9 5.9 0 0 1 .5 2.3.2.2 0 0 1-.2.2zm-5.7-5.8a4.6 4.6 0 0 0 .5 2 3.6 3.6 0 0 0 1.2 1.8 5.7 5.7 0 0 0 1.8 1.2 6.5 6.5 0 0 0 2 .5 5.2 5.2 0 0 0-.4-2.1 5.7 5.7 0 0 0-1.2-1.8 7.1 7.1 0 0 0-1.8-1.2 5.2 5.2 0 0 0-2.1-.4z"/><path d="M313.2 292.1a.2.2 0 0 1-.2-.2 5.3 5.3 0 0 0-1.7-3.5 5.9 5.9 0 0 1 .4-2.3 6.4 6.4 0 0 1 1.3-1.9h.1c0-.1.1-.1.2 0a5 5 0 0 1 1.3 1.9 5.9 5.9 0 0 1 .4 2.3 5.8 5.8 0 0 0-1.7 3.5c0 .1 0 .2-.1.2zm-1.6-3.9a6.3 6.3 0 0 1 1.6 2.7 6.1 6.1 0 0 1 1.5-2.7 5.2 5.2 0 0 0-.4-2.1 6.2 6.2 0 0 0-1.1-1.7 5.7 5.7 0 0 0-1.2 1.8 6.5 6.5 0 0 0-.4 2z"/><path d="M311.5 288.4h-.2a5.2 5.2 0 0 0-1.7-1.2 4 4 0 0 1 .5-2.4c0-.1.1-.2.2-.1a5.7 5.7 0 0 1 1.8 1.2v.2a5.9 5.9 0 0 0-.5 2.3zm-1.6-1.4a4.2 4.2 0 0 1 1.4.9 5.9 5.9 0 0 1 .5-1.9 7.2 7.2 0 0 0-1.5-1.1 5.2 5.2 0 0 0-.4 2.1zM314.9 288.4h-.2a4.6 4.6 0 0 0-.5-2.3c0-.1 0-.2.1-.2a6.6 6.6 0 0 1 1.7-1.2h.1c0-.1.1 0 .2.1a6.4 6.4 0 0 1 .5 2.4h-.1a6.6 6.6 0 0 0-1.7 1.2zm-.3-2.5a7.1 7.1 0 0 1 .4 2 4.6 4.6 0 0 1 1.5-.9 5.4 5.4 0 0 0-.5-2.1 7.1 7.1 0 0 0-1.4 1z"/></g></g><g><rect x="115.7" y="279.8" width="66.7" height="17.58" rx="5.5" fill="#231f20"/><rect x="116.2" y="279.2" width="66.7" height="17.58" rx="5.5" fill="#006838"/><g fill="#006838"><g opacity=".47" fill-rule="evenodd"><path d="M105.5 282.7h-15c-.1 3.8-.1 7.5-.1 11.3h15.2a38.2 38.2 0 0 0 3.4-3.6 21.4 21.4 0 0 0-.1-4.4 21.2 21.2 0 0 0-3.4-3.3zm1.4 5.1c.8.5-.3 1.7-.9.9s.3-1.3.9-.9z" opacity=".35" style="isolation:isolate"/><path d="M105.4 282.9H90.7v10.8h14.8a35.1 35.1 0 0 0 3.3-3.4c-.1-1.4.1-2.9-.1-4.2a24.8 24.8 0 0 0-3.3-3.2zm1.6 4.7a.6.6 0 0 1 .4.6 1.4 1.4 0 0 1-.2.7.9.9 0 0 1-.7.3 1.1 1.1 0 0 1-.7-.3.8.8 0 0 1 .1-1.1.8.8 0 0 1 1.1-.2z" opacity=".35" style="isolation:isolate"/><path d="M105.4 283.1H90.9c0 3.5-.1 7-.1 10.5h14.7c1-1.1 2.3-2.1 3.1-3.2s.1-2.9-.1-4.1-2.1-2.3-3.1-3.1zm1.7 4.3a1 1 0 0 1 .5.8 1.1 1.1 0 0 1-.3.8 1 1 0 0 1-.7.4 1.1 1.1 0 0 1-.9-.4 1.4 1.4 0 0 1 0-1.4 1.2 1.2 0 0 1 1.4-.2z" opacity=".35" style="isolation:isolate"/></g><path d="M106.5 289.4a1 1 0 0 1-1-1.1 1.1 1.1 0 0 1 1-1 1.1 1.1 0 0 1 1.1 1 1.1 1.1 0 0 1-1.1 1.1zm-1-6.3 3.1 3.2v4.1l-3.1 3.2H90.8V283z" fill-rule="evenodd"/><path d="m112.2 287.6-.9-.3h-2.7v.2l2.7.2.8.2h.1c.1 0 .1 0 0 .1l-.2.2-.6.2-1.9.3h-1.9l-.6-.2h-.3l.8-.5h-.2l-.8.5.4.3.7.2h1.9a9.5 9.5 0 0 0 1.9-.3l.7-.2q.3-.1.3-.3c.1-.1.1-.3 0-.3l-.2-.2z"/></g></g></svg>