<?xml version="1.0" encoding="UTF-8"?>
<svg id="uuid-11cf6aef-3046-49e3-8003-7c6df5e05b44" data-name="uuid-e22ea6a2-ce95-45ae-b4ca-bf224593ae3c" xmlns="http://www.w3.org/2000/svg" width="335" height="335.6" xmlns:xlink="http://www.w3.org/1999/xlink" viewBox="0 0 335 335.6">
  <defs>
    <radialGradient id="uuid-93aa2414-7071-4034-a825-cf707e2cf589" cx="167.5" cy="-10.79" fx="167.5" fy="-10.79" r="119.34" gradientTransform="translate(0 255.09) scale(1 8.12)" gradientUnits="userSpaceOnUse">
      <stop offset="0" stop-color="#fff"/>
      <stop offset="1" stop-color="#e6e6e6"/>
    </radialGradient>
    <radialGradient id="uuid-d045961a-5723-4242-979f-13c91149bb26" cx="18.9" cy="821.1" fx="18.9" fy="821.1" r="95.6" gradientTransform="translate(0 -432.09)" gradientUnits="userSpaceOnUse">
      <stop offset="0" stop-color="#fff"/>
      <stop offset="1" stop-color="#e6e6e6"/>
    </radialGradient>
    <linearGradient id="uuid-6f71e9e1-98d5-4f76-a515-b87742c537ef" x1="88.9" y1="728.28" x2="83.3" y2="671.28" gradientTransform="translate(520.22 -380.86) rotate(-166.1) scale(1 -1)" gradientUnits="userSpaceOnUse">
      <stop offset="0" stop-color="#999"/>
      <stop offset=".5" stop-color="#e6e6e6"/>
      <stop offset="1" stop-color="#b3b3b3"/>
    </linearGradient>
    <linearGradient id="uuid-01e6a1f7-8eda-402c-9766-cbfd4936dd3a" x1="330.24" y1="238.32" x2="327.44" y2="243.02" gradientTransform="translate(0 74.8)" gradientUnits="userSpaceOnUse">
      <stop offset="0" stop-color="#1a1a1a"/>
      <stop offset="1" stop-color="#000"/>
    </linearGradient>
    <linearGradient id="uuid-42a21329-ff9c-4d24-90c1-d147f508ce35" x1="290.47" y1="188.26" x2="288.47" y2="189.86" gradientTransform="translate(0 74.8)" gradientUnits="userSpaceOnUse">
      <stop offset="0" stop-color="#999"/>
      <stop offset=".5" stop-color="#f2f2f2"/>
      <stop offset="1" stop-color="#999"/>
    </linearGradient>
    <linearGradient id="uuid-e320ec3e-b483-4730-9f65-7ba7e40f086d" x1="232.86" y1="214.56" x2="288.86" y2="157.86" gradientTransform="translate(0 74.8)" gradientUnits="userSpaceOnUse">
      <stop offset="0" stop-color="#333"/>
      <stop offset="1" stop-color="#fff"/>
    </linearGradient>
    <linearGradient id="uuid-4856cd82-6651-49a9-b89b-6c9d14e8604b" x1="248.4" y1="224.83" x2="245.6" y2="228.63" gradientTransform="translate(0 74.8)" gradientUnits="userSpaceOnUse">
      <stop offset="0" stop-color="#999"/>
      <stop offset=".5" stop-color="#f2f2f2"/>
      <stop offset="1" stop-color="#999"/>
    </linearGradient>
    <clipPath id="uuid-e63c153b-3657-4d4a-b907-db8deed5853a">
      <ellipse cx="257.8" cy="329.1" rx="27" ry="4" fill="none"/>
    </clipPath>
    <radialGradient id="uuid-ba3da2fa-a2ab-4485-a5cb-262a97d635d2" cx="246.5" cy="81" fx="246.5" fy="81" r="81.8" gradientTransform="translate(0 412.89) scale(1 -1)" gradientUnits="userSpaceOnUse">
      <stop offset="0" stop-color="#b0be52"/>
      <stop offset="1" stop-color="#cdde60"/>
    </radialGradient>
    <radialGradient id="uuid-79d2770e-6359-43ab-9375-ae300b7f9276" cx="27.35" cy="703.79" fx="27.35" fy="703.79" r="27.11" gradientTransform="translate(-.96 -432.09) scale(1.26 1)" gradientUnits="userSpaceOnUse">
      <stop offset="0" stop-color="#fff"/>
      <stop offset="1" stop-color="#e6e6e6"/>
    </radialGradient>
    <radialGradient id="uuid-75fd8192-49c6-4c38-90e7-18397206fd12" cx="-30.7" cy="1043.8" fx="-30.7" fy="1043.8" r="2.3" gradientTransform="translate(-930.19 296.6) rotate(-90)" gradientUnits="userSpaceOnUse">
      <stop offset="0" stop-color="#fff"/>
      <stop offset="1" stop-color="#e6e6e6"/>
    </radialGradient>
    <radialGradient id="uuid-c7d73559-149d-4d23-bb58-a8207ca433a6" cx="-30.7" cy="1052" fx="-30.7" fy="1052" r="2.3" gradientTransform="translate(-930.19 296.6) rotate(-90)" gradientUnits="userSpaceOnUse">
      <stop offset="0" stop-color="#fff"/>
      <stop offset="1" stop-color="#e6e6e6"/>
    </radialGradient>
    <radialGradient id="uuid-040e4444-779b-49b6-8ec7-f981a7028cb3" cx="-30.7" cy="1060.3" fx="-30.7" fy="1060.3" r="2.3" gradientTransform="translate(-930.19 296.6) rotate(-90)" gradientUnits="userSpaceOnUse">
      <stop offset="0" stop-color="#fff"/>
      <stop offset="1" stop-color="#e6e6e6"/>
    </radialGradient>
    <radialGradient id="uuid-6bc6b460-5cec-4e20-b2df-e7bef1f6c8ce" cx="-30.7" cy="1068.6" fx="-30.7" fy="1068.6" r="2.3" gradientTransform="translate(-930.19 296.6) rotate(-90)" gradientUnits="userSpaceOnUse">
      <stop offset="0" stop-color="#fff"/>
      <stop offset="1" stop-color="#e6e6e6"/>
    </radialGradient>
    <radialGradient id="uuid-1905a4ab-10bf-4719-abfb-0c88d865e56f" cx="-30.7" cy="1076.9" fx="-30.7" fy="1076.9" r="2.3" gradientTransform="translate(-930.19 296.6) rotate(-90)" gradientUnits="userSpaceOnUse">
      <stop offset="0" stop-color="#fff"/>
      <stop offset="1" stop-color="#e6e6e6"/>
    </radialGradient>
    <radialGradient id="uuid-f75b6650-982b-43f9-8308-3aba689d823a" cx="21.5" cy="639.2" fx="21.5" fy="639.2" r="11" gradientTransform="translate(0 -432.09)" gradientUnits="userSpaceOnUse">
      <stop offset="0" stop-color="#b0be52"/>
      <stop offset="1" stop-color="#cdde60"/>
    </radialGradient>
    <radialGradient id="uuid-a617f655-2af2-4da9-89c2-b97cc6dafe8b" cx="21.5" cy="663" fx="21.5" fy="663" r="11" gradientTransform="translate(0 -432.09)" gradientUnits="userSpaceOnUse">
      <stop offset="0" stop-color="#b0be52"/>
      <stop offset="1" stop-color="#cdde60"/>
    </radialGradient>
  </defs>
  <path d="M0,0H335V335H0V0Z" fill="url(#uuid-93aa2414-7071-4034-a825-cf707e2cf589)" isolation="isolate" opacity=".9"/>
  <g opacity=".1">
    <path d="M217,25v-6.6h18.6l-.6,5h-5.3v17.2h-6.7v-15.6h-6Zm.7-.7h6v15.6h5.3V22.7h5.4l.5-3.8h-17.2v5.4Zm18.6,16.4V18.4h17.4v4.6h-9.5v4.4h8v4.6h-10.2v3.4h13v5.3h-18.7Zm.7-.6h17.4v-4h-13.2v-5h10.2v-3.2h-8v-5.7h9.6v-3.3h-16v21.2Zm19.5,.3V18.4h7.6l7.8,13.7v-13h4.2v21.5h-6.4l-8.4-14v13.8h-4.8Zm.7-.7h3.4v-15.5l9.5,15.7h5.3V19.9h-3v14.5l-8.8-15.6h-6.6v20.6l.2,.3Zm20.8,.7V18.4h7.5l7.8,13.7v-13h4.2v21.5h-6.3l-8.4-14v13.8h-4.8Zm.7-.7h3.4v-15.5l9.4,15.7h5.4V19.9h-3v14.5l-9-15.6h-6.4v20.6l.2,.3Zm20.8,1V18.4h5.8v21.7l-5.8,.6Zm.6-.7l4.6-.5V18.9h-4.7v21l.1,.1Zm26-17c0,.5,0,1,.1,1.6,0,.2,.1,.5,.1,1h-5.8v-2.2h-8v3h2.3l2,.2c1.34,0,2.68,.1,4,.3,1.4,.2,2.7,.8,4,1.5,1.4,.98,2.4,2.44,2.8,4.1l.2,1.6c0,.6-.2,1.3-.4,2-.37,1.6-1.39,2.97-2.8,3.8-1.3,.7-3.4,1-6.4,1h-4l-2.7-.8c-1-.5-2-1-2.8-2s-1.3-2-1.4-3v-1c0-.2,0-.4,.1-.6h6.7v2.7h7.4l-.2-3c-.2-.2-.5-.3-.8-.4h-5l-2-.2-2.3-.8c-.8-.3-1.5-.6-2.2-1-.5-.5-1-1-1.3-1.7-.5-1-.7-2-.7-3s.21-2.05,.6-3c.3-.7,.7-1.3,1.2-1.8l2-1.4,2.7-1,3-.2h2.3c1.02,.1,2.02,.3,3,.6,1,.2,1.8,.6,2.6,1.2h.2l.2,.2,.4,.4c.5,.5,.8,1,1,1.8l-.1,.1h0Zm-.7,.1c0-.2,0-.4-.1-.6l-.6-.8-.3-.4-.3-.2h-.1c-.8-.5-1.6-1-2.5-1.2l-2.6-.5h-1.9l-3.7,.2c-1,.2-2,.6-3,1.2-1,.5-1.6,1.2-2.2,2-.5,.8-.8,1.8-.7,2.8,0,.6,0,1,.1,1.7,0,.5,.1,1,.4,1.3,.3,.6,.7,1,1.2,1.5l2,1c2,.7,3.8,1,5.8,1h3.5l.5,.2,.7,.4,.2,4.2h-8.8v-2.8h-5.5c0,.4,.1,.8,.1,1.2,.1,.4,.2,.8,.4,1,.3,.6,.7,1.2,1.2,1.7,.7,.5,1.4,1,2.2,1.3,.8,.4,1.6,.6,2.5,.7l3,.2h1c3,0,5-.4,6.2-1,1.2-.7,2-2,2.5-3.3,.2-.6,.3-1.2,.3-1.8,0-.5-.1-1-.2-1.4-.12-.72-.39-1.4-.8-2-.5-.6-1-1.2-1.8-1.6-.5-.4-1-.7-1.6-1l-2.5-.7-1.8-.2h-6.7v-4.8h9.2v2.2h4.4l-.1-1.7,.4,.2h0Zm-108.4,70.8v-6.5h18.6l-.6,5h-5.3v17.2h-6.7v-15.7h-6Zm.7-.6h6v15.6h5.3v-17.2h5.4l.5-3.8h-17.2v5.4Zm18.6,16.4v-22.3h17.4v4.6h-9.5v4.4h8v4.6h-10.2v3.5h13v5.4h-18.7v-.2Zm.7-.6h17.4v-4h-13.2v-5h10.2v-3.2h-8v-5.7h9.6v-3.3h-16v21.2Zm19.5,.3v-22h7.6l7.8,13.7v-13h4.2v21.5h-6.4l-8.4-14v13.8h-4.8Zm.7-.7h3.4v-15.5l9.5,15.7h5.3v-20h-3v14.5l-8.8-15.6h-6.6v20.6l.2,.3Zm20.8,.7v-22h7.5l7.8,13.7v-13h4.2v21.5h-6.3l-8.4-14v13.8h-4.8Zm.7-.7h3.4v-15.5l9.4,15.7h5.4v-20h-3v14.5l-9-15.6h-6.4v20.6l.2,.3Zm20.8,1v-22.3h5.8v21.7l-5.8,.6h0Zm.6-.7l4.6-.5v-20.6h-4.7v21l.1,.1Zm26-17c0,.5,0,1,.1,1.6,0,.2,.1,.5,.1,1h-5.8v-2.3h-8v3.1h4.3c1.34,0,2.68,.1,4,.3,1.4,.2,2.7,.7,4,1.5,1.4,.98,2.4,2.44,2.8,4.1l.2,1.6c0,.7-.2,1.3-.4,2-.37,1.6-1.39,2.97-2.8,3.8-1.3,.7-3.4,1-6.4,1h-4l-2.7-.8c-1-.5-2-1-2.8-2-.7-1-1.2-2-1.4-3v-1c0-.2,.1-.3,.1-.5h6.7v2.7h7.4l-.2-3.2-.8-.3h-5l-2-.2-2.3-.8c-.8-.3-1.5-.6-2.2-1-.5-.5-1-1-1.3-1.7-.5-1-.7-2-.7-3s.21-2.05,.6-3c.3-.7,.7-1.3,1.2-1.8,.6-.6,1.3-1,2-1.4l2.7-1,3-.2h2.3c1.02,.1,2.02,.3,3,.6,1,.2,1.8,.6,2.6,1.2l.2,.2,.2,.2,.4,.4c.5,.5,.8,1,1,1.8l-.1,.1h0Zm-.7,.1c0-.2,0-.4-.1-.6l-.6-.8-.3-.4-.3-.2v-.2c-.8-.5-1.6-1-2.5-1l-2.6-.5h-2l-3.7,.2c-1,.2-2,.6-3,1.2-1,.4-1.7,1-2.2,2-.5,.8-.8,1.8-.7,2.8,0,.6,0,1,.1,1.7,0,.5,.2,1,.4,1.3,.3,.6,.7,1,1.2,1.5l2,1c2,.7,3.8,1,5.8,1h3.5l.5,.2,.7,.4,.2,4.2h-8.8v-2.7h-5.5c0,.4,.1,.8,.1,1.2,.1,.4,.2,.8,.4,1,.3,.6,.7,1.2,1.2,1.7,.7,.5,1.4,1,2.2,1.3s1.6,.6,2.5,.7l3,.2h1c3,0,5-.4,6.2-1,1.2-.7,2-2,2.5-3.3,.2-.6,.3-1.2,.3-1.8,0-.5-.1-1-.2-1.4-.12-.72-.39-1.4-.8-2-.5-.6-1-1.2-1.8-1.6-.5-.4-1-.7-1.6-1l-2.5-.8-1.8-.2h-6.7v-4.8h9.2v2.2h4.4v-1.7l.3,.2h0Zm-108.3,71v-6.7h18.6l-.6,5h-5.3v17.2h-6.8v-15.7h-6l.1,.2Zm.7-.6h6v15.6h5.3v-17.2h5.4l.5-3.8h-17.2v5.4Zm18.6,16.4v-22.5h17.4v4.5h-9.5v4.4h8v4.6h-10.3v3.5h13v5.4h-18.7l.1,.1Zm.7-.7h17.4v-4h-13.2v-5h10.2v-3.2h-8v-5.7h9.6v-3.3h-16v21.2Zm19.5,.4v-22h7.6l7.8,13.7v-13h4.2v21.5h-6.4l-8.4-14v13.6h-4.8v.2h0Zm.7-.7h3.4v-15.5l9.5,15.7h5.3v-20h-3v14.3l-8.8-15.6h-6.7v20.6l.3,.5h0Zm20.8,.7v-22h7.5l7.8,13.7v-13h4.2v21.5h-6.3l-8.4-14v13.6h-4.9l.1,.2h0Zm.7-.7h3.4v-15.5l9.4,15.7h5.4v-20h-3v14.3l-9-15.6h-6.4v20.6l.2,.5Zm20.8,1v-22.5h5.8v21.7l-5.8,.6v.2Zm.6-.7l4.6-.5v-20.5h-4.8v21h.2Zm26-17c0,.5,0,1,.1,1.6,0,.2,.1,.5,.1,1h-5.8v-2.3h-8v3.2h4.3l4,.2c1.4,.3,2.7,.8,4,1.6,1.4,1,2.4,2.4,2.8,4,.1,.6,.2,1,.2,1.7-.2,2.3-1.4,4.3-3.2,5.6-1.3,.8-3.4,1-6.4,1h-4c-1-.2-2-.4-2.7-1-1-.4-2-1-2.8-2-.8-.8-1.3-2-1.4-3v-1c0-.2,.1-.3,.1-.5h6.7v2.7h7.4l-.2-3.2-.8-.3h-5c-.7,0-1.4-.1-2-.3l-2.3-.7-2.2-1c-.5-.5-1-1-1.3-1.7-.5-1-.7-2-.7-3s.21-2.05,.6-3c.3-.7,.7-1.3,1.2-1.8,.6-.6,1.3-1,2-1.4l2.7-1,3-.2h2.3c1.02,.1,2.02,.3,3,.6,1,.2,1.8,.6,2.6,1.2h.2l.2,.3,.4,.4c.5,.5,.8,1.2,1,2l-.1,.3h0Zm-.7,.1c0-.2,0-.4-.1-.6l-.6-.8-.3-.4-.3-.2v-.2c-.8-.5-1.6-1-2.5-1l-2.6-.5h-2c-1.24-.03-2.47,.03-3.7,.2-1,.2-2,.6-3,1-1,.5-1.6,1.2-2.2,2-.5,.8-.8,1.8-.7,2.8,0,.6,0,1,.1,1.7,0,.5,.2,1,.4,1.3,.3,.6,.7,1,1.2,1.5l2,1c2,.7,3.8,1,5.8,1h4l.7,.5,.2,4.2h-8.9v-2.7h-5.5c0,.4,.1,.8,.1,1.2,.1,.4,.2,.8,.4,1,.3,.6,.7,1.2,1.2,1.7,.7,.5,1.4,1,2.2,1.3s1.6,.6,2.5,.7h4c3,0,5-.3,6.2-1s2-2,2.5-3.3c.2-.6,.3-1.2,.3-1.8,0-.5-.1-1-.2-1.4-.12-.72-.39-1.4-.8-2-.5-.7-1-1.2-1.8-1.7l-1.6-.8-2.5-.6-1.8-.2h-6.7v-4.8h9.2v2.2h4.4v-1.7l.4,.4h0Zm-108.3,71v-6.7h18.6l-.6,5h-5.3v16.8h-6.9v-15.6h-6l.2,.5Zm.7-.6h6v15.6h5.3v-17.2h5.4l.5-3.8h-17.2v5.4Zm18.6,16.4v-22.5h17.4v4.6h-9.5v4.4h8v4.6h-10.4v3.5h13v5.4h-18.5Zm.7-.7h17.4v-4h-13.2v-5h10.2v-3.2h-8v-5.7h9.6v-3.3h-16v21.2Zm19.5,.2v-22h7.6l7.8,13.8v-13h4.2v21h-6.4l-8.4-14v13.6h-4.8v.6h0Zm.7-.6h3.4v-15.4l9.5,15.7h5.3v-20h-3v14.1l-8.8-15.6h-6.8v20.6l.4,.6h0Zm20.8,.6v-22h7.5l7.8,13.8v-13h4.2v21h-6.3l-8.4-14v13.6h-5l.2,.6h0Zm.7-.6h3.4v-15.4l9.4,15.7h5.4v-20h-3v14.1l-9-15.6h-6.4v20.6l.2,.6h0Zm20.8,1v-22.4h5.8v21.8l-5.8,.6h0Zm.6-.7l4.6-.5v-20.5h-4.9v21h.3Zm26-17c0,.5,0,1,.1,1.6,0,.2,.1,.5,.1,1h-5.8v-2.3h-8v3.2h4.3l4,.2c1.4,.3,2.7,.8,4,1.6,1.4,1,2.4,2.4,2.8,4,.1,.6,.2,1,.2,1.7-.2,2.3-1.4,4.3-3.2,5.6-1.3,.7-3.4,1-6.4,1h-1l-3.3-.2c-1-.1-2-.4-2.7-.8-1-.4-2-1-2.8-2-.8-.8-1.3-2-1.4-3v-1c0-.2,.1-.3,.1-.5h6.7v2.7h7.4v-3.2l-.8-.3h-5c-.7,0-1.4-.1-2-.3l-2.3-.6c-.8-.3-1.5-.7-2.2-1.2-.6-.4-1-1-1.3-1.6-.5-1-.7-2-.7-3s.21-2.05,.6-3c.3-.7,.7-1.3,1.2-2l2-1.3c.8-.5,1.7-.8,2.7-1l3-.2h2.3l3,.5c1,.3,1.8,.7,2.6,1.3h.2l.2,.3,.4,.4c.5,.5,.8,1.2,1,2v.4h0Zm-.7,.1c0-.2,0-.4-.1-.6-.1-.3-.3-.6-.6-.8l-.3-.4-.3-.3h-.1c-.8-.5-1.6-1-2.5-1l-2.6-.5h-2.1c-1.24-.03-2.47,.03-3.7,.2-1,.2-2,.6-3,1-1,.5-1.6,1.2-2.2,2-.52,.87-.77,1.88-.7,2.9,0,.6,0,1,.1,1.7,0,.5,.2,1,.4,1.3,.7,1.2,2,2,3.3,2.5,2,.6,3.8,1,5.8,1h3.5l.5,.2,.7,.5,.2,4.2h-8.7v-2.8h-5.5c0,.5,.1,1,.1,1.3,.1,.4,.2,.8,.4,1,.3,.6,.7,1.2,1.2,1.6,.6,.6,1.4,1,2.2,1.4,.8,.3,1.6,.6,2.5,.7h4c3,0,5-.3,6.2-1s2-2,2.5-3.3c.2-.6,.3-1.2,.3-1.8,0-.5-.1-1-.2-1.4-.12-.72-.39-1.4-.8-2-.5-.7-1-1.2-1.8-1.7-.5-.4-1-.6-1.6-.8l-2.5-.6h-3.4l-2.2-.2h-3v-5.3h9.2v2.2h4.4l-.1-1.7,.5,.5h0Z" fill="#006837"/>
  </g>
  <path d="M0,254.9H335v7.8H0v-7.8H0Z" fill="#d9e021"/>
  <path d="M0,259H335v76H0v-76Z" fill="#006837"/>
  <path d="M0,315.2l1.2-2.4,8,3.6-6,11.8-3-1.4v1.7l2.4,1-2.4,4.8v.6H1.7l2.4-4.7,8,3.7-.5,1h1.8l.2-.4,1,.4h4l-4-1.8,6-11.8,7.6,3.4-5,10.2h2l4.8-9.5,10,4.5-2.5,5h1.8l2-4.3,8.6,4-.2,.4h25.3L0,301.4v13.8H0Zm18.7,5.5l-6,12-8-3.7,6-12,8.2,3.7h-.2Z" fill="url(#uuid-d045961a-5723-4242-979f-13c91149bb26)"/>
  <path d="M335,35.6l-7-3,7-13.7v-6l-9.3,18.5-16.7-7.6,9.8-19.5,16.2,7.4v-3l-15-6.7L321,0h-3l-.4,1L315.6,0h-6.3l7,3.2-9.8,19.5-14.2-6.4L300.6,0h-3l-7.6,15.3-16.2-7.3L277.8,0h-3l-3.4,6.8-13.5-6L258.3,0h-42l118.7,53.6v-18Z" fill="#006837"/>
  <path d="M251.4,248.7h-.4l2.7,1.5-1.4,2.6-3.5-2,.8-1.7-.4,.2-.7,1.3-1-.5-.4,.2,1.2,.6-1.3,2.4-2.5-1.3-.3,.2,2.6,1.4-1,2-3.5-2-.2,.3,3.5,2-1,1.8-4-2.3-.2,.2,4.2,2.3-1.2,2.4-4.7-2.6c0,.1-.1,.2-.2,.3l4.7,2.5-1,1.7-4.8-2.6v.2l4.8,2.7-1,2-4.8-2.5c0,.1-.1,.1-.1,.2l4.8,2.6-1,2-4.5-2.5v.3l4.5,2.5-1,1.7-4.2-2.3c0,.1,0,.2-.1,.3l4,2.2-1,2-3.6-2v.3l3.4,1.8-1,2-2.6-1.4v.3l2.5,1.4-1.3,2.4-1.2-.6c0,.1,0,.2,.1,.3l1,.6-.7,1.4v.5l1-1.8,3.2,1.8-1.3,2.5-2.7-1.5v.4l2.6,1.4-1.3,2.3c.1,.1,.1,.3,.1,.4l1.4-2.6,3,1.7-2,3.5-2-1,.3,.4,1.5,.8-.5,1,.2,.3,.5-1,2.8,1.4-1.3,2.5,.2,.3,1.4-2.6,2.4,1.3-1.8,3.5c0,.1,.1,.2,.2,.3l2-3.7,2,1-2.2,4,.2,.2,2.3-4.2,2,1-2.5,4.6,.2,.2,2.6-4.6,2,1-2.7,5,.3,.2,2.7-5,2,1-2.8,5.2h.2l2.8-5,2.3,1.2-2.8,5.2h.3l2.8-5.2,1.8,1-2.8,5.2h.3l2.8-5.2,1.7,1-2.8,5h.3l2.7-5,2,1-2.6,4.8c.1,0,.2,0,.2,.1l2.6-4.7,2.2,1-2.4,4.3h.3l2.3-4.3,2,1-2,3.7h.3l2-3.6,2.8,1.4-1.5,2.8h.3l1.4-2.6,2.4,1.2-1,1.6h.4l.8-1.5,2.8,1.5h.6l1.5-2.7,3.5,2h.4l-3.8-2,1.6-3,4,2-1.5,2.8h.4l1.3-2.5,2.4,1.3,.4-.2-2.6-1.4,1.3-2.4,4.3,2.4h.3l-4.5-2.4,1.5-2.7,6,3,.2-.2-6-3.2,1-1.6,6.5,3.5v-.2l-6.6-3.6,1-1.5,7,3.8,.2-.2-7-4,1.2-2.2,7.4,4c0-.1,.1-.2,.1-.3l-7.3-4,.8-1.6,7.4,4v-.3l-7.3-4,1-1.8,7,4v-.3l-7-4,1.2-2.2,6.5,3.6c.1-.1,.1-.2,.1-.3l-6.5-3.6,1-1.8,5.8,3.2h0l-5.6-3,1.2-2.2,4.4,2.4c-.1-.1-.1-.2-.1-.4l-4.2-2.2,1.4-2.6,2.3,1.2c0-.1,0-.2-.1-.3l-2-1.2,1.3-2.3c-.1-.1-.1-.3-.2-.4h0l-.2-.3-3.4-2,1.4-2.7v-.4l-1.6,3-3.5-2,1.6-3,3,1.8c-.1-.2-.2-.3-.2-.5l-2.8-1.5,1-1.6-.2-.3-1,1.7-2-1,1.4-2.5-.3-.2-1.4,2.6-2.5-1.4,2-3.4-.2-.3-2,3.6-2-1.2,2.2-4-.2-.2-2.3,4.2-2-1.2,2.5-4.6h-.4l-2.5,4.6-2-1,2.7-4.8h-.2l-2.7,5-2.4-1.3,2.7-5-.2-.2-2.8,5.2-1.6-1,2.8-5.2-.3-.2-2.8,5.2-2-1,2.8-5h-.3l-2.8,5-2-1,2.8-5h-.3l-2.7,5-2-1,2.6-4.7h-.3l-2.6,4.7-1.8-1,2.3-4.4h-.3l-2.5,4.4-2.6-1.4,2-3.6h-.3l-2,3.5-2.2-1.2,1.4-2.7h-.3l-1.4,2.5-2.6-1.4,.7-1.3h-.3l-.6,1.2-1.7-1h-.6l2,1.2-1.6,3-3-1.6,1.4-2.6h-.4l-.9,2.4-2.5-1.3v-.4h-.1Zm-2.8,2.6l3.6,2-1.3,2.4-3.5-2,1.2-2.4h0Zm10.4-2.5l2.6,1.4-1.7,3-2.6-1.4,1.7-3Zm-5,1.6l3,1.6-1.4,2.6-3-1.6,1.4-2.6h0Zm-6.8,3.5l3.5,2-1,2-3.5-2,1-2h0Zm14.6-3.5l2.3,1.2-1.6,3-2.3-1.2,1.6-3Zm-9.4,3l3,1.6-1.3,2.4-3-1.6,1.3-2.4h0Zm4.8-1l2.6,1.4-1.4,2.6-2.6-1.4,1.4-2.6h0Zm-11.2,4l3.5,2-1,1.7-3.4-2,1-1.7h-.1Zm21-3l-1.7,3-2.6-1.4,1.6-3.2,2.7,1.5v.1h0Zm-16,2.8l3,1.6-1,2-3-1.6,1-2Zm9-2.3l2.3,1.3-1.3,2.6-2.3-1.3,1.3-2.6h0Zm-4.4,1.3l2.6,1.5-1.2,2.4-2.7-1.4,1.3-2.5Zm-10.6,3.2l3.5,2-1.2,2.3-3.5-2,1.2-2.3Zm4.8,0l3,1.6-1,1.8-3-1.6,1-1.8Zm19.4-4l-1.7,3-2-1,1.7-3,2,1Zm-6.5,.8l2.5,1.4-1.4,2.6-2.5-1.4,1.4-2.6h0Zm-8.4,2.6l2.6,1.5-1,2-2.6-1.4,1-2v-.1Zm-10.6,3.2l3.4,1.8-1,1.8-3.4-2,1-1.7h0v.1h0Zm15-4.3l2.3,1.2-1.3,2.5-2.3-1.3,1.3-2.4h0Zm-9.8,3.7l3,1.6-1.2,2.3-3-1.6,1.3-2.3h-.1Zm20.6-5.8l2,1-1.6,3-2-1,1.6-3h0Zm-26.8,8.3l3.5,2-1,2-3.4-1.8,1-2-.1-.2Zm10.4-2.7l2.7,1.4-1,1.8-2.6-1.5,1-1.7h-.1Zm12.5-3.4l2,1-1.4,2.5-2-1,1.4-2.5Zm-4.3,1.3l2.5,1.3-1.3,2.5-2.5-1.4,1.3-2.4Zm-4,1.3l2.3,1.3-1,2-2.3-1.3,1-2h0Zm-9.8,3.6l3,1.6-1,1.7-3-1.6,1-1.7Zm24.3-7.2l2,1-1.7,3-2-1,1.7-3h0Zm-30.3,9.4l3.4,2-1,2-3.4-2,1-2Zm13.2-1.6l-1.2,2.3-2.7-1.4,1.3-2.3,2.6,1.4h0Zm13-5.7l2,1-1.4,2.5-2-1,1.4-2.6v.1Zm-11.7,4l2.4,1.2-1,1.8-2.3-1.3,1-1.7h-.1Zm4-1l2.4,1.3-1,2-2.4-1.3,1-2Zm4.2-1.2l1.8,1-1.3,2.4-2-1,1.4-2.4h.1Zm-14.7,7l-1,2-3-1.5,1-2,3,1.6v-.1Zm24.5-9.6l2,1-1.7,3-2-1,1.6-3h.1Zm-34,10.3l3.4,1.8-1,1.7-3.3-1.8,.8-1.7h.1Zm10.4-2.8l2.6,1.5-1,1.7-2.6-1.4,1-1.8h0Zm19.3-5.5l2,1-1.4,2.5-2-1,1.4-2.5Zm-15,4.6l2.3,1.3-1.2,2.3-2.4-1.3,1.3-2.3Zm13.2-2l-1.3,2.4-2-1,1.3-2.5,2,1v.1Zm-7.2,2.7l-1,1.7-2.4-1.3,1-1.7,2.4,1.3Zm-12.8,4.3l-1,2-3-1.6,1-2,3,1.6Zm28-10.6l1.7,1-1.6,3-1.7-1,1.6-3Zm-13.5,4l2,1-1.2,2-2-1,1.2-2Zm-23.4,7.3l3.4,1.8-1,2-3.4-1.8,1-2Zm10.3-2.8l2.7,1.5-1,2-2.7-1.4,1-2v-.1Zm22.5-6.4l2,1-1.3,2.5-2-1,1.3-2.6v.1Zm-3.7,1.7l2,1-1.3,2.4-2-1,1.3-2.4Zm-14.8,4.3l2.3,1.3-1,1.8-2.3-1.3,1-1.8Zm4-1l2.3,1.3-1.2,2.3-2.4-1.3,1.3-2.3h0Zm22.8-4.6l-1.7,3-2.3-1.2,1.7-3,2.3,1.3v-.1h0Zm-33.5,10.5l-1,1.7-3-1.6,1-1.7,3,1.6Zm17.8-7.7l2,1-1,2-2-1,1-2Zm-1.5,2.3l-1,1.7-2-1,1-1.8,2,1v.1h0Zm-25,6l3.4,1.8-1.2,2-3.3-1.8,1-2h.1Zm10.3-2.8l2.7,1.4-1,2-2.7-1.4,1-2Zm27.6-6.5l-1.3,2.5-1.7-1,1.4-2.5,1.6,1Zm-21,7l-1,2-2.4-1.2,1-2,2.4,1.3v-.1h0Zm17.7-5.4l-1.3,2.5-2-1,1.3-2.5,2,1Zm-29.7,7.2l3,1.6-1,2-3-1.6,1-2Zm13.3-3.6l2.3,1.2-1,1.8-2.3-1.3,1-1.7h0Zm6-.1l-1.3,2.2-2-1,1.3-2.3,2,1v.1h0Zm5-3l2,1-1.2,2-2-1,1.2-2Zm13.7-4l2,1-1.7,3-2-1,1.7-3Zm-17.3,5l2,1-1,1.7-2-1,1-1.8h0v.1h0Zm-23.2,10l-1.3,2.5-3.3-1.8,1.3-2.5,3.3,1.8Zm36-13.3l2.3,1.3-1.4,2.5-2.2-1.3,1.3-2.5h0Zm-29,8.6l2.7,1.5-1,1.7-2.7-1.5,1-1.7Zm4.2-.7l2.3,1.3-1,2-2.4-1.3,1-2h.1Zm21.5-6.2l1.7,1-1.3,2.4-1.7-1,1.3-2.5v.1Zm-31.2,9.4l3,1.6-1.2,2-3-1.6,1-2h.2Zm13.5-4l2.2,1.2-1,2-2.2-1.2,1-2Zm7-2l2,1-1.2,2.3-2-1,1.2-2.3Zm6.8-2l2,1-1.2,2.2-2-1,1-2.2h.2Zm16-2.7l-1.7,3-2.2-1.2,1.7-3,2.2,1.2Zm-19.3,4l2,1-1,1.7-2-1,1-1.8h0v.1h0Zm-7,2.2l2,1-1,1.7-1.8-1,1-1.7h-.2Zm-12.6,4l2.7,1.4-1,2-2.7-1.4,1-2Zm32.7-9.2l1.8,1-1.3,2.5-2-1,1.4-2.5h.1Zm-4,1.4l2.3,1.2-1.4,2.5-2.2-1.2,1.3-2.5h0Zm-24.6,7.5l2.3,1.2-.8,1.7-2.4-1.3,1-1.6h-.1Zm3.8-1l2.3,1.2-1.2,2-2.2-1.2,1-2h.1Zm-13.5,4l3,1.6-1.3,2.4-3-1.6,1.3-2.4Zm26-6l-1.6,2.9-2-1,1.3-2.2,2,1,.3-.7h0Zm6.6-2l-1,2-1.7-1,1-2,1.7,1Zm-13.5,4.2l-1,2-2-1,1-1.8,2,1v-.2Zm10.3-3l-1,1.8-2-1,1-1.8,2,1Zm-7,2l-1,1.8-2-1,1-1.7,2,1v-.1h0Zm24.4-7l-1.7,3-2-1.2,1.6-3,2,1,.1,.2Zm-39.6,12.6l-1.2,2.2-2.7-1.5,1.2-2.2,2.7,1.5Zm33.3-11.7l2,1.2-1.3,2.4-2.2-1,1.4-2.5,.1-.1Zm-29.5,11l-1,2-2.4-1.3,1-2,2.4,1.3Zm25.8-9.3l2,1-1.3,2.4-2-1,1.3-2.4Zm-4,1.3l2.2,1.2-1.2,2.2-2.2-1.2,1.2-2.2Zm-18.4,7.4l-1,1.6-2.2-1,1-1.7,2.2,1.2v-.1Zm11.7-5.2l2,1-1.2,2.2-2-1,1.2-2.2Zm-8.3,4l-1,2-2-1,1-2,2,1Zm1.5-2l2,1-1,2-2-1,1-1.8v-.2Zm12-2l-1,1.8-1.7-1,1-1.8,1.7,1Zm-8.9,1.6l2,1-1,1.8-2-1,1-1.7h0v-.1h0Zm-24.2,7.2l3,1.6-1.4,2.5-3-1.6,1.3-2.5h.1Zm51-13l-1.7,3-2.5-1.4,1.7-3,2.5,1.4Zm-46.4,12l2.7,1.5-1.3,2.4-2.7-1.4,1.3-2.5Zm41.8-10.2l-1.4,2.5-2-1,1.3-2.5,2,1h.1Zm-37.5,9.4l2.4,1.3-1.2,2.2-2.4-1.3,1.2-2.2h0Zm31.5-9l2.2,1.2-1.4,2.4-2-1,1.3-2.5-.1-.1Zm-27.7,8.3l2.2,1.2-1,2-2-1,1-2h0l-.2-.2Zm7-1.7l2,1-1.2,2-2-1,1-2h.2Zm15.6-2.8l-1,1.8-2-1.2,1-1.8,2.2,1.2h-.2Zm1.6-2.2l1.8,1-1,2-2-1,1.2-2Zm-13.8,4l2,1-1,2-2-1,1-1.8v-.2Zm7-2l1.8,1-1.2,2.2-1.8-1,1.2-2.3h0v.1h0Zm-13.7,4l2,1-1,1.6-2-1,1-1.7h0v.1h0Zm10-2.8l2,1-1,1.8-2-1.2,1-1.7h0v.1h0Zm25-6.8l2,1-1.6,3-2-1,1.6-3Zm-48.2,14.6l2.8,1.5-1.4,2.6-2.7-1.5,1.3-2.6h0Zm46-11.3l-1.4,2.4-2.5-1.4,1.3-2.4,2.6,1.4Zm-41.5,10.3l2.4,1.3-1.3,2.4-2.4-1.3,1.3-2.4Zm4-1l2.2,1.2-1.3,2.2-2-1,1-2.3h0l.1-.1h0Zm31.3-9.2l2,1-1.4,2.5-2-1,1.3-2.5h.1Zm-27.8,8.2l2,1-1,2-2-1,1-2Zm16.8-5l2,1.2-1.2,2.2-2-1,1.2-2.3h0v-.1h0Zm-10,3l2,1-1.2,2-2-1,1-2h.2Zm17-5l2.2,1.2-1.2,2.2-2.2-1.2,1.2-2.2Zm-11.6,5.3l-1,1.8-2-1,1-1.8,2,1Zm-7,2l-1,1.6-2-1,1-1.6,2,1Zm15-6l2,1-1,1.8-1.8-1,1-1.8h-.2Zm-6.8,2l1.7,1-1,1.7-1.7-1,1-1.8h0v.1h0Zm-24.2,11l-2,3.4-2.7-1.5,1.8-3.5,2.8,1.6h.1Zm15-5l-1,1.8-2-1,1-2,2,1v.2Zm-3.5,1l-1.2,2.3-2-1,1.2-2.2,2,1v-.1h0Zm29.3-10.3l2.5,1.4-1.3,2.4-2.6-1.3,1.4-2.5Zm4.2-1.2l2,1-1.3,2.5-2-1.2,1.3-2.4v.1Zm-39.2,11.6l2,1.2-1.3,2.4-2-1,1.3-2.5v-.1Zm16-3l-1,2-2-1,1-2,2,1Zm-17.6,5.5l-1.3,2.6-2.4-1.4,1.3-2.5,2.4,1.3Zm27.7-8.5l-1.2,2.2-2-1,1.2-2.3,2,1v.1h0Zm-15.7,3l2,1-1,1.6-2-1,.8-1.6h.2Zm19.2-3.8l-1,1.8-2-1.2,1-1.7,2,1v.1h0Zm3.7-1l-1.2,2-2-1,1.2-2,2,1Zm-12.8,2l2,1.2-1,1.7-2-1,1-1.8h0v-.1h0Zm-3,1l1.7,1-1,1.8-1.7-1,1-1.8Zm-11.4,4.8l2,1-1.3,2.3-2-1,1.2-2.2h0l.1-.1h0Zm3.4-1l2,1-1,1.8-2-1,1-2v.2Zm35.5-7.4l-1.3,2.4-3.5-2,1.3-2.4,3.5,2Zm-18.7,2.6l2,1.2-1.2,2.2-2.2-1.2,1.3-2.2h.1Zm-7,2l2,1-1,1.7-2-1,1-1.7Zm-17,5l2,1-1.3,2.5-2-1,1.4-2.4h0l-.1-.1h0Zm13.8-4l1.8,1-1.2,2-1.7-1,1-2.2h0l.1,.2h0Zm-3.6,1l2,1.2-1,1.6-2-1.2,1-1.6Zm21-6l2.5,1.4-1.2,2.2-2.5-1.4,1.2-2.2Zm-10.8,3.2l2,1-1,1.7-2-1,1-1.8h0v.1h0Zm17-3.3l-1.3,2.5-2-1,1.4-2.5,2,1h-.1Zm-8,2.4l-1,1.8-2-1,1-1.8,2,1Zm-31.2,9.2l-1.4,2.6-2-1,1.4-2.6,2,1Zm-3.5,1.9l-1.7,3.3-2.5-1.3,1.8-3.4,2.4,1.4Zm13.3-3.3l-1.3,2.3-2-1,1.2-2.3,2,1h.1Zm1.4-2l2.2,1.2-1,1.8-2.2-1,1-2Zm8.8-.8l-1.2,2-2-1,1-2.2,2,1,.2,.2Zm-13.8,4.2l-1.3,2.4-2-1,1.3-2.4,2,1Zm17-5l-1,1.7-2-1,1-1.8,2,1v.1h0Zm5.2-3l2,1-1.2,2.3-2-1.2,1.3-2.2h0l-.1,.1h0Zm-12,5l-1,1.6-1.7-1,.8-1.6,1.8,1h.1Zm8.2-4l2,1.2-1,1.7-2.2-1,1-1.8h0l.2-.1h0Zm18.7-2.5l-1.4,2.5-3.4-1.8,1.3-2.5,3.5,1.8Zm-11.5,.5l2.6,1.4-1,1.8-2.6-1.4,1-1.8Zm-31.2,9.3l2,1-1.4,2.7-2-1,1.4-2.6v-.1Zm37.5-9l-1.2,2.2-2-1.2,1.2-2.2,2,1.2Zm-39.4,11.6l-1.8,3.3-2-1,1.8-3.4,2,1v.1Zm50-13l-1.3,2.4-3.7-2,1.3-2.4,3.7,2Zm-36.5,9.7l-1.2,2.3-2.2-1,1.3-2.4,2,1.2,.1-.1h0Zm10-3l-1.2,2-2-1,1.2-2.2,2,1v.2Zm-8.5,1l1.8,1-1,1.8-1.8-1,1-2v.2Zm-7.2,2.2l2,1-1.3,2.4-2-1,1.3-2.4Zm17-5l2,1.2-1,1.7-2.2-1.2,1-1.7h.2Zm-7,2l2,1-.8,1.6-2-1,.8-1.6Zm14-4l2.6,1.4-1.3,2.2-2.5-1.4,1.2-2.2h0Zm-26,9.4l-1.4,2.7-2-1,1.5-2.6,2,1-.1-.1Zm24.3-7l-1,1.8-2-1,1-1.8,2,1Zm12.8-2l-1.3,2.2-3.4-2,1.2-2.2,3.5,2h0Zm-7.2-.7l2,1-1,2-2-1.2,1-1.8Zm-35.6,10.6l2,1-1.8,3.3-2-1,1.8-3.2h0v-.1h0Zm16.7-4.2l2,1-1,1.8-2-1,1-1.8Zm31.6-6.2l-1.4,2.5-3.7-2,1.3-2.5,3.8,2h0Zm-33,8.2l-1.3,2.4-1.8-1,1.3-2.4,1.8,1Zm8-4l2,1.2-1.2,2-2-1,1.2-2.2Zm-13.7,4.2l2,1.2-1.3,2.4-2-1.2,1.3-2.4Zm10.2-3l2,1-1,1.6-2-1,1-1.5v-.1Zm7-2l2,1.2-1,1.6-2-1,1-1.7v-.1Zm-19,7.4l-1.5,2.7-2-1,1.5-2.6,2,1v-.1Zm22.3-8l2.6,1.4-1,1.8-2.6-1.5,1-1.7h0Zm6.3,.2l-1.2,2.2-2-1,1.2-2.2,2,1Zm-32.5,9.6l-1.7,3.3-2-1,1.8-3.2,2,1-.1-.1h0Zm34-11.5l3.4,1.8-1,1.8-3.4-1.8,1-1.8Zm-20.5,8l-1.4,2.4-1.8-1,1.2-2.4,2,1h0Zm3.3-1l-1,1.8-2-1,1-1.8,2,1Zm7-1.7l-1.3,2.2-2-1,1.2-2.2,2,1h.1Zm-5.8,0l2,1.2-1,1.6-2-1.2,1-1.6Zm-10,3l1.8,1-1.3,2.4-1.8-1,1.3-2.5v.1Zm31-9l3.8,2-1.2,2.2-3.8-2,1.2-2.2Zm-13.8,4.2l2.6,1.4-1,1.7-2.6-1.4,1-1.7Zm-18.8,7.5l-1.5,2.7-2-1.2,1.4-2.7,2.2,1.2h-.1Zm30-7.3l-1.3,2.2-3.3-1.8,1.2-2.2,3.4,1.8h0Zm-36,7.8l2,1-1.7,3.2-2-1,1.8-3.2h-.1Zm28.8-8.5l2,1.2-1,1.8-2.2-1.2,1-1.8h.2Zm-15.5,5l2,1-1.3,2.4-2-1,1.3-2.4Zm5.5,.2l-1,1.8-2-1,1-1.8,2.2,1h-.2Zm-7.2,2.3l-1.3,2.4-1.8-1,1.2-2.4,2,1h-.1Zm14.8-3.4l-1.2,2.2-2.6-1.5,1.2-2,2.6,1.4v-.1Zm-6.2-.2l2,1-1,1.5-2-1,1-1.5Zm21-2.8l-1,1.8-3.8-2,1-1.8,3.7,2h.1Zm-34.7,7.2l1.8,1-1.5,2.8-1.8-1,1.5-2.8Zm21.4-6l2,1.2-1,1.6-2-1.2,1-1.6Zm-25.5,7.8l2.2,1.3-1.7,3-2.2-1.2,1.7-3.2h0v.1h0Zm29-8.3l3.3,1.8-1,1.8-3.3-2,1-1.7h0v.1h0Zm-15.7,4.8l2.2,1.2-1.4,2.4-2-1,1.3-2.5-.1-.1Zm3.6-.7l2,1-1,1.7-2-1,1-1.7Zm-7.2,2.2l2,1-1.3,2.4-2-1,1.3-2.4Zm13-1.4l-.8,1.6-2.7-1.4,1-1.6,2.6,1.4h-.1Zm11-5.4l3.8,2-1.2,2.2-3.8-2,1.2-2.2Zm-27.8,8.3l1.8,1-1.5,2.8-1.7-1,1.4-2.8h0Zm18.3-5.2l2.2,1.2-1.2,2.2-2.2-1.2,1.2-2.2Zm3.5-.6l3.3,1.8-1,1.6-3.3-1.7,1-1.7h0Zm-23.6,8.7l-1.7,3-1.8-1,1.7-3,1.8,1h0Zm11.4-4.6l2,1-1.4,2.5-2-1,1.3-2.5h.1Zm3.5-.8l2.6,1.5-1,1.7-2.7-1.4,1-1.8h.1Zm-5.2,3.4l-1.3,2.4-2.2-1.2,1.3-2.4,2.2,1.2Zm-5.8,.3l2,1-1.5,2.8-2-1,1.5-2.7h0v-.1h0Zm24.4-7l3.8,2-1,1.8-3.8-2,1-1.8Zm-5.7,2l3.2,1.8-1.2,2.2-3.2-1.7,1.2-2.3Zm-3.8,1.2l2.2,1.2-1,1.5-2.2-1.2,1-1.5Zm-18.6,5.8l1.8,1-1.7,3-1.7-1,1.6-3h0Zm16.2-2l-1.4,2.5-2.6-1.5,1.4-2.5,2.6,1.5Zm-4.4,1l-1.1,2.3-2-1,1.3-2.4,2,1-.2,.1h0Zm-6,.3l2,1-1.5,2.8-2-1,1.5-2.8Zm21-6.2l4,2-1,1.5-4-2,1-1.6v.1Zm-9.3,3l2.2,1.2-1,1.7-2.3-1.2,1-1.7h.1Zm-15.6,5l2,1-1.6,3-2-1,1.6-3Zm22.2-3.8l-.8,1.5-3.2-1.7,.8-1.6,3.2,1.8h0Zm1.7-2.4l4,2-1.3,2.3-3.8-2,1.2-2.3h-.1Zm-11.2,5.7l-1.3,2.4-2.7-1.4,1.3-2.4,2.7,1.4Zm1.8-2.6l2.2,1.2-1.3,2.6-2.3-1.3,1.4-2.5h0Zm-6.2,3.7l-1.6,2.8-2-1,1.6-2.8,2,1Zm9.8-4.4l3.2,1.8-1,1.7-3.2-1.7,1-1.8Zm-13.8,6.2l-1.6,3-2-1,1.6-3,2,1.2v-.2Zm18.2-6l4,2.2-.8,1.5-4-2,.8-1.6v-.1Zm-2.3,3.6l-1.4,2.6-3.2-1.7,1.4-2.6,3.2,1.7Zm-11.6,.8l2.7,1.5-1.6,3-2.7-1.5,1.6-3Zm4.4-1l2.2,1.2-1.3,2.4-2.2-1.2,1.3-2.4Zm-8.4,3l2,1-1.6,3-2-1,1.6-3Zm20.8-2.4l-1,1.7-4-2,1-1.7,4,2Zm-10,1l3,1.7-1.3,2.4-3-1.7,1.3-2.4Zm-1.7,2.5l-1.5,3-2.3-1.3,1.5-3,2.3,1.3Zm-7,.2l2.7,1.5-1.6,3-2.7-1.5,1.6-3Zm17.5-1.6l-1.4,2.6-4-2,1.4-2.6,4,2Zm-10.3,1.5l3,1.7-1.6,3-3-1.7,1.6-3Zm-2,3l-1.5,2.8-2.3-1.3,1.5-2.8,2.3,1.3Zm10.7-1.7l-.8,1.9-4-2.2,1.3-2.4,4,2.2-.5,.5Zm17.2-8.1v-.2h.1v.2h-.1Zm-27,9.6l3,1.7-1.5,2.7-3-1.6,1.5-2.8h0Z" fill="url(#uuid-6f71e9e1-98d5-4f76-a515-b87742c537ef)"/>
  <path d="M251.3,248.4h-.6c-.1,.2-.1,.4,0,.6h.1l.5,.2,1-.3h.4l-1.2-.7h-.3l.1,.2Zm3.7-1h-.3l-.6,1,1.5-.3,.3-.5v-.3c0-.2,0-.3-.2-.4h-.7v.5Zm-5.5,1.6h0l-.5,.2c-.1,0-.1,.1-.2,.2l-.5,1-.5-.3h-.8c0,.1-.1,.1-.1,.2s-.1,.5,.1,.6l.5,.2,2.2-1,.3-.6c.1-.1,.1-.2,.1-.3,0-.2-.2-.4-.4-.4h-.2v.2h0Zm7-1.8c-.1,0-.2,.1-.2,.2h0c-.1,.2-.1,.4,0,.6h.1l.5,.2h3l.3-.6h0c-.1-.2-.2-.4-.5-.4h-.3l-.4,.2-.4,.8-1.3-.7h-.8v-.3h0Zm-12,4.7h-.2l-.2,.2v.2c-.1,.2,0,.4,.2,.5l.5,.3,1-.7-1-.5h-.3Zm18.4-4.8c-.1,0-.2,.1-.2,.2h0l-.5,.8,1.3,.2,.3-.6h0c0-.3-.1-.5-.4-.5h-.5v-.1h0Zm-20.6,6.5h-.2v.4c-.1,.2-.1,.4,.1,.5l.6,.3,1-.8-.8-.4h-.7Zm23.6-6l-.2,.2-.4,.8,1.2,.2,.3-.5h0c0-.3-.1-.5-.3-.5h-.6v-.2Zm-25.3,7.8h-.2l-.2,.3h-.1c-.1,.2,0,.5,.2,.6l.5,.3,1-1-.8-.4-.3,.1-.1,.1h0Zm28.7-7l-.2,.2-.4,.8,1,.3,.3-.6h.1c0-.2-.1-.5-.3-.6h-.6v-.1h.1Zm-30.6,9.3c-.1,0-.2,.1-.2,.2h0c-.1,.1-.2,.1-.2,.2h0c-.2,.2-.1,.4,.1,.5l.6,.4,.7-1-.7-.4h-.3v.1h0Zm33-8.5l-.3,.2-.4,.7,1,.4,.3-.6h.1c.1-.2-.1-.5-.3-.6h-.5v-.1h.1Zm-34.2,10.2l-.3,.2c0,.1-.1,.1-.1,.2h0c-.1,.2-.1,.5,.1,.6l.7,.4,.6-1-.7-.4c-.1-.1-.2-.1-.3,0h0Zm36.6-9.4l-.3,.2-.4,.6h.2l1,.4,.4-.6h0c.1-.2,.1-.4-.1-.5h-.7v-.1h-.1Zm-37.8,11.7l-.3,.3v.3c-.1,.2,0,.4,.2,.5l.7,.4c.1-.4,.2-.7,.4-1h0l-.6-.3-.4-.2h0Zm40-10.7l-.3,.2-.3,.6,.2,.2h.1l.7,.4,.4-.7h0c.1-.2,0-.5-.2-.6h-.6v-.1h0Zm-41,13c-.2,0-.3,.1-.3,.3-.2,.3-.1,.6,.1,.8l.7,.4c.1-.4,.3-.8,.4-1l-.6-.4h-.3v-.1h0Zm43-12l-.3,.2-.3,.7,.8,.4h.2l.3-.6c.1-.2,.1-.5-.1-.6l-.3-.2-.3,.1h0Zm-43.6,14.4c-.2,0-.3,.1-.3,.3,0,.1,0,.2-.1,.3,0,.2,.1,.4,.2,.5l.8,.4,.3-1.2-.6-.3h-.3Zm45.6-13c-.1,0-.2,.1-.2,.2h0l-.3,.6,1,.6,.4-.6c.1-.2,0-.5-.2-.6l-.2-.2h-.5Zm-46.5,16v.3c-.1,.2,0,.4,.2,.5l.8,.4c.1-.4,.1-.8,.2-1.2l-.6-.3h-.3l-.3,.3h0Zm49.2-14.4c-.2,0-.3,.1-.3,.2l-.3,.6,1,.7,.4-.7c.1-.2,0-.4-.1-.6l-.3-.2h-.4Zm2,1.4c-.1,.1-.2,.1-.2,.2l-.4,.6,1,.8,.4-.8c.1-.1,0-.4-.2-.5l-.2-.2h-.4v-.1h0Zm-51,15.5c-.2,0-.3,.1-.3,.3v.4l.2,.4,1,.5c0-.4,0-1,.1-1.3l-.6-.3h-.4Zm53.3-13.7l-.3,.2-.3,.6,1,.8,.4-.7c.1-.2,.1-.4-.1-.6l-.2-.2-.4-.1h-.1Zm-53.3,17c-.2,.1-.3,.3-.3,.5v.3c0,.2,.1,.3,.2,.4l.7,.4-.5,1c-.1,0-.1,.1-.1,.2,.1,.1,.1,.3,.1,.5s.1,.3,.2,.3,.5,.1,.6-.1l.3-.5c-.2-1-.3-1.7-.3-2.6l-.6-.3-.3-.1h0Zm55.3-15.2l-.3,.2-.3,.6,1,.8,.4-.7c.1-.2,.1-.4-.1-.5s-.1-.2-.2-.3l-.4-.1h-.1Zm-54.8,19c-.2,0-.3,.3-.3,.5s.1,.2,.1,.4l.2,.3,1.3,.7c-.2-.5-.3-1-.4-1.6l-.5-.3h-.4Zm57-16.7c-.1,.1-.2,.2-.2,.3l-.3,.5,.8,1,.4-1c.1-.1,.1-.4,0-.5s-.2-.1-.2-.2l-.5-.2h0v.1h0Zm1.7,2.2l-.2,.2-.3,.6,.8,1,.4-1c.1-.1,.1-.4,0-.5-.1,0-.1-.1-.2-.2l-.5-.2h0v.1h0Zm-57.2,17.9l-.6,1v.4c0,.1,.1,.2,.1,.4s.2,.1,.2,.2c.2,.1,.4,.1,.6-.1h0l.3-.4-.6-1.6v.1Zm57.7-15.3l1.2,2,.4,.3h.1l-.2,.3,.7,1.2,.5-1c.1-.1,.1-.4,0-.5v-.3l-.3-.2h-.1l-.3-.5v-.2l-1.8-1-.2-.1h0Zm-57.3,18c0,.07-.03,.1-.1,.1-.2,.1-.3,.3-.2,.5l.3,.5v.2l1.2,.6-.3,.5c-.1,.1-.1,.3,0,.4l.2,.3,.2,.2c.2,.1,.4,0,.5-.2l.3-.4-1.3-2.3-.6-.3-.2-.1h0Zm60.5-12c.5,1,.8,2,1.2,3l.6-1.2c.1-.1,.1-.2,.1-.4l-.2-.3-.2-.3h0c0-.1-.1-.2-.2-.2h0l-1.3-.7v.1Zm-57,16.8l-.4,.8c-.1,.2-.1,.4,.1,.5l.2,.3h.1c.2,.1,.5,0,.6-.2l.2-.5-.8-1v.1h0Zm2.2,2.6l-.4,.7c-.1,.2-.1,.4,.1,.5v.3h.1c.2,.1,.5,0,.6-.2l.2-.5-.8-1h0l.2,.2h0Zm56-15.2c.2,.5,.3,1,.4,1.5l.4,.2h.3c.2-.1,.4-.3,.3-.5v-.4c-.1-.2-.2-.3-.3-.3l-1-.6v.1h-.1Zm-54.1,17.1l-.3,.7c-.1,.2-.1,.4,.1,.5l.2,.2h.1c.2,.1,.4,0,.6-.2l.2-.5-1-.8v.1h.1Zm2,1.7l-.4,.6c-.1,.2,0,.4,.1,.6l.3,.2h0c.2,.1,.5,0,.6-.2l.3-.5-1-.7h.1Zm53-14.7c.1,.5,.1,1,.1,1.4l.4,.2h.3c.2,0,.4-.2,.4-.4v-.4c-.1-.1-.1-.3-.3-.3l-1-.5h.1Zm-51,16l-.4,.6c-.1,.2,0,.5,.2,.6l.2,.2h.1c.2,.1,.4,0,.5-.2l.3-.5-1-.7h.1Zm2,1.5l-.3,.6c-.1,.2,0,.4,.2,.5,0,.1,.1,.1,.2,.2h0c.2,.1,.5,0,.6-.2l.3-.5-1-.6Zm49.3-14.4c0,.4-.1,1-.1,1.3l.5,.2c0,.07,.03,.1,.1,.1h0c.2,0,.5-.2,.5-.4v-.4c0-.1-.1-.3-.2-.4l-.8-.4h0Zm-46.8,15.9l-.3,.6c-.1,.2,0,.5,.2,.6h.3c.2,.1,.4,.1,.5-.2l.3-.5-1-.6h0v.1Zm46.6-13.2c-.1,.4-.1,.8-.2,1.2l.4,.3h.2c.2,.1,.4-.1,.5-.3v-.3c.1-.2,0-.4-.2-.5l-.7-.4h0Zm-44.5,14.2l-.2,.6h0c-.1,.2-.1,.4,.1,.6h.3c.2,.1,.5,0,.6-.2l.3-.6-1-.5h-.1v.1h0Zm44-11.4c-.1,.3-.3,.7-.4,1l.5,.3h.1c.2,.1,.4-.1,.5-.3,.2-.2,.1-.6-.1-.8l-.6-.3h0v.1h0Zm-42,12.3l-.3,.5h0c-.1,.2,0,.5,.2,.5l.3,.2c.2,.1,.5,0,.6-.2l.3-.6-1-.5h0l-.1,.1Zm2.4,1l-.3,.5c0,.07-.03,.1-.1,.1,0,.2,.1,.5,.3,.6h.8l.4-.7-1-.4v.1l-.1-.2h0Zm38.6-11c-.1,.4-.3,.7-.5,1h0l.6,.3h0c.2,.1,.5,0,.6-.2,0-.1,.1-.2,.1-.3,.1-.2,0-.5-.2-.6l-.6-.3v.1Zm3.3-.8l-.2,.2c-.07,.07-.1,.13-.1,.2l.4,.2,.4,.2h0c.1-.2,.1-.4,0-.6h-.5v-.2h0Zm-39.3,12.7l-.3,.5h0c-.1,.2,.1,.4,.3,.5h.3c.2,.1,.4,0,.5-.2l.4-.7-1.2-.3v.2h0Zm35-10l-.6,1,.6,.3c.2,.1,.4,0,.5-.2l.2-.2h0c.1-.2,.1-.4-.2-.5l-.5-.3v-.1h0Zm-32.5,10.8l-.3,.4h0c-.1,.2,.1,.4,.3,.5h.3c.2,.1,.4,0,.5-.2l.4-.7-1.2-.2h0v.2h0Zm30.9-8.6l-.8,1,.7,.4c.2,.1,.4,.1,.5-.1,.1-.1,.2-.2,.2-.3h.1c.1-.2,0-.5-.2-.6l-.5-.3h0v-.1h0Zm-27.5,9.5h0c-.1,.2,.1,.4,.3,.5h.4c.1,.1,.3,0,.4-.2l.4-.8h-1.3l-.2,.5h0Zm26.2-8l-.4,.4h0l-.4,.4c-.07,0-.1,.03-.1,.1h0l.7,.4c.2,.1,.3,0,.5-.1,.1,0,.2-.1,.2-.2h0c.07,0,.1-.03,.1-.1h0c.1-.2,.1-.4-.1-.6h-.1l-.4-.3h0Zm-23,8.2v.2c0,.2,.2,.5,.4,.5h.3c.2,0,.4-.1,.4-.2l.5-1h-1.3l-.3,.4v.1Zm21.3-6.6l-.8,.6h-.2l1,.5h.4l.3-.2c0-.1,.1-.1,.1-.2,0-.2-.1-.4-.2-.6l-.5-.2v.1h-.1Zm-19,6.3l2,1h.8c.2,0,.4-.2,.4-.4l.5-.8-3.6,.2h-.1Zm16-4h-.1l-1,.6,1,.5c.1,.1,.2,.1,.4,0h.3c0-.1,.1-.1,.1-.2,.1-.2,.1-.4,0-.6h-.1l-.5-.2v-.1h-.1Zm-10,3.6l1.4,.8c.1,0,.2,.1,.3,0h1l.3-.2,.6-1.2-1.6,.5v.2h-.3l-1.7,.3-.1-.4h.1Zm6.5-2l-1.4,.6,1,.6h.4l.4-.2,.2-.2c.1-.2,0-.4-.2-.5l-.5-.3h.1Z" fill="#ccc"/>
  <path d="M328.1,306.2l-.3-.2-.6-.2-.5-.2h-.3c0-.1-.2-.2-.2-.1h-.2l-.4-.2-.6-.2-2-1.3-1.4-1-2.8-2.3-1.7-1.7c-.79-.79-1.52-1.62-2.2-2.5-.1,0-.2-.2-.4-.4l-1.3-1.5-1-1.5c-.2-.1-.4-.5-.6-.7l-.6-.7-4.6-6.7c-.3-.6-.7-1-1-1.6-.5-.7-1-1.4-1.4-2.2l-.8-1.3c-.2-.3-.4-.7-.5-1-.2-.3-.4-.6-.5-1-.96-1.72-1.83-3.49-2.6-5.3l-2-4c-.98-1.92-2.12-3.76-3.4-5.5-.4-.5-.7-.8-.5-.5s-.1,.1-.3,.3-.5,.4-.6,.1l-.4-.6-.5-.6c-.8-1-1.3-1.6-1.4-1.5s-.1,0-.1-.1h-.1c0-.1,.3-.4,.5-.5s.3-.2-.6-1.2c-2.6-2.7-5.5-5-8.6-7-1-.7-4.3-2.4-5.8-3-3-1.4-6.3-2.4-9.6-3-.5,0-1-.1-1.4-.3-.8-.3-1.6-.4-2.5-.4h-6l-1.2,.2-1,.2c-1,.1-2.2,.4-3.2,.7v.7c-1.2,.3-2.4,.8-3.6,1.3l-1.3,.6c-1.8,1-3.5,2-5,3.4-2.7,2.2-5,5-6.5,8-3.56,6.32-4.53,13.78-2.7,20.8,1,4,3,7.7,5.2,11,.5,.8,1,1.5,1.8,2,.6,.4,1,1,1.5,1.4,1.3,1.4,2.7,2.7,4.2,4l.7,.5,1,.8c2.62,1.84,5.44,3.38,8.4,4.6,.3,.1,.5,.2,.5,.3l.7,.2,.8,.3,1,.3c.5,.2,.8,.3,.8,.4h.2l.8,.2,3,.8,.8,.2c3.42,.68,6.91,1.02,10.4,1l3.4-.2,2.8-.3,3.4-.5,1.8-.2,4.8-.4h12l2.5,.2h1.8l1.7,.2h1.2l5.8,1h.3l3.6,1.2c1.4,.4,2.7,1,4,1.8,0,.1,.4,.4,.8,.6s.7,.4,.7,.5h.3l.3,.2c.1,.1,.2,.2,.4,.1,1,.3,1.7,.7,2.5,1.3l7.3,4.2v-8.5l-3.8-2-2.6-1.5h-.5Zm-35.3-7c-.5,.6-1,1-1.8,1.5l-.5,.4c-.6,.5-1.2,1-2,1.2-9.2,5.4-22.5,5.7-34.7-.2-18-8.8-24.6-25-18-40.2,3-6.6,8.8-11.5,15.7-13.6,6-1.7,13-1.7,21.3,1.7l.3,.2,1,.4,.8,.3,.7,.4,2.8,1.4c19,10.7,24.5,30,18.6,40.8-.8,1.6-1.8,3-3,4.3-.3,.4-.6,.7-1,1-.1,.1-.2,.3-.4,.4h.2Zm25.6,7c-.3,.1-.5,.1-1.3-.1-2.8-.9-5.68-1.5-8.6-1.8-3.91-.52-7.85-.78-11.8-.8-2.6,0-2.7,0-3-.4s-.5-1,.4-2c.2-.3,.5-.5,.8-.6,.2,0,.3-.1,.4-.2h.4c.6,0,1.3-1,1.3-1.5,0-.3,.1-.5,.3-.7l.6-1c.4-.6,.6-.8,.8-1,.6-.2,1-1,.8-1.6,0-.2,.1-.5,.2-.7l.6-1.2c.2-.6,.3-.8,.5-1,.6-.4,.8-1.2,.6-2-.1-.3-.1-.5,0-.6v-.4c-.1-.6,0-1.3,.2-2,.2-.3,.5-.5,.8-.6h.1c.5,0,1,.2,1.4,1l.6,1,2.7,4,1,1.4c.5,.8,2.5,3.3,3,3.8l1.3,1.5c1.3,1.5,2.2,2.5,3.3,3.6l2,1.7,.5,.4c.4,.3,.5,.5,.5,.7,.1,.4-.1,.7-.4,1v.1h0Z" fill="#d40000"/>
  <path d="M328.5,306.8l-.2-.2-.6-.2-.6-.2h-.2c0-.1-.2-.2-.2-.1l-.2-.2h-.1l-3.6,6.2,.7,.4c.4,.2,.7,.4,.7,.5h.3l.3,.2c.1,.1,.2,.2,.4,.1,1,.3,1.7,.7,2.5,1.3l7.3,4.2v-8.4l-3.8-2-2.7-1.5v-.1h0Z" fill="url(#uuid-01e6a1f7-8eda-402c-9766-cbfd4936dd3a)"/>
  <path d="M251,246.4c-1.2,.3-2.4,.8-3.6,1.3l-1.3,.6c-1.8,1-3.5,2-5,3.4-2.7,2.2-5,5-6.5,8-3.56,6.32-4.53,13.78-2.7,20.8,1,4,3,7.7,5.2,11,.5,.8,1,1.5,1.8,2,.6,.4,1,1,1.5,1.4,1.3,1.4,2.7,2.7,4.2,4l.7,.5,1,.8,.2,.2,1.8-1.6c-13.5-9-17.8-23.2-12-36.7,3-6.6,8.8-11.5,15.7-13.6,6-1.7,13-1.7,21.3,1.7h0l.3,.2h0l1,.4h0l.8,.3,.7,.4,2.8,1.4c4.3,2.4,8.2,5.5,11.5,9.2l.8-.7c-.2-.3-.4-.5-.7-.7,0,.1-.1,0-.1-.1h0s-.1,.1-.1,0,.3-.4,.5-.5,.3-.2-.6-1.2c-2.6-2.7-5.5-5-8.6-7-1-.7-4.3-2.4-5.8-3-3-1.4-6.3-2.4-9.6-3-.5,0-1-.1-1.4-.3-.8-.3-1.6-.4-2.5-.4l-4.7,.2h-1.3l-1.2,.2-1,.2c-1,.1-2.2,.4-3.2,.7h0l.1-.1h0Z" fill="#1a1a1a"/>
  <path d="M289.6,260.9c1,1,2,2.2,3,3.4l1.5-1.4-3-3.3-1.5,1.3Z" fill="url(#uuid-42a21329-ff9c-4d24-90c1-d147f508ce35)"/>
  <g>
    <path d="M329,307.4l-1.8,7,.5,.3,4,2.3,2.2-7.2-2.6-1.3-2.2-1.2h0l-.1,.1h0Z" fill="none" stroke="#000" stroke-width=".1"/>
    <path d="M326.4,305.9l-3.4,5.5v.7l.6,.3c.4,.2,.7,.4,.7,.5h.3l.3,.2c.1,.1,.2,.2,.4,.1s.6,.2,2.2,1.2l2.2-7-1-.6c0-.1-.1-.2-.2-.2h0l-.6-.2h-.8c0-.1-.2-.2-.2-.1l-.2-.2-.1-.1-.2-.1h0Z" fill="none" stroke="#000" stroke-width=".1"/>
  </g>
  <path d="M324.8,306.8l-8.7-5.8c-2.71-2.49-5.09-5.31-7.1-8.4-2-2.7-5-8.5-5-8.5l1.4,1.8s7.2,10.2,11.7,14.5l7.7,6v.4Zm-1.8,3.4c-3.13-1.58-6.37-2.92-9.7-4-3.58-.8-7.23-1.2-10.9-1.2-3.3-.1-9.8,.5-9.8,.5l2.2,.3s12.5,.3,18.6,1.6c3.14,.79,6.22,1.83,9.2,3.1l.4-.3h0Z" fill="red" isolation="isolate" opacity=".5"/>
  <path d="M251.3,247.1c-1.58,.42-3.12,.99-4.6,1.7-7,3.7-12.2,10.2-14,18-1.4,5.6-1,11.4,1.2,16.7,1.13,2.94,2.68,5.7,4.6,8.2,2.36,2.77,5.01,5.29,7.9,7.5,.3,.4,.6-.2,.8-.3-3.6-2.4-6.6-5.5-9-9-4.7-7-6-15.5-4-23.5,1.6-6.33,5.53-11.83,11-15.4,5.8-3.7,12.8-5,19.6-4,9.48,1.7,18.21,6.28,25,13.1,.1,0,.2-.3,.3-.4-4.8-5-10.7-9-17.2-11.5-2.7-1.2-5.7-1.4-8.5-2.2-4.4-.46-8.85-.05-13.1,1.2h0v-.1h0Z" fill="url(#uuid-e320ec3e-b483-4730-9f65-7ba7e40f086d)" isolation="isolate" opacity=".5"/>
  <path d="M245.2,299.2h.1l1,.8,3.4,2,1.8-1.6-4.6-3-1.7,1.6v.2Z" fill="url(#uuid-4856cd82-6651-49a9-b89b-6c9d14e8604b)"/>
  <g opacity=".5">
    <g clip-path="url(#uuid-e63c153b-3657-4d4a-b907-db8deed5853a)">
      <g>
        <path d="M230.7,325.2h54v8h-54v-8h0Z"/>
        <path d="M285.6,329.1v-4.7h-55.6v9.6h55.7v-4.8l-.1-.1Z"/>
        <ellipse cx="257.8" cy="329.1" rx="25.9" ry="6.5"/>
      </g>
    </g>
  </g>
  <path d="M291,297.6c0-18-14.7-32.8-33-32.7s-32.8,14.7-32.7,33,14.7,32.8,33,32.8,32.7-14.7,32.8-32.7h0" fill="url(#uuid-ba3da2fa-a2ab-4485-a5cb-262a97d635d2)"/>
  <path d="M275,316.8c-2.81-1.22-5.72-2.19-8.7-2.9-3-.6-5.7-1.8-8-3.5-3.4-2.5-6.6-7-6.6-13.8,0-1.6,.2-3.3,.5-5,1.3-6.4,6-12.2,10-14.3,4.22-2.09,8.89-3.12,13.6-3,2,0,4,.1,6,.4l-2.8-2.3-3.4-.2c-4.5,0-10,.7-14.6,3.3-5.7,3.5-9.8,9.2-11,15.8-.4,1.7-.6,3.5-.6,5.3,0,7.6,3.7,12.8,7.5,15.5,2.7,2,5.7,3.2,9,4,3,.6,5.6,1.6,8.3,2.8,1.97,1,3.55,2.61,4.5,4.6l1.6-1.5c-1-2.2-3-4-5.2-5h0l-.1-.2h0Z" fill="#f2f2f2"/>
  <g>
    <path d="M30.8,15.7c0,.3-.1,.6-.3,1l-4.3,4.2-4.5-2.6v-2.6c0-.7,.6-1.3,1.3-1.3h.1c.7,0,1.3,.6,1.3,1.3h0v3.3l4.2-4.2c.5-.5,1.4-.5,2,0,.2,.3,.3,.6,.3,1m-1.4,12h-.5l-.4-.2-4.2-4.2v3.2c-.2,.8-1,1.2-1.7,1-.5-.1-1-.5-1-1h0v-2.7l4.5-2.6,4.3,4.2c.5,.5,.5,1.3,0,1.8-.3,.3-.6,.4-1,.4" fill="#006837"/>
    <path d="M26,21c0-.07-.03-.13-.1-.2h0l-1-.6-3-1.8-2.5-1.5c-.2-.1-.4-.1-.5,.1v8c0,.2,.1,.3,.3,.3h.2l2.5-1.5,4-2.4h.1c.1-.3,.1-.4,0-.4Zm-1,.1c0,.07-.03,.13-.1,.2l-3.2,1.8-2,1.2c-.1,.1-.2,0-.3-.1h0c-.07,0-.1-.03-.1-.1h0v-6c0-.2,.1-.3,.3-.3h.1l2,1,3.2,2c.1,0,.2,.1,.1,.2v.1Zm-1,0c0,.07-.03,.1-.1,.1l-2.4,1.4-1.5,1c-.1,0-.2,0-.2-.1s-.1,0-.1-.1v-4.5c0-.1,.1-.2,.2-.2h0c.07,0,.1,.03,.1,.1h0l1.5,.8,2.4,1.4c.07,0,.1,.03,.1,.1h0m28.8-.2c0-.07-.03-.1-.1-.1l-3.7-2-2.3-1c-.2-.1-.4,0-.4,.2v6c0,.2,.2,.3,.4,.2l2.3-1.2,3.6-2c.1,0,.1-.1,.1-.2s.2,0,.1-.1v.2Zm-.8,.1h0l-3,1.7-1.7,1c-.2,.1-.4,0-.4-.2v-4.7c0-.2,.1-.2,.2-.2h.1l1.8,1,3,1.4c0,.07,.03,.1,.1,.1,.1,0,0,.1-.1,.1h.1l-.1-.2Z" fill="#006837"/>
    <path d="M51,21h0l-2,1.2-1.3,.7c-.1,0-.2,0-.2-.1h0v-3.6h.3l3.5,1.8m-17.8-3h3.3c1.5,0,2.7,1,2.7,2.2s-1,2-2.7,2.2h-1.8v2h-1.5l-.1-6.5,.1,.1Zm3,3c.8,0,1.3-.4,1.3-1s-.5-1-1.3-1h-1.5v1.8h1.5v.2Z" fill="#006837"/>
    <path d="M45.6,23.1v1.3h-5v-6.3h1.4v5.3l3.6-.1v-.2Zm9-1.2l-2.8-4h1.8l1.8,2.8,1.8-3h1.7l-2.9,4.2v2.3h-1.6v-2.3h.2Zm5.3-3.8h.8v3.6l3.6-3.6h1l-3,3,3.2,3.4h-1l-2.8-3-1,1v2h-.8v-6.4Zm6.1,3.3c.1-2,1.8-3.5,3.7-3.4,2,0,3.5,1.4,3.7,3.3-.1,2-1.7,3.5-3.7,3.4-2,.1-3.5-1.4-3.7-3.3Zm6.5-.1c-.1-1.5-1.3-2.6-2.8-2.6s-2.8,1.2-3,2.7h0c.2,1.5,1.4,2.6,3,2.6,1.5,.1,2.7-1,2.8-2.6h0v-.1Zm2,2.3l.5-.6c.7,.6,1.5,1,2.4,1,1,0,1.6-.6,1.6-1s-.7-1-2-1.2-2.4-.7-2.4-1.8c.2-1.2,1.2-2,2.4-2,1,0,1.8,.3,2.5,1l-.5,.6c-.5-.5-1.3-.8-2-.8-1,0-1.6,.5-1.6,1s.8,1,2,1.2,2.3,.7,2.4,1.8-1,2-2.6,2c-1,0-2-.3-2.8-1l.1-.2Zm6.8-5.5h1l2.7,4.5,2.6-4.5h.8v6.3h-.8v-5l-2.6,4.6-2.8-4.6v5h-.8l-.1-6.5v.2Zm8.6,3.3c0-2,1.7-3.4,3.6-3.4h0c2-.1,3.5,1.4,3.7,3.3-.3,2-2.2,3.4-4.2,3-1.6-.2-2.8-1.4-3-3l-.1,.1Zm6.5-.1c-.3-1.6-1.8-2.6-3.4-2.3h0c-1.18,.26-2.09,1.21-2.3,2.4,.3,1.6,1.8,2.6,3.4,2.3h0c1.18-.26,2.09-1.21,2.3-2.4Zm2,2.3l.5-.6c.6,.6,1.4,1,2.3,1,1,0,1.7-.6,1.7-1s-.7-1-2-1.2-2.3-.7-2.3-1.8c.1-1.2,1-2,2.3-2h0c1,0,2,.3,2.6,1l-.5,.6c-.6-.5-1.3-.8-2-.8-1,0-1.5,.5-1.5,1s.7,1,2,1.2,2.4,.7,2.4,1.8-.8,2-2.5,2c-1,0-2-.3-2.8-1l-.2-.2ZM18.7,142.4h250.5v24.5H18.7v-24.5Zm33.3,39.6c1.2-.1,2,.8,2.2,2h0c.1,.5-.1,1-.4,1.4l-1.6,2.4h-.2l-2-2.4c-.7-1-.5-2.4,.5-3l1-.3h.3l.2-.1h0Zm0,1c-.6,0-1,.4-1,1,0,.55,.45,1,1,1h0c.55,.06,1.04-.34,1.1-.89h0v-.21c.1-.5-.3-1-.8-1h-.3v.1ZM241.5,102.6h93.5v17h-93.5v-17ZM58.5,260.9H8.5l-1-23H58.3v23h.2Z" fill="#006837"/>
  </g>
  <path d="M8.5,239H58.5v65.4H8.5v-65.4Z" fill="url(#uuid-79d2770e-6359-43ab-9375-ae300b7f9276)"/>
  <g>
    <path d="M258,134.1c-.4,.4-1,.4-1.4,.1-.4-.4-.5-1-.1-1.5,.4-.4,1-.4,1.5-.1,.4,.4,.4,1,0,1.5Zm4.3,4c-.4,.4-1,.4-1.4,.1-.4-.4-.4-1-.1-1.4,.4-.4,1-.5,1.5-.1,.38,.39,.38,1.01,0,1.4Z" fill="#006837"/>
    <path id="uuid-198bb7e0-27db-4065-acf3-0dcabf16fb2c" data-name="uuid-30da2a9e-21d3-49d2-b7b4-5bdcfbc65748" d="M271.2,145.9c-.4,.4-1,.5-1.4,.2s-.5-1-.1-1.4h.1c.4-.4,1-.4,1.5,0,.32,.37,.32,.93,0,1.3l-.1-.1Z" fill="#006837"/>
    <path id="uuid-bdba88c1-e3bb-4264-a95d-5d8a77a4942e" data-name="uuid-c9a730e2-7741-4fe9-b26b-729d41e24413" d="M275.6,149.8c-.31,.46-.93,.58-1.39,.27-.46-.31-.58-.93-.27-1.39,.05-.07,.1-.13,.16-.19,.36-.41,.98-.45,1.4-.1h0c.4,.4,.4,1,.1,1.4h0Z" fill="#006837"/>
    <path d="M266,134c-.4,.3-1,.3-1.4-.1-.3-.3-.4-.8-.1-1.2s.8-.5,1.3-.2h.2c.44,.33,.53,.96,.2,1.4l-.1,.1h-.1Zm4.3,4c-.3,.4-.8,.5-1.2,.2h-.2c-.5-.3-.6-1-.3-1.4h0c.3-.4,1-.6,1.4-.3l.2,.2c.4,.3,.5,.8,.2,1.3v.1h-.1v-.1Zm4.5,4c-.4,.4-1,.5-1.5,.2s-.6-1-.2-1.5l.1-.1c.33-.44,.96-.53,1.4-.2l.1,.1h.1c.4,.4,.4,1,.1,1.5h-.1Z" fill="#006837"/>
    <path id="uuid-28bbad9b-f253-441d-b916-ca23367c1c9c" data-name="uuid-b71de33a-7237-4d70-9cd1-29da0046b015" d="M269.5,130c-.4,.4-1,.5-1.4,.2s-.5-1-.1-1.4h.1c.4-.4,1-.4,1.5,0,.32,.37,.32,.93,0,1.3l-.1-.1Z" fill="#006837"/>
    <path id="uuid-aacb01de-13fe-455b-9bc7-bdcb9639b1f0" data-name="uuid-e4649075-acd8-4294-886c-1493767f6063" d="M274,133.9c-.31,.46-.93,.58-1.39,.27-.46-.31-.58-.93-.27-1.39,.05-.07,.1-.13,.16-.19,.36-.41,.98-.45,1.4-.1h0c.4,.4,.4,1,.1,1.4h0Z" fill="#006837"/>
    <path d="M278.3,137.9c-.4,.4-1,.4-1.5,.1-.4-.4-.4-1,0-1.5,.4-.4,1-.5,1.4-.2s.5,1,.1,1.4l-.1,.1,.1,.1h0Zm4.4,4c-.4,.4-1,.4-1.4,.1-.4-.4-.4-1-.1-1.5,.4-.4,1-.4,1.5,0,.38,.39,.38,1.01,0,1.4Zm-14-19.8c-.3,.4-.8,.5-1.2,.2h-.2c-.5-.3-.6-1-.3-1.4h0c.3-.4,1-.6,1.4-.3l.2,.2c.4,.3,.5,.8,.2,1.3h-.1Zm9,8c-.4,.4-1,.5-1.5,.1-.38-.39-.38-1.01,0-1.4,.3-.4,.8-.5,1.3-.2h.2c.4,.4,.5,1,.1,1.5h-.1Zm4.5,4c-.3,.4-.8,.5-1.2,.2h-.2c-.46-.31-.58-.93-.27-1.39s.93-.58,1.39-.27c.07,.05,.13,.1,.19,.16,.41,.36,.45,.98,.1,1.4h0v-.1h-.01Zm-276.7,1.3h5l-2.5,4-2.5-4Zm0,8.3h5l-2.5,4-2.5-4Zm0,8.3h5l-2.5,4-2.5-4Zm0,8.4h5l-2.5,4-2.5-4Zm0,8h5l-2.5,4-2.5-4Z" fill="#006837"/>
  </g>
  <path d="M111.5,329.8v-5l4,2.5-4,2.5Z" fill="url(#uuid-75fd8192-49c6-4c38-90e7-18397206fd12)"/>
  <path d="M119.8,329.8v-5l4,2.5-4,2.5Z" fill="url(#uuid-c7d73559-149d-4d23-bb58-a8207ca433a6)"/>
  <path d="M128,329.8v-5l4,2.5-4,2.5Z" fill="url(#uuid-040e4444-779b-49b6-8ec7-f981a7028cb3)"/>
  <path d="M136.4,329.8v-5l4,2.5-4,2.5Z" fill="url(#uuid-6bc6b460-5cec-4e20-b2df-e7bef1f6c8ce)"/>
  <path d="M144.7,329.8v-5l4,2.5-4,2.5Z" fill="url(#uuid-1905a4ab-10bf-4719-abfb-0c88d865e56f)"/>
  <path d="M306.6,171.7v3.4m1.7-6.3v6.3m1.7-9.5v9.5m1.8-12.7v12.8m1.7-15.8v15.6m1.7-17.6v17.8m1.8-17.8v17.8m1.7-15.8v15.6m1.7-12.6v12.8m1.6-9.6v9.5m2-6.3v6.3m1.6-3.4v3.4" fill="none" stroke="#006837" stroke-miterlimit="10"/>
  <path d="M27.5,123.1c0-2.4-2-4.4-4.4-4.4s-4.4,2-4.4,4.4,2,4.4,4.4,4.4h0c2.4,0,4.4-2,4.4-4.4h0" fill="url(#uuid-f75b6650-982b-43f9-8308-3aba689d823a)"/>
  <path d="M25.4,125.7l-1.2-.4-1-.5c-.6-.4-1-1-1-1.8,0-.2,0-.5,.1-.7,.1-.8,.6-1.5,1.3-2,.6-.3,1.2-.4,2-.4h.8l-.4-.3h-.4c-.7,0-1.4,.1-2,.4-.8,.5-1.3,1.2-1.5,2-.3,1,.1,2,1,2.8,.4,.3,.8,.5,1.2,.6l1,.3c.3,.2,.5,.4,.6,.7l.3-.2-.7-.7-.1,.2Z" fill="#f2f2f2"/>
  <path d="M27.5,99.4c0-2.4-2-4.4-4.4-4.4s-4.4,2-4.4,4.4h0c0,2.4,2,4.4,4.4,4.4s4.4-2,4.4-4.4" fill="url(#uuid-a617f655-2af2-4da9-89c2-b97cc6dafe8b)"/>
  <path d="M25.4,101.9l-1.2-.4-1-.5c-.6-.4-1-1.2-1-2,0-.2,0-.4,.1-.6,.1-.8,.6-1.5,1.3-2,.6-.3,1.2-.5,2-.4h.8l-.4-.3h-.4c-.7,0-1.4,.1-2,.4-.88,.46-1.48,1.32-1.6,2.3-.1,.2-.1,.5-.1,.7-.1,.8,.3,1.6,1,2l1.2,.6c.4,0,.8,.1,1,.3,.3,.2,.4,.3,.6,.6h.3c-.1-.3-.4-.6-.7-.7v-.1l.1,.1Z" fill="#f2f2f2"/>
  <g>
    <circle cx="53.5" cy="215.8" r="2.6" fill="#006837"/>
    <circle cx="84.1" cy="236.1" r="2.6" fill="#006837"/>
  </g>
</svg>
